<?xml version="1.0" encoding="utf-8"?>
<!-- Generator: Adobe Illustrator 18.1.1, SVG Export Plug-In . SVG Version: 6.00 Build 0)  -->
<svg version="1.1" id="Layer_1" xmlns="http://www.w3.org/2000/svg" xmlns:xlink="http://www.w3.org/1999/xlink" x="0px" y="0px"
	 viewBox="0 138 612 559" enable-background="new 0 138 612 559" xml:space="preserve">
<path fill="#603813" d="M416.3,191.6c0,0-5.7,9.8-4.4,20s-3.8,17.4-3.8,17.4l21.5-14.5c0,0-6.3-6.1,1.6-16.3
	C439.1,188.1,416.3,191.6,416.3,191.6z"/>
<path fill="#E0A984" d="M509,212.8l-37.6,62.9l-33.9-13.5l-20.3,11.6c0,0-26.8,1.2-20.7-36.4l33.2-22.9c0,0-6.5-10.9,2.5-16
	c9-5.1,16.9,1.7,16.9,1.7l18.6-20.3L509,212.8z"/>
<path fill="#999999" d="M412.7,358.5c-4.9,2-9.8,3.7-14.2,5c-1.2,0.3-2.2,1.2-2.7,2.3c-0.5,1.1-0.6,2.4-0.1,3.5l10.2,24
	c0.7,1.6,2.3,2.6,3.9,2.6c0.6,0,1.1-0.1,1.7-0.3c2.2-0.9,3.2-3.4,2.3-5.6l-8.4-19.7c3.3-1.1,7.9-2.8,12.9-4.9L412.7,358.5z"/>
<rect x="195" y="388" transform="matrix(-0.365 -0.931 0.931 -0.365 -78.2946 730.9344)" fill="#999999" width="30.2" height="8.2"/>
<g>
	<circle fill="#999999" cx="497.7" cy="580.5" r="24.3"/>
	<circle fill="#636363" cx="497.7" cy="580.5" r="17.1"/>
	<rect x="496.8" y="489" width="2.1" height="72.8"/>
	<rect x="535.7" y="505.1" transform="matrix(0.7071 0.7071 -0.7071 0.7071 540.1248 -220.9682)" width="2.1" height="72.8"/>
	<rect x="516.5" y="579.3" width="72.8" height="2.1"/>
	<rect x="535.7" y="582.8" transform="matrix(-0.7071 0.7071 -0.7071 -0.7071 1354.1954 677.6063)" width="2.1" height="72.8"/>
	<rect x="496.8" y="598.9" width="2.1" height="72.8"/>
	<rect x="457.9" y="582.8" transform="matrix(-0.7071 -0.7071 0.7071 -0.7071 345.6965 1381.6572)" width="2.1" height="72.8"/>
	<rect x="406.5" y="579.3" width="72.8" height="2.1"/>
	<rect x="458" y="505.1" transform="matrix(0.7071 -0.7071 0.7071 0.7071 -248.43 483.1781)" width="2.1" height="72.8"/>
	<rect x="547.9" y="521.8" transform="matrix(0.4024 0.9155 -0.9155 0.4024 839.1472 -168.9256)" width="2.1" height="72.8"/>
	<rect x="548.8" y="563.9" transform="matrix(-0.3628 0.9319 -0.9319 -0.3628 1308.7657 305.7758)" width="2.1" height="72.8"/>
	<rect x="519.6" y="594.3" transform="matrix(-0.9155 0.4024 -0.4024 -0.9155 1251.2003 998.5969)" width="2.1" height="72.8"/>
	<rect x="477.6" y="595.2" transform="matrix(-0.9319 -0.3628 0.3628 -0.9319 695.5112 1393.819)" width="2.1" height="72.8"/>
	<rect x="447.2" y="566.1" transform="matrix(-0.4024 -0.9155 0.9155 -0.4024 77.0867 1255.2657)" width="2.1" height="72.8"/>
	<rect x="446.3" y="524" transform="matrix(0.3628 -0.9319 0.9319 0.3628 -237.1476 773.9731)" width="2.1" height="72.8"/>
	<rect x="475.4" y="493.6" transform="matrix(0.9155 -0.4024 0.4024 0.9155 -172.9909 236.5364)" width="2.1" height="72.8"/>
	<rect x="517.5" y="492.7" transform="matrix(0.9319 0.3628 -0.3628 0.9319 227.3139 -152.0945)" width="2.1" height="72.8"/>
	<path d="M497.7,470.6c-60.7,0-110,49.2-110,110c0,60.7,49.2,110,110,110c60.7,0,110-49.2,110-110
		C607.6,519.8,558.4,470.6,497.7,470.6z M497.7,670.5c-49.7,0-90-40.3-90-90c0-49.7,40.3-90,90-90c49.7,0,90,40.3,90,90
		C587.6,630.2,547.4,670.5,497.7,670.5z"/>
	<path fill="#999999" d="M497.7,484.1c-53.2,0-96.4,43.2-96.4,96.4c0,53.2,43.2,96.4,96.4,96.4c53.2,0,96.4-43.2,96.4-96.4
		C594.1,527.3,550.9,484.1,497.7,484.1z M497.7,670.5c-49.7,0-90-40.3-90-90c0-49.7,40.3-90,90-90c49.7,0,90,40.3,90,90
		C587.6,630.2,547.4,670.5,497.7,670.5z"/>
</g>
<g>
	<circle fill="#999999" cx="120.6" cy="580.5" r="24.3"/>
	<circle fill="#636363" cx="120.6" cy="580.5" r="17.1"/>
	<rect x="119.8" y="489" width="2.1" height="72.8"/>
	<rect x="158.7" y="505.1" transform="matrix(0.7071 0.7071 -0.7071 0.7071 429.6902 45.6445)" width="2.1" height="72.8"/>
	<rect x="139.4" y="579.3" width="72.8" height="2.1"/>
	<rect x="158.6" y="582.8" transform="matrix(-0.7071 0.7071 -0.7071 -0.7071 710.5356 944.2189)" width="2.1" height="72.8"/>
	<rect x="119.8" y="598.9" width="2.1" height="72.8"/>
	<rect x="80.9" y="582.8" transform="matrix(-0.7071 -0.7071 0.7071 -0.7071 -297.9633 1115.0446)" width="2.1" height="72.8"/>
	<rect x="29.4" y="579.3" width="72.8" height="2.1"/>
	<rect x="80.9" y="505.1" transform="matrix(0.7071 -0.7071 0.7071 0.7071 -358.8645 216.5654)" width="2.1" height="72.8"/>
	<rect x="170.8" y="521.8" transform="matrix(0.4024 0.9155 -0.9155 0.4024 613.8152 176.2513)" width="2.1" height="72.8"/>
	<rect x="171.7" y="563.9" transform="matrix(-0.3628 0.9319 -0.9319 -0.3628 794.9205 657.1317)" width="2.1" height="72.8"/>
	<rect x="142.6" y="594.3" transform="matrix(-0.9155 0.4024 -0.4024 -0.9155 528.9762 1150.3121)" width="2.1" height="72.8"/>
	<rect x="100.5" y="595.2" transform="matrix(-0.9319 -0.3628 0.3628 -0.9319 -32.8919 1257.021)" width="2.1" height="72.8"/>
	<rect x="70.1" y="566.1" transform="matrix(-0.4024 -0.9155 0.9155 -0.4024 -451.6758 910.0888)" width="2.1" height="72.8"/>
	<rect x="69.3" y="524" transform="matrix(0.3628 -0.9319 0.9319 0.3628 -477.3969 422.6172)" width="2.1" height="72.8"/>
	<rect x="98.4" y="493.6" transform="matrix(0.9155 -0.4024 0.4024 0.9155 -204.8613 84.8211)" width="2.1" height="72.8"/>
	<rect x="140.5" y="492.7" transform="matrix(0.9319 0.3628 -0.3628 0.9319 201.6225 -15.2965)" width="2.1" height="72.8"/>
	<path d="M120.6,470.6c-60.7,0-110,49.2-110,110c0,60.7,49.2,110,110,110c60.7,0,110-49.2,110-110
		C230.6,519.8,181.3,470.6,120.6,470.6z M120.6,670.5c-49.7,0-90-40.3-90-90c0-49.7,40.3-90,90-90c49.7,0,90,40.3,90,90
		C210.6,630.2,170.3,670.5,120.6,670.5z"/>
	<path fill="#999999" d="M120.6,484.1c-53.2,0-96.4,43.2-96.4,96.4c0,53.2,43.2,96.4,96.4,96.4c53.2,0,96.4-43.2,96.4-96.4
		C217,527.3,173.9,484.1,120.6,484.1z M120.6,670.5c-49.7,0-90-40.3-90-90c0-49.7,40.3-90,90-90c49.7,0,90,40.3,90,90
		C210.6,630.2,170.3,670.5,120.6,670.5z"/>
</g>
<rect x="116.8" y="579.7" fill="#FBB03B" width="174.7" height="10.7"/>
<rect x="91.4" y="512.2" transform="matrix(0.6676 -0.7445 0.7445 0.6676 -325.5314 305.9206)" fill="#FBB03B" width="176.9" height="10.7"/>
<rect x="258.7" y="509.1" transform="matrix(0.7218 -0.6921 0.6921 0.7218 -257.1212 392.0852)" fill="#FBB03B" width="200.9" height="13.6"/>
<rect x="350.8" y="481.6" transform="matrix(-0.4251 -0.9052 0.9052 -0.4251 207.0322 1108.3052)" fill="#FBB03B" width="209.4" height="13.6"/>
<rect x="404.8" y="381" transform="matrix(-0.4251 -0.9052 0.9052 -0.4251 229.7514 929.0883)" fill="#FBB03B" width="10.3" height="21.2"/>
<rect x="156.4" y="492.8" transform="matrix(-0.365 -0.931 0.931 -0.365 -122.7764 915.5246)" fill="#FBB03B" width="188.8" height="13.6"/>
<rect x="238.2" y="435.1" transform="matrix(0.9891 -0.1472 0.1472 0.9891 -61.2224 53.4553)" fill="#FBB03B" width="184.8" height="10.7"/>
<path fill="#754C24" d="M184,383c0.1,0.2,0.2,0.4,0.2,0.6h69.6c0,0,6.4-14.6-15-14.6c-11.9,0-24.1-4-32.6-7.5
	C192.6,355.8,178.8,369.2,184,383z"/>
<g>
	<path fill="#595959" d="M283.9,551c-18.9,0-34.3,15.3-34.3,34.3s15.3,34.3,34.3,34.3s34.3-15.3,34.3-34.3S302.8,551,283.9,551z
		 M283.9,615.3c-16.6,0-30-13.4-30-30s13.4-30,30-30s30,13.4,30,30S300.5,615.3,283.9,615.3z"/>
	<circle fill="#595959" cx="283.9" cy="585.3" r="10.7"/>
	<rect x="281.6" y="553" fill="#595959" width="4.3" height="26.2"/>
	
		<rect x="297.1" y="562.1" transform="matrix(0.3922 0.9199 -0.9199 0.3922 713.1539 75.7967)" fill="#595959" width="4.3" height="30.9"/>
	
		<rect x="267.6" y="562.1" transform="matrix(-0.3922 0.9199 -0.9199 -0.3922 906.8607 555.9617)" fill="#595959" width="4.3" height="30.9"/>
	
		<rect x="269.5" y="581.7" transform="matrix(-0.6729 -0.7397 0.7397 -0.6729 12.7207 1199.8693)" fill="#595959" width="4.3" height="30.9"/>
	
		<rect x="294.4" y="581.7" transform="matrix(0.6729 -0.7397 0.7397 0.6729 -344.7093 414.6666)" fill="#595959" width="4.3" height="30.9"/>
</g>
<path fill="#8C8C8C" d="M316.4,633.5L288,583.1c-1.2-2.1-3.8-2.8-5.8-1.6c-2.1,1.2-2.8,3.8-1.6,5.8l28.4,50.4
	c1.2,2.1,3.8,2.8,5.8,1.6S317.5,635.5,316.4,633.5z"/>
<path d="M343,645.3h-37.6c-0.8,0-1.4-0.6-1.4-1.4v-10.3c0-0.8,0.6-1.4,1.4-1.4H343c0.8,0,1.4,0.6,1.4,1.4v10.3
	C344.4,644.6,343.7,645.3,343,645.3z"/>
<path d="M411.9,371.6c0,0,50.8-23.4,60,4.2c7.6,22.8-29.6,22.8-32.9,27s7.6,13.5,15.2,12.7c17.7-2,46.4-19.4,32.1-52.4
	c-11-25.3-56.8-23.8-83.3-5.2C402.9,358,406.8,370.8,411.9,371.6z"/>
<path fill="#E0A984" d="M328.3,619.5c0,0,38-102.6,39.3-122.9c1.3-20.3-63.3-107.7-63.3-107.7l-49.4,32.9c0,0,60.5,49.3,70.9,78.5
	c-6.3,12.7-27.9,111.5-27.9,111.5S304.2,639.8,328.3,619.5z"/>
<path fill="#2E61CB" d="M273.8,438.4l50.7-40.5c0,0-23.2-30.4-35.9-43.1l9.3-11l-68.4-54.9c0,0-60.8,49.4-22.8,91.2
	S273.8,438.4,273.8,438.4z"/>
<path fill="#2E61CB" d="M298.9,633c0,0,14.9,4.6,32.3,5.9c17.4,1.2,37.3,4.1,41.5-15.8c0,0-28.4,4.3-41.1-9.9c0,0-15.6,14.2-34-2.8
	C297.4,610.3,279,633,298.9,633z"/>
<path fill="#FFFFFF" d="M330.8,614.9l19.8-55.7c0,0-27,7.2-38.4-12.7l-14.4,65.5C297.9,611.9,313.1,629.7,330.8,614.9z"/>
<path fill="#FFFFFF" d="M305.5,359c0,0-7.6-18.2,117.4-75.2c16.9-35.5-31.3-73.5-66.7-66.7c-35.5,6.8-129.2,43.9-119.1,87
	C237.1,304.1,249.7,361.5,305.5,359z"/>
<path fill="#F4E300" d="M286.9,357.3l9.3-26.2l86.1-37.2l11.8-29.6c0,0-83.6,30.4-101.4,39.7c-17.7,9.3-28.3,43.1-28.3,43.1
	S276.8,356.9,286.9,357.3z"/>
<path fill="#E0A984" d="M414.4,307.9L384,344.5c-1.6,2.4-0.2,5.6,2.7,6.1l77.6,12.5c0,0,10.1,11.8-4.2,23.6l-99.5-16.3
	c-10.1-1.5-27.2-12-10.8-34.8l32.5-41.8C382.3,293.9,404.3,297.7,414.4,307.9z"/>
<path fill="#CEB600" d="M369.7,299.8c0,0,15.2,12.7,43.9,15.2c0,0,27.9-37.2,11.8-59.1C409.4,234,377.3,265.2,369.7,299.8z"/>
<path fill="#2E61CB" d="M460,386.8c0,0,28.2,11.6,24.1,12.7c-1.7,0.4-5.5,4.6-5.5,4.6s12.7,0.4,13.5-10.6c0.8-11,2.5-24.9-6.3-29.6
	c-8.9-4.6-21.1,0-21.5-0.8S448.6,369.9,460,386.8z"/>
<path fill="#2E3192" d="M460,386.8l7.2,3.4c0,0-13.1-14.8,2.5-27.4l-5.5,0.4C464.3,363.2,448.2,366.1,460,386.8z"/>
<path fill="#2E61CB" d="M306.3,359.8c0,0-40.1-62.1-76.9-70.9l-5.1,48.1l67.1,46L306.3,359.8z"/>
<polygon fill="#603813" points="443.6,201 446.1,228 459.1,230.3 455.9,201 "/>
<polygon fill="#E0A984" points="509,212.8 490.4,255.3 480.6,249.6 "/>
<path fill="#2B2C30" d="M442.3,265.2l3.4-40.5c0,0,32.1,0,46.5-37.2l-13.5-5.1c0,0-5.1,33.8-38,34.6l-11-2.5l-8.4,5.1l14.4,7.6
	l-2.5,37.2L442.3,265.2z"/>
<g>
	<path fill="#E2C300" d="M520.6,205.4c1.4,0.9,8-4.8,2.2-18.5c-5.8-13.7-21.4-45.7-60.7-44.8c-39.3,0.9-53.3,26.2-49.4,29.9
		S520.6,205.4,520.6,205.4z"/>
	<path fill="#373938" d="M523.4,204c0,0-0.3,12.3-16.5,8.7s-82.6-10.9-90.2-15.6c-7.6-4.7-8.2-14.6-2.1-17.5c6.1-2.9-2-7.6-2-7.6
		L523.4,204z"/>
	<path fill="#201A0F" d="M475.3,179.9l47.1,18.9c0,0-11.5-10.3-14.8-13.1C504.2,182.8,475.3,179.9,475.3,179.9z"/>
	<path fill="#201A0F" d="M455.5,149.3c0,0,12.5,16.4,46.3,26.5C501.8,175.8,473.5,153.3,455.5,149.3z"/>
	<path fill="#201A0F" d="M471.1,146.7c0,0,31.5,14.8,47.4,39.3C518.5,186,502.8,145.9,471.1,146.7z"/>
	<polygon fill="#201A0F" points="441.7,150.8 447.6,164.1 436.6,154.7 	"/>
	<path fill="#201A0F" d="M422,162l-0.4,6.6c0,0,12.3-0.1,21.9,5.4C443.4,174.1,427.1,154.3,422,162z"/>
</g>
</svg>
