<?xml version="1.0" encoding="utf-8"?>
<!-- Generator: Adobe Illustrator 18.1.1, SVG Export Plug-In . SVG Version: 6.00 Build 0)  -->
<svg version="1.1" id="Layer_1" xmlns="http://www.w3.org/2000/svg" xmlns:xlink="http://www.w3.org/1999/xlink" x="0px" y="0px"
	 viewBox="0 232 612 408" enable-background="new 0 232 612 408" xml:space="preserve">
<g>
	<rect x="77.4" y="517.7" fill="#4D4D4D" width="17.5" height="115.8"/>
	<rect x="513.5" y="517.7" fill="#4D4D4D" width="17.5" height="115.8"/>
	<rect x="586.2" y="247.7" fill="#4D4D4D" width="18" height="278.1"/>
	<g>
		<g>
			<g>
				<polygon fill="#C1272D" points="16,511 84.6,511 16,416 				"/>
				<polygon fill="#C3202B" points="579,405 545.5,511 579,511 				"/>
				<polygon fill="#C3202B" points="69.6,254 205.7,511 266.2,511 208.2,254 				"/>
				<polygon fill="#C3202B" points="380.3,254 337.1,511 450.7,511 523.7,254 				"/>
				<polygon fill="#ED1C24" points="579,254 523.7,254 450.7,511 545.5,511 579,405 				"/>
				<polygon fill="#ED1C24" points="208.2,254 266.2,511 337.1,511 380.3,254 				"/>
				<polygon fill="#ED1C24" points="16,254 16,416 84.6,511 205.7,511 69.6,254 				"/>
			</g>
			<g>
				<path d="M463.1,375c-1.7,3.9-3.1,7.9-5.1,11.7c-9.6,18-24.5,28.8-44.7,32.1c-6.4,1-12.9,1.8-19.4,1.3c-2.7-0.2-5.6-0.7-8.1-1.7
					c-5.5-2.1-6.2-8.4-1.6-12c0.9-0.7,1.8-1.3,3.2-2.3c-2.5-0.4-4.5-0.8-6.5-0.9c-8.5-0.5-17-1.3-25.6-1.3
					c-22.2,0.2-44.1,3.5-65.6,8.9c-26.5,6.6-51.7,16.6-76.1,28.7c-13.9,6.9-27.6,14.2-42.2,19.8c-7.8,3-15.6,6-23.9,7.6
					c-0.8,0.2-1.6,0.4-2.4,0.6c-4.2,0-8.4,0-12.7,0c-0.5-0.1-1.1-0.3-1.6-0.4c-6.4-1.1-12.1-3.1-14.1-10.2c0-1.5,0-3,0-4.4
					c0.1-0.1,0.2-0.2,0.2-0.3c1.5-7.4,5.6-13.4,10.5-18.8c3.2-3.5,6.9-6.4,11.6-7.4c1.3-0.3,1.8-0.9,2.1-2c1.3-4.2,2.8-8.4,4.2-12.6
					c5-15,9.9-30,15-45c0.3-1,0.3-1.7-0.6-2.5c-3.2-2.8-5.6-6.2-7.4-10.1c-1.9-4.2-2.8-8.5-2.1-13.1c0.5-3,2.2-5,5-5.9
					c2.9-0.9,5.5-0.2,7.7,2c1,1,2.1,2,3.3,3c4,3.3,8.6,4.8,13.7,3.4c3.4-1,6.6-2.7,9.7-4.4c7.2-4,14.9-6.3,23.1-6.2
					c4.2,0,8.2,0.7,11.5,3.5c0.2,0.2,0.8,0.2,1,0.1c4.8-2.5,9.7-4.8,13.4-9c2.3-2.6,5.3-3.5,8.3-2.4c2.9,1,4.7,3.5,4.8,7
					c0.2,5.6-1.3,10.7-4.1,15.5c0.5,0.6,1,1.3,1.4,1.8c2.8-1.8,5.4-3.6,8.2-5.1c5.2-2.8,10.6-4.5,16.6-3.1c0.5,0.1,1.2-0.1,1.8-0.4
					c3.3-1.6,6.5-3.2,9.8-4.9c3.1-1.6,6.2-3.1,9.7-1c2.3-5,4.4-9.9,6.7-14.6c0.7-1.4,2-2.9,3.3-3.7c7.7-4.5,15.5-8.9,23.3-13.3
					c2.1-1.2,4.4-1.3,6.6-0.4c3.8,1.6,5.5,5.8,3.8,9.8c-2.5,6.1-5.2,12.1-7.8,18.2c-0.5,1.1-0.9,2.2-1.2,2.9c2.8,1.8,5.3,3.4,8,5.1
					c1.7-3.4,3.5-7.2,5.5-10.8c2.4-4.3,4.7-8.8,7.5-12.8c5.1-7.2,11.7-12.4,20.5-14.5c1.4-0.3,2.7-0.6,4.1-0.9c2.5,0,5,0,7.5,0
					c0.6,0.1,1.2,0.2,1.8,0.4c2.5,0.7,5.2,1,7.5,2.1c4.9,2.3,7.3,7.1,5.7,12.3c-1.6,5-3.9,9.7-6,14.5c-0.3,0.7-0.6,1.3-1,2.2
					c1-0.1,1.6,0,2.2-0.2c2.5-0.5,4.9-1.2,7.4-1.7c7.3-1.5,14.4-2,19.9,4.8c1-1.1,2-2.2,3-3.2c4.7-4.5,9.9-7.7,16.7-7.2
					c5,0.4,8.8,2.7,10.8,7.4c2.5,5.8,0.8,12.3-4.1,16.3c-0.3,0.2-0.5,0.5-0.7,0.7c4.8,7,5,14.3,1.5,22c0.9-0.5,1.7-1.2,2.4-1.8
					c3.2-2.5,6.5-2.5,9.6,0.1c1.9,1.5,2.8,3.6,3.5,5.9C463.1,374.1,463.1,374.5,463.1,375z M332.1,308.8c-0.8,0.3-1.1,0.4-1.5,0.6
					c-7.1,4-14.3,8.1-21.4,12.2c-0.7,0.4-1.2,1.2-1.5,1.9c-5.5,12-10.9,23.9-16.3,35.9c-2.1,4.7-4.3,9.3-6,14.1
					c-0.7,1.8-1.6,2.7-3.3,3.1c-0.7,0.1-1.4,0.3-2.2,0.4c-1,0.1-1.6-0.3-1.4-1.4c0.2-1.2,0.4-2.3,0.9-3.5
					c3.5-9.4,7.1-18.7,10.6-28.1c0.4-1.1,0.8-2.3,1.4-3.8c-0.8,0.3-1.3,0.5-1.7,0.7c-3.1,1.5-6.1,3-9.2,4.5c-1.9,0.9-4,1.5-4.5,4
					c-2.7-2.5-5.7-2.8-8.8-2.1c-6,1.3-11,4.6-15.3,8.9c-7.5,7.3-11.4,16.7-14.2,26.5c-0.7,2.3-2.1,3.3-4,4.1
					c-1.4,0.6-1.9-0.1-1.7-1.3c0.2-1.7,0.5-3.4,1-5c3-9,6.1-17.9,9.1-26.8c0.2-0.5,0.3-1,0.5-1.6c-0.4,0.1-0.6,0.1-0.7,0.1
					c-5.9,2.1-11.9,4.2-17.8,6.4c-0.6,0.2-1.1,1-1.3,1.6c-3.4,10.4-6.9,20.7-10.1,31.1c-0.6,1.9-0.7,4.1-0.5,6.1
					c0.6,4.6,4.1,6.9,8.5,5.5c2.9-1,5.6-2.4,8.3-4c3.1-1.8,6.1-4,9.1-6c3.6,3.1,7.7,2.7,12,1.8c4.2-0.9,8-2.7,11.2-5.7
					c2.6,2.6,5.5,2.8,8.4,1.5c3.2-1.5,6.3-3.2,9.4-4.9c2-1.1,3.9-2.4,5.9-3.7c1.7,2.3,4,3.2,6.6,3.4c5.1,0.5,10.1-0.2,14.9-2
					c1-0.4,2.2-0.5,3.3-0.6c2.9-0.2,5.9-0.1,8.8-0.7c5-0.9,9.4-3.2,13.3-6.6c1.9,3.1,4.7,4.6,8,5c2.4,0.3,4.9,0.2,7.3,0
					c4.5-0.5,8.7-2,12.7-4.1c1.9,1.8,4.3,2.2,6.7,2.2c4.7,0,9.4-0.2,14.2-0.4c8-0.3,14.2-3.7,18.5-10.5c2.5-3.9,5.2-7.6,7.6-11.6
					c1.1-1.8,2.3-2.9,4.4-3.1c4.1-0.4,8.1-1.1,12.2-1.7c0.7,2.4,1.3,4.6,2,6.7c0.5,1.4,0,1.9-1.3,2c-2.4,0.1-4.9,0.1-7.3,0.3
					c-4.2,0.3-8.4,0.8-12,3.4c-2.2,1.6-3,3.9-2.6,6.5c0.7,4.6,4.1,8.6,8.7,9.3c2.9,0.4,5.9,0.3,8.8-0.1c6.5-0.8,12.5-3,17.3-7.8
					c6.5-6.6,7.1-14.4,1.7-21.9c-1-1.4-1.9-2.8-2.9-4.2c1.2-0.9,2.4-1.7,3.4-2.5c1.1-0.9,2.3-1.7,3.3-2.7c1.9-1.7,2.5-4.8,1.5-7.3
					c-0.9-2.1-2.9-3.4-5.7-3.2c-1.6,0.1-3.2,0.5-4.6,1.2c-5.3,2.7-8.9,7-11.4,12.2c-0.3,0.6-0.7,1.6-1.2,1.7
					c-2.9,0.8-5.8,1.6-8.9,0.7c0.6-1.5,1.2-2.8,1.6-4.3c1.1-3.9-0.2-6-4.2-6.7c-3.5-0.6-6.8,0.3-10.1,1.1c-2.5,0.6-5.1,1.3-7.7,1.3
					c-6.8,0.1-12.4,2.6-17,7.6c-6,6.5-10.8,13.7-14.4,21.7c-0.3,0.6-0.6,1.3-1.2,1.6c-2.5,1.3-5.1,1.8-7.9,1.6
					c-1.3-0.1-1.9-1-1.6-2.3c0.2-0.8,0.4-1.5,0.8-2.2c2-3.9,4-7.8,6.2-11.6c0.4-0.7,1.3-1.4,2.1-1.7c6-2.1,11.4-5.1,15.4-10.1
					c7-8.7,12.1-18.5,15.9-28.9c1.2-3.3,0.3-5.2-3.2-6c-8.1-2-15.9-1.4-23,3.6c-5.4,3.8-9.2,8.9-12.2,14.7
					c-5.5,10.8-10.9,21.7-16.4,32.6c-1.6,3.2-3.1,6.5-4.4,9.8c-0.5,1.2-1.1,2-2.3,2.1c-1.2,0.1-2.8,1.4-3.5-0.1
					c-0.4-0.8,0.3-2.4,0.8-3.6c1.6-3.6,3.5-7,5-10.6c1.3-3.1,2-6.3,1.6-9.7c-0.4-3.7-3.1-5.9-6.7-5.6c-2.6,0.2-5.3,0.5-8,0.8
					C322.8,330.7,327.4,320,332.1,308.8z M454.9,373.6c-0.2-0.1-0.3-0.1-0.5-0.2c-6.3,4.8-13.4,7.8-20.9,10.3
					c-10.6,3.5-21.1,4.4-31.5-1c-0.1,0-0.2,0.1-0.6,0.2c0.7,1.4,1.4,2.7,2.1,4c1.1,1.9,2.3,3.7,3.3,5.6c0.5,0.9,0.6,2.1,1,3.5
					c-1.1-0.3-1.7-0.5-2.2-0.7c-4.6-1.4-9-3.2-13.7-4.2c-10.7-2.2-21.7-2.7-32.6-3c-9.4-0.3-18.8-0.4-28.2-0.2
					c-7.8,0.2-15.6,0.8-23.3,1.9c-15.9,2.2-31.7,5.8-47.3,9.8c-21.3,5.4-42,12.2-61.3,23c-14.8,8.2-30.3,15.3-46.3,20.9
					c-4.5,1.6-9,3.2-13.9,3.1c-3.9-0.1-6-2.2-5.9-6.1c0-1.8,0.3-3.5,0.5-5.5c-4.3,3.4-8,7-10.2,11.8c-2.8,6.2-0.2,11.6,6.3,13.5
					c4.4,1.3,8.8,1.1,13.2,0.5c8.4-1.2,16.5-3.7,24.1-7.2c14.7-6.8,29.4-13.7,43.9-20.9c31.6-15.7,64.5-27.6,99.3-33.7
					c18.8-3.3,37.7-5,56.8-4.1c11.1,0.5,22,1.9,32.6,5.2c2.2,0.7,4.4,1.6,7,2.6c-5.9,4.2-12.4,5.7-18.5,8.2c2.6,0.5,5.2,0.9,7.8,1
					c12.6,0.5,24.3-2.8,35.4-8.6c8.5-4.5,15-10.9,19.2-19.5C452.3,380.5,453.5,377,454.9,373.6z M144.5,436.6c0.6,0,0.8,0,1-0.1
					c10.7-3.5,21.5-6.6,32-10.7c14.1-5.5,23.7-15.9,28.7-30.2c3.9-11.1,7.6-22.2,11.2-33.3c1.6-5,3-10,4-15.1c0.8-4-1.4-6.7-5.4-7.5
					c-3.8-0.7-7.6-0.3-11.4,0.5c-5.1,1.1-9.7,3.4-14.2,6.1c-4.8,2.9-10,4.5-15.7,4.2c-6.4-0.4-11.4-3.6-15.9-7.8
					c-0.4-0.4-0.9-0.8-1.7-1.6c0,1.5-0.1,2.4,0,3.4c0.7,6.6,4.4,11.5,9.4,15.5c2.2,1.7,2.2,3.2,1.6,5.2
					c-6.4,19.3-12.8,38.6-19.2,57.9C147.5,427.5,146.1,431.9,144.5,436.6z M225.1,354.8c5.9-2.8,11.3-5.4,15.2-10.2
					c3-3.7,3.9-8.3,4.4-13.3c-1.1,1.1-1.9,2.1-2.8,2.7c-4,2.6-8,5.2-12,7.7c-0.6,0.4-1.4,0.8-1.6,1.4
					C227.1,346.8,226.2,350.5,225.1,354.8z"/>
				<path fill="#FFFFFF" d="M332.1,308.8c-4.8,11.2-9.4,21.9-14,32.7c2.7-0.3,5.4-0.6,8-0.8c3.7-0.3,6.3,1.9,6.7,5.6
					c0.4,3.4-0.3,6.6-1.6,9.7c-1.5,3.6-3.4,7.1-5,10.6c-0.5,1.1-1.2,2.7-0.8,3.6c0.7,1.5,2.3,0.2,3.5,0.1c1.2-0.1,1.8-0.9,2.3-2.1
					c1.3-3.3,2.9-6.6,4.4-9.8c5.4-10.9,10.8-21.8,16.4-32.6c3-5.8,6.8-10.9,12.2-14.7c7.1-5,14.9-5.6,23-3.6c3.4,0.9,4.4,2.7,3.2,6
					c-3.8,10.4-8.9,20.2-15.9,28.9c-4,4.9-9.4,8-15.4,10.1c-0.8,0.3-1.7,1-2.1,1.7c-2.1,3.8-4.2,7.7-6.2,11.6
					c-0.4,0.7-0.6,1.5-0.8,2.2c-0.3,1.3,0.2,2.1,1.6,2.3c2.8,0.3,5.5-0.2,7.9-1.6c0.5-0.3,0.9-1,1.2-1.6c3.6-8,8.4-15.2,14.4-21.7
					c4.7-5.1,10.2-7.6,17-7.6c2.6,0,5.1-0.7,7.7-1.3c3.3-0.8,6.6-1.7,10.1-1.1c4,0.6,5.4,2.8,4.2,6.7c-0.4,1.4-1,2.7-1.6,4.3
					c3.1,0.8,6,0.1,8.9-0.7c0.5-0.2,0.9-1.1,1.2-1.7c2.5-5.3,6.2-9.6,11.4-12.2c1.4-0.7,3-1.1,4.6-1.2c2.8-0.2,4.8,1,5.7,3.2
					c1,2.4,0.4,5.6-1.5,7.3c-1,1-2.2,1.8-3.3,2.7c-1.1,0.8-2.2,1.6-3.4,2.5c1,1.5,1.9,2.9,2.9,4.2c5.4,7.5,4.8,15.3-1.7,21.9
					c-4.7,4.8-10.8,6.9-17.3,7.8c-2.9,0.4-5.9,0.5-8.8,0.1c-4.6-0.7-8.1-4.7-8.7-9.3c-0.4-2.6,0.4-4.8,2.6-6.5
					c3.6-2.6,7.7-3.2,12-3.4c2.4-0.2,4.9-0.2,7.3-0.3c1.3-0.1,1.8-0.6,1.3-2c-0.8-2.1-1.3-4.3-2-6.7c-4.1,0.6-8.2,1.2-12.2,1.7
					c-2.2,0.2-3.3,1.3-4.4,3.1c-2.4,3.9-5.1,7.7-7.6,11.6c-4.3,6.8-10.5,10.2-18.5,10.5c-4.7,0.2-9.4,0.4-14.2,0.4
					c-2.4,0-4.8-0.4-6.7-2.2c-4,2.1-8.2,3.7-12.7,4.1c-2.4,0.3-4.9,0.3-7.3,0c-3.3-0.4-6.2-1.9-8-5c-3.9,3.4-8.3,5.7-13.3,6.6
					c-2.9,0.5-5.9,0.4-8.8,0.7c-1.1,0.1-2.3,0.2-3.3,0.6c-4.8,1.8-9.8,2.5-14.9,2c-2.5-0.3-4.9-1.1-6.6-3.4c-2,1.2-3.9,2.6-5.9,3.7
					c-3.1,1.7-6.2,3.4-9.4,4.9c-3,1.4-5.9,1.2-8.4-1.5c-3.2,3-7,4.8-11.2,5.7c-4.2,0.9-8.4,1.3-12-1.8c-3,2-6,4.1-9.1,6
					c-2.6,1.5-5.4,3-8.3,4c-4.4,1.5-7.9-0.8-8.5-5.5c-0.2-2-0.1-4.2,0.5-6.1c3.3-10.4,6.7-20.8,10.1-31.1c0.2-0.6,0.7-1.4,1.3-1.6
					c5.9-2.2,11.9-4.3,17.8-6.4c0.2-0.1,0.3-0.1,0.7-0.1c-0.2,0.6-0.3,1.1-0.5,1.6c-3,8.9-6.1,17.9-9.1,26.8c-0.5,1.6-0.8,3.3-1,5
					c-0.2,1.2,0.3,1.9,1.7,1.3c1.9-0.8,3.3-1.8,4-4.1c2.8-9.8,6.7-19.1,14.2-26.5c4.3-4.3,9.3-7.6,15.3-8.9c3.1-0.7,6.1-0.4,8.8,2.1
					c0.6-2.5,2.7-3.1,4.5-4c3.1-1.5,6.1-3,9.2-4.5c0.4-0.2,0.9-0.4,1.7-0.7c-0.5,1.5-0.9,2.6-1.4,3.8c-3.5,9.4-7.1,18.7-10.6,28.1
					c-0.4,1.1-0.7,2.3-0.9,3.5c-0.2,1,0.4,1.5,1.4,1.4c0.7-0.1,1.5-0.3,2.2-0.4c1.7-0.3,2.6-1.2,3.3-3.1c1.8-4.8,3.9-9.4,6-14.1
					c5.4-12,10.8-23.9,16.3-35.9c0.3-0.7,0.9-1.5,1.5-1.9c7.1-4.1,14.2-8.1,21.4-12.2C331,309.2,331.4,309.1,332.1,308.8z
					 M253.2,384c0.3,0.9,0.5,1.8,0.8,1.9c0.5,0.1,1.4-0.1,1.8-0.6c1-1.2,2.1-2.5,2.7-3.9c2.5-5.6,4.9-11.3,7.1-17
					c0.9-2.2,1.5-4.5,2-6.8c0.2-0.7-0.3-1.6-0.4-2.4c-0.8,0.3-1.9,0.4-2.4,0.9c-1.1,1.2-2.1,2.6-2.7,4.1c-2,4.5-3.9,9-5.7,13.5
					C255.2,377.2,254.3,380.7,253.2,384z M302.9,377.5c2.1,0,3.1-0.7,3.8-2.1c2.5-5.2,5.1-10.4,7.6-15.6c1.5-3.2,3.1-6.3,4.5-9.6
					c0.2-0.6,0.1-1.8-0.2-2c-0.6-0.3-1.7-0.3-2.2,0.1c-1.2,1.1-2.5,2.4-3.2,3.9c-3.3,6.6-6.4,13.3-9.6,20c-0.6,1.2-1.1,2.5-1.4,3.8
					C302.2,376.4,302.8,377.1,302.9,377.5z M391.2,346.3c-3.8,6.1-7.7,12.2-11.4,18.3c-1.1,1.9-2,4-2.9,6c-0.2,0.5-0.2,1.4,0.1,1.7
					c0.3,0.3,1.3,0.3,1.7,0.1c1.1-0.7,2.2-1.5,2.9-2.5c3.6-5.9,7.1-11.9,10.5-18c0.4-0.7,0.2-1.7,0-2.6
					C392,348.3,391.6,347.4,391.2,346.3z M364.1,339.6c0.2,0.1,0.3,0.2,0.5,0.3c1.6-1.5,3.7-2.8,4.8-4.7c3.5-5.8,6.6-11.8,9.7-17.8
					c0.3-0.6,0.1-1.5,0.1-2.2c-0.8,0.2-1.7,0.2-2.5,0.5c-0.4,0.2-0.7,0.7-0.9,1.1c-1,1.8-1.9,3.6-2.8,5.4
					C370,328.1,367.1,333.9,364.1,339.6z M422.6,366.2c-0.1-0.2-0.2-0.5-0.2-0.7c-3.4,0.3-6.9,0.6-10.3,1.1
					c-0.7,0.1-1.8,1.1-1.8,1.6c0,0.8,0.7,1.8,1.3,2.3c0.6,0.5,1.6,0.7,2.4,0.7C418,371.3,420.2,368.5,422.6,366.2z M406.1,343.2
					c-0.4-1.3-0.5-2.3-1.8-2.4c-1.2,0-1.5,0.7-1.3,1.7c0.3,0.9,0.8,1.8,1.3,2.7C404.8,344.5,405.5,343.8,406.1,343.2z M437.7,337.2
					c-3.7-0.5-4.6,0.3-3.8,2.9C435,339.2,436.2,338.4,437.7,337.2z"/>
				<path fill="#FFFFFF" d="M454.9,373.6c-1.4,3.4-2.6,6.9-4.2,10.1c-4.3,8.6-10.7,15-19.2,19.5c-11.1,5.9-22.8,9.2-35.4,8.6
					c-2.6-0.1-5.2-0.5-7.8-1c6.1-2.5,12.6-4,18.5-8.2c-2.6-1-4.8-1.9-7-2.6c-10.6-3.3-21.5-4.7-32.6-5.2c-19.1-0.9-38,0.8-56.8,4.1
					c-34.8,6.1-67.7,18-99.3,33.7c-14.5,7.2-29.2,14.2-43.9,20.9c-7.7,3.5-15.7,6.1-24.1,7.2c-4.4,0.6-8.9,0.8-13.2-0.5
					c-6.5-1.9-9.1-7.3-6.3-13.5c2.2-4.8,5.9-8.4,10.2-11.8c-0.2,2-0.5,3.8-0.5,5.5c-0.1,3.9,2,6,5.9,6.1c4.9,0.1,9.4-1.5,13.9-3.1
					c16-5.6,31.5-12.7,46.3-20.9c19.3-10.8,40.1-17.5,61.3-23c15.6-4,31.3-7.5,47.3-9.8c7.7-1.1,15.5-1.7,23.3-1.9
					c9.4-0.3,18.8-0.2,28.2,0.2c10.9,0.4,21.9,0.8,32.6,3c4.7,1,9.1,2.7,13.7,4.2c0.6,0.2,1.2,0.4,2.2,0.7c-0.4-1.4-0.5-2.5-1-3.5
					c-1-1.9-2.2-3.7-3.3-5.6c-0.8-1.3-1.4-2.7-2.1-4c0.4-0.2,0.5-0.3,0.6-0.2c10.3,5.4,20.9,4.5,31.5,1c7.4-2.4,14.6-5.5,20.9-10.3
					C454.6,373.5,454.7,373.5,454.9,373.6z"/>
				<path fill="#FFFFFF" d="M144.5,436.6c1.5-4.6,3-9.1,4.4-13.5c6.4-19.3,12.8-38.6,19.2-57.9c0.6-2,0.6-3.4-1.6-5.2
					c-5-3.9-8.6-8.9-9.4-15.5c-0.1-0.9,0-1.9,0-3.4c0.8,0.8,1.3,1.2,1.7,1.6c4.5,4.2,9.5,7.4,15.9,7.8c5.7,0.3,10.9-1.3,15.7-4.2
					c4.5-2.7,9.1-5,14.2-6.1c3.8-0.8,7.5-1.2,11.4-0.5c4,0.7,6.2,3.5,5.4,7.5c-1.1,5.1-2.4,10.2-4,15.1
					c-3.6,11.1-7.3,22.2-11.2,33.3c-5,14.3-14.6,24.7-28.7,30.2c-10.5,4.1-21.3,7.2-32,10.7C145.4,436.6,145.1,436.5,144.5,436.6z
					 M168.7,419.5c0.2,0.2,0.3,0.4,0.5,0.6c2-1.2,4.4-2.1,6.1-3.6c5.2-4.7,9.8-10.1,12.1-16.9c4.8-13.9,9.2-27.8,13.7-41.8
					c0.5-1.4,0.9-3,1-4.5c0.2-2.6-1.6-4-4.2-3.5c-2.8,0.6-5.1,2.2-6.5,4.6c-1.4,2.5-2.8,5.1-3.7,7.8c-5.7,16.9-11.3,33.8-16.9,50.8
					C170.1,415.2,169.4,417.4,168.7,419.5z"/>
				<path fill="#FFFFFF" d="M225.1,354.8c1.1-4.3,2-8,3.1-11.7c0.2-0.6,1-1,1.6-1.4c4-2.6,8-5.1,12-7.7c1-0.6,1.7-1.6,2.8-2.7
					c-0.4,5.1-1.3,9.6-4.4,13.3C236.4,349.4,231,352,225.1,354.8z"/>
				<path d="M253.2,384c1.1-3.3,2-6.8,3.3-10.2c1.7-4.6,3.7-9.1,5.7-13.5c0.7-1.5,1.6-2.9,2.7-4.1c0.5-0.6,1.6-0.6,2.4-0.9
					c0.2,0.8,0.6,1.7,0.4,2.4c-0.5,2.3-1.2,4.6-2,6.8c-2.3,5.7-4.7,11.4-7.1,17c-0.6,1.4-1.7,2.7-2.7,3.9c-0.4,0.4-1.2,0.7-1.8,0.6
					C253.7,385.9,253.5,384.9,253.2,384z"/>
				<path d="M302.9,377.5c-0.2-0.4-0.7-1-0.6-1.5c0.3-1.3,0.8-2.6,1.4-3.8c3.1-6.7,6.3-13.4,9.6-20c0.7-1.5,2-2.7,3.2-3.9
					c0.4-0.4,1.6-0.4,2.2-0.1c0.3,0.2,0.4,1.4,0.2,2c-1.4,3.2-2.9,6.4-4.5,9.6c-2.5,5.2-5.1,10.4-7.6,15.6
					C306.1,376.8,305,377.4,302.9,377.5z"/>
				<path d="M391.2,346.3c0.4,1.1,0.7,2,0.9,2.9c0.1,0.9,0.3,1.9,0,2.6c-3.4,6-6.9,12-10.5,18c-0.6,1-1.8,1.8-2.9,2.5
					c-0.4,0.3-1.4,0.2-1.7-0.1c-0.3-0.3-0.3-1.2-0.1-1.7c0.9-2,1.7-4.1,2.9-6C383.5,358.5,387.4,352.4,391.2,346.3z"/>
				<path d="M364.1,339.6c3-5.7,5.9-11.5,8.9-17.2c0.9-1.8,1.9-3.6,2.8-5.4c0.2-0.4,0.5-1,0.9-1.1c0.8-0.3,1.7-0.4,2.5-0.5
					c0,0.7,0.2,1.6-0.1,2.2c-3.2,6-6.3,12-9.7,17.8c-1.1,1.9-3.2,3.1-4.8,4.7C364.4,339.8,364.2,339.7,364.1,339.6z"/>
				<path d="M422.6,366.2c-2.4,2.3-4.6,5.2-8.6,5c-0.8,0-1.8-0.2-2.4-0.7c-0.7-0.5-1.4-1.5-1.3-2.3c0-0.6,1.1-1.5,1.8-1.6
					c3.4-0.5,6.9-0.8,10.3-1.1C422.5,365.7,422.5,365.9,422.6,366.2z"/>
				<path d="M406.1,343.2c-0.6,0.7-1.2,1.3-1.9,2c-0.4-0.9-1-1.7-1.3-2.7c-0.2-0.9,0.1-1.7,1.3-1.7
					C405.6,340.9,405.7,341.8,406.1,343.2z"/>
				<path d="M437.7,337.2c-1.5,1.1-2.7,2-3.8,2.9C433.1,337.5,434,336.7,437.7,337.2z"/>
				<path d="M168.7,419.5c0.7-2.1,1.4-4.3,2.1-6.4c5.6-16.9,11.2-33.9,16.9-50.8c0.9-2.7,2.3-5.3,3.7-7.8c1.4-2.4,3.7-4,6.5-4.6
					c2.5-0.6,4.4,0.9,4.2,3.5c-0.1,1.5-0.5,3-1,4.5c-4.5,13.9-8.9,27.9-13.7,41.8c-2.3,6.7-6.9,12.1-12.1,16.9
					c-1.7,1.5-4,2.4-6.1,3.6C169,419.9,168.8,419.7,168.7,419.5z"/>
			</g>
			<circle cx="332.9" cy="391.9" r="29.4"/>
			<path fill="#571B0B" d="M295.6,418.4c-0.2,0.1-0.3,0.2-0.5,0.3c0.2-0.1,0.2-0.4,0.4-0.4C295.6,418.3,295.6,418.3,295.6,418.4z"/>
			<path fill="#571B0B" d="M302.1,424.2c-0.2,0.3-0.4,0.3-0.6,0.3C301.6,424.4,301.7,424.3,302.1,424.2z"/>
			<path fill="#571B0B" d="M294.7,416.6c-0.1,0.3-0.3,0.4-0.6,0.3c0.2-0.1,0.3-0.3,0.5-0.4C294.6,416.6,294.7,416.6,294.7,416.6z"/>
			<path fill="#571B0B" d="M305,426.3c-0.1,0.1-0.3,0.1-0.5,0C304.7,426.2,304.8,426.2,305,426.3C305,426.2,305,426.3,305,426.3z"/>
			<path fill="#571B0B" d="M295.5,418.3c0-0.1,0.1-0.2,0.2-0.2c0,0,0.1,0.1,0.1,0.1c-0.1,0-0.1,0.1-0.2,0.1
				C295.6,418.3,295.6,418.3,295.5,418.3z"/>
			<path fill="#571B0B" d="M294.9,416.5c0,0.1-0.1,0.2-0.2,0.2c0,0-0.1-0.1-0.1-0.1c0-0.1,0.1-0.1,0.1-0.2
				C294.8,416.4,294.8,416.4,294.9,416.5z"/>
			<path fill="#FDFDFD" d="M343,367.6c0.2-0.3,0.4-0.1,0.6,0c7,3.1,11.9,8.2,14.5,15.5c0.1,0.4,0.3,0.8,0.2,1.3
				c-0.7-0.3-0.9-1.1-1.5-1.5c-0.2-0.2-0.5-0.5-0.8-0.2c-0.2,0.3-0.2,0.6,0.1,0.9c0.5,0.4,0.9,0.9,1.4,1.3c-0.3,0.2-0.5,0.3-0.8,0.5
				c-0.8-0.1-1.2-0.8-1.8-1.1c-0.3-0.2-0.7-0.8-1.1-0.3c-0.3,0.4,0.1,0.8,0.5,1c0.4,0.3,0.9,0.6,1.3,0.9c-0.3,0.3-0.7,0.6-1,0.9
				c-0.9-0.1-1.5-0.7-2.2-1c-0.3-0.1-0.7-0.4-0.9,0c-0.2,0.4,0.1,0.7,0.4,0.9c0.6,0.3,1.1,0.6,1.7,0.8c-0.3,0.3-0.6,0.7-0.9,1
				c-0.9,0-1.7-0.5-2.6-0.7c-0.3,0-0.6-0.2-0.7,0.2c-0.1,0.3,0.1,0.6,0.5,0.7c0.6,0.2,1.2,0.4,1.9,0.5c-0.2,0.5-0.7,0.7-0.9,1.2
				c-0.8,0.1-1.6-0.2-2.4-0.2c-0.3,0-0.8-0.1-0.8,0.4c0,0.4,0.4,0.6,0.9,0.6c0.5,0,1,0,1.6,0.1c-0.2,0.3-0.5,0.6-0.7,0.9
				c-0.9,0.2-1.7,0-2.6,0c-0.3,0-0.8-0.1-0.8,0.4c0,0.4,0.5,0.5,0.9,0.5c0.5,0,1-0.1,1.6,0c-0.3,0.4-0.6,0.7-0.8,1.1
				c-0.8,0.2-1.6-0.1-2.4,0c-0.3,0-0.8,0-0.8,0.4c0,0.4,0.4,0.6,0.9,0.6c0.5,0,1,0,1.5,0c-0.2,0.3-0.5,0.7-0.7,1
				c-0.8,0.1-1.6-0.1-2.4,0c-0.3,0-0.7-0.1-0.7,0.4c0,0.4,0.3,0.6,0.7,0.5c0.5,0,1,0,1.6-0.1c-0.3,0.4-0.6,0.9-0.8,1.3
				c-0.7,0-1.5-0.1-2.2,0c-0.3,0-0.7,0-0.7,0.4c0,0.4,0.4,0.6,0.8,0.6c0.5,0,1-0.2,1.6,0.1c-0.3,0.4-0.5,0.8-0.8,1.2
				c-0.7,0.1-1.5-0.2-2.2-0.2c-0.3,0-0.7-0.1-0.7,0.3c0,0.4,0.3,0.6,0.7,0.6c0.5,0,1,0,1.6,0.1c-0.2,0.3-0.3,0.7-0.5,1
				c-0.8,0.2-1.5-0.1-2.3-0.1c-0.3,0-0.7-0.1-0.7,0.3c0,0.4,0.3,0.6,0.7,0.6c0.5,0.1,1.1-0.1,1.6,0.2c-0.2,0.4-0.5,0.7-0.7,1.1
				c-0.8,0.2-1.5-0.2-2.3-0.2c-0.3,0-0.8-0.2-0.8,0.3c0,0.4,0.3,0.6,0.7,0.6c0.5,0.1,1.1,0.1,1.6,0.2c-0.2,0.3-0.4,0.7-0.6,1
				c-0.8,0.2-1.5-0.3-2.3-0.3c-0.3,0-0.7-0.2-0.8,0.2c-0.1,0.4,0.2,0.6,0.6,0.7c0.6,0.1,1.2,0.3,1.8,0.4c-0.3,0.4-0.5,0.8-0.8,1.1
				c-0.7-0.2-1.3-0.5-2-0.7c-0.3-0.1-0.7-0.3-0.8,0.1c-0.1,0.4,0.2,0.7,0.6,0.8c0.5,0.2,1,0.3,1.6,0.5c-0.2,0.3-0.5,0.7-0.7,1
				c-0.7-0.1-1.1-0.7-1.7-1c-0.3-0.2-0.7-0.7-1-0.2c-0.3,0.4,0.2,0.7,0.5,1c0.5,0.3,1,0.5,1.4,1c-0.3,0.3-0.6,0.5-0.8,0.8
				c-0.6-0.2-1-0.7-1.5-1c-0.3-0.2-0.8-0.8-1.1-0.3c-0.3,0.4,0.2,0.8,0.6,1c0.4,0.3,0.8,0.6,1.3,0.9c-0.2,0.2-0.5,0.4-0.7,0.6
				c-0.9-0.1-1.2-1-1.9-1.4c-0.2-0.1-0.5-0.5-0.8-0.2c-0.3,0.3-0.1,0.7,0.2,0.9c0.5,0.4,1,0.8,1.5,1.2c-0.3,0.2-0.7,0.4-1,0.6
				c-0.7-0.4-1-1.2-1.5-1.7c-0.2-0.2-0.5-0.6-0.8-0.3c-0.3,0.3-0.2,0.6,0.1,1c0.4,0.5,0.8,1,1.2,1.4c-0.2,0.1-0.4,0.2-0.6,0.2
				c-0.2-0.3-0.5-0.5-0.7-0.8c-0.3-0.4-0.6-0.9-0.9-1.3c-0.1-0.2-0.3-0.4-0.6-0.2c-0.2,0.2-0.2,0.4-0.2,0.7c0.1,0.2,0.2,0.3,0.3,0.5
				c0.3,0.5,0.7,0.9,0.9,1.5c-0.2,0-0.4-0.2-0.7-0.1c-0.5-0.6-0.8-1.3-1.1-1.9c-0.2-0.3-0.3-0.8-0.8-0.5c-0.4,0.2-0.4,0.7-0.1,1.1
				c0.6,1,0.9,2,1.2,3.1c-0.4,0.1-0.7-0.1-1-0.3c0.4-0.7,0-1.3-0.4-1.8c0,0,0-0.1-0.1-0.2c-0.2-0.3-0.4-0.6-0.6-0.8
				c-0.1-0.1-0.4-0.3-0.6-0.2c-0.2,0.1-0.2,0.4-0.1,0.6c0.4,0.6,0.3,1.4,0.7,2c-0.3-0.1-0.6-0.1-0.8-0.2c0.2-0.4,0.4-0.9-0.2-1.1
				c0,0,0-0.1,0-0.2c-0.5-0.6-0.7-1.3-1.1-2c-0.1-0.2-0.3-0.5-0.6-0.3c-0.2,0.1-0.4,0.4-0.2,0.7c0.2,0.3,0.3,0.7,0.6,1
				c0.3,0.3,0.5,0.6,0.5,1.1c-0.2,0.1-0.3,0-0.4-0.1c0,0,0,0,0-0.1c0,0,0-0.1,0-0.1c-0.6,0.1-0.8-0.3-1-0.7
				c-0.2-0.5-0.4-0.9-0.7-1.4c-0.1-0.2-0.3-0.5-0.6-0.4c-0.3,0.2-0.4,0.5-0.2,0.8c0.2,0.3,0.3,0.6,0.5,1c-2.7-1.5-4.9-3.5-6.9-5.8
				c-2.9-3.5-4.7-7.6-5.6-12.1c0.2-0.5,0.6-0.2,0.9-0.2c0.2,0,0.5,0,0.5-0.3c0-0.3-0.2-0.5-0.4-0.5c-0.3-0.1-0.7,0-1.1,0
				c0-0.3,0-0.6,0-0.9c0.5,0,0.9,0.1,1.4,0.1c0.2,0,0.6,0,0.6-0.4c0-0.3-0.3-0.5-0.6-0.5c-0.5,0-0.9,0-1.4,0c0-0.3,0-0.6,0-0.9
				c0.6-0.3,1.1,0,1.6,0.1c0.4,0.1,0.8,0.2,0.9-0.3c0.1-0.4-0.4-0.5-0.8-0.6c-0.6-0.1-1.3,0-1.8-0.4c0-0.2,0-0.4,0-0.5
				c0.7-0.2,1.3-0.1,2,0.1c0.2,0.1,0.4,0.1,0.6,0.1c0.2,0,0.6,0,0.6-0.3c0-0.3-0.2-0.5-0.4-0.5c-0.4-0.1-0.8-0.2-1.2-0.3
				c-0.4-0.1-0.9-0.1-1.1-0.6c0.4-0.4,0.9-0.3,1.4-0.2c0.4,0.1,0.7,0.1,1.1,0.1c0.2,0,0.5,0,0.5-0.2c0-0.3-0.2-0.5-0.5-0.6
				c-0.6-0.1-1.2-0.3-1.9-0.2c0-0.5,0.3-0.9,0.4-1.4c0.7,0.1,1.4,0.3,2.1,0.4c0.3,0,0.7,0.1,0.7-0.3c0.1-0.4-0.2-0.6-0.6-0.7
				c-0.6-0.1-1.2-0.3-1.8-0.5c0.2-0.4,0.4-0.9,0.7-1.3c0.6,0.1,1,0.4,1.5,0.6c0.4,0.1,0.9,0.7,1.2,0.1c0.3-0.5-0.4-0.7-0.8-0.9
				c-0.4-0.2-0.9-0.4-1.3-0.6c0.1-0.3,0.3-0.5,0.3-0.8c0.8-0.2,1.4,0.4,2,0.6c0.3,0.1,0.7,0.4,0.9,0c0.2-0.5-0.1-0.7-0.5-0.9
				c-0.5-0.2-0.9-0.4-1.3-0.6c0.3-0.3,0.6-0.6,0.9-1c0.6,0,1.1,0.5,1.6,0.8c0.3,0.1,0.8,0.5,1,0.1c0.3-0.4-0.2-0.7-0.6-0.9
				c-0.4-0.2-0.8-0.3-1.1-0.7c0.3-0.2,0.7-0.5,1-0.7c0.8,0,1.4,0.6,2.1,0.8c0.2,0.1,0.5,0.2,0.7-0.1c0.1-0.3,0-0.6-0.3-0.8
				c-0.4-0.2-0.9-0.4-1.3-0.6c0.2-0.2,0.5-0.4,0.7-0.6c0.3-0.1,0.6,0.1,0.8,0.2c0.4,0.2,0.8,0.5,1.3,0.7c0.2,0.1,0.6,0.3,0.8,0
				c0.2-0.3,0-0.6-0.4-0.8c-0.4-0.2-0.9-0.3-1.2-0.7c0.4-0.2,0.7-0.4,1.1-0.6c0.7,0.3,1.2,0.9,1.8,1.2c0.2,0.1,0.6,0.3,0.7,0
				c0.2-0.3,0.1-0.6-0.2-0.8c-0.4-0.3-0.8-0.5-1.2-0.8c0.4-0.2,0.8-0.4,1.3-0.6c0.4,0,0.6,0.3,0.9,0.4c0.4,0.2,0.6,0.6,1,0.8
				c0.2,0.1,0.5,0.3,0.7,0c0.2-0.3,0-0.6-0.3-0.9c-0.4-0.3-0.8-0.4-1.1-0.8c0.4-0.2,0.8-0.3,1.2-0.5c0.7,0.2,1.2,0.9,1.8,1.2
				c0.2,0.1,0.6,0.4,0.8,0c0.2-0.3,0-0.6-0.3-0.8c-0.4-0.2-0.7-0.5-1.1-0.8c0.4-0.1,0.7-0.3,1.1-0.4c0.7,0.3,1.1,0.9,1.8,1.3
				c0.3,0.2,0.6,0.5,0.8,0.1c0.2-0.3,0-0.7-0.3-0.9c-0.4-0.3-0.9-0.4-1.1-0.9c0.4-0.1,0.7-0.2,1.1-0.4c0.6,0.3,1.1,0.9,1.6,1.2
				c0.3,0.2,0.7,0.7,1,0.3c0.3-0.4-0.1-0.8-0.5-1c-0.4-0.2-0.7-0.5-1-0.8c0.3-0.1,0.7-0.3,1-0.4c0.9,0.1,1.4,1,2.1,1.3
				c0.3,0.1,0.6,0.4,0.8,0.1c0.2-0.3,0-0.7-0.3-0.9c-0.5-0.3-1-0.5-1.3-0.9c0.3-0.1,0.7-0.3,1-0.4c0.9,0.3,1.4,1.1,2.1,1.6
				c0.2,0.1,0.6,0.4,0.8,0.1c0.2-0.3,0-0.7-0.3-0.9c-0.5-0.4-1-0.8-1.5-1.1c0.4-0.2,0.7-0.3,1.1-0.5c0.9,0.2,1.4,1.1,2.1,1.6
				c0.2,0.2,0.6,0.5,0.8,0.1c0.2-0.3,0-0.7-0.3-0.9c-0.5-0.4-1-0.8-1.5-1.2c0.3-0.3,0.7-0.3,0.9-0.6c0.4,0,0.6,0.2,0.9,0.4
				c0.4,0.3,0.7,0.7,1.1,1c0.3,0.2,0.7,0.7,1,0.4c0.4-0.4,0-0.8-0.4-1.1c-0.5-0.4-1-0.8-1.5-1.2c0.3-0.2,0.6-0.4,0.9-0.6
				c0.8,0.1,1.3,0.7,2,1.1c0.4,0.2,0.8,0.7,1.1,0.2c0.3-0.5-0.2-0.8-0.6-1c-0.5-0.3-1-0.6-1.5-1c0.2-0.2,0.4-0.4,0.6-0.6
				c0.4,0,0.7,0.2,1,0.4c0.4,0.3,0.9,0.6,1.3,0.8c0.2,0.1,0.5,0.3,0.7,0c0.2-0.3,0.1-0.7-0.2-0.9C343.3,367.9,343.1,367.8,343,367.6
				z"/>
			<path fill="#FDFDFD" d="M332.1,417.9c-0.1,0-0.2-0.1-0.3-0.1c0.2-0.6-0.1-1.1-0.3-1.7c-0.1-0.4-0.4-0.8-0.2-1.2
				c0.4-0.2,0.8-0.3,1.1-0.5c0.2,0.6,0.3,1.2,0.5,1.8c0.1,0.4,0.4,0.7,0.8,0.6c0.4-0.1,0.2-0.6,0.1-0.9c-0.2-0.7-0.7-1.3-0.8-2.1
				c0.3-0.2,0.6-0.4,1-0.7c0.2,0.6,0.4,1.1,0.6,1.7c0.1,0.4,0.4,0.8,0.8,0.7c0.5-0.2,0.2-0.6,0.1-1c-0.2-0.7-0.7-1.3-0.8-2.1
				c0.3-0.3,0.6-0.6,0.9-0.8c0.2,0.5,0.4,1,0.6,1.5c0.2,0.5,0.4,1,0.9,0.8c0.6-0.2,0.1-0.8,0-1.1c-0.2-0.7-0.8-1.2-0.7-2
				c0.3-0.3,0.6-0.7,1-1c0.3,0.6,0.5,1.3,0.8,1.9c0.2,0.3,0.5,0.5,0.8,0.4c0.3-0.1,0.2-0.5,0.1-0.7c-0.1-0.3-0.3-0.6-0.4-0.9
				c-0.3-0.5-0.7-1-0.6-1.6c0.3-0.3,0.5-0.6,0.8-0.9c0.2,0.5,0.4,1,0.5,1.5c0.1,0.5,0.4,0.9,0.9,0.7c0.5-0.2,0.1-0.7,0.1-1
				c-0.2-0.8-0.8-1.4-0.8-2.3c0.3-0.3,0.4-0.8,0.8-1c0.3,0.6,0.5,1.3,0.8,1.9c0.2,0.3,0.5,0.5,0.8,0.4c0.4-0.1,0.2-0.5,0.1-0.7
				c-0.1-0.4-0.3-0.7-0.5-1.1c-0.2-0.5-0.7-1-0.6-1.7c0.2-0.4,0.5-0.7,0.7-1.1c0.3,0.5,0.6,0.9,0.8,1.4c0.2,0.5,0.5,1.1,1.1,0.7
				c0.5-0.3,0-0.8-0.1-1.2c-0.3-0.7-0.9-1.3-1.1-2.1c0.2-0.3,0.4-0.6,0.5-0.8c0.3,0.6,0.7,1.1,0.9,1.7c0.2,0.4,0.5,0.8,0.9,0.6
				c0.4-0.2,0.1-0.7,0-1c-0.1-0.3-0.3-0.6-0.5-0.9c-0.3-0.5-0.6-0.9-0.7-1.5c0.3-0.4,0.6-0.8,0.8-1.2c0.4,0.5,0.8,1.1,1.1,1.6
				c0.2,0.4,0.6,0.8,1,0.5c0.4-0.3,0-0.7-0.1-1c-0.4-0.8-1.1-1.3-1.3-2.1c0.4-0.4,0.6-0.9,1-1.2c0.4,0.6,0.8,1.3,1.1,1.9
				c0.2,0.4,0.6,0.5,0.9,0.4c0.4-0.2,0.1-0.5,0-0.8c-0.2-0.4-0.4-0.7-0.6-1c-0.3-0.5-0.8-0.8-0.7-1.4c0.3-0.3,0.5-0.6,0.8-0.9
				c0.4,0.7,0.8,1.3,1.2,2c0.2,0.3,0.5,0.4,0.9,0.3c0.3-0.2,0.1-0.5,0-0.7c-0.1-0.3-0.3-0.6-0.5-0.9c-0.3-0.5-0.9-0.9-0.9-1.6
				c0.3-0.3,0.6-0.7,0.9-1c0.3,0.5,0.6,1,1,1.5c0.3,0.4,0.6,1,1.1,0.6c0.4-0.3,0-0.8-0.2-1.2c-0.3-0.7-1-1.2-1.1-2
				c0.3-0.3,0.6-0.6,0.8-0.9c0.2,0.1,0.2,0.3,0.3,0.5c0.2,0.5,0.5,1,0.7,1.6c0.2,0.4,0.5,0.6,0.9,0.4c0.4-0.2,0.2-0.5,0.1-0.8
				c-0.2-0.5-0.4-0.9-0.7-1.3c-0.2-0.4-0.5-0.8-0.5-1.3c0.4-0.3,0.6-0.7,1-0.9c0.2,0.7,0.5,1.5,0.7,2.2c0.1,0.4,0.5,0.5,0.8,0.4
				c0.4-0.1,0.2-0.5,0.1-0.7c-0.1-0.3-0.2-0.6-0.3-0.9c-0.2-0.6-0.7-1.1-0.6-1.8c0.3-0.2,0.6-0.5,0.9-0.7c0.2,0.7,0.4,1.4,0.6,2.1
				c0.1,0.4,0.4,0.7,0.8,0.6c0.4-0.1,0.2-0.5,0.2-0.8c-0.1-0.3-0.2-0.6-0.3-0.9c-0.2-0.6-0.6-1.2-0.4-1.8c0.4-0.2,0.6-0.6,1.1-0.6
				c0,0.1,0,0.3,0,0.4l0,0c0.1,0.7,0.1,1.3,0.2,2c0,0.4,0.3,0.6,0.6,0.6c0.4,0,0.3-0.4,0.3-0.6c0-0.4-0.1-0.9-0.2-1.3
				c-0.1-0.6-0.3-1.1,0-1.7c0.3-0.1,0.6-0.3,0.8-0.4c0,0.7,0,1.5,0,2.2c0,0.4,0.2,0.8,0.6,0.8c0.5,0,0.4-0.4,0.4-0.7
				c0-0.2-0.1-0.4-0.1-0.6c0-0.7-0.2-1.3-0.1-2c0.4,0.2,0.3,0.6,0.4,0.9c2.6,11.8-2.8,23.4-13.4,29c-4.1,2.2-8.5,3.1-13.2,3
				C332.2,417.8,332.1,417.8,332.1,417.9z"/>
			<path fill="#FDFDFD" d="M310.8,378.5c3.6-6.2,8.9-10.1,15.7-12.1c3.8-1.1,7.7-1.2,11.5-0.5c0.3,0.8,0.9,1.6,1,2.5
				c-0.4,0.2-0.7,0.4-1.1,0.6c-0.2-0.5-0.3-1-0.5-1.5c-0.2-0.5-0.4-1.1-1-0.8c-0.5,0.2,0,0.8,0.1,1.1c0.2,0.6,0.7,1.1,0.5,1.8
				c-0.4,0.2-0.8,0.4-1.3,0.5c-0.1-0.6-0.2-1.2-0.4-1.8c-0.1-0.4-0.2-0.9-0.7-0.8c-0.5,0.1-0.2,0.6-0.2,1c0.1,0.7,0.5,1.3,0.4,2
				c-0.5,0.2-1,0.4-1.4,0.6c-0.1-0.6-0.1-1.3-0.2-1.9c0-0.4-0.2-0.8-0.6-0.7c-0.5,0-0.4,0.5-0.4,0.8c0,0.7,0.3,1.4,0.2,2.2
				c-0.4,0.2-0.8,0.3-1.3,0.5c0-0.7-0.1-1.4-0.1-2.1c0-0.4-0.2-0.8-0.5-0.8c-0.4,0-0.4,0.4-0.4,0.7c0,0.8,0,1.6,0,2.5
				c-0.4,0.1-0.9,0.3-1.3,0.4c0-0.7,0.1-1.3,0.1-2c0-0.4,0-0.9-0.5-1c-0.5-0.1-0.5,0.5-0.5,0.9c-0.1,0.8,0.1,1.6-0.2,2.5
				c-0.4,0.1-0.9,0.2-1.3,0.4c0.1-0.7,0.1-1.3,0.2-2c0.1-0.4,0-0.9-0.5-1c-0.5,0-0.5,0.5-0.5,0.9c-0.2,0.8,0,1.6-0.2,2.4
				c-0.4,0.1-0.9,0.2-1.3,0.4c0-0.8,0-1.5,0.1-2.3c0-0.4-0.2-0.7-0.5-0.7c-0.3,0-0.4,0.3-0.4,0.5c-0.1,0.2-0.1,0.4-0.1,0.6
				c-0.1,0.8,0.1,1.5-0.2,2.3c-0.5,0.1-1,0.3-1.4,0.4c0-0.6,0.1-1.2,0.1-1.8c0-0.5,0.1-1.1-0.5-1.1c-0.6,0-0.5,0.7-0.5,1.1
				c-0.1,0.8,0.2,1.5-0.2,2.3c-0.5,0.2-0.9,0.3-1.4,0.5c0-0.7,0-1.4,0-2.1c0-0.4-0.2-0.7-0.5-0.7c-0.4,0-0.4,0.4-0.4,0.7
				c0,0.9,0,1.8,0,2.6c-0.4,0.2-0.8,0.4-1.2,0.6c-0.5-0.6-0.2-1.4-0.3-2c-0.1-0.4-0.2-0.7-0.6-0.7c-0.4,0-0.3,0.4-0.3,0.7
				c0,0.9,0.1,1.7,0.2,2.6c-0.3,0.2-0.7,0.4-1,0.6c-0.3-0.6-0.3-1.3-0.4-2c-0.1-0.4-0.2-0.8-0.7-0.8c-0.4,0-0.3,0.5-0.3,0.8
				c0.1,0.9,0.3,1.7,0.4,2.6c-0.3,0.2-0.7,0.4-1,0.7c0-0.6-0.1-1.2-0.1-1.7c0-0.4-0.1-0.8-0.6-0.9c-0.5,0-0.4,0.5-0.4,0.8
				c0.1,0.8,0.2,1.7,0.3,2.5c-0.4,0.2-0.5,0.6-0.9,0.7c0-0.6,0-1.2,0-1.7C311.5,378.8,311.3,378.5,310.8,378.5z"/>
			<path fill="#C62D2D" d="M308.4,388.3c0.6,0,1.3,0.1,1.9,0.2c0.3,0,0.5,0.3,0.5,0.6c0,0.3-0.3,0.3-0.5,0.2c-0.4,0-0.7,0-1.1-0.1
				c-0.5-0.1-1-0.1-1.4,0.2c0.2,0.5,0.7,0.5,1.1,0.6c0.4,0.1,0.8,0.2,1.2,0.3c0.3,0.1,0.4,0.3,0.4,0.5c0,0.4-0.3,0.3-0.6,0.3
				c-0.2,0-0.4,0-0.6-0.1c-0.7-0.2-1.3-0.3-2-0.1c-0.2-0.6-0.6-1.3,0.1-1.9c0.2-0.2,0-0.5,0-0.8c-0.1-0.4-0.4-0.9,0.2-1.2
				c0.1,0.2,0.2,0.3,0.3,0.5C308,387.9,307.9,388.3,308.4,388.3z"/>
			<path fill="#C62D2D" d="M310.8,378.5c0.5,0,0.7,0.2,0.7,0.7c0,0.6,0,1.2,0,1.7c0.1,0.4-0.4,1,0.4,1c0.4,0.2,0.9,0.4,1.3,0.6
				c0.4,0.2,0.8,0.5,0.5,0.9c-0.2,0.4-0.6,0.1-0.9,0c-0.7-0.2-1.2-0.9-2-0.6c-0.1-0.1-0.3-0.2-0.4-0.2c0.3-0.6,0.4-1.3,0.2-2
				c-0.1-0.5-0.2-1.1,0-1.7C310.6,378.7,310.6,378.6,310.8,378.5z"/>
			<path fill="#C62D2D" d="M331.3,414.9c-0.2,0.4,0,0.8,0.2,1.2c0.2,0.5,0.5,1.1,0.3,1.7c-0.2,0-0.4,0-0.6,0
				c-0.6-0.7-0.5-1.6-0.8-2.4c0.1-0.3,0-0.6-0.4-0.7c-0.4-0.5-0.8-1-1.2-1.4c-0.3-0.3-0.4-0.7-0.1-1c0.3-0.3,0.6,0.1,0.8,0.3
				c0.6,0.5,0.9,1.3,1.5,1.7C331.1,414.4,331.3,414.6,331.3,414.9z"/>
			<path fill="#C62D2D" d="M358.5,385c-0.2,0.7,0,1.3,0.1,2c0,0.2,0.1,0.4,0.1,0.6c0,0.3,0.1,0.8-0.4,0.7c-0.4,0-0.6-0.4-0.6-0.8
				c0-0.7,0-1.5,0-2.2c0.2-0.3,0-0.4-0.2-0.5c-0.5-0.4-0.9-0.9-1.4-1.3c-0.3-0.3-0.4-0.6-0.1-0.9c0.3-0.3,0.5,0,0.8,0.2
				c0.6,0.4,0.8,1.2,1.5,1.5C358.3,384.5,358.4,384.8,358.5,385z"/>
			<path fill="#C62D2D" d="M339,368.5c-0.1-0.9-0.7-1.7-1-2.5c0.5-0.4,0.8,0,1.1,0.3c0.2,0.5,0.4,1.1,0.6,1.6c0,0.3,0.1,0.4,0.3,0.4
				c0.5,0.3,1,0.7,1.5,1c0.4,0.2,0.9,0.6,0.6,1c-0.3,0.5-0.8,0-1.1-0.2c-0.7-0.4-1.2-1-2-1.1C339.1,368.8,339.1,368.6,339,368.5z"/>
			<path fill="#C62D2D" d="M328.2,415.2c-0.2-0.6-0.6-1-0.9-1.5c-0.1-0.2-0.2-0.3-0.3-0.5c-0.1-0.2-0.1-0.5,0.2-0.7
				c0.3-0.2,0.5,0,0.6,0.2c0.3,0.4,0.6,0.9,0.9,1.3c0.2,0.3,0.4,0.6,0.7,0.8c0.1,0.2,0.2,0.5,0.2,0.7c-0.2,0.7,0.4,1.3,0.4,2
				c-0.5,0.6-0.8,0.2-1-0.2c-0.1-0.5-0.1-1.1-0.2-1.6C328.7,415.4,328.5,415.3,328.2,415.2z"/>
			<path fill="#C62D2D" d="M310.5,383.7c0.4,0.2,0.9,0.4,1.3,0.6c0.4,0.2,1,0.4,0.8,0.9c-0.3,0.6-0.8,0.1-1.2-0.1
				c-0.5-0.2-0.9-0.6-1.5-0.6c-0.2-0.1-0.4-0.2-0.6-0.3c0.1-0.6-0.2-1.1-0.5-1.5c0.1-0.4-0.1-0.9,0.4-1c0.4,0.3,0.5,0.9,0.7,1.3
				C309.9,383.4,309.9,383.8,310.5,383.7z"/>
			<path fill="#C62D2D" d="M326.7,416.9c-0.2-1.1-0.5-2.2-1.2-3.1c-0.3-0.4-0.3-0.8,0.1-1.1c0.4-0.2,0.6,0.2,0.8,0.5
				c0.3,0.7,0.6,1.4,1.1,1.9c0,0.3,0,0.5,0,0.8c-0.1,0.5,0,0.9,0.2,1.3C327.1,417.7,326.8,417.4,326.7,416.9z"/>
			<path fill="#C62D2D" d="M309.3,385.8c0.6,0.2,1.2,0.3,1.8,0.5c0.4,0.1,0.6,0.3,0.6,0.7c-0.1,0.4-0.5,0.3-0.7,0.3
				c-0.7-0.1-1.4-0.3-2.1-0.4c-0.2,0-0.4-0.1-0.6-0.3c-0.1-0.3-0.1-0.6-0.4-0.8c0.1-0.4-0.3-1,0.4-1.3c0.1,0.3,0.3,0.5,0.4,0.8
				C308.6,385.7,308.8,385.9,309.3,385.8z"/>
			<path fill="#C62D2D" d="M343,367.6c0.1,0.2,0.4,0.3,0.5,0.5c0.3,0.2,0.4,0.6,0.2,0.9c-0.2,0.3-0.5,0.1-0.7,0
				c-0.5-0.2-0.9-0.6-1.3-0.8c-0.3-0.2-0.6-0.4-1-0.4c0-0.2-0.2-0.2-0.3-0.2c0-0.3,0-0.6-0.1-0.9c0.1-0.2,0.3-0.2,0.5-0.1
				C341.4,367,342.3,367.1,343,367.6z"/>
			<path fill="#C62D2D" d="M324.5,416.2c-0.5-0.6-0.4-1.4-0.7-2c-0.1-0.2-0.1-0.5,0.1-0.6c0.2-0.1,0.5,0,0.6,0.2
				c0.3,0.2,0.4,0.6,0.6,0.8c0,0,0,0.1,0.1,0.2c0.4,0.5,0.9,1.1,0.4,1.8c-0.1,0.2-0.2,0.5-0.5,0.4
				C324.7,416.9,324.6,416.6,324.5,416.2z"/>
			<path fill="#FDFDFD" d="M309.9,383c-0.2-0.4-0.3-1-0.7-1.3c0.4-1,0.8-1.9,1.4-2.8c-0.1,0.6-0.1,1.1,0,1.7c0.2,0.7,0.1,1.4-0.2,2
				C310.1,382.6,310.1,382.8,309.9,383z"/>
			<path fill="#C62D2D" d="M322.5,415.2c0-0.4-0.2-0.7-0.5-1.1c-0.2-0.3-0.4-0.7-0.6-1c-0.1-0.3,0-0.6,0.2-0.7
				c0.3-0.2,0.4,0.1,0.6,0.3c0.4,0.6,0.6,1.4,1.1,2c0,0,0,0.1,0,0.2c0.7,0.2,0.5,0.7,0.2,1.1C322.8,416.5,322.7,415.8,322.5,415.2z"
				/>
			<path fill="#FDFDFD" d="M329.9,417.6c-0.1-0.7-0.6-1.3-0.4-2c0.3-0.1,0.6-0.2,0.9-0.3c0.3,0.8,0.2,1.7,0.8,2.4
				C330.7,417.7,330.3,417.7,329.9,417.6z"/>
			<path fill="#C62D2D" d="M307.3,391.6c0.6,0.4,1.2,0.3,1.8,0.4c0.4,0,0.8,0.1,0.8,0.6c-0.1,0.5-0.5,0.4-0.9,0.3
				c-0.5-0.1-1-0.4-1.6-0.1C306.8,392.4,306.8,392,307.3,391.6z"/>
			<path fill="#C62D2D" d="M320.1,414.2c-0.2-0.3-0.3-0.6-0.5-1c-0.2-0.3-0.1-0.6,0.2-0.8c0.3-0.2,0.4,0.1,0.6,0.4
				c0.3,0.5,0.5,0.9,0.7,1.4c0.2,0.4,0.5,0.8,1,0.7c0,0,0,0,0,0.1c0,0,0,0,0,0.1C321.2,415.3,320.6,414.8,320.1,414.2z"/>
			<path fill="#FDFDFD" d="M327.7,417.3c-0.2-0.4-0.2-0.9-0.2-1.3c0.4,0,0.7-0.1,1.1-0.1c0.1,0.5,0.1,1.1,0.2,1.6
				C328.4,417.4,328,417.3,327.7,417.3z"/>
			<path fill="#C62D2D" d="M307.4,393.6c0.5,0,0.9,0,1.4,0c0.3,0,0.6,0.2,0.6,0.5c0,0.4-0.3,0.4-0.6,0.4c-0.5,0-0.9-0.1-1.4-0.1
				C307.2,394.1,307,393.9,307.4,393.6z"/>
			<path fill="#FDFDFD" d="M308.6,385.3c-0.1-0.3-0.3-0.5-0.4-0.8c0.2-0.6,0.4-1.2,0.6-1.8c0.3,0.5,0.6,0.9,0.5,1.5
				C309,384.6,308.8,384.9,308.6,385.3z"/>
			<path fill="#FDFDFD" d="M340.4,366.5c0,0.3,0,0.6,0.1,0.9c-0.2,0.2-0.4,0.3-0.7,0.5c-0.2-0.5-0.4-1.1-0.6-1.6
				C339.6,366.2,340,366.4,340.4,366.5z"/>
			<path fill="#C62D2D" d="M307.4,395.3c0.4,0,0.7,0,1.1,0c0.2,0,0.5,0.3,0.4,0.5c0,0.3-0.3,0.2-0.5,0.3c-0.3,0.1-0.7-0.2-0.9,0.2
				C307.4,396,306.9,395.7,307.4,395.3z"/>
			<path fill="#FDFDFD" d="M307.8,385.8c0.3,0.1,0.3,0.5,0.4,0.8c-0.2,0.3-0.3,0.7-0.4,1.1c-0.1-0.2-0.2-0.3-0.3-0.5
				C307.6,386.7,307.7,386.2,307.8,385.8z"/>
			<path fill="#C62D2D" d="M332.1,417.9c0.1-0.1,0.1-0.1,0.2,0C332.2,417.9,332.2,417.9,332.1,417.9
				C332.1,417.9,332.1,417.9,332.1,417.9z"/>
			<path fill="#C62D2D" d="M349.7,392.3c0.2,0.8,0.8,1.3,1.1,2c0.2,0.4,0.7,0.9,0.2,1.2c-0.5,0.4-0.8-0.2-1.1-0.6
				c-0.3-0.5-0.6-1-1-1.5c0-0.6-0.4-0.3-0.6-0.2c-0.5-0.1-1,0-1.6,0c-0.4,0-0.9-0.1-0.9-0.5c0-0.5,0.5-0.4,0.8-0.4
				c0.9,0,1.7,0.2,2.6,0C349.5,392.2,349.6,392.2,349.7,392.3z"/>
			<path fill="#C62D2D" d="M348.2,394.3c0,0.7,0.6,1.1,0.9,1.6c0.2,0.3,0.4,0.6,0.5,0.9c0.1,0.2,0.3,0.6,0,0.7
				c-0.3,0.2-0.7,0.1-0.9-0.3c-0.4-0.7-0.8-1.3-1.2-2c-0.1-0.6-0.5-0.2-0.8-0.2c-0.5,0-1,0-1.5,0c-0.4,0-0.9-0.1-0.9-0.6
				c0-0.4,0.5-0.4,0.8-0.4c0.8-0.1,1.6,0.2,2.4,0C347.8,394.2,348,394.2,348.2,394.3z"/>
			<path fill="#C62D2D" d="M342.4,402.5c0.1,0.8,0.8,1.4,1.1,2.1c0.1,0.4,0.6,0.9,0.1,1.2c-0.6,0.3-0.8-0.3-1.1-0.7
				c-0.2-0.5-0.5-0.9-0.8-1.4c0-0.4-0.1-0.9-0.7-0.4c-0.5-0.2-1.1-0.1-1.6-0.2c-0.4-0.1-0.7-0.2-0.7-0.6c0-0.4,0.5-0.3,0.7-0.3
				c0.8-0.1,1.5,0.3,2.3,0.1C341.9,402.3,342.2,402.4,342.4,402.5z"/>
			<path fill="#C62D2D" d="M354.8,387.1c-0.2,0.7,0.2,1.2,0.4,1.8c0.1,0.3,0.2,0.6,0.3,0.9c0.1,0.3,0.3,0.7-0.2,0.8
				c-0.4,0.1-0.7-0.2-0.8-0.6c-0.2-0.7-0.4-1.4-0.6-2.1c0-0.2-0.1-0.4-0.3-0.5c-0.6-0.3-1.1-0.6-1.7-0.8c-0.4-0.2-0.6-0.5-0.4-0.9
				c0.2-0.4,0.6-0.1,0.9,0c0.8,0.3,1.4,0.9,2.2,1C354.7,386.9,354.8,387,354.8,387.1z"/>
			<path fill="#C62D2D" d="M351.3,390.5c0,0.5,0.3,0.9,0.5,1.3c0.2,0.4,0.5,0.9,0.7,1.3c0.1,0.2,0.4,0.6-0.1,0.8
				c-0.4,0.1-0.7-0.1-0.9-0.4c-0.2-0.5-0.5-1-0.7-1.6c-0.1-0.2-0.1-0.4-0.3-0.5c-0.1-0.4-0.3-0.2-0.5-0.2c-0.5,0-1-0.1-1.6-0.1
				c-0.4,0-0.8-0.2-0.9-0.6c0-0.5,0.5-0.4,0.8-0.4c0.8,0,1.6,0.3,2.4,0.2C351,390.4,351.2,390.4,351.3,390.5z"/>
			<path fill="#C62D2D" d="M353,388.7c-0.1,0.7,0.3,1.2,0.6,1.8c0.1,0.3,0.3,0.6,0.3,0.9c0.1,0.2,0.2,0.6-0.1,0.7
				c-0.3,0.1-0.7-0.1-0.8-0.4c-0.3-0.7-0.5-1.5-0.7-2.2c0-0.3-0.3-0.3-0.5-0.4c-0.7,0-1.3-0.3-1.9-0.5c-0.3-0.1-0.5-0.4-0.5-0.7
				c0.1-0.4,0.4-0.2,0.7-0.2c0.9,0.1,1.7,0.7,2.6,0.7C352.8,388.5,352.9,388.6,353,388.7z"/>
			<path fill="#C62D2D" d="M343.6,400.6c0,0.6,0.4,1,0.7,1.5c0.2,0.3,0.4,0.6,0.5,0.9c0.1,0.3,0.5,0.8,0,1c-0.4,0.2-0.7-0.2-0.9-0.6
				c-0.3-0.6-0.6-1.1-0.9-1.7c0-0.5-0.3-0.5-0.7-0.5c-0.5,0-1,0-1.6-0.1c-0.4,0-0.7-0.2-0.7-0.6c0-0.4,0.4-0.3,0.7-0.3
				c0.7,0,1.5,0.2,2.2,0.2C343.2,400.4,343.4,400.5,343.6,400.6z"/>
			<path fill="#C62D2D" d="M314.2,378.8c-0.1-0.9-0.3-1.7-0.4-2.6c0-0.3-0.1-0.8,0.3-0.8c0.4,0,0.6,0.3,0.7,0.8
				c0.1,0.7,0.1,1.4,0.4,2c-0.3,0.8,0.4,0.5,0.7,0.7c0.4,0.2,0.9,0.4,1.3,0.6c0.3,0.2,0.4,0.5,0.3,0.8c-0.1,0.3-0.4,0.1-0.7,0.1
				c-0.7-0.2-1.3-0.8-2.1-0.8C314.5,379.3,314.2,379.2,314.2,378.8z"/>
			<path fill="#C62D2D" d="M355.9,386.9c0-0.1,0-0.3,0-0.4c0.1-0.3,0-0.5-0.3-0.6c-0.4-0.3-0.9-0.6-1.3-0.9c-0.4-0.3-0.8-0.6-0.5-1
				c0.4-0.5,0.8,0.1,1.1,0.3c0.6,0.4,1,1,1.8,1.1c0,0.1,0,0.3,0.1,0.4c-0.2,0.6-0.1,1.1,0,1.7c0.1,0.4,0.1,0.9,0.2,1.3
				c0,0.2,0.1,0.6-0.3,0.6c-0.3,0-0.6-0.2-0.6-0.6C356,388.2,356,387.5,355.9,386.9L355.9,386.9z"/>
			<path fill="#C62D2D" d="M339.6,406.8c0,0.9,0.6,1.5,0.8,2.3c0.1,0.3,0.4,0.8-0.1,1c-0.5,0.2-0.7-0.3-0.9-0.7
				c-0.2-0.5-0.3-1-0.5-1.5c0-0.4,0.1-0.9-0.6-0.6c-0.6-0.1-1.2-0.3-1.8-0.4c-0.4-0.1-0.6-0.3-0.6-0.7c0.1-0.4,0.5-0.2,0.8-0.2
				c0.8,0,1.5,0.5,2.3,0.3C339.2,406.5,339.4,406.7,339.6,406.8z"/>
			<path fill="#C62D2D" d="M341,404.7c-0.1,0.7,0.4,1.1,0.6,1.7c0.1,0.4,0.3,0.7,0.5,1.1c0.1,0.2,0.3,0.6-0.1,0.7
				c-0.3,0.1-0.7,0-0.8-0.4c-0.3-0.6-0.5-1.3-0.8-1.9c-0.1-0.4-0.1-0.8-0.7-0.5c-0.5-0.1-1.1-0.1-1.6-0.2c-0.4,0-0.7-0.2-0.7-0.6
				c0-0.5,0.5-0.3,0.8-0.3c0.8,0,1.5,0.4,2.3,0.2C340.6,404.5,340.8,404.6,341,404.7z"/>
			<path fill="#C62D2D" d="M316.2,377.5c-0.1-0.9-0.2-1.7-0.2-2.6c0-0.3-0.1-0.7,0.3-0.7c0.4,0,0.6,0.3,0.6,0.7
				c0.1,0.7-0.1,1.4,0.3,2c-0.4,0.5-0.3,0.6,0.6,0.7c0.3,0.3,0.8,0.4,1.2,0.7c0.3,0.2,0.5,0.5,0.4,0.8c-0.2,0.4-0.5,0.2-0.8,0
				c-0.4-0.2-0.9-0.5-1.3-0.7c-0.3-0.2-0.5-0.3-0.8-0.2C316.5,378,316.1,377.9,316.2,377.5z"/>
			<path fill="#C62D2D" d="M318.5,376.4c0-0.9,0-1.8,0-2.6c0-0.3,0-0.7,0.4-0.7c0.3,0,0.5,0.3,0.5,0.7c0,0.7,0,1.4,0,2.1
				c-0.3,0.7,0.3,0.6,0.6,0.7c0.4,0.3,0.8,0.5,1.2,0.8c0.3,0.2,0.4,0.6,0.2,0.8c-0.2,0.3-0.5,0.1-0.7,0c-0.7-0.3-1.1-0.9-1.8-1.2
				C318.8,376.9,318.5,376.8,318.5,376.4z"/>
			<path fill="#C62D2D" d="M330.5,372.4c0-0.8,0-1.6,0-2.5c0-0.3,0-0.8,0.4-0.7c0.4,0,0.5,0.4,0.5,0.8c0,0.7,0,1.4,0.1,2.1
				c-0.3,0.6,0.2,0.5,0.4,0.5c0.4,0.4,0.9,0.6,1.3,0.9c0.4,0.2,0.5,0.6,0.3,0.9c-0.2,0.3-0.5,0-0.8-0.1c-0.8-0.4-1.2-1.2-2.1-1.3
				C330.5,372.8,330.5,372.6,330.5,372.4z"/>
			<path fill="#C62D2D" d="M346.7,396.1c0,0.6,0.4,1,0.7,1.4c0.2,0.4,0.5,0.7,0.6,1c0.1,0.2,0.4,0.6,0,0.8c-0.3,0.2-0.7,0-0.9-0.4
				c-0.4-0.6-0.7-1.3-1.1-1.9c-0.1-0.6-0.5-0.2-0.8-0.2c-0.5,0-1,0-1.6,0.1c-0.4,0-0.7-0.2-0.7-0.5c0-0.4,0.4-0.4,0.7-0.4
				c0.8-0.1,1.6,0.1,2.4,0C346.2,396.1,346.5,396.1,346.7,396.1z"/>
			<path fill="#C62D2D" d="M337.1,369.7c0.2-0.7-0.3-1.2-0.5-1.8c-0.1-0.4-0.6-0.9-0.1-1.1c0.6-0.3,0.8,0.3,1,0.8
				c0.2,0.5,0.3,1,0.5,1.5c0,0.2,0,0.5,0.3,0.5c0.5,0.4,1,0.8,1.5,1.2c0.4,0.3,0.8,0.7,0.4,1.1c-0.3,0.3-0.7-0.1-1-0.4
				c-0.4-0.3-0.7-0.7-1.1-1c-0.3-0.2-0.5-0.4-0.9-0.4C337.2,370,337.2,369.8,337.1,369.7z"/>
			<path fill="#C62D2D" d="M338.1,408.9c-0.1,0.7,0.4,1.1,0.6,1.6c0.1,0.3,0.3,0.6,0.4,0.9c0.1,0.2,0.3,0.6-0.1,0.7
				c-0.3,0.1-0.7,0-0.8-0.4c-0.3-0.6-0.6-1.3-0.8-1.9c0.1-0.5-0.2-0.7-0.6-0.7c-0.5-0.2-1-0.3-1.6-0.5c-0.4-0.1-0.8-0.4-0.6-0.8
				c0.1-0.4,0.6-0.2,0.8-0.1c0.7,0.2,1.3,0.5,2,0.7C337.7,408.6,337.9,408.7,338.1,408.9z"/>
			<path fill="#C62D2D" d="M325.8,373.9c0.3-0.8,0.1-1.6,0.2-2.4c0.1-0.3,0-0.9,0.5-0.9c0.5,0,0.5,0.5,0.5,1c-0.1,0.7-0.1,1.3-0.2,2
				c-0.3,0.7,0.2,0.5,0.6,0.6c0.2,0.5,0.7,0.6,1.1,0.9c0.3,0.3,0.5,0.6,0.3,0.9c-0.3,0.4-0.6,0-0.8-0.1c-0.6-0.4-1-1.1-1.8-1.3
				C326,374.3,325.8,374.1,325.8,373.9z"/>
			<path fill="#C62D2D" d="M312.4,380.2c-0.1-0.8-0.2-1.7-0.3-2.5c0-0.3-0.1-0.8,0.4-0.8c0.5,0,0.6,0.4,0.6,0.9
				c0,0.6,0.1,1.2,0.1,1.7c-0.3,0.6,0,0.7,0.5,0.8c0.3,0.4,0.7,0.5,1.1,0.7c0.4,0.2,0.8,0.5,0.6,0.9c-0.3,0.4-0.7,0.1-1-0.1
				c-0.6-0.2-1-0.7-1.6-0.8C312.5,380.8,312.4,380.6,312.4,380.2z"/>
			<path fill="#C62D2D" d="M345,398.4c0.3,0.8,1,1.4,1.3,2.1c0.1,0.3,0.6,0.7,0.1,1c-0.4,0.3-0.8-0.1-1-0.5
				c-0.3-0.6-0.7-1.1-1.1-1.6c-0.1-0.5-0.4-0.4-0.7-0.2c-0.5-0.2-1,0-1.6-0.1c-0.4,0-0.8-0.2-0.8-0.6c0-0.4,0.5-0.3,0.7-0.4
				c0.7,0,1.5,0,2.2,0C344.6,398.2,344.8,398.2,345,398.4z"/>
			<path fill="#C62D2D" d="M320.9,375.5c0.3-0.7,0.1-1.5,0.2-2.3c0.1-0.4-0.1-1.1,0.5-1.1c0.6,0,0.5,0.7,0.5,1.1
				c0,0.6-0.1,1.2-0.1,1.8c-0.1,0.6,0.4,0.6,0.7,0.7c0.3,0.4,0.8,0.5,1.1,0.8c0.3,0.2,0.5,0.5,0.3,0.9c-0.2,0.3-0.5,0-0.7,0
				c-0.4-0.1-0.7-0.6-1-0.8c-0.3-0.2-0.5-0.5-0.9-0.4C321.3,375.8,320.9,375.8,320.9,375.5z"/>
			<path fill="#C62D2D" d="M328.1,373.1c0.3-0.8,0-1.6,0.2-2.5c0.1-0.3,0-0.9,0.5-0.9c0.5,0.1,0.5,0.5,0.5,1c-0.1,0.7-0.1,1.3-0.1,2
				c-0.3,0.6,0.2,0.5,0.5,0.6c0.3,0.3,0.7,0.5,1,0.8c0.4,0.3,0.8,0.6,0.5,1c-0.3,0.4-0.7-0.1-1-0.3c-0.6-0.4-1-1-1.6-1.2
				C328.3,373.5,328.1,373.4,328.1,373.1z"/>
			<path fill="#C62D2D" d="M323.3,374.6c0.3-0.7,0.1-1.5,0.2-2.3c0-0.2,0.1-0.4,0.1-0.6c0.1-0.2,0.1-0.6,0.4-0.5
				c0.4,0.1,0.5,0.3,0.5,0.7c0,0.8,0,1.5-0.1,2.3c-0.2,0.6,0.3,0.6,0.6,0.7c0.4,0.3,0.7,0.5,1.1,0.8c0.3,0.2,0.5,0.5,0.3,0.8
				c-0.2,0.4-0.5,0.1-0.8,0c-0.7-0.3-1.1-1-1.8-1.2C323.7,375,323.5,374.8,323.3,374.6z"/>
			<path fill="#C62D2D" d="M333.2,413.9c0.1,0.8,0.6,1.4,0.8,2.1c0.1,0.3,0.3,0.7-0.1,0.9c-0.4,0.1-0.7-0.1-0.8-0.6
				c-0.2-0.6-0.3-1.2-0.5-1.8c0-0.4-0.1-0.7-0.5-0.8c-0.5-0.4-1-0.8-1.5-1.2c-0.3-0.3-0.5-0.6-0.2-0.9c0.3-0.3,0.5,0,0.8,0.2
				c0.7,0.4,1,1.2,1.9,1.4C333,413.3,333.2,413.6,333.2,413.9z"/>
			<path fill="#C62D2D" d="M334.8,412.5c0.1,0.8,0.6,1.4,0.8,2.1c0.1,0.3,0.4,0.8-0.1,1c-0.4,0.1-0.7-0.2-0.8-0.7
				c-0.2-0.6-0.4-1.1-0.6-1.7c0-0.4,0.1-0.7-0.5-0.7c-0.4-0.3-0.8-0.6-1.3-0.9c-0.4-0.3-0.9-0.6-0.6-1c0.4-0.5,0.8,0.1,1.1,0.3
				c0.5,0.3,0.9,0.8,1.5,1C334.6,412,334.8,412.2,334.8,412.5z"/>
			<path fill="#C62D2D" d="M332.7,371.6c0.1-0.7-0.3-1.5-0.2-2.2c0-0.3-0.1-0.8,0.4-0.8c0.4,0,0.6,0.3,0.6,0.7
				c0,0.6,0.1,1.3,0.2,1.9c-0.1,0.3,0,0.5,0.4,0.5c0.5,0.4,1,0.8,1.5,1.1c0.3,0.2,0.5,0.6,0.3,0.9c-0.2,0.3-0.6,0.1-0.8-0.1
				c-0.7-0.5-1.2-1.3-2.1-1.6C332.9,371.9,332.8,371.7,332.7,371.6z"/>
			<path fill="#C62D2D" d="M336.5,410.9c0,0.8,0.5,1.3,0.7,2c0.1,0.4,0.6,0.9,0,1.1c-0.5,0.2-0.8-0.3-0.9-0.8
				c-0.2-0.5-0.4-1-0.6-1.5c0.1-0.4,0.1-0.7-0.5-0.7c-0.4-0.5-0.9-0.7-1.4-1c-0.4-0.2-0.8-0.5-0.5-1c0.3-0.5,0.7,0,1,0.2
				c0.6,0.3,1,0.9,1.7,1C336.2,410.4,336.5,410.6,336.5,410.9z"/>
			<path fill="#C62D2D" d="M335.1,370.6c0.1-0.7-0.3-1.3-0.4-2c-0.1-0.3-0.3-0.9,0.2-1c0.4-0.1,0.6,0.4,0.7,0.8
				c0.1,0.6,0.2,1.2,0.4,1.8c-0.1,0.3,0.1,0.5,0.4,0.5c0.5,0.4,1,0.8,1.5,1.2c0.3,0.3,0.5,0.6,0.3,0.9c-0.3,0.4-0.6,0-0.8-0.1
				c-0.7-0.5-1.2-1.3-2.1-1.6C335.1,371,335.1,370.8,335.1,370.6z"/>
			<path fill="#571B0B" d="M320.9,375.5c0,0.3,0.5,0.3,0.5,0.7c-0.4,0.2-0.8,0.4-1.3,0.6c-0.3-0.2-0.9-0.1-0.6-0.7
				C320,375.8,320.4,375.6,320.9,375.5z"/>
			<path fill="#571B0B" d="M345,398.4c-0.2-0.1-0.4-0.2-0.7-0.1c0.3-0.4,0.6-0.9,0.8-1.3c0.3,0,0.7-0.4,0.8,0.2
				C345.6,397.5,345.4,398,345,398.4z"/>
			<path fill="#571B0B" d="M318.5,376.4c-0.1,0.4,0.3,0.5,0.5,0.7c-0.4,0.2-0.7,0.4-1.1,0.6c-0.9-0.1-0.9-0.2-0.6-0.7
				C317.7,376.8,318.1,376.6,318.5,376.4z"/>
			<path fill="#571B0B" d="M312.4,380.2c0,0.3,0.1,0.6,0.4,0.8c-0.3,0.3-0.6,0.6-0.9,1c-0.9,0-0.3-0.7-0.4-1
				C311.9,380.8,312,380.4,312.4,380.2z"/>
			<path fill="#571B0B" d="M323.3,374.6c0.2,0.2,0.4,0.4,0.5,0.6c-0.4,0.2-0.8,0.3-1.2,0.5c-0.4-0.1-0.9-0.1-0.7-0.7
				C322.4,374.9,322.9,374.8,323.3,374.6z"/>
			<path fill="#571B0B" d="M338.1,408.9c-0.2-0.1-0.4-0.3-0.6-0.4c0.3-0.4,0.5-0.8,0.8-1.1c0.7-0.3,0.6,0.3,0.6,0.6
				C338.7,408.3,338.4,408.6,338.1,408.9z"/>
			<path fill="#571B0B" d="M336.5,410.9c0-0.3-0.3-0.5-0.4-0.7c0.2-0.3,0.5-0.7,0.7-1c0.5,0,0.7,0.2,0.6,0.7
				C337.1,410.2,336.8,410.5,336.5,410.9z"/>
			<path fill="#571B0B" d="M341,404.7c-0.2-0.1-0.4-0.2-0.7-0.3c0.2-0.4,0.5-0.7,0.7-1.1c0.6-0.5,0.6-0.1,0.7,0.4
				C341.5,404,341.3,404.4,341,404.7z"/>
			<path fill="#571B0B" d="M313.8,380.2c-0.5,0-0.8-0.2-0.5-0.8c0.3-0.2,0.7-0.4,1-0.7c0,0.4,0.3,0.5,0.5,0.7
				C314.4,379.7,314.1,380,313.8,380.2z"/>
			<path fill="#571B0B" d="M339.7,405.3c0.6-0.3,0.6,0.1,0.7,0.5c-0.4,0.2-0.5,0.7-0.8,1c-0.2-0.2-0.4-0.3-0.5-0.5
				C339.3,406,339.5,405.7,339.7,405.3z"/>
			<path fill="#571B0B" d="M335.3,411c0.6,0,0.6,0.3,0.5,0.7c-0.3,0.3-0.6,0.6-0.9,0.8c0-0.3-0.2-0.5-0.4-0.7
				C334.7,411.5,335,411.2,335.3,411z"/>
			<path fill="#571B0B" d="M343.7,399.2c0.3-0.2,0.6-0.3,0.7,0.2c-0.3,0.4-0.6,0.8-0.8,1.2c-0.2-0.1-0.4-0.2-0.7-0.2
				C343.2,400,343.4,399.6,343.7,399.2z"/>
			<path fill="#571B0B" d="M316.2,377.5c-0.1,0.3,0.3,0.5,0.3,0.8c-0.2,0.2-0.5,0.4-0.7,0.6c-0.3-0.2-1,0.1-0.7-0.7
				C315.5,377.9,315.9,377.7,316.2,377.5z"/>
			<path fill="#571B0B" d="M328.1,373.1c0,0.3,0.2,0.4,0.4,0.6c-0.4,0.1-0.7,0.2-1.1,0.4c-0.4,0-0.9,0.1-0.6-0.6
				C327.3,373.4,327.7,373.2,328.1,373.1z"/>
			<path fill="#571B0B" d="M325.1,374.9c-0.3-0.1-0.8,0-0.6-0.7c0.4-0.1,0.9-0.2,1.3-0.4c0,0.3,0.2,0.4,0.4,0.6
				C325.8,374.6,325.5,374.7,325.1,374.9z"/>
			<path fill="#571B0B" d="M308.6,385.3c0.2-0.3,0.4-0.7,0.6-1c0.2,0.1,0.4,0.2,0.6,0.3c-0.2,0.4-0.4,0.9-0.7,1.3
				C308.8,385.9,308.6,385.7,308.6,385.3z"/>
			<path fill="#571B0B" d="M329.6,373.4c-0.3-0.1-0.8-0.1-0.5-0.6c0.4-0.1,0.9-0.3,1.3-0.4c0,0.2,0,0.4,0.2,0.6
				C330.3,373.1,330,373.3,329.6,373.4z"/>
			<path fill="#571B0B" d="M331.9,413.6c0.4,0.1,0.5,0.4,0.5,0.8c-0.4,0.2-0.8,0.3-1.1,0.5c0-0.3-0.2-0.5-0.3-0.7
				C331.3,414,331.6,413.8,331.9,413.6z"/>
			<path fill="#571B0B" d="M333.6,412.4c0.5,0,0.5,0.4,0.5,0.7c-0.3,0.2-0.6,0.4-1,0.7c0-0.3-0.1-0.6-0.2-0.8
				C333.2,412.8,333.4,412.6,333.6,412.4z"/>
			<path fill="#571B0B" d="M332.7,371.6c0.1,0.2,0.1,0.4,0.2,0.6c-0.3,0.1-0.7,0.3-1,0.4c-0.3-0.1-0.8,0-0.4-0.5
				C331.9,371.9,332.3,371.7,332.7,371.6z"/>
			<path fill="#571B0B" d="M348.2,394.3c-0.2,0-0.4-0.1-0.6-0.1c0.3-0.4,0.6-0.7,0.8-1.1c0.2-0.1,0.6-0.4,0.6,0.2
				C348.7,393.6,348.4,393.9,348.2,394.3z"/>
			<path fill="#571B0B" d="M342.3,401.2c0.4-0.1,0.7-0.1,0.7,0.5c-0.2,0.3-0.4,0.6-0.5,0.8c-0.2-0.1-0.4-0.2-0.6-0.3
				C341.9,401.9,342.1,401.6,342.3,401.2z"/>
			<path fill="#571B0B" d="M335,370.6c0,0.2,0.1,0.4,0.1,0.6c-0.3,0.2-0.7,0.4-1,0.6c-0.4,0-0.5-0.1-0.4-0.5
				C334.1,371,334.6,370.8,335,370.6z"/>
			<path fill="#571B0B" d="M346.7,396.1c-0.2,0-0.5-0.1-0.7-0.1c0.2-0.3,0.5-0.7,0.7-1c0.3-0.1,0.6-0.4,0.8,0.2
				C347.2,395.5,347,395.8,346.7,396.1z"/>
			<path fill="#571B0B" d="M351.8,389.2c0.2,0.1,0.5,0.1,0.5,0.4c-0.4,0.2-0.6,0.6-1,0.9c-0.1,0-0.3-0.1-0.4-0.1
				C351.1,389.9,351.6,389.7,351.8,389.2z"/>
			<path fill="#571B0B" d="M307.9,387.6c0.1-0.4,0.1-0.7,0.4-1.1c0.2,0.2,0.3,0.3,0.6,0.3c-0.1,0.5-0.4,0.9-0.4,1.4
				C307.9,388.3,308,387.9,307.9,387.6z"/>
			<path fill="#571B0B" d="M336.2,370.7c-0.3-0.1-0.4-0.2-0.4-0.5c0.4-0.2,0.8-0.4,1.3-0.5c0.2,0.1,0.2,0.3,0,0.4
				C336.9,370.4,336.5,370.5,336.2,370.7z"/>
			<path fill="#571B0B" d="M350,391.2c0.2,0,0.5-0.1,0.5,0.2c-0.3,0.3-0.6,0.6-0.8,0.9c-0.1-0.1-0.3-0.1-0.4-0.2
				C349.6,391.8,349.8,391.5,350,391.2z"/>
			<path fill="#571B0B" d="M355.7,385.9c0.3,0.1,0.3,0.3,0.3,0.6c-0.5,0-0.7,0.5-1.1,0.6c-0.1-0.1-0.1-0.2-0.2-0.3
				C355,386.5,355.3,386.2,355.7,385.9z"/>
			<path fill="#571B0B" d="M338.3,369.6c-0.4,0-0.3-0.2-0.3-0.5c0.4-0.2,0.7-0.4,1.1-0.6c0,0.2,0.1,0.3,0.1,0.5
				C338.8,369.1,338.5,369.4,338.3,369.6z"/>
			<path fill="#571B0B" d="M353,388.7c-0.1-0.1-0.2-0.1-0.3-0.2c0.3-0.3,0.6-0.7,0.9-1c0.2,0.1,0.3,0.2,0.3,0.5
				C353.7,388.2,353.4,388.4,353,388.7z"/>
			<path fill="#571B0B" d="M328.6,415.8c-0.4,0-0.7,0.1-1.1,0.1c0-0.3,0-0.5,0-0.8c0.2-0.2,0.5,0.1,0.7,0.1
				C328.5,415.3,328.7,415.4,328.6,415.8z"/>
			<path fill="#571B0B" d="M309.9,383c0.2-0.1,0.2-0.4,0.5-0.4c0.1,0.1,0.3,0.2,0.4,0.2c0,0.3-0.2,0.6-0.3,0.8
				C309.9,383.8,309.9,383.4,309.9,383z"/>
			<path fill="#571B0B" d="M330.3,415.3c-0.3,0.1-0.6,0.2-0.9,0.3c0.1-0.3-0.1-0.5-0.2-0.7c0.2-0.1,0.4-0.2,0.6-0.2
				C330.3,414.7,330.4,415,330.3,415.3z"/>
			<path fill="#571B0B" d="M356.8,385.8c0-0.1,0-0.3-0.1-0.4c0.3-0.2,0.5-0.3,0.8-0.5c0.2,0.1,0.4,0.3,0.2,0.5
				C357.4,385.5,357.1,385.6,356.8,385.8z"/>
			<path fill="#571B0B" d="M339.8,367.9c0.2-0.2,0.4-0.3,0.7-0.5c0.1,0,0.3,0.1,0.3,0.2c-0.2,0.2-0.4,0.4-0.6,0.6
				C339.8,368.3,339.7,368.1,339.8,367.9z"/>
			<path fill="#571B0B" d="M355.9,386.9L355.9,386.9L355.9,386.9z"/>
			<path fill="none" stroke="#000000" stroke-miterlimit="10" d="M306.5,394.4c0,0,0.3-14.3,12.1-17.9s21.5-6.6,22.4-10.6"/>
			<path fill="none" stroke="#000000" stroke-miterlimit="10" d="M321.2,416.6c0,0,10-0.3,13.7-4.8c3.7-4.6,15.3-24.4,24.4-27.8"/>
			<path d="M306.5,420.8l-20.8,18l44.6-18.6c0,0-25.6-5-25.7-33.6l-22.1,20.7l17.1-1.9c0,0-3.7,4.2-16.7,15.3l-22.2,19.5l27.8-13.4
				L306.5,420.8z"/>
			<path d="M360.7,387.9c-2.2-14-14.1-24-28.4-23.8c-11.3,0.2-21.8,7.6-25.5,18.2c-0.8,2.2-1.7,4.2-3,6c-0.1,0.2-0.2,0.3-0.3,0.5
				c0.1,1,0.2,2.2,0.4,3.5c0.2-0.2,0.4-0.5,0.6-0.7c0.1-0.2,0.2-0.5,0.5-0.5c0.2,0.8-0.1,1.4-0.6,2c-0.1,0.1-0.2,0.3-0.3,0.4
				c0.2,0.9,0.4,1.8,0.6,2.7c0.1-0.2,0.3-0.3,0.4-0.5c0.3,0.7,0.2,1.1-0.1,1.6c0.2,0.7,0.5,1.5,0.7,2.2c0.1-0.1,0.1-0.1,0.2-0.2
				c0.3,0.4,0.3,0.8,0.2,1.1c0.3,0.7,0.6,1.4,0.9,2.1c0,0,0.1,0,0.1,0.1c0.2,0.2,0.3,0.4,0.2,0.6c1.7,3.4,4,6.8,7.3,9.9
				c0.1,0,0.2,0.2,0.3,0.3c0.5,0.4,0.9,0.8,1.4,1.2c0.2,0,0.4,0.1,0.6,0.4c0,0,0,0,0,0c0.4,0.3,0.9,0.6,1.3,0.9
				c0.3-0.1,0.4,0,0.9,0.4c-0.1,0-0.1,0.1-0.2,0.1c0.4,0.3,0.9,0.6,1.4,0.9c0.4-0.2,0.8-0.2,1.2,0.2c-0.1,0.1-0.3,0.2-0.4,0.2
				c0.5,0.3,1,0.6,1.5,0.8c0.1,0,0.1-0.1,0.2-0.1c0.7-0.3,0.7-0.3,1.5,0.1c-0.3,0.1-0.5,0.2-0.8,0.4c0.5,0.3,1.1,0.5,1.7,0.8
				c0.3-0.1,0.7-0.3,1-0.4c0.4-0.1,0.9-0.4,1,0.1c0.2,0.5-0.4,0.4-0.7,0.6c-0.1,0.1-0.2,0.1-0.4,0.2c0.6,0.2,1.3,0.5,1.9,0.7
				c0.7-0.3,1.5-0.5,2.2-0.8c0.4-0.2,0.8-0.3,1.3-0.2c2,0.1,4,0,5.9-0.3C352.6,417.2,363,402.9,360.7,387.9z M345.4,414.9
				c-4.1,2.2-8.5,3.1-13.2,3c0,0-0.1,0-0.1,0c0,0,0,0-0.1,0c-0.1,0-0.2-0.1-0.3-0.1c-0.2,0-0.4,0-0.6,0c-0.4,0-0.8-0.1-1.2-0.1
				c-0.5,0.6-0.8,0.2-1-0.2c-0.4-0.1-0.8-0.1-1.2-0.2c-0.6,0.4-0.8,0.2-1-0.4c-0.4,0.1-0.7-0.1-1-0.3c-0.1,0.2-0.2,0.5-0.5,0.4
				c-0.5-0.1-0.6-0.4-0.7-0.8c-0.3-0.1-0.6-0.1-0.8-0.2c-0.9,0.5-1-0.2-1.2-0.7c-0.2,0.1-0.3,0-0.4-0.1c-0.9,0.2-1.5-0.3-2-0.9
				c-2.7-1.5-4.9-3.5-6.9-5.8c-2.9-3.5-4.7-7.6-5.6-12.1c-0.1-0.3-0.6-0.6-0.1-1c0-0.3,0-0.6,0-0.9c-0.2-0.3-0.4-0.5,0-0.7
				c0-0.3,0-0.6,0-0.9c-0.7-0.3-0.7-0.7-0.1-1.1c0-0.2,0-0.4,0-0.5c-0.2-0.6-0.6-1.3,0.1-1.9c0.2-0.2,0-0.5,0-0.8
				c-0.1-0.4-0.4-0.9,0.2-1.2c0.1-0.5,0.2-0.9,0.3-1.4c0.1-0.4-0.3-1,0.4-1.3c0.2-0.6,0.4-1.2,0.6-1.8c0.1-0.4-0.1-0.9,0.4-1
				c0.4-1,0.8-1.9,1.4-2.8c0-0.2,0-0.3,0.2-0.4c3.6-6.2,8.9-10.1,15.7-12.1c3.8-1.1,7.7-1.2,11.5-0.5c0.5-0.4,0.8,0,1.1,0.3
				c0.4-0.1,0.8,0.1,1.2,0.2c0.1-0.2,0.3-0.2,0.5-0.1c0.6,0.6,1.5,0.7,2.1,1.2c0.2-0.3,0.4-0.1,0.6,0c7,3.1,11.9,8.2,14.5,15.5
				c0.1,0.4,0.3,0.8,0.2,1.3c0.1,0.2,0.1,0.4,0.2,0.6c0.4,0.2,0.3,0.6,0.4,0.9C361.4,397.7,356.1,409.3,345.4,414.9z"/>
		</g>
		<rect x="4" y="510.3" width="588.2" height="16.8"/>
		<rect x="4" y="246.5" width="588.2" height="16.8"/>
		<rect x="4.7" y="249.9" width="19.9" height="266.1"/>
		<rect x="571.4" y="249.9" width="19.9" height="266.1"/>
	</g>
	<rect x="65.2" y="517.7" width="17.5" height="115.8"/>
	<rect x="500.7" y="517.7" width="17.5" height="115.8"/>
</g>
</svg>
