<?xml version="1.0" encoding="utf-8"?>
<!-- Generator: Adobe Illustrator 18.1.1, SVG Export Plug-In . SVG Version: 6.00 Build 0)  -->
<svg version="1.1" id="Layer_1" xmlns="http://www.w3.org/2000/svg" xmlns:xlink="http://www.w3.org/1999/xlink" x="0px" y="0px"
	 viewBox="0 0 257 474.2" enable-background="new 0 0 257 474.2" xml:space="preserve">
<path fill="#CCCCCC" d="M35.8,435l-5.7,20.7c0,0,22,21.5,45,18c21.5-3.3-4.6-16.3-8.3-18.3c-3.7-2-12.9-12.4-12.9-12.4L35.8,435z"/>
<path fill="#D89F79" d="M101.6,325.5l-21.4,57.4c0,0-14,14-31.9-4.5l16.7-60.4"/>
<path fill="#333333" d="M80.1,382.8L53.8,445c0,0-15.7,8.2-18-10l12.3-57.8C48.2,377.3,65.9,395,80.1,382.8z"/>
<path fill="#FCFCFC" d="M48.2,377.3l-1.2,6.4c0,0,9.3,13.5,29.5,8.2l3.7-9.1C80.1,382.8,64.3,390.8,48.2,377.3z"/>
<polygon fill="#1A1A1A" points="145.5,338.6 166.6,331.1 147.3,316.2 "/>
<path fill="#CCCCCC" d="M126.1,411.7L115.6,429c0,0,21.4,28.8,45.1,22.6c23.7-6.2-3.4-13.5-6.8-16c-3.4-2.4-10.7-13.3-10.7-13.3
	L126.1,411.7z"/>
<path fill="#D89F79" d="M166.9,287.4l44,46.4l-27.1,39.9c0,0-17.7,9.8-32.3-10l15.4-25.6c0,0-28.8-29.9-26.5-31"/>
<path fill="#333333" d="M151.7,265.3l33,39c0,0-31.1,5.6-39.2,34.3l-34.9-31.8l-11.8,43.6c0,0-37.4,3.7-46.7-14.3l16.5-70.8
	C68.5,265.3,139.2,252.4,151.7,265.3z"/>
<path fill="#D89F79" d="M64.2,157.5L34.9,195l49.3,17.2L78,224l-66.5-12.5c-5.6-1.1-8.4-7.5-5.2-12.3l39.1-59.1L64.2,157.5z"/>
<polygon fill="#D89F79" points="158.2,137.9 221.3,119.3 215,35 200.3,38.1 199.8,103.5 148.3,116.1 "/>
<path fill="#FCFCFC" d="M62.9,116.5c0,0,19.9-17.4,102.3,4.3c0,0-10,7.5-13.5,144.5c-0.6-2.5-83.2,1.7-83.2,0
	C67.2,111.6,62.9,116.5,62.9,116.5z"/>
<path fill="#D89F79" d="M131.9,30.1l9.5,61.6L126.2,95l0.8,17.4c0,0-12.5,18.3-34.9,4.2l0.3-39.7c0,0-8-0.4-9.4-9.3s8.2-6.1,8.2-6.1
	l-3.8-24.6L131.9,30.1z"/>
<path fill="#C47E39" d="M131.9,30.1c0,0-1.5,5.1-15.7,7.6c-14.1,2.5-24.9-3.3-21.6,11.6c3.3,15,2.5,19.1,2.5,19.1l-4.2-0.8
	c0,0-1.3-6.6-7.3-6.2c0,0-6-23.7,0.6-33.7C92.9,17.8,125.9,5,131.9,30.1z"/>
<path fill="#D89F79" d="M102.1,116.6l10.8,34.9l6.6-39.9C119.5,111.6,101.2,119.9,102.1,116.6z"/>
<path fill="#333333" d="M91.9,106.8c0,0-5.3,2.2-3.4,9c1.9,6.9,16.8,9,16.8,9l-1.6-5.9c0,0-8.9-1-11.6-4.9L91.9,106.8z"/>
<polygon fill="#FCFCFC" points="103.5,125.9 117.8,132 116.6,133.6 102.7,127.4 "/>
<polygon fill="#FCFCFC" points="103.5,135.9 117.8,141.9 116.6,143.6 102.7,137.4 "/>
<polygon fill="#FCFCFC" points="119.5,130.9 105.2,136.9 106.4,138.6 120.3,132.4 "/>
<polygon fill="#FCFCFC" points="119.5,121 105.2,127 106.4,128.6 120.3,122.4 "/>
<g>
	<path d="M149.4,142.5C149.4,142.5,149.4,142.5,149.4,142.5c-1.4,0.2-2.3-0.3-3-1.5c-0.3-0.5-0.6-0.9-0.9-1.4
		c-0.3,0.5-0.3,0.5-0.1,0.9c0.4,0.7,0.8,1.4,1.3,2c0.6,0.9,1.3,1.7,2,2.5c0.1,0.1,0.2,0.1,0.3,0.2c0,0-0.1,0.1-0.1,0.1
		c-1,0.1-1.8-0.2-2.4-1c-0.3-0.4-0.5-0.7-0.8-1.1c-0.4-0.7-0.9-1.3-1.3-2c-0.3,0.2-0.4,0.3-0.2,0.7c1.3,1.9,2.2,4,4,5.5
		c-1.2,0.1-2-0.2-2.6-1.1c-0.6-1-1.3-2-1.9-3c-0.2-0.3-0.4-0.7-0.6-1c-0.2,0.1-0.3,0.2-0.5,0.3c1.6,2.2,2.6,4.7,4.6,6.5
		c-1,0.1-1.8-0.1-2.4-0.9c-0.3-0.3-0.5-0.7-0.7-1c-0.9-1.4-1.7-2.7-2.6-4.1c-0.1,0-0.2,0.1-0.3,0.1c0,0-0.1,0.1-0.2,0.1
		c1.7,2.4,2.8,5.1,5,7.2c-0.1,0-0.2,0-0.2,0c-1.1,0.1-2-0.4-2.6-1.4c-1.1-1.7-2.1-3.4-3.2-5.1c-0.1-0.1-0.2-0.3-0.3-0.4
		c0,0-0.1,0-0.1,0.1c-0.5,2.2,0.9,3.6,2.3,5.1c-0.3,0-0.6,0-0.9,0c0.3,0.5,0.6,0.9,0.8,1.3c0.3,0.6,0.7,0.8,1.3,0.6
		c0.1,0,0.3,0,0.5,0c0.6,0,0.8,0.3,0.6,0.8c-0.1,0.2-0.2,0.3-0.2,0.4c-0.4-0.1-0.7-0.3-1-0.4c0,0,0,0.1-0.1,0.1
		c0.2,0.3,0.5,0.6,0.7,0.9c0.3,0.5,0,1-0.5,1.1c-0.2-0.4-0.4-0.8-0.6-1.3c-0.4,1.5-0.6,1.7-1.2,1.3c0.1-0.7,0.2-1.4,0.3-2.2
		c-0.6,0.1-1.1,0.2-1.7,0.3c0,0-0.1,0-0.1-0.1c-0.1-0.3-0.2-0.5-0.2-0.8c0.3-0.1,0.5-0.2,0.8-0.2c0.2,0,0.5,0,0.8,0
		c-0.4-0.6-0.7-1-1-1.5c-0.2,0.2-0.3,0.4-0.4,0.5c-0.1-0.4-0.2-0.7-0.3-1c-0.1-0.3-0.3-0.6-0.4-0.9c-0.1,0-0.1,0-0.2,0
		c0,0.9-0.1,1.9,0,2.8c0.1,1.3,0.3,2.6,1.7,3.3c-0.3,0.2-0.7,0.4-0.8,0.4c-0.4-0.2-0.7-0.5-1-0.7c-0.2,0.3-0.4,0.6-0.6,1
		c-0.1,0-0.3,0-0.4,0c-0.2-0.3-0.4-0.7-0.5-0.9c-0.3,0.3-0.6,0.6-1,0.7c-0.2,0.1-0.5-0.2-0.8-0.4c0.8-0.5,1.1-0.8,1.4-1.6
		c0.4-1.2,0.4-2.5,0.3-3.8c0-0.2-0.1-0.5-0.1-0.7c-0.1,0-0.1,0-0.2,0c-0.2,0.6-0.5,1.3-0.7,1.9c-0.1-0.2-0.2-0.3-0.4-0.5
		c-0.3,0.5-0.7,1-1,1.5c0.4,0,0.6-0.1,0.9-0.1c0.2,0,0.5,0.1,0.7,0.2c-0.1,0.3-0.1,0.5-0.2,0.8c0,0.1-0.2,0.1-0.2,0.2
		c0,0,0-0.1,0-0.1c-0.5-0.1-1-0.1-1.5-0.2c0.1,0.8-0.2,1.5,0.4,2c-0.8,0.5-0.9,0.3-1.3-1.2c-0.2,0.2-0.3,0.4-0.4,0.6
		c-0.1,0.2-0.1,0.4-0.2,0.7c-0.7-0.2-0.9-0.7-0.5-1.2c0.2-0.3,0.4-0.5,0.7-0.8c0,0,0-0.1-0.1-0.1c-0.3,0.1-0.7,0.3-1.1,0.4
		c-0.1-0.1-0.2-0.3-0.2-0.5c-0.1-0.5,0-0.8,0.6-0.7c0.3,0,0.7,0.1,1,0.1c0.1,0,0.3,0,0.4-0.1c0.4-0.6,0.8-1.2,1.3-1.9
		c-0.4,0-0.6,0-1,0c1.5-1.5,2.7-2.9,2.3-5.1c-0.1,0.1-0.2,0.2-0.3,0.3c-1,1.6-2.1,3.2-3.1,4.8c-0.3,0.4-0.5,0.8-0.9,1.1
		c-0.6,0.6-1.4,0.8-2.1,0.5c1-1,4.6-6.2,4.9-7.3c-0.1,0-0.3-0.1-0.4-0.1c-0.8,1.3-1.7,2.7-2.5,4c-0.3,0.4-0.5,0.8-0.9,1.2
		c-0.6,0.7-1.4,0.9-2.4,0.8c2-1.9,3.1-4.4,4.6-6.6c-0.2-0.1-0.3-0.2-0.5-0.3c-0.7,1.1-1.4,2.3-2.1,3.4c-0.3,0.4-0.6,0.8-0.9,1.2
		c-0.6,0.6-1.3,0.6-2.1,0.5c1.9-1.7,2.8-3.9,4.2-5.8c-0.2-0.1-0.3-0.2-0.4-0.4c-0.1,0.2-0.2,0.4-0.4,0.6c-0.6,0.9-1.1,1.8-1.7,2.6
		c-0.6,0.8-1.4,1-2.4,0.9c0.4-0.5,0.9-0.9,1.3-1.4c0.8-1.2,1.6-2.4,2.3-3.6c0.1-0.2,0-0.4,0-0.7c-0.6,0.7-1,1.4-1.5,2.1
		c-0.6,0.8-1.4,1-2.4,0.9c0.5-0.6,1-1.1,1.5-1.7c0.7-1.1,1.4-2.2,2.1-3.3c0-0.1,0.1-0.1,0.1-0.2c0.2-0.9,0.6-1.7,1.3-2.3
		c-0.1-0.1-0.2-0.2-0.3-0.2c0.8-0.2,1.5-0.4,2.2-0.6c0.2-0.1,0.5-0.1,0.7-0.1c0.2,0.1,0.5,0.2,0.6,0.4c0.1,0.2-0.1,0.5-0.3,0.6
		c-0.3,0.2-0.7,0.2-1,0.2c-0.1,0-0.4,0-0.4,0.1c-0.7,0.9-0.9,2.1,0.1,3c0.7,0.6,1.5,0.9,2.3,0.9c0.1,0,0.3-0.1,0.4-0.2
		c0.4-0.6,0.7-1.2,1.1-1.8c0.1-0.1,0.2-0.2,0.2-0.3c-0.5-0.4-0.9-0.7-1.3-1c0-0.1,0.1-0.1,0.1-0.2c0.3,0.1,0.6,0.2,0.9,0.2
		c0.5,0.2,0.5,0.2,0.7-0.1c-0.6-0.2-1.4-0.1-1.9-0.7c0.6,0.1,1.2,0.1,1.8,0.2c0-0.1,0-0.1,0.1-0.2c-0.2-0.2-0.3-0.5-0.6-0.5
		c-0.4-0.1-0.8,0-1.2,0c0-0.1-0.1-0.2-0.2-0.3c-0.3-0.6-0.1-1,0.6-1c0.3,0,0.6,0,0.9,0c0.2,0.1,0.4,0,0.4-0.2c0.3,0,0.6,0,0.9,0
		c0.6,0.1,1.1,0.2,1.7,0.3c-0.1,0.2-0.2,0.3-0.3,0.4c0.5,0.9,0.5,1.3,0.1,2.4c-0.2,0.6-0.4,1.1-0.4,1.7c0,1.1,0.6,1.6,1.7,1.4
		c0.2,0,0.4-0.1,0.6-0.2c0.7-0.3,1.2-0.7,1.5-1.4c0.3-0.7,0.1-1.3-0.2-1.9c-0.3-0.6-0.7-0.4-1.1-0.4c0,0,0,0,0,0
		c-0.6-0.1-1-0.5-0.9-0.9c0.1-0.4,0.5-0.6,1.1-0.4c0.8,0.2,1.6,0.4,2.5,0.6c-0.1,0.1-0.2,0.2-0.3,0.2c0.3,0.4,0.6,0.8,0.8,1.2
		c0.2,0.4,0.3,0.9,0.5,1.3c0.9,1.4,1.7,2.7,2.7,4.1C148.6,141.9,149,142.1,149.4,142.5z M133.2,151.4c0,0.1,0,0.1,0,0.2
		c-0.3,0.3-0.5,0.6-0.8,0.8c-0.4,0.5-0.4,0.6,0,1c0.2-0.6,0.5-1.1,1-1.5c0,0.4,0,0.8,0.1,1.1c0,0.4,0.1,0.7,0.5,0.6
		c-0.1-0.7-0.1-1.4-0.2-2.2c0.6,0.1,1.2,0.1,1.9,0.2c0-0.1,0.1-0.3,0.2-0.5c-0.2,0-0.4-0.1-0.6-0.1c-0.3,0-0.7,0-1.2,0.1
		c0.4-0.6,0.8-1.2,1.2-1.7c0.1-0.1,0.2-0.3,0.1-0.5c0-0.1-0.2-0.2-0.3-0.2c-0.2,0.1-0.3,0.2-0.4,0.3c-0.2,0.3-0.4,0.6-0.6,1
		c-0.4,0.8-0.9,1.3-1.9,0.9c0,0-0.1,0-0.1,0c-0.2,0-0.5,0-0.5,0.1c-0.1,0.2,0,0.4,0,0.5C132.3,151.6,132.7,151.5,133.2,151.4z
		 M135.4,140.2c-0.2,0-0.4,0-0.6-0.1c-1-0.2-1.9-0.6-2.5-1.4c-0.8-1-0.8-2-0.1-3.1c0.1-0.1,0.2-0.3,0.3-0.4c0,0-0.1,0-0.1-0.1
		c-0.7,0.6-1.1,1.4-1.1,2.4c0,1.5,1.2,3,2.9,3.5c0.4,0.1,0.9,0.2,1.3,0.3C135.4,141,135.4,140.6,135.4,140.2z M140.3,140.2
		c0,0.4,0,0.7,0,1.1c1.5,0.1,3.3-1,3.9-2.5c0.5-1.2,0.2-2.5-0.7-3.4c-0.1-0.1-0.1-0.1-0.2-0.1c0.8,1.1,1,2.2,0.2,3.4
		C142.7,139.7,141.6,140.1,140.3,140.2z M143.9,151.6c0.3-0.5,0.2-0.7-0.5-0.7c-0.3,0-0.6,0.1-1,0.1c-0.2,0-0.4-0.1-0.5-0.2
		c-0.4-0.6-0.8-1.2-1.2-1.9c-0.1-0.1-0.3-0.2-0.4-0.2c-0.1,0-0.3,0.2-0.3,0.3c0,0.1,0.1,0.3,0.2,0.4c0.4,0.5,0.7,1,1.1,1.6
		c-0.4,0.1-0.8,0.1-1.1,0.1c-0.2,0-0.4,0.1-0.6,0.1c0.1,0.2,0.1,0.4,0.2,0.5c0.7-0.1,1.2-0.1,1.9-0.1c-0.1,0.8-0.1,1.5-0.2,2.2
		c0.3,0.1,0.5-0.1,0.5-0.4c0-0.4,0.1-0.8,0.1-1.2c0,0,0.1,0,0.1-0.1c0.3,0.5,0.7,1,1,1.4c0.3-0.2,0.3-0.5,0.1-0.8
		c-0.3-0.3-0.6-0.7-0.9-1c0-0.1,0-0.1,0.1-0.2C142.9,151.5,143.4,151.6,143.9,151.6z M137.8,135.5c0.4-0.9,0.2-1.6-0.6-1.9
		c-0.3-0.1-0.6-0.1-0.8-0.1c-0.2,0-0.5,0.1-0.6,0.2c-0.1,0.1,0.1,0.4,0.1,0.6C137,134.2,137.3,134.4,137.8,135.5z M138.3,133.6
		c-0.4,0.1-0.4,0.2-0.2,0.5c0.1,0.2,0.1,0.5,0.5,0.3c0.2-0.1,0.4-0.3,0.2-0.6c-0.1,0.1-0.2,0.2-0.4,0.4
		C138.3,134,138.3,133.8,138.3,133.6z"/>
	<path fill="#FFFFFF" d="M133.2,151.4c-0.5,0.1-1,0.1-1.5,0.2c0-0.1-0.1-0.4,0-0.5c0.1-0.1,0.4-0.1,0.5-0.1c0,0,0.1,0,0.1,0
		c1,0.3,1.5-0.1,1.9-0.9c0.2-0.3,0.4-0.7,0.6-1c0.1-0.1,0.2-0.3,0.4-0.3c0.1,0,0.3,0.1,0.3,0.2c0,0.1-0.1,0.3-0.1,0.5
		c-0.4,0.5-0.7,1.1-1.2,1.7c0.5,0,0.9-0.1,1.2-0.1c0.2,0,0.4,0.1,0.6,0.1c-0.1,0.2-0.1,0.4-0.2,0.5c-0.7-0.1-1.2-0.1-1.9-0.2
		c0.1,0.8,0.1,1.5,0.2,2.2c-0.4,0.1-0.5-0.2-0.5-0.6c0-0.3,0-0.7-0.1-1.1c-0.5,0.4-0.9,0.9-1,1.5c-0.4-0.4-0.4-0.6,0-1
		c0.3-0.3,0.5-0.6,0.8-0.8C133.3,151.5,133.2,151.5,133.2,151.4z"/>
	<path fill="#FFFFFF" d="M135.4,140.2c0,0.4,0,0.7,0,1.1c-0.5-0.1-0.9-0.1-1.3-0.3c-1.7-0.5-2.9-2-2.9-3.5c0-1,0.4-1.7,1.1-2.4
		c0,0,0.1,0,0.1,0.1c-0.1,0.1-0.2,0.3-0.3,0.4c-0.7,1-0.7,2.1,0.1,3.1c0.6,0.8,1.5,1.2,2.5,1.4C135,140.2,135.2,140.2,135.4,140.2z"
		/>
	<path fill="#FFFFFF" d="M140.3,140.2c1.3-0.1,2.4-0.5,3.2-1.6c0.8-1.2,0.6-2.3-0.2-3.4c0.1,0,0.2,0.1,0.2,0.1
		c1,0.9,1.2,2.2,0.7,3.4c-0.6,1.5-2.4,2.6-3.9,2.5C140.3,141,140.3,140.6,140.3,140.2z"/>
	<path fill="#FFFFFF" d="M143.9,151.6c-0.5-0.1-1-0.1-1.5-0.2c0,0.1,0,0.1-0.1,0.2c0.3,0.3,0.6,0.7,0.9,1c0.3,0.3,0.3,0.6-0.1,0.8
		c-0.3-0.5-0.7-1-1-1.4c0,0-0.1,0-0.1,0.1c0,0.4,0,0.8-0.1,1.2c0,0.3-0.2,0.5-0.5,0.4c0.1-0.7,0.1-1.4,0.2-2.2
		c-0.6,0-1.2,0.1-1.9,0.1c0-0.1-0.1-0.3-0.2-0.5c0.2,0,0.4-0.1,0.6-0.1c0.3,0,0.7,0,1.1-0.1c-0.4-0.5-0.7-1-1.1-1.6
		c-0.1-0.1-0.2-0.3-0.2-0.4c0-0.1,0.2-0.3,0.3-0.3c0.1,0,0.3,0.1,0.4,0.2c0.4,0.6,0.8,1.3,1.2,1.9c0.1,0.1,0.3,0.2,0.5,0.2
		c0.3,0,0.6-0.1,1-0.1C144.1,150.9,144.2,151.1,143.9,151.6z"/>
	<path fill="#FFFFFF" d="M137.8,135.5c-0.5-1.1-0.8-1.3-2-1.1c0-0.2-0.2-0.5-0.1-0.6c0.1-0.2,0.4-0.2,0.6-0.2c0.3,0,0.6,0,0.8,0.1
		C138,133.9,138.2,134.6,137.8,135.5z"/>
	<path fill="#FFFFFF" d="M138.3,133.6c0,0.2,0,0.3,0,0.6c0.2-0.2,0.3-0.3,0.4-0.4c0.2,0.3,0.1,0.5-0.2,0.6c-0.4,0.2-0.4-0.1-0.5-0.3
		C138,133.9,137.9,133.7,138.3,133.6z"/>
</g>
<path fill="#FFFFFF" d="M152.7,150.7l21.6-11.6c0,0,6.6-22.4-10.8-31.6l-36.5,3.9l26.6,22.6L152.7,150.7z"/>
<path fill="#333333" d="M117.7,119.3c0,0,5.3-2.2,8.3-7.5v-5c0,0,5.4,1.2,4.1,5.9s-6.9,10.6-13.1,11.5L117.7,119.3z"/>
<path fill="#333333" d="M158.3,107.9c0,0,16.4,10.8,11.6,33.6l4.4-2.5c0,0,7.5-23.7-10.8-31.6L158.3,107.9z"/>
<path fill="#FCFCFC" d="M72,112.4c0,0-19,4.7-34,30.5c0,0,8.1,18.4,22.4,22.7l16.8-12.8L72,112.4z"/>
<path fill="#333333" d="M39.9,139.2c0,0,8.1,21.2,23.1,24.6l-2.5,1.9c0,0-12.8-0.3-22.4-22.7L39.9,139.2z"/>
<path fill="#D89F79" d="M63.2,221.5l16.8,3.4c0,0,9.3,11.2,14.3,10.3c5-0.9,12.8-6.5,13.1-14.6c0,0-3.7-4.4-10.3-4.7l10,0.6
	c0,0-1.6-6.2-10.9-6.2s-14.6,0.6-14.6,0.6l-16.2-5L63.2,221.5z"/>
<g>
	<path fill="#F7931E" d="M221.9,22.8c-0.2-0.1-0.4-0.3-0.6-0.3c-4.4-0.8-8.5,2.4-9.3,6.8s2.1,8.8,6.5,9.5c0,0,0,0,0,0
		C220.9,37.5,224.4,30.2,221.9,22.8z"/>
	<path fill="#F7931E" d="M201.9,30.8c0,0-22.5,16.2-38.2,1.9c-0.3-0.2-0.1-0.7,0.3-0.7c2.5,0.2,8.5,0,11.5-6
		c3.6-7.2-0.8-15.5-6.8-18.1c-0.3-0.1-0.3-0.5,0-0.6c4.6-1.1,23.9-4.4,34.3,15.9L201.9,30.8z"/>
	<path fill="#DD730C" d="M192.5,20.4c0,0-7-8.3-13.4-6.4l0.2,0.3c0,0,5.7-1.6,12.5,6.2L192.5,20.4z"/>
	<polygon fill="#DD730C" points="191.6,19.7 200.1,18.3 199.7,17.8 191.4,19.5 	"/>
	<polygon fill="#DD730C" points="198,15.6 189.4,17.6 188.8,17.3 197.6,15.1 	"/>
	<polygon fill="#DD730C" points="193.7,11.8 187.2,16 186.7,15.7 193.3,11.6 	"/>
	<polygon fill="#DD730C" points="189.4,9.2 184.6,14.8 184.2,14.5 188.9,9 	"/>
	<polygon fill="#DD730C" points="184.4,7.5 182,14.1 181.6,14 183.9,7.4 	"/>
	<polygon fill="#DD730C" points="178.4,6.6 179,13.5 178.2,13.5 177.9,6.5 	"/>
	<path fill="#F7931E" d="M185,13.1c0,0,1.4,0,1.7,0.9c0.3,0.9,0.6,2,0.6,2S186.5,13.1,185,13.1z"/>
	<path fill="#DD730C" d="M190.9,29.6c0,0-9.4,5.4-14.8,1.6l0.3-0.2c0,0,4.8,3.5,13.9-1.7L190.9,29.6z"/>
	<polygon fill="#DD730C" points="189.9,30 196.7,33.9 196.2,34.1 189.5,30.1 	"/>
	<polygon fill="#DD730C" points="193.4,35.5 187,31.2 186.4,31.3 192.8,35.7 	"/>
	<polygon fill="#DD730C" points="188.5,37.2 184.5,31.9 183.9,32.1 188.1,37.3 	"/>
	<polygon fill="#DD730C" points="184,38.2 181.6,32.3 181.1,32.4 183.5,38.3 	"/>
	<polygon fill="#DD730C" points="178.8,38.5 178.9,32 178.5,31.9 178.5,38.5 	"/>
	<polygon fill="#DD730C" points="173,37.8 175.9,31.5 175.1,31.3 172.4,37.8 	"/>
	<path fill="#DD730C" d="M168.3,32.9l8.1-0.7l3.4-5.4l1.3-7.1l-0.5-5.8l-7.9-4.6c0,0-3.8-1.4-6.1,10.5S168.3,32.9,168.3,32.9z"/>
	<path fill="#FBB03B" d="M216.4,32.9c0,0,1.8-2.2,1.4-6.1c0,0-3.7-0.8-6.1-1.9s-12.8-3.6-17.6-3.7c0,0-1.8-1.7-3.4-1
		c0,0-2.1-6.2-3.3-7.7c-1.3-1.5-8.2-1.1-8.2-1.1s-3-1-4.3-0.3c0,0,2,1.2,4.2,1.3l6.8,2.2l1.2,5.8l-0.4,1.4l-0.3,1.2l-1-0.2
		c0,0,0-1.2-0.8-1.7s-2.2-0.7-2.7-0.4s-1.2,0.1-1.3,1.3c-0.1,1.2-0.6,2.2-0.6,2.7c0.1,0.6,0.6,1.6,1,1.6s0.9,0,1.7,0.1
		c0.9,0.2-0.2,0.5,3.2,0.8l-0.2,1c0,0-2.2,2.3-3.5,4.2c0,0-5.5,0.7-5.9,0.5c-0.4-0.2-1.5-1-2-1c-0.5,0-1.5,0.5-2.5-0.4
		s-0.1,0.3-0.1,0.3s-0.4-0.3,0.5,0.5c0,0-1.9-0.2-2.2,0c-0.3,0.2,0.9,0.2,1.3,0.5c0.5,0.3,2.4,0.2,3,0.4s7.7,2.4,8.5,2
		s5.7-6.3,5.7-6.3s3.2,1,3.7,0.5c0,0,7.7,2.2,8.1,2.1c0.4-0.1,1-0.7,1.6-0.5c0.6,0.2,6.2,0.7,7.6,0.8
		C211.1,32.1,216.4,32.9,216.4,32.9z"/>
	<path fill="#F7931E" d="M186.3,25.8c0,0,1.9-1.2,2.1-1.7c0.3-0.5-1-2.6-1-2.6s1.7,1.7,1.8,2.4C189.3,24.7,186.3,25.8,186.3,25.8z"
		/>
	<path fill="#F7931E" d="M192.6,26.7c0,0.1,0.2,2.3-0.1,2.7c0,0,0.5-0.8,0.6-1.3C193.3,27.6,192.6,26.7,192.6,26.7z"/>
	<path fill="#F7931E" d="M193.1,25.3c0,0,0.1-1,0.5-1.5c0.4-0.5,0.9-2.1,0.4-2.7c-0.4-0.5-2.2,0.2-2.2,0.2s1.4-0.3,1.9,0.2
		C194.1,21.9,192.5,24.4,193.1,25.3z"/>
	<path fill="#F7931E" d="M189.7,20.4c0,0,2.6,1,2.9,1.8c0.3,0.8-0.5,1.2-0.2,1.5c0,0-0.5-0.3-0.2-0.9S189.7,20.4,189.7,20.4z"/>
	<path fill="#F7931E" d="M189.7,28.8c0,0,2.1-0.2,2.4-1.2C192.2,27.6,190.5,28.6,189.7,28.8z"/>
	<path fill="#F7931E" d="M187.5,19.5c0,0,0.9,0.8,2,0.9C189.6,20.5,187.7,20.5,187.5,19.5z"/>
	<path fill="#F7931E" d="M186.4,27.7c0,0,1.1-0.2,2.1,1C188.5,28.7,187,27.8,186.4,27.7z"/>
	<path fill="#F7931E" d="M188.1,27.5c0,0,1.8,0.1,2-0.3c0.2-0.4-0.2-1.7-0.1-2.2c0,0-0.2,0.5-0.2,1.2
		C189.8,26.9,190.3,27.4,188.1,27.5z"/>
	<path fill="#F7931E" d="M185.3,24.5c0,0,1-1,0.3-1.9l1.2,1.1C186.8,23.7,185.6,23.9,185.3,24.5z"/>
	<polygon fill="#F7931E" points="182.8,23.2 184.3,23.3 184.1,23 	"/>
	<path fill="#F7931E" d="M182.9,23.6c0,0-0.3,0.1-0.5,0.5c-0.2,0.4,0.3,0.6,0.3,0.6L182.9,23.6z"/>
	<path fill="#F7931E" d="M183,22.8c0,0-0.3-0.2-0.3-0.7c0-0.5,0.4-0.5,0.4-0.5L183,22.8z"/>
	<path fill="#F7931E" d="M181.6,25c0,0,2.5,0.3,3.3-0.3l0.6,0.1l0.7,0.3L185,25C185,25,183,25.5,181.6,25z"/>
	<path fill="#F7931E" d="M193.8,28.2c0,0,3.3,0.7,3.8,0.7C197.6,28.9,195.4,29.1,193.8,28.2z"/>
	<path fill="#F7931E" d="M198.2,26.7l15.5,2.7C213.7,29.4,199.9,27,198.2,26.7z"/>
	<path fill="#F7931E" d="M198.4,29.5c0,0,9.5,1.6,10.9,1.3L198.4,29.5z"/>
	<path fill="#F7931E" d="M197.8,22.2l7.2,0.8l-2.6-0.8C202.4,22.3,197.8,22.3,197.8,22.2z"/>
	<path fill="#F7931E" d="M210.3,26.5c-0.2,0,7.4,1.8,7.4,1.8l0-0.3C217.7,28,212.1,26.7,210.3,26.5z"/>
	<path fill="#F7931E" d="M181.3,34c0,0,1.3,0.5,1.9-0.3c0.6-0.8,1.2-1.7,1.2-1.7S182.8,34.5,181.3,34z"/>
	<path fill="#F7931E" d="M189.9,19.7l-2-3.8l1.5,4C189.4,19.9,189.9,20.3,189.9,19.7z"/>
	<polygon fill="#F7931E" points="179,11.4 179.2,11.9 179.6,11.6 	"/>
	<path fill="#F7931E" d="M185.7,27.3l0.2-2C185.9,25.3,185.4,26.2,185.7,27.3z"/>
	<path fill="#FBB03B" d="M187.1,20.8c0,0-1,0.4-1.4-0.5c-0.4-0.9-4.3-0.4-4.6,0.9c-0.3,1.4,2,0.1,2,0.1l2.1,1.3l1.5,0.1L187.1,20.8z
		"/>
	<path fill="#F7931E" d="M182.7,21.1c0,0,2-0.3,2.9,1C185.6,22.2,184.3,21.3,182.7,21.1z"/>
	<path fill="#F7931E" d="M180.8,23.8c0,0,1-0.4,1-1.2c0-0.8,0.1-1.5,0.1-1.5s-0.5,0.6-0.4,1.4S180.8,23.8,180.8,23.8z"/>
	<path fill="#F7931E" d="M184.3,20.7c0.2,0,0.9-0.5,1.3,0c0.5,0.5-1.1,0-1.1,0"/>
	<path fill="#F7931E" d="M185.3,26.4c0,0-1.4,0.3-1.7-0.2c-0.3-0.5-1.8-0.3-1.8-0.3s1.3-0.4,2.1,0.1S185.3,26.4,185.3,26.4z"/>
	
		<ellipse transform="matrix(0.1704 -0.9854 0.9854 0.1704 120.3712 184.866)" fill="#B36400" cx="170" cy="20.9" rx="10.2" ry="2.9"/>
	<path fill="#F7931E" d="M172.4,26.5l0.3-0.9l6.6,1C179.2,26.6,172.9,25.7,172.4,26.5z"/>
	<path fill="#F7931E" d="M174.4,18.9l6.1,0.8c0,0-5.7-0.8-6.1-1.6L174.4,18.9z"/>
	
		<rect x="211.8" y="28.4" transform="matrix(0.1704 -0.9854 0.9854 0.1704 153.7732 243.8599)" fill="#333333" width="19.8" height="4.4"/>
	
		<rect x="222.7" y="17.5" transform="matrix(0.1704 -0.9854 0.9854 0.1704 164.8541 262.8319)" fill="#333333" width="31.7" height="32.1"/>
	
		<rect x="225.8" y="19.9" transform="matrix(0.1704 -0.9854 0.9854 0.1704 165.066 262.5314)" fill="#FBB03B" width="25.3" height="26.7"/>
	<g>
		<path fill="#333333" d="M229.3,40.5l0.4,0.1c0.5,0.1,0.8,0.4,0.7,0.9c-0.1,0.5-0.4,0.7-1,0.6l-1.7-0.3c-0.5-0.1-0.8-0.4-0.7-0.9
			c0.1-0.5,0.4-0.7,1-0.6l0.3,0.1l-0.1,0.5l-0.3-0.1c-0.2,0-0.3,0-0.4,0.2c0,0.2,0,0.3,0.3,0.3l1.8,0.3c0.2,0,0.3,0,0.4-0.2
			c0-0.2,0-0.3-0.3-0.3l-0.5-0.1L229.3,40.5z"/>
		<path fill="#333333" d="M228,40c-0.5-0.1-0.8-0.4-0.7-0.9c0.1-0.5,0.4-0.7,1-0.6l1.7,0.3c0.5,0.1,0.8,0.4,0.7,0.9
			c-0.1,0.5-0.4,0.7-1,0.6L228,40z M229.9,39.8c0.2,0,0.3,0,0.4-0.2c0-0.2,0-0.3-0.3-0.3l-1.8-0.3c-0.2,0-0.3,0-0.4,0.2
			c0,0.2,0,0.3,0.3,0.3L229.9,39.8z"/>
		<path fill="#333333" d="M228.7,36.6l0.4,0.1c0.5,0.1,0.8,0.4,0.7,0.9l0,0.2l1.2,0.2l-0.1,0.5l-3.3-0.6l0.1-0.8
			C227.8,36.7,228.1,36.5,228.7,36.6z M228.1,37.6l1.1,0.2l0-0.2c0-0.2,0-0.3-0.3-0.3l-0.5-0.1c-0.2,0-0.3,0-0.4,0.2L228.1,37.6z"/>
		<path fill="#333333" d="M231.4,35.2l-0.1,0.5l-0.6,0l-0.1,0.6l0.6,0.2l-0.1,0.5l-3.2-1.1l0.1-0.7L231.4,35.2z M230.2,36.2l0.1-0.5
			l-1.7,0L230.2,36.2z"/>
		<path fill="#333333" d="M230.8,33l-2.3-0.7l0.1-0.7l3.3,0.6l-0.1,0.5l-2.3-0.4l2.3,0.8l-0.1,0.5l-2.4,0l2.3,0.4l-0.1,0.4l-3.3-0.6
			l0.1-0.7L230.8,33z"/>
		<path fill="#333333" d="M228.9,30.6l2.5,0.4c0.2,0,0.3,0,0.4-0.2c0-0.2,0-0.3-0.3-0.3l-2.5-0.4l0.1-0.5l2.5,0.4
			c0.5,0.1,0.8,0.4,0.7,0.9c-0.1,0.5-0.4,0.7-1,0.6l-2.5-0.4L228.9,30.6z"/>
		<path fill="#333333" d="M230.1,29l2.4,0.4l-0.1,0.5l-3.3-0.6l0.1-0.6l2-0.2l-2-0.3l0.1-0.5l3.3,0.6l-0.1,0.5L230.1,29z"/>
		<path fill="#333333" d="M229.4,27.3l0.1-0.8c0.1-0.5,0.4-0.7,0.9-0.6l1.6,0.3c0.5,0.1,0.8,0.4,0.7,0.9l-0.1,0.8L229.4,27.3z
			 M230,26.9l2.3,0.4l0-0.3c0-0.2,0-0.3-0.3-0.3l-1.7-0.3c-0.2,0-0.3,0-0.4,0.2L230,26.9z"/>
		<path fill="#333333" d="M229.8,25.4l0.1-0.5l3.3,0.6L233,26L229.8,25.4z"/>
		<path fill="#333333" d="M233.5,23.4l-0.1,0.5l-0.6,0l-0.1,0.6l0.6,0.2l-0.1,0.5l-3.2-1.1l0.1-0.7L233.5,23.4z M232.2,24.4l0.1-0.5
			l-1.7,0L232.2,24.4z"/>
		<path fill="#333333" d="M230.2,22.6l0.1-0.5l2.8,0.5l0.1-0.8l0.5,0.1l-0.2,1.4L230.2,22.6z"/>
	</g>
	<g>
		<path fill="#333333" d="M233.4,34.1l0.1-0.9c0.1-0.5,0.4-0.8,1-0.7l1.7,0.3c0.6,0.1,0.8,0.4,0.7,1l-0.1,0.9L233.4,34.1z M234,33.7
			l2.5,0.4l0.1-0.3c0-0.2,0-0.3-0.3-0.3l-1.8-0.3c-0.2,0-0.4,0-0.4,0.2L234,33.7z"/>
		<path fill="#333333" d="M235.3,31.8l0.1-0.7l0.5,0.1l-0.1,0.7l1,0.2l0.2-0.9l0.5,0.1l-0.3,1.5l-3.5-0.6l0.3-1.5l0.5,0.1l-0.2,0.9
			L235.3,31.8z"/>
		<path fill="#333333" d="M240,40.3l0.1-0.7l0.5,0.1l-0.1,0.7l1.4,0.2l-0.1,0.5l-3.5-0.6l0.2-1.4l0.5,0.1l-0.2,0.9L240,40.3z"/>
		<path fill="#333333" d="M239.5,39.1c-0.6-0.1-0.8-0.4-0.7-1c0.1-0.5,0.5-0.8,1-0.7l1.8,0.3c0.6,0.1,0.8,0.4,0.7,1
			c-0.1,0.5-0.5,0.8-1,0.7L239.5,39.1z M241.4,38.9c0.2,0,0.4,0,0.4-0.2c0-0.2,0-0.3-0.3-0.3l-1.9-0.3c-0.2,0-0.4,0-0.4,0.2
			c0,0.2,0,0.3,0.3,0.3L241.4,38.9z"/>
		<path fill="#333333" d="M239.8,37.2c-0.6-0.1-0.8-0.4-0.7-1c0.1-0.5,0.5-0.8,1-0.7l1.8,0.3c0.6,0.1,0.8,0.4,0.7,1
			c-0.1,0.5-0.5,0.8-1,0.7L239.8,37.2z M241.7,36.9c0.2,0,0.4,0,0.4-0.2c0-0.2,0-0.3-0.3-0.3L240,36c-0.2,0-0.4,0-0.4,0.2
			c0,0.2,0,0.3,0.3,0.3L241.7,36.9z"/>
		<path fill="#333333" d="M239.3,35.2l0.3-1.7l0.5,0.1l-0.1,0.6l3,0.5l-0.1,0.5l-3-0.5l-0.1,0.6L239.3,35.2z"/>
		<path fill="#333333" d="M240.7,31.8l0.1,0c0.4,0.1,0.6,0.2,0.6,0.5c0.2-0.3,0.4-0.3,0.8-0.3l0.3,0c0.5,0.1,0.8,0.4,0.7,1l-0.1,0.9
			l-3.5-0.6l0.1-0.8C239.9,31.9,240.2,31.7,240.7,31.8z M240.2,32.8l0.9,0.2l0-0.2c0-0.2,0-0.3-0.3-0.4l-0.2,0c-0.2,0-0.4,0-0.4,0.2
			L240.2,32.8z M241.6,33l1.1,0.2l0.1-0.3c0-0.2,0-0.3-0.3-0.3l-0.3-0.1c-0.3-0.1-0.4,0-0.5,0.3L241.6,33z"/>
		<path fill="#333333" d="M243.7,30.1l-0.1,0.5l-0.6,0l-0.1,0.7l0.6,0.2l-0.1,0.5l-3.4-1.1l0.1-0.8L243.7,30.1z M242.4,31.1l0.1-0.5
			l-1.8,0L242.4,31.1z"/>
		<path fill="#333333" d="M240.3,29.2l0.1-0.5l3,0.5l0.2-0.9l0.5,0.1l-0.2,1.4L240.3,29.2z"/>
		<path fill="#333333" d="M240.6,27.6l0.1-0.5l3,0.5l0.2-0.9l0.5,0.1l-0.2,1.4L240.6,27.6z"/>
		<path fill="#333333" d="M247.8,41.8l-0.1,0.5l-0.6,0l-0.1,0.7l0.6,0.2l-0.1,0.5l-3.4-1.1l0.1-0.8L247.8,41.8z M246.5,42.9l0.1-0.5
			l-1.8,0L246.5,42.9z"/>
		<path fill="#333333" d="M244.5,40.2c0.1-0.5,0.5-0.7,1-0.6l0.1,0l-0.1,0.5l-0.1,0c-0.2,0-0.4,0-0.4,0.2c0,0.2,0,0.3,0.3,0.3
			c0.7,0.1,1-0.9,2-0.7c0.6,0.1,0.8,0.4,0.7,1c-0.1,0.5-0.5,0.8-1,0.7l-0.2,0l0.1-0.5l0.2,0c0.2,0,0.4-0.1,0.4-0.2
			c0-0.2,0-0.3-0.3-0.3c-0.7-0.1-1,0.9-2,0.7C244.7,41.1,244.4,40.8,244.5,40.2z"/>
		<path fill="#333333" d="M245.5,39.3c-0.6-0.1-0.8-0.4-0.7-1c0.1-0.5,0.5-0.8,1-0.7l1.8,0.3c0.6,0.1,0.8,0.4,0.7,1
			c-0.1,0.5-0.5,0.8-1,0.7L245.5,39.3z M247.5,39.1c0.2,0,0.4,0,0.4-0.2c0-0.2,0-0.3-0.3-0.3l-1.9-0.3c-0.2,0-0.4,0-0.4,0.2
			c0,0.2,0,0.3,0.3,0.3L247.5,39.1z"/>
		<path fill="#333333" d="M247.5,36l0.5,0.1c0.6,0.1,0.8,0.4,0.7,1c-0.1,0.5-0.5,0.8-1,0.7l-1.8-0.3c-0.6-0.1-0.8-0.4-0.7-1
			c0.1-0.5,0.5-0.8,1-0.7l0.3,0.1l-0.1,0.5l-0.4-0.1c-0.2,0-0.4,0-0.4,0.2c0,0.2,0,0.3,0.3,0.3l1.9,0.3c0.2,0,0.4-0.1,0.4-0.2
			c0-0.2,0-0.3-0.3-0.3l-0.5-0.1L247.5,36z"/>
		<path fill="#333333" d="M245.4,35.3l0.1-0.5l3.5,0.6l-0.1,0.5L245.4,35.3z"/>
		<path fill="#333333" d="M249.3,33.2l-0.1,0.5l-0.6,0l-0.1,0.7l0.6,0.2l-0.1,0.5l-3.4-1.1l0.1-0.8L249.3,33.2z M248,34.2l0.1-0.5
			l-1.8,0L248,34.2z"/>
		<path fill="#333333" d="M245.9,32.5l0.3-1.7l0.5,0.1l-0.1,0.6l3,0.5l-0.1,0.5l-3-0.5l-0.1,0.6L245.9,32.5z"/>
		<path fill="#333333" d="M246.2,30.6l0.1-0.5l3.5,0.6l-0.1,0.5L246.2,30.6z"/>
		<path fill="#333333" d="M247.2,29.8c-0.6-0.1-0.8-0.4-0.7-1c0.1-0.5,0.5-0.8,1-0.7l1.8,0.3c0.6,0.1,0.8,0.4,0.7,1
			c-0.1,0.5-0.5,0.8-1,0.7L247.2,29.8z M249.1,29.6c0.2,0,0.4,0,0.4-0.2c0-0.2,0-0.3-0.3-0.3l-1.9-0.3c-0.2,0-0.4,0-0.4,0.2
			c0,0.2,0,0.3,0.3,0.3L249.1,29.6z"/>
		<path fill="#333333" d="M247.7,27.4l2.5,0.4l-0.1,0.5l-3.5-0.6l0.1-0.7l2.2-0.2l-2.1-0.4L247,26l3.5,0.6l-0.1,0.6L247.7,27.4z"/>
	</g>
</g>
<path fill="#333333" d="M183.8,373.7l-41.2,50.2c0,0-18.2,4.3-16.5-12.2l25.6-48.9C151.7,362.8,166.3,381.8,183.8,373.7z"/>
<path fill="#FCFCFC" d="M151.7,362.8l-2.6,5.5c0,0,6.8,13.7,29,12.8l5.8-7.3C183.8,373.7,165.6,377.8,151.7,362.8z"/>
</svg>
