<?xml version="1.0" encoding="utf-8"?>
<!-- Generator: Adobe Illustrator 18.1.1, SVG Export Plug-In . SVG Version: 6.00 Build 0)  -->
<svg version="1.1" id="Layer_1" xmlns="http://www.w3.org/2000/svg" xmlns:xlink="http://www.w3.org/1999/xlink" x="0px" y="0px"
	 viewBox="0 0 830.5 217.4" enable-background="new 0 0 830.5 217.4" xml:space="preserve">
<g>
	<rect x="25.4" y="116.4" fill="#998473" width="782.4" height="5.4"/>
	<rect x="24.4" y="121.9" fill="#423222" width="782.4" height="5.4"/>
	<rect x="25.4" y="105.5" fill="#998473" width="782.4" height="5.4"/>
	<rect x="24.4" y="111" fill="#423222" width="782.4" height="5.4"/>
	<rect x="25.4" y="94.7" fill="#998473" width="782.4" height="5.4"/>
	<rect x="24.4" y="100.1" fill="#423222" width="782.4" height="5.4"/>
	<rect x="25.4" y="83.8" fill="#998473" width="782.4" height="5.4"/>
	<rect x="24.4" y="89.2" fill="#423222" width="782.4" height="5.4"/>
	<rect x="25.4" y="72.9" fill="#998473" width="782.4" height="5.4"/>
	<rect x="24.4" y="78.3" fill="#423222" width="782.4" height="5.4"/>
	<rect x="25.4" y="62" fill="#998473" width="782.4" height="5.4"/>
	<rect x="24.4" y="67.5" fill="#423222" width="782.4" height="5.4"/>
	<rect x="25.4" y="51.2" fill="#998473" width="782.4" height="5.4"/>
	<rect x="24.4" y="56.6" fill="#423222" width="782.4" height="5.4"/>
	<rect x="25.4" y="40.3" fill="#998473" width="782.4" height="5.4"/>
	<rect x="24.4" y="45.7" fill="#423222" width="782.4" height="5.4"/>
	<rect x="25.4" y="29.4" fill="#998473" width="782.4" height="5.4"/>
	<rect x="24.4" y="34.8" fill="#423222" width="782.4" height="5.4"/>
	<rect x="28" y="132.2" fill="#4FABFD" width="778.5" height="60.2"/>
	<rect x="28" y="191.4" fill="#958A8E" width="778.5" height="25.4"/>
	<rect x="366.2" y="167.2" fill="#7A7770" width="8.6" height="49.4"/>
	<rect x="326" y="167.2" fill="#7A7770" width="8.6" height="49.4"/>
	<rect x="285.8" y="167.2" fill="#7A7770" width="8.6" height="49.4"/>
	<rect x="245.7" y="167.2" fill="#7A7770" width="8.6" height="49.4"/>
	<rect x="205.5" y="167.2" fill="#7A7770" width="8.6" height="49.4"/>
	<rect x="165.3" y="167.2" fill="#7A7770" width="8.6" height="49.4"/>
	<rect x="125.1" y="167.2" fill="#7A7770" width="8.6" height="49.4"/>
	<rect x="85" y="167.2" fill="#7A7770" width="8.6" height="49.4"/>
	<rect x="44.8" y="167.2" fill="#7A7770" width="8.6" height="49.4"/>
	<rect x="407" y="167.2" fill="#7A7770" width="8.6" height="49.4"/>
	<rect x="447.9" y="167.2" fill="#7A7770" width="8.6" height="49.4"/>
	<rect x="488.7" y="167.2" fill="#7A7770" width="8.6" height="49.4"/>
	<rect x="529.5" y="167.2" fill="#7A7770" width="8.6" height="49.4"/>
	<rect x="570.4" y="167.2" fill="#7A7770" width="8.6" height="49.4"/>
	<rect x="611.2" y="167.2" fill="#7A7770" width="8.6" height="49.4"/>
	<rect x="652" y="167.2" fill="#7A7770" width="8.6" height="49.4"/>
	<rect x="692.9" y="167.2" fill="#7A7770" width="8.6" height="49.4"/>
	<rect x="733.7" y="167.2" fill="#7A7770" width="8.6" height="49.4"/>
	<rect x="774.5" y="167.2" fill="#7A7770" width="8.6" height="49.4"/>
	<rect x="24.5" y="149" fill="#9A7F61" width="784.4" height="7.9"/>
	<rect x="24.5" y="156.4" fill="#B3B3B3" width="784.4" height="3.4"/>
	<rect x="24.5" y="189.8" fill="#B3B3B3" width="784.4" height="3.4"/>
	<rect x="24.5" y="127.9" fill="#9A7F61" width="784.4" height="7.9"/>
	<polygon fill="#6B6857" points="407,166.6 415.6,166.6 414.3,140.6 409,140.6 	"/>
	<polygon fill="#6B6857" points="366.2,166.6 374.7,166.6 373.4,140.6 368.2,140.6 	"/>
	<polygon fill="#6B6857" points="326,166.6 334.6,166.6 333.3,141.6 328,141.6 	"/>
	<polygon fill="#6B6857" points="285.8,166.6 294.4,166.6 293.1,140.6 287.8,140.6 	"/>
	<polygon fill="#6B6857" points="245.7,166.6 254.2,166.6 252.9,140.6 247.6,140.6 	"/>
	<polygon fill="#6B6857" points="205.5,166.6 214,166.6 212.7,140.6 207.5,140.6 	"/>
	<polygon fill="#6B6857" points="165.3,166.6 173.9,166.6 172.6,140.6 167.3,140.6 	"/>
	<polygon fill="#6B6857" points="125.1,166.6 133.7,166.6 132.4,140.6 127.1,140.6 	"/>
	<polygon fill="#6B6857" points="85,166.6 93.5,166.6 92.2,140.6 86.9,140.6 	"/>
	<polygon fill="#6B6857" points="44.5,166.6 53,166.6 51.7,140.6 46.4,140.6 	"/>
	<polygon fill="#6B6857" points="447.9,166.6 456.4,166.6 455.1,140.6 449.8,140.6 	"/>
	<polygon fill="#6B6857" points="488.7,166.6 497.2,166.6 495.9,140.6 490.7,140.6 	"/>
	<polygon fill="#6B6857" points="529.5,166.6 538.1,166.6 536.8,140.6 531.5,140.6 	"/>
	<polygon fill="#6B6857" points="570.4,166.6 578.9,166.6 577.6,140.6 572.3,140.6 	"/>
	<polygon fill="#6B6857" points="611.2,166.6 619.7,166.6 618.4,140.6 613.2,140.6 	"/>
	<polygon fill="#6B6857" points="652,166.6 660.6,166.6 659.3,140.6 654,140.6 	"/>
	<polygon fill="#6B6857" points="692.9,166.6 701.4,166.6 700.1,140.6 694.8,140.6 	"/>
	<polygon fill="#6B6857" points="733.7,166.6 742.2,166.6 740.9,140.6 735.7,140.6 	"/>
	<polygon fill="#6B6857" points="774.5,166.6 783.1,166.6 781.8,140.6 776.5,140.6 	"/>
	<rect x="409" y="6.3" fill="#958A8E" width="5" height="133.9"/>
	<rect x="450" y="6.3" fill="#958A8E" width="5" height="133.9"/>
	<rect x="333.3" y="94.5" fill="#B3A9A8" width="35.7" height="49.6"/>
	<rect x="252.4" y="94.8" fill="#B3A9A8" width="35.4" height="49.6"/>
	<rect x="172.3" y="94.8" fill="#B3A9A8" width="35.9" height="49.6"/>
	<rect x="91.6" y="93.8" fill="#B3A9A8" width="35.8" height="49.6"/>
	<rect x="495.9" y="94.8" fill="#B3A9A8" width="36.9" height="49.6"/>
	<rect x="576.4" y="94.8" fill="#B3A9A8" width="36.5" height="49.6"/>
	<rect x="658.9" y="94.8" fill="#B3A9A8" width="36.1" height="49.6"/>
	<rect x="740.9" y="94.8" fill="#B3A9A8" width="35.6" height="49.6"/>
	<rect x="373.2" y="52.9" fill="#808080" width="117.3" height="69.3"/>
	<path fill="#808080" d="M830.5,29.4H0l0-0.9C0,17.3,9.1,8.2,20.3,8.2h789.9c11.2,0,20.3,9.1,20.3,20.3V29.4z"/>
	<rect x="328" y="6.7" fill="#958A8E" width="5" height="133.9"/>
	<rect x="287.8" y="6.3" fill="#958A8E" width="5" height="133.9"/>
	<rect x="247.8" y="6.3" fill="#958A8E" width="5" height="133.9"/>
	<rect x="207.6" y="6.4" fill="#958A8E" width="5" height="133.9"/>
	<rect x="167.3" y="6.2" fill="#958A8E" width="5" height="133.9"/>
	<rect x="127.1" y="6.4" fill="#958A8E" width="5" height="133.9"/>
	<rect x="87.1" y="6.4" fill="#958A8E" width="5" height="133.9"/>
	<rect x="46.7" y="6.3" fill="#958A8E" width="5" height="133.9"/>
	<rect x="368.2" y="6.2" fill="#958A8E" width="5" height="133.9"/>
	<rect x="490.8" y="6.5" fill="#958A8E" width="5" height="133.9"/>
	<rect x="531.6" y="6.5" fill="#958A8E" width="5" height="133.9"/>
	<rect x="572.4" y="6.5" fill="#958A8E" width="5" height="133.9"/>
	<rect x="613.3" y="6.7" fill="#958A8E" width="5" height="133.9"/>
	<rect x="654.1" y="6.6" fill="#958A8E" width="5" height="133.9"/>
	<rect x="694.9" y="6.6" fill="#958A8E" width="5" height="133.9"/>
	<rect x="736" y="6.7" fill="#958A8E" width="5" height="133.9"/>
	<rect x="776.7" y="6.7" fill="#958A8E" width="5" height="133.9"/>
</g>
<g>
	<path fill="#E3DEE5" d="M305.6,25.4V14.5h7.3v2.2h-4.8v2.1h4.5v2.1h-4.5v2.3h5.1v2.3H305.6z"/>
	<path fill="#E3DEE5" d="M320.8,17.3c-0.2-0.3-0.5-0.5-0.9-0.7c-0.4-0.2-0.7-0.3-1.1-0.3c-0.2,0-0.4,0-0.5,0s-0.3,0.1-0.5,0.2
		c-0.1,0.1-0.3,0.2-0.4,0.3c-0.1,0.1-0.1,0.3-0.1,0.5c0,0.2,0,0.3,0.1,0.5c0.1,0.1,0.2,0.2,0.3,0.3c0.1,0.1,0.3,0.2,0.5,0.3
		c0.2,0.1,0.4,0.2,0.7,0.2c0.4,0.1,0.8,0.3,1.2,0.4c0.4,0.1,0.8,0.3,1.1,0.6c0.3,0.2,0.6,0.6,0.8,0.9c0.2,0.4,0.3,0.8,0.3,1.4
		c0,0.6-0.1,1.2-0.3,1.6c-0.2,0.5-0.5,0.8-0.9,1.1c-0.4,0.3-0.8,0.5-1.3,0.7c-0.5,0.1-1,0.2-1.6,0.2c-0.8,0-1.5-0.1-2.3-0.4
		s-1.3-0.7-1.8-1.2l1.7-1.8c0.3,0.3,0.6,0.6,1.1,0.8c0.4,0.2,0.9,0.3,1.3,0.3c0.2,0,0.4,0,0.6-0.1c0.2,0,0.3-0.1,0.5-0.2
		c0.1-0.1,0.2-0.2,0.3-0.4c0.1-0.2,0.1-0.3,0.1-0.6c0-0.2-0.1-0.4-0.2-0.5c-0.1-0.1-0.2-0.3-0.4-0.4c-0.2-0.1-0.4-0.2-0.7-0.3
		c-0.3-0.1-0.6-0.2-1-0.3c-0.3-0.1-0.7-0.2-1-0.4c-0.3-0.2-0.6-0.4-0.9-0.6c-0.3-0.2-0.5-0.5-0.6-0.9c-0.2-0.3-0.2-0.8-0.2-1.3
		c0-0.6,0.1-1.1,0.4-1.6c0.2-0.4,0.6-0.8,1-1.1c0.4-0.3,0.9-0.5,1.4-0.6c0.5-0.1,1-0.2,1.5-0.2c0.6,0,1.2,0.1,1.9,0.3
		c0.6,0.2,1.2,0.6,1.7,1L320.8,17.3z"/>
	<path fill="#E3DEE5" d="M328.6,16.7v8.7h-2.6v-8.7h-3.1v-2.3h8.8v2.3H328.6z"/>
	<path fill="#E3DEE5" d="M339.3,25.4l-0.8-2.1h-4.2l-0.8,2.1h-2.9l4.6-10.9h2.6l4.5,10.9H339.3z M336.4,17.4l-1.4,3.7h2.7
		L336.4,17.4z"/>
	<path fill="#E3DEE5" d="M353.4,19.9c0,1-0.2,1.8-0.5,2.5c-0.4,0.7-0.8,1.3-1.4,1.7c-0.6,0.4-1.2,0.8-2,1c-0.7,0.2-1.5,0.3-2.2,0.3
		h-4.1V14.5h3.9c0.8,0,1.5,0.1,2.3,0.3c0.8,0.2,1.4,0.5,2,0.9c0.6,0.4,1.1,1,1.4,1.7C353.2,18,353.4,18.9,353.4,19.9z M350.6,19.9
		c0-0.6-0.1-1.1-0.3-1.5c-0.2-0.4-0.5-0.7-0.8-1c-0.3-0.2-0.7-0.4-1.1-0.5c-0.4-0.1-0.9-0.2-1.3-0.2h-1.3v6.4h1.2
		c0.5,0,0.9-0.1,1.4-0.2c0.4-0.1,0.8-0.3,1.2-0.5c0.3-0.2,0.6-0.6,0.8-1C350.5,21,350.6,20.5,350.6,19.9z"/>
	<path fill="#E3DEE5" d="M355.1,25.4V14.5h2.7v10.9H355.1z"/>
	<path fill="#E3DEE5" d="M371.4,19.9c0,0.9-0.1,1.7-0.4,2.4c-0.3,0.7-0.7,1.3-1.2,1.8c-0.5,0.5-1.2,0.9-1.9,1.2
		c-0.7,0.3-1.5,0.4-2.4,0.4s-1.6-0.1-2.4-0.4c-0.7-0.3-1.4-0.7-1.9-1.2c-0.5-0.5-0.9-1.1-1.2-1.8c-0.3-0.7-0.4-1.5-0.4-2.4
		c0-0.9,0.1-1.7,0.4-2.4c0.3-0.7,0.7-1.3,1.2-1.8c0.5-0.5,1.2-0.9,1.9-1.1c0.7-0.3,1.5-0.4,2.4-0.4s1.6,0.1,2.4,0.4
		c0.7,0.3,1.4,0.6,1.9,1.1c0.5,0.5,0.9,1.1,1.2,1.8C371.2,18.2,371.4,19,371.4,19.9z M368.6,19.9c0-0.5-0.1-0.9-0.2-1.3
		c-0.2-0.4-0.4-0.8-0.6-1.1c-0.3-0.3-0.6-0.5-1-0.7s-0.8-0.3-1.3-0.3s-0.9,0.1-1.3,0.3s-0.7,0.4-1,0.7c-0.3,0.3-0.5,0.6-0.6,1.1
		c-0.1,0.4-0.2,0.9-0.2,1.3c0,0.5,0.1,0.9,0.2,1.4c0.2,0.4,0.4,0.8,0.6,1.1c0.3,0.3,0.6,0.5,1,0.7s0.8,0.3,1.3,0.3s0.9-0.1,1.3-0.3
		s0.7-0.4,1-0.7c0.3-0.3,0.5-0.7,0.6-1.1C368.5,20.8,368.6,20.4,368.6,19.9z"/>
	<path fill="#E3DEE5" d="M382.8,17.3c-0.2-0.3-0.5-0.5-0.9-0.7c-0.4-0.2-0.7-0.3-1.1-0.3c-0.2,0-0.4,0-0.5,0s-0.3,0.1-0.5,0.2
		c-0.1,0.1-0.3,0.2-0.4,0.3c-0.1,0.1-0.1,0.3-0.1,0.5c0,0.2,0,0.3,0.1,0.5c0.1,0.1,0.2,0.2,0.3,0.3c0.1,0.1,0.3,0.2,0.5,0.3
		c0.2,0.1,0.4,0.2,0.7,0.2c0.4,0.1,0.8,0.3,1.2,0.4c0.4,0.1,0.8,0.3,1.1,0.6c0.3,0.2,0.6,0.6,0.8,0.9c0.2,0.4,0.3,0.8,0.3,1.4
		c0,0.6-0.1,1.2-0.3,1.6c-0.2,0.5-0.5,0.8-0.9,1.1c-0.4,0.3-0.8,0.5-1.3,0.7c-0.5,0.1-1,0.2-1.6,0.2c-0.8,0-1.5-0.1-2.3-0.4
		s-1.3-0.7-1.8-1.2l1.7-1.8c0.3,0.3,0.6,0.6,1.1,0.8c0.4,0.2,0.9,0.3,1.3,0.3c0.2,0,0.4,0,0.6-0.1c0.2,0,0.3-0.1,0.5-0.2
		c0.1-0.1,0.2-0.2,0.3-0.4s0.1-0.3,0.1-0.6c0-0.2-0.1-0.4-0.2-0.5c-0.1-0.1-0.2-0.3-0.4-0.4c-0.2-0.1-0.4-0.2-0.7-0.3
		c-0.3-0.1-0.6-0.2-1-0.3c-0.3-0.1-0.7-0.2-1-0.4c-0.3-0.2-0.6-0.4-0.9-0.6c-0.3-0.2-0.5-0.5-0.6-0.9c-0.2-0.3-0.2-0.8-0.2-1.3
		c0-0.6,0.1-1.1,0.4-1.6c0.2-0.4,0.6-0.8,1-1.1c0.4-0.3,0.9-0.5,1.4-0.6c0.5-0.1,1-0.2,1.5-0.2c0.6,0,1.2,0.1,1.9,0.3
		c0.6,0.2,1.2,0.6,1.7,1L382.8,17.3z"/>
	<path fill="#E3DEE5" d="M393.5,25.4l-0.8-2.1h-4.2l-0.8,2.1h-2.9l4.6-10.9h2.6l4.5,10.9H393.5z M390.6,17.4l-1.4,3.7h2.7
		L390.6,17.4z"/>
	<path fill="#E3DEE5" d="M404.3,25.4l-4.4-7.1h0l0.1,7.1h-2.6V14.5h3l4.4,7.1h0l-0.1-7.1h2.6v10.9H404.3z"/>
	<path fill="#E3DEE5" d="M414.2,16.7v8.7h-2.6v-8.7h-3.1v-2.3h8.8v2.3H414.2z"/>
	<path fill="#E3DEE5" d="M418.5,25.4V14.5h2.7v10.9H418.5z"/>
	<path fill="#E3DEE5" d="M430.8,25.4l-0.8-2.1h-4.2l-0.8,2.1H422l4.6-10.9h2.6l4.5,10.9H430.8z M427.8,17.4l-1.4,3.7h2.7L427.8,17.4
		z"/>
	<path fill="#E3DEE5" d="M442.2,25.4c-0.7,0.2-1.5,0.3-2.3,0.3c-0.9,0-1.7-0.1-2.4-0.4c-0.7-0.3-1.4-0.7-1.9-1.2
		c-0.5-0.5-0.9-1.1-1.2-1.8c-0.3-0.7-0.4-1.5-0.4-2.4c0-0.9,0.2-1.7,0.5-2.4c0.3-0.7,0.7-1.3,1.3-1.8c0.5-0.5,1.2-0.9,1.9-1.1
		c0.7-0.3,1.5-0.4,2.3-0.4c0.9,0,1.7,0.1,2.4,0.4c0.7,0.3,1.3,0.6,1.8,1.1l-1.7,1.9c-0.3-0.3-0.6-0.5-1-0.7
		c-0.4-0.2-0.9-0.3-1.4-0.3c-0.5,0-0.9,0.1-1.3,0.3c-0.4,0.2-0.7,0.4-1,0.7c-0.3,0.3-0.5,0.7-0.7,1.1c-0.2,0.4-0.2,0.9-0.2,1.4
		c0,0.5,0.1,1,0.2,1.4c0.1,0.4,0.4,0.8,0.6,1.1c0.3,0.3,0.6,0.5,1,0.7c0.4,0.2,0.9,0.3,1.4,0.3c0.3,0,0.6,0,0.9-0.1
		c0.3,0,0.5-0.1,0.8-0.2v-2h-2.1V19h4.5v5.8C443.5,25,442.9,25.2,442.2,25.4z"/>
	<path fill="#E3DEE5" d="M457.6,19.9c0,0.9-0.1,1.7-0.4,2.4c-0.3,0.7-0.7,1.3-1.2,1.8c-0.5,0.5-1.2,0.9-1.9,1.2
		c-0.7,0.3-1.5,0.4-2.4,0.4c-0.9,0-1.6-0.1-2.4-0.4c-0.7-0.3-1.4-0.7-1.9-1.2c-0.5-0.5-0.9-1.1-1.2-1.8c-0.3-0.7-0.4-1.5-0.4-2.4
		c0-0.9,0.1-1.7,0.4-2.4c0.3-0.7,0.7-1.3,1.2-1.8c0.5-0.5,1.2-0.9,1.9-1.1c0.7-0.3,1.5-0.4,2.4-0.4c0.9,0,1.6,0.1,2.4,0.4
		c0.7,0.3,1.4,0.6,1.9,1.1c0.5,0.5,0.9,1.1,1.2,1.8C457.4,18.2,457.6,19,457.6,19.9z M454.7,19.9c0-0.5-0.1-0.9-0.2-1.3
		c-0.2-0.4-0.4-0.8-0.6-1.1c-0.3-0.3-0.6-0.5-1-0.7c-0.4-0.2-0.8-0.3-1.3-0.3s-0.9,0.1-1.3,0.3c-0.4,0.2-0.7,0.4-1,0.7
		c-0.3,0.3-0.5,0.6-0.6,1.1c-0.1,0.4-0.2,0.9-0.2,1.3c0,0.5,0.1,0.9,0.2,1.4c0.2,0.4,0.4,0.8,0.6,1.1c0.3,0.3,0.6,0.5,1,0.7
		c0.4,0.2,0.8,0.3,1.3,0.3s0.9-0.1,1.3-0.3c0.4-0.2,0.7-0.4,1-0.7c0.3-0.3,0.5-0.7,0.6-1.1C454.7,20.8,454.7,20.4,454.7,19.9z"/>
	<path fill="#E3DEE5" d="M471.7,22.2c0,0.6-0.1,1.1-0.4,1.5c-0.2,0.4-0.5,0.7-0.9,1c-0.4,0.2-0.8,0.4-1.3,0.5
		c-0.5,0.1-1,0.2-1.5,0.2h-4.3V14.5h4.3c0.4,0,0.9,0,1.3,0.1c0.4,0.1,0.8,0.2,1.2,0.4c0.4,0.2,0.7,0.5,0.9,0.9
		c0.2,0.4,0.3,0.8,0.3,1.4c0,0.6-0.2,1.1-0.5,1.5c-0.3,0.4-0.8,0.7-1.3,0.9v0c0.3,0.1,0.6,0.1,0.9,0.3c0.3,0.1,0.5,0.3,0.7,0.5
		c0.2,0.2,0.4,0.5,0.5,0.8C471.6,21.5,471.7,21.9,471.7,22.2z M468.7,17.6c0-0.4-0.1-0.6-0.4-0.8c-0.3-0.2-0.7-0.3-1.3-0.3h-1.3v2.3
		h1.4c0.5,0,0.9-0.1,1.1-0.3C468.5,18.3,468.7,18,468.7,17.6z M469,22c0-0.5-0.2-0.8-0.5-0.9c-0.3-0.2-0.8-0.3-1.4-0.3h-1.5v2.5h1.5
		c0.2,0,0.4,0,0.6-0.1c0.2,0,0.4-0.1,0.6-0.2c0.2-0.1,0.3-0.2,0.4-0.4S469,22.2,469,22z"/>
	<path fill="#E3DEE5" d="M473.4,25.4V14.5h7.3v2.2H476v2.1h4.5v2.1H476v2.3h5.1v2.3H473.4z"/>
	<path fill="#E3DEE5" d="M488.6,25.4l-2.4-4.3h-0.9v4.3h-2.6V14.5h4.2c0.5,0,1,0.1,1.5,0.2c0.5,0.1,0.9,0.3,1.3,0.5
		c0.4,0.3,0.7,0.6,0.9,1c0.2,0.4,0.4,0.9,0.4,1.6c0,0.7-0.2,1.4-0.6,1.9c-0.4,0.5-1,0.9-1.7,1.1l2.9,4.7H488.6z M488.5,17.8
		c0-0.3-0.1-0.5-0.2-0.6c-0.1-0.2-0.2-0.3-0.4-0.4c-0.2-0.1-0.4-0.1-0.6-0.2c-0.2,0-0.4,0-0.6,0h-1.4v2.5h1.3c0.2,0,0.4,0,0.7-0.1
		c0.2,0,0.4-0.1,0.6-0.2c0.2-0.1,0.3-0.2,0.5-0.4C488.4,18.3,488.5,18.1,488.5,17.8z"/>
	<path fill="#E3DEE5" d="M499.9,25.4l-4.4-7.1h0l0.1,7.1H493V14.5h3l4.4,7.1h0l-0.1-7.1h2.6v10.9H499.9z"/>
	<path fill="#E3DEE5" d="M512.6,25.4l-0.8-2.1h-4.2l-0.8,2.1h-2.9l4.6-10.9h2.6l4.5,10.9H512.6z M509.6,17.4l-1.4,3.7h2.7
		L509.6,17.4z"/>
	<path fill="#E3DEE5" d="M524.9,22.2c0,0.6-0.1,1.1-0.4,1.5c-0.2,0.4-0.5,0.7-0.9,1c-0.4,0.2-0.8,0.4-1.3,0.5
		c-0.5,0.1-1,0.2-1.5,0.2h-4.3V14.5h4.3c0.4,0,0.9,0,1.3,0.1c0.4,0.1,0.8,0.2,1.2,0.4c0.4,0.2,0.7,0.5,0.9,0.9
		c0.2,0.4,0.3,0.8,0.3,1.4c0,0.6-0.2,1.1-0.5,1.5c-0.3,0.4-0.8,0.7-1.3,0.9v0c0.3,0.1,0.6,0.1,0.9,0.3c0.3,0.1,0.5,0.3,0.7,0.5
		c0.2,0.2,0.4,0.5,0.5,0.8S524.9,21.9,524.9,22.2z M521.9,17.6c0-0.4-0.1-0.6-0.4-0.8c-0.3-0.2-0.7-0.3-1.3-0.3H519v2.3h1.4
		c0.5,0,0.9-0.1,1.1-0.3C521.8,18.3,521.9,18,521.9,17.6z M522.3,22c0-0.5-0.2-0.8-0.5-0.9c-0.3-0.2-0.8-0.3-1.4-0.3H519v2.5h1.5
		c0.2,0,0.4,0,0.6-0.1s0.4-0.1,0.6-0.2c0.2-0.1,0.3-0.2,0.4-0.4S522.3,22.2,522.3,22z"/>
	<path fill="#E3DEE5" d="M526.7,25.4V14.5h7.3v2.2h-4.8v2.1h4.5v2.1h-4.5v2.3h5.1v2.3H526.7z"/>
	<path fill="#E3DEE5" d="M544.9,23.1c-0.2,0.5-0.5,1-0.9,1.4s-0.9,0.7-1.5,0.9c-0.6,0.2-1.2,0.3-1.9,0.3c-0.7,0-1.4-0.1-1.9-0.3
		c-0.6-0.2-1.1-0.5-1.5-0.9s-0.7-0.8-0.9-1.4s-0.3-1.1-0.3-1.8v-6.8h2.6v6.6c0,0.3,0,0.6,0.1,0.8c0.1,0.3,0.2,0.5,0.4,0.7
		c0.2,0.2,0.4,0.4,0.6,0.5c0.3,0.1,0.6,0.2,0.9,0.2c0.4,0,0.7-0.1,0.9-0.2c0.3-0.1,0.5-0.3,0.6-0.5c0.2-0.2,0.3-0.4,0.4-0.7
		c0.1-0.3,0.1-0.5,0.1-0.8v-6.6h2.6v6.8C545.3,21.9,545.2,22.5,544.9,23.1z"/>
</g>
<g>
	<g>
		<path fill="#666666" d="M437.2,64.8c0.2-0.1,0.4-0.3,0.5-0.6c0.4,0.1,0.8,0.2,1.2,0.3c0.3,0.1,0.6,0.3,0.8,0.5
			c0.2,0.5,0.3,1,0.4,1.7c-0.2,0.1-0.4,0.3-0.5,0.6c-0.1,0.4-0.1,0.7,0.3,1c-0.4,0-0.7-0.3-0.7-0.7c0.1-0.1,0.1-0.2,0.2-0.3
			c0.1-0.4-0.1-0.9-0.6-1c-0.4-0.1-0.9,0.1-1,0.6c0,0,0,0.1,0,0.1c-0.4,0.4-1.1,0.2-1.1-0.4c0.7,0.1,0.9-0.2,1.1-0.7
			c0.1-0.4,0.1-0.8-0.4-1C437.3,65,437.3,64.9,437.2,64.8 M436.1,67.5c-0.3-0.1-0.6-0.2-0.8-0.2c0.2-0.1,0.4-0.3,0.6-0.5
			C435.9,67.1,436,67.3,436.1,67.5 M438.1,67.8c0.1,0,0.1,0.1,0.2,0.1l0,0c0,0.2,0.1,0.3,0.2,0.4c-0.3-0.1-0.6-0.2-0.9-0.4
			C437.8,68,437.9,67.9,438.1,67.8 M430.8,66.2c0.1,0.2,0.2,0.4,0.4,0.6c-0.1,0-0.3,0-0.4,0c-0.1,0-0.3,0-0.4,0
			C430.5,66.6,430.7,66.4,430.8,66.2 M423,68.4c0.1-0.1,0.1-0.3,0.2-0.4l0,0c0.1,0,0.2-0.1,0.2-0.1c0.1,0.1,0.3,0.2,0.4,0.2
			C423.6,68.1,423.3,68.2,423,68.4 M426.3,67.3c-0.3,0.1-0.6,0.1-0.8,0.2c0.2-0.2,0.2-0.4,0.3-0.7C425.9,67,426.1,67.2,426.3,67.3
			 M428.2,66.5c0.1,0,0.1,0,0.2,0c0.1,0.2,0.3,0.3,0.5,0.4c-0.3,0-0.6,0.1-1,0.1C428,66.9,428.1,66.7,428.2,66.5 M433.4,66.5
			c0.1,0.2,0.2,0.4,0.3,0.5c-0.3,0-0.6-0.1-1-0.1c0.2-0.1,0.3-0.2,0.5-0.4C433.3,66.5,433.3,66.5,433.4,66.5"/>
		<path fill="#666666" d="M438.1,70.1l0.5-0.2l0,0.1l0.1,0.4l-0.4,0.2l-0.1,0l0-0.1L438.1,70.1z M423.4,70.1l-0.1,0.4l0,0.2l-0.1,0
			l-0.4-0.2l0.1-0.4l0-0.1l0.1,0L423.4,70.1z M431.9,68.6l-1.1,0.4l-1.1-0.4l1.1-0.4L431.9,68.6z M422.7,64.5
			c0.3-0.1,0.8-0.2,1.2-0.3c0.1,0.3,0.2,0.5,0.5,0.6c0,0.1-0.1,0.2,0,0.3c-0.4,0.2-0.5,0.6-0.4,1c0.1,0.4,0.4,0.8,1.1,0.7
			c0,0.6-0.8,0.8-1.1,0.4c0,0,0-0.1,0-0.1c-0.1-0.4-0.5-0.7-1-0.6c-0.4,0.1-0.7,0.5-0.6,1c0,0.1,0.1,0.2,0.2,0.3
			c0,0.2-0.1,0.5-0.3,0.6c-0.1,0.1-0.2,0.1-0.3,0.1c0.4-0.3,0.4-0.6,0.3-1c-0.1-0.2-0.2-0.5-0.5-0.6c0.1-0.7,0.2-1.2,0.4-1.7
			C422.1,64.8,422.4,64.6,422.7,64.5 M431.4,62.6c1.3-0.2,2.9-0.1,4.2,0.6c0.1,0.3,0.2,0.7,0.2,1.1c-0.1,0.1-0.3,0.2-0.3,0.4
			c-0.5,0-0.7,0.3-0.8,0.7c-0.1,0.4,0,0.9,0.6,1.1c-0.1,0.2-0.4,0.3-0.7,0.3c-0.3-0.1-0.5-0.3-0.5-0.6c0.1-0.1,0.1-0.2,0.1-0.4
			c0-0.4-0.4-0.8-0.8-0.8c-0.4,0-0.8,0.4-0.8,0.8c0,0.1,0,0.1,0,0.2c-0.1,0.2-0.3,0.4-0.6,0.4c-0.3,0-0.5-0.2-0.6-0.4
			c0.7,0,0.9-0.4,0.9-0.9c0-0.4-0.1-0.7-0.6-0.9c-0.1-0.3-0.3-0.5-0.5-0.6c0.2-0.1,0.3-0.3,0.3-0.5
			C431.5,62.9,431.4,62.8,431.4,62.6L431.4,62.6z M426,63.2c1.3-0.7,2.9-0.8,4.2-0.6v0.1c-0.1,0.1-0.1,0.2-0.1,0.4
			c0,0.2,0.1,0.4,0.3,0.5c-0.2,0.1-0.4,0.3-0.5,0.6c-0.5,0.1-0.6,0.5-0.6,0.9c0,0.5,0.2,0.9,0.9,0.9c-0.1,0.3-0.3,0.4-0.6,0.4
			c-0.3,0-0.5-0.2-0.6-0.4c0-0.1,0-0.1,0-0.2c0-0.4-0.4-0.8-0.8-0.8c-0.4,0-0.8,0.4-0.8,0.8c0,0.1,0,0.3,0.1,0.4
			c0,0.3-0.2,0.5-0.5,0.6c-0.3,0.1-0.5-0.1-0.7-0.3c0.6-0.2,0.7-0.6,0.6-1.1c-0.1-0.4-0.3-0.7-0.8-0.7c-0.1-0.2-0.2-0.3-0.3-0.4
			C425.8,63.9,425.9,63.5,426,63.2"/>
		<path fill="#666666" d="M434.2,78.1l3.1-3.2c4,2.3,6.7,6.6,6.7,11.6c0,3.2-1.1,6.2-3.1,8.5l-1.5-1.5c1.6-2,2.7-4,2.7-7.2
			c0-3.4-1.8-7.2-4.6-9.1l-1.9,1.9c1,0.7,1.7,1.4,2.4,2.5l-1.4,1.2c-0.6-1-1.3-1.7-2.2-2.3l-3.7,3.9l-3.9-4c-2,1.4-3.2,3.4-3.2,5.9
			c-0.1,3.3,2.1,5.6,5.1,6.6v-6.6h4.6v1.4h-2.8v1.8h2.8V91h-2.8v2.2c2.1,0.1,4.2-1.1,5.6-2.6l1.4,1.4c-1.8,2-4.3,3.1-6.9,3.1v2h-1.8
			v-2.3c-4-1-7-4.5-6.9-8.8c0-2.9,1.6-5.3,3.8-7l-1.9-2c-2.9,2.4-4.5,5.3-4.7,9.2c-0.1,3.4,1.6,6.1,2.7,7.2l-1.3,1.3
			c-2-2.3-3.1-5.1-3.1-8.4c0-4.9,2.7-9.2,6.7-11.6l3.2,3.3c1.1-0.4,2.3-0.7,3.5-0.7c1.2,0,2.2,0.2,3.3,0.7L434.2,78.1z M428.6,79.7
			l2.1,2.2l2-2.1c-0.7-0.2-1.4-0.3-2.1-0.3C430,79.3,429.3,79.5,428.6,79.7 M447,86.6c0,8.9-7.3,16.3-16.3,16.3
			c-9,0-16.3-7.3-16.3-16.3c0-9,7.3-16.3,16.3-16.3C439.7,70.3,447,77.6,447,86.6 M416.1,86.6c0,8.1,6.6,14.7,14.7,14.7
			c8.1,0,14.7-6.6,14.7-14.7c0-8.1-6.6-14.7-14.7-14.7C422.7,71.9,416.1,78.5,416.1,86.6 M432.2,68.6l-1.4-0.5l-1.4,0.5l1.4,0.5
			L432.2,68.6z M435.1,69.6l1.3-0.1l-1.1-0.8l-1.3,0.1L435.1,69.6z M433,69.1c0.3,0,0.5-0.2,0.5-0.5c0-0.2-0.2-0.5-0.5-0.5
			c-0.2,0-0.5,0.2-0.5,0.5C432.6,68.9,432.8,69.1,433,69.1 M424.2,70.3c0.3,0,0.5-0.2,0.5-0.5c0-0.2-0.2-0.5-0.5-0.5
			c-0.2,0-0.5,0.2-0.5,0.5C423.7,70.1,423.9,70.3,424.2,70.3 M428.5,69.1c0.3,0,0.5-0.2,0.5-0.5c0-0.2-0.2-0.5-0.5-0.5
			c-0.2,0-0.5,0.2-0.5,0.5C428.1,68.9,428.3,69.1,428.5,69.1 M437.4,70.3c0.3,0,0.5-0.2,0.5-0.5c0-0.2-0.2-0.5-0.5-0.5
			c-0.2,0-0.5,0.2-0.5,0.5C436.9,70.1,437.1,70.3,437.4,70.3 M426.4,69.6l1.1-0.8l-1.3-0.1l-1.1,0.8L426.4,69.6z M423.6,70l-0.5-0.2
			l0-0.1c0,0-0.1,0-0.1,0c-0.1,0-0.1-0.1-0.1-0.2c2.4-1.1,5.1-1.8,8-1.8c2.9,0,5.5,0.6,8,1.8c0.1,0,0.1,0.2-0.1,0.2c0,0-0.1,0-0.1,0
			l0,0.1L438,70l0.2,0.6l0,0.1c0.3,0.1,0.1,0.3,0,0.3c-2.2-1-4.7-1.6-7.3-1.6c-2.6,0-5.1,0.6-7.3,1.6c-0.1,0-0.1,0-0.2-0.1
			c0-0.1,0-0.1,0-0.2c0,0,0.1,0,0.1,0l0-0.1L423.6,70z M438.9,69.4c-2.5-1.2-5.2-1.8-8.1-1.8c-2.9,0-5.6,0.6-8.1,1.8
			c-0.2,0.1-0.3,0-0.4-0.2c-0.1-0.2,0-0.3,0.1-0.4c-0.5,0.2-0.9,0.2-1.3-0.2c-0.8,0.5-1.7-0.6-1.1-1.1c-0.3-0.4-0.3-0.8,0.1-1
			c-0.1-0.1-0.1-0.2-0.1-0.4c0-0.4,0.3-0.6,0.7-0.7c-0.2-0.2-0.4-0.3-0.4-0.6c0-0.4,0.3-0.6,0.7-0.6c-0.1-0.2-0.2-0.3-0.2-0.5
			c0-0.4,0.3-0.6,0.6-0.6c0.1,0,0.2,0,0.3,0.1c-0.1-0.1-0.1-0.2-0.1-0.4c0-0.4,0.3-0.6,0.6-0.6c0.2,0,0.3,0.1,0.4,0.1
			c0-0.1,0-0.2,0-0.2c0-0.4,0.3-0.6,0.6-0.6c0.2,0,0.3,0.1,0.5,0.2c0.1-0.3,0.3-0.6,0.6-0.6c0.3,0,0.4,0.2,0.6,0.4
			c0.2-0.2,0.3-0.3,0.5-0.3c0.1,0,0.2,0,0.3,0c0-0.1-0.1-0.2-0.1-0.4c0-0.4,0.3-0.6,0.6-0.6c0.2,0,0.3,0.1,0.5,0.2
			c0-0.1,0-0.2,0-0.3c0-0.4,0.3-0.6,0.6-0.6c0.2,0,0.3,0.1,0.5,0.2c0.1-0.3,0.3-0.6,0.6-0.6c0.2,0,0.4,0.1,0.5,0.3
			c0.1-0.3,0.3-0.5,0.6-0.5c0.1,0,0.2,0,0.3,0.1c0.2-0.2,0.4-0.3,0.6-0.4v-0.7H430v-0.4h0.5v-0.5h0.4v0.5h0.5v0.4H431v0.7
			c0.3,0.1,0.5,0.2,0.6,0.4c0.1,0,0.2-0.1,0.3-0.1c0.3,0,0.5,0.2,0.6,0.5c0.2-0.2,0.3-0.3,0.5-0.3c0.4,0,0.6,0.3,0.6,0.6
			c0.2-0.1,0.3-0.2,0.5-0.2c0.4,0,0.6,0.3,0.6,0.6c0,0.1,0,0.2,0,0.3c0.2-0.1,0.3-0.2,0.5-0.2c0.4,0,0.6,0.3,0.6,0.6
			c0,0.1,0,0.2-0.1,0.4c0.1,0,0.2,0,0.3,0c0.2,0,0.4,0.1,0.5,0.3c0.1-0.2,0.3-0.4,0.6-0.4c0.4,0,0.6,0.3,0.6,0.6
			c0.1-0.1,0.3-0.2,0.5-0.2c0.4,0,0.6,0.3,0.6,0.6c0,0.1,0,0.2,0,0.2c0.1-0.1,0.2-0.1,0.4-0.1c0.4,0,0.6,0.3,0.6,0.6
			c0,0.2-0.1,0.3-0.1,0.4c0.1,0,0.2-0.1,0.3-0.1c0.4,0,0.6,0.3,0.6,0.6c0,0.2-0.1,0.3-0.2,0.5c0.4,0,0.7,0.2,0.7,0.6
			c0,0.3-0.2,0.4-0.4,0.6c0.3,0.1,0.7,0.2,0.7,0.7c0,0.2,0,0.3-0.1,0.4c0.4,0.3,0.4,0.7,0.1,1c0.4,0.3,0.2,0.8-0.1,1
			c-0.3,0.2-0.6,0.3-1,0.1c-0.4,0.3-0.8,0.3-1.3,0.2l0.1,0.2C439.4,69.2,439.1,69.5,438.9,69.4 M421.9,67.3c0.2,0.6,0,0.8-0.5,1
			c0.3,0.1,0.5,0.2,0.8,0c0.3-0.2,0.4-0.5,0.4-0.8c-0.1-0.1-0.1-0.2-0.2-0.3c-0.1-0.3,0.1-0.7,0.5-0.8c0.3-0.1,0.7,0.1,0.8,0.5
			c0,0.1,0,0.1,0,0.2c0.5,0.6,1.5,0.3,1.4-0.6c-0.6,0.1-0.9,0.1-1.1-0.5c-0.1-0.4,0-0.7,0.4-0.9c0-0.2,0-0.3,0.1-0.5
			c-0.3-0.1-0.5-0.3-0.5-0.6c0-0.4,0.3-0.6,0.7-0.7c-0.2-0.2-0.4-0.3-0.4-0.6c0,0,0-0.1-0.1-0.1c-2,1-2.6,2-2.7,4.2
			C421.7,66.9,421.8,67.1,421.9,67.3 M430.2,60.5c0,0,0-0.1,0-0.1c-2.6-0.2-4.4,1.6-4.6,4c0.2,0.1,0.3,0.2,0.4,0.4
			c0.4,0,0.6,0.2,0.8,0.6c0.1,0.6-0.1,0.8-0.7,0.9c0.2,0.4,0.5,0.6,0.9,0.5c0.4-0.1,0.6-0.4,0.6-0.8c-0.1-0.1-0.1-0.2-0.1-0.3
			c0-0.4,0.3-0.6,0.6-0.6c0.4,0,0.6,0.3,0.6,0.6c0,0.1,0,0.1,0,0.2c0.1,0.3,0.4,0.6,0.7,0.6c0.5,0,0.7-0.3,0.8-0.7
			c-0.6,0-0.9-0.1-0.9-0.7c0-0.4,0.1-0.6,0.6-0.7c0.1-0.5,0.4-0.6,0.8-0.6c0.4,0.1,0.7,0.1,0.8,0.6c0.4,0.1,0.6,0.3,0.6,0.7
			c0,0.6-0.3,0.7-0.9,0.7c0.1,0.4,0.3,0.7,0.8,0.7c0.4,0,0.6-0.2,0.8-0.6c0-0.1,0-0.1,0-0.2c0-0.4,0.3-0.6,0.6-0.6
			c0.4,0,0.6,0.3,0.6,0.6c0,0.1,0,0.2-0.1,0.3c0,0.4,0.2,0.7,0.6,0.8c0.4,0.1,0.8-0.1,0.9-0.5c-0.5-0.1-0.8-0.4-0.7-0.9
			c0.1-0.4,0.3-0.6,0.7-0.6c0.1-0.2,0.2-0.3,0.4-0.4c-0.3-2.5-2.1-4.2-4.7-4c0,0,0,0.1,0,0.1c0,0.1,0,0.2-0.1,0.3v0.6
			c0.1,0.1,0.1,0.2,0.1,0.3c0,0.1,0,0.2-0.1,0.3l0,0.6c0.1,0.1,0.1,0.2,0.1,0.3c0,0.4-0.3,0.5-0.5,0.6c-0.3-0.1-0.5-0.2-0.5-0.6
			c0-0.1,0-0.2,0.1-0.3v-0.6c-0.1-0.1-0.1-0.2-0.1-0.3c0-0.1,0-0.2,0.1-0.3v-0.6C430.3,60.7,430.2,60.6,430.2,60.5 M439.3,68.4
			c0.3,0.2,0.5,0.1,0.8,0c-0.5-0.2-0.7-0.4-0.5-1c0.1-0.3,0.2-0.4,0.5-0.5c-0.2-2.2-0.8-3.2-2.7-4.2l-0.1,0c0,0,0,0.1,0,0.1
			c0,0.3-0.2,0.4-0.4,0.6c0.3,0.1,0.7,0.2,0.7,0.7c0,0.4-0.2,0.5-0.5,0.6c0.1,0.2,0.1,0.3,0.1,0.5c0.4,0.2,0.5,0.4,0.4,0.9
			c-0.1,0.6-0.5,0.6-1.1,0.5c-0.1,0.9,0.9,1.2,1.4,0.6c0-0.1,0-0.1,0-0.2c0.1-0.3,0.4-0.5,0.8-0.5c0.3,0.1,0.5,0.4,0.5,0.8
			c0,0.1-0.1,0.2-0.2,0.3C438.9,67.9,439.1,68.2,439.3,68.4 M429.7,59.7c0.2,0,0.4-0.2,0.4-0.4c0-0.2-0.2-0.4-0.4-0.4
			c-0.2,0-0.4,0.2-0.4,0.4C429.3,59.6,429.5,59.7,429.7,59.7 M430.8,60.8c0.2,0,0.4-0.2,0.4-0.4c0-0.2-0.2-0.4-0.4-0.4
			c-0.2,0-0.4,0.2-0.4,0.4C430.4,60.7,430.6,60.8,430.8,60.8 M430.8,62.1c0.2,0,0.4-0.2,0.4-0.4c0-0.2-0.2-0.4-0.4-0.4
			c-0.2,0-0.4,0.2-0.4,0.4C430.4,61.9,430.6,62.1,430.8,62.1 M430.8,63.4c0.2,0,0.4-0.2,0.4-0.4c0-0.2-0.2-0.4-0.4-0.4
			c-0.2,0-0.4,0.2-0.4,0.4C430.4,63.2,430.6,63.4,430.8,63.4 M428.5,59.9c0.2,0,0.4-0.2,0.4-0.4c0-0.2-0.2-0.4-0.4-0.4
			c-0.2,0-0.4,0.2-0.4,0.4C428.2,59.8,428.3,59.9,428.5,59.9 M427.4,60.3c0.2,0,0.4-0.2,0.4-0.4c0-0.2-0.2-0.4-0.4-0.4
			c-0.2,0-0.4,0.2-0.4,0.4C427,60.2,427.2,60.3,427.4,60.3 M426.3,61.1c0.2,0,0.4-0.2,0.4-0.4c0-0.2-0.2-0.4-0.4-0.4
			c-0.2,0-0.4,0.2-0.4,0.4C426,60.9,426.1,61.1,426.3,61.1 M425.5,62c0.2,0,0.4-0.2,0.4-0.4c0-0.2-0.2-0.4-0.4-0.4
			c-0.2,0-0.4,0.2-0.4,0.4C425.1,61.9,425.3,62,425.5,62 M424.4,61.9c0.2,0,0.4-0.2,0.4-0.4c0-0.2-0.2-0.4-0.4-0.4
			c-0.2,0-0.4,0.2-0.4,0.4C424,61.8,424.2,61.9,424.4,61.9 M423.3,62.4c0.2,0,0.4-0.2,0.4-0.4c0-0.2-0.2-0.4-0.4-0.4
			c-0.2,0-0.4,0.2-0.4,0.4C422.9,62.2,423.1,62.4,423.3,62.4 M422.2,63.1c0.2,0,0.4-0.2,0.4-0.4c0-0.2-0.2-0.4-0.4-0.4
			c-0.2,0-0.4,0.2-0.4,0.4C421.9,62.9,422,63.1,422.2,63.1 M421.4,64.1c0.2,0,0.4-0.2,0.4-0.4c0-0.2-0.2-0.4-0.4-0.4
			c-0.2,0-0.4,0.2-0.4,0.4C421,63.9,421.2,64.1,421.4,64.1 M420.9,65.2c0.2,0,0.4-0.2,0.4-0.4c0-0.2-0.2-0.4-0.4-0.4
			c-0.2,0-0.4,0.2-0.4,0.4C420.5,65,420.7,65.2,420.9,65.2 M420.6,66.4c0.2,0,0.4-0.2,0.4-0.4c0-0.2-0.2-0.4-0.4-0.4
			c-0.2,0-0.4,0.2-0.4,0.4C420.2,66.3,420.4,66.4,420.6,66.4 M424.9,63.1c0.2,0,0.4-0.2,0.4-0.4c0-0.2-0.2-0.4-0.4-0.4
			c-0.2,0-0.4,0.2-0.4,0.4C424.6,63,424.7,63.1,424.9,63.1 M424.6,64.4c0.2,0,0.4-0.2,0.4-0.4c0-0.2-0.2-0.4-0.4-0.4
			c-0.2,0-0.4,0.2-0.4,0.4C424.3,64.2,424.5,64.4,424.6,64.4 M430.8,65.5c0.3,0,0.6-0.3,0.6-0.6c0-0.3-0.3-0.6-0.6-0.6
			c-0.3,0-0.6,0.3-0.6,0.6C430.2,65.2,430.4,65.5,430.8,65.5 M425.5,66.1c0.3-0.1,0.5-0.4,0.5-0.8c-0.1-0.3-0.4-0.5-0.8-0.5
			c-0.3,0.1-0.5,0.4-0.5,0.8C424.9,66,425.2,66.2,425.5,66.1 M421,68.3c0.3-0.2,0.4-0.6,0.3-0.9c-0.2-0.3-0.6-0.4-0.9-0.2
			c-0.3,0.2-0.4,0.6-0.2,0.9C420.3,68.3,420.7,68.5,421,68.3 M431.9,59c-0.2,0-0.4,0.2-0.4,0.4c0,0.2,0.2,0.4,0.4,0.4
			c0.2,0,0.4-0.2,0.4-0.4C432.3,59.2,432.1,59,431.9,59 M433,59.2c-0.2,0-0.4,0.2-0.4,0.4c0,0.2,0.2,0.4,0.4,0.4
			c0.2,0,0.4-0.2,0.4-0.4C433.4,59.4,433.2,59.2,433,59.2 M434.2,59.6c-0.2,0-0.4,0.2-0.4,0.4c0,0.2,0.2,0.4,0.4,0.4
			s0.4-0.2,0.4-0.4C434.5,59.8,434.4,59.6,434.2,59.6 M435.3,60.4c-0.2,0-0.4,0.2-0.4,0.4c0,0.2,0.2,0.4,0.4,0.4s0.4-0.2,0.4-0.4
			C435.6,60.5,435.4,60.4,435.3,60.4 M436.1,61.3c-0.2,0-0.4,0.2-0.4,0.4c0,0.2,0.2,0.4,0.4,0.4c0.2,0,0.4-0.2,0.4-0.4
			C436.4,61.5,436.3,61.3,436.1,61.3 M437.2,61.2c-0.2,0-0.4,0.2-0.4,0.4c0,0.2,0.2,0.4,0.4,0.4c0.2,0,0.4-0.2,0.4-0.4
			C437.6,61.4,437.4,61.2,437.2,61.2 M438.3,61.6c-0.2,0-0.4,0.2-0.4,0.4c0,0.2,0.2,0.4,0.4,0.4c0.2,0,0.4-0.2,0.4-0.4
			C438.7,61.8,438.5,61.6,438.3,61.6 M439.3,62.4c-0.2,0-0.4,0.2-0.4,0.4c0,0.2,0.2,0.4,0.4,0.4c0.2,0,0.4-0.2,0.4-0.4
			C439.7,62.6,439.5,62.4,439.3,62.4 M440.2,63.4c-0.2,0-0.4,0.2-0.4,0.4c0,0.2,0.2,0.4,0.4,0.4c0.2,0,0.4-0.2,0.4-0.4
			C440.5,63.5,440.4,63.4,440.2,63.4 M440.7,64.5c-0.2,0-0.4,0.2-0.4,0.4c0,0.2,0.2,0.4,0.4,0.4c0.2,0,0.4-0.2,0.4-0.4
			C441,64.6,440.9,64.5,440.7,64.5 M441,65.7c-0.2,0-0.4,0.2-0.4,0.4c0,0.2,0.2,0.4,0.4,0.4c0.2,0,0.4-0.2,0.4-0.4
			C441.3,65.9,441.2,65.7,441,65.7 M436.6,62.4c-0.2,0-0.4,0.2-0.4,0.4c0,0.2,0.2,0.4,0.4,0.4c0.2,0,0.4-0.2,0.4-0.4
			C437,62.6,436.8,62.4,436.6,62.4 M436.9,63.7c-0.2,0-0.4,0.2-0.4,0.4c0,0.2,0.2,0.4,0.4,0.4c0.2,0,0.4-0.2,0.4-0.4
			C437.3,63.8,437.1,63.7,436.9,63.7 M436.3,64.9c-0.3-0.1-0.7,0.1-0.8,0.5c-0.1,0.3,0.1,0.7,0.5,0.8c0.3,0.1,0.7-0.1,0.8-0.5
			C436.9,65.4,436.7,65,436.3,64.9 M441.2,67.2c-0.3-0.2-0.7-0.1-0.9,0.2c-0.2,0.3-0.1,0.7,0.2,0.9c0.3,0.2,0.7,0.1,0.9-0.2
			C441.6,67.7,441.5,67.3,441.2,67.2 M433.4,66.5c-0.1,0-0.1,0-0.2,0c-0.1,0.2-0.3,0.3-0.5,0.4c0.3,0,0.7,0.1,1,0.1
			C433.6,66.9,433.5,66.7,433.4,66.5L433.4,66.5z M428.2,66.5c-0.1,0.2-0.2,0.4-0.3,0.5c0.3,0,0.6-0.1,1-0.1
			c-0.2-0.1-0.3-0.2-0.5-0.4C428.3,66.5,428.2,66.5,428.2,66.5 M426.3,67.3c-0.2-0.1-0.4-0.3-0.6-0.5c0,0.2-0.1,0.5-0.3,0.7
			C425.7,67.4,426,67.4,426.3,67.3 M423,68.4c0.3-0.1,0.6-0.2,0.9-0.4c-0.2,0-0.3-0.1-0.4-0.2c-0.1,0-0.1,0.1-0.2,0.1l0,0
			C423.2,68.1,423.1,68.2,423,68.4 M430.8,66.2c-0.1,0.2-0.2,0.4-0.4,0.6c0.1,0,0.3,0,0.4,0c0.1,0,0.3,0,0.4,0
			C431,66.6,430.9,66.4,430.8,66.2 M438.1,67.8c-0.1,0.1-0.3,0.2-0.4,0.2c0.3,0.1,0.6,0.2,0.9,0.4c-0.1-0.1-0.1-0.3-0.2-0.4l0,0
			C438.2,67.9,438.1,67.8,438.1,67.8 M436.1,67.5c-0.2-0.2-0.2-0.4-0.3-0.7c-0.1,0.2-0.3,0.4-0.6,0.5
			C435.6,67.4,435.9,67.4,436.1,67.5"/>
	</g>
	<g>
		<path fill="#666666" d="M438.7,115v-3.2c0-1.5-1.5-1.7-2.3-1.7c-1.2,0-2.5,0.3-2.6,2.1h1.5c0-0.3,0.2-0.8,0.9-0.8c0.4,0,1,0,1,0.7
			c0,0.3-0.3,0.4-0.5,0.5l-1.4,0.2c-1,0.1-1.7,0.7-1.7,1.9c0,1.2,0.9,1.7,1.8,1.7c1,0,1.5-0.5,1.9-0.9c0,0.3,0.1,0.4,0.1,0.7h1.7
			v-0.2C438.9,115.9,438.7,115.7,438.7,115z M437.2,114c0,0.7-0.7,1.2-1.4,1.2c-0.3,0-0.7-0.2-0.7-0.7c0-0.7,0.5-0.8,1-0.9
			c0.6-0.1,0.9-0.2,1-0.3V114z"/>
		<rect x="449.8" y="110.2" fill="#666666" width="1.5" height="6"/>
		<path fill="#666666" d="M443.5,111c-0.2-0.4-0.7-0.9-1.7-0.9c-1.3,0-2.4,1-2.4,3.1c0,1.6,0.7,3.2,2.5,3.2c0.6,0,1.3-0.2,1.7-0.9
			v0.8h1.5v-8.1h-1.5L443.5,111z M442.2,115c-1,0-1.3-1.1-1.3-1.8c0-0.9,0.3-1.8,1.3-1.8c1.1,0,1.3,1,1.3,1.9
			C443.6,114.2,443.2,115,442.2,115z"/>
		<path fill="#666666" d="M447.4,111.2v-1h-1.5v6h1.5v-3.1c0-0.7,0.2-1.4,1.4-1.4c0.1,0,0.3,0,0.4,0V110c-0.1,0-0.2,0-0.3,0
			C448.1,110,447.8,110.6,447.4,111.2z"/>
		<rect x="422.6" y="108.1" fill="#666666" width="1" height="8.1"/>
		<path fill="#666666" d="M431,110c-0.9,0-1.4,0.7-1.6,1c-0.4-0.6-0.8-1-1.6-1c-1,0-1.5,0.6-1.7,1v-0.9h-1.5v6h1.5v-3.6
			c0-0.7,0.2-1.2,1-1.2c0.9,0,0.9,0.7,0.9,1.2v3.6h1.5v-3.6c0-0.7,0.3-1.2,1-1.2c0.5,0,0.8,0.3,0.8,1.2v3.6h1.5V112
			C433,110.7,432.1,110,431,110z"/>
		<rect x="449.8" y="108" fill="#666666" width="1.5" height="1.5"/>
		<path fill="#666666" d="M456.2,108.1l0,2.9c-0.2-0.4-0.7-0.9-1.7-0.9c-1.3,0-2.4,1-2.4,3.1c0,1.6,0.7,3.2,2.5,3.2
			c0.6,0,1.3-0.2,1.7-0.9v0.8h1.5v-8.1H456.2z M454.9,115c-1,0-1.3-1.1-1.3-1.8c0-0.9,0.3-1.8,1.3-1.8c1.1,0,1.3,1,1.3,1.9
			C456.3,114.2,455.9,115,454.9,115z"/>
		<path fill="#666666" d="M421.3,115.1v-3.4c0-1.5-1.7-1.6-2.1-1.6c-1.4,0-2.3,0.6-2.4,2h0.9c0.1-0.5,0.2-1.1,1.3-1.1
			c0.9,0,1.4,0.3,1.4,1c0,0.6-0.3,0.7-0.5,0.7l-1.6,0.2c-1.6,0.2-1.7,1.4-1.7,1.8c0,1,0.7,1.7,1.8,1.7c1.1,0,1.7-0.5,2.1-1
			c0,0.4,0.2,0.9,1,0.9c0.2,0,0.4-0.1,0.5-0.1v-0.7c-0.1,0-0.2,0-0.3,0C421.4,115.5,421.3,115.4,421.3,115.1z M420.3,114.1
			c0,0.8-0.9,1.4-1.8,1.4c-0.7,0-1-0.4-1-1c0-0.7,0.8-0.9,1.2-1c1.2-0.2,1.4-0.2,1.6-0.4V114.1z"/>
		<path fill="#666666" d="M413.5,110.1c-1.9,0-2.8,1.5-2.8,3.3c0,1.7,1,2.9,2.6,2.9c0.9,0,1.3-0.2,1.6-0.4c0.7-0.5,1-1.3,1-1.6h-1
			c0,0.4-0.6,1.2-1.5,1.2c-1.1,0-1.7-0.7-1.7-1.9h4.2C416,111.5,415.2,110.1,413.5,110.1z M411.8,112.8c0-0.9,0.7-1.8,1.6-1.8
			c1.2,0,1.6,0.8,1.6,1.8H411.8z"/>
		<path fill="#666666" d="M409.8,115.2l-0.1-1.5c0-1.1-0.5-1.3-0.9-1.5c0.5-0.3,1.1-0.7,1.1-1.9c0-1.7-1.3-2.2-2.6-2.2h-3.7v8.1h1.1
			v-3.5h2.6c1.3,0,1.4,0.8,1.4,1.4c0,0.3,0,1.5,0.2,2h1.3V116C409.9,115.8,409.8,115.6,409.8,115.2z M407.2,111.8h-2.5V109h2.7
			c0.5,0,1.4,0.1,1.4,1.3C408.8,111.6,408,111.8,407.2,111.8z"/>
	</g>
</g>
<g>
	<path fill="#505050" d="M590.6,100.4c-5.6-1.3-16.5-2.9-30.9,0.1c-2.2,0.4-3.4,2.8-2.5,4.8c2.4,5.2,5.4,17.6,4.9,46.7
		c0,1.9,1.5,3.5,3.4,3.5c6.8,0,21.2,0.6,21.2,0.2c0.3-31.3,4-45.2,6.3-50.7C593.8,103.1,592.6,100.9,590.6,100.4z"/>
	<path fill="#331A0A" d="M586.8,213.2h-3.2c0,0-1.2,4,2.9,4.2h5.3c0,0,1.2-2.5-2-2.7C589.8,214.7,587.1,214.2,586.8,213.2z"/>
	<path fill="#331A0A" d="M564.7,213.2h3.2c0,0,1.2,4-2.9,4.2h-5.3c0,0-1.2-2.5,2-2.7C561.7,214.7,564.4,214.2,564.7,213.2z"/>
	<polygon fill="#3F4140" points="585.9,145.3 587.2,213.6 582.4,213.6 573.6,157 569.7,213.2 563.8,213.2 562.6,145 	"/>
	<path fill="#505050" d="M574,144.6c0,0-3.7,5.9-13,12.2l1.1-14.6L574,144.6z"/>
	<path fill="#505050" d="M574.3,144.7c0,0,4.3,7.9,13.8,12.9l-1.7-14.6L574.3,144.7z"/>
	<path fill="#F6F5FA" d="M569.2,101.2l5.4,26l5.8-26.2C580.4,101.1,573.6,100,569.2,101.2z"/>
	<path fill="#D89F79" d="M566.6,76.6v15.7c0,1.6,1.3,2.8,2.8,2.8l0,0v6.1c0,0,3.2,6.2,10.9,0V88.5c0,0,2.3-0.5,2.3-3.2
		s-2.7-1.4-2.7-1.4v-7.4H566.6z"/>
	<path d="M579.9,84l-0.3,1h-1l-1.6-9.1l4.6,0.7v7.1C581.5,83.7,580.3,83.8,579.9,84z"/>
	<path d="M578.7,76.6c-0.3,0.3-4.9-0.1-12.5,0.5c0,0-2.6-4.5-0.2-6.7c2.4-2.1,14.3-0.4,15.5,6.2C581.5,76.6,579.6,75.6,578.7,76.6z"
		/>
	<path fill="#C1272D" d="M571.7,102.5c0,0-0.1,3.3,2,3.2c2.1-0.1,1.4-3.5,1.4-3.5L571.7,102.5z"/>
	<polygon fill="#C1272D" points="574.5,104.7 576.9,118.2 574.6,127.3 572,115.8 572.7,104.6 	"/>
	<polygon fill="#F6F5FA" points="571.6,105.7 573.1,102.4 570.4,99.9 570.4,101.6 	"/>
	<polygon fill="#F6F5FA" points="579.8,103.7 580.4,101.9 580.2,98.8 574.3,102.2 575.4,104.8 	"/>
	<polygon fill="#3F4140" points="574.6,127.3 574.9,131 582.7,114.8 580.4,113.3 584,101.1 582.3,99.1 580.2,98.8 580.4,101.9 	"/>
	<polygon fill="#3F4140" points="569.3,99 569.4,101.9 574.6,127.5 574.8,129.6 567.8,115.7 570.1,112.4 565.6,101.9 566.5,99.4 	
		"/>
	<path fill="#D89F79" d="M553.7,149.5c0,0-1.6,6.4,2.3,7c3.9,0.6,4.3-1.5,3.2-2.3c-1.1-0.9,0.6-0.6,1.2-0.5c0.6,0.1,1.2-2.6-1-4.3
		C557.2,147.6,553.7,149.5,553.7,149.5z"/>
	<path fill="#505050" d="M559,100.8c0,0-20,11.5-6.4,51.1l4.6-3.7c0,0-8.6-30.5,5.2-39.5L559,100.8z"/>
	<path fill="#D89F79" d="M597.2,149.5c0,0,1.6,6.4-2.3,7c-3.9,0.6-4.3-1.5-3.2-2.3c1.1-0.9-0.6-0.6-1.2-0.5c-0.6,0.1-1.2-2.6,1-4.3
		C593.6,147.6,597.2,149.5,597.2,149.5z"/>
	<path fill="#505050" d="M591.9,100.8c0,0,20,11.5,6.4,51.1l-4.6-3.7c0,0,8.6-30.5-5.2-39.5L591.9,100.8z"/>
</g>
<path fill="#505050" d="M440.3,100.4c-5.6-1.3-16.5-2.9-30.9,0.1c-2.2,0.4-3.4,2.8-2.5,4.8c2.4,5.2,5.4,17.6,4.9,46.7
	c0,1.9,1.5,3.5,3.4,3.5c6.8,0,21.2,0.6,21.2,0.2c0.3-31.3,4-45.2,6.3-50.7C443.5,103.1,442.3,100.9,440.3,100.4z"/>
<path fill="#331A0A" d="M436.5,213.2h-3.2c0,0-1.2,4,2.9,4.2h5.3c0,0,1.2-2.5-2-2.7C439.5,214.7,436.8,214.2,436.5,213.2z"/>
<path fill="#331A0A" d="M414.4,213.2h3.2c0,0,1.2,4-2.9,4.2h-5.3c0,0-1.2-2.5,2-2.7C411.4,214.7,414.1,214.2,414.4,213.2z"/>
<polygon fill="#3F4140" points="435.6,145.3 436.9,213.6 432.1,213.6 423.3,157 419.4,213.2 413.5,213.2 412.3,145 "/>
<path fill="#505050" d="M423.7,144.6c0,0-3.7,5.9-13,12.2l1.1-14.6L423.7,144.6z"/>
<path fill="#505050" d="M424,144.7c0,0,4.3,7.9,13.8,12.9l-1.7-14.6L424,144.7z"/>
<path fill="#F6F5FA" d="M418.9,101.2l5.4,26l5.8-26.2C430.1,101.1,423.4,100,418.9,101.2z"/>
<path fill="#D89F79" d="M416.3,76.6v15.7c0,1.6,1.3,2.8,2.8,2.8l0,0v6.1c0,0,3.2,6.2,10.9,0V88.5c0,0,2.3-0.5,2.3-3.2
	s-2.7-1.4-2.7-1.4v-7.4H416.3z"/>
<path d="M429.6,84l-0.3,1h-1l-1.6-9.1l4.6,0.7v7.1C431.2,83.7,430,83.8,429.6,84z"/>
<path d="M428.4,76.6c-0.3,0.3-4.9-0.1-12.5,0.5c0,0-2.6-4.5-0.2-6.7c2.4-2.1,14.3-0.4,15.5,6.2C431.2,76.6,429.4,75.6,428.4,76.6z"
	/>
<path fill="#C1272D" d="M421.4,102.5c0,0-0.1,3.3,2,3.2s1.4-3.5,1.4-3.5L421.4,102.5z"/>
<polygon fill="#C1272D" points="424.2,104.7 426.6,118.2 424.3,127.3 421.7,115.8 422.4,104.6 "/>
<polygon fill="#F6F5FA" points="421.4,105.7 423.1,102.4 420.4,99.9 420.4,101.6 "/>
<polygon fill="#F6F5FA" points="429.5,103.7 430.1,101.9 429.9,98.8 424,102.2 425.1,104.8 "/>
<polygon fill="#3F4140" points="424.3,127.3 424.6,131 432.4,114.8 430.1,113.3 433.7,101.1 432.1,99.1 429.9,98.8 430.1,101.9 "/>
<polygon fill="#3F4140" points="419,99 419.1,101.9 424.3,127.5 424.5,129.6 417.6,115.7 419.8,112.4 415.3,101.9 416.2,99.4 "/>
<path fill="#D89F79" d="M403.4,149.5c0,0-1.6,6.4,2.3,7c3.9,0.6,4.3-1.5,3.2-2.3c-1.1-0.9,0.6-0.6,1.2-0.5c0.6,0.1,1.2-2.6-1-4.3
	C406.9,147.6,403.4,149.5,403.4,149.5z"/>
<path fill="#505050" d="M408.7,100.8c0,0-20,11.5-6.4,51.1l4.6-3.7c0,0-8.6-30.5,5.2-39.5L408.7,100.8z"/>
<path fill="#2C333D" d="M344.1,100.4c5.6-1.3,16.5-2.9,30.9,0.1c2.2,0.4,3.4,2.8,2.5,4.8c-2.4,5.2-5.4,17.6-4.9,46.7
	c0,1.9-1.5,3.5-3.4,3.5c-6.8,0-21.2,0.6-21.2,0.2c-0.3-31.3-4-45.2-6.3-50.7C340.9,103.1,342,100.9,344.1,100.4z"/>
<path fill="#331A0A" d="M347.9,213.2h3.2c0,0,1.2,4-2.9,4.2h-5.3c0,0-1.2-2.5,2-2.7C344.8,214.7,347.6,214.2,347.9,213.2z"/>
<path fill="#331A0A" d="M369.9,213.2h-3.2c0,0-1.2,4,2.9,4.2h5.3c0,0,1.2-2.5-2-2.7C373,214.7,370.2,214.2,369.9,213.2z"/>
<polygon fill="#232732" points="348.8,145.3 347.5,213.6 352.3,213.6 361.1,157 364.9,213.2 370.9,213.2 372.1,145 "/>
<path fill="#2C333D" d="M360.6,144.6c0,0,3.7,5.9,13,12.2l-1.1-14.6L360.6,144.6z"/>
<path fill="#2C333D" d="M360.4,144.7c0,0-4.3,7.9-13.8,12.9l1.7-14.6L360.4,144.7z"/>
<path fill="#F6F5FA" d="M365.4,101.2l-5.4,26l-5.8-26.2C354.2,101.1,361,100,365.4,101.2z"/>
<path fill="#D89F79" d="M368.1,76.6v15.7c0,1.6-1.3,2.8-2.8,2.8l0,0v6.1c0,0-3.2,6.2-10.9,0V88.5c0,0-2.3-0.5-2.3-3.2
	s2.7-1.4,2.7-1.4v-7.4H368.1z"/>
<path d="M354.7,84l0.3,1h1l1.6-9.1l-4.6,0.7v7.1C353.1,83.7,354.4,83.8,354.7,84z"/>
<path fill="#2C2B39" d="M363,102.5c0,0,0.1,3.3-2,3.2c-2.1-0.1-1.4-3.5-1.4-3.5L363,102.5z"/>
<polygon fill="#2C2B39" points="360.1,104.7 357.8,118.2 360,127.3 362.6,115.8 362,104.6 "/>
<polygon fill="#F6F5FA" points="363.1,105.7 361.6,102.4 364.4,99.9 364.4,101.6 "/>
<polygon fill="#F6F5FA" points="354.8,103.7 354.2,101.9 354.5,98.8 360.4,102.2 359.2,104.8 "/>
<polygon fill="#232732" points="360,127.3 359.8,131 351.9,114.8 354.2,113.3 350.6,101.1 352.3,99.1 354.5,98.8 354.2,101.9 "/>
<polygon fill="#232732" points="365.3,99 365.3,101.9 360.1,127.5 359.9,129.6 366.8,115.7 364.6,112.4 369.1,101.9 368.2,99.4 "/>
<path fill="#D89F79" d="M381,149.5c0,0,1.6,6.4-2.3,7c-3.9,0.6-4.3-1.5-3.2-2.3c1.1-0.9-0.6-0.6-1.2-0.5c-0.6,0.1-1.2-2.6,1-4.3
	C377.4,147.6,381,149.5,381,149.5z"/>
<path fill="#2C333D" d="M375.7,100.8c0,0,20,11.5,6.4,51.1l-4.6-3.7c0,0,8.6-30.5-5.2-39.5L375.7,100.8z"/>
<path fill="#D89F79" d="M337.5,149.5c0,0-1.6,6.4,2.3,7c3.9,0.6,4.3-1.5,3.2-2.3c-1.1-0.9,0.6-0.6,1.2-0.5c0.6,0.1,1.2-2.6-1-4.3
	C341.1,147.6,337.5,149.5,337.5,149.5z"/>
<path fill="#2C333D" d="M342.8,100.8c0,0-20,11.5-6.4,51.1l4.6-3.7c0,0-8.6-30.5,5.2-39.5L342.8,100.8z"/>
<path fill="#2E2F31" d="M278.2,100.4c5.6-1.3,16.5-2.9,30.9,0.1c2.2,0.4,4,5,3.6,7.2c-3.1,16.2-3.7,35.8-6,44.4
	c-0.5,1.9-1.5,3.5-3.4,3.5c-6.8,0-20.8-3.1-20.9-3.5c-4.4-22-5.2-27.9-8.1-42.9C273.8,107.1,276.1,100.9,278.2,100.4z"/>
<path fill="#331A0A" d="M282,213.2h3.2c0,0,1.2,4-2.9,4.2H277c0,0-1.2-2.5,2-2.7C279,214.7,281.7,214.2,282,213.2z"/>
<path fill="#331A0A" d="M304,213.2h-3.2c0,0-1.2,4,2.9,4.2h5.3c0,0,1.2-2.5-2-2.7C307.1,214.7,304.3,214.2,304,213.2z"/>
<polygon fill="#242625" points="282.9,145.3 281.6,213.6 286.4,213.6 295.2,157 299,213.2 305,213.2 306.2,145 "/>
<path fill="#2E2F31" d="M294.7,144.6c0,0,3.7,5.9,13,12.2l-1.1-14.6L294.7,144.6z"/>
<path fill="#2E2F31" d="M294.5,144.7c0,0-4.3,7.9-13.8,12.9l1.7-14.6L294.5,144.7z"/>
<path fill="#F6F5FA" d="M299.6,101.2l-5.4,26l-5.8-26.2C288.3,101.1,295.1,100,299.6,101.2z"/>
<path fill="#D89F79" d="M302.2,80.3v12c0,1.6-1.3,2.8-2.8,2.8l0,0v6.1c0,0-3.2,6.2-10.9,0V88.5c0,0-2.3-0.5-2.3-3.2s2.7-1.4,2.7-1.4
	v-3.7c0-3.7,3-6.7,6.7-6.7h0C299.2,73.6,302.2,76.6,302.2,80.3z"/>
<path fill="#C1272D" d="M297.1,102.5c0,0,0.1,3.3-2,3.2s-1.4-3.5-1.4-3.5L297.1,102.5z"/>
<polygon fill="#C1272D" points="294.3,104.7 291.9,118.2 294.1,127.3 296.7,115.8 296.1,104.6 "/>
<polygon fill="#F6F5FA" points="297.2,105.7 295.6,102.4 298.4,99.9 298.4,101.6 "/>
<polygon fill="#F6F5FA" points="288.9,103.7 288.3,101.9 288.6,98.8 294.5,102.2 293.3,104.8 "/>
<polygon fill="#242625" points="294.1,127.3 293.9,131 286,114.8 288.3,113.3 284.7,101.1 286.4,99.1 288.6,98.8 288.3,101.9 "/>
<polygon fill="#242625" points="299.4,99 299.4,101.9 294.2,127.5 294,129.6 300.9,115.7 298.7,112.4 303.2,101.9 302.3,99.4 "/>
<path fill="#D89F79" d="M315.1,149.5c0,0,1.6,6.4-2.3,7c-3.9,0.6-4.3-1.5-3.2-2.3c1.1-0.9-0.6-0.6-1.2-0.5c-0.6,0.1-1.2-2.6,1-4.3
	C311.5,147.6,315.1,149.5,315.1,149.5z"/>
<path fill="#2E2F31" d="M309.8,100.8c0,0,20,11.5,6.4,51.1l-4.6-3.7c0,0,8.6-30.5-5.2-39.5L309.8,100.8z"/>
<path fill="#D89F79" d="M271.6,149.5c0,0-1.6,6.4,2.3,7c3.9,0.6,4.3-1.5,3.2-2.3c-1.1-0.9,0.6-0.6,1.2-0.5c0.6,0.1,1.2-2.6-1-4.3
	C275.2,147.6,271.6,149.5,271.6,149.5z"/>
<path fill="#2E2F31" d="M276.9,100.8c0,0-20,11.5-6.4,51.1l4.6-3.7c0,0-8.6-30.5,5.2-39.5L276.9,100.8z"/>
<path fill="#505050" d="M297.9,87.5c0,0-4.2-0.5-4.1,3l6.7-0.2C300.5,90.3,300.9,87.1,297.9,87.5z"/>
<path fill="#505050" d="M288.9,84c0,0,2.1,1,2.8-1.2c0.7-2.2-0.5-4.7-3-3.7C286.3,80,287,84,288.9,84z"/>
<path fill="#505050" d="M302.1,79.5c0,0,3.7,1.7,0.2,4.2L302.1,79.5z"/>
<path d="M361.3,73.1c0,0-9-4.2-8.2,3.5l9.7,0l5.3,0C368.1,76.6,369.9,69.9,361.3,73.1z"/>
<path d="M363.9,89.2c0,0-1.9-2.7-3.5,0c-1.6,2.7-3.7,1.2-2.9-0.2c0,0-2.5,3.1,1.6,3.9C363.3,93.7,363.9,89.2,363.9,89.2z"/>
<path d="M363,89.2c0,0,1.9-2.7,3.5,0c1.6,2.7,3.7,1.2,2.9-0.2c0,0,2.5,3.1-1.6,3.9C363.6,93.7,363,89.2,363,89.2z"/>
<g>
	<path fill="#1F2827" d="M521.7,100.4c-5.6-1.3-16.5-2.9-30.9,0.1c-2.2,0.4-3.4,2.8-2.5,4.8c2.4,5.2,5.4,17.6,4.9,46.7
		c0,1.9,1.5,3.5,3.4,3.5c6.8,0,21.2,0.6,21.2,0.2c0.3-31.3,4-45.2,6.3-50.7C524.9,103.1,523.8,100.9,521.7,100.4z"/>
	<path fill="#331A0A" d="M517.9,213.2h-3.2c0,0-1.2,4,2.9,4.2h5.3c0,0,1.2-2.5-2-2.7C521,214.7,518.2,214.2,517.9,213.2z"/>
	<path fill="#331A0A" d="M495.9,213.2h3.2c0,0,1.2,4-2.9,4.2h-5.3c0,0-1.2-2.5,2-2.7C492.8,214.7,495.6,214.2,495.9,213.2z"/>
	<polygon fill="#1A1F25" points="517,146.1 518.3,214.4 513.5,214.4 504.7,157.7 500.9,213.9 494.9,213.9 493.7,145.7 	"/>
	<path fill="#1F2827" d="M505.2,144.6c0,0-3.7,5.9-13,12.2l1.1-14.6L505.2,144.6z"/>
	<path fill="#1F2827" d="M505.4,144.7c0,0,4.3,7.9,13.8,12.9l-1.7-14.6L505.4,144.7z"/>
	<path fill="#F6F5FA" d="M500.3,101.2l5.4,26l5.8-26.2C511.6,101.1,504.8,100,500.3,101.2z"/>
	<path fill="#D89F79" d="M497.7,76.6v15.7c0,1.6,1.3,2.8,2.8,2.8l0,0v6.1c0,0,3.2,6.2,10.9,0V88.5c0,0,2.3-0.5,2.3-3.2
		s-2.7-1.4-2.7-1.4v-7.4H497.7z"/>
	<path d="M511.1,84l-0.3,1h-1l-1.6-9.1l4.6,0.7v7.1C512.7,83.7,511.4,83.8,511.1,84z"/>
	<path fill="#C1272D" d="M502.8,102.5c0,0-0.1,3.3,2,3.2c2.1-0.1,1.4-3.5,1.4-3.5L502.8,102.5z"/>
	<polygon fill="#C1272D" points="505.7,104.7 508,118.2 505.8,127.3 503.2,115.8 503.8,104.6 	"/>
	<polygon fill="#F6F5FA" points="502.1,105.7 503.4,102.4 500.4,99.9 500.4,101.6 	"/>
	<polygon fill="#F6F5FA" points="511,103.7 511.6,101.9 511.3,98.8 505.4,102.2 506.6,104.8 	"/>
	<polygon fill="#1A1F25" points="505.8,127.3 506,131 513.9,114.8 511.6,113.3 515.2,101.1 513.5,99.1 511.3,98.8 511.6,101.9 	"/>
	<polygon fill="#1A1F25" points="500.5,99 500.5,101.9 505.7,127.5 505.9,129.6 499,115.7 501.2,112.4 496.7,101.9 497.6,99.4 	"/>
	<path fill="#D89F79" d="M484.8,149.5c0,0-1.6,6.4,2.3,7c3.9,0.6,4.3-1.5,3.2-2.3c-1.1-0.9,0.6-0.6,1.2-0.5c0.6,0.1,1.2-2.6-1-4.3
		C488.4,147.6,484.8,149.5,484.8,149.5z"/>
	<path fill="#1F2827" d="M490.1,100.8c0,0-20,11.5-6.4,51.1l4.6-3.7c0,0-8.6-30.5,5.2-39.5L490.1,100.8z"/>
	<path fill="#D89F79" d="M528.3,149.5c0,0,1.6,6.4-2.3,7c-3.9,0.6-4.3-1.5-3.2-2.3c1.1-0.9-0.6-0.6-1.2-0.5c-0.6,0.1-1.2-2.6,1-4.3
		C524.7,147.6,528.3,149.5,528.3,149.5z"/>
	<path fill="#1F2827" d="M523,100.8c0,0,20,11.5,6.4,51.1l-4.6-3.7c0,0,8.6-30.5-5.2-39.5L523,100.8z"/>
	<path d="M509.7,85c0,0,0.2,6.5-2.5,6.5c0,0-3.1-4.2-9.6-2.5l0.1,7.7l1.2-1l1.6,2.7l1.1-1.9l1.6,2.1l1.4-3l1.4,1.7l0.9-2.8l1.2,1.7
		c0,0,3.2-1.7,3.3-7.8l-0.9-4.6L509.7,85z"/>
	<path d="M509.6,76.9c0,0-7.7-0.8-8.8,0.6c0,0-2.1-0.8-3.1-0.2c0,0-1.4-5.5,5-6.2c6.4-0.6,11.4,1.9,12.6,8.6l-1-0.7v2.5l-2.7-1.5
		L509.6,76.9z"/>
</g>
<path fill="#505050" d="M458.4,82.4c0,0-6.2,11,6.7,13.9L458.4,82.4z"/>
<path fill="#505050" d="M466.1,81.2c0,0,9.7,8.1-1.3,15.4L466.1,81.2z"/>
<path fill="#C1272D" d="M465.8,96l-0.8,5c0,0-4.2,2.1-4-1.3c0.2-3.5,4.4-1.8,4.4-1.8v-2.2L465.8,96z"/>
<path fill="#C1272D" d="M464.8,96l1.8,4.7c0,0,5.1,0.9,4-2.4c-1.1-3.3-4.3-0.8-4.3-0.8l-0.6-2.2L464.8,96z"/>
<path fill="#D89F79" d="M461.7,99c-0.1,0.1-0.5,2.4,1.9,3.5c0,0,1.5-0.9,1.6-1.2C465.3,100.8,463.3,97.5,461.7,99z"/>
<path fill="#D89F79" d="M467,104.6c-1.6,1-0.2,0-0.2,0l-1.1,2.5l-3.4-0.8l1.3-3.8l1.5-1.2c0.9-0.2,1.5-1.3,2-2.3s2-1.3,2.5-0.5
	s-1,2.5-1,2.5s1.7-0.3,2-1C470.5,99.8,470.5,102.3,467,104.6z"/>
<path fill="#D89F79" d="M467.5,96.8c0,0-0.7-1.4,0.1-1.7s2.3,0.7,2.5,2.2C470.1,97.2,468.6,95.9,467.5,96.8z"/>
<path fill="#505050" d="M439,100.2c0,0,5.4,0.2,9.1,8.9s10.9,7.6,13-4.3l6.5,1.9c0,0-1.7,14.4-12.3,15c-10.5,0.6-11.8-7.4-14.7-10.4
	C440.5,111.3,440.1,106.8,439,100.2z"/>
<path fill="#D89F79" d="M467.6,99.3c0,0-2.5-1.8-3.8,0.7c-1.4,2.5,2.4,2.2,2.4,2.2L467.6,99.3z"/>
<path fill="#C1272D" d="M170.8,102.5c0,0,115,41.5,264.5,40.5s264.5-52.8,264.5-52.8l-0.5,12.8c0,0-114.5,58.2-265,58.2
	c-171.8,0-267.5-49.4-267.5-49.4L170.8,102.5z"/>
</svg>
