<?xml version="1.0" encoding="utf-8"?>
<!-- Generator: Adobe Illustrator 18.1.1, SVG Export Plug-In . SVG Version: 6.00 Build 0)  -->
<svg version="1.1" id="Layer_1" xmlns="http://www.w3.org/2000/svg" xmlns:xlink="http://www.w3.org/1999/xlink" x="0px" y="0px"
	 viewBox="0 0 663 164.7" enable-background="new 0 0 663 164.7" xml:space="preserve">
<g>
	<g>
		<path fill="#212951" d="M367.1,54.7c0,0,2.2,3.9,7.6,3.5l0.7-3.5c0,0-7.9-3.5-8.3-7.7V54.7z"/>
		<rect x="366.3" y="46.5" fill="#726965" width="0.8" height="32.4"/>
		<path fill="#212951" d="M411.2,57.1c0,0,2.2,3.9,7.6,3.5l0.7-3.5c0,0-7.9-3.5-8.3-7.7V57.1z"/>
		<rect x="410.3" y="48.9" fill="#726965" width="0.8" height="32.4"/>
		<path fill="#212951" d="M455.9,61.3c0,0,2.2,3.9,7.6,3.5l0.7-3.5c0,0-7.9-3.5-8.3-7.7V61.3z"/>
		<rect x="455.1" y="53.1" fill="#726965" width="0.8" height="32.4"/>
		<path fill="#212951" d="M493.1,67.1c0,0,2.2,3.9,7.6,3.5l0.7-3.5c0,0-7.9-3.5-8.3-7.7V67.1z"/>
		<rect x="492.3" y="58.9" fill="#726965" width="0.8" height="32.4"/>
		<path fill="#212951" d="M528.1,77c0,0,2,3.4,6.7,3.1l0.7-3.1c0,0-7-3.1-7.4-6.9V77z"/>
		<rect x="527.3" y="69.7" fill="#726965" width="0.7" height="28.8"/>
		<path fill="#212951" d="M556.6,88.1c0,0,1.7,3,5.9,2.7l0.6-2.7c0,0-6.2-2.7-6.4-6V88.1z"/>
		<rect x="556" y="81.7" fill="#726965" width="0.6" height="25.2"/>
		<path fill="#212951" d="M578.2,95.7c0,0,1.7,3,5.9,2.7l0.6-2.7c0,0-6.2-2.7-6.4-6V95.7z"/>
		<rect x="577.5" y="89.3" fill="#726965" width="0.6" height="25.2"/>
		<path fill="#CEB85D" d="M389.9,55.6c0,0,2.2,3.9,7.6,3.5l0.7-3.5c0,0-7.9-3.5-8.3-7.7V55.6z"/>
		<rect x="389.1" y="47.4" fill="#726965" width="0.8" height="32.4"/>
		<path fill="#CEB85D" d="M435.3,59.1c0,0,2.2,3.9,7.6,3.5l0.7-3.5c0,0-7.9-3.5-8.3-7.7V59.1z"/>
		<rect x="434.4" y="50.9" fill="#726965" width="0.8" height="32.4"/>
		<path fill="#CEB85D" d="M476,64.1c0,0,2.2,3.9,7.6,3.5l0.7-3.5c0,0-7.9-3.5-8.3-7.7V64.1z"/>
		<rect x="475.2" y="55.9" fill="#726965" width="0.8" height="32.4"/>
		<path fill="#CEB85D" d="M512,73.5c0,0,2,3.5,6.8,3.1l0.7-3.1c0,0-7.1-3.1-7.5-7V73.5z"/>
		<rect x="511.3" y="66.2" fill="#726965" width="0.7" height="29.1"/>
		<path fill="#CEB85D" d="M543.4,82.6c0,0,1.9,3.2,6.3,2.9l0.6-2.9c0,0-6.6-2.9-7-6.5V82.6z"/>
		<rect x="542.7" y="75.7" fill="#726965" width="0.7" height="27.2"/>
		<path fill="#CEB85D" d="M568.1,92.6c0,0,1.7,2.9,5.6,2.6l0.6-2.6c0,0-5.9-2.6-6.2-5.8V92.6z"/>
		<rect x="567.5" y="86.4" fill="#726965" width="0.6" height="24.2"/>
		<path fill="#CEB85D" d="M587.9,102.2c0,0,1.5,2.6,5,2.3l0.5-2.3c0,0-5.3-2.3-5.5-5.2V102.2z"/>
		<rect x="587.3" y="96.7" fill="#726965" width="0.6" height="21.6"/>
	</g>
	<g>
		<path fill="#212951" d="M304.9,57.8c0,0-2.2,3.9-7.6,3.5l-0.7-3.5c0,0,7.9-3.5,8.3-7.7V57.8z"/>
		<rect x="304.9" y="49.6" fill="#726965" width="0.8" height="32.4"/>
		<path fill="#212951" d="M260.8,60.2c0,0-2.2,3.9-7.6,3.5l-0.7-3.5c0,0,7.9-3.5,8.3-7.7V60.2z"/>
		<rect x="260.8" y="52" fill="#726965" width="0.8" height="32.4"/>
		<path fill="#212951" d="M216.1,64.5c0,0-2.2,3.9-7.6,3.5l-0.7-3.5c0,0,7.9-3.5,8.3-7.7V64.5z"/>
		<rect x="216.1" y="56.3" fill="#726965" width="0.8" height="32.4"/>
		<path fill="#212951" d="M178.9,70.3c0,0-2.2,3.9-7.6,3.5l-0.7-3.5c0,0,7.9-3.5,8.3-7.7V70.3z"/>
		<rect x="178.9" y="62.1" fill="#726965" width="0.8" height="32.4"/>
		<path fill="#212951" d="M143.9,80.1c0,0-2,3.4-6.7,3.1l-0.7-3.1c0,0,7-3.1,7.4-6.9V80.1z"/>
		<rect x="143.9" y="72.8" fill="#726965" width="0.7" height="28.8"/>
		<path fill="#212951" d="M115.4,91.2c0,0-1.7,3-5.9,2.7l-0.6-2.7c0,0,6.2-2.7,6.4-6V91.2z"/>
		<rect x="115.4" y="84.8" fill="#726965" width="0.6" height="25.2"/>
		<path fill="#212951" d="M93.8,98.9c0,0-1.7,3-5.9,2.7l-0.6-2.7c0,0,6.2-2.7,6.4-6V98.9z"/>
		<rect x="93.8" y="92.5" fill="#726965" width="0.6" height="25.2"/>
		<path fill="#CEB85D" d="M282.1,58.8c0,0-2.2,3.9-7.6,3.5l-0.7-3.5c0,0,7.9-3.5,8.3-7.7V58.8z"/>
		<rect x="282.1" y="50.6" fill="#726965" width="0.8" height="32.4"/>
		<path fill="#CEB85D" d="M236.8,62.2c0,0-2.2,3.9-7.6,3.5l-0.7-3.5c0,0,7.9-3.5,8.3-7.7V62.2z"/>
		<rect x="236.8" y="54" fill="#726965" width="0.8" height="32.4"/>
		<path fill="#CEB85D" d="M196,67.3c0,0-2.2,3.9-7.6,3.5l-0.7-3.5c0,0,7.9-3.5,8.3-7.7V67.3z"/>
		<rect x="196" y="59.1" fill="#726965" width="0.8" height="32.4"/>
		<path fill="#CEB85D" d="M160,76.7c0,0-2,3.5-6.8,3.1l-0.7-3.1c0,0,7.1-3.1,7.5-7V76.7z"/>
		<rect x="160" y="69.3" fill="#726965" width="0.7" height="29.1"/>
		<path fill="#CEB85D" d="M128.6,85.8c0,0-1.9,3.2-6.3,2.9l-0.6-2.9c0,0,6.6-2.9,7-6.5V85.8z"/>
		<rect x="128.6" y="78.9" fill="#726965" width="0.7" height="27.2"/>
		<path fill="#CEB85D" d="M103.9,95.7c0,0-1.7,2.9-5.6,2.6l-0.6-2.6c0,0,5.9-2.6,6.2-5.8V95.7z"/>
		<rect x="103.9" y="89.6" fill="#726965" width="0.6" height="24.2"/>
		<path fill="#CEB85D" d="M84.1,105.3c0,0-1.5,2.6-5,2.3l-0.5-2.3c0,0,5.3-2.3,5.5-5.2V105.3z"/>
		<rect x="84.1" y="99.8" fill="#726965" width="0.6" height="21.6"/>
	</g>
	<ellipse fill="#726965" cx="332.9" cy="71.4" rx="12.5" ry="5.4"/>
	<rect x="310.7" y="74.4" fill="#A89A94" width="43.9" height="10.3"/>
	<path fill="#BEADA6" d="M630.3,142.9c0,0-66.8-64.3-293.4-64.3s-287,63.7-287,63.7L630.3,142.9z"/>
	<path fill="#848484" d="M619.6,142.2c0,0-59-50.8-285.6-50.8S59.4,142.2,59.4,142.2H619.6z"/>
	<polygon fill="#6D6E71" points="7.3,164.7 657,164.7 643.3,143.7 425.5,129.9 220.5,129.9 11.2,145.3 	"/>
	<rect x="226" y="132.6" fill="#010101" width="202.3" height="32.1"/>
	<polygon fill="#7D7D7F" points="428.3,123.9 436.2,123.9 444.7,164.7 428.3,164.7 	"/>
	<polygon fill="#7D7D7F" points="226,123.9 218.1,123.9 209.6,164.7 226,164.7 	"/>
	<rect x="219.6" y="126.8" fill="#BEADA6" width="215" height="5.8"/>
	<rect x="223.5" y="121" fill="#A89A94" width="206.2" height="5.8"/>
	<rect x="226" y="160.8" fill="#545456" width="202.3" height="3.9"/>
	<rect x="253.3" y="132.6" fill="#BEADA6" width="3.5" height="28.2"/>
	<rect x="281.5" y="132.6" fill="#BEADA6" width="3.5" height="28.2"/>
	<rect x="310.7" y="132.6" fill="#BEADA6" width="3.5" height="28.2"/>
	<rect x="338.9" y="132.6" fill="#BEADA6" width="3.5" height="28.2"/>
	<rect x="368.4" y="132.6" fill="#BEADA6" width="3.5" height="28.2"/>
	<rect x="396.6" y="132.6" fill="#BEADA6" width="3.5" height="28.2"/>
	<polygon fill="#BEADA6" points="451.4,121 451.4,123.2 485.5,124.5 485.5,122.2 470,120.5 	"/>
	<polygon fill="#010101" points="454.7,123.3 454.7,131.7 482.6,133.5 482.6,124.4 	"/>
	<polygon fill="#BEADA6" points="575.1,129.3 575.1,131.2 590.9,133.5 590.9,131.7 584.5,129.9 	"/>
	<polygon fill="#010101" points="576.6,131.4 576.6,139.4 589.1,140.2 589.1,133.2 	"/>
	<polygon fill="#BEADA6" points="215.2,120 215.2,122.2 181.1,123.5 181.1,121.2 196.6,119.4 	"/>
	<polygon fill="#010101" points="211.9,122.3 211.9,130.6 184.1,132.4 184.1,123.4 	"/>
	<polygon fill="#BEADA6" points="95.3,129.3 95.3,131.3 79.5,133.5 79.5,131.7 85.9,129.9 	"/>
	<polygon fill="#010101" points="93.8,131.5 93.8,139.5 81.4,140.3 81.4,133.2 	"/>
	<polygon fill="#726965" points="64.9,131 64.9,60.5 74.8,64.1 74.8,125.2 	"/>
	<polygon fill="#0A0603" points="74.8,64.1 88.5,41.7 86.6,41.7 72.9,63.4 	"/>
	<polygon fill="#0A0603" points="67.9,61.6 84.1,39.3 81.6,39.3 64.9,60.5 	"/>
	<polygon fill="#0A0603" points="72.9,46.3 79.7,47.9 100.2,35.2 92.2,33.5 	"/>
	<polygon fill="#414042" points="100.2,35.2 115.4,5.6 112.5,5.6 92.2,33.5 	"/>
	<polygon fill="#58595B" points="72.9,46.3 92.2,33.5 112.5,5.6 90,22.9 	"/>
	<rect x="70.9" y="55.9" fill="#0A0603" width="7.1" height="1.2"/>
	<rect x="74.5" y="50.9" fill="#0A0603" width="7.1" height="1.2"/>
	
		<rect x="72.7" y="53.6" transform="matrix(0.5851 0.811 -0.811 0.5851 75.3681 -39.4917)" fill="#0A0603" width="7.1" height="0.6"/>
	
		<rect x="68.6" y="59.9" transform="matrix(0.5145 0.8575 -0.8575 0.5145 86.6376 -32.6943)" fill="#0A0603" width="7.1" height="0.6"/>
	<rect x="76" y="47.5" transform="matrix(0.5851 0.811 -0.811 0.5851 71.7687 -44.7268)" fill="#0A0603" width="7.1" height="0.6"/>
	<polygon fill="#726965" points="614.3,131 614.3,60.5 604.4,64.1 604.4,125.2 	"/>
	<polygon fill="#0A0603" points="604.4,64.1 590.7,41.7 592.7,41.7 606.3,63.4 	"/>
	<polygon fill="#0A0603" points="611.4,61.6 595.1,39.3 597.6,39.3 614.3,60.5 	"/>
	<polygon fill="#0A0603" points="606.3,46.3 599.6,47.9 579,35.2 587,33.5 	"/>
	<polygon fill="#414042" points="579,35.2 563.8,5.6 566.7,5.6 587,33.5 	"/>
	<polygon fill="#58595B" points="606.3,46.3 587,33.5 566.7,5.6 589.2,22.9 	"/>
	<rect x="601.2" y="55.9" fill="#0A0603" width="7.1" height="1.2"/>
	<rect x="597.6" y="50.9" fill="#0A0603" width="7.1" height="1.2"/>
	
		<rect x="599.4" y="53.6" transform="matrix(-0.5851 0.811 -0.811 -0.5851 999.4451 -403.5193)" fill="#0A0603" width="7.1" height="0.6"/>
	
		<rect x="603.5" y="59.9" transform="matrix(-0.5145 0.8575 -0.8575 -0.5145 970.9672 -429.3857)" fill="#0A0603" width="7.1" height="0.6"/>
	
		<rect x="596.1" y="47.5" transform="matrix(-0.5851 0.811 -0.811 -0.5851 989.2128 -410.5546)" fill="#0A0603" width="7.1" height="0.6"/>
	<g>
		<polygon fill="#B7928C" points="244.7,121.4 252.1,105.8 318.4,101.2 320.3,121.4 		"/>
		<path fill="#625859" d="M305,108.5c0.1,0.9-0.2,1.8-1,2.4c1.2-0.1,2.4-0.4,3.6-0.8c-0.2,0.5-0.4,1-0.6,1.5
			c1.1,0.4,2.3,0.4,3.4,0.1c1.7,1.5,4.3,1.9,6.3,1c0.4-0.2,0.9-0.4,1.1-0.8c0.7-0.9,0.2-2.3-0.7-3s-2.1-0.9-3.2-1.2
			c-4.3-0.9-8.4-2.3-12.3-4.2c-0.7-0.3-1.4-0.8-1.5-1.6c-0.1-0.7,0.5-1.2,0.9-1.7c0.9-0.9,1.9-1.8,2.8-2.7c1-0.9,2-2.3,1.3-3.5
			c-0.6-0.9-1.8-0.9-2.8-0.8c-5.7,0.4-11.3,1.3-16.9,2.3c-1.2,0.2-2.5,0.4-3.7,0.7c-4.8,0.9-9.5,2.2-14.2,3.7
			c-2.2,0.7-4.4,1.5-6.3,2.8c-1.1,0.8-2.1,1.7-3.1,2.7c-1.5,1.5-2.9,3.1-4.2,4.8c-1,1.2-1.9,2.5-2.2,4c-0.3,1.5,0.3,3.3,1.7,3.9
			c1.7,0.8,3.7-0.5,4.6-2.1c-0.2,1,0.7,2.1,1.7,2.2c1,0.1,2.1-0.8,2.1-1.8c0.4,0.6,0.8,1.3,1.4,1.8c0.6,0.4,1.5,0.5,2.1,0.1
			c0.3-0.2,0.4-0.6,0.7-0.8c0.4-0.4,0.9-0.6,1.4-0.7c3.5-1.1,6.9-2.2,10.4-3.3c0.6-0.2,1.2-0.4,1.7-0.8c1.2-0.9,1.5-2.4,2.5-3.5
			c1.5-1.8,4.3-2,6.6-1.5c2.3,0.6,4.4,1.8,6.7,2.3c2.3,0.6,5,0.3,6.5-1.5c-0.3,0.9-0.9,1.7-1.7,2.2
			C301.9,110.4,303.7,109.6,305,108.5z"/>
		<path fill="#B7928C" d="M222.9,118.7c0.4-1.1,1.6-1.6,2.7-2c4.2-1.7,8-4.4,10.9-7.9c0.9,0.9,2.2,1.4,3.4,1.3
			c-0.2,2.1-2.1,4.2-1.1,6.1c0.9,1.7,3.3,1.6,5.1,1.2c0.1-1.4-1.7-2.5-1.7-3.9c0-1.4,1.5-2.5,1.3-3.8c-0.4-1.9-4.1-2-4-3.9
			c0-0.4,0.2-0.7,0.4-1c1.1-1.7,2.7-3,4.5-3.9c0.6-0.3,1.3-0.5,1.9-0.7c4.1-1.3,8.4-1.9,12.7-1.7c-0.3-1.2-1.4-2-2.6-2.3
			s-2.4-0.1-3.6,0.1c-2.5,0.4-5,0.8-7.6,1.3c0.8,0,1-1.2,0.4-1.8c-0.6-0.5-1.5-0.4-2.2-0.1c-0.7,0.3-1.3,0.9-2,1.2
			c-0.5,0.2-1.1,0.3-1.7,0.4c-5.2,0.9-9.6,4.2-13.6,7.6c-0.5,0.4-1,0.9-1.2,1.5c-0.2,0.6,0.1,1.5,0.8,1.6c0.5,0.1,0.9-0.2,1.3-0.5
			c3.2-2.3,6.5-4.6,9.7-6.9c-3.4,3-4,8.7-7.9,11.1c-1.4,0.9-3.1,1.2-4.6,2.1c-1.1,0.7-2.1,1.7-2.7,2.9c-0.6,1.2-0.8,2.7-0.1,3.8
			c0.7,1.1,2.6,1.4,3.3,0.4C224.4,119.8,223.7,119,222.9,118.7z"/>
		<path fill="#F2EBE5" d="M242.3,108c-1.1-0.2-2.4-0.7-2.5-1.8c0-0.4,0.2-0.8,0.4-1.2c0.4-0.7,0.9-1.3,1.6-1.9
			c1-0.9,2.3-1.4,3.3-2.3c1.1-0.8,1.9-2.1,1.8-3.4c-1.4,0.5-2.9,0.9-4.3,0.4c-0.4-0.2-0.8-0.5-1.3-0.7c-1.4-0.6-2.9-0.1-4.3,0.5
			c-1.5,0.7-3,1.4-4.5,2.2c0.2,0.9,0.3,1.8,0.2,2.6c1-0.2,1.9-0.7,2.7-1.3c-1.7,3.4-3.8,6.6-6.2,9.6c0.7,0.6,1.5,1.2,2.2,1.8
			c1.6-0.9,3.1-2.2,4.1-3.7c1.1,0.4,2.1,0.8,3.2,1.2c0.2,0.1,0.4,0.2,0.6,0.1c0.2,0,0.4-0.2,0.6-0.3
			C240.7,109.3,241.5,108.7,242.3,108z"/>
		<path fill="#FBFAF6" d="M317.4,96.2C317.4,96.2,317.4,96.2,317.4,96.2c-0.7,0.6-1.3,1.1-1.8,1.8s-0.7,1.6-0.4,2.4
			c0.3,0.8,1,1.4,1.9,1.7c0.8,0.3,1.7,0.3,2.6,0.3c1,0,2,0,3-0.4c1-0.5,1.7-1.5,2.3-2.4c0.5-0.9,1-2,0.5-2.9c-0.4-0.8-1.4-1-2.3-1
			C321.7,95.6,318.5,95.4,317.4,96.2z"/>
		<path fill="#776563" d="M317.3,97.1c-0.2-0.1-0.3,0.1-0.4,0.2c-0.5,0.6-0.6,1.6-0.3,2.3c0.3,0.7,1,1.3,1.8,1.5
			c1,0.3,2.1,0.2,2.9-0.3s1.4-1.6,1.3-2.6c-0.1-0.9-0.6-1.7-0.3-2.5c0.2-0.6,0.8-1.1,1.1-1.7c0.4-0.8,0-1.9-0.7-2.5
			c-0.7-0.6-1.6-0.8-2.5-0.9c-2-0.1-4,0.5-5.5,1.8c0.9-0.1,1.8-0.1,2.6,0.3c0.8,0.4,1.3,1.4,0.9,2.2c-0.3,0.6-1.1,0.8-1.6,1.2
			C315.5,97.1,316.1,96.6,317.3,97.1z"/>
		<path fill="#C6BEB1" d="M316.5,95.4c0,0,0.1,0,0.1,0c-0.6,0.8-1.8,1-2.7,0.9c-1-0.1-1.9-0.6-2.8-1.1c-0.6-0.3-1.2-0.7-1.8-1
			c2.2,0.9,4.8,1.4,6.8,0.2c-1.1-0.6-2.3-1.2-3.6-1.5c-1.3-0.3-2.6-0.2-3.8,0.4c0.3-1.1,1.3-2.1,2.4-2.5c0.2-0.1,0.5-0.1,0.7-0.1
			c1.2,0,2.1,1.2,3.3,1.5c0.6,0.1,1.3,0,1.9,0c0.6,0,1.3,0.2,1.6,0.8c0.3,0.7-0.2,1.6-0.9,2.1c-1,0.7-2.3,1.1-3.4,0.6"/>
		<path fill="#EEDDD3" d="M289,111.5c-0.7-2.3-3.9-3.3-5.8-1.8c-0.4,0.3-0.7,0.7-0.7,1.1c-0.1,1,1.1,1.5,2.1,1.7
			c1.5,0.3,2.9,0.7,4.4,1c-1.4,0.1-2.8,0.1-4.2,0.2c-1.2,0.1-2.4,0.1-3.4,0.7c-1,0.6-1.7,1.9-1.2,3c0.2,0.5,0.7,0.9,1.2,1.2
			c1.9,1,4.3,0.5,5.7-1c0.7-0.8,1.4-1.9,2.4-1.8c0.4,0,0.8,0.3,1.1,0.4c1.7,0.9,4.1,0.9,5.3-0.5c0.7,0.8,1.9,0.1,2.9-0.4
			c1.5-0.8,3.4-0.8,4.9,0c0.8,0.4,1.6,1.1,2.5,1c1.5-0.2,1.9-2.4,1-3.6s-2.5-1.6-4-2c-0.7-0.2-1.5-0.3-2.1,0.1
			c-0.4,0.3-0.7,0.8-1.1,1.1c-1.2,1-3.1-0.2-4.5,0.4c-0.9,0.4-1.6,1.3-2.5,1.2c-0.6-0.1-1-0.7-1.4-1.2c-1.7-2-4.5-2.6-7.1-3.1"/>
		<path fill="#392628" d="M276.5,109.8c-0.2,0.3-0.6,0.3-0.9,0.3c-2.4,0.2-4.8,0.7-7.1,1.3c-1.9,0.5-3.9,1.2-4.7,2.9
			c-0.8,1.6-0.2,3.9,1.4,4.8c1.6,0.9,3.8,0.4,4.9-1.1c-0.2-0.8-1.3-1-1.6-1.7c-0.2-0.6,0.2-1.3,0.8-1.5c0.6-0.3,1.2-0.3,1.9-0.3
			c3.3-0.1,6.6-1.7,8.8-4.2c1.3-1.5,2.9-3.5,4.8-2.8c0.6,0.2,1,0.6,1.5,0.9c1.8,0.9,3.9,0.1,5.8,0.6c0.3,0.1,0.5,0.2,0.7,0.4
			c0.2,0.3,0.1,0.7,0.1,1c-0.2,2.2,1.9,3.8,3.7,4.9c-0.4,0.4-0.8,0.9-1.3,1.3c1.3,2.1,4.6,2.6,6.5,1c-1.8-1.9-3.2-4.1-4.2-6.5
			c-0.4-0.9-0.7-1.9-1.3-2.8c-1.9-2.6-5.5-2.9-8.6-3.3c-0.7-0.1-1.6-0.6-1.2-1.2c0.2-0.3,0.6-0.3,0.9-0.3c4.5,0.1,8.9,0.1,13.4,0.2
			c0.5,0,1,0,1.5,0.2c0.5,0.2,0.9,0.7,1.3,1.1c3.3,3.3,8.4,3.9,13.1,4.4c1.4,0.1,2.9,0.3,4.2-0.4c-0.8-1.4-2.6-1.7-4.1-2.1
			c-3.2-0.7-6.4-1.7-9.4-3c2.8-0.2,5.6,0.7,8.4,1.2c2.8,0.5,5.9,0.4,8.1-1.5c-0.4-1.1-1.9-1.3-3.1-1.3c-3.7,0-7.4,0.1-11.1,0.1
			c1.5-0.7,3.5-0.3,4.6-1.4c1.2-1.2,0.5-3.5-1-4.3c-1.5-0.8-3.4-0.6-5,0c-0.9,0.3-1.7,0.6-2.6,0.8c-1.1,0.2-2.2,0-3.3,0
			c-5.4-0.3-10.7,1.1-15.9,2.5c-2.3,0.6-4.6,1.2-6.5,2.6c-1.9,1.4-3.3,3.7-3,6C276.7,108.9,276.8,109.5,276.5,109.8z"/>
		<g>
			<polygon fill="#B7928C" points="409.6,121.4 402.2,105.8 335.9,101.2 333.9,121.4 			"/>
			<path fill="#625859" d="M349.3,108.5c-0.1,0.9,0.2,1.8,1,2.4c-1.2-0.1-2.4-0.4-3.6-0.8c0.2,0.5,0.4,1,0.6,1.5
				c-1.1,0.4-2.3,0.4-3.4,0.1c-1.7,1.5-4.3,1.9-6.3,1c-0.4-0.2-0.9-0.4-1.1-0.8c-0.7-0.9-0.2-2.3,0.7-3s2.1-0.9,3.2-1.2
				c4.3-0.9,8.4-2.3,12.3-4.2c0.7-0.3,1.4-0.8,1.5-1.6c0.1-0.7-0.5-1.2-0.9-1.7c-0.9-0.9-1.9-1.8-2.8-2.7c-1-0.9-2-2.3-1.3-3.5
				c0.6-0.9,1.8-0.9,2.8-0.8c5.7,0.4,11.3,1.3,16.9,2.3c1.2,0.2,2.5,0.4,3.7,0.7c4.8,0.9,9.5,2.2,14.2,3.7c2.2,0.7,4.4,1.5,6.3,2.8
				c1.1,0.8,2.1,1.7,3.1,2.7c1.5,1.5,2.9,3.1,4.2,4.8c1,1.2,1.9,2.5,2.2,4s-0.3,3.3-1.7,3.9c-1.7,0.8-3.7-0.5-4.6-2.1
				c0.2,1-0.7,2.1-1.7,2.2c-1,0.1-2.1-0.8-2.1-1.8c-0.4,0.6-0.8,1.3-1.4,1.8c-0.6,0.4-1.5,0.5-2.1,0.1c-0.3-0.2-0.4-0.6-0.7-0.8
				c-0.4-0.4-0.9-0.6-1.4-0.7c-3.5-1.1-6.9-2.2-10.4-3.3c-0.6-0.2-1.2-0.4-1.7-0.8c-1.2-0.9-1.5-2.4-2.5-3.5c-1.5-1.8-4.3-2-6.6-1.5
				c-2.3,0.6-4.4,1.8-6.7,2.3c-2.3,0.6-5,0.3-6.5-1.5c0.3,0.9,0.9,1.7,1.7,2.2C352.4,110.4,350.6,109.7,349.3,108.5z"/>
			<path fill="#B7928C" d="M431.4,118.7c-0.4-1.1-1.6-1.6-2.7-2c-4.2-1.7-8-4.4-10.9-7.9c-0.9,0.9-2.2,1.4-3.4,1.3
				c0.2,2.1,2.1,4.2,1.1,6.1c-0.9,1.7-3.3,1.6-5.1,1.2c-0.1-1.4,1.7-2.5,1.7-3.9c0-1.4-1.5-2.5-1.3-3.8c0.4-1.9,4.1-2,4-3.9
				c0-0.4-0.2-0.7-0.4-1c-1.1-1.7-2.7-3-4.5-3.9c-0.6-0.3-1.3-0.5-1.9-0.7c-4.1-1.3-8.4-1.9-12.7-1.7c0.3-1.2,1.4-2,2.6-2.3
				s2.4-0.1,3.6,0.1c2.5,0.4,5,0.8,7.6,1.3c-0.8,0-1-1.2-0.4-1.8c0.6-0.5,1.5-0.4,2.2-0.1s1.3,0.9,2,1.2c0.5,0.2,1.1,0.3,1.7,0.4
				c5.2,0.9,9.6,4.2,13.6,7.6c0.5,0.4,1,0.9,1.2,1.5c0.2,0.6-0.1,1.5-0.8,1.6c-0.5,0.1-0.9-0.2-1.3-0.5c-3.2-2.3-6.5-4.6-9.7-6.9
				c3.4,3,4,8.7,7.9,11.1c1.4,0.9,3.1,1.2,4.6,2.1c1.1,0.7,2.1,1.7,2.7,2.9c0.6,1.2,0.8,2.7,0.1,3.8c-0.7,1.1-2.6,1.4-3.3,0.4
				C429.9,119.9,430.6,119.1,431.4,118.7z"/>
			<path fill="#F2EBE5" d="M412,108.1c1.1-0.2,2.4-0.7,2.5-1.8c0-0.4-0.2-0.8-0.4-1.2c-0.4-0.7-0.9-1.3-1.6-1.9
				c-1-0.9-2.3-1.4-3.3-2.3c-1.1-0.8-1.9-2.1-1.8-3.4c1.4,0.5,2.9,0.9,4.3,0.4c0.4-0.2,0.8-0.5,1.3-0.7c1.4-0.6,2.9-0.1,4.3,0.5
				c1.5,0.7,3,1.4,4.5,2.2c-0.2,0.9-0.3,1.8-0.2,2.6c-1-0.2-1.9-0.7-2.7-1.3c1.7,3.4,3.8,6.6,6.2,9.6c-0.7,0.6-1.5,1.2-2.2,1.8
				c-1.6-0.9-3.1-2.2-4.1-3.7c-1.1,0.4-2.1,0.8-3.2,1.2c-0.2,0.1-0.4,0.2-0.6,0.1c-0.2,0-0.4-0.2-0.6-0.3
				C413.6,109.4,412.8,108.7,412,108.1z"/>
			<path fill="#FBFAF6" d="M336.9,96.3C336.9,96.3,336.9,96.3,336.9,96.3c0.7,0.6,1.3,1.1,1.8,1.8s0.7,1.6,0.4,2.4
				c-0.3,0.8-1,1.4-1.9,1.7c-0.8,0.3-1.7,0.3-2.6,0.3c-1,0-2,0-3-0.4c-1-0.5-1.7-1.5-2.3-2.4c-0.5-0.9-1-2-0.5-2.9
				c0.4-0.8,1.4-1,2.3-1C332.6,95.7,335.8,95.4,336.9,96.3z"/>
			<path fill="#776563" d="M337,97.2c0.2-0.1,0.3,0.1,0.4,0.2c0.5,0.6,0.6,1.6,0.3,2.3c-0.3,0.7-1,1.3-1.8,1.5
				c-1,0.3-2.1,0.2-2.9-0.3c-0.8-0.5-1.4-1.6-1.3-2.6c0.1-0.9,0.6-1.7,0.3-2.5c-0.2-0.6-0.8-1.1-1.1-1.7c-0.4-0.8,0-1.9,0.7-2.5
				s1.6-0.8,2.5-0.9c2-0.1,4,0.5,5.5,1.8c-0.9-0.1-1.8-0.1-2.6,0.3c-0.8,0.4-1.3,1.4-0.9,2.2c0.3,0.6,1.1,0.8,1.6,1.2
				C338.8,97.1,338.2,96.6,337,97.2z"/>
			<path fill="#C6BEB1" d="M337.8,95.5c0,0-0.1,0-0.1,0c0.6,0.8,1.8,1,2.7,0.9c1-0.1,1.9-0.6,2.8-1.1c0.6-0.3,1.2-0.7,1.8-1
				c-2.2,0.9-4.8,1.4-6.8,0.2c1.1-0.6,2.3-1.2,3.6-1.5c1.3-0.3,2.6-0.2,3.8,0.4c-0.3-1.1-1.3-2.1-2.4-2.5c-0.2-0.1-0.5-0.1-0.7-0.1
				c-1.2,0-2.1,1.2-3.3,1.5c-0.6,0.1-1.3,0-1.9,0c-0.6,0-1.3,0.2-1.6,0.8c-0.3,0.7,0.2,1.6,0.9,2.1c1,0.7,2.3,1.1,3.4,0.6"/>
			<path fill="#EEDDD3" d="M365.3,111.6c0.7-2.3,3.9-3.3,5.8-1.8c0.4,0.3,0.7,0.7,0.7,1.1c0.1,1-1.1,1.5-2.1,1.7
				c-1.5,0.3-2.9,0.7-4.4,1c1.4,0.1,2.8,0.1,4.2,0.2c1.2,0.1,2.4,0.1,3.4,0.7s1.7,1.9,1.2,3c-0.2,0.5-0.7,0.9-1.2,1.2
				c-1.9,1-4.3,0.5-5.7-1c-0.7-0.8-1.4-1.9-2.4-1.8c-0.4,0-0.8,0.3-1.1,0.4c-1.7,0.9-4.1,0.9-5.3-0.5c-0.7,0.8-1.9,0.1-2.9-0.4
				c-1.5-0.8-3.4-0.8-4.9,0c-0.8,0.4-1.6,1.1-2.5,1c-1.5-0.2-1.9-2.4-1-3.6c0.9-1.2,2.5-1.6,4-2c0.7-0.2,1.5-0.3,2.1,0.1
				c0.4,0.3,0.7,0.8,1.1,1.1c1.2,1,3.1-0.2,4.5,0.4c0.9,0.4,1.6,1.3,2.5,1.2c0.6-0.1,1-0.7,1.4-1.2c1.7-2,4.5-2.6,7.1-3.1"/>
			<path fill="#392628" d="M377.8,109.9c0.2,0.3,0.6,0.3,0.9,0.3c2.4,0.2,4.8,0.7,7.1,1.3c1.9,0.5,3.9,1.2,4.7,2.9
				c0.8,1.6,0.2,3.9-1.4,4.8c-1.6,0.9-3.8,0.4-4.9-1.1c0.2-0.8,1.3-1,1.6-1.7c0.2-0.6-0.2-1.3-0.8-1.5c-0.6-0.3-1.2-0.3-1.9-0.3
				c-3.3-0.1-6.6-1.7-8.8-4.2c-1.3-1.5-2.9-3.5-4.8-2.8c-0.6,0.2-1,0.6-1.5,0.9c-1.8,0.9-3.9,0.1-5.8,0.6c-0.3,0.1-0.5,0.2-0.7,0.4
				c-0.2,0.3-0.1,0.7-0.1,1c0.2,2.2-1.9,3.8-3.7,4.9c0.4,0.4,0.8,0.9,1.3,1.3c-1.3,2.1-4.6,2.6-6.5,1c1.8-1.9,3.2-4.1,4.2-6.5
				c0.4-0.9,0.7-1.9,1.3-2.8c1.9-2.6,5.5-2.9,8.6-3.3c0.7-0.1,1.6-0.6,1.2-1.2c-0.2-0.3-0.6-0.3-0.9-0.3c-4.5,0.1-8.9,0.1-13.4,0.2
				c-0.5,0-1,0-1.5,0.2c-0.5,0.2-0.9,0.7-1.3,1.1c-3.3,3.3-8.4,3.9-13.1,4.4c-1.4,0.1-2.9,0.3-4.2-0.4c0.8-1.4,2.6-1.7,4.1-2.1
				c3.2-0.7,6.4-1.7,9.4-3c-2.8-0.2-5.6,0.7-8.4,1.2c-2.8,0.5-5.9,0.4-8.1-1.5c0.4-1.1,1.9-1.3,3.1-1.3c3.7,0,7.4,0.1,11.1,0.1
				c-1.5-0.7-3.5-0.3-4.6-1.4c-1.2-1.2-0.5-3.5,1-4.3c1.5-0.8,3.4-0.6,5,0c0.9,0.3,1.7,0.6,2.6,0.8c1.1,0.2,2.2,0,3.3,0
				c5.4-0.3,10.7,1.1,15.9,2.5c2.3,0.6,4.6,1.2,6.5,2.6s3.3,3.7,3,6C377.6,109,377.5,109.5,377.8,109.9z"/>
		</g>
		<path fill="#392628" d="M325.3,103.3c0,0.8-0.9,1.2-1.7,1.6c-0.9,0.4-1.8,1-2.5,1.8c-0.5,0.6-0.9,1.6-0.2,2
			c0.7-0.1,1.6-0.1,2.2,0.4c1,0.8,0.6,2.3,0.6,3.6c0,1.6,0.6,3.3-0.2,4.7c-0.7,1.2-2.3,1.8-2.7,3.1c1.2,0.5,2.7,1,3.7,0.1
			c0.8-0.7,0.8-1.8,0.9-2.9c0.1-1.3,0.4-2.5,0.8-3.7c0.1-0.4,0.4-0.8,0.8-0.7c0.3,0.1,0.4,0.5,0.4,0.7c0.2,2.1,0.3,4.3,0.3,6.4
			c1.3,0.5,2.7,0.6,4,0.1c0.6-0.2,1.2-0.7,1.1-1.3c-0.1-1.1-2.1-1-2.5-2c-0.1-0.2-0.1-0.5-0.1-0.7c0-2.6,0-5.1,0.1-7.7
			c0-0.3,0-0.8,0.3-0.9c0.2-0.1,0.4-0.1,0.6-0.1c0.7,0,1.4-0.2,1.8-0.6c0.5-0.5,0.7-1.3,0.3-1.8c-0.1-0.2-0.3-0.3-0.3-0.5
			c-0.1-0.2-0.1-0.5-0.2-0.7c-0.2-0.6-0.8-0.9-1.4-1c-0.6-0.1-1.2-0.1-1.7-0.4c0.3-0.7,0.5-1.3,0.6-2c0-0.7-0.1-1.5-0.7-1.9
			c-0.5-0.4-1.1-0.6-1.7-0.5c-1,0-2,0.5-2.6,1.2c-0.6,0.8-0.8,1.9-0.4,2.8C325,102.6,325.3,102.9,325.3,103.3z"/>
		<path fill="#EEDDD3" d="M322,107.4c0.1-0.1,0.1-0.3,0.2-0.4c-0.8,0.4-1.5,1-2.1,1.6c-0.5,0.6-0.9,1.7-0.3,2.3
			c0.4,0.4,1,0.4,1.5,0.3c0.8-0.1,1.7-0.4,2.4-0.8c0.6-0.3,1.2-0.7,1.8-1c1.2-0.6,2.5-0.8,3.7-1.2c0.8-0.3,1.5-0.7,2-1.3
			c0.5-0.7,0.6-1.6,0.1-2.2c-0.4-0.4-1-0.6-1.5-0.7c-1.2-0.1-2.5,0.4-3.6,0.8C324,105.6,323.3,105.4,322,107.4z"/>
	</g>
</g>
</svg>
