<?xml version="1.0" encoding="utf-8"?>
<!-- Generator: Adobe Illustrator 18.1.1, SVG Export Plug-In . SVG Version: 6.00 Build 0)  -->
<svg version="1.1" id="Layer_1" xmlns="http://www.w3.org/2000/svg" xmlns:xlink="http://www.w3.org/1999/xlink" x="0px" y="0px"
	 viewBox="0 0 265 454.8" enable-background="new 0 0 265 454.8" xml:space="preserve">
<polygon fill="#D89F79" points="227,118.4 229.7,105.8 240.1,109.9 238.4,122.9 "/>
<polygon fill="#D89F79" points="153.1,293.9 172.8,439.3 153.9,440.1 124.4,292.4 "/>
<polygon fill="#D89F79" points="68.1,292.4 51.7,437.1 70.6,437.8 100.1,290.1 "/>
<path fill="#7B96BD" d="M72.9,235.6l-7.1,75l38.7,0.8l9.2-28.1l9.1,28.7h34.8l-8.5-76.4C149.2,235.6,92.7,222.7,72.9,235.6z"/>
<path fill="#FCFCFC" d="M69.1,437.1"/>
<path fill="#333333" d="M51.7,437.1c-2.6,0.4-15.4,6.1-26.2,11c-3.5,1.6-2.3,6.8,1.5,6.7l44.3-1.1c0,0,6.1-8.3-0.8-15.9L51.7,437.1z
	"/>
<g>
	<polygon fill="#383C61" points="80.4,389.3 57,387.8 56.2,394.5 79,396.2 	"/>
	<polygon fill="#383C61" points="51.7,437.1 70.6,437.8 72.6,427.9 52.8,426.4 	"/>
	<polygon fill="#383C61" points="55,405.8 54,415.1 74.9,416.7 76.8,407.5 	"/>
	<polygon fill="#92302C" points="79,396.2 56.2,394.5 55,405.8 76.8,407.5 	"/>
	<polygon fill="#92302C" points="52.8,426.4 72.6,427.9 74.9,416.7 54,415.1 	"/>
</g>
<g>
	<polygon fill="#383C61" points="142.5,389.3 167.3,387.8 168,394.5 144,396.2 	"/>
	<polygon fill="#383C61" points="172.8,437.1 152.9,437.8 150.8,427.9 171.6,426.4 	"/>
	<polygon fill="#383C61" points="169.3,405.8 170.3,415.1 148.4,416.7 146.4,407.5 	"/>
	<polygon fill="#92302C" points="144,396.2 168,394.5 169.3,405.8 146.4,407.5 	"/>
	<polygon fill="#92302C" points="171.6,426.4 150.8,427.9 148.4,416.7 170.3,415.1 	"/>
</g>
<path fill="#333333" d="M172,437.1c2.6,0.4,15.4,6.1,26.2,11c3.5,1.6,2.3,6.8-1.5,6.7l-44.3-1.1c0,0-6.1-8.3,0.8-15.9L172,437.1z"/>
<path fill="#536CAF" d="M68.2,99.9c0.3-0.1,3.9,1.6,5,135.7c0,0.2,1.8,0.4,4.8,0.4V95.5C72,97.8,68.3,99.8,68.2,99.9z"/>
<path fill="#536CAF" d="M126.4,92c-10.7-2-21.4-2.4-27.4-1.3v144.9c6-0.2,16-0.4,24-0.6V92H126.4z"/>
<path fill="#405982" d="M68.2,99.9C68.2,99.9,68.2,99.9,68.2,99.9C68.2,99.9,68.2,99.9,68.2,99.9z"/>
<path fill="#536CAF" d="M149.2,95.5c-2.4-0.7-5.2-1.4-7.2-2v141.4c4,0.1,6.8,0.3,6.9,0.7C152.1,110.6,149.2,95.5,149.2,95.5z"/>
<path fill="#913027" d="M78,95.5V236c4,0,12-0.1,21-0.3V90.7C90,91.9,83,93.8,78,95.5z"/>
<path fill="#913027" d="M126.4,92H123v143.1c8-0.2,14-0.2,19-0.2V93.5C137,92.1,131.5,92,126.4,92z"/>
<path fill="#536CAF" d="M60.1,110.9c0,0-45.7,40.9-46,136.4l15.9,0.8c0,0,0.3-78.9,41-119.2L60.1,110.9z"/>
<path fill="#D89F79" d="M30,245.8c0,0,11,8.1,8.4,13.3c-2.5,5.2-4.1,5.1-3.6,10.4c0.5,5.3-15.6,9.1-25.1,1.7s4.4-26.3,4.4-26.3
	L30,245.8z"/>
<path fill="#405982" d="M128.9,96.1c0,2.2-8.9,9.6-19.3,9.6S91,98.3,91,96.1c0-4.5,7.9-7.8,18.3-7.8S128.9,90.1,128.9,96.1z"/>
<path fill="#D89F79" d="M137,24.9l-1.4,56.8l-9.4,0.6l-0.4,13.9c0,0-13.6,16.3-31.4,0l-0.4-35.6c0,0-7.2-1.6-7-9.9
	c0.2-8.3,8.4-4.1,8.4-4.1L96,23.9L137,24.9z"/>
<path fill="#754C24" d="M95.5,46.5l-0.3,10l8.7-0.4l-0.8-19.7L137,24.9l-0.5,18.7c0,0,8-10.6,3.4-24.2C135.3,5.7,102.4-3.7,88.8,16
	s-1.6,34.7-1.6,34.7S89.7,43.8,95.5,46.5z"/>
<path fill="#536CAF" d="M68,100.3c0,0-56.8,32.7-56.8,138.7H35c0,0,0-76.6,39.2-106.1L68,100.3z"/>
<path fill="#913027" d="M71.4,98.2l-0.6,23.4l-6.2-11.9c0,0-49.4,46.2-46,114.2h-6.2C12.3,224,8.9,139.1,71.4,98.2z"/>
<path fill="#536CAF" d="M141.8,93.5c0,0,18.7,1.6,30.1,28.3c11.4,26.7,44.9,27.8,51.1-8.5l19.9,5.7c0,0-8,40.3-40.3,42
	s-44.9-23.3-54-32.4C148.6,128.6,145.2,113.8,141.8,93.5z"/>
<path fill="#913027" d="M148,128.6c0,0,19.7,29.5,43.5,31.8c23.9,2.3,34.8-8.5,40.5-17l-3.3-1.7c0,0-11.1,18.7-37.2,14.8
	c-26.1-4-43.4-33.5-43.4-33.5V128.6z"/>
<circle fill="#FFFFFF" cx="229.8" cy="73.5" r="30.1"/>
<path fill="#D89F79" d="M240.1,110.4c0,0,19.5-9.2,15.5-16c-4-6.8-8.1-6.1-6.6-1.1c2.5,8.4-18.5,10.3-18.5,10.3l-0.7,2.2
	L240.1,110.4z"/>
<path fill="#913027" d="M215.9,66.7c0,0-5.4,3.7-2.8,9.7c0,0,10.7,9.9,34.2,8.2c0,0,5.7-3.3,3.6-9.9C250.8,74.7,232,73.8,215.9,66.7
	z"/>
<path fill="#913027" d="M232.1,43.4c0,0,1.4,4.3,1.1,6.8c-0.3,2.6,7.1,6.5,9.4,2.8c0,0,1.1-3.7-0.9-7.4
	C241.8,45.7,236.4,43.7,232.1,43.4z"/>
<path fill="#913027" d="M218.2,101.1c0,0,4.5-2.3,6.5-5.7c0,0,6-1.7,7.4,2.3c0,0-2.8,5.4-5.7,6.2
	C226.4,103.9,219.9,102.8,218.2,101.1z"/>
<path fill="#913027" d="M211.8,49.2c0,0,1.9,0.4,2.4,3.4c0,0-16.6,14.9-7.5,33.7c0,0,1.3,3.3-1.8,4.4c0,0-7.5-9.8-4.8-23
	C202.7,54.5,211.8,49.2,211.8,49.2z"/>
<path fill="#913027" d="M256.1,59c0,0-1.5,0.1-1.2,1.5c0,0,8.2,13.7-3.1,29.7c0,0,0.9,0.2,1.9,1.5C253.7,91.8,266.5,77.8,256.1,59z"
	/>
<path fill="#754C24" d="M136.1,68.4c0,0,18.2-16.5,4-47.7l-3.4,7.4L136.1,68.4z"/>
<path fill="#754C24" d="M137.5,23.9c0,0-10.2,16.7-39.1,20.6L99.4,24L137.5,23.9z"/>
<path fill="#754C24" d="M103.2,38.9c0,0-1.2,17.4,4,31c1.7,4.4-2.6,8.8-7,7c-4.3-1.7-12.1,1.8-16.9-6.3C71.4,50.8,88.8,16,88.8,16
	L103.2,38.9z"/>
</svg>
