<?xml version="1.0" encoding="utf-8"?>
<!-- Generator: Adobe Illustrator 18.1.1, SVG Export Plug-In . SVG Version: 6.00 Build 0)  -->
<svg version="1.1" id="Layer_1" xmlns="http://www.w3.org/2000/svg" xmlns:xlink="http://www.w3.org/1999/xlink" x="0px" y="0px"
	 viewBox="0 0 165.5 208.5" enable-background="new 0 0 165.5 208.5" xml:space="preserve">
<g>
	<path fill="#C1272D" d="M94.3,74c-1.8-17.5-20.2-34.5-42.4-34.5s-40.2,17.6-42,35.2l0.1,4.3v102.6h84V78.1L94.3,74z"/>
	<path fill="#F9F9F9" d="M86.3,80.2C84.8,62.7,70.1,49,52.2,49S20.1,62.7,18.7,80.2l0.3,4.1v107.2h67V84.6L86.3,80.2z"/>
	<path fill="#453333" d="M82.7,80.5h-0.1c-1.3-14-14.1-25.3-29.5-25.3s-28,11.3-29.2,25.3h-0.1H82.7z"/>
	<rect x="24.5" y="88.1" fill="#A7A99E" width="56.4" height="15.8"/>
	<rect x="23.1" y="86.9" fill="#CDDBE8" width="3.6" height="17.9"/>
	<circle fill="#F7931E" cx="24.7" cy="89.1" r="1.3"/>
	<circle fill="#F7931E" cx="24.7" cy="93.1" r="1.3"/>
	<circle fill="#F7931E" cx="24.7" cy="97.1" r="1.3"/>
	<circle fill="#F7931E" cx="24.7" cy="101.1" r="1.3"/>
	<rect x="39.7" y="86.9" fill="#CDDBE8" width="3.6" height="17.9"/>
	<circle fill="#ED1C24" cx="41.3" cy="89.1" r="1.3"/>
	<circle fill="#ED1C24" cx="41.3" cy="93.1" r="1.3"/>
	<circle fill="#ED1C24" cx="41.3" cy="97.1" r="1.3"/>
	<circle fill="#ED1C24" cx="41.3" cy="101.1" r="1.3"/>
	<rect x="60.2" y="86.9" fill="#CDDBE8" width="3.6" height="17.9"/>
	<circle fill="#ED1C24" cx="61.9" cy="89.1" r="1.3"/>
	<circle fill="#ED1C24" cx="61.9" cy="93.1" r="1.3"/>
	<circle fill="#ED1C24" cx="61.9" cy="97.1" r="1.3"/>
	<circle fill="#ED1C24" cx="61.9" cy="101.1" r="1.3"/>
	<rect x="77.1" y="86.9" fill="#CDDBE8" width="3.6" height="17.9"/>
	<circle fill="#F7931E" cx="78.7" cy="89.1" r="1.3"/>
	<circle fill="#F7931E" cx="78.7" cy="93.1" r="1.3"/>
	<circle fill="#F7931E" cx="78.7" cy="97.1" r="1.3"/>
	<circle fill="#F7931E" cx="78.7" cy="101.1" r="1.3"/>
	<path fill="#999999" d="M34.6,42.6c0,0,8.9,7.9,11.5,13.7c0,0,7.9-1.4,13.4,0.2c0,0,5.5-10.5,11.9-12.9
		C71.4,43.6,55.2,35,34.6,42.6z"/>
	<rect x="9.5" y="86.5" fill="#999999" width="9.1" height="15.8"/>
	<rect x="86.7" y="86.5" fill="#999999" width="9.1" height="15.8"/>
	<rect x="18.1" y="184.6" fill="#453333" width="68.6" height="7.2"/>
	<rect x="8.5" y="168.2" fill="#453333" width="10.2" height="6.4"/>
	<rect x="8.5" y="191.2" fill="#453333" width="10.2" height="6.4"/>
	<rect x="5.3" y="174.5" fill="#453333" width="13.3" height="17.5"/>
	<rect x="86.7" y="168.2" fill="#453333" width="10.2" height="6.4"/>
	<rect x="86.7" y="191.2" fill="#453333" width="10.2" height="6.4"/>
	<rect x="86.7" y="174.5" fill="#453333" width="13.3" height="17.5"/>
	<rect x="27.4" y="88.9" fill="#797367" width="11.3" height="2.1"/>
	<rect x="27.4" y="92.4" fill="#797367" width="11.3" height="2.1"/>
	<rect x="27.4" y="96.1" fill="#797367" width="11.3" height="2.1"/>
	<rect x="27.4" y="100.2" fill="#797367" width="11.3" height="2.1"/>
	<rect x="44.2" y="88.9" fill="#797367" width="11.3" height="2.1"/>
	<rect x="44.2" y="92.4" fill="#797367" width="11.3" height="2.1"/>
	<rect x="44.2" y="96.1" fill="#797367" width="11.3" height="2.1"/>
	<rect x="44.2" y="100.2" fill="#797367" width="11.3" height="2.1"/>
	<path fill="#CDDBE8" d="M30.8,123.2c0,0-7.5,37.4,4.5,45.2c11.9,7.8,18,9.1,18,9.1l17.7-11.3l3.8-21.5l-1.6-24.2
		C73.1,120.5,30.8,117.3,30.8,123.2z"/>
	<path fill="#C1272D" d="M70,121.5v32.4l0.1,2.3c-0.8,9.7-8.8,17.3-18.7,17.3c-9.9,0-18.3-7.6-19.1-17.3l-0.3-2.5v-32.2h-8v34
		l0.8,2.5c1.1,10.8,12.9,22.6,26.5,22.6c13.7,0,25.2-12.2,26.3-23L78,155v-33.5H70z"/>
	<path fill="#797367" d="M51.3,155.4c-3.3,0-6,2.7-6,6c0,3.3,2.7,6,6,6c3.3,0,6-2.7,6-6C57.2,158.1,54.6,155.4,51.3,155.4z
		 M51.3,166c-2.6,0-4.7-2.1-4.7-4.7c0-2.6,2.1-4.7,4.7-4.7c2.6,0,4.7,2.1,4.7,4.7C55.9,163.9,53.8,166,51.3,166z"/>
	<path fill="#797367" d="M31.6,123.3c0,0,12.4,18.6,16.6,33.8l1.3-0.6c0,0-6.4-17.8-16.9-33.6L31.6,123.3z"/>
	<path fill="#797367" d="M41.9,123.3c0,0,14.3,20.4,18.5,35.5l1.3-0.6c0,0-7.5-20.7-18.8-35.4L41.9,123.3z"/>
	<path fill="#797367" d="M52.3,123.3c0,0,12.4,18.6,16.6,33.8l1.3-0.6c0,0-6.4-17.8-16.9-33.6L52.3,123.3z"/>
	<path fill="#797367" d="M72.6,123.3c0,0-12.9,19.4-17,34.6l-1.3-0.6c0,0,6.8-18.6,17.4-34.4L72.6,123.3z"/>
	<path fill="#797367" d="M62.3,123.3c0,0-14.3,21.7-18.5,36.8l-1.3-0.6c0,0,8.3-20.9,18.8-36.6L62.3,123.3z"/>
	<path fill="#797367" d="M51.9,123.3c0,0-12.4,18.6-16.6,33.8l-1.3-0.6c0,0,6.4-17.8,16.9-33.6L51.9,123.3z"/>
	<g>
		<path fill="#797367" d="M42.5,162.8c1.1-2.9,3.8-3.7,3.8-3.7l1.8-2.1c-2.9-0.5-5.7,2.7-5.7,2.7c-0.3-6.4-9.9-6.1-9.9-6.1
			c-0.4,10.1,6.8,15.4,9.9,17.2c-0.4-0.6-0.7-1.6-0.5-3.6c0.6-4.5,5.1-2.9,5.1-2.9C46,161.7,42.5,162.8,42.5,162.8z M39,165.9
			c0,0-0.2-1.9-1.8-1.8l-2.2-4.9c0,0,0.8-1.9,0-3.5C35.1,155.7,43.3,155.5,39,165.9z"/>
		<path fill="#797367" d="M43.7,171.6c0,0-0.5-0.2-1.3-0.7C42.9,171.6,43.7,171.6,43.7,171.6z"/>
	</g>
	<g>
		<path fill="#797367" d="M55.6,164.4c0,0,4.5-1.6,5.1,2.9c0.3,2,0,3-0.5,3.6c3-1.8,10.2-7.1,9.9-17.2c0,0-9.6-0.3-9.9,6.1
			c0,0-2.9-3.2-5.7-2.7l1.8,2.1c0,0,2.7,0.8,3.8,3.7C60,162.8,56.5,161.7,55.6,164.4z M67.5,155.7c-0.8,1.6,0,3.5,0,3.5l-2.2,4.9
			c-1.6-0.2-1.8,1.8-1.8,1.8C59.3,155.5,67.5,155.7,67.5,155.7z"/>
		<path fill="#797367" d="M58.9,171.6c0,0,0.5-0.2,1.3-0.7C59.7,171.6,58.9,171.6,58.9,171.6z"/>
	</g>
	<path fill="#797367" d="M46.7,168.9c0,0,1.6,0.8-0.2,1.9s-4.6-3.2-1.3-4.3c3.3-1.1,6.8,1.3,4.9,6.8c0,0-6.2-0.5-8.6-3
		c0,0,6.2,3,7.2,1.8s-0.6-6.2-2.9-4.5C43.7,169.4,46.7,168.9,46.7,168.9z"/>
	<path fill="#797367" d="M55.7,168.9c0,0-1.6,0.8,0.2,1.9s4.6-3.2,1.3-4.3c-3.3-1.1-6.8,1.3-4.9,6.8c0,0,6.2-0.5,8.6-3
		c0,0-6.2,3-7.2,1.8s0.6-6.2,2.9-4.5C58.7,169.4,55.7,168.9,55.7,168.9z"/>
	<path fill="#797367" d="M32,139.1c5-8.9,9.4-15.8,9.4-15.8l-1.1-0.5c-3.1,4.7-5.3,9.6-8.3,14.1V139.1z"/>
	<path fill="#797367" d="M32,136.5v2.6c3,5.7,5.9,12.1,7.5,18l1.5,0.6C40.9,157.7,38,147.9,32,136.5z"/>
	<path fill="#797367" d="M70,133.9c-1-3.6-4.1-7.4-6.5-11.1l-1,0.5c0,0,3.5,5.4,7.5,12.8V133.9z"/>
	<path fill="#797367" d="M70,139.3c-5,9.6-7.4,17.2-7.4,17.2l1.5-0.5c1.4-5,3.9-10.2,5.9-14.9V139.3z"/>
	<path fill="#A7A99E" d="M36.3,123.6h-8c-2.3,0-4.2-1.9-4.2-4.2v-0.5c0-2.3,1.9-4.2,4.2-4.2h8V123.6z"/>
	<path fill="#A7A99E" d="M65.9,123.6h8c2.3,0,4.2-1.9,4.2-4.2v-0.5c0-2.3-1.9-4.2-4.2-4.2h-8V123.6z"/>
	<path fill="#797367" d="M52,129.1h-1.6c-7.9,0-14.3-6.4-14.3-14.3v-1h30.1v1C66.3,122.7,59.9,129.1,52,129.1z"/>
	<rect x="40.8" y="117.3" fill="#F7931E" width="21.3" height="3.7"/>
	<rect x="48.9" y="173.2" fill="#453333" width="4.3" height="8.6"/>
	<rect x="23.4" y="153.1" fill="#453333" width="9.3" height="2.4"/>
	<rect x="70.2" y="153.1" fill="#453333" width="9.3" height="2.4"/>
	<rect x="8.5" y="172.9" fill="#A7A99E" width="10.1" height="1.5"/>
	<rect x="8.5" y="191.7" fill="#A7A99E" width="10.1" height="1.5"/>
	<rect x="86.8" y="191.7" fill="#A7A99E" width="10.1" height="1.5"/>
	<rect x="86.8" y="173" fill="#A7A99E" width="10.1" height="1.5"/>
	<rect x="5.1" y="184.6" fill="#A7A99E" width="94.9" height="1.4"/>
</g>
<g>
	<polygon fill="#E6E7E8" points="97,103.7 95.3,192 101.9,192 114,119.7 119.3,192 127.4,192 129.1,103.2 	"/>
	<path fill="#F9BD91" d="M61.8,48.2c0,0-11.7-8.3-12.4-21.1c0,0,0.2-3.6-1.3-4c-1.5-0.5-1.8,2.5-1.8,2.5s1.4-7.1-0.5-7.7
		c-2-0.6-7.6-0.3-5.7,12.7c0,0,6.9,23.6,20.3,26.2C60.3,56.7,71.2,52.7,61.8,48.2z"/>
	<path fill="#E6E7E8" d="M88.3,44.1c0,0-11.1,7.5-24.1,4.4c0,0-4.4,6.7-1.6,10.2c0,0,16,3.6,24.8-0.7L88.3,44.1z"/>
	<path fill="#F9BD91" d="M151.3,69.4c0,0,3,14.1-5.2,23.9c0,0-2.6,2.5-1.8,3.8c0.8,1.4,3.1-0.6,3.1-0.6s-5.9,4.2-4.8,6
		c1,1.8,5.4,5.4,12.9-5.4c0,0,11-22,2.9-33C158.3,64.2,147.5,59.7,151.3,69.4z"/>
	<path fill="#E6E7E8" d="M84.8,43.6c0,0,21.6-8.9,55.3,0l-10.2,59.6c0,0-12.7,1-34,0L84.8,43.6z"/>
	<polygon fill="#231F20" points="130.2,103.7 95.8,103.7 95.3,99.8 130.5,99.8 	"/>
	<path fill="#E6E7E8" d="M129.1,54.5c0,0,13.2,2.1,20.7,13.2c0,0,7.8-1.9,8.1-6.4c0,0-9.3-13.6-18.7-16.4L129.1,54.5z"/>
	<path fill="#BCBEC0" d="M109.2,57.8L89.8,31.7c0,0,24.6-11,43.1,0l-17.8,26.1H109.2z"/>
	<polygon fill="#F9BD91" points="104.8,42.9 110.9,85.1 114.8,85.1 119.8,42.9 	"/>
	<path fill="#F9BD91" d="M123.6,11v23.5h-3.9v8.4c0,0-4.4,8.5-15,0V25.5c0,0-3.2-0.6-3.2-4.4s3.7-1.9,3.7-1.9V11H123.6z"/>
	<polygon fill="#D1D3D4" points="101.2,192 100.2,197 95.8,197 95.8,192 	"/>
	<path fill="#231F20" d="M95.8,197h4.4c0,0,1.7,5.5-3.9,5.8h-7.3c0,0-1.6-3.5,2.7-3.7C91.6,199.1,95.4,198.5,95.8,197z"/>
	<polygon fill="#D1D3D4" points="120.8,192 121.8,197 126.2,197 126.2,192 	"/>
	<path fill="#231F20" d="M126.2,197h-4.4c0,0-1.7,5.5,3.9,5.8h7.3c0,0,1.6-3.5-2.7-3.7C130.4,199.1,126.6,198.5,126.2,197z"/>
	<polygon fill="#E6E7E8" points="116.1,197.9 134.8,197.9 128.2,151.6 116.4,151.6 	"/>
	<polygon fill="#BE1E2D" points="118.4,197.9 116.1,161.8 116.1,197.9 	"/>
	<polygon fill="#E6E7E8" points="107.9,197.9 89.1,197.9 96.1,151.6 107.6,151.6 	"/>
	<polygon fill="#BE1E2D" points="105.5,197.9 107.9,161.8 107.9,197.9 	"/>
	<polygon fill="#BCBEC0" points="94.6,96.1 96.9,110.2 129,110.2 131.1,96.1 	"/>
	<ellipse fill="#BCAF0A" cx="113.4" cy="103.1" rx="8" ry="5.8"/>
	<circle fill="#BCAF0A" cx="97.7" cy="99.3" r="1.5"/>
	<circle fill="#BCAF0A" cx="103.2" cy="99.3" r="1.5"/>
	<circle fill="#BCAF0A" cx="123.6" cy="99.3" r="1.5"/>
	<circle fill="#BCAF0A" cx="128.4" cy="99.3" r="1.5"/>
	<circle fill="#BCAF0A" cx="99" cy="106.4" r="1.5"/>
	<circle fill="#BCAF0A" cx="103.8" cy="106.4" r="1.5"/>
	<circle fill="#BCAF0A" cx="122.7" cy="106.4" r="1.5"/>
	<circle fill="#BCAF0A" cx="127.5" cy="106.4" r="1.5"/>
	<ellipse fill="#FFEA29" cx="113.4" cy="103.1" rx="6.7" ry="4.8"/>
	<path fill="#E6E7E8" d="M146.8,89.6l13.8,11.2c0,0,7.1-27.4-2.7-39.6l-8.1,6.4C149.8,67.6,154.9,82,146.8,89.6z"/>
	<path fill="#E6E7E8" d="M64.1,48.5c0,0-12.5-7.8-12.9-19.6l-17,3.6c0,0,8.6,20.9,29.1,26.4L64.1,48.5z"/>
	<polygon fill="#BE1E2D" points="114.8,85.1 123.2,44.8 119.8,41.8 	"/>
	<polygon fill="#BE1E2D" points="110.9,85.1 104.8,42.3 101.6,46.2 	"/>
	<polygon fill="#231F20" points="105.3,18.8 105.5,26.8 109.6,27 106,11 104.8,11 	"/>
	<path fill="#231F20" d="M106,11l17.6,0.6c0,0,11.5-9.4-2.2-9.4s-21,0.5-19.6,8.8l1.3,7.8c0,0,2.4-0.5,2.1,2.5L106,11z"/>
	<path fill="#231F20" d="M118.3,11.2c0,0,3,1.5,1,4.4c0,0,3.9-2.9,0.5-4.8"/>
	<circle fill="#2B3990" cx="119.1" cy="75.4" r="1"/>
	<circle fill="#2B3990" cx="123.9" cy="76.2" r="1"/>
	<circle fill="#2B3990" cx="128.4" cy="78" r="1"/>
	<circle fill="#2B3990" cx="118" cy="79.5" r="1"/>
	<circle fill="#2B3990" cx="123.2" cy="80.1" r="1"/>
	<circle fill="#2B3990" cx="127.9" cy="81.5" r="1"/>
	<circle fill="#BCAF0A" cx="124" cy="52.8" r="1"/>
	<circle fill="#BCAF0A" cx="128.8" cy="53.6" r="1"/>
	<circle fill="#BCAF0A" cx="133.4" cy="55.4" r="1"/>
	<circle fill="#BCAF0A" cx="123" cy="56.9" r="1"/>
	<circle fill="#BCAF0A" cx="128.1" cy="57.5" r="1"/>
	<circle fill="#BCAF0A" cx="132.9" cy="58.9" r="1"/>
	<circle fill="#BCAF0A" cx="121.9" cy="60.4" r="1"/>
	<circle fill="#BCAF0A" cx="126.7" cy="61.1" r="1"/>
	<circle fill="#BCAF0A" cx="131.3" cy="62.9" r="1"/>
	<circle fill="#BCAF0A" cx="120.9" cy="64.5" r="1"/>
	<circle fill="#BCAF0A" cx="126" cy="65" r="1"/>
	<circle fill="#BCAF0A" cx="130.8" cy="66.5" r="1"/>
	<circle fill="#2B3990" cx="105.1" cy="77.6" r="1"/>
	<circle fill="#2B3990" cx="100.2" cy="78.4" r="1"/>
	<circle fill="#2B3990" cx="95.7" cy="80.2" r="1"/>
	<circle fill="#2B3990" cx="106.1" cy="81.7" r="1"/>
	<circle fill="#2B3990" cx="101" cy="82.3" r="1"/>
	<circle fill="#2B3990" cx="96.2" cy="83.7" r="1"/>
	<circle fill="#BCAF0A" cx="100.1" cy="55" r="1"/>
	<circle fill="#BCAF0A" cx="95.3" cy="55.8" r="1"/>
	<circle fill="#BCAF0A" cx="90.8" cy="57.6" r="1"/>
	<circle fill="#BCAF0A" cx="101.2" cy="59.2" r="1"/>
	<circle fill="#BCAF0A" cx="96" cy="59.7" r="1"/>
	<circle fill="#BCAF0A" cx="91.3" cy="61.1" r="1"/>
	<circle fill="#BCAF0A" cx="102.2" cy="62.6" r="1"/>
	<circle fill="#BCAF0A" cx="97.4" cy="63.3" r="1"/>
	<circle fill="#BCAF0A" cx="92.9" cy="65.2" r="1"/>
	<circle fill="#BCAF0A" cx="103.3" cy="66.7" r="1"/>
	<circle fill="#BCAF0A" cx="98.1" cy="67.2" r="1"/>
	<circle fill="#BCAF0A" cx="93.4" cy="68.7" r="1"/>
</g>
</svg>
