<?xml version="1.0" encoding="utf-8"?>
<!-- Generator: Adobe Illustrator 18.1.1, SVG Export Plug-In . SVG Version: 6.00 Build 0)  -->
<svg version="1.1" id="Layer_1" xmlns="http://www.w3.org/2000/svg" xmlns:xlink="http://www.w3.org/1999/xlink" x="0px" y="0px"
	 viewBox="0 0 335 80" enable-background="new 0 0 335 80" xml:space="preserve">
<g>
	<polygon fill="#333333" points="23.2,54 27.8,80 306.8,80 308,62.1 316.7,47.2 135.1,33.6 	"/>
	<path fill="#B3B3B3" d="M21.6,51.8c0,0,119.7-22.7,293.9,0.8l-2.9,5.4c0,0-130.4-19.8-289.3-1.7L21.6,51.8z"/>
	<path fill="#CCCCCC" d="M21.6,49.3c0,0,119.7-22.7,293.9,0.8l-2.9,5.4c0,0-130.4-19.8-289.3-1.7L21.6,49.3z"/>
	<path fill="#B3B3B3" d="M25.9,66.6c0,0,109.2-22.7,283.4,0.8l-2.9,5.4c0,0-119.9-19.8-278.8-1.7L25.9,66.6z"/>
	<path fill="#CCCCCC" d="M25.9,64.2c0,0,109.2-22.7,283.4,0.8l-2.9,5.4c0,0-119.9-19.8-278.8-1.7L25.9,64.2z"/>
	<path fill="#333333" d="M15.8,39l5.8,10.3c0,0,116.8-20.6,293.9,0.8l8.7-12.8c0,0-117.2-15.7-175.8-14S15.8,39,15.8,39z"/>
	<path fill="#4D4D4D" d="M11.3,34.8l4.5,4.2c0,0,60.3-11.1,135-11.6c74.7-0.4,172.1,12.4,172.1,12.4l1.9-5.1c0,0-81.1-16.4-175.2-16
		C55.4,19.2,11.3,34.8,11.3,34.8z"/>
	<path fill="#6D6D6D" d="M17.9,25.8l-5.8,5.8c0,0,85.4-12.8,147.8-12s164.9,15.1,164.9,15.1l-4.6-5.3c0,0-42.2-13.5-161.9-15.2
		S17.9,25.8,17.9,25.8z"/>
	<path fill="#B96963" d="M15.4,28l1-3.7c0,0,9.3-5,31.6-9.9S224.8-8.5,323.2,27.1l1.8,4.2C325,31.3,179.7-7.7,15.4,28z"/>
	<path fill="#A4CFE2" d="M13,29.9c0,0,16-18.8,146.7-18.8c129.7,0,162.5,19.7,162.5,19.7l2.2,1.9c0,0-52-18-165-17.6
		C55.1,15.4,13,29.9,13,29.9z"/>
	<path fill="#383830" d="M8.1,31.1l3.2,3.6c0,0,40.1-7.3,70.8-9.8c23.3-1.9,94.4-4,166.2,1.9s80.3,9.9,80.3,9.9l-2.9-3.4
		c0,0-77.1-14.2-162.2-14.5C70.5,18.4,14.3,31.4,8.1,31.1z"/>
	<path fill="#6D6D6D" d="M20.3,31.4c0,0,16.3,9.6,21.2,48.6h5.9c0,0-4.6-37.7-21.7-49.1l5.4-8.7l-5.4,1.7L20.3,31.4z"/>
	<path fill="#6D6D6D" d="M36.2,29c0,0,16.8,18,21.7,51h5c0,0-4.5-33.7-21.5-51.6L36.2,29z"/>
	<path fill="#6D6D6D" d="M58.7,26.2c0,0,14.4,17.8,17.5,53.8h5.9c0,0-1.5-35.4-18.6-54.3L58.7,26.2z"/>
	<path fill="#6D6D6D" d="M86.8,23.1c0,0,11,19.9,13.2,56.9h5.6c0,0-0.6-37.9-12.4-57.4L86.8,23.1z"/>
	<path fill="#6D6D6D" d="M123.2,21.4c0,0,8,31.6,6.2,58.6h4.6V27.4l-4.5-0.3l-1.3-5.8l1.2-9.9l-4.6,0.2L123.2,21.4z"/>
	<path fill="#6D6D6D" d="M176.4,21.2c0,0-7.9,31.8-6.1,58.8H165V27.4l4.8-0.3l2.1-6.3l-1.4-9.7l4,0.3L176.4,21.2z"/>
	<path fill="#6D6D6D" d="M7.9,30.8l0.5,4.8C8.4,35.6,26,50,25.1,80h5c0,0,3.4-30.8-18.6-46.9l4.2-4.9L7.9,30.8z"/>
	<path fill="#6D6D6D" d="M200.6,21.7c0,0-8,16.3-6.8,58.3h4c0,0-4-33.9,8.7-57.4l-1.8-10.5l-5.3,0.1L200.6,21.7z"/>
	<path fill="#6D6D6D" d="M235.1,23.6c0.6-0.9-14,24.4-12.2,56.4h3.7c0,0-4-28.6,15.5-55.5l-3.4-10.2l-6.2-0.5L235.1,23.6z"/>
	<path fill="#6D6D6D" d="M265.9,26.6c0,0-18.9,13.4-20.7,53.4h4c0,0,0.3-32.9,22-52.7l-2.5-10l-5.2-0.5L265.9,26.6z"/>
	<path fill="#6D6D6D" d="M288.4,29.3c0,0-16.9,11.7-22.8,50.7h3.7c0,0,1.9-28.3,23.5-49.3l-1.5-9.6l-4.2-0.9L288.4,29.3z"/>
	<path fill="#6D6D6D" d="M312.7,33.2c0,0-23,15.8-23.8,46.8h-4.3c0,0-1.5-23.4,22.9-48.1l-2-7.5l5,1.6L312.7,33.2z"/>
	<path fill="#6D6D6D" d="M321.3,35.5c0,0-19.8,12.5-18,44.5h-5c0,0-1.9-31.7,18.3-46.2l-0.9-6.1l4.3,1.9L321.3,35.5z"/>
	<path fill="#6D6D6D" d="M328.7,36.9c0,0-20.6,15.1-19.7,43.1h-4c0,0-1.2-26.7,19.8-45l-3.7-5.3l5.3,2.2L328.7,36.9z"/>
	<path fill="#6D6D6D" d="M97.7,12.9c0,0-4.8,5-4.5,9.9l-6.3,0.3c0,0,2.4-8.7,4.9-9.9L97.7,12.9z"/>
	<path fill="#6D6D6D" d="M69.4,15.1c0,0-4.2,3.6-5.9,10.6l-4.6,0.6c0,0,1.8-8.7,4.2-10.3L69.4,15.1z"/>
	<path fill="#6D6D6D" d="M47.1,18.5c0,0-4.2,3.3-5.7,9.6l-5.2,0.7c0,0,1.9-7.6,4.4-9.1L47.1,18.5z"/>
	<path fill="#CCCCCC" d="M124.4,55.1l-0.6,6c0,0,41.1,0.4,51.2,0.2l-0.8-6.8c0,0-29.7-1.4-48.7,0.4"/>
	<g>
		<g>
			<path d="M126,57.9c0.4,0,0.8,0,1.1-0.1c0,0.2,0,0.5,0,0.7c-0.4,0-0.8,0-1.1,0c0,0.5,0,1,0.1,1.5c0.5,0,0.9,0,1.4-0.1
				c0,0.2,0,0.5,0,0.7c-0.7,0-1.5,0.1-2.2,0.1c-0.1-1.7-0.2-3.5-0.2-5.2c0.7,0,1.5-0.1,2.2-0.1c0,0.2,0,0.5,0,0.7
				c-0.5,0-0.9,0-1.4,0.1C125.9,56.9,126,57.4,126,57.9z"/>
			<path d="M128.9,55.5c0.8,0,1.2,0.4,1.3,1.3c0,0.1,0,0.1,0,0.2c-0.3,0-0.5,0-0.8,0c0-0.1,0-0.1,0-0.2c0-0.4-0.2-0.5-0.4-0.5
				c-0.3,0-0.4,0.2-0.4,0.5c0,1.1,1.7,1.2,1.7,2.7c0,0.8-0.4,1.3-1.2,1.4c-0.8,0-1.2-0.4-1.3-1.3c0-0.1,0-0.2,0-0.3
				c0.3,0,0.5,0,0.8,0c0,0.1,0,0.2,0,0.4c0,0.4,0.2,0.5,0.4,0.5c0.3,0,0.4-0.2,0.4-0.5c0-1.1-1.7-1.2-1.7-2.7
				C127.7,56,128.1,55.6,128.9,55.5z"/>
			<path d="M130.4,55.5c0.9,0,1.7-0.1,2.6-0.1c0,0.2,0,0.5,0,0.7c-0.3,0-0.6,0-0.9,0c0,1.5,0.1,3,0.1,4.5c-0.3,0-0.5,0-0.8,0
				c-0.1-1.5-0.1-3-0.2-4.5c-0.3,0-0.6,0-0.9,0C130.4,56,130.4,55.8,130.4,55.5z"/>
			<path d="M135.8,60.6c-0.3,0-0.5,0-0.8,0c-0.1-0.3-0.1-0.6-0.2-0.9c-0.3,0-0.7,0-1,0c0,0.3-0.1,0.6-0.1,0.9c-0.2,0-0.5,0-0.8,0
				c0.2-1.7,0.4-3.5,0.7-5.2c0.4,0,0.8,0,1.2,0C135.2,57.1,135.5,58.8,135.8,60.6z M133.9,59c0.3,0,0.5,0,0.8,0
				c-0.2-0.9-0.3-1.7-0.5-2.6C134.1,57.2,134,58.1,133.9,59z"/>
			<path d="M136.1,55.3c0.4,0,0.9,0,1.3,0c0.8,0,1.2,0.4,1.3,1.3c0,0.9,0,1.8,0.1,2.6c0,0.8-0.4,1.3-1.2,1.3c-0.4,0-0.9,0-1.3,0
				C136.2,58.8,136.1,57.1,136.1,55.3z M136.9,56.1c0,1.2,0.1,2.5,0.1,3.7c0.2,0,0.3,0,0.5,0c0.3,0,0.4-0.1,0.4-0.5
				c0-0.9,0-1.8-0.1-2.7c0-0.4-0.2-0.5-0.4-0.5C137.2,56.1,137.1,56.1,136.9,56.1z"/>
			<path d="M139.1,55.3c0.3,0,0.6,0,0.8,0c0,1.7,0.1,3.5,0.1,5.2c-0.3,0-0.5,0-0.8,0C139.2,58.7,139.2,57,139.1,55.3z"/>
			<path d="M140.5,56.5c0-0.8,0.4-1.3,1.2-1.3c0.8,0,1.3,0.5,1.3,1.3c0,0.9,0,1.8,0,2.7c0,0.8-0.4,1.3-1.2,1.3
				c-0.8,0-1.2-0.5-1.3-1.3C140.5,58.3,140.5,57.4,140.5,56.5z M141.4,59.2c0,0.4,0.2,0.5,0.4,0.5c0.3,0,0.4-0.1,0.4-0.5
				c0-0.9,0-1.9,0-2.8c0-0.4-0.2-0.5-0.4-0.5c-0.3,0-0.4,0.1-0.4,0.5C141.4,57.4,141.4,58.3,141.4,59.2z"/>
			<path d="M146.5,58.9c0.2-1.2,0.4-2.5,0.5-3.7c0.4,0,0.8,0,1.1,0c0,1.7,0,3.5,0,5.2c-0.3,0-0.5,0-0.8,0c0-1.2,0-2.5,0-3.7
				c-0.2,1.2-0.4,2.5-0.6,3.7c-0.3,0-0.5,0-0.8,0c-0.2-1.2-0.4-2.4-0.6-3.7c0,1.2,0,2.5,0,3.7c-0.2,0-0.5,0-0.7,0c0-1.7,0-3.5,0-5.2
				c0.4,0,0.8,0,1.1,0C146,56.4,146.3,57.7,146.5,58.9z"/>
			<path d="M151.4,60.4c-0.3,0-0.5,0-0.8,0c0-0.3-0.1-0.6-0.1-0.9c-0.3,0-0.7,0-1,0c0,0.3-0.1,0.6-0.1,0.9c-0.3,0-0.5,0-0.8,0
				c0.3-1.7,0.6-3.5,0.8-5.2c0.4,0,0.8,0,1.2,0C150.9,56.9,151.1,58.7,151.4,60.4z M150.9,54.1c-0.3,0.3-0.5,0.5-0.8,0.8
				c-0.2,0-0.4,0-0.6,0c0.2-0.3,0.3-0.5,0.5-0.8C150.3,54.1,150.6,54.1,150.9,54.1z M149.5,58.7c0.3,0,0.5,0,0.8,0
				c-0.1-0.9-0.3-1.8-0.4-2.6C149.8,57,149.7,57.9,149.5,58.7z"/>
			<path d="M153.5,60.4c0-0.1-0.1-0.2-0.1-0.6c0-0.3,0-0.5,0-0.8c0-0.5-0.2-0.7-0.5-0.7c-0.1,0-0.2,0-0.3,0c0,0.7,0,1.4,0,2.1
				c-0.3,0-0.5,0-0.8,0c0-1.7,0-3.5,0-5.2c0.4,0,0.8,0,1.2,0c0.9,0,1.2,0.4,1.2,1.2c0,0.1,0,0.3,0,0.4c0,0.5-0.2,0.9-0.5,1
				c0.4,0.2,0.5,0.6,0.5,1.1c0,0.3,0,0.5,0,0.8c0,0.3,0,0.4,0.1,0.6C154.1,60.4,153.8,60.4,153.5,60.4z M152.6,55.9
				c0,0.5,0,1.1,0,1.6c0.1,0,0.2,0,0.3,0c0.3,0,0.5-0.1,0.5-0.5c0-0.2,0-0.3,0-0.5c0-0.4-0.1-0.5-0.4-0.5
				C152.9,55.9,152.8,55.9,152.6,55.9z"/>
			<path d="M154.8,55.2c0.3,0,0.6,0,0.8,0c0,1.7,0,3.5-0.1,5.2c-0.3,0-0.5,0-0.8,0C154.8,58.7,154.8,57,154.8,55.2z"/>
			<path d="M156.2,56.5c0-0.8,0.5-1.3,1.3-1.3c0.8,0,1.2,0.5,1.2,1.3c0,0.9,0,1.8-0.1,2.7c0,0.8-0.5,1.3-1.3,1.3
				c-0.8,0-1.2-0.5-1.2-1.3C156.2,58.3,156.2,57.4,156.2,56.5z M157,59.3c0,0.4,0.2,0.5,0.4,0.5c0.3,0,0.4-0.1,0.4-0.5
				c0-0.9,0-1.9,0.1-2.8c0-0.4-0.2-0.5-0.4-0.5c-0.3,0-0.4,0.1-0.4,0.5C157,57.4,157,58.3,157,59.3z"/>
			<path d="M161.2,57.6c0.4,0,0.7,0,1.1,0c0,0.2,0,0.5,0,0.7c-0.4,0-0.7,0-1.1,0c0,0.7,0,1.4-0.1,2.1c-0.3,0-0.5,0-0.8,0
				c0-1.7,0.1-3.5,0.1-5.2c0.7,0,1.5,0,2.2,0.1c0,0.2,0,0.5,0,0.7c-0.5,0-0.9,0-1.4,0C161.2,56.6,161.2,57.1,161.2,57.6z"/>
			<path d="M163,55.4c0.3,0,0.6,0,0.8,0c-0.1,1.7-0.1,3.5-0.2,5.2c-0.3,0-0.5,0-0.8,0C162.9,58.8,162.9,57.1,163,55.4z"/>
			<path d="M164.4,55.4c0.3,0,0.6,0,0.8,0c0,1.5-0.1,3-0.1,4.5c0.4,0,0.9,0,1.3,0c0,0.2,0,0.5,0,0.7c-0.7,0-1.4,0-2.2-0.1
				C164.3,58.9,164.4,57.2,164.4,55.4z"/>
			<path d="M167.6,60.7c-0.3,0-0.5,0-0.8,0c0.1-1.7,0.1-3.5,0.2-5.2c0.3,0,0.6,0,0.8,0c0,0.7-0.1,1.5-0.1,2.2c0.3,0,0.6,0,0.9,0
				c0-0.7,0.1-1.5,0.1-2.2c0.3,0,0.6,0,0.8,0c-0.1,1.7-0.1,3.5-0.2,5.2c-0.3,0-0.6,0-0.8,0c0-0.7,0.1-1.5,0.1-2.2
				c-0.3,0-0.6,0-0.9,0C167.6,59.3,167.6,60,167.6,60.7z"/>
			<path d="M170,56.9c0-0.8,0.5-1.3,1.3-1.3c0.8,0,1.2,0.5,1.2,1.4c0,0.9-0.1,1.8-0.1,2.7c0,0.8-0.5,1.3-1.3,1.2
				c-0.8,0-1.2-0.5-1.2-1.4C170,58.7,170,57.8,170,56.9z M170.7,59.7c0,0.4,0.1,0.5,0.4,0.5c0.3,0,0.4-0.1,0.4-0.5
				c0-0.9,0.1-1.9,0.1-2.8c0-0.4-0.1-0.5-0.4-0.5c-0.3,0-0.4,0.1-0.4,0.5C170.8,57.8,170.8,58.7,170.7,59.7z"/>
		</g>
	</g>
</g>
</svg>
