<?xml version="1.0" encoding="utf-8"?>
<!-- Generator: Adobe Illustrator 18.1.1, SVG Export Plug-In . SVG Version: 6.00 Build 0)  -->
<svg version="1.1" id="Layer_1" xmlns="http://www.w3.org/2000/svg" xmlns:xlink="http://www.w3.org/1999/xlink" x="0px" y="0px"
	 viewBox="0 0 862.6 596.1" enable-background="new 0 0 862.6 596.1" xml:space="preserve">
<g>
	<rect x="225.8" y="403.7" fill="#F1CB10" width="90.7" height="192.4"/>
	<path fill="#F1CB10" d="M325.6,283v40h210v-40C535.6,283,422.6,202.7,325.6,283z"/>
	<path fill="#F1CB10" d="M566.6,339.5V410h86v-70.5C652.6,339.5,605.6,315.6,566.6,339.5z"/>
	<rect x="429.1" y="64.3" fill="#ED6807" width="5.5" height="45"/>
	<g>
		<path fill="#FE9932" d="M342.6,24.7c0-6.6,0-13.1,0-19.7c0-0.6,0.1-0.8,0.8-0.8c30.4,0,60.8,0,91.2,0c0,6.8,0,13.6,0,20.5
			c-24,0-48,0-71.9,0C355.9,24.7,349.3,24.7,342.6,24.7z"/>
		<path fill="#128907" d="M342.6,65.4c0-6.8,0-13.5,0-20.3c0.5,0,1,0,1.5,0c8,0,16,0,24,0c22.1,0,44.3,0,66.4,0
			c0,6.4,0,12.8,0.1,19.2c0,1-0.3,1.1-1.2,1.1C403.1,65.4,372.9,65.4,342.6,65.4z"/>
		<path fill="#FDFEFD" d="M434.5,45.1c-22.1,0-44.3,0-66.4,0c-8,0-16,0-24,0c-0.5,0-1,0-1.5,0c0-6.8,0-13.6,0-20.5
			c6.7,0,13.3,0,20,0c24,0,48,0,71.9,0C434.5,31.5,434.5,38.3,434.5,45.1z M388.7,44.1c5.1,0,9.2-4.1,9.2-9.2c0-5.1-4.1-9.2-9.2-9.2
			c-5.1,0-9.2,4.1-9.2,9.3C379.5,40,383.6,44.1,388.7,44.1z"/>
		<path fill="#0F0F86" d="M388.7,44.1c-5.1,0-9.2-4.1-9.3-9.1c0-5.1,4.1-9.3,9.2-9.3c5.1,0,9.2,4.1,9.2,9.2
			C397.9,40,393.8,44.1,388.7,44.1z M381.2,31.5c-1.1,2.3-0.8,4.5,0,6.9c0.3,0.9,1.1,1.3,1.5,2.1c0.3,0.7,1.3,1.5,2.1,1.6
			c0.9,0.2,1.4,1.2,2.4,0.9c0.8-0.3,1.8,0.8,2.6-0.2c1,0.8,1.7-0.3,2.4-0.5c2.1-0.8,3.4-2.5,4.2-4.5c0.9-2.2,0.5-4.2-0.2-6.3
			c-0.6-1.6-1.9-2.6-3.1-3.5c-1.2-1-2.9-1.3-4.4-1.3c-1.6,0-3.2,0.4-4.5,1.3C383,28.9,381.8,30,381.2,31.5z"/>
		<path fill="#F2F2F8" d="M381.2,31.5c0.5-1.6,1.7-2.6,2.9-3.5c1.3-0.9,2.9-1.3,4.5-1.3c1.5,0,3.2,0.3,4.4,1.3
			c1.2,0.9,2.5,1.9,3.1,3.5c0.8,2.1,1.1,4.1,0.2,6.3c-0.8,2.1-2.1,3.8-4.2,4.5c-0.7,0.3-1.4,1.4-2.4,0.5c-0.8,1-1.7,0-2.6,0.2
			c-1,0.3-1.5-0.7-2.4-0.9c-0.8-0.1-1.8-0.9-2.1-1.6c-0.4-0.8-1.2-1.2-1.5-2.1C380.4,36.1,380.1,33.8,381.2,31.5z M392.9,39
			c0-0.1-0.1-0.2-0.2-0.1c0,0,0,0.1,0.1,0.2c0.1,0.1,0.2,0.4,0.4,0.2C393.3,39.2,393.1,39.1,392.9,39z M384.4,39
			c-0.1,0.1-0.4,0.2-0.2,0.3c0.1,0.1,0.3-0.1,0.4-0.2c0.1-0.1,0.2-0.2,0-0.3C384.6,38.9,384.5,39,384.4,39z M386.6,36.8
			c-0.7,0.3-1.1,0.9-1.5,1.5c0.1,0.1,0.2,0.2,0.3,0.3c0.5-0.5,1-1,1.5-1.6c0.1-0.1,0.2-0.2,0.1-0.3
			C386.8,36.6,386.7,36.6,386.6,36.8z M390.5,33.2c0.2,0,0.3-0.4,0.5,0c0.1,0.4-0.5,0.3-0.4,0.7c1.1-0.4,2.1-1,2.9-1.9
			c-0.8,0.4-1.7,0.8-2.5,1.2c-0.3-0.3,0.1-0.4,0.2-0.5c0.5-0.5,0.9-1,1.4-1.5c-0.1-0.1-0.1-0.1-0.2-0.2c-0.8,0.5-1.5,1.2-2.1,2
			c-0.1,0.1-0.1,0.2-0.2,0.2C390.4,33.4,390.5,33.3,390.5,33.2z M386.3,33.2c-0.9-0.3-1.7-1-2.7-1.1c1,0.7,1.9,1.5,3.1,1.8
			C386.7,33.5,386.2,33.5,386.3,33.2c0.3-0.5,0.5,0.3,0.8,0c-0.6-1-1.5-1.8-2.5-2.4c0.5,0.7,1.1,1.3,1.6,1.9
			C386.3,32.8,386.6,32.9,386.3,33.2z M388.7,33.9c-0.6,0.1-1,0.4-1.1,1c0,0.6,0.4,1,1,1.1c0.7,0,1.1-0.4,1.1-1.1
			C389.7,34.3,389.3,33.9,388.7,33.9z M391.8,40.6c-0.1-1.1-1.4-3.4-2.1-3.6C390.2,38.2,391,39.3,391.8,40.6z M385.7,29.7
			c0.4,1.3,1,2.4,2,3.6C387.3,31.7,386.4,30.7,385.7,29.7z M387.6,36.7c-1,1.1-1.5,2.2-1.9,3.4C386.4,39.1,387.3,38.2,387.6,36.7z
			 M389.8,33c0.9-0.9,1.5-2,1.9-3.2C390.8,30.7,390.2,31.8,389.8,33z M383.6,37.8c1-0.4,2-0.7,2.8-1.6
			C385.3,36.5,384.5,37.1,383.6,37.8z M393.8,37.8c-0.9-0.7-1.7-1.4-2.8-1.6C391.7,37,392.7,37.5,393.8,37.8z M390.1,40.4
			c0-1.2-0.2-2.3-0.9-3.4C389.3,38.2,389.6,39.3,390.1,40.4z M388.1,36.9c-0.7,1.1-0.7,2.2-1.1,3.1c0,0.1,0,0.3,0.1,0.3
			c0.2,0,0.3-0.1,0.3-0.3C387.8,39.1,388.2,38.2,388.1,36.9z M388.1,32.7c0-1.2-0.3-2.2-0.9-3.2C387.3,30.6,387.5,31.7,388.1,32.7z
			 M390.1,29.6c-0.5,1-0.8,2.1-0.8,3.2C389.8,31.8,390.1,30.7,390.1,29.6z M382.2,34.8c1.5,0.4,2.9,0.5,4.4,0.3c0-0.1,0-0.2,0-0.3
			C385.1,34.8,383.6,34.8,382.2,34.8z M390.8,34.8c1.5,0.6,2.9,0.3,4.4,0C393.7,34.8,392.3,34.8,390.8,34.8z M383.4,33.6
			c0.9,0.4,1.8,0.7,2.8,0.7C385.4,33.7,384.5,33.4,383.4,33.6z M391,34.2c1,0.2,1.9-0.2,3-0.6C392.7,33.4,391.9,33.9,391,34.2z
			 M383.4,36.3c1.1,0.1,2-0.2,3-0.7C385.3,35.4,384.4,35.9,383.4,36.3z M390.8,35.6c1.1,0.5,2,0.7,3,0.7
			C393,35.8,392.1,35.4,390.8,35.6z M388.7,37.6c-0.3,0.8-0.2,1.5-0.1,2.3C389,39.2,388.9,38.4,388.7,37.6z M390.7,37
			c0.4,0.6,0.8,1.2,1.5,1.5C391.9,37.8,391.4,37.4,390.7,37z M388.6,32.2c0.5-0.9,0.3-1.5,0.2-2.2C388.4,30.7,388.4,31.3,388.6,32.2
			z M390.6,36.6c-0.1,0.1-0.1,0.1-0.2,0.2c0,0,0.1,0.1,0.1,0.1c0.1,0,0.1,0,0.2-0.1C390.7,36.8,390.6,36.7,390.6,36.6z M392.7,31
			c0,0,0.1-0.1,0.1-0.1c-0.1,0-0.1-0.1-0.2-0.1c0,0-0.1,0.1-0.1,0.1C392.6,31,392.6,31.1,392.7,31z"/>
		<path fill="#0F0F86" d="M388.7,33.9c0.6,0,1,0.4,1.1,1c0,0.7-0.4,1.1-1.1,1.1c-0.7,0-1-0.4-1-1.1C387.6,34.3,388,33.9,388.7,33.9z
			"/>
		<path fill="#0F0F86" d="M391.8,40.6c-0.8-1.2-1.6-2.3-2.1-3.6C390.4,37.1,391.7,39.4,391.8,40.6z"/>
		<path fill="#0F0F86" d="M385.7,29.7c0.7,1.1,1.6,2,2,3.6C386.7,32,386.1,30.9,385.7,29.7z"/>
		<path fill="#0F0F86" d="M387.6,36.7c-0.4,1.5-1.2,2.4-1.9,3.4C386.1,38.9,386.6,37.8,387.6,36.7z"/>
		<path fill="#0F0F86" d="M389.8,33c0.4-1.2,1-2.3,1.9-3.2C391.2,31,390.7,32.1,389.8,33z"/>
		<path fill="#0F0F86" d="M386.3,33.2c0,0.3,0.4,0.3,0.5,0.7c-1.2-0.3-2.2-1.1-3.1-1.8C384.6,32.2,385.4,32.9,386.3,33.2L386.3,33.2
			z"/>
		<path fill="#0F0F86" d="M386.3,33.2c0.3-0.3,0-0.3-0.1-0.5c-0.6-0.6-1.1-1.2-1.6-1.9c1,0.6,1.9,1.4,2.5,2.4
			C386.7,33.5,386.6,32.7,386.3,33.2L386.3,33.2z"/>
		<path fill="#0F0F86" d="M391.1,33.2c0.8-0.4,1.7-0.8,2.5-1.2c-0.8,0.9-1.8,1.5-2.9,1.9C390.6,33.5,391.2,33.5,391.1,33.2
			L391.1,33.2z"/>
		<path fill="#0F0F86" d="M383.6,37.8c0.8-0.7,1.7-1.4,2.8-1.6C385.7,37.1,384.7,37.4,383.6,37.8z"/>
		<path fill="#0F0F86" d="M393.8,37.8c-1.1-0.3-2-0.8-2.8-1.6C392.1,36.4,392.9,37.2,393.8,37.8z"/>
		<path fill="#0F0F86" d="M390.1,40.4c-0.5-1.1-0.8-2.2-0.9-3.4C389.9,38.1,390.1,39.2,390.1,40.4z"/>
		<path fill="#0F0F86" d="M388.1,36.9c0,1.3-0.4,2.2-0.7,3.1c0,0.2-0.1,0.3-0.3,0.3c-0.1,0-0.2-0.2-0.1-0.3
			C387.4,39.1,387.5,38,388.1,36.9z"/>
		<path fill="#0F0F86" d="M388.1,32.7c-0.6-1-0.7-2.1-0.9-3.2C387.8,30.4,388.1,31.5,388.1,32.7z"/>
		<path fill="#0F0F86" d="M390.1,29.6c0.1,1.1-0.2,2.2-0.8,3.2C389.3,31.6,389.6,30.6,390.1,29.6z"/>
		<path fill="#0F0F86" d="M382.2,34.8c1.5,0,2.9,0,4.4,0c0,0.1,0,0.2,0,0.3C385.1,35.3,383.6,35.2,382.2,34.8z"/>
		<path fill="#0F0F86" d="M390.4,33c0.6-0.8,1.3-1.5,2.1-2c0.1,0.1,0.1,0.1,0.2,0.2c-0.5,0.5-0.9,1-1.4,1.5
			c-0.1,0.1-0.5,0.2-0.2,0.5l0,0c-0.2-0.4-0.4,0-0.5,0C390.5,33.1,390.4,33.1,390.4,33z"/>
		<path fill="#0F0F86" d="M390.8,34.8c1.5,0,2.9,0,4.4,0C393.7,35.1,392.3,35.4,390.8,34.8z"/>
		<path fill="#0F0F86" d="M383.4,33.6c1.1-0.2,2,0.2,2.8,0.7C385.2,34.3,384.3,34,383.4,33.6z"/>
		<path fill="#0F0F86" d="M391,34.2c0.9-0.3,1.8-0.8,3-0.6C392.9,34,392,34.4,391,34.2z"/>
		<path fill="#0F0F86" d="M383.4,36.3c0.9-0.4,1.9-0.9,3-0.7C385.4,36.1,384.5,36.3,383.4,36.3z"/>
		<path fill="#0F0F86" d="M390.8,35.6c1.2-0.2,2.1,0.2,3,0.7C392.9,36.3,391.9,36.1,390.8,35.6z"/>
		<path fill="#0F0F86" d="M388.7,37.6c0.2,0.8,0.4,1.5-0.1,2.3C388.4,39.1,388.4,38.4,388.7,37.6z"/>
		<path fill="#0F0F86" d="M386.8,37c-0.5,0.5-1,1-1.5,1.6c-0.1-0.1-0.2-0.2-0.3-0.3c0.4-0.6,0.8-1.1,1.5-1.5
			C386.7,36.9,386.7,36.9,386.8,37z"/>
		<path fill="#0F0F86" d="M390.7,37c0.7,0.3,1.2,0.8,1.5,1.5C391.5,38.3,391.1,37.7,390.7,37z"/>
		<path fill="#0F0F86" d="M388.6,32.2c-0.1-0.9-0.1-1.5,0.2-2.2C388.8,30.7,389.1,31.3,388.6,32.2z"/>
		<path fill="#0F0F86" d="M384.6,39.1c-0.1,0.1-0.2,0.4-0.4,0.2c-0.2-0.1,0.1-0.2,0.2-0.3C384.5,39.1,384.5,39.1,384.6,39.1z"/>
		<path fill="#0F0F86" d="M392.9,39c0.1,0.1,0.4,0.2,0.2,0.3c-0.1,0.1-0.3-0.1-0.4-0.2C392.8,39.1,392.9,39.1,392.9,39z"/>
		<path fill="#0F0F86" d="M390.6,36.6c0,0.1,0.1,0.1,0.1,0.2c-0.1,0-0.1,0.1-0.2,0.1c0,0-0.1-0.1-0.1-0.1
			C390.4,36.7,390.5,36.7,390.6,36.6z"/>
		<path fill="#0F0F86" d="M392.7,31c-0.1,0-0.2,0-0.2-0.1c0,0,0.1-0.1,0.1-0.1c0.1,0,0.1,0.1,0.2,0.1C392.8,30.9,392.8,31,392.7,31z
			"/>
		<path fill="#0F0F86" d="M386.6,36.8c0.1-0.2,0.2-0.2,0.3-0.1c0.1,0.1-0.1,0.2-0.1,0.3C386.7,36.9,386.7,36.9,386.6,36.8z"/>
		<path fill="#0F0F86" d="M390.5,33.2c-0.1,0.2-0.2,0.2-0.3,0.1c0.1-0.1,0.1-0.2,0.2-0.2C390.4,33.1,390.5,33.1,390.5,33.2z"/>
		<path fill="#0F0F86" d="M384.4,39c0.1-0.1,0.1-0.2,0.2-0.2c0.2,0.1,0.1,0.2,0,0.3C384.5,39.1,384.5,39.1,384.4,39z"/>
		<path fill="#0F0F86" d="M392.8,39.1c0-0.1-0.1-0.2-0.1-0.2c0.1-0.1,0.2,0,0.2,0.1C392.9,39.1,392.8,39.1,392.8,39.1z"/>
	</g>
	<rect x="313.7" y="316.7" fill="#FBEA7A" width="229.5" height="279.4"/>
	<path fill="#ED6807" d="M370.7,595.9c0-43.4,0-92.7,0-136.1c0-2.4,0.1-4.8,0.8-7.1c3.5-11.7,12.2-18.7,21.9-24.6
		c12-7.3,24.7-13.6,34.3-24.3c0.5,0.2,1,0.5,1.5,0.7c0.3,0.9,0.9,1.6,1.8,1.8c0.3,0.2,0.6,0.4,0.9,0.6c0.4,0.5,0.9,1,1.3,1.5
		c8.8,8.4,19.6,13.7,29.8,19.9c8.3,5,16,10.6,20.4,19.7c0.2,0.4,0.4,0.9,0.7,1.3c0.2,0.7,0.4,1.4,0.5,2c0.3,1.4,0.6,2.8,1,4.2
		c0.1,1.2,0.1,2.4,0.2,3.5c0.1,1.8,0.3,3.6,0.4,5.3c0,10.9,0,21.8,0,32.6c-0.6,7.3-0.6,14.5,0,21.8c0,5,0,10,0,14.9
		c-0.6,18.4-0.5,43.7-0.1,62.1c0,0.8,0-0.8,0.1,0c0,0.8,0-0.8,0,0H370.7z"/>
	<path fill="#F1CB10" d="M517.2,363.3c5.3-0.5,4.3,3.3,4.3,6.3c0,61.2,0,122.4,0,183.6c0,13.2,0.1,26.3,0.1,39.5
		c-1.7,5.9-5.6,2.6-8.9,2.2c0-70,0.1-140.1,0-210.1c0-5.1,2.4-11.8-1.1-14.9c-3.6-3.2-10.3-0.8-15.6-0.9c-27.4,0-54.9,0-82.3,0
		c-21.1,0-42.3,0-63.4-0.1c-4,0-4.5,1.7-4.5,5c0.1,15.8,0,31.5,0,47.3c0,58.2-0.1,116.5-0.1,174.7c-2.3-0.2-4.8,0.7-6.9-0.9
		c0.1-4.8,0.2-9.6,0.2-14.4c0-70.1,0.1-140.1-0.1-210.2c0-5.5,1.1-7.2,7-7.2c27.4,0.3,54.9,0.1,82.3,0.1c10.3,0,20.6,0.1,30.9,0.1
		C478.5,363.3,497.9,363.3,517.2,363.3z"/>
	<path fill="#F1CB10" d="M433.8,394.6c-22.6,0-45.2,0-67.8-0.1c-3.6,0-4.9,1.2-4.7,4.8c0.3,4.8,0.2,9.6,0,14.4
		c-1.6,55.9-0.7,111.8-0.9,167.6c0,4.8,0.5,9.6,0.7,14.3c-2.1,0-4.2,0.1-6.3,0.1c0-67.3,0-134.5-0.2-201.8c0-4.5,1.7-5.1,5.6-5.1
		c18.9,0.2,37.8,0.1,56.7,0.1c25.2,0.8,50.5,0.6,75.7,0.1c1.1,0,2.2,0.2,3.3,0c5.3-0.9,7,1.2,6.8,6.6c-0.4,11.1-0.1,22.2-0.1,33.3
		c0,54.1,0.1,108.2,0.1,162.3c-1.1,1.3,1.7,4.6-2.7,4.4c-4.4-0.2-3.9-2.7-3.9-5.5c0-60.7,0-121.5,0-182.2c0-13.8,0-13.8-13.5-13.7
		C466.4,394.5,450.1,394.5,433.8,394.6z"/>
	<path fill="#FBEA7A" d="M524.7,184.5c-40.8-52.8-56.7-47.8-93.4-88c-36.7,40.2-52.5,35.2-93.3,88c-40.8,52.8-13,98.5-13,98.5
		c40.1-22.4,76.3-30.7,106.3-31.6c30,0.9,66.3,9.2,106.4,31.6C537.7,283,565.5,237.3,524.7,184.5z"/>
	<path fill="#ED6807" d="M325.2,283c0,0,29.9-31.1,106.7-31.6C508.7,251,538.6,283,538.6,283v9.2c0,0-34.7-25.6-107.1-25.6
		s-106.6,25.6-106.6,25.6L325.2,283z"/>
	<path fill="#F1CB10" d="M201.6,339.5V410h86v-70.5C287.6,339.5,240.6,315.6,201.6,339.5z"/>
	<path fill="#FBEA7A" d="M283.1,310.2c-16.8-15.7-23.4-14.2-38.5-26.1c-15.2,11.9-21.7,10.5-38.5,26.1c-16.8,15.7-5.4,29.3-5.4,29.3
		c16.6-6.6,31.5-9.1,43.9-9.4c12.4,0.3,27.3,2.7,43.9,9.4C288.4,339.5,299.9,325.9,283.1,310.2z"/>
	<path fill="#ED6807" d="M200.8,339.5c0,0,11.7-9.3,43.4-9.4s43.4,9.4,43.4,9.4v2.7c0,0-13.7-7.6-43.6-7.6s-43.7,7.6-43.7,7.6
		L200.8,339.5z"/>
	<rect x="541.7" y="403.7" fill="#F1CB10" width="87.5" height="192.4"/>
	<rect x="629.2" y="403.7" fill="#FBEA7A" width="58.1" height="192.4"/>
	<path fill="#ED6807" d="M562.5,596c0-17.2,0-36.9,0-54.1c0-1,0-1.9,0.3-2.8c1.4-4.6,4.9-7.4,8.7-9.8c4.8-2.9,9.8-5.4,13.6-9.7
		c0.2,0.1,0.4,0.2,0.6,0.3c0.1,0.4,0.3,0.6,0.7,0.7c0.1,0.1,0.2,0.2,0.4,0.3c0.2,0.2,0.3,0.4,0.5,0.6c3.5,3.3,7.8,5.4,11.9,7.9
		c3.3,2,6.3,4.2,8.1,7.8c0.1,0.2,0.2,0.3,0.3,0.5c0.1,0.3,0.1,0.5,0.2,0.8c0.1,0.6,0.3,1.1,0.4,1.7c0,0.5,0,0.9,0.1,1.4
		c0.1,0.7,0.1,1.4,0.2,2.1c0,4.3,0,8.7,0,13c-0.2,2.9-0.2,5.8,0,8.7c0,2,0,4,0,5.9c-0.2,7.3-0.2,17.4,0,24.7c0,0.3,0-0.3,0,0
		c0,0.3,0-0.3,0,0H562.5z"/>
	<path fill="#ED6807" d="M641,596c0-17.2,0-36.9,0-54.1c0-1,0-1.9,0.2-2.8c1-4.6,3.6-7.4,6.5-9.8c3.6-2.9,7.4-5.4,10.2-9.7
		c0.1,0.1,0.3,0.2,0.4,0.3c0.1,0.4,0.3,0.6,0.5,0.7c0.1,0.1,0.2,0.2,0.3,0.3c0.1,0.2,0.3,0.4,0.4,0.6c2.6,3.3,5.8,5.4,8.9,7.9
		c2.5,2,4.8,4.2,6.1,7.8c0.1,0.2,0.1,0.3,0.2,0.5c0.1,0.3,0.1,0.5,0.2,0.8c0.1,0.6,0.2,1.1,0.3,1.7c0,0.5,0,0.9,0,1.4
		c0,0.7,0.1,1.4,0.1,2.1c0,4.3,0,8.7,0,13c-0.2,2.9-0.2,5.8,0,8.7c0,2,0,4,0,5.9c-0.2,7.3-0.2,17.4,0,24.7c0,0.3,0-0.3,0,0
		c0,0.3,0-0.3,0,0H641z"/>
	<path fill="#ED6807" d="M641,499.8c0-17.2,0-36.9,0-54.1c0-1,0-1.9,0.2-2.8c1-4.6,3.6-7.4,6.5-9.8c3.6-2.9,7.4-5.4,10.2-9.7
		c0.1,0.1,0.3,0.2,0.4,0.3c0.1,0.4,0.3,0.6,0.5,0.7c0.1,0.1,0.2,0.2,0.3,0.3c0.1,0.2,0.3,0.4,0.4,0.6c2.6,3.3,5.8,5.4,8.9,7.9
		c2.5,2,4.8,4.2,6.1,7.8c0.1,0.2,0.1,0.3,0.2,0.5c0.1,0.3,0.1,0.5,0.2,0.8c0.1,0.6,0.2,1.1,0.3,1.7c0,0.5,0,0.9,0,1.4
		c0,0.7,0.1,1.4,0.1,2.1c0,4.3,0,8.7,0,13c-0.2,2.9-0.2,5.8,0,8.7c0,2,0,4,0,5.9c-0.2,7.3-0.2,17.4,0,24.7c0,0.3,0-0.3,0,0
		c0,0.3,0-0.3,0,0H641z"/>
	<rect x="167.5" y="403.7" fill="#FBEA7A" width="60.2" height="192.4"/>
	<path fill="#ED6807" d="M179.3,596c0-17.2,0-36.9,0-54.1c0-1,0-1.9,0.2-2.8c1-4.6,3.6-7.4,6.5-9.8c3.6-2.9,7.4-5.4,10.2-9.7
		c0.1,0.1,0.3,0.2,0.4,0.3c0.1,0.4,0.3,0.6,0.5,0.7c0.1,0.1,0.2,0.2,0.3,0.3c0.1,0.2,0.3,0.4,0.4,0.6c2.6,3.3,5.8,5.4,8.9,7.9
		c2.5,2,4.8,4.2,6.1,7.8c0.1,0.2,0.1,0.3,0.2,0.5c0.1,0.3,0.1,0.5,0.2,0.8c0.1,0.6,0.2,1.1,0.3,1.7c0,0.5,0,0.9,0,1.4
		c0,0.7,0.1,1.4,0.1,2.1c0,4.3,0,8.7,0,13c-0.2,2.9-0.2,5.8,0,8.7c0,2,0,4,0,5.9c-0.2,7.3-0.2,17.4,0,24.7c0,0.3,0-0.3,0,0
		c0,0.3,0-0.3,0,0H179.3z"/>
	<path fill="#ED6807" d="M179.3,499.8c0-17.2,0-36.9,0-54.1c0-1,0-1.9,0.2-2.8c1-4.6,3.6-7.4,6.5-9.8c3.6-2.9,7.4-5.4,10.2-9.7
		c0.1,0.1,0.3,0.2,0.4,0.3c0.1,0.4,0.3,0.6,0.5,0.7c0.1,0.1,0.2,0.2,0.3,0.3c0.1,0.2,0.3,0.4,0.4,0.6c2.6,3.3,5.8,5.4,8.9,7.9
		c2.5,2,4.8,4.2,6.1,7.8c0.1,0.2,0.1,0.3,0.2,0.5c0.1,0.3,0.1,0.5,0.2,0.8c0.1,0.6,0.2,1.1,0.3,1.7c0,0.5,0,0.9,0,1.4
		c0,0.7,0.1,1.4,0.1,2.1c0,4.3,0,8.7,0,13c-0.2,2.9-0.2,5.8,0,8.7c0,2,0,4,0,5.9c-0.2,7.3-0.2,17.4,0,24.7c0,0.3,0-0.3,0,0
		c0,0.3,0-0.3,0,0H179.3z"/>
	<path fill="#ED6807" d="M562.5,499.8c0-17.2,0-36.9,0-54.1c0-1,0-1.9,0.3-2.8c1.4-4.6,4.9-7.4,8.7-9.8c4.8-2.9,9.8-5.4,13.6-9.7
		c0.2,0.1,0.4,0.2,0.6,0.3c0.1,0.4,0.3,0.6,0.7,0.7c0.1,0.1,0.2,0.2,0.4,0.3c0.2,0.2,0.3,0.4,0.5,0.6c3.5,3.3,7.8,5.4,11.9,7.9
		c3.3,2,6.3,4.2,8.1,7.8c0.1,0.2,0.2,0.3,0.3,0.5c0.1,0.3,0.1,0.5,0.2,0.8c0.1,0.6,0.3,1.1,0.4,1.7c0,0.5,0,0.9,0.1,1.4
		c0.1,0.7,0.1,1.4,0.2,2.1c0,4.3,0,8.7,0,13c-0.2,2.9-0.2,5.8,0,8.7c0,2,0,4,0,5.9c-0.2,7.3-0.2,17.4,0,24.7c0,0.3,0-0.3,0,0
		c0,0.3,0-0.3,0,0H562.5z"/>
	<path fill="#ED6807" d="M246.6,596c0-17.2,0-36.9,0-54.1c0-1,0-1.9,0.3-2.8c1.4-4.6,4.9-7.4,8.7-9.8c4.8-2.9,9.8-5.4,13.6-9.7
		c0.2,0.1,0.4,0.2,0.6,0.3c0.1,0.4,0.3,0.6,0.7,0.7c0.1,0.1,0.2,0.2,0.4,0.3c0.2,0.2,0.3,0.4,0.5,0.6c3.5,3.3,7.8,5.4,11.9,7.9
		c3.3,2,6.3,4.2,8.1,7.8c0.1,0.2,0.2,0.3,0.3,0.5c0.1,0.3,0.1,0.5,0.2,0.8c0.1,0.6,0.3,1.1,0.4,1.7c0,0.5,0,0.9,0.1,1.4
		c0.1,0.7,0.1,1.4,0.2,2.1c0,4.3,0,8.7,0,13c-0.2,2.9-0.2,5.8,0,8.7c0,2,0,4,0,5.9c-0.2,7.3-0.2,17.4,0,24.7c0,0.3,0-0.3,0,0
		c0,0.3,0-0.3,0,0H246.6z"/>
	<path fill="#ED6807" d="M246.6,499.8c0-17.2,0-36.9,0-54.1c0-1,0-1.9,0.3-2.8c1.4-4.6,4.9-7.4,8.7-9.8c4.8-2.9,9.8-5.4,13.6-9.7
		c0.2,0.1,0.4,0.2,0.6,0.3c0.1,0.4,0.3,0.6,0.7,0.7c0.1,0.1,0.2,0.2,0.4,0.3c0.2,0.2,0.3,0.4,0.5,0.6c3.5,3.3,7.8,5.4,11.9,7.9
		c3.3,2,6.3,4.2,8.1,7.8c0.1,0.2,0.2,0.3,0.3,0.5c0.1,0.3,0.1,0.5,0.2,0.8c0.1,0.6,0.3,1.1,0.4,1.7c0,0.5,0,0.9,0.1,1.4
		c0.1,0.7,0.1,1.4,0.2,2.1c0,4.3,0,8.7,0,13c-0.2,2.9-0.2,5.8,0,8.7c0,2,0,4,0,5.9c-0.2,7.3-0.2,17.4,0,24.7c0,0.3,0-0.3,0,0
		c0,0.3,0-0.3,0,0H246.6z"/>
	<path fill="#ED6807" d="M264.4,402.8c0-11.7,0-24.9,0-36.6c0-0.6,0-1.3,0.1-1.9c0.6-3.1,2-5,3.6-6.6c2-2,4.1-3.7,5.6-6.5
		c0.1,0.1,0.2,0.1,0.2,0.2c0,0.2,0.1,0.4,0.3,0.5c0.1,0.1,0.1,0.1,0.2,0.2c0.1,0.1,0.1,0.3,0.2,0.4c1.4,2.2,3.2,3.7,4.9,5.3
		c1.4,1.4,2.6,2.9,3.4,5.3c0,0.1,0.1,0.2,0.1,0.4c0,0.2,0.1,0.4,0.1,0.5c0.1,0.4,0.1,0.8,0.2,1.1c0,0.3,0,0.6,0,0.9
		c0,0.5,0,1,0.1,1.4c0,2.9,0,5.8,0,8.8c-0.1,2-0.1,3.9,0,5.9c0,1.3,0,2.7,0,4c-0.1,4.9-0.1,11.7,0,16.7c0,0.2,0-0.2,0,0
		c0,0.2,0-0.2,0,0H264.4z"/>
	<path fill="#ED6807" d="M236.7,402.8c0-11.7,0-24.9,0-36.6c0-0.6,0-1.3,0.1-1.9c0.6-3.1,2-5,3.6-6.6c2-2,4.1-3.7,5.6-6.5
		c0.1,0.1,0.2,0.1,0.2,0.2c0,0.2,0.1,0.4,0.3,0.5c0.1,0.1,0.1,0.1,0.2,0.2c0.1,0.1,0.1,0.3,0.2,0.4c1.4,2.2,3.2,3.7,4.9,5.3
		c1.4,1.4,2.6,2.9,3.4,5.3c0,0.1,0.1,0.2,0.1,0.4c0,0.2,0.1,0.4,0.1,0.5c0.1,0.4,0.1,0.8,0.2,1.1c0,0.3,0,0.6,0,0.9
		c0,0.5,0,1,0.1,1.4c0,2.9,0,5.8,0,8.8c-0.1,2-0.1,3.9,0,5.9c0,1.3,0,2.7,0,4c-0.1,4.9-0.1,11.7,0,16.7c0,0.2,0-0.2,0,0
		c0,0.2,0-0.2,0,0H236.7z"/>
	<path fill="#ED6807" d="M208.7,402.8c0-11.7,0-24.9,0-36.6c0-0.6,0-1.3,0.1-1.9c0.6-3.1,2-5,3.6-6.6c2-2,4.1-3.7,5.6-6.5
		c0.1,0.1,0.2,0.1,0.2,0.2c0,0.2,0.1,0.4,0.3,0.5c0.1,0.1,0.1,0.1,0.2,0.2c0.1,0.1,0.1,0.3,0.2,0.4c1.4,2.2,3.2,3.7,4.9,5.3
		c1.4,1.4,2.6,2.9,3.4,5.3c0,0.1,0.1,0.2,0.1,0.4c0,0.2,0.1,0.4,0.1,0.5c0.1,0.4,0.1,0.8,0.2,1.1c0,0.3,0,0.6,0,0.9
		c0,0.5,0,1,0.1,1.4c0,2.9,0,5.8,0,8.8c-0.1,2-0.1,3.9,0,5.9c0,1.3,0,2.7,0,4c-0.1,4.9-0.1,11.7,0,16.7c0,0.2,0-0.2,0,0
		c0,0.2,0-0.2,0,0H208.7z"/>
	<path fill="#FBEA7A" d="M648.1,310.2c-16.8-15.7-23.4-14.2-38.5-26.1c-15.2,11.9-21.7,10.5-38.5,26.1c-16.8,15.7-5.4,29.3-5.4,29.3
		c16.6-6.6,31.5-9.1,43.9-9.4c12.4,0.3,27.3,2.7,43.9,9.4C653.4,339.5,664.9,325.9,648.1,310.2z"/>
	<path fill="#ED6807" d="M565.8,339.5c0,0,11.7-9.3,43.4-9.4s43.4,9.4,43.4,9.4v2.7c0,0-13.7-7.6-43.6-7.6
		c-29.8,0-43.7,7.6-43.7,7.6L565.8,339.5z"/>
	<path fill="#ED6807" d="M629.4,402.8c0-11.7,0-24.9,0-36.6c0-0.6,0-1.3,0.1-1.9c0.6-3.1,2-5,3.6-6.6c2-2,4.1-3.7,5.6-6.5
		c0.1,0.1,0.2,0.1,0.2,0.2c0,0.2,0.1,0.4,0.3,0.5c0.1,0.1,0.1,0.1,0.2,0.2c0.1,0.1,0.1,0.3,0.2,0.4c1.4,2.2,3.2,3.7,4.9,5.3
		c1.4,1.4,2.6,2.9,3.4,5.3c0,0.1,0.1,0.2,0.1,0.4c0,0.2,0.1,0.4,0.1,0.5c0.1,0.4,0.1,0.8,0.2,1.1c0,0.3,0,0.6,0,0.9
		c0,0.5,0,1,0.1,1.4c0,2.9,0,5.8,0,8.8c-0.1,2-0.1,3.9,0,5.9c0,1.3,0,2.7,0,4c-0.1,4.9-0.1,11.7,0,16.7c0,0.2,0-0.2,0,0
		c0,0.2,0-0.2,0,0H629.4z"/>
	<path fill="#ED6807" d="M601.7,402.8c0-11.7,0-24.9,0-36.6c0-0.6,0-1.3,0.1-1.9c0.6-3.1,2-5,3.6-6.6c2-2,4.1-3.7,5.6-6.5
		c0.1,0.1,0.2,0.1,0.2,0.2c0,0.2,0.1,0.4,0.3,0.5c0.1,0.1,0.1,0.1,0.2,0.2c0.1,0.1,0.1,0.3,0.2,0.4c1.4,2.2,3.2,3.7,4.9,5.3
		c1.4,1.4,2.6,2.9,3.4,5.3c0,0.1,0.1,0.2,0.1,0.4c0,0.2,0.1,0.4,0.1,0.5c0.1,0.4,0.1,0.8,0.2,1.1c0,0.3,0,0.6,0,0.9
		c0,0.5,0,1,0.1,1.4c0,2.9,0,5.8,0,8.8c-0.1,2-0.1,3.9,0,5.9c0,1.3,0,2.7,0,4c-0.1,4.9-0.1,11.7,0,16.7c0,0.2,0-0.2,0,0
		c0,0.2,0-0.2,0,0H601.7z"/>
	<path fill="#ED6807" d="M573.7,402.8c0-11.7,0-24.9,0-36.6c0-0.6,0-1.3,0.1-1.9c0.6-3.1,2-5,3.6-6.6c2-2,4.1-3.7,5.6-6.5
		c0.1,0.1,0.2,0.1,0.2,0.2c0,0.2,0.1,0.4,0.3,0.5c0.1,0.1,0.1,0.1,0.2,0.2c0.1,0.1,0.1,0.3,0.2,0.4c1.4,2.2,3.2,3.7,4.9,5.3
		c1.4,1.4,2.6,2.9,3.4,5.3c0,0.1,0.1,0.2,0.1,0.4c0,0.2,0.1,0.4,0.1,0.5c0.1,0.4,0.1,0.8,0.2,1.1c0,0.3,0,0.6,0,0.9
		c0,0.5,0,1,0.1,1.4c0,2.9,0,5.8,0,8.8c-0.1,2-0.1,3.9,0,5.9c0,1.3,0,2.7,0,4c-0.1,4.9-0.1,11.7,0,16.7c0,0.2,0-0.2,0,0
		c0,0.2,0-0.2,0,0H573.7z"/>
	<polygon fill="#FBEA7A" points="44.7,596.1 3.5,596.1 11.1,292.2 39.2,292.2 	"/>
	<rect x="0" y="479.6" fill="#F1CB10" width="47.4" height="12.8"/>
	<rect x="2.7" y="389" fill="#F1CB10" width="41.9" height="12.8"/>
	<rect x="6.7" y="316.7" fill="#F1CB10" width="35.7" height="12.8"/>
	<path fill="#FBEA7A" d="M40.3,278.4c-7-10-9.8-9-16.1-16.6c-6.3,7.6-9.1,6.7-16.1,16.6c-7,10,4.1,18.6,4.1,18.6
		c6.9-4.2,6.9-5.8,12-6c5.2,0.2,8.1,1.7,15,6C39.3,297,47.4,288.4,40.3,278.4z"/>
	<polygon fill="#F1CB10" points="40.4,298.9 7.8,298.9 4.3,290.1 44.7,290.1 	"/>
	<path fill="#ED6807" d="M14.6,316.8c0-4,0-8.6,0-12.7c0-0.2,0-0.4,0-0.7c0.2-1.1,0.7-1.7,1.3-2.3c0.7-0.7,1.4-1.3,2-2.3
		c0,0,0.1,0,0.1,0.1c0,0.1,0,0.1,0.1,0.2c0,0,0,0,0.1,0.1c0,0,0.1,0.1,0.1,0.1c0.5,0.8,1.1,1.3,1.7,1.9c0.5,0.5,0.9,1,1.2,1.8
		c0,0,0,0.1,0,0.1c0,0.1,0,0.1,0,0.2c0,0.1,0,0.3,0.1,0.4c0,0.1,0,0.2,0,0.3c0,0.2,0,0.3,0,0.5c0,1,0,2,0,3c0,0.7,0,1.4,0,2
		c0,0.5,0,0.9,0,1.4c0,1.7,0,4.1,0,5.8c0,0.1,0-0.1,0,0c0,0.1,0-0.1,0,0H14.6z"/>
	<path fill="#ED6807" d="M28,316.8c0-4,0-8.6,0-12.7c0-0.2,0-0.4,0-0.7c0.2-1.1,0.7-1.7,1.3-2.3c0.7-0.7,1.4-1.3,2-2.3
		c0,0,0.1,0,0.1,0.1c0,0.1,0,0.1,0.1,0.2c0,0,0,0,0.1,0.1c0,0,0.1,0.1,0.1,0.1c0.5,0.8,1.1,1.3,1.7,1.9c0.5,0.5,0.9,1,1.2,1.8
		c0,0,0,0.1,0,0.1c0,0.1,0,0.1,0,0.2c0,0.1,0,0.3,0.1,0.4c0,0.1,0,0.2,0,0.3c0,0.2,0,0.3,0,0.5c0,1,0,2,0,3c0,0.7,0,1.4,0,2
		c0,0.5,0,0.9,0,1.4c0,1.7,0,4.1,0,5.8c0,0.1,0-0.1,0,0c0,0.1,0-0.1,0,0H28z"/>
	<polygon fill="#FBEA7A" points="125,596.1 93.9,596.1 99.7,366.3 120.9,366.3 	"/>
	<rect x="91.2" y="508" fill="#F1CB10" width="35.8" height="9.7"/>
	<rect x="93.3" y="439.5" fill="#F1CB10" width="31.7" height="9.7"/>
	<rect x="96.3" y="384.8" fill="#F1CB10" width="27" height="9.7"/>
	<path fill="#FBEA7A" d="M121.7,355.9c-5.3-7.5-7.4-6.8-12.2-12.6c-4.8,5.7-6.9,5-12.2,12.6c-5.3,7.5,3.1,14.1,3.1,14.1
		c5.2-3.2,5.2-4.4,9.1-4.5c3.9,0.1,6.1,1.3,11.4,4.5C120.9,370,127.1,363.5,121.7,355.9z"/>
	<polygon fill="#F1CB10" points="121.8,371.4 97.1,371.4 94.5,364.8 125,364.8 	"/>
	<path fill="#ED6807" d="M102.3,385c0-3.1,0-6.5,0-9.6c0-0.2,0-0.3,0-0.5c0.1-0.8,0.5-1.3,0.9-1.7c0.5-0.5,1.1-1,1.5-1.7
		c0,0,0,0,0.1,0c0,0.1,0,0.1,0.1,0.1c0,0,0,0,0,0c0,0,0,0.1,0.1,0.1c0.4,0.6,0.8,1,1.3,1.4c0.4,0.4,0.7,0.7,0.9,1.4c0,0,0,0.1,0,0.1
		c0,0,0,0.1,0,0.1c0,0.1,0,0.2,0,0.3c0,0.1,0,0.2,0,0.2c0,0.1,0,0.3,0,0.4c0,0.8,0,1.5,0,2.3c0,0.5,0,1,0,1.5c0,0.4,0,0.7,0,1.1
		c0,1.3,0,3.1,0,4.4c0,0.1,0-0.1,0,0c0,0.1,0-0.1,0,0H102.3z"/>
	<path fill="#ED6807" d="M112.4,385c0-3.1,0-6.5,0-9.6c0-0.2,0-0.3,0-0.5c0.1-0.8,0.5-1.3,0.9-1.7c0.5-0.5,1.1-1,1.5-1.7
		c0,0,0,0,0.1,0c0,0.1,0,0.1,0.1,0.1c0,0,0,0,0,0c0,0,0,0.1,0.1,0.1c0.4,0.6,0.8,1,1.3,1.4c0.4,0.4,0.7,0.7,0.9,1.4c0,0,0,0.1,0,0.1
		c0,0,0,0.1,0,0.1c0,0.1,0,0.2,0,0.3c0,0.1,0,0.2,0,0.2c0,0.1,0,0.3,0,0.4c0,0.8,0,1.5,0,2.3c0,0.5,0,1,0,1.5c0,0.4,0,0.7,0,1.1
		c0,1.3,0,3.1,0,4.4c0,0.1,0-0.1,0,0c0,0.1,0-0.1,0,0H112.4z"/>
	<polygon fill="#FBEA7A" points="818,596.1 859.2,596.1 851.5,292.2 823.5,292.2 	"/>
	<rect x="815.3" y="479.6" fill="#F1CB10" width="47.4" height="12.8"/>
	<rect x="818" y="389" fill="#F1CB10" width="41.9" height="12.8"/>
	<rect x="820.3" y="316.7" fill="#F1CB10" width="35.7" height="12.8"/>
	<path fill="#FBEA7A" d="M822.3,278.4c7-10,9.8-9,16.1-16.6c6.3,7.6,9.1,6.7,16.1,16.6c7,10-4.1,18.6-4.1,18.6
		c-6.9-4.2-6.9-5.8-12-6c-5.2,0.2-8.1,1.7-15,6C823.4,297,815.3,288.4,822.3,278.4z"/>
	<polygon fill="#F1CB10" points="822.3,298.9 854.9,298.9 858.4,290.1 818,290.1 	"/>
	<path fill="#ED6807" d="M848.1,316.8c0-4,0-8.6,0-12.7c0-0.2,0-0.4,0-0.7c-0.2-1.1-0.7-1.7-1.3-2.3c-0.7-0.7-1.4-1.3-2-2.3
		c0,0-0.1,0-0.1,0.1c0,0.1,0,0.1-0.1,0.2c0,0,0,0-0.1,0.1c0,0-0.1,0.1-0.1,0.1c-0.5,0.8-1.1,1.3-1.7,1.9c-0.5,0.5-0.9,1-1.2,1.8
		c0,0,0,0.1,0,0.1c0,0.1,0,0.1,0,0.2c0,0.1,0,0.3-0.1,0.4c0,0.1,0,0.2,0,0.3c0,0.2,0,0.3,0,0.5c0,1,0,2,0,3c0,0.7,0,1.4,0,2
		c0,0.5,0,0.9,0,1.4c0,1.7,0,4.1,0,5.8c0,0.1,0-0.1,0,0c0,0.1,0-0.1,0,0H848.1z"/>
	<path fill="#ED6807" d="M834.7,316.8c0-4,0-8.6,0-12.7c0-0.2,0-0.4,0-0.7c-0.2-1.1-0.7-1.7-1.3-2.3c-0.7-0.7-1.4-1.3-2-2.3
		c0,0-0.1,0-0.1,0.1c0,0.1,0,0.1-0.1,0.2c0,0,0,0-0.1,0.1c0,0-0.1,0.1-0.1,0.1c-0.5,0.8-1.1,1.3-1.7,1.9c-0.5,0.5-0.9,1-1.2,1.8
		c0,0,0,0.1,0,0.1c0,0.1,0,0.1,0,0.2c0,0.1,0,0.3-0.1,0.4c0,0.1,0,0.2,0,0.3c0,0.2,0,0.3,0,0.5c0,1,0,2,0,3c0,0.7,0,1.4,0,2
		c0,0.5,0,0.9,0,1.4c0,1.7,0,4.1,0,5.8c0,0.1,0-0.1,0,0c0,0.1,0-0.1,0,0H834.7z"/>
	<polygon fill="#FBEA7A" points="737.6,596.1 768.8,596.1 763,366.3 741.8,366.3 	"/>
	<rect x="735.6" y="508" fill="#F1CB10" width="35.8" height="9.7"/>
	<rect x="737.6" y="439.5" fill="#F1CB10" width="31.7" height="9.7"/>
	<rect x="739.4" y="384.8" fill="#F1CB10" width="27" height="9.7"/>
	<path fill="#FBEA7A" d="M740.9,355.9c5.3-7.5,7.4-6.8,12.2-12.6c4.8,5.7,6.9,5,12.2,12.6c5.3,7.5-3.1,14.1-3.1,14.1
		c-5.2-3.2-5.2-4.4-9.1-4.5c-3.9,0.1-6.1,1.3-11.4,4.5C741.7,370,735.6,363.5,740.9,355.9z"/>
	<polygon fill="#F1CB10" points="740.9,371.4 765.5,371.4 768.2,364.8 737.6,364.8 	"/>
	<path fill="#ED6807" d="M760.4,385c0-3.1,0-6.5,0-9.6c0-0.2,0-0.3,0-0.5c-0.2-0.8-0.5-1.3-0.9-1.7c-0.5-0.5-1.1-1-1.5-1.7
		c0,0,0,0-0.1,0c0,0.1,0,0.1-0.1,0.1c0,0,0,0,0,0c0,0,0,0.1-0.1,0.1c-0.4,0.6-0.8,1-1.3,1.4c-0.4,0.4-0.7,0.7-0.9,1.4
		c0,0,0,0.1,0,0.1c0,0,0,0.1,0,0.1c0,0.1,0,0.2,0,0.3c0,0.1,0,0.2,0,0.2c0,0.1,0,0.3,0,0.4c0,0.8,0,1.5,0,2.3c0,0.5,0,1,0,1.5
		c0,0.4,0,0.7,0,1.1c0,1.3,0,3.1,0,4.4c0,0.1,0-0.1,0,0c0,0.1,0-0.1,0,0H760.4z"/>
	<path fill="#ED6807" d="M750.3,385c0-3.1,0-6.5,0-9.6c0-0.2,0-0.3,0-0.5c-0.2-0.8-0.5-1.3-0.9-1.7c-0.5-0.5-1.1-1-1.5-1.7
		c0,0,0,0-0.1,0c0,0.1,0,0.1-0.1,0.1c0,0,0,0,0,0c0,0,0,0.1-0.1,0.1c-0.4,0.6-0.8,1-1.3,1.4c-0.4,0.4-0.7,0.7-0.9,1.4
		c0,0,0,0.1,0,0.1c0,0,0,0.1,0,0.1c0,0.1,0,0.2,0,0.3c0,0.1,0,0.2,0,0.2c0,0.1,0,0.3,0,0.4c0,0.8,0,1.5,0,2.3c0,0.5,0,1,0,1.5
		c0,0.4,0,0.7,0,1.1c0,1.3,0,3.1,0,4.4c0,0.1,0-0.1,0,0c0,0.1,0-0.1,0,0H750.3z"/>
</g>
</svg>
