<?xml version="1.0" encoding="utf-8"?>
<!-- Generator: Adobe Illustrator 18.1.1, SVG Export Plug-In . SVG Version: 6.00 Build 0)  -->
<svg version="1.1" id="Layer_1" xmlns="http://www.w3.org/2000/svg" xmlns:xlink="http://www.w3.org/1999/xlink" x="0px" y="0px"
	 viewBox="0 0 392 976.3" enable-background="new 0 0 392 976.3" xml:space="preserve">
<g>
	<rect x="121.3" y="471.6" fill="#D0A771" width="148.8" height="504.5"/>
	<rect x="115.7" y="331.5" fill="#D0A771" width="158.1" height="146.9"/>
	<rect x="121.3" y="294.7" fill="#D0A771" width="146.9" height="28.9"/>
	<rect x="133.2" y="344.5" fill="#C29768" width="121.8" height="120.5"/>
	<circle fill="#D6CAB4" cx="194.4" cy="404.9" r="52"/>
	<rect x="116" y="330.7" fill="#C29768" width="5.9" height="146.2"/>
	<rect x="131.5" y="480.8" fill="#C29768" width="5.1" height="495.4"/>
	<rect x="147.3" y="480.8" fill="#C29768" width="5.1" height="495.4"/>
	<rect x="163.1" y="480.8" fill="#C29768" width="5.1" height="495.4"/>
	<rect x="178.9" y="480.8" fill="#C29768" width="5.1" height="495.4"/>
	<rect x="197.7" y="480.8" fill="#C29768" width="5.1" height="495.4"/>
	<rect x="214.5" y="480.8" fill="#C29768" width="5.1" height="495.4"/>
	<rect x="233.2" y="480.8" fill="#C29768" width="5.1" height="495.4"/>
	<rect x="250" y="480.8" fill="#C29768" width="5.1" height="495.4"/>
	<rect x="270.2" y="330.7" fill="#C29768" width="5.9" height="146.2"/>
	<rect x="116" y="321.9" fill="#AB946A" width="159.9" height="12.7"/>
	<path fill="#333333" d="M136.6,304.8c0-3.8-2.4-6.9-5.1-6.9c-2.7,0-5.2,3.1-5.2,6.9c0,0.2-0.3,0.5-0.3,0.7V320h11v-14.5
		C137,305.3,136.6,305.1,136.6,304.8z"/>
	<path fill="#333333" d="M150,304.8c0-3.8-2.2-6.9-4.9-6.9s-5,3.1-5,6.9c0,0.2-0.1,0.5-0.1,0.7V320h10v-14.5
		C150,305.3,150,305.1,150,304.8z"/>
	<path fill="#333333" d="M164,304.8c0-3.8-2.2-6.9-4.9-6.9c-2.7,0-5,3.1-5,6.9c0,0.2,0,0.5,0,0.7V320h10v-14.5
		C164,305.3,164,305.1,164,304.8z"/>
	<path fill="#333333" d="M177.9,304.8c0-3.8-2.3-6.9-5-6.9c-2.7,0-4.9,3.1-4.9,6.9c0,0.2,0,0.5,0,0.7V320h10v-14.5
		C178,305.3,177.9,305.1,177.9,304.8z"/>
	<path fill="#333333" d="M191.3,304.8c0-3.8-2.1-6.9-4.8-6.9c-2.7,0-4.7,3.1-4.7,6.9c0,0.2,0.2,0.5,0.2,0.7V320h9v-14.5
		C191,305.3,191.3,305.1,191.3,304.8z"/>
	<path fill="#333333" d="M205.7,304.8c0-3.8-2.4-6.9-5.1-6.9s-5.8,3.1-5.8,6.9c0,0.2-0.9,0.5-0.9,0.7V320h12v-14.5
		C206,305.3,205.7,305.1,205.7,304.8z"/>
	<path fill="#333333" d="M219.1,304.8c0-3.8-2.2-6.9-4.8-6.9c-2.7,0-4.6,3.1-4.6,6.9c0,0.2,0.3,0.5,0.3,0.7V320h9v-14.5
		C219,305.3,219.1,305.1,219.1,304.8z"/>
	<path fill="#333333" d="M234,304.8c0-3.8-2.7-6.9-5.4-6.9c-2.7,0-5.8,3.1-5.8,6.9c0,0.2-0.9,0.5-0.9,0.7V320h13v-14.5
		C235,305.3,234,305.1,234,304.8z"/>
	<path fill="#333333" d="M247,304.8c0-3.8-2.2-6.9-4.9-6.9s-4.5,3.1-4.5,6.9c0,0.2,0.5,0.5,0.5,0.7V320h9v-14.5
		C247,305.3,247,305.1,247,304.8z"/>
	<path fill="#333333" d="M260.9,304.8c0-3.8-2.3-6.9-5-6.9s-4.9,3.1-4.9,6.9c0,0.2,0,0.5,0,0.7V320h10v-14.5
		C261,305.3,260.9,305.1,260.9,304.8z"/>
	<rect x="156.3" y="164.6" fill="#D0A771" width="76.9" height="60.2"/>
	<path fill="#333333" d="M172.9,191.4c0-6.9-2.8-12.6-5.5-12.6c-2.7,0-5.2,5.6-5.2,12.6c0,0.4-0.3,0.9-0.3,1.3V219h12v-26.3
		C174,192.3,172.9,191.9,172.9,191.4z"/>
	<path fill="#333333" d="M185.8,191.4c0-6.9-2.3-12.6-5-12.6c-2.7,0-4.4,5.6-4.4,12.6c0,0.4,0.6,0.9,0.6,1.3V219h9v-26.3
		C186,192.3,185.8,191.9,185.8,191.4z"/>
	<path fill="#333333" d="M199.7,191.4c0-6.9-2.3-12.6-5-12.6c-2.7,0-5.3,5.6-5.3,12.6c0,0.4-0.4,0.9-0.4,1.3V219h11v-26.3
		C200,192.3,199.7,191.9,199.7,191.4z"/>
	<path fill="#333333" d="M213.7,191.4c0-6.9-2.4-12.6-5.1-12.6s-4.3,5.6-4.3,12.6c0,0.4,0.7,0.9,0.7,1.3V219h9v-26.3
		C214,192.3,213.7,191.9,213.7,191.4z"/>
	<path fill="#333333" d="M226.6,191.4c0-6.9-1.9-12.6-4.6-12.6c-2.7,0-4.9,5.6-4.9,12.6c0,0.4,0,0.9,0,1.3V219h9v-26.3
		C226,192.3,226.6,191.9,226.6,191.4z"/>
	<rect x="121" y="287.4" fill="#515A57" width="146.9" height="7.7"/>
	<rect x="154.8" y="159" fill="#515A57" width="79.3" height="7.7"/>
	<polygon fill="#515A57" points="260,287.7 127.6,287.7 156.6,223.3 232.2,223.3 	"/>
	<path fill="#333333" d="M164.3,273.8c0-2.2-1.3-4-3.1-4s-3.2,1.8-3.2,4c0,0.1,0,0.3,0,0.4v7.8h6v-7.8
		C164,274.1,164.3,273.9,164.3,273.8z"/>
	<path fill="#333333" d="M186.2,273.8c0-2.2-1.4-4-3.2-4c-1.8,0-3.1,1.8-3.1,4c0,0.1,0.1,0.3,0.1,0.4v7.8h6v-7.8
		C186,274.1,186.2,273.9,186.2,273.8z"/>
	<path fill="#333333" d="M176.7,250.1c0-2.2-1.6-4-3.4-4c-1.8,0-2.8,1.8-2.8,4c0,0.1,0.5,0.3,0.5,0.4v8.5h6v-8.5
		C177,250.3,176.7,250.2,176.7,250.1z"/>
	<path fill="#333333" d="M198.1,250.1c0-2.2-1.4-4-3.2-4s-3.6,1.8-3.6,4c0,0.1-0.3,0.3-0.3,0.4v8.5h7v-8.5
		C198,250.3,198.1,250.2,198.1,250.1z"/>
	<path fill="#333333" d="M217.5,250.1c0-2.2-1.2-4-3-4c-1.8,0-2.9,1.8-2.9,4c0,0.1,0.4,0.3,0.4,0.4v8.5h5v-8.5
		C217,250.3,217.5,250.2,217.5,250.1z"/>
	<path fill="#333333" d="M208,273.8c0-2.2-1.5-4-3.2-4c-1.8,0-3,1.8-3,4c0,0.1,0.2,0.3,0.2,0.4v7.8h6v-7.8
		C208,274.1,208,273.9,208,273.8z"/>
	<path fill="#333333" d="M229.4,273.8c0-2.2-1.3-4-3.1-4s-3.8,1.8-3.8,4c0,0.1-0.5,0.3-0.5,0.4v7.8h7v-7.8
		C229,274.1,229.4,273.9,229.4,273.8z"/>
	<polygon fill="#515A57" points="193.8,159 156.1,159 174.9,85.4 193.8,11.6 212.6,85.3 231.4,159 	"/>
	<path fill="#333333" d="M178.6,135.8c0-1.9-1-3.4-2.5-3.4c-1.5,0-1.9,1.5-1.9,3.4c0,0.1,0.8,0.2,0.8,0.3v9.8h3v-9.8
		C178,136.1,178.6,136,178.6,135.8z"/>
	<path fill="#333333" d="M197.8,135.8c0-1.9-1.4-3.4-2.9-3.4c-1.5,0-3.3,1.5-3.3,3.4c0,0.1-0.6,0.2-0.6,0.3v9.8h7v-9.8
		C198,136.1,197.8,136,197.8,135.8z"/>
	<path fill="#333333" d="M214.1,135.8c0-1.9-1.2-3.4-2.7-3.4c-1.5,0-2.1,1.5-2.1,3.4c0,0.1,0.7,0.2,0.7,0.3v9.8h4v-9.8
		C214,136.1,214.1,136,214.1,135.8z"/>
	<path fill="#333333" d="M186.5,112.1c0-1.9-1-3.4-2.5-3.4c-1.5,0-2.4,1.5-2.4,3.4c0,0.1,0.4,0.2,0.4,0.3v7.5h4v-7.5
		C186,112.4,186.5,112.3,186.5,112.1z"/>
	<path fill="#333333" d="M206.2,112.1c0-1.9-1.2-3.4-2.7-3.4c-1.5,0-2.1,1.5-2.1,3.4c0,0.1,0.6,0.2,0.6,0.3v7.5h4v-7.5
		C206,112.4,206.2,112.3,206.2,112.1z"/>
	<rect x="185.9" y="23.3" fill="#D0A771" width="16.8" height="5.4"/>
	<rect x="189.8" y="6" fill="#D0A771" width="7.4" height="19.3"/>
	<rect x="155.7" y="139.4" fill="#D0A771" width="2.5" height="19.8"/>
	<rect x="126.6" y="267.3" fill="#D0A771" width="2.5" height="19.8"/>
	<rect x="259.5" y="267.3" fill="#D0A771" width="2.5" height="19.8"/>
	<rect x="229.3" y="139.4" fill="#D0A771" width="2.5" height="19.8"/>
	<polygon fill="#333333" points="200.7,399.2 154.2,426.4 203.6,402.6 	"/>
	<polygon fill="#333333" points="188.8,400.7 213,419.4 193.3,396.2 	"/>
	<g>
		<path fill="#5773C6" d="M59.5,501.9c-29.5,0-53.3,23.9-53.3,53.3s23.9,53.3,53.3,53.3s53.3-23.9,53.3-53.3S88.9,501.9,59.5,501.9z
			 M59.5,599.7c-24.6,0-44.5-19.9-44.5-44.5c0-24.6,19.9-44.5,44.5-44.5s44.5,19.9,44.5,44.5C103.9,579.8,84,599.7,59.5,599.7z"/>
		<path fill="#EDD034" d="M128.6,550.3c-29.5,0-53.3,23.9-53.3,53.3c0,29.5,23.9,53.3,53.3,53.3s53.3-23.9,53.3-53.3
			C182,574.2,158.1,550.3,128.6,550.3z M128.6,648.1c-24.6,0-44.5-19.9-44.5-44.5c0-24.6,19.9-44.5,44.5-44.5s44.5,19.9,44.5,44.5
			C173.1,628.2,153.2,648.1,128.6,648.1z"/>
		<path fill="#7AC46F" d="M265.9,550.3c-29.5,0-53.3,23.9-53.3,53.3c0,29.5,23.9,53.3,53.3,53.3s53.3-23.9,53.3-53.3
			C319.3,574.2,295.4,550.3,265.9,550.3z M265.9,648.1c-24.6,0-44.5-19.9-44.5-44.5c0-24.6,19.9-44.5,44.5-44.5s44.5,19.9,44.5,44.5
			C310.4,628.2,290.5,648.1,265.9,648.1z"/>
		<path fill="#1D1733" d="M198.8,501.9c-29.5,0-53.3,23.9-53.3,53.3s23.9,53.3,53.3,53.3s53.3-23.9,53.3-53.3
			S228.2,501.9,198.8,501.9z M198.8,599.7c-24.6,0-44.5-19.9-44.5-44.5c0-24.6,19.9-44.5,44.5-44.5s44.5,19.9,44.5,44.5
			C243.2,579.8,223.3,599.7,198.8,599.7z"/>
		<path fill="#F21630" d="M333.1,501.9c-29.5,0-53.3,23.9-53.3,53.3s23.9,53.3,53.3,53.3s53.3-23.9,53.3-53.3
			S362.6,501.9,333.1,501.9z M333.1,599.7c-24.6,0-44.5-19.9-44.5-44.5c0-24.6,19.9-44.5,44.5-44.5s44.5,19.9,44.5,44.5
			C377.6,579.8,357.7,599.7,333.1,599.7z"/>
	</g>
</g>
</svg>
