<?xml version="1.0" encoding="utf-8"?>
<!-- Generator: Adobe Illustrator 18.1.1, SVG Export Plug-In . SVG Version: 6.00 Build 0)  -->
<svg version="1.1" id="Layer_1" xmlns="http://www.w3.org/2000/svg" xmlns:xlink="http://www.w3.org/1999/xlink" x="0px" y="0px"
	 viewBox="0 0 251 380" enable-background="new 0 0 251 380" xml:space="preserve">
<g>
	<path fill="#01040D" d="M19.9,267.6c0,0-15.4,5.7-12.7,10c2.7,4.3,10.8-0.7,15.5-5C27.5,268.3,19.9,267.6,19.9,267.6z"/>
	<path fill="#686EA7" d="M80.7,294.9l-48.9-13.6v-13.7l41.3,6.6C73.1,274.3,82.5,286.4,80.7,294.9z"/>
	<path fill="#7F88BF" d="M23,138.2c0,0,33.6,14.4,42.8-12.5c0,0,10.9,14.6-1.1,26.8c0,0-24.6,22.7-44.2-4.7L23,138.2z"/>
	
		<ellipse transform="matrix(0.9895 0.1442 -0.1442 0.9895 15.6482 -16.5673)" fill="#7F88BF" cx="122.1" cy="99.6" rx="18" ry="15.4"/>
	
		<ellipse transform="matrix(0.9895 0.1442 -0.1442 0.9895 16.5498 -16.0301)" fill="#3E4460" cx="118.8" cy="106.1" rx="27.4" ry="15.4"/>
	<polygon fill="#686EA7" points="27.2,332.1 37,339.9 79.2,229.8 73.1,274.3 80.7,294.9 109.6,219.5 61.9,199.9 	"/>
	<polygon fill="#7F88BF" points="49.2,225.6 75.2,221 87.3,211.3 87.3,223.4 101.6,240.5 109.6,219.5 109.6,197.9 142.8,149.2 
		123.6,135.8 127.3,129.4 94.1,119.4 94.4,127.9 65.8,124.9 63.1,193.3 	"/>
	<polygon fill="#7F88BF" points="141.7,150.8 201.9,176.1 198,185.7 132.1,164.9 	"/>
	<polyline fill="#E6E7E8" points="98.2,120.6 98.2,130.3 101.7,139.8 104.7,161.5 116.3,137.7 120.8,127.5 99.3,120.9 	"/>
	<polygon fill="#464F7F" points="89.6,226.2 91.9,193.2 126,129 120.8,127.5 104.7,161.5 101.7,139.8 102.4,166.5 89.6,193 
		86.4,210 75.2,221 87.3,211.3 87.3,223.4 	"/>
	<path fill="#F9BD91" d="M197.2,188.6c16.8,11.8,21,4.1,21.6,1s-10.3-6.2-10.3-6.2s4.4,1.7,4.8-0.8c0.4-2.4-4.7-4.6-4.7-4.6
		s-8.1-4.3-11.3,1C194,184.4,197.2,188.6,197.2,188.6z"/>
	<path fill="#F9BD91" d="M134.7,100.8l-10.1,29.6l-4.5-1.5l-3.3,9.8c0,0-8.4,8.2-17.4-5.9l6.9-20.3c0,0-3.5-2-2-6.3
		c1.5-4.3,5.1-0.8,5.1-0.8l4-11.8L134.7,100.8z"/>
	<g>
		<path fill="#231F20" d="M177.8,244.5c-0.3,0.6-0.9,0.9-1.3,0.6l0,0c-0.4-0.3-0.4-1.1,0-1.7l6.2-11.2c0.3-0.6,0.9-0.9,1.3-0.6l0,0
			c0.4,0.3,0.4,1.1,0,1.7L177.8,244.5z"/>
		<polygon fill="#464F7F" points="217.4,160.4 209.9,167.6 179.8,236.9 182,238.4 221.5,178.5 223,161.9 		"/>
		<path fill="#A97C50" d="M223,161.9l7.1-13.4c0,0,9.4-2.8,5.8,7.2l3.4,2.8c0,0,5.3-11.5,0-16c-5.3-4.5-11.6-4-14.3,2.6l-7.7,15.3
			L223,161.9z"/>
	</g>
	<path fill="#3C2415" d="M109.3,105.4v1.7h0.9l6.1-12.5c0,0-2.9-3.4-9.1,0.6v8.9L109.3,105.4z"/>
	<g>
		<path fill="#4D4D4D" d="M37.6,344.4H17.3l1.2-8.8c1.1-8.6,1.6-17.3,1.2-26l-0.3-8.1l3.6-240h8.9l3.6,240.4v0
			c-0.5,14,0.1,28.1,2,42L37.6,344.4z"/>
		<path fill="#4D4D4D" d="M34.1,61.7H20.8c-0.3,0-0.5-0.2-0.5-0.5v-9.9h14.2v9.9C34.5,61.5,34.3,61.7,34.1,61.7z"/>
		<rect x="23" y="61.7" fill="#333333" width="8.8" height="1.9"/>
		<rect x="21.9" y="13.9" fill="#333333" width="11.1" height="2.7"/>
		<rect x="17.8" y="287" fill="#333333" width="19.2" height="3.2"/>
		<path fill="#4D4D4D" d="M44.5,362H25v18h27v-12.1C52,364.7,47.7,362,44.5,362z"/>
		<path fill="#333333" d="M11.3,362c-3.2,0-6.3,2.7-6.3,5.9V380h20v-18H11.3z"/>
		<path fill="#4D4D4D" d="M44,354.3c0-2.8-2.4-4.3-5.2-4.3H25v14h19V354.3z"/>
		<path fill="#333333" d="M16.1,350c-2.8,0-6.1,1.5-6.1,4.3v9.7h15v-14H16.1z"/>
		<path fill="#4D4D4D" d="M41,346.5c0-1.7-1.9-1.5-3.7-1.5h-1.8l-12.4,6H41V346.5z"/>
		<path fill="#333333" d="M17.6,345c-1.7,0-2.6-0.2-2.6,1.5v3.6l10.4,1l10.1-6.1H17.6z"/>
		<rect x="25.2" y="43.5" fill="#333333" width="3.9" height="8.5"/>
		<path fill="#333333" d="M32.7,43.7H21.9c-0.2,0-0.4-0.2-0.4-0.4v-2.7h11.7l0,2.7C33.1,43.5,32.9,43.7,32.7,43.7z"/>
		<polygon fill="#FCEEE4" points="36.3,17.5 33.1,40.9 21.5,40.5 18.1,17.2 		"/>
		<polygon fill="#333333" points="22.2,18 24,41 25.6,41 23.7,18 		"/>
		<polygon fill="#333333" points="32.2,18 30.4,41 28.9,41 30.8,18 		"/>
		<rect x="18" y="15.8" fill="#333333" width="18.6" height="1.9"/>
		<polygon fill="#333333" points="27.7,13 26.2,13 27,9.1 27.7,5 28.5,9 29.2,13 		"/>
		<path fill="#4D4D4D" d="M9,61.1l-0.2,0.2C8.9,61.3,9,61.2,9,61.1z"/>
		<path fill="#4D4D4D" d="M9,61.1l0.6-0.4c0,0-0.1,0-0.2,0C9.3,60.9,9.2,61,9,61.1z"/>
		<path opacity="0.1" d="M26.1,60.6c-1-0.2-0.7-3.6-0.5-7.6H19v6.2c0,1.4,2.1,2.5,3.5,2.5l9-0.1c0.5,0,1.4-0.3,1.8-0.5l0.3-0.1
			c0.2-0.1,0.3-0.3,0.5-0.4C33,60.7,27.2,60.9,26.1,60.6z"/>
		<rect x="20.3" y="51.3" fill="#333333" width="14.2" height="1.9"/>
		<polygon opacity="0.1" points="26.4,63.6 26.3,287.2 19.6,287 23,63.6 		"/>
		<polygon opacity="0.1" points="19.5,290.2 19.4,298 26,298 26.1,290.6 		"/>
		<rect x="17.8" y="296.5" fill="#333333" width="19.2" height="3.2"/>
		<path opacity="0.1" d="M25.7,299.6l-0.1,43.9c0,0-2.5,2.4-0.7,6.6c0,2.2-4.4-1.7-3.8,13.4c-3.6,0-3.8,8.2-3.6,16.7l-12.1,0.1
			c0,0-0.4-6.7-0.4-12.3c0-5.6,5.8-5.4,5.8-5.4s-0.2-5-0.2-8.9c0-2.6,4.1-4.3,4.1-4.3s-1-5.7,2.4-5.8c3-15.4,2.6-33.3,2.4-43.9
			L25.7,299.6z"/>
	</g>
	<path fill="#F9BD91" d="M26.3,143.1c0,3.6-2.9,6.4-6.4,6.4l0,0c-3.6,0-6.4-2.9-6.4-6.4v-4c0-3.6,2.9-6.4,6.4-6.4l0,0
		c3.6,0,6.4,2.9,6.4,6.4V143.1z"/>
</g>
</svg>
