<?xml version="1.0" encoding="utf-8"?>
<!-- Generator: Adobe Illustrator 18.1.1, SVG Export Plug-In . SVG Version: 6.00 Build 0)  -->
<svg version="1.1" id="Layer_1" xmlns="http://www.w3.org/2000/svg" xmlns:xlink="http://www.w3.org/1999/xlink" x="0px" y="0px"
	 viewBox="0 0 204 163.5" enable-background="new 0 0 204 163.5" xml:space="preserve">
<g>
	<path fill="#D89F79" d="M111.4,26.5c0,0,8.6,8.5,7.7,27.5H116c0,0,0.7-15.6-6.9-24L111.4,26.5z"/>
	<path fill="#D89F79" d="M116,53c0,0-2.2,1.7-1.8,2.7c0.4,1,0.7,1.1,0.6,2.2c-0.1,1,3,1.8,4.9,0.5c1.9-1.3-0.6-5.4-0.6-5.4H116z"/>
	<polygon fill="#D89F79" points="108.4,61.6 111.6,90.2 107.9,90.4 102,61.1 	"/>
	<polygon fill="#D89F79" points="90.9,61.1 87.6,89.8 91.4,89.9 97.2,60.7 	"/>
	<path fill="#F15A24" d="M91.9,49.9l-1.4,14.8l7.7,0.1l1.8-5.6l1.8,5.7h6.9L107,49.9C107,49.9,95.8,47.3,91.9,49.9z"/>
	<path fill="#FCFCFC" d="M91.1,93.7"/>
	<path fill="#F2F2F2" d="M87.6,89.8c-0.5,0.1-3.1,1.2-5.2,2.2c-0.7,0.3-0.5,1.3,0.3,1.3l8.8-0.2c0,0,1.2-1.6-0.1-3.1L87.6,89.8z"/>
	<path fill="#F2F2F2" d="M111.6,89.9c0.5,0.1,3.1,1.2,5.2,2.2c0.7,0.3,0.5,1.3-0.3,1.3l-8.8-0.2c0,0-1.2-1.6,0.1-3.1L111.6,89.9z"/>
	<path fill="#D89F79" d="M88,26.5c0,0-8.6,8.5-7.7,27.5h3.1c0,0-0.7-15.6,6.9-24L88,26.5z"/>
	<path fill="#29ABE2" d="M90.9,23c0,0,6.5-3.9,16.1-0.9c0,0,0.6,3,0,27.7c-0.1-0.4-15,0.3-15,0C91.7,22.2,90.9,23,90.9,23z"/>
	<path fill="#D89F79" d="M104.5,8.2l-0.3,11.2l-1.9,0.1l0.2,3.1c0,0-3,2.8-6.5-0.4l-0.1-7c0,0-1.4-0.3-1.4-2s1.7-0.8,1.7-0.8L96.4,8
		L104.5,8.2z"/>
	<path fill="#D89F79" d="M96.2,22.4l4.2,3.4l2.2-3.1C102.6,22.8,98.4,22.4,96.2,22.4z"/>
	<path fill="#29ABE2" d="M92.6,22.3c0,0-3.4,0.8-6.1,5.5c0,0,1.5,3.3,4,4.1l3-2.3L92.6,22.3z"/>
	<path fill="#29ABE2" d="M106.9,22.2c0,0,3.2,0.5,5.9,5.2c0,0-1.5,3.3-4,4.1l-3-2.3L106.9,22.2z"/>
	<path fill="#754C24" d="M96.3,12.5l-0.1,2l1.7-0.1l-0.1-3.9l6.7-2.3l-0.1,3.7c0,0,1.6-2.1,0.7-4.8S97.7,2.5,95,6.4
		s-0.3,6.9-0.3,6.9S95.2,11.9,96.3,12.5z"/>
	<path fill="#D89F79" d="M83.5,53c0,0,2.2,1.7,1.8,2.7c-0.4,1-0.7,1.1-0.6,2.2c0.1,1-3,1.8-4.9,0.5C77.8,57,80.3,53,80.3,53H83.5z"
		/>
	<path fill="#ED1C24" d="M94.5,21.6c0,0,2,6,6.1,7.2c0,0,3.9-2.1,4.4-7.2l2,0.5c0,0-0.7,6.7-6.1,8.4c0,0-5.6-1.6-8.2-8.2L94.5,21.6z
		"/>
	<circle fill="#FBB03B" cx="100.4" cy="29.4" r="2.4"/>
</g>
<g>
	<path fill="#D89F79" d="M47.1,45.6c0,0,8.6,8.4,7.7,27.4h-3.1c0,0,0.7-15.6-6.9-24L47.1,45.6z"/>
	<path fill="#D89F79" d="M51.7,73c0,0-2.2,1.3-1.8,2.4c0.4,1,0.7,1,0.6,2c-0.1,1,3,2.1,4.9,0.7c1.9-1.3-0.6-5.1-0.6-5.1H51.7z"/>
	<polygon fill="#D89F79" points="44.1,80.9 47.3,109.6 43.6,109.7 37.7,80.5 	"/>
	<polygon fill="#D89F79" points="26.6,80.5 23.3,109.1 27.1,109.3 32.9,80 	"/>
	<path fill="#FFFFFF" d="M27.5,69.2l-1.4,14.8l7.7,0.1l1.8-5.7l1.8,5.5h6.9l-1.7-15C42.6,69,31.5,66.7,27.5,69.2z"/>
	<path fill="#FCFCFC" d="M26.8,113"/>
	<path fill="#F2F2F2" d="M23.3,109.1c-0.5,0.1-3.1,1.2-5.2,2.2c-0.7,0.3-0.5,1.3,0.3,1.3l8.8-0.2c0,0,1.2-1.6-0.1-3.1L23.3,109.1z"
		/>
	<path fill="#F2F2F2" d="M47.3,109.3c0.5,0.1,3.1,1.2,5.2,2.2c0.7,0.3,0.5,1.3-0.3,1.3l-8.8-0.2c0,0-1.2-1.6,0.1-3.1L47.3,109.3z"/>
	<path fill="#D89F79" d="M23.7,45.6c0,0-8.6,8.4-7.7,27.4h3.1c0,0-0.7-15.6,6.9-24L23.7,45.6z"/>
	<path fill="#F15A24" d="M26.6,42.4c0,0,6.5-3.9,16.1-0.9c0,0,0.6,3,0,27.7c-0.1-0.4-15,0.3-15,0C27.4,41.5,26.6,42.4,26.6,42.4z"/>
	<path fill="#D89F79" d="M40.2,27.5L40,38.8l-1.9,0.1l0.2,3.1c0,0-3,2.8-6.5-0.4l-0.1-7c0,0-1.4-0.3-1.4-2c0-1.6,1.7-0.8,1.7-0.8
		l0.1-4.5L40.2,27.5z"/>
	<path fill="#D89F79" d="M31.9,41.7l1.3,1c1.6,1.3,4,1,5.2-0.7v0C38.3,42.1,34.1,41.7,31.9,41.7z"/>
	<path fill="#F15A24" d="M28.2,41.6c0,0-3.4,0.8-6.1,5.5c0,0,1.5,3.3,4,4.1l3-2.3L28.2,41.6z"/>
	<path fill="#F15A24" d="M42.6,41.5c0,0,3.2,0.5,5.9,5.2c0,0-1.5,3.3-4,4.1l-3-2.3L42.6,41.5z"/>
	<path fill="#D89F79" d="M19.1,73c0,0,2.2,1.3,1.8,2.4c-0.4,1-0.7,1-0.6,2c0.1,1-3,2.1-4.9,0.7S16,73,16,73H19.1z"/>
	<path fill="#ED1C24" d="M30.2,41c0,0,2,6,6.1,7.2c0,0,3.9-2.1,4.4-7.2l2,0.5c0,0-0.7,6.7-6.1,8.4c0,0-5.6-1.6-8.2-8.2L30.2,41z"/>
	<circle fill="#B3B3B3" cx="36.1" cy="48.7" r="2.4"/>
	<path fill="#754C24" d="M40.2,27.5l0.8-1.5c0,0-0.4-2.7-4.3-3.3c0,0-4.1-0.7-7,3.2l0.6,6.6c0,0,1.5-1.5,2-0.3
		c0.4,1.2,0.2,2.9,0.2,2.9l1.6-1.1l-0.3-6.7L40.2,27.5z"/>
</g>
<g>
	<path fill="#D89F79" d="M158.6,54.4c0,0-8.6,8.6-7.7,27.6h3.1c0,0-0.7-15.7,6.9-24.1L158.6,54.4z"/>
	<path fill="#D89F79" d="M154.1,81c0,0,2.2,1.6,1.8,2.7c-0.4,1-0.7,1.1-0.6,2.2c0.1,1-3,1.9-4.9,0.5c-1.9-1.3,0.6-5.3,0.6-5.3H154.1
		z"/>
	<polygon fill="#D89F79" points="161.7,89.5 158.4,118.1 162.2,118.3 168,89 	"/>
	<polygon fill="#D89F79" points="179.2,89 182.4,117.7 178.7,117.8 172.8,88.6 	"/>
	<path fill="#ED1C24" d="M178.2,77.8l1.4,14.8l-7.7,0.1l-1.8-5.5l-1.8,5.7h-6.9l1.7-15.2C163.1,77.8,174.3,75.2,178.2,77.8z"/>
	<path fill="#FCFCFC" d="M179,121.6"/>
	<path fill="#F2F2F2" d="M182.4,117.7c0.5,0.1,3.1,1.2,5.2,2.2c0.7,0.3,0.5,1.3-0.3,1.3l-8.8-0.2c0,0-1.2-1.6,0.1-3.1L182.4,117.7z"
		/>
	<path fill="#F2F2F2" d="M158.4,117.8c-0.5,0.1-3.1,1.2-5.2,2.2c-0.7,0.3-0.5,1.3,0.3,1.3l8.8-0.2c0,0,1.2-1.6-0.1-3.1L158.4,117.8z
		"/>
	<path fill="#D89F79" d="M182,54.4c0,0,8.6,8.6,7.7,27.6h-3.1c0,0,0.7-15.7-6.9-24.1L182,54.4z"/>
	<path fill="#22B573" d="M179.1,50.9c0,0-6.5-3.9-16.1-0.9c0,0-0.6,3,0,27.7c0.1-0.4,15,0.3,15,0C178.4,50,179.1,50.9,179.1,50.9z"
		/>
	<path fill="#D89F79" d="M165.5,36.1l0.3,11.2l1.9,0.1l-0.2,3.1c0,0,3,2.8,6.5-0.4l0.1-7c0,0,1.4-0.3,1.4-2s-1.7-0.8-1.7-0.8
		l-0.1-4.5L165.5,36.1z"/>
	<path fill="#D89F79" d="M173.9,50.3l-1.3,1c-1.6,1.3-4,1-5.2-0.7v0C167.4,50.6,171.7,50.3,173.9,50.3z"/>
	<path fill="#22B573" d="M177.5,50.2c0,0,3.4,0.8,6.1,5.5c0,0-1.5,3.3-4,4.1l-3-2.3L177.5,50.2z"/>
	<path fill="#22B573" d="M163.2,50c0,0-3.2,0.5-5.9,5.2c0,0,1.5,3.3,4,4.1l3-2.3L163.2,50z"/>
	<path fill="#D89F79" d="M186.6,81c0,0-2.2,1.6-1.8,2.7c0.4,1,0.7,1.1,0.6,2.2c-0.1,1,3,1.9,4.9,0.5s-0.6-5.3-0.6-5.3H186.6z"/>
	<path fill="#ED1C24" d="M175.6,49.5c0,0-2,6-6.1,7.2c0,0-3.9-2.1-4.4-7.2l-2,0.5c0,0,0.7,6.7,6.1,8.4c0,0,5.6-1.6,8.2-8.2
		L175.6,49.5z"/>
	<circle fill="#F15A24" cx="169.6" cy="57.3" r="2.4"/>
	<path fill="#42210B" d="M164.1,34.3c0.1-0.9,0.5-1.8,1.6-2.5l0.6,1.3l2-1.8l1.2,1.9l1.7-1.9l0.7,2.2c0,0,3.4-0.9,3.8,1.9
		s-0.6,4.9-0.6,4.9s-0.9-0.6-1.5,0.3l-0.3,2.6l-1.7-0.6c0,0,0.4-4.8,0.4-6.4c0,0-1.2,1.1-3.8,1.5C166,38.2,164,36.5,164.1,34.3z"/>
</g>
<rect x="6.5" y="117.7" fill="#F2F2F2" width="66.1" height="45.9"/>
<rect x="67.7" y="97.1" fill="#E6E6E6" width="66.1" height="66.4"/>
<rect x="132.5" y="125.6" fill="#F2F2F2" width="66.1" height="38"/>
<rect x="3.7" y="112.9" fill="#0071BC" width="64" height="7.9"/>
<rect x="133.2" y="121.4" fill="#0071BC" width="66.6" height="7.9"/>
<rect x="67" y="94" fill="#0071BC" width="68.7" height="7.9"/>
<path d="M96.3,112.5c2.5,0,3.1-1.2,3.6-2.6h2.2v20.8h-3.3v-15.9h-2.5V112.5z"/>
<path d="M37.8,130.6c-1,0-1.6,0.5-1.6,2v2.1h-3v-1.9c0-3.2,1.6-5,4.7-5s4.7,1.8,4.7,5c0,6.6-6.8,8.8-6.2,12.3h5.9v2.9h-9.1v-2.5
	c0-5.9,6.2-6.8,6.2-12.6C39.4,131.1,38.8,130.6,37.8,130.6z"/>
<path d="M168,141.2c0-1.8-0.6-2.3-1.7-2.3c-1,0-1.7,0.6-1.7,2v1.3h-3v-1.1c0-3.3,1.6-5.1,4.8-5.1c3.2,0,4.8,1.9,4.8,5.1v0.5
	c0,2.2-0.7,3.6-2.3,4.2c1.6,0.7,2.3,2.2,2.3,4.3v1.6c0,3.3-1.6,5.1-4.8,5.1c-3.2,0-4.8-1.9-4.8-5.1V150h3v1.9c0,1.5,0.6,2,1.7,2
	c1,0,1.7-0.5,1.7-2.3V150c0-1.9-0.6-2.6-2.1-2.6h-1.1v-2.9h1.3c1.2,0,1.9-0.5,1.9-2.2V141.2z"/>
</svg>
