<?xml version="1.0" encoding="utf-8"?>
<!-- Generator: Adobe Illustrator 18.1.1, SVG Export Plug-In . SVG Version: 6.00 Build 0)  -->
<svg version="1.1" id="Layer_1" xmlns="http://www.w3.org/2000/svg" xmlns:xlink="http://www.w3.org/1999/xlink" x="0px" y="0px"
	 viewBox="0 0 105 281.3" enable-background="new 0 0 105 281.3" xml:space="preserve">
<rect x="44.8" y="88.9" fill="#A3A793" width="11.9" height="192.5"/>
<rect x="52.8" y="91.8" fill="#9C998F" width="4.2" height="189.5"/>
<path fill="#DA303A" d="M85.5,103.8H21c-9.1,0-16.3-7.3-16.3-16.3V20.3C4.7,11.2,12.1,4,21,4h64.3c9.1,0,16.3,7.3,16.3,16.3v67.3
	C101.7,96.5,94.3,103.8,85.5,103.8z"/>
<path fill="#EDEAEA" d="M86,97H20.4c-5.2,0-9.5-4.2-9.5-9.5V20.3c0-5.2,4.2-9.5,9.5-9.5h65.4c5.2,0,9.5,4.2,9.5,9.5v67.3
	C95.3,92.7,91.2,97,86,97z"/>
<g>
	<path fill="#E6C71E" d="M46.4,55.5c0.1-2.5,0.3-5,0.5-7.5c0.1-1.3-0.4-1.7-1.6-1.6c-1.5,0.1-3,0.1-4.5,0c-1.4-0.1-1.3,0.5-0.9,1.5
		c0.5,1.1,1.5,1.6,2.5,2c1.9,0.7,2.4,2,2.2,4c-0.4,4-0.6,8-1,12c-0.1,1.4,0.3,2.1,1.8,1.9c0.5-0.1,1.1,0,1.6,0
		c2.8,0,2.9,0.1,2.9,2.8c0,2.5-0.4,2.8-2.8,2.8c-2.9,0-5.9-0.1-8.8,0c-1.7,0-2.7-0.7-2.6-2.3c0.4-3.7-0.9-6.7-3-9.6
		c-1.8-2.6-2.3-5.7-2.2-8.8c0-2.8-0.8-5.2-2.2-7.5c-1.2-2-2.4-4.1-2.6-6.6c-0.5-5.5,2.8-9.8,8.3-10c3.8-0.1,7.4-0.9,11.1-2
		c6.5-1.9,13.2-1.7,19.5,1.1c1,0.5,2.1,0.7,3.2,0.7c1.3,0,2.6,0,3.9,0c7.3,0.3,11.1,6.5,8.2,13.3c-0.1,0.3-0.3,0.6-0.4,0.9
		c-2.6,3.8-3.8,8-3.8,12.6c0,2.7-1.2,5.2-2.8,7.4c-1.5,2.1-2.3,4.2-2.2,6.8c0.1,3.8-0.3,4-4.1,3.9c-2.6,0-5.2,0-7.8,0
		c-2.1,0-2.2-0.4-2.3-3.3c-0.1-1.8,0.6-2.4,2.3-2.4c4,0,4,0,3.7-4c-0.2-3.3-0.4-6.5-0.8-9.8c-0.3-2.1,0.3-3.4,2.3-4.1
		c1-0.3,1.8-1,2.3-1.9c0.6-1.1,0.5-1.7-0.9-1.6c-1.4,0.1-2.9,0.1-4.3,0c-1.5-0.1-1.8,0.6-1.7,1.9c0.3,4.4,0.4,8.8,0.7,13.2
		c0.1,1.6-0.4,2.2-2,2.1c-3.4-0.1-6.8-0.1-10.2,0c-1.4,0-1.8-0.5-1.8-1.8c0.1-2.1,0-4.2,0-6.3C46.2,55.5,46.3,55.5,46.4,55.5z"/>
	<path fill="#E6C71E" d="M53.1,77.2c2.3,0,4.6,0,6.9,0c1.9,0,2.3,0.6,1.6,2.4c-0.8,2.1-2.1,3.1-4.5,3c-2.9-0.2-5.8,0-8.8,0
		c-2.2,0-4.1-1.7-4.2-3.9c-0.1-1.3,0.8-1.4,1.8-1.4C48.4,77.2,50.8,77.2,53.1,77.2C53.1,77.2,53.1,77.2,53.1,77.2z"/>
</g>
</svg>
