<?xml version="1.0" encoding="utf-8"?>
<!-- Generator: Adobe Illustrator 18.1.1, SVG Export Plug-In . SVG Version: 6.00 Build 0)  -->
<svg version="1.1" id="Layer_1" xmlns="http://www.w3.org/2000/svg" xmlns:xlink="http://www.w3.org/1999/xlink" x="0px" y="0px"
	 viewBox="0 0 243.7 138.9" enable-background="new 0 0 243.7 138.9" xml:space="preserve">
<g>
	<rect x="19.3" y="70.1" fill="#D11C54" width="211" height="60.7"/>
	<rect x="15.6" y="70.1" fill="#EA5069" width="214.7" height="4.6"/>
	<rect x="16.7" y="74.7" fill="#C92B47" width="213.5" height="4.6"/>
	<rect x="19.3" y="79.3" fill="#A1A4A1" width="211" height="6.2"/>
	<rect x="158.6" y="72.4" fill="#C9CAC8" width="51.7" height="13.1"/>
	<rect x="19.3" y="85.5" fill="#738472" width="211" height="25.7"/>
	<rect x="19.3" y="111.2" fill="#F1F2F2" width="211" height="1.9"/>
	<g>
		<rect x="37.6" y="84.5" fill="#F1F2F2" width="29.2" height="46.3"/>
		<rect x="40.6" y="86.3" fill="#BCBEC0" width="23.5" height="43.9"/>
		<rect x="42.7" y="88.7" fill="#738472" width="8.6" height="37.9"/>
		<rect x="52.7" y="88.7" fill="#738472" width="8.6" height="37.9"/>
	</g>
	<path fill="#D02E5B" d="M35.7,70.1V0.5c0,0,13.7-3.3,15.1,8.1v6.9c0,0,4.9-0.6,5.1,3.3V36c0,0,4.7,0.4,4.5,4.5v17.7
		c0,0,8.8,1.1,9.2,6.5v5.4H35.7z"/>
	<g>
		<rect x="170.6" y="85.5" fill="#F1F2F2" width="29.2" height="45.3"/>
		<rect x="173.7" y="87.2" fill="#BCBEC0" width="23.5" height="43"/>
		<rect x="175.8" y="89.6" fill="#738472" width="8.6" height="37.1"/>
		<rect x="185.7" y="89.6" fill="#738472" width="8.6" height="37.1"/>
	</g>
	<rect x="19.3" y="85.5" fill="#F1F2F2" width="2.2" height="26.6"/>
	<rect x="83.3" y="85.5" fill="#F1F2F2" width="2.2" height="26.6"/>
	<rect x="117" y="85.5" fill="#F1F2F2" width="2.2" height="26.6"/>
	<rect x="150.7" y="85.5" fill="#F1F2F2" width="2.2" height="26.6"/>
	<rect x="228.1" y="85.5" fill="#F1F2F2" width="2.2" height="26.6"/>
	<rect x="19.3" y="85.5" fill="#F1F2F2" width="211" height="1.7"/>
	<path fill="#D87580" d="M38,70.1V4.8c0,0,10.7-3.1,11.8,7.5v6.4c0,0,3.8-0.6,4,3.1v16.2c0,0,3.7,0.4,3.5,4.2v16.6
		c0,0,9.8,1,10.1,6.1v5.1H38z"/>
	<g>
		<path fill="#A511BA" d="M40.9,12.6h3.1c0.6,0,1.1,0.1,1.5,0.2c0.4,0.2,0.7,0.4,0.9,0.7c0.2,0.3,0.4,0.7,0.5,1.1
			c0.1,0.4,0.2,0.8,0.2,1.3c0,0.7-0.1,1.3-0.2,1.7c-0.2,0.4-0.4,0.7-0.7,1c-0.3,0.3-0.6,0.4-0.9,0.5c-0.5,0.1-0.9,0.2-1.2,0.2h-3.1
			V12.6z M42.9,14.1v3.6h0.5c0.4,0,0.7,0,0.9-0.1c0.2-0.1,0.3-0.3,0.4-0.5c0.1-0.2,0.2-0.6,0.2-1.2c0-0.7-0.1-1.2-0.3-1.4
			c-0.2-0.3-0.6-0.4-1.1-0.4H42.9z"/>
		<path fill="#A511BA" d="M40.9,30.4v-6.6h3.4c0.6,0,1.1,0.1,1.5,0.2c0.3,0.1,0.6,0.3,0.8,0.6s0.3,0.7,0.3,1.1c0,0.4-0.1,0.7-0.2,1
			c-0.2,0.3-0.4,0.5-0.6,0.7c-0.2,0.1-0.4,0.2-0.7,0.3c0.2,0.1,0.4,0.2,0.5,0.2c0.1,0.1,0.2,0.2,0.3,0.3c0.1,0.2,0.2,0.3,0.3,0.4
			l1,1.9h-2.3l-1.1-2c-0.1-0.3-0.3-0.4-0.4-0.5c-0.1-0.1-0.3-0.2-0.5-0.2H43v2.7H40.9z M43,26.5h0.9c0.1,0,0.3,0,0.5-0.1
			c0.1,0,0.2-0.1,0.3-0.2c0.1-0.1,0.1-0.2,0.1-0.4c0-0.2-0.1-0.4-0.2-0.5c-0.1-0.1-0.4-0.2-0.8-0.2H43V26.5z"/>
		<path fill="#A511BA" d="M42.8,34.9h2.1v6.6h-2.1V34.9z"/>
		<path fill="#A511BA" d="M40.2,46.1h2.1l1.5,4.8l1.5-4.8h2.1L45,52.7h-2.2L40.2,46.1z"/>
		<path fill="#A511BA" d="M41.1,57.2h5.5v1.4h-3.4v1.1h3.2V61h-3.2v1.3h3.5v1.5h-5.6V57.2z"/>
	</g>
	<rect x="7.7" y="130.8" fill="#D02E5B" width="230.2" height="4.6"/>
	<rect x="4.1" y="134.3" fill="#EA5069" width="237.4" height="4.6"/>
	<g>
		<g>
			<ellipse fill="#73EE54" cx="52.1" cy="77" rx="26.1" ry="11.7"/>
			
				<ellipse transform="matrix(0.9993 -3.820239e-02 3.820239e-02 0.9993 -2.8433 2.0695)" fill="#73EE54" cx="52.7" cy="75.4" rx="25.4" ry="11.3"/>
			<g>
				
					<text transform="matrix(0.9972 -7.542013e-02 7.542013e-02 0.9972 40.5794 82.0731)" fill="#73EE54" font-family="'BebasNeue'" font-size="16.3691">50`s</text>
				
					<text transform="matrix(0.9972 -7.542013e-02 7.542013e-02 0.9972 40.5794 82.0731)" fill="#73EE54" font-family="'BebasNeue'" font-size="16.3691">50`s</text>
				
					<text transform="matrix(0.9972 -7.542013e-02 7.542013e-02 0.9972 40.5794 82.0731)" fill="#73EE54" font-family="'BebasNeue'" font-size="16.3691">50`s</text>
			</g>
			<path fill="#73EE54" d="M32.5,79.3c0,0,2.7,0.5,3-2.3c0,0-0.1,2.4,2.3,3c0,0-2.1-0.7-2.6,1.9C35.1,81.9,34.8,79.1,32.5,79.3z"/>
			<path fill="#73EE54" d="M65.7,71.5c0,0,1.7,1.2,2.9-0.6c0,0-0.9,1.7,0.6,2.9c0,0-1.2-1.2-2.5,0.5C66.7,74.2,67.3,72.1,65.7,71.5z
				"/>
			<path fill="#73EE54" d="M72,74.5c0,0,0.2,1.4,1.6,1.1c0,0-1.2,0.3-1.1,1.6c0,0,0-1.1-1.3-1C71.1,76.2,72.4,75.6,72,74.5z"/>
			<path fill="#73EE54" d="M35.1,70c0,0,1.9,1.2,3-0.8c0,0-0.8,1.8,0.8,3c0,0-1.4-1.2-2.6,0.6C36.3,72.8,36.9,70.6,35.1,70z"/>
			<path fill="#73EE54" d="M30.2,74.3c0,0,1.4,0.9,2.2-0.6c0,0-0.6,1.3,0.6,2.2c0,0-1-0.9-1.9,0.4C31,76.3,31.5,74.7,30.2,74.3z"/>
		</g>
		<g>
			<ellipse fill="#964ADE" cx="52.1" cy="77" rx="26.1" ry="11.7"/>
			
				<ellipse transform="matrix(0.9993 -3.820239e-02 3.820239e-02 0.9993 -2.8433 2.0695)" fill="#73EE54" cx="52.7" cy="75.4" rx="25.4" ry="11.3"/>
			<g>
				
					<text transform="matrix(0.9972 -7.542013e-02 7.542013e-02 0.9972 40.5794 82.0731)" fill="#A511BA" font-family="'BebasNeue'" font-size="16.3691">50`s</text>
				
					<text transform="matrix(0.9972 -7.542013e-02 7.542013e-02 0.9972 40.5794 82.0731)" fill="#D11C54" font-family="'BebasNeue'" font-size="16.3691">50`s</text>
			</g>
			<path fill="#FFFFFF" d="M32.5,79.3c0,0,2.7,0.5,3-2.3c0,0-0.1,2.4,2.3,3c0,0-2.1-0.7-2.6,1.9C35.1,81.9,34.8,79.1,32.5,79.3z"/>
			<path fill="#FFFFFF" d="M65.7,71.5c0,0,1.7,1.2,2.9-0.6c0,0-0.9,1.7,0.6,2.9c0,0-1.2-1.2-2.5,0.5C66.7,74.2,67.3,72.1,65.7,71.5z
				"/>
			<path fill="#FFFFFF" d="M72,74.5c0,0,0.2,1.4,1.6,1.1c0,0-1.2,0.3-1.1,1.6c0,0,0-1.1-1.3-1C71.1,76.2,72.4,75.6,72,74.5z"/>
			<path fill="#FFFFFF" d="M35.1,70c0,0,1.9,1.2,3-0.8c0,0-0.8,1.8,0.8,3c0,0-1.4-1.2-2.6,0.6C36.3,72.8,36.9,70.6,35.1,70z"/>
			<path fill="#FFFFFF" d="M30.2,74.3c0,0,1.4,0.9,2.2-0.6c0,0-0.6,1.3,0.6,2.2c0,0-1-0.9-1.9,0.4C31,76.3,31.5,74.7,30.2,74.3z"/>
		</g>
	</g>
</g>
</svg>
