<?xml version="1.0" encoding="utf-8"?>
<!-- Generator: Adobe Illustrator 18.1.1, SVG Export Plug-In . SVG Version: 6.00 Build 0)  -->
<svg version="1.1" id="Layer_1" xmlns="http://www.w3.org/2000/svg" xmlns:xlink="http://www.w3.org/1999/xlink" x="0px" y="0px"
	 viewBox="0 0 266 518.1" enable-background="new 0 0 266 518.1" xml:space="preserve">
<polygon fill="#333333" points="167.6,275.3 161.4,394.8 209.8,481 179.9,486.3 130.6,393.1 123.6,299.9 40.1,481 10.2,481 
	89.3,263.9 "/>
<path fill="#333333" d="M154.6,39.3c0,0-2.4,12.3-5.5,14.4s-6.8,4.7-6.5,9.1c0.3,4.4-9.6,3.9-8.4,9.5c1.1,5.6-1.3,6.9-2.6,8.4
	c-1.3,1.4-3,6.5,0.1,9.9c3.1,3.4-0.9,7.1,2.2,8.4s31.8,7.8,31.8,7.8l2.5-63.3C168,43.4,163.3,31.3,154.6,39.3z"/>
<path fill="#BB8A70" d="M96,135.4c0,0-38.8,13-62.9,6.5C9,135.3,77,94.9,77,94.9l5.8,16.9l-18.5,12.1l31.4-6.4L96,135.4z"/>
<path fill="#D89F79" d="M177.1,235.3c0,0,9.6,1.2,48.4-17.9c0,0,3.9-24.5-4.4-43.3l13.2-26.2c0,0,24.2,39.7,14.6,84.3
	c0,0-53.7,18.3-70.9,18.7L177.1,235.3z"/>
<g>
	<defs>
		<path id="SVGID_1_" d="M114.8,144.8l-21.9,1.5L84,105.8c0.4,0.1,19.8-2,20.2-1.9c111.2-30.3,158.4,83.5,158.4,83.5l-45.3,1.6
			l-5.7-14.9c-21.2,16-35.2,87.2-31.7,142.5c0.1,1.8-102.6-22.5-103.9-20.2C75.3,241,95.5,161.9,114.8,144.8z"/>
	</defs>
	<use xlink:href="#SVGID_1_"  overflow="visible" fill="#2E3192"/>
	<clipPath id="SVGID_2_">
		<use xlink:href="#SVGID_1_"  overflow="visible"/>
	</clipPath>
	
		<rect x="24.9" y="55.4" transform="matrix(0.9609 0.2768 -0.2768 0.9609 58.5815 -34.2518)" clip-path="url(#SVGID_2_)" fill="#2E3192" width="251.4" height="269.8"/>
</g>
<path fill="#D89F79" d="M164.3,18.4l-16.4,56.8c-2.4,8.5,2.5,17.4,11,19.8l0,0l-6,20.9c0,0-1.6,25.4,31.5,9.1l12.5-43.3
	c0,0,8.5,0.7,11.1-8.5s-7.8-7.5-7.8-7.5l9.8-34.1L164.3,18.4z"/>
<path fill="#5B3A1B" d="M211.4,24.8c0,0-15.9-24.5-44.2-11l22.1,11.5L211.4,24.8z"/>
<g>
	<path fill="#616267" d="M90.4,80l1.6-9.1c0.2-1.4,0.1-2.8-0.4-4.1l-11.4-30c-0.9-2.6-4-3.7-6.2-2.1c-0.4,0.3-1.2,1.7-1.8,2.7
		c-0.8,1.3-4.6,2.3-9.3,4.4c-2,0.9-2.9,3.1-2.2,5.2l10.5,28.2c0.5,1.3,1.3,2.5,2.4,3.4l6.2,4.9L90.4,80z"/>
	<path fill="#E19453" d="M125.6,192.2c0,0-33.1,12.9-26.7,29.7s14.8,16,17.1,25.9c2.3,9.9-16.1,30.6-2.5,55s32.3,28.1,59.9,17.8
		s46.3-31.9,35.9-60.1c-10.4-28.2-35.9-25.2-39.9-36c-4.1-10.7,5.3-18.4-2-29c0,0-21.7,15.8-34.6-2S125.6,192.2,125.6,192.2z"/>
	<circle fill="#F5C500" cx="109.5" cy="216.4" r="4.5"/>
	<circle fill="#F5C500" cx="176.7" cy="250.4" r="2.5"/>
	<circle fill="#F5C500" cx="190" cy="257.7" r="2.5"/>
	<circle fill="#F5C500" cx="194.3" cy="273.6" r="2.5"/>
	
		<rect x="133.8" y="246.5" transform="matrix(0.9349 -0.3549 0.3549 0.9349 -80.3399 68.9895)" fill="#CCCCCC" width="28.3" height="13.9"/>
	
		<rect x="139.3" y="264.8" transform="matrix(0.9349 -0.3549 0.3549 0.9349 -85.1221 71.8833)" fill="#CCCCCC" width="28.3" height="6.4"/>
	
		<rect x="141.5" y="276.7" transform="matrix(0.9349 -0.3549 0.3549 0.9349 -89.0412 74.255)" fill="#CCCCCC" width="32.9" height="6.4"/>
	<polygon fill="#4A5056" points="145.6,218 128.8,224.4 78.3,82.3 90.6,77.7 	"/>
	
		<rect x="122.1" y="215.9" transform="matrix(0.9349 -0.3549 0.3549 0.9349 -70.2259 62.8691)" fill="#CCCCCC" width="28.3" height="13.9"/>
</g>
<path fill="#D89F79" d="M77.5,88.7c4.2-2.9,10.5-4.6,16.5,3.7c10.4,14.3-6.2,19.8-6.2,19.8s-17.8,7.9-15.3-18.6
	C72.4,93.6,74.4,90.8,77.5,88.7"/>
<ellipse transform="matrix(-0.4245 -0.9054 0.9054 -0.4245 52.6089 220.5984)" fill="#D89F79" cx="96.4" cy="93.6" rx="7.3" ry="3.7"/>
<path fill="#D89F79" d="M170.5,255.4c-29.2,15.4-34.6,2.2-34.8-2.9c-0.3-5.2,17.7-7.8,17.7-7.8s-7.4,1.7-7.6-2.2s8.4-6.4,8.4-6.4
	s13.8-5.3,18,4C176.4,249.2,170.5,255.4,170.5,255.4z"/>
<polygon fill="#D89F79" points="192.5,232.2 166.7,239.4 168.8,256 210.1,244.1 "/>
<path fill="#020202" d="M156.3,36.6c0,0,3.1-42.9,41-30s28.6,41.1,21.6,52.8C218.9,59.4,204,37.7,156.3,36.6z"/>
<path fill="#726160" d="M158.5,25.8c0,0,41.7,3,64.8,25.3l-4.3,8.4c0,0-38.8-21.4-62.5-22.8C153.8,36.5,158.5,25.8,158.5,25.8z"/>
<path fill="#020202" d="M152.5,45.6l17.7,5.1c0,0-2,11.8-12.8,8.7S152.5,45.6,152.5,45.6z"/>
<path fill="#020202" d="M175.4,52.2l20.2,5.8c0,0-1.8,11.8-14.1,8.3S175.4,52.2,175.4,52.2z"/>
<rect x="161.8" y="51.2" transform="matrix(0.9609 0.2768 -0.2768 0.9609 21.2569 -45.2721)" fill="#020202" width="18.3" height="2.9"/>
<path fill="#020202" d="M168.9,71.6c4.6,1.4,13.2,4,13.2,13.6c0,0-9.3-13-28.1-8.8C154,76.4,156.2,67.8,168.9,71.6z"/>
<polygon fill="#333333" points="200.6,53.3 196,71.8 198.9,72.2 200.2,65.7 207.1,57.2 "/>
<path fill="#333333" d="M216.5,60.8c0,0-3.2,6.4-1.2,9c2,2.6,6.4,7.8,4.5,10.5s4.5,6.6,2.8,10.2s-5.3,7.4-3,11s4.2,7.6-1,8.2
	s0.6,9.8-4.5,8.3s-4.4,1.9-9.2,3.3c0,0-9.8-8.8-16.4-10.7l8.2-29c0,0,9.8-1.4,11.1-8.5c1.3-7.1-9.5-7-9.5-7l7.2-9.8L216.5,60.8z"/>
<polygon fill="#020202" points="195.6,58 207,68.4 201.5,66.3 193.5,60.6 "/>
<path fill="#020202" d="M149.4,40.6c10.7-1.6,34.1-0.4,71.4,25.3c0,0,8.7-1.4-6.3-13.5c-12.8-10.3-51.4-24.6-66.5-16.3
	C145.8,37.4,146.9,40.9,149.4,40.6z"/>
<path fill="#231E78" d="M160.9,128.7c0,0,17.6-5.5,24.6-6l2.2-6.7c0,0,8.6,6.6,10.7,17.5c0,0-18.5-0.3-34.5,8.6
	c-0.8,0.5,2.8-14.5-3.1-9.8C160.7,132.3,155.2,136.2,160.9,128.7z"/>
<path fill="#231E78" d="M161.5,129.6l-0.6-0.9l-8.2-13.7l3-8.1c0,0-12.5,4.6-15.3,12.5c0,0,13.2,12,12.6,21.5c0,0,2.1-17,6.4-8.7"/>
<path fill="#263146" d="M9.8,481c0,0-11.9,16-1.3,23h51.9c0,0,13.2-21-25.5-23H9.8z"/>
<path fill="#263146" d="M209.8,481c0,0,14.9,15.8,6.2,24.6c0,0-33.4,14.1-51,12.3c-17.6-1.8-12.3-25.5,4.4-25.5l10.5-6.2L209.8,481z
	"/>
</svg>
