<?xml version="1.0" encoding="utf-8"?>
<!-- Generator: Adobe Illustrator 18.1.1, SVG Export Plug-In . SVG Version: 6.00 Build 0)  -->
<svg version="1.1" id="Layer_1" xmlns="http://www.w3.org/2000/svg" xmlns:xlink="http://www.w3.org/1999/xlink" x="0px" y="0px"
	 viewBox="0 0 182 460" enable-background="new 0 0 182 460" xml:space="preserve">
<path fill="#2E3157" d="M141.5,95c0,0,62.5,35.9,20.1,159.8l-14.3-11.6c0,0,27-95.4-16.2-123.5L141.5,95z"/>
<path fill="#2E3157" d="M139.7,93.9c-17.5-4.2-51.5-9-96.8,0.3c-6.8,1.4-10.6,8.7-7.7,15c7.4,16.2,17,55,15.3,146.2
	c-0.1,6,4.7,11,10.8,11c21.4,0,66.3,2,66.3,0.8c0.8-98.1,12.4-141.3,19.6-158.8C149.8,102.3,146.2,95.4,139.7,93.9z"/>
<path fill="#331A0A" d="M127.8,446.8h-9.9c0,0-3.8,12.5,9,13.2h16.7c0,0,3.7-7.9-6.2-8.4C137.3,451.6,128.7,450.1,127.8,446.8z"/>
<path fill="#331A0A" d="M58.8,446.8h9.9c0,0,3.8,12.5-9,13.2H43.1c0,0-3.7-7.9,6.2-8.4C49.3,451.6,57.9,450.1,58.8,446.8z"/>
<polygon fill="#241C49" points="125.1,234.5 129.1,448.3 114.1,448.3 86.6,270.9 74.5,446.8 55.9,446.8 52.1,233.5 "/>
<path fill="#2E3157" d="M87.9,232.2c0,0-14.1,45.6-43.1,65.5l5.8-73L87.9,232.2z"/>
<path fill="#2E3157" d="M88.7,232.5c0,0,16.2,44,43.2,62.5l-5.4-68L88.7,232.5z"/>
<path fill="#F6F5FA" d="M72.9,96.6l17,81.5L108,96.2C108,96.2,86.8,92.7,72.9,96.6z"/>
<path fill="#D89F79" d="M64.6,19.4v49.1c0,4.9,3.9,8.8,8.8,8.8h0v19.1c0,0,9.9,19.4,34.1,0V56.8c0,0,7.3-1.5,7.3-9.9
	s-8.4-4.4-8.4-4.4V19.4H64.6z"/>
<path d="M106.4,42.5l-1.1,3.1h-3l-5.1-28.5l14.3,2.3v22.2C111.5,41.6,107.6,41.8,106.4,42.5z"/>
<path d="M102.5,19.4c-0.3-0.8-15.6,10.4-37.6,4.6c0,0-5.5-8.4,2-15.1s41.7-5.3,44.6,10.4C111.5,19.4,104.2,23.5,102.5,19.4z"/>
<rect x="65.9" y="56.8" transform="matrix(0.9871 -0.1602 0.1602 0.9871 -8.3643 12.176)" width="10.8" height="2.3"/>
<rect x="80.2" y="56.8" transform="matrix(-0.9871 -0.1602 0.1602 -0.9871 160.8304 128.884)" width="10.8" height="2.3"/>
<path fill="#C1272D" d="M80.6,100.4c0,0-0.4,10.4,6.2,10c6.6-0.4,4.2-10.8,4.2-10.8L80.6,100.4z"/>
<polygon fill="#C1272D" points="89.5,107.4 96.8,149.5 89.9,178 81.8,142.1 83.7,107 "/>
<polygon fill="#F6F5FA" points="79,110.5 83.3,100 74,92.3 74,97.7 "/>
<polygon fill="#F6F5FA" points="106.1,104.3 108,98.5 107.2,88.8 88.7,99.7 92.4,107.8 "/>
<polygon fill="#241C49" points="89.9,178 90.6,189.6 115.1,138.8 108,134.2 119.2,96.2 114,90 107.2,88.8 108,98.5 "/>
<polygon fill="#241C49" points="73.3,89.6 73.4,98.7 89.7,178.8 90.2,185.4 70.4,138.3 74.8,130.3 61.5,98.5 64.4,90.8 "/>
<g>
	<rect x="34" y="258" fill="#333333" width="126.7" height="16.8"/>
	<rect x="26.9" y="166.6" fill="#9FA4A7" width="140.4" height="93.9"/>
	<rect x="28.8" y="169.8" fill="#8C6239" width="107.3" height="88.5"/>
	<g>
		<path fill="#BBBDB0" d="M35.2,248.6c1.2,1.2,2.8,2.4,4.7,2.4h86.2c1.9,0,3.7-1.3,4.9-2.6l-47.9-34L35.2,248.6z"/>
		<path fill="#E7E8E2" d="M130.2,180.2L83,214l47.6,34c1-1.1,1.4-2.5,1.4-4v-59.2C132,183,131.5,181.3,130.2,180.2z"/>
		<path fill="#E7E8E2" d="M36.4,180.2c-1.3,1.1-1.4,2.8-1.4,4.6v59.2c0,1.6-0.1,3.1,1,4.2L83.9,214L36.4,180.2z"/>
		<path fill="#BBBDB0" d="M39.9,178c-1.7,0-3.2,0.9-4.3,1.9l47.6,33.9l47.3-34c-1.1-1-2.7-1.8-4.3-1.8H39.9z"/>
	</g>
	<rect x="135.9" y="169.9" fill="#8E511B" width="29.2" height="88.7"/>
	<rect x="138.6" y="177.4" fill="#B3B3B3" width="23.9" height="53.6"/>
	<rect x="139.7" y="179.2" fill="#666666" width="21.8" height="50.1"/>
	<g>
		<path fill="#B3B3B3" d="M145,195.5c1.4,2.7,4.4,4.1,7.3,3.6l-6-11.6C144.2,189.6,143.6,192.8,145,195.5z"/>
		<path fill="#B3B3B3" d="M157.1,189.2c-1.4-2.7-4.4-4.1-7.3-3.6l6,11.6C157.9,195.2,158.5,191.9,157.1,189.2z"/>
		<path fill="#808080" d="M147.9,186.3c-0.6,0.3-1,0.7-1.7,1.2l6,11.6c0.8-0.2,1.3-0.3,2-0.7c0.6-0.3,1.3-0.8,1.7-1.2l-6-11.6
			C149.3,185.7,148.5,186,147.9,186.3z"/>
	</g>
	<g>
		<path fill="#B3B3B3" d="M145,217.1c1.4,2.7,4.4,4.1,7.3,3.6l-6-11.6C144.2,211.2,143.6,214.4,145,217.1z"/>
		<path fill="#B3B3B3" d="M157.1,210.8c-1.4-2.7-4.4-4.1-7.3-3.6l6,11.6C157.9,216.8,158.5,213.6,157.1,210.8z"/>
		<path fill="#808080" d="M147.9,207.9c-0.6,0.3-1,0.7-1.7,1.2l6,11.6c0.8-0.2,1.3-0.3,2-0.7c0.6-0.3,1.3-0.8,1.7-1.2l-6-11.6
			C149.3,207.3,148.5,207.6,147.9,207.9z"/>
	</g>
	<circle fill="#B3B3B3" cx="144.3" cy="173.4" r="1.9"/>
	<circle fill="#B3B3B3" cx="157.5" cy="173.4" r="1.9"/>
	<rect x="137.1" y="233.6" fill="#5F3E2D" width="6.8" height="2.7"/>
	<rect x="147.2" y="233.6" fill="#5F3E2D" width="6.8" height="2.7"/>
	<rect x="157.3" y="233.6" fill="#5F3E2D" width="6.8" height="2.7"/>
	<rect x="137.1" y="238.6" fill="#5F3E2D" width="6.8" height="2.7"/>
	<rect x="147.2" y="238.6" fill="#5F3E2D" width="6.8" height="2.7"/>
	<rect x="157.3" y="238.6" fill="#5F3E2D" width="6.8" height="2.7"/>
	<rect x="137.1" y="243.5" fill="#5F3E2D" width="6.8" height="2.7"/>
	<rect x="147.2" y="243.5" fill="#5F3E2D" width="6.8" height="2.7"/>
	<rect x="157.3" y="243.5" fill="#5F3E2D" width="6.8" height="2.7"/>
	<rect x="137.1" y="248.4" fill="#5F3E2D" width="6.8" height="2.7"/>
	<rect x="147.2" y="248.4" fill="#5F3E2D" width="6.8" height="2.7"/>
	<rect x="157.3" y="248.4" fill="#5F3E2D" width="6.8" height="2.7"/>
	<rect x="137.1" y="253.3" fill="#5F3E2D" width="6.8" height="2.7"/>
	<rect x="147.2" y="253.3" fill="#5F3E2D" width="6.8" height="2.7"/>
	<rect x="157.3" y="253.3" fill="#5F3E2D" width="6.8" height="2.7"/>
	<g>
		<defs>
			<path id="SVGID_1_" d="M121.6,182.5c-0.5-0.1-1.1,0.5-1.6,0.5H47.1c-1.1,0-1.8-0.5-2.8-0.1c-3.4,1.3-5.3,4-5.3,7.8v47.6
				c0,3.8,2,7.4,5.3,8.7c1,0.4,1.7,0.9,2.8,0.9H120c0.5,0,1.1-0.4,1.6-0.5c4.2-0.8,7.4-4.8,7.4-9.2v-47.6
				C129,186.4,125.8,183.2,121.6,182.5z"/>
		</defs>
		<clipPath id="SVGID_2_">
			<use xlink:href="#SVGID_1_"  overflow="visible"/>
		</clipPath>
		<g id="hDoQGL.tif" clip-path="url(#SVGID_2_)">
			<g>
				<path fill="#F8F8F8" d="M36.4,241.3c0-19.9,0-39.8,0-59.8c0-0.8,0.2-0.8,0.7-0.8c4.3,0,8.6,0,12.9,0c0,19.8,0,39.6,0,59.4
					c0,0.4,0,0.8,0,1.1C45.4,241.2,40.9,241.2,36.4,241.3z"/>
				<path fill="#FEFE00" d="M49.9,241.2c0-0.4,0-0.8,0-1.1c0-19.8,0-39.6,0-59.4c4.5,0,9,0,13.6,0c0,20.2,0,40.4,0,60.6
					c-0.5,0-1,0-1.5,0C58,241.3,54,241.3,49.9,241.2L49.9,241.2z"/>
				<path fill="#00FEFE" d="M63.5,241.2c0-20.2,0-40.4,0-60.6c4.5,0,9,0,13.6,0c0,19.8,0,39.6,0,59.4c0,0.4,0,0.8,0,1.1
					C72.6,241.2,68,241.3,63.5,241.2L63.5,241.2z"/>
				<path fill="#00FE00" d="M77.1,241.2c0-0.4,0-0.8,0-1.1c0-19.8,0-39.6,0-59.4c4.5,0,9,0,13.6,0c0,20.2,0,40.4,0,60.6
					c-0.5,0-1,0-1.5,0C85.2,241.3,81.1,241.3,77.1,241.2L77.1,241.2z"/>
				<path fill="#FE00FE" d="M90.7,241.2c0-20.2,0-40.4,0-60.6c4.5,0,9,0,13.6,0c0,19.8,0,39.6,0,59.4c0,0.4,0,0.8,0,1.1
					C99.7,241.2,95.2,241.2,90.7,241.2L90.7,241.2z"/>
				<path fill="#FE0000" d="M104.2,241.2c0-0.4,0-0.8,0-1.1c0-19.8,0-39.6,0-59.4c4.5,0,9,0,13.6,0c0,20.2,0,40.4,0,60.6
					c-0.5,0-1,0-1.5,0C112.2,241.3,108.2,241.3,104.2,241.2L104.2,241.2z"/>
				<path fill="#0000FE" d="M117.8,241.2c0-20.2,0-40.4,0-60.6c4.1,0,8.3,0,12.4,0c0.5,0,0.6,0.1,0.6,0.8c0,19.9,0,39.9,0,59.8
					C126.4,241.2,122.1,241.2,117.8,241.2L117.8,241.2z"/>
				<path fill="#0000FE" d="M36.4,241.3c4.5,0,9,0,13.5,0l0,0.1c0,2.5,0,5,0,7.5c-4.3,0-8.7,0-13,0c-0.4,0-0.6-0.1-0.6-0.7
					C36.4,245.8,36.4,243.5,36.4,241.3z"/>
				<path fill="#171717" d="M50,248.8c0-2.5,0-5,0-7.5c4,0,8,0,12.1,0c0.5,0,1,0,1.5,0l0,0c0,2.5,0,5,0,7.6
					C59,248.8,54.5,248.8,50,248.8z"/>
				<path fill="#FE00FE" d="M63.5,248.8c0-2.5,0-5,0-7.6c4.5,0,9,0,13.5,0l0,0.1c0,2.5,0,5,0,7.5C72.6,248.8,68,248.8,63.5,248.8z"
					/>
				<path fill="#171717" d="M77.1,248.8c0-2.5,0-5,0-7.5c4,0,8,0,12.1,0c0.5,0,1,0,1.5,0l0,0c0,2.5,0,5.1,0,7.6
					C86.1,248.8,81.6,248.8,77.1,248.8z"/>
				<path fill="#00FEFE" d="M90.7,248.8c0-2.5,0-5.1,0-7.6c4.5,0,9,0,13.5,0l0,0.1c0,2.5,0,5,0,7.5
					C99.7,248.8,95.2,248.8,90.7,248.8z"/>
				<path fill="#171717" d="M104.2,248.8c0-2.5,0-5,0-7.5c4,0,8,0,12,0c0.5,0,1,0,1.5,0l0,0c0,2.5,0,5.1,0,7.6
					C113.3,248.8,108.7,248.8,104.2,248.8z"/>
				<path fill="#F8F8F8" d="M117.8,248.8c0-2.5,0-5.1,0-7.6c4.3,0,8.6,0,13,0c0,2.3,0,4.7,0,7c0,0.5-0.1,0.6-0.5,0.6
					C126.1,248.8,122,248.8,117.8,248.8z"/>
			</g>
		</g>
	</g>
</g>
<path fill="#D89F79" d="M24.2,247.5c0,0-5,20.1,7.3,22s13.5-4.6,10-7.3c-3.5-2.7,1.9-1.9,3.9-1.5c1.9,0.4,3.9-8.1-3.1-13.5
	S24.2,247.5,24.2,247.5z"/>
<path fill="#2E3157" d="M40.8,95c0,0-62.5,35.9-20.1,159.8L35,243.3c0,0-27-95.4,16.2-123.5L40.8,95z"/>
<ellipse fill="#D89F79" cx="135.4" cy="272" rx="11.6" ry="4.8"/>
</svg>
