<?xml version="1.0" encoding="utf-8"?>
<!-- Generator: Adobe Illustrator 18.1.1, SVG Export Plug-In . SVG Version: 6.00 Build 0)  -->
<svg version="1.1" id="Layer_1" xmlns="http://www.w3.org/2000/svg" xmlns:xlink="http://www.w3.org/1999/xlink" x="0px" y="0px"
	 viewBox="0 0 236.6 471.4" enable-background="new 0 0 236.6 471.4" xml:space="preserve">
<rect x="11.9" y="5" fill="#BA252B" width="212.5" height="295"/>
<rect x="12.3" y="5" fill-rule="evenodd" clip-rule="evenodd" fill="#DB0300" width="212" height="294.7"/>
<rect x="22" y="16.3" fill-rule="evenodd" clip-rule="evenodd" fill="#D4D8D4" width="192.8" height="274.2"/>
<rect x="28.8" y="26.1" fill-rule="evenodd" clip-rule="evenodd" fill="#FEFEFC" width="179.1" height="254.8"/>
<g>
	<path fill-rule="evenodd" clip-rule="evenodd" fill="#4D4D4D" d="M93.3,77.9c1,0,6,0.1,6.9,0.2V77c-1.2,0-3.2-0.2-3.9-0.4V38.8
		c0.7-0.1,2.7-0.4,3.9-0.4v-1.1c-0.9,0.1-5.9,0.2-6.9,0.2c-1,0-6-0.1-6.9-0.2v1.1c1.2,0,3.2,0.2,3.9,0.4v37.9
		c-0.7,0.1-2.7,0.4-3.9,0.4v1.1C87.3,78.1,92.3,77.9,93.3,77.9L93.3,77.9z"/>
	<path fill-rule="evenodd" clip-rule="evenodd" fill="#4D4D4D" d="M70.1,39.8c0.9,0,10.5,0,13.8,0c0.1,1,0.1,5.2,0.1,5.2h0.6v-7.8
		C83.6,37.3,68,37.5,67,37.5c-1,0-16.6-0.1-17.5-0.2v7.8H50c0,0,0-4.2,0.1-5.2c3.3,0,12.9,0,13.8,0v36.8c-0.7,0.1-2.7,0.4-3.9,0.4
		v1.1c0.9-0.1,5.9-0.2,6.9-0.2c1,0,6,0.1,6.9,0.2V77c-1.2,0-3.2-0.2-3.9-0.4V39.8L70.1,39.8z"/>
	<path fill-rule="evenodd" clip-rule="evenodd" fill="#4D4D4D" d="M105.5,76.7c0.6-1.9,6.4-32.2,7.3-39.5h2.2
		c0.7,4.5,11.2,27.8,13.3,31.8c1.2-2.5,11-26,13-31.8h2.2c0.8,6.8,7.2,39.4,7.2,39.4c0.7,0.1,2.5,0.4,3.7,0.4v1.1
		c-0.9-0.1-5.9-0.2-6.9-0.2c-1,0-6,0.1-6.9,0.2V77c1.2,0,3.2-0.2,3.9-0.4c0,0-4.1-22.4-4.8-25.7c-0.7,1.9-12,27.1-12,27.1h-1.9
		c-1.2-2.8-11.5-25.9-11.8-27.4c-0.9,3.8-4.2,21.4-4.9,26c0.5,0.1,2.9,0.3,3.8,0.3v1.1c-0.7-0.1-4-0.2-4.8-0.2c-0.8,0-5.3,0.1-6,0.2
		V77C103,77,105,76.9,105.5,76.7L105.5,76.7z"/>
	<path fill-rule="evenodd" clip-rule="evenodd" fill="#4D4D4D" d="M159.6,76.6c-0.7,0.1-2.7,0.4-3.9,0.4v1.1
		c0.9-0.1,9.1-0.2,10.1-0.2c1,0,20.4,0.1,21.3,0.2v-7.8h-0.6c0,0,0,4.2-0.1,5.2c-3.3,0-19.9,0-20.8,0V39.8c0.9,0,16.9,0,20.1,0
		c0.1,1,0.1,5.2,0.1,5.2h0.6v-7.8c-0.9,0.1-19.7,0.2-20.7,0.2c-1,0-9.2-0.1-10.1-0.2v1.1c1.2,0,3.2,0.2,3.9,0.4V76.6L159.6,76.6z"/>
	<path fill-rule="evenodd" clip-rule="evenodd" fill="#4D4D4D" d="M165.7,58.8c0,0,15.6-0.1,17,0c0.1,0.4,0.5,2.8,0.6,3.4h0.7
		c0-0.4-0.1-3.8-0.1-4.7c0-0.8,0.1-4.2,0.1-4.7h-0.7c-0.1,0.6-0.4,3-0.6,3.4c-1.3,0.1-17,0-17,0V58.8L165.7,58.8z"/>
</g>
<rect x="70.9" y="85.2" fill-rule="evenodd" clip-rule="evenodd" fill="#D4D8D4" width="94.8" height="4.1"/>
<rect x="94.4" y="259.9" fill-rule="evenodd" clip-rule="evenodd" fill="#D4D8D4" width="48" height="4.1"/>
<rect x="57.3" y="267.7" fill-rule="evenodd" clip-rule="evenodd" fill="#D4D8D4" width="122" height="4.1"/>
<g>
	<circle fill="#CC0006" cx="114.3" cy="169.5" r="59.2"/>
	<path fill="#88272D" d="M79.1,187.6c0,0-1.1,14.7,22.2,27.7l-1.2-2C100,213.2,83.9,204.8,79.1,187.6z"/>
	<path fill="#88272D" d="M92.1,181.9c0,0-4.2,5.7-8.6,4.7c-4.4-1-13.6-0.3-16.2,8.9c0,0,5.7-7.1,12-7.1
		C85.6,188.5,90.3,187.4,92.1,181.9z"/>
	<g id="KRyJ1s.tif_9_">
		<g>
			<path fill="#F1FFFF" d="M93.2,146.9c0.4,0.1,0.9,0.2,1.3,0.4c1,0.4,1.5,1.1,1.6,2c0.1,0.8-0.1,1.6-0.6,2.3
				c-0.4,0.5-0.8,1-1.2,1.5c-0.4,0.5-1.1,0.7-1.9,0.8c-0.7,0.1-1.3-0.2-1.4-0.8c-0.1-0.4,0-0.9,0.3-1.3c0.5-0.7,1.1-1.3,2.1-1.5
				c0.2,0,0.4-0.1,0.6-0.1c0.3,0,0.4-0.1,0.5-0.3c0.3-0.8-0.3-1.4-1.5-1.4c-0.6,0-1.2,0.1-1.7,0.2c-2.3,0.6-4.2,1.6-5.9,2.8
				c-5.6,3.9-10,8.4-13.1,13.6c-1.1,1.8-1.9,3.8-2.4,5.7c-0.3,1.4-0.3,2.8,0.1,4.2c0.6,1.7,2,2.9,4.1,3.6c1.8,0.6,3.6,0.8,5.5,0.7
				c3.1-0.2,6.1-0.8,9.1-1.3c3.4-0.6,6.8-1.3,10.3-1.9c3.2-0.5,6.5-0.8,9.8-0.7c3.8,0.1,7.3,1,10.4,2.7c1.8,1,3.5,1.9,5,3.1
				c0.3,0.2,0.5,0.4,0.7,0.7c-0.1,0-0.2-0.1-0.3-0.1c-3.1-1.5-6.5-2.4-10.2-2.3c-1.6,0-3.1,0.2-4.4,1c-0.6,0.4-1.2,0.9-1.8,1.3
				c0,0,0,0,0,0c-1.4-1.8-3.5-2.8-6.2-3.3c-1.9-0.3-3.8-0.4-5.7-0.3c-3.4,0.2-6.6,0.8-9.8,1.4c-3,0.6-6,1.1-9.1,1.5
				c-2.4,0.4-4.8,0.3-7.2-0.3c-3.5-1-5.7-2.9-6.5-5.6c-0.1-0.5-0.2-1.1-0.3-1.6c0-0.1,0-0.2-0.1-0.2c0-0.5,0-1,0-1.5
				c0.1-0.4,0.1-0.8,0.2-1.1c0.4-2.2,1.2-4.2,2.3-6.2c2.3-3.9,5.5-7.4,9.5-10.4c2.6-2,5.4-3.8,8.6-5.1c1.8-0.7,3.7-1.4,5.7-1.7
				c0.6-0.1,1.3-0.2,2-0.2C92.3,146.9,92.8,146.9,93.2,146.9z"/>
			<path fill="#F1FFFF" d="M95.5,162c0.3,0,0.5,0,0.7-0.1c0.7-0.3,1.4-0.5,2-0.8c1.3-0.7,2.5-1.5,3.5-2.4c1.1-0.9,2.4-1.7,3.7-2.4
				c1.2-0.6,2.5-1,3.9-0.9c1.9,0.1,3.2,1.2,2.9,2.6c-0.2,1.1-0.8,2.1-1.8,2.9c-0.3,0.3-0.8,0.5-1.3,0.7c-0.8,0.3-1.6-0.1-1.6-0.8
				c-0.1-1.2,1.4-2.4,3-2.5c0.1,0,0.2-0.1,0.3-0.1c0.3-0.4,0.1-1.2-0.9-1.2c-0.8,0-1.5,0.3-2.1,0.6c-1.2,0.7-2.2,1.5-3.2,2.4
				c-2.2,2.1-3.9,4.4-5.1,6.9c-0.3,0.6-0.4,1.3-0.3,1.9c0.2,1,1.2,1.5,2.5,1.3c1.2-0.2,2.1-0.8,3-1.4c1.9-1.3,3.6-2.8,5.1-4.4
				c1.4-1.5,2.9-3,4.4-4.4c1.4-1.4,3.1-2.6,5-3.6c0.9-0.5,1.8-0.9,2.9-1c1.2-0.2,2.2,0.1,2.9,0.9c0,0,0.1,0.1,0.2,0.1
				c0,0,0.1-0.1,0.1-0.1c0.2-0.5,0.7-0.6,1.3-0.5c1.1,0,2.1,0,3.2,0c0.1,0,0.2,0,0.4,0c-0.1,0.2-0.2,0.3-0.3,0.4
				c-3,4-6.1,7.9-9.1,11.9c-0.2,0.2-0.3,0.5-0.3,0.7c-0.1,0.4,0.3,0.5,0.7,0.4c0.3-0.1,0.7-0.2,1-0.4c1.1-0.6,2.1-1.4,2.9-2.2
				c0.8-0.7,1.6-1.5,2.3-2.3c0.2-0.2,0.4-0.3,0.7-0.3c0.3,0,0.7,0,1,0c-0.1,0.1-0.1,0.1-0.1,0.2c-1.9,2.1-3.8,4.1-6.2,5.8
				c-1.2,0.9-2.5,1.7-4,2.3c-0.7,0.3-1.4,0.4-2.2,0.3c-0.8-0.1-1.4-0.7-1.5-1.3c0-0.4,0-0.8-0.1-1.3c-0.1,0.1-0.1,0.2-0.2,0.2
				c-0.8,0.7-1.7,1.3-2.8,1.8c-0.7,0.3-1.4,0.6-2.3,0.6c-1.7,0.1-2.9-0.6-2.9-1.9c0-0.8,0.2-1.5,0.4-2.2c0-0.1,0.1-0.2,0-0.3
				c-0.1,0.1-0.2,0.2-0.3,0.2c-1.4,0.9-2.7,1.9-4.1,2.8c-1.2,0.7-2.5,1.2-4,1.4c-0.8,0.1-1.6,0.1-2.3-0.1c-1.6-0.4-2.3-1.4-2.6-2.6
				c-0.4-1.6,0.1-3.1,1-4.5c0.5-0.8,1.1-1.7,1.6-2.5c0.1-0.1,0.1-0.2,0.2-0.3c-0.6,0.1-1.1,0.2-1.6,0.3c-0.5,0.1-0.7,0.2-1,0.5
				c-1.1,1.3-2.1,2.6-3.3,3.9c-1.6,1.7-3.5,3.1-5.8,4.3c-0.9,0.5-2,0.8-3.1,0.9c-1.3,0.1-2.4-0.4-2.9-1.3c-0.4-0.7-0.5-1.5-0.4-2.3
				c0.3-2.3,1.5-4.3,3.1-6.3c2-2.3,4.3-4.4,7.3-6c1.2-0.7,2.5-1.2,4-1.4c2.3-0.3,3.7,0.6,3.8,2.4c0,1-0.3,1.9-0.7,2.8
				C96,161,95.7,161.5,95.5,162z M112.5,168.8c0.1,0.3,0.2,0.5,0.5,0.6c0.3,0.1,0.6,0.1,0.9,0c0.8-0.3,1.4-0.7,2-1.3
				c0.8-0.7,1.5-1.5,2.1-2.3c2.1-2.7,4.1-5.3,6.2-8c0.2-0.3,0.1-0.5-0.3-0.7c-0.4-0.1-0.7,0-1.1,0.1c-0.7,0.2-1.4,0.6-1.8,1
				c-1.5,1.4-2.9,2.7-4.3,4.1c-1.5,1.6-2.8,3.2-3.7,5C112.8,167.8,112.7,168.3,112.5,168.8z M88.8,160.7c-0.1,0.1-0.2,0.1-0.2,0.2
				c-0.7,0.8-1.4,1.6-2.1,2.5c-0.9,1.2-1.8,2.4-2.2,3.8c-0.1,0.4-0.2,0.8-0.1,1.2c0.1,0.8,0.8,1.1,1.8,0.9c0.2,0,0.5-0.1,0.7-0.2
				c0.9-0.4,1.6-1,2.3-1.5c1.5-1.2,2.6-2.7,3.7-4.1c0.1-0.1,0.1-0.2,0.2-0.3C91.2,162.7,89.8,162,88.8,160.7z M95.3,158.5
				c0-0.1,0-0.3,0-0.4c-0.2-1-0.7-1.3-2.1-1c-0.2,0-0.4,0.1-0.6,0.2c-0.9,0.5-1.6,1-2,1.8c-0.3,0.7-0.3,1.3,0.3,1.9
				c0.7,0.6,1.6,1,2.6,1.1c0.2,0,0.3,0,0.4-0.2c0.2-0.4,0.5-0.9,0.7-1.3C95,159.9,95.3,159.2,95.3,158.5z"/>
		</g>
	</g>
	<g>
		<path fill="#91A5BE" d="M127.6,239.4c-0.9-0.2-1.8-0.5-2.7-0.7c-0.3-0.2-0.7-0.2-1-0.4c-0.4-0.1-0.8-0.3-1.2-0.4
			c-2.1-0.7-4.2-1.7-6.2-2.7c-5.6-2.9-10.5-6.8-14.7-11.6c-0.6-0.6-1.1-1.3-1.6-2c0.3-0.2,0.4-0.6,0.9-0.6c0,0,0-0.1,0-0.1
			c0-0.1,0-0.2-0.1-0.3c-0.1-0.2-0.2-0.4-0.3-0.7c-0.1-0.2-0.1-0.3,0.1-0.3c0.2,0,0.4,0,0.6,0.1c0.4,0.1,0.7,0.3,1.1,0.5
			c0.3,0.1,0.6,0.3,0.9,0.5c0.2,0.2,0.4,0.3,0.7,0.4c0.2,0.1,0.4,0.1,0.5-0.2c0-0.1,0.2-0.2,0.3-0.2c0.2-0.2,0.5-0.4,0.4-0.7
			c0-0.1,0-0.1,0-0.2c0.3-0.4,0.3-0.8,0.4-1.3c0.1-0.3,0.1-0.6,0.1-0.9c-0.1-0.5,0-1,0.2-1.5c0.2,0,0.2,0.3,0.4,0.2
			c0.2-0.1,0.5-0.1,0.6-0.3c0.3-0.3,0.5-0.5,0.9-0.4c0.4-0.2,0.9-0.5,1.3-0.7c0,0,0.1-0.1,0.1-0.1c0.2-0.3,0.3-0.7,0.3-1.1
			c0-0.5,0-0.9-0.1-1.4c0-0.3-0.1-0.6-0.4-0.8c-0.2-0.2-0.5-0.4-0.7-0.5c-0.2-0.1-0.3-0.3-0.4-0.4c-0.4-0.7-0.7-1.3-1.1-2
			c-0.1-0.2-0.2-0.5-0.5-0.6c-0.1,0-0.1-0.1-0.1-0.2c-0.1-0.1-0.1-0.2-0.2-0.2c-0.4-0.2-0.7-0.6-1.1-0.8c-0.4-0.3-0.8-0.7-1.1-1.1
			c-0.1-0.2-0.2-0.2-0.4-0.2c-0.3,0-0.5-0.1-0.8-0.1c-0.1,0-0.2-0.1-0.1-0.2c0-0.1,0.1-0.1,0.1-0.2c0.1-0.4,0.2-0.8-0.1-1.2
			c-0.4-0.5-0.8-1.1-1-1.7c-0.1-0.3-0.4-0.4-0.6-0.6c-0.1-0.1-0.3,0.1-0.5,0.1c0,0-0.1,0-0.1,0c-0.1-0.1-0.1-0.3,0-0.4
			c0.2-0.4,0-0.7-0.3-1c-0.3-0.2-0.5-0.4-0.8-0.7c-0.3-0.3-0.3-0.5,0.1-0.7c0.1,0,0.1-0.1,0.2-0.1c0.3,0,0.3-0.2,0.3-0.4
			c0-0.2,0-0.3-0.1-0.5c-0.2-0.4-0.2-0.9-0.1-1.3c0.1-0.8,0-1.6-0.3-2.4c-0.1-0.3-0.2-0.6-0.3-1c-0.1-0.5-0.4-0.9-0.7-1.3
			c-0.1-0.2-0.3-0.3-0.5-0.5c-0.6-0.6-1-1.3-1.1-2.1c-0.1-0.3-0.1-0.6-0.1-0.9c0.2-0.7-0.2-1.3-0.2-2c-0.2-0.2-0.2-0.5-0.1-0.8
			c0.1-0.4,0-0.9-0.2-1.3c-0.1-0.2-0.1-0.3-0.1-0.5c0.1-0.5,0-0.8-0.5-0.9c-0.2-0.1-0.4-0.2-0.4-0.4c-0.2-0.5-0.4-0.9-0.6-1.4
			c-0.1-0.1-0.1-0.2-0.1-0.4c0.1-0.6,0-1.2,0.1-1.7c0-0.1,0-0.2,0-0.3c-0.2,0.1-0.2,0.2-0.2,0.4c0,0.1-0.1,0.2-0.2,0.1
			c-0.1,0-0.2-0.1-0.2-0.2c0-0.3,0-0.6,0.3-0.7c0.1,0,0.2-0.4,0.1-0.4c-0.1-0.1-0.2-0.1-0.3-0.1c-0.2,0.2-0.3,0-0.4-0.1
			c-0.3-0.2-0.5-0.2-0.6,0.2c-0.1,0.3-0.4,0.5-0.7,0.8c0-0.9-0.1-1.7-0.2-2.5c0-0.1,0-0.3,0.1-0.4c0.2-0.8,0.5-1.5,0.8-2.2
			c0.4-0.8,0.6-1.6,1-2.3c0.3-0.6,0.5-1.3,0.6-2c0-0.5,0.1-0.9,0.4-1.3c0.7-1,1.3-2.1,2-3.1c0.2-0.2,0.3-0.5,0.2-0.8
			c0-0.2,0-0.3,0.1-0.5c0.3-0.4,0.5-0.8,0.8-1.2c1.1-1.6,2.2-3.3,3.6-4.7c0.1-0.1,0.1-0.2,0.3-0.2c0,0.3-0.2,0.5-0.3,0.8
			c0.2-0.1,0.3-0.3,0.5-0.4c0.1,0.3,0,0.6-0.2,0.8c-0.1,0.2-0.3,0.4-0.2,0.6c0.1,0.2,0,0.4-0.2,0.6c-0.7,0.9-1.3,1.7-2,2.6
			c-0.3,0.4-0.4,0.8-0.5,1.2c0,0.1-0.1,0.3,0,0.4c0.3-0.3,0.7-0.5,0.8-0.8c0.1-0.4,0.4-0.6,0.6-0.9c0.1-0.2,0.3-0.4,0.4-0.6
			c0.4-0.6,0.7-1.1,1.1-1.7c0.6-0.8,1.3-1.5,2.4-1.6c0.1,0,0.2-0.1,0.3-0.1c0.1-0.1,0.2-0.1,0.3-0.1c0.4-0.1,0.7-0.1,1.1-0.1
			c0.2,0,0.4-0.1,0.6-0.3c0.3-0.3,0.6-0.7,0.8-1.1c0.1-0.3,0.3-0.4,0.6-0.4c0.4,0,0.7-0.1,0.9-0.4c0.1-0.2,0.3-0.3,0.6-0.3
			c0.2,0,0.3-0.1,0.4-0.2c0.3-0.2,0.6-0.3,0.9-0.3c0.1,0,0.3,0,0.4-0.2c0.1-0.1,0.2,0,0.2,0c0.2,0.2,0.4,0.4,0.7,0.4
			c0.2,0,0.3,0,0.3-0.1c0.1-0.2,0.1-0.4,0.3-0.6c0.4-0.3,0.9-0.6,1.4-0.6c0.6,0,1.2,0,1.8,0.2c0.4,0.1,0.8,0.2,1.2,0.1
			c0,0,0,0,0.1,0c0,0.1,0,0.1,0,0.2c-0.1,0.4-0.3,0.5-0.7,0.2c-0.2-0.1-0.3-0.2-0.5-0.1c-0.2,0.1-0.4,0.1-0.6,0.2
			c-0.1,0-0.2,0.1-0.2,0.2c0,0.4,0,0.5,0.4,0.4c0.1,0,0.2,0,0.2-0.1c0.3-0.1,0.6-0.1,0.8,0.1c0.1,0.1,0.2,0.2,0.4,0.1
			c0.2-0.1,0.4-0.1,0.7,0c0.1,0,0.2,0.1,0.2,0c0.1-0.3,0.3-0.2,0.5-0.1c0.2,0,0.4,0.1,0.5-0.1c0.1-0.2,0.3-0.3,0.5-0.4
			c0.1-0.1,0.1-0.1,0-0.2c0-0.1-0.1-0.1-0.2-0.1c-0.3,0.1-0.5,0.2-0.8,0.3c-0.2,0.1-0.8-0.2-0.8-0.5c0-0.4,0.3-1,0.7-1.1
			c0.2-0.1,0.3-0.1,0.3-0.3c0-0.1-0.1-0.2,0-0.3c0.1,0,0.2,0,0.3,0c0.2,0.1,0.4,0,0.6-0.1c0.2,0,0.2-0.2,0.2-0.3
			c0-0.1-0.1-0.2-0.2-0.2c-0.3-0.1-0.6-0.3-1-0.3c-0.1,0-0.1,0-0.1-0.1c0.2-0.1,0.4-0.3,0.7-0.2c0.3,0.1,0.6,0.1,0.9-0.1
			c0.2-0.1,0.4-0.1,0.5,0.1c0.2,0.2,0.5,0.3,0.7,0.5c0.7,0.6,1.4,0.9,2.4,0.8c0.1,0,0.3,0,0.4,0c0.1,0,0.3,0,0.3,0.2
			c-0.1,0.1-0.2,0.1-0.4,0.2c-0.5,0.2-0.9,0.3-1.4,0.5c-0.1,0-0.3,0.1-0.4,0.2c-0.4,0.4-0.8,0.6-1.3,0.7c-0.1,0-0.2,0-0.3,0.2
			c0,0.1,0.1,0.2,0.2,0.3c0.4,0.2,0.7,0.6,1.1,0.8c0.1,0,0.1,0.1,0.1,0.2c-0.2,0-0.3,0-0.5,0c-0.1,0-0.2,0-0.2,0.1
			c0,0.1,0.1,0.2,0.2,0.2c0.1,0.1,0.3,0.1,0.4,0c0.1,0,0.3-0.1,0.4,0c0,0.2-0.2,0.2-0.3,0.3c0,0.1,0.2,0.1,0.2,0.2
			c0,0.1,0,0.1,0.1,0.1c0.3-0.1,0.6-0.2,0.9-0.4c0.3-0.2,0.3-0.3,0-0.6c0.2-0.1,0.6-0.1,0.5-0.5c0-0.1,0.1-0.1,0.2-0.2
			c0.3-0.2,0.2-0.4,0-0.6c-0.1-0.1-0.2-0.1-0.2-0.1c-0.2-0.1-0.1-0.5,0.1-0.5c0.5-0.2,0.8-0.5,1.3-0.7c0.1,0,0.1-0.1,0-0.2
			c0,0-0.1-0.1,0-0.2c0.1,0,0.2-0.1,0.3-0.1c0.4,0.1,0.6,0,0.8-0.3c0.5-0.1,0.6-0.4,0.4-0.9c-0.1-0.1,0-0.4,0.1-0.5
			c0.1-0.1,0.2,0,0.3,0c0,0,0,0,0.1,0c0-0.1,0-0.2,0-0.2c-0.3-0.6,0-1.1,0.3-1.6c0.1-0.1,0.2-0.2,0.3-0.1c0.2,0.1,0.3,0,0.4-0.1
			c0.5-0.5,1-1,1.6-1.6c0.1-0.1,0.2-0.1,0.1-0.3c-0.4,0.1-0.8,0-1.1,0.2c-0.3,0.2-0.6,0.1-1-0.1c0.1-0.2,0.2-0.3,0.3-0.4
			c0.2-0.3,0.5-0.5,0.8-0.6c0.2,0,0.4-0.1,0.6-0.2c0.2-0.1,0.3-0.1,0.2-0.3c-0.1-0.1,0-0.2,0.1-0.3c0.1-0.1,0.1-0.1,0.2-0.2
			c0.2-0.3,0.2-0.4,0-0.7c-0.2-0.2-0.4-0.3-0.7-0.2c-0.4,0.1-0.7,0.2-1.1,0.3c-0.1,0-0.3,0.1-0.3,0.2c-0.2,0.2-0.5,0.3-0.8,0.3
			c-0.2,0-0.4,0.1-0.6,0.1c-0.3,0-0.6,0.1-0.8,0.4c0,0.1-0.1,0.1-0.2,0.1c-0.3,0.2-0.6,0.4-0.9,0.5c-0.1,0.1-0.2,0.1-0.3,0.1
			c-0.6,0.1-1.2,0.2-1.8,0.3c-0.5,0.1-1,0.2-1.5,0.5c-0.2,0.1-0.3,0.2-0.5,0.3c-0.3,0.2-0.7,0.4-1,0.5c-0.1,0-0.2,0.1-0.3,0
			c-0.1-0.1,0-0.2,0.1-0.3c0.1-0.1,0.2-0.2,0.3-0.3c0.2-0.1,0.4-0.3,0.6-0.4c0.2-0.2,0.4-0.3,0.6-0.4c0.4-0.2,0.8-0.3,1.2-0.5
			c0.2-0.1,0.3-0.1,0.4-0.4c0-0.3,0.2-0.5,0.5-0.7c0.1-0.1,0.3-0.2,0.4-0.4c0.2-0.2,0.5-0.4,0.6-0.6c0.1-0.2,0.2-0.3,0.4-0.3
			c0.4-0.1,0.8-0.2,1.2-0.5c0.1-0.1,0.3-0.1,0.5-0.2c1.3-0.2,2.7-0.4,4-0.5c0.3,0,0.6,0,0.9,0.2c-0.3,0.2-0.7,0.2-1,0.3
			c0.1,0.1,0.2,0.1,0.3,0.2c0.2,0.1,0.5,0.1,0.6,0.3c0.1,0.1,0.3,0.1,0.3-0.1c0-0.2,0.2-0.3,0.4-0.4c0.3-0.1,0.6-0.4,0.9-0.4
			c0.3-0.1,0.7,0.1,1,0.2c0.3,0.1,0.5,0.1,0.8,0c0.4-0.2,0.8-0.3,1.2-0.3c0.3,0,0.5-0.1,0.8-0.2c0.2-0.1,0.2-0.2,0-0.3
			c-0.1-0.1-0.2-0.1-0.3-0.1c-0.3,0-0.5,0-0.9,0c0.4-0.1,0.7-0.1,0.9-0.3c0.4-0.3,0.8-0.3,1.2-0.3c0.4,0,0.8-0.1,1.2-0.1
			c0.1,0,0.3-0.1,0.4,0c-0.1,0.2-0.2,0.2-0.4,0.2c-0.5,0-0.9,0.2-1.4,0.3c-0.2,0-0.3,0.2-0.3,0.5c0,0.2,0.2,0.2,0.3,0.3
			c0.1,0,0.1,0,0.2,0.1c0,0.2-0.2,0.4-0.4,0.5c-0.2,0.1-0.5,0.2-0.6,0.5c-0.1,0.3-0.4,0.3-0.6,0.2c-0.3-0.1-0.6-0.1-0.8,0
			c-0.2,0-0.5,0.1-0.7,0c-0.2,0-0.3,0-0.4,0.1c-0.1,0.2-0.3,0.1-0.4,0c-0.1-0.1-0.2-0.2-0.4-0.2c-0.4,0-0.8,0.1-1.2,0.2
			c0.1,0.1,0.1,0.1,0.1,0.1c0.4,0.2,0.3,0.3,0.1,0.5c0,0-0.1,0.1-0.1,0.1c-0.4,0.3-0.5,0.8-0.5,1.3c0,0.1,0,0.2,0.2,0.2
			c0.3,0,0.5-0.1,0.7-0.3c0.1-0.1,0.2-0.3,0.4-0.4c0.1,0.3,0.1,0.5-0.1,0.7c0,0-0.1,0.1,0,0.2c0,0.1,0.1,0.1,0.2,0
			c0.1,0,0.1,0,0.2-0.1c0.2-0.2,0.5-0.3,0.7-0.3c0.3,0,0.5-0.2,0.7-0.4c0.1-0.1,0.2-0.2,0.2-0.3c0.3-0.4,0.6-0.5,1.1-0.5
			c0,0,0,0,0,0.1c-0.1,0.2-0.3,0.3-0.4,0.3c-0.2,0.1-0.3,0.3-0.4,0.5c0,0.1,0,0.2,0.1,0.2c0.1,0,0.1,0,0.2,0c0.6,0,1.1-0.2,1.7-0.4
			c0.1,0,0.1,0,0.2-0.1c0.1-0.4,0.4-0.7,0.5-1.1c0.1-0.3,0.2-0.3,0.5-0.3c0.1,0,0.1,0,0.2,0c0.2,0,0.4,0,0.6-0.1
			c0.4-0.3,0.7-0.7,1-1.1c0.2-0.3,0.4-0.4,0.7-0.4c0.1,0,0.2,0,0.3,0c0.1,0,0.2,0,0.2-0.1c-0.3-0.2-0.6-0.4-0.8-0.6
			c0.2-0.1,0.3-0.2,0.4-0.4c-0.1-0.1-0.2-0.2-0.3-0.2c-0.2-0.1-0.1-0.3-0.1-0.5c0-0.2,0.2-0.1,0.3-0.1c0.1,0,0.3,0,0.4,0
			c0.3-0.1,0.5,0,0.7,0.2c0.2,0.1,0.2,0.2,0.1,0.4c-0.1,0.2-0.3,0.3-0.4,0.4c-0.2,0.4,0,0.7,0.4,0.7c0.3,0,0.6,0,0.9,0.1
			c0.1-0.2-0.1-0.3-0.1-0.4c-0.1-0.1,0-0.2,0.1-0.2c0.2,0,0.4,0.1,0.5,0.3c0.3,0.4,0.4,0.4,0.9,0.3c0.6-0.2,1.2-0.3,1.9-0.1
			c0.1,0,0.2,0.1,0.4,0.1c0.6,0,1.2,0,1.8,0.1c0.2,0,0.5,0,0.7,0.1c0.3,0.1,0.5,0.2,0.8,0.3c0-0.1,0-0.1-0.1-0.2
			c-0.3-0.4-0.7-0.6-1.1-0.7c-0.2-0.1-0.5-0.2-0.7-0.2c-0.7,0.1-1.3-0.2-1.9-0.4c-0.3-0.1-0.6-0.2-0.5-0.6c0,0,0-0.1-0.1-0.1
			c2.9,0.3,5.8,0.8,8.7,1.6c2.5,0.7,5,1.6,7.4,2.7c2.3,1,4.5,2.2,6.6,3.6c-0.1,0.2,0,0.3,0.1,0.4c0.6,0.4,1.1,0.9,1.7,1.2
			c0.2,0.1,0.3,0.3,0.5,0.4c0.1,0.1,0.3,0.2,0.1,0.4c0,0.1,0,0.1,0.1,0.2c0.2,0.3,0.5,0.6,0.8,0.8c0.5,0.4,0.9,0.8,1.4,1.3
			c0.1,0.1,0.2,0.2,0,0.3c-0.1,0.1-0.1,0.1,0,0.2c0,0.2,0.1,0.3,0.2,0.4c0.1,0.2,0.1,0.3,0,0.4c-0.1,0.1-0.1,0.2-0.2,0.2
			c-0.2,0-0.2,0.2-0.2,0.3c0,0.2,0.1,0.4,0.1,0.7c-0.3-0.1-0.5-0.3-0.7-0.5c-0.2-0.2-0.4-0.4-0.8-0.4c0.4,0.5,1,0.9,1.4,1.4
			c-0.3,0.1-0.3,0.1-0.3,0.3c0,0.3,0.1,0.6,0.4,0.8c0.1,0.1,0.2,0.1,0.2,0.2c-0.2,0.3-0.4,0.1-0.7,0c0.1,0.2,0.3,0.2,0.3,0.4
			c-0.6-0.1-1.6-1-2.2-1.8c0.4,0.1,0.7,0.2,1.1,0.3c0.1,0,0.2,0.1,0.3,0c0.1-0.1,0.1-0.3,0-0.4c-0.2-0.2-0.3-0.4-0.5-0.7
			c-0.2-0.2-0.4-0.4-0.7-0.5c-0.4-0.2-0.8-0.4-1.3-0.6c-0.6-0.3-1.2-0.6-1.8-0.7c-0.4-0.1-0.7-0.3-0.9-0.6c-0.1-0.1-0.2-0.3-0.3-0.3
			c-0.3,0-0.7,0-1,0.1c-0.2,0-0.2,0.3-0.3,0.4c0,0-0.1,0.1-0.1,0.1c-0.1,0-0.1,0-0.2-0.1c-0.1-0.2-0.3-0.2-0.4,0
			c-0.1,0.1-0.2,0.2-0.3,0.3c-0.1,0-0.2,0.1-0.2,0.1c-0.1,0.1-0.2,0.2,0,0.3c0.2,0,0.2,0.2,0.2,0.3c-0.1,0.3-0.1,0.7-0.2,1
			c-0.1,0.2-0.1,0.4-0.1,0.7c0.1,0.4,0.2,0.4-0.3,0.6c-0.1,0.1-0.3,0.1-0.3,0.3c0,0.2-0.1,0.2-0.2,0.2c-0.1,0-0.3-0.1-0.4,0.1
			c-0.2,0.3-0.4,0.3-0.7,0.5c-0.3,0.2-0.5,0.4-0.6,0.8c-0.1,0.5-0.1,0.9,0.2,1.4c0.1,0.1,0.1,0.2,0.1,0.4c0.1,0.4,0.4,0.7,0.7,1
			c0.4,0.4,0.8,0.5,1.3,0c0.4-0.4,0.3-0.3,0.8-0.2c0.1,0,0.2,0.1,0.3,0.1c0.1,0.1,0.2,0.1,0.2,0.3c0,0.3,0.2,0.6,0.4,0.8
			c0.3,0.4,0.5,0.8,0.6,1.2c0,0.1,0.1,0.2,0.1,0.3c0.1,0.2,0.2,0.4,0.5,0.6c0.3,0.2,0.3,0.2,0.5-0.1c0.1-0.1,0.1-0.2,0.3-0.2
			c0.4,0,0.4,0,0.5-0.4c0-0.2,0-0.3,0-0.4c-0.1-0.2-0.2-0.4-0.2-0.7c-0.1-0.4,0-0.7,0.3-1c0.2-0.2,0.2-0.3,0.1-0.6
			c-0.2-0.3-0.4-0.5-0.7-0.7c-0.4-0.4-0.5-0.9-0.6-1.4c0,0,0-0.1,0-0.1c0.1-0.3,0.2-0.5,0.4-0.6c0.4-0.3,0.4-0.6,0.2-1
			c0,0,0-0.1-0.1-0.1c-0.1-0.1-0.1-0.3,0-0.4c0.1-0.1,0.2-0.2,0.4-0.1c0.3,0.1,0.5,0.2,0.8,0.5c0.1,0.1,0.1,0.1,0.1,0.2
			c0,0.2,0,0.5-0.1,0.7c-0.1,0.3-0.2,0.5-0.3,0.8c-0.1,0.2-0.1,0.3,0.1,0.5c0.2,0.4,0.5,0.7,0.6,1.2c0,0.1,0.1,0.2,0.2,0.3
			c0.3,0.1,0.4,0.4,0.6,0.6c0.1,0.2,0.2,0.2,0.4,0.2c0.3,0,0.5-0.2,0.8-0.3c0.3-0.2,0.3-0.2,0.6,0.1c0,0,0.1,0.1,0.1,0.1
			c0.1,0.1,0.2,0.1,0.1,0.3c0,0.1-0.2,0.1-0.3,0.1c-0.3,0-0.6,0-0.9,0c-0.2,0-0.3,0-0.4,0.2c-0.2,0.4-0.1,0.7,0.3,0.9
			c0.4,0.1,0.6,0.3,0.7,0.6c0.1,0.1,0.1,0.3-0.1,0.4c-0.2,0.1-0.2,0-0.3-0.1c-0.1-0.1-0.1-0.2-0.2-0.2c-0.3-0.3-0.4-0.3-0.6,0.1
			c0,0.1,0,0.2,0,0.3c-0.1,0.3,0.1,0.6,0.2,0.8c0.1,0.3,0.2,0.6-0.1,0.8c-0.1,0.1-0.1,0.2-0.2,0.3c0,0.1-0.1,0.2-0.3,0.1
			c-0.1,0-0.2,0-0.3-0.1c-0.4-0.4-0.8-0.3-1.2-0.1c-0.2,0.1-0.4,0.2-0.7,0.3c-0.3,0.1-0.4,0.1-0.6-0.2c0,0-0.1-0.1-0.1-0.1
			c-0.3-0.4-0.3-0.4-0.7-0.3c-0.1,0-0.2,0-0.3,0.1c-0.1,0-0.2,0-0.2,0c-0.2,0-0.2-0.1-0.1-0.3c0.1-0.2,0.3-0.2,0.4-0.3
			c0.1,0,0.2-0.1,0.2-0.2c-0.1-0.2-0.1-0.4-0.2-0.7c0-0.1-0.1-0.1-0.2-0.1c-0.1,0-0.2,0-0.3,0.1c-0.1,0.1-0.2,0.1-0.4,0
			c-0.1-0.1-0.3-0.1-0.3-0.2c0.2-0.2,0.2-0.4,0.1-0.6c0-0.1,0-0.2,0-0.2c-0.1-0.6-0.1-0.6-0.6-0.4c-0.4,0.2-0.6,0.4-0.5,0.9
			c0.2,0.6,0.2,1.3,0.5,1.9c0,0,0,0.1,0,0.1c0,0.1-0.1,0.2-0.2,0.2c-0.2-0.1-0.3-0.1-0.5-0.2c-0.1-0.1-0.2-0.1-0.3,0.1
			c-0.1,0.1-0.2,0.1-0.3,0.1c-0.1,0-0.2-0.1-0.3-0.1c-0.3-0.1-0.6,0.1-0.6,0.5c0,0.2-0.1,0.3-0.2,0.4c-0.1,0.1-0.2,0.3-0.3,0.5
			c0,0.2-0.1,0.2-0.3,0.3c-0.3,0.1-0.7,0.2-1,0.3c-0.1,0-0.2,0-0.3,0.2c-0.1,0.5-0.1,0.5-0.5,0.6c-0.1,0-0.1,0-0.2,0
			c-0.2,0-0.4,0.1-0.3,0.4c-0.2-0.1-0.4-0.1-0.5-0.1c-0.3-0.1-0.5-0.2-0.6-0.4c0-0.1-0.1-0.2-0.2-0.1c0,0.4,0.2,0.7,0.2,1.1
			c-0.4,0-0.7-0.3-1.1-0.3c-0.4,0-0.8-0.1-1.2-0.1c0.1,0.2,0.2,0.3,0.1,0.4c-0.1,0.2,0,0.2,0.2,0.3c0.4,0.2,0.8,0.4,1.2,0.7
			c0.2,0.1,0.3,0.3,0.2,0.5c0,0.3,0,0.5,0.2,0.7c0.2,0.2,0.4,0.6,0.3,0.9c-0.1,0.7-0.2,1.4-0.6,1.9c-0.1,0.1-0.2,0.2-0.3,0.1
			c-0.6-0.2-1.2-0.3-1.8-0.5c-0.4-0.2-0.9-0.3-1.3-0.4c-0.4-0.1-0.9-0.1-1.2-0.4c0,0-0.1,0-0.2-0.1c-0.2-0.1-0.3-0.1-0.4,0.1
			c0,0.1-0.1,0.1-0.2,0.1c-0.1,0-0.2-0.1-0.3-0.1c-0.3,0-0.4,0.1-0.3,0.4c0,0.1,0.1,0.2,0.1,0.3c-0.1,0.3,0,0.6-0.2,0.9
			c0,0,0,0.1,0,0.2c0,0.7-0.1,1.4-0.8,1.9c-0.2,0.2-0.4,0.4-0.5,0.7c-0.1,0.2-0.1,0.3,0.1,0.4c0.1,0,0.1,0.1,0.1,0.1
			c0.2,0.1,0.2,0.3,0.1,0.6c-0.1,0.2-0.1,0.5-0.2,0.7c-0.1,0.2,0,0.3,0.1,0.4c0.1,0.1,0.3,0.1,0.4,0.2c0.2,0,0.3,0.1,0.5,0.1
			c0.6,0,0.8,0.4,0.9,0.8c0,0.1,0,0.1,0,0.2c0,0.1,0.1,0.2,0.2,0.4c0.1,0.2,0.3,0.2,0.4,0.1c0.3-0.1,0.6-0.3,1-0.4
			c0.2,0,0.3-0.1,0.4,0c0.4,0.2,0.9,0.3,1.4,0.4c0.4,0.1,0.4,0.1,0.6-0.2c0.1-0.2,0.3-0.3,0.6-0.3c0.1,0,0.2,0,0.3,0
			c0.1,0,0.2-0.1,0.2-0.1c0.1-0.4,0.4-0.6,0.8-0.8c0.2-0.1,0.3-0.3,0.1-0.5c-0.2-0.4-0.1-0.7,0.1-1c0.1-0.1,0.2-0.3,0.3-0.4
			c0.2-0.3,0.5-0.5,0.9-0.6c0.2,0,0.5-0.1,0.7-0.2c0.6-0.2,0.9-0.7,0.8-1.3c0-0.3,0-0.3,0.2-0.5c0.2-0.1,0.4-0.1,0.7-0.1
			c0.4,0.1,0.7,0.3,1.1,0.5c0.2,0.1,0.3,0.1,0.5,0c0.4-0.2,0.7-0.4,1.1-0.5c0.1,0,0.1-0.1,0.2-0.1c0.2-0.2,0.4-0.2,0.6-0.1
			c0.4,0.4,0.8,0.8,0.9,1.4c0,0.1,0.1,0.3,0.2,0.3c0.6,0.4,1,1,1.4,1.5c0.2,0.2,0.3,0.4,0.6,0.4c0.1,0,0.2,0.1,0.3,0.1
			c0.2,0.3,0.4,0.5,0.7,0.8c0.3,0.2,0.3,0.7,0.6,0.8c0,0,0,0.1,0,0.1c0.1,0.3,0.2,0.6,0.3,0.9c0.1,0.3-0.1,0.7-0.4,0.7
			c-0.5,0.1-1,0.3-1.4-0.1c-0.1-0.1-0.7,0-0.7,0.1c-0.1,0.2,0.1,0.3,0.2,0.5c0.1,0.1,0.2,0.2,0.3,0.3c0.4,0.2,0.7,0.5,1.1,0.8
			c0.2,0.2,0.3,0.2,0.5-0.1c0.1-0.1,0.1-0.3,0.1-0.4c-0.1-0.3,0.1-0.6,0.3-0.8c0.1,0,0.1,0.1,0.2,0.1c0.1,0.1,0.1,0.1,0.2,0
			c0.1-0.2,0.3-0.3,0.3-0.6c0-0.2,0-0.3,0.1-0.4c0.2-0.3,0.2-0.5-0.1-0.8c0,0-0.1-0.1-0.1-0.1c-0.1-0.2-0.1-0.4,0.1-0.5
			c0.1-0.1,0.3-0.1,0.4,0c0.1,0.1,0.2,0.2,0.3,0.3c0.1,0.1,0.2,0.2,0.3,0.1c0.1-0.1,0.1-0.2,0.1-0.4c-0.1-0.2-0.2-0.3-0.3-0.4
			c-0.4-0.3-0.8-0.7-1.1-1c-0.1-0.1-0.2-0.1-0.2-0.3c0-0.3-0.2-0.3-0.4-0.4c-0.4-0.1-0.7-0.4-0.9-0.8c-0.4-0.7-0.8-1.3-1.2-1.9
			c-0.1-0.2-0.2-0.3-0.1-0.5c0.1-0.2,0.1-0.4,0-0.6c0,0-0.1-0.1,0-0.2c0.2-0.1,0.3-0.1,0.5-0.2c0.2,0,0.2,0.1,0.2,0.2
			c0.1,0.3,0.1,0.6,0.4,0.7c0.3,0.2,0.4,0.4,0.5,0.6c0.2,0.3,0.4,0.6,0.8,0.7c0.1,0,0.1,0.1,0.2,0.1c0.8,0.5,1.5,1.2,2.2,1.9
			c0.1,0.1,0.2,0.3,0.2,0.5c0,0.3,0,0.6,0.1,0.9c0,0.2,0,0.5,0.2,0.7c0.1,0.1,0.1,0.2,0.1,0.3c0,0.3,0.2,0.5,0.4,0.7
			c0.1,0.1,0.4,0.1,0.2,0.4c0,0.1,0.1,0.1,0.1,0.2c0.3,0.2,0.5,0.5,0.4,0.9c0,0.1,0,0.3,0.1,0.4c0.2,0.1,0.4,0.2,0.3,0.5
			c0,0,0,0.1,0.1,0.1c0.1,0,0.1,0.1,0.2,0.2c0,0.1,0.1,0.2,0.2,0.2c0.1,0,0.2-0.1,0.3-0.2c0.1-0.1,0-0.3,0-0.4
			c0-0.1-0.2-0.3,0.1-0.3c0.1,0,0-0.1,0-0.1c0-0.1-0.1-0.2-0.1-0.3c0.1-0.1,0.2,0,0.2,0c0.3,0,0.4-0.2,0.3-0.5
			c-0.1-0.3-0.3-0.5-0.5-0.6c-0.1-0.1-0.3-0.2-0.3-0.3c0-0.4-0.2-0.6-0.4-0.9c-0.1-0.2-0.1-0.3,0-0.5c0.2,0.3,0.3,0.6,0.7,0.4
			c0-0.1,0-0.2,0-0.3c-0.1-0.4,0.1-0.6,0.5-0.5c0.2,0,0.3,0.1,0.5,0.1c0.3,0.1,0.5,0.6,0.4,0.8c-0.1,0.3,0.1,0.6,0,0.9
			c0,0,0.1,0.1,0.1,0.1c0.1,0,0.1,0.1,0.2,0.1c0.2,0.1,0.1,0.2,0,0.3c-0.1,0.1-0.2,0.1-0.3,0.2c-0.1,0-0.1,0.1-0.1,0.2
			c0,0.1,0.1,0.2,0.2,0.1c0.1,0,0.1,0,0.2,0c0.2,0,0.4,0.2,0.3,0.4c-0.1,0.2,0,0.3,0.1,0.4c0.4,0.3,0.6,0.7,1.2,0.9
			c0.1,0,0.2,0.2,0.3,0.3c0.2,0.2,0.3,0.2,0.5,0c0.1-0.1,0.1-0.1,0.1-0.2c0-0.2,0.2-0.2,0.3-0.2c0.3,0,0.5,0.2,0.7,0.4
			c0.3,0.2,0.5,0.2,0.8,0.1c0.1-0.1,0.2-0.2,0.3-0.3c0.1-0.3,0.4-0.4,0.8-0.3c-0.3,0.4-0.1,0.8,0.1,1.1c0,0.1,0.1,0.3,0.1,0.4
			c0.1,1.4-0.1,2.7-0.4,4.1c0,0.1,0,0.2-0.1,0.2c-0.2,0.1-0.5,0.2-0.7,0.2c-0.2,0-0.2-0.1-0.3-0.2c-0.1-0.1-0.2-0.1-0.3-0.2
			c-0.2-0.1-0.3-0.1-0.4,0c-0.2,0.2-0.5,0.3-0.7,0.5c-0.2,0.2-0.4,0.2-0.6,0.1c-0.5-0.2-1-0.3-1.5-0.4c-0.6-0.1-1.1-0.4-1.6-0.7
			c-0.2-0.1-0.3-0.2-0.4-0.4c0-0.1-0.1-0.2-0.2-0.2c-0.8-0.3-1.2-0.3-1.8,0.3c-0.1,0.1-0.1,0.1-0.2,0.2c-0.1,0.1-0.2,0.3-0.1,0.4
			c0,0.2,0.1,0.5,0.1,0.7c0,0.2,0,0.3-0.2,0.5c-0.1,0.1-0.2,0.2-0.2,0.3c-0.3,0.3-0.4,0.3-0.7,0c-0.5-0.5-1.1-0.9-1.8-1
			c-0.3-0.1-0.4-0.3-0.5-0.5c0-0.2-0.1-0.3-0.1-0.5c0-0.2-0.1-0.3-0.3-0.4c-0.6-0.3-1.3-0.7-2-0.8c-0.1,0-0.3-0.1-0.4-0.1
			c-0.5-0.2-1-0.5-1.4-1c-0.2-0.2-0.2-0.5,0.1-0.7c0.1-0.1,0.3-0.3,0.5-0.4c0.3-0.3,0.3-0.6,0.1-0.9c0-0.1-0.1-0.2-0.2-0.2
			c-0.2-0.2-0.1-0.4,0-0.6c0.1-0.1,0.2-0.3,0.2-0.4c-0.4-0.1-0.4-0.1-0.6-0.4c-0.1-0.1-0.2-0.2-0.3-0.3c-0.1-0.1-0.2-0.1-0.4,0
			c-0.2,0.2-0.5,0.3-0.8,0.2c-0.4,0-0.8-0.3-1.2-0.3c-0.2-0.2-0.4-0.1-0.7,0c-0.3,0.2-0.6,0.2-0.8-0.1c-0.1-0.1-0.3-0.2-0.4-0.2
			c-0.3-0.1-0.6-0.1-0.9-0.1c-0.4,0-0.9,0-1.3,0c-0.5-0.1-0.9,0-1.3,0.2c-0.1,0.1-0.2,0.1-0.3,0.1c-0.5,0.3-1,0.4-1.6,0.4
			c-0.4,0-0.9,0-1.3-0.2c-0.3-0.2-0.7-0.3-1.1-0.4c-0.4-0.1-0.6-0.2-0.8-0.6c-0.1-0.3-0.5-0.3-0.7-0.1c-0.4,0.4-0.8,0.7-0.9,1.3
			c-0.1,0.2-0.2,0.3-0.4,0.4c-0.5,0.1-1.1,0.3-1.6,0.4c-0.3,0.1-0.5,0.2-0.7,0.5c-0.3,0.5-0.7,1-1.1,1.4c-0.2,0.2-0.2,0.4-0.2,0.7
			c0,0.1,0.1,0.2,0,0.3c-0.2,0.2-0.3,0.5-0.6,0.6c-0.2,0.1-0.4,0.3-0.7,0.4c-0.7,0.4-1.3,0.7-2.1,0.7c-0.1,0-0.3,0-0.4,0
			c-0.3,0-0.5,0.1-0.6,0.3c-0.2,0.3-0.5,0.6-0.8,0.8c-0.5,0.4-1,0.8-1.4,1.3c-0.1,0.1-0.2,0.2-0.3,0.4c-0.1,0.2-0.2,0.3-0.4,0.3
			c-0.3,0.1-0.6,0.2-0.8,0.5c-0.8,0.9-1.6,1.7-2.4,2.6c0,0-0.1,0.1-0.1,0.2c0,0,0,0.1,0,0.1c0.1,0.1,0.2-0.1,0.3,0
			c0.1,0.2,0,0.4,0.1,0.5c0.3,0.4,0.2,0.9,0,1.3c-0.4,1.2-1,2.4-1.7,3.5c-0.3,0.5-0.7,0.8-1.3,1.1c0.1,0.4,0.3,0.8,0.4,1.2
			c0.1,0.2,0.1,0.4-0.1,0.5c-0.2,0.2-0.3,0.5-0.2,0.8c0.1,0.4,0.3,0.8,0.7,1.1c0.2,0.2,0.4,0.4,0.2,0.6c-0.1,0.2,0,0.4,0.1,0.6
			c0.2,0.4,0.5,0.7,0.8,1c0.1,0.1,0.2,0.2,0.3,0.4c0.1,0.4,0.2,0.8,0.4,1.1c0,0.1,0.1,0.2,0.1,0.3c-0.2,0.5,0.2,0.9,0,1.3
			c0,0,0,0.1,0.1,0.1c0.1,0.2,0.2,0.3,0.4,0.4c0.1,0.1,0.3,0.2,0.4,0.4c0.3,0.5,0.7,0.8,1.1,1.1c0.4,0.3,0.8,0.7,0.9,1.2
			c0.1,0.1,0.1,0.3,0.3,0.3c0.4,0.3,0.8,0.6,1.2,0.9c0.2,0.1,0.3,0.2,0.5,0.2c0.7,0.1,1.5,0,2.2,0c0.3,0,0.6-0.1,0.9,0
			c0.8,0.2,1.7,0.4,2.4,0.8c0.1,0.1,0.2,0.1,0.4,0.1c0.7-0.1,1.4-0.1,2.1-0.3c0.2-0.1,0.4-0.1,0.7-0.1c0.2,0,0.4,0.1,0.6-0.1
			c0.3-0.2,0.6-0.2,1-0.2c0.9,0,1.8,0.1,2.7,0.4c0.6,0.2,0.8,0.7,0.8,1.3c-0.1,0.6,0.1,0.8,0.7,0.8c0.6,0,1.1,0,1.7-0.1
			c0.2,0,0.4,0,0.6,0.1c0.1,0,0.2,0,0.2,0.1c0.1,0.3,0.3,0.3,0.5,0.4c0.1,0.1,0.2,0.1,0.2,0.3c-0.2,0.9-0.7,1.8-1.1,2.6
			c-0.3,0.5-0.7,1-1.2,1.4c-0.1,0.1-0.1,0.2-0.1,0.3c0,0.5,0.2,0.9,0.6,1.3c0.2,0.1,0.3,0.3,0.4,0.5c0.1,0.1,0.2,0.2,0.3,0.4
			c0.2,0.7,0.5,1.3,0.3,2.1c0,0.1-0.1,0.3,0,0.4c0.1,0.4,0,0.7,0,1c0,0.2-0.1,0.3-0.3,0.3c-0.1,0-0.1,0.1-0.2,0.2
			c0,0.2-0.2,0.5-0.1,0.7c0.1,0.5-0.1,0.8-0.4,1.1c-0.1,0.2-0.3,0.4-0.5,0.5c-0.5,0.2-0.9,0.5-1.4,0.8c-0.1,0.1-0.2,0.2-0.3,0.3
			c-0.3,0.4-0.7,0.8-1.1,1.1c-0.3,0.3-0.7,0.6-0.8,1.1c-0.1,0.6,0,1.2,0.1,1.8c0,0.2,0,0.4-0.1,0.6c-0.1,0.1-0.2,0.2-0.3,0.3
			c-0.1,0-0.2,0.1-0.2,0.3c0,0.3-0.1,0.5-0.4,0.7c-0.1,0.1-0.2,0.2-0.2,0.3c-0.1,0.1-0.1,0.2,0,0.3c0.2,0.2,0,0.5,0,0.7
			c0,0.4-0.3,0.3-0.6,0.4c0,0-0.1,0-0.2,0.1c-0.1,0.1-0.2,0.1-0.1,0.3c0,0.1,0.1,0.1,0.2,0.1c0.1,0,0.2,0,0.3,0
			c0.5-0.1,1.1-0.2,1.6-0.3c0.2,0,0.3-0.1,0.5-0.1c-0.1,0.1-0.3,0.1-0.4,0.1c-3.9,1-7.9,1.5-11.9,1.5c-2.6,0-5.3-0.2-7.9-0.6
			C130.8,240.1,129.2,239.8,127.6,239.4z M155.9,165.5C155.9,165.5,155.9,165.6,155.9,165.5c0,0.2-0.2,0.3-0.3,0.2
			c-0.2-0.1-0.4,0-0.5,0.1c-0.2,0.1-0.4,0.2-0.6,0.3c-0.1,0.1-0.2,0.1-0.3,0.2c0,0-0.1,0.1-0.1,0.1c0,0.1,0.1,0.1,0.2,0.1
			c0.1,0,0.1,0,0.1-0.1c0.2-0.2,0.5-0.2,0.8,0c0.1,0,0.2,0.1,0.2,0c0.3-0.3,0.6-0.2,0.9-0.1c0.3,0.1,0.6,0.2,0.9,0.2
			c0.2,0,0.5,0,0.7,0.1c0.3,0.1,0.5,0.1,0.8,0c0.1,0,0.2,0,0.2-0.2c0-0.1-0.1-0.1-0.2-0.2c-0.1-0.1-0.3,0-0.4-0.2
			c0.1-0.1,0.3-0.2,0.4-0.2c0.4-0.2,0.4-0.6,0.1-0.9c-0.1-0.1-0.2-0.1-0.4-0.2c-0.1,0-0.2,0-0.3-0.1c0-0.1,0.2-0.2,0.1-0.4
			c-0.1-0.1-0.1-0.3-0.3-0.3c-0.1-0.1-0.2-0.1-0.1-0.3c0.1-0.2,0-0.5-0.2-0.6c-0.3-0.1-0.3-0.3-0.3-0.6c0-0.4-0.3-0.8-0.7-0.9
			c-0.1-0.1-0.1-0.1-0.1-0.3c0.1-0.2,0.1-0.3,0.3-0.4c0.1-0.1,0.2-0.2,0.3-0.3c0.1-0.2,0.1-0.3-0.2-0.4c-0.2-0.1-0.5-0.1-0.7-0.2
			c-0.2-0.1-0.2-0.2,0-0.3c0.1-0.1,0.3-0.1,0.3-0.2c-0.2-0.2-0.5-0.3-0.8-0.3c-0.1,0-0.2,0-0.2,0.1c0,0.2-0.1,0.3-0.3,0.2
			c-0.2,0-0.2,0.2-0.4,0.1c-0.1-0.1-0.3-0.1-0.3,0.1c-0.1,0.1-0.1,0.3,0.1,0.4c0.2,0.1,0.2,0.2,0.1,0.4c-0.1,0.2-0.1,0.3,0.2,0.3
			c0.2,0,0.2,0.1,0.1,0.2c0,0.1-0.1,0.3-0.1,0.4c0.1,0,0.1,0,0.1,0c0.3-0.2,0.4-0.2,0.5,0.1c0.1,0.2,0,0.3-0.1,0.4
			c-0.1,0.1-0.2,0.1-0.2,0.2c0.3,0.1,0.6,0,0.9,0.1c-0.2,0.3-0.2,0.3,0.1,0.6c0.2,0.3,0.2,0.6,0.1,0.9c-0.3-0.2-0.5-0.1-0.8-0.2
			c-0.1,0-0.2-0.2-0.3-0.1c-0.1,0.1-0.1,0.3,0,0.4c0,0.1,0.1,0.1,0.1,0.2c0.2,0.2,0.1,0.4-0.2,0.5c-0.2,0.1-0.4,0-0.5,0.1
			c0,0.2,0.1,0.3,0.3,0.4c0.2,0,0.4,0.1,0.6,0.3C155.6,165.6,155.7,165.6,155.9,165.5z M141.1,145.6c-0.3,0.2-0.7,0.3-1,0.2
			c-0.3-0.1-0.7-0.1-1,0.1c-0.3,0.2-0.6,0.3-0.9,0.5c-0.1,0.1-0.2,0.1-0.4,0.2c-0.1,0-0.1,0.1-0.1,0.2c0.1,0.2-0.1,0.3-0.2,0.4
			c-0.3,0.2-0.6,0.4-0.8,0.7c-0.2,0.2-0.4,0.5-0.6,0.7c-0.1,0.2-0.2,0.4-0.3,0.6c-0.1,0.4-0.1,0.5,0.3,0.7c0.3,0.2,0.3,0.2,0.2,0.5
			c0,0.1,0,0.2-0.1,0.3c0,0.1,0,0.2,0.1,0.3c0.2,0.2,0.7,0.2,0.9,0.1c0.2-0.1,0.4-0.3,0.6-0.3c0.3-0.1,0.6-0.2,0.9-0.4
			c0.2-0.2,0.5-0.3,0.8-0.2c0.7,0,1.3-0.1,1.7-0.7c0.1-0.1,0.2-0.1,0.3-0.1c0.4-0.1,0.9,0.1,1.3,0.2c0.4,0.1,0.7,0.1,1.1,0.1
			c0.7-0.1,1.3-0.2,2-0.3c0.1,0,0.3-0.1,0.4,0c0.2,0.2,0.4,0.2,0.6,0.2c0.9,0,1.9,0.1,2.8,0.1c0.3,0,0.6-0.1,0.8-0.3
			c0.2-0.2,0.1-0.5,0-0.8c0-0.1-0.1-0.2-0.2-0.3c-0.1-0.3,0-0.5,0.3-0.5c0.2,0,0.3,0.1,0.4,0.2c0.1,0.1,0.2,0.2,0.4,0.3
			c0.1,0.1,0.2,0.1,0.3-0.1c0.1-0.3,0.4-0.4,0.7-0.4c0.2-0.1,0.3-0.1,0.2-0.4c-0.1-0.1-0.2-0.2-0.2-0.4c0.3-0.1,0.6,0,0.9-0.1
			c-0.1-0.3-0.4-0.5-0.6-0.8c0.4,0.1,0.7-0.1,0.8-0.4c0.1-0.2,0.2-0.2,0.3-0.1c0.2,0.1,0.4,0.1,0.6,0c-0.2-0.2-0.5-0.3-0.8-0.4
			c-0.2-0.1-0.5-0.1-0.6-0.3c-0.6-0.7-1.3-1-2.2-1.1c-0.1,0-0.2,0-0.3-0.1c-0.4-0.1-0.7-0.2-1.1-0.3c-0.4-0.1-0.9-0.3-1.3-0.3
			c-0.7-0.1-1.4-0.1-2.1-0.2c-0.1,0-0.3,0-0.4,0c-0.4-0.2-0.7-0.1-1.1,0c-0.2,0-0.4,0.1-0.5,0.3c0,0.2,0.2,0.2,0.3,0.3
			c0.1,0.1,0.2,0.2,0.1,0.4c-0.2,0.2-0.5,0.5-0.8,0.5c-0.3,0-0.5,0.1-0.7,0.3c-0.1,0.1-0.3,0.1-0.4,0.2c-0.1,0-0.3,0-0.4,0.1
			c-0.2,0.1-0.2,0.2-0.1,0.4c0,0.1,0.2,0.1,0.1,0.2c0,0.1-0.1,0.1-0.2,0.1c-0.3,0-0.5,0-0.8-0.1c-0.2-0.1-0.4,0-0.5,0.2
			c-0.1,0.1-0.1,0.2,0.1,0.3C140.8,145.5,140.9,145.6,141.1,145.6z M151.7,162.4c0.1,0.2,0.3,0.2,0.4,0.3c0.1,0.1,0.2,0.2,0.1,0.2
			c-0.3,0.2,0,0.3,0.1,0.5c-0.2,0.1-0.3,0.1-0.4,0.1c-0.1,0-0.2,0-0.3,0.1c-0.1,0.1-0.2,0.1-0.2,0.3c0,0.2,0.1,0.3,0.3,0.3
			c0.3,0.1,0.5,0.1,0.8,0c0.5-0.1,0.9-0.2,1.4-0.1c0.1,0,0.2,0,0.2-0.1c0.1-0.4,0.3-0.7,0.2-1.2c0-0.1-0.1-0.2-0.1-0.3
			c0.1,0,0.2,0,0.2,0c0.2,0,0.5-0.2,0.4-0.4c0-0.3-0.3-0.5-0.6-0.5c-0.2,0-0.4,0-0.6-0.1c-0.4-0.2-0.5-0.2-0.6,0.2
			c-0.1,0.2-0.2,0.2-0.3,0.2c-0.2-0.1-0.4-0.1-0.6-0.1C152.1,162.1,152,162.3,151.7,162.4z M148,151.8c0,0.1,0.1,0.2,0.2,0.3
			c0.1,0.1,0.1,0.2,0,0.3c-0.2,0.2-0.1,0.2,0.1,0.4c0.1,0.1,0.2,0.1,0.3,0.2c0.5,0.4,1.1,0.5,1.7,0.5c0.4,0,0.8,0,1.2,0
			c0.2,0,0.5-0.4,0.6-0.6c0-0.5-0.5-1-1-0.9c-0.2,0-0.3,0-0.5,0c-0.3-0.1-0.5-0.3-0.8-0.3c-0.1,0.1,0.1,0.2,0,0.3
			c-0.2,0-0.4-0.2-0.7-0.1c-0.2,0.1-0.2-0.1-0.2-0.2c0-0.1,0-0.1,0-0.2c0-0.3-0.1-0.4-0.4-0.3c-0.2,0-0.3,0-0.5,0.2
			c0.1,0.2,0.3,0.2,0.4,0.4c0.1,0.1,0.1,0.1,0.1,0.2c0,0.1-0.1,0.1-0.2,0.1C148.3,151.8,148.1,151.8,148,151.8z M97.6,174
			c0.3-0.1,0.3-0.3,0.3-0.5c-0.1-0.4,0-0.8,0.1-1.2c0.1-0.2,0-0.4,0-0.6c-0.2-0.4-0.3-0.7-0.4-1.1c0-0.1,0-0.1-0.1-0.1
			c-0.1,0-0.1,0-0.2,0.1c-0.1,0.2-0.1,0.3-0.1,0.5c0,0.2-0.1,0.3-0.3,0.3c-0.4,0-0.4,0.1-0.3,0.4c0.1,0.3,0.1,0.6,0.2,0.8
			c0,0.1,0,0.4,0.3,0.3c0.1,0.1,0.2,0.2,0.4,0.2c0,0,0,0.1,0.1,0.1C97.6,173.5,97.7,173.7,97.6,174z M97.3,169.9
			c0.1-0.3,0.2-0.6,0.3-1c0.1-0.8,0.2-1.5,0.3-2.2c0.1-0.4,0.1-0.9,0.3-1.4c0.1-0.2,0-0.4-0.1-0.6c-0.1-0.2-0.3-0.2-0.4-0.1
			c-0.1,0.1-0.2,0.1-0.2,0.2c0,0.1,0,0.1,0.1,0.1c0.2,0,0.3,0.2,0.2,0.4c-0.1,0.2-0.1,0.4-0.1,0.5c0,0.2,0,0.4-0.1,0.5
			c-0.2,0.6-0.2,1.3-0.4,1.9c0,0.2-0.1,0.3-0.2,0.4c-0.1,0-0.2,0.1-0.1,0.2C96.9,169.3,97,169.7,97.3,169.9z M160.4,147.9
			c0.3,0,0.5,0.3,0.8,0.3c0-0.2-0.1-0.2-0.2-0.3c-0.2-0.3-0.7-0.3-0.7-0.8c0,0,0,0,0,0c-0.3-0.2-0.5-0.4-0.8-0.4
			c-0.4,0-0.7-0.1-1.1-0.1c0.3,0.4,0.6,0.8,0.9,1.1c0.3,0.3,0.6,0.5,0.9,0.8c0.1,0.1,0.2,0.2,0.3,0.2
			C160.6,148.4,160.4,148.2,160.4,147.9z M98.6,175.1c0-0.2-0.1-0.4-0.2-0.6c0-0.2-0.2-0.2-0.3-0.2c-0.2,0-0.2,0.1-0.2,0.3
			c0,0.1,0,0.2,0.1,0.4c0.1,0.2,0.2,0.3,0.4,0.3C98.5,175.3,98.5,175.2,98.6,175.1z"/>
		<path fill="#91A5BE" d="M187.9,206.2c-0.1,0.1-0.1,0.2-0.1,0.3c-1.3,4.2-3.3,8.1-5.7,11.8c-4.1,6.2-9.2,11.2-15.5,15.1
			c-0.1,0.1-0.2,0.2-0.4,0.2c0-0.1,0.1-0.2,0.2-0.3c0.3-0.2,0.5-0.5,0.7-0.8c0.2-0.2,0.3-0.3,0.6-0.5c0.7-0.5,1.5-0.9,2.1-1.4
			c0.3-0.3,0.7-0.5,1-0.7c1.1-0.7,2.1-1.4,2.9-2.4c0.6-0.8,1.3-1.6,1.7-2.6c0.3-0.7,0.7-1.4,1.2-2.1c1.9-2.5,3.7-4.9,5.6-7.4
			c0.4-0.5,0.9-1.1,1.2-1.6c0.6-1.2,1.3-2.3,1.8-3.5c0.7-1.5,1.3-3,1.7-4.6c0-0.1,0.1-0.2,0.1-0.3c-0.1,0-0.2,0.1-0.2,0.2
			c-0.6,0.7-1.2,1.4-1.8,2.1c-0.1,0.1-0.2,0.2-0.2,0.3c-0.1,0.1-0.1,0.1-0.2,0c-0.2-0.3-0.4-0.6-0.2-1c0.1-0.2,0.1-0.4,0-0.7
			c-0.1-0.4-0.3-0.7-0.4-1.1c-0.1-0.2-0.2-0.3-0.3-0.3c-0.2-0.1-0.3-0.2-0.3-0.4c0-0.6-0.1-1.1-0.1-1.7c0-0.3-0.1-0.6-0.3-0.9
			c-0.2-0.2-0.3-0.5-0.3-0.8c0-0.7-0.1-1.4-0.1-2.1c0-0.4-0.1-0.8-0.5-1c-0.2-0.1-0.2-0.4-0.2-0.6c0-0.1,0-0.2,0.1-0.3
			c0.1-0.3,0.1-0.6,0-0.8c-0.2-0.5-0.3-0.9-0.5-1.4c-0.4-1.2-0.8-2.3-1.2-3.5c-0.1-0.2-0.1-0.4,0.1-0.6c0.1,0.4,0.3,0.7,0.3,1.1
			c0,0.5,0.3,0.7,0.7,1c0.1-0.1,0-0.3,0.2-0.4c0.1,0.1,0.3,0.2,0.3,0.4c0.4,0.9,0.9,1.8,1,2.7c0,0.2,0.1,0.5,0.3,0.6
			c0.1,0,0.1,0.1,0.1,0.2c0.1,0.3,0.2,0.6,0.2,0.9c0.1,0.6,0.1,1.2,0.1,1.8c0,0.2,0,0.3,0.2,0.5c0.1,0.1,0.3,0.3,0.3,0.5
			c0.3,0.7,0.4,1.5,0.6,2.3c0.1,0.2,0.1,0.5,0,0.8c-0.1,0.5-0.1,0.9-0.1,1.4c-0.1,0.6,0,1.1,0,1.7c0,0.1,0,0.2,0.1,0.2
			c0.1,0,0.2,0,0.2-0.1c0-0.1,0.1-0.2,0.1-0.3c0.1-0.3,0.3-0.7,0.5-0.9c0.2-0.2,0.3-0.4,0.4-0.6c0.4-0.5,0.8-1,1.1-1.5
			c0.7-1.3,1.4-2.7,1.7-4.1c0.1-0.6,0.4-1.2,0.5-1.8c0.2-0.9,0.3-1.8,0.4-2.7c0-0.3,0.2-0.6,0.1-0.9c-0.1-0.4-0.2-0.9-0.4-1.2
			c-0.1-0.1-0.1-0.3-0.1-0.4c0-0.2,0-0.5-0.1-0.7c0,0-0.1,0-0.1,0c-0.1,0.6-0.2,1.1-0.3,1.7c0,0.3-0.2,0.5-0.4,0.7
			c-0.1-0.4-0.2-0.8-0.2-1.2c0-0.1,0-0.3-0.2-0.4c-0.3,0-0.3-0.2-0.4-0.5c-0.2-0.5-0.3-1-0.5-1.4c-0.2-0.4-0.2-0.8,0-1.3
			c0-0.1,0-0.2,0.2-0.2c0.1,0,0.3,0.1,0.3,0.2c0,0.2,0.1,0.3,0.1,0.5c0.1,0.6,0.5,0.9,0.9,1.3c0.1,0.1,0.2,0.1,0.3-0.1
			c0-0.1,0.1-0.3,0.1-0.4c0-0.1,0-0.2,0.2-0.2c0.2,0,0.2,0.2,0.2,0.3c0,0.2,0,0.4,0.1,0.6c0.4-0.1,0.5-0.4,0.7-0.7
			c0.1,0.8,0,1.6,0,2.3c-0.1,2.6-0.4,5.2-0.9,7.8c-0.1,0.5-0.2,1-0.4,1.5c0,0.1-0.1,0.3,0,0.4C188.7,203.2,188.3,204.7,187.9,206.2z
			"/>
		<path fill="#5EB73F" d="M123.7,238.4c0.1,0,0.2,0,0.3,0c0.3,0.1,0.7,0.2,1,0.4C124.6,238.6,124.1,238.5,123.7,238.4z"/>
		<path fill="#819991" d="M190.4,189.7c-0.2,0.3-0.4,0.6-0.7,0.7c-0.1-0.2-0.1-0.4-0.1-0.6c0-0.1,0-0.3-0.2-0.3
			c-0.1,0-0.2,0.1-0.2,0.2c0,0.1-0.1,0.3-0.1,0.4c0,0.2-0.2,0.2-0.3,0.1c-0.4-0.4-0.8-0.7-0.9-1.3c0-0.2-0.1-0.3-0.1-0.5
			c0-0.2-0.1-0.2-0.3-0.2c-0.1,0-0.2,0.1-0.2,0.2c-0.2,0.4-0.2,0.8,0,1.3c0.2,0.5,0.4,0.9,0.5,1.4c0.1,0.2,0.2,0.4,0.4,0.5
			c0.2,0,0.2,0.2,0.2,0.4c0,0.4,0,0.8,0.2,1.2c0.3-0.2,0.4-0.4,0.4-0.7c0.1-0.6,0.2-1.1,0.3-1.7c0,0,0.1,0,0.1,0
			c0,0.2,0,0.5,0.1,0.7c0,0.1,0,0.3,0.1,0.4c0.3,0.4,0.3,0.8,0.4,1.2c0.1,0.3,0,0.6-0.1,0.9c-0.1,0.9-0.3,1.8-0.4,2.7
			c-0.1,0.6-0.4,1.2-0.5,1.8c-0.3,1.5-1,2.8-1.7,4.1c-0.3,0.6-0.7,1-1.1,1.5c-0.1,0.2-0.3,0.4-0.4,0.6c-0.2,0.3-0.4,0.6-0.5,0.9
			c0,0.1-0.1,0.2-0.1,0.3c0,0.1-0.1,0.1-0.2,0.1c-0.1,0-0.1-0.1-0.1-0.2c0-0.6-0.1-1.1,0-1.7c0.1-0.5,0.1-0.9,0.1-1.4
			c0-0.3,0-0.5,0-0.8c-0.2-0.8-0.4-1.5-0.6-2.3c-0.1-0.2-0.2-0.4-0.3-0.5c-0.1-0.1-0.2-0.3-0.2-0.5c0-0.6,0-1.2-0.1-1.8
			c0-0.3-0.1-0.6-0.2-0.9c0-0.1,0-0.2-0.1-0.2c-0.3-0.1-0.3-0.3-0.3-0.6c-0.2-1-0.6-1.9-1-2.7c-0.1-0.2-0.2-0.3-0.3-0.4
			c-0.2,0.1,0,0.3-0.2,0.4c-0.3-0.3-0.6-0.5-0.7-1c0-0.4-0.2-0.7-0.3-1.1c-0.2,0.2-0.2,0.4-0.1,0.6c0.4,1.2,0.8,2.3,1.2,3.5
			c0.2,0.5,0.3,0.9,0.5,1.4c0.1,0.3,0.1,0.5,0,0.8c0,0.1,0,0.2-0.1,0.3c-0.1,0.2-0.1,0.5,0.2,0.6c0.4,0.2,0.5,0.6,0.5,1
			c0,0.7,0.1,1.4,0.1,2.1c0,0.3,0.1,0.6,0.3,0.8c0.2,0.3,0.3,0.5,0.3,0.9c0,0.6,0.1,1.1,0.1,1.7c0,0.2,0,0.4,0.3,0.4
			c0.2,0.1,0.3,0.2,0.3,0.3c0.1,0.4,0.4,0.7,0.4,1.1c0.1,0.2,0.1,0.5,0,0.7c-0.2,0.4,0.1,0.7,0.2,1c0,0.1,0.1,0.1,0.2,0
			c0.1-0.1,0.2-0.2,0.2-0.3c0.6-0.7,1.2-1.4,1.8-2.1c0.1-0.1,0.1-0.1,0.2-0.2c0,0.1,0,0.2-0.1,0.3c-0.4,1.6-1.1,3.1-1.7,4.6
			c-0.5,1.2-1.2,2.4-1.8,3.5c-0.3,0.6-0.8,1.1-1.2,1.6c-1.9,2.5-3.8,4.9-5.6,7.4c-0.5,0.6-0.9,1.3-1.2,2.1c-0.4,1-1.1,1.8-1.7,2.6
			c-0.8,1-1.8,1.8-2.9,2.4c-0.3,0.2-0.7,0.4-1,0.7c-0.7,0.5-1.4,0.9-2.1,1.4c-0.2,0.1-0.4,0.3-0.6,0.5c-0.2,0.3-0.5,0.5-0.7,0.8
			c-0.1,0.1-0.2,0.1-0.2,0.3l0,0c-0.1,0-0.1,0.1-0.1,0.1l0,0c0,0-0.1,0.1-0.1,0.1c-0.9,0.6-1.8,1.1-2.7,1.6
			c-1.4,0.7-2.9,1.4-4.3,2.1c-0.2,0.1-0.4,0.2-0.6,0.2c-1.6,0.6-3.3,1-5,1.5c-0.2,0-0.3,0.1-0.5,0.1c0,0-0.1,0-0.1,0l0,0
			c-0.1,0-0.1,0-0.2,0l0,0c-0.2,0-0.3,0-0.5,0.1c-0.5,0.1-1.1,0.2-1.6,0.3c-0.1,0-0.2,0-0.3,0c-0.1,0-0.2,0-0.2-0.1
			c0-0.1,0-0.2,0.1-0.3c0,0,0.1,0,0.2-0.1c0.2-0.1,0.6,0,0.6-0.4c0-0.2,0.2-0.5,0-0.7c-0.1-0.1,0-0.2,0-0.3c0.1-0.1,0.1-0.2,0.2-0.3
			c0.2-0.2,0.3-0.4,0.4-0.7c0-0.2,0.1-0.2,0.2-0.3c0.1,0,0.3-0.1,0.3-0.3c0.1-0.2,0.1-0.4,0.1-0.6c-0.1-0.6-0.2-1.2-0.1-1.8
			c0.1-0.5,0.4-0.8,0.8-1.1c0.4-0.3,0.8-0.7,1.1-1.1c0.1-0.1,0.2-0.2,0.3-0.3c0.5-0.3,0.9-0.6,1.4-0.8c0.2-0.1,0.4-0.3,0.5-0.5
			c0.2-0.3,0.5-0.7,0.4-1.1c0-0.2,0.1-0.4,0.1-0.7c0-0.1,0.1-0.2,0.2-0.2c0.2,0,0.3-0.2,0.3-0.3c0-0.3,0.1-0.7,0-1
			c0-0.1,0-0.3,0-0.4c0.2-0.7,0-1.4-0.3-2.1c0-0.1-0.2-0.2-0.3-0.4c-0.1-0.2-0.3-0.3-0.4-0.5c-0.4-0.3-0.5-0.8-0.6-1.3
			c0-0.2,0-0.3,0.1-0.3c0.5-0.4,0.9-0.9,1.2-1.4c0.4-0.8,0.9-1.7,1.1-2.6c0-0.2,0-0.2-0.2-0.3c-0.2-0.1-0.4-0.2-0.5-0.4
			c0-0.1-0.1-0.1-0.2-0.1c-0.2-0.1-0.4-0.1-0.6-0.1c-0.6,0-1.1,0.1-1.7,0.1c-0.6,0-0.8-0.2-0.7-0.8c0.1-0.6-0.2-1.1-0.8-1.3
			c-0.9-0.3-1.8-0.4-2.7-0.4c-0.3,0-0.7,0-1,0.2c-0.2,0.1-0.4,0.1-0.6,0.1c-0.2,0-0.5,0-0.7,0.1c-0.7,0.3-1.4,0.3-2.1,0.3
			c-0.1,0-0.3,0-0.4-0.1c-0.7-0.5-1.6-0.7-2.4-0.8c-0.3-0.1-0.6,0-0.9,0c-0.7,0-1.5,0-2.2,0c-0.2,0-0.4-0.1-0.5-0.2
			c-0.4-0.3-0.8-0.6-1.2-0.9c-0.1-0.1-0.2-0.2-0.3-0.3c-0.2-0.5-0.6-0.9-0.9-1.2c-0.4-0.3-0.8-0.7-1.1-1.1c-0.1-0.2-0.2-0.2-0.4-0.4
			c-0.1-0.1-0.3-0.3-0.4-0.4c0,0-0.1-0.1-0.1-0.1c0.1-0.5-0.2-0.9,0-1.3c0-0.1,0-0.2-0.1-0.3c-0.1-0.4-0.2-0.7-0.4-1.1
			c0-0.2-0.1-0.3-0.3-0.4c-0.3-0.3-0.6-0.6-0.8-1c-0.1-0.2-0.2-0.4-0.1-0.6c0.1-0.3,0-0.5-0.2-0.6c-0.4-0.3-0.6-0.6-0.7-1.1
			c-0.1-0.3,0-0.6,0.2-0.8c0.2-0.2,0.2-0.3,0.1-0.5c-0.2-0.4-0.3-0.8-0.4-1.2c0.6-0.2,1-0.6,1.3-1.1c0.7-1.1,1.3-2.3,1.7-3.5
			c0.2-0.4,0.3-0.9,0-1.3c-0.1-0.2,0-0.4-0.1-0.5c-0.1-0.1-0.2,0-0.3,0c0,0,0-0.1,0-0.1c0-0.1,0.1-0.1,0.1-0.2
			c0.8-0.9,1.6-1.7,2.4-2.6c0.2-0.3,0.5-0.4,0.8-0.5c0.2,0,0.3-0.1,0.4-0.3c0-0.2,0.2-0.3,0.3-0.4c0.5-0.4,0.9-0.9,1.4-1.3
			c0.3-0.2,0.6-0.5,0.8-0.8c0.2-0.2,0.3-0.3,0.6-0.3c0.1,0,0.3,0,0.4,0c0.8,0,1.5-0.3,2.1-0.7c0.2-0.1,0.4-0.3,0.7-0.4
			c0.3-0.1,0.4-0.4,0.6-0.6c0.1-0.1,0-0.2,0-0.3c-0.1-0.3,0-0.5,0.2-0.7c0.4-0.5,0.8-0.9,1.1-1.4c0.2-0.2,0.4-0.4,0.7-0.5
			c0.5-0.2,1.1-0.3,1.6-0.4c0.2,0,0.4-0.1,0.4-0.4c0.2-0.5,0.6-0.9,0.9-1.3c0.2-0.3,0.6-0.2,0.7,0.1c0.1,0.4,0.4,0.5,0.8,0.6
			c0.4,0.1,0.8,0.2,1.1,0.4c0.4,0.2,0.8,0.2,1.3,0.2c0.6-0.1,1.1-0.1,1.6-0.4c0.1-0.1,0.2-0.1,0.3-0.1c0.4-0.2,0.9-0.3,1.3-0.2
			c0.4,0.1,0.9,0,1.3,0c0.3,0,0.6,0,0.9,0.1c0.2,0,0.3,0.1,0.4,0.2c0.3,0.3,0.5,0.2,0.8,0.1c0.2-0.1,0.4-0.2,0.7,0
			c0.4,0,0.8,0.3,1.2,0.3c0.3,0,0.5-0.1,0.8-0.2c0.1-0.1,0.2-0.1,0.4,0c0.1,0.1,0.2,0.2,0.3,0.3c0.3,0.3,0.3,0.3,0.6,0.4
			c0,0.2-0.1,0.3-0.2,0.4c-0.1,0.2-0.2,0.4,0,0.6c0.1,0.1,0.1,0.2,0.2,0.2c0.2,0.3,0.2,0.6-0.1,0.9c-0.1,0.1-0.3,0.3-0.5,0.4
			c-0.2,0.2-0.2,0.5-0.1,0.7c0.3,0.5,0.8,0.8,1.4,1c0.1,0,0.3,0.1,0.4,0.1c0.7,0.1,1.4,0.5,2,0.8c0.2,0.1,0.3,0.2,0.3,0.4
			c0,0.2,0.1,0.3,0.1,0.5c0,0.3,0.2,0.5,0.5,0.5c0.7,0.2,1.2,0.6,1.8,1c0.3,0.3,0.5,0.2,0.7,0c0.1-0.1,0.2-0.2,0.2-0.3
			c0.1-0.1,0.2-0.3,0.2-0.5c0-0.2-0.1-0.5-0.1-0.7c0-0.2,0-0.3,0.1-0.4c0.1-0.1,0.1-0.1,0.2-0.2c0.6-0.6,1-0.7,1.8-0.3
			c0.1,0,0.2,0.1,0.2,0.2c0.1,0.2,0.2,0.3,0.4,0.4c0.5,0.3,1,0.5,1.6,0.7c0.5,0.1,1,0.3,1.5,0.4c0.2,0.1,0.4,0.1,0.6-0.1
			c0.2-0.2,0.5-0.3,0.7-0.5c0.1-0.1,0.3-0.2,0.4,0c0.1,0.1,0.2,0.1,0.3,0.2c0.1,0.1,0.2,0.2,0.3,0.2c0.2-0.1,0.5-0.1,0.7-0.2
			c0.1,0,0.1-0.2,0.1-0.2c0.3-1.3,0.5-2.7,0.4-4.1c0-0.1,0-0.3-0.1-0.4c-0.1-0.4-0.4-0.7-0.1-1.1c-0.4,0-0.7,0-0.8,0.3
			c-0.1,0.1-0.2,0.2-0.3,0.3c-0.3,0.2-0.5,0.2-0.8-0.1c-0.2-0.2-0.4-0.4-0.7-0.4c-0.2,0-0.3,0-0.3,0.2c0,0.1-0.1,0.2-0.1,0.2
			c-0.2,0.2-0.3,0.2-0.5,0c-0.1-0.1-0.1-0.2-0.3-0.3c-0.5-0.1-0.8-0.6-1.2-0.9c-0.1-0.1-0.2-0.2-0.1-0.4c0.1-0.1-0.1-0.3-0.3-0.4
			c-0.1,0-0.1,0-0.2,0c-0.1,0-0.1-0.1-0.2-0.1c0-0.1,0-0.1,0.1-0.2c0.1-0.1,0.2-0.1,0.3-0.2c0.1-0.1,0.1-0.2,0-0.3
			c-0.1,0-0.1-0.1-0.2-0.1c0,0-0.1-0.1-0.1-0.1c0.1-0.3-0.2-0.6,0-0.9c0.1-0.3-0.1-0.7-0.4-0.8c-0.2-0.1-0.3-0.1-0.5-0.1
			c-0.4-0.1-0.6,0.1-0.5,0.5c0,0.1,0,0.2,0,0.3c-0.4,0.2-0.6-0.1-0.7-0.4c-0.1,0.2-0.1,0.4,0,0.5c0.1,0.3,0.4,0.6,0.4,0.9
			c0,0.2,0.2,0.2,0.3,0.3c0.2,0.1,0.4,0.3,0.5,0.6c0.1,0.2-0.1,0.5-0.3,0.5c-0.1,0-0.2-0.1-0.2,0c-0.1,0.1,0,0.2,0.1,0.3
			c0,0.1,0,0.1,0,0.1c-0.3,0-0.2,0.2-0.1,0.3c0,0.1,0.1,0.3,0,0.4c-0.1,0.1-0.1,0.2-0.3,0.2c-0.1,0-0.2-0.1-0.2-0.2
			c0-0.1-0.1-0.1-0.2-0.2c-0.1,0-0.1-0.1-0.1-0.1c0.1-0.3-0.1-0.4-0.3-0.5c-0.1-0.1-0.1-0.3-0.1-0.4c0.1-0.4-0.1-0.7-0.4-0.9
			c0,0-0.1-0.1-0.1-0.2c0.2-0.3-0.1-0.3-0.2-0.4c-0.3-0.2-0.4-0.4-0.4-0.7c0-0.1,0-0.2-0.1-0.3c-0.2-0.2-0.2-0.4-0.2-0.7
			c0-0.3-0.1-0.6-0.1-0.9c0-0.2-0.1-0.4-0.2-0.5c-0.7-0.7-1.3-1.4-2.2-1.9c-0.1,0-0.1-0.1-0.2-0.1c-0.4-0.1-0.6-0.4-0.8-0.7
			c-0.1-0.2-0.3-0.5-0.5-0.6c-0.2-0.1-0.3-0.4-0.4-0.7c0-0.1,0-0.2-0.2-0.2c-0.2,0-0.4,0-0.5,0.2c0,0,0,0.1,0,0.2
			c0.1,0.2,0.1,0.4,0,0.6c-0.1,0.2,0,0.3,0.1,0.5c0.5,0.6,0.9,1.2,1.2,1.9c0.2,0.4,0.5,0.7,0.9,0.8c0.2,0.1,0.4,0.1,0.4,0.4
			c0,0.1,0.2,0.2,0.2,0.3c0.4,0.3,0.8,0.6,1.1,1c0.1,0.1,0.2,0.2,0.3,0.4c0.1,0.1,0,0.3-0.1,0.4c-0.1,0.1-0.2,0-0.3-0.1
			c-0.1-0.1-0.2-0.2-0.3-0.3c-0.1-0.1-0.3-0.2-0.4,0c-0.2,0.2-0.2,0.4-0.1,0.5c0,0,0.1,0.1,0.1,0.1c0.3,0.3,0.3,0.5,0.1,0.8
			c-0.1,0.1-0.1,0.2-0.1,0.4c0,0.2-0.2,0.4-0.3,0.6c-0.1,0.1-0.1,0-0.2,0c0,0-0.1-0.1-0.2-0.1c-0.2,0.2-0.3,0.5-0.3,0.8
			c0,0.1,0,0.3-0.1,0.4c-0.1,0.3-0.2,0.3-0.5,0.1c-0.3-0.3-0.7-0.5-1.1-0.8c-0.1-0.1-0.3-0.1-0.3-0.3c-0.1-0.1-0.3-0.3-0.2-0.5
			c0-0.1,0.6-0.2,0.7-0.1c0.5,0.3,1,0.2,1.4,0.1c0.3-0.1,0.5-0.4,0.4-0.7c-0.1-0.3-0.2-0.6-0.3-0.9c0,0,0-0.1,0-0.1
			c-0.4-0.1-0.4-0.6-0.6-0.8c-0.3-0.2-0.5-0.5-0.7-0.8c-0.1-0.1-0.2-0.1-0.3-0.1c-0.3,0-0.4-0.2-0.6-0.4c-0.4-0.5-0.8-1.1-1.4-1.5
			c-0.1-0.1-0.2-0.2-0.2-0.3c0-0.6-0.4-1-0.9-1.4c-0.2-0.2-0.4-0.1-0.6,0.1c-0.1,0.1-0.1,0.1-0.2,0.1c-0.4,0.1-0.7,0.3-1.1,0.5
			c-0.2,0.1-0.3,0.1-0.5,0c-0.3-0.2-0.7-0.4-1.1-0.5c-0.2-0.1-0.5-0.1-0.7,0.1c-0.3,0.2-0.3,0.2-0.2,0.5c0.1,0.6-0.3,1.1-0.8,1.3
			c-0.2,0.1-0.5,0.1-0.7,0.2c-0.4,0.1-0.7,0.3-0.9,0.6c-0.1,0.1-0.2,0.3-0.3,0.4c-0.2,0.3-0.4,0.6-0.1,1c0.1,0.2,0.1,0.4-0.1,0.5
			c-0.3,0.2-0.7,0.4-0.8,0.8c0,0.1-0.1,0.1-0.2,0.1c-0.1,0-0.2,0-0.3,0c-0.3,0-0.5,0.1-0.6,0.3c-0.2,0.3-0.2,0.3-0.6,0.2
			c-0.5-0.1-0.9-0.2-1.4-0.4c-0.1-0.1-0.3-0.1-0.4,0c-0.3,0.1-0.6,0.2-1,0.4c-0.2,0.1-0.3,0.1-0.4-0.1c-0.1-0.1-0.2-0.2-0.2-0.4
			c0-0.1,0-0.1,0-0.2c-0.2-0.4-0.4-0.8-0.9-0.8c-0.2,0-0.3,0-0.5-0.1c-0.2,0-0.3-0.1-0.4-0.2c-0.2-0.1-0.2-0.2-0.1-0.4
			c0.1-0.2,0.1-0.5,0.2-0.7c0.1-0.2,0.1-0.4-0.1-0.6c-0.1,0-0.1-0.1-0.1-0.1c-0.1-0.1-0.1-0.2-0.1-0.4c0.1-0.3,0.3-0.5,0.5-0.7
			c0.6-0.5,0.8-1.2,0.8-1.9c0-0.1,0-0.2,0-0.2c0.2-0.3,0-0.6,0.2-0.9c0-0.1,0-0.2-0.1-0.3c-0.1-0.3,0-0.4,0.3-0.4
			c0.1,0,0.2,0,0.3,0.1c0.1,0,0.2,0,0.2-0.1c0.1-0.2,0.2-0.2,0.4-0.1c0.1,0,0.1,0,0.2,0.1c0.3,0.3,0.8,0.4,1.2,0.4
			c0.5,0.1,0.9,0.2,1.3,0.4c0.6,0.2,1.2,0.4,1.8,0.5c0.2,0,0.2,0,0.3-0.1c0.4-0.6,0.6-1.3,0.6-1.9c0-0.3-0.1-0.6-0.3-0.9
			c-0.2-0.2-0.3-0.5-0.2-0.7c0-0.2,0-0.4-0.2-0.5c-0.4-0.3-0.8-0.5-1.2-0.7c-0.1-0.1-0.2-0.1-0.2-0.3c0.1-0.1,0-0.3-0.1-0.4
			c0.4,0,0.8,0.1,1.2,0.1c0.4,0,0.7,0.3,1.1,0.3c0-0.4-0.2-0.7-0.2-1.1c0.1-0.1,0.2,0,0.2,0.1c0.1,0.3,0.3,0.4,0.6,0.4
			c0.2,0,0.3,0.1,0.5,0.1c0-0.3,0.1-0.4,0.3-0.4c0.1,0,0.1,0,0.2,0c0.5-0.1,0.5-0.1,0.5-0.6c0-0.2,0.1-0.2,0.3-0.2
			c0.4,0,0.7-0.2,1-0.3c0.2,0,0.3-0.1,0.3-0.3c0-0.2,0.2-0.3,0.3-0.5c0.1-0.1,0.1-0.3,0.2-0.4c0-0.3,0.2-0.5,0.6-0.5
			c0.1,0,0.2,0,0.3,0.1c0.1,0,0.2,0,0.3-0.1c0.1-0.1,0.2-0.1,0.3-0.1c0.2,0.1,0.3,0.1,0.5,0.2c0.1,0,0.2,0,0.2-0.2c0,0,0-0.1,0-0.1
			c-0.3-0.6-0.3-1.3-0.5-1.9c-0.1-0.4,0.1-0.7,0.5-0.9c0.6-0.2,0.6-0.2,0.6,0.4c0,0.1,0,0.2,0,0.2c0.1,0.2,0.1,0.4-0.1,0.6
			c0.1,0.2,0.2,0.2,0.3,0.2c0.1,0.1,0.3,0.1,0.4,0c0.1-0.1,0.2-0.1,0.3-0.1c0.1,0,0.2,0,0.2,0.1c0.1,0.2,0.1,0.4,0.2,0.7
			c0.1,0.1-0.1,0.2-0.2,0.2c-0.2,0.1-0.3,0.1-0.4,0.3c-0.1,0.1-0.1,0.2,0.1,0.3c0.1,0,0.2,0,0.2,0c0.1,0,0.2,0,0.3-0.1
			c0.5-0.1,0.5-0.1,0.7,0.3c0,0,0.1,0.1,0.1,0.1c0.2,0.3,0.2,0.3,0.6,0.2c0.2-0.1,0.4-0.2,0.7-0.3c0.4-0.1,0.8-0.3,1.2,0.1
			c0.1,0.1,0.2,0.1,0.3,0.1c0.1,0,0.2,0,0.3-0.1c0-0.1,0.1-0.3,0.2-0.3c0.3-0.2,0.3-0.5,0.1-0.8c-0.1-0.3-0.3-0.5-0.2-0.8
			c0-0.1,0-0.2,0-0.3c0.1-0.4,0.2-0.5,0.6-0.1c0.1,0.1,0.1,0.2,0.2,0.2c0.1,0.1,0.2,0.2,0.3,0.1c0.2-0.1,0.1-0.2,0.1-0.4
			c-0.1-0.3-0.4-0.6-0.7-0.6c-0.5-0.1-0.6-0.5-0.3-0.9c0.1-0.2,0.2-0.2,0.4-0.2c0.3,0,0.6,0.1,0.9,0c0.1,0,0.2,0,0.3-0.1
			c0-0.1-0.1-0.2-0.1-0.3c0,0-0.1-0.1-0.1-0.1c-0.3-0.3-0.3-0.3-0.6-0.1c-0.3,0.1-0.5,0.3-0.8,0.3c-0.2,0-0.3,0-0.4-0.2
			c-0.2-0.2-0.3-0.5-0.6-0.6c-0.1-0.1-0.2-0.1-0.2-0.3c-0.1-0.4-0.3-0.8-0.6-1.2c-0.1-0.2-0.1-0.3-0.1-0.5c0.1-0.3,0.2-0.5,0.3-0.8
			c0.1-0.2,0.1-0.5,0.1-0.7c0-0.1,0-0.2-0.1-0.2c-0.2-0.2-0.5-0.4-0.8-0.5c-0.1,0-0.3,0-0.4,0.1c-0.1,0.1-0.1,0.3,0,0.4
			c0,0,0,0.1,0.1,0.1c0.3,0.4,0.2,0.7-0.2,1c-0.2,0.2-0.4,0.4-0.4,0.6c0,0,0,0.1,0,0.1c0.2,0.5,0.2,1,0.6,1.4
			c0.3,0.2,0.5,0.4,0.7,0.7c0.1,0.3,0.1,0.4-0.1,0.6c-0.3,0.3-0.4,0.6-0.3,1c0,0.2,0.1,0.4,0.2,0.7c0,0.1,0.1,0.3,0,0.4
			c-0.1,0.4-0.1,0.4-0.5,0.4c-0.2,0-0.3,0.1-0.3,0.2c-0.2,0.3-0.2,0.3-0.5,0.1c-0.2-0.1-0.4-0.3-0.5-0.6c0-0.1-0.1-0.2-0.1-0.3
			c-0.1-0.5-0.3-0.9-0.6-1.2c-0.2-0.2-0.4-0.5-0.4-0.8c0-0.1-0.1-0.2-0.2-0.3c-0.1,0-0.2-0.1-0.3-0.1c-0.5-0.2-0.4-0.3-0.8,0.2
			c-0.5,0.5-0.8,0.4-1.3,0c-0.3-0.3-0.6-0.6-0.7-1c0-0.1-0.1-0.3-0.1-0.4c-0.2-0.4-0.3-0.9-0.2-1.4c0.1-0.4,0.3-0.6,0.6-0.8
			c0.2-0.1,0.5-0.2,0.7-0.5c0.1-0.1,0.2-0.1,0.4-0.1c0.1,0,0.3,0,0.2-0.2c0-0.2,0.1-0.2,0.3-0.3c0.4-0.2,0.4-0.2,0.3-0.6
			c0-0.2,0-0.5,0.1-0.7c0.2-0.3,0.2-0.7,0.2-1c0-0.2,0-0.3-0.2-0.3c-0.2-0.1-0.1-0.2,0-0.3c0.1-0.1,0.2-0.1,0.2-0.1
			c0.1-0.1,0.3-0.1,0.3-0.3c0.1-0.2,0.2-0.2,0.4,0c0,0,0.1,0.1,0.2,0.1c0,0,0.1,0,0.1-0.1c0.1-0.1,0.1-0.4,0.3-0.4
			c0.3-0.1,0.7-0.1,1-0.1c0.1,0,0.2,0.2,0.3,0.3c0.2,0.3,0.5,0.5,0.9,0.6c0.6,0.2,1.2,0.5,1.8,0.7c0.4,0.2,0.8,0.4,1.3,0.6
			c0.3,0.1,0.5,0.3,0.7,0.5c0.2,0.2,0.3,0.4,0.5,0.7c0.1,0.1,0.1,0.3,0,0.4c-0.1,0.1-0.2,0.1-0.3,0c-0.4-0.1-0.7-0.2-1.1-0.3
			c0.5,0.8,1.5,1.6,2.2,1.8c0-0.2-0.3-0.2-0.3-0.4c0.2,0.1,0.5,0.3,0.7,0c0-0.1-0.1-0.2-0.2-0.2c-0.3-0.2-0.3-0.5-0.4-0.8
			c0-0.2,0-0.2,0.3-0.3c-0.4-0.5-0.9-0.9-1.4-1.4c0.4,0,0.6,0.2,0.8,0.4c0.2,0.2,0.4,0.4,0.7,0.5c0-0.3,0-0.5-0.1-0.7
			c0-0.1-0.1-0.3,0.2-0.3c0.1,0,0.1-0.1,0.2-0.2c0.1-0.1,0.2-0.3,0-0.4c-0.1-0.1-0.1-0.3-0.2-0.4c0-0.1-0.1-0.2,0-0.2
			c0.2-0.1,0.1-0.2,0-0.3c-0.5-0.4-0.9-0.8-1.4-1.3c-0.3-0.3-0.5-0.6-0.8-0.8c-0.1-0.1-0.1-0.1-0.1-0.2c0.1-0.2,0-0.3-0.1-0.4
			c-0.2-0.2-0.3-0.3-0.5-0.4c-0.6-0.4-1.1-0.8-1.7-1.2c-0.1-0.1-0.3-0.2-0.1-0.4c0.6,0.3,1.2,0.8,1.7,1.2c1.7,1.2,3.3,2.5,4.9,3.8
			c0,0,0.1,0,0.1,0.1c1.3,1.4,2.7,2.6,3.8,4.1c0.9,1.1,1.9,2.3,2.7,3.4c0.8,1.1,1.6,2.3,2.5,3.4c0.3,0.4,0.6,1,0.9,1.4
			c1.4,2.4,2.6,4.9,3.6,7.5c0.5,1.2,0.9,2.4,1.2,3.7c0.5,2.1,1,4.2,1.3,6.3c0.2,1,0.2,2,0.3,3c0.1,0.8,0.1,1.7,0.2,2.5
			C190.5,188.8,190.6,189.3,190.4,189.7z"/>
		<path fill="#819991" d="M93.1,171.2c1.5-3.9,3.6-7.4,6-10.8c4-5.4,8.8-9.8,14.5-13.2c2.4-1.5,4.9-2.7,7.6-3.8
			c1.5-0.6,3-1.3,4.6-1.6c3.5-0.9,7-1.6,10.5-1.8c0.3,0,0.6,0,0.9-0.1c1.2-0.2,2.4-0.1,3.6-0.2c0.9,0,1.9,0.1,2.8,0.3
			c0.3,0.1,0.6,0.1,0.9,0.1c0,0,0.1,0.1,0.1,0.1c-0.1,0.4,0.2,0.6,0.5,0.6c0.6,0.2,1.3,0.4,1.9,0.4c0.3,0,0.5,0.1,0.7,0.2
			c0.4,0.2,0.9,0.3,1.1,0.7c0,0,0.1,0.1,0.1,0.2c-0.3-0.1-0.6-0.2-0.8-0.3c-0.2-0.1-0.5-0.1-0.7-0.1c-0.6,0-1.2,0-1.8-0.1
			c-0.1,0-0.2,0-0.4-0.1c-0.6-0.2-1.3-0.1-1.9,0.1c-0.5,0.1-0.6,0.1-0.9-0.3c-0.1-0.2-0.3-0.3-0.5-0.3c-0.2,0-0.2,0.1-0.1,0.2
			c0,0.1,0.2,0.2,0.1,0.4c-0.3-0.1-0.6-0.1-0.9-0.1c-0.4,0-0.5-0.3-0.4-0.7c0.1-0.2,0.3-0.3,0.4-0.4c0.1-0.2,0.1-0.2-0.1-0.4
			c-0.2-0.2-0.4-0.2-0.7-0.2c-0.1,0-0.3,0-0.4,0c-0.1,0-0.3,0-0.3,0.1c0,0.2-0.1,0.3,0.1,0.5c0.1,0.1,0.2,0.1,0.3,0.2
			c0,0.2-0.2,0.2-0.4,0.4c0.3,0.2,0.6,0.4,0.8,0.6c0,0.1-0.1,0.1-0.2,0.1c-0.1,0-0.2,0-0.3,0c-0.3-0.1-0.6,0.1-0.7,0.4
			c-0.2,0.4-0.6,0.8-1,1.1c-0.2,0.1-0.3,0.2-0.6,0.1c-0.1,0-0.1,0-0.2,0c-0.3,0-0.4,0-0.5,0.3c-0.1,0.4-0.4,0.7-0.5,1.1
			c0,0.1-0.1,0.1-0.2,0.1c-0.6,0.1-1.1,0.3-1.7,0.4c-0.1,0-0.1,0-0.2,0c-0.1,0-0.1-0.1-0.1-0.2c0.1-0.2,0.2-0.4,0.4-0.5
			c0.2-0.1,0.4-0.1,0.4-0.3c0,0,0,0,0-0.1c0,0,0,0-0.1,0c-0.5,0-0.8,0.1-1.1,0.5c-0.1,0.1-0.2,0.2-0.2,0.3c-0.2,0.2-0.4,0.4-0.7,0.4
			c-0.3,0-0.5,0.1-0.7,0.3c0,0-0.1,0.1-0.2,0.1c-0.1,0-0.1,0-0.2,0c-0.1-0.1,0-0.1,0-0.2c0.2-0.2,0.2-0.4,0.1-0.7
			c-0.2,0.1-0.3,0.2-0.4,0.4c-0.2,0.2-0.4,0.3-0.7,0.3c-0.2,0-0.2,0-0.2-0.2c0-0.5,0.1-0.9,0.5-1.3c0,0,0.1-0.1,0.1-0.1
			c0.2-0.3,0.4-0.3-0.1-0.5c0,0-0.1-0.1-0.1-0.1c0.4-0.1,0.8-0.2,1.2-0.2c0.2,0,0.3,0.1,0.4,0.2c0.1,0.1,0.2,0.2,0.4,0
			c0.1-0.1,0.3-0.1,0.4-0.1c0.2,0,0.5,0,0.7,0c0.3-0.1,0.6-0.1,0.8,0c0.3,0.1,0.5,0,0.6-0.2c0.1-0.2,0.4-0.3,0.6-0.5
			c0.2-0.1,0.4-0.2,0.4-0.5c-0.1-0.1-0.1-0.1-0.2-0.1c-0.1,0-0.3,0-0.3-0.3c0-0.3,0.1-0.5,0.3-0.5c0.5-0.1,0.9-0.3,1.4-0.3
			c0.1,0,0.3,0,0.4-0.2c-0.2,0-0.3,0-0.4,0c-0.4,0-0.8,0.1-1.2,0.1c-0.4,0-0.9,0.1-1.2,0.3c-0.2,0.2-0.6,0.2-0.9,0.3
			c0.3,0,0.6,0,0.9,0c0.1,0,0.2,0,0.3,0.1c0.1,0.1,0.1,0.2,0,0.3c-0.2,0.1-0.5,0.1-0.8,0.2c-0.4,0.1-0.8,0.1-1.2,0.3
			c-0.2,0.1-0.5,0.1-0.8,0c-0.3-0.1-0.7-0.3-1-0.2c-0.3,0.1-0.6,0.3-0.9,0.4c-0.2,0.1-0.3,0.2-0.4,0.4c0,0.2-0.2,0.2-0.3,0.1
			c-0.2-0.2-0.4-0.2-0.6-0.3c-0.1,0-0.2-0.1-0.3-0.2c0.3-0.1,0.7-0.1,1-0.3c-0.3-0.2-0.6-0.2-0.9-0.2c-1.4,0.1-2.7,0.3-4,0.5
			c-0.2,0-0.3,0.1-0.5,0.2c-0.4,0.3-0.8,0.4-1.2,0.5c-0.2,0-0.3,0.1-0.4,0.3c-0.1,0.3-0.3,0.5-0.6,0.6c-0.1,0.1-0.3,0.2-0.4,0.4
			c-0.2,0.2-0.4,0.4-0.5,0.7c0,0.2-0.2,0.3-0.4,0.4c-0.4,0.2-0.8,0.3-1.2,0.5c-0.2,0.1-0.5,0.2-0.6,0.4c-0.2,0.2-0.4,0.3-0.6,0.4
			c-0.1,0.1-0.2,0.1-0.3,0.3c-0.1,0.1-0.2,0.2-0.1,0.3c0.1,0.1,0.2,0,0.3,0c0.4-0.1,0.7-0.3,1-0.5c0.2-0.1,0.4-0.2,0.5-0.3
			c0.4-0.3,1-0.5,1.5-0.5c0.6-0.1,1.2-0.2,1.8-0.3c0.1,0,0.2-0.1,0.3-0.1c0.3-0.2,0.6-0.4,0.9-0.5c0.1,0,0.2-0.1,0.2-0.1
			c0.2-0.3,0.5-0.3,0.8-0.4c0.2,0,0.4-0.1,0.6-0.1c0.3,0,0.6-0.1,0.8-0.3c0.1-0.1,0.2-0.2,0.3-0.2c0.4-0.1,0.7-0.2,1.1-0.3
			c0.3-0.1,0.5,0,0.7,0.2c0.2,0.2,0.2,0.4,0,0.7c0,0.1-0.1,0.1-0.2,0.2c-0.1,0.1-0.1,0.2-0.1,0.3c0.1,0.2,0,0.3-0.2,0.3
			c-0.2,0.1-0.4,0.1-0.6,0.2c-0.4,0.1-0.6,0.3-0.8,0.6c-0.1,0.1-0.2,0.3-0.3,0.4c0.3,0.1,0.6,0.3,1,0.1c0.4-0.2,0.8-0.2,1.1-0.2
			c0.1,0.2,0,0.2-0.1,0.3c-0.5,0.5-1,1-1.6,1.6c-0.1,0.1-0.2,0.2-0.4,0.1c-0.2-0.1-0.3,0-0.3,0.1c-0.3,0.5-0.5,1-0.3,1.6
			c0,0.1,0.1,0.2,0,0.2c0,0,0,0-0.1,0c-0.1,0-0.2-0.1-0.3,0c-0.1,0.1-0.2,0.3-0.1,0.5c0.2,0.5,0.1,0.7-0.4,0.9
			c-0.2,0.3-0.4,0.4-0.8,0.3c-0.1,0-0.2,0.1-0.3,0.1c-0.1,0.1,0,0.2,0,0.2c0.1,0.1,0.1,0.2,0,0.2c-0.5,0.2-0.8,0.6-1.3,0.7
			c-0.2,0.1-0.3,0.4-0.1,0.5c0.1,0.1,0.2,0.1,0.2,0.1c0.3,0.2,0.3,0.4,0,0.6c-0.1,0-0.2,0.1-0.2,0.2c0.1,0.4-0.3,0.4-0.5,0.5
			c0.2,0.3,0.3,0.4,0,0.6c-0.3,0.2-0.6,0.3-0.9,0.4c-0.1,0-0.1,0-0.1-0.1c0-0.1-0.1-0.1-0.2-0.2c0-0.1,0.2-0.1,0.3-0.3
			c-0.1-0.1-0.3,0-0.4,0c-0.2,0-0.3,0-0.4,0c-0.1,0-0.2,0-0.2-0.2c0-0.1,0.1-0.1,0.2-0.1c0.2,0,0.3,0,0.5,0c0-0.1-0.1-0.2-0.1-0.2
			c-0.4-0.1-0.7-0.5-1.1-0.8c-0.1-0.1-0.2-0.1-0.2-0.3c0-0.1,0.2-0.1,0.3-0.2c0.5-0.1,1-0.3,1.3-0.7c0.1-0.1,0.2-0.1,0.4-0.2
			c0.5-0.2,0.9-0.3,1.4-0.5c0.1,0,0.3-0.1,0.4-0.2c-0.1-0.1-0.2-0.2-0.3-0.2c-0.1,0-0.3,0-0.4,0c-0.9,0.1-1.7-0.2-2.4-0.8
			c-0.2-0.2-0.5-0.3-0.7-0.5c-0.2-0.1-0.3-0.1-0.5-0.1c-0.3,0.1-0.6,0.2-0.9,0.1c-0.3-0.1-0.5,0.1-0.7,0.2c0,0.1,0.1,0.1,0.1,0.1
			c0.4,0,0.7,0.2,1,0.3c0.1,0,0.2,0.1,0.2,0.2c0,0.1,0,0.3-0.2,0.3c-0.2,0.1-0.4,0.1-0.6,0.1c-0.1,0-0.2-0.1-0.3,0
			c0,0.1,0,0.2,0,0.3c0,0.2-0.1,0.3-0.3,0.3c-0.4,0.1-0.8,0.7-0.7,1.1c0,0.3,0.6,0.6,0.8,0.5c0.3-0.1,0.5-0.2,0.8-0.3
			c0.1,0,0.2,0,0.2,0.1c0,0.1,0,0.2,0,0.2c-0.2,0.1-0.3,0.2-0.5,0.4c-0.1,0.2-0.4,0.1-0.5,0.1c-0.2,0-0.4-0.1-0.5,0.1
			c0,0.1-0.1,0-0.2,0c-0.2-0.1-0.4-0.1-0.7,0c-0.1,0.1-0.3,0-0.4-0.1c-0.3-0.2-0.5-0.2-0.8-0.1c-0.1,0-0.2,0.1-0.2,0.1
			c-0.4,0.1-0.4,0-0.4-0.4c0-0.1,0.1-0.2,0.2-0.2c0.2-0.1,0.4-0.1,0.6-0.2c0.2-0.1,0.4,0,0.5,0.1c0.3,0.3,0.6,0.2,0.7-0.2
			c0-0.1,0-0.1,0-0.2c0,0-0.1,0-0.1,0c-0.4,0.2-0.8,0.1-1.2-0.1c-0.6-0.2-1.2-0.2-1.8-0.2c-0.5,0-1,0.3-1.4,0.6
			c-0.2,0.1-0.2,0.4-0.3,0.6c0,0.2-0.1,0.2-0.3,0.1c-0.3-0.1-0.5-0.2-0.7-0.4c-0.1-0.1-0.2-0.2-0.2,0c-0.1,0.2-0.2,0.2-0.4,0.2
			c-0.4,0-0.7,0.1-0.9,0.3c-0.1,0.1-0.3,0.2-0.4,0.2c-0.2,0-0.4,0.1-0.6,0.3c-0.2,0.3-0.5,0.4-0.9,0.4c-0.3,0-0.5,0.2-0.6,0.4
			c-0.2,0.4-0.5,0.7-0.8,1.1c-0.2,0.2-0.4,0.3-0.6,0.3c-0.4,0-0.7,0-1.1,0.1c-0.1,0-0.2,0.1-0.3,0.1c-0.1,0.1-0.2,0.1-0.3,0.1
			c-1.1,0.1-1.8,0.8-2.4,1.6c-0.4,0.6-0.8,1.1-1.1,1.7c-0.1,0.2-0.3,0.4-0.4,0.6c-0.2,0.3-0.5,0.6-0.6,0.9c-0.1,0.4-0.5,0.6-0.8,0.8
			c0-0.2,0-0.3,0-0.4c0.2-0.4,0.2-0.8,0.5-1.2c0.7-0.9,1.3-1.7,2-2.6c0.1-0.2,0.2-0.4,0.2-0.6c-0.1-0.2,0.1-0.4,0.2-0.6
			c0.2-0.2,0.3-0.5,0.2-0.8c-0.2,0-0.3,0.3-0.5,0.4c0.1-0.3,0.2-0.5,0.3-0.8c-0.2,0-0.2,0.1-0.3,0.2c-1.4,1.4-2.5,3.1-3.6,4.7
			c-0.3,0.4-0.5,0.8-0.8,1.2c-0.1,0.1-0.1,0.3-0.1,0.5c0,0.3-0.1,0.5-0.2,0.8c-0.7,1-1.4,2.1-2,3.1c-0.3,0.4-0.4,0.8-0.4,1.3
			c0,0.7-0.2,1.4-0.6,2c-0.4,0.7-0.7,1.5-1,2.3c-0.3,0.7-0.6,1.5-0.8,2.2c0,0.1-0.1,0.3-0.1,0.4c0.1,0.8,0.2,1.6,0.2,2.5
			c0.3-0.2,0.6-0.4,0.7-0.8c0.1-0.4,0.3-0.4,0.6-0.2c0.1,0.1,0.3,0.3,0.4,0.1c0.1-0.1,0.2,0,0.3,0.1c0.1,0.1,0,0.4-0.1,0.4
			c-0.4,0.1-0.3,0.4-0.3,0.7c0,0.2,0.1,0.2,0.2,0.2c0.1,0,0.2,0,0.2-0.1c0.1-0.1,0.1-0.3,0.2-0.4c0.1,0.1,0,0.2,0,0.3
			c-0.1,0.6,0,1.2-0.1,1.7c0,0.1,0,0.3,0.1,0.4c0.3,0.4,0.5,0.9,0.6,1.4c0.1,0.2,0.2,0.4,0.4,0.4c0.5,0.1,0.6,0.4,0.5,0.9
			c0,0.2,0,0.3,0.1,0.5c0.3,0.4,0.3,0.9,0.2,1.3c-0.1,0.3-0.1,0.6,0.1,0.8c0.1,0.7,0.4,1.3,0.2,2c-0.1,0.3,0,0.6,0.1,0.9
			c0.2,0.8,0.6,1.5,1.1,2.1c0.2,0.2,0.3,0.3,0.5,0.5c0.3,0.4,0.6,0.8,0.7,1.3c0.1,0.3,0.2,0.7,0.3,1c0.3,0.8,0.4,1.6,0.3,2.4
			c0,0.5,0,0.9,0.1,1.3c0.1,0.2,0.1,0.3,0.1,0.5c0,0.2-0.1,0.4-0.3,0.4c-0.1,0-0.2,0.1-0.2,0.1c-0.4,0.2-0.4,0.4-0.1,0.7
			c0.2,0.2,0.5,0.5,0.8,0.7c0.3,0.3,0.5,0.6,0.3,1c-0.1,0.1,0,0.3,0,0.4c0,0,0.1,0,0.1,0c0.2,0,0.4-0.2,0.5-0.1
			c0.2,0.2,0.5,0.3,0.6,0.6c0.3,0.6,0.6,1.1,1,1.7c0.3,0.4,0.2,0.8,0.1,1.2c0,0.1-0.1,0.1-0.1,0.2c0,0.1,0,0.2,0.1,0.2
			c0.3,0,0.5,0.1,0.8,0.1c0.2,0,0.3,0.1,0.4,0.2c0.3,0.5,0.6,0.8,1.1,1.1c0.4,0.3,0.7,0.6,1.1,0.8c0.1,0.1,0.2,0.1,0.2,0.2
			c0,0.1,0.1,0.2,0.1,0.2c0.3,0.1,0.4,0.4,0.5,0.6c0.4,0.7,0.7,1.3,1.1,2c0.1,0.2,0.2,0.3,0.4,0.4c0.2,0.2,0.5,0.4,0.7,0.5
			c0.3,0.2,0.4,0.4,0.4,0.8c0,0.5,0.1,0.9,0.1,1.4c0,0.4-0.1,0.7-0.3,1.1c0,0-0.1,0.1-0.1,0.1c-0.4,0.2-0.9,0.5-1.3,0.7
			c-0.4-0.1-0.6,0.1-0.9,0.4c-0.1,0.2-0.4,0.2-0.6,0.3c-0.2,0.1-0.2-0.2-0.4-0.2c-0.2,0.5-0.3,1-0.2,1.5c0,0.3,0,0.6-0.1,0.9
			c-0.1,0.4-0.2,0.9-0.4,1.3c0,0.1-0.1,0.1,0,0.2c0.1,0.4-0.2,0.5-0.4,0.7c-0.1,0.1-0.2,0.1-0.3,0.2c-0.1,0.3-0.3,0.2-0.5,0.2
			c-0.3-0.1-0.5-0.2-0.7-0.4c-0.3-0.2-0.5-0.4-0.9-0.5c-0.4-0.1-0.7-0.4-1.1-0.5c-0.2-0.1-0.4-0.1-0.6-0.1c-0.2,0-0.3,0.1-0.1,0.3
			c0.1,0.2,0.2,0.4,0.3,0.7c0.1,0.1,0.1,0.2,0.1,0.3c0,0.1,0,0.1,0,0.1c-0.4,0-0.6,0.4-0.9,0.6c-0.5-0.5-0.9-1-1.3-1.6
			c-2.4-3.4-4.3-7-6-10.8c-0.4-0.9-0.7-1.9-1-2.8c-0.5-1.6-1-3.2-1.3-4.8c-0.9-4.2-1.4-8.4-1.2-12.6c0-0.1,0-0.3,0-0.4
			c0-0.2,0.1-0.4,0.1-0.6c0.1-1.1,0.3-2.2,0.4-3.3c0-0.3,0.2-0.6,0.3-0.9c0.4-0.8,0.8-1.6,0.9-2.5c0-0.4,0.1-0.7,0.3-1.1
			c0.1-0.3,0.2-0.5,0.3-0.8c0.1-0.2,0.1-0.4,0-0.7c-0.1-0.2-0.1-0.4-0.2-0.6c-0.1-0.8,0-1.5,0.2-2.2c0.3-1.3,0.7-2.6,1.1-3.9
			C93,171.8,93.1,171.5,93.1,171.2z M134.6,141.9L134.6,141.9L134.6,141.9L134.6,141.9z"/>
		<path fill="#819991" d="M141.1,145.6c-0.2,0-0.3-0.1-0.5-0.1c-0.2-0.1-0.2-0.2-0.1-0.3c0.1-0.2,0.3-0.3,0.5-0.2
			c0.2,0.1,0.5,0.1,0.8,0.1c0.1,0,0.2,0,0.2-0.1c0.1-0.1-0.1-0.1-0.1-0.2c-0.1-0.2-0.1-0.3,0.1-0.4c0.1,0,0.3-0.1,0.4-0.1
			c0.1,0,0.3-0.1,0.4-0.2c0.2-0.2,0.4-0.3,0.7-0.3c0.3,0,0.6-0.3,0.8-0.5c0.1-0.1,0-0.3-0.1-0.4c-0.1-0.1-0.4-0.1-0.3-0.3
			c0-0.2,0.3-0.2,0.5-0.3c0.4-0.1,0.7-0.2,1.1,0c0.1,0,0.3,0,0.4,0c0.7,0,1.4,0.1,2.1,0.2c0.5,0.1,0.9,0.2,1.3,0.3
			c0.4,0.1,0.7,0.2,1.1,0.3c0.1,0,0.2,0.1,0.3,0.1c0.9,0,1.6,0.4,2.2,1.1c0.2,0.2,0.4,0.2,0.6,0.3c0.3,0.1,0.6,0.1,0.8,0.4
			c-0.2,0.2-0.4,0.1-0.6,0c-0.1,0-0.3,0-0.3,0.1c-0.1,0.4-0.4,0.5-0.8,0.4c0.1,0.3,0.4,0.5,0.6,0.8c-0.3,0.1-0.6,0-0.9,0.1
			c0,0.2,0.2,0.3,0.2,0.4c0.1,0.2,0,0.3-0.2,0.4c-0.3,0.1-0.6,0.1-0.7,0.4c-0.1,0.1-0.2,0.1-0.3,0.1c-0.1-0.1-0.2-0.2-0.4-0.3
			c-0.1-0.1-0.3-0.2-0.4-0.2c-0.3,0-0.4,0.2-0.3,0.5c0,0.1,0.1,0.2,0.2,0.3c0,0.3,0.1,0.6,0,0.8c-0.2,0.2-0.5,0.3-0.8,0.3
			c-0.9,0-1.9-0.1-2.8-0.1c-0.2,0-0.4,0-0.6-0.2c-0.1-0.1-0.3-0.1-0.4,0c-0.7,0.1-1.3,0.3-2,0.3c-0.4,0-0.8,0-1.1-0.1
			c-0.4-0.1-0.8-0.2-1.3-0.2c-0.1,0-0.2,0-0.3,0.1c-0.4,0.6-1,0.8-1.7,0.7c-0.3,0-0.5,0.1-0.8,0.2c-0.3,0.2-0.6,0.3-0.9,0.4
			c-0.2,0.1-0.4,0.2-0.6,0.3c-0.2,0.2-0.7,0.1-0.9-0.1c-0.1-0.1-0.1-0.2-0.1-0.3c0-0.1,0-0.2,0.1-0.3c0.1-0.3,0.1-0.3-0.2-0.5
			c-0.3-0.2-0.4-0.3-0.3-0.7c0.1-0.2,0.1-0.4,0.3-0.6c0.2-0.2,0.4-0.5,0.6-0.7c0.2-0.3,0.5-0.5,0.8-0.7c0.1-0.1,0.3-0.1,0.2-0.4
			c0-0.1,0.1-0.1,0.1-0.2c0.1-0.1,0.2-0.1,0.4-0.2c0.3-0.2,0.6-0.2,0.9-0.5c0.2-0.2,0.6-0.2,1-0.1
			C140.4,145.9,140.8,145.8,141.1,145.6z"/>
		<path fill="#819991" d="M155.9,165.5c-0.2,0-0.3,0.1-0.5-0.1c-0.1-0.2-0.3-0.3-0.6-0.3c-0.2,0-0.3-0.2-0.3-0.4
			c0.2-0.1,0.4-0.1,0.5-0.1c0.3-0.1,0.3-0.2,0.2-0.5c0-0.1-0.1-0.1-0.1-0.2c-0.1-0.1-0.1-0.3,0-0.4c0.1-0.1,0.2,0,0.3,0.1
			c0.2,0.1,0.5,0,0.8,0.2c0.1-0.3,0.1-0.6-0.1-0.9c-0.2-0.3-0.2-0.3-0.1-0.6c-0.3-0.1-0.6,0-0.9-0.1c0-0.1,0.1-0.2,0.2-0.2
			c0.2-0.1,0.2-0.3,0.1-0.4c-0.1-0.3-0.2-0.3-0.5-0.1c0,0-0.1,0.1-0.1,0c0-0.1,0.1-0.3,0.1-0.4c0-0.1,0-0.2-0.1-0.2
			c-0.3,0-0.3-0.1-0.2-0.3c0.1-0.2,0.1-0.3-0.1-0.4c-0.2-0.1-0.2-0.2-0.1-0.4c0.1-0.1,0.2-0.2,0.3-0.1c0.2,0.1,0.2-0.1,0.4-0.1
			c0.2,0.1,0.3-0.1,0.3-0.2c0-0.1,0.1-0.2,0.2-0.1c0.3,0.1,0.5,0.1,0.8,0.3c-0.1,0.2-0.2,0.2-0.3,0.2c-0.1,0.1-0.1,0.2,0,0.3
			c0.2,0.1,0.5,0.1,0.7,0.2c0.3,0.1,0.3,0.2,0.2,0.4c-0.1,0.1-0.1,0.2-0.3,0.3c-0.2,0.1-0.2,0.2-0.3,0.4c0,0.2,0,0.2,0.1,0.3
			c0.4,0.2,0.6,0.5,0.7,0.9c0,0.2,0,0.5,0.3,0.6c0.2,0.1,0.3,0.4,0.2,0.6c-0.1,0.2,0,0.2,0.1,0.3c0.1,0.1,0.2,0.2,0.3,0.3
			c0.1,0.2-0.1,0.2-0.1,0.4c0.1,0.1,0.2,0.1,0.3,0.1c0.1,0,0.3,0.1,0.4,0.2c0.3,0.3,0.3,0.7-0.1,0.9c-0.1,0.1-0.3,0.1-0.4,0.2
			c0.1,0.2,0.3,0.1,0.4,0.2c0.1,0,0.2,0.1,0.2,0.2c0,0.1-0.1,0.2-0.2,0.2c-0.3,0-0.5,0.1-0.8,0c-0.2-0.1-0.4-0.1-0.7-0.1
			c-0.3,0-0.6-0.1-0.9-0.2c-0.3-0.1-0.6-0.2-0.9,0.1c-0.1,0.1-0.1,0-0.2,0c-0.3-0.2-0.5-0.1-0.8,0c0,0-0.1,0.1-0.1,0.1
			c-0.1,0-0.1,0-0.2-0.1c0-0.1,0-0.1,0.1-0.1c0.1-0.1,0.2-0.1,0.3-0.2c0.2-0.1,0.4-0.2,0.6-0.3c0.2-0.1,0.3-0.2,0.5-0.1
			C155.8,165.8,155.9,165.8,155.9,165.5C156,165.6,156,165.5,155.9,165.5C156,165.5,156,165.5,155.9,165.5z"/>
		<path fill="#819991" d="M151.7,162.4c0.3-0.1,0.5-0.3,0.3-0.6c0.3,0,0.4,0.1,0.6,0.1c0.2,0,0.3,0,0.3-0.2c0.1-0.4,0.2-0.4,0.6-0.2
			c0.2,0.1,0.4,0.1,0.6,0.1c0.3,0,0.6,0.2,0.6,0.5c0,0.2-0.2,0.4-0.4,0.4c-0.1,0-0.2-0.1-0.2,0c-0.1,0.1,0,0.2,0.1,0.3
			c0.1,0.4-0.1,0.8-0.2,1.2c0,0.1-0.1,0.1-0.2,0.1c-0.5-0.1-0.9,0-1.4,0.1c-0.3,0.1-0.5,0-0.8,0c-0.2,0-0.2-0.2-0.3-0.3
			c0-0.2,0.1-0.2,0.2-0.3c0.1-0.1,0.2-0.1,0.3-0.1c0.1,0,0.3,0,0.4-0.1c-0.1-0.1-0.3-0.3-0.1-0.5c0.1,0,0-0.1-0.1-0.2
			C151.9,162.6,151.8,162.6,151.7,162.4z"/>
		<path fill="#819991" d="M148,151.8c0.1,0,0.3,0,0.4,0c0.1,0,0.1,0,0.2-0.1c0-0.1,0-0.1-0.1-0.2c-0.1-0.1-0.3-0.2-0.4-0.4
			c0.1-0.1,0.3-0.1,0.5-0.2c0.2-0.1,0.4,0.1,0.4,0.3c0,0.1,0,0.1,0,0.2c0,0.2,0,0.3,0.2,0.2c0.2-0.1,0.4,0.1,0.7,0.1
			c0.1-0.1-0.1-0.2,0-0.3c0.3,0,0.5,0.2,0.8,0.3c0.2,0.1,0.3,0.1,0.5,0c0.5-0.1,1.1,0.4,1,0.9c0,0.2-0.3,0.5-0.6,0.6
			c-0.4,0-0.8,0-1.2,0c-0.6,0-1.2,0-1.7-0.5c-0.1-0.1-0.2-0.1-0.3-0.2c-0.2-0.1-0.2-0.2-0.1-0.4c0.1-0.1,0.1-0.2,0-0.3
			C148.1,152,148,152,148,151.8z"/>
		<path fill="#819991" d="M97.6,174c0.1-0.3,0-0.5-0.1-0.7c0,0,0-0.1-0.1-0.1c-0.2,0-0.3-0.1-0.4-0.2c-0.3,0.2-0.3-0.1-0.3-0.3
			c-0.1-0.3-0.2-0.5-0.2-0.8c-0.1-0.4,0-0.4,0.3-0.4c0.2,0,0.3-0.1,0.3-0.3c0-0.2,0.1-0.3,0.1-0.5c0-0.1,0.1-0.1,0.2-0.1
			c0.1,0,0.1,0.1,0.1,0.1c0.1,0.4,0.3,0.8,0.4,1.1c0.1,0.2,0.1,0.4,0,0.6c-0.1,0.4-0.2,0.8-0.1,1.2C97.9,173.7,97.9,173.9,97.6,174z
			"/>
		<path fill="#819991" d="M97.3,169.9c-0.4-0.2-0.4-0.6-0.6-0.9c0-0.1,0-0.2,0.1-0.2c0.2-0.1,0.2-0.2,0.2-0.4
			c0.2-0.6,0.2-1.3,0.4-1.9c0.1-0.2,0.1-0.3,0.1-0.5c0-0.2,0-0.4,0.1-0.5c0.1-0.2,0.1-0.4-0.2-0.4c-0.1,0-0.1-0.1-0.1-0.1
			c0-0.1,0.1-0.2,0.2-0.2c0.2-0.1,0.3-0.1,0.4,0.1c0.1,0.2,0.1,0.4,0.1,0.6c-0.1,0.4-0.1,0.9-0.3,1.4c-0.2,0.7-0.3,1.5-0.3,2.2
			C97.6,169.2,97.5,169.6,97.3,169.9z"/>
		<path fill="#819991" d="M160.4,147.9c0,0.3,0.2,0.5,0.2,0.8c-0.2,0.1-0.3-0.1-0.3-0.2c-0.3-0.3-0.6-0.6-0.9-0.8
			c-0.4-0.3-0.6-0.7-0.9-1.1c0.4,0,0.8,0.1,1.1,0.1c0.3,0,0.6,0.3,0.8,0.4c0,0,0,0,0,0c0,0.5,0.5,0.5,0.7,0.8
			c0.1,0.1,0.2,0.1,0.2,0.3C160.9,148.2,160.8,147.9,160.4,147.9z"/>
		<path fill="#819991" d="M98.6,175.1c-0.1,0.1-0.1,0.2-0.3,0.2c-0.2,0-0.3-0.1-0.4-0.3c0-0.1,0-0.2-0.1-0.4c0-0.2,0-0.3,0.2-0.3
			c0.2,0,0.3,0,0.3,0.2C98.5,174.7,98.6,174.9,98.6,175.1z"/>
		<path fill="#91A5BE" d="M93.1,171.2c-0.1,0.3-0.1,0.5-0.2,0.8c-0.5,1.3-0.8,2.6-1.1,3.9c-0.2,0.7-0.3,1.5-0.2,2.2
			c0,0.2,0.1,0.4,0.2,0.6c0.1,0.2,0.1,0.4,0,0.7c-0.1,0.3-0.2,0.5-0.3,0.8c-0.2,0.3-0.3,0.7-0.3,1.1c0,0.9-0.4,1.7-0.9,2.5
			c-0.2,0.3-0.3,0.6-0.3,0.9c-0.1,1.1-0.3,2.2-0.4,3.3c0,0.2-0.1,0.4-0.1,0.6c0-1.7,0.2-3.4,0.4-5.1c0.3-2.2,0.8-4.4,1.3-6.6
			c0.5-1.8,1.1-3.5,1.8-5.3C93,171.6,93.1,171.4,93.1,171.2C93.1,171.2,93.1,171.2,93.1,171.2z"/>
		<path fill="#302A95" d="M166,233.6c0-0.1,0.1-0.1,0.1-0.1C166.2,233.6,166.1,233.6,166,233.6z"/>
		<path fill="#302A95" d="M152.7,239.3c0-0.1,0.1,0,0.1,0C152.8,239.3,152.8,239.3,152.7,239.3z"/>
		<path fill="#302A95" d="M152.5,239.3c0.1-0.1,0.1,0,0.2,0C152.7,239.3,152.6,239.3,152.5,239.3z"/>
		<path fill="#302A95" d="M165.9,233.7c0,0,0.1-0.1,0.1-0.1C166,233.6,166,233.6,165.9,233.7z"/>
		<polygon fill="#302A95" points="134.6,141.9 134.6,141.9 134.6,141.9 		"/>
		<path fill="#302A95" d="M135.3,144.5C135.3,144.5,135.3,144.5,135.3,144.5C135.3,144.5,135.3,144.5,135.3,144.5
			C135.3,144.5,135.3,144.5,135.3,144.5z"/>
		<path fill="#302A95" d="M155.9,165.5C156,165.5,156,165.5,155.9,165.5C156,165.5,156,165.6,155.9,165.5
			C155.9,165.6,155.9,165.5,155.9,165.5z"/>
	</g>
	<path fill="#4D6679" d="M119.5,164.9c-0.1-0.4-1.4,9.8,11.7,12.2C131.2,177.1,122.4,173.7,119.5,164.9z"/>
	<path fill="#4D6679" d="M119.8,165.4c0,0,6.9-4.8,10.7-0.8c3.8,4.1,0,12.2,0,12.2s5.2-7.7,0.9-13
		C127.1,158.5,119.8,165.4,119.8,165.4z"/>
	<path fill="#4D6679" d="M121.8,170.7c0,0,2.9-3.8,6.1-0.9c3.2,2.8-0.5,6.1-0.5,6.1S122.9,174.2,121.8,170.7z"/>
	<path fill="#4D6679" d="M137.5,153.2c0,0,7.9,0.9,4.9,11.7C142.4,164.9,143.1,156,137.5,153.2z"/>
	<path fill="#4D6679" d="M146.9,190.4c0,0,4.3,9.5,17.1,7.8C164,198.2,152.3,197.3,146.9,190.4z"/>
	<path fill="#4D6679" d="M147.4,190.6c0,0,6.9-6.9,13-3.1c6.1,3.8,2.6,10.9,2.6,10.9s4.7-8.8-2.6-12.5
		C153,182.1,147.4,190.6,147.4,190.6z"/>
	<path fill="#4D6679" d="M149.7,194c0,0,2.2-6,6.7-2.7c2.9,2.2-0.3,5.9-0.3,5.9L149.7,194z"/>
	<path fill="#4D6679" d="M130.6,200.4c0,0,0.9-7.7-3.8-8C126.8,192.4,126.7,199.3,130.6,200.4z"/>
	<path fill="#4D6679" d="M122.7,196.5c0,0,0.3-3.3-1.2-5.5c-1.5-2.2,0,5.3,0,5.3L122.7,196.5z"/>
	<path fill="#4D6679" d="M139.6,170.9c0,0-1.2,7.3-3,8.6c-1.8,1.3-13.3,5.3-14.5,7.2s-1.2,7.2-1.2,7.2s-1.7-6.3,1.7-8.8
		c3.4-2.5,11.9-5.2,13.1-6.4C136.9,177.4,139.6,170.9,139.6,170.9z"/>
	<path fill="#4D6679" d="M131.4,202.9c0,0,3.2,2.2,5.3-1.7c2.1-3.9-2.9-6.7-2.9-6.7s3.2,2.8,2.4,5.5
		C135.5,202.6,131.4,202.9,131.4,202.9z"/>
	<path fill="#4D6679" d="M154.4,215.6c0.3-0.3-8.7,13.1-33.4,7.2C121,222.8,142.8,225.7,154.4,215.6z"/>
	<path fill="#4D6679" d="M121.5,222.6c0,0-4.4-6.7-9.5-6.4C112,216.2,112.9,224.3,121.5,222.6z"/>
	<path fill="#4D6679" d="M107.3,204.5c0,0,2,9.7,5.6,12C112.9,216.5,108.1,214.5,107.3,204.5z"/>
	<path fill="#4D6679" d="M125,225.6c0,0-6.4,2.8-10.8,0.6C114.2,226.2,123.6,226.5,125,225.6z"/>
	<path fill="#4D6679" d="M161,210c0,0,2.9,7.3-2.3,12.7C158.7,222.6,166.9,216.7,161,210z"/>
	<path fill="#4D6679" d="M103.2,203.2c0,0,2.6-4.4,7-2.8C110.2,200.4,105.5,196.4,103.2,203.2z"/>
	<g>
		<path fill="#89A69C" d="M114.9,216.4c0,0-8,6.7-12,7.7c-4,1-9,3.7-11.4,6.4c-2.4,2.7-8.5,8.9-13.1,10.1c0,0-1.4,8.9,8.2,11
			c0,0,5.4-5.6,8.7-8s10.4-6.3,13.8-13.1s9-9.5,9-9.5S118.5,216.3,114.9,216.4z"/>
		<path fill="#B4734C" d="M108.8,221.6c0,0,3.7,0.4,3.4,3.9c0,0-2.1,2.2-4.2,6.3c-2.1,4-8.2,8-10.7,9.3c-2.5,1.3-10.6,9.8-10.6,9.8
			s-3.5-0.5-6-3.7c-2.5-3.1-1-6.1-1-6.1s4.8-2.6,8.6-6.3c3.8-3.7,6.8-7.1,11.4-8.7C104.3,224.4,107.9,223.1,108.8,221.6z"/>
		<path fill="#E4F1E7" d="M79.7,241.1c0,0,6.5,1.4,7.1,9.8C86.8,250.9,85.6,244.1,79.7,241.1z"/>
		<path fill="#E4F1E7" d="M114.3,218.4c0,0-7.4,5.7-10.1,7.2s-7.7,3.9-10.3,7.4c-2.6,3.5-8.9,8.5-8.9,8.5s7.6-5.1,10.4-8.5
			c1.8-2.2,5.9-5.4,9.8-7.2C109.2,224,114.3,218.4,114.3,218.4z"/>
		<path fill="#E4F1E7" d="M107.1,229c0,0,4.3-3.8,7.2-6.3C114.3,222.7,109.4,225.4,107.1,229z"/>
		<path fill="#E4F1E7" d="M115.4,217.3c0,0,2,0.4,2.1,3.3C117.5,220.6,116.7,218.4,115.4,217.3z"/>
		<path fill="#E4F1E7" d="M79.2,242c0,0,0,5.7,4.6,7.7C83.8,249.7,81.3,247.8,79.2,242z"/>
		<path fill="#E4F1E7" d="M88,249.3c0,0,5.9-6.7,11-9.1C98.9,240.2,93.4,241.5,88,249.3z"/>
		<path fill="#E4F1E7" d="M89.6,243.1c0,0,6.1-5.7,11.8-9.1C101.4,233.9,94,235.7,89.6,243.1z"/>
	</g>
	<path fill="#4D6679" d="M158.5,176.5c0,0,19.7-8.5,16.6,13C175.1,189.5,175.2,171,158.5,176.5z"/>
	<path fill="#EC675C" d="M67.1,139.1c0,0,32.4-47,77.8-15.4C144.9,123.7,107.5,101.5,67.1,139.1z"/>
	<path fill="#CC0006" d="M160,229.6l6.5,2.4c0,0,7,2.2,11-1.2c2.4-2.1,3.1-7.1,3.1-7.1l3.1-6.8c0,0-1.6-2.4-3.4,0
		c-1.8,2.4-2.6,3.9-2.6,3.9l-1.8-3.9c0,0-4.2-4.4-5-2.9s2.6,4.4,2.6,4.4l1.6,6l-5.7-2.9l-4.2-4.4c0,0-2.1,0.3-0.8,2.4
		c0,0-2.6-0.3-1.6,2.1s2.4,4,2.4,4l3.1,3.5l-3.4,0.3C165,229.5,161.6,226.1,160,229.6z"/>
	<path fill="#CC0006" d="M78.3,239.9c0,0,0.5,5.6,8.8,0.1l6-0.3c0,0,1.1,5.2,2.4,4.9s-0.5-6.8-0.5-6.8l-3.4-1.3l4.8-0.3l1.5,4.4
		c1,0,0-6.5,0-6.5l-5-1.3l7.3-0.7c0,0,0.5,5.4,1,5.4s1.3-3.9,0-7.8l-3.4-0.3c0,0,8.1-3.1,8.1-4.2c0-1-2.9-1.3-5.5,0.3
		s-9.4,3.7-9.4,3.7l-9.4,7.3c0,0-17.8-11.5-24-13.8c0,0,18-13.3,21.2-19.3l-9.4-7.6c0,0-24,20.6-23.2,28.2
		C46.9,231.6,78.3,239.9,78.3,239.9z"/>
</g>
<rect x="106.4" y="307.7" fill="#909090" width="23.8" height="163.7"/>
<rect x="9.5" y="294" fill="#A29090" width="217.5" height="14.9"/>
<rect x="34.2" y="294" fill="#585959" width="2.1" height="14.9"/>
<rect x="55.6" y="294" fill="#585959" width="2.1" height="14.9"/>
<rect x="77.1" y="294" fill="#585959" width="2.1" height="14.9"/>
<rect x="98.6" y="294" fill="#585959" width="2.1" height="14.9"/>
<rect x="120.1" y="294" fill="#585959" width="2.1" height="14.9"/>
<rect x="141.5" y="294" fill="#585959" width="2.1" height="14.9"/>
<rect x="163" y="294" fill="#585959" width="2.1" height="14.9"/>
<rect x="0" y="308.6" fill="#CAC2B7" width="236.6" height="3.9"/>
<rect x="28.6" y="305.3" fill="#585959" width="22.7" height="4.8"/>
<rect x="84.7" y="305.3" fill="#585959" width="22.7" height="4.8"/>
<rect x="140.8" y="305.3" fill="#585959" width="22.7" height="4.8"/>
</svg>
