<?xml version="1.0" encoding="utf-8"?>
<!-- Generator: Adobe Illustrator 18.1.1, SVG Export Plug-In . SVG Version: 6.00 Build 0)  -->
<svg version="1.1" id="Layer_1" xmlns="http://www.w3.org/2000/svg" xmlns:xlink="http://www.w3.org/1999/xlink" x="0px" y="0px"
	 viewBox="0 0 124 207.6" enable-background="new 0 0 124 207.6" xml:space="preserve">
<g>
	
		<rect x="70.5" y="95" transform="matrix(0.864 0.5036 -0.5036 0.864 62.2173 -25.5132)" fill="#E6E7E8" width="15.6" height="14.9"/>
	<path fill="#231F20" d="M22.9,32.2C21.4,33,19.3,33,17.8,32c-1.5-1-2.5-2.8-2.3-4.6c0.8,1.1,2.4,1.7,3.8,1.4
		c1.4-0.3,2.5-1.5,2.8-2.9c-1.6-0.6-2.2-2.5-2.4-4.1C18.7,16,20,11.2,23.5,6.5c1.4-1.9,3.4-3.6,5.7-3.9C33,2,39.7,3.2,40.4,7
		c1.1-3,2.2-4,5.4-3.8s5.2,3,6.9,5.8s1.5,5.2,0.9,8.3c-0.4,1.9-1,3.7-2,5.4c-0.6,1-1.4,2.1-1.7,3.2c-0.3,1.2-0.1,2.6,0.9,3.3
		c0.4,0.3,1,0.4,1.5,0.4c1.4-0.1,2.6-1.3,2.7-2.7c-0.2,1.3-0.3,2.7-1.1,3.8c-0.8,1.1-2.3,1.8-3.5,1.2c0,1.1,1.3,1.6,2.4,1.8
		c0.7,0.1,1.5,0.3,2.1-0.1c0.6-0.3,0.9-1.4,0.3-1.8c0.3,1.9-0.5,3.9-1.9,5.3c-1.3,1.4-3.2,2.2-5,2.6c-1,0.2-2,0.3-3,0
		c-2.8-0.7-4.6-3.9-7.5-4.3c-0.5-0.1-1.1,0-1.5,0.4C36,36.3,36,37,35.9,37.6c-0.1,1-0.7,2-1.5,2.5c-0.8,0.5-1.7,0.7-2.6,0.9
		c-3.6,0.8-7.5,1.5-10.7-0.3c-2.6-1.4-4.2-4.4-3.9-7.4c-0.2,1.4,1.7,2.5,3.1,2C21.6,34.9,22.4,33.5,22.9,32.2z"/>
	<path fill="#F9BD91" d="M43.3,44.9l1.8,0.7C45.1,45.5,42,47.9,43.3,44.9z"/>
	<path fill="#BE1E2D" d="M28.9,201.4l-4.4-0.3c0,0-2,5.4,3.6,6.1l7.4,0.4c0,0,1.8-3.4-2.5-3.9C33,203.7,29.3,202.9,28.9,201.4z"/>
	<polygon fill="#F9BD91" points="24.6,201.1 28.9,201.4 35.8,162.1 25.2,159.3 	"/>
	<polyline fill="#F9BD91" points="35.8,162.1 39.3,144.1 27.5,129.9 25.2,159.3 	"/>
	<path fill="#BE1E2D" d="M50.9,201.5h-4.4c0,0-1.7,5.5,4,5.8h7.4c0,0,1.6-3.5-2.8-3.7C55.1,203.6,51.3,202.9,50.9,201.5z"/>
	<path fill="#F9BD91" d="M47.5,10.8v25.7h-3.9V45c0,0-4.4,8.6-15.1,0V27.4c0,0-3.2-0.6-3.2-4.4s3.7-1.9,3.7-1.9V10.8H47.5z"/>
	<path fill="none" d="M26.3,20.4C26.3,20.4,26.3,20.5,26.3,20.4"/>
	<path fill="#F9BD91" d="M16.4,47.3l8.5,61.6l21.9-0.3l2.4-53.5C49.3,55.2,44.9,36.5,16.4,47.3z"/>
	<polygon fill="#F9BD91" points="24.9,109 20.6,122.1 44.4,165.5 46.5,201.5 50.9,201.5 54.2,165.8 46.7,123 48.3,109 	"/>
	<path fill="#F9BD91" d="M3.3,115.5c-1.7,12.9,3.9,13,5.8,12.4c1.9-0.6,0.4-7.6,0.4-7.6s0.4,3,1.8,2.5c1.5-0.5,1.2-4,1.2-4
		s0-5.8-3.9-6C4.7,112.5,3.3,115.5,3.3,115.5z"/>
	<g>
		<polygon fill-rule="evenodd" clip-rule="evenodd" points="30.6,70 34.7,66.1 37.4,65.5 39.9,66 42.8,65.5 46.1,66.7 48.4,68.7 
			49.3,69.6 47.2,72.6 45,75.8 44,78.7 43.2,80.3 41.6,81.9 40.8,82.3 40.2,82.1 34.9,79.5 30.6,70 		"/>
		<path fill-rule="evenodd" clip-rule="evenodd" fill="#EB2D2E" d="M40.4,63.8c-1-3.7-5.7-0.8-6.5,1.4c-0.9,2.6-3.9,4.5-3.9,4.5
			c-1.3,0.8,3,2.2,1.1,4.8c0,0-2.6,4.3-1,8.1c3.1,7.4,11,1.7,12-3.6c0,0,1.2-5.3,4.8-8.4c1-0.9-1-0.5-1.4-1.4c-0.7,0-1.4,1-2.1,0.3
			c-1.3,1.4-2.6,1.2-4.3,1.2c0,0-3.3,2-4.5,8.1c-0.7-2.3,1.8-6.6,3.3-8.2c-1.3,0-1.9-0.9-1.9-0.9L32.5,72c-2.1-2.8-0.9-2.2,1.8-4.7
			c2.1-2.4,4.2,1,6.7-0.5c3.5-1.9,3.7,2.8,6.5,2.8c0.7,0,1,0.1,1,0.1c-1.6,1.8-3.4,3.6-4.4,5.9c-1,2.4-1,5-3.3,6.6
			c3-0.1,4.7-3.6,5.3-6c0.7-2.8,4.3-6.4,4.3-6.4s0.7-0.7-0.1-0.8c0,0-2.5-0.6-3.6-4.6C46,61.1,41.9,61.5,40.4,63.8L40.4,63.8z"/>
		<path fill-rule="evenodd" clip-rule="evenodd" fill="#FFFFFF" d="M36,68.2c0,0-0.6,0.5-1.1,0.2c-1.7-0.8,1.7-2.7,3.5-1
			c1.8,1.4,3.6-1.9,5.5-0.2c1.7,1.5,0.5,2.8-0.2,2c0,0-0.5-0.6-0.5-0.7c0-0.1-0.7,0.8-1.7,0.9c-1.1,0.2-1.7-0.6-1.7-0.6
			s-0.2-0.5-0.6-0.1C38.2,69.7,36.3,69.5,36,68.2L36,68.2z"/>
		<path fill-rule="evenodd" clip-rule="evenodd" fill="#FFFFFF" d="M37.3,64.1c0,0-1.5,0.9-1-0.5c0.5-1.4,1.7-1.2,1.7-1.2
			s1.1,0,1.3,0.9c0.2,0.9-0.5,1.4-0.5,1.4C38.1,65.3,38,63.6,37.3,64.1L37.3,64.1z"/>
		<path fill-rule="evenodd" clip-rule="evenodd" fill="#FFFFFF" d="M42.9,64.3c0,0-1.3,0.8-1-0.5c0.2-1.1,2.5-1.5,3-0.5
			c0,0,0.3,0.5,0.1,0.9c-0.5,1.1-1.1,0.5-1.1,0.5C43.5,64.4,43.4,63.8,42.9,64.3L42.9,64.3z"/>
		<path fill-rule="evenodd" clip-rule="evenodd" fill="#FFFFFF" d="M35.9,71.6c0,0-4.7,3.5-4.4,7.9c0.1,1.5,1.3,1.2,1.5,0
			c0.1-1.1,0.3-4.7,3.1-7.2C36.5,72,36.7,71,35.9,71.6L35.9,71.6z"/>
		<path fill-rule="evenodd" clip-rule="evenodd" fill="#FFFFFF" d="M43,71.5c-1.5,1.1-2.8,3.7-3.3,5.6c-0.8,3.1-1.5,3.4-1.5,3.4
			c-1.4,2,1.3,2.9,1.9,0.7c0.9-3.2,1.4-6.1,3.4-8.8C44.5,72.1,44,70.8,43,71.5L43,71.5z"/>
	</g>
	<path fill="#176BA3" d="M47.3,107.5l0.2,14l6.8,40.6c0,0-10.5,9-33.7,3.4v-43.3l4.2-14.6H47.3z"/>
	<path fill="#1C75BC" d="M21.9,117.6l17.4-9.1l8.3,12l3.7-65.2c0,0-0.7-9.7-7.8-11.2L39.8,57L28.4,44.2c0,0-10.4,0.2-15.5,4.6
		L21.9,117.6z"/>
	<circle fill="#FFFFFF" cx="28.1" cy="26.1" r="0.6"/>
	<path fill="#231F20" d="M28.9,21.1c0,0,10-0.9,12-9.4c0,0,2.4,7.6,9.7,6.7l-1.8-10L29.4,9C29.4,9,24.4,18.1,28.9,21.1z"/>
	<polygon fill="#1C75BC" points="13,48.8 3,114.8 10,114.8 19.1,72.9 	"/>
	<polygon fill="#1C75BC" points="73.2,87.8 47.9,86.2 47.3,96.8 69.3,94.1 	"/>
	<path fill="#F9BD91" d="M74.1,87.9c10.9,7,7.4,11.3,5.7,12.4c-1.7,1.1-6-4.6-6-4.6s2,2.2,0.7,3c-1.3,0.8-3.8-1.7-3.8-1.7
		s-4.4-3.7-2.1-6.9S74.1,87.9,74.1,87.9z"/>
	<rect x="66.6" y="112.7" fill="#D1D3D4" width="51.2" height="49.3"/>
	<rect x="71.5" y="120.4" fill="#307289" width="42.4" height="37.3"/>
	<g>
		<defs>
			<rect id="SVGID_1_" x="71.5" y="120.4" width="42.4" height="37.3"/>
		</defs>
		<clipPath id="SVGID_2_">
			<use xlink:href="#SVGID_1_"  overflow="visible"/>
		</clipPath>
		<g clip-path="url(#SVGID_2_)">
			
				<rect x="72.9" y="142" transform="matrix(0.864 0.5036 -0.5036 0.864 84.7526 -19.4504)" fill="#E6E7E8" width="10.9" height="10.4"/>
			
				<rect x="83.6" y="140.6" transform="matrix(0.6704 0.742 -0.742 0.6704 137.5147 -17.9744)" fill="#B9B9BA" width="10.9" height="10.4"/>
			
				<rect x="98.3" y="142.5" transform="matrix(-0.864 -0.5036 0.5036 -0.864 119.087 327.4536)" fill="#E6E7E8" width="10.9" height="10.4"/>
			
				<rect x="87.7" y="143.8" transform="matrix(-0.6704 -0.742 0.742 -0.6704 45.0912 317.9553)" fill="#B9B9BA" width="10.9" height="10.4"/>
			
				<rect x="104.1" y="146.9" transform="matrix(0.864 0.5036 -0.5036 0.864 91.4964 -34.4865)" fill="#E6E7E8" width="10.9" height="10.4"/>
			
				<rect x="81.9" y="148.1" transform="matrix(0.6704 0.742 -0.742 0.6704 142.5253 -14.2521)" fill="#B9B9BA" width="10.9" height="10.4"/>
			
				<rect x="89.4" y="148.4" transform="matrix(-0.864 -0.5036 0.5036 -0.864 99.3332 334.0501)" fill="#E6E7E8" width="10.9" height="10.4"/>
			
				<rect x="71.4" y="146.9" transform="matrix(-0.6704 -0.742 0.742 -0.6704 15.53 311.0931)" fill="#B9B9BA" width="10.9" height="10.4"/>
			
				<rect x="76.1" y="149.2" transform="matrix(-0.864 -0.5036 0.5036 -0.864 74.2075 328.7313)" fill="#E6E7E8" width="10.9" height="10.4"/>
			
				<rect x="96.8" y="149.2" transform="matrix(-0.6704 -0.742 0.742 -0.6704 56.3276 333.703)" fill="#B9B9BA" width="10.9" height="10.4"/>
		</g>
	</g>
	<rect x="63.3" y="162.1" fill="#3C2415" width="57.7" height="5.3"/>
	<rect x="67.2" y="167.3" fill="#603913" width="5.2" height="38.6"/>
	<rect x="113" y="167.3" fill="#603913" width="5.2" height="38.6"/>
</g>
</svg>
