<?xml version="1.0" encoding="utf-8"?>
<!-- Generator: Adobe Illustrator 18.1.1, SVG Export Plug-In . SVG Version: 6.00 Build 0)  -->
<svg version="1.1" id="Layer_1" xmlns="http://www.w3.org/2000/svg" xmlns:xlink="http://www.w3.org/1999/xlink" x="0px" y="0px"
	 viewBox="0 0 800 550" enable-background="new 0 0 800 550" xml:space="preserve">
<g>
	<rect x="540.1" y="319.3" fill="#B3B3B3" width="12.5" height="62.8"/>
	
		<rect x="474" y="300.8" transform="matrix(0.4837 -0.8752 0.8752 0.4837 -65.1986 605.0449)" fill="#B3B3B3" width="12.5" height="113.9"/>
	<path fill="#998675" d="M418.6,229.1c0,0-3.4-14.8,12.8-10.9l11.6,39l-36.5-4.6L418.6,229.1z"/>
	<path fill="#FBB03B" d="M91.9,292.5l86.3-18.2l238.3-42.1l9.3,17.5l38.4,5.2c12.2,1.7,24.2-5,28.5-16.6c0.9-2.4,1.5-5.1,1.6-7.8
		l74-7.6l0-0.1c0,0,61.2-5.1,82.8-4.4c26.3,0.9,50.3,13.1,54.7,38.9c3.5,20.3-48.9,41.4-80.6,53.9l-65.8,16
		c-94.9,19.3-167.9,14-207.2,8.1c-40.4-10.8-100.6-21.9-176-20.7l-84.8-9C91.6,296.1,91.6,306,91.9,292.5z"/>
	<path fill="#F7931E" d="M426.6,251.2L91.8,301.1l0.2-8.7l324.6-60.3C416.6,232.2,415.5,241.7,426.6,251.2z"/>
	<path fill="#F7931E" d="M700.4,242l-200.3,29.3L458.8,259c0,0,36.2,0.5,35.5-28.5c0,0,95.5-12.2,123-12.2
		C644.9,218.4,682.9,213.2,700.4,242z"/>
	<rect x="515.9" y="168.5" fill="#F15A24" width="5.5" height="205.5"/>
	<rect x="515.7" y="340.8" fill="#ED1C24" width="5.8" height="19.9"/>
	<rect x="373.8" y="168.5" fill="#F15A24" width="5.5" height="205.5"/>
	<rect x="373.8" y="340.3" fill="#ED1C24" width="5.5" height="19.9"/>
	<polygon fill="#534741" points="485,231.7 495.1,237.4 493.6,240.9 485,236.3 	"/>
	<circle fill="#2D2C31" cx="546.3" cy="394.8" r="21.3"/>
	<circle fill="#B3B3B3" cx="546.3" cy="394.8" r="13.2"/>
	<path fill="#534741" d="M712.3,238.9c0,0-16.7-12.9-18.9-21.1c-2.2-8.2-18.3-81.7-13.6-83.9s35.5,73.9,36.2,78.7
		C716.8,217.5,717.7,236,712.3,238.9z"/>
	<path fill="#F15A24" d="M709.5,255.7l18-6.9c1.4-0.5,2.1-2.1,1.6-3.5l-6.7-17.4c-0.5-1.4-2.1-2.1-3.5-1.6l-18,6.9
		c-1.4,0.5-2.1,2.1-1.6,3.5l6.7,17.4C706.5,255.5,708.1,256.3,709.5,255.7z"/>
	<path fill="#F7931E" d="M702.7,268.5l-15.1-38.9c0,0,15.7-5.2,20.3,5.7s9.3,17.8,3.9,22.7S702.7,268.5,702.7,268.5z"/>
	<path fill="#534741" d="M718.7,249.2c0,0,16.8,12.8,19,21c2.2,8.2,18.8,81.6,14,83.8s-35.9-73.7-36.7-78.5
		C714.3,270.6,713.3,252,718.7,249.2z"/>
	<rect x="532.3" y="168.5" fill="#F15A24" width="5.5" height="205.5"/>
	<rect x="358.7" y="168.5" fill="#F15A24" width="5.5" height="205.5"/>
	<path fill="#736357" d="M497.4,230.2c0,0,1.9,20.5-17.6,26.5c-19.6,6.1-48.5-1.6-53.1-5.5c-9.5-8.2-10-19-10-19v0
		c7.3,11.4,19.3,18.9,32.8,20.3c7,0.7,14.5,1.4,20.9,1.7c19,0.8,24.2-23.6,24.2-23.6L497.4,230.2z"/>
	<path fill="#534741" d="M418.6,229.1l7.2,13.5c0,0-4.6-3.5-9.2-10.4L418.6,229.1z"/>
	<path fill="#534741" d="M486.8,226c0,0,0.1,1.6,0.1,3c0,9.1-0.9,16-2,16c-1.1,0-2-6.7-2-15.8c0-1.4,0-3.2,0.1-3.2H486.8z"/>
	<rect x="532.3" y="181.9" fill="#ED1C24" width="5.5" height="5.4"/>
	<rect x="532.3" y="354.8" fill="#ED1C24" width="5.5" height="5.4"/>
	<rect x="515.7" y="181.9" fill="#ED1C24" width="5.8" height="19.9"/>
	<rect x="373.8" y="181.9" fill="#ED1C24" width="5.5" height="19.9"/>
	<rect x="359.1" y="181.9" fill="#ED1C24" width="5.5" height="5.4"/>
	<rect x="359.1" y="354.8" fill="#ED1C24" width="5.5" height="5.4"/>
	<g>
		<path fill="#F15A24" d="M354.7,164h185.9c22.3,0,43.4,5.1,57.7,13.8l0.2,0.2H296.8C310.9,169,332,164,354.7,164z"/>
		<path fill="#ED1C24" d="M290.1,183c2-2,4.2-3,6.6-5h301.7l7.8,5H290.1z"/>
	</g>
	<path fill="#F15A24" d="M288.2,361h320.1l-8.1,4.3c-5.5,3.3-11.9,6.7-19,7.7H314.2C303.7,370,294.7,367,288.2,361z"/>
	<path fill="#ED1C24" d="M353.5,380c-14.1,0-27.6-2-39.3-7h266.9c-11.7,5-25.3,7-39.4,7H353.5z"/>
	<path fill="#F15A24" d="M157.2,314.5L47,270.1c-3.2-1.3-5.5,3.2-2.6,5c15.8,9.9,34.6,21.2,43.8,25.8c17.8,8.7,37.5,20.7,54.7,26.7
		C160.2,333.6,157.2,314.5,157.2,314.5z"/>
</g>
</svg>
