<?xml version="1.0" encoding="utf-8"?>
<!-- Generator: Adobe Illustrator 18.1.1, SVG Export Plug-In . SVG Version: 6.00 Build 0)  -->
<svg version="1.1" id="Layer_1" xmlns="http://www.w3.org/2000/svg" xmlns:xlink="http://www.w3.org/1999/xlink" x="0px" y="0px"
	 viewBox="609 0 191 550" enable-background="new 609 0 191 550" xml:space="preserve">
<g>
	<path fill="#AF0044" d="M681.6,19.3l-2.7-7.3c0,0,23.6-9.6,55.4,0.6l-1.7,6.7C732.7,19.3,691.1,26.6,681.6,19.3z"/>
	<path fill="#590029" d="M636.5,513.5h141.1L773.9,130c0,0-1.6-22.4-27.4-27.9h-82.6c0,0-27.3,1.1-27.4,33.9c0,0.4,0,0.7,0,1.1
		c0.5,33.9,0,378,0,378"/>
	<path fill="#011029" d="M737.3,502c0,0-0.7-30.9,0-48.6c0.7-17.6,0.2-39.4-0.2-58.3s-0.3-50.9,0.5-61.5c0.8-10.7,2-206,2-206
		s-1.2-9.8-18.9-14.4c-17.7-4.6-53.3-4.5-53.7,17.6c0,0,0,123.9,0,129.2s4.9,123.9,5.7,132.1c0.8,8.2,11.5,11.1,11.5,35.7
		s-3.7,47.6-13.1,48.8c-9.4,1.2-29.3,4.2-29.3,4.2s5,20.4,8.3,23.5S731.3,515.3,737.3,502z"/>
	<path fill="#740141" d="M636.5,509.7c0,0,1.1,24.1,18.1,27.4c0,0,68.9,15.3,111.6-7.1c0,0,11.5-4.4,11.5-25.2v-23.5
		c0,0-5.5,24.6-67.3,21.3c-61.8-3.3-67.3-13.1-73.9-35.6V509.7L636.5,509.7z"/>
	<path fill="#EF346F" d="M738.4,73.9c0,0,12.9-9.6,12.9-27.5S738.4,20,738.4,20s-27.3-9-64.6,1.2c0,0-12.3,7.6-12.3,25
		S673,72.3,673,72.3L738.4,73.9z"/>
	<path fill="#770441" d="M663.9,102.1h82.6c0,0-10.9-12.6-8.1-28.2c0,0-22-13.7-65.4-1.6C673,72.3,677.6,94.8,663.9,102.1z"/>
	<path fill="#FB3C73" d="M727.8,502.7v6.7c0,0,1.4-0.3,1.7,1.8c0.2,2.2-0.6,0.4-1.7,5.3c-1,4.9,2.9,2.5,0,7.4s-2,8-2,8l-3.1,9.4
		c0,0,39.8-4.2,49.3-16.3c0,0,4.3-2.9,5.7-15.2v-28.7C777.7,481.2,773.5,500.7,727.8,502.7z"/>
	<path fill="#EF346F" d="M647.8,520.1c-1.3,1.2,0.2,3.3-0.1,5c-0.1,0.6-0.5,1.1-0.4,1.8c0,0.5,0.3,0.9,0.6,1.3c1.3,2,2.7,4.1,4,6.1
		c-3-0.5-4.8-3.5-6.1-6.3c-1.1-2.4-2.1-4.8-3-7.3c-1.2-0.8-2.1-1.9-2.5-3.3c-0.1-0.3-0.2-0.7,0-0.9c0.2-0.3,0.7-0.2,0.7,0.1
		c-0.4-1.7-1.1-3.4-1.9-5c0.2-2,0.3-4,0.5-6c0.3-0.1,0.6-0.1,1-0.2c-0.7-8.1-1.2-16.2-1.5-24.3c1.4,2.2,2.6,4.5,3.8,6.8
		c0.2,0.4,0.4,0.8,0.3,1.2c-0.1,0.3-0.4,0.6-0.5,0.9c-0.4,0.9,0.3,1.8,0.4,2.8c0.1,0.8-0.2,1.6-0.3,2.4c-0.1,1.1,0.3,2.2,0.6,3.2
		c0.4,1.5,0.6,3,0.7,4.6c0.1,1-0.1,2.3-1,2.8c0.9,1.2,1.7,2.5,2.3,3.9c-0.9-0.1-1.7-0.1-2.6-0.2c0.5,1.1,1.1,2.2,1.8,3.2
		c-0.5,0-1.1,0.1-1.6,0.1C643.6,515.7,645.4,518.3,647.8,520.1z"/>
	<path fill="#42023F" d="M699.5,535.7c3.1,0.8,6.2,1.7,9.3,1.8c2,0.1,4-0.2,6-0.4c4.3-0.5,8.6-1,12.9-1.6c4.3-0.5,8.7-1.1,12.9-2.1
		c2.9-0.8,5.8-1.8,8.5-3.2c-18.5,2-37.2-2.2-55.7-0.6c-2.1,0.2-4.7,1.1-4.6,3.1C692.4,533.7,696,534.7,699.5,535.7z"/>
	<path fill="#42023F" d="M728.4,517.3c-1.1,0.1-2.2,0.2-3.3,0.3c-1.9,0.1-4,0.2-5.2,1.5c8.1,0.4,16.3,0,24.3-1.3
		C739,517.3,733.7,516.9,728.4,517.3z"/>
	<path fill="#42023F" d="M771.9,513.4c0.4-0.4,0.7-1.2,0.2-1.5c-5.9,3.6-12.8,5.3-19.6,6.9c1.7,0.2,3.4,0,5.1-0.2
		c2.6-0.3,5.2-0.6,7.6-1.4C767.8,516.5,770.2,515.3,771.9,513.4z"/>
	<path fill="#AF0044" d="M640.9,479.1l-1.3-351c0,0,0.4-16.4,22-23.4H679c0,0-31.8-0.6-37.1,25.8l3.6,350.7
		C645.5,481.2,642.8,483.8,640.9,479.1z"/>
	<path fill="#D00031" d="M768.8,130c0,0-4.1-13.4-10.7-13.4h-9.8c0,0-1.2,133.3,0,158c1.2,24.6,3.6,102.6,4.3,119
		c0.6,16.4,3.8,41.4,5.7,53.3s1.7,49.8,1.7,49.8s10.7-2.6,12.4-10.8c1.7-8.2-2.9-79.2-2.7-80.8C770,403.4,768.8,130,768.8,130z"/>
	<path fill="#42023F" d="M777.7,481.2L773.9,130h-5.1c0,0,1.6,19.8,0,28.4c-1.6,8.6-4.5,70.2-4.5,84.5c0,14.3,1.6,89.4,2.5,107.5
		c0.8,18.1,1.6,28.7,0.4,31.2c-1.2,2.5-5.3,7-5.3,10.7s0.8,16,2.5,18.9c1.6,2.9,2.9,13.5,2.9,22.6s0.4,21.3,0.4,26.7
		c0,5.3-2.9,18.7-1.2,20.6c1.6,1.9,0.6,12.1,0.6,12.1S777.7,486.8,777.7,481.2z"/>
	<path fill="#FAF5E8" d="M698.2,75.1c-0.5-1.6-1-3.2-1.5-4.8c-0.2-0.6-0.4-1.2-0.8-1.7c-1-1.1-2.6-1-4-0.8c-3.1,0.5-6.1,1.1-9.1,2
		c-0.4,0.1-0.8,0.3-1.1,0.6c-0.4,0.5-0.3,1.2-0.2,1.8c0.7,4.2-0.8,8.5-2.5,12.4c-1.8,3.9-4,7.6-5.1,11.8c1.3,0.6,2.8,0,4-0.7
		c1.2-0.7,2.4-1.6,3.8-1.7c1.4-0.1,3,1,2.7,2.4c-0.2,1.2-1.9,2.1-1.6,3.4c3.5,0.5,7.1,0.3,10.5-0.6c0.6-0.2,1.2-0.3,1.7-0.7
		c2.2-1.6,0.9-5.3,2.4-7.7c0.4-0.6,1-1.1,1.3-1.8c1.5-2.7-1.6-6.1-0.8-9c0.2-0.7,0.6-1.4,0.8-2.2C698.7,76.8,698.4,75.9,698.2,75.1z
		"/>
	<path fill="#FAF5E8" d="M724.7,70.8c0.2,4.1-1.4,8.4-0.3,12.4c0.3,1,0.7,1.9,0.8,2.9c0.1,1.2-0.1,2.4,0.1,3.6
		c0.2,0.9,0.6,1.6,1,2.4c1.6,2.9,3.3,5.8,5.9,7.9c-1.7-4.1-4-8-5.3-12.3s-1.2-9.3,1.7-12.7c0.2-0.2,0.4-0.4,0.6-0.5
		c0.8-0.3,1.6,0.4,2.1,1.1c1.4,2,2.3,4.3,2.6,6.7c0.2,1.5,0.2,3,0.4,4.5c0.8,4.8,4,8.7,7,12.4c-3.1-5.3-4.5-11.6-4.1-17.7
		c0.1-1.7,0.4-3.4,0-5.1c-1-3.8-5.2-5.6-9.1-6.5c-0.5-0.1-1-0.2-1.5-0.2c-1.3,0.2-2.3,1.5-2.4,2.8C724.1,73.9,724.6,69.5,724.7,70.8
		z"/>
	<path fill="#FB3C73" d="M671.3,99c0.6-2.8,1.2-5.5,2.4-8.1c0.7-1.4,1.5-2.6,2.1-4c0.8-1.8,1.2-3.8,1.6-5.8c0.6-3.1,1.3-6.2,1.1-9.4
		c0-0.2-0.1-0.5-0.2-0.6c-0.2-0.1-0.3-0.1-0.5,0c-1.5,0.3-2.9,0.7-4.4,1c0.5,5.5,0.9,11.1-0.2,16.5c-1.1,5.4-3.8,10.7-8.4,13.8
		c2.5-0.4,5-0.5,7.4-0.5c0.9,0,1.7,0.1,2.6-0.1c2.1-0.5,3.7-2.4,3.8-4.5C676.4,98.5,673.8,99,671.3,99z"/>
	<path fill="#FAF5E8" d="M674.6,57c1.1,0,2.2-0.5,3-1.3c0.1,1.3,0.6,2.6,1.2,3.7c0.5-1,0.8-2.1,0.7-3.3c1.8,0,3.6,0,5.3,0
		c-1.5-1.5-1.8-3.8-1.8-6c-0.3-6.9-0.2-14,2.8-20.2c-3.5,0.1-6.9,0.2-10.4,0.4c-0.3,0-0.5,0-0.7,0.2c-0.2,0.1-0.2,0.3-0.3,0.5
		c-2.5,7-3.5,14.6-2.8,22.1c0.1,1.5,0.5,3.2,1.9,3.9C674.9,57.6,673,57,674.6,57z"/>
	<path fill="#FAF5E8" d="M731.9,25.8c0-0.7,0-1.4-0.2-2.1c-0.3-1-0.9-2.1-1.9-2.3c-1.3-0.3-2.4,1-2.5,2.3c0,1.3,0.8,2.4,1.8,3.3
		c0.6,0.5,1.4,0.9,2,0.5C731.7,27.1,731.9,26.4,731.9,25.8z"/>
	<path fill="#FAF5E8" d="M729.1,30c-1.6,0.7-1.4,3-1,4.7c2.1,9.9,2.1,20.5-2.2,29.7c2.2-1.3,3.5-3.6,4.5-5.9
		c2.8-6.3,3.9-13.3,4-20.2c0-2.7-0.3-5.8-2.4-7.6C731.1,29.9,730,29.5,729.1,30z"/>
	<path fill="#FAF5E8" d="M736,72.2c0.3,0,0.7-0.1,1,0.1c0.4,0.1,0.6,0.6,1,0.5c0.2,0,0.3-0.2,0.4-0.3c0.5-0.5,0.9-1.1,1.4-1.6
		c0.5-0.6,1.1-1.6,0.5-2.2c-0.3-0.4-0.9-0.4-1.4-0.3c-1.3,0.1-2.5,0.1-3.8,0.2c-0.3,0-0.6,0-0.8,0.3c-0.3,0.3-0.2,0.8-0.1,1.2
		C734.5,70.9,735,72.1,736,72.2z"/>
	<path fill="none" d="M743.5,29.8c-1.5-2.2-3.3-4.6-6-4.8c6.5,10.9,6.5,25.3-0.1,36.2c-0.6,1-1.3,2.3-0.7,3.4c1.7,0.3,3.3,1,4.6,2
		c3.5-2.7,4.9-7.3,6-11.6c1.2-4.4,2.5-9.1,1.7-13.6C748.3,37.1,745.9,33.4,743.5,29.8z"/>
	<path fill="#470312" d="M699.6,41.3c-1.9-1.4-2.9-3.8-2.5-6.2c0.3-1.6,1.1-3,1.3-4.6c0.2-1.6-0.7-3.5-2.2-3.6
		c-1.3-0.1-2.3,1.2-2.8,2.5s-0.6,2.6-1.3,3.7c-0.7,1-1.8,1.7-2.3,2.7c-0.8,1.4-0.5,3.1-0.5,4.7c-0.1,3.3-1.8,6.3-1.7,9.6
		c0.2,3.3,2.3,6.2,4.4,8.8c0.2-2.1,1.1-4.2,2.4-5.9c0.2-0.3,0.5-0.7,0.9-0.7c0.7-0.1,1.1,0.7,1.3,1.4c0.7,2.3,1.5,4.5,2.2,6.8
		c1.8,0,2.7-1.9,3.4-3.6c0.7-1.7,2-3.5,3.7-3c0.4,0.1,0.8,0.4,1.3,0.4c0.7,0,1.1-0.8,1.2-1.5c0.1-0.7,0-1.4,0.3-2.1
		c0.5-1.4,2.6-1.7,3.9-1s1.9,2.3,2.3,3.8s0.4,3,1,4.4c1.7,1,3.8-0.6,4.5-2.3c0.9-2.2,0.6-4.8-0.8-6.7c-1-1.4-2.7-2.6-3.1-4.3
		c-0.2-1.1,0.1-2.2,0.4-3.3c1.2-5.5-0.3-11.6-3.9-15.9c-0.9,2.3,0.7,4.9,0.1,7.3c-0.6,2.1-2.7,3.4-4.1,5.1c-0.6,0.7-1,1.5-1.7,2.1
		c-1.6,1.4-4.1,1.5-6.1,0.6C699.1,39.7,701.4,42.5,699.6,41.3z"/>
	<path fill="#FAF5E8" d="M672.7,70.5c0.2,0.1,0.4,0.1,0.7,0.1c0.5-0.1,0.8-0.7,0.7-1.3c-0.1-0.5-0.5-1-0.8-1.4
		c-4.7-6.2-6.2-14.3-5.6-22c0.6-7.7,3.2-15.2,6.2-22.3c-2.5,2.3-5,4.6-6.8,7.5c-0.8,1.3-1.4,2.6-2,4c-3.3,8.3-3.5,17.8-0.4,26.2
		C666.2,65.2,668.7,69.2,672.7,70.5z"/>
	<path fill="#141217" d="M652.1,277.6c0.1,2.6,0.1,5.3,0.2,7.9c1.4-1.2,2.3-3,2.5-4.8c0.2-1.9-0.4-3.8-1.6-5.2
		c-0.7,0.4-1.2,1.2-1.4,2C651.7,277.3,652.1,277.4,652.1,277.6z"/>
	<path fill="#141217" d="M649.3,303c0-0.3-0.1-0.6-0.1-1c-0.9-3.6-0.5-7.5,1.2-10.8c-2.3,2.3-4,5.3-4.7,8.4
		c-0.2,0.9-0.3,1.8-0.1,2.7c0.2,0.9,0.9,1.7,1.8,1.9C648.2,304.5,649.2,303.9,649.3,303z"/>
	<path fill="#141217" d="M653.6,306.6c-0.7,1-1.8,1.6-2.9,2.2c-0.5,0.3-1.2,0.6-1.7,0.3c0-0.2,0.1-0.4,0.1-0.5
		c2.7-1.3,3.7-4.4,4.6-7.3C654.7,302.8,654.7,305,653.6,306.6z"/>
	<path fill="#141217" d="M656.8,294.1c-0.7-0.5-1-1.4-1.4-2.2c-0.4-0.8-1-1.6-1.8-1.7c-0.2,1.9,0.1,3.8,0.8,5.6
		C655.2,295.4,656,294.9,656.8,294.1z"/>
	<path fill="#141217" d="M659.9,299c-0.1,0.5-0.1,1.1,0,1.6c0.3,0.9,1,1.6,1.7,2.2c0.6,0.6,1.2,1.1,1.8,1.7
		c-0.7-1.3-1.5-2.7-1.6-4.2s0.6-3.2,2-3.8c0.5-0.2,1-0.3,1.3-0.7c0.4-0.6-0.2-1.6-1-1.7s-1.5,0.3-2.1,0.9
		C660.9,296.1,660.2,297.5,659.9,299z"/>
	<path fill="#141217" d="M653.1,318.3c0.9-0.6,1.6-1.4,2.5-2c1.5-1,3.4-1.5,5.2-2c1.7-0.5,3.5-0.9,5.2-0.5c0.3,0.3,0.5,0.8,0.4,1.2
		c-2.3,1.8-5.7,0.8-8.4,1.8c-2.6,0.9-4.4,3.5-7.1,4.3c-2.4,0.7-5.3-0.4-6.6-2.5c1.1,1.2,2.8,1.7,4.4,1.6
		C650.3,320,651.8,319.3,653.1,318.3z"/>
	<path fill="#141217" d="M744.8,307.9c0.8,0.4,1.8-0.1,2.2-0.8c0.5-0.7,0.6-1.6,0.8-2.4c0.8-5.7,1.6-11.7,4.7-16.5
		c-1.5-0.1-2.9,0.8-3.8,2s-1.5,2.6-2,4c-1.4,3.6-2.6,7.3-2.8,11.1C743.7,306.3,743.9,307.5,744.8,307.9z"/>
	<path fill="#141217" d="M753.3,294.3c0.5-1.1,1.2-2.2,2.3-2.8c1.1-0.6,2.6-0.6,3.4,0.3c0.8,0.9,0.7,2.7-0.5,3.1c0-0.7,0-1.4,0-2.1
		c-2.1-0.3-3.9,1.4-5.8,2.4c-0.2,0.1-0.5,0.1-0.6-0.1C752.7,293.9,752.8,295.5,753.3,294.3z"/>
	<path fill="#141217" d="M759.4,297c-0.5,2.3-1.1,4.6-2.3,6.5c-1.2,1.9-3.4,3.4-5.7,3.3c0-0.2-0.1-0.4-0.1-0.7
		C754.6,303.8,757.5,300.7,759.4,297z"/>
	<path fill="#141217" d="M759,313.8c-0.2,1.4-0.1,3.1,1,4.1c0-1.5-0.1-3.1,0.2-4.6c0.4-2.7,1.8-5.1,3.2-7.5
		C761,307.8,759.4,310.7,759,313.8z"/>
	<path fill="#141217" d="M752.1,322.9c-1.2-0.5-2.6-0.2-3.9-0.3s-2.8-0.5-3.3-1.7c-0.6-1.6,0.9-3.4,0.5-5.1
		c-1.1-0.2-2.4,0.7-3.4,0.3c-0.4-0.2-0.7-0.5-1-0.9c-1.5-2-2.7-4.2-3.6-6.5c1.4,1.1,2.5,2.6,3.9,3.7c1.4,1.1,3.3,1.9,5,1.3
		c-0.1,2.6,1.1,5.3,3.4,6.4s5.5,0.3,6.6-2c-0.9,0.9-0.3,2.6,0.9,3.2c1.1,0.6,2.5,0.4,3.8,0.1c0.7,0.4,0.6,1.4,0.2,2s-1.3,0.9-2,1.1
		c-1.3,0.4-2.8,0.6-4.1,0C754,324.1,753.2,323.3,752.1,322.9z"/>
	<path fill="#141217" d="M762.2,289.7c-0.4,0.3-0.8,0.5-1.2,0.5s-0.9-0.3-1-0.7c2.3-3.4,4-7.1,5-11c0.4,2,0.6,4.1,0.2,6.1
		C764.9,286.5,763.8,288.4,762.2,289.7z"/>
	<path fill="#141217" d="M761.7,278.9c-0.5-0.5-1-1-1.5-1.4c-0.4-0.4-1-0.7-1.4-0.3c-0.1,0.1-0.2,0.3-0.2,0.5
		c-0.2,1.1,0.4,2.4,1.4,2.9c0.5,0.2,1,0.4,1.5,0.2c0.5-0.2,0.8-0.7,0.7-1.2C762.1,279.2,761.9,279.1,761.7,278.9z"/>
	<path fill="#141217" d="M748.4,289.1c0.2,0.4,0.5,0.7,1,0.8c0.6,0.1,1.2-0.5,1.3-1.1c0.1-0.6-0.2-1.3-0.5-1.8
		c-2.2-3.8-6.2-6.6-10.5-7.3c-1.2-0.2-2.5-0.2-3.4,0.5c-1,0.7-1.3,2.1-1.6,3.3c2-1.8,5.1-1.7,7.7-1.1c1.3,0.3,2.6,0.8,3.4,1.8
		c0.4,0.5,0.6,1.1,0.9,1.7C747.1,287,747.7,288.1,748.4,289.1z"/>
	<path fill="#141217" d="M745.2,316.3C745.3,316.3,745.1,316.4,745.2,316.3c0.6-2.3,1.7-4.6,3.1-6.6c-2.3,0.9-4.4,2.1-6.4,3.5"/>
	<path fill="#141217" d="M672.7,304c0.3,0.1,0.6,0.2,0.7,0.5s0,0.7-0.3,1c-1,1.1-2.7,1.2-4.1,1.2c-1.6,0-3.3-0.1-4.9-0.4
		c0,0.7,0.9,1.1,1.5,0.9c0.7-0.1,1.2-0.6,1.7-1.1C668.8,304.7,670.7,303.4,672.7,304z"/>
	<path fill="#141217" d="M641.6,290.4c0.8-2.1,1.6-4.3,2.8-6.2c1.2-1.9,2.9-3.6,5-4.5c0.5-0.2,1.1-0.6,1-1.1
		c-1.2-0.6-2.6-0.1-3.7,0.6c-3.3,2.1-5.2,6.3-4.6,10.3C642.8,289.4,641.3,291.1,641.6,290.4z"/>
	<path fill="#AF0044" d="M648.8,275.7c0.4-0.2,0.7-0.5,0.8-0.9s-0.2-0.8-0.6-1c-0.4-0.2-0.8-0.1-1.3,0c-1.3,0.4-2.4,1.3-3.4,2.1
		c-0.7,0.6-1.4,1.2-1.8,2s-0.6,1.8-0.1,2.6c0.7-1.2,1.7-2.2,2.9-3C646.4,276.9,647.7,276.4,648.8,275.7z"/>
	<path fill="#AF0044" d="M647.7,291c1.2-1.2,2.7-2.1,3-3.7c-1.3,0.1-2.3,1.1-3.1,2.1c-1.3,1.5-2.6,3-3.4,4.8s-1,4-0.2,5.7
		C644.7,296.7,645.4,293.3,647.7,291z"/>
	<path fill="#AF0044" d="M653.1,296.9c0,0.5,0,1-0.1,1.6c-0.3,1.9-1.4,3.9-3.2,4.6c-0.5,0.2-1,0.3-1.4,0.1c-0.4-0.2-0.6,1.9-0.3,1.4
		c1.3-0.7,2.2-1.9,2.7-3.2c0.6-1.3,0.8-2.7,1-4.1c0.3-1.5,0.5-3,0.8-4.5c0.4,1.9,1.3,4.8,3.8,4.5c1.7-0.2,1.6-1.4,2.5-2.6
		c0.8-1.1,1.9-1.8,3.1-2.5c1.7-0.9,3.4-1.6,5.2-2.2c-1.5-1-3.5-1-5.2-0.3s-3,2-4.1,3.4c-0.8,1.1-1.6,2.2-2.6,3.1"/>
	<path fill="#AF0044" d="M686.2,290c-3.1-1-6.7,0.3-8.4,3c-1.2,2-1.7,4.6-3.7,5.8c-0.7,0.4-1.4,0.5-2.1,0.7c-1,0.3-2.1,0.6-2.9,1.3
		c-0.8,0.7-1.4,1.7-1.3,2.8c1.5-1.7,4.2-1.4,6.5-1.7c0.3,0,0.7-0.1,0.9-0.3c0.5-0.3,0.7-0.9,0.9-1.5
		C677.9,295.5,681.7,291.7,686.2,290z"/>
	<path fill="#AF0044" d="M644.6,311.3c0.2,1.5,0.4,3,0.7,4.5c0.1,0.6,0.3,1.4,1,1.5c0.3,0,0.5,0,0.7-0.1c3.3-1.3,6.1-3.9,9.6-4.3
		c0.9-0.1,1.9-0.1,2.8-0.3c0.6-0.2,1.2-0.5,1.8-0.8c1.4-0.6,2.8-0.9,4.3-1.3c-0.3-1.3-1.5-2.1-2.7-2.7s-2.5-1.2-3.1-2.4
		c0.3,1,0.4,2,0.3,3.1c0,0.4-0.1,0.8-0.2,1.1c-0.5,0.9-1.8,1-2.8,1C653.4,310.6,647.2,309,644.6,311.3z"/>
	<path fill="#AF0044" d="M692.4,301.5c-0.7-0.6-1.6-0.9-2.6-0.9c0.3,0.8,0.3,1.7,0.6,2.5c0.3,0.8,1.1,1.5,1.9,1.3
		c0.6-0.2,0.9-0.8,0.9-1.4S692.9,301.9,692.4,301.5z"/>
	<path fill="#AF0044" d="M685.4,301.5c1-1.2,1.7-2.7,2.1-4.3c0.1-0.3,0.1-0.6-0.1-0.9c-0.4-0.5-1.2,0-1.5,0.6
		c-1.2,1.7-2.2,3.6-3,5.6C683.7,303.1,684.8,302.3,685.4,301.5z"/>
	<path fill="#AF0044" d="M692.3,288.4c-1.6,0.1-3.1,0.8-4.3,1.9C689.6,290.7,691.5,289.9,692.3,288.4z"/>
	<path fill="#AF0044" d="M704.2,316.8c0.3,0.1,0.6,0.1,0.8-0.1c0.2-0.2,0.1-0.6,0-0.8c-1.4-3.1-2.4-6.5-2.7-9.9s0.2-7,1.7-10
		c-1.2,2.4-1.8,5-2.3,7.7c-0.7,3.5-1.4,7.2,0,10.5C702.2,315.2,703,316.3,704.2,316.8z"/>
	<path fill="#AF0044" d="M711.1,318.3c0.4,0.1,0.8,0,1-0.3c0.2-0.3,0.1-0.6,0-0.9c-1.2-3.7-3.6-7.2-3.4-11.1
		c0.1-2.2,1.1-4.2,1.8-6.3c0.7-2.1,1.3-4.3,0.6-6.4c-1.7,2.6-2.3,5.8-2.8,8.9c-0.7,4-1.3,8.1-0.4,12
		C708.3,316,709.3,317.9,711.1,318.3z"/>
	<path fill="#AF0044" d="M709,286.6c-1.7,0.5-3,2.1-3.1,3.9c1,0.4,2.3,0,2.9-0.8S709.6,287.5,709,286.6z"/>
	<path fill="#AF0044" d="M724.6,315.6c0.5-1.9,0.9-4.2-0.6-5.5c-1.3-1.2-3.3-1-5-1.2c2.7,2.1,4.2,5.7,3.9,9.1
		C724,317.7,724.4,316.6,724.6,315.6z"/>
	<path fill="#AF0044" d="M731,307c-1.3,2.8-1.8,6-1.5,9.1c0.1,0.6,0.2,1.1,0.5,1.6s0.9,0.8,1.4,0.6c0.4-0.1,0.7-0.4,0.9-0.8
		c0.7-1,1-2.3,0.4-3.4c-0.4-0.8-1.2-1.3-1.9-2S730.7,307.9,731,307z"/>
	<path fill="#AF0044" d="M742.5,310.9c1.1-2,0.8-4.8-0.9-6.4c-1.7-1.6-4.4-1.9-6.4-0.7c2.4,1.3,4.5,3.3,5.8,5.6
		C741.4,310.1,741.8,310.8,742.5,310.9z"/>
	<path fill="#AF0044" d="M732.5,279.5c-0.3,1.1-0.5,2.1-0.8,3.2c-0.2,0.7-0.3,1.4-0.2,2.1s0.6,1.4,1.3,1.5c0.4-1.4,1-2.8,1.5-4.2
		c0.2-0.5,0.4-1,0.8-1.4c0.3-0.3,0.7-0.4,1.1-0.5c2-0.5,4-0.3,6.1-0.1c1.5,0.2,3,0.3,4.2,1.1c1.1,0.7,1.8,1.8,2.4,3
		c0.3,0.6,0.6,1.3,1.2,1.8c0.5,0.5,1.3,0.8,2,0.4c-0.5-1.5-1-2.9-1.5-4.4c-0.2-0.6-0.4-1.1-0.7-1.6c-0.6-0.8-1.5-1.3-2.4-1.8
		c-1.2-0.6-2.4-1.1-3.6-1.6c-1.3-0.5-2.6-1-3.9-1.1C736.4,275.8,733.3,275.9,732.5,279.5z"/>
	<path fill="#AF0044" d="M749.6,299.9c0.2-1.4,0.5-2.8,0.7-4.2c-0.3,0-0.5,0.4-0.6,0.7c-1.2,3.8-2.3,7.7-3.4,11.5
		c0.6,0.5,1.5,0.1,2.1-0.4c3.1-2,5.9-4.8,6.9-8.3c-0.9,1.4-1.9,2.9-3.4,3.5c-0.5,0.2-1,0.3-1.4,0.1
		C749.4,302.5,749.4,301,749.6,299.9z"/>
	<path fill="#AF0044" d="M749.9,319.6c1.2,0.1,2.2-0.9,3-1.9c0.4-0.5,0.7-1.2,0.4-1.8c-0.1-0.2-0.4-0.4-0.7-0.5
		c-1.5-0.7-3.6-0.5-4.5-1.9c-0.3,1.2-0.7,2.4-0.5,3.6S748.7,319.6,749.9,319.6z"/>
	<path fill="#AF0044" d="M756.7,315.4c0.6-0.6,0.5-1.5,0.5-2.3c0-3.6,2.2-6.8,4.4-9.6c-0.3-0.4-0.8-0.4-1.2-0.3s-0.7,0.5-1,0.8
		c-2.1,2.3-3.4,5.3-3.5,8.4C755.8,313.5,755.9,314.7,756.7,315.4z"/>
	<path fill="#AF0044" d="M761.7,314.6c0.8-1.7,1.5-3.5,2.3-5.2c-0.1,3.1-0.2,6.3-1.8,9c-0.3,0.4-0.7,0.9-1.2,0.9
		c-0.4,0-0.8-0.5-0.8-0.9c-0.1-0.4,0-0.9,0.1-1.3C760.9,315.2,760.9,316.5,761.7,314.6z"/>
	<path fill="#AF0044" d="M753.2,285.1c-0.1,0.4-0.1,0.9,0.1,1.3c0.2,0.4,0.6,0.6,1,0.8c1.1,0.5,2.2,0.7,3.4,0.6
		c0.2,0,0.5-0.1,0.6-0.2c0.2-0.3,0.1-0.6,0.1-0.9c0.1-0.5,0.5-0.8,0.9-1.2c0.9-0.9,1.2-2.3,2.1-3.2c0.6-0.7,1.5-1.2,2.1-1.9
		c1-1.2,0.9-3.2-0.1-4.4c-0.1-0.1-0.3-0.3-0.5-0.3c-0.4,0-0.6,0.5-0.6,0.9s0,0.9-0.4,1.1c-0.1-1.1-0.3-2.4-1.3-2.9
		c-0.5-0.2-1.1-0.2-1.6-0.2c-1,0.1-2.1,0.3-2.9,0.9s-1.4,1.7-1.2,2.7c0.7-0.9,1.5-1.7,2.5-2.2c1.9-0.7,4.2,0.5,4.7,2.4
		c0,0.2,0.1,0.3,0,0.5s-0.2,0.3-0.4,0.4c-0.7,0.6-0.9,1.6-1.4,2.3c-0.6,0.9-1.5,1.5-2.4,2.1c-0.5,0.3-1.1,0.6-1.6,0.4
		s-0.8-0.8-0.9-1.4c-0.1-0.6-0.1-1.2-0.3-1.7c-0.4-0.1-0.8,0.3-1,0.8C753.7,282.9,753.4,284,753.2,285.1z"/>
</g>
</svg>
