<?xml version="1.0" encoding="utf-8"?>
<!-- Generator: Adobe Illustrator 19.0.0, SVG Export Plug-In . SVG Version: 6.00 Build 0)  -->
<!DOCTYPE svg PUBLIC "-//W3C//DTD SVG 1.1//EN" "http://www.w3.org/Graphics/SVG/1.1/DTD/svg11.dtd">
<svg version="1.1" id="Layer_1" xmlns="http://www.w3.org/2000/svg" xmlns:xlink="http://www.w3.org/1999/xlink" x="0px" y="0px"
	 viewBox="-210 122 191 550" style="enable-background:new -210 122 191 550;" xml:space="preserve">
<style type="text/css">
	.st0{fill:#362923;}
	.st1{fill:#3E3735;}
	.st2{fill:#8A7D72;}
	.st3{fill:#AA9B8D;}
	.st4{fill:#231618;}
	.st5{fill:#685448;}
	.st6{fill:#310C13;}
	.st7{fill:#141217;}
	.st8{fill:#736B60;}
	.st9{fill:#F0E5D4;}
	.st10{fill:#3E3634;}
	.st11{fill:#5B0C14;}
	.st12{fill:#915646;}
</style>
<g>
	<path class="st0" d="M-171.8,601.4c0,0,66.2,35.5,127.4-3.1c0,0-10.2-11.5-4.5-45.5c5.7-34.1,25.3-143.4,12.6-185.9
		s-41-117-42.3-129.6c0,0-33.4-6.3-78.9,4.4c0,0-30.9,85.2-37.9,128.1c-6.9,42.9,13.1,116.2,17.6,137.6
		C-173.2,528.8-169.2,594.7-171.8,601.4z"/>
	<path class="st1" d="M-168.1,594.4c0,0-21.5,33.8,0,59.5c0,0,66.3,22.4,124.9-4c0,0,18.3-30.9-4.4-55.5
		C-47.6,594.4-108.5,631.2-168.1,594.4z"/>
	<path class="st2" d="M-158.3,244.1c0,0,44.8-11.9,80.2-4c0,0-13.7-43.2-13.1-59.6c0,0,12.6-10.9-2.5-31c0,0-37.9-8.8-56.8,5.7
		c0,0-12,21.3-0.6,25.8C-151.1,181-150.7,222.2-158.3,244.1z"/>
	<path class="st3" d="M-60.3,656.2c0,0,10.4-32.9-5.9-53.4c0,0,15.9,14.9,18.3,25.8c0,0,1.7-17.8-6-30.9c0,0,20.7,12.4,10.7,52.2
		C-43.2,649.9-53.7,654.4-60.3,656.2z"/>
	<path class="st3" d="M-157,607.6c0,0-13,15.2-5.9,29.2c0,0,2.8,2.2,3.8-9.9c0,0,3.8,26.6-5.9,26.9c0,0-21.1-20.8,4-55.5
		C-161,598.4-167.3,610.6-157,607.6z"/>
	<path class="st4" d="M-112.4,626.7c-5.3,0.6-10.5,2-15.6,3.8c0.1,1,1.2,1.8,2.2,1.9c1,0.1,2.1-0.2,3.1-0.5c1,1.3,2.7,1.6,4.3,1.8
		c6.3,0.9,12.7,1.2,19,0.7c0.6,0,1.2-0.1,1.5-0.5c0.3-0.3,0.4-0.8,0.5-1.3c0.2-1.3,0.3-2.6,0.2-3.9c0-0.8-0.1-1.7-0.8-2.2
		c-0.4-0.3-1-0.3-1.6-0.5c-1.6-0.4-2.6-1.9-3.7-3c-3.3-3.5-8.5-5-13.3-4.3c-4.8,0.6-9.2,3.2-12.7,6.5
		C-124.1,622.2-116.9,622.8-112.4,626.7z"/>
	<path class="st4" d="M-148.5,629.6c1.5,0.2,3.2,0.4,4.5-0.3c1.4-0.7,2.2-2.7,1.2-3.8c-0.8-0.9-2.3-0.8-3.5-1.4
		c-1.2-0.6-1.9-2.1-1.5-3.4c-1.9-1-4.5-0.6-5.9,0.9c-1.5,1.6-1.6,4.3-0.1,5.9C-152.5,628.9-150.4,629.3-148.5,629.6z"/>
	<path class="st5" d="M-154.9,243.3c0,0-16.1,64-20.3,72.5c-4.3,8.5-18.5,71.5-17,89.5c0,0-1.9,30.8,10.9,44c0,0-1.1-34.8,3.7-44.4
		c0,0,1.8-17.6,4-29.9c2.2-12.3,8.5-32.4,8.5-32.4s29.8-71.6,25-102.2L-154.9,243.3z"/>
	<path class="st6" d="M-154.2,570.1c-0.2-1.1-0.4-2.3-1.2-3.1s-2.3-1-3-0.1c1.2,3.7,1.8,7.6,1.6,11.5c-0.1,1.6-0.7,3.7-2.4,3.8
		c-0.8,0-1.6-0.6-2.1-1.3c-1.5-2.1-1.2-4.9-1.1-7.5c0.1-7.3-2.7-14.4-4.6-21.5c-2.8-10.5-3.8-21.5-2.6-32.3
		c2.6,10.4,6.6,20.4,12.1,29.6c3.7,6.3,8.2,12.5,9.6,19.7c1.7,8.6-1,17.3-3.7,25.6c-1,3-2.1,6.2-4.6,8
		C-153.2,592-152.6,580.9-154.2,570.1z"/>
	<path class="st7" d="M-91.5,609.3c0,0-9.1-143,3.5-203.8l10-0.1c0,0,5.9-69-19.1-92.3c0,0-7.2-52.7-4.7-75.6c0,0-17.7-3.3-30.3,3
		c0,0-4.4,48.8-16.4,77.4c-12,28.6-28.5,68.5-21.5,131.9c7,63.3,35.9,107.5,27.7,156.4C-142.3,606.1-109.6,617.2-91.5,609.3z"/>
	<path class="st8" d="M-97.1,237.6c0,0,2.8,66.5,6.6,71c3.8,4.4,29.7,44.8,17.7,96.9l-10.6,6.9l-1.9,43.4c0,0,48.5-4.6,49.1-64.5
		c0,0-21.4-62.5-30-90.2c-8.6-27.8-11.9-60.9-11.9-60.9L-97.1,237.6z"/>
	<path class="st9" d="M-104.9,147.6c0,0,4.9,27.5-3,32.8l10.8,55.1l13.5,1l-16.1-56.1c0,0,7-13,0.7-32L-104.9,147.6z"/>
	<path class="st9" d="M-142.2,238.6l5.9-58.2c0,0-7.5-20-1.7-31.3l-7.6,2.9c0,0-5.2,14.1,2,28.3l-8.2,59.9L-142.2,238.6z"/>
	<path class="st10" d="M-130.9,237l4.4-89.9l14.2,0.5l5.7,87.8C-106.6,235.4-122.1,235.8-130.9,237z"/>
	<path class="st8" d="M-167.3,363.5c-0.3-2.4-0.2-4.9,0.2-7.3c-0.8-0.7-2.1-0.4-2.8,0.4s-1,1.8-1.4,2.7c-1.6,4-5.2,7-9.4,8
		c2.9-1.5,5.2-3.9,6.6-6.9c0.6-1.4,0.9-3.3-0.4-4.1c-1,3.3-3.2,6.3-6.1,8.2c-0.2-2.7,0.1-5.6,1.5-8c1.4-2.4,4-4.1,6.8-3.9
		c1.2,0.1,2.4,0.5,3.6,0.7c1.2,0.1,2.6-0.1,3.3-1.1c-1.5-0.2-3-0.4-4.5-0.5c-0.6-0.1-1.1-0.1-1.6-0.4c-1.1-0.7-1.1-2.2-0.9-3.4
		c0.2-1.2,0.7-2.5,0.2-3.7c-0.8-0.6-2-0.1-2.9,0.5c-2.8,1.9-5.4,4-7.7,6.5c2.5-3.8,5.2-7.5,8-11.1c0.6-0.8,1.2-1.5,2.1-2
		c0.9-0.4,2-0.4,2.6,0.3c0.5,0.6,0.5,1.4,0.6,2.1c0.1,1.7,0.1,3.5,0.2,5.2c0,0.6,0,1.2,0.3,1.7c0.6,1.3,2.3,1.6,3.7,1.3
		c1.4-0.3,2.6-1.2,3.9-1.6c2.2-0.7,4.8-0.4,6.7,1c-1.3,2.6-4.5,3.6-6.8,5.4c-3.8,2.9-5.2,8.7-3.2,13.1
		C-166.2,367-167.2,365.1-167.3,363.5z"/>
	<path class="st8" d="M-106.2,340.5c-2.7,1.5-5.4,3.1-8.1,4.6c-2.2,1.3-4.7,2.9-5,5.4c-0.3-1.9-3-2.2-4.7-1.4
		c-1.7,0.8-3.2,2.2-5.1,2.4c-1.8,0.1-3.4-0.9-5.1-1.3c-5.3-1.3-10,3.3-15.1,5.1c-1.8,0.6-3.8,0.9-5.4,2.1c-1.2,0.9-2,2.3-3.1,3.2
		c-1.7,1.5-4.3,1.9-6.4,1.2c1.4,2.6,5.1,3,7.8,1.8c2.7-1.1,4.8-3.3,7.1-5.1c2.8-2.2,6.1-3.7,9.6-4.5c6.2-1.4,13.1-0.5,18.9-3.2
		c-1.1,0.1-1.9,1.5-1.5,2.5c0.3,1.1,1.6,1.7,2.7,1.4c1.2-0.3,1.9-1.5,2.6-2.4c2.6-3.8,6.3-6.9,10.5-8.9c2.9-1.4,6.7-2.1,9.2,0.1
		c1.8,1.6,2.2,4.7,0.9,6.8c-1.3,2.1-3.9,3.2-6.4,2.9c3.3,2.3,8.2,1.7,10.9-1.3c2.6-3,2.5-8-0.2-10.9c0.9-0.9,2.1-1.4,3.4-1.2
		c-1.9-2.5-5.4-3.4-8.5-2.9S-103.5,338.9-106.2,340.5z"/>
	<path class="st8" d="M-189.9,370.4c0.5-0.1,0.8,0.7,0.7,1.2c-0.1,2.1,0.3,4.2,1,6.2c0.6,1.6,1.6,3.3,3.3,3.7c1,0.3,2.1,0,3.2-0.4
		c7.3-2.3,14-6.7,19.2-12.4c-1.5-0.1-3,0.4-4.4,1c-4.5,1.9-8.8,4.2-12.8,7c-0.7,0.5-1.3,0.9-2.1,1.2c-2,0.7-4.5-0.5-5.2-2.5
		c-1-2.7,0.9-6.2-1-8.4C-188.8,368.1-189.4,369.2-189.9,370.4z"/>
	<path class="st8" d="M-116.3,366.6c-0.3,3.1,0.1,6.2,1.1,9.2c0.2,0.6,0.4,1.1,0.8,1.6c1,1.4,3,1.8,4.1,3.3c-3.3-0.3-6.3-2.2-8-5
		c-1.6-2.6-2-5.8-1.6-8.8c0.4-3,1.4-5.9,2.6-8.7c0.5-1.3,1.1-2.6,2.1-3.6c0.9-1,2.3-1.8,3.7-1.6
		C-113.9,357.2-115.9,361.8-116.3,366.6z"/>
	<path class="st8" d="M-83,347.2c0.7,3,1,6.1,0.9,9.2c0,0.7-0.1,1.5-0.5,2c-0.8,1-2.3,0.8-3.6,0.7c-6.6-0.6-13.1,5.1-13.4,11.7
		c-1.9-1.1-4-2.3-6.2-2.5c-2.2-0.2-4.7,0.8-5.6,2.9c2.2-1.5,5.3-0.2,6.7,2.1c1.4,2.2,1.3,5,1.1,7.6c2.3-2.1,3.6-5.1,4.9-7.9
		c1.3-2.8,2.8-5.8,5.4-7.5c2.6-1.8,6.6-1.9,8.5,0.5c0.5,0.6,0.8,1.2,1.3,1.8c0.8,0.9,2.1,1.3,3.3,1.2c3.2-0.4,4.5-4.4,4.6-7.6
		c0.1-3.2-0.1-7,2.4-9c2.5,1.4,5.6,1.7,8.3,0.7c-2-0.3-4.1-0.6-5.6-1.9c-1.5-1.3-1.9-4.1-0.3-5.2c1.3-1,3.4-0.3,4.4,1
		c1,1.3,1.2,3.1,1.2,4.7c0,5-1.9,10.1-5.1,13.9c4.4-1.6,7.3-6.5,6.5-11.2c2.6-0.3,5-2.2,5.9-4.6c-1.6,1.5-3.6,2.5-5.8,2.8
		c0.5-2,0.7-4.1,0.2-6s-2.2-3.7-4.2-3.9c-3.3-0.3-5.5,3.2-6.9,6.1c-1.8,3.9-3.7,7.8-5.5,11.7c0.1-2.5,1.1-5,1.2-7.5
		C-78.9,350.2-80.5,347.3-83,347.2z"/>
	<path class="st8" d="M-61.6,364.6c-2.3,2.4-4.8,5.1-4.8,8.5c0,1.3,0.3,2.7-0.4,3.8c-0.6,0.9-1.8,1.2-2.9,1.1
		c-2.5-0.2-4.5-2.3-5.3-4.7c-1.1-3.1-0.3-6.9,1.9-9.3c-3.6,2.7-5.1,7.9-3.4,12.1c0.3,0.6,0.6,1.2,1,1.8c1.2,1.5,3,2.4,4.8,3
		c1.1,0.4,2.4,0.7,3.4,0.2c1.4-0.6,2.1-2.4,3.4-3.2c-0.4,1.3,1.1,2.5,2.4,2.5c1.4,0,2.5-0.9,3.6-1.7c-0.3,1,0.1,2.2,1,2.9
		c0.8,0.7,2,0.8,3,0.4c0.4-1.2-0.6-2.4-1.6-3s-2.3-1.2-2.9-2.3c-1.2,0.1-2.5,0-3.7-0.1c-0.4,0-0.7-0.1-1-0.3c-0.4-0.3-0.4-1-0.4-1.5
		c0.3-2.3,1.8-4.4,3.8-5.6c0.8-0.4,1.9-0.7,2.5-0.1c0.6,0.5,0.5,1.5,0.3,2.2c-0.4,2-0.9,3.9-1.6,5.8c0.4,0.5,1.3,0.4,1.8,0
		c0.5-0.4,0.8-1,1.1-1.6c1.7-3.8,3.3-7.9,2.4-11.9c-1.1,1-2.2,2-3.3,3c-0.2-1.7-2.3-2.6-3.9-2.3S-60.4,363.4-61.6,364.6z"/>
	<path class="st7" d="M-182.1,367.3c0,0,0.1,0,0.1,0c1.2,0.4,2.5,0.1,3.6-0.5s1.9-1.6,2.7-2.5c1.9-2.2,3.9-4.5,5.8-6.7
		c0.5-0.5,1-1.1,1.7-1.1c0,1.5-0.1,3.1-0.1,4.6c0,1.5-0.1,3-0.5,4.5c-0.8,2.5-2.9,4.5-5.4,5.2c-0.9,0.3-1.8,0.3-2.7,0.1
		c-1.5-0.3-2.7-1.5-3.5-2.8C-181.3,366.8-181.7,368.7-182.1,367.3z"/>
	<path class="st7" d="M-166.9,348.7c-1.3,0.2-2.5-0.8-3-2.1c-0.5-1.2-0.4-2.6-0.2-3.9c0.1-1,0.3-2.1,0-3.1s-1.4-1.8-2.4-1.4
		c1.1-1.5,3.5-1.6,4.8-0.3c1.4,1.4,1.1,3.6,1,5.6s0.1,4.3,1.9,5.2C-164.5,349.2-167.1,349.4-166.9,348.7z"/>
	<path class="st7" d="M-71.6,360.8c-3.5,2.8,0.2,5,3.2,3.4c2.8-1.5,4.5-6.9,5.5-9.6c2.4-0.2,4.4-2.5,4.3-5c0.4,0,0.8,0,1.2,0
		c1.1,1.3,0.4,3.2-0.6,4.5s-2.4,2.4-3,3.9c-0.6,1.7-4,7.1-5.9,5.8c-2.4-1.7,0.5-8.2,0.7-10.1c-0.6,0.1-7.2-0.3-6.7-1.4
		c-0.3,0.8,0.2,1.6,0.8,2.2s1.3,1,1.8,1.7C-69.4,357.6-70.2,359.7-71.6,360.8z"/>
	<path class="st7" d="M-76.2,383.4c-1.2-0.1-2.2,0.8-3.3,1.4c-2,1.1-4.5,1.2-6.6,0.2c2.4-3.4,7.6-4.5,8.9-8.4
		c1.1,1.4,2.2,2.9,3.7,3.9c1.5,1,3.4,1.6,5.1,1.1c1.7-0.5,3-2,3.9-3.6c-0.8,1.3,0.5,3.3,2.1,3.3s3-1.1,3.8-2.5
		c-0.3,1.4,0.7,3,2.2,3.4s3.1-0.6,3.4-2.1c0.7,1.5-0.6,3.4-2.2,3.8c-1.6,0.4-3.4-0.3-4.7-1.3c-0.5,1.1-1.9,1.4-3,1.3
		c-1.2-0.1-2.3-0.6-3.4-0.6c-2.4,0-4.6,1.7-6.9,1C-74.4,384.2-75.2,383.5-76.2,383.4z"/>
	<path class="st7" d="M-57.6,368.6c-0.3-0.2-0.6-0.2-0.9-0.1c-2,0.3-3.7,2.3-3.5,4.3c0.4-0.4,0.5-1.1,1-1.4c0.7-0.6,1.9,0,2.2,0.9
		c0.3,0.9,0,1.9-0.3,2.8c1.4-1.3,2.2-3.3,2.1-5.2C-57.1,369.3-57.2,368.8-57.6,368.6z"/>
	<path class="st7" d="M-54.5,364.5c0.3-0.1,0.7-0.2,1-0.1c0.6,0.3,0.6,1.1,0.5,1.7c-0.5,3.7-1.4,7.4-2.5,11.1
		c4.3-3.7,5.8-10.2,3.7-15.4c-1.2,0-2.5,0-3.6,0.5c-1.1,0.5-2,1.8-1.6,2.9C-56.2,365-55.3,364.8-54.5,364.5z"/>
	<path class="st7" d="M-77.4,606.3c0,0-4.1-6.5-3.6-28.3c0.5-21.8,8.1-125.6,8.1-125.6l11-6.1l-13.3,130.2c0,0-2.7,19.6,5.9,27.4
		L-77.4,606.3z"/>
	<path class="st11" d="M-154.5,161.7c0,0-5.3,0.7-5.8-3.1c-0.5-3.9,1.9-17.8,1.9-17.8s1.7-4.6,12.3-7.4c10.6-2.8,42.1-4.9,57.7,2.2
		c0,0,5.7,3.5,5.4,6.2l1,15.6c0,0-2.7,7.1-5.4,6.2l-2-6.6l-8.9,1.7l-4.1-2.9l-8.3,2l-10.4-2.4l-12.6,3.4l-3.8-4.3l-7.5,4.3l-3.9-2.7
		L-154.5,161.7z"/>
	<path class="st12" d="M-110.4,151.6c-0.4,0-0.5-0.5-0.6-0.9c-0.5-3.9-0.9-7.8-1.4-11.7c-1.3,3.8-1.7,7.8-1.7,11.8
		c0.3,0.7,1.3,1.1,2,0.8C-110.8,151.1-111,152.9-110.4,151.6z"/>
	<path class="st12" d="M-102.3,137.7c0,5.5,0.1,10.9,0.1,16.4c1.7,0.8,3.3,2,4.3,3.6c-0.7-2.7-0.2-5.7,1.3-8
		c0.6-0.9,1.5-1.7,2.6-1.5c0.5,0.1,0.9,0.5,1.2,1c1.4,2.1,0.5,5.4,2.5,6.9c0.4-2.2,0.9-4.4,1.3-6.7c1.3,0.3,1.9,1.8,2.2,3.1
		c0.2,1.3,0.4,2.8,1.4,3.7c0.5-4.8,0.2-9.8-1-14.5c-0.2-0.9-0.5-1.8-0.9-2.7c-1.6-3-5.4-4.3-8.8-4.1c-1.6,0.1-3.3,0.5-4.6,1.5
		C-102,137.4-102.3,136-102.3,137.7z"/>
	<path class="st12" d="M-154.6,138.2c-2.5,1.6-2.9,5-3.2,7.9c-0.3,3.4-0.6,6.9-0.8,10.3c0,0.4-0.1,0.9,0.1,1.3
		c0.5,1.2,2.2,1.3,2.7,2.5c1.3-4,2.7-8.1,4-12.1c1.3,2.1,2.5,4.2,3.8,6.3c0.3,0.5,0.6,1,1.1,1.2c0.9,0.4,1.9-0.4,2.2-1.3
		s0.1-1.9,0-2.8c-0.9-6.6,1.4-13.5,6-18.3c-3.4-0.8-6.5,2-10,2.6c-1.2,0.2-2.5,0.2-3.7,0.5C-154.9,136.9-152.3,136.7-154.6,138.2z"
		/>
	<path class="st12" d="M-131.8,154.8c-0.9-6.5-0.3-13.5-3.6-19.2c-0.5,4.5-0.7,9-0.6,13.5c0,0.7,0,1.5,0.4,2.2
		C-134.8,152.9-132.8,153.5-131.8,154.8z"/>
</g>
</svg>
