<?xml version="1.0" encoding="utf-8"?>
<!-- Generator: Adobe Illustrator 18.1.1, SVG Export Plug-In . SVG Version: 6.00 Build 0)  -->
<svg version="1.1" id="Layer_1" xmlns="http://www.w3.org/2000/svg" xmlns:xlink="http://www.w3.org/1999/xlink" x="0px" y="0px"
	 viewBox="0 0 800 550" enable-background="new 0 0 800 550" xml:space="preserve">
<g>
	<rect x="306.1" y="239.6" fill="#BB8435" width="171.2" height="118"/>
	<rect x="310.6" y="342.2" fill="#9F6D2A" width="27" height="12"/>
	<rect x="446.3" y="333.2" fill="#9F6D2A" width="27" height="12"/>
	<rect x="335.3" y="319.7" fill="#9F6D2A" width="27" height="12"/>
	<rect x="442.6" y="257.7" fill="#9F6D2A" width="27" height="12"/>
	<rect x="308.3" y="256.7" fill="#9F6D2A" width="27" height="12"/>
	<rect x="442.6" y="286.5" fill="#9F6D2A" width="27" height="12"/>
	<rect x="391.7" y="246.2" fill="#9F6D2A" width="27" height="12"/>
	<rect x="318.6" y="288.9" fill="#9F6D2A" width="27" height="12"/>
	<rect x="351.3" y="268.6" fill="#CB903E" width="27" height="12"/>
	<rect x="340.5" y="338.8" fill="#CB903E" width="27" height="12"/>
	<rect x="425.6" y="271.4" fill="#CB903E" width="27" height="12"/>
	<rect x="429.1" y="318.3" fill="#CB903E" width="27" height="12"/>
	<rect x="310.6" y="305.6" fill="#CB903E" width="27" height="12"/>
	<rect x="337.8" y="243.6" fill="#CB903E" width="27" height="12"/>
	<rect x="348.8" y="294.9" fill="#AA8B61" width="27" height="12"/>
	<rect x="383.1" y="318.3" fill="#CB903E" width="27" height="12"/>
	<rect x="395.6" y="268.7" fill="#603913" width="46" height="87.9"/>
	<rect x="330.5" y="272.3" fill="#231F20" width="47" height="45.1"/>
	<path fill="#FDBF48" d="M369,185.2c-0.5,1-0.9,2.1-1.4,3.1c-0.8-0.6-1.6-1.1-2.4-1.7c-0.3,1.1-0.6,2.2-0.9,3.2
		c-0.3-0.5-0.6-1-0.9-1.5c-0.7,1.1-1.4,2.2-2.2,3.2c-2-2-5-3.2-8-3.2c0.2-0.7,0.4-1.3,0.7-2c-0.8,1-1.6,2.1-2.4,3.1
		c0.8-1.3,0.9-3,0.1-4.4c-0.9,1.4-1.8,2.7-2.7,4.1c0.1-0.8,0.2-1.7,0.3-2.5c-1.3,1.1-2.4,2.5-3,4.1c-1.1,0.3-2.2,0.7-3.3,1
		c-1.4,0.4-3.9,0-3.3-1.3c-2.2,0.6-4.5,1.3-6.7,1.9c0.9-1.4,1.5-3,1.8-4.7c-1.1,1.2-2.3,2.5-3.4,3.7c0.4-0.9,0.9-1.9,1.3-2.8
		c-0.8,0.3-1.5,0.7-2.3,1c-0.2,0.1-0.4,0.2-0.6,0.2c-1.3,1.1-2,2.8-1.9,4.4c0.1-1.3-2.2-0.7-3.1,0.2c-4,4.4-8.1,8.9-12.1,13.3
		c1.8-1,3.5-2.1,5.3-3.1c-2.2,2.9-4.3,5.8-6.5,8.8c1.2,0,2.4-0.1,3.6-0.4c-3.4,2.8-6.7,5.6-10.1,8.4c1.1,0.3,2.1,1,2.6,2
		c-2.1,1.9-3.7,4.3-4.6,6.9c0.9-0.2,1.9-0.4,2.8-0.6c-1.2,1.2-2.2,2.7-2.9,4.2c-0.2,0.5-0.4,1.1-0.1,1.6c0.3,0.5,1.3,0.4,1.3-0.1
		c-0.9,1.3-1.9,2.5-2.8,3.8c-0.9,3.1-1.8,6.2-2.7,9.3c0.9-0.8,1.9-1.6,2.8-2.5c0.5,2.7,1,5.3,1.4,8c1.2-2,2.3-4.1,3.5-6.1
		c0.5,1.9,0.9,3.8,1.4,5.7c1.4-2,2.8-4.1,4.2-6.1c1.1,1.8,2.3,3.6,3.4,5.4c1.7-2.2,3.4-4.4,5-6.6c1.4,2.7,2.5,5.6,3.2,8.6
		c1.4-2.3,2.8-4.6,4.2-7c1.5,2,3,4,4.5,6c1.3-2.1,2.6-4.3,3.9-6.4c1,1.3,2,2.7,3.1,4c1.2-1.8,2.3-3.6,3.5-5.4c0.2,1.5,0.8,2.9,1.8,4
		c1.4-1.5,2.8-2.9,4.2-4.4c0.9,1.6,1.8,3.3,2.6,4.9c1.2-0.4,1.5-1.8,1.9-3s1.7-2.4,2.8-1.8c0.4,0.2,0.6,0.7,0.8,1.1
		c0.6,1.3,1.2,2.7,1.7,4c1.1-1.3,2.1-2.7,3.2-4c0.2,1.3,0.4,2.7,0.6,4c1.2-1.7,2.3-3.3,3.5-5c1.2,3.2,1.6,6.6,1.2,9.9
		c1.6-2.8,3.5-5.9,6.7-7.1c3.2-1.2,7.8,1,7.2,4.2c2-1.8,3.8-3.9,5.1-6.2c-0.8,1.5,1.1,3.3,2.9,2.9c1.7-0.3,2.8-2,3.1-3.6
		c1.6,0.1,0.8,2.7,1.9,3.7c1,0.9,2.6,0.1,3.5-0.9c0.9-1,1.9-2.2,3.2-2c-0.8,1.2,0.9,2.8,2.4,2.5c1.5-0.3,2.5-1.5,3.3-2.8
		c0.5,1.5,1,3,1.5,4.6c1.9-1.7,3.6-3.5,5-5.5c1.2,2.5,1.7,5.2,1.5,8c1.6-2.5,3.5-4.8,5.7-6.9c0,1.5,0.1,3,0.1,4.5
		c0.8-1.3,1.8-2.8,3.3-3.4c1.5-0.7,3.7-0.1,4,1.4c0.1,0.4,0,0.8,0.3,1.2c0.7,1.1,2.5,0,3-1.2c0.5-1.2,1.4-2.8,2.7-2.4
		c0,1.3,0.7,2.6,1.7,3.4c1.3-1.1,2.5-2.3,3.8-3.4c0.1,1.8,1,3.5,2.4,4.7c1.4-1.8,2.5-3.8,3.1-5.9c0.9,1.4,1.7,2.8,2.6,4.2
		c0.4-1.9,1.3-3.6,2.5-5.2c1.1,1.6,2.1,3.2,3.2,4.9c0.8-1.2,1.5-2.4,2.3-3.6c1.1,2.3,1.4,5,0.7,7.5c1.8-3.4,3.6-6.8,5.5-10.2
		c1.8,2.2,2.4,5.1,1.7,7.8c1.6-1.8,2.8-3.9,3.5-6.1c1.1,2.4,1.9,4.9,2.2,7.5c1.2-2.7,2.4-5.3,3.6-8c0.6,1.8,1.3,3.6,1.9,5.4
		c0.8-2.4,1.5-4.7,2.3-7.1c1.4,1.4,2.5,3,3.3,4.8c-0.3-1.5-0.5-3.2,0.3-4.6c0.8-1.4,3.1-2,4.1-0.8c-0.7-5.4-3-10.7-6.6-15
		c1.6,0.6,3.1,1.3,4.5,2.3c-1-4.4-3.6-8.4-7.2-11.2c0.9,0.4,1.8,0.8,2.7,1.2c-2.6-4.9-6.1-9.3-10.4-12.9c1.4,0.5,2.8,0.9,4.3,1.4
		c-4-3.1-8-6.3-12-9.4c0.2,0.5,1,0.2,1.1-0.3c0.1-0.5-0.3-0.9-0.7-1.3c-2.3-2.2-4.7-4.3-7.3-6.1c0.3,1.5-0.5,3.2-2.1,3.5
		s-3.2-1.4-2.3-2.7c-4-1.3-8-2.5-12-3.8c-0.4-0.1-1-0.2-1.2,0.2c-0.2,0.4,0.8,0.5,0.5,0.1c-4.1-0.2-8.2,0.2-12.2,1.4
		c0.3-0.6,0.4-1.3,0.3-1.9c-1.6,0.5-3.1,1-4.7,1.6c0.3-0.6,0.4-1.3,0.3-1.9c-1,0.5-2,1-3,1.6c-0.2-0.6-0.4-1.3-0.7-1.9
		c-0.4,0.6-1.3,1-2.1,0.8c-2.1-1-4.3-1.7-6.6-2.1c-0.1,0.7-0.9,1.1-1.7,1.2c-3.8,1-7.9,1.2-11.8,0.8c0.1-0.9,0.1-1.8,0.2-2.6
		c-1,0.7-2.1,1.5-3.1,2.2c-0.4-0.7-0.7-1.5-1.1-2.2c-0.5,1.3-1.6,2.4-2.9,2.9c-0.5-1.1-0.9-2.2-1.4-3.3c-0.3,0.7-0.7,1.5-1.4,2
		s-1.8,0.4-2.2-0.4c-0.8,0.8-1.6,1.7-2.4,2.5c-0.8-1.7-2.4-3.1-4.4-3.5c-0.6,0.9-0.9,1.9-0.9,2.9c-0.7-1.5-2.9-2.1-4.3-1.2
		C369.3,186.7,369.1,185.9,369,185.2z"/>
	<rect x="418.7" y="268.6" fill="#6B401C" width="22.9" height="88.1"/>
	<rect x="330.5" y="272.3" fill="#603913" width="47" height="5.1"/>
	<rect x="330.5" y="312.3" fill="#603913" width="47" height="5.1"/>
	<rect x="330.5" y="272.7" fill="#603913" width="5.1" height="44.7"/>
	<rect x="373.2" y="272.5" fill="#603913" width="5.1" height="44.7"/>
</g>
<g>
	<rect x="483.3" y="239.7" fill="#BB8435" width="171.2" height="118"/>
	<rect x="487.8" y="342.3" fill="#9F6D2A" width="27" height="12"/>
	<rect x="623.5" y="333.3" fill="#9F6D2A" width="27" height="12"/>
	<rect x="512.5" y="319.8" fill="#9F6D2A" width="27" height="12"/>
	<rect x="619.8" y="257.7" fill="#9F6D2A" width="27" height="12"/>
	<rect x="485.5" y="256.8" fill="#9F6D2A" width="27" height="12"/>
	<rect x="619.8" y="286.6" fill="#9F6D2A" width="27" height="12"/>
	<rect x="568.9" y="246.3" fill="#9F6D2A" width="27" height="12"/>
	<rect x="495.8" y="288.9" fill="#9F6D2A" width="27" height="12"/>
	<rect x="528.5" y="268.7" fill="#CB903E" width="27" height="12"/>
	<rect x="517.6" y="338.8" fill="#CB903E" width="27" height="12"/>
	<rect x="602.8" y="271.5" fill="#CB903E" width="27" height="12"/>
	<rect x="606.3" y="318.3" fill="#CB903E" width="27" height="12"/>
	<rect x="487.8" y="305.7" fill="#CB903E" width="27" height="12"/>
	<rect x="515" y="243.6" fill="#CB903E" width="27" height="12"/>
	<rect x="526" y="294.9" fill="#AA8B61" width="27" height="12"/>
	<rect x="560.3" y="318.3" fill="#CB903E" width="27" height="12"/>
	<rect x="572.8" y="268.8" fill="#603913" width="46" height="87.9"/>
	<rect x="507.6" y="272.4" fill="#231F20" width="47" height="45.1"/>
	<path fill="#FDBF48" d="M546.2,185.3c-0.5,1-0.9,2.1-1.4,3.1c-0.8-0.6-1.6-1.1-2.4-1.7c-0.3,1.1-0.6,2.2-0.9,3.2
		c-0.3-0.5-0.6-1-0.9-1.5c-0.7,1.1-1.4,2.2-2.2,3.2c-2-2-5-3.2-8-3.2c0.2-0.7,0.4-1.3,0.7-2c-0.8,1-1.6,2.1-2.4,3.1
		c0.8-1.3,0.9-3,0.1-4.4c-0.9,1.4-1.8,2.7-2.7,4.1c0.1-0.8,0.2-1.7,0.3-2.5c-1.3,1.1-2.4,2.5-3,4.1c-1.1,0.3-2.2,0.7-3.3,1
		c-1.4,0.4-3.9,0-3.3-1.3c-2.2,0.6-4.5,1.3-6.7,1.9c0.9-1.4,1.5-3,1.8-4.7c-1.1,1.2-2.3,2.5-3.4,3.7c0.4-0.9,0.9-1.9,1.3-2.8
		c-0.8,0.3-1.5,0.7-2.3,1c-0.2,0.1-0.4,0.2-0.6,0.2c-1.3,1.1-2,2.8-1.9,4.4c0.1-1.3-2.2-0.7-3.1,0.2c-4,4.4-8.1,8.9-12.1,13.3
		c1.8-1,3.5-2.1,5.3-3.1c-2.2,2.9-4.3,5.8-6.5,8.8c1.2,0,2.4-0.1,3.6-0.4c-3.4,2.8-6.7,5.6-10.1,8.4c1.1,0.3,2.1,1,2.6,2
		c-2.1,1.9-3.7,4.3-4.6,6.9c0.9-0.2,1.9-0.4,2.8-0.6c-1.2,1.2-2.2,2.7-2.9,4.2c-0.2,0.5-0.4,1.1-0.1,1.6c0.3,0.5,1.3,0.4,1.3-0.1
		c-0.9,1.3-1.9,2.5-2.8,3.8c-0.9,3.1-1.8,6.2-2.7,9.3c0.9-0.8,1.9-1.6,2.8-2.5c0.5,2.7,1,5.3,1.4,8c1.2-2,2.3-4.1,3.5-6.1
		c0.5,1.9,0.9,3.8,1.4,5.7c1.4-2,2.8-4.1,4.2-6.1c1.1,1.8,2.3,3.6,3.4,5.4c1.7-2.2,3.4-4.4,5-6.6c1.4,2.7,2.5,5.6,3.2,8.6
		c1.4-2.3,2.8-4.6,4.2-7c1.5,2,3,4,4.5,6c1.3-2.1,2.6-4.3,3.9-6.4c1,1.3,2,2.7,3.1,4c1.2-1.8,2.3-3.6,3.5-5.4c0.2,1.5,0.8,2.9,1.8,4
		c1.4-1.5,2.8-2.9,4.2-4.4c0.9,1.6,1.8,3.3,2.6,4.9c1.2-0.4,1.5-1.8,1.9-3c0.4-1.2,1.7-2.4,2.8-1.8c0.4,0.2,0.6,0.7,0.8,1.1
		c0.6,1.3,1.2,2.7,1.7,4c1.1-1.3,2.1-2.7,3.2-4c0.2,1.3,0.4,2.7,0.6,4c1.2-1.7,2.3-3.3,3.5-5c1.2,3.2,1.6,6.6,1.2,9.9
		c1.6-2.8,3.5-5.9,6.7-7.1c3.2-1.2,7.8,1,7.2,4.2c2-1.8,3.8-3.9,5.1-6.2c-0.8,1.5,1.1,3.3,2.9,2.9c1.7-0.3,2.8-2,3.1-3.6
		c1.6,0.1,0.8,2.7,1.9,3.7c1,0.9,2.6,0.1,3.5-0.9c0.9-1,1.9-2.2,3.2-2c-0.8,1.2,0.9,2.8,2.4,2.5c1.5-0.3,2.5-1.5,3.3-2.8
		c0.5,1.5,1,3,1.5,4.6c1.9-1.7,3.6-3.5,5-5.5c1.2,2.5,1.7,5.2,1.5,8c1.6-2.5,3.5-4.8,5.7-6.9c0,1.5,0.1,3,0.1,4.5
		c0.8-1.3,1.8-2.8,3.3-3.4c1.5-0.7,3.7-0.1,4,1.4c0.1,0.4,0,0.8,0.3,1.2c0.7,1.1,2.5,0,3-1.2c0.5-1.2,1.4-2.8,2.7-2.4
		c0,1.3,0.7,2.6,1.7,3.4c1.3-1.1,2.5-2.3,3.8-3.4c0.1,1.8,1,3.5,2.4,4.7c1.4-1.8,2.5-3.8,3.1-5.9c0.9,1.4,1.7,2.8,2.6,4.2
		c0.4-1.9,1.3-3.6,2.5-5.2c1.1,1.6,2.1,3.2,3.2,4.9c0.8-1.2,1.5-2.4,2.3-3.6c1.1,2.3,1.4,5,0.7,7.5c1.8-3.4,3.6-6.8,5.5-10.2
		c1.8,2.2,2.4,5.1,1.7,7.8c1.6-1.8,2.8-3.9,3.5-6.1c1.1,2.4,1.9,4.9,2.2,7.5c1.2-2.7,2.4-5.3,3.6-8c0.6,1.8,1.3,3.6,1.9,5.4
		c0.8-2.4,1.5-4.7,2.3-7.1c1.4,1.4,2.5,3,3.3,4.8c-0.3-1.5-0.5-3.2,0.3-4.6c0.8-1.4,3.1-2,4.1-0.8c-0.7-5.4-3-10.7-6.6-15
		c1.6,0.6,3.1,1.3,4.5,2.3c-1-4.4-3.6-8.4-7.2-11.2c0.9,0.4,1.8,0.8,2.7,1.2c-2.6-4.9-6.1-9.3-10.4-12.9c1.4,0.5,2.8,0.9,4.3,1.4
		c-4-3.1-8-6.3-12-9.4c0.2,0.5,1,0.2,1.1-0.3c0.1-0.5-0.3-0.9-0.7-1.3c-2.3-2.2-4.7-4.3-7.3-6.1c0.3,1.5-0.5,3.2-2.1,3.5
		s-3.2-1.4-2.3-2.7c-4-1.3-8-2.5-12-3.8c-0.4-0.1-1-0.2-1.2,0.2c-0.2,0.4,0.8,0.5,0.5,0.1c-4.1-0.2-8.2,0.2-12.2,1.4
		c0.3-0.6,0.4-1.3,0.3-1.9c-1.6,0.5-3.1,1-4.7,1.6c0.3-0.6,0.4-1.3,0.3-1.9c-1,0.5-2,1-3,1.6c-0.2-0.6-0.4-1.3-0.7-1.9
		c-0.4,0.6-1.3,1-2.1,0.8c-2.1-1-4.3-1.7-6.6-2.1c-0.1,0.7-0.9,1.1-1.7,1.2c-3.8,1-7.9,1.2-11.8,0.8c0.1-0.9,0.1-1.8,0.2-2.6
		c-1,0.7-2.1,1.5-3.1,2.2c-0.4-0.7-0.7-1.5-1.1-2.2c-0.5,1.3-1.6,2.4-2.9,2.9c-0.5-1.1-0.9-2.2-1.4-3.3c-0.3,0.7-0.7,1.5-1.4,2
		s-1.8,0.4-2.2-0.4c-0.8,0.8-1.6,1.7-2.4,2.5c-0.8-1.7-2.4-3.1-4.4-3.5c-0.6,0.9-0.9,1.9-0.9,2.9c-0.7-1.5-2.9-2.1-4.3-1.2
		C546.4,186.8,546.3,186,546.2,185.3z"/>
	<rect x="595.9" y="268.7" fill="#6B401C" width="22.9" height="88.1"/>
	<rect x="507.6" y="272.4" fill="#603913" width="47" height="5.1"/>
	<rect x="507.6" y="312.4" fill="#603913" width="47" height="5.1"/>
	<rect x="507.6" y="272.8" fill="#603913" width="5.1" height="44.7"/>
	<rect x="550.4" y="272.6" fill="#603913" width="5.1" height="44.7"/>
</g>
<g>
	<rect x="128.4" y="239.7" fill="#BB8435" width="171.2" height="118"/>
	<rect x="132.9" y="342.2" fill="#9F6D2A" width="27" height="12"/>
	<rect x="268.5" y="333.2" fill="#9F6D2A" width="27" height="12"/>
	<rect x="157.5" y="319.7" fill="#9F6D2A" width="27" height="12"/>
	<rect x="264.9" y="257.7" fill="#9F6D2A" width="27" height="12"/>
	<rect x="130.5" y="256.7" fill="#9F6D2A" width="27" height="12"/>
	<rect x="264.9" y="286.5" fill="#9F6D2A" width="27" height="12"/>
	<rect x="214" y="246.2" fill="#9F6D2A" width="27" height="12"/>
	<rect x="140.9" y="288.9" fill="#9F6D2A" width="27" height="12"/>
	<rect x="173.5" y="268.6" fill="#CB903E" width="27" height="12"/>
	<rect x="162.7" y="338.8" fill="#CB903E" width="27" height="12"/>
	<rect x="247.9" y="271.4" fill="#CB903E" width="27" height="12"/>
	<rect x="251.4" y="318.3" fill="#CB903E" width="27" height="12"/>
	<rect x="132.9" y="305.7" fill="#CB903E" width="27" height="12"/>
	<rect x="160" y="243.6" fill="#CB903E" width="27" height="12"/>
	<rect x="171" y="294.9" fill="#AA8B61" width="27" height="12"/>
	<rect x="205.4" y="318.3" fill="#CB903E" width="27" height="12"/>
	<rect x="217.9" y="268.8" fill="#603913" width="46" height="87.9"/>
	<rect x="152.7" y="272.3" fill="#231F20" width="47" height="45.1"/>
	<path fill="#FDBF48" d="M191.2,185.2c-0.5,1-0.9,2.1-1.4,3.1c-0.8-0.6-1.6-1.1-2.4-1.7c-0.3,1.1-0.6,2.2-0.9,3.2
		c-0.3-0.5-0.6-1-0.9-1.5c-0.7,1.1-1.4,2.2-2.2,3.2c-2-2-5-3.2-8-3.2c0.2-0.7,0.4-1.3,0.7-2c-0.8,1-1.6,2.1-2.4,3.1
		c0.8-1.3,0.9-3,0.1-4.4c-0.9,1.4-1.8,2.7-2.7,4.1c0.1-0.8,0.2-1.7,0.3-2.5c-1.3,1.1-2.4,2.5-3,4.1c-1.1,0.3-2.2,0.7-3.3,1
		c-1.4,0.4-3.9,0-3.3-1.3c-2.2,0.6-4.5,1.3-6.7,1.9c0.9-1.4,1.5-3,1.8-4.7c-1.1,1.2-2.3,2.5-3.4,3.7c0.4-0.9,0.9-1.9,1.3-2.8
		c-0.8,0.3-1.5,0.7-2.3,1c-0.2,0.1-0.4,0.2-0.6,0.2c-1.3,1.1-2,2.8-1.9,4.4c0.1-1.3-2.2-0.7-3.1,0.2c-4,4.4-8.1,8.9-12.1,13.3
		c1.8-1,3.5-2.1,5.3-3.1c-2.2,2.9-4.3,5.8-6.5,8.8c1.2,0,2.4-0.1,3.6-0.4c-3.4,2.8-6.7,5.6-10.1,8.4c1.1,0.3,2.1,1,2.6,2
		c-2.1,1.9-3.7,4.3-4.6,6.9c0.9-0.2,1.9-0.4,2.8-0.6c-1.2,1.2-2.2,2.7-2.9,4.2c-0.2,0.5-0.4,1.1-0.1,1.6s1.3,0.4,1.3-0.1
		c-0.9,1.3-1.9,2.5-2.8,3.8c-0.9,3.1-1.8,6.2-2.7,9.3c0.9-0.8,1.9-1.6,2.8-2.5c0.5,2.7,1,5.3,1.4,8c1.2-2,2.3-4.1,3.5-6.1
		c0.5,1.9,0.9,3.8,1.4,5.7c1.4-2,2.8-4.1,4.2-6.1c1.1,1.8,2.3,3.6,3.4,5.4c1.7-2.2,3.4-4.4,5-6.6c1.4,2.7,2.5,5.6,3.2,8.6
		c1.4-2.3,2.8-4.6,4.2-7c1.5,2,3,4,4.5,6c1.3-2.1,2.6-4.3,3.9-6.4c1,1.3,2,2.7,3.1,4c1.2-1.8,2.3-3.6,3.5-5.4c0.2,1.5,0.8,2.9,1.8,4
		c1.4-1.5,2.8-2.9,4.2-4.4c0.9,1.6,1.8,3.3,2.6,4.9c1.2-0.4,1.5-1.8,1.9-3c0.4-1.2,1.7-2.4,2.8-1.8c0.4,0.2,0.6,0.7,0.8,1.1
		c0.6,1.3,1.2,2.7,1.7,4c1.1-1.3,2.1-2.7,3.2-4c0.2,1.3,0.4,2.7,0.6,4c1.2-1.7,2.3-3.3,3.5-5c1.2,3.2,1.6,6.6,1.2,9.9
		c1.6-2.8,3.5-5.9,6.7-7.1s7.8,1,7.2,4.2c2-1.8,3.8-3.9,5.1-6.2c-0.8,1.5,1.1,3.3,2.9,2.9s2.8-2,3.1-3.6c1.6,0.1,0.8,2.7,1.9,3.7
		c1,0.9,2.6,0.1,3.5-0.9c0.9-1,1.9-2.2,3.2-2c-0.8,1.2,0.9,2.8,2.4,2.5c1.5-0.3,2.5-1.5,3.3-2.8c0.5,1.5,1,3,1.5,4.6
		c1.9-1.7,3.6-3.5,5-5.5c1.2,2.5,1.7,5.2,1.5,8c1.6-2.5,3.5-4.8,5.7-6.9c0,1.5,0.1,3,0.1,4.5c0.8-1.3,1.8-2.8,3.3-3.4
		c1.5-0.7,3.7-0.1,4,1.4c0.1,0.4,0,0.8,0.3,1.2c0.7,1.1,2.5,0,3-1.2c0.5-1.2,1.4-2.8,2.7-2.4c0,1.3,0.7,2.6,1.7,3.4
		c1.3-1.1,2.5-2.3,3.8-3.4c0.1,1.8,1,3.5,2.4,4.7c1.4-1.8,2.5-3.8,3.1-5.9c0.9,1.4,1.7,2.8,2.6,4.2c0.4-1.9,1.3-3.6,2.5-5.2
		c1.1,1.6,2.1,3.2,3.2,4.9c0.8-1.2,1.5-2.4,2.3-3.6c1.1,2.3,1.4,5,0.7,7.5c1.8-3.4,3.6-6.8,5.5-10.2c1.8,2.2,2.4,5.1,1.7,7.8
		c1.6-1.8,2.8-3.9,3.5-6.1c1.1,2.4,1.9,4.9,2.2,7.5c1.2-2.7,2.4-5.3,3.6-8c0.6,1.8,1.3,3.6,1.9,5.4c0.8-2.4,1.5-4.7,2.3-7.1
		c1.4,1.4,2.5,3,3.3,4.8c-0.3-1.5-0.5-3.2,0.3-4.6c0.8-1.4,3.1-2,4.1-0.8c-0.7-5.4-3-10.7-6.6-15c1.6,0.6,3.1,1.3,4.5,2.3
		c-1-4.4-3.6-8.4-7.2-11.2c0.9,0.4,1.8,0.8,2.7,1.2c-2.6-4.9-6.1-9.3-10.4-12.9c1.4,0.5,2.8,0.9,4.3,1.4c-4-3.1-8-6.3-12-9.4
		c0.2,0.5,1,0.2,1.1-0.3c0.1-0.5-0.3-0.9-0.7-1.3c-2.3-2.2-4.7-4.3-7.3-6.1c0.3,1.5-0.5,3.2-2.1,3.5s-3.2-1.4-2.3-2.7
		c-4-1.3-8-2.5-12-3.8c-0.4-0.1-1-0.2-1.2,0.2c-0.2,0.4,0.8,0.5,0.5,0.1c-4.1-0.2-8.2,0.2-12.2,1.4c0.3-0.6,0.4-1.3,0.3-1.9
		c-1.6,0.5-3.1,1-4.7,1.6c0.3-0.6,0.4-1.3,0.3-1.9c-1,0.5-2,1-3,1.6c-0.2-0.6-0.4-1.3-0.7-1.9c-0.4,0.6-1.3,1-2.1,0.8
		c-2.1-1-4.3-1.7-6.6-2.1c-0.1,0.7-0.9,1.1-1.7,1.2c-3.8,1-7.9,1.2-11.8,0.8c0.1-0.9,0.1-1.8,0.2-2.6c-1,0.7-2.1,1.5-3.1,2.2
		c-0.4-0.7-0.7-1.5-1.1-2.2c-0.5,1.3-1.6,2.4-2.9,2.9c-0.5-1.1-0.9-2.2-1.4-3.3c-0.3,0.7-0.7,1.5-1.4,2c-0.7,0.4-1.8,0.4-2.2-0.4
		c-0.8,0.8-1.6,1.7-2.4,2.5c-0.8-1.7-2.4-3.1-4.4-3.5c-0.6,0.9-0.9,1.9-0.9,2.9c-0.7-1.5-2.9-2.1-4.3-1.2
		C191.5,186.7,191.4,186,191.2,185.2z"/>
	<rect x="241" y="268.6" fill="#6B401C" width="22.9" height="88.1"/>
	<rect x="152.7" y="272.3" fill="#603913" width="47" height="5.1"/>
	<rect x="152.7" y="312.3" fill="#603913" width="47" height="5.1"/>
	<rect x="152.7" y="272.7" fill="#603913" width="5.1" height="44.7"/>
	<rect x="195.5" y="272.5" fill="#603913" width="5.1" height="44.7"/>
</g>
</svg>
