<?xml version="1.0" encoding="utf-8"?>
<!-- Generator: Adobe Illustrator 18.1.1, SVG Export Plug-In . SVG Version: 6.00 Build 0)  -->
<svg version="1.1" id="Layer_1" xmlns="http://www.w3.org/2000/svg" xmlns:xlink="http://www.w3.org/1999/xlink" x="0px" y="0px"
	 viewBox="0 0 328 297" enable-background="new 0 0 328 297" xml:space="preserve">
<rect x="49" y="97.4" fill="#A3A793" width="11.9" height="191.5"/>
<rect x="57" y="100.4" fill="#9C998F" width="4.2" height="188.5"/>
<path fill="#DA303A" d="M89.4,112.3h-64c-9,0-16.2-7.3-16.2-16.2V29.2c0-9,7.3-16.2,16.2-16.2h64c9,0,16.2,7.3,16.2,16.2v66.9
	C105.6,105,98.3,112.3,89.4,112.3z"/>
<path fill="#EDEAEA" d="M89.9,105.5H24.8c-5.2,0-9.4-4.2-9.4-9.4V29.2c0-5.2,4.2-9.4,9.4-9.4h65.1c5.2,0,9.4,4.2,9.4,9.4v66.9
	C99.3,101.3,95.1,105.5,89.9,105.5z"/>
<rect x="156.6" y="96.4" fill="#A3A793" width="11.9" height="191.5"/>
<rect x="164.7" y="99.4" fill="#9C998F" width="4.2" height="188.5"/>
<path fill="#DA303A" d="M197,111.3h-64c-9,0-16.2-7.3-16.2-16.2V28.2c0-9,7.3-16.2,16.2-16.2h64c9,0,16.2,7.3,16.2,16.2v66.9
	C213.2,104,205.9,111.3,197,111.3z"/>
<path fill="#EDEAEA" d="M197.5,104.5h-65.1c-5.2,0-9.4-4.2-9.4-9.4V28.2c0-5.2,4.2-9.4,9.4-9.4h65.1c5.2,0,9.4,4.2,9.4,9.4v66.9
	C206.9,100.3,202.7,104.5,197.5,104.5z"/>
<rect x="263.3" y="96.4" fill="#A3A793" width="11.9" height="191.5"/>
<rect x="271.3" y="99.4" fill="#9C998F" width="4.2" height="188.5"/>
<path fill="#DA303A" d="M303.7,111.3h-64c-9,0-16.2-7.3-16.2-16.2V28.2c0-9,7.3-16.2,16.2-16.2h64c9,0,16.2,7.3,16.2,16.2v66.9
	C319.9,104,312.6,111.3,303.7,111.3z"/>
<path fill="#EDEAEA" d="M304.2,104.5h-65.1c-5.2,0-9.4-4.2-9.4-9.4V28.2c0-5.2,4.2-9.4,9.4-9.4h65.1c5.2,0,9.4,4.2,9.4,9.4v66.9
	C313.6,100.3,309.4,104.5,304.2,104.5z"/>
<g>
	<circle fill="#FFFFFF" cx="57.1" cy="61.8" r="34.9"/>
	<g>
		<path d="M37,82.6v4.7c0,0,11.1-7.2,12.2-19.4c1.1-12.2-3.9-21.1-3.9-21.1l11.8-7.2l11.8,7.2c0,0-13.9,26.4,8.1,39.9v-4.5
			c0,0-3.6-1.3-6.1-4.2c0,0,5.9-2.9,7-4.8l-4-3.3c0,0-2.8,4.2-4.9,5.3c0,0-5.8-11.1,0-22.4c0,0,3.1,2.6,4.8,5.1l3.3-2.5
			c0,0-2.4-3.2-6.4-5.4c0,0,1-2.3,2.9-3.9c0,0-11.2-3.3-13.6-9l-2.7-0.8l-2,0.8c0,0-5.2,6.9-14.3,9c0,0,6.2,5.2,6.7,16.6
			S43,80.7,37,82.6z"/>
		<path d="M49.4,67.5c0,0,3.7-1.3,7.9,1.4c0,0,3.7-2,7.5-1.4l0.4-2.6c0,0-4-1.3-8,0.8c0,0-4.4-1.8-8.1-0.8L49.4,67.5z"/>
		<path d="M67.3,51.6c0,0-9.5-8.1-20.7,0.4s-3.9,20.8,0,23.4s11.6,7.2,22.1,0.4l0.5,2.9c0,0-15.7,7.6-26.5-3.7s-5.3-16.4,0.8-22.7
			s19.5-7.6,26.7-1.7L67.3,51.6z"/>
	</g>
</g>
<g>
	<path fill="#FFFFFF" d="M193.7,36c0,0-16.1,0.7-27.6-11.3C155.1,36.7,138.5,36,138.5,36c-5.2,53.4,27.6,61.2,27.6,61.2
		S198.9,89.3,193.7,36z"/>
	<path fill="#D60026" d="M166,26.9v67.9c0,0-30.7-7.3-25.9-57.3C140.1,37.6,156,38.3,166,26.9z"/>
	<path fill="#0A0408" d="M166,26.9v67.9c0,0,30.7-7.3,25.9-57.3C191.9,37.6,177,38.3,166,26.9z"/>
	<path fill="#FFFFFF" d="M175.2,40.5l-9-4.6l-8.3,4.6c0,0,2.9,19-7.6,23c0,0,2.8,13.7,11.8,18.1V55h8v26.6c0,0,10.3-6.6,12.5-18.1
		C182.5,63.5,174.3,62.3,175.2,40.5z M170,51h-8v-6.7c3-1.2,3.8-3,3.8-3c2.1,1.9,4.2,3,4.2,3V51z"/>
</g>
<g>
	<path fill="#FEFDFD" d="M242.2,31.9c19.4,0,38.8,0,58.2,0c0.6,0,0.8,0.1,0.8,0.8c0,5.7-0.1,11.4,0,17.1c0.1,4.4-0.7,8.7-1.9,12.9
		c-2,7.2-5.4,13.7-10.3,19.4c-4.3,4.9-9.6,8.4-15.6,10.9c-0.5,0.2-1,0.3-1.4,0.4c-0.3,0-0.6,0-0.9,0c-0.7-0.3-1.5-0.6-2.2-0.9
		c-6.9-3.6-12.7-8.3-17.3-14.6c-4.8-6.5-8-13.6-9-21.7c-0.1-0.7,0-1.4-0.3-2.1C242.2,46.7,242.2,39.3,242.2,31.9z M271.7,33.8
		c-8.9,0-17.9,0-26.8,0c-0.9,0-0.9,0-0.9,0.9c0,5.7,0,11.4,0,17.1c0,1.9,0.2,3.8,0.5,5.7c0.9,5.7,3.1,11,6.1,15.9
		c2.8,4.5,6.1,8.4,10.2,11.8c3.2,2.7,6.7,4.9,10.6,6.4c0.2,0.1,0.4,0.1,0.6,0c0.4-0.2,0.8-0.3,1.2-0.4c6.7-2.7,12.2-7,16.5-12.8
		c2.2-2.9,4-6,5.4-9.3c2.7-6.1,4.1-12.6,4.2-19.3c0.1-5.1,0-10.2,0-15.3c0-0.6-0.2-0.7-0.8-0.7C289.6,33.8,280.7,33.8,271.7,33.8z"
		/>
	<path fill="#093363" d="M271.7,33.8c9,0,17.9,0,26.9,0c0.6,0,0.8,0.1,0.8,0.7c0,5.1,0.1,10.2,0,15.3c-0.1,6.7-1.5,13.1-4.2,19.3
		c-1.4,3.3-3.3,6.4-5.4,9.3c-4.4,5.7-9.8,10.1-16.5,12.8c-0.4,0.1-0.8,0.3-1.2,0.4c-0.2,0.1-0.4,0.1-0.6,0
		c-3.9-1.6-7.4-3.7-10.6-6.4c-4.1-3.4-7.4-7.3-10.2-11.8c-3-4.9-5.2-10.2-6.1-15.9c-0.3-1.9-0.5-3.8-0.5-5.7c0-5.7,0-11.4,0-17.1
		c0-0.9,0-0.9,0.9-0.9C253.9,33.8,262.8,33.8,271.7,33.8z M271.7,35c-8.6,0-17.2,0-25.8,0c-0.5,0-0.7,0.1-0.7,0.6c0,6,0,12,0,18
		c0,1.4,0.2,2.8,0.4,4.1c0.6,3.3,1.5,6.5,2.9,9.5c2.1,4.7,4.8,8.9,8.2,12.6c1.6,1.8,3.4,3.4,5.3,4.9c2.8,2.3,5.9,4.1,9.3,5.5
		c0.2,0.1,0.5,0.1,0.7,0c4.2-1.5,7.9-3.7,11.2-6.5c1.5-1.3,2.9-2.7,4.1-4.2c1.6-1.9,3-3.8,4.2-5.9c2.5-4.2,4.3-8.8,5.3-13.6
		c0.7-3.3,1.2-6.6,1.2-9.9c0-4.8,0-9.6,0-14.4c0-0.6-0.1-0.7-0.7-0.7C288.9,35,280.3,35,271.7,35z"/>
	<path fill="#FEFDFD" d="M271.7,35c8.6,0,17.2,0,25.8,0c0.6,0,0.7,0.1,0.7,0.7c0,4.8,0,9.6,0,14.4c0,3.4-0.5,6.7-1.2,9.9
		c-1.1,4.8-2.9,9.3-5.3,13.6c-1.2,2.1-2.7,4.1-4.2,5.9c-1.3,1.5-2.6,2.9-4.1,4.2c-3.3,2.9-7,5.1-11.2,6.5c-0.2,0.1-0.5,0.1-0.7,0
		c-3.4-1.4-6.5-3.2-9.3-5.5c-1.9-1.5-3.7-3.1-5.3-4.9c-3.4-3.8-6.2-8-8.2-12.6c-1.4-3.1-2.3-6.2-2.9-9.5c-0.2-1.4-0.4-2.7-0.4-4.1
		c0-6,0-12,0-18c0-0.6,0.2-0.6,0.7-0.6C254.5,35,263.1,35,271.7,35z M264.1,36.2c-0.2,0-0.3,0-0.5,0c-5.5,0-11.1,0-16.6,0
		c-0.5,0-0.6,0.1-0.6,0.6c0,5.5,0,11,0,16.5c0,0.2,0,0.4,0,0.5c0.1,2.4,0.4,4.7,1.1,6.9c-0.1,0.3,0.1,0.5,0.1,0.8
		c1.1,3.3,2.4,6.5,4.1,9.6c2.2,4.1,5,7.8,8.4,10.9c1.1,1,2.2,2,3.5,2.7c0.1,0.1,0.1,0.2,0.2,0.2c2.3,1.7,4.8,3,7.5,4.1
		c0.3,0.1,0.6,0.1,1,0c1.9-0.7,3.8-1.5,5.5-2.6c1.1-0.7,2.3-1.3,3.3-2.3c1.9-1.4,3.6-2.9,5.1-4.7c0.8-0.8,1.5-1.7,2.2-2.6
		c2.1-2.8,3.9-5.9,5.2-9.2c1.6-3.7,2.6-7.6,3.2-11.6c0.2-1.7,0.5-3.4,0.4-5.1c0-2.3,0-4.6,0-6.9c0-0.2,0-0.4,0-0.7
		c0-2.2,0-4.4,0-6.6c0-0.6-0.2-0.7-0.7-0.7c-10,0-20,0-30.1,0C265.6,36.2,264.8,36.2,264.1,36.2z"/>
	<path fill="#093363" d="M281,84.3c-1,0.9-2.1,1.6-3.3,2.3c-1.8,1-3.6,1.9-5.5,2.6c-0.3,0.1-0.6,0.2-1,0c-2.7-1.1-5.2-2.4-7.5-4.1
		c-0.1-0.1-0.1-0.2-0.2-0.2c0-1.5,0-3.1,0-4.6c0-0.4,0-0.7,0-1.1c0-7.1,0-14.3-0.1-21.4l0,0c0,0,0.1-0.1,0.1-0.1
		c0.8-0.2,1.7-0.4,2.5-0.5c3.3-0.6,6.6-1.3,9.9-1.9c1.7-0.3,3.3-0.8,5-0.9c0,9.8,0,19.7,0,29.5C280.9,84,280.9,84.2,281,84.3z
		 M271.2,75.8c0,0.2,0,0.5,0,0.8c0.1,2,1.3,3.4,3.3,3.6c1.8,0.2,3.1-0.3,3.8-1.9c0.4-0.8,0.4-0.8-0.5-1.1c-0.1,0-0.2-0.1-0.3-0.1
		c-0.5-0.3-0.9-0.3-1.1,0.4c-0.2,0.6-0.7,0.9-1.3,0.9c-0.6,0-1.1-0.2-1.3-0.8c-0.4-1.1-0.4-2.2,0-3.2c0.4-1,1.8-1.3,2.4-0.4
		c0.4,0.7,0.8,0.5,1.3,0.4c0.2-0.1,0.4-0.1,0.5-0.1c0.4,0,0.5-0.2,0.3-0.6c-0.9-2.1-3.7-2.8-5.7-1.4
		C271.5,73.1,271.2,74.4,271.2,75.8z M266.7,67.5C266.6,67.5,266.6,67.5,266.7,67.5c-0.1,1.3,0,2.5-0.1,3.8c0,0.3,0.1,0.4,0.4,0.4
		c0.5,0,1,0,1.5,0c0.4,0,0.5-0.1,0.5-0.5c0-0.8,0-1.6,0-2.4c0-0.5,0.2-0.7,0.7-0.6c0.7,0,1.3,0,2,0c0.2,0,0.4,0,0.4-0.2
		c0-0.5,0.1-1-0.1-1.4c-0.1-0.2-0.6-0.1-1-0.1c-0.3,0-0.5,0-0.8,0c-1.2,0-1.2,0-1.1-1.2c0-0.3,0.1-0.4,0.4-0.4c0.6,0,1.2,0,1.8,0
		c1.4,0,1.4,0,1.3-1.4c0-0.4-0.1-0.4-0.5-0.4c-1.6,0-3.2,0-4.9,0c-0.4,0-0.5,0.2-0.5,0.6C266.7,65.1,266.7,66.3,266.7,67.5z"/>
	<path fill="#BD1624" d="M297,51.1c0.1,1.7-0.1,3.4-0.4,5.1c-0.6,4-1.6,7.9-3.2,11.6c-1.4,3.3-3.1,6.3-5.2,9.2
		c-0.7,0.9-1.3,1.8-2.2,2.6c-0.1-1.2-0.1-2.4-0.2-3.6c-0.1-2.9-0.3-5.9-0.4-8.8c-0.1-1.2,0-2.5,0-3.7c0-1.6-0.1-3.3-0.6-4.8
		c-0.6-1.8-1.4-3.4-3.1-4.5c0.2-0.1,0.4-0.2,0.6-0.2c2.7-0.5,5.5-1.1,8.2-1.6C292.8,51.9,294.9,51.4,297,51.1z"/>
	<path fill="#9B711E" d="M297,51.1c-2.2,0.3-4.3,0.9-6.4,1.3c-2.7,0.5-5.5,1.1-8.2,1.6c-0.2,0-0.4,0.1-0.6,0.2c-0.3,0-0.6,0-0.8,0.1
		c-1.7,0.2-3.3,0.6-5,0.9c-3.3,0.6-6.6,1.3-9.9,1.9c-0.8,0.2-1.7,0.3-2.5,0.5c0,0-0.1,0.1-0.1,0.1l0,0c-0.2,0-0.5,0-0.7,0
		c-2,0.4-4.1,0.8-6.1,1.2c-2.6,0.5-5.3,1.1-7.9,1.6c-0.4,0.1-0.9,0.2-1.3,0.2c-0.6-2.3-1-4.6-1.1-6.9c1.1-0.3,2.1-0.4,3.2-0.6
		c5.6-1.1,11.3-2.1,16.9-3.2c4.3-0.8,8.7-1.7,13-2.6c1.5-0.3,3.1-0.5,4.6-1c0.2,0,0.4,0,0.6,0c2.8-0.5,5.6-1.1,8.4-1.6
		c1.3-0.2,2.5-0.6,3.8-0.7C297,46.5,297,48.8,297,51.1z M280.9,52.8c0,0,0.1,0,0.1,0c4.8-0.9,9.6-1.9,14.4-2.8
		c0.3-0.1,0.5-0.2,0.5-0.6c0-1,0-2,0-3.1c0-0.7,0-0.7-0.7-0.6c-3.7,0.7-7.4,1.4-11,2.2c-1.1,0.2-2.2,0.3-3.2,0.7
		c-1.1,0-2.2,0.3-3.2,0.5c-4.5,0.9-9.1,1.8-13.6,2.7c-0.4,0.1-0.5,0.2-0.5,0.6c0,1.1,0,2.3,0,3.4c0,0.4,0,0.5,0.5,0.4
		c4.1-0.8,8.2-1.6,12.3-2.4C277.9,53.5,279.4,53.1,280.9,52.8z M263.5,54.1c0-0.6,0-1.1,0-1.7c0-0.3,0-0.4-0.4-0.3
		c-2.3,0.4-4.6,0.9-6.9,1.4c-2.7,0.6-5.4,1.1-8.1,1.6c-0.4,0.1-0.5,0.2-0.4,0.6c0.1,1.1,0.2,2.1,0.5,3.2c0.1,0.4,0.2,0.4,0.5,0.3
		c2.6-0.5,5.2-1,7.8-1.5c2.2-0.4,4.4-0.8,6.6-1.3c0.3-0.1,0.4-0.2,0.4-0.5C263.4,55.2,263.5,54.7,263.5,54.1z"/>
	<path fill="#BD1624" d="M280.9,54.3c0.3-0.2,0.6-0.1,0.8-0.1c1.7,1,2.5,2.7,3.1,4.5c0.5,1.6,0.6,3.2,0.6,4.8c0,1.2,0,2.5,0,3.7
		c0.1,2.9,0.3,5.9,0.4,8.8c0.1,1.2,0.1,2.4,0.2,3.6c-1.5,1.8-3.2,3.3-5.1,4.7c-0.2-0.1-0.1-0.3-0.1-0.5
		C280.9,74,280.9,64.1,280.9,54.3z"/>
	<path fill="#BD1624" d="M247.5,60.8c0.4-0.1,0.9-0.2,1.3-0.2c0.1,0.4,0.5,0.5,0.8,0.8c1.3,1.3,2.2,2.9,2.9,4.5
		c0.9,1.8,1.9,3.5,3.1,5.1c1,1.4,2.1,2.7,3.2,4c1.3,1.8,2.9,3.4,4.3,5.1c0.1,0.1,0.3,0.2,0.4,0.2c0,1.5,0,3.1,0,4.6
		c-1.3-0.7-2.4-1.7-3.5-2.7c-3.4-3.2-6.2-6.8-8.4-10.9c-1.7-3.1-3-6.3-4.1-9.6C247.6,61.4,247.4,61.1,247.5,60.8z"/>
	<path fill="#BD1624" d="M284.2,46.6c-1.5,0.4-3.1,0.6-4.6,1c-4.3,0.9-8.7,1.7-13,2.6c-5.6,1.1-11.3,2.1-16.9,3.2
		c-1.1,0.2-2.2,0.4-3.2,0.6c0-0.2,0-0.4,0-0.5c0-5.5,0-11,0-16.5c0-0.5,0.1-0.6,0.6-0.6c5.5,0,11.1,0,16.6,0c0.2,0,0.3,0,0.5,0
		c0,0.4-0.3,0.7-0.2,1.1c-0.2,0-0.5,0-0.7,0c-5,0-10,0-14.9,0c-0.2,0-0.4,0-0.7,0c0,0.1,0,0.3,0,0.4c0,4.8,0,9.5,0,14.3
		c0,0.1,0,0.2,0,0.4c1.8-0.3,3.5-0.7,5.3-1c4.6-0.9,9.1-1.8,13.7-2.6c4.3-0.8,8.7-1.7,13-2.5c1.4-0.3,2.8-0.5,4.3-0.8
		C283.7,45.9,284.2,46.1,284.2,46.6z"/>
	<path fill="#BD1624" d="M263.9,37.3c-0.1-0.4,0.2-0.7,0.2-1.1c0.7,0,1.5,0,2.2,0c10,0,20,0,30.1,0c0.5,0,0.7,0.1,0.7,0.7
		c0,2.2,0,4.4,0,6.6c0,0.2,0,0.4,0,0.7c-1.3,0.1-2.6,0.5-3.8,0.7c-2.8,0.5-5.6,1.1-8.4,1.6c-0.2,0-0.4,0-0.6,0
		c0-0.4-0.5-0.7-0.4-1.1c0.1,0,0.2-0.1,0.3-0.1c2.5-0.5,5-1,7.5-1.5c1.4-0.3,2.8-0.5,4.2-0.8c0.1,0,0.1,0,0.1-0.1c0-0.1,0-0.3,0-0.4
		c0-1.5,0-3,0-4.5c0-0.6-0.2-0.7-0.8-0.7c-5.3,0-10.6,0-15.9,0C274.1,37.3,269,37.3,263.9,37.3z"/>
	<path fill="#BD1624" d="M263.6,80.2c-0.2,0-0.3,0-0.4-0.2c-1.5-1.7-3-3.3-4.3-5.1c-1-1.4-2.1-2.7-3.2-4c-1.2-1.6-2.3-3.3-3.1-5.1
		c-0.8-1.6-1.6-3.2-2.9-4.5c-0.3-0.3-0.7-0.3-0.8-0.8c2.6-0.5,5.3-1.1,7.9-1.6c2-0.4,4.1-0.8,6.1-1.2c0.2,0,0.4,0,0.7,0
		c0.2,7.1,0.1,14.3,0.1,21.4C263.6,79.5,263.6,79.9,263.6,80.2z"/>
	<path fill="#FEFDFD" d="M271.2,75.8c0-1.5,0.3-2.8,1.5-3.7c1.9-1.4,4.8-0.7,5.7,1.4c0.2,0.4,0.1,0.6-0.3,0.6
		c-0.2,0-0.4,0.1-0.5,0.1c-0.5,0.2-0.9,0.3-1.3-0.4c-0.5-0.9-2-0.7-2.4,0.4c-0.4,1.1-0.4,2.2,0,3.2c0.2,0.6,0.7,0.8,1.3,0.8
		c0.7,0,1.2-0.3,1.3-0.9c0.2-0.7,0.6-0.7,1.1-0.4c0.1,0.1,0.2,0.1,0.3,0.1c0.9,0.3,0.9,0.3,0.5,1.1c-0.8,1.6-2,2.1-3.8,1.9
		c-2-0.2-3.1-1.6-3.3-3.6C271.2,76.3,271.2,76.1,271.2,75.8z"/>
	<path fill="#FEFDFD" d="M266.7,67.5c0-1.2,0-2.5,0-3.7c0-0.4,0.1-0.6,0.5-0.6c1.6,0,3.2,0,4.9,0c0.3,0,0.5,0.1,0.5,0.4
		c0,1.4,0,1.4-1.3,1.4c-0.6,0-1.2,0-1.8,0c-0.3,0-0.4,0.1-0.4,0.4c-0.1,1.2-0.1,1.2,1.1,1.2c0.3,0,0.5,0,0.8,0c0.3,0,0.9-0.2,1,0.1
		c0.2,0.4,0.1,0.9,0.1,1.4c0,0.2-0.2,0.2-0.4,0.2c-0.7,0-1.3,0-2,0c-0.5,0-0.7,0.1-0.7,0.6c0.1,0.8,0,1.6,0,2.4
		c0,0.4-0.1,0.5-0.5,0.5c-0.5,0-1,0-1.5,0c-0.3,0-0.4-0.1-0.4-0.4C266.6,70.1,266.6,68.8,266.7,67.5
		C266.6,67.5,266.6,67.5,266.7,67.5z"/>
	<path fill="#BD1624" d="M263.5,57.7c0,0,0.1-0.1,0.1-0.1C263.6,57.7,263.5,57.7,263.5,57.7z"/>
	<path fill="#FEFDFD" d="M280.9,52.8c-1.5,0.3-3.1,0.7-4.6,1c-4.1,0.8-8.2,1.6-12.3,2.4c-0.4,0.1-0.5,0-0.5-0.4c0-1.1,0-2.3,0-3.4
		c0-0.4,0.1-0.6,0.5-0.6c4.5-0.9,9.1-1.8,13.6-2.7c1.1-0.2,2.1-0.5,3.2-0.5C280.9,50,280.9,51.4,280.9,52.8z"/>
	<path fill="#093363" d="M263.5,54.1c0,0.6,0,1.1,0,1.7c0,0.3-0.1,0.5-0.4,0.5c-2.2,0.4-4.4,0.8-6.6,1.3c-2.6,0.5-5.2,1-7.8,1.5
		c-0.3,0.1-0.4,0-0.5-0.3c-0.2-1.1-0.4-2.1-0.5-3.2c0-0.3,0-0.5,0.4-0.6c2.7-0.5,5.4-1,8.1-1.6c2.3-0.5,4.6-1,6.9-1.4
		c0.4-0.1,0.4,0.1,0.4,0.3C263.5,53,263.5,53.6,263.5,54.1z"/>
	<path fill="#BD1624" d="M280.9,52.8c0-1.4,0-2.8,0-4.2c1-0.4,2.1-0.5,3.2-0.7c3.7-0.7,7.4-1.4,11-2.2c0.7-0.1,0.7-0.1,0.7,0.6
		c0,1,0,2,0,3.1c0,0.4-0.1,0.5-0.5,0.6c-4.8,0.9-9.6,1.9-14.4,2.8C281,52.8,281,52.8,280.9,52.8z"/>
	<path fill="#FEFDFD" d="M295.9,42.6c0,0.1,0,0.3,0,0.4c0,0-0.1,0.1-0.1,0.1c-1.4,0.3-2.8,0.5-4.2,0.8c-2.5,0.5-5,1-7.5,1.5
		c-0.1,0-0.2,0.1-0.3,0.1c-1.4,0.3-2.8,0.5-4.3,0.8c-4.3,0.8-8.7,1.7-13,2.5c-4.6,0.9-9.1,1.8-13.7,2.6c-1.8,0.3-3.5,0.7-5.3,1
		c0-0.1,0-0.3,0-0.4c0-4.8,0-9.5,0-14.3c0-0.1,0-0.3,0-0.4c6.9,0,13.9,0.1,20.8,0.1c9,0,17.9,0,26.9,0c0.5,0,0.7,0.1,0.6,0.6
		C295.8,39.6,295.8,41.1,295.9,42.6z M252.5,38.4c-0.2,0-0.4,0-0.6,0c-0.4-0.1-0.6,0.1-0.7,0.5c-0.7,3.6-1.4,7.1-2.1,10.7
		c-0.2,1-0.2,1,0.8,0.8c1.1-0.2,1.1-0.2,1.2-1.1c0.1-1.1,0.1-1.1,1.2-1.2c1.2-0.2,1.2-0.2,1.4,1c0.1,0.5,0.1,0.8,0.7,0.6
		c0.3-0.1,0.7-0.1,1-0.2c0.3,0,0.5-0.1,0.4-0.5c-0.7-3.1-1.4-6.3-2.1-9.4C253.5,38.4,253.5,38.4,252.5,38.4z M277.3,41.8
		c0.6,0.9,1.2,1.6,1.6,2.4c0.5,1,1.2,1.3,2.2,0.9c0,0,0,0,0.1,0c0.3,0,0.5-0.2,0.5-0.6c0-1.6,0-3.2,0-4.8c0-1.4,0-1.4-1.4-1.4
		c-0.4,0-0.6,0.1-0.5,0.5c0,0.7,0,1.4,0,2.2c0,0.3,0,0.6,0,0.9c-0.6-0.8-1.3-1.6-1.7-2.5c-0.5-1-1.1-1.3-2.1-1.1
		c-0.4,0.1-0.5,0.2-0.5,0.5c0,1.9,0,3.9,0,5.8c0,1.5,0,1.4,1.4,1.1c0.3-0.1,0.5-0.2,0.5-0.5C277.2,44.2,277.3,43.1,277.3,41.8z
		 M271.3,38.4c-0.1,0-0.2,0-0.3,0c-0.6-0.1-0.9,0.1-1,0.7c-0.2,0.9-0.5,1.8-0.8,2.8c-0.4,1.7-0.9,3.3-1.3,5c-0.1,0.5,0,0.5,0.4,0.4
		c0.1,0,0.2,0,0.3,0c1.2-0.2,1.2-0.2,1.5-1.3c0-0.2,0.1-0.4,0.3-0.4c0.5-0.1,1.1-0.2,1.6-0.2c0.2,0,0.4,0,0.4,0.3
		c0.1,0.3,0,0.8,0.3,0.9c0.3,0.1,0.7-0.1,1-0.1c0.2,0,0.3-0.1,0.5-0.1c0.5,0,0.5-0.2,0.3-0.6c-0.7-2.1-1.3-4.2-2-6.3
		C272.3,38.4,272.3,38.4,271.3,38.4z M257.6,45.1c0,1.2,0,2.4,0,3.6c0,0.3,0,0.6,0.5,0.4c0.3-0.1,0.7-0.2,1-0.2
		c0.4,0,0.5-0.2,0.5-0.6c0-1.9,0-3.8,0-5.8c0-0.5-0.2-1.1,0.1-1.4c0.2-0.2,0.8-0.1,1.3-0.1c0,0,0.1,0,0.1,0c0.4,0,0.5-0.1,0.5-0.5
		c0-0.5,0-1,0-1.5c0-0.4-0.1-0.5-0.5-0.5c-1.5,0-2.9,0-4.4,0c-1.1,0-1.1,0-1.1,1.1c0,0.5-0.2,1.2,0.1,1.5c0.3,0.4,1,0.1,1.5,0.1
		c0.4,0,0.5,0.1,0.5,0.5C257.5,42.8,257.6,43.9,257.6,45.1z M262.4,43.4c0,1.5,0,3,0,4.5c0,0.3,0,0.5,0.4,0.4
		c1.4-0.3,2.8-0.5,4.3-0.7c0.3,0,0.4-0.1,0.4-0.5c0-0.5,0-1,0-1.5c0-0.3-0.1-0.4-0.4-0.3c-0.7,0.1-1.5,0.2-2.2,0.3
		c-0.4,0-0.5,0-0.5-0.5c0-1.7,0-3.5,0-5.2c0-1.5,0-1.4-1.5-1.4c-0.4,0-0.5,0.1-0.5,0.5C262.5,40.4,262.4,41.9,262.4,43.4z M289.3,41
		c0,0.8,0,1.6,0,2.3c0,0.3,0.1,0.4,0.4,0.4c1.5-0.3,3.1-0.6,4.6-0.8c0.6-0.1,0.4-0.5,0.4-0.8c0-0.4-0.4-0.2-0.6-0.2
		c-0.8,0.1-1.5,0.2-2.2,0.3c-0.2,0-0.6,0.3-0.6-0.2c0-0.4-0.1-0.7,0.5-0.7c0.7,0,1.5-0.2,2.2-0.2c0.5,0,0.3-0.4,0.4-0.6
		c0-0.4-0.2-0.3-0.4-0.3c-0.8,0.1-1.5,0.1-2.3,0.1c-0.3,0-0.4,0-0.4-0.4c0-0.3,0.1-0.4,0.4-0.4c0.9,0,1.7-0.1,2.6-0.1
		c0.4,0,0.4-0.2,0.4-0.5c0-0.3,0-0.5-0.4-0.5c-1.5,0-3,0-4.5,0c-0.3,0-0.4,0.1-0.4,0.4C289.3,39.5,289.3,40.3,289.3,41z M285.4,38.4
		c-0.9,0-1.7,0-2.6,0c-0.2,0-0.4-0.1-0.4,0.2c0,0.4-0.2,0.9,0.1,1.3c0.1,0.3,0.6,0.1,0.9,0.1c0.2,0,0.4,0,0.6,0
		c0.4-0.1,0.4,0.1,0.4,0.4c0,1.2,0,2.5,0,3.7c0,0.3,0.1,0.4,0.4,0.3c0.4-0.1,0.8-0.2,1.1-0.2c0.3,0,0.4-0.2,0.4-0.5
		c0-0.9,0-1.8,0-2.7c0-1.2,0-1.2,1.2-1.3c0.9-0.1,0.9-0.1,0.9-1c0-0.3-0.1-0.5-0.5-0.4C287.1,38.4,286.2,38.4,285.4,38.4z"/>
	<path fill="#9B711E" d="M295.9,42.6c-0.1-1.5-0.1-3-0.1-4.5c0-0.5-0.1-0.6-0.6-0.6c-9,0-17.9,0-26.9,0c-6.9,0-13.9,0-20.8-0.1
		c0.2,0,0.4,0,0.7,0c5,0,10,0,14.9,0c0.2,0,0.5,0,0.7,0c5.1,0,10.3,0,15.4,0c5.3,0,10.6,0,15.9,0c0.6,0,0.8,0.1,0.8,0.7
		C295.9,39.6,295.9,41.1,295.9,42.6z"/>
	<path fill="#9B711E" d="M295.8,43.1c0,0,0.1-0.1,0.1-0.1C295.9,43.1,295.9,43.1,295.8,43.1z"/>
	<path fill="#093363" d="M252.5,38.4c1.1,0,1.1,0,1.3,1.1c0.7,3.1,1.4,6.3,2.1,9.4c0.1,0.4,0,0.5-0.4,0.5c-0.3,0-0.7,0-1,0.2
		c-0.6,0.2-0.7-0.1-0.7-0.6c-0.1-1.2-0.2-1.2-1.4-1c-1.1,0.2-1.1,0.2-1.2,1.2c-0.1,0.8-0.1,0.8-1.2,1.1c-1,0.2-1,0.2-0.8-0.8
		c0.7-3.6,1.4-7.1,2.1-10.7c0.1-0.5,0.2-0.6,0.7-0.5C252.1,38.4,252.3,38.4,252.5,38.4z M252.5,41.9c0,0-0.1,0-0.1,0
		c-0.2,0.9-0.3,1.9-0.5,2.8c-0.1,1-0.1,1,0.9,0.8c0,0,0.1,0,0.1,0c0.2,0,0.2-0.1,0.2-0.3C252.9,44.1,252.7,43,252.5,41.9z"/>
	<path fill="#093363" d="M277.3,41.8c0,1.3,0,2.4,0,3.5c0,0.4-0.1,0.5-0.5,0.5c-1.4,0.3-1.4,0.3-1.4-1.1c0-1.9,0-3.9,0-5.8
		c0-0.4,0.1-0.5,0.5-0.5c1-0.1,1.7,0.2,2.1,1.1c0.4,0.9,1,1.7,1.7,2.5c0-0.3,0-0.6,0-0.9c0-0.7,0-1.4,0-2.2c0-0.4,0.1-0.6,0.5-0.5
		c1.4,0,1.4,0,1.4,1.4c0,1.6,0,3.2,0,4.8c0,0.4-0.1,0.5-0.5,0.6c0,0,0,0-0.1,0c-1,0.3-1.7,0.1-2.2-0.9
		C278.4,43.5,277.8,42.7,277.3,41.8z"/>
	<path fill="#093363" d="M271.3,38.4c1.1,0,1.1,0,1.4,1c0.6,2.1,1.3,4.2,2,6.3c0.1,0.4,0.1,0.6-0.3,0.6c-0.2,0-0.3,0.1-0.5,0.1
		c-0.3,0.1-0.7,0.2-1,0.1c-0.3-0.1-0.2-0.6-0.3-0.9c-0.1-0.2-0.2-0.3-0.4-0.3c-0.5,0.1-1.1,0.2-1.6,0.2c-0.3,0-0.3,0.2-0.3,0.4
		c-0.3,1.2-0.3,1.2-1.5,1.3c-0.1,0-0.2,0-0.3,0c-0.4,0.1-0.5,0.1-0.4-0.4c0.5-1.7,0.9-3.3,1.3-5c0.2-0.9,0.6-1.8,0.8-2.8
		c0.1-0.6,0.4-0.9,1-0.7C271.1,38.4,271.2,38.4,271.3,38.4z M271.3,41c0,0-0.1,0-0.1,0c-0.2,0.7-0.4,1.5-0.5,2.2
		c-0.1,0.3,0,0.5,0.4,0.4c0.2,0,0.3,0,0.5,0c0.3,0,0.4-0.1,0.3-0.4C271.6,42.4,271.5,41.7,271.3,41z"/>
	<path fill="#093363" d="M257.6,45.1c0-1.2,0-2.3,0-3.5c0-0.4-0.1-0.5-0.5-0.5c-0.5,0-1.2,0.3-1.5-0.1c-0.3-0.3-0.1-1-0.1-1.5
		c0-1.1,0-1.1,1.1-1.1c1.5,0,2.9,0,4.4,0c0.4,0,0.5,0.1,0.5,0.5c0,0.5,0,1,0,1.5c0,0.4-0.1,0.5-0.5,0.5c0,0-0.1,0-0.1,0
		c-0.4,0-1.1-0.1-1.3,0.1c-0.3,0.3-0.1,0.9-0.1,1.4c0,1.9,0,3.8,0,5.8c0,0.4-0.1,0.6-0.5,0.6c-0.3,0-0.7,0.1-1,0.2
		c-0.4,0.2-0.5-0.1-0.5-0.4C257.6,47.5,257.6,46.3,257.6,45.1z"/>
	<path fill="#093363" d="M262.4,43.4c0-1.5,0-3,0-4.4c0-0.4,0.1-0.5,0.5-0.5c1.5,0,1.5,0,1.5,1.4c0,1.7,0,3.5,0,5.2
		c0,0.4,0.2,0.5,0.5,0.5c0.7-0.1,1.5-0.2,2.2-0.3c0.3-0.1,0.4,0,0.4,0.3c0,0.5,0,1,0,1.5c0,0.3-0.2,0.4-0.4,0.5
		c-1.4,0.2-2.9,0.5-4.3,0.7c-0.4,0.1-0.4-0.1-0.4-0.4C262.5,46.4,262.4,44.9,262.4,43.4z"/>
	<path fill="#093363" d="M289.3,41c0-0.7,0-1.5,0-2.2c0-0.3,0.1-0.4,0.4-0.4c1.5,0,3,0,4.5,0c0.4,0,0.4,0.2,0.4,0.5
		c0,0.3,0,0.5-0.4,0.5c-0.9,0-1.7,0.1-2.6,0.1c-0.3,0-0.4,0.1-0.4,0.4c0,0.3,0.1,0.4,0.4,0.4c0.8-0.1,1.5-0.1,2.3-0.1
		c0.2,0,0.5,0,0.4,0.3c0,0.3,0.1,0.6-0.4,0.6c-0.7,0-1.5,0.2-2.2,0.2c-0.6,0-0.5,0.3-0.5,0.7c0,0.5,0.4,0.3,0.6,0.2
		c0.8-0.1,1.5-0.2,2.2-0.3c0.2,0,0.6-0.2,0.6,0.2c0,0.3,0.2,0.7-0.4,0.8c-1.6,0.2-3.1,0.5-4.6,0.8c-0.3,0.1-0.4-0.1-0.4-0.4
		C289.3,42.6,289.3,41.8,289.3,41z"/>
	<path fill="#093363" d="M285.4,38.4c0.9,0,1.7,0,2.6,0c0.3,0,0.5,0.1,0.5,0.4c0,0.9,0,0.9-0.9,1c-1.2,0.1-1.2,0.1-1.2,1.3
		c0,0.9,0,1.8,0,2.7c0,0.3-0.1,0.5-0.4,0.5c-0.4,0-0.8,0.1-1.1,0.2c-0.3,0.1-0.4,0-0.4-0.3c0-1.2,0-2.5,0-3.7c0-0.3-0.1-0.5-0.4-0.4
		c-0.2,0-0.4,0-0.6,0c-0.3,0-0.8,0.2-0.9-0.1c-0.2-0.4-0.1-0.9-0.1-1.3c0-0.3,0.3-0.2,0.4-0.2C283.7,38.4,284.5,38.4,285.4,38.4z"/>
	<path fill="#FEFDFD" d="M252.5,41.9c0.2,1.1,0.4,2.2,0.6,3.3c0,0.2,0,0.3-0.2,0.3c0,0-0.1,0-0.1,0c-1,0.1-1,0.1-0.9-0.8
		c0.1-0.9,0.3-1.9,0.5-2.8C252.4,41.9,252.5,41.9,252.5,41.9z"/>
	<path fill="#FEFDFD" d="M271.3,41c0.2,0.7,0.4,1.5,0.6,2.2c0.1,0.3,0,0.4-0.3,0.4c-0.2,0-0.3,0-0.5,0c-0.4,0.1-0.4-0.1-0.4-0.4
		c0.2-0.7,0.4-1.5,0.5-2.2C271.2,41,271.2,41,271.3,41z"/>
</g>
</svg>
