<?xml version="1.0" encoding="utf-8"?>
<!-- Generator: Adobe Illustrator 18.1.1, SVG Export Plug-In . SVG Version: 6.00 Build 0)  -->
<svg version="1.1" id="Layer_1" xmlns="http://www.w3.org/2000/svg" xmlns:xlink="http://www.w3.org/1999/xlink" x="0px" y="0px"
	 viewBox="0 0 800 1076.9" enable-background="new 0 0 800 1076.9" xml:space="preserve">
<g>
	<path fill="#FCC742" d="M259.5,302.6l-16,244.8h45.1l-8.8-105l-7,40.9C272.8,483.2,258.5,301.5,259.5,302.6z"/>
	<polyline fill="#A19F91" points="241,551.4 230,551.4 230,570.5 235,576.8 235,747 235,932.4 403,932.4 403,672.7 363.7,664.3 
		364.2,525.3 346.4,524.3 328.1,386.6 289.2,387.5 283.9,433.3 270.3,545.1 242.5,551.9 	"/>
	<rect x="106.5" y="764.3" fill="#B0AF9F" width="353" height="167.8"/>
	<rect x="136.2" y="757.6" fill="#26789E" width="117" height="13.9"/>
	<rect x="372.2" y="757.6" fill="#26789E" width="117" height="13.9"/>
	<rect x="136.2" y="771.3" opacity="0.1" width="117" height="3"/>
	<path fill="#26789E" d="M621.9,705.2h-29.5l1.3-2.9c8.9-20,15.6-41.1,19.8-63l8.4-43.7l8.4,43.8c4.2,21.8,10.8,42.9,19.7,62.8
		l1.4,3.1H621.9z"/>
	<rect x="596" y="705.2" fill="#B0AF9F" width="52.7" height="41.8"/>
	<rect x="495.2" y="656.9" fill="#C0C1B9" width="46" height="40.3"/>
	<rect x="483.6" y="696.8" fill="#C0C1B9" width="94.8" height="79.2"/>
	<rect x="449.2" y="771.8" fill="#B0AF9F" width="136.5" height="161.2"/>
	<rect x="418.6" y="541.7" fill="#A19F91" width="65" height="217.6"/>
	<rect x="437.2" y="416.3" fill="#B0AF9F" width="33" height="343.3"/>
	<rect x="437.2" y="435.3" fill="#979A93" width="33.1" height="5.6"/>
	<rect x="450.6" y="420.9" fill="#3D3D31" width="5.7" height="9.9"/>
	<polygon fill="#A19F91" points="329.4,510.6 361.9,519.4 361.9,374.5 329.4,374.5 	"/>
	<rect x="328.2" y="389.5" fill="#666666" width="34.1" height="5.6"/>
	<polygon fill="#26789E" points="269,517.1 363,517.2 363,531.4 269,531.4 	"/>
	<rect x="253.3" y="730.7" fill="#C0C1B9" width="119.4" height="201.6"/>
	<rect x="155.1" y="741.4" fill="#C0C1B9" width="78.6" height="24.2"/>
	<rect x="160.6" y="699.6" fill="#C0C1B9" width="67.7" height="27.8"/>
	<polygon fill="#979A93" points="224.8,780.1 164.4,780.1 155.4,764.3 234.1,764.3 	"/>
	<polygon fill="#26789E" points="160.4,727.5 229.4,727.5 239.6,743.2 149.8,743.2 	"/>
	<rect x="191.6" y="748.8" fill="#3D3D31" width="9.9" height="9.9"/>
	<rect x="217" y="748.8" fill="#3D3D31" width="9.9" height="9.9"/>
	<rect x="378" y="775.8" fill="#3D3D31" width="9.9" height="9.9"/>
	<rect x="165" y="748.8" fill="#3D3D31" width="9.9" height="9.9"/>
	<rect x="193.3" y="703" fill="#3D3D31" width="6.2" height="6.2"/>
	<rect x="265.3" y="814.2" fill="#3D3D31" width="6.2" height="6.2"/>
	<rect x="308.7" y="814.2" fill="#3D3D31" width="6.2" height="6.2"/>
	<rect x="352" y="814.2" fill="#3D3D31" width="6.2" height="6.2"/>
	<rect x="217.3" y="703" fill="#3D3D31" width="6.2" height="6.2"/>
	<rect x="275.5" y="536.1" fill="#3D3D31" width="6.2" height="6.2"/>
	<rect x="290.4" y="536.1" fill="#3D3D31" width="6.2" height="6.2"/>
	<rect x="305.3" y="536.1" fill="#3D3D31" width="6.2" height="6.2"/>
	<rect x="320.1" y="536.1" fill="#3D3D31" width="6.2" height="6.2"/>
	<rect x="335" y="536.1" fill="#3D3D31" width="6.2" height="6.2"/>
	<rect x="349.9" y="536.1" fill="#3D3D31" width="6.2" height="6.2"/>
	<rect x="169" y="703" fill="#3D3D31" width="6.2" height="6.2"/>
	<polygon fill="#C0C1B9" points="223.5,932.4 165.3,932.4 164.5,780.1 223.5,780.1 	"/>
	<rect x="160.4" y="711.7" fill="#979A93" width="67.8" height="4.6"/>
	<path fill="#26789E" d="M194.6,700.5H154l1.8-3.2c12.3-22.2,21.4-45.7,27.2-69.9l11.6-48.5l11.6,48.6c5.8,24.2,14.9,47.6,27.1,69.7
		l1.9,3.4H194.6z"/>
	<polygon fill="#C0C1B9" points="137.1,777.6 58.5,776.3 58.5,753.5 137.1,753.5 	"/>
	<rect x="64" y="711.7" fill="#C0C1B9" width="67.7" height="27.8"/>
	<polygon fill="#979A93" points="126.8,792.2 68.6,792.2 58.8,776.4 137.5,776.4 	"/>
	<polygon fill="#26789E" points="63.8,739.5 132.8,739.5 143,755.3 53.2,755.3 	"/>
	<rect x="95" y="760.9" fill="#3D3D31" width="9.9" height="9.9"/>
	<rect x="120.4" y="760.9" fill="#3D3D31" width="9.9" height="9.9"/>
	<rect x="68.4" y="760.9" fill="#3D3D31" width="9.9" height="9.9"/>
	<rect x="96.7" y="715.1" fill="#3D3D31" width="6.2" height="6.2"/>
	<rect x="120.7" y="715.1" fill="#3D3D31" width="6.2" height="6.2"/>
	<rect x="72.4" y="715.1" fill="#3D3D31" width="6.2" height="6.2"/>
	<rect x="68.7" y="792.2" fill="#C0C1B9" width="58.2" height="140.2"/>
	<rect x="63.8" y="723.7" fill="#979A93" width="67.8" height="4.6"/>
	<path fill="#26789E" d="M98,712.6H57.4l1.8-3.2c12.3-22.2,21.4-45.7,27.2-69.9L98,590.9l11.6,48.6c5.8,24.2,14.9,47.6,27.1,69.7
		l1.9,3.4H98z"/>
	<path fill="#26789E" d="M477.7,534.9h-15.1l0.7-1.4c4.6-9.6,8-19.9,10.1-30.4l4.3-21.1l4.3,21.1c2.2,10.5,5.5,20.7,10.1,30.3
		l0.7,1.5H477.7z"/>
	<path fill="#26789E" d="M345,376h-19.4l0.9-2.8c5.9-19.1,10.2-39.3,13-60.2l5.5-41.7l5.5,41.8c2.8,20.8,7.1,40.9,12.9,60l0.9,2.9
		H345z"/>
	<path fill="#26789E" d="M453.1,419.1h-19.4l0.9-2.8c5.9-19.1,10.2-39.3,13-60.2l5.5-41.7l5.5,41.8c2.8,20.8,7.1,40.9,12.9,60
		l0.9,2.9H453.1z"/>
	<rect x="299.5" y="494" fill="#3D3D31" width="6.9" height="14.4"/>
	<rect x="308.8" y="494" fill="#3D3D31" width="6.9" height="14.4"/>
	<rect x="299.5" y="485" fill="#3D3D31" width="6.9" height="7.6"/>
	<rect x="308.8" y="485" fill="#3D3D31" width="6.9" height="7.6"/>
	<rect x="299.5" y="461.1" fill="#3D3D31" width="6.9" height="7.6"/>
	<rect x="308.8" y="461.1" fill="#3D3D31" width="6.9" height="7.6"/>
	<rect x="299.5" y="451.2" fill="#3D3D31" width="6.9" height="7.6"/>
	<rect x="308.8" y="451.2" fill="#3D3D31" width="6.9" height="7.6"/>
	<rect x="465.3" y="535.2" fill="#C0C1B9" width="24.9" height="55.4"/>
	<rect x="464.8" y="547.1" fill="#979A93" width="25.7" height="3.5"/>
	<rect x="475.6" y="538.1" fill="#3D3D31" width="4.3" height="6.2"/>
	<path fill="#3D3D31" d="M350.5,882.1c0,15.1-24.5,19-39.6,19s-36.4-3-36.2-18.1c0.3-24,21.1-36.7,36.2-36.7
		S350.5,857.8,350.5,882.1z"/>
	<rect x="274.2" y="883" fill="#3D3D31" width="76.3" height="49.7"/>
	<path fill="#CCCCCC" d="M308.5,761.4c-0.2-7-6.5-14.1-14.4-14.1s-14.2,7.1-14.4,14.1H279v36h31v-36H308.5z"/>
	<path fill="#CCCCCC" d="M343.8,761.4c-0.2-7-6.5-14.1-14.4-14.1s-14.2,7.1-14.4,14.1h0v36h29v-36H343.8z"/>
	<path fill="#26789E" d="M269,518.2c0.9,0,19.5,0.3,19.5,0.3l3.1-124.2l5.3,38.7l12.1-39.9l10.8,39.9l6.8-38.1l-1.2,124.5H357
		l-28.2-144l-42.1,1.1L269,518.2z"/>
	<polygon fill="#666666" points="238.4,567.4 248.6,590.8 261.6,590.8 271.4,567.4 	"/>
	<polygon fill="#666666" points="465,589.4 472.9,607.3 482.8,607.4 490.3,589.4 	"/>
	<rect x="529.9" y="748.2" fill="#C0C1B9" width="36.8" height="81.8"/>
	<rect x="529.3" y="765.9" fill="#979A93" width="38" height="5.2"/>
	<rect x="545.1" y="752.5" fill="#3D3D31" width="6.4" height="9.2"/>
	<polygon fill="#979A93" points="529.6,827.4 541.1,854.4 555.8,854.2 566.9,827.4 	"/>
	<path fill="#C0C1B9" d="M312.1,603.9l33.7,130c0,0-66.3,0.6-66.3-0.6C279.6,732.1,306.5,603.9,312.1,603.9z"/>
	<polygon fill="#26789E" points="282.2,730.4 311.5,610.5 344,730.4 358.8,730.4 355.4,712.7 322.6,590.4 299.7,590.4 268.7,717.8 
		266.6,730.4 	"/>
	<circle fill="#F2F2F2" cx="312.9" cy="704.1" r="16.4"/>
	<rect x="238.4" y="479.4" fill="#B0AF9F" width="33" height="88.2"/>
	<rect x="362.8" y="508.6" fill="#C0C1B9" width="66.9" height="235.1"/>
	<rect x="365.3" y="308.2" fill="#C0C1B9" width="59.8" height="177.3"/>
	<rect x="238.4" y="498.5" fill="#666666" width="34.1" height="5.6"/>
	<rect x="270.9" y="545.6" fill="#666666" width="92.2" height="5.6"/>
	<rect x="253.6" y="831" fill="#979A93" width="118.7" height="5.6"/>
	<rect x="253.6" y="797.3" fill="#979A93" width="118.7" height="5.6"/>
	<rect x="253.6" y="730.4" fill="#979A93" width="118.7" height="5.6"/>
	<rect x="251.8" y="484.1" fill="#3D3D31" width="5.7" height="9.9"/>
	<rect x="333.7" y="379.7" fill="#3D3D31" width="5.9" height="6.6"/>
	<rect x="347" y="379.7" fill="#3D3D31" width="5.9" height="6.6"/>
	<rect x="393" y="535.5" fill="#3D3D31" width="6" height="21.8"/>
	<polygon fill="#666666" points="355.4,493.4 363.3,511.4 429.3,511.4 436.9,493.4 	"/>
	<rect x="363.8" y="485" fill="#666666" width="61.3" height="7.9"/>
	<path fill="#FCC742" d="M393.3,17l-16,245.4h45.1l-8.8-105.6l-7,40.9C406.5,197.7,392.2,16,393.3,17z"/>
	<path fill="#C0C1B9" d="M369,294.4v-80.6l10.9,32.5l5.4-30.7l6,30.2l8.3-13.9l4.2,13c0,0,2.3-37.2,1.8-35.3
		c-0.5,1.9,7.9,35.8,7.9,35.8l1.9-29.7l2.9,30.2l5.7-26.5v75H369z"/>
	<polygon fill="#979A93" points="357.3,290.4 364.5,308.4 425,308.4 431.9,290.4 	"/>
	<path fill="#26789E" d="M429.6,700.5H389l1.8-3.2c12.3-22.2,21.4-45.7,27.2-69.9l11.6-48.5l11.6,48.6c5.8,24.2,14.9,47.6,27.1,69.7
		l1.9,3.4H429.6z"/>
	<path fill="#26789E" d="M517.8,658.7h-29.5l1.3-2.9c8.9-20,15.6-41.1,19.8-63l8.4-43.7l8.4,43.8c4.2,21.8,10.8,42.9,19.7,62.8
		l1.4,3.1H517.8z"/>
	<rect x="390.1" y="741.4" fill="#C0C1B9" width="78.6" height="24.2"/>
	<rect x="395.6" y="699.6" fill="#C0C1B9" width="67.7" height="27.8"/>
	<polygon fill="#979A93" points="459.8,780.1 399.4,780.1 390,765.5 468.9,765.5 	"/>
	<polygon fill="#26789E" points="395.5,727.5 464.4,727.5 474.6,743.2 384.8,743.2 	"/>
	<rect x="426.6" y="748.8" fill="#3D3D31" width="9.9" height="9.9"/>
	<rect x="452" y="748.8" fill="#3D3D31" width="9.9" height="9.9"/>
	<rect x="400" y="748.8" fill="#3D3D31" width="9.9" height="9.9"/>
	<rect x="428.3" y="703" fill="#3D3D31" width="6.2" height="6.2"/>
	<rect x="452.3" y="703" fill="#3D3D31" width="6.2" height="6.2"/>
	<rect x="404" y="703" fill="#3D3D31" width="6.2" height="6.2"/>
	<rect x="527.5" y="671.4" fill="#3D3D31" width="6.2" height="6.2"/>
	<rect x="503.3" y="671.4" fill="#3D3D31" width="6.2" height="6.2"/>
	<rect x="400.3" y="780.1" fill="#C0C1B9" width="58.2" height="152.3"/>
	<rect x="395.4" y="711.7" fill="#979A93" width="67.8" height="4.6"/>
	<rect x="494.8" y="691.7" fill="#979A93" width="46.2" height="4.6"/>
	<rect x="483.6" y="707" fill="#979A93" width="95.4" height="4.6"/>
	<path fill="#26789E" d="M254.6,482.2h-19.4l0.9-1.8c5.9-12.4,10.2-25.5,13-39l5.5-27l5.5,27.1c2.8,13.5,7.1,26.5,12.9,38.8l0.9,1.9
		H254.6z"/>
	<rect x="580.2" y="773.7" fill="#A19F91" width="68.3" height="158.8"/>
	<path fill="#26789E" d="M548.3,747.8h-22.4l1-2.1c6.8-14.3,11.8-29.4,15-44.9l6.4-31.2l6.4,31.2c3.2,15.5,8.2,30.6,14.9,44.8l1,2.2
		H548.3z"/>
	<rect x="578.4" y="732.6" fill="#979A93" width="92" height="41.8"/>
	<rect x="611.1" y="671.3" fill="#B0AF9F" width="23.7" height="37.2"/>
	<polygon opacity="0.1" points="127,932.4 127,791.6 137,776.7 137,757.4 140.9,757.4 140.2,778.5 130,793.1 130,932.4 	"/>
	<polygon opacity="0.1" points="223,920.4 223,778.5 234,764.6 234,745.4 237,745.4 237,767.4 226,780.1 226,920.4 	"/>
	<rect x="390.5" y="465.5" fill="#3D3D31" width="6.9" height="14.4"/>
	<rect x="412.7" y="271.6" fill="#3D3D31" width="6.9" height="14.4"/>
	<rect x="402.8" y="277.2" fill="#3D3D31" width="7" height="8.8"/>
</g>
<g>
	<path fill="#CDCE74" d="M275.6,817.9c0,0-9.6,5.1-18.3,4.2c0,0,5.5,8.7,19.3,8C290.3,829.4,275.6,817.9,275.6,817.9z"/>
	<path fill="#CDCE74" d="M338.5,817.9c0,0,9.6,5.1,18.3,4.2c0,0-5.5,8.7-19.3,8C323.8,829.4,338.5,817.9,338.5,817.9z"/>
	<rect x="275" y="814.4" fill="#EEE49F" width="63" height="16"/>
	<g>
		<g>
			<path fill="#E6D97C" d="M199.2,771.9c0,0,10.9-5.2,15-2.2c4.3,3.1,8.3,10.5,16.1,2.7c0,0,4.1,8.7-9.6,11.4
				c-9.7,1.9-9.7-5.6-21.3,1.8L199.2,771.9z"/>
			<rect x="197.7" y="765.7" fill="#E6D97C" width="3.1" height="41"/>
			<circle fill="#E6D97C" cx="199.2" cy="765.1" r="4.1"/>
		</g>
		<g>
			<path fill="#CEC49C" d="M199.2,771.9c0,0,10.9-5.2,15-2.2c4.3,3.1,8.3,10.5,16.1,2.7c0,0,4.1,8.7-9.6,11.4
				c-9.7,1.9-9.7-5.6-21.3,1.8L199.2,771.9z"/>
			<rect x="197.7" y="765.7" fill="#BDB27C" width="3.1" height="41"/>
			<circle fill="#BDB27C" cx="199.2" cy="765.1" r="4.1"/>
		</g>
	</g>
	<g>
		<g>
			<path fill="#E6D97C" d="M405.4,770.9c0,0,10.9-5.2,15-2.2c4.3,3.1,8.3,10.5,16.1,2.7c0,0,4.1,8.7-9.6,11.4
				c-9.7,1.9-9.7-5.6-21.3,1.8L405.4,770.9z"/>
			<rect x="403.8" y="764.6" fill="#E6D97C" width="3.1" height="41"/>
			<circle fill="#E6D97C" cx="405.4" cy="764.1" r="4.1"/>
		</g>
		<g>
			<path fill="#CEC49C" d="M405.4,770.9c0,0,10.9-5.2,15-2.2c4.3,3.1,8.3,10.5,16.1,2.7c0,0,4.1,8.7-9.6,11.4
				c-9.7,1.9-9.7-5.6-21.3,1.8L405.4,770.9z"/>
			<rect x="403.8" y="764.6" fill="#BDB27C" width="3.1" height="41"/>
			<circle fill="#BDB27C" cx="405.4" cy="764.1" r="4.1"/>
		</g>
	</g>
	<g>
		<g>
			<path fill="#E6D97C" d="M238.7,755.8c0,0,10.9-5.2,15-2.2c4.3,3.1,8.3,10.5,16.1,2.7c0,0,2.1,11-11.9,11.5
				c-14,0.5-7.4-8.4-18.9-1L238.7,755.8z"/>
			<rect x="237.1" y="749.6" fill="#E6D97C" width="3.1" height="41"/>
			<circle fill="#E6D97C" cx="238.7" cy="749.1" r="4.1"/>
		</g>
		<g>
			<path fill="#CEC49C" d="M238.7,755.8c0,0,10.9-5.2,15-2.2c4.3,3.1,8.3,10.5,16.1,2.7c0,0,2.1,11-11.9,11.5
				c-14,0.5-7.4-8.4-18.9-1L238.7,755.8z"/>
			<rect x="237.1" y="749.6" fill="#BDB27C" width="3.1" height="41"/>
			<circle fill="#BDB27C" cx="238.7" cy="749.1" r="4.1"/>
		</g>
	</g>
	<g>
		<g>
			<path fill="#E6D97C" d="M279.1,749.6c0,0,10.9-5.2,15-2.2c4.3,3.1,8.3,10.5,16.1,2.7c0,0,2.1,11-11.9,11.5
				c-14,0.5-7.4-8.4-18.9-1L279.1,749.6z"/>
			<rect x="277.6" y="743.4" fill="#E6D97C" width="3.1" height="41"/>
			<circle fill="#E6D97C" cx="279.1" cy="742.8" r="4.1"/>
		</g>
		<g>
			<path fill="#CEC49C" d="M279.1,749.6c0,0,10.9-5.2,15-2.2c4.3,3.1,8.3,10.5,16.1,2.7c0,0,2.1,11-11.9,11.5
				c-14,0.5-7.4-8.4-18.9-1L279.1,749.6z"/>
			<rect x="277.6" y="743.4" fill="#BDB27C" width="3.1" height="41"/>
			<circle fill="#BDB27C" cx="279.1" cy="742.8" r="4.1"/>
		</g>
	</g>
	<g>
		<g>
			<path fill="#E6D97C" d="M322.7,747.3c0,0,10.9-5.2,15-2.2c4.3,3.1,8.3,10.5,16.1,2.7c0,0,2.1,11-11.9,11.5
				c-14,0.5-7.4-8.4-18.9-1L322.7,747.3z"/>
			<rect x="321.1" y="741" fill="#E6D97C" width="3.1" height="41"/>
			<circle fill="#E6D97C" cx="322.7" cy="740.5" r="4.1"/>
		</g>
		<g>
			<path fill="#CEC49C" d="M322.7,747.3c0,0,10.9-5.2,15-2.2c4.3,3.1,8.3,10.5,16.1,2.7c0,0,2.1,11-11.9,11.5
				c-14,0.5-7.4-8.4-18.9-1L322.7,747.3z"/>
			<rect x="321.1" y="741" fill="#BDB27C" width="3.1" height="41"/>
			<circle fill="#BDB27C" cx="322.7" cy="740.5" r="4.1"/>
		</g>
	</g>
	<g>
		<g>
			<path fill="#E6D97C" d="M366.5,755.8c0,0,10.9-5.2,15-2.2c4.3,3.1,8.3,10.5,16.1,2.7c0,0,2.1,11-11.9,11.5
				c-14,0.5-7.4-8.4-18.9-1L366.5,755.8z"/>
			<rect x="364.9" y="749.6" fill="#E6D97C" width="3.1" height="41"/>
			<circle fill="#E6D97C" cx="366.5" cy="749.1" r="4.1"/>
		</g>
		<g>
			<path fill="#CEC49C" d="M366.5,755.8c0,0,10.9-5.2,15-2.2c4.3,3.1,8.3,10.5,16.1,2.7c0,0,2.1,11-11.9,11.5
				c-14,0.5-7.4-8.4-18.9-1L366.5,755.8z"/>
			<rect x="364.9" y="749.6" fill="#BDB27C" width="3.1" height="41"/>
			<circle fill="#BDB27C" cx="366.5" cy="749.1" r="4.1"/>
		</g>
	</g>
	<path fill="#242951" d="M458.6,852.3c-88.7-43.6-184.6-53.9-288.9,0c-4.6-10-9.3-20-13.9-30c78.7-57.6,213.5-64.4,316.6,0
		C467.8,832.3,463.2,842.3,458.6,852.3z"/>
	<path fill="#E6D97C" d="M457,848.6c-89.5-51.1-199.3-51.1-288.9,0c-4.6-8.1-9.3-16.2-13.9-24.3c98.1-56,218.5-56,316.6,0
		C466.2,832.4,461.6,840.5,457,848.6z"/>
	<circle fill="#E6D97C" cx="468.9" cy="798.6" r="14.4"/>
	<rect x="454.5" y="813.9" fill="#A13726" width="28" height="120.4"/>
	<rect x="454.3" y="913.8" fill="#F2F2F2" width="28.1" height="1"/>
	<rect x="454.3" y="894.4" fill="#F2F2F2" width="28.1" height="1"/>
	<rect x="454.3" y="874.9" fill="#F2F2F2" width="28.1" height="1"/>
	<rect x="454.3" y="855.5" fill="#F2F2F2" width="28.1" height="1"/>
	<rect x="454.3" y="835.3" fill="#F2F2F2" width="28.1" height="1"/>
	<rect x="452.9" y="809.3" fill="#39B5AB" width="31.1" height="5.4"/>
	<circle fill="#E6D97C" cx="158.2" cy="798.6" r="14.4"/>
	<rect x="143.8" y="813.9" fill="#A13726" width="28" height="120.4"/>
	<rect x="143.7" y="913.8" fill="#F2F2F2" width="28.1" height="1"/>
	<rect x="143.7" y="894.4" fill="#F2F2F2" width="28.1" height="1"/>
	<rect x="143.7" y="874.9" fill="#F2F2F2" width="28.1" height="1"/>
	<rect x="143.7" y="855.5" fill="#F2F2F2" width="28.1" height="1"/>
	<rect x="143.7" y="835.3" fill="#F2F2F2" width="28.1" height="1"/>
	<rect x="142.3" y="809.3" fill="#39B5AB" width="31.1" height="5.4"/>
	<g>
		<path fill="#765D73" d="M292.7,823.4l-0.5,4.5h-1.8l-0.9-8.4h1.3l0.7,6.6l0.6-6.6h1.3l0.7,6.7l0.7-6.7h1.2l-0.9,8.4h-1.8
			L292.7,823.4z"/>
		<path fill="#765D73" d="M297.8,823h1.8v1.2h-1.8v2.5h2.3v1.2h-3.6v-8.4h3.6v1.2h-2.3V823z"/>
		<path fill="#765D73" d="M300.9,819.5h1.3v7.2h2.2v1.2h-3.5V819.5z"/>
		<path fill="#765D73" d="M308.8,824.8v1.1c0,0.7-0.2,1.2-0.5,1.6c-0.3,0.4-0.8,0.5-1.5,0.5s-1.1-0.2-1.5-0.5
			c-0.3-0.4-0.5-0.9-0.5-1.6v-4.4c0-0.7,0.2-1.2,0.5-1.6c0.3-0.4,0.8-0.5,1.5-0.5s1.1,0.2,1.5,0.5c0.3,0.4,0.5,0.9,0.5,1.6v0.8h-1.2
			v-0.9c0-0.3-0.1-0.5-0.2-0.6c-0.1-0.1-0.3-0.2-0.5-0.2c-0.2,0-0.4,0.1-0.5,0.2c-0.1,0.1-0.2,0.3-0.2,0.6v4.5
			c0,0.3,0.1,0.5,0.2,0.6c0.1,0.1,0.3,0.2,0.5,0.2c0.2,0,0.4-0.1,0.5-0.2c0.1-0.1,0.2-0.3,0.2-0.6v-1.2H308.8z"/>
		<path fill="#765D73" d="M309.5,821.5c0-0.7,0.2-1.2,0.5-1.6c0.3-0.4,0.8-0.5,1.5-0.5c0.6,0,1.1,0.2,1.5,0.5
			c0.3,0.4,0.5,0.9,0.5,1.6v4.4c0,0.7-0.2,1.2-0.5,1.6c-0.3,0.4-0.8,0.5-1.5,0.5c-0.6,0-1.1-0.2-1.5-0.5c-0.3-0.4-0.5-0.9-0.5-1.6
			V821.5z M310.8,826c0,0.3,0.1,0.5,0.2,0.6c0.1,0.1,0.3,0.2,0.5,0.2c0.2,0,0.4-0.1,0.5-0.2c0.1-0.1,0.2-0.3,0.2-0.6v-4.5
			c0-0.3-0.1-0.5-0.2-0.6c-0.1-0.1-0.3-0.2-0.5-0.2c-0.2,0-0.4,0.1-0.5,0.2c-0.1,0.1-0.2,0.3-0.2,0.6V826z"/>
		<path fill="#765D73" d="M317.2,825.5l0.9-6h1.8v8.4h-1.2v-6l-0.9,6h-1.2l-1-5.9v5.9h-1.2v-8.4h1.8L317.2,825.5z"/>
		<path fill="#765D73" d="M322.2,823h1.8v1.2h-1.8v2.5h2.3v1.2h-3.6v-8.4h3.6v1.2h-2.3V823z"/>
	</g>
	<path fill="#B93435" d="M228.5,792.9c-0.7,0.1-1.6,0.1-1.6-0.4c-0.3-3,5-3.7,7.3-3.9c3-0.3,6.9,0.3,10.2,1.1
		c5.1,1.3,15.6,6.3,16.3,13c0.6,6-5.6,9.5-11.6,10.1c-1.5,0.1-3.4,0.1-4.9,0c-0.1,0.4-0.1,0.6-0.3,1.4c-0.4,0.1-0.7,0.2-1.1,0.2
		l-0.8,0c-0.6-0.5-0.8-1.5-1.1-2.5c-3.2-1.5-5.3-2.7-6.3-3.7c-0.8-0.7-1.8-1.7-1.9-2.7c-0.1-0.5,0.2-1,0.9-1.6
		c1.4-1.3,3.4-2.1,6.5-3l-0.1-1.4c0-0.3,0-3.9,0.7-4.6c1.3,0.9,1.5,1.9,1.8,3.4c0.1,0.7,0.2,1.3,0.4,2.1l0.5,0
		c2.3-0.2,9.4-0.3,9.8,3c0.1,0.8-0.9,2.4-2.1,2.5c-0.4,0-1.1-0.1-1.5-0.3c0.4-0.6,1.1-1.2,1.3-1.6c-0.7-0.7-4.4-1.3-7-1
		c-0.4,0-0.6,0.1-0.9,0.1l0.7,7.2c1.1,0.6,2.4,0.5,3.2,0.4c3.6-0.4,11.1-1.7,10.5-7.6c-0.6-5.8-8.4-9.6-14.2-11.1
		c-4-1.1-7.8-1.5-12.1-1.1c-0.9,0.1-1.8,0.2-2.7,0.6c-0.5,0.2-0.7,0.3-0.7,0.5c0,0.2,1.2,0.3,1.3,0.3c0.1,0.1,0.2,0.1,0.2,0.2
		c0,0.1,0,0.2-0.1,0.3C229.2,792.8,228.9,792.9,228.5,792.9z M240.4,803.4c-3.2,0.6-6.8,1.3-6.7,2.4c0.1,0.9,1.7,1.8,2.7,2.4
		c1.1,0.8,2.8,1.4,4.3,1.6L240.4,803.4z"/>
	<path fill="#B93435" d="M267.4,789c0.6-0.1,1.9,0.4,2,1.6c0.2,2.5-3.8,5.9-6,6.1c-0.7,0.1-1.5,0-2.1-0.1c-0.3,0.5-0.4,0.8-0.9,1
		c-0.3,0-0.8-0.6-1-1.3c0-0.2,0-0.4,0-0.6c-0.6-0.6-1-1.2-1.1-1.9c-0.2-2.2,2.8-5.4,5.9-5.7c1.5-0.1,2.7,0.3,2.9,1
		C267.3,789,267.4,789,267.4,789z M260.2,793.6c0.1,0,0.1,0,0.2-0.1c0.4-0.6,1.6-2.1,2.3-2.9l0,0c0,0,0-0.1-0.1-0.2
		c-1.6,0.5-2.5,1.8-2.5,3.1C260.1,793.6,260.2,793.6,260.2,793.6z M264.1,800.5c0.3,2.7,0.9,5.4,1.1,8.1c0.1,0.5-0.1,1.2-0.9,1.3
		c-0.3,0-0.7,0-0.9-0.1c-0.4-0.1-0.8-1.4-0.8-1.7c-0.2-1.7-0.1-1.7-0.2-3.5c0-0.5-0.1-2.3,0-5.7c0-0.2,0-0.2,0.2-0.3
		C263.6,798.6,263.9,799.2,264.1,800.5z M262.5,794.8l0.7-0.1c1.6-0.2,4.9-1.6,4.7-3.6c0-0.5-0.1-0.8-0.9-0.7
		c-1.9,0.2-3.6,2.2-4.8,4.2C262.2,794.6,262.4,794.8,262.5,794.8z"/>
	<path fill="#B93435" d="M267.9,801.2C267.9,801.2,267.9,801.2,267.9,801.2c1.4,0.4,2.2,0.5,3.5,0.4c2.3-0.1,5.6-0.3,5.9,2.7
		c0.4,3.6-3.6,4.1-4.6,4.3c-2.8,0.3-5.5-1.3-5.6-2.6c-0.2-1.6,1.5-2.2,2.8-2.3c1.3-0.1,2.9,0,4.4,0.6c0,0,0.1,0.1,0.1,0.1
		c0,0.1,0,0.2,0,0.2c-0.2,0.3-1,0.8-1.8,0.8c-1,0.1-2.4-0.6-3.6-0.4c-0.5,0-1,0.2-0.9,0.9c0.1,0.8,1.6,0.7,2.8,0.6
		c0.6-0.1,5.1-1,5-2.3c-0.1-1.2-3.6-1.3-5-1.2c-3.8,0.3-4.3-0.1-4.5-1.5c-0.3-3.1,5.9-3.9,6.2-4c1.6-0.2,3.2,0,4.3,0.1
		c0.2,0,0.4,0.1,0.4,0.5c0,0.4-0.3,0.7-0.7,0.8c-0.3,0.1-0.8,0.2-1.1,0.3c-1.1,0.3-4.5,0.7-5.6,1c-1.1,0.3-1.5,0.4-1.8,0.7
		C267.9,801.1,267.9,801.1,267.9,801.2z"/>
	<path fill="#B93435" d="M283.6,795.5c0-0.3,0-0.7,0.3-0.7c0.9-0.1,3.9,2.9,4.3,7.5c0.2,2-0.5,4.5-2.1,4.7c-1.9,0.2-4.5-5.7-5-5.7
		c-0.1,0-0.2,0.1-0.2,0.4c-0.1,0.4,0.2,3.9,0.1,4.9c-0.1,0.5-0.1,1.6-0.8,1.6c-1.1,0.1-1.5-1.7-1.5-2.5c-0.2-1.7,0.1-7.9,1.5-8
		c1-0.1,3.4,3.8,5.3,5.8c0.1,0.1,0.2,0.2,0.3,0.2c0.2,0,0.2-0.3,0.1-0.9c-0.3-3-1-3.9-2.1-6.9l-0.1-0.4L283.6,795.5z"/>
	<path fill="#B93435" d="M297.2,804.9c-0.8,0.8-2.7,2.5-4.9,2.7c-1.8,0.2-2.8-1.1-2.9-2.5c-0.1-0.8,0.3-1.8,0.5-2.9
		c-0.1-0.3-0.3-0.5-0.3-0.8c0-0.3,0.1-0.4,0.1-0.7c0.3-0.1,0.5-0.3,0.8-0.3l0.6-1.9c-0.8-0.3-2-0.6-2-1.3c0-0.4,0.3-0.5,0.8-0.6
		c1.4-0.2,2.9-1,5.6-1.2c0.3,0,0.7,0,1.4,0.1c0.3,0.3,1.2,1,1.2,1.5c0,0.3-1.1,0.8-1.7,0.9c-1.4,0.2-1.7,0.2-2.6,0.4
		c-0.2,0-0.3,0-0.5,0.1c-0.1,0.1-0.3,0.6-0.3,1.4c0,0.1,0.1,0.3,0.3,0.3l2.4-0.2l0.5,0c0.2,0.2,0.3,0.6,0.3,0.9c0,0.3,0,0.8-0.3,0.8
		c-0.6,0.1-2.1,0.3-3.7,0.5c-0.1,0-0.1,0-0.2,0.2c-0.1,0.7-0.3,1.5-0.6,2.3c0.2,0,1.4-0.5,3.5-0.9c0.3-0.1,0.8-0.1,1.1-0.2
		c0.4,0,0.9,0.5,0.9,0.9C297.4,804.6,297.4,804.8,297.2,804.9z"/>
	<path fill="#B93435" d="M300.2,816c-1.3,0-2.3-1-2.5-2.4c-0.1-0.6,0.1-4.2,1.5-8.8c-0.4-0.8-0.8-1.6-0.8-2.3
		c-0.3-3.4,2.6-7.7,3.2-7.9c0.5,0,0.6,0.3,0.6,0.9c0.1,0.7-0.3,1.1-1.2,2.8c-0.4,0.9-1.1,2.3-1,3.5c0,0.1,0,0.3,0.1,0.4l0.1,0
		c0,0,0.1,0,0.1-0.1c1.4-2.3,4.3-6.5,5.9-6.7c1.7-0.2,2.4,2.6,2.5,3.9c0.4,3.9-4.2,7.1-6.4,7.4c-0.2,0-0.5,0.1-0.7,0.1
		c-0.9,3.9-1,5.5-1.5,9.2L300.2,816z M306.3,801.6c0.8-0.9,1.2-2,1.1-3.4c0-0.4-0.1-0.9-0.5-0.9c-0.6,0.1-1.7,1.7-2.1,2.3
		c-0.3,0.5-1.4,3.2-1.6,3.7C304.3,803.2,305.4,802.6,306.3,801.6z"/>
	<path fill="#B93435" d="M327.8,799.8c-0.5-0.7-1.4-2-1.4-2.4c0.2-0.9,1.1-1.5,1.7-2.2c0.1-0.4,0.2-1.2,0.3-2
		c0.2-1.6,0.3-3.6-0.7-4.2c-1.9,1-2.7,1.4-3.9,2.7c-0.2,0.2-0.4,0.6-0.7,0.6c-0.4-0.1-0.6-0.5-0.6-0.9c0-0.3,0.1-0.5,0.2-0.7
		c2-1.8,4.6-3.2,7-4.3c3.2-1.4,6.7-2.3,10.2-1.8c2.8,0.4,6.9,2.3,6.5,5.2c-0.4,2.7-1.6,4.4-3.1,5.8c1.8,1.4,3.6,4.2,3.3,6.5
		c-1,6.7-8.6,7.4-14.2,6.6c-2-0.3-5.9-1.1-5.5-3.8L327.8,799.8z M331.5,793.8c1.8-0.4,4.3-0.4,6.3-0.1c1.6,0.2,2.9,0.7,3.5,1
		c1.3-0.9,2.4-2.5,2.6-4c0.4-2.5-2.3-3.4-4.3-3.7c-1.8-0.3-3.9-0.1-6,0.3c-0.4,0.1-2.9,0.6-2.9,1.1
		C331.9,790.1,331.5,791.9,331.5,793.8z M333.3,806.2c3.4,0.4,10.1-0.4,10.7-4.8c0.2-1.2,0.3-2.6-2.4-4.3c-0.7,0.5-1.5,1.1-2.3,1.4
		c-0.7,0.3-3.2,1.1-3.5,1.2c-0.7,0.2-4.2,0.3-4.9,0.4c-0.4,0.1-0.5,0.5-0.6,0.9l-0.2,1.3c1.2-0.5,3.7-0.5,5-0.3
		c0.5,0.1,1.3,0.2,1.3,0.8c-0.1,0.8-5.9-0.4-6.4,1.8C329.8,805.7,332.8,806.2,333.3,806.2z M331.2,797.5c0.3,0.1,0.7,0.2,0.9,0.2
		c1.1,0.2,6.6-0.9,7.3-1.4c-0.9-0.5-2.4-0.7-2.8-0.8c-1.2-0.2-3,0-3.9,0.2c-0.3,0.1-0.9,0.2-1.4,0.6L331.2,797.5z"/>
	<path fill="#B93435" d="M347.8,810.1c-0.7-0.1-1.5-0.8-1.4-1.8c0.4-2.8,1-4.4,2.2-7c0.2-0.5,0.9-0.6,1.4-0.5
		c0.5,0.1,0.8,0.3,0.8,0.7c-1,2.7-1.6,5.3-2.1,8C348.6,809.9,348.2,810.1,347.8,810.1z M348.5,799.8c0.1-0.8,2.3-1.3,3.2-1.2
		c3.9,0.6,6,2.6,5.5,5.8c-0.2,1.1-0.9,1.9-1.8,2.5c0.7,1.1,1.1,2.4,1.7,3.7c0.1,0.2,0.1,0.4,0.1,0.6c-0.1,0.7-0.7,1.1-1.1,1
		c-0.1,0-0.2-0.1-0.3-0.2c-0.1-0.1-1.3-2.6-2.4-4.4c-0.6,0.1-1.3,0.1-1.9,0c-1-0.1-1.7-1-1.5-1.9c0.1-0.6,1.2-1.1,2-1
		c0.8,0.1,1.5,0.4,2,0.7c0.5-0.5,0.9-1,0.9-1.5c0.4-2.5-2.4-3.4-4-3.6c-0.7-0.1-1.3,0.2-1.8,0.2C348.7,800.3,348.5,800,348.5,799.8z
		 M352.6,806.4c-0.3-0.4-0.4-0.5-0.9-0.6c-0.4,0-0.6,0.1-0.7,0.3c0,0.3,0.3,0.5,0.5,0.5C351.8,806.7,352.1,806.7,352.6,806.4z"/>
	<path fill="#B93435" d="M358.1,805.9c0.5-3.5,3.9-5.7,7.2-5.2c0.7,0.1,1.3,0.3,1.7,0.5c0.5,0.3,0.8,0.6,0.7,0.8
		c0,0.3-0.4,0.3-0.7,0.3l0,0c0.7,0.1,1.5,0.4,2.1,0.9c0.5,0.4,0.7,1.9,0.6,2.8c-0.6,4-5.3,6.1-9.2,5.7c-0.2,0.4-0.6,0.6-1.1,0.9
		c-0.5-0.9-0.8-1.8-0.7-2.3l0-0.1C358.1,808.6,358,807.2,358.1,805.9z M366.1,802.2c-0.5,0-1,0.1-1.5,0.2c-2.8,0.3-4.4,2.4-4.7,4.4
		c0,0.3-0.1,0.7,0,1c1.9-3.4,3.5-5.2,5.4-5.5C365.6,802.3,365.9,802.2,366.1,802.2z M361.9,809l0.4,0.1c1.7,0.2,5.3-1.3,5.6-3.6
		c0.1-0.7-0.4-1.1-1.2-1.2C365.1,804,363.6,806,361.9,809z M366.1,802.2c0.1,0,0.1,0,0.2,0C366.2,802.2,366.2,802.2,366.1,802.2z"/>
	<path fill="#B93435" d="M372.2,805.2C372.2,805.2,372.3,805.2,372.2,805.2c1.2,0.7,2,1,3.3,1.2c2.2,0.5,5.5,1,5.1,4.1
		c-0.5,3.5-4.5,3.2-5.5,3c-2.8-0.4-5-2.5-4.8-3.9c0.2-1.6,2-1.8,3.3-1.6c1.2,0.2,2.8,0.7,4.1,1.6c0,0,0.1,0.1,0,0.1
		c0,0.1-0.1,0.2-0.1,0.2c-0.3,0.2-1.1,0.5-2,0.4c-1-0.1-2.2-1.1-3.4-1.3c-0.5-0.1-1,0-1.1,0.7c-0.1,0.8,1.4,1,2.5,1.2
		c0.6,0.1,5.2,0.2,5.4-1c0.2-1.1-3.2-2.1-4.6-2.4c-3.8-0.6-4.2-1.1-4-2.5c0.4-3.1,6.7-2.4,7-2.4c1.6,0.2,3.1,0.7,4.1,1.2
		c0.2,0.1,0.3,0.2,0.3,0.5c-0.1,0.4-0.4,0.6-0.8,0.7c-0.3,0-0.8,0-1.1,0c-1.2,0-4.6-0.3-5.6-0.3c-1.1,0-1.6,0.1-1.9,0.2
		C372.3,805.1,372.2,805.1,372.2,805.2z"/>
</g>
<g>
	<path fill="#231F20" d="M692.6,986.8c0,0,21.6,3.1,26.8,25l-2.7,2.7c0,0-5-17.3-24-23V986.8z"/>
	<path fill="#E6E7E8" d="M731.9,1015.4c10,25.4-1.4,28.6-5.6,28.3s-4.7-15.2-4.7-15.2s0.7,6.2-2.5,6c-3.3-0.3-4.5-7.5-4.5-7.5
		s-3-11.8,5-14.4C727.4,1010,731.9,1015.4,731.9,1015.4z"/>
	<path fill="#BCBEC0" d="M712.5,1014.6c-0.9-1.7-0.5-3.7,1-4.5l4.8-2.6c1.5-0.8,3.4-0.1,4.3,1.6l0,0c0.9,1.7,0.5,3.7-1,4.5l-4.8,2.6
		C715.4,1017,713.4,1016.3,712.5,1014.6L712.5,1014.6z"/>
	<path fill="#231F20" d="M642.6,958.5c0,0,15.6,28,40,27.2l-1.7,5.9c0,0-31,0.9-41.4-32.9"/>
	<path fill="#231F20" d="M698.4,1032.3l2.8,23.9h-5.4l-4.4-23.9C691.4,1032.3,698,1028.8,698.4,1032.3z"/>
	<path fill="#FFF200" d="M695.8,1056.2c0,0,28-14.1,28.1,7.4h-28.1C695.8,1063.6,693.3,1058.6,695.8,1056.2z"/>
	<path fill="#C1B308" d="M694.4,1055.3c0.5,1.3,1.9,1.9,3.2,1.5l4.1-1.5c1.3-0.5,1.9-1.9,1.4-3.2l0,0c-0.5-1.3-1.9-1.9-3.2-1.5
		l-4.1,1.5C694.5,1052.5,693.9,1054,694.4,1055.3L694.4,1055.3z"/>
	<path fill="#231F20" d="M674.3,1032.3l-2.8,23.9h5.4l4.4-23.9C681.3,1032.3,674.7,1028.8,674.3,1032.3z"/>
	<circle fill="#231F20" cx="685.8" cy="960.8" r="26"/>
	<circle fill="#231F20" cx="658.2" cy="929" r="20.4"/>
	<circle fill="#231F20" cx="711.8" cy="931.3" r="20.4"/>
	<polygon fill="#BE1E2D" points="699.3,1012 705.1,1038.9 688.3,1038.9 687.3,1032.1 686,1038.9 669.6,1038.9 674.6,1012 	"/>
	<circle fill="#FFFFFF" cx="680.4" cy="1023.2" r="4.2"/>
	<circle fill="#FFFFFF" cx="695.6" cy="1023.2" r="4.2"/>
	<path fill="#231F20" d="M674.6,1012c0,0-3.2-28,11.3-28s13.4,28,13.4,28H674.6z"/>
	<path fill="#FFF200" d="M676.9,1056.2c0,0-28-14.1-28.1,7.4h28.1C676.9,1063.6,679.4,1058.6,676.9,1056.2z"/>
	<path fill="#C1B308" d="M678.4,1055.3c-0.5,1.3-1.9,1.9-3.2,1.5l-4.1-1.5c-1.3-0.5-1.9-1.9-1.4-3.2l0,0c0.5-1.3,1.9-1.9,3.2-1.5
		l4.1,1.5C678.2,1052.5,678.8,1054,678.4,1055.3L678.4,1055.3z"/>
	<path fill="#E6E7E8" d="M628.7,957.1c-10-25.4,1.4-28.6,5.6-28.3s4.7,15.2,4.7,15.2s-0.7-6.2,2.5-6c3.3,0.3,4.5,7.5,4.5,7.5
		s3,11.8-5,14.4C633.2,962.5,628.7,957.1,628.7,957.1z"/>
	<path fill="#331A0A" d="M555.9,1058.3h6.9c0,0,2.7,8.7-6.3,9.3h-11.7c0,0-2.6-5.5,4.4-5.9C549.2,1061.6,555.2,1060.6,555.9,1058.3z
		"/>
	<path fill="#331A0A" d="M604.3,1058.3h-6.9c0,0-2.7,8.7,6.3,9.3h11.7c0,0,2.6-5.5-4.4-5.9C611,1061.6,604.9,1060.6,604.3,1058.3z"
		/>
	<polygon fill="#58595B" points="557.8,909.3 555,1059.3 565.5,1059.3 584.8,934.8 593.3,1058.3 606.3,1058.3 609,908.6 	"/>
	<path fill="#6D6E71" d="M538.2,813.4c0,0,34.5-14.1,88.2,0l-16.2,95.2c0,0-20.3,1.7-54.3,0L538.2,813.4z"/>
	<path fill="#D89F79" d="M525.7,926.5c-5.1,19.7,3.6,21.1,6.7,20.5s2.1-11.7,2.1-11.7s0,4.7,2.4,4.2c2.4-0.5,2.7-6,2.7-6
		s1.2-9-5-10.2S525.7,926.5,525.7,926.5z"/>
	<polygon fill="#6D6E71" points="538.2,813.4 525.7,928.1 538.7,928.1 549,853.8 	"/>
	<path fill="#D89F79" d="M639.3,926c5.1,19.7-3.6,21.1-6.7,20.5s-2.1-11.7-2.1-11.7s0,4.7-2.4,4.2c-2.4-0.5-2.7-6-2.7-6
		s-1.2-9,5-10.2S639.3,926,639.3,926z"/>
	<polygon fill="#6D6E71" points="626.8,812.9 639.3,927.6 626.3,927.6 616,853.3 	"/>
	<path fill="#6D6E71" d="M556,907v37.8c0,0,25.5-0.2,29.1-37C585.1,907.7,572.9,892.6,556,907z"/>
	<path fill="#6D6E71" d="M611.1,907v37.8c0,0-25.5-0.2-29.1-37C582,907.7,594.2,892.6,611.1,907z"/>
	<path fill="#58595B" d="M583.3,863l23.6-17.5l-6.7-12.1l15.7-2.6c0,0-0.6-22.8-30.5-23.6L583.3,863z"/>
	<path fill="#58595B" d="M583.3,863l-26.9-19l6.7-12.1l-15.7-2.6c0,0,0.6-22.8,30.5-23.6L583.3,863z"/>
	<path fill="#BCBEC0" d="M566.3,812.9l17,50.1l16.9-48.3C600.3,814.7,583.1,803.4,566.3,812.9z"/>
	<path fill="#D89F79" d="M600.3,758.3V799h-6.2v13.4c0,0-6.9,13.6-23.9,0v-27.8c0,0-5.1-1-5.1-6.9s5.9-3.1,5.9-3.1v-16.2H600.3z"/>
	<path fill="#231F20" d="M570.9,774.5l0.8,2.2h2.1l3.2-18.4h-9.6v15.6C567.3,773.9,570.1,774.1,570.9,774.5z"/>
	<polygon fill="#9E192A" points="580.7,818.4 587.8,818.4 588.5,823.3 579.6,823.3 	"/>
	<polygon fill="#9E192A" points="581,823.3 577.6,846 583.3,863 589,846.9 586.5,823.3 	"/>
	<path fill="#231F20" d="M567.3,773.9c0,0-6-18.2,3.5-19c0,0,4.9-1.9,6.1,3.4L567.3,773.9z"/>
	<path fill="#231F20" d="M577,758.3h23.3v3.1c0,0,6.8-9-0.8-10.6c-7.6-1.6-27.2-5.3-28.9,9.5"/>
	<path fill="#231F20" d="M582.6,785.1H598C598,785.1,591.5,778.3,582.6,785.1z"/>
	<path fill="#BCBEC0" d="M648.1,957.9c0.9,1.7,0.5,3.7-1,4.5l-4.8,2.6c-1.5,0.8-3.4,0.1-4.3-1.6l0,0c-0.9-1.7-0.5-3.7,1-4.5l4.8-2.6
		C645.2,955.5,647.2,956.2,648.1,957.9L648.1,957.9z"/>
	<ellipse fill="#FFC9AB" cx="685.6" cy="973.1" rx="17.6" ry="12.3"/>
	<path fill="#FFC9AB" d="M699.3,966.9c0,0,7.2-10.4,2.5-17.5c-4.8-7.1-13.6-9.1-17.4,1v16.5H699.3z"/>
	<path fill="#FFC9AB" d="M670.7,966.9c0,0-7.2-10.4-2.5-17.5c4.8-7.1,13.6-9.1,17.4,1v16.5H670.7z"/>
	<ellipse fill="#231F20" cx="685.6" cy="968.4" rx="6.4" ry="3"/>
</g>
</svg>
