<?xml version="1.0" encoding="utf-8"?>
<!-- Generator: Adobe Illustrator 18.1.1, SVG Export Plug-In . SVG Version: 6.00 Build 0)  -->
<svg version="1.1" id="Layer_1" xmlns="http://www.w3.org/2000/svg" xmlns:xlink="http://www.w3.org/1999/xlink" x="0px" y="0px"
	 viewBox="0 0 50.5 161.9" enable-background="new 0 0 50.5 161.9" xml:space="preserve">
<g>
	<path fill="#E6E7E8" d="M16.4,27.6c-1.1-1.6-1.3-3.8-0.6-5.6c-0.7,0.2-1.2,0.9-1.4,1.6c-0.2,0.7-0.1,1.5-0.1,2.2
		c-0.8-1.9-0.9-4.1-0.1-6.1c-0.7,1.1-1,2.5-0.9,3.8c-1.3-3-1.6-6.7,0.2-9.5c0.4-0.6,1-1.4,0.7-2.1c-0.9,0.4-1.6,1.2-1.9,2.2
		c0-0.9,0-1.8,0-2.7c0-0.5,0-1,0.2-1.4c0.2-0.5,0.7-0.8,1-1.2c0.8-1.2,0.3-2.8,0.7-4.1c0.4-1.1,1.4-1.8,2.4-2.5
		c0.5-0.3,1-0.7,1.5-0.7c0.5-0.1,1,0,1.4,0.1C20.3,1.8,21.2,2,22,2.1c0.8,0.2,1.7,0.4,2.5,0.1c0.5-0.1,0.9-0.4,1.4-0.6
		c2.1-1,4.5-0.8,6.7-0.3c0.6,0.1,1.2,0.3,1.8,0.7c1.3,0.8,1.7,2.4,2.1,3.9c0.3,1.2,0.5,2.5,0.4,3.7s-0.5,2.5-1.4,3.4
		c0.1-0.2,0.2-0.4,0.1-0.6c0-0.2-0.2-0.4-0.4-0.3C35,12.3,35,12.7,35,12.9c0.3,1.8,1.5,3.2,2.1,4.9c0.7,1.9,0.8,4,0.1,5.8
		c-0.1-0.3-0.1-0.7-0.1-1c-0.1,1.3-0.6,2.6-1.5,3.7c0.2-0.8,0.1-1.6-0.3-2.3c-0.2,0.5-0.5,1.1-1.1,1.2c-0.6,0.1-1.2-0.3-1.8-0.5
		c-1-0.3-2.1,0.4-3.2,0.3c-1.1-0.1-2.1-0.9-3.1-1.4c-0.2-0.1-0.3-0.1-0.5-0.1c-0.5,0.1-0.6,0.7-1,1c-0.2,0.2-0.4,0.2-0.6,0.3
		c-0.9,0.4-1.8,0.9-2.8,1.1c-0.5,0.1-0.9,0.2-1.3,0.4c-0.6,0.3-1,1-0.9,1.7c-0.7-0.8-1-2.1-0.6-3.1c-0.6,0.7-0.9,1.6-0.9,2.5
		c-0.7-0.6-1-1.7-0.5-2.6C16.5,25.6,16.5,26.7,16.4,27.6z"/>
	<polygon fill="#145E32" points="3.5,33.5 3,70.1 25.4,77 	"/>
	<polygon fill="#145E32" points="47.9,34.2 48.5,70.9 26,77.7 	"/>
	<polygon fill="#231F20" points="13.2,82.1 11.8,153.2 17.1,153.2 26.9,94.9 31.2,153.2 37.7,153.2 39.1,81.7 	"/>
	<path fill="#18723C" d="M3.4,33.7c0,0,17.4-7.1,44.5,0l-8.2,48c0,0-10.3,0.8-27.4,0L3.4,33.7z"/>
	<path fill="#F9BD91" d="M34.7,5.9v20.5h-3.1v6.8c0,0-3.5,6.9-12.1,0v-14c0,0-2.6-0.5-2.6-3.5s3-1.6,3-1.6V5.9H34.7z"/>
	<polygon fill="#8B5E3C" points="16.6,153.2 15.8,157.3 12.3,157.3 12.3,153.2 	"/>
	<path fill="#231F20" d="M12.3,157.3h3.5c0,0,1.4,4.4-3.2,4.7H6.7c0,0-1.3-2.8,2.2-3C8.9,159,12,158.4,12.3,157.3z"/>
	<polygon fill="#8B5E3C" points="32.4,153.2 33.2,157.3 36.7,157.3 36.7,153.2 	"/>
	<path fill="#231F20" d="M36.7,157.3h-3.5c0,0-1.4,4.4,3.2,4.7h5.9c0,0,1.3-2.8-2.2-3C40.1,159,37,158.4,36.7,157.3z"/>
	<path fill="#145E32" d="M18.9,28.7c0,0,6.9,3.1,13.4,0v4.8c0,0-0.3,3.4-5.8,3.4s-8.2-4.1-8.2-4.1L18.9,28.7z"/>
	<path fill="#E6E7E8" d="M23.9,20.3h10.3c0,0-1.8-3.2-5.1-3.2S23.9,20.3,23.9,20.3z"/>
	<path fill="#E6E7E8" d="M23.9,20.3l-0.5,0.6c0,0,4.5,0.8,5.9-0.6c0,0,3.5,0.7,5.2,0.6l-0.4-0.7C34.1,20.1,27.1,19.5,23.9,20.3z"/>
	<path fill="#E6E7E8" d="M16.4,27.6c-1.1-1.6-1.3-3.8-0.6-5.6c-0.7,0.2-1.2,0.9-1.4,1.6c-0.2,0.7-0.1,1.5-0.1,2.2
		c-0.8-1.9-0.9-4.1-0.1-6.1c-0.7,1.1-1,2.5-0.9,3.8c-1.3-3-1.6-6.7,0.2-9.5c0.4-0.6,1-1.4,0.7-2.1c-0.9,0.4-1.6,1.2-1.9,2.2
		c0-0.9,0-1.8,0-2.7c0-0.5,0-1,0.2-1.4c0.2-0.5,0.7-0.8,1-1.2c0.8-1.2,0.3-2.8,0.7-4.1c0.4-1.1,1.4-1.8,2.4-2.5
		c0.5-0.3,1-0.7,1.5-0.7c0.5-0.1,1,0,1.4,0.1C20.3,1.8,21.2,2,22,2.1c0.8,0.2,1.7,0.4,2.5,0.1c0.5-0.1,0.9-0.4,1.4-0.6
		c2.1-1,4.5-0.8,6.7-0.3c0.6,0.1,1.2,0.3,1.8,0.7c1.3,0.8,1.7,2.4,2.1,3.9c0.3,1.2,0.5,2.5,0.4,3.7s-0.5,2.5-1.4,3.4
		c0.1-0.2,0.2-0.4,0.1-0.6c0-0.2-0.2-0.4-0.4-0.3C35,12.3,35,12.7,35,12.9c0.3,1.8,1.5,3.2,2.1,4.9c0.7,1.9,0.8,4,0.1,5.8
		c-0.1-0.3-0.1-0.7-0.1-1c-0.1,1.3-0.6,2.6-1.5,3.7c0.2-0.8,0.1-1.6-0.3-2.3c-0.2,0.5-0.5,1.1-1.1,1.2c-0.6,0.1-1.2-0.3-1.8-0.5
		c-1-0.3-2.1,0.4-3.2,0.3c-1.1-0.1-2.1-0.9-3.1-1.4c-0.2-0.1-0.3-0.1-0.5-0.1c-0.5,0.1-0.6,0.7-1,1c-0.2,0.2-0.4,0.2-0.6,0.3
		c-0.9,0.4-1.8,0.9-2.8,1.1c-0.5,0.1-0.9,0.2-1.3,0.4c-0.6,0.3-1,1-0.9,1.7c-0.7-0.8-1-2.1-0.6-3.1c-0.6,0.7-0.9,1.6-0.9,2.5
		c-0.7-0.6-1-1.7-0.5-2.6C16.5,25.6,16.5,26.7,16.4,27.6z"/>
	<polygon fill="#145E32" points="3.5,33.5 3,70.1 25.4,77 	"/>
	<polygon fill="#145E32" points="47.9,34.2 48.5,70.9 26,77.7 	"/>
	<polygon fill="#231F20" points="13.2,82.1 11.8,153.2 17.1,153.2 26.9,94.9 31.2,153.2 37.7,153.2 39.1,81.7 	"/>
	<path fill="#18723C" d="M3.4,33.7c0,0,17.4-7.1,44.5,0l-8.2,48c0,0-10.3,0.8-27.4,0L3.4,33.7z"/>
	<path fill="#F9BD91" d="M34.7,5.9v20.5h-3.1v6.8c0,0-3.5,6.9-12.1,0v-14c0,0-2.6-0.5-2.6-3.5s3-1.6,3-1.6V5.9H34.7z"/>
	<polygon fill="#8B5E3C" points="16.6,153.2 15.8,157.3 12.3,157.3 12.3,153.2 	"/>
	<path fill="#231F20" d="M12.3,157.3h3.5c0,0,1.4,4.4-3.2,4.7H6.7c0,0-1.3-2.8,2.2-3C8.9,159,12,158.4,12.3,157.3z"/>
	<polygon fill="#8B5E3C" points="32.4,153.2 33.2,157.3 36.7,157.3 36.7,153.2 	"/>
	<path fill="#231F20" d="M36.7,157.3h-3.5c0,0-1.4,4.4,3.2,4.7h5.9c0,0,1.3-2.8-2.2-3C40.1,159,37,158.4,36.7,157.3z"/>
	<path fill="#145E32" d="M18.9,28.7c0,0,6.9,3.1,13.4,0v4.8c0,0-0.3,3.4-5.8,3.4s-8.2-4.1-8.2-4.1L18.9,28.7z"/>
	<path fill="#E6E7E8" d="M23.9,20.3h10.3c0,0-1.8-3.2-5.1-3.2S23.9,20.3,23.9,20.3z"/>
	<path fill="#E6E7E8" d="M23.9,20.3l-0.5,0.6c0,0,4.5,0.8,5.9-0.6c0,0,3.5,0.7,5.2,0.6l-0.4-0.7C34.1,20.1,27.1,19.5,23.9,20.3z"/>
</g>
</svg>
