<?xml version="1.0" encoding="utf-8"?>
<!-- Generator: Adobe Illustrator 18.1.1, SVG Export Plug-In . SVG Version: 6.00 Build 0)  -->
<svg version="1.1" id="Layer_1" xmlns="http://www.w3.org/2000/svg" xmlns:xlink="http://www.w3.org/1999/xlink" x="0px" y="0px"
	 viewBox="286 148 160 259.3" enable-background="new 286 148 160 259.3" xml:space="preserve">
<g>
	<path fill="none" stroke="#FFFFFF" stroke-width="2" stroke-miterlimit="10" d="M406.9,228.7c0,0,11.1,35.4-2.2,50.5
		c-13.3,15-74.5-3.6-68.9,60.2c5.5,63.8-48.7,67.9-48.7,67.9"/>
	<path fill="#FF7BAC" d="M378.4,184.7c0.8-4.4,4-13.9-0.8-13.1c6.9-12.5,20.6-23.4,40-17.4c28.7,8.7,28.3,43.6,12.3,62.6
		c-5.3,6.3-17.8,19-31.3,11.5c-1-0.6-2.2-1.2-3.2-2c-0.4-2.2-6.7-3.6-7.9-6.3C381.8,206.9,376.6,193.8,378.4,184.7z"/>
	<path fill="#FF67FF" d="M372.3,189.1c0.2-5,2-11.3,5.3-17.4c4.8-0.8,10.3,0.2,8.1,4c-9.1,15.2-2.2,31.1,3.2,37.6
		c2,2.4,5.7,10.7,6.3,12.9C383,218.2,371.7,203.1,372.3,189.1z"/>
	<polygon fill="#FF7BAC" points="411.9,224.9 414.7,238 400,238.8 408.1,223.9 	"/>
</g>
</svg>
