<?xml version="1.0" encoding="utf-8"?>
<!-- Generator: Adobe Illustrator 18.1.1, SVG Export Plug-In . SVG Version: 6.00 Build 0)  -->
<svg version="1.1" id="Layer_1" xmlns="http://www.w3.org/2000/svg" xmlns:xlink="http://www.w3.org/1999/xlink" x="0px" y="0px"
	 viewBox="0 0 404 238" enable-background="new 0 0 404 238" xml:space="preserve">
<g>
	<path fill="none" stroke="#FFFFFF" stroke-width="2" stroke-miterlimit="10" d="M26.6,57.8c0,0-10.3,19.7-4.1,30
		s44.2,5.9,34.2,42.8s21.4,45.2,21.4,45.2"/>
	<path fill="#00A69C" d="M48,35c0-2.6-0.9-8.6,1.8-7.6c-2.8-8.1-9.6-16-21.7-14.6C10.3,14.9,6.8,35.4,14.3,48.3
		c2.5,4.3,8.4,13.1,17.2,10.1c0.7-0.2,1.4-0.5,2.1-0.8c0.5-1.2,4.3-1.3,5.4-2.9C43.7,47.7,48.1,40.5,48,35z"/>
	<path fill="#2377B8" d="M51.2,38.1c0.4-3,0-6.9-1.3-10.8c-2.7-0.9-6.2-1-5.2,1.5c3.7,9.9-2.1,18.6-5.9,21.8c-1.5,1.2-4.6,5.7-5.1,7
		C41.8,54.1,50,46.5,51.2,38.1z"/>
	<polygon fill="#00A69C" points="24,55.1 21,62.5 29.5,64.5 26.4,54.9 	"/>
</g>
<g>
	<path fill="none" stroke="#FFFFFF" stroke-width="2" stroke-miterlimit="10" d="M284.3,103.7c0,0-14.2,17.1-10.2,28.5
		c4,11.4,42,14.9,24.5,49c-17.5,34,11.6,48.7,11.6,48.7"/>
	<path fill="#22B573" d="M310.1,85.8c0.5-2.5,0.9-8.6,3.4-7.1c-1-8.5-6.1-17.7-18.2-18.8c-17.9-1.7-25.6,17.7-20.9,31.9
		c1.5,4.7,5.5,14.6,14.7,13.5c0.7-0.1,1.5-0.2,2.2-0.4c0.8-1.1,4.5-0.4,5.9-1.7C303.2,97.3,308.9,91.2,310.1,85.8z"/>
	<path fill="#009245" d="M312.5,89.6c1-2.8,1.4-6.7,0.9-10.8c-2.4-1.5-5.8-2.2-5.4,0.3c1.6,10.5-5.9,17.8-10.3,20.1
		c-1.7,0.9-5.7,4.7-6.4,5.8C300,103.2,309.6,97.5,312.5,89.6z"/>
	<polygon fill="#22B573" points="282.4,100.5 277.9,107.2 285.8,110.9 284.7,100.8 	"/>
</g>
<g>
	<path fill="none" stroke="#FFFFFF" stroke-width="2" stroke-miterlimit="10" d="M83.7,90.1c0,0-11.9,14.4-8.6,24
		s35.4,12.6,20.7,41.3s9.8,41.1,9.8,41.1"/>
	<path fill="#F9AE4C" d="M105.4,75.1c0.4-2.1,0.8-7.2,2.8-6c-0.9-7.2-5.2-14.9-15.4-15.8c-15.1-1.4-21.5,14.9-17.6,26.9
		c1.3,4,4.6,12.3,12.4,11.3c0.6-0.1,1.2-0.2,1.9-0.3c0.6-0.9,3.8-0.3,5-1.5C99.6,84.8,104.5,79.6,105.4,75.1z"/>
	<path fill="#F49231" d="M107.5,78.2c0.9-2.4,1.2-5.7,0.8-9.1c-2.1-1.2-4.9-1.9-4.6,0.3c1.3,8.8-5,15-8.7,17
		c-1.4,0.7-4.8,3.9-5.4,4.9C96.9,89.8,105,85,107.5,78.2z"/>
	<polygon fill="#F9AE4C" points="82.1,87.4 78.3,93.1 85,96.2 84,87.7 	"/>
</g>
<g>
	<path fill="none" stroke="#FFFFFF" stroke-width="2" stroke-miterlimit="10" d="M205.5,95.6c0,0,5.6,17.9-1.1,25.5
		s-37.6-1.8-34.8,30.4S145,185.8,145,185.8"/>
	<path fill="#FF7BAC" d="M191.1,73.4c0.4-2.2,2-7-0.4-6.6c3.5-6.3,10.4-11.8,20.2-8.8c14.5,4.4,14.3,22,6.2,31.6
		c-2.7,3.2-9,9.6-15.8,5.8c-0.5-0.3-1.1-0.6-1.6-1c-0.2-1.1-3.4-1.8-4-3.2C192.8,84.6,190.2,78,191.1,73.4z"/>
	<path fill="#FF67FF" d="M188,75.6c0.1-2.5,1-5.7,2.7-8.8c2.4-0.4,5.2,0.1,4.1,2c-4.6,7.7-1.1,15.7,1.6,19c1,1.2,2.9,5.4,3.2,6.5
		C193.4,90.3,187.7,82.7,188,75.6z"/>
	<polygon fill="#FF7BAC" points="208,93.7 209.4,100.3 202,100.7 206.1,93.2 	"/>
</g>
<g>
	<path fill="none" stroke="#FFFFFF" stroke-width="2" stroke-miterlimit="10" d="M376.2,78.8c0,0,5.6,17.9-1.1,25.5
		c-6.7,7.6-37.6-1.8-34.8,30.4c2.8,32.1-24.6,34.3-24.6,34.3"/>
	<path fill="#FCEE21" d="M361.8,56.6c0.4-2.2,2-7-0.4-6.6c3.5-6.3,10.4-11.8,20.2-8.8c14.5,4.4,14.3,22,6.2,31.6
		c-2.7,3.2-9,9.6-15.8,5.8c-0.5-0.3-1.1-0.6-1.6-1c-0.2-1.1-3.4-1.8-4-3.2C363.5,67.8,360.9,61.2,361.8,56.6z"/>
	<path fill="#FBB03B" d="M358.7,58.8c0.1-2.5,1-5.7,2.7-8.8c2.4-0.4,5.2,0.1,4.1,2c-4.6,7.7-1.1,15.7,1.6,19c1,1.2,2.9,5.4,3.2,6.5
		C364.1,73.4,358.4,65.9,358.7,58.8z"/>
	<polygon fill="#FCEE21" points="378.7,76.9 380.1,83.5 372.7,83.9 376.8,76.4 	"/>
</g>
</svg>
