<?xml version="1.0" encoding="utf-8"?>
<!-- Generator: Adobe Illustrator 18.1.1, SVG Export Plug-In . SVG Version: 6.00 Build 0)  -->
<svg version="1.1" id="Layer_1" xmlns="http://www.w3.org/2000/svg" xmlns:xlink="http://www.w3.org/1999/xlink" x="0px" y="0px"
	 viewBox="146.7 141 69.3 287.5" enable-background="new 146.7 141 69.3 287.5" xml:space="preserve">
<g>
	<path fill="none" stroke="#FFFFFF" stroke-width="2" stroke-miterlimit="10" d="M165.7,217.8c0,0-23.6,28.5-17,47.5
		s70.1,25,41,81.8s19.4,81.4,19.4,81.4"/>
	<path fill="#F9AE4C" d="M208.7,188.1c0.8-4.2,1.6-14.3,5.5-11.9c-1.8-14.3-10.3-29.5-30.5-31.3c-29.9-2.8-42.6,29.5-34.9,53.3
		c2.6,7.9,9.1,24.4,24.6,22.4c1.2-0.2,2.4-0.4,3.8-0.6c1.2-1.8,7.5-0.6,9.9-3C197.2,207.3,206.9,197,208.7,188.1z"/>
	<path fill="#F49231" d="M212.9,194.2c1.8-4.8,2.4-11.3,1.6-18c-4.2-2.4-9.7-3.8-9.1,0.6c2.6,17.4-9.9,29.7-17.2,33.7
		c-2.8,1.4-9.5,7.7-10.7,9.7C191.9,217.2,207.9,207.7,212.9,194.2z"/>
	<polygon fill="#F9AE4C" points="162.6,212.4 155,223.7 168.3,229.9 166.3,213 	"/>
</g>
</svg>
