<?xml version="1.0" encoding="utf-8"?>
<!-- Generator: Adobe Illustrator 18.1.1, SVG Export Plug-In . SVG Version: 6.00 Build 0)  -->
<svg version="1.1" id="Layer_1" xmlns="http://www.w3.org/2000/svg" xmlns:xlink="http://www.w3.org/1999/xlink" x="0px" y="0px"
	 viewBox="0 0 490 343" enable-background="new 0 0 490 343" xml:space="preserve">
<g>
	<path fill="#6A5B4B" d="M382.4,221.5c-1.8-1.8-3.5-3.9-4.1-5.7c-1.7-5.2-4.7-7.7-4.7-7.7s-0.4-3.4-1.7-10.3
		c-0.3-1.8-0.5-3.6-0.5-5.3l-18-47.5l-14.6,6.4l57.1,146.5l13.7-4.3L382.4,221.5z"/>
	<g>
		<defs>
			<rect id="SVGID_1_" x="0" y="204.5" width="226.1" height="125.5"/>
		</defs>
		<clipPath id="SVGID_2_">
			<use xlink:href="#SVGID_1_"  overflow="visible"/>
		</clipPath>
		<polygon clip-path="url(#SVGID_2_)" fill="#736357" points="182,376 116.3,228.6 20.9,263.4 72,409.9 		"/>
		<polygon clip-path="url(#SVGID_2_)" fill="#6A5B4B" points="71.2,408.6 20.9,263.8 35.5,257.4 85.3,403.5 		"/>
		
			<rect x="79.2" y="313.4" transform="matrix(0.951 -0.3091 0.3091 0.951 -93.2441 42.8605)" clip-path="url(#SVGID_2_)" fill="#6A5B4B" width="18.9" height="4.6"/>
		
			<rect x="126.4" y="324.3" transform="matrix(0.951 -0.3091 0.3091 0.951 -94.2937 58.0004)" clip-path="url(#SVGID_2_)" fill="#6A5B4B" width="18.9" height="4.6"/>
		<path clip-path="url(#SVGID_2_)" fill="#3C3C3C" d="M89.7,377.3c0,0-12.6-34.4-23.2-62.7c-5.4-14.4-3.2-19.3,1.6-21
			c4.7-1.7,9.9,1,14.8,15.1c9.7,28.2,22.1,63.2,22.1,63.2L89.7,377.3z"/>
		<path clip-path="url(#SVGID_2_)" fill="#3C3C3C" d="M129.3,363.5c0,0-12.6-34.4-23.2-62.7c-5.4-14.4-3.2-19.3,1.6-21
			c4.7-1.7,9.9,1,14.8,15.1c9.7,28.2,22.1,63.2,22.1,63.2L129.3,363.5z"/>
		<path clip-path="url(#SVGID_2_)" fill="#6A5B4B" d="M153.9,301.4c-1.8-1.8-3.5-3.9-4.1-5.7c-1.7-5.2-4.7-7.7-4.7-7.7
			s-0.4-3.4-1.7-10.3c-0.3-1.8-0.5-3.6-0.5-5.3l-18-47.5l-14.6,6.4l57.1,146.5l13.7-4.3L153.9,301.4z"/>
	</g>
	<path fill="#736357" d="M154.4,202.6l-6.9-20.3c-1.6-0.6-3.1-1-4.2-0.8c-3.4,0.4-2.6-7.7-2.6-7.7s-4.3-15.5-5.2-17.6
		c-0.6-1.6-0.1-6,0.2-8.2l-12.7-37.4l-32.9,11.8l26.9,77.9c2.1,0.3,4.3,0.8,4.7,1.9c0.9,2.1,0.4,8.2,3.9,8.6
		c3.4,0.4,3.9,9.9,3.9,9.9l-2.9,7.4l5.5,15.9l33.5-12.4L154.4,202.6z"/>
	<path fill="#736357" d="M265.3,161.3l-0.6-1.7l-4.1,0.7l-4.7-6c0,0,0.9-9,1.3-11.2c0.4-2.1-2.6-9-2.6-9l0.6-2.4L234,69.2L201.1,81
		L243,202.6l28.2-12.4L265.3,161.3z"/>
	<path fill="#736357" d="M158.4,113.5c2.6,1.3,8.6-0.4,8.6-0.4l9.5-5.6c0,0,6,0.9,6.9,3.4l58.9-19.7l-27.5-76.5l-51.5,14.6
		c0,0,1.7,11.2-2.6,11.2s-9.5-3.4-9.5-3.4l-1.7,8.6l-14.6-4.3L71.2,62.8l24.9,77.3l59.4-19.9C155.8,117.4,156.5,112.6,158.4,113.5z"
		/>
	<polygon fill="#736357" points="258.5,190.4 130,238.1 159.7,330 307.4,330 	"/>
	<polygon fill="#736357" points="410.5,296.1 344.8,148.7 249.4,183.5 300.6,330 	"/>
	<polygon fill="#998675" points="417.4,302.5 412.7,293.1 295,330 327.6,329.6 417.8,310.7 	"/>
	<path fill="#C69C6D" d="M321.2,330H444c0,0,1.3-12.5-6-12.5c0,0,0.4-10.7-9-9c0,0-4.3-10.7-15.5-6.9c-11.2,3.9-24.1,13.3-42.1,14.2
		C353.4,316.7,321.2,330,321.2,330z"/>
	<path fill="#A67C52" d="M357.7,324.8c0,0,1.7-3.9,3.9-1.7L357.7,324.8z"/>
	<path fill="#A67C52" d="M438,317.5c0,0-4.7,1.3-3.9,3.9S438,317.5,438,317.5z"/>
	<path fill="#A67C52" d="M423,324.4c0,0-3.9-3.9-6,0C417,324.4,421.3,327.4,423,324.4z"/>
	<path fill="#A67C52" d="M387.8,323.1l-2.6-3C385.2,320.1,384.3,323.1,387.8,323.1z"/>
	<path fill="#A67C52" d="M57.8,327.4l-2.6-3C55.3,324.4,54.4,327.4,57.8,327.4z"/>
	<polygon fill="#6A5B4B" points="299.7,328.7 249.4,183.9 264,177.5 313.9,323.6 	"/>
	<path fill="#998675" d="M249.9,189.5c0,0,12-8.6,20.2-8.2s11.6-1.3,15-4.7c3.4-3.4,18.5-7.7,21.9-9.9c3.4-2.1,11.2-0.4,11.6-1.7
		c0.4-1.3,3.4-5.2,3.4-5.2l35.2-14.2c0,0-6.9-5.6-4.7-7.7c2.1-2.1-0.9-8.6-0.9-8.6l-113.8,42.1c0,0,6.9,3.4,6.9,6.4
		c0,3,0,8.2,0.9,10.7C246.4,191.2,249.9,189.5,249.9,189.5z"/>
	<polygon fill="#736357" points="244.4,172.8 348,134.1 348,138 246,175.4 	"/>
	
		<rect x="330.6" y="163" transform="matrix(0.951 -0.3091 0.3091 0.951 -34.4522 113.2231)" fill="#6A5B4B" width="18.9" height="4.6"/>
	
		<rect x="311.1" y="181.4" transform="matrix(0.951 -0.3091 0.3091 0.951 -41.0718 108.101)" fill="#6A5B4B" width="18.9" height="4.6"/>
	
		<rect x="307.7" y="233.5" transform="matrix(0.951 -0.3091 0.3091 0.951 -57.352 109.5915)" fill="#6A5B4B" width="18.9" height="4.6"/>
	
		<rect x="230" y="207.7" transform="matrix(0.951 -0.3091 0.3091 0.951 -53.1927 84.2941)" fill="#6A5B4B" width="18.9" height="4.6"/>
	
		<rect x="145.9" y="251.2" transform="matrix(0.951 -0.3091 0.3091 0.951 -70.7656 60.4435)" fill="#6A5B4B" width="18.9" height="4.6"/>
	
		<rect x="135.6" y="201.4" transform="matrix(0.951 -0.3091 0.3091 0.951 -55.8669 54.8159)" fill="#6A5B4B" width="18.9" height="4.6"/>
	
		<rect x="117.6" y="178.2" transform="matrix(0.951 -0.3091 0.3091 0.951 -49.5799 48.1026)" fill="#6A5B4B" width="18.9" height="4.6"/>
	
		<rect x="218.1" y="122.4" transform="matrix(0.951 -0.3091 0.3091 0.951 -27.3938 76.4404)" fill="#6A5B4B" width="18.9" height="4.6"/>
	
		<rect x="228.4" y="122.4" transform="matrix(0.951 -0.3091 0.3091 0.951 -26.8889 79.6273)" fill="#6A5B4B" width="18.9" height="4.6"/>
	
		<rect x="233.5" y="149" transform="matrix(0.951 -0.3091 0.3091 0.951 -34.8694 82.5253)" fill="#6A5B4B" width="18.9" height="4.6"/>
	
		<rect x="218.9" y="79.4" transform="matrix(0.951 -0.3091 0.3091 0.951 -14.0727 74.602)" fill="#6A5B4B" width="18.9" height="4.6"/>
	
		<rect x="91.8" y="118.1" transform="matrix(0.951 -0.3091 0.3091 0.951 -32.2516 37.1896)" fill="#6A5B4B" width="18.9" height="4.6"/>
	
		<rect x="103.8" y="118.9" transform="matrix(0.951 -0.3091 0.3091 0.951 -31.9281 40.9498)" fill="#6A5B4B" width="18.9" height="4.6"/>
	
		<rect x="149.8" y="293.3" transform="matrix(0.951 -0.3091 0.3091 0.951 -83.5897 63.7005)" fill="#6A5B4B" width="18.9" height="4.6"/>
	
		<rect x="355" y="244.4" transform="matrix(0.951 -0.3091 0.3091 0.951 -58.4016 124.7314)" fill="#6A5B4B" width="18.9" height="4.6"/>
	
		<rect x="334.3" y="301.6" transform="matrix(0.951 -0.3091 0.3091 0.951 -77.1169 121.1628)" fill="#6A5B4B" width="18.9" height="4.6"/>
	
		<rect x="363.6" y="283.9" transform="matrix(0.951 -0.3091 0.3091 0.951 -70.1975 129.3229)" fill="#6A5B4B" width="18.9" height="4.6"/>
	
		<rect x="267.9" y="196.3" transform="matrix(0.951 -0.3091 0.3091 0.951 -47.7932 95.4628)" fill="#6A5B4B" width="18.9" height="4.6"/>
	<path fill="#3C3C3C" d="M318.3,297.4c0,0-12.6-34.4-23.2-62.7c-5.4-14.4-3.2-19.3,1.6-21c4.7-1.7,9.9,1,14.8,15.1
		c9.7,28.2,22.1,63.2,22.1,63.2L318.3,297.4z"/>
	<path fill="#3C3C3C" d="M357.8,283.6c0,0-12.6-34.4-23.2-62.7c-5.4-14.4-3.2-19.3,1.6-21c4.7-1.7,9.9,1,14.8,15.1
		c9.7,28.2,22.1,63.2,22.1,63.2L357.8,283.6z"/>
	<polygon fill="#3C3C3C" points="275.1,211.2 275,211.2 270.5,213.4 269.1,222.6 271.9,215.2 275.6,213.4 	"/>
	<polygon fill="#3C3C3C" points="139.2,234.5 139.3,234.6 142,238.8 151.2,239.3 143.5,237.2 141.4,233.7 	"/>
	<path fill="#3C3C3C" d="M347.3,171.5c0,0-6.4,0.9-5.8,4.6c0.6,3.8-3.2,4.6-3.2,4.6l0.6,5.8l1.2-4.9c0,0,2.9-1.7,3.2-3.8
		c0,0,5.2,2.6,4.3,6.4c0,0,0.9-5.2-3.5-7.8c0,0,0.3-2.9,4-2.6c3.8,0.3,0,0,0,0L347.3,171.5"/>
	
		<rect x="103" y="242.1" transform="matrix(0.951 -0.3091 0.3091 0.951 -70.0367 46.7156)" fill="#6A5B4B" width="18.9" height="4.6"/>
	
		<rect x="83.5" y="260.4" transform="matrix(0.951 -0.3091 0.3091 0.951 -76.6562 41.5935)" fill="#6A5B4B" width="18.9" height="4.6"/>
	<path fill="#3C3C3C" d="M119.6,250.5c0,0-6.4,0.9-5.8,4.6c0.6,3.8-3.2,4.6-3.2,4.6l0.6,5.8l1.2-4.9c0,0,2.9-1.7,3.2-3.8
		c0,0,5.2,2.6,4.3,6.4c0,0,0.9-5.2-3.5-7.8c0,0,0.3-2.9,4-2.6c3.8,0.3,0,0,0,0L119.6,250.5"/>
	<polygon fill="#3C3C3C" points="179.4,329 282.5,329 248.1,244.9 197.1,232 168,260.8 168,313.7 	"/>
	<path fill="#998675" d="M168.8,330h15.4l-9.5-26.5l0.1-0.2c-8.9-26.9,2.3-52.5,24.5-60.6c22.2-8.1,47.3,4.3,57.8,30.7l-0.1,0.2
		l20.3,56.3h14.7L266,257.6c-11.6-28.8-43.9-43.6-73.4-32.9s-45.1,42.9-35.6,72.5L168.8,330z"/>
	<path fill="#736357" d="M174.3,231.2l-0.9,9c0,0-1.7-2.6-3,0c-1.3,2.6-2.1,5.6-2.1,5.6l-6.4-0.9L174.3,231.2z"/>
	<polygon fill="#3C3C3C" points="216.4,246 218.9,237.5 221.1,240.8 225.8,240.2 228.8,246 	"/>
	<polygon fill="#3C3C3C" points="178.1,307.2 173.8,311.5 178.6,309.4 180.3,315.4 174.7,318.8 176,325.7 176.4,320.1 180.7,318.4 
		182.4,308.1 	"/>
	<polygon fill="#3C3C3C" points="266,257.6 262.5,268.2 262.3,268.6 266.2,276.7 264.9,268.6 266.2,264.7 268.8,272.4 267.9,265.1 	
		"/>
	<polygon fill="#998675" points="209.9,119.2 252.4,104.4 252.9,86.3 199,103.7 	"/>
	<polygon fill="#998675" points="96.5,157.9 139,143 139.5,125 85.6,142.4 	"/>
	<polygon fill="#3C3C3C" points="90.1,69.7 96.1,91.2 106.4,87.7 96.1,65.4 	"/>
	<polygon fill="#3C3C3C" points="115.8,60.2 121.9,81.7 132.2,78.3 121.9,55.9 	"/>
	<polygon fill="#3C3C3C" points="141.6,50.8 147.6,72.3 157.9,68.8 147.6,46.5 	"/>
	<polygon fill="#3C3C3C" points="167.4,41.3 173.4,62.8 183.7,59.4 173.4,37 	"/>
	<polygon fill="#3C3C3C" points="193.2,31.9 199.2,53.4 209.5,49.9 199.2,27.6 	"/>
	<polygon fill="#6A5B4B" points="95.2,104.9 98.7,115.2 224.9,72.3 218.9,62 	"/>
	<path fill="#998675" d="M22.2,268.6c0,0,12-8.6,20.2-8.2s11.6-1.3,15-4.7c3.4-3.4,18.5-7.7,21.9-9.9c3.4-2.1,11.2-0.4,11.6-1.7
		c0.4-1.3,3.4-5.2,3.4-5.2l35.2-14.2c0,0-6.9-5.6-4.7-7.7c2.1-2.1-0.9-8.6-0.9-8.6L10.2,250.5c0,0,6.9,3.4,6.9,6.4
		c0,3,0,8.2,0.9,10.7C18.8,270.3,22.2,268.6,22.2,268.6z"/>
	<polygon fill="#736357" points="17.1,251.8 121,213.2 121,217 18.8,254.4 	"/>
	
		<rect x="65.6" y="270.7" transform="matrix(0.951 -0.3091 0.3091 0.951 -80.7198 36.5655)" fill="#6A5B4B" width="18.9" height="4.6"/>
	
		<rect x="92.5" y="241.5" transform="matrix(0.951 -0.3091 0.3091 0.951 -70.3716 43.4564)" fill="#6A5B4B" width="18.9" height="4.6"/>
	<path fill="#C69C6D" d="M25.3,330c0,0,3.4-14.2,16.6-11.9s25.8-5.7,29.2-0.5c3.4,5.2,20.6,2.9,26.3,2.9s27.9-1.9,32.6,4.5
		c1.7,2.3,28.6,5,28.6,5H25.3z"/>
	<path fill="#A67C52" d="M410.5,309l-5.6,3.4c0,0,4.3,4.7,5.2,2.1C411,312,410.5,309,410.5,309z"/>
	<path fill="#A67C52" d="M109,321.8l-5.6,3.4c0,0,4.3,4.7,5.2,2.1C109.4,324.8,109,321.8,109,321.8z"/>
	<path fill="#A67C52" d="M66.8,319.9c0,0-5.4-0.6-4.7,3.7C62,323.7,67.3,323.4,66.8,319.9z"/>
	<path fill="#A67C52" d="M40.1,323.4c0,0-5.4-0.6-4.7,3.7C35.4,327.1,40.6,326.8,40.1,323.4z"/>
</g>
<g>
	<polygon fill="#7C5D45" points="396.9,256.8 395.6,322.5 400.5,322.5 409.6,268.7 413.6,322.5 419.7,322.5 421,256.5 	"/>
	<path fill="#BE1E2D" d="M385.2,227"/>
	<path fill="#896A4E" d="M387.7,212.1c0,0,16.2-6.6,41.4,0l-7.6,44.4c0,0-9.5,0.8-25.5,0L387.7,212.1z"/>
	<polygon fill="#D1D3D4" points="400.1,322.5 399.3,326.2 396,326.2 396,322.5 	"/>
	<path fill="#231F20" d="M396,326.2h3.3c0,0,1.3,4.1-3,4.3h-5.5c0,0-1.2-2.6,2.1-2.8C392.9,327.8,395.7,327.3,396,326.2z"/>
	<polygon fill="#D1D3D4" points="414.7,322.5 415.5,326.2 418.7,326.2 418.7,322.5 	"/>
	<path fill="#231F20" d="M418.7,326.2h-3.3c0,0-1.3,4.1,3,4.3h5.5c0,0,1.2-2.6-2.1-2.8C421.9,327.8,419,327.3,418.7,326.2z"/>
	<polygon fill="#896A4E" points="396,254.9 393.6,268.7 425,268.7 421.7,254.9 	"/>
	<path fill="#231F20" d="M411.8,300.3h8.4l-0.4,26.3c0,0-0.2,1,1.2,1.2s3.9,0.2,3,2.7h-6.1c0,0-3.7,0.2-4.3-7.4L411.8,300.3z"/>
	<path fill="#231F20" d="M404.7,300.3h-9.1l-0.6,26.3c0,0,0.2,1-1.2,1.2s-3.9,0.2-3,2.7h6.1c0,0,3.7,0.2,4.3-7.4L404.7,300.3z"/>
	<path fill="#7C5D45" d="M408.3,225.5l10.8-6.8l-2.1-3.2l6.4-5c0,0-1.1-4.8-15.1-4.6"/>
	<path fill="#7C5D45" d="M408.6,225.8l-10.8-6.8l2.1-3.2l-6.4-5c0,0,1.1-4.8,15.1-4.6"/>
	<path fill="#FFFFFF" d="M402.7,211.6l5.9,14.2l5.4-14.2C413.9,211.6,402.4,210.8,402.7,211.6z"/>
	<path fill="#F4B682" d="M416.8,187.9v17.5h-2.9v6.2c0,0-3.3,6.4-11.2,0v-13c0,0-2.4-0.5-2.4-3.2c0-2.8,2.8-1.4,2.8-1.4v-6.1H416.8z
		"/>
	<polygon fill="#231F20" points="403.1,194 403.5,194.9 406,187.9 402,187.9 402,193.7 	"/>
	<path fill="#231F20" d="M406,187.9c0,0,2.4,1.3,10.8,0.8c0,0,1.2-9.1-10.5-4.6c0,0-4.3,0-4.3,4"/>
	<polygon fill="#231F20" points="422.1,256.5 395.7,256.5 395.3,252.2 422.3,252.2 	"/>
	<path fill="#F4B682" d="M401.8,244.6c9.5,2.3,10.1-1.9,9.8-3.4c-0.3-1.5-5.7-0.9-5.7-0.9s2.3,0,2-1.2c-0.2-1.2-2.9-1.2-2.9-1.2
		s-4.4-0.5-4.9,2.5C399.6,243.3,401.8,244.6,401.8,244.6z"/>
	<polygon fill="#896A4E" points="387.7,212.4 380.2,240.9 402.3,244.9 	"/>
	<polygon fill="#FFFFFF" points="396.9,210 402.3,244.9 385.2,241.9 390.4,211.2 	"/>
	<path fill="#F4B682" d="M442.8,186.2c7.7-9.5,3.3-12.3,1.5-12.8c-1.8-0.5-4.1,5.9-4.1,5.9s1.2-2.6-0.3-2.9
		c-1.4-0.3-2.9,2.6-2.9,2.6s-2.9,4.6,0.1,6.8S442.8,186.2,442.8,186.2z"/>
	<path fill="#896A4E" d="M436,184.2l-13.7,28.7l4.7,12.9l15-39.2C441.9,186.6,437.3,186.4,436,184.2z"/>
	<rect x="405.9" y="250.5" fill="#F7941E" width="8.1" height="6.3"/>
	<path fill="#7C5D45" d="M401.4,188.3c0,0,7.2-5.2,15.5-2c0,0,0.5-4.1-5.5-3.8C405.4,182.9,399.9,184.8,401.4,188.3z"/>
	<rect x="403.3" y="188.3" fill="#3C2415" width="1.4" height="18.1"/>
	<path fill="#7C5D45" d="M399.2,192.7c0,0,4.8-0.4,5.5-3.9c0,0-0.4-2.2,3.9-2.3c4.3-0.2,8.4-0.7,8.3,2.9c0,0,3-1.1,2.3-3l-2.4-0.9
		c0,0,0-5.7-6.9-5.4C403,180.4,395.6,183.5,399.2,192.7z"/>
	<path fill="#FFFFFF" d="M477.8,153.8l-1.6-18.9c0,0-5.9,10.5-17.1,3.9c-11.2-6.6-17.2-7.4-22-5.9l3.4,22.7c0,0,9.8-7,15.7-1.2
		C460,158,471.4,158.9,477.8,153.8z"/>
	
		<rect x="440.1" y="133.3" transform="matrix(0.9935 -0.1138 0.1138 0.9935 -17.6235 51.392)" fill="#3C2415" width="2.8" height="93.7"/>
	<polygon fill="#E6E7E8" points="392.1,210.9 387.7,238 393.6,210.6 	"/>
	<polygon fill="#E6E7E8" points="393.6,210.6 397.9,239 395.3,210.3 	"/>
</g>
</svg>
