<?xml version="1.0" encoding="utf-8"?>
<!-- Generator: Adobe Illustrator 18.1.1, SVG Export Plug-In . SVG Version: 6.00 Build 0)  -->
<svg version="1.1" id="Layer_1" xmlns="http://www.w3.org/2000/svg" xmlns:xlink="http://www.w3.org/1999/xlink" x="0px" y="0px"
	 viewBox="538 155 86 340" enable-background="new 538 155 86 340" xml:space="preserve">
<g>
	<path fill="none" stroke="#FFFFFF" stroke-width="2" stroke-miterlimit="10" d="M563,244.7c0,0-28.1,33.9-20.2,56.4
		c7.9,22.6,83.2,29.5,48.5,97c-34.7,67.3,23,96.4,23,96.4"/>
	<path fill="#22B573" d="M614.1,209.3c1-5,1.8-17,6.7-14.1c-2-16.8-12.1-35-36-37.2c-35.4-3.4-50.7,35-41.4,63.2
		c3,9.3,10.9,28.9,29.1,26.7c1.4-0.2,3-0.4,4.4-0.8c1.6-2.2,8.9-0.8,11.7-3.4C600.4,232,611.7,220,614.1,209.3z"/>
	<path fill="#009245" d="M618.8,216.8c2-5.5,2.8-13.3,1.8-21.4c-4.8-3-11.5-4.4-10.7,0.6c3.2,20.8-11.7,35.2-20.4,39.8
		c-3.4,1.8-11.3,9.3-12.7,11.5C594.1,243.7,613.1,232.4,618.8,216.8z"/>
	<polygon fill="#22B573" points="559.2,238.4 550.3,251.6 565.9,259 563.8,239 	"/>
</g>
</svg>
