<?xml version="1.0" encoding="utf-8"?>
<!-- Generator: Adobe Illustrator 18.1.1, SVG Export Plug-In . SVG Version: 6.00 Build 0)  -->
<svg version="1.1" id="Layer_1" xmlns="http://www.w3.org/2000/svg" xmlns:xlink="http://www.w3.org/1999/xlink" x="0px" y="0px"
	 viewBox="20 60 135 327.5" enable-background="new 20 60 135 327.5" xml:space="preserve">
<g>
	<path fill="none" stroke="#FFFFFF" stroke-width="2" stroke-miterlimit="10" d="M52.7,153.8c0,0-20.4,39-8.1,59.4
		s87.5,11.7,67.7,84.8s42.4,89.5,42.4,89.5"/>
	<path fill="#00A69C" d="M95,108.7c0-5.1-1.8-17,3.6-15c-5.5-16-19-31.7-43-28.9c-35.2,4.2-42.2,44.8-27.3,70.3
		c5,8.5,16.6,25.9,34.1,20c1.4-0.4,2.8-1,4.2-1.6c1-2.4,8.5-2.6,10.7-5.7C86.5,133.8,95.2,119.6,95,108.7z"/>
	<path fill="#2377B8" d="M101.4,114.8c0.8-5.9,0-13.7-2.6-21.4c-5.3-1.8-12.3-2-10.3,3c7.3,19.6-4.2,36.8-11.7,43.2
		c-3,2.4-9.1,11.3-10.1,13.9C82.8,146.5,99,131.4,101.4,114.8z"/>
	<polygon fill="#00A69C" points="47.5,148.5 41.6,163.1 58.4,167.1 52.3,148.1 	"/>
</g>
</svg>
