<?xml version="1.0" encoding="utf-8"?>
<!-- Generator: Adobe Illustrator 18.1.1, SVG Export Plug-In . SVG Version: 6.00 Build 0)  -->
<svg version="1.1" id="Layer_1" xmlns="http://www.w3.org/2000/svg" xmlns:xlink="http://www.w3.org/1999/xlink" x="0px" y="0px"
	 viewBox="0 0 86 181" enable-background="new 0 0 86 181" xml:space="preserve">
<g>
	<ellipse fill="#F1F2F2" cx="34.2" cy="25.2" rx="2.7" ry="2.5"/>
	<ellipse fill="#F1F2F2" cx="48.7" cy="22.1" rx="1.5" ry="2"/>
	<circle fill="#F1F2F2" cx="36.8" cy="17.3" r="3.5"/>
	<circle fill="#F1F2F2" cx="33.1" cy="19.6" r="3.7"/>
	<circle fill="#F1F2F2" cx="30.9" cy="23.2" r="3.9"/>
	<ellipse fill="#F1F2F2" cx="39.8" cy="17.7" rx="3.8" ry="3.9"/>
	<ellipse fill="#F1F2F2" cx="45" cy="18.1" rx="3.1" ry="2.8"/>
	<ellipse fill="#F1F2F2" cx="48.1" cy="19.7" rx="2.1" ry="2"/>
	<ellipse fill="#F1F2F2" cx="31.1" cy="27.5" rx="3.1" ry="2.7"/>
	<ellipse fill="#F1F2F2" cx="32.2" cy="30.1" rx="2.8" ry="2.1"/>
	<path fill="#331A0A" d="M26.5,171.3H30c0,0,1.4,4.4-3.2,4.7h-5.9c0,0-1.3-2.8,2.2-3C23.1,173,26.2,172.5,26.5,171.3z"/>
	<path fill="#331A0A" d="M50.9,171.3h-3.5c0,0-1.4,4.4,3.2,4.7h5.9c0,0,1.3-2.8-2.2-3C54.3,173,51.3,172.5,50.9,171.3z"/>
	<polygon fill="#231F20" points="27.5,96.1 26.1,171.8 31.4,171.8 41.1,109 45.4,171.3 52,171.3 53.3,95.7 	"/>
	<path fill="#C2B59B" d="M17.6,47.7c0,0,17.4-7.1,44.5,0L54,95.7c0,0-10.3,0.8-27.4,0L17.6,47.7z"/>
	<path fill="#9E734C" d="M11.3,104.8c-2.6,10,1.8,10.6,3.4,10.3s1.1-5.9,1.1-5.9s0,2.4,1.2,2.1s1.3-3,1.3-3s0.6-4.6-2.5-5.2
		S11.3,104.8,11.3,104.8z"/>
	<polygon fill="#C2B59B" points="17.6,47.7 11.3,105.6 17.8,105.6 23.1,68.1 	"/>
	<path fill="#C2B59B" d="M26.6,94.9V114c0,0,12.9-0.1,14.7-18.7C41.3,95.3,35.1,87.7,26.6,94.9z"/>
	<path fill="#C2B59B" d="M54.4,94.9V114c0,0-12.9-0.1-14.7-18.7C39.7,95.3,45.8,87.7,54.4,94.9z"/>
	<path fill="#9E734C" d="M48.9,19.9v20.5h-3.1v6.8c0,0-3.5,6.9-12.1,0v-14c0,0-2.6-0.5-2.6-3.5s3-1.6,3-1.6v-8.2H48.9z"/>
	<path fill="#9E734C" d="M75.9,20.2c8.1-9.9,3.5-12.9,1.6-13.4c-1.9-0.5-4.3,6.1-4.3,6.1s1.2-2.7-0.3-3c-1.5-0.3-3.1,2.7-3.1,2.7
		s-3,4.8,0.1,7.1S75.9,20.2,75.9,20.2z"/>
	<path fill="#C2B59B" d="M68.7,18.1l-14.3,30l4.9,13.5l15.7-41.1C74.9,20.6,70.1,20.4,68.7,18.1z"/>
</g>
</svg>
