<?xml version="1.0" encoding="utf-8"?>
<!-- Generator: Adobe Illustrator 19.0.0, SVG Export Plug-In . SVG Version: 6.00 Build 0)  -->
<svg version="1.1" id="Layer_1" xmlns="http://www.w3.org/2000/svg" xmlns:xlink="http://www.w3.org/1999/xlink" x="0px" y="0px"
	 viewBox="-450.1 176 272.3 550" style="enable-background:new -450.1 176 272.3 550;" xml:space="preserve">
<style type="text/css">
	.st0{fill:#CCCCCC;}
	.st1{fill:#666666;}
	.st2{fill:#333333;}
	.st3{fill:#F2F2F2;}
	.st4{fill:#8E272D;}
	.st5{fill:#FFFFFF;}
	.st6{fill:#391207;}
	.st7{fill:#E6E6E6;}
	.st8{fill:#1A1A1A;}
	.st9{fill:#007F45;}
	.st10{fill:#BB1C24;}
	.st11{fill:#009245;}
	.st12{fill:#8C6239;}
	.st13{fill:#FBB03B;}
	.st14{fill:#0071BC;}
</style>
<g>
	<rect x="-329.9" y="194" class="st0" width="23.9" height="508.2"/>
	<rect x="-349.7" y="689.1" class="st1" width="65.5" height="23.8"/>
	<path class="st2" d="M-199,723.1h-235.9v-9c0-3.8,3.1-6.9,6.9-6.9h222.2c3.8,0,6.9,3.1,6.9,6.9V723.1z"/>
	<g>
		<path class="st3" d="M-241,230.5c-33-10.3-64-12.5-85-11.4v284c40-0.9,85.6-2,86.2,0.2C-238.5,326.7-241,230.5-241,230.5z"/>
		<path class="st4" d="M-386,230.5c0,0,1.2,75.7-1.3,272.8c0,1.2,27.4,0.6,61.4-0.2V219C-363,220.7-386,230.5-386,230.5z"/>
		<path class="st3" d="M-242,230.5c0,0,37.7,7,64.2,52.8c0,0-14.4,32.6-39.8,40.3l-29.8-22.6L-242,230.5z"/>
		<path class="st4" d="M-387,230.5c0,0-36.6,7-63.1,52.8c0,0,14.4,32.6,39.8,40.3l29.8-22.6L-387,230.5z"/>
		<path class="st5" d="M-306.2,253.1l14.5,16.9c0,0,24.1-4.8,41-23.3c0,0,8.8-21.7-36.2-26.5C-332,215.3-306.2,253.1-306.2,253.1z"
			/>
		<path class="st6" d="M-320.1,253.1l-14.5,16.9c0,0-24.1-4.8-41-23.3c0,0-8.8-21.7,36.2-26.5C-294.3,215.3-320.1,253.1-320.1,253.1
			z"/>
		<rect x="-327.1" y="251.5" class="st7" width="15.3" height="251.7"/>
		<ellipse class="st0" cx="-311.5" cy="235" rx="44.6" ry="17.3"/>
		<g>
			<circle class="st8" cx="-270.8" cy="319.9" r="22.5"/>
			<path class="st9" d="M-280.7,302.6c-5.8,3.6-9.4,9.9-9.4,17.2c0,11,8.1,20,20.1,20.2v-22.9L-280.7,302.6z"/>
			<path class="st5" d="M-257.7,304.5c-3.5-3-8.1-4.9-13.2-4.9c-3.9,0-6.8,1.1-9.9,3l10.7,14.5v2.1l-0.5-0.7L-257.7,304.5z"/>
			<path class="st10" d="M-270.2,340.1c11.2,0,19.9-9.1,19.9-20.2c0-6.1-2.9-11.6-7.2-15.3l-12.9,14l0.4,0.7v20.8
				C-270,340.1-270.3,340.1-270.2,340.1z"/>
			<circle class="st11" cx="-270.8" cy="319.9" r="15"/>
			<path class="st12" d="M-282,330c0,0,3.1-5,9.8-4.4c6.7,0.6,11.2,5.7,11.2,5.7S-270.9,340.7-282,330z"/>
			<polygon class="st13" points="-276.5,325.7 -278.7,328.4 -277.1,327.8 -276.6,330.2 -276.1,328 -275.1,330.3 -275.3,326.7 			"/>
			<polygon class="st13" points="-270,326.9 -270.3,330.6 -269.1,329.1 -268.4,331.1 -267.8,329 -266.5,330.3 -267.5,326.7 			"/>
			<path class="st5" d="M-275.6,315.8c0,0-5-3.6-5.1-3.5c0,0.1-4.8,7.3-4.8,7.3l4.7-2.3l5.8,4.3c0,0-4.7,2.4-4.5,2.3
				c0.2,0,5.6,6.4,15.7,1.5c0,0-4.2-3.7-4.1-3.8c0.1-0.1,5.3-1.9,5.3-1.9l5.4,5.9c0,0-5.8-10.6-5.9-10.6c-0.1,0-5.7,1.1-5.7,1.1
				s-0.1-4.9-3.2-5.4c-3.1-0.4-4.5,1.9-4.5,1.9l2.6,0.6L-275.6,315.8z"/>
			<path class="st12" d="M-276.3,308.9c0,0-3.7,0.4-1.5,3.1c2.1,2.7,2.3,2.9,1.1,4.5c-1.2,1.5,1.9,4.1,3.6,2.6c0,0-4-1-2.5-2.6
				c1.5-1.6-0.1-4.4-1.1-5C-277.7,310.8-275.4,310.6-276.3,308.9z"/>
			<path class="st13" d="M-275,311.2l-2.4,1.8l3.4,0.1C-273.9,313.2-273.2,311.5-275,311.2z"/>
			<g>
				<path class="st5" d="M-280.7,332.5c0.4,0.3,0.8,0.6,1.2,0.9c-0.2,0.7-0.4,1.3-0.6,2c0.5-0.5,1-0.9,1.5-1.4
					c0.4,0.2,0.9,0.5,1.3,0.6c-0.4,1-0.9,2-1.3,3c-0.3-0.1-0.7-0.3-1-0.5c0.4-0.7,0.8-1.5,1.1-2.2c-0.6,0.6-1.2,1.2-1.9,1.8
					c-0.3-0.2-0.6-0.3-0.8-0.5c0.2-0.8,0.5-1.7,0.7-2.5c-0.5,0.7-1,1.3-1.4,2c-0.3-0.2-0.6-0.4-0.9-0.7
					C-282,334.1-281.4,333.3-280.7,332.5z"/>
				<path class="st5" d="M-276.6,334.8c0.9,0.4,1.8,0.6,2.8,0.8c0,0.2-0.1,0.5-0.1,0.7c-0.6-0.1-1.2-0.3-1.8-0.5
					c-0.1,0.2-0.1,0.3-0.2,0.5c0.6,0.2,1.2,0.3,1.7,0.5c0,0.2-0.1,0.4-0.1,0.6c-0.6-0.1-1.2-0.3-1.8-0.5c-0.1,0.2-0.1,0.4-0.2,0.6
					c0.7,0.2,1.4,0.4,2.1,0.5c0,0.2-0.1,0.5-0.1,0.7c-1.2-0.2-2.3-0.5-3.4-1C-277.4,336.8-277,335.8-276.6,334.8z"/>
				<path class="st5" d="M-273.5,335.7c0.4,0.1,0.8,0.1,1.2,0.2c0.2,0.4,0.4,0.7,0.6,1c0.2-0.3,0.4-0.6,0.6-1c0.4,0,0.8,0,1.2,0
					c-0.3,0.5-0.7,1.1-1.1,1.6c0.4,0.6,0.9,1.1,1.4,1.6c-0.5,0-1,0-1.4,0c-0.3-0.4-0.5-0.7-0.8-1.1c-0.3,0.3-0.6,0.7-0.9,1
					c-0.5,0-1-0.1-1.4-0.2c0.6-0.5,1.1-1,1.6-1.5C-272.9,336.8-273.2,336.3-273.5,335.7z"/>
				<path class="st5" d="M-269.4,335.9c0.4,0,0.7-0.1,1.1-0.1c0.2,1.1,0.3,2.1,0.5,3.2c-0.4,0.1-0.9,0.1-1.3,0.2
					C-269.2,338-269.3,336.9-269.4,335.9z"/>
				<path class="st5" d="M-264.7,336.7c0.4,0,0.7-0.1,1.1-0.2c0,0.3,0,0.5-0.1,0.7c-0.1,0.2-0.2,0.4-0.4,0.6
					c-0.2,0.2-0.5,0.3-0.8,0.4c-0.4,0.1-0.8,0.2-1.1,0.2c-0.3,0-0.6-0.1-0.8-0.4c-0.3-0.2-0.4-0.5-0.5-0.9c-0.1-0.5,0-1,0.2-1.3
					c0.2-0.4,0.6-0.6,1.2-0.8c0.4-0.1,0.8-0.2,1.1-0.1c0.3,0.1,0.6,0.2,0.8,0.5c-0.3,0.2-0.6,0.4-0.9,0.6c-0.1-0.1-0.1-0.1-0.2-0.2
					c-0.1-0.1-0.2-0.1-0.3-0.1c-0.1,0-0.2,0-0.3,0c-0.2,0.1-0.4,0.2-0.5,0.4c-0.1,0.2-0.1,0.4,0,0.7c0.1,0.3,0.2,0.6,0.4,0.7
					c0.2,0.1,0.4,0.1,0.6,0c0.2-0.1,0.4-0.2,0.5-0.3C-264.7,337.1-264.7,337-264.7,336.7z"/>
				<path class="st5" d="M-263.4,335.9c-0.2-0.5-0.2-0.9-0.1-1.3c0.2-0.4,0.5-0.7,1-1.1c0.5-0.3,1-0.5,1.4-0.4
					c0.4,0,0.8,0.2,1.2,0.6c0.2,0.3,0.4,0.6,0.4,0.9c0,0.3-0.1,0.6-0.2,0.9c-0.2,0.3-0.5,0.6-0.9,0.8c-0.4,0.3-0.8,0.4-1.1,0.5
					c-0.3,0-0.6,0-0.9-0.1C-263.1,336.5-263.3,336.2-263.4,335.9z M-262.4,335.3c0.2,0.3,0.3,0.5,0.5,0.5c0.2,0,0.4,0,0.7-0.1
					c0.2-0.1,0.4-0.3,0.4-0.5c0-0.2,0-0.4-0.2-0.7c-0.2-0.2-0.4-0.4-0.6-0.4c-0.2,0-0.4,0-0.6,0.1c-0.2,0.1-0.3,0.3-0.4,0.5
					C-262.6,334.8-262.5,335.1-262.4,335.3z"/>
			</g>
		</g>
		<g>
			<path class="st14" d="M-355.1,239c1.2,2,3.8,4,9.4,7h69.2c0,0,5.3-3,7.9-7H-355.1z"/>
			<path class="st14" d="M-298.8,228.5l30.5,9.8c0.8-1.6,1.3-3.5,1.1-5.7c0,0-20.9-9.7-41.4-14.5c0,0,5-31.2-14.7-31.2
				c-15.3,0-13.5,20.3-13.5,20.3h7.2c0,0-2-10.5,7.2-10.5c9.2,0,5.2,21.3,5.2,21.3s-25.7,6.6-38.2,13.1c0,0-1.5,3.3,0,7l27.3-9.4
				C-318.6,225.5-308.3,225.4-298.8,228.5z"/>
		</g>
	</g>
	<circle class="st1" cx="-318.5" cy="200.4" r="18.5"/>
</g>
</svg>
