<?xml version="1.0" encoding="utf-8"?>
<!-- Generator: Adobe Illustrator 18.1.1, SVG Export Plug-In . SVG Version: 6.00 Build 0)  -->
<svg version="1.1" id="Layer_1" xmlns="http://www.w3.org/2000/svg" xmlns:xlink="http://www.w3.org/1999/xlink" x="0px" y="0px"
	 viewBox="0 0 549 340" enable-background="new 0 0 549 340" xml:space="preserve">
<g>
	<path fill="#181712" d="M471.6,294.9l32.8,1l0.8,4.6c0,0-9.8-3.6-14.1,1.8l-2.3-0.1c0,0-8.5-6.9-17.7-3.2L471.6,294.9z"/>
	<path fill="#181712" d="M458.1,324c0,0,1.3,3.3-0.1,4c0,0-4.6,1.8-5.9-1.5c0,0-0.6-2.6,2.5-3.3L458.1,324z"/>
	<path fill="#181712" d="M512.8,327.8c0,0-1.5,2.8-0.1,4.3s4.7,1.4,6.4-0.6c0,0,0.8-2.6-2-3.8L512.8,327.8z"/>
	<path fill="#B3B6C0" d="M496.4,268.2l16.6,60.4c0,0,2.7,1.5,4-0.9l-16.4-60.5L496.4,268.2z"/>
	<path fill="#B3B6C0" d="M487.5,268l-29.9,57c0,0-2.9,1.2-3-1.8l28.8-57L487.5,268z"/>
	<path fill="#6F6D70" d="M487.5,253.7l-1-0.5l-0.2-3.5l-3.8-5.5l1.1-1.6l2.4-4.3l5.7,2.1l2,2.1c0,0,0.3,0.7-0.6,0.7
		c-0.9,0-3.9-2.3-3.9-2.3l-1.1,1.2l2.3,4.7l1.6,4.2L487.5,253.7z"/>
	<path fill="#767FAC" d="M444,222.3l81.1,28.9c0,0,3.8-0.9,2.4-6.1l-80.6-29.6C446.9,215.4,443.3,217,444,222.3z"/>
	<path fill="#C9F0FF" d="M444.2,218.9l83,30.7c0,0,0.4,0.1,0.5-1.3l-82.9-30.9C444.8,217.5,444.4,218,444.2,218.9z"/>
	<path fill="#48537A" d="M443.9,220.1l81.9,30.8l-0.8,0.3L444,222.3C444,222.3,443.7,221.3,443.9,220.1z"/>
	<path fill="#181712" d="M444,222.3l-1.8,0.5c0,0-1.1-5.3,3.2-9.1l1.6,1.8C446.9,215.4,443.5,216.8,444,222.3z"/>
	<path fill="#181712" d="M445.3,213.6l-9.8-3.3c0,0-3.9,2.7-3.5,9.4l10,3.3L445.3,213.6z"/>
	<path fill="#6F6D70" d="M443.1,216.6l-9.6-3.9c0,0-0.3,0.3-0.7,1.5l9.7,3.9C442.5,218.1,442.7,217.2,443.1,216.6z"/>
	<path fill="#6F6D70" d="M442,221.4l-10.1-3.5c0,0-0.1,0.8,0,1.9l10,3.3C442,223,441.8,222.1,442,221.4z"/>
	<path fill="#8D8D8E" d="M439,222c0,0-0.8-3.8,3.6-9.3l-1.7-0.6c0,0-3.2,3.2-3.2,9.5L439,222z"/>
	<path fill="#181712" d="M526.3,250.6c0,0,1.6-0.4,1.6-3.7l8.6,3l1.1-3.1l1.5-1.8c0,0-0.3,2.1,2.7,2.1l0.2,1.3l-2,2.6l1.9,0.7l-7,3
		l0-1l-2.7-1.2c0,0-5.6,3.7-7.3-1.3C524.8,251.2,525.6,251.3,526.3,250.6z"/>
	<path fill="#181712" d="M527.8,247.6l-9.4-4.1c0,0-1.7-3.3,0.8-5.8l4.5,1.9c0,0,0.2,1.2,0.1,1.8l2.7,0.3l4.7,2.6
		c0,0-0.1,3.6-1.5,3.7C528.4,248.2,527.8,247.6,527.8,247.6z"/>
	<path fill="#6F6D70" d="M528.4,247.9c0,0-0.3,1.3-0.3,1.3l8.4,2.8L528.4,247.9z"/>
	<polygon fill="#6F6D70" points="522.9,241.3 522.9,240.2 518.7,238.3 518.3,239.1 	"/>
	<circle fill="#C9CBCA" cx="528" cy="251.8" r="1.7"/>
	<polygon fill="#181712" points="481.2,235.5 492.8,239.7 491.8,240.4 488.8,239.8 487.9,241.5 490,245.7 488.4,246.3 486.4,243.4 
		483.7,242.7 484.1,238 481.2,236.6 	"/>
	<path fill="#181712" d="M483,243.3l-2.4,5.6c0,0,2.7,1.7,2.8,1.5s2.1-0.9,2.1-0.9l1.2,0.3l1.7-3.6l-2.5-1.8L483,243.3z"/>
	<polyline fill="#181712" points="490.1,246.3 490.1,246.5 490.1,248.1 488.6,250.1 487.5,253.7 489.5,254.2 490.7,252.4 
		491.9,253.1 491.9,254.3 496,254.4 497.4,254.1 498.4,250.1 491.4,247.5 	"/>
	<path fill="#181712" d="M482.1,249.5l-7.9,22.4c0,0,0.2,0.5,1,0.3l7.8-22.3C482.9,249.9,482.6,248.9,482.1,249.5z"/>
	<path fill="#181712" d="M476.2,259.6l5.2,2.1c0,0-1.6,3.8-1.4,6.5c0,0-4.3,0.9-6.6-2.8C473.3,265.4,475.9,262.4,476.2,259.6z"/>
	<polygon fill="#B2C4D0" points="488.9,249.8 497.8,252.4 498.1,251.5 489.8,248.4 	"/>
	<polygon fill="#B2C4D0" points="488.4,246.3 485.9,244.4 483,243.3 482.6,244.3 485.6,245.6 487.7,247.7 	"/>
	<polygon fill="#48537A" points="491.9,254.3 488.5,262.3 496.6,262.5 496,254.4 	"/>
	<path fill="#181712" d="M483.4,266.2l1.7-4l14.3,0.4l1.6,4.1c0,0-1.1,2-4.6,1.5l-0.6-2l-6.9-0.2l-1.4,2
		C487.5,268,485.2,269,483.4,266.2z"/>
	
		<rect x="491.4" y="262.6" transform="matrix(2.950808e-02 -0.9996 0.9996 2.950808e-02 214.5659 749.6023)" fill="#6F6D70" width="3.7" height="3.5"/>
	<polygon fill="#DBDEEA" points="499.3,268 515.6,329 516.4,328.5 500.6,267.2 	"/>
	<polygon fill="#DBDEEA" points="455,324.6 484.8,267.7 483.9,266.9 454.6,323.9 	"/>
	
		<rect x="492.7" y="266.2" transform="matrix(0.9996 2.950812e-02 -2.950812e-02 0.9996 9.0725 -14.4272)" fill="#B3B6C0" width="1.3" height="68"/>
	
		<rect x="488.8" y="266.1" transform="matrix(0.9996 2.950812e-02 -2.950812e-02 0.9996 9.0673 -14.3107)" fill="#B3B6C0" width="1.3" height="68"/>
</g>
<linearGradient id="SVGID_1_" gradientUnits="userSpaceOnUse" x1="214.3042" y1="88.5732" x2="142.1958" y2="97.142" gradientTransform="matrix(-4.5727 -0.2724 0.1365 -2.2922 1038.2756 370.7502)">
	<stop  offset="0" style="stop-color:#FFFFFF;stop-opacity:0"/>
	<stop  offset="1" style="stop-color:#C8E3D8"/>
</linearGradient>
<polygon fill="url(#SVGID_1_)" points="241,162.8 72,118.3 95,61.3 119,8.3 287,125.3 419,210.3 "/>
<path fill="#343743" d="M6.3,39.2C6.3,21.7,20.5,7.5,38,7.5s31.7,14.2,31.7,31.7"/>
<path fill="#343743" d="M69.7,39.2c0,17.5-14.2,31.7-31.7,31.7S6.3,56.7,6.3,39.2"/>
<path fill="#767C87" d="M11.8,36.2c0.5,0.1,1.1,0,1.5-0.3c-0.4,1.6-0.1,3.4,0.7,4.9c0.2-0.9,0.7-1.7,1.5-2.2c0.9,2.3,2,4.6,3.1,6.8
	c-0.1-1.6,0.1-3.3,0.6-4.8c0.4,2.1,1.2,4,2.4,5.8c-0.2-1.6-0.5-3.3-0.4-4.9c0-0.7,0.1-1.5,0.5-2.1c0.4-0.6,1.2-1.1,1.9-0.8
	c0.4,2.4,1,4.7,1.7,7c-0.3-1.8-0.6-3.6-0.5-5.4c0-0.2,0-0.3,0.1-0.4c0.2-0.3,0.7-0.1,1.1,0.1c1.3,0.7,2.7,1.2,4.2,1.2
	c0.6,0,1.2,0,1.6,0.3c0.8,0.5,0.9,1.6,0.7,2.5s-0.5,1.8-0.3,2.7c1.7-1,3.4-2.1,5.3-2.3c0.8-0.1,1.5-0.1,2.3-0.1
	c1.1-0.1,2.3-0.4,3.4-0.7c-1.4-1-2.7-2-4-3.1c-0.2-0.2-0.4-0.4-0.5-0.6c-0.3-0.7,0.4-1.5,0.6-2.3c0.2-1.1-0.8-2-0.8-3.1
	c0-0.4,0.1-0.8,0.3-1.2c0.8-2.2,1.6-4.4,2.4-6.6c-1.8,0.6-3.6,1.2-5.4,1.8c1-1.7,2.1-3.4,3.1-5.2c0.3-0.5,0.6-1.3,0.1-1.7
	c-0.2-0.1-0.4-0.1-0.5-0.2c-2.9-0.3-6,0.2-8.7,1.5c-2.6,1.2-5,3.3-5.7,6.1c0.2-1.5,0.2-3-0.1-4.5c-0.9,1.4-1.7,2.8-2.6,4.2
	c-0.1,0.2-0.2,0.4-0.5,0.4c-0.2,0.1-0.4,0-0.6-0.1c-0.5-0.1-1,0.2-1.3,0.6c0.3-1.1,0.5-2.1,0.8-3.2c-0.5,1.8-1.3,3.4-2.3,4.9
	c0-1.6,0-3.2,0-4.8c-0.6,1.3-1,2.7-1.2,4.2c-0.7-0.4-1.1-1.1-1.3-1.9c-0.4,0.4-0.4,1.1,0,1.6c0.2,0.2,0.4,0.5,0.3,0.8
	c-0.1,0.1-0.2,0.1-0.3,0.2c-0.4,0.2-0.9,0.3-1.3,0.5c0.6,0.3,1.1,1,1,1.7c-0.6,0.1-1.2,0.2-1.8,0.3C13.4,34.6,12.8,35.8,11.8,36.2"
	/>
<path fill="#A3A7AA" d="M19,13.7c-2.5,1.9-4.6,4.5-5.9,7.3c1.9-1.4,3.7-2.7,5.6-4.1c0.7-0.5,1.7-1.1,2.4-0.7
	c0.5,0.3,0.9,0.9,1.4,0.7c0.4-1.6,2.1-2.9,3.7-2.6c0.9,0.2,1.7,0.7,2.5,1c0.9,0.3,2,0.1,2.4-0.8c0.1-0.4,0.1-0.8,0.3-1.2
	c0.4-0.6,1.2-0.5,1.9-0.7c1-0.3,1.8-1.4,2.8-1.3c0.5,0.1,1,0.4,1.5,0.4c0.5,0,0.9-0.3,1.4-0.4c0.8-0.1,1.5,0.5,2.1,1.1
	c0.9,1,1.7,2.1,2.3,3.3c-0.1-1.1-0.2-2.2-0.4-3.3c0.6,0.2,1.3,0.4,2,0.3c0.7,0,1.3-0.4,1.6-1c0.2-0.4,0.2-0.9,0.1-1.3
	c-0.3-1.3-1.4-2.2-2.6-2.7c-1.2-0.5-2.6-0.5-3.9-0.5c-4.3,0-8.7,0.4-12.8,1.7s-8,3.6-10.8,6.9"/>
<path fill="#606671" d="M60.1,23.5c-0.7-2.7-2.5-5.1-5-6.4c0.4,0.9,0.7,1.8,1.1,2.7c0.1,0.2,0.1,0.4,0.1,0.6c-0.2,0.6-1,0.4-1.5,0
	c-1.3-0.9-2.5-1.7-3.8-2.6c-0.9-0.6-2.2-1.1-2.9-0.3c0.3,0.6,0.6,1.2,0.6,1.9s-0.4,1.4-1,1.5c-1.1,0.3-1.9-1.1-2.9-1.4
	c-0.4,0.6-1,1.1-1.7,1.3c-0.4,0.1-0.7,0.1-1.1,0.2c-0.3,0.2-0.6,0.5-0.8,0.7C39,24.2,36,26,35,29c1.1-0.8,2.2-1.4,3.5-1.9
	c0.6-0.2,1.4-0.4,1.8,0.1c0.6,0.7-0.1,1.6-0.7,2.2c-0.6,0.6-1.4,1.4-1,2.2c-0.5-0.1-0.9,0.4-0.9,0.9c-0.1,0.5-0.1,1-0.5,1.4
	c-0.2,0.2-0.4,0.2-0.6,0.4c-0.5,0.6,0.3,1.5,0.3,2.3c-0.1,1.3-2.3,1.8-2,3c0.7-0.2,1.4-0.4,2.1-0.7c-0.3,0.6-0.6,1.3-0.8,1.9
	c3.3,0.1,6,3.3,9.3,3.2c0-0.5-0.1-1.1-0.1-1.6c1.5,0.7,3,1.4,4.5,2c0.3,0.1,0.6,0.3,0.9,0.2s0.6-0.4,0.4-0.7c-1-0.8-2.1-1.6-2.7-2.8
	c-0.6-1.2-0.4-2.8,0.7-3.6c1.3-0.9,3.1,0,4.2,1.2c1.3-0.6,2.7-1,4.1-0.9c0.8,1.2,1.3,2.5,1.7,3.9"/>
<path fill="#1D1D28" d="M10.8,48.1c1,2,2,3.9,3,5.9c0.2,0.5,0.4,1.1,0,1.4c-0.2,0.2-0.5,0.2-0.7,0.4c-0.1,0.2-0.1,0.4,0,0.7
	c1.2,3.7,4.3,6.7,8,7.8c-0.2-0.4-0.3-0.8-0.5-1.3c2.1,1.4,4.4,2.6,6.7,3.6c-1.8-1.2-3.7-2.5-4.5-4.5c3.3,1.9,6.7,3.8,10,5.6
	c0.5,0.3,1.1,0.6,1.7,0.5c0.4-0.1,0.7-0.3,1.1-0.6c1.5-1,3.5-1.2,5.2-0.7c0.4,0.1,0.8,0.3,1.2,0.2c1.1-0.2,1.2-1.6,1.6-2.6
	c0.4-1.4,1.7-2.4,3.2-2.6c-1.4-0.6-3-0.1-4.4,0.5c-1.4,0.6-2.7,1.4-4.2,1.6c-1.5,0.2-3-0.3-4.5-0.5c-1-0.1-2.1-0.1-2.8,0.6
	c0.1-1.3-0.3-2.6-1-3.5c-0.1-0.1-0.2-0.2-0.3-0.2c-0.3-0.1-0.5,0.4-0.5,0.7c0,0.3,0.1,0.8-0.2,1c-1.4-1.1-2.8-2.3-3.9-3.6
	c-0.4,0.2-0.3,0.9-0.1,1.3c0.2,0.5,0.2,1.2-0.3,1.3c-0.2,0-0.4,0-0.5-0.1c-1-0.4-1.9-0.8-2.7-1.3c0.3,0.5-0.3,1.2-0.9,1.2
	c-0.6,0-1.1-0.4-1.5-0.8c-0.4-0.4-0.9-0.8-1.5-0.9c0.5-1.4,1-2.8,1.5-4.2c-0.8,1.1-1.6,2.1-2.4,3.2c-0.7-0.6-1.2-1.3-1.5-2.2
	c0.4,0.1,0.7,0.5,0.8,0.9C13.5,54.4,13.1,50.6,10.8,48.1"/>
<path fill="#1D1D28" d="M59.2,44.8c-0.4,2-0.8,4.1-1.8,5.9s-2.8,3.3-4.8,3.5c0.3-0.9,0.1-2-0.5-2.8c-0.6-0.8-1.7-1.2-2.6-1.1
	c-0.8-2.2-2.4-4.1-4.5-5.2c-0.5-0.3-1.3-0.4-1.5,0.2c1.1,1.2,2.3,2.4,2.6,4c0.1,0.3,0.1,0.6-0.1,0.8c-0.4,0.7-1.4,0.4-2.2,0.2
	c-1.6-0.3-3.3,0.3-4.5,1.4c-1.3,1-2.2,2.4-3,3.8c2.8-1.2,5.8-2.4,8.7-1.5c-1.7,1.7-3.3,3.5-5,5.1c2-0.5,4.1-1,6.1-1.5
	c0.2,0.3,0.3,0.7,0.3,1.1c1.2-0.5,2.5-0.9,3.8-0.5s2.1,2.1,1.1,3c-0.8,0.8-2.6,0.7-2.8,1.8c-0.1,0.3,0,0.6-0.1,0.9
	c-0.2,0.7-1.2,0.9-1.7,1.5c-0.3,0.4-0.3,0.8-0.5,1.3c-0.2,0.8-0.8,1.5-1.4,1.9c3-0.1,5.3-2.8,8.1-3.9c-0.3,0.6-0.5,1.2-0.8,1.8
	c1.6-0.2,3-1.2,4.3-2.2c2.3-1.7,4.6-3.5,6.5-5.7"/>
<path fill="#1D1D28" d="M66,47.4c-2.3,3.8-5.3,7.1-8.3,10.4c-0.8,0.9-1.7,1.8-2.9,1.7c1.1-0.5,1.8-1.7,1.9-2.9
	c-0.9,0.2-1.8,0.1-2.6-0.2c0.6-0.9,1.9-1,2.8-1.5c1.2-0.6,2-1.7,2.6-2.9"/>
<path fill="#1D1D28" d="M67.6,49.9c-2.6,3.8-5.8,7.1-9.5,9.7c3.5-3.4,6.3-7.6,7.9-12.3"/>
<path fill="#353845" d="M12.4,41.9c0.5,3.7,1.8,7.3,3.7,10.5c-0.2,0-0.2-0.3-0.1-0.5c0.1-0.2,0.3-0.2,0.5-0.3c1-0.2,2,0,2.9,0.4
	c0.5,0.2,1.1,0.8,0.8,1.3c0.6-0.5,1.5,0.4,1.5,1.2s-0.3,1.6-0.1,2.3c1,0.1,1-1.6,1.8-2.1c0.6-0.4,1.4,0,1.8,0.6
	c0.4,0.6,0.4,1.3,0.4,2c1-1,2.9-0.5,3.3,0.7c0.2,0.5,0.3,1.2,0.8,1.4c0.2,0.1,0.5,0.1,0.7,0c1.2-0.1,2.4-0.2,3.5-0.3
	c0.6-0.1,1.4-0.4,1.2-1c-0.8-0.6-1.8-1.4-1.6-2.4c0.2-1.3,2.1-1.9,2-3.2c-0.9,0-1.8,0.3-2.7,0.3c-0.9,0-1.9-0.6-1.9-1.5
	c0-0.3,0.1-0.6,0.3-0.9c0.5-1.2,0.9-2.5,0.9-3.8c-0.1-1.3-0.8-2.6-2-3.2c0.1,1.8,0.1,3.6,0.2,5.4c0,0.9,0,1.9-0.7,2.3
	c-0.9,0.6-2.2-0.1-3-0.8c0.3,0.3,0.6,0.7,0.6,1.1c-1.3,0.1-2.7-0.8-3.2-2.1c1.3-0.7,1.3-2.8,0.1-3.6c-0.7,0.4-0.6,1.3-0.5,2.1
	s-0.1,1.8-0.8,1.8c-0.3,0-0.5-0.1-0.8-0.2c-0.6-0.3-1.2-0.6-1.7-0.9c-0.1-0.1-0.3-0.1-0.4-0.1s0,0.4,0.1,0.3
	c-0.2-1.3-1.2-2.4-2.2-3.4C16.1,43.9,14.5,42.3,12.4,41.9"/>
</svg>
