<?xml version="1.0" encoding="utf-8"?>
<!-- Generator: Adobe Illustrator 18.1.1, SVG Export Plug-In . SVG Version: 6.00 Build 0)  -->
<svg version="1.1" id="Layer_1" xmlns="http://www.w3.org/2000/svg" xmlns:xlink="http://www.w3.org/1999/xlink" x="0px" y="0px"
	 viewBox="0 0 238 167" enable-background="new 0 0 238 167" xml:space="preserve">
<g>
	<g>
		<polygon fill="#F9BD91" points="70.7,64.9 92.8,75.1 119,47.5 113.5,45.9 92.9,65.3 79.3,57.7 		"/>
		<path fill="#F9BD91" d="M73.6,49.8l1,1C74.6,50.8,71.8,51.5,73.6,49.8z"/>
		<path fill="#231F20" d="M11.3,152.6l-2.7-1.9c0,0-3.4,2.7,0,5.3l4.6,3.2c0,0,2.5-1.5-0.1-3.5C13,155.7,10.9,153.7,11.3,152.6z"/>
		<path fill="#231F20" d="M57.4,130.9l-3-1.3c0,0-2.9,3.3,1,5.2l5.1,2.3c0,0,2.2-1.9-0.8-3.4C59.7,133.6,57.2,132,57.4,130.9z"/>
		<path fill="#F9BD91" d="M86.9,27.6L79,45.3l-2.7-1.2l-2.6,5.8c0,0-5.7,4.6-10.4-4.6l5.4-12.1c0,0-2-1.4-0.9-4S71,29,71,29l3.1-7.1
			L86.9,27.6z"/>
		<path fill="none" d="M69.4,27.8C69.4,27.8,69.3,27.8,69.4,27.8"/>
		<path fill="#F9BD91" d="M54.3,43.3l-13,45.1l16.5,7.1l20.7-34.9C78.6,60.5,77.3,44.5,54.3,43.3z"/>
		<polygon fill="#F9BD91" points="55.1,43.6 30.8,42.5 16.8,77.9 22.5,77.3 34.3,51.6 49.8,53.5 		"/>
		<path fill="#BE1E2D" d="M39.1,90.2c1.8,0.6,21.8,6.1,21.8,6.1c-0.8,1.9,9.6-14.1,13.4-22.4L82.7,59c0,0-4.2-4.9-8.9-9
			c0,0-1.8,9.4-7,7s-3.1-12.3-3.1-12.3l-12.1-2.2l-6.2,23.3L39.1,90.2z"/>
		<path fill="#F9BD91" d="M16.8,75.9c-4.2,10.4,0.4,11.8,2.1,11.7s2-6.3,2-6.3s-0.3,2.6,1,2.5s1.9-3.1,1.9-3.1s1.3-4.9-1.9-5.9
			S16.8,75.9,16.8,75.9z"/>
		<path fill="#F9BD91" d="M118.3,49.3c7.8-8.1,4.1-11.1,2.4-11.6c-1.7-0.6-4.2,5-4.2,5s1.3-2.3,0-2.7c-1.3-0.4-2.9,2.1-2.9,2.1
			s-3,4-0.4,6.2C115.7,50.7,118.3,49.3,118.3,49.3z"/>
		<polygon fill="#F9BD91" points="39.1,90.2 8.6,150.7 11.3,152.6 52.4,93.9 		"/>
		<polygon fill="#F9BD91" points="50.5,93.4 84.3,103.8 57.7,131.8 54.4,130.1 70.4,110.6 42.2,105.7 		"/>
		<polygon fill="#2B3990" points="39.1,90.2 23.5,115.4 41.2,121 50.2,109.2 65,112.9 77.9,100.2 		"/>
		<path fill="#FFFFFF" d="M11.3,152.6L23,135.9l-5.6-2.6l-8.8,17.4C8.6,150.7,9.8,152.7,11.3,152.6z"/>
		<polygon fill="#FFFFFF" points="54.4,130.1 57.7,131.8 71.3,117.5 65.6,115.6 		"/>
		<path fill-rule="evenodd" clip-rule="evenodd" fill="#BE1E2D" d="M51.5,42.4l-16.2-1l-0.6,11.1l14.9,2.8
			C49.6,55.2,55.5,45.5,51.5,42.4z"/>
		<path fill-rule="evenodd" clip-rule="evenodd" fill="#BE1E2D" d="M82.7,59l9.6,5.1L88,74.5l-12.9-5.1C75.1,69.4,79.9,58.3,82.7,59
			z"/>
		<path fill="#3C2415" d="M71,29l-0.3,1.4h1.3l3.2-6.3c0,0,1.1,1,2.9-0.4l8.9,3.9c0,0,2.9-2.7-1.2-4.9c-4.1-2.2-9.7-7-12.6-0.7
			l-3,6.3L71,29z"/>
	</g>
	<g>
		<g>
			<polyline fill="#F9BD91" points="166.8,98.9 120,126.6 121.3,130.1 168.6,109.9 168.1,98.9 			"/>
			<path fill="#F9BD91" d="M123.5,69.8c-11.1,2.1-11.5-2.7-11-4.4c0.4-1.7,6.5-0.8,6.5-0.8s-2.6-0.2-2.2-1.5s3.4-1.2,3.4-1.2
				s5-0.3,5.4,3.1S123.5,69.8,123.5,69.8z"/>
			<polyline fill="#F9BD91" points="125,68.3 160.3,61.8 157.8,53.6 123.4,64.7 			"/>
			<path fill="#F9BD91" d="M174.8,42.5l-1.2,0.8C173.6,43.3,176.3,44.5,174.8,42.5z"/>
			<path fill="#F9BD91" d="M165.3,18.5l4.8,18.7l2.8-0.7l1.6,6.2c0,0,4.8,5.5,11-2.9L182.3,27c0,0,2.2-1.1,1.5-3.8s-3.1-0.7-3.1-0.7
				l-1.9-7.5L165.3,18.5z"/>
			<path fill="none" d="M182.6,21.5C182.6,21.5,182.6,21.5,182.6,21.5"/>
			<path fill="#F9BD91" d="M194.9,39.3l5.4,46.6l-17.5,4.3l-14.7-37.8C168.1,52.3,172,36.7,194.9,39.3z"/>
			<polygon fill="#F9BD91" points="194.1,39.4 218.2,42.3 226.2,79.6 220.7,78 213.2,50.7 197.7,50.1 			"/>
			<path fill="#27AAE1" d="M202.2,88c-1.8,0.3-22.5,2.4-22.5,2.4c0.5,2-7.2-15.4-9.5-24.3l-5.9-16c0,0,5-4.1,10.3-7.5
				c0,0,0.3,9.5,5.8,8s5.1-11.6,5.1-11.6l12.3-0.2l2.3,24L202.2,88z"/>
			<path fill="#F9BD91" d="M226.6,77.6c2.5,11-2.3,11.5-4,11.2s-1-6.5-1-6.5s-0.1,2.6-1.4,2.3c-1.3-0.3-1.4-3.3-1.4-3.3
				s-0.5-5,2.9-5.5C225.1,75.1,226.6,77.6,226.6,77.6z"/>
			<polygon fill="#F9BD91" points="202.2,88 222.4,152.7 219.4,154.1 188.5,89.5 			"/>
			<polygon fill="#231F20" points="202.2,88 213.4,115.4 195.1,118.1 188.9,106.4 170.1,114.1 164.3,97.4 179.7,90.5 			"/>
			<path fill="#231F20" d="M219.4,154.1l-8.8-18.4l6-1.6l5.8,18.6C222.4,152.7,220.9,154.5,219.4,154.1z"/>
			<path fill-rule="evenodd" clip-rule="evenodd" fill="#27AAE1" d="M197.8,38.8l16.2,1.6l-1.2,11l-15.2,0.3
				C197.5,51.8,193.3,41.2,197.8,38.8z"/>
			<path fill-rule="evenodd" clip-rule="evenodd" fill="#27AAE1" d="M164.3,50.1l-10.3,3.4l2.5,10.9l13.6-2.9
				C170.1,61.6,167.1,49.9,164.3,50.1z"/>
			<path fill="#3C2415" d="M180.8,22.5l0.1,1.4l-1.3-0.2l-2.1-6.8c0,0-1.2,0.8-2.8-0.9l-9.4,2.4c0,0-2.4-3.2,2-4.7
				s10.7-5.4,12.6,1.3l2,6.7L180.8,22.5z"/>
			<polygon fill="#231F20" points="121.3,130.1 143.9,120.4 141.1,114.1 120,126.6 			"/>
			<path fill="#231F20" d="M219.5,153l3-1.4c0,0,2.9,3.2-0.8,5.3l-5,2.4c0,0-2.2-1.9,0.7-3.4C217.3,155.8,219.7,154.1,219.5,153z"/>
		</g>
		<path fill="#231F20" d="M121.5,125.5l1.8,2.9c0,0-3,3.5-5.6-0.2l-3.1-5c0,0,1.7-2.6,3.7,0.3C118.3,123.6,120.4,125.9,121.5,125.5z
			"/>
	</g>
	<circle fill="#E6E7E8" cx="94.8" cy="139.1" r="17.2"/>
</g>
</svg>
