<?xml version="1.0" encoding="utf-8"?>
<!-- Generator: Adobe Illustrator 18.1.1, SVG Export Plug-In . SVG Version: 6.00 Build 0)  -->
<svg version="1.1" id="Layer_1" xmlns="http://www.w3.org/2000/svg" xmlns:xlink="http://www.w3.org/1999/xlink" x="0px" y="0px"
	 viewBox="0 0 179 479" enable-background="new 0 0 179 479" xml:space="preserve">
<g>
	<path fill="#331A0A" d="M51.1,457.4H61c0,0,3.8,12.4-9,13.2H35.4c0,0-3.7-7.9,6.2-8.4C41.6,462.2,50.2,460.7,51.1,457.4z"/>
	<path fill="#331A0A" d="M119.9,457.4H110c0,0-3.8,12.4,9,13.2h16.6c0,0,3.7-7.9-6.2-8.4C129.4,462.2,120.8,460.7,119.9,457.4z"/>
	<polygon fill="#4D4D4D" points="53.8,245.6 49.8,458.8 64.8,458.8 92.2,281.9 104.3,457.4 122.8,457.4 126.6,244.6 	"/>
	<path fill="#3E3E3E" d="M26,109.3c0,0,49-20.1,125.4,0c0,0-27.5,12.6-23,168.9c-0.6-2.3-77.1,1.6-77.2,0
		C50.1,135.7,26,109.3,26,109.3z"/>
	<path fill="#D89F79" d="M9.3,271.6c-6.3,24.3,4.4,26,8.3,25.3s2.6-14.5,2.6-14.5s0,5.8,3,5.2c3-0.6,3.3-7.4,3.3-7.4
		s1.5-11.1-6.1-12.6C12.8,266.2,9.3,271.6,9.3,271.6z"/>
	<polygon fill="#3E3E3E" points="26,109.3 8.2,272.3 26.7,272.3 51.6,143.4 	"/>
	<path fill="#D89F79" d="M168.4,271.1c6.2,23.8-4.3,25.4-8.1,24.7c-3.8-0.7-2.6-14.1-2.6-14.1s0,5.7-2.9,5.1s-3.2-7.2-3.2-7.2
		s-1.4-10.9,6-12.3C165,265.8,168.4,271.1,168.4,271.1z"/>
	<polygon fill="#3E3E3E" points="151.9,108.6 169.7,271.6 151.2,271.6 127.9,123.9 	"/>
	<path fill="#D89F79" d="M114.2,19.5V80c0,4.8-3.9,8.8-8.8,8.8h0v19c0,0-9.9,19.4-34,0V68.3c0,0-7.3-1.5-7.3-9.9s8.4-4.4,8.4-4.4
		V19.5H114.2z"/>
	<path fill="#EBEBEB" d="M68.5,106.8c0,0,21.4,52.3,23.2,94.4c0,0,6.2-74.4,13.3-93L88.1,109L68.5,106.8z"/>
	<path fill="#ED484C" d="M81.5,111.2c0,0,0,15.1,2.7,16s9.7,1.3,10.6-2.2s0-16,0-16S81.9,108.5,81.5,111.2z"/>
	<polygon fill="#CCCCCC" points="71.3,98.3 88.1,108.5 84.1,122.3 71.4,107.8 	"/>
	<polygon fill="#CCCCCC" points="87.8,108.7 92.7,121.8 102.7,115.2 105.4,101.7 	"/>
	<path fill="#ED484C" d="M93,124.5l5.3,15.5l-6.6,61.1c0,0-5.8-41.9-12.7-64.7l6.9-12.4L93,124.5z"/>
	<path fill="#333333" d="M91.2,201.9l0.9,17.9c0,0,10.6-47,20.4-59.8l-3.1-18.2c0,0,16.8-17.7,16.4-19.1
		c-0.4-1.3-19.6-20.8-20.1-21.3C105.3,101,91.2,165.5,91.2,201.9z"/>
	<path fill="#333333" d="M70.4,101.4c0,0,25.6,88.5,21.3,124.9c0,0-10.6-40.8-27-67.8L70,140l-16-27.5L70.4,101.4z"/>
	<path fill="#B4B4B4" d="M73.5,56.3c1.1,0.8,2.5,2.6,2.7,7c0,0,4-9.7,0-23.9c-4-14.2,14.8-18.8,22.6-9.3c0,0,4.7-8.9,15.3-2.7
		l0.2,7.4c0,0,6.1-22-11.2-25.3c-22.9-4.3-38.7,3.6-40.2,20.6c-1.2,13.4,2.2,24.3,2.2,24.3s3.2-1.8,5.4-0.2
		C71.5,55,72.5,55.7,73.5,56.3z"/>
	<path fill="#999999" d="M77.8,49.7c0,0-7.4-6.5-13.7-0.9C64.1,48.9,70.8,45.9,77.8,49.7z"/>
	<path fill="#999999" d="M76.3,40.6c0,0-7.2-4.3-13.9-0.6C62.4,40,68.2,33.3,76.3,40.6z"/>
	<path fill="#999999" d="M76,32.2c0,0-4.7-8.6-12.8-4.6C63.2,27.6,72.6,20.5,76,32.2z"/>
	<path fill="#999999" d="M85.3,25.5c0,0,1.8-13-11.5-12.8C73.8,12.7,83.7,13.7,85.3,25.5z"/>
	<path fill="#999999" d="M104.1,25.8c0,0,3.4-13.1-6.8-17C97.3,8.8,109.8,11.8,104.1,25.8z"/>
	<path fill="#999999" d="M112.3,27c0,0,3.2-3.4,1-10.3C113.4,16.7,116.9,23.9,112.3,27z"/>
	<path fill="#999999" d="M88.3,8.8c0,0,11.1,2.8,10.5,21.1C98.8,30,97.9,16.7,88.3,8.8z"/>
	<polygon fill="#333333" points="91.7,226.4 93,278.7 96,277.5 	"/>
</g>
</svg>
