<?xml version="1.0" encoding="utf-8"?>
<!-- Generator: Adobe Illustrator 18.1.1, SVG Export Plug-In . SVG Version: 6.00 Build 0)  -->
<svg version="1.1" id="Layer_1" xmlns="http://www.w3.org/2000/svg" xmlns:xlink="http://www.w3.org/1999/xlink" x="0px" y="0px"
	 viewBox="0 0 283 449" enable-background="new 0 0 283 449" xml:space="preserve">
<g>
	<path fill="#662D91" d="M148.1,49.5l-1.2-10.9c0,0,18.8-18.1,45.1-5l0.5,15.9H148.1z"/>
	
		<ellipse transform="matrix(0.9985 -5.393997e-02 5.393997e-02 0.9985 -3.0655 9.4089)" fill="#4A2472" cx="172.8" cy="61.5" rx="40.3" ry="18.6"/>
	<polygon fill="#56287F" points="139,242.3 131.6,419.8 156.5,419.8 173.1,274.4 176,419.8 204,419.8 203.5,241.3 	"/>
	<path fill="#F9BD91" d="M68.3,130.7c0,0-23.6-16.6-25-42.4c0,0,0.4-7.1-2.6-8.1c-3-1-3.7,5.1-3.7,5.1s2.9-14.3-1.1-15.5
		c-4-1.2-15.3-0.7-11.5,25.6c0,0,13.9,47.5,40.8,52.6C65.2,147.9,87.2,139.7,68.3,130.7z"/>
	<path fill="#662D91" d="M121.4,122.4c0,0-22.3,15-48.5,8.9c0,0-8.9,13.6-3.2,20.6c0,0,32.2,7.3,49.9-1.4L121.4,122.4z"/>
	<path fill="#F9BD91" d="M245.7,101.9c0,0,6-26.4-10.5-44.9c0,0-5.2-4.6-3.6-7.2c1.6-2.6,6.2,1.1,6.2,1.1s-11.8-8-9.7-11.3
		c2.1-3.3,10.8-10.2,25.9,10.2c0,0,22.1,41.3,5.8,61.9C259.6,111.7,238,120,245.7,101.9z"/>
	<path fill="#662D91" d="M114.4,121.5c0,0,43.4-17.8,111.1,0l-20.4,119.9c0,0-25.6,2.1-68.4,0L114.4,121.5z"/>
	<polygon fill="#231F20" points="205.6,242.3 136.6,242.3 135.5,234.5 206.3,234.5 	"/>
	<path fill="#662D91" d="M201.1,129.9c0,0,26.6-3.9,41.6-24.7c0,0,15.7,3.6,16.3,12c0,0-18.7,25.4-37.5,30.8L201.1,129.9z"/>
	<polygon fill="#D1D3D4" points="147.5,419.8 145.4,429.9 136.6,429.9 136.6,419.8 	"/>
	<path fill="#231F20" d="M136.6,429.9h8.7c0,0,3.4,11-7.9,11.7h-14.7c0,0-3.2-7,5.5-7.5C128.2,434.1,135.8,432.8,136.6,429.9z"/>
	<polygon fill="#D1D3D4" points="186.7,419.8 188.8,429.9 197.6,429.9 197.6,419.8 	"/>
	<path fill="#231F20" d="M197.6,429.9h-8.7c0,0-3.4,11,7.9,11.7h14.7c0,0,3.2-7-5.5-7.5C206,434.1,198.4,432.8,197.6,429.9z"/>
	<path fill="#662D91" d="M236.7,64l27.7-21.1c0,0,14.3,51.3-5.3,74.3l-16.3-12C242.7,105.2,252.9,78.3,236.7,64z"/>
	<path fill="#662D91" d="M72.9,131.3c0,0-25-15.7-26-39.4L12.6,99c0,0,17.3,42,58.4,53.1L72.9,131.3z"/>
	<polyline fill="#662D91" points="135.5,231.9 135.4,233.5 131.6,321.1 159.2,321.1 172.3,256.7 181.9,321.1 210.7,321.1 
		206.3,231.9 	"/>
	<polygon fill="#F9ED32" points="236.7,64 241.3,69.5 267.4,57.6 264.4,42.9 	"/>
	<path fill="#F9ED32" d="M170,170.7l28.6-35.5l-8.1-11.3H208c0,0,0.2-13.5-36.8-15.2"/>
	<path fill="#F9ED32" d="M170,170.7l-27.4-35.5l8.1-11.3h-17.5c0,0,1.9-13.5,38.9-15.2"/>
	<path fill="#F9BD91" d="M192.5,56v47.3h-7.8v16.8c0,0-8.7,17.2-30.1,0v-35c0,0-6.5-1.3-6.5-8.7c0-7.5,7.5-3.9,7.5-3.9V56H192.5z"/>
	<polyline fill="#F9BD91" points="154.6,120.2 170,161 184.7,120.2 	"/>
	<path fill="#F9ED32" d="M12.6,99l34.3-7.2c0,0,0.5,5.5,1.2,7.8l-30,9.8C18.1,109.5,12.7,101.3,12.6,99z"/>
	<circle fill="#C2B59B" cx="136.1" cy="331.8" r="2.4"/>
	<circle fill="#C2B59B" cx="141" cy="330.6" r="2.4"/>
	<circle fill="#C2B59B" cx="145.9" cy="329.3" r="2.4"/>
	<circle fill="#C2B59B" cx="150.1" cy="328.2" r="2.4"/>
	<circle fill="#C2B59B" cx="153.9" cy="326.2" r="2.4"/>
	<circle fill="#C2B59B" cx="157.8" cy="324.5" r="2.4"/>
	<circle fill="#C2B59B" cx="161.2" cy="322.1" r="2.4"/>
	<circle fill="#C2B59B" cx="164.3" cy="318.7" r="2.4"/>
	<circle fill="#C2B59B" cx="166" cy="314.8" r="2.4"/>
	<circle fill="#C2B59B" cx="167.8" cy="311.2" r="2.4"/>
	<circle fill="#C2B59B" cx="169.2" cy="307.4" r="2.4"/>
	<circle fill="#C2B59B" cx="169.2" cy="303.5" r="2.4"/>
	<circle fill="#C2B59B" cx="169.2" cy="298.6" r="2.4"/>
	<circle fill="#C2B59B" cx="169.2" cy="293.8" r="2.4"/>
	<circle fill="#C2B59B" cx="169.2" cy="289.3" r="2.4"/>
	<circle fill="#C2B59B" cx="169.2" cy="283.8" r="2.4"/>
	<circle fill="#C2B59B" cx="169.2" cy="279.4" r="2.4"/>
	<path fill="#231F20" d="M155.6,72.5v12h5.8l0.2-28.5h-10.9v15.9C150.6,71.9,154.8,71.4,155.6,72.5z"/>
	<polygon fill="#231F20" points="181.1,85.5 166.7,87.4 181.1,86.9 	"/>
	<polygon fill="#231F20" points="181.7,85.5 192,87.4 181.7,86.9 	"/>
	<path fill="#F9ED32" d="M155,45.5c0,0,1.6-26.8-14.8-30.5C140.3,15,138.8,35.1,155,45.5z"/>
</g>
</svg>
