<?xml version="1.0" encoding="utf-8"?>
<!-- Generator: Adobe Illustrator 18.1.1, SVG Export Plug-In . SVG Version: 6.00 Build 0)  -->
<svg version="1.1" id="Layer_1" xmlns="http://www.w3.org/2000/svg" xmlns:xlink="http://www.w3.org/1999/xlink" x="0px" y="0px"
	 viewBox="0 0 293 696" enable-background="new 0 0 293 696" xml:space="preserve">
<g>
	<polygon fill="#9E7B3C" points="164.9,687.9 10.6,665.8 35.4,202.8 67.5,172.7 262.2,200.5 279.3,240.3 	"/>
	<polyline fill="#82622E" points="161.9,186.2 91.7,677.4 10.6,665.8 32.5,207.3 67.5,172.7 	"/>
	<g>
		<path fill="#BC964A" d="M152.2,261.9l-0.2,1.5l-7.9,55.3c0,0,71.5,17.8,93.8-31.8c0,0,31-68.1-8.2-105.7l-63.6-16.5L152.2,261.9z"
			/>
		<path fill="#356480" d="M152.9,256.9l-0.2,1.5l-7.9,55.3c0,0,68,17.3,89.5-32.4c0,0,30-68.2-7.1-105.6l-60.4-16.1L152.9,256.9z"/>
		<path fill="#491301" d="M153.7,251.4l-0.2,1.5l-7.9,55.3c0,0,64.9,16.9,85.8-32.9c0,0,29.1-68.4-6.1-105.4l-57.7-15.7L153.7,251.4
			z"/>
		<path fill="#2C3774" d="M154.6,245.1l-0.2,1.5l-7.9,55.3c0,0,59.9,16.1,79.8-33.8c0,0,27.7-68.6-4.5-105.2l-53.3-15L154.6,245.1z"
			/>
		<path fill="#BC964A" d="M155.3,240.1l-0.2,1.5l-7.9,55.3c0,0,55.6,15.5,74.6-34.5c0,0,26.4-68.7-3.2-105l-49.4-14.5L155.3,240.1z"
			/>
		<path fill="#356480" d="M155.9,235.8l-0.2,1.5l-7.9,55.3c0,0,51.1,14.9,69.1-35.3c0,0,25.1-68.9-1.7-104.8l-45.4-13.9L155.9,235.8
			z"/>
		<path fill="#491301" d="M156.6,230.6l-0.2,1.5l-7.9,55.3c0,0,47.6,14.4,64.9-35.9c0,0,24.1-69.1-0.7-104.6l-42.3-13.5L156.6,230.6
			z"/>
		<path fill="#2C3774" d="M157.1,225.8l-0.2,1.5l-7.9,55.3c0,0,44.4,13.9,61.1-36.5c0,0,23.2-69.2,0.4-104.5L171,128.5L157.1,225.8z
			"/>
		<path fill="#BC964A" d="M157.6,221.6l-0.2,1.5l-7.9,55.3c0,0,41.5,13.5,57.6-36.9c0,0,22.4-69.3,1.2-104.4l-36.9-12.7L157.6,221.6
			z"/>
		<path fill="#356480" d="M158.2,217.5L158,219l-7.9,55.3c0,0,38.1,13,53.5-37.5c0,0,21.4-69.5,2.3-104.2l-33.8-12.3L158.2,217.5z"
			/>
		<path fill="#BC964A" d="M166.6,161.2l-8.1,56.7c0,0,17.8,6.5,28.6-4.5l7.9-55.3L166.6,161.2z"/>
		<path fill="#D2AA52" d="M188,164.8l-17.8,124.9c0,0,32.6,7.2,41.7-23.1l16.6-61.4c0,0,10.3-16,29.3-17.9c0,0-4.6-102.1-13.7-119
			l-45.6-0.6L188,164.8z"/>
		<path fill="#908595" d="M165.6,168.2l-13.4,93.6c0,0,6.2,2.2,8.3-5.3c2.1-7.5,21-88.4,21-88.4S174,170.7,165.6,168.2z"/>
		<g>
			<defs>
				<path id="SVGID_1_" d="M188,164.8l-17.8,124.9c0,0,32.6,7.2,41.7-23.1l16.6-61.4c0,0,10.3-16,29.3-17.9c0,0-4.6-102.1-13.7-119
					l-45.6-0.6L188,164.8z"/>
			</defs>
			<clipPath id="SVGID_2_">
				<use xlink:href="#SVGID_1_"  overflow="visible"/>
			</clipPath>
			<g clip-path="url(#SVGID_2_)">
				
					<rect x="218" y="81.5" transform="matrix(0.9899 0.1415 -0.1415 0.9899 14.3999 -32.5329)" fill="#2C3774" width="35.9" height="7.1"/>
				
					<rect x="216.1" y="94.9" transform="matrix(0.9899 0.1415 -0.1415 0.9899 16.2776 -32.1269)" fill="#2C3774" width="35.9" height="7.1"/>
				
					<rect x="210.6" y="108" transform="matrix(0.9899 0.1415 -0.1415 0.9899 18.1275 -31.872)" fill="#2C3774" width="45.3" height="7.1"/>
				
					<rect x="201" y="122.3" transform="matrix(0.9899 0.1415 -0.1415 0.9899 20.1085 -31.2441)" fill="#2C3774" width="57.5" height="7.1"/>
				
					<rect x="199.1" y="135.8" transform="matrix(0.9899 0.1415 -0.1415 0.9899 22.008 -30.9392)" fill="#2C3774" width="59" height="7.1"/>
				
					<rect x="189.6" y="148.5" transform="matrix(0.9899 0.1415 -0.1415 0.9899 23.7637 -30.2484)" fill="#2C3774" width="69.9" height="7.1"/>
				
					<rect x="183.6" y="162.5" transform="matrix(0.9899 0.1415 -0.1415 0.9899 25.7337 -29.8464)" fill="#2C3774" width="78.3" height="7.1"/>
				
					<rect x="181.6" y="176.5" transform="matrix(0.9899 0.1415 -0.1415 0.9899 27.727 -29.9748)" fill="#2C3774" width="86.1" height="7.1"/>
				
					<rect x="176.7" y="187.9" transform="matrix(0.9899 0.1415 -0.1415 0.9899 29.2084 -28.0154)" fill="#2C3774" width="69.9" height="7.1"/>
				
					<rect x="175.6" y="202.8" transform="matrix(0.9899 0.1415 -0.1415 0.9899 31.3575 -28.3054)" fill="#2C3774" width="78.3" height="7.1"/>
				
					<rect x="173.6" y="216.8" transform="matrix(0.9899 0.1415 -0.1415 0.9899 33.3508 -28.4338)" fill="#2C3774" width="86.1" height="7.1"/>
				
					<rect x="168.6" y="228.2" transform="matrix(0.9899 0.1415 -0.1415 0.9899 34.8321 -26.4744)" fill="#2C3774" width="69.9" height="7.1"/>
				
					<rect x="170" y="241" transform="matrix(0.9899 0.1415 -0.1415 0.9899 36.6987 -27.1354)" fill="#2C3774" width="78.3" height="7.1"/>
				
					<rect x="168" y="254.9" transform="matrix(0.9899 0.1415 -0.1415 0.9899 38.6919 -27.2638)" fill="#2C3774" width="86.1" height="7.1"/>
				
					<rect x="163.1" y="266.3" transform="matrix(0.9899 0.1415 -0.1415 0.9899 40.1733 -25.3044)" fill="#2C3774" width="69.9" height="7.1"/>
				
					<rect x="156.9" y="277.8" transform="matrix(0.9899 0.1415 -0.1415 0.9899 41.7829 -24.9173)" fill="#2C3774" width="78.3" height="7.1"/>
				
					<rect x="155" y="291.8" transform="matrix(0.9899 0.1415 -0.1415 0.9899 43.7762 -25.0457)" fill="#2C3774" width="86.1" height="7.1"/>
				
					<rect x="150" y="303.2" transform="matrix(0.9899 0.1415 -0.1415 0.9899 45.2575 -23.0863)" fill="#2C3774" width="69.9" height="7.1"/>
			</g>
		</g>
		<path fill="#F3D46A" d="M178.1,80.6l7.1-49.9c0,0,43.8,6.9,58.8,37.7c0,0-21,19.9-28,40L178.1,80.6z"/>
		<path fill="#9F6B1F" d="M178.4,78.5l9.8-68.7c0,0,18.8-0.5,11.7,15.6c0,0-4.3,3.8-2.5,7c1.9,3.2,7.3-2.7,2.4,17.4
			S188.4,80.3,178.4,78.5z"/>
		<polygon fill="#2C3774" points="208.4,37.7 198.9,76.4 204.7,78.5 217,41.8 		"/>
		<polygon fill="#2C3774" points="223.3,45.7 209.2,79.1 212.4,82.3 229.4,50.2 		"/>
		<polygon fill="#2C3774" points="233.6,54 215.7,83.8 220.5,87.5 238.6,59.6 		"/>
		<path fill="#FDFF99" d="M165.6,168.2l12.5-87.7c0,0,31.2,0.9,38.8,21.5l-0.9,6.2c0,0,5.2-4.1,7.8-0.1s-8.4,42.4-17,32.1
			C206.8,140.2,192.3,176.7,165.6,168.2z"/>
		<path fill="#BC964A" d="M153.6,262.2l-0.2,1.5l-7.9,55.3c0,0-73.7-3-81.1-56.8c0,0-10.7-74,37.5-99.2l65.7,1.9L153.6,262.2z"/>
		<path fill="#356480" d="M154.3,257.3l-0.2,1.5l-7.9,55.3c0,0-70.1-2.4-76.8-56.2c0,0-9.6-73.9,36.3-99.3l62.5,1.5L154.3,257.3z"/>
		<path fill="#491301" d="M155.1,251.8l-0.2,1.5l-7.9,55.3c0,0-67.1-2-73.2-55.6c0,0-8.8-73.8,35.4-99.5l59.8,1.1L155.1,251.8z"/>
		<path fill="#2C3774" d="M156,245.4l-0.2,1.5l-7.9,55.3c0,0-62.1-1.3-67.1-54.8c0,0-7.3-73.6,33.8-99.7l55.3,0.5L156,245.4z"/>
		<path fill="#BC964A" d="M156.7,240.5l-0.2,1.5l-7.9,55.3c0,0-57.8-0.7-62-54c0,0-6.1-73.4,32.5-99.9l51.5-0.1L156.7,240.5z"/>
		<path fill="#356480" d="M157.3,236.2l-0.2,1.5l-7.9,55.3c0,0-53.2,0-56.5-53.3c0,0-4.8-73.2,31-100.1l47.4-0.7L157.3,236.2z"/>
		<path fill="#491301" d="M158,230.9l-0.2,1.5l-7.9,55.3c0,0-49.7,0.5-52.3-52.7c0,0-3.8-73.1,29.9-100.3l44.4-1.1L158,230.9z"/>
		<path fill="#2C3774" d="M159,226.2l-0.2,1.5l-7.9,55.3c0,0-46.5,0.9-48.4-52.1c0,0-2.9-72.9,28.9-100.4l41.5-1.5L159,226.2z"/>
		<path fill="#BC964A" d="M159.6,222l-0.2,1.5l-7.9,55.3c0,0-43.7,1.3-45-51.6c0,0-2.1-72.8,28-100.5l39-1.9L159.6,222z"/>
		<path fill="#2C576D" d="M160.2,217.9l-0.2,1.5l-7,55.6c0,0-41.1,1.5-41.7-51.3c0,0-1.1-72.7,27-100.7l35.9-2.3L160.2,217.9z"/>
		<path fill="#9E7B3C" d="M168,161.5l-8.1,56.7c0,0-18.9,1.3-26.2-12.4l7.9-55.3L168,161.5z"/>
		<path fill="#B58F45" d="M146.3,159l-17.8,124.9c0,0-33.3-2.2-33.6-33.8l1.3-63.6c0,0-5.4-18.2-23.1-25.4c0,0,33-96.7,46.5-110.4
			l43.9,12.2L146.3,159z"/>
		<path fill="#6F6375" d="M167.7,168.9l-13.5,93.5c0,0-7.2,0.2-7.1-7.6c0.1-7.8,4.6-90.8,4.6-90.8S158.8,168.9,167.7,168.9z"/>
		<g>
			<defs>
				<path id="SVGID_3_" d="M146.3,159l-17.8,124.9c0,0-33.3-2.2-33.6-33.8l1.3-63.6c0,0-5.4-18.2-23.1-25.4c0,0,33-96.7,46.5-110.4
					l43.9,12.2L146.3,159z"/>
			</defs>
			<clipPath id="SVGID_4_">
				<use xlink:href="#SVGID_3_"  overflow="visible"/>
			</clipPath>
			<g clip-path="url(#SVGID_4_)">
				
					<rect x="104.7" y="65.4" transform="matrix(-0.9899 -0.1415 0.1415 -0.9899 234.3252 154.5338)" fill="#2C3774" width="35.9" height="7.1"/>
				
					<rect x="102.8" y="78.8" transform="matrix(-0.9899 -0.1415 0.1415 -0.9899 228.615 180.9435)" fill="#2C3774" width="35.9" height="7.1"/>
				
					<rect x="95.3" y="91.7" transform="matrix(-0.9899 -0.1415 0.1415 -0.9899 221.1306 206.119)" fill="#2C3774" width="45.3" height="7.1"/>
				
					<rect x="88.4" y="106.3" transform="matrix(-0.9899 -0.1415 0.1415 -0.9899 217.6626 235.14)" fill="#2C3774" width="57.5" height="7.1"/>
				
					<rect x="85.1" y="119.6" transform="matrix(-0.9899 -0.1415 0.1415 -0.9899 210.5302 261.2422)" fill="#2C3774" width="59" height="7.1"/>
				
					<rect x="79.9" y="132.9" transform="matrix(-0.9899 -0.1415 0.1415 -0.9899 209.1777 287.7436)" fill="#2C3774" width="69.9" height="7.1"/>
				
					<rect x="73.5" y="146.9" transform="matrix(-0.9899 -0.1415 0.1415 -0.9899 202.8795 315.3129)" fill="#2C3774" width="78.3" height="7.1"/>
				
					<rect x="63.9" y="159.8" transform="matrix(-0.9899 -0.1415 0.1415 -0.9899 189.6527 340.0974)" fill="#2C3774" width="86.1" height="7.1"/>
				
					<rect x="81.3" y="174.4" transform="matrix(-0.9899 -0.1415 0.1415 -0.9899 206.1427 370.4566)" fill="#2C3774" width="69.9" height="7.1"/>
				
					<rect x="69.9" y="187.9" transform="matrix(-0.9899 -0.1415 0.1415 -0.9899 189.9409 396.299)" fill="#2C3774" width="78.3" height="7.1"/>
				
					<rect x="60.3" y="200.7" transform="matrix(-0.9899 -0.1415 0.1415 -0.9899 176.714 421.0835)" fill="#2C3774" width="86.1" height="7.1"/>
				
					<rect x="77.7" y="215.3" transform="matrix(-0.9899 -0.1415 0.1415 -0.9899 193.204 451.4427)" fill="#2C3774" width="69.9" height="7.1"/>
				
					<rect x="64.5" y="226" transform="matrix(-0.9899 -0.1415 0.1415 -0.9899 173.8918 471.5091)" fill="#2C3774" width="78.3" height="7.1"/>
				
					<rect x="54.9" y="238.9" transform="matrix(-0.9899 -0.1415 0.1415 -0.9899 160.6649 496.2936)" fill="#2C3774" width="86.1" height="7.1"/>
				
					<rect x="72.3" y="253.5" transform="matrix(-0.9899 -0.1415 0.1415 -0.9899 177.1549 526.6528)" fill="#2C3774" width="69.9" height="7.1"/>
				
					<rect x="66.7" y="265.1" transform="matrix(-0.9899 -0.1415 0.1415 -0.9899 172.7606 549.5193)" fill="#2C3774" width="78.3" height="7.1"/>
				
					<rect x="57.2" y="277.9" transform="matrix(-0.9899 -0.1415 0.1415 -0.9899 159.5338 574.3038)" fill="#2C3774" width="86.1" height="7.1"/>
				
					<rect x="74.5" y="292.5" transform="matrix(-0.9899 -0.1415 0.1415 -0.9899 176.0238 604.6631)" fill="#2C3774" width="69.9" height="7.1"/>
			</g>
		</g>
		<path fill="#E0BF61" d="M179.5,80.9l7.1-49.9c0,0-44-5.7-67,19.7c0,0,14.5,25,15.7,46.2L179.5,80.9z"/>
		<path fill="#9F6B1F" d="M180.5,78.9l9.1-68.8c0,0-17.9-5.7-15.6,11.7c0,0,3.1,4.9,0.4,7.4c-2.7,2.6-6.3-4.7-7.1,16
			C166.5,66,170.4,77.9,180.5,78.9z"/>
		<polygon fill="#2C3774" points="162.4,31.2 160.7,71 154.5,71.4 153,32.8 		"/>
		<polygon fill="#2C3774" points="145.8,34.7 150,70.8 146.1,73 138.7,37.3 		"/>
		<polygon fill="#2C3774" points="133.6,39.8 142.4,73.5 136.9,75.6 127.2,43.8 		"/>
		<path fill="#EAEA8B" d="M167.7,168.9l11.8-88c0,0-30.2-7.9-43.3,9.8l-0.9,6.2c0,0-3.9-5.4-7.5-2.3c-3.6,3.1-3.8,43,7.3,35.6
			C135.2,130.1,139.6,169.5,167.7,168.9z"/>
	</g>
</g>
</svg>
