<?xml version="1.0" encoding="utf-8"?>
<!-- Generator: Adobe Illustrator 18.1.1, SVG Export Plug-In . SVG Version: 6.00 Build 0)  -->
<svg version="1.1" id="Layer_1" xmlns="http://www.w3.org/2000/svg" xmlns:xlink="http://www.w3.org/1999/xlink" x="0px" y="0px"
	 viewBox="0 0 197 497" enable-background="new 0 0 197 497" xml:space="preserve">
<g>
	<ellipse fill="#603913" cx="99.3" cy="60.1" rx="90.2" ry="49.2"/>
	<ellipse fill="#4C2A0F" cx="99.3" cy="77.1" rx="64.3" ry="32.1"/>
	<path fill="#331A0A" d="M57.3,475.4h9.6c0,0,3.7,12.1-8.7,12.8H42c0,0-3.6-7.7,6-8.2C48,480,56.4,478.6,57.3,475.4z"/>
	<path fill="#331A0A" d="M124.3,475.4h-9.6c0,0-3.7,12.1,8.7,12.8h16.2c0,0,3.6-7.7-6-8.2C133.5,480,125.1,478.6,124.3,475.4z"/>
	<polygon fill="#4C2A0F" points="60,269.4 56.1,476.8 70.6,476.8 97.3,304.6 109.1,475.4 127.1,475.4 130.8,268.3 	"/>
	<path fill="#603913" d="M32.9,136.7c0,0,47.7-19.6,122,0l-22.4,131.7c0,0-28.1,2.3-75.1,0L32.9,136.7z"/>
	<path fill="#4C2A0F" d="M73.8,128.6v129.6L98,229.3l20.7,28.8V130.8C118.7,130.8,97.5,125.3,73.8,128.6z"/>
	<path fill="#BCBEC0" d="M57.2,266.9l16.6-8.7L98,229.3l20.7,28.8l13.9,10.2c0,0-19.8,7.8-72.6,2.2L57.2,266.9z"/>
	<path fill="#BCBEC0" d="M77,135.3l19.2,40.8l15.8-40.8C112,135.3,100.3,122.2,77,135.3z"/>
	<path fill="#D89F79" d="M118.7,60.5v56.2h-8.5v18.5c0,0-9.6,18.9-33.1,0V96.8c0,0-7.1-1.4-7.1-9.6s8.2-4.3,8.2-4.3V60.5H118.7z"/>
	<path fill="#6B0C1A" d="M77,127.6c0,0-3.4,3.6,0,7.7c0,0,6.1,7.4,17.3,8.4c11.2,1,17.7-8.4,17.7-8.4s1.9-7-1.8-7.7
		C110.1,127.6,100.9,141.6,77,127.6z"/>
	<path fill="#6B0C1A" d="M92.5,143.6l-2.3,19.7l6,12.7l5.3-13.8l-2.5-19.4C99.1,142.9,95.2,138.2,92.5,143.6z"/>
	<polygon fill="#8B5E3C" points="50.8,232.3 130.8,131.5 150.9,135.6 54.8,253.9 	"/>
	<g>
		<path fill="#DB9B5D" d="M54.1,229.5c-1.4-1.2-1.5-3.2-0.3-4.6l0,0c1.2-1.4,3.2-1.5,4.6-0.3l8.7,7.6c1.4,1.2,1.5,3.2,0.3,4.6l0,0
			c-1.2,1.4-3.2,1.5-4.6,0.3L54.1,229.5z"/>
		
			<rect x="59.5" y="225.9" transform="matrix(-0.6565 0.7544 -0.7544 -0.6565 279.5379 338.1727)" fill="#A06F3A" width="6.5" height="13.6"/>
		
			<rect x="63.5" y="234.7" transform="matrix(-0.6565 0.7544 -0.7544 -0.6565 288.7362 340.9054)" fill="#D1883F" width="6.5" height="3.1"/>
	</g>
	<g>
		<path fill="#DB9B5D" d="M60.6,222.6c-1.4-1.2-1.5-3.2-0.3-4.6l0,0c1.2-1.4,3.2-1.5,4.6-0.3l8.7,7.6c1.4,1.2,1.5,3.2,0.3,4.6l0,0
			c-1.2,1.4-3.2,1.5-4.6,0.3L60.6,222.6z"/>
		
			<rect x="66" y="219" transform="matrix(-0.6565 0.7544 -0.7544 -0.6565 285.011 321.8028)" fill="#A06F3A" width="6.5" height="13.6"/>
		
			<rect x="69.9" y="227.7" transform="matrix(-0.6565 0.7544 -0.7544 -0.6565 294.2092 324.5355)" fill="#D1883F" width="6.5" height="3.1"/>
	</g>
	<g>
		<path fill="#DB9B5D" d="M67.9,213.3c-1.4-1.2-1.5-3.2-0.3-4.6l0,0c1.2-1.4,3.2-1.5,4.6-0.3l8.7,7.6c1.4,1.2,1.5,3.2,0.3,4.6l0,0
			c-1.2,1.4-3.2,1.5-4.6,0.3L67.9,213.3z"/>
		
			<rect x="73.3" y="209.7" transform="matrix(-0.6565 0.7544 -0.7544 -0.6565 290.0492 300.8962)" fill="#A06F3A" width="6.5" height="13.6"/>
		
			<rect x="77.2" y="218.4" transform="matrix(-0.6565 0.7544 -0.7544 -0.6565 299.2475 303.6289)" fill="#D1883F" width="6.5" height="3.1"/>
	</g>
	<g>
		<path fill="#DB9B5D" d="M74.5,204.9c-1.4-1.2-1.5-3.2-0.3-4.6l0,0c1.2-1.4,3.2-1.5,4.6-0.3l8.7,7.6c1.4,1.2,1.5,3.2,0.3,4.6l0,0
			c-1.2,1.4-3.2,1.5-4.6,0.3L74.5,204.9z"/>
		
			<rect x="79.9" y="201.3" transform="matrix(-0.6565 0.7544 -0.7544 -0.6565 294.7983 282.0101)" fill="#A06F3A" width="6.5" height="13.6"/>
		
			<rect x="83.9" y="210.1" transform="matrix(-0.6565 0.7544 -0.7544 -0.6565 303.9966 284.7427)" fill="#D1883F" width="6.5" height="3.1"/>
	</g>
	<g>
		<path fill="#DB9B5D" d="M82.1,195.6c-1.4-1.2-1.5-3.2-0.3-4.6l0,0c1.2-1.4,3.2-1.5,4.6-0.3l8.7,7.6c1.4,1.2,1.5,3.2,0.3,4.6l0,0
			c-1.2,1.4-3.2,1.5-4.6,0.3L82.1,195.6z"/>
		
			<rect x="87.5" y="192" transform="matrix(-0.6565 0.7544 -0.7544 -0.6565 300.3202 260.7695)" fill="#A06F3A" width="6.5" height="13.6"/>
		
			<rect x="91.5" y="200.7" transform="matrix(-0.6565 0.7544 -0.7544 -0.6565 309.5185 263.5022)" fill="#D1883F" width="6.5" height="3.1"/>
	</g>
	<g>
		<path fill="#DB9B5D" d="M89.7,186.7c-1.4-1.2-1.5-3.2-0.3-4.6l0,0c1.2-1.4,3.2-1.5,4.6-0.3l8.7,7.6c1.4,1.2,1.5,3.2,0.3,4.6l0,0
			c-1.2,1.4-3.2,1.5-4.6,0.3L89.7,186.7z"/>
		
			<rect x="95.1" y="183.1" transform="matrix(-0.6565 0.7544 -0.7544 -0.6565 306.2564 240.4387)" fill="#A06F3A" width="6.5" height="13.6"/>
		
			<rect x="99.1" y="191.9" transform="matrix(-0.6565 0.7544 -0.7544 -0.6565 315.4546 243.1714)" fill="#D1883F" width="6.5" height="3.1"/>
	</g>
	<g>
		<path fill="#DB9B5D" d="M97.7,176.8c-1.4-1.2-1.5-3.2-0.3-4.6l0,0c1.2-1.4,3.2-1.5,4.6-0.3l8.7,7.6c1.4,1.2,1.5,3.2,0.3,4.6l0,0
			c-1.2,1.4-3.2,1.5-4.6,0.3L97.7,176.8z"/>
		
			<rect x="103.1" y="173.2" transform="matrix(-0.6565 0.7544 -0.7544 -0.6565 311.9524 217.9252)" fill="#A06F3A" width="6.5" height="13.6"/>
		
			<rect x="107.1" y="181.9" transform="matrix(-0.6565 0.7544 -0.7544 -0.6565 321.1506 220.6579)" fill="#D1883F" width="6.5" height="3.1"/>
	</g>
	<g>
		<path fill="#DB9B5D" d="M105.3,167c-1.4-1.2-1.5-3.2-0.3-4.6l0,0c1.2-1.4,3.2-1.5,4.6-0.3l8.7,7.6c1.4,1.2,1.5,3.2,0.3,4.6l0,0
			c-1.2,1.4-3.2,1.5-4.6,0.3L105.3,167z"/>
		
			<rect x="110.7" y="163.4" transform="matrix(-0.6565 0.7544 -0.7544 -0.6565 317.2051 195.949)" fill="#A06F3A" width="6.5" height="13.6"/>
		
			<rect x="114.7" y="172.1" transform="matrix(-0.6565 0.7544 -0.7544 -0.6565 326.4034 198.6817)" fill="#D1883F" width="6.5" height="3.1"/>
	</g>
	<g>
		<path fill="#DB9B5D" d="M112.9,158.2c-1.4-1.2-1.5-3.2-0.3-4.6l0,0c1.2-1.4,3.2-1.5,4.6-0.3l8.7,7.6c1.4,1.2,1.5,3.2,0.3,4.6l0,0
			c-1.2,1.4-3.2,1.5-4.6,0.3L112.9,158.2z"/>
		
			<rect x="118.3" y="154.6" transform="matrix(-0.6565 0.7544 -0.7544 -0.6565 323.0868 175.643)" fill="#A06F3A" width="6.5" height="13.6"/>
		
			<rect x="122.3" y="163.3" transform="matrix(-0.6565 0.7544 -0.7544 -0.6565 332.285 178.3758)" fill="#D1883F" width="6.5" height="3.1"/>
	</g>
	<g>
		<path fill="#DB9B5D" d="M119.6,149.4c-1.4-1.2-1.5-3.2-0.3-4.6l0,0c1.2-1.4,3.2-1.5,4.6-0.3l8.7,7.6c1.4,1.2,1.5,3.2,0.3,4.6l0,0
			c-1.2,1.4-3.2,1.5-4.6,0.3L119.6,149.4z"/>
		
			<rect x="125" y="145.8" transform="matrix(-0.6565 0.7544 -0.7544 -0.6565 327.542 156.1114)" fill="#A06F3A" width="6.5" height="13.6"/>
		
			<rect x="128.9" y="154.6" transform="matrix(-0.6565 0.7544 -0.7544 -0.6565 336.7402 158.8441)" fill="#D1883F" width="6.5" height="3.1"/>
	</g>
	<polygon fill="#8B5E3C" points="138.7,231.5 58.6,130.6 38.6,134.8 134.6,253.1 	"/>
	<g>
		<path fill="#DB9B5D" d="M135.3,228.7c1.4-1.2,1.5-3.2,0.3-4.6l0,0c-1.2-1.4-3.2-1.5-4.6-0.3l-8.7,7.6c-1.4,1.2-1.5,3.2-0.3,4.6
			l0,0c1.2,1.4,3.2,1.5,4.6,0.3L135.3,228.7z"/>
		
			<rect x="123.4" y="225.1" transform="matrix(0.6565 0.7544 -0.7544 0.6565 218.4354 -15.8822)" fill="#A06F3A" width="6.5" height="13.6"/>
		
			<rect x="119.4" y="233.8" transform="matrix(0.6565 0.7544 -0.7544 0.6565 219.6799 -11.6933)" fill="#D1883F" width="6.5" height="3.1"/>
	</g>
	<g>
		<path fill="#DB9B5D" d="M128.8,221.7c1.4-1.2,1.5-3.2,0.3-4.6l0,0c-1.2-1.4-3.2-1.5-4.6-0.3l-8.7,7.6c-1.4,1.2-1.5,3.2-0.3,4.6
			l0,0c1.2,1.4,3.2,1.5,4.6,0.3L128.8,221.7z"/>
		
			<rect x="116.9" y="218.1" transform="matrix(0.6565 0.7544 -0.7544 0.6565 210.9805 -13.3898)" fill="#A06F3A" width="6.5" height="13.6"/>
		
			<rect x="113" y="226.9" transform="matrix(0.6565 0.7544 -0.7544 0.6565 212.225 -9.2009)" fill="#D1883F" width="6.5" height="3.1"/>
	</g>
	<g>
		<path fill="#DB9B5D" d="M121.6,212.4c1.4-1.2,1.5-3.2,0.3-4.6l0,0c-1.2-1.4-3.2-1.5-4.6-0.3l-8.7,7.6c-1.4,1.2-1.5,3.2-0.3,4.6
			l0,0c1.2,1.4,3.2,1.5,4.6,0.3L121.6,212.4z"/>
		
			<rect x="109.7" y="208.8" transform="matrix(0.6565 0.7544 -0.7544 0.6565 201.4597 -11.0954)" fill="#A06F3A" width="6.5" height="13.6"/>
		
			<rect x="105.7" y="217.6" transform="matrix(0.6565 0.7544 -0.7544 0.6565 202.7041 -6.9065)" fill="#D1883F" width="6.5" height="3.1"/>
	</g>
	<g>
		<path fill="#DB9B5D" d="M114.9,204.1c1.4-1.2,1.5-3.2,0.3-4.6l0,0c-1.2-1.4-3.2-1.5-4.6-0.3l-8.7,7.6c-1.4,1.2-1.5,3.2-0.3,4.6
			l0,0c1.2,1.4,3.2,1.5,4.6,0.3L114.9,204.1z"/>
		
			<rect x="103" y="200.5" transform="matrix(0.6565 0.7544 -0.7544 0.6565 192.8588 -8.9326)" fill="#A06F3A" width="6.5" height="13.6"/>
		
			<rect x="99" y="209.2" transform="matrix(0.6565 0.7544 -0.7544 0.6565 194.1033 -4.7437)" fill="#D1883F" width="6.5" height="3.1"/>
	</g>
	<g>
		<path fill="#DB9B5D" d="M107.3,194.7c1.4-1.2,1.5-3.2,0.3-4.6l0,0c-1.2-1.4-3.2-1.5-4.6-0.3l-8.7,7.6c-1.4,1.2-1.5,3.2-0.3,4.6
			l0,0c1.2,1.4,3.2,1.5,4.6,0.3L107.3,194.7z"/>
		
			<rect x="95.4" y="191.1" transform="matrix(0.6565 0.7544 -0.7544 0.6565 183.1859 -6.4179)" fill="#A06F3A" width="6.5" height="13.6"/>
		
			<rect x="91.4" y="199.8" transform="matrix(0.6565 0.7544 -0.7544 0.6565 184.4303 -2.229)" fill="#D1883F" width="6.5" height="3.1"/>
	</g>
	<g>
		<path fill="#DB9B5D" d="M99.7,185.9c1.4-1.2,1.5-3.2,0.3-4.6l0,0c-1.2-1.4-3.2-1.5-4.6-0.3l-8.7,7.6c-1.4,1.2-1.5,3.2-0.3,4.6l0,0
			c1.2,1.4,3.2,1.5,4.6,0.3L99.7,185.9z"/>
		
			<rect x="87.8" y="182.3" transform="matrix(0.6565 0.7544 -0.7544 0.6565 173.9272 -3.7146)" fill="#A06F3A" width="6.5" height="13.6"/>
		
			<rect x="83.8" y="191" transform="matrix(0.6565 0.7544 -0.7544 0.6565 175.1717 0.4743)" fill="#D1883F" width="6.5" height="3.1"/>
	</g>
	<g>
		<path fill="#DB9B5D" d="M91.7,175.9c1.4-1.2,1.5-3.2,0.3-4.6l0,0c-1.2-1.4-3.2-1.5-4.6-0.3l-8.7,7.6c-1.4,1.2-1.5,3.2-0.3,4.6l0,0
			c1.2,1.4,3.2,1.5,4.6,0.3L91.7,175.9z"/>
		
			<rect x="79.8" y="172.3" transform="matrix(0.6565 0.7544 -0.7544 0.6565 163.6745 -1.1206)" fill="#A06F3A" width="6.5" height="13.6"/>
		
			<rect x="75.8" y="181.1" transform="matrix(0.6565 0.7544 -0.7544 0.6565 164.919 3.0683)" fill="#D1883F" width="6.5" height="3.1"/>
	</g>
	<g>
		<path fill="#DB9B5D" d="M84.1,166.1c1.4-1.2,1.5-3.2,0.3-4.6l0,0c-1.2-1.4-3.2-1.5-4.6-0.3l-8.7,7.6c-1.4,1.2-1.5,3.2-0.3,4.6l0,0
			c1.2,1.4,3.2,1.5,4.6,0.3L84.1,166.1z"/>
		
			<rect x="72.2" y="162.5" transform="matrix(0.6565 0.7544 -0.7544 0.6565 153.6665 1.2715)" fill="#A06F3A" width="6.5" height="13.6"/>
		
			<rect x="68.2" y="171.3" transform="matrix(0.6565 0.7544 -0.7544 0.6565 154.911 5.4604)" fill="#D1883F" width="6.5" height="3.1"/>
	</g>
	<g>
		<path fill="#DB9B5D" d="M76.5,157.3c1.4-1.2,1.5-3.2,0.3-4.6l0,0c-1.2-1.4-3.2-1.5-4.6-0.3l-8.7,7.6c-1.4,1.2-1.5,3.2-0.3,4.6l0,0
			c1.2,1.4,3.2,1.5,4.6,0.3L76.5,157.3z"/>
		
			<rect x="64.6" y="153.7" transform="matrix(0.6565 0.7544 -0.7544 0.6565 144.4191 3.95)" fill="#A06F3A" width="6.5" height="13.6"/>
		
			<rect x="60.6" y="162.5" transform="matrix(0.6565 0.7544 -0.7544 0.6565 145.6636 8.1389)" fill="#D1883F" width="6.5" height="3.1"/>
	</g>
	<g>
		<path fill="#DB9B5D" d="M69.8,148.6c1.4-1.2,1.5-3.2,0.3-4.6l0,0c-1.2-1.4-3.2-1.5-4.6-0.3l-8.7,7.6c-1.4,1.2-1.5,3.2-0.3,4.6l0,0
			c1.2,1.4,3.2,1.5,4.6,0.3L69.8,148.6z"/>
		
			<rect x="57.9" y="145" transform="matrix(0.6565 0.7544 -0.7544 0.6565 135.5244 5.9789)" fill="#A06F3A" width="6.5" height="13.6"/>
		
			<rect x="54" y="153.7" transform="matrix(0.6565 0.7544 -0.7544 0.6565 136.7688 10.1678)" fill="#D1883F" width="6.5" height="3.1"/>
	</g>
	<rect x="60" y="269.4" fill="#8B5E3C" width="70.6" height="8.1"/>
	<path fill="#8B5E3C" d="M73.2,294.3c0,4.4-3.6,8-8,8l0,0c-4.4,0-8-3.6-8-8v-16.9c0-4.4,3.6-8,8-8l0,0c4.4,0,8,3.6,8,8V294.3z"/>
	<path fill="#D89F79" d="M15.6,274c-7.1,27.3,4.9,29.1,9.3,28.3s3-16.2,3-16.2s0,6.5,3.3,5.8s3.7-8.2,3.7-8.2s1.6-12.5-6.8-14.1
		C19.5,267.9,15.6,274,15.6,274z"/>
	<polygon fill="#603913" points="32.9,136.7 15.6,274 33.5,274 47.8,192.6 	"/>
	<path fill="#D89F79" d="M172.7,273.3c7.1,27.3-4.9,29.1-9.3,28.3c-4.3-0.8-3-16.2-3-16.2s0,6.5-3.3,5.8c-3.3-0.7-3.7-8.2-3.7-8.2
		s-1.6-12.5,6.8-14.1C168.8,267.2,172.7,273.3,172.7,273.3z"/>
	<polygon fill="#603913" points="155.4,136 172.7,273.3 154.7,273.3 140.4,191.9 	"/>
	<path fill="#231F20" d="M90.4,60.5c0,0,6.2,8.5-0.1,10.9c0,0,9.4-1.6,7.8-10.9L90.4,60.5z"/>
	<path fill="#231F20" d="M96.9,60.5c0,0,6.2,8.5-0.1,10.9c0,0,9.4-1.6,7.8-10.9L96.9,60.5z"/>
	<path fill="#231F20" d="M102.4,60.5c0,0,6.2,8.5-0.1,10.9c0,0,9.4-1.6,7.8-10.9L102.4,60.5z"/>
	<path fill="#231F20" d="M78.1,83l1,3h2.9l4.4-25.5H73.2v21.6C73.2,82.1,76.9,82.3,78.1,83z"/>
	<path fill="#231F20" d="M105,95.3c0,0-5-5.2-8.9,1c-3.9,6.2-9,1.1-8.9-1.5c0,0,0.3,8.1,7.7,8.1C102.2,102.9,105,100.8,105,95.3z"/>
	<path fill="#231F20" d="M103.9,95.9c0,0,5-5.2,8.9,1c3.9,6.2,9,1.1,8.9-1.5c0,0-0.3,8.1-7.7,8.1
		C106.7,103.5,103.9,101.4,103.9,95.9z"/>
</g>
</svg>
