<?xml version="1.0" encoding="utf-8"?>
<!-- Generator: Adobe Illustrator 18.1.1, SVG Export Plug-In . SVG Version: 6.00 Build 0)  -->
<svg version="1.1" id="Layer_1" xmlns="http://www.w3.org/2000/svg" xmlns:xlink="http://www.w3.org/1999/xlink" x="0px" y="0px"
	 viewBox="0 14 612 729" enable-background="new 0 14 612 729" xml:space="preserve">
<g>
	<path d="M402.9,441.2l201.5-59.7c0,0-30.5-237.3-247.9-294.3S-5.4,186.7,19.8,316.6L42.3,302c0,0,79.5-114,263.8-42.4
		C402.9,303.4,402.9,441.2,402.9,441.2z"/>
	<path fill="none" d="M297.5,100.3l6-18.3h-54.3l-2.5,16.1C265.4,96.9,282.8,98.4,297.5,100.3z"/>
	<path fill="#FFFFFF" d="M246.6,99.1l-18.6,117.6c8.4,0.4,18.3,1.6,29,4l40.6-119.7C282.8,99,265.4,97.9,246.6,99.1z"/>
	<path fill="#3E9432" d="M202,106.5l-3.3,111.3c0,0,11.5-2.1,29.2-1.2l18.6-117.6C232.3,100.1,217.3,102.3,202,106.5z"/>
	<path fill="#3E9432" d="M341.2,110.5c0,0-17.3-6.1-43.7-9.6l-40.6,119.7c8.7,1.9,17.9,4.6,27.3,8.5L341.2,110.5z"/>
	<path fill="none" d="M463.8,144.3l-57-33.1l-8.6,15c20.5,9.4,38.6,21.7,52.9,33.1L463.8,144.3z"/>
	<path fill="#FFFFFF" d="M398.2,126.1l-73.4,127.2c8.6,4.9,18.5,11.4,28.6,19.9l97.7-113.9C436.8,147.9,418.7,135.5,398.2,126.1z"/>
	<path fill="#CD0103" d="M373,292.1l112-101.4c0,0-12.9-14.7-34-31.5l-97.7,113.9C360,278.6,366.6,284.9,373,292.1z"/>
	<path fill="#3E9432" d="M359.1,113.2l-60.3,127.9c0,0,10.8,3.6,25.9,12.2l73.4-127.2C385.9,120.5,372.8,115.9,359.1,113.2z"/>
	<circle fill="#603813" cx="385.6" cy="201.3" r="13.3"/>
	<path fill="none" d="M413.5,263.6c2,2.9,3.9,5.8,5.8,8.9l20.1-16.6c-2.9-5.3-4.7-8.1-4.7-8.1L413.5,263.6z"/>
	<path fill="none" d="M457.2,229.1c1.9,2.4,3.7,5,5.4,7.6l23.9-19.7c-2.6-4.2-4.1-6.4-4.1-6.4L457.2,229.1z"/>
	<path fill="#FFFFFF" d="M419.3,272.5c28.2,45.6,40.2,108.4,44.3,134.3l23.3-7.5c-5.8-63.6-35.7-122.5-47.4-143.5L419.3,272.5z"/>
	<path fill="#FFFFFF" d="M381,304c0,0,45.1,68.9,35.1,118l24.2-7.8c-5.4-47.8-31.6-106.1-40.8-125.4L381,304z"/>
	<path fill="#FFFFFF" d="M486.5,217l-23.9,19.7c33.5,49.5,48.9,124.5,53.7,153.1l33.5-10.8C538.3,305.8,499.3,237.7,486.5,217z"/>
	<path fill="#CD0103" d="M498.3,207.3l-11.8,9.8c12.8,20.7,51.8,88.7,63.4,162l29.3-9.4C579.2,369.7,549.3,249.7,498.3,207.3z"/>
	<path fill="#CD0103" d="M439.4,255.8c11.7,21,41.6,79.9,47.4,143.5l29.6-9.5c-4.9-28.6-20.2-103.7-53.7-153.1L439.4,255.8z"/>
	<path fill="#CD0103" d="M399.5,288.8c9.2,19.4,35.4,77.6,40.8,125.4l23.2-7.5c-4-25.9-16.1-88.8-44.3-134.3L399.5,288.8z"/>
	<path fill="#424691" d="M439.4,253.2l32.4,74l80.9-35.8c0,0-13.3-49-54.3-86.8L439.4,253.2z"/>
	<path fill="#4799D4" d="M186.8,108.5c0,0-59.7,14.6-87.5,45.1l1.5,17.5l84.2-24.9L186.8,108.5z"/>
	<path fill="#4799D4" d="M103,197.9l2.9,34.6c0,0,39.1-19.2,75.6-13.9l1.9-39.4L103,197.9z"/>
	<polygon fill="#FFFFFF" points="185,146.2 100.8,171.1 103,197.9 183.4,179.2 	"/>
	<path fill="#424691" d="M34.4,281.5c4.5-7.2,10.9-13.8,17.8-19.5l0.8-22.2l-17.2,1.6C28.3,266.6,34.4,281.5,34.4,281.5z"/>
	<path fill="#FFFFFF" d="M82.7,170.2c-28.5,28.2-41.5,52.5-47,71.2l9.3-0.9c8.3-11.7,32.9-40.4,39.4-47.9L82.7,170.2z"/>
	<path fill="#FFFFFF" d="M52.6,249.4L52.1,262C68.8,248.1,88,239.1,88,239.1l-1.2-15L52.6,249.4z"/>
	<path fill="#CD0103" d="M84.5,192.5c-6.5,7.5-31.1,36.2-39.4,47.9l7.8-0.7l-0.3,9.6l34.3-25.2L84.5,192.5z"/>
	<polygon fill="#FFFFFF" points="76.8,406.8 34.4,347.8 32.6,380.4 72.3,424.7 	"/>
	<polygon fill="#4597D8" points="32.6,380.4 31,410.2 66.3,449.2 72.3,424.7 	"/>
</g>
<path fill="#DF040B" d="M179.3,59.4c0,0,8.9-12.8,11.5,0c2.6,12.8-6.4,20.2-8.9,20.7C179.4,80.6,173.8,79,179.3,59.4z"/>
<polygon fill="#E0A984" points="183.5,193.6 166.8,168.9 176.1,88.3 156.6,90.8 141.4,177.9 197.7,265.6 229,247 "/>
<path fill="#DEDDDD" d="M147.6,102.3v8.5l33.7-8.5v-14C181.3,88.3,150.7,95,147.6,102.3z"/>
<polygon fill="#484747" points="147.6,110.7 181.3,102.3 181.3,99.5 147.6,108.5 "/>
<polygon fill="#875C3B" points="233.7,703.1 230.5,718.5 217.1,718.5 217.1,703.1 "/>
<path fill="#231F20" d="M217.1,718.5h13.4c0,0,5.2,16.8-12.1,17.8h-22.5c0,0-5-10.6,8.4-11.4C204.2,724.9,215.8,722.9,217.1,718.5z"
	/>
<path fill="#231F20" d="M310.3,718.5h-13.4c0,0-5.2,16.8,12.1,17.8h22.5c0,0,5-10.6-8.4-11.4C323.2,724.9,311.5,722.9,310.3,718.5z"
	/>
<polygon fill="#E0A984" points="220.8,431.7 215.4,703.1 233.7,703.1 273.5,463.9 294.7,703.1 312.3,703.1 319.4,430.2 "/>
<polygon fill="#875C3B" points="233.7,703.1 230.5,718.5 217.1,718.5 217.1,703.1 "/>
<path fill="#231F20" d="M217.1,718.5h13.4c0,0,5.2,16.8-12.1,17.8h-22.5c0,0-5-10.6,8.4-11.4C204.2,724.9,215.8,722.9,217.1,718.5z"
	/>
<path fill="#231F20" d="M310.3,718.5h-13.4c0,0-5.2,16.8,12.1,17.8h22.5c0,0,5-10.6-8.4-11.4C323.2,724.9,311.5,722.9,310.3,718.5z"
	/>
<polygon fill="#231F20" points="215.4,663 241.7,663 231.2,722 215.4,722 "/>
<polygon fill="#231F20" points="314,663 289.9,663.1 296.4,721.9 312.3,721 "/>
<path fill="#E0A984" d="M196.5,256.4c0,0,46.8-25.8,143.2,0.1l-17.1,174.6c0,0-39.6,2.7-104.1-0.4L196.5,256.4z"/>
<path fill="#E0A984" d="M298.8,155.6V230h-11.3v24.5c0,0-12.7,25-43.8,0v-50.9c0,0-9.4-1.9-9.4-12.7s10.8-5.7,10.8-5.7v-29.7H298.8z
	"/>
<path fill="#231F20" d="M302,153.7c-0.2,1.8,0,3.6-0.6,5.2s-2.2,3-3.9,2.9c0.7-1.4-0.2-3.2-1.5-3.9c-1.3-0.7-2.8-0.7-4.3-0.7
	c-4.6,0.1-9.3,0.2-13.9,0.4c-3.9,0.1-7.9,0.2-11.7,1c-1.4,0.3-2.9,0.7-4.1,1.5c-2,1.3-3.6,3.8-6,3.8c0.6,2.7,0.6,5.6-0.6,8.1
	c-1.2,2.5-3.9,4.2-6.5,3.5c0.6,5.6,0.6,11.3,0.1,16.9c-1.9-0.1-3.7-0.3-5.6-0.4c1.3-1.5,1-4.1-0.4-5.5c-1.4-1.4-3.6-1.7-5.4-1.2
	c-1.4,0.4-2.8,1.4-3,2.9c-4.8-7.3-6.6-16.7-4.7-25.4c1.9-8.7,7.5-16.4,14.9-20.4c5.3-2.9,11.4-4,17.4-3.8
	C262,138.8,305.3,125.3,302,153.7z"/>
<path fill="#DF040B" d="M132.4,51.1c0,0,0.7,25.9,27.2,16.2s29.9-15.1,26.3-34.8S145,27.9,132.4,51.1z"/>
<polygon fill="#1F140F" points="218.6,426.7 212.6,534.1 268.7,534.1 272.9,470.8 273.8,534.1 326.9,534.1 321.4,426.7 "/>
<path fill="#DF040B" d="M147.6,102.3c0,0-0.6-1.7-3.3-38.8s42.4-14.6,42.4-14.6l-5.5,39.4C181.3,88.3,180.1,96,147.6,102.3z"/>
<path fill="#DF040B" d="M370.2,464.3c0,0-8.9,12.8-11.5,0c-2.6-12.8,6.4-20.2,8.9-20.7C370.1,443,375.8,444.6,370.2,464.3z"/>
<polygon fill="#E0A984" points="352.8,328.8 369.5,353.4 360.2,434.1 379.7,431.5 394.9,344.4 339.7,256.6 307.3,275.3 "/>
<path fill="#DEDDDD" d="M388.7,420v-8.5L355,420v14C355,434.1,385.6,427.3,388.7,420z"/>
<polygon fill="#484747" points="388.7,411.6 355,420 355,422.8 388.7,413.8 "/>
<path fill="#DF040B" d="M394.2,479.9c0,0,5.7-21.6-17.9-19.1s-27.6,6.3-29.5,23.4S378.5,496.5,394.2,479.9z"/>
<path fill="#DF040B" d="M388.7,420c0,0,0.6,1.7,3.3,38.8c2.7,37.1-42.4,14.6-42.4,14.6l5.5-39.4C355,434.1,356.2,426.3,388.7,420z"
	/>
<path d="M35.3,295.8c0,0,54.7,240.8,394.8,201.1l89,157.4c0,0-352.6,16.3-491.8-218.9c-0.7-1.1-5.2-2.5-5.2-2.5l-3-123.2L35.3,295.8
	z"/>
<path fill="#FFFFFF" d="M322,514.1l19.2,109.4c0,0,114.7,17.9,142.5,15.9l-59.7-123.1C424.1,516.4,338.8,517.7,322,514.1z"/>
<circle fill="#CD0107" cx="389.6" cy="573.8" r="25.2"/>
<polygon fill="#CD0103" points="30.4,422.7 62.2,465.8 66.3,449.2 31,410.2 "/>
<path fill="#CD0103" d="M135.4,479.9l3.6-21.4c0,0-39.8-25.2-57-45.7l-4.8,21.7C92.7,462.8,121,475.2,135.4,479.9z"/>
<path fill="#CD0103" d="M72.1,457.6L68.2,475c0,0,24.5,33.8,59,53.7l4.2-24.6C105.4,499.3,82.4,471.8,72.1,457.6z"/>
<path fill="#F9EE00" d="M77.2,434.4l-5.2,23.2c10.3,14.2,33.3,41.7,59.3,46.5l4.1-24.2C121,475.2,92.7,462.8,77.2,434.4z"/>
<path fill="#CD0103" d="M135.8,536c0,0,49.7,35.1,68.9,39.8l3-16.5l-69-41.7L135.8,536z"/>
<path fill="#CD0103" d="M219.3,496.2c0,0-37.8-12.6-72.2-31.2l-2.2,13.9l71.8,31.8L219.3,496.2z"/>
<polygon fill="#4698E7" points="142,496.8 140.3,507.7 211.8,536.9 213.3,529 "/>
<polygon fill="#FFFFFF" points="138.7,517.6 207.7,559.3 211.8,536.9 140.3,507.7 "/>
<polygon fill="#FFFFFF" points="216.6,510.8 144.8,479 142,496.8 213.3,529 "/>
<polygon fill="#242463" points="226,511.2 222.8,532.1 245.1,539.3 "/>
<path fill="#242463" d="M257.8,506c-4-0.8-8.1-1.7-12.4-2.7l11.6,28.1L257.8,506z"/>
<polygon fill="#242463" points="324.7,601.2 320.9,576.2 290.2,569.8 "/>
<polygon fill="#242463" points="316.8,549.2 315.5,540.2 290.2,546 "/>
<path fill="#242463" d="M298.8,512.4c-5.3-0.6-12.2-1.4-20.1-2.7l-1.7,28.3L298.8,512.4z"/>
<polygon fill="#242463" points="219.5,554.3 217.8,565.5 245.1,563.2 "/>
<path fill="#242463" d="M279.5,609.8c5.9,1.7,12.1,3.3,18.5,4.6l-13.1-31.3L279.5,609.8z"/>
<path fill="#242463" d="M231.9,590.9c6.1,3.1,13.7,6.6,22.3,10.1l4.2-21.9L231.9,590.9z"/>
<path fill="#CD0103" d="M324.7,601.2l-34.5-31.4l30.7,6.4l-4.1-27l-26.6-3.2l25.3-5.7l-4.1-26.7c0,0-4.6-0.2-12.6-1.1L276.9,538
	l1.7-28.3c-6.3-1-13.3-2.2-20.8-3.7l-0.8,25.4l-11.6-28.1c-5.7-1.3-11.6-2.8-17.6-4.4l-1.9,12.3l19.1,28.1l-22.3-7.2l-3.4,22.2
	l25.6,8.9l-27.4,2.3l-2.5,16.3c0,0,6.2,3.9,16.6,9.1l26.5-11.8l-4.2,21.9c7.7,3.1,16.2,6.2,25.3,8.8l5.3-26.7l13.1,31.3
	c9.5,2,19.3,3.3,29.3,3.8L324.7,601.2z"/>
</svg>
