<?xml version="1.0" encoding="utf-8"?>
<!-- Generator: Adobe Illustrator 18.1.1, SVG Export Plug-In . SVG Version: 6.00 Build 0)  -->
<svg version="1.1" id="Layer_1" xmlns="http://www.w3.org/2000/svg" xmlns:xlink="http://www.w3.org/1999/xlink" x="0px" y="0px"
	 viewBox="51 0 510 805" enable-background="new 51 0 510 805" xml:space="preserve">
<g>
	<rect x="58.3" y="3.2" fill="#388554" width="485" height="788.8"/>
	<rect x="56.7" y="594.8" fill="#998675" width="488.3" height="197.2"/>
	<rect x="56.7" y="216.5" fill="#998675" width="488.3" height="323.3"/>
	<rect x="208.6" y="774.2" fill="#736357" width="184.3" height="17.8"/>
	<rect x="220.7" y="758" fill="#736357" width="160.1" height="17.8"/>
	<rect x="237.7" y="742.7" fill="#736357" width="126.2" height="17.8"/>
	<rect x="244.4" y="661.7" fill="#0071BC" width="111.6" height="81"/>
	<rect x="293.7" y="660.9" fill="#333333" width="6.5" height="81.6"/>
	<rect x="243.4" y="658.9" fill="#333333" width="112.5" height="6.5"/>
	<rect x="350.3" y="660.9" fill="#333333" width="6.5" height="81.6"/>
	<rect x="243.5" y="660.9" fill="#333333" width="6.5" height="81.6"/>
	<polygon fill="#29ABE2" points="299.6,665.8 350,739.3 350,717.3 314.9,664.9 	"/>
	<polygon fill="#29ABE2" points="249.8,665.8 294,736.1 294,715.1 263.2,664.9 	"/>
	<rect x="56.8" y="594.6" fill="#736357" width="488.3" height="16.2"/>
	<rect x="56.8" y="179.1" fill="#736357" width="488.3" height="16.2"/>
	<rect x="56" y="529.1" fill="#B3B3B3" width="488.3" height="67.1"/>
	<rect x="56" y="187" fill="#B3B3B3" width="488.3" height="39.8"/>
	<path fill="#39B54A" d="M64.9,714.3c0,0-17-10.5-0.8-21c0,0-3.2-21.8,14.6-15.4c0,0,6.5-20.2,24.3-6.5c0,0,12.1-16.2,25.1,0
		c0,0,9.7-17,25.1,1.6c0,0,11.3-20.2,28.3-0.8c0,0,17-16.2,24.3,5.7c0,0,19.4-9.7,16.2,10.5c0,0,10.5,7.3,0,17.8
		c0,0,3.2,10.5-12.1,12.1C194.2,719.9,64.9,714.3,64.9,714.3z"/>
	<path fill="#39B54A" d="M381.8,714.3c0,0-17-10.5-0.8-21c0,0-3.2-21.8,14.6-15.4c0,0,6.5-20.2,24.3-6.5c0,0,12.1-16.2,25.1,0
		c0,0,9.7-17,25.1,1.6c0,0,11.3-20.2,28.3-0.8c0,0,17-16.2,24.3,5.7c0,0,19.4-9.7,16.2,10.5c0,0,10.5,7.3,0,17.8
		c0,0,3.2,10.5-12.1,12.1C511.1,719.9,381.8,714.3,381.8,714.3z"/>
	<rect x="64.9" y="712.6" fill="#736357" width="153.6" height="16.2"/>
	<rect x="381" y="712.6" fill="#736357" width="153.6" height="16.2"/>
	<rect x="249.2" y="472.5" fill="#999999" width="105.9" height="106.7"/>
	<g>
		<rect x="259.3" y="481.4" fill="#388554" width="86.5" height="87.3"/>
		<path fill="#FFFFFF" d="M285.4,537.1c0,0-4.9-10.4,2.6-18.4c7.4-8,14.4-7.3,18.2-5.5c3.8,1.7,21.3,1,21.3,1s7.1,7.8,4.7,23
			C332.1,537.3,285.2,537,285.4,537.1z"/>
		<path fill="#FFFFFF" d="M282.1,536c0,0-3.3-10.5,3.1-18.3c6.4-7.8,14.7-9.5,21.5-7.1c6.8,2.4,17.7,0.6,17.7,0.6s-7.3-12.1-26-9.9
			c-18.7,2.3-28.8,21.6-24.8,34.6C273.6,536,281.9,536,282.1,536z"/>
		<path fill="#B01C2C" d="M281.3,506.8c0,0,9.4-10.8,27-7.7s23.9,15.5,25.3,25.9l7.5-38h-56L281.3,506.8z"/>
		<path fill="#FFFFFF" d="M288.4,561h5.6v-16.2l4,14.2h6l4-14.1V559h5v-15h6v15h6v-15h6v-4h-26.8l-3.5,11.6l-3.3-11.6h-9.1
			C288.4,540,288.5,559,288.4,561z"/>
		<polyline fill="#FFFFFF" points="274,559 277,559 277,553 286,553 286,549 277,549 277,544 287,544 287,540 274,540 274,561 		"/>
	</g>
	<g>
		<rect x="91.6" y="393.2" fill="#736357" width="127.7" height="96.2"/>
		<rect x="99.7" y="400.8" fill="#0071BC" width="111.6" height="81"/>
		<polygon fill="#29ABE2" points="99.4,400.7 211,481.8 211,400.6 		"/>
	</g>
	<g>
		<rect x="390.7" y="393.2" fill="#736357" width="127.7" height="96.2"/>
		<rect x="398.8" y="400.8" fill="#0071BC" width="111.6" height="81"/>
		<polygon fill="#29ABE2" points="399.4,400.7 511,481.8 511,400.6 		"/>
	</g>
	<g>
		<rect x="91.6" y="259" fill="#736357" width="127.7" height="96.2"/>
		<rect x="99.7" y="266.6" fill="#0071BC" width="111.6" height="81"/>
		<polygon fill="#29ABE2" points="99.4,266.5 211,347.6 211,266.4 		"/>
	</g>
	<g>
		<rect x="243.5" y="259" fill="#736357" width="127.7" height="96.2"/>
		<rect x="251.6" y="266.6" fill="#0071BC" width="111.6" height="81"/>
		<polygon fill="#29ABE2" points="251.4,266.5 363,347.6 363,266.4 		"/>
	</g>
	<g>
		<rect x="390.7" y="259" fill="#736357" width="127.7" height="96.2"/>
		<rect x="398.8" y="266.6" fill="#0071BC" width="111.6" height="81"/>
		<polygon fill="#29ABE2" points="399.4,266.5 511,347.6 511,266.4 		"/>
	</g>
	<g>
		<path fill="#FFFFFF" d="M357.8,63.4c-0.2,18.5-10.8,33.8-28.7,41.1c-6.7,2.7-13.7,4.3-20.9,4.6c-6,0.3-12.1,0.9-17.8,3
			c-1.7,0.6-3.3,1.6-4.6,2.8c-7.1,7-14.2,14.1-21.2,21.2c-2.1,2.1-3.2,2.1-5.3,0c-2.1-2.1-4.3-4.3-6.4-6.4c-1.5-1.6-1.5-2.9,0-4.4
			c7-7,13.9-14.1,20.9-21c2.2-2.2,3.8-4.6,4.3-7.6c1-5.5,2-11,2.5-16.5c1.3-14.3,5.8-27.3,16.8-37c11.2-9.8,24.5-13.4,39.1-9.6
			c11.8,3.1,18.4,11.3,20.6,23.2C357.5,58.9,357.6,61.2,357.8,63.4z M286,81.8c0.1,1,0.1,2.3,0.2,3.6c0.7,9.1,6.2,15.7,14.9,17.6
			c3.3,0.7,6.9,0.8,10.4,0.5c10.6-0.6,20.2-4.4,28.2-11.4c10-8.7,13.9-20.2,12.5-33.2c-1-9.3-5.9-16.2-14.8-19.7
			c-5.3-2.1-10.8-2.4-16.4-1.5c-9.9,1.6-18.4,5.7-24.5,13.9C289.9,60.4,286.4,70.4,286,81.8z M258.3,127.4c1.2,1.3,2.5,2.5,3.5,3.6
			c6.3-6.3,12.7-12.7,19-19c-1.1-1.2-2.4-2.5-3.6-3.6C270.9,114.8,264.6,121.1,258.3,127.4z M283.8,96.2c-1,2.7-2,5.4-2.9,7.9
			c1.5,1.5,2.9,3,4.1,4.4c2.8-1,5.4-1.9,8-2.8c-1.7-1.4-3.6-2.7-5.1-4.2C286.4,99.9,285.2,98,283.8,96.2z"/>
		<path fill="#FFFFFF" d="M300.4,154.3c-10.4-0.2-19-8.7-18.6-19c0.4-10.9,8.6-18.5,19.6-18.4c9.8,0.1,18.5,8.5,18.1,19.6
			C319.1,146.3,310.5,154.5,300.4,154.3z M313.8,139c-9.4-1.7-14.9-7.3-16.6-16.5c-4.8,1.1-9.1,5.5-9.6,9.7
			c9.3,1.7,14.6,7.3,16.4,16.4C308.7,147.6,312.6,143.9,313.8,139z M302.7,122.2c0.2,5.5,5.7,11,11.2,11.3
			C314.1,129.4,309.3,122.9,302.7,122.2z M287.3,137.6c0.7,6.2,6.6,11.4,11.5,11C297.8,142.6,292.6,137.6,287.3,137.6z"/>
	</g>
</g>
</svg>
