<?xml version="1.0" encoding="utf-8"?>
<!-- Generator: Adobe Illustrator 18.1.1, SVG Export Plug-In . SVG Version: 6.00 Build 0)  -->
<svg version="1.1" id="Layer_1" xmlns="http://www.w3.org/2000/svg" xmlns:xlink="http://www.w3.org/1999/xlink" x="0px" y="0px"
	 viewBox="150 0 298 792" enable-background="new 150 0 298 792" xml:space="preserve">
<path fill="#E0A984" d="M207,280.6c0,0,6.6-50.8,0-78.4c-6.6-27.6-24.3-56.3-28.7-45.3c-4.4,11-29.8,42-11,55.2
	c18.8,13.3,21,74,21,74S204.8,282.8,207,280.6z"/>
<path fill="#FBB03B" d="M163.8,243.7c0,0,53.9-60.9,74.6-99.9C260.9,101.4,338.6-9.2,373,12.2s-88.5,123.8-109.3,146.6
	s-86.4,106.3-86.4,106.3L163.8,243.7z"/>
<polygon fill="#0B2245" points="271.1,288.3 235.7,362.3 207,322.6 239,268.4 "/>
<path fill="#FFFFFF" d="M242.4,197.6c-0.1-1.7,82-34.2,164.8,0c-4.7,139.3-20.7,218.3-20.7,218.3s-45.2,3.3-118.9-0.5
	C267.5,415.4,252.3,339.1,242.4,197.6z"/>
<path fill="#0B2245" d="M279.9,185.6c0,0,11,40.9,47.5,49.7c0,0,37.5-22.1,36.4-49.7C363.8,185.6,318.5,170.2,279.9,185.6z"/>
<polygon fill="#FFFFFF" points="268,412.8 258.2,755.8 281.1,755.8 325.2,474.9 357.3,755.8 379.3,755.8 386.5,416.4 "/>
<path fill="#E0A984" d="M399.6,763.2c0,0-18-3.2-19.9-9.2H359c0,0-8.1,22,18.8,26h34.9C412.7,780,420.4,764.3,399.6,763.2z"/>
<path fill="#E0A984" d="M362.4,71.7v93h-14.1v30.6c0,0-15.9,31.2-54.7,0v-63.6c0,0-11.8-2.4-11.8-15.9s13.5-7.1,13.5-7.1V71.7H362.4
	z"/>
<path fill="#231F20" d="M366.4,69.3c-0.3,2.2,0,4.5-0.8,6.6c-0.8,2-2.7,3.8-4.8,3.6c0.9-1.7-0.2-3.9-1.9-4.9s-3.6-0.9-5.4-0.8
	c-5.8,0.2-11.6,0.3-17.3,0.5c-4.9,0.1-9.8,0.3-14.7,1.3c-1.8,0.4-3.6,0.9-5.1,1.9c-2.5,1.7-4.6,4.8-7.6,4.8c0.7,3.4,0.7,7-0.8,10.1
	c-1.5,3.1-4.9,5.3-8.1,4.4c0.8,7,0.8,14.1,0.1,21.1c-2.3-0.2-4.7-0.4-7-0.6c1.7-1.8,1.3-5.1-0.5-6.9c-1.7-1.8-4.4-2.1-6.8-1.5
	c-1.8,0.5-3.6,1.7-3.8,3.6c-6-9.1-8.3-20.9-5.9-31.7c2.3-10.8,9.3-20.5,18.7-25.5c6.7-3.6,14.3-4.9,21.8-4.7
	C316.5,50.7,370.6,33.8,366.4,69.3z"/>
<path fill="#0B2245" d="M370.4,64.2c0,0-22.1-54.1-74-26.5s-13.3,81.7-13.3,81.7l16.6-15.5C299.8,103.9,334,55.3,370.4,64.2z"/>
<path fill="#CE113B" d="M292.6,110.5c0,0,14.1-60.2,85.9-57.7c7.4,0.3,11.6,8.6,7.4,14.7c-5.2,7.4-13.1,15.9-23.2,19.8
	C362.7,87.4,339.5,57.5,292.6,110.5z"/>
<path fill="#FFFFFF" d="M242.4,197.6L217,261.8c0,0,27.6,21,44.2,17.7l8.8-37.5L242.4,197.6z"/>
<path fill="#0B2245" d="M235.7,364.5c0,0-1.1-43.1-19.9-93.9l-36.4,8.8c0,0,13.3,68.5,35.3,80.6
	C225.8,367.8,235.7,364.5,235.7,364.5z"/>
<path fill="#0B2245" d="M414.6,257.4L391,286.9c-15.1,18.9-40.2,26.8-63.4,20.1l-109.5-31.9l14.4-35.3c0,0,113.7,34.2,141.3,2.2
	L414.6,257.4z"/>
<path fill="#FFFFFF" d="M425.9,208.5c0,0,27.1,18.7-26.9,77.9c0,0-32.7-14.1-41.5-44.9C357.5,241.5,392.4,174.6,425.9,208.5z"/>
<path fill="#E0A984" d="M231.3,245.3l-18.8-8.8c0,0-12.1-30.9-35.3-26.5c-23.2,4.4-18.8,42-18.8,42s29.8-14.4,39.8,4.4
	s37.5,8.8,37.5,8.8L231.3,245.3z"/>
<circle fill="#FBB03B" cx="173.9" cy="255.2" r="16.6"/>
<rect x="296.5" y="408.7" fill="#0B2245" width="54.1" height="22.1"/>
<rect x="358.3" y="408.7" fill="#0B2245" width="17" height="22.1"/>
<polygon fill="#0B2245" points="386.8,430.8 380.7,430.8 380.7,408.7 388.1,409 "/>
<rect x="278.3" y="408.7" fill="#0B2245" width="12.4" height="22.1"/>
<polygon fill="#0B2245" points="275.3,430.8 267.2,430.8 266,408.7 275.3,408.7 "/>
<path fill="#0B2245" d="M258.4,666.5c0,0,15.7-23.5,37.8,0.8L282.1,783h-72.9c0,0-2.2-24.3,14.4-25.4s34.6-1.8,34.6-1.8L258.4,666.5
	z"/>
<path fill="#0B2245" d="M382.8,666.5c0,0-15.7-23.5-37.8,0.8L359,783h72.9c0,0,2.2-24.3-14.4-25.4s-34.6-1.8-34.6-1.8L382.8,666.5z"
	/>
<path fill="#CE113B" d="M319.1,39.9c0,0-17.1,6.1-8.8,18.8c8.3,12.7,23.2-3.3,23.2-3.3l-2.8-4.4c0,0-8.8,11.6-14.4,5
	c-5.5-6.6,5.5-12.1,5.5-12.1L319.1,39.9z"/>
</svg>
