<?xml version="1.0" encoding="utf-8"?>
<!-- Generator: Adobe Illustrator 18.1.1, SVG Export Plug-In . SVG Version: 6.00 Build 0)  -->
<svg version="1.1" id="Layer_1" xmlns="http://www.w3.org/2000/svg" xmlns:xlink="http://www.w3.org/1999/xlink" x="0px" y="0px"
	 viewBox="0 266 612 269" enable-background="new 0 266 612 269" xml:space="preserve">
<g>
	<path fill="#B5C9E2" d="M408.8,408.2l-50.4-29c0,0-12.4,24.2,0.6,40.8l43.1,0.6L408.8,408.2z"/>
	<polygon fill="#333333" points="224.1,490.9 152.2,486.1 141,441.8 184.7,420.6 235.5,430 	"/>
	<rect x="152.2" y="461.9" fill="#4D4D4D" width="82.7" height="11.8"/>
	<polygon fill="#1A1A1A" points="224.3,443.6 175.9,445.4 146.3,464.9 138.7,447.7 171.7,430.6 223.7,429.4 	"/>
	<path fill="#C1272D" d="M4.6,432.1l26.1,49.3l94,6.9c0,0,28.8-50.7,51.6-50.5c22.7,0.2,42-1.2,42-1.2s-7.9,40.3,5.9,54.3
		c0,0,299.1,1.1,326.9,0.1c27.8-1,51.2-11.1,53.1-22c0,0-2.2-23-22.6-32.2l-172.7-28.5c0,0-22.4,7.2-37.9-2.1l2.2,12.6
		c0,0-118.2,0.1-141.9-7.7c0,0-4.1-17.1-20.5-24.6c0,0-42.9-1.4-68.6,12.8S4.6,432.1,4.6,432.1z"/>
	<g>
		<circle fill="#1A1A1A" cx="486" cy="483.2" r="44.9"/>
		<circle fill="#CCCCCC" cx="486" cy="483.2" r="33.1"/>
		<circle fill="#F2F2F2" cx="486" cy="483.2" r="21.3"/>
	</g>
	<g>
		<circle fill="#1A1A1A" cx="136.3" cy="483.2" r="44.9"/>
		<circle fill="#CCCCCC" cx="136.3" cy="483.2" r="33.1"/>
		<circle fill="#F2F2F2" cx="136.3" cy="483.2" r="21.3"/>
	</g>
	<path fill="#89272D" d="M548,482.5l28.4-18.5h18.3c0,0-4.7,13.4-17.7,16.3L548,482.5z"/>
	
		<ellipse transform="matrix(0.9233 -0.384 0.384 0.9233 -138.9323 251.5913)" fill="#F2F2F2" cx="560.6" cy="473.7" rx="18.5" ry="6.5"/>
	<path fill="#89272D" d="M231.2,411.1l-86,0l82.7-8.3C227.8,402.9,231,406.3,231.2,411.1z"/>
	<path fill="#89272D" d="M250,449.2c0,0-5.6,6.8-1.5,14.8h31.9L250,449.2z"/>
	<path fill="#F2F2F2" d="M330.6,434l-21.9,15.4l0.4,14.6H330v15h11v-45C341,434,331.9,434,330.6,434z M330,456h-11.8l11.8-9.4V456z"
		/>
</g>
<g>
	<polygon fill="#C9D5E9" points="551.5,360.3 556.4,371.6 545.2,399.3 553.3,399.7 567.4,369.8 550.8,330.1 537,335.1 	"/>
	<polygon fill="#875C3B" points="508.8,515.2 507.5,521.6 501.9,521.6 501.9,515.2 	"/>
	<path fill="#231F20" d="M501.9,521.6h5.5c0,0,2.2,7-5,7.4h-9.3c0,0-2-4.4,3.5-4.7C496.6,524.2,501.4,523.4,501.9,521.6z"/>
	<path fill="#231F20" d="M540.5,521.6H535c0,0-2.2,7,5,7.4h9.3c0,0,2-4.4-3.5-4.7C545.8,524.2,541,523.4,540.5,521.6z"/>
	<polygon fill="#C9D5E9" points="504.5,401.6 501.2,515.2 508.8,515.2 525.3,416.2 534,515.2 541.3,515.2 544.2,402.3 	"/>
	<polygon fill="#875C3B" points="508.8,515.2 507.5,521.6 501.9,521.6 501.9,515.2 	"/>
	<path fill="#292846" d="M501.9,521.6h5.5c0,0,2.2,7-5,7.4h-9.3c0,0-2-4.4,3.5-4.7C496.6,524.2,501.4,523.4,501.9,521.6z"/>
	<path fill="#292846" d="M540.5,521.6H535c0,0-2.2,7,5,7.4h9.3c0,0,2-4.4-3.5-4.7C545.8,524.2,541,523.4,540.5,521.6z"/>
	<polygon fill="#292846" points="501.2,498.6 512.1,498.6 507.8,523 501.2,523 	"/>
	<polygon fill="#292846" points="542,498.6 532.1,498.6 534.7,523 541.3,522.6 	"/>
	<path fill="#C9D5E9" d="M496.1,330.1c0,0,18.3-10.7,54.7,0l-7.1,72.5c0,0-15,1.1-39.4-0.2L496.1,330.1z"/>
	<path fill="#E0A984" d="M535.7,288.6v30.8H531v10.1c0,0-5.3,10.3-18.1,0v-21.1c0,0-3.9-0.8-3.9-5.3s4.5-2.3,4.5-2.3v-12.3H535.7z"
		/>
	<path d="M537,287.9c-0.1,0.7,0,1.5-0.3,2.2c-0.3,0.7-0.9,1.3-1.6,1.2c0.3-0.6-0.1-1.3-0.6-1.6c-0.5-0.3-1.2-0.3-1.8-0.3
		c-1.9,0.1-3.8,0.1-5.7,0.2c-1.6,0-3.3,0.1-4.9,0.4c-0.6,0.1-1.2,0.3-1.7,0.6c-0.8,0.6-1.5,1.6-2.5,1.6c0.2,1.1,0.2,2.3-0.3,3.3
		c-0.5,1-1.6,1.7-2.7,1.5c0.3,2.3,0.3,4.7,0,7c-0.8-0.1-1.6-0.1-2.3-0.2c0.6-0.6,0.4-1.7-0.2-2.3s-1.5-0.7-2.2-0.5
		c-0.6,0.2-1.2,0.6-1.3,1.2c-2-3-2.7-6.9-2-10.5c0.8-3.6,3.1-6.8,6.2-8.5c2.2-1.2,4.7-1.6,7.2-1.6
		C520.5,281.7,538.4,276.1,537,287.9z"/>
	<path fill="#FBB03B" d="M537.7,284.6c0,0-1.2-11.9-14.3-11.3c-13.1,0.6-24,14.5-13.9,29.7L537.7,284.6z"/>
	<polygon fill="#C9D5E9" points="495.9,360.3 490.9,371.6 502.1,399.3 494,399.7 479.9,369.8 496.1,330.1 510.4,335.1 	"/>
	<path fill="#FFFFFF" d="M512.9,329.6c0,0,9.3,10.5,19.6-0.4c0,0-1.1-2.1,0-2.8c1.1-0.7-1.5-4.8-1.5-4.8s-11,5.1-18.3-1.8
		c0,0-2.2,3.3-0.7,4C513.5,324.5,510.5,327.3,512.9,329.6z"/>
	<path d="M521.2,278.5l2.9,1.1l-2.6,2.6l3.7,1.8l-0.7-2.2l2.9-0.7l1.8,0.7c0,0-2.2,2.2-1.1,2.2s4.8,1.1,4.8,1.1l-0.7-3.7l-5.5-4.4
		L521.2,278.5z"/>
	<path fill="#CBAD00" d="M511.7,302.1c0,0,11.3-26.5,29.6-16.3c5.2,4-5.5,9.5-5.5,9.5S532.3,284.4,511.7,302.1z"/>
	<path fill="#292846" d="M494,400.8l-1.5-3.3l8.6-1.3l2.4,5.5C503.5,401.7,496.6,400.2,494,400.8z"/>
	<polygon fill="#292846" points="544.4,401 553.4,401.5 555.4,395.7 546.8,394.6 	"/>
	<path fill="#292846" d="M503.6,398.8c0,0,14.6,3.3,22.3,2.9c7.7-0.4,18.3-3.7,18.3-3.7l-0.4,6.6c0,0-8.8,3.7-17.9,3.3
		c-9.1-0.4-21.6-2.9-21.6-2.9L503.6,398.8z"/>
	<path fill="#FFFFFF" d="M502.1,400.4c0,0,5.3,3.4,2.6,8.6c-2.7,5.2-10.7,5.5-10.7,5.5s-9.3-2.5-3.8-4.7c0,0,2.5,1.1,3.6-1.4
		c0,0-1.4-2.2,0.3-7.7C494,400.8,500.1,399.7,502.1,400.4z"/>
	<path fill="#FFFFFF" d="M545.2,400.4c0,0-5.3,3.4-2.6,8.6s10.7,5.5,10.7,5.5s9.3-2.5,3.8-4.7c0,0-2.5,1.1-3.6-1.4
		c0,0,1.4-2.2-0.3-7.7C553.3,400.8,547.2,399.7,545.2,400.4z"/>
</g>
</svg>
