<?xml version="1.0" encoding="utf-8"?>
<!-- Generator: Adobe Illustrator 18.1.1, SVG Export Plug-In . SVG Version: 6.00 Build 0)  -->
<svg version="1.1" id="Layer_1" xmlns="http://www.w3.org/2000/svg" xmlns:xlink="http://www.w3.org/1999/xlink" x="0px" y="0px"
	 viewBox="4 192 593 368" enable-background="new 4 192 593 368" xml:space="preserve">
<g>
	<path fill="#BADDF2" d="M183.4,372.6c0,0,11,6.1,16.3-2.7c0,0,7.2,7.2,17,3.4c0,0,11.4,9.1,20.5-1.9c9.1-11-0.8-17-0.8-17
		s3.8-10.2-6.1-15.2c0,0-12.5-12.9-27.7-3c0,0-17.4-9.1-30.3,8c0,0-24.2-8-30.3,13.6c0,0-19.7,9.5-11.7,31.4c0,0-16.3,11.7-3,33.7
		c0,0-5.3,18.2,12.9,22.7c0,0-3,18.6,22.4,20.8c0,0,7.2,16.3,28.4,9.9c0,0,19.7,10.2,33.3-3.4c0,0,24.2-1.5,29.9-18.6
		c0,0,19.9-4,14-18.6c-5.9-14.6-19.7-8-19.7-8s-1.9-4.2-12.9,1.1c-11,5.3-7.6,10.6-7.6,10.6s-15.2-8.7-26.9,8
		c0,0-7.6-14.4-26.1-11.4c0,0,0.4-14.8-12.9-23.1c0,0,9.5-11.7,4.9-24.2C167.1,388.9,183,388.9,183.4,372.6z"/>
	<path fill="#BADDF2" d="M506.4,371.3c0,0,0.9-15.3-10.8-18c0,0,1.5-20.1-11-22.4c0,0,2.5-14.2-9.7-16.3c0,0,1.5-12.3-10-13.3
		c0,0,0.4-20.8-18.6-18.6c0,0-0.8-11.7-18.2-13.6c-17.4-1.9-17.8,13.6-17.8,13.6s-17.2-3.6-15.7,12.7c0,0-13.8,12.7-4.7,25.2
		c0,0-12.9,11.4-1.5,25.4c0,0-11.7,16.3,0.4,25c0,0-9.1,16.7,3.8,27.7c0,0-14.8,9.5-1.3,20.6c4.9,16.9,28.4,4.2,21.4-4.5
		c8.7,2.5,14.2-12.9,4.1-18.4c0,0,16.1,9,22.8-6.8c4.7,3.9,17,2.5,17.4-8.5c0,0,4.9,13.1,17,4.3c-1.7,4.7,4.6,14.5,12.7,12.9
		c0,0,4.4,13.3,18,3.6C520.6,400.1,517.6,374.2,506.4,371.3z M424.5,319.7c10.1,11.5,18.5,8.2,18.5,8.2c-3.4,10.6,10,12.3,10,12.3
		c-10.2-1.5-12.1,12.3-12.1,12.3c-12.9-5.5-18,6.8-18,6.8c5.3-21.2-7.9-25.5-7.9-25.5C422.2,332.9,424.2,324.7,424.5,319.7z"/>
	<path fill="#93BEDD" d="M437.1,388.2c0,0,14.8,15.1,19.9-5.5c0,0,5.9,11.9,16.3,3.6c0,0-1.1,14.1,13.2,12.6c0,0,5.2,12.9,17.9,3.4
		c0,0,12.5,0.9,11.2-15.8c0,0-4.6,13.6-12.5,9.7c0,0-6.8,8.5-11.7-3.4c0,0-13.6-2.8-15.5-14c0,0-12.1,5.3-20.5-5.3
		C455.4,373.4,454.1,389.3,437.1,388.2z"/>
	<path fill="#93BEDD" d="M414.7,334.2c0,0,9.3,0.8,9.9-14c0,0,9.3,12.1,18.6,7.6c0,0-8.3-1.5-4.9-8.9c0,0-10.2,3.6-14.2-3.6
		c0,0-2.1,8.9-10.6,6.4C413.4,321.7,424.5,324.5,414.7,334.2z"/>
	<path fill="#93BEDD" d="M391.3,419.7c0,0,3.3,11.6,14.2,8c8.5-2.9,9.6-8.1,7.5-12.2c0,0,6.8,0.7,8.5-4.3c1.7-4.9,1-11.1-4.1-14.9
		c0,0,3.8,16.2-9.9,14.8c0,0,3.4,7.6-3.2,10.6C397.8,424.7,391.3,419.7,391.3,419.7z"/>
	<path fill="#93BEDD" d="M421.9,358.6c0,0-0.6,12.3-13.7,8.1c0,0-6.7,11.1-17.8,3.1c0,0,11.8,4.7,17-6
		C407.4,363.8,417.2,368.7,421.9,358.6z"/>
	<path fill="#93BEDD" d="M446.3,282.9c0,0-2.5,15.5-17.2,10.4c0,0-6.6,14.6-24.1,6.8c0,0,17.4,4.5,22.9-10.2
		C428,289.9,438.4,298.6,446.3,282.9z"/>
	<path fill="#93BEDD" d="M453.5,362.6c0,0-4.5-13.6,10.6-14c0,0-4.5-22.5,20.5-17.6c0,0-20.3-0.2-17.6,20.1
		C467,351,455.2,347.4,453.5,362.6z"/>
	<path fill="#93BEDD" d="M236.7,354.5c0,0,10.7,7.6,0.4,17.9c-10.1,10.1-20,1.1-20,1.1s-8.1,6.9-17.3-3c0,0-2,9-16.1,2.7
		c0,0-0.7,16.4-18.5,16.1c0,0,16.3-6.1,15-22.5c0,0,13.6,9.3,19.5-4c0,0,7,11.9,18.8,4.5c0,0,6.2,8.5,14.2,1.1
		C239.3,362.4,236.7,354.5,236.7,354.5z"/>
	<path fill="#93BEDD" d="M264,429.5c0,0,18.3,17.3-9.7,25c0,0-4.1,19.3-29.8,18.8c0,0-13.6,14-33.5,3.4c0,0-18,7.7-28.6-9.2
		c0,0-23.4,0.1-22.2-21.3c0,0,5.7,15.7,24.4,17c0,0,9.5,15.5,27.1,8.7c0,0,19.7,11.4,31.8-4c0,0,19.5,3,28.8-17.6
		c0,0,10.2-0.9,12.3-7.6C266.8,436.1,264,429.5,264,429.5z"/>
	<path fill="#93BEDD" d="M142.1,357.9c-0.3,0.5,14.2-12.5,26.1-5.7c0,0,8.5-13.4,24.1-10.4c0,0-13.1-8.7-24.2,7.2
		C168.1,349,148.6,344.4,142.1,357.9z"/>
	<path fill="#93BEDD" d="M162.2,413.2c0,0-11.6-3.2-16.5,6.3C145.7,419.4,149.3,404.8,162.2,413.2z"/>
	<path fill="#93BEDD" d="M227.2,445.8c0,0,5.9-12.1,21-11.6C248.2,434.2,229.3,428.9,227.2,445.8z"/>
	<path fill="#93BEDD" d="M248.6,427.6c0.7,0.1-4.7,1.9-7,6.6C241.6,434.2,243.3,426.6,248.6,427.6z"/>
	<path fill="#93BEDD" d="M229.3,344.8c0,0-6.4-10.2-18.6-3.4C210.7,341.4,221.3,326,229.3,344.8z"/>
	<path fill="#93BEDD" d="M150.7,387c0,0-9.4-7.6-18.7,2.8C132,389.8,137.1,371.8,150.7,387z"/>
	<path fill="#93BEDD" d="M191.1,452.7c0,0-7.7-9.3-18.8-1C172.3,451.7,180.9,435.1,191.1,452.7z"/>
	<path fill="#93BEDD" d="M417.4,396.3c0,0,17.3,0.7,19.7-8.1l4.7,1.4c0,0-4.3,13.8-21.5,11.4L417.4,396.3z"/>
	<path fill="#BADDF2" d="M188.7,272.6c0,0-12.5,6.4-0.4,16.7c0,0,3,14.4,16.3,7.6c0,0,12.3,3.8,17.7-10.8c0,0-2.9,13,9.2,19.9
		c0,0,0.4,12.9,13.3,20.5c0,0-5.8,14.5,4.3,23.9c0,0-0.9,12.8,11.3,18.5c0,0-4.2,8,6.1,13.6c0,0,12.5,0.8,4.9-8.7c0,0,2.3-4.5-1.1-8
		c0,0,3.8,7.6,6.4,8c0,0-2.1,7.7,2.7,12c0,0-1.6,14.1,14.7,13.4c0,0,7.2,6.8,12.9,1.9c0,0,0.8,13.7,14.2,12.3c0,0,2.4,8.5,9.3,8.9
		c0,0-14,0-14.8,12.9c0,0-13.4,10.5,1.1,19.1c0,0-1.8,12,11.1,12.7c0,0-6.5,11.8-0.8,22.4c0,0-11.7,11-3,27.3
		c0,0-12.5,10.2-1.5,23.5c0,0,3,10,11.4,5.8s1.5-14.9,1.5-14.9s10.2-7.6,6.4-21.2c0,0,17.4,0.8,17-18.9c0,0,14-5.3,12.9-14.8
		c0,0,18.2,2.3,18.2-15.5c0,0,15.6-9.8,2.7-18.1c0,0-2.4-15.6-13.3-10.1c0,0-1.8-19.1-17.4-16.5c0,0-3.4-15.9-18.6-12.5
		c0,0-5.7-5.7-12.5-2.7c-6.8,3-4,10.6-4,10.6s-3.9-7.1-10-5.2c0,0,1.1-11-8.7-12.9c0,0,5.7-3.8,1.9-8.3c-3.8-4.5-8.7,6.1-8.7,6.1
		s-2.7-5.3-6.5-4.6c0,0,5.3-9.5,1.9-15.1c0,0,11.6,3.5,16.8-4.7c0,0-0.9,9.8,4,11.4c4.9,1.6,9.5-8.7,3.8-14.7c0,0,8.1-1.7,7.3-11.7
		c0,0,12.1-3.4,10.7-13.9c0,0,15.8-1.9,8.8-16.2c0,0,14.8,7.3,21.7-7.1c6.9-14.4-9.4-26.9-16.6-25c0,0-8.7-18.2-25.8-8.7
		c-13.3,7.6-3.8,23.8-3.8,23.8s-4.5-19.7-20.8-17.4c19.3-4.2,13.6-29.2,13.6-29.2s9.5-3,4.9-13.6c-4.5-10.6-14.4-1.5-14.4-1.5
		s-14.8-6.1-22.4,8c0,0-9.7-12.5-21.2-2.7c0,0-9.5-16.3-23.5-6.4c0,0-18.9-9.9-21.6,7.6c0,0-11-20.8-24.2-10.6
		c-13.3,10.2-2.9,17-2.9,17S174.7,259.7,188.7,272.6z"/>
	<path fill="#93BEDD" d="M322.4,540.1c0,0,12.7,1.5,8.1-12.1c0,0,10.8-8.5,6-22.7c0,0,19.6-2.3,18.5-19.3c0,0,14.8-0.9,12.8-16.5
		c0,0,17.3,4,18.8-12.8c0,0,10.2-5.4,3.4-11.4c0,0,2.4,0.5,2.6-2.9c0,0,14.3,7-2.7,18.1c0,0,2.5,17-18.2,15.5
		c0,0,3.4,11.5-12.9,14.8c0,0,3.5,19.8-17,18.9c0,0,9.1,13.7-6.4,21.2c0,0,8.6,8.3-1.5,14.9C326.3,550.7,322.4,540.1,322.4,540.1z"
		/>
	<path fill="#93BEDD" d="M348.1,321.4c0,0,9.4,14-8.8,16.2c0,0,2.6,11-10.7,13.9c0,0,3.6,9.1-7.3,11.7c0,0,10.7,8.8-2.1,15.6
		c-6.3,2-5.8-12.3-5.8-12.3s5.2,1.8,3.5-6.7c0,0,10.5-0.3,7.1-11.9c0,0,13.1-1.1,11.4-14.8C335.4,333,348.3,333.9,348.1,321.4z"/>
	<path fill="#93BEDD" d="M272.1,369.1c0,0,0.9,1.4-0.9,4.8c0,0,6.3,3.4,2,8c-4.3,4.5-9.1,1.7-11.9-3.4c5.4,2,9.9,1.4,7.1-4.5
		C268.4,374,271.8,371.4,272.1,369.1z"/>
	<path fill="#93BEDD" d="M308.1,393.1c0,0,4.1,0.2,4.6-3.8c0.6-4-4.5-5.6-4.5-5.6S312.2,389.4,308.1,393.1z"/>
	<path fill="#93BEDD" d="M188.3,289.3c0,0,2,15.7,16.3,7.6c0,0,13.2,4.9,17.1-9.6c0,0-6,11.1-16.5,3.7
		C205.3,291,195.8,298.1,188.3,289.3z"/>
	<path fill="#93BEDD" d="M244.8,326.4c0,0,3.7-14.4,16.2-7.6c0,0,4.8-13.9,19.6-11.6c0,0-12.5-7.7-20.7,6.3
		C259.8,313.4,242.8,311,244.8,326.4z"/>
	<path fill="#93BEDD" d="M297.1,372c0,0-3.4-9.9-13.9-6.5c0,0,0.3-4.8-4.5-4.5c0,0,4.8-3.4,6.3,2C284.8,362.9,297.1,360,297.1,372z"
		/>
	<path fill="#93BEDD" d="M324.3,310.3c0,0,6.3-12.5,21-7.7c0,0-1.8-9.4,7.8-13.4c0,0-10.6-0.6-10.9,9.4
		C342.2,298.7,328,294.1,324.3,310.3z"/>
	<path fill="#93BEDD" d="M327.8,467c0,0,1.7-11.7,16.2-11.7C343.9,455.2,325.2,447.4,327.8,467z"/>
	<path fill="#93BEDD" d="M361.8,415.8c0,0-9.9-3.2-12.8,8.4c0,0-7.7-2.6-8.5,5.7c0,0-0.9-8.8,6.3-8
		C346.8,422,352.2,405.4,361.8,415.8z"/>
	<path fill="#93BEDD" d="M188.7,272.6c0,0,8.1-12.3,20-3.8c0,0,1.7-11.1,10.5-7.4c0,0-10.8-6.5-11.9,3.4
		C207.3,264.9,189.8,258.2,188.7,272.6z"/>
	<path fill="#93BEDD" d="M303.9,287.3c0,0-11.6-8.8-19-3.4c0,0-5.4-8.8-13.9-5.7c0,0,8.5-7.1,14.5,2.6
		C285.4,280.8,297.9,274.2,303.9,287.3z"/>
	<g>
		<path fill="#BADDF2" d="M206.9,536.7c0,0-11.7-2.7-11,8c0.8,10.6,21.2,3.8,21.2,3.8s14.8,11,26.9-0.8c0,0,15.9,4.9,22.7-3
			s-3.8-15.9-12.1-14.4c0,0-8.7-14.4-23.5,0.8C231.1,531,208.4,513.6,206.9,536.7z"/>
		<path fill="#93BEDD" d="M195.9,544.4c0,0,15,4.9,21.4,0.2c0,0,14.4,9.7,25.8,0.2c0,0,16.7,6.4,25.8-5.3c0,0-0.6,14.8-24.8,8.1
			c0,0-10.8,13.1-26.9,0.8C217.1,548.4,195.7,555.6,195.9,544.4z"/>
	</g>
	<g>
		<path fill="#BADDF2" d="M459.2,441.2c0,0-11.7-2.7-11,8c0.8,10.6,21.2,3.8,21.2,3.8s14.8,11,26.9-0.8c0,0,15.9,4.9,22.7-3
			c6.8-8-3.8-15.9-12.1-14.4c0,0-8.7-14.4-23.5,0.8C483.5,435.5,460.7,418.1,459.2,441.2z"/>
		<path fill="#93BEDD" d="M448.2,449c0,0,15,4.9,21.4,0.2c0,0,14.4,9.7,25.8,0.2c0,0,16.7,6.4,25.8-5.3c0,0-0.6,14.8-24.8,8.1
			c0,0-10.8,13.1-26.9,0.8C469.4,453,448,460.2,448.2,449z"/>
	</g>
	<g>
		<path fill="#BADDF2" d="M368.3,213.9c0,0-11.7-2.7-11,8c0.8,10.6,21.2,3.8,21.2,3.8s14.8,11,26.9-0.8c0,0,15.9,4.9,22.7-3
			c6.8-8-3.8-15.9-12.1-14.4c0,0-8.7-14.4-23.5,0.8C392.5,208.2,369.8,190.8,368.3,213.9z"/>
		<path fill="#93BEDD" d="M357.3,221.7c0,0,15,4.9,21.4,0.2c0,0,14.4,9.7,25.8,0.2c0,0,16.7,6.4,25.8-5.3c0,0-0.6,14.8-24.8,8.1
			c0,0-10.8,13.1-26.9,0.8C378.5,225.6,357.1,232.8,357.3,221.7z"/>
	</g>
	<g>
		<path fill="#BADDF2" d="M20.5,388.9c0,0-11.7-2.7-11,8s21.2,3.8,21.2,3.8s14.8,11,26.9-0.8c0,0,15.9,4.9,22.7-3
			c6.8-8-3.8-15.9-12.1-14.4c0,0-8.7-14.4-23.5,0.8C44.8,383.2,22,365.8,20.5,388.9z"/>
		<path fill="#93BEDD" d="M9.5,396.7c0,0,15,4.9,21.4,0.2c0,0,14.4,9.7,25.8,0.2c0,0,16.7,6.4,25.8-5.3c0,0-0.6,14.8-24.8,8.1
			c0,0-10.8,13.1-26.9,0.8C30.7,400.7,9.3,407.9,9.5,396.7z"/>
	</g>
	<g>
		<path fill="#BADDF2" d="M529.7,300.3c0,0-11.7-2.7-11,8c0.8,10.6,21.2,3.8,21.2,3.8s14.8,11,26.9-0.8c0,0,15.9,4.9,22.7-3
			c6.8-8-3.8-15.9-12.1-14.4c0,0-8.7-14.4-23.5,0.8C553.9,294.6,531.2,277.2,529.7,300.3z"/>
		<path fill="#93BEDD" d="M518.7,308c0,0,15,4.9,21.4,0.2c0,0,14.4,9.7,25.8,0.2c0,0,16.7,6.4,25.8-5.3c0,0-0.6,14.8-24.8,8.1
			c0,0-10.8,13.1-26.9,0.8C539.9,312,518.5,319.2,518.7,308z"/>
	</g>
	<g>
		<path fill="#BADDF2" d="M72.8,241.2c0,0-11.7-2.7-11,8c0.8,10.6,21.2,3.8,21.2,3.8s14.8,11,26.9-0.8c0,0,15.9,4.9,22.7-3
			c6.8-8-3.8-15.9-12.1-14.4c0,0-8.7-14.4-23.5,0.8C97,235.5,74.3,218.1,72.8,241.2z"/>
		<path fill="#93BEDD" d="M61.8,248.9c0,0,15,4.9,21.4,0.2c0,0,14.4,9.7,25.8,0.2c0,0,16.7,6.4,25.8-5.3c0,0-0.6,14.8-24.8,8.1
			c0,0-10.8,13.1-26.9,0.8C83,252.9,61.6,260.1,61.8,248.9z"/>
	</g>
</g>
</svg>
