<?xml version="1.0" encoding="utf-8"?>
<!-- Generator: Adobe Illustrator 19.0.0, SVG Export Plug-In . SVG Version: 6.00 Build 0)  -->
<!DOCTYPE svg PUBLIC "-//W3C//DTD SVG 1.1//EN" "http://www.w3.org/Graphics/SVG/1.1/DTD/svg11.dtd">
<svg version="1.1" id="Layer_1" xmlns="http://www.w3.org/2000/svg" xmlns:xlink="http://www.w3.org/1999/xlink" x="0px" y="0px"
	 viewBox="0 0 108.2 229.2" style="enable-background:new 0 0 108.2 229.2;" xml:space="preserve">
<style type="text/css">
	.st0{fill:#FFFFFF;}
	.st1{fill:#F2F2F2;}
	.st2{fill:#875C3B;}
	.st3{fill:#1A1A1A;}
	.st4{fill:#ED1C24;}
	.st5{fill:#505553;}
	.st6{fill:#E0A984;}
	.st7{fill:#C9D5E9;}
</style>
<g>
	<path class="st0" d="M99.1,33.2c0,0-4.4-2.8-1.2-5.3c0,0-0.5-5.4,5.2-3.9s7,6.9,1.5,10.9C104.6,34.9,100.4,35.7,99.1,33.2z"/>
	<polygon class="st1" points="80.1,51.2 89.1,53.4 97.9,34.7 103.9,37.2 95.9,64.4 54.7,59.3 55.8,45.9 	"/>
	<polygon class="st2" points="26.3,216.7 25.1,222.5 20.1,222.5 20.1,216.7 	"/>
	<path class="st3" d="M20.1,222.5h5c0,0,2,6.4-4.6,6.7H12c0,0-1.9-4,3.2-4.3C15.2,224.9,19.6,224.2,20.1,222.5z"/>
	<path class="st3" d="M55.2,222.5h-5c0,0-2,6.4,4.6,6.7h8.5c0,0,1.9-4-3.2-4.3C60.1,224.9,55.7,224.2,55.2,222.5z"/>
	<polygon class="st1" points="22.4,113.2 19.4,216.7 26.3,216.7 41.4,126.5 49.3,216.7 56,216.7 58.4,114 	"/>
	<polygon class="st2" points="26.3,216.7 25.1,222.5 20.1,222.5 20.1,216.7 	"/>
	<path class="st3" d="M20.1,222.5h5c0,0,2,6.4-4.6,6.7H12c0,0-1.9-4,3.2-4.3C15.2,224.9,19.6,224.2,20.1,222.5z"/>
	<path class="st3" d="M55.2,222.5h-5c0,0-2,6.4,4.6,6.7h8.5c0,0,1.9-4-3.2-4.3C60.1,224.9,55.7,224.2,55.2,222.5z"/>
	<polygon class="st3" points="19.4,201.6 29.3,201.6 25.4,223.8 19.4,223.8 	"/>
	<polygon class="st3" points="56.6,201.6 47.5,201.6 50,223.8 56,223.5 	"/>
	<path class="st1" d="M14.8,48c0,0,16.7-9.8,49.9,0L58.4,114c0,0-13.9,1.2-36.1,0L14.8,48z"/>
	<polygon class="st0" points="14.5,75.5 10,85.8 20.3,111.1 12.9,111.4 0,84.2 14.8,48 27.7,52.6 	"/>
	<path class="st4" d="M12.9,112.4l-1.4-3l7.8-1.2l2.2,5C21.5,113.3,15.3,111.9,12.9,112.4z"/>
	<path class="st0" d="M20.3,112.1c0,0,4.9,3.1,2.4,7.9s-9.8,5-9.8,5s-8.5-2.2-3.5-4.2c0,0,2.2,1,3.2-1.2c0,0-1.2-2,0.2-7
		C12.9,112.4,18.4,111.4,20.3,112.1z"/>
	<path class="st0" d="M45.9,44.2l5.2,4.8l-15.8,5.8l-1.6,59.7L22,114.1l-4.6-42.9L14.8,48C14.8,48,26.9,40.4,45.9,44.2z"/>
	<path class="st4" d="M30.6,45.2c0,0-9.5,0.5-15.8,5l0.5,2.8c0,0,7.4-5.8,15.4-5.7L30.6,45.2z"/>
	<path class="st4" d="M44.4,47.2c0,0,11.2,0.8,19.2,5.5v-1.8c0,0-7.5-5-18.5-4.8L44.4,47.2z"/>
	<polygon class="st5" points="51.6,30.9 49.6,30.9 49.5,14.4 52.8,14.6 	"/>
	<path class="st6" d="M50.9,10.2v28.1h-4.3v9.2c0,0-4.8,9.4-16.5,0V28.3c0,0-3.6-0.7-3.6-4.8s4.1-2.1,4.1-2.1V10.2H50.9z"/>
	<path d="M52.1,9.5c-0.1,0.7,0,1.4-0.2,2c-0.2,0.6-0.8,1.1-1.5,1.1c0.3-0.5-0.1-1.2-0.6-1.5s-1.1-0.3-1.6-0.3
		c-1.7,0-3.5,0.1-5.2,0.1c-1.5,0-3,0.1-4.4,0.4C38,11.5,37.4,11.6,37,12c-0.8,0.5-1.4,1.4-2.3,1.4c0.2,1,0.2,2.1-0.2,3.1
		S33,18,32,17.8c0.2,2.1,0.2,4.3,0,6.4c-0.7-0.1-1.4-0.1-2.1-0.2c0.5-0.6,0.4-1.5-0.1-2.1s-1.3-0.6-2-0.5c-0.5,0.1-1.1,0.5-1.1,1.1
		c-1.8-2.7-2.5-6.3-1.8-9.6c0.7-3.3,2.8-6.2,5.6-7.7c2-1.1,4.3-1.5,6.6-1.4C37,3.9,53.3-1.2,52.1,9.5z"/>
	<path class="st0" d="M24.1,15.3c0,0-0.6,16.3,5.8,16.7c6.3,0.3,5.9-16,5.9-16l15.9-0.7v15.7c0,0,3.3-7.3,2.7-20.7
		S23.6-5.4,24.1,15.3z"/>
	<path class="st5" d="M30.9,8c2.6-3.2,10.6-10.6,22.7-1.7c2.8,4.3-4.2,10.8-10.3,4.3c0,0-5.8,8.8-12.5-0.1C30.3,9.8,30.3,8.7,30.9,8
		z"/>
	<path class="st7" d="M32,9.1c0,0,8.7-10.2,20.3-2.6c3.7,3.4-3,8.9-9.3,1.9C43,8.4,38,18.5,32,9.1z"/>
	<path class="st5" d="M30.6,10.2c0,0-4.5,3.4-6.5,11.1c0,0,0.8,5.3,1.3,6.3c0,0,3-12.3,8.7-15L30.6,10.2z"/>
	<polygon class="st4" points="63.6,52.7 88.7,54.3 89.1,53.4 63.6,50.9 	"/>
	<polygon class="st4" points="15.4,52.9 2.1,83.4 13.3,110.1 11.5,109.4 0,84.2 14.9,50.2 	"/>
	<polygon class="st4" points="97.3,35.6 103.5,38.3 104.6,34.9 98.3,32.6 	"/>
</g>
</svg>
