<?xml version="1.0" encoding="utf-8"?>
<!-- Generator: Adobe Illustrator 19.0.0, SVG Export Plug-In . SVG Version: 6.00 Build 0)  -->
<!DOCTYPE svg PUBLIC "-//W3C//DTD SVG 1.1//EN" "http://www.w3.org/Graphics/SVG/1.1/DTD/svg11.dtd">
<svg version="1.1" id="Layer_1" xmlns="http://www.w3.org/2000/svg" xmlns:xlink="http://www.w3.org/1999/xlink" x="0px" y="0px"
	 viewBox="-352 292.5 574.5 217.5" style="enable-background:new -352 292.5 574.5 217.5;" xml:space="preserve">
<style type="text/css">
	.st0{fill:#CB262B;}
	.st1{fill:#FFFFFF;}
	.st2{fill:#252773;}
	.st3{fill:#34388B;}
	.st4{fill:#2E779C;}
	.st5{fill:none;}
</style>
<g>
	<path class="st0" d="M-338.1,423.9c0,0,288,145.3,529.3,18l-5.3-10l-272-10.7l-249.9-3.4L-338.1,423.9z"/>
	<path class="st1" d="M-338.8,417.9c0,0,325.3,138,528.7,16l-9.3-20.7l-248-10.7l-153.3,2l-116,4.7L-338.8,417.9z"/>
	<path class="st0" d="M-339.5,412.5c0,0,361,80.7,531,1.3l-8.5-26.6l-272.3-28l-250.2,45.3V412.5z"/>
	<path class="st1" d="M-339.5,407.9c0,0,234.7-48,536-14l-2.7-30L76.5,321.2l-144.7-10l-172.6,35.3l-97.3,42L-339.5,407.9z"/>
	<path class="st0" d="M-338.8,391.2c0,0,314-146,530-22l0.2-22.1c0,0-188-138.2-527.4,33L-338.8,391.2z"/>
	<polygon class="st2" points="-302.3,469.8 -236,486.3 -201.5,459 -301.5,434.2 	"/>
	<polygon class="st3" points="-306.6,342.5 -242.7,318 -205.1,340.9 -301.3,377.7 	"/>
	<path class="st4" d="M45.6,485.9c4.6,0.1,8.2,0.3,10.7,0.5c-0.2,2.9-0.4,6.2-0.9,9.4c-2.9-0.6-6.3-1.1-9.9-1.4L45.6,485.9
		L45.6,485.9z"/>
	<path class="st4" d="M13.6,494.1c-4,0.2-7.7,0.4-10.9,0.6l-1-7.9c3.8-0.3,7.6-0.5,11.3-0.6L13.6,494.1z"/>
	<path class="st4" d="M43,494.2c-3.8-0.3-7.9-0.4-11.9-0.4l-0.4-8c4.5,0,8.6,0.1,12.3,0.2V494.2z"/>
	<path class="st4" d="M0,494.8c-5.3,0.4-8.7,0.7-8.7,0.7c-4.1-2.2-8.2-7-8.2-7c5.3-0.7,10.6-1.3,15.9-1.7L0,494.8z"/>
	<path class="st4" d="M28.4,493.7c-4.1,0-8.2,0.1-12.1,0.2l-0.6-8c4.3-0.2,8.5-0.2,12.4-0.3L28.4,493.7z"/>
	<path class="st3" d="M221.9,395.1c0,8.2-2.8,16.2-7.9,23.8c-8.2,3.5-19,7.8-32.6,12.2c-8.9-37.7,1.3-66.2,10-82
		C210.7,362.8,221.9,378.5,221.9,395.1z"/>
	<path class="st2" d="M214,418.5c-6.2,9.2-15.9,17.9-28.6,25.8c-1.6-4.7-2.9-9.2-4-13.7C195,426.3,205.9,422,214,418.5z"/>
	<polygon class="st3" points="-196.3,391.2 -293,391.2 -287.1,377.7 -223,377.7 	"/>
	<polygon class="st2" points="-222,374.2 -187.5,391.2 -196.3,391.2 -223,377.7 -287.1,377.7 -285.5,374.2 	"/>
	<path class="st3" d="M-351,389.8c0,0,5.3-2.9,15-7.8v35.8c-2.4-0.5-9.5-1.9-15-4.6V389.8z"/>
	<path class="st3" d="M-351,415.2v-2c5.5,2.6,12.5,4.1,15,4.6v5.9C-345.9,418.5-351,415.2-351,415.2z"/>
	<path class="st3" d="M-30.3,484.8c0,0,6.4,17.4,15.9,22.6c15-2.9,41.9-1.9,50.6-2.2c6-0.2,11,0.6,14.2,1.4c0.5-0.2,1-0.4,1.2-0.5
		c2-1.3,3.1-5.6,3.8-10.3c-2.9-0.6-6.3-1.1-9.9-1.4v-8.5c4.6,0.1,8.2,0.3,10.7,0.5c0.2-4.2,0.2-7.4,0.2-7.4
		C-15.2,475.8-30.3,484.8-30.3,484.8z M30.7,485.7c4.5,0,8.6,0.1,12.3,0.2v8.3c-3.8-0.3-7.9-0.4-11.9-0.4L30.7,485.7z M15.6,486
		c4.3-0.2,8.5-0.2,12.4-0.3l0.4,8c-4.1,0-8.2,0.1-12.1,0.2L15.6,486z M1.7,486.7c3.8-0.3,7.6-0.5,11.3-0.6l0.6,8
		c-4,0.2-7.7,0.4-10.9,0.6L1.7,486.7z M-16.9,488.6c5.3-0.7,10.6-1.3,15.9-1.7l1,7.9c-5.3,0.4-8.7,0.7-8.7,0.7
		C-12.8,493.4-16.9,488.6-16.9,488.6z"/>
</g>
<polygon class="st5" points="-30.6,349 -20.8,355.5 -13.6,347.9 -23.4,341.4 "/>
<rect x="-25.3" y="337.6" transform="matrix(-3.470055e-03 -1 1 -3.470055e-03 -366.6669 323.3543)" class="st5" width="6.1" height="13.5"/>
<path class="st5" d="M-22.3,340.5c-2,1.2-4.4,2.1-6.2,2.3c0.1-1.9,2.9-5.2,6.2-5.2c3.2,0,6.1,3.3,6.2,5.2
	C-17.9,342.6-20.3,341.7-22.3,340.5"/>
<path class="st5" d="M-22.3,340.5c-2,1.2-4.4,2.1-6.2,2.3c0.1-1.9,2.9-5.2,6.2-5.2c3.2,0,6.1,3.3,6.2,5.2
	C-17.9,342.6-20.3,341.7-22.3,340.5"/>
<path class="st5" d="M-22.3,340.5c-2,1.2-4.4,2.1-6.2,2.3c0.1-1.9,2.9-5.2,6.2-5.2c3.2,0,6.1,3.3,6.2,5.2
	C-17.9,342.6-20.3,341.7-22.3,340.5"/>
<path class="st5" d="M-22.2,359.7c-2.9,0.1-6.5-1.3-8.9-2.6c3,0.8,5.9,1.6,8.9,1.5c3,0.1,5.9-0.7,8.8-1.5
	C-15.7,358.4-19.3,359.8-22.2,359.7"/>
<path class="st5" d="M-22.2,359.7c-2.9,0.1-6.5-1.3-8.9-2.6c3,0.8,5.9,1.6,8.9,1.5c3,0.1,5.9-0.7,8.8-1.5
	C-15.7,358.4-19.3,359.8-22.2,359.7"/>
<path class="st5" d="M-22.2,359.7c-2.9,0.1-6.5-1.3-8.9-2.6c3,0.8,5.9,1.6,8.9,1.5c3,0.1,5.9-0.7,8.8-1.5
	C-15.7,358.4-19.3,359.8-22.2,359.7"/>
<path class="st5" d="M-18,337.1l-0.5,0.3l-0.2,0.4l0.4,0.2l0.2,0.1c0,0,0,0,0.1,0c1.4-0.4,2.7-2.3,2.6-3.4c-1.4,0-3.3,1-4.1,2.7
	l0.5,0.1l0.3-0.3l0.7-0.3l0.2,0.1C-17.8,337-17.8,337-18,337.1C-17.9,337.1-17.9,337.1-18,337.1"/>
<path class="st5" d="M-18,337.1l-0.5,0.3l-0.2,0.4l0.4,0.2l0.2,0.1c0,0,0,0,0.1,0c1.4-0.4,2.7-2.3,2.6-3.4c-1.4,0-3.3,1-4.1,2.7
	l0.5,0.1l0.3-0.3l0.7-0.3l0.2,0.1C-17.8,337-17.8,337-18,337.1C-17.9,337.1-17.9,337.1-18,337.1"/>
<path class="st5" d="M-18,337.1l-0.5,0.3l-0.2,0.4l0.4,0.2l0.2,0.1c0,0,0,0,0.1,0c1.4-0.4,2.7-2.3,2.6-3.4c-1.4,0-3.3,1-4.1,2.7
	l0.5,0.1l0.3-0.3l0.7-0.3l0.2,0.1C-17.8,337-17.8,337-18,337.1C-17.9,337.1-17.9,337.1-18,337.1"/>
<path class="st5" d="M-20.8,337l0.2-0.1c0.8-1.3,2.2-2.5,3.5-2.9l1.4-0.5l-1.3-2.2l-0.8-1.2c-0.7-0.4-1.4-0.5-2.1-0.3
	c-2.5,1.8-3,4.5-3.4,6.6L-20.8,337"/>
<path class="st5" d="M-20.8,337l0.2-0.1c0.8-1.3,2.2-2.5,3.5-2.9l1.4-0.5l-1.3-2.2l-0.8-1.2c-0.7-0.4-1.4-0.5-2.1-0.3
	c-2.5,1.8-3,4.5-3.4,6.6L-20.8,337"/>
<path class="st5" d="M-20.8,337l0.2-0.1c0.8-1.3,2.2-2.5,3.5-2.9l1.4-0.5l-1.3-2.2l-0.8-1.2c-0.7-0.4-1.4-0.5-2.1-0.3
	c-2.5,1.8-3,4.5-3.4,6.6L-20.8,337"/>
<path class="st5" d="M-25.9,337.5l0.5-0.2c-0.2-1.2-0.2-2.3,0.6-3.5l0.2,0.1v3.3c0,0,0,0,0.1-0.1c0-1.8,0.8-3.8,1.7-5.7l-2.4,0.6
	c-1,1.9-1.1,3.7-0.8,5.6L-25.9,337.5"/>
<path class="st5" d="M-25.9,337.5l0.5-0.2c-0.2-1.2-0.2-2.3,0.6-3.5l0.2,0.1v3.3c0,0,0,0,0.1-0.1c0-1.8,0.8-3.8,1.7-5.7l-2.4,0.6
	c-1,1.9-1.1,3.7-0.8,5.6L-25.9,337.5"/>
<path class="st5" d="M-25.9,337.5l0.5-0.2c-0.2-1.2-0.2-2.3,0.6-3.5l0.2,0.1v3.3c0,0,0,0,0.1-0.1c0-1.8,0.8-3.8,1.7-5.7l-2.4,0.6
	c-1,1.9-1.1,3.7-0.8,5.6L-25.9,337.5"/>
<path class="st5" d="M-30.9,376.2l-0.9-1c-0.5-0.5-0.5-1.2-0.7-1.9l0.1-0.9c-0.3-0.3-0.2-1.1-0.2-1.5l1-1.7h0.4l0.4-1.2h0.1
	c0.7-1.6,2.9-0.9,3.8-2.3c0.1-0.1,0.2-0.3,0.3-0.5l1.6-1.1c0.9-0.6,1.7-0.4,2.5,0c0.4,0.2,0.7,0.1,1.1,0c0,0.4,0.4,0.5,0.7,0.6
	l0.7-0.2l2.8,0.6l0.1,0.6c0.2,0.1,0.5,0.2,0.7,0.3v0.5c0.1,0.1,0.3,0,0.5,0l1.2,0.3c0.5,0.9,1.1,1.5,1.8,2.2l0.2,1.4l0.7,1.1
	l-0.5,0.7l0.5,0.5c0.4,0.4-0.6,2.1-0.8,2.5l-0.7,0.1l-0.3,0.5l-0.6,0.1l-0.2,0.6l-2.8,0.5l-0.1-0.1l-2.7-0.7
	c-0.3,0.2-0.7,0.3-0.9,0.6l-3.8-0.3c-1.8,0.3-3.9,0.9-5.5-0.3L-30.9,376.2"/>
<path class="st5" d="M-30.9,376.2l-0.9-1c-0.5-0.5-0.5-1.2-0.7-1.9l0.1-0.9c-0.3-0.3-0.2-1.1-0.2-1.5l1-1.7h0.4l0.4-1.2h0.1
	c0.7-1.6,2.9-0.9,3.8-2.3c0.1-0.1,0.2-0.3,0.3-0.5l1.6-1.1c0.9-0.6,1.7-0.4,2.5,0c0.4,0.2,0.7,0.1,1.1,0c0,0.4,0.4,0.5,0.7,0.6
	l0.7-0.2l2.8,0.6l0.1,0.6c0.2,0.1,0.5,0.2,0.7,0.3v0.5c0.1,0.1,0.3,0,0.5,0l1.2,0.3c0.5,0.9,1.1,1.5,1.8,2.2l0.2,1.4l0.7,1.1
	l-0.5,0.7l0.5,0.5c0.4,0.4-0.6,2.1-0.8,2.5l-0.7,0.1l-0.3,0.5l-0.6,0.1l-0.2,0.6l-2.8,0.5l-0.1-0.1l-2.7-0.7
	c-0.3,0.2-0.7,0.3-0.9,0.6l-3.8-0.3c-1.8,0.3-3.9,0.9-5.5-0.3L-30.9,376.2"/>
</svg>
