<?xml version="1.0" encoding="utf-8"?>
<!-- Generator: Adobe Illustrator 18.1.1, SVG Export Plug-In . SVG Version: 6.00 Build 0)  -->
<svg version="1.1" id="Layer_1" xmlns="http://www.w3.org/2000/svg" xmlns:xlink="http://www.w3.org/1999/xlink" x="0px" y="0px"
	 viewBox="157 0 329 792" enable-background="new 157 0 329 792" xml:space="preserve">
<g>
	
		<rect x="329" y="175.3" transform="matrix(0.9999 1.323078e-02 -1.323078e-02 0.9999 3.7427 -4.3464)" fill="#FFFFFF" width="2.6" height="210.8"/>
	
		<rect x="245.2" y="180.4" transform="matrix(0.9999 1.323078e-02 -1.323078e-02 0.9999 3.8023 -3.2366)" fill="#FFFFFF" width="2.6" height="210.8"/>
	
		<rect x="382.5" y="313.5" transform="matrix(0.9999 1.323078e-02 -1.323078e-02 0.9999 5.5754 -5.042)" fill="#FFFFFF" width="2.6" height="210.8"/>
	<path fill="#0071BC" d="M329.2,566.8c-20.9-4.9-41.3-9.7-63.1-14.8c0.1-10.8,2-21.8,10.3-30.8c5.6-6.1,5.6-11.2-2.3-15.2
		c-9.3-4.7-22.3-7.3-26.8-14.8c-4.5-7.7,0.2-20.4-0.4-30.8c-0.9-16.1-3.4-32.1-4.4-48.2c-0.6-10.8-0.8-21.8,0.7-32.5
		c1.8-13.7,9.4-17.9,22.5-13.8c7.1,2.3,13.7,6.2,20.8,8.5c23.6,7.5,47.1,15.3,71,21.5c24.8,6.5,29.9,14.3,21.2,38.7
		c-2.1,6-4.6,12.2-8.6,17c-27.4,32.7-36.5,71.7-40.3,112.7C329.8,565,329.5,565.7,329.2,566.8z"/>
	<path fill="#0071BC" d="M273.9,630.5c-0.6-22.1-1.2-41.7-1.8-63.1c18.8,5.5,38.5,11.1,58.1,17.2c27.7,8.5,54.3,19.7,77.7,37.3
		c6.8,5.1,13.3,11.4,17.6,18.5c2.5,4.2,1.4,11.6-0.2,16.9c-0.5,1.8-7.8,2.9-11.6,2.2c-44.5-8.7-88.9-17.9-133.4-27
		C277.4,631.9,274.6,630.7,273.9,630.5z"/>
	<path fill="#0071BC" d="M246.7,563.8c-0.4,18.4-0.8,34.4-1.2,53.1c-20.1-12.4-32.9-24.7-32.5-48.1
		C223.2,567.3,233.3,565.8,246.7,563.8z"/>
	<path fill="#0071BC" d="M274.4,643.4c33.3,15.6,68,25,104.8,24.8C340.7,675.7,306.2,665.2,274.4,643.4z"/>
	<path fill="#0071BC" d="M245.7,516.8c1,2.9,3.6,6.6,2.6,8.4c-4.5,8.4,0.6,21.2-12.1,25.9c1.9-10.9,3.9-21.8,5.8-32.7
		C243.3,517.8,244.5,517.3,245.7,516.8z"/>
	<path fill="none" d="M213,568.8c-0.4,23.3,12.4,35.7,32.5,48.1c0.4-18.7,0.8-34.7,1.2-53.1C233.3,565.8,223.2,567.3,213,568.8z"/>
	<path fill="none" d="M287.9,511l-12.8,11.8c-7.2,8.7-8.9,19-9,29.2c21.8,5.1,42.2,9.9,63.1,14.8c0.3-1.2,0.6-1.9,0.7-2.6
		c3.8-41,12.9-80,40.3-112.7c4-4.7,6.5-11,8.6-17c8.7-24.4,3.6-32.2-21.2-38.7c-23.9-6.3-47.4-14.1-71-21.5
		c-7.1-2.3-13.7-6.2-20.8-8.5c-13.1-4.2-20.7,0.1-22.5,13.8c-1.4,10.7-1.3,21.7-0.7,32.5c1,16.1,3.4,32.1,4.4,48.2
		c0.6,10.4-4.1,23.1,0.4,30.8c1.6,2.8,4.4,4.9,7.8,6.7c1.3,0.6,2.3,1.1,3.1,1.3C265.6,501.5,287.9,511,287.9,511z"/>
	<path fill="none" d="M236.2,551.1c12.7-4.7,7.6-17.5,12.1-25.9c0.2-0.4,0.1-0.8,0.1-1.3c-0.8-0.5-3.3-2.4-6.5-4.7
		C240,529.8,238.1,540.4,236.2,551.1z"/>
	<path fill="none" d="M274.4,643.4c31.9,21.9,66.3,32.3,104.8,24.8C342.3,668.4,307.6,659,274.4,643.4z"/>
	<path fill="none" d="M407.8,621.9c-23.3-17.6-49.9-28.8-77.7-37.3c-19.6-6-39.3-11.6-58.1-17.2c0.6,21.4,1.2,41,1.8,63.1
		c0.7,0.2,3.5,1.4,6.4,2c44.4,9.1,88.9,18.2,133.4,27c3.8,0.7,11.1-0.4,11.6-2.2c1.6-5.3,2.8-12.6,0.2-16.9
		C421.2,633.2,414.6,627,407.8,621.9z"/>
	<path fill="#0071BC" d="M242,518.4c0,0.3-0.1,0.5-0.1,0.8c3.2,2.3,5.7,4.2,6.5,4.7c-0.2-2-1.9-4.8-2.7-7.1
		C244.5,517.3,243.3,517.8,242,518.4z"/>
	<path fill="none" d="M213,568.8c-0.4,23.3,12.4,35.7,32.5,48.1c0.4-18.7,0.8-34.7,1.2-53.1C233.3,565.8,223.2,567.3,213,568.8z"/>
	<path fill="none" d="M274.4,643.4c31.9,21.9,66.3,32.3,104.8,24.8C342.3,668.4,307.6,659,274.4,643.4z"/>
	<path fill="none" d="M407.8,621.9c-23.3-17.6-49.9-28.8-77.7-37.3c-19.6-6-39.3-11.6-58.1-17.2c0.6,21.4,1.2,41,1.8,63.1
		c0.7,0.2,3.5,1.4,6.4,2c44.4,9.1,88.9,18.2,133.4,27c3.8,0.7,11.1-0.4,11.6-2.2c1.6-5.3,2.8-12.6,0.2-16.9
		C421.2,633.2,414.6,627,407.8,621.9z"/>
	<path fill="#603813" d="M418.5,714.7c12.1-13.2,22.8-26.1,20.5-45.4c-0.1-1,0.4-2.3,1-3.1c12.8-17.9,9.3-36.4,3.9-56
		c-3.9-14.2-4.3-29.4-5.7-44.2c-0.2-2.2,1.8-5.4,3.8-6.9c-10.9,0.5-21.8-4.8-21.8-4.8c-0.5,24.2-1,47.2-1.4,67.6
		c-15.4-8.6-33.9-18.8-52.4-29c-1.6-0.9-3.3-1.7-5.1-2.4c-21.1-9-21.4-9-19.5-32.7c0.9-11.8,3.4-23.5,5.5-36.9
		c2.6-9.6,4.5-15.4,5.9-18.8c0.1-1.5,0.5-3.1,1.5-4.9c5.4-9.8,10.7-19.6,16.7-29c6.2-9.8,14.1-18.7,19.5-28.9
		c10.2-19.1,3.9-36.9-14.9-47.2c-12.4-6.8-24.3-14.6-36.5-21.9c-0.9-0.6-2.2-0.7-3.1-1.4c-7-5.2-13.6-11-21.1-15.6
		c-2.5-1.5-7.6-0.9-10.3,0.7c-6.5,3.7-9,1.3-10.2-6.8c-3.8,2.9-5.9,5.9-8.1,6c-10.4,0.4-20.9,0.5-31.3-0.3
		c-15.3-1.2-17-0.6-22.2,13.8c-6,16.7-5.4,33.8-3.8,51.2c1.9,20.4,5.4,41.1-4.4,61.4c-1.5-0.5-3-0.9-4.5-1.2
		c3.1,1.9,25,15.3,34.8,19.8c-3.3-1.8-6.1-3.9-7.8-6.7c-4.5-7.7,0.2-20.4-0.4-30.8c-0.9-16.1-3.4-32.1-4.4-48.2
		c-0.6-10.8-0.8-21.8,0.7-32.5c1.8-13.7,9.4-17.9,22.5-13.8c7.1,2.3,13.7,6.2,20.8,8.5c23.6,7.5,47.1,15.3,71,21.5
		c24.8,6.5,29.9,14.3,21.2,38.7c-2.1,6-4.6,12.2-8.6,17c-27.4,32.7-36.5,71.7-40.3,112.7c-0.1,0.7-0.4,1.4-0.7,2.6
		c-20.9-4.9-41.3-9.7-63.1-14.8c0.1-10.2,1.8-20.5,9-29.2l-2.1,2c0,0-8.9,5.1-24.4-0.7c0,0-0.1-0.1-0.2-0.2c0,0.5,0.1,0.9-0.1,1.3
		c-4.5,8.4,0.6,21.2-12.1,25.9c1.9-10.6,3.8-21.3,5.7-31.9c-5.2-3.7-12.1-8.8-17-12.3c1,1.2,1.8,2.5,1.8,3.6
		c-1,21.9-3.2,43.3-21.5,59.4c-11.7,10.2-15.4,24.3-16.2,39.5c-0.4,7.1-1.1,14.5-3.6,21c-5.1,13.7-11.8,26.8-17,40.5
		c-1.1,2.9,1.3,7.1,2.1,10.7c2.8-2.1,6.4-3.7,8.3-6.5c2.1-3,2.2-7.2,3.9-10.5c5.7-11.6,11.7-23,17.6-34.5c1.1,0.4,2.3,0.9,3.4,1.3
		c-0.5,3.5-1.2,7-1.6,10.5c-1.1,10.4-1.4,21-3.3,31.3c-2,11.2-5.4,22.2-8.4,33.2c-2.5,8.9-6.2,17.5-7.9,26.6
		c-0.8,4.5,1.6,9.5,2.5,14.3c2.8-3.9,6.9-7.4,8.2-11.7c7.2-23.3,13.3-47,20.7-70.3c7.6-23.9,19.5-28.6,41.5-16.9
		c15.7,8.3,31,17.4,48.1,27c-1.1,4.9-3.2,12.4-4.4,20.1c-0.4,2.6,1.6,5.5,2.5,8.3c2.3-1.9,5.7-3.3,6.7-5.8
		c2.9-7.1,4.9-14.6,7.1-21.5c26.8,3.6,52.8,13.8,78-4.4c6.1-4.4,16.2-2.8,20,4.6c2.8,5.4,2,13.3,0.9,19.7c-0.7,4.5-5.6,8.1-7,12.7
		c-6.7,21.9-12.7,43.9-19.6,67.9c11.4-4.4,25.4-23.3,22.7-29.4C403.9,733.7,410.6,723.3,418.5,714.7z M213,568.8
		c10.2-1.5,20.3-3,33.7-5c-0.4,18.4-0.8,34.4-1.2,53.1C225.4,604.5,212.6,592.1,213,568.8z M274.4,643.4c33.3,15.6,68,25,104.8,24.8
		C340.7,675.7,306.2,665.2,274.4,643.4z M413.6,659.4c-44.5-8.7-88.9-17.9-133.4-27c-2.9-0.6-5.6-1.7-6.4-2
		c-0.6-22.1-1.2-41.7-1.8-63.1c18.8,5.5,38.5,11.1,58.1,17.2c27.7,8.5,54.3,19.7,77.7,37.3c6.8,5.1,13.3,11.4,17.6,18.5
		c2.5,4.2,1.4,11.6-0.2,16.9C424.7,659.1,417.4,660.2,413.6,659.4z"/>
	<path fill="#42210B" d="M347.2,520.9c26.5,12.1,50.6,23.2,72.9,33.5c0,0,10.9,5.3,21.8,4.8c0,0,0.1-0.1,0.1-0.1
		c9.8-7.1,10.6-12.5,0.1-17.8c-13.3-6.8-27.6-11.6-41.7-16.8c-13.4-4.9-27-9.1-40.4-14c-4.5-1.6-7.2-4.4-7.1-8.3
		C351.7,505.5,349.8,511.3,347.2,520.9z"/>
	<g>
		<path fill="#2E3191" d="M339.3,471.2c41.3,13.1,64.4,57.5,51.3,98.8c-13.1,41.3-57.5,64.4-98.8,51.3
			c-41.3-13.1-64.4-57.5-51.3-98.8C253.6,481.1,298,458.1,339.3,471.2L339.3,471.2z"/>
		<path fill="#FFFFFF" d="M332.4,492.9c29.4,9.3,45.7,40.9,36.4,70.2c-9.3,29.4-40.9,45.8-70.2,36.4c-29.4-9.3-45.8-40.9-36.4-70.2
			C271.5,499.9,303.1,483.6,332.4,492.9L332.4,492.9z"/>
		<polygon fill="#ED3024" points="295.1,506.8 354.9,525.8 336,585.6 276.2,566.6 295.1,506.8 		"/>
		<path fill="#FFFFFF" d="M323,522.6c13,4.1,20.2,18.1,16.1,31.1c-4.1,13-18.1,20.2-31.1,16.1c-13-4.1-20.2-18.1-16.1-31.1
			C296.1,525.7,310,518.5,323,522.6L323,522.6z"/>
		<polygon fill="#2E3191" points="333.4,558.5 319.6,554.1 315.3,567.9 303.3,564.1 307.6,550.3 293.9,546 297.7,533.9 311.4,538.3 
			315.8,524.5 327.8,528.3 323.5,542.1 337.2,546.5 333.4,558.5 		"/>
		<path fill="#FFFFFF" d="M271.5,589.5l3.3,2.7l-2.8,6l5.4-3.9l3.3,2.7l-6.7,8.1l-2.1-1.7l5.1-6.2l-6.7,4.9l-1.9-1.5l3.5-7.5
			l-5.1,6.2l-2.1-1.7L271.5,589.5L271.5,589.5z M281.4,597.8L281.4,597.8l7.7,4.2l-1.1,2l-4.8-2.6l-0.8,1.5l4.5,2.4l-1,1.9l-4.5-2.4
			l-1,1.8l4.9,2.7l-1.1,2.1l-7.8-4.3L281.4,597.8L281.4,597.8z M289.2,602.4L289.2,602.4l3.4,1.2l0.7,3.7l2.8-2.4l3.3,1.2l-4.8,3.7
			l1.6,6.3l-3.4-1.2l-0.8-3.9l-3.1,2.5l-3.4-1.2l5.3-4L289.2,602.4L289.2,602.4z M300.8,606.2L300.8,606.2l3.2,0.7l-2.3,10.3
			l-3.2-0.7L300.8,606.2L300.8,606.2z M311.8,613.7L311.8,613.7l2.7,1.2c-0.3,0.8-0.7,1.4-1.1,1.9c-0.5,0.5-1,0.8-1.7,1
			c-0.6,0.2-1.4,0.2-2.4,0.1c-1.1-0.1-2-0.4-2.7-0.8c-0.7-0.4-1.2-1.1-1.7-2c-0.4-0.9-0.6-2-0.4-3.3c0.2-1.7,0.8-3,1.8-3.8
			c1-0.8,2.4-1.1,4.1-0.9c1.3,0.2,2.3,0.5,3,1.2c0.7,0.6,1.2,1.5,1.4,2.7l-2.9,0.3c-0.1-0.3-0.1-0.6-0.2-0.7
			c-0.2-0.3-0.4-0.5-0.6-0.6c-0.2-0.2-0.5-0.3-0.9-0.3c-0.7-0.1-1.3,0.1-1.8,0.7c-0.3,0.4-0.6,1.1-0.7,2c-0.1,1.2,0,2,0.3,2.5
			c0.3,0.5,0.8,0.7,1.4,0.8c0.6,0.1,1.1,0,1.5-0.4C311.3,614.8,311.6,614.4,311.8,613.7L311.8,613.7z M315.7,613.1L315.7,613.1
			c-0.1-1.7,0.2-3.1,1.1-4.1c0.9-1,2.2-1.6,3.9-1.7c1.7-0.1,3.1,0.2,4.2,1.1c1,0.9,1.6,2.1,1.7,3.8c0.1,1.2,0,2.3-0.4,3.1
			c-0.4,0.8-0.9,1.5-1.7,2c-0.7,0.5-1.7,0.8-2.9,0.9c-1.2,0.1-2.2,0-3-0.3c-0.8-0.3-1.5-0.9-2-1.6
			C316.2,615.3,315.8,614.3,315.7,613.1L315.7,613.1z M319,612.8L319,612.8c0.1,1.1,0.3,1.8,0.8,2.2c0.4,0.4,1,0.6,1.7,0.6
			c0.7-0.1,1.2-0.3,1.6-0.8c0.3-0.5,0.5-1.3,0.4-2.5c-0.1-1-0.3-1.7-0.8-2.1c-0.4-0.4-1-0.6-1.7-0.6c-0.7,0.1-1.2,0.3-1.5,0.8
			C319,611,318.9,611.8,319,612.8L319,612.8z"/>
		<path fill="#2E3191" d="M279,574.5l1.7,1.2c-0.3,0.5-0.7,1-1.1,1.3c-0.4,0.3-0.8,0.5-1.3,0.6c-0.5,0.1-1,0-1.6-0.2
			c-0.8-0.2-1.3-0.6-1.7-1c-0.4-0.4-0.7-1-0.8-1.7c-0.2-0.7-0.1-1.6,0.2-2.5c0.4-1.3,1-2.2,1.9-2.7c0.8-0.5,1.8-0.6,2.9-0.2
			c0.9,0.3,1.5,0.7,1.9,1.2c0.4,0.6,0.6,1.3,0.5,2.2l-2-0.1c0-0.3,0-0.5,0-0.6c-0.1-0.2-0.2-0.4-0.3-0.6c-0.1-0.2-0.3-0.3-0.5-0.3
			c-0.5-0.2-0.9-0.1-1.3,0.3c-0.3,0.3-0.6,0.7-0.8,1.4c-0.3,0.9-0.3,1.5-0.2,1.9c0.1,0.4,0.4,0.7,0.8,0.8c0.4,0.1,0.8,0.1,1.1-0.1
			C278.5,575.3,278.8,574.9,279,574.5L279,574.5z M280.7,578.5L280.7,578.5l2.4-7.7l3.6,1.1c0.7,0.2,1.2,0.4,1.5,0.7
			c0.3,0.2,0.5,0.6,0.6,1c0.1,0.4,0.1,0.9-0.1,1.4c-0.1,0.4-0.3,0.8-0.6,1c-0.3,0.3-0.6,0.4-0.9,0.5c-0.2,0.1-0.5,0.1-0.9,0.1
			c0.2,0.2,0.4,0.3,0.5,0.5c0.1,0.1,0.1,0.3,0.2,0.5c0.1,0.3,0.1,0.4,0.1,0.6l0.3,2.6l-2.4-0.8l-0.4-2.7c0-0.4-0.1-0.6-0.2-0.7
			c-0.1-0.2-0.3-0.3-0.5-0.3l-0.2-0.1l-1,3.1L280.7,578.5L280.7,578.5z M284.3,574.6L284.3,574.6l0.9,0.3c0.1,0,0.3,0.1,0.6,0.1
			c0.2,0,0.3,0,0.4-0.1c0.1-0.1,0.2-0.2,0.3-0.4c0.1-0.2,0.1-0.5,0-0.6c-0.1-0.2-0.3-0.3-0.7-0.5l-0.9-0.3L284.3,574.6L284.3,574.6z
			 M294.7,574.4L294.7,574.4l2.1,0.7l-1.5,4.6c-0.1,0.5-0.3,0.9-0.6,1.2c-0.3,0.4-0.6,0.7-0.9,0.9c-0.4,0.2-0.7,0.3-1.1,0.4
			c-0.5,0-1,0-1.6-0.2c-0.3-0.1-0.7-0.3-1.1-0.4c-0.4-0.2-0.7-0.4-0.9-0.6c-0.2-0.2-0.4-0.5-0.5-0.9c-0.1-0.4-0.2-0.7-0.2-1
			c0-0.5,0.1-1,0.2-1.4l1.5-4.6l2.1,0.7l-1.5,4.7c-0.1,0.4-0.1,0.8,0,1.1c0.1,0.3,0.4,0.5,0.8,0.6c0.4,0.1,0.7,0.1,1-0.1
			c0.3-0.2,0.5-0.5,0.6-0.9L294.7,574.4L294.7,574.4z M297.8,575.4L297.8,575.4l6.1,1.9l-0.5,1.5l-5.3,3.3l4,1.3l-0.5,1.7L295,583
			l0.5-1.6l5.3-3.2l-3.5-1.1L297.8,575.4L297.8,575.4z M310.5,586.5L310.5,586.5l-2.4-0.8l-0.7,1.2l-2.2-0.7l5.1-6.9l2.3,0.7
			l0.2,8.5l-2.3-0.7L310.5,586.5L310.5,586.5z M310.5,584.7L310.5,584.7l0.1-3l-1.6,2.5L310.5,584.7L310.5,584.7z M315.3,580.9
			L315.3,580.9l6.1,1.9l-0.5,1.5l-5.3,3.3l4,1.3l-0.5,1.7l-6.6-2.1l0.5-1.6l5.3-3.2l-3.5-1.1L315.3,580.9L315.3,580.9z M326.7,584.5
			L326.7,584.5l2.1,0.7l-1.5,4.6c-0.1,0.5-0.3,0.9-0.6,1.2c-0.3,0.4-0.6,0.7-0.9,0.9c-0.4,0.2-0.7,0.3-1.1,0.4c-0.5,0-1,0-1.6-0.2
			c-0.3-0.1-0.7-0.3-1.1-0.4c-0.4-0.2-0.7-0.4-0.9-0.6c-0.2-0.2-0.4-0.5-0.5-0.9c-0.1-0.4-0.2-0.7-0.2-1c0-0.5,0.1-1,0.2-1.4
			l1.5-4.6l2.1,0.7l-1.5,4.7c-0.1,0.4-0.1,0.8,0,1.1c0.1,0.3,0.4,0.5,0.8,0.6c0.4,0.1,0.7,0.1,1-0.1c0.3-0.2,0.5-0.5,0.6-0.9
			L326.7,584.5L326.7,584.5z M329.9,585.6L329.9,585.6l2.2,0.7l-1.8,5.8l3.4,1.1L333,595l-5.5-1.7L329.9,585.6L329.9,585.6z"/>
		<path fill="#2E3191" d="M298.1,497.4l3.2,1c0.6,0.2,1.1,0.5,1.4,0.8c0.3,0.3,0.6,0.7,0.7,1.1c0.1,0.4,0.2,0.9,0.2,1.4
			c0,0.5-0.1,1-0.3,1.5c-0.3,0.8-0.5,1.4-0.9,1.8c-0.3,0.4-0.7,0.7-1.1,0.9c-0.4,0.2-0.8,0.3-1.2,0.3c-0.5,0-1-0.1-1.4-0.2l-3.2-1
			L298.1,497.4L298.1,497.4z M299.7,499.8L299.7,499.8l-1.3,4.2l0.5,0.2c0.5,0.1,0.8,0.2,1,0.1c0.2-0.1,0.4-0.2,0.6-0.4
			c0.2-0.2,0.4-0.7,0.6-1.3c0.3-0.8,0.3-1.4,0.2-1.8c-0.1-0.4-0.5-0.7-1.1-0.8L299.7,499.8L299.7,499.8z M305.3,499.7L305.3,499.7
			l5.8,1.8l-0.5,1.6L307,502l-0.4,1.2l3.4,1.1l-0.5,1.6l-3.4-1.1l-0.5,1.5l3.7,1.2l-0.6,1.7l-5.9-1.9L305.3,499.7L305.3,499.7z
			 M312.1,501.8L312.1,501.8l3.6,1.1c0.8,0.2,1.3,0.6,1.6,1.2c0.3,0.5,0.3,1.2,0,1.9c-0.2,0.8-0.7,1.3-1.2,1.6
			c-0.6,0.3-1.3,0.3-2.2,0l-1.2-0.4l-0.9,2.9l-2.2-0.7L312.1,501.8L312.1,501.8z M313.2,505.8L313.2,505.8l0.5,0.2
			c0.4,0.1,0.7,0.1,1,0c0.2-0.1,0.4-0.3,0.4-0.5c0.1-0.2,0.1-0.5,0-0.7c-0.1-0.2-0.3-0.4-0.7-0.5l-0.6-0.2L313.2,505.8L313.2,505.8z
			 M317.3,507.7L317.3,507.7c0.4-1.3,1-2.1,1.9-2.6c0.9-0.5,1.9-0.6,3-0.2c1.2,0.4,2,1,2.4,1.9c0.4,0.9,0.4,2,0,3.2
			c-0.3,0.9-0.7,1.6-1.1,2.1c-0.5,0.5-1,0.8-1.6,1c-0.6,0.2-1.3,0.1-2.1-0.1c-0.8-0.2-1.4-0.6-1.8-1c-0.4-0.4-0.7-1-0.8-1.7
			C316.9,509.4,317,508.6,317.3,507.7L317.3,507.7z M319.5,508.4L319.5,508.4c-0.2,0.8-0.3,1.4-0.1,1.8c0.2,0.4,0.5,0.7,0.9,0.8
			c0.5,0.1,0.9,0.1,1.2-0.2c0.4-0.3,0.7-0.8,0.9-1.7c0.2-0.7,0.3-1.3,0.1-1.7c-0.2-0.4-0.5-0.7-0.9-0.8c-0.4-0.1-0.8-0.1-1.2,0.2
			C320,507.1,319.7,507.6,319.5,508.4L319.5,508.4z M324.2,514.1L324.2,514.1l2.4-7.7l3.6,1.1c0.7,0.2,1.2,0.4,1.5,0.7
			c0.3,0.2,0.5,0.6,0.6,1c0.1,0.4,0.1,0.9-0.1,1.4c-0.1,0.4-0.3,0.8-0.6,1c-0.3,0.3-0.6,0.4-0.9,0.5c-0.2,0.1-0.5,0.1-0.9,0.1
			c0.2,0.2,0.4,0.3,0.5,0.5c0.1,0.1,0.1,0.3,0.2,0.5c0.1,0.3,0.1,0.4,0.2,0.6l0.3,2.6l-2.4-0.8l-0.4-2.7c0-0.4-0.1-0.6-0.2-0.7
			c-0.1-0.2-0.3-0.3-0.5-0.3l-0.2-0.1l-1,3.1L324.2,514.1L324.2,514.1z M327.8,510.2L327.8,510.2l0.9,0.3c0.1,0,0.3,0.1,0.6,0.1
			c0.2,0,0.3,0,0.4-0.1c0.1-0.1,0.2-0.2,0.3-0.4c0.1-0.2,0.1-0.5,0-0.6c-0.1-0.2-0.3-0.3-0.7-0.5l-0.9-0.3L327.8,510.2L327.8,510.2z
			 M333.3,508.5L333.3,508.5l6.6,2.1l-0.6,1.9l-2.2-0.7l-1.8,5.8l-2.2-0.7l1.8-5.8l-2.2-0.7L333.3,508.5L333.3,508.5z M340.6,510.9
			L340.6,510.9l2.2,0.7l-2.4,7.7l-2.2-0.7L340.6,510.9L340.6,510.9z M343.3,511.7L343.3,511.7l2.3,0.7l-0.2,6.1l3.3-5.1l2.2,0.7
			l-5,6.9l-2.3-0.7L343.3,511.7L343.3,511.7z M349.4,517.9L349.4,517.9c0.4-1.3,1-2.1,1.9-2.6c0.9-0.5,1.9-0.6,3-0.2
			c1.2,0.4,2,1,2.4,1.9c0.4,0.9,0.4,2,0,3.2c-0.3,0.9-0.7,1.6-1.1,2.1c-0.5,0.5-1,0.8-1.6,1c-0.6,0.2-1.3,0.1-2.1-0.1
			c-0.8-0.2-1.4-0.6-1.8-1c-0.4-0.4-0.7-1-0.8-1.7C349.1,519.6,349.2,518.8,349.4,517.9L349.4,517.9z M351.6,518.6L351.6,518.6
			c-0.2,0.8-0.3,1.4-0.1,1.8c0.2,0.4,0.5,0.7,0.9,0.8c0.5,0.1,0.9,0.1,1.2-0.2c0.4-0.3,0.7-0.8,0.9-1.7c0.2-0.7,0.3-1.3,0.1-1.7
			c-0.2-0.4-0.5-0.7-0.9-0.8c-0.4-0.1-0.8-0.1-1.2,0.2C352.2,517.3,351.9,517.8,351.6,518.6L351.6,518.6z"/>
	</g>
	<path fill="#603813" d="M277.2,515.6c0,0-14.1,43-3.3,114.9c0,0-20.2,2.8-28.4-13.6c-8.2-16.4,1.8,0.9,1.8,0.9s-7.8-76.5,1.9-99.3
		L277.2,515.6z"/>
	<path fill="#42210B" d="M242.3,518.4c1.2-0.5,2.4-1.1,3.6-1.6c0.8,2.3,2.6,5.1,2.8,7.1c0.2,0.1,0.3,0.2,0.3,0.2
		c15.6,5.5,24.4,0.4,24.4,0.4l2.1-2c0.4-0.6,0.8-1.1,1.3-1.7c5.6-6.2,5.4-11.2-2.5-15.1c-5.9-2.9-13.3-4.9-19.1-7.9
		c-9.8-4.4-31.9-17.5-35-19.3c-6.7-1.2-12.9,0.1-14,7.2c-0.7,4.8,6.5,11,10.6,16.2c1.2,1.6,4.3,1.6,5.9,3c0.7,0.7,1.6,1.5,2.3,2.3
		c4.9,3.4,11.9,8.4,17.1,12.1C242.2,518.9,242.2,518.6,242.3,518.4z"/>
	<path fill="#42210B" d="M410.6,549.9c0,0-2.1-18.6,15.6-16c0,0-14.5,1-10.7,18.2L410.6,549.9z"/>
	<path fill="#FFFFFF" d="M408.5,548.9c0,0,4.3-17.5,17.7-15.1l-6-2.2c0,0-9.1,1.1-14.6,16.6L408.5,548.9z"/>
	<path fill="#FFFFFF" d="M243.5,520l5.1,3.5c0,0,0-18.3,15.8-21.4l-6.1-3C258.3,499.1,248.8,504.7,243.5,520z"/>
	<path fill="#FFFFFF" d="M219,502.7c0,0,1.3-13.8,14.6-17l-5.6-3.6c0,0-9.6,1.3-12.4,17.7L219,502.7z"/>
	
		<rect x="420.3" y="322.5" transform="matrix(0.9999 1.323078e-02 -1.323078e-02 0.9999 5.6984 -5.5403)" fill="#FFFFFF" width="2.6" height="210.8"/>
	
		<rect x="227.1" y="276.6" transform="matrix(0.9999 1.323078e-02 -1.323078e-02 0.9999 5.0744 -2.9889)" fill="#FFFFFF" width="2.6" height="210.8"/>
	
		<rect x="257.8" y="293.4" transform="matrix(0.9999 1.323078e-02 -1.323078e-02 0.9999 5.2991 -3.3936)" fill="#FFFFFF" width="2.6" height="210.8"/>
	<g>
		<path fill="#F7D10D" d="M306,83.2c-0.9,71.2-62.5,106.4-62.5,106.4s-60.6-32.1-59.6-108c0.4-33.7,28.1-60.7,61.9-60.2
			S306.5,49.5,306,83.2z"/>
		<polygon fill="#F7D10D" points="242.9,182.6 234.8,198.9 241.9,195.1 245,201.4 249,194.4 256,199.2 248.4,181.1 		"/>
	</g>
	<g>
		<path fill="#3C8D5D" d="M283.6,181.8c-0.9,67.8-59.5,101.3-59.5,101.3s-57.7-30.6-56.8-102.9c0.4-32.1,26.8-57.8,58.9-57.4
			S284,149.7,283.6,181.8z"/>
		<polygon fill="#3C8D5D" points="223.4,276.4 215.8,291.9 222.5,288.3 225.4,294.3 229.3,287.6 235.9,292.2 228.7,275 		"/>
	</g>
	<g>
		<path fill="#CA1824" d="M385.9,77.9c-0.9,66.6-58.4,99.5-58.4,99.5s-56.7-30-55.7-101c0.4-31.5,26.3-56.7,57.8-56.3
			C361.1,20.5,386.3,46.4,385.9,77.9z"/>
		<polygon fill="#CA1824" points="326.9,170.8 319.4,186 326,182.5 328.8,188.4 332.6,181.8 339.1,186.3 332,169.4 		"/>
	</g>
	<g>
		<path fill="#ED6005" d="M312.7,210.5c-0.8,60.5-53.1,90.4-53.1,90.4s-51.5-27.3-50.7-91.8c0.4-28.6,23.9-51.6,52.6-51.2
			S313,181.8,312.7,210.5z"/>
		<polygon fill="#ED6005" points="259,294.9 252.2,308.8 258.2,305.6 260.8,310.9 264.2,305 270.1,309 263.7,293.7 		"/>
	</g>
	<g>
		<path fill="#48A49E" d="M440,221.6c-0.9,64.4-56.5,96.3-56.5,96.3s-54.8-29-53.9-97.7c0.4-30.5,25.5-54.9,55.9-54.5
			C416,166,440.4,191.1,440,221.6z"/>
		<polygon fill="#48A49E" points="382.9,311.5 375.6,326.2 382,322.8 384.8,328.5 388.4,322.1 394.7,326.5 387.8,310.1 		"/>
	</g>
	<g>
		<path fill="#F7D10D" d="M475.8,243.7c-0.8,60.1-52.7,89.8-52.7,89.8s-51.2-27.1-50.3-91.2c0.4-28.5,23.8-51.2,52.2-50.9
			C453.4,191.8,476.2,215.2,475.8,243.7z"/>
		<polygon fill="#F7D10D" points="422.5,327.6 415.7,341.3 421.7,338.1 424.2,343.4 427.6,337.5 433.5,341.6 427.1,326.3 		"/>
	</g>
</g>
</svg>
