<?xml version="1.0" encoding="utf-8"?>
<!-- Generator: Adobe Illustrator 18.1.1, SVG Export Plug-In . SVG Version: 6.00 Build 0)  -->
<svg version="1.1" id="Layer_1" xmlns="http://www.w3.org/2000/svg" xmlns:xlink="http://www.w3.org/1999/xlink" x="0px" y="0px"
	 viewBox="0 0 74.3 115.5" enable-background="new 0 0 74.3 115.5" xml:space="preserve">
<path fill="#BF5200" d="M11.7,97c0,0-6-1.2-5.2,6.5s3.2,12.2,10,12s10.2-4.2,5-6s-5.5-8-5.5-8L11.7,97z"/>
<path fill="#E50200" d="M23.7,81.2c0,0,7.2,13.5-12,15.8c0,0-2.8,5.5,3.8,7c0,0,15.5-0.8,19.5-15.8l7.5-1c0,0,12.5,2,12.5,16.8
	c0,0,8,3,7.5-3s-3.2-16.2-13.2-21.8C49.2,79.2,31.4,72,23.7,81.2z"/>
<path fill="#D89F79" d="M24.1,69.2c0.7,8.9,4.7,8.5,6,7.8c1.3-0.6-0.8-5.2-0.8-5.2s0.7,2,1.7,1.5c1-0.5,0.3-2.8,0.3-2.8
	s-0.8-3.9-3.7-3.7C24.7,67,24.1,69.2,24.1,69.2z"/>
<path fill="#D89F79" d="M42.4,46.6c-2.3-2.9-16.2-1.5-20.2,13c-2.2,8.1,3.2,14.6,3.2,14.6l4.6-3.4c0,0-4.8-8,0.6-15
	S46.7,52,42.4,46.6z"/>
<path d="M32.9,44.5c0,0-6,1.8-6.5,5.2s-2.8,31.5-2.8,31.5s13.5,7.5,25.5-2c0,0-8.2-22.8-4.2-29.8C44.9,49.5,45.4,43,32.9,44.5z"/>
<path fill="#F9EB00" d="M46.4,25.8c0,0,2.1,2.9,1.1,7.2c0,0-0.2-0.8-0.5-1.2c0,0,0.4,1.5-0.2,2.9c0,0-0.6-2.2-2-2.2
	C43.4,32.5,46.4,25.8,46.4,25.8z"/>
<path fill="#F9EB00" d="M30.1,38.4c0,0-0.2-1,0.1-1.9s0.5,1.4,0.5,1.4L30.1,38.4z"/>
<path fill="#F9EB00" d="M32.7,30.7c0,0-3.1-0.4-3.8,3.6l0.8-0.3c0,0-1.4,2-0.6,4.1c0,0,0.6-1,1.1-0.9c0.4,0.1-0.2,0.5-0.2,0.5
	s-0.4,1.2,0.5,2.1c0,0,1.6-2.2,3.2-2.4C33.8,37.3,35.2,31.5,32.7,30.7z"/>
<path fill="#FFFFFF" d="M43.9,27c0,0,7-4.7,0.9-8.9s-7.7-15-7.7-15s-2.1,3.5-1.4,6.5c0,0-3,2.1-0.3,5.4c0,0-1.9,3.2,1.4,4.7
	c0,0-0.5,3.6,4.1,3.6C40.9,23.4,40.5,25.3,43.9,27z"/>
<path fill="#D89F79" d="M55.1,66.5c8.4-3,7-6.7,6.1-7.8c-0.9-1.1-4.8,2.1-4.8,2.1s1.7-1.2,1-2c-0.7-0.8-2.8,0.5-2.8,0.5
	s-3.6,1.8-2.7,4.5C52.9,66.6,55.1,66.5,55.1,66.5z"/>
<path fill="#D89F79" d="M46.2,25.7v13.1c0,3.2-3.9,2.9-5.4,2.9h0V48c0,0-4.4,2.8-8.6-1.1v-9c0,0-2.4-0.5-2.4-3.2s2.8-1.4,2.8-1.4
	v-7.6H46.2z"/>
<path fill="#F9EB00" d="M32.6,33.5l0.6,0.9h1l1.7-9.3l-4.7,0.7l-0.3,6.9C30.8,32.5,31.9,32.3,32.6,33.5z"/>
<path fill="#B6C5D4" d="M30.5,31.6l16.2-5.7c0,0-0.9-8.6-12.5-5.8c-6,2.7-4.7,11.1-4.7,11.1"/>
<path fill="#FFFFFF" d="M33.7,25.5c0,0,2.6-8.1-4.8-7.5C21.5,18.6,13.6,11,13.6,11s0.5,4,2.9,6c0,0-1.1,3.5,3.1,4.5
	c0,0,0.4,3.7,4.1,2.9c0,0,1.8,3.1,5.4,0.3C29.1,24.5,29.9,26.3,33.7,25.5z"/>
<path fill="#F9EB00" d="M42,39.3c2.1-0.8,1.9-3.2,0.2-4.4c-0.8-0.6-2.2-0.1-3.6,1.2c-2.1,1.9-5.8,1-5.8,1S35.8,41.8,42,39.3z"/>
<path fill="#F9EB00" d="M45.1,38.7c-2.1-0.8-1.9-3.2-0.2-4.4c0.8-0.6,2.2-0.1,3.6,1.2c2.1,1.9,5.8,1,5.8,1S51.2,41.2,45.1,38.7z"/>
<ellipse fill="#D89F79" cx="43.4" cy="34.9" rx="4" ry="2.9"/>
<path fill="#D89F79" d="M28.2,50.2c-2.7,2.6-0.1,16.3,14.8,19c8.2,1.5,14.2-4.5,14.2-4.5l-3.8-4.2c0,0-7.5,5.5-15,0.8
	S33.2,45.5,28.2,50.2z"/>
<path fill="#5FAC0A" d="M23.9,77.5c0,0,10,6.2,24.2-0.2l-1-3.8c0,0-11,5.2-23,0.2L23.9,77.5z"/>
<ellipse fill="#F9EB00" cx="37.3" cy="77.6" rx="2.6" ry="3.6"/>
<ellipse fill="#F9EB00" cx="46.9" cy="75.1" rx="2.2" ry="3.1"/>
<ellipse fill="#F9EB00" cx="42.9" cy="76.8" rx="3.2" ry="4.5"/>
<path fill="#BF5200" d="M54.8,103.2c0,0,14.8-9.7,18.1-5.3c3.3,4.4-0.2,6.4-0.2,6.4s-14.6,6.2-17.6,3.1
	C53.1,105.6,54.8,103.2,54.8,103.2z"/>
</svg>
