<?xml version="1.0" encoding="utf-8"?>
<!-- Generator: Adobe Illustrator 18.1.1, SVG Export Plug-In . SVG Version: 6.00 Build 0)  -->
<svg version="1.1" id="Layer_1" xmlns="http://www.w3.org/2000/svg" xmlns:xlink="http://www.w3.org/1999/xlink" x="0px" y="0px"
	 viewBox="0 0 42.9 161.7" enable-background="new 0 0 42.9 161.7" xml:space="preserve">
<g>
	<path fill="#050503" d="M21.9,153.8h5.9c0,0,2.3,7.5-5.4,7.9h-10c0,0-2.2-4.7,3.7-5.1C16.2,156.6,21.4,155.8,21.9,153.8z"/>
	<path fill="#050503" d="M34.9,147.4l1.8-5.7c0,0,7.8,0,6,7.5l-3,9.6c0,0-5.2,0.7-3.7-5.1C36,153.8,36.7,148.6,34.9,147.4z"/>
	<path fill="#050503" d="M34.9,149.3L7.5,119.7l1.4-59.4l-4.6-1.5L2.1,32.1L17.1,24c0,0,12.4-1.7,25.8,7.9l-4,29h-3l0.6,23l-1.6,0.2
		L20.1,94.6l-1.5,20.3l18,26.9L34.9,149.3z"/>
	<path fill="#050503" d="M36.5,84l-8.4,71l-6.2-1.1V87.4C21.9,87.4,35.5,82.4,36.5,84z"/>
	<path fill="#F9BD91" d="M17.5,59.5c-10,3-10.8-1.3-10.6-2.9c0.2-1.6,6-1.4,6-1.4s-2.4,0.1-2.2-1.1s3-1.5,3-1.5s4.6-0.8,5.3,2.3
		C19.7,58,17.5,59.5,17.5,59.5z"/>
	<path fill="#FFFFFF" d="M17.5,59.5h3.8c0,0,3.2-6-3.8-7l-0.6,0.3C16.9,52.8,20.4,55.7,17.5,59.5z"/>
	<path fill="#414042" d="M23.8,29.7L23.5,29l9.8-19.1l1.4,0.8l-5.6,12.9l1.6,1.7l0.4,3.3C31.1,28.6,24.9,33.4,23.8,29.7z"/>
	<path fill="#F9BD91" d="M27.4,36.8c8.1-6.6,4.9-9.7,3.5-10.4c-1.5-0.7-4.4,4.2-4.4,4.2s1.4-1.9,0.3-2.5c-1.1-0.5-2.9,1.7-2.9,1.7
		s-3.2,3.4-1.1,5.7S27.4,36.8,27.4,36.8z"/>
	<path fill="#FFFFFF" d="M15.1,25.1L17.6,39l1.5-3.2l6.5,5.2l1.9-4.2l-5.2-2.7c0,0-0.3-1.7,0.6-3c1-1.3,3.1-6.5,3.1-6.5
		S18.6,23.2,15.1,25.1z"/>
	<path fill="#F9BD91" d="M26.8,5.2l0.6,14.9l-2.3,0.1l0.2,4.9c0,0-2.3,5.1-8.8,0.4l-0.4-10.2c0,0-1.9-0.3-2-2.5s2.1-1.2,2.1-1.2
		l-0.2-5.9L26.8,5.2z"/>
	<path fill="#050503" d="M16.3,11.6l0.8,1.5l-0.4-6.5c0,0,7.4,1.5,10.4-1.5c0,0-5.1-6.5-11.5,0c0,0-2.8-0.2-0.8,6.3
		C14.8,11.5,16.2,11.3,16.3,11.6z"/>
	<path fill="#050503" d="M18.1,25.5l0.3,3.5l2.5-1.5c0,0,1.1,1,2.3,0l1.3,0.7v-2.6l-1.2,1c0,0-1.1-1.7-2.3,0L18.1,25.5z"/>
</g>
</svg>
