<?xml version="1.0" encoding="utf-8"?>
<!-- Generator: Adobe Illustrator 18.1.1, SVG Export Plug-In . SVG Version: 6.00 Build 0)  -->
<svg version="1.1" id="Layer_1" xmlns="http://www.w3.org/2000/svg" xmlns:xlink="http://www.w3.org/1999/xlink" x="0px" y="0px"
	 viewBox="0 0 762.1 524.3" enable-background="new 0 0 762.1 524.3" xml:space="preserve">
<g>
	<polygon fill="#006838" points="0,452.3 762.1,452.3 693.3,424.1 65.9,424.1 	"/>
	<rect x="143.2" y="262.9" fill="#A09E9D" width="469.7" height="132.4"/>
	<rect x="298" y="262.9" fill="#321A16" width="160.7" height="132.4"/>
	<rect x="137" y="167.8" fill="#F6F5F3" width="473.3" height="51.1"/>
	<rect x="131.8" y="158" fill="#E2E1E0" width="483.2" height="9.8"/>
	<rect x="77.4" y="218.9" fill="#D8D7D6" width="592.6" height="13.8"/>
	<rect x="87.2" y="232.7" fill="#E2E1E0" width="575.6" height="30.2"/>
	<rect x="83.3" y="262.9" fill="#D8D7D6" width="30.2" height="6.6"/>
	<rect x="86.9" y="240.9" fill="#D8D7D6" width="575.9" height="2.3"/>
	<g>
		<rect x="101.8" y="269.4" fill="#D8D7D6" width="2.5" height="125.9"/>
		<g>
			<rect x="91.9" y="269.4" fill="#D8D7D6" width="2.5" height="125.9"/>
			<rect x="94.4" y="269.4" fill="#F6F5F3" width="2.5" height="125.9"/>
			<rect x="96.9" y="269.4" fill="#D8D7D6" width="2.5" height="125.9"/>
			<rect x="99.3" y="269.4" fill="#F6F5F3" width="2.5" height="125.9"/>
			<rect x="104.2" y="269.4" fill="#F6F5F3" width="2.5" height="125.9"/>
			<rect x="106.7" y="269.4" fill="#D8D7D6" width="2.5" height="125.9"/>
		</g>
	</g>
	<rect x="129.6" y="262.9" fill="#D8D7D6" width="30.2" height="6.6"/>
	<g>
		<rect x="148.1" y="269.4" fill="#D8D7D6" width="2.5" height="125.9"/>
		<g>
			<rect x="138.2" y="269.4" fill="#D8D7D6" width="2.5" height="125.9"/>
			<rect x="140.7" y="269.4" fill="#F6F5F3" width="2.5" height="125.9"/>
			<rect x="143.2" y="269.4" fill="#D8D7D6" width="2.5" height="125.9"/>
			<rect x="145.6" y="269.4" fill="#F6F5F3" width="2.5" height="125.9"/>
			<rect x="150.5" y="269.4" fill="#F6F5F3" width="2.5" height="125.9"/>
			<rect x="153" y="269.4" fill="#D8D7D6" width="2.5" height="125.9"/>
		</g>
	</g>
	<rect x="178.6" y="262.9" fill="#D8D7D6" width="30.2" height="6.6"/>
	<g>
		<rect x="197.2" y="269.4" fill="#D8D7D6" width="2.5" height="125.9"/>
		<g>
			<rect x="187.3" y="269.4" fill="#D8D7D6" width="2.5" height="125.9"/>
			<rect x="189.8" y="269.4" fill="#F6F5F3" width="2.5" height="125.9"/>
			<rect x="192.2" y="269.4" fill="#D8D7D6" width="2.5" height="125.9"/>
			<rect x="194.7" y="269.4" fill="#F6F5F3" width="2.5" height="125.9"/>
			<rect x="199.6" y="269.4" fill="#F6F5F3" width="2.5" height="125.9"/>
			<rect x="202.1" y="269.4" fill="#D8D7D6" width="2.5" height="125.9"/>
		</g>
	</g>
	<rect x="229.8" y="262.9" fill="#D8D7D6" width="30.2" height="6.6"/>
	<g>
		<rect x="248.3" y="269.4" fill="#D8D7D6" width="2.5" height="125.9"/>
		<g>
			<rect x="238.5" y="269.4" fill="#D8D7D6" width="2.5" height="125.9"/>
			<rect x="240.9" y="269.4" fill="#F6F5F3" width="2.5" height="125.9"/>
			<rect x="243.4" y="269.4" fill="#D8D7D6" width="2.5" height="125.9"/>
			<rect x="245.8" y="269.4" fill="#F6F5F3" width="2.5" height="125.9"/>
			<rect x="250.8" y="269.4" fill="#F6F5F3" width="2.5" height="125.9"/>
			<rect x="253.2" y="269.4" fill="#D8D7D6" width="2.5" height="125.9"/>
		</g>
	</g>
	<rect x="279.4" y="262.9" fill="#D8D7D6" width="30.2" height="6.6"/>
	<g>
		<rect x="298" y="269.4" fill="#D8D7D6" width="2.5" height="125.9"/>
		<g>
			<rect x="288.1" y="269.4" fill="#D8D7D6" width="2.5" height="125.9"/>
			<rect x="290.6" y="269.4" fill="#F6F5F3" width="2.5" height="125.9"/>
			<rect x="293" y="269.4" fill="#D8D7D6" width="2.5" height="125.9"/>
			<rect x="295.5" y="269.4" fill="#F6F5F3" width="2.5" height="125.9"/>
			<rect x="300.4" y="269.4" fill="#F6F5F3" width="2.5" height="125.9"/>
			<rect x="302.9" y="269.4" fill="#D8D7D6" width="2.5" height="125.9"/>
		</g>
	</g>
	<rect x="332.5" y="262.9" fill="#D8D7D6" width="30.2" height="6.6"/>
	<g>
		<rect x="351.1" y="269.4" fill="#D8D7D6" width="2.5" height="125.9"/>
		<g>
			<rect x="341.2" y="269.4" fill="#D8D7D6" width="2.5" height="125.9"/>
			<rect x="343.7" y="269.4" fill="#F6F5F3" width="2.5" height="125.9"/>
			<rect x="346.1" y="269.4" fill="#D8D7D6" width="2.5" height="125.9"/>
			<rect x="348.6" y="269.4" fill="#F6F5F3" width="2.5" height="125.9"/>
			<rect x="353.5" y="269.4" fill="#F6F5F3" width="2.5" height="125.9"/>
			<rect x="356" y="269.4" fill="#D8D7D6" width="2.5" height="125.9"/>
		</g>
	</g>
	<rect x="387.4" y="262.9" fill="#D8D7D6" width="30.2" height="6.6"/>
	<g>
		<rect x="405.9" y="269.4" fill="#D8D7D6" width="2.5" height="125.9"/>
		<g>
			<rect x="396" y="269.4" fill="#D8D7D6" width="2.5" height="125.9"/>
			<rect x="398.5" y="269.4" fill="#F6F5F3" width="2.5" height="125.9"/>
			<rect x="401" y="269.4" fill="#D8D7D6" width="2.5" height="125.9"/>
			<rect x="403.4" y="269.4" fill="#F6F5F3" width="2.5" height="125.9"/>
			<rect x="408.3" y="269.4" fill="#F6F5F3" width="2.5" height="125.9"/>
			<rect x="410.8" y="269.4" fill="#D8D7D6" width="2.5" height="125.9"/>
		</g>
	</g>
	<rect x="440.1" y="262.9" fill="#D8D7D6" width="30.2" height="7.8"/>
	<g>
		<rect x="458.7" y="270.7" fill="#D8D7D6" width="2.5" height="125.9"/>
		<g>
			<rect x="448.8" y="270.7" fill="#D8D7D6" width="2.5" height="125.9"/>
			<rect x="451.3" y="270.7" fill="#F6F5F3" width="2.5" height="125.9"/>
			<rect x="453.7" y="270.7" fill="#D8D7D6" width="2.5" height="125.9"/>
			<rect x="456.2" y="270.7" fill="#F6F5F3" width="2.5" height="125.9"/>
			<rect x="461.1" y="270.7" fill="#F6F5F3" width="2.5" height="125.9"/>
			<rect x="463.6" y="270.7" fill="#D8D7D6" width="2.5" height="125.9"/>
		</g>
	</g>
	<rect x="489.1" y="262.9" fill="#D8D7D6" width="30.2" height="6.6"/>
	<g>
		<rect x="507.6" y="269.4" fill="#D8D7D6" width="2.5" height="125.9"/>
		<g>
			<rect x="497.7" y="269.4" fill="#D8D7D6" width="2.5" height="125.9"/>
			<rect x="500.2" y="269.4" fill="#F6F5F3" width="2.5" height="125.9"/>
			<rect x="502.7" y="269.4" fill="#D8D7D6" width="2.5" height="125.9"/>
			<rect x="505.1" y="269.4" fill="#F6F5F3" width="2.5" height="125.9"/>
			<rect x="510" y="269.4" fill="#F6F5F3" width="2.5" height="125.9"/>
			<rect x="512.5" y="269.4" fill="#D8D7D6" width="2.5" height="125.9"/>
		</g>
	</g>
	<rect x="542.2" y="262.9" fill="#D8D7D6" width="30.2" height="6.6"/>
	<g>
		<rect x="560.8" y="269.4" fill="#D8D7D6" width="2.5" height="125.9"/>
		<g>
			<rect x="550.9" y="269.4" fill="#D8D7D6" width="2.5" height="125.9"/>
			<rect x="553.4" y="269.4" fill="#F6F5F3" width="2.5" height="125.9"/>
			<rect x="555.8" y="269.4" fill="#D8D7D6" width="2.5" height="125.9"/>
			<rect x="558.3" y="269.4" fill="#F6F5F3" width="2.5" height="125.9"/>
			<rect x="563.2" y="269.4" fill="#F6F5F3" width="2.5" height="125.9"/>
			<rect x="565.7" y="269.4" fill="#D8D7D6" width="2.5" height="125.9"/>
		</g>
	</g>
	<rect x="589.4" y="262.9" fill="#D8D7D6" width="30.2" height="6.6"/>
	<g>
		<rect x="608" y="269.4" fill="#D8D7D6" width="2.5" height="125.9"/>
		<g>
			<rect x="598.1" y="269.4" fill="#D8D7D6" width="2.5" height="125.9"/>
			<rect x="600.6" y="269.4" fill="#F6F5F3" width="2.5" height="125.9"/>
			<rect x="603" y="269.4" fill="#D8D7D6" width="2.5" height="125.9"/>
			<rect x="605.5" y="269.4" fill="#F6F5F3" width="2.5" height="125.9"/>
			<rect x="610.4" y="269.4" fill="#F6F5F3" width="2.5" height="125.9"/>
			<rect x="612.9" y="269.4" fill="#D8D7D6" width="2.5" height="125.9"/>
		</g>
	</g>
	<rect x="635.7" y="262.9" fill="#D8D7D6" width="30.2" height="6.6"/>
	<g>
		<rect x="654.2" y="269.4" fill="#D8D7D6" width="2.5" height="125.9"/>
		<g>
			<rect x="644.3" y="269.4" fill="#D8D7D6" width="2.5" height="125.9"/>
			<rect x="646.8" y="269.4" fill="#F6F5F3" width="2.5" height="125.9"/>
			<rect x="649.3" y="269.4" fill="#D8D7D6" width="2.5" height="125.9"/>
			<rect x="651.7" y="269.4" fill="#F6F5F3" width="2.5" height="125.9"/>
			<rect x="656.6" y="269.4" fill="#F6F5F3" width="2.5" height="125.9"/>
			<rect x="659.1" y="269.4" fill="#D8D7D6" width="2.5" height="125.9"/>
		</g>
	</g>
	<rect x="86.9" y="395.3" fill="#F6F5F3" width="583.1" height="7.2"/>
	<rect x="80" y="402.5" fill="#E2E1E0" width="598.9" height="7.2"/>
	<rect x="74.2" y="409.7" fill="#C9C9C9" width="611.8" height="7.2"/>
	<rect x="65.9" y="416.9" fill="#AAA9A9" width="627.3" height="7.2"/>
	<rect x="285.4" y="416.9" fill="#F6F5F3" width="179.4" height="7.2"/>
	<rect x="294.3" y="409.7" fill="#E2E1E0" width="165.6" height="7.2"/>
	<rect x="300.4" y="402.5" fill="#C9C9C9" width="154.6" height="7.2"/>
	<rect x="304.2" y="395.3" fill="#AAA9A9" width="148.6" height="7.2"/>
	<rect x="0" y="452.3" fill="#9B8579" width="762.1" height="53.1"/>
	<rect x="278.3" y="424.1" fill="#9B8579" width="192" height="9.2"/>
	<rect x="278.3" y="431.7" fill="#87746B" width="192" height="9.2"/>
	<rect x="278.3" y="440.7" fill="#9B8579" width="192" height="9.2"/>
	<rect x="278.3" y="448.2" fill="#87746B" width="192" height="9.2"/>
	<rect x="279.1" y="457.7" fill="#9B8579" width="192" height="9.2"/>
	<rect x="279.1" y="465.3" fill="#87746B" width="192" height="9.2"/>
	<rect x="279.1" y="474.3" fill="#9B8579" width="192" height="9.2"/>
	<rect x="279.1" y="481.8" fill="#87746B" width="192" height="9.2"/>
	<rect x="279.1" y="491" fill="#9B8579" width="192" height="9.2"/>
	<rect x="279.1" y="498.5" fill="#87746B" width="192" height="9.2"/>
	<rect x="279.1" y="507.6" fill="#9B8579" width="192" height="9.2"/>
	<rect x="279.1" y="515.1" fill="#87746B" width="192" height="9.2"/>
	<rect x="264.9" y="428.7" fill="#5D5D5D" width="14.6" height="76.7"/>
	<rect x="470.3" y="428.7" fill="#5D5D5D" width="14.6" height="76.7"/>
</g>
<g>
	<path fill="#050503" d="M401.6,68.1L397,55.8l1.4-28.7c0,0-14.8-2.4-25.8,7.1l1.2,25.8l8.1,18.9C381.8,78.9,403.8,83.7,401.6,68.1z
		"/>
	<path fill="#050503" d="M372.5,34.1L368,58.8h16.7C384.7,58.8,382,34.8,372.5,34.1z"/>
	<path fill="#F9BD91" d="M403.7,63.6c9.6,1.7,9.9-2.4,9.6-3.9c-0.4-1.5-5.7-0.6-5.7-0.6s2.2-0.2,1.9-1.3c-0.3-1.1-3-1.1-3-1.1
		s-4.4-0.3-4.7,2.7C401.5,62.4,403.7,63.6,403.7,63.6z"/>
	<path fill="#F9BD91" d="M395.9,57.3c9.8-0.4,9.2-4.5,8.5-5.9c-0.7-1.4-5.7,0.7-5.7,0.7s2.2-0.7,1.6-1.7c-0.6-1-3.1-0.4-3.1-0.4
		s-4.3,0.7-4,3.7C393.5,56.6,395.9,57.3,395.9,57.3z"/>
	<path fill="#FFFFFF" d="M383.5,28.3l5.5,14.1l6-15.5C395.1,26.8,387.2,27,383.5,28.3z"/>
	<path fill="#F9BD91" d="M396.4,11.4L396.1,25L394,25l-0.1,4.5c0,0-2.4,4.5-8-0.2l0.2-9.3c0,0-1.7-0.4-1.7-2.4c0-2,2-1,2-1l0.1-5.4
		L396.4,11.4z"/>
	<polygon fill="#050503" points="389.3,31.2 387.1,43.8 390.5,45.1 393.2,37.5 391.7,31.2 	"/>
	<path fill="#3C2415" d="M386.6,17.1l2.2,5.2l0.4-4.3c0,0,1.3-3,7-3.2c0,0,3.8-6.7-4.2-6.8c-8-0.2-20.2,10.3-6.7,18.7l0.5,0l0.2-6.9
		c0,0-1.8-0.4-1.7-2.4C384.6,15.6,386.6,17.1,386.6,17.1z"/>
	
		<ellipse transform="matrix(0.9987 5.026217e-02 -5.026217e-02 0.9987 3.4468 -20.9254)" fill="#808285" cx="417.8" cy="58.1" rx="16" ry="5"/>
	<polygon fill="#808285" points="401.8,76.5 401.8,57.3 433.8,58.9 433.8,78.2 	"/>
	
		<ellipse transform="matrix(0.9987 5.026217e-02 -5.026217e-02 0.9987 4.4158 -20.901)" fill="#58595B" cx="417.8" cy="77.3" rx="16" ry="5"/>
	
		<ellipse transform="matrix(0.9998 -1.915965e-02 1.915965e-02 0.9998 -1.5789 6.8233)" fill="#808285" cx="355.3" cy="85.8" rx="16" ry="5"/>
	<polygon fill="#808285" points="340.6,105.4 339.3,86.1 371.3,85.5 372.7,104.7 	"/>
	
		<ellipse transform="matrix(0.9998 -1.915965e-02 1.915965e-02 0.9998 -1.9471 6.8524)" fill="#58595B" cx="356.6" cy="105" rx="16" ry="5"/>
	<circle fill="#939598" cx="389.6" cy="97.6" r="27.3"/>
	<circle fill="#FFFFFF" cx="389.6" cy="97.6" r="25.2"/>
	<ellipse transform="matrix(0.974 -0.2264 0.2264 0.974 4.1225 98.3649)" fill="#AF9C2B" cx="431" cy="31.2" rx="22.6" ry="9"/>
	<rect x="429.6" y="29.3" fill="#939598" width="1.8" height="84.9"/>
	
		<rect x="426.6" y="109.7" transform="matrix(0.9003 0.4353 -0.4353 0.9003 93.5305 -174.4323)" fill="#939598" width="1.8" height="14.4"/>
	
		<rect x="432.9" y="109.7" transform="matrix(-0.9003 0.4353 -0.4353 -0.9003 875.2476 33.3268)" fill="#939598" width="1.8" height="14.4"/>
	
		<ellipse transform="matrix(-0.974 -0.2264 0.2264 -0.974 681.0226 139.1286)" fill="#AF9C2B" cx="348.5" cy="30.5" rx="22.6" ry="9"/>
	<rect x="348" y="28.6" fill="#939598" width="1.8" height="84.9"/>
	
		<rect x="351.1" y="109" transform="matrix(-0.9003 0.4353 -0.4353 -0.9003 719.4471 67.6392)" fill="#939598" width="1.8" height="14.4"/>
	
		<rect x="344.7" y="109" transform="matrix(0.9003 0.4353 -0.4353 0.9003 85.0691 -138.8776)" fill="#939598" width="1.8" height="14.4"/>
	<g id="tu0lwb.tif_2_">
		<g>
			<path d="M372.3,88.1c0.2,0,0.4,0,0.6,0.1c1,0.1,1.6,0.6,2,1.5c0.3,0.6,0.4,1.3,0.5,2c0.1,0.8,0,1.7-0.2,2.5
				c-0.2,0.6-0.4,1.1-0.8,1.5c-0.2,0.3-0.5,0.5-0.9,0.6c0,0,0,0-0.1,0c0.2,0,0.3,0.1,0.5,0.1c0.8,0.2,1.3,0.8,1.7,1.5
				c0.3,0.6,0.4,1.1,0.4,1.7c0.1,0.9,0.1,1.8-0.1,2.7c-0.2,0.8-0.5,1.5-1.1,2.1c-0.7,0.6-1.5,1-2.4,1c-1.6,0-3.2,0-4.9,0
				c0,0,0,0-0.1,0c0.3-0.3,0.5-0.7,0.6-1.2c0.1-0.3,0.1-0.7,0.1-1c0-2.7,0-5.4,0-8.1c0-1.4,0-2.9,0-4.3c0-0.6,0-1.1-0.2-1.7
				c-0.1-0.3-0.2-0.7-0.3-1c0,0,0-0.1,0-0.1C369.2,88.1,370.8,88.1,372.3,88.1z M370.8,97c0,0,0,0.1,0,0.1c0,2,0,4,0,6
				c0,0.2,0,0.3,0,0.5c0.1,0.5,0.3,0.7,0.7,0.8c0.1,0,0.2,0,0.2,0c0.6,0,1.1-0.2,1.4-0.7c0.1-0.3,0.3-0.5,0.3-0.8
				c0.2-0.7,0.2-1.4,0.3-2.1c0-0.9-0.2-1.7-0.5-2.5c-0.2-0.4-0.4-0.8-0.8-1.1c-0.2-0.2-0.5-0.3-0.8-0.3
				C371.3,96.8,371.1,96.9,370.8,97z M373.1,92.6c0-0.8-0.1-1.4-0.2-2c-0.1-0.4-0.2-0.7-0.5-1c-0.2-0.3-0.5-0.4-0.8-0.3
				c-0.2,0-0.5,0.1-0.7,0.1c-0.1,0-0.1,0.1-0.1,0.2c0,1.7,0,3.5,0,5.2c0,0.4,0,0.4,0.4,0.5c0.5,0.1,1,0.1,1.4-0.4
				c0.2-0.2,0.3-0.5,0.4-0.7C373.1,93.5,373.2,93,373.1,92.6z"/>
			<path d="M413.1,102.1c0,0.3,0,0.5-0.1,0.8c-0.3,1.4-1.2,2.3-2.6,2.6c-0.6,0.1-1.2,0.1-1.8,0c-1-0.3-1.7-1.1-1.7-2.1
				c0-0.4,0.1-0.8,0.3-1.2c0.1-0.1,0.2-0.2,0.3-0.3c0.1,0,0.2,0,0.2,0c0,0,0,0.2,0,0.2c-0.1,0.1-0.1,0.2-0.1,0.4
				c-0.1,0.7,0.5,1.6,1.2,1.7c0.5,0.1,1.1,0.1,1.5-0.3c0.4-0.3,0.6-0.7,0.7-1.2c0.1-1-0.3-1.7-1.1-2.2c-0.5-0.3-1-0.6-1.5-0.9
				c-1.8-1.1-1.7-3.4-0.5-4.7c0.4-0.4,1-0.6,1.5-0.7c0.7-0.1,1.4,0,2,0.3c0.1,0.1,0.3,0.1,0.4,0.2c0.3,0.1,0.4,0.2,0.7-0.1
				c-0.1,0.6-0.3,1.1-0.4,1.6c0,0-0.1,0-0.1-0.1c-0.1-0.1-0.3-0.3-0.4-0.4c-0.5-0.4-1-0.5-1.6-0.4c-0.6,0.1-0.9,0.6-1,1.2
				c0,0.7,0.3,1.3,0.9,1.7c0.6,0.3,1.2,0.7,1.7,1c0.6,0.4,1.1,0.9,1.3,1.7c0.1,0.2,0.1,0.5,0.1,0.7c0,0,0,0.1,0,0.1
				C413.1,101.9,413.1,102,413.1,102.1z"/>
			<path d="M389.6,88.1c0.1,0.2,0.1,0.5,0.2,0.7c0,0,0,0.1,0,0.1c-0.2-0.3-0.5-0.4-0.9-0.3c0,0,0,0.1,0,0.1c0,0.9,0,1.8,0,2.7
				c0,0.1,0,0.3,0,0.4c0,0.2,0.1,0.4,0.3,0.5c-0.5,0-1,0-1.5,0c0-0.1,0.1-0.1,0.1-0.1c0.1-0.1,0.2-0.3,0.2-0.4c0-0.4,0-0.8,0-1.3
				c0-0.6,0-1.2,0-1.8c0,0,0-0.1,0-0.1c-0.3,0-0.7,0-0.9,0.3c0.1-0.3,0.2-0.6,0.2-0.8c0.2,0,0.3,0,0.5,0c0.5,0,0.9,0,1.4,0
				c0,0,0.1,0,0.1,0C389.5,88.1,389.5,88.1,389.6,88.1z"/>
			<path d="M395.3,94.4c0.2,0.8,0.5,1.5,0.7,2.2c0,0,0,0,0,0c-0.1-0.1-0.2-0.2-0.2-0.3c-0.4-0.5-0.9-0.7-1.5-0.6c-0.2,0-0.3,0-0.5,0
				c0,0.3,0,0.7,0,1c0,1.5,0,2.9,0,4.4c0,1.3,0,2.6,0,3.9c0,1,0.1,2,0.2,3c0,0.4,0.2,0.6,0.4,0.8c0,0,0.1,0.1,0.1,0.1
				c-1.3,0-2.6,0-3.9,0c0.1-0.1,0.2-0.2,0.3-0.3c0.2-0.2,0.3-0.4,0.3-0.6c0.1-0.7,0.1-1.3,0.2-2c0.1-3.1,0.1-6.3,0.1-9.4
				c0-0.3,0-0.6,0-0.9c-0.1,0-0.1,0-0.2,0c-0.3,0-0.6,0-0.9,0c-0.5,0.1-0.9,0.4-1.1,0.8c0,0,0,0.1-0.1,0.1c0-0.1,0.1-0.3,0.1-0.4
				c0.2-0.6,0.3-1.2,0.5-1.7c0-0.1,0-0.1,0.1-0.1C391.6,94.4,393.5,94.4,395.3,94.4C395.3,94.4,395.3,94.4,395.3,94.4z"/>
			<path d="M384,94.4c1.1,0,2.3,0,3.5,0c0,0-0.1,0-0.1,0c-0.3,0.2-0.5,0.4-0.5,0.8c0,0.4,0.1,0.7,0.1,1.1c0.3,1.7,0.7,3.5,1,5.2
				c0.2,1,0.4,2.1,0.8,3.1c0.1,0.2,0.1,0.3,0.2,0.5c0.1,0.2,0.2,0.3,0.3,0.4c-1,0-2,0-3,0c0.1-0.1,0.1-0.3,0.2-0.4
				c0-0.1,0-0.1,0-0.2c-0.1-0.6-0.1-1.3-0.2-1.9c-0.7,0-1.4,0-2.1,0c-0.1,0.8-0.4,1.6,0,2.4c-0.8,0-1.6,0-2.5,0
				c0.5-0.5,0.6-1.1,0.8-1.8c0.4-1.9,0.8-3.9,1.2-5.9c0.2-0.8,0.3-1.6,0.5-2.4c0-0.1,0-0.2,0-0.3C384.4,94.8,384.4,94.7,384,94.4z
				 M385.4,96.8C385.4,96.8,385.4,96.8,385.4,96.8c-0.3,1.4-0.5,2.8-0.7,4.2c0.5,0,1,0,1.4,0C385.9,99.6,385.6,98.2,385.4,96.8z"/>
			<path d="M376.5,105.5c0.1-0.3,0.2-0.5,0.2-0.8c0-0.5,0.1-1.1,0.1-1.6c0-2.3,0-4.6,0-6.9c0-0.4,0-0.8-0.1-1.2
				c0-0.2-0.1-0.3-0.2-0.5c0,0,0-0.1-0.1-0.1c1.8,0,3.6,0,5.4,0c-0.1,0.5-0.1,1.1-0.2,1.6c0-0.1-0.1-0.1-0.1-0.2
				c-0.1-0.2-0.3-0.3-0.5-0.3c-0.5,0-1.1,0-1.6-0.1c-0.1,0-0.2,0-0.3,0c0,1,0,2,0,3c0,0,0.1,0,0.1,0c0.5,0,0.9,0,1.4,0
				c0.2,0,0.5-0.1,0.7-0.2c0,0,0,0,0.1,0c0,0.6,0,1.2,0,1.8c-0.4-0.3-0.9-0.2-1.4-0.2c-0.3,0-0.5,0-0.8,0c0,0,0,0.1,0,0.1
				c0,1.3,0,2.6,0,3.9c0,0.1,0,0.2,0,0.2c0,0.2,0.1,0.3,0.3,0.3c0.3,0,0.7-0.1,1-0.1c0.1,0,0.2,0,0.4-0.1c0.4-0.1,0.7-0.3,1-0.5
				c0.1-0.1,0.3-0.3,0.4-0.4c-0.1,0.8-0.2,1.5-0.3,2.2C380,105.5,378.2,105.5,376.5,105.5z"/>
			<path d="M401.2,105.5c0.1-0.2,0.1-0.5,0.2-0.7c0-0.3,0.1-0.6,0.1-1c0-1.8,0-3.7,0-5.5c0-0.8,0-1.6,0-2.5c0-0.5,0-0.9-0.3-1.4
				c0,0,0,0,0,0c1.8,0,3.6,0,5.4,0c-0.1,0.5-0.1,1.1-0.2,1.6c-0.1-0.1-0.1-0.1-0.1-0.2c-0.1-0.1-0.2-0.2-0.4-0.2
				c-0.7-0.1-1.4-0.1-2.1-0.1c0,1,0,2,0,3c0,0,0,0,0,0c0.6,0,1.1,0,1.7,0c0.2,0,0.3-0.1,0.5-0.2c0,0.6,0,1.1,0,1.7
				c-0.2-0.1-0.5-0.1-0.7-0.2c-0.5,0-1,0-1.5,0c0,0.2,0,0.5,0,0.8c0,1.1,0,2.2,0,3.3c0,0,0,0.1,0,0.1c0,0.2,0.1,0.3,0.3,0.3
				c0.4,0,0.7-0.1,1.1-0.2c0.5-0.1,0.9-0.3,1.2-0.6c0.1-0.1,0.2-0.2,0.4-0.3c0,0,0,0,0,0c-0.1,0.7-0.2,1.4-0.3,2.2
				C404.7,105.5,403,105.5,401.2,105.5z"/>
			<path d="M401.1,103.1c-0.1,0.8-0.3,1.6-0.4,2.4c-1.6,0-3.1,0-4.7,0c0.1-0.2,0.1-0.4,0.2-0.6c0.1-0.5,0.1-1,0.1-1.6
				c0-2.4,0-4.8,0-7.2c0-0.3,0-0.6-0.1-0.8c0-0.3-0.1-0.5-0.2-0.8c0.9,0,1.7,0,2.6,0c0,0,0,0.1,0,0.1c-0.1,0.2-0.2,0.4-0.2,0.7
				c-0.1,2.8-0.1,5.5-0.1,8.3c0,0.1,0,0.2,0,0.3c0,0.2,0.2,0.4,0.4,0.4c0.6,0,1.2-0.2,1.7-0.6c0.2-0.1,0.3-0.3,0.5-0.5
				C401,103.1,401,103.1,401.1,103.1C401.1,103,401.1,103.1,401.1,103.1z"/>
			<path d="M392,89.6c0-0.5,0-1,0-1.5c0.3,0,0.6,0,0.9,0c-0.1,0.5-0.1,0.9-0.1,1.4c0,0.8,0,1.5,0,2.3c0,0.2,0,0.4,0.1,0.6
				c-0.3,0-0.6,0-0.9,0c0.2-0.7,0-1.5,0.1-2.2c-0.3,0-0.6,0-1,0c0,0.7-0.1,1.5,0.1,2.2c-0.3,0-0.6,0-0.9,0c0.1-1,0-2,0.1-2.9
				c0-0.4,0-0.7,0-1.1c0-0.1,0-0.1,0-0.2c0.3,0,0.6,0,0.9,0c0,0.5,0,1,0,1.5C391.4,89.6,391.7,89.6,392,89.6z"/>
			<path d="M393.4,88.2c0.7,0,1.3,0,2,0c0,0.2,0,0.4-0.1,0.6c-0.1-0.2-0.3-0.2-0.5-0.2c-0.2,0-0.3,0-0.5,0c0,0.4,0,0.8,0,1.2
				c0.3,0,0.6,0,0.9-0.1c0,0.2,0,0.4,0,0.6c-0.3,0-0.6,0-0.9-0.1c0,0.2,0,0.3,0,0.5c0,0.4,0,0.7,0,1.1c0,0.2,0,0.2,0.2,0.2
				c0.1,0,0.3,0,0.4-0.1c0.2,0,0.3-0.1,0.4-0.2c0.1-0.1,0.1-0.1,0.2-0.2c0,0.3-0.1,0.5-0.1,0.8c-0.7,0-1.4,0-2,0
				c0.1-1.2,0-2.4,0.1-3.6C393.5,88.7,393.4,88.4,393.4,88.2z"/>
		</g>
	</g>
	<path fill="#D9CD80" d="M466.9,124.1c0,1.2-2.9,2.2-6.4,2.2H320.4c-3.5,0-6.4-1-6.4-2.2l0,0c0-1.2,2.9-2.2,6.4-2.2h140.1
		C464,122,466.9,122.9,466.9,124.1L466.9,124.1z"/>
	<rect x="329.7" y="127" fill="#485345" width="123.4" height="30.4"/>
</g>
<g>
	<path fill="#050503" d="M504.3,86.4l-2.6,74.1h6.7L519,92.6l15.2,27.4l2.6,40.5h8.8l-2.1-44.9l-14.2-37.2l-0.3-48.8
		c0,0-15-5.7-35.1,4.9L504.3,86.4z"/>
	<path fill="#FFFFFF" d="M504.5,30.2l12.6,21.5l2.7-23.6C519.8,28.1,512.7,27.1,504.5,30.2z"/>
	<polygon fill="#050503" points="529.1,30.3 535.1,52.9 550.3,49.9 551.6,56.6 529.3,62.8 	"/>
	<path fill="#F9BD91" d="M553.3,54.9c9.1-3.6,7.2-7.3,6.1-8.3c-1.1-1-5.2,2.5-5.2,2.5s1.8-1.3,1-2.1c-0.9-0.8-3.1,0.7-3.1,0.7
		s-3.8,2.1-2.6,4.8C550.8,55.1,553.3,54.9,553.3,54.9z"/>
	<path fill="#050503" d="M512.5,32l1,13.5l3.7,7.1l0.9-9l-2.8-12.1C515.3,31.5,512.4,31.1,512.5,32z"/>
	<path fill="#F9BD91" d="M516,7.5l2.6,14.7l-2.2,0.4l0.9,4.8c0,0-1.6,5.4-8.6,1.5l-1.8-10c0,0-1.9,0-2.3-2.2s1.9-1.5,1.9-1.5l-1-5.8
		L516,7.5z"/>
	<path fill="#050503" d="M510.9,29.8l1.3,2.2l3.4-0.4l0.5-2.3C516.1,29.3,512.5,29.2,510.9,29.8z"/>
	<path fill="#3C2415" d="M506.5,15.2l0.3,2.6h1.9l-1.6-3.4l-0.3-3.6l1,1.2c0,0,2.2-0.9,2.4-2.3c0,0,0,1.8-0.4,2c0,0,3-1,3.3-2.4
		c0,0-0.3,1.7-0.6,1.9c0,0,1.7-0.6,2.2-1.9c0,0,0.3,0.8,0,1.5c0,0,2.1-0.6,2-3s-2.3-2.8-4.7-2.5c-2.4,0.3-12.4,1.5-7.5,10.9
		C504.5,16.1,504.8,14.8,506.5,15.2z"/>
	<path fill="#3C2415" d="M505.3,18.2c0,0-1.2,4.5,2.3,4.9l-0.7-4.2C506.8,18.9,505.8,18.9,505.3,18.2z"/>
	<path fill="#050503" d="M542.9,160.4h-3.9c0,0-1.5,4.9,3.5,5.2h6.5c0,0,1.4-3.1-2.4-3.3C546.6,162.2,543.3,161.7,542.9,160.4z"/>
	<path fill="#050503" d="M502.8,159.9h3.9c0,0,1.5,4.9-3.5,5.2h-6.5c0,0-1.4-3.1,2.4-3.3C499.1,161.7,502.5,161.1,502.8,159.9z"/>
	<g>
		<path fill="#332D2F" d="M527.3,60.2c0,0,3,7.8,9.4,9c0,0-1.1,1.8-5.4,1s-5.9,0.7-7.8,3.8s-7.8,7.2-11,8.3
			c-3.2,1.1-10.1-0.5-14.4-12.6c0,0-6.9-14.7,5.4-19c0,0,3.2-2,9.2-0.4c6,1.5,7.6,1.6,10.2-0.2c2.6-1.8,5.5-5,10.8-4
			C533.7,46,525.6,51.8,527.3,60.2z"/>
		<path fill="#BCBEC0" d="M527.9,64l-17.4,6.2c0,0-7.5,6-6.7,8c0.8,1.9,6.8,5.5,13.2,0.7C523.5,74,527.7,66.2,527.9,64z"/>
		<circle fill="#231F20" cx="509.7" cy="75.6" r="0.9"/>
		<circle fill="#231F20" cx="511.3" cy="79" r="0.9"/>
		<circle fill="#231F20" cx="513.3" cy="73.8" r="0.9"/>
		<circle fill="#231F20" cx="515.6" cy="77.5" r="0.9"/>
		
			<rect x="496" y="66.5" transform="matrix(0.335 0.9422 -0.9422 0.335 397.6055 -426.4169)" fill="none" stroke="#BCBEC0" stroke-miterlimit="10" width="9.7" height="3.9"/>
		
			<rect x="520.8" y="58.4" transform="matrix(0.335 0.9422 -0.9422 0.335 405.9845 -455.0639)" fill="#6D6E71" width="9.1" height="3.3"/>
		
			<rect x="515.9" y="60.2" transform="matrix(0.335 0.9422 -0.9422 0.335 404.3691 -449.2936)" fill="#6D6E71" width="9.1" height="3.3"/>
		
			<rect x="510.5" y="62.1" transform="matrix(0.335 0.9422 -0.9422 0.335 402.5672 -442.8574)" fill="#6D6E71" width="9.1" height="3.3"/>
		
			<rect x="544.6" y="31.8" transform="matrix(0.335 0.9422 -0.9422 0.335 413.2733 -480.2445)" fill="#73503C" width="4.5" height="41.7"/>
		<path fill="#020202" d="M565.7,43.6l1.5,4.2l4.7,0.1l12.5-4.9c0,0-2.3-4.4-6.2-5.4l-9.5,3.4L565.7,43.6z"/>
		<path fill="#FFFDFA" d="M567.1,47.4l14.7-5.2c0,0-7.5-2.4-16,1.7L567.1,47.4z"/>
	</g>
	<polygon fill="#050503" points="512.2,63.8 510.9,69.4 485,61.7 494,34.5 498.1,51.7 495.5,57.7 	"/>
	<path fill="#F9BD91" d="M512.4,70.1c9.4,2.7,10.1-1.4,9.9-2.9c-0.2-1.5-5.6-1.2-5.6-1.2s2.3,0.1,2-1.1c-0.2-1.1-2.8-1.3-2.8-1.3
		s-4.3-0.7-5,2.2C510.3,68.7,512.4,70.1,512.4,70.1z"/>
</g>
<g>
	<path fill="#050503" d="M209.5,160.9h7.6l-9.1-42.2l6.7-35.6l5.9-56.6c0,0-13.1-6.2-28.7,0v54.2v34.3l8.8,42.3l5.6-1.2l-6.8-39.9
		l2.2-27l0.2,27.9L209.5,160.9z"/>
	<path fill="#050503" d="M212.2,160.4h3.9c0,0,1.5,4.9-3.5,5.2h-6.5c0,0-1.4-3.1,2.4-3.3C208.5,162.2,211.9,161.7,212.2,160.4z"/>
	<path fill="#050503" d="M201.8,155.2h3.9c0,0,1.5,4.9-3.5,5.2h-6.5c0,0-1.4-3.1,2.4-3.3C198,157.1,201.4,156.5,201.8,155.2z"/>
	<polygon fill="#050503" points="191.8,27.5 183.9,50 163.4,49.2 164.4,58.1 186.8,58.1 194.2,40.7 	"/>
	<path fill="#FFFFFF" d="M200,24.2l3,16.9l9.5-16.9C212.5,24.2,206.6,22.5,200,24.2z"/>
	<path fill="#F9BD91" d="M163.6,56c-9.8-0.6-9.1-4.7-8.4-6c0.7-1.3,5.7,0.7,5.7,0.7s-2.1-0.7-1.6-1.7c0.6-1,3.1-0.3,3.1-0.3
		s4.3,0.8,3.9,3.7C166,55.4,163.6,56,163.6,56z"/>
	<path fill="#050503" d="M203.9,23.8l-0.6,1.7l4.3,0.5l-0.6-2.4c0,0-2.4-0.2-3,0.1"/>
	<polygon fill="#050503" points="206.7,25.8 206.7,34.5 203,41.1 202,35.5 204.3,25.6 	"/>
	<path fill="#F9BD91" d="M202.4,4.4l-1.6,14.2l2.2,0.2l-0.5,4.7c0,0,1.9,5,8.3,0.9l1.1-9.7c0,0,1.8-0.2,2.1-2.2s-1.9-1.3-1.9-1.3
		l0.6-5.6L202.4,4.4z"/>
	<path fill="#050503" d="M211.1,8.5l-0.9,4.6c0,0,1.8-2.1,3.6-1.5c0,0,0.2,0.7,0.1,1.1c0,0,1.9-1,2.4-5.5c0,0,0.7-5.8-5.6-6.9
		c-7.8-1.4-9,3.1-10,7.3l2.2-1.7l-0.5,1.5l3.1-1.2l-0.5,1.3l3.6-1.2l-1,1.5l3.8-0.8L211.1,8.5z"/>
	<path fill="#050503" d="M211.9,14.9l-0.4,3.4c0,0,5-0.7,3.5-6.7l-1.2,0C213.8,11.6,214.5,14,211.9,14.9z"/>
	<g>
		<path fill="#C67700" d="M201.9,49.5c0,0-4.6-2.1-6.5-1.3c-1.9,0.8-9.6,5.6-10.5,7.2l37.9,10c0,0,3.7-10.2-2.7-12.9
			c-6.4-2.7-9.2-2.4-9.2-2.4s-1.5,4.4-6,3.3S201.9,49.5,201.9,49.5z"/>
		<path fill="#C67700" d="M196.9,68.3c0,0-5-0.4-6.3-2c-1.3-1.6-5.6-9.6-5.6-11.4l37.9,10c0,0-1.8,10.7-8.7,9.9s-9.2-2.4-9.2-2.4
			s0.9-4.6-3.6-5.8S196.9,68.3,196.9,68.3z"/>
		<path fill="#231F20" d="M195.1,53c1.1,0.3,1.8,1.5,1.5,2.6l-1.1,4.1c-0.3,1.1-1.5,1.8-2.6,1.5l0,0c-1.1-0.3-1.8-1.5-1.5-2.6
			l1.1-4.1C192.8,53.4,193.9,52.7,195.1,53L195.1,53z"/>
		<path fill="#231F20" d="M210,57.3c1.1,0.3,1.8,1.5,1.5,2.6l-1.1,4.1c-0.3,1.1-1.5,1.8-2.6,1.5l0,0c-1.1-0.3-1.8-1.5-1.5-2.6
			l1.1-4.1C207.7,57.7,208.9,57,210,57.3L210,57.3z"/>
		
			<rect x="210.4" y="62.5" transform="matrix(0.2542 -0.9672 0.9672 0.2542 98.7293 254.3809)" fill="#231F20" width="7.8" height="1.4"/>
		<polygon fill="#512B02" points="192.5,54.6 191.3,59.1 140.8,45.3 141.9,41.3 		"/>
		
			<rect x="189.5" y="55.2" transform="matrix(0.2542 -0.9672 0.9672 0.2542 89.2261 230.3242)" fill="#231F20" width="8.8" height="4.3"/>
		
			<rect x="204.5" y="59.3" transform="matrix(0.2542 -0.9672 0.9672 0.2542 96.4362 247.8892)" fill="#231F20" width="8.8" height="4.3"/>
		<path fill="#231F20" d="M140.8,45.3l1-3.7l-1.2-1.4l-11.1-2.9c0,0,2.5,1.9,0.5,7l8.5,2.2L140.8,45.3z"/>
		<path fill="#693C05" d="M219.4,63.9c0,0,3.3-8.5-2.2-10.8c-5.6-2.3-5.4,1.9-9.2,2.1c-3.8,0.1-6.9,0.4-8.9-4.2c0,0-0.9-1.4-3.4-0.4
			c-2.5,1-5.6,3.5-5.6,3.5l-3.2-0.8c0,0,5-4.6,8.5-5.4c0,0,5.4,0.4,6.4,1.8c0,0-0.8,2.7,3.3,3.6s5.9-3.5,5.9-3.5s4.5,0.6,7.1,1.9
			c2.5,1.2,8.6,2.8,4.9,13.3L219.4,63.9z"/>
		<path fill="#693C05" d="M219.5,63.8c0,0-1.4,9.7-7.4,9s-3.7-4.5-6.9-6.6c-3.2-2.1-5.8-3.9-9.9-0.6c0,0-1.5,0.9-3.1-1.3
			c-1.6-2.2-3.1-6.1-3.1-6.1l-3.2-0.8c0,0,2,6.8,4.6,9.4c0,0,4.9,2.4,6.5,1.6c0,0,0.7-2.9,4.7-1.6c4,1.3,3.3,6.2,3.3,6.2
			s4.3,1.7,7.1,1.9c2.8,0.2,8.8,1.8,11-10L219.5,63.8z"/>
		
			<rect x="213.5" y="65.5" transform="matrix(-0.4034 -0.915 0.915 -0.4034 237.7319 295.2355)" fill="#FFFFFF" width="3.2" height="9.2"/>
		<circle fill="#231F20" cx="212.7" cy="71.2" r="1"/>
		<circle fill="#231F20" cx="216.8" cy="69.1" r="1"/>
	</g>
	<polygon fill="#050503" points="221.6,27.5 229.2,51.9 213.8,64.2 213.8,55.4 221.5,50.7 218.8,39.4 	"/>
	<path fill="#F9BD91" d="M215.7,61.8c-7.9,5.8-10,2.2-10.3,0.7c-0.3-1.5,4.9-3,4.9-3s-2.1,0.8-2.3-0.3c-0.2-1.1,2.2-2.2,2.2-2.2
		s3.8-2.1,5.4,0.4C217.1,59.7,215.7,61.8,215.7,61.8z"/>
</g>
<g>
	<path fill="#050503" d="M297.6,87.5l0,0.6l-5,72.7h-5l1.4-71.6l-8.6,27.9l1.2,41.1l-5.2,0L274,116l4.3-29.4h-2.1l1.9-56.1
		c0,0,13.9-8,30.3,2.5l-8.6,54.5H297.6z"/>
	<path fill="#FFFFFD" d="M287.9,27.7l2.9,17.3l9-16.1C299.9,29,293.3,26.7,287.9,27.7z"/>
	<path fill="#F9BD91" d="M299.9,10.9l-0.3,13.6l-2.1-0.1l-0.1,4.5c0,0-2.4,4.5-8-0.2l0.2-9.3c0,0-1.7-0.4-1.7-2.4c0-2,2-1,2-1
		l0.1-5.4L299.9,10.9z"/>
	<path fill="#050503" d="M291.5,30.2l-0.3,2.4c0,0,3.6,1.6,5.1,0l-0.2-2.4C296.1,30.2,293.8,30.7,291.5,30.2z"/>
	<polygon fill="#050503" points="295.2,33.2 294.5,38.6 290.8,45 290,40.2 292.1,32.9 	"/>
	<polygon fill="#050503" points="308.3,33.8 314.2,56.1 319.2,53.1 324.1,57 311,68.1 305.2,49.3 	"/>
	<path fill="#F9BD91" d="M321,59.1c9.3-2.9,7.7-6.8,6.7-7.9s-5.3,2.1-5.3,2.1s1.9-1.2,1.1-2c-0.8-0.8-3.1,0.4-3.1,0.4
		s-4,1.8-2.9,4.6C318.5,59,321,59.1,321,59.1z"/>
	<path fill="#050503" d="M289.7,15.9l0.6,1.5l0.3-3c0,0,3.9-0.5,5.4-2.7c0,0,1.3,2.4,3.8,3.2c0,0,4.4-7.4-4.5-9s-10.7,8.8-8.4,11.9
		c0,0,1.4,4.3-1.5,4.5c0,0,1.9,0.6,2.8-0.7c0,0-0.3,2.1-1.8,2.1c0,0,3.1,0.1,3.1-1.2v-2.9c0,0-1.4-0.4-1.6-2.1
		S289.3,15.8,289.7,15.9z"/>
	<path fill="#050503" d="M288.2,160.4h3.9c0,0,1.5,4.9-3.5,5.2H282c0,0-1.4-3.1,2.4-3.3C284.5,162.2,287.8,161.7,288.2,160.4z"/>
	<path fill="#050503" d="M277.2,158.2h3.9c0,0,1.5,4.9-3.5,5.2H271c0,0-1.4-3.1,2.4-3.3C273.5,160.1,276.8,159.5,277.2,158.2z"/>
	<g>
		<path fill="#5D2F0C" d="M269.1,70.2c0,0,5,15.4,17.6,11.7c0,0,5.9-1.6,7.8-5.6c1.9-4,3-5.8,5.4-6.4s5.7,1.2,7.8-1.2
			c2.1-2.4,1.1-3.2-0.8-4.7c0,0-4.8-6.4-5.3-12.4c0,0,0.6-3-0.4-4.5c-1-1.5-4.8-0.5-6.5,1.9c-1.7,2.4-3.9,3.5-7,1.5
			s-7.8-2.6-12.1-0.5C271.3,52.2,264.4,57.9,269.1,70.2z"/>
		
			<rect x="274.5" y="65.6" transform="matrix(0.3465 0.938 -0.938 0.3465 244.2569 -217.4707)" fill="#C6AE75" width="7.4" height="1.9"/>
		<path fill="#C6AE75" d="M268.5,68.6l6.9-4.5l2.3,6.2l-8,1.9C269.8,72.1,268.9,69.8,268.5,68.6z"/>
		<path fill="#331301" d="M337.3,47.2l3.5,0.2l7.9-2.9c0,0,0.4-4.2-2.8-6.1l-7.9,2.9l-2,2.2L337.3,47.2z"/>
		<path fill="#CECAB2" d="M303.6,59.6l-12.4,4.6l-1.8,6.4c0,0,1.1,3.4,3.8,1.9c2.7-1.5,6.1-5.8,8.7-6.6
			C304.5,65.2,305.3,61.5,303.6,59.6z"/>
		
			<rect x="295" y="57.1" transform="matrix(0.3465 0.938 -0.938 0.3465 250.5259 -241.5595)" fill="#C6AE75" width="7.4" height="3.8"/>
		
			<rect x="287.8" y="59.7" transform="matrix(0.3465 0.938 -0.938 0.3465 248.336 -233.1446)" fill="#C6AE75" width="7.4" height="3.8"/>
		
			<rect x="283.9" y="62.1" transform="matrix(0.3465 0.938 -0.938 0.3465 247.1447 -228.5673)" fill="#C6AE75" width="7.4" height="1.9"/>
		
			<rect x="316.6" y="32.8" transform="matrix(0.3465 0.938 -0.938 0.3465 256.9381 -264.8705)" fill="#54503B" width="3.9" height="38.4"/>
		<circle fill="#C6AE75" cx="286.1" cy="78.8" r="1.5"/>
		<circle fill="#C6AE75" cx="281.9" cy="78.4" r="1"/>
		<circle fill="#C6AE75" cx="277.2" cy="77.3" r="0.8"/>
	</g>
	<path fill="#050503" d="M277.7,30.5l-16.5,20.2l15.2,14.3l3.4-4.3l-7.8-9.6l5.8-8.5c0,0,7.5-11.3,0.4-12.2"/>
	<path fill="#F9BD91" d="M276.2,65.7c6.8,7,9.5,3.8,10,2.4s-4.3-3.8-4.3-3.8s1.9,1.2,2.3,0.1s-1.8-2.6-1.8-2.6s-3.4-2.7-5.4-0.5
		C275.1,63.5,276.2,65.7,276.2,65.7z"/>
</g>
</svg>
