<?xml version="1.0" encoding="utf-8"?>
<!-- Generator: Adobe Illustrator 18.1.1, SVG Export Plug-In . SVG Version: 6.00 Build 0)  -->
<svg version="1.1" id="Layer_1" xmlns="http://www.w3.org/2000/svg" xmlns:xlink="http://www.w3.org/1999/xlink" x="0px" y="0px"
	 viewBox="0 0 1390.3 794.3" enable-background="new 0 0 1390.3 794.3" xml:space="preserve">
<g>
	<g>
		<path fill="#F9BD91" d="M1238.4,336.5v60.2h-9.1v19.8c0,0-10.3,20.2-35.4,0v-41.1c0,0-7.6-1.5-7.6-10.3c0-8.8,8.8-4.6,8.8-4.6v-24
			H1238.4z"/>
		<polygon fill="#8B5E3C" points="1185.4,768.8 1183,780.6 1172.7,780.6 1172.7,768.8 		"/>
		<path fill="#231F20" d="M1172.7,780.6h10.3c0,0,4,13-9.3,13.7h-17.3c0,0-3.8-8.2,6.5-8.8C1162.8,785.6,1171.7,784,1172.7,780.6z"
			/>
		<polygon fill="#8B5E3C" points="1231.6,768.8 1234.1,780.6 1244.4,780.6 1244.4,768.8 		"/>
		<path fill="#231F20" d="M1244.4,780.6h-10.3c0,0-4,13,9.3,13.7h17.3c0,0,3.8-8.2-6.5-8.8C1254.3,785.6,1245.3,784,1244.4,780.6z"
			/>
		<path fill="#E6E7E8" d="M1206.9,378.8h30.1c0,0-5.3-9.3-15-9.3S1206.9,378.8,1206.9,378.8z"/>
		<path fill="#E6E7E8" d="M1206.9,378.8l-1.4,1.6c0,0,13.2,2.3,17.3-1.6c0,0,10.2,2,15.1,1.6l-1.2-2.1
			C1236.7,378.3,1216.1,376.4,1206.9,378.8z"/>
		<polygon fill="#C19368" points="1175.5,560 1171.4,768.8 1186.3,768.8 1215.5,597.8 1231.6,768.8 1245.9,768.8 1251.3,558.9 		"/>
		<path fill="#FFF200" d="M1155.7,418c0,0,37.3-20.9,112.4,0L1254,559.2c0,0-30.8,2.2-81.1-0.3L1155.7,418z"/>
		<polygon fill="#8B5E3C" points="1185.4,768.8 1183,780.6 1172.7,780.6 1172.7,768.8 		"/>
		<path fill="#231F20" d="M1172.7,780.6h10.3c0,0,4,13-9.3,13.7h-17.3c0,0-3.8-8.2,6.5-8.8C1162.8,785.6,1171.7,784,1172.7,780.6z"
			/>
		<polygon fill="#8B5E3C" points="1231.6,768.8 1234.1,780.6 1244.4,780.6 1244.4,768.8 		"/>
		<path fill="#231F20" d="M1244.4,780.6h-10.3c0,0-4,13,9.3,13.7h17.3c0,0,3.8-8.2-6.5-8.8C1254.3,785.6,1245.3,784,1244.4,780.6z"
			/>
		<polygon fill="#2B3990" points="1171.4,559.2 1164.4,647.6 1211.4,647.6 1214.3,613.1 1217.4,647.6 1254.3,647.6 1254,559.2 		"/>
		<polygon fill="#E6E7E8" points="1171.4,715.9 1195.3,715.9 1183.5,783.3 1171.4,783.3 		"/>
		<polygon fill="#E6E7E8" points="1247.2,717.4 1225.8,717.5 1232.4,782 1245.9,781.9 		"/>
		<path fill="#006838" d="M1193,420.1l19.3,32l19-32h21.3c0,0-5.7-14.9-26.5-16.8c-20.8-1.9-43.4-2.7-50.8,16.6L1193,420.1z"/>
		<path fill="#C19368" d="M1238.4,336.5v60.2h-9.1v19.8c0,0-10.3,20.2-35.4,0v-41.1c0,0-7.6-1.5-7.6-10.3c0-8.8,8.8-4.6,8.8-4.6v-24
			H1238.4z"/>
		<path fill="#231F20" d="M1195,360.5v3.5h3.5h1.2v-11.3c0,0,6.9-1.8,7.2-5.6c0.3-3.8,0-7.1,0-7.1h30.1l1.4,4.8
			c0,0,2.5-7.3-1.4-11.3c-3.9-3.9-46.3-6-52.1,9.6c0,0-1,20.8,1.6,24.4c0,0-1.8-7.5,3.4-7.8C1194.8,359.3,1195,360.5,1195,360.5z"/>
		<path fill="#C19368" d="M1193.8,416.5l18.5,32l16.9-32C1229.2,416.5,1213.9,397,1193.8,416.5z"/>
		<path fill="#C19368" d="M1102.2,450.7c0,0-33.1-7.3-46.4-34.6c0,0-2.8-7.9-6.5-7.6c-3.7,0.3-1.7,7.2-1.7,7.2s-3.4-16.8-8.2-16.3
			s-16.9,6.3-0.8,33c0,0,36.7,45.2,68.2,38.4C1106.8,470.8,1126.8,451.8,1102.2,450.7z"/>
		<path fill="#FFF200" d="M1156.1,417.5c0,0-17.4,26.5-48.5,31.7c0,0-3.4,18.7,5.9,23.7c0,0,38.2-6.8,53.5-24.2L1156.1,417.5z"/>
		<path fill="#006838" d="M1115.4,472.6c0,0-8.5-12.4-4-24.2l-8.2,1.4c0,0-0.2,19.8,6,23.8L1115.4,472.6z"/>
		<path fill="#C19368" d="M1326,441.9c0,0,31.5-12.7,40.1-41.8c0,0,1.4-8.3,5.1-8.6c3.7-0.3,2.9,6.9,2.9,6.9s0.6-17.1,5.4-17.4
			c4.9-0.3,17.7,3.4,6.3,32.4c0,0-28.7,50.6-60.9,49.1C1324.8,462.5,1301.9,447.1,1326,441.9z"/>
		<path fill="#FFF200" d="M1267.4,418.1c0,0,21.5,23.3,53.1,23.3c0,0,6.5,17.9-1.9,24.4c0,0-38.9-0.4-56.8-15.1L1267.4,418.1z"/>
		<path fill="#006838" d="M1316.6,465.7c0,0,6.3-13.7,0-24.5h8.3c0,0,3.4,19.5-2,24.5H1316.6z"/>
	</g>
	<g>
		<path fill="#F9BD91" d="M548.4,336.5v60.2h-9.1v19.8c0,0-10.3,20.2-35.4,0v-41.1c0,0-7.6-1.5-7.6-10.3c0-8.8,8.8-4.6,8.8-4.6v-24
			H548.4z"/>
		<polygon fill="#8B5E3C" points="495.5,768.8 493,780.6 482.7,780.6 482.7,768.8 		"/>
		<path fill="#231F20" d="M482.7,780.6H493c0,0,4,13-9.3,13.7h-17.3c0,0-3.8-8.2,6.5-8.8C472.8,785.6,481.8,784,482.7,780.6z"/>
		<polygon fill="#8B5E3C" points="541.7,768.8 544.1,780.6 554.4,780.6 554.4,768.8 		"/>
		<path fill="#231F20" d="M554.4,780.6h-10.3c0,0-4,13,9.3,13.7h17.3c0,0,3.8-8.2-6.5-8.8C564.3,785.6,555.4,784,554.4,780.6z"/>
		<path fill="#E6E7E8" d="M516.9,378.8H547c0,0-5.3-9.3-15-9.3S516.9,378.8,516.9,378.8z"/>
		<path fill="#E6E7E8" d="M516.9,378.8l-1.4,1.6c0,0,13.2,2.3,17.3-1.6c0,0,10.2,2,15.1,1.6l-1.2-2.1
			C546.7,378.3,526.2,376.4,516.9,378.8z"/>
		<polygon fill="#C19368" points="485.6,560 481.4,768.8 496.4,768.8 525.6,597.8 541.7,768.8 556,768.8 561.4,558.9 		"/>
		<path fill="#FFF200" d="M465.8,418c0,0,37.3-20.9,112.4,0L564,559.2c0,0-30.8,2.2-81.1-0.3L465.8,418z"/>
		<polygon fill="#8B5E3C" points="495.5,768.8 493,780.6 482.7,780.6 482.7,768.8 		"/>
		<path fill="#231F20" d="M482.7,780.6H493c0,0,4,13-9.3,13.7h-17.3c0,0-3.8-8.2,6.5-8.8C472.8,785.6,481.8,784,482.7,780.6z"/>
		<polygon fill="#8B5E3C" points="541.7,768.8 544.1,780.6 554.4,780.6 554.4,768.8 		"/>
		<path fill="#231F20" d="M554.4,780.6h-10.3c0,0-4,13,9.3,13.7h17.3c0,0,3.8-8.2-6.5-8.8C564.3,785.6,555.4,784,554.4,780.6z"/>
		<polygon fill="#2B3990" points="481.4,559.2 474.5,647.6 521.4,647.6 524.4,613.1 527.4,647.6 564.4,647.6 564,559.2 		"/>
		<polygon fill="#E6E7E8" points="481.4,715.9 505.4,715.9 493.6,783.3 481.4,783.3 		"/>
		<polygon fill="#E6E7E8" points="557.3,717.4 535.8,717.5 542.4,782 556,781.9 		"/>
		<path fill="#006838" d="M503,420.1l19.3,32l19-32h21.3c0,0-5.7-14.9-26.5-16.8c-20.8-1.9-43.4-2.7-50.8,16.6L503,420.1z"/>
		<path fill="#C19368" d="M548.4,336.5v60.2h-9.1v19.8c0,0-10.3,20.2-35.4,0v-41.1c0,0-7.6-1.5-7.6-10.3c0-8.8,8.8-4.6,8.8-4.6v-24
			H548.4z"/>
		<path fill="#231F20" d="M505,360.5v3.5h3.5h1.2v-11.3c0,0,6.9-1.8,7.2-5.6s0-7.1,0-7.1H547l1.4,4.8c0,0,2.5-7.3-1.4-11.3
			c-3.9-3.9-46.3-6-52.1,9.6c0,0-1,20.8,1.6,24.4c0,0-1.8-7.5,3.4-7.8C504.9,359.3,505,360.5,505,360.5z"/>
		<path fill="#C19368" d="M503.9,416.5l18.5,32l16.9-32C539.3,416.5,524,397,503.9,416.5z"/>
		<path fill="#C19368" d="M412.3,450.7c0,0-33.1-7.3-46.4-34.6c0,0-2.8-7.9-6.5-7.6c-3.7,0.3-1.7,7.2-1.7,7.2s-3.4-16.8-8.2-16.3
			s-16.9,6.3-0.8,33c0,0,36.7,45.2,68.2,38.4C416.8,470.8,436.9,451.8,412.3,450.7z"/>
		<path fill="#FFF200" d="M466.1,417.5c0,0-17.4,26.5-48.5,31.7c0,0-3.4,18.7,5.9,23.7c0,0,38.2-6.8,53.5-24.2L466.1,417.5z"/>
		<path fill="#006838" d="M425.5,472.6c0,0-8.5-12.4-4-24.2l-8.2,1.4c0,0-0.2,19.8,6,23.8L425.5,472.6z"/>
		<path fill="#C19368" d="M636,441.9c0,0,31.5-12.7,40.1-41.8c0,0,1.4-8.3,5.1-8.6s2.9,6.9,2.9,6.9s0.6-17.1,5.4-17.4
			c4.9-0.3,17.7,3.4,6.3,32.4c0,0-28.7,50.6-60.9,49.1C634.9,462.5,611.9,447.1,636,441.9z"/>
		<path fill="#FFF200" d="M577.4,418.1c0,0,21.5,23.3,53.1,23.3c0,0,6.5,17.9-1.9,24.4c0,0-38.9-0.4-56.8-15.1L577.4,418.1z"/>
		<path fill="#006838" d="M626.7,465.7c0,0,6.3-13.7,0-24.5h8.3c0,0,3.4,19.5-2,24.5H626.7z"/>
	</g>
	<g>
		<path fill="#F9BD91" d="M831.8,336.5v60.2h9.1v19.8c0,0,10.3,20.2,35.4,0v-41.1c0,0,7.6-1.5,7.6-10.3c0-8.8-8.8-4.6-8.8-4.6v-24
			H831.8z"/>
		<polygon fill="#8B5E3C" points="829.4,768.8 827,780.6 816.7,780.6 816.7,768.8 		"/>
		<path fill="#231F20" d="M816.7,780.6H827c0,0,4,13-9.3,13.7h-17.3c0,0-3.8-8.2,6.5-8.8C806.8,785.6,815.7,784,816.7,780.6z"/>
		<polygon fill="#8B5E3C" points="875.6,768.8 878.1,780.6 888.4,780.6 888.4,768.8 		"/>
		<path fill="#231F20" d="M888.4,780.6h-10.3c0,0-4,13,9.3,13.7h17.3c0,0,3.8-8.2-6.5-8.8C898.3,785.6,889.3,784,888.4,780.6z"/>
		<path fill="#E6E7E8" d="M863.3,378.8h-30.1c0,0,5.3-9.3,15-9.3S863.3,378.8,863.3,378.8z"/>
		<polygon fill="#F9BD91" points="819.5,560 815.4,768.8 830.3,768.8 859.5,597.8 875.6,768.8 889.9,768.8 895.3,558.9 		"/>
		<path fill="#FFF200" d="M799.7,418c0,0,37.3-20.9,112.4,0L898,559.2c0,0-30.8,2.2-81.1-0.3L799.7,418z"/>
		<polygon fill="#8B5E3C" points="829.4,768.8 827,780.6 816.7,780.6 816.7,768.8 		"/>
		<path fill="#231F20" d="M816.7,780.6H827c0,0,4,13-9.3,13.7h-17.3c0,0-3.8-8.2,6.5-8.8C806.8,785.6,815.7,784,816.7,780.6z"/>
		<polygon fill="#8B5E3C" points="875.6,768.8 878.1,780.6 888.4,780.6 888.4,768.8 		"/>
		<path fill="#231F20" d="M888.4,780.6h-10.3c0,0-4,13,9.3,13.7h17.3c0,0,3.8-8.2-6.5-8.8C898.3,785.6,889.3,784,888.4,780.6z"/>
		<polygon fill="#2B3990" points="815.4,559.2 808.4,647.6 855.3,647.6 858.3,613.1 861.4,647.6 898.3,647.6 898,559.2 		"/>
		<polygon fill="#E6E7E8" points="815.4,715.9 839.3,715.9 827.5,783.3 815.4,783.3 		"/>
		<polygon fill="#E6E7E8" points="891.2,717.4 869.8,717.5 876.4,782 889.9,781.9 		"/>
		<path fill="#006838" d="M837,420.1l19.3,32l19-32h21.3c0,0-5.7-14.9-26.5-16.8c-20.8-1.9-43.4-2.7-50.8,16.6L837,420.1z"/>
		<path fill="#F9BD91" d="M831.8,336.5v60.2h9.1v19.8c0,0,10.3,20.2,35.4,0v-41.1c0,0,7.6-1.5,7.6-10.3c0-8.8-8.8-4.6-8.8-4.6v-24
			H831.8z"/>
		<path fill="#F9BD91" d="M837.8,416.5l18.5,32l16.9-32C873.2,416.5,857.9,397,837.8,416.5z"/>
		<path fill="#F9BD91" d="M746.2,450.7c0,0-33.1-7.3-46.4-34.6c0,0-2.8-7.9-6.5-7.6c-3.7,0.3-1.7,7.2-1.7,7.2s-3.4-16.8-8.2-16.3
			s-16.9,6.3-0.8,33c0,0,36.7,45.2,68.2,38.4C750.8,470.8,770.8,451.8,746.2,450.7z"/>
		<path fill="#FFF200" d="M800.1,417.5c0,0-17.4,26.5-48.5,31.7c0,0-3.4,18.7,5.9,23.7c0,0,38.2-6.8,53.5-24.2L800.1,417.5z"/>
		<path fill="#006838" d="M759.4,472.6c0,0-8.5-12.4-4-24.2l-8.2,1.4c0,0-0.2,19.8,6,23.8L759.4,472.6z"/>
		<path fill="#F9BD91" d="M957.3,290.4c0.7-34.4-14-33.2-18.9-31c-4.9,2.2,1.1,20.1,1.1,20.1s-1.8-7.7-5.6-6c-3.7,1.7-2,10.9-2,10.9
			s1.6,15.3,12,14.8C954.4,298.7,957.3,290.4,957.3,290.4z"/>
		<polygon fill="#FFF200" points="896.6,419 929.9,376.8 954.3,389.6 899.1,461.1 902.2,434 		"/>
		<polygon fill="#F9BD91" points="929.9,376.8 944.1,357.4 939.8,298.4 954.5,294.6 964.3,365.4 951.7,388.8 		"/>
		<polygon fill="#006838" points="929.9,376.8 926.7,380.8 949.9,395.3 957,388.6 931.8,374.2 		"/>
		<path fill="#603913" d="M870.9,343.8v25.6l3.7-0.3l0.6-8.7l3.1-0.9v-29.7c0,0-29.1-28.4-46.6,6.6c0,0-7.2,4.5-6,5.2
			c1.1,0.7,24.9-5.2,24.9-5.2l-5.4,5.2l26-3.6L870.9,343.8z"/>
	</g>
	<g>
		<path fill="#F9BD91" d="M1050.1,336.5v60.2h-9.1v19.8c0,0-10.3,20.2-35.4,0v-41.1c0,0-7.6-1.5-7.6-10.3c0-8.8,8.8-4.6,8.8-4.6v-24
			H1050.1z"/>
		<polygon fill="#8B5E3C" points="1052.4,768.8 1054.9,780.6 1065.2,780.6 1065.2,768.8 		"/>
		<path fill="#231F20" d="M1065.2,780.6h-10.3c0,0-4,13,9.3,13.7h17.3c0,0,3.8-8.2-6.5-8.8C1075.1,785.6,1066.1,784,1065.2,780.6z"
			/>
		<polygon fill="#8B5E3C" points="1006.3,768.8 1003.8,780.6 993.5,780.6 993.5,768.8 		"/>
		<path fill="#231F20" d="M993.5,780.6h10.3c0,0,4,13-9.3,13.7h-17.3c0,0-3.8-8.2,6.5-8.8C983.6,785.6,992.5,784,993.5,780.6z"/>
		<path fill="#E6E7E8" d="M1018.6,378.8h30.1c0,0-5.3-9.3-15-9.3S1018.6,378.8,1018.6,378.8z"/>
		<polygon fill="#F9BD91" points="1062.3,560 1066.5,768.8 1051.6,768.8 1022.3,597.8 1006.3,768.8 991.9,768.8 986.5,558.9 		"/>
		<path fill="#FFF200" d="M1082.1,418c0,0-37.3-20.9-112.4,0l14.1,141.2c0,0,30.8,2.2,81.1-0.3L1082.1,418z"/>
		<polygon fill="#8B5E3C" points="1052.4,768.8 1054.9,780.6 1065.2,780.6 1065.2,768.8 		"/>
		<path fill="#231F20" d="M1065.2,780.6h-10.3c0,0-4,13,9.3,13.7h17.3c0,0,3.8-8.2-6.5-8.8C1075.1,785.6,1066.1,784,1065.2,780.6z"
			/>
		<polygon fill="#8B5E3C" points="1006.3,768.8 1003.8,780.6 993.5,780.6 993.5,768.8 		"/>
		<path fill="#231F20" d="M993.5,780.6h10.3c0,0,4,13-9.3,13.7h-17.3c0,0-3.8-8.2,6.5-8.8C983.6,785.6,992.5,784,993.5,780.6z"/>
		<polygon fill="#2B3990" points="1066.5,559.2 1073.4,647.6 1026.5,647.6 1023.5,613.1 1020.5,647.6 983.5,647.6 983.9,559.2 		"/>
		<polygon fill="#E6E7E8" points="1066.5,715.9 1042.5,715.9 1054.3,783.3 1066.5,783.3 		"/>
		<polygon fill="#E6E7E8" points="990.6,717.4 1012.1,717.5 1005.5,782 991.9,781.9 		"/>
		<path fill="#006838" d="M1044.9,420.1l-19.3,32l-19-32h-21.3c0,0,5.7-14.9,26.5-16.8c20.8-1.9,43.4-2.7,50.8,16.6L1044.9,420.1z"
			/>
		<path fill="#F9BD91" d="M1050.1,336.5v60.2h-9.1v19.8c0,0-10.3,20.2-35.4,0v-41.1c0,0-7.6-1.5-7.6-10.3c0-8.8,8.8-4.6,8.8-4.6v-24
			H1050.1z"/>
		<path fill="#F9BD91" d="M1044,416.5l-18.5,32l-16.9-32C1008.6,416.5,1023.9,397,1044,416.5z"/>
		<path fill="#F9BD91" d="M1135.6,450.7c0,0,33.1-7.3,46.4-34.6c0,0,2.8-7.9,6.5-7.6c3.7,0.3,1.7,7.2,1.7,7.2s3.4-16.8,8.2-16.3
			c4.8,0.5,16.9,6.3,0.8,33c0,0-36.7,45.2-68.2,38.4C1131.1,470.8,1111,451.8,1135.6,450.7z"/>
		<path fill="#FFF200" d="M1081.8,417.5c0,0,17.4,26.5,48.5,31.7c0,0,3.4,18.7-5.9,23.7c0,0-38.2-6.8-53.5-24.2L1081.8,417.5z"/>
		<path fill="#006838" d="M1122.4,472.6c0,0,8.5-12.4,4-24.2l8.2,1.4c0,0,0.2,19.8-6,23.8L1122.4,472.6z"/>
		<path fill="#F9BD91" d="M924.5,290.4c-0.7-34.4,14-33.2,18.9-31c4.9,2.2-1.1,20.1-1.1,20.1s1.8-7.7,5.6-6c3.7,1.7,2,10.9,2,10.9
			s-1.6,15.3-12,14.8C927.4,298.7,924.5,290.4,924.5,290.4z"/>
		<polygon fill="#FFF200" points="985.3,419 952,376.8 927.6,389.6 982.7,461.1 979.7,434 		"/>
		<polygon fill="#F9BD91" points="952,376.8 937.8,357.4 942,298.4 927.3,294.6 917.5,365.4 930.1,388.8 		"/>
		<polygon fill="#006838" points="952,376.8 955.1,380.8 932,395.3 924.9,388.6 950.1,374.2 		"/>
		<path fill="#231F20" d="M1006.7,360.5l5.4,3.3v-25.2c0,0,29.2,13.7,42.4,3.1c0,0,0.2-24.3-39.4-15.9
			c-39.6,8.4-16.3,35.6-16.3,35.6L1006.7,360.5z"/>
	</g>
	<g>
		<path fill="#F9BD91" d="M342.6,336.5v60.2h-9.1v19.8c0,0-10.3,20.2-35.4,0v-41.1c0,0-7.6-1.5-7.6-10.3c0-8.8,8.8-4.6,8.8-4.6v-24
			H342.6z"/>
		<polygon fill="#8B5E3C" points="289.7,768.8 287.2,780.6 276.9,780.6 276.9,768.8 		"/>
		<path fill="#231F20" d="M276.9,780.6h10.3c0,0,4,13-9.3,13.7h-17.3c0,0-3.8-8.2,6.5-8.8C267,785.6,276,784,276.9,780.6z"/>
		<polygon fill="#8B5E3C" points="335.9,768.8 338.3,780.6 348.6,780.6 348.6,768.8 		"/>
		<path fill="#231F20" d="M348.6,780.6h-10.3c0,0-4,13,9.3,13.7H365c0,0,3.8-8.2-6.5-8.8C358.5,785.6,349.6,784,348.6,780.6z"/>
		<path fill="#E6E7E8" d="M311.1,378.8h30.1c0,0-5.3-9.3-15-9.3S311.1,378.8,311.1,378.8z"/>
		<path fill="#E6E7E8" d="M311.1,378.8l-1.4,1.6c0,0,13.2,2.3,17.3-1.6c0,0,10.2,2,15.1,1.6l-1.2-2.1
			C340.9,378.3,320.4,376.4,311.1,378.8z"/>
		<polygon fill="#936845" points="279.8,560 275.6,768.8 290.6,768.8 319.8,597.8 335.9,768.8 350.2,768.8 355.6,558.9 		"/>
		<path fill="#FFF200" d="M260,418c0,0,37.3-20.9,112.4,0l-14.1,141.2c0,0-30.8,2.2-81.1-0.3L260,418z"/>
		<polygon fill="#8B5E3C" points="289.7,768.8 287.2,780.6 276.9,780.6 276.9,768.8 		"/>
		<path fill="#231F20" d="M276.9,780.6h10.3c0,0,4,13-9.3,13.7h-17.3c0,0-3.8-8.2,6.5-8.8C267,785.6,276,784,276.9,780.6z"/>
		<polygon fill="#8B5E3C" points="335.9,768.8 338.3,780.6 348.6,780.6 348.6,768.8 		"/>
		<path fill="#231F20" d="M348.6,780.6h-10.3c0,0-4,13,9.3,13.7H365c0,0,3.8-8.2-6.5-8.8C358.5,785.6,349.6,784,348.6,780.6z"/>
		<polygon fill="#2B3990" points="275.6,559.2 268.7,647.6 315.6,647.6 318.6,613.1 321.6,647.6 358.6,647.6 358.2,559.2 		"/>
		<polygon fill="#E6E7E8" points="275.6,715.9 299.6,715.9 287.8,783.3 275.6,783.3 		"/>
		<polygon fill="#E6E7E8" points="351.5,717.4 330,717.5 336.6,782 350.2,781.9 		"/>
		<path fill="#006838" d="M297.2,420.1l19.3,32l19-32h21.3c0,0-5.7-14.9-26.5-16.8c-20.8-1.9-43.4-2.7-50.8,16.6L297.2,420.1z"/>
		<path fill="#936845" d="M342.6,336.5v60.2h-9.1v19.8c0,0-10.3,20.2-35.4,0v-41.1c0,0-7.6-1.5-7.6-10.3c0-8.8,8.8-4.6,8.8-4.6v-24
			H342.6z"/>
		<path fill="#936845" d="M298.1,416.5l18.5,32l16.9-32C333.5,416.5,318.2,397,298.1,416.5z"/>
		<path fill="#936845" d="M206.5,450.7c0,0-33.1-7.3-46.4-34.6c0,0-2.8-7.9-6.5-7.6c-3.7,0.3-1.7,7.2-1.7,7.2s-3.4-16.8-8.2-16.3
			s-16.9,6.3-0.8,33c0,0,36.7,45.2,68.2,38.4C211,470.8,231.1,451.8,206.5,450.7z"/>
		<path fill="#FFF200" d="M260.3,417.5c0,0-17.4,26.5-48.5,31.7c0,0-3.4,18.7,5.9,23.7c0,0,38.2-6.8,53.5-24.2L260.3,417.5z"/>
		<path fill="#006838" d="M219.7,472.6c0,0-8.5-12.4-4-24.2l-8.2,1.4c0,0-0.2,19.8,6,23.8L219.7,472.6z"/>
		<path fill="#936845" d="M430.2,441.9c0,0,31.5-12.7,40.1-41.8c0,0,1.4-8.3,5.1-8.6c3.7-0.3,2.9,6.9,2.9,6.9s0.6-17.1,5.4-17.4
			c4.9-0.3,17.7,3.4,6.3,32.4c0,0-28.7,50.6-60.9,49.1C429.1,462.5,406.1,447.1,430.2,441.9z"/>
		<path fill="#FFF200" d="M371.6,418.1c0,0,21.5,23.3,53.1,23.3c0,0,6.5,17.9-1.9,24.4c0,0-38.9-0.4-56.8-15.1L371.6,418.1z"/>
		<path fill="#006838" d="M420.8,465.7c0,0,6.3-13.7,0-24.5h8.3c0,0,3.4,19.5-2,24.5H420.8z"/>
		<path fill="#936845" d="M299.2,360.5l3-18.9l40.5-2.1c0,0,3.1-14.5-24.5-14.3c-27.6,0.2-22.5,34.4-22.5,34.4"/>
	</g>
	<g>
		<polygon fill="#FFF200" points="648.2,376.6 627.2,321.3 597.4,326.5 631.5,419.9 637.3,390.5 		"/>
		<polygon fill="#A97C50" points="627.2,321.3 618.8,296.2 642.9,235.7 628.7,226.8 594.9,297.8 600.4,326.5 		"/>
		<polygon fill="#006838" points="627.2,321.3 629.2,326.5 600.2,334 594.9,324.7 626.1,317.9 		"/>
		<path fill="#A97C50" d="M736.4,219.4c-10.7-36.3-25.7-30.2-30.1-26.3s7.8,20.7,7.8,20.7s-4.5-7.5-7.8-4.4s1.5,12.1,1.5,12.1
			s6.7,15.5,17.5,11.6C736.2,229.1,736.4,219.4,736.4,219.4z"/>
		<polygon fill="#FFF200" points="715.5,374.5 736.4,319.2 766.3,324.4 732.2,417.8 726.4,388.4 		"/>
		<polygon fill="#A97C50" points="736.4,319.2 744.9,294.1 720.8,233.6 735,224.7 768.8,295.7 763.3,324.4 		"/>
		<polygon fill="#006838" points="736.4,319.2 734.5,324.4 763.5,331.9 768.8,322.6 737.6,315.8 		"/>
		<path fill="#F9BD91" d="M708.3,290.5v66.2h-10.1v21.8c0,0-11.3,22.2-39,0v-45.3c0,0-8.4-1.7-8.4-11.3c0-9.6,9.6-5,9.6-5v-26.4
			H708.3z"/>
		<polygon fill="#8B5E3C" points="650,766.2 647.3,779.2 636,779.2 636,766.2 		"/>
		<path fill="#231F20" d="M636,779.2h11.3c0,0,4.4,14.3-10.3,15.1H618c0,0-4.2-9,7.1-9.6C625.1,784.7,634.9,783,636,779.2z"/>
		<polygon fill="#8B5E3C" points="700.8,766.2 703.5,779.2 714.9,779.2 714.9,766.2 		"/>
		<path fill="#231F20" d="M714.9,779.2h-11.3c0,0-4.4,14.3,10.3,15.1h19.1c0,0,4.2-9-7.1-9.6C725.8,784.7,715.9,783,714.9,779.2z"/>
		<path fill="#E6E7E8" d="M673.6,337h33.1c0,0-5.9-10.2-16.6-10.2S673.6,337,673.6,337z"/>
		<path fill="#E6E7E8" d="M673.6,337l-1.6,1.8c0,0,14.6,2.5,19.1-1.8c0,0,11.2,2.2,16.7,1.8l-1.4-2.3
			C706.4,336.5,683.8,334.4,673.6,337z"/>
		<polygon fill="#A97C50" points="639.1,536.5 634.6,766.2 651,766.2 683.1,578 700.8,766.2 716.6,766.2 722.5,535.3 		"/>
		<path fill="#FFF200" d="M617.3,380.2c0,0,41.1-23.1,123.6,0l-15.5,155.4c0,0-33.9,2.4-89.2-0.3L617.3,380.2z"/>
		<polygon fill="#8B5E3C" points="650,766.2 647.3,779.2 636,779.2 636,766.2 		"/>
		<path fill="#231F20" d="M636,779.2h11.3c0,0,4.4,14.3-10.3,15.1H618c0,0-4.2-9,7.1-9.6C625.1,784.7,634.9,783,636,779.2z"/>
		<polygon fill="#8B5E3C" points="700.8,766.2 703.5,779.2 714.9,779.2 714.9,766.2 		"/>
		<path fill="#231F20" d="M714.9,779.2h-11.3c0,0-4.4,14.3,10.3,15.1h19.1c0,0,4.2-9-7.1-9.6C725.8,784.7,715.9,783,714.9,779.2z"/>
		<polygon fill="#2B3990" points="634.6,535.6 626.9,632.9 678.5,632.9 681.8,594.9 685.2,632.9 725.8,632.9 725.4,535.6 		"/>
		<polygon fill="#E6E7E8" points="634.6,708 660.9,708 647.9,782.2 634.6,782.2 		"/>
		<polygon fill="#E6E7E8" points="718,709.7 694.4,709.8 701.7,780.8 716.6,780.7 		"/>
		<path fill="#006838" d="M658.3,382.6l21.3,35.2l20.9-35.2h23.5c0,0-6.3-16.3-29.1-18.4c-22.8-2.1-47.8-2.9-56,18.2L658.3,382.6z"
			/>
		<path fill="#A97C50" d="M708.3,290.5v66.2h-10.1v21.8c0,0-11.3,22.2-39,0v-45.3c0,0-8.4-1.7-8.4-11.3c0-9.6,9.6-5,9.6-5v-26.4
			H708.3z"/>
		<path fill="#231F20" d="M660.5,316.9v3.9h3.8h1.4v-12.5c0,0,7.6-2,7.9-6.2c0.4-4.2,0-7.9,0-7.9h33.1l1.6,5.2
			c0,0,6.2-16.3,1.9-20.6s-54.5,1.6-60.9,18.8c0,0-1.1,22.9,1.7,26.8c0,0-2-8.3,3.8-8.6C660.3,315.6,660.5,316.9,660.5,316.9z"/>
		<path fill="#A97C50" d="M659.2,378.5l20.3,35.3l18.7-35.3C698.2,378.5,681.4,357.1,659.2,378.5z"/>
		<g>
			<path fill="#006838" d="M665.9,428.4h-2.1V428l5.2-4.1h1v23.4v0c0,0.3,0.1,0.6,0.1,1.1c0.1,0.5,0.2,0.9,0.3,1.3
				c0,0.1,0.1,0.2,0.1,0.3c0.1,0.2,0.1,0.3,0.1,0.3c0,0.1,0,0.1,0.1,0.1h-5.7c0.1-0.1,0.1-0.3,0.2-0.6c0.1-0.3,0.2-0.5,0.2-0.6
				c0.1-0.4,0.2-0.8,0.2-1.1c0-0.4,0.1-0.6,0.1-0.8V428.4z"/>
			<path fill="#006838" d="M698.8,436.4c0,0.1,0,0.3,0,0.4c0,0.1,0,0.3,0,0.4c0,2.3-0.6,4.5-1.7,6.5c-1.1,2-2.7,3.7-4.6,4.9
				c-2,1.2-4.1,1.9-6.5,1.9c-1.8,0-3.6-0.4-5.2-1.1s-3-1.7-4.2-3s-2.1-2.8-2.8-4.5s-1-3.5-1-5.3c0.1-1.8,0.4-3.5,1.1-5
				c0.6-1.5,1.5-2.9,2.6-4s2.4-2.1,3.9-2.7c1.5-0.7,3.1-1,4.8-1.2c0.2,0,0.5,0,0.9,0c1.8,0,3.5,0.3,5,1c1.5,0.7,2.8,1.6,3.9,2.8
				c1.1,1.2,2,2.5,2.6,4.1C698.4,433,698.7,434.7,698.8,436.4z M676.8,436.8c0,1.9,0.5,3.6,1.5,5.3c1,1.7,2.3,3,3.9,4
				c1.6,1,3.3,1.5,5.2,1.5c1.2-0.1,2.3-0.4,3.2-1c0.9-0.6,1.7-1.3,2.4-2.2c0.6-0.9,1.1-1.9,1.4-3c0.3-1.1,0.5-2.3,0.5-3.5
				c0-0.6-0.1-1.3-0.2-2.1c-0.2-1.3-0.6-2.6-1.2-3.7s-1.4-2.1-2.3-3s-1.9-1.5-3-1.9c-1.1-0.4-2.1-0.7-3.2-0.7
				c-0.6,0-1.2,0.1-1.7,0.2c-1.4,0.3-2.5,1-3.5,2s-1.7,2.2-2.1,3.6C677,433.7,676.8,435.2,676.8,436.8z"/>
		</g>
		<path fill="#A97C50" d="M622.2,221.5c10.7-36.3,25.7-30.2,30.1-26.3c4.4,3.9-7.8,20.7-7.8,20.7s4.5-7.5,7.8-4.4
			c3.3,3.1-1.5,12.1-1.5,12.1s-6.7,15.5-17.5,11.6C622.5,231.2,622.2,221.5,622.2,221.5z"/>
		<g>
			<polygon fill="#000407" points="643.2,238 655,245.6 699.4,245.6 711,240.2 711,166.6 708.1,163.7 707.8,161 687.6,154.7 
				651.8,160.2 651.6,161.7 648.1,163.1 643.9,177.5 			"/>
			<path fill="#BF8732" d="M657.9,162.7c0,0,25.4,17,43.2,0C701.1,162.7,679.4,121.7,657.9,162.7z"/>
			<ellipse fill="#BF8732" cx="683" cy="12.3" rx="38.6" ry="11.1"/>
			<ellipse fill="#1E120D" cx="683" cy="14" rx="38.6" ry="11.1"/>
			<path fill="#A35A2F" d="M649.2,29.9L645,0c0,0-13.8,22.2-6.7,58s33.7,51.4,33.7,51.4h9.1V47c0,0-24.9-8-26.4-8.7
				C653.3,37.7,649.2,29.9,649.2,29.9z"/>
			<path fill="#A35A2F" d="M713.5,31.1l4.2-29.9c0,0,13.8,22.2,6.7,58s-33.7,51.4-33.7,51.4h-9.1V48.2c0,0,24.9-8,26.4-8.7
				S713.5,31.1,713.5,31.1z"/>
			<path fill="#AE7040" d="M693.5,62.6l1.2-9.9l14.2-10.4l1.4-14.1l-10.9,12.4L666.3,41l-15.6-12.7l2,15.1l14.9,8.1l2.6,12.6
				C670.2,64,679.9,77.9,693.5,62.6z"/>
			<polygon fill="#D1A039" points="665.1,102.7 672.1,154.7 686.4,154.7 693.5,106.1 690.8,83.9 679.2,80.9 668.4,84.2 			"/>
			<polygon fill="#BF8732" points="668.4,84.2 679.2,80.9 690.8,83.9 694.7,76.8 690.3,62.5 687.8,62.5 680.5,70.4 674.3,63.2 
				671.8,63.2 666.3,75.3 			"/>
			<polygon fill="#E4C9B1" points="673.4,82.7 676.7,142.4 679.2,80.9 			"/>
			<polyline fill="#D1A039" points="675.2,66.1 675.2,64.2 677.2,60.2 684.6,60.2 686.3,64.2 680.5,70.4 675.2,65.3 			"/>
			<polygon fill="#D1A039" points="690.7,63.8 707.4,56.6 710.8,23.4 715.3,27.9 712.3,38 713.8,60.2 693.5,73 			"/>
			<polygon fill="#D1A039" points="671.2,64.6 654.3,55.5 649.8,21.9 646.3,30.6 648.9,37.3 646.3,59 667.1,73.4 			"/>
			<polygon fill="#D9B269" points="672.1,154.7 673.4,160.2 685.1,160.2 685.1,154.7 			"/>
			<polygon fill="#D39C37" points="675.2,46.6 675.2,53.3 677.2,60.2 684.6,60.2 686.3,53.4 686.3,46.6 			"/>
			<polygon fill="#A35A2F" points="667.4,20.5 690.7,20.5 689.3,40.8 671.2,41 			"/>
			<polygon fill="#D9B269" points="689.3,40.8 699.4,40.7 710.3,28.3 711.5,16.6 690.7,20.5 			"/>
			<polygon fill="#D9B269" points="650.7,28.3 666.3,41 671.2,41 667.4,20.5 649.5,14 			"/>
			<path fill="#BF8732" d="M710.8,23.4c0.7,0.7,3.3,3.3,3.3,3.3l2.4-17.1l-5,7.1L710.8,23.4z"/>
			<polygon fill="#BF8732" points="648.5,25 650.7,28.3 649.5,14 646.3,9.6 			"/>
			<rect x="665.1" y="189.8" fill="#E2AA4C" width="22" height="42"/>
			<polygon fill="#E2AA4C" points="693.5,188.4 693.5,230.5 710,223.6 710,182.1 			"/>
			<polygon fill="#E2AA4C" points="659.5,189.8 646.1,181.4 646.1,220.4 659.5,228.8 			"/>
		</g>
	</g>
	<g>
		<path fill="#F9BD91" d="M162.7,336.5v60.2h9.1v19.8c0,0,10.3,20.2,35.4,0v-41.1c0,0,7.6-1.5,7.6-10.3c0-8.8-8.8-4.6-8.8-4.6v-24
			H162.7z"/>
		<polygon fill="#8B5E3C" points="160.4,768.8 157.9,780.6 147.6,780.6 147.6,768.8 		"/>
		<path fill="#231F20" d="M147.6,780.6h10.3c0,0,4,13-9.3,13.7h-17.3c0,0-3.8-8.2,6.5-8.8C137.7,785.6,146.7,784,147.6,780.6z"/>
		<polygon fill="#8B5E3C" points="206.6,768.8 209,780.6 219.3,780.6 219.3,768.8 		"/>
		<path fill="#231F20" d="M219.3,780.6H209c0,0-4,13,9.3,13.7h17.3c0,0,3.8-8.2-6.5-8.8C229.2,785.6,220.3,784,219.3,780.6z"/>
		<path fill="#E6E7E8" d="M194.2,378.8h-30.1c0,0,5.3-9.3,15-9.3C188.9,369.4,194.2,378.8,194.2,378.8z"/>
		<polygon fill="#F9BD91" points="150.5,560 146.3,768.8 161.3,768.8 190.5,597.8 206.6,768.8 220.9,768.8 226.3,558.9 		"/>
		<path fill="#FFF200" d="M130.7,418c0,0,37.3-20.9,112.4,0l-14.1,141.2c0,0-30.8,2.2-81.1-0.3L130.7,418z"/>
		<polygon fill="#8B5E3C" points="160.4,768.8 157.9,780.6 147.6,780.6 147.6,768.8 		"/>
		<path fill="#231F20" d="M147.6,780.6h10.3c0,0,4,13-9.3,13.7h-17.3c0,0-3.8-8.2,6.5-8.8C137.7,785.6,146.7,784,147.6,780.6z"/>
		<polygon fill="#8B5E3C" points="206.6,768.8 209,780.6 219.3,780.6 219.3,768.8 		"/>
		<path fill="#231F20" d="M219.3,780.6H209c0,0-4,13,9.3,13.7h17.3c0,0,3.8-8.2-6.5-8.8C229.2,785.6,220.3,784,219.3,780.6z"/>
		<polygon fill="#2B3990" points="146.3,559.2 139.4,647.6 186.3,647.6 189.3,613.1 192.3,647.6 229.3,647.6 228.9,559.2 		"/>
		<polygon fill="#E6E7E8" points="146.3,715.9 170.3,715.9 158.5,783.3 146.3,783.3 		"/>
		<polygon fill="#E6E7E8" points="222.2,717.4 200.8,717.5 207.4,782 220.9,781.9 		"/>
		<path fill="#006838" d="M167.9,420.1l19.3,32l19-32h21.3c0,0-5.7-14.9-26.5-16.8c-20.8-1.9-43.4-2.7-50.8,16.6L167.9,420.1z"/>
		<path fill="#F9BD91" d="M162.7,336.5v60.2h9.1v19.8c0,0,10.3,20.2,35.4,0v-41.1c0,0,7.6-1.5,7.6-10.3c0-8.8-8.8-4.6-8.8-4.6v-24
			H162.7z"/>
		<path fill="#F9BD91" d="M168.8,416.5l18.5,32l16.9-32C204.2,416.5,188.9,397,168.8,416.5z"/>
		<path fill="#F9BD91" d="M77.2,450.7c0,0-33.1-7.3-46.4-34.6c0,0-2.8-7.9-6.5-7.6c-3.7,0.3-1.7,7.2-1.7,7.2s-3.4-16.8-8.2-16.3
			s-16.9,6.3-0.8,33c0,0,36.7,45.2,68.2,38.4C81.7,470.8,101.8,451.8,77.2,450.7z"/>
		<path fill="#FFF200" d="M131,417.5c0,0-17.4,26.5-48.5,31.7c0,0-3.4,18.7,5.9,23.7c0,0,38.2-6.8,53.5-24.2L131,417.5z"/>
		<path fill="#006838" d="M90.4,472.6c0,0-8.5-12.4-4-24.2l-8.2,1.4c0,0-0.2,19.8,6,23.8L90.4,472.6z"/>
		<path fill="#F9BD91" d="M288.3,290.4c0.7-34.4-14-33.2-18.9-31c-4.9,2.2,1.1,20.1,1.1,20.1s-1.8-7.7-5.6-6c-3.7,1.7-2,10.9-2,10.9
			s1.6,15.3,12,14.8C285.4,298.7,288.3,290.4,288.3,290.4z"/>
		<polygon fill="#FFF200" points="227.5,419 260.8,376.8 285.2,389.6 230.1,461.1 233.2,434 		"/>
		<polygon fill="#F9BD91" points="260.8,376.8 275.1,357.4 270.8,298.4 285.5,294.6 295.3,365.4 282.7,388.8 		"/>
		<polygon fill="#006838" points="260.8,376.8 257.7,380.8 280.8,395.3 287.9,388.6 262.8,374.2 		"/>
		<path fill="#603913" d="M201.8,343.8v25.6l3.7-0.3l0.6-8.7l3.1-0.9v-29.7c0,0-29.1-28.4-46.6,6.6c0,0-7.2,4.5-6,5.2
			c1.1,0.7,24.9-5.2,24.9-5.2l-5.4,5.2l26-3.6L201.8,343.8z"/>
	</g>
</g>
</svg>
