<?xml version="1.0" encoding="utf-8"?>
<!-- Generator: Adobe Illustrator 18.1.1, SVG Export Plug-In . SVG Version: 6.00 Build 0)  -->
<svg version="1.1" id="Layer_1" xmlns="http://www.w3.org/2000/svg" xmlns:xlink="http://www.w3.org/1999/xlink" x="0px" y="0px"
	 viewBox="0 0 282.4 543.7" enable-background="new 0 0 282.4 543.7" xml:space="preserve">
<g>
	
		<rect x="37.7" y="19.4" transform="matrix(0.9914 0.1311 -0.1311 0.9914 37.3789 -16.4625)" fill="#EC008C" width="212" height="512.6"/>
	
		<rect x="72.7" y="95.2" transform="matrix(0.9914 0.1311 -0.1311 0.9914 40.4278 -16.2554)" fill="#B5A828" width="141.9" height="407.5"/>
	
		<rect x="74.5" y="94.4" transform="matrix(0.9914 0.1311 -0.1311 0.9914 38.5178 -15.7024)" fill="#82761D" width="128" height="380.7"/>
	<path fill="#E6CE89" d="M179.1,187c0.9,1.4,3.2,1.3,4.6,0.3c0.9-0.6,1.7-1.6,1.9-2.7c0.2-1.1-0.4-2.4-1.4-2.8
		c1.6,0.9,3.7-0.3,4.6-1.9c0.5-0.8,0.8-1.9,0.3-2.7c-0.4-0.8-1.9-1.1-2.3-0.3c1.4-0.9,1.8-2.9,1-4.3c-0.8-1.4-2.8-1.9-4.3-1.1
		c0.6,0.4,1.5,0,1.8-0.7c0.3-0.7,0-1.5-0.4-2c-1.1-1.4-3.4-1.6-4.7-0.5c1.3-0.6,1.8-2.4,1.1-3.7s-2.3-1.9-3.7-1.6
		c0.1-0.8,0.2-1.6,0-2.4c-0.2-0.8-0.8-1.5-1.6-1.7c-0.3-0.1-0.7,0-1,0.1c-2.2,0.7-3.1,3.2-3.7,5.4c-1,3.3-2,6.7-1.8,10.2
		c0.2,3.9,1.9,7.7,4.5,10.6c1.3,1.4,3,2.7,4.8,3.2c1.9,0.6,4.1,0.3,5.6-0.9"/>
	<polygon fill="#F9BD91" points="154.5,306.2 132.6,503 145.4,495.8 148.4,459.5 159.8,412.7 161.5,385.5 183.2,294.4 	"/>
	<path fill="#F9BD91" d="M168.9,163.7l-5.3,39.8l29.9,12.9l-4.8,36.5l-1.8,13.5l0.3,43l10.4,13.7c0,0,10.6-7.5-2.1-20.3l5-40.5
		l5-60.6c0,0-0.9-8.5-25.9-14.9c0,0-9-5.3-5.5-21.3L168.9,163.7z"/>
	<path fill="#D5D6D0" d="M163.7,203.5l-13.8,104.4l35.2-13.2c0,0-0.2-19.5-10.1-34.4c0,0,17-31.7,19-46.5c0,0-4.8-10.1-29.8-13.4
		L163.7,203.5z"/>
	<path fill="#34393D" d="M150.3,304.4c0,0,30.8-14.7,33.7-16.6l-0.4-5.1l-32.5,16L150.3,304.4z"/>
	<path fill="#34393D" d="M151.7,293.8c0-0.2,31.1-14.6,31.1-14.6l-1.6-5.5l-28.6,13.2L151.7,293.8z"/>
	<polygon fill="#34393D" points="153.6,279.9 179.8,269.7 178.1,265.7 154.4,273.9 	"/>
	<polygon fill="#34393D" points="155.4,266.2 176.6,263 174.9,260.3 175.9,258.3 156.1,261 	"/>
	<polygon fill="#34393D" points="157.1,252.9 177.6,255 179.3,251.8 157.8,247.6 	"/>
	<polygon fill="#34393D" points="158.7,241 181,248.2 182.5,245 159.5,235.2 	"/>
	<polygon fill="#34393D" points="160.3,228.8 184.6,240.4 186.4,236.5 161.2,222.3 	"/>
	<path fill="#34393D" d="M162.1,215.5c0,0,10.7,16,26.9,14.6l1.5-4c0,0-19.5,0.4-27.2-19.6L162.1,215.5z"/>
	<path fill="#34393D" d="M191.9,222.1l-9.9,0.3L168.4,201l5.8,1.3l9.3,17.3l9.3-0.8C192.8,218.8,192.3,220.6,191.9,222.1z"/>
	<polygon fill="#333438" points="133.7,493.6 145.4,495.8 145.9,489.9 134.2,488.4 	"/>
	<path fill="#F9C4A0" d="M174,119.2l-6.3,47.8c0,0,9,3.4,15-7.7c6-11.1,10.3-27.5,10-34.8C192.7,124.5,184.7,113.1,174,119.2z"/>
	<path fill="#E6CE89" d="M155.3,115.4c-0.8,1.7-0.9,3.7-0.4,5.5c0.2,0.7,0.5,1.4,1.1,1.8c0.4,0.3,1,0.4,1.6,0.5
		c2.4,0.1,4.7-1.2,5.9-3.3c-0.7,1.1,0.4,2.6,1.6,3.1c2.4,1,5.5-0.3,6.4-2.8c0.4,1.9,2.1,3.4,4,3.6c1.9,0.2,3.9-1,4.6-2.8
		c-0.3,1.2,0.5,2.6,1.7,2.9c1.2,0.4,2.6-0.4,3-1.5c0,0.7,0.3,1.4,1,1.7c0.6,0.3,1.5,0.1,1.7-0.6c0.1,1.3,1.2,2.5,2.5,2.7
		c1.3,0.2,2.7-0.6,3.3-1.8c0.3,0.5,1.1,0.6,1.7,0.4s1-0.8,1.4-1.3c0.7-1,1.4-2.1,1.8-3.3c0.4-1.2,0.3-2.5-0.3-3.6
		c-0.7-1.2-2-1.8-3.4-1.8c-1.3,0-2.6,0.6-3.6,1.6c1.2-1,1.7-2.7,1.2-4.2s-2.2-2.4-3.7-1.9c-0.1-1.9-1.4-3.7-3.1-4.4
		c-1.8-0.7-3.9-0.3-5.3,1c0.9-1.9-0.7-4.3-2.7-4.9c-2-0.5-4.2,0.4-5.8,1.9c-0.4,0.4-0.8,0.8-0.9,1.3c-0.1,0.5,0,1.2,0.5,1.5
		c-0.5-0.7-1.5-0.9-2.3-0.7c-0.8,0.3-1.4,1.1-1.4,1.9c0.2-0.8-0.4-1.7-1.1-2s-1.6-0.4-2.5-0.3c-0.8,0.1-1.7,0.2-2.4,0.7
		s-1.2,1.3-1,2.1c-1.2-0.2-2.6,0.2-3.5,1.1c-0.9,0.9-1.3,2.2-1.1,3.5c0.3-0.3-0.3-0.6-0.7-0.5c-1.4,0.3-2.6,1.3-3.3,2.6
		c-0.9,1.7-0.4,4.3,1.5,5c1.4,0.5,2.9-0.3,4.1-1"/>
	<path fill="#A7A9AC" d="M184.5,155.7c0,0-2.3,7.9,2.7,8.7s2.7-10.7-1.1-12.3c0,0,5,8,2.1,9.7s-3.2-7.1-3.2-7.1L184.5,155.7z"/>
	<g>
		<path fill="#E6CE89" d="M153.6,183.6c-1.3,1.1-3.4,0.4-4.5-0.9c-0.7-0.8-1.2-2-1.1-3.1s1-2.2,2.1-2.3c-1.8,0.4-3.5-1.3-4-3.1
			c-0.3-0.9-0.3-2,0.4-2.7c0.7-0.7,2.1-0.6,2.3,0.4c-1.1-1.2-1-3.3,0.2-4.4c1.2-1.1,3.2-1.1,4.4,0c-0.7,0.2-1.4-0.4-1.5-1.1
			s0.4-1.4,1-1.8c1.4-1.1,3.7-0.7,4.7,0.7c-1.1-0.9-1.1-2.8-0.1-3.8c1-1,2.7-1.2,4-0.6c0.1-0.8,0.2-1.6,0.6-2.3
			c0.4-0.7,1.2-1.3,2-1.2c0.3,0,0.7,0.2,1,0.4c1.9,1.3,2.1,3.9,2.2,6.2c0.1,3.5,0.1,7-0.9,10.3c-1.2,3.7-3.8,7-7.1,9.1
			c-1.7,1-3.6,1.8-5.5,1.9s-4-0.7-5.2-2.3"/>
		<polygon fill="#F9BD91" points="146.3,305.1 116.3,500.9 105.8,490.6 112.4,454.7 113.5,406.6 118.9,379.8 121.7,286.3 		"/>
		<path fill="#F9BD91" d="M169.4,163.8l-5.3,39.8l-32.2,4.7l-4.8,36.5l-1.8,13.5l-11.4,41.4l-13.6,10.6c0,0-8.3-10,7.3-19.1
			l5.7-40.5l10.9-59.8c0,0,3.1-7.9,28.9-7.7c0,0,10-2.8,10.9-19.2L169.4,163.8z"/>
		<path fill="#D5D6D0" d="M164.1,203.5l-13.8,104.4L119.8,286c0,0,5.3-18.8,18.7-30.6c0,0-8.2-35-6.2-49.8c0,0,7.3-8.5,32.2-5.2
			L164.1,203.5z"/>
		<path fill="#34393D" d="M150.8,304.5c0,0-25.9-22.2-28.3-24.8l1.8-4.8l27.3,23.9L150.8,304.5z"/>
		<path fill="#34393D" d="M152.2,293.8c0-0.2-26.3-22.2-26.3-22.2l3-4.9l24.2,20.2L152.2,293.8z"/>
		<polygon fill="#34393D" points="154,280 131.3,263.3 134.1,259.9 154.8,274 		"/>
		<polygon fill="#34393D" points="155.9,266.3 136.2,257.6 138.5,255.5 138,253.3 156.5,261.1 		"/>
		<polygon fill="#34393D" points="157.6,253 137.3,249.7 136.5,246.1 158.3,247.7 		"/>
		<polygon fill="#34393D" points="159.2,241.1 135.8,242.2 135.1,238.7 160,235.3 		"/>
		<polygon fill="#34393D" points="160.8,228.9 134.3,233.8 133.7,229.5 161.7,222.3 		"/>
		<path fill="#34393D" d="M162.6,215.6c0,0-14.5,12.7-29.8,7.1l-0.4-4.2c0,0,18.7,5.4,31.4-11.8L162.6,215.6z"/>
		<path fill="#34393D" d="M132.1,214.2l9.5,2.9l18.6-17.1l-5.9-0.3l-13.5,14.3l-8.8-3.2C132,210.8,132,212.7,132.1,214.2z"/>
		<polygon fill="#333438" points="117.7,491.6 105.8,490.6 106.8,484.8 118.5,486.3 		"/>
		<path fill="#F9C4A0" d="M176.1,119.5l-6.3,47.8c0,0-9.5,1-12.5-11.3c-3-12.3-2.8-29.2-0.7-36.2
			C156.7,119.8,167.4,110.8,176.1,119.5z"/>
		<path fill="#A7A9AC" d="M156.5,152c0,0,0.1,8.2-4.9,7.7c-5-0.5,0.2-11.1,4.3-11.5c0,0-6.9,6.4-4.5,8.8s4.9-6.1,4.9-6.1L156.5,152z
			"/>
	</g>
	<path fill="#D9BD89" d="M65.1,352.1l67.9,9l4.1-30.6c0,0-26.3-48.4-67.9-9L65.1,352.1z"/>
	<path fill="#D9BD89" d="M123,314.2c0,0,2-25.1-15-26.2S90,309.9,90,309.9l3.6,0.5c0,0-1.1-19.6,14.1-19.8c15.2-0.2,11.9,25,11.9,25
		L123,314.2z"/>
	<g id="VmkIeB.tif">
		<g>
			<path fill="#FFFFFF" d="M109.9,48.6c0.7-1.6,1.5-3.2,2.6-4.5c2.3-2.7,5.2-4.3,8.5-5.2c2.2-0.6,4.5-1.2,6.8-1.2
				c4.6-0.1,8.9,0.9,12.3,4.3c1.9,1.9,2.7,4.3,2.7,6.9c0.1,4.3-1.7,7.6-5,10.2c-0.4,0.3-0.7,0.5,0,1c1.9,1.2,3.5,2.8,4.4,5.1
				c1.5-1.6,3.2-2.6,5-3.5c2-0.9,4.1-1.2,6.1-1.9c1.2-0.5,2.4-1,3.3-2c0.6-0.7,1.1-1.4,0.6-2.3c-0.5-0.9-1.4-0.9-2.3-0.7
				c-2.9,0.6-5.2,2.1-7.1,4.3c-1.4,1.7-1.9,1.7-2.9-0.3c-1.3-2.4-0.8-4.7,1.4-6.4c3.9-3.1,8.4-4.2,13.3-3.5c3.5,0.5,5.2,2.8,4.8,6.2
				c-0.6,4.9-1.3,9.8-1.9,14.7c-0.3,2.4-0.6,4.9,0.2,7.3c0.1,0.4-0.1,0.6-0.5,0.6c-1.8,0.4-3.6,0.7-5.5,0.8c-0.6,0-0.9-0.1-1-0.7
				c-0.2-0.8-0.5-0.8-1.1-0.3c-2.5,2.1-5.5,2.7-8.6,2.3c-1.9-0.2-3.6-1-4.8-2.5c-0.3-0.4-0.6-0.5-0.9,0c-3.9,5.6-9.6,7.5-16.1,7.6
				c-0.2,0-0.4,0.1-0.6,0.1c-2.1-0.3-4.2-0.6-6.4-0.8c-0.7-0.3-1.5-0.6-2.2-0.8c-1.1-0.3-1.4-0.9-1.2-2.1c1.1-8.2,2.2-16.5,3.3-24.7
				c0.2-1.2,0.1-2.4-0.2-3.5c-0.3-0.8,0-1.2,0.7-1.5c2.1-0.9,4.3-1.8,6.4-2.7c1.4-0.6,1.4-0.6,1.2,1c-0.3,2.2-0.6,4.4-0.9,6.7
				c-0.1,1.2,0.3,1.6,1.5,1.4c0.7-0.1,1.5-0.2,2.2-0.4c3.2-0.8,5.7-2.4,6.9-5.6c1.5-4.3-1.2-7.2-5.1-7.5c-2.4-0.2-4.9,0.2-7.2,1.1
				c-4.9,1.9-8.3,6-8.2,11.7c0,0.6,0,1.1,0,1.7c-0.1,0.7-0.4,0.8-0.9,0.3c-1.7-1.7-3.6-3.2-4-5.8C109.6,51.4,109.8,50,109.9,48.6z
				 M122.5,70.8c-0.2,1.6-0.4,3.2-0.6,4.8c-0.3,2.1-0.1,2.3,2,2.5c0.2,0,0.3,0.1,0.5,0c4.4-0.3,10.1-2.9,10.3-9.3
				c0.1-2.6-1.3-4.7-3.6-5.2c-2.2-0.5-4.4-0.5-6.6,0.1c-0.7,0.2-1,0.5-1.1,1.2C123,67,122.7,68.9,122.5,70.8z M156.3,65.8
				c-0.1-0.4,0.4-1-0.1-1.3c-0.5-0.4-1,0.1-1.4,0.3c-1.7,0.6-3.4,1.5-5,2.4c-0.8,0.5-1.6,1.2-2,2c-0.5,0.9-0.8,2-0.3,3.1
				c0.4,0.8,1.1,1.1,1.9,1c1.9,0,3.5-0.7,4.7-2.3C155.3,69.5,155.9,67.8,156.3,65.8z"/>
			<path fill="#FFFFFF" d="M212.3,34.3c2.1,2,2.2,5.6,0.1,7.7c-1,0.9-2.2,0.9-3.4,0.6c-1.3-0.3-2.2-1.1-2.5-2.5
				c-0.2-1.4,0-2.8,0.5-4.1c0.5-1.1,1.4-1.7,2.6-2C210.5,34.1,211.4,34.2,212.3,34.3z"/>
			<path fill="#FFFFFF" d="M241.7,45.3c-1.1-0.3-0.2-1.2-0.5-1.7c-0.3,0.3-0.4,0.7-0.6,1c-0.2,0.3-0.3,0.5-0.6,0.4
				c-0.3-0.1-0.4-0.3-0.4-0.5c-0.1-0.4-0.2-0.8-0.4-1.2c0,0.3-0.1,0.6-0.1,1c0,0.3-0.1,0.6-0.5,0.5c-0.4,0-0.4-0.4-0.4-0.6
				c0.1-0.7,0.2-1.3,0.2-1.9c0-0.3,0.4-0.7-0.3-0.8c-0.5,0-1-0.1-1.1,0.6c-0.1,0.6-0.2,1.3-0.3,1.9c0,0.2-0.1,0.5-0.3,0.4
				c-0.4,0-0.3-0.3-0.3-0.5c0-0.5,0.1-1,0.2-1.4c0.1-0.6,0.2-1.2-0.6-1.3c-0.2,0-0.3-0.2-0.2-0.4c0.1-0.2,0.3-0.2,0.4-0.2
				c1.1,0.1,2.3,0.3,3.4,0.5c0.6,0.1,0.5,0.8,0.7,1.3c0.1,0.4,0.1,0.8,0.3,1.2c0.9-0.5,0.4-2.4,2.1-2.1
				C242.1,42.7,241.9,44,241.7,45.3z"/>
			<path fill="#FFFFFF" d="M174.5,49.2c0.7-0.8,1.4-1.5,2.1-2c1.3-0.9,2.7-1.2,4.1-0.2c0.7,0.5,0.9,0.2,1-0.5
				c0.3-2.6,0.9-5.2-0.1-7.8c-0.2-0.5,0.1-0.7,0.5-0.9c2.3-1,4.7-2,7-3c1-0.4,1.1-0.4,0.9,0.8c-0.5,4.2-1.1,8.4-1.7,12.6
				c0,0.1,0,0.3,0,0.6c0.6-0.6,1.1-1.2,1.6-1.7c2.9-3,8.2-3.2,11.2-0.3c1.7,1.6,2.2,3.8,2.3,6.1c0.2,5.6-0.8,11.1-3.8,15.9
				c-2.3,3.8-5.7,6.1-10.1,6.8c-3.5,0.6-6.8,0.1-10.2-0.8c-1-0.3-1.3-0.8-1.1-1.8c0.9-6.6,1.8-13.3,2.6-19.9c0.2-1.3,0-1.4-1.2-1
				c-3.5,1.2-5.6,3.5-6.1,7.2c-0.4,3.2-0.8,6.5-1.3,9.7c-0.3,2.2-0.3,4.4,0.3,6.5c0.2,0.6,0,0.8-0.6,0.9c-2.5,0.3-4.9,0.5-7.4,0.8
				c-0.6,0.1-0.8-0.1-0.6-0.7c1.4-3.9,1.5-8,2.1-12.1c0.4-2.9,0.8-5.8,1.2-8.7c0.2-1.6,0.3-3.1-0.5-4.5c-0.4-0.7-0.2-1.2,0.6-1.5
				c1.9-0.7,3.6-1.7,5.5-2.3c1.2-0.4,1.2-0.4,1.4,0.9C174.4,48.6,174.5,48.8,174.5,49.2z M188.1,52.4c-0.1,0.3-0.1,0.4-0.2,0.5
				c-0.7,5.2-1.4,10.4-2.1,15.6c-0.1,1,0.3,1.2,1.1,1.3c0.5,0.1,1,0,1.4-0.2c2-0.8,3.6-2.1,4.9-3.8c1.4-1.9,2.3-3.9,2.8-6.2
				c0.4-2.1,0.9-4.3,0.3-6.4c-0.2-0.8-0.5-1.6-1.4-1.9c-0.9-0.3-1.6,0.3-2.2,0.9c-0.9,0.9-1.3,2-1.8,3.1c-0.4,0.8-0.6,0.9-1.1,0.1
				C189.2,54.5,188.7,53.5,188.1,52.4z"/>
			<path fill="#FFFFFF" d="M221.4,72.1c-4.6-0.2-7.5-4.2-8.6-8.6c-1.6-6.7,0.4-12.6,4.7-17.6c2.6-3,6.1-4.1,10-3.8
				c2.6,0.2,4.8,0.9,6.6,2.9c1.8,2,2.6,4.4,2.7,7.1c0,0.5-0.4,0.7-0.7,0.9c-2.2,1.5-4.4,3-6.7,4.5c-2.4,1.6-4.9,3.3-7.3,4.9
				c-0.1,0.1-0.2,0.2-0.3,0.2c-1.6,1.1-1.6,1.4,0.1,2.5c2.1,1.5,5,1.1,7.1-1.2c1.9-2,2.9-4.3,3.4-6.9c0.2-1,0.3-1.1,1.2-0.5
				c3.3,2.1,3.2,4.2,2,7.4c-1.9,5.2-5.5,8.2-11.2,8.4C223.5,72.4,222.7,72.2,221.4,72.1z M219.9,56.4c0.2-0.1,0.4-0.1,0.5-0.2
				c2.9-1.9,5.9-3.7,8.8-5.6c0.4-0.3,0.4-0.6,0.2-1c-0.7-1.6-2.4-2.4-4-1.7C222.3,49.2,219.9,52.9,219.9,56.4z"/>
			<path fill="#FFFFFF" d="M211.6,56.9c-0.5,3.8-1,7.5-1.5,11.3c-0.2,1.4-0.2,2.7,0.2,4.1c0.2,0.6,0,0.8-0.6,0.9
				c-2.4,0.2-4.9,0.5-7.3,0.7c-0.8,0.1-0.7-0.2-0.5-0.8c0.7-1.6,1.1-3.3,1.3-5c0.6-5,1.3-9.9,2-14.9c0.2-1.9,0.4-3.7-0.2-5.5
				c-0.2-0.5,0-0.8,0.5-1c2.3-1.1,4.5-2.2,6.9-3.1c1-0.4,1.2-0.2,1,0.9C212.7,48.6,212.2,52.8,211.6,56.9z"/>
		</g>
	</g>
	<circle fill="#BE1E2D" cx="180.6" cy="494.7" r="26"/>
	<polygon opacity="0.14" fill="#FFFFFF" points="56.4,417.4 227.5,206.3 233.9,158.5 62,375 	"/>
	<polygon opacity="0.14" fill="#FFFFFF" points="54.6,431 225,225.1 220.6,258.6 52.7,445.6 	"/>
</g>
</svg>
