<?xml version="1.0" encoding="utf-8"?>
<!-- Generator: Adobe Illustrator 18.1.1, SVG Export Plug-In . SVG Version: 6.00 Build 0)  -->
<svg version="1.1" id="Layer_1" xmlns="http://www.w3.org/2000/svg" xmlns:xlink="http://www.w3.org/1999/xlink" x="0px" y="0px"
	 viewBox="0 0 180.3 228.1" enable-background="new 0 0 180.3 228.1" xml:space="preserve">
<g>
	<rect x="35.4" y="64.7" fill="#CCCCCC" width="101.6" height="142.7"/>
	<rect x="43.3" y="205.5" fill="#CCCCCC" width="7.8" height="17.5"/>
	<rect x="121.8" y="205.5" fill="#CCCCCC" width="7.8" height="17.5"/>
	<g>
		<rect x="39.7" y="69.1" fill="#5380B8" width="93" height="133.3"/>
		<g id="M8XVA8.tif_2_">
			<g>
				<path fill="#F2F1F9" d="M82.6,114.5c-0.8,1.2-1.8,2.2-2.9,3.1c-2.8,2.3-6,3.7-9.6,4.2c0.1-0.2,0.2-0.3,0.4-0.4
					c0.5-0.2,0.7-0.6,0.9-1c0.1-0.2,0.3-0.4,0.6-0.5c0.5-0.2,0.8-0.6,1-1.1c0.2-0.6,0.3-1.4,0.8-1.9c0.2-0.1,0.2-0.4,0.4-0.6
					c0.3-0.4,0.3-0.8-0.1-1.1c-0.3-0.3-0.7-0.4-1.1-0.4c-0.5,0.1-0.9,0.1-1.4-0.2c-0.2-0.2-0.6-0.1-0.9,0.1
					c-0.1,0.1-0.2,0.1-0.4,0.2c-0.1,0.1-0.2,0.1-0.3,0c-0.1-0.1-0.1-0.2,0-0.3c0.2-0.8-0.3-1.5-1.1-1.5c-0.6,0-1.1,0.1-1.6-0.4
					c0-0.1-0.1-0.1-0.2-0.1c-0.4-0.1-0.6-0.3-0.7-0.7c0-0.2-0.2-0.5-0.5-0.3c-0.1,0.1-0.3,0.1-0.4,0c-0.2-0.2-0.4,0-0.5,0
					c-0.3,0.1-0.6,0.5-0.9,0c0,0-0.1,0-0.1,0c-0.3,0.2-0.3,0-0.3-0.2c0-0.1-0.1-0.2-0.2-0.2c-0.1,0-0.1,0.1-0.1,0.2
					c0,0.2-0.1,0.4-0.2,0.7c-0.1-0.4-0.1-0.7-0.3-0.9c-0.2,0.2-0.4,0.5-0.6,0.6c-0.3,0.2-0.5,0.3-0.5,0.7c0,0.1-0.1,0.2-0.2,0.2
					c-0.3-0.2-0.5-0.1-0.8,0c-0.3,0.1-0.5,0-0.6-0.2c-0.5-0.4-0.7-0.9-0.7-1.5c0-0.4-0.2-0.6-0.6-0.6c-0.1,0-0.2,0-0.3,0
					c-0.4,0-0.5-0.1-0.5-0.5c0-0.5-0.1-0.9-0.1-1.4c0.1-0.4-0.2-0.5-0.5-0.5c-0.4,0-0.5,0.3-0.5,0.6c0,0.3-0.1,0.5-0.4,0.6
					c-0.3,0.1-0.4-0.1-0.6-0.3c-0.5-0.4-0.7-0.9-0.9-1.5c-0.3-0.6-0.2-1.3-0.1-2c0.1-0.6,0.6-0.8,1.3-0.7c0.2,0,0.6,0.3,0.6-0.3
					c0-0.1,0.2-0.2,0.3-0.2c0.6-0.1,1.3,0.4,1.5,0.9c0.1,0.3,0.2,0.6,0.4,0.9c0.1,0.2,0.3,0.3,0.5,0.2c0.2-0.1,0.2-0.3,0.1-0.4
					c-0.1-0.2-0.1-0.5-0.3-0.7c-0.2-0.3-0.4-0.6-0.2-0.9c0.2-0.5,0.4-1,0.7-1.3c0.6-0.6,0.7-1.2,0.3-1.9c-0.1-0.2-0.1-0.3,0.2-0.4
					c0.4-0.1,0.5-0.3,0.5-0.7c0-0.4,0.2-0.5,0.5-0.5c0.4,0,0.5-0.2,0.5-0.5c0-0.3,0-0.5,0.2-0.7c0.2-0.2,0.4-0.3,0.7-0.5
					c0.1,0.1,0.1,0.3,0.1,0.4c0,0.1,0.1,0.1,0.2,0.1c0.4-0.4,0.9-0.7,1.3-1.1c0.2-0.2,0-0.4-0.1-0.6c-0.1-0.1-0.2,0-0.2,0.1
					c-0.1,0.5-0.4,0.3-0.7,0.2c-0.4-0.1-0.4-0.3-0.3-0.6c0.1-0.3,0.4-0.4,0.7-0.6c-0.8,0-1.4,0.3-1.8,0.9c0.2-0.6,0.5-1,1.2-1.1
					c0.4,0,0.8-0.2,1.1-0.5c0.2-0.2,0.5-0.4,0.8-0.3c0.2,0,0.3-0.1,0.2-0.2c-0.2-0.4-0.3-0.8-0.6-1c-0.6-0.4-0.9-0.9-1.1-1.5
					c-0.3-0.7-0.3-0.7-0.9-0.2c-0.1,0.1-0.2,0.2-0.3,0.1c-0.1-0.1-0.1-0.3-0.1-0.4c0.4-0.5,0-0.5-0.3-0.6c-0.1,0-0.1-0.1-0.2-0.2
					c-0.3-0.3-1-0.2-1.1,0.2c-0.2,0.5-0.3,1.1-0.1,1.5c0.2,0.5,0,0.8-0.3,1.1c-0.3,0.3-0.4,0.6-0.4,1c0,0.2,0.1,0.6-0.2,0.6
					c-0.3,0-0.2-0.4-0.2-0.6c0.1-0.9-0.6-1.2-1.1-1.5c-0.5-0.3-0.7-0.9-0.3-1.4c0.4-0.4,0.9-0.7,1.2-1.2c0.1-0.2,0.3-0.4,0.5-0.1
					c0.2,0.4,0.5,0.2,0.7,0c0.3-0.2,0.4-0.5,0.2-0.7c-0.3-0.3-0.1-0.4,0.2-0.5c0.4-0.1,0.6-0.3,0.6-0.7c0-0.2,0.1-0.3,0.2-0.4
					c0.2-0.1,0.4-0.1,0.4,0.1c0,0.4,0.2,0.8-0.2,1.2c-0.3,0.3-0.2,0.5,0,0.8c0.2,0.4,0.6,0.5,0.9,0.6c0.1,0,0.3,0.2,0.4,0
					c0.1-0.2-0.1-0.2-0.2-0.3c-0.1-0.1-0.2-0.1-0.1-0.2c0-0.1,0.1-0.1,0.2-0.1c0.3,0.1,0.3-0.2,0.3-0.3c0-0.2-0.1-0.4,0.2-0.3
					c0.1,0,0.1-0.1,0.1-0.1c0.2-0.5,0-0.9-0.4-1.2c-0.1-0.1-0.3-0.1-0.2-0.3c0.2-0.3,0-0.6-0.1-0.9c-0.2-0.5-0.5-0.5-0.8-0.5
					c-0.3,0-0.6,0-0.8,0c-0.2,0-0.4,0-0.4-0.3c0-0.2-0.2-0.2-0.3-0.1c-0.6,0.4-1.3,0.7-1.7,1.4c-0.1,0.3-0.2,0.2-0.4,0
					c-0.1-0.1-0.1-0.2-0.2-0.2c-0.3-0.1-0.2-0.2,0-0.4c0.5-0.4,0.5-0.4,0.1-0.9c1.7-1,3.6-1.7,5.5-2.1c3.1-0.6,6.1-0.5,9.1,0.4
					c-0.5,0.2-1.2,0-1.6,0.5c0.1,0.2,0.3,0.2,0.5,0.3c0.2,0.1,0.2,0.3,0.3,0.4c0.1,0,0.1,0.1,0.2,0.1c1,0.2,1.7,0.8,2.4,1.4
					c0.3,0.3,0.5,0.7,1,0.7c0.3,0,0.5,0.1,0.7,0.3c0.1,0.1,0.2,0.3,0.3,0.4c0.2,0.2,0.4,0.2,0.4-0.2c0-0.1,0-0.3,0.1-0.3
					c0.1,0,0.2,0.1,0.2,0.3c0,0.6,0.5,0.8,0.9,1c0.3,0.2,0.4,0.4,0.4,0.7c0,0.2,0,0.4,0.2,0.5c0.2,0.1,0.2,0.3,0.3,0.4
					c0.1,0.4,0.1,0.8,0,1.2c-0.1,0.2,0,0.5,0.2,0.4c0.5,0,0.8,0.2,0.9,0.7c0,0.1,0.1,0.2,0.2,0.2c0.4,0.4,0.3,0.6-0.2,0.7
					c-0.6,0.2-0.6,0.2-0.3,0.8c0.3,0.5,0.7,1,0.9,1.6c0.1,0.4,0.3,0.6,0.7,0.6c0.4,0,0.7-0.2,0.8-0.6c0.1-0.4,0.1-0.8-0.1-1.2
					c-0.3-0.7-0.6-1.5-0.2-2.3c0.6,0.5,1.4,0.8,1.8,1.7c0,0,0.1-0.1,0.1-0.1c0-0.1,0-0.3-0.1-0.4c0,0,0-0.1,0.1-0.1
					c0.1,0.1,0.2,0.2,0.3,0.3c0.1,0.1,0.1,0.3,0.2,0.2c0.2,0,0.2-0.2,0.2-0.3c0-0.1,0-0.1,0.1-0.2c0.4,0.6,0.6,1.2,0.8,1.8
					c-0.5,0.1-0.6,0.3-0.4,0.9c0,0.1,0.2,0.2,0,0.3c-0.1,0.1-0.2,0-0.2-0.1c-0.4-0.3-0.8-0.5-0.9-1.1c0-0.2-0.2-0.4-0.4-0.6
					c-0.1,0.1-0.1,0.2-0.2,0.3c-0.4,0.3-0.6,0.6-0.6,1.1c0,0.2-0.2,0.5-0.4,0.5c-0.3,0-0.4,0.2-0.4,0.5c-0.1,0.5,0,1.1,0,1.6
					c0,0.6,0.3,1.3-0.2,1.9c-0.1,0.1,0,0.3,0,0.4c0,0.3,0.1,0.6,0,0.9c-0.2,0.6-0.2,1.2,0,1.9c0,0.1,0.1,0.3,0.1,0.4
					c-0.1,0.8,0.1,1.7,0,2.5c0,0.2,0.1,0.3,0.2,0.4c0.3,0.3,0.4,0.7,0.6,1.1c0.1,0.3,0.2,0.6,0.4,0.8c0.4,0.5,0.7,0.5,1.1,0
					c0.2-0.3,0.3-0.7,0.7-0.9c0.1-0.1,0.2-0.3,0.4-0.1c0.2,0.1,0.2,0.3,0.1,0.5c-0.5,0.9-0.5,2-1,2.9c-0.4,0.8-0.6,1.6-1.3,2.3
					C82.7,114,82.6,114.2,82.6,114.5z M67.7,84.4c-0.3-0.1-0.5-0.1-0.8-0.1c-0.7,0-1.4,0.1-2.1-0.2c-0.1-0.1-0.2,0-0.3,0
					c-0.7,0.6-1.6,0.8-2.4,1.2c-0.1,0-0.2,0.1-0.3,0.1c-0.4,0-0.6,0.3-0.9,0.5c-0.2,0.1-0.1,0.3,0.1,0.3c0.7-0.1,1.3,0.2,2-0.3
					c0.6-0.5,0.9-0.1,1,0.4c0,0.3,0.3,0.7,0.2,1c0.6,0.2,0.3,0.6,0.2,0.9c0,0.1,0,0.1,0,0.2c0.3,0.9,0.8,1.7,1.7,2.1
					c0.2,0.1,0.4,0.1,0.6,0c0.2-0.1,0-0.3,0.1-0.4c0.1-0.7-0.4-1.5,0.3-2c0,0,0-0.1,0-0.1c-0.1-0.3,0.1-0.5,0.3-0.7
					c0.4-0.4,0.3-0.9-0.2-1.1c-0.2-0.1-0.6-0.3-0.6-0.4c0-0.4-0.2-0.4-0.4-0.5c-0.4-0.3-0.9-0.3-1.4-0.5
					C65.8,84.4,66.8,84.8,67.7,84.4z M75.9,88.7c-0.2,0-0.2,0.2-0.3,0.3c-0.1,0.2,0.1,0.3,0.2,0.3c0.6,0.1,0.7,0.5,0.7,1.1
					c0,0.1,0,0.2,0,0.3c0,0.1,0.1,0.2,0.2,0.3c0.3,0.1,0.5,0.3,0.6,0.5c0.1,0.2,0.2,0.3,0.4,0c0.2-0.3,0.4-0.3,0.5,0.1
					c0.1,0.2,0.2,0.2,0.4,0.2c0.2-0.1,0.5-0.7,0.3-0.9c-0.3-0.3-0.5-0.7-0.9-0.9c-0.3-0.2-0.6-0.4-0.9-0.6
					C76.8,89,76.4,88.8,75.9,88.7z M61.7,108.9c0.5,0.3,1,0,1.4-0.1c0.2-0.1,0.2-0.2,0-0.2c-0.4-0.1-0.6-0.4-1.1-0.3
					c-0.7,0-1.3-0.3-1.9-0.8c-0.7-0.6-1.6-0.5-2.1,0.2c0.1,0.1,0.1,0.1,0.2,0c0.6-0.3,1.1-0.1,1.5,0.3c0.4,0.3,0.9,0.6,1.5,0.5
					c0.2,0,0.3,0,0.4,0.1C61.9,108.8,61.7,108.8,61.7,108.9z M65.7,96.3c0.1,0,0.2,0,0.3-0.1c0-0.1,0.1-0.3-0.1-0.4
					c-0.1-0.1-0.3-0.3-0.2-0.5c0-0.1-0.1-0.2-0.2-0.2c-0.2,0-0.3-0.1-0.4-0.3c-0.1-0.2-0.3-0.2-0.4,0c0,0.4-0.3,0.8-0.3,1.2
					c0,0.2,0,0.3,0.2,0.2c0.3-0.2,0.5-0.2,0.7,0C65.4,96.3,65.5,96.3,65.7,96.3z M71.9,88.3c0.2,0,0.4,0.1,0.6-0.2
					c0.1-0.3,0-0.5-0.2-0.6c-0.2-0.2-0.4-0.3-0.6-0.4c-0.1-0.1-0.3-0.1-0.4,0.1c-0.1,0.2-0.3,0.2-0.5,0.3c-0.1,0-0.3,0.2-0.2,0.2
					C71.2,87.8,71.4,88.3,71.9,88.3z M60.9,109.1c0-0.2-0.1-0.2-0.2-0.2c-0.2,0-0.3,0-0.4,0.2c0,0.2,0.1,0.3,0.3,0.3
					C60.8,109.4,60.9,109.3,60.9,109.1z M60.3,106.7c0-0.1-0.1-0.3-0.3-0.3c-0.1,0-0.2,0-0.2,0.1c0,0.2,0.1,0.3,0.3,0.3
					C60.2,106.9,60.3,106.9,60.3,106.7z M60.2,105.8c-0.1-0.2-0.3-0.2-0.4-0.2c-0.1,0-0.2,0-0.1,0.1c0.1,0.2,0.2,0.3,0.4,0.3
					C60.2,106,60.2,106,60.2,105.8z M64.1,108.9c0-0.1-0.1-0.2-0.2-0.2c-0.1,0-0.2,0.1-0.2,0.2c0,0.2,0.1,0.2,0.3,0.2
					C64,109,64.1,109,64.1,108.9z"/>
				<path fill="#1C1A28" d="M58.2,85.9c0.4,0.4,0.4,0.4-0.1,0.9c-0.2,0.2-0.2,0.3,0,0.4c0.1,0,0.2,0.1,0.2,0.2
					c0.2,0.2,0.3,0.2,0.4,0c0.4-0.7,1.1-1,1.7-1.4c0.2-0.1,0.3-0.1,0.3,0.1c0,0.3,0.1,0.3,0.4,0.3c0.3,0,0.5,0,0.8,0
					c0.4,0,0.6,0,0.8,0.5c0.1,0.3,0.3,0.5,0.1,0.9c-0.1,0.2,0.1,0.2,0.2,0.3c0.4,0.3,0.6,0.7,0.4,1.2c0,0.1,0,0.1-0.1,0.1
					c-0.3-0.1-0.2,0.2-0.2,0.3c0,0.2,0,0.4-0.3,0.3c-0.1,0-0.2,0-0.2,0.1c0,0.1,0.1,0.2,0.1,0.2c0.1,0.1,0.3,0.1,0.2,0.3
					c-0.1,0.2-0.3,0-0.4,0c-0.4-0.1-0.7-0.2-0.9-0.6c-0.2-0.4-0.3-0.5,0-0.8c0.4-0.3,0.2-0.8,0.2-1.2c0-0.2-0.2-0.2-0.4-0.1
					c-0.1,0.1-0.2,0.2-0.2,0.4c0,0.4-0.2,0.6-0.6,0.7c-0.3,0.1-0.5,0.2-0.2,0.5c0.2,0.3,0.1,0.6-0.2,0.7c-0.2,0.1-0.5,0.3-0.7,0
					c-0.2-0.3-0.4-0.1-0.5,0.1c-0.3,0.5-0.8,0.8-1.2,1.2c-0.4,0.5-0.3,1,0.3,1.4c0.5,0.3,1.2,0.7,1.1,1.5c0,0.2-0.1,0.6,0.2,0.6
					c0.3,0,0.2-0.4,0.2-0.6c0-0.4,0.1-0.7,0.4-1c0.3-0.2,0.5-0.6,0.3-1.1c-0.2-0.5-0.1-1,0.1-1.5c0.1-0.3,0.8-0.4,1.1-0.2
					c0.1,0.1,0.1,0.2,0.2,0.2c0.3,0.1,0.7,0.1,0.3,0.6c-0.1,0.1-0.1,0.3,0.1,0.4c0.2,0.1,0.2-0.1,0.3-0.1c0.6-0.5,0.6-0.6,0.9,0.2
					c0.2,0.6,0.6,1.1,1.1,1.5c0.3,0.2,0.4,0.7,0.6,1c0.1,0.2-0.1,0.3-0.2,0.2c-0.3,0-0.6,0.2-0.8,0.3c-0.3,0.2-0.7,0.4-1.1,0.5
					c-0.7,0-1,0.5-1.2,1.1c0.4-0.6,1-0.9,1.8-0.9c-0.2,0.2-0.6,0.3-0.7,0.6c-0.1,0.4-0.1,0.5,0.3,0.6c0.3,0.1,0.6,0.3,0.7-0.2
					c0-0.1,0.1-0.2,0.2-0.1c0.1,0.2,0.3,0.4,0.1,0.6c-0.4,0.4-0.8,0.7-1.3,1.1c-0.1,0.1-0.2,0-0.2-0.1c0-0.1-0.1-0.2-0.1-0.4
					c-0.2,0.2-0.4,0.4-0.7,0.5c-0.2,0.2-0.3,0.5-0.2,0.7c0,0.4-0.1,0.6-0.5,0.5c-0.3,0-0.5,0.1-0.5,0.5c0,0.3-0.1,0.6-0.5,0.7
					c-0.3,0-0.3,0.2-0.2,0.4c0.4,0.7,0.3,1.3-0.3,1.9c-0.4,0.4-0.5,0.9-0.7,1.3c-0.1,0.3,0.1,0.7,0.2,0.9c0.1,0.2,0.2,0.5,0.3,0.7
					c0.1,0.2,0.1,0.3-0.1,0.4c-0.2,0.1-0.4,0-0.5-0.2c-0.1-0.3-0.3-0.6-0.4-0.9c-0.2-0.5-0.9-1-1.5-0.9c-0.1,0-0.3,0-0.3,0.2
					c0,0.6-0.4,0.3-0.6,0.3c-0.7-0.1-1.2,0.1-1.3,0.7c-0.1,0.6-0.2,1.3,0.1,2c0.2,0.5,0.4,1.1,0.9,1.5c0.2,0.2,0.3,0.4,0.6,0.3
					c0.3-0.1,0.4-0.3,0.4-0.6c0-0.3,0.1-0.6,0.5-0.6c0.3,0,0.6,0.1,0.5,0.5c-0.1,0.5,0,0.9,0.1,1.4c0,0.3,0.2,0.5,0.5,0.5
					c0.1,0,0.2,0,0.3,0c0.4,0,0.7,0.1,0.6,0.6c0,0.6,0.2,1.1,0.7,1.5c0.2,0.2,0.4,0.3,0.6,0.2c0.3-0.1,0.5-0.2,0.8,0
					c0.1,0.1,0.2,0,0.2-0.2c0-0.4,0.2-0.6,0.5-0.7c0.3-0.1,0.4-0.4,0.6-0.6c0.2,0.2,0.1,0.5,0.3,0.9c0.1-0.3,0.1-0.5,0.2-0.7
					c0-0.1,0-0.2,0.1-0.2c0.1,0,0.2,0.1,0.2,0.2c0,0.2,0.1,0.4,0.3,0.2c0,0,0.1,0,0.1,0c0.3,0.6,0.6,0.2,0.9,0
					c0.2-0.1,0.3-0.2,0.5,0c0.1,0.1,0.3,0.1,0.4,0c0.3-0.2,0.4,0,0.5,0.3c0.1,0.4,0.3,0.6,0.7,0.7c0.1,0,0.2,0,0.2,0.1
					c0.4,0.5,1,0.4,1.6,0.4c0.8,0,1.3,0.7,1.1,1.5c0,0.1-0.1,0.2,0,0.3c0.1,0.1,0.2,0.1,0.3,0c0.1-0.1,0.2-0.1,0.4-0.2
					c0.3-0.2,0.6-0.2,0.9-0.1c0.5,0.3,0.9,0.2,1.4,0.2c0.4-0.1,0.8,0.1,1.1,0.4c0.4,0.3,0.4,0.7,0.1,1.1c-0.1,0.2-0.2,0.4-0.4,0.6
					c-0.5,0.5-0.6,1.2-0.8,1.9c-0.2,0.5-0.5,0.9-1,1.1c-0.2,0.1-0.4,0.2-0.6,0.5c-0.2,0.4-0.5,0.8-0.9,1c-0.2,0.1-0.3,0.2-0.4,0.4
					c-0.6,0.1-1.2,0.2-1.8,0.1c-0.2-0.2-0.5-0.4-0.7-0.6c-0.2-0.2-0.4-0.4-0.5-0.6c-0.4-0.8-1-1.3-1.8-1.5c-0.8-0.3-1.5-0.7-2-1.2
					c-0.3-0.3-0.8-0.5-1-0.9c-0.2-0.4-0.3-0.8-0.5-1.2c-0.1-0.2-0.1-0.3,0-0.5c0.4-0.8,0.1-1.5-0.4-2.1c-0.1-0.2-0.3-0.4-0.4,0
					c-0.1,0.1-0.3,0.2-0.3,0.1c-0.2-0.2-0.5-0.3-0.8-0.4c-0.6-0.2-0.9-0.7-1.3-1.1c-0.2-0.3-0.4-0.5-0.7-0.6
					c-0.5-0.1-0.9-0.3-1.2-0.7c-0.1-0.1-0.3-0.2-0.5-0.2c-1.1,0-1.9-0.4-2.5-1.4c-0.1-0.1-0.1-0.2-0.2-0.3c-0.5-0.2-0.6-0.6-0.8-1.1
					c-0.1-0.4-0.3-0.7-0.5-1.2c-0.1,0.3,0.2,0.4,0.1,0.7c-0.2-0.1-0.4-0.2-0.5-0.4c-0.9-1.3-0.7-3-1.3-4.5c0,0,0-0.1,0-0.1
					c0.2-0.6,0-1.3-0.2-1.9c0-0.1-0.1-0.3-0.1-0.4c0-1.3,0.3-2.5,0.9-3.7c0.1-0.2,0.2-0.3,0.2-0.5c0.1-1.2,0.7-2.2,1.2-3.1
					c0.4-0.7,0.6-1.6,1.3-2.2c0.1-0.1,0.1-0.3-0.1-0.4c-0.2-0.1-0.2,0.1-0.2,0.2c-0.1,0.3-0.3,0.4-0.5,0.6c-0.1,0.1-0.2,0.2-0.3,0.1
					c-0.1-0.1,0-0.2-0.1-0.3l0,0c0.1,0,0.1,0,0.1-0.1l0,0c0.1,0,0.1,0,0.1-0.1l0,0c0.1,0,0.1-0.1,0.1-0.2
					C54.4,88.3,56.1,86.9,58.2,85.9z M51.6,105.2c-0.1-0.6-0.1-1.2-0.4-1.7C51.4,104.1,51.3,104.7,51.6,105.2z"/>
				<path fill="#F2F1F9" d="M52.7,90.5c0,0.1-0.1,0.3,0.1,0.3c0.1,0.1,0.2-0.1,0.3-0.1c0.2-0.1,0.4-0.3,0.5-0.6
					c0-0.1,0.1-0.3,0.2-0.2c0.1,0.1,0.2,0.2,0.1,0.4c-0.6,0.6-0.9,1.5-1.3,2.2c-0.5,1-1.1,2-1.2,3.1c0,0.2-0.2,0.3-0.2,0.5
					c-0.6,1.2-0.9,2.4-0.9,3.7c0,0.1,0,0.3,0.1,0.4c0.2,0.6,0.3,1.2,0.2,1.9c0,0,0,0.1,0,0.1c0.5,1.5,0.4,3.1,1.3,4.5
					c0.1,0.2,0.3,0.4,0.5,0.4c0.1-0.2-0.2-0.4-0.1-0.7c0.2,0.4,0.4,0.8,0.5,1.2c0.2,0.4,0.3,0.9,0.8,1.1c0.1,0,0.2,0.2,0.2,0.3
					c0.5,1,1.4,1.4,2.5,1.4c0.2,0,0.3,0.1,0.5,0.2c0.3,0.3,0.7,0.6,1.2,0.7c0.3,0,0.5,0.3,0.7,0.6c0.4,0.5,0.7,0.9,1.3,1.1
					c0.3,0.1,0.6,0.1,0.8,0.4c0.1,0.1,0.3,0,0.3-0.1c0.2-0.4,0.3-0.2,0.4,0c0.5,0.6,0.8,1.3,0.4,2.1c-0.1,0.2-0.1,0.3,0,0.5
					c0.2,0.4,0.3,0.8,0.5,1.2c0.2,0.4,0.7,0.6,1,0.9c0.6,0.6,1.3,1,2,1.2c0.7,0.3,1.4,0.7,1.8,1.5c0.1,0.3,0.3,0.4,0.5,0.6
					c0.2,0.2,0.5,0.4,0.7,0.6c-1.2,0.2-2.5,0.1-3.7-0.2c-8.1-1.5-13.4-6.1-15.7-14c-1.8-6.2-0.4-11.9,3.5-17
					C52.5,90.6,52.6,90.5,52.7,90.5z"/>
				<path fill="#1C1A28" d="M82.6,114.5c-0.1-0.2,0.1-0.4,0.2-0.5c0.7-0.6,0.9-1.5,1.3-2.3c0.5-0.9,0.5-2,1-2.9
					c0.1-0.2,0-0.4-0.1-0.5c-0.2-0.1-0.3,0-0.4,0.1c-0.4,0.2-0.5,0.6-0.7,0.9c-0.4,0.6-0.6,0.6-1.1,0c-0.2-0.3-0.3-0.6-0.4-0.8
					c-0.2-0.4-0.3-0.8-0.6-1.1c-0.1-0.1-0.2-0.2-0.2-0.4c0.2-0.8-0.1-1.7,0-2.5c0-0.1,0-0.3-0.1-0.4c-0.2-0.6-0.2-1.2,0-1.9
					c0.1-0.3,0-0.6,0-0.9c0-0.2-0.1-0.3,0-0.4c0.5-0.6,0.2-1.2,0.2-1.9c0-0.5,0-1.1,0-1.6c0-0.3,0.2-0.4,0.4-0.5
					c0.3-0.1,0.4-0.3,0.4-0.5c0-0.5,0.2-0.8,0.6-1.1c0.1-0.1,0.1-0.2,0.2-0.3c0.2,0.1,0.4,0.4,0.4,0.6c0.1,0.6,0.5,0.8,0.9,1.1
					c0.1,0.1,0.2,0.1,0.2,0.1c0.1-0.1,0-0.2,0-0.3c-0.2-0.6-0.1-0.8,0.4-0.9c0.6,1.4,1,2.8,1.1,4.3c0.7,5.2-0.6,9.9-3.6,14.1
					C82.9,114.3,82.8,114.4,82.6,114.5z"/>
				<path fill="#1C1A28" d="M84.6,93.9c0,0.1,0,0.1-0.1,0.2c0,0.1-0.1,0.3-0.2,0.3c-0.2,0-0.1-0.2-0.2-0.2C84,94.1,84,94.1,83.9,94
					c0,0-0.1-0.1-0.1-0.1c0,0-0.1-0.1-0.1-0.1c0,0.1,0,0.1,0,0.1c0,0,0,0.1,0.1,0.1c0,0.1,0,0.3,0.1,0.4c0,0-0.1,0.1-0.1,0.1
					c-0.3-0.8-1.2-1.1-1.8-1.7c-0.4,0.8-0.1,1.6,0.2,2.3c0.2,0.4,0.2,0.8,0.1,1.2c-0.1,0.4-0.4,0.6-0.8,0.6c-0.4,0-0.6-0.2-0.7-0.6
					c-0.1-0.6-0.6-1-0.9-1.6c-0.3-0.6-0.3-0.6,0.3-0.8c0.5-0.2,0.6-0.3,0.2-0.7c-0.1-0.1-0.1-0.1-0.2-0.2c-0.1-0.5-0.4-0.7-0.9-0.7
					c-0.3,0-0.3-0.2-0.2-0.4c0.2-0.4,0.2-0.8,0-1.2c-0.1-0.2-0.1-0.3-0.3-0.4c-0.2-0.1-0.3-0.3-0.2-0.5c0-0.3-0.1-0.5-0.4-0.7
					c-0.4-0.2-0.9-0.4-0.9-1c0-0.1-0.1-0.3-0.2-0.3C77,87.8,77,88,77,88.1c0,0.3-0.2,0.3-0.4,0.2c-0.1-0.1-0.2-0.2-0.3-0.4
					c-0.2-0.2-0.3-0.3-0.7-0.3c-0.5,0-0.7-0.4-1-0.7c-0.7-0.6-1.4-1.3-2.4-1.4c-0.1,0-0.2,0-0.2-0.1c-0.1-0.1-0.1-0.3-0.3-0.4
					c-0.2-0.1-0.4-0.1-0.5-0.3c0.5-0.5,1.1-0.3,1.6-0.5c2.5,0.7,4.8,1.9,6.8,3.5C81.7,89.4,83.4,91.4,84.6,93.9z"/>
				<path fill="#9BC200" d="M53,90.1c0,0.1,0,0.2-0.1,0.2C52.8,90.2,52.9,90.1,53,90.1z"/>
				<path fill="#9BC200" d="M52.8,90.3c0,0.1,0,0.1-0.1,0.1C52.7,90.3,52.8,90.3,52.8,90.3z"/>
				<path fill="#9BC200" d="M52.8,90.4c0,0.1,0,0.1-0.1,0.1C52.7,90.4,52.7,90.4,52.8,90.4z"/>
				<path fill="#1C1A28" d="M67.7,84.4c-1,0.4-1.9-0.1-2.8,0.2c0.5,0.2,0.9,0.3,1.4,0.5c0.2,0.1,0.5,0.1,0.4,0.5
					c0,0.1,0.4,0.3,0.6,0.4c0.5,0.2,0.7,0.7,0.2,1.1c-0.2,0.2-0.4,0.3-0.3,0.7c0,0,0,0.1,0,0.1c-0.7,0.6-0.2,1.4-0.3,2
					c0,0.1,0.1,0.3-0.1,0.4c-0.2,0.1-0.4,0.1-0.6,0c-0.9-0.4-1.4-1.2-1.7-2.1c0-0.1,0-0.1,0-0.2c0.1-0.3,0.3-0.7-0.2-0.9
					c0.1-0.4-0.1-0.7-0.2-1c-0.1-0.6-0.4-0.9-1-0.4c-0.6,0.6-1.3,0.2-2,0.3c-0.2,0-0.2-0.2-0.1-0.3c0.3-0.2,0.5-0.5,0.9-0.5
					c0.1,0,0.2,0,0.3-0.1c0.8-0.4,1.7-0.6,2.4-1.2c0.1-0.1,0.2-0.1,0.3,0c0.7,0.4,1.4,0.2,2.1,0.2C67.2,84.3,67.4,84.3,67.7,84.4z"
					/>
				<path fill="#1C1A28" d="M75.9,88.7c0.5,0.1,0.9,0.3,1.2,0.6c0.3,0.2,0.6,0.5,0.9,0.6c0.4,0.2,0.6,0.6,0.9,0.9
					c0.2,0.2-0.1,0.9-0.3,0.9c-0.2,0.1-0.3,0-0.4-0.2c-0.1-0.4-0.3-0.4-0.5-0.1c-0.2,0.2-0.3,0.2-0.4,0c-0.1-0.3-0.3-0.5-0.6-0.5
					c-0.1,0-0.2-0.1-0.2-0.3c0-0.1,0-0.2,0-0.3c0-0.5-0.2-0.9-0.7-1.1c-0.1,0-0.3-0.1-0.2-0.3C75.8,88.9,75.7,88.7,75.9,88.7z"/>
				<path fill="#1C1A28" d="M61.7,108.9c0-0.1,0.2-0.2,0.1-0.4c-0.1-0.2-0.3-0.2-0.4-0.1c-0.6,0.1-1-0.1-1.5-0.5
					c-0.5-0.3-1-0.6-1.5-0.3c-0.1,0-0.1,0-0.2,0c0.4-0.7,1.4-0.7,2.1-0.2c0.5,0.4,1.1,0.8,1.9,0.8c0.4,0,0.7,0.3,1.1,0.3
					c0.2,0,0.1,0.2,0,0.2C62.6,109,62.2,109.2,61.7,108.9z"/>
				<path fill="#1C1A28" d="M65.7,96.3c-0.1,0-0.3,0-0.4-0.1c-0.2-0.2-0.5-0.3-0.7,0c-0.2,0.2-0.2,0-0.2-0.2
					c0.1-0.4,0.3-0.8,0.3-1.2c0-0.2,0.2-0.2,0.4,0c0.1,0.2,0.2,0.3,0.4,0.3c0.1,0,0.2,0.1,0.2,0.2c0,0.2,0.1,0.4,0.2,0.5
					C66,95.9,66,96,66,96.2C65.9,96.3,65.8,96.3,65.7,96.3z"/>
				<path fill="#1C1A28" d="M71.9,88.3c-0.6,0.1-0.8-0.5-1.2-0.6c-0.2,0,0-0.2,0.2-0.2c0.2,0,0.4-0.1,0.5-0.3
					c0.1-0.1,0.2-0.1,0.4-0.1c0.2,0.1,0.4,0.2,0.6,0.4c0.2,0.2,0.3,0.4,0.2,0.6C72.4,88.3,72.1,88.3,71.9,88.3z"/>
				<path fill="#1C1A28" d="M60.9,109.1c0,0.2-0.2,0.3-0.3,0.2c-0.2,0-0.3-0.1-0.3-0.3c0-0.2,0.2-0.2,0.4-0.2
					C60.8,108.9,60.9,109,60.9,109.1z"/>
				<path fill="#1C1A28" d="M60.3,106.7c0,0.2-0.1,0.2-0.2,0.2c-0.2,0-0.3-0.1-0.3-0.3c0-0.1,0.1-0.2,0.2-0.1
					C60.1,106.4,60.2,106.6,60.3,106.7z"/>
				<path fill="#1C1A28" d="M60.2,105.8c0,0.1-0.1,0.1-0.2,0.2c-0.2,0-0.3-0.1-0.4-0.3c0-0.1,0-0.1,0.1-0.1
					C60,105.6,60.2,105.6,60.2,105.8z"/>
				<path fill="#1C1A28" d="M64.1,108.9c0,0.1-0.1,0.1-0.1,0.1c-0.1,0-0.2,0-0.3-0.2c0-0.1,0.1-0.2,0.2-0.2
					C64,108.7,64.1,108.7,64.1,108.9z"/>
				<path fill="#F2F1F9" d="M51.6,105.2c-0.3-0.5-0.2-1.1-0.4-1.7C51.6,104.1,51.5,104.7,51.6,105.2z"/>
				<path fill="#9BC200" d="M83.7,93.9c-0.1,0-0.1-0.1,0-0.1C83.7,93.8,83.7,93.9,83.7,93.9C83.8,93.9,83.7,93.9,83.7,93.9z"/>
				<path fill="#9BC200" d="M83.8,94.1c0,0,0-0.1-0.1-0.1c0,0,0,0,0,0C83.8,93.9,83.8,93.9,83.8,94.1C83.8,94,83.8,94,83.8,94.1z"/>
			</g>
		</g>
		<g>
			<path fill="#B08937" d="M85.3,95.8c2.4,0.6,2.8,2.8,2.9,3.8h4.5c0.3-3,0.3-5.1-0.6-6.9c-9.5-0.8-12.3-3.7-13.2-5.2
				c-0.6,1.2-1,2.4-1.2,3.7l0.1-0.1C77.9,91.2,82.7,95.2,85.3,95.8z"/>
			<path fill="#B08937" d="M84.4,90.9c-0.1-0.7-0.2-3,1.2-4.3c-0.8-1-1.1-2.1-0.9-3c0.2-1.2,1.7-2.3,2.1-2.6c-3.3,1-6.1,3.2-7.7,6.2
				C79.5,88,80.7,89.6,84.4,90.9z"/>
			<path fill="#B08937" d="M86.5,86.8c-0.3,0-0.5,0-0.6,0c-1.4,1.2-1.2,3.8-1.1,4.2c1.8,0.6,4.2,1.1,7.3,1.4c0.4-0.6,3-4.6,9-6
				c-1-1.5-2.2-2.8-3.7-3.8c-0.9,0.3-3,1.1-5.1,2.5C90,86.6,87.6,86.8,86.5,86.8z"/>
			<path fill="#B08937" d="M87.8,99.7c0-0.4-0.2-3-2.6-3.6c-2.5-0.6-6.8-4-7.5-4.6c-0.1,0.6-0.1,1.2-0.1,1.8c0,2.5,0.7,4.8,1.9,6.8
				c1.3,0.6,3.6,1.6,5.1,1.8C86.5,102.2,87.7,100,87.8,99.7z"/>
			<path fill="#B08937" d="M85.1,83.6c-0.2,0.9,0.1,1.8,0.9,2.8c0.5,0,3.5,0.2,6.1-1.6c2-1.3,3.9-2.1,5-2.5
				c-1.9-1.2-4.2-1.9-6.7-1.9c-0.9,0-1.9,0.1-2.8,0.3C87.2,81,85.3,82.4,85.1,83.6z"/>
			<path fill="#B08937" d="M97.1,94.7L97.1,94.7l1.8-2.9c-0.6-1.8-1.7-3.2-2-3.5c-0.9,0.5-1.7,1.1-2.3,1.6c-1.4,1.2-2.1,2.3-2.3,2.6
				c2.1,4.3-0.3,12.3-0.7,13.5c1.5-0.2,3-0.6,4.3-1.2c0.1-0.2,0.3-0.5,0.3-0.5C97.5,101,97.8,97.6,97.1,94.7z"/>
			<path fill="#B08937" d="M102.2,93.4l-3-1.4l-1.7,2.7c0.7,3,0.4,6.4-0.8,9.7c0,0,0,0,0,0.1c2.7-1.5,4.7-3.9,5.8-6.8
				C102.5,95.6,102.3,93.8,102.2,93.4z"/>
			<path fill="#B08937" d="M99.2,91.7l3.3,1.5l0,0.1c0,0,0.2,1.4,0.2,3.2c0.3-1,0.4-2.1,0.4-3.1c0-2.4-0.7-4.7-1.9-6.6
				c-1.6,0.4-3,0.9-4.1,1.5C97.6,88.6,98.6,89.9,99.2,91.7z"/>
			<path fill="#B08937" d="M88.1,99.7c-0.2,1-1.3,2.5-3.1,2.5c-0.1,0-0.3,0-0.4,0c-1.4-0.2-3.3-1-4.7-1.6c2.3,3.3,6.2,5.5,10.5,5.5
				c0.3,0,0.6-0.1,0.9-0.1c0.2-0.6,1-2.3,1.3-6.3H88.1z"/>
			<path fill="#674417" d="M91.2,106.2h0.4c0,0,0-0.1,0-0.2c-0.1,0-0.3,0-0.4,0C91.3,106.1,91.2,106.2,91.2,106.2z"/>
			<path fill="#674417" d="M92.4,92.5c0.2-0.3,0.9-1.4,2.3-2.6c0.6-0.5,1.3-1.1,2.3-1.6c0-0.1-0.1-0.1-0.1-0.1l0.3-0.2
				c0,0,0.1,0.1,0.1,0.1c1.1-0.6,2.5-1.1,4.1-1.5c-0.1-0.1-0.1-0.2-0.2-0.3c-6,1.4-8.7,5.4-9,6c0,0,0.1,0,0.1,0l0,0.3
				c0,0-0.1,0.1-0.1,0.1c0.9,1.8,0.9,3.9,0.6,6.9h-0.4l0,0h0.3c-0.4,4-1.2,5.7-1.3,6.3c0.1,0,0.3,0,0.4,0
				C92.1,104.7,94.4,96.8,92.4,92.5z"/>
			<path fill="#674417" d="M92.1,92.7c0,0,0-0.1-0.1-0.1l0-0.1l0-0.1c0,0,0,0,0.1-0.1c-3.1-0.3-5.5-0.8-7.3-1.4c0,0,0,0.1,0,0.1
				l-0.3,0.1c0,0,0-0.1,0-0.2c-3.7-1.3-4.9-2.9-5.3-3.7c-0.1,0.1-0.1,0.3-0.2,0.4C79.7,89,82.5,91.8,92.1,92.7z"/>
			<path fill="#674417" d="M92,92.5L92,92.5c0.1,0.1,0.1,0.1,0.1,0.2c0,0,0.1,0,0.1,0l0-0.3c0,0-0.1,0-0.1,0
				C92,92.4,92,92.4,92,92.5L92,92.5z"/>
			<path fill="#674417" d="M102.6,93.2L102.6,93.2l-3.3-1.6c0,0,0,0.1,0.1,0.1L99,91.9c0,0,0-0.1,0-0.1l-1.8,2.8l0,0.1
				c0.7,2.9,0.4,6.3-0.8,9.5c0,0-0.2,0.3-0.3,0.5c0.2-0.1,0.4-0.2,0.6-0.3c0,0,0-0.1,0-0.1c1.2-3.3,1.5-6.7,0.8-9.7l1.7-2.7l3,1.4
				c0.1,0.4,0.3,2.2,0.2,4.3c0.2-0.4,0.3-0.9,0.4-1.3C102.8,94.6,102.6,93.3,102.6,93.2z"/>
			<path fill="#674417" d="M96.9,88.3c0.3,0.3,1.4,1.7,2,3.5l0.1-0.2l0.2,0.1c-0.6-1.8-1.7-3.1-2-3.6C97.1,88.2,97,88.2,96.9,88.3z"
				/>
			<path fill="#674417" d="M97.1,88l-0.3,0.2c0,0,0,0,0.1,0.1c0.1-0.1,0.2-0.1,0.3-0.2C97.2,88,97.1,88,97.1,88z"/>
			<path fill="#674417" d="M98.9,91.8c0,0,0,0.1,0,0.1l0.3-0.1c0,0,0-0.1-0.1-0.1l-0.2-0.1L98.9,91.8z"/>
			<path fill="#674417" d="M87.7,80.7l-0.8,0.2c0.1-0.1,0,0-0.1,0C87.1,80.9,87.3,80.8,87.7,80.7C87.6,80.7,87.7,80.7,87.7,80.7z"/>
			<path fill="#674417" d="M84.7,83.5c-0.2,1,0.1,2,0.9,3c0,0,0.1-0.1,0.1-0.1l0.2,0.3c0,0,0,0,0,0c0.1,0,0.3,0,0.6,0
				c1.1,0,3.6-0.2,5.8-1.7c2.2-1.4,4.2-2.2,5.1-2.5c-0.1-0.1-0.2-0.2-0.4-0.2c-1,0.4-2.9,1.2-5,2.5c-2.6,1.8-5.6,1.6-6.1,1.6
				c-0.7-1-1-1.9-0.9-2.8c0.2-1.3,2.2-2.6,2.5-2.8c-0.3,0.1-0.6,0.1-0.8,0.2C86.4,81.2,85,82.3,84.7,83.5z"/>
			<path fill="#674417" d="M85.9,86.8C85.9,86.8,85.8,86.8,85.9,86.8l-0.2,0l0-0.1c0,0-0.1-0.1-0.1-0.1c-1.4,1.3-1.3,3.5-1.2,4.3
				c0.1,0,0.2,0.1,0.4,0.1C84.7,90.6,84.5,88,85.9,86.8z"/>
			<path fill="#674417" d="M84.4,91.1l0.3-0.1c0,0,0,0,0-0.1c-0.1,0-0.2-0.1-0.4-0.1C84.4,91,84.4,91.1,84.4,91.1z"/>
			<path fill="#674417" d="M85.7,86.8L85.7,86.8c0.1,0,0.1,0,0.2,0c0,0,0,0,0,0l-0.2-0.3c0,0-0.1,0.1-0.1,0.1
				C85.6,86.6,85.7,86.7,85.7,86.8L85.7,86.8z"/>
			<path fill="#674417" d="M77.6,91.4C77.6,91.4,77.6,91.5,77.6,91.4c0.1,0,0.1-0.1,0.1-0.1L77.6,91.4z"/>
			<path fill="#674417" d="M85,102.1c1.8,0,2.9-1.5,3.1-2.5h0.1l0,0h0c-0.1-1-0.4-3.3-2.9-3.8c-2.6-0.6-7.4-4.6-7.5-4.6l-0.1,0.1
				c0,0.1,0,0.1,0,0.2c0.7,0.6,5,4,7.5,4.6c2.4,0.6,2.6,3.2,2.6,3.6c-0.2,0.3-1.3,2.5-3.2,2.2c-1.5-0.2-3.8-1.2-5.1-1.8
				c0.1,0.2,0.2,0.4,0.4,0.6c1.3,0.6,3.3,1.3,4.7,1.6C84.7,102.2,84.8,102.1,85,102.1z"/>
			<path fill="#674417" d="M88,99.8L88,99.8l0.1-0.1c0,0,0.1,0,0,0h4.5c0,0,0,0,0,0h-4.5C88.2,99.7,88,99.8,88,99.8z"/>
			<path fill="#674417" d="M92.8,99.9v-0.3h-0.1c0,0.1,0,0.2,0,0.3H92.8z"/>
			<path fill="#674417" d="M88.2,99.8L88.2,99.8c0,0,0-0.1,0-0.2h-0.2v0.3h0.2C88.1,99.8,88.1,99.8,88.2,99.8L88.2,99.8z"/>
		</g>
		<g>
			<path fill="#F2F1F9" d="M106,177.8v1.4c0,1.7-0.8,2.6-2.4,2.6c-1.6,0-2.4-0.9-2.4-2.6v-5.4c0-1.7,0.8-2.6,2.4-2.6
				c1.6,0,2.4,0.9,2.4,2.6v1h-1.5v-1.1c0-0.7-0.3-1-0.8-1s-0.8,0.3-0.8,1v5.6c0,0.7,0.3,1,0.8,1s0.8-0.3,0.8-1v-1.5H106z"/>
			<path fill="#F2F1F9" d="M108.6,181.6H107v-10.4h1.6v4.4h1.9v-4.4h1.7v10.4h-1.7v-4.4h-1.9V181.6z"/>
			<path fill="#F2F1F9" d="M113.3,171.2h1.6v10.4h-1.6V171.2z"/>
			<path fill="#F2F1F9" d="M116.1,171.2h1.6v8.9h2.7v1.5h-4.3V171.2z"/>
			<path fill="#F2F1F9" d="M122.8,175.6h2.2v1.5h-2.2v3h2.8v1.5h-4.4v-10.4h4.4v1.5h-2.8V175.6z"/>
			<path fill="#F2F1F9" d="M100.8,184.6c1.4,0,1.8-0.7,2.1-1.5h1.3V195h-1.9v-9.1h-1.4V184.6z"/>
			<path fill="#F2F1F9" d="M111.9,192.1c0,2-0.9,3.1-2.9,3.1c-1.8,0-2.8-1.1-2.8-3v-0.3h1.8v0.4c0,0.9,0.4,1.2,1,1.2
				c0.7,0,1-0.3,1-1.5v-2.2c-0.3,0.7-0.9,1.1-1.7,1.1c-1.4,0-2.1-1-2.1-2.7V186c0-1.9,1-3,2.8-3s2.8,1.1,2.8,3V192.1z M110,188v-2.1
				c0-0.9-0.4-1.2-1-1.2c-0.6,0-1,0.3-1,1.2v2.1c0,0.9,0.4,1.2,1,1.2C109.6,189.2,110,188.9,110,188z"/>
			<path fill="#F2F1F9" d="M113,186.1c0-2,0.9-3.1,2.9-3.1c1.8,0,2.8,1.1,2.8,3v0.3h-1.8v-0.4c0-0.9-0.4-1.2-1-1.2
				c-0.7,0-1,0.3-1,1.5v2.2c0.3-0.7,0.9-1.1,1.7-1.1c1.4,0,2.1,1,2.1,2.7v2.2c0,1.9-1,3-2.8,3s-2.8-1.1-2.8-3V186.1z M114.9,190.2
				v2.1c0,0.9,0.4,1.2,1,1.2s1-0.3,1-1.2v-2.1c0-0.9-0.4-1.2-1-1.2S114.9,189.3,114.9,190.2z"/>
			<path fill="#F2F1F9" d="M122.6,184.7c-0.6,0-1,0.3-1,1.2v1.3h-1.8V186c0-1.9,1-3,2.8-3c1.8,0,2.8,1.1,2.8,3
				c0,3.7-3.7,5.1-3.7,7.1c0,0.1,0,0.2,0,0.3h3.5v1.7h-5.4v-1.5c0-3.5,3.7-4.1,3.7-7.5C123.6,185,123.2,184.7,122.6,184.7z"/>
		</g>
	</g>
	<g>
		<path fill="#F9BD91" d="M118.5,65.8c0.5,0,9.6,7.9,9.8,8.7c0.2,0.8-0.5,4.3-0.5,4.3l8.2-1.4l1.1-5.2l-10.7-11.4L118.5,65.8z"/>
		<path fill="#407B59" d="M135.9,77.3L130,95.1l-4.1-1.2c0,0-0.9-8,2.5-17.1C128.3,76.8,132.2,75,135.9,77.3z"/>
		<path fill="#050503" d="M125.9,94c0,0,4.9-0.4,7.9,1.3c3,1.7,1.9,3.9,0.2,4.4C132.2,100.1,125.8,98.2,125.9,94z"/>
		<path fill="#F9BD91" d="M105.6,66.8c0.4,0.1,5.3,10.8,5.3,11.6c0,0.8-1.7,4-1.7,4l8.2,1.1l2.6-4.7l-6.8-14.1L105.6,66.8z"/>
		<path fill="#407B59" d="M117.2,83.4l-11,15.3l-3.6-2.4c0,0,1.5-7.9,7.5-15.6C110.2,80.7,114.4,80.2,117.2,83.4z"/>
		<path fill="#050503" d="M102.7,96.3c0,0,4.8,1.1,7.1,3.6c2.4,2.5,0.6,4.3-1.1,4.2C106.9,104.1,101.4,100.3,102.7,96.3z"/>
		<path fill="#F9BD91" d="M84.1,11.7l8.2,12.7l6.6,2.4l-2.3,4l-8.2-3.4l-7.6-15.2C80.9,12.3,81.8,9.9,84.1,11.7z"/>
		<path fill="#F9BD91" d="M126.8,11.1l2,11.8l-4.5,2l2.3,4l8.2-3.4l-6-16.7C128.8,8.7,126.7,10.1,126.8,11.1z"/>
		<g>
			<polygon fill="#407B59" points="122.8,53 120.2,31.9 128.9,28.4 125.7,22.5 115.9,24.9 112.8,25.7 106.6,26.5 99.7,25 96.8,23.3 
				92.6,32.1 100,34.9 103.9,56.3 122.8,53 			"/>
			<polygon fill="#FFFFFF" points="102.9,62.6 107.7,74.9 118.5,71.6 118.2,66.6 121.4,71.4 132.9,67.3 122.9,53 104,56.3 104,56.4 
							"/>
		</g>
		<path fill="#F9BD91" d="M114.4,7l2,13.4c0.1,1.2-3.3,2.4-4.5,2.7l0.1,0.2l0.7,3.7c0,0,0,5.1-5.9,1.3l-1.1-9.4c0,0-1.7-0.2-1.9-2.1
			c-0.2-1.9,1.8-1.2,1.8-1.2L105,8.8L114.4,7z"/>
		<path fill="#F9BD91" d="M83.9,11.9c0,0,0.4-1.8,1.8-4.6c0,0-0.7-1.5-2.3,1.3c0,0-0.9-2.9-1.8-4.8s-5.7,1.1-3.8,5s3.5,4.4,3.5,4.4
			S83.3,12.6,83.9,11.9z"/>
		<path fill="#F9BD91" d="M126.7,11.1c0,0-1.4-1.2-4.2-2.6c0,0-0.4-1.6,2.6-0.4c0,0-1-2.9-1.5-5c-0.5-2.1,5.2-2.6,6,1.6
			c0.9,4.3-0.1,5.6-0.1,5.6S127.6,11.3,126.7,11.1z"/>
		<path fill="#231F20" d="M114.6,9.4c0,0,1.6-1,0.8-3.7c0,0-5.7-3.2-12,0.7c0,0-2.1,4.8,0.6,9.3c0,0,1.7-1,2,0.5
			c0.3,1.5,0.5,2.7,0.5,2.7l1.8-0.9c0,0-2.9-5.6-1.9-8.1C106.4,9.9,110,7.7,114.6,9.4z"/>
	</g>
	<g>
		<path fill="#F9BD91" d="M171.7,135l0.9,11.9l-4.6,1.6l1.9,4.2l8.4-2.6l-4.4-17.2C174,132.9,171.7,134,171.7,135z"/>
		<path fill="#F9BD91" d="M171.7,135c0,0-1.3-1.3-4-3c0,0-0.2-1.7,2.7-0.1c0,0-0.8-2.9-1-5.1c-0.3-2.1,5.4-2.1,5.9,2.2
			c0.5,4.3-0.6,5.6-0.6,5.6S172.5,135.3,171.7,135z"/>
		<path fill="#F9BD91" d="M150.3,192c-0.4-0.3-9.8,14-10.3,14.6c-0.5,0.6-1.7,4-1.7,4l-6.5-5.1l1.6-5.1l9.1-12.1L150.3,192z"/>
		<path fill="#407B59" d="M132,205.4l-3.4,18.5l4.2,1c0,0,4.6-6.6,6.1-16.2C138.8,208.7,136.3,205.3,132,205.4z"/>
		<path fill="#050503" d="M132.7,224.9c0,0-4.1-2.7-7.5-2.7s-3.5,2.5-2.3,3.7S130.8,228.6,132.7,224.9z"/>
		<path fill="#F9BD91" d="M164.6,189.9c-0.4,0.1-4.3,11.3-4.2,12.1c0.1,0.8,2.1,3.8,2.1,3.8l-8.1,1.9l-3-4.4l5.5-14.6L164.6,189.9z"
			/>
		<path fill="#407B59" d="M154.5,207.5l12.4,14.2l3.3-2.7c0,0-2.3-7.7-8.9-14.9C161.3,204.2,157.1,204,154.5,207.5z"/>
		<path fill="#050503" d="M170.3,219c0,0-4.7,1.6-6.8,4.2s-0.2,4.3,1.5,4.1S171.9,222.8,170.3,219z"/>
		<path fill="#F9BD91" d="M138.3,136.4l-0.9,11.9l4.6,1.6l-1.9,4.2l-8.4-2.6l4.4-17.2C136,134.2,138.3,135.4,138.3,136.4z"/>
		<g>
			<polygon fill="#407B59" points="146.3,177.7 146.8,156.5 137.8,153.8 140.5,147.7 150.4,149.1 153.5,149.6 159.8,149.9 
				166.6,147.7 169.3,145.8 174.3,154.1 167.2,157.5 165.4,179.2 146.3,177.7 			"/>
			<polygon fill="#FFFFFF" points="166.8,185.4 163.2,198.1 152.2,195.9 152.1,190.8 149.3,195.9 137.4,192.9 146,177.8 
				165.2,179.3 165.2,179.4 			"/>
		</g>
		<path fill="#F9BD91" d="M150.2,131.2l-0.7,13.5c0,1.2,3.5,2.1,4.7,2.3l-0.1,0.2l-0.3,3.7c0,0,0.5,5.1,6,0.7l0.2-9.5
			c0,0,1.7-0.3,1.7-2.2c0-1.9-1.9-1-1.9-1l0-6.9L150.2,131.2z"/>
		<path fill="#F9BD91" d="M138.3,136.4c0,0,1.3-1.3,4-3c0,0,0.2-1.7-2.7-0.1c0,0,0.8-2.9,1-5.1c0.3-2.1-5.4-2.1-5.9,2.2
			c-0.5,4.3,0.6,5.6,0.6,5.6S137.5,136.6,138.3,136.4z"/>
		<path fill="#231F20" d="M149.9,136.4c0,0-2.5-4.3,0.8-7.1c0,0,3.8-2.8,10.6,1.2c0,0,2.4,3.5,0.2,8.3c0,0-1.8-0.9-1.9,0.6
			c-0.2,1.5-0.3,2.8-0.3,2.8l-1.9-0.7c0,0,2.4-6.6,1.1-9C158.5,132.6,150.5,131.2,149.9,136.4z"/>
	</g>
	<g>
		<path fill="#F9BD91" d="M12.9,142.6l7.1,9.6l4.5-1.8l1.3,4.4l-8.1,3.5l-7.9-15.9C9.8,142.5,12.3,141.9,12.9,142.6z"/>
		<path fill="#F9BD91" d="M12.9,142.6c0,0,0.1-1.9,1.1-4.8c0,0-0.9-1.4-2.1,1.6c0,0-1.3-2.7-2.5-4.5c-1.2-1.8-5.5,1.9-3,5.5
			c2.4,3.6,4.1,3.8,4.1,3.8S12.4,143.3,12.9,142.6z"/>
		<path fill="#F9BD91" d="M36,189.7c0.5,0.1,6.9,10.3,6.9,11.1c0,0.8-1.7,4-1.7,4l8.2,1l2.5-4.7l-7-14L36,189.7z"/>
		<path fill="#407B59" d="M49.3,205.7l-10.8,15.4l-3.6-2.3c0,0,1.4-7.9,7.3-15.7C42.2,203.1,46.4,202.5,49.3,205.7z"/>
		<path fill="#050503" d="M34.9,218.8c0,0,4.8,1.1,7.2,3.5c2.4,2.5,0.7,4.3-1.1,4.2C39.2,226.5,33.6,222.8,34.9,218.8z"/>
		<path fill="#F9BD91" d="M23.9,192.1c0.5,0,7.3,9.6,7.5,10.4s-0.9,4.2-0.9,4.2l8.3-0.5l1.6-5.1l-9.4-12.5L23.9,192.1z"/>
		<path fill="#407B59" d="M38.6,206.1l-7.8,17.1l-4-1.6c0,0,0-8,4.3-16.8C31.1,204.8,35.1,203.5,38.6,206.1z"/>
		<path fill="#050503" d="M26.8,221.6c0,0,4.9,0.2,7.7,2.1c2.8,2,1.4,4.1-0.3,4.4S26.3,225.8,26.8,221.6z"/>
		<path fill="#F9BD91" d="M67.3,155.4l-10.2,6.2l-3.5-3.4l-2.9,3.6l6.1,6.4l13.4-11.6C70.2,156.5,68.1,155,67.3,155.4z"/>
		<g>
			<polygon fill="#407B59" points="43.8,178.7 47.4,157.8 52,165.2 57,158.2 50,151.3 42.1,149.7 35.9,148.7 27.9,146.7 19.8,150 
				21.3,158.3 27.1,154.7 24.8,176.4 43.8,178.7 			"/>
			<polygon fill="#FFFFFF" points="21.6,186.4 26.2,197.7 36.9,195.6 36.7,190.4 38.9,195.9 49.3,195.3 43.9,178.7 24.8,176.4 
				24.8,176.5 			"/>
		</g>
		<path fill="#F9BD91" d="M49,132.3l-2,13.4c-0.2,1.2-3.8,1.3-5.1,1.3l0.1,0.3l-0.4,3.7c0,0-1.5,4.9-6.1-0.5l1.7-9.4
			c0,0-1.6-0.6-1.2-2.5c0.4-1.9,2.1-0.6,2.1-0.6l1.4-6.7L49,132.3z"/>
		<path fill="#F9BD91" d="M67.3,155.4c0,0,0.6-1.8,0.9-4.9c0,0,1.4-0.9,1.3,2.3c0,0,2.3-2,4.1-3.2c1.8-1.2,4.3,3.9,0.7,6.2
			c-3.6,2.4-5.2,2-5.2,2S67.4,156.3,67.3,155.4z"/>
		<path fill="#231F20" d="M48.4,134.6c0,0,1.1,1.4,1.2-1.4c0,0-0.6-3.2-2.8-4.2c-5.6-2.4-11.7,2.5-10.4,8.5c0,0.1,0,0.1,0,0.2
			c0,0,1.9-0.5,1.8,1s-0.3,2.8-0.3,2.8l2-0.4c0,0-1.7-4.3,0-6.4C39.9,134.7,44.8,136.8,48.4,134.6z"/>
	</g>
	<g>
		<path fill="#EDEDEE" d="M160.5,155.7c0-0.1,0-0.2,0-0.3c0-0.1,0-0.1,0.1-0.1c0.5,0,1,0,1.4-0.2c0.4-0.1,0.8-0.3,1.1-0.5
			c0.1-0.1,0.2,0,0.2,0c0.2,0.2,0.5,0.3,0.8,0.4c0.5,0.2,1.1,0.2,1.6,0.2c0.1,0,0.2,0,0.2,0.2c0,1-0.1,1.9-0.5,2.8
			c-0.3,0.8-0.8,1.5-1.5,2.1c-0.2,0.2-0.4,0.3-0.6,0.4c-0.1,0.1-0.2,0.1-0.3,0c-0.5-0.3-0.9-0.6-1.2-1.1c-0.6-0.7-0.9-1.5-1.1-2.3
			C160.5,156.8,160.5,156.2,160.5,155.7z M160.6,155.9c0,1,0.2,1.9,0.6,2.7c0.4,0.8,0.9,1.5,1.7,2c0.1,0.1,0.2,0.1,0.3,0
			c0.5-0.3,0.9-0.6,1.2-1.1c0.9-1.2,1.2-2.5,1.2-4c0-0.1,0-0.1-0.1-0.1c-0.8,0-1.6-0.2-2.3-0.7c-0.1,0-0.1,0-0.2,0
			c-0.2,0.2-0.5,0.3-0.8,0.4c-0.5,0.2-1,0.2-1.5,0.2c-0.1,0-0.1,0-0.1,0.1C160.6,155.7,160.6,155.8,160.6,155.9z"/>
		<path fill="#333333" d="M160.6,155.9c0-0.1,0-0.2,0-0.4c0-0.1,0-0.1,0.1-0.1c0.5,0,1,0,1.5-0.2c0.3-0.1,0.5-0.2,0.8-0.4
			c0.1,0,0.1-0.1,0.2,0c0.7,0.5,1.5,0.7,2.3,0.7c0.1,0,0.1,0,0.1,0.1c0,1.5-0.3,2.8-1.2,4c-0.3,0.4-0.7,0.8-1.2,1.1
			c-0.1,0.1-0.2,0.1-0.3,0c-0.8-0.5-1.3-1.1-1.7-2C160.9,157.8,160.7,156.9,160.6,155.9z M163.8,160.1c0.2-0.1,0.4-0.3,0.5-0.5
			c0.7-0.8,1-1.8,1.2-2.8c0.1-0.4,0.1-0.8,0.1-1.2c0-0.1,0-0.2-0.2-0.2c-0.8,0-1.6-0.2-2.2-0.7c-0.1,0-0.1,0-0.1,0
			c-0.6,0.4-1.2,0.6-1.9,0.7c-0.1,0-0.3-0.1-0.4,0c-0.1,0.1,0,0.3,0,0.4c0,0.3,0,0.6,0.1,0.9c0,0.1,0,0.1,0,0.2
			c0.1,0.6,0.4,1.3,0.7,1.8c0.3,0.5,0.6,0.9,1,1.3c0.2,0.2,0.4,0.3,0.6,0.4c0,0,0.1,0,0.1,0C163.5,160.4,163.7,160.3,163.8,160.1z"
			/>
		<path fill="#EDEDEE" d="M160.9,156.8c-0.1-0.3-0.1-0.6-0.1-0.9c0-0.2-0.1-0.3,0-0.4c0.1-0.1,0.3,0,0.4,0c0.7,0,1.4-0.2,1.9-0.7
			c0,0,0.1-0.1,0.1,0c0.7,0.5,1.4,0.7,2.2,0.7c0.1,0,0.2,0,0.2,0.2c0,0.4,0,0.8-0.1,1.2c-0.5,0-1.1,0-1.6,0c-0.1,0-0.1,0-0.1,0.1
			c0,1.1,0,2.1,0,3.2c-0.2,0.2-0.4,0.3-0.6,0.4c0,0-0.1,0-0.1,0c-0.2-0.1-0.4-0.2-0.6-0.4c0-0.2,0-0.4,0-0.6c0-0.8,0-1.7,0-2.5
			c0-0.1,0-0.2-0.1-0.2C161.9,156.8,161.4,156.8,160.9,156.8z M161.4,156.2c-0.1-0.1-0.1-0.2-0.2-0.3c0-0.1-0.1-0.1-0.1-0.1
			c-0.1,0,0,0.1,0,0.1c0,0.2,0,0.4,0,0.6c0,0.1,0,0.1,0.1,0.1c0.1,0,0.1,0,0.1-0.1c0-0.1,0-0.2,0-0.3c0.2,0.2,0.2,0.2,0.3,0
			c0,0,0,0,0,0c0,0.1,0,0.2,0,0.3c0,0.1,0,0.1,0.1,0.1c0.1,0,0.1,0,0.1-0.1c0-0.2,0-0.4,0-0.6c0,0,0-0.1,0-0.1c-0.1,0-0.1,0-0.1,0.1
			C161.6,156,161.5,156.1,161.4,156.2z M165.3,156.3c0-0.1,0-0.3,0-0.4c0-0.1,0-0.1-0.1-0.1c-0.1,0-0.2,0-0.4,0
			c-0.1,0-0.1,0-0.1,0.1c0,0.2,0,0.4,0,0.6c0,0.1,0,0.1,0.1,0.1c0.1,0,0.3,0.1,0.4,0C165.4,156.6,165.3,156.4,165.3,156.3z
			 M162,156.3c0,0.1-0.1,0.3,0,0.4c0.1,0.1,0.3,0,0.4,0c0,0,0,0,0,0c0.1,0,0.1,0,0.1-0.1c0-0.1,0-0.1-0.1-0.1c-0.1,0-0.1,0-0.2,0
			c-0.1,0-0.1,0-0.1-0.1c0,0,0-0.1,0.1-0.1c0.1,0,0.1,0,0.2,0c0.1,0,0.1,0,0.1-0.1c0-0.1,0-0.1-0.1-0.1c-0.1,0-0.1,0-0.2,0
			c-0.1,0-0.1,0-0.1-0.1c0,0,0-0.1,0.1-0.1c0.1,0,0.1,0,0.2,0c0.1,0,0.1,0,0.1-0.1c0-0.1-0.1-0.1-0.1-0.1c-0.1,0-0.3,0-0.4,0
			C161.9,155.9,162,156.1,162,156.3z M163.4,156.7c-0.1-0.1-0.1-0.2-0.2-0.3c0-0.1,0-0.1,0-0.2c0.1-0.1,0.1-0.2,0.2-0.3
			c-0.2-0.1-0.2,0.1-0.3,0.2c-0.1-0.1-0.1-0.3-0.3-0.2c0.1,0.1,0.1,0.2,0.2,0.3c0.1,0.1,0,0.1,0,0.2c-0.1,0.1-0.1,0.2-0.2,0.3
			c0.2,0.1,0.2-0.2,0.4-0.3C163.2,156.5,163.2,156.8,163.4,156.7z M164,156.3c0,0.1,0,0.2,0,0.4c0,0.1,0,0.1,0.1,0.1
			c0.1,0,0.3,0,0.4,0c0.1,0,0.1,0,0.1-0.1c0-0.1,0-0.1-0.1-0.1c-0.1,0-0.1,0-0.2,0c-0.1,0-0.1,0-0.1-0.1c0,0,0-0.1,0-0.1
			c0-0.1,0-0.2,0-0.3c0.1-0.1,0.2,0,0.3,0c0,0,0,0,0,0c0.1,0,0.1,0,0.1-0.1c0-0.1,0-0.1-0.1-0.1c-0.1,0-0.3,0-0.4,0
			c-0.1,0-0.1,0-0.1,0.1C164,156,164,156.2,164,156.3z M163.8,156.3c0-0.1,0-0.2,0-0.3c0-0.1,0-0.1-0.1-0.1c-0.1,0-0.1,0-0.1,0.1
			c0,0.2,0,0.4,0,0.7c0,0.1,0,0.1,0.1,0.1c0.1,0,0.1,0,0.1-0.1C163.8,156.5,163.8,156.4,163.8,156.3z"/>
		<path fill="#407A59" d="M160.9,156.8c0.5,0,1.1,0,1.6,0c0.1,0,0.1,0.1,0.1,0.2c0,0.8,0,1.7,0,2.5c0,0.2,0,0.4,0,0.6
			c-0.4-0.3-0.7-0.8-1-1.3c-0.3-0.6-0.5-1.2-0.7-1.8C160.9,157,160.9,156.9,160.9,156.8z"/>
		<path fill="#7F2232" d="M163.8,160.1c0-1.1,0-2.1,0-3.2c0-0.1,0.1-0.1,0.1-0.1c0.5,0,1.1,0,1.6,0c-0.1,1-0.5,2-1.2,2.8
			C164.2,159.8,164,160,163.8,160.1z"/>
		<path fill="#3F3C3D" d="M161.4,156.2c0.1-0.1,0.1-0.2,0.2-0.3c0-0.1,0.1-0.1,0.1-0.1c0.1,0,0,0.1,0,0.1c0,0.2,0,0.4,0,0.6
			c0,0.1,0,0.1-0.1,0.1c-0.1,0-0.1-0.1-0.1-0.1c0-0.1,0-0.2,0-0.3c0,0,0,0,0,0c-0.2,0.2-0.2,0.2-0.3,0c0,0.1,0,0.2,0,0.3
			c0,0.1,0,0.1-0.1,0.1c-0.1,0-0.1-0.1-0.1-0.1c0-0.2,0-0.4,0-0.6c0,0,0-0.1,0-0.1c0.1,0,0.1,0,0.1,0.1
			C161.3,156,161.4,156.1,161.4,156.2z"/>
		<path fill="#3F3C3D" d="M165.3,156.3c0,0.1,0.1,0.3,0,0.4c-0.1,0.1-0.3,0-0.4,0c-0.1,0-0.1,0-0.1-0.1c0-0.2,0-0.4,0-0.6
			c0-0.1,0-0.1,0.1-0.1c0.1,0,0.2,0,0.4,0c0.1,0,0.1,0,0.1,0.1C165.3,156,165.3,156.2,165.3,156.3z M165.2,156.3c0,0,0-0.1,0-0.1
			c0-0.1,0-0.1-0.1-0.1c-0.1,0-0.1,0.1-0.1,0.1c0,0.1,0,0.2,0,0.3c0,0.1,0,0.1,0.1,0.1c0.1,0,0.1,0,0.1-0.1
			C165.2,156.4,165.2,156.3,165.2,156.3z"/>
		<path fill="#3F3C3D" d="M162,156.3c0-0.1-0.1-0.3,0-0.4c0.1-0.1,0.3,0,0.4,0c0.1,0,0.1,0,0.1,0.1c0,0.1-0.1,0.1-0.1,0.1
			c-0.1,0-0.1,0-0.2,0c-0.1,0-0.1,0-0.1,0.1c0,0.1,0,0.1,0.1,0.1c0.1,0,0.1,0,0.2,0c0.1,0,0.1,0,0.1,0.1c0,0.1,0,0.1-0.1,0.1
			c-0.1,0-0.1,0-0.2,0c-0.1,0-0.1,0-0.1,0.1c0,0.1,0,0.1,0.1,0.1c0.1,0,0.1,0,0.2,0c0.1,0,0.1,0,0.1,0.1c0,0.1,0,0.1-0.1,0.1
			c0,0,0,0,0,0c-0.1,0-0.3,0-0.4,0C161.9,156.6,162,156.4,162,156.3z"/>
		<path fill="#3F3C3D" d="M163.4,156.7c-0.3,0.1-0.2-0.2-0.4-0.3c-0.1,0.1-0.1,0.3-0.4,0.3c0-0.1,0.1-0.2,0.2-0.3
			c0-0.1,0.1-0.1,0-0.2c-0.1-0.1-0.1-0.2-0.2-0.3c0.2-0.1,0.2,0.1,0.3,0.2c0.1-0.1,0.1-0.3,0.3-0.2c0,0.1-0.1,0.2-0.2,0.3
			c0,0.1,0,0.1,0,0.2C163.3,156.5,163.4,156.6,163.4,156.7z"/>
		<path fill="#3F3C3D" d="M164,156.3c0-0.1,0-0.2,0-0.3c0-0.1,0-0.1,0.1-0.1c0.1,0,0.3,0,0.4,0c0,0,0.1,0,0.1,0.1
			c0,0.1,0,0.1-0.1,0.1c0,0,0,0,0,0c-0.1,0-0.2,0-0.3,0c-0.1,0.1,0,0.2,0,0.3c0,0,0,0.1,0,0.1c0,0.1,0,0.1,0.1,0.1
			c0.1,0,0.1,0,0.2,0c0.1,0,0.1,0,0.1,0.1c0,0.1,0,0.1-0.1,0.1c-0.1,0-0.3,0-0.4,0c-0.1,0-0.1,0-0.1-0.1
			C164,156.5,164,156.4,164,156.3z"/>
		<path fill="#3F3C3D" d="M163.8,156.3c0,0.1,0,0.2,0,0.3c0,0.1,0,0.1-0.1,0.1c-0.1,0-0.1,0-0.1-0.1c0-0.2,0-0.4,0-0.7
			c0-0.1,0-0.1,0.1-0.1c0.1,0,0.1,0,0.1,0.1C163.8,156,163.8,156.2,163.8,156.3z"/>
		<path fill="#EDEDEE" d="M165.2,156.3c0,0.1,0,0.1,0,0.2c0,0.1,0,0.1-0.1,0.1c-0.1,0-0.1-0.1-0.1-0.1c0-0.1,0-0.2,0-0.3
			c0-0.1,0-0.1,0.1-0.1c0.1,0,0.1,0.1,0.1,0.1C165.2,156.2,165.2,156.2,165.2,156.3z"/>
	</g>
	<g>
		<path fill="#EDEDEE" d="M40.6,155.7c0-0.1,0-0.2,0-0.3c0-0.1,0-0.1,0.1-0.1c0.5,0,1,0,1.4-0.2c0.4-0.1,0.8-0.3,1.1-0.5
			c0.1-0.1,0.2,0,0.2,0c0.2,0.2,0.5,0.3,0.8,0.4c0.5,0.2,1.1,0.2,1.6,0.2c0.1,0,0.2,0,0.2,0.2c0,1-0.1,1.9-0.5,2.8
			c-0.3,0.8-0.8,1.5-1.5,2.1c-0.2,0.2-0.4,0.3-0.6,0.4c-0.1,0.1-0.2,0.1-0.3,0c-0.5-0.3-0.9-0.6-1.2-1.1c-0.6-0.7-0.9-1.5-1.1-2.3
			C40.6,156.8,40.6,156.2,40.6,155.7z M40.7,155.9c0,1,0.2,1.9,0.6,2.7c0.4,0.8,0.9,1.5,1.7,2c0.1,0.1,0.2,0.1,0.3,0
			c0.5-0.3,0.9-0.6,1.2-1.1c0.9-1.2,1.2-2.5,1.2-4c0-0.1,0-0.1-0.1-0.1c-0.8,0-1.6-0.2-2.3-0.7c-0.1,0-0.1,0-0.2,0
			c-0.2,0.2-0.5,0.3-0.8,0.4c-0.5,0.2-1,0.2-1.5,0.2c-0.1,0-0.1,0-0.1,0.1C40.7,155.7,40.7,155.8,40.7,155.9z"/>
		<path fill="#333333" d="M40.7,155.9c0-0.1,0-0.2,0-0.4c0-0.1,0-0.1,0.1-0.1c0.5,0,1,0,1.5-0.2c0.3-0.1,0.5-0.2,0.8-0.4
			c0.1,0,0.1-0.1,0.2,0c0.7,0.5,1.5,0.7,2.3,0.7c0.1,0,0.1,0,0.1,0.1c0,1.5-0.3,2.8-1.2,4c-0.3,0.4-0.7,0.8-1.2,1.1
			c-0.1,0.1-0.2,0.1-0.3,0c-0.8-0.5-1.3-1.1-1.7-2C41,157.8,40.8,156.9,40.7,155.9z M43.9,160.1c0.2-0.1,0.4-0.3,0.5-0.5
			c0.7-0.8,1-1.8,1.2-2.8c0.1-0.4,0.1-0.8,0.1-1.2c0-0.1,0-0.2-0.2-0.2c-0.8,0-1.6-0.2-2.2-0.7c-0.1,0-0.1,0-0.1,0
			c-0.6,0.4-1.2,0.6-1.9,0.7c-0.1,0-0.3-0.1-0.4,0c-0.1,0.1,0,0.3,0,0.4c0,0.3,0,0.6,0.1,0.9c0,0.1,0,0.1,0,0.2
			c0.1,0.6,0.4,1.3,0.7,1.8c0.3,0.5,0.6,0.9,1,1.3c0.2,0.2,0.4,0.3,0.6,0.4c0,0,0.1,0,0.1,0C43.6,160.4,43.8,160.3,43.9,160.1z"/>
		<path fill="#EDEDEE" d="M41,156.8c-0.1-0.3-0.1-0.6-0.1-0.9c0-0.2-0.1-0.3,0-0.4c0.1-0.1,0.3,0,0.4,0c0.7,0,1.4-0.2,1.9-0.7
			c0,0,0.1-0.1,0.1,0c0.7,0.5,1.4,0.7,2.2,0.7c0.1,0,0.2,0,0.2,0.2c0,0.4,0,0.8-0.1,1.2c-0.5,0-1.1,0-1.6,0c-0.1,0-0.1,0-0.1,0.1
			c0,1.1,0,2.1,0,3.2c-0.2,0.2-0.4,0.3-0.6,0.4c0,0-0.1,0-0.1,0c-0.2-0.1-0.4-0.2-0.6-0.4c0-0.2,0-0.4,0-0.6c0-0.8,0-1.7,0-2.5
			c0-0.1,0-0.2-0.1-0.2C42,156.8,41.5,156.8,41,156.8z M41.5,156.2c-0.1-0.1-0.1-0.2-0.2-0.3c0-0.1-0.1-0.1-0.1-0.1
			c-0.1,0,0,0.1,0,0.1c0,0.2,0,0.4,0,0.6c0,0.1,0,0.1,0.1,0.1c0.1,0,0.1,0,0.1-0.1c0-0.1,0-0.2,0-0.3c0.2,0.2,0.2,0.2,0.3,0
			c0,0,0,0,0,0c0,0.1,0,0.2,0,0.3c0,0.1,0,0.1,0.1,0.1c0.1,0,0.1,0,0.1-0.1c0-0.2,0-0.4,0-0.6c0,0,0-0.1,0-0.1c-0.1,0-0.1,0-0.1,0.1
			C41.7,156,41.6,156.1,41.5,156.2z M45.4,156.3c0-0.1,0-0.3,0-0.4c0-0.1,0-0.1-0.1-0.1c-0.1,0-0.2,0-0.4,0c-0.1,0-0.1,0-0.1,0.1
			c0,0.2,0,0.4,0,0.6c0,0.1,0,0.1,0.1,0.1c0.1,0,0.3,0.1,0.4,0C45.5,156.6,45.4,156.4,45.4,156.3z M42.1,156.3c0,0.1-0.1,0.3,0,0.4
			c0.1,0.1,0.3,0,0.4,0c0,0,0,0,0,0c0.1,0,0.1,0,0.1-0.1c0-0.1,0-0.1-0.1-0.1c-0.1,0-0.1,0-0.2,0c-0.1,0-0.1,0-0.1-0.1
			c0,0,0-0.1,0.1-0.1c0.1,0,0.1,0,0.2,0c0.1,0,0.1,0,0.1-0.1c0-0.1,0-0.1-0.1-0.1c-0.1,0-0.1,0-0.2,0c-0.1,0-0.1,0-0.1-0.1
			c0,0,0-0.1,0.1-0.1c0.1,0,0.1,0,0.2,0c0.1,0,0.1,0,0.1-0.1c0-0.1-0.1-0.1-0.1-0.1c-0.1,0-0.3,0-0.4,0
			C42,155.9,42.1,156.1,42.1,156.3z M43.5,156.7c-0.1-0.1-0.1-0.2-0.2-0.3c0-0.1,0-0.1,0-0.2c0.1-0.1,0.1-0.2,0.2-0.3
			c-0.2-0.1-0.2,0.1-0.3,0.2c-0.1-0.1-0.1-0.3-0.3-0.2c0.1,0.1,0.1,0.2,0.2,0.3c0.1,0.1,0,0.1,0,0.2c-0.1,0.1-0.1,0.2-0.2,0.3
			c0.2,0.1,0.2-0.2,0.4-0.3C43.3,156.5,43.3,156.8,43.5,156.7z M44.1,156.3c0,0.1,0,0.2,0,0.4c0,0.1,0,0.1,0.1,0.1
			c0.1,0,0.3,0,0.4,0c0.1,0,0.1,0,0.1-0.1c0-0.1,0-0.1-0.1-0.1c-0.1,0-0.1,0-0.2,0c-0.1,0-0.1,0-0.1-0.1c0,0,0-0.1,0-0.1
			c0-0.1,0-0.2,0-0.3c0.1-0.1,0.2,0,0.3,0c0,0,0,0,0,0c0.1,0,0.1,0,0.1-0.1c0-0.1,0-0.1-0.1-0.1c-0.1,0-0.3,0-0.4,0
			c-0.1,0-0.1,0-0.1,0.1C44.1,156,44.1,156.2,44.1,156.3z M43.9,156.3c0-0.1,0-0.2,0-0.3c0-0.1,0-0.1-0.1-0.1c-0.1,0-0.1,0-0.1,0.1
			c0,0.2,0,0.4,0,0.7c0,0.1,0,0.1,0.1,0.1c0.1,0,0.1,0,0.1-0.1C43.9,156.5,43.9,156.4,43.9,156.3z"/>
		<path fill="#407A59" d="M41,156.8c0.5,0,1.1,0,1.6,0c0.1,0,0.1,0.1,0.1,0.2c0,0.8,0,1.7,0,2.5c0,0.2,0,0.4,0,0.6
			c-0.4-0.3-0.7-0.8-1-1.3c-0.3-0.6-0.5-1.2-0.7-1.8C41,157,41,156.9,41,156.8z"/>
		<path fill="#7F2232" d="M43.9,160.1c0-1.1,0-2.1,0-3.2c0-0.1,0.1-0.1,0.1-0.1c0.5,0,1.1,0,1.6,0c-0.1,1-0.5,2-1.2,2.8
			C44.3,159.8,44.1,160,43.9,160.1z"/>
		<path fill="#3F3C3D" d="M41.5,156.2c0.1-0.1,0.1-0.2,0.2-0.3c0-0.1,0.1-0.1,0.1-0.1c0.1,0,0,0.1,0,0.1c0,0.2,0,0.4,0,0.6
			c0,0.1,0,0.1-0.1,0.1c-0.1,0-0.1-0.1-0.1-0.1c0-0.1,0-0.2,0-0.3c0,0,0,0,0,0c-0.2,0.2-0.2,0.2-0.3,0c0,0.1,0,0.2,0,0.3
			c0,0.1,0,0.1-0.1,0.1c-0.1,0-0.1-0.1-0.1-0.1c0-0.2,0-0.4,0-0.6c0,0,0-0.1,0-0.1c0.1,0,0.1,0,0.1,0.1
			C41.4,156,41.5,156.1,41.5,156.2z"/>
		<path fill="#3F3C3D" d="M45.4,156.3c0,0.1,0.1,0.3,0,0.4c-0.1,0.1-0.3,0-0.4,0c-0.1,0-0.1,0-0.1-0.1c0-0.2,0-0.4,0-0.6
			c0-0.1,0-0.1,0.1-0.1c0.1,0,0.2,0,0.4,0c0.1,0,0.1,0,0.1,0.1C45.4,156,45.4,156.2,45.4,156.3z M45.3,156.3c0,0,0-0.1,0-0.1
			c0-0.1,0-0.1-0.1-0.1c-0.1,0-0.1,0.1-0.1,0.1c0,0.1,0,0.2,0,0.3c0,0.1,0,0.1,0.1,0.1c0.1,0,0.1,0,0.1-0.1
			C45.3,156.4,45.3,156.3,45.3,156.3z"/>
		<path fill="#3F3C3D" d="M42.1,156.3c0-0.1-0.1-0.3,0-0.4c0.1-0.1,0.3,0,0.4,0c0.1,0,0.1,0,0.1,0.1c0,0.1-0.1,0.1-0.1,0.1
			c-0.1,0-0.1,0-0.2,0c-0.1,0-0.1,0-0.1,0.1c0,0.1,0,0.1,0.1,0.1c0.1,0,0.1,0,0.2,0c0.1,0,0.1,0,0.1,0.1c0,0.1,0,0.1-0.1,0.1
			c-0.1,0-0.1,0-0.2,0c-0.1,0-0.1,0-0.1,0.1c0,0.1,0,0.1,0.1,0.1c0.1,0,0.1,0,0.2,0c0.1,0,0.1,0,0.1,0.1c0,0.1,0,0.1-0.1,0.1
			c0,0,0,0,0,0c-0.1,0-0.3,0-0.4,0C42,156.6,42.1,156.4,42.1,156.3z"/>
		<path fill="#3F3C3D" d="M43.5,156.7c-0.3,0.1-0.2-0.2-0.4-0.3c-0.1,0.1-0.1,0.3-0.4,0.3c0-0.1,0.1-0.2,0.2-0.3
			c0-0.1,0.1-0.1,0-0.2c-0.1-0.1-0.1-0.2-0.2-0.3c0.2-0.1,0.2,0.1,0.3,0.2c0.1-0.1,0.1-0.3,0.3-0.2c0,0.1-0.1,0.2-0.2,0.3
			c0,0.1,0,0.1,0,0.2C43.4,156.5,43.5,156.6,43.5,156.7z"/>
		<path fill="#3F3C3D" d="M44.1,156.3c0-0.1,0-0.2,0-0.3c0-0.1,0-0.1,0.1-0.1c0.1,0,0.3,0,0.4,0c0,0,0.1,0,0.1,0.1
			c0,0.1,0,0.1-0.1,0.1c0,0,0,0,0,0c-0.1,0-0.2,0-0.3,0c-0.1,0.1,0,0.2,0,0.3c0,0,0,0.1,0,0.1c0,0.1,0,0.1,0.1,0.1
			c0.1,0,0.1,0,0.2,0c0.1,0,0.1,0,0.1,0.1c0,0.1,0,0.1-0.1,0.1c-0.1,0-0.3,0-0.4,0c-0.1,0-0.1,0-0.1-0.1
			C44.1,156.5,44.1,156.4,44.1,156.3z"/>
		<path fill="#3F3C3D" d="M43.9,156.3c0,0.1,0,0.2,0,0.3c0,0.1,0,0.1-0.1,0.1c-0.1,0-0.1,0-0.1-0.1c0-0.2,0-0.4,0-0.7
			c0-0.1,0-0.1,0.1-0.1c0.1,0,0.1,0,0.1,0.1C43.9,156,43.9,156.2,43.9,156.3z"/>
		<path fill="#EDEDEE" d="M45.3,156.3c0,0.1,0,0.1,0,0.2c0,0.1,0,0.1-0.1,0.1c-0.1,0-0.1-0.1-0.1-0.1c0-0.1,0-0.2,0-0.3
			c0-0.1,0-0.1,0.1-0.1c0.1,0,0.1,0.1,0.1,0.1C45.3,156.2,45.3,156.2,45.3,156.3z"/>
	</g>
	<g>
		<path fill="#EDEDEE" d="M113.5,31.8c0-0.1,0-0.2,0-0.3c0-0.1,0-0.1,0.1-0.1c0.5,0,1,0,1.4-0.2c0.4-0.1,0.8-0.3,1.1-0.5
			c0.1-0.1,0.2,0,0.2,0c0.2,0.2,0.5,0.3,0.8,0.4c0.5,0.2,1.1,0.2,1.6,0.2c0.1,0,0.2,0,0.2,0.2c0,1-0.1,1.9-0.5,2.8
			c-0.3,0.8-0.8,1.5-1.5,2.1c-0.2,0.2-0.4,0.3-0.6,0.4c-0.1,0.1-0.2,0.1-0.3,0c-0.5-0.3-0.9-0.6-1.2-1.1c-0.6-0.7-0.9-1.5-1.1-2.3
			C113.6,32.9,113.5,32.4,113.5,31.8z M113.7,32.1c0,1,0.2,1.9,0.6,2.7c0.4,0.8,0.9,1.5,1.7,2c0.1,0.1,0.2,0.1,0.3,0
			c0.5-0.3,0.9-0.6,1.2-1.1c0.9-1.2,1.2-2.5,1.2-4c0-0.1,0-0.1-0.1-0.1c-0.8,0-1.6-0.2-2.3-0.7c-0.1,0-0.1,0-0.2,0
			c-0.2,0.2-0.5,0.3-0.8,0.4c-0.5,0.2-1,0.2-1.5,0.2c-0.1,0-0.1,0-0.1,0.1C113.7,31.8,113.7,32,113.7,32.1z"/>
		<path fill="#333333" d="M113.7,32.1c0-0.1,0-0.2,0-0.4c0-0.1,0-0.1,0.1-0.1c0.5,0,1,0,1.5-0.2c0.3-0.1,0.5-0.2,0.8-0.4
			c0.1,0,0.1-0.1,0.2,0c0.7,0.5,1.5,0.7,2.3,0.7c0.1,0,0.1,0,0.1,0.1c0,1.5-0.3,2.8-1.2,4c-0.3,0.4-0.7,0.8-1.2,1.1
			c-0.1,0.1-0.2,0.1-0.3,0c-0.8-0.5-1.3-1.1-1.7-2C113.9,33.9,113.7,33,113.7,32.1z M116.9,36.3c0.2-0.1,0.4-0.3,0.5-0.5
			c0.7-0.8,1-1.8,1.2-2.8c0.1-0.4,0.1-0.8,0.1-1.2c0-0.1,0-0.2-0.2-0.2c-0.8,0-1.6-0.2-2.2-0.7c-0.1,0-0.1,0-0.1,0
			c-0.6,0.4-1.2,0.6-1.9,0.7c-0.1,0-0.3-0.1-0.4,0c-0.1,0.1,0,0.3,0,0.4c0,0.3,0,0.6,0.1,0.9c0,0.1,0,0.1,0,0.2
			c0.1,0.6,0.4,1.3,0.7,1.8c0.3,0.5,0.6,0.9,1,1.3c0.2,0.2,0.4,0.3,0.6,0.4c0,0,0.1,0,0.1,0C116.5,36.6,116.7,36.4,116.9,36.3z"/>
		<path fill="#EDEDEE" d="M113.9,33c-0.1-0.3-0.1-0.6-0.1-0.9c0-0.2-0.1-0.3,0-0.4c0.1-0.1,0.3,0,0.4,0c0.7,0,1.4-0.2,1.9-0.7
			c0,0,0.1-0.1,0.1,0c0.7,0.5,1.4,0.7,2.2,0.7c0.1,0,0.2,0,0.2,0.2c0,0.4,0,0.8-0.1,1.2c-0.5,0-1.1,0-1.6,0c-0.1,0-0.1,0-0.1,0.1
			c0,1.1,0,2.1,0,3.2c-0.2,0.2-0.4,0.3-0.6,0.4c0,0-0.1,0-0.1,0c-0.2-0.1-0.4-0.2-0.6-0.4c0-0.2,0-0.4,0-0.6c0-0.8,0-1.7,0-2.5
			c0-0.1,0-0.2-0.1-0.2C115,33,114.4,33,113.9,33z M114.5,32.3c-0.1-0.1-0.1-0.2-0.2-0.3c0-0.1-0.1-0.1-0.1-0.1c-0.1,0,0,0.1,0,0.1
			c0,0.2,0,0.4,0,0.6c0,0.1,0,0.1,0.1,0.1c0.1,0,0.1,0,0.1-0.1c0-0.1,0-0.2,0-0.3c0.2,0.2,0.2,0.2,0.3,0c0,0,0,0,0,0
			c0,0.1,0,0.2,0,0.3c0,0.1,0,0.1,0.1,0.1c0.1,0,0.1,0,0.1-0.1c0-0.2,0-0.4,0-0.6c0,0,0-0.1,0-0.1c-0.1,0-0.1,0-0.1,0.1
			C114.6,32.2,114.5,32.2,114.5,32.3z M118.4,32.5c0-0.1,0-0.3,0-0.4c0-0.1,0-0.1-0.1-0.1c-0.1,0-0.2,0-0.4,0c-0.1,0-0.1,0-0.1,0.1
			c0,0.2,0,0.4,0,0.6c0,0.1,0,0.1,0.1,0.1c0.1,0,0.3,0.1,0.4,0C118.4,32.7,118.3,32.6,118.4,32.5z M115,32.4c0,0.1-0.1,0.3,0,0.4
			c0.1,0.1,0.3,0,0.4,0c0,0,0,0,0,0c0.1,0,0.1,0,0.1-0.1c0-0.1,0-0.1-0.1-0.1c-0.1,0-0.1,0-0.2,0c-0.1,0-0.1,0-0.1-0.1
			c0,0,0-0.1,0.1-0.1c0.1,0,0.1,0,0.2,0c0.1,0,0.1,0,0.1-0.1c0-0.1,0-0.1-0.1-0.1c-0.1,0-0.1,0-0.2,0c-0.1,0-0.1,0-0.1-0.1
			c0,0,0-0.1,0.1-0.1c0.1,0,0.1,0,0.2,0c0.1,0,0.1,0,0.1-0.1c0-0.1-0.1-0.1-0.1-0.1c-0.1,0-0.3,0-0.4,0
			C114.9,32.1,115,32.3,115,32.4z M116.5,32.8c-0.1-0.1-0.1-0.2-0.2-0.3c0-0.1,0-0.1,0-0.2c0.1-0.1,0.1-0.2,0.2-0.3
			c-0.2-0.1-0.2,0.1-0.3,0.2c-0.1-0.1-0.1-0.3-0.3-0.2c0.1,0.1,0.1,0.2,0.2,0.3c0.1,0.1,0,0.1,0,0.2c-0.1,0.1-0.1,0.2-0.2,0.3
			c0.2,0.1,0.2-0.2,0.4-0.3C116.2,32.7,116.2,32.9,116.5,32.8z M117,32.4c0,0.1,0,0.2,0,0.4c0,0.1,0,0.1,0.1,0.1c0.1,0,0.3,0,0.4,0
			c0.1,0,0.1,0,0.1-0.1c0-0.1,0-0.1-0.1-0.1c-0.1,0-0.1,0-0.2,0c-0.1,0-0.1,0-0.1-0.1c0,0,0-0.1,0-0.1c0-0.1,0-0.2,0-0.3
			c0.1-0.1,0.2,0,0.3,0c0,0,0,0,0,0c0.1,0,0.1,0,0.1-0.1c0-0.1,0-0.1-0.1-0.1c-0.1,0-0.3,0-0.4,0c-0.1,0-0.1,0-0.1,0.1
			C117,32.2,117,32.3,117,32.4z M116.9,32.4c0-0.1,0-0.2,0-0.3c0-0.1,0-0.1-0.1-0.1c-0.1,0-0.1,0-0.1,0.1c0,0.2,0,0.4,0,0.7
			c0,0.1,0,0.1,0.1,0.1c0.1,0,0.1,0,0.1-0.1C116.9,32.6,116.9,32.5,116.9,32.4z"/>
		<path fill="#407A59" d="M113.9,33c0.5,0,1.1,0,1.6,0c0.1,0,0.1,0.1,0.1,0.2c0,0.8,0,1.7,0,2.5c0,0.2,0,0.4,0,0.6
			c-0.4-0.3-0.7-0.8-1-1.3c-0.3-0.6-0.5-1.2-0.7-1.8C113.9,33.1,113.9,33,113.9,33z"/>
		<path fill="#7F2232" d="M116.9,36.3c0-1.1,0-2.1,0-3.2c0-0.1,0.1-0.1,0.1-0.1c0.5,0,1.1,0,1.6,0c-0.1,1-0.5,2-1.2,2.8
			C117.2,36,117.1,36.1,116.9,36.3z"/>
		<path fill="#3F3C3D" d="M114.5,32.3c0.1-0.1,0.1-0.2,0.2-0.3c0-0.1,0.1-0.1,0.1-0.1c0.1,0,0,0.1,0,0.1c0,0.2,0,0.4,0,0.6
			c0,0.1,0,0.1-0.1,0.1c-0.1,0-0.1-0.1-0.1-0.1c0-0.1,0-0.2,0-0.3c0,0,0,0,0,0c-0.2,0.2-0.2,0.2-0.3,0c0,0.1,0,0.2,0,0.3
			c0,0.1,0,0.1-0.1,0.1c-0.1,0-0.1-0.1-0.1-0.1c0-0.2,0-0.4,0-0.6c0,0,0-0.1,0-0.1c0.1,0,0.1,0,0.1,0.1
			C114.3,32.2,114.4,32.2,114.5,32.3z"/>
		<path fill="#3F3C3D" d="M118.4,32.5c0,0.1,0.1,0.3,0,0.4c-0.1,0.1-0.3,0-0.4,0c-0.1,0-0.1,0-0.1-0.1c0-0.2,0-0.4,0-0.6
			c0-0.1,0-0.1,0.1-0.1c0.1,0,0.2,0,0.4,0c0.1,0,0.1,0,0.1,0.1C118.4,32.2,118.4,32.3,118.4,32.5z M118.2,32.4c0,0,0-0.1,0-0.1
			c0-0.1,0-0.1-0.1-0.1c-0.1,0-0.1,0.1-0.1,0.1c0,0.1,0,0.2,0,0.3c0,0.1,0,0.1,0.1,0.1c0.1,0,0.1,0,0.1-0.1
			C118.2,32.5,118.2,32.5,118.2,32.4z"/>
		<path fill="#3F3C3D" d="M115,32.4c0-0.1-0.1-0.3,0-0.4c0.1-0.1,0.3,0,0.4,0c0.1,0,0.1,0,0.1,0.1c0,0.1-0.1,0.1-0.1,0.1
			c-0.1,0-0.1,0-0.2,0c-0.1,0-0.1,0-0.1,0.1c0,0.1,0,0.1,0.1,0.1c0.1,0,0.1,0,0.2,0c0.1,0,0.1,0,0.1,0.1c0,0.1,0,0.1-0.1,0.1
			c-0.1,0-0.1,0-0.2,0c-0.1,0-0.1,0-0.1,0.1c0,0.1,0,0.1,0.1,0.1c0.1,0,0.1,0,0.2,0c0.1,0,0.1,0,0.1,0.1c0,0.1,0,0.1-0.1,0.1
			c0,0,0,0,0,0c-0.1,0-0.3,0-0.4,0C114.9,32.8,115,32.6,115,32.4z"/>
		<path fill="#3F3C3D" d="M116.5,32.8c-0.3,0.1-0.2-0.2-0.4-0.3c-0.1,0.1-0.1,0.3-0.4,0.3c0-0.1,0.1-0.2,0.2-0.3
			c0-0.1,0.1-0.1,0-0.2c-0.1-0.1-0.1-0.2-0.2-0.3c0.2-0.1,0.2,0.1,0.3,0.2c0.1-0.1,0.1-0.3,0.3-0.2c0,0.1-0.1,0.2-0.2,0.3
			c0,0.1,0,0.1,0,0.2C116.3,32.6,116.4,32.7,116.5,32.8z"/>
		<path fill="#3F3C3D" d="M117,32.4c0-0.1,0-0.2,0-0.3c0-0.1,0-0.1,0.1-0.1c0.1,0,0.3,0,0.4,0c0,0,0.1,0,0.1,0.1
			c0,0.1,0,0.1-0.1,0.1c0,0,0,0,0,0c-0.1,0-0.2,0-0.3,0c-0.1,0.1,0,0.2,0,0.3c0,0,0,0.1,0,0.1c0,0.1,0,0.1,0.1,0.1
			c0.1,0,0.1,0,0.2,0c0.1,0,0.1,0,0.1,0.1c0,0.1,0,0.1-0.1,0.1c-0.1,0-0.3,0-0.4,0c-0.1,0-0.1,0-0.1-0.1C117,32.6,117,32.5,117,32.4
			z"/>
		<path fill="#3F3C3D" d="M116.9,32.4c0,0.1,0,0.2,0,0.3c0,0.1,0,0.1-0.1,0.1c-0.1,0-0.1,0-0.1-0.1c0-0.2,0-0.4,0-0.7
			c0-0.1,0-0.1,0.1-0.1c0.1,0,0.1,0,0.1,0.1C116.9,32.2,116.9,32.3,116.9,32.4z"/>
		<path fill="#EDEDEE" d="M118.2,32.4c0,0.1,0,0.1,0,0.2c0,0.1,0,0.1-0.1,0.1c-0.1,0-0.1-0.1-0.1-0.1c0-0.1,0-0.2,0-0.3
			c0-0.1,0-0.1,0.1-0.1c0.1,0,0.1,0.1,0.1,0.1C118.2,32.3,118.2,32.4,118.2,32.4z"/>
	</g>
</g>
</svg>
