<?xml version="1.0" encoding="utf-8"?>
<!-- Generator: Adobe Illustrator 18.1.1, SVG Export Plug-In . SVG Version: 6.00 Build 0)  -->
<svg version="1.1" id="Layer_1" xmlns="http://www.w3.org/2000/svg" xmlns:xlink="http://www.w3.org/1999/xlink" x="0px" y="0px"
	 viewBox="0 0 999 228.7" enable-background="new 0 0 999 228.7" xml:space="preserve">
<g>
	<rect x="19.2" y="52.5" fill="#36383D" width="3.3" height="15"/>
	<rect x="53.5" y="52.5" fill="#36383D" width="3.3" height="15"/>
	<rect x="87.8" y="52.5" fill="#36383D" width="3.3" height="15"/>
	<rect x="6.2" y="71.2" fill="#4F5556" width="987.5" height="25"/>
	<rect x="5.7" y="64.3" fill="#41444C" width="987.5" height="7.4"/>
	<path fill="#36383D" d="M166,59l72,29h494l76.2-30C808.2,58,211,52,166,59z"/>
	<rect x="5.8" y="95" fill="#494A4C" width="987.7" height="127.7"/>
	<polygon fill="#36383D" points="56.8,217.7 41.9,217.7 37.7,96.7 61,96.7 	"/>
	<polygon fill="#36383D" points="141.4,217.7 126.6,217.7 122.3,96.7 145.7,96.7 	"/>
	<polygon fill="#36383D" points="226.8,217.7 211.9,217.7 207.7,96.7 231,96.7 	"/>
	<polygon fill="#36383D" points="311.4,217.7 296.6,217.7 292.3,96.7 315.7,96.7 	"/>
	<polygon fill="#36383D" points="699.8,217.7 684.9,217.7 680.7,96.7 704,96.7 	"/>
	<polygon fill="#36383D" points="784.8,217.7 769.9,217.7 765.7,96.7 789,96.7 	"/>
	<polygon fill="#36383D" points="869.4,217.7 854.6,217.7 850.3,96.7 873.7,96.7 	"/>
	<polygon fill="#36383D" points="954.4,217.7 939.6,217.7 935.3,96.7 958.7,96.7 	"/>
	<rect x="6.2" y="96" fill="#36383D" width="987.5" height="10"/>
	<rect x="6.2" y="210" fill="#36383D" width="987.5" height="10"/>
	<rect x="6.2" y="215.7" fill="#686763" width="987.5" height="10"/>
	<rect x="6.2" y="91.7" fill="#686763" width="987.5" height="10"/>
	<rect x="333" y="218.7" fill="#686763" width="326" height="10"/>
	<rect x="333" y="177.7" fill="#3B3734" width="326" height="42.1"/>
	<rect x="333" y="219.7" opacity="0.2" fill="#1A1A1A" width="326" height="2.5"/>
	<rect x="348.3" y="173.3" fill="#686763" width="8.7" height="46.7"/>
	<rect x="380.3" y="173.3" fill="#686763" width="8.7" height="46.7"/>
	<rect x="412.3" y="173.3" fill="#686763" width="8.7" height="46.7"/>
	<rect x="444.3" y="173.3" fill="#686763" width="8.7" height="46.7"/>
	<rect x="476.3" y="173.3" fill="#686763" width="8.7" height="46.7"/>
	<rect x="508.3" y="173.3" fill="#686763" width="8.7" height="46.7"/>
	<rect x="540.3" y="173.3" fill="#686763" width="8.7" height="46.7"/>
	<rect x="572.3" y="173.3" fill="#686763" width="8.7" height="46.7"/>
	<rect x="604.3" y="173.3" fill="#686763" width="8.7" height="46.7"/>
	<rect x="636.3" y="173.3" fill="#686763" width="8.7" height="46.7"/>
	<rect x="321.6" y="101.2" fill="#3C475E" width="346.2" height="77.4"/>
	<rect x="321" y="101.3" fill="#323D50" width="11.3" height="77.3"/>
	<rect x="659" y="101.3" fill="#323D50" width="11.3" height="77.3"/>
	<rect x="334.7" y="101.3" fill="#182030" width="1.3" height="77.3"/>
	<rect x="320.3" y="101.3" fill="#182030" width="1.3" height="77.3"/>
	<rect x="359.3" y="101.3" fill="#182030" width="1.3" height="77.3"/>
	<rect x="384" y="101.3" fill="#182030" width="1.3" height="77.3"/>
	<rect x="408.7" y="101.3" fill="#182030" width="1.3" height="77.3"/>
	<rect x="320.7" y="100.3" fill="#182030" width="349.5" height="1.8"/>
	<rect x="320.7" y="177.7" fill="#182030" width="349.5" height="1.3"/>
	<rect x="320.7" y="152" fill="#182030" width="349.5" height="1.3"/>
	<rect x="320.7" y="126.3" fill="#182030" width="349.5" height="1.3"/>
	<rect x="433.3" y="101.3" fill="#182030" width="1.3" height="77.3"/>
	<rect x="458" y="101.3" fill="#182030" width="1.3" height="77.3"/>
	<rect x="482.7" y="101.3" fill="#182030" width="1.3" height="77.3"/>
	<rect x="507.3" y="101.3" fill="#182030" width="1.3" height="77.3"/>
	<rect x="532" y="101.3" fill="#182030" width="1.3" height="77.3"/>
	<rect x="556.7" y="101.3" fill="#182030" width="1.3" height="77.3"/>
	<rect x="581.3" y="101.3" fill="#182030" width="1.3" height="77.3"/>
	<rect x="606" y="101.3" fill="#182030" width="1.3" height="77.3"/>
	<rect x="630.7" y="101.3" fill="#182030" width="1.3" height="77.3"/>
	<rect x="655.3" y="101.3" fill="#182030" width="1.3" height="77.3"/>
	<rect x="668.7" y="101.3" fill="#182030" width="1.3" height="77.3"/>
	<rect x="333" y="178.7" opacity="0.2" fill="#1A1A1A" width="326" height="9.6"/>
	<path opacity="0.3" fill="#FFFFFF" d="M524,102.7L482.7,178H547l49-75.6C596,102.4,524,102,524,102.7z"/>
	<path opacity="0.3" fill="#FFFFFF" d="M394,102.5L352.7,178H417l49-75.7C466,102.3,394,101.9,394,102.5z"/>
	<polygon fill="#686763" points="138.5,219 129.5,219 127,98 141,98 	"/>
	<polygon fill="#686763" points="223.5,219 214.5,219 212,98 226,98 	"/>
	<polygon fill="#686763" points="308.5,219 299.5,219 297,98 311,98 	"/>
	<polygon fill="#686763" points="696.5,219 687.5,219 685,98 699,98 	"/>
	<polygon fill="#686763" points="781.5,219 772.5,219 770,98 784,98 	"/>
	<polygon fill="#686763" points="866.5,219 857.5,219 855,98 869,98 	"/>
	<polygon fill="#686763" points="951.5,219 942.5,219 940,98 954,98 	"/>
	<polygon fill="#686763" points="53.5,219 44.5,219 42,98 56,98 	"/>
	<rect x="238" y="80" fill="#686763" width="494" height="8"/>
	<rect x="201.1" y="66" fill="#686763" width="567.9" height="8"/>
	<rect x="161.8" y="50" fill="#686763" width="646.4" height="8"/>
	<rect x="7.9" y="4.4" fill="#41444C" width="94.9" height="50.6"/>
	<rect x="15.3" y="10.6" fill="#F2F2F2" width="78.9" height="37.6"/>
	<g>
		<path fill-rule="evenodd" clip-rule="evenodd" fill="#231F20" d="M505,116.5c-2.4,1.6-4.7,2.4-7.2,2.4c-2.5,0-4.8-0.8-7.2-2.4
			l-0.6-0.4l-0.6,0.4c-2.7,1.8-4.9,2.1-8.2,2.1c-1.1,0-2.4-0.2-3.6-0.6l-0.8-0.3l-0.5,0.7c-0.3,0.4-0.4,0.6-0.6,0.8
			c-0.2,0.3-0.4,0.5-0.7,0.9l-0.4,0.6l0.5,0.6c2,2.7,2.8,5.5,2.8,8.1c0,4.9-2.7,9.2-4.8,11.3l-0.8,0.8l0.8,0.8
			c0.4,0.4,1.1,1.2,1.8,1.8c0,0,0,0.3,0,0.3l0,0.1c0,0.5,0,0.9,0,1.4c0,4.9,1.5,9.1,4.4,12.2c3.3,3.7,8.6,5.9,14.8,6.2
			c1.5,1.4,3.1,2.6,3.2,2.6l0.7,0.5l0.7-0.5c0.1-0.1,1.6-1.2,3.2-2.6c6.2-0.3,11.4-2.5,14.8-6.2c2.9-3.2,4.4-7.3,4.4-12.2
			c0-0.5,0-0.9,0-1.4l0,0l0-0.1c0,0,0-0.3,0-0.3c0.6-0.6,1.3-1.4,1.8-1.8l0.8-0.8l-0.8-0.8c-2.1-2.2-4.8-6.5-4.8-11.3
			c0-2.6,0.8-5.4,2.8-8.1l0.5-0.6l-0.4-0.6c-0.3-0.4-0.5-0.7-0.7-0.9c-0.2-0.2-0.4-0.5-0.6-0.8l-0.5-0.7l-0.8,0.3
			c-1.2,0.4-2.4,0.6-3.6,0.6c-3.3,0-5.5-0.3-8.2-2.1l-0.6-0.4L505,116.5L505,116.5z"/>
		<path fill-rule="evenodd" clip-rule="evenodd" fill="#DDB308" d="M497.8,166.1c0,0-1.8-1.3-3.4-2.8c-10.5-0.4-19.1-6.3-18.4-18.7
			c0-0.3,0-0.3,0.1-0.9c-0.6-0.6-1.6-1.7-2.1-2.2c3.8-3.9,8.1-12.8,2.1-20.9c0.4-0.6,0.7-0.9,1.3-1.7c1.2,0.4,2.6,0.7,3.9,0.7
			c3.5,0,5.9-0.3,8.8-2.3c2.3,1.6,4.8,2.6,7.8,2.6c3,0,5.5-1,7.8-2.6c2.9,1.9,5.3,2.3,8.8,2.3c1.4,0,2.7-0.3,3.9-0.7
			c0.6,0.8,0.9,1.1,1.3,1.7c-6.1,8.1-1.7,17,2.1,20.9c-0.5,0.5-1.5,1.6-2.1,2.2c0.1,0.6,0,0.5,0.1,0.9c0.7,12.4-8,18.3-18.4,18.7
			C499.5,164.8,497.8,166.1,497.8,166.1L497.8,166.1z"/>
		<path fill-rule="evenodd" clip-rule="evenodd" fill="#231F20" d="M477.9,143.9h-0.1l-0.1,0.5l0,0.3c-0.2,4.8,0.9,8.6,3.5,11.5
			c3,3.3,7.8,5.1,13.9,5.4c0,0,0.1,0,0.1,0c1.8,0,3.6,0,5.1,0c6.2-0.3,11-2.1,14-5.4c2.6-2.8,3.8-6.7,3.5-11.5c0,0,0-0.4,0-0.4
			l-0.1-0.5l-0.1,0H477.9L477.9,143.9z"/>
		<path fill-rule="evenodd" clip-rule="evenodd" fill="#00539E" d="M478.1,144.2c0,0.1,0,0.3,0,0.3l0,0.3c0,0.4,0,0.8,0,1.2
			c0,4.1,1.2,7.5,3.5,10.1c0.6,0.6,1.2,1.2,1.9,1.7v-13.5C480.2,144.2,478.2,144.2,478.1,144.2L478.1,144.2z"/>
		<path fill-rule="evenodd" clip-rule="evenodd" fill="#00539E" d="M517.5,144.8l0-0.3c0,0,0-0.1,0-0.3c-0.1,0-2.1,0-5.2,0v13.5
			c0.7-0.5,1.3-1.1,1.9-1.7c2.3-2.5,3.5-5.9,3.5-10.1C517.5,145.6,517.5,145.2,517.5,144.8L517.5,144.8z"/>
		<path fill-rule="evenodd" clip-rule="evenodd" fill="#A1224B" d="M489.1,144.2c-2.1,0-4.1,0-5.8,0v13.5c1.6,1.2,3.5,2.1,5.8,2.7
			V144.2L489.1,144.2z"/>
		<path fill-rule="evenodd" clip-rule="evenodd" fill="#A1224B" d="M506.4,144.2v16.2c2.2-0.6,4.2-1.5,5.8-2.7v-13.5
			C510.5,144.2,508.6,144.2,506.4,144.2L506.4,144.2z"/>
		<path fill-rule="evenodd" clip-rule="evenodd" fill="#00539E" d="M492.2,152.5c0-2,1.1-3.7,2.6-4.7v-3.6c-2,0-3.9,0-5.8,0v16.2
			c1.8,0.5,3.7,0.8,5.8,0.9v-4C493.3,156.3,492.2,154.5,492.2,152.5L492.2,152.5z"/>
		<path fill-rule="evenodd" clip-rule="evenodd" fill="#00539E" d="M500.7,144.2v3.6c1.6,1,2.6,2.7,2.6,4.7c0,2-1.1,3.7-2.6,4.7v4
			c2.1-0.1,4-0.4,5.8-0.9v-16.2C504.6,144.2,502.6,144.2,500.7,144.2L500.7,144.2z"/>
		<path fill-rule="evenodd" clip-rule="evenodd" fill="#A1224B" d="M500.7,147.8v-3.6c-1.9,0-3.9,0-5.8,0v3.6
			c0.8-0.5,1.8-0.8,2.9-0.8C498.8,147,499.8,147.3,500.7,147.8L500.7,147.8z"/>
		<path fill-rule="evenodd" clip-rule="evenodd" fill="#A1224B" d="M494.9,157.2v4c0.1,0,0.2,0,0.3,0l0.1,0c1.8,0,3.6,0,5.1,0
			c0.1,0,0.2,0,0.3,0v-4c-0.8,0.5-1.8,0.8-2.9,0.8C496.7,158.1,495.7,157.8,494.9,157.2L494.9,157.2z"/>
		<path fill-rule="evenodd" clip-rule="evenodd" fill="#DDB308" d="M494.9,153.5c-1-0.9-1-2.8-0.7-4c0.1-0.3,0.2-0.7,0.3-1.1
			c-1.2,1-1.9,2.4-1.9,4.1c0,0.7,0.1,1.4,0.4,2c0.1,0,0.2,0,0.3,0C494,154.5,494.6,154.1,494.9,153.5L494.9,153.5z"/>
		<path fill-rule="evenodd" clip-rule="evenodd" fill="#DDB308" d="M500.3,153.9c-0.2,0.9-1.1,1.5-2,2.1c-0.9,0.5-2.4,0.8-3.5,0.9
			c0.8,0.6,1.8,0.9,2.9,0.9c2,0,3.7-1.1,4.6-2.7C502.2,153.8,501,153.6,500.3,153.9L500.3,153.9z"/>
		<path fill-rule="evenodd" clip-rule="evenodd" fill="#DDB308" d="M494.4,156.6c1.1,0,2.8-0.3,3.7-0.8c1.2-0.7,2.2-1.5,1.7-2.6
			c-0.2-0.6-1-1.2-2-0.5c-0.1,0.8-1.1,1.5-1.8,1.4c-0.4,0-0.7-0.2-0.9-0.3c-0.4,0.7-1.1,1.1-2,1.1c0,0-0.1,0-0.1,0
			C493.4,155.5,493.9,156.1,494.4,156.6L494.4,156.6z"/>
		<path fill-rule="evenodd" clip-rule="evenodd" fill="#DDB308" d="M497.8,149.3c0.9-0.4,2.1,0.1,3,0.6c0.9,0.5,1.8,1.4,2.3,2.3
			c-0.2-2.7-2.4-4.9-5.2-4.9C497,147.8,497.1,148.9,497.8,149.3L497.8,149.3z"/>
		<path fill-rule="evenodd" clip-rule="evenodd" fill="#DDB308" d="M497.6,152.6c-1.1-0.8-1-2-0.5-2.7c0.1-0.2,0.2-0.3,0.4-0.4
			c-0.6-0.5-0.7-1.5-0.1-2.1c-0.9,0.1-1.7,0.4-2.4,0.9c-0.2,1-0.5,1.9-0.5,2.9c0,1.4,0.6,2.5,1.8,2.7
			C496.7,153.8,497.5,153.2,497.6,152.6L497.6,152.6z"/>
		<path fill-rule="evenodd" clip-rule="evenodd" fill="#DDB308" d="M503,153c-0.3-1.1-1.4-2.3-2.4-2.8c-1.3-0.7-2.6-1.1-3.2-0.1
			c-0.4,0.6-0.4,1.6,0.4,2.3c1.2-0.8,2.2,0,2.4,0.6c0.1,0.2,0.1,0.4,0.1,0.6c0.7-0.2,1.9-0.1,2.2,1C502.8,154.1,502.9,153.6,503,153
			L503,153z"/>
		<path fill-rule="evenodd" clip-rule="evenodd" fill="#231F20" d="M493,137.9h-3.7v5.1h1.1c0,0,0-2,0-2.1c0.1,0,1.5,0,1.5,0v-1.1
			c0,0-1.4,0-1.5,0c0-0.1,0-0.8,0-0.8c0.1,0,2.6,0,2.6,0L493,137.9L493,137.9L493,137.9z"/>
		<path fill-rule="evenodd" clip-rule="evenodd" fill="#231F20" d="M495.1,140.4c0,1.6,0.9,2.6,2.3,2.6c0.9,0,1.5-0.4,1.9-1.2l0,0
			l-0.9-0.6l0,0c-0.3,0.4-0.5,0.6-0.9,0.6c-0.7,0-1.1-0.6-1.1-1.5c0-1,0.4-1.5,1.1-1.5c0.4,0,0.7,0.2,0.9,0.5l0,0l1-0.5l0,0
			c-0.4-0.7-1-1.1-1.9-1.1C496.1,137.8,495.1,138.9,495.1,140.4L495.1,140.4z"/>
		<path fill-rule="evenodd" clip-rule="evenodd" fill="#231F20" d="M505.5,140.2c0.3-0.2,0.5-0.6,0.5-1c0-0.9-0.6-1.4-1.6-1.4h-2.3
			H502v5.1h2.3c1.2,0,1.8-0.6,1.8-1.7C506.2,140.8,505.9,140.4,505.5,140.2L505.5,140.2z M503.1,138.9c0.1,0,1.2,0,1.2,0
			c0.5,0,0.6,0.2,0.6,0.4c0,0.3-0.2,0.4-0.5,0.4c0,0-1.2,0-1.3,0C503.1,139.7,503.1,139,503.1,138.9L503.1,138.9z M504.4,141.9
			c0,0-1.2,0-1.3,0c0-0.1,0-1.1,0-1.2c0.1,0,1.3,0,1.3,0c0.5,0,0.7,0.2,0.7,0.6C505,141.7,504.8,141.9,504.4,141.9L504.4,141.9z"/>
		<path fill-rule="evenodd" clip-rule="evenodd" fill="#231F20" d="M505.5,119.5c-2.5,1.5-5,2.2-7.8,2.2c-2.7,0-5.3-0.7-7.8-2.2
			l-0.1-0.1l-0.1,0c-2.8,1.6-5.3,1.9-8.7,1.9c-0.8,0-1.6-0.1-2.5-0.2l-0.4-0.1l0.2,0.3c3.4,5.9,2.2,11.6,0.6,15.3L479,137h37.5
			l-0.1-0.2c-1.6-3.7-2.9-9.4,0.6-15.3l0.2-0.3l-0.4,0.1c-0.8,0.2-1.7,0.2-2.5,0.2c-3.3,0-5.8-0.3-8.7-1.9L505.5,119.5L505.5,119.5
			L505.5,119.5z"/>
		<path fill-rule="evenodd" clip-rule="evenodd" fill="#FFFFFF" d="M486.3,121.3c-1.6,0.4-3.2,0.5-5.1,0.5c-0.7,0-1.5-0.1-2.2-0.2
			c0.9,1.6,1.4,3.1,1.8,4.6c2,0,5.5,0,5.5,0C486.3,126.1,486.3,123.5,486.3,121.3L486.3,121.3z"/>
		<path fill-rule="evenodd" clip-rule="evenodd" fill="#FFFFFF" d="M497.6,126.2v-4.1c-2,0-3.9-0.4-5.7-1.2c0,2.2,0,5.3,0,5.3
			C491.9,126.2,494.7,126.2,497.6,126.2L497.6,126.2z"/>
		<path fill-rule="evenodd" clip-rule="evenodd" fill="#FFFFFF" d="M480.9,131.8c-0.3,1.8-0.8,3.4-1.4,4.8c0.1,0,2.9,0,6.8,0
			c0-2.1,0-4.7,0-4.8C486.2,131.8,482.9,131.8,480.9,131.8L480.9,131.8z"/>
		<path fill-rule="evenodd" clip-rule="evenodd" fill="#FFFFFF" d="M491.9,136.6c1.8,0,3.8,0,5.7,0v-4.8c-2.9,0-5.7,0-5.7,0
			C491.9,131.9,491.9,134.6,491.9,136.6L491.9,136.6z"/>
		<path fill-rule="evenodd" clip-rule="evenodd" fill="#E03A3E" d="M491.9,126.2c0-0.1,0-3.1,0-5.3c-0.7-0.3-1.3-0.6-2-1
			c-1.3,0.7-2.4,1.2-3.7,1.4c0,2.2,0,4.8,0,4.9c-0.1,0-3.5,0-5.5,0c0.2,1.1,0.3,2.2,0.3,3.2c0,0.8-0.1,1.6-0.2,2.4
			c2.1,0,5.3,0,5.4,0c0,0.1,0,2.8,0,4.8c1.7,0,3.6,0,5.6,0c0-2.1,0-4.7,0-4.8c0.1,0,2.8,0,5.7,0v-5.6
			C494.7,126.2,491.9,126.2,491.9,126.2L491.9,126.2z"/>
		<path fill-rule="evenodd" clip-rule="evenodd" fill="#FFDE1B" d="M505.6,119.8C505.6,119.8,505.6,119.8,505.6,119.8l0,16.8
			c0.7,0,1.3,0,2,0v-15.9C506.9,120.5,506.3,120.2,505.6,119.8L505.6,119.8z"/>
		<path fill-rule="evenodd" clip-rule="evenodd" fill="#FFDE1B" d="M501.7,121.6v15.1c0.7,0,1.3,0,2,0v-15.8
			C503,121.1,502.3,121.4,501.7,121.6L501.7,121.6z"/>
		<path fill-rule="evenodd" clip-rule="evenodd" fill="#FFDE1B" d="M497.9,122.1v14.6c0.6,0,1.2,0,1.7,0V122
			C499.1,122,498.5,122.1,497.9,122.1L497.9,122.1z"/>
		<path fill-rule="evenodd" clip-rule="evenodd" fill="#FFDE1B" d="M509.6,121.3v15.3c0.7,0,1.4,0,2,0v-15
			C510.9,121.6,510.2,121.5,509.6,121.3L509.6,121.3z"/>
		<path fill-rule="evenodd" clip-rule="evenodd" fill="#FFDE1B" d="M514.5,129.4c0-2.5,0.6-5.1,2.1-7.9c-0.7,0.1-1.5,0.2-2.2,0.2
			c-0.3,0-0.6,0-0.8,0v14.9c1.5,0,2.4,0,2.5,0C515.2,134.7,514.5,132.2,514.5,129.4L514.5,129.4z"/>
		<path fill-rule="evenodd" clip-rule="evenodd" fill="#E03A3E" d="M511.6,121.6v15c0.7,0,1.4,0,2,0v-14.9
			C512.8,121.7,512.2,121.7,511.6,121.6L511.6,121.6z"/>
		<path fill-rule="evenodd" clip-rule="evenodd" fill="#E03A3E" d="M499.7,122v14.7c0.7,0,1.3,0,2,0v-15.1
			C501,121.7,500.3,121.9,499.7,122L499.7,122z"/>
		<path fill-rule="evenodd" clip-rule="evenodd" fill="#E03A3E" d="M503.6,120.9v15.8c0.7,0,1.3,0,2,0v-16.8
			C505,120.2,504.3,120.6,503.6,120.9L503.6,120.9z"/>
		<path fill-rule="evenodd" clip-rule="evenodd" fill="#E03A3E" d="M507.6,120.8v15.9c0.7,0,1.4,0,2,0v-15.3
			C508.9,121.2,508.2,121,507.6,120.8L507.6,120.8z"/>
	</g>
	<rect x="14.3" y="10.3" fill-rule="evenodd" clip-rule="evenodd" fill="#00539E" width="11.7" height="37.9"/>
	<rect x="25.7" y="10.3" fill-rule="evenodd" clip-rule="evenodd" fill="#A1224B" width="11.7" height="37.9"/>
	<rect x="37" y="10.3" fill-rule="evenodd" clip-rule="evenodd" fill="#00539E" width="11.7" height="37.9"/>
	<rect x="48.3" y="10.3" fill-rule="evenodd" clip-rule="evenodd" fill="#A1224B" width="11.7" height="37.9"/>
	<rect x="59.7" y="10.3" fill-rule="evenodd" clip-rule="evenodd" fill="#00539E" width="11.7" height="37.9"/>
	<rect x="71" y="10.3" fill-rule="evenodd" clip-rule="evenodd" fill="#A1224B" width="11.7" height="37.9"/>
	<rect x="82.3" y="10.3" fill-rule="evenodd" clip-rule="evenodd" fill="#00539E" width="12.1" height="37.9"/>
</g>
</svg>
