<?xml version="1.0" encoding="utf-8"?>
<!-- Generator: Adobe Illustrator 18.1.1, SVG Export Plug-In . SVG Version: 6.00 Build 0)  -->
<svg version="1.1" id="Layer_1" xmlns="http://www.w3.org/2000/svg" xmlns:xlink="http://www.w3.org/1999/xlink" x="0px" y="0px"
	 viewBox="0 0 340 975.4" enable-background="new 0 0 340 975.4" xml:space="preserve">
<g>
	<ellipse fill="#006838" cx="159.9" cy="653.5" rx="159.9" ry="20.8"/>
	<ellipse fill="#ADA79E" cx="156.7" cy="646.4" rx="123.1" ry="14"/>
	<polygon fill="#D8CAB4" points="123.7,650.3 193.5,650.3 178.3,57.7 141.5,57.7 	"/>
	<polygon fill="#E5D8C7" points="141.5,57.7 178.3,57.7 163,0 	"/>
</g>
<g>
	<path fill="#331A0A" d="M286.7,959.4h-12c0,0-4.7,15.1,10.9,16h20.2c0,0,4.4-9.5-7.5-10.2C298.3,965.2,287.8,963.4,286.7,959.4z"/>
	<path fill="#331A0A" d="M203.2,959.4h12c0,0,4.7,15.1-10.9,16h-20.2c0,0-4.4-9.5,7.5-10.2C191.6,965.2,202,963.4,203.2,959.4z"/>
	<polygon fill="#231F20" points="281.9,700.5 286.7,959.4 268.6,959.4 235.2,744.5 220.6,957.7 198.1,957.7 193.5,699.2 	"/>
	<path fill="#231F20" d="M315.6,534.9c0,0-59.5-24.4-152.3,0l28,164.3c0,0,35.1,2.9,93.7,0L315.6,534.9z"/>
	<path fill="#A97C50" d="M337.3,730.3c8.8,34-6.2,36.3-11.6,35.4c-5.4-1-3.7-20.2-3.7-20.2s0,8.1-4.2,7.3
		c-4.1-0.8-4.6-10.3-4.6-10.3s-2.1-15.6,8.5-17.6C332.4,722.6,337.3,730.3,337.3,730.3z"/>
	<polygon fill="#231F20" points="315.6,534.9 337.3,732.9 314.8,732.9 297,604.7 	"/>
	<path fill="#A97C50" d="M62.5,475.2c-0.3-35.2-15.4-33.5-20.4-31.1c-5,2.4,1.7,20.5,1.7,20.5s-2.1-7.8-5.9-5.9
		c-3.8,1.9-1.8,11.1-1.8,11.1s2,15.6,12.8,14.8S62.5,475.2,62.5,475.2z"/>
	<path fill="#231F20" d="M285,696.5v65.2c0,0-44-0.4-50.2-63.9C234.7,697.8,255.7,671.7,285,696.5z"/>
	<path fill="#231F20" d="M189.9,696.5v65.2c0,0,44-0.4,50.2-63.9C240.1,697.8,219.1,671.7,189.9,696.5z"/>
	<path fill="#414042" d="M237.8,620.6L197,590.4l11.6-20.9l-27.1-4.5c0,0,1-39.3,52.7-40.7L237.8,620.6z"/>
	<path fill="#414042" d="M237.8,620.6l46.4-32.7L272.6,567l27.1-4.5c0,0-1-39.3-52.7-40.7L237.8,620.6z"/>
	<path fill="#BCBEC0" d="M267.2,534.1l-29.4,86.5l-29.2-83.4C208.6,537.2,238.2,517.8,267.2,534.1z"/>
	<polygon fill="#231F20" points="242.3,543.6 230.1,543.6 229,552.2 244.2,552.2 	"/>
	<polygon fill="#231F20" points="241.8,552.2 247.7,591.4 237.8,620.6 228.1,592.9 232.3,552.2 	"/>
	<path fill="#A97C50" d="M213,443l-2.6,62.8l9.5,0.4l-0.8,20.7c0,0,9.9,21.5,37,1.5l1.8-43c0,0,8-1.3,8.4-10.4c0.4-9.1-9-5.1-9-5.1
		l1-25.1L213,443z"/>
	<polygon fill="#231F20" points="186.3,531.3 121,521.8 59.1,470.9 53.1,483.5 111.7,547.9 173.6,566.8 	"/>
	<circle fill="#E6E7E8" cx="268.4" cy="582.7" r="10.3"/>
	<path fill="#050503" d="M257.3,469.9l-2.4,5h-4v-18.7c0,0-7.7-13.2-37.9-13.3c0,0-0.3-6.3,4.2-6.3c6.6,0,46.8-6,46.8,13.5
		l-0.4,19.2C263.6,469.4,258.7,467.1,257.3,469.9z"/>
	<path fill="#A97C50" d="M250.9,467.2v-11l3.7-3.3c0,0-12.9-17.5-41.6-9.9"/>
	<g>
		<polygon fill="#050503" points="222.7,482.9 222.7,484.1 236.3,486.8 		"/>
		<polygon fill="#050503" points="222.7,482.9 222.7,484.9 234.4,487.3 236.3,486.8 		"/>
		<polygon fill="#050503" points="222.7,482.9 212.6,484.4 213.6,485.7 222.7,484.9 		"/>
	</g>
</g>
</svg>
