<?xml version="1.0" encoding="utf-8"?>
<!-- Generator: Adobe Illustrator 18.1.1, SVG Export Plug-In . SVG Version: 6.00 Build 0)  -->
<svg version="1.1" id="Layer_1" xmlns="http://www.w3.org/2000/svg" xmlns:xlink="http://www.w3.org/1999/xlink" x="0px" y="0px"
	 viewBox="0 0 434 582.5" enable-background="new 0 0 434 582.5" xml:space="preserve">
<g>
	<path fill="#F9BD91" d="M10.6,194.9c-0.5-24.3,9.8-23.4,13.3-21.9s-0.8,14.2-0.8,14.2s1.3-5.4,3.9-4.2c2.6,1.2,1.4,7.6,1.4,7.6
		s-1.1,10.8-8.5,10.5C12.7,200.8,10.6,194.9,10.6,194.9z"/>
	<polygon fill="#FFF200" points="53.4,285.6 30,255.9 12.8,264.8 51.6,315.2 49.5,296.2 	"/>
	<polygon fill="#F9BD91" points="30,255.9 19.9,242.1 22.9,200.6 12.6,197.9 5.7,247.8 14.6,264.3 	"/>
	<polygon fill="#231F20" points="30,255.9 32.2,258.7 15.9,268.8 10.9,264.2 28.6,254 	"/>
	<path fill="#F9BD91" d="M106.8,227.6v46.7h-7.1v15.4c0,0-8,15.7-27.5,0v-31.9c0,0-5.9-1.2-5.9-8s6.8-3.5,6.8-3.5v-18.6H106.8z"/>
	<polygon fill="#8B5E3C" points="65.7,562.7 63.8,571.9 55.8,571.9 55.8,562.7 	"/>
	<path fill="#231F20" d="M55.8,571.9h8c0,0,3.1,10-7.2,10.6H43.1c0,0-3-6.3,5-6.8C48.2,575.7,55.1,574.6,55.8,571.9z"/>
	<polygon fill="#8B5E3C" points="101.5,562.7 103.4,571.9 111.4,571.9 111.4,562.7 	"/>
	<path fill="#231F20" d="M111.4,571.9h-8c0,0-3.1,10,7.2,10.6h13.4c0,0,3-6.3-5-6.8C119.1,575.7,112.1,574.6,111.4,571.9z"/>
	<path fill="#E6E7E8" d="M82.3,260.4h23.3c0,0-4.1-7.2-11.7-7.2C86.5,253.1,82.3,260.4,82.3,260.4z"/>
	<path fill="#E6E7E8" d="M82.3,260.4l-1.1,1.3c0,0,10.3,1.8,13.4-1.3c0,0,7.9,1.6,11.7,1.3l-1-1.6C105.4,260,89.5,258.5,82.3,260.4z
		"/>
	<polygon fill="#F9BD91" points="58,400.9 54.8,562.7 66.4,562.7 89.1,430.2 101.5,562.7 112.6,562.7 116.8,400 	"/>
	<path fill="#FFF200" d="M42.7,290.8c0,0,28.9-16.2,87.1,0l-11,109.5c0,0-23.9,1.7-62.9-0.2L42.7,290.8z"/>
	<polygon fill="#8B5E3C" points="65.7,562.7 63.8,571.9 55.8,571.9 55.8,562.7 	"/>
	<path fill="#231F20" d="M55.8,571.9h8c0,0,3.1,10-7.2,10.6H43.1c0,0-3-6.3,5-6.8C48.2,575.7,55.1,574.6,55.8,571.9z"/>
	<polygon fill="#8B5E3C" points="101.5,562.7 103.4,571.9 111.4,571.9 111.4,562.7 	"/>
	<path fill="#231F20" d="M111.4,571.9h-8c0,0-3.1,10,7.2,10.6h13.4c0,0,3-6.3-5-6.8C119.1,575.7,112.1,574.6,111.4,571.9z"/>
	<polygon fill="#231F20" points="54.8,400.3 49.4,468.8 85.8,468.8 88.1,442 90.5,468.8 119.1,468.8 118.8,400.3 	"/>
	<polygon fill="#231F20" points="54.8,521.7 73.4,521.7 64.2,574 54.8,574 	"/>
	<polygon fill="#231F20" points="113.6,522.9 97,523 102.1,573 112.6,572.9 	"/>
	<path fill="#231F20" d="M71.6,292.4l15,24.8l14.7-24.8h16.5c0,0-4.4-11.5-20.5-13s-33.7-2.1-39.4,12.8L71.6,292.4z"/>
	<rect x="105.2" y="291" fill="#231F20" width="10.1" height="112.1"/>
	<rect x="80.9" y="291" fill="#231F20" width="10.1" height="112.1"/>
	<rect x="57.8" y="291" fill="#231F20" width="10.1" height="112.1"/>
	<path fill="#F9BD91" d="M106.8,227.6v46.7h-7.1v15.4c0,0-8,15.7-27.5,0v-31.9c0,0-5.9-1.2-5.9-8s6.8-3.5,6.8-3.5v-18.6H106.8z"/>
	<path fill="#F9BD91" d="M72.2,289.6l14.3,24.8l13.1-24.8C99.7,289.6,87.8,274.5,72.2,289.6z"/>
	<path fill="#F9BD91" d="M161.9,194.9c0.5-24.3-9.8-23.4-13.3-21.9c-3.4,1.5,0.8,14.2,0.8,14.2s-1.3-5.4-3.9-4.2
		c-2.6,1.2-1.4,7.6-1.4,7.6s1.1,10.8,8.5,10.5S161.9,194.9,161.9,194.9z"/>
	<polygon fill="#FFF200" points="119.1,285.6 142.6,255.9 159.8,264.8 120.9,315.2 123.1,296.2 	"/>
	<polygon fill="#F9BD91" points="142.6,255.9 152.6,242.1 149.6,200.6 160,197.9 166.9,247.8 158,264.3 	"/>
	<polygon fill="#231F20" points="142.6,255.9 140.4,258.7 156.7,268.8 161.7,264.2 143.9,254 	"/>
	<path fill="#827A33" d="M90.1,229.7c2.5,1.6,4,4.6,3.8,7.5c2.5-2.2,4.3-5.3,5-8.6c1.6,2.1,2.5,4.7,2.8,7.4c0.6-2.7,1.7-5.4,3.1-7.8
		c2.5,3.2,3.7,7.4,3.3,11.4c3.6-2.2,6.1-6.1,6.6-10.4c0.5-4.2-1.1-8.6-4.2-11.6c-1.8-1.8-4.3-3.1-6.8-3.1c-2.8-0.1-5.5,1.2-8.3,1.2
		c-2.4,0-5-1.1-7.3-0.1c-2,0.9-3.5,3.3-5.7,3.2c-0.8,0-1.5-0.4-2.3-0.4c-0.6,0-1.3,0.2-1.9,0.5c-7.2,3.3-19.8,16.5-11.5,24.4
		c8.6,8.2,13.9-2.7,14.3-10c3.6,1.1,4.3,5.4,4.6,8.8C86.6,240.9,92,230.9,90.1,229.7z"/>
	<polygon fill="#231F20" points="127.4,306.7 123.1,296.2 151,262 159.8,264.8 	"/>
	<polygon fill="#231F20" points="12.8,264.8 21.5,261.4 49.7,298.7 45,309.6 	"/>
</g>
<g>
	<path fill="#F9BD91" d="M271,191.5c-0.5-24.3,9.8-23.4,13.3-21.9c3.4,1.5-0.8,14.2-0.8,14.2s1.3-5.4,3.9-4.2s1.4,7.6,1.4,7.6
		s-1.1,10.8-8.5,10.5C273,197.4,271,191.5,271,191.5z"/>
	<polygon fill="#FFF200" points="313.7,282.1 290.3,252.4 273.1,261.4 311.9,311.7 309.8,292.7 	"/>
	<polygon fill="#F9BD91" points="290.3,252.4 280.3,238.7 283.3,197.1 272.9,194.5 266,244.3 274.9,260.8 	"/>
	<polygon fill="#231F20" points="290.3,252.4 292.5,255.2 276.2,265.4 271.2,260.7 288.9,250.5 	"/>
	<path fill="#F9BD91" d="M367.1,224.1v46.7H360v15.4c0,0-8,15.7-27.5,0v-31.9c0,0-5.9-1.2-5.9-8s6.8-3.5,6.8-3.5v-18.6H367.1z"/>
	<polygon fill="#8B5E3C" points="326,559.3 324.1,568.4 316.2,568.4 316.2,559.3 	"/>
	<path fill="#231F20" d="M316.2,568.4h8c0,0,3.1,10-7.2,10.6h-13.4c0,0-3-6.3,5-6.8C308.5,572.3,315.4,571.1,316.2,568.4z"/>
	<polygon fill="#8B5E3C" points="361.8,559.3 363.8,568.4 371.7,568.4 371.7,559.3 	"/>
	<path fill="#231F20" d="M371.7,568.4h-8c0,0-3.1,10,7.2,10.6h13.4c0,0,3-6.3-5-6.8C379.4,572.3,372.5,571.1,371.7,568.4z"/>
	<path fill="#E6E7E8" d="M342.7,256.9H366c0,0-4.1-7.2-11.7-7.2C346.8,249.7,342.7,256.9,342.7,256.9z"/>
	<path fill="#E6E7E8" d="M342.7,256.9l-1.1,1.3c0,0,10.3,1.8,13.4-1.3c0,0,7.9,1.6,11.7,1.3l-1-1.6
		C365.8,256.5,349.8,255,342.7,256.9z"/>
	<polygon fill="#F9BD91" points="318.4,397.4 315.1,559.3 326.7,559.3 349.4,426.7 361.8,559.3 372.9,559.3 377.1,396.6 	"/>
	<path fill="#FFF200" d="M303,287.3c0,0,28.9-16.2,87.1,0l-11,109.5c0,0-23.9,1.7-62.9-0.2L303,287.3z"/>
	<polygon fill="#8B5E3C" points="326,559.3 324.1,568.4 316.2,568.4 316.2,559.3 	"/>
	<path fill="#231F20" d="M316.2,568.4h8c0,0,3.1,10-7.2,10.6h-13.4c0,0-3-6.3,5-6.8C308.5,572.3,315.4,571.1,316.2,568.4z"/>
	<polygon fill="#8B5E3C" points="361.8,559.3 363.8,568.4 371.7,568.4 371.7,559.3 	"/>
	<path fill="#231F20" d="M371.7,568.4h-8c0,0-3.1,10,7.2,10.6h13.4c0,0,3-6.3-5-6.8C379.4,572.3,372.5,571.1,371.7,568.4z"/>
	<polygon fill="#231F20" points="315.1,396.8 309.8,465.3 346.1,465.3 348.4,438.6 350.8,465.3 379.5,465.3 379.2,396.8 	"/>
	<polygon fill="#231F20" points="315.1,518.3 333.7,518.3 324.6,570.6 315.1,570.6 	"/>
	<polygon fill="#231F20" points="374,519.4 357.3,519.5 362.4,569.5 372.9,569.4 	"/>
	<path fill="#231F20" d="M331.9,289l15,24.8l14.7-24.8h16.5c0,0-4.4-11.5-20.5-13c-16.1-1.5-33.7-2.1-39.4,12.8L331.9,289z"/>
	<rect x="365.6" y="287.6" fill="#231F20" width="10.1" height="112.1"/>
	<rect x="341.2" y="287.6" fill="#231F20" width="10.1" height="112.1"/>
	<rect x="318.1" y="287.6" fill="#231F20" width="10.1" height="112.1"/>
	<path fill="#F9BD91" d="M367.1,224.1v46.7H360v15.4c0,0-8,15.7-27.5,0v-31.9c0,0-5.9-1.2-5.9-8s6.8-3.5,6.8-3.5v-18.6H367.1z"/>
	<path fill="#F9BD91" d="M332.5,286.1l14.3,24.8l13.1-24.8C360,286.1,348.1,271,332.5,286.1z"/>
	<path fill="#F9BD91" d="M422.2,191.5c0.5-24.3-9.8-23.4-13.3-21.9c-3.4,1.5,0.8,14.2,0.8,14.2s-1.3-5.4-3.9-4.2
		c-2.6,1.2-1.4,7.6-1.4,7.6s1.1,10.8,8.5,10.5C420.2,197.4,422.2,191.5,422.2,191.5z"/>
	<polygon fill="#FFF200" points="379.5,282.1 402.9,252.4 420.1,261.4 381.2,311.7 383.4,292.7 	"/>
	<polygon fill="#F9BD91" points="402.9,252.4 412.9,238.7 409.9,197.1 420.3,194.5 427.2,244.3 418.3,260.8 	"/>
	<polygon fill="#231F20" points="402.9,252.4 400.7,255.2 417,265.4 422,260.7 404.3,250.5 	"/>
	<path fill="#603913" d="M350.4,226.2c2.5,1.6,4,4.6,3.8,7.5c2.5-2.2,4.3-5.3,5-8.6c1.6,2.1,2.5,4.7,2.8,7.4
		c0.6-2.7,1.7-5.4,3.1-7.8c2.5,3.2,3.7,7.4,3.3,11.4c3.6-2.2,6.1-6.1,6.6-10.4c0.5-4.2-1.1-8.6-4.2-11.6c-1.8-1.8-4.3-3.1-6.8-3.1
		c-2.8-0.1-5.5,1.2-8.3,1.2c-2.4,0-5-1.1-7.3-0.1c-2,0.9-3.5,3.3-5.7,3.2c-0.8,0-1.5-0.4-2.3-0.4c-0.6,0-1.3,0.2-1.9,0.5
		c-7.2,3.3-19.8,16.5-11.5,24.4c8.6,8.2,13.9-2.7,14.3-10c3.6,1.1,4.3,5.4,4.6,8.8C346.9,237.4,352.4,227.4,350.4,226.2z"/>
	<polygon fill="#231F20" points="387.8,303.3 383.4,292.7 411.3,258.6 420.1,261.4 	"/>
	<polygon fill="#231F20" points="273.1,261.4 281.8,258 310.1,295.2 305.3,306.1 	"/>
</g>
<g>
	<polygon fill="#FFF200" points="182.1,249.3 140,229.1 125.8,248.3 196.2,283.2 183.5,263.2 	"/>
	<polygon fill="#231F20" points="140,229.1 144,231 131.4,251.1 123.3,248.6 137.5,227.8 	"/>
	<path fill="#F9BD91" d="M243.8,180.5v52.4h-8v17.2c0,0-8.9,17.6-30.8,0v-35.8c0,0-6.6-1.3-6.6-8.9s7.6-4,7.6-4v-20.9H243.8z"/>
	<polygon fill="#8B5E3C" points="197.7,556.6 195.5,566.8 186.6,566.8 186.6,556.6 	"/>
	<path fill="#231F20" d="M186.6,566.8h8.9c0,0,3.5,11.3-8.1,11.9h-15.1c0,0-3.3-7.1,5.6-7.6C178,571.2,185.8,569.8,186.6,566.8z"/>
	<polygon fill="#8B5E3C" points="237.8,556.6 240,566.8 248.9,566.8 248.9,556.6 	"/>
	<path fill="#231F20" d="M248.9,566.8H240c0,0-3.5,11.3,8.1,11.9h15.1c0,0,3.3-7.1-5.6-7.6C257.6,571.2,249.8,569.8,248.9,566.8z"/>
	<path fill="#E6E7E8" d="M216.3,217.3h26.2c0,0-4.6-8.1-13.1-8.1C221,209.2,216.3,217.3,216.3,217.3z"/>
	<path fill="#E6E7E8" d="M216.3,217.3l-1.2,1.4c0,0,11.5,2,15.1-1.4c0,0,8.9,1.7,13.2,1.4l-1.1-1.8
		C242.3,216.9,224.4,215.2,216.3,217.3z"/>
	<polygon fill="#F9BD91" points="189.1,375 185.5,556.6 198.4,556.6 223.9,407.8 237.8,556.6 250.3,556.6 255,374 	"/>
	<path fill="#FFF200" d="M171.8,251.4c0,0,32.5-18.2,97.7,0l-12.3,122.9c0,0-26.8,1.9-70.5-0.3L171.8,251.4z"/>
	<polygon fill="#8B5E3C" points="197.7,556.6 195.5,566.8 186.6,566.8 186.6,556.6 	"/>
	<path fill="#231F20" d="M186.6,566.8h8.9c0,0,3.5,11.3-8.1,11.9h-15.1c0,0-3.3-7.1,5.6-7.6C178,571.2,185.8,569.8,186.6,566.8z"/>
	<polygon fill="#8B5E3C" points="237.8,556.6 240,566.8 248.9,566.8 248.9,556.6 	"/>
	<path fill="#231F20" d="M248.9,566.8H240c0,0-3.5,11.3,8.1,11.9h15.1c0,0,3.3-7.1-5.6-7.6C257.6,571.2,249.8,569.8,248.9,566.8z"/>
	<polygon fill="#231F20" points="185.5,374.3 179.4,451.1 220.2,451.1 222.8,421.1 225.5,451.1 257.6,451.1 257.3,374.3 	"/>
	<polygon fill="#231F20" points="185.5,510.6 206.3,510.6 196,569.2 185.5,569.2 	"/>
	<polygon fill="#231F20" points="251.5,511.9 232.8,512 238.5,568.1 250.3,568 	"/>
	<path fill="#231F20" d="M204.2,253.3l16.8,27.8l16.5-27.8h18.6c0,0-5-12.9-23-14.6c-18.1-1.7-37.8-2.3-44.2,14.4L204.2,253.3z"/>
	<path fill="#F9BD91" d="M128.8,160.5c-5.2-29.5,7.5-30.4,12-29.2c4.5,1.2,1.8,17.4,1.8,17.4s0.5-6.9,4-5.9c3.4,1,3.2,9.1,3.2,9.1
		s0.7,13.4-8.3,14.4S128.8,160.5,128.8,160.5z"/>
	<rect x="242" y="251.7" fill="#231F20" width="11.3" height="125.8"/>
	<rect x="214.7" y="251.7" fill="#231F20" width="11.3" height="125.8"/>
	<rect x="188.8" y="251.7" fill="#231F20" width="11.3" height="125.8"/>
	<path fill="#F9BD91" d="M243.8,180.5v52.4h-8v17.2c0,0-8.9,17.6-30.8,0v-35.8c0,0-6.6-1.3-6.6-8.9s7.6-4,7.6-4v-20.9H243.8z"/>
	<path fill="#231F20" d="M206,201.4v3h3h1.1v-9.9c0,0,6-1.6,6.3-4.9c0.3-3.3,0-6.2,0-6.2h26.2l1.2,4.1c0,0,4.9-12.9,1.5-16.3
		c-3.4-3.4-43.1,1.3-48.1,14.8c0,0-0.8,18.1,1.4,21.2c0,0-1.6-6.5,3-6.8C205.8,200.4,206,201.4,206,201.4z"/>
	<path fill="#F9BD91" d="M205,250.1l16.1,27.9l14.7-27.9C235.8,250.1,222.5,233.1,205,250.1z"/>
	<polygon fill="#231F20" points="177.5,278 175.9,260.7 133.8,240 127.5,249.2 	"/>
	<g>
		<circle fill="#D1A039" cx="235.8" cy="31.1" r="25.9"/>
		<rect x="200.9" y="53.5" fill="#808285" width="69.8" height="7.3"/>
		<rect x="232.2" y="55.7" fill="#808285" width="7.3" height="78"/>
		
			<rect x="215" y="91" transform="matrix(-0.2117 0.9773 -0.9773 -0.2117 400.1915 -133.5013)" fill="#808285" width="78" height="7.3"/>
		
			<rect x="176.2" y="91" transform="matrix(0.2117 0.9773 -0.9773 0.2117 262.1389 -135.6918)" fill="#808285" width="78" height="7.3"/>
		<rect x="213.8" y="126.7" fill="#231F20" width="45.9" height="9.2"/>
		<rect x="209.9" y="131.3" fill="#231F20" width="51.9" height="10.7"/>
	</g>
	<path fill="#F9BD91" d="M266,124.3c-8.5-28.7-20.3-23.9-23.8-20.8c-3.5,3.1,6.2,16.4,6.2,16.4s-3.6-5.9-6.2-3.5
		c-2.6,2.4,1.2,9.5,1.2,9.5s5.3,12.3,13.9,9.1C265.8,132,266,124.3,266,124.3z"/>
	<polygon fill="#FFF200" points="249.5,246.9 266,203.2 289.6,207.3 262.6,281.1 258.1,257.9 	"/>
	<polygon fill="#F9BD91" points="266,203.2 272.7,183.3 253.6,135.5 264.8,128.5 291.6,184.6 287.3,207.3 	"/>
	<polygon fill="#231F20" points="266,203.2 264.4,207.3 287.4,213.2 291.6,205.8 266.9,200.5 	"/>
	<polygon fill="#231F20" points="268.1,266.1 259.7,254.8 278,210.8 287.4,213.2 	"/>
	<polygon fill="#F9BD91" points="123.3,243.3 108.7,233.3 128.8,160.5 138.7,166.3 127.6,217.7 137.5,227.8 127.5,246.7 	"/>
	<path fill="#231F20" d="M226.9,185c1.7,3.8,2.4,8.1,1.9,12.2c2.9-4,3.9-9.3,2.6-14.1c3.8,2.6,6.7,6.4,8.2,10.8
		c1.3-4,1.2-8.4-0.2-12.4c2.6,1.9,4.2,5.1,4.1,8.2c3.9-4.5,5.9-10.7,5.3-16.6c-0.6-5.9-3.7-11.6-8.4-15.3c0,4.7-0.4,10.1-4.3,12.7
		c-0.3-5.4-4.2-10.3-9.4-11.9c1.3,4.1,0.2,8.9-2.9,11.9c-0.4-1-0.5-2.1-0.5-3.1c-5.8,1.8-29.6,10.4-22.5,20.1
		c4.1,5.5,19.3,0.6,16.1,11.9C219.4,196.6,224.3,179.2,226.9,185z"/>
</g>
</svg>
