<?xml version="1.0" encoding="utf-8"?>
<!-- Generator: Adobe Illustrator 18.1.1, SVG Export Plug-In . SVG Version: 6.00 Build 0)  -->
<svg version="1.1" id="Layer_1" xmlns="http://www.w3.org/2000/svg" xmlns:xlink="http://www.w3.org/1999/xlink" x="0px" y="0px"
	 viewBox="0 0 188.2 341.5" enable-background="new 0 0 188.2 341.5" xml:space="preserve">
<g>
	<ellipse fill="#868382" cx="97.4" cy="320" rx="90.8" ry="21.5"/>
	<path fill="#992323" d="M184.4,321c0,0-83.2,33.8-174.8,0C9.6,321,94.1,264.8,184.4,321z"/>
	<ellipse fill="#868382" cx="96.4" cy="27" rx="90.8" ry="21.5"/>
	<rect x="9.4" y="26" fill="#992323" width="174.8" height="294.8"/>
	<path fill="#992323" d="M9.4,26c0,0,83.2-33.8,174.8,0C184.1,26,99.6,82.2,9.4,26z"/>
	<polygon fill="#FFFACC" points="9.4,121.7 9.4,228.5 97.4,316.5 184.1,229.7 184.1,120.4 97.4,33.7 	"/>
	<g id="bOjIZk.tif_7_">
		<g>
			<g>
				<path fill="#721717" d="M165.5,167.6c-0.1,0.7-0.5,1.1-0.9,1.5c-0.9,1-1.7,2.1-2.5,3.1c-0.3,0.4-0.7,0.7-1,1
					c-0.9,1-1.8,2-2.7,3.1c-1.2,1.5-2.8,2.5-4.1,4c-0.5,0.5-1,1.1-1.5,1.5c-1.2,1-2.3,2.1-3.5,3.1c-1.4,1.1-2.9,2-4.4,2.9
					c-0.6,0.4-0.8,0.9-1.1,1.5c-0.5,1-1,2-1.3,3.1c-0.5,1.4-0.9,2.8-1.3,4.2c-0.3,0.9-0.4,1.8-0.2,2.8c0.1,0.7,1,1.1,1.7,0.8
					c1.3-0.7,2.2-1.8,3.1-3c1.1-1.5,2.2-3.1,3.3-4.6c0.9-1.3,1.8-2.6,2.7-3.9c0.7-1,1.5-2,2.3-2.9c1-1.1,2-2.2,3.1-3.3
					c0.8-0.8,1.8-1.5,2.7-2.2c0.1-0.1,0.2-0.1,0.3-0.2c0.8-0.8,1.9-1.2,3-1.6c1-0.3,2-0.2,3,0.2c0.4,0.2,0.6,0.6,0.9,0.9
					c0.2,0.2,0.4,0.4,0.7,0.7c0.2-0.3,0.4-0.5,0.5-0.8c0.2-0.5,0.4-0.6,0.9-0.6c1,0,1.9-0.1,2.9-0.1c0.5,0,0.9,0,1.4,0
					c0.2,0,0.4,0,0.2,0.3c-0.2,0.4-0.4,0.8-0.6,1.3c-0.4,0.8-0.9,1.6-1.4,2.4c-0.6,1-1.1,2-1.7,3c-0.3,0.4-0.5,0.9-0.8,1.3
					c-0.7,1.3-1.4,2.6-2.2,3.9c-0.6,1-1.2,2-1.8,3c-0.8,1.5-1.7,3-2.5,4.5c-0.1,0.2-0.2,0.5-0.2,0.7c0,0.2,0,0.5,0.1,0.6
					c0.2,0.1,0.5,0.2,0.7,0.1c0.6-0.3,1.4-0.5,1.9-1.1c0.4-0.5,1-0.8,1.5-1.3c1.2-1.2,2.2-2.5,3.1-3.9c0.4-0.7,0.9-1.3,1.4-1.9
					c0.2-0.3,1.2-0.4,1.4-0.2c0.1,0.1,0.1,0.3,0.1,0.4c-0.3,0.5-0.7,1-1.1,1.5c-0.3,0.4-0.5,0.8-0.8,1.1c-0.7,1.2-1.6,2.3-2.6,3.3
					c-0.7,0.8-1.4,1.7-2.2,2.5c-0.7,0.7-1.4,1.3-2.2,2c-1.1,1-2.5,1.7-3.8,2.3c-0.8,0.4-1.7,0.4-2.6,0c-0.7-0.3-1.1-0.9-1.2-1.6
					c-0.1-0.6,0-1.3,0-2c0-0.1,0-0.2-0.1-0.4c-0.2,0.1-0.4,0.2-0.5,0.3c-1.1,1.2-2.4,2.2-3.8,3c-1.1,0.7-2.4,1.1-3.7,0.7
					c-0.8-0.2-1.5-0.8-1.8-1.7c-0.2-0.7-0.4-1.3-0.3-2c0-0.4,0.1-0.9,0.1-1.3c0,0-0.1-0.1-0.1-0.1c-0.2,0.2-0.4,0.3-0.6,0.5
					c-0.6,0.7-1.2,1.4-1.9,2c-0.7,0.7-1.5,1.2-2.3,1.7c-0.8,0.6-1.7,0.9-2.6,1c-0.8,0.1-1.5-0.1-2.1-0.6c-1-0.7-1.4-1.8-1.5-2.9
					c-0.2-1.6,0.2-3.1,0.6-4.6c0.4-1.3,0.8-2.6,1.3-3.9c0.2-0.6,0.4-1.1,0.5-1.7c0-0.1,0-0.3-0.1-0.3c-0.1-0.1-0.2-0.1-0.3,0
					c-0.2,0-0.4,0.1-0.6,0.1c-0.5,0-1.1,0-1.6,0.1c-0.2,0-0.4,0.2-0.5,0.4c-1,1.5-1.8,3-2.8,4.4c-0.9,1.3-2,2.5-3,3.7
					c-1.2,1.4-2.6,2.6-4.1,3.6c-1.2,0.8-2.5,1.5-4,1.8c-1.1,0.2-2.2,0.1-2.9-0.7c-0.7-0.6-1.1-1.5-1.2-2.6c-0.2-2,0.2-3.9,0.9-5.7
					c0.3-0.8,0.6-1.7,1-2.5c0.5-1,1.1-2.1,1.7-3.1c0.4-0.6,0.7-1.2,1.2-1.8c0.5-0.7,1-1.3,1.5-1.9c0.8-1,1.6-2,2.4-2.9
					c0.7-0.7,1.4-1.3,2.2-1.9c1.3-1.1,2.8-2,4.4-2.7c0.7-0.4,1.5-0.6,2.3-0.6c0.9,0,1.9,0.1,2.7,0.7c0.6,0.5,0.8,1.2,1,1.9
					c0.3,1.6,0.1,3.1-0.5,4.5c-0.3,0.8-0.6,1.7-1,2.5c-0.1,0.4-0.3,0.7-0.5,1c-0.2,0.3-0.1,0.4,0.2,0.4c0.6,0,1.2-0.1,1.7-0.2
					c0.6-0.1,1.1-0.5,1.4-1.1c0.5-1.2,1.1-2.4,1.7-3.5c1-1.9,2.1-3.7,3.3-5.5c0.9-1.5,1.9-3,2.9-4.5c1-1.4,2.1-2.8,3.1-4.2
					c0.9-1.2,1.8-2.3,2.7-3.5c0.4-0.5,0.9-1.1,1.4-1.6c0.8-0.9,1.6-1.7,2.4-2.5c1.1-1.2,2.3-2.3,3.5-3.4c1.5-1.3,3.1-2.5,4.6-3.6
					c0.9-0.7,1.7-1.3,2.7-1.8c1.1-0.7,2.4-0.9,3.7-0.8c0.7,0.1,1.3,0.8,1.4,1.6c0.1,1.6-0.3,3.1-1.1,4.4c-0.4,0.7-1,0.9-1.7,0.7
					c0.3-0.6,0.6-1.2,0.9-1.8c0.3-0.8,0.6-1.6,0.7-2.4c0.1-0.7-0.6-1.2-1.3-0.8c-0.8,0.5-1.7,1-2.4,1.6c-1.6,1.4-3.1,2.8-4.5,4.3
					c-1,1.1-1.9,2.2-2.9,3.4c-0.7,0.9-1.4,1.8-2.1,2.7c-0.4,0.5-0.8,1.1-1.2,1.7c-0.8,1.1-1.6,2.1-2.3,3.2c-0.6,0.9-1.2,1.9-1.8,2.8
					c-0.7,1-1.4,2.1-2,3.1c-0.5,0.9-1,1.7-1.5,2.6c-0.5,1-1.1,1.9-1.6,2.9c-0.3,0.5-0.5,1-0.7,1.5c0.6,0,0.9-0.6,1.4-0.9
					c0.9-0.7,1.7-1.4,2.6-2.1c0.8-0.6,1.6-1.2,2.3-1.9c0.9-0.8,1.9-1.6,2.8-2.5c0.6-0.6,1.1-1.3,1.6-2c0-0.1,0.1-0.1,0.1-0.2
					c0.8-0.8,1.5-1.6,2.3-2.4c0.8-0.8,1.7-1.6,2.5-2.4c0.7-0.8,1.2-1.6,1.8-2.4c0.1-0.2,0.3-0.3,0.5-0.4
					C164.5,167.5,165,167.3,165.5,167.6z M166.4,182c0-0.8-0.4-1.3-1-1.1c-0.6,0.1-1.2,0.4-1.7,0.8c-0.9,0.7-1.9,1.5-2.7,2.4
					c-0.9,0.9-1.8,2-2.6,3c-0.8,1-1.5,2.1-2.2,3.2c-0.7,1.1-1.4,2.2-2.1,3.3c-0.8,1.5-1.6,3.1-1.8,4.9c0,0.4-0.1,0.9,0.2,1.1
					c0.3,0.3,0.8,0.5,1.3,0.2c0.3-0.2,0.7-0.3,0.9-0.6c0.6-0.6,1.3-1.2,1.8-1.8c0.7-0.8,1.2-1.6,1.8-2.4c0.5-0.7,1-1.4,1.4-2.2
					c0.7-1.2,1.5-2.4,2.2-3.6c0.3-0.5,0.5-0.9,0.8-1.4c0.5-0.8,1-1.6,1.4-2.3c0.5-0.8,0.9-1.5,1.4-2.3
					C166,182.7,166.2,182.3,166.4,182z M127.9,186.8c-0.1,0.1-0.3,0.2-0.4,0.4c-0.8,1.1-1.6,2.2-2.3,3.3c-0.9,1.4-1.7,2.9-2.3,4.6
					c-0.3,1-0.7,2.1-0.6,3.2c0.1,1.3,1.4,1.9,2.6,1.3c1-0.5,1.9-1.2,2.6-2c0.9-1,1.8-2,2.6-3.1c0.7-0.9,1.3-2,1.9-3
					c0.3-0.5,0.2-1.2-0.2-1.4c-1-0.4-1.8-0.9-2.6-1.7C128.8,188,128.4,187.4,127.9,186.8z M133.5,189.1c0.3-0.6,0.6-1.2,0.8-1.9
					c0.5-1.1,1-2.3,1.2-3.6c0.1-0.6,0.1-1.3,0-1.9c0-0.3-0.2-0.6-0.4-0.8c-0.4-0.4-0.9-0.5-1.5-0.4c-0.5,0.1-0.9,0.4-1.3,0.6
					c-1,0.5-1.7,1.3-2.2,2.2c-0.7,1.3-0.5,2.6,0.3,3.8C131.1,188.2,132.1,188.9,133.5,189.1z"/>
				<path fill="#721717" d="M50.9,175.4c0.4,0,0.7,0,0.9-0.1c1-0.3,1.9-0.9,2.7-1.4c1.8-1.1,3.2-2.7,4.7-4.1c1.1-1,2.2-1.9,3.5-2.7
					c0.8-0.5,1.6-1,2.4-1.3c0.8-0.3,1.6-0.5,2.5-0.3c0.8,0.1,1.6,0.3,2.2,0.8c0.7,0.5,1.1,1.3,1.2,2.2c0.1,1-0.1,1.9-0.5,2.8
					c-0.3,0.9-0.9,1.7-1.5,2.5c-0.6,0.7-1.3,1.3-2.3,1.4c-0.7,0-1.2-0.6-1.3-1.2c-0.1-0.9,0.3-1.6,0.8-2.2c0.4-0.5,0.8-1.1,1.4-1.3
					c0.4-0.1,0.8-0.3,1.2-0.3c0.5,0,0.6-0.3,0.7-0.7c0.2-1.1-0.8-1.7-2-1.4c-1.4,0.5-2.4,1.3-3.4,2.3c-1.5,1.4-2.8,2.9-4,4.6
					c-1.1,1.6-2.2,3.2-3,5c-0.5,1.1-1,2.1-1.4,3.2c-0.4,1.2-0.6,2.3-0.2,3.6c0.5,1.4,1.6,1.7,2.9,1.5c1.4-0.3,2.5-1,3.5-1.9
					c0.6-0.5,1.2-1,1.8-1.5c0.7-0.6,1.3-1.3,1.9-2c0.6-0.7,1.1-1.3,1.7-2c0.7-0.9,1.4-1.9,2.1-2.8c0.5-0.7,1-1.3,1.5-1.9
					c0.5-0.6,0.9-1.2,1.3-1.7c0.5-0.7,1.1-1.4,1.7-2c0.6-0.7,1.3-1.4,1.9-2c1.1-1,2.2-2,3.3-2.8c1.1-0.8,2.2-1.4,3.5-1.8
					c1.3-0.4,2.5-0.1,3.5,0.9c0.1,0.1,0.1,0.2,0.2,0.2c0.2,0.2,0.5,0.3,0.6-0.1c0.2-0.4,0.5-0.6,1-0.5c1.5,0,2.9,0,4.6,0
					c-0.3,0.5-0.5,0.9-0.7,1.3c-1,1.7-2.1,3.5-3.1,5.2c-0.8,1.4-1.6,2.8-2.4,4.2c-0.7,1.2-1.5,2.3-2.2,3.4c-0.6,1-1.2,2-1.8,3
					c-0.4,0.7-0.8,1.4-1.2,2.2c-0.1,0.1-0.1,0.3-0.1,0.4c0,0.3,0,0.7,0.1,0.8c0.3,0.1,0.7,0.2,1,0.1c0.7-0.4,1.4-0.8,2-1.4
					c1-0.9,1.9-1.8,2.8-2.8c0.9-1.1,1.7-2.2,2.6-3.3c0.1-0.1,0.3-0.3,0.5-0.3c0.4,0,0.9,0,1.5,0c-0.2,0.4-0.4,0.6-0.6,0.9
					c-0.8,1.1-1.7,2.2-2.5,3.2c-0.4,0.6-0.9,1.1-1.4,1.6c-0.9,1-1.7,1.9-2.6,2.8c-1.2,1.1-2.5,2.2-3.8,3.2c-1,0.7-2.1,1.2-3.5,1.2
					c-1.3,0-2.2-1.1-2.2-2.3c0-0.5,0-1.1,0-1.7c-0.2,0.1-0.5,0.2-0.6,0.3c-0.8,1-1.9,1.8-3,2.5c-0.9,0.6-1.8,1-2.8,1.1
					c-1.6,0.3-3.4-0.7-3.5-2.7c-0.1-1.3,0.2-2.5,0.5-3.7c0-0.1,0-0.2,0-0.3c0,0,0,0-0.1-0.1c-0.4,0.3-0.8,0.7-1.2,1
					c-1.1,1-2.2,2.1-3.4,3.1c-1.1,0.9-2.3,1.7-3.6,2.2c-1.2,0.4-2.4,0.7-3.6,0.6c-2-0.1-3.6-1.6-4.1-3.5c-0.2-0.6-0.3-1.3-0.3-2
					c0-0.6,0.1-1.2,0.3-1.8c0.5-1.5,0.9-2.9,1.5-4.4c0.4-1,1-2,1.5-2.9c0.1-0.2,0.2-0.3,0.3-0.6c-0.4,0.1-0.8,0.1-1.1,0.2
					c-0.3,0.1-0.7,0.2-1,0.2c-0.7,0-1,0.6-1.3,1.1c-0.7,1.1-1.3,2.3-2,3.3c-0.7,1.1-1.5,2.1-2.4,3c-1.1,1.3-2.3,2.5-3.5,3.6
					c-0.7,0.7-1.5,1.2-2.3,1.8c-0.8,0.7-1.7,1.1-2.7,1.5c-1.2,0.5-2.5,0.7-3.8-0.1c-0.8-0.5-1.3-1.2-1.6-2.1
					c-0.2-0.9-0.4-1.9-0.3-2.8c0.1-1.1,0.4-2.1,0.6-3.1c0.2-0.9,0.6-1.7,0.9-2.5c0.5-1.1,1.1-2.2,1.8-3.3c0.9-1.3,1.8-2.7,2.8-3.9
					c1.1-1.3,2.4-2.4,3.5-3.7c1-1,2.1-1.8,3.3-2.6c1.1-0.7,2.2-1.3,3.5-1.7c0.9-0.3,1.8-0.4,2.7-0.2c0.8,0.1,1.5,0.6,2,1.3
					c0.7,1.1,0.6,2.4,0.5,3.6c-0.2,1.3-0.7,2.5-1.1,3.7C51.4,174.6,51.2,174.9,50.9,175.4z M84.8,167.8c-0.6,0-1.1,0.3-1.6,0.6
					c-1,0.6-1.7,1.5-2.5,2.4c-1,1.2-2.1,2.4-3,3.7c-1.2,1.5-2.3,3.1-3.3,4.7c-1.2,2-2.3,4-2.8,6.3c-0.1,0.6,0,1.1,0.4,1.4
					c0.3,0.2,0.8,0.2,1.1,0.1c1.1-0.5,2-1.2,2.7-2.1c0.5-0.6,1-1.3,1.4-2c1-1.5,2-3,3-4.6c0.9-1.4,1.7-2.8,2.6-4.2
					c1-1.6,1.9-3.3,2.8-4.9c0.3-0.5,0.3-0.8-0.1-1.1C85.3,167.9,85,167.9,84.8,167.8z M43.1,173.6c-0.1,0-0.2,0.1-0.3,0.2
					c-0.8,1.2-1.8,2.4-2.5,3.7c-0.8,1.4-1.6,2.9-2.3,4.4c-0.4,0.9-0.7,1.9-0.7,2.9c0.1,1.7,1.2,2.5,2.8,1.7c1.1-0.6,2-1.4,2.9-2.3
					c1.1-1.1,2.1-2.4,3-3.7c0.6-1,1.3-1.9,1.9-2.9c0.2-0.4,0.1-0.5-0.3-0.7c-1.2-0.4-2.4-1-3.3-1.9C44,174.6,43.6,174.1,43.1,173.6z
					 M51,169.7c-0.1-0.3-0.1-0.7-0.3-1.2c-0.1-0.3-0.5-0.5-0.8-0.7c-0.8-0.4-1.5-0.1-2.2,0.3c-0.8,0.4-1.4,1-1.9,1.8
					c-0.8,1.2-1.3,2.8-0.1,4.1c0.8,1,1.9,1.4,3.1,1.6c0.2,0,0.4-0.2,0.5-0.4c0.2-0.4,0.4-0.9,0.6-1.4
					C50.5,172.6,50.9,171.3,51,169.7z"/>
				<path fill="#721717" d="M131.5,155c-0.1-0.4-0.4-0.5-0.8-0.5c-0.8,0.1-1.7,0.1-2.5,0.3c-0.9,0.3-1.8,0.7-2.6,1.2
					c-1.1,0.6-2.1,1.2-3.2,1.9c-0.8,0.5-1.6,1.2-2.3,1.8c-0.6,0.5-1.2,1.1-1.8,1.7c-1,0.9-2,1.9-3,2.8c-0.2,0.2-0.4,0.5-0.7,0.8
					c-0.3,0.4-0.7,0.7-1,1c-0.4,0.4-0.7,0.8-1.1,1.3c-0.7,0.8-1.4,1.6-2.1,2.5c-1,1.3-2.1,2.6-3,3.9c-1.7,2.5-3.4,5-4.7,7.7
					c-0.9,1.7-1.7,3.5-2.4,5.3c-0.8,1.9-1.3,4-1.6,6.1c-0.1,0.8-0.2,1.7-0.3,2.5c0,1.5,0.4,2.9,1.3,4c0.7,0.8,1.6,1.3,2.8,1.5
					c1,0.2,1.9-0.1,2.8-0.3c0.6-0.1,1-0.5,1.5-0.8c1.1-0.6,2.1-1.4,2.9-2.3c0.8-0.8,1.6-1.5,2.3-2.4c1.2-1.6,2.5-3.3,3.4-5.1
					c0.6-1.2,1.1-2.5,1.5-3.9c0.2-0.9,0.4-1.9,0.5-2.8c0-0.6-0.1-1.3-0.4-1.8c-0.2-0.3-1.2-0.5-1.7-0.4c-1,0.3-1.8,0.8-2.5,1.7
					c-0.6,0.8-1.1,1.5-1.6,2.3c-0.8,1.2-1.2,2.5-1.5,3.9c-0.1,0.5-0.4,0.8-0.8,1c-0.9,0.4-1.8,0.9-2.6,1.5c-0.9,0.6-1.7,1.4-2.6,2.1
					c-0.3,0.3-0.6,0.6-1,0.9c0-0.4,0-0.8,0.1-1.1c0.2-1,0.4-2,0.7-3c0.1-0.5,0.4-1.1,0.6-1.6c0.5-1.1,0.9-2.3,1.5-3.3
					c0.6-1.1,1.3-2.1,2.1-3c0.9-0.9,1.9-1.7,2.9-2.5c0.7-0.5,1.5-0.8,2.3-1.1c0.9-0.3,1.8-0.4,2.7-0.6c0.9-0.1,2.3,0.8,2.7,1.7
					c0.4,0.9,0.6,1.9,0.6,2.9c0,0.8-0.2,1.6-0.3,2.3c-0.1,0.7-0.2,1.4-0.5,2.1c-0.4,1.1-0.9,2.3-1.5,3.4c-0.5,1-1,1.9-1.6,2.8
					c-0.9,1.3-1.9,2.6-2.9,3.9c-0.5,0.6-1.1,1.2-1.7,1.8c-1.6,1.6-3.5,2.9-5.4,4.1c-0.5,0.3-1.1,0.6-1.7,0.8
					c-0.9,0.3-1.8,0.5-2.7,0.6c-1.4,0.3-2.7,0.2-4-0.3c-0.9-0.3-1.8-0.9-2.5-1.6c-0.5-0.5-0.9-1.1-1.4-1.6c-0.1-0.1-0.1-0.3-0.2-0.4
					c-0.7-0.9-0.9-2-1.2-3.1c-0.3-1.4-0.3-2.8-0.2-4.3c0.1-1.2,0.4-2.4,0.8-3.6c0.5-1.5,1-3.1,1.6-4.5c0.6-1.4,1.2-2.7,1.9-4
					c0.4-0.8,0.8-1.6,1.3-2.3c0.6-1,1.3-2,2-3c1.3-1.9,2.6-3.8,4-5.6c0.7-0.9,1.4-1.7,2.2-2.6c0.8-0.9,1.7-1.8,2.5-2.6
					c1.1-1.1,2.3-2.3,3.5-3.4c1.1-1,2.3-1.8,3.4-2.7c0.6-0.4,1.1-0.9,1.8-1.3c1.4-0.8,2.9-1.6,4.4-2.4c1.6-0.9,3.2-1.4,4.9-2
					c1.3-0.5,2.7-0.9,4.1-0.8c1.2,0.1,2.4,0.4,3.4,1.2c0.4,0.3,0.8,0.3,1.2,0.2c1.3-0.4,2.5-0.8,3.8-1.2c0.4-0.1,0.8-0.1,1.2-0.1
					c1,0,2.1-0.1,3.1,0.1c0.6,0.1,1.3,0.2,1.9,0.4c0.7,0.2,1.4,0.4,2.1,0.7c1,0.4,2,0.9,3,1.4c1.4,0.7,2.7,1.4,4.1,2
					c0.6,0.3,1.3,0.6,1.9,1c0.1,0,0.1,0.1,0.2,0.1c0.8,0.4,0.8,0.4,0.2,1c-0.6,0.6-1.3,1.3-1.9,1.9c-0.4,0.4-0.9,0.9-1.3,1.4
					c-0.3,0.3-0.6,0.3-0.9,0.1c-1.3-0.8-2.5-1.6-3.7-2.4c-1.2-0.8-2.4-1.6-3.7-2.3c-1.1-0.6-2.2-1.1-3.4-1.6c-1.3-0.6-2.6-0.8-4-1.1
					c-0.8-0.2-1.6,0-2.3,0.3c-0.2,0.1-0.2,0.5-0.2,0.8c-0.1,0.5-0.1,1.1-0.1,1.6c0,1.2-0.4,2.3-0.8,3.4c-0.2,0.7-0.4,1.3-0.7,2
					c-0.4,1.1-0.9,2.1-1.6,3c-0.8,1.1-1.6,2.2-2.4,3.3c-0.4,0.6-1,1.1-1.5,1.5c-0.7,0.6-1.4,1.1-2.2,1.6c-1,0.5-2.1,1-3.3,0.9
					c-1.2-0.1-2.1-1-2.3-2.4c-0.2-1.2,0.1-2.3,0.5-3.3c0.4-1,0.8-2,1.4-2.9c1.3-2.2,2.8-4.2,4.7-5.9c0.7-0.6,1.5-1.3,2.3-1.9
					c0.9-0.7,1.9-1.2,2.8-1.9C131.1,155.4,131.3,155.2,131.5,155z M132.8,157.2c0-0.8-0.1-0.9-0.9-0.6c-0.4,0.2-0.8,0.4-1.1,0.6
					c-0.9,0.6-1.7,1.2-2.5,1.9c-0.7,0.6-1.4,1.2-2,1.9c-0.8,0.8-1.6,1.7-2.3,2.6c-0.8,1.1-1.4,2.2-2.1,3.4c-0.7,1.2-1.2,2.4-1.2,3.8
					c0,0.7,0.8,1.5,1.4,1.4c0.8-0.1,1.5-0.4,2.2-0.9c0.4-0.4,0.9-0.7,1.3-1.1c0.5-0.4,1-0.7,1.4-1.2c0.6-0.7,1.2-1.3,1.8-2.1
					c0.6-0.8,1.2-1.7,1.8-2.6c0.4-0.7,0.7-1.5,1-2.2C132.4,160.6,132.7,159,132.8,157.2z"/>
				<path fill="#721717" d="M86,205.5c-0.2-0.1-0.5-0.3-0.7-0.4c-0.6-0.3-1.2-0.7-1.9-1c-0.7-0.3-1.4-0.5-2.1-0.8
					c-0.8-0.3-1.6-0.5-2.5-0.7c-0.8-0.2-1.6-0.3-2.4-0.4c-0.5-0.1-1.1,0-1.6-0.1c-1.4-0.1-2.7,0.1-4.1,0.5c-1,0.3-1.9,0.8-2.7,1.6
					c-0.3,0.3-0.7,0.7-1,1c-0.2,0.2-0.3,0.2-0.5,0c-0.5-0.5-0.9-1.1-1.4-1.6c-0.3-0.4-0.7-0.7-1.1-1c-0.9-0.5-1.7-1.1-2.6-1.4
					c-1.2-0.4-2.4-0.7-3.6-1c-0.7-0.2-1.4-0.2-2.1-0.2c-0.8,0-1.7-0.1-2.5,0c-1.4,0.1-2.9,0.2-4.3,0.5c-1.5,0.2-3,0.5-4.4,0.8
					c-0.6,0.1-1.1,0.3-1.7,0.5c-0.4,0.1-0.8,0.1-1.2,0.2c-1.4,0.3-2.8,0.7-4.2,1c-1,0.2-2,0.4-3,0.6c-1.3,0.3-2.7,0.7-4,0.9
					c-1.5,0.2-3.1,0.3-4.7,0.4c-0.8,0-1.7-0.3-2.5-0.3c-1.1-0.1-2-0.5-3-0.9c-1.2-0.5-2.2-1.2-3.1-2.1c-0.7-0.7-1.5-1.5-2-2.4
					c-0.6-1-1-2-1.3-3.2c-0.5-1.9-0.6-3.7-0.5-5.6c0.1-1.2,0.3-2.5,0.5-3.7c0.2-1.1,0.5-2.3,0.9-3.4c0.3-1,0.7-2,1.1-2.9
					c0.3-0.8,0.7-1.6,1-2.5c0.3-0.7,0.7-1.4,1.1-2c0.7-1.2,1.4-2.3,2.2-3.4c1.1-1.5,2.1-3,3.3-4.5c0.8-1,1.7-1.9,2.5-2.8
					c0.6-0.7,1.3-1.4,2-2c1-0.9,2.1-1.8,3.1-2.7c1.1-0.9,2.3-1.9,3.5-2.7c1.1-0.8,2.2-1.5,3.4-2c0.6-0.3,1.2-0.6,1.7-0.9
					c1.6-0.8,3.3-1.4,5-1.8c1.1-0.2,2.2-0.4,3.3-0.4c2,0,3.6,1.1,4,3.1c0.1,0.7,0.1,1.4,0,2.1c-0.4,1.7-1.2,3.2-2.4,4.4
					c-0.6,0.6-1.4,1-2.4,0.7c-0.5-0.2-0.8-0.5-0.8-1.2c0-0.9,0.3-1.8,0.9-2.5c0.4-0.5,0.9-0.9,1.4-1.2c0.3-0.2,0.7-0.2,1.1-0.2
					c0.4,0,0.6-0.3,0.7-0.6c0.3-1.3-0.3-2.2-1.8-2.3c-1.1-0.1-2.1,0.3-3.1,0.8c-0.9,0.4-1.9,0.8-2.7,1.4c-1,0.6-2,1.4-2.9,2.1
					c-0.5,0.3-0.9,0.7-1.4,1.1c-0.3,0.3-0.6,0.6-0.9,0.8c-1.4,1.5-2.9,3-4.3,4.5c-0.8,0.8-1.5,1.7-2.2,2.5c-0.7,0.9-1.4,1.8-2.1,2.8
					c-0.9,1.3-1.9,2.7-2.7,4.1c-0.8,1.3-1.5,2.7-2.3,4.1c-0.2,0.4-0.5,0.9-0.7,1.3c-0.3,0.7-0.6,1.3-0.8,2c-0.5,1.3-1,2.6-1.3,4
					c-0.4,1.5-0.9,2.9-0.9,4.5c0,0.9-0.1,1.7-0.1,2.6c0,1.3,0.4,2.5,0.9,3.7c0.4,1,1,2,1.9,2.7c0.7,0.6,1.6,1.1,2.5,1.5
					c1.2,0.6,2.5,0.9,3.8,1.1c1,0.2,2.1,0.2,3.1,0c0.6-0.1,1.3-0.1,2-0.2c0.8-0.1,1.6-0.2,2.4-0.4c1.4-0.3,2.7-0.6,4.1-0.9
					c1.3-0.3,2.6-0.7,3.9-1c1.1-0.2,2.1-0.4,3.2-0.7c1-0.2,2-0.5,3-0.8c1.5-0.4,3-0.7,4.5-1c1.2-0.3,2.4-0.5,3.6-0.6
					c0.8-0.1,1.6-0.1,2.4-0.2c1.6-0.1,3.2-0.3,4.8-0.2c1.4,0,2.7,0.2,4.1,0.4c1.2,0.2,2.3,0.4,3.5,0.8c0.9,0.3,1.8,0.7,2.8,1.1
					c0.5,0.2,1,0.5,1.5,0.8c0.8,0.5,1.6,1,2.3,1.6c0.9,0.7,1.9,1.3,2.8,2.1c1,0.8,1.9,1.7,2.9,2.5C86,205.4,86,205.4,86,205.5z"/>
				<path fill="#721717" d="M181.8,155c-0.4,0.8-0.6,1.7-1.3,2.4c-0.7,0.7-1.4,1.5-2.1,2.2c-0.3,0.3-0.7,0.6-1.1,0.9
					c-0.8,0.6-1.6,1.2-2.5,1.7c-0.9,0.6-1.7,1.1-2.6,1.6c-1.3,0.6-2.6,1.2-3.9,1.8c-0.5,0.2-1,0.3-1.5,0.4c-1.1,0.2-2.3,0.3-3.4,0.4
					c-0.6,0-1.3-0.2-1.9-0.3c-0.2,0-0.3-0.1-0.1-0.4c0.5-0.6,1-1.3,1.4-1.9c0.5-0.6,0.9-1.3,1.4-1.9c0.2-0.2,0.5-0.3,0.7-0.3
					c1.9-0.1,3.8-0.2,5.7-0.6c0.8-0.2,1.6-0.5,2.4-0.9c1.3-0.6,2.5-1.3,3.7-1.9c1-0.6,2-1.1,3-1.8c0.6-0.4,1.2-0.9,1.7-1.3
					c0.1-0.1,0.2-0.1,0.3-0.2C181.8,154.9,181.8,154.9,181.8,155z"/>
				<path fill="#721717" d="M94.1,170.4c0.3-0.5,0.6-1,0.9-1.5c0.5-0.9,1-1.7,1.6-2.6c0.1-0.1,0.3-0.3,0.4-0.3c1.5,0,3,0,4.5,0
					c-0.2,0.4-0.4,0.8-0.6,1.1c-0.6,1.1-1.3,2.1-2,3.1c-0.1,0.2-0.4,0.3-0.6,0.3c-0.5,0-1.1-0.1-1.6-0.1c-0.7,0-1.4,0-2.1,0
					c-0.1,0-0.3,0-0.4,0C94.2,170.5,94.2,170.4,94.1,170.4z"/>
			</g>
		</g>
	</g>
	<polygon fill="#721717" points="9.4,121.7 97.4,33.7 184.1,120.4 184.1,128.8 97.9,42.5 9.4,130.5 	"/>
	<polygon fill="#721717" points="184.1,230.2 96.1,318.2 9.4,231.4 9.4,223.1 95.6,309.4 184.1,221.4 	"/>
	<path opacity="0.29" fill="#FFFFFF" d="M56.1,14.2v318.7c0,0,22.1,3.4,25.6,3.2V11.4C81.7,11.4,60.1,13.5,56.1,14.2z"/>
	<path opacity="0.42" fill="#231F20" d="M9.4,26v294.8l12.5,4.4V22.5C21.8,22.5,13.2,25,9.4,26z"/>
	<path opacity="0.42" fill="#231F20" d="M184,26v294.8l-12.5,4.4V22.5C171.5,22.5,180.2,25,184,26z"/>
</g>
</svg>
