<?xml version="1.0" encoding="utf-8"?>
<!-- Generator: Adobe Illustrator 18.1.1, SVG Export Plug-In . SVG Version: 6.00 Build 0)  -->
<svg version="1.1" id="Layer_1" xmlns="http://www.w3.org/2000/svg" xmlns:xlink="http://www.w3.org/1999/xlink" x="0px" y="0px"
	 viewBox="0 0 162 230.8" enable-background="new 0 0 162 230.8" xml:space="preserve">
<g>
	<polygon fill="#E2222A" points="38.2,152.2 5.7,174.8 25.3,184.5 24.2,215 52.4,206.3 59,230.8 75.8,211.2 88.3,229.5 86.1,185.9 	
		"/>
	<polygon fill="#F6D011" points="44.5,155.4 22.3,170.8 35.7,177.3 34.9,198.1 54.1,192.2 58.6,208.8 70,195.5 78.5,208 77,178.3 	
		"/>
	<g>
		<polygon fill="#A62123" points="29.6,151.5 93.3,188.6 93.8,183.6 33.6,148.6 		"/>
		<polygon fill="#A62123" points="24.1,155.4 92.7,195.4 93.2,190.3 28.2,152.5 		"/>
		<polygon fill="#A62123" points="95.6,167.7 44.4,140.5 40.8,143 94.9,174.5 		"/>
		<polygon fill="#A62123" points="39.4,144 35.4,147 94.3,181.3 94.8,176.2 		"/>
		<polygon fill="#515252" points="28.2,152.5 93.2,190.3 93.3,188.6 29.6,151.5 		"/>
		<polygon fill="#515252" points="33.6,148.6 93.8,183.6 94.3,181.3 35.4,147 		"/>
		<polygon fill="#515252" points="94.9,174.5 40.8,143 39.4,144 94.8,176.2 		"/>
	</g>
	<polygon fill="#FFFFFF" points="136.8,95.2 143.8,65.1 113.9,47.6 91.2,68.7 31.8,123.6 118.3,174 	"/>
	<polygon fill="#E2222A" points="70.8,156.1 116.4,182.6 118.3,174 31.8,123.6 25.2,129.6 	"/>
	<polygon fill="#E2222A" points="157.3,7.5 113.9,47.6 143.8,65.1 	"/>
	<circle fill="#FFFFFF" cx="119.1" cy="47.6" r="1.7"/>
	<circle fill="#FFFFFF" cx="33.6" cy="129.8" r="1.7"/>
	<circle fill="#FFFFFF" cx="40.7" cy="134" r="1.7"/>
	<circle fill="#FFFFFF" cx="47.9" cy="138.1" r="1.7"/>
	<circle fill="#FFFFFF" cx="55" cy="142.3" r="1.7"/>
	<circle fill="#FFFFFF" cx="62.1" cy="146.5" r="1.7"/>
	<circle fill="#FFFFFF" cx="69.3" cy="150.6" r="1.7"/>
	<circle fill="#FFFFFF" cx="76.4" cy="154.8" r="1.7"/>
	<circle fill="#FFFFFF" cx="83.6" cy="158.9" r="1.7"/>
	<circle fill="#FFFFFF" cx="90.7" cy="163.1" r="1.7"/>
	<circle fill="#FFFFFF" cx="97.8" cy="167.2" r="1.7"/>
	<circle fill="#FFFFFF" cx="105" cy="171.4" r="1.7"/>
	<circle fill="#FFFFFF" cx="112.1" cy="175.5" r="1.7"/>
	<circle fill="#FFFFFF" cx="124.3" cy="50.6" r="1.7"/>
	<circle fill="#FFFFFF" cx="129.6" cy="53.7" r="1.7"/>
	<circle fill="#FFFFFF" cx="134.9" cy="56.8" r="1.7"/>
	<circle fill="#FFFFFF" cx="140.2" cy="59.9" r="1.7"/>
	<circle fill="#B3B2B3" cx="104.6" cy="96.7" r="21.9"/>
	<circle fill="#58C1B2" cx="104.6" cy="96.8" r="17.7"/>
	<g>
		<defs>
			<circle id="SVGID_1_" cx="104.6" cy="96.8" r="17.7"/>
		</defs>
		<clipPath id="SVGID_2_">
			<use xlink:href="#SVGID_1_"  overflow="visible"/>
		</clipPath>
		<g clip-path="url(#SVGID_2_)">
			<path fill="#7D4924" d="M105.7,88.7c0,0,3-1.5,3.8-4.8c0,0-4.2-0.9-7.2,0.7L105.7,88.7z"/>
			<path fill="#FDF2DD" d="M111.4,106.2c0,0-1.8,2.2-3.6,0.7c-0.1-0.1-0.1-0.1-0.2-0.2c0,0-2.2,1.5-5.5-1.1
				c-3.3-2.6-5.5-5.3-7.9-5.2c-2.4,0.1-6.1,4-6.2,3.6c0-0.4-3.9-6.2-3.9-6.2l10.3-10.4C94.4,87.5,112,102.8,111.4,106.2z"/>
			<path fill="#FDF2DD" d="M105.8,86.8c0,0,3.6,2.6,3.1,7.6c-0.4,5.1,2.5,10.4,2.5,10.4s-7.5-8.1-11.5-10.4s-6.4-2.6-10.7,1.1
				c-3.2,2.8-4.3,3.8-4.4,3.6c-0.2-0.2-7.4-8.5-7.4-8.5S93.1,75.2,105.8,86.8z"/>
			<path fill="#C88757" d="M104,86.7c0,0,3.8,2.8,3,6.9c-0.9,4.1,3.2,9.1,1.8,10.9s-1.4,1.8-1.4,1.8l0.1,0.4c0,0-0.9,1.5-4.2-0.2
				s-5.2-4.6-7.5-5.6c-2.3-1-6.2-1.2-9.6-7.3c0,0,9.1-3.7,11.1-7.9C99.3,81.4,104,86.7,104,86.7z"/>
			<path fill="#515252" d="M111.8,105.6c-0.3-1.8-1.6-1.9-1.6-1.9s-0.7,0.6-0.5,1.5S112.1,106.8,111.8,105.6z"/>
			<path fill="#A15F34" d="M103.4,87.6c0,0,3.5-4.3,0.7-11.7c0,0-6.3,2.8-7.9,8.9C96.2,84.8,99.7,88.5,103.4,87.6z"/>
			<path fill="#A15F34" d="M104.5,76.8c0,0-4.1,1.4-6.6,7.4c0,0-0.7-0.7-0.4-2.4c0,0,2.5-4.4,6.7-5.9L104.5,76.8z"/>
			<path fill="#FDF2DD" d="M103.3,78.6c0,0-2.3,0.7-4.8,6.1l1.9,1.4l2.3-0.7C102.7,85.4,103.8,82.3,103.3,78.6z"/>
			<path fill="#545358" d="M107.3,106.6l0.3-0.5c0,0-4.5-3.2-7.7-6.7c0,0,4.1,5.2,7.3,6.9L107.3,106.6z"/>
		</g>
	</g>
	
		<rect x="94.1" y="135.2" transform="matrix(0.8642 0.5031 -0.5031 0.8642 87.402 -33.2178)" fill="#CCCBCB" width="22.3" height="20.2"/>
	<circle fill="#E2222A" cx="102.2" cy="136.2" r="1.6"/>
	<circle fill="#E2222A" cx="110.1" cy="64.6" r="1.6"/>
	<circle fill="#F5EA14" cx="105.7" cy="138.2" r="1.6"/>
	<circle fill="#22B473" cx="109.9" cy="140.6" r="1.6"/>
	<circle fill="#F5EA14" cx="133.9" cy="68.2" r="1.6"/>
	<circle fill="#22B473" cx="138.1" cy="70.6" r="1.6"/>
	<circle fill="#22B473" cx="107.2" cy="62.9" r="1.6"/>
	
		<rect x="97.5" y="143" transform="matrix(0.8642 0.5031 -0.5031 0.8642 86.7735 -34.0895)" fill="#979797" width="18.1" height="1.5"/>
	
		<rect x="96.1" y="145.4" transform="matrix(0.8642 0.5031 -0.5031 0.8642 87.8001 -33.0517)" fill="#979797" width="18.1" height="1.5"/>
	
		<rect x="94.7" y="147.8" transform="matrix(0.8642 0.5031 -0.5031 0.8642 88.8268 -32.0138)" fill="#979797" width="18.1" height="1.5"/>
	
		<rect x="93.2" y="150.2" transform="matrix(0.8642 0.5031 -0.5031 0.8642 89.8535 -30.976)" fill="#979797" width="18.1" height="1.5"/>
	
		<rect x="59.6" y="105.4" transform="matrix(-0.8642 -0.5031 0.5031 -0.8642 55.8692 252.4165)" fill="#CCCBCB" width="4.8" height="26.5"/>
	
		<rect x="63.1" y="109.3" transform="matrix(0.8642 0.5031 -0.5031 0.8642 64.3512 -18.3793)" fill="#979797" width="6.2" height="1.5"/>
	
		<rect x="60.9" y="113.2" transform="matrix(0.8642 0.5031 -0.5031 0.8642 66.0001 -16.7126)" fill="#979797" width="6.2" height="1.5"/>
	
		<rect x="58.6" y="117" transform="matrix(0.8642 0.5031 -0.5031 0.8642 67.6489 -15.0458)" fill="#979797" width="6.2" height="1.5"/>
	
		<rect x="56.3" y="120.9" transform="matrix(0.8642 0.5031 -0.5031 0.8642 69.2978 -13.379)" fill="#979797" width="6.2" height="1.5"/>
	
		<rect x="54.1" y="124.8" transform="matrix(0.8642 0.5031 -0.5031 0.8642 70.9467 -11.7122)" fill="#979797" width="6.2" height="1.5"/>
	
		<rect x="51.8" y="128.7" transform="matrix(0.8642 0.5031 -0.5031 0.8642 72.5956 -10.0454)" fill="#979797" width="6.2" height="1.5"/>
</g>
</svg>
