<?xml version="1.0" encoding="utf-8"?>
<!-- Generator: Adobe Illustrator 18.1.1, SVG Export Plug-In . SVG Version: 6.00 Build 0)  -->
<svg version="1.1" id="Layer_1" xmlns="http://www.w3.org/2000/svg" xmlns:xlink="http://www.w3.org/1999/xlink" x="0px" y="0px"
	 viewBox="0 0 295.2 729.8" enable-background="new 0 0 295.2 729.8" xml:space="preserve">
<g>
	<rect x="52.1" y="500.6" fill="#808285" width="186.8" height="70.4"/>
	<rect x="95.9" y="90.3" fill="#808285" width="97" height="49.3"/>
	<polygon fill="#808285" points="180.4,90.3 111.3,90.3 125.5,63.1 167.4,63.1 	"/>
	<rect x="143.4" y="0" fill="#2B2B2B" width="6" height="63.6"/>
	<rect x="151.9" y="11.1" fill="#2B2B2B" width="1.6" height="52.5"/>
	<polygon fill="#BFC0C1" points="171,70.5 121.9,70.5 125.5,63.1 167.4,63.1 	"/>
	<rect x="78.2" y="124.6" fill="#231F20" width="133" height="7.4"/>
	<rect x="78.2" y="130.7" fill="#778A91" width="133" height="22.6"/>
	<rect x="78.2" y="148.4" fill="#295460" width="133" height="7.1"/>
	<rect x="106.7" y="130.7" fill="#A0B1B5" width="17.5" height="17.7"/>
	<rect x="183.6" y="130.7" fill="#A0B1B5" width="17.5" height="17.7"/>
	<rect x="78.2" y="155.5" fill="#778A91" width="133" height="22.6"/>
	<rect x="78.2" y="173.2" fill="#295460" width="133" height="7.1"/>
	<rect x="157.6" y="155.5" fill="#A0B1B5" width="17.5" height="17.7"/>
	<rect x="78.2" y="180.2" fill="#778A91" width="133" height="22.6"/>
	<rect x="78.2" y="197.9" fill="#295460" width="133" height="7.1"/>
	<rect x="90.8" y="180.2" fill="#A0B1B5" width="17.5" height="17.7"/>
	<rect x="78.2" y="204.6" fill="#778A91" width="133" height="22.6"/>
	<rect x="78.2" y="222.2" fill="#295460" width="133" height="7.1"/>
	<rect x="157.6" y="204.6" fill="#A0B1B5" width="17.5" height="17.7"/>
	<rect x="115.5" y="204.6" fill="#A0B1B5" width="17.5" height="17.7"/>
	<rect x="78.2" y="229.3" fill="#778A91" width="133" height="22.6"/>
	<rect x="78.2" y="247" fill="#295460" width="133" height="7.1"/>
	<rect x="177.7" y="229.3" fill="#A0B1B5" width="17.5" height="17.7"/>
	<rect x="129.7" y="229.3" fill="#A0B1B5" width="17.5" height="17.7"/>
	<rect x="78.2" y="254.1" fill="#778A91" width="133" height="22.6"/>
	<rect x="78.2" y="271.7" fill="#295460" width="133" height="7.1"/>
	<rect x="106.7" y="254.1" fill="#A0B1B5" width="48.7" height="17.7"/>
	<rect x="183.6" y="254.1" fill="#A0B1B5" width="17.5" height="17.7"/>
	<rect x="78.2" y="278.8" fill="#778A91" width="133" height="22.6"/>
	<rect x="78.2" y="296.5" fill="#295460" width="133" height="7.1"/>
	<rect x="157.6" y="278.8" fill="#A0B1B5" width="17.5" height="17.7"/>
	<rect x="78.2" y="303.6" fill="#778A91" width="133" height="22.6"/>
	<rect x="78.2" y="321.2" fill="#295460" width="133" height="7.1"/>
	<rect x="90.8" y="303.6" fill="#A0B1B5" width="17.5" height="17.7"/>
	<rect x="78.2" y="327.9" fill="#778A91" width="133" height="22.6"/>
	<rect x="78.2" y="345.6" fill="#295460" width="133" height="7.1"/>
	<rect x="157.6" y="327.9" fill="#A0B1B5" width="17.5" height="17.7"/>
	<rect x="83.3" y="327.9" fill="#A0B1B5" width="49.8" height="17.7"/>
	<rect x="78.2" y="352.6" fill="#778A91" width="133" height="22.6"/>
	<rect x="78.2" y="370.3" fill="#295460" width="133" height="7.1"/>
	<rect x="174.1" y="352.6" fill="#A0B1B5" width="17.5" height="17.7"/>
	<rect x="91.9" y="352.6" fill="#A0B1B5" width="17.5" height="17.7"/>
	<rect x="78.2" y="377.3" fill="#778A91" width="133" height="22.6"/>
	<rect x="78.2" y="395" fill="#295460" width="133" height="7.1"/>
	<rect x="106.7" y="377.3" fill="#A0B1B5" width="17.5" height="17.7"/>
	<rect x="183.6" y="377.3" fill="#A0B1B5" width="17.5" height="17.7"/>
	<rect x="78.2" y="402" fill="#778A91" width="133" height="22.6"/>
	<rect x="78.2" y="419.7" fill="#295460" width="133" height="7.1"/>
	<rect x="106.7" y="402" fill="#A0B1B5" width="68.4" height="17.7"/>
	<rect x="78.2" y="426.8" fill="#778A91" width="133" height="22.6"/>
	<rect x="78.2" y="444.5" fill="#295460" width="133" height="7.1"/>
	<rect x="90.8" y="426.8" fill="#A0B1B5" width="17.5" height="17.7"/>
	<rect x="78.2" y="451.1" fill="#778A91" width="133" height="22.6"/>
	<rect x="78.2" y="468.8" fill="#295460" width="133" height="7.1"/>
	<rect x="157.6" y="451.1" fill="#A0B1B5" width="17.5" height="17.7"/>
	<rect x="115.5" y="451.1" fill="#A0B1B5" width="17.5" height="17.7"/>
	<rect x="78.2" y="475.8" fill="#778A91" width="133" height="22.6"/>
	<rect x="78.2" y="493.5" fill="#295460" width="133" height="7.1"/>
	<rect x="182.4" y="475.8" fill="#A0B1B5" width="17.5" height="17.7"/>
	<rect x="93" y="475.8" fill="#A0B1B5" width="74.2" height="17.7"/>
	<rect x="53" y="500.6" fill="#778A91" width="185.9" height="23.4"/>
	<rect x="53" y="518.8" fill="#295460" width="185.9" height="7.3"/>
	<rect x="81.6" y="500.6" fill="#A0B1B5" width="17.5" height="18.2"/>
	<rect x="158.5" y="500.6" fill="#A0B1B5" width="17.5" height="18.2"/>
	<rect x="53" y="526.1" fill="#778A91" width="185.9" height="23.4"/>
	<rect x="53" y="544.3" fill="#295460" width="185.9" height="7.3"/>
	<rect x="132.4" y="526.1" fill="#A0B1B5" width="17.5" height="18.2"/>
	<rect x="53" y="551.6" fill="#778A91" width="185.9" height="23.4"/>
	<rect x="52.1" y="569.9" fill="#295460" width="186.8" height="7.3"/>
	<rect x="65.6" y="551.6" fill="#A0B1B5" width="17.5" height="18.2"/>
	<rect x="2.5" y="576.7" fill="#778A91" width="289.7" height="23.4"/>
	<rect x="2.5" y="594.9" fill="#295460" width="289.7" height="7.3"/>
	<rect x="2.5" y="602.2" fill="#778A91" width="289.7" height="23.4"/>
	<rect x="2.5" y="620.5" fill="#295460" width="289.7" height="7.3"/>
	<rect x="202.4" y="551.6" fill="#A0B1B5" width="17.5" height="18.2"/>
	<rect x="2.5" y="627.8" fill="#778A91" width="289.7" height="23.4"/>
	<rect x="2.5" y="646" fill="#295460" width="289.7" height="7.3"/>
	<rect x="2.5" y="653.3" fill="#778A91" width="289.7" height="23.4"/>
	<rect x="2.5" y="671.5" fill="#295460" width="289.7" height="7.3"/>
	<rect x="2.5" y="678.8" fill="#778A91" width="289.7" height="23.4"/>
	<rect x="2.5" y="697" fill="#295460" width="289.7" height="7.3"/>
	<rect x="2.5" y="704.3" fill="#778A91" width="289.7" height="23.4"/>
	<rect x="2.5" y="722.5" fill="#295460" width="289.7" height="7.3"/>
	<rect x="109" y="576.7" fill="#A0B1B5" width="17.5" height="18.2"/>
	<rect x="185.9" y="576.7" fill="#A0B1B5" width="17.5" height="18.2"/>
	<rect x="159.8" y="602.2" fill="#A0B1B5" width="102.8" height="18.2"/>
	<rect x="93" y="627.8" fill="#A0B1B5" width="17.5" height="18.2"/>
	<rect x="229.8" y="627.8" fill="#A0B1B5" width="17.5" height="18.2"/>
	<rect x="33.9" y="653.3" fill="#A0B1B5" width="17.5" height="18.2"/>
	<rect x="110.8" y="653.3" fill="#A0B1B5" width="17.5" height="18.2"/>
	<rect x="84.8" y="678.8" fill="#A0B1B5" width="17.5" height="18.2"/>
	<rect x="18" y="704.3" fill="#A0B1B5" width="17.5" height="18.2"/>
	<rect x="154.7" y="704.3" fill="#A0B1B5" width="17.5" height="18.2"/>
	<rect x="78.2" y="144.1" fill="#C1C5C6" width="133" height="4.3"/>
	<rect x="78.2" y="169.7" fill="#C1C5C6" width="133" height="4.3"/>
	<rect x="78.2" y="193.5" fill="#C1C5C6" width="133" height="4.3"/>
	<rect x="78.2" y="219.1" fill="#C1C5C6" width="133" height="4.3"/>
	<rect x="78.2" y="242.8" fill="#C1C5C6" width="133" height="4.3"/>
	<rect x="78.2" y="268.4" fill="#C1C5C6" width="133" height="4.3"/>
	<rect x="78.2" y="292.3" fill="#C1C5C6" width="133" height="4.3"/>
	<rect x="78.2" y="317.8" fill="#C1C5C6" width="133" height="4.3"/>
	<rect x="78.2" y="341.7" fill="#C1C5C6" width="133" height="4.3"/>
	<rect x="78.2" y="367.3" fill="#C1C5C6" width="133" height="4.3"/>
	<rect x="78.2" y="391.1" fill="#C1C5C6" width="133" height="4.3"/>
	<rect x="78.2" y="416.7" fill="#C1C5C6" width="133" height="4.3"/>
	<rect x="78.2" y="440.9" fill="#C1C5C6" width="133" height="4.3"/>
	<rect x="78.2" y="466.5" fill="#C1C5C6" width="133" height="4.3"/>
	<rect x="78.2" y="490.3" fill="#C1C5C6" width="133" height="4.3"/>
	<rect x="52.1" y="515.9" fill="#C1C5C6" width="186.8" height="4.3"/>
	<rect x="52.1" y="540" fill="#C1C5C6" width="186.8" height="4.3"/>
	<rect x="52.1" y="565.6" fill="#C1C5C6" width="186.8" height="4.3"/>
	<rect x="2.5" y="592" fill="#C1C5C6" width="289.7" height="4.3"/>
	<rect x="2.5" y="616.2" fill="#C1C5C6" width="289.7" height="4.3"/>
	<rect x="2.5" y="641.7" fill="#C1C5C6" width="289.7" height="4.3"/>
	<rect x="2.5" y="668.6" fill="#C1C5C6" width="289.7" height="4.3"/>
	<rect x="2.5" y="692.7" fill="#C1C5C6" width="289.7" height="4.3"/>
	<rect x="2.5" y="718.2" fill="#C1C5C6" width="289.7" height="4.3"/>
	<rect x="95.9" y="94.6" fill="#295460" width="96.5" height="7.1"/>
	<rect x="95.9" y="90.3" fill="#C1C5C6" width="96.5" height="4.3"/>
</g>
</svg>
