<?xml version="1.0" encoding="utf-8"?>
<!-- Generator: Adobe Illustrator 18.1.1, SVG Export Plug-In . SVG Version: 6.00 Build 0)  -->
<svg version="1.1" id="Layer_1" xmlns="http://www.w3.org/2000/svg" xmlns:xlink="http://www.w3.org/1999/xlink" x="0px" y="0px"
	 viewBox="0 0 623 200.5" enable-background="new 0 0 623 200.5" xml:space="preserve">
<g>
	<path fill="#231F20" d="M85.7,156.1l99.2,2.8l264.5,0.7l112.2-3.5L538,109.6c0,0-66.1-12.7-72.6-11.8c-6.5,0.9-90.9,6.4-91.2,7.2
		c-0.3,0.8-285.2-4.8-285.2-4.8L85.7,156.1z"/>
	<path fill="#AA322B" d="M183.3,159.7h266.1c0,0,11-45.3,56.7-45.3s49.2,40.5,49.2,40.5h29.9l19.7-23.8l-4.7-10l6.7-32.3l5.5-11.4
		c0,0-14.2-13.4-34.6-16.9l-8.7-3.9c0,0-60.6-8.7-161.4-4.3l-63-42.1c0,0-84.2-30.3-245.2,48l-41.3-0.8v9.1L33.8,82l-17.3,1.7
		l-9.8,31.5l28.7,36.6l50.4,4.3c0,0,10.6-42.1,46.4-42.1S180.2,138,183.3,159.7z"/>
	<g>
		<circle fill="#141319" cx="503.2" cy="159.2" r="41.3"/>
		<circle fill="#FFFFFF" cx="503.2" cy="159.2" r="32.1"/>
		<circle fill="#111016" cx="503.2" cy="159.2" r="27.6"/>
		<circle fill="#414042" cx="503.2" cy="159.2" r="25.3"/>
		<circle fill="#494949" cx="503.2" cy="159.2" r="23.4"/>
		<circle fill="#A7342B" cx="503.2" cy="159.2" r="9.4"/>
	</g>
	<g>
		<circle fill="#141319" cx="134.5" cy="158.9" r="41.3"/>
		<circle fill="#FFFFFF" cx="134.5" cy="158.9" r="32.1"/>
		<circle fill="#111016" cx="134.5" cy="158.9" r="27.6"/>
		<circle fill="#414042" cx="134.5" cy="158.9" r="25.3"/>
		<circle fill="#494949" cx="134.5" cy="158.9" r="23.4"/>
		<circle fill="#A7342B" cx="134.5" cy="158.9" r="9.4"/>
	</g>
	<path fill="#1D171F" d="M221.5,82c1.2,0.1,156.6,0,156.6,0s-48.4-42.8-56.3-47.1s-117.7-7.9-111,17.3L221.5,82z"/>
	<path fill="#BF484D" d="M123.1,76.2h86.2l-10.6-34.6C198.7,41.6,144,58.1,123.1,76.2z"/>
	<path fill="#BF484D" d="M580.9,105l-390,4.7c0,0-7.9,2-2.8,10.6l11,21.6c0,0,0,4.7,13.8,3.9l231.8,0.1c0,0,11.6-37.1,58.5-36.3
		s50.9,19.3,50.9,19.3L580.9,105z"/>
	<polygon fill="#1D171F" points="407.7,52.2 398.9,72.7 386.2,78.9 327.8,31.8 335.8,22.8 344.7,10.1 	"/>
	<path fill="#8C2E30" d="M438.8,55.3l138.9,5.2c0,0,17.2,1.3,34.6,16.9l-5.5,11.4c0,0-38.5-13.1-176-9.9h-5
		C425.8,78.9,438.2,66.8,438.8,55.3z"/>
	<path fill="#494949" d="M558.6,131.1l31-2.4l11.2-6.2l2.7-17.5l14.2,9.3l-5.3,11.2l3.5,5.7l-16.2,24.5l-14.5-0.7l19.7-23.8
		l-8.2,4.7l-35.1,1.5C561.6,137.3,546.5,138.2,558.6,131.1z"/>
	<polygon fill="#494949" points="19.1,131.1 17.2,115.2 6.6,113.7 6.6,128.7 23.4,149.6 35.3,151.8 	"/>
	<polygon fill="#8C2E30" points="33.8,82 85.7,82 99.5,58.1 58.2,66.4 	"/>
	<polygon fill="#8C2E30" points="592,92.5 589,116.1 602.7,110.2 606.5,90.5 	"/>
	<polygon fill="#8E3736" points="194,47.1 201.4,73.7 197.7,73.7 191,48.7 	"/>
	<polygon fill="#8E3736" points="182,51.4 189.5,73.7 185.7,73.7 179,52.8 	"/>
	<polygon fill="#8E3736" points="171.4,54.6 176.6,73.7 172.9,73.7 168.5,55.7 	"/>
	<polygon fill="#8E3736" points="159.8,58.2 165,73.7 161.3,73.7 156.9,59.1 	"/>
	<polygon fill="#414042" points="183.3,159.7 186.3,166.9 449.1,166.9 449.4,159.7 	"/>
	<path fill="#D17790" d="M206.1,145.8c0,0-2.9-2-4.6-6.1l-12-25.1c0,0-2.5-3.6,1.4-4.9c0,0-7.6,0.9-3.9,8.2l12.2,24.1
		C199.1,142,201.6,145.6,206.1,145.8z"/>
	<path fill="#58595B" d="M321.9,34.9l28.3,41.3l-9.7,5.8h37.7C378.2,82,326.6,36.1,321.9,34.9z"/>
	<path fill="#58595B" d="M210.9,52.2L221.5,82l17.1,0.1l-13.9-3.2L213,44.5C213,44.5,209.1,47.1,210.9,52.2z"/>
</g>
</svg>
