<?xml version="1.0" encoding="utf-8"?>
<!-- Generator: Adobe Illustrator 18.1.1, SVG Export Plug-In . SVG Version: 6.00 Build 0)  -->
<svg version="1.1" id="Layer_1" xmlns="http://www.w3.org/2000/svg" xmlns:xlink="http://www.w3.org/1999/xlink" x="0px" y="0px"
	 viewBox="0 0 109 209.2" enable-background="new 0 0 109 209.2" xml:space="preserve">
<g>
	<path fill="#1A1A1A" d="M25.7,192.7l-0.8,8.9l-3.2,0.8l-0.6-3.2c0,0-2.1,5.2-8.8,2.7c-6.7-2.6-3.7-6.9-1.7-6.2
		c2.1,0.7,6.5,1.8,7.7-3.3S25.7,192.7,25.7,192.7z"/>
	<path fill="#1A1A1A" d="M28.5,193.6l-4.5,7.7l2.2,2.5l2.3-2.2c0,0-1.3,5.5,5.7,7.3s7-3.5,5-4.1c-2.1-0.7-6.3-2.3-4.3-7.1
		S28.5,193.6,28.5,193.6z"/>
	<path fill="#272361" d="M15.3,172.3c0,0-4.9,6.9-7.2,15.3c0,0,2.8,7.7,17.3,7.8c16.2,0.1,12.1,7.1,21.4,4.5l3.8-37.6l-9.9-19.8
		C40.8,142.5,29.6,134.6,15.3,172.3z"/>
	<path fill="#1A1A1A" d="M46.7,97.5c6.1,0.9,15.5,3.5,26.1,10.3c0,0-8.5,1-20.7,43.4c0-0.7-20.9-6.2-20.7-6.6
		c6.9-22.2,8.4-34.7,8.4-41.2C39.8,99.7,43.1,96.9,46.7,97.5z"/>
	<path fill="#DDEBED" d="M64,152.3c-0.5,8.2-3.9,7.6-5.1,7s0.6-4.7,0.6-4.7s-0.6,1.8-1.4,1.3c-0.9-0.5-0.3-2.6-0.3-2.6
		s0.6-3.6,3.1-3.3C63.4,150.3,64,152.3,64,152.3z"/>
	<polygon fill="#1A1A1A" points="73,107.6 63.8,152.9 58.8,151.3 66.2,109.4 	"/>
	<path fill="#D89F79" d="M54.5,78.7l-4.2,13.2c-0.4,1.3,0.3,2.7,1.6,3.1l1.7,0.6l-1.6,5.1c0,0,2.9,5,7.4,2.4l3.4-10.6
		c0,0,2.1,0.2,2.8-2c0.7-2.3-1.9-1.9-1.9-1.9l2-6.2L54.5,78.7z"/>
	<path fill="#090B12" d="M51.7,86.5c0,0-2.5-2.9,0.2-8.1l6.2,1C58.1,79.3,55.3,84.9,51.7,86.5z"/>
	<path fill="#090B12" d="M61.5,81.1c0,0-1.8,5,2,7.4c0,0,4.7,0.9-1,3.9l-0.9,2.8c0,0,7.5,2.1,8.5-11.6L61.5,81.1z"/>
	<path fill="#1A1A1A" d="M76.8,85.6l-31.4-9.3c0,0,2.2-1.4,7.8,0.1l2.3-7.1c0,0,10-3.3,16.2,4.8l-2.5,6.7
		C69.3,80.8,76.3,83.1,76.8,85.6z"/>
	<path fill="#BFB9A8" d="M53.9,106.7c0,0,0.7,8.4-4.7,21.1c0,0,4.4,4.5,8.1,2.6c0,0,6.2-11,3-24.4L53.9,106.7z"/>
	<path fill="#673315" d="M52.9,97.6c0,0-4.8,0.5-3.3,6.2c1,3.8,11.8,4.7,12.8,1.2c1.2-4.3-1.9-5.7-1.9-5.7l-1.1,3.7
		C59.4,103,51.1,102.7,52.9,97.6z"/>
	<path fill="#673315" d="M49.2,127.8c0,0-2.6,4.2-2,6l0.7,0c0,0,0-2.6,2-5.5L49.2,127.8z"/>
	<path fill="#673315" d="M50.4,128.8l0.6,0.4c0,0-1.7,2.6-1.7,5.8l-0.5-0.1C48.7,135,48.6,132.6,50.4,128.8z"/>
	<path fill="#673315" d="M51.9,129.9c0,0-1.9,3.3-1.6,6.1l0.3,0.1c0,0,0-2.7,1.8-5.9L51.9,129.9z"/>
	<path fill="#673315" d="M53.2,130.4c0,0.1-2.2,3.8-1.5,6.3l0.4,0c0,0-0.6-2.1,1.5-6.1L53.2,130.4z"/>
	<path fill="#673315" d="M54.4,130.7c0,0-2,3.8-1.2,6l0.5,0.1c0,0-1-1.6,1.1-6.1L54.4,130.7z"/>
	<path fill="#673315" d="M55.7,130.8c0,0-1.9,3.3-1.3,5.8l0.6-0.1c0,0-0.4-2,1.2-5.8L55.7,130.8z"/>
	<path fill="#673315" d="M57.2,130.3c0,0-1.1,1.9-1.1,3.5c0,1.6-0.5,3.3-0.5,3.3l-0.5-0.2c0,0,0.5-2,0.5-3.2s1-3.1,1-3.1L57.2,130.3
		"/>
	<path fill="#673315" d="M49.1,127.9c0,0,4.4,4.4,8.1,2.5l0.3-0.6c0,0-4.5,1.8-8.1-2.6L49.1,127.9z"/>
	<path fill="#673315" d="M51.5,121.5c0,0,4.7,3.7,8.4,1.9c0,0,0.2-0.8,0.4-1.5c0,0-4.1,1.2-8.3-2.1L51.5,121.5z"/>
	<path fill="#673315" d="M53.6,112.4c0,0,4.2,2.7,7.6,0.6c0,0,0-0.4,0-1.5c0,0-4.2,1.8-7.4-0.3L53.6,112.4z"/>
	<path fill="#1A1A1A" d="M44.3,97.6c0,0-16.3-2.9-3.1-32.9l-7.5-2.4c0,0-18.8,31.8,10,44.3L44.3,97.6z"/>
	<path fill="#09080D" d="M19.2,8.4c0,0,8-1.1,8.7,6.6c0,0,10.7-1.6,14.2,9.8c0,0,12.6-0.3,16.8,7.6c0.9,1.7,3.3,2.9,3.3,2.9
		s12-0.8,15.7,10.2c0,0,12.2-3.7,16.4,9c0,0,5.1,0.2,6.1,3.8c0,0,2.3-1.7,3.5,2.6c0,0,4.4-25.3-28.9-48.3
		C74.9,12.5,43.8-7.9,19.2,8.4z"/>
	<polygon fill="#09080D" points="78.8,5.5 30.6,71.7 32.9,73 79.9,5.9 	"/>
	<path fill="#DDEBED" d="M35.1,63.2c0,0-3-7.1,3.3-6c6.3,1.1,9.1,4.5,4.3,6.6S35.1,63.2,35.1,63.2z"/>
	<path fill="#1A1A1A" d="M36.7,135.5c-0.6-0.2-10.8,3.2-24.4,42.1c0,0,7.3,4.2,12.6,4.2l17.9-34.6l-7.2,37.6c0,0,8,3.5,12.8,3.4
		c0,0,9.9-39.7,4.7-48.4L36.7,135.5z"/>
</g>
</svg>
