<?xml version="1.0" encoding="utf-8"?>
<!-- Generator: Adobe Illustrator 18.1.1, SVG Export Plug-In . SVG Version: 6.00 Build 0)  -->
<svg version="1.1" id="Layer_1" xmlns="http://www.w3.org/2000/svg" xmlns:xlink="http://www.w3.org/1999/xlink" x="0px" y="0px"
	 viewBox="0 0 610 382" enable-background="new 0 0 610 382" xml:space="preserve">
<g>
	<path fill="#F6E774" d="M165,124.1c19.3-1.7,38.6-3.4,58-5c6.8-0.6,13.6-0.6,20.4-0.9c31.9-1.7,63.9-1.6,95.9-1
		c19.1,0.3,38.2,1.3,57.2,3c29.9,2.6,59.6,5.7,89.3,10.6c29.8,4.8,59.3,10.9,88.5,18.4c5.4,1.4,7.5,4,8,9.8
		c1.3,15.3,3.7,30.6,5.5,45.8c1.5,12.3,2.8,24.7,4.3,37c1.9,15.6,3.8,31.2,5.7,46.8c1.5,12.5,2.7,25,4.4,37.5c1.3,10,1.7,20,4,29.9
		c0,1.7,0,3.3,0,5c-5.3-0.6-10.5,1.3-15.8,1.1c-0.7-13.9-1.5-27.8-2.1-41.8c-0.2-4-0.9-7.9-2.4-11.6c-0.7-1.8-1.9-3.4-3.9-3.3
		c-2.1,0.1-3,1.8-3.6,3.6c-1.4,3.8-1.1,7.8-1.2,11.8c-0.2,14.1,1.6,28.2,1,42.3c-2,0.3-4,0.6-5.9,0.9c-0.7-14.1-1.4-28.3-2.1-42.4
		c-0.3-4.8-0.6-9.7-2.9-14.1c-1.5-2.8-3.5-5-7.1-4.5c-3.3,0.4-4.7,3-5.6,5.7c-1,3-1.3,6.2-1.2,9.4c0.5,15.6,0.8,31.3,1.2,46.9
		c-2.6,0.7-5.3,1.2-8.1,1c-0.4-15.8-0.9-31.6-1.3-47.4c-0.1-4.9-1.1-9.6-3.7-13.8c-1.9-3-4.7-4.8-8.3-4.7c-3.8,0.2-6.4,2.7-7.7,6.2
		c-1.2,3.1-2,6.4-1.9,9.7c0.5,17.3,1.2,34.6,1.8,51.9c-4.7,0-9.4,0.1-14.1,1c0.4-18.5-0.4-37-0.9-55.4c-0.1-4.6-2.2-8.7-5.4-12
		c-8.1-8.6-22.5-5.3-26.2,5.8c-1,3-1.6,6.1-1.5,9.3c0.4,18.1,0.7,36.3,1.1,54.4c-5.8,0.3-11.5,0.6-17.3,0.9c0-19,0.1-38-0.1-57
		c-0.1-10.2-7.1-18.7-16.2-19.9c-11.5-1.5-19,2.7-22,12.4c-0.9,3.1-1,6.2-1,9.4c0,19,0,38-0.1,57c-6.8,0.1-13.5,0.2-20.3,0.3
		c0-19.8-0.1-39.6-0.1-59.4c0-15.6-14.3-25.8-29.3-20.9c-8.8,2.9-13.4,9.8-13.5,20.4c-0.1,20.3-0.1,40.6-0.2,60.9
		c-7.7-0.1-15.4,0-23,0.9c0.1-20.9,0.1-41.9,0.2-62.8c0.1-7.2-3.2-12.4-8.7-16.4c-7-5.1-15-5.5-23.3-4.8c-11.3,1-19.2,9.3-19.3,20.7
		c0,2.5-0.1,5-0.1,7.5c-1.6-0.3-1.9-1.7-2.2-3c-2.3-10.3-6.5-20.4-5.7-31.3c-2.1-3.5,1.3-7.4-0.9-10.9c0-2,0-3.9,0-5.9
		c0-3.7-0.1-7.3-0.1-11c0.1-7.4-1.4-9-8.6-9.1c-2.8,0-5.6,0-8.3,0c0.1-10.7,0.3-21.3,0.2-32c-0.1-7.4-4.3-13-11.4-15.1
		c-8.2-2.4-16.1-1.2-23.5,3.2c-2.5-0.2-2.5-2.4-3-4c-2.2-6-4.1-12.1-6.2-18.1c0-2.7-0.1-5.3-0.1-8c-1.4-2.5,0.4-5.4-0.9-8
		c0-2.4,0-4.7-0.1-7.1c0.8-4.1-1.1-6.1-5-6.9c-5.7-1.1-11.3-2.2-17.1-2.3c-5.3-0.1-10.5,1.2-15.8,1.1c-0.7-2-1.4-4-2-6.1
		C170.7,138.5,166,132,165,124.1z M282.9,242.7c0,0,0.1,0,0.1,0c0,9.2,0.1,18.3-0.1,27.5c-0.1,3.1,0.8,3.9,3.9,3.9
		c14.3-0.1,28.6,0,42.9,0.4c3.6,0.1,4.4-1.1,4.4-4.5c-0.2-16.5-0.3-33-0.1-49.4c0.1-7.9-3.5-13.3-9.8-17.3c-8.1-5-17.1-5.4-26.1-3.9
		c-9.1,1.6-16.2,8.2-15.4,19.3C283.3,226.7,282.9,234.7,282.9,242.7z M357,244.6C357,244.6,357,244.6,357,244.6
		c0.1,8.8,0.2,17.7,0,26.5c-0.1,2.9,0.6,4.1,3.8,4c11.7-0.1,23.3-0.1,35,0.2c3.5,0.1,4.1-1.2,4.1-4.3c-0.3-16.8-0.4-33.7-0.5-50.5
		c-0.1-6-2.9-10.5-7.5-14c-5.3-4-11.5-4.9-18-4.6c-10.1,0.5-16.8,7.2-16.9,17.2C356.9,227.7,357,236.2,357,244.6z M286,165
		C286,165,286,165,286,165c0,5.8,0,11.7,0,17.5c0.1,9.9-1.3,8.5,8.3,8.6c10.7,0.1,21.3-0.4,31.9,0.3c4.5,0.3,4.9-0.9,4.8-4.5
		c-0.1-13.5-0.1-27-0.1-40.4c0-4.9-2.1-8.6-6-11.4c-7.9-5.7-16.8-5.9-25.8-4.6c-8.3,1.2-14.1,6-13.4,16.5C286.3,153,286,159,286,165
		z M456.7,248.1c-0.3,0-0.5,0-0.8,0c0-7.8,0.1-15.6,0-23.4c-0.2-6.4-3.1-11.5-8.4-15.1c-7.2-4.8-15.1-5.5-22.8-1.9
		c-7.4,3.4-8.2,10.5-7.8,17.9c0.8,15.3,1.4,30.6,1.9,45.9c0.1,3,0.9,4,4,3.9c10.5-0.3,21-0.4,31.5-0.3c3.3,0,3.9-1.1,3.6-4.1
		C457.3,263.4,457.1,255.7,456.7,248.1z M397,168C397,168,397,168,397,168c0-6.5-0.1-13,0-19.5c0.1-5.8-2.7-9.8-7.4-12.7
		c-4.3-2.7-9.3-3.6-14.3-3.8c-11.6-0.4-18.4,6.3-18.3,17.9c0.1,12.8,1.5,25.5,0.9,38.3c-0.1,2.9,1,3.7,3.8,3.7
		c10.5-0.1,21-0.1,31.4,0c3.2,0,4-1.2,3.9-4.1C396.9,181.3,397,174.7,397,168z M260,165.7C260,165.7,260,165.7,260,165.7
		c0-6.8,0.1-13.6,0-20.5c-0.1-6.3-3.7-11.2-9.7-13c-7.5-2.2-14.8-1.2-21.6,2.4c-4.7,2.5-7.7,6.4-7.7,11.9c-0.1,13.5,0,27-0.1,40.4
		c0,3.1,1.1,4,4.1,4c10.3-0.1,20.6-0.2,31,0c3.4,0.1,4.3-1.2,4.2-4.4C259.9,179.7,260,172.7,260,165.7z M491.5,274.6
		c0,0,0,0.1,0,0.1c4.2,0,8.3-0.2,12.5,0.1c3.5,0.3,4.2-1.2,4-4.3c-1.1-14.9-1.8-29.9-3-44.8c-0.7-9.4-10.1-16.4-19.9-15.5
		c-8.7,0.8-13.6,7.2-13,17.4c0.9,14.5,2,28.9,2.7,43.4c0.2,3.2,1.4,3.9,4.2,3.8C483.2,274.5,487.4,274.6,491.5,274.6z M431.3,137.9
		c-10.5,0-14.5,2.6-16.7,10.6c-0.8,2.9,0.4,5.5,0.5,8.3c0.1,11.3,0.6,22.6,0.9,33.9c0.1,2.5,0.6,4.1,3.6,4.3
		c9.8,0.5,19.5,1.3,29.3,2c2.8,0.2,4.3-0.3,4.1-3.8c-0.8-11.9-2.1-23.9-1.7-35.8C451.7,144.4,441.6,137,431.3,137.9z M481.9,145
		c-9.1,0-13.2,3.9-12.8,13.1c0.4,12.1,1.3,24.1,2,36.2c0.1,1.8,0.8,2.6,2.7,2.8c7.9,0.6,15.8,1.2,23.7,2c4,0.4,4.9-1.3,4.6-4.9
		c-1.1-10.7-1.5-21.5-2.2-32.2C499,150.5,492.7,145,481.9,145z M532.1,273.9c2.5,0,5-0.1,7.5,0c2.2,0.1,3.3-0.5,3.1-3.1
		c-1.1-13.6-1.8-27.2-2.9-40.8c-0.4-5.2-1.8-10.2-5.9-13.8c-5.2-4.6-12.3-2.8-14.4,3.7c-1,3-1.4,6.1-1.2,9.3
		c1,11.4,1.9,22.9,2.6,34.3C521.5,274,521.4,274,532.1,273.9z M525.8,201c2.5,0,5,0,7.5,0c1.5,0,2.4-0.3,2.2-2.3
		c-0.6-7.3-0.4-14.6-1.7-21.8c-1-5.6,0.4-11.3-2.1-16.7c-2.5-5.4-7.2-8.3-12.7-7.3c-3.9,0.7-6.2,4.4-5.9,10.7
		c0.5,9.8,1.1,19.5,2.2,29.2C516.2,201,516.5,201,525.8,201z M559.3,274.2c0-0.1,0-0.1,0-0.2c1.5,0,3-0.2,4.5,0
		c3.4,0.4,4.7-0.7,4.3-4.3c-1.4-13-2.6-26.1-3.9-39.2c-0.4-3.5-1.5-6.8-3.9-9.5c-3.9-4.4-9.3-3.4-11.3,2.1c-1.7,4.5-1,9.2-0.7,13.8
		c0.8,10.8,2,21.5,2.5,32.3c0.2,4.1,1.3,5.8,5.4,5C557.2,274.1,558.3,274.2,559.3,274.2z M553.7,203c6.5,0.1,6.7,0,6.3-5.5
		c-0.5-7.1-1-14.2-2.2-21.2c-0.8-5-0.1-10.4-3.7-14.7c-2.2-2.6-4.6-4.6-8.1-3.3c-3.2,1.2-4,3.9-4,7.2c-0.2,10.3,2,20.4,2.3,30.7
		c0.1,4.1,2.2,6.5,6.5,6.6C552.1,202.8,553.4,203,553.7,203z M571.8,235.4c0.8,11.2,1.6,21.6,2.3,32c0.5,7.4,0.5,7.2,8.1,7.3
		c3.4,0,4.3-1,3.9-4.3c-1.1-10.1-1.9-20.1-2.8-30.2c-0.4-4.5-0.7-8.9-2.8-13c-1-2.1-2.3-3.7-4.9-3.4c-2.6,0.3-2.9,2.6-3.3,4.4
		C571.8,230.8,571.9,233.5,571.8,235.4z M573.6,204.9c4.7,0.8,6.1-0.6,4.9-5.4c-1.1-4.5-0.9-9.2-1.5-13.8
		c-0.7-5.7-0.5-11.6-2.4-17.2c-0.8-2.5-1.5-5.9-5.4-5.5c-3.7,0.4-3,3.9-4,6.1c-0.4,0.9-0.2,2-0.1,3c0.9,9.2,2.3,18.4,2.7,27.6
		C568,204.4,569.5,205.8,573.6,204.9z"/>
	<path fill="#EB6024" d="M335,375.9c-12.6,0.3-25.3,0.7-37.9,1c-4.3-16.5-8.6-32.9-12.8-49.4c-0.6-2.4-0.3-4.9-0.5-7.4
		c0-2.5,0.1-5,0.1-7.5c0.1-11.4,8-19.7,19.3-20.7c8.3-0.7,16.3-0.3,23.3,4.8c5.5,4,8.8,9.2,8.7,16.4C335,334.1,335,355,335,375.9z"
		/>
	<path fill="#EB6024" d="M282.9,242.7c0-8,0.4-16-0.1-24c-0.7-11.1,6.3-17.8,15.4-19.3c9-1.6,18-1.1,26.1,3.9
		c6.3,3.9,9.9,9.3,9.8,17.3c-0.3,16.5-0.1,33,0.1,49.4c0,3.4-0.8,4.6-4.4,4.5c-14.3-0.3-28.6-0.4-42.9-0.4c-3.1,0-4-0.8-3.9-3.9
		c0.2-9.2,0.1-18.3,0.1-27.5C283,242.7,282.9,242.7,282.9,242.7z"/>
	<path fill="#EB6024" d="M401.1,374c-0.4,0.3-0.8,0.8-1.2,0.8c-13.3,0.4-26.5,0.8-39.8,1.1c-0.8,0-1.6-0.1-2.2-0.9
		c0.1-20.3,0.1-40.6,0.2-60.9c0-10.6,4.7-17.5,13.5-20.4c15-4.9,29.3,5.3,29.3,20.9C401,334.4,401.1,354.2,401.1,374z"/>
	<path fill="#EB6024" d="M460.8,371.9c-13.1,1.4-26.2,2-39.4,1.9c0-19,0.1-38,0.1-57c0-3.2,0.1-6.3,1-9.4c3-9.6,10.5-13.9,22-12.4
		c9.1,1.2,16.1,9.6,16.2,19.9C460.8,333.9,460.8,352.9,460.8,371.9z"/>
	<path fill="#EB6024" d="M357,244.6c0-8.5,0-17,0-25.5c0.1-10,6.8-16.7,16.9-17.2c6.5-0.3,12.7,0.6,18,4.6c4.6,3.5,7.5,8,7.5,14
		c0.1,16.8,0.2,33.7,0.5,50.5c0,3.1-0.6,4.4-4.1,4.3c-11.7-0.3-23.3-0.3-35-0.2c-3.2,0-3.9-1.1-3.8-4
		C357.1,262.3,357,253.5,357,244.6C357,244.6,357,244.6,357,244.6z"/>
	<path fill="#EB6024" d="M286,165c0-6,0.3-12-0.1-18c-0.7-10.6,5.1-15.3,13.4-16.5c9-1.3,17.9-1.2,25.8,4.6c3.9,2.8,6,6.5,6,11.4
		c-0.1,13.5-0.1,27,0.1,40.4c0,3.7-0.3,4.8-4.8,4.5c-10.6-0.8-21.3-0.2-31.9-0.3c-9.7-0.1-8.2,1.3-8.3-8.6
		C285.9,176.6,286,170.8,286,165C286,165,286,165,286,165z"/>
	<path fill="#EB6024" d="M456.7,248.1c0.4,7.6,0.6,15.3,1.2,22.9c0.2,2.9-0.4,4.1-3.6,4.1c-10.5-0.1-21,0-31.5,0.3
		c-3.1,0.1-3.9-0.9-4-3.9c-0.5-15.3-1.1-30.6-1.9-45.9c-0.4-7.4,0.4-14.5,7.8-17.9c7.7-3.5,15.6-2.9,22.8,1.9
		c5.3,3.5,8.3,8.7,8.4,15.1c0.2,7.8,0,15.6,0,23.4C456.2,248.1,456.4,248.1,456.7,248.1z"/>
	<path fill="#EB6024" d="M510.9,368.9c-11,0.6-21.9,2.1-32.9,2c-0.3-18.1-0.7-36.3-1.1-54.4c-0.1-3.2,0.5-6.3,1.5-9.3
		c3.8-11.1,18.1-14.4,26.2-5.8c3.2,3.3,5.2,7.4,5.4,12C510.5,332,511.4,350.4,510.9,368.9z"/>
	<path fill="#EB6024" d="M397,168c0,6.7-0.1,13.3,0,20c0.1,2.9-0.8,4.2-3.9,4.1c-10.5-0.2-21-0.1-31.4,0c-2.8,0-3.9-0.9-3.8-3.7
		c0.6-12.8-0.8-25.5-0.9-38.3c-0.1-11.6,6.7-18.3,18.3-17.9c5,0.2,9.9,1.1,14.3,3.8c4.7,2.9,7.5,6.9,7.4,12.7
		C396.9,155,397,161.5,397,168C397,168,397,168,397,168z"/>
	<path fill="#EB6024" d="M260,165.7c0,7-0.1,14,0.1,21c0.1,3.1-0.8,4.4-4.2,4.4c-10.3-0.2-20.6-0.1-31,0c-3,0-4.1-0.9-4.1-4
		c0.1-13.5,0-27,0.1-40.4c0-5.6,3-9.4,7.7-11.9c6.8-3.7,14.1-4.6,21.6-2.4c6,1.7,9.6,6.6,9.7,13C260.1,152.1,260,158.9,260,165.7
		C260,165.7,260,165.7,260,165.7z"/>
	<path fill="#EB6024" d="M491.5,274.6c-4.2,0-8.3-0.1-12.5,0c-2.8,0.1-4-0.5-4.2-3.8c-0.7-14.5-1.8-28.9-2.7-43.4
		c-0.6-10.2,4.3-16.6,13-17.4c9.9-0.9,19.2,6.1,19.9,15.5c1.2,14.9,1.9,29.9,3,44.8c0.2,3.1-0.5,4.6-4,4.3
		c-4.1-0.3-8.3-0.1-12.5-0.1C491.5,274.7,491.5,274.6,491.5,274.6z"/>
	<path fill="#EB6024" d="M431.3,137.9c10.3-1,20.4,6.4,19.9,19.5c-0.4,11.9,0.9,23.9,1.7,35.8c0.2,3.4-1.3,4-4.1,3.8
		c-9.8-0.7-19.5-1.4-29.3-2c-3-0.2-3.5-1.8-3.6-4.3c-0.3-11.3-0.8-22.6-0.9-33.9c0-2.8-1.3-5.4-0.5-8.3
		C416.9,140.6,420.9,137.9,431.3,137.9z"/>
	<path fill="#EB6024" d="M481.9,145c10.8,0,17.2,5.5,18,17c0.7,10.7,1.1,21.5,2.2,32.2c0.4,3.5-0.6,5.3-4.6,4.9
		c-7.9-0.8-15.8-1.4-23.7-2c-1.9-0.1-2.6-0.9-2.7-2.8c-0.6-12.1-1.5-24.1-2-36.2C468.7,148.8,472.7,145,481.9,145z"/>
	<path fill="#EB6024" d="M546.1,366c-6.9,1.8-14,1.6-21.1,1.9c-0.6-17.3-1.3-34.6-1.8-51.9c-0.1-3.3,0.6-6.6,1.9-9.7
		c1.4-3.5,3.9-6,7.7-6.2c3.6-0.2,6.4,1.6,8.3,4.7c2.6,4.2,3.5,8.9,3.7,13.8C545.3,334.4,545.7,350.2,546.1,366z"/>
	<path fill="#EB6024" d="M257.9,249c-5.9,0.1-11.9,0.1-17.8,0.2c-1.8,0-3.7,0.4-5-1.4c-4-12.4-8-24.8-11.8-37.2
		c-0.5-1.7-2.2-3.6-0.1-5.4c7.4-4.4,15.2-5.6,23.5-3.2c7.2,2.1,11.4,7.7,11.4,15.1C258.2,227.7,258,238.3,257.9,249z"/>
	<path fill="#EB6024" d="M532.1,273.9c-10.7,0.1-10.6,0.1-11.2-10.4c-0.7-11.4-1.6-22.9-2.6-34.3c-0.3-3.2,0.2-6.3,1.2-9.3
		c2.1-6.5,9.2-8.3,14.4-3.7c4.2,3.6,5.5,8.6,5.9,13.8c1,13.6,1.8,27.2,2.9,40.8c0.2,2.7-0.8,3.2-3.1,3.1
		C537.1,273.9,534.6,273.9,532.1,273.9z"/>
	<path fill="#EB6024" d="M571.9,364c-5.9,1.3-11.7,2.9-17.7,1c-0.4-15.6-0.8-31.3-1.2-46.9c-0.1-3.2,0.3-6.3,1.2-9.4
		c0.9-2.7,2.3-5.3,5.6-5.7c3.5-0.4,5.6,1.7,7.1,4.5c2.3,4.4,2.7,9.2,2.9,14.1C570.5,335.7,571.2,349.8,571.9,364z"/>
	<path fill="#EB6024" d="M525.8,201c-9.2-0.1-9.6,0-10.5-8.1c-1.1-9.7-1.7-19.5-2.2-29.2c-0.3-6.3,2-10,5.9-10.7
		c5.4-1,10.2,1.9,12.7,7.3c2.5,5.4,1.1,11.1,2.1,16.7c1.3,7.1,1.1,14.5,1.7,21.8c0.2,2-0.7,2.3-2.2,2.3
		C530.7,201.1,528.2,201,525.8,201z"/>
	<path fill="#EB6024" d="M559.3,274.2c-1,0-2-0.2-3,0c-4.1,0.8-5.2-0.8-5.4-5c-0.5-10.8-1.7-21.5-2.5-32.3c-0.4-4.6-1-9.3,0.7-13.8
		c2-5.5,7.4-6.5,11.3-2.1c2.4,2.7,3.5,6,3.9,9.5c1.3,13.1,2.5,26.1,3.9,39.2c0.4,3.7-0.9,4.8-4.3,4.3c-1.5-0.2-3,0-4.5,0
		C559.3,274.1,559.3,274.2,559.3,274.2z"/>
	<path fill="#EB6024" d="M553.7,203c-0.3,0-1.6-0.2-2.9-0.2c-4.4-0.1-6.4-2.5-6.5-6.6c-0.3-10.3-2.6-20.3-2.3-30.7
		c0.1-3.3,0.8-6.1,4-7.2c3.5-1.3,6,0.7,8.1,3.3c3.6,4.3,2.8,9.8,3.7,14.7c1.2,7,1.7,14.1,2.2,21.2C560.4,203,560.2,203,553.7,203z"
		/>
	<path fill="#EB6024" d="M590.2,362.1c-3.8,3.3-8.1,1.9-12.3,1c0.6-14.1-1.2-28.2-1-42.3c0.1-4-0.2-8,1.2-11.8
		c0.6-1.8,1.5-3.6,3.6-3.6c2-0.1,3.2,1.6,3.9,3.3c1.5,3.7,2.2,7.6,2.4,11.6C588.7,334.2,589.5,348.1,590.2,362.1z"/>
	<path fill="#EB6024" d="M571.8,235.4c0.1-1.9,0-4.6,0.5-7.2c0.4-1.8,0.7-4.1,3.3-4.4c2.6-0.3,3.8,1.3,4.9,3.4
		c2.1,4.1,2.4,8.6,2.8,13c0.9,10.1,1.7,20.2,2.8,30.2c0.4,3.3-0.5,4.3-3.9,4.3c-7.6,0-7.6,0.1-8.1-7.3
		C573.4,257,572.6,246.6,571.8,235.4z"/>
	<path fill="#EB6024" d="M573.6,204.9c-4.1,0.8-5.6-0.6-5.8-5.1c-0.4-9.2-1.8-18.4-2.7-27.6c-0.1-1-0.2-2.1,0.1-3
		c1-2.3,0.3-5.8,4-6.1c3.9-0.4,4.6,3,5.4,5.5c1.8,5.5,1.7,11.4,2.4,17.2c0.6,4.6,0.4,9.3,1.5,13.8
		C579.6,204.3,578.3,205.8,573.6,204.9z"/>
	<path fill="#F2F2F2" d="M581,154l9,71c0,0-51,76-216,78S93,217,93,217l5-91C98,126,394,272,581,154z"/>
	<g>
		<path fill="#5B72B6" d="M318,209.2c-15.6,0-28.2,12.6-28.2,28.2s12.6,28.2,28.2,28.2s28.2-12.6,28.2-28.2S333.6,209.2,318,209.2z
			 M318,260.8c-13,0-23.5-10.5-23.5-23.5c0-13,10.5-23.5,23.5-23.5s23.5,10.5,23.5,23.5C341.5,250.3,331,260.8,318,260.8z"/>
		<path fill="#EDD034" d="M354.5,234.7c-15.6,0-28.2,12.6-28.2,28.2s12.6,28.2,28.2,28.2c15.6,0,28.2-12.6,28.2-28.2
			S370.1,234.7,354.5,234.7z M354.5,286.4c-13,0-23.5-10.5-23.5-23.5c0-13,10.5-23.5,23.5-23.5c13,0,23.5,10.5,23.5,23.5
			C378,275.9,367.5,286.4,354.5,286.4z"/>
		<path fill="#7AC370" d="M427,234.7c-15.6,0-28.2,12.6-28.2,28.2s12.6,28.2,28.2,28.2c15.6,0,28.2-12.6,28.2-28.2
			S442.6,234.7,427,234.7z M427,286.4c-13,0-23.5-10.5-23.5-23.5c0-13,10.5-23.5,23.5-23.5s23.5,10.5,23.5,23.5
			C450.5,275.9,440,286.4,427,286.4z"/>
		<path fill="#1C1633" d="M391.6,209.2c-15.6,0-28.2,12.6-28.2,28.2s12.6,28.2,28.2,28.2s28.2-12.6,28.2-28.2
			S407.1,209.2,391.6,209.2z M391.6,260.8c-13,0-23.5-10.5-23.5-23.5c0-13,10.5-23.5,23.5-23.5s23.5,10.5,23.5,23.5
			C415,250.3,404.5,260.8,391.6,260.8z"/>
		<path fill="#EC1D33" d="M462.5,209.2c-15.6,0-28.2,12.6-28.2,28.2s12.6,28.2,28.2,28.2s28.2-12.6,28.2-28.2S478,209.2,462.5,209.2
			z M462.5,260.8c-13,0-23.5-10.5-23.5-23.5c0-13,10.5-23.5,23.5-23.5s23.5,10.5,23.5,23.5C485.9,250.3,475.4,260.8,462.5,260.8z"/>
	</g>
	<path fill="#ECCB1F" d="M7,360.5c0,0,138.5,22,290,17.5l-15.5-14.5L7,360.5z"/>
	<path fill="#ECCB1F" d="M275.9,285.9c-0.8,10.9,3.4,20.9,5.7,31.3c0.3,1.2,0.6,2.6,2.2,3c0.1,2.5-0.1,5.1,0.5,7.4
		c4.2,16.5,8.5,32.9,12.8,49.4c0,0.4,0,0.7,0,1.1c-8,0-16,0-24,0c-2.5-2-5.3-0.8-8-1c-5.1-0.3-10.1,0.2-15.1-1.1
		c0-21.8,0.2-43.6,0-65.4c-0.1-7.2-3.1-13.5-9.7-16.9c-14.5-7.5-34.9,0.8-34.4,20.1c0.5,20.1,0,40.2-0.1,60.4
		c-5.7,0-11.4,0-17.1-0.1c-0.1-20.1-0.1-40.3-0.1-60.4c0-5.9-1.3-11.2-5.5-15.5c-5.3-5.5-14.2-6.9-22.3-3.7
		c-7.5,3-12.6,10.4-12.6,18.7c-0.1,19.6-0.1,39.3-0.1,58.9c-5.9-1.1-11.8-1.2-17.8-1c0-1.8-0.1-3.7,0-5.5
		c0.3-17.5,0.7-34.9,0.9-52.4c0.1-11-6.5-18.2-16.2-18.2c-10.1,0-17.6,7.9-17.9,18.8c-0.4,18.1-0.8,36.3-1.2,54.4
		c-4.2,0-8.5-0.1-12.7-0.1c0.5-17.1,1.1-34.2,1.6-51.4c0.1-4.2-0.3-8.3-2.1-12.2c-3.2-7-10.9-7.9-15.7-1.8c-2.8,3.5-3.9,7.7-4,12.1
		c-0.6,17.1-1.2,34.2-1.8,51.4c-3-0.4-6-0.7-9-1.1c1.4-17.1,1.4-34.2,2-51.3c0.1-2.7-0.6-5.6-1.5-8.3c-0.9-2.7-2.4-5.2-5.8-5.4
		c-3.3-0.2-5.3,1.6-6.7,4.2c-0.8,1.5-1.3,3-1.9,4.6c-1.7,4.8-1.3,9.9-1.5,14.8c-0.5,13.4-2.1,26.8-1.4,40.3
		c-2.5-0.4-4.9-0.7-7.4-1.1c0.5-15.9,0.9-31.9,1.4-47.8c0.1-3.3-0.1-6.7-1.5-9.8c-1.6-3.5-4.7-3.8-6.8-0.5c-1.9,3-2.6,6.5-2.8,10
		c-0.8,15.8-1.4,31.5-2.1,47.3c-0.2,0-0.3,0-0.5,0c-12.2-1.5-9.6-0.9-8.6-10.3c0.8-8.1,1.3-16.2,1.9-24.3
		c0.8-10.8,1.5-21.5,2.2-32.3c3.6-0.4,7.2-0.9,10.9-1.1c19-0.8,38-2.7,57-3.9c19.3-1.3,38.6-3.2,58-3.9c20.9-0.8,41.8-1.9,62.7-2.2
		c15.5-0.2,30.9-1.7,46.3-1.1c0.7,0,1.3-0.1,2-0.1C257.3,282,267.1,279.8,275.9,285.9z"/>
	<path fill="#ECCB1F" d="M214,183c2,6,4,12.1,6.2,18.1c0.6,1.6,0.5,3.8,3,4c-2.1,1.8-0.4,3.7,0.1,5.4c3.9,12.4,7.9,24.8,11.8,37.2
		c-0.7,0.4-1.3,1.1-2.1,1.2c-14.8,2.3-29.8,0-44.7,1.8c0.2-14.8,0.5-29.6,0.6-44.4c0.1-12-8.4-20.3-20.5-20.1
		c-11.8,0.1-18.5,7.3-18.7,19.8c-0.2,15.3-0.5,30.6-0.7,45.9c-5.6,2.4-11.7,0-17.3,2c0.4-14.1,1-28.2,1.1-42.4
		c0.1-9.4-7.2-16.4-16.4-16.6c-9.5-0.3-16,5.2-16.6,14.7c-1,15.4-1.1,30.9-0.9,46.3c-3.8,0.3-7.5,0.6-11.3,0.9
		c0.1-13.8,0.3-27.6,0.3-41.4c0-3.4-1.1-6.5-3.1-9.3c-4.6-6.3-12.7-5.5-16,1.5c-1.4,3-1.9,6.3-2,9.7c-0.2,13.5-0.5,26.9-0.8,40.4
		c-2.9,2.4-6.2,0.7-9.3,1.2c-0.2-12.8-0.4-25.6-0.8-38.4c-0.2-7.1-4.2-12.4-8.6-12.3c-4.2,0.1-7.4,4.8-7.5,11.9
		c-0.2,13.6-0.1,27.3-0.1,40.9c-2.6,0.3-5.1,0.7-7.7,1c-0.1-12.8,0-25.6-0.2-38.5c0-1.9-0.8-3.9-1.5-5.8c-0.7-2-1.7-3.8-4.1-3.7
		c-2.4,0.1-3.3,2.2-3.8,4.1c-0.7,2.4-1.4,4.9-1.4,7.3c-0.1,12.5,0,25,0,37.5c-2.5-0.2-4.7,1.6-7.2,0.9c1.4-19.6,2.8-39.3,4.2-58.9
		c9.2-3.5,18.8-5,28.3-6.9c19-3.7,37.9-7.6,57.3-9.3c13.5-1.2,26.9-3.3,40.4-4.7c11.5-1.2,23.1-1.8,34.6-3.3
		C190.6,179.3,202.5,177,214,183z"/>
	<path fill="#EB6024" d="M205.6,374.1c0.1-20.1,0.7-40.3,0.1-60.4c-0.5-19.3,19.9-27.6,34.4-20.1c6.6,3.4,9.6,9.8,9.7,16.9
		c0.2,21.8,0,43.6,0,65.4c-3.5,2.2-7.5,1.4-11.1,0.9c-9.5-1.4-19.1-0.4-28.7-1.5C208.6,375.2,206.7,376,205.6,374.1z"/>
	<path fill="#EB6024" d="M147.9,372c0-19.6,0-39.3,0.1-58.9c0-8.3,5.1-15.7,12.6-18.7c8.1-3.2,17-1.8,22.3,3.7
		c4.2,4.3,5.5,9.7,5.5,15.5c0,20.1,0.1,40.3,0.1,60.4c-8.7,0.9-17.4,0-26.1-0.6C157.6,373.1,152.6,374.1,147.9,372z"/>
	<path fill="#F0983B" d="M275.9,285.9c-8.9-6.1-18.6-3.9-28.2-3c-0.7,0.1-1.3,0.1-2,0.1c-15.5-0.6-30.9,0.9-46.3,1.1
		c-20.9,0.2-41.8,1.4-62.7,2.2c-19.3,0.7-38.6,2.6-58,3.9c-19,1.2-38,3.1-57,3.9c-3.6,0.2-7.2,0.7-10.9,1.1
		c-5.7-1.6-2.1-5.2-1.8-8.1c10-1,20.1-2.1,30.1-3c17-1.4,34-3,51-4c15.2-0.8,30.4-2.2,45.6-3c19.5-1,39.1-2.2,58.6-3
		c16.6-0.6,33.2-1.9,49.9-1.2c2.2,0.1,4.3-0.5,6.4-0.6c8.2-0.2,16.7-2.3,24.3,2.6C277.2,278.5,273.8,282.4,275.9,285.9z"/>
	<path fill="#F0983B" d="M274.9,258.1c0,3.7,0.1,7.3,0.1,11c-2.8-2.4-5.9-3.3-9.7-3.1c-10.1,0.5-20.2,0.3-30.4,0.8
		c-14.6,0.7-29.2,0.8-43.9,1.3c-5.8,0.2-11.6,0.6-17.4,0.7c-22.1,0.5-44.1,1.7-66.1,3.2c-11.6,0.8-23.2,1.5-34.7,2.3
		c-19.2,1.3-38.3,2.9-57.5,3.8c-1.8,0.1-3.7-0.1-5.3,0.9c-4.2-2.9-2.2-6-0.2-9c5.2,0.3,10.2-0.4,15.4-0.8c14.2-1,28.3-2.5,42.6-3.3
		c20.8-1.2,41.5-3.5,62.3-4.7c12.4-0.7,24.8-1.4,37.2-2c14.4-0.7,28.8-1.3,43.2-2c17.1-0.8,34.2-0.8,51.3-1.2
		C266.4,255.9,270.8,256,274.9,258.1z"/>
	<path fill="#EB6024" d="M95.8,368.1c0.4-18.1,0.8-36.3,1.2-54.4c0.2-10.9,7.8-18.8,17.9-18.8c9.6,0,16.3,7.2,16.2,18.2
		c-0.1,17.5-0.6,34.9-0.9,52.4c0,1.8,0,3.7,0,5.5c-2.3,1.8-4.8,0.2-7.1,0.1c-7.3-0.3-14.6-0.7-21.9-1.3
		C99.3,369.6,97,370.3,95.8,368.1z"/>
	<path fill="#ECCB1F" d="M274.9,258.1c-4.1-2.1-8.6-2.2-13.1-2.1c-17.1,0.4-34.2,0.3-51.3,1.2c-14.4,0.7-28.8,1.3-43.2,2
		c-12.4,0.6-24.8,1.3-37.2,2c-20.8,1.2-41.5,3.5-62.3,4.7c-14.2,0.8-28.4,2.3-42.6,3.3c-5.1,0.4-10.2,1.1-15.4,0.8
		c0.3-2.7-1-6.4,3.9-6c2.5,0.7,4.8-1,7.2-0.9c3.7-0.3,7.4-0.6,11.1-1c2.6-0.3,5.1-0.7,7.7-1c5.7-0.6,11.5-0.4,17-2.1
		c3.1-0.4,6.5,1.2,9.3-1.2c7.3,1.4,14.4-0.9,21.6-0.9c3.8-0.3,7.5-0.6,11.3-0.9c10.9-0.7,21.8-1.4,32.8-2.1c5.6-2,11.7,0.4,17.3-2
		c13.2,0.9,26.2-1.2,39.3-1.2c14.9-1.7,29.9,0.5,44.7-1.8c0.7-0.1,1.4-0.8,2.1-1.2c1.3,1.7,3.2,1.4,5,1.4c5.9,0,11.9-0.1,17.8-0.2
		c2.8,0,5.6,0,8.3,0C273.5,249.1,275.1,250.7,274.9,258.1z"/>
	<path fill="#ECCB1F" d="M10.1,278.9c1.7-1,3.5-0.9,5.3-0.9c19.2-0.9,38.3-2.4,57.5-3.8c11.6-0.8,23.2-1.5,34.7-2.3
		c22-1.5,44-2.7,66.1-3.2c5.8-0.1,11.6-0.5,17.4-0.7c14.6-0.5,29.3-0.6,43.9-1.3c10.1-0.5,20.3-0.2,30.4-0.8
		c3.7-0.2,6.9,0.7,9.7,3.1c0,2,0,3.9,0,5.9c-7.7-4.9-16.1-2.8-24.3-2.6c-2.1,0-4.3,0.7-6.4,0.6c-16.6-0.7-33.3,0.6-49.9,1.2
		c-19.5,0.7-39.1,1.9-58.6,3c-15.2,0.8-30.4,2.1-45.6,3c-17,0.9-34,2.5-51,4c-10.1,0.9-20.1,2-30.1,3
		C9.4,284.3,9.7,281.6,10.1,278.9z"/>
	<path fill="#ECCB1F" d="M213,167.1c1.3,2.5-0.5,5.4,0.9,8c-7.2-2-14.5-3.6-22.1-3c-5.3,0.4-10.5,1.4-15.7,1.9
		c-13.8,1.4-27.7,2.4-41.5,4.2c-17.4,2.2-34.8,3.9-52.1,6.8c-22.4,3.7-44.5,8.7-66.2,15.2c-0.5-3-0.1-6.1-1.5-9
		c15.9-3.7,31.9-7.3,48-10.2c17.6-3.1,35.1-6.3,52.9-8.1c10.8-1.1,21.6-2.5,32.5-3.8c10.8-1.3,21.6-2.6,32.5-3.7
		c7.9-0.8,15.8-2.4,23.7-0.2C207.2,165.8,209.9,167.3,213,167.1z"/>
	<path fill="#EB6024" d="M60.9,366c0.6-17.1,1.2-34.2,1.8-51.4c0.2-4.4,1.2-8.6,4-12.1c4.8-6,12.4-5.2,15.7,1.8
		c1.8,3.8,2.2,8,2.1,12.2c-0.5,17.1-1.1,34.3-1.6,51.4C75.6,367.8,68.1,368.8,60.9,366z"/>
	<path fill="#F0983B" d="M213,167.1c-3.1,0.2-5.8-1.3-8.7-2c-7.9-2.1-15.8-0.6-23.7,0.2c-10.8,1.1-21.7,2.5-32.5,3.7
		c-10.8,1.3-21.6,2.7-32.5,3.8c-17.8,1.8-35.3,5-52.9,8.1c-16.1,2.9-32.1,6.5-48,10.2c0.1-2.7,0.2-5.4,0.3-8c1.5-0.1,3-0.1,4.4-0.4
		c15.9-3.7,32-6.9,48.1-9.7c16.1-2.7,32.2-5.6,48.5-7.1c10.8-1,21.6-2.6,32.5-3.9c10.2-1.2,20.4-1.9,30.5-3.3
		c11.4-1.6,22.7-3.2,33.8,1.3C213,162.4,213,164.7,213,167.1z"/>
	<path fill="#ECCB1F" d="M208,153.1c-5.7-1.1-11.3-2.2-17.1-2.3c-5.3-0.1-10.5,1.2-15.8,1.1c-0.7-2-1.4-4-2-6.1
		c-2.3-7.4-7-13.9-8-21.8c-1.1-0.6-1.6-1.6-2-2.7c-3.3-8.2-6.6-16.3-9.9-24.4c-0.2,0-0.4,0-0.5,0c-15-7.6-29.5-1.8-43.9,2
		c-27,7.1-53.5,15.7-79.4,26c-1.4,0.5-2.9,0.7-4.3,1c-0.4,4.8-0.8,9.6-1.2,14.3c-1,11.5-2.5,23-2.6,34.6h0c-1,0.5-2,1.3-3.1,1.5
		c-4.6,0.7-4.8,3.1-2.9,6.6c1.5-0.1,3-0.1,4.4-0.4c15.9-3.7,32-6.9,48.1-9.7c16.1-2.7,32.2-5.6,48.5-7.1c10.8-1,21.6-2.6,32.5-3.9
		c10.2-1.2,20.4-1.9,30.5-3.3c11.4-1.6,22.7-3.2,33.8,1.3C213.8,155.9,211.9,153.9,208,153.1z"/>
	<path fill="#F0983B" d="M16.4,200.1c21.8-6.4,43.8-11.4,66.2-15.2c17.3-2.9,34.7-4.6,52.1-6.8c13.8-1.7,27.6-2.8,41.5-4.2
		c5.3-0.5,10.5-1.5,15.7-1.9c7.5-0.6,14.8,1,22.1,3c0,2.7,0.1,5.3,0.1,8c-11.5-6-23.4-3.8-35.5-2.2c-11.5,1.5-23.1,2-34.6,3.3
		c-13.5,1.4-26.9,3.5-40.4,4.7c-19.3,1.8-38.3,5.7-57.3,9.3c-9.5,1.8-19.2,3.4-28.3,6.9C14.4,204.4,16.5,201.9,16.4,200.1z"/>
	<path fill="#EB6024" d="M35.2,363.9c-0.7-13.5,0.9-26.9,1.4-40.3c0.2-4.9-0.2-10,1.5-14.8c0.6-1.6,1.1-3.1,1.9-4.6
		c1.4-2.7,3.5-4.5,6.7-4.2c3.4,0.2,4.9,2.7,5.8,5.4c0.8,2.7,1.6,5.5,1.5,8.3c-0.6,17.1-0.6,34.2-2,51.3
		C46.3,364.6,40.7,364.2,35.2,363.9z"/>
	<path fill="#F0983B" d="M25,121c20.7-8.5,41.5-17,62.9-23.4c15.4-4.6,30.6-9.8,46.4-13.2c4-0.9,7.5,0.3,11.2,1.4
		c2.4,0.8,4.7,1.6,7.1,2.4c0.8,2.9,0.4,5.9,0.5,8.9c-0.2,0-0.4,0-0.5,0c-15-7.6-29.5-1.8-43.9,2c-27,7.1-53.5,15.7-79.4,26
		c-1.4,0.5-2.9,0.7-4.3,1C24.9,124.4,25,122.7,25,121z"/>
	<path fill="#EB6024" d="M15.9,362c0.7-15.8,1.4-31.5,2.1-47.3c0.2-3.5,0.9-7,2.8-10c2.1-3.3,5.2-3.1,6.8,0.5
		c1.4,3.1,1.6,6.4,1.5,9.8c-0.4,15.9-0.9,31.9-1.4,47.8C23.8,362.8,19.8,362.9,15.9,362z"/>
	<path fill="#ECCB1F" d="M110.2,10.8c-7.1-3.1-12.7-0.1-18.6,3.9C74.9,25.9,57.8,36.6,43.8,51.5c-3.5,3.7-5.2,8.8-9.8,11.5
		c-0.5-5.5,3.2-9,6.4-12.5C56.9,32.3,75,16.1,97.3,5.3C103.3,2.4,109.2,4.9,110.2,10.8z"/>
	<path fill="#F0983B" d="M24.9,109c6.4,0,11.8-3.2,17.5-5.4c24.5-9.4,49.5-17.1,75.2-22.3c2.1-0.4,4.3-0.5,7.1,0
		c-16.7,4.8-32.8,8.9-48.7,14c-15.8,5.1-31.2,11.3-46.5,17.4c-1.7,0.7-3.4,1.4-5.3,1.1C24.3,112.2,23.5,110.4,24.9,109z"/>
	<path fill="#F0983B" d="M152,81c-3.5,0.1-6.6-1.2-9.8-2.9c3.2,0,6.5,0,9.7,0C151.9,79,151.9,80,152,81z"/>
	<path fill="#EB6024" d="M188.4,250.7c-13.1,0-26.2,2.1-39.3,1.2c0.2-15.3,0.5-30.6,0.7-45.9c0.2-12.5,6.9-19.7,18.7-19.8
		c12.2-0.1,20.6,8.1,20.5,20.1C188.8,221.1,188.6,235.9,188.4,250.7z"/>
	<path fill="#EB6024" d="M131.8,253.9c-10.9,0.7-21.8,1.4-32.8,2.1c-0.2-15.5-0.1-30.9,0.9-46.3c0.6-9.5,7-15,16.6-14.7
		c9.2,0.3,16.5,7.2,16.4,16.6C132.8,225.7,132.2,239.8,131.8,253.9z"/>
	<path fill="#EB6024" d="M87.7,256.9c-7.2,0-14.4,2.3-21.6,0.9c0.3-13.5,0.6-26.9,0.8-40.4c0-3.4,0.6-6.6,2-9.7
		c3.3-7.1,11.4-7.8,16-1.5c2,2.7,3.1,5.9,3.1,9.3C88,229.3,87.8,243.1,87.7,256.9z"/>
	<path fill="#EB6024" d="M56.8,258.9c-5.5,1.7-11.3,1.5-17,2.1c0-13.6-0.1-27.3,0.1-40.9c0.1-7.1,3.4-11.8,7.5-11.9
		c4.4-0.1,8.3,5.2,8.6,12.3C56.4,233.4,56.5,246.2,56.8,258.9z"/>
	<path fill="#EB6024" d="M32.1,262c-3.7,0.3-7.4,0.6-11.1,1c0-12.5-0.1-25,0-37.5c0-2.5,0.7-4.9,1.4-7.3c0.5-1.9,1.4-4,3.8-4.1
		c2.4-0.1,3.5,1.7,4.1,3.7c0.6,1.9,1.4,3.8,1.5,5.8C32.1,236.4,32.1,249.2,32.1,262z"/>
	<polygon fill="#EFD499" points="89.5,133.9 89.8,133.7 89.8,134 89.6,134.2 	"/>
	<path fill="#ECCB1F" d="M152,81c-3.5,0.1-6.6-1-9.8-3c3.2,0,6.5,0,9.7,0c0.2-3,0.2-5.5-3-6.5c-6.8-2.1-13.4-5.5-20.9-3.5
		c-5.2-15.5-10.4-30.9-15.6-46.4c-0.3-1.1-0.2-2.3-0.3-3.4l0,0c-0.1-2.6,0-5.2-1.9-7.3c-7.1-3.1-12.7-0.1-18.6,3.9
		C74.9,25.9,57.8,36.6,43.8,51.5c-3.5,3.7-5.2,8.8-9.8,11.5c-3.2,6.3-2.3,13.3-3.6,20l0,0c-2.4,6.1-2.7,12.6-3.3,19
		c-2.1,1.9-2.6,4.3-2.2,6.9c6.4,0,11.8-3.2,17.5-5.4c24.5-9.4,49.5-17.1,75.2-22.3c2.1-0.4,4.3-0.5,7.1,0
		c-16.7,4.8-32.8,8.9-48.7,14c-15.8,5.1-31.2,11.3-46.5,17.4c-1.7,0.7-3.4,1.4-5.3,1.1c0.3,2.4,0.5,4.7,0.8,7.1
		c20.7-8.5,41.5-17,62.9-23.4c15.4-4.6,30.6-9.8,46.4-13.2c4-0.9,7.5,0.3,11.2,1.4c2.4,0.8,4.7,1.6,7.1,2.3
		C152.3,85.3,152.3,83.3,152,81z M70.1,59.7c0-1,0.1-2,0-3C70.1,57.7,70.1,58.7,70.1,59.7z M74.6,64.7c0.2-0.6,0.3-1.3,0.2-2.1
		C74.9,63.4,74.8,64.1,74.6,64.7z M74.8,59.2c0,0.9,0,1.7,0,2.6C74.8,60.9,74.8,60,74.8,59.2c0-0.6,0.1-1.2,0.1-1.7
		C74.9,58,74.8,58.6,74.8,59.2z"/>
	<path fill="#EB6024" d="M42.3,94.8L56,90.3V67c0,0,0.5-9.1-7.7-6.7c-5.7,1.7-6.3,10.3-6,16C42.7,82,42.3,94.8,42.3,94.8z"/>
	<path fill="#EB6024" d="M65.3,86.8L82,81.4V52.9c0,0,0.6-11-9.3-8.1c-6.9,2-7.7,12.6-7.3,19.5S65.3,86.8,65.3,86.8z"/>
	<path fill="#F0983B" d="M24.2,113.9c0,0,90.7-29.2,100.5-32.6S152,81,152,81l-0.1-3c0,0-14.4-6-30.4-1.5S24.9,109,24.9,109
		L24.2,113.9z"/>
	<polygon fill="#ECCB1F" points="152.5,97 179.3,152.3 135.3,159.7 136.2,134.5 	"/>
	<path fill="#EB6024" d="M74.4,167.8l23.2-3.2c0,0-0.1-26.1-0.3-36.4c-0.1-4.3-0.6-19.6-13.5-15.8c-8.9,2.7-10,16.6-9.4,25.7
		C75,147.2,74.4,167.8,74.4,167.8z"/>
	<path fill="#EB6024" d="M106,162.5l35.8-4.2c0,0-0.1-22.5-0.4-33.7c-0.2-5.7-0.7-26.7-19-23.7c-13.6,2.2-16.3,18-16.3,27.8
		C106,138.6,106,162.5,106,162.5z"/>
	<path fill="#EB6024" d="M47.4,171.8l21.5-2.9c0,0-0.1-22.3-0.3-31.7c-0.1-3.9-0.6-19.1-12.5-15.6c-8.3,2.4-9.2,15.1-8.8,23.3
		C47.9,153.1,47.4,171.8,47.4,171.8z"/>
	<path fill="#EB6024" d="M29.4,174.8l15.1-2.5c0,0,0-19.2-0.2-27.2c-0.1-3-0.4-15.7-8.7-12.7c-5.8,2-6.5,12.7-6.1,19.7
		S29.4,174.8,29.4,174.8z"/>
</g>
</svg>
