<?xml version="1.0" encoding="utf-8"?>
<!-- Generator: Adobe Illustrator 19.0.0, SVG Export Plug-In . SVG Version: 6.00 Build 0)  -->
<!DOCTYPE svg PUBLIC "-//W3C//DTD SVG 1.1//EN" "http://www.w3.org/Graphics/SVG/1.1/DTD/svg11.dtd">
<svg version="1.1" id="Layer_1" xmlns="http://www.w3.org/2000/svg" xmlns:xlink="http://www.w3.org/1999/xlink" x="0px" y="0px"
	 viewBox="-252 67.9 454.8 426.1" style="enable-background:new -252 67.9 454.8 426.1;" xml:space="preserve">
<style type="text/css">
	.st0{fill:#909090;}
	.st1{fill:#A29090;}
	.st2{fill:#585959;}
	.st3{fill:#CAC2B7;}
	.st4{fill:#BA252B;}
	.st5{opacity:0.61;fill:#C93641;enable-background:new    ;}
	.st6{fill:#FFFFFF;}
</style>
<rect x="-45.1" y="288.3" class="st0" width="37.4" height="205.7"/>
<rect x="-233.8" y="274.2" class="st1" width="418" height="23.4"/>
<rect x="-210.1" y="274.2" class="st2" width="3.3" height="23.4"/>
<rect x="-176.4" y="274.2" class="st2" width="3.3" height="23.4"/>
<rect x="-142.8" y="274.2" class="st2" width="3.3" height="23.4"/>
<rect x="-109.1" y="274.2" class="st2" width="3.3" height="23.4"/>
<rect x="-75.4" y="274.2" class="st2" width="3.3" height="23.4"/>
<rect x="-41.8" y="274.2" class="st2" width="3.3" height="23.4"/>
<rect x="-8.2" y="274.2" class="st2" width="3.3" height="23.4"/>
<rect x="25.5" y="274.2" class="st2" width="3.3" height="23.4"/>
<rect x="59.2" y="274.2" class="st2" width="3.3" height="23.4"/>
<rect x="92.9" y="274.2" class="st2" width="3.3" height="23.4"/>
<rect x="126.5" y="274.2" class="st2" width="3.3" height="23.4"/>
<rect x="160.2" y="274.2" class="st2" width="3.3" height="23.4"/>
<rect x="-252" y="297.1" class="st3" width="454.8" height="6.1"/>
<rect x="-218.8" y="292" class="st2" width="35.6" height="7.5"/>
<rect x="-130.9" y="292" class="st2" width="35.6" height="7.5"/>
<rect x="-42.9" y="292" class="st2" width="35.6" height="7.5"/>
<rect x="45" y="292" class="st2" width="35.6" height="7.5"/>
<rect x="132.9" y="292" class="st2" width="35.6" height="7.5"/>
<rect x="-245" y="74.1" class="st4" width="439.5" height="209.5"/>
<polygon class="st5" points="-192.7,294.1 -142.2,73.9 -245.1,74.6 -210.8,294.7 "/>
<polygon class="st5" points="-105.2,294.2 -54.7,74.1 -174.3,74.1 -123.2,294.9 "/>
<polygon class="st5" points="-15,294.2 35.5,74.1 -84.3,74.1 -33.2,294.9 "/>
<polygon class="st5" points="72.8,294.2 123.3,74.1 3.6,74.1 54.7,294.9 "/>
<polygon class="st5" points="160.7,294.1 193.9,74 91.6,73.9 142.7,294.7 "/>
<g>
	<path class="st6" d="M119.8,229c-46.9,8.7-94,16-142.3,17c-39.1,0.9-77.7-2.5-115.4-10.5c-37.8-8.3-107.3-51.7-107.3-45.3
		c0,2.5-0.5,1.3-0.5,5.3v43.2c2,0.5,3.9,0.9,5.5,1.5c40.3,14,82.8,19.5,126.4,18.8c28.3-0.5,56.5-3.3,84.6-6.5
		c46.1-5.5,91.9-12.8,138.5-15.6c22.1-1.2,44-1.5,65.9,1.8c6.4,1,13.4,4.2,19.6,5.3c0.1-6.7-0.1-15.5,0-22.1
		C169.1,220.7,144.4,224.4,119.8,229z"/>
</g>
<g>
	<path class="st6" d="M-227.4,152.2h7.4l8.4,10.4v-10.4h7.8v23.5h-7l-8.7-10.8v10.8h-7.8V152.2z"/>
	<path class="st6" d="M-202.1,170.5L-202.1,170.5c0-3.7,2.7-5.8,7-5.8c1.5,0,3.5,0.3,4.3,0.7v-0.3c0-1.7-1-2.7-3.4-2.7
		c-1.9,0-3.5,0.4-5.1,1l-1.3-5.1c2.1-0.8,4.5-1.3,7.7-1.3c3.7,0,6.1,0.8,7.8,2.4c1.4,1.4,1.9,3.2,1.9,5.8v10.4h-7.6v-1.8
		c-1.3,1.4-3,2.3-5.3,2.3C-199.6,176.2-202.1,174.2-202.1,170.5z M-190.7,169v-0.8c-0.4-0.2-1.1-0.3-1.7-0.3c-1.5,0-2.4,0.9-2.4,2
		v0.1c0,1.1,0.8,1.8,1.7,1.8C-191.7,171.8-190.7,170.7-190.7,169z"/>
	<path class="st6" d="M-181.6,166.7L-181.6,166.7c0-5.9,3.5-9.7,7.8-9.7c2.8,0,4.3,1.2,5.5,2.5v-8.3h7.6v24.5h-7.6v-2.2
		c-1.2,1.3-2.7,2.7-5.4,2.7C-178.1,176.2-181.6,172.3-181.6,166.7z M-168.1,166.6L-168.1,166.6c0-1.9-1.3-3.4-3.1-3.4
		s-3.1,1.4-3.1,3.3v0.1c0,1.8,1.3,3.3,3.1,3.3S-168.1,168.5-168.1,166.6z"/>
	<path class="st6" d="M-159,170.5L-159,170.5c0-3.7,2.7-5.8,7-5.8c1.5,0,3.5,0.3,4.3,0.7v-0.3c0-1.7-1-2.7-3.4-2.7
		c-1.9,0-3.5,0.4-5.1,1l-1.3-5.1c2.1-0.8,4.5-1.3,7.7-1.3c3.7,0,6.1,0.8,7.8,2.4c1.4,1.4,1.9,3.2,1.9,5.8v10.4h-7.6v-1.8
		c-1.3,1.4-3,2.3-5.3,2.3C-156.6,176.2-159,174.2-159,170.5z M-147.7,169v-0.8c-0.4-0.2-1.1-0.3-1.7-0.3c-1.5,0-2.4,0.9-2.4,2v0.1
		c0,1.1,0.8,1.8,1.7,1.8C-148.7,171.8-147.7,170.7-147.7,169z"/>
	<path class="st6" d="M-130,166.7L-130,166.7c0-5.5,3.9-9.7,9.4-9.7c6.5,0,9.5,4.5,9.5,10.1c0,0.4,0,0.9,0,1.3h-11.8
		c0.5,1.6,1.8,2.5,3.5,2.5c1.4,0,2.5-0.6,3.7-1.9l4.1,3.3c-1.8,2.4-4.4,4-8.4,4C-126,176.2-130,172.4-130,166.7z M-118,165
		c-0.2-1.7-1.2-2.8-2.6-2.8c-1.3,0-2.2,1.1-2.4,2.8H-118z"/>
	<path class="st6" d="M-110.7,173.5l2.6-4.3c2.2,1.4,4.7,2,6.8,2c0.7,0,1.1-0.2,1.1-0.6v-0.1c0-0.4-0.3-0.6-2.2-1.1
		c-4.6-1.1-7.5-2.4-7.5-6.2v-0.1c0-4,3.2-6.3,8-6.3c3,0,6,0.8,8.2,2.1l-2.4,4.5c-1.9-1.1-4.3-1.7-5.8-1.7c-0.7,0-1.1,0.2-1.1,0.6
		v0.1c0,0.4,0.4,0.6,2.2,1.1c4.6,1.1,7.4,2.4,7.4,6.2v0.1c0,4-3,6.3-8,6.3C-104.8,176.2-108.1,175.3-110.7,173.5z"/>
	<path class="st6" d="M-81.8,169.6v-6.3h-2.1v-5.9h2.1v-4.6h7.6v4.6h4.2v5.9h-4.2v4.6c0,1.4,0.6,1.9,1.8,1.9c0.7,0,1.5-0.2,2.3-0.6
		v5.9c-1.2,0.6-3,1-4.9,1C-79.4,176.2-81.8,174.1-81.8,169.6z"/>
	<path class="st6" d="M-68.9,170.5L-68.9,170.5c0-3.7,2.7-5.8,7-5.8c1.5,0,3.5,0.3,4.3,0.7v-0.3c0-1.7-1-2.7-3.4-2.7
		c-1.9,0-3.5,0.4-5.1,1l-1.3-5.1c2.1-0.8,4.5-1.3,7.7-1.3c3.7,0,6.1,0.8,7.8,2.4c1.4,1.4,1.9,3.2,1.9,5.8v10.4h-7.6v-1.8
		c-1.3,1.4-3,2.3-5.3,2.3C-66.4,176.2-68.9,174.2-68.9,170.5z M-57.5,169v-0.8c-0.4-0.2-1.1-0.3-1.7-0.3c-1.5,0-2.4,0.9-2.4,2v0.1
		c0,1.1,0.8,1.8,1.7,1.8C-58.6,171.8-57.5,170.7-57.5,169z"/>
	<path class="st6" d="M-47.9,157.4h7.6v2.6c1.2-1.5,3-3,5.6-3c3.9,0,6.3,2.6,6.3,6.7v12.1H-36v-9.6c0-1.6-0.9-2.5-2.1-2.5
		c-1.1,0-2.2,0.9-2.2,2.5v9.6h-7.6V157.4z"/>
	<path class="st6" d="M-17.7,157.4h7.6v3.7c1-2.5,2.7-4.1,5.7-4v8.1h-0.8c-3.2,0-4.9,1.8-4.9,5.8v4.7h-7.6V157.4z"/>
	<path class="st6" d="M-3.7,166.7L-3.7,166.7c0-5.5,3.9-9.7,9.4-9.7c6.5,0,9.5,4.5,9.5,10.1c0,0.4,0,0.9,0,1.3H3.4
		c0.5,1.6,1.8,2.5,3.5,2.5c1.4,0,2.5-0.6,3.7-1.9l4.1,3.3c-1.8,2.4-4.4,4-8.4,4C0.3,176.2-3.7,172.4-3.7,166.7z M8.3,165
		c-0.2-1.7-1.2-2.8-2.6-2.8c-1.3,0-2.2,1.1-2.4,2.8H8.3z"/>
	<path class="st6" d="M18.3,163.3h-2.1v-5.9h2.1c0.1-2,0.5-3.5,1.6-4.7c1.2-1.2,2.9-1.7,5.4-1.7c2.2,0,3.6,0.2,4.7,0.5v4.8
		c-0.7-0.2-1.5-0.3-2.5-0.3c-1.2,0-1.8,0.5-1.8,1.5v0.1H30v5.7H26v12.5h-7.6V163.3z"/>
	<path class="st6" d="M31.2,157.4h7.6v3.7c1-2.5,2.7-4.1,5.7-4v8.1h-0.8c-3.2,0-4.9,1.8-4.9,5.8v4.7h-7.6V157.4z"/>
	<path class="st6" d="M45.2,166.7L45.2,166.7c0-5.5,3.9-9.7,9.4-9.7c6.5,0,9.5,4.5,9.5,10.1c0,0.4,0,0.9,0,1.3H52.3
		c0.5,1.6,1.8,2.5,3.5,2.5c1.4,0,2.5-0.6,3.7-1.9l4.1,3.3c-1.8,2.4-4.4,4-8.4,4C49.2,176.2,45.2,172.4,45.2,166.7z M57.2,165
		c-0.2-1.7-1.2-2.8-2.6-2.8c-1.3,0-2.2,1.1-2.4,2.8H57.2z"/>
	<path class="st6" d="M64.5,173.5l2.6-4.3c2.2,1.4,4.7,2,6.8,2c0.7,0,1.1-0.2,1.1-0.6v-0.1c0-0.4-0.3-0.6-2.2-1.1
		c-4.6-1.1-7.5-2.4-7.5-6.2v-0.1c0-4,3.2-6.3,8-6.3c3,0,6,0.8,8.2,2.1l-2.4,4.5c-1.9-1.1-4.3-1.7-5.8-1.7c-0.7,0-1.1,0.2-1.1,0.6
		v0.1c0,0.4,0.4,0.6,2.2,1.1c4.6,1.1,7.4,2.4,7.4,6.2v0.1c0,4-3,6.3-8,6.3C70.4,176.2,67.1,175.3,64.5,173.5z"/>
	<path class="st6" d="M82.9,166.7L82.9,166.7c0-5.2,4-9.7,10-9.7c4,0,6.9,2.1,8.3,5.1l-5.5,3.1c-0.6-1.2-1.4-1.8-2.7-1.8
		c-1.6,0-2.8,1.4-2.8,3.2v0.1c0,1.9,1.2,3.3,2.7,3.3c1.3,0,2.1-0.7,2.9-1.8l5.5,3.2c-1.6,3.1-4.4,5-8.8,5
		C87,176.2,82.9,171.8,82.9,166.7z"/>
	<path class="st6" d="M101.8,170.5L101.8,170.5c0-3.7,2.7-5.8,7-5.8c1.5,0,3.5,0.3,4.3,0.7v-0.3c0-1.7-1-2.7-3.4-2.7
		c-1.9,0-3.5,0.4-5.1,1l-1.3-5.1c2.1-0.8,4.5-1.3,7.7-1.3c3.7,0,6.1,0.8,7.8,2.4c1.4,1.4,1.9,3.2,1.9,5.8v10.4h-7.6v-1.8
		c-1.3,1.4-3,2.3-5.3,2.3C104.3,176.2,101.8,174.2,101.8,170.5z M113.2,169v-0.8c-0.4-0.2-1.1-0.3-1.7-0.3c-1.5,0-2.4,0.9-2.4,2v0.1
		c0,1.1,0.8,1.8,1.7,1.8C112.2,171.8,113.2,170.7,113.2,169z"/>
	<path class="st6" d="M122.9,157.4h7.6v2.6c1.2-1.5,3-3,5.6-3c3.9,0,6.3,2.6,6.3,6.7v12.1h-7.6v-9.6c0-1.6-0.9-2.5-2.1-2.5
		c-1.1,0-2.2,0.9-2.2,2.5v9.6h-7.6V157.4z"/>
	<path class="st6" d="M145.9,169.6v-6.3h-2.1v-5.9h2.1v-4.6h7.6v4.6h4.2v5.9h-4.2v4.6c0,1.4,0.6,1.9,1.8,1.9c0.7,0,1.5-0.2,2.3-0.6
		v5.9c-1.2,0.6-3,1-4.9,1C148.4,176.2,145.9,174.1,145.9,169.6z"/>
	<path class="st6" d="M158.4,166.7L158.4,166.7c0-5.5,3.9-9.7,9.4-9.7c6.5,0,9.5,4.5,9.5,10.1c0,0.4,0,0.9,0,1.3h-11.8
		c0.5,1.6,1.8,2.5,3.5,2.5c1.4,0,2.5-0.6,3.7-1.9l4.1,3.3c-1.8,2.4-4.4,4-8.4,4C162.5,176.2,158.4,172.4,158.4,166.7z M170.5,165
		c-0.2-1.7-1.2-2.8-2.6-2.8c-1.3,0-2.2,1.1-2.4,2.8H170.5z"/>
</g>
</svg>
