<?xml version="1.0" encoding="utf-8"?>
<!-- Generator: Adobe Illustrator 18.1.1, SVG Export Plug-In . SVG Version: 6.00 Build 0)  -->
<svg version="1.1" id="Layer_1" xmlns="http://www.w3.org/2000/svg" xmlns:xlink="http://www.w3.org/1999/xlink" x="0px" y="0px"
	 viewBox="0 0 194.5 208.7" enable-background="new 0 0 194.5 208.7" xml:space="preserve">
<g>
	<polygon fill="#504C46" points="31.3,145.4 42.2,157 31.3,193.2 37.2,195.1 54.3,162.9 60.3,157 86.9,167.2 89,161.2 80.5,155.6 
		77.3,153.5 74.3,151.5 67.9,147.2 70.6,141.5 80.7,153.5 108.5,153.5 108.5,149.5 86.9,143.4 80.7,115.7 66.4,98.5 52.1,100.3 
		24,119.9 22.1,103.4 16.4,105 4.3,125.9 9.4,128.8 16,124 12.6,138.8 	"/>
	<path fill="#292F7F" d="M146.4,37l-42.6,16.8l-6.7,34.9l-23.5,6H63.5c0,0-7.6-22.9-3.2-39.4l88.3-30.2L146.4,37z"/>
	<path fill="#C8332D" d="M53,18.6l6.1,27.5l4.2-0.9l2,9c0,0,6.7,8.2,16.2-3.6l-4.2-18.8c0,0,3.3-1.5,2.4-5.5c-0.9-4-4.5-1.2-4.5-1.2
		l-2.4-11L53,18.6z"/>
	<path fill="#292F7F" d="M97.2,88.8v11.8l24.3,31.1l31.5,11.9l21.1,24.6l-3.5,5.1L143.7,159l-16.7-9.7l-10.5-3l-33.4-24l-21.4,34.9
		L75,168.9l-1.1,7.3l-5.1,0.8l-20.6-14.5c0,0,0-38.9,15.6-62.1l1-7.1L97.2,88.8z"/>
	<path fill="#C8332D" d="M167.4,17.6L89.3,41.1L60.3,55.4c0,0-1.3,21.3,9.5,39.4l6.1,1.6c0,0-8-32.1,25.3-50.5l37.5-15.2l7.6,6.4
		l25.1-13.7L167.4,17.6z"/>
	<polygon fill="#C8332D" points="63.5,94.8 63.7,100.4 72.3,105 97.2,92.9 97.9,85.2 72.9,95.1 63.5,93.7 	"/>
	<path fill="#C8332D" d="M81.9,188.3l1.7-7.2c0,0,9.7-0.6,8,8.8L88.8,202c0,0-6.4,1.3-5-6C83.7,196,84.2,189.5,81.9,188.3z"/>
	<path fill="#C8332D" d="M183.2,180.9l-0.3-8.1c0,0,10-3.6,11.1,6.9l0.6,13.6c0,0-6.3,3.3-7.1-4.8
		C187.4,188.5,186,181.5,183.2,180.9z"/>
	<polygon fill="#C8332D" points="150.2,162.4 159.2,150.9 184.3,172.5 183.2,180.9 	"/>
	<polygon fill="#C8332D" points="81.9,188.3 65,174.4 72.7,165.9 85.5,181.2 	"/>
	<path fill="#C8332D" d="M79.2,40.4l0.5-14l-3-13.2c0,0-16.2-6.4-23.7,5.4L79.2,40.4z"/>
	<path fill="#C8332D" d="M173.2,24c15.5-12.6,9.4-18.6,6.6-19.9c-2.8-1.3-8.5,8-8.5,8s2.7-3.7,0.6-4.7c-2.2-1-5.5,3.2-5.5,3.2
		s-6.2,6.4-2.1,10.9C168.4,25.9,173.2,24,173.2,24z"/>
	<polygon fill="#292F7F" points="60.8,84.1 50.8,102.5 42.2,106.9 60.3,69.4 	"/>
	<path fill="#C8332D" d="M43.5,106.2l16-35.3c0,0-1-12.6,2.3-14.7v-1.6l-4.2,1.8l-20.6,54.7L43.5,106.2z"/>
	<g>
		<path d="M62.4,29.8l9.3-11.4C71.7,18.4,75.1,35.8,62.4,29.8z"/>
		<path fill="#FFFFFF" d="M63.5,29.5l7.8-10C71.3,19.5,73.8,34.5,63.5,29.5z"/>
	</g>
	<path fill="#F9BD91" d="M33.1,139.3l-3.3-2.6c0,0,1.4-2.7-1.3-4.8c-2.7-2.1-3.5,1.6-3.5,1.6l-7.3-5.8L7.2,140.9l18.3,14.4l2.2-2.8
		l1.2,0.9L33.1,139.3z"/>
	<path fill="#F9BD91" d="M38.1,196c-0.5,14-6.4,13.2-8.4,12.2c-1.9-1,0.9-8.2,0.9-8.2s-0.9,3.1-2.4,2.3s-0.6-4.5-0.6-4.5
		s1-6.2,5.2-5.8S38.1,196,38.1,196z"/>
	<path fill="#F9BD91" d="M2.7,126.7c-5.9,11.7-0.7,13.7,1.4,13.8c2,0.1,3-7.1,3-7.1s-0.6,3,0.9,3c1.6,0,2.5-3.4,2.5-3.4
		s2-5.5-1.7-7.1C5.1,124.3,2.7,126.7,2.7,126.7z"/>
	<path fill="#513236" d="M86.9,166.9l1.3-5.6c0,0,7.6-0.5,6.3,6.9l-2.3,9.5c0,0-5,1-4-4.7C88.3,173,88.6,167.8,86.9,166.9z"/>
	<path fill="#513236" d="M107.7,154.5l0.7-5c0,0,6.5-1,5.9,5.5l-1.3,8.4c0,0-4.2,1.2-3.8-3.8C109.4,159.6,109.3,155.2,107.7,154.5z"
		/>
	<path fill="#3C2415" d="M7.2,140.9c0,0,8.5,1.5,10.7-6.7v-2.8l8.3,4.8l-0.7-4.1c0,0-7.2-7.3-8.8-5.8
		C15.1,127.7,4.4,133.4,7.2,140.9z"/>
	<g>
		<defs>
			<path id="SVGID_1_" d="M53.2,19.5L57.3,38l7.1-4.3l1.1-9c0,0-3.2-4.1-3.6-4.2S53.2,19.5,53.2,19.5z"/>
		</defs>
		<clipPath id="SVGID_2_">
			<use xlink:href="#SVGID_1_"  overflow="visible"/>
		</clipPath>
		<g clip-path="url(#SVGID_2_)">
			<path d="M61.4,30.3l-11.3-8.8C50.1,21.5,53.5,37.9,61.4,30.3z"/>
			<path fill="#FFFFFF" d="M60.5,30.3l-9.7-7.8C50.8,22.5,54.1,36.5,60.5,30.3z"/>
		</g>
	</g>
	<g>
		<path d="M74.3,69.2c0.2,2-0.8,3.8-2.3,4S69.1,72,68.8,70c-0.2-2,0.8-3.8,2.3-4C72.6,65.7,74,67.2,74.3,69.2z"/>
		<path d="M72.1,64.5c0.1,1-0.4,1.8-1.1,1.9s-1.4-0.6-1.5-1.6s0.4-1.8,1.1-1.9C71.3,62.8,71.9,63.5,72.1,64.5z"/>
		<g>
			<polygon points="74.3,63.8 71.8,67.4 72.1,67.9 74.7,64.3 			"/>
			<polygon points="75.8,65.8 74.3,63.8 74,64.3 75.5,66.2 			"/>
		</g>
		<g>
			<polygon points="75.9,66.3 72.5,68.4 72.7,69 76.1,66.9 			"/>
			<polygon points="76.8,68.8 75.9,66.3 75.5,66.6 76.4,69 			"/>
		</g>
		<g>
			<polygon points="76.7,69.5 72.9,69.2 72.9,69.9 76.7,70.2 			"/>
			<polygon points="76.7,72.2 76.7,69.5 76.2,69.5 76.2,72.2 			"/>
		</g>
		<g>
			<polygon points="75.9,72.2 72.7,69.3 72.4,69.8 75.7,72.7 			"/>
			<polygon points="74.9,74.4 75.9,72.2 75.5,71.8 74.5,74 			"/>
		</g>
		<g>
			<polygon points="67.3,65.2 70.6,67.9 70.4,68.5 67.1,65.7 			"/>
			<polygon points="66.3,67.4 67.3,65.2 67.7,65.5 66.7,67.8 			"/>
		</g>
		<g>
			<polygon points="66.4,68 70.1,69.1 70,69.7 66.3,68.6 			"/>
			<polygon points="66,70.6 66.4,68 66.8,68.1 66.5,70.8 			"/>
		</g>
		<g>
			<polygon points="66.3,71.3 69.9,70 70.1,70.6 66.5,71.9 			"/>
			<polygon points="66.9,73.9 66.3,71.3 66.8,71.1 67.4,73.7 			"/>
		</g>
		<g>
			<polygon points="67.7,73.7 70.1,70 70.5,70.4 68,74.1 			"/>
			<polygon points="69.2,75.5 67.7,73.7 68,73.2 69.5,75 			"/>
		</g>
	</g>
</g>
</svg>
