<?xml version="1.0" encoding="utf-8"?>
<!-- Generator: Adobe Illustrator 19.0.0, SVG Export Plug-In . SVG Version: 6.00 Build 0)  -->
<svg version="1.1" id="Layer_1" xmlns="http://www.w3.org/2000/svg" xmlns:xlink="http://www.w3.org/1999/xlink" x="0px" y="0px"
	 viewBox="-796 549.8 454.8 420.1" style="enable-background:new -796 549.8 454.8 420.1;" xml:space="preserve">
<style type="text/css">
	.st0{fill:#909090;}
	.st1{fill:#A29090;}
	.st2{fill:#585959;}
	.st3{fill:#CAC2B7;}
	.st4{fill:#BA252B;}
	.st5{opacity:0.61;fill:#C93641;enable-background:new    ;}
	.st6{fill:#FFFFFF;}
	.st7{fill:#FFFDFD;}
</style>
<rect x="-589.1" y="764.2" class="st0" width="37.4" height="205.7"/>
<rect x="-777.8" y="750.1" class="st1" width="418" height="23.4"/>
<rect x="-754.1" y="750.1" class="st2" width="3.3" height="23.4"/>
<rect x="-720.4" y="750.1" class="st2" width="3.3" height="23.4"/>
<rect x="-686.8" y="750.1" class="st2" width="3.3" height="23.4"/>
<rect x="-653.1" y="750.1" class="st2" width="3.3" height="23.4"/>
<rect x="-619.4" y="750.1" class="st2" width="3.3" height="23.4"/>
<rect x="-585.8" y="750.1" class="st2" width="3.3" height="23.4"/>
<rect x="-552.2" y="750.1" class="st2" width="3.3" height="23.4"/>
<rect x="-518.5" y="750.1" class="st2" width="3.3" height="23.4"/>
<rect x="-484.8" y="750.1" class="st2" width="3.3" height="23.4"/>
<rect x="-451.1" y="750.1" class="st2" width="3.3" height="23.4"/>
<rect x="-417.5" y="750.1" class="st2" width="3.3" height="23.4"/>
<rect x="-383.8" y="750.1" class="st2" width="3.3" height="23.4"/>
<rect x="-796" y="773" class="st3" width="454.8" height="6.1"/>
<rect x="-762.8" y="767.9" class="st2" width="35.6" height="7.5"/>
<rect x="-674.9" y="767.9" class="st2" width="35.6" height="7.5"/>
<rect x="-586.9" y="767.9" class="st2" width="35.6" height="7.5"/>
<rect x="-499" y="767.9" class="st2" width="35.6" height="7.5"/>
<rect x="-411.1" y="767.9" class="st2" width="35.6" height="7.5"/>
<rect x="-789" y="550" class="st4" width="439.5" height="209.5"/>
<polygon class="st5" points="-736.7,770 -686.2,549.8 -789.1,550.5 -754.8,770.6 "/>
<polygon class="st5" points="-649.2,770.1 -598.7,550 -718.3,550 -667.2,770.8 "/>
<polygon class="st5" points="-559,770.1 -508.5,550 -628.3,550 -577.2,770.8 "/>
<polygon class="st5" points="-471.2,770.1 -420.7,550 -540.4,550 -489.3,770.8 "/>
<polygon class="st5" points="-383.3,770 -350.1,549.9 -452.4,549.8 -401.3,770.6 "/>
<g>
	<path class="st6" d="M-424.2,704.9c-46.9,8.7-94,16-142.3,17c-39.1,0.9-77.7-2.5-115.4-10.5c-37.8-8.3-107.3-51.7-107.3-45.3
		c0,2.5-0.5,1.3-0.5,5.3v43.2c2,0.5,3.9,0.9,5.5,1.5c40.3,14,82.8,19.5,126.4,18.8c28.3-0.5,56.5-3.3,84.6-6.5
		c46.1-5.5,91.9-12.8,138.5-15.6c22.1-1.2,44-1.5,65.9,1.8c6.4,1,13.4,4.2,19.6,5.3c0.1-6.7-0.1-15.5,0-22.1
		C-374.9,696.6-399.6,700.3-424.2,704.9z"/>
</g>
<g>
	<path class="st6" d="M-771.4,628.1h7.4l8.4,10.4v-10.4h7.8v23.5h-7l-8.7-10.8v10.8h-7.8L-771.4,628.1L-771.4,628.1z"/>
	<path class="st6" d="M-746.1,646.4L-746.1,646.4c0-3.7,2.7-5.8,7-5.8c1.5,0,3.5,0.3,4.3,0.7V641c0-1.7-1-2.7-3.4-2.7
		c-1.9,0-3.5,0.4-5.1,1l-1.3-5.1c2.1-0.8,4.5-1.3,7.7-1.3c3.7,0,6.1,0.8,7.8,2.4c1.4,1.4,1.9,3.2,1.9,5.8v10.4h-7.6v-1.8
		c-1.3,1.4-3,2.3-5.3,2.3C-743.6,652.1-746.1,650.1-746.1,646.4z M-734.7,644.9v-0.8c-0.4-0.2-1.1-0.3-1.7-0.3c-1.5,0-2.4,0.9-2.4,2
		v0.1c0,1.1,0.8,1.8,1.7,1.8C-735.7,647.7-734.7,646.6-734.7,644.9z"/>
	<path class="st6" d="M-725.6,642.6L-725.6,642.6c0-5.9,3.5-9.7,7.8-9.7c2.8,0,4.3,1.2,5.5,2.5v-8.3h7.6v24.5h-7.6v-2.2
		c-1.2,1.3-2.7,2.7-5.4,2.7C-722.1,652.1-725.6,648.2-725.6,642.6z M-712.1,642.5L-712.1,642.5c0-1.9-1.3-3.4-3.1-3.4
		s-3.1,1.4-3.1,3.3v0.1c0,1.8,1.3,3.3,3.1,3.3S-712.1,644.4-712.1,642.5z"/>
	<path class="st6" d="M-703,646.4L-703,646.4c0-3.7,2.7-5.8,7-5.8c1.5,0,3.5,0.3,4.3,0.7V641c0-1.7-1-2.7-3.4-2.7
		c-1.9,0-3.5,0.4-5.1,1l-1.3-5.1c2.1-0.8,4.5-1.3,7.7-1.3c3.7,0,6.1,0.8,7.8,2.4c1.4,1.4,1.9,3.2,1.9,5.8v10.4h-7.6v-1.8
		c-1.3,1.4-3,2.3-5.3,2.3C-700.6,652.1-703,650.1-703,646.4z M-691.7,644.9v-0.8c-0.4-0.2-1.1-0.3-1.7-0.3c-1.5,0-2.4,0.9-2.4,2v0.1
		c0,1.1,0.8,1.8,1.7,1.8C-692.7,647.7-691.7,646.6-691.7,644.9z"/>
	<path class="st6" d="M-674,642.6L-674,642.6c0-5.5,3.9-9.7,9.4-9.7c6.5,0,9.5,4.5,9.5,10.1c0,0.4,0,0.9,0,1.3h-11.8
		c0.5,1.6,1.8,2.5,3.5,2.5c1.4,0,2.5-0.6,3.7-1.9l4.1,3.3c-1.8,2.4-4.4,4-8.4,4C-670,652.1-674,648.3-674,642.6z M-662,640.9
		c-0.2-1.7-1.2-2.8-2.6-2.8c-1.3,0-2.2,1.1-2.4,2.8H-662z"/>
	<path class="st6" d="M-654.7,649.4l2.6-4.3c2.2,1.4,4.7,2,6.8,2c0.7,0,1.1-0.2,1.1-0.6v-0.1c0-0.4-0.3-0.6-2.2-1.1
		c-4.6-1.1-7.5-2.4-7.5-6.2V639c0-4,3.2-6.3,8-6.3c3,0,6,0.8,8.2,2.1l-2.4,4.5c-1.9-1.1-4.3-1.7-5.8-1.7c-0.7,0-1.1,0.2-1.1,0.6v0.1
		c0,0.4,0.4,0.6,2.2,1.1c4.6,1.1,7.4,2.4,7.4,6.2v0.1c0,4-3,6.3-8,6.3C-648.8,652.1-652.1,651.2-654.7,649.4z"/>
	<path class="st6" d="M-625.8,645.5v-6.3h-2.1v-5.9h2.1v-4.6h7.6v4.6h4.2v5.9h-4.2v4.6c0,1.4,0.6,1.9,1.8,1.9c0.7,0,1.5-0.2,2.3-0.6
		v5.9c-1.2,0.6-3,1-4.9,1C-623.4,652.1-625.8,650-625.8,645.5z"/>
	<path class="st6" d="M-612.9,646.4L-612.9,646.4c0-3.7,2.7-5.8,7-5.8c1.5,0,3.5,0.3,4.3,0.7V641c0-1.7-1-2.7-3.4-2.7
		c-1.9,0-3.5,0.4-5.1,1l-1.3-5.1c2.1-0.8,4.5-1.3,7.7-1.3c3.7,0,6.1,0.8,7.8,2.4c1.4,1.4,1.9,3.2,1.9,5.8v10.4h-7.6v-1.8
		c-1.3,1.4-3,2.3-5.3,2.3C-610.4,652.1-612.9,650.1-612.9,646.4z M-601.5,644.9v-0.8c-0.4-0.2-1.1-0.3-1.7-0.3c-1.5,0-2.4,0.9-2.4,2
		v0.1c0,1.1,0.8,1.8,1.7,1.8C-602.6,647.7-601.5,646.6-601.5,644.9z"/>
	<path class="st6" d="M-591.9,633.3h7.6v2.6c1.2-1.5,3-3,5.6-3c3.9,0,6.3,2.6,6.3,6.7v12.1h-7.6v-9.6c0-1.6-0.9-2.5-2.1-2.5
		c-1.1,0-2.2,0.9-2.2,2.5v9.6h-7.6C-591.9,651.7-591.9,633.3-591.9,633.3z"/>
	<path class="st6" d="M-561.7,633.3h7.6v3.7c1-2.5,2.7-4.1,5.7-4v8.1h-0.8c-3.2,0-4.9,1.8-4.9,5.8v4.7h-7.6L-561.7,633.3
		L-561.7,633.3z"/>
	<path class="st6" d="M-547.7,642.6L-547.7,642.6c0-5.5,3.9-9.7,9.4-9.7c6.5,0,9.5,4.5,9.5,10.1c0,0.4,0,0.9,0,1.3h-11.8
		c0.5,1.6,1.8,2.5,3.5,2.5c1.4,0,2.5-0.6,3.7-1.9l4.1,3.3c-1.8,2.4-4.4,4-8.4,4C-543.7,652.1-547.7,648.3-547.7,642.6z
		 M-535.7,640.9c-0.2-1.7-1.2-2.8-2.6-2.8c-1.3,0-2.2,1.1-2.4,2.8H-535.7z"/>
	<path class="st6" d="M-525.7,639.2h-2.1v-5.9h2.1c0.1-2,0.5-3.5,1.6-4.7c1.2-1.2,2.9-1.7,5.4-1.7c2.2,0,3.6,0.2,4.7,0.5v4.8
		c-0.7-0.2-1.5-0.3-2.5-0.3c-1.2,0-1.8,0.5-1.8,1.5v0.1h4.3v5.7h-4v12.5h-7.6L-525.7,639.2L-525.7,639.2z"/>
	<path class="st6" d="M-512.8,633.3h7.6v3.7c1-2.5,2.7-4.1,5.7-4v8.1h-0.8c-3.2,0-4.9,1.8-4.9,5.8v4.7h-7.6V633.3z"/>
	<path class="st6" d="M-498.8,642.6L-498.8,642.6c0-5.5,3.9-9.7,9.4-9.7c6.5,0,9.5,4.5,9.5,10.1c0,0.4,0,0.9,0,1.3h-11.8
		c0.5,1.6,1.8,2.5,3.5,2.5c1.4,0,2.5-0.6,3.7-1.9l4.1,3.3c-1.8,2.4-4.4,4-8.4,4C-494.8,652.1-498.8,648.3-498.8,642.6z
		 M-486.8,640.9c-0.2-1.7-1.2-2.8-2.6-2.8c-1.3,0-2.2,1.1-2.4,2.8H-486.8z"/>
	<path class="st6" d="M-479.5,649.4l2.6-4.3c2.2,1.4,4.7,2,6.8,2c0.7,0,1.1-0.2,1.1-0.6v-0.1c0-0.4-0.3-0.6-2.2-1.1
		c-4.6-1.1-7.5-2.4-7.5-6.2V639c0-4,3.2-6.3,8-6.3c3,0,6,0.8,8.2,2.1l-2.4,4.5c-1.9-1.1-4.3-1.7-5.8-1.7c-0.7,0-1.1,0.2-1.1,0.6v0.1
		c0,0.4,0.4,0.6,2.2,1.1c4.6,1.1,7.4,2.4,7.4,6.2v0.1c0,4-3,6.3-8,6.3C-473.6,652.1-476.9,651.2-479.5,649.4z"/>
	<path class="st6" d="M-461.1,642.6L-461.1,642.6c0-5.2,4-9.7,10-9.7c4,0,6.9,2.1,8.3,5.1l-5.5,3.1c-0.6-1.2-1.4-1.8-2.7-1.8
		c-1.6,0-2.8,1.4-2.8,3.2v0.1c0,1.9,1.2,3.3,2.7,3.3c1.3,0,2.1-0.7,2.9-1.8l5.5,3.2c-1.6,3.1-4.4,5-8.8,5
		C-457,652.1-461.1,647.7-461.1,642.6z"/>
	<path class="st6" d="M-442.2,646.4L-442.2,646.4c0-3.7,2.7-5.8,7-5.8c1.5,0,3.5,0.3,4.3,0.7V641c0-1.7-1-2.7-3.4-2.7
		c-1.9,0-3.5,0.4-5.1,1l-1.3-5.1c2.1-0.8,4.5-1.3,7.7-1.3c3.7,0,6.1,0.8,7.8,2.4c1.4,1.4,1.9,3.2,1.9,5.8v10.4h-7.6v-1.8
		c-1.3,1.4-3,2.3-5.3,2.3C-439.7,652.1-442.2,650.1-442.2,646.4z M-430.8,644.9v-0.8c-0.4-0.2-1.1-0.3-1.7-0.3c-1.5,0-2.4,0.9-2.4,2
		v0.1c0,1.1,0.8,1.8,1.7,1.8C-431.8,647.7-430.8,646.6-430.8,644.9z"/>
	<path class="st6" d="M-421.1,633.3h7.6v2.6c1.2-1.5,3-3,5.6-3c3.9,0,6.3,2.6,6.3,6.7v12.1h-7.6v-9.6c0-1.6-0.9-2.5-2.1-2.5
		c-1.1,0-2.2,0.9-2.2,2.5v9.6h-7.6V633.3z"/>
	<path class="st6" d="M-398.1,645.5v-6.3h-2.1v-5.9h2.1v-4.6h7.6v4.6h4.2v5.9h-4.2v4.6c0,1.4,0.6,1.9,1.8,1.9c0.7,0,1.5-0.2,2.3-0.6
		v5.9c-1.2,0.6-3,1-4.9,1C-395.6,652.1-398.1,650-398.1,645.5z"/>
	<path class="st6" d="M-385.6,642.6L-385.6,642.6c0-5.5,3.9-9.7,9.4-9.7c6.5,0,9.5,4.5,9.5,10.1c0,0.4,0,0.9,0,1.3h-11.8
		c0.5,1.6,1.8,2.5,3.5,2.5c1.4,0,2.5-0.6,3.7-1.9l4.1,3.3c-1.8,2.4-4.4,4-8.4,4C-381.5,652.1-385.6,648.3-385.6,642.6z
		 M-373.5,640.9c-0.2-1.7-1.2-2.8-2.6-2.8c-1.3,0-2.2,1.1-2.4,2.8H-373.5z"/>
</g>
<g>
	<path class="st7" d="M-490.3,747.2l0.9-1c1.3,1.2,2.5,1.8,4.2,1.8c1.6,0,2.8-0.9,2.8-2.1l0,0c0-1.2-0.6-1.8-3.2-2.3
		c-2.8-0.6-4.1-1.5-4.1-3.5l0,0c0-1.9,1.8-3.4,4.1-3.4c1.8,0,3.1,0.4,4.4,1.5l-0.9,1c-1.2-0.9-2.3-1.3-3.5-1.3
		c-1.6,0-2.6,0.9-2.6,2.1l0,0c0,1.2,0.6,1.8,3.4,2.3c2.8,0.6,4,1.6,4,3.5l0,0c0,2.1-1.8,3.5-4.2,3.5
		C-487.3,749.3-488.9,748.5-490.3,747.2z"/>
	<path class="st7" d="M-478.3,736.8h1.3v11h6.9v1.3h-8.4v-12.3H-478.3z"/>
	<path class="st7" d="M-468.7,743L-468.7,743c0-3.4,2.5-6.4,6.3-6.4s6.3,2.9,6.3,6.3l0,0c0,3.4-2.5,6.3-6.3,6.3
		C-466.2,749.3-468.7,746.3-468.7,743z M-457.5,743L-457.5,743c0-2.8-2.1-5.1-4.8-5.1c-2.8,0-4.8,2.2-4.8,5l0,0
		c0,2.8,2.1,5.1,4.8,5.1C-459.6,748-457.5,745.8-457.5,743z"/>
	<path class="st7" d="M-453.7,743L-453.7,743c0-3.4,2.5-6.4,6.2-6.4c2.1,0,3.4,0.6,4.5,1.6l-0.9,1c-0.9-0.9-2.1-1.5-3.8-1.5
		c-2.8,0-4.7,2.3-4.7,5l0,0c0,2.9,1.9,5.1,4.8,5.1c1.5,0,2.6-0.6,3.5-1.2v-3.1h-3.8v-1.3h5.1v4.8c-1.2,1-2.9,1.9-5,1.9
		C-451.4,749.3-453.7,746.5-453.7,743z"/>
	<path class="st7" d="M-434.8,736.7h1.3l5.6,12.5h-1.5l-1.5-3.2h-6.7l-1.5,3.2h-1.5L-434.8,736.7z M-431.4,744.6l-2.8-6.3l-2.8,6.3
		H-431.4z"/>
	<path class="st7" d="M-425.4,736.8h1.3l7.8,9.8v-9.8h1.3v12.3h-1.2l-7.9-10.1v10.1h-1.3V736.8z"/>
	<path class="st7" d="M-404.9,738.1l-2.3,0.7l-0.3-1.2l3.1-1h1v12.5h-1.3v-11H-404.9z"/>
	<path class="st7" d="M-400.4,747.8l0.9-1c1,0.9,1.9,1.3,3.1,1.3c2.2,0,3.7-2.2,3.7-5.4c-0.7,1-1.8,1.9-3.5,1.9
		c-2.5,0-4.2-1.6-4.2-3.8l0,0c0-2.3,1.8-4.2,4.4-4.2c1.5,0,2.5,0.4,3.2,1.3c0.9,0.9,1.5,2.3,1.5,4.7l0,0c0,4-2.1,6.6-5.1,6.6
		C-398.2,749.3-399.4,748.7-400.4,747.8z M-393.2,740.6L-393.2,740.6c0-1.6-1.3-2.8-3.1-2.8c-1.9,0-2.9,1.3-2.9,2.9l0,0
		c0,1.6,1.2,2.6,3.1,2.6C-394.4,743.4-393.2,742.1-393.2,740.6z"/>
	<path class="st7" d="M-389.5,747.4l0.9-1c1,1,2.2,1.8,3.5,1.8c1.8,0,2.9-1.2,2.9-2.8l0,0c0-1.5-1.3-2.6-3.1-2.6
		c-1,0-1.9,0.3-2.6,0.7l-0.9-0.6l0.3-6h7v1.3h-5.9l-0.3,4c0.7-0.3,1.5-0.6,2.5-0.6c2.3,0,4.2,1.5,4.2,3.8l0,0c0,2.3-1.8,4.1-4.4,4.1
		C-386.9,749.3-388.5,748.4-389.5,747.4z"/>
	<path class="st7" d="M-378.8,747.4l0.9-1c1,1,2.2,1.8,3.5,1.8c1.8,0,2.9-1.2,2.9-2.8l0,0c0-1.5-1.3-2.6-3.1-2.6
		c-1,0-1.9,0.3-2.6,0.7l-0.9-0.6l0.3-6h7v1.3h-5.9l-0.3,4c0.7-0.3,1.5-0.6,2.5-0.6c2.3,0,4.2,1.5,4.2,3.8l0,0c0,2.3-1.8,4.1-4.4,4.1
		C-376.2,749.3-377.7,748.4-378.8,747.4z"/>
</g>
</svg>
