<?xml version="1.0" encoding="utf-8"?>
<!-- Generator: Adobe Illustrator 19.0.0, SVG Export Plug-In . SVG Version: 6.00 Build 0)  -->
<svg version="1.1" id="Layer_1" xmlns="http://www.w3.org/2000/svg" xmlns:xlink="http://www.w3.org/1999/xlink" x="0px" y="0px"
	 viewBox="-524 305.9 454.8 426" style="enable-background:new -524 305.9 454.8 426;" xml:space="preserve">
<style type="text/css">
	.st0{fill:#909090;}
	.st1{fill:#A29090;}
	.st2{fill:#585959;}
	.st3{fill:#CAC2B7;}
	.st4{fill:#BA252B;}
	.st5{opacity:0.61;fill:#C93641;enable-background:new    ;}
	.st6{fill:#FFFFFF;}
	.st7{fill:#FFFDFD;}
</style>
<rect x="-317.1" y="526.2" class="st0" width="37.4" height="205.7"/>
<rect x="-505.8" y="512.1" class="st1" width="418" height="23.4"/>
<rect x="-482.1" y="512.1" class="st2" width="3.3" height="23.4"/>
<rect x="-448.4" y="512.1" class="st2" width="3.3" height="23.4"/>
<rect x="-414.8" y="512.1" class="st2" width="3.3" height="23.4"/>
<rect x="-381.1" y="512.1" class="st2" width="3.3" height="23.4"/>
<rect x="-347.4" y="512.1" class="st2" width="3.3" height="23.4"/>
<rect x="-313.8" y="512.1" class="st2" width="3.3" height="23.4"/>
<rect x="-280.2" y="512.1" class="st2" width="3.3" height="23.4"/>
<rect x="-246.5" y="512.1" class="st2" width="3.3" height="23.4"/>
<rect x="-212.8" y="512.1" class="st2" width="3.3" height="23.4"/>
<rect x="-179.1" y="512.1" class="st2" width="3.3" height="23.4"/>
<rect x="-145.5" y="512.1" class="st2" width="3.3" height="23.4"/>
<rect x="-111.8" y="512.1" class="st2" width="3.3" height="23.4"/>
<rect x="-524" y="535" class="st3" width="454.8" height="6.1"/>
<rect x="-490.8" y="529.9" class="st2" width="35.6" height="7.5"/>
<rect x="-402.9" y="529.9" class="st2" width="35.6" height="7.5"/>
<rect x="-314.9" y="529.9" class="st2" width="35.6" height="7.5"/>
<rect x="-227" y="529.9" class="st2" width="35.6" height="7.5"/>
<rect x="-139.1" y="529.9" class="st2" width="35.6" height="7.5"/>
<rect x="-517" y="312" class="st4" width="439.5" height="209.5"/>
<polygon class="st5" points="-464.7,532 -414.2,311.8 -517.1,312.5 -482.8,532.6 "/>
<polygon class="st5" points="-377.2,532.1 -326.7,312 -446.3,312 -395.2,532.8 "/>
<polygon class="st5" points="-287,532.1 -236.5,312 -356.3,312 -305.2,532.8 "/>
<polygon class="st5" points="-199.2,532.1 -148.7,312 -268.4,312 -217.3,532.8 "/>
<polygon class="st5" points="-111.3,532 -78.1,311.9 -180.4,311.8 -129.3,532.6 "/>
<g>
	<path class="st6" d="M-152.2,466.9c-46.9,8.7-94,16-142.3,17c-39.1,0.9-77.7-2.5-115.4-10.5c-37.8-8.3-107.3-51.7-107.3-45.3
		c0,2.5-0.5,1.3-0.5,5.3v43.2c2,0.5,3.9,0.9,5.5,1.5c40.3,14,82.8,19.5,126.4,18.8c28.3-0.5,56.5-3.3,84.6-6.5
		c46.1-5.5,91.9-12.8,138.5-15.6c22.1-1.2,44-1.5,65.9,1.8c6.4,1,13.4,4.2,19.6,5.3c0.1-6.7-0.1-15.5,0-22.1
		C-102.9,458.6-127.6,462.3-152.2,466.9z"/>
</g>
<g>
	<path class="st6" d="M-499.4,390.1h7.4l8.4,10.4v-10.4h7.8v23.5h-7l-8.7-10.8v10.8h-7.8v-23.5H-499.4z"/>
	<path class="st6" d="M-474.1,408.4L-474.1,408.4c0-3.7,2.7-5.8,7-5.8c1.5,0,3.5,0.3,4.3,0.7V403c0-1.7-1-2.7-3.4-2.7
		c-1.9,0-3.5,0.4-5.1,1l-1.3-5.1c2.1-0.8,4.5-1.3,7.7-1.3c3.7,0,6.1,0.8,7.8,2.4c1.4,1.4,1.9,3.2,1.9,5.8v10.4h-7.6v-1.8
		c-1.3,1.4-3,2.3-5.3,2.3C-471.6,414.1-474.1,412.1-474.1,408.4z M-462.7,406.9v-0.8c-0.4-0.2-1.1-0.3-1.7-0.3c-1.5,0-2.4,0.9-2.4,2
		v0.1c0,1.1,0.8,1.8,1.7,1.8C-463.7,409.7-462.7,408.6-462.7,406.9z"/>
	<path class="st6" d="M-453.6,404.6L-453.6,404.6c0-5.9,3.5-9.7,7.8-9.7c2.8,0,4.3,1.2,5.5,2.5v-8.3h7.6v24.5h-7.6v-2.2
		c-1.2,1.3-2.7,2.7-5.4,2.7C-450.1,414.1-453.6,410.2-453.6,404.6z M-440.1,404.5L-440.1,404.5c0-1.9-1.3-3.4-3.1-3.4
		s-3.1,1.4-3.1,3.3v0.1c0,1.8,1.3,3.3,3.1,3.3S-440.1,406.4-440.1,404.5z"/>
	<path class="st6" d="M-431,408.4L-431,408.4c0-3.7,2.7-5.8,7-5.8c1.5,0,3.5,0.3,4.3,0.7V403c0-1.7-1-2.7-3.4-2.7
		c-1.9,0-3.5,0.4-5.1,1l-1.3-5.1c2.1-0.8,4.5-1.3,7.7-1.3c3.7,0,6.1,0.8,7.8,2.4c1.4,1.4,1.9,3.2,1.9,5.8v10.4h-7.6v-1.8
		c-1.3,1.4-3,2.3-5.3,2.3C-428.6,414.1-431,412.1-431,408.4z M-419.7,406.9v-0.8c-0.4-0.2-1.1-0.3-1.7-0.3c-1.5,0-2.4,0.9-2.4,2v0.1
		c0,1.1,0.8,1.8,1.7,1.8C-420.7,409.7-419.7,408.6-419.7,406.9z"/>
	<path class="st6" d="M-402,404.6L-402,404.6c0-5.5,3.9-9.7,9.4-9.7c6.5,0,9.5,4.5,9.5,10.1c0,0.4,0,0.9,0,1.3h-11.8
		c0.5,1.6,1.8,2.5,3.5,2.5c1.4,0,2.5-0.6,3.7-1.9l4.1,3.3c-1.8,2.4-4.4,4-8.4,4C-398,414.1-402,410.3-402,404.6z M-390,402.9
		c-0.2-1.7-1.2-2.8-2.6-2.8c-1.3,0-2.2,1.1-2.4,2.8H-390z"/>
	<path class="st6" d="M-382.7,411.4l2.6-4.3c2.2,1.4,4.7,2,6.8,2c0.7,0,1.1-0.2,1.1-0.6v-0.1c0-0.4-0.3-0.6-2.2-1.1
		c-4.6-1.1-7.5-2.4-7.5-6.2V401c0-4,3.2-6.3,8-6.3c3,0,6,0.8,8.2,2.1l-2.4,4.5c-1.9-1.1-4.3-1.7-5.8-1.7c-0.7,0-1.1,0.2-1.1,0.6v0.1
		c0,0.4,0.4,0.6,2.2,1.1c4.6,1.1,7.4,2.4,7.4,6.2v0.1c0,4-3,6.3-8,6.3C-376.8,414.1-380.1,413.2-382.7,411.4z"/>
	<path class="st6" d="M-353.8,407.5v-6.3h-2.1v-5.9h2.1v-4.6h7.6v4.6h4.2v5.9h-4.2v4.6c0,1.4,0.6,1.9,1.8,1.9c0.7,0,1.5-0.2,2.3-0.6
		v5.9c-1.2,0.6-3,1-4.9,1C-351.4,414.1-353.8,412-353.8,407.5z"/>
	<path class="st6" d="M-340.9,408.4L-340.9,408.4c0-3.7,2.7-5.8,7-5.8c1.5,0,3.5,0.3,4.3,0.7V403c0-1.7-1-2.7-3.4-2.7
		c-1.9,0-3.5,0.4-5.1,1l-1.3-5.1c2.1-0.8,4.5-1.3,7.7-1.3c3.7,0,6.1,0.8,7.8,2.4c1.4,1.4,1.9,3.2,1.9,5.8v10.4h-7.6v-1.8
		c-1.3,1.4-3,2.3-5.3,2.3C-338.4,414.1-340.9,412.1-340.9,408.4z M-329.5,406.9v-0.8c-0.4-0.2-1.1-0.3-1.7-0.3c-1.5,0-2.4,0.9-2.4,2
		v0.1c0,1.1,0.8,1.8,1.7,1.8C-330.6,409.7-329.5,408.6-329.5,406.9z"/>
	<path class="st6" d="M-319.9,395.3h7.6v2.6c1.2-1.5,3-3,5.6-3c3.9,0,6.3,2.6,6.3,6.7v12.1h-7.6v-9.6c0-1.6-0.9-2.5-2.1-2.5
		c-1.1,0-2.2,0.9-2.2,2.5v9.6h-7.6C-319.9,413.7-319.9,395.3-319.9,395.3z"/>
	<path class="st6" d="M-289.7,395.3h7.6v3.7c1-2.5,2.7-4.1,5.7-4v8.1h-0.8c-3.2,0-4.9,1.8-4.9,5.8v4.7h-7.6V395.3z"/>
	<path class="st6" d="M-275.7,404.6L-275.7,404.6c0-5.5,3.9-9.7,9.4-9.7c6.5,0,9.5,4.5,9.5,10.1c0,0.4,0,0.9,0,1.3h-11.8
		c0.5,1.6,1.8,2.5,3.5,2.5c1.4,0,2.5-0.6,3.7-1.9l4.1,3.3c-1.8,2.4-4.4,4-8.4,4C-271.7,414.1-275.7,410.3-275.7,404.6z
		 M-263.7,402.9c-0.2-1.7-1.2-2.8-2.6-2.8c-1.3,0-2.2,1.1-2.4,2.8H-263.7z"/>
	<path class="st6" d="M-253.7,401.2h-2.1v-5.9h2.1c0.1-2,0.5-3.5,1.6-4.7c1.2-1.2,2.9-1.7,5.4-1.7c2.2,0,3.6,0.2,4.7,0.5v4.8
		c-0.7-0.2-1.5-0.3-2.5-0.3c-1.2,0-1.8,0.5-1.8,1.5v0.1h4.3v5.7h-4v12.5h-7.6L-253.7,401.2L-253.7,401.2z"/>
	<path class="st6" d="M-240.8,395.3h7.6v3.7c1-2.5,2.7-4.1,5.7-4v8.1h-0.8c-3.2,0-4.9,1.8-4.9,5.8v4.7h-7.6
		C-240.8,413.6-240.8,395.3-240.8,395.3z"/>
	<path class="st6" d="M-226.8,404.6L-226.8,404.6c0-5.5,3.9-9.7,9.4-9.7c6.5,0,9.5,4.5,9.5,10.1c0,0.4,0,0.9,0,1.3h-11.8
		c0.5,1.6,1.8,2.5,3.5,2.5c1.4,0,2.5-0.6,3.7-1.9l4.1,3.3c-1.8,2.4-4.4,4-8.4,4C-222.8,414.1-226.8,410.3-226.8,404.6z
		 M-214.8,402.9c-0.2-1.7-1.2-2.8-2.6-2.8c-1.3,0-2.2,1.1-2.4,2.8H-214.8z"/>
	<path class="st6" d="M-207.5,411.4l2.6-4.3c2.2,1.4,4.7,2,6.8,2c0.7,0,1.1-0.2,1.1-0.6v-0.1c0-0.4-0.3-0.6-2.2-1.1
		c-4.6-1.1-7.5-2.4-7.5-6.2V401c0-4,3.2-6.3,8-6.3c3,0,6,0.8,8.2,2.1l-2.4,4.5c-1.9-1.1-4.3-1.7-5.8-1.7c-0.7,0-1.1,0.2-1.1,0.6v0.1
		c0,0.4,0.4,0.6,2.2,1.1c4.6,1.1,7.4,2.4,7.4,6.2v0.1c0,4-3,6.3-8,6.3C-201.6,414.1-204.9,413.2-207.5,411.4z"/>
	<path class="st6" d="M-189.1,404.6L-189.1,404.6c0-5.2,4-9.7,10-9.7c4,0,6.9,2.1,8.3,5.1l-5.5,3.1c-0.6-1.2-1.4-1.8-2.7-1.8
		c-1.6,0-2.8,1.4-2.8,3.2v0.1c0,1.9,1.2,3.3,2.7,3.3c1.3,0,2.1-0.7,2.9-1.8l5.5,3.2c-1.6,3.1-4.4,5-8.8,5
		C-185,414.1-189.1,409.7-189.1,404.6z"/>
	<path class="st6" d="M-170.2,408.4L-170.2,408.4c0-3.7,2.7-5.8,7-5.8c1.5,0,3.5,0.3,4.3,0.7V403c0-1.7-1-2.7-3.4-2.7
		c-1.9,0-3.5,0.4-5.1,1l-1.3-5.1c2.1-0.8,4.5-1.3,7.7-1.3c3.7,0,6.1,0.8,7.8,2.4c1.4,1.4,1.9,3.2,1.9,5.8v10.4h-7.6v-1.8
		c-1.3,1.4-3,2.3-5.3,2.3C-167.7,414.1-170.2,412.1-170.2,408.4z M-158.8,406.9v-0.8c-0.4-0.2-1.1-0.3-1.7-0.3c-1.5,0-2.4,0.9-2.4,2
		v0.1c0,1.1,0.8,1.8,1.7,1.8C-159.8,409.7-158.8,408.6-158.8,406.9z"/>
	<path class="st6" d="M-149.1,395.3h7.6v2.6c1.2-1.5,3-3,5.6-3c3.9,0,6.3,2.6,6.3,6.7v12.1h-7.6v-9.6c0-1.6-0.9-2.5-2.1-2.5
		c-1.1,0-2.2,0.9-2.2,2.5v9.6h-7.6V395.3z"/>
	<path class="st6" d="M-126.1,407.5v-6.3h-2.1v-5.9h2.1v-4.6h7.6v4.6h4.2v5.9h-4.2v4.6c0,1.4,0.6,1.9,1.8,1.9c0.7,0,1.5-0.2,2.3-0.6
		v5.9c-1.2,0.6-3,1-4.9,1C-123.6,414.1-126.1,412-126.1,407.5z"/>
	<path class="st6" d="M-113.6,404.6L-113.6,404.6c0-5.5,3.9-9.7,9.4-9.7c6.5,0,9.5,4.5,9.5,10.1c0,0.4,0,0.9,0,1.3h-11.8
		c0.5,1.6,1.8,2.5,3.5,2.5c1.4,0,2.5-0.6,3.7-1.9l4.1,3.3c-1.8,2.4-4.4,4-8.4,4C-109.5,414.1-113.6,410.3-113.6,404.6z
		 M-101.5,402.9c-0.2-1.7-1.2-2.8-2.6-2.8c-1.3,0-2.2,1.1-2.4,2.8H-101.5z"/>
</g>
<g>
	<path class="st7" d="M-180.2,511.6l0.6-0.7c0.9,0.8,1.7,1.2,2.9,1.2c1.1,0,1.9-0.6,1.9-1.4v0c0-0.8-0.4-1.2-2.2-1.6
		c-1.9-0.4-2.8-1-2.8-2.4v0c0-1.3,1.2-2.3,2.8-2.3c1.2,0,2.1,0.3,3,1l-0.6,0.7c-0.8-0.6-1.6-0.9-2.4-0.9c-1.1,0-1.8,0.6-1.8,1.4v0
		c0,0.8,0.4,1.2,2.3,1.6c1.9,0.4,2.7,1.1,2.7,2.4v0c0,1.4-1.2,2.4-2.9,2.4C-178.1,513-179.2,512.5-180.2,511.6z"/>
	<path class="st7" d="M-172,504.5h0.9v7.5h4.7v0.9h-5.7V504.5z"/>
	<path class="st7" d="M-165.4,508.7L-165.4,508.7c0-2.3,1.7-4.4,4.3-4.4c2.6,0,4.3,2,4.3,4.3c0,0,0,0,0,0c0,2.3-1.7,4.3-4.3,4.3
		C-163.7,513-165.4,511-165.4,508.7z M-157.8,508.7L-157.8,508.7c0-1.9-1.4-3.5-3.3-3.5s-3.3,1.5-3.3,3.4v0c0,1.9,1.4,3.5,3.3,3.5
		S-157.8,510.6-157.8,508.7z"/>
	<path class="st7" d="M-155.2,508.7L-155.2,508.7c0-2.3,1.7-4.4,4.2-4.4c1.4,0,2.3,0.4,3.1,1.1l-0.6,0.7c-0.6-0.6-1.4-1-2.6-1
		c-1.9,0-3.2,1.6-3.2,3.4v0c0,2,1.3,3.5,3.3,3.5c1,0,1.8-0.4,2.4-0.8v-2.1h-2.6v-0.9h3.5v3.3c-0.8,0.7-2,1.3-3.4,1.3
		C-153.6,513-155.2,511.1-155.2,508.7z"/>
	<path class="st7" d="M-142.3,504.4h0.9l3.8,8.5h-1l-1-2.2h-4.6l-1,2.2h-1L-142.3,504.4z M-140,509.8l-1.9-4.3l-1.9,4.3H-140z"/>
	<path class="st7" d="M-135.9,504.5h0.9l5.3,6.7v-6.7h0.9v8.4h-0.8l-5.4-6.9v6.9h-0.9V504.5z"/>
	<path class="st7" d="M-121.9,505.4l-1.6,0.5l-0.2-0.8l2.1-0.7h0.7v8.5h-0.9V505.4z"/>
	<path class="st7" d="M-118.8,512l0.6-0.7c0.7,0.6,1.3,0.9,2.1,0.9c1.5,0,2.5-1.5,2.5-3.7c-0.5,0.7-1.2,1.3-2.4,1.3
		c-1.7,0-2.9-1.1-2.9-2.6v0c0-1.6,1.2-2.9,3-2.9c1,0,1.7,0.3,2.2,0.9c0.6,0.6,1,1.6,1,3.2v0c0,2.7-1.4,4.5-3.5,4.5
		C-117.3,513-118.1,512.6-118.8,512z M-113.9,507.1L-113.9,507.1c0-1.1-0.9-1.9-2.1-1.9c-1.3,0-2,0.9-2,2v0c0,1.1,0.8,1.8,2.1,1.8
		C-114.7,509-113.9,508.1-113.9,507.1z"/>
	<path class="st7" d="M-111.4,511.7l0.6-0.7c0.7,0.7,1.5,1.2,2.4,1.2c1.2,0,2-0.8,2-1.9v0c0-1-0.9-1.8-2.1-1.8
		c-0.7,0-1.3,0.2-1.8,0.5l-0.6-0.4l0.2-4.1h4.8v0.9h-4l-0.2,2.7c0.5-0.2,1-0.4,1.7-0.4c1.6,0,2.9,1,2.9,2.6v0c0,1.6-1.2,2.8-3,2.8
		C-109.6,513-110.7,512.4-111.4,511.7z"/>
	<path class="st7" d="M-104.1,511.7l0.6-0.7c0.7,0.7,1.5,1.2,2.4,1.2c1.2,0,2-0.8,2-1.9v0c0-1-0.9-1.8-2.1-1.8
		c-0.7,0-1.3,0.2-1.8,0.5l-0.6-0.4l0.2-4.1h4.8v0.9h-4l-0.2,2.7c0.5-0.2,1-0.4,1.7-0.4c1.6,0,2.9,1,2.9,2.6v0c0,1.6-1.2,2.8-3,2.8
		C-102.3,513-103.3,512.4-104.1,511.7z"/>
</g>
</svg>
