<?xml version="1.0" encoding="utf-8"?>
<!-- Generator: Adobe Illustrator 18.1.1, SVG Export Plug-In . SVG Version: 6.00 Build 0)  -->
<svg version="1.1" id="Layer_1" xmlns="http://www.w3.org/2000/svg" xmlns:xlink="http://www.w3.org/1999/xlink" x="0px" y="0px"
	 viewBox="0 0 454.8 426.1" enable-background="new 0 0 454.8 426.1" xml:space="preserve">
<rect x="206.9" y="220.4" fill="#909090" width="37.4" height="205.7"/>
<rect x="18.2" y="206.3" fill="#A29090" width="418" height="23.4"/>
<rect x="41.9" y="206.3" fill="#585959" width="3.3" height="23.4"/>
<rect x="75.6" y="206.3" fill="#585959" width="3.3" height="23.4"/>
<rect x="109.2" y="206.3" fill="#585959" width="3.3" height="23.4"/>
<rect x="142.9" y="206.3" fill="#585959" width="3.3" height="23.4"/>
<rect x="176.6" y="206.3" fill="#585959" width="3.3" height="23.4"/>
<rect x="210.2" y="206.3" fill="#585959" width="3.3" height="23.4"/>
<rect x="243.8" y="206.3" fill="#585959" width="3.3" height="23.4"/>
<rect x="277.5" y="206.3" fill="#585959" width="3.3" height="23.4"/>
<rect x="311.2" y="206.3" fill="#585959" width="3.3" height="23.4"/>
<rect x="344.9" y="206.3" fill="#585959" width="3.3" height="23.4"/>
<rect x="378.5" y="206.3" fill="#585959" width="3.3" height="23.4"/>
<rect x="412.2" y="206.3" fill="#585959" width="3.3" height="23.4"/>
<rect x="0" y="229.2" fill="#CAC2B7" width="454.8" height="6.1"/>
<rect x="33.2" y="224.1" fill="#585959" width="35.6" height="7.5"/>
<rect x="121.1" y="224.1" fill="#585959" width="35.6" height="7.5"/>
<rect x="209.1" y="224.1" fill="#585959" width="35.6" height="7.5"/>
<rect x="297" y="224.1" fill="#585959" width="35.6" height="7.5"/>
<rect x="384.9" y="224.1" fill="#585959" width="35.6" height="7.5"/>
<rect x="7" y="6.2" fill="#BA252B" width="439.5" height="209.5"/>
<polygon opacity="0.61" fill="#C93641" enable-background="new    " points="59.3,226.2 109.8,6 6.9,6.7 41.2,226.8 "/>
<polygon opacity="0.61" fill="#C93641" enable-background="new    " points="146.8,226.3 197.3,6.2 77.7,6.2 128.8,227 "/>
<polygon opacity="0.61" fill="#C93641" enable-background="new    " points="237,226.3 287.5,6.2 167.7,6.2 218.8,227 "/>
<polygon opacity="0.61" fill="#C93641" enable-background="new    " points="324.8,226.3 375.3,6.2 255.6,6.2 306.7,227 "/>
<polygon opacity="0.61" fill="#C93641" enable-background="new    " points="412.7,226.2 445.9,6.1 343.6,6 394.7,226.8 "/>
<g>
	<path fill="#FFFFFF" d="M371.8,149.8c-46.9,9.1-94,16.7-142.3,17.7c-39.1,0.9-77.7-2.6-115.4-11C76.3,147.8,6.8,102.6,6.8,109.2
		c0,2.6-0.5,1.4-0.5,5.5v45.1c2,0.5,3.9,0.9,5.5,1.6C52.1,176,94.6,181.7,138.2,181c28.3-0.5,56.5-3.4,84.6-6.8
		c46.1-5.7,91.9-13.4,138.5-16.3c22.1-1.3,44-1.6,65.9,1.9c6.4,1,13.4,4.4,19.6,5.5c0.1-7-0.1-16.2,0-23.1
		C421.1,141.1,396.4,145,371.8,149.8z"/>
	<g>
		<path fill="#FFFFFF" d="M113.6,40.2c0,1.1-0.9,2-2.6,2.6l-4,1.6c-0.9,0.5-2.9,4.6-6.1,12l-6,14c0.1,2,0.3,3.9,0.5,5.6l-8.3,4
			c-1.2-8.5-1.9-15.6-1.9-21.4c0-9.6,1.3-17.4,4-23.1c-3,3.6-6.4,9.4-10.3,17.3c-4,8.2-7.4,14.1-9.9,17.5c-5,6.5-10.4,9.8-16.2,9.8
			c-2.5,0-4.5-0.7-6.1-2.2s-2.4-3.4-2.4-5.8c0-2,0.7-3.7,2-5.3c1.3-1.6,3-2.3,5-2.3c1.4,0,2.6,0.3,3.5,0.9c1,0.8,1.6,1.8,1.6,3.2
			c0,1.4-0.7,2.4-2.2,3.1c-1.2,0.3-2.6,0.7-3.8,1.1c-1.7,0.6-2.6,1.3-2.6,2.3c0,1,0.6,1.9,1.9,2.6c1.1,0.5,2.2,0.9,3.3,0.9
			c4.8,0,9.6-3.2,14.3-9.6c2.6-3.4,5.6-8.7,9.2-15.9c2.3-4.6,4-8,5.2-10c1.5-2.5,3.2-5,5.3-7.8c3-3.8,5.3-5.7,6.8-5.7
			c0.5,0,0.9,0.4,0.9,1.1c0,0.1-0.1,0.3-0.2,0.5c-1,3.6-1.6,8.4-1.6,14.4c0,6.3,0.5,13.3,1.5,21c3.7-8.5,6.1-13.8,7.1-16
			c4.3-8.4,7.4-12.6,9.3-12.6C112.8,37.9,113.6,38.7,113.6,40.2z"/>
		<path fill="#FFFFFF" d="M123.2,54.2c-0.6,2.5-2.2,5.5-4.7,9.3c-2.6,4.1-4.3,7.1-5,9.1l0.5,0.4c1.7-0.5,3.2-1.8,4.5-3.8
			c1.3-1.9,2.1-3,2.4-3.1h0.2c0.2,0.2,0.2,0.5,0.2,0.7c0,1.7-1.5,4.1-4.4,7.1c-3,3-5.3,4.5-7.1,4.5c-1.3,0-2.3-0.3-2.8-1
			c-0.2-0.2-0.5-1.1-1.1-2.8c-1.5,2.6-3.4,3.8-5.9,3.8c-1.2,0-2.2-0.5-3-1.5c-0.9-1-1.2-2-1.2-3.2c0-3.2,2.2-7.3,6.4-12.3
			s8-7.5,11.1-7.5c0.4,0,1,0.2,1.8,0.7s1.4,0.7,1.9,0.7c0.2-0.2,0.4-0.4,0.5-0.9c0.5-0.4,1.3-0.5,2.6-0.5
			C121.6,54,122.6,54,123.2,54.2z M116,57.1c-0.2-0.5-0.5-0.9-1.2-0.9c-0.6,0-1.2,0.3-1.9,0.9v-0.1c-2.1,1.7-4,4-6,6.8
			c-2.2,3.3-3.3,6-3.3,8.2c0,0.9,0.4,1.3,1.1,1.3c1,0,3-2.4,6.1-7.1C113.6,62,115.4,58.9,116,57.1z"/>
		<path fill="#FFFFFF" d="M157,36.6c-1.1,2.7-2.8,6.8-5.3,12c-1.1,2.4-2.3,4.8-3.6,7.5c-1.4,2.9-2.7,5.2-4,7.1
			c-2.5,3.8-4.2,6.8-5.1,9.2l0.5,0.4c1.7-0.5,3.2-1.8,4.3-3.6c1.2-1.9,2.1-3,2.6-3.3h0.2c0.2,0.2,0.2,0.5,0.2,0.7
			c0,1.7-1.5,4.1-4.4,7.1c-3,3-5.3,4.5-7.1,4.5c-1.3,0-2.3-0.3-2.8-1c-0.2-0.2-0.5-1.1-1.1-2.8c-1.5,2.6-3.4,3.8-5.9,3.8
			c-1.2,0-2.2-0.5-3-1.5c-0.9-1-1.2-2-1.2-3.2c0-3.6,3-8.5,8.9-14.8c3.2-3.3,6.1-5,8.7-5c0.4,0,1,0.2,1.8,0.7
			c0.8,0.5,1.4,0.7,1.9,0.7c0.2-0.1,0.3-0.4,0.5-0.9c0.2-0.7,0.9-2.6,2.3-5.7c2.3-5.7,4.3-10.1,6-13.3l3.6-0.2
			C155.9,35.4,156.6,35.8,157,36.6z M141.5,57.1c-0.2-0.5-0.5-0.9-1.2-0.9s-1.2,0.3-1.9,0.9v-0.1c-2.1,1.7-4,4-6,6.8
			c-2.2,3.3-3.3,6-3.3,8.2c0,0.9,0.4,1.3,1.1,1.3c1,0,3-2.4,6.1-7.1C139.1,62,140.8,58.9,141.5,57.1z"/>
		<path fill="#FFFFFF" d="M173.9,54.2c-0.6,2.5-2.2,5.5-4.7,9.3c-2.6,4.1-4.3,7.1-5,9.1l0.5,0.4c1.7-0.5,3.2-1.8,4.5-3.8
			c1.3-1.9,2.1-3,2.4-3.1h0.2c0.2,0.2,0.2,0.5,0.2,0.7c0,1.7-1.5,4.1-4.4,7.1s-5.3,4.5-7.1,4.5c-1.3,0-2.3-0.3-2.8-1
			c-0.2-0.2-0.5-1.1-1.1-2.8c-1.5,2.6-3.4,3.8-5.9,3.8c-1.2,0-2.2-0.5-3-1.5c-0.9-1-1.2-2-1.2-3.2c0-3.2,2.2-7.3,6.4-12.3
			s8-7.5,11.1-7.5c0.4,0,1,0.2,1.8,0.7s1.4,0.7,1.9,0.7c0.2-0.2,0.4-0.4,0.5-0.9c0.5-0.4,1.3-0.5,2.6-0.5
			C172.2,54,173.2,54,173.9,54.2z M166.7,57.1c-0.2-0.5-0.5-0.9-1.2-0.9s-1.2,0.3-1.9,0.9v-0.1c-2.1,1.7-4,4-6,6.8
			c-2.2,3.3-3.3,6-3.3,8.2c0,0.9,0.4,1.3,1.1,1.3c1,0,3-2.4,6.1-7.1C164.2,62,166,58.9,166.7,57.1z"/>
		<path fill="#FFFFFF" d="M202.6,58.5c0,3-1.6,5.5-4.7,7.8c-2.5,1.8-5.4,3-8.8,3.7c-0.6,1.6-0.9,2.9-0.9,3.7c0,1,0.4,1.6,1.2,1.6
			c1.8,0,3.6-0.8,5.4-2.3c0.8-0.7,2.2-2.1,4-4.3c1.3-1.6,2.3-2.3,2.8-2.3c0.2,0,0.2,0.1,0.2,0.3c0,0.5-1.3,2.3-3.9,5.5
			c-3.6,4.5-7.3,6.8-11,6.8c-3.6,0-5.4-1.7-5.4-5c0-4.1,1.8-8.4,5.4-12.8c3.8-4.7,7.7-7.1,11.6-7.1C201.3,54,202.6,55.5,202.6,58.5z
			 M199.9,57.9c0-0.6-0.1-1.2-0.3-1.6c-0.2-0.1-0.4-0.2-0.5-0.2c-1.4,0-3.2,1.7-5.4,5.1c-1.6,2.6-3,5-4,7.2c2.4-0.6,4.6-1.9,6.8-4
			C198.7,62.4,199.9,60.2,199.9,57.9z"/>
		<path fill="#FFFFFF" d="M219.3,67c0,3-1.3,5.8-4,8.4c-2.6,2.6-5.4,3.9-8.5,3.9c-1.8,0-3.4-0.5-4.8-1.3c-1.6-1-2.4-2.4-2.4-4
			c0-1,0.3-1.9,1-2.6c0.6-0.7,1.5-1,2.5-1c1.9,0,2.9,1,2.9,3c0,0.7-0.2,1.3-0.7,1.9c-0.5,0.5-1.1,0.9-1.7,0.9c-0.4,0-0.8,0-1.1,0
			c0.8,0.8,1.6,1.2,2.6,1.2c2.6,0,4.5-2.1,5.7-6.4c0.9-3,1.3-6.2,1.3-9.6v-2c-0.4,0.3-1.9,1.6-4.4,3.9c-2.5,2.3-3.8,3.5-4,3.5
			c-0.4,0-0.6-0.2-0.6-0.6c0-0.3,1.1-1.5,3.2-3.4c1.4-1.2,2.8-2.6,4.3-3.9c1.6-1.6,2.8-3,3.6-4.3c0.6-1.1,1.2-1.6,1.6-1.6
			c0.6,0,0.9,0.3,0.9,0.9c0,0.2-0.4,0.6-1,1.5c-0.7,0.9-1,1.6-1,2c0,0.3,0.8,1.7,2.3,4.1C218.5,63.4,219.3,65.4,219.3,67z"/>
		<path fill="#FFFFFF" d="M142.6,84l-5,9.6h4.7l-0.5,1.7h-5.5l-10.6,20c-0.8,1.5-1.1,3-1.1,4.8l0.7,1.6c0.2,0.1,0.3,0.1,0.3,0.1
			c0.9,0,2.2-1,3.9-3c1.7-2,2.8-3,3.3-3c0.2,0,0.3,0.1,0.3,0.3c0,0.5-0.9,1.9-2.8,4c-3.7,4.4-6.4,6.6-8.2,6.6
			c-1.1,0-1.9-0.4-2.6-1.2c-0.7-0.8-1-1.7-1-2.8c0-3.5,1.1-7.8,3.3-12.7c0.5-1.2,2.6-5,6.3-11.8l7.6-14L142.6,84z"/>
		<path fill="#FFFFFF" d="M159.1,101.9c-0.6,2.5-2.2,5.5-4.7,9.3c-2.6,4.1-4.3,7.1-5,9.1l0.5,0.4c1.7-0.5,3.2-1.8,4.5-3.8
			c1.3-1.9,2.1-3,2.4-3.1h0.2c0.2,0.2,0.2,0.5,0.2,0.7c0,1.7-1.5,4.1-4.4,7.1c-3,3-5.3,4.5-7.1,4.5c-1.3,0-2.3-0.3-2.8-1
			c-0.2-0.2-0.5-1.1-1.1-2.8c-1.5,2.6-3.4,3.8-5.9,3.8c-1.2,0-2.2-0.5-3-1.5c-0.9-1-1.2-2-1.2-3.2c0-3.2,2.2-7.3,6.4-12.3
			c4.3-5,8-7.5,11.1-7.5c0.4,0,1,0.2,1.8,0.7c0.8,0.5,1.4,0.7,1.9,0.7c0.2-0.2,0.4-0.4,0.5-0.9c0.5-0.4,1.3-0.5,2.6-0.5
			C157.5,101.7,158.5,101.8,159.1,101.9z M151.9,104.9c-0.2-0.5-0.5-0.9-1.2-0.9c-0.6,0-1.2,0.3-1.9,0.9v-0.1c-2.1,1.7-4,4-6,6.8
			c-2.2,3.3-3.3,6-3.3,8.2c0,0.9,0.4,1.3,1.1,1.3c1,0,3-2.4,6.1-7.1C149.5,109.7,151.2,106.7,151.9,104.9z"/>
		<path fill="#FFFFFF" d="M185.6,117.5c-0.2,0.9-1,2.3-2.6,4c-1.6,1.8-2.9,2.9-3.8,3.4c-1.3,0.8-3.1,1.2-5.3,1.2
			c-2.9,0-4.3-1.3-4.3-4c0-0.8,0.9-3,2.8-6.7c1.9-3.6,2.8-6.5,2.8-8.7v-0.9l-0.1,0.1c-0.1-0.7-0.4-1.1-0.9-1.1l-0.2-0.2
			c-0.6,0.1-1.7,0.9-3.2,2.4c-1.2,1.2-2.2,2.3-2.7,3.3c-1.2,1.7-2.3,4.3-3.6,7.8c-1.5,4-2.5,6.7-3.1,7.9l-7.8,0.5l6.2-13.3
			c0.3-0.6,0.9-1.6,1.6-2.8c0.7-1.2,1-2.2,1-2.7c0-0.7-0.2-1-0.5-1c-0.2,0-0.8,0.6-1.9,1.9c-1.1,1.2-1.9,1.9-2.1,1.9
			c-0.1-0.1-0.2-0.1-0.2-0.2l-0.1-0.2c0.1-0.8,1.2-2.5,3.6-5c2.3-2.5,3.8-3.7,4.6-3.7c1.9,0,2.9,1.6,2.9,4.9c0,0.4,0.1,0.5,0.3,0.5
			c-0.1,0,0.9-0.7,3.1-2.1s3.9-2.1,5.2-2.1c2.8,0,4.2,1.4,4.2,4.3c0,1.8-0.9,4.5-2.6,8.2c-1.8,3.6-2.6,5.6-2.6,5.9
			c0,0.2,0.2,0.5,0.8,0.9c2.2,0,4.3-0.8,6.1-2.3C183.4,119.2,184.4,118.4,185.6,117.5L185.6,117.5z"/>
		<path fill="#FFFFFF" d="M214.2,105.9c0,1.2-0.5,2.5-1.3,3.7c-1,1.5-2,2.2-3.2,2.2c-0.2,0-0.6-0.2-1.2-0.6
			c-0.2-0.5-0.4-0.9-0.4-1.1c0-1,0.5-1.9,1.4-2.8c0.9-0.9,1.9-1.2,2.8-1v-0.5c0-0.6-0.6-0.9-1.9-0.9H210c-0.6,0-2,1-4.3,3
			c-2.3,2-3.7,3.4-4.2,4.2c-1.2,1.9-2.6,4.3-4,7.1c-1.1,2.5-2.2,5-3.3,7.5l-6.4-0.2l6.2-13.3c0.3-0.6,0.9-1.6,1.6-2.8
			c0.7-1.2,1-2.2,1-2.7c0-0.7-0.2-1-0.5-1c-0.2,0-0.8,0.6-1.9,1.9c-1.1,1.2-1.9,1.9-2.1,1.9c-0.1-0.1-0.2-0.1-0.2-0.2l-0.1-0.2
			c0.1-0.8,1.2-2.4,3.6-4.9c2.3-2.5,3.9-3.8,4.6-3.8c1.9,0,2.9,1.6,2.9,4.9c0,0.4,0.1,0.5,0.3,0.5c4.3-2.9,7-4.3,8.1-4.3
			c0.8,0,1.5,0.4,2.1,1.1C213.9,104.4,214.2,105.1,214.2,105.9z"/>
		<path fill="#FFFFFF" d="M230.2,106.2c0,3-1.6,5.5-4.7,7.8c-2.5,1.8-5.4,3-8.8,3.7c-0.6,1.6-0.9,2.9-0.9,3.7c0,1,0.4,1.6,1.2,1.6
			c1.8,0,3.6-0.8,5.4-2.3c0.8-0.7,2.2-2.1,4-4.3c1.3-1.6,2.3-2.3,2.8-2.3c0.2,0,0.2,0.1,0.2,0.3c0,0.5-1.3,2.3-3.9,5.5
			c-3.6,4.5-7.3,6.8-11,6.8c-3.6,0-5.4-1.7-5.4-5c0-4.1,1.8-8.4,5.4-12.8c3.8-4.7,7.7-7.1,11.6-7.1
			C228.9,101.8,230.2,103.3,230.2,106.2z M227.5,105.7c0-0.6-0.1-1.2-0.3-1.6c-0.2-0.1-0.4-0.2-0.5-0.2c-1.4,0-3.2,1.7-5.4,5.1
			c-1.6,2.6-3,5-4,7.2c2.4-0.6,4.6-1.9,6.8-4C226.4,110.2,227.5,107.9,227.5,105.7z"/>
		<path fill="#FFFFFF" d="M264.3,80.4c0,3.6-3.4,9.1-10.3,16.6c-5.5,6.1-10.6,10.9-15.1,14.2l-0.3,0.5c2.2-0.1,4.1-0.9,5.8-2.3
			c0.6-0.5,1.5-1.2,2.6-2.3l0.1,0.2c-0.2,0.8-1,1.9-2.3,3.6c-2.3,3-5.1,4.6-8.4,4.7l-11.3,22.1l-6.2,0.8l8.9-17.6
			c0.8-1.6,2.3-4.3,4.3-8.3l0.8-2.1c0.5-1.4,1.2-3,2.1-4.8c2.7-5.6,6.4-11.2,10.9-16.8c6-7.3,11-10.9,15.1-10.9
			C263.3,78.3,264.3,79,264.3,80.4z M262.4,81.7c-0.5-0.9-0.9-1.2-1.1-1.2c-2.9,0-7.1,4-12.5,12c-4.7,6.8-7.8,12.3-9.2,16.5
			c3.5-2.4,7.9-6.5,13.3-12.5C258.8,89.8,261.9,84.9,262.4,81.7z"/>
		<path fill="#FFFFFF" d="M268.5,105.9c0,1.2-0.5,2.5-1.3,3.7c-1,1.5-2,2.2-3.2,2.2c-0.2,0-0.6-0.2-1.2-0.6
			c-0.2-0.5-0.4-0.9-0.4-1.1c0-1,0.5-1.9,1.4-2.8c0.9-0.9,1.9-1.2,2.8-1v-0.5c0-0.6-0.6-0.9-1.9-0.9h-0.4c-0.6,0-2,1-4.3,3
			c-2.3,2-3.7,3.4-4.2,4.2c-1.2,1.9-2.6,4.3-4,7.1c-1.1,2.5-2.2,5-3.3,7.5l-6.4-0.2l6.2-13.3c0.3-0.6,0.9-1.6,1.6-2.8
			c0.7-1.2,1-2.2,1-2.7c0-0.7-0.2-1-0.5-1c-0.2,0-0.8,0.6-1.9,1.9c-1.1,1.2-1.9,1.9-2.1,1.9c-0.1-0.1-0.2-0.1-0.2-0.2l0-0.2
			c0.1-0.8,1.2-2.4,3.6-4.9c2.3-2.5,3.9-3.8,4.6-3.8c1.9,0,2.9,1.6,2.9,4.9c0,0.4,0.1,0.5,0.3,0.5c4.3-2.9,7-4.3,8.1-4.3
			c0.8,0,1.5,0.4,2.1,1.1C268.1,104.4,268.5,105.1,268.5,105.9z"/>
		<path fill="#FFFFFF" d="M284.5,106.2c0,3-1.6,5.5-4.7,7.8c-2.5,1.8-5.4,3-8.8,3.7c-0.6,1.6-0.9,2.9-0.9,3.7c0,1,0.4,1.6,1.2,1.6
			c1.8,0,3.6-0.8,5.4-2.3c0.8-0.7,2.2-2.1,4-4.3c1.3-1.6,2.3-2.3,2.8-2.3c0.2,0,0.2,0.1,0.2,0.3c0,0.5-1.3,2.3-3.9,5.5
			c-3.6,4.5-7.3,6.8-11,6.8c-3.6,0-5.4-1.7-5.4-5c0-4.1,1.8-8.4,5.4-12.8c3.8-4.7,7.7-7.1,11.6-7.1
			C283.2,101.8,284.5,103.3,284.5,106.2z M281.8,105.7c0-0.6-0.1-1.2-0.3-1.6c-0.2-0.1-0.4-0.2-0.5-0.2c-1.4,0-3.2,1.7-5.4,5.1
			c-1.6,2.6-3,5-4,7.2c2.4-0.6,4.6-1.9,6.8-4C280.7,110.2,281.8,107.9,281.8,105.7z"/>
		<path fill="#FFFFFF" d="M301.2,114.8c0,3-1.3,5.8-4,8.4c-2.6,2.6-5.4,3.9-8.5,3.9c-1.8,0-3.4-0.5-4.8-1.3c-1.6-1-2.4-2.4-2.4-4
			c0-1,0.3-1.9,1-2.6c0.6-0.7,1.5-1,2.5-1c1.9,0,2.9,1,2.9,3c0,0.7-0.2,1.3-0.7,1.9s-1.1,0.9-1.7,0.9c-0.4,0-0.8,0-1.1,0
			c0.8,0.8,1.6,1.2,2.6,1.2c2.6,0,4.5-2.1,5.7-6.4c0.9-3,1.3-6.2,1.3-9.6v-2c-0.4,0.3-1.9,1.6-4.4,3.9c-2.5,2.3-3.8,3.5-4,3.5
			c-0.4,0-0.6-0.2-0.6-0.6c0-0.3,1.1-1.5,3.2-3.4c1.4-1.2,2.8-2.6,4.3-3.9c1.6-1.6,2.8-3,3.6-4.3c0.6-1.1,1.2-1.6,1.6-1.6
			c0.6,0,0.9,0.3,0.9,0.9c0,0.2-0.4,0.6-1,1.5c-0.7,0.9-1,1.6-1,2c0,0.3,0.8,1.7,2.3,4.1C300.4,111.2,301.2,113.2,301.2,114.8z"/>
		<path fill="#FFFFFF" d="M321.7,105.3c0,1.2-0.5,2.5-1.3,3.7c-1,1.5-2,2.2-3.2,2.2c-0.2,0-0.6-0.2-1.2-0.6
			c-0.2-0.5-0.3-0.9-0.3-1.1c0-1,0.5-1.9,1.4-2.8c0.9-0.9,1.9-1.2,2.8-1c0-0.7-0.5-1.1-1.7-1.1c-2,0-4.4,2.3-7.2,6.9
			c-2.6,4.3-4,7.7-4,9.9c0,1,0.4,1.6,1.2,1.6c1.8,0,3.6-0.8,5.4-2.3c0.8-0.7,2.2-2.1,4-4.3c1.3-1.6,2.3-2.3,2.8-2.3
			c0.2,0,0.2,0.1,0.2,0.3c0,0.5-1.3,2.3-3.9,5.5c-3.6,4.5-7.3,6.8-11,6.8c-3.6,0-5.4-1.7-5.4-5c0-1.2,0.3-2.8,1-4.8
			c0.6-1.9,1.3-3.4,1.9-4.5c4.5-7,9.3-10.6,14.4-10.6c1,0,1.9,0.3,2.6,1C321.3,103.5,321.7,104.3,321.7,105.3z"/>
		<path fill="#FFFFFF" d="M346.1,101.9c-0.6,2.5-2.2,5.5-4.7,9.3c-2.6,4.1-4.3,7.1-5,9.1l0.5,0.4c1.7-0.5,3.2-1.8,4.5-3.8
			c1.3-1.9,2.1-3,2.4-3.1h0.2c0.2,0.2,0.2,0.5,0.2,0.7c0,1.7-1.5,4.1-4.4,7.1c-3,3-5.3,4.5-7.1,4.5c-1.3,0-2.3-0.3-2.8-1
			c-0.2-0.2-0.5-1.1-1.1-2.8c-1.5,2.6-3.4,3.8-5.9,3.8c-1.2,0-2.2-0.5-3-1.5c-0.9-1-1.2-2-1.2-3.2c0-3.2,2.2-7.3,6.4-12.3
			c4.3-5,8-7.5,11.1-7.5c0.4,0,1,0.2,1.8,0.7c0.8,0.5,1.4,0.7,1.9,0.7c0.2-0.2,0.4-0.4,0.5-0.9c0.5-0.4,1.3-0.5,2.6-0.5
			C344.5,101.7,345.4,101.8,346.1,101.9z M338.9,104.9c-0.2-0.5-0.5-0.9-1.2-0.9s-1.2,0.3-1.9,0.9v-0.1c-2.1,1.7-4,4-6,6.8
			c-2.2,3.3-3.3,6-3.3,8.2c0,0.9,0.4,1.3,1.1,1.3c1,0,3-2.4,6.1-7.1C336.5,109.7,338.2,106.7,338.9,104.9z"/>
		<path fill="#FFFFFF" d="M372.6,117.5c-0.2,0.9-1,2.3-2.6,4c-1.6,1.8-2.9,2.9-3.8,3.4c-1.3,0.8-3.1,1.2-5.3,1.2
			c-2.9,0-4.3-1.3-4.3-4c0-0.8,0.9-3,2.8-6.7c1.9-3.6,2.8-6.5,2.8-8.7v-0.9l-0.1,0.1c-0.1-0.7-0.4-1.1-0.9-1.1l-0.2-0.2
			c-0.6,0.1-1.7,0.9-3.2,2.4c-1.2,1.2-2.2,2.3-2.7,3.3c-1.2,1.7-2.3,4.3-3.6,7.8c-1.5,4-2.5,6.7-3.1,7.9l-7.8,0.5l6.2-13.3
			c0.3-0.6,0.9-1.6,1.6-2.8c0.7-1.2,1-2.2,1-2.7c0-0.7-0.2-1-0.5-1c-0.2,0-0.8,0.6-1.9,1.9c-1.1,1.2-1.9,1.9-2.1,1.9
			c-0.1-0.1-0.2-0.1-0.2-0.2l-0.1-0.2c0.1-0.8,1.2-2.5,3.6-5s3.8-3.7,4.6-3.7c1.9,0,2.9,1.6,2.9,4.9c0,0.4,0.1,0.5,0.3,0.5
			c-0.1,0,0.9-0.7,3.1-2.1s3.9-2.1,5.2-2.1c2.8,0,4.2,1.4,4.2,4.3c0,1.8-0.9,4.5-2.6,8.2c-1.8,3.6-2.6,5.6-2.6,5.9
			c0,0.2,0.2,0.5,0.8,0.9c2.2,0,4.3-0.8,6.1-2.3C370.4,119.2,371.3,118.4,372.6,117.5L372.6,117.5z"/>
		<path fill="#FFFFFF" d="M395.9,84l-5,9.6h4.7l-0.4,1.8h-5.5l-10.6,20c-0.8,1.5-1.1,3-1.1,4.8l0.7,1.6c0.2,0.1,0.3,0.1,0.3,0.1
			c0.9,0,2.2-1,3.9-3c1.7-2,2.8-3,3.3-3c0.2,0,0.3,0.1,0.3,0.3c0,0.5-0.9,1.9-2.8,4c-3.7,4.4-6.4,6.6-8.2,6.6
			c-1.1,0-1.9-0.4-2.6-1.2c-0.7-0.8-1-1.7-1-2.8c0-3.5,1.1-7.8,3.3-12.7c0.5-1.2,2.6-5,6.3-11.8l7.6-14L395.9,84z"/>
		<path fill="#FFFFFF" d="M406.5,106.2c0,3-1.6,5.5-4.7,7.8c-2.5,1.8-5.4,3-8.8,3.7c-0.6,1.6-0.9,2.9-0.9,3.7c0,1,0.4,1.6,1.2,1.6
			c1.8,0,3.6-0.8,5.4-2.3c0.8-0.7,2.2-2.1,4-4.3c1.3-1.6,2.3-2.3,2.8-2.3c0.2,0,0.2,0.1,0.2,0.3c0,0.5-1.3,2.3-3.9,5.5
			c-3.6,4.5-7.3,6.8-11,6.8c-3.6,0-5.4-1.7-5.4-5c0-4.1,1.8-8.4,5.4-12.8c3.8-4.7,7.7-7.1,11.6-7.1
			C405.3,101.8,406.5,103.3,406.5,106.2z M403.9,105.7c0-0.6-0.1-1.2-0.3-1.6c-0.2-0.1-0.4-0.2-0.5-0.2c-1.4,0-3.2,1.7-5.4,5.1
			c-1.6,2.6-3,5-4,7.2c2.4-0.6,4.6-1.9,6.8-4C402.7,110.2,403.9,107.9,403.9,105.7z"/>
	</g>
</g>
</svg>
