<?xml version="1.0" encoding="utf-8"?>
<!-- Generator: Adobe Illustrator 18.1.1, SVG Export Plug-In . SVG Version: 6.00 Build 0)  -->
<svg version="1.1" id="Layer_1" xmlns="http://www.w3.org/2000/svg" xmlns:xlink="http://www.w3.org/1999/xlink" x="0px" y="0px"
	 viewBox="0 0 221.6 510" enable-background="new 0 0 221.6 510" xml:space="preserve">
<g>
	<polygon fill="#96282D" points="80.2,266.2 75.9,496.3 92,496.3 118.3,308.1 137,493.8 151.9,477 158.7,265.1 	"/>
	<path fill="#C0272D" d="M50.2,119.1c0,0,52.9-21.7,135.3,0c0,0-29.6,13.6-24.9,182.3c-0.6-2.5-83.2,1.7-83.2,0
		C76.1,147.7,50.2,119.1,50.2,119.1z"/>
	<path fill="#F3F2F9" d="M146.9,253.2H91.6c-0.8,0-1.4-0.6-1.4-1.4v-19.4h56.7c0.8,0,1.5,0.7,1.5,1.5v17.8
		C148.4,252.5,147.7,253.2,146.9,253.2z"/>
	<path fill="#F3F2F9" d="M146.8,222.5H91.9c-0.9,0-1.6-0.7-1.6-1.6v-17.5c0-0.9,0.7-1.6,1.6-1.6h54.9c0.9,0,1.6,0.7,1.6,1.6v17.5
		C148.4,221.7,147.7,222.5,146.8,222.5z"/>
	<path fill="#392512" d="M90,36.3c0,0-15.6-4.2-6.4-15c0,0,0.8-20.8,15-12.5c0,0,10-10.8,24.1,0s20.8,0.8,20.8,18.3
		s5.8,11.6,10,22.4s4.2,15-0.8,24.1s8.5,24.6-2.1,28.3C119.3,112.8,90,36.3,90,36.3z"/>
	<path fill="#D89F79" d="M209.1,313.2c-1,31.2-14.4,29.4-18.7,27.2c-4.4-2.2,1.9-18.2,1.9-18.2s-2.1,6.9-5.4,5.1
		c-3.3-1.7-1.3-9.9-1.3-9.9s2.2-13.8,11.7-12.9C206.8,305.5,209.1,313.2,209.1,313.2z"/>
	<path fill="#D89F79" d="M87.7,38L90,99.5h9.5V120c0,0,10.7,20.9,36.7,0V77.4c0,0,7.9-1.6,7.9-10.7S135,62,135,62V37.2L87.7,38z"/>
	<path fill="#392512" d="M135,62l-1.2,3.4h-3.3l-5.5-30.7l15.4,2.5v23.9C140.5,61.1,136.3,61.3,135,62z"/>
	<path fill="#392512" d="M140.5,37.2c0,0,2.9-20.8-17-19.2S90,36.3,90,36.3L140.5,37.2z"/>
	<path fill="#392512" d="M116,31.3c0,0,5,19.1,18.3,20.8C134.3,52.1,140.9,33.8,116,31.3z"/>
	<path fill="#392512" d="M95.6,32.5c0,0,2.3,4.1-6.8,19.1L90,99h10.2c0,0-10.8,8.1-19.1,5.6s-7.5-12.6-4.2-18.4
		c3.3-5.8-4.2-20.8,1.7-29.1c5.8-8.3-0.8-25.8,11.6-30.8S95.6,32.5,95.6,32.5z"/>
	<g>
		<path fill="#F7D905" d="M42.7,209.2c14.1,39.4,85.7,23.2,85.7,23.2c1.3-6,2.3-12.5,2.9-19.1C120.7,214.8,79.8,219.4,42.7,209.2z"
			/>
		<path fill="#F7D905" d="M126.9,174.8c-6.3-16.3-19.8-28.4-45-28.8c-23.9-0.4-34.4,11.3-38.9,23.7
			C52.5,172.2,91.1,181.3,126.9,174.8z"/>
		<path fill="#F7D905" d="M131.6,198.4c-0.1-2.4-0.3-4.8-0.6-7.2c-12,1.4-60.8,5.9-90.9-6.5c-0.3,4-0.1,7.4,0,9.7
			C54.9,196.7,102.1,203.5,131.6,198.4z"/>
		<path fill="#F2F2F2" d="M130.9,191.2c-0.1-0.9-0.3-1.9-0.4-2.8c-8.9,1.4-56.6,8.1-90.3-6.1c-0.1,0.8-0.1,1.6-0.2,2.3
			C70.1,197.2,118.9,192.6,130.9,191.2z"/>
		<path fill="#F2F2F2" d="M127.7,176.9c-0.2-0.7-0.5-1.4-0.8-2c-35.8,6.5-74.4-2.6-83.9-5.2c-0.4,1-0.7,2.1-1,3.1
			C48.2,174.1,90.9,182.8,127.7,176.9z"/>
		<path fill="#284B23" d="M42,172.8c-0.9,3.3-1.5,6.5-1.8,9.6c33.8,14.2,81.4,7.5,90.3,6.1c-0.6-4-1.6-7.9-2.9-11.6
			C90.9,182.8,48.2,174.1,42,172.8z"/>
		<path fill="#FFFFFF" d="M42,207c0.2,0.8,0.5,1.4,0.8,2.2c37.1,10.2,78,5.6,88.6,4.1c0-0.6,0.1-1.1,0.1-1.7
			C115,213.5,74.4,216.8,42,207z"/>
		<path fill="#FFFFFF" d="M131.6,199.6c0-0.4,0-0.8-0.1-1.2c-29.5,5.1-76.7-1.7-91.5-4c0,0.5,0.1,1,0.1,1.4
			C52.5,197.9,94.4,204.4,131.6,199.6z"/>
		<path fill="#284B23" d="M131.6,199.6c-37.2,4.8-79.1-1.7-91.5-3.9c0.1,1.1,0.2,1.8,0.2,1.8c0.2,3.5,0.8,6.6,1.6,9.5
			c32.4,9.7,73.1,6.5,89.5,4.6C131.7,207.6,131.8,203.6,131.6,199.6z"/>
		<path fill="#333333" d="M130.1,178.7c0,0-7.2,8.5-64.3,1.6c0,0-7.8-2.8-5.8,6.8c0,0-5.5,13.4-1.2,21.5c0,0,32.3,18.4,72.1,13.3
			C130.8,221.9,136.1,199.7,130.1,178.7z"/>
		<polygon fill="#808080" points="95.2,183.7 97.4,221.4 108,222.4 104.6,183.4 		"/>
	</g>
	<path fill="#D89F79" d="M69.5,244c31.1-2.3,28.8-15.5,26.5-19.8c-2.4-4.3-18.1,2.7-18.1,2.7s6.8-2.3,4.9-5.6
		c-1.9-3.2-10-0.9-10-0.9s-13.7,2.7-12.4,12.2C61.7,242.1,69.5,244,69.5,244z"/>
	<path fill="#C0272D" d="M50.2,119.1c-5.7,0.7-55.5,41.8-49.7,87.5S67,247.4,67,247.4l7.5-27.4c0,0-35.7-3.3-38.2-19.9
		s16.6-48.2,29.1-52.4C65.3,147.7,58.2,118.1,50.2,119.1z"/>
	<path fill="#C0272D" d="M185.5,119.1c0,0,49.3,90.9,32.7,193.1c0,0-24.9,11.6-39.1-7.5c0,0,16.6-110.5-19.9-159.6
		C159.2,145.2,156.1,113.9,185.5,119.1z"/>
	<path fill="#F8F0F6" d="M37.5,127.7l3.7,2.8c2.4,1.8,2.6,5.3,0.4,7.3l-6.9,6.3c-1.7,1.6-4.3,1.7-6.1,0.3l-3.9-3
		C24.6,141.4,33.7,130.2,37.5,127.7z"/>
	<path fill="#F8F0F6" d="M16.7,151.8l7.3,4c2.6,1.4,3.4,4.7,1.8,7.1l-2.5,3.9c-1.6,2.4-4.8,3-7.2,1.4l-6.5-5.6L16.7,151.8z"/>
	<path fill="#F3F2F9" d="M94.6,477.6L92.7,510H47.8c0,0-5-16.2,6.2-16.2s18.7,0.6,18.7,0.6l2.5-23.1
		C75.3,471.4,86.5,468.2,94.6,477.6z"/>
	<path fill="#F3F2F9" d="M134,477.6l1.9,32.4h44.9c0,0,5-16.2-6.2-16.2c-11.2,0-18.7,0.6-18.7,0.6l-2.5-23.1
		C153.3,471.4,142.1,468.2,134,477.6z"/>
</g>
</svg>
