<?xml version="1.0" encoding="utf-8"?>
<!-- Generator: Adobe Illustrator 18.1.1, SVG Export Plug-In . SVG Version: 6.00 Build 0)  -->
<svg version="1.1" id="Layer_1" xmlns="http://www.w3.org/2000/svg" xmlns:xlink="http://www.w3.org/1999/xlink" x="0px" y="0px"
	 viewBox="0 0 444 521.5" enable-background="new 0 0 444 521.5" xml:space="preserve">
<g>
	<polygon fill="#EB452D" points="412.9,69.1 23.1,57.1 13.2,31.5 427,44.2 	"/>
	<polygon fill="#2E368E" points="424.2,48.8 15,36.2 4,10.5 439,23.9 	"/>
	<polygon fill="#EB452D" points="396.8,128 44.2,117.1 35.3,91.5 409.6,103 	"/>
	<rect x="62.2" y="47.8" fill="#EB452D" width="21.3" height="379.3"/>
	<rect x="349.9" y="46.6" fill="#EB452D" width="25.2" height="447.4"/>
	<polygon fill="#4D4E4E" points="96.9,448.5 49.5,448.5 55.5,420.5 90.9,420.5 	"/>
	<polygon fill="#4D4E4E" points="391.6,521.5 334.2,521.5 341.5,488.5 384.3,488.5 	"/>
	
		<rect x="82.7" y="119.4" transform="matrix(0.9995 3.077053e-02 -3.077053e-02 0.9995 3.8303 -6.5686)" fill="#C0272D" width="265.4" height="3.6"/>
	<polygon fill="#C0272D" points="396.7,128.5 373.6,127.8 373.7,124.2 398.3,125 	"/>
	<polygon fill="#C0272D" points="43.7,117.7 61.2,118.2 61.3,114.6 43,114.1 	"/>
	
		<rect x="84.5" y="59.4" transform="matrix(0.9995 3.077053e-02 -3.077053e-02 0.9995 1.9862 -6.6614)" fill="#C0272D" width="265.8" height="3.6"/>
	<polygon fill="#C0272D" points="412.7,69 375.5,67.9 375.7,64.3 415,65.5 	"/>
	<polygon fill="#C0272D" points="23.1,57 63,58.2 63.1,54.7 21.4,53.4 	"/>
	
		<rect x="208" y="46.2" transform="matrix(0.9995 3.077053e-02 -3.077053e-02 0.9995 2.6193 -6.6889)" fill="#EB452D" width="21.3" height="71.2"/>
	<rect x="62.5" y="42.5" opacity="0.2" fill="#FFFFFF" width="8.9" height="377.4"/>
	
		<rect x="208" y="59.2" transform="matrix(0.9995 3.077053e-02 -3.077053e-02 0.9995 2.5123 -6.4995)" opacity="0.2" fill="#FFFFFF" width="8.9" height="38.4"/>
	<rect x="349.9" y="41.8" opacity="0.2" fill="#FFFFFF" width="10.5" height="445.9"/>
	<polygon fill="#272361" points="424.5,48.7 15,36.1 12.5,31 427.2,43.7 	"/>
	<g>
		<path fill="#5B72B6" d="M137.4,42.4c-15.5-0.9-28.8,10.9-29.7,26.5s10.9,28.8,26.5,29.7c15.5,0.9,28.8-10.9,29.7-26.5
			S152.9,43.3,137.4,42.4z M134.4,93.9c-12.9-0.8-22.8-11.9-22.1-24.8c0.8-12.9,11.9-22.8,24.8-22.1c12.9,0.8,22.8,11.9,22.1,24.8
			C158.4,84.8,147.3,94.6,134.4,93.9z"/>
		<path fill="#EDD034" d="M172.3,70c-15.5-0.9-28.8,10.9-29.7,26.5s10.9,28.8,26.5,29.7s28.8-10.9,29.7-26.5S187.8,70.9,172.3,70z
			 M169.3,121.5c-12.9-0.8-22.8-11.9-22.1-24.8c0.8-12.9,11.9-22.8,24.8-22.1c12.9,0.8,22.8,11.9,22.1,24.8
			C193.4,112.4,182.3,122.3,169.3,121.5z"/>
		<path fill="#7AC370" d="M244.7,74.2c-15.5-0.9-28.8,10.9-29.7,26.5s10.9,28.8,26.5,29.7s28.8-10.9,29.7-26.5
			C272.1,88.4,260.2,75.1,244.7,74.2z M241.7,125.7c-12.9-0.8-22.8-11.9-22.1-24.8c0.8-12.9,11.9-22.8,24.8-22.1
			c12.9,0.8,22.8,11.9,22.1,24.8C265.7,116.6,254.6,126.5,241.7,125.7z"/>
		<path fill="#1C1633" d="M210.8,46.6c-15.5-0.9-28.8,10.9-29.7,26.5s10.9,28.8,26.5,29.7c15.5,0.9,28.8-10.9,29.7-26.5
			S226.3,47.5,210.8,46.6z M207.8,98.2c-12.9-0.8-22.8-11.9-22.1-24.8c0.8-12.9,11.9-22.8,24.8-22.1c12.9,0.8,22.8,11.9,22.1,24.8
			C231.8,89,220.7,98.9,207.8,98.2z"/>
		<path fill="#EC1D33" d="M281.6,50.8c-15.5-0.9-28.8,10.9-29.7,26.5s10.9,28.8,26.5,29.7S307.1,96,308,80.5
			C308.9,65,297.1,51.7,281.6,50.8z M278.6,102.3c-12.9-0.8-22.8-11.9-22.1-24.8c0.8-12.9,11.9-22.8,24.8-22.1s22.8,11.9,22.1,24.8
			C302.6,93.2,291.5,103,278.6,102.3z"/>
	</g>
</g>
</svg>
