<?xml version="1.0" encoding="utf-8"?>
<!-- Generator: Adobe Illustrator 18.1.1, SVG Export Plug-In . SVG Version: 6.00 Build 0)  -->
<svg version="1.1" id="Layer_1" xmlns="http://www.w3.org/2000/svg" xmlns:xlink="http://www.w3.org/1999/xlink" x="0px" y="0px"
	 viewBox="0 0 193.9 513.2" enable-background="new 0 0 193.9 513.2" xml:space="preserve">
<g>
	<path fill="#9A3902" d="M35.7,175.1l16.1,277.5c0,0,12.7,14.4,33.8,0l14.8-98.1l7.2,98.1c0,0,20.3,13.5,40.6-3.4l8.5-165.8V175.1
		l5.9,119.3l25.4-7.6L179.5,132c0,0-89.7-85.4-172.6,0v161.6H34L35.7,175.1z"/>
	<ellipse fill="#BCBEC0" cx="92.7" cy="90" rx="36.9" ry="32.1"/>
	<path fill="#AB5B2A" d="M190.4,294.4c11.3,42.6-7.4,45.4-14.2,44.1c-6.8-1.3-4.8-25.3-4.8-25.3s0,10.1-5.2,9.1
		c-5.2-1.1-5.8-12.9-5.8-12.9s-2.7-19.5,10.6-22C184.2,284.9,190.4,294.4,190.4,294.4z"/>
	<path fill="#AB5B2A" d="M10.5,294.4c-11.3,42.6,7.4,45.4,14.2,44.1c6.8-1.3,4.8-25.3,4.8-25.3s0,10.1,5.2,9.1s5.8-12.9,5.8-12.9
		s2.7-19.5-10.6-22S10.5,294.4,10.5,294.4z"/>
	<path fill="#231F20" d="M136.8,487.8h-19.1c0,0-7.4,24.1,17.3,25.5h32.2c0,0,7.1-15.2-12-16.3C155.2,497,138.6,494.1,136.8,487.8z"
		/>
	<path fill="#231F20" d="M57.8,487.8h19.1c0,0,7.4,24.1-17.3,25.5H27.4c0,0-7.1-15.2,12-16.3C39.4,497,56.1,494.1,57.8,487.8z"/>
	<path fill="#231F20" d="M107.6,452.6l9,37.5H137l11.3-40.9C148.2,449.2,133.9,460.8,107.6,452.6z"/>
	<path fill="#231F20" d="M76.9,487.8l8.9-36.6c0,0-17.4,13-34.1,1.5l4.5,39.8C56.3,492.4,74,500,76.9,487.8z"/>
	<rect x="96.9" y="119.3" fill="#58595B" width="4.5" height="195.3"/>
	
		<rect x="108.4" y="275.8" transform="matrix(0.9105 -0.4134 0.4134 0.9105 -102.9161 79.0146)" fill="#58595B" width="45.5" height="3"/>
	<rect x="164.9" y="255.2" fill="#58595B" width="19.5" height="25.7"/>
	<rect x="115" y="335.7" fill="#B54006" width="36" height="60.8"/>
	<rect x="117.5" y="184.4" fill="#B54006" width="21.1" height="21.1"/>
	<rect x="142.6" y="184.4" fill="#B54006" width="14.1" height="21.1"/>
	<rect x="43.6" y="144.9" fill="#B54006" width="12.1" height="33.3"/>
	<ellipse fill="#E6E7E8" cx="93.8" cy="51.2" rx="50.2" ry="51.2"/>
	<ellipse fill="#849BA0" cx="94.2" cy="49.4" rx="44.5" ry="35.6"/>
	<ellipse fill="#A8C3CA" cx="94.2" cy="48.7" rx="44.5" ry="30.8"/>
	<ellipse fill="#E6E7E8" cx="44.8" cy="49.5" rx="4.9" ry="12.5"/>
	<ellipse fill="#E6E7E8" cx="142.6" cy="49.6" rx="4.9" ry="12.5"/>
	
		<ellipse transform="matrix(0.9917 0.1289 -0.1289 0.9917 29.6491 -6.3423)" fill="#414042" cx="63.8" cy="225.8" rx="22.9" ry="17.7"/>
	<path fill="#58595B" d="M81.5,237.9c0,0,0.3-9.1-8.6-7c-8.9,2.1-2.1,12.1-2.1,12.1s16.4,72.3-27.3,65.8c0,0-8.8,8.8,0.8,14.3
		C44.3,323.2,98.6,327.3,81.5,237.9z"/>
	<circle fill="#231F20" cx="74.5" cy="97.2" r="12.1"/>
	<circle fill="#B2CFCA" cx="74.6" cy="97.1" r="7.2"/>
</g>
</svg>
