<?xml version="1.0" encoding="utf-8"?>
<!-- Generator: Adobe Illustrator 18.1.1, SVG Export Plug-In . SVG Version: 6.00 Build 0)  -->
<svg version="1.1" id="Layer_1" xmlns="http://www.w3.org/2000/svg" xmlns:xlink="http://www.w3.org/1999/xlink" x="0px" y="0px"
	 viewBox="315.6 31 167 503.8" enable-background="new 315.6 31 167 503.8" xml:space="preserve">
<g>
	<path fill="#E03137" d="M350.7,145.2c0,0-28.1,37.9-27.4,50.8l23.7,15.9l19-33.3L350.7,145.2z"/>
	<path fill="#E03137" d="M464.2,145.2c0,0,12.1,39.5,12.1,50.8l-23.7,15.9l-19-33.3L464.2,145.2z"/>
	<polygon fill="#875C3B" points="380.8,507.9 378.2,520.3 367.3,520.3 367.3,507.9 	"/>
	<path fill="#231F20" d="M367.3,520.3h10.9c0,0,4.2,13.7-9.9,14.5h-18.3c0,0-4-8.6,6.8-9.2C356.9,525.6,366.3,523.9,367.3,520.3z"/>
	<path fill="#231F20" d="M443,520.3h-10.9c0,0-4.2,13.7,9.9,14.5h18.3c0,0,4-8.6-6.8-9.2C453.5,525.6,444,523.9,443,520.3z"/>
	<polygon fill="#FFFFFF" points="370.4,287.5 366,507.9 380.8,507.9 410,322.5 430.4,507.9 444.7,507.9 450.4,286.3 	"/>
	<polygon fill="#875C3B" points="380.8,507.9 378.2,520.3 367.3,520.3 367.3,507.9 	"/>
	<path fill="#231F20" d="M367.3,520.3h10.9c0,0,4.2,13.7-9.9,14.5h-18.3c0,0-4-8.6,6.8-9.2C356.9,525.6,366.3,523.9,367.3,520.3z"/>
	<path fill="#231F20" d="M443,520.3h-10.9c0,0-4.2,13.7,9.9,14.5h18.3c0,0,4-8.6-6.8-9.2C453.5,525.6,444,523.9,443,520.3z"/>
	<polygon fill="#E03137" points="366,475.3 387.3,475.3 378.8,523.2 366,523.2 	"/>
	<polygon fill="#E03137" points="446.1,475.3 426.5,475.3 431.7,523.1 444.7,522.4 	"/>
	<path fill="#FFFFFF" d="M350.7,145.2c0,0,37.7-21,113.6,0l-13.9,141.1c0,0-29.2,3.6-80,1.2L350.7,145.2z"/>
	<path fill="#E0A984" d="M433.7,63.3v60.4h-9.2v19.9c0,0-10.3,20.3-35.6,0v-41.3c0,0-7.7-1.5-7.7-10.3s8.8-4.6,8.8-4.6V63.3H433.7z"
		/>
	<path fill="#231F20" d="M436.3,61.8c-0.2,1.4,0,2.9-0.5,4.3s-1.8,2.5-3.1,2.3c0.6-1.1-0.2-2.6-1.2-3.2c-1.1-0.6-2.3-0.6-3.5-0.6
		c-3.8,0.1-7.5,0.2-11.3,0.3c-3.2,0.1-6.4,0.2-9.5,0.8c-1.2,0.2-2.3,0.6-3.3,1.3c-1.6,1.1-3,3.1-4.9,3.1c0.4,2.2,0.5,4.6-0.5,6.6
		c-1,2-3.2,3.4-5.2,2.9c0.5,4.6,0.5,9.2,0,13.7c-1.5-0.1-3-0.2-4.6-0.4c1.1-1.2,0.8-3.3-0.3-4.5c-1.1-1.1-2.9-1.4-4.4-1
		c-1.1,0.3-2.3,1.1-2.5,2.4c-3.9-5.9-5.4-13.6-3.9-20.6s6.1-13.3,12.1-16.6c4.3-2.4,9.3-3.2,14.1-3.1
		C403.8,49.7,439,38.7,436.3,61.8z"/>
	<path fill="#560710" d="M463.4,61.3c0,0,2.1,10.5-27,11.4C436.4,72.7,460.2,61.1,463.4,61.3z"/>
	<path fill="#DF040B" d="M437.4,63.3c0,0,25.5-3,26-2c0.5,1-15.3,13.1-47.2,13.1C416.2,74.4,429.3,64.2,437.4,63.3z"/>
	<path fill="#30A27A" d="M379.8,87.1c0,0-17.2-32.8,20.5-46c0,0,30.8-10.4,41.2,21.7C441.4,62.8,395.7,85.3,379.8,87.1z"/>
	<path fill="#E0A984" d="M328.4,199.2c0,0-14.3,21.7-12.7,26.6c1.6,4.9,58.1,20.7,58.1,20.7l7.6-12.5l-47.2-15.3l7-10.9L328.4,199.2
		z"/>
	<path fill="#E0A984" d="M475.1,196.8c0,0,10.1,20.4,7,26.5c-3,6.1-86,12.6-86,12.6l-1-11.9l69-12.1l-3.4-5.4L475.1,196.8z"/>
	<path fill="#E0A984" d="M387.3,233.1c0,0,4-2,4,1.3c0,3.3-4.2,4.2-4.2,4.2L387.3,233.1z"/>
	<path fill="#1F140F" d="M383.4,37.1c-13.9,0-12.5,7.7-12.5,7.7v93.7l7.5,42.2v67.8l-3.9,3.3v1.4h8.9h8.6v-1.4l-3.6-3.3v-67.8
		l7.5-42.2V44.8C395.9,44.8,397.3,37.1,383.4,37.1z"/>
	<path fill="#E0A984" d="M378.4,237.1c0,0,15.5-0.7,16.3,3.3c0.8,4-0.4,14.7-24.2,6.9c0,0-4.1-3.9-4.2-11.4c0,0-0.3-8.3,12-3.8
		V237.1z"/>
	<path fill="#E0A984" d="M378.4,225.8c0,0-4,2-4-1.3c0-3.3,4.2-4.2,4.2-4.2L378.4,225.8z"/>
	<path fill="#E0A984" d="M388.3,225.6c0,0-15.5-0.7-16.3,3.3s0.4,14.7,24.2,6.9c0,0,4.1-3.9,4.2-11.4c0,0,0.3-8.3-12-3.8V225.6z"/>
	<polygon fill="#E03137" points="369.6,281.9 370.3,290.7 450.3,290.7 450.8,281.9 	"/>
	<polyline fill="#30A27A" points="435.6,159 428.3,166.8 435.6,170.4 	"/>
	<polyline fill="#30A27A" points="447.5,159.5 454.8,167.2 447.5,170.8 	"/>
	<g>
		<circle fill="#F1F0F0" cx="441.5" cy="165.1" r="8.1"/>
		<circle fill="none" stroke="#373736" stroke-width="0.5" stroke-miterlimit="10" cx="441.5" cy="165.1" r="8.2"/>
		<circle fill="#FFFFFF" cx="441.5" cy="165.1" r="6.9"/>
		<g>
			<path fill="#CF1610" d="M444,163.7l-0.4,0.4l0.1,0.5c0,0,0,0.1,0,0.1c0,0,0,0-0.1,0c0,0,0,0,0,0l-0.5-0.2l-0.5,0.2
				c0,0-0.1,0-0.1,0c0,0,0-0.1,0-0.1l0.1-0.5l-0.4-0.4c0,0,0-0.1,0-0.1c0,0,0-0.1,0.1-0.1l0.5-0.1l0.2-0.5c0,0,0.1-0.1,0.1-0.1
				c0,0,0.1,0,0.1,0.1l0.2,0.5l0.5,0.1c0,0,0.1,0,0.1,0.1C444,163.6,444,163.7,444,163.7z"/>
		</g>
		<g>
			<path fill="#CF1610" d="M443.4,161.3l-0.3,0.3l0.1,0.4c0,0,0,0.1,0,0.1c0,0,0,0,0,0c0,0,0,0,0,0l-0.4-0.2l-0.4,0.2
				c0,0-0.1,0-0.1,0c0,0,0,0,0-0.1l0.1-0.4l-0.3-0.3c0,0,0-0.1,0-0.1c0,0,0-0.1,0.1-0.1l0.4-0.1l0.2-0.4c0,0,0,0,0.1,0
				c0,0,0.1,0,0.1,0l0.2,0.4l0.4,0.1C443.4,161.2,443.4,161.2,443.4,161.3C443.5,161.3,443.4,161.3,443.4,161.3z"/>
		</g>
		<g>
			<path fill="#CF1610" d="M443.3,166.4l-0.3,0.3l0.1,0.4c0,0,0,0.1,0,0.1c0,0,0,0,0,0c0,0,0,0,0,0l-0.4-0.2l-0.4,0.2
				c0,0-0.1,0-0.1,0c0,0,0,0,0-0.1l0.1-0.4l-0.3-0.3c0,0,0-0.1,0-0.1c0,0,0-0.1,0.1-0.1l0.4-0.1l0.2-0.4c0,0,0,0,0.1,0
				c0,0,0.1,0,0.1,0l0.2,0.4l0.4,0.1C443.2,166.3,443.3,166.3,443.3,166.4C443.3,166.4,443.3,166.4,443.3,166.4z"/>
		</g>
		<g>
			<path fill="#CF1610" d="M441.7,159.6l-0.3,0.3l0.1,0.4c0,0,0,0.1,0,0.1c0,0,0,0,0,0c0,0,0,0,0,0l-0.4-0.2l-0.4,0.2
				c0,0-0.1,0-0.1,0c0,0,0,0,0-0.1l0.1-0.4l-0.3-0.3c0,0,0-0.1,0-0.1c0,0,0-0.1,0.1-0.1l0.4-0.1l0.2-0.4c0,0,0,0,0.1,0
				c0,0,0.1,0,0.1,0l0.2,0.4l0.4,0.1C441.7,159.4,441.7,159.5,441.7,159.6C441.7,159.5,441.7,159.6,441.7,159.6z"/>
		</g>
		<g>
			<path fill="#CF1610" d="M441.8,168.2l-0.2,0.2l0.1,0.3c0,0,0,0,0,0.1c0,0,0,0,0,0c0,0,0,0,0,0l-0.3-0.1l-0.3,0.1c0,0,0,0-0.1,0
				c0,0,0,0,0-0.1l0.1-0.3l-0.2-0.2c0,0,0,0,0-0.1c0,0,0,0,0,0l0.3,0l0.1-0.3c0,0,0,0,0.1,0c0,0,0,0,0.1,0l0.1,0.3l0.3,0
				C441.8,168.1,441.8,168.1,441.8,168.2C441.9,168.1,441.8,168.2,441.8,168.2z"/>
		</g>
		<g>
			<path fill="#CF1610" d="M439.7,158.9l-0.2,0.2l0.1,0.3c0,0,0,0,0,0.1c0,0,0,0,0,0c0,0,0,0,0,0l-0.3-0.1l-0.3,0.1c0,0,0,0-0.1,0
				c0,0,0,0,0-0.1l0.1-0.3l-0.2-0.2c0,0,0,0,0-0.1c0,0,0,0,0,0l0.3,0l0.1-0.3c0,0,0,0,0.1,0c0,0,0,0,0.1,0l0.1,0.3L439.7,158.9
				C439.7,158.8,439.7,158.8,439.7,158.9C439.8,158.8,439.8,158.9,439.7,158.9z"/>
		</g>
		<g>
			<path fill="#CF1610" d="M440.5,169.5l-0.2,0.2l0.1,0.3c0,0,0,0,0,0.1c0,0,0,0,0,0c0,0,0,0,0,0l-0.3-0.1l-0.3,0.1c0,0,0,0-0.1,0
				c0,0,0,0,0-0.1l0.1-0.3l-0.2-0.2c0,0,0,0,0-0.1c0,0,0,0,0,0l0.3,0l0.1-0.3c0,0,0,0,0.1,0c0,0,0,0,0.1,0l0.1,0.3L440.5,169.5
				C440.5,169.4,440.5,169.4,440.5,169.5C440.5,169.4,440.5,169.4,440.5,169.5z"/>
		</g>
		<g>
			<path fill="#CF1610" d="M438.1,159.3l-0.1,0.1l0,0.2c0,0,0,0,0,0c0,0,0,0,0,0c0,0,0,0,0,0l-0.2-0.1l-0.2,0.1c0,0,0,0,0,0
				c0,0,0,0,0,0l0-0.2l-0.1-0.1c0,0,0,0,0,0c0,0,0,0,0,0l0.2,0l0.1-0.2c0,0,0,0,0,0c0,0,0,0,0,0l0.1,0.2L438.1,159.3
				C438.1,159.2,438.1,159.2,438.1,159.3C438.1,159.2,438.1,159.3,438.1,159.3z"/>
		</g>
	</g>
	<g>
		<path fill="#343535" d="M389.4,188.9l4.3,0.1l-0.6,23.4l7,0.2l-0.1,3.9l-11.3-0.3L389.4,188.9z"/>
		<path fill="#343535" d="M411.2,208.8l3.4-19.3l6,0.2l-0.7,27.3l-4-0.1l0.5-19.5l-3.5,19.5l-4-0.1l-2.7-19.4l-0.5,19.3l-3.7-0.1
			l0.7-27.3l6,0.2L411.2,208.8z"/>
		<path fill="#343535" d="M430.2,189.9c2.2,0.1,3.8,0.6,4.8,1.7c1,1.1,1.4,2.6,1.4,4.7l0,1c0,1.4-0.3,2.6-0.8,3.4
			c-0.5,0.9-1.2,1.6-2.2,2c1.2,0.5,2,1.2,2.4,2.2c0.5,1,0.7,2.2,0.6,3.7l-0.1,2.2c-0.1,2.1-0.6,3.7-1.8,4.8
			c-1.1,1.1-2.8,1.6-4.9,1.5L423,217l0.7-27.3L430.2,189.9z M427.6,204.9l-0.2,8.4l2.5,0.1c0.7,0,1.3-0.2,1.7-0.5
			c0.4-0.4,0.6-1.1,0.6-2.1l0.1-2.4c0-1.3-0.2-2.1-0.6-2.6c-0.4-0.5-1.1-0.7-2.1-0.8L427.6,204.9z M427.9,193.8l-0.2,7.2l1.7,0
			c0.8,0,1.4-0.2,1.9-0.6c0.5-0.4,0.7-1.2,0.7-2.2l0-1.5c0-1-0.1-1.7-0.5-2.2c-0.3-0.4-0.9-0.7-1.6-0.7L427.9,193.8z"/>
	</g>
	<g>
		<path fill="#FFFFFF" d="M433,48.2l4.1,11.5l-2.7,1.6l-8.2-9l6,10.2l-2.5,1.5l-8.5-14.5l4-2.3l8.2,9l-4.1-11.4"/>
	</g>
	<polygon fill="#9A999A" points="376.4,169.3 390.5,169.3 388.6,179.6 378.2,179.6 	"/>
</g>
</svg>
