<?xml version="1.0" encoding="utf-8"?>
<!-- Generator: Adobe Illustrator 18.1.1, SVG Export Plug-In . SVG Version: 6.00 Build 0)  -->
<svg version="1.1" id="Layer_1" xmlns="http://www.w3.org/2000/svg" xmlns:xlink="http://www.w3.org/1999/xlink" x="0px" y="0px"
	 viewBox="357 0 443 550" enable-background="new 357 0 443 550" xml:space="preserve">
<path fill="#F2F2F2" d="M668.3,469.1l-96.8,68.8L478,469.2c-45.5-33.5-72.4-86.6-72.4-143.1V35.6H743v288.8
	C743,381.8,715.2,435.8,668.3,469.1z"/>
<path fill="#204995" d="M571,548.8l100.4-71.3C720,442.9,749,387,749,327.4V28h-20v294.9c0,52.8-25.7,102.3-68.7,132.9L571.4,519
	l-85.9-63.1c-41.8-30.7-66.6-79.5-66.6-131.4V28h-20v301.2c0,58.6,27.9,113.7,75.1,148.4L571,548.8"/>
<path fill="#F7931E" d="M367,22.1c-3.9-1.9-3.9-6.8,0-8.8l0,0l8.9-4.4v8.8v8.8L367,22.1L367,22.1z"/>
<rect x="387.7" y="13.3" fill="#534741" width="389.3" height="10"/>
<path fill="#FBB03B" d="M384.1,31h-6.5c-2.6,0-4.7-2.1-4.7-4.7V10.1c0-2.6,2.1-4.7,4.7-4.7h6.5c2.6,0,4.7,2.1,4.7,4.7v16.2
	C388.8,28.9,386.7,31,384.1,31z"/>
<path fill="#F7931E" d="M786.2,22.1c3.9-1.9,3.9-6.8,0-8.8l0,0l-8.9-4.4v8.8v8.8L786.2,22.1L786.2,22.1z"/>
<path fill="#FBB03B" d="M769,31h6.5c2.6,0,4.7-2.1,4.7-4.7V10.1c0-2.6-2.1-4.7-4.7-4.7H769c-2.6,0-4.7,2.1-4.7,4.7v16.2
	C764.4,28.9,766.5,31,769,31z"/>
<rect x="392.8" y="-1.3" fill="#CCCCCC" width="363.7" height="43.5"/>
<g>
	<g>
		<circle fill="#F2F2F2" cx="574.4" cy="215.1" r="47.4"/>
		<path fill="#9400EB" d="M574.5,124.5c0.6,2.7-1.3,3.1-3.3,3.7c-15.2,4.7-26.7,14-34.6,27.7c-1.5,2.6-2.6,3-5.5,2
			c-16.8-5.9-31.8-15.4-48.1-22.5c-5-2.2-1.6-5.7-0.3-8c6.7-11.6,15-21.9,25.2-30.7c13.8-11.9,29-20.9,46.5-26.1
			c5.2-1.6,8-0.9,8.9,4.9c1.8,12,5.9,23.4,7.3,35.6C571.2,115.5,573.6,119.9,574.5,124.5z"/>
		<path fill="#DC013E" d="M607.7,88.2c25.2,0.8,48.1,8.2,68.7,22.9c3.5,2.5,4,4.1,1.2,7.5c-10.5,12.8-20.7,25.7-30.9,38.7
			c-2.2,2.8-3.7,3.8-7.3,1.4c-12.2-8.5-26-12-40.8-9.8c-4.9,0.7-6.5-0.8-7.4-5.2c-3.3-15.5-6.8-31-10.4-46.4c-1-4.4-0.5-6.8,4.8-7.3
			C593.1,89.2,600.3,88,607.7,88.2z"/>
		<path fill="#E89845" d="M689.4,235.9c-8,0-16.1-0.1-24.1,0.1c-3.7,0.1-5.6-1-5.9-5c-1.1-15.2-7.2-28.1-18.4-38.4
			c-2.7-2.5-2.7-4.6-0.6-7.2c10.4-13.1,20.8-26.1,31.2-39.2c2.4-3.1,5-1.9,7.2,0.2c24,22.5,38,49.7,39.9,82.8
			c0.3,5.3-1.4,6.9-6.6,6.7C704.6,235.7,697,235.9,689.4,235.9z"/>
		<path fill="#75DF00" d="M545.7,355.5c-5.8,0.8-12.6-1.3-19.5-1.7c-3.5-0.2-4.9-2.1-4.1-5.7c3.8-16.3,7.6-32.5,11.2-48.8
			c0.9-4.2,3.1-4.9,7-4.5c14.9,1.5,29-0.7,41.3-10.2c2.3-1.8,4.2-1.5,6.1,0.8c10.3,12.9,20.7,25.6,31.1,38.4c3.3,4.1,3.1,6.7-2,10.2
			C595.6,348.4,572.4,355.4,545.7,355.5z"/>
		<path fill="#204995" d="M453.5,133.7c1.4,0.9,2.7,1.9,4.3,2.7c14.5,6.8,29,13.9,43.5,20.8c4.1,2,4.3,4,2.4,8.5
			c-5.5,13-5.2,26.7-0.1,39.8c2,5.3,1.2,6.8-3.6,9c-14.4,6.5-28.6,13.5-42.8,20.5c-3.8,1.9-5.8,1.9-7.7-2.6
			c-11.2-27.4-12.5-55.2-3.8-83.4c1.4-4.4,4.9-8,5-13C450.7,134.5,452,133.7,453.5,133.7z"/>
		<path fill="#F0EE07" d="M663.5,248.7c7.8,0,15.6,0.1,23.4,0c4.7-0.1,6.5,1.6,6.2,6.5c-1.1,18.3-6.3,35.1-15.2,51.1
			c-6.7,12.1-15.5,22.2-25.1,31.9c-2.8,2.8-4.4,2.8-6.7,0c-6.6-8.2-13.4-16.4-20-24.6c-3.9-4.9-7.7-9.8-11.6-14.7
			c-1.9-2.3-2.5-4.6-0.1-6.9c10.7-9.8,17.2-21.9,18.5-36.5c0.5-5.2,2.7-7.1,7.8-6.9C648.3,249,655.9,248.8,663.5,248.7
			C663.5,248.8,663.5,248.8,663.5,248.7z"/>
		<path fill="#7AB3DA" d="M526.9,270.1c-3.9,16.9-7.8,33.7-11.6,50.6c-0.8,3.4-2.7,2.3-4.9,1.8c-14.8-3.6-27-11.7-39.3-20.3
			c-8.5-5.9-14.5-14.1-21.6-21.2c-4-4-7.1-9.9-10.7-14.9c-2.4-3.3-1.5-5.5,1.6-7.5c11.1-7.2,22.8-13.2,34.8-18.8
			c3.9-1.8,8.1-5.5,11.5-4.8c2.9,0.6,4.6,6.3,7.1,9.5c7.7,9.9,17.6,16.6,29.4,20.6C525.8,266.2,527.6,266.9,526.9,270.1z"/>
		<path d="M562.3,229.9c0.6-6.2-3.1-16.8-7.3-20.3c7.4-1.4,12-7.1,17.8-10.9c0.8,0,1.6,0.1,2.4,0.1c4.8,3.5,9.1,7.8,14.6,10.4
			c0.1,0.6,0.2,1.2,0.3,1.8c-2.3,6.6-4.9,13.1-5.8,19.4c-6.9-1.8-13.5-1.9-20.2-0.2C563.5,230,562.9,230,562.3,229.9z"/>
		<path d="M613.6,242.1c-11.9,16.9-28.2,23.5-48.5,20.3c0.1-0.8,0.2-1.6,0.3-2.4c1.7,0.1,3.5,0.3,5.2,0.4
			c15.7,0.8,16.4,0.3,20.6-14.4c0.2-0.8,0.7-1.7,0.7-2.5c0.1-2.5,0.8-2.6,3.5-2.5c5.5,0.3,11.2,1.7,16.6-0.7
			C612.5,240.9,613.1,241.5,613.6,242.1z"/>
		<path d="M612.4,186.7c11,15.2,12.8,31.4,5.1,48.6c-0.6-0.6-1.2-1.2-1.8-1.8c0.9-3.5,2.2-6.9,2.8-10.5c1.4-8.2-8.3-17.1-16.8-15.9
			c0-0.6,0-1.3,0-1.9c6.4-4.5,6.9-11.6,8-18.4C610.5,186.8,611.4,186.7,612.4,186.7z"/>
		<path d="M526.2,221.1c-1.3-8,0.3-15.8,3.1-23.5c1.5-4.1,3.3-8.2,6.4-11.6c1,0.4,1.2,0.4,2.2,0.8c0.8,6.8,4,12.8,6,19.1
			c-6,3.9-9.3,7.1-14.6,12.1C527.2,217.8,528.2,221.3,526.2,221.1z"/>
		<path d="M573.1,183.2c-3.8-3-7.5-6.2-11.4-9c-1.2-0.9-3.1-1.4-3.1-2.8c0.1-1.9,2.4-2.4,3.8-2.7c10-2.4,20-1.9,29.8,2.3
			c-0.1,0.5-0.1,0.5-0.1,1c-6.2,2.9-12,7.1-17.5,11.2C574.1,183.2,573.6,183.2,573.1,183.2z"/>
		<path d="M539,242c4.9-0.3,9.9-0.7,14.8-1c0.7,0.2,1.4,0.4,2.1,0.7c1.4,5.5,2.8,11,4.2,16.5c-0.7,0.7-1.5,1.5-2.2,2.2
			c-9.7-3-17.2-8.9-23-17.2c0.7-0.6,1.3-1.3,2-1.9c0.5-0.1,0.7,0.1,0.8,0.6C538,243.2,538.5,243.3,539,242z"/>
		<path d="M589.8,172.5c0-0.8,0-1.6-0.1-2.5c9.5,2.8,17.1,8.3,22.6,16.6c-0.9,0.1-1.8,0.1-2.7,0.2
			C603.9,180.9,597.3,176,589.8,172.5z"/>
		<path d="M537.9,187.2c-0.6-0.6-1.1-1.1-1.7-1.7c5.7-6.6,11.5-13.1,21-14C550.2,176.1,543.8,181.3,537.9,187.2z"/>
		<path d="M536.9,241.3c-0.7,0.6-1.3,1.3-2,1.9c-4.1-5.1-6.9-10.7-7.6-17.2c0.5,0,1,0,1.5,0C531.5,231.1,534.2,236.2,536.9,241.3z"
			/>
		<path d="M572.8,183c0.7,0,1.5-0.1,2.2-0.1c0.1,5.3,0.1,10.5,0.2,15.8c-0.8,0-1.6-0.1-2.4-0.1C572.8,193.4,572.8,188.2,572.8,183z"
			/>
		<path d="M555.9,241.6c-0.7-0.2-1.4-0.4-2.1-0.7c2.7-3.8,5-7.9,8.5-11.1c0.6,0.1,1.2,0.2,1.8,0.2C561.9,234.3,559,238,555.9,241.6z
			"/>
		<path d="M615.7,233.5c0.6,0.6,1.2,1.2,1.8,1.8c-0.4,2.8-1.9,4.9-3.8,6.9c-0.6-0.6-1.1-1.2-1.7-1.8
			C613.2,238,614.4,235.8,615.7,233.5z"/>
		<path d="M557.9,260.4c0.7-0.7,1.5-1.5,2.2-2.2c1.7,0.6,3.5,1.2,5.2,1.8c-0.1,0.8-0.2,1.6-0.3,2.4C562.5,262.6,560,262,557.9,260.4
			z"/>
		<path d="M539,242c-0.6,1.3-1,1.2-1.4-0.1C538.1,241.9,538.6,242,539,242z"/>
		<path d="M589.8,209c3.8-1.7,7.6-3.2,11.8-3.8c0,0.6,0,1.3,0,1.9c-3.6,1.8-7.4,3.1-11.5,3.7C590.1,210.3,589.9,209.6,589.8,209z"/>
	</g>
	<polygon points="540.6,205.8 563.4,213.3 562.3,210 539.8,203 	"/>
	<polygon points="582,229.1 594.2,247.7 596.4,245.8 583.1,226.1 	"/>
	<polygon points="588.1,212.5 609.2,206.1 606.7,202.5 585.9,210.2 	"/>
	<polygon points="554.8,244.1 566.2,228.6 563.4,227.2 551.7,243.3 	"/>
	<g>
		<path d="M573.9,266.3c-28.2,0-51.1-22.9-51.1-51.1s22.9-51.1,51.1-51.1c28.2,0,51.1,22.9,51.1,51.1S602.1,266.3,573.9,266.3z
			 M573.9,170.8c-24.5,0-44.4,19.9-44.4,44.4s19.9,44.4,44.4,44.4s44.4-19.9,44.4-44.4S598.4,170.8,573.9,170.8z"/>
	</g>
</g>
<rect x="391.9" y="-2.8" fill="#0E3981" width="33.3" height="45"/>
<rect x="723.9" y="-2.8" fill="#0E3981" width="33.3" height="45"/>
<polygon fill="#204995" points="526,445 526,381 512,381 512,455 513.1,455 526.2,455 549,455 549,445 "/>
<polygon fill="#204995" points="594,391 594,381 569.9,381 557,381 557,381 557,412.9 557,423.4 557,455 571,455 571,423 594,423 
	594,413 571,413 571,391 "/>
<path fill="#204995" d="M637.2,384.5c-3.7-2.3-8-3.5-12.3-3.5c-3.2,0-7.9,0-11.2,0h-4.1H601v74h13v-34h8.6
	c11.9,0,23.4-5.4,23.1-20.2c0-0.5,0.1-0.8,0.1-1.4C645.8,391.5,641.5,387.1,637.2,384.5z M632.7,402.3c0.2,7.7-5.8,10.7-12,10.7H614
	v-22c0,0,4.9,0,7.8,0c2.2,0,4.5,1,6.4,2.1c2.2,1.4,4.5,4,4.5,8.1C632.7,401.5,632.7,402,632.7,402.3z"/>
</svg>
