<?xml version="1.0" encoding="utf-8"?>
<!-- Generator: Adobe Illustrator 19.0.0, SVG Export Plug-In . SVG Version: 6.00 Build 0)  -->
<!DOCTYPE svg PUBLIC "-//W3C//DTD SVG 1.1//EN" "http://www.w3.org/Graphics/SVG/1.1/DTD/svg11.dtd">
<svg version="1.1" id="Layer_1" xmlns="http://www.w3.org/2000/svg" xmlns:xlink="http://www.w3.org/1999/xlink" x="0px" y="0px"
	 viewBox="0 0 255.2 684" style="enable-background:new 0 0 255.2 684;" xml:space="preserve">
<style type="text/css">
	.st0{fill:#4D4D4D;}
	.st1{fill:#666666;}
	.st2{fill:#F2F2F2;}
	.st3{fill:#204995;}
	.st4{fill:#F7931E;}
	.st5{fill:#534741;}
	.st6{fill:#FBB03B;}
	.st7{fill:#CCCCCC;}
	.st8{fill:#9400EB;}
	.st9{fill:#DC013E;}
	.st10{fill:#E89845;}
	.st11{fill:#75DF00;}
	.st12{fill:#F0EE07;}
	.st13{fill:#7AB3DA;}
	.st14{fill:#0E3981;}
</style>
<g>
	<g>
		<path class="st0" d="M227.7,12c-5.7,0-10.2,5.8-10.2,13s4.6,13,10.2,13S238,32.2,238,25S233.4,12,227.7,12z M227.7,31.7
			c-2.9,0-5.2-3-5.2-6.7c0-3.7,2.4-6.7,5.2-6.7s5.2,3,5.2,6.7C233,28.7,230.6,31.7,227.7,31.7z"/>
		<ellipse class="st1" cx="227.7" cy="12" rx="5.2" ry="12"/>
		<path class="st0" d="M227.7,39c-5.7,0-10.2,5.8-10.2,13s4.6,13,10.2,13S238,59.2,238,52S233.4,39,227.7,39z M227.7,58.7
			c-2.9,0-5.2-3-5.2-6.7c0-3.7,2.4-6.7,5.2-6.7s5.2,3,5.2,6.7C233,55.7,230.6,58.7,227.7,58.7z"/>
		<ellipse class="st1" cx="227.7" cy="39" rx="5.2" ry="12"/>
		<path class="st0" d="M227.7,65c-5.7,0-10.2,5.8-10.2,13s4.6,13,10.2,13S238,85.2,238,78S233.4,65,227.7,65z M227.7,84.7
			c-2.9,0-5.2-3-5.2-6.7c0-3.7,2.4-6.7,5.2-6.7s5.2,3,5.2,6.7C233,81.7,230.6,84.7,227.7,84.7z"/>
		<ellipse class="st1" cx="227.7" cy="65" rx="5.2" ry="12"/>
		<path class="st0" d="M227.7,90c-5.7,0-10.2,5.8-10.2,13s4.6,13,10.2,13s10.2-5.8,10.2-13S233.4,90,227.7,90z M227.7,109.7
			c-2.9,0-5.2-3-5.2-6.7c0-3.7,2.4-6.7,5.2-6.7s5.2,3,5.2,6.7C233,106.7,230.6,109.7,227.7,109.7z"/>
		<ellipse class="st1" cx="227.7" cy="90" rx="5.2" ry="12"/>
		<path class="st0" d="M227.7,117c-5.7,0-10.2,5.8-10.2,13s4.6,13,10.2,13s10.2-5.8,10.2-13S233.4,117,227.7,117z M227.7,136.7
			c-2.9,0-5.2-3-5.2-6.7c0-3.7,2.4-6.7,5.2-6.7s5.2,3,5.2,6.7C233,133.7,230.6,136.7,227.7,136.7z"/>
		<ellipse class="st1" cx="227.7" cy="117" rx="5.2" ry="12"/>
		<path class="st0" d="M227.7,142c-5.7,0-10.2,5.8-10.2,13s4.6,13,10.2,13s10.2-5.8,10.2-13S233.4,142,227.7,142z M227.7,161.7
			c-2.9,0-5.2-3-5.2-6.7c0-3.7,2.4-6.7,5.2-6.7s5.2,3,5.2,6.7C233,158.7,230.6,161.7,227.7,161.7z"/>
		<ellipse class="st1" cx="227.7" cy="142" rx="5.2" ry="12"/>
		<path class="st0" d="M227.7,170c-5.7,0-10.2,5.8-10.2,13s4.6,13,10.2,13s10.2-5.8,10.2-13S233.4,170,227.7,170z M227.7,189.7
			c-2.9,0-5.2-3-5.2-6.7c0-3.7,2.4-6.7,5.2-6.7s5.2,3,5.2,6.7C233,186.7,230.6,189.7,227.7,189.7z"/>
		<ellipse class="st1" cx="227.7" cy="170" rx="5.2" ry="12"/>
		<path class="st0" d="M227.7,194c-5.7,0-10.2,5.8-10.2,13s4.6,13,10.2,13s10.2-5.8,10.2-13S233.4,194,227.7,194z M227.7,213.7
			c-2.9,0-5.2-3-5.2-6.7c0-3.7,2.4-6.7,5.2-6.7s5.2,3,5.2,6.7C233,210.7,230.6,213.7,227.7,213.7z"/>
		<ellipse class="st1" cx="227.7" cy="194" rx="5.2" ry="12"/>
		<path class="st0" d="M227.7,221c-5.7,0-10.2,5.8-10.2,13s4.6,13,10.2,13s10.2-5.8,10.2-13S233.4,221,227.7,221z M227.7,240.7
			c-2.9,0-5.2-3-5.2-6.7c0-3.7,2.4-6.7,5.2-6.7s5.2,3,5.2,6.7C233,237.7,230.6,240.7,227.7,240.7z"/>
		<ellipse class="st1" cx="227.7" cy="221" rx="5.2" ry="12"/>
		<path class="st0" d="M227.7,247c-5.7,0-10.2,5.8-10.2,13s4.6,13,10.2,13s10.2-5.8,10.2-13S233.4,247,227.7,247z M227.7,266.7
			c-2.9,0-5.2-3-5.2-6.7c0-3.7,2.4-6.7,5.2-6.7s5.2,3,5.2,6.7C233,263.7,230.6,266.7,227.7,266.7z"/>
		<ellipse class="st1" cx="227.7" cy="247" rx="5.2" ry="12"/>
		<path class="st0" d="M227.7,272c-5.7,0-10.2,5.8-10.2,13s4.6,13,10.2,13s10.2-5.8,10.2-13S233.4,272,227.7,272z M227.7,291.7
			c-2.9,0-5.2-3-5.2-6.7c0-3.7,2.4-6.7,5.2-6.7s5.2,3,5.2,6.7C233,288.7,230.6,291.7,227.7,291.7z"/>
		<ellipse class="st1" cx="227.7" cy="272" rx="5.2" ry="12"/>
		<path class="st0" d="M227.7,299c-5.7,0-10.2,5.8-10.2,13s4.6,13,10.2,13s10.2-5.8,10.2-13S233.4,299,227.7,299z M227.7,318.7
			c-2.9,0-5.2-3-5.2-6.7c0-3.7,2.4-6.7,5.2-6.7s5.2,3,5.2,6.7C233,315.7,230.6,318.7,227.7,318.7z"/>
		<ellipse class="st1" cx="227.7" cy="299" rx="5.2" ry="12"/>
		<path class="st0" d="M227.7,324c-5.7,0-10.2,5.8-10.2,13s4.6,13,10.2,13s10.2-5.8,10.2-13S233.4,324,227.7,324z M227.7,343.7
			c-2.9,0-5.2-3-5.2-6.7c0-3.7,2.4-6.7,5.2-6.7s5.2,3,5.2,6.7C233,340.7,230.6,343.7,227.7,343.7z"/>
		<ellipse class="st1" cx="227.7" cy="324" rx="5.2" ry="12"/>
		<path class="st0" d="M227.7,352c-5.7,0-10.2,5.8-10.2,13s4.6,13,10.2,13s10.2-5.8,10.2-13S233.4,352,227.7,352z M227.7,371.7
			c-2.9,0-5.2-3-5.2-6.7c0-3.7,2.4-6.7,5.2-6.7s5.2,3,5.2,6.7C233,368.7,230.6,371.7,227.7,371.7z"/>
		<ellipse class="st1" cx="227.7" cy="352" rx="5.2" ry="12"/>
	</g>
	<g>
		<path class="st0" d="M26.7,14c-5.7,0-10.2,5.8-10.2,13s4.6,13,10.2,13S37,34.2,37,27S32.4,14,26.7,14z M26.7,33.7
			c-2.9,0-5.2-3-5.2-6.7c0-3.7,2.4-6.7,5.2-6.7s5.2,3,5.2,6.7C32,30.7,29.6,33.7,26.7,33.7z"/>
		<ellipse class="st1" cx="26.7" cy="14" rx="5.2" ry="12"/>
		<path class="st0" d="M26.7,41c-5.7,0-10.2,5.8-10.2,13s4.6,13,10.2,13S37,61.2,37,54S32.4,41,26.7,41z M26.7,60.7
			c-2.9,0-5.2-3-5.2-6.7c0-3.7,2.4-6.7,5.2-6.7s5.2,3,5.2,6.7C32,57.7,29.6,60.7,26.7,60.7z"/>
		<ellipse class="st1" cx="26.7" cy="41" rx="5.2" ry="12"/>
		<path class="st0" d="M26.7,67c-5.7,0-10.2,5.8-10.2,13s4.6,13,10.2,13S37,87.2,37,80S32.4,67,26.7,67z M26.7,86.7
			c-2.9,0-5.2-3-5.2-6.7c0-3.7,2.4-6.7,5.2-6.7s5.2,3,5.2,6.7C32,83.7,29.6,86.7,26.7,86.7z"/>
		<ellipse class="st1" cx="26.7" cy="67" rx="5.2" ry="12"/>
		<path class="st0" d="M26.7,92c-5.7,0-10.2,5.8-10.2,13s4.6,13,10.2,13S37,112.2,37,105S32.4,92,26.7,92z M26.7,111.7
			c-2.9,0-5.2-3-5.2-6.7c0-3.7,2.4-6.7,5.2-6.7s5.2,3,5.2,6.7C32,108.7,29.6,111.7,26.7,111.7z"/>
		<ellipse class="st1" cx="26.7" cy="92" rx="5.2" ry="12"/>
		<path class="st0" d="M26.7,119c-5.7,0-10.2,5.8-10.2,13s4.6,13,10.2,13S37,139.2,37,132S32.4,119,26.7,119z M26.7,138.7
			c-2.9,0-5.2-3-5.2-6.7c0-3.7,2.4-6.7,5.2-6.7s5.2,3,5.2,6.7C32,135.7,29.6,138.7,26.7,138.7z"/>
		<ellipse class="st1" cx="26.7" cy="119" rx="5.2" ry="12"/>
		<path class="st0" d="M26.7,144c-5.7,0-10.2,5.8-10.2,13s4.6,13,10.2,13S37,164.2,37,157S32.4,144,26.7,144z M26.7,163.7
			c-2.9,0-5.2-3-5.2-6.7c0-3.7,2.4-6.7,5.2-6.7s5.2,3,5.2,6.7C32,160.7,29.6,163.7,26.7,163.7z"/>
		<ellipse class="st1" cx="26.7" cy="144" rx="5.2" ry="12"/>
		<path class="st0" d="M26.7,172c-5.7,0-10.2,5.8-10.2,13s4.6,13,10.2,13S37,192.2,37,185S32.4,172,26.7,172z M26.7,191.7
			c-2.9,0-5.2-3-5.2-6.7c0-3.7,2.4-6.7,5.2-6.7s5.2,3,5.2,6.7C32,188.7,29.6,191.7,26.7,191.7z"/>
		<ellipse class="st1" cx="26.7" cy="172" rx="5.2" ry="12"/>
		<path class="st0" d="M26.7,196c-5.7,0-10.2,5.8-10.2,13s4.6,13,10.2,13S37,216.2,37,209S32.4,196,26.7,196z M26.7,215.7
			c-2.9,0-5.2-3-5.2-6.7c0-3.7,2.4-6.7,5.2-6.7s5.2,3,5.2,6.7C32,212.7,29.6,215.7,26.7,215.7z"/>
		<ellipse class="st1" cx="26.7" cy="196" rx="5.2" ry="12"/>
		<path class="st0" d="M26.7,223c-5.7,0-10.2,5.8-10.2,13s4.6,13,10.2,13S37,243.2,37,236S32.4,223,26.7,223z M26.7,242.7
			c-2.9,0-5.2-3-5.2-6.7c0-3.7,2.4-6.7,5.2-6.7s5.2,3,5.2,6.7C32,239.7,29.6,242.7,26.7,242.7z"/>
		<ellipse class="st1" cx="26.7" cy="223" rx="5.2" ry="12"/>
		<path class="st0" d="M26.7,249c-5.7,0-10.2,5.8-10.2,13s4.6,13,10.2,13S37,269.2,37,262S32.4,249,26.7,249z M26.7,268.7
			c-2.9,0-5.2-3-5.2-6.7c0-3.7,2.4-6.7,5.2-6.7s5.2,3,5.2,6.7C32,265.7,29.6,268.7,26.7,268.7z"/>
		<ellipse class="st1" cx="26.7" cy="249" rx="5.2" ry="12"/>
		<path class="st0" d="M26.7,274c-5.7,0-10.2,5.8-10.2,13s4.6,13,10.2,13S37,294.2,37,287S32.4,274,26.7,274z M26.7,293.7
			c-2.9,0-5.2-3-5.2-6.7c0-3.7,2.4-6.7,5.2-6.7s5.2,3,5.2,6.7C32,290.7,29.6,293.7,26.7,293.7z"/>
		<ellipse class="st1" cx="26.7" cy="274" rx="5.2" ry="12"/>
		<path class="st0" d="M26.7,301c-5.7,0-10.2,5.8-10.2,13s4.6,13,10.2,13S37,321.2,37,314S32.4,301,26.7,301z M26.7,320.7
			c-2.9,0-5.2-3-5.2-6.7c0-3.7,2.4-6.7,5.2-6.7s5.2,3,5.2,6.7C32,317.7,29.6,320.7,26.7,320.7z"/>
		<ellipse class="st1" cx="26.7" cy="301" rx="5.2" ry="12"/>
		<path class="st0" d="M26.7,326c-5.7,0-10.2,5.8-10.2,13s4.6,13,10.2,13S37,346.2,37,339S32.4,326,26.7,326z M26.7,345.7
			c-2.9,0-5.2-3-5.2-6.7c0-3.7,2.4-6.7,5.2-6.7s5.2,3,5.2,6.7C32,342.7,29.6,345.7,26.7,345.7z"/>
		<ellipse class="st1" cx="26.7" cy="326" rx="5.2" ry="12"/>
		<path class="st0" d="M26.7,354c-5.7,0-10.2,5.8-10.2,13s4.6,13,10.2,13S37,374.2,37,367S32.4,354,26.7,354z M26.7,373.7
			c-2.9,0-5.2-3-5.2-6.7c0-3.7,2.4-6.7,5.2-6.7s5.2,3,5.2,6.7C32,370.7,29.6,373.7,26.7,373.7z"/>
		<ellipse class="st1" cx="26.7" cy="354" rx="5.2" ry="12"/>
	</g>
	<g>
		<path class="st2" d="M182.6,636.2l-58.1,41.3l-56.1-41.2c-27.3-20.1-43.5-52-43.5-85.9V376h202.5v173.3
			C227.5,583.8,210.8,616.2,182.6,636.2z"/>
		<path class="st3" d="M219,371.5v177c0,31.7-15.4,61.4-41.2,79.8l-53.3,37.9l-51.5-37.8C47.8,609.8,33,580.6,33,549.4V371.5H21
			v180.7c0,35.2,16.8,68.2,45.1,89l58.2,42.7l60.3-42.8c29.2-20.7,46.5-54.3,46.5-90.1V371.5H219z"/>
		<path class="st4" d="M1.8,367.9c-2.4-1.2-2.4-4.1,0-5.3h0l5.3-2.6v5.3v5.3L1.8,367.9L1.8,367.9z"/>
		<rect x="14.2" y="362.7" class="st5" width="233.7" height="6"/>
		<path class="st6" d="M10.2,373.2h-0.1c-2.6,0-4.7-2.1-4.7-4.7v-6c0-2.6,2.1-4.7,4.7-4.7h0.1c2.6,0,4.7,2.1,4.7,4.7v6
			C14.9,371.2,12.8,373.2,10.2,373.2z"/>
		<path class="st4" d="M253.4,367.9c2.4-1.2,2.4-4.1,0-5.3h0l-5.3-2.6v5.3v5.3L253.4,367.9L253.4,367.9z"/>
		<path class="st6" d="M244.9,373.2h0.1c2.6,0,4.7-2.1,4.7-4.7v-6c0-2.6-2.1-4.7-4.7-4.7h-0.1c-2.6,0-4.7,2.1-4.7,4.7v6
			C240.3,371.2,242.4,373.2,244.9,373.2z"/>
		<rect x="17.3" y="353.9" class="st7" width="218.3" height="26.1"/>
		<g>
			<g>
				<circle class="st2" cx="126.3" cy="483.8" r="28.4"/>
				<path class="st8" d="M126.3,429.4c0.3,1.6-0.8,1.8-2,2.2c-9.1,2.8-16.1,8.4-20.8,16.6c-0.9,1.6-1.6,1.8-3.3,1.2
					c-10.1-3.6-19.1-9.3-28.8-13.5c-3-1.3-1-3.4-0.2-4.8c4-6.9,9-13.1,15.1-18.4c8.3-7.1,17.4-12.5,27.9-15.7
					c3.1-0.9,4.8-0.5,5.4,2.9c1.1,7.2,3.5,14.1,4.4,21.3C124.3,424,125.8,426.6,126.3,429.4z"/>
				<path class="st9" d="M146.3,407.6c15.1,0.5,28.9,4.9,41.3,13.7c2.1,1.5,2.4,2.4,0.7,4.5c-6.3,7.7-12.4,15.4-18.5,23.2
					c-1.3,1.7-2.2,2.3-4.4,0.8c-7.3-5.1-15.6-7.2-24.5-5.9c-2.9,0.4-3.9-0.5-4.4-3.1c-2-9.3-4.1-18.6-6.3-27.8
					c-0.6-2.7-0.3-4.1,2.9-4.4C137.5,408.2,141.8,407.5,146.3,407.6z"/>
				<path class="st10" d="M195.3,496.3c-4.8,0-9.7-0.1-14.5,0c-2.2,0.1-3.3-0.6-3.5-3c-0.7-9.1-4.3-16.8-11-23
					c-1.6-1.5-1.6-2.8-0.4-4.3c6.2-7.8,12.5-15.7,18.7-23.5c1.5-1.8,3-1.1,4.3,0.1c14.4,13.5,22.8,29.8,24,49.7
					c0.2,3.2-0.9,4.2-3.9,4C204.4,496.1,199.8,496.3,195.3,496.3z"/>
				<path class="st11" d="M109,568c-3.5,0.5-7.5-0.8-11.7-1c-2.1-0.1-3-1.2-2.5-3.4c2.3-9.8,4.6-19.5,6.7-29.3
					c0.6-2.5,1.8-3,4.2-2.7c8.9,0.9,17.4-0.4,24.8-6.1c1.4-1.1,2.5-0.9,3.7,0.5c6.2,7.7,12.4,15.4,18.6,23.1c2,2.5,1.9,4-1.2,6.1
					C139,563.8,125,568,109,568z"/>
				<path class="st3" d="M53.7,434.9c0.8,0.6,1.6,1.2,2.6,1.6c8.7,4.1,17.4,8.3,26.1,12.5c2.5,1.2,2.6,2.4,1.4,5.1
					c-3.3,7.8-3.1,16-0.1,23.9c1.2,3.2,0.7,4.1-2.2,5.4c-8.7,3.9-17.2,8.1-25.7,12.3c-2.3,1.1-3.5,1.2-4.6-1.6
					c-6.7-16.4-7.5-33.1-2.3-50.1c0.8-2.7,2.9-4.8,3-7.8C52,435.4,52.8,434.9,53.7,434.9z"/>
				<path class="st12" d="M179.7,503.9c4.7,0,9.4,0.1,14,0c2.8-0.1,3.9,1,3.7,3.9c-0.7,11-3.8,21.1-9.1,30.7
					c-4,7.3-9.3,13.3-15.1,19.2c-1.7,1.7-2.7,1.7-4,0c-4-4.9-8-9.8-12-14.8c-2.4-2.9-4.6-5.9-7-8.8c-1.1-1.4-1.5-2.8-0.1-4.1
					c6.4-5.9,10.3-13.2,11.1-21.9c0.3-3.1,1.6-4.3,4.7-4.1C170.6,504.1,175.2,504,179.7,503.9C179.7,504,179.7,504,179.7,503.9z"/>
				<path class="st13" d="M97.7,516.7c-2.3,10.1-4.7,20.3-7,30.4c-0.5,2-1.6,1.4-2.9,1.1c-8.9-2.1-16.2-7-23.6-12.2
					c-5.1-3.6-8.7-8.5-12.9-12.7c-2.4-2.4-4.3-5.9-6.4-8.9c-1.4-2-0.9-3.3,1-4.5c6.7-4.3,13.7-7.9,20.9-11.3
					c2.3-1.1,4.9-3.3,6.9-2.9c1.7,0.4,2.7,3.8,4.2,5.7c4.6,5.9,10.6,10,17.6,12.4C97.1,514.4,98.2,514.8,97.7,516.7z"/>
				<path d="M119,492.6c0.4-3.7-1.9-10.1-4.4-12.2c4.4-0.8,7.2-4.3,10.7-6.6c0.5,0,1,0,1.4,0.1c2.9,2.1,5.5,4.7,8.8,6.2
					c0.1,0.4,0.1,0.7,0.2,1.1c-1.4,4-2.9,7.9-3.5,11.7c-4.2-1.1-8.1-1.1-12.1-0.1C119.7,492.7,119.4,492.7,119,492.6z"/>
				<path d="M149.8,500c-7.2,10.2-16.9,14.1-29.1,12.2c0.1-0.5,0.1-1,0.2-1.5c1,0.1,2.1,0.2,3.1,0.2c9.4,0.5,9.8,0.2,12.4-8.7
					c0.1-0.5,0.4-1,0.4-1.5c0.1-1.5,0.5-1.6,2.1-1.5c3.3,0.2,6.7,1,10-0.4C149.1,499.2,149.5,499.6,149.8,500z"/>
				<path d="M149,466.7c6.6,9.1,7.7,18.9,3.1,29.2c-0.4-0.4-0.7-0.7-1.1-1.1c0.6-2.1,1.3-4.2,1.7-6.3c0.8-4.9-5-10.3-10.1-9.5
					c0-0.4,0-0.8,0-1.1c3.8-2.7,4.1-7,4.8-11.1C147.9,466.8,148.5,466.7,149,466.7z"/>
				<path d="M97.3,487.4c-0.8-4.8,0.2-9.5,1.9-14.1c0.9-2.5,2-4.9,3.8-6.9c0.6,0.2,0.7,0.2,1.3,0.5c0.5,4.1,2.4,7.7,3.6,11.4
					c-3.6,2.4-5.6,4.3-8.8,7.3C97.9,485.4,98.5,487.5,97.3,487.4z"/>
				<path d="M125.5,464.6c-2.3-1.8-4.5-3.7-6.8-5.4c-0.7-0.5-1.9-0.8-1.8-1.7c0-1.2,1.4-1.4,2.3-1.6c6-1.4,12-1.1,17.9,1.4
					c0,0.3,0,0.3-0.1,0.6c-3.7,1.8-7.2,4.3-10.5,6.7C126.1,464.6,125.8,464.6,125.5,464.6z"/>
				<path d="M105,499.9c3-0.2,5.9-0.4,8.9-0.6c0.4,0.1,0.8,0.3,1.2,0.4c0.8,3.3,1.7,6.6,2.5,9.9c-0.4,0.4-0.9,0.9-1.3,1.3
					c-5.8-1.8-10.3-5.4-13.8-10.3c0.4-0.4,0.8-0.8,1.2-1.1c0.3,0,0.4,0.1,0.5,0.4C104.4,500.6,104.7,500.7,105,499.9z"/>
				<path d="M135.5,458.2c0-0.5,0-1,0-1.5c5.7,1.7,10.2,5,13.5,10c-0.5,0-1.1,0.1-1.6,0.1C144,463.2,140,460.3,135.5,458.2z"/>
				<path d="M104.3,467c-0.3-0.3-0.7-0.7-1-1c3.4-4,6.9-7.8,12.6-8.4C111.8,460.3,107.9,463.5,104.3,467z"/>
				<path d="M103.7,499.5c-0.4,0.4-0.8,0.8-1.2,1.1c-2.5-3-4.1-6.4-4.5-10.3c0.3,0,0.6,0,0.9,0C100.5,493.3,102.1,496.4,103.7,499.5
					z"/>
				<path d="M125.3,464.5c0.4,0,0.9,0,1.3-0.1c0,3.2,0.1,6.3,0.1,9.5c-0.5,0-1,0-1.4-0.1C125.3,470.7,125.3,467.6,125.3,464.5z"/>
				<path d="M115.2,499.7c-0.4-0.1-0.8-0.3-1.2-0.4c1.6-2.3,3-4.7,5.1-6.7c0.4,0,0.7,0.1,1.1,0.1C118.8,495.3,117,497.5,115.2,499.7
					z"/>
				<path d="M151,494.8c0.4,0.4,0.7,0.7,1.1,1.1c-0.2,1.7-1.2,2.9-2.3,4.1c-0.3-0.4-0.7-0.7-1-1.1
					C149.5,497.5,150.3,496.2,151,494.8z"/>
				<path d="M116.4,510.9c0.4-0.4,0.9-0.9,1.3-1.3c1,0.4,2.1,0.7,3.1,1.1c-0.1,0.5-0.1,1-0.2,1.5
					C119.1,512.2,117.6,511.9,116.4,510.9z"/>
				<path d="M105,499.9c-0.3,0.8-0.6,0.7-0.8-0.1C104.5,499.8,104.8,499.9,105,499.9z"/>
				<path d="M135.5,480.1c2.3-1,4.6-1.9,7.1-2.3c0,0.4,0,0.8,0,1.1c-2.2,1.1-4.5,1.9-6.9,2.2C135.7,480.8,135.6,480.5,135.5,480.1z"
					/>
			</g>
			<polygon points="106,478.2 119.7,482.7 119,480.7 105.5,476.5 			"/>
			<polygon points="130.8,492.2 138.2,503.3 139.5,502.2 131.5,490.3 			"/>
			<polygon points="134.5,482.2 147.2,478.3 145.7,476.2 133.2,480.8 			"/>
			<polygon points="114.5,501.2 121.3,491.8 119.7,491 112.7,500.7 			"/>
			<g>
				<path d="M126,514.5c-16.9,0-30.7-13.8-30.7-30.7c0-16.9,13.8-30.7,30.7-30.7s30.7,13.8,30.7,30.7
					C156.6,500.7,142.9,514.5,126,514.5z M126,457.2c-14.7,0-26.7,12-26.7,26.7s12,26.7,26.7,26.7s26.7-12,26.7-26.7
					S140.7,457.2,126,457.2z"/>
			</g>
		</g>
		<circle cx="239.2" cy="508.6" r="0.2"/>
		<rect x="16.7" y="353" class="st14" width="20" height="27"/>
		<rect x="216" y="353" class="st14" width="20" height="27"/>
		<polygon class="st3" points="97,621.5 97,583.5 89,583.5 89,627.5 89.5,627.5 97.3,627.5 111,627.5 111,621.5 		"/>
		<polygon class="st3" points="138,589.5 138,583.5 123.6,583.5 115.8,583.5 116,583.5 116,602.4 116,608.8 116,627.5 124,627.5 
			124,608.5 138,608.5 138,602.5 124,602.5 124,589.5 		"/>
		<path class="st3" d="M164,585.5c-2.2-1.4-4.8-2-7.4-2c-1.9,0-4.7,0-6.7,0h-2.4H142v44h8v-20h5.2c7.2,0,14.1-3.3,13.9-12.2
			c0-0.3,0-0.5,0-0.8C169.1,589.7,166.6,587.1,164,585.5z M161.2,596.1c0.1,4.6-3.5,6.4-7.2,6.4h-4v-13c0,0,3,0,4.8,0
			c1.4,0,2.7,0.5,3.8,1.2c1.3,0.8,2.7,2.3,2.7,4.8C161.2,595.7,161.2,595.9,161.2,596.1z"/>
	</g>
</g>
</svg>
