<?xml version="1.0" encoding="utf-8"?>
<!-- Generator: Adobe Illustrator 18.1.1, SVG Export Plug-In . SVG Version: 6.00 Build 0)  -->
<svg version="1.1" id="Layer_1" xmlns="http://www.w3.org/2000/svg" xmlns:xlink="http://www.w3.org/1999/xlink" x="0px" y="0px"
	 viewBox="15 0 580 792" enable-background="new 15 0 580 792" xml:space="preserve">
<g>
	<path fill="#E0A984" d="M219.6,102.8v98.7h-15V234c0,0-16.9,33.1-58.1,0v-67.5c0,0-12.5-2.5-12.5-16.9c0-14.4,14.4-7.5,14.4-7.5
		v-39.3H219.6z"/>
	<path fill="#4E2C07" d="M165.4,108.2c2-0.2,11.3-1.2,13.1-1.7c5.1-1.1,10.3-1.2,15.6-1.3c6.1-0.2,12.3-0.3,18.4-0.5
		c2-0.1,4-0.1,5.7,0.9c1.8,0.9,2.9,3.3,2,5.2c2.3,0.2,4.2-1.7,5.1-3.8c0.8-2.2,0.5-4.7,0.8-6.9c4.4-37.7-54.6-30.7-54.6-30.7
		c-8-0.2-40.6,2.4-41.3,43c-0.2,11.8-0.1,24,6.3,33.7c0.3-2,2.2-3.3,4-3.8c2.5-0.6,5.4-0.3,7.2,1.6s2.3,5.4,0.5,7.2
		c2.5,0.2,5,0.4,7.4,0.6c0.7-7.4,0.7-15-0.1-22.4C155.6,129.1,152.2,109.9,165.4,108.2z"/>
	<path fill="#4E2C07" d="M157,108c0,0,25.5,20,53.2,18.3c27.7-1.7,14.6-39.3,14.6-39.3L157,108z"/>
	<path fill="#231F20" d="M125.1,760.8h16.1c0,0,6.3,20.3-14.6,21.4H99.6c0,0-6-12.8,10.1-13.8C109.6,768.5,123.6,766.1,125.1,760.8z
		"/>
	<path fill="#231F20" d="M246.5,764.1h-16.1c0,0-6.3,20.3,14.6,21.4h27.1c0,0,6-12.8-10.1-13.8C262,771.8,248,769.5,246.5,764.1z"/>
	<polygon fill="#5D4E3F" points="243,442 251.4,764.9 224.2,766.5 176.4,530.1 148.1,764.7 113.8,764.1 105.1,440.8 	"/>
	<path fill="#A38A7B" d="M83.3,236.6c0,0,30.8-9.4,92.7-6.6c24.1,1.1,53-3.1,86.5,6.6L240,468.3c0,0-49.2,3.5-129.4-0.5L83.3,236.6z
		"/>
	<polygon fill="#A38A7B" points="105.8,427.4 98.4,536.1 161.4,536.1 178.6,465.3 197.4,536.1 257.6,536.1 244.1,425.8 	"/>
	<circle fill="#756957" cx="177.4" cy="412.5" r="7.3"/>
	<circle fill="#756957" cx="177.4" cy="440.8" r="7.3"/>
	<polygon fill="#FFFFFF" points="140,240.3 130.9,267.7 171.9,339.2 221.8,263.7 208.3,222.6 161.4,233.2 143.8,227.7 	"/>
	<polyline fill="#756957" points="228,273.7 244.1,258 206.3,215.3 206.3,227.9 219.6,262.9 172.6,338.4 	"/>
	<polyline fill="#756957" points="178.6,348 132.6,267 146.7,226.4 145.1,214.3 113,267.3 130.3,287.2 	"/>
	<polygon fill="#A38A7B" points="71.6,177 51.4,147.3 62.6,50.3 39.2,53.4 20.9,158.2 88.6,263.7 126.3,241.3 	"/>
	<circle fill="#D1D1D1" cx="175.7" cy="369.8" r="14.4"/>
	<rect x="168.5" y="353.6" fill="#D1D1D1" width="14.5" height="3.7"/>
	<rect x="167.7" y="369.7" fill="#D1D1D1" width="17.2" height="2.1"/>
	<rect x="168.5" y="350.5" fill="#D1D1D1" width="1.2" height="5"/>
	<rect x="181.7" y="350.5" fill="#D1D1D1" width="1.2" height="5"/>
	<polygon fill="#DF040B" points="141.1,234.8 170.4,353.2 181.2,353.2 211.8,232.9 199.2,239.7 174.6,331.3 150.4,237.5 	"/>
	<circle fill="#EEEDED" cx="175.7" cy="369.8" r="12.3"/>
	<polygon fill="#E6E5E5" points="176,229.9 158,267.5 135.1,231.7 145.9,218.2 	"/>
	<polygon fill="#E6E5E5" points="176,229.9 191.7,267.5 218.8,229.9 206.3,218.2 	"/>
	<path fill="#F1B88D" d="M36.7,49.8C31.8,5.2,50.9,5.1,57.5,7.2s1,26.3,1,26.3s1.4-10.2,6.5-8.4S69,39,69,39S68.8,59,55.1,59.6
		C41.5,60.3,36.7,49.8,36.7,49.8z"/>
	<path fill="#A38A7B" d="M262.5,236.5c0,0,27.5,42,76.9,50.2c0,0,5.5,29.7-9.3,37.6c0,0-60.6-10.9-84.8-38.4L262.5,236.5z"/>
	<path fill="#A38A7B" d="M327,323.8c0,0,13.4-19.7,6.4-38.3l12.9,2.2c0,0,0.3,31.4-9.5,37.7L327,323.8z"/>
	<path fill="#F1B88D" d="M346.4,287.7"/>
	<path fill="#A38A7B" d="M346.4,287.7c0,0,36.3,3,63.8-38.6l30,19.3c0,0-27.3,60.7-103.3,57.1c0,0-2.7-28.7,7.7-38"/>
	<g>
		<path fill="#E0A984" d="M337.4,246.5c0,0,53.1-30.7,160.1,0l-20.2,206.7c0,0-43.8,3.2-115.5-0.4L337.4,246.5z"/>
		<path fill="#E0A984" d="M458.4,127.2v88.1H445v29c0,0-15.1,29.6-51.8,0V184c0,0-11.2-2.3-11.2-15.1s12.8-6.7,12.8-6.7v-35.2h63.5
			V127.2z"/>
		<path fill="#4E2C07" d="M407.9,132.3c1.8-0.2,10-1.1,11.7-1.4c4.5-0.9,9.2-1.1,13.9-1.2c5.5-0.1,11-0.3,16.4-0.4
			c1.8,0,3.6-0.1,5.1,0.8c1.6,0.8,2.6,3,1.8,4.7c2,0.2,3.8-1.4,4.5-3.4c0.8-2,0.5-4.1,0.7-6.2c4-33.7-48.7-27.4-48.7-27.4
			c-7-0.2-19,8.1-25.2,11.5c-8.9,4.9-9.3,16.6-11.6,26.9s-0.1,21.4,5.6,30.1c0.2-1.8,2-3,3.6-3.4c2.2-0.6,4.8-0.2,6.4,1.4
			s2.1,4.8,0.4,6.5c2.2,0.2,4.4,0.3,6.6,0.5c0.7-6.6,0.6-13.3-0.1-20.1C399.3,151,396.2,133.9,407.9,132.3z"/>
		<polygon fill="#E0A984" points="337.4,246.5 246.4,328.6 337.4,461.3 357,433.6 286.7,335.7 353.8,271.7 		"/>
		<polygon fill="#2D2B2C" points="337.4,406.3 316.7,431.1 329,449.1 349.9,423.7 		"/>
		<polygon fill="#E0A984" points="497.5,246.5 591.4,320.4 519.5,423.7 498.2,407.7 553,327.6 487.6,280.1 		"/>
		<polygon fill="#875C3B" points="379.5,748.2 375.9,765 361.3,765 361.3,748.2 		"/>
		<path fill="#231F20" d="M361.3,765H376c0,0,5.7,18.4-13.2,19.5H338c0,0-5.4-11.7,9.2-12.5C347.2,772,359.9,769.9,361.3,765z"/>
		<polygon fill="#E0A984" points="365.3,451 359.4,748.2 379.5,748.2 423.8,497.3 446.3,748.2 465.5,748.2 473.3,449.3 		"/>
		<path fill="#231F20" d="M463.3,765h-14.7c0,0-5.7,18.4,13.2,19.5h24.7c0,0,5.4-11.7-9.2-12.5C477.4,772,464.7,769.9,463.3,765z"/>
		<polygon fill="#875C3B" points="379.5,748.2 375.9,765 361.3,765 361.3,748.2 		"/>
		<path fill="#231F20" d="M361.3,765H376c0,0,5.7,18.4-13.2,19.5H338c0,0-5.4-11.7,9.2-12.5C347.2,772,359.9,769.9,361.3,765z"/>
		<path fill="#231F20" d="M463.3,765h-14.7c0,0-5.7,18.4,13.2,19.5h24.7c0,0,5.4-11.7-9.2-12.5C477.4,772,464.7,769.9,463.3,765z"/>
		<polygon fill="#231F20" points="359.4,704.2 388.2,704.2 376.7,768.8 359.4,768.8 		"/>
		<polygon fill="#FFFFFF" points="362.8,450 362.8,473.9 476.1,473.9 477.6,450.6 		"/>
		<polyline fill="#B90F16" points="476.1,473.9 482,556.9 423.9,556.9 422.9,504.7 418.4,556.9 357,556.9 363.6,473.9 		"/>
		<polygon fill="#231F20" points="467.4,704.2 441,704.3 448,768.7 465.5,767.8 		"/>
		<polygon fill="#2D2B2C" points="499,402.2 520.8,426 509.3,444.5 487.4,420.2 		"/>
		<line fill="none" stroke="#EBEAEA" stroke-width="0.5" stroke-miterlimit="10" x1="496.3" y1="406.3" x2="518.9" y2="429.3"/>
		<circle fill="#D1D1D1" cx="421.2" cy="374.4" r="16.7"/>
		<rect x="412.5" y="356.3" fill="#D1D1D1" width="15.3" height="4"/>
		<rect x="412.5" y="353" fill="#D1D1D1" width="15.3" height="1.9"/>
		<rect x="412.5" y="353" fill="#D1D1D1" width="1.2" height="5.3"/>
		<rect x="426.5" y="353" fill="#D1D1D1" width="1.2" height="5.3"/>
		<polygon fill="#DF040B" points="379.1,234.4 414.4,355.9 425.9,355.9 458.4,237.3 445,235.3 418.6,327.1 393.1,233.1 		"/>
		<circle fill="#EEEDED" cx="421.2" cy="374.4" r="14.4"/>
		<path fill="#2D2B2C" d="M349.9,423.7c0,0,12.1-9.2,15,4c3,13.2,14.8,48.2-10.6,49.9c0,0-27.2,6.6-25.1-28.5
			C329,449.1,333.4,420.7,349.9,423.7z"/>
		<path fill="#2D2B2C" d="M487.4,420.2c0,0-12.5-8.7-14.8,4.7c-2.4,13.3-12.6,48.8,12.9,49.4c0,0,27.5,5.4,23.9-29.7
			C509.3,444.5,503.8,416.4,487.4,420.2z"/>
	</g>
	<polygon fill="#756957" points="130.9,238.5 145.2,214.2 151,220.2 137,254.1 	"/>
	<polygon fill="#756957" points="219.2,229.9 206.3,215.3 201.1,220.4 215,250.7 	"/>
	<rect x="216.8" y="293.1" fill="#E6E5E5" width="32.2" height="23.1"/>
	<text transform="matrix(1 0 0 1 224.7733 309.2279)" fill="#00662F" font-family="'Baskerville-SemiBold'" font-size="17.7936">M</text>
	<line fill="none" stroke="#DF040B" stroke-width="0.25" stroke-miterlimit="10" x1="216.8" y1="314.5" x2="249" y2="314.5"/>
	<line fill="none" stroke="#EBEAEA" stroke-width="0.5" stroke-miterlimit="10" x1="318.4" y1="433.4" x2="339.3" y2="409"/>
	<g>
		<path fill="#FFFFFF" d="M421.2,453c-1,0-2.1,0.2-3,0.5v16.9c0.9,0.3,2,0.5,3,0.5s2.1-0.2,3-0.5v-16.7
			C423.2,453.3,422.2,453,421.2,453z"/>
		<path fill="#00662F" d="M412.3,462c0,3.9,2.5,7.1,6,8.4v-16.7C414.7,454.8,412.3,458,412.3,462z"/>
		<path fill="#B90F16" d="M424.1,453.6v16.7c3.5-1.2,6-4.5,6-8.4C430.1,458,427.6,454.8,424.1,453.6z"/>
	</g>
	<text transform="matrix(1 0 0 1 458.3925 549.1273)" fill="#FFFFFF" font-family="'Baskerville-SemiBold'" font-size="17.7936">M</text>
</g>
</svg>
