<?xml version="1.0" encoding="utf-8"?>
<!-- Generator: Adobe Illustrator 18.1.1, SVG Export Plug-In . SVG Version: 6.00 Build 0)  -->
<svg version="1.1" id="Layer_1" xmlns="http://www.w3.org/2000/svg" xmlns:xlink="http://www.w3.org/1999/xlink" x="0px" y="0px"
	 viewBox="0 105 612 486" enable-background="new 0 105 612 486" xml:space="preserve">
<g>
	<rect x="88.7" y="385.1" fill="#1A1A1A" width="438.6" height="150"/>
	<rect x="88.7" y="335.1" fill="#CCCCCC" width="438.6" height="56"/>
	<rect x="88.7" y="401.2" fill="#CCCCCC" width="438.6" height="56"/>
	<rect x="89.6" y="526.4" fill="#C02126" width="426.6" height="19.6"/>
	<rect x="82.7" y="546.9" fill="#534741" width="79.8" height="28.6"/>
	<rect x="177.7" y="546.9" fill="#534741" width="79.8" height="28.6"/>
	<rect x="272.6" y="546.9" fill="#534741" width="79.8" height="28.6"/>
	<rect x="367.6" y="546.9" fill="#534741" width="79.8" height="28.6"/>
	<rect x="462.6" y="546.9" fill="#534741" width="79.8" height="28.6"/>
	<rect x="160" y="334" fill="#EBEBE9" width="18" height="241"/>
	<rect x="258" y="335" fill="#EBEBE9" width="17" height="240"/>
	<rect x="351" y="335" fill="#EBEBE9" width="18" height="240"/>
	<rect x="445" y="335" fill="#EBEBE9" width="18" height="240"/>
	<path fill="#EBEBE9" d="M166.8,191.4l-1.5,145.2h6.9l-1.5-145.2c0-2.7-0.9-4.8-1.9-4.8h0C167.7,186.6,166.9,188.7,166.8,191.4z"/>
	<path fill="#EBEBE9" d="M70.5,191.4L69,336.6h6.9l-1.5-145.2c0-2.7-0.9-4.8-1.9-4.8h0C71.4,186.6,70.5,188.7,70.5,191.4z"/>
	<path fill="#EBEBE9" d="M265.2,191.8l-1.5,145.2h6.9L269,191.8c0-2.7-0.9-4.8-1.9-4.8l0,0C266.1,186.9,265.3,189.1,265.2,191.8z"/>
	<path fill="#EBEBE9" d="M358.5,191.8l-1.5,145.2h6.9l-1.5-145.2c0-2.7-0.9-4.8-1.9-4.8l0,0C359.4,186.9,358.5,189.1,358.5,191.8z"
		/>
	<path fill="#EBEBE9" d="M452.1,191.8l-1.5,145.2h6.9l-1.5-145.2c0-2.7-0.9-4.8-1.9-4.8h0C452.9,186.9,452.1,189.1,452.1,191.8z"/>
	<path fill="#EBEBE9" d="M546.3,191.8l-1.5,145.2h6.9l-1.5-145.2c0-2.7-0.9-4.8-1.9-4.8l0,0C547.2,186.9,546.4,189.1,546.3,191.8z"
		/>
	<rect x="183.2" y="455.3" fill="#F2F2F2" width="4.6" height="70.6"/>
	<rect x="91.9" y="469.5" fill="#F2F2F2" width="425.9" height="4.6"/>
	<rect x="91.9" y="487" fill="#F2F2F2" width="425.9" height="4.6"/>
	<rect x="91.9" y="504.4" fill="#F2F2F2" width="425.9" height="4.6"/>
	<rect x="91.9" y="521.8" fill="#F2F2F2" width="425.9" height="4.6"/>
	<rect x="196" y="455.3" fill="#F2F2F2" width="4.6" height="70.6"/>
	<rect x="208.9" y="455.3" fill="#F2F2F2" width="4.6" height="70.6"/>
	<rect x="221.7" y="455.3" fill="#F2F2F2" width="4.6" height="70.6"/>
	<rect x="108.9" y="455.3" fill="#F2F2F2" width="4.6" height="70.6"/>
	<rect x="121.7" y="455.3" fill="#F2F2F2" width="4.6" height="70.6"/>
	<rect x="134.6" y="455.3" fill="#F2F2F2" width="4.6" height="70.6"/>
	<rect x="147.4" y="455.3" fill="#F2F2F2" width="4.6" height="70.6"/>
	<rect x="234.6" y="455.3" fill="#F2F2F2" width="4.6" height="70.6"/>
	<rect x="247.4" y="455.3" fill="#F2F2F2" width="4.6" height="70.6"/>
	<rect x="278.6" y="455.3" fill="#F2F2F2" width="4.6" height="70.6"/>
	<rect x="291.5" y="455.3" fill="#F2F2F2" width="4.6" height="70.6"/>
	<rect x="304.3" y="455.3" fill="#F2F2F2" width="4.6" height="70.6"/>
	<rect x="317.1" y="455.3" fill="#F2F2F2" width="4.6" height="70.6"/>
	<rect x="330" y="455.3" fill="#F2F2F2" width="4.6" height="70.6"/>
	<rect x="342.8" y="455.3" fill="#F2F2F2" width="4.6" height="70.6"/>
	<rect x="372.7" y="455.3" fill="#F2F2F2" width="4.6" height="70.6"/>
	<rect x="385.5" y="455.3" fill="#F2F2F2" width="4.6" height="70.6"/>
	<rect x="398.3" y="455.3" fill="#F2F2F2" width="4.6" height="70.6"/>
	<rect x="411.2" y="455.3" fill="#F2F2F2" width="4.6" height="70.6"/>
	<rect x="424" y="455.3" fill="#F2F2F2" width="4.6" height="70.6"/>
	<rect x="436.9" y="455.3" fill="#F2F2F2" width="4.6" height="70.6"/>
	<rect x="468.1" y="455.3" fill="#F2F2F2" width="4.6" height="70.6"/>
	<rect x="480.9" y="455.3" fill="#F2F2F2" width="4.6" height="70.6"/>
	<rect x="493.8" y="455.3" fill="#F2F2F2" width="4.6" height="70.6"/>
	<rect x="80.7" y="335" opacity="0.1" width="27.5" height="242.3"/>
	<rect x="177" y="335" opacity="0.1" width="6.8" height="242.3"/>
	<rect x="153.6" y="335" opacity="0.1" width="6.8" height="242.3"/>
	<rect x="250.6" y="335" opacity="0.1" width="6.8" height="242.3"/>
	<rect x="276.1" y="335" opacity="0.1" width="6.8" height="242.3"/>
	<rect x="111.6" y="391.2" opacity="0.1" width="360.5" height="9.9"/>
	<rect x="99.9" y="455.2" opacity="0.1" width="401" height="7.2"/>
	<rect x="343.5" y="335" opacity="0.1" width="6.8" height="242.3"/>
	<rect x="369" y="335" opacity="0.1" width="6.8" height="242.3"/>
	<rect x="437.8" y="335" opacity="0.1" width="6.8" height="242.3"/>
	<rect x="462.6" y="335" opacity="0.1" width="6.8" height="242.3"/>
	<rect x="501.1" y="335" opacity="0.1" width="27.5" height="242.3"/>
	<g>
		<rect x="24.9" y="327.1" fill="#EBEBE9" width="64.7" height="33.2"/>
		<rect x="16.7" y="356.3" fill="#EBEBE9" width="82.6" height="216.9"/>
		<polygon fill="#B3B3B3" points="99.2,527.1 16.6,540.3 16.6,526.5 99.2,513.3 		"/>
		<polygon fill="#CCCCCC" points="109.7,520.9 6.9,537.3 6.9,520.3 109.7,503.9 		"/>
		<polygon fill="#B3B3B3" points="99.2,490 16.6,503.2 16.6,489.4 99.2,476.2 		"/>
		<polygon fill="#CCCCCC" points="109.7,483.7 6.9,500.1 6.9,483.1 109.7,466.7 		"/>
		<polygon fill="#B3B3B3" points="99.2,452.8 16.6,466 16.6,452.2 99.2,439 		"/>
		<polygon fill="#CCCCCC" points="109.7,446.5 6.9,463 6.9,446 109.7,429.5 		"/>
		<polygon fill="#B3B3B3" points="99.2,415.7 16.6,428.9 16.6,415 99.2,401.9 		"/>
		<polygon fill="#CCCCCC" points="109.7,409.4 6.9,425.8 6.9,408.8 109.7,392.4 		"/>
		<polygon fill="#B3B3B3" points="99.2,378.5 16.6,391.7 16.6,377.9 99.2,364.7 		"/>
		<polygon fill="#CCCCCC" points="109.7,372.2 6.9,388.6 6.9,371.6 109.7,355.2 		"/>
		<rect x="24.9" y="298.4" fill="#EBEBE9" width="3.7" height="33"/>
		<rect x="85.5" y="298.4" fill="#EBEBE9" width="3.7" height="33"/>
		<rect x="68" y="298.4" fill="#EBEBE9" width="3.7" height="33"/>
		<rect x="41.4" y="298.4" fill="#EBEBE9" width="3.7" height="33"/>
		<rect x="25.4" y="306.7" fill="#EBEBE9" width="62.4" height="2.3"/>
		<rect x="28.1" y="332.4" fill="#CCCCCC" width="12.4" height="22.9"/>
		<rect x="72.2" y="332.4" fill="#CCCCCC" width="12.4" height="22.9"/>
		<rect x="44.2" y="332.4" fill="#CCCCCC" width="23.2" height="22.9"/>
	</g>
	<polygon fill="#CCCCCC" points="104.1,576 12.9,576 15.6,571.1 99.9,571.1 	"/>
	<g>
		<rect x="519" y="327.1" fill="#EBEBE9" width="64.7" height="33.2"/>
		<rect x="510.7" y="356.3" fill="#EBEBE9" width="82.6" height="216.9"/>
		<polygon fill="#B3B3B3" points="593.3,527.1 510.7,540.3 510.7,526.5 593.2,513.3 		"/>
		<polygon fill="#CCCCCC" points="603.7,520.9 501,537.3 501,520.3 603.7,503.9 		"/>
		<polygon fill="#B3B3B3" points="593.3,490 510.7,503.2 510.7,489.4 593.2,476.2 		"/>
		<polygon fill="#CCCCCC" points="603.7,483.7 501,500.1 501,483.1 603.7,466.7 		"/>
		<polygon fill="#B3B3B3" points="593.3,452.8 510.7,466 510.7,452.2 593.2,439 		"/>
		<polygon fill="#CCCCCC" points="603.7,446.5 501,463 501,446 603.7,429.5 		"/>
		<polygon fill="#B3B3B3" points="593.3,415.7 510.7,428.9 510.7,415 593.2,401.9 		"/>
		<polygon fill="#CCCCCC" points="603.7,409.4 501,425.8 501,408.8 603.7,392.4 		"/>
		<polygon fill="#B3B3B3" points="593.3,378.5 510.7,391.7 510.7,377.9 593.2,364.7 		"/>
		<polygon fill="#CCCCCC" points="603.7,372.2 501,388.6 501,371.6 603.7,355.2 		"/>
		<rect x="519" y="298.4" fill="#EBEBE9" width="3.7" height="33"/>
		<rect x="579.6" y="298.4" fill="#EBEBE9" width="3.7" height="33"/>
		<rect x="562.1" y="298.4" fill="#EBEBE9" width="3.7" height="33"/>
		<rect x="535.5" y="298.4" fill="#EBEBE9" width="3.7" height="33"/>
		<rect x="519.5" y="306.7" fill="#EBEBE9" width="62.4" height="2.3"/>
		<rect x="522.2" y="332.4" fill="#CCCCCC" width="12.4" height="22.9"/>
		<rect x="566.2" y="332.4" fill="#CCCCCC" width="12.4" height="22.9"/>
		<rect x="538.3" y="332.4" fill="#CCCCCC" width="23.2" height="22.9"/>
	</g>
	<polygon fill="#CCCCCC" points="597.4,576 506.3,576 509,571.1 593.3,571.1 	"/>
	<g>
		<path fill="#E91305" d="M284.9,382.9c0-3.1,0.3-6.2,1-9.3c0.1-0.4,0.2-0.5,0.6-0.4c2.8,0.7,5.6,1.1,8.5,1.1
			c6.4-0.1,12-2.3,16.6-6.8c0.4-0.4,0.7-0.9,1.1-1c0.4,0,0.7,0.6,1.1,1c4.9,4.8,10.9,6.9,17.6,6.8c2.5,0,5-0.5,7.5-1
			c0.5-0.1,0.6,0,0.6,0.4c2.8,15.2-0.8,28.5-11.1,40c-4.3,4.9-9.5,8.6-15.3,11.5c-0.3,0.2-0.6,0.2-0.9,0
			c-11.6-5.8-20.1-14.6-24.7-26.8C285.7,393.5,284.9,388.3,284.9,382.9z M338.7,381.3c-0.1-1.8-0.3-3.7-0.5-5.5
			c-0.1-0.5-0.2-0.6-0.7-0.5c-1.4,0.3-2.8,0.5-4.2,0.6c-7.6,0.6-14.4-1.4-20.1-6.7c-0.3-0.3-0.5-0.3-0.9,0c-1.7,1.6-3.6,3-5.7,4
			c-5.9,2.9-12,3.3-18.4,2.1c-0.6-0.1-0.8-0.1-0.9,0.6c-1,6.5-0.7,12.9,1.2,19.1c3.9,12.8,12.1,21.9,23.8,28.1c0.4,0.2,0.6,0.2,1,0
			c3.3-1.7,6.4-3.7,9.2-6.1c5.7-4.8,10.1-10.5,12.9-17.3C337.8,393.9,338.9,387.7,338.7,381.3z"/>
		<path fill="#FEFEFE" d="M338.7,381.3c0.2,6.4-0.8,12.6-3.3,18.5c-2.9,6.8-7.3,12.6-12.9,17.3c-2.8,2.4-5.9,4.4-9.2,6.1
			c-0.4,0.2-0.6,0.2-1,0c-11.7-6.2-19.9-15.3-23.8-28.1c-1.9-6.3-2.2-12.6-1.2-19.1c0.1-0.7,0.3-0.7,0.9-0.6
			c6.3,1.2,12.5,0.9,18.4-2.1c2.1-1.1,4-2.4,5.7-4c0.3-0.3,0.5-0.3,0.9,0c5.7,5.2,12.5,7.2,20.1,6.7c1.4-0.1,2.8-0.3,4.2-0.6
			c0.4-0.1,0.6,0,0.7,0.5C338.4,377.7,338.6,379.5,338.7,381.3z M312.6,387.5c5,0,10,0,15,0c2.8,0,5.7,0,8.5,0c0.4,0,0.6,0,0.7-0.5
			c0.2-3,0.2-6-0.1-9.1c-0.1-0.5-0.2-0.5-0.6-0.4c-1.2,0.2-2.4,0.3-3.7,0.4c-7.2,0.2-13.7-1.5-19.3-6.2c-0.3-0.3-0.5-0.2-0.8,0.1
			c-1.1,1-2.3,1.8-3.5,2.5c-6,3.4-12.5,4.3-19.3,3.3c-0.5-0.1-0.6,0-0.7,0.5c-0.3,2.9-0.3,5.8-0.1,8.7c0,0.6,0.2,0.8,0.8,0.8
			C297.2,387.4,304.9,387.5,312.6,387.5z M315.5,404.6c0-4.9,0-9.8,0-14.7c0-0.5-0.1-0.7-0.7-0.7c-1.4,0-2.9,0-4.3,0
			c-0.6,0-0.8,0.1-0.8,0.7c0,7.5,0,15,0,22.5c0,2.3,0,4.6,0,7c0,0.2-0.1,0.5,0.2,0.6c0.9,0.5,1.7,1.2,2.6,1.3c0.6,0.1,1.3-0.6,2-0.9
			c0.1-0.1,0.2-0.1,0.3-0.2c0.5-0.2,0.6-0.5,0.6-1C315.5,414.4,315.5,409.5,315.5,404.6z M320.4,416.4c0.1,0,0.2,0,0.2,0
			c1.9-1.5,3.7-3.2,5.3-5c0.2-0.2,0.2-0.4,0.2-0.7c0-7,0-14,0-21.1c0-0.4-0.1-0.5-0.5-0.5c-1.5,0-2.9,0-4.4,0
			c-0.6,0-0.8,0.1-0.8,0.8c0,8.6,0,17.2,0,25.8C320.4,416,320.4,416.2,320.4,416.4z M305,416.5c0-0.6,0-1.1,0-1.6c0-8.3,0-16.7,0-25
			c0-0.6-0.1-0.8-0.8-0.8c-1.5,0-2.9,0-4.4,0c-0.5,0-0.7,0.1-0.6,0.6c0,6.9,0,13.9,0,20.8c0,0.4,0.1,0.6,0.3,0.9
			c0.8,0.8,1.6,1.7,2.5,2.5C303,414.9,303.9,415.7,305,416.5z M294.5,404.3c0-4.9,0-9.8,0-14.7c0-0.3-0.1-0.5-0.4-0.5
			c-1.5,0-3.1,0-4.6,0c-0.4,0-0.5,0.1-0.4,0.5c0.3,1.9,0.7,3.7,1.3,5.5C291.3,398.4,292.6,401.5,294.5,404.3z M330.9,404.3
			c2.9-4.6,4.6-9.5,5.5-14.7c0.1-0.4-0.1-0.4-0.4-0.4c-1.5,0-3,0-4.4,0c-0.6,0-0.7,0.1-0.7,0.7c0,3.8,0,7.7,0,11.5
			C330.9,402.4,330.9,403.4,330.9,404.3z"/>
		<path fill="#E91305" d="M312.6,387.5c-7.7,0-15.5,0-23.2,0c-0.6,0-0.8-0.2-0.8-0.8c-0.2-2.9-0.2-5.8,0.1-8.7
			c0.1-0.5,0.2-0.6,0.7-0.5c6.8,1,13.2,0.1,19.3-3.3c1.3-0.7,2.4-1.6,3.5-2.5c0.3-0.2,0.5-0.3,0.8-0.1c5.6,4.7,12.1,6.4,19.3,6.2
			c1.2,0,2.5-0.2,3.7-0.4c0.4-0.1,0.6-0.1,0.6,0.4c0.4,3,0.3,6,0.1,9.1c0,0.5-0.3,0.5-0.7,0.5c-2.8,0-5.7,0-8.5,0
			C322.6,387.5,317.6,387.5,312.6,387.5z M313.2,380.3c0,1.6,0,3.2,0,4.8c0,1.2,0,1.2,1.2,1.2c0.4,0,0.6-0.1,0.6-0.6
			c0-0.7,0-1.5,0-2.3c0-0.2-0.1-0.3,0.1-0.5c0.1-0.1,2.2,0.3,2.3,0.4c0,0.1,0.1,0.3,0.1,0.4c0,0.6,0,1.2,0,1.8
			c0,0.5,0.1,0.7,0.6,0.6c0.2,0,0.3,0,0.5,0c0.6,0.1,0.7-0.2,0.7-0.7c0-2.4,0-4.8,0-7.3c0-0.8-0.3-1.4-1-1.7
			c-1.3-0.6-2.6-1.4-3.8-2.1c-0.3-0.2-0.5-0.4-0.8-0.3c-0.4,0.2-0.3,0.6-0.3,1C313.2,376.9,313.2,378.6,313.2,380.3z M295.8,384.3
			c-0.1-0.1-0.2-0.1-0.2-0.1c-0.5-1-0.9-1.9-1.4-2.9c-0.9-1.9-0.9-1.9-3-2c-0.5,0-0.6,0.1-0.6,0.6c0,1.8,0,3.6,0,5.4c0,1,0,1,1,1.1
			c0.6,0,0.8-0.2,0.7-0.8c0-1.3,0-2.7,0-4c0.2,0.1,0.3,0.2,0.4,0.4c0.6,1.3,1.2,2.6,1.9,3.9c0.1,0.2,0.2,0.5,0.5,0.5
			c0.7,0,1.4,0,2,0c0.3,0,0.4-0.1,0.4-0.4c0-2.1,0-4.2,0-6.2c0-0.3-0.1-0.4-0.4-0.4c-0.2,0-0.4,0.1-0.6,0.1c-0.5,0-0.7,0.2-0.7,0.7
			C295.9,381.4,295.8,382.8,295.8,384.3z M309.7,377.7c1.7-0.6,2-1.1,1.8-2.5c-0.1-0.6-0.4-0.8-1-0.5c-1.4,0.8-2.7,1.5-4.2,2.2
			c-0.6,0.3-0.9,0.8-0.9,1.5c0,2.2,0,4.5,0,6.7c0,0.8,0.3,1.1,1.1,1.1c1.2,0,2.4,0,3.6,0c0.9,0,1.2-0.3,1.3-1.1c0-0.4,0-0.8,0-1.2
			c0-0.1,0-0.2-0.1-0.3c-0.3-0.2-1.7,0.2-1.7,0.6c-0.1,0.5-0.3,0.6-0.7,0.6c-0.3,0-0.5,0-0.8,0.1c-0.6,0.1-0.9-0.1-0.9-0.8
			c0-1.5,0.1-3,0-4.5c-0.1-1.3,0.3-2.1,1.6-2.4C309.4,377.1,309.8,376.8,309.7,377.7z M334.7,383c0-0.9,0-1.8,0-2.8
			c0-0.7-0.3-1-1-0.9c-1.3,0.1-2.7,0-4,0c-0.8,0-1.1,0.2-1.1,1.1c0,1.5,0,3,0,4.5c0,1.5,0,1.4,1.4,1.4c0.3,0,0.4-0.1,0.4-0.4
			c0-0.5-0.2-1.2,0.1-1.5c0.4-0.3,1,0,1.5-0.1c0.6-0.1,0.7,0.1,0.7,0.7c0,1.3,0,1.3,1.3,1.3c0.5,0,0.6-0.2,0.5-0.6
			C334.7,384.8,334.7,383.9,334.7,383z M327.3,386.3c-0.3-0.5-0.6-1-0.9-1.4c-0.5-0.8-1.2-1.5-1.3-2.3c-0.1-0.8,0.8-1.6,1.3-2.4
			c0.6-1,0.6-1-0.5-1.2c-0.6-0.1-0.8,0-1,0.5c-0.2,0.6-0.6,1.2-0.9,1.9c-0.1-0.1-0.1-0.1-0.1-0.1c-0.3-0.6-0.6-1.3-0.8-1.9
			c-0.4-1.1-1.2-1.6-2.5-1.5c0.6,1.3,1.2,2.7,1.8,4c0.2,0.4,0.1,0.6,0,0.9c-0.5,0.8-1,1.7-1.4,2.5c-0.6,1.1-0.6,1.1,0.7,1.1
			c0.5,0,0.8-0.1,1-0.7c0.3-0.8,0.7-1.5,1.1-2.4c0.3,0.6,0.5,1,0.7,1.4C325.3,386.4,325.3,386.4,327.3,386.3z M299.3,382.6
			c0,1.1,0,2.1,0,3.2c0,0.4,0.1,0.5,0.5,0.5c1.3,0,2.5,0,3.8,0c0.5,0,0.6-0.2,0.6-0.7c0-0.6-0.3-0.5-0.7-0.5c-0.5,0-1,0.1-1.5,0.1
			c-0.9,0-0.9,0-0.9-0.9c0-0.4,0-0.7,0-1.1c0-0.3,0.1-0.5,0.5-0.5c0.7-0.1,1.3-0.2,2-0.2c0.7,0,0.7-0.5,0.6-0.9
			c-0.1-0.6-0.5-0.2-0.8-0.2c-0.3,0-0.6,0.1-0.9,0.1c-1.5,0.3-1.5,0.3-1.5-1.2c0-0.5,0.1-0.7,0.6-0.8c0.7-0.1,1.4-0.3,2.1-0.5
			c0.6-0.1,0.4-0.7,0.4-1c0-0.5-0.4-0.2-0.6-0.1c-1.2,0.3-2.4,0.6-3.7,0.8c-0.4,0.1-0.6,0.2-0.6,0.7
			C299.3,380.5,299.3,381.6,299.3,382.6z"/>
		<path fill="#E91305" d="M315.5,404.6c0,4.9,0,9.8,0,14.7c0,0.5-0.1,0.8-0.6,1c-0.1,0-0.2,0.1-0.3,0.2c-0.7,0.4-1.3,1.1-2,0.9
			c-0.9-0.2-1.7-0.9-2.6-1.3c-0.3-0.2-0.2-0.4-0.2-0.6c0-2.3,0-4.6,0-7c0-7.5,0-15,0-22.5c0-0.6,0.2-0.8,0.8-0.7c1.4,0,2.9,0,4.3,0
			c0.6,0,0.7,0.2,0.7,0.7C315.5,394.7,315.5,399.7,315.5,404.6z"/>
		<path fill="#E91305" d="M320.4,416.4c0-0.2,0-0.4,0-0.6c0-8.6,0-17.2,0-25.8c0-0.7,0.2-0.8,0.8-0.8c1.5,0,2.9,0,4.4,0
			c0.4,0,0.5,0.1,0.5,0.5c0,7,0,14,0,21.1c0,0.2,0,0.5-0.2,0.7c-1.6,1.8-3.4,3.4-5.3,5C320.6,416.4,320.5,416.4,320.4,416.4z"/>
		<path fill="#E91305" d="M305,416.5c-1.1-0.8-2-1.6-2.9-2.4c-0.9-0.8-1.7-1.7-2.5-2.5c-0.3-0.3-0.3-0.5-0.3-0.9
			c0-6.9,0-13.9,0-20.8c0-0.5,0.2-0.6,0.6-0.6c1.5,0,2.9,0,4.4,0c0.6,0,0.8,0.1,0.8,0.8c0,8.3,0,16.7,0,25
			C305,415.4,305,415.9,305,416.5z"/>
		<path fill="#E91305" d="M294.5,404.3c-1.9-2.9-3.2-6-4.2-9.2c-0.6-1.8-0.9-3.6-1.3-5.5c-0.1-0.4,0-0.5,0.4-0.5c1.5,0,3.1,0,4.6,0
			c0.4,0,0.4,0.1,0.4,0.5C294.5,394.5,294.5,399.4,294.5,404.3z"/>
		<path fill="#E91305" d="M330.9,404.3c0-1,0-2,0-3c0-3.8,0-7.7,0-11.5c0-0.5,0.1-0.7,0.7-0.7c1.5,0,3,0,4.4,0
			c0.3,0,0.5,0.1,0.4,0.4C335.5,394.8,333.8,399.8,330.9,404.3z"/>
		<path fill="#FEFEFE" d="M313.2,380.3c0-1.7,0-3.4,0-5.2c0-0.4-0.1-0.8,0.3-1c0.3-0.2,0.6,0.1,0.8,0.3c1.2,0.8,2.5,1.5,3.8,2.1
			c0.7,0.4,1.1,0.9,1,1.7c0,2.4,0,4.8,0,7.3c0,0.5-0.1,0.8-0.7,0.7c-0.2,0-0.3,0-0.5,0c-0.5,0.1-0.7-0.1-0.6-0.6c0-0.6,0-1.2,0-1.8
			c0-0.1,0-0.3-0.1-0.4c0-0.1-2.2-0.5-2.3-0.4c-0.2,0.1-0.1,0.3-0.1,0.5c0,0.8,0,1.5,0,2.3c0,0.5-0.1,0.6-0.6,0.6
			c-1.2,0-1.2,0-1.2-1.2C313.2,383.5,313.2,381.9,313.2,380.3z M315,379.2c0.1,0.6-0.3,1.5,0.1,2.1c0.3,0.4,1.1,0.4,1.7,0.5
			c0.4,0.1,0.6,0,0.6-0.4c0-0.6,0-1.3,0-1.9c0-2.3,0-1.8-1.7-2.7c0,0-0.1,0-0.1-0.1c-0.5-0.3-0.6,0-0.6,0.4
			C315,377.8,315,378.4,315,379.2z"/>
		<path fill="#FEFEFE" d="M295.8,384.3c0-1.5,0-2.9,0-4.3c0-0.5,0.2-0.8,0.7-0.7c0.2,0,0.4,0,0.6-0.1c0.3-0.1,0.4,0.1,0.4,0.4
			c0,2.1,0,4.2,0,6.2c0,0.3-0.1,0.4-0.4,0.4c-0.7,0-1.4,0-2,0c-0.4,0-0.4-0.2-0.5-0.5c-0.6-1.3-1.2-2.6-1.9-3.9
			c-0.1-0.1-0.1-0.3-0.4-0.4c0,1.3,0,2.7,0,4c0,0.6-0.1,0.8-0.7,0.8c-1-0.1-1,0-1-1.1c0-1.8,0-3.6,0-5.4c0-0.5,0.1-0.6,0.6-0.6
			c2.1,0.1,2.1,0.1,3,2c0.5,1,0.9,1.9,1.4,2.9C295.6,384.2,295.7,384.2,295.8,384.3z"/>
		<path fill="#FEFEFE" d="M309.7,377.7c0.1-0.9-0.4-0.6-0.9-0.5c-1.3,0.3-1.7,1.1-1.6,2.4c0.1,1.5,0,3,0,4.5c0,0.7,0.2,0.9,0.9,0.8
			c0.3-0.1,0.5-0.1,0.8-0.1c0.4,0,0.7-0.2,0.7-0.6c0-0.4,1.5-0.8,1.7-0.6c0.1,0.1,0.1,0.2,0.1,0.3c0,0.4,0,0.8,0,1.2
			c-0.1,0.9-0.4,1.1-1.3,1.1c-1.2,0-2.4,0-3.6,0c-0.8,0-1.1-0.3-1.1-1.1c0-2.2,0-4.5,0-6.7c0-0.7,0.3-1.2,0.9-1.5
			c1.4-0.7,2.8-1.4,4.2-2.2c0.6-0.3,0.8-0.2,1,0.5C311.8,376.6,311.5,377.1,309.7,377.7z"/>
		<path fill="#FEFEFE" d="M334.7,383c0,0.9,0,1.8,0,2.7c0,0.4-0.1,0.6-0.5,0.6c-1.3,0-1.3,0-1.3-1.3c0-0.6-0.1-0.8-0.7-0.7
			c-0.5,0.1-1.2-0.2-1.5,0.1c-0.3,0.3-0.1,1-0.1,1.5c0,0.3-0.1,0.4-0.4,0.4c-1.4,0.1-1.4,0.1-1.4-1.4c0-1.5,0-3,0-4.5
			c0-0.8,0.2-1.1,1.1-1.1c1.3,0,2.7,0,4,0c0.7,0,1,0.3,1,0.9C334.8,381.2,334.7,382.1,334.7,383z M332.9,381.8
			c0-1.7,0.2-1.4-1.5-1.5c0,0,0,0-0.1,0c-0.7-0.1-0.9,0.2-0.8,0.9c0,0.4,0.1,0.8,0,1.2c-0.1,0.7,0.2,0.9,0.9,0.9
			C332.9,383.3,332.9,383.3,332.9,381.8z"/>
		<path fill="#FEFEFE" d="M327.3,386.3c-2.1,0.1-2.1,0.1-2.9-1.6c-0.2-0.4-0.4-0.9-0.7-1.4c-0.4,0.9-0.8,1.6-1.1,2.4
			c-0.2,0.5-0.5,0.7-1,0.7c-1.3,0-1.3,0-0.7-1.1c0.5-0.8,0.9-1.7,1.4-2.5c0.2-0.3,0.2-0.6,0-0.9c-0.6-1.3-1.2-2.6-1.8-4
			c1.3-0.1,2.1,0.4,2.5,1.5c0.3,0.6,0.5,1.3,0.8,1.9c0,0,0.1,0.1,0.1,0.1c0.3-0.6,0.6-1.2,0.9-1.9c0.2-0.5,0.5-0.7,1-0.5
			c1.2,0.3,1.2,0.2,0.5,1.2c-0.5,0.8-1.3,1.5-1.3,2.4c0.1,0.8,0.8,1.6,1.3,2.3C326.7,385.3,327,385.7,327.3,386.3z"/>
		<path fill="#FEFEFE" d="M299.3,382.6c0-1,0-2,0-3.1c0-0.5,0.2-0.6,0.6-0.7c1.2-0.3,2.4-0.6,3.7-0.8c0.2,0,0.6-0.4,0.6,0.1
			c0,0.3,0.3,0.9-0.4,1c-0.7,0.2-1.4,0.4-2.1,0.5c-0.5,0.1-0.6,0.3-0.6,0.8c0,1.5,0,1.5,1.5,1.2c0.3-0.1,0.6-0.1,0.9-0.1
			c0.3,0,0.7-0.4,0.8,0.2c0,0.5,0.1,0.9-0.6,0.9c-0.7,0-1.3,0.2-2,0.2c-0.3,0-0.5,0.1-0.5,0.5c0,0.4,0,0.7,0,1.1
			c0,0.9,0,0.9,0.9,0.9c0.5,0,1-0.1,1.5-0.1c0.4,0,0.7-0.1,0.7,0.5c0,0.5-0.1,0.7-0.6,0.7c-1.3,0-2.5,0-3.8,0
			c-0.4,0-0.5-0.1-0.5-0.5C299.3,384.7,299.3,383.6,299.3,382.6z"/>
		<path fill="#E91305" d="M315,379.2c0-0.8,0-1.4,0-2c0-0.4,0.2-0.7,0.6-0.4c0,0,0.1,0,0.1,0.1c1.7,0.9,1.7,0.4,1.7,2.7
			c0,0.6,0,1.3,0,1.9c0,0.5-0.2,0.5-0.6,0.4c-0.6-0.2-1.5-0.1-1.7-0.5C314.7,380.7,315,379.8,315,379.2z"/>
		<path fill="#E91305" d="M332.9,381.8c0,1.5,0,1.5-1.5,1.5c-0.7,0-1-0.2-0.9-0.9c0.1-0.4,0-0.8,0-1.2c-0.1-0.7,0.2-1,0.8-0.9
			c0,0,0,0,0.1,0C333.1,380.4,332.9,380.2,332.9,381.8z"/>
	</g>
	<g>
		<g>
			<path fill="#FFFFFF" d="M141,247.8c-0.4-0.2-9.5-4.9-12.9-15.3c-2.4-7.3-1.3-15.6,3.3-24.5c9.3-18.2-1.8-25.1-10.7-30.6
				c-4.2-2.6-7.8-4.9-8.9-7.9c-3.3-9.4,7.8-22.9,8.3-23.4l1.1,0.9c-0.1,0.1-11,13.4-8,22.1c0.9,2.6,4.3,4.7,8.3,7.2
				c8.9,5.5,21.2,13.1,11.2,32.4c-4.4,8.6-5.5,16.5-3.2,23.4c3.2,9.8,12.1,14.4,12.2,14.5L141,247.8z"/>
		</g>
		<path fill="#F2F2F2" d="M141.2,132.3c0.4-2,0.7-6.8,2.7-5.6c-0.8-6.8-4.9-14.1-14.5-15c-14.3-1.3-20.4,14.1-16.7,25.4
			c1.2,3.8,4.4,11.6,11.8,10.7c0.6-0.1,1.2-0.2,1.8-0.3c0.6-0.9,3.6-0.3,4.7-1.4C135.7,141.5,140.3,136.6,141.2,132.3z"/>
		<path fill="#F2F2F2" d="M143.1,135.3c0.8-2.2,1.2-5.4,0.8-8.6c-1.9-1.2-4.6-1.8-4.3,0.3c1.2,8.4-4.7,14.2-8.2,16
			c-1.3,0.7-4.5,3.7-5.1,4.6C133.1,146.2,140.8,141.6,143.1,135.3z"/>
		<polygon fill="#F2F2F2" points="119.1,144 115.5,149.3 121.9,152.3 121,144.2 		"/>
	</g>
	<g>
		<g>
			<path fill="#FFFFFF" d="M473.9,284.5c0.4-0.2,9.5-4.9,12.9-15.3c2.4-7.3,1.3-15.6-3.3-24.5c-9.3-18.2,1.8-25.1,10.7-30.6
				c4.2-2.6,7.8-4.9,8.9-7.9c3.3-9.4-7.8-22.9-8.3-23.4l-1.1,0.9c0.1,0.1,11,13.4,8,22.1c-0.9,2.6-4.3,4.7-8.3,7.2
				c-8.9,5.5-21.2,13.1-11.2,32.4c4.4,8.6,5.5,16.5,3.2,23.4c-3.2,9.8-12.1,14.4-12.2,14.5L473.9,284.5z"/>
		</g>
		<path fill="#F2F2F2" d="M473.8,169c-0.4-2-0.7-6.8-2.7-5.6c0.8-6.8,4.9-14.1,14.5-15c14.3-1.3,20.4,14.1,16.7,25.4
			c-1.2,3.8-4.4,11.6-11.8,10.7c-0.6-0.1-1.2-0.2-1.8-0.3c-0.6-0.9-3.6-0.3-4.7-1.4C479.3,178.2,474.7,173.3,473.8,169z"/>
		<path fill="#F2F2F2" d="M471.8,172c-0.8-2.2-1.2-5.4-0.8-8.6c1.9-1.2,4.6-1.8,4.3,0.3c-1.2,8.4,4.7,14.2,8.2,16
			c1.3,0.7,4.5,3.7,5.1,4.6C481.8,182.9,474.2,178.3,471.8,172z"/>
		<polygon fill="#F2F2F2" points="495.8,180.7 499.4,186 493.1,189 494,180.9 		"/>
	</g>
	<g>
		<g>
			<path fill="#FFFFFF" d="M196.9,289.9l-0.5-1.3c0.1,0,7.9-3,11.5-10.8c2.5-5.5,2.4-12.2-0.5-19.7c-6.5-17.1,4.5-22.3,12.5-26
				c3.5-1.7,6.6-3.1,7.5-5.1c3.3-6.8-4.5-18.9-4.5-19l1.2-0.8c0.3,0.5,8.3,12.8,4.6,20.4c-1.2,2.5-4.4,4-8.2,5.8
				c-7.9,3.7-17.8,8.4-11.8,24.3c3,7.9,3.1,14.9,0.4,20.8C205.3,286.7,197.2,289.7,196.9,289.9z"/>
		</g>
		<path fill="#ED1C24" d="M207.8,193.7c-0.2-1.7,0-5.7-1.7-5c1.3-5.6,5.4-11.2,13.5-11.1c12,0.3,15.6,13.7,11.5,22.7
			c-1.4,3-4.8,9.2-10.8,7.8c-0.5-0.1-1-0.3-1.4-0.4c-0.4-0.8-3-0.6-3.8-1.6C211.5,201.9,208.1,197.3,207.8,193.7z"/>
		<path fill="#ED1C24" d="M205.9,196c-0.5-1.9-0.4-4.6,0.2-7.3c1.7-0.8,4-1,3.6,0.6c-1.8,6.8,2.5,12.2,5.3,14.1
			c1,0.7,3.4,3.5,3.8,4.3C213.1,206,207.2,201.5,205.9,196z"/>
		<polygon fill="#ED1C24" points="225,205.5 227.5,210.3 221.9,212.2 223.4,205.6 		"/>
	</g>
	<g>
		<g>
			<path fill="#FFFFFF" d="M336.8,321.1l0.5-1.3c-0.1,0-7.9-3-11.5-10.8c-2.5-5.5-2.4-12.2,0.5-19.7c6.5-17.1-4.5-22.3-12.5-26
				c-3.5-1.7-6.6-3.1-7.5-5.1c-3.3-6.8,4.5-18.9,4.5-19l-1.2-0.8c-0.3,0.5-8.3,12.8-4.6,20.4c1.2,2.5,4.4,4,8.2,5.8
				c7.9,3.7,17.8,8.4,11.8,24.3c-3,7.9-3.1,14.9-0.4,20.8C328.4,317.9,336.5,320.9,336.8,321.1z"/>
		</g>
		<path fill="#ED1C24" d="M325.9,224.9c0.2-1.7,0-5.7,1.7-5c-1.3-5.6-5.4-11.2-13.5-11.1c-12,0.3-15.6,13.7-11.5,22.7
			c1.4,3,4.8,9.2,10.8,7.8c0.5-0.1,1-0.3,1.4-0.4c0.4-0.8,3-0.6,3.8-1.6C322.2,233.1,325.6,228.5,325.9,224.9z"/>
		<path fill="#ED1C24" d="M327.8,227.2c0.5-1.9,0.4-4.6-0.2-7.3c-1.7-0.8-4-1-3.6,0.6c1.8,6.8-2.5,12.2-5.3,14.1
			c-1,0.7-3.4,3.5-3.8,4.3C320.6,237.2,326.5,232.7,327.8,227.2z"/>
		<polygon fill="#ED1C24" points="308.7,236.7 306.2,241.5 311.8,243.4 310.3,236.8 		"/>
	</g>
	<g>
		<g>
			<path fill="#FFFFFF" d="M415.6,225.6l0.5-1.3c-0.1,0-7.9-3-11.5-10.8c-2.5-5.5-2.4-12.2,0.5-19.7c6.5-17.1-4.5-22.3-12.5-26
				c-3.5-1.7-6.6-3.1-7.5-5.1c-3.3-6.8,4.5-18.9,4.5-19l-1.2-0.8c-0.3,0.5-8.3,12.8-4.6,20.4c1.2,2.5,4.4,4,8.2,5.8
				c7.9,3.7,17.8,8.4,11.8,24.3c-3,7.9-3.1,14.9-0.4,20.8C407.2,222.5,415.2,225.5,415.6,225.6z"/>
		</g>
		<path fill="#ED1C24" d="M404.7,129.5c0.2-1.7,0-5.7,1.7-5c-1.3-5.6-5.4-11.2-13.5-11.1c-12,0.3-15.6,13.7-11.5,22.7
			c1.4,3,4.8,9.2,10.8,7.8c0.5-0.1,1-0.3,1.4-0.4c0.4-0.8,3-0.6,3.8-1.6C401,137.6,404.4,133.1,404.7,129.5z"/>
		<path fill="#ED1C24" d="M406.6,131.8c0.5-1.9,0.4-4.6-0.2-7.3c-1.7-0.8-4-1-3.6,0.6c1.8,6.8-2.5,12.2-5.3,14.1
			c-1,0.7-3.4,3.5-3.8,4.3C399.3,141.8,405.3,137.3,406.6,131.8z"/>
		<polygon fill="#ED1C24" points="387.5,141.3 385,146.1 390.5,147.9 389.1,141.3 		"/>
	</g>
</g>
</svg>
