<?xml version="1.0" encoding="utf-8"?>
<!-- Generator: Adobe Illustrator 18.1.1, SVG Export Plug-In . SVG Version: 6.00 Build 0)  -->
<svg version="1.1" id="Layer_1" xmlns="http://www.w3.org/2000/svg" xmlns:xlink="http://www.w3.org/1999/xlink" x="0px" y="0px"
	 viewBox="116 13 392 765" enable-background="new 116 13 392 765" xml:space="preserve">
<g>
	<path fill="#DF040B" d="M223.8,53.5c0,0,5.7-7.3,11,0.8c5.3,8.1-1.7,12-3.9,12.2C228.6,66.6,222.8,65.2,223.8,53.5z"/>
	<path fill="#DF040B" d="M394.3,49.4c0,0-7.9-4.8-9.9,4.7s5.8,10.6,8,10C394.5,63.4,399.4,60,394.3,49.4z"/>
	<polygon fill="#E0A984" points="395.3,228.5 413.9,204.5 410.6,130.1 429.2,125.9 439.1,215.3 376.3,300.8 345.7,279.9 	"/>
	<polygon fill="#DEDDDD" points="400.6,118 402.5,135.8 433.2,128.9 430.8,119.9 	"/>
	<polygon fill="#484747" points="402.3,133.6 402.5,135.8 433.2,128.9 433.3,126.7 	"/>
	<polygon fill="#E0A984" points="222.6,221.1 205.6,195.9 215.1,113.9 195.3,116.5 179.8,205.1 237,294.4 268.9,275.5 	"/>
	<path fill="#DEDDDD" d="M186.1,128.2v8.6l34.3-8.6v-14.3C220.4,113.9,189.3,120.8,186.1,128.2z"/>
	<polygon fill="#484747" points="186.1,136.8 220.4,128.2 220.4,125.3 186.1,134.5 	"/>
	<polyline fill="#00A483" points="279.3,28.4 123.1,119.9 132.2,157.8 271,95.2 	"/>
	<polygon fill="#00A483" points="226.1,108.8 284.6,114 267.4,90.6 	"/>
	<polyline fill="#009777" points="279.3,28.4 226.1,59.4 236.2,110.6 284.6,112.6 	"/>
	<polyline fill="#00A483" points="339.1,28.4 502.9,117.5 495.3,157.8 347.5,95.2 	"/>
	<polyline fill="#009777" points="339.1,28.4 392.4,59.4 382.3,110.6 333.9,112.6 	"/>
	<polygon fill="#875C3B" points="273.7,739.6 270.4,755.2 256.8,755.2 256.8,739.6 	"/>
	<path fill="#231F20" d="M256.8,755.2h13.6c0,0,5.3,17.1-12.3,18.1h-22.9c0,0-5-10.8,8.6-11.6C243.7,761.8,255.5,759.8,256.8,755.2z
		"/>
	<path fill="#231F20" d="M351.7,755.2H338c0,0-5.3,17.1,12.3,18.1h22.9c0,0,5-10.8-8.6-11.6C364.8,761.8,352.9,759.8,351.7,755.2z"
		/>
	<polygon fill="#E0A984" points="260.6,463.4 255.1,739.6 273.7,739.6 314.3,496.2 335.8,739.6 353.7,739.6 360.9,461.9 	"/>
	<polygon fill="#875C3B" points="273.7,739.6 270.4,755.2 256.8,755.2 256.8,739.6 	"/>
	<path fill="#231F20" d="M256.8,755.2h13.6c0,0,5.3,17.1-12.3,18.1h-22.9c0,0-5-10.8,8.6-11.6C243.7,761.8,255.5,759.8,256.8,755.2z
		"/>
	<path fill="#231F20" d="M351.7,755.2H338c0,0-5.3,17.1,12.3,18.1h22.9c0,0,5-10.8-8.6-11.6C364.8,761.8,352.9,759.8,351.7,755.2z"
		/>
	<polygon fill="#231F20" points="255.1,698.8 281.8,698.8 271.2,758.9 255.1,758.9 	"/>
	<polygon fill="#231F20" points="355.5,698.8 330.9,698.8 337.5,758.7 353.7,757.9 	"/>
	<path fill="#E0A984" d="M235.9,285c0,0,48.8-26.4,146.8,0l-18.5,177.8c0,0-40.3,2.7-105.9-0.4L235.9,285z"/>
	<path fill="#E0A984" d="M339.9,182.4v75.8h-11.5v24.9c0,0-12.9,25.4-44.6,0v-51.8c0,0-9.6-1.9-9.6-12.9c0-11,11-5.8,11-5.8v-30.2
		H339.9z"/>
	<path fill="#231F20" d="M343.2,180.5c-0.2,1.8,0,3.7-0.6,5.3s-2.2,3.1-3.9,2.9c0.7-1.4-0.2-3.2-1.5-4c-1.3-0.8-2.9-0.7-4.4-0.7
		c-4.7,0.1-9.4,0.3-14.1,0.4c-4,0.1-8,0.2-11.9,1.1c-1.5,0.3-2.9,0.7-4.2,1.6c-2.1,1.4-3.7,3.9-6.2,3.9c0.6,2.7,0.6,5.7-0.6,8.2
		s-4,4.3-6.6,3.6c0.6,5.7,0.6,11.5,0.1,17.2c-1.9-0.2-3.8-0.3-5.7-0.5c1.4-1.5,1.1-4.2-0.4-5.6c-1.4-1.4-3.6-1.7-5.5-1.2
		c-1.4,0.4-2.9,1.4-3.1,3c-4.9-7.4-6.7-17-4.8-25.8c1.9-8.8,7.6-16.7,15.2-20.8c5.4-2.9,11.6-4,17.7-3.8
		C302.5,165.3,346.6,151.6,343.2,180.5z"/>
	<circle fill="#118068" cx="309.3" cy="70.1" r="51.5"/>
	<circle fill="#422704" cx="309.3" cy="70.1" r="41.9"/>
	<circle fill="#EBD12E" cx="309.3" cy="70.1" r="35.4"/>
	<path fill="#DF040B" d="M449,67.9c0,0,5.4,25.8-23.1,22.4c-28.5-3.4-33.1-7.9-34.2-28.2C390.6,41.7,431,48,449,67.9z"/>
	<path fill="#DF040B" d="M170.6,76.1c0,0,0.7,26.3,27.6,16.5s30.4-15.3,26.8-35.4C221.4,37.1,183.5,52.5,170.6,76.1z"/>
	<polygon fill="#FAFAFA" points="257.2,453 258.4,474.6 362.7,474.6 365.1,453.6 	"/>
	<polyline fill="#1F140F" points="258.4,474.6 252.3,567.6 309.4,567.6 313.6,503.2 314.5,567.6 368.6,567.6 362.9,474.6 	"/>
	<path id="SVGID_x5F_1_x5F_" fill="none" d="M331.5,81.4C329,93.7,317,101.5,304.7,99c-12.3-2.5-20.1-14.5-17.6-26.8
		c2.5-12.3,14.5-20.1,26.8-17.6S334,69.1,331.5,81.4z"/>
	<text>	<textPath  xlink:href="#SVGID_x5F_1_x5F_" startOffset="72.5397%">
<tspan  fill="#1F140F" font-family="'BebasNeueBold'" font-size="17.6389" letter-spacing="25">CAMPEÓN</tspan>	</textPath>
</text>
	<polygon fill="#00662F" points="283.4,453.1 283.9,474.6 258.3,474.6 257,453 	"/>
	<polygon fill="#B90F16" points="339.5,453.2 339.5,474.8 362.9,474.8 365.3,453.3 	"/>
</g>
</svg>
