<?xml version="1.0" encoding="utf-8"?>
<!-- Generator: Adobe Illustrator 18.1.1, SVG Export Plug-In . SVG Version: 6.00 Build 0)  -->
<svg version="1.1" id="Layer_1" xmlns="http://www.w3.org/2000/svg" xmlns:xlink="http://www.w3.org/1999/xlink" x="0px" y="0px"
	 viewBox="0 0 382.9 479" enable-background="new 0 0 382.9 479" xml:space="preserve">
<g>
	<rect x="0.3" y="80.7" fill="#2B7696" width="144.6" height="398.1"/>
	<rect x="11.1" y="97.6" fill="#C1D2E3" width="31.8" height="50.9"/>
	<rect x="56.9" y="97.6" fill="#C1D2E3" width="31.8" height="58.9"/>
	<rect x="102.7" y="97.6" fill="#C1D2E3" width="31.8" height="50.9"/>
	<rect x="14.9" y="104" fill="#B3BEC3" width="11.5" height="16.5"/>
	<rect x="28.3" y="104" fill="#B3BEC3" width="11.5" height="16.5"/>
	<rect x="14.9" y="123" fill="#B3BEC3" width="11.5" height="16.5"/>
	<rect x="28.3" y="123" fill="#B3BEC3" width="11.5" height="16.5"/>
	<rect x="105.9" y="104" fill="#B3BEC3" width="11.5" height="16.5"/>
	<rect x="119.3" y="104" fill="#B3BEC3" width="11.5" height="16.5"/>
	<rect x="105.9" y="123" fill="#B3BEC3" width="11.5" height="16.5"/>
	<rect x="119.3" y="123" fill="#B3BEC3" width="11.5" height="16.5"/>
	<rect x="60.7" y="104.6" fill="#B3BEC3" width="11.5" height="20.4"/>
	<rect x="74.1" y="104.6" fill="#B3BEC3" width="11.5" height="20.4"/>
	<rect x="60.7" y="128.1" fill="#B3BEC3" width="11.5" height="20.4"/>
	<rect x="74.1" y="128.1" fill="#B3BEC3" width="11.5" height="20.4"/>
	<rect x="11.1" y="165.7" fill="#C1D2E3" width="31.8" height="50.9"/>
	<rect x="56.9" y="165.7" fill="#C1D2E3" width="31.8" height="58.9"/>
	<rect x="102.7" y="165.7" fill="#C1D2E3" width="31.8" height="50.9"/>
	<rect x="14.9" y="172" fill="#B3BEC3" width="11.5" height="16.5"/>
	<rect x="28.3" y="172" fill="#B3BEC3" width="11.5" height="16.5"/>
	<rect x="14.9" y="191.1" fill="#B3BEC3" width="11.5" height="16.5"/>
	<rect x="28.3" y="191.1" fill="#B3BEC3" width="11.5" height="16.5"/>
	<rect x="105.9" y="172" fill="#B3BEC3" width="11.5" height="16.5"/>
	<rect x="119.3" y="172" fill="#B3BEC3" width="11.5" height="16.5"/>
	<rect x="105.9" y="191.1" fill="#B3BEC3" width="11.5" height="16.5"/>
	<rect x="119.3" y="191.1" fill="#B3BEC3" width="11.5" height="16.5"/>
	<rect x="60.7" y="172.7" fill="#B3BEC3" width="11.5" height="20.4"/>
	<rect x="74.1" y="172.7" fill="#B3BEC3" width="11.5" height="20.4"/>
	<rect x="60.7" y="196.2" fill="#B3BEC3" width="11.5" height="20.4"/>
	<rect x="74.1" y="196.2" fill="#B3BEC3" width="11.5" height="20.4"/>
	<rect x="11.1" y="245.2" fill="#C1D2E3" width="31.8" height="72.6"/>
	<rect x="56.9" y="245.2" fill="#C1D2E3" width="31.8" height="72.3"/>
	<rect x="102.7" y="245.2" fill="#C1D2E3" width="31.8" height="72.6"/>
	<rect x="56.9" y="340.6" fill="#C1D2E3" width="31.8" height="85.6"/>
	<rect x="102.7" y="340.6" fill="#C1D2E3" width="31.8" height="86"/>
	<rect x="14.9" y="253" fill="#B3BEC3" width="11.5" height="20.3"/>
	<rect x="28.3" y="253" fill="#B3BEC3" width="11.5" height="20.3"/>
	<rect x="14.9" y="276.4" fill="#B3BEC3" width="11.5" height="20.3"/>
	<rect x="28.3" y="276.4" fill="#B3BEC3" width="11.5" height="20.3"/>
	<rect x="105.9" y="253" fill="#B3BEC3" width="11.5" height="20.3"/>
	<rect x="119.3" y="253" fill="#B3BEC3" width="11.5" height="20.3"/>
	<rect x="105.9" y="276.4" fill="#B3BEC3" width="11.5" height="20.3"/>
	<rect x="119.3" y="276.4" fill="#B3BEC3" width="11.5" height="20.3"/>
	<rect x="60.1" y="345.1" fill="#B3BEC3" width="11.5" height="20.3"/>
	<rect x="74.1" y="345.1" fill="#B3BEC3" width="11.5" height="20.3"/>
	<rect x="60.1" y="368.6" fill="#B3BEC3" width="11.5" height="52.8"/>
	<rect x="74.1" y="368.6" fill="#B3BEC3" width="11.5" height="52.8"/>
	<rect x="106.2" y="344.8" fill="#B3BEC3" width="11.5" height="20.3"/>
	<rect x="120.2" y="344.8" fill="#B3BEC3" width="11.5" height="20.3"/>
	<rect x="106.2" y="368.3" fill="#B3BEC3" width="11.5" height="52.8"/>
	<rect x="120.2" y="368.3" fill="#B3BEC3" width="11.5" height="52.8"/>
	<rect x="60.7" y="253.8" fill="#B3BEC3" width="11.5" height="25"/>
	<rect x="74.1" y="253.8" fill="#B3BEC3" width="11.5" height="25"/>
	<rect x="60.7" y="282.6" fill="#B3BEC3" width="11.5" height="25"/>
	<rect x="74.1" y="282.6" fill="#B3BEC3" width="11.5" height="25"/>
	<rect x="10.5" y="341.2" fill="#C1D2E3" width="35.6" height="136.1"/>
	<rect x="14.3" y="392.1" fill="#3883A1" width="28" height="85.2"/>
	<rect x="15.6" y="347.9" fill="#283A3E" width="25.4" height="35"/>
	<rect x="21" y="399.7" fill="#322417" width="14.5" height="19.9"/>
	<rect x="0.6" y="29.5" fill="#C5D5E5" width="144.5" height="53.4"/>
	<circle fill="#C5D5E5" cx="70.9" cy="39.7" r="28"/>
	<path fill="#B3BEC3" d="M97.8,27C93.7,14,83.5,9,71.5,9s-22.2,5-26.3,18H0v61h9V34h41.2c0.5-7,6-19.2,21.7-19.2
		C85.9,14.8,91.4,27,92.1,34H138v54h7V27H97.8z"/>
	<rect x="60.7" y="32.1" fill="#283A3E" width="21" height="35.6"/>
	<rect x="33.7" y="433.5" fill="#6EA0BC" width="4.1" height="10.8"/>
	<polygon fill="#C1D2E3" points="14.6,347.7 25.3,364.6 26.8,362.5 15.7,346.2 	"/>
	<polygon fill="#C1D2E3" points="42,347.7 31.3,364.6 29.9,362.5 41,346.2 	"/>
	<polygon fill="#C1D2E3" points="14.6,382.3 25.3,365.3 26.8,367.5 15.7,383.7 	"/>
	<polygon fill="#C1D2E3" points="42,382.3 31.3,365.3 29.9,367.5 41,383.7 	"/>
	<path fill="#C1D2E3" d="M28.1,369c-2.3,0-4.2-1.9-4.2-4.2s1.9-4.2,4.2-4.2s4.2,1.9,4.2,4.2S30.4,369,28.1,369z M28.1,362.6
		c-1.2,0-2.3,1-2.3,2.3s1,2.3,2.3,2.3c1.2,0,2.3-1,2.3-2.3S29.3,362.6,28.1,362.6z"/>
	<rect x="14.6" y="363.9" fill="#C1D2E3" width="9.9" height="1.7"/>
	<rect x="31.8" y="363.9" fill="#C1D2E3" width="9.9" height="1.7"/>
	<rect x="27" y="346.6" fill="#C1D2E3" width="2.1" height="15.1"/>
	<rect x="27" y="368.5" fill="#C1D2E3" width="2.1" height="15.1"/>
</g>
<g>
	<polygon fill="#42A8B8" points="245.6,136.4 221,109.6 221,91 201,91 201,108.9 175.6,136.4 144.5,171.4 144.7,479 279.1,479 
		279.5,171.4 	"/>
	<polygon fill="#19455A" points="179,137.5 204,109.4 204,94 218,94 218,109.4 242,137.5 274.3,170.5 279.7,171.3 245.4,136.4 
		221,109.6 221,91 201,91 201,108.9 176.1,135.9 144.6,171.1 149.6,170.5 	"/>
	<rect x="204" y="127.4" fill="#C1D2E3" width="15.7" height="15.7"/>
	<rect x="173.5" y="161.1" fill="#F2F2F2" width="74.9" height="38.4"/>
	<rect x="177.2" y="166.7" fill="#DEAF8E" width="12" height="26.4"/>
	<rect x="231.4" y="166.7" fill="#DEAF8E" width="12" height="26.4"/>
	<rect x="194.5" y="166.7" fill="#DEAF8E" width="33.1" height="26.4"/>
	<rect x="209.7" y="163" fill="#F2F2F2" width="1.8" height="33.4"/>
	<rect x="175.3" y="179.3" fill="#F2F2F2" width="71.1" height="2.5"/>
	<rect x="154.6" y="213.3" fill="#F2F2F2" width="30.2" height="44.1"/>
	<rect x="196.1" y="213.3" fill="#F2F2F2" width="30.2" height="44.1"/>
	<rect x="237.7" y="213.3" fill="#F2F2F2" width="30.2" height="44.1"/>
	<rect x="154.6" y="270.6" fill="#F2F2F2" width="30.2" height="44.1"/>
	<rect x="196.1" y="270.6" fill="#F2F2F2" width="30.2" height="44.1"/>
	<rect x="237.7" y="270.6" fill="#F2F2F2" width="30.2" height="44.1"/>
	<rect x="154.6" y="327.9" fill="#F2F2F2" width="30.2" height="61.7"/>
	<rect x="196.1" y="327.9" fill="#F2F2F2" width="30.2" height="61.7"/>
	<rect x="237.7" y="327.9" fill="#F2F2F2" width="30.2" height="61.7"/>
	<path fill="#19455A" d="M204.3,417.5c0-5.9-6.7-10.4-15.1-10.4c-8,0-14.4,2.9-15,9.9H174v62h30v-60.3
		C205,418.3,204.3,417.9,204.3,417.5z"/>
	<path fill="#19455A" d="M247.2,417.5c0-5.9-6.8-10.4-15.1-10.4c-8,0-14.5,2.9-15.1,9.9h0v62h30v-60.3
		C247,418.3,247.2,417.9,247.2,417.5z"/>
	<rect x="157.7" y="217.7" fill="#DEAF8E" width="23.6" height="6.6"/>
	<rect x="157.7" y="226.2" fill="#DEAF8E" width="23.6" height="26.5"/>
	<rect x="199.9" y="218" fill="#DEAF8E" width="23.6" height="6.6"/>
	<rect x="199.9" y="226.5" fill="#DEAF8E" width="23.6" height="26.5"/>
	<rect x="240.5" y="218" fill="#DEAF8E" width="23.6" height="6.6"/>
	<rect x="240.5" y="226.5" fill="#DEAF8E" width="23.6" height="26.5"/>
	<rect x="157.1" y="274.1" fill="#DEAF8E" width="11.6" height="11"/>
	<rect x="170.5" y="274.1" fill="#DEAF8E" width="11.6" height="11"/>
	<rect x="157.1" y="287.5" fill="#DEAF8E" width="11.6" height="11"/>
	<rect x="170.5" y="287.5" fill="#DEAF8E" width="11.6" height="11"/>
	<rect x="157.1" y="300.8" fill="#DEAF8E" width="11.6" height="11"/>
	<rect x="170.5" y="300.8" fill="#DEAF8E" width="11.6" height="11"/>
	<rect x="156.9" y="345.8" fill="#DEAF8E" width="11.6" height="19"/>
	<rect x="170.3" y="345.8" fill="#DEAF8E" width="11.6" height="19"/>
	<rect x="156.9" y="367.3" fill="#DEAF8E" width="11.6" height="19.7"/>
	<rect x="170.3" y="367.3" fill="#DEAF8E" width="11.6" height="19.7"/>
	<rect x="198.6" y="274.1" fill="#DEAF8E" width="11.6" height="11"/>
	<rect x="212" y="274.1" fill="#DEAF8E" width="11.6" height="11"/>
	<rect x="198.6" y="287.5" fill="#DEAF8E" width="11.6" height="11"/>
	<rect x="212" y="287.5" fill="#DEAF8E" width="11.6" height="11"/>
	<rect x="198.6" y="300.8" fill="#DEAF8E" width="11.6" height="11"/>
	<rect x="212" y="300.8" fill="#DEAF8E" width="11.6" height="11"/>
	<rect x="240.2" y="274.1" fill="#DEAF8E" width="11.6" height="11"/>
	<rect x="253.6" y="274.1" fill="#DEAF8E" width="11.6" height="11"/>
	<rect x="240.2" y="287.5" fill="#DEAF8E" width="11.6" height="11"/>
	<rect x="253.6" y="287.5" fill="#DEAF8E" width="11.6" height="11"/>
	<rect x="240.2" y="300.8" fill="#DEAF8E" width="11.6" height="11"/>
	<rect x="253.6" y="300.8" fill="#DEAF8E" width="11.6" height="11"/>
	<path fill="#DEAF8E" d="M181.9,343L181.9,343c0-7-5.7-12.7-12.7-12.7c-7,0-12.7,5.6-12.7,12.6c0,0.1,0,0,0,0H181.9z"/>
	<rect x="198.4" y="345.8" fill="#DEAF8E" width="11.6" height="19"/>
	<rect x="211.8" y="345.8" fill="#DEAF8E" width="11.6" height="19"/>
	<rect x="198.4" y="367.3" fill="#DEAF8E" width="11.6" height="19.7"/>
	<rect x="211.8" y="367.3" fill="#DEAF8E" width="11.6" height="19.7"/>
	<path fill="#DEAF8E" d="M223.5,343L223.5,343c0-7-5.7-12.7-12.7-12.7c-7,0-12.7,5.6-12.7,12.6c0,0.1,0,0,0,0H223.5z"/>
	<rect x="241.3" y="345.8" fill="#DEAF8E" width="11.6" height="19"/>
	<rect x="254.6" y="345.8" fill="#DEAF8E" width="11.6" height="19"/>
	<rect x="241.3" y="367.3" fill="#DEAF8E" width="11.6" height="19.7"/>
	<rect x="254.6" y="367.3" fill="#DEAF8E" width="11.6" height="19.7"/>
	<path fill="#DEAF8E" d="M266.3,343L266.3,343c0-7-5.7-12.7-12.7-12.7c-7,0-12.7,5.6-12.7,12.6c0,0.1,0,0,0,0H266.3z"/>
	<rect x="148.3" y="184.7" fill="#2B7696" width="15.7" height="6.3"/>
	<rect x="231.1" y="149.4" fill="#2B7696" width="15.7" height="6.3"/>
	<rect x="256.6" y="195.7" fill="#2B7696" width="15.7" height="6.3"/>
	<rect x="183.5" y="203.6" fill="#2B7696" width="15.7" height="6.3"/>
	<rect x="207.1" y="260.5" fill="#2B7696" width="15.7" height="6.3"/>
	<rect x="178.8" y="317.8" fill="#2B7696" width="15.7" height="6.3"/>
	<rect x="224.1" y="392.7" fill="#2B7696" width="15.7" height="6.3"/>
	<rect x="263.8" y="424.2" fill="#2B7696" width="15.7" height="6.3"/>
	<rect x="256.2" y="429.6" fill="#2B7696" width="15.7" height="6.3"/>
	<rect x="152.1" y="445" fill="#2B7696" width="15.7" height="6.3"/>
	<rect x="152.1" y="398.7" fill="#2B7696" width="15.7" height="6.3"/>
</g>
<g>
	<rect x="279.7" y="95.9" fill="#2B7696" width="103.2" height="295.2"/>
	<rect x="279.7" y="70.9" fill="#C1D2E3" width="103.2" height="25.7"/>
	<rect x="279.7" y="391.6" fill="#2B7696" width="103.2" height="86.7"/>
	<rect x="289.1" y="108" fill="#78A4BF" width="36" height="41.1"/>
	<rect x="292.9" y="112.8" fill="#E2CAD1" width="13.2" height="14"/>
	<rect x="309.5" y="112.8" fill="#E2CAD1" width="13.2" height="14"/>
	<rect x="292.9" y="128.9" fill="#E2CAD1" width="13.2" height="14"/>
	<rect x="309.5" y="128.9" fill="#E2CAD1" width="13.2" height="14"/>
	<rect x="336.7" y="108" fill="#78A4BF" width="36" height="41.1"/>
	<rect x="340.4" y="112.8" fill="#E2CAD1" width="13.2" height="14"/>
	<rect x="357.1" y="112.8" fill="#E2CAD1" width="13.2" height="14"/>
	<rect x="340.4" y="128.9" fill="#E2CAD1" width="13.2" height="14"/>
	<rect x="357.1" y="128.9" fill="#E2CAD1" width="13.2" height="14"/>
	<rect x="336.7" y="167.1" fill="#78A4BF" width="36" height="43.8"/>
	<rect x="340.4" y="172.3" fill="#E2CAD1" width="28.5" height="11.9"/>
	<rect x="340.4" y="186.6" fill="#E2CAD1" width="13.2" height="17.7"/>
	<rect x="356.5" y="186.6" fill="#E2CAD1" width="12.7" height="17.7"/>
	<rect x="289.4" y="167.1" fill="#78A4BF" width="36" height="43.8"/>
	<rect x="293.1" y="172.3" fill="#E2CAD1" width="28.5" height="11.9"/>
	<rect x="293.1" y="186.6" fill="#E2CAD1" width="13.2" height="17.7"/>
	<rect x="309.2" y="186.6" fill="#E2CAD1" width="12.7" height="17.7"/>
	<rect x="289.4" y="232.2" fill="#78A4BF" width="36" height="56.2"/>
	<rect x="293.1" y="238.8" fill="#E2CAD1" width="28.5" height="15.2"/>
	<rect x="293.1" y="257.2" fill="#E2CAD1" width="13.2" height="22.7"/>
	<rect x="309.2" y="257.2" fill="#E2CAD1" width="12.7" height="22.7"/>
	<rect x="338.3" y="232.2" fill="#78A4BF" width="36" height="56.2"/>
	<rect x="342.1" y="238.8" fill="#E2CAD1" width="28.5" height="15.2"/>
	<rect x="342.1" y="257.2" fill="#E2CAD1" width="13.2" height="22.7"/>
	<rect x="358.1" y="257.2" fill="#E2CAD1" width="12.7" height="22.7"/>
	<rect x="291" y="315" fill="#78A4BF" width="36" height="73.4"/>
	<rect x="294.7" y="318.9" fill="#E2CAD1" width="28.5" height="66"/>
	<rect x="339.4" y="315" fill="#78A4BF" width="36" height="73.4"/>
	<rect x="339.4" y="404.9" fill="#78A4BF" width="36" height="73.4"/>
	<rect x="343.1" y="318.9" fill="#E2CAD1" width="28.5" height="66"/>
	<rect x="342" y="407.2" fill="#19455A" width="31.2" height="71.5"/>
	<rect x="282.9" y="37.4" fill="#19455A" width="97" height="33.6"/>
	<rect x="377.2" y="32.1" fill="#283A3E" width="5.7" height="38.3"/>
	<rect x="279.7" y="32.6" fill="#283A3E" width="6.4" height="38.2"/>
	<rect x="287.2" y="38.6" fill="#283A3E" width="4.2" height="6.6"/>
	<rect x="292.8" y="38.6" fill="#283A3E" width="4.2" height="6.6"/>
	<rect x="298.4" y="38.6" fill="#283A3E" width="4.2" height="6.6"/>
	<rect x="304" y="38.6" fill="#283A3E" width="4.2" height="6.6"/>
	<rect x="309.6" y="38.6" fill="#283A3E" width="4.2" height="6.6"/>
	<rect x="315.3" y="38.6" fill="#283A3E" width="4.2" height="6.6"/>
	<rect x="320.9" y="38.6" fill="#283A3E" width="4.2" height="6.6"/>
	<rect x="326.5" y="38.6" fill="#283A3E" width="4.2" height="6.6"/>
	<rect x="332.1" y="38.6" fill="#283A3E" width="4.2" height="6.6"/>
	<rect x="337.8" y="38.6" fill="#283A3E" width="4.2" height="6.6"/>
	<rect x="343.4" y="38.6" fill="#283A3E" width="4.2" height="6.6"/>
	<rect x="349" y="38.6" fill="#283A3E" width="4.2" height="6.6"/>
	<rect x="354.9" y="38.6" fill="#283A3E" width="4.2" height="6.6"/>
	<rect x="360.6" y="38.6" fill="#283A3E" width="4.2" height="6.6"/>
	<rect x="366.2" y="38.6" fill="#283A3E" width="4.2" height="6.6"/>
	<rect x="371.8" y="38.6" fill="#283A3E" width="4.2" height="6.6"/>
	<rect x="287.2" y="46.2" fill="#283A3E" width="4.2" height="6.6"/>
	<rect x="292.8" y="46.2" fill="#283A3E" width="4.2" height="6.6"/>
	<rect x="298.4" y="46.2" fill="#283A3E" width="4.2" height="6.6"/>
	<rect x="304" y="46.2" fill="#283A3E" width="4.2" height="6.6"/>
	<rect x="309.6" y="46.2" fill="#283A3E" width="4.2" height="6.6"/>
	<rect x="315.3" y="46.2" fill="#283A3E" width="4.2" height="6.6"/>
	<rect x="320.9" y="46.2" fill="#283A3E" width="4.2" height="6.6"/>
	<rect x="326.5" y="46.2" fill="#283A3E" width="4.2" height="6.6"/>
	<rect x="332.1" y="46.2" fill="#283A3E" width="4.2" height="6.6"/>
	<rect x="337.8" y="46.2" fill="#283A3E" width="4.2" height="6.6"/>
	<rect x="343.4" y="46.2" fill="#283A3E" width="4.2" height="6.6"/>
	<rect x="349" y="46.2" fill="#283A3E" width="4.2" height="6.6"/>
	<rect x="354.9" y="46.2" fill="#283A3E" width="4.2" height="6.6"/>
	<rect x="360.6" y="46.2" fill="#283A3E" width="4.2" height="6.6"/>
	<rect x="366.2" y="46.2" fill="#283A3E" width="4.2" height="6.6"/>
	<rect x="371.8" y="46.2" fill="#283A3E" width="4.2" height="6.6"/>
	<rect x="287.2" y="53.7" fill="#283A3E" width="4.2" height="6.6"/>
	<rect x="292.8" y="53.7" fill="#283A3E" width="4.2" height="6.6"/>
	<rect x="298.4" y="53.7" fill="#283A3E" width="4.2" height="6.6"/>
	<rect x="304" y="53.7" fill="#283A3E" width="4.2" height="6.6"/>
	<rect x="309.6" y="53.7" fill="#283A3E" width="4.2" height="6.6"/>
	<rect x="315.3" y="53.7" fill="#283A3E" width="4.2" height="6.6"/>
	<rect x="320.9" y="53.7" fill="#283A3E" width="4.2" height="6.6"/>
	<rect x="326.5" y="53.7" fill="#283A3E" width="4.2" height="6.6"/>
	<rect x="332.1" y="53.7" fill="#283A3E" width="4.2" height="6.6"/>
	<rect x="337.8" y="53.7" fill="#283A3E" width="4.2" height="6.6"/>
	<rect x="343.4" y="53.7" fill="#283A3E" width="4.2" height="6.6"/>
	<rect x="349" y="53.7" fill="#283A3E" width="4.2" height="6.6"/>
	<rect x="354.9" y="53.7" fill="#283A3E" width="4.2" height="6.6"/>
	<rect x="360.6" y="53.7" fill="#283A3E" width="4.2" height="6.6"/>
	<rect x="366.2" y="53.7" fill="#283A3E" width="4.2" height="6.6"/>
	<rect x="371.8" y="53.7" fill="#283A3E" width="4.2" height="6.6"/>
	<rect x="287.2" y="61.3" fill="#283A3E" width="4.2" height="6.6"/>
	<rect x="292.8" y="61.3" fill="#283A3E" width="4.2" height="6.6"/>
	<rect x="298.4" y="61.3" fill="#283A3E" width="4.2" height="6.6"/>
	<rect x="304" y="61.3" fill="#283A3E" width="4.2" height="6.6"/>
	<rect x="309.6" y="61.3" fill="#283A3E" width="4.2" height="6.6"/>
	<rect x="315.3" y="61.3" fill="#283A3E" width="4.2" height="6.6"/>
	<rect x="320.9" y="61.3" fill="#283A3E" width="4.2" height="6.6"/>
	<rect x="326.5" y="61.3" fill="#283A3E" width="4.2" height="6.6"/>
	<rect x="332.1" y="61.3" fill="#283A3E" width="4.2" height="6.6"/>
	<rect x="337.8" y="61.3" fill="#283A3E" width="4.2" height="6.6"/>
	<rect x="343.4" y="61.3" fill="#283A3E" width="4.2" height="6.6"/>
	<rect x="349" y="61.3" fill="#283A3E" width="4.2" height="6.6"/>
	<rect x="354.9" y="61.3" fill="#283A3E" width="4.2" height="6.6"/>
	<rect x="360.6" y="61.3" fill="#283A3E" width="4.2" height="6.6"/>
	<rect x="366.2" y="61.3" fill="#283A3E" width="4.2" height="6.6"/>
	<rect x="371.8" y="61.3" fill="#283A3E" width="4.2" height="6.6"/>
	<rect x="279.5" y="389.4" fill="#586E78" width="103.4" height="6.3"/>
	<rect x="279.5" y="94.3" fill="#586E78" width="103.4" height="6.3"/>
	<rect x="279.5" y="70.1" fill="#586E78" width="103.4" height="6.3"/>
</g>
</svg>
