<?xml version="1.0" encoding="utf-8"?>
<!-- Generator: Adobe Illustrator 18.1.1, SVG Export Plug-In . SVG Version: 6.00 Build 0)  -->
<svg version="1.1" id="Layer_1" xmlns="http://www.w3.org/2000/svg" xmlns:xlink="http://www.w3.org/1999/xlink" x="0px" y="0px"
	 viewBox="0 0 193 118.3" enable-background="new 0 0 193 118.3" xml:space="preserve">
<rect x="108.8" y="78.1" fill="#E9DBC3" width="0" height="0"/>
<g>
	<path fill="#979797" d="M128.3,16.3c-1.5,0.6-3,1.1-4.3,1.5c-0.4,0.1-0.7,0.4-0.8,0.7c-0.2,0.3-0.2,0.7,0,1.1l3.1,7.4
		c0.2,0.5,0.7,0.8,1.2,0.8c0.2,0,0.3,0,0.5-0.1c0.7-0.3,1-1.1,0.7-1.7l-2.6-6c1-0.3,2.4-0.8,4-1.5L128.3,16.3z"/>
	<path d="M129.1,19.6c5.1-2.3,8-5.2,8.6-7.7c0.3-1.2,0-3.1-2.1-4.9c-0.6-0.5-1.5-0.5-2.1,0.1c-0.5,0.6-0.5,1.5,0.1,2
		c1.3,1.1,0.9,1.7,0.9,1.9c-0.5,2-4.1,4-8.2,5.6L128,20C128.4,19.9,128.7,19.7,129.1,19.6z"/>
	<rect x="62.4" y="29" transform="matrix(-0.365 -0.931 0.931 -0.365 63.3692 103.7534)" fill="#979797" width="9.3" height="2.5"/>
	<g>
		<circle fill="#979797" cx="154.4" cy="84.5" r="7.5"/>
		<circle fill="#636363" cx="154.4" cy="84.5" r="5.3"/>
		<rect x="154.1" y="56.4" width="0.7" height="22.4"/>
		<rect x="166" y="61.3" transform="matrix(0.7071 0.7071 -0.7071 0.7071 99.9999 -96.4084)" width="0.7" height="22.4"/>
		<rect x="160.1" y="84.1" width="22.4" height="0.7"/>
		<rect x="166" y="85.2" transform="matrix(-0.7071 0.7071 -0.7071 -0.7071 352.1624 46.9149)" width="0.7" height="22.4"/>
		<rect x="154.1" y="90.1" width="0.7" height="22.4"/>
		<rect x="142.1" y="85.2" transform="matrix(-0.7071 -0.7071 0.7071 -0.7071 175.0734 265.2825)" width="0.7" height="22.4"/>
		<rect x="126.3" y="84.1" width="22.4" height="0.7"/>
		<rect x="142.2" y="61.3" transform="matrix(0.7071 -0.7071 0.7071 0.7071 -9.5284 121.9884)" width="0.7" height="22.4"/>
		<rect x="169.8" y="66.5" transform="matrix(0.4024 0.9155 -0.9155 0.4024 172.7535 -109.3245)" width="0.7" height="22.4"/>
		<rect x="170.1" y="79.4" transform="matrix(-0.3628 0.9319 -0.9319 -0.3628 316.6074 -35.3307)" width="0.7" height="22.4"/>
		<rect x="161.1" y="88.7" transform="matrix(-0.9155 0.4024 -0.4024 -0.9155 349.4273 126.4166)" width="0.7" height="22.4"/>
		<rect x="148.2" y="89" transform="matrix(-0.9319 -0.3628 0.3628 -0.9319 250.5563 247.4178)" width="0.7" height="22.4"/>
		<rect x="138.9" y="80" transform="matrix(-0.4024 -0.9155 0.9155 -0.4024 111.6616 255.3606)" width="0.7" height="22.4"/>
		<rect x="138.6" y="67.1" transform="matrix(0.3628 -0.9319 0.9319 0.3628 15.5376 179.3422)" width="0.7" height="22.4"/>
		<rect x="147.5" y="57.8" transform="matrix(0.9155 -0.4024 0.4024 0.9155 -15.2578 65.3247)" width="0.7" height="22.4"/>
		<rect x="160.5" y="57.5" transform="matrix(0.9319 0.3628 -0.3628 0.9319 35.8835 -53.652)" width="0.7" height="22.4"/>
		<path d="M154.4,50.7c-18.7,0-33.8,15.1-33.8,33.8c0,18.7,15.1,33.8,33.8,33.8c18.7,0,33.8-15.1,33.8-33.8
			C188.1,65.8,173,50.7,154.4,50.7z M154.4,112.1c-15.3,0-27.6-12.4-27.6-27.6c0-15.3,12.4-27.6,27.6-27.6
			c15.3,0,27.6,12.4,27.6,27.6C182,99.8,169.6,112.1,154.4,112.1z"/>
		<path fill="#979797" d="M154.4,54.9c-16.4,0-29.6,13.3-29.6,29.6c0,16.4,13.3,29.6,29.6,29.6c16.4,0,29.6-13.3,29.6-29.6
			C184,68.1,170.7,54.9,154.4,54.9z M154.4,112.1c-15.3,0-27.6-12.4-27.6-27.6c0-15.3,12.4-27.6,27.6-27.6
			c15.3,0,27.6,12.4,27.6,27.6C182,99.8,169.6,112.1,154.4,112.1z"/>
	</g>
	<g>
		<circle fill="#979797" cx="38.5" cy="84.5" r="7.5"/>
		<circle fill="#636363" cx="38.5" cy="84.5" r="5.3"/>
		<rect x="38.3" y="56.4" width="0.7" height="22.4"/>
		<rect x="50.2" y="61.3" transform="matrix(0.7071 0.7071 -0.7071 0.7071 66.0775 -14.5124)" width="0.7" height="22.4"/>
		<rect x="44.3" y="84.1" width="22.4" height="0.7"/>
		<rect x="50.2" y="85.2" transform="matrix(-0.7071 0.7071 -0.7071 -0.7071 154.448 128.811)" width="0.7" height="22.4"/>
		<rect x="38.3" y="90.1" width="0.7" height="22.4"/>
		<rect x="26.3" y="85.2" transform="matrix(-0.7071 -0.7071 0.7071 -0.7071 -22.6411 183.3864)" width="0.7" height="22.4"/>
		<rect x="10.5" y="84.1" width="22.4" height="0.7"/>
		<rect x="26.3" y="61.3" transform="matrix(0.7071 -0.7071 0.7071 0.7071 -43.4509 40.0924)" width="0.7" height="22.4"/>
		<rect x="54" y="66.5" transform="matrix(0.4024 0.9155 -0.9155 0.4024 103.5378 -3.2957)" width="0.7" height="22.4"/>
		<rect x="54.2" y="79.4" transform="matrix(-0.3628 0.9319 -0.9319 -0.3628 158.7683 72.5961)" width="0.7" height="22.4"/>
		<rect x="45.3" y="88.7" transform="matrix(-0.9155 0.4024 -0.4024 -0.9155 127.5801 173.0193)" width="0.7" height="22.4"/>
		<rect x="32.4" y="89" transform="matrix(-0.9319 -0.3628 0.3628 -0.9319 26.811 205.3973)" width="0.7" height="22.4"/>
		<rect x="23" y="80" transform="matrix(-0.4024 -0.9155 0.9155 -0.4024 -50.7596 149.3318)" width="0.7" height="22.4"/>
		<rect x="22.8" y="67.1" transform="matrix(0.3628 -0.9319 0.9319 0.3628 -58.2603 71.4154)" width="0.7" height="22.4"/>
		<rect x="31.7" y="57.8" transform="matrix(0.9155 -0.4024 0.4024 0.9155 -25.0475 18.722)" width="0.7" height="22.4"/>
		<rect x="44.6" y="57.5" transform="matrix(0.9319 0.3628 -0.3628 0.9319 27.9918 -11.6314)" width="0.7" height="22.4"/>
		<path d="M38.5,50.7c-18.7,0-33.8,15.1-33.8,33.8c0,18.7,15.1,33.8,33.8,33.8c18.7,0,33.8-15.1,33.8-33.8
			C72.3,65.8,57.2,50.7,38.5,50.7z M38.5,112.1c-15.3,0-27.6-12.4-27.6-27.6c0-15.3,12.4-27.6,27.6-27.6c15.3,0,27.6,12.4,27.6,27.6
			C66.2,99.8,53.8,112.1,38.5,112.1z"/>
		<path fill="#979797" d="M38.5,54.9c-16.4,0-29.6,13.3-29.6,29.6c0,16.4,13.3,29.6,29.6,29.6c16.4,0,29.6-13.3,29.6-29.6
			C68.1,68.1,54.9,54.9,38.5,54.9z M38.5,112.1c-15.3,0-27.6-12.4-27.6-27.6c0-15.3,12.4-27.6,27.6-27.6c15.3,0,27.6,12.4,27.6,27.6
			C66.2,99.8,53.8,112.1,38.5,112.1z"/>
	</g>
	<rect x="37.4" y="84.2" fill="#FAAF3B" width="53.7" height="3.3"/>
	
		<rect x="29.6" y="63.5" transform="matrix(0.6676 -0.7445 0.7445 0.6676 -29.6406 63.8864)" fill="#FAAF3B" width="54.3" height="3.3"/>
	
		<rect x="81" y="62.6" transform="matrix(0.7218 -0.6921 0.6921 0.7218 -13.6295 95.365)" fill="#FAAF3B" width="61.7" height="4.2"/>
	
		<rect x="109.2" y="54.1" transform="matrix(-0.4251 -0.9052 0.9052 -0.4251 150.6441 208.0754)" fill="#FAAF3B" width="64.3" height="4.2"/>
	
		<rect x="125.8" y="23.2" transform="matrix(-0.4251 -0.9052 0.9052 -0.4251 157.6227 153.025)" fill="#FAAF3B" width="3.2" height="6.5"/>
	
		<rect x="49.5" y="57.6" transform="matrix(-0.365 -0.931 0.931 -0.365 51.6706 154.5303)" fill="#FAAF3B" width="58" height="4.2"/>
	
		<rect x="74.7" y="39.8" transform="matrix(0.9891 -0.1472 0.1472 0.9891 -4.9813 15.6172)" fill="#FAAF3B" width="56.8" height="3.3"/>
	<path fill="#754D24" d="M59,27.4c0,0.1,0.1,0.1,0.1,0.2h21.4c0,0,2-4.5-4.6-4.5c-3.6,0-7.4-1.2-10-2.3C61.7,19.1,57.4,23.2,59,27.4
		z"/>
	<g>
		<path fill="#5A5A5A" d="M88.7,75.4c-5.8,0-10.5,4.7-10.5,10.5c0,5.8,4.7,10.5,10.5,10.5c5.8,0,10.5-4.7,10.5-10.5
			C99.2,80.1,94.5,75.4,88.7,75.4z M88.7,95.2c-5.1,0-9.2-4.1-9.2-9.2s4.1-9.2,9.2-9.2c5.1,0,9.2,4.1,9.2,9.2S93.8,95.2,88.7,95.2z"
			/>
		<circle fill="#5A5A5A" cx="88.7" cy="86" r="3.3"/>
		<rect x="88" y="76" fill="#5A5A5A" width="1.3" height="8.1"/>
		
			<rect x="92.7" y="78.8" transform="matrix(0.3922 0.9199 -0.9199 0.3922 133.6543 -35.1125)" fill="#5A5A5A" width="1.3" height="9.5"/>
		
			<rect x="83.7" y="78.8" transform="matrix(-0.3922 0.9199 -0.9199 -0.3922 194.3219 38.7785)" fill="#5A5A5A" width="1.3" height="9.5"/>
		
			<rect x="84.3" y="84.8" transform="matrix(-0.6729 -0.7397 0.7397 -0.6729 75.8016 212.6989)" fill="#5A5A5A" width="1.3" height="9.5"/>
		
			<rect x="91.9" y="84.8" transform="matrix(0.6729 -0.7397 0.7397 0.6729 -35.9919 97.7839)" fill="#5A5A5A" width="1.3" height="9.5"/>
	</g>
	<path fill="#8B8B8B" d="M98.7,100.8L90,85.3c-0.4-0.6-1.2-0.9-1.8-0.5c-0.6,0.4-0.9,1.2-0.5,1.8l8.7,15.5c0.4,0.6,1.2,0.9,1.8,0.5
		C98.8,102.2,99,101.4,98.7,100.8z"/>
	<path d="M105.9,104.4h-9.6c-0.8,0-1.4-0.6-1.4-1.4v-1.2c0-0.8,0.6-1.4,1.4-1.4h9.6c0.8,0,1.4,0.6,1.4,1.4v1.2
		C107.3,103.7,106.6,104.4,105.9,104.4z"/>
</g>
</svg>
