<?xml version="1.0" encoding="utf-8"?>
<!-- Generator: Adobe Illustrator 18.1.1, SVG Export Plug-In . SVG Version: 6.00 Build 0)  -->
<svg version="1.1" id="Layer_1" xmlns="http://www.w3.org/2000/svg" xmlns:xlink="http://www.w3.org/1999/xlink" x="0px" y="0px"
	 viewBox="0 0 529 285.7" enable-background="new 0 0 529 285.7" xml:space="preserve">
<g>
	<g>
		<path fill="#603913" d="M4.3,223.3c0,32.9,26.6,59.5,59.5,59.5s59.5-26.6,59.5-59.5s-26.6-59.5-59.5-59.5S4.3,190.4,4.3,223.3z
			 M10.8,223.3c0-29.3,23.7-53,53-53s53,23.7,53,53c0,29.3-23.7,53-53,53S10.8,252.5,10.8,223.3z"/>
		<rect x="61.2" y="168.3" fill="#603913" width="6.5" height="112.6"/>
		<rect x="8.3" y="221" fill="#603913" width="112.6" height="6.5"/>
		
			<rect x="61.4" y="167.9" transform="matrix(-0.7071 0.7071 -0.7071 -0.7071 268.8942 337.0316)" fill="#603913" width="6.5" height="112.6"/>
		
			<rect x="60.6" y="166.9" transform="matrix(0.7071 0.7071 -0.7071 0.7071 176.5606 20.2526)" fill="#603913" width="6.5" height="112.6"/>
		<circle fill="#3C2415" cx="63.8" cy="223.3" r="13"/>
	</g>
	<path fill="#861B01" d="M351,127.4V11.4c0,0-2.9-5.9-20.3-5.9c-17.4,0-14.7,8.4-14.7,8.4v120.2L351,127.4z"/>
	<path fill="#A51B01" d="M342.2,129.1V7.9c0,0-2.8-3.5-11.6-2.4v128.6L342.2,129.1z"/>
	<path fill="#861B01" d="M235.7,128.2V17.6c0,0-2.9-5.7-20.3-5.7s-14.7,8-14.7,8v114.7L235.7,128.2z"/>
	<path fill="#A51B01" d="M227,129.8V14.3c0,0-2.8-3.3-11.6-2.3v122.7L227,129.8z"/>
	<path fill="#791704" d="M215.4,275.1l-42.7-1.9c0,0-11.3-0.3-11.7-9.7l-17.7-1.7c0,0-4.7-0.7-4.3-7.3v-23.7L215.4,275.1z"/>
	<polygon fill="#911E02" points="446.3,199.3 446.3,158.6 262.7,162.3 262.7,208.3 	"/>
	<path fill="#861B01" d="M507.3,232.3c0,0-22,38.7-30.7,41.3c-8.7,2.7-175.3,22.7-254.7,4.7l-70.7-33.3L292,226.3
		C292,226.3,506.7,204.9,507.3,232.3z"/>
	<path fill="#FCFBFA" d="M524.7,196.9L102,217.6l49.3,27.3c0,0,242,8.7,356-12.7L524.7,196.9z"/>
	<polygon fill="#3C2415" points="524.7,196.9 524.7,193.6 102,213.9 102,217.6 	"/>
	<circle fill="#3C2415" cx="500.4" cy="214.8" r="4.2"/>
	<circle fill="#3C2415" cx="476.2" cy="216.8" r="4.2"/>
	<circle fill="#3C2415" cx="443.4" cy="219.1" r="4.2"/>
	<circle fill="#3C2415" cx="407.7" cy="221.8" r="4.2"/>
	<circle fill="#3C2415" cx="367.9" cy="223.3" r="4.2"/>
	<circle fill="#3C2415" cx="329.3" cy="223.3" r="4.2"/>
	<circle fill="#3C2415" cx="292.7" cy="223.3" r="4.2"/>
	<circle fill="#3C2415" cx="252.2" cy="226" r="4.2"/>
	<circle fill="#3C2415" cx="215.4" cy="226" r="4.2"/>
	<circle fill="#3C2415" cx="183.5" cy="227.5" r="4.2"/>
	<circle fill="#3C2415" cx="153.4" cy="227.5" r="4.2"/>
	<polygon fill="#FCFBFA" points="220,163.3 220,208.3 223.7,208.3 223.7,163.1 	"/>
	<polygon fill="#FCFBFA" points="181.6,165.6 181.6,210.6 185.4,210.6 185.4,165.5 	"/>
	<polygon fill="#FCFBFA" points="126,167.6 126,212.6 129.7,212.6 129.7,167.5 	"/>
	<polygon fill="#FCFBFA" points="183.6,173.9 262.7,173.9 262.7,171.9 183.4,171.9 	"/>
	<polygon fill="#FCFBFA" points="183.6,186.7 262.7,186.7 262.7,184.7 183.4,184.7 	"/>
	<polygon fill="#FCFBFA" points="183.6,197.9 262.7,197.9 262.7,195.9 183.4,195.9 	"/>
	<path fill="#911E02" d="M363.8,133.3h81.7c1.2,0,2.2-1,2.2-2.2l0,0c0-1.2-1-2.2-2.2-2.2h-81.7c-1.2,0-2.2,1-2.2,2.2l0,0
		C361.7,132.3,362.6,133.3,363.8,133.3z"/>
	<path fill="#911E02" d="M362.6,146.8h81.7c1.2,0,2.2-1,2.2-2.2l0,0c0-1.2-1-2.2-2.2-2.2h-81.7c-1.2,0-2.2,1-2.2,2.2l0,0
		C360.4,145.8,361.4,146.8,362.6,146.8z"/>
	<rect x="440.7" y="131.1" fill="#911E02" width="2.8" height="22.6"/>
	<rect x="420.7" y="131.1" fill="#911E02" width="2.1" height="25.6"/>
	<rect x="395.7" y="131.1" fill="#911E02" width="2.8" height="27.5"/>
	<polygon fill="#3C2415" points="446.3,158.6 126,167.6 126,161.6 446.3,153.6 	"/>
	<path fill="#908F96" d="M185.7,107.9l180.2-5.1c1.2,0,2.1-1,2.1-2.2l0,0c0-1.2-1-2.1-2.2-2.1l-180.2,5.1c-1.2,0-2.1,1-2.1,2.2v0
		C183.5,107,184.5,107.9,185.7,107.9z"/>
	<rect x="360.4" y="100.3" fill="#908F96" width="3.2" height="25"/>
	<rect x="315.8" y="103.2" fill="#908F96" width="3.2" height="25"/>
	<rect x="277.1" y="103.2" fill="#908F96" width="3.2" height="25"/>
	<rect x="234.1" y="103.9" fill="#908F96" width="3.2" height="25"/>
	<rect x="186.1" y="106.1" fill="#908F96" width="3.2" height="25"/>
	<polygon fill="#911E02" points="370.7,155.5 370.7,122.9 183.4,129.6 183.5,160.2 	"/>
	
		<rect x="186.1" y="114.3" transform="matrix(-0.9995 3.089047e-02 -3.089047e-02 -0.9995 551.2131 222.992)" fill="#908F96" width="175.6" height="3"/>
	<path fill="#3C2415" d="M61.2,225.4l38.9-119.3c0,0,5.9-5.5,10.9,3.5l18.7,54.2l-3.7,1.7l-17.7-53.9c0,0-3.3-6.3-6.3-2.3
		L63.8,226.6L61.2,225.4z"/>
	<g id="KRyJ1s.tif_38_">
		<g>
			<path fill="#FFFFFF" d="M309.1,164.8c0.4,0.1,0.7,0.2,1.1,0.4c0.8,0.4,1.3,1.1,1.4,2.1c0.1,0.9,0,1.7-0.4,2.5
				c-0.3,0.6-0.6,1.1-0.9,1.6c-0.3,0.5-0.8,0.8-1.4,0.9c-0.6,0.1-1-0.2-1.1-0.8c-0.1-0.5,0-0.9,0.2-1.3c0.4-0.7,0.8-1.4,1.6-1.7
				c0.2-0.1,0.3-0.1,0.5-0.1c0.2,0,0.3-0.1,0.4-0.3c0.2-0.8-0.3-1.5-1.2-1.5c-0.5,0-0.9,0.1-1.3,0.3c-1.8,0.7-3.3,1.8-4.6,3.1
				c-4.3,4.3-7.6,9.2-9.9,14.8c-0.8,2-1.4,4-1.6,6.2c-0.2,1.5-0.1,3,0.3,4.4c0.5,1.8,1.7,3,3.5,3.7c1.4,0.5,2.9,0.7,4.4,0.5
				c2.5-0.3,4.8-1.1,7.2-1.7c2.7-0.8,5.4-1.6,8.1-2.3c2.6-0.7,5.2-1.1,7.8-1c3.1,0,5.9,0.8,8.5,2.5c1.4,1,2.9,1.9,4.1,3.1
				c0.2,0.2,0.4,0.4,0.6,0.7c-0.1,0-0.2-0.1-0.2-0.1c-2.5-1.5-5.3-2.3-8.3-2.1c-1.3,0.1-2.5,0.3-3.5,1.2c-0.5,0.4-0.9,1-1.4,1.4
				c0,0,0,0,0,0c-1.2-1.9-3-2.9-5.1-3.3c-1.5-0.3-3-0.3-4.6-0.1c-2.7,0.3-5.2,1.1-7.8,1.8c-2.4,0.7-4.8,1.3-7.2,1.9
				c-1.9,0.5-3.8,0.5-5.7-0.1c-2.9-0.9-4.7-2.8-5.4-5.8c-0.1-0.6-0.2-1.1-0.3-1.7c0-0.1,0-0.2-0.1-0.2c0-0.5,0-1-0.1-1.5
				c0-0.4,0-0.8,0.1-1.2c0.2-2.3,0.7-4.5,1.6-6.6c1.6-4.3,4.1-8,7.2-11.4c2-2.2,4.1-4.2,6.7-5.7c1.4-0.9,2.9-1.6,4.5-2
				c0.5-0.1,1-0.2,1.6-0.3C308.3,164.8,308.7,164.8,309.1,164.8z"/>
			<path fill="#FFFFFF" d="M389.2,167c0.2-0.5,0.5-1.1,0.7-1.6c0.2-0.5,0.4-1.1,0.4-1.7c0-0.4-0.2-0.6-0.6-0.4
				c-0.4,0.2-0.7,0.4-1.1,0.7c-1.4,1.2-2.7,2.5-3.8,4c-2.4,3-4.5,6.3-6.3,9.6c-1.2,2.1-2.2,4.3-3.3,6.4c-0.1,0.2-0.2,0.4-0.2,0.7
				c0.1-0.1,0.3-0.2,0.4-0.3c0.7-0.6,1.5-1.3,2.2-2c3.1-3.1,6-6.4,8.5-9.9c0.2-0.3,0.5-0.6,0.9-0.6c0.2,0,0.4-0.1,0.6-0.1
				c-0.1,0.2-0.2,0.4-0.4,0.6c-1.6,2.5-3.5,4.8-5.4,7c-2.4,2.7-5,5.2-7.8,7.4c-0.1,0.1-0.2,0.1-0.2,0.2c-0.8,2-1.6,4-1.9,6.2
				c-0.1,0.4,0,0.9,0,1.3c0.1,0.6,0.7,0.9,1.2,0.4c0.5-0.4,1-0.9,1.4-1.5c0.8-1.1,1.5-2.2,2.1-3.4c1.2-2,2.3-3.9,3.7-5.7
				c1.3-1.6,2.7-3.2,4.4-4.3c0.8-0.5,1.6-0.7,2.5-0.6c0.6,0.1,1,0.5,1.3,0.9c0.1,0.1,0.2,0.2,0.3,0.3c0.1-0.3,0.3-0.5,0.4-0.8
				c0.1-0.1,0.2-0.2,0.2-0.2c1.1-0.1,2.2-0.1,3.3-0.1c0,0,0.1,0,0.1,0c0,0.1-0.1,0.2-0.1,0.3c-1.6,3.1-3.1,6.1-4.7,9.2
				c-0.6,1.2-1.2,2.4-1.8,3.6c-0.2,0.3-0.3,0.7-0.4,1c-0.1,0.2-0.1,0.5,0.1,0.6c0.2,0.2,0.4,0.1,0.7-0.1c0.9-0.6,1.7-1.4,2.4-2.4
				c0.8-1.1,1.5-2.3,2.3-3.4c0.1-0.2,0.2-0.2,0.4-0.2c0.3,0,0.6,0,0.9,0c-0.1,0.2-0.2,0.4-0.3,0.6c-1.3,2.2-2.7,4.4-4.5,6.3
				c-1,1.1-2.1,2-3.5,2.7c-0.3,0.2-0.7,0.2-1.1,0.3c-0.7,0-1.2-0.3-1.4-1c-0.1-0.5-0.1-1-0.2-1.5c0-0.1,0-0.2,0-0.3c0,0,0,0-0.1,0
				c-0.2,0.2-0.4,0.4-0.6,0.6c-0.8,0.8-1.6,1.6-2.6,2.1c-0.5,0.3-1,0.4-1.6,0.3c-1-0.1-1.6-0.8-1.8-1.9c-0.1-0.4-0.1-0.9-0.1-1.3
				c0-0.1,0-0.2,0-0.4c-0.1,0.1-0.2,0.2-0.3,0.3c-0.8,1-1.6,1.9-2.6,2.7c-0.4,0.3-0.9,0.6-1.4,0.8c-1.1,0.4-2,0-2.6-0.9
				c-0.3-0.6-0.5-1.2-0.5-1.9c0-1.5,0.4-2.9,0.7-4.2c0.2-0.8,0.5-1.7,0.7-2.6c-0.2,0-0.3,0.1-0.4,0.1c-0.4,0.1-0.9,0.2-1.3,0.2
				c-0.2,0-0.3,0.1-0.4,0.3c-0.8,1.4-1.6,2.9-2.5,4.2c-1.2,1.9-2.7,3.5-4.6,4.7c-0.6,0.4-1.3,0.7-2,0.8c-1.4,0.2-2.2-0.7-2.4-1.7
				c-0.3-1-0.2-2,0-3c0.4-2.2,1.2-4.1,2.3-6c1.2-2,2.5-3.9,4.3-5.6c1-1,2.2-1.8,3.5-2.3c0.5-0.2,1-0.3,1.6-0.2
				c1.1,0.1,1.6,0.8,1.8,1.5c0.3,1.1,0.2,2.2-0.1,3.2c-0.3,0.9-0.6,1.7-0.9,2.5c0,0.1-0.1,0.2-0.1,0.3c0.7,0,1.3-0.2,1.9-0.5
				c0.1,0,0.1-0.2,0.2-0.3c1.7-3.8,3.5-7.5,5.7-11.1c2.7-4.4,5.9-8.3,9.7-11.8c0.9-0.8,1.9-1.5,3-2.1c0.5-0.3,1.1-0.5,1.7-0.4
				c0.8,0,1.2,0.4,1.3,1.2c0.1,1-0.1,1.8-0.5,2.7c-0.4,1-0.4,1-1.5,1.2C389.4,167,389.3,167,389.2,167z M379.5,194.3
				c0,0.3,0.4,0.6,1,0.4c0.3-0.1,0.5-0.3,0.7-0.5c0.7-0.5,1.1-1.3,1.6-2c1.3-2,2.3-4.1,3.4-6.2c0.6-1.2,1.3-2.4,1.9-3.6
				c0.1-0.3,0.2-0.5,0-0.8c-0.2-0.3-0.5-0.3-0.7-0.2c-0.3,0.1-0.7,0.3-0.9,0.5c-0.4,0.3-0.7,0.6-1,1c-2.3,2.6-4.1,5.5-5.4,8.7
				C379.7,192.5,379.5,193.2,379.5,194.3z M363,186.4c-0.5,0.8-1,1.5-1.4,2.3c-0.8,1.4-1.5,2.8-1.8,4.3c-0.1,0.5-0.2,1.1-0.1,1.6
				c0.1,0.7,0.7,1,1.4,0.9c0.7-0.2,1.2-0.6,1.6-1.1c1.4-1.5,2.5-3.2,3.4-5.1c0-0.1,0.1-0.2,0.1-0.3
				C364.8,188.5,363.7,187.7,363,186.4z M368,183.5c0-0.2,0-0.3,0-0.5c-0.1-0.7-0.5-1.1-1.1-1c-0.2,0-0.5,0.1-0.7,0.2
				c-0.6,0.4-1.2,0.8-1.6,1.5c-1,1.7,0.1,3.6,1.9,4.2c0.1,0,0.2-0.1,0.3-0.1c0.2-0.3,0.3-0.6,0.5-1C367.6,185.7,368,184.7,368,183.5
				z"/>
			<path fill="#FFFFFF" d="M311.5,180.7c0.2-0.1,0.4-0.1,0.6-0.1c0.5-0.3,1.1-0.6,1.6-0.9c1-0.7,1.9-1.7,2.7-2.6
				c0.9-1,1.8-1.9,2.9-2.6c0.9-0.7,1.9-1.1,3.1-1.1c1.5,0,2.6,1.2,2.4,2.7c-0.1,1.2-0.6,2.3-1.3,3.2c-0.3,0.3-0.6,0.6-1,0.8
				c-0.6,0.3-1.3-0.1-1.3-0.8c-0.1-1.2,1-2.6,2.3-2.7c0.1,0,0.2-0.1,0.2-0.1c0.2-0.5,0-1.2-0.8-1.2c-0.7,0-1.2,0.3-1.7,0.7
				c-0.9,0.8-1.7,1.7-2.4,2.7c-1.7,2.3-2.9,4.8-3.8,7.5c-0.2,0.7-0.3,1.4-0.1,2.1c0.2,1.1,1,1.6,2.1,1.3c0.9-0.3,1.7-0.9,2.4-1.5
				c1.5-1.5,2.7-3.1,3.9-4.8c1.1-1.6,2.2-3.2,3.3-4.8c1.1-1.5,2.3-2.9,3.8-4c0.7-0.5,1.4-1,2.3-1.2c1-0.2,1.7,0.1,2.3,0.8
				c0,0,0.1,0.1,0.1,0.2c0,0,0.1-0.1,0.1-0.1c0.2-0.5,0.5-0.6,1-0.6c0.8,0,1.7-0.1,2.5-0.1c0.1,0,0.2,0,0.3,0
				c-0.1,0.2-0.2,0.3-0.2,0.4c-2.2,4.3-4.5,8.6-6.7,12.9c-0.1,0.2-0.2,0.5-0.2,0.8c0,0.4,0.2,0.6,0.6,0.4c0.3-0.1,0.5-0.3,0.7-0.5
				c0.9-0.7,1.6-1.5,2.2-2.4c0.6-0.8,1.2-1.6,1.8-2.5c0.1-0.2,0.3-0.3,0.6-0.3c0.3,0,0.5,0,0.8,0c0,0.1,0,0.1-0.1,0.2
				c-1.4,2.3-2.9,4.5-4.7,6.4c-0.9,1-1.9,1.9-3.1,2.5c-0.5,0.3-1.1,0.5-1.7,0.4c-0.6-0.1-1.1-0.7-1.2-1.3c-0.1-0.4,0-0.9-0.1-1.4
				c-0.1,0.1-0.1,0.2-0.2,0.2c-0.6,0.7-1.3,1.4-2.1,2c-0.5,0.4-1.1,0.7-1.8,0.8c-1.3,0.2-2.3-0.6-2.4-1.9c-0.1-0.8,0.1-1.6,0.3-2.3
				c0-0.1,0-0.2,0-0.3c-0.1,0.1-0.2,0.2-0.2,0.3c-1.1,1-2.1,2.1-3.2,3.1c-0.9,0.8-2,1.4-3.2,1.6c-0.6,0.1-1.2,0.2-1.9,0
				c-1.3-0.4-1.9-1.4-2.2-2.6c-0.4-1.7,0-3.2,0.6-4.8c0.4-0.9,0.8-1.8,1.2-2.7c0-0.1,0.1-0.2,0.2-0.3c-0.5,0.1-0.9,0.3-1.3,0.4
				c-0.4,0.1-0.6,0.3-0.8,0.6c-0.8,1.4-1.6,2.9-2.5,4.2c-1.2,1.8-2.7,3.5-4.5,4.7c-0.7,0.5-1.5,1-2.4,1.1c-1,0.1-2-0.4-2.4-1.3
				c-0.4-0.8-0.5-1.6-0.4-2.4c0.1-2.4,1-4.7,2.2-6.7c1.5-2.5,3.3-4.8,5.6-6.6c0.9-0.7,2-1.4,3.2-1.6c1.8-0.4,3,0.5,3.1,2.4
				c0.1,1-0.2,2-0.5,3C311.9,179.7,311.7,180.1,311.5,180.7z M325.5,187.3c0.1,0.3,0.2,0.5,0.4,0.7c0.3,0.1,0.5,0.1,0.8,0
				c0.6-0.4,1.1-0.8,1.5-1.4c0.6-0.8,1.1-1.6,1.6-2.5c1.6-2.9,3.1-5.8,4.6-8.7c0.2-0.3,0.1-0.6-0.3-0.7c-0.3-0.1-0.6,0-0.9,0.1
				c-0.6,0.3-1.1,0.7-1.4,1.2c-1.1,1.5-2.2,3-3.3,4.5c-1.1,1.7-2.1,3.5-2.7,5.5C325.7,186.3,325.6,186.8,325.5,187.3z M306.2,179.6
				c-0.1,0.1-0.1,0.1-0.1,0.2c-0.5,0.9-1.1,1.8-1.6,2.7c-0.7,1.3-1.3,2.6-1.6,4.1c-0.1,0.4-0.1,0.9,0,1.3c0.1,0.8,0.7,1.1,1.5,0.9
				c0.2-0.1,0.4-0.2,0.6-0.3c0.7-0.5,1.3-1.1,1.8-1.7c1.1-1.4,2-2.9,2.8-4.4c0.1-0.1,0.1-0.2,0.1-0.4
				C308.2,181.6,307,180.9,306.2,179.6z M311.2,177c0-0.1,0-0.3,0-0.4c-0.2-1-0.7-1.4-1.7-1c-0.2,0.1-0.3,0.1-0.5,0.2
				c-0.7,0.5-1.2,1.2-1.5,2c-0.2,0.7-0.2,1.4,0.3,2c0.6,0.6,1.3,1,2.1,1c0.2,0,0.3-0.1,0.3-0.2c0.2-0.5,0.4-0.9,0.5-1.4
				C311.1,178.4,311.3,177.7,311.2,177z"/>
			<path fill="#FFFFFF" d="M381.9,166.9c-0.8,1-1.6,1.9-2.5,2.9c-0.1,0.1-0.2,0.1-0.3,0c-0.6-0.3-1.1-0.6-1.7-0.9
				c-1.7-1-3.4-2-5.1-2.9c-1.3-0.7-2.8-1.2-4.3-1.4c-0.5,0-1,0-1.4,0.2c-0.1,0.1-0.2,0.1-0.2,0.3c0.2,1.7-0.2,3.4-0.8,5
				c-0.8,2.2-2.1,4.2-3.7,5.9c-0.7,0.7-1.5,1.2-2.5,1.6c-1.3,0.5-2.3-0.2-2.6-1.5c-0.2-0.9,0-1.7,0.3-2.5c1-2.8,2.6-5.1,4.8-7
				c0.8-0.7,1.6-1.3,2.4-1.9c0,0,0.1-0.1,0.2-0.1c-0.5-0.2-1-0.2-1.5-0.1c-0.7,0.1-1.3,0.5-2,0.9c-2.4,1.4-4.4,3.3-6.3,5.3
				c-3.3,3.8-6.2,8-8.4,12.6c-1.2,2.5-2.1,5.2-2.5,8c-0.2,1.2-0.3,2.3,0.1,3.4c0.4,1.2,1.1,2.1,2.3,2.4c0.8,0.2,1.5,0,2.2-0.4
				c1.2-0.6,2.3-1.5,3.2-2.6c1.8-2,3.2-4.3,3.9-7c0.3-1,0.5-2,0.4-3.1c-0.1-1-0.7-1.4-1.6-1c-0.7,0.3-1.1,0.8-1.5,1.4
				c-0.9,1.3-1.5,2.7-1.7,4.3c0,0.1-0.1,0.3-0.2,0.3c-1.6,0.9-3,2.1-4.2,3.5c0,0-0.1,0.1-0.2,0.2c0.3-3.1,1.1-6,3-8.5
				c1.1-1.5,2.5-2.5,4.3-3c0.5-0.1,0.9-0.2,1.4-0.1c0.8,0.2,1.3,0.7,1.6,1.5c0.4,1,0.4,2,0.2,3c-0.3,2.4-1.3,4.6-2.6,6.6
				c-1.6,2.6-3.6,4.8-6.1,6.5c-1.1,0.7-2.3,1.1-3.6,1.2c-2.1,0.2-3.6-0.7-4.7-2.4c-0.9-1.5-1.2-3.1-1.2-4.8c0.1-2.7,0.9-5.2,1.9-7.7
				c2.8-6.6,6.9-12.4,12.3-17.2c2.3-2.1,4.9-3.7,7.9-4.7c1.1-0.4,2.2-0.5,3.3-0.2c0.5,0.1,0.9,0.3,1.3,0.7c0.1,0.1,0.2,0.1,0.4,0.1
				c0.9-0.3,1.7-0.7,2.6-0.9c2.2-0.5,4.4-0.3,6.4,0.7C377.3,164.4,379.5,165.6,381.9,166.9C381.8,166.8,381.8,166.8,381.9,166.9z
				 M365.3,165.2c-0.3,0.2-0.5,0.3-0.7,0.4c-2.8,1.9-4.8,4.4-6.1,7.4c-0.3,0.7-0.6,1.4-0.6,2.1c-0.1,1,0.7,1.5,1.6,1.1
				c0.4-0.2,0.7-0.4,1-0.6c3-2.5,4.7-5.7,4.9-9.6C365.4,165.8,365.3,165.6,365.3,165.2z"/>
			<path fill="#FFFFFF" d="M399.1,161.3c-0.4,1.1-1,2-1.7,3c-2.2,3-4.9,5.2-8.4,6.5c-1.8,0.6-3.6,0.9-5.4,0.6c0,0-0.1,0-0.1,0
				c-0.1,0-0.2,0-0.3-0.1c0.1-0.1,0.1-0.2,0.2-0.2c0.7-0.9,1.4-1.9,2.1-2.8c0.1-0.1,0.2-0.2,0.3-0.2c2.1,0.1,4.1-0.3,6.1-1.2
				c2.7-1.3,5.1-3.1,7.1-5.4C399,161.4,399,161.3,399.1,161.3z"/>
			<path fill="#FFFFFF" d="M345.1,172.8c-0.3,0.5-0.5,1-0.8,1.4c-0.3,0.5-0.6,1-0.9,1.6c0,0.1-0.2,0.2-0.2,0.2
				c-1,0.1-2.1,0.1-3.1,0.1c0,0,0,0-0.1,0c0,0,0-0.1,0-0.1c0.5-1,1.1-1.9,1.6-2.9c0-0.1,0.1-0.2,0.2-0.2
				C342.9,172.9,343.9,172.8,345.1,172.8z"/>
		</g>
	</g>
</g>
</svg>
