<?xml version="1.0" encoding="utf-8"?>
<!-- Generator: Adobe Illustrator 18.1.1, SVG Export Plug-In . SVG Version: 6.00 Build 0)  -->
<svg version="1.1" id="Layer_1" xmlns="http://www.w3.org/2000/svg" xmlns:xlink="http://www.w3.org/1999/xlink" x="0px" y="0px"
	 viewBox="0 0 73.5 171.5" enable-background="new 0 0 73.5 171.5" xml:space="preserve">
<g>
	<polygon fill="#5E101A" points="33.8,165.4 37.2,161.1 39.9,164.5 38.9,167.8 31.6,169.3 	"/>
	<circle fill="#D08500" cx="61" cy="51.5" r="5.6"/>
	<path fill="#F9BD91" d="M14,44.5l4.6,11.3l5.5,1l15.9-1l14.3,2c0,0,5.2,0.7,6.6-3.6s7.2-22.5,7.2-25.9S45.4,11.4,45.4,11.4L14,22.8
		V44.5z"/>
	<circle fill="#D08500" cx="14.8" cy="48.3" r="5.6"/>
	<path d="M14.4,45.5c0,0,3.2-3,2.6-10.9c0,0,4.9-25.2,28.7-10.7c0,0,6.1-3.6,10.8-2.4c4.7,1.2,8.7,4,8.8,10.9s-2.4,15.3-2.4,15.3
		s3.9,2.4,5.2-3.2c0,0-3.1,2.3-2.9-1.5s5.1-11,4.9-18.9c-0.2-8-12.8-20.9-27.9-14.9c0,0-6.8-4.9-21-1.5S-1.1,26.5,14.4,45.5z"/>
	<ellipse fill="#B91400" cx="40" cy="55.7" rx="3.2" ry="2.1"/>
	<polygon fill="#F9BD91" points="57.1,111 41.4,120.6 42.6,161.5 39.2,165.4 29.8,118.9 43.5,92 	"/>
	<polygon fill="#B91400" points="24.1,96.8 62.5,114.8 61.8,105.8 64.4,93.9 51.1,73.3 38.6,86.9 34,94 	"/>
	<polygon fill="#F9BD91" points="54.3,57.8 40.6,55.8 24.1,56.8 22.1,58.7 17.2,65.4 14,77.8 16.8,85.3 27.9,75.6 36.4,79 	"/>
	<polygon fill="#F9BD91" points="54.3,57.8 53.7,71.4 39.2,86.3 20.3,68.5 24.1,66.3 38,77.8 46.4,57.1 	"/>
	<path fill="#B91400" d="M38,77.8l5.5-12.6L38,63.8l-3.5,3.6l-4.7-2.9l-3.5,3.6C26.3,68.2,34.5,76.3,38,77.8z"/>
	<polygon fill="#E5A57A" points="39.1,164.9 35.5,158 24.8,117.1 29.8,99.5 37.8,103.2 29.8,118.9 	"/>
	<path fill="#F9BD91" d="M18.2,69.4C9,62.5,12.4,58.9,13.9,58s5.1,4.4,5.1,4.4s-1.7-2.1-0.4-2.7c1.2-0.6,3.3,1.7,3.3,1.7
		s3.7,3.6,1.4,6.2S18.2,69.4,18.2,69.4z"/>
	<path d="M51,10.5c-0.1,0.2,0.3,0.3,0.5,0.3c1.6-0.4,2.8-1.8,3.4-3.3s0.6-3.2,0.2-4.8c0,1.7,1.6,2.8,2.7,4c1.7,1.9,2.3,4.6,1.6,7
		c-0.4,0.2-0.8,0.4-1.2,0.6"/>
	<path d="M64,19.3c-0.1,0.2,0.1,0.4,0.3,0.4c0.2,0,0.4-0.1,0.6-0.2c2.4-1.4,4.2-3.8,5.2-6.4c0.1-0.3,0.1-0.8-0.2-0.9
		c1.4,2.2,1.8,4.9,1.2,7.3s-2.3,4.6-4.5,5.9"/>
	<path d="M28.9,10.2C28.8,10.2,28.9,10.4,28.9,10.2c0.1,0,0.1-0.1,0-0.1C27.5,8,27,5.3,27.6,2.8c-3.1,1.6-5.3,4.8-5.8,8.2"/>
	<path d="M14.4,19.6c0.1,0.2-0.1,0.4-0.3,0.4c-0.2,0-0.4-0.1-0.6-0.2c-1.5-0.8-2.9-1.6-4.2-2.7C8.1,16.1,7.2,14.6,7,13
		c-0.4,1-0.9,2-1.2,3c-1.2,4.2,0.3,9,3.7,11.8"/>
	<path d="M11.3,34.1c0,0.2-0.1,0.3-0.1,0.5c-1.9,2-5.2,2.5-7.5,1.1c0.4,1.6,0.8,3.4,2.1,4.5c1.1,1,2.7,1.3,4,0.9
		c1.4-0.4,2.5-1.6,2.8-3"/>
	<polygon fill="#BE1E2D" points="39.2,165.4 42.5,161.1 45.3,164.5 44.2,167.8 36.9,169.3 	"/>
</g>
</svg>
