<?xml version="1.0" encoding="utf-8"?>
<!-- Generator: Adobe Illustrator 18.1.1, SVG Export Plug-In . SVG Version: 6.00 Build 0)  -->
<svg version="1.1" id="Layer_1" xmlns="http://www.w3.org/2000/svg" xmlns:xlink="http://www.w3.org/1999/xlink" x="0px" y="0px"
	 viewBox="0 0 752 310" enable-background="new 0 0 752 310" xml:space="preserve">
<g>
	<polygon fill="#998675" points="5,265.5 5,240.4 90.9,192.7 105.4,268.4 	"/>
	<path fill="#998675" d="M745.9,237.1l-82.8-32.4c0,0-69.2-194.1-290.4-194.1S91,192.7,91,192.7S90,298,91,298s634.5,0,634.5,0
		L745.9,237.1z"/>
	<polygon fill="#998675" points="565.2,278.4 745.9,278.4 745.9,230.5 576.4,172.7 	"/>
	<rect x="362.2" y="266.1" fill="#826952" width="384.3" height="43.9"/>
	<polygon fill="#826952" points="133.6,310 23.9,310 23.9,265.5 133.6,266.1 	"/>
	<rect x="137" y="174.2" fill="#3C3C3C" width="224.9" height="135.5"/>
	<rect x="115.6" y="145.2" fill="#89725B" width="271.1" height="30.2"/>
	<rect x="362.9" y="175.4" fill="#89725B" width="23.9" height="90.8"/>
	<rect x="386.3" y="145.2" fill="#927D67" width="8.2" height="121"/>
	<rect x="115.7" y="174.8" fill="#89725B" width="16.5" height="91.2"/>
	<rect x="132.6" y="174.8" fill="#927D67" width="4.7" height="134.7"/>
	<path fill="#89725B" d="M575.8,172.3l2,93.7h62.3l0.9-59.7C641.1,206.3,597.3,183,575.8,172.3z"/>
	<polygon fill="#927D67" points="641.1,206.1 745.9,230.5 575.8,172.2 	"/>
	<rect x="5.1" y="240" fill="#755D48" width="19" height="70"/>
	<polygon fill="#89725B" points="24.1,240 91.5,202.2 90.9,192.7 5.1,240 	"/>
	<polygon fill="#927D67" points="91.5,202.1 90,266 25,266 24.1,240 	"/>
</g>
</svg>
