<?xml version="1.0" encoding="utf-8"?>
<!-- Generator: Adobe Illustrator 18.1.1, SVG Export Plug-In . SVG Version: 6.00 Build 0)  -->
<svg version="1.1" id="Layer_1" xmlns="http://www.w3.org/2000/svg" xmlns:xlink="http://www.w3.org/1999/xlink" x="0px" y="0px"
	 viewBox="0 0 102.7 276.6" enable-background="new 0 0 102.7 276.6" xml:space="preserve">
<rect x="43.7" y="87.7" fill="#A3A793" width="11.7" height="188.9"/>
<rect x="51.6" y="90.6" fill="#9C998F" width="4.1" height="185.9"/>
<path fill="#DA303A" d="M83.6,102.4H20.4c-8.9,0-16-7.2-16-16v-66c0-8.9,7.2-16,16-16h63.1c8.9,0,16,7.2,16,16v66
	C99.5,95.2,92.3,102.4,83.6,102.4z"/>
<path fill="#EDEAEA" d="M84.1,95.7H19.8c-5.1,0-9.3-4.1-9.3-9.3v-66c0-5.1,4.1-9.3,9.3-9.3h64.2c5.1,0,9.3,4.1,9.3,9.3v66
	C93.3,91.5,89.2,95.7,84.1,95.7z"/>
<g>
	<path fill="#183952" d="M79.6,60c-0.4,1-0.4,2-0.6,3.1c-2.1,9.7-7.7,16.5-17,20.1c-1.8,0.7-3.7,1.2-5.6,1.6c-2,0.3-3.4,1.5-4.6,3.1
		c-0.6,0.9-0.8,0.9-1.4,0c-1.5-2.3-3.8-2.9-6.2-3.4C36.9,82.8,31,79,27,72.6c-2.4-3.8-3.7-8-4.3-12.5c0-0.2,0.1-0.6-0.2-0.7
		c0-1.9,0-3.8,0-5.7c0.4-0.6,0.3-1.3,0.4-2c0.5-3.3,1.4-6.4,2.7-9.4c0.8-1.9,1.3-3.9,0.9-6c-0.3-1.6-1.2-2.9-2-4.2
		c-0.1-0.2-0.3-0.4-0.5-0.7c1.6-0.1,3,0,4.5-0.2c4.1-0.6,6.9-2.7,8-6.8c0.3-1,0.3-1,1.3-0.7C41.5,24.6,44.9,24,48,22
		c1.4-0.9,2.1-2.3,3-3.7c0.3,0.2,0.4,0.5,0.6,0.8c1.7,3,4.4,4.4,7.6,4.9c1.9,0.3,3.7,0.2,5.5-0.4c0.5-0.2,0.7,0,0.8,0.4
		c0.4,1.6,1.1,3.2,2.3,4.4c1.9,2,4.4,2.7,7,2.9c1.1,0.1,2.1,0,3.4,0c-0.4,0.6-0.6,1-0.9,1.4c-1.9,2.7-2.2,5.6-1.1,8.6
		c0.9,2.6,2,5.2,2.5,7.9c0.2,1.1,0.4,2.2,0.6,3.3c0,0.1,0,0.3,0.2,0.4C79.6,55.3,79.6,57.7,79.6,60z M26.3,32.5
		c0.3,0.7,0.7,1.3,0.9,1.9c1.1,2.7,0.6,5.4-0.4,7.9c-2.3,5.6-3.5,11.4-2.8,17.5c0.6,6,2.8,11.3,7,15.7c3.9,4.1,8.8,6.6,14.3,7.7
		c2.3,0.5,4.5,1.2,5.8,3.4c0.2-0.3,0.4-0.5,0.6-0.7c1-1.3,2.3-2,3.9-2.4c0.7-0.2,1.3-0.3,2-0.4c6-1.4,11.2-4.2,15.1-9.1
		c5.2-6.6,6.6-14.3,5.5-22.5c-0.4-3.2-1.4-6.2-2.6-9.2c-1.3-3.3-1.6-6.6,0.4-9.8c0,0,0-0.1,0-0.1c0,0-0.1,0-0.1,0
		c-0.2,0-0.3,0-0.5,0c-5-0.3-8.9-2.2-10.5-7.2c-0.1-0.4-0.3-0.3-0.6-0.3c-1.6,0.4-3.2,0.4-4.8,0.2c-3.3-0.5-6.3-1.6-8.2-4.7
		c0,0-0.1,0-0.2,0c-0.8,1.5-2.1,2.6-3.6,3.3c-2.9,1.4-5.9,1.9-9,1.2c-0.6-0.1-0.9-0.1-1.1,0.6c-1.1,3.2-3.4,5.3-6.6,6.3
		C29.3,32.3,27.8,32.5,26.3,32.5z"/>
	<path fill="#FAFBFD" d="M26.3,32.5c1.5-0.1,3-0.2,4.4-0.6c3.3-1,5.5-3,6.6-6.3c0.2-0.6,0.5-0.7,1.1-0.6c3.1,0.6,6.1,0.2,9-1.2
		c1.5-0.7,2.7-1.8,3.6-3.3c0.1,0,0.1,0,0.2,0c1.9,3,4.9,4.2,8.2,4.7c1.6,0.2,3.2,0.2,4.8-0.2c0.3-0.1,0.5-0.1,0.6,0.3
		c1.7,5.1,5.5,7,10.5,7.2c0.2,0,0.3,0,0.5,0c0,0,0.1,0,0.1,0c0,0,0.1,0.1,0,0.1c-2,3.2-1.8,6.5-0.4,9.8c1.2,3,2.2,6,2.6,9.2
		c1.1,8.2-0.3,15.8-5.5,22.5c-3.9,4.9-9.1,7.7-15.1,9.1c-0.7,0.2-1.3,0.3-2,0.4c-1.5,0.4-2.9,1.1-3.9,2.4c-0.2,0.2-0.4,0.4-0.6,0.7
		c-1.3-2.2-3.5-2.9-5.8-3.4c-5.5-1.2-10.4-3.6-14.3-7.7c-4.2-4.4-6.3-9.8-7-15.7c-0.7-6.1,0.5-11.9,2.8-17.5
		c1.1-2.6,1.5-5.2,0.4-7.9C26.9,33.8,26.6,33.2,26.3,32.5z M51.1,38.7c-10.1,0-18.3,8.1-18.3,18.2C32.8,67,41,75.3,51,75.3
		c10,0,18.3-8.2,18.3-18.2C69.4,47,61.2,38.7,51.1,38.7z M59.9,38.5c1.3-0.6,2.4-1.1,3.5-1.6c0.4-0.2,0.6-0.4,0.6-0.8
		c0.1-0.4-0.4-0.4-0.6-0.5c-0.7-0.4-1.5-0.7-2.3-1.1c-0.3-0.2-0.5-0.1-0.6,0.2c-0.2,0.3-0.2,0.5,0.2,0.7c0.5,0.2,1,0.4,1.5,0.8
		c-1.3,0.9-2.9,1.1-3.9,2.2c-0.1-0.1-0.1-0.3-0.1-0.5c-0.2-1.4-0.5-2.8-0.6-4.2c-0.1-0.4-0.2-0.6-0.6-0.6c-0.3-0.1-0.6-0.2-0.9,0.2
		c-0.8,1.3-1.7,2.6-2.6,3.8c-0.1,0.1-0.3,0.4,0,0.4c0.4,0.1,0.9,0.4,1.2-0.2c0.2-0.5,0.5-0.7,1-0.4c0.5,0.2,1.4-0.1,1.3,0.9
		c0,0.4,0.2,0.6,0.6,0.7c0.2,0,0.4,0.1,0.6,0.2c1,0.7,2.2,1.1,3.3,1.7c0.4,0.2,0.5,0.1,0.7-0.2c0.2-0.4,0-0.5-0.3-0.6
		C61.3,39.2,60.7,38.9,59.9,38.5z M38.7,73.3c0-0.4-0.1-0.7-0.3-0.9c-0.6-0.6-1.3-1.2-2-1.8c-0.3-0.2-0.4,0-0.5,0.1
		c-0.9,1.1-1.9,2.2-2.8,3.3c-0.2,0.2-0.2,0.3,0,0.5c0.7,0.6,1.3,1.2,2.1,1.7c0.6,0.5,1.5,0.3,2-0.3c0.3-0.4,0.1-1,0.3-1.3
		c0.2-0.3,0.9-0.2,1.1-0.7C38.6,73.6,38.6,73.4,38.7,73.3z M38.3,39.5c0.4-1,0.4-1.6-0.3-2.1c-0.6-0.5-1.1-0.4-2,0.2
		c-0.5,0.4-1,0.8-1.6,1.2c-0.4,0.3-0.3,0.5-0.1,0.8c0.8,1,1.7,2.1,2.4,3.1c0.3,0.3,0.4,0.5,0.8,0.1c0.4-0.3,0.4-0.5,0.1-0.8
		c-0.2-0.2-0.4-0.5-0.6-0.7c-0.1-0.2-0.4-0.3-0.2-0.5c0.1-0.2,0.4-0.4,0.7-0.3c0.5,0.1,1,0.2,1.4,0.4c0.8,0.4,1.2,0,1.8-0.6
		C39.9,40,39.2,39.6,38.3,39.5z M65,75.1c0.5-1,0.4-1.6-0.2-2.1c-0.7-0.6-1.4-0.3-2,0.1c-0.5,0.4-1,0.7-1.5,1.1
		c-0.4,0.3-0.4,0.5-0.1,0.8c0.7,1,1.5,2.1,2.2,3.1c0.2,0.3,0.3,0.7,0.8,0.3c0.5-0.4,0.3-0.6,0.1-1c-0.2-0.4-0.9-0.8-0.6-1.2
		c0.4-0.6,1.1-0.1,1.6,0c0.1,0,0.2,0.1,0.2,0.1c0.8,0.5,1.4,0.3,2-0.4c-0.5-0.2-0.9-0.4-1.3-0.6C65.7,75.3,65.3,75.2,65,75.1z
		 M73.5,62.3c1.5,0,2.5-1,2.5-2.5c0-1.5-1.1-2.5-2.8-2.4c-1.5,0-2.5,1.1-2.5,2.6C70.7,61.4,71.8,62.4,73.5,62.3z M45.3,77.2
		c0-0.6-0.4-1.2-1.1-1.6c-0.6-0.3-1.2-0.5-1.7-0.7c-0.4-0.2-0.5-0.1-0.7,0.3c-0.4,1-0.8,1.9-1.1,2.9c-0.6,1.4-0.6,1.4,0.9,2
		C43.6,80.9,45.3,79.8,45.3,77.2z M61.3,78.3c0-1.6-1.2-3-2.5-3c-1.4,0-2.6,1.1-2.6,2.4c0,1.6,1.1,3,2.5,3
		C60.2,80.7,61.3,79.7,61.3,78.3z M49.7,77.8c0.2,0.1,0.5,0,0.5-0.4c0.1-0.5-0.3-0.5-0.6-0.5c-0.9-0.1-1.8-0.2-2.7-0.3
		c-0.4-0.1-0.6,0-0.6,0.4c-0.1,1.4-0.3,2.7-0.5,4.1c-0.1,0.4,0.1,0.5,0.4,0.6c1,0.1,1.9,0.2,2.9,0.4c0.4,0.1,0.5-0.1,0.6-0.5
		c0-0.4-0.1-0.5-0.5-0.5c-0.6,0-1.2-0.1-1.8-0.2c-0.5,0-0.4-0.4-0.4-0.7c0-0.3,0-0.7,0.5-0.6c0.5,0.1,1,0.1,1.5,0.2
		c0.3,0,0.6,0,0.6-0.4c0-0.4-0.2-0.5-0.5-0.5c-0.5,0-0.9-0.1-1.4-0.2c-0.4,0-0.6,0-0.6-0.5c0.1-0.4,0.2-0.5,0.6-0.5
		C48.5,77.7,49.1,77.7,49.7,77.8z M42.2,39.6c1.8,0,2.7-1.4,2-3c-0.3-0.8-0.7-1.6-1-2.4c-0.1-0.4-0.3-0.4-0.7-0.2
		c-0.3,0.2-0.6,0.2-0.4,0.7c0.4,0.8,0.7,1.6,1.1,2.4c0.3,0.6,0.3,1-0.4,1.3c-0.7,0.3-1.1,0-1.3-0.6c-0.4-0.8-0.7-1.6-1.1-2.5
		c-0.2-0.4-0.4-0.4-0.7-0.2c-0.2,0.1-0.6,0.2-0.4,0.6c0.5,1,0.9,2,1.4,2.9C41,39.3,41.5,39.6,42.2,39.6z M49,30.8
		c-0.9-1.4-1.8-2.7-2.6-4.1c-0.2-0.4-0.5-0.4-0.9-0.4c-0.4,0.1-0.6,0.3-0.6,0.7c-0.2,1.4-0.5,2.7-0.7,4.1c0,0.2-0.3,0.6,0.1,0.7
		c0.3,0,1,0.2,1-0.5c0-0.8,0.5-1,1.1-1c0.4,0,0.8-0.4,1.1,0.1C47.7,31.2,48.2,31.1,49,30.8z M29.8,69.9c0.1,0.6,0.5,1.4,1.3,1.9
		c0.7,0.4,1.3,0.2,1.9-0.2c0.8-0.5,1.5-1,2.3-1.5c0.4-0.2,0.3-0.4,0.1-0.8c-0.2-0.3-0.4-0.5-0.7-0.2c-0.7,0.5-1.5,1-2.2,1.5
		c-0.5,0.3-1,0.4-1.4-0.2c-0.4-0.6-0.2-1,0.4-1.4c0.8-0.5,1.5-1,2.3-1.5c0.4-0.2,0.3-0.4,0.1-0.7c-0.2-0.2-0.3-0.5-0.7-0.2
		c-0.9,0.6-1.7,1.2-2.6,1.8C30,68.6,29.7,69,29.8,69.9z M65.2,43c0.6,0,0.9-0.3,1.3-0.6c0.7-0.8,1.3-1.5,2-2.3
		c0.3-0.3,0.2-0.5-0.1-0.8c-0.3-0.2-0.5-0.4-0.8,0c-0.5,0.7-1.1,1.3-1.6,1.9c-0.4,0.5-0.8,0.9-1.5,0.4c-0.6-0.5-0.4-1,0-1.5
		c0.5-0.6,1.1-1.3,1.6-1.9c0.3-0.3,0.3-0.5-0.1-0.7c-0.3-0.2-0.4-0.4-0.8,0c-0.6,0.8-1.2,1.5-1.8,2.2c-0.5,0.6-0.8,1.2-0.3,1.9
		C63.6,42.3,64.3,42.9,65.2,43z M46.7,37c0.7-1.2,1.3-2.3,1.9-3.4c0.2-0.3,0.2-0.7,0-1c-0.2-0.3-0.5-0.1-0.8,0
		c-0.8,0.1-1.6,0.3-2.5,0.4c-0.3,0.1-0.5,0.1-0.4,0.5c0.1,0.3,0.1,0.5,0.6,0.4c0.5-0.1,1.1-0.2,1.7-0.3c-0.1,0.3-0.2,0.5-0.3,0.6
		c-0.5,0.9-0.9,1.7-1.4,2.5c-0.3,0.4-0.2,0.9,0,1.2c0.2,0.3,0.5,0,0.8,0c0.9-0.1,1.8-0.3,2.7-0.5c0.3-0.1,0.5-0.1,0.5-0.6
		c-0.1-0.4-0.3-0.5-0.6-0.4C48.2,36.8,47.5,36.9,46.7,37z M53.1,76.8c-0.4,0-0.9,0.1-1.3,0.1c-0.4,0-0.5,0.1-0.5,0.5
		c0.1,1.3,0.2,2.7,0.4,4c0.1,0.5,0.5,0.7,0.9,0.5c0.4-0.2,0.2-0.6,0.1-0.8c-0.2-0.8,0-1.3,1-1.2c0.1,0,0.3,0,0.4,0
		c0.8-0.2,1.3-0.8,1.2-1.6C55.3,77.1,54.7,76.7,53.1,76.8z M53.4,29.2c0,0.8,0.4,1.5,1.4,1.9c0.8,0.3,1.6,0.4,2.3-0.3
		c0.2-0.2,0.6-0.4,0.3-0.7c-0.3-0.3-0.6-0.8-1.1-0.1c-0.2,0.4-0.7,0.4-1.1,0.3c-0.5-0.2-0.7-0.5-0.7-1c0-0.6,0.1-1.2,0.4-1.7
		c0.2-0.4,0.6-0.6,1-0.5c0.5,0,0.9,0.2,1,0.7c0.1,0.7,0.7,0.4,1,0.4c0.4-0.1,0.2-0.5,0.1-0.7c-0.2-0.6-0.7-1-1.3-1.2
		C54.9,25.6,53.4,26.9,53.4,29.2z M33.7,46.5c1.6,0,2.8-1.8,2.1-3.1c-0.1-0.2-0.2-0.7-0.6-0.4c-0.3,0.2-0.9,0.3-0.4,0.9
		c0.3,0.4,0.2,0.8-0.1,1.2c-0.4,0.4-0.8,0.5-1.3,0.3c-0.5-0.2-1-0.5-1.3-0.9c-0.3-0.4-0.4-0.8-0.2-1.2c0.2-0.4,0.6-0.7,1-0.6
		c0.7,0.1,0.6-0.5,0.7-0.7c0.1-0.5-0.4-0.3-0.6-0.4c-0.5-0.1-1,0.1-1.3,0.5c-0.8,0.7-1.1,1.7-0.7,2.6C31.3,45.5,32.6,46.5,33.7,46.5
		z M29,58.6c0.6,0,1.1,0,1.4,0.6c0.3,0.6,0.2,1.1-0.4,1.5c-0.4,0.3,0,0.7,0.1,0.9c0.2,0.3,0.4,0,0.6-0.1c0.4-0.3,0.7-0.7,0.7-1.2
		c0.2-1.3-0.5-2.5-1.8-2.8c-1.5-0.4-3,0.4-3.4,1.7c-0.3,1.1,0.2,2.3,1.2,2.7c0.2,0.1,0.6,0.4,0.7,0c0.1-0.3,0.5-0.8-0.3-1
		c-0.5-0.1-0.7-0.5-0.7-1c0-0.5,0.3-0.8,0.7-1C28.2,58.7,28.6,58.6,29,58.6z M72.8,65.5c-1,0-1.8,0.1-2.6,0
		c-0.9-0.1-1.3,0.2-1.4,1.2c1.7,0,3.3,0,4.9,0c0.3,0,0.5-0.1,0.6-0.4c0.1-0.3,0.4-0.6,0-0.9c-1.3-1.1-2.5-2.2-3.8-3.3
		c-0.7,0.8-0.4,1.2,0.3,1.7C71.5,64.3,72.1,64.9,72.8,65.5z M69.3,74.1c0.2-0.3,0.4-0.5,0.6-0.7c0.2-0.2-0.1-0.3-0.2-0.4
		c-0.7-0.6-1.3-1.2-2-1.7c-0.6-0.5-1-0.9-0.2-1.5c0.3-0.3,0.2-0.4-0.1-0.7c-0.3-0.2-0.4-0.2-0.6,0.1c-0.7,0.8-1.4,1.6-2,2.4
		c-0.1,0.1-0.3,0.3-0.1,0.5c0.1,0.2,0.3,0.3,0.5,0.4c0.2,0,0.4-0.2,0.5-0.4c0.4-0.7,0.7-0.5,1.2-0.1c0.7,0.6,1.4,1.2,2.1,1.8
		C69.1,73.8,69.2,73.9,69.3,74.1z M31.7,62.4c-1.5,0.5-2.9,1-4.3,1.6c-0.3,0.1-0.2,0.3-0.1,0.5c0.3,0.8,0.6,1.6,0.9,2.4
		c0.1,0.3,0.2,0.6,0.7,0.4c0.5-0.2,0.3-0.5,0.2-0.8c-0.1-0.3-0.2-0.6-0.3-0.9c-0.3-0.6-0.2-1,0.5-1.2c0.9-0.3,1.8-0.6,2.7-1
		c0.3-0.1,0.5-0.2,0.3-0.5C32,62.8,32.1,62.4,31.7,62.4z M70.2,41.5c-0.1,0.1-0.2,0.1-0.2,0.1c-1.2,0.9-2.4,1.8-3.6,2.6
		c-0.3,0.2-0.1,0.3,0,0.5c0.5,0.7,1.1,1.4,1.6,2.2c0.2,0.3,0.3,0.5,0.7,0.2c0.4-0.3,0.3-0.5,0.1-0.8c-0.3-0.4-0.5-0.8-0.8-1.1
		c-0.3-0.3-0.3-0.6,0.1-0.8c0.8-0.6,1.7-1.2,2.5-1.8c0.1-0.1,0.4-0.2,0.3-0.4C70.5,42,70.3,41.7,70.2,41.5z M72.5,69.8
		c0-0.2-0.2-0.2-0.3-0.3c-1.2-0.7-2.4-1.4-3.6-2.2c-0.4-0.3-0.5,0-0.7,0.2c-0.2,0.4-0.2,0.5,0.2,0.7c1.2,0.7,2.3,1.4,3.5,2.1
		C72,70.6,72.5,70.3,72.5,69.8z M58.8,32.2c0.4-0.1,0.4-0.5,0.4-0.8c0-0.5-0.5-0.4-0.7-0.4c-0.5-0.1-0.4,0.5-0.4,0.7
		C58,32.2,58.5,32,58.8,32.2z M49.8,29.6c-0.1,0.2-0.7-0.1-0.5,0.5c0.1,0.3-0.1,0.8,0.5,0.6c0.2-0.1,0.8,0.1,0.6-0.5
		C50.3,30,50.5,29.5,49.8,29.6z"/>
	<path fill="#CB2A34" d="M51.1,38.7c10.1,0,18.2,8.2,18.2,18.3c0,10-8.3,18.3-18.3,18.2c-10,0-18.2-8.3-18.2-18.4
		C32.9,46.9,41,38.7,51.1,38.7z M51.1,70.5c7.4,0,13.5-6.1,13.5-13.5c0-7.4-6.1-13.5-13.5-13.5c-7.4,0-13.5,6-13.5,13.5
		C37.6,64.4,43.6,70.5,51.1,70.5z"/>
	<path fill="#183952" d="M59.9,38.5c0.8,0.4,1.4,0.7,2,1c0.3,0.1,0.5,0.3,0.3,0.6c-0.2,0.3-0.3,0.4-0.7,0.2c-1.1-0.6-2.3-1-3.3-1.7
		c-0.2-0.1-0.4-0.2-0.6-0.2c-0.4-0.1-0.6-0.2-0.6-0.7c0.1-1-0.8-0.7-1.3-0.9c-0.5-0.2-0.8,0-1,0.4c-0.3,0.7-0.8,0.3-1.2,0.2
		c-0.3-0.1-0.1-0.3,0-0.4c0.9-1.3,1.7-2.6,2.6-3.8c0.2-0.4,0.5-0.3,0.9-0.2c0.4,0.1,0.5,0.2,0.6,0.6c0.2,1.4,0.4,2.8,0.6,4.2
		c0,0.2,0,0.4,0.1,0.5c1.1-1.2,2.7-1.3,3.9-2.2c-0.4-0.4-1-0.6-1.5-0.8c-0.4-0.2-0.4-0.3-0.2-0.7c0.2-0.3,0.3-0.4,0.6-0.2
		c0.7,0.4,1.5,0.7,2.3,1.1c0.2,0.1,0.7,0.1,0.6,0.5c-0.1,0.4-0.3,0.6-0.6,0.8C62.2,37.4,61.1,37.9,59.9,38.5z M56.5,34.5
		c-0.2,0.3-0.4,0.5-0.5,0.8c-0.1,0.1-0.1,0.2-0.2,0.3c-0.1,0.2-0.1,0.3,0.2,0.4c0.8,0.3,0.8,0.2,0.7-0.5
		C56.6,35.2,56.7,34.9,56.5,34.5z"/>
	<path fill="#183952" d="M38.7,73.3c0,0.1-0.1,0.3-0.2,0.5c-0.2,0.5-0.9,0.4-1.1,0.7c-0.2,0.3,0.1,0.9-0.3,1.3
		c-0.5,0.6-1.3,0.8-2,0.3c-0.7-0.5-1.4-1.1-2.1-1.7c-0.2-0.2-0.2-0.3,0-0.5c0.9-1.1,1.9-2.2,2.8-3.3c0.1-0.2,0.3-0.4,0.5-0.1
		c0.7,0.6,1.3,1.2,2,1.8C38.6,72.6,38.7,72.9,38.7,73.3z M36.3,74.7c0-0.3-1.1-1.4-1.2-1.4c-0.3,0.2-0.6,0.5-0.7,0.8
		c-0.1,0.2,1.1,1.1,1.4,1.1C36.1,75.3,36.3,75,36.3,74.7z M37.1,73.6c0.3,0,0.5-0.2,0.5-0.5c0-0.2-1-1.2-1.2-1.2
		c-0.3,0.1-0.5,0.4-0.6,0.7C35.7,72.7,36.8,73.6,37.1,73.6z"/>
	<path fill="#183952" d="M38.3,39.5c0.9,0.1,1.7,0.5,2.5,0.8c-0.5,0.6-1,1-1.8,0.6c-0.4-0.2-0.9-0.3-1.4-0.4
		c-0.3-0.1-0.6,0.1-0.7,0.3c-0.1,0.2,0.1,0.4,0.2,0.5c0.2,0.2,0.3,0.5,0.6,0.7c0.3,0.3,0.3,0.5-0.1,0.8c-0.4,0.3-0.5,0.2-0.8-0.1
		c-0.8-1.1-1.6-2.1-2.4-3.1c-0.3-0.3-0.3-0.5,0.1-0.8c0.5-0.4,1-0.8,1.6-1.2c0.8-0.6,1.4-0.7,2-0.2C38.6,37.9,38.7,38.5,38.3,39.5z
		 M37.1,38.2c-0.4,0-1.5,0.8-1.4,1c0.1,0.3,0.3,0.6,0.6,0.8c0.2,0.1,1.3-1,1.3-1.2C37.5,38.5,37.3,38.3,37.1,38.2z"/>
	<path fill="#183952" d="M65,75.1c0.4,0.1,0.7,0.2,1.1,0.3c0.5,0.2,0.9,0.4,1.3,0.6c-0.6,0.8-1.2,0.9-2,0.4c-0.1,0-0.1-0.1-0.2-0.1
		c-0.5-0.2-1.2-0.7-1.6,0c-0.3,0.4,0.4,0.8,0.6,1.2c0.2,0.4,0.5,0.6-0.1,1c-0.5,0.4-0.6,0-0.8-0.3c-0.7-1-1.4-2.1-2.2-3.1
		c-0.3-0.3-0.3-0.6,0.1-0.8c0.5-0.3,1-0.7,1.5-1.1c0.6-0.4,1.3-0.7,2-0.1C65.4,73.5,65.4,74.1,65,75.1z M64.2,74.3
		c0-0.3-0.3-0.6-0.6-0.6c-0.3,0-1.5,0.9-1.4,1c0.2,0.3,0.3,0.7,0.7,0.8C63.2,75.6,64.2,74.6,64.2,74.3z"/>
	<path fill="#183952" d="M73.5,62.3c-1.7,0-2.8-0.9-2.8-2.4c0-1.5,1-2.6,2.5-2.6c1.7,0,2.8,1,2.8,2.4C76,61.3,75,62.3,73.5,62.3z
		 M73.5,61.2c0.9,0,1.5-0.5,1.6-1.3c0-0.8-0.7-1.4-1.8-1.4c-0.9,0-1.5,0.5-1.5,1.3C71.6,60.6,72.3,61.2,73.5,61.2z"/>
	<path fill="#183952" d="M45.3,77.2c0,2.6-1.7,3.7-3.8,2.9c-1.4-0.6-1.4-0.6-0.9-2c0.4-1,0.8-1.9,1.1-2.9c0.1-0.4,0.3-0.4,0.7-0.3
		c0.6,0.3,1.2,0.5,1.7,0.7C44.9,76,45.2,76.6,45.3,77.2z M44.1,77.4c0-0.7-0.5-1.2-1.2-1.3c-0.6-0.1-0.5,0.5-0.6,0.7
		c-0.3,0.5-0.5,1.1-0.7,1.6c-0.1,0.2-0.2,0.3-0.1,0.5c0.3,0.4,1.5,0.5,1.8,0.1C43.9,78.7,44.1,78,44.1,77.4z"/>
	<path fill="#183952" d="M61.3,78.3c0,1.3-1.2,2.4-2.6,2.4c-1.4,0-2.5-1.4-2.5-3c0-1.3,1.2-2.4,2.6-2.4
		C60.2,75.4,61.4,76.8,61.3,78.3z M60.2,78.4c0-1-0.7-2-1.5-2c-0.7,0-1.4,0.6-1.4,1.3c0,1.1,0.8,2,1.6,2
		C59.7,79.7,60.2,79.1,60.2,78.4z"/>
	<path fill="#183952" d="M49.7,77.8c-0.7-0.1-1.2-0.1-1.7-0.2c-0.4-0.1-0.6,0-0.6,0.5c-0.1,0.5,0.2,0.5,0.6,0.5
		c0.5,0,0.9,0.1,1.4,0.2c0.3,0,0.5,0.1,0.5,0.5c0,0.4-0.3,0.5-0.6,0.4c-0.5-0.1-1-0.1-1.5-0.2c-0.5-0.1-0.5,0.3-0.5,0.6
		c0,0.3-0.1,0.6,0.4,0.7c0.6,0,1.2,0.2,1.8,0.2c0.4,0,0.5,0.1,0.5,0.5c0,0.4-0.2,0.5-0.6,0.5c-1-0.1-1.9-0.3-2.9-0.4
		c-0.4,0-0.5-0.2-0.4-0.6c0.2-1.4,0.4-2.7,0.5-4.1c0-0.4,0.2-0.5,0.6-0.4c0.9,0.1,1.8,0.2,2.7,0.3c0.3,0,0.7,0,0.6,0.5
		C50.2,77.9,49.9,77.9,49.7,77.8z"/>
	<path fill="#183952" d="M42.2,39.6c-0.7,0-1.2-0.3-1.4-0.9c-0.5-1-0.9-2-1.4-2.9c-0.2-0.5,0.1-0.5,0.4-0.6c0.3-0.2,0.5-0.2,0.7,0.2
		c0.3,0.8,0.7,1.6,1.1,2.5c0.3,0.6,0.7,0.9,1.3,0.6c0.7-0.3,0.6-0.8,0.4-1.3c-0.4-0.8-0.7-1.6-1.1-2.4c-0.2-0.5,0.1-0.5,0.4-0.7
		c0.3-0.2,0.5-0.1,0.7,0.2c0.3,0.8,0.7,1.6,1,2.4C44.8,38.2,44,39.5,42.2,39.6z"/>
	<path fill="#183952" d="M49,30.8c-0.7,0.3-1.3,0.4-1.6-0.5c-0.2-0.5-0.7-0.1-1.1-0.1c-0.7,0-1.1,0.2-1.1,1c0,0.7-0.7,0.5-1,0.5
		c-0.4,0-0.1-0.4-0.1-0.7c0.2-1.4,0.5-2.7,0.7-4.1c0.1-0.4,0.2-0.6,0.6-0.7c0.4-0.1,0.7,0,0.9,0.4C47.2,28.1,48.1,29.4,49,30.8z
		 M45.7,27.7c-0.1,0.7-0.4,1.2-0.2,1.6c0.1,0.2,0.6-0.1,1.1-0.1C46.3,28.7,46.1,28.3,45.7,27.7z"/>
	<path fill="#183952" d="M29.8,69.9c0-0.8,0.2-1.3,0.7-1.6c0.9-0.6,1.8-1.2,2.6-1.8c0.4-0.3,0.5,0,0.7,0.2c0.2,0.3,0.3,0.5-0.1,0.7
		c-0.8,0.5-1.5,1-2.3,1.5c-0.5,0.4-0.7,0.8-0.4,1.4c0.4,0.6,0.9,0.5,1.4,0.2c0.7-0.5,1.5-1,2.2-1.5c0.4-0.3,0.5-0.1,0.7,0.2
		c0.2,0.3,0.3,0.5-0.1,0.8c-0.8,0.5-1.5,1-2.3,1.5c-0.6,0.4-1.2,0.7-1.9,0.2C30.3,71.2,29.8,70.5,29.8,69.9z"/>
	<path fill="#183952" d="M65.2,43c-0.9-0.1-1.6-0.7-2-1.4c-0.4-0.7-0.1-1.4,0.3-1.9c0.6-0.7,1.2-1.4,1.8-2.2c0.3-0.4,0.5-0.2,0.8,0
		c0.3,0.2,0.4,0.4,0.1,0.7c-0.6,0.6-1.1,1.3-1.6,1.9c-0.4,0.5-0.6,1,0,1.5c0.7,0.6,1.1,0.1,1.5-0.4c0.5-0.6,1.1-1.3,1.6-1.9
		c0.3-0.4,0.5-0.3,0.8,0c0.3,0.3,0.4,0.4,0.1,0.8c-0.7,0.7-1.3,1.5-2,2.3C66.1,42.8,65.7,43,65.2,43z"/>
	<path fill="#183952" d="M46.7,37c0.8-0.1,1.5-0.3,2.2-0.4c0.3-0.1,0.5,0,0.6,0.4c0.1,0.4-0.1,0.5-0.5,0.6c-0.9,0.1-1.8,0.3-2.7,0.5
		c-0.3,0-0.7,0.3-0.8,0c-0.2-0.4-0.2-0.8,0-1.2c0.5-0.8,1-1.7,1.4-2.5c0.1-0.2,0.2-0.3,0.3-0.6c-0.7,0.1-1.2,0.2-1.7,0.3
		c-0.4,0.1-0.5-0.1-0.6-0.4c-0.1-0.4,0.1-0.5,0.4-0.5c0.8-0.1,1.6-0.3,2.5-0.4c0.2,0,0.6-0.2,0.8,0c0.2,0.3,0.2,0.7,0,1
		C48,34.7,47.4,35.8,46.7,37z"/>
	<path fill="#183952" d="M53.1,76.8c1.6-0.1,2.2,0.3,2.3,1.5c0,0.8-0.4,1.5-1.2,1.6c-0.1,0-0.3,0.1-0.4,0c-0.9-0.1-1.1,0.4-1,1.2
		c0,0.2,0.3,0.6-0.1,0.8c-0.5,0.2-0.9,0-0.9-0.5c-0.1-1.3-0.2-2.7-0.4-4c0-0.4,0.1-0.5,0.5-0.5C52.2,76.8,52.6,76.8,53.1,76.8z
		 M52.6,78.4c0.1,0.2-0.2,0.8,0.5,0.7c0.5-0.1,1.1,0,1.1-0.7c0-0.6-0.5-0.7-0.9-0.6C53,77.8,52.4,77.5,52.6,78.4z"/>
	<path fill="#183952" d="M53.4,29.2c0-2.3,1.5-3.6,3.3-3c0.6,0.2,1.1,0.6,1.3,1.2c0.1,0.2,0.3,0.6-0.1,0.7c-0.3,0.1-0.8,0.3-1-0.4
		c-0.1-0.5-0.5-0.7-1-0.7c-0.4,0-0.8,0.2-1,0.5c-0.3,0.5-0.5,1.1-0.4,1.7c0,0.5,0.3,0.8,0.7,1c0.4,0.2,0.9,0.1,1.1-0.3
		c0.4-0.7,0.8-0.2,1.1,0.1c0.3,0.3-0.1,0.6-0.3,0.7c-0.7,0.7-1.5,0.7-2.3,0.3C53.9,30.7,53.5,30,53.4,29.2z"/>
	<path fill="#183952" d="M33.7,46.5c-1.1,0-2.4-1-2.7-2c-0.3-0.9,0-1.9,0.7-2.6c0.4-0.3,0.8-0.5,1.3-0.5c0.2,0,0.7-0.1,0.6,0.4
		c-0.1,0.3,0,0.9-0.7,0.7c-0.5-0.1-0.8,0.2-1,0.6c-0.2,0.4-0.1,0.8,0.2,1.2c0.3,0.4,0.8,0.7,1.3,0.9c0.5,0.2,0.9,0.1,1.3-0.3
		c0.3-0.4,0.4-0.8,0.1-1.2c-0.5-0.6,0.1-0.7,0.4-0.9c0.4-0.3,0.5,0.2,0.6,0.4C36.4,44.7,35.3,46.5,33.7,46.5z"/>
	<path fill="#183952" d="M29,58.6c-0.4,0-0.8,0.1-1.1,0.2c-0.4,0.2-0.7,0.5-0.7,1c0,0.5,0.2,0.9,0.7,1c0.8,0.2,0.4,0.7,0.3,1
		c-0.1,0.5-0.5,0.1-0.7,0c-1-0.4-1.5-1.6-1.2-2.7c0.4-1.3,1.9-2,3.4-1.7c1.3,0.3,2,1.4,1.8,2.8c-0.1,0.5-0.3,0.9-0.7,1.2
		c-0.2,0.1-0.4,0.4-0.6,0.1C30,61.3,29.6,61,30,60.7c0.6-0.4,0.7-0.9,0.4-1.5C30.1,58.6,29.5,58.5,29,58.6z"/>
	<path fill="#183952" d="M72.8,65.5c-0.7-0.6-1.3-1.1-2-1.6c-0.7-0.5-1-0.9-0.3-1.7c1.3,1.1,2.5,2.2,3.8,3.3c0.4,0.3,0.1,0.6,0,0.9
		c-0.1,0.3-0.2,0.4-0.6,0.4c-1.6,0-3.3,0-4.9,0c0.1-1.1,0.5-1.3,1.4-1.2C71,65.6,71.8,65.5,72.8,65.5z"/>
	<path fill="#183952" d="M69.3,74.1c-0.2-0.1-0.3-0.2-0.4-0.3c-0.7-0.6-1.4-1.2-2.1-1.8c-0.5-0.5-0.8-0.6-1.2,0.1
		c-0.1,0.2-0.2,0.4-0.5,0.4c-0.2,0-0.4-0.2-0.5-0.4c-0.2-0.2,0-0.3,0.1-0.5c0.7-0.8,1.4-1.6,2-2.4c0.2-0.3,0.4-0.3,0.6-0.1
		c0.3,0.2,0.4,0.4,0.1,0.7c-0.8,0.6-0.5,1,0.2,1.5c0.7,0.5,1.3,1.1,2,1.7c0.1,0.1,0.4,0.2,0.2,0.4C69.8,73.6,69.6,73.8,69.3,74.1z"
		/>
	<path fill="#183952" d="M31.7,62.4c0.4,0,0.3,0.4,0.5,0.6c0.2,0.3,0,0.4-0.3,0.5c-0.9,0.3-1.8,0.7-2.7,1c-0.7,0.2-0.8,0.6-0.5,1.2
		c0.1,0.3,0.2,0.6,0.3,0.9c0.1,0.3,0.3,0.6-0.2,0.8c-0.5,0.2-0.5-0.1-0.7-0.4c-0.3-0.8-0.6-1.6-0.9-2.4c-0.1-0.2-0.2-0.4,0.1-0.5
		C28.8,63.5,30.2,63,31.7,62.4z"/>
	<path fill="#183952" d="M70.2,41.5c0.2,0.2,0.4,0.5,0.5,0.7c0.1,0.3-0.1,0.3-0.3,0.4c-0.8,0.6-1.6,1.2-2.5,1.8
		c-0.4,0.3-0.4,0.5-0.1,0.8c0.3,0.3,0.5,0.8,0.8,1.1c0.2,0.3,0.3,0.5-0.1,0.8c-0.4,0.3-0.5,0.1-0.7-0.2c-0.5-0.7-1-1.4-1.6-2.2
		c-0.1-0.2-0.3-0.3,0-0.5c1.2-0.9,2.4-1.8,3.6-2.6C70,41.6,70,41.6,70.2,41.5z"/>
	<path fill="#183952" d="M72.5,69.8c0,0.5-0.6,0.8-1,0.6c-1.2-0.7-2.3-1.4-3.5-2.1c-0.4-0.2-0.4-0.4-0.2-0.7
		c0.2-0.3,0.3-0.5,0.7-0.2c1.2,0.8,2.4,1.5,3.6,2.2C72.4,69.6,72.5,69.6,72.5,69.8z"/>
	<path fill="#183952" d="M58.8,32.2c-0.3-0.2-0.8,0-0.7-0.5c0-0.2-0.1-0.8,0.4-0.7c0.2,0,0.8-0.1,0.7,0.4
		C59.1,31.6,59.2,32.1,58.8,32.2z"/>
	<path fill="#183952" d="M49.8,29.6c0.7-0.1,0.5,0.4,0.5,0.6c0.2,0.6-0.4,0.4-0.6,0.5c-0.6,0.1-0.4-0.4-0.5-0.6
		C49.1,29.5,49.7,29.8,49.8,29.6z"/>
	<path fill="#FAFBFD" d="M51.1,70.5c-7.5,0-13.5-6-13.5-13.5c0-7.4,6.1-13.5,13.5-13.5c7.4,0,13.5,6.1,13.5,13.5
		C64.6,64.4,58.5,70.5,51.1,70.5z M59,61c1.1,0,2.2,0,3.3,0c0.5,0,0.7-0.1,0.6-0.6c0-2.2,0-4.4,0-6.7c0-0.5-0.1-0.7-0.7-0.7
		c-2.2,0-4.4,0-6.6,0c-0.6,0-0.7-0.2-0.7-0.7c0-2.2,0-4.4,0-6.6c0-0.5-0.1-0.7-0.7-0.7c-2.2,0-4.4,0-6.6,0c-0.6,0-0.7,0.2-0.7,0.7
		c0,2.1,0,4.3,0,6.4c0,0.7-0.2,0.8-0.9,0.8c-2.1,0-4.3,0-6.4,0c-0.5,0-0.7,0.1-0.7,0.6c0,2.3,0,4.5,0,6.8c0,0.5,0.2,0.6,0.7,0.6
		c2.1,0,4.2,0,6.3,0c0.8,0,1.1,0.1,1,1c-0.1,2.1,0,4.2,0,6.3c0,0.5,0.1,0.7,0.6,0.7c2.2,0,4.4,0,6.7,0c0.5,0,0.7-0.2,0.7-0.7
		c0-2.2,0-4.3,0-6.5c0-0.7,0.2-0.8,0.8-0.8C56.9,61,58,61,59,61z"/>
	<path fill="#FAFBFD" d="M56.5,34.5c0.2,0.3,0.2,0.6,0.2,0.9c0.1,0.8,0,0.8-0.7,0.5c-0.2-0.1-0.3-0.2-0.2-0.4
		c0.1-0.1,0.1-0.2,0.2-0.3C56.1,35.1,56.3,34.8,56.5,34.5z"/>
	<path fill="#FAFBFD" d="M36.3,74.7c0,0.3-0.2,0.6-0.6,0.6c-0.3,0-1.5-0.9-1.4-1.1c0.1-0.3,0.4-0.7,0.7-0.8
		C35.3,73.3,36.3,74.4,36.3,74.7z"/>
	<path fill="#FAFBFD" d="M37.1,73.6c-0.3,0-1.4-0.8-1.3-1c0.1-0.3,0.3-0.6,0.6-0.7c0.2,0,1.2,1,1.2,1.2
		C37.5,73.4,37.4,73.5,37.1,73.6z"/>
	<path fill="#FAFBFD" d="M37.1,38.2c0.3,0,0.4,0.2,0.5,0.6c0,0.3-1.1,1.3-1.3,1.2c-0.3-0.1-0.5-0.5-0.6-0.8
		C35.6,39.1,36.7,38.2,37.1,38.2z"/>
	<path fill="#FAFBFD" d="M64.2,74.3c0,0.3-1,1.3-1.3,1.2c-0.4-0.1-0.5-0.5-0.7-0.8c-0.1-0.1,1.1-1,1.4-1
		C63.9,73.7,64.2,74,64.2,74.3z"/>
	<path fill="#FAFBFD" d="M73.5,61.2c-1.1,0-1.8-0.6-1.8-1.4c0-0.8,0.6-1.3,1.5-1.3c1.1,0,1.8,0.6,1.8,1.4
		C75,60.7,74.4,61.2,73.5,61.2z"/>
	<path fill="#FAFBFD" d="M44.1,77.4c-0.1,0.6-0.3,1.2-0.7,1.7c-0.3,0.4-1.5,0.3-1.8-0.1c-0.1-0.2,0-0.4,0.1-0.5
		c0.2-0.6,0.4-1.1,0.7-1.6c0.1-0.3,0-0.8,0.6-0.7C43.6,76.3,44.1,76.8,44.1,77.4z"/>
	<path fill="#FAFBFD" d="M60.2,78.4c0,0.7-0.6,1.3-1.3,1.3c-0.8,0-1.6-1-1.6-2c0-0.7,0.6-1.3,1.4-1.3C59.5,76.4,60.2,77.4,60.2,78.4
		z"/>
	<path fill="#FAFBFD" d="M45.7,27.7c0.4,0.6,0.6,1,0.9,1.5c-0.4,0.1-1,0.4-1.1,0.1C45.3,28.9,45.6,28.4,45.7,27.7z"/>
	<path fill="#FAFBFD" d="M52.6,78.4c-0.2-0.9,0.4-0.6,0.7-0.7c0.4-0.1,0.9,0,0.9,0.6c0,0.7-0.6,0.7-1.1,0.7
		C52.3,79.2,52.7,78.6,52.6,78.4z"/>
	<path fill="#183952" d="M59,61c-1.1,0-2.1,0-3.2,0c-0.6,0-0.8,0.1-0.8,0.8c0,2.2,0,4.3,0,6.5c0,0.5-0.1,0.7-0.7,0.7
		c-2.2,0-4.4,0-6.7,0c-0.5,0-0.6-0.2-0.6-0.7c0-2.1,0-4.2,0-6.3c0-0.9-0.3-1-1-1c-2.1,0.1-4.2,0-6.3,0c-0.5,0-0.7-0.1-0.7-0.6
		c0-2.3,0-4.5,0-6.8c0-0.5,0.2-0.6,0.7-0.6c2.1,0,4.3,0,6.4,0c0.7,0,0.9-0.1,0.9-0.8c0-2.1,0-4.3,0-6.4c0-0.6,0.1-0.7,0.7-0.7
		c2.2,0,4.4,0,6.6,0c0.5,0,0.7,0.1,0.7,0.7c0,2.2,0,4.4,0,6.6c0,0.6,0.1,0.7,0.7,0.7c2.2,0,4.4,0,6.6,0c0.5,0,0.7,0.2,0.7,0.7
		c0,2.2,0,4.4,0,6.7c0,0.5-0.2,0.6-0.6,0.6C61.2,61,60.1,61,59,61z M47.9,49.9c0,1.1,0,2.2,0,3.3c0,0.6-0.1,0.7-0.7,0.7
		c-2.2,0-4.4,0-6.6,0c-0.5,0-0.7,0.1-0.6,0.6c0,1.7,0,3.4,0,5.1c0,0.5,0.2,0.6,0.6,0.6c2.2,0,4.4,0,6.6,0c0.6,0,0.7,0.1,0.7,0.7
		c0,2.2,0,4.4,0,6.6c0,0.5,0.1,0.7,0.6,0.7c1.7,0,3.4,0,5.1,0c0.5,0,0.6-0.2,0.6-0.7c0-2.2,0-4.4,0-6.6c0-0.6,0.1-0.7,0.7-0.7
		c2.2,0,4.4,0,6.6,0c0.5,0,0.7-0.1,0.7-0.7c0-1.7,0-3.3,0-5c0-0.7-0.2-0.7-0.8-0.7c-2.1,0-4.3,0-6.4,0c-0.6,0-0.8-0.1-0.8-0.8
		c0-2.2,0-4.4,0-6.6c0-0.5-0.1-0.6-0.6-0.6c-1.7,0-3.4,0-5,0c-0.5,0-0.7,0.1-0.7,0.7C47.9,47.7,47.9,48.8,47.9,49.9z"/>
	<path fill="#FAFBFD" d="M47.9,49.9c0-1.1,0-2.2,0-3.3c0-0.6,0.2-0.7,0.7-0.7c1.7,0,3.4,0,5,0c0.5,0,0.6,0.1,0.6,0.6
		c0,2.2,0,4.4,0,6.6c0,0.6,0.2,0.8,0.8,0.8c2.1,0,4.3,0,6.4,0c0.6,0,0.8,0.1,0.8,0.7c-0.1,1.7,0,3.3,0,5c0,0.5-0.1,0.7-0.7,0.7
		c-2.2,0-4.4,0-6.6,0c-0.6,0-0.7,0.2-0.7,0.7c0,2.2,0,4.4,0,6.6c0,0.5-0.1,0.7-0.6,0.7c-1.7,0-3.4,0-5.1,0c-0.5,0-0.6-0.2-0.6-0.7
		c0-2.2,0-4.4,0-6.6c0-0.6-0.1-0.7-0.7-0.7c-2.2,0-4.4,0-6.6,0c-0.5,0-0.7-0.1-0.6-0.6c0-1.7,0-3.4,0-5.1c0-0.5,0.2-0.6,0.6-0.6
		c2.2,0,4.4,0,6.6,0c0.6,0,0.7-0.2,0.7-0.7C47.9,52,47.9,51,47.9,49.9z M53.5,50.7c0-1.1,0-2.2,0-3.3c0-0.5-0.1-0.7-0.6-0.7
		c-1.2,0-2.3,0-3.5,0c-0.6,0-0.7,0.2-0.7,0.7c0,2.1,0,4.3,0,6.4c0,0.7-0.1,0.9-0.8,0.9c-2.1,0-4.3,0-6.4,0c-0.6,0-0.7,0.2-0.7,0.7
		c0,1.1,0,2.3,0,3.4c0,0.5,0.2,0.7,0.7,0.7c2.1,0,4.2,0,6.3,0c0.9,0,1,0.3,1,1.1c-0.1,2,0,4,0,6c0,0.7,0.1,1,0.9,0.9
		c1-0.1,2.1-0.1,3.1,0c0.7,0,0.9-0.1,0.9-0.8c0-2.1,0-4.3,0-6.4c0-0.6,0.1-0.7,0.7-0.7c2.1,0,4.3,0,6.4,0c0.7,0,0.9-0.2,0.8-0.9
		c-0.1-1.1,0-2.2,0-3.3c0-0.6-0.2-0.7-0.7-0.7c-2.1,0-4.2,0-6.3,0c-0.7,0-1-0.1-0.9-0.9C53.5,52.8,53.5,51.7,53.5,50.7z"/>
	<path fill="#183952" d="M53.5,50.7c0,1,0.1,2.1,0,3.1c-0.1,0.8,0.2,0.9,0.9,0.9c2.1,0,4.2,0,6.3,0c0.6,0,0.8,0.1,0.7,0.7
		c0,1.1-0.1,2.2,0,3.3c0,0.7-0.1,0.9-0.8,0.9c-2.1-0.1-4.3,0-6.4,0c-0.6,0-0.7,0.2-0.7,0.7c0,2.1,0,4.3,0,6.4c0,0.7-0.2,0.9-0.9,0.8
		c-1-0.1-2.1-0.1-3.1,0c-0.8,0.1-0.9-0.2-0.9-0.9c0-2,0-4,0-6c0-0.8-0.1-1.1-1-1.1c-2.1,0.1-4.2,0-6.3,0c-0.5,0-0.7-0.1-0.7-0.7
		c0-1.1,0-2.3,0-3.4c0-0.6,0.1-0.7,0.7-0.7c2.1,0,4.3,0,6.4,0c0.7,0,0.8-0.2,0.8-0.9c0-2.1,0-4.3,0-6.4c0-0.5,0.1-0.7,0.7-0.7
		c1.2,0,2.3,0,3.5,0c0.6,0,0.7,0.2,0.6,0.7C53.4,48.5,53.5,49.6,53.5,50.7z"/>
</g>
</svg>
