<?xml version="1.0" encoding="utf-8"?>
<!-- Generator: Adobe Illustrator 18.1.1, SVG Export Plug-In . SVG Version: 6.00 Build 0)  -->
<svg version="1.1" id="Layer_1" xmlns="http://www.w3.org/2000/svg" xmlns:xlink="http://www.w3.org/1999/xlink" x="0px" y="0px"
	 viewBox="0 0 207 597.4" enable-background="new 0 0 207 597.4" xml:space="preserve">
<path fill="#F69220" d="M155.2,354.1c0.1-1.4,0.2-2.8,0.2-4.3c0-27.7-22.5-50.2-50.2-50.2s-50.2,22.5-50.2,50.2c0,0.1,0,0.1,0,0.2
	C66.5,363.9,112.2,377.6,155.2,354.1z"/>
<path fill="#F69220" d="M82.7,239.2c0,0-123.8-121.7-52.7-233.6c1.2-1.9,4.2-1.2,4.4,1c1.5,15.6,9.4,52.4,49.1,64.4
	c48.4,14.7,94.8-21.2,104.3-60.9c0.5-1.9,3.1-2.2,3.9-0.4c11.8,27,52.9,142.6-61.7,228.7L82.7,239.2z"/>
<path fill="#DB7427" d="M136.6,170.3c0,0,43.5-52,25.4-89.6l-1.8,1.8c0,0,16.2,33.6-25.1,84.1L136.6,170.3z"/>
<polygon fill="#DB7427" points="140.3,164 158,214.9 160.5,211.6 141.4,162.2 "/>
<polygon fill="#DB7427" points="172.3,198.7 151,147.8 152.1,144.1 174.6,195.7 "/>
<polygon fill="#DB7427" points="190.8,168.1 158,132.8 159.8,129.3 191.9,165.5 "/>
<polygon fill="#DB7427" points="202.2,138.9 163.1,115.3 164.2,112.7 203,135.6 "/>
<polygon fill="#DB7427" points="207.8,106.5 164.2,98.7 164.2,95.8 207.8,103.2 "/>
<polygon fill="#DB7427" points="206.6,68.1 164.6,79.2 163.9,74.4 207,64.8 "/>
<path fill="#F69220" d="M173.7,115.7c0,0,1.7,8.6-3.9,11.3c-5.5,2.8-11.9,5.8-11.9,5.8S175.4,125.1,173.7,115.7z"/>
<path fill="#DB7427" d="M78.3,170.3c0,0-43.5-52-25.4-89.6l1.8,1.8c0,0-16.2,33.6,25.1,84.1L78.3,170.3z"/>
<polygon fill="#DB7427" points="74.6,164 58,210.1 55.8,207.5 73.5,162.2 "/>
<polygon fill="#DB7427" points="44.7,191.7 63.9,147.8 62.8,144.1 42.9,188.3 "/>
<polygon fill="#DB7427" points="28.9,163.3 56.9,132.8 55.1,129.3 27.8,161.1 "/>
<polygon fill="#DB7427" points="17.5,136.3 51.8,115.3 50.6,112.7 16.7,133.4 "/>
<polygon fill="#DB7427" points="9.9,104.8 50,98.7 50,95.8 9.5,102.8 "/>
<polygon fill="#DB7427" points="8.2,68.1 50.3,79.2 51,74.4 7.9,64.8 "/>
<path fill="#DB7427" d="M33.7,34.2L47,83.6l36.9,15.5l45,0.7l35.4-9.6l19.9-53.8c0,0,4.4-25.1-71.5-26.6S33.7,34.2,33.7,34.2z"/>
<path fill="#FAAF3B" d="M85.1,330.9c0,0,15.8,9,39,2.4c0,0,1.2-23.9,5.1-39.9c3.9-16,8.4-83,3.9-112.3c0,0,8.3-12.7,2.8-22.1
	c0,0,36-19.4,43.7-28.8c7.7-9.4-2.2-52-2.2-52s3.3-19.4-2.8-26.6c0,0-5,13.8-3.3,27.1l-6.1,44.3L131,136.7l-7.9-1.1l-6.2-0.6V129
	c0,0,5.9-1.1,8.1-6.6c2.2-5.5,1.6-14.4-1.2-17.1s-2.3-7.2-10-6.6S99.5,96.9,96.2,98c-3.3,1.1-9.4,5.5-8.9,7.7
	c0.6,2.2,1.1,4.6,1.1,10.2s-3.3,5.1-1.7,20.1h-6.6c0,0-16.6-10.7-29.9-16.2c0,0-10-32.7-9.4-35.5s4.4-10,3.9-13.3
	c-0.6-3.3-4.4-8.9,0-16.1s-2.2,0-2.2,0s1.7-2.8-2.2,3.9c0,0-0.6-12.2-2.2-13.8s-0.6,5.5-1.7,8.8c-1.1,3.3,1.1,14.9,0.6,18.8
	c-0.6,3.9-6.6,49.8-3.3,54.8s44.8,28.8,44.8,28.8s-2.8,21,0.6,23.2c0,0-5.5,49.8-4.4,52c1.1,2.2,5.5,5.5,5,9.4
	c-0.6,3.9,2.2,38.7,3.3,47.6C84,297.1,85.1,330.9,85.1,330.9z"/>
<path fill="#F69220" d="M97,137.3c0,0,9.1,10.2,12.4,11.3c3.3,1.1,14.7-9.1,14.7-9.1s-8.9,12.2-13,13.8C107,155,97,137.3,97,137.3z"
	/>
<path fill="#F69220" d="M98.1,177.6c-0.8,0-13.8,3.6-16.9,2.5c0,0,5.8,2.5,8.9,2.5S98.1,177.6,98.1,177.6z"/>
<path fill="#F69220" d="M107.3,179c0,0,6.1-0.3,9.7,1.4c3.6,1.7,14.1,3,16.9-0.3c2.8-3.3-3.3-13.3-3.3-13.3s3,8.3,0.8,11.6
	C129.1,181.8,112,174.1,107.3,179z"/>
<path fill="#F69220" d="M133.8,153c0,0-3.3,17.1-8,19.9c-4.7,2.8-7.7-1.7-9.7,0.3c0,0,1.1-3.6,5.5-2.2
	C126.1,172.4,133.8,153,133.8,153z"/>
<path fill="#F69220" d="M81.8,161.9c0,0,3.6,12.7,10,13.8C91.8,175.7,83.7,166.3,81.8,161.9z"/>
<path fill="#F69220" d="M136.9,138.4c0,0-4.1,6.4-3.6,13.6C133.3,151.9,130.8,140.6,136.9,138.4z"/>
<path fill="#F69220" d="M85.4,140c0,0,2.2,6.4-4.1,14.1C81.3,154.1,85.4,143.9,85.4,140z"/>
<path fill="#F69220" d="M88.2,150.3c0,0,1.1,11.3,3.9,12.2s10.2-2.8,13.6-3c0,0-3-0.8-7.5,0C93.7,160.2,91.5,164.1,88.2,150.3z"/>
<path fill="#F69220" d="M103.7,129.8c0,0,6.9,5,11.9,0l-5.3,8.3C110.3,138.1,107.8,130.9,103.7,129.8z"/>
<polygon fill="#F69220" points="109.2,113.2 110,122.6 111.7,120.9 "/>
<path fill="#F69220" d="M106.6,114.2c0,0-1-1.9-3.9-2.5s-3.3,2.2-3.3,2.2L106.6,114.2z"/>
<path fill="#F69220" d="M111.6,114.2c0,0,1-1.9,3.9-2.5c2.8-0.5,3.3,2.2,3.3,2.2L111.6,114.2z"/>
<path fill="#F69220" d="M96.7,107.9c0,0,0.8,15.5,5.3,19.9l0.3,3.9l-1.4,4.7l-0.8-7.7C100.1,128.7,95.1,117.1,96.7,107.9z"/>
<path fill="#F69220" d="M90.1,186.5c0,0-0.8,21.3-0.6,24.1C89.6,210.6,86,197,90.1,186.5z"/>
<path fill="#F69220" d="M101,211.9v98.5C101,310.4,106,223,101,211.9z"/>
<path fill="#F69220" d="M86.8,216.4c0,0,0.6,60.6,3.6,68.6L86.8,216.4z"/>
<path fill="#F69220" d="M131,204.5l2.5,45.4l2.2-16.9C135.7,233,130.8,204.8,131,204.5z"/>
<path fill="#F69220" d="M118.3,286.3c-0.1-1.4-3.3,47.8-3.3,47.8l1.9-0.6C116.9,333.6,118.9,297.7,118.3,286.3z"/>
<path fill="#F69220" d="M41.2,115.7c0,0-1.7,8.6,3.9,11.3c5.5,2.8,11.9,5.8,11.9,5.8S39.5,125.1,41.2,115.7z"/>
<path fill="#F69220" d="M138.2,153l21.3-16.3l-23.2,13.8C136.3,150.5,134.4,154.1,138.2,153z"/>
<polygon fill="#F69220" points="178,77 175.5,78.6 178,81.1 "/>
<path fill="#F69220" d="M86.8,135.6l12.5-1.1C99.3,134.5,93.1,132.3,86.8,135.6z"/>
<path fill="#FAAF3B" d="M128.5,137.1c0,0-3.3-5.9,1.8-9.2c5.2-3.3-1.8-26.9-10.7-27.3c-8.9-0.4,1.5,12.5,1.5,12.5l-5.5,14.4l1.1,9.2
	L128.5,137.1z"/>
<path fill="#F69220" d="M121.8,110.5c0,0,3.7,11.8-3.3,18.8C118.5,129.3,122.6,120.1,121.8,110.5z"/>
<path fill="#F69220" d="M103,101.7c0,0,3.3,5.5,8.5,4.8c5.2-0.7,9.6-1.1,9.6-1.1s-4.4-2.2-8.9-1.1C107.8,105.4,103,101.7,103,101.7z
	"/>
<path fill="#F69220" d="M125.9,119.7c0,1.1,4.1,4.8,1.5,8.1c-2.6,3.3-1.5-7-1.5-7"/>
<path fill="#F69220" d="M92,131.9c0,0-3.3-8.1-0.7-10.7c2.6-2.6,0-11.4,0-11.4s3.7,7.7,1.5,13.3C90.5,128.6,92,131.9,92,131.9z"/>
<ellipse fill="#B26628" cx="109.3" cy="31.6" rx="64.2" ry="18.1"/>
<path fill="#F69220" d="M77.6,52.3l5.5,0.7l1.1,41.7C84.2,94.7,83.1,54.8,77.6,52.3z"/>
<path fill="#F69220" d="M126.6,56.7l1.5,38.7c0,0-1.1-36.1,3.3-39.5L126.6,56.7z"/>
<rect x="42.9" y="347.3" fill="#333333" width="123.9" height="27.6"/>
<rect x="5.8" y="367.6" fill="#333333" width="198.2" height="229.8"/>
<rect x="27.4" y="385.8" fill="#FAAF3B" width="158.1" height="191.6"/>
</svg>
