<?xml version="1.0" encoding="utf-8"?>
<!-- Generator: Adobe Illustrator 18.1.1, SVG Export Plug-In . SVG Version: 6.00 Build 0)  -->
<svg version="1.1" id="Layer_1" xmlns="http://www.w3.org/2000/svg" xmlns:xlink="http://www.w3.org/1999/xlink" x="0px" y="0px"
	 viewBox="0 0 127 433.4" enable-background="new 0 0 127 433.4" xml:space="preserve">
<g>
	<path fill="#231F20" d="M78,82.2c2,1.2,4.8,0.6,6.6-1s2.6-4,2.9-6.4c0,1.3-0.1,2.6-0.1,3.9c0,0.3,0,0.7,0.2,1
		c0.2,0.2,0.5,0.3,0.8,0.3c2.6,0.3,5.3-1.6,5.8-4.1c-0.5,0.9-1.9,0.9-2.6,0.2c-0.8-0.6-1.1-1.7-1.1-2.7c-0.1-1.5,0.1-3,0.6-4.3
		c1.3,0.7,2,2.3,1.5,3.7c2,0,3.6-2,3.7-4c0.1-2-1.1-3.9-2.6-5.3c2,0.7,3.6,2.2,4.5,4.1c1.5-1.8,1.4-4.4,0.4-6.4
		c-1-2-2.9-3.5-4.9-4.6c1-0.7,2.5-0.7,3.4,0.2c-0.3,0.5-1,0.5-1.4,0.1c-0.4-0.4-0.5-1-0.6-1.5c-0.2-1.3-0.5-2.6-0.7-3.8
		c-0.4-1.9-0.5-4.3,1.2-5.3c-0.7,0.7-1.9,0.4-2.5-0.3c-0.7-0.7-0.9-1.6-1.2-2.5c-0.2-0.8-0.4-1.5-0.6-2.3c-0.4-1.6,1-2.7,1.4-4.4
		c2.3-8.5-2.2-18.2-10.1-22c-2.4-1.2-5.4-1.8-7.8-0.6c-3,1.5-4.1,5.2-6.8,7.2c-1.5,1.1-3.4,1.7-4.3,3.3c-0.5,0.9-0.7,1.9-0.7,3
		c-0.6,9,3,17.6,4.1,26.5c1,8.2-0.1,16.8,2.2,24.7c0.2,0.7,0.4,1.3,0.9,1.8c0.5,0.5,1.2,0.7,1.9,0.9c1.7,0.5,3.3,1,5.1,0.9
		c1.7-0.1,3.5-0.9,4.3-2.4"/>
	<path fill="#231F20" d="M50.2,81.3c-3.4,3.4-9.5,3.7-13.1,0.6c1.3,0.8,3,0.4,4.1-0.7c1.1-1,1.6-2.6,1.9-4c0.3-1.4,0.1-3.3-1.3-3.7
		c-0.9-0.2-1.8,0.5-2.2,1.3c-0.4,0.8-0.3,1.8-0.3,2.7C37.1,76.8,36.1,74,37,72c-1.1,2-1.6,4.4-1.3,6.7c-0.4,1.3-2.2,1.6-3.4,1
		c-1.2-0.6-1.9-1.8-2.6-3c0.5,0.8,1.7,0.8,2.4,0.3s1-1.5,1.2-2.4c0.4-1.7,0.4-3.5,0.2-5.2c-1.7,0.4-2.9,2.4-2.4,4.1
		c-2.7-2.4-4-6.3-3.4-9.9c0.1-0.5,0.8-1.1,1-0.6c-2.3-2-3.2-5.3-2.3-8.2c-0.6,0.7,0.2,1.9,1.1,2c0.9,0.1,1.8-0.6,2.4-1.4
		c1.6-2,2.5-4.6,2.3-7.2c0-0.6-0.3-1.3-0.9-1.3c-0.3,0-0.5,0.3-0.7,0.5c-1,1.3-1.7,2.8-1.9,4.4c-2-0.2-2.7-2.8-2.3-4.8
		c0.4-1.9,1.5-3.8,1.3-5.8c-0.1-1.7-1.1-3.3-0.7-4.9c0.2-0.8,0.8-1.4,1.2-2.1c2-3.3,1.6-7.6,3.2-11.1c1-2.1,2.7-3.8,4.4-5.2
		c3.3-2.7,7.2-4.8,11.4-4.9c4.2,0,8.1,2,12.3,1.9c3.6-0.1,7-1.7,10.6-2.1c3.6-0.4,8,1,8.8,4.5"/>
	<polygon fill="#145E32" points="5.5,97.5 4,193.2 62.7,211.2 	"/>
	<polygon fill="#145E32" points="121.5,99.5 123,195.2 64.3,213.2 	"/>
	<path fill="#18723C" d="M5.1,98c0,0,45.5-18.7,116.4,0l-21.4,125.6c0,0-26.8,2.2-71.6,0L5.1,98z"/>
	<path fill="#F9BD91" d="M86.9,25.3V79h-8.1v17.7c0,0-9.2,18-31.6,0V60c0,0-6.8-1.4-6.8-9.2s7.8-4.1,7.8-4.1V25.3H86.9z"/>
	<polygon fill="#8B5E3C" points="39.7,410.6 37.5,421.1 28.4,421.1 28.4,410.6 	"/>
	<path fill="#231F20" d="M28.4,421.1h9.2c0,0,3.6,11.5-8.3,12.2H13.8c0,0-3.4-7.3,5.8-7.8C19.5,425.6,27.5,424.2,28.4,421.1z"/>
	<polygon fill="#8B5E3C" points="80.9,410.6 83.1,421.1 92.2,421.1 92.2,410.6 	"/>
	<path fill="#231F20" d="M92.2,421.1h-9.2c0,0-3.6,11.5,8.3,12.2h15.4c0,0,3.4-7.3-5.8-7.8C101.1,425.6,93.1,424.2,92.2,421.1z"/>
	<path fill="#E6E7E8" d="M58.8,63h26.8c0,0-4.8-8.3-13.4-8.3S58.8,63,58.8,63z"/>
	<path fill="#E6E7E8" d="M58.8,63l-1.3,1.4c0,0,11.8,2,15.4-1.4c0,0,9.1,1.8,13.5,1.4l-1.1-1.8C85.4,62.6,67.1,60.9,58.8,63z"/>
	<polygon fill="#4B5931" points="5.5,97.5 4,193.2 62.7,211.2 	"/>
	<polygon fill="#4B5931" points="121.5,99.5 123,195.2 64.3,213.2 	"/>
	<polygon fill="#4B5931" points="30.9,224.6 27.2,410.6 41.1,410.6 66.5,258.2 78.5,410.6 94.9,410.6 98.5,223.6 	"/>
	<path fill="#60753E" d="M5.1,98c0,0,45.5-18.7,116.4,0l-21.4,125.6c0,0-26.8,2.2-71.6,0L5.1,98z"/>
	<path fill="#F9BD91" d="M86.9,25.3V79h-8.1v17.7c0,0-9.2,18-31.6,0V60c0,0-6.8-1.4-6.8-9.2s7.8-4.1,7.8-4.1V25.3H86.9z"/>
	<polygon fill="#8B5E3C" points="39.7,410.6 37.5,421.1 28.4,421.1 28.4,410.6 	"/>
	<path fill="#3C2415" d="M28.4,421.1h9.2c0,0,3.6,11.5-8.3,12.2H13.8c0,0-3.4-7.3,5.8-7.8C19.5,425.6,27.5,424.2,28.4,421.1z"/>
	<polygon fill="#8B5E3C" points="80.9,410.6 83.1,421.1 92.2,421.1 92.2,410.6 	"/>
	<path fill="#3C2415" d="M92.2,421.1h-9.2c0,0-3.6,11.5,8.3,12.2h15.4c0,0,3.4-7.3-5.8-7.8C101.1,425.6,93.1,424.2,92.2,421.1z"/>
	<path fill="#F9BD91" d="M47.2,96.6l16.5,44.7l15.1-44.7C78.8,96.6,51.6,88.5,47.2,96.6z"/>
	<path fill="#4B5931" d="M63.7,141.3l23.3-25.4l-8.1-6.6l19.9-4.6c0,0-9.1-19.7-19.9-21.2v13.2L63.7,141.3z"/>
	<path fill="#4B5931" d="M63.1,141.3l-23.3-25.4l8.1-6.6l-19.9-4.6c0,0,8.3-22.1,19.1-23.6L48,96.6L63.1,141.3z"/>
	<rect x="27.2" y="136.3" fill="#4B5931" width="23.5" height="26.5"/>
	<rect x="36.7" y="145.3" fill="#60753E" width="5.8" height="18.5"/>
	<rect x="80.8" y="135.7" fill="#4B5931" width="23.5" height="26.5"/>
	<rect x="90.2" y="144.8" fill="#60753E" width="5.8" height="18.5"/>
	<polygon fill="#60753E" points="64.3,224.6 98.7,261.7 101.9,213.3 	"/>
	<polygon fill="#60753E" points="66.1,222.8 30,264.9 26.8,216.5 	"/>
	<path fill="#414042" d="M29.2,32.2l64.5-2.4c0,0,6.8-20.7-23.2-21.9S21.1,17.3,29.2,32.2z"/>
	<polygon fill="#BE1E2D" points="71.7,19.7 73.9,24 69.2,23.1 65.8,26.6 65.1,21.8 60.8,19.7 65.1,17.6 65.8,12.8 69.2,16.2 
		73.9,15.4 	"/>
	<polygon fill="#3C2415" points="80,424.8 76.1,388.5 95.3,388.5 95,423.7 	"/>
	<polygon fill="#3C2415" points="39.9,425.4 46,388.5 26.8,388.5 27.1,425.3 	"/>
	<path fill="#231F20" d="M58.7,66c-1.9-1.1-2.7-3-2.1-4.8c0.2-0.7,0.6-1.3,1.3-1.9c2.1-1.8,5.6-2.1,8.5-2.7c2-0.4,4.3-1,3.6,1.1
		c-0.6,1.9-4.4,2.2-6.5,3.2C61,62,58.6,63.9,58.7,66z"/>
	<path fill="#231F20" d="M83.3,66c1.9-1.1,2.7-3,2.1-4.8c-0.2-0.7-0.6-1.3-1.3-1.9c-2.1-1.8-5.6-2.1-8.5-2.7c-2-0.4-4.3-1-3.6,1.1
		c0.6,1.9,4.4,2.2,6.5,3.2C81.1,62,83.5,63.9,83.3,66z"/>
	<g>
		
			<ellipse transform="matrix(0.9977 -6.824621e-02 6.824621e-02 0.9977 -4.1835 6.5084)" fill="#3C2415" cx="93.2" cy="64.5" rx="19.1" ry="2.2"/>
		<path fill="#6D6E71" d="M105.5,62c0,0-2.6,2,0.2,3.3c0,0,5.7-0.9,6.5-2.1C112.2,63.2,110.7,62,105.5,62z"/>
	</g>
	<path fill="#231F20" d="M58.8,68.6c0,0,4.2,8.9,14.2,8.9s11.4-8.9,11.4-8.9s4.6,18.8-8.4,18.7C62.9,87.1,57.1,80,58.8,68.6z"/>
</g>
</svg>
