<?xml version="1.0" encoding="utf-8"?>
<!-- Generator: Adobe Illustrator 19.0.0, SVG Export Plug-In . SVG Version: 6.00 Build 0)  -->
<svg version="1.1" id="Layer_1" xmlns="http://www.w3.org/2000/svg" xmlns:xlink="http://www.w3.org/1999/xlink" x="0px" y="0px"
	 viewBox="-1006 251 1387.7 397.6" style="enable-background:new -1006 251 1387.7 397.6;" xml:space="preserve">
<style type="text/css">
	.st0{fill:#1B1464;}
	.st1{opacity:0.2;}
	.st2{fill:#457A8C;}
	.st3{fill:#FFF100;}
	.st4{fill:#FBB03B;}
	.st5{fill:#213588;}
	.st6{fill:#52BAB2;}
	.st7{fill:#62C3CA;}
	.st8{fill:#BBECE9;}
	.st9{fill:#EC1C24;}
	.st10{fill:#2E3191;}
</style>
<g>
	<rect x="-927" y="547.5" class="st0" width="628.8" height="60.4"/>
	<rect x="-927" y="597.9" class="st1" width="628.8" height="10.3"/>
	<rect x="-254.3" y="547.5" class="st0" width="534.1" height="60.4"/>
	<rect x="-254.3" y="597.9" class="st1" width="534.1" height="10.3"/>
	<rect x="-927" y="546.5" class="st1" width="628.8" height="31.5"/>
	<ellipse class="st2" cx="-744.1" cy="601.6" rx="42.2" ry="42.3"/>
	<rect x="-896.9" y="440.9" class="st3" width="16.7" height="18.3"/>
	<rect x="-896.9" y="402.4" class="st3" width="16.7" height="18.3"/>
	<rect x="-902.6" y="413.9" class="st4" width="22.3" height="27.3"/>
	<polygon class="st4" points="-790.2,339.8 -811,324.6 -811,319 -862,319 -862,324.9 -886.5,339.9 	"/>
	<rect x="-704.6" y="384.1" class="st3" width="50" height="46.2"/>
	<rect x="-697.7" y="366.2" class="st3" width="34.2" height="12.6"/>
	<path class="st4" d="M-697.7,366.7h34.2v-1.8c0-2.1-1.7-3.8-3.8-3.8H-694c-2.1,0-3.8,1.7-3.8,3.8V366.7z"/>
	<rect x="-797.6" y="428.1" class="st5" width="291.3" height="123.6"/>
	<rect x="-742" y="379.4" class="st4" width="9.5" height="50"/>
	<circle class="st2" cx="-604.2" cy="601.6" r="43.3"/>
	<circle class="st6" cx="-603.9" cy="601.6" r="34.3"/>
	<circle class="st2" cx="-604.2" cy="601.6" r="13"/>
	<circle class="st6" cx="-744.2" cy="601.6" r="34.3"/>
	<rect x="-642" y="600.9" class="st2" width="25.1" height="3.3"/>
	<rect x="-591.6" y="601.4" class="st2" width="24.6" height="2.9"/>
	<rect x="-605.4" y="567.1" class="st2" width="3.3" height="22.9"/>
	<rect x="-605.6" y="611.5" class="st2" width="3.1" height="28.3"/>
	
		<rect x="-634.8" y="617.9" transform="matrix(-0.7071 0.7071 -0.7071 -0.7071 -620.9969 1495.6946)" class="st2" width="29" height="2.7"/>
	
		<rect x="-598.3" y="583.8" transform="matrix(-0.7071 0.7071 -0.7071 -0.7071 -586.574 1413.4081)" class="st2" width="24.6" height="2.9"/>
	
		<rect x="-632" y="583.6" transform="matrix(0.7071 0.7071 -0.7071 0.7071 232.112 610.2314)" class="st2" width="22.9" height="3.3"/>
	
		<rect x="-601.7" y="617.4" transform="matrix(0.7071 0.7071 -0.7071 0.7071 265.5439 596.7009)" class="st2" width="28.3" height="3.1"/>
	
		<rect x="-616.2" y="618" transform="matrix(-0.9886 -0.1508 0.1508 -0.9886 -1290.8108 1153.1466)" class="st7" width="29" height="15"/>
	
		<rect x="-616.8" y="626.5" transform="matrix(-0.9886 -0.1508 0.1508 -0.9886 -1292.6454 1161.8115)" class="st1" width="29" height="6.8"/>
	
		<rect x="-738.6" y="609.3" transform="matrix(-0.9886 -0.1505 0.1505 -0.9886 -1438.3125 1118.4723)" class="st8" width="123.4" height="8.7"/>
	<rect x="-765.5" y="579.6" class="st7" width="41.6" height="39.9"/>
	<rect x="-877.9" y="588.9" class="st3" width="80.7" height="37.7"/>
	<circle class="st2" cx="-422.4" cy="614.6" r="28"/>
	<circle class="st6" cx="-422.4" cy="614.6" r="7"/>
	<circle class="st2" cx="-345.4" cy="614.6" r="28"/>
	<circle class="st6" cx="-345.4" cy="614.6" r="7"/>
	<rect x="-508.7" y="564.2" class="st5" width="211.5" height="7.1"/>
	<rect x="-506.2" y="463.9" class="st3" width="209" height="100.7"/>
	<rect x="-506.2" y="380.6" class="st3" width="168.6" height="101.3"/>
	<rect x="-439.6" y="395.6" class="st5" width="37" height="82.3"/>
	<rect x="-480.2" y="395.6" class="st5" width="37" height="82.3"/>
	<rect x="-516.2" y="374.7" class="st5" width="187" height="7.2"/>
	<path class="st5" d="M-509.6,374.9h173.7l0,0c0-7.6-6.2-13.8-13.8-13.8h-146.1C-503.4,361.1-509.6,367.3-509.6,374.9L-509.6,374.9z
		"/>
	<rect x="-625.9" y="380.9" class="st3" width="57" height="48"/>
	<path class="st4" d="M-625.9,381.7h57l0,0c0-5.1-4.2-9.3-9.3-9.3h-38.4C-621.7,372.4-625.9,376.5-625.9,381.7L-625.9,381.7z"/>
	<path class="st4" d="M-704.6,384.7h50l0,0c0-4.5-3.7-8.2-8.2-8.2h-33.7C-701,376.6-704.6,380.2-704.6,384.7L-704.6,384.7z"/>
	<path class="st3" d="M-738.6,386.4c-9.2,0-7.5,13-7.5,13s-5,1.9-5.5,6.1c0,0,13.5,2.8,24.8,0c0,0-0.2-5.4-4.5-6.1
		C-731.4,399.4-729.6,386.4-738.6,386.4z"/>
	<rect x="-887.7" y="339.4" class="st3" width="97.5" height="19"/>
	<polygon class="st4" points="-820.9,426 -857.9,426 -887.9,357.9 -790.2,358.4 	"/>
	<rect x="-857.6" y="425.6" class="st3" width="36.3" height="22.7"/>
	<rect x="-854.9" y="448.2" class="st5" width="31.7" height="3.3"/>
	<rect x="-859.9" y="451.6" class="st3" width="40.7" height="7.3"/>
	<rect x="-902.6" y="458.6" class="st3" width="105.3" height="94.2"/>
	<path class="st5" d="M-902.2,553L-902.2,553l0-94.4h0c-6.4,0-11.6,5.2-11.6,11.6v71.3C-913.8,547.8-908.6,553-902.2,553z"/>
	<rect x="-937.6" y="576.9" class="st5" width="10.7" height="71.7"/>
	<path class="st5" d="M-1000.5,639.8l4.6,5.1l59.9,3.3v-71.3L-1000.5,639.8z M-995.2,640l54.4-51.5l0,51.2l-7.1,0.2l7.1-51.4
		l-12.7,51.5h-5.7l18.4-51.5l-24.1,51.5h-6l30.1-51.5l-36.7,51.5h-5.7l42.4-51.5l-48.4,51.5H-995.2z"/>
	<rect x="-338" y="460.9" class="st5" width="41.1" height="6.5"/>
	<rect x="-795.1" y="417.5" class="st4" width="289.2" height="4.6"/>
	<rect x="-506.1" y="381.9" class="st1" width="169.2" height="10.3"/>
	<rect x="-797.5" y="427.9" class="st1" width="290.6" height="10.3"/>
	<path class="st1" d="M-914.8,468.7h117.4v-10.3h-107C-910.1,458.4-914.8,463-914.8,468.7L-914.8,468.7z"/>
	<rect x="-797.5" y="541.4" class="st1" width="290.6" height="10.3"/>
	<rect x="-436" y="397.9" class="st1" width="31.1" height="76.8"/>
	<rect x="-477" y="397.9" class="st1" width="31.1" height="76.8"/>
	<rect x="-516.5" y="428.3" class="st1" width="10.1" height="133.6"/>
	<rect x="-797.7" y="428.3" class="st1" width="11.3" height="124.4"/>
	<rect x="-807.3" y="458.9" class="st1" width="10.4" height="93.8"/>
	<rect x="-901.8" y="458.9" class="st1" width="3.6" height="93.8"/>
	<rect x="-337.9" y="466.9" class="st1" width="41" height="10.3"/>
	<rect x="-508.5" y="568.9" class="st1" width="211.6" height="2.9"/>
	<rect x="-516.3" y="378.4" class="st1" width="187.4" height="3.6"/>
	<rect x="-338.2" y="463.4" class="st1" width="41.8" height="3.6"/>
	<rect x="-797.2" y="521.6" class="st4" width="290.7" height="6.7"/>
	<rect x="-396.4" y="397.3" class="st1" width="53.4" height="162.6"/>
	<rect x="-877.7" y="618.4" class="st1" width="80.8" height="8"/>
	<path class="st1" d="M-902.1,553.7h104v-8h-115.5l0,0C-909.4,550.7-908.7,553.7-902.1,553.7z"/>
	<rect x="-766.2" y="612.6" class="st1" width="42.3" height="6.3"/>
	<rect x="-766.2" y="580.1" class="st1" width="42.3" height="6.3"/>
	<ellipse class="st2" cx="-213.4" cy="607.6" rx="26.2" ry="26.3"/>
	<circle class="st2" cx="-126.5" cy="607.6" r="26.9"/>
	<circle class="st6" cx="-126.3" cy="607.6" r="21.3"/>
	<circle class="st2" cx="-126.5" cy="607.6" r="8.1"/>
	<circle class="st6" cx="-213.5" cy="607.6" r="21.3"/>
	<rect x="-150" y="607.2" class="st2" width="15.6" height="2.1"/>
	<rect x="-118.6" y="607.5" class="st2" width="15.3" height="1.8"/>
	<rect x="-127.2" y="586.1" class="st2" width="2.1" height="14.2"/>
	<rect x="-127.4" y="613.7" class="st2" width="1.9" height="17.6"/>
	
		<rect x="-145.5" y="617.7" transform="matrix(-0.7071 0.7071 -0.7071 -0.7071 204.4479 1152.4116)" class="st2" width="18" height="1.7"/>
	
		<rect x="-122.8" y="596.5" transform="matrix(-0.7071 0.7071 -0.7071 -0.7071 225.8349 1101.2869)" class="st2" width="15.3" height="1.8"/>
	
		<rect x="-143.7" y="596.4" transform="matrix(0.7071 0.7071 -0.7071 0.7071 382.4534 271.6049)" class="st2" width="14.2" height="2.1"/>
	
		<rect x="-124.9" y="617.4" transform="matrix(0.7071 0.7071 -0.7071 0.7071 403.2247 263.1984)" class="st2" width="17.6" height="1.9"/>
	
		<rect x="-133.9" y="617.8" transform="matrix(-0.9886 -0.1508 0.1508 -0.9886 -342.2345 1218.9453)" class="st7" width="18" height="9.3"/>
	
		<rect x="-134.3" y="623.1" transform="matrix(-0.9886 -0.1508 0.1508 -0.9886 -343.3743 1224.3289)" class="st1" width="18" height="4.2"/>
	
		<rect x="-209.9" y="612.4" transform="matrix(-0.9886 -0.1505 0.1505 -0.9886 -433.7905 1197.3339)" class="st8" width="76.7" height="5.4"/>
	<rect x="-226.7" y="593.9" class="st7" width="25.9" height="24.8"/>
	<rect x="-227.1" y="614.4" class="st1" width="26.3" height="3.9"/>
	<rect x="-227.1" y="594.2" class="st1" width="26.3" height="3.9"/>
	<ellipse class="st2" cx="-32.4" cy="607.6" rx="26.2" ry="26.3"/>
	<circle class="st2" cx="54.5" cy="607.6" r="26.9"/>
	<circle class="st6" cx="54.7" cy="607.6" r="21.3"/>
	<circle class="st2" cx="54.5" cy="607.6" r="8.1"/>
	<circle class="st6" cx="-32.5" cy="607.6" r="21.3"/>
	<rect x="31" y="607.2" class="st2" width="15.6" height="2.1"/>
	<rect x="62.4" y="607.5" class="st2" width="15.3" height="1.8"/>
	<rect x="53.8" y="586.1" class="st2" width="2.1" height="14.2"/>
	
		<rect x="35.5" y="617.7" transform="matrix(-0.7071 0.7071 -0.7071 -0.7071 513.4342 1024.4253)" class="st2" width="18" height="1.7"/>
	
		<rect x="58.2" y="596.5" transform="matrix(-0.7071 0.7071 -0.7071 -0.7071 534.8212 973.3005)" class="st2" width="15.3" height="1.8"/>
	
		<rect x="37.3" y="596.4" transform="matrix(0.7071 0.7071 -0.7071 0.7071 435.4671 143.6186)" class="st2" width="14.2" height="2.1"/>
	
		<rect x="56.1" y="617.4" transform="matrix(0.7071 0.7071 -0.7071 0.7071 456.2383 135.2121)" class="st2" width="17.6" height="1.9"/>
	
		<rect x="47.1" y="617.8" transform="matrix(-0.9886 -0.1508 0.1508 -0.9886 17.6962 1246.2365)" class="st7" width="18" height="9.3"/>
	
		<rect x="46.7" y="623.1" transform="matrix(-0.9886 -0.1508 0.1508 -0.9886 16.5564 1251.62)" class="st1" width="18" height="4.2"/>
	
		<rect x="-28.9" y="612.4" transform="matrix(-0.9886 -0.1505 0.1505 -0.9886 -73.851 1224.567)" class="st8" width="76.7" height="5.4"/>
	<rect x="-45.7" y="593.9" class="st7" width="25.9" height="24.8"/>
	<rect x="-46.1" y="614.4" class="st1" width="26.3" height="3.9"/>
	<rect x="-46.1" y="594.2" class="st1" width="26.3" height="3.9"/>
	<ellipse class="st2" cx="148.6" cy="607.6" rx="26.2" ry="26.3"/>
	<circle class="st2" cx="235.5" cy="607.6" r="26.9"/>
	<circle class="st6" cx="235.7" cy="607.6" r="21.3"/>
	<circle class="st2" cx="235.5" cy="607.6" r="8.1"/>
	<circle class="st6" cx="148.5" cy="607.6" r="21.3"/>
	<rect x="212" y="607.2" class="st2" width="15.6" height="2.1"/>
	<rect x="243.4" y="607.5" class="st2" width="15.3" height="1.8"/>
	<rect x="234.8" y="586.1" class="st2" width="2.1" height="14.2"/>
	
		<rect x="216.5" y="617.7" transform="matrix(-0.7071 0.7071 -0.7071 -0.7071 822.4205 896.439)" class="st2" width="18" height="1.7"/>
	
		<rect x="239.2" y="596.5" transform="matrix(-0.7071 0.7071 -0.7071 -0.7071 843.8076 845.3142)" class="st2" width="15.3" height="1.8"/>
	
		<rect x="218.3" y="596.4" transform="matrix(0.7071 0.7071 -0.7071 0.7071 488.4807 15.6323)" class="st2" width="14.2" height="2.1"/>
	
		<rect x="237.1" y="617.4" transform="matrix(0.7071 0.7071 -0.7071 0.7071 509.252 7.2258)" class="st2" width="17.6" height="1.9"/>
	
		<rect x="228.1" y="617.8" transform="matrix(-0.9886 -0.1508 0.1508 -0.9886 377.6269 1273.5276)" class="st7" width="18" height="9.3"/>
	
		<rect x="227.7" y="623.1" transform="matrix(-0.9886 -0.1508 0.1508 -0.9886 376.4871 1278.9111)" class="st1" width="18" height="4.2"/>
	
		<rect x="152.1" y="612.4" transform="matrix(-0.9886 -0.1505 0.1505 -0.9886 286.0885 1251.8002)" class="st8" width="76.7" height="5.4"/>
	<rect x="135.3" y="593.9" class="st7" width="25.9" height="24.8"/>
	<rect x="134.9" y="614.4" class="st1" width="26.3" height="3.9"/>
	<rect x="134.9" y="594.2" class="st1" width="26.3" height="3.9"/>
	<rect x="-582.2" y="528.6" class="st3" width="64" height="28.7"/>
	<rect x="-582.9" y="549.4" class="st1" width="64.5" height="8"/>
	<rect x="-582.9" y="528.4" class="st1" width="64.5" height="8"/>
	<rect x="-259.9" y="377.8" class="st3" width="543" height="198"/>
	<rect x="-262.8" y="570.6" class="st5" width="549.3" height="8.7"/>
	<rect x="-260.8" y="381.9" class="st1" width="543.8" height="10.3"/>
	<rect x="-262.8" y="374.6" class="st5" width="549.3" height="8.7"/>
	<rect x="-246.2" y="404.9" class="st5" width="63" height="82.3"/>
	<rect x="-155.6" y="404.9" class="st5" width="63" height="82.3"/>
	<rect x="-64.9" y="404.9" class="st5" width="63" height="82.3"/>
	<rect x="25.8" y="404.9" class="st5" width="63" height="82.3"/>
	<rect x="116.4" y="404.9" class="st5" width="63" height="82.3"/>
	<rect x="207.1" y="404.9" class="st5" width="63" height="82.3"/>
	<rect x="-246.8" y="495.6" class="st1" width="515.8" height="65.7"/>
	<g>
		<path class="st5" d="M12.7,497.5c17.7,0,32.1,14.4,32.1,32.1c0,17.7-14.4,32.1-32.1,32.1s-32.1-14.4-32.1-32.1
			C-19.4,512-5,497.5,12.7,497.5"/>
		<path class="st3" d="M12.7,499.4c-16.6,0-30.2,13.6-30.2,30.2c0,16.7,13.6,30.2,30.2,30.2c16.7,0,30.2-13.6,30.2-30.2
			C42.9,513,29.4,499.4,12.7,499.4"/>
		<path class="st9" d="M-1.9,520.4c2.6,0,5,1.1,6.7,2.9l-2.3,2.3c-1.1-1.2-2.6-2-4.3-2c-3.2,0-5.8,2.6-5.8,5.8
			c0,3.2,2.6,5.8,5.8,5.8c1.7,0,3.2-0.7,4.3-1.9l2.4,2.4c-1.7,1.8-4.1,3-6.7,3c-5.1,0-9.2-4.1-9.2-9.2
			C-11,524.5-6.9,520.4-1.9,520.4"/>
		<path class="st9" d="M29.1,520.3c-4.1,2.5-7.1,10.2-7.2,18.5h3.1c0-0.9,0.1-1.7,0.3-2.6l7.9,0c0.2,0.8,0.2,1.7,0.2,2.6h3.1
			C36.2,530.5,33.2,522.8,29.1,520.3"/>
		<path class="st10" d="M13.4,508.6l-0.2,1c0.7,0.1,0.7,0.4,0.4,0.7c-0.2,0.4,0,0.6,0.8,0.8c1.1,0.5,1.9,0.7,2,0.2l-0.2-1.2
			c-0.2-0.3-0.1-0.7,0-1.2c0.3-0.5,0-1-1-1.5C14.6,507.5,14,507.8,13.4,508.6"/>
		<path class="st10" d="M12.2,509.2l1.2-1.1l0.2-1.4c-0.3-0.3-0.6-0.4-1-0.3c-0.2,0.6-0.5,0.9-0.9,1.3l-0.3,0.6
			C11.6,509,11.9,509.3,12.2,509.2"/>
		<path class="st3" d="M29.2,526.7c-0.9,1.1-1.5,2.8-2.3,5.1h4.6C30.7,529.5,30.1,527.8,29.2,526.7"/>
		<g>
			<path class="st5" d="M21.6,541.3c-0.2,0-0.7,0.4-0.9,0.4l-0.2,0.2l-0.2,0.2c0,0.2-0.2,0.3-0.4,0.3c0,0.4-0.2,0-0.2,0.3
				c-0.2,0-0.7,0.5-0.7,0.5c-0.5,0-1,0-1.5,0c0,0-1.4,0.7-1.4,0.9l-0.2,0.5c0,0.2-0.2,0.3-0.4,0.3c0,0.2-0.3,0.2-0.5,0.2
				c0,0.1-0.3,0.3-0.5,0.5c3.8-0.2,7.5-1.1,11.2-2.8c0.8-1.9,1.4-3.8,1.8-5.8l-1.7,0c0,0.2,0,0.3-0.1,0.5c0,0.4-0.1,0.8-0.1,1.2l0,1
				h-4.6c0.1,0.1,0.2,0.3,0.3,0.3l0.2,0.2c0,0.2,0,0.7,0,0.9L21.6,541.3z"/>
			<path class="st5" d="M-0.2,515l0-0.2c0-0.1,0.4-0.1,0.8-0.2c0.2-0.1,0.4-0.2,0.6-0.2c0.1,0,0.1-0.1,0.1-0.1c0.1,0,0.1,0,0.2,0
				c0.2-0.1,0.3-0.1,0.5-0.2c0-0.1,0-0.1,0-0.2l-0.7-0.8c-0.1-0.1-0.3-0.4-0.6-0.6c-0.2-0.2-0.1-0.7,0.3-0.8
				c0.4-0.2,1.2-0.4,1.5-0.8l-0.4-0.8l-0.2,0l0-0.5l0.2,0l0.3-0.5c0.2,0,0.4,0.1,0.6,0.1l0.2-0.2c0-0.4-0.2-0.6-0.2-0.9l-0.2-0.1
				c0-0.4,0-0.8,0.3-0.8c0.5,0,0.9-0.4,1.3-0.8c0.4,0,1-0.1,1.4-0.2l0.2,0.4c0.2,0,1,0.9,1.2,0.9l0,0.2c0.6,1.2,2.5,1.5,4,1.4
				c0.2,0.1,0,0.7,0.6,0.8c0,0.2,0.5,0.6,0.5,0.6l0.1,0.4c0,0.2,0.2,0.2,0.5,0.2l0.5,0.7l0.7-0.1c0.4,0,0.9,0.2,0.9,0.2l0.8,0.2
				c0.2-0.3,0.7,0.1,0.7-0.2l0.2,0l0.2,0c0.3,0.2,0.7-0.1,0.5-0.5c-0.5-0.6-0.1-1.1,0.2-1.2l0.4-0.1c0.2,0.2-0.2,0.6-0.2,0.8
				c0,0.6,0.3,1.1,0.6,1.3c0.2,0,0.2,0.2,0.4,0.4l0.9-0.5l-0.1,1.6c-0.2,0-0.2,0.4-0.4,0.6c-0.3,0-1.3,0-1.3,0.4
				c-0.5,0-1,1.2-1.4,1.2l0,0.2l0,0.2l-0.6,0.5c0,0.2-0.2,0.5-0.2,0.7c0.5,0,0.1,1.5,0.4,1.5l0.3,0.4l0.6,0.3c0.2,0-0.1,0.4-0.1,0.6
				c0.2,0,0.2,1.3,0.5,1.3l0.3-0.3l-0.1-1.2l0.2,0c0.4-0.5,0.4-1.2,0.8-1.9l0.2-0.2l0-0.4l0.2-0.2c0.3-0.3,0.7-0.2,1.1,0.1
				c0,0.2,0.5,0,0.5,0.2c0.4,0,0.5,0.6,0.7,1l0.3,0.3l0.4,0.1l0.3,0.5c0,0.5-0.3,0.7-0.3,1.2c0,0.4,0.5,0.7,0.6,1.3
				c0.1,0.3,0.6,0.7,0.5,1s-0.6,0.6-0.6,0.8c0.5,0.2,0.4,0.7,0.4,1.2c-0.1,0-0.5,0.3-0.6,0.3c0,0.1-0.2,0-0.2,0
				c-0.2,0-0.6-0.3-0.8-0.4l0-0.2c0,0,0.1-0.7-0.1-0.7c0.1-0.5,0.3-0.6,0.5-0.9l-1-0.2l-0.4,0l-0.2,0.2c-0.1,0.9,0.3,0.7,0.3,1.1
				c0.4,0.3-0.5,0.9-0.6,1.1l-1.3-0.4c-0.2,0.2-0.6,0.5-0.6,0.7l-0.2,0.2l-0.5,0.2l0,0.2l-0.5,0.2c0,0.2-0.2,0.3-0.2,0.5
				c-0.2,0.1-0.3,0.2-0.3,0.3c0,0.2-0.3,0.2-0.4,0.2l-0.2,0.2c0,0.2-0.5,0-0.5,0.2c-0.1,0.2,0,0.2-0.1,0.5l-0.2,0.9
				c-0.2,0.1-0.2,0.2-0.4,0.1l-0.3-0.4l0.2-1.2c-1.4-0.2-0.5,0.2-1.2,0.2c-0.3-0.3-0.7-0.4-1.1,0c-0.6,0.4-0.7,1-0.7,1.6
				c-0.1,0.2,0.2,0.5,0.2,0.7l0.2,0.2l0.6-0.2l0.3-0.3l0.6-0.1l0.3,0.4l-0.2,0.3c-0.3,0-0.6,0.4-0.7,0.7l0.6,0.4l0.2,0.4
				c0,0.2,0.1,0.3,0.3,0.3l-0.1,0.7l0.9,0.7l0.8-0.7c0.4-0.2,0.6-0.3,1-0.3l0.6,0.4c0,0,0.1,0.3,0.3,0.3c0,0.4,0.5,0.3,0.5,0.6
				c0.2,0,0.5,0.3,0.5,0.5c0.1,0.6,0.8,1.3,1.2,1.4c0,0.2,0.3,0.7,0.3,0.9l0.2,0l0,0.4c-0.2,0-0.4,0.2-0.5,0.2c0,0.2,0,0.5,0.2,0.5
				l0.4,0.2L20,538c0,0.4,0.2,0,0.2,0.4c0.4,0,0.2,0.5,0.6,0.5l0.2,0.2l0-0.3c0.1-4.3,0.9-8.4,2.2-11.7c1.1-2.7,2.5-5,4.1-6.5
				c-0.4-1.4-0.9-2.8-1.4-4.2c-0.7-0.3-1.4-0.6-2.1-0.8l0.1,0.8l-0.2,0.2l-0.2,0.2c-0.7-0.8-0.6-0.3-0.4,0.5l-0.1,0.4
				c0,1-0.2,0.7-0.4,0.8c-0.5,0-1-0.4-1.3-1l0-0.5c0-0.2-0.6-0.5-0.6-0.6c-0.6,0.5-0.4-0.5-0.5-0.5c0-0.4,0.8-0.6,1-0.6l0.2-0.2
				c0.2-0.2,0.2-1.2,0.1-1.5l-0.2,0l-0.2-0.3l-0.2,0l-0.2-0.4c-0.2-0.2-0.2-0.3-0.2-0.5L20,512c-0.2-0.5-0.7-0.3-0.8-0.5l0-0.2
				c-0.2,0-0.2-0.5-0.4-0.5c0-0.2,0-0.3,0-0.4l0.2-0.6l0.2,0l0.2,0c0-0.2,0.5-0.3,0.7-0.3c0,0.2,0.6,0,0.7,0.1l0,0.2l0.7,0.7l0.2,0
				l0.3,0.5c0.4,0,0,0.5,0.2,0.5c0,0.6,0.9,1.1,0.9,0.7l0.3,0.2l-0.1,1.8c1,0.3,2,0.7,3,1.1l6.1-6.1c-5.1-4.9-12-7.9-19.6-7.9
				c-7.6,0-14.5,3-19.6,7.9l6.1,6.1C-0.6,515.2-0.4,515.1-0.2,515z"/>
			<path class="st5" d="M12,535.4c0.4-0.1,0.7-0.7,1.1-0.4l0.6-0.3l0.3-0.4l-0.2-0.6c-0.1,0,0-0.2-0.2-0.2c-0.6,0-0.6-0.5-0.7-0.5
				l-0.2-0.2c-0.2-0.2-0.5-0.8-0.5-1.3l-0.6-0.6c-0.9,0.2-1.9-0.8-2.3-1.7l0-0.8l0-0.6c-0.4-0.2,0-1-0.2-1.2c0-0.1-0.2-0.4-0.3-0.7
				c0-0.1-0.2-0.2-0.2-0.3l-0.2,0l0,0.6l0.2,0.2c0.2,0.4-0.1,1,0.2,1.9c-0.2,0.1-0.4,1-0.6-0.6c-0.3-0.5-0.4-0.7-0.5-1
				c-0.1-0.4,0.1-1-0.6-1.9c-0.5-0.2-0.2-1.2-0.2-1.4l-0.1-0.1c-0.2-0.4,0.1-2.4,0.4-3c0.1-1.4,0-2.1-0.8-3c0-0.7-0.1-1.8-0.1-2.5
				c-0.2,0-0.3-0.2-0.4-0.3c-0.9,0.2-1.7,0.4-2.6,0.7c-0.1,0.2-0.8,0.4-1.5,0.5c-0.8,0.3-1.6,0.6-2.4,1c-0.4,1-0.8,2-1.1,3.1
				c1.4,0,2.7,0.3,3.9,0.8c1.3,0.6,2.4,1.4,3.4,2.4l0.6,0.7L2.5,527l-0.2-0.2c-0.9-1.3-2.4-2.2-4.1-2.2c-1.3,0-2.6,0.5-3.4,1.4
				c0,0,0,0,0,0c-0.8,0.8-1.3,1.8-1.4,3h0c0,0.1,0,0.3,0,0.4c0,0.3,0,0.6,0.1,0.8h0c0.2,1,0.7,1.9,1.4,2.6c0.3,0.3,0.7,0.6,1.1,0.8
				c0,0,0,0,0,0c0.7,0.4,1.5,0.6,2.4,0.6c1.6,0,3.1-0.8,4-2.1l0.2-0.2l3.1,3.1l0.6,0.6l-0.6,0.7c-0.9,1-2.1,1.8-3.4,2.4
				c-1.2,0.5-2.6,0.8-4,0.8c0.3,1.1,0.8,2.1,1.2,3.2c3.7,1.5,7.4,2.5,11,2.8c0.3-0.2,0.4-0.7,0.5-0.8l0.2-0.2c0.1-0.3,0-0.8,0.2-1.1
				c0-0.2,0.9-1.4,0.9-1.6l0.2-0.5l0.2-0.4c-0.2,0-0.2-0.5-0.2-0.6c-0.5,0-0.4-0.6-0.5-0.8l-0.4-1.1c-0.2-0.4-0.4-1.1-0.4-1.6
				C11.6,536.4,11.8,536.8,12,535.4z"/>
			<path class="st5" d="M-2.9,539.6c-2.4-0.3-4.5-1.3-6.1-2.9c-0.8-0.8-1.5-1.8-2-2.9c-0.3-0.6-0.8-1.8-0.9-3.4c0-0.1,0-0.1,0-0.2
				c0-0.4,0-0.8,0-1.3h0c0.1-2.6,1.2-4.9,3-6.6c1.6-1.6,3.8-2.7,6.2-2.9c0.4-1.2,0.8-2.3,1.2-3.5l-6-6c-3.3,3.4-5.7,7.5-7,12.2l0,0
				c0,0-2.5,7.3,0.2,15.7l0,0c1.3,4.3,3.6,8.2,6.7,11.4l6.1-6.1C-2.2,542-2.6,540.8-2.9,539.6z"/>
			<path class="st5" d="M12.4,546.7c-0.2,0.1-0.3,0.2-0.3,0.3c-0.4,0,0,0.5-0.3,0.5l0,0.4l-0.2,0c-0.2,0.1-0.4,0.9-0.7,1l0,0.4
				l-0.2,0l-0.1,0.4c0,0.1-0.1,0.4-0.4,0.6c-0.2,0.2-0.5,0.4-0.6,0.3l-0.3-0.4l-0.1-0.4l-0.2,0l-0.1-0.3c0-0.7,0.2-1.4,0.2-1.9
				l0.3-0.4c0-0.2,0-0.4,0.1-0.6c-3.4-0.4-6.9-1.3-10.4-2.7L-7,550c5.1,5,12.1,8,19.7,8c7.7,0,14.6-3.1,19.7-8l-6.1-6.1
				C21.8,545.9,17.1,546.8,12.4,546.7z"/>
			<path class="st5" d="M29.2,528.2c-0.4,0.6-0.6,1.4-1,2.6h1.9C29.8,529.7,29.6,528.8,29.2,528.2z"/>
			<path class="st5" d="M40.7,525c-1-5.8-3.7-11-7.6-15.1l-6.2,6.2c0.5,1.2,0.9,2.5,1.3,3.7c0.2-0.1,0.3-0.2,0.5-0.3l0.5-0.3
				l0.5,0.3c1.5,0.9,2.8,2.4,3.9,4.3c0.7,1.3,1.3,2.6,1.8,3.8c0.2,0.4,0.3,0.9,0.5,1.4h0c0.1,0.4,0.3,0.9,0.4,1.3h0
				c0.7,2.6,1.1,5.5,1.2,8.5l0,1h-5v-0.9c0-0.4,0-0.8,0-1.2c0-0.1,0-0.3,0-0.4l-3.6,0c-0.4,2-1,3.9-1.8,5.9l6.2,6.2
				c3.6-3.8,6.2-8.5,7.3-13.8l0,0C41.4,531,41.1,527.4,40.7,525z"/>
		</g>
	</g>
	<rect x="-241.5" y="409.4" class="st1" width="53" height="73"/>
	<rect x="-151" y="409.4" class="st1" width="53" height="73"/>
	<rect x="-60.5" y="409.4" class="st1" width="53" height="73"/>
	<rect x="30" y="409.4" class="st1" width="53" height="73"/>
	<rect x="120.5" y="409.4" class="st1" width="53" height="73"/>
	<rect x="211" y="409.4" class="st1" width="53" height="73"/>
	<g>
		<path class="st5" d="M-264.6,316.8c-0.9,0.7-1.8,1.2-3,1.5c-1.1,0.2-2.2,0.3-3.3,0.2c-1.1-0.2-2.2-0.7-3.2-1.5
			c-1-0.8-1.8-1.6-2.4-2.6c-0.2-1.4-0.5-2.7-0.7-4c-0.2-1.3-0.4-2.7-0.7-4.1l-1.6-10.4l-1-7.6c0.2-0.5,0.4-1,0.8-1.4
			c0.3-0.4,0.7-0.8,1.1-1.1c0.4-0.3,0.8-0.7,1.2-1c0.4-0.3,0.8-0.6,1.1-1c0.8-0.6,1.6-1.1,2.5-1.5c0.9-0.4,1.8-0.7,2.9-0.9
			c0.2,0,0.5,0,0.7,0c0.2,0,0.5-0.1,0.8-0.1c0.3,0,0.5,0,0.7,0s0.4,0.1,0.6,0.3c0.7,0.2,1.3,0.6,1.8,1c0.5,0.4,1,0.9,1.4,1.4
			c0.4,0.5,0.8,1.1,1.1,1.7c0.3,0.6,0.6,1.2,0.8,1.8c0.1,0.1,0.1,0.1,0.1,0.2c0,0.1,0,0.2,0,0.3c-0.2,0.2-0.3,0.3-0.5,0.4
			c-0.2,0.1-0.3,0.3-0.5,0.4c-1,0.6-2,1.2-3,1.8c-1,0.7-1.9,1.3-2.8,2l0.1,0c-0.2,0-0.3,0-0.5,0.2c-0.2,0.2-0.4,0.3-0.6,0.5
			s-0.4,0.2-0.5,0.2c-0.2,0-0.3-0.2-0.4-0.6c-0.1-0.2-0.3-0.4-0.5-0.6c-0.2-0.2-0.3-0.3-0.5-0.5c-0.1-0.1-0.2-0.2-0.2-0.3
			c-0.1-0.1-0.2-0.2-0.3-0.2c0.1,0.6,0.2,1.2,0.1,1.8c-0.1,0.6,0,1.2,0.2,1.8c0.2,2.3,0.7,4.5,1.4,6.5c0.7,2,1.6,4,2.7,5.9
			c0.2,0.3,0.4,0.6,0.6,1c0.2,0.4,0.5,0.6,0.9,0.8c0.6,0.2,1.3,0.1,1.9-0.1c0.7-0.2,1.2-0.5,1.7-0.8c0.3-0.1,0.6-0.2,0.9-0.4
			c0.3-0.2,0.5-0.4,0.7-0.6c0.4-0.1,0.7-0.4,0.9-0.7s0.5-0.6,0.9-0.7c0.1,0,0.1,0,0.2-0.1c0.2,1,0.4,1.9,0.5,2.9s0.2,2,0.4,3
			C-260.9,313.4-262.7,315.1-264.6,316.8z"/>
		<path class="st5" d="M-238.5,312c-0.4,0.4-0.9,0.8-1.5,1s-1.3,0.5-2,0.7c-0.7,0.2-1.2,0.6-1.6,1.1l-1.1,0.1
			c-0.4-2.6-0.8-4.7-1.1-6.3c-0.3-1.7-0.5-3-0.7-3.9c-0.2-0.9-0.3-1.6-0.3-2c-0.1-0.4-0.1-0.7-0.1-0.8l0-0.1
			c-0.1-0.1-0.1-0.2-0.2-0.1c-0.1-0.1-0.1-0.1-0.2-0.2c0,0.1,0,0.2,0,0.4c0.2,0.7,0.3,1.1,0.2,1.3c-0.1,0-0.1-0.1-0.1-0.3
			c0-0.2,0-0.4-0.1-0.5c-0.1-0.3-0.1-0.6-0.2-0.8c-0.1-0.2-0.1-0.4,0-0.4c0.1,0,0.1,0,0.1,0.1c0,0.1,0,0.1,0.1,0.1
			c0.1,0.1,0.1,0,0.2-0.1c0.1-0.1,0.1-0.2,0.1-0.2c0-0.2,0-0.3-0.1-0.4c-0.1-0.1-0.2-0.1-0.3-0.2c-0.1,0-0.2-0.1-0.3-0.1
			c-0.1,0-0.2-0.1-0.3-0.2l-3.6,2.3c0,1,0.1,1.9,0.3,2.9c0.1,1,0.3,2,0.4,3c0.1,1,0.2,1.9,0.4,2.9s0.1,1.9,0.1,2.7
			c-0.5,0.2-1,0.4-1.5,0.7c-0.5,0.3-1,0.5-1.5,0.7c-0.5,0.2-1,0.4-1.5,0.6c-0.5,0.2-1.1,0.3-1.6,0.3c-0.3-2.2-0.6-4.3-1-6.4
			c-0.4-2.1-0.7-4.2-1.1-6.3c-0.4-2.1-0.7-4.2-1-6.2c-0.3-2.1-0.6-4.2-0.8-6.3l-0.3-0.2l-1.2-8.5c0.5-0.2,1.1-0.4,1.6-0.7
			c0.5-0.2,1.1-0.5,1.6-0.7c0.5-0.2,1.1-0.4,1.6-0.6c0.5-0.2,1.1-0.3,1.7-0.3c0.5,2.7,0.9,5.4,1.3,8c0.4,2.6,0.9,5.2,1.6,7.7
			c0.3,0.1,0.5,0,0.7,0c0.2-0.1,0.4-0.2,0.6-0.4c0.2-0.2,0.4-0.3,0.5-0.5c0.2-0.2,0.4-0.4,0.6-0.5c0.4-0.2,0.7-0.4,1.1-0.6
			c0.4-0.2,0.7-0.5,1-0.9c-0.2-1-0.4-1.9-0.6-3c-0.2-1-0.3-2.1-0.4-3.1c-0.1-1.1-0.3-2.1-0.5-3.2c-0.2-1.1-0.4-2.1-0.7-3
			c1.1-0.4,2.3-0.9,3.4-1.4c1.1-0.5,2.2-0.9,3.4-1.3c0.1,1.2,0.3,2.3,0.5,3.4c0.3,1.1,0.5,2.2,0.7,3.3l-0.3,0.3l0.4,0.3l3.7,25
			C-238.1,310.9-238.1,311.6-238.5,312z M-252.3,279.1c0.2,0,0.4,0.1,0.4,0.3c0,0.2,0.1,0.4,0.3,0.5l0.1,0.6L-252.3,279.1z"/>
		<path class="st5" d="M-227.7,302l1.2,8.5c-1.3,0.5-2.6,1-3.9,1.5c-1.3,0.5-2.5,1-3.7,1.6l-1.5,0.2l-3.1-24.8l-1.4-9.6
			c1.2-0.4,2.3-0.8,3.4-1.3c1.1-0.4,2.2-0.9,3.3-1.4c0.9-0.1,1.6-0.3,2.3-0.8l0.3,0.3c0.3,2.2,0.6,4.4,0.9,6.5s0.6,4.2,0.9,6.3
			c0.3,2.1,0.5,4.1,0.8,6.2c0.2,2,0.4,4.1,0.6,6.2l0.3,0.3L-227.7,302z"/>
		<path class="st5" d="M-210.2,310.3c-0.5-0.9-1-1.8-1.5-2.8c-0.4,0.4-0.9,0.8-1.4,1.3c-0.5,0.5-1.1,0.9-1.7,1.3
			c-0.6,0.4-1.4,0.6-2.2,0.7c-0.8,0.1-1.7-0.1-2.7-0.5c-0.4-0.2-0.9-0.5-1.4-0.8c-0.5-0.3-0.9-0.5-1.4-0.8c-0.4-0.3-0.8-0.7-1.2-1
			c-0.3-0.4-0.6-0.8-0.7-1.3l-2.9-22.9c0.3-0.8,0.6-1.6,0.9-2.5c0.3-0.9,0.7-1.7,1.1-2.6c0.4-0.8,0.9-1.6,1.6-2.3
			c0.6-0.7,1.4-1.3,2.2-1.7c2.4-0.7,4.7-0.7,6.8,0c2.1,0.7,4,1.9,5.7,3.6l2.9,20.9c-0.4,0.6-0.6,1.1-0.7,1.7
			c-0.1,0.6-0.3,1.1-0.6,1.6l2.3,5l0.3,0.8L-210.2,310.3z M-214.7,292.5c-0.4-0.9-0.8-1.7-1.2-2.4c-0.3-0.2-0.6-0.5-0.8-0.9
			c-0.2-0.3-0.5-0.7-0.7-1s-0.6-0.6-0.9-0.8c-0.3-0.2-0.7-0.2-1.2-0.1c-0.2,0.5-0.3,1-0.3,1.5c0,0.6,0,1.1,0.1,1.7
			c0.1,0.6,0.2,1.1,0.4,1.7c0.2,0.6,0.4,1.1,0.6,1.5c0.4,0.5,0.8,1.1,1.3,1.8c0.4,0.7,0.9,1.2,1.4,1.7l2.3-2.1
			C-214,294.2-214.3,293.4-214.7,292.5z"/>
		<path class="st5" d="M-206.9,289.6l-0.1,0l0-0.1l0.2,0C-206.8,289.6-206.8,289.6-206.9,289.6z M-185.4,301.3
			c-0.2,0.5-0.5,1-0.8,1.5c-0.3,0.5-0.7,1-1.1,1.5c-0.4,0.5-0.8,1-1.1,1.4c-0.1,0.1-0.2,0.2-0.4,0.3c-0.2,0.1-0.3,0.2-0.4,0.3
			c-0.1,0.1-0.2,0.2-0.3,0.3c-0.1,0.1,0,0.3,0.1,0.4c-0.1,0.1-0.2,0.1-0.3,0c-0.1-0.1-0.1-0.2-0.1-0.2c-0.4,0.1-0.7,0.3-1,0.5
			c-0.3,0.2-0.6,0.3-1,0.4c-0.3,0-0.6,0-0.9,0.1c-0.3,0.1-0.6,0.1-0.9,0.2c-0.3,0.1-0.6,0.1-0.9,0.1c-0.3,0-0.6,0-0.8-0.2
			c-0.5,0-1-0.2-1.5-0.3c-0.5-0.2-1-0.4-1.5-0.6c-0.5-0.3-0.9-0.6-1.4-0.9c-0.5-0.3-0.9-0.6-1.3-1c-0.4-0.4-0.7-0.8-1-1.3
			c-0.2-0.5-0.3-1-0.3-1.6c-0.1-1.9-0.4-3.7-0.7-5.4c-0.3-1.7-0.6-3.6-0.8-5.5c-0.1,0-0.1-0.1-0.1-0.2c0-0.1,0-0.1,0-0.2
			c0-0.1,0-0.2,0-0.2c0-0.1-0.1-0.1-0.2-0.2c0.1-0.1,0.1-0.2,0.1-0.3c0-0.1-0.1-0.2-0.1-0.3c-0.1-0.1-0.1-0.2-0.1-0.3
			c0-0.1,0-0.2,0.1-0.3l-0.2-0.3l-1.9-14.1c-0.1-0.2,0-0.3,0.1-0.3c0.2,0,0.3-0.1,0.4-0.2c0.1,0,0.2,0,0.2,0c0-0.1,0-0.2,0.1-0.2
			c0.5-0.1,1.1-0.3,1.6-0.6c0.5-0.3,1.1-0.5,1.7-0.6c0.2-0.1,0.3-0.2,0.5-0.3c0.2-0.1,0.4-0.2,0.5-0.3c0.2,0,0.4-0.1,0.6-0.1
			c0.1-0.1,0.3-0.2,0.5-0.3l0,0.2c0.3,0.1,0.6,0,0.9-0.1c-0.1-0.1-0.2-0.1-0.3,0c-0.1,0-0.2,0-0.3,0l0.6-0.2c0,0.1,0.1,0.1,0,0.2
			c0,0.1,0,0.1,0.1,0.1c0.2,0,0.3,0,0.3-0.1c0.1,0.3,0.2,0.6,0.2,1c0,0.3,0.1,0.6,0.2,0.9c0,0.2,0,0.4,0,0.6c0,0.2,0.1,0.4,0.2,0.6
			c0,0.2,0,0.4,0.1,0.8c0,0.4,0.1,0.6,0.3,0.6c0.1,0.2,0.1,0.5,0.1,0.9c0,0.4,0.1,0.9,0.1,1.4c0,0.5,0.1,0.9,0.1,1.3
			c0,0.4,0.1,0.7,0.2,0.9c-0.1,0.2-0.1,0.4,0,0.7c0.1,0.3,0.2,0.5,0.2,0.8l-0.1,0.2l0.2,0.1c-0.2,0-0.2,0.1-0.1,0.1
			c0.1,0,0.1,0.1,0,0.2c0.2,0.2,0.3,0.4,0.3,0.6l-0.1,0.2l0.4,3.1c0.2,0,0.2,0.1,0.1,0.2c-0.1,0.1-0.1,0.2,0,0.3l0,0.1l0.2,0.1
			c0,0.7,0.1,1.4,0.3,2c0.2,0.6,0.2,1.2,0.2,1.9l0.2,0.3l0.9,6.5l0.2,0.1c-0.2,0.2-0.2,0.3,0,0.3c0.2,0.1,0.2,0.2,0.2,0.3
			c0,0.4,0.1,0.8,0.2,1.2c0.1,0.4,0.2,0.8,0.2,1.2c0.2,0,0.4,0,0.5,0c0.2,0,0.4,0,0.6-0.1c0.1-0.1,0.2-0.3,0.3-0.5
			c0.1-0.2,0.2-0.3,0.2-0.5c0.1-0.1,0.1-0.1,0.2-0.2c0.1-0.1,0.1-0.1,0-0.2c0.4-0.4,0.6-0.8,0.5-1.3c-0.1-0.5-0.2-1-0.3-1.4l0.2-0.3
			c-0.2-0.7-0.3-1.4-0.4-2.2c-0.1-0.8-0.2-1.4-0.3-2.1l-0.2-0.6c-0.2-1.2-0.4-2.6-0.6-4.1s-0.4-3-0.7-4.6c-0.2-1.6-0.5-3.1-0.7-4.7
			c-0.2-1.5-0.5-2.9-0.7-4.2c0.1-0.3,0.2-0.5,0.1-0.8c-0.1-0.2-0.1-0.5-0.1-0.8c0-0.1,0.1-0.1,0.1-0.1c0.1,0,0.1,0,0.1-0.1
			c0,0-0.1,0-0.2,0c0.2-0.2,0.5-0.3,0.9-0.5c0.4-0.1,0.7-0.3,1-0.5c0.2,0,0.5-0.1,0.7-0.3c0.3,0,0.6-0.1,0.8-0.3
			c0.2-0.2,0.5-0.3,0.7-0.3c-0.1,0.1,0,0.1,0,0.2c0.1,0.1,0.2,0.1,0.3,0l0.1-0.2c0.1,0.1,0.3,0.1,0.3,0c0.1-0.1,0.2-0.2,0.4-0.2
			l-0.1,0.2c0.1,0,0.3,0.1,0.4,0.1c0.1,0,0.2,0,0.3,0.1c0.2,0.8,0.3,1.6,0.4,2.6c0.1,1,0.3,1.8,0.6,2.5c0.1,0.1,0.1,0.3,0.1,0.4
			c0,0.1,0,0.2-0.1,0.3c0,0.1,0,0.2,0,0.3c0,0.1,0.1,0.2,0.2,0.3c-0.1,0.5-0.1,1,0,1.4c0.1,0.4,0.2,0.9,0.2,1.5
			c0.1,0,0.2,0.1,0.2,0.1c0,0,0,0.1-0.1,0.1c0,0.1-0.1,0.1-0.1,0.2c0,0.1,0.1,0.1,0.2,0.2c0.1,0.5,0.1,1.1,0.2,1.8
			c0.1,0.7,0.2,1.4,0.3,2.2c0.1,0.8,0.2,1.5,0.3,2.2c0.1,0.7,0.2,1.3,0.4,1.7l1,7.3l0.2,0.1l0.4,3.1
			C-185,300.2-185.2,300.8-185.4,301.3z M-202.7,277.5l-0.4,0c0,0,0.1-0.1,0.1-0.1s0.1,0,0.1-0.1
			C-202.7,277.4-202.7,277.4-202.7,277.5C-202.7,277.4-202.7,277.5-202.7,277.5L-202.7,277.5c0-0.1,0.1-0.1,0.1-0.1
			c0.1,0,0.1,0,0.1,0.1L-202.7,277.5z M-198,273.1c0,0.1,0,0.3,0.1,0.5c0,0.2,0,0.3,0,0.5c-0.2-0.1-0.2-0.2-0.1-0.4
			c0.1-0.2,0.1-0.3,0-0.5L-198,273.1z"/>
		<path class="st5" d="M-173.9,294.7l1.2,8.5c-1.3,0.5-2.6,1-3.9,1.5c-1.3,0.5-2.5,1-3.7,1.6l-1.5,0.2l-3.1-24.8l-1.4-9.6
			c1.2-0.4,2.3-0.8,3.4-1.3c1.1-0.4,2.2-0.9,3.3-1.4c0.9-0.1,1.6-0.3,2.3-0.8l0.3,0.3c0.3,2.2,0.6,4.4,0.9,6.5
			c0.3,2.1,0.6,4.2,0.9,6.3c0.3,2.1,0.5,4.1,0.8,6.2c0.2,2,0.4,4.1,0.6,6.2l0.3,0.3L-173.9,294.7z"/>
		<path class="st5" d="M-157.1,269.8c-0.2,1-0.6,2-1.1,2.8c-0.5-0.1-0.9,0.1-1.2,0.3s-0.6,0.6-0.9,1l3,28c-0.8,0.2-1.5,0.4-2.3,0.7
			c-0.7,0.3-1.5,0.6-2.2,0.9c-0.8,0.3-1.5,0.4-2.3,0.6c-0.8,0.1-1.6,0-2.4-0.3l-3-29.2c-0.7-0.2-1.4-0.3-2.1-0.2
			c-0.8,0.1-1.5,0.2-2.3,0.2c0-1,0.1-2,0.4-3.1c0.3-1.1,0.6-2,1.1-2.9l15.6-1.6C-156.8,267.8-156.9,268.8-157.1,269.8z
			 M-170.2,275.8c-0.2,0-0.5,0-0.7,0.1l-0.2-0.1c0.1-0.2,0.2-0.5,0.4-0.7c0.2-0.3,0.4-0.3,0.7,0c0.2,0,0.3,0.1,0.3,0.2
			c0,0.1,0.1,0.2,0.1,0.4C-169.8,275.7-170,275.8-170.2,275.8z"/>
		<path class="st5" d="M-142.7,290.4l1.2,8.5c-1.3,0.5-2.6,1-3.9,1.5c-1.3,0.5-2.5,1-3.7,1.6l-1.5,0.2l-3.1-24.8l-1.4-9.6
			c1.2-0.4,2.3-0.8,3.4-1.3s2.2-0.9,3.3-1.4c0.9-0.1,1.6-0.3,2.3-0.8l0.3,0.3c0.3,2.2,0.6,4.4,0.9,6.5c0.3,2.1,0.6,4.2,0.9,6.3
			c0.3,2.1,0.5,4.1,0.8,6.2c0.2,2,0.4,4.1,0.6,6.2l0.3,0.3L-142.7,290.4z"/>
		<path class="st5" d="M-122.8,267.8c0.1,0.3,0.1,0.7,0.2,1s0.1,0.8,0.1,1.2c-0.1,0.2-0.2,0.4-0.1,0.5c0.1,0.2,0.1,0.4,0,0.5
			c-0.2,1.4-0.7,2.8-1.3,4.1c-0.6,1.3-1.3,2.6-2.2,3.7c0,0.4,0.1,0.7,0.4,0.9s0.6,0.3,0.9,0.4c0.5,0.2,1,0.5,1.6,0.9
			c0.5,0.4,0.9,0.8,1,1.4c0.6,0.7,1.1,1.5,1.4,2.5c0.3,1,0.4,1.9,0.3,2.8c-0.1,0.4-0.2,0.8-0.4,1.2c-0.2,0.4-0.4,0.7-0.6,1.1
			c-0.3,0.7-0.7,1.3-1.1,2.1c-0.4,0.7-0.8,1.4-1.3,2c-0.5,0.6-1,1.2-1.6,1.7s-1.2,0.9-1.9,1.2c-0.5,0.3-1.1,0.6-1.6,0.8
			c-0.6,0.2-1.2,0.4-1.8,0.6c-0.6,0.2-1.2,0.4-1.8,0.6c-0.6,0.2-1.2,0.5-1.7,0.8c-0.1,0-0.1,0-0.2-0.1c-0.1-0.1-0.1-0.1-0.2,0
			c0,0.1-0.2,0.1-0.4,0.1c-0.2,0-0.3,0-0.4,0.1c-0.3-0.1-0.5-0.1-0.7-0.1c-0.2,0.1-0.5,0.1-0.7,0.2l-1.4,0.1
			c-0.1-0.4-0.2-0.7-0.2-1.2s-0.1-0.8-0.3-1.2l0.1-0.2l-1.6-12.9l0-0.5l-1.4-12.2c-0.1-1.2-0.2-2.3-0.4-3.3s-0.2-2.2-0.3-3.2
			c0.1,0,0.1,0,0.1,0.1c0,0,0.1,0.1,0.1,0.1l0.3,0c0,0,0,0,0,0c0,0,0,0,0.1-0.1c0.4,0,0.8-0.1,1.2-0.3c0.2-0.1,0.3-0.2,0.3-0.2
			c0,0,0,0-0.1,0c0,0-0.1,0-0.1,0c0-0.1,0.2-0.2,0.4-0.2c0.1,0,0.2-0.1,0.3-0.2c0.1-0.1,0.2-0.1,0.2,0c0,0.1-0.1,0.1-0.3,0.2
			l-0.1,0.1c0.1,0,0.1,0,0.2,0c0.1,0,0.2,0,0.3-0.1c0.1,0,0.2,0,0.2-0.1s0-0.1,0-0.1c0,0,0,0,0-0.1c0,0,0-0.1,0.1-0.2
			c0.1,0,0.1,0,0.2,0.1c0.1,0.1,0.2,0,0.3-0.1c-0.1-0.1-0.1-0.1-0.1-0.1c0-0.2,0-0.2,0.2-0.2c0.1,0,0.2,0,0.2,0
			c0.1,0,0.1,0.1,0.2,0.1c0.1,0,0.2,0,0.2,0c0.1,0,0.1-0.1,0.2-0.2c-0.1-0.1-0.1,0-0.2,0c-0.1,0.1-0.1,0-0.2-0.1l0.6-0.1
			c-0.1,0-0.1,0.1,0,0.1c0.2,0.1,0.4,0.2,0.5,0.1c0.2-0.1,0.4-0.1,0.6-0.1c-0.1-0.1,0-0.2,0-0.2c0.1,0,0.1-0.1,0.2-0.2l-0.5,0.1
			c-0.2,0-0.4,0.1-0.6,0.2c-0.1,0-0.1,0-0.1-0.1c-0.1-0.1-0.1-0.1,0.1-0.2c0.2,0,0.5,0,0.9-0.1c0.5-0.1,0.8-0.2,1-0.4
			c0.2-0.1,0.5-0.2,0.7-0.2c0.3,0,0.5-0.2,0.7-0.3l2.2-0.3c0,0.1,0,0.1,0,0.1c0,0,0,0,0.1,0.1l0.2-0.2c0.1,0,0.2,0.1,0.3,0.1
			c0.1,0,0.2,0,0.3-0.1c0.1,0,0.2-0.1,0.3-0.1c0.1,0,0.2,0,0.3,0.1c0-0.2,0.1-0.2,0.2-0.2c0.1,0,0.2,0,0.3,0l-0.2,0.2
			c0,0,0.1,0,0.3,0c0.1,0,0.1,0,0.1,0c0,0,0.1,0,0.1,0c0.1,0,0.1,0,0.1,0.1c0,0,0,0.1,0,0.1c0.1,0.1,0.2,0.1,0.3,0
			c0.1,0,0.2,0,0.2,0.1c0.1,0,0.1,0.1,0.2,0.1c0.2,0.1,0.3,0.1,0.3,0.1c0,0,0-0.1,0.1-0.1c0.1,0,0.2,0,0.2,0c0,0,0.1,0,0.1,0.1
			c0.3,0,0.5,0,0.6,0l0.1,0.3l0.2-0.1c0,0.1,0,0.1,0.1,0.1s0.1,0,0.2,0.1l0,0c0,0,0,0,0.1,0c0.1,0,0.1,0,0,0c0,0,0,0,0,0.1
			c0.2,0.1,0.4,0.2,0.5,0.3c0.1,0.1,0.3,0.2,0.5,0.3c0.2,0,0.3,0.1,0.3,0.2c0.1,0.1,0.2,0.1,0.3,0.1c0,0.1,0,0.2,0,0.3
			c0,0,0.1,0.1,0.2,0.1c0.1,0,0.1,0,0.2,0c0.1,0,0.1,0.1,0.2,0.2l-0.1,0.1c0,0.1,0,0.2,0.1,0.2s0.1,0,0.2,0.1c0.1,0,0.1,0.1,0.2,0.1
			c0.1,0.1,0.1,0.1,0.1,0.3l0.1-0.1c0.3,0.1,0.4,0.3,0.5,0.5c0.1,0.2,0.2,0.5,0.4,0.7c-0.1,0.1-0.2,0.2-0.1,0.2
			c0.1,0.1,0.1,0.1,0.2,0.2L-122.8,267.8L-122.8,267.8z M-141.3,272.7C-141.3,272.6-141.4,272.6-141.3,272.7l0,0.1
			c0.1,0,0.1-0.1,0.1-0.1C-141.3,272.7-141.3,272.7-141.3,272.7z M-142,265.7L-142,265.7c0.1-0.1,0.1,0,0.1,0
			C-141.8,265.6-141.9,265.6-142,265.7z M-141,272.1L-141,272.1L-141,272.1c0.1,0,0.1,0,0.1,0.1c0,0.1,0,0.1,0,0.1l0.2-0.2
			C-140.8,272-140.9,272-141,272.1z M-141.8,265.5C-141.8,265.6-141.8,265.5-141.8,265.5L-141.8,265.5z M-140.8,265.8
			c-0.1,0-0.1,0-0.1,0c-0.1,0-0.1,0-0.2,0c0,0,0.1,0,0.2,0L-140.8,265.8C-140.9,265.8-140.9,265.8-140.8,265.8
			C-140.8,265.8-140.8,265.8-140.8,265.8z M-136,296c-0.1,0-0.2,0-0.2-0.1l-0.1,0.1l0.3,0.1C-135.9,296.1-135.9,296-136,296z
			 M-137.7,265.3c0,0,0-0.1,0-0.1c-0.1,0-0.1,0-0.1,0.1L-137.7,265.3L-137.7,265.3l-0.2,0C-137.8,265.3-137.7,265.3-137.7,265.3z
			 M-137.2,265.1C-137.2,265.1-137.2,265-137.2,265.1c-0.1-0.1-0.1-0.2-0.1-0.2l0,0c-0.1,0-0.1,0.1,0,0.1L-137.2,265.1L-137.2,265.1
			L-137.2,265.1z M-132.3,278.6c0.1,0,0.2,0,0.2-0.1s0.1-0.1,0.2-0.1C-132,278.3-132.1,278.4-132.3,278.6z M-127.5,287.2
			c-0.6-1.4-1.4-2.7-2.5-3.7c-0.2-0.1-0.3-0.3-0.4-0.5c-0.1-0.2-0.3-0.3-0.5-0.3l0.3,2.1c0.1,0.1,0,0.3-0.1,0.4
			c-0.1,0.1,0,0.2,0.2,0.3l-0.1,0.2l1.1,8.4l0.3,0c0.3-0.3,0.7-0.6,1.1-0.8c0.4-0.2,0.7-0.5,1-0.8c0.1-0.1,0.3-0.2,0.5-0.3
			c0.2-0.2,0.3-0.3,0.3-0.4C-126.5,290.2-126.9,288.7-127.5,287.2z M-129.1,272.2l-0.2-0.1c0-0.6-0.2-1.2-0.4-1.7
			c-0.3-0.5-0.5-1-0.8-1.5c-0.3-0.6-0.6-1.1-1.1-1.5c-0.5-0.5-0.9-0.9-1.2-1.3c0,0.3-0.1,0.6-0.1,0.9c-0.1,0.3-0.1,0.6,0,0.8l1.4,10
			l0.1,0c-0.1,0-0.1,0.1-0.1,0.2c0.6-0.2,1.1-0.4,1.6-0.7c0.5-0.3,1-0.6,1.5-0.8L-129.1,272.2z M-132.4,263l0,0.2
			C-132.3,263.1-132.3,263.1-132.4,263L-132.4,263z M-129.1,262.7l0.1-0.2C-129,262.6-129,262.7-129.1,262.7z M-128.1,262.9
			L-128.1,262.9L-128.1,262.9l-0.1,0C-128.2,262.8-128.2,262.8-128.1,262.9z M-123.4,266.2L-123.4,266.2
			C-123.5,266.1-123.5,266.1-123.4,266.2c0,0.1,0,0.1,0,0.2c0,0.1,0,0.1,0.1,0.1C-123.3,266.3-123.3,266.2-123.4,266.2z"/>
		<path class="st5" d="M-121.1,277.9l-0.1,0l0-0.1l0.2,0C-121,277.8-121,277.8-121.1,277.9z M-99.6,289.5c-0.2,0.5-0.5,1-0.8,1.5
			c-0.3,0.5-0.7,1-1.1,1.5c-0.4,0.5-0.8,1-1.1,1.4c-0.1,0.1-0.2,0.2-0.4,0.3c-0.2,0.1-0.3,0.2-0.4,0.3c-0.1,0.1-0.2,0.2-0.3,0.3
			s0,0.3,0.1,0.4c-0.1,0.1-0.2,0.1-0.3,0c-0.1-0.1-0.1-0.2-0.1-0.2c-0.4,0.1-0.7,0.3-1,0.5c-0.3,0.2-0.6,0.3-1,0.4
			c-0.3,0-0.6,0-0.9,0.1c-0.3,0.1-0.6,0.1-0.9,0.2c-0.3,0.1-0.6,0.1-0.9,0.1c-0.3,0-0.6,0-0.8-0.2c-0.5,0-1-0.2-1.5-0.3
			c-0.5-0.2-1-0.4-1.5-0.6c-0.5-0.3-0.9-0.6-1.4-0.9c-0.5-0.3-0.9-0.6-1.3-1c-0.4-0.4-0.7-0.8-1-1.3c-0.2-0.5-0.3-1-0.3-1.6
			c-0.1-1.9-0.4-3.7-0.7-5.4c-0.3-1.7-0.6-3.6-0.8-5.5c-0.1,0-0.1-0.1-0.1-0.2c0-0.1,0-0.1,0-0.2c0-0.1,0-0.2,0-0.2
			c0-0.1-0.1-0.1-0.2-0.2c0.1-0.1,0.1-0.2,0.1-0.3c0-0.1-0.1-0.2-0.1-0.3c-0.1-0.1-0.1-0.2-0.1-0.3s0-0.2,0.1-0.3l-0.2-0.3
			l-1.9-14.1c-0.1-0.2,0-0.3,0.1-0.3c0.2,0,0.3-0.1,0.4-0.2c0.1,0,0.2,0,0.2,0c0-0.1,0-0.2,0.1-0.2c0.5-0.1,1.1-0.3,1.6-0.6
			c0.5-0.3,1.1-0.5,1.7-0.6c0.2-0.1,0.3-0.2,0.5-0.3c0.2-0.1,0.4-0.2,0.5-0.3c0.2,0,0.4-0.1,0.6-0.1c0.1-0.1,0.3-0.2,0.5-0.3l0,0.2
			c0.3,0.1,0.6,0,0.9-0.1c-0.1-0.1-0.2-0.1-0.3,0s-0.2,0-0.3,0l0.6-0.2c0,0.1,0.1,0.1,0,0.2s0,0.1,0.1,0.1c0.2,0,0.3,0,0.3-0.1
			c0.1,0.3,0.2,0.6,0.2,1c0,0.3,0.1,0.6,0.2,0.9c0,0.2,0,0.4,0,0.6c0,0.2,0.1,0.4,0.2,0.6c0,0.2,0,0.4,0.1,0.8
			c0,0.4,0.1,0.6,0.3,0.6c0.1,0.2,0.1,0.5,0.1,0.9c0,0.4,0.1,0.9,0.1,1.4c0,0.5,0.1,0.9,0.1,1.3c0,0.4,0.1,0.7,0.2,0.9
			c-0.1,0.2-0.1,0.4,0,0.7c0.1,0.3,0.2,0.5,0.2,0.8l-0.1,0.2l0.2,0.1c-0.2,0-0.2,0.1-0.1,0.1c0.1,0,0.1,0.1,0,0.2
			c0.2,0.2,0.3,0.4,0.3,0.6l-0.1,0.2l0.4,3.1c0.2,0,0.2,0.1,0.1,0.2c-0.1,0.1-0.1,0.2,0,0.3l0,0.1l0.2,0.1c0,0.7,0.1,1.4,0.3,2
			c0.2,0.6,0.2,1.2,0.2,1.9l0.2,0.3l0.9,6.5l0.2,0.1c-0.2,0.2-0.2,0.3,0,0.3c0.2,0.1,0.2,0.2,0.2,0.3c0,0.4,0.1,0.8,0.2,1.2
			c0.1,0.4,0.2,0.8,0.2,1.2c0.2,0,0.4,0,0.5,0c0.2,0,0.4,0,0.6-0.1c0.1-0.1,0.2-0.3,0.3-0.5c0.1-0.2,0.2-0.3,0.2-0.5
			c0.1-0.1,0.1-0.1,0.2-0.2c0.1-0.1,0.1-0.1,0-0.2c0.4-0.4,0.6-0.8,0.5-1.3c-0.1-0.5-0.2-1-0.3-1.4l0.2-0.3
			c-0.2-0.7-0.3-1.4-0.4-2.2c-0.1-0.8-0.2-1.4-0.3-2.1l-0.2-0.6c-0.2-1.2-0.4-2.6-0.6-4.1c-0.2-1.5-0.4-3-0.7-4.6
			c-0.2-1.6-0.5-3.1-0.7-4.7c-0.2-1.5-0.5-2.9-0.7-4.2c0.1-0.3,0.2-0.5,0.1-0.8c-0.1-0.2-0.1-0.5-0.1-0.8c0-0.1,0.1-0.1,0.1-0.1
			c0.1,0,0.1,0,0.1-0.1c0,0-0.1,0-0.2,0c0.2-0.2,0.5-0.3,0.9-0.5c0.4-0.1,0.7-0.3,1-0.5c0.2,0,0.5-0.1,0.7-0.3
			c0.3,0,0.6-0.1,0.8-0.3c0.2-0.2,0.5-0.3,0.7-0.3c-0.1,0.1,0,0.1,0,0.2c0.1,0.1,0.2,0.1,0.3,0l0.1-0.2c0.1,0.1,0.3,0.1,0.3,0
			c0.1-0.1,0.2-0.2,0.4-0.2l-0.1,0.2c0.1,0,0.3,0.1,0.4,0.1c0.1,0,0.2,0,0.3,0.1c0.2,0.8,0.3,1.6,0.4,2.6c0.1,1,0.3,1.8,0.6,2.5
			c0.1,0.1,0.1,0.3,0.1,0.4c0,0.1,0,0.2-0.1,0.3c0,0.1,0,0.2,0,0.3c0,0.1,0.1,0.2,0.2,0.3c-0.1,0.5-0.1,1,0,1.4
			c0.1,0.4,0.2,0.9,0.2,1.5c0.1,0,0.2,0.1,0.2,0.1c0,0,0,0.1-0.1,0.1c0,0.1-0.1,0.1-0.1,0.2c0,0.1,0.1,0.1,0.2,0.2
			c0.1,0.5,0.1,1.1,0.2,1.8c0.1,0.7,0.2,1.4,0.3,2.2c0.1,0.8,0.2,1.5,0.3,2.2c0.1,0.7,0.2,1.3,0.4,1.7l1,7.3l0.2,0.1l0.4,3.1
			C-99.2,288.5-99.4,289-99.6,289.5z M-116.9,265.7l-0.4,0c0,0,0.1-0.1,0.1-0.1s0.1,0,0.1-0.1C-116.9,265.6-116.9,265.6-116.9,265.7
			C-116.9,265.7-116.9,265.7-116.9,265.7L-116.9,265.7c0-0.1,0.1-0.1,0.1-0.1c0.1,0,0.1,0,0.1,0.1L-116.9,265.7z M-112.2,261.3
			c0,0.1,0,0.3,0.1,0.5c0,0.2,0,0.3,0,0.5c-0.2-0.1-0.2-0.2-0.1-0.4c0.1-0.2,0.1-0.3,0-0.5L-112.2,261.3z"/>
		<path class="st5" d="M-76.9,284.4l0.8,5.7c-0.7,0.7-1.5,1.2-2.4,1.6c-0.9,0.4-1.7,0.7-2.7,1c-0.3-2.9-0.8-5.8-1.3-8.7
			c-0.5-2.9-1-5.8-1.4-8.7c-0.3,0.2-0.4,0.4-0.5,0.9c-0.1,0.4-0.2,0.8-0.3,1.1c-0.1,1-0.4,1.9-0.8,2.8c-0.4,0.9-0.7,1.8-0.9,2.8
			c-0.1,0.1-0.2,0.1-0.3,0c-0.1-0.1-0.1-0.1-0.2-0.2c-0.1-0.3-0.1-0.4,0.1-0.4c0.2,0,0.4-0.1,0.5-0.3c-0.1,0-0.2-0.1-0.3-0.2
			c-0.1-0.1-0.2-0.1-0.3,0l-0.1,0.2c-0.6-0.9-1.2-1.8-1.8-2.8c-0.6-1-1.2-1.9-1.7-2.6c-0.2,0-0.4-0.1-0.5-0.2s-0.3-0.1-0.6,0
			c0,0.2-0.1,0.4-0.1,0.6c0,0.1,0,0.3,0.2,0.5l2.3,14.8c-0.7,0.5-1.5,1-2.3,1.4c-0.8,0.5-1.7,0.8-2.6,0.8l-0.4-0.3l-0.1,0.2
			l-0.2-1.2c0.1,0,0.1,0,0.1,0.1c0,0.1,0.1,0.1,0.2,0c0.2-0.1,0.3-0.3,0.4-0.5c-0.1-0.1-0.2-0.2-0.4-0.1c-0.1,0.1-0.3,0.1-0.4,0.1
			l-1.3-9.2l-0.4-0.3c-0.4-3-0.8-6.1-1.2-9.3c-0.4-3.1-0.9-6.3-1.5-9.4c-0.6-0.6-1.1-1.3-1.4-2c-0.3-0.7-0.7-1.4-1.2-2.1
			c0.3-0.1,0.7-0.2,1-0.3c0.3-0.2,0.7-0.3,1-0.5c0.3-0.2,0.7-0.3,1.1-0.4c0.4-0.1,0.7-0.2,1.2-0.2c0.7-0.4,1.4-0.7,2.2-0.9
			c0.8-0.2,1.6-0.4,2.3-0.8c1,1.1,1.8,2.2,2.7,3.3c0.8,1.1,1.7,2.2,2.7,3.3l0.3-0.4c0-0.2,0-0.4,0.1-0.6c0.1-0.3,0.1-0.5,0.2-0.7
			c0.1-0.8,0.3-1.7,0.4-2.6c0.1-0.9,0.4-1.7,0.8-2.3c0.5-0.1,0.9-0.2,1.3-0.4c0.4-0.2,0.8-0.4,1.2-0.5c0.4-0.2,0.8-0.3,1.2-0.4
			c0.4-0.1,0.9-0.2,1.3-0.1l1.2,8.8l0.3,0.2l2.6,19.3L-76.9,284.4z"/>
	</g>
	<path class="st5" d="M-34.5,299.7c-1.2,0.3-2.5,0.6-3.7,1c-0.2-0.1-0.3-0.2-0.3-0.4c0-0.2,0-0.3,0-0.5c0-0.2,0-0.4,0-0.5
		c0-0.2-0.1-0.3-0.3-0.4c0-0.3,0-0.6,0-0.9c0-0.3,0-0.6,0-0.9c0-0.3-0.1-0.5-0.2-0.8c-0.1-0.2-0.2-0.4-0.4-0.5l-0.2,0.1l0.3,0.3
		l-4.7,0.4c-0.3,0.5-0.5,0.9-0.5,1.3c0,0.4-0.2,0.9-0.4,1.4c-0.9,0.1-1.8,0.3-2.7,0.6c-0.9,0.3-1.8,0.5-2.7,0.6
		c0.4-3.6,0.9-7.1,1.6-10.7c0.7-3.6,1.2-7.2,1.5-10.9c0.1-1.2,0.3-2.4,0.6-3.5c0.2-1.1,0.4-2.3,0.4-3.5c0.2-0.6,0.4-1.3,0.4-2
		c0-0.7,0.1-1.4,0.4-2c-0.4-0.5-0.8-1-1.1-1.6c-0.3-0.6-0.6-1.2-0.9-1.8c0.4-0.1,0.8-0.2,1.2-0.3c0.4-0.1,0.8-0.1,1.2-0.1
		c0.4,0,0.8-0.1,1.2-0.2c0.4-0.1,0.8-0.2,1.1-0.4c0.4,0.1,0.8,0,1.2-0.1c0.4-0.1,0.7-0.2,1.1-0.4c0.3-0.1,0.7-0.2,1.1-0.3
		c0.4-0.1,0.8-0.1,1.2,0l0.4,0.9c0.3,2.1,0.6,4.1,1.1,6c0.5,1.9,0.9,3.9,1.1,6l0.3,0.3c0.1,0.5,0.2,1.1,0.2,1.7
		c0.1,0.6,0.2,1.2,0.5,1.7c0,0.4,0,0.7,0,0.9c0,0.2-0.2,0.4-0.6,0.5l-0.2,0.1c0,0.2,0.1,0.4,0.3,0.4c0.2,0.1,0.4,0.1,0.5,0.1
		c0.1-0.1,0.1-0.1,0.1-0.2c0-0.1,0-0.2,0-0.3c0.2,0.4,0.4,0.8,0.4,1.3c0.1,0.4,0.1,0.9,0.2,1.4s0.1,0.9,0.2,1.4
		c0.1,0.4,0.2,0.9,0.4,1.3c0,1.1,0.2,2.1,0.5,3.1c0.3,1,0.5,2,0.6,3l0.3,0.5c-0.1,0.5,0,1,0.1,1.5c0.1,0.5,0.2,1,0.3,1.4
		c0.1,0.5,0.3,0.9,0.4,1.4c0.1,0.5,0.2,1,0.2,1.5C-32,299-33.2,299.4-34.5,299.7z M-42.9,298.3c-0.4,0-0.8-0.1-1.1-0.3
		c0.7-0.7,1.5-0.7,2.2,0.1C-42,298.2-42.4,298.3-42.9,298.3z M-40.3,290.5c-0.1-0.6-0.1-1.1-0.2-1.6c0-0.6-0.1-1.1-0.2-1.7
		c-0.1-0.5-0.2-1.1-0.5-1.6c-0.4,1-0.7,2.1-0.9,3.2c-0.2,1.1-0.5,2.2-0.9,3.2l3-0.1C-40.1,291.6-40.3,291.1-40.3,290.5z
		 M-34.2,283.3c0-0.2,0-0.2-0.1-0.3c-0.1,0-0.2,0-0.3,0c-0.1,0-0.2,0-0.3,0.1c-0.1,0-0.2,0-0.3,0c-0.1,0.1-0.1,0.2,0,0.3
		c0,0.1,0.1,0.2,0.2,0.3c0.1,0.1,0.2,0.1,0.3,0.2c0.1,0,0.3,0,0.4-0.1L-34.2,283.3z"/>
	<g>
		<path class="st5" d="M19,319.8c-0.2,0.3-0.3,0.6-0.4,0.9c-0.4,0.5-0.7,1-1,1.6c-0.2,0.6-0.5,1.1-0.9,1.7l-6.8-0.5
			c-0.4,0.1-0.8,0.1-1.4,0.1c-0.5,0-1-0.1-1.4-0.3c-0.3,0.1-0.7,0.1-1.1,0.1c-0.4,0-0.7-0.1-1-0.3l-0.3,0.2l-4.2-0.3l-0.3-0.4
			c0-0.7,0-1.4,0-2.1c0-0.7,0.1-1.5,0.2-2.3s0.2-1.5,0.2-2.2c0.1-0.7,0.1-1.4,0-2.1c-0.1-0.2-0.1-0.3,0-0.5l0.5-6.7l-0.1-0.2
			l0.2-0.2c0-0.4,0-0.9,0-1.4c0-0.5,0-0.9,0-1.3c0.1-0.1,0.2-0.3,0.2-0.6c0-0.3,0-0.5-0.1-0.7c0.1-0.3,0.2-0.5,0.2-0.8
			c0-0.2,0-0.5,0.1-0.7c0.1-0.9,0.2-2.1,0.3-3.4c0.1-1.3,0.2-2.6,0.3-3.7c0-0.1,0-0.2-0.1-0.3c-0.1-0.1,0-0.2,0.1-0.3l0.5-4.8
			c0.1,0,0.2,0,0.2-0.1l0-0.2l1,0.1c0.1,0.1,0.2,0.1,0.3,0c0.1-0.1,0.2-0.1,0.3-0.2c0.1-0.1,0.2-0.1,0.3-0.2c0.1-0.1,0.2,0,0.4,0.1
			c0.1-0.2,0.2-0.2,0.3-0.1c0.1,0.1,0.2,0.1,0.3,0l0.5-0.1l0,0l0.2,0.3l0.2-0.2l-0.1-0.1c0.2-0.1,0.6-0.2,1-0.3
			c0.4-0.1,0.8-0.1,1.1,0c0.2-0.3,0.4-0.4,0.6-0.4c0.2,0,0.3,0.1,0.4,0c0,0,0.1,0.1,0.2,0.2c0,0.1,0.1,0.2,0.1,0.2
			c0.1,0,0.1-0.1,0-0.1c-0.1-0.1-0.1-0.1-0.1-0.1c0-0.1,0-0.2,0.1-0.2c0.1,0,0.2,0,0.3,0c0.1,0,0.2,0,0.3,0c0.1,0,0.2,0,0.3-0.1
			c0.2-0.1,0.4-0.1,0.6-0.1c0.1,0,0.3,0,0.5,0.1c0.1-0.1,0.2,0,0.3,0.1c0.1,0.1,0.1,0.2,0.2,0.2l-0.4,4.8l0,0l0,0.2
			c-0.1,0-0.1-0.1-0.2-0.2c-0.1-0.1-0.1-0.1-0.3-0.1c-0.1,0.1-0.1,0.2,0,0.3s0.3,0.1,0.3,0.2l-0.3,1L10.3,310
			c-0.1,0.2-0.1,0.4-0.1,0.6c0,0.2,0,0.4,0.1,0.6c0,0.2,0,0.4,0,0.7c0,0.2-0.1,0.4-0.2,0.6c-0.1,0.8-0.1,1.6-0.1,2.5s0,1.7,0.1,2.5
			c0.1,0,0.2,0,0.2,0.1l-0.1,0.1l0.5,0.1c0,0.1,0.1,0.1,0.2,0.2l0.9,0c0,0,0-0.1,0-0.1c0,0,0,0,0-0.1c0.2,0.1,0.3,0.2,0.4,0.2
			c0.1,0,0.2,0,0.3-0.1c0.1,0,0.2-0.1,0.4-0.1c0.1,0,0.3,0,0.5,0.1c0,0,0,0.1-0.1,0.1c0,0.1,0.1,0.1,0.1,0.1c0.1,0,0.1,0,0.2,0
			l0.1-0.2l0.3,0.2l0.2-0.2l3.2,0.2l-0.2,0.1l2.5,0.2C19.3,319.1,19.1,319.5,19,319.8z M8.7,321c-0.1,0-0.2,0-0.2,0.1
			c0,0.1,0,0.1,0,0l0.1,0L8.7,321z M11.8,286.9c0.1,0.1,0.3,0.1,0.5,0L11.8,286.9z"/>
		<path class="st5" d="M35.6,324.6c-1.3,0.2-2.5,0.4-3.8,0.6c-0.2-0.1-0.3-0.2-0.3-0.4c0-0.2,0-0.3,0-0.5c0-0.2,0-0.4,0-0.5
			c0-0.2-0.1-0.3-0.3-0.5c0-0.3,0-0.6,0-0.9c0-0.3,0.1-0.6,0.1-0.9c0-0.3,0-0.5-0.1-0.8c-0.1-0.2-0.2-0.4-0.4-0.5l-0.2,0.1l0.3,0.3
			l-4.7,0c-0.3,0.4-0.5,0.9-0.6,1.2s-0.2,0.8-0.5,1.3c-0.9,0.1-1.8,0.2-2.7,0.3c-0.9,0.2-1.8,0.3-2.7,0.4c0.7-3.5,1.6-7,2.6-10.5
			c1-3.5,1.8-7,2.5-10.7c0.2-1.2,0.5-2.4,0.9-3.5c0.3-1.1,0.6-2.3,0.7-3.5c0.3-0.6,0.5-1.2,0.5-1.9c0.1-0.7,0.2-1.3,0.5-1.9
			c-0.4-0.5-0.7-1.1-0.9-1.7c-0.2-0.7-0.4-1.3-0.7-1.9c0.4-0.1,0.8-0.2,1.2-0.2c0.4,0,0.8,0,1.2,0s0.8,0,1.2-0.1
			c0.4,0,0.8-0.1,1.1-0.3c0.4,0.1,0.8,0.1,1.2,0c0.4-0.1,0.7-0.2,1.1-0.3c0.4-0.1,0.7-0.2,1.1-0.2c0.4,0,0.8,0,1.2,0.2l0.3,0.9
			c0.1,2.1,0.2,4.1,0.6,6.1s0.5,4,0.5,6.1L37,301c0.1,0.6,0.1,1.1,0.1,1.8c0,0.6,0.1,1.2,0.3,1.7c0,0.4-0.1,0.7-0.1,0.9
			c0,0.2-0.2,0.3-0.7,0.5l-0.2,0.1c0,0.2,0.1,0.4,0.3,0.4c0.2,0.1,0.3,0.1,0.5,0.1c0.1-0.1,0.1-0.1,0.2-0.2c0-0.1,0-0.2,0-0.3
			c0.2,0.4,0.3,0.8,0.3,1.3c0,0.5,0,0.9,0,1.4c0,0.5,0,0.9,0,1.4c0,0.4,0.1,0.9,0.3,1.3c-0.1,1.1,0,2.1,0.2,3.1c0.2,1,0.3,2,0.3,3.1
			l0.3,0.5c-0.1,0.5-0.1,1-0.1,1.5c0.1,0.5,0.1,1,0.2,1.4c0.1,0.5,0.2,0.9,0.2,1.4c0.1,0.5,0.1,1,0.1,1.5
			C38.1,324.2,36.9,324.5,35.6,324.6z M27.4,322.5c-0.4,0-0.8-0.2-1-0.4c0.8-0.6,1.5-0.5,2.2,0.4C28.2,322.5,27.9,322.5,27.4,322.5z
			 M30.6,315c0-0.6,0-1.1,0-1.7c0-0.6,0-1.1,0-1.7c0-0.6-0.1-1.1-0.3-1.6c-0.5,1-0.9,2-1.2,3.1c-0.3,1.1-0.7,2.1-1.2,3.2l3,0.2
			C30.8,316.1,30.7,315.5,30.6,315z M37.4,308.4c0-0.2,0-0.2-0.1-0.3c-0.1,0-0.2-0.1-0.2-0.1c-0.1,0-0.2,0-0.3,0c-0.1,0-0.2,0-0.3,0
			c-0.1,0.1-0.1,0.2,0,0.3c0,0.1,0.1,0.3,0.2,0.4c0.1,0.1,0.2,0.2,0.3,0.2c0.1,0,0.3,0,0.4-0.1L37.4,308.4z"/>
	</g>
	<g>
		<path class="st5" d="M102.7,284.9c0,0.3-0.1,0.7-0.2,1c-0.1,0.3-0.2,0.7-0.3,1.2c-0.2,0.1-0.3,0.3-0.3,0.5c0,0.2-0.1,0.4-0.2,0.5
			c-0.7,1.3-1.5,2.4-2.6,3.4c-1,1-2.1,2-3.3,2.8c-0.2,0.4-0.1,0.7,0.1,1s0.5,0.5,0.7,0.7c0.4,0.4,0.8,0.8,1.2,1.3
			c0.4,0.5,0.5,1.1,0.5,1.7c0.4,0.9,0.5,1.8,0.5,2.8c0,1-0.3,1.9-0.7,2.7c-0.2,0.4-0.5,0.7-0.8,1c-0.3,0.3-0.6,0.6-0.9,0.8
			c-0.5,0.5-1.1,1-1.7,1.6c-0.6,0.5-1.3,1-1.9,1.5c-0.7,0.4-1.4,0.8-2.1,1.1c-0.7,0.3-1.4,0.4-2.2,0.5c-0.6,0.2-1.2,0.2-1.8,0.3
			c-0.6,0-1.3,0-1.9,0c-0.6,0-1.3,0-1.9,0c-0.6,0-1.2,0.1-1.9,0.2c-0.1,0-0.1-0.1-0.2-0.2c0-0.1-0.1-0.1-0.2-0.1
			c-0.1,0.1-0.2,0.1-0.4,0c-0.2-0.1-0.3-0.1-0.4,0c-0.2-0.2-0.4-0.3-0.7-0.3c-0.2,0-0.5,0-0.7-0.1l-1.4-0.3c0-0.4,0-0.8,0.2-1.2
			c0.1-0.4,0.2-0.8,0.1-1.2l0.2-0.1l2.8-12.7l0.2-0.4l2.8-12c0.3-1.1,0.5-2.2,0.8-3.3s0.5-2.1,0.8-3.1c0.1,0,0.1,0,0.1,0.1
			c0,0,0,0.1,0.1,0.1l0.3,0.1c0,0,0,0,0,0c0,0,0,0,0.1-0.1c0.4,0.2,0.8,0.2,1.2,0.2c0.2,0,0.3-0.1,0.4-0.1c0,0,0,0-0.1-0.1
			c0,0-0.1-0.1-0.1-0.1c0.1-0.1,0.2-0.1,0.5,0c0.1,0,0.2,0,0.3-0.1c0.1,0,0.2,0,0.2,0c0,0.1-0.2,0.1-0.4,0.1l-0.1,0.1
			c0.1,0,0.1,0,0.2,0.1c0.1,0,0.2,0,0.3,0c0.1,0,0.2,0,0.2,0s0-0.1,0-0.1c0,0,0,0,0-0.1c0,0,0.1-0.1,0.2-0.1c0.1,0,0.1,0.1,0.2,0.2
			c0.1,0.1,0.2,0.1,0.3,0c-0.1-0.1-0.1-0.1-0.1-0.1c0-0.1,0.1-0.2,0.3-0.1c0.1,0,0.2,0,0.2,0.1c0,0.1,0.1,0.1,0.2,0.2
			c0.1,0.1,0.1,0.1,0.2,0.1c0.1,0,0.1,0,0.2-0.1c0-0.1-0.1-0.1-0.2,0c-0.1,0-0.1,0-0.2-0.2l0.6,0.1c-0.1,0-0.1,0.1-0.1,0.1
			c0.1,0.2,0.3,0.3,0.5,0.3c0.2,0,0.4,0,0.6,0.1c0-0.2,0-0.2,0.1-0.2c0.1,0,0.1,0,0.2-0.1l-0.5-0.1c-0.2,0-0.4,0-0.6,0
			c-0.1,0-0.1-0.1-0.1-0.1c-0.1-0.1,0-0.1,0.2-0.1c0.1,0.1,0.4,0.1,0.9,0.2c0.5,0.1,0.8,0,1.1-0.1c0.3,0,0.5,0,0.8,0
			c0.3,0,0.5,0,0.8,0l2.2,0.5c0,0.1-0.1,0.1,0,0.1c0,0,0,0,0,0.1l0.2-0.1c0.1,0.1,0.2,0.1,0.3,0.1c0.1,0,0.2,0,0.3,0
			c0.1,0,0.2,0,0.3,0c0.1,0,0.2,0.1,0.2,0.2c0.1-0.1,0.2-0.2,0.3-0.1c0.1,0.1,0.2,0.1,0.3,0.1l-0.3,0.1c0,0,0.1,0.1,0.3,0.1
			c0.1,0,0.1,0,0.1,0c0,0,0.1,0,0.1,0c0.1,0,0.1,0.1,0.1,0.1c0,0,0,0.1,0,0.1c0.1,0.1,0.2,0.2,0.3,0.2c0.1,0,0.2,0.1,0.2,0.1
			c0.1,0,0.1,0.1,0.2,0.2c0.2,0.2,0.3,0.2,0.3,0.2c0,0,0.1,0,0.1,0c0.1,0,0.1,0.1,0.1,0.1c0,0,0,0.1,0.1,0.1
			c0.2,0.1,0.4,0.2,0.6,0.2l0,0.3l0.2-0.1c0,0.1,0,0.1,0,0.1c0,0,0.1,0.1,0.1,0.1l0,0c0,0,0,0,0.1,0c0.1,0,0.1,0,0,0
			c0,0-0.1,0-0.1,0.1c0.2,0.1,0.3,0.3,0.4,0.4c0.1,0.2,0.2,0.3,0.4,0.5c0.1,0.1,0.2,0.2,0.2,0.3c0,0.1,0.1,0.2,0.3,0.2
			c-0.1,0.1-0.1,0.2-0.1,0.2c0,0.1,0.1,0.1,0.1,0.1c0.1,0,0.1,0.1,0.2,0.1c0.1,0,0.1,0.1,0.1,0.2l-0.1,0.1c0,0.1,0,0.1,0,0.2
			c0.1,0,0.1,0.1,0.2,0.1c0.1,0.1,0.1,0.1,0.1,0.2c0.1,0.1,0,0.2,0,0.3l0.1,0c0.2,0.2,0.3,0.4,0.3,0.7c0,0.3,0.1,0.5,0.1,0.8
			c-0.2,0-0.2,0.1-0.2,0.2c0,0.1,0.1,0.2,0.1,0.2L102.7,284.9L102.7,284.9z M83.6,283.2C83.6,283.2,83.6,283.2,83.6,283.2l0,0.1
			c0.1,0,0.1,0,0.1-0.1C83.6,283.3,83.6,283.3,83.6,283.2z M85.3,276.4l0.1,0c0,0,0,0,0,0.1C85.4,276.4,85.4,276.4,85.3,276.4z
			 M84.1,282.8L84.1,282.8L84.1,282.8c0.1,0,0.1,0.1,0.1,0.1c0,0.1-0.1,0.1,0,0.1l0.2-0.1C84.3,282.8,84.2,282.8,84.1,282.8z
			 M85.5,276.4C85.5,276.4,85.5,276.3,85.5,276.4L85.5,276.4z M86.3,276.9c-0.1,0-0.1-0.1-0.1,0c-0.1,0-0.1-0.1-0.2,0
			c0,0,0.1,0.1,0.2,0.1L86.3,276.9C86.3,277,86.3,277,86.3,276.9C86.4,277,86.4,277,86.3,276.9z M80.8,307.1c-0.1,0-0.1-0.1-0.2-0.2
			l-0.1,0.1l0.3,0.2C80.9,307.2,80.9,307.1,80.8,307.1z M89.5,277.5c0,0,0-0.1,0-0.1c-0.1,0-0.1,0-0.1,0L89.5,277.5L89.5,277.5
			l-0.2,0C89.3,277.5,89.4,277.5,89.5,277.5z M90,277.5C90,277.5,90,277.5,90,277.5c0-0.1,0-0.2-0.1-0.2l0,0c-0.1,0-0.1,0.1,0,0.1
			L90,277.5L90,277.5L90,277.5z M90.1,291.8c0.1,0,0.2,0.1,0.2,0c0.1,0,0.2-0.1,0.2-0.1C90.5,291.7,90.3,291.7,90.1,291.8z
			 M91.8,301.6c-0.1-1.5-0.4-3-1.1-4.3c-0.1-0.2-0.2-0.4-0.2-0.6c0-0.2-0.2-0.4-0.4-0.4l-0.4,2.1c0,0.2-0.1,0.3-0.2,0.4
			c-0.1,0.1-0.1,0.2,0,0.4l-0.2,0.1l-1.8,8.3l0.3,0.1c0.4-0.2,0.8-0.3,1.3-0.4c0.4-0.1,0.8-0.2,1.2-0.4c0.2,0,0.3-0.1,0.6-0.2
			c0.2-0.1,0.3-0.2,0.4-0.3C91.7,304.7,91.9,303.2,91.8,301.6z M95.3,286.9l-0.1-0.2c0.2-0.6,0.2-1.2,0.2-1.7
			c-0.1-0.6-0.1-1.1-0.2-1.7c-0.1-0.6-0.2-1.2-0.5-1.8c-0.3-0.6-0.5-1.2-0.7-1.7c-0.1,0.3-0.3,0.5-0.4,0.8c-0.2,0.2-0.3,0.5-0.3,0.8
			l-2,9.9l0.1,0.1c-0.1,0-0.1,0.1-0.1,0.2c0.6,0,1.2,0,1.8-0.1c0.6-0.1,1.1-0.2,1.7-0.3L95.3,286.9z M95.2,277.1l0,0.2
			C95.3,277.3,95.3,277.2,95.2,277.1L95.2,277.1z M98.4,278l0.1-0.2C98.5,277.9,98.5,277.9,98.4,278z M99.3,278.4L99.3,278.4
			L99.3,278.4l-0.1-0.1C99.2,278.3,99.2,278.3,99.3,278.4z M102.7,283.1L102.7,283.1C102.6,283,102.6,283,102.7,283.1
			c0,0.1,0,0.1,0,0.2c0,0.1,0,0.1,0.1,0.1C102.7,283.3,102.7,283.1,102.7,283.1z"/>
		<path class="st5" d="M109.9,306.4l-1.7,8.4c-1.4,0.1-2.8,0.1-4.1,0.1c-1.4,0-2.7,0.1-4.1,0.3l-1.5-0.3l5.3-24.4l1.9-9.6
			c1.2,0,2.4,0,3.6-0.1s2.4-0.1,3.6-0.2c0.9,0.2,1.7,0.2,2.4,0l0.2,0.4c-0.5,2.2-0.9,4.4-1.3,6.5c-0.4,2.1-0.8,4.2-1.2,6.2
			c-0.4,2-0.9,4.1-1.3,6.1c-0.5,2-1,4-1.5,6.1l0.2,0.4L109.9,306.4z"/>
		<path class="st5" d="M132,314l-1.2,5.6c-0.9,0.4-1.8,0.6-2.7,0.7c-0.9,0.1-1.9,0.1-2.8,0c0.6-2.8,1.2-5.7,1.7-8.7
			c0.5-3,1-5.8,1.5-8.7c-0.3,0.1-0.5,0.3-0.8,0.6c-0.2,0.4-0.4,0.7-0.6,0.9c-0.5,0.9-1,1.7-1.7,2.4c-0.7,0.7-1.3,1.5-1.7,2.3
			c-0.1,0-0.2,0-0.3-0.1c0-0.1-0.1-0.2-0.1-0.3c0-0.3,0-0.4,0.2-0.4c0.2,0,0.4,0,0.5-0.1c-0.1-0.1-0.2-0.2-0.2-0.3
			c-0.1-0.1-0.2-0.1-0.3-0.1l-0.2,0.1c-0.3-1.1-0.5-2.1-0.7-3.3c-0.2-1.1-0.5-2.2-0.8-3.1c-0.2-0.1-0.3-0.2-0.4-0.3
			c-0.1-0.1-0.3-0.2-0.5-0.2c-0.1,0.2-0.2,0.4-0.3,0.5c-0.1,0.1-0.1,0.3,0.1,0.5l-2.8,14.8c-0.9,0.2-1.7,0.4-2.7,0.6
			c-0.9,0.2-1.8,0.2-2.7-0.1l-0.3-0.4l-0.2,0.1l0.2-1.2c0.1,0,0.1,0,0.1,0.1c0,0.1,0,0.1,0.2,0.1c0.2,0,0.4-0.2,0.6-0.3
			c-0.1-0.2-0.2-0.2-0.3-0.2c-0.1,0-0.3,0-0.4-0.1l1.9-9.1l-0.2-0.4c0.6-3,1.3-6,1.9-9.1c0.7-3.1,1.2-6.2,1.7-9.3
			c-0.4-0.8-0.6-1.5-0.6-2.4c-0.1-0.8-0.2-1.6-0.4-2.3c0.3,0,0.7,0,1.1,0c0.4,0,0.7-0.1,1.1-0.1c0.4,0,0.8-0.1,1.1-0.1
			c0.4,0,0.8,0.1,1.2,0.2c0.8-0.2,1.6-0.2,2.4-0.1c0.8,0.1,1.6,0.1,2.4,0c0.5,1.3,1,2.7,1.4,4c0.4,1.3,0.9,2.7,1.4,4l0.4-0.2
			c0-0.1,0.1-0.3,0.3-0.6c0.2-0.2,0.3-0.4,0.4-0.6c0.4-0.8,0.8-1.5,1.2-2.3c0.4-0.8,0.9-1.4,1.5-1.9c0.4,0.1,0.9,0.1,1.3,0.1
			c0.4,0,0.9-0.1,1.3-0.1c0.4,0,0.9,0,1.3,0c0.4,0,0.9,0.1,1.3,0.3l-1.8,8.7l0.2,0.3l-3.9,19.1L132,314z"/>
	</g>
	<g>
		<path class="st5" d="M190.1,278c0,0.3-0.1,0.7-0.2,1c-0.1,0.3-0.2,0.7-0.3,1.2c-0.2,0.1-0.3,0.3-0.3,0.5c0,0.2-0.1,0.4-0.2,0.5
			c-0.7,1.2-1.6,2.4-2.7,3.3c-1,1-2.2,1.9-3.4,2.7c-0.2,0.4-0.2,0.7,0,1c0.2,0.3,0.4,0.5,0.7,0.7c0.4,0.4,0.8,0.8,1.1,1.4
			s0.5,1.1,0.4,1.7c0.3,0.9,0.5,1.8,0.4,2.8c-0.1,1-0.3,1.9-0.8,2.7c-0.2,0.4-0.5,0.7-0.8,1c-0.3,0.3-0.6,0.5-1,0.8
			c-0.5,0.5-1.1,1-1.7,1.5c-0.6,0.5-1.3,1-2,1.4c-0.7,0.4-1.4,0.7-2.1,1c-0.7,0.2-1.5,0.4-2.2,0.4c-0.6,0.1-1.2,0.2-1.8,0.2
			c-0.6,0-1.3,0-1.9-0.1c-0.6,0-1.3-0.1-1.9-0.1c-0.6,0-1.2,0-1.9,0.1c-0.1,0-0.1-0.1-0.2-0.2c0-0.1-0.1-0.1-0.2-0.1
			c-0.1,0.1-0.2,0.1-0.4,0c-0.2-0.1-0.3-0.1-0.4,0c-0.2-0.2-0.4-0.3-0.7-0.3c-0.2,0-0.5,0-0.7-0.1l-1.4-0.4c0-0.4,0.1-0.8,0.2-1.2
			s0.2-0.8,0.1-1.2l0.2-0.1l3.2-12.6l0.2-0.4l3.2-11.9c0.3-1.1,0.6-2.2,0.9-3.2s0.6-2.1,0.9-3.1c0.1,0,0.1,0,0.1,0.1
			c0,0,0,0.1,0.1,0.1l0.3,0.1c0,0,0,0,0,0c0,0,0,0,0.1,0c0.4,0.2,0.8,0.3,1.2,0.2c0.2,0,0.3,0,0.4-0.1c0,0,0-0.1-0.1-0.1
			c0,0-0.1-0.1-0.1-0.1c0.1-0.1,0.2-0.1,0.5,0c0.1,0,0.2,0,0.3-0.1c0.1,0,0.2,0,0.2,0.1c0,0.1-0.2,0.1-0.4,0.1l-0.1,0.1
			c0.1,0,0.1,0,0.2,0.1s0.2,0,0.3,0c0.1,0,0.2,0,0.2,0s0-0.1,0-0.1c0,0,0,0,0-0.1c0,0,0.1-0.1,0.2-0.1c0.1,0,0.1,0.1,0.2,0.2
			c0.1,0.1,0.2,0.1,0.3,0c0-0.1-0.1-0.1-0.1-0.1c0-0.1,0.1-0.2,0.3-0.1c0.1,0,0.2,0,0.2,0.1c0,0.1,0.1,0.1,0.2,0.2
			c0.1,0.1,0.1,0.1,0.2,0.1c0.1,0,0.1,0,0.2-0.1c0-0.1-0.1-0.1-0.2,0c-0.1,0-0.1,0-0.1-0.2l0.6,0.1c-0.1,0-0.1,0.1-0.1,0.1
			c0.1,0.2,0.3,0.3,0.5,0.3c0.2,0,0.4,0,0.6,0.1c0-0.2,0-0.2,0.1-0.2c0.1,0,0.1,0,0.2-0.1l-0.5-0.1c-0.2,0-0.4-0.1-0.6,0
			c-0.1,0-0.1-0.1-0.1-0.1c-0.1-0.1,0-0.1,0.2-0.1c0.1,0.1,0.4,0.1,0.9,0.2c0.5,0.1,0.8,0.1,1.1,0c0.3,0,0.5,0,0.8,0.1
			c0.3,0,0.5,0,0.8,0l2.2,0.5c0,0.1-0.1,0.1,0,0.1c0,0,0,0,0,0.1l0.2-0.1c0.1,0.1,0.2,0.1,0.2,0.2c0.1,0,0.2,0,0.3,0
			c0.1,0,0.2,0,0.3,0c0.1,0,0.2,0.1,0.2,0.2c0.1-0.1,0.2-0.2,0.3-0.1c0.1,0.1,0.2,0.1,0.3,0.1l-0.3,0.1c0,0,0.1,0.1,0.3,0.1
			c0.1,0,0.1,0,0.1,0c0,0,0.1,0,0.1,0.1c0.1,0.1,0.1,0.1,0.1,0.1s0,0.1,0,0.1c0.1,0.1,0.2,0.2,0.3,0.2c0.1,0.1,0.1,0.1,0.2,0.1
			c0.1,0,0.1,0.1,0.2,0.2c0.2,0.2,0.3,0.2,0.3,0.2c0,0,0.1,0,0.1,0c0.1,0.1,0.1,0.1,0.1,0.1c0,0,0,0.1,0.1,0.1
			c0.2,0.1,0.4,0.2,0.6,0.2l0,0.3l0.2,0c0,0.1,0,0.1,0,0.1c0,0,0.1,0.1,0.1,0.1l0,0c0,0,0,0,0.1,0c0.1,0,0.1,0,0,0
			c0,0-0.1,0-0.1,0.1c0.2,0.1,0.3,0.3,0.4,0.5c0.1,0.2,0.2,0.3,0.4,0.5c0.1,0.1,0.2,0.2,0.2,0.3c0,0.1,0.1,0.2,0.3,0.2
			c-0.1,0.1-0.1,0.2-0.1,0.2c0,0.1,0.1,0.1,0.1,0.1c0.1,0,0.1,0.1,0.2,0.1c0.1,0,0.1,0.1,0.1,0.2l-0.1,0.1c-0.1,0.1-0.1,0.1,0,0.2
			c0.1,0,0.1,0.1,0.2,0.2c0.1,0.1,0.1,0.1,0.1,0.2c0,0.1,0,0.2,0,0.3l0.1,0c0.2,0.2,0.3,0.4,0.3,0.7c0,0.3,0,0.5,0.1,0.8
			c-0.2,0-0.2,0.1-0.2,0.2c0,0.1,0.1,0.2,0.1,0.3L190.1,278L190.1,278z M171.1,275.7C171.1,275.7,171,275.7,171.1,275.7l0,0.1
			c0.1,0,0.1,0,0.1-0.1C171.1,275.8,171.1,275.8,171.1,275.7z M173,269l0.1,0c0,0,0,0,0,0.1C173.1,269,173.1,269,173,269z
			 M171.6,275.4L171.6,275.4L171.6,275.4c0.1,0,0.1,0.1,0.1,0.1c0,0.1-0.1,0.1,0,0.1l0.2-0.1C171.8,275.3,171.7,275.3,171.6,275.4z
			 M173.2,268.9C173.2,268.9,173.2,268.9,173.2,268.9L173.2,268.9z M174,269.5c-0.1,0-0.1-0.1-0.1,0c-0.1,0-0.1-0.1-0.2,0
			c0,0,0.1,0.1,0.2,0.1L174,269.5C173.9,269.5,174,269.6,174,269.5C174,269.6,174.1,269.6,174,269.5z M167.5,299.5
			c-0.1,0-0.1-0.1-0.2-0.2l-0.1,0.1l0.3,0.2C167.6,299.5,167.6,299.5,167.5,299.5z M177.1,270.2c0,0,0-0.1,0-0.1c-0.1,0-0.1,0-0.1,0
			L177.1,270.2L177.1,270.2l-0.2-0.1C177,270.2,177.1,270.2,177.1,270.2z M177.7,270.2C177.7,270.2,177.7,270.2,177.7,270.2
			c0-0.1,0-0.2,0-0.2l0,0c-0.1,0-0.1,0.1,0,0.1L177.7,270.2L177.7,270.2L177.7,270.2z M177.3,284.5c0.1,0,0.2,0.1,0.2,0
			s0.2,0,0.2-0.1C177.7,284.4,177.5,284.4,177.3,284.5z M178.7,294.4c0-1.5-0.3-3-1-4.3c-0.1-0.2-0.2-0.4-0.2-0.6
			c0-0.2-0.2-0.4-0.4-0.4l-0.5,2.1c0,0.2-0.1,0.3-0.2,0.4c-0.1,0.1-0.1,0.2,0,0.4l-0.2,0.1l-2.1,8.2l0.3,0.1
			c0.4-0.2,0.9-0.3,1.3-0.4c0.4-0.1,0.9-0.2,1.3-0.4c0.2,0,0.3-0.1,0.6-0.1c0.2-0.1,0.4-0.2,0.4-0.3
			C178.5,297.4,178.7,295.9,178.7,294.4z M182.6,279.7l-0.1-0.2c0.2-0.6,0.3-1.1,0.2-1.7c-0.1-0.6-0.1-1.1-0.2-1.7
			c0-0.6-0.2-1.2-0.4-1.8c-0.2-0.6-0.5-1.2-0.7-1.7c-0.1,0.3-0.3,0.5-0.4,0.7c-0.2,0.2-0.3,0.5-0.3,0.8l-2.4,9.8l0.1,0.1
			c-0.1,0-0.1,0.1-0.1,0.2c0.6,0.1,1.2,0,1.8-0.1c0.6-0.1,1.2-0.2,1.7-0.2L182.6,279.7z M182.9,269.9l-0.1,0.2
			C182.9,270.2,183,270.1,182.9,269.9L182.9,269.9z M186.1,270.9l0.1-0.2C186.2,270.9,186.1,270.9,186.1,270.9z M186.9,271.4
			L186.9,271.4L186.9,271.4l-0.1-0.1C186.8,271.3,186.8,271.3,186.9,271.4z M190.1,276.2L190.1,276.2
			C190,276.1,190,276.1,190.1,276.2c0,0.1,0,0.1,0,0.2c-0.1,0.1,0,0.1,0.1,0.1C190.2,276.4,190.2,276.2,190.1,276.2z"/>
		<path class="st5" d="M203.8,307.3c-0.5,0.4-1,0.8-1.5,1.2c-0.5,0.4-1.1,0.7-1.7,1c-0.6,0.3-1.2,0.5-1.8,0.6l0.1,0.7
			c-0.7-0.1-1.5-0.2-2.4-0.2c-0.9-0.1-1.8-0.2-2.7-0.4c-0.9-0.2-1.7-0.5-2.6-0.9c-0.8-0.4-1.5-0.9-2.1-1.5c-0.3-0.4-0.7-0.8-1-1.2
			c-0.4-0.4-0.7-0.8-1-1.3c-0.3-0.5-0.6-0.9-0.7-1.4c-0.2-0.5-0.2-1-0.2-1.5l5.6-22.6c0.6-0.7,1.2-1.3,1.8-2.1c0.6-0.7,1.3-1.4,2-2
			c0.7-0.6,1.5-1.1,2.3-1.6c0.8-0.4,1.7-0.7,2.7-0.8c2.5,0.3,4.7,1.1,6.5,2.5c1.8,1.4,3.1,3.2,4,5.4l-6,25
			C204.7,306.5,204.2,306.9,203.8,307.3z M200,296.4c0.2-0.7,0.4-1.4,0.4-2.1c0.1-0.7,0-1.5,0-2.3c-0.1-0.8-0.1-1.5-0.2-2.1
			c-0.2-0.3-0.3-0.7-0.4-1.1c-0.1-0.4-0.2-0.8-0.4-1.2c-0.1-0.4-0.3-0.7-0.6-1s-0.6-0.5-1.1-0.6c-0.3,0.4-0.6,0.8-0.9,1.3
			s-0.4,1.1-0.6,1.6c-0.1,0.6-0.2,1.1-0.3,1.7c0,0.6-0.1,1.1,0,1.6c0.2,0.5,0.3,1.1,0.4,1.7c0.1,0.6,0.3,1.2,0.5,1.8
			c0.2,0.6,0.4,1.1,0.8,1.5s0.7,0.7,1.2,0.8C199.5,297.6,199.8,297,200,296.4z"/>
		<path class="st5" d="M227.3,310.2l-1.3,5.6c-0.9,0.4-1.8,0.6-2.8,0.6c-0.9,0-1.9,0-2.8-0.1c0.7-2.8,1.4-5.7,2-8.6
			c0.6-2.9,1.2-5.8,1.8-8.6c-0.3,0.1-0.6,0.3-0.8,0.6c-0.2,0.4-0.5,0.7-0.7,0.9c-0.5,0.9-1.1,1.6-1.8,2.3c-0.7,0.7-1.3,1.5-1.8,2.3
			c-0.1,0-0.2,0-0.3-0.1c0-0.1-0.1-0.2-0.1-0.3c0-0.3,0.1-0.4,0.2-0.4c0.2,0,0.4,0,0.5-0.1c-0.1-0.1-0.2-0.2-0.2-0.3
			c-0.1-0.1-0.2-0.1-0.3-0.1l-0.2,0.1c-0.2-1.1-0.5-2.2-0.6-3.3c-0.2-1.1-0.4-2.2-0.7-3.1c-0.2-0.1-0.3-0.2-0.4-0.4
			c-0.1-0.1-0.3-0.2-0.5-0.2c-0.1,0.2-0.2,0.4-0.3,0.5c-0.1,0.1-0.1,0.3,0.1,0.5l-3.2,14.7c-0.9,0.2-1.7,0.3-2.7,0.5
			c-0.9,0.2-1.8,0.1-2.7-0.2l-0.2-0.4l-0.2,0.1l0.3-1.2c0.1,0,0.1,0,0,0.1c0,0.1,0,0.1,0.2,0.1c0.2,0,0.4-0.2,0.6-0.3
			c-0.1-0.2-0.2-0.2-0.3-0.2c-0.1,0-0.3,0-0.4-0.1l2.2-9l-0.2-0.4c0.7-3,1.5-6,2.2-9.1c0.8-3.1,1.4-6.2,2-9.3
			c-0.3-0.8-0.5-1.6-0.6-2.4c0-0.8-0.1-1.6-0.3-2.4c0.3,0,0.7,0.1,1.1,0c0.4,0,0.7,0,1.1-0.1c0.4,0,0.8,0,1.1,0
			c0.4,0,0.8,0.1,1.2,0.2c0.8-0.2,1.6-0.2,2.4,0c0.8,0.1,1.6,0.2,2.4,0.1c0.5,1.3,0.9,2.7,1.3,4.1c0.3,1.4,0.8,2.7,1.3,4.1l0.4-0.2
			c0-0.1,0.1-0.3,0.3-0.6c0.2-0.2,0.3-0.4,0.4-0.6c0.4-0.7,0.9-1.5,1.3-2.3c0.4-0.8,1-1.4,1.6-1.9c0.4,0.1,0.9,0.1,1.3,0.1
			c0.4,0,0.9,0,1.3-0.1c0.4,0,0.9,0,1.3,0c0.4,0,0.9,0.2,1.3,0.4l-2.1,8.6l0.2,0.3l-4.5,18.9L227.3,310.2z"/>
	</g>
	<g>
		<path class="st5" d="M269.1,323.3c-0.1,0.3-0.1,0.7-0.2,1c-0.1,0.3-0.2,0.7-0.3,1.2c-0.2,0.1-0.3,0.3-0.3,0.5
			c0,0.2-0.1,0.4-0.2,0.5c-0.7,1.2-1.7,2.3-2.7,3.3c-1.1,1-2.2,1.9-3.4,2.7c-0.2,0.4-0.2,0.7,0,1c0.2,0.3,0.4,0.6,0.7,0.7
			c0.4,0.4,0.8,0.8,1.1,1.4s0.5,1.1,0.4,1.7c0.3,0.9,0.4,1.8,0.4,2.8c-0.1,1-0.3,1.9-0.8,2.7c-0.2,0.4-0.5,0.7-0.8,1
			c-0.3,0.3-0.6,0.5-1,0.8c-0.5,0.5-1.1,1-1.8,1.5c-0.6,0.5-1.3,1-2,1.4c-0.7,0.4-1.4,0.7-2.1,1c-0.7,0.2-1.5,0.4-2.2,0.4
			c-0.6,0.1-1.2,0.2-1.8,0.2c-0.6,0-1.3,0-1.9-0.1c-0.6,0-1.3-0.1-1.9-0.1c-0.6,0-1.3,0-1.9,0.1c-0.1,0-0.1-0.1-0.1-0.2
			c0-0.1-0.1-0.1-0.2-0.1c-0.1,0.1-0.2,0.1-0.4,0c-0.2-0.1-0.3-0.1-0.4,0c-0.2-0.2-0.4-0.3-0.6-0.3c-0.2,0-0.5,0-0.7-0.1l-1.4-0.4
			c0-0.4,0.1-0.8,0.2-1.2c0.2-0.4,0.2-0.8,0.1-1.2l0.2-0.1l3.3-12.5l0.2-0.4l3.3-11.9c0.3-1.1,0.6-2.2,0.9-3.2
			c0.3-1,0.6-2.1,0.9-3.1c0.1,0,0.1,0,0.1,0.1c0,0,0,0.1,0.1,0.1l0.3,0.1c0,0,0,0,0,0c0,0,0,0,0.1,0c0.4,0.2,0.8,0.3,1.2,0.2
			c0.2,0,0.3,0,0.4-0.1c0,0,0-0.1-0.1-0.1c0,0-0.1-0.1-0.1-0.1c0.1-0.1,0.2-0.1,0.5,0c0.1,0,0.2,0,0.3-0.1c0.1,0,0.2,0,0.2,0.1
			c0,0.1-0.2,0.1-0.4,0.1l-0.1,0.1c0.1,0,0.1,0,0.2,0.1c0.1,0,0.2,0.1,0.3,0c0.1,0,0.2,0,0.2,0c0,0,0-0.1,0-0.1c0,0,0,0,0-0.1
			c0,0,0.1-0.1,0.2-0.1c0.1,0,0.1,0.1,0.2,0.2c0.1,0.1,0.2,0.1,0.3,0c0-0.1-0.1-0.1-0.1-0.1c0-0.1,0.1-0.2,0.3-0.1
			c0.1,0,0.2,0,0.2,0.1c0,0.1,0.1,0.1,0.2,0.2c0.1,0.1,0.1,0.1,0.2,0.1c0.1,0,0.1,0,0.2-0.1c0-0.1-0.1-0.1-0.2,0
			c-0.1,0-0.1,0-0.1-0.2l0.6,0.1c-0.1,0-0.1,0.1-0.1,0.1c0.1,0.2,0.3,0.3,0.5,0.3s0.4,0,0.6,0.1c0-0.2,0-0.2,0.1-0.2
			c0.1,0,0.1,0,0.2-0.1l-0.5-0.1c-0.2-0.1-0.4-0.1-0.6,0c-0.1,0-0.1-0.1-0.1-0.1c-0.1-0.1,0-0.1,0.2-0.1c0.1,0.1,0.4,0.1,0.9,0.2
			c0.5,0.1,0.8,0.1,1.1,0c0.3,0,0.5,0,0.8,0.1c0.3,0,0.5,0,0.8,0l2.2,0.6c0,0-0.1,0.1,0,0.1c0,0,0,0,0,0.1l0.2-0.1
			c0.1,0.1,0.2,0.1,0.2,0.2c0.1,0,0.2,0,0.3,0c0.1,0,0.2,0,0.3,0c0.1,0,0.2,0.1,0.2,0.2c0.1-0.1,0.2-0.2,0.3-0.1
			c0.1,0.1,0.2,0.1,0.3,0.1l-0.3,0.1c0,0,0.1,0.1,0.3,0.1c0.1,0,0.1,0,0.1,0c0,0,0.1,0,0.1,0.1c0.1,0.1,0.1,0.1,0.1,0.1
			c0,0,0,0.1,0,0.1c0.1,0.1,0.2,0.2,0.3,0.2c0.1,0.1,0.1,0.1,0.2,0.1c0.1,0,0.1,0.1,0.1,0.2c0.2,0.2,0.3,0.2,0.3,0.2
			c0,0,0.1,0,0.1,0c0.1,0.1,0.1,0.1,0.1,0.1c0,0,0,0.1,0.1,0.1c0.2,0.1,0.4,0.2,0.6,0.2l0,0.3l0.2,0c0,0.1,0,0.1,0,0.1
			c0,0,0.1,0.1,0.1,0.1l0,0c0,0,0,0,0.1,0c0.1,0,0.1,0,0,0c0,0-0.1,0-0.1,0.1c0.2,0.1,0.3,0.3,0.4,0.5c0.1,0.2,0.2,0.3,0.4,0.5
			c0.1,0.1,0.2,0.2,0.2,0.3c0,0.1,0.1,0.2,0.3,0.2c-0.1,0.1-0.1,0.2-0.1,0.2c0,0.1,0.1,0.1,0.1,0.1c0.1,0,0.1,0.1,0.2,0.1
			c0.1,0,0.1,0.1,0.1,0.2l-0.1,0.1c-0.1,0.1-0.1,0.1,0,0.2s0.1,0.1,0.1,0.2c0,0.1,0.1,0.1,0.1,0.2c0,0.1,0,0.2,0,0.3l0.1,0
			c0.2,0.2,0.3,0.4,0.3,0.7c0,0.3,0,0.5,0.1,0.8c-0.2,0-0.2,0.1-0.2,0.2c0,0.1,0.1,0.2,0.1,0.3L269.1,323.3L269.1,323.3z
			 M250.1,320.8C250,320.8,250,320.8,250.1,320.8l0,0.1c0.1,0,0.1,0,0.1-0.1C250.1,320.9,250.1,320.9,250.1,320.8z M252.1,314.1
			l0.1,0c0,0,0,0,0,0.1C252.2,314.1,252.2,314.1,252.1,314.1z M250.6,320.4L250.6,320.4L250.6,320.4c0.1,0,0.1,0.1,0.1,0.1
			c0,0.1-0.1,0.1,0,0.1l0.2-0.1C250.8,320.4,250.7,320.4,250.6,320.4z M252.3,314C252.2,314,252.3,314,252.3,314L252.3,314z
			 M253.1,314.6c-0.1-0.1-0.1-0.1-0.1,0c-0.1,0-0.1-0.1-0.2,0c0,0,0.1,0.1,0.2,0.1L253.1,314.6C253,314.7,253,314.7,253.1,314.6
			C253.1,314.7,253.1,314.7,253.1,314.6z M246.2,344.5c-0.1,0-0.1-0.1-0.2-0.2l-0.1,0.1l0.3,0.2
			C246.3,344.6,246.3,344.5,246.2,344.5z M256.2,315.3c0,0,0-0.1,0-0.1c-0.1,0-0.1,0-0.1,0L256.2,315.3L256.2,315.3l-0.2-0.1
			C256.1,315.3,256.1,315.3,256.2,315.3z M256.7,315.4C256.8,315.3,256.7,315.3,256.7,315.4c0-0.1,0-0.2,0-0.2l0,0
			c-0.1,0-0.1,0.1,0,0.1L256.7,315.4L256.7,315.4L256.7,315.4z M256.2,329.7c0.1,0.1,0.2,0.1,0.2,0c0.1,0,0.2,0,0.2-0.1
			C256.6,329.6,256.4,329.6,256.2,329.7z M257.4,339.5c0-1.5-0.3-3-0.9-4.3c-0.1-0.2-0.2-0.4-0.2-0.6c0-0.2-0.1-0.4-0.4-0.5l-0.5,2
			c0,0.2-0.1,0.3-0.2,0.4c-0.1,0.1-0.1,0.2,0,0.4l-0.2,0.1l-2.2,8.2l0.3,0.1c0.4-0.2,0.9-0.3,1.3-0.3c0.4-0.1,0.9-0.2,1.3-0.4
			c0.2,0,0.3-0.1,0.6-0.1c0.2-0.1,0.4-0.2,0.4-0.3C257.2,342.6,257.4,341.1,257.4,339.5z M261.6,325l-0.1-0.2
			c0.2-0.6,0.3-1.1,0.2-1.7c0-0.6-0.1-1.1-0.1-1.7c0-0.6-0.2-1.2-0.4-1.8c-0.2-0.6-0.5-1.2-0.6-1.7c-0.1,0.3-0.3,0.5-0.4,0.7
			c-0.2,0.2-0.3,0.5-0.4,0.8l-2.5,9.8l0.1,0.1c-0.1,0-0.1,0.1-0.1,0.2c0.6,0.1,1.2,0,1.8,0c0.6-0.1,1.2-0.2,1.7-0.2L261.6,325z
			 M262,315.2l-0.1,0.2C262,315.4,262,315.3,262,315.2L262,315.2z M265.1,316.2l0.1-0.2C265.2,316.1,265.2,316.2,265.1,316.2z
			 M265.9,316.7L265.9,316.7L265.9,316.7l-0.1-0.1C265.9,316.6,265.9,316.6,265.9,316.7z M269.1,321.5L269.1,321.5
			C269,321.4,269,321.4,269.1,321.5c0,0.1,0,0.1-0.1,0.2c-0.1,0.1,0,0.1,0.1,0.1C269.2,321.7,269.1,321.6,269.1,321.5z"/>
		<path class="st5" d="M279.2,356.1c-1.3-0.1-2.5-0.1-3.8,0c-0.2-0.1-0.2-0.3-0.2-0.5c0-0.2,0.1-0.3,0.1-0.5c0-0.2,0.1-0.3,0.1-0.5
			c0-0.2,0-0.3-0.2-0.5c0-0.3,0.1-0.6,0.2-0.9s0.2-0.6,0.2-0.8c0.1-0.3,0.1-0.5,0.1-0.8c0-0.2-0.1-0.4-0.3-0.6l-0.2,0.1l0.2,0.4
			l-4.7-0.8c-0.4,0.4-0.7,0.7-0.8,1.1s-0.4,0.8-0.7,1.2c-0.9-0.1-1.8-0.1-2.7-0.1c-0.9,0-1.8,0-2.8-0.1c1.3-3.3,2.8-6.6,4.3-9.9
			c1.6-3.3,3-6.6,4.3-10.1c0.4-1.1,0.9-2.2,1.5-3.3c0.5-1,1-2.1,1.3-3.3c0.4-0.5,0.7-1.1,0.9-1.8c0.2-0.7,0.5-1.3,0.9-1.8
			c-0.3-0.6-0.5-1.2-0.6-1.9c-0.1-0.7-0.2-1.3-0.4-2c0.4,0,0.8,0,1.2,0c0.4,0.1,0.8,0.1,1.2,0.2c0.4,0.1,0.8,0.1,1.2,0.1
			c0.4,0,0.8,0,1.2-0.1c0.4,0.2,0.8,0.2,1.2,0.2c0.4,0,0.8,0,1.1-0.1c0.4,0,0.7,0,1.1,0c0.4,0,0.8,0.1,1.1,0.4l0.1,1
			c-0.3,2.1-0.5,4.1-0.5,6.1s-0.2,4-0.5,6.1l0.2,0.4c0,0.6-0.1,1.1-0.2,1.7c-0.1,0.6-0.1,1.2,0,1.8c-0.1,0.4-0.2,0.7-0.2,0.9
			c0,0.2-0.3,0.3-0.7,0.3l-0.2,0.1c0,0.2,0,0.4,0.2,0.5c0.2,0.1,0.3,0.2,0.5,0.2c0.1,0,0.2-0.1,0.2-0.2c0-0.1,0-0.2,0.1-0.3
			c0.1,0.4,0.1,0.9,0.1,1.3c-0.1,0.4-0.1,0.9-0.2,1.3c-0.1,0.5-0.1,0.9-0.2,1.3c0,0.4,0,0.9,0.1,1.3c-0.3,1.1-0.4,2.1-0.4,3.1
			c0,1,0,2-0.2,3.1l0.2,0.5c-0.2,0.5-0.3,1-0.3,1.5c0,0.5,0,1,0,1.5c0,0.5,0,1,0,1.4c0,0.5-0.1,1-0.2,1.5
			C281.7,356.1,280.4,356.1,279.2,356.1z M271.4,352.6c-0.4-0.1-0.8-0.3-1-0.6c0.9-0.5,1.6-0.3,2.1,0.7
			C272.2,352.7,271.9,352.7,271.4,352.6z M275.9,345.7c0.1-0.6,0.2-1.1,0.3-1.6c0.1-0.5,0.2-1.1,0.2-1.6c0.1-0.6,0-1.1,0-1.6
			c-0.7,0.9-1.2,1.8-1.7,2.9c-0.5,1-1,2-1.7,2.9l2.9,0.7C275.8,346.8,275.8,346.3,275.9,345.7z M283.7,340.3c0-0.1,0-0.2,0-0.3
			c-0.1,0-0.1-0.1-0.2-0.1c-0.1,0-0.2,0-0.3,0s-0.2,0-0.3-0.1c-0.1,0.1-0.1,0.2-0.1,0.3c0,0.1,0.1,0.3,0.1,0.4
			c0.1,0.1,0.2,0.2,0.3,0.3c0.1,0.1,0.3,0.1,0.4,0L283.7,340.3z"/>
	</g>
	<g>
		<path class="st5" d="M320,341l5.1-22.5c1.5-6.8,4.8-7.4,9.7-5.4c4.9,2.1,6.8,4.9,3,10.7l-12.5,19.4L320,341z M313.8,347.6
			c1.3-3.1,4.8-4.4,7.7-3.2c3,1.3,4.5,4.6,3.2,7.7c-1.3,3.1-4.7,4.5-7.7,3.2C314,354.1,312.5,350.7,313.8,347.6z"/>
		<path class="st5" d="M341,349.8l5.1-22.5c1.5-6.8,4.8-7.4,9.7-5.4c4.9,2.1,6.8,4.9,3,10.7L346.3,352L341,349.8z M334.7,356.4
			c1.3-3.1,4.8-4.4,7.7-3.2c3,1.3,4.5,4.6,3.2,7.7c-1.3,3.1-4.7,4.5-7.7,3.2C335,362.9,333.4,359.5,334.7,356.4z"/>
		<path class="st5" d="M361.9,358.5l5.1-22.5c1.5-6.8,4.8-7.4,9.7-5.4c4.9,2.1,6.8,4.9,3,10.7l-12.5,19.4L361.9,358.5z M355.6,365.1
			c1.3-3.1,4.8-4.4,7.7-3.2c3,1.3,4.5,4.6,3.2,7.7c-1.3,3.1-4.7,4.5-7.7,3.2C355.9,371.6,354.3,368.2,355.6,365.1z"/>
	</g>
	<g>
		<path class="st5" d="M-299.4,310.1l6.7,22.1c2.1,6.7-0.5,8.8-5.8,9.5c-5.3,0.6-8.3-0.9-7.9-7.8l1.3-23.1L-299.4,310.1z
			 M-297.3,301.3c0.4,3.4-2,6.2-5.2,6.6c-3.3,0.4-6.2-1.8-6.6-5.2c-0.4-3.4,1.9-6.2,5.2-6.6C-300.7,295.8-297.7,297.9-297.3,301.3z"
			/>
		<path class="st5" d="M-321.9,312.9l6.7,22.1c2.1,6.7-0.5,8.8-5.8,9.5c-5.3,0.6-8.3-0.9-7.9-7.8l1.3-23.1L-321.9,312.9z
			 M-319.8,304c0.4,3.4-2,6.2-5.2,6.6c-3.3,0.4-6.2-1.8-6.6-5.2c-0.4-3.4,1.9-6.2,5.2-6.6C-323.2,298.5-320.2,300.7-319.8,304z"/>
		<path class="st5" d="M-344.4,315.6l6.7,22.1c2.1,6.7-0.5,8.8-5.8,9.5c-5.3,0.6-8.3-0.9-7.9-7.8l1.3-23.1L-344.4,315.6z
			 M-342.3,306.8c0.4,3.4-2,6.2-5.2,6.6c-3.3,0.4-6.2-1.8-6.6-5.2c-0.4-3.4,1.9-6.2,5.2-6.6C-345.7,301.2-342.7,303.4-342.3,306.8z"
			/>
	</g>
</g>
</svg>
