<?xml version="1.0" encoding="utf-8"?>
<!-- Generator: Adobe Illustrator 18.1.1, SVG Export Plug-In . SVG Version: 6.00 Build 0)  -->
<svg version="1.1" id="Layer_1" xmlns="http://www.w3.org/2000/svg" xmlns:xlink="http://www.w3.org/1999/xlink" x="0px" y="0px"
	 viewBox="0 0 569 220" enable-background="new 0 0 569 220" xml:space="preserve">
<g>
	<g>
		<rect x="44.9" y="31.9" fill="#676767" width="411" height="13.7"/>
		<rect x="6.2" y="25.7" fill="#C31812" width="429.7" height="2.9"/>
		<polygon fill="#55543C" points="47.3,89 24.7,66.3 484.1,66.3 435.9,89 		"/>
		<rect x="98.3" y="157.8" fill="#676767" width="337.6" height="62.2"/>
		<polygon fill="#333333" points="235.3,219 95.1,211.9 95,213.8 195.3,219 		"/>
		
			<rect x="94.8" y="171.6" transform="matrix(0.9985 5.432673e-02 -5.432673e-02 0.9985 9.7858 -14.5257)" fill="#333333" width="354.6" height="2.2"/>
		
			<rect x="94.8" y="181.7" transform="matrix(0.9985 5.432673e-02 -5.432673e-02 0.9985 10.3329 -14.5108)" fill="#333333" width="354.6" height="2.2"/>
		
			<rect x="94.8" y="191.8" transform="matrix(0.9985 5.432673e-02 -5.432673e-02 0.9985 10.88 -14.496)" fill="#333333" width="354.6" height="2.2"/>
		
			<rect x="94.8" y="201.9" transform="matrix(0.9985 5.432673e-02 -5.432673e-02 0.9985 11.4271 -14.4811)" fill="#333333" width="354.6" height="2.2"/>
		<polygon fill="#333333" points="227.7,157 187.7,157 449,172 449.2,169.4 		"/>
		<polygon fill="#333333" points="420.4,219 95.1,201.8 95,203.7 380.4,219 		"/>
		<rect x="98.3" y="136.9" fill="#2375A4" width="337.6" height="20.9"/>
		<rect x="98.3" y="136.9" fill="#BEC3C6" width="337.6" height="2.2"/>
		<rect x="98.3" y="155.6" fill="#B3B2B3" width="337.6" height="2.2"/>
		<rect x="98.3" y="119.8" fill="#7A7B7B" width="337.6" height="17.1"/>
		<rect x="47.3" y="88.6" fill="#4D4E4E" width="398.2" height="31.2"/>
		<rect x="131.6" y="66.1" fill="#A4AD9E" width="48.2" height="153.9"/>
		<rect x="131.6" y="210" fill="#161712" width="48.2" height="2.2"/>
		<rect x="131.6" y="199.6" fill="#161712" width="48.2" height="2.2"/>
		<rect x="131.6" y="189.1" fill="#161712" width="48.2" height="2.2"/>
		<rect x="131.6" y="178.7" fill="#161712" width="48.2" height="2.2"/>
		<rect x="131.6" y="168.2" fill="#161712" width="48.2" height="2.2"/>
		<rect x="131.6" y="157.8" fill="#161712" width="48.2" height="2.2"/>
		<rect x="131.6" y="147.4" fill="#161712" width="48.2" height="2.2"/>
		<rect x="131.6" y="136.9" fill="#161712" width="48.2" height="2.2"/>
		<rect x="131.6" y="126.5" fill="#161712" width="48.2" height="2.2"/>
		<rect x="435.9" y="66.1" fill="#A4AD9E" width="48.2" height="153.9"/>
		<rect x="435.9" y="210" fill="#161712" width="48.2" height="2.2"/>
		<rect x="435.9" y="199.6" fill="#161712" width="48.2" height="2.2"/>
		<rect x="435.9" y="189.1" fill="#161712" width="48.2" height="2.2"/>
		<rect x="435.9" y="178.7" fill="#161712" width="48.2" height="2.2"/>
		<rect x="435.9" y="168.2" fill="#161712" width="48.2" height="2.2"/>
		<rect x="435.9" y="157.8" fill="#161712" width="48.2" height="2.2"/>
		<rect x="435.9" y="147.4" fill="#161712" width="48.2" height="2.2"/>
		<rect x="435.9" y="136.9" fill="#161712" width="48.2" height="2.2"/>
		<rect x="435.9" y="126.5" fill="#161712" width="48.2" height="2.2"/>
		<rect x="50.2" y="119.8" fill="#A4AD9E" width="48.2" height="100.2"/>
		<rect x="50.2" y="210" fill="#161712" width="48.2" height="2.2"/>
		<rect x="50.2" y="199.6" fill="#161712" width="48.2" height="2.2"/>
		<rect x="50.2" y="189.1" fill="#161712" width="48.2" height="2.2"/>
		<rect x="50.2" y="178.7" fill="#161712" width="48.2" height="2.2"/>
		<rect x="50.2" y="168.2" fill="#161712" width="48.2" height="2.2"/>
		<rect x="50.2" y="157.8" fill="#161712" width="48.2" height="2.2"/>
		<rect x="50.2" y="147.4" fill="#161712" width="48.2" height="2.2"/>
		<rect x="50.2" y="136.9" fill="#161712" width="48.2" height="2.2"/>
		<rect x="50.2" y="126.5" fill="#161712" width="48.2" height="2.2"/>
		<rect x="230.8" y="119.8" fill="#A4AD9E" width="48.2" height="100.2"/>
		<rect x="230.8" y="210" fill="#161712" width="48.2" height="2.2"/>
		<rect x="230.8" y="199.6" fill="#161712" width="48.2" height="2.2"/>
		<rect x="230.8" y="189.1" fill="#161712" width="48.2" height="2.2"/>
		<rect x="230.8" y="178.7" fill="#161712" width="48.2" height="2.2"/>
		<rect x="230.8" y="168.2" fill="#161712" width="48.2" height="2.2"/>
		<rect x="230.8" y="157.8" fill="#161712" width="48.2" height="2.2"/>
		<rect x="230.8" y="147.4" fill="#161712" width="48.2" height="2.2"/>
		<rect x="230.8" y="136.9" fill="#161712" width="48.2" height="2.2"/>
		<rect x="230.8" y="126.5" fill="#161712" width="48.2" height="2.2"/>
		<rect x="350.3" y="119.8" fill="#A4AD9E" width="48.2" height="100.2"/>
		<rect x="350.3" y="210" fill="#161712" width="48.2" height="2.2"/>
		<rect x="350.3" y="199.6" fill="#161712" width="48.2" height="2.2"/>
		<rect x="350.3" y="189.1" fill="#161712" width="48.2" height="2.2"/>
		<rect x="350.3" y="178.7" fill="#161712" width="48.2" height="2.2"/>
		<rect x="350.3" y="168.2" fill="#161712" width="48.2" height="2.2"/>
		<rect x="350.3" y="157.8" fill="#161712" width="48.2" height="2.2"/>
		<rect x="350.3" y="147.4" fill="#161712" width="48.2" height="2.2"/>
		<rect x="350.3" y="136.9" fill="#161712" width="48.2" height="2.2"/>
		<rect x="350.3" y="126.5" fill="#161712" width="48.2" height="2.2"/>
		<rect x="112.8" y="138" fill="#BEC3C6" width="2.2" height="18.7"/>
		<rect x="187.6" y="138" fill="#BEC3C6" width="2.2" height="18.7"/>
		<rect x="207.8" y="138" fill="#BEC3C6" width="2.2" height="18.7"/>
		<rect x="226.6" y="138" fill="#B3B2B3" width="2.2" height="18.7"/>
		<rect x="284.8" y="138" fill="#BEC3C6" width="2.2" height="18.7"/>
		<rect x="304.6" y="138" fill="#BEC3C6" width="2.2" height="18.7"/>
		<rect x="324.3" y="138" fill="#BEC3C6" width="2.2" height="18.7"/>
		<rect x="344" y="138" fill="#B3B2B3" width="2.2" height="18.7"/>
		<rect x="403.9" y="138" fill="#BEC3C6" width="2.2" height="18.7"/>
		<rect x="423" y="138" fill="#BEC3C6" width="2.2" height="18.7"/>
		<rect x="98.3" y="119.8" opacity="0.1" width="6.6" height="100.2"/>
		<rect x="50.5" y="119.8" opacity="0.1" width="15.4" height="100.2"/>
		<rect x="231" y="119.8" opacity="0.1" width="15.4" height="100.2"/>
		<rect x="350.3" y="119.8" opacity="0.1" width="15.4" height="100.2"/>
		<rect x="131.6" y="66.1" opacity="0.1" width="15.4" height="153.9"/>
		<rect x="435.9" y="66.1" opacity="0.1" width="15.4" height="153.9"/>
		<rect x="50.2" y="119.8" opacity="0.1" width="81.4" height="6.5"/>
		<polygon opacity="0.1" points="31.2,72.6 25.1,66.1 484.1,66.1 484.1,72.6 		"/>
		<rect x="179.8" y="119.8" opacity="0.1" width="256.1" height="6.5"/>
		<rect x="125" y="119.8" opacity="0.1" width="6.6" height="100.2"/>
		<rect x="179.8" y="119.8" opacity="0.1" width="6.6" height="100.2"/>
		<rect x="224.4" y="119.8" opacity="0.1" width="6.6" height="100.2"/>
		<rect x="278.9" y="119.8" opacity="0.1" width="6.6" height="100.2"/>
		<rect x="342.9" y="119.8" opacity="0.1" width="6.6" height="100.2"/>
		<rect x="429.3" y="119.8" opacity="0.1" width="6.6" height="100.2"/>
		<rect x="398.5" y="119.8" opacity="0.1" width="6.6" height="100.2"/>
		<rect x="24.7" y="52.1" fill="#868C6E" width="459.4" height="14"/>
		<rect x="230.8" y="66.1" fill="#3A3A32" width="4.6" height="22.5"/>
		<rect x="205.5" y="66.1" fill="#3A3A32" width="4.6" height="22.5"/>
		<rect x="118.4" y="66.1" fill="#3A3A32" width="4.6" height="22.5"/>
		<rect x="92.7" y="66.1" fill="#3A3A32" width="4.6" height="22.5"/>
		<rect x="65.9" y="66.1" fill="#3A3A32" width="4.6" height="22.5"/>
		<rect x="252.1" y="66.1" fill="#3A3A32" width="4.6" height="22.5"/>
		<rect x="273.4" y="66.1" fill="#3A3A32" width="4.6" height="22.5"/>
		<rect x="294.7" y="66.1" fill="#3A3A32" width="4.6" height="22.5"/>
		<rect x="316" y="66.1" fill="#3A3A32" width="4.6" height="22.5"/>
		<rect x="337.4" y="66.1" fill="#3A3A32" width="4.6" height="22.5"/>
		<rect x="358.7" y="66.1" fill="#3A3A32" width="4.6" height="22.5"/>
		<rect x="380" y="66.1" fill="#3A3A32" width="4.6" height="22.5"/>
		<rect x="401.3" y="66.1" fill="#3A3A32" width="4.6" height="22.5"/>
		<rect x="422.6" y="66.1" fill="#3A3A32" width="4.6" height="22.5"/>
		<rect x="131.6" y="6.4" fill="#A4AD9E" width="48.2" height="45.7"/>
		<rect x="435.9" y="6.4" fill="#868A83" width="48.2" height="45.7"/>
		<path fill="#C31812" d="M52.8,15l17.6,24H131V15H52.8z M128,33H80V21h48V33z"/>
		<path fill="#C31812" d="M484,15v24h61.2l17.6-24H484z M487,21h49v12h-49V21z"/>
		<rect x="151" y="16" fill="#C31812" width="11.2" height="22.2"/>
		<rect x="455.9" y="16" fill="#C31812" width="11.2" height="22.2"/>
		<rect x="263" y="6.4" fill="#C31812" width="4.2" height="45.7"/>
		<rect x="336.4" y="6.4" fill="#C31812" width="4.2" height="45.7"/>
		<rect x="403.8" y="6.4" fill="#C31812" width="4.2" height="45.7"/>
		<polygon fill="#C31812" points="6,27.1 6,38.2 14.5,25.6 		"/>
	</g>
</g>
</svg>
