<?xml version="1.0" encoding="utf-8"?>
<!-- Generator: Adobe Illustrator 18.1.1, SVG Export Plug-In . SVG Version: 6.00 Build 0)  -->
<svg version="1.1" id="Layer_1" xmlns="http://www.w3.org/2000/svg" xmlns:xlink="http://www.w3.org/1999/xlink" x="0px" y="0px"
	 viewBox="0 0 67 462" enable-background="new 0 0 67 462" xml:space="preserve">
<g>
	<ellipse fill="#333333" cx="32.6" cy="25.2" rx="20" ry="14.4"/>
	<polygon fill="#333333" points="18.9,441.4 12.2,452.3 50.7,450 44.7,439.6 	"/>
	<path fill="#4D4E4E" d="M49.6,442.6h-34h0c4.6-7.9,7.3-25.4,7.7-34.5c0.5-0.6-0.3-11.9-0.2-17.6v-10.1l4.3-299.4h10.5l4.3,299.8v0
		c0,25.2,3,50.5,7.4,61.1L49.6,442.6z"/>
	<path fill="#4D4E4E" d="M41,81H24.2c-1.4,0-2.6-1.2-2.6-2.6v-6.2h22v6.2C43.6,79.8,42.4,81,41,81z"/>
	<rect x="7.1" y="81.5" fill="#333333" width="50.9" height="2.1"/>
	<rect x="21.2" y="351.4" fill="#333333" width="22.8" height="3.7"/>
	<path fill="#4D4E4E" d="M52.8,449H30v13h30v-9.3C60,450.3,56.6,449,52.8,449z"/>
	<path fill="#333333" d="M13.5,449c-3.8,0-6.5,1.3-6.5,3.7v9.3h23v-13H13.5z"/>
	<path fill="#333333" d="M37.7,71.6H27c-1.8,0-3.2-1.4-3.2-3.2V67h17.1v1.4C40.9,70.2,39.5,71.6,37.7,71.6z"/>
	<polygon fill="#FCEEE4" points="52.9,26.5 42.8,70.7 22.6,69.9 12.6,27.3 	"/>
	<path fill="#4D4E4E" d="M10.8,83.8L10.5,84C10.6,84,10.7,83.9,10.8,83.8z"/>
	<path fill="#4D4E4E" d="M10.8,83.8l0.7-0.5c0,0-0.1,0-0.2,0C11.1,83.5,10.9,83.7,10.8,83.8z"/>
	<path opacity="0.1" d="M29.9,80c-1.2-0.3-0.8-6-0.6-9H22v7.2c0,1.6,2.2,3,3.8,3l10.6-0.1c0.6,0,1.6-0.3,2-0.6l0.3-0.1
		c0.2-0.1,0.4-0.3,0.5-0.5C38,80,31.2,80.3,29.9,80z"/>
	<rect x="21.5" y="68.8" fill="#333333" width="22.1" height="4"/>
	<rect x="9.4" y="25.7" fill="#333333" width="46.1" height="2"/>
	<polygon opacity="0.1" points="31.3,81.2 31.2,351.5 23.3,351.4 27.3,81.1 	"/>
	<rect x="21.2" y="362.6" fill="#333333" width="22.8" height="3.7"/>
	<rect x="22.1" y="271.4" fill="#333333" width="20.9" height="3.7"/>
	<rect x="21.6" y="279.2" fill="#333333" width="22" height="3.7"/>
	<rect x="24.6" y="90.8" fill="#333333" width="15.9" height="3.7"/>
	<rect x="24.2" y="98.7" fill="#333333" width="16.7" height="3.7"/>
	<path opacity="0.1" d="M23.2,354.6l-0.4,4.1c0.2,8.1,0.8,33.6,0.6,49.6c-0.2,14.6-4.8,28.2-7,33.9l14.5,0.6l0.1-88.2L23.2,354.6z"
		/>
	<circle fill="#333333" cx="58.5" cy="82.6" r="3.7"/>
	<circle fill="#333333" cx="8.1" cy="82.6" r="3.7"/>
	<rect x="31.4" y="4.5" fill="#333333" width="4.1" height="9"/>
	<rect x="21.9" y="23.9" fill="#333333" width="1.9" height="46"/>
	<rect x="41.3" y="24.3" fill="#333333" width="1.9" height="46"/>
</g>
</svg>
