<?xml version="1.0" encoding="utf-8"?>
<!-- Generator: Adobe Illustrator 18.1.1, SVG Export Plug-In . SVG Version: 6.00 Build 0)  -->
<svg version="1.1" id="Layer_1" xmlns="http://www.w3.org/2000/svg" xmlns:xlink="http://www.w3.org/1999/xlink" x="0px" y="0px"
	 viewBox="0 0 191 450.6" enable-background="new 0 0 191 450.6" xml:space="preserve">
<g>
	<path fill="#603A17" d="M9.6,284h53.9c2.2,0,3.9-1.8,3.9-3.9v-31.7c0-1.3-1-2.3-2.3-2.3H12.2c-1.3,0-2.3,1-2.3,2.3L9.6,284z"/>
	<path fill="#FFFFFF" d="M60.8,243.2l4.5,5.6v27.1c0,2-1.7,3.5-3.6,3.4h0C61.6,279.3,57.4,246.6,60.8,243.2z"/>
	<path fill="#8B6339" d="M5.2,279.5H63v-35.6c0-1.3-1-2.3-2.3-2.3H7.8c-1.3,0-2.3,1-2.3,2.3L5.2,279.5z"/>
	<polygon fill="#754D24" points="5.1,279.9 9.9,285 64.8,285 63,280.3 	"/>
	<g>
		<path fill="#754D24" d="M56.4,276.7H11.8c-1.8,0-3.3-1.5-3.3-3.3v-25.2c0-1.8,1.5-3.3,3.3-3.3h44.6c1.8,0,3.3,1.5,3.3,3.3v25.2
			C59.7,275.2,58.2,276.7,56.4,276.7z M11.8,245.4c-1.5,0-2.7,1.2-2.7,2.8v25.2c0,1.5,1.2,2.8,2.7,2.8h44.6c1.5,0,2.7-1.2,2.7-2.8
			v-25.2c0-1.5-1.2-2.8-2.7-2.8H11.8z"/>
	</g>
</g>
<path fill="#D89F79" d="M184.2,258.4c7,27.1-4.9,28.9-9.2,28.1c-4.3-0.8-2.9-16.1-2.9-16.1s0,6.5-3.3,5.8c-3.3-0.7-3.7-8.2-3.7-8.2
	s-1.6-12.4,6.8-14S184.2,258.4,184.2,258.4z"/>
<path fill="#321B0F" d="M69.2,437.9h9.5c0,0,3.7,12-8.7,12.7H54c0,0-3.5-7.6,6-8.1C60,442.5,68.3,441.1,69.2,437.9z"/>
<path fill="#321B0F" d="M135.7,437.9h-9.5c0,0-3.7,12,8.7,12.7h16.1c0,0,3.5-7.6-6-8.1C144.9,442.5,136.6,441.1,135.7,437.9z"/>
<polygon fill="#3D5081" points="71.8,233.1 68,439.3 82.5,439.3 109,268.2 120.6,437.9 138.5,437.9 142.2,232.1 "/>
<path fill="#283D51" d="M45,112c0,0,52-37.2,121.7,0c0,0-25.9,70.4-22.8,152.7c-0.6-2.2-74.6,1.5-74.6,0C72.3,177.5,45,112,45,112z"
	/>
<path fill="#D89F79" d="M27.8,259.1c-7,27.1,7.3,26.3,11.6,25.5s0.6-13.5,0.6-13.5s1.9,6.3,5.2,5.7c3.3-0.7,1.8-8.1,1.8-8.1
	s1.6-12.4-6.8-14C31.6,253,27.8,259.1,27.8,259.1z"/>
<path fill="#283D51" d="M45,112L27.8,258.9h17.8c0,0,9.1-74.6,14.2-102.1C64.1,133.8,45,112,45,112z"/>
<path fill="#283D51" d="M166.7,112l17.7,146.9h-17.8c0,0-9.1-74.6-14.2-102.1C148.1,133.8,166.7,112,166.7,112z"/>
<path fill="#D89F79" d="M130.2,20.9v41.7c0,4.9-3.6,9-8.5,9.7h0v27.6c0,0-12.6,8.7-16.1,13.1c-3.6-3.1-10.2-7.5-16.8-13.1V61.7
	c0,0-7.1-1.4-7.1-9.5s8.1-4.2,8.1-4.2l10-37L130.2,20.9z"/>
<path fill="#D3D4C2" d="M89.9,47.9l1,3h2.9c0,0,7.1-1.8,4.9-27.5C98.4,20,85,25.7,85,25.7v21.4C85,47.1,88.7,47.3,89.9,47.9z"/>
<polygon fill="#D3D4C2" points="113.8,54 107.7,58 127.8,58 123.3,54 "/>
<path fill="#D3D4C2" d="M90.9,51c0,0-7.3-1-8.9-12.7s3-12.6,3-12.6L90.9,51z"/>
<path fill="#D3D4C2" d="M98.7,23.5c0,0,15.6-12,31.8,0.3c0,0,0-20.1-26.3-18.4S81.7,34.5,81.7,34.5L98.7,23.5z"/>
<path fill="#B3B2B3" d="M125.7,20.9c1.7,0.7,1.7,0.7,2.8,1.7c0,0-3.2-9.5-11-11.9C117.5,10.7,124.4,15.7,125.7,20.9z"/>
<path fill="#B3B2B3" d="M119.8,18.9c0,0-1.7-7.6-13.2-10.6c0,0,9.7,5.2,10.4,10.2L119.8,18.9z"/>
<path fill="#B3B2B3" d="M112,18.5c0,0-3.2-7.8-15.6-8.2c0,0,10.4,2.6,13.4,8.6L112,18.5z"/>
<path fill="#B3B2B3" d="M97.5,45.8c0,0-9.1,0-12.8-7c0,0,5.5,5,13.4,5.4L97.5,45.8z"/>
<path fill="#B3B2B3" d="M84.4,28.9c0,0,5.1,9.7,14.5,10.4l0.3-1.8C99.2,37.4,94,37.5,84.4,28.9z"/>
<path fill="#D3D4C2" d="M129.7,19.7c0,0,7.1,9.9,0.4,30.3L129.7,19.7z"/>
<path fill="#B3B2B3" d="M99,32.1c0,0-12-2.3-12.8-12.4c0,0,4.8,8.5,12.8,10.8C99,30.5,99.4,31.4,99,32.1z"/>
<path fill="#E5E5E4" d="M96.9,109.5c0,0,3.1,8.4,8.8,11c0,0,8.2-5.9,8.2-12l-3.6-0.4l-4.7,4.6l-6-4.6L96.9,109.5z"/>
<path fill="#FFFFFF" d="M121,97.2l-12.5,8.2l-3,7.3l5.1-3.8l7.6,6.1c0,0,17.7-13.7,2.7-20.4V97.2z"/>
<path fill="#FFFFFF" d="M88.8,97.3l13.3,8.1l3.4,7.3l-5.6-3.8l-7.5,6.1c0,0-19.4-13.5-3.8-20.2L88.8,97.3z"/>
</svg>
