<?xml version="1.0" encoding="utf-8"?>
<!-- Generator: Adobe Illustrator 18.1.1, SVG Export Plug-In . SVG Version: 6.00 Build 0)  -->
<svg version="1.1" id="Layer_1" xmlns="http://www.w3.org/2000/svg" xmlns:xlink="http://www.w3.org/1999/xlink" x="0px" y="0px"
	 viewBox="0 0 303.3 501.4" enable-background="new 0 0 303.3 501.4" xml:space="preserve">
<g>
	<polygon fill="#7C5D45" points="69.1,254.4 64.7,474.5 81.2,474.5 111.6,294.2 124.9,474.5 145.4,474.5 149.6,253.2 	"/>
	<path fill="#F4B682" d="M7.3,292.6c-8.3,31.8,5.8,34,10.8,33.1c5.1-0.9,3.4-18.9,3.4-18.9s0,7.6,3.9,6.8s4.3-9.6,4.3-9.6
		s1.9-14.6-8-16.5S7.3,292.6,7.3,292.6z"/>
	<path fill="#BE1E2D" d="M29.9,154.4"/>
	<path fill="#896A4E" d="M38.4,104.6c0,0,54.2-22.1,138.7,0l-25.5,148.6c0,0-31.9,2.6-85.3,0L38.4,104.6z"/>
	<polygon fill="#D1D3D4" points="79.6,474.5 77,487 66.1,487 66.1,474.5 	"/>
	<polygon fill="#D1D3D4" points="128.6,474.5 131.3,487 142.2,487 142.2,474.5 	"/>
	<polygon fill="#896A4E" points="66.1,258 57.9,322.7 163.1,322.7 152.2,258 	"/>
	<path fill="#231F20" d="M118.8,391.7h28.2l-1.5,95.3c0,0-0.7,3.6,4.1,4.5c4.8,0.9,12.9,0.6,10,9.9h-20.4c0,0-12.2,0.8-14.3-26.9
		L118.8,391.7z"/>
	<path fill="#231F20" d="M95.2,391.7H64.7l-2,95.3c0,0,0.7,3.6-4.1,4.5s-12.9,0.6-10,9.9H69c0,0,12.2,0.8,14.3-26.9L95.2,391.7z"/>
	<ellipse fill="#AD8461" cx="108.6" cy="225.4" rx="3.7" ry="3.7"/>
	<ellipse fill="#AD8461" cx="108.6" cy="197.1" rx="3.7" ry="3.7"/>
	<ellipse fill="#AD8461" cx="108.6" cy="164.6" rx="3.7" ry="3.7"/>
	<path fill="#7C5D45" d="M107.3,149.7l36.2-22.9l-7.1-10.6l21.3-16.8c0,0-3.8-16.1-50.5-15.2"/>
	<path fill="#7C5D45" d="M108.1,150.7l-36.2-22.9l7.1-10.6l-21.3-16.8c0,0,3.8-16.1,50.5-15.2"/>
	<path fill="#FFFFFF" d="M88.5,103l19.6,47.7l18-47.7C126.1,103,87.4,100.3,88.5,103z"/>
	<path fill="#F4B682" d="M135.8,23.5v58.6h-9.7V103c0,0-10.9,21.3-37.6,0V59.7c0,0-8.1-1.6-8.1-10.8s9.3-4.8,9.3-4.8V23.5H135.8z"/>
	<path fill="#231F20" d="M116.2,116.2c0,3.9-3.2,7.1-7.1,7.1h-0.9c-3.9,0-7.1-3.2-7.1-7.1l0,0c0-3.9,3.2-7.1,7.1-7.1h0.9
		C113,109.1,116.2,112.3,116.2,116.2L116.2,116.2z"/>
	<polyline fill="#231F20" points="103.3,120.8 101,133.4 108.1,155.5 115.4,131.5 112.3,120.8 	"/>
	<polygon fill="#896A4E" points="38.4,104.6 9.1,287.1 27.4,291.2 57.9,174.6 	"/>
	<polygon fill="#231F20" points="89.7,44 91.2,47.1 99.7,23.5 86.1,23.5 86.1,43 	"/>
	<polygon fill="#3C2415" points="63.8,240.2 66.3,254.4 64.4,271.5 154.7,273 151.8,254.4 153.9,239.9 	"/>
	<rect x="114" y="56.3" fill="#231F20" width="12.1" height="7.5"/>
	<polyline fill="#3C2415" points="47.2,101.8 140.3,240 148.1,240 52.5,100.4 	"/>
	<path fill="#231F20" d="M99.7,23.5c0,0,11.9,6.3,40,4.6c0,0,0.2-32.2-39-17.2c0,0-14.6,0.2-14.6,13.6"/>
	<path fill="#F4B682" d="M275.4,53.8c37.1-17.2,28.2-32.2,23.3-36.3c-4.9-4.1-20.9,11.6-20.9,11.6s7.3-6,3.5-9
		c-3.8-3.1-12.6,3.5-12.6,3.5s-15.5,9.6-9.6,20.6S275.4,53.8,275.4,53.8z"/>
	<path fill="#896A4E" d="M257.6,37.8l-83.4,66.1l-4.9,45.8L272,53.6C272,53.6,258.4,46.2,257.6,37.8z"/>
	<polygon fill="#BE1E2D" points="187.1,93.8 200.2,120.8 216.1,106 202.7,81.4 	"/>
	<rect x="97.6" y="239.9" fill="#9B8579" width="32.5" height="33.1"/>
	<rect x="101" y="243.2" fill="#3C2415" width="26.4" height="26.5"/>
</g>
</svg>
