<?xml version="1.0" encoding="utf-8"?>
<!-- Generator: Adobe Illustrator 18.1.1, SVG Export Plug-In . SVG Version: 6.00 Build 0)  -->
<svg version="1.1" id="Layer_1" xmlns="http://www.w3.org/2000/svg" xmlns:xlink="http://www.w3.org/1999/xlink" x="0px" y="0px"
	 viewBox="0 0 417 507.8" enable-background="new 0 0 417 507.8" xml:space="preserve">
<g>
	<path fill="#414042" d="M227.2,84.7c0,0-7,7-9.9,0s-13.6-17.3-34.6-21.8s-42.9-2.9-49.1,4.5c0,0-50.3,13.2-56.9,12.8
		s-63.9,20.2-63.9,96.9c0,0-6.6,66.8,21.4,96.5c28,29.7,32.6,14.8,34.6,5.4c2.1-9.5-16.5-6.6-16.5-23.5c0,0,16.1,12.4,19.8,3.3
		c3.7-9.1-8.7-10.3-13.6-12.4s-21.8-9.1-14.8-21.8s19-8.7,23.5-24.3s11.5-16.5,19-20.2c7.4-3.7,13.6-9.1,13.6-21
		c0,0,23.1,0.8,32.6-3.3c0,0-23.9,27.2-24.7,84.1c0,0-28,12.4-42.1,63.1c0,0-63.5,122-1.2,154.6c0,0-3.3,51.5,12.8,29.3
		c0,0,4.5,24.3,16.5,9.1c0,0,8.2,15.7,14.8,2.1c0,0,12,7.8,14.4-4.9s1.2-15.7,1.2-15.7s2.9,10.3,11.1,6.2s0-12.4-1.2-17.7
		c-1.2-5.4-1.6-10.3-0.4-14.4c1.2-4.1-1.2-7.4-4.5-16.5c-3.3-9.1-7-12.8-7-12.8s10.7-7,12.8-17.3c0,0,29.7,21.4,63.5,4.5
		c0,0-7,28.9,26.8,34.6c0,0,17.7,39.6,29.3,28.9c11.5-10.7-7.8-28-7.8-28s5.7-8.2,11.5,0.4s13.2,25.1,18.2,23.9
		c4.9-1.2,9.5-7.4,5.8-25.6c-3.7-18.1-15.3-28.9-15.3-28.9s28.9-15.3,33-40.8c4.1-25.6-15.3-38.3-15.3-38.3l9.1-5.8
		c0,0,13.2,26,47.8,22.3l-5.8,7.8c0,0,37.5,2.9,52.4-38.3c14.8-41.2,12.8-45.8,12.8-45.8s16.1-30.5,9.9-48.6
		c-6.2-18.1,0.4-21-10.3-28c-10.7-7-32.2-20.6-35.5-26.8c-3.3-6.2-16.9-39.6-16.9-39.6s6.6-14.4,10.7-32.6c0,0-1.6-17.7,0.4-22.7
		c2.1-4.9-0.4-21-9.9-27.2c0,0,2.9-6.6-7.4-15.3S312.5,5.2,302.6,8s-10.7,10.3-18.6,10.3s-22.7,4.1-31.7,16.5S230,71.5,227.2,84.7z"
		/>
	<path fill="#231F20" d="M310.1,58.5c-0.8-1.9-2.5-3.4-4.5-4c3.6-0.3,7.3,0.3,10.6,1.7c-0.1-0.8-0.3-1.6-0.8-2.2
		c1.1,0.3,2.2,0.7,3.2,1c0.2-0.3,0-0.8-0.3-0.9c2.3,0.4,4.5,1.6,6.2,3.2c0.9,0.9,1.8,2,3.1,2.1c0.3,0,0.6-0.4,0.4-0.5
		c1,0.4,1.2,1.8,1.9,2.6c1.1,1.2,3.4,0.7,4.4-0.7c1-1.3,1.2-3.1,1.3-4.8c1.4,3,0.1,6.6-1.3,9.7c1.1,0.3,2.3-0.4,2.7-1.4
		c0,0.6,0.1,1.1,0.1,1.7c1.6-1.9,2.7-4.2,3.2-6.6c0.8,2.6,0.5,5.5-0.7,7.9c1.7-0.7,3.6-0.8,5.5-0.8c0.7,0,1.4,0,2.1,0
		c1.2,0,2.3,0,3.5,0.3c1.8,0.5,3.3,1.9,4,3.6c-0.7-0.6-1.6-1.1-2.5-1.1c-0.9,0-1.9,0.5-2.2,1.4c3.3,0.3,6,3.6,5.7,6.9
		c-0.3-1.5-1.3-2.8-2.7-3.4c1.8,2.6,2.1,6.2,0.8,9.1c-1.6-1.8-3.6-3.7-6-3.4c-1.5,0.2-2.7,1.2-4.1,1.7c-2.3,0.8-4.9,0-7.2,0.6
		c-0.9,0.2-1.8,0.7-2.8,0.7c-2.4,0.1-4.2-2.2-5-4.5s-1-4.9-2.4-6.8c-1.4-1.9-3.7-2.9-5.8-3.7c-0.3-0.1-0.6-0.3-1-0.2
		c-0.4,0-0.7,0.3-1.1,0.6c-1.4,0.9-3.4,0.8-4.7-0.3c-0.3-0.2-0.7-0.4-1-0.6c-0.6-0.4-1.3-0.8-2-0.9c-1.5-0.2-2.9,0.8-4,1.8
		c0.5-1.2,1.5-2.2,2.8-2.7c-1.7-0.4-3.5-0.6-5.3-0.6c0.8-0.1,1.7-0.3,2.5-0.4c-4-1.8-9.1-0.5-11.9,2.9c2.6-3.2,6.5-5.3,10.6-5.7
		c0-0.6-0.2-1.1-0.5-1.6c0.7-0.6,1.7-0.8,2.6-0.7c-0.3-0.5,0.4-1,1-0.9C309,58.5,309.6,58.9,310.1,58.5z"/>
	<path fill="#58595B" d="M289.2,162.9c0,0-6.8-19.2-2.5-42.7c4.3-23.5,24.7-39.3,26.3-39.9c0,0-5.6-13.3,5.3-15.5
		c10.8-2.2,16.1,6.8,15.8,8.3c0,0,1.5-3.1,7.7-2.2s16.4,15.8,5.3,17c0,0,7.1,5.9,5,13c-2.2,7.1-15.2,31.8-16.4,40.5
		c-1.2,8.7-4.6,23.5-15.2,23.2C320.4,164.8,296,177.2,289.2,162.9z"/>
	<path fill="#231F20" d="M310.2,151.5c0,0-13,2.7-15.7-7.8c-2.7-10.5-0.6-28.4,6.2-38.8s15.7-18.5,33.4-14.2
		c17.7,4.3,10.9,17.9,6,26.5s-9.3,20.9-9.7,26.3c-0.4,5.4-0.8,12.4-7.4,11.7C316.4,154.6,320.9,152.8,310.2,151.5z"/>
	<path fill="#FFFFFF" d="M305.5,98.7l1.2,2.7l3.7-3.9c0,0-0.5,9,0,11.9c0,0,4.8-10.8,7.1-11.9c2.3-1.1,0.3-7,0-6.9
		C317.5,90.6,310.2,92.5,305.5,98.7z"/>
	<path fill="#FFFFFF" d="M319.5,90.1c0,0,0.9,4.8,2.6,5.6c1.7,0.8,1.5,2.3,6,0.9c4.5-1.4,9.6,4.3,11.1,7.1c0,0,0.6,0.8,2.2-0.8
		l-0.8,13.4c0,0,6.6-10.1,4.6-17.2C343.2,92,331.8,87.5,319.5,90.1z"/>
	<path fill="#231F20" d="M347.7,78.5c-1.6,0.8-3.4-1.1-5.2-0.6c-1.5,0.4-2,2.3-3.2,3.3c-0.9,0.7-2.1,0.9-3.3,1
		c-1.6,0.2-3.5,0.3-4.6-0.9c-0.6-0.6-0.7-1.5-1.1-2.2c-0.8-1.6-2.2-2.7-3.6-3.8c-2.4-1.8-4.8-3.6-7.3-5.3c3.1,0.4,6.1,1.7,8.7,3.5
		c-0.5-2-1.4-3.9-2.6-5.5c2.9,0.7,5.2,3.3,5.7,6.3c0.2,1.3,0.1,2.6,0.3,3.9s0.9,2.6,2.1,3.1c1,0.4,2.1,0,3-0.5
		c0.7-0.4,1.3-0.9,1.5-1.7c0.1-0.5,0-1.1,0-1.7c-0.1-1.5,0.6-3.1,1.7-4.1C343,74.1,345.7,76,347.7,78.5z"/>
	<path fill="#513138" d="M327.7,143.2c0.5-5.5,1.8-11,3.6-16.2c-2,3.3-4.1,6.5-6.3,9.7c-2.2,3.2-4.6,6.5-4.6,10.4
		c-1-7.8,0.5-15.8,4.3-22.7c-3.3,3.5-6.8,7.4-7.4,12.2c-0.1-7,1.5-13.9,4.5-20.2c1-2.1,2.2-4.1,3.4-6.1c1.3-2.3,2.7-4.5,4-6.8
		c-7.5,4.6-11.8,13-15.5,21c-0.4,0.8-0.7,1.6-0.7,2.5c0,0.6,0.3,1.2,0.4,1.8c0.2,1.2-0.2,2.4-0.4,3.6c-0.7,3.5-0.1,7.1,0.5,10.6
		c0.4,2.3,0.8,4.8,2.4,6.6c1.4,1.7,3.7,2.5,5.9,2.2c2.2-0.3,4.1-1.7,5.1-3.7C327.4,146.6,327.6,144.8,327.7,143.2z"/>
	<path fill="#684E55" d="M321.7,148.6c0,0-0.6-7.9-4.2-14.4c-3.6-6.5-9.1-15.3-14.1-13.6s-9,12.5-7.3,21.3c1.7,8.8,0.2,6.2,5.3,7.9
		C306.5,151.5,320.9,152.3,321.7,148.6z"/>
	<path fill="#FFFFFF" d="M327.9,152.8c1.6-4.4,1.2-9.5-1-13.6c-0.6,1.3-0.8,2.7-1.3,4c-0.5,1.3-1.3,2.6-2.6,3.1
		c-1,0.4-2.1,0.2-3.1,0.1c-3.2-0.3-6.5,0.4-9.3,2.1c-1.2,0.7-2.9,1.5-3.7,0.4c-0.2-0.3-0.3-0.6-0.4-1c-0.8-3.1-0.5-6.4,0.6-9.3
		c-2.9,1.5-5.3,3.8-7,6.5c-0.7,1.1-1.3,2.4-2.6,2.9c-0.2-1.6,0.1-3.3,0.8-4.7c0.4-0.8,1-1.6,1-2.5c0-0.9-0.5-1.7-1-2.5
		c-1.4-2.1-2.9-4.2-4.3-6.3c-1.6,4.3-1.4,9.3,0.8,13.3c2.2,4,6.4,7,11,7.4c3.8,0.3,7.7-0.9,11.3,0.4c1.5,0.5,2.8,1.5,4.2,2.1
		c1.4,0.6,3.2,1,4.6,0.2c1.1-0.6,1.8-1.9,2.1-3.2C328.3,150.9,327.5,154,327.9,152.8z"/>
	<path fill="#231F20" d="M292.9,102.4c3.7-6.8,8.7-12.8,14.7-17.6c-3.2,0.8-6.3,2.3-9.2,3.8c2.8-3.7,6.1-7,9.6-10
		c-4.4,1.9-8.4,4.4-12.1,7.4c2-4.1,5.2-7.6,9.2-9.9c-5.2,0.8-10.2,2.1-15.2,3.8c2.6-2.2,5.5-4,8.6-5.3c-10.1-3.5-22.1-1-29.9,6.3
		c3.9-3.7,9.8-3.9,15.2-3.9c-4,0.4-6.8,4-9.2,7.2c3-2.3,6.7-3.6,10.4-3.7c-2.5,1.1-4.7,3-6,5.4c2.5-1.6,5.6-2.3,8.6-1.9
		c-1.4,0.2-2.6,1.1-3.2,2.3c2.7-1.3,5.5-2.3,8.4-3.1c-4.6,3.7-9,8.4-9.5,14.2c2.1-4.3,5.9-7.7,10.4-9.3c-2.3,1.3-3.9,4-3.9,6.7
		c1.6-2,3.9-3.5,6.3-4.3c-2.3,1.3-3.6,3.7-4.6,6.1c-1.5,3.8-2.4,7.8-2.5,11.9c3.7-6.7,8-13.1,12.9-19.1"/>
	<path fill="#C2B59B" d="M310.7,61.5c0.6-0.5,1.2-1,2-1.2c0.7-0.2,1.5,0,2.2,0.2c0.4,0.1,0.7,0.2,1.1,0.2c-0.4,0.2-0.5,0.8-0.4,1.2
		s0.3,0.9,0.2,1.4c-0.1,0.5-0.5,0.9-1.1,1.1c-0.5,0.2-1,0.1-1.6,0c-1.3-0.2-2.6-0.7-3.7-1.5C309.8,62.5,310.2,62,310.7,61.5z"/>
	<path fill="#C2B59B" d="M349,75.6c-0.2-0.5-0.4-1.1-0.4-1.7c0-1,0.6-2.2,1.6-2.3c-1.3-0.7-3-0.7-4.2,0.1c-0.1,0.1-0.3,0.2-0.3,0.3
		c-0.1,0.3,0,0.6,0.2,0.8c0.2,0.2,0.5,0.3,0.8,0.5c0.4,0.3,0.7,0.9,1,1.3c0.3,0.4,0.8,0.8,1.3,0.7C349,74.8,348.9,76,349,75.6z"/>
	<path fill="#231F20" d="M260.8,66.4c0-2.2,0.2-4.4,0.6-6.5c-1-0.6-2.4,0.1-3.4,0.8c0.1,0.1,0.2,0.2,0.3,0.4c-0.4,0.7-0.9,1.4-1.6,2
		c-0.8,0.6-1.7,1.1-2.2,1.9c-0.1,0.3-0.2,0.6-0.1,0.8c0.1,0.2,0.3,0.4,0.4,0.6c0.7,0.8,1.1,1.7,1.3,2.7c0.1,0.6,0.1,1.2,0.4,1.7
		c0.3,0.5,0.9,1,1.4,0.8c0.4-0.1,0.6-0.5,0.8-0.9c0.6-1.1,1.2-2.2,1.8-3.3c0.2-0.4,0.5-0.8,0.5-1.3c0.1-0.6-0.2-1.2-0.3-1.9
		S260.2,66.6,260.8,66.4z"/>
	<path fill="#231F20" d="M217.8,101.8c4.9-6.9,10.1-14.1,17.9-17.4c-1.4-0.3-2.7-0.6-4.1-0.9c4.8-0.3,8.1-4.8,10.6-8.8
		c5.2-8.3,10.3-17.3,18.7-22.2c0.9-0.5,2.3-0.9,2.8,0c-0.1,1.7-0.3,3.4-0.4,5.1c2.6-4.4,7.2-7.7,12.2-8.7c-3.2-0.2-6.5,0.9-8.9,3.1
		c3.3-3.6,7.2-6.6,11.5-8.8c-3.5-0.1-7,0.4-10.3,1.5c3.1-2.2,6.4-4,9.9-5.5c-2.6-0.4-5.4-0.2-7.9,0.6c3.4-3.3,7.8-5.5,12.5-6.4
		c-2.8-0.4-5.7,0.3-8,1.8c5.2-4.8,13.8-5.6,19.8-1.7c-0.6-3.1-3.7-5.6-6.9-5.4c3.6,0.2,7.1,0.5,10.7,0.7c-1.2-1.8-2.6-3.4-4.3-4.7
		c1.4,0.9,2.9,1.7,4.3,2.6c-4.8-4.2-11.8-5.3-18.1-4.1s-11.9,4.7-16.8,8.8c4.2-2.2,9.1-3.1,13.8-2.7c-8.3,1.2-14.9,7.4-20.8,13.4
		c4.2-2.8,9.1-4.6,14.1-4.9c-8.7,2.9-16.4,8.6-21.9,15.9c4-2.5,8.3-4.8,12.6-6.8c-7.9,3.9-14.5,10.1-19,17.7c2.3-2,4.7-3.9,7-5.9
		c-3.7,5.3-7.4,10.7-11.1,16c-0.3,0.4-0.7,0.9-1.3,0.9c-0.5-0.1-0.6-1.1,0-1c-3.5,4.3-7.5,8.2-11.8,11.7c-1.3,1-2.7,2.1-4.4,2.2
		c-1.6,0.1-3.5-1-3.5-2.7c-5.3,1.8-10.5,3.6-15.8,5.4c3.6-0.4,7.2-0.1,10.6,1c-4,1.7-7.9,3.4-11.9,5.1c3.5,0,6.9-0.4,10.3-1.2
		c-6.3,6.6-14,12-22.4,15.7c5.3-1.2,10.6-2.4,15.9-3.6c-7,7.4-14.8,13.9-23.3,19.5c14.9-0.7,30.9-1.8,42.6-11
		c-4.6,7.6-13,11.7-21,15.5c9.5-2.1,18.5-6.1,26.4-11.7c-0.6,2.2-0.4,4.5,0.5,6.5c1.8-1.2,3.6-2.3,5.3-3.5c-1.7,4.6-0.6,10,2.7,13.6
		c-0.3-4,0.6-8.1,2.7-11.6c0.9,4.8,3.6,9.3,7.5,12.3c-3.3-3.6-2-9.3-0.4-14c1.5-4.6,3.1-9.2,4.6-13.8c-4.8,2.2-7.5,7.3-9.8,12.1
		c-2-4.7-1.2-10.4,2-14.3c-3.8,1.2-6.9,4.3-8.1,8.1c-1.6-4.8,1.7-9.6,4.8-13.6c-3.9,2.1-7.3,5.1-9.8,8.8c2.5-6.5,6.6-12.5,11.8-17.1
		c-7.9,3.8-15.1,9.2-20.9,15.8c5.5-8.5,12.5-16,20.5-22.2C233.3,91,225.1,96,217.8,101.8z"/>
	<path fill="#231F20" d="M290.3,165.5c0.2,0.4-0.6,0.3-0.9-0.1c-1.3-2.2-1.9-4.8-2.5-7.3c-3-13.4-4.3-27.3-3.8-41
		c-3.7,9.3-5.5,19.6-3.1,29.3c-2.8-6.9-4.3-14.2-4.4-21.6c-1.7,5.9-2.1,12.3-1.1,18.4c-2.5-5.1-3.8-10.7-3.8-16.4
		c-1.2,5.9-1.2,12-0.1,17.9c-1.4-3.1-2.2-6.6-2.3-10c-1,4.4-1.5,8.8-1.6,13.3c-1.7-2.9-1.6-6.5-1.5-9.8c-1.5,2.8-1.9,6.2-1,9.2
		c-3-8.3-6-17.3-3.5-25.7c-3.1,8.5-4.4,17.6-3.5,26.6c-2.7-7.8-4.1-16-4.2-24.3c-0.5,6.9-2,13.8-3.5,20.6c-0.1-0.8-0.5-1.6-1.2-2.1
		c-0.3,1.8-0.5,3.6-0.8,5.5c-1-1.5-2.2-2.9-3.3-4.3c-0.9,2.7,0.4,5.7,2.2,8c1.8,2.3,4,4.2,5.4,6.7c0.6,1,1,2.1,1.9,2.8
		c1,0.8,2.3,1,3.3,1.8c1.2,1,1.6,2.6,2.4,3.9c1,1.4,2.6,2.3,4,3.2c4.1,2.6,7.5,6.2,10,10.4c0.7,1.2,1.3,2.4,2.3,3.4
		c1.9,2,4.6,2.7,7.2,3.5c5.3,1.5,10.5,3.4,15.1,6.2c0.8,0.5,1.7,1,2.7,0.9c0.6-0.1,1.1-0.5,1.6-0.9c8.7-6.9,14.5-17.1,18.1-27.6
		c-6.2-1.1-11.9,3.9-18.2,4.1c-3.7,0.1-7.3-1.5-10.1-3.8c-2.8-2.4-5-5.5-6.7-8.8"/>
	<path fill="#231F20" d="M298.3,191.4c2.5,3.6,5,7.2,8.2,10.1c3.2,2.9,7.2,5.2,11.5,5.6c2.9,0.3,5.9-0.3,8.8-0.3s6.1,0.6,8.1,2.8
		c1.1,1.3,1.7,2.9,2.7,4.2c3.6,4.8,10.7,4.4,16.3,6.5c8.2,3.2,12.8,11.8,16.6,19.8c-2-8.2-5.9-16-11.4-22.4c2.8,1,5.2,2.8,7,5.2
		c-0.5-2.4-1.9-4.5-3.7-6.1c1.8-2.4,5.3-3,8.1-2.2c2.9,0.9,5.2,3,7.1,5.3c4.8,5.8,7.7,13,10.5,20c-3.1-12.7-9.8-25.3-21.3-31.6
		c1-2.6,3.6-4.5,6.3-4.6c-2.9-3.2-7.9-4.4-12-2.8c0.8-2.7,5.9-1.1,7.2-3.6c-6-1-12.1-1.9-18.1-2.9c3-0.5,5.7-2.3,7.4-4.8
		c0.4-0.6,0.8-1.3,0.8-2c0-1.4-1.4-2.3-2.6-3c-2.7-1.5-5.4-3.1-8.1-4.8c-1.2-0.8-2.5-1.6-3.3-2.7c-0.6-0.9-0.9-1.9-1.2-3
		c-1.3-4.3-2.6-8.6-3.9-12.9c4.2,5.1,9.8,9,16,11.2c-5.4-3.3-9.4-8.8-10.9-14.9c2.4,3.3,6,5.8,10,6.7c-3.7-3.1-7-6.6-9.8-10.5
		c3.4,3.1,7.4,5.5,11.6,7.3c-6.6-4.8-11.4-11.9-13.5-19.7c-7.4,7.7-10.8,18.3-14,28.5c-1,3.3-2.2,6.9-5.1,9
		c0.5-3.7,0.3-7.6-0.8-11.2c-0.4,8.2-6.8,14.7-12.7,20.3c2.4-4,2.2-9.4-0.5-13.1c-0.7,4.4-1.8,9.5-5.8,11.6c-1.9,1-4.3,1.3-5.3,3.1
		c-1.3,2.5,1.3,5.2,3.7,6.8"/>
	<path fill="#231F20" d="M157.1,117.5c-6.9,4.1-13.7,8.6-20.2,13.4c5.5-7.5,11.7-14.5,18.5-20.8c-5.1,3.9-10.3,7.8-15.4,11.7
		c-6.9,5.3-13.9,10.6-21.8,14.3c6.9-9.9,13.5-20,19.8-30.3c-13.8,12.8-31,21.8-49.3,25.8c0.4-2.4,0.8-4.9,1.2-7.3
		c-0.6,1.6-2.4,2.7-4.2,2.4c3.2-2.8,4.8-7.4,4-11.7c-0.8-4.2-4-7.9-8-9.4c-2.3-0.8-5.5-1.9-5.1-4.3c0.1-0.8,0.7-1.5,1.2-2.2
		c2.7-3.7,2.8-9.1,0-12.7c-2.6-3.3-7.2-4.5-11.4-3.9c-4.1,0.6-7.9,2.9-11.1,5.6c-6.1,5.2-10.7,11.9-15.2,18.6
		c-4.3,6.4-8.6,12.8-12.4,19.5c-12.8,22.4-20.1,50.1-10.3,74c1.3-14.1,7.1-27.8,16.2-38.7c-0.7,3.4,0.6,7.1,3.3,9.3
		c0.7-3.2,1.5-6.4,2.2-9.6c4.8,5.2,7.5,12.2,7.5,19.3c0,2.9-0.6,6-2.6,8.1c-3.1,3.2-8.5,3-11.8,5.9c-3.1,2.7-3.7,7.1-4.1,11.2
		c-0.8,7.7-1.5,15.9,1.6,23c1.5,3.4,3.9,6.8,3.3,10.4c-0.5,3.3-3.3,6.6-1.9,9.6c0.5,1.1,1.6,1.9,2.4,2.8c1.8,2,2.6,4.6,3.6,7.1
		c3.6,9.3,10,17.6,18,23.6c0.8-6.4-7.3-10.1-9.9-16.1c-2-4.6-0.3-9.9,1.5-14.6c3.1-0.3,6.2,1.2,8,3.8c1.5-5.3-3.8-10-8.6-12.6
		c-4.8-2.7-10.6-5.9-10.9-11.4c-0.2-5.2,4.6-9,6.5-13.9c0.4-0.9,0.6-1.9,1.3-2.6c2.2-2.6,6.5-0.4,9.8-1.1c3.8-0.8,5.7-5.1,6.9-8.8
		c1.1-3.4,2.3-6.9,2.7-10.5c0.2-1.7,0.2-3.5,1-5.1c0.6-1.2,1.6-2.2,2.6-3.1c3-2.6,6.5-4.5,10.3-5.8c-4-1.1-8.3-0.8-12.1,0.8
		c0.3-8,6.5-15.4,14.4-17.2c-3.6,0.1-7.2,0.3-10.8,0.4c3.8-3.7,7.6-7.5,11.4-11.2c1.6-1.6,3.5-3.3,5.8-3.1c3.2,0.2,4.8,3.9,5.3,7.1
		c1.1,6.8,0.5,13.8-1.9,20.3c4.1-3.8,8.4-8,9.4-13.6c0.5-3.2,0-7,2.2-9.4c2.1-2.2,5.8-2,8.7-1c2.9,1,5.7,2.6,8.7,2.8
		c2.6,0.1,5.1-0.8,7.6-1.7c3.9-1.5,7.9-3,11.8-4.5c0.1,6.3-3.9,11.8-7.4,17.1c-3.4,5.3-6.5,11.8-4.2,17.7
		c3.8-5.9,7.2-12.1,10.1-18.5c-1.7,13,0,26.3,4.9,38.5c-1.6-10.8-0.4-22,3.5-32.2c1.8,7.3,3.6,14.7,5.4,22c1.7-8.4,2.4-17,2.2-25.6
		c4.7,14.8,7.8,30.2,9.3,45.6c0.4-12.1,0.2-24.3-0.6-36.4c6.5,16.4,9,34.4,7.3,52c3.3-11.7,5.6-23.7,7.1-35.8
		c1-8.3,1.4-17.1-2.6-24.4c-3.6-6.5-10.5-11.4-11.4-18.8c0.8-0.4,1.5-0.8,2.3-1.2c-3.9-1.8-7.8-3.6-11.7-5.4
		c6-4.5,11.4-9.7,16.2-15.5c-6,0.3-12,1.4-17.7,3.3c5.6-5.7,11.2-11.3,16.8-17C163.2,114.1,159.9,115.8,157.1,117.5z"/>
	<path fill="#231F20" d="M203.3,194.3c9.8-5.7,20.7-9.4,32-10.8c3.3-0.4,6.8-0.7,9.7-2.4c0.3-0.2,0.7-0.5,0.8-0.9
		c0.2-0.8-0.7-1.4-1.4-1.8c-6.1-2.7-12.2-5.4-18.7-6.7s-13.5-1-19.4,2.1c-5.3,2.8-9.8,7.9-15.8,8.2c-2.1-1.9-2-5.5-0.4-7.9
		c1.5-2.4,4.1-4,6.5-5.5c3.4-2,6.8-4.1,10.1-6.1c6-3.6,12.9-7.4,19.6-5.5c3,0.8,6.1,2.7,8.9,1.5c-2.2-4.5-7.3-6.9-12.3-7.3
		c-5-0.4-9.9,0.9-14.7,2.3c-4.4,1.2-8.9,2.4-13.3,3.7c4.5-7.4,11.2-13.4,19-17.3c-5.3,1.6-10.5,3.2-15.8,4.9c-2,0.6-4.1,1.3-5.9,2.4
		c-2.1,1.3-3.7,3.1-5.3,4.8c-1.5,1.6-3.1,3.4-3.3,5.6c-0.2,2.2,1.7,4.7,3.8,4.2c-1.5,4.2-3,8.5-4.5,12.7c-0.4,1.2-0.9,2.5-0.7,3.8
		c0.2,1.7,1.6,3.1,2.8,4.3c2,2,4.2,4,7,4.2c2,0.1,3.8-0.7,5.8-1.1s4.3,0.1,5.1,1.9c-2.4,1.2-5.2,3.1-5,5.7c0.1,0.7,0.3,1.3,0.3,2
		c0,1.7-1.4,3-2.5,4.3c-3,3.8-2.6,9.8,0.8,13.2c4.2-0.1,8.5-0.6,12.6-1.7c2.1,3.1-3,7.2-1.5,10.6c0.5,1.2,1.7,1.9,2.8,2.5
		c2.8,1.6,5.7,3.3,8.5,4.9c0.9,0.5,1.9,1.1,2.3,2.1c0.8,2.1-1.8,5-0.1,6.5c1.1,1,3.2,0.4,4.1,1.5c0.3,0.4,0.4,0.8,0.5,1.2
		c0.5,2.2,1,4.4,1.5,6.6c2.7-1.1,5.4-2.3,8.1-3.4c-0.6,3.7-0.6,7.5,0.1,11.3c1.6-1.3,3.3-2.7,4.9-4c-0.1,4.9,0.3,9.9,1.3,14.7
		c0.3,1.5,1.8,3.5,3,2.4c-0.4-2-0.4-4.2,0-6.2c0,8.8,1.7,17.6,5,25.8c1.5-10.2,3-20.4,4.5-30.7c1.6,4.7,2.8,9.5,3.5,14.4
		c0.3-9.4,0.6-18.8,0.9-28.2c1.2,1.1,2.6,2.1,4,2.9c2.5-5.3,2.4-11.6,0-16.9c-0.8-1.6-1.7-3.6-0.6-4.9c0.5-0.6,1.4-0.9,2.1-1.2
		c2.7-1,5-3,6.4-5.4c-5.7,2.2-12,4.3-17.7,2.1c3.3-2.4,5.9-5.8,7.2-9.7c-5.6,0.4-11.1,2.4-15.7,5.6c-3.6,2.5-7.1,5.9-11.4,5.7
		c0.6-0.8,1.3-1.5,1.9-2.3c-2.9,0.6-5.8,1.2-8.6,1.9c-1.8,0.4-3.7,0.8-5.4,0c-1.7-0.8-2.6-3.2-1.3-4.5c-1.6-0.5-3.2-0.9-4.8-1.4
		c-0.6-1.8,1.6-3.3,3.3-4c9-3.6,18-7.3,27.5-9c-5.9-4.5-14.2-4-21.3-2c-7.1,2-14,5.3-21.4,5.7c-0.4,0-0.9,0-1.3-0.2
		c-0.7-0.4-0.8-1.4-0.8-2.3C201.2,196.7,197.4,197.7,203.3,194.3z"/>
	<path fill="#231F20" d="M357.6,338.5c11.9-6.2,16.4-21.2,16-34.5c-3.5,5.7-10.7,8.8-17.2,7.5c13.6-10,22.7-26.1,24.1-42.9
		c0.4-5.3-0.3-11.5-4.9-14.2c0,8.8-1.6,18-7,25c-2.4,3.1-5.5,5.7-8.6,8.2c-2.8,2.3-5.6,4.6-8.4,6.9c2.3-9.9,0.9-20.6-3.7-29.6
		c-0.5,6.1-3.8,12-8.8,15.6c5-15.6,2.3-33.5-7.1-47c1.7,7.9,3.3,16.1,2.4,24.1c-1,8.1-5,16.2-12.3,19.9c-0.8,0.4-1.8,0.8-2.7,0.7
		c-0.8-0.1-1.6-0.6-2.3-1.1c-3.5-2.5-7-4.9-10.5-7.4c1.1-5.6,9.4-7.7,10-13.3c0.2-1.6-0.4-3.3-0.9-4.8c-4.2-11.9-8.4-23.8-14.2-35
		c-2.8-5.6-6.3-11.2-11.9-14.1c1.6,7.1,3.2,14.3,2.8,21.6c-0.4,7.3-3.2,14.7-8.8,19.3c-0.5,0.4-1,0.8-1.7,0.7c-1-0.1-1.6-1.1-2-2.1
		c-1.1-2.7-2.2-5.4-3.4-8.1c0.2,2-0.2,4-1.2,5.8c-4.7-4.9-9.6-9.5-14.8-13.8c-0.5-0.4-1.1-0.9-1.7-0.9c-1.1-0.1-2,0.9-2.6,1.7
		c-4.1,5.2-8.4,11.6-6.7,18c1,3.7,3.8,6.7,4.5,10.4c0.4,2.3-0.1,4.5-0.4,6.8c-1.7,11.2-0.2,22.8,4.3,33.2
		c-0.7-6.3,0.3-12.8,2.8-18.7c0.7,10,2.7,20,5.9,29.5c0.6-1.6,1.3-3.2,1.9-4.7c1.3,9.3-1,19-6.3,26.7c8.7-3.3,15.5-11,17.6-20
		c-0.2,7.3-2.4,14.6-6.4,20.7c5-2.9,9.8-6.3,14.3-10c-1,2.4-1.9,4.8-2.9,7.3c7.4-0.1,12.4,7,18,11.8c11.6,10.2,28.3,11.6,43.7,11.4
		c-0.6,3.2-2.3,6.2-4.7,8.4c9.3,0.1,17.7-5.6,24-12.5c6.3-6.9,11-15,17.1-22C375.5,329.4,366.9,334.8,357.6,338.5z"/>
	<path fill="#231F20" d="M247.5,439.2c3.1-1.3,6.7-0.2,9.3,1.9c2.6,2.1,4.3,5.1,5.9,8c-2.7-10.5-8.3-20.4-15.9-28.1
		c11.5-4.5,22.6-10.7,31.3-19.6c8.7-8.9,14.8-20.6,15.3-33c-1.9,4.3-5.1,8-9.1,10.6c4.2-7.4,5.7-16.4,4.1-24.8
		c-2.1,5.3-4.1,10.5-6.2,15.8c3-10.5,3.1-21.9,0.3-32.5c-2,12.8-9.8,24.6-20.9,31.4c-7.4,4.5-16,6.9-22.7,12.3
		c-7.6,6.1-12.2,15.8-20.9,20.1c-0.3-5.4,0.2-10.9,1.6-16.2c0.2-0.9,0.5-1.9,1.3-2.5c1.1-0.9,2.6-0.7,4-1c3.9-0.7,6.4-4.7,7.6-8.5
		c1.3-3.8,2-8,4.8-10.9c3.3-3.5,8.9-4.4,11.4-8.5c1.2-1.8,1.5-4.1,1.9-6.2c1.3-8.1,2.5-16.2,3.8-24.3c-2.5,8.2-8.6,15.3-16.3,19
		c5.8-16.2,11.5-34.5,4.1-50.1c0,7,0,14-1.7,20.8s-5.4,13.3-11.4,16.9c-1.4,0.8-3.3,1.5-4.5,0.4c-1-0.9-0.8-2.4-0.6-3.7
		c1.1-7.3,2.7-14.6,2.6-22c0-7.4-1.9-15.1-6.8-20.6c-2,12.8-5.2,25.4-9.3,37.6c-1.2,3.6-2.6,7.3-5.4,9.9c-5,4.5-13,4.2-18.2,8.4
		c-7.3,5.8-7,18.3-15,22.9c-1.1,0.7-2.5,1.1-3.8,0.7c-2.1-0.8-2.5-3.5-2.6-5.8c-0.2-5.3-0.3-10.5-0.5-15.8c0.3,9-4.3,18-11.7,23.1
		c-2.5,1.8-5.4,3.1-7.6,5.2c-3.4,3.1-5.3,7.6-7,11.9c-1.9-7.6-3.9-15.1-5.8-22.7c0.1,3.9,0.3,7.7,0.4,11.6c0,1.4,0.1,2.8-0.5,4.1
		c-1.4,3.1-5.8,3.6-8.7,1.9c-2.9-1.7-4.6-4.8-6.1-7.8c-15.1-29.8-24.6-62-34-94c-7.9,36.2-4.7,74.7,9.1,109.2
		c-9.3-3.4-16.7-11.4-19.6-20.8c-0.6,12.2,3.4,24.5,11,34c-6.7-0.5-12-5.6-16.6-10.4c3.8,6.7,6.8,13.7,9.2,21
		c-4.5-0.9-8.4-4-10.4-8.1c1.5,4.3,3,8.7,4.4,13c-1.3,0.3-2.8,0.1-4-0.5c0.9,3.9,1.8,7.8,2.7,11.7c-2.3-0.3-4.6-0.6-6.8-0.9
		C62,434,64.4,444.8,69.8,454c3.4-1.6,6.4-4.1,8.5-7.1c-1.3,2.2-2.1,4.6-2.4,7.1c4.8-1.4,9.3-4.1,12.7-7.7c-2.1,1.5-3.2,4.1-3,6.6
		c4-1.4,7.5-4,9.9-7.4c-0.6,1.3-1.3,2.8-1.1,4.3c0.2,1.5,1.5,2.9,3,2.6c-4.9,6.7-5.5,16.4-1.3,23.6c0.2-5.7,2.8-11.3,7.1-15.2
		c-0.7,6.6,3.1,13.5,9.1,16.4c0.5-1.3,0.9-2.6,1.4-3.8c0.6,2.3,1.3,4.5,1.9,6.8c1.7-6.3,3.4-12.6,5.1-18.9c2.5,6.6,5,13.3,7.5,19.9
		c4-5.4,4.1-13.3,0.4-18.8c-1.4-2.1-3.3-3.9-4.4-6.2c-0.9-2.1-1-4.4-1.4-6.6c-1.1-5.5-4.4-10.5-9-13.7c5-1.3,5.1-8.3,7.3-12.9
		c1-2.1,2.6-3.8,4-5.6c3.5-4.5,6.1-9.8,7.4-15.3c15.6,7.9,33.2,16.1,50,11.1c5.6-1.6,11-4.7,16.8-3.8c-4.2,14,7,30.4,21.5,31.7
		c1.7,0.1,3.7,0.2,5,1.3c1.1,0.9,1.5,2.4,1.9,3.8c2.4,8,6.4,15.5,11.8,21.9c3.2,3.8,9.3,7.2,12.4,3.4c2.9-3.5-0.5-8.5-3.4-11.9
		c-2.6-3-5-6.4-5.6-10.3C242.2,445.2,243.9,440.7,247.5,439.2z"/>
	<path fill="#231F20" d="M89.5,310.7c0.1-6.7,0.3-13.4,0.6-20.2c0.1-3.4,0.3-6.9,1.2-10.2c0.8-3,2.2-5.7,3.5-8.5
		c5-10.5,9.2-21.5,12.6-32.6c-10.1,7.7-20.5,15.6-27.3,26.4c-3.4,5.5-5.9,11.5-8.3,17.5c-3.5,8.8-7.1,17.8-7.7,27.2
		c2.8-3.6,6.1-6.9,9.7-9.6c-1.5,9-0.9,18.3,1.5,27c-2.9-0.3-5.7-0.6-8.6-0.9c-0.8-0.1-1.8,0-2.1,0.7c-0.2,0.5,0,1,0.3,1.4
		c1.5,3.1,3,6.1,4.5,9.2c-2.2,0.6-4.7,0.6-6.9,0c2.5,2.6,4.9,5.1,7.4,7.7c0.3,0.3,0.6,0.7,0.4,1.1s-0.8-0.3-0.4-0.4
		c8.7,6.1,16.3,13.7,22.3,22.5c-3.8-11.6-4.8-24.1-2.9-36.2c0.5-2.9,1.1-5.7,1.5-8.6C92.1,314.8,89.3,320.1,89.5,310.7z"/>
	<path fill="#231F20" d="M205.2,340c7.5-14.8,8.7-31.8,9.4-48.3c-3,9.8-7.6,19.1-13.6,27.4c0.3-8.3,1.4-16.6,3.3-24.7
		c-7.2,7.5-11.9,17.5-13,27.9c-5.8-10.1-7.9-22.3-5.9-33.8c-3.8,2.4-4.4,7.5-4.6,11.9c-0.3,4.7-0.5,9.3-0.8,14
		c-1.7,0.4-2.8-1.7-3.1-3.4c-1.5-6.7-2.4-13.6-2.8-20.4c-0.4,4-0.8,8-1.3,12c-1.9-28.6-4-57.7-15.1-84.1c7.2,21.1,9,44.1,5.1,66.1
		c-0.7-14.3-7.1-27.6-13.4-40.4c2.4,11.8,3.4,23.8,3,35.8c-2-17.9-8.8-35.2-19.6-49.6c2,5.9,3.8,11.9,5.5,17.9
		c2.7,9.5,5.1,19.2,4.5,29c-0.6,9.8-4.5,19.9-12.4,25.8c5.6-1.1,10.5-5.7,11.9-11.3c-0.3,8-3.7,15.8-9.2,21.6
		c10.5-1,18-10.1,24.3-18.5c-0.6,4.1-2.6,7.9-4.6,11.6c-4,7.3-8,14.7-12,22c8.6-3.9,16-10.4,21.1-18.4c-4,6.2-7.2,12.8-9.7,19.6
		c-0.2,0.6-0.4,1.3-0.1,1.8c0.7,1.2,2.5,0.3,3.5-0.7c3.8-3.9,7.5-7.8,11.3-11.7c-4.5,4.6-7.9,10.3-10,16.3c6.1-2.8,11.1-7.8,14-13.9
		c-0.4,14.2-3.4,28.3-8.8,41.4c-0.4,1-0.7,2.3,0.1,2.9c0.8,0.6,1.9,0.1,2.7-0.5c4.6-3.6,7.5-9.9,13.1-11.6
		c-1.6,4.8-3.2,9.7-4.6,14.6c-0.2,0.8-0.4,1.7,0,2.4c0.7,1,2.3,0.7,3.5,0.3c9.5-3.5,18.7-8.3,25.5-15.8s10.9-17.9,9-27.8"/>
	<path fill="#231F20" d="M295.9,37.9c5.3,2.5,10.2,5.9,14.4,10c-0.5-2.3-1.4-4.5-2.9-6.3c2.5,0.9,4.8,2.3,6.7,4.1
		c0.5-1.9,0.2-3.9-0.9-5.5c1.5,1.1,2.9,2.4,4.1,3.9c1.3-2.9,0.9-6.4-0.9-9c3,1.8,5.1,4.8,5.8,8.2c1.3-2.4,1.3-5.4-0.1-7.7
		c3,2.3,4.3,6.5,3.2,10.1c2.2-0.6,3.9-2.7,4-5c0.2,1.1-0.3,2.2-0.3,3.3c0,1.1,0.9,2.4,1.9,2c0.5-0.2,0.8-0.7,1-1.2
		c0.7-1.9,1-4,0.6-6.1c2.3,2.6,3.7,6,3.8,9.4c0.7-2,1.5-4,2.2-6c0.9,2.9,1.5,5.9,1.8,9c3.2-2,4.2-6.5,2.9-10.1
		c-1.2-3.6-4.2-6.3-7.4-8.4c1.4,2.9,1.8,6.2,1.2,9.3c-0.5-2.3-1.1-4.7-2.4-6.8c-1.3-2-3.5-3.6-5.9-3.6c1.6,1.3,2.7,3.3,2.8,5.4
		c-1.6-3.2-4.6-5.7-8.1-6.5c1.3,1.8,2.1,3.8,2.5,5.9c-2.6-3.9-6.7-6.7-11.3-7.7c0.1,2.2,0.8,4.4,2,6.3c-2.1-2.1-5.3-3-8.2-2.2
		c1.6,0.3,3.1,1.3,3.8,2.8c-2.9-1.1-6-1.6-9.1-1.4c2.9,0.6,6.3,1.7,7.2,4.6c-4.1-3.3-10.1-4.2-15-2.3c-0.7,0.3-1.4,0.7-1.4,1.4
		c0,0.6,0.6,1.1,1.2,1.4C297,40.1,294.2,37.1,295.9,37.9z"/>
	<path fill="#231F20" d="M156.3,150.7c5.4-3,11.1-5.4,16.9-7.3c-3.5,1.4-5.8,5.2-5.6,8.9c3.1-1,6.3-2.1,9.4-3.1
		c1.1-0.4,2.9-0.2,2.7,0.9c-1.5,0.6-1.6,3-0.3,4c1.2,1.1,3.1,0.9,4.6,0.3c1.5-0.7,2.6-1.9,3.9-2.9c7.8-6.5,19.3-7.7,26.4-15
		c4.5-4.6,7.2-11.5,13.3-13.8c-10.7,5.4-23,10.9-34.3,6.8c6.9-2.4,13.2-6.5,18.2-11.8c-6.7,2.8-14.1,4.1-21.3,3.6
		c7.6-4.5,14.5-10.4,20.3-17.1c-6.4,0.4-12.8,0.4-19.1,0c4.8-2.9,9.3-6.3,13.4-10.1c-7.9-3.9-17.6-3.9-25.4,0c2.6-3.6,5.3-7.3,9-9.8
		c3.7-2.5,8.7-3.6,12.6-1.6c-5-5.2-12.5-7.5-19.7-7.1c-7.2,0.4-14.1,3.2-20.3,6.9c4-3.4,10.3-3.9,14.8-1.2c-6.1,0.8-12,3.4-16.6,7.6
		c2.6-0.4,5.3-0.9,7.9-0.2c2.6,0.7,4.9,2.8,5,5.5c-3.2-0.2-6.3-0.4-9.5-0.5c-0.8,0-1.8,0-2.1,0.8c-0.3,0.8,0.5,1.6,1.2,2.2
		c2.6,2.2,4.1,5.5,4.1,8.9c-5-1.9-10.8-1.4-15.5,1.3c-0.7,0.4-1.3,0.9-1.5,1.6c-0.1,0.5,0.1,1,0.2,1.5c0.9,2.2,2.3,4.2,4.4,5.3
		c2.1,1,4.9,0.8,6.4-0.9c-8-0.3-16,3.7-20.7,10.3c-2.9,4.1-4.1,10.7,0,13.6c1.4,1,3.1,1.3,4.5,2.2s2.6,2.7,1.9,4.2
		c-0.4,0.9-1.4,1.5-1.6,2.5c-0.2,1,0.5,2,1.3,2.8c3.3,3.7,7.7,7.7,12.6,6.5C162.3,155.2,151.6,149.8,156.3,150.7z"/>
	<path fill="#606060" d="M257.1,169.6c-7.6-9.8-16.5-18.6-26.3-26c-1.1,1.2-2.1,2.4-3.2,3.6c5.7,2.7,10.3,7.7,12.6,13.6
		c0.3,0.8,0.6,1.7,0.2,2.4c-0.7,1.4-2.7,1-4.2,0.5c-6.4-2.2-13.8-3.2-19.6,0.3c13.2,0.8,26.1,6,36.1,14.6c-4,4.7-13,1.8-16.8,6.6
		c-2.7,3.4-0.7,9,3.1,11c3.9,2,8.7,1.2,12.6-0.8c0.1,4.3-2.2,8.6-5.8,10.9c4.1-0.9,8-2.9,12.1-3.7s9-0.3,11.7,3.1
		c1.5,1.9,2,4.4,2.5,6.7c1.2,5.9,2.4,11.9,3.6,17.8c4.4-6.6,6.3-14.8,5.3-22.6c1.7,0.1,3.3,1,4.2,2.5c0.3-5.9-0.7-11.8-2.9-17.2
		c1.5,0.3,3-0.3,4-1.4c-2-1.8-4.9-2.1-7.4-3.1c-6.2-2.5-9-9.6-13.7-14.4c-6.1-6.3-15.8-9.2-19.4-17.2"/>
	<path fill="#606060" d="M298.1,198c-1,6.2,2.9,11.9,6.1,17.3c7.7,12.9,12.3,27.6,13.5,42.5c0.9-2.8,1.7-5.6,2.6-8.4
		c5.1,2.4,2.4,11.6,7.2,14.4c6.2-11,4.5-24.5,2.6-37c10.5,11.1,16.7,26.3,16.9,41.6c1.5-3.3,3.1-6.7,4.6-10c2.9,7,4.6,14.4,5.3,21.9
		c4.2-4,7.4-9.2,8.9-14.8c0.4,5.2,0.1,10.5-0.9,15.6c4.3-2.1,6-7.3,7.1-12c1.7-7.6,3-15.4,3.8-23.1c5.7,6.1,8.5,14.3,9.3,22.6
		s0,16.6-0.9,24.8c7.9-7.2,13.3-17.1,15.2-27.6c2.8-0.2,4.8-2.9,6.1-5.4c2.8-5.5,4.2-11.7,4.1-17.8c-0.1-3.9-0.8-7.8-1.6-11.6
		c-2.5-11-6.3-21.7-11.3-31.7c-0.4-0.7-0.8-1.5-1.4-1.9c-1-0.7-2.3-0.5-3.6-0.5c-5.4,0.1-10.1-3.7-13.9-7.5
		c-4.7-4.7-8.9-9.8-12.6-15.3c-4.8-7.2-8.8-15-14.6-21.3c3.5,8.8,10.3,15.8,15.8,23.6c12,16.8,18.4,36.9,24.5,56.6
		c1.4,4.6,2.6,10.5-1.1,13.6c-2.2-8.4-9.9-14-17.1-18.9c1.5,7.1-0.1,14.9-4.4,20.9c-2.3-6.8-6.3-13-11.6-17.8
		c-4.7-4.3-10.3-7.5-15.9-10.7c1.6,2.1,3.3,4.2,4.9,6.3c-3.4-4-7.5-7.4-12-10.1c-1.6-0.9-4-1.7-5-0.1c-0.4,0.6-0.5,1.4-0.5,2.1
		c-0.2,3-0.3,6.1-0.5,9.1c-1.9-4.3-3.9-8.6-5.8-12.9c0.1,0.7-0.8,1.3-1.5,1.1s-1.2-0.8-1.7-1.4C313.1,207.1,306.1,201.6,298.1,198z"
		/>
	<path fill="#606060" d="M283.7,337.3c-0.3-0.2,0.1-0.7,0.4-0.6c0.3,0.2,0.4,0.6,0.4,1c0.5,5.7,0.5,11.4,0,17.1
		c1.2-2.4,2.5-4.8,3.9-7.2c0.7,4.2,0.6,8.6-0.1,12.8c1.3-2.4,2.7-4.8,4-7.2c-0.3,4.8-0.6,9.5-1,14.3c1.1-2.2,2-4.4,2.8-6.7
		c0.9,7.8,0.3,15.9-1.7,23.5c4.6-6.1,7.2-13.7,7-21.3c-0.1-7.6-2.9-15.2-7.7-21.1c-1.5-1.8-3.1-3.5-5.2-4.5
		C283.9,336.3,286.3,336,283.7,337.3z"/>
	<path fill="#606060" d="M266.9,416.6c-3.9,1.9-8.2,3.1-12.5,3.5c1.4,1.2,2.8,2.4,3.7,4c0.9,1.6,1.1,3.7,0,5.2
		c1.6-1.2,3.5-2,5.5-2.5c-1.1,2.2-2,4.6-2.7,7c2.1-0.8,4.2-1.4,6.4-1.6c-0.3,2.1-0.6,4.2-1,6.2c2.1-1,4.6,0.5,5.9,2.4
		c2.4,3.3,2.7,7.7,2.8,11.8c0.2,4.1,0.4,8.2,0.5,12.4c4.4-4.2,6.6-10.5,6-16.5c-0.5-5.1-3-9.8-4.5-14.7c-1.2-3.8-1.8-7.8-3.5-11.4
		s-5-6.8-9-7C263.1,415.3,266.9,418.1,266.9,416.6z"/>
</g>
<g>
	<g>
		<polygon fill="#72A3AD" points="136.8,289.3 259.3,289.3 272.7,264.5 269.4,264.5 269.4,256.2 261.1,256.2 258.9,249 250.5,249 
			244.6,239.4 236.7,243.2 230.4,233.9 222.8,237.7 217.8,231 209.8,235.6 200.2,228.9 190.5,236 181.7,230.6 174.2,239 
			165.9,234.8 161.2,243.2 153.6,241.1 148.6,247.3 138.5,247.8 136.8,256.2 128.4,256.2 124.7,265 		"/>
		<polygon fill="#53628A" points="128.4,256.2 143.7,289.3 148.1,289.3 134.1,256.2 		"/>
		<polygon fill="#53628A" points="139.3,247.7 154.9,289.3 158.8,289.3 146.3,247.4 		"/>
		<polygon fill="#53628A" points="153.6,241.1 166,289.3 170.2,289.3 159.6,242.7 		"/>
		<polygon fill="#53628A" points="167,235.4 176,289.3 180,289.3 174.2,239 		"/>
		<polygon fill="#53628A" points="183.2,231.5 187,289.3 191.8,289.3 190.5,236 		"/>
		<polygon fill="#53628A" points="269.4,256.2 250.9,289.3 245.5,289.3 261.1,256.2 		"/>
		<polygon fill="#53628A" points="258.9,249 240,289.3 234.6,289.3 251.3,249 		"/>
		<polygon fill="#53628A" points="244.6,239.4 229.9,289.3 224.3,289.3 236.7,243.2 		"/>
		<polygon fill="#53628A" points="230.8,234.5 219,289.3 212.1,289.3 222.8,237.7 		"/>
		<polygon fill="#53628A" points="217.8,231 209,289.3 203.7,289.3 209.8,235.6 		"/>
		<polygon fill="#53628A" points="200.2,228.9 200.2,289.3 196.4,289.3 194.9,232.8 		"/>
	</g>
	<rect x="12" y="386.1" fill="#594A42" width="385.7" height="121.6"/>
	<rect x="102.5" y="409.8" fill="#C49A6C" width="218" height="98"/>
	<rect x="108.4" y="415" fill="#1E3831" width="28.4" height="92.8"/>
	<rect x="144.2" y="415" fill="#1E3831" width="28.4" height="92.8"/>
	<rect x="180" y="415" fill="#1E3831" width="28.4" height="92.8"/>
	<rect x="215.8" y="415" fill="#1E3831" width="28.4" height="92.8"/>
	<rect x="251.6" y="415" fill="#1E3831" width="28.4" height="92.8"/>
	<rect x="287.4" y="415" fill="#1E3831" width="28.4" height="92.8"/>
	<rect x="7.8" y="397.9" fill="#939598" width="394.9" height="6.2"/>
	<rect x="7.9" y="391.7" fill="#BCBEC0" width="394.9" height="6.2"/>
	<rect x="7.9" y="385.5" fill="#939598" width="394.9" height="6.2"/>
	<rect x="8" y="379.3" fill="#BCBEC0" width="394.9" height="6.2"/>
	<rect x="5.1" y="316.2" fill="#9B1525" width="403.7" height="63.1"/>
	<rect x="7.6" y="317.9" fill="#FBB040" width="398.4" height="58.5"/>
	<rect x="9.3" y="319.7" fill="#9B1525" width="395" height="54"/>
	<rect x="11.4" y="322" fill="#FBB040" width="390.9" height="48.9"/>
	<rect x="14.9" y="324.8" fill="#E6E7E8" width="383.8" height="41.9"/>
	<rect x="21.3" y="409.8" fill="#9B1525" width="64.4" height="88.9"/>
	<rect x="27.5" y="416" fill="#E6E7E8" width="50.2" height="76.3"/>
	<circle fill="#FBB040" cx="24.5" cy="413.1" r="2.2"/>
	<circle fill="#FBB040" cx="24.5" cy="420.5" r="2.2"/>
	<circle fill="#FBB040" cx="24.5" cy="428.3" r="2.2"/>
	<circle fill="#FBB040" cx="24.5" cy="435.8" r="2.2"/>
	<circle fill="#FBB040" cx="24.5" cy="443.4" r="2.2"/>
	<circle fill="#FBB040" cx="24.5" cy="450.9" r="2.2"/>
	<circle fill="#FBB040" cx="24.5" cy="458.7" r="2.2"/>
	<circle fill="#FBB040" cx="24.5" cy="466.1" r="2.2"/>
	<circle fill="#FBB040" cx="24.5" cy="472.6" r="2.2"/>
	<circle fill="#FBB040" cx="24.5" cy="480.1" r="2.2"/>
	<circle fill="#FBB040" cx="24.5" cy="487.9" r="2.2"/>
	<circle fill="#FBB040" cx="24.5" cy="495.3" r="2.2"/>
	<circle fill="#FBB040" cx="54" cy="495.3" r="2.2"/>
	<circle fill="#FBB040" cx="46.6" cy="495.3" r="2.2"/>
	<circle fill="#FBB040" cx="38.7" cy="495.3" r="2.2"/>
	<circle fill="#FBB040" cx="31.3" cy="495.3" r="2.2"/>
	<circle fill="#FBB040" cx="74.6" cy="495.3" r="2.2"/>
	<circle fill="#FBB040" cx="68.1" cy="495.3" r="2.2"/>
	<circle fill="#FBB040" cx="60.7" cy="495.3" r="2.2"/>
	<circle fill="#FBB040" cx="81.2" cy="413" r="2.2"/>
	<circle fill="#FBB040" cx="81.2" cy="420.4" r="2.2"/>
	<circle fill="#FBB040" cx="81.2" cy="428.2" r="2.2"/>
	<circle fill="#FBB040" cx="81.2" cy="435.7" r="2.2"/>
	<circle fill="#FBB040" cx="81.2" cy="443.4" r="2.2"/>
	<circle fill="#FBB040" cx="81.2" cy="450.8" r="2.2"/>
	<circle fill="#FBB040" cx="81.2" cy="458.6" r="2.2"/>
	<circle fill="#FBB040" cx="81.2" cy="466.1" r="2.2"/>
	<circle fill="#FBB040" cx="81.2" cy="472.5" r="2.2"/>
	<circle fill="#FBB040" cx="81.2" cy="480" r="2.2"/>
	<circle fill="#FBB040" cx="81.2" cy="487.8" r="2.2"/>
	<circle fill="#FBB040" cx="81.2" cy="495.2" r="2.2"/>
	<circle fill="#FBB040" cx="53.7" cy="413" r="2.2"/>
	<circle fill="#FBB040" cx="46.2" cy="413" r="2.2"/>
	<circle fill="#FBB040" cx="38.4" cy="413" r="2.2"/>
	<circle fill="#FBB040" cx="31" cy="413" r="2.2"/>
	<circle fill="#FBB040" cx="74.3" cy="413" r="2.2"/>
	<circle fill="#FBB040" cx="67.8" cy="413" r="2.2"/>
	<circle fill="#FBB040" cx="60.4" cy="413" r="2.2"/>
	<rect x="326.1" y="409.6" fill="#9B1525" width="64.4" height="88.9"/>
	<rect x="332.4" y="415.9" fill="#E6E7E8" width="50.2" height="76.3"/>
	<circle fill="#FBB040" cx="329.3" cy="413" r="2.2"/>
	<circle fill="#FBB040" cx="329.3" cy="420.4" r="2.2"/>
	<circle fill="#FBB040" cx="329.3" cy="428.2" r="2.2"/>
	<circle fill="#FBB040" cx="329.3" cy="435.7" r="2.2"/>
	<circle fill="#FBB040" cx="329.3" cy="443.3" r="2.2"/>
	<circle fill="#FBB040" cx="329.3" cy="450.8" r="2.2"/>
	<circle fill="#FBB040" cx="329.3" cy="458.6" r="2.2"/>
	<circle fill="#FBB040" cx="329.3" cy="466" r="2.2"/>
	<circle fill="#FBB040" cx="329.3" cy="472.5" r="2.2"/>
	<circle fill="#FBB040" cx="329.3" cy="479.9" r="2.2"/>
	<circle fill="#FBB040" cx="329.3" cy="487.8" r="2.2"/>
	<circle fill="#FBB040" cx="329.3" cy="495.2" r="2.2"/>
	<circle fill="#FBB040" cx="358.8" cy="495.2" r="2.2"/>
	<circle fill="#FBB040" cx="351.4" cy="495.2" r="2.2"/>
	<circle fill="#FBB040" cx="343.6" cy="495.2" r="2.2"/>
	<circle fill="#FBB040" cx="336.1" cy="495.2" r="2.2"/>
	<circle fill="#FBB040" cx="379.5" cy="495.2" r="2.2"/>
	<circle fill="#FBB040" cx="373" cy="495.2" r="2.2"/>
	<circle fill="#FBB040" cx="365.5" cy="495.2" r="2.2"/>
	<circle fill="#FBB040" cx="386" cy="412.9" r="2.2"/>
	<circle fill="#FBB040" cx="386" cy="420.3" r="2.2"/>
	<circle fill="#FBB040" cx="386" cy="428.1" r="2.2"/>
	<circle fill="#FBB040" cx="386" cy="435.6" r="2.2"/>
	<circle fill="#FBB040" cx="386" cy="443.2" r="2.2"/>
	<circle fill="#FBB040" cx="386" cy="450.7" r="2.2"/>
	<circle fill="#FBB040" cx="386" cy="458.5" r="2.2"/>
	<circle fill="#FBB040" cx="386" cy="465.9" r="2.2"/>
	<circle fill="#FBB040" cx="386" cy="472.4" r="2.2"/>
	<circle fill="#FBB040" cx="386" cy="479.9" r="2.2"/>
	<circle fill="#FBB040" cx="386" cy="487.7" r="2.2"/>
	<circle fill="#FBB040" cx="386" cy="495.1" r="2.2"/>
	<circle fill="#FBB040" cx="358.5" cy="412.9" r="2.2"/>
	<circle fill="#FBB040" cx="351.1" cy="412.9" r="2.2"/>
	<circle fill="#FBB040" cx="343.2" cy="412.9" r="2.2"/>
	<circle fill="#FBB040" cx="335.8" cy="412.9" r="2.2"/>
	<circle fill="#FBB040" cx="379.2" cy="412.9" r="2.2"/>
	<circle fill="#FBB040" cx="372.6" cy="412.9" r="2.2"/>
	<circle fill="#FBB040" cx="365.2" cy="412.9" r="2.2"/>
	<path fill="#BCBEC0" d="M47.5,366.2c0,0.3,0.2,0.5,0.5,0.5l0,0c0.3,0,0.5-0.2,0.5-0.5v-40.9c0-0.3-0.2-0.5-0.5-0.5l0,0
		c-0.3,0-0.5,0.2-0.5,0.5V366.2z"/>
	<path fill="#BCBEC0" d="M82.8,366.2c0,0.3,0.2,0.5,0.5,0.5l0,0c0.3,0,0.5-0.2,0.5-0.5v-40.9c0-0.3-0.2-0.5-0.5-0.5l0,0
		c-0.3,0-0.5,0.2-0.5,0.5V366.2z"/>
	<path fill="#BCBEC0" d="M118.2,366.2c0,0.3,0.2,0.5,0.5,0.5l0,0c0.3,0,0.5-0.2,0.5-0.5v-40.9c0-0.3-0.2-0.5-0.5-0.5l0,0
		c-0.3,0-0.5,0.2-0.5,0.5V366.2z"/>
	<path fill="#BCBEC0" d="M153.5,366.2c0,0.3,0.2,0.5,0.5,0.5l0,0c0.3,0,0.5-0.2,0.5-0.5v-40.9c0-0.3-0.2-0.5-0.5-0.5l0,0
		c-0.3,0-0.5,0.2-0.5,0.5V366.2z"/>
	<path fill="#BCBEC0" d="M188.9,366.2c0,0.3,0.2,0.5,0.5,0.5l0,0c0.3,0,0.5-0.2,0.5-0.5v-40.9c0-0.3-0.2-0.5-0.5-0.5l0,0
		c-0.3,0-0.5,0.2-0.5,0.5V366.2z"/>
	<path fill="#BCBEC0" d="M224.3,366.2c0,0.3,0.2,0.5,0.5,0.5l0,0c0.3,0,0.5-0.2,0.5-0.5v-40.9c0-0.3-0.2-0.5-0.5-0.5l0,0
		c-0.3,0-0.5,0.2-0.5,0.5V366.2z"/>
	<path fill="#BCBEC0" d="M259.6,366.2c0,0.3,0.2,0.5,0.5,0.5l0,0c0.3,0,0.5-0.2,0.5-0.5v-40.9c0-0.3-0.2-0.5-0.5-0.5l0,0
		c-0.3,0-0.5,0.2-0.5,0.5V366.2z"/>
	<path fill="#BCBEC0" d="M295,366.2c0,0.3,0.2,0.5,0.5,0.5l0,0c0.3,0,0.5-0.2,0.5-0.5v-40.9c0-0.3-0.2-0.5-0.5-0.5l0,0
		c-0.3,0-0.5,0.2-0.5,0.5V366.2z"/>
	<path fill="#BCBEC0" d="M330.4,366.2c0,0.3,0.2,0.5,0.5,0.5l0,0c0.3,0,0.5-0.2,0.5-0.5v-40.9c0-0.3-0.2-0.5-0.5-0.5l0,0
		c-0.3,0-0.5,0.2-0.5,0.5V366.2z"/>
	<path fill="#BCBEC0" d="M365.7,366.2c0,0.3,0.2,0.5,0.5,0.5l0,0c0.3,0,0.5-0.2,0.5-0.5v-40.9c0-0.3-0.2-0.5-0.5-0.5l0,0
		c-0.3,0-0.5,0.2-0.5,0.5V366.2z"/>
	<path fill="#BCBEC0" d="M19.7,334.8c-2.5,0-4.6,0.1-4.6,0.2l0,0c0,0.1,2.1,0.2,4.6,0.2H394c2.5,0,4.6-0.1,4.6-0.2l0,0
		c0-0.1-2.1-0.2-4.6-0.2H19.7z"/>
	<path fill="#BCBEC0" d="M19.7,346.9c-2.5,0-4.6,0.1-4.6,0.2l0,0c0,0.1,2.1,0.2,4.6,0.2H394c2.5,0,4.6-0.1,4.6-0.2l0,0
		c0-0.1-2.1-0.2-4.6-0.2H19.7z"/>
	<path fill="#BCBEC0" d="M19.7,361c-2.5,0-4.6,0.1-4.6,0.2l0,0c0,0.1,2.1,0.2,4.6,0.2H394c2.5,0,4.6-0.1,4.6-0.2l0,0
		c0-0.1-2.1-0.2-4.6-0.2H19.7z"/>
	<text transform="matrix(1 0 0 1 142.3478 351.4016)" fill="#BE1E2D" font-family="'Arial-Black'" font-size="18.3943">KING KONG</text>
	<g>
		<rect x="111.7" y="287.2" fill="#354596" width="174.1" height="28.7"/>
		<rect x="111.7" y="287.2" fill="#FFF200" width="15.8" height="28.7"/>
		<rect x="143.3" y="287.2" fill="#FFF200" width="15.8" height="28.7"/>
		<rect x="175.2" y="287.2" fill="#FFF200" width="15.8" height="28.7"/>
		<rect x="206.9" y="287.2" fill="#FFF200" width="15.8" height="28.7"/>
		<rect x="238.5" y="287.2" fill="#FFF200" width="15.8" height="28.7"/>
		<rect x="270" y="287.2" fill="#FFF200" width="15.8" height="28.7"/>
	</g>
</g>
</svg>
