<?xml version="1.0" encoding="utf-8"?>
<!-- Generator: Adobe Illustrator 18.1.1, SVG Export Plug-In . SVG Version: 6.00 Build 0)  -->
<svg version="1.1" id="Layer_1" xmlns="http://www.w3.org/2000/svg" xmlns:xlink="http://www.w3.org/1999/xlink" x="0px" y="0px"
	 viewBox="0 0 396 493.1" enable-background="new 0 0 396 493.1" xml:space="preserve">
<g>
	<path fill="#E6E7E8" d="M360.9,138.5c0,0-38-20.4-90.6,4.5S138,173.9,138,173.9l23.2,44.9l79.6-20.2c0,0,38.5,39.3,69.5,1.9
		S360.9,138.5,360.9,138.5z"/>
	<path fill="#BCBEC0" d="M201,367.8c0,0,94.8,44.2,160.6-68.7s20.2-241.5-106.9-100.2c0,0-13.5,1.5-23.9-8.2
		c-10.5-9.7-38.1-13.5-75.5,7.5s-95-17.2-129.3-44.1l56.8,73l7.5,84C90.1,311.1,148.8,385.7,201,367.8z"/>
	<polyline fill="#E2A77F" points="147.9,301.9 120.8,271.4 129.4,351.8 236.4,440.8 246,426.9 148.7,300.6 	"/>
	<path fill="#F9BD91" d="M236.4,252l-50.3,73.3l39.4,112.6L214,483.8l-2-1.9l-13-42l-58.8-126.6l57.8-86.2
		C198.1,227.1,229.5,231.1,236.4,252z"/>
	<path fill="#E6E7E8" d="M155.2,198.2l-15-61.4c0,0-85.2-52.3-131.2-28.3c0,0-6.8,28.3,16.8,45.6
		C25.8,154.1,111.1,228.8,155.2,198.2z"/>
	<path fill="#F9BD91" d="M268.5,177.6c0,0,4.1-43.7,0-55.7c-4.1-12-56.2-48-113.3-26.9c0,0-37,20.2-21.3,103.5
		c0,0,20.2-2.6,26.2-14.2s27.7-17.2,48.6-12C229.6,177.6,245.7,209,268.5,177.6z"/>
	<path fill="#E6E7E8" d="M198.6,170.7l1.5-82.2c0,0-59.2,36.1-48.5,104.1c0,0,9.5-3.9,14.4-10.9S194.2,170.1,198.6,170.7z"/>
	<path fill="#E6E7E8" d="M201.7,171l34.7-73l11.7,5.9L236.4,188C236.4,188,206.4,178.3,201.7,171z"/>
	<path fill="#F9BD91" d="M244.9,26.6v54.9h-9V101c0,0-10.1,19.9-35,0V60.4c0,0-7.5-1.5-7.5-10.1s8.6-4.5,8.6-4.5V26.6H244.9z"/>
	<path fill="#F7E054" d="M210.4,6c-4.5-1.4-9.7-0.5-13.5,2.5c-3.8,2.9-5.9,7.7-5.7,12.5c-3.6-1.2-7.2,2.1-9,5.5
		c-1.3,2.5-2.1,5.3-1.7,8.1s2.3,5.4,5,6.2c-5.9,1.7-9.1,9.3-6.4,14.8c0.9,1.9,2.4,3.4,3.6,5.1c1.2,1.7,2,3.9,1.5,5.9
		c-0.5,2.1-2.4,3.6-4.5,4.1c-2.1,0.5-4.3-0.1-6.2-1c-0.3,2.5,2.6,4.1,5.1,4.6c2,0.4,4.1,0.6,6,0c1.9-0.6,3.7-2.2,4-4.2
		c1.1,2.9-0.7,6.5-3.6,7.4c3.9,0.8,8.2-1.6,9.6-5.3c-0.2,3.1-1.9,6-4.6,7.6c3.1,0,6.6-0.1,8.6-2.5c0.8-0.9,1.2-2.1,1.6-3.2
		c1.2-3.7,2-7.6,2.2-11.5c0-0.5,0.1-1.1-0.2-1.5c-0.2-0.4-0.6-0.7-1-0.9c-1.7-1-3.7-1.5-5.3-2.6c-1.7-1.1-3.1-3-2.5-4.9
		c2.2,0.8,4.7,0.4,6.5-1.1c1.8-1.5,2.7-3.9,2.3-6.2c2.4-0.1,4.7-1.7,5.5-4c0.9-2.2,0.2-5-1.5-6.6c2.3-0.3,4.6,1.3,5.1,3.5
		c0.5,2.2-0.9,4.7-3.1,5.4c2.5-0.7,5.1-1.4,7.2-3.1s3.3-4.5,2.4-7c3,2.7,2.3,8.4-1.2,10.3c2.8-0.6,5.6-1.5,7.6-3.6
		c2-2.1,2.8-5.4,1.3-7.8c3.4,2.2,3.4,8.1,0,10.3c2.3-0.6,4.4-1.7,6-3.5c1.5-1.8,2.2-4.4,1.4-6.6c3,2.6,2.2,8.3-1.5,9.9
		c5-0.1,9.7-3.5,11.4-8.1c-1.5,2.6-0.7,6.4,1.8,8.1c-0.6-1.4,0.2-2.9,1.3-3.9c1.1-1,2.5-1.6,3.5-2.7c2.4-2.4,2.6-6.1,2.4-9.5
		c-0.2-2.9-1.2-6.5-4-7c-2.4-0.4-4.5,1.7-6.8,2.1c1.6-2.4,1.4-5.6,0-8.1s-3.8-4.3-6.3-5.6C232.1,6.4,229,5.5,226,6s-5.9,2.7-6.6,5.7
		C216.7,9.3,213.8,7,210.4,6z"/>
	<path fill="#F9BD91" d="M270.7,110.6c12.1-36.8-4-40.3-10-39.6c-6,0.7-5.5,22-5.5,22s0.6-8.9-4-8.3s-5.8,11-5.8,11s-3.4,17,8,19.9
		C264.8,118.7,270.7,110.6,270.7,110.6z"/>
	<polygon fill="#BCBEC0" points="225.5,437.9 229.2,490.9 199.3,493.1 206.1,462.7 214.3,479.3 	"/>
	<polygon fill="#BCBEC0" points="246,426.9 246,461 227.6,468.8 227.6,433.5 236.4,440.8 	"/>
</g>
</svg>
