<?xml version="1.0" encoding="utf-8"?>
<!-- Generator: Adobe Illustrator 18.1.1, SVG Export Plug-In . SVG Version: 6.00 Build 0)  -->
<svg version="1.1" id="Layer_1" xmlns="http://www.w3.org/2000/svg" xmlns:xlink="http://www.w3.org/1999/xlink" x="0px" y="0px"
	 viewBox="0 0 107.5 156" enable-background="new 0 0 107.5 156" xml:space="preserve">
<g>
	<polygon fill="none" points="43.6,119 49.8,119 47.9,93 	"/>
	<polygon fill="#9A714B" points="47.9,93 49.8,119 58.6,119 59.3,81.2 35.2,81.3 34.4,119 43.6,119 	"/>
	<polygon fill="#161616" points="34.4,119 34,141 39.9,141 43.6,119 	"/>
	<polygon fill="#161616" points="49.8,119 51.4,141 58.1,141 58.6,119 	"/>
	<ellipse fill="#5F3A16" cx="47.6" cy="12.4" rx="10.3" ry="9.2"/>
	<path fill="#BD202E" d="M23.5,52"/>
	<path fill="#F2B581" d="M79.4,36.8c0,0,8.9-6.1,9.5-15.8c0,0-0.1-2.7,1-3s1.4,1.9,1.4,1.9s-1-5.3,0.4-5.8s5.7-0.2,4.2,9.6
		c0,0-5.3,17.7-15.4,19.5C80.5,43.3,72.3,40.2,79.4,36.8z"/>
	<path fill="#462A14" d="M26,37c0,0,16.2-6.7,41.5,0l-7.6,44.8c0,0-9.6,0.8-25.5,0L26,37z"/>
	<path fill="#462A14" d="M59.6,33.6c0,0,8.3,5.7,18.1,3.4c0,0,3.3,5.1,1.1,7.7c0,0-16,2-22.6-1.3L59.6,33.6z"/>
	<circle fill="#764D2A" cx="47" cy="77.8" r="1.1"/>
	<path fill="#3C2417" d="M46.6,77.6l10.8-33.9l-2.1-3.2l6.4-5.1c0,0-1.1-4.9-15.1-4.6"/>
	<path fill="#3C2417" d="M46.9,74.4L36,44l2.1-3.2l-6.4-5.1c0,0,1.1-4.9,15.1-4.6"/>
	<path fill="#FFFFFF" d="M41,36.5l5.9,43.6l5.4-43.6C52.3,36.5,40.7,35.7,41,36.5z"/>
	<path fill="#F2B581" d="M55.2,12.5v14.8c0,1.6-1.3,2.9-2.9,2.9h0v6.3c0,0-3.3,6.4-11.3,0V23.4c0,0-2.4-0.5-2.4-3.3s2.8-1.5,2.8-1.5
		v-6.2H55.2z"/>
	<polygon fill="#221F1F" points="41.4,18.7 41.8,19.6 44.3,12.5 40.3,12.5 40.3,18.4 	"/>
	<path fill="#462A14" d="M75.6,37.4c0,0,8.4-0.8,13.1-14.8l7,1.8c0,0-3.9,16.7-17.4,20.4L75.6,37.4z"/>
	
		<rect x="8.6" y="58.8" transform="matrix(0.8992 -0.4376 0.4376 0.8992 -29.3541 18.7836)" fill="#E5E5E4" width="34.9" height="28.5"/>
	<polygon fill="#B3B2B3" points="35,57 43.7,75.9 40.8,77.3 32.6,58 	"/>
	<polygon fill="#B3B2B3" points="28.9,60 9.5,69.2 11.3,72.9 30.3,63.5 	"/>
	<polygon fill="#B3B2B3" points="31.3,66.2 12.3,75.6 14,79 32.6,70.2 	"/>
	<polygon fill="#B3B2B3" points="34.1,73.8 15.5,82 17.5,86.5 35.6,77.4 	"/>
	<polygon fill="#CCCBCB" points="16.6,93.5 15.7,92 47,76.6 48,78.3 	"/>
	<path fill="#F2B581" d="M22.6,82.7c2.3,9.6,6.3,8.3,7.5,7.3c1.2-1-1.8-5.5-1.8-5.5s1.1,2,2,1.3c0.9-0.7-0.2-3.2-0.2-3.2
		s-1.5-4.2-4.4-3.3C22.8,80.1,22.6,82.7,22.6,82.7z"/>
	<path fill="#462A14" d="M26,37L14.8,56.6c-1.8,3.1-2.1,6.8-0.9,10.2l7.7,17.6l6.5-5.1l-4.5-8.5c-1.6-4.1-0.8-8.7,1.9-12l6.3-7.6
		L26,37z"/>
	<rect x="77.7" y="18.1" fill="#E5E5E4" width="26.8" height="37.6"/>
	<rect x="79.6" y="20.9" fill="#B3B2B3" width="22.7" height="3.4"/>
	<rect x="79.9" y="26.5" fill="#B3B2B3" width="6.1" height="25.8"/>
	<rect x="87.6" y="26.3" fill="#B3B2B3" width="6.1" height="25.8"/>
	<rect x="95.9" y="26.5" fill="#B3B2B3" width="6.1" height="25.8"/>
	<ellipse fill="#F2B581" cx="92.3" cy="18" rx="4" ry="3.9"/>
	<path fill="#513112" d="M39.8,13.6c0,0,4.2,2,7.5,1.3c3.4-0.7,4.7-2.5,7.2-0.5c2.5,2,5.9-0.7,3.4-3.7S40.3,5.5,39.8,13.6z"/>
	<path fill="#3C2417" d="M32.2,141l1,11.3c0,0,0.2,0.8-1.2,1c-1.4,0.3-3.9-0.3-3,2.7h6.1c0,0,3.7,0.6,4.3-7.8l2.5-7.2H32.2z"/>
	<path fill="#3C2417" d="M59.3,153.3c-1.4-0.3-1.2-1.4-1.2-1.4l1.5-10.9H50l1.9,7c0.6,8.4,4.3,8,4.3,8h6.1
		C63.1,153,60.7,153.6,59.3,153.3z"/>
	<polygon fill="#9A714B" points="34.4,119 33,116.5 35,113.2 44.6,113.1 45.1,117.8 43.6,119 	"/>
	<polygon fill="#9A714B" points="58.4,119 59.8,116.5 57.8,113.2 50.2,112.8 48.2,115.8 49.3,119 	"/>
</g>
</svg>
