<?xml version="1.0" encoding="utf-8"?>
<!-- Generator: Adobe Illustrator 19.0.0, SVG Export Plug-In . SVG Version: 6.00 Build 0)  -->
<!DOCTYPE svg PUBLIC "-//W3C//DTD SVG 1.1//EN" "http://www.w3.org/Graphics/SVG/1.1/DTD/svg11.dtd">
<svg version="1.1" id="Layer_1" xmlns="http://www.w3.org/2000/svg" xmlns:xlink="http://www.w3.org/1999/xlink" x="0px" y="0px"
	 viewBox="-79 6 800 550" style="enable-background:new -79 6 800 550;" xml:space="preserve">
<style type="text/css">
	.st0{fill:#909090;}
	.st1{fill:#A29090;}
	.st2{fill:#585959;}
	.st3{fill:#CAC2B7;}
	.st4{fill:#BA252B;}
	.st5{opacity:0.61;fill:#C93641;enable-background:new    ;}
	.st6{fill:#FFFFFF;}
</style>
<rect x="294.5" y="291" class="st0" width="48.1" height="264.9"/>
<rect x="51.6" y="272.9" class="st1" width="538.3" height="30.1"/>
<rect x="82.1" y="272.9" class="st2" width="4.2" height="30.1"/>
<rect x="125.4" y="272.9" class="st2" width="4.2" height="30.1"/>
<rect x="168.7" y="272.9" class="st2" width="4.2" height="30.1"/>
<rect x="212.1" y="272.9" class="st2" width="4.2" height="30.1"/>
<rect x="255.5" y="272.9" class="st2" width="4.2" height="30.1"/>
<rect x="298.8" y="272.9" class="st2" width="4.2" height="30.1"/>
<rect x="342.1" y="272.9" class="st2" width="4.2" height="30.1"/>
<rect x="385.5" y="272.9" class="st2" width="4.2" height="30.1"/>
<rect x="428.9" y="272.9" class="st2" width="4.2" height="30.1"/>
<rect x="472.2" y="272.9" class="st2" width="4.2" height="30.1"/>
<rect x="515.5" y="272.9" class="st2" width="4.2" height="30.1"/>
<rect x="558.9" y="272.9" class="st2" width="4.2" height="30.1"/>
<rect x="28.1" y="302.4" class="st3" width="585.7" height="7.8"/>
<rect x="70.9" y="295.8" class="st2" width="45.8" height="9.6"/>
<rect x="184.1" y="295.8" class="st2" width="45.8" height="9.6"/>
<rect x="297.3" y="295.8" class="st2" width="45.8" height="9.6"/>
<rect x="410.5" y="295.8" class="st2" width="45.8" height="9.6"/>
<rect x="523.7" y="295.8" class="st2" width="45.8" height="9.6"/>
<rect x="37.1" y="15.2" class="st4" width="566" height="269.8"/>
<polygon class="st5" points="104.5,298.5 169.5,15 37,15.8 81.1,299.3 "/>
<polygon class="st5" points="217.2,298.6 282.2,15.2 128.1,15.2 193.9,299.5 "/>
<polygon class="st5" points="333.3,298.6 398.3,15.2 244.1,15.2 309.9,299.5 "/>
<polygon class="st5" points="446.4,298.6 511.4,15.2 357.3,15.2 423.1,299.5 "/>
<polygon class="st5" points="559.5,298.5 602.3,15.1 470.5,15 536.3,299.3 "/>
<g>
	<path class="st6" d="M506.9,210.1c-60.4,11.7-121.1,21.5-183.3,22.8c-50.4,1.1-100-3.3-148.6-14.2
		c-48.7-11.1-138.2-69.4-138.2-60.9c0,3.4-0.7,1.8-0.7,7.1V223c2.6,0.7,5,1.2,7.1,2c52,18.9,106.7,26.2,162.9,25.3
		c36.5-0.7,72.8-4.4,108.9-8.7c59.3-7.3,118.3-17.3,178.3-21c28.4-1.7,56.6-2,84.8,2.4c8.3,1.3,17.3,5.7,25.2,7.1
		c0.1-9-0.1-20.8,0-29.8C570.4,198.9,538.6,203.9,506.9,210.1z"/>
</g>
<g>
	<path class="st6" d="M96.9,112.6h8.8l11.2,26.8h-9.7l-1.4-3.6h-9.3l-1.4,3.6h-9.5L96.9,112.6z M103.7,129.5l-2.4-6.5l-2.4,6.5
		H103.7z"/>
	<path class="st6" d="M127.5,111.7h8.6v27.7h-8.6V111.7z"/>
	<path class="st6" d="M138,133.5L138,133.5c0-4.2,3.1-6.5,7.9-6.5c1.7,0,4,0.4,4.9,0.8v-0.3c0-1.9-1.2-3-3.8-3
		c-2.1,0-3.9,0.5-5.7,1.2l-1.5-5.7c2.4-0.9,5.1-1.5,8.7-1.5c4.2,0,7,0.9,8.8,2.7c1.6,1.6,2.2,3.6,2.2,6.6v11.8h-8.6v-2.1
		c-1.4,1.6-3.4,2.6-6,2.6C140.8,139.9,138,137.6,138,133.5z M150.9,131.7v-0.9c-0.5-0.2-1.3-0.3-2-0.3c-1.7,0-2.7,1-2.7,2.3v0.1
		c0,1.2,0.9,2,2,2C149.8,134.9,150.9,133.7,150.9,131.7z"/>
	<path class="st6" d="M170.2,118.7h9l3.3,10.4l3.4-10.4h8.9l-8.4,20.9h-7.9L170.2,118.7z"/>
	<path class="st6" d="M196.1,132.3v-13.7h8.6v10.9c0,1.8,1.1,2.8,2.4,2.8c1.3,0,2.5-1,2.5-2.8v-10.9h8.6v20.7h-8.6v-2.8
		c-1.3,1.7-3.4,3.3-6.3,3.3C198.8,139.9,196.1,137,196.1,132.3z"/>
	<path class="st6" d="M220.1,129.2L220.1,129.2c0-6.3,4.4-11,10.7-11c7.4,0,10.8,5.1,10.8,11.4c0,0.5,0,1,0,1.4h-13.3
		c0.6,1.8,2.1,2.8,3.9,2.8c1.6,0,2.8-0.7,4.2-2.1l4.6,3.7c-2.1,2.7-5,4.5-9.5,4.5C224.7,139.9,220.1,135.6,220.1,129.2z
		 M233.7,127.3c-0.2-2-1.4-3.1-2.9-3.1c-1.4,0-2.5,1.2-2.7,3.1H233.7z"/>
	<path class="st6" d="M243.5,111.7h8.6v27.7h-8.6V111.7z"/>
	<path class="st6" d="M256.4,132.5v-7.1H254v-6.6h2.4v-5.2h8.6v5.2h4.8v6.6H265v5.2c0,1.6,0.7,2.1,2.1,2.1c0.8,0,1.7-0.2,2.6-0.6
		v6.6c-1.4,0.7-3.4,1.2-5.5,1.2C259.1,139.9,256.4,137.5,256.4,132.5z"/>
	<path class="st6" d="M271,133.5L271,133.5c0-4.2,3.1-6.5,7.9-6.5c1.7,0,4,0.4,4.9,0.8v-0.3c0-1.9-1.2-3-3.8-3
		c-2.1,0-3.9,0.5-5.7,1.2l-1.5-5.7c2.4-0.9,5.1-1.5,8.7-1.5c4.2,0,7,0.9,8.8,2.7c1.6,1.6,2.2,3.6,2.2,6.6v11.8h-8.6v-2.1
		c-1.4,1.6-3.4,2.6-6,2.6C273.8,139.9,271,137.6,271,133.5z M283.8,131.7v-0.9c-0.5-0.2-1.3-0.3-2-0.3c-1.7,0-2.7,1-2.7,2.3v0.1
		c0,1.2,0.9,2,2,2C282.7,134.9,283.8,133.7,283.8,131.7z"/>
	<path class="st6" d="M303.8,129.2L303.8,129.2c0-6.6,4-11,8.9-11c3.2,0,4.9,1.4,6.2,2.8v-9.3h8.6v27.7h-8.6v-2.5
		c-1.4,1.5-3,3-6.2,3C307.7,139.9,303.8,135.5,303.8,129.2z M319.1,129.1L319.1,129.1c0-2.1-1.5-3.8-3.5-3.8c-2,0-3.5,1.6-3.5,3.7
		v0.1c0,2.1,1.5,3.7,3.5,3.7C317.6,132.8,319.1,131.2,319.1,129.1z"/>
	<path class="st6" d="M329.5,129.2L329.5,129.2c0-6.3,4.4-11,10.7-11c7.4,0,10.8,5.1,10.8,11.4c0,0.5,0,1,0,1.4h-13.3
		c0.6,1.8,2.1,2.8,3.9,2.8c1.6,0,2.8-0.7,4.2-2.1l4.6,3.7c-2.1,2.7-5,4.5-9.5,4.5C334.1,139.9,329.5,135.6,329.5,129.2z
		 M343.1,127.3c-0.2-2-1.4-3.1-2.9-3.1c-1.4,0-2.5,1.2-2.7,3.1H343.1z"/>
	<path class="st6" d="M362.6,111.7h8.6v27.7h-8.6V111.7z"/>
	<path class="st6" d="M373.1,133.5L373.1,133.5c0-4.2,3.1-6.5,7.9-6.5c1.7,0,4,0.4,4.9,0.8v-0.3c0-1.9-1.2-3-3.8-3
		c-2.1,0-3.9,0.5-5.7,1.2l-1.5-5.7c2.4-0.9,5.1-1.5,8.7-1.5c4.2,0,7,0.9,8.8,2.7c1.6,1.6,2.2,3.6,2.2,6.6v11.8h-8.6v-2.1
		c-1.4,1.6-3.4,2.6-6,2.6C375.9,139.9,373.1,137.6,373.1,133.5z M385.9,131.7v-0.9c-0.5-0.2-1.3-0.3-2-0.3c-1.7,0-2.7,1-2.7,2.3v0.1
		c0,1.2,0.9,2,2,2C384.8,134.9,385.9,133.7,385.9,131.7z"/>
	<path class="st6" d="M405.9,129.2L405.9,129.2c0-6.3,4.4-11,10.7-11c7.4,0,10.8,5.1,10.8,11.4c0,0.5,0,1,0,1.4H414
		c0.6,1.8,2.1,2.8,3.9,2.8c1.6,0,2.8-0.7,4.2-2.1l4.6,3.7c-2.1,2.7-5,4.5-9.5,4.5C410.5,139.9,405.9,135.6,405.9,129.2z
		 M419.5,127.3c-0.2-2-1.4-3.1-2.9-3.1c-1.4,0-2.5,1.2-2.7,3.1H419.5z"/>
	<path class="st6" d="M427.8,136.9l2.9-4.9c2.5,1.6,5.3,2.3,7.7,2.3c0.8,0,1.3-0.2,1.3-0.7v-0.1c0-0.4-0.4-0.7-2.5-1.2
		c-5.2-1.3-8.5-2.7-8.5-7v-0.1c0-4.6,3.6-7.1,9-7.1c3.4,0,6.8,0.9,9.3,2.4l-2.7,5.1c-2.2-1.2-4.9-1.9-6.6-1.9
		c-0.8,0-1.2,0.2-1.2,0.6v0.1c0,0.4,0.5,0.7,2.5,1.2c5.2,1.3,8.4,2.7,8.4,7v0.1c0,4.5-3.4,7.1-9,7.1
		C434.4,139.9,430.7,138.9,427.8,136.9z"/>
	<path class="st6" d="M463.7,136.9c-1.4,1.5-3,3-6.2,3c-5,0-8.9-4.4-8.9-10.7v-0.1c0-6.6,4-10.9,8.9-10.9c3.2,0,4.9,1.4,6.2,2.8
		v-2.4h8.6v26.8h-8.6V136.9z M463.9,129.1L463.9,129.1c0-2.1-1.5-3.8-3.5-3.8s-3.5,1.6-3.5,3.7v0.1c0,2.1,1.5,3.7,3.5,3.7
		S463.9,131.2,463.9,129.1z"/>
	<path class="st6" d="M474.7,132.3v-13.7h8.6v10.9c0,1.8,1.1,2.8,2.4,2.8s2.5-1,2.5-2.8v-10.9h8.6v20.7h-8.6v-2.8
		c-1.3,1.7-3.4,3.3-6.3,3.3C477.5,139.9,474.7,137,474.7,132.3z"/>
	<path class="st6" d="M499.3,111.7h8.9v5.5h-8.9V111.7z M499.5,118.7h8.6v20.7h-8.6V118.7z"/>
	<path class="st6" d="M510.8,118.7h8.6v2.9c1.3-1.7,3.4-3.4,6.3-3.4c4.4,0,7.1,2.9,7.1,7.6v13.7h-8.6v-10.9c0-1.8-1.1-2.8-2.4-2.8
		c-1.3,0-2.5,1-2.5,2.8v10.9h-8.6V118.7z"/>
	<path class="st6" d="M534.5,133.5L534.5,133.5c0-4.2,3.1-6.5,7.9-6.5c1.7,0,4,0.4,4.9,0.8v-0.3c0-1.9-1.2-3-3.8-3
		c-2.1,0-3.9,0.5-5.7,1.2l-1.5-5.7c2.4-0.9,5.1-1.5,8.7-1.5c4.2,0,7,0.9,8.8,2.7c1.6,1.6,2.2,3.6,2.2,6.6v11.8h-8.6v-2.1
		c-1.4,1.6-3.4,2.6-6,2.6C537.3,139.9,534.5,137.6,534.5,133.5z M547.4,131.7v-0.9c-0.5-0.2-1.3-0.3-2-0.3c-1.7,0-2.7,1-2.7,2.3v0.1
		c0,1.2,0.9,2,2,2C546.2,134.9,547.4,133.7,547.4,131.7z"/>
</g>
</svg>
