<?xml version="1.0" encoding="utf-8"?>
<!-- Generator: Adobe Illustrator 18.1.1, SVG Export Plug-In . SVG Version: 6.00 Build 0)  -->
<svg version="1.1" id="Layer_1" xmlns="http://www.w3.org/2000/svg" xmlns:xlink="http://www.w3.org/1999/xlink" x="0px" y="0px"
	 viewBox="0 0 800 550" enable-background="new 0 0 800 550" xml:space="preserve">
<rect x="373.5" y="285" fill="#909090" width="48.1" height="264.9"/>
<rect x="130.6" y="266.9" fill="#A29090" width="538.3" height="30.1"/>
<rect x="161.1" y="266.9" fill="#585959" width="4.2" height="30.1"/>
<rect x="204.4" y="266.9" fill="#585959" width="4.2" height="30.1"/>
<rect x="247.7" y="266.9" fill="#585959" width="4.2" height="30.1"/>
<rect x="291.1" y="266.9" fill="#585959" width="4.2" height="30.1"/>
<rect x="334.5" y="266.9" fill="#585959" width="4.2" height="30.1"/>
<rect x="377.8" y="266.9" fill="#585959" width="4.2" height="30.1"/>
<rect x="421.1" y="266.9" fill="#585959" width="4.2" height="30.1"/>
<rect x="464.5" y="266.9" fill="#585959" width="4.2" height="30.1"/>
<rect x="507.9" y="266.9" fill="#585959" width="4.2" height="30.1"/>
<rect x="551.2" y="266.9" fill="#585959" width="4.2" height="30.1"/>
<rect x="594.5" y="266.9" fill="#585959" width="4.2" height="30.1"/>
<rect x="637.9" y="266.9" fill="#585959" width="4.2" height="30.1"/>
<rect x="107.1" y="296.4" fill="#CAC2B7" width="585.7" height="7.8"/>
<rect x="149.9" y="289.8" fill="#585959" width="45.8" height="9.6"/>
<rect x="263.1" y="289.8" fill="#585959" width="45.8" height="9.6"/>
<rect x="376.3" y="289.8" fill="#585959" width="45.8" height="9.6"/>
<rect x="489.5" y="289.8" fill="#585959" width="45.8" height="9.6"/>
<rect x="602.7" y="289.8" fill="#585959" width="45.8" height="9.6"/>
<rect x="116.1" y="9.2" fill="#BA252B" width="566" height="269.8"/>
<polygon opacity="0.61" fill="#C93641" points="183.5,292.5 248.5,9 116,9.8 160.1,293.3 "/>
<polygon opacity="0.61" fill="#C93641" points="296.2,292.6 361.2,9.2 207.1,9.2 272.9,293.5 "/>
<polygon opacity="0.61" fill="#C93641" points="412.3,292.6 477.3,9.2 323.1,9.2 388.9,293.5 "/>
<polygon opacity="0.61" fill="#C93641" points="525.4,292.6 590.4,9.2 436.3,9.2 502.1,293.5 "/>
<polygon opacity="0.61" fill="#C93641" points="638.5,292.5 681.3,9.1 549.5,9 615.3,293.3 "/>
<g>
	<g>
		<path fill="#FFFFFF" d="M321.3,139c-4-3.2-9.5-4.7-16.6-4.9c-2.9,0-5.3,0.3-7,0.9c-1.5,0.5-3.4,1.8-5.9,3.7
			c-0.8-0.8-2.1-2-4.1-3.7c-3.7-2.8-8.7-4.2-14.9-4.4c-4.6,0-11.3,1.2-20.2,4c-8.8,2.6-15.6,4-20.2,4c-7.9-0.1-14.9-3.8-21.1-11.1
			c-2.2-2.8-3.3-7-3.3-12.7c-4.5-1.7-8.7-4.4-12.7-8.2c-9,9.6-16.9,14.4-23.7,14.2c-3.3,0-5.8-1.1-7.6-2.9c-1.8-2-2.6-4.5-2.6-7.8
			c0-2.8,0.8-5,2.2-6.9c1.6-2.1,3.7-3.2,6.3-3c1.7,0,3,0.5,4.1,1.5c1.1,0.9,1.6,2.2,1.6,4c0,2.1-0.9,3.6-2.5,4.5
			c-1.5,0.5-2.9,0.9-4.4,1.5c-1.8,0.8-2.9,1.7-2.9,2.9c0,1.3,0.7,2.4,2.1,3.2c1.2,0.5,2.5,0.9,4,0.9c5.8,0.1,12.9-4.6,21.6-13.8
			c-0.7-0.9-1.5-2.5-2.6-4.5s-1.7-3.7-1.7-4.9c0-2.4,1.3-4.2,3.8-5.7c2.2-1.3,4.5-2,7-1.8c2.1,0,4.4,0.7,6.6,1.7
			c5.5-6.7,12-13.6,19.5-20.7c10.3-9.8,17.5-14.6,21.8-14.5c0.5,0,0.8,0.3,0.8,0.9c0,0.5-1.1,2.6-3,6.6c-9.1,17.3-17.1,34.5-24.1,52
			c2.2-0.3,4.5-1.3,6.9-3c1.2-0.9,3-2.8,5.4-5.3l2,1.8c-2.8,2.9-5,4.9-6.9,6.2c-2.6,1.8-5.5,2.9-8.6,3.3c0,5.1,1.3,9.2,4.1,12.3
			c3,3.3,7.3,5,12.7,5.1c2.1,0,4.7-0.3,7.6-1.1c2.5-0.7,5-1.2,7.5-1.8c6.6-1.6,12-2.8,16.4-3.7c1.8-0.3,5.3-0.9,10.3-1.7
			c4-0.7,7-1.1,9-1.1C300.8,124.9,312,129.6,321.3,139z M201.3,95.5c-0.5-0.4-0.9-0.7-1.3-0.9h-0.1c-1.7-0.7-3.3-1.1-4.9-1.1
			s-2.4,1.1-2.4,3.2c0,0.9,0.9,2.9,2.6,5.5C196.9,100.5,198.9,98.2,201.3,95.5z M214.7,101.5c-4.6-0.7-7.5-1.1-8.4-0.9
			c-1.2-1.3-2.1-2.4-3-3.2c-2.4,2.8-4.5,5.1-6.3,7.3c4.2,4.1,8.3,6.7,12,7.8C210.4,109.2,212.4,105.5,214.7,101.5z M242.4,58.7
			c-5,2.6-10.9,7.5-17.9,14.6c-3,3-8.3,9-15.8,17.5c3,2,5.5,4.7,7.4,8C221.6,89.8,230.3,76.3,242.4,58.7z"/>
	</g>
	<path fill="#FFFFFF" d="M292.4,64c0,1.7-0.7,3.4-1.7,5.4c-4.7,8-11.6,16-20.6,23.6c-1.6,1.3-3.8,3.2-7,5.7
		c-0.7,0.5-1.5,2.1-2.2,4.6c-0.8,2.4-1.2,4.1-1.2,5.3l0.8,1.7c0.1,0,0.3,0.1,0.4,0.1c1.1,0,2.5-1.1,4.5-3.3c2-2.2,3.2-3.3,3.8-3.3
		c0.3,0,0.4,0.1,0.4,0.4c0,0.5-1.1,2.1-3.2,4.6c-4.4,5-7.4,7.4-9.4,7.4c-1.2,0-2.2-0.5-3-1.3c-0.8-0.9-1.2-2-1.2-3.2
		c0-3,0.9-6.7,2.6-11.2c3.2-8.2,7.8-16.4,14-24.3c7.6-9.9,14.1-14.8,19.4-14.8C291.1,61.4,292.4,62.4,292.4,64z M290.2,65.3
		c-0.5-0.9-0.9-1.5-1.2-1.5c-3.2,0-8,4.5-14.4,13.5c-5.4,7.6-9,13.8-10.8,18.6c4.1-2.6,9.1-7.3,15.3-14
		C285.8,74.4,289.5,69,290.2,65.3z"/>
	<path fill="#FFFFFF" d="M299.4,88.5c-0.8,2.8-2.5,6.3-5.4,10.5c-3,4.6-5,8-5.9,10.2l0.7,0.4c2-0.7,3.7-2,5.3-4.2
		c1.6-2.2,2.5-3.4,2.8-3.6h0.3c0.1,0.3,0.3,0.5,0.3,0.8c0,2-1.7,4.6-5.1,8c-3.4,3.4-6.1,5.1-8,5c-1.6,0-2.6-0.4-3.2-1.2
		c-0.1-0.1-0.5-1.3-1.2-3.2c-1.7,2.9-4,4.2-6.7,4.2c-1.3,0-2.4-0.5-3.4-1.7c-0.9-1.1-1.5-2.4-1.5-3.6c0-3.7,2.5-8.3,7.5-13.8
		c5-5.5,9.2-8.3,12.8-8.3c0.4,0,1.1,0.3,2,0.8s1.6,0.8,2.1,0.8c0.3-0.1,0.5-0.4,0.5-0.9c0.5-0.4,1.6-0.7,3-0.5
		C297.4,88.2,298.6,88.3,299.4,88.5z M291.1,91.8c-0.1-0.7-0.5-0.9-1.3-0.9c-0.7,0-1.5,0.3-2.2,0.9v-0.1c-2.4,2-4.6,4.5-6.9,7.6
		c-2.5,3.7-3.8,6.7-3.8,9.2c0,1.1,0.4,1.6,1.2,1.6c1.1,0,3.4-2.6,7-8C288.3,97.2,290.3,93.8,291.1,91.8z"/>
	<path fill="#FFFFFF" d="M342.5,97.4c0,0.3-0.3,0.7-0.8,1.2c-4.6,4.4-8.3,6.6-11.2,6.5c-0.5,0-1.2,0-1.8,0c-0.8,1.5-2.4,3.2-4.5,5.1
		c-2.1,2-4,3.4-5.5,4.4c-1.6,0.9-3.2,1.5-4.9,1.5c-1.3,0-2.4-0.5-3.4-1.7c-0.9-1.1-1.5-2.4-1.5-3.6c0-0.9,0.3-2,0.8-3l8.6-18.3
		l8.3-0.5c-2,2.5-3.8,5.5-5.8,9c-2.2,4.2-3.4,7.5-3.4,9.8c0,0.5,0.1,1.1,0.4,1.8c0.3,0.7,0.7,1.1,1.1,1.1c2.8,0,5.5-2,8.3-6.1
		c-1.5-1.5-2.2-3.2-2.2-5.1c0-2.5,0.9-5.3,2.6-8.3c2-3.3,4.1-5,6.5-5c2.1,0,3,1.5,3,4.4c0,3.6-2.5,8-7.3,13.5h0.7c1.7,0,4-1.2,7-3.4
		c2.9-2.4,4.4-3.4,4.4-3.4C342.4,96.9,342.5,97.2,342.5,97.4z M335,93.2c0-0.9-0.4-1.3-1.3-1.3c-1.7,0-3.2,0.8-4.6,2.5
		c-1.3,1.7-2.1,3.3-2.1,5c0,1.5,0.5,2.8,1.5,3.8C332.7,98.5,335,95.1,335,93.2z"/>
	<path fill="#FFFFFF" d="M369.1,89.4l-6.2,10.2c-0.8,1.2-1.8,2.9-3.3,5.1c-1.2,1.8-2.1,3.7-2.8,5.4l0.7,0.4c2-0.7,3.7-2,5.3-4.2
		c1.6-2.2,2.5-3.4,2.8-3.6h0.3c0.1,0.3,0.3,0.5,0.3,0.8c0,2-1.7,4.6-5.1,8c-3.4,3.4-6.1,5.1-8,5c-1.6,0-2.6-0.4-3.2-1.2
		c-0.1-0.1-0.5-1.3-1.2-3.2c-1.7,2.9-4,4.2-6.7,4.2c-1.3,0-2.4-0.5-3.4-1.7c-0.9-1.1-1.5-2.4-1.5-3.6c0-0.9,0.3-2,0.8-3l8.6-18.3
		l8.3-0.5c-2,2.5-3.8,5.5-5.8,9c-2.2,4.2-3.4,7.5-3.4,9.8c0,0.5,0.1,1.2,0.4,1.7c0.3,0.8,0.7,1.2,1.2,1.2c1.3,0,3.8-3,7.6-9.2
		c2.9-4.6,5.1-8.6,6.6-11.7L369.1,89.4z"/>
	<path fill="#FFFFFF" d="M389.6,94.4c0,3.4-1.8,6.3-5.4,8.7c-2.8,2-6.2,3.4-10,4.1c-0.8,1.8-1.2,3.3-1.2,4.2c0,1.2,0.4,1.7,1.3,1.7
		c2,0,4.1-0.8,6.2-2.5c0.9-0.8,2.5-2.4,4.6-4.7c1.6-1.7,2.6-2.5,3.2-2.5c0.1,0,0.3,0.1,0.3,0.4c0,0.5-1.5,2.6-4.5,6.2
		c-4.1,5-8.3,7.5-12.7,7.5c-4.1,0-6.1-2-5.9-5.8c0-4.6,2.1-9.5,6.3-14.5c4.4-5.3,8.8-7.9,13.3-7.9C388.3,89.4,389.7,91.1,389.6,94.4
		z M386.5,93.8c0-0.7-0.1-1.3-0.4-1.7c-0.1-0.1-0.4-0.1-0.7-0.1c-1.6,0-3.7,1.8-6.2,5.8c-1.8,2.9-3.4,5.5-4.6,8.2
		c2.6-0.7,5.3-2.1,7.6-4.5C385.2,98.8,386.5,96.3,386.5,93.8z"/>
	<path fill="#FFFFFF" d="M427.6,65.5c0,1.7-0.7,3.4-1.7,5.4c-4.7,8-11.6,16-20.6,23.6c-1.6,1.3-3.8,3.2-7,5.7
		c-0.7,0.5-1.5,2.1-2.2,4.6c-0.8,2.4-1.2,4.1-1.2,5.3l0.8,1.7c0.1,0,0.3,0.1,0.4,0.1c1.1,0,2.5-1.1,4.5-3.3c2-2.2,3.2-3.3,3.8-3.3
		c0.3,0,0.4,0.1,0.4,0.4c0,0.5-1.1,2.1-3.2,4.6c-4.4,5-7.4,7.4-9.4,7.4c-1.2,0-2.2-0.5-3-1.3c-0.8-0.9-1.2-2-1.2-3.2
		c0-3,0.9-6.7,2.6-11.2c3.2-8.2,7.8-16.4,14-24.3C412.3,67.9,418.7,63,424,63C426.4,63.2,427.6,64,427.6,65.5z M425.4,66.9
		c-0.5-0.9-0.9-1.5-1.2-1.5c-3.2,0-8,4.5-14.4,13.5c-5.4,7.6-9,13.8-10.8,18.6c4.1-2.6,9.1-7.3,15.3-14
		C421.1,76.1,424.8,70.5,425.4,66.9z"/>
	<path fill="#FFFFFF" d="M435.1,69.8l-5.8,10.8h5.4l-0.5,2l-6.3-0.1L415.6,105c-0.9,1.6-1.3,3.4-1.3,5.5l0.8,1.7
		c0.1,0,0.3,0.1,0.4,0.1c1.1,0,2.5-1.1,4.5-3.3c2-2.2,3.2-3.3,3.8-3.3c0.3,0,0.4,0.1,0.4,0.4c0,0.5-1.1,2.1-3.2,4.6
		c-4.4,5-7.4,7.4-9.4,7.4c-1.2,0-2.2-0.5-3-1.3c-0.8-0.9-1.2-2-1.2-3.2c0-4,1.3-8.8,4-14.4c0.5-1.3,3-5.8,7.3-13.3l8.8-15.8
		L435.1,69.8z"/>
	<path fill="#FFFFFF" d="M453.7,90.3c-0.8,2.8-2.5,6.3-5.4,10.5c-3,4.6-5,8-5.9,10.2l0.7,0.4c2-0.7,3.7-2,5.3-4.2
		c1.6-2.2,2.5-3.4,2.8-3.6h0.3c0.1,0.3,0.3,0.5,0.3,0.8c0,2-1.7,4.6-5.1,8s-6.1,5.1-8,5c-1.6,0-2.6-0.4-3.2-1.2
		c-0.1-0.1-0.5-1.3-1.2-3.2c-1.7,2.9-4,4.2-6.7,4.2c-1.3,0-2.4-0.5-3.4-1.7c-0.9-1.1-1.5-2.4-1.5-3.6c0-3.7,2.5-8.3,7.5-13.8
		c5-5.5,9.2-8.3,12.8-8.3c0.4,0,1.1,0.3,2,0.8c0.9,0.5,1.6,0.8,2.1,0.8c0.3-0.1,0.5-0.4,0.5-0.9c0.5-0.4,1.6-0.7,3-0.5
		C451.8,90.1,452.9,90.1,453.7,90.3z M445.4,93.6c-0.1-0.7-0.5-0.9-1.3-0.9c-0.7,0-1.5,0.3-2.2,0.9v-0.1c-2.4,2-4.6,4.5-6.9,7.6
		c-2.5,3.7-3.8,6.7-3.8,9.2c0,1.1,0.4,1.6,1.2,1.6c1.1,0,3.4-2.6,7-8C442.6,99,444.6,95.6,445.4,93.6z"/>
	<path fill="#FFFFFF" d="M396.2,124.3c-1.2,3-3.3,7.6-6.2,13.6c-1.3,2.6-2.6,5.5-4.1,8.4c-1.6,3.2-3.2,5.9-4.7,8
		c-2.9,4.2-4.9,7.8-5.9,10.4l0.7,0.4c2-0.7,3.6-2,5-4.1s2.4-3.3,2.9-3.7h0.3c0.1,0.3,0.3,0.5,0.3,0.8c0,2-1.7,4.6-5.1,8
		s-6.1,5.1-8,5c-1.6,0-2.6-0.4-3.2-1.2c-0.1-0.1-0.5-1.3-1.2-3.2c-1.7,2.9-4,4.2-6.7,4.2c-1.3,0-2.4-0.5-3.4-1.7
		c-0.9-1.1-1.5-2.4-1.5-3.6c0-4.1,3.4-9.6,10.3-16.6c3.7-3.7,7-5.7,10-5.5c0.4,0,1.1,0.3,2,0.8c0.9,0.5,1.6,0.8,2.1,0.8
		c0.1-0.1,0.4-0.4,0.5-1.1c0.3-0.8,1.1-2.9,2.6-6.5c2.8-6.5,5-11.5,7-15l4.1-0.1C394.7,123,395.5,123.4,396.2,124.3z M378.1,147.6
		c-0.1-0.7-0.5-0.9-1.3-0.9c-0.7,0-1.5,0.3-2.2,0.9v-0.1c-2.4,2-4.6,4.5-6.9,7.6c-2.5,3.7-3.8,6.7-3.8,9.2c0,1.1,0.4,1.6,1.2,1.6
		c1.1,0,3.4-2.6,7-8C375.3,153,377.3,149.5,378.1,147.6z"/>
	<path fill="#FFFFFF" d="M407.4,149.4c0,3.4-1.8,6.3-5.4,8.7c-2.8,2-6.2,3.4-10,4.1c-0.8,1.8-1.2,3.3-1.2,4.2c0,1.2,0.4,1.7,1.3,1.7
		c2,0,4.1-0.8,6.2-2.5c0.9-0.8,2.5-2.4,4.6-4.7c1.6-1.7,2.6-2.5,3.2-2.5c0.1,0,0.3,0.1,0.3,0.4c0,0.5-1.5,2.6-4.5,6.2
		c-4.1,5-8.3,7.5-12.7,7.5c-4.1,0-6.1-2-5.9-5.8c0-4.6,2.1-9.5,6.3-14.5c4.4-5.3,8.8-7.9,13.3-7.9
		C405.9,144.3,407.4,146,407.4,149.4z M404.4,148.7c0-0.7-0.1-1.3-0.4-1.7c-0.1-0.1-0.4-0.1-0.7-0.1c-1.6,0-3.7,1.8-6.2,5.8
		c-1.8,2.9-3.4,5.5-4.6,8.2c2.6-0.7,5.3-2.1,7.6-4.5C403,153.8,404.4,151.2,404.4,148.7z"/>
	<path fill="#FFFFFF" d="M457.4,120.7c0,1.7-0.7,3.4-1.7,5.4c-4.7,8-11.6,16-20.6,23.6c-1.6,1.3-3.8,3.2-7,5.7
		c-0.7,0.5-1.5,2.1-2.2,4.6c-0.8,2.4-1.2,4.1-1.2,5.3l0.8,1.7c0.1,0,0.3,0.1,0.4,0.1c1.1,0,2.5-1.1,4.5-3.3c2-2.2,3.2-3.3,3.8-3.3
		c0.3,0,0.4,0.1,0.4,0.4c0,0.5-1.1,2.1-3.3,4.6c-4.4,5-7.4,7.4-9.4,7.4c-1.2,0-2.2-0.5-3-1.3c-0.8-0.9-1.2-2-1.2-3.2
		c0-3,0.9-6.7,2.6-11.2c3.2-8.2,7.8-16.4,14-24.3c7.6-9.9,14.1-14.8,19.4-14.8C456.2,118.1,457.4,119.1,457.4,120.7z M455.3,122
		c-0.5-0.9-0.9-1.5-1.2-1.5c-3.2,0-8,4.5-14.4,13.5c-5.4,7.6-9,13.8-10.8,18.6c4.1-2.6,9.1-7.3,15.3-14
		C450.9,131.1,454.6,125.7,455.3,122z"/>
	<path fill="#FFFFFF" d="M464.3,145.2c-0.8,2.8-2.5,6.3-5.4,10.5c-3,4.6-5,8-5.9,10.2l0.7,0.4c2-0.7,3.7-2,5.3-4.2s2.5-3.4,2.8-3.6
		h0.3c0.1,0.3,0.3,0.5,0.3,0.8c0,2-1.7,4.6-5.1,8c-3.4,3.4-6.1,5.1-8,5c-1.6,0-2.6-0.4-3.2-1.2c-0.1-0.1-0.5-1.3-1.2-3.2
		c-1.7,2.9-4,4.2-6.7,4.2c-1.3,0-2.4-0.5-3.4-1.7c-0.9-1.1-1.5-2.4-1.5-3.6c0-3.7,2.5-8.3,7.5-13.8c5-5.5,9.2-8.3,12.8-8.3
		c0.4,0,1.1,0.3,2,0.8c0.9,0.5,1.6,0.8,2.1,0.8c0.3-0.1,0.5-0.4,0.5-0.9c0.5-0.4,1.6-0.7,3-0.5C462.5,144.9,463.6,145,464.3,145.2z
		 M456.2,148.5c-0.1-0.7-0.5-0.9-1.3-0.9c-0.7,0-1.5,0.3-2.2,0.9v-0.1c-2.4,2-4.6,4.5-6.9,7.6c-2.5,3.7-3.8,6.7-3.8,9.2
		c0,1.1,0.4,1.6,1.2,1.6c1.1,0,3.4-2.6,7-8C453.3,153.9,455.4,150.5,456.2,148.5z"/>
	<path fill="#FFFFFF" d="M496.9,150.5c0,3.4-1.8,6.3-5.4,8.7c-2.8,2-6.2,3.4-10,4.1c-0.8,1.8-1.2,3.3-1.2,4.2c0,1.2,0.4,1.7,1.3,1.7
		c2,0,4.1-0.8,6.2-2.5c0.9-0.8,2.5-2.4,4.6-4.7c1.6-1.7,2.6-2.5,3.2-2.5c0.1,0,0.3,0.1,0.3,0.4c0,0.5-1.5,2.6-4.5,6.2
		c-4.1,5-8.3,7.5-12.7,7.5c-4.1,0-6.1-2-5.9-5.8c0-4.6,2.1-9.5,6.3-14.5c4.4-5.3,8.8-7.9,13.3-7.9
		C495.5,145.3,496.9,147,496.9,150.5z M493.9,149.8c0-0.7-0.1-1.3-0.4-1.7c-0.1-0.1-0.4-0.1-0.7-0.1c-1.6,0-3.7,1.8-6.2,5.8
		c-1.8,2.9-3.4,5.5-4.6,8.2c2.6-0.7,5.3-2.1,7.6-4.5C492.6,154.8,493.9,152.3,493.9,149.8z"/>
	<path fill="#FFFFFF" d="M515.8,160.3c0,3.4-1.6,6.6-4.6,9.5c-3,2.9-6.2,4.4-9.6,4.4c-2.1,0-4-0.5-5.4-1.6c-1.8-1.2-2.8-2.8-2.6-4.6
		c0-1.2,0.4-2.1,1.2-2.9c0.8-0.8,1.7-1.2,2.9-1.1c2.1,0,3.3,1.2,3.2,3.4c0,0.8-0.3,1.5-0.8,2.1c-0.5,0.7-1.2,0.9-2,0.9
		c-0.5,0-0.9,0-1.2,0c0.8,0.9,1.8,1.3,3,1.3c2.9,0,5.1-2.4,6.6-7.1c1.1-3.3,1.6-7,1.6-10.9v-2.4c-0.5,0.4-2.1,1.8-5,4.4
		c-2.9,2.6-4.4,3.8-4.6,3.8c-0.5,0-0.7-0.3-0.7-0.8c0-0.4,1.2-1.7,3.7-3.8c1.6-1.5,3.3-2.9,4.9-4.4c1.8-1.7,3.2-3.3,4.2-4.9
		c0.8-1.2,1.3-1.8,1.8-1.8c0.7,0,1.1,0.4,1.1,1.1c0,0.1-0.4,0.7-1.2,1.7c-0.8,0.9-1.2,1.7-1.2,2.2c0,0.4,0.8,2,2.5,4.7
		C515,156.3,515.8,158.5,515.8,160.3z"/>
	<path fill="#FFFFFF" d="M544.8,147.8l-11.6,20c0.9,1.2,1.5,3.7,1.3,7.4c0,3.6-1.5,7.1-4.4,10.7c-3,3.8-6.2,5.7-9.6,5.7
		c-2.9,0-4.4-1.6-4.2-4.7c0-3.6,2.8-8.3,8-14.4l-0.1-0.3h-0.1c-0.7,0-1.6,0.3-2.8,0.7c-1.2,0.4-2.1,0.7-2.8,0.7
		c-2.5,0-3.8-1.6-3.8-4.7c0-4.1,2.1-8.6,6.2-13.5c4.2-5.1,8.3-7.6,12.3-7.5c0.5,0,1.3,0.3,2.2,0.7c0.1,0.1,0.4,0.3,0.5,0.3
		c0.4,0,0.7-0.1,0.8-0.3L544.8,147.8z M535.2,150.7c0-0.1,0-0.4-0.1-0.5c-0.8,0-1.6,0.4-2.5,1.2v-0.1c-4.1,3-6.9,6.1-8.2,9
		c-1.7,3.7-2.6,6.7-2.8,8.8v0.8l0.1-0.1c0.1,0.7,0.5,1.1,1.2,1.1c0.8,0,1.6-0.3,2.4-0.8c0.8-1.8,2.9-5.7,6.1-11.6
		c0.5-0.9,1.3-2.2,2.4-4.1C534.6,152.6,535.2,151.2,535.2,150.7z M533.3,174.3c0-1.5-0.3-3.2-0.9-5.1c-7.3,12.5-10.9,19.1-10.9,19.9
		c0,0.7,0.3,0.9,0.8,0.9c0.5,0,1.3-0.3,2.4-0.9c2.4-1.5,4.4-3.6,6.1-6.5C532.4,179.7,533.2,177,533.3,174.3z"/>
	<path fill="#FFFFFF" d="M570.5,146.5l-6.2,10.2c-0.8,1.2-1.8,2.9-3.3,5.1c-1.2,1.8-2.1,3.7-2.8,5.4l0.7,0.4c2-0.7,3.7-2,5.3-4.2
		c1.6-2.2,2.5-3.4,2.8-3.6h0.3c0.1,0.3,0.3,0.5,0.3,0.8c0,2-1.7,4.6-5.1,8c-3.4,3.4-6.1,5.1-8,5c-1.6,0-2.6-0.4-3.2-1.2
		c-0.1-0.1-0.5-1.3-1.2-3.2c-1.7,2.9-4,4.2-6.7,4.2c-1.3,0-2.4-0.5-3.4-1.7c-0.9-1.1-1.5-2.4-1.5-3.6c0-0.9,0.3-2,0.8-3l8.6-18.3
		l8.3-0.5c-2,2.5-3.8,5.5-5.8,9c-2.2,4.2-3.4,7.5-3.4,9.8c0,0.5,0.1,1.2,0.4,1.7c0.3,0.8,0.7,1.2,1.2,1.2c1.3,0,3.8-3,7.6-9.2
		c2.9-4.6,5.1-8.6,6.6-11.7L570.5,146.5z"/>
	<path fill="#FFFFFF" d="M583.3,161.3c0,2.1-1.7,4.9-5.3,8.2c-3.4,3.3-6.3,5-8.4,5c-2.4,0-3.4-1.7-3.4-4.9c0-1.7,0.7-3.7,2-5.9
		l3.3-5.5c0.4-0.9,1.7-3.7,3.8-8.6l7.6,0.1c-4,6.7-7,12.9-8.8,18.3l0.7,0.5c1.8-0.7,3.4-1.8,4.6-3.8c1.3-2.2,2.5-3.6,3.3-4h0.3
		C583.2,160.7,583.3,160.9,583.3,161.3z M587.1,140.3c0,1.7-0.3,2.8-0.9,3.3c-0.5,0.5-1.7,0.8-3.4,0.8c-2,0-2.9-0.5-2.9-1.5v-3.2
		c0-0.7,0.7-1.2,1.8-1.8c1.2-0.5,2.2-0.9,2.9-0.9C586.3,137.1,587.1,138.2,587.1,140.3z"/>
	<path fill="#FFFFFF" d="M613.9,164.6c-0.1,1.1-1.2,2.6-3,4.5c-1.8,2-3.3,3.3-4.4,3.8c-1.6,0.8-3.6,1.3-6.1,1.2
		c-3.3,0-4.9-1.6-4.9-4.6c0-0.9,1.1-3.4,3.3-7.5c2.1-4.1,3.3-7.4,3.3-9.9v-0.9l-0.1,0.1c-0.1-0.8-0.4-1.2-1.1-1.2l-0.1-0.1
		c-0.7,0-2,0.9-3.7,2.6c-1.5,1.5-2.5,2.6-3.2,3.7c-1.3,1.8-2.8,4.9-4.2,8.7c-1.7,4.6-2.9,7.6-3.7,9l-9,0.5l7.3-15
		c0.4-0.7,0.9-1.7,1.7-3.2c0.8-1.5,1.2-2.4,1.2-3c0-0.8-0.3-1.2-0.7-1.2c-0.1,0-0.9,0.7-2.2,2.1c-1.3,1.3-2.1,2.1-2.5,2.1
		c0,0-0.1-0.1-0.3-0.1l-0.1-0.3c0.1-0.9,1.5-2.8,4.1-5.5s4.4-4.2,5.3-4.2c2.1,0,3.2,1.8,3.2,5.5c0,0.4,0.1,0.7,0.4,0.7
		c-0.1,0,1.1-0.8,3.6-2.2c2.5-1.6,4.5-2.2,5.9-2.2c3.2,0,4.7,1.7,4.7,4.9c0,2.1-1.1,5.1-3.2,9.2c-2.1,4.1-3.2,6.3-3.2,6.7
		c0,0.3,0.3,0.5,0.8,1.1c2.5,0,4.9-0.8,7-2.5C611.4,166.5,612.4,165.6,613.9,164.6L613.9,164.6z"/>
	<path fill="#FFFFFF" d="M643.8,147.3c-0.8,2.8-2.5,6.3-5.4,10.5c-3,4.6-5,8-5.9,10.2l0.7,0.4c2-0.7,3.7-2,5.3-4.2
		c1.6-2.2,2.5-3.4,2.8-3.6h0.3c0.1,0.3,0.3,0.5,0.3,0.8c0,2-1.7,4.6-5.1,8c-3.4,3.4-6.1,5.1-8,5c-1.6,0-2.6-0.4-3.2-1.2
		c-0.1-0.1-0.5-1.3-1.2-3.2c-1.7,2.9-4,4.2-6.7,4.2c-1.3,0-2.4-0.5-3.4-1.7c-0.9-1.1-1.5-2.4-1.5-3.6c0-3.7,2.5-8.3,7.5-13.8
		c5-5.5,9.2-8.3,12.8-8.3c0.4,0,1.1,0.3,2,0.8c0.9,0.5,1.6,0.8,2.1,0.8c0.3-0.1,0.5-0.4,0.5-0.9c0.5-0.4,1.6-0.7,3-0.5
		C642,147,643,147.2,643.8,147.3z M635.5,150.6c-0.1-0.7-0.5-0.9-1.3-0.9c-0.7,0-1.5,0.3-2.1,0.9v-0.1c-2.4,2-4.6,4.5-6.9,7.6
		c-2.5,3.7-3.8,6.7-3.8,9.2c0,1.1,0.4,1.6,1.2,1.6c1.1,0,3.4-2.6,7-8C632.7,156,634.7,152.6,635.5,150.6z"/>
	<path fill="#FFFFFF" d="M585.9,194.1c-60.4,11.7-121.1,21.5-183.3,22.8c-50.4,1.1-100-3.3-148.6-14.2
		c-48.7-11.1-138.2-69.4-138.2-60.9c0,3.4-0.7,1.8-0.7,7.1V207c2.6,0.7,5,1.2,7.1,2c52,18.9,106.7,26.2,162.9,25.3
		c36.5-0.7,72.8-4.4,108.9-8.7c59.3-7.3,118.3-17.3,178.3-21c28.4-1.7,56.6-2,84.8,2.4c8.3,1.3,17.3,5.7,25.2,7.1
		c0.1-9-0.1-20.8,0-29.8C649.4,182.9,617.6,187.9,585.9,194.1z"/>
</g>
</svg>
