<?xml version="1.0" encoding="utf-8"?>
<!-- Generator: Adobe Illustrator 18.1.1, SVG Export Plug-In . SVG Version: 6.00 Build 0)  -->
<svg version="1.1" id="Layer_1" xmlns="http://www.w3.org/2000/svg" xmlns:xlink="http://www.w3.org/1999/xlink" x="0px" y="0px"
	 viewBox="0 0 315.9 414.3" enable-background="new 0 0 315.9 414.3" xml:space="preserve">
<g>
	<path fill="#BE1E2D" d="M270.5,103.6c0,0,21.7,17.7,38.4,50.4s-4.1,65.6-43.9,37.7S251.2,114,270.5,103.6z"/>
	<polygon fill="#A31A2B" points="268.5,271.7 131.5,271.7 126.6,227.5 273.4,227.5 	"/>
	<path fill="#F9BD91" d="M229,31.2v64.3h-9.8v21.2c0,0-11,21.6-37.8,0V72.7c0,0-8.1-1.6-8.1-11s9.4-4.9,9.4-4.9V31.2H229z"/>
	<path fill="#E6E7E8" d="M195.3,76.4h32.1c0,0-5.7-9.9-16.1-9.9S195.3,76.4,195.3,76.4z"/>
	<path fill="#E6E7E8" d="M195.3,76.4l-1.5,1.7c0,0,14.1,2.4,18.5-1.7c0,0,10.9,2.1,16.2,1.7l-1.3-2.2
		C227.2,75.9,205.2,73.8,195.3,76.4z"/>
	<path fill="#BE1E2D" d="M130.9,103.6c0,0,55.6-21.5,140.6,0.9l-26.7,149.7c0,0-32.1,2.6-85.9,0L130.9,103.6z"/>
	<path fill="#F9BD91" d="M229,31.2v64.3h-9.8v21.2c0,0-11,21.6-37.8,0V72.7c0,0-8.1-1.6-8.1-11s9.4-4.9,9.4-4.9V31.2H229z"/>
	<path fill="#F9BD91" d="M76.6,137.8c0,0-35.4-7.8-49.6-37c0,0-3-8.5-6.9-8.1s-1.8,7.7-1.8,7.7s-3.6-18-8.8-17.4
		c-5.2,0.6-18.1,6.7-0.9,35.2c0,0,39.2,48.2,72.9,41C81.5,159.3,102.9,139.1,76.6,137.8z"/>
	<path fill="#BE1E2D" d="M134.1,102.4c0,0-18.5,28.3-51.9,33.9c0,0-3.7,20,6.3,25.3c0,0,40.9-7.3,57.1-25.9L134.1,102.4z"/>
	<path fill="#231F20" d="M90.7,161.3c0,0-9-13.3-4.3-25.8l-8.7,1.5c0,0-0.2,21.2,6.4,25.5L90.7,161.3z"/>
	<path fill="#BE1E2D" d="M204,135.4v119.9c0,0-79.4,18-80.2-38.6s6.9-103.1,54.9-118L204,135.4z"/>
	<path fill="#BE1E2D" d="M200.1,135.4v119.9c0,0,79.4,18,80.2-38.6c0.8-56.6-6.9-103.1-54.9-118L200.1,135.4z"/>
	<path fill="#BE1E2D" d="M126.6,232.4c0,0,88.8,81.3,153.7-15.6"/>
	<polygon fill="#A31A2B" points="182.8,375 147.8,375 138.1,251 187.7,251 	"/>
	<polygon fill="#231F20" points="143.8,324.1 184.9,324.1 182.8,375 147.8,375 	"/>
	<path fill="#231F20" d="M147.8,375c0,0-8.3,28.3,16.5,39.3c0,0,27.1-2.2,18.5-39.3C182.8,375,151.7,365.3,147.8,375z"/>
	<polyline fill="#E6E7E8" points="144,326.5 184.9,326.5 186.9,313 141.1,313 144.1,327.2 	"/>
	<polygon fill="#A31A2B" points="260.8,375 225.8,375 216,251 265.7,251 	"/>
	<polygon fill="#231F20" points="221.8,324.1 262.9,324.1 260.8,375 225.8,375 	"/>
	<path fill="#231F20" d="M225.8,375c0,0-8.3,28.3,16.5,39.3c0,0,27.1-2.2,18.5-39.3C260.8,375,229.7,365.3,225.8,375z"/>
	<polyline fill="#E6E7E8" points="222,326.5 262.9,326.5 264.9,313 219.1,313 222,327.2 	"/>
	<path fill="#FFFFFF" d="M185.4,79.4c0,0,10.1-8.1,25.7-8.1s23.1,6.9,23.1,6.9S214.7,118.1,185.4,79.4z"/>
	<path fill="#E6E7E8" d="M30.7,107.2c0,0-26.2,21.3-22.2,44.8l10.9,8c0,0,5-30.9,20.1-42.3C39.4,117.7,36.7,109.7,30.7,107.2z"/>
	<path fill="#BE1E2D" d="M19.5,161.6c0,0,52.1,25.5,111.5-16l-18.6-21.9c0,0-34.3,30.1-72.9-6.1C39.4,117.7,13.4,138.5,19.5,161.6z"
		/>
	<g>
		<path fill="#1B070D" d="M281.9,206.2c0,0,14,6.7,24.4,0c0,0,0.1-6.5-0.6-11.5c-0.7-5,0-13.9,0.6-20.5c0.6-6.6-0.6-21.3-1.5-26.9
			c-0.9-5.6-2.5-9.5-2.5-9.5h-16.2c0,0-2.6,5.9-3.7,12.4c-1,6.5,0,25.3,0,25.3s1.6,15.1,0.5,19C281.8,198.3,281.9,206.2,281.9,206.2
			z"/>
		<path fill="#748267" d="M286.1,137.7h16.2c0,0-2.9-5-3.4-9.1c-0.5-4.2-0.6-8.2-0.6-8.2h-8.5c0,0,0,7.1-0.8,9.7
			C288.2,132.6,286.1,137.7,286.1,137.7z"/>
		<rect x="291.6" y="120.3" fill="#A2AF97" width="1.4" height="17.4"/>
		<rect x="293.7" y="120.3" fill="#5D6852" width="1" height="17.4"/>
		<path fill="#748267" d="M289.8,120.3c0,0-1.4-0.5-1.4-1.9s1.6-2.9,1.6-2.9h7.6c0,0,1.9,0.2,1.9,2.6c0,2.1-1.3,2.1-1.3,2.1H289.8z"
			/>
		<path fill="#BE1E2D" d="M290.1,115.6l0.4,0.5l0.6-0.5l0.7,0.5l0.6-0.5l0.7,0.5l0.7-0.5l0.7,0.5l0.8-0.5c0,0,0.5,0.5,0.5,0.5
			c0.1,0,0.7-0.5,0.7-0.5l0.7,0.6l0.6-0.6l0.6,0.6l0.3-0.6c0,0,0.8-1.3-0.4-1.5h-8C290.2,114,289,114.4,290.1,115.6z"/>
		<rect x="289.6" y="137.7" fill="#414042" width="2.6" height="71.1"/>
		<rect x="283" y="152.2" fill="#BE1E2D" width="22.1" height="13.4"/>
	</g>
	<ellipse fill="#F9BD91" cx="295.7" cy="172.6" rx="20.1" ry="20.6"/>
	<rect x="188.3" y="121.5" fill="#E6E7E8" width="27.7" height="136.6"/>
	<path fill="#FFFFFF" d="M182.6,56.8c0,0-27.1,79.3,22.4,82c36.3,2,43.9-66.3,24-79.6v25.2c0,0-9.3,5.4-8.7-1.9h-10
		c0,0,0.3,7-10.1,3.2c0,0-14.9,2-14.6-28l6.8-8.5l0.2-12.2h-16.7v19.1C175.8,56.3,178.3,54.4,182.6,56.8z"/>
	<polygon fill="#231F20" points="275.4,249 128.7,249 123.8,223.8 280.3,223.8 	"/>
	<rect x="184.9" y="221.1" fill="#FBB040" width="34.2" height="29.9"/>
	<rect x="188.3" y="226.2" fill="#231F20" width="27.7" height="19.9"/>
	<path fill="#E6E7E8" d="M239.8,45c0,3.5-3.8,6.3-8.6,6.3h-51.8c-4.7,0-8.6-2.8-8.6-6.3l0,0c0-3.5,3.8-6.3,8.6-6.3h51.8
		C235.9,38.8,239.8,41.6,239.8,45L239.8,45z"/>
	<path fill="#BE1E2D" d="M233.1,38.9c0,0,1.8-33.1-41.5-33.1s-49.7,43.8-49.7,43.8h6.6c0,0,16.5-21.8,26.8-9.2
		C175.2,40.5,228.8,42.8,233.1,38.9z"/>
	<circle fill="#E6E7E8" cx="145.5" cy="53.9" r="8.9"/>
</g>
</svg>
