<?xml version="1.0" encoding="utf-8"?>
<!-- Generator: Adobe Illustrator 19.0.0, SVG Export Plug-In . SVG Version: 6.00 Build 0)  -->
<svg version="1.1" id="Layer_1" xmlns="http://www.w3.org/2000/svg" xmlns:xlink="http://www.w3.org/1999/xlink" x="0px" y="0px"
	 viewBox="-70.9 176 585.7 550" style="enable-background:new -70.9 176 585.7 550;" xml:space="preserve">
<style type="text/css">
	.st0{fill:#909090;}
	.st1{fill:#A29090;}
	.st2{fill:#585959;}
	.st3{fill:#CAC2B7;}
	.st4{fill:#BA252B;}
	.st5{opacity:0.61;fill:#C93641;enable-background:new    ;}
	.st6{fill:#FFFFFF;}
	.st7{fill:#FFFDFD;}
</style>
<rect x="195.5" y="467" class="st0" width="48.1" height="264.9"/>
<rect x="-47.4" y="448.9" class="st1" width="538.3" height="30.1"/>
<rect x="-16.9" y="448.9" class="st2" width="4.2" height="30.1"/>
<rect x="26.4" y="448.9" class="st2" width="4.2" height="30.1"/>
<rect x="69.7" y="448.9" class="st2" width="4.2" height="30.1"/>
<rect x="113.1" y="448.9" class="st2" width="4.2" height="30.1"/>
<rect x="156.5" y="448.9" class="st2" width="4.2" height="30.1"/>
<rect x="199.8" y="448.9" class="st2" width="4.2" height="30.1"/>
<rect x="243.1" y="448.9" class="st2" width="4.2" height="30.1"/>
<rect x="286.5" y="448.9" class="st2" width="4.2" height="30.1"/>
<rect x="329.9" y="448.9" class="st2" width="4.2" height="30.1"/>
<rect x="373.2" y="448.9" class="st2" width="4.2" height="30.1"/>
<rect x="416.5" y="448.9" class="st2" width="4.2" height="30.1"/>
<rect x="459.9" y="448.9" class="st2" width="4.2" height="30.1"/>
<rect x="-70.9" y="478.4" class="st3" width="585.7" height="7.8"/>
<rect x="-28.1" y="471.8" class="st2" width="45.8" height="9.6"/>
<rect x="85.1" y="471.8" class="st2" width="45.8" height="9.6"/>
<rect x="198.3" y="471.8" class="st2" width="45.8" height="9.6"/>
<rect x="311.5" y="471.8" class="st2" width="45.8" height="9.6"/>
<rect x="424.7" y="471.8" class="st2" width="45.8" height="9.6"/>
<rect x="-61.9" y="191.2" class="st4" width="566" height="269.8"/>
<polygon class="st5" points="5.5,474.5 70.5,191 -62,191.8 -17.9,475.3 "/>
<polygon class="st5" points="118.2,474.6 183.2,191.2 29.1,191.2 94.9,475.5 "/>
<polygon class="st5" points="234.3,474.6 299.3,191.2 145.1,191.2 210.9,475.5 "/>
<polygon class="st5" points="347.4,474.6 412.4,191.2 258.3,191.2 324.1,475.5 "/>
<polygon class="st5" points="460.5,474.5 503.3,191.1 371.5,191 437.3,475.3 "/>
<g>
	<path class="st6" d="M407.9,386.1c-60.4,11.7-121.1,21.5-183.3,22.8c-50.4,1.1-100-3.3-148.6-14.2
		c-48.7-11.1-138.2-69.4-138.2-60.9c0,3.4-0.7,1.8-0.7,7.1V399c2.6,0.7,5,1.2,7.1,2c52,18.9,106.7,26.2,162.9,25.3
		c36.5-0.7,72.8-4.4,108.9-8.7c59.3-7.3,118.3-17.3,178.3-21c28.4-1.7,56.6-2,84.8,2.4c8.3,1.3,17.3,5.7,25.2,7.1
		c0.1-9-0.1-20.8,0-29.8C471.4,374.9,439.6,379.9,407.9,386.1z"/>
</g>
<g>
	<path class="st6" d="M-2.1,288.6h8.8l11.2,26.8H8.2l-1.4-3.6h-9.3l-1.4,3.6h-9.5L-2.1,288.6z M4.7,305.5L2.3,299l-2.4,6.5H4.7z"/>
	<path class="st6" d="M28.5,287.7h8.6v27.7h-8.6C28.5,315.4,28.5,287.7,28.5,287.7z"/>
	<path class="st6" d="M39,309.5L39,309.5c0-4.2,3.1-6.5,7.9-6.5c1.7,0,4,0.4,4.9,0.8v-0.3c0-1.9-1.2-3-3.8-3c-2.1,0-3.9,0.5-5.7,1.2
		l-1.5-5.7c2.4-0.9,5.1-1.5,8.7-1.5c4.2,0,7,0.9,8.8,2.7c1.6,1.6,2.2,3.6,2.2,6.6v11.8h-8.6v-2.1c-1.4,1.6-3.4,2.6-6,2.6
		C41.8,315.9,39,313.6,39,309.5z M51.9,307.7v-0.9c-0.5-0.2-1.3-0.3-2-0.3c-1.7,0-2.7,1-2.7,2.3v0.1c0,1.2,0.9,2,2,2
		C50.8,310.9,51.9,309.7,51.9,307.7z"/>
	<path class="st6" d="M71.2,294.7h9l3.3,10.4l3.4-10.4h8.9l-8.4,20.9h-7.9L71.2,294.7z"/>
	<path class="st6" d="M97.1,308.3v-13.7h8.6v10.9c0,1.8,1.1,2.8,2.4,2.8c1.3,0,2.5-1,2.5-2.8v-10.9h8.6v20.7h-8.6v-2.8
		c-1.3,1.7-3.4,3.3-6.3,3.3C99.8,315.9,97.1,313,97.1,308.3z"/>
	<path class="st6" d="M121.1,305.2L121.1,305.2c0-6.3,4.4-11,10.7-11c7.4,0,10.8,5.1,10.8,11.4c0,0.5,0,1,0,1.4h-13.3
		c0.6,1.8,2.1,2.8,3.9,2.8c1.6,0,2.8-0.7,4.2-2.1l4.6,3.7c-2.1,2.7-5,4.5-9.5,4.5C125.7,315.9,121.1,311.6,121.1,305.2z
		 M134.7,303.3c-0.2-2-1.4-3.1-2.9-3.1c-1.4,0-2.5,1.2-2.7,3.1H134.7z"/>
	<path class="st6" d="M144.5,287.7h8.6v27.7h-8.6V287.7z"/>
	<path class="st6" d="M157.4,308.5v-7.1H155v-6.6h2.4v-5.2h8.6v5.2h4.8v6.6H166v5.2c0,1.6,0.7,2.1,2.1,2.1c0.8,0,1.7-0.2,2.6-0.6
		v6.6c-1.4,0.7-3.4,1.2-5.5,1.2C160.1,315.9,157.4,313.5,157.4,308.5z"/>
	<path class="st6" d="M172,309.5L172,309.5c0-4.2,3.1-6.5,7.9-6.5c1.7,0,4,0.4,4.9,0.8v-0.3c0-1.9-1.2-3-3.8-3
		c-2.1,0-3.9,0.5-5.7,1.2l-1.5-5.7c2.4-0.9,5.1-1.5,8.7-1.5c4.2,0,7,0.9,8.8,2.7c1.6,1.6,2.2,3.6,2.2,6.6v11.8h-8.6v-2.1
		c-1.4,1.6-3.4,2.6-6,2.6C174.8,315.9,172,313.6,172,309.5z M184.8,307.7v-0.9c-0.5-0.2-1.3-0.3-2-0.3c-1.7,0-2.7,1-2.7,2.3v0.1
		c0,1.2,0.9,2,2,2C183.7,310.9,184.8,309.7,184.8,307.7z"/>
	<path class="st6" d="M204.8,305.2L204.8,305.2c0-6.6,4-11,8.9-11c3.2,0,4.9,1.4,6.2,2.8v-9.3h8.6v27.7h-8.6v-2.5
		c-1.4,1.5-3,3-6.2,3C208.7,315.9,204.8,311.5,204.8,305.2z M220.1,305.1L220.1,305.1c0-2.1-1.5-3.8-3.5-3.8s-3.5,1.6-3.5,3.7v0.1
		c0,2.1,1.5,3.7,3.5,3.7S220.1,307.2,220.1,305.1z"/>
	<path class="st6" d="M230.5,305.2L230.5,305.2c0-6.3,4.4-11,10.7-11c7.4,0,10.8,5.1,10.8,11.4c0,0.5,0,1,0,1.4h-13.3
		c0.6,1.8,2.1,2.8,3.9,2.8c1.6,0,2.8-0.7,4.2-2.1l4.6,3.7c-2.1,2.7-5,4.5-9.5,4.5C235.1,315.9,230.5,311.6,230.5,305.2z
		 M244.1,303.3c-0.2-2-1.4-3.1-2.9-3.1c-1.4,0-2.5,1.2-2.7,3.1H244.1z"/>
	<path class="st6" d="M263.6,287.7h8.6v27.7h-8.6V287.7z"/>
	<path class="st6" d="M274.1,309.5L274.1,309.5c0-4.2,3.1-6.5,7.9-6.5c1.7,0,4,0.4,4.9,0.8v-0.3c0-1.9-1.2-3-3.8-3
		c-2.1,0-3.9,0.5-5.7,1.2l-1.5-5.7c2.4-0.9,5.1-1.5,8.7-1.5c4.2,0,7,0.9,8.8,2.7c1.6,1.6,2.2,3.6,2.2,6.6v11.8H287v-2.1
		c-1.4,1.6-3.4,2.6-6,2.6C276.9,315.9,274.1,313.6,274.1,309.5z M286.9,307.7v-0.9c-0.5-0.2-1.3-0.3-2-0.3c-1.7,0-2.7,1-2.7,2.3v0.1
		c0,1.2,0.9,2,2,2C285.8,310.9,286.9,309.7,286.9,307.7z"/>
	<path class="st6" d="M306.9,305.2L306.9,305.2c0-6.3,4.4-11,10.7-11c7.4,0,10.8,5.1,10.8,11.4c0,0.5,0,1,0,1.4H315
		c0.6,1.8,2.1,2.8,3.9,2.8c1.6,0,2.8-0.7,4.2-2.1l4.6,3.7c-2.1,2.7-5,4.5-9.5,4.5C311.5,315.9,306.9,311.6,306.9,305.2z
		 M320.5,303.3c-0.2-2-1.4-3.1-2.9-3.1c-1.4,0-2.5,1.2-2.7,3.1H320.5z"/>
	<path class="st6" d="M328.8,312.9l2.9-4.9c2.5,1.6,5.3,2.3,7.7,2.3c0.8,0,1.3-0.2,1.3-0.7v-0.1c0-0.4-0.4-0.7-2.5-1.2
		c-5.2-1.3-8.5-2.7-8.5-7v-0.1c0-4.6,3.6-7.1,9-7.1c3.4,0,6.8,0.9,9.3,2.4l-2.7,5.1c-2.2-1.2-4.9-1.9-6.6-1.9
		c-0.8,0-1.2,0.2-1.2,0.6v0.1c0,0.4,0.5,0.7,2.5,1.2c5.2,1.3,8.4,2.7,8.4,7v0.1c0,4.5-3.4,7.1-9,7.1
		C335.4,315.9,331.7,314.9,328.8,312.9z"/>
	<path class="st6" d="M364.7,312.9c-1.4,1.5-3,3-6.2,3c-5,0-8.9-4.4-8.9-10.7v-0.1c0-6.6,4-10.9,8.9-10.9c3.2,0,4.9,1.4,6.2,2.8
		v-2.4h8.6v26.8h-8.6V312.9z M364.9,305.1L364.9,305.1c0-2.1-1.5-3.8-3.5-3.8s-3.5,1.6-3.5,3.7v0.1c0,2.1,1.5,3.7,3.5,3.7
		S364.9,307.2,364.9,305.1z"/>
	<path class="st6" d="M375.7,308.3v-13.7h8.6v10.9c0,1.8,1.1,2.8,2.4,2.8s2.5-1,2.5-2.8v-10.9h8.6v20.7h-8.6v-2.8
		c-1.3,1.7-3.4,3.3-6.3,3.3C378.5,315.9,375.7,313,375.7,308.3z"/>
	<path class="st6" d="M400.3,287.7h8.9v5.5h-8.9V287.7z M400.5,294.7h8.6v20.7h-8.6V294.7z"/>
	<path class="st6" d="M411.8,294.7h8.6v2.9c1.3-1.7,3.4-3.4,6.3-3.4c4.4,0,7.1,2.9,7.1,7.6v13.7h-8.6v-10.9c0-1.8-1.1-2.8-2.4-2.8
		c-1.3,0-2.5,1-2.5,2.8v10.9h-8.6v-20.8H411.8z"/>
	<path class="st6" d="M435.5,309.5L435.5,309.5c0-4.2,3.1-6.5,7.9-6.5c1.7,0,4,0.4,4.9,0.8v-0.3c0-1.9-1.2-3-3.8-3
		c-2.1,0-3.9,0.5-5.7,1.2l-1.5-5.7c2.4-0.9,5.1-1.5,8.7-1.5c4.2,0,7,0.9,8.8,2.7c1.6,1.6,2.2,3.6,2.2,6.6v11.8h-8.6v-2.1
		c-1.4,1.6-3.4,2.6-6,2.6C438.3,315.9,435.5,313.6,435.5,309.5z M448.4,307.7v-0.9c-0.5-0.2-1.3-0.3-2-0.3c-1.7,0-2.7,1-2.7,2.3v0.1
		c0,1.2,0.9,2,2,2C447.2,310.9,448.4,309.7,448.4,307.7z"/>
</g>
<g>
	<path class="st7" d="M396.6,440.4l0.6-0.7c0.9,0.8,1.7,1.2,2.9,1.2c1.1,0,1.9-0.6,1.9-1.4v0c0-0.8-0.4-1.2-2.2-1.6
		c-1.9-0.4-2.8-1-2.8-2.4v0c0-1.3,1.2-2.3,2.8-2.3c1.2,0,2.1,0.3,3,1l-0.6,0.7c-0.8-0.6-1.6-0.9-2.4-0.9c-1.1,0-1.8,0.6-1.8,1.4v0
		c0,0.8,0.4,1.2,2.3,1.6c1.9,0.4,2.7,1.1,2.7,2.4v0c0,1.4-1.2,2.4-2.9,2.4C398.7,441.8,397.6,441.3,396.6,440.4z"/>
	<path class="st7" d="M404.8,433.3h0.9v7.5h4.7v0.9h-5.7V433.3z"/>
	<path class="st7" d="M411.4,437.5L411.4,437.5c0-2.3,1.7-4.4,4.3-4.4c2.6,0,4.3,2,4.3,4.3c0,0,0,0,0,0c0,2.3-1.7,4.3-4.3,4.3
		S411.4,439.8,411.4,437.5z M419,437.5L419,437.5c0-1.9-1.4-3.5-3.3-3.5s-3.3,1.5-3.3,3.4v0c0,1.9,1.4,3.5,3.3,3.5
		S419,439.4,419,437.5z"/>
	<path class="st7" d="M421.6,437.5L421.6,437.5c0-2.3,1.7-4.4,4.2-4.4c1.4,0,2.3,0.4,3.1,1.1l-0.6,0.7c-0.6-0.6-1.4-1-2.6-1
		c-1.9,0-3.2,1.6-3.2,3.4v0c0,2,1.3,3.5,3.3,3.5c1,0,1.8-0.4,2.4-0.8V438h-2.6v-0.9h3.5v3.3c-0.8,0.7-2,1.3-3.4,1.3
		C423.2,441.8,421.6,439.9,421.6,437.5z"/>
	<path class="st7" d="M434.5,433.2h0.9l3.8,8.5h-1l-1-2.2h-4.6l-1,2.2h-1L434.5,433.2z M436.8,438.6l-1.9-4.3l-1.9,4.3H436.8z"/>
	<path class="st7" d="M440.8,433.3h0.9l5.3,6.7v-6.7h0.9v8.4h-0.8l-5.4-6.9v6.9h-0.9V433.3z"/>
	<path class="st7" d="M454.9,434.2l-1.6,0.5l-0.2-0.8l2.1-0.7h0.7v8.5h-0.9V434.2z"/>
	<path class="st7" d="M458,440.8l0.6-0.7c0.7,0.6,1.3,0.9,2.1,0.9c1.5,0,2.5-1.5,2.5-3.7c-0.5,0.7-1.2,1.3-2.4,1.3
		c-1.7,0-2.9-1.1-2.9-2.6v0c0-1.6,1.2-2.9,3-2.9c1,0,1.7,0.3,2.2,0.9c0.6,0.6,1,1.6,1,3.2v0c0,2.7-1.4,4.5-3.5,4.5
		C459.5,441.8,458.7,441.4,458,440.8z M462.9,435.9L462.9,435.9c0-1.1-0.9-1.9-2.1-1.9c-1.3,0-2,0.9-2,2v0c0,1.1,0.8,1.8,2.1,1.8
		C462.1,437.8,462.9,436.9,462.9,435.9z"/>
	<path class="st7" d="M465.2,440.9l3-2.7c1.3-1.2,1.8-1.8,1.8-2.6c0-1-0.8-1.6-1.7-1.6c-1,0-1.6,0.5-2.3,1.4l-0.7-0.5
		c0.8-1.1,1.5-1.8,3-1.8c1.5,0,2.6,1,2.6,2.4v0c0,1.2-0.6,2-2.1,3.3l-2.2,2h4.5v0.9h-5.9V440.9z"/>
	<path class="st7" d="M477.1,434.1h-4.6v-0.9h5.7v0.7l-3.8,7.7h-1.1L477.1,434.1z"/>
</g>
</svg>
