<?xml version="1.0" encoding="utf-8"?>
<!-- Generator: Adobe Illustrator 19.0.0, SVG Export Plug-In . SVG Version: 6.00 Build 0)  -->
<svg version="1.1" id="Layer_1" xmlns="http://www.w3.org/2000/svg" xmlns:xlink="http://www.w3.org/1999/xlink" x="0px" y="0px"
	 viewBox="-276.9 367 585.7 540.9" style="enable-background:new -276.9 367 585.7 540.9;" xml:space="preserve">
<style type="text/css">
	.st0{fill:#909090;}
	.st1{fill:#A29090;}
	.st2{fill:#585959;}
	.st3{fill:#CAC2B7;}
	.st4{fill:#BA252B;}
	.st5{opacity:0.61;fill:#C93641;enable-background:new    ;}
	.st6{fill:#FFFFFF;}
	.st7{fill:#FFFDFD;}
</style>
<rect x="-10.5" y="643" class="st0" width="48.1" height="264.9"/>
<rect x="-253.4" y="624.9" class="st1" width="538.3" height="30.1"/>
<rect x="-222.9" y="624.9" class="st2" width="4.2" height="30.1"/>
<rect x="-179.6" y="624.9" class="st2" width="4.2" height="30.1"/>
<rect x="-136.3" y="624.9" class="st2" width="4.2" height="30.1"/>
<rect x="-92.9" y="624.9" class="st2" width="4.2" height="30.1"/>
<rect x="-49.5" y="624.9" class="st2" width="4.2" height="30.1"/>
<rect x="-6.2" y="624.9" class="st2" width="4.2" height="30.1"/>
<rect x="37.1" y="624.9" class="st2" width="4.2" height="30.1"/>
<rect x="80.5" y="624.9" class="st2" width="4.2" height="30.1"/>
<rect x="123.9" y="624.9" class="st2" width="4.2" height="30.1"/>
<rect x="167.2" y="624.9" class="st2" width="4.2" height="30.1"/>
<rect x="210.5" y="624.9" class="st2" width="4.2" height="30.1"/>
<rect x="253.9" y="624.9" class="st2" width="4.2" height="30.1"/>
<rect x="-276.9" y="654.4" class="st3" width="585.7" height="7.8"/>
<rect x="-234.1" y="647.8" class="st2" width="45.8" height="9.6"/>
<rect x="-120.9" y="647.8" class="st2" width="45.8" height="9.6"/>
<rect x="-7.7" y="647.8" class="st2" width="45.8" height="9.6"/>
<rect x="105.5" y="647.8" class="st2" width="45.8" height="9.6"/>
<rect x="218.7" y="647.8" class="st2" width="45.8" height="9.6"/>
<rect x="-267.9" y="367.2" class="st4" width="566" height="269.8"/>
<polygon class="st5" points="-200.5,650.5 -135.5,367 -268,367.8 -223.9,651.3 "/>
<polygon class="st5" points="-87.8,650.6 -22.8,367.2 -176.9,367.2 -111.1,651.5 "/>
<polygon class="st5" points="28.3,650.6 93.3,367.2 -60.9,367.2 4.9,651.5 "/>
<polygon class="st5" points="141.4,650.6 206.4,367.2 52.3,367.2 118.1,651.5 "/>
<polygon class="st5" points="254.5,650.5 297.3,367.1 165.5,367 231.3,651.3 "/>
<g>
	<path class="st6" d="M201.9,562.1c-60.4,11.7-121.1,21.5-183.3,22.8c-50.4,1.1-100-3.3-148.6-14.2
		c-48.7-11.1-138.2-69.4-138.2-60.9c0,3.4-0.7,1.8-0.7,7.1V575c2.6,0.7,5,1.2,7.1,2c52,18.9,106.7,26.2,162.9,25.3
		c36.5-0.7,72.8-4.4,108.9-8.7c59.3-7.3,118.3-17.3,178.3-21c28.4-1.7,56.6-2,84.8,2.4c8.3,1.3,17.3,5.7,25.2,7.1
		c0.1-9-0.1-20.8,0-29.8C265.4,550.9,233.6,555.9,201.9,562.1z"/>
</g>
<g>
	<path class="st6" d="M-208.1,464.6h8.8l11.2,26.8h-9.7l-1.4-3.6h-9.3l-1.4,3.6h-9.5L-208.1,464.6z M-201.3,481.5l-2.4-6.5l-2.4,6.5
		H-201.3z"/>
	<path class="st6" d="M-177.5,463.7h8.6v27.7h-8.6C-177.5,491.4-177.5,463.7-177.5,463.7z"/>
	<path class="st6" d="M-167,485.5L-167,485.5c0-4.2,3.1-6.5,7.9-6.5c1.7,0,4,0.4,4.9,0.8v-0.3c0-1.9-1.2-3-3.8-3
		c-2.1,0-3.9,0.5-5.7,1.2l-1.5-5.7c2.4-0.9,5.1-1.5,8.7-1.5c4.2,0,7,0.9,8.8,2.7c1.6,1.6,2.2,3.6,2.2,6.6v11.8h-8.6v-2.1
		c-1.4,1.6-3.4,2.6-6,2.6C-164.2,491.9-167,489.6-167,485.5z M-154.1,483.7v-0.9c-0.5-0.2-1.3-0.3-2-0.3c-1.7,0-2.7,1-2.7,2.3v0.1
		c0,1.2,0.9,2,2,2C-155.2,486.9-154.1,485.7-154.1,483.7z"/>
	<path class="st6" d="M-134.8,470.7h9l3.3,10.4l3.4-10.4h8.9l-8.4,20.9h-7.9L-134.8,470.7z"/>
	<path class="st6" d="M-108.9,484.3v-13.7h8.6v10.9c0,1.8,1.1,2.8,2.4,2.8s2.5-1,2.5-2.8v-10.9h8.6v20.7h-8.6v-2.8
		c-1.3,1.7-3.4,3.3-6.3,3.3C-106.2,491.9-108.9,489-108.9,484.3z"/>
	<path class="st6" d="M-84.9,481.2L-84.9,481.2c0-6.3,4.4-11,10.7-11c7.4,0,10.8,5.1,10.8,11.4c0,0.5,0,1,0,1.4h-13.3
		c0.6,1.8,2.1,2.8,3.9,2.8c1.6,0,2.8-0.7,4.2-2.1l4.6,3.7c-2.1,2.7-5,4.5-9.5,4.5C-80.3,491.9-84.9,487.6-84.9,481.2z M-71.3,479.3
		c-0.2-2-1.4-3.1-2.9-3.1c-1.4,0-2.5,1.2-2.7,3.1H-71.3z"/>
	<path class="st6" d="M-61.5,463.7h8.6v27.7h-8.6V463.7z"/>
	<path class="st6" d="M-48.6,484.5v-7.1H-51v-6.6h2.4v-5.2h8.6v5.2h4.8v6.6H-40v5.2c0,1.6,0.7,2.1,2.1,2.1c0.8,0,1.7-0.2,2.6-0.6
		v6.6c-1.4,0.7-3.4,1.2-5.5,1.2C-45.9,491.9-48.6,489.5-48.6,484.5z"/>
	<path class="st6" d="M-34,485.5L-34,485.5c0-4.2,3.1-6.5,7.9-6.5c1.7,0,4,0.4,4.9,0.8v-0.3c0-1.9-1.2-3-3.8-3
		c-2.1,0-3.9,0.5-5.7,1.2l-1.5-5.7c2.4-0.9,5.1-1.5,8.7-1.5c4.2,0,7,0.9,8.8,2.7c1.6,1.6,2.2,3.6,2.2,6.6v11.8h-8.6v-2.1
		c-1.4,1.6-3.4,2.6-6,2.6C-31.2,491.9-34,489.6-34,485.5z M-21.2,483.7v-0.9c-0.5-0.2-1.3-0.3-2-0.3c-1.7,0-2.7,1-2.7,2.3v0.1
		c0,1.2,0.9,2,2,2C-22.3,486.9-21.2,485.7-21.2,483.7z"/>
	<path class="st6" d="M-1.2,481.2L-1.2,481.2c0-6.6,4-11,8.9-11c3.2,0,4.9,1.4,6.2,2.8v-9.3h8.6v27.7h-8.6v-2.5c-1.4,1.5-3,3-6.2,3
		C2.7,491.9-1.2,487.5-1.2,481.2z M14.1,481.1L14.1,481.1c0-2.1-1.5-3.8-3.5-3.8s-3.5,1.6-3.5,3.7v0.1c0,2.1,1.5,3.7,3.5,3.7
		S14.1,483.2,14.1,481.1z"/>
	<path class="st6" d="M24.5,481.2L24.5,481.2c0-6.3,4.4-11,10.7-11c7.4,0,10.8,5.1,10.8,11.4c0,0.5,0,1,0,1.4H32.7
		c0.6,1.8,2.1,2.8,3.9,2.8c1.6,0,2.8-0.7,4.2-2.1l4.6,3.7c-2.1,2.7-5,4.5-9.5,4.5C29.1,491.9,24.5,487.6,24.5,481.2z M38.1,479.3
		c-0.2-2-1.4-3.1-2.9-3.1c-1.4,0-2.5,1.2-2.7,3.1H38.1z"/>
	<path class="st6" d="M57.6,463.7h8.6v27.7h-8.6V463.7z"/>
	<path class="st6" d="M68.1,485.5L68.1,485.5c0-4.2,3.1-6.5,7.9-6.5c1.7,0,4,0.4,4.9,0.8v-0.3c0-1.9-1.2-3-3.8-3
		c-2.1,0-3.9,0.5-5.7,1.2l-1.5-5.7c2.4-0.9,5.1-1.5,8.7-1.5c4.2,0,7,0.9,8.8,2.7c1.6,1.6,2.2,3.6,2.2,6.6v11.8H81v-2.1
		c-1.4,1.6-3.4,2.6-6,2.6C70.9,491.9,68.1,489.6,68.1,485.5z M80.9,483.7v-0.9c-0.5-0.2-1.3-0.3-2-0.3c-1.7,0-2.7,1-2.7,2.3v0.1
		c0,1.2,0.9,2,2,2C79.8,486.9,80.9,485.7,80.9,483.7z"/>
	<path class="st6" d="M100.9,481.2L100.9,481.2c0-6.3,4.4-11,10.7-11c7.4,0,10.8,5.1,10.8,11.4c0,0.5,0,1,0,1.4H109
		c0.6,1.8,2.1,2.8,3.9,2.8c1.6,0,2.8-0.7,4.2-2.1l4.6,3.7c-2.1,2.7-5,4.5-9.5,4.5C105.5,491.9,100.9,487.6,100.9,481.2z
		 M114.5,479.3c-0.2-2-1.4-3.1-2.9-3.1c-1.4,0-2.5,1.2-2.7,3.1H114.5z"/>
	<path class="st6" d="M122.8,488.9l2.9-4.9c2.5,1.6,5.3,2.3,7.7,2.3c0.8,0,1.3-0.2,1.3-0.7v-0.1c0-0.4-0.4-0.7-2.5-1.2
		c-5.2-1.3-8.5-2.7-8.5-7v-0.1c0-4.6,3.6-7.1,9-7.1c3.4,0,6.8,0.9,9.3,2.4l-2.7,5.1c-2.2-1.2-4.9-1.9-6.6-1.9
		c-0.8,0-1.2,0.2-1.2,0.6v0.1c0,0.4,0.5,0.7,2.5,1.2c5.2,1.3,8.4,2.7,8.4,7v0.1c0,4.5-3.4,7.1-9,7.1
		C129.4,491.9,125.7,490.9,122.8,488.9z"/>
	<path class="st6" d="M158.7,488.9c-1.4,1.5-3,3-6.2,3c-5,0-8.9-4.4-8.9-10.7v-0.1c0-6.6,4-10.9,8.9-10.9c3.2,0,4.9,1.4,6.2,2.8
		v-2.4h8.6v26.8h-8.6V488.9z M158.9,481.1L158.9,481.1c0-2.1-1.5-3.8-3.5-3.8s-3.5,1.6-3.5,3.7v0.1c0,2.1,1.5,3.7,3.5,3.7
		S158.9,483.2,158.9,481.1z"/>
	<path class="st6" d="M169.7,484.3v-13.7h8.6v10.9c0,1.8,1.1,2.8,2.4,2.8s2.5-1,2.5-2.8v-10.9h8.6v20.7h-8.6v-2.8
		c-1.3,1.7-3.4,3.3-6.3,3.3C172.5,491.9,169.7,489,169.7,484.3z"/>
	<path class="st6" d="M194.3,463.7h8.9v5.5h-8.9V463.7z M194.5,470.7h8.6v20.7h-8.6V470.7z"/>
	<path class="st6" d="M205.8,470.7h8.6v2.9c1.3-1.7,3.4-3.4,6.3-3.4c4.4,0,7.1,2.9,7.1,7.6v13.7h-8.6v-10.9c0-1.8-1.1-2.8-2.4-2.8
		s-2.5,1-2.5,2.8v10.9h-8.6v-20.8L205.8,470.7L205.8,470.7z"/>
	<path class="st6" d="M229.5,485.5L229.5,485.5c0-4.2,3.1-6.5,7.9-6.5c1.7,0,4,0.4,4.9,0.8v-0.3c0-1.9-1.2-3-3.8-3
		c-2.1,0-3.9,0.5-5.7,1.2l-1.5-5.7c2.4-0.9,5.1-1.5,8.7-1.5c4.2,0,7,0.9,8.8,2.7c1.6,1.6,2.2,3.6,2.2,6.6v11.8h-8.6v-2.1
		c-1.4,1.6-3.4,2.6-6,2.6C232.3,491.9,229.5,489.6,229.5,485.5z M242.4,483.7v-0.9c-0.5-0.2-1.3-0.3-2-0.3c-1.7,0-2.7,1-2.7,2.3v0.1
		c0,1.2,0.9,2,2,2C241.2,486.9,242.4,485.7,242.4,483.7z"/>
</g>
<g>
	<path class="st7" d="M131.1,615l1-1.2c1.6,1.4,2.9,2.1,5,2.1c1.9,0,3.3-1,3.3-2.4l0,0c0-1.4-0.7-2.1-3.8-2.8
		c-3.3-0.7-4.8-1.7-4.8-4.2l0,0c0-2.2,2.1-4,4.8-4c2.1,0,3.6,0.5,5.2,1.7l-1,1.2c-1.4-1-2.8-1.6-4.2-1.6c-1.9,0-3.1,1-3.1,2.4l0,0
		c0,1.4,0.7,2.1,4,2.8c3.3,0.7,4.7,1.9,4.7,4.2l0,0c0,2.4-2.1,4.2-5,4.2C134.7,617.4,132.8,616.6,131.1,615z"/>
	<path class="st7" d="M145.3,602.7h1.6v13h8.1v1.6h-9.9v-14.5H145.3z"/>
	<path class="st7" d="M156.7,610L156.7,610c0-4,2.9-7.6,7.4-7.6c4.5,0,7.4,3.5,7.4,7.4l0,0c0,4-2.9,7.4-7.4,7.4
		C159.6,617.2,156.7,614,156.7,610z M169.8,610L169.8,610c0-3.3-2.4-6.1-5.7-6.1c-3.3,0-5.7,2.6-5.7,5.9l0,0c0,3.3,2.4,6.1,5.7,6.1
		C167.4,615.9,169.8,613.3,169.8,610z"/>
	<path class="st7" d="M174.3,610L174.3,610c0-4,2.9-7.6,7.3-7.6c2.4,0,4,0.7,5.4,1.9l-1,1.2c-1-1-2.4-1.7-4.5-1.7
		c-3.3,0-5.5,2.8-5.5,5.9l0,0c0,3.5,2.2,6.1,5.7,6.1c1.7,0,3.1-0.7,4.2-1.4v-3.5h-4.5v-1.6h6.1v5.7c-1.4,1.2-3.5,2.2-5.9,2.2
		C177.1,617.4,174.3,614.1,174.3,610z"/>
	<path class="st7" d="M196.6,602.5h1.6l6.6,14.7H203l-1.7-3.8h-8l-1.7,3.8h-1.7L196.6,602.5z M200.6,611.9l-3.3-7.4l-3.3,7.4H200.6z
		"/>
	<path class="st7" d="M207.5,602.7h1.6l9.2,11.6v-11.6h1.6v14.5h-1.4l-9.3-11.9v11.9h-1.6V602.7z"/>
	<path class="st7" d="M231.9,604.3l-2.8,0.9l-0.3-1.4l3.6-1.2h1.2v14.7h-1.6v-13H231.9z"/>
	<path class="st7" d="M237.3,615.7l1-1.2c1.2,1,2.2,1.6,3.6,1.6c2.6,0,4.3-2.6,4.3-6.4c-0.9,1.2-2.1,2.2-4.2,2.2c-2.9,0-5-1.9-5-4.5
		l0,0c0-2.8,2.1-5,5.2-5c1.7,0,2.9,0.5,3.8,1.6c1,1,1.7,2.8,1.7,5.5l0,0c0,4.7-2.4,7.8-6.1,7.8C239.9,617.4,238.5,616.7,237.3,615.7
		z M245.7,607.2L245.7,607.2c0-1.9-1.6-3.3-3.6-3.3c-2.2,0-3.5,1.6-3.5,3.5l0,0c0,1.9,1.4,3.1,3.6,3.1
		C244.4,610.5,245.7,608.9,245.7,607.2z"/>
	<path class="st7" d="M249.7,615.9l5.2-4.7c2.2-2.1,3.1-3.1,3.1-4.5c0-1.7-1.4-2.8-2.9-2.8c-1.7,0-2.8,0.9-4,2.4l-1.2-0.9
		c1.4-1.9,2.6-3.1,5.2-3.1s4.5,1.7,4.5,4.2l0,0c0,2.1-1,3.5-3.6,5.7l-3.8,3.5h7.8v1.6h-10.2L249.7,615.9L249.7,615.9z"/>
	<path class="st7" d="M270.3,604.1h-8v-1.6h9.9v1.2l-6.6,13.3h-1.9L270.3,604.1z"/>
</g>
</svg>
