<?xml version="1.0" encoding="utf-8"?>
<!-- Generator: Adobe Illustrator 18.1.1, SVG Export Plug-In . SVG Version: 6.00 Build 0)  -->
<svg version="1.1" id="Layer_1" xmlns="http://www.w3.org/2000/svg" xmlns:xlink="http://www.w3.org/1999/xlink" x="0px" y="0px"
	 viewBox="0 0 201 529.2" enable-background="new 0 0 201 529.2" xml:space="preserve">
<path fill="#321B0F" d="M62.3,514.2h11.3c0,0,4.4,14.2-10.2,15h-19c0,0-4.2-9,7.1-9.6C51.4,519.6,61.2,517.9,62.3,514.2z"/>
<path fill="#321B0F" d="M127.6,514.2h-11.3c0,0-4.4,14.2,10.2,15h19c0,0,4.2-9-7.1-9.6C138.5,519.6,128.7,517.9,127.6,514.2z"/>
<polygon fill="#3D5081" points="64.7,272.2 60.9,515.8 75.4,515.8 102,313.6 113.7,514.2 131.6,514.2 135.3,271 "/>
<path fill="#544741" d="M53.2,116.4c0,0,32.2-21.8,81.8,0c0,0,4,14.4,9,193c-0.7-2.6-88.1,1.8-88.1,0
	C54.5,146.7,53.2,116.4,53.2,116.4z"/>
<path fill="#D89F79" d="M6.7,300.2c-8.3,32,5.8,34.2,10.9,33.3c5.1-0.9,3.5-19,3.5-19s0,7.6,3.9,6.8s4.3-9.7,4.3-9.7
	s1.9-14.6-8-16.6S6.7,300.2,6.7,300.2z"/>
<path fill="#D89F79" d="M191.1,299.4c8.3,32-5.8,34.2-10.9,33.3c-5.1-0.9-3.5-19-3.5-19s0,7.6-3.9,6.8c-3.9-0.8-4.3-9.7-4.3-9.7
	s-1.9-14.6,8-16.6C186.5,292.3,191.1,299.4,191.1,299.4z"/>
<path fill="#D89F79" d="M127.7,27v56c0,5.5-2.7,10-19.8,10l-0.5,16.5c0,0-12.5,12.1-28.6,0V69.7c0,0-8.4-1.7-8.4-11.3
	c0-9.6,9.6-5,9.6-5V27H127.7z"/>
<path fill="#7D584B" d="M127.7,27c0,0-11.6,15.2-36.4,14.4l7.2-4c0,0-21.7-1.6-20.1-16s8.8-10.4,14.4-8.8c5.6,1.6,25.7-12.8,33.7,0
	S127.7,27,127.7,27z"/>
<path fill="#7D584B" d="M84,30.2c0,0-1.9,16.6-0.3,27.1c0,0-9.7-10.2-13,1c-10.5,1.6-13.4-16.1-6.2-20.1S69,19,84,18.2V30.2z"/>
<path fill="#7D584B" d="M122.5,25.4c0,0,6.4,11.2,5.6,28.1c0,0,8.8-10.4,9.6-16s-12.8-16-12.8-16L122.5,25.4z"/>
<path fill="#050407" d="M100.9,50H90.9c-2.6,0-4.6,2-3.9,4.5l1.8,6.7c0.5,1.8,2.1,2.7,4,2.7h6.7c1.9,0,3.5-1.4,3.9-3.2l1.6-6.4
	C105.4,51.9,103.5,50,100.9,50z M102.5,56.6l-1.1,5.1C101,63,99.9,64,98.5,64h-4.9c-1.4,0-2.6-1.9-2.9-3.2l-1.3-3.6
	c-0.5-1.9,0.9-2.2,2.9-2.2h7.4C101.5,55,102.9,54.7,102.5,56.6z"/>
<path fill="#050407" d="M124,50H114c-2.6,0-4.6,2-3.9,4.5l1.8,6.7c0.5,1.8,2.1,2.7,4,2.7h6.7c1.9,0,3.5-1.4,3.9-3.2l1.6-6.4
	C128.5,51.9,126.6,50,124,50z M125.6,56.6l-1.1,5.1c-0.3,1.3-1.5,2.4-2.8,2.4h-4.9c-1.4,0-2.6-1.9-2.9-3.2l-1.3-3.6
	c-0.5-1.9,0.9-2.2,2.9-2.2h7.4C124.6,55,126,54.7,125.6,56.6z"/>
<path fill="#050407" d="M102.5,50h9.6c0,0-1.4,5-0.8,5h-7.7C103.7,55,104.1,55,102.5,50z"/>
<path fill="#050407" d="M87.6,51.6c0,0-14-0.2-17.9-0.2c-3.9,0-4.4,8.4-3,8.3c2.3-0.2,0.3-6.3,5.7-6c3.6,0.2,15-0.2,15-0.2
	L87.6,51.6z"/>
<path fill="#CCCBCB" d="M107.5,109.5l-14.3,4.7L98,125C98,125,105.8,124.1,107.5,109.5z"/>
<path fill="#CCCBCB" d="M78.7,109.5l14.3,4.7L88.2,125C88.2,125,80.4,124.1,78.7,109.5z"/>
<path fill="#544741" d="M53.2,116.4L6.7,300.2c0,0,17.6,6.3,23,0.8l30.1-143.8L53.2,116.4z"/>
<path fill="#544741" d="M135,116.4l56.1,183c0,0-11,10.1-23.6,4L132,143.4L135,116.4z"/>
</svg>
