<?xml version="1.0" encoding="utf-8"?>
<!-- Generator: Adobe Illustrator 18.1.1, SVG Export Plug-In . SVG Version: 6.00 Build 0)  -->
<svg version="1.1" id="Layer_1" xmlns="http://www.w3.org/2000/svg" xmlns:xlink="http://www.w3.org/1999/xlink" x="0px" y="0px"
	 viewBox="0 0 800 550" enable-background="new 0 0 800 550" xml:space="preserve">
<g>
	<rect x="200.2" y="181.6" fill="#A30505" width="266.5" height="150.8"/>
	<path fill="#B70202" d="M526.9,327h-60.2V207.6c0,0,24.4-7.8,63.5,0l9.1,37.4l-1.1,43.9L526.9,327z"/>
	<path fill="#B70202" d="M596.2,316.6l-1-70.7l-58.6-0.8v46.7c0,0,30.8-6.4,41,21.7L596.2,316.6z"/>
	<path fill="#414042" d="M474.6,236.4c0,4.3,3.3,7.9,7.3,7.9h36.9c4.1,0,7.3-3.5,7.3-7.9v-13.2c0-4.3-3.3-7.9-7.3-7.9h-36.9
		c-4.1,0-7.3,3.5-7.3,7.9V236.4z"/>
	<path fill="none" stroke="#930606" stroke-miterlimit="10" d="M472.4,284.6c0,4.3,3.5,7.9,7.9,7.9h42.9c4.3,0,7.9-3.5,7.9-7.9
		v-64.6c0-4.3-3.5-7.9-7.9-7.9h-42.9c-4.3,0-7.9,3.5-7.9,7.9V284.6z"/>
	<path fill="#808285" d="M523.6,243.8c0,2.9,2.3,5.2,5.2,5.2l0,0c2.9,0,5.2-2.3,5.2-5.2v-14.3c0-2.9-2.3-5.2-5.2-5.2l0,0
		c-2.9,0-5.2,2.3-5.2,5.2V243.8z"/>
	<path fill="#939598" d="M525.6,245.2c0,0.7,0.6,1.3,1.3,1.3l0,0c0.7,0,1.3-0.6,1.3-1.3v-17.2c0-0.7-0.6-1.3-1.3-1.3l0,0
		c-0.7,0-1.3,0.6-1.3,1.3V245.2z"/>
	<rect x="293.4" y="324" fill="#840707" width="173.3" height="8.7"/>
	<rect x="200.2" y="324" fill="#840707" width="33.2" height="8.7"/>
	<path fill="#414042" d="M307.7,332.7c0,0-2.9-36.3-35.3-36.3S232,332.7,232,332.7H307.7z"/>
	<g>
		<circle fill="#231F20" cx="270.8" cy="332.7" r="30.6"/>
		<circle fill="#EFF8F5" cx="270.8" cy="333.3" r="23"/>
		<circle fill="#C9D3D0" cx="270.8" cy="333.3" r="17.4"/>
		<circle fill="#231F20" cx="270.8" cy="333.3" r="9.2"/>
		<circle fill="#231F20" cx="270.8" cy="319.6" r="1.6"/>
		<circle fill="#231F20" cx="270.8" cy="346.5" r="1.6"/>
		<circle fill="#231F20" cx="257.4" cy="332.7" r="1.6"/>
		<circle fill="#231F20" cx="284.3" cy="332.7" r="1.6"/>
		<circle fill="#231F20" cx="262" cy="323.8" r="1.6"/>
		<circle fill="#231F20" cx="281" cy="342.8" r="1.6"/>
		<circle fill="#231F20" cx="262" cy="342.2" r="1.6"/>
		<circle fill="#231F20" cx="281" cy="323.2" r="1.6"/>
	</g>
	<path fill="#840707" d="M307.7,332.7c0,0-4.5-38.4-37.9-36.2c-29.6,2-37.9,36.2-37.9,36.2l-6.3-7.9c0,0,7.6-35.2,44.2-35.2
		s45,31.1,47.6,43.1"/>
	<rect x="400.9" y="190.6" fill="#6D0808" width="0.8" height="124.5"/>
	<rect x="344.5" y="190.6" fill="#6D0808" width="0.8" height="124.5"/>
	<rect x="284.7" y="190.6" fill="#6D0808" width="0.8" height="95.2"/>
	<rect x="227.8" y="190.6" fill="#6D0808" width="0.8" height="95.6"/>
	<path fill="#414042" d="M581.8,331.9h-75.6c0,0,2.9-38.6,36.2-41.5C575.7,287.5,587.2,318.5,581.8,331.9z"/>
	<g>
		<circle fill="#231F20" cx="547.6" cy="332.7" r="30.6"/>
		<circle fill="#EFF8F5" cx="547.6" cy="333.3" r="23"/>
		<circle fill="#C9D3D0" cx="547.6" cy="333.3" r="17.4"/>
		<circle fill="#231F20" cx="547.6" cy="333.3" r="9.2"/>
		<circle fill="#231F20" cx="547.6" cy="319.6" r="1.6"/>
		<circle fill="#231F20" cx="547.6" cy="346.5" r="1.6"/>
		<circle fill="#231F20" cx="534.2" cy="332.7" r="1.6"/>
		<circle fill="#231F20" cx="561" cy="332.7" r="1.6"/>
		<circle fill="#231F20" cx="538.7" cy="323.8" r="1.6"/>
		<circle fill="#231F20" cx="557.7" cy="342.8" r="1.6"/>
		<circle fill="#231F20" cx="538.7" cy="342.2" r="1.6"/>
		<circle fill="#231F20" cx="557.7" cy="323.2" r="1.6"/>
	</g>
	<polygon fill="#840707" points="597.8,332.7 580,332.7 577.6,313.5 597.8,313.5 	"/>
	<rect x="466.7" y="327" fill="#808285" width="46.5" height="5.4"/>
	<path fill="#840707" d="M513.2,332.5c0,0,0.2-33.7,36-33.7c35.8,0,30.7,34,30.7,34h6.4c0,0,3.6-44.6-38.8-44.6
		s-42.4,44.3-42.4,44.3H513.2z"/>
	<rect x="200.2" y="174.7" fill="#D1D3D4" width="266.5" height="9"/>
	<rect x="206.1" y="190.6" fill="#840707" width="19.6" height="129.1"/>
	<rect x="218.3" y="189.2" fill="#840707" width="99.2" height="99"/>
	<rect x="315.8" y="190.6" fill="#840707" width="144.6" height="126"/>
	<path fill="#939598" d="M204.7,189.2c0,0.8,0.6,1.4,1.4,1.4H459c0.8,0,1.4-0.6,1.4-1.4l0,0c0-0.8-0.6-1.4-1.4-1.4H206.1
		C205.3,187.8,204.7,188.4,204.7,189.2L204.7,189.2z"/>
	<polygon fill="#D1D3D4" points="530.3,208 466.7,208 466.7,202.2 528.7,202.2 	"/>
	<polyline fill="#D1D3D4" points="539.4,245.1 541.2,251.4 595.3,252.2 595.2,245.9 538.7,245.1 	"/>
	<g id="Sfunz0.tif_2_">
		<g>
			<path fill="#FFFFFF" d="M460.4,268c-26.5-7.9-51.6-4.7-78,0.1c-23.4,4.3-46.6,9.6-70,13.3c-36.3,5.8-72.1,4.1-106.3-12.8
				c0-11.9,0-23.8,0-35.7c3.6,2.3,7.3,4.5,10.9,6.9c36.8,24.7,76.7,34.3,119.1,32.2c30-1.5,58.9-8.9,87.8-17.1
				c12.4-3.5,23.6-5.5,36.5-4.8C460.4,256,460.4,262.2,460.4,268z"/>
		</g>
	</g>
	<g id="KRyJ1s.tif_9_">
		<g>
			<path fill="#FFFFFF" d="M278.6,202.5c0.5,0.2,1.1,0.4,1.5,0.6c1.2,0.7,1.8,1.7,1.9,3c0.1,1.2-0.1,2.4-0.7,3.5
				c-0.4,0.8-0.9,1.5-1.4,2.3c-0.5,0.7-1.2,1.1-2.1,1.2c-0.8,0.1-1.5-0.4-1.6-1.2c-0.1-0.7,0-1.3,0.3-1.9c0.6-1,1.2-2,2.4-2.3
				c0.2-0.1,0.5-0.1,0.7-0.1c0.3,0,0.5-0.1,0.5-0.4c0.3-1.2-0.4-2.2-1.7-2.2c-0.7,0-1.3,0.1-2,0.4c-2.6,0.9-4.8,2.4-6.8,4.2
				c-6.4,5.9-11.5,12.8-15.1,20.7c-1.3,2.8-2.2,5.7-2.7,8.8c-0.4,2.1-0.4,4.2,0.1,6.3c0.6,2.7,2.3,4.5,4.8,5.5c2,0.9,4.1,1.2,6.3,1
				c3.6-0.3,7-1.2,10.4-2.1c3.9-0.9,7.9-2,11.8-2.8c3.7-0.8,7.5-1.2,11.3-1c4.4,0.2,8.4,1.5,12,4.1c2,1.5,4,2.9,5.8,4.7
				c0.3,0.3,0.6,0.6,0.8,1c-0.1-0.1-0.2-0.1-0.3-0.2c-3.6-2.3-7.4-3.6-11.7-3.6c-1.8,0-3.6,0.3-5,1.5c-0.7,0.6-1.4,1.3-2.1,2
				c0.1,0.1,0,0,0,0c-1.6-2.8-4.1-4.3-7.1-5.1c-2.2-0.5-4.3-0.6-6.6-0.5c-3.9,0.2-7.6,1.3-11.3,2.2c-3.5,0.9-7,1.6-10.5,2.3
				c-2.8,0.6-5.5,0.5-8.2-0.5c-4.1-1.5-6.6-4.4-7.5-8.6c-0.2-0.8-0.2-1.6-0.4-2.5c0-0.1-0.1-0.2-0.1-0.4c0-0.7,0-1.5,0-2.2
				c0.1-0.6,0.1-1.2,0.2-1.7c0.4-3.3,1.3-6.4,2.7-9.5c2.6-6,6.3-11.3,11-15.9c3-3,6.2-5.8,9.9-7.8c2.1-1.1,4.2-2.1,6.5-2.6
				c0.7-0.2,1.5-0.3,2.3-0.4C277.6,202.5,278.1,202.5,278.6,202.5z"/>
			<path fill="#FFFFFF" d="M393.7,210.4c0.4-0.8,0.7-1.5,1.1-2.2c0.4-0.8,0.6-1.5,0.7-2.4c0-0.6-0.3-0.9-0.8-0.6
				c-0.5,0.2-1.1,0.5-1.6,0.9c-2.1,1.6-4,3.5-5.7,5.5c-3.7,4.1-6.8,8.7-9.7,13.5c-1.8,3-3.4,6-5.1,9c-0.2,0.3-0.3,0.6-0.4,1
				c0.2-0.1,0.4-0.2,0.6-0.3c1.1-0.9,2.3-1.7,3.3-2.7c4.7-4.2,9-8.8,12.8-13.8c0.4-0.5,0.7-0.8,1.4-0.8c0.3,0,0.6-0.1,0.9-0.1
				c-0.2,0.3-0.4,0.6-0.6,0.9c-2.5,3.5-5.3,6.7-8.2,9.8c-3.6,3.8-7.4,7.2-11.7,10.2c-0.1,0.1-0.2,0.2-0.3,0.3
				c-1.3,2.8-2.5,5.7-3.1,8.8c-0.1,0.6-0.1,1.3,0,1.9c0.2,0.9,1,1.3,1.7,0.7c0.8-0.6,1.5-1.3,2.1-2.1c1.2-1.5,2.2-3.1,3.3-4.7
				c1.8-2.7,3.6-5.5,5.7-8c1.9-2.3,4-4.4,6.6-5.9c1.1-0.7,2.3-1,3.6-0.7c0.8,0.1,1.3,0.7,1.8,1.4c0.1,0.2,0.2,0.3,0.4,0.5
				c0.2-0.4,0.4-0.7,0.6-1.1c0.1-0.1,0.2-0.2,0.4-0.2c1.6,0,3.2,0,4.8,0c0,0,0.1,0,0.1,0c-0.1,0.1-0.1,0.3-0.2,0.4
				c-2.4,4.3-4.9,8.6-7.3,12.9c-0.9,1.7-1.9,3.3-2.9,5c-0.3,0.4-0.4,0.9-0.6,1.4c-0.1,0.3-0.2,0.7,0.1,0.9c0.3,0.2,0.6,0.1,0.9-0.1
				c1.4-0.9,2.6-2,3.6-3.3c1.2-1.6,2.3-3.2,3.4-4.8c0.2-0.2,0.3-0.3,0.6-0.3c0.4,0,0.8,0,1.3,0c-0.2,0.3-0.3,0.6-0.5,0.8
				c-2,3.1-4.2,6.1-6.8,8.8c-1.5,1.5-3.2,2.8-5.1,3.6c-0.5,0.2-1.1,0.3-1.6,0.3c-1,0-1.8-0.5-2-1.5c-0.2-0.7-0.1-1.4-0.1-2.1
				c0-0.1,0-0.3,0.1-0.4c0,0-0.1,0-0.1-0.1c-0.3,0.3-0.6,0.6-0.8,0.9c-1.2,1.1-2.4,2.2-3.9,2.9c-0.7,0.4-1.5,0.5-2.3,0.4
				c-1.4-0.2-2.3-1.2-2.4-2.8c-0.1-0.6,0-1.3,0-1.9c0-0.2,0-0.3,0-0.6c-0.2,0.2-0.3,0.3-0.4,0.4c-1.1,1.4-2.3,2.7-3.8,3.7
				c-0.6,0.4-1.3,0.8-2,1c-1.6,0.5-2.9-0.1-3.7-1.5c-0.5-0.8-0.6-1.8-0.6-2.7c0.1-2.1,0.7-4.1,1.3-6.1c0.4-1.2,0.8-2.4,1.2-3.7
				c-0.2,0-0.4,0.1-0.6,0.1c-0.6,0.1-1.3,0.2-1.9,0.2c-0.3,0-0.5,0.2-0.6,0.4c-1.3,2-2.5,4-3.9,5.9c-1.9,2.6-4.1,4.8-6.9,6.4
				c-0.9,0.5-1.9,0.9-3,1c-2,0.2-3.1-1.2-3.4-2.5c-0.4-1.4-0.2-2.9,0.1-4.3c0.7-3.1,2-5.9,3.7-8.5c1.8-2.8,3.9-5.5,6.5-7.7
				c1.5-1.3,3.2-2.4,5.2-3.1c0.7-0.2,1.5-0.3,2.3-0.2c1.5,0.1,2.2,1.3,2.5,2.3c0.4,1.6,0.1,3.1-0.4,4.6c-0.4,1.2-0.9,2.4-1.4,3.6
				c-0.1,0.1-0.1,0.3-0.2,0.5c1,0,1.9-0.2,2.8-0.6c0.1-0.1,0.2-0.3,0.3-0.4c2.6-5.4,5.5-10.6,8.9-15.6c4.2-6.1,8.9-11.6,14.6-16.3
				c1.4-1.1,2.8-2.1,4.4-2.8c0.8-0.4,1.6-0.6,2.5-0.5c1.1,0.1,1.7,0.6,1.8,1.7c0.1,1.4-0.3,2.6-0.8,3.9c-0.6,1.4-0.7,1.4-2.2,1.7
				C393.9,210.4,393.8,210.4,393.7,210.4z M378.1,249.1c0,0.5,0.6,0.9,1.4,0.6c0.4-0.1,0.7-0.4,1-0.6c1-0.7,1.7-1.8,2.4-2.8
				c2-2.8,3.6-5.7,5.3-8.7c1-1.7,2-3.4,3-5.1c0.2-0.4,0.3-0.7,0-1.1c-0.3-0.4-0.7-0.4-1.1-0.3c-0.5,0.2-1,0.4-1.4,0.7
				c-0.5,0.4-1.1,0.9-1.5,1.4c-3.5,3.6-6.2,7.7-8.3,12.2C378.5,246.5,378.2,247.6,378.1,249.1z M354.8,236.7
				c-0.8,1.1-1.5,2.2-2.2,3.2c-1.2,1.9-2.3,3.9-2.9,6.1c-0.2,0.8-0.4,1.5-0.2,2.3c0.2,1,0.9,1.5,1.9,1.3c1-0.2,1.7-0.8,2.4-1.5
				c2.2-2,3.8-4.5,5.2-7.1c0.1-0.1,0.1-0.3,0.2-0.5C357.3,239.8,355.8,238.7,354.8,236.7z M362.2,232.9c0-0.2,0-0.5,0-0.7
				c-0.1-1-0.6-1.6-1.5-1.5c-0.4,0-0.7,0.1-1.1,0.2c-0.9,0.5-1.8,1.1-2.3,2c-1.5,2.4-0.1,5.2,2.5,6.1c0.1,0,0.3-0.1,0.4-0.2
				c0.3-0.4,0.5-0.9,0.7-1.4C361.5,236.1,362.2,234.6,362.2,232.9z"/>
			<path fill="#FFFFFF" d="M281.2,225.5c0.3-0.1,0.6-0.1,0.8-0.2c0.8-0.4,1.6-0.8,2.3-1.3c1.5-1,2.8-2.3,4.1-3.6
				c1.3-1.4,2.7-2.6,4.3-3.6c1.4-0.9,2.8-1.5,4.5-1.4c2.2,0.1,3.6,1.9,3.3,4c-0.2,1.7-0.9,3.2-2.1,4.5c-0.4,0.4-0.9,0.8-1.5,1.1
				c-0.9,0.4-1.8-0.2-1.9-1.3c-0.1-1.8,1.6-3.7,3.4-3.8c0.1,0,0.3-0.1,0.3-0.2c0.3-0.7,0.1-1.8-1-1.8c-0.9,0-1.7,0.4-2.4,1
				c-1.4,1.1-2.6,2.3-3.7,3.7c-2.6,3.2-4.5,6.7-5.9,10.5c-0.3,1-0.5,1.9-0.3,2.9c0.2,1.6,1.4,2.3,2.9,1.9c1.4-0.4,2.5-1.2,3.5-2.1
				c2.2-2,4.1-4.3,5.9-6.7c1.7-2.2,3.3-4.5,5-6.7c1.7-2.1,3.5-4,5.7-5.5c1-0.7,2.1-1.3,3.4-1.5c1.4-0.3,2.5,0.2,3.3,1.3
				c0.1,0.1,0.1,0.1,0.2,0.2c0.1-0.1,0.1-0.1,0.1-0.1c0.3-0.7,0.8-0.9,1.5-0.8c1.2,0.1,2.4,0,3.6,0c0.1,0,0.3,0,0.5,0
				c-0.1,0.3-0.2,0.4-0.4,0.6c-3.5,6.1-7,12.1-10.5,18.2c-0.2,0.3-0.3,0.7-0.4,1.1c-0.1,0.6,0.3,0.8,0.8,0.6
				c0.4-0.2,0.8-0.4,1.1-0.6c1.3-0.9,2.4-2.1,3.4-3.3c0.9-1.1,1.8-2.3,2.7-3.5c0.2-0.3,0.4-0.4,0.8-0.4c0.4,0,0.8,0,1.2,0
				c-0.1,0.1-0.1,0.2-0.1,0.2c-2.2,3.2-4.4,6.2-7.2,8.9c-1.4,1.3-2.8,2.6-4.6,3.5c-0.8,0.4-1.6,0.6-2.5,0.4c-0.9-0.2-1.6-1-1.7-1.9
				c0-0.6,0-1.3-0.1-2c-0.1,0.1-0.2,0.2-0.3,0.3c-0.9,1-2,2-3.2,2.7c-0.8,0.5-1.7,0.9-2.6,1c-1.9,0.2-3.3-1-3.4-2.9
				c0-1.1,0.2-2.2,0.5-3.3c0-0.1,0.1-0.3,0-0.5c-0.1,0.1-0.2,0.2-0.4,0.3c-1.6,1.4-3.1,2.9-4.7,4.2c-1.3,1.1-2.9,1.8-4.6,2.1
				c-0.9,0.1-1.8,0.2-2.7-0.1c-1.8-0.6-2.7-2.1-3-3.9c-0.5-2.4,0.1-4.7,1.1-6.8c0.6-1.3,1.2-2.5,1.9-3.8c0.1-0.1,0.1-0.3,0.2-0.5
				c-0.7,0.2-1.3,0.4-1.9,0.4c-0.6,0.1-0.9,0.4-1.1,0.8c-1.2,2-2.4,4-3.8,5.9c-1.9,2.5-4,4.8-6.7,6.5c-1.1,0.7-2.3,1.3-3.6,1.4
				c-1.5,0.1-2.8-0.6-3.4-2c-0.5-1.1-0.6-2.3-0.4-3.5c0.3-3.5,1.7-6.6,3.6-9.6c2.3-3.5,5-6.7,8.4-9.2c1.4-1,2.9-1.9,4.6-2.2
				c2.6-0.5,4.3,0.9,4.4,3.6c0,1.5-0.4,2.9-0.8,4.2C281.8,224,281.5,224.7,281.2,225.5z M300.9,235.8c0.1,0.4,0.2,0.8,0.6,1
				c0.4,0.2,0.7,0.2,1.1,0c0.9-0.5,1.7-1.1,2.3-1.9c0.9-1.1,1.7-2.3,2.5-3.5c2.4-4.1,4.7-8.2,7.1-12.2c0.3-0.4,0.1-0.8-0.4-1
				c-0.4-0.2-0.8-0.1-1.2,0.1c-0.8,0.4-1.6,0.9-2.1,1.6c-1.7,2.1-3.4,4.2-4.9,6.3c-1.7,2.4-3.2,4.9-4.2,7.7
				C301.2,234.4,301.1,235.1,300.9,235.8z M273.6,223.6c-0.1,0.1-0.2,0.2-0.2,0.3c-0.8,1.2-1.7,2.5-2.4,3.7c-1.1,1.8-2,3.7-2.5,5.8
				c-0.1,0.6-0.2,1.2-0.1,1.9c0.1,1.2,0.9,1.7,2.1,1.4c0.3-0.1,0.6-0.2,0.8-0.4c1-0.6,1.9-1.5,2.7-2.3c1.7-1.9,3-4.1,4.3-6.2
				c0.1-0.1,0.1-0.3,0.2-0.5C276.3,226.6,274.7,225.5,273.6,223.6z M281,220.1c0-0.2,0-0.4,0-0.6c-0.2-1.5-0.9-2-2.4-1.6
				c-0.2,0.1-0.5,0.2-0.7,0.3c-1,0.7-1.8,1.6-2.3,2.8c-0.4,1-0.3,2,0.4,2.8c0.8,1,1.8,1.5,3,1.6c0.2,0,0.4-0.1,0.5-0.3
				c0.3-0.7,0.6-1.3,0.9-2C280.7,222.2,281,221.2,281,220.1z"/>
			<path fill="#FFFFFF" d="M383.1,209.8c-1.3,1.4-2.5,2.7-3.7,4c-0.1,0.1-0.3,0.1-0.4,0c-0.8-0.4-1.6-0.9-2.4-1.4
				c-2.4-1.5-4.7-3.1-7.2-4.5c-1.9-1.1-3.9-1.9-6.1-2.2c-0.7-0.1-1.4-0.1-2.1,0.1c-0.2,0.1-0.3,0.2-0.3,0.4c0.2,2.5-0.4,4.8-1.4,7.1
				c-1.3,3.2-3.2,5.9-5.7,8.2c-1.1,1-2.3,1.7-3.7,2.1c-1.9,0.6-3.3-0.4-3.6-2.3c-0.2-1.3,0.2-2.5,0.6-3.6c1.6-3.9,4-7.2,7.3-9.8
				c1.1-0.9,2.4-1.7,3.6-2.6c0.1-0.1,0.1-0.1,0.3-0.2c-0.7-0.3-1.4-0.3-2.2-0.2c-1,0.1-2,0.6-2.9,1.1c-3.5,1.9-6.6,4.4-9.3,7.3
				c-5,5.3-9.4,11.1-12.8,17.6c-1.9,3.6-3.4,7.3-4.1,11.3c-0.3,1.6-0.6,3.3-0.1,5c0.5,1.7,1.4,3,3.2,3.5c1.1,0.3,2.2,0.1,3.2-0.4
				c1.8-0.8,3.3-2.1,4.7-3.5c2.7-2.8,4.8-6,6.1-9.8c0.5-1.4,0.8-2.9,0.7-4.4c-0.1-1.4-0.9-2-2.3-1.5c-1,0.4-1.7,1.1-2.3,2
				c-1.4,1.8-2.3,3.8-2.7,6.1c0,0.2-0.2,0.4-0.3,0.4c-2.4,1.2-4.5,2.8-6.3,4.8c-0.1,0.1-0.1,0.1-0.3,0.2c0.6-4.5,1.9-8.5,4.8-12
				c1.7-2,3.8-3.5,6.4-4.1c0.7-0.2,1.4-0.3,2.1-0.1c1.2,0.3,1.9,1.1,2.2,2.2c0.5,1.4,0.4,2.9,0.1,4.4c-0.6,3.4-2.2,6.5-4.1,9.3
				c-2.4,3.6-5.4,6.7-9.2,8.9c-1.6,0.9-3.3,1.5-5.2,1.5c-3,0.1-5.2-1.3-6.6-3.8c-1.3-2.2-1.6-4.5-1.4-7c0.2-3.9,1.6-7.4,3.2-10.9
				c4.5-9.4,10.6-17.4,18.7-23.9c3.5-2.8,7.3-5,11.6-6.2c1.6-0.4,3.1-0.6,4.7-0.1c0.7,0.2,1.3,0.5,1.9,1.1c0.2,0.2,0.3,0.2,0.6,0.1
				c1.3-0.4,2.5-0.9,3.8-1.1c3.2-0.7,6.3-0.2,9.2,1.3C376.7,206,379.8,207.9,383.1,209.8C383.1,209.7,383.1,209.8,383.1,209.8z
				 M359.5,206.5c-0.4,0.2-0.8,0.4-1.1,0.6c-4.1,2.5-7.1,6-9.3,10.3c-0.5,1-0.9,2-1,3c-0.1,1.4,1,2.2,2.2,1.6c0.5-0.2,1-0.5,1.5-0.9
				c4.4-3.4,7-7.9,7.7-13.5C359.5,207.3,359.5,206.9,359.5,206.5z"/>
			<path fill="#FFFFFF" d="M408.2,202.8c-0.7,1.5-1.6,2.9-2.6,4.2c-3.3,4.1-7.3,7.2-12.4,8.8c-2.6,0.8-5.2,1.1-7.8,0.5
				c-0.1,0-0.1,0-0.2,0c-0.1,0-0.2-0.1-0.4-0.1c0.1-0.1,0.2-0.2,0.2-0.3c1.1-1.3,2.1-2.6,3.2-3.9c0.1-0.1,0.3-0.2,0.5-0.2
				c3.1,0.3,6-0.3,8.8-1.4c4-1.7,7.5-4.2,10.5-7.3C408.1,202.9,408.1,202.9,408.2,202.8z"/>
			<path fill="#FFFFFF" d="M329.9,216.1c-0.4,0.7-0.8,1.4-1.2,2c-0.4,0.7-0.9,1.5-1.4,2.2c-0.1,0.1-0.2,0.2-0.4,0.2
				c-1.5,0-3,0-4.5,0c0,0,0,0-0.1,0c0-0.1,0-0.1,0.1-0.2c0.8-1.3,1.6-2.7,2.5-4c0.1-0.1,0.2-0.2,0.3-0.2
				C326.7,216.1,328.3,216.1,329.9,216.1z"/>
		</g>
	</g>
	<g id="KRyJ1s.tif_8_">
		<g>
			<path fill="#FFFFFF" d="M485.5,263.7c0.2,0.1,0.3,0.1,0.5,0.2c0.4,0.2,0.5,0.5,0.6,0.9c0,0.4,0,0.7-0.2,1.1
				c-0.1,0.2-0.3,0.5-0.4,0.7c-0.2,0.2-0.4,0.3-0.7,0.4c-0.3,0-0.4-0.1-0.5-0.4c0-0.2,0-0.4,0.1-0.6c0.2-0.3,0.4-0.6,0.7-0.7
				c0.1,0,0.1,0,0.2,0c0.1,0,0.1,0,0.2-0.1c0.1-0.4-0.1-0.7-0.5-0.7c-0.2,0-0.4,0-0.6,0.1c-0.8,0.3-1.5,0.7-2.1,1.3
				c-1.9,1.8-3.5,3.9-4.6,6.3c-0.4,0.9-0.7,1.7-0.8,2.7c-0.1,0.6-0.1,1.3,0,1.9c0.2,0.8,0.7,1.4,1.5,1.7c0.6,0.3,1.3,0.4,1.9,0.3
				c1.1-0.1,2.1-0.4,3.2-0.6c1.2-0.3,2.4-0.6,3.6-0.9c1.1-0.3,2.3-0.4,3.4-0.3c1.3,0.1,2.6,0.5,3.7,1.3c0.6,0.4,1.2,0.9,1.8,1.4
				c0.1,0.1,0.2,0.2,0.2,0.3c0,0-0.1,0-0.1-0.1c-1.1-0.7-2.3-1.1-3.6-1.1c-0.6,0-1.1,0.1-1.5,0.4c-0.2,0.2-0.4,0.4-0.6,0.6
				c0,0,0,0,0,0c-0.5-0.8-1.2-1.3-2.2-1.5c-0.7-0.2-1.3-0.2-2-0.1c-1.2,0.1-2.3,0.4-3.4,0.7c-1.1,0.3-2.1,0.5-3.2,0.7
				c-0.8,0.2-1.7,0.2-2.5-0.1c-1.2-0.5-2-1.3-2.3-2.6c-0.1-0.2-0.1-0.5-0.1-0.8c0,0,0-0.1,0-0.1c0-0.2,0-0.4,0-0.7
				c0-0.2,0-0.4,0.1-0.5c0.1-1,0.4-2,0.8-2.9c0.8-1.8,1.9-3.4,3.3-4.8c0.9-0.9,1.9-1.8,3-2.4c0.6-0.3,1.3-0.7,2-0.8
				c0.2,0,0.5-0.1,0.7-0.1C485.1,263.7,485.3,263.7,485.5,263.7z"/>
			<path fill="#FFFFFF" d="M520.5,266.1c0.1-0.2,0.2-0.5,0.3-0.7c0.1-0.2,0.2-0.5,0.2-0.7c0-0.2-0.1-0.3-0.3-0.2
				c-0.2,0.1-0.3,0.2-0.5,0.3c-0.6,0.5-1.2,1.1-1.7,1.7c-1.1,1.3-2.1,2.7-2.9,4.1c-0.5,0.9-1,1.8-1.6,2.8c0,0.1-0.1,0.2-0.1,0.3
				c0.1,0,0.1-0.1,0.2-0.1c0.3-0.3,0.7-0.5,1-0.8c1.4-1.3,2.7-2.7,3.9-4.2c0.1-0.1,0.2-0.3,0.4-0.2c0.1,0,0.2,0,0.3,0
				c-0.1,0.1-0.1,0.2-0.2,0.3c-0.8,1.1-1.6,2-2.5,3c-1.1,1.1-2.3,2.2-3.6,3.1c0,0-0.1,0.1-0.1,0.1c-0.4,0.9-0.8,1.7-0.9,2.7
				c0,0.2,0,0.4,0,0.6c0,0.3,0.3,0.4,0.5,0.2c0.2-0.2,0.5-0.4,0.7-0.6c0.4-0.5,0.7-0.9,1-1.4c0.5-0.8,1.1-1.7,1.7-2.4
				c0.6-0.7,1.2-1.3,2-1.8c0.3-0.2,0.7-0.3,1.1-0.2c0.3,0,0.4,0.2,0.6,0.4c0,0,0.1,0.1,0.1,0.1c0.1-0.1,0.1-0.2,0.2-0.3
				c0,0,0.1-0.1,0.1-0.1c0.5,0,1,0,1.5,0c0,0,0,0,0,0c0,0,0,0.1-0.1,0.1c-0.7,1.3-1.5,2.6-2.2,3.9c-0.3,0.5-0.6,1-0.9,1.5
				c-0.1,0.1-0.1,0.3-0.2,0.4c0,0.1-0.1,0.2,0,0.3c0.1,0.1,0.2,0,0.3,0c0.4-0.3,0.8-0.6,1.1-1c0.4-0.5,0.7-1,1.1-1.5
				c0-0.1,0.1-0.1,0.2-0.1c0.1,0,0.3,0,0.4,0c-0.1,0.1-0.1,0.2-0.2,0.3c-0.6,1-1.3,1.9-2.1,2.7c-0.5,0.5-1,0.8-1.6,1.1
				c-0.2,0.1-0.3,0.1-0.5,0.1c-0.3,0-0.5-0.2-0.6-0.5c0-0.2,0-0.4,0-0.7c0,0,0-0.1,0-0.1c0,0,0,0,0,0c-0.1,0.1-0.2,0.2-0.3,0.3
				c-0.4,0.3-0.7,0.7-1.2,0.9c-0.2,0.1-0.5,0.2-0.7,0.1c-0.4-0.1-0.7-0.4-0.7-0.8c0-0.2,0-0.4,0-0.6c0-0.1,0-0.1,0-0.2
				c-0.1,0.1-0.1,0.1-0.1,0.1c-0.3,0.4-0.7,0.8-1.2,1.1c-0.2,0.1-0.4,0.2-0.6,0.3c-0.5,0.2-0.9,0-1.1-0.5c-0.1-0.3-0.2-0.5-0.2-0.8
				c0-0.6,0.2-1.2,0.4-1.8c0.1-0.4,0.2-0.7,0.4-1.1c-0.1,0-0.1,0-0.2,0c-0.2,0-0.4,0.1-0.6,0.1c-0.1,0-0.1,0.1-0.2,0.1
				c-0.4,0.6-0.8,1.2-1.2,1.8c-0.6,0.8-1.2,1.5-2.1,2c-0.3,0.2-0.6,0.3-0.9,0.3c-0.6,0.1-0.9-0.4-1-0.8c-0.1-0.4-0.1-0.9,0-1.3
				c0.2-0.9,0.6-1.8,1.1-2.6c0.6-0.9,1.2-1.7,2-2.4c0.5-0.4,1-0.7,1.6-0.9c0.2-0.1,0.5-0.1,0.7-0.1c0.5,0,0.7,0.4,0.8,0.7
				c0.1,0.5,0,1-0.1,1.4c-0.1,0.4-0.3,0.7-0.4,1.1c0,0,0,0.1-0.1,0.1c0.3,0,0.6-0.1,0.8-0.2c0,0,0.1-0.1,0.1-0.1
				c0.8-1.6,1.7-3.2,2.7-4.7c1.3-1.9,2.7-3.5,4.5-5c0.4-0.3,0.9-0.6,1.3-0.9c0.2-0.1,0.5-0.2,0.8-0.2c0.3,0,0.5,0.2,0.5,0.5
				c0,0.4-0.1,0.8-0.3,1.2C521,266,521,266,520.5,266.1C520.5,266.1,520.5,266.1,520.5,266.1z M515.7,277.9c0,0.1,0.2,0.3,0.4,0.2
				c0.1,0,0.2-0.1,0.3-0.2c0.3-0.2,0.5-0.5,0.7-0.9c0.6-0.8,1.1-1.7,1.6-2.6c0.3-0.5,0.6-1,0.9-1.6c0.1-0.1,0.1-0.2,0-0.3
				c-0.1-0.1-0.2-0.1-0.3-0.1c-0.1,0.1-0.3,0.1-0.4,0.2c-0.2,0.1-0.3,0.3-0.5,0.4c-1.1,1.1-1.9,2.3-2.5,3.7
				C515.9,277.1,515.8,277.4,515.7,277.9z M508.6,274.1c-0.2,0.3-0.5,0.7-0.7,1c-0.4,0.6-0.7,1.2-0.9,1.9c-0.1,0.2-0.1,0.5-0.1,0.7
				c0,0.3,0.3,0.5,0.6,0.4c0.3-0.1,0.5-0.2,0.7-0.4c0.7-0.6,1.2-1.4,1.6-2.2c0,0,0-0.1,0.1-0.1C509.4,275.1,508.9,274.7,508.6,274.1
				z M510.9,273c0-0.1,0-0.1,0-0.2c0-0.3-0.2-0.5-0.4-0.5c-0.1,0-0.2,0-0.3,0.1c-0.3,0.1-0.5,0.3-0.7,0.6c-0.5,0.7,0,1.6,0.8,1.9
				c0,0,0.1,0,0.1-0.1c0.1-0.1,0.2-0.3,0.2-0.4C510.7,273.9,510.9,273.5,510.9,273z"/>
			<path fill="#FFFFFF" d="M486.2,270.7c0.1,0,0.2,0,0.2-0.1c0.2-0.1,0.5-0.2,0.7-0.4c0.5-0.3,0.9-0.7,1.2-1.1
				c0.4-0.4,0.8-0.8,1.3-1.1c0.4-0.3,0.9-0.5,1.4-0.4c0.7,0,1.1,0.6,1,1.2c-0.1,0.5-0.3,1-0.6,1.4c-0.1,0.1-0.3,0.3-0.4,0.3
				c-0.3,0.1-0.6-0.1-0.6-0.4c0-0.5,0.5-1.1,1-1.2c0,0,0.1,0,0.1-0.1c0.1-0.2,0-0.5-0.3-0.5c-0.3,0-0.5,0.1-0.7,0.3
				c-0.4,0.3-0.8,0.7-1.1,1.1c-0.8,1-1.4,2-1.8,3.2c-0.1,0.3-0.1,0.6-0.1,0.9c0.1,0.5,0.4,0.7,0.9,0.6c0.4-0.1,0.7-0.4,1.1-0.6
				c0.7-0.6,1.3-1.3,1.8-2c0.5-0.7,1-1.4,1.5-2c0.5-0.6,1.1-1.2,1.7-1.7c0.3-0.2,0.6-0.4,1-0.5c0.4-0.1,0.8,0.1,1,0.4
				c0,0,0,0,0.1,0.1c0,0,0,0,0,0c0.1-0.2,0.2-0.3,0.5-0.2c0.4,0,0.7,0,1.1,0c0,0,0.1,0,0.1,0c0,0.1-0.1,0.1-0.1,0.2
				c-1.1,1.8-2.1,3.7-3.2,5.5c-0.1,0.1-0.1,0.2-0.1,0.3c0,0.2,0.1,0.3,0.3,0.2c0.1,0,0.2-0.1,0.3-0.2c0.4-0.3,0.7-0.6,1-1
				c0.3-0.3,0.6-0.7,0.8-1.1c0.1-0.1,0.1-0.1,0.2-0.1c0.1,0,0.2,0,0.4,0c0,0,0,0.1,0,0.1c-0.7,1-1.3,1.9-2.2,2.7
				c-0.4,0.4-0.9,0.8-1.4,1.1c-0.2,0.1-0.5,0.2-0.8,0.1c-0.3-0.1-0.5-0.3-0.5-0.6c0-0.2,0-0.4,0-0.6c0,0,0,0.1-0.1,0.1
				c-0.3,0.3-0.6,0.6-1,0.8c-0.2,0.2-0.5,0.3-0.8,0.3c-0.6,0.1-1-0.3-1-0.9c0-0.3,0.1-0.7,0.2-1c0,0,0-0.1,0-0.1
				c0,0-0.1,0.1-0.1,0.1c-0.5,0.4-0.9,0.9-1.4,1.3c-0.4,0.3-0.9,0.6-1.4,0.6c-0.3,0-0.5,0.1-0.8,0c-0.6-0.2-0.8-0.6-0.9-1.2
				c-0.2-0.7,0-1.4,0.3-2.1c0.2-0.4,0.4-0.8,0.6-1.2c0,0,0-0.1,0.1-0.1c-0.2,0.1-0.4,0.1-0.6,0.1c-0.2,0-0.3,0.1-0.3,0.3
				c-0.4,0.6-0.7,1.2-1.2,1.8c-0.6,0.8-1.2,1.5-2,2c-0.3,0.2-0.7,0.4-1.1,0.4c-0.4,0-0.9-0.2-1-0.6c-0.1-0.3-0.2-0.7-0.1-1.1
				c0.1-1.1,0.5-2,1.1-2.9c0.7-1.1,1.5-2,2.6-2.8c0.4-0.3,0.9-0.6,1.4-0.7c0.8-0.1,1.3,0.3,1.3,1.1c0,0.4-0.1,0.9-0.3,1.3
				C486.4,270.3,486.3,270.5,486.2,270.7z M492.2,273.8c0,0.1,0.1,0.2,0.2,0.3c0.1,0.1,0.2,0.1,0.3,0c0.3-0.2,0.5-0.3,0.7-0.6
				c0.3-0.3,0.5-0.7,0.8-1.1c0.7-1.2,1.4-2.5,2.2-3.7c0.1-0.1,0-0.3-0.1-0.3c-0.1-0.1-0.3,0-0.4,0c-0.3,0.1-0.5,0.3-0.6,0.5
				c-0.5,0.6-1,1.3-1.5,1.9c-0.5,0.7-1,1.5-1.3,2.3C492.3,273.4,492.3,273.6,492.2,273.8z M483.9,270.1
				C483.9,270.2,483.9,270.2,483.9,270.1c-0.3,0.5-0.6,0.8-0.8,1.2c-0.3,0.6-0.6,1.1-0.8,1.8c0,0.2-0.1,0.4,0,0.6
				c0,0.4,0.3,0.5,0.6,0.4c0.1,0,0.2-0.1,0.2-0.1c0.3-0.2,0.6-0.4,0.8-0.7c0.5-0.6,0.9-1.2,1.3-1.9c0,0,0-0.1,0.1-0.2
				C484.8,271,484.2,270.7,483.9,270.1z M486.2,269.1c0-0.1,0-0.1,0-0.2c-0.1-0.4-0.3-0.6-0.7-0.5c-0.1,0-0.2,0.1-0.2,0.1
				c-0.3,0.2-0.6,0.5-0.7,0.8c-0.1,0.3-0.1,0.6,0.1,0.9c0.2,0.3,0.5,0.4,0.9,0.5c0.1,0,0.1,0,0.1-0.1c0.1-0.2,0.2-0.4,0.3-0.6
				C486.1,269.7,486.2,269.4,486.2,269.1z"/>
			<path fill="#FFFFFF" d="M517.3,265.9c-0.4,0.4-0.8,0.8-1.1,1.2c0,0-0.1,0-0.1,0c-0.2-0.1-0.5-0.3-0.7-0.4
				c-0.7-0.5-1.4-0.9-2.2-1.4c-0.6-0.3-1.2-0.6-1.8-0.7c-0.2,0-0.4,0-0.6,0c-0.1,0-0.1,0.1-0.1,0.1c0.1,0.8-0.1,1.5-0.4,2.2
				c-0.4,1-1,1.8-1.7,2.5c-0.3,0.3-0.7,0.5-1.1,0.6c-0.6,0.2-1-0.1-1.1-0.7c-0.1-0.4,0-0.7,0.2-1.1c0.5-1.2,1.2-2.2,2.2-3
				c0.3-0.3,0.7-0.5,1.1-0.8c0,0,0,0,0.1-0.1c-0.2-0.1-0.4-0.1-0.7-0.1c-0.3,0-0.6,0.2-0.9,0.3c-1.1,0.6-2,1.3-2.8,2.2
				c-1.5,1.6-2.9,3.4-3.9,5.4c-0.6,1.1-1,2.2-1.2,3.4c-0.1,0.5-0.2,1,0,1.5c0.1,0.5,0.4,0.9,1,1.1c0.3,0.1,0.7,0,1-0.1
				c0.6-0.2,1-0.6,1.4-1.1c0.8-0.9,1.5-1.8,1.8-3c0.1-0.4,0.2-0.9,0.2-1.3c0-0.4-0.3-0.6-0.7-0.5c-0.3,0.1-0.5,0.3-0.7,0.6
				c-0.4,0.6-0.7,1.2-0.8,1.8c0,0,0,0.1-0.1,0.1c-0.7,0.4-1.4,0.9-1.9,1.5c0,0,0,0-0.1,0.1c0.2-1.4,0.6-2.6,1.5-3.6
				c0.5-0.6,1.2-1.1,1.9-1.3c0.2,0,0.4-0.1,0.6,0c0.4,0.1,0.6,0.3,0.7,0.7c0.1,0.4,0.1,0.9,0,1.3c-0.2,1-0.7,2-1.2,2.8
				c-0.7,1.1-1.6,2-2.8,2.7c-0.5,0.3-1,0.4-1.6,0.5c-0.9,0-1.6-0.4-2-1.1c-0.4-0.7-0.5-1.4-0.4-2.1c0.1-1.2,0.5-2.3,1-3.3
				c1.4-2.8,3.2-5.3,5.7-7.3c1.1-0.9,2.2-1.5,3.5-1.9c0.5-0.1,1-0.2,1.4,0c0.2,0.1,0.4,0.2,0.6,0.3c0.1,0.1,0.1,0.1,0.2,0
				c0.4-0.1,0.8-0.3,1.2-0.3c1-0.2,1.9-0.1,2.8,0.4C515.3,264.8,516.3,265.3,517.3,265.9C517.3,265.9,517.3,265.9,517.3,265.9z
				 M510.1,264.9c-0.1,0.1-0.2,0.1-0.3,0.2c-1.2,0.8-2.2,1.8-2.8,3.1c-0.2,0.3-0.3,0.6-0.3,0.9c0,0.4,0.3,0.7,0.7,0.5
				c0.2-0.1,0.3-0.2,0.4-0.3c1.4-1,2.1-2.4,2.3-4.1C510.1,265.2,510.1,265.1,510.1,264.9z"/>
			<path fill="#FFFFFF" d="M524.9,263.8c-0.2,0.5-0.5,0.9-0.8,1.3c-1,1.3-2.2,2.2-3.8,2.7c-0.8,0.2-1.6,0.3-2.4,0.2c0,0,0,0,0,0
				c0,0-0.1,0-0.1,0c0,0,0-0.1,0.1-0.1c0.3-0.4,0.7-0.8,1-1.2c0,0,0.1-0.1,0.1-0.1c0.9,0.1,1.8-0.1,2.7-0.4
				C522.9,265.6,523.9,264.8,524.9,263.8C524.9,263.8,524.9,263.8,524.9,263.8z"/>
			<path fill="#FFFFFF" d="M501.1,267.8c-0.1,0.2-0.3,0.4-0.4,0.6c-0.1,0.2-0.3,0.4-0.4,0.7c0,0-0.1,0.1-0.1,0.1c-0.5,0-0.9,0-1.4,0
				c0,0,0,0,0,0c0,0,0,0,0-0.1c0.2-0.4,0.5-0.8,0.8-1.2c0,0,0.1-0.1,0.1-0.1C500.1,267.8,500.6,267.8,501.1,267.8z"/>
		</g>
	</g>
</g>
</svg>
