<?xml version="1.0" encoding="utf-8"?>
<!-- Generator: Adobe Illustrator 18.1.1, SVG Export Plug-In . SVG Version: 6.00 Build 0)  -->
<svg version="1.1" id="Layer_1" xmlns="http://www.w3.org/2000/svg" xmlns:xlink="http://www.w3.org/1999/xlink" x="0px" y="0px"
	 viewBox="0 0 800 550" enable-background="new 0 0 800 550" xml:space="preserve">
<g>
	<rect x="182.1" y="185.1" fill="#A30505" width="293.5" height="147.7"/>
	<path fill="#414042" d="M594.9,332.2h-71.6c0,0,2.8-37.8,35.5-40.7C591.4,288.8,600.1,319.1,594.9,332.2z"/>
	<rect x="475.5" y="300.1" fill="#231F20" width="57.2" height="5.6"/>
	<polygon fill="#6D6E71" points="620.6,266.2 624.8,268.2 621.9,319.4 618.2,318 	"/>
	<path fill="#B70202" d="M534.4,300.6h-58.9v-90.1c0,0,23.9-7.6,62.2,0l9,36.6l-1.1,43L534.4,300.6z"/>
	<path fill="#B70202" d="M619.3,315.7l2.1-51.5L544,246.5v46.5c0,0,41.7-8.6,51.7,17.4L619.3,315.7z"/>
	<path fill="#C90400" d="M620.6,319.4H590c0,0-6.2-23.9-29.5-23.9s-35.4,18.7-35.4,41.8h-4.4c0,0,1.8-49,35.2-53.4
		C589.3,279.6,614.7,299.3,620.6,319.4z"/>
	<path fill="#B70202" d="M589.3,318h28.9c4.3,0,7.7,3.4,7.7,7.7v9.8c0,4.3-3.4,7.7-7.7,7.7h-25.8L589.3,318z"/>
	<g>
		<circle fill="#231F20" cx="558.7" cy="333.1" r="29.9"/>
		<circle fill="#EFF8F5" cx="558.7" cy="333.6" r="22.6"/>
		<circle fill="#C9D3D0" cx="558.7" cy="333.6" r="17.1"/>
		<circle fill="#231F20" cx="558.7" cy="333.6" r="9"/>
		<circle fill="#231F20" cx="558.7" cy="320.2" r="1.6"/>
		<circle fill="#231F20" cx="558.7" cy="346.5" r="1.6"/>
		<circle fill="#231F20" cx="545.6" cy="333.1" r="1.6"/>
		<circle fill="#231F20" cx="571.9" cy="333.1" r="1.6"/>
		<circle fill="#231F20" cx="550.1" cy="324.3" r="1.6"/>
		<circle fill="#231F20" cx="568.7" cy="342.9" r="1.6"/>
		<circle fill="#231F20" cx="550.1" cy="342.4" r="1.6"/>
		<circle fill="#231F20" cx="568.7" cy="323.8" r="1.6"/>
	</g>
	<path fill="#414042" d="M483.2,238.8c0,4.3,3.2,7.7,7.2,7.7h36.1c4,0,7.2-3.4,7.2-7.7v-13c0-4.3-3.2-7.7-7.2-7.7h-36.1
		c-4,0-7.2,3.4-7.2,7.7V238.8z"/>
	<path fill="#6D6E71" d="M477.1,291.5c0,0.7,0.6,1.3,1.3,1.3l0,0c0.7,0,1.3-0.6,1.3-1.3v-64.3c0-0.7-0.6-1.3-1.3-1.3l0,0
		c-0.7,0-1.3,0.6-1.3,1.3V291.5z"/>
	<path fill="#6D6E71" d="M474.4,317.2c0,5.7,3.2,10.3,7.2,10.3h36.6c4,0,7.2-4.6,7.2-10.3v-1.6c0-5.7-3.2-10.3-7.2-10.3h-36.6
		c-4,0-7.2,4.6-7.2,10.3V317.2z"/>
	<rect x="508.6" y="305.2" fill="#808285" width="1.5" height="22.2"/>
	<rect x="490.1" y="305.2" fill="#808285" width="1.5" height="22.2"/>
	<polygon fill="#808285" points="475.5,332.8 521.1,332.8 521.8,327.5 475.5,327.5 	"/>
	<path fill="none" stroke="#930606" stroke-miterlimit="10" d="M481.1,285.9c0,4.3,3.4,7.7,7.7,7.7h42c4.3,0,7.7-3.4,7.7-7.7v-63.3
		c0-4.3-3.4-7.7-7.7-7.7h-42c-4.3,0-7.7,3.4-7.7,7.7V285.9z"/>
	<path fill="#808285" d="M531.2,245.9c0,2.8,2.3,5.1,5.1,5.1l0,0c2.8,0,5.1-2.3,5.1-5.1v-14c0-2.8-2.3-5.1-5.1-5.1l0,0
		c-2.8,0-5.1,2.3-5.1,5.1V245.9z"/>
	<path fill="#939598" d="M533.2,247.4c0,0.7,0.6,1.3,1.3,1.3l0,0c0.7,0,1.3-0.6,1.3-1.3v-16.8c0-0.7-0.6-1.3-1.3-1.3l0,0
		c-0.7,0-1.3,0.6-1.3,1.3V247.4z"/>
	<path fill="#939598" d="M618.2,313.3h-11.4c0,0-1.9-9.4-11.7-18.9h7.1C602.3,294.5,612.2,300.3,618.2,313.3z"/>
	<path fill="#F7941E" d="M610.7,301.8h-9.3c0,0-4.9-5.9-6.2-7.3h7.1C602.3,294.5,607.3,297.5,610.7,301.8z"/>
	<rect x="174.1" y="297.6" fill="#A30505" width="15.9" height="35.2"/>
	<rect x="305.8" y="324.5" fill="#840707" width="169.7" height="8.5"/>
	<rect x="179" y="324.5" fill="#840707" width="52.6" height="8.5"/>
	<polygon fill="#840707" points="190.9,315.7 226.3,315.7 242,287.4 299.6,287 313,315.7 466.7,315.7 466.7,191.1 190.9,191.1 	"/>
	<path fill="#414042" d="M305.8,333.1c0,0-2.8-35.5-34.5-35.5s-39.7,35.5-39.7,35.5H305.8z"/>
	<g>
		<circle fill="#231F20" cx="269.7" cy="333.1" r="29.9"/>
		<circle fill="#EFF8F5" cx="269.7" cy="333.6" r="22.6"/>
		<circle fill="#C9D3D0" cx="269.7" cy="333.6" r="17.1"/>
		<circle fill="#231F20" cx="269.7" cy="333.6" r="9"/>
		<circle fill="#231F20" cx="269.7" cy="320.2" r="1.6"/>
		<circle fill="#231F20" cx="269.7" cy="346.5" r="1.6"/>
		<circle fill="#231F20" cx="256.5" cy="333.1" r="1.6"/>
		<circle fill="#231F20" cx="282.8" cy="333.1" r="1.6"/>
		<circle fill="#231F20" cx="261" cy="324.3" r="1.6"/>
		<circle fill="#231F20" cx="279.6" cy="342.9" r="1.6"/>
		<circle fill="#231F20" cx="261" cy="342.4" r="1.6"/>
		<circle fill="#231F20" cx="279.6" cy="323.8" r="1.6"/>
	</g>
	<path fill="#840707" d="M305.8,333.1c0,0-4.4-37.6-37.1-35.4c-29,2-37.1,35.4-37.1,35.4l-6.2-7.7c0,0,7.4-34.5,43.3-34.5
		s44,30.4,46.6,42.2"/>
	<path fill="#939598" d="M209.3,192.5c0,0.7,0.6,1.3,1.3,1.3H468c0.7,0,1.3-0.6,1.3-1.3l0,0c0-0.7-0.6-1.3-1.3-1.3H210.6
		C209.9,191.1,209.3,191.7,209.3,192.5L209.3,192.5z"/>
	<path fill="#939598" d="M228.3,333.1c0,1,0.2,1.9,0.4,1.9h80.8c0.2,0,0.4-0.8,0.4-1.9l0,0c0-1-0.2-1.9-0.4-1.9h-80.8
		C228.5,331.2,228.3,332.1,228.3,333.1L228.3,333.1z"/>
	<rect x="411" y="193.8" fill="#6D0808" width="0.8" height="121.9"/>
	<rect x="355.8" y="193.8" fill="#6D0808" width="0.8" height="121.9"/>
	<rect x="297.3" y="193.8" fill="#6D0808" width="0.8" height="93.2"/>
	<rect x="241.6" y="193.8" fill="#6D0808" width="0.8" height="93.6"/>
	<g id="KRyJ1s.tif_7_">
		<g>
			<path fill="#FFFFFF" d="M242.5,214.8c0.5,0.2,1.1,0.4,1.6,0.7c1.2,0.7,1.8,1.8,2,3.2c0.1,1.3-0.1,2.6-0.7,3.7
				c-0.4,0.8-0.9,1.6-1.5,2.4c-0.5,0.8-1.3,1.2-2.2,1.3c-0.9,0.1-1.6-0.4-1.7-1.3c-0.1-0.7,0-1.4,0.3-2c0.6-1.1,1.3-2.1,2.6-2.4
				c0.2-0.1,0.5-0.1,0.8-0.1c0.3,0,0.5-0.2,0.6-0.5c0.4-1.3-0.4-2.3-1.8-2.3c-0.7,0-1.4,0.1-2.1,0.4c-2.7,0.9-5.1,2.5-7.2,4.5
				c-6.7,6.2-12.1,13.4-15.9,21.8c-1.3,3-2.3,6-2.9,9.2c-0.4,2.2-0.4,4.5,0.1,6.7c0.7,2.8,2.4,4.7,5,5.8c2.1,0.9,4.3,1.2,6.6,1.1
				c3.7-0.3,7.3-1.3,11-2.2c4.1-1,8.3-2.1,12.4-3c3.9-0.9,7.9-1.3,11.9-1.1c4.6,0.2,8.9,1.6,12.6,4.3c2.1,1.5,4.2,3.1,6.1,5
				c0.3,0.3,0.6,0.7,0.8,1.1c-0.1-0.1-0.2-0.1-0.3-0.2c-3.8-2.4-7.8-3.8-12.3-3.8c-1.9,0-3.8,0.3-5.3,1.6c-0.8,0.6-1.4,1.4-2.2,2.1
				c0.1,0.1,0,0,0,0c-1.7-2.9-4.3-4.6-7.5-5.3c-2.3-0.6-4.6-0.6-6.9-0.5c-4.1,0.2-8,1.3-11.9,2.3c-3.6,0.9-7.3,1.7-11,2.4
				c-2.9,0.6-5.8,0.5-8.7-0.5c-4.3-1.6-6.9-4.6-7.8-9.1c-0.2-0.9-0.2-1.7-0.4-2.6c0-0.1-0.1-0.2-0.1-0.4c0-0.8,0-1.6,0-2.3
				c0.1-0.6,0.1-1.2,0.2-1.8c0.4-3.5,1.4-6.8,2.8-9.9c2.8-6.3,6.7-11.9,11.5-16.8c3.2-3.2,6.5-6.1,10.5-8.2c2.2-1.2,4.4-2.3,6.9-2.8
				c0.8-0.2,1.6-0.3,2.4-0.4C241.4,214.8,241.9,214.8,242.5,214.8z"/>
			<path fill="#FFFFFF" d="M363.6,223.2c0.4-0.8,0.8-1.6,1.1-2.3c0.4-0.8,0.7-1.6,0.7-2.5c0-0.7-0.3-0.9-0.9-0.6
				c-0.6,0.3-1.2,0.5-1.6,0.9c-2.2,1.7-4.2,3.7-6,5.8c-3.9,4.4-7.2,9.2-10.2,14.2c-1.9,3.1-3.6,6.3-5.4,9.5c-0.2,0.3-0.3,0.6-0.4,1
				c0.2-0.1,0.4-0.2,0.6-0.4c1.2-0.9,2.4-1.8,3.5-2.8c4.9-4.4,9.4-9.2,13.4-14.5c0.4-0.5,0.8-0.9,1.4-0.8c0.3,0,0.6-0.1,1-0.1
				c-0.2,0.4-0.4,0.7-0.6,0.9c-2.6,3.7-5.6,7-8.6,10.3c-3.7,4-7.8,7.6-12.3,10.7c-0.1,0.1-0.2,0.2-0.3,0.3c-1.4,3-2.6,6-3.2,9.3
				c-0.1,0.6-0.1,1.3,0,2c0.2,1,1,1.3,1.8,0.8c0.8-0.6,1.6-1.4,2.2-2.2c1.2-1.6,2.3-3.3,3.4-5c1.9-2.9,3.8-5.8,6-8.4
				c2-2.4,4.3-4.6,7-6.2c1.2-0.7,2.5-1,3.8-0.8c0.9,0.2,1.4,0.8,1.9,1.4c0.1,0.2,0.2,0.3,0.4,0.5c0.2-0.4,0.4-0.8,0.7-1.1
				c0.1-0.1,0.3-0.3,0.4-0.3c1.7,0,3.4,0,5,0c0,0,0.1,0,0.2,0c-0.1,0.2-0.1,0.3-0.2,0.4c-2.6,4.5-5.1,9.1-7.7,13.6
				c-1,1.8-2,3.5-3,5.3c-0.3,0.5-0.4,1-0.7,1.5c-0.1,0.3-0.2,0.7,0.1,0.9c0.3,0.3,0.7,0.1,1-0.1c1.5-0.9,2.7-2.1,3.8-3.4
				c1.3-1.6,2.4-3.3,3.6-5c0.2-0.2,0.3-0.4,0.6-0.3c0.4,0,0.9,0,1.4,0c-0.2,0.3-0.4,0.6-0.5,0.9c-2.1,3.3-4.4,6.4-7.1,9.2
				c-1.6,1.6-3.3,2.9-5.4,3.8c-0.5,0.2-1.1,0.3-1.7,0.3c-1.1,0-1.9-0.6-2.1-1.6c-0.2-0.7-0.1-1.5-0.2-2.3c0-0.1,0-0.3,0.1-0.4
				c0,0-0.1,0-0.1-0.1c-0.3,0.3-0.6,0.6-0.9,0.9c-1.2,1.2-2.6,2.3-4.1,3c-0.8,0.4-1.6,0.6-2.4,0.4c-1.5-0.2-2.4-1.3-2.6-2.9
				c-0.1-0.7,0-1.3,0-2c0-0.2,0-0.4,0-0.7c-0.2,0.2-0.3,0.3-0.4,0.5c-1.2,1.4-2.5,2.8-4,3.9c-0.7,0.4-1.4,0.8-2.1,1.1
				c-1.6,0.6-3.1-0.1-3.9-1.6c-0.5-0.9-0.6-1.8-0.6-2.8c0.1-2.2,0.7-4.3,1.4-6.4c0.4-1.3,0.8-2.5,1.3-3.9c-0.3,0-0.4,0.1-0.6,0.1
				c-0.7,0.1-1.3,0.2-2,0.2c-0.3,0-0.5,0.2-0.7,0.4c-1.3,2.1-2.6,4.2-4.1,6.2c-2,2.7-4.3,5.1-7.3,6.8c-1,0.6-2,1-3.1,1.1
				c-2.1,0.2-3.2-1.2-3.6-2.7c-0.4-1.5-0.2-3,0.1-4.5c0.7-3.2,2.1-6.2,3.9-8.9c1.9-3,4.1-5.8,6.8-8.2c1.6-1.4,3.4-2.6,5.4-3.2
				c0.8-0.3,1.6-0.3,2.4-0.3c1.6,0.1,2.4,1.3,2.6,2.4c0.4,1.7,0.1,3.3-0.4,4.9c-0.4,1.3-1,2.5-1.5,3.8c-0.1,0.1-0.1,0.3-0.2,0.5
				c1.1,0.1,2-0.2,2.9-0.7c0.1-0.1,0.2-0.3,0.3-0.4c2.7-5.7,5.8-11.2,9.4-16.4c4.4-6.4,9.4-12.2,15.4-17.2c1.4-1.2,3-2.2,4.7-3
				c0.8-0.4,1.7-0.6,2.7-0.6c1.2,0.1,1.8,0.7,1.9,1.8c0.1,1.5-0.3,2.8-0.9,4.1c-0.7,1.4-0.7,1.5-2.3,1.7
				C363.8,223.2,363.7,223.2,363.6,223.2z M347.2,263.9c0,0.5,0.6,1,1.4,0.7c0.4-0.1,0.8-0.4,1.1-0.7c1.1-0.8,1.8-1.9,2.6-2.9
				c2.1-2.9,3.8-6,5.6-9.1c1-1.8,2.1-3.6,3.1-5.4c0.2-0.4,0.3-0.8,0-1.2c-0.3-0.4-0.7-0.5-1.1-0.3c-0.5,0.2-1,0.4-1.4,0.7
				c-0.6,0.4-1.1,0.9-1.6,1.4c-3.7,3.8-6.5,8.1-8.8,12.9C347.6,261.1,347.2,262.3,347.2,263.9z M322.6,250.9
				c-0.8,1.2-1.6,2.3-2.3,3.4c-1.3,2-2.4,4.1-3.1,6.4c-0.2,0.8-0.4,1.6-0.2,2.5c0.2,1.1,1,1.6,2,1.4c1-0.2,1.8-0.9,2.5-1.5
				c2.3-2.1,4-4.7,5.4-7.4c0.1-0.1,0.1-0.3,0.2-0.5C325.3,254.1,323.7,252.9,322.6,250.9z M330.4,246.9c0-0.2,0-0.5,0-0.7
				c-0.1-1.1-0.7-1.6-1.5-1.6c-0.4,0-0.8,0.1-1.1,0.3c-1,0.5-1.9,1.2-2.5,2.2c-1.6,2.6-0.1,5.5,2.6,6.4c0.1,0,0.4-0.1,0.4-0.2
				c0.3-0.5,0.5-1,0.8-1.5C329.7,250.2,330.4,248.6,330.4,246.9z"/>
			<path fill="#FFFFFF" d="M245.2,239c0.3-0.1,0.6-0.1,0.9-0.2c0.8-0.4,1.6-0.8,2.4-1.3c1.6-1.1,3-2.4,4.3-3.8
				c1.4-1.5,2.9-2.7,4.5-3.8c1.4-0.9,3-1.6,4.8-1.5c2.3,0.1,3.8,2,3.5,4.2c-0.3,1.8-1,3.4-2.2,4.7c-0.4,0.5-1,0.9-1.5,1.1
				c-1,0.4-1.9-0.2-2-1.3c-0.1-1.9,1.7-3.9,3.6-4c0.1,0,0.3-0.1,0.3-0.2c0.3-0.7,0.1-1.9-1.1-1.9c-1,0-1.8,0.4-2.5,1
				c-1.4,1.1-2.7,2.4-3.9,3.9c-2.7,3.3-4.7,7-6.2,11.1c-0.4,1-0.5,2-0.3,3.1c0.3,1.6,1.5,2.5,3.1,2c1.4-0.4,2.6-1.2,3.7-2.2
				c2.3-2.1,4.3-4.5,6.2-7c1.8-2.3,3.5-4.7,5.3-7c1.8-2.2,3.7-4.2,6-5.8c1.1-0.8,2.2-1.4,3.5-1.6c1.5-0.3,2.6,0.2,3.5,1.4
				c0.1,0.1,0.1,0.1,0.2,0.2c0.1-0.1,0.1-0.1,0.1-0.1c0.3-0.7,0.8-0.9,1.6-0.9c1.3,0.1,2.6,0,3.8,0c0.1,0,0.3,0,0.5,0
				c-0.2,0.3-0.3,0.5-0.4,0.7c-3.7,6.4-7.3,12.7-11,19.1c-0.2,0.3-0.3,0.8-0.4,1.2c-0.1,0.6,0.3,0.9,0.9,0.6
				c0.4-0.2,0.8-0.4,1.2-0.7c1.4-1,2.5-2.2,3.5-3.5c1-1.2,1.9-2.4,2.8-3.6c0.2-0.3,0.5-0.4,0.9-0.4c0.4,0,0.8,0,1.2,0
				c-0.1,0.1-0.1,0.2-0.1,0.2c-2.3,3.3-4.6,6.6-7.6,9.4c-1.5,1.4-3,2.8-4.8,3.7c-0.8,0.4-1.7,0.6-2.6,0.4c-0.9-0.2-1.7-1.1-1.8-2
				c0-0.7,0-1.3-0.1-2.1c-0.1,0.1-0.2,0.3-0.3,0.4c-1,1.1-2.1,2.1-3.3,2.8c-0.9,0.5-1.7,0.9-2.8,1c-2,0.2-3.5-1-3.5-3.1
				c-0.1-1.2,0.2-2.4,0.5-3.5c0-0.1,0.1-0.3,0-0.5c-0.1,0.1-0.3,0.2-0.4,0.4c-1.7,1.5-3.3,3-5,4.4c-1.4,1.2-3.1,1.9-4.9,2.2
				c-0.9,0.1-1.9,0.2-2.8-0.1c-1.9-0.7-2.8-2.2-3.2-4.1c-0.5-2.6,0.2-4.9,1.2-7.2c0.6-1.3,1.3-2.7,2-4c0.1-0.1,0.1-0.3,0.3-0.5
				c-0.7,0.2-1.3,0.4-2,0.5c-0.6,0.1-0.9,0.4-1.2,0.9c-1.3,2.1-2.5,4.2-4,6.2c-2,2.7-4.3,5.1-7.1,6.9c-1.2,0.8-2.4,1.3-3.8,1.5
				c-1.5,0.1-3-0.7-3.6-2.1c-0.5-1.2-0.6-2.5-0.5-3.7c0.4-3.7,1.8-7,3.8-10.1c2.4-3.7,5.2-7,8.8-9.6c1.5-1.1,3-2,4.9-2.3
				c2.8-0.5,4.5,1,4.6,3.8c0,1.5-0.4,3-0.9,4.5C245.8,237.5,245.5,238.2,245.2,239z M265.9,249.9c0.1,0.5,0.2,0.8,0.6,1
				c0.4,0.2,0.8,0.2,1.1,0c0.9-0.5,1.8-1.2,2.4-2c0.9-1.2,1.8-2.4,2.6-3.7c2.5-4.3,5-8.6,7.5-12.9c0.3-0.5,0.1-0.9-0.4-1.1
				c-0.4-0.2-0.9-0.1-1.3,0.1c-0.9,0.4-1.6,0.9-2.2,1.7c-1.8,2.2-3.5,4.4-5.2,6.6c-1.8,2.5-3.4,5.2-4.5,8.1
				C266.2,248.4,266.1,249.2,265.9,249.9z M237.2,237c-0.1,0.1-0.2,0.2-0.2,0.3c-0.9,1.3-1.7,2.6-2.5,3.9c-1.2,1.9-2.1,3.9-2.6,6.1
				c-0.1,0.6-0.2,1.3-0.1,2c0.1,1.2,1,1.8,2.2,1.5c0.3-0.1,0.6-0.2,0.9-0.4c1.1-0.6,2-1.5,2.8-2.5c1.8-2,3.1-4.3,4.5-6.6
				c0.1-0.2,0.1-0.3,0.2-0.6C240.1,240.2,238.3,239.1,237.2,237z M245,233.4c0-0.2,0-0.4,0-0.6c-0.2-1.5-0.9-2.1-2.5-1.7
				c-0.3,0.1-0.5,0.2-0.7,0.3c-1.1,0.7-1.9,1.7-2.4,2.9c-0.4,1-0.3,2.1,0.4,3c0.8,1,1.9,1.5,3.2,1.7c0.3,0,0.4-0.1,0.5-0.3
				c0.3-0.7,0.6-1.4,0.9-2.1C244.7,235.6,245,234.5,245,233.4z"/>
			<path fill="#FFFFFF" d="M352.4,222.5c-1.3,1.4-2.6,2.8-3.9,4.2c-0.1,0.1-0.4,0.1-0.5,0c-0.8-0.5-1.7-1-2.5-1.5
				c-2.5-1.6-5-3.2-7.5-4.8c-2-1.2-4.1-2-6.4-2.3c-0.7-0.1-1.5-0.1-2.2,0.1c-0.2,0.1-0.3,0.2-0.3,0.4c0.2,2.6-0.5,5.1-1.5,7.5
				c-1.4,3.3-3.4,6.2-6,8.7c-1.1,1-2.4,1.8-3.9,2.2c-2,0.6-3.5-0.4-3.8-2.5c-0.2-1.3,0.2-2.6,0.7-3.8c1.6-4.1,4.3-7.5,7.7-10.4
				c1.2-1,2.5-1.8,3.8-2.7c0.1-0.1,0.2-0.1,0.3-0.2c-0.8-0.3-1.5-0.3-2.3-0.2c-1.1,0.2-2.1,0.7-3,1.2c-3.7,2-6.9,4.6-9.8,7.7
				c-5.3,5.6-9.9,11.7-13.5,18.5c-2,3.8-3.6,7.7-4.3,11.9c-0.3,1.7-0.6,3.5-0.1,5.2c0.5,1.8,1.5,3.2,3.4,3.7
				c1.2,0.3,2.3,0.1,3.4-0.4c1.9-0.9,3.5-2.2,5-3.7c2.8-3,5.1-6.3,6.4-10.3c0.5-1.5,0.9-3,0.7-4.6c-0.1-1.5-1-2.1-2.4-1.6
				c-1.1,0.4-1.8,1.2-2.4,2.1c-1.5,1.9-2.4,4-2.9,6.4c0,0.2-0.2,0.4-0.3,0.5c-2.5,1.2-4.7,3-6.6,5c-0.1,0.1-0.1,0.1-0.3,0.3
				c0.6-4.7,2-9,5-12.6c1.8-2.1,4-3.7,6.7-4.3c0.7-0.2,1.4-0.3,2.2-0.1c1.2,0.3,2,1.1,2.4,2.3c0.5,1.5,0.4,3.1,0.1,4.6
				c-0.6,3.6-2.3,6.8-4.3,9.8c-2.5,3.8-5.7,7-9.7,9.4c-1.7,1-3.5,1.6-5.5,1.6c-3.1,0.1-5.4-1.3-7-4c-1.3-2.3-1.7-4.8-1.5-7.4
				c0.3-4.1,1.7-7.8,3.4-11.5c4.7-9.8,11.2-18.3,19.7-25.2c3.6-3,7.7-5.2,12.2-6.6c1.6-0.5,3.3-0.6,5-0.2c0.7,0.2,1.4,0.6,2,1.1
				c0.2,0.2,0.4,0.2,0.6,0.1c1.3-0.4,2.7-0.9,4-1.2c3.4-0.7,6.6-0.2,9.7,1.4C345.6,218.5,349,220.5,352.4,222.5
				C352.4,222.5,352.4,222.5,352.4,222.5z M327.5,219c-0.5,0.3-0.8,0.4-1.1,0.6c-4.3,2.6-7.5,6.3-9.8,10.8c-0.5,1-0.9,2.1-1.1,3.2
				c-0.2,1.5,1,2.3,2.4,1.7c0.5-0.2,1.1-0.6,1.6-0.9c4.7-3.6,7.4-8.3,8.1-14.2C327.6,219.9,327.5,219.5,327.5,219z"/>
			<path fill="#FFFFFF" d="M378.8,215.2c-0.7,1.6-1.7,3-2.8,4.4c-3.4,4.4-7.7,7.6-13,9.3c-2.7,0.9-5.4,1.1-8.2,0.6
				c-0.1,0-0.1,0-0.2,0c-0.1,0-0.2-0.1-0.4-0.1c0.1-0.1,0.2-0.2,0.2-0.3c1.1-1.4,2.3-2.8,3.4-4.1c0.1-0.1,0.3-0.3,0.5-0.2
				c3.2,0.3,6.3-0.3,9.3-1.5c4.2-1.8,7.9-4.4,11.1-7.7C378.7,215.3,378.8,215.2,378.8,215.2z"/>
			<path fill="#FFFFFF" d="M296.4,229.2c-0.5,0.8-0.9,1.4-1.3,2.1c-0.5,0.8-0.9,1.5-1.4,2.3c-0.1,0.1-0.3,0.3-0.4,0.3
				c-1.6,0-3.2,0-4.7,0c0,0,0,0-0.1,0c0-0.1,0-0.1,0.1-0.2c0.9-1.4,1.7-2.8,2.6-4.2c0.1-0.1,0.2-0.2,0.4-0.2
				C293.1,229.2,294.7,229.2,296.4,229.2z"/>
		</g>
	</g>
	<g>
		<circle fill="#BE1E2D" cx="430.5" cy="244" r="27.6"/>
		<g>
			<path fill="#1B070D" d="M424.3,267.5c0,0,7.4,3.5,12.9,0c0,0,0.1-3.4-0.3-6.1c-0.4-2.6,0-7.3,0.3-10.8c0.3-3.5-0.3-11.2-0.8-14.2
				c-0.5-2.9-1.3-5-1.3-5h-8.5c0,0-1.4,3.1-1.9,6.6c-0.5,3.4,0,13.3,0,13.3s0.8,7.9,0.2,10C424.3,263.3,424.3,267.5,424.3,267.5z"/>
			<path fill="#748267" d="M426.5,231.4h8.5c0,0-1.5-2.6-1.8-4.8c-0.2-2.2-0.3-4.3-0.3-4.3h-4.5c0,0,0,3.8-0.4,5.1
				S426.5,231.4,426.5,231.4z"/>
			<rect x="429.4" y="222.3" fill="#A2AF97" width="0.7" height="9.1"/>
			<rect x="430.5" y="222.3" fill="#5D6852" width="0.5" height="9.1"/>
			<path fill="#748267" d="M428.5,222.3c0,0-0.7-0.3-0.7-1s0.9-1.5,0.9-1.5h4c0,0,1,0.1,1,1.4c0,1.1-0.7,1.1-0.7,1.1H428.5z"/>
			<path fill="#BE1E2D" d="M428.6,219.8l0.2,0.3l0.3-0.3l0.4,0.3l0.3-0.3l0.4,0.3l0.4-0.3l0.4,0.3l0.4-0.3c0,0,0.2,0.3,0.3,0.3
				s0.4-0.3,0.4-0.3l0.4,0.3l0.3-0.3l0.3,0.3l0.1-0.3c0,0,0.4-0.7-0.2-0.8h-4.2C428.7,219,428.1,219.2,428.6,219.8z"/>
			<rect x="428.4" y="231.4" fill="#414042" width="1.4" height="37.5"/>
			<rect x="424.9" y="239" fill="#BE1E2D" width="11.6" height="7.1"/>
		</g>
		<g id="KRyJ1s.tif_6_">
			<g>
				<path fill="#FFFFFF" d="M415.3,235.8c0.2,0.1,0.3,0.1,0.5,0.2c0.4,0.2,0.5,0.5,0.6,0.9c0,0.4,0,0.8-0.2,1.1
					c-0.1,0.2-0.3,0.5-0.4,0.7c-0.2,0.2-0.4,0.3-0.7,0.4c-0.3,0-0.5-0.1-0.5-0.4c0-0.2,0-0.4,0.1-0.6c0.2-0.3,0.4-0.6,0.8-0.7
					c0.1,0,0.1,0,0.2,0c0.1,0,0.1,0,0.2-0.1c0.1-0.4-0.1-0.7-0.5-0.7c-0.2,0-0.4,0-0.6,0.1c-0.8,0.3-1.5,0.7-2.1,1.3
					c-2,1.8-3.6,3.9-4.7,6.4c-0.4,0.9-0.7,1.8-0.8,2.7c-0.1,0.7-0.1,1.3,0,2c0.2,0.8,0.7,1.4,1.5,1.7c0.6,0.3,1.3,0.4,2,0.3
					c1.1-0.1,2.2-0.4,3.2-0.6c1.2-0.3,2.4-0.6,3.7-0.9c1.1-0.3,2.3-0.4,3.5-0.3c1.4,0.1,2.6,0.5,3.7,1.3c0.6,0.5,1.2,0.9,1.8,1.5
					c0.1,0.1,0.2,0.2,0.2,0.3c0,0-0.1,0-0.1-0.1c-1.1-0.7-2.3-1.1-3.6-1.1c-0.6,0-1.1,0.1-1.6,0.5c-0.2,0.2-0.4,0.4-0.6,0.6
					c0,0,0,0,0,0c-0.5-0.9-1.3-1.3-2.2-1.6c-0.7-0.2-1.3-0.2-2-0.1c-1.2,0.1-2.3,0.4-3.5,0.7c-1.1,0.3-2.2,0.5-3.2,0.7
					c-0.9,0.2-1.7,0.2-2.5-0.1c-1.3-0.5-2-1.3-2.3-2.7c-0.1-0.3-0.1-0.5-0.1-0.8c0,0,0-0.1,0-0.1c0-0.2,0-0.5,0-0.7
					c0-0.2,0-0.4,0.1-0.5c0.1-1,0.4-2,0.8-2.9c0.8-1.9,2-3.5,3.4-4.9c0.9-0.9,1.9-1.8,3.1-2.4c0.6-0.4,1.3-0.7,2-0.8
					c0.2,0,0.5-0.1,0.7-0.1C414.9,235.8,415.1,235.8,415.3,235.8z"/>
				<path fill="#FFFFFF" d="M450.9,238.2c0.1-0.2,0.2-0.5,0.3-0.7c0.1-0.2,0.2-0.5,0.2-0.7c0-0.2-0.1-0.3-0.3-0.2
					c-0.2,0.1-0.3,0.2-0.5,0.3c-0.6,0.5-1.2,1.1-1.8,1.7c-1.1,1.3-2.1,2.7-3,4.2c-0.6,0.9-1.1,1.9-1.6,2.8c0,0.1-0.1,0.2-0.1,0.3
					c0.1,0,0.1-0.1,0.2-0.1c0.3-0.3,0.7-0.5,1-0.8c1.4-1.3,2.8-2.7,3.9-4.3c0.1-0.1,0.2-0.3,0.4-0.2c0.1,0,0.2,0,0.3,0
					c-0.1,0.1-0.1,0.2-0.2,0.3c-0.8,1.1-1.6,2.1-2.5,3c-1.1,1.2-2.3,2.2-3.6,3.2c0,0-0.1,0.1-0.1,0.1c-0.4,0.9-0.8,1.8-1,2.7
					c0,0.2,0,0.4,0,0.6c0,0.3,0.3,0.4,0.5,0.2c0.2-0.2,0.5-0.4,0.7-0.6c0.4-0.5,0.7-1,1-1.5c0.6-0.8,1.1-1.7,1.8-2.5
					c0.6-0.7,1.2-1.4,2.1-1.8c0.3-0.2,0.7-0.3,1.1-0.2c0.3,0,0.4,0.2,0.6,0.4c0,0,0.1,0.1,0.1,0.2c0.1-0.1,0.1-0.2,0.2-0.3
					c0,0,0.1-0.1,0.1-0.1c0.5,0,1,0,1.5,0c0,0,0,0,0,0c0,0,0,0.1-0.1,0.1c-0.8,1.3-1.5,2.7-2.3,4c-0.3,0.5-0.6,1-0.9,1.5
					c-0.1,0.1-0.1,0.3-0.2,0.4c0,0.1-0.1,0.2,0,0.3c0.1,0.1,0.2,0,0.3,0c0.4-0.3,0.8-0.6,1.1-1c0.4-0.5,0.7-1,1.1-1.5
					c0-0.1,0.1-0.1,0.2-0.1c0.1,0,0.3,0,0.4,0c-0.1,0.1-0.1,0.2-0.2,0.3c-0.6,1-1.3,1.9-2.1,2.7c-0.5,0.5-1,0.9-1.6,1.1
					c-0.2,0.1-0.3,0.1-0.5,0.1c-0.3,0-0.5-0.2-0.6-0.5c0-0.2,0-0.4,0-0.7c0,0,0-0.1,0-0.1c0,0,0,0,0,0c-0.1,0.1-0.2,0.2-0.3,0.3
					c-0.4,0.3-0.8,0.7-1.2,0.9c-0.2,0.1-0.5,0.2-0.7,0.1c-0.4-0.1-0.7-0.4-0.8-0.9c0-0.2,0-0.4,0-0.6c0-0.1,0-0.1,0-0.2
					c-0.1,0.1-0.1,0.1-0.1,0.1c-0.4,0.4-0.7,0.8-1.2,1.1c-0.2,0.1-0.4,0.2-0.6,0.3c-0.5,0.2-0.9,0-1.2-0.5c-0.1-0.3-0.2-0.5-0.2-0.8
					c0-0.6,0.2-1.3,0.4-1.9c0.1-0.4,0.2-0.7,0.4-1.1c-0.1,0-0.1,0-0.2,0c-0.2,0-0.4,0.1-0.6,0.1c-0.1,0-0.1,0.1-0.2,0.1
					c-0.4,0.6-0.8,1.2-1.2,1.8c-0.6,0.8-1.3,1.5-2.1,2c-0.3,0.2-0.6,0.3-0.9,0.3c-0.6,0.1-1-0.4-1.1-0.8c-0.1-0.4-0.1-0.9,0-1.3
					c0.2-1,0.6-1.8,1.2-2.6c0.6-0.9,1.2-1.7,2-2.4c0.5-0.4,1-0.8,1.6-1c0.2-0.1,0.5-0.1,0.7-0.1c0.5,0,0.7,0.4,0.8,0.7
					c0.1,0.5,0,1-0.1,1.4c-0.1,0.4-0.3,0.7-0.4,1.1c0,0,0,0.1-0.1,0.1c0.3,0,0.6-0.1,0.9-0.2c0,0,0.1-0.1,0.1-0.1
					c0.8-1.7,1.7-3.3,2.8-4.8c1.3-1.9,2.8-3.6,4.5-5c0.4-0.3,0.9-0.7,1.4-0.9c0.2-0.1,0.5-0.2,0.8-0.2c0.3,0,0.5,0.2,0.5,0.5
					c0,0.4-0.1,0.8-0.3,1.2C451.4,238.1,451.4,238.1,450.9,238.2C450.9,238.2,450.9,238.2,450.9,238.2z M446,250.2
					c0,0.1,0.2,0.3,0.4,0.2c0.1,0,0.2-0.1,0.3-0.2c0.3-0.2,0.5-0.6,0.8-0.9c0.6-0.9,1.1-1.8,1.6-2.7c0.3-0.5,0.6-1.1,0.9-1.6
					c0.1-0.1,0.1-0.2,0-0.3c-0.1-0.1-0.2-0.1-0.3-0.1c-0.1,0.1-0.3,0.1-0.4,0.2c-0.2,0.1-0.3,0.3-0.5,0.4c-1.1,1.1-1.9,2.4-2.6,3.8
					C446.2,249.4,446.1,249.7,446,250.2z M438.8,246.3c-0.2,0.4-0.5,0.7-0.7,1c-0.4,0.6-0.7,1.2-0.9,1.9c-0.1,0.2-0.1,0.5-0.1,0.7
					c0.1,0.3,0.3,0.5,0.6,0.4c0.3-0.1,0.5-0.2,0.7-0.5c0.7-0.6,1.2-1.4,1.6-2.2c0,0,0-0.1,0.1-0.1
					C439.6,247.3,439.1,247,438.8,246.3z M441.1,245.2c0-0.1,0-0.1,0-0.2c0-0.3-0.2-0.5-0.5-0.5c-0.1,0-0.2,0-0.3,0.1
					c-0.3,0.1-0.5,0.4-0.7,0.6c-0.5,0.8,0,1.6,0.8,1.9c0,0,0.1,0,0.1-0.1c0.1-0.1,0.2-0.3,0.2-0.4
					C440.9,246.1,441.1,245.7,441.1,245.2z"/>
				<path fill="#FFFFFF" d="M416,242.9c0.1,0,0.2,0,0.3-0.1c0.2-0.1,0.5-0.2,0.7-0.4c0.5-0.3,0.9-0.7,1.3-1.1
					c0.4-0.4,0.8-0.8,1.3-1.1c0.4-0.3,0.9-0.5,1.4-0.4c0.7,0,1.1,0.6,1,1.2c-0.1,0.5-0.3,1-0.7,1.4c-0.1,0.1-0.3,0.3-0.5,0.3
					c-0.3,0.1-0.6-0.1-0.6-0.4c0-0.6,0.5-1.1,1.1-1.2c0,0,0.1,0,0.1-0.1c0.1-0.2,0-0.5-0.3-0.6c-0.3,0-0.5,0.1-0.7,0.3
					c-0.4,0.3-0.8,0.7-1.1,1.1c-0.8,1-1.4,2.1-1.8,3.3c-0.1,0.3-0.1,0.6-0.1,0.9c0.1,0.5,0.4,0.7,0.9,0.6c0.4-0.1,0.8-0.4,1.1-0.6
					c0.7-0.6,1.3-1.3,1.8-2.1c0.5-0.7,1-1.4,1.6-2.1c0.5-0.6,1.1-1.2,1.8-1.7c0.3-0.2,0.6-0.4,1-0.5c0.4-0.1,0.8,0.1,1,0.4
					c0,0,0,0,0.1,0.1c0,0,0,0,0,0c0.1-0.2,0.2-0.3,0.5-0.3c0.4,0,0.8,0,1.1,0c0,0,0.1,0,0.1,0c0,0.1-0.1,0.1-0.1,0.2
					c-1.1,1.9-2.2,3.7-3.2,5.6c-0.1,0.1-0.1,0.2-0.1,0.3c0,0.2,0.1,0.3,0.3,0.2c0.1,0,0.2-0.1,0.3-0.2c0.4-0.3,0.7-0.7,1-1
					c0.3-0.3,0.6-0.7,0.8-1.1c0.1-0.1,0.1-0.1,0.3-0.1c0.1,0,0.2,0,0.4,0c0,0,0,0.1,0,0.1c-0.7,1-1.4,1.9-2.2,2.8
					c-0.4,0.4-0.9,0.8-1.4,1.1c-0.2,0.1-0.5,0.2-0.8,0.1c-0.3-0.1-0.5-0.3-0.5-0.6c0-0.2,0-0.4,0-0.6c0,0,0,0.1-0.1,0.1
					c-0.3,0.3-0.6,0.6-1,0.8c-0.3,0.2-0.5,0.3-0.8,0.3c-0.6,0.1-1-0.3-1-0.9c0-0.4,0.1-0.7,0.2-1c0,0,0-0.1,0-0.1
					c0,0-0.1,0.1-0.1,0.1c-0.5,0.4-1,0.9-1.5,1.3c-0.4,0.3-0.9,0.6-1.4,0.7c-0.3,0-0.6,0.1-0.8,0c-0.6-0.2-0.8-0.6-0.9-1.2
					c-0.2-0.8,0-1.4,0.3-2.1c0.2-0.4,0.4-0.8,0.6-1.2c0,0,0-0.1,0.1-0.1c-0.2,0.1-0.4,0.1-0.6,0.1c-0.2,0-0.3,0.1-0.4,0.3
					c-0.4,0.6-0.7,1.2-1.2,1.8c-0.6,0.8-1.3,1.5-2.1,2c-0.3,0.2-0.7,0.4-1.1,0.4c-0.5,0-0.9-0.2-1-0.6c-0.1-0.4-0.2-0.7-0.1-1.1
					c0.1-1.1,0.5-2.1,1.1-3c0.7-1.1,1.5-2.1,2.6-2.8c0.4-0.3,0.9-0.6,1.4-0.7c0.8-0.1,1.3,0.3,1.3,1.1c0,0.5-0.1,0.9-0.3,1.3
					C416.2,242.4,416.1,242.6,416,242.9z M422.1,246.1c0,0.1,0.1,0.2,0.2,0.3c0.1,0.1,0.2,0.1,0.3,0c0.3-0.2,0.5-0.3,0.7-0.6
					c0.3-0.4,0.5-0.7,0.8-1.1c0.7-1.3,1.5-2.5,2.2-3.8c0.1-0.1,0-0.3-0.1-0.3c-0.1-0.1-0.3,0-0.4,0c-0.3,0.1-0.5,0.3-0.7,0.5
					c-0.5,0.6-1,1.3-1.5,2c-0.5,0.7-1,1.5-1.3,2.4C422.2,245.6,422.2,245.8,422.1,246.1z M413.7,242.3
					C413.7,242.3,413.6,242.3,413.7,242.3c-0.3,0.5-0.6,0.8-0.8,1.2c-0.3,0.6-0.6,1.1-0.8,1.8c0,0.2-0.1,0.4,0,0.6
					c0,0.4,0.3,0.5,0.6,0.4c0.1,0,0.2-0.1,0.3-0.1c0.3-0.2,0.6-0.4,0.8-0.7c0.5-0.6,0.9-1.3,1.3-1.9c0,0,0-0.1,0.1-0.2
					C414.5,243.2,414,242.9,413.7,242.3z M416,241.2c0-0.1,0-0.1,0-0.2c-0.1-0.5-0.3-0.6-0.7-0.5c-0.1,0-0.2,0.1-0.2,0.1
					c-0.3,0.2-0.6,0.5-0.7,0.9c-0.1,0.3-0.1,0.6,0.1,0.9c0.2,0.3,0.6,0.5,0.9,0.5c0.1,0,0.1,0,0.1-0.1c0.1-0.2,0.2-0.4,0.3-0.6
					C415.9,241.9,416,241.6,416,241.2z"/>
				<path fill="#FFFFFF" d="M447.6,238c-0.4,0.4-0.8,0.8-1.2,1.2c0,0-0.1,0-0.1,0c-0.2-0.1-0.5-0.3-0.7-0.4
					c-0.7-0.5-1.5-0.9-2.2-1.4c-0.6-0.3-1.2-0.6-1.9-0.7c-0.2,0-0.4,0-0.6,0c-0.1,0-0.1,0.1-0.1,0.1c0.1,0.8-0.1,1.5-0.4,2.2
					c-0.4,1-1,1.8-1.8,2.5c-0.3,0.3-0.7,0.5-1.1,0.7c-0.6,0.2-1-0.1-1.1-0.7c-0.1-0.4,0-0.8,0.2-1.1c0.5-1.2,1.3-2.2,2.3-3
					c0.4-0.3,0.7-0.5,1.1-0.8c0,0,0,0,0.1-0.1c-0.2-0.1-0.4-0.1-0.7-0.1c-0.3,0-0.6,0.2-0.9,0.3c-1.1,0.6-2,1.4-2.9,2.3
					c-1.6,1.6-2.9,3.4-4,5.5c-0.6,1.1-1,2.3-1.3,3.5c-0.1,0.5-0.2,1,0,1.5c0.1,0.5,0.4,0.9,1,1.1c0.3,0.1,0.7,0,1-0.1
					c0.6-0.3,1-0.6,1.5-1.1c0.8-0.9,1.5-1.9,1.9-3c0.1-0.4,0.3-0.9,0.2-1.4c0-0.4-0.3-0.6-0.7-0.5c-0.3,0.1-0.5,0.4-0.7,0.6
					c-0.4,0.6-0.7,1.2-0.8,1.9c0,0,0,0.1-0.1,0.1c-0.7,0.4-1.4,0.9-1.9,1.5c0,0,0,0-0.1,0.1c0.2-1.4,0.6-2.6,1.5-3.7
					c0.5-0.6,1.2-1.1,2-1.3c0.2,0,0.4-0.1,0.6,0c0.4,0.1,0.6,0.3,0.7,0.7c0.1,0.4,0.1,0.9,0,1.4c-0.2,1.1-0.7,2-1.3,2.9
					c-0.7,1.1-1.7,2.1-2.8,2.8c-0.5,0.3-1,0.5-1.6,0.5c-0.9,0-1.6-0.4-2.1-1.2c-0.4-0.7-0.5-1.4-0.4-2.2c0.1-1.2,0.5-2.3,1-3.4
					c1.4-2.9,3.3-5.4,5.8-7.4c1.1-0.9,2.3-1.5,3.6-1.9c0.5-0.1,1-0.2,1.5,0c0.2,0.1,0.4,0.2,0.6,0.3c0.1,0.1,0.1,0.1,0.2,0
					c0.4-0.1,0.8-0.3,1.2-0.4c1-0.2,2-0.1,2.8,0.4C445.6,236.8,446.6,237.4,447.6,238C447.6,238,447.6,238,447.6,238z M440.3,237
					c-0.1,0.1-0.2,0.1-0.3,0.2c-1.3,0.8-2.2,1.9-2.9,3.2c-0.2,0.3-0.3,0.6-0.3,0.9c0,0.4,0.3,0.7,0.7,0.5c0.2-0.1,0.3-0.2,0.5-0.3
					c1.4-1.1,2.2-2.5,2.4-4.2C440.3,237.2,440.3,237.1,440.3,237z"/>
				<path fill="#FFFFFF" d="M455.3,235.9c-0.2,0.5-0.5,0.9-0.8,1.3c-1,1.3-2.3,2.2-3.8,2.7c-0.8,0.3-1.6,0.3-2.4,0.2c0,0,0,0,0,0
					c0,0-0.1,0-0.1,0c0,0,0-0.1,0.1-0.1c0.3-0.4,0.7-0.8,1-1.2c0,0,0.1-0.1,0.1-0.1c0.9,0.1,1.9-0.1,2.7-0.4
					C453.3,237.6,454.3,236.9,455.3,235.9C455.3,235.9,455.3,235.9,455.3,235.9z"/>
				<path fill="#FFFFFF" d="M431.1,240c-0.1,0.2-0.3,0.4-0.4,0.6c-0.1,0.2-0.3,0.5-0.4,0.7c0,0-0.1,0.1-0.1,0.1c-0.5,0-0.9,0-1.4,0
					c0,0,0,0,0,0c0,0,0,0,0-0.1c0.3-0.4,0.5-0.8,0.8-1.2c0,0,0.1-0.1,0.1-0.1C430.1,240,430.6,240,431.1,240z"/>
			</g>
		</g>
	</g>
	<g>
		<circle fill="#BE1E2D" cx="509.4" cy="271.6" r="16"/>
		<g>
			<path fill="#1B070D" d="M505.9,285.2c0,0,4.3,2.1,7.4,0c0,0,0-2-0.2-3.5c-0.2-1.5,0-4.2,0.2-6.3c0.2-2-0.2-6.5-0.5-8.2
				c-0.3-1.7-0.8-2.9-0.8-2.9h-4.9c0,0-0.8,1.8-1.1,3.8c-0.3,2,0,7.7,0,7.7s0.5,4.6,0.1,5.8C505.8,282.8,505.9,285.2,505.9,285.2z"
				/>
			<path fill="#748267" d="M507.1,264.4h4.9c0,0-0.9-1.5-1-2.8c-0.1-1.3-0.2-2.5-0.2-2.5h-2.6c0,0,0,2.2-0.2,3
				C507.8,262.8,507.1,264.4,507.1,264.4z"/>
			<rect x="508.8" y="259.1" fill="#A2AF97" width="0.4" height="5.3"/>
			<rect x="509.5" y="259.1" fill="#5D6852" width="0.3" height="5.3"/>
			<path fill="#748267" d="M508.3,259.1c0,0-0.4-0.1-0.4-0.6c0-0.4,0.5-0.9,0.5-0.9h2.3c0,0,0.6,0.1,0.6,0.8c0,0.6-0.4,0.7-0.4,0.7
				H508.3z"/>
			<path fill="#BE1E2D" d="M508.3,257.6l0.1,0.2l0.2-0.2l0.2,0.2l0.2-0.2l0.2,0.2l0.2-0.2l0.2,0.2l0.2-0.2c0,0,0.1,0.2,0.2,0.2
				c0,0,0.2-0.2,0.2-0.2l0.2,0.2l0.2-0.2l0.2,0.2l0.1-0.2c0,0,0.2-0.4-0.1-0.5h-2.5C508.4,257.2,508,257.3,508.3,257.6z"/>
			<rect x="508.2" y="264.4" fill="#414042" width="0.8" height="21.7"/>
			<rect x="506.2" y="268.8" fill="#BE1E2D" width="6.7" height="4.1"/>
		</g>
		<g id="KRyJ1s.tif_5_">
			<g>
				<path fill="#FFFFFF" d="M500.6,266.9c0.1,0,0.2,0.1,0.3,0.1c0.2,0.1,0.3,0.3,0.3,0.5c0,0.2,0,0.4-0.1,0.6
					c-0.1,0.1-0.2,0.3-0.2,0.4c-0.1,0.1-0.2,0.2-0.4,0.2c-0.2,0-0.3-0.1-0.3-0.2c0-0.1,0-0.2,0.1-0.3c0.1-0.2,0.2-0.4,0.4-0.4
					c0,0,0.1,0,0.1,0c0.1,0,0.1,0,0.1-0.1c0.1-0.2-0.1-0.4-0.3-0.4c-0.1,0-0.2,0-0.4,0.1c-0.5,0.2-0.9,0.4-1.2,0.8
					c-1.1,1.1-2.1,2.3-2.7,3.7c-0.2,0.5-0.4,1-0.5,1.6c-0.1,0.4-0.1,0.8,0,1.1c0.1,0.5,0.4,0.8,0.9,1c0.4,0.2,0.7,0.2,1.1,0.2
					c0.6,0,1.2-0.2,1.9-0.4c0.7-0.2,1.4-0.3,2.1-0.5c0.7-0.1,1.3-0.2,2-0.2c0.8,0,1.5,0.3,2.2,0.7c0.4,0.3,0.7,0.5,1,0.8
					c0.1,0.1,0.1,0.1,0.1,0.2c0,0,0,0-0.1,0c-0.6-0.4-1.3-0.6-2.1-0.6c-0.3,0-0.6,0.1-0.9,0.3c-0.1,0.1-0.2,0.2-0.4,0.4c0,0,0,0,0,0
					c-0.3-0.5-0.7-0.8-1.3-0.9c-0.4-0.1-0.8-0.1-1.2-0.1c-0.7,0-1.4,0.2-2,0.4c-0.6,0.2-1.2,0.3-1.9,0.4c-0.5,0.1-1,0.1-1.5-0.1
					c-0.7-0.3-1.2-0.8-1.3-1.5c0-0.1,0-0.3-0.1-0.4c0,0,0,0,0-0.1c0-0.1,0-0.3,0-0.4c0-0.1,0-0.2,0-0.3c0.1-0.6,0.2-1.2,0.5-1.7
					c0.5-1.1,1.1-2,2-2.8c0.5-0.5,1.1-1,1.8-1.4c0.4-0.2,0.8-0.4,1.2-0.5c0.1,0,0.3,0,0.4-0.1C500.4,266.9,500.5,266.9,500.6,266.9z
					"/>
				<path fill="#FFFFFF" d="M521.2,268.3c0.1-0.1,0.1-0.3,0.2-0.4c0.1-0.1,0.1-0.3,0.1-0.4c0-0.1,0-0.2-0.2-0.1
					c-0.1,0-0.2,0.1-0.3,0.2c-0.4,0.3-0.7,0.6-1,1c-0.7,0.7-1.2,1.6-1.7,2.4c-0.3,0.5-0.6,1.1-0.9,1.6c0,0.1,0,0.1-0.1,0.2
					c0,0,0.1,0,0.1-0.1c0.2-0.2,0.4-0.3,0.6-0.5c0.8-0.8,1.6-1.6,2.3-2.5c0.1-0.1,0.1-0.2,0.2-0.1c0,0,0.1,0,0.2,0
					c0,0.1-0.1,0.1-0.1,0.2c-0.4,0.6-0.9,1.2-1.5,1.7c-0.6,0.7-1.3,1.3-2.1,1.8c0,0,0,0-0.1,0.1c-0.2,0.5-0.4,1-0.6,1.6
					c0,0.1,0,0.2,0,0.3c0,0.2,0.2,0.2,0.3,0.1c0.1-0.1,0.3-0.2,0.4-0.4c0.2-0.3,0.4-0.6,0.6-0.8c0.3-0.5,0.6-1,1-1.4
					c0.3-0.4,0.7-0.8,1.2-1.1c0.2-0.1,0.4-0.2,0.7-0.1c0.2,0,0.2,0.1,0.3,0.2c0,0,0,0.1,0.1,0.1c0-0.1,0.1-0.1,0.1-0.2
					c0,0,0,0,0.1,0c0.3,0,0.6,0,0.9,0c0,0,0,0,0,0c0,0,0,0,0,0.1c-0.4,0.8-0.9,1.5-1.3,2.3c-0.2,0.3-0.3,0.6-0.5,0.9
					c0,0.1-0.1,0.2-0.1,0.3c0,0.1,0,0.1,0,0.2c0.1,0,0.1,0,0.2,0c0.3-0.2,0.5-0.4,0.6-0.6c0.2-0.3,0.4-0.6,0.6-0.9
					c0,0,0.1-0.1,0.1-0.1c0.1,0,0.1,0,0.2,0c0,0.1-0.1,0.1-0.1,0.1c-0.4,0.6-0.7,1.1-1.2,1.6c-0.3,0.3-0.6,0.5-0.9,0.6
					c-0.1,0-0.2,0.1-0.3,0.1c-0.2,0-0.3-0.1-0.4-0.3c0-0.1,0-0.3,0-0.4c0,0,0-0.1,0-0.1c0,0,0,0,0,0c-0.1,0.1-0.1,0.1-0.2,0.2
					c-0.2,0.2-0.4,0.4-0.7,0.5c-0.1,0.1-0.3,0.1-0.4,0.1c-0.3,0-0.4-0.2-0.4-0.5c0-0.1,0-0.2,0-0.3c0,0,0-0.1,0-0.1
					c0,0-0.1,0.1-0.1,0.1c-0.2,0.2-0.4,0.5-0.7,0.7c-0.1,0.1-0.2,0.1-0.4,0.2c-0.3,0.1-0.5,0-0.7-0.3c-0.1-0.2-0.1-0.3-0.1-0.5
					c0-0.4,0.1-0.7,0.2-1.1c0.1-0.2,0.1-0.4,0.2-0.7c0,0-0.1,0-0.1,0c-0.1,0-0.2,0-0.3,0c-0.1,0-0.1,0-0.1,0.1
					c-0.2,0.4-0.4,0.7-0.7,1.1c-0.3,0.5-0.7,0.9-1.2,1.2c-0.2,0.1-0.3,0.2-0.5,0.2c-0.4,0-0.6-0.2-0.6-0.5c-0.1-0.3,0-0.5,0-0.8
					c0.1-0.5,0.4-1,0.7-1.5c0.3-0.5,0.7-1,1.2-1.4c0.3-0.2,0.6-0.4,0.9-0.6c0.1,0,0.3-0.1,0.4,0c0.3,0,0.4,0.2,0.4,0.4
					c0.1,0.3,0,0.6-0.1,0.8c-0.1,0.2-0.2,0.4-0.3,0.6c0,0,0,0,0,0.1c0.2,0,0.3,0,0.5-0.1c0,0,0,0,0-0.1c0.5-1,1-1.9,1.6-2.8
					c0.7-1.1,1.6-2.1,2.6-2.9c0.2-0.2,0.5-0.4,0.8-0.5c0.1-0.1,0.3-0.1,0.5-0.1c0.2,0,0.3,0.1,0.3,0.3c0,0.2,0,0.5-0.1,0.7
					C521.5,268.2,521.5,268.2,521.2,268.3C521.2,268.3,521.2,268.3,521.2,268.3z M518.4,275.2c0,0.1,0.1,0.2,0.2,0.1
					c0.1,0,0.1-0.1,0.2-0.1c0.2-0.1,0.3-0.3,0.4-0.5c0.4-0.5,0.6-1,0.9-1.5c0.2-0.3,0.4-0.6,0.5-0.9c0-0.1,0.1-0.1,0-0.2
					c-0.1-0.1-0.1-0.1-0.2-0.1c-0.1,0-0.2,0.1-0.2,0.1c-0.1,0.1-0.2,0.2-0.3,0.2c-0.6,0.6-1.1,1.4-1.5,2.2
					C518.5,274.7,518.4,274.9,518.4,275.2z M514.2,273c-0.1,0.2-0.3,0.4-0.4,0.6c-0.2,0.3-0.4,0.7-0.5,1.1c0,0.1-0.1,0.3,0,0.4
					c0,0.2,0.2,0.3,0.3,0.2c0.2,0,0.3-0.1,0.4-0.3c0.4-0.4,0.7-0.8,0.9-1.3c0,0,0-0.1,0-0.1C514.7,273.5,514.4,273.3,514.2,273z
					 M515.6,272.3c0,0,0-0.1,0-0.1c0-0.2-0.1-0.3-0.3-0.3c-0.1,0-0.1,0-0.2,0c-0.2,0.1-0.3,0.2-0.4,0.4c-0.3,0.4,0,0.9,0.4,1.1
					c0,0,0.1,0,0.1,0c0-0.1,0.1-0.2,0.1-0.2C515.4,272.9,515.6,272.6,515.6,272.3z"/>
				<path fill="#FFFFFF" d="M501.1,271c0.1,0,0.1,0,0.1,0c0.1-0.1,0.3-0.1,0.4-0.2c0.3-0.2,0.5-0.4,0.7-0.6c0.2-0.2,0.5-0.5,0.8-0.6
					c0.2-0.2,0.5-0.3,0.8-0.2c0.4,0,0.6,0.3,0.6,0.7c0,0.3-0.2,0.6-0.4,0.8c-0.1,0.1-0.2,0.1-0.3,0.2c-0.2,0.1-0.3,0-0.3-0.2
					c0-0.3,0.3-0.7,0.6-0.7c0,0,0,0,0.1,0c0.1-0.1,0-0.3-0.2-0.3c-0.2,0-0.3,0.1-0.4,0.2c-0.2,0.2-0.5,0.4-0.7,0.7
					c-0.5,0.6-0.8,1.2-1,1.9c-0.1,0.2-0.1,0.3-0.1,0.5c0,0.3,0.3,0.4,0.5,0.3c0.2-0.1,0.4-0.2,0.6-0.4c0.4-0.4,0.7-0.8,1.1-1.2
					c0.3-0.4,0.6-0.8,0.9-1.2c0.3-0.4,0.6-0.7,1-1c0.2-0.1,0.4-0.2,0.6-0.3c0.2,0,0.4,0,0.6,0.2c0,0,0,0,0,0c0,0,0,0,0,0
					c0-0.1,0.1-0.2,0.3-0.1c0.2,0,0.4,0,0.7,0c0,0,0,0,0.1,0c0,0,0,0.1-0.1,0.1c-0.6,1.1-1.2,2.2-1.9,3.2c0,0.1-0.1,0.1-0.1,0.2
					c0,0.1,0.1,0.1,0.1,0.1c0.1,0,0.1-0.1,0.2-0.1c0.2-0.2,0.4-0.4,0.6-0.6c0.2-0.2,0.3-0.4,0.5-0.6c0-0.1,0.1-0.1,0.1-0.1
					c0.1,0,0.1,0,0.2,0c0,0,0,0,0,0c-0.4,0.6-0.8,1.1-1.3,1.6c-0.2,0.2-0.5,0.5-0.8,0.6c-0.1,0.1-0.3,0.1-0.4,0.1
					c-0.2,0-0.3-0.2-0.3-0.3c0-0.1,0-0.2,0-0.4c0,0,0,0,0,0.1c-0.2,0.2-0.4,0.4-0.6,0.5c-0.1,0.1-0.3,0.2-0.5,0.2
					c-0.3,0-0.6-0.2-0.6-0.5c0-0.2,0-0.4,0.1-0.6c0,0,0-0.1,0-0.1c0,0,0,0-0.1,0.1c-0.3,0.3-0.6,0.5-0.8,0.8
					c-0.2,0.2-0.5,0.3-0.8,0.4c-0.2,0-0.3,0-0.5,0c-0.3-0.1-0.5-0.4-0.5-0.7c-0.1-0.4,0-0.8,0.2-1.2c0.1-0.2,0.2-0.5,0.3-0.7
					c0,0,0,0,0-0.1c-0.1,0-0.2,0.1-0.3,0.1c-0.1,0-0.2,0.1-0.2,0.1c-0.2,0.4-0.4,0.7-0.7,1.1c-0.3,0.5-0.7,0.9-1.2,1.2
					c-0.2,0.1-0.4,0.2-0.6,0.3c-0.3,0-0.5-0.1-0.6-0.4c-0.1-0.2-0.1-0.4-0.1-0.6c0.1-0.6,0.3-1.2,0.6-1.7c0.4-0.6,0.9-1.2,1.5-1.6
					c0.3-0.2,0.5-0.3,0.8-0.4c0.5-0.1,0.8,0.2,0.8,0.6c0,0.3-0.1,0.5-0.2,0.8C501.2,270.7,501.1,270.8,501.1,271z M504.6,272.8
					c0,0.1,0,0.1,0.1,0.2c0.1,0,0.1,0,0.2,0c0.2-0.1,0.3-0.2,0.4-0.3c0.2-0.2,0.3-0.4,0.4-0.6c0.4-0.7,0.8-1.5,1.3-2.2
					c0-0.1,0-0.2-0.1-0.2c-0.1,0-0.1,0-0.2,0c-0.1,0.1-0.3,0.2-0.4,0.3c-0.3,0.4-0.6,0.7-0.9,1.1c-0.3,0.4-0.6,0.9-0.8,1.4
					C504.7,272.6,504.6,272.7,504.6,272.8z M499.7,270.6C499.7,270.7,499.7,270.7,499.7,270.6c-0.2,0.3-0.3,0.5-0.5,0.7
					c-0.2,0.3-0.4,0.7-0.4,1c0,0.1,0,0.2,0,0.3c0,0.2,0.2,0.3,0.4,0.2c0.1,0,0.1,0,0.1-0.1c0.2-0.1,0.3-0.3,0.5-0.4
					c0.3-0.3,0.5-0.7,0.8-1.1c0,0,0-0.1,0-0.1C500.2,271.2,499.9,271,499.7,270.6z M501,270c0,0,0-0.1,0-0.1c0-0.3-0.2-0.4-0.4-0.3
					c0,0-0.1,0-0.1,0.1c-0.2,0.1-0.3,0.3-0.4,0.5c-0.1,0.2-0.1,0.4,0.1,0.5c0.1,0.2,0.3,0.3,0.5,0.3c0,0,0.1,0,0.1-0.1
					c0-0.1,0.1-0.2,0.2-0.4C501,270.4,501,270.2,501,270z"/>
				<path fill="#FFFFFF" d="M519.3,268.2c-0.2,0.2-0.4,0.5-0.7,0.7c0,0-0.1,0-0.1,0c-0.1-0.1-0.3-0.2-0.4-0.3
					c-0.4-0.3-0.8-0.5-1.3-0.8c-0.3-0.2-0.7-0.3-1.1-0.4c-0.1,0-0.2,0-0.4,0c0,0-0.1,0-0.1,0.1c0,0.4-0.1,0.9-0.2,1.3
					c-0.2,0.6-0.6,1.1-1,1.5c-0.2,0.2-0.4,0.3-0.7,0.4c-0.3,0.1-0.6-0.1-0.6-0.4c0-0.2,0-0.4,0.1-0.6c0.3-0.7,0.7-1.3,1.3-1.8
					c0.2-0.2,0.4-0.3,0.6-0.5c0,0,0,0,0,0c-0.1-0.1-0.3-0.1-0.4,0c-0.2,0-0.4,0.1-0.5,0.2c-0.6,0.3-1.2,0.8-1.7,1.3
					c-0.9,1-1.7,2-2.3,3.2c-0.3,0.6-0.6,1.3-0.7,2c-0.1,0.3-0.1,0.6,0,0.9c0.1,0.3,0.3,0.5,0.6,0.6c0.2,0.1,0.4,0,0.6-0.1
					c0.3-0.1,0.6-0.4,0.8-0.6c0.5-0.5,0.9-1.1,1.1-1.7c0.1-0.3,0.1-0.5,0.1-0.8c0-0.3-0.2-0.4-0.4-0.3c-0.2,0.1-0.3,0.2-0.4,0.4
					c-0.2,0.3-0.4,0.7-0.5,1.1c0,0,0,0.1-0.1,0.1c-0.4,0.2-0.8,0.5-1.1,0.9c0,0,0,0,0,0c0.1-0.8,0.3-1.5,0.9-2.1
					c0.3-0.4,0.7-0.6,1.1-0.7c0.1,0,0.2-0.1,0.4,0c0.2,0.1,0.3,0.2,0.4,0.4c0.1,0.3,0.1,0.5,0,0.8c-0.1,0.6-0.4,1.2-0.7,1.7
					c-0.4,0.7-1,1.2-1.6,1.6c-0.3,0.2-0.6,0.3-0.9,0.3c-0.5,0-0.9-0.2-1.2-0.7c-0.2-0.4-0.3-0.8-0.3-1.3c0-0.7,0.3-1.3,0.6-1.9
					c0.8-1.7,1.9-3.1,3.3-4.3c0.6-0.5,1.3-0.9,2.1-1.1c0.3-0.1,0.6-0.1,0.8,0c0.1,0,0.2,0.1,0.3,0.2c0,0,0.1,0,0.1,0
					c0.2-0.1,0.5-0.2,0.7-0.2c0.6-0.1,1.1,0,1.6,0.2C518.1,267.5,518.7,267.8,519.3,268.2C519.3,268.2,519.3,268.2,519.3,268.2z
					 M515.1,267.6c-0.1,0-0.1,0.1-0.2,0.1c-0.7,0.4-1.3,1.1-1.7,1.8c-0.1,0.2-0.2,0.4-0.2,0.5c0,0.3,0.2,0.4,0.4,0.3
					c0.1,0,0.2-0.1,0.3-0.2c0.8-0.6,1.3-1.4,1.4-2.4C515.1,267.7,515.1,267.7,515.1,267.6z"/>
				<path fill="#FFFFFF" d="M523.8,266.9c-0.1,0.3-0.3,0.5-0.5,0.7c-0.6,0.7-1.3,1.3-2.2,1.6c-0.5,0.1-0.9,0.2-1.4,0.1c0,0,0,0,0,0
					c0,0,0,0-0.1,0c0,0,0,0,0-0.1c0.2-0.2,0.4-0.5,0.6-0.7c0,0,0.1,0,0.1,0c0.5,0,1.1,0,1.6-0.3C522.6,268,523.2,267.5,523.8,266.9
					C523.8,266.9,523.8,266.9,523.8,266.9z"/>
				<path fill="#FFFFFF" d="M509.8,269.3c-0.1,0.1-0.2,0.2-0.2,0.4c-0.1,0.1-0.2,0.3-0.2,0.4c0,0,0,0-0.1,0c-0.3,0-0.5,0-0.8,0
					c0,0,0,0,0,0c0,0,0,0,0,0c0.1-0.2,0.3-0.5,0.4-0.7c0,0,0,0,0.1,0C509.2,269.3,509.5,269.3,509.8,269.3z"/>
			</g>
		</g>
	</g>
</g>
</svg>
