<?xml version="1.0" encoding="utf-8"?>
<!-- Generator: Adobe Illustrator 18.1.1, SVG Export Plug-In . SVG Version: 6.00 Build 0)  -->
<svg version="1.1" id="Layer_1" xmlns="http://www.w3.org/2000/svg" xmlns:xlink="http://www.w3.org/1999/xlink" x="0px" y="0px"
	 viewBox="0 0 800 550" enable-background="new 0 0 800 550" xml:space="preserve">
<g>
	<polygon fill="#414042" points="247.6,313.9 253.6,329.1 521.9,329.1 521.9,313.4 	"/>
	<path fill="#231F20" d="M525.2,307.2c0,3.7-3.8,6.7-8.4,6.7h-37.1c-4.7,0-8.4-3-8.4-6.7v-60.1c0-3.7,3.8-6.7,8.4-6.7h37.1
		c4.7,0,8.4,3,8.4,6.7V307.2z"/>
	<path fill="#D1D3D4" d="M469.1,313.9V195.8c0,0-221.9-12-224.1-11.5c-2.2,0.5-9.8,102.8,2.7,129.6H469.1z"/>
	<path fill="#BCBEC0" d="M240.6,184.3L471.1,196c0,0,1.3-3.7-5.3-5.9C465.7,190.2,280.7,160.6,240.6,184.3z"/>
	<rect x="240.6" y="246.8" fill="#E6E7E8" width="179.3" height="2.3"/>
	<path fill="#414042" d="M464.5,233.1c0,3.3-2.9,6-6.5,6h-27.8c-3.6,0-6.5-2.7-6.5-6v-25c0-3.3,2.9-6,6.5-6H458c3.6,0,6.5,2.7,6.5,6
		V233.1z"/>
	<path fill="#939598" d="M436.7,248.5c0,1-0.8,1.8-1.8,1.8h-9.4c-1,0-1.8-0.8-1.8-1.8l0,0c0-1,0.8-1.8,1.8-1.8h9.4
		C435.9,246.8,436.7,247.6,436.7,248.5L436.7,248.5z"/>
	<rect x="419.1" y="193.1" fill="#A7A9AC" width="0.9" height="120.8"/>
	<rect x="469.1" y="240.4" fill="#D1D3D4" width="10.4" height="73.5"/>
	<path fill="#414042" d="M479.4,247.3h45.8c0,0,0.9-5.2-7.2-6.9h-38.5V247.3z"/>
	<path fill="#414042" d="M262.5,327.9l74.6,1.2c0,0,0.5-32.6-32.8-36.2C271,289.4,261,309.7,262.5,327.9z"/>
	<g>
		<circle fill="#231F20" cx="299.8" cy="329.1" r="34.8"/>
		<circle fill="#414042" cx="299.8" cy="329.1" r="29"/>
		<circle fill="#808285" cx="299.8" cy="329.1" r="26.1"/>
		<circle fill="#58595B" cx="299.8" cy="329.1" r="17.9"/>
		<circle fill="#6D6E71" cx="299.8" cy="329.1" r="8"/>
		<circle fill="#414042" cx="283.7" cy="313.4" r="2.4"/>
		<circle fill="#414042" cx="316.4" cy="313.4" r="2.4"/>
		<circle fill="#414042" cx="283.7" cy="343.8" r="2.4"/>
		<circle fill="#414042" cx="316.4" cy="343.8" r="2.4"/>
		<circle fill="#939598" cx="291.8" cy="335" r="1.4"/>
		<circle fill="#939598" cx="308.4" cy="323.9" r="1.4"/>
		<circle fill="#939598" cx="308.4" cy="335" r="1.4"/>
		<circle fill="#939598" cx="291.8" cy="323.1" r="1.4"/>
		<circle fill="#939598" cx="299.8" cy="339.3" r="1.4"/>
		<circle fill="#939598" cx="299.8" cy="319.8" r="1.4"/>
	</g>
	<path fill="#231F20" d="M337.1,329.1c0,0-2.3-36.4-37.4-36.4s-36.1,36.4-36.1,36.4s-5.6,6-10,0c0,0,3.4-43.3,44.8-43.3
		S337.1,329.1,337.1,329.1z"/>
	<rect x="337.2" y="327.3" fill="#231F20" width="142.2" height="4.5"/>
	<path fill="#231F20" d="M337.2,331.8c0,0-0.4-19.5-12.7-30.1l2.8-4.2c0,0,9.9,5.8,16.3,34.3H337.2z"/>
	<path fill="#414042" d="M481.8,329.1l50.1-13.7l3.7-20.5c0,0-13.8-8.2-33.4-3.5C482.6,296.2,478.6,324.5,481.8,329.1z"/>
	<g>
		<circle fill="#231F20" cx="516.6" cy="329.1" r="34.8"/>
		<circle fill="#414042" cx="516.6" cy="329.1" r="29"/>
		<circle fill="#808285" cx="516.6" cy="329.1" r="26.1"/>
		<circle fill="#58595B" cx="516.6" cy="329.1" r="17.9"/>
		<circle fill="#6D6E71" cx="516.6" cy="329.1" r="8"/>
		<circle fill="#414042" cx="500.5" cy="313.4" r="2.4"/>
		<circle fill="#414042" cx="533.2" cy="313.4" r="2.4"/>
		<circle fill="#414042" cx="500.5" cy="343.8" r="2.4"/>
		<circle fill="#414042" cx="533.2" cy="343.8" r="2.4"/>
		<circle fill="#939598" cx="508.6" cy="335" r="1.4"/>
		<circle fill="#939598" cx="525.2" cy="323.9" r="1.4"/>
		<circle fill="#939598" cx="525.2" cy="335" r="1.4"/>
		<circle fill="#939598" cx="508.6" cy="323.1" r="1.4"/>
		<circle fill="#939598" cx="516.6" cy="339.3" r="1.4"/>
		<circle fill="#939598" cx="516.6" cy="319.8" r="1.4"/>
	</g>
	<path fill="#231F20" d="M479.4,331.8c0,0-2.6-38.1,41.4-38.3c0,0,21.7,1.5,33.7,22.3c0,0-0.1-11.7-7.6-18.2
		c-7.5-6.6-31.5-14.6-53.3-4c-21.8,10.6-23.4,39.2-40.2,38.3H479.4z"/>
	<rect x="253.8" y="200.3" fill="#8C1F25" width="97.4" height="38.9"/>
	<g id="KRyJ1s.tif_53_">
		<g>
			<path fill="#FFFFFF" d="M275.9,205.5c0.3,0.1,0.6,0.2,0.8,0.3c0.6,0.3,0.9,0.9,1,1.6c0.1,0.7-0.1,1.3-0.4,1.9
				c-0.2,0.4-0.5,0.8-0.7,1.2c-0.3,0.4-0.7,0.6-1.1,0.7c-0.5,0.1-0.8-0.2-0.8-0.7c0-0.4,0-0.7,0.2-1c0.3-0.6,0.6-1.1,1.3-1.2
				c0.1,0,0.3-0.1,0.4-0.1c0.2,0,0.2-0.1,0.3-0.2c0.2-0.6-0.2-1.2-0.9-1.2c-0.4,0-0.7,0.1-1,0.2c-1.4,0.5-2.6,1.3-3.7,2.3
				c-3.4,3.2-6.2,6.8-8.1,11.1c-0.7,1.5-1.2,3.1-1.5,4.7c-0.2,1.1-0.2,2.3,0.1,3.4c0.3,1.4,1.2,2.4,2.6,3c1.1,0.5,2.2,0.6,3.4,0.5
				c1.9-0.1,3.7-0.7,5.6-1.1c2.1-0.5,4.2-1,6.3-1.5c2-0.4,4-0.7,6.1-0.6c2.4,0.1,4.5,0.8,6.4,2.2c1.1,0.8,2.2,1.6,3.1,2.5
				c0.2,0.2,0.3,0.3,0.4,0.6c-0.1,0-0.1-0.1-0.2-0.1c-1.9-1.2-4-1.9-6.3-1.9c-1,0-1.9,0.2-2.7,0.8c-0.4,0.3-0.7,0.7-1.1,1.1
				c0,0,0,0,0,0c-0.9-1.5-2.2-2.3-3.8-2.7c-1.2-0.3-2.3-0.3-3.5-0.2c-2.1,0.1-4.1,0.7-6.1,1.2c-1.9,0.5-3.7,0.9-5.6,1.2
				c-1.5,0.3-3,0.3-4.4-0.3c-2.2-0.8-3.5-2.3-4-4.6c-0.1-0.4-0.1-0.9-0.2-1.3c0-0.1,0-0.1,0-0.2c0-0.4,0-0.8,0-1.2
				c0-0.3,0.1-0.6,0.1-0.9c0.2-1.8,0.7-3.4,1.4-5.1c1.4-3.2,3.4-6,5.9-8.5c1.6-1.6,3.3-3.1,5.3-4.2c1.1-0.6,2.3-1.1,3.5-1.4
				c0.4-0.1,0.8-0.1,1.2-0.2C275.4,205.5,275.7,205.5,275.9,205.5z"/>
			<path fill="#FFFFFF" d="M337.6,209.7c0.2-0.4,0.4-0.8,0.6-1.2c0.2-0.4,0.3-0.8,0.3-1.3c0-0.3-0.1-0.5-0.5-0.3
				c-0.3,0.1-0.6,0.3-0.8,0.5c-1.1,0.9-2.1,1.9-3.1,2.9c-2,2.2-3.6,4.7-5.2,7.2c-1,1.6-1.8,3.2-2.7,4.8c-0.1,0.2-0.1,0.3-0.2,0.5
				c0.1-0.1,0.2-0.1,0.3-0.2c0.6-0.5,1.2-0.9,1.8-1.4c2.5-2.3,4.8-4.7,6.8-7.4c0.2-0.3,0.4-0.5,0.7-0.4c0.1,0,0.3,0,0.5-0.1
				c-0.1,0.2-0.2,0.3-0.3,0.5c-1.3,1.9-2.8,3.6-4.4,5.2c-1.9,2-4,3.9-6.3,5.5c-0.1,0-0.1,0.1-0.2,0.2c-0.7,1.5-1.3,3.1-1.6,4.7
				c-0.1,0.3-0.1,0.7,0,1c0.1,0.5,0.5,0.7,0.9,0.4c0.4-0.3,0.8-0.7,1.1-1.1c0.6-0.8,1.2-1.7,1.7-2.5c1-1.5,1.9-2.9,3-4.3
				c1-1.2,2.2-2.3,3.6-3.2c0.6-0.4,1.2-0.5,2-0.4c0.5,0.1,0.7,0.4,1,0.7c0.1,0.1,0.1,0.2,0.2,0.3c0.1-0.2,0.2-0.4,0.3-0.6
				c0-0.1,0.1-0.1,0.2-0.1c0.9,0,1.7,0,2.6,0c0,0,0,0,0.1,0c0,0.1-0.1,0.1-0.1,0.2c-1.3,2.3-2.6,4.6-3.9,6.9c-0.5,0.9-1,1.8-1.5,2.7
				c-0.1,0.2-0.2,0.5-0.3,0.8c-0.1,0.2-0.1,0.4,0.1,0.5c0.2,0.1,0.3,0.1,0.5,0c0.8-0.5,1.4-1.1,1.9-1.7c0.6-0.8,1.2-1.7,1.8-2.6
				c0.1-0.1,0.2-0.2,0.3-0.2c0.2,0,0.4,0,0.7,0c-0.1,0.2-0.2,0.3-0.3,0.4c-1.1,1.7-2.2,3.3-3.6,4.7c-0.8,0.8-1.7,1.5-2.7,1.9
				c-0.3,0.1-0.6,0.2-0.9,0.2c-0.6,0-0.9-0.3-1.1-0.8c-0.1-0.4-0.1-0.8-0.1-1.1c0-0.1,0-0.2,0-0.2c0,0,0,0,0,0
				c-0.2,0.2-0.3,0.3-0.5,0.5c-0.6,0.6-1.3,1.2-2.1,1.5c-0.4,0.2-0.8,0.3-1.2,0.2c-0.8-0.1-1.2-0.7-1.3-1.5c0-0.3,0-0.7,0-1
				c0-0.1,0-0.2,0-0.3c-0.1,0.1-0.2,0.2-0.2,0.2c-0.6,0.7-1.3,1.4-2.1,2c-0.3,0.2-0.7,0.4-1.1,0.5c-0.8,0.3-1.6,0-2-0.8
				c-0.2-0.5-0.3-0.9-0.3-1.4c0-1.1,0.4-2.2,0.7-3.2c0.2-0.6,0.4-1.3,0.6-2c-0.1,0-0.2,0-0.3,0.1c-0.3,0-0.7,0.1-1,0.1
				c-0.2,0-0.2,0.1-0.3,0.2c-0.7,1.1-1.3,2.2-2.1,3.2c-1,1.4-2.2,2.6-3.7,3.5c-0.5,0.3-1,0.5-1.6,0.5c-1.1,0.1-1.7-0.6-1.8-1.4
				c-0.2-0.8-0.1-1.5,0.1-2.3c0.4-1.6,1.1-3.1,2-4.6c1-1.5,2.1-3,3.5-4.2c0.8-0.7,1.7-1.3,2.8-1.7c0.4-0.1,0.8-0.2,1.2-0.1
				c0.8,0.1,1.2,0.7,1.3,1.2c0.2,0.8,0.1,1.7-0.2,2.5c-0.2,0.7-0.5,1.3-0.8,1.9c0,0.1-0.1,0.1-0.1,0.2c0.6,0,1-0.1,1.5-0.3
				c0.1,0,0.1-0.1,0.1-0.2c1.4-2.9,3-5.7,4.8-8.4c2.2-3.3,4.8-6.2,7.8-8.7c0.7-0.6,1.5-1.1,2.4-1.5c0.4-0.2,0.9-0.3,1.4-0.3
				c0.6,0,0.9,0.3,0.9,0.9c0.1,0.7-0.1,1.4-0.4,2.1c-0.3,0.7-0.4,0.8-1.2,0.9C337.7,209.7,337.7,209.7,337.6,209.7z M329.2,230.4
				c0,0.3,0.3,0.5,0.7,0.3c0.2-0.1,0.4-0.2,0.6-0.3c0.5-0.4,0.9-1,1.3-1.5c1.1-1.5,1.9-3.1,2.8-4.6c0.5-0.9,1.1-1.8,1.6-2.7
				c0.1-0.2,0.2-0.4,0-0.6c-0.2-0.2-0.4-0.2-0.6-0.2c-0.3,0.1-0.5,0.2-0.7,0.4c-0.3,0.2-0.6,0.5-0.8,0.7c-1.9,1.9-3.3,4.1-4.5,6.5
				C329.4,229,329.3,229.6,329.2,230.4z M316.7,223.8c-0.4,0.6-0.8,1.2-1.2,1.7c-0.6,1-1.2,2.1-1.6,3.3c-0.1,0.4-0.2,0.8-0.1,1.3
				c0.1,0.5,0.5,0.8,1,0.7c0.5-0.1,0.9-0.4,1.3-0.8c1.2-1.1,2-2.4,2.8-3.8c0-0.1,0.1-0.2,0.1-0.2
				C318.1,225.5,317.3,224.9,316.7,223.8z M320.7,221.8c0-0.1,0-0.2,0-0.4c-0.1-0.5-0.3-0.8-0.8-0.8c-0.2,0-0.4,0-0.6,0.1
				c-0.5,0.3-0.9,0.6-1.3,1.1c-0.8,1.3-0.1,2.8,1.3,3.3c0.1,0,0.2,0,0.2-0.1c0.1-0.2,0.3-0.5,0.4-0.7
				C320.4,223.5,320.7,222.7,320.7,221.8z"/>
			<path fill="#FFFFFF" d="M277.3,217.8c0.2,0,0.3,0,0.4-0.1c0.4-0.2,0.8-0.4,1.2-0.7c0.8-0.5,1.5-1.2,2.2-1.9
				c0.7-0.7,1.5-1.4,2.3-1.9c0.7-0.5,1.5-0.8,2.4-0.7c1.2,0.1,1.9,1,1.8,2.1c-0.1,0.9-0.5,1.7-1.1,2.4c-0.2,0.2-0.5,0.4-0.8,0.6
				c-0.5,0.2-1-0.1-1-0.7c0-1,0.9-2,1.8-2c0.1,0,0.1,0,0.2-0.1c0.2-0.4,0.1-1-0.5-1c-0.5,0-0.9,0.2-1.3,0.5c-0.7,0.6-1.4,1.2-2,2
				c-1.4,1.7-2.4,3.6-3.1,5.6c-0.2,0.5-0.3,1-0.2,1.6c0.1,0.8,0.8,1.3,1.6,1c0.7-0.2,1.3-0.6,1.9-1.1c1.2-1.1,2.2-2.3,3.2-3.6
				c0.9-1.2,1.8-2.4,2.7-3.6c0.9-1.1,1.9-2.1,3.1-3c0.5-0.4,1.1-0.7,1.8-0.8c0.7-0.1,1.3,0.1,1.8,0.7c0,0,0.1,0.1,0.1,0.1
				c0,0,0.1-0.1,0.1-0.1c0.1-0.4,0.4-0.5,0.8-0.4c0.6,0,1.3,0,2,0c0.1,0,0.1,0,0.3,0c-0.1,0.1-0.1,0.2-0.2,0.3
				c-1.9,3.2-3.7,6.5-5.6,9.7c-0.1,0.2-0.2,0.4-0.2,0.6c0,0.3,0.2,0.4,0.4,0.3c0.2-0.1,0.4-0.2,0.6-0.3c0.7-0.5,1.3-1.1,1.8-1.8
				c0.5-0.6,1-1.2,1.4-1.9c0.1-0.2,0.2-0.2,0.4-0.2c0.2,0,0.4,0,0.6,0c0,0.1,0,0.1-0.1,0.1c-1.2,1.7-2.4,3.3-3.8,4.8
				c-0.7,0.7-1.5,1.4-2.5,1.9c-0.4,0.2-0.9,0.3-1.3,0.2c-0.5-0.1-0.9-0.5-0.9-1c0-0.3,0-0.7,0-1.1c0,0.1-0.1,0.1-0.1,0.2
				c-0.5,0.6-1.1,1-1.7,1.4c-0.4,0.3-0.9,0.5-1.4,0.5c-1,0.1-1.8-0.5-1.8-1.6c0-0.6,0.1-1.2,0.3-1.8c0-0.1,0-0.2,0-0.3
				c-0.1,0.1-0.1,0.1-0.2,0.2c-0.8,0.8-1.7,1.5-2.5,2.3c-0.7,0.6-1.6,1-2.5,1.1c-0.5,0.1-1,0.1-1.4-0.1c-1-0.3-1.4-1.1-1.6-2.1
				c-0.3-1.3,0.1-2.5,0.6-3.7c0.3-0.7,0.7-1.4,1-2c0-0.1,0.1-0.1,0.1-0.2c-0.4,0.1-0.7,0.2-1,0.2c-0.3,0-0.5,0.2-0.6,0.4
				c-0.7,1.1-1.3,2.2-2,3.2c-1,1.4-2.2,2.6-3.6,3.5c-0.6,0.4-1.2,0.7-1.9,0.8c-0.8,0.1-1.5-0.3-1.8-1.1c-0.3-0.6-0.3-1.2-0.2-1.9
				c0.2-1.9,0.9-3.6,1.9-5.1c1.2-1.9,2.7-3.6,4.5-4.9c0.8-0.5,1.6-1,2.5-1.2c1.4-0.3,2.3,0.5,2.3,1.9c0,0.8-0.2,1.5-0.5,2.3
				C277.6,217,277.5,217.4,277.3,217.8z M287.8,223.3c0,0.2,0.1,0.4,0.3,0.5c0.2,0.1,0.4,0.1,0.6,0c0.5-0.3,0.9-0.6,1.2-1
				c0.5-0.6,0.9-1.2,1.3-1.9c1.3-2.2,2.5-4.4,3.8-6.6c0.1-0.2,0.1-0.4-0.2-0.6c-0.2-0.1-0.4,0-0.7,0.1c-0.4,0.2-0.8,0.5-1.1,0.8
				c-0.9,1.1-1.8,2.2-2.6,3.4c-0.9,1.3-1.7,2.6-2.3,4.1C288,222.6,288,223,287.8,223.3z M273.3,216.8c-0.1,0.1-0.1,0.1-0.1,0.1
				c-0.4,0.7-0.9,1.3-1.3,2c-0.6,1-1.1,2-1.3,3.1c-0.1,0.3-0.1,0.7-0.1,1c0.1,0.6,0.5,0.9,1.1,0.7c0.2,0,0.3-0.1,0.4-0.2
				c0.6-0.3,1-0.8,1.4-1.2c0.9-1,1.6-2.2,2.3-3.3c0-0.1,0.1-0.2,0.1-0.3C274.7,218.4,273.8,217.8,273.3,216.8z M277.2,214.9
				c0-0.1,0-0.2,0-0.3c-0.1-0.8-0.5-1.1-1.3-0.8c-0.1,0-0.3,0.1-0.4,0.2c-0.6,0.4-1,0.8-1.2,1.5c-0.2,0.5-0.2,1.1,0.2,1.5
				c0.4,0.5,1,0.8,1.6,0.9c0.1,0,0.2,0,0.2-0.2c0.1-0.4,0.3-0.7,0.5-1.1C277.1,216.1,277.2,215.5,277.2,214.9z"/>
			<path fill="#FFFFFF" d="M331.9,209.4c-0.7,0.7-1.3,1.4-2,2.1c0,0-0.2,0.1-0.2,0c-0.4-0.2-0.8-0.5-1.3-0.7
				c-1.3-0.8-2.5-1.6-3.8-2.4c-1-0.6-2.1-1-3.3-1.2c-0.4-0.1-0.7-0.1-1.1,0.1c-0.1,0-0.2,0.1-0.2,0.2c0.1,1.3-0.2,2.6-0.7,3.8
				c-0.7,1.7-1.7,3.2-3.1,4.4c-0.6,0.5-1.2,0.9-2,1.1c-1,0.3-1.8-0.2-1.9-1.3c-0.1-0.7,0.1-1.3,0.3-1.9c0.8-2.1,2.2-3.8,3.9-5.3
				c0.6-0.5,1.3-0.9,1.9-1.4c0,0,0.1-0.1,0.1-0.1c-0.4-0.2-0.8-0.2-1.2-0.1c-0.6,0.1-1.1,0.3-1.5,0.6c-1.9,1-3.5,2.4-5,3.9
				c-2.7,2.9-5,6-6.9,9.4c-1,1.9-1.8,3.9-2.2,6.1c-0.2,0.9-0.3,1.8-0.1,2.7c0.2,0.9,0.8,1.6,1.7,1.9c0.6,0.2,1.2,0,1.7-0.2
				c1-0.4,1.8-1.1,2.5-1.9c1.4-1.5,2.6-3.2,3.2-5.2c0.3-0.8,0.4-1.5,0.4-2.3c-0.1-0.8-0.5-1.1-1.2-0.8c-0.5,0.2-0.9,0.6-1.2,1.1
				c-0.7,1-1.2,2-1.5,3.2c0,0.1-0.1,0.2-0.2,0.2c-1.3,0.6-2.4,1.5-3.4,2.6c0,0-0.1,0.1-0.1,0.1c0.3-2.4,1-4.6,2.6-6.4
				c0.9-1.1,2-1.9,3.4-2.2c0.4-0.1,0.7-0.2,1.1-0.1c0.6,0.2,1,0.6,1.2,1.2c0.2,0.8,0.2,1.6,0.1,2.3c-0.3,1.8-1.2,3.5-2.2,5
				c-1.3,1.9-2.9,3.6-4.9,4.8c-0.9,0.5-1.8,0.8-2.8,0.8c-1.6,0.1-2.8-0.7-3.6-2c-0.7-1.2-0.8-2.4-0.8-3.7c0.1-2.1,0.8-4,1.7-5.8
				c2.4-5,5.7-9.3,10-12.8c1.9-1.5,3.9-2.7,6.2-3.3c0.8-0.2,1.7-0.3,2.5-0.1c0.4,0.1,0.7,0.3,1,0.6c0.1,0.1,0.2,0.1,0.3,0.1
				c0.7-0.2,1.4-0.5,2.1-0.6c1.7-0.3,3.4-0.1,4.9,0.7C328.5,207.3,330.2,208.4,331.9,209.4C331.9,209.4,331.9,209.4,331.9,209.4z
				 M319.2,207.6c-0.2,0.1-0.4,0.2-0.6,0.3c-2.2,1.3-3.8,3.2-5,5.5c-0.3,0.5-0.5,1-0.5,1.6c-0.1,0.7,0.5,1.2,1.2,0.9
				c0.3-0.1,0.5-0.3,0.8-0.5c2.4-1.8,3.8-4.3,4.1-7.2C319.3,208,319.2,207.9,319.2,207.6z"/>
			<path fill="#FFFFFF" d="M345.3,205.7c-0.4,0.8-0.9,1.5-1.4,2.2c-1.8,2.2-3.9,3.8-6.6,4.7c-1.4,0.4-2.8,0.6-4.2,0.3
				c0,0-0.1,0-0.1,0c-0.1,0-0.1,0-0.2-0.1c0-0.1,0.1-0.1,0.1-0.2c0.6-0.7,1.2-1.4,1.7-2.1c0.1-0.1,0.2-0.1,0.2-0.1
				c1.6,0.1,3.2-0.1,4.7-0.8C341.8,208.8,343.6,207.4,345.3,205.7C345.3,205.7,345.3,205.7,345.3,205.7z"/>
			<path fill="#FFFFFF" d="M303.4,212.8c-0.2,0.4-0.5,0.7-0.7,1.1c-0.2,0.4-0.5,0.8-0.7,1.2c0,0.1-0.1,0.1-0.2,0.1
				c-0.8,0-1.6,0-2.4,0c0,0,0,0-0.1,0c0,0,0-0.1,0-0.1c0.4-0.7,0.9-1.4,1.3-2.1c0-0.1,0.1-0.1,0.2-0.1
				C301.7,212.8,302.5,212.8,303.4,212.8z"/>
		</g>
	</g>
	<path fill="#414042" d="M527.7,258.3c0,0-17.8,0.8-17.8,12.6s17.8,11.4,17.8,11.4V258.3z"/>
	<ellipse fill="#F4E2C1" cx="527.7" cy="270.3" rx="3.1" ry="12"/>
</g>
</svg>
