<?xml version="1.0" encoding="utf-8"?>
<!-- Generator: Adobe Illustrator 19.0.0, SVG Export Plug-In . SVG Version: 6.00 Build 0)  -->
<!DOCTYPE svg PUBLIC "-//W3C//DTD SVG 1.1//EN" "http://www.w3.org/Graphics/SVG/1.1/DTD/svg11.dtd">
<svg version="1.1" id="Layer_1" xmlns="http://www.w3.org/2000/svg" xmlns:xlink="http://www.w3.org/1999/xlink" x="0px" y="0px"
	 viewBox="-239 126 800 550" style="enable-background:new -239 126 800 550;" xml:space="preserve">
<style type="text/css">
	.st0{fill:#23060D;}
	.st1{fill:#414042;}
	.st2{fill:#E6E7E8;}
	.st3{fill:#9A610B;}
	.st4{fill:#5E020C;}
	.st5{fill:#4C0F18;}
	.st6{fill:#A4001D;}
	.st7{fill:#58595B;}
	.st8{fill:#6D6E71;}
	.st9{fill:#808285;}
	.st10{fill:#FFFFFF;}
</style>
<rect x="8.9" y="320.5" class="st0" width="233.6" height="39"/>
<g>
	<polygon class="st1" points="59.1,346.8 1,346.8 4.7,318 54.5,318 	"/>
	<circle class="st2" cx="7.2" cy="320.5" r="1.8"/>
	<circle class="st2" cx="11.6" cy="320.5" r="1.8"/>
	<circle class="st2" cx="15.9" cy="320.5" r="1.8"/>
	<circle class="st2" cx="20.3" cy="320.5" r="1.8"/>
	<circle class="st2" cx="24.7" cy="320.5" r="1.8"/>
	<circle class="st2" cx="29.1" cy="320.5" r="1.8"/>
	<circle class="st2" cx="33.5" cy="320.5" r="1.8"/>
	<circle class="st2" cx="37.9" cy="320.5" r="1.8"/>
	<circle class="st2" cx="42.2" cy="320.5" r="1.8"/>
	<circle class="st2" cx="46.6" cy="320.5" r="1.8"/>
	<circle class="st2" cx="50.5" cy="320.5" r="1.8"/>
	<circle class="st2" cx="6.8" cy="325" r="1.8"/>
	<circle class="st2" cx="11.2" cy="325" r="1.8"/>
	<circle class="st2" cx="15.6" cy="325" r="1.8"/>
	<circle class="st2" cx="19.9" cy="325" r="1.8"/>
	<circle class="st2" cx="24.3" cy="325" r="1.8"/>
	<circle class="st2" cx="28.7" cy="325" r="1.8"/>
	<circle class="st2" cx="33.1" cy="325" r="1.8"/>
	<circle class="st2" cx="37.5" cy="325" r="1.8"/>
	<circle class="st2" cx="41.9" cy="325" r="1.8"/>
	<circle class="st2" cx="46.2" cy="325" r="1.8"/>
	<circle class="st2" cx="51.5" cy="325" r="1.8"/>
	<circle class="st2" cx="6.2" cy="329.1" r="1.8"/>
	<circle class="st2" cx="11.6" cy="329.1" r="1.8"/>
	<circle class="st2" cx="15.9" cy="329.1" r="1.8"/>
	<circle class="st2" cx="20.3" cy="329.1" r="1.8"/>
	<circle class="st2" cx="24.7" cy="329.1" r="1.8"/>
	<circle class="st2" cx="29.1" cy="329.1" r="1.8"/>
	<circle class="st2" cx="33.5" cy="329.1" r="1.8"/>
	<circle class="st2" cx="37.9" cy="329.1" r="1.8"/>
	<circle class="st2" cx="42.2" cy="329.1" r="1.8"/>
	<circle class="st2" cx="46.6" cy="329.1" r="1.8"/>
	<circle class="st2" cx="52.4" cy="329.1" r="1.8"/>
	<circle class="st2" cx="5.6" cy="333.3" r="1.8"/>
	<circle class="st2" cx="10" cy="333.3" r="1.8"/>
	<circle class="st2" cx="14.3" cy="333.3" r="1.8"/>
	<circle class="st2" cx="18.7" cy="333.3" r="1.8"/>
	<circle class="st2" cx="23.1" cy="333.3" r="1.8"/>
	<circle class="st2" cx="27.4" cy="333.3" r="1.8"/>
	<circle class="st2" cx="31.8" cy="333.3" r="1.8"/>
	<circle class="st2" cx="36.2" cy="333.3" r="1.8"/>
	<circle class="st2" cx="40.5" cy="333.3" r="1.8"/>
	<circle class="st2" cx="44.9" cy="333.3" r="1.8"/>
	<circle class="st2" cx="49.3" cy="333.3" r="1.8"/>
	<circle class="st2" cx="5.2" cy="337.7" r="1.8"/>
	<circle class="st2" cx="9.7" cy="337.7" r="1.8"/>
	<circle class="st2" cx="14.1" cy="337.7" r="1.8"/>
	<circle class="st2" cx="18.6" cy="337.7" r="1.8"/>
	<circle class="st2" cx="23" cy="337.7" r="1.8"/>
	<circle class="st2" cx="27.5" cy="337.7" r="1.8"/>
	<circle class="st2" cx="31.9" cy="337.7" r="1.8"/>
	<circle class="st2" cx="36.4" cy="337.7" r="1.8"/>
	<circle class="st2" cx="40.8" cy="337.7" r="1.8"/>
	<circle class="st2" cx="45.3" cy="337.7" r="1.8"/>
	<circle class="st2" cx="49.7" cy="337.7" r="1.8"/>
	<circle class="st2" cx="4.2" cy="341.8" r="1.8"/>
	<circle class="st2" cx="8.8" cy="341.8" r="1.8"/>
	<circle class="st2" cx="13.4" cy="341.8" r="1.8"/>
	<circle class="st2" cx="18.1" cy="341.8" r="1.8"/>
	<circle class="st2" cx="22.7" cy="341.8" r="1.8"/>
	<circle class="st2" cx="27.3" cy="341.8" r="1.8"/>
	<circle class="st2" cx="31.9" cy="341.8" r="1.8"/>
	<circle class="st2" cx="36.5" cy="341.8" r="1.8"/>
	<circle class="st2" cx="41.1" cy="341.8" r="1.8"/>
	<circle class="st2" cx="45.8" cy="341.8" r="1.8"/>
	<circle class="st2" cx="50.4" cy="341.8" r="1.8"/>
	<circle class="st2" cx="53.6" cy="333.4" r="1.8"/>
	<circle class="st2" cx="54.2" cy="337.7" r="1.8"/>
	<circle class="st2" cx="55" cy="342" r="1.8"/>
</g>
<g>
	<polygon class="st1" points="121.3,346.8 63.2,346.8 66.9,318 116.7,318 	"/>
	<circle class="st2" cx="69.4" cy="320.5" r="1.8"/>
	<circle class="st2" cx="73.7" cy="320.5" r="1.8"/>
	<circle class="st2" cx="78.1" cy="320.5" r="1.8"/>
	<circle class="st2" cx="82.5" cy="320.5" r="1.8"/>
	<circle class="st2" cx="86.9" cy="320.5" r="1.8"/>
	<circle class="st2" cx="91.3" cy="320.5" r="1.8"/>
	<circle class="st2" cx="95.7" cy="320.5" r="1.8"/>
	<circle class="st2" cx="100" cy="320.5" r="1.8"/>
	<circle class="st2" cx="104.4" cy="320.5" r="1.8"/>
	<circle class="st2" cx="108.8" cy="320.5" r="1.8"/>
	<circle class="st2" cx="112.7" cy="320.5" r="1.8"/>
	<circle class="st2" cx="69" cy="325" r="1.8"/>
	<circle class="st2" cx="73.4" cy="325" r="1.8"/>
	<circle class="st2" cx="77.7" cy="325" r="1.8"/>
	<circle class="st2" cx="82.1" cy="325" r="1.8"/>
	<circle class="st2" cx="86.5" cy="325" r="1.8"/>
	<circle class="st2" cx="90.9" cy="325" r="1.8"/>
	<circle class="st2" cx="95.3" cy="325" r="1.8"/>
	<circle class="st2" cx="99.7" cy="325" r="1.8"/>
	<circle class="st2" cx="104" cy="325" r="1.8"/>
	<circle class="st2" cx="108.4" cy="325" r="1.8"/>
	<circle class="st2" cx="113.7" cy="325" r="1.8"/>
	<circle class="st2" cx="68.4" cy="329.1" r="1.8"/>
	<circle class="st2" cx="73.7" cy="329.1" r="1.8"/>
	<circle class="st2" cx="78.1" cy="329.1" r="1.8"/>
	<circle class="st2" cx="82.5" cy="329.1" r="1.8"/>
	<circle class="st2" cx="86.9" cy="329.1" r="1.8"/>
	<circle class="st2" cx="91.3" cy="329.1" r="1.8"/>
	<circle class="st2" cx="95.7" cy="329.1" r="1.8"/>
	<circle class="st2" cx="100" cy="329.1" r="1.8"/>
	<circle class="st2" cx="104.4" cy="329.1" r="1.8"/>
	<circle class="st2" cx="108.8" cy="329.1" r="1.8"/>
	<circle class="st2" cx="114.6" cy="329.1" r="1.8"/>
	<circle class="st2" cx="67.8" cy="333.3" r="1.8"/>
	<circle class="st2" cx="72.2" cy="333.3" r="1.8"/>
	<circle class="st2" cx="76.5" cy="333.3" r="1.8"/>
	<circle class="st2" cx="80.9" cy="333.3" r="1.8"/>
	<circle class="st2" cx="85.3" cy="333.3" r="1.8"/>
	<circle class="st2" cx="89.6" cy="333.3" r="1.8"/>
	<circle class="st2" cx="94" cy="333.3" r="1.8"/>
	<circle class="st2" cx="98.3" cy="333.3" r="1.8"/>
	<circle class="st2" cx="102.7" cy="333.3" r="1.8"/>
	<circle class="st2" cx="107.1" cy="333.3" r="1.8"/>
	<circle class="st2" cx="111.4" cy="333.3" r="1.8"/>
	<circle class="st2" cx="67.4" cy="337.7" r="1.8"/>
	<circle class="st2" cx="71.9" cy="337.7" r="1.8"/>
	<circle class="st2" cx="76.3" cy="337.7" r="1.8"/>
	<circle class="st2" cx="80.8" cy="337.7" r="1.8"/>
	<circle class="st2" cx="85.2" cy="337.7" r="1.8"/>
	<circle class="st2" cx="89.7" cy="337.7" r="1.8"/>
	<circle class="st2" cx="94.1" cy="337.7" r="1.8"/>
	<circle class="st2" cx="98.6" cy="337.7" r="1.8"/>
	<circle class="st2" cx="103" cy="337.7" r="1.8"/>
	<circle class="st2" cx="107.4" cy="337.7" r="1.8"/>
	<circle class="st2" cx="111.9" cy="337.7" r="1.8"/>
	<circle class="st2" cx="66.4" cy="341.8" r="1.8"/>
	<circle class="st2" cx="71" cy="341.8" r="1.8"/>
	<circle class="st2" cx="75.6" cy="341.8" r="1.8"/>
	<circle class="st2" cx="80.3" cy="341.8" r="1.8"/>
	<circle class="st2" cx="84.9" cy="341.8" r="1.8"/>
	<circle class="st2" cx="89.5" cy="341.8" r="1.8"/>
	<circle class="st2" cx="94.1" cy="341.8" r="1.8"/>
	<circle class="st2" cx="98.7" cy="341.8" r="1.8"/>
	<circle class="st2" cx="103.3" cy="341.8" r="1.8"/>
	<circle class="st2" cx="108" cy="341.8" r="1.8"/>
	<circle class="st2" cx="112.6" cy="341.8" r="1.8"/>
	<circle class="st2" cx="115.8" cy="333.4" r="1.8"/>
	<circle class="st2" cx="116.3" cy="337.7" r="1.8"/>
	<circle class="st2" cx="117.2" cy="342" r="1.8"/>
</g>
<g>
	<polygon class="st1" points="183.5,346.1 125.4,346.1 129.1,317.2 178.8,317.2 	"/>
	<circle class="st2" cx="131.6" cy="319.7" r="1.8"/>
	<circle class="st2" cx="135.9" cy="319.7" r="1.8"/>
	<circle class="st2" cx="140.3" cy="319.7" r="1.8"/>
	<circle class="st2" cx="144.7" cy="319.7" r="1.8"/>
	<circle class="st2" cx="149.1" cy="319.7" r="1.8"/>
	<circle class="st2" cx="153.5" cy="319.7" r="1.8"/>
	<circle class="st2" cx="157.9" cy="319.7" r="1.8"/>
	<circle class="st2" cx="162.2" cy="319.7" r="1.8"/>
	<circle class="st2" cx="166.6" cy="319.7" r="1.8"/>
	<circle class="st2" cx="171" cy="319.7" r="1.8"/>
	<circle class="st2" cx="174.9" cy="319.7" r="1.8"/>
	<circle class="st2" cx="131.2" cy="324.2" r="1.8"/>
	<circle class="st2" cx="135.6" cy="324.2" r="1.8"/>
	<circle class="st2" cx="139.9" cy="324.2" r="1.8"/>
	<circle class="st2" cx="144.3" cy="324.2" r="1.8"/>
	<circle class="st2" cx="148.7" cy="324.2" r="1.8"/>
	<circle class="st2" cx="153.1" cy="324.2" r="1.8"/>
	<circle class="st2" cx="157.5" cy="324.2" r="1.8"/>
	<circle class="st2" cx="161.9" cy="324.2" r="1.8"/>
	<circle class="st2" cx="166.2" cy="324.2" r="1.8"/>
	<circle class="st2" cx="170.6" cy="324.2" r="1.8"/>
	<circle class="st2" cx="175.9" cy="324.2" r="1.8"/>
	<circle class="st2" cx="130.6" cy="328.3" r="1.8"/>
	<circle class="st2" cx="135.9" cy="328.3" r="1.8"/>
	<circle class="st2" cx="140.3" cy="328.3" r="1.8"/>
	<circle class="st2" cx="144.7" cy="328.3" r="1.8"/>
	<circle class="st2" cx="149.1" cy="328.3" r="1.8"/>
	<circle class="st2" cx="153.5" cy="328.3" r="1.8"/>
	<circle class="st2" cx="157.9" cy="328.3" r="1.8"/>
	<circle class="st2" cx="162.2" cy="328.3" r="1.8"/>
	<circle class="st2" cx="166.6" cy="328.3" r="1.8"/>
	<circle class="st2" cx="171" cy="328.3" r="1.8"/>
	<circle class="st2" cx="176.8" cy="328.3" r="1.8"/>
	<circle class="st2" cx="130" cy="332.5" r="1.8"/>
	<circle class="st2" cx="134.3" cy="332.5" r="1.8"/>
	<circle class="st2" cx="138.7" cy="332.5" r="1.8"/>
	<circle class="st2" cx="143.1" cy="332.5" r="1.8"/>
	<circle class="st2" cx="147.4" cy="332.5" r="1.8"/>
	<circle class="st2" cx="151.8" cy="332.5" r="1.8"/>
	<circle class="st2" cx="156.2" cy="332.5" r="1.8"/>
	<circle class="st2" cx="160.5" cy="332.5" r="1.8"/>
	<circle class="st2" cx="164.9" cy="332.5" r="1.8"/>
	<circle class="st2" cx="169.3" cy="332.5" r="1.8"/>
	<circle class="st2" cx="173.6" cy="332.5" r="1.8"/>
	<circle class="st2" cx="129.6" cy="336.9" r="1.8"/>
	<circle class="st2" cx="134" cy="336.9" r="1.8"/>
	<circle class="st2" cx="138.5" cy="336.9" r="1.8"/>
	<circle class="st2" cx="142.9" cy="336.9" r="1.8"/>
	<circle class="st2" cx="147.4" cy="336.9" r="1.8"/>
	<circle class="st2" cx="151.8" cy="336.9" r="1.8"/>
	<circle class="st2" cx="156.3" cy="336.9" r="1.8"/>
	<circle class="st2" cx="160.7" cy="336.9" r="1.8"/>
	<circle class="st2" cx="165.2" cy="336.9" r="1.8"/>
	<circle class="st2" cx="169.6" cy="336.9" r="1.8"/>
	<circle class="st2" cx="174.1" cy="336.9" r="1.8"/>
	<circle class="st2" cx="128.6" cy="341.1" r="1.8"/>
	<circle class="st2" cx="133.2" cy="341.1" r="1.8"/>
	<circle class="st2" cx="137.8" cy="341.1" r="1.8"/>
	<circle class="st2" cx="142.5" cy="341.1" r="1.8"/>
	<circle class="st2" cx="147.1" cy="341.1" r="1.8"/>
	<circle class="st2" cx="151.7" cy="341.1" r="1.8"/>
	<circle class="st2" cx="156.3" cy="341.1" r="1.8"/>
	<circle class="st2" cx="160.9" cy="341.1" r="1.8"/>
	<circle class="st2" cx="165.5" cy="341.1" r="1.8"/>
	<circle class="st2" cx="170.2" cy="341.1" r="1.8"/>
	<circle class="st2" cx="174.8" cy="341.1" r="1.8"/>
	<circle class="st2" cx="178" cy="332.6" r="1.8"/>
	<circle class="st2" cx="178.5" cy="336.9" r="1.8"/>
	<circle class="st2" cx="179.4" cy="341.2" r="1.8"/>
</g>
<g>
	<polygon class="st1" points="245.6,346.8 187.6,346.8 191.3,318 241,318 	"/>
	<circle class="st2" cx="193.7" cy="320.5" r="1.8"/>
	<circle class="st2" cx="198.1" cy="320.5" r="1.8"/>
	<circle class="st2" cx="202.5" cy="320.5" r="1.8"/>
	<circle class="st2" cx="206.9" cy="320.5" r="1.8"/>
	<circle class="st2" cx="211.3" cy="320.5" r="1.8"/>
	<circle class="st2" cx="215.7" cy="320.5" r="1.8"/>
	<circle class="st2" cx="220.1" cy="320.5" r="1.8"/>
	<circle class="st2" cx="224.4" cy="320.5" r="1.8"/>
	<circle class="st2" cx="228.8" cy="320.5" r="1.8"/>
	<circle class="st2" cx="233.2" cy="320.5" r="1.8"/>
	<circle class="st2" cx="237.1" cy="320.5" r="1.8"/>
	<circle class="st2" cx="193.4" cy="325" r="1.8"/>
	<circle class="st2" cx="197.7" cy="325" r="1.8"/>
	<circle class="st2" cx="202.1" cy="325" r="1.8"/>
	<circle class="st2" cx="206.5" cy="325" r="1.8"/>
	<circle class="st2" cx="210.9" cy="325" r="1.8"/>
	<circle class="st2" cx="215.3" cy="325" r="1.8"/>
	<circle class="st2" cx="219.7" cy="325" r="1.8"/>
	<circle class="st2" cx="224" cy="325" r="1.8"/>
	<circle class="st2" cx="228.4" cy="325" r="1.8"/>
	<circle class="st2" cx="232.8" cy="325" r="1.8"/>
	<circle class="st2" cx="238.1" cy="325" r="1.8"/>
	<circle class="st2" cx="192.8" cy="329.1" r="1.8"/>
	<circle class="st2" cx="198.1" cy="329.1" r="1.8"/>
	<circle class="st2" cx="202.5" cy="329.1" r="1.8"/>
	<circle class="st2" cx="206.9" cy="329.1" r="1.8"/>
	<circle class="st2" cx="211.3" cy="329.1" r="1.8"/>
	<circle class="st2" cx="215.7" cy="329.1" r="1.8"/>
	<circle class="st2" cx="220.1" cy="329.1" r="1.8"/>
	<circle class="st2" cx="224.4" cy="329.1" r="1.8"/>
	<circle class="st2" cx="228.8" cy="329.1" r="1.8"/>
	<circle class="st2" cx="233.2" cy="329.1" r="1.8"/>
	<circle class="st2" cx="239" cy="329.1" r="1.8"/>
	<circle class="st2" cx="192.2" cy="333.3" r="1.8"/>
	<circle class="st2" cx="196.5" cy="333.3" r="1.8"/>
	<circle class="st2" cx="200.9" cy="333.3" r="1.8"/>
	<circle class="st2" cx="205.3" cy="333.3" r="1.8"/>
	<circle class="st2" cx="209.6" cy="333.3" r="1.8"/>
	<circle class="st2" cx="214" cy="333.3" r="1.8"/>
	<circle class="st2" cx="218.4" cy="333.3" r="1.8"/>
	<circle class="st2" cx="222.7" cy="333.3" r="1.8"/>
	<circle class="st2" cx="227.1" cy="333.3" r="1.8"/>
	<circle class="st2" cx="231.5" cy="333.3" r="1.8"/>
	<circle class="st2" cx="235.8" cy="333.3" r="1.8"/>
	<circle class="st2" cx="191.8" cy="337.7" r="1.8"/>
	<circle class="st2" cx="196.2" cy="337.7" r="1.8"/>
	<circle class="st2" cx="200.7" cy="337.7" r="1.8"/>
	<circle class="st2" cx="205.1" cy="337.7" r="1.8"/>
	<circle class="st2" cx="209.6" cy="337.7" r="1.8"/>
	<circle class="st2" cx="214" cy="337.7" r="1.8"/>
	<circle class="st2" cx="218.5" cy="337.7" r="1.8"/>
	<circle class="st2" cx="222.9" cy="337.7" r="1.8"/>
	<circle class="st2" cx="227.4" cy="337.7" r="1.8"/>
	<circle class="st2" cx="231.8" cy="337.7" r="1.8"/>
	<circle class="st2" cx="236.3" cy="337.7" r="1.8"/>
	<circle class="st2" cx="190.8" cy="341.8" r="1.8"/>
	<circle class="st2" cx="195.4" cy="341.8" r="1.8"/>
	<circle class="st2" cx="200" cy="341.8" r="1.8"/>
	<circle class="st2" cx="204.6" cy="341.8" r="1.8"/>
	<circle class="st2" cx="209.3" cy="341.8" r="1.8"/>
	<circle class="st2" cx="213.9" cy="341.8" r="1.8"/>
	<circle class="st2" cx="218.5" cy="341.8" r="1.8"/>
	<circle class="st2" cx="223.1" cy="341.8" r="1.8"/>
	<circle class="st2" cx="227.7" cy="341.8" r="1.8"/>
	<circle class="st2" cx="232.3" cy="341.8" r="1.8"/>
	<circle class="st2" cx="237" cy="341.8" r="1.8"/>
	<circle class="st2" cx="240.2" cy="333.4" r="1.8"/>
	<circle class="st2" cx="240.7" cy="337.7" r="1.8"/>
	<circle class="st2" cx="241.6" cy="342" r="1.8"/>
</g>
<path class="st1" d="M241.1,437c0,3-2.4,5.4-5.4,5.4H99.6c-3,0-5.4-2.4-5.4-5.4v-7.6c0-3,2.4-5.4,5.4-5.4h136.1c3,0,5.4,2.4,5.4,5.4
	V437z"/>
<path class="st3" d="M248.2,370.8c-2.3,0-4.1-2-4.1-4.6v-2.1c0-2.5,1.9-4.6,4.1-4.6h37.3c2.3,0,4.1,2,4.1,4.6v2.1
	c0,2.5-1.9,4.6-4.1,4.6H248.2z"/>
<path class="st3" d="M257.4,377c0,3-2.4,5.4-5.4,5.4h-2.5c-3,0-5.4-2.4-5.4-5.4v-49c0-3,2.4-5.4,5.4-5.4h2.5c3,0,5.4,2.4,5.4,5.4
	V377z"/>
<path class="st4" d="M307.5,420.6c0,2.9-2.4,5.3-5.4,5.3h-5.8c-3,0-5.4-2.4-5.4-5.3v-86.1c0-2.9,2.4-5.3,5.4-5.3h5.8
	c3,0,5.4,2.4,5.4,5.3V420.6z"/>
<rect x="-1.7" y="364.4" class="st5" width="250" height="44.7"/>
<polygon class="st4" points="248.3,365 -1.7,365 -7.1,345.4 253.8,345.4 "/>
<rect x="9.7" y="409.1" class="st4" width="293.6" height="22.3"/>
<rect x="4.1" y="368.2" class="st6" width="67.2" height="37.4"/>
<rect x="74.8" y="368.2" class="st6" width="97.9" height="37.4"/>
<rect x="177" y="368.1" class="st6" width="64.2" height="37.4"/>
<circle class="st7" cx="287.5" cy="451.4" r="37.4"/>
<g>
	<circle class="st8" cx="287.5" cy="451.4" r="35.2"/>
	<circle class="st1" cx="287.5" cy="451.4" r="30.1"/>
	<circle class="st8" cx="287.5" cy="451.4" r="10.1"/>
	<circle class="st9" cx="287.5" cy="451.4" r="6.7"/>
	<polyline class="st8" points="290.6,441.8 288.8,421.3 285.9,421.3 284.4,441.8 	"/>
	<polyline class="st8" points="284.4,460.9 286.2,481.5 289.1,481.5 290.6,460.9 	"/>
	<polyline class="st8" points="295.6,453.6 317.9,451.8 317.9,448.9 295.6,447.4 	"/>
	<polyline class="st8" points="279.4,447.4 257.4,449.2 257.4,452.1 279.4,453.6 	"/>
	<polyline class="st8" points="296.3,446.8 309.6,430.9 307.5,428.9 291.9,442.4 	"/>
	<polyline class="st8" points="284.4,442.2 267.9,428.5 265.9,430.5 279.4,446.4 	"/>
	<polyline class="st8" points="278.5,455.8 265.3,471.6 267.4,473.7 283,460.2 	"/>
	<polyline class="st8" points="290.5,460.3 307,474.1 309,472 295.5,456.1 	"/>
</g>
<circle class="st7" cx="50.4" cy="451.4" r="37.4"/>
<g>
	<circle class="st8" cx="50.4" cy="451.4" r="35.2"/>
	<circle class="st1" cx="50.4" cy="451.4" r="30.1"/>
	<circle class="st8" cx="50.4" cy="451.4" r="10.1"/>
	<circle class="st9" cx="50.4" cy="451.4" r="6.7"/>
	<polyline class="st8" points="53.6,441.8 51.7,421.3 48.8,421.3 47.3,441.8 	"/>
	<polyline class="st8" points="47.3,460.9 49.2,481.5 52.1,481.5 53.6,460.9 	"/>
	<polyline class="st8" points="58.5,453.6 80.8,451.8 80.8,448.9 58.5,447.4 	"/>
	<polyline class="st8" points="42.3,447.4 20.3,449.2 20.3,452.1 42.3,453.6 	"/>
	<polyline class="st8" points="59.3,446.8 72.5,430.9 70.4,428.9 54.8,442.4 	"/>
	<polyline class="st8" points="47.3,442.2 30.8,428.5 28.8,430.5 42.3,446.4 	"/>
	<polyline class="st8" points="41.5,455.8 28.2,471.6 30.3,473.7 45.9,460.2 	"/>
	<polyline class="st8" points="53.4,460.3 69.9,474.1 71.9,472 58.4,456.1 	"/>
</g>
<rect x="-8.6" y="404.3" class="st6" width="71.8" height="3.4"/>
<path class="st6" d="M62.8,407.8c0,0,27.2,5.8,27.9,39.6h3.4c0,0,0.9-36.1-30.9-43.1"/>
<path class="st4" d="M291.1,404.1c0,2.7-2.4,5-5.4,5h-31.9c-3,0-5.4-2.2-5.4-5v-30.2c0-2.7,2.4-5,5.4-5h31.9c3,0,5.4,2.2,5.4,5
	V404.1z"/>
<rect x="243.4" y="369" class="st4" width="22.5" height="40.1"/>
<rect x="272" y="405.5" class="st6" width="51.2" height="3.4"/>
<path class="st6" d="M272.5,408.9c0,0-27.2,5.8-27.9,39.6h-3.4c0,0-0.9-36.1,30.9-43.1"/>
<path class="st6" d="M287.8,398.7c0,2-2.2,3.6-4.8,3.6h-28.2c-2.7,0-4.8-1.6-4.8-3.6v-22.1c0-2,2.2-3.6,4.8-3.6H283
	c2.7,0,4.8,1.6,4.8,3.6V398.7z"/>
<g id="KRyJ1s.tif_23_">
	<g>
		<path class="st10" d="M97.7,371.3c0.3,0.1,0.6,0.2,0.8,0.3c0.6,0.4,1,0.9,1,1.6c0.1,0.7-0.1,1.3-0.4,1.9c-0.2,0.4-0.5,0.8-0.8,1.2
			c-0.3,0.4-0.7,0.6-1.2,0.7c-0.5,0.1-0.8-0.2-0.9-0.7c0-0.4,0-0.7,0.2-1c0.3-0.6,0.7-1.1,1.3-1.3c0.1,0,0.3-0.1,0.4-0.1
			c0.2,0,0.2-0.1,0.3-0.2c0.2-0.7-0.2-1.2-0.9-1.2c-0.4,0-0.7,0.1-1.1,0.2c-1.4,0.5-2.6,1.3-3.7,2.3c-3.5,3.2-6.3,6.9-8.2,11.2
			c-0.7,1.5-1.2,3.1-1.5,4.8c-0.2,1.1-0.2,2.3,0.1,3.4c0.3,1.4,1.2,2.4,2.6,3c1.1,0.5,2.2,0.6,3.4,0.6c1.9-0.2,3.8-0.7,5.6-1.1
			c2.1-0.5,4.3-1.1,6.4-1.5c2-0.5,4.1-0.7,6.1-0.6c2.4,0.1,4.6,0.8,6.5,2.2c1.1,0.8,2.2,1.6,3.1,2.6c0.2,0.2,0.3,0.4,0.4,0.6
			c-0.1,0-0.1-0.1-0.2-0.1c-1.9-1.2-4-1.9-6.4-1.9c-1,0-1.9,0.2-2.7,0.8c-0.4,0.3-0.7,0.7-1.1,1.1l0,0c-0.9-1.5-2.2-2.3-3.9-2.8
			c-1.2-0.3-2.4-0.3-3.6-0.2c-2.1,0.1-4.1,0.7-6.1,1.2c-1.9,0.5-3.8,0.9-5.7,1.3c-1.5,0.3-3,0.3-4.5-0.3c-2.2-0.8-3.6-2.4-4-4.7
			c-0.1-0.4-0.1-0.9-0.2-1.3c0-0.1,0-0.1,0-0.2c0-0.4,0-0.8,0-1.2c0-0.3,0.1-0.6,0.1-0.9c0.2-1.8,0.7-3.5,1.4-5.1
			c1.4-3.3,3.4-6.1,5.9-8.6c1.6-1.6,3.4-3.1,5.4-4.2c1.1-0.6,2.3-1.2,3.5-1.4c0.4-0.1,0.8-0.1,1.2-0.2
			C97.2,371.3,97.4,371.3,97.7,371.3z"/>
		<path class="st10" d="M99.1,383.8c0.2,0,0.3,0,0.4-0.1c0.4-0.2,0.8-0.4,1.2-0.7c0.8-0.5,1.5-1.2,2.2-1.9s1.5-1.4,2.3-2
			c0.7-0.5,1.5-0.8,2.5-0.8c1.2,0.1,2,1,1.8,2.2c-0.1,0.9-0.5,1.7-1.1,2.4c-0.2,0.2-0.5,0.5-0.8,0.6c-0.5,0.2-1-0.1-1-0.7
			c0-1,0.9-2,1.8-2.1c0.1,0,0.2,0,0.2-0.1c0.2-0.4,0.1-1-0.6-1c-0.5,0-0.9,0.2-1.3,0.5c-0.7,0.6-1.4,1.3-2,2
			c-1.4,1.7-2.4,3.6-3.2,5.7c-0.2,0.5-0.3,1-0.2,1.6c0.1,0.8,0.8,1.3,1.6,1c0.7-0.2,1.3-0.6,1.9-1.1c1.2-1.1,2.2-2.3,3.2-3.6
			c0.9-1.2,1.8-2.4,2.7-3.6c0.9-1.1,1.9-2.2,3.1-3c0.6-0.4,1.1-0.7,1.8-0.8c0.8-0.1,1.4,0.1,1.8,0.7l0.1,0.1l0.1-0.1
			c0.1-0.4,0.4-0.5,0.8-0.4c0.7,0,1.3,0,2,0c0.1,0,0.1,0,0.3,0c-0.1,0.1-0.1,0.2-0.2,0.3c-1.9,3.3-3.8,6.6-5.7,9.8
			c-0.1,0.2-0.2,0.4-0.2,0.6c0,0.3,0.2,0.4,0.5,0.3c0.2-0.1,0.4-0.2,0.6-0.3c0.7-0.5,1.3-1.1,1.8-1.8c0.5-0.6,1-1.2,1.5-1.9
			c0.1-0.2,0.2-0.2,0.4-0.2c0.2,0,0.4,0,0.6,0c0,0.1,0,0.1-0.1,0.1c-1.2,1.7-2.4,3.4-3.9,4.8c-0.8,0.7-1.5,1.4-2.5,1.9
			c-0.4,0.2-0.9,0.3-1.4,0.2c-0.5-0.1-0.9-0.6-0.9-1.1c0-0.3,0-0.7,0-1.1c0,0.1-0.1,0.1-0.1,0.2c-0.5,0.6-1.1,1.1-1.7,1.5
			c-0.4,0.3-0.9,0.5-1.4,0.5c-1,0.1-1.8-0.5-1.8-1.6c0-0.6,0.1-1.2,0.3-1.8c0-0.1,0-0.2,0-0.3c-0.1,0.1-0.1,0.1-0.2,0.2
			c-0.9,0.8-1.7,1.6-2.6,2.3c-0.7,0.6-1.6,1-2.5,1.1c-0.5,0.1-1,0.1-1.4-0.1c-1-0.3-1.4-1.1-1.6-2.1c-0.3-1.3,0.1-2.5,0.6-3.7
			c0.3-0.7,0.7-1.4,1-2c0-0.1,0.1-0.1,0.1-0.2c-0.4,0.1-0.7,0.2-1,0.2s-0.5,0.2-0.6,0.4c-0.7,1.1-1.3,2.2-2.1,3.2
			c-1,1.4-2.2,2.6-3.6,3.5c-0.6,0.4-1.2,0.7-1.9,0.8c-0.8,0.1-1.5-0.3-1.8-1.1c-0.3-0.6-0.3-1.3-0.2-1.9c0.2-1.9,0.9-3.6,2-5.2
			c1.2-1.9,2.7-3.6,4.5-5c0.8-0.5,1.6-1,2.5-1.2c1.4-0.3,2.3,0.5,2.4,1.9c0,0.8-0.2,1.6-0.5,2.3C99.4,383,99.3,383.4,99.1,383.8z
			 M109.8,389.4c0,0.2,0.1,0.4,0.3,0.5c0.2,0.1,0.4,0.1,0.6,0c0.5-0.3,0.9-0.6,1.2-1c0.5-0.6,0.9-1.2,1.3-1.9
			c1.3-2.2,2.6-4.4,3.8-6.6c0.1-0.2,0.1-0.5-0.2-0.6c-0.2-0.1-0.5,0-0.7,0.1c-0.4,0.2-0.8,0.5-1.1,0.9c-0.9,1.1-1.8,2.3-2.7,3.4
			c-0.9,1.3-1.7,2.7-2.3,4.2C110,388.6,109.9,389,109.8,389.4z M95,382.7c-0.1,0.1-0.1,0.1-0.1,0.1c-0.4,0.7-0.9,1.3-1.3,2
			c-0.6,1-1.1,2-1.4,3.1c-0.1,0.3-0.1,0.7-0.1,1c0.1,0.6,0.5,0.9,1.1,0.8c0.2,0,0.3-0.1,0.4-0.2c0.6-0.3,1-0.8,1.4-1.3
			c0.9-1,1.6-2.2,2.3-3.4c0-0.1,0.1-0.2,0.1-0.3C96.5,384.4,95.6,383.8,95,382.7z M99,380.9c0-0.1,0-0.2,0-0.3
			c-0.1-0.8-0.5-1.1-1.3-0.9c-0.1,0-0.3,0.1-0.4,0.2c-0.6,0.4-1,0.9-1.2,1.5c-0.2,0.5-0.2,1.1,0.2,1.5c0.4,0.5,1,0.8,1.6,0.9
			c0.1,0,0.2,0,0.3-0.2c0.2-0.4,0.3-0.7,0.5-1.1C98.9,382,99,381.5,99,380.9z"/>
	</g>
</g>
<g id="KRyJ1s.tif_22_">
	<g>
		<path class="st10" d="M164.3,375.9c0.2-0.4,0.4-0.8,0.6-1.2c0.2-0.4,0.4-0.8,0.4-1.3c0-0.3-0.1-0.5-0.5-0.3
			c-0.3,0.1-0.6,0.3-0.8,0.5c-1.1,0.9-2.2,1.9-3.1,3c-2,2.2-3.7,4.7-5.2,7.3c-1,1.6-1.9,3.3-2.8,4.9c-0.1,0.2-0.2,0.3-0.2,0.5
			c0.1-0.1,0.2-0.1,0.3-0.2c0.6-0.5,1.2-0.9,1.8-1.4c2.5-2.3,4.9-4.8,6.9-7.5c0.2-0.3,0.4-0.5,0.7-0.4c0.2,0,0.3,0,0.5-0.1
			c-0.1,0.2-0.2,0.3-0.3,0.5c-1.3,1.9-2.9,3.6-4.5,5.3c-1.9,2-4,3.9-6.3,5.5c-0.1,0-0.1,0.1-0.2,0.2c-0.7,1.5-1.4,3.1-1.7,4.8
			c-0.1,0.3-0.1,0.7,0,1c0.1,0.5,0.5,0.7,0.9,0.4c0.4-0.3,0.8-0.7,1.2-1.1c0.6-0.8,1.2-1.7,1.8-2.6c1-1.5,1.9-3,3.1-4.3
			c1-1.2,2.2-2.4,3.6-3.2c0.6-0.4,1.3-0.5,2-0.4c0.5,0.1,0.7,0.4,1,0.7c0.1,0.1,0.1,0.2,0.2,0.3c0.1-0.2,0.2-0.4,0.3-0.6
			c0-0.1,0.1-0.1,0.2-0.1c0.9,0,1.7,0,2.6,0c0,0,0,0,0.1,0c0,0.1-0.1,0.1-0.1,0.2c-1.3,2.3-2.6,4.7-4,7c-0.5,0.9-1,1.8-1.6,2.7
			c-0.1,0.2-0.2,0.5-0.3,0.8c-0.1,0.2-0.1,0.4,0.1,0.5s0.3,0.1,0.5,0c0.8-0.5,1.4-1.1,1.9-1.8c0.6-0.8,1.3-1.7,1.9-2.6
			c0.1-0.1,0.2-0.2,0.3-0.2c0.2,0,0.5,0,0.7,0c-0.1,0.2-0.2,0.3-0.3,0.4c-1.1,1.7-2.3,3.3-3.7,4.8c-0.8,0.8-1.7,1.5-2.8,2
			c-0.3,0.1-0.6,0.2-0.9,0.2c-0.6,0-1-0.3-1.1-0.8c-0.1-0.4-0.1-0.8-0.1-1.2c0-0.1,0-0.2,0-0.2s0,0-0.1,0c-0.2,0.2-0.3,0.3-0.5,0.5
			c-0.6,0.6-1.3,1.2-2.1,1.6c-0.4,0.2-0.8,0.3-1.2,0.2c-0.8-0.1-1.2-0.7-1.3-1.5c0-0.3,0-0.7,0-1c0-0.1,0-0.2,0-0.3
			c-0.1,0.1-0.2,0.2-0.2,0.2c-0.6,0.7-1.3,1.5-2.1,2c-0.3,0.2-0.7,0.4-1.1,0.6c-0.8,0.3-1.6,0-2-0.8c-0.3-0.5-0.3-1-0.3-1.5
			c0-1.1,0.4-2.2,0.7-3.3c0.2-0.7,0.4-1.3,0.7-2c-0.1,0-0.2,0-0.3,0.1c-0.3,0-0.7,0.1-1,0.1c-0.2,0-0.3,0.1-0.3,0.2
			c-0.7,1.1-1.3,2.2-2.1,3.2c-1,1.4-2.2,2.6-3.7,3.5c-0.5,0.3-1,0.5-1.6,0.6c-1.1,0.1-1.7-0.6-1.8-1.4c-0.2-0.8-0.1-1.6,0.1-2.3
			c0.4-1.7,1.1-3.2,2-4.6c1-1.5,2.1-3,3.5-4.2c0.8-0.7,1.7-1.3,2.8-1.7c0.4-0.1,0.8-0.2,1.2-0.1c0.8,0.1,1.2,0.7,1.3,1.3
			c0.2,0.9,0.1,1.7-0.2,2.5c-0.2,0.7-0.5,1.3-0.8,2c0,0.1-0.1,0.1-0.1,0.2c0.6,0,1-0.1,1.5-0.3c0.1,0,0.1-0.1,0.1-0.2
			c1.4-2.9,3-5.8,4.8-8.5c2.3-3.3,4.8-6.3,7.9-8.8c0.7-0.6,1.5-1.1,2.4-1.5c0.4-0.2,0.9-0.3,1.4-0.3c0.6,0,0.9,0.3,1,0.9
			c0.1,0.7-0.1,1.4-0.5,2.1c-0.3,0.7-0.4,0.8-1.2,0.9C164.4,375.9,164.3,375.9,164.3,375.9z M155.8,396.8c0,0.3,0.3,0.5,0.7,0.3
			c0.2-0.1,0.4-0.2,0.6-0.3c0.6-0.4,0.9-1,1.3-1.5c1.1-1.5,2-3.1,2.9-4.7c0.5-0.9,1.1-1.9,1.6-2.8c0.1-0.2,0.2-0.4,0-0.6
			s-0.4-0.2-0.6-0.2c-0.3,0.1-0.5,0.2-0.7,0.4c-0.3,0.2-0.6,0.5-0.8,0.7c-1.9,1.9-3.4,4.2-4.5,6.6C156,395.4,155.9,396,155.8,396.8z
			 M143.2,390.1c-0.4,0.6-0.8,1.2-1.2,1.7c-0.7,1-1.2,2.1-1.6,3.3c-0.1,0.4-0.2,0.8-0.1,1.3s0.5,0.8,1,0.7c0.5-0.1,0.9-0.4,1.3-0.8
			c1.2-1.1,2.1-2.4,2.8-3.8c0-0.1,0.1-0.2,0.1-0.2C144.6,391.8,143.7,391.2,143.2,390.1z M147.2,388.1c0-0.1,0-0.3,0-0.4
			c-0.1-0.5-0.3-0.8-0.8-0.8c-0.2,0-0.4,0-0.6,0.1c-0.5,0.3-1,0.6-1.3,1.1c-0.8,1.3-0.1,2.8,1.4,3.3c0.1,0,0.2,0,0.2-0.1
			c0.1-0.2,0.3-0.5,0.4-0.7C146.8,389.8,147.2,389,147.2,388.1z"/>
		<path class="st10" d="M158.5,375.5c-0.7,0.7-1.3,1.5-2,2.2c0,0-0.2,0.1-0.2,0c-0.4-0.2-0.9-0.5-1.3-0.8c-1.3-0.8-2.6-1.7-3.9-2.4
			c-1-0.6-2.1-1-3.3-1.2c-0.4-0.1-0.8-0.1-1.1,0.1c-0.1,0-0.2,0.1-0.2,0.2c0.1,1.4-0.2,2.6-0.8,3.9c-0.7,1.7-1.7,3.2-3.1,4.5
			c-0.6,0.5-1.2,0.9-2,1.1c-1,0.3-1.8-0.2-2-1.3c-0.1-0.7,0.1-1.3,0.3-2c0.8-2.1,2.2-3.9,3.9-5.3c0.6-0.5,1.3-0.9,1.9-1.4l0.1-0.1
			c-0.4-0.2-0.8-0.2-1.2-0.1c-0.6,0.1-1.1,0.3-1.6,0.6c-1.9,1-3.6,2.4-5,4c-2.7,2.9-5.1,6-7,9.5c-1,1.9-1.8,4-2.2,6.1
			c-0.2,0.9-0.3,1.8-0.1,2.7c0.3,0.9,0.8,1.6,1.8,1.9c0.6,0.2,1.2,0,1.7-0.2c1-0.4,1.8-1.1,2.6-1.9c1.5-1.5,2.6-3.3,3.3-5.3
			c0.3-0.8,0.4-1.6,0.4-2.4c-0.1-0.8-0.5-1.1-1.2-0.8c-0.5,0.2-0.9,0.6-1.3,1.1c-0.7,1-1.2,2.1-1.5,3.3c0,0.1-0.1,0.2-0.2,0.2
			c-1.3,0.6-2.4,1.5-3.4,2.6l-0.1,0.1c0.3-2.4,1-4.6,2.6-6.5c0.9-1.1,2-1.9,3.5-2.2c0.4-0.1,0.7-0.2,1.1-0.1c0.6,0.2,1,0.6,1.2,1.2
			c0.3,0.8,0.2,1.6,0.1,2.4c-0.3,1.9-1.2,3.5-2.2,5.1c-1.3,2-2.9,3.6-5,4.8c-0.9,0.5-1.8,0.8-2.8,0.8c-1.6,0.1-2.8-0.7-3.6-2
			c-0.7-1.2-0.9-2.5-0.8-3.8c0.1-2.1,0.9-4,1.7-5.9c2.4-5.1,5.8-9.4,10.1-13c1.9-1.5,4-2.7,6.3-3.4c0.8-0.2,1.7-0.3,2.6-0.1
			c0.4,0.1,0.7,0.3,1,0.6c0.1,0.1,0.2,0.1,0.3,0.1c0.7-0.2,1.4-0.5,2.1-0.6c1.7-0.4,3.4-0.1,5,0.7
			C155,373.5,156.8,374.5,158.5,375.5L158.5,375.5z M145.7,373.7c-0.2,0.1-0.4,0.2-0.6,0.3c-2.2,1.4-3.8,3.3-5,5.6
			c-0.3,0.5-0.5,1.1-0.5,1.7c-0.1,0.8,0.5,1.2,1.2,0.9c0.3-0.1,0.6-0.3,0.8-0.5c2.4-1.9,3.8-4.3,4.2-7.3
			C145.7,374.2,145.7,374,145.7,373.7z"/>
		<path class="st10" d="M172.1,371.7c-0.4,0.8-0.9,1.6-1.4,2.3c-1.8,2.2-4,3.9-6.7,4.8c-1.4,0.4-2.8,0.6-4.2,0.3h-0.1
			c-0.1,0-0.1,0-0.2-0.1c0-0.1,0.1-0.1,0.1-0.2c0.6-0.7,1.2-1.4,1.8-2.1c0.1-0.1,0.2-0.1,0.3-0.1c1.7,0.1,3.2-0.1,4.8-0.8
			C168.5,374.9,170.4,373.5,172.1,371.7C172.1,371.8,172.1,371.8,172.1,371.7z"/>
	</g>
</g>
<polygon class="st5" points="58.8,345.4 64.6,365.7 69.3,365.7 63.3,345.4 "/>
<polygon class="st5" points="188.7,345.4 182.9,365.7 178.2,365.7 184.2,345.4 "/>
<path class="st10" d="M129.6,378.7c-0.5,0.4-1,0.7-1.5,1.1c-0.5,0.4-1.1,0.8-1.6,1.2c-0.1,0.1-0.3,0.1-0.4,0.1c-1.8,0-3.6,0-5.4,0
	h-0.1l0.1-0.1c1-0.7,2-1.4,2.9-2.2c0.1-0.1,0.3-0.1,0.4-0.1C125.9,378.7,127.7,378.7,129.6,378.7z"/>
</svg>
