<?xml version="1.0" encoding="utf-8"?>
<!-- Generator: Adobe Illustrator 18.1.1, SVG Export Plug-In . SVG Version: 6.00 Build 0)  -->
<svg version="1.1" id="Layer_1" xmlns="http://www.w3.org/2000/svg" xmlns:xlink="http://www.w3.org/1999/xlink" x="0px" y="0px"
	 viewBox="0 0 800 550" enable-background="new 0 0 800 550" xml:space="preserve">
<g>
	<rect x="228.1" y="315.1" fill="#262626" width="268.5" height="12.8"/>
	<rect x="228.1" y="303" fill="#414042" width="268.5" height="15.1"/>
	<rect x="534.8" y="318.1" fill="#58595B" width="37" height="28.9"/>
	<path fill="#C3181F" d="M571.8,318.1h-29.4c0,0-5.2-24.4-39.7-24.4v-76h57.5c0,0,14.6,17.3,18.3,79.7L571.8,318.1z"/>
	<polygon fill="#AA1A25" points="557.8,217.7 504.5,217.7 504.5,206.6 	"/>
	<path fill="#C3181F" d="M562.7,217.7h-7.4l-56-11.1v-19.5C499.3,187.1,526.4,192.3,562.7,217.7z"/>
	<rect x="547.4" y="318.1" fill="#6D6E71" width="24.4" height="28.9"/>
	<rect x="533.6" y="330.7" fill="#6D6E71" width="10.7" height="16.3"/>
	<polygon fill="#808285" points="571.8,318.1 572.8,315.1 580.9,317.4 576.4,345.1 571.8,346.9 	"/>
	<g>
		<circle fill="#231F20" cx="506.9" cy="335.5" r="26.6"/>
		<circle fill="#EFF8F5" cx="506.9" cy="336" r="20.1"/>
		<circle fill="#C9D3D0" cx="506.9" cy="336" r="15.2"/>
		<circle fill="#231F20" cx="506.9" cy="336" r="8"/>
		<circle fill="#231F20" cx="506.9" cy="324.1" r="1.4"/>
		<circle fill="#231F20" cx="506.9" cy="347.5" r="1.4"/>
		<circle fill="#231F20" cx="495.2" cy="335.5" r="1.4"/>
		<circle fill="#231F20" cx="518.6" cy="335.5" r="1.4"/>
		<circle fill="#231F20" cx="499.2" cy="327.7" r="1.4"/>
		<circle fill="#231F20" cx="515.8" cy="344.3" r="1.4"/>
		<circle fill="#231F20" cx="499.2" cy="343.8" r="1.4"/>
		<circle fill="#231F20" cx="515.8" cy="327.2" r="1.4"/>
	</g>
	<rect x="213.6" y="176.3" fill="#C3181F" width="284.2" height="127.7"/>
	<path fill="#0F0E0C" d="M557.8,234.4v39.7l-36.1-9.9c0,0-4.5,0.2-4.5-6.4v-20.7c0,0,0.3-3.2,4.9-3.9L557.8,234.4z"/>
	<rect x="506.9" y="290.9" fill="#AF1722" width="71.2" height="9.4"/>
	<path fill="#6D6E71" d="M499,293.8l3.2,12.5c0,0,21.6-3.5,32.9,21.1h9.1c0,0,0.2-19.9-17.1-29C509.8,289.2,499,293.8,499,293.8z"/>
	<path fill="#414042" d="M557.3,276c0,0.8,0.7,1.5,1.5,1.5l0,0c0.8,0,1.5-0.7,1.5-1.5v-42.3c0-0.8-0.7-1.5-1.5-1.5l0,0
		c-0.8,0-1.5,0.7-1.5,1.5V276z"/>
	<path fill="#58595B" d="M555.5,265.1c0,1.3,1.2,2.3,2.7,2.3l0,0c1.5,0,2.7-1,2.7-2.3v-20c0-1.3-1.2-2.3-2.7-2.3l0,0
		c-1.5,0-2.7,1-2.7,2.3V265.1z"/>
	<path fill="#AF1722" d="M518.9,272.6c0,0.9,0.7,1.5,1.5,1.5h6.3c0.9,0,1.5-0.7,1.5-1.5l0,0c0-0.9-0.7-1.5-1.5-1.5h-6.3
		C519.6,271.1,518.9,271.8,518.9,272.6L518.9,272.6z"/>
	<path fill="#717479" d="M571.8,311.8c0,3.5,2.8,6.3,6.3,6.3l0,0c3.5,0,6.3-2.8,6.3-6.3v-9.6c0-3.5-2.8-6.3-6.3-6.3l0,0
		c-3.5,0-6.3,2.8-6.3,6.3V311.8z"/>
	<rect x="226.4" y="310" fill="#9B151E" width="249.9" height="11.8"/>
	<rect x="219.1" y="183.4" fill="#AD1722" width="272.6" height="120.6"/>
	<polygon fill="#F7941E" points="576.8,342.4 574,342.4 574,324.1 579.8,324.1 	"/>
	<polygon fill="#D1D3D4" points="576.8,342.4 574,342.4 574,330.7 578.7,330.7 	"/>
	<rect x="547.4" y="323.1" fill="#808285" width="24.4" height="3.1"/>
	<rect x="547.4" y="333.2" fill="#808285" width="24.4" height="3.1"/>
	<path fill="#F7941E" d="M529.5,219.2c0,0.9,0.7,1.5,1.5,1.5h14.9c0.9,0,1.5-0.7,1.5-1.5l0,0c0-0.9-0.7-1.5-1.5-1.5H531
		C530.1,217.7,529.5,218.4,529.5,219.2L529.5,219.2z"/>
	<rect x="225.9" y="305" fill="#9B151E" width="4.6" height="22.6"/>
	<rect x="230.4" y="318.1" fill="#721019" width="229.1" height="4.4"/>
	<rect x="447.4" y="305" fill="#9B151E" width="4.6" height="22.6"/>
	<path fill="#6D6E71" d="M453.6,324.8c0,4.1,3.3,7.4,7.4,7.4h10.4c4.1,0,7.4-3.3,7.4-7.4v-13.4c0-4.1-3.3-7.4-7.4-7.4h-10.4
		c-4.1,0-7.4,3.3-7.4,7.4V324.8z"/>
	<g>
		<circle fill="#231F20" cx="325.4" cy="331.7" r="26.6"/>
		<circle fill="#EFF8F5" cx="325.4" cy="332.2" r="20.1"/>
		<circle fill="#C9D3D0" cx="325.4" cy="332.2" r="15.2"/>
		<circle fill="#231F20" cx="325.4" cy="332.2" r="8"/>
		<circle fill="#231F20" cx="325.4" cy="320.3" r="1.4"/>
		<circle fill="#231F20" cx="325.4" cy="343.7" r="1.4"/>
		<circle fill="#231F20" cx="313.7" cy="331.7" r="1.4"/>
		<circle fill="#231F20" cx="337.1" cy="331.7" r="1.4"/>
		<circle fill="#231F20" cx="317.7" cy="323.9" r="1.4"/>
		<circle fill="#231F20" cx="334.3" cy="340.5" r="1.4"/>
		<circle fill="#231F20" cx="317.7" cy="340" r="1.4"/>
		<circle fill="#231F20" cx="334.3" cy="323.5" r="1.4"/>
	</g>
	<g>
		<circle fill="#231F20" cx="260.1" cy="331.7" r="26.6"/>
		<circle fill="#EFF8F5" cx="260.1" cy="332.2" r="20.1"/>
		<circle fill="#C9D3D0" cx="260.1" cy="332.2" r="15.2"/>
		<circle fill="#231F20" cx="260.1" cy="332.2" r="8"/>
		<circle fill="#231F20" cx="260.1" cy="320.3" r="1.4"/>
		<circle fill="#231F20" cx="260.1" cy="343.7" r="1.4"/>
		<circle fill="#231F20" cx="248.4" cy="331.7" r="1.4"/>
		<circle fill="#231F20" cx="271.8" cy="331.7" r="1.4"/>
		<circle fill="#231F20" cx="252.4" cy="323.9" r="1.4"/>
		<circle fill="#231F20" cx="268.9" cy="340.5" r="1.4"/>
		<circle fill="#231F20" cx="252.4" cy="340" r="1.4"/>
		<circle fill="#231F20" cx="268.9" cy="323.5" r="1.4"/>
	</g>
	<rect x="401.5" y="305" fill="#9B151E" width="4.6" height="22.6"/>
	<rect x="355.7" y="305" fill="#9B151E" width="4.6" height="22.6"/>
	<rect x="289.1" y="305" fill="#9B151E" width="4.6" height="22.6"/>
</g>
<g id="KRyJ1s.tif_1_">
	<g>
		<path fill="#FFFFFF" d="M289.4,203.4c0.7,0.3,1.5,0.5,2.2,0.9c1.7,0.9,2.5,2.4,2.7,4.3c0.2,1.8-0.2,3.5-1,5
			c-0.6,1.1-1.3,2.2-2,3.2c-0.7,1-1.8,1.6-3,1.8c-1.2,0.2-2.1-0.5-2.2-1.7c-0.1-0.9,0-1.9,0.5-2.7c0.8-1.5,1.7-2.8,3.5-3.3
			c0.3-0.1,0.7-0.2,1-0.2c0.5,0,0.7-0.2,0.8-0.6c0.5-1.7-0.5-3.1-2.4-3.1c-0.9,0-1.9,0.2-2.8,0.5c-3.7,1.2-6.9,3.4-9.7,6
			c-9.1,8.4-16.4,18.2-21.5,29.5c-1.8,4-3.1,8.2-3.9,12.5c-0.5,3-0.5,6,0.2,9c0.9,3.8,3.2,6.3,6.8,7.9c2.9,1.2,5.9,1.7,9,1.4
			c5.1-0.4,9.9-1.7,14.8-2.9c5.6-1.3,11.2-2.8,16.8-4c5.3-1.2,10.6-1.8,16.1-1.5c6.3,0.3,12,2.2,17.1,5.9c2.9,2.1,5.7,4.2,8.2,6.7
			c0.4,0.4,0.8,0.9,1.1,1.5c-0.2-0.1-0.3-0.2-0.5-0.3c-5.1-3.3-10.6-5.1-16.7-5.1c-2.6,0-5.1,0.4-7.2,2.1c-1,0.8-1.9,1.9-2.9,2.8
			c0.1,0.1,0,0,0,0c-2.3-3.9-5.8-6.2-10.1-7.2c-3.1-0.8-6.2-0.8-9.3-0.7c-5.5,0.3-10.8,1.8-16.1,3.1c-4.9,1.2-9.9,2.3-14.9,3.3
			c-3.9,0.8-7.9,0.7-11.7-0.7c-5.8-2.1-9.4-6.2-10.6-12.2c-0.2-1.2-0.3-2.3-0.5-3.5c0-0.2-0.1-0.3-0.1-0.5c0-1,0-2.1,0-3.1
			c0.1-0.8,0.2-1.7,0.3-2.5c0.6-4.7,1.9-9.1,3.8-13.4c3.7-8.6,9-16.1,15.6-22.6c4.3-4.3,8.8-8.2,14.1-11.1c2.9-1.6,6-3,9.3-3.8
			c1.1-0.2,2.1-0.4,3.2-0.5C287.9,203.4,288.6,203.4,289.4,203.4z"/>
		<path fill="#FFFFFF" d="M453,214.7c0.5-1.1,1-2.1,1.5-3.2c0.5-1.1,0.9-2.2,0.9-3.4c0-0.9-0.4-1.2-1.2-0.9
			c-0.8,0.3-1.6,0.7-2.2,1.3c-3,2.3-5.7,5-8.2,7.8c-5.3,5.9-9.7,12.4-13.7,19.1c-2.6,4.2-4.9,8.6-7.3,12.9c-0.2,0.4-0.4,0.8-0.5,1.4
			c0.3-0.2,0.6-0.3,0.9-0.5c1.6-1.3,3.2-2.4,4.7-3.8c6.6-6,12.7-12.5,18.2-19.6c0.5-0.7,1-1.2,1.9-1.1c0.4,0,0.8-0.1,1.3-0.1
			c-0.3,0.5-0.5,0.9-0.8,1.3c-3.5,4.9-7.5,9.5-11.7,13.9c-5.1,5.4-10.6,10.2-16.6,14.5c-0.2,0.1-0.3,0.3-0.4,0.5
			c-1.9,4-3.6,8.1-4.4,12.5c-0.2,0.9-0.2,1.8,0,2.6c0.2,1.3,1.4,1.8,2.5,1c1.1-0.9,2.2-1.8,3-2.9c1.6-2.2,3.2-4.4,4.6-6.7
			c2.5-3.9,5.1-7.8,8.1-11.3c2.7-3.3,5.7-6.2,9.4-8.4c1.6-0.9,3.3-1.4,5.2-1.1c1.2,0.2,1.9,1,2.6,1.9c0.2,0.2,0.3,0.4,0.5,0.7
			c0.3-0.5,0.6-1,0.9-1.5c0.1-0.2,0.3-0.4,0.5-0.4c2.3,0,4.5,0,6.8,0c0.1,0,0.1,0,0.2,0.1c-0.1,0.2-0.2,0.4-0.3,0.6
			c-3.5,6.1-6.9,12.3-10.4,18.4c-1.3,2.4-2.7,4.7-4.1,7.1c-0.4,0.6-0.6,1.3-0.9,2c-0.2,0.4-0.3,0.9,0.2,1.3c0.5,0.3,0.9,0.2,1.4-0.1
			c2-1.2,3.7-2.8,5.1-4.6c1.7-2.2,3.3-4.5,4.9-6.8c0.2-0.3,0.4-0.5,0.8-0.5c0.6,0,1.2,0,1.9,0c-0.3,0.5-0.5,0.8-0.7,1.2
			c-2.8,4.4-5.9,8.7-9.6,12.5c-2.1,2.2-4.5,3.9-7.3,5.1c-0.7,0.3-1.5,0.4-2.3,0.4c-1.5,0-2.5-0.8-2.8-2.2c-0.2-1-0.2-2-0.2-3
			c0-0.2,0-0.4,0.1-0.6c0,0-0.1-0.1-0.1-0.1c-0.4,0.4-0.8,0.8-1.2,1.2c-1.7,1.6-3.5,3.1-5.6,4.1c-1,0.5-2.1,0.8-3.3,0.6
			c-2-0.3-3.3-1.7-3.5-3.9c-0.1-0.9,0-1.8,0-2.7c0-0.2,0-0.5,0-0.9c-0.3,0.3-0.4,0.5-0.6,0.6c-1.6,1.9-3.3,3.8-5.4,5.2
			c-0.9,0.6-1.9,1.1-2.9,1.5c-2.2,0.7-4.2-0.1-5.3-2.2c-0.7-1.2-0.8-2.5-0.8-3.8c0.1-3,1-5.8,1.8-8.6c0.5-1.7,1.1-3.4,1.7-5.2
			c-0.3,0.1-0.6,0.1-0.9,0.1c-0.9,0.1-1.8,0.2-2.7,0.3c-0.5,0-0.7,0.2-0.9,0.6c-1.8,2.8-3.5,5.7-5.5,8.4c-2.7,3.7-5.8,6.9-9.8,9.2
			c-1.3,0.8-2.7,1.3-4.2,1.5c-2.9,0.2-4.4-1.7-4.9-3.6c-0.5-2-0.3-4.1,0.2-6.1c1-4.4,2.9-8.3,5.3-12.1c2.6-4,5.5-7.9,9.2-11
			c2.2-1.9,4.6-3.5,7.4-4.4c1-0.3,2.1-0.5,3.2-0.3c2.2,0.2,3.2,1.8,3.5,3.3c0.5,2.2,0.2,4.5-0.5,6.6c-0.6,1.7-1.3,3.4-2,5.1
			c-0.1,0.2-0.2,0.4-0.3,0.7c1.5,0.1,2.7-0.3,3.9-0.9c0.2-0.1,0.3-0.4,0.4-0.6c3.7-7.7,7.8-15.1,12.6-22.2
			c5.9-8.7,12.7-16.5,20.8-23.2c1.9-1.6,4-3,6.3-4c1.1-0.5,2.3-0.8,3.6-0.8c1.6,0.1,2.4,0.9,2.5,2.5c0.2,2-0.4,3.8-1.2,5.5
			c-0.9,1.9-1,2-3.1,2.4C453.3,214.7,453.2,214.7,453,214.7z M430.9,269.7c0,0.7,0.8,1.3,2,0.9c0.5-0.2,1-0.5,1.5-0.9
			c1.5-1.1,2.4-2.5,3.5-4c2.8-3.9,5.1-8.1,7.5-12.3c1.4-2.4,2.8-4.9,4.2-7.3c0.3-0.5,0.4-1,0.1-1.6c-0.4-0.6-1-0.6-1.5-0.4
			c-0.7,0.2-1.4,0.6-1.9,1c-0.8,0.6-1.5,1.2-2.2,1.9c-5,5.1-8.8,11-11.8,17.4C431.4,266,431,267.6,430.9,269.7z M397.7,252.1
			c-1.1,1.6-2.1,3.1-3.1,4.6c-1.7,2.7-3.2,5.6-4.1,8.7c-0.3,1.1-0.5,2.2-0.3,3.3c0.2,1.4,1.3,2.2,2.7,1.9c1.4-0.3,2.4-1.1,3.4-2.1
			c3.1-2.9,5.4-6.3,7.3-10.1c0.1-0.2,0.2-0.4,0.3-0.6C401.3,256.6,399.1,254.9,397.7,252.1z M408.2,246.7c0-0.3,0-0.7,0-1
			c-0.2-1.4-0.9-2.2-2.1-2.2c-0.5,0-1.1,0.1-1.5,0.3c-1.3,0.7-2.5,1.6-3.3,2.9c-2.2,3.5-0.2,7.4,3.6,8.7c0.2,0.1,0.5-0.1,0.6-0.3
			c0.4-0.6,0.7-1.3,1-2C407.3,251.2,408.2,249.1,408.2,246.7z"/>
		<path fill="#FFFFFF" d="M293,236.1c0.5-0.1,0.9-0.1,1.2-0.2c1.1-0.6,2.2-1.1,3.3-1.8c2.2-1.4,4-3.2,5.8-5.1c1.8-2,3.9-3.7,6.1-5.2
			c2-1.3,4-2.1,6.4-2c3.1,0.2,5.2,2.6,4.7,5.7c-0.4,2.4-1.3,4.6-3,6.4c-0.6,0.6-1.3,1.2-2.1,1.5c-1.3,0.6-2.6-0.3-2.7-1.8
			c-0.1-2.6,2.3-5.2,4.9-5.4c0.2,0,0.4-0.1,0.5-0.2c0.4-0.9,0.2-2.5-1.4-2.6c-1.3,0-2.4,0.6-3.4,1.4c-1.9,1.5-3.7,3.3-5.2,5.2
			c-3.7,4.5-6.4,9.5-8.3,15c-0.5,1.4-0.7,2.7-0.4,4.2c0.4,2.2,2,3.3,4.2,2.7c1.9-0.5,3.5-1.6,5-3c3.2-2.9,5.8-6.1,8.4-9.5
			c2.4-3.2,4.7-6.4,7.1-9.5c2.4-3,5-5.7,8.2-7.8c1.5-1,3-1.9,4.8-2.2c2-0.4,3.5,0.3,4.7,1.9c0.1,0.1,0.2,0.2,0.3,0.3
			c0.1-0.1,0.1-0.1,0.2-0.2c0.4-1,1.1-1.2,2.1-1.2c1.7,0.1,3.5,0,5.2,0c0.2,0,0.4,0,0.7,0c-0.2,0.4-0.4,0.6-0.5,0.9
			c-5,8.6-9.9,17.2-14.9,25.8c-0.3,0.5-0.5,1-0.5,1.6c-0.1,0.8,0.4,1.2,1.2,0.9c0.6-0.2,1.1-0.5,1.6-0.9c1.8-1.3,3.4-3,4.8-4.7
			c1.3-1.6,2.6-3.3,3.8-4.9c0.3-0.4,0.6-0.6,1.2-0.6c0.5,0,1.1,0,1.7,0c-0.1,0.2-0.1,0.3-0.2,0.3c-3.1,4.5-6.3,8.9-10.2,12.7
			c-2,1.9-4,3.7-6.5,4.9c-1.1,0.5-2.3,0.8-3.6,0.6c-1.2-0.2-2.3-1.4-2.4-2.8c-0.1-0.9,0-1.8-0.1-2.8c-0.1,0.2-0.2,0.3-0.4,0.5
			c-1.3,1.5-2.8,2.8-4.5,3.8c-1.2,0.7-2.4,1.3-3.7,1.4c-2.7,0.3-4.7-1.4-4.8-4.1c-0.1-1.6,0.3-3.2,0.7-4.8c0.1-0.2,0.1-0.4,0-0.7
			c-0.2,0.2-0.3,0.3-0.5,0.5c-2.2,2-4.4,4.1-6.8,6c-1.9,1.6-4.1,2.6-6.6,3c-1.3,0.2-2.6,0.3-3.8-0.1c-2.6-0.9-3.8-3-4.3-5.5
			c-0.7-3.5,0.2-6.6,1.6-9.7c0.8-1.8,1.8-3.6,2.6-5.4c0.1-0.2,0.2-0.4,0.4-0.7c-1,0.2-1.8,0.5-2.7,0.6c-0.8,0.1-1.2,0.5-1.6,1.2
			c-1.8,2.8-3.4,5.7-5.4,8.4c-2.7,3.6-5.8,6.8-9.5,9.3c-1.6,1-3.2,1.8-5.1,2c-2.1,0.2-4-0.9-4.8-2.8c-0.7-1.6-0.8-3.3-0.6-5
			c0.5-5,2.5-9.4,5.1-13.6c3.2-5,7.1-9.5,11.9-13c2-1.4,4.1-2.6,6.6-3.1c3.8-0.7,6.1,1.3,6.2,5.1c0,2.1-0.5,4.1-1.2,6
			C293.8,234.1,293.5,235,293,236.1z M321,250.8c0.1,0.6,0.3,1.1,0.8,1.4c0.5,0.3,1,0.3,1.5,0c1.2-0.7,2.4-1.6,3.2-2.7
			c1.2-1.6,2.5-3.2,3.5-5c3.4-5.8,6.7-11.6,10.1-17.4c0.4-0.6,0.2-1.2-0.5-1.5c-0.6-0.3-1.2-0.1-1.7,0.1c-1.2,0.5-2.2,1.2-3,2.2
			c-2.4,3-4.8,5.9-7,9c-2.5,3.4-4.6,7-6,10.9C321.5,248.8,321.3,249.8,321,250.8z M282.2,233.4c-0.2,0.2-0.2,0.3-0.3,0.4
			c-1.2,1.8-2.4,3.5-3.4,5.3c-1.6,2.6-2.9,5.3-3.6,8.2c-0.2,0.9-0.3,1.8-0.2,2.6c0.2,1.7,1.3,2.4,2.9,2c0.4-0.1,0.8-0.3,1.2-0.5
			c1.5-0.9,2.7-2.1,3.8-3.3c2.4-2.7,4.2-5.8,6.1-8.9c0.1-0.2,0.2-0.5,0.3-0.7C286.1,237.7,283.7,236.2,282.2,233.4z M292.8,228.5
			c0-0.3,0-0.5,0-0.8c-0.3-2.1-1.2-2.8-3.4-2.2c-0.4,0.1-0.7,0.2-1,0.5c-1.5,1-2.6,2.2-3.2,3.9c-0.5,1.4-0.5,2.8,0.5,4
			c1.1,1.4,2.6,2.1,4.3,2.3c0.3,0,0.5-0.1,0.7-0.4c0.4-0.9,0.9-1.9,1.2-2.8C292.3,231.5,292.8,230.1,292.8,228.5z"/>
		<path fill="#FFFFFF" d="M438,213.8c-1.8,1.9-3.5,3.8-5.3,5.7c-0.1,0.1-0.5,0.1-0.6,0c-1.1-0.6-2.3-1.3-3.4-2
			c-3.4-2.1-6.7-4.4-10.2-6.4c-2.7-1.6-5.5-2.7-8.6-3.1c-1-0.1-2-0.1-2.9,0.2c-0.3,0.1-0.4,0.3-0.4,0.6c0.3,3.6-0.6,6.9-2,10.1
			c-1.9,4.5-4.6,8.4-8.2,11.7c-1.5,1.4-3.2,2.4-5.2,3c-2.7,0.8-4.8-0.5-5.2-3.3c-0.3-1.8,0.2-3.5,0.9-5.2c2.2-5.6,5.8-10.2,10.4-14
			c1.6-1.3,3.4-2.5,5.1-3.7c0.1-0.1,0.2-0.1,0.4-0.3c-1-0.5-2.1-0.5-3.1-0.3c-1.5,0.2-2.8,0.9-4.1,1.6c-5,2.7-9.3,6.3-13.2,10.4
			c-7.2,7.6-13.4,15.8-18.3,25.1c-2.7,5.1-4.8,10.4-5.8,16.1c-0.4,2.3-0.8,4.7-0.2,7c0.7,2.5,2,4.3,4.6,5c1.6,0.4,3.1,0.1,4.5-0.5
			c2.6-1.2,4.8-2.9,6.7-5c3.8-4,6.9-8.6,8.6-13.9c0.7-2,1.1-4.1,1-6.2c-0.1-2-1.3-2.8-3.3-2.1c-1.4,0.5-2.4,1.6-3.3,2.8
			c-2,2.6-3.3,5.4-3.9,8.6c0,0.2-0.2,0.5-0.4,0.6c-3.4,1.7-6.4,4-9,6.8c-0.1,0.1-0.2,0.2-0.4,0.3c0.8-6.3,2.7-12.2,6.8-17
			c2.4-2.9,5.4-5,9.1-5.9c1-0.2,1.9-0.4,2.9-0.1c1.6,0.4,2.7,1.5,3.2,3.1c0.7,2.1,0.6,4.1,0.2,6.2c-0.9,4.9-3.1,9.2-5.8,13.3
			c-3.4,5.2-7.7,9.5-13,12.7c-2.3,1.3-4.7,2.1-7.4,2.2c-4.2,0.1-7.3-1.8-9.5-5.4c-1.8-3.1-2.2-6.5-2-9.9c0.4-5.5,2.2-10.6,4.6-15.5
			c6.3-13.3,15.1-24.7,26.6-34c4.9-4,10.4-7.1,16.5-8.9c2.2-0.6,4.5-0.8,6.7-0.2c1,0.3,1.9,0.8,2.7,1.5c0.3,0.3,0.5,0.3,0.8,0.2
			c1.8-0.6,3.6-1.2,5.5-1.6c4.6-0.9,9-0.2,13.1,1.9c4.7,2.4,9.2,5.2,13.7,7.8C437.9,213.8,437.9,213.8,438,213.8z M404.3,209.1
			c-0.6,0.3-1.1,0.6-1.5,0.9c-5.8,3.6-10.1,8.6-13.2,14.6c-0.7,1.4-1.3,2.8-1.4,4.3c-0.2,2,1.4,3.2,3.2,2.3c0.7-0.3,1.5-0.7,2.1-1.2
			c6.3-4.9,10-11.3,10.9-19.2C404.3,210.3,404.3,209.8,404.3,209.1z"/>
		<path fill="#FFFFFF" d="M473.6,203.9c-1,2.1-2.3,4.1-3.7,5.9c-4.7,5.9-10.4,10.2-17.6,12.5c-3.6,1.2-7.4,1.5-11.1,0.8
			c-0.1,0-0.2,0-0.2,0c-0.2,0-0.3-0.1-0.6-0.2c0.1-0.2,0.2-0.3,0.3-0.5c1.5-1.9,3.1-3.7,4.6-5.6c0.1-0.2,0.4-0.4,0.7-0.3
			c4.3,0.4,8.5-0.4,12.5-2c5.7-2.4,10.7-5.9,15-10.4C473.5,204.1,473.5,204,473.6,203.9z"/>
		<path fill="#FFFFFF" d="M362.3,222.8c-0.6,1-1.2,2-1.8,2.9c-0.6,1-1.3,2.1-1.9,3.1c-0.1,0.2-0.3,0.4-0.5,0.4c-2.1,0-4.3,0-6.4,0
			c0,0-0.1,0-0.1-0.1c0-0.1,0.1-0.2,0.1-0.2c1.2-1.9,2.3-3.8,3.5-5.7c0.1-0.2,0.3-0.3,0.5-0.3C357.8,222.8,360,222.8,362.3,222.8z"
			/>
	</g>
</g>
</svg>
