<?xml version="1.0" encoding="utf-8"?>
<!-- Generator: Adobe Illustrator 18.1.1, SVG Export Plug-In . SVG Version: 6.00 Build 0)  -->
<svg version="1.1" id="Layer_1" xmlns="http://www.w3.org/2000/svg" xmlns:xlink="http://www.w3.org/1999/xlink" x="0px" y="0px"
	 viewBox="0 0 800 550" enable-background="new 0 0 800 550" xml:space="preserve">
<g>
	<rect x="247.9" y="194.5" fill="#23060D" width="233.6" height="39"/>
	<g>
		<polygon fill="#414042" points="298.1,220.8 240,220.8 243.7,192 293.5,192 		"/>
		<circle fill="#E6E7E8" cx="246.2" cy="194.5" r="1.8"/>
		<circle fill="#E6E7E8" cx="250.6" cy="194.5" r="1.8"/>
		<circle fill="#E6E7E8" cx="254.9" cy="194.5" r="1.8"/>
		<circle fill="#E6E7E8" cx="259.3" cy="194.5" r="1.8"/>
		<circle fill="#E6E7E8" cx="263.7" cy="194.5" r="1.8"/>
		<circle fill="#E6E7E8" cx="268.1" cy="194.5" r="1.8"/>
		<circle fill="#E6E7E8" cx="272.5" cy="194.5" r="1.8"/>
		<circle fill="#E6E7E8" cx="276.9" cy="194.5" r="1.8"/>
		<circle fill="#E6E7E8" cx="281.2" cy="194.5" r="1.8"/>
		<circle fill="#E6E7E8" cx="285.6" cy="194.5" r="1.8"/>
		<circle fill="#E6E7E8" cx="289.5" cy="194.5" r="1.8"/>
		<circle fill="#E6E7E8" cx="245.8" cy="199" r="1.8"/>
		<circle fill="#E6E7E8" cx="250.2" cy="199" r="1.8"/>
		<circle fill="#E6E7E8" cx="254.6" cy="199" r="1.8"/>
		<circle fill="#E6E7E8" cx="258.9" cy="199" r="1.8"/>
		<circle fill="#E6E7E8" cx="263.3" cy="199" r="1.8"/>
		<circle fill="#E6E7E8" cx="267.7" cy="199" r="1.8"/>
		<circle fill="#E6E7E8" cx="272.1" cy="199" r="1.8"/>
		<circle fill="#E6E7E8" cx="276.5" cy="199" r="1.8"/>
		<circle fill="#E6E7E8" cx="280.9" cy="199" r="1.8"/>
		<circle fill="#E6E7E8" cx="285.2" cy="199" r="1.8"/>
		<circle fill="#E6E7E8" cx="290.5" cy="199" r="1.8"/>
		<circle fill="#E6E7E8" cx="245.2" cy="203.1" r="1.8"/>
		<circle fill="#E6E7E8" cx="250.6" cy="203.1" r="1.8"/>
		<circle fill="#E6E7E8" cx="254.9" cy="203.1" r="1.8"/>
		<circle fill="#E6E7E8" cx="259.3" cy="203.1" r="1.8"/>
		<circle fill="#E6E7E8" cx="263.7" cy="203.1" r="1.8"/>
		<circle fill="#E6E7E8" cx="268.1" cy="203.1" r="1.8"/>
		<circle fill="#E6E7E8" cx="272.5" cy="203.1" r="1.8"/>
		<circle fill="#E6E7E8" cx="276.9" cy="203.1" r="1.8"/>
		<circle fill="#E6E7E8" cx="281.2" cy="203.1" r="1.8"/>
		<circle fill="#E6E7E8" cx="285.6" cy="203.1" r="1.8"/>
		<circle fill="#E6E7E8" cx="291.4" cy="203.1" r="1.8"/>
		<circle fill="#E6E7E8" cx="244.6" cy="207.3" r="1.8"/>
		<circle fill="#E6E7E8" cx="249" cy="207.3" r="1.8"/>
		<circle fill="#E6E7E8" cx="253.3" cy="207.3" r="1.8"/>
		<circle fill="#E6E7E8" cx="257.7" cy="207.3" r="1.8"/>
		<circle fill="#E6E7E8" cx="262.1" cy="207.3" r="1.8"/>
		<circle fill="#E6E7E8" cx="266.4" cy="207.3" r="1.8"/>
		<circle fill="#E6E7E8" cx="270.8" cy="207.3" r="1.8"/>
		<circle fill="#E6E7E8" cx="275.2" cy="207.3" r="1.8"/>
		<circle fill="#E6E7E8" cx="279.5" cy="207.3" r="1.8"/>
		<circle fill="#E6E7E8" cx="283.9" cy="207.3" r="1.8"/>
		<circle fill="#E6E7E8" cx="288.3" cy="207.3" r="1.8"/>
		<circle fill="#E6E7E8" cx="244.2" cy="211.7" r="1.8"/>
		<circle fill="#E6E7E8" cx="248.7" cy="211.7" r="1.8"/>
		<circle fill="#E6E7E8" cx="253.1" cy="211.7" r="1.8"/>
		<circle fill="#E6E7E8" cx="257.6" cy="211.7" r="1.8"/>
		<circle fill="#E6E7E8" cx="262" cy="211.7" r="1.8"/>
		<circle fill="#E6E7E8" cx="266.5" cy="211.7" r="1.8"/>
		<circle fill="#E6E7E8" cx="270.9" cy="211.7" r="1.8"/>
		<circle fill="#E6E7E8" cx="275.4" cy="211.7" r="1.8"/>
		<circle fill="#E6E7E8" cx="279.8" cy="211.7" r="1.8"/>
		<circle fill="#E6E7E8" cx="284.3" cy="211.7" r="1.8"/>
		<circle fill="#E6E7E8" cx="288.7" cy="211.7" r="1.8"/>
		<circle fill="#E6E7E8" cx="243.2" cy="215.8" r="1.8"/>
		<circle fill="#E6E7E8" cx="247.8" cy="215.8" r="1.8"/>
		<circle fill="#E6E7E8" cx="252.4" cy="215.8" r="1.8"/>
		<circle fill="#E6E7E8" cx="257.1" cy="215.8" r="1.8"/>
		<circle fill="#E6E7E8" cx="261.7" cy="215.8" r="1.8"/>
		<circle fill="#E6E7E8" cx="266.3" cy="215.8" r="1.8"/>
		<circle fill="#E6E7E8" cx="270.9" cy="215.8" r="1.8"/>
		<circle fill="#E6E7E8" cx="275.5" cy="215.8" r="1.8"/>
		<circle fill="#E6E7E8" cx="280.1" cy="215.8" r="1.8"/>
		<circle fill="#E6E7E8" cx="284.8" cy="215.8" r="1.8"/>
		<circle fill="#E6E7E8" cx="289.4" cy="215.8" r="1.8"/>
		<circle fill="#E6E7E8" cx="292.6" cy="207.4" r="1.8"/>
		<circle fill="#E6E7E8" cx="293.2" cy="211.7" r="1.8"/>
		<circle fill="#E6E7E8" cx="294" cy="216" r="1.8"/>
	</g>
	<g>
		<polygon fill="#414042" points="360.3,220.8 302.2,220.8 305.9,192 355.7,192 		"/>
		<circle fill="#E6E7E8" cx="308.4" cy="194.5" r="1.8"/>
		<circle fill="#E6E7E8" cx="312.7" cy="194.5" r="1.8"/>
		<circle fill="#E6E7E8" cx="317.1" cy="194.5" r="1.8"/>
		<circle fill="#E6E7E8" cx="321.5" cy="194.5" r="1.8"/>
		<circle fill="#E6E7E8" cx="325.9" cy="194.5" r="1.8"/>
		<circle fill="#E6E7E8" cx="330.3" cy="194.5" r="1.8"/>
		<circle fill="#E6E7E8" cx="334.7" cy="194.5" r="1.8"/>
		<circle fill="#E6E7E8" cx="339" cy="194.5" r="1.8"/>
		<circle fill="#E6E7E8" cx="343.4" cy="194.5" r="1.8"/>
		<circle fill="#E6E7E8" cx="347.8" cy="194.5" r="1.8"/>
		<circle fill="#E6E7E8" cx="351.7" cy="194.5" r="1.8"/>
		<circle fill="#E6E7E8" cx="308" cy="199" r="1.8"/>
		<circle fill="#E6E7E8" cx="312.4" cy="199" r="1.8"/>
		<circle fill="#E6E7E8" cx="316.7" cy="199" r="1.8"/>
		<circle fill="#E6E7E8" cx="321.1" cy="199" r="1.8"/>
		<circle fill="#E6E7E8" cx="325.5" cy="199" r="1.8"/>
		<circle fill="#E6E7E8" cx="329.9" cy="199" r="1.8"/>
		<circle fill="#E6E7E8" cx="334.3" cy="199" r="1.8"/>
		<circle fill="#E6E7E8" cx="338.7" cy="199" r="1.8"/>
		<circle fill="#E6E7E8" cx="343" cy="199" r="1.8"/>
		<circle fill="#E6E7E8" cx="347.4" cy="199" r="1.8"/>
		<circle fill="#E6E7E8" cx="352.7" cy="199" r="1.8"/>
		<circle fill="#E6E7E8" cx="307.4" cy="203.1" r="1.8"/>
		<circle fill="#E6E7E8" cx="312.7" cy="203.1" r="1.8"/>
		<circle fill="#E6E7E8" cx="317.1" cy="203.1" r="1.8"/>
		<circle fill="#E6E7E8" cx="321.5" cy="203.1" r="1.8"/>
		<circle fill="#E6E7E8" cx="325.9" cy="203.1" r="1.8"/>
		<circle fill="#E6E7E8" cx="330.3" cy="203.1" r="1.8"/>
		<circle fill="#E6E7E8" cx="334.7" cy="203.1" r="1.8"/>
		<circle fill="#E6E7E8" cx="339" cy="203.1" r="1.8"/>
		<circle fill="#E6E7E8" cx="343.4" cy="203.1" r="1.8"/>
		<circle fill="#E6E7E8" cx="347.8" cy="203.1" r="1.8"/>
		<circle fill="#E6E7E8" cx="353.6" cy="203.1" r="1.8"/>
		<circle fill="#E6E7E8" cx="306.8" cy="207.3" r="1.8"/>
		<circle fill="#E6E7E8" cx="311.2" cy="207.3" r="1.8"/>
		<circle fill="#E6E7E8" cx="315.5" cy="207.3" r="1.8"/>
		<circle fill="#E6E7E8" cx="319.9" cy="207.3" r="1.8"/>
		<circle fill="#E6E7E8" cx="324.3" cy="207.3" r="1.8"/>
		<circle fill="#E6E7E8" cx="328.6" cy="207.3" r="1.8"/>
		<circle fill="#E6E7E8" cx="333" cy="207.3" r="1.8"/>
		<circle fill="#E6E7E8" cx="337.3" cy="207.3" r="1.8"/>
		<circle fill="#E6E7E8" cx="341.7" cy="207.3" r="1.8"/>
		<circle fill="#E6E7E8" cx="346.1" cy="207.3" r="1.8"/>
		<circle fill="#E6E7E8" cx="350.4" cy="207.3" r="1.8"/>
		<circle fill="#E6E7E8" cx="306.4" cy="211.7" r="1.8"/>
		<circle fill="#E6E7E8" cx="310.9" cy="211.7" r="1.8"/>
		<circle fill="#E6E7E8" cx="315.3" cy="211.7" r="1.8"/>
		<circle fill="#E6E7E8" cx="319.8" cy="211.7" r="1.8"/>
		<circle fill="#E6E7E8" cx="324.2" cy="211.7" r="1.8"/>
		<circle fill="#E6E7E8" cx="328.7" cy="211.7" r="1.8"/>
		<circle fill="#E6E7E8" cx="333.1" cy="211.7" r="1.8"/>
		<circle fill="#E6E7E8" cx="337.6" cy="211.7" r="1.8"/>
		<circle fill="#E6E7E8" cx="342" cy="211.7" r="1.8"/>
		<circle fill="#E6E7E8" cx="346.4" cy="211.7" r="1.8"/>
		<circle fill="#E6E7E8" cx="350.9" cy="211.7" r="1.8"/>
		<circle fill="#E6E7E8" cx="305.4" cy="215.8" r="1.8"/>
		<circle fill="#E6E7E8" cx="310" cy="215.8" r="1.8"/>
		<circle fill="#E6E7E8" cx="314.6" cy="215.8" r="1.8"/>
		<circle fill="#E6E7E8" cx="319.3" cy="215.8" r="1.8"/>
		<circle fill="#E6E7E8" cx="323.9" cy="215.8" r="1.8"/>
		<circle fill="#E6E7E8" cx="328.5" cy="215.8" r="1.8"/>
		<circle fill="#E6E7E8" cx="333.1" cy="215.8" r="1.8"/>
		<circle fill="#E6E7E8" cx="337.7" cy="215.8" r="1.8"/>
		<circle fill="#E6E7E8" cx="342.3" cy="215.8" r="1.8"/>
		<circle fill="#E6E7E8" cx="347" cy="215.8" r="1.8"/>
		<circle fill="#E6E7E8" cx="351.6" cy="215.8" r="1.8"/>
		<circle fill="#E6E7E8" cx="354.8" cy="207.4" r="1.8"/>
		<circle fill="#E6E7E8" cx="355.3" cy="211.7" r="1.8"/>
		<circle fill="#E6E7E8" cx="356.2" cy="216" r="1.8"/>
	</g>
	<g>
		<polygon fill="#414042" points="422.5,220.1 364.4,220.1 368.1,191.2 417.8,191.2 		"/>
		<circle fill="#E6E7E8" cx="370.6" cy="193.7" r="1.8"/>
		<circle fill="#E6E7E8" cx="374.9" cy="193.7" r="1.8"/>
		<circle fill="#E6E7E8" cx="379.3" cy="193.7" r="1.8"/>
		<circle fill="#E6E7E8" cx="383.7" cy="193.7" r="1.8"/>
		<circle fill="#E6E7E8" cx="388.1" cy="193.7" r="1.8"/>
		<circle fill="#E6E7E8" cx="392.5" cy="193.7" r="1.8"/>
		<circle fill="#E6E7E8" cx="396.9" cy="193.7" r="1.8"/>
		<circle fill="#E6E7E8" cx="401.2" cy="193.7" r="1.8"/>
		<circle fill="#E6E7E8" cx="405.6" cy="193.7" r="1.8"/>
		<circle fill="#E6E7E8" cx="410" cy="193.7" r="1.8"/>
		<circle fill="#E6E7E8" cx="413.9" cy="193.7" r="1.8"/>
		<circle fill="#E6E7E8" cx="370.2" cy="198.2" r="1.8"/>
		<circle fill="#E6E7E8" cx="374.6" cy="198.2" r="1.8"/>
		<circle fill="#E6E7E8" cx="378.9" cy="198.2" r="1.8"/>
		<circle fill="#E6E7E8" cx="383.3" cy="198.2" r="1.8"/>
		<circle fill="#E6E7E8" cx="387.7" cy="198.2" r="1.8"/>
		<circle fill="#E6E7E8" cx="392.1" cy="198.2" r="1.8"/>
		<circle fill="#E6E7E8" cx="396.5" cy="198.2" r="1.8"/>
		<circle fill="#E6E7E8" cx="400.9" cy="198.2" r="1.8"/>
		<circle fill="#E6E7E8" cx="405.2" cy="198.2" r="1.8"/>
		<circle fill="#E6E7E8" cx="409.6" cy="198.2" r="1.8"/>
		<circle fill="#E6E7E8" cx="414.9" cy="198.2" r="1.8"/>
		<circle fill="#E6E7E8" cx="369.6" cy="202.3" r="1.8"/>
		<circle fill="#E6E7E8" cx="374.9" cy="202.3" r="1.8"/>
		<circle fill="#E6E7E8" cx="379.3" cy="202.3" r="1.8"/>
		<circle fill="#E6E7E8" cx="383.7" cy="202.3" r="1.8"/>
		<circle fill="#E6E7E8" cx="388.1" cy="202.3" r="1.8"/>
		<circle fill="#E6E7E8" cx="392.5" cy="202.3" r="1.8"/>
		<circle fill="#E6E7E8" cx="396.9" cy="202.3" r="1.8"/>
		<circle fill="#E6E7E8" cx="401.2" cy="202.3" r="1.8"/>
		<circle fill="#E6E7E8" cx="405.6" cy="202.3" r="1.8"/>
		<circle fill="#E6E7E8" cx="410" cy="202.3" r="1.8"/>
		<circle fill="#E6E7E8" cx="415.8" cy="202.3" r="1.8"/>
		<circle fill="#E6E7E8" cx="369" cy="206.5" r="1.8"/>
		<circle fill="#E6E7E8" cx="373.3" cy="206.5" r="1.8"/>
		<circle fill="#E6E7E8" cx="377.7" cy="206.5" r="1.8"/>
		<circle fill="#E6E7E8" cx="382.1" cy="206.5" r="1.8"/>
		<circle fill="#E6E7E8" cx="386.4" cy="206.5" r="1.8"/>
		<circle fill="#E6E7E8" cx="390.8" cy="206.5" r="1.8"/>
		<circle fill="#E6E7E8" cx="395.2" cy="206.5" r="1.8"/>
		<circle fill="#E6E7E8" cx="399.5" cy="206.5" r="1.8"/>
		<circle fill="#E6E7E8" cx="403.9" cy="206.5" r="1.8"/>
		<circle fill="#E6E7E8" cx="408.3" cy="206.5" r="1.8"/>
		<circle fill="#E6E7E8" cx="412.6" cy="206.5" r="1.8"/>
		<circle fill="#E6E7E8" cx="368.6" cy="210.9" r="1.8"/>
		<circle fill="#E6E7E8" cx="373" cy="210.9" r="1.8"/>
		<circle fill="#E6E7E8" cx="377.5" cy="210.9" r="1.8"/>
		<circle fill="#E6E7E8" cx="381.9" cy="210.9" r="1.8"/>
		<circle fill="#E6E7E8" cx="386.4" cy="210.9" r="1.8"/>
		<circle fill="#E6E7E8" cx="390.8" cy="210.9" r="1.8"/>
		<circle fill="#E6E7E8" cx="395.3" cy="210.9" r="1.8"/>
		<circle fill="#E6E7E8" cx="399.7" cy="210.9" r="1.8"/>
		<circle fill="#E6E7E8" cx="404.2" cy="210.9" r="1.8"/>
		<circle fill="#E6E7E8" cx="408.6" cy="210.9" r="1.8"/>
		<circle fill="#E6E7E8" cx="413.1" cy="210.9" r="1.8"/>
		<circle fill="#E6E7E8" cx="367.6" cy="215.1" r="1.8"/>
		<circle fill="#E6E7E8" cx="372.2" cy="215.1" r="1.8"/>
		<circle fill="#E6E7E8" cx="376.8" cy="215.1" r="1.8"/>
		<circle fill="#E6E7E8" cx="381.5" cy="215.1" r="1.8"/>
		<circle fill="#E6E7E8" cx="386.1" cy="215.1" r="1.8"/>
		<circle fill="#E6E7E8" cx="390.7" cy="215.1" r="1.8"/>
		<circle fill="#E6E7E8" cx="395.3" cy="215.1" r="1.8"/>
		<circle fill="#E6E7E8" cx="399.9" cy="215.1" r="1.8"/>
		<circle fill="#E6E7E8" cx="404.5" cy="215.1" r="1.8"/>
		<circle fill="#E6E7E8" cx="409.2" cy="215.1" r="1.8"/>
		<circle fill="#E6E7E8" cx="413.8" cy="215.1" r="1.8"/>
		<circle fill="#E6E7E8" cx="417" cy="206.6" r="1.8"/>
		<circle fill="#E6E7E8" cx="417.5" cy="210.9" r="1.8"/>
		<circle fill="#E6E7E8" cx="418.4" cy="215.2" r="1.8"/>
	</g>
	<g>
		<polygon fill="#414042" points="484.6,220.8 426.6,220.8 430.3,192 480,192 		"/>
		<circle fill="#E6E7E8" cx="432.7" cy="194.5" r="1.8"/>
		<circle fill="#E6E7E8" cx="437.1" cy="194.5" r="1.8"/>
		<circle fill="#E6E7E8" cx="441.5" cy="194.5" r="1.8"/>
		<circle fill="#E6E7E8" cx="445.9" cy="194.5" r="1.8"/>
		<circle fill="#E6E7E8" cx="450.3" cy="194.5" r="1.8"/>
		<circle fill="#E6E7E8" cx="454.7" cy="194.5" r="1.8"/>
		<circle fill="#E6E7E8" cx="459.1" cy="194.5" r="1.8"/>
		<circle fill="#E6E7E8" cx="463.4" cy="194.5" r="1.8"/>
		<circle fill="#E6E7E8" cx="467.8" cy="194.5" r="1.8"/>
		<circle fill="#E6E7E8" cx="472.2" cy="194.5" r="1.8"/>
		<circle fill="#E6E7E8" cx="476.1" cy="194.5" r="1.8"/>
		<circle fill="#E6E7E8" cx="432.4" cy="199" r="1.8"/>
		<circle fill="#E6E7E8" cx="436.7" cy="199" r="1.8"/>
		<circle fill="#E6E7E8" cx="441.1" cy="199" r="1.8"/>
		<circle fill="#E6E7E8" cx="445.5" cy="199" r="1.8"/>
		<circle fill="#E6E7E8" cx="449.9" cy="199" r="1.8"/>
		<circle fill="#E6E7E8" cx="454.3" cy="199" r="1.8"/>
		<circle fill="#E6E7E8" cx="458.7" cy="199" r="1.8"/>
		<circle fill="#E6E7E8" cx="463" cy="199" r="1.8"/>
		<circle fill="#E6E7E8" cx="467.4" cy="199" r="1.8"/>
		<circle fill="#E6E7E8" cx="471.8" cy="199" r="1.8"/>
		<circle fill="#E6E7E8" cx="477.1" cy="199" r="1.8"/>
		<circle fill="#E6E7E8" cx="431.8" cy="203.1" r="1.8"/>
		<circle fill="#E6E7E8" cx="437.1" cy="203.1" r="1.8"/>
		<circle fill="#E6E7E8" cx="441.5" cy="203.1" r="1.8"/>
		<circle fill="#E6E7E8" cx="445.9" cy="203.1" r="1.8"/>
		<circle fill="#E6E7E8" cx="450.3" cy="203.1" r="1.8"/>
		<circle fill="#E6E7E8" cx="454.7" cy="203.1" r="1.8"/>
		<circle fill="#E6E7E8" cx="459.1" cy="203.1" r="1.8"/>
		<circle fill="#E6E7E8" cx="463.4" cy="203.1" r="1.8"/>
		<circle fill="#E6E7E8" cx="467.8" cy="203.1" r="1.8"/>
		<circle fill="#E6E7E8" cx="472.2" cy="203.1" r="1.8"/>
		<circle fill="#E6E7E8" cx="478" cy="203.1" r="1.8"/>
		<circle fill="#E6E7E8" cx="431.2" cy="207.3" r="1.8"/>
		<circle fill="#E6E7E8" cx="435.5" cy="207.3" r="1.8"/>
		<circle fill="#E6E7E8" cx="439.9" cy="207.3" r="1.8"/>
		<circle fill="#E6E7E8" cx="444.3" cy="207.3" r="1.8"/>
		<circle fill="#E6E7E8" cx="448.6" cy="207.3" r="1.8"/>
		<circle fill="#E6E7E8" cx="453" cy="207.3" r="1.8"/>
		<circle fill="#E6E7E8" cx="457.4" cy="207.3" r="1.8"/>
		<circle fill="#E6E7E8" cx="461.7" cy="207.3" r="1.8"/>
		<circle fill="#E6E7E8" cx="466.1" cy="207.3" r="1.8"/>
		<circle fill="#E6E7E8" cx="470.5" cy="207.3" r="1.8"/>
		<circle fill="#E6E7E8" cx="474.8" cy="207.3" r="1.8"/>
		<circle fill="#E6E7E8" cx="430.8" cy="211.7" r="1.8"/>
		<circle fill="#E6E7E8" cx="435.2" cy="211.7" r="1.8"/>
		<circle fill="#E6E7E8" cx="439.7" cy="211.7" r="1.8"/>
		<circle fill="#E6E7E8" cx="444.1" cy="211.7" r="1.8"/>
		<circle fill="#E6E7E8" cx="448.6" cy="211.7" r="1.8"/>
		<circle fill="#E6E7E8" cx="453" cy="211.7" r="1.8"/>
		<circle fill="#E6E7E8" cx="457.5" cy="211.7" r="1.8"/>
		<circle fill="#E6E7E8" cx="461.9" cy="211.7" r="1.8"/>
		<circle fill="#E6E7E8" cx="466.4" cy="211.7" r="1.8"/>
		<circle fill="#E6E7E8" cx="470.8" cy="211.7" r="1.8"/>
		<circle fill="#E6E7E8" cx="475.3" cy="211.7" r="1.8"/>
		<circle fill="#E6E7E8" cx="429.8" cy="215.8" r="1.8"/>
		<circle fill="#E6E7E8" cx="434.4" cy="215.8" r="1.8"/>
		<circle fill="#E6E7E8" cx="439" cy="215.8" r="1.8"/>
		<circle fill="#E6E7E8" cx="443.6" cy="215.8" r="1.8"/>
		<circle fill="#E6E7E8" cx="448.3" cy="215.8" r="1.8"/>
		<circle fill="#E6E7E8" cx="452.9" cy="215.8" r="1.8"/>
		<circle fill="#E6E7E8" cx="457.5" cy="215.8" r="1.8"/>
		<circle fill="#E6E7E8" cx="462.1" cy="215.8" r="1.8"/>
		<circle fill="#E6E7E8" cx="466.7" cy="215.8" r="1.8"/>
		<circle fill="#E6E7E8" cx="471.3" cy="215.8" r="1.8"/>
		<circle fill="#E6E7E8" cx="476" cy="215.8" r="1.8"/>
		<circle fill="#E6E7E8" cx="479.2" cy="207.4" r="1.8"/>
		<circle fill="#E6E7E8" cx="479.7" cy="211.7" r="1.8"/>
		<circle fill="#E6E7E8" cx="480.6" cy="216" r="1.8"/>
	</g>
	<path fill="#414042" d="M480.1,311c0,3-2.4,5.4-5.4,5.4H338.6c-3,0-5.4-2.4-5.4-5.4v-7.6c0-3,2.4-5.4,5.4-5.4h136.1
		c3,0,5.4,2.4,5.4,5.4V311z"/>
	<path fill="#9A610B" d="M487.2,244.8c-2.3,0-4.1-2-4.1-4.6v-2.1c0-2.5,1.9-4.6,4.1-4.6h37.3c2.3,0,4.1,2,4.1,4.6v2.1
		c0,2.5-1.9,4.6-4.1,4.6H487.2z"/>
	<path fill="#9A610B" d="M496.4,251c0,3-2.4,5.4-5.4,5.4h-2.5c-3,0-5.4-2.4-5.4-5.4v-49c0-3,2.4-5.4,5.4-5.4h2.5
		c3,0,5.4,2.4,5.4,5.4V251z"/>
	<path fill="#5E020C" d="M546.5,294.6c0,2.9-2.4,5.3-5.4,5.3h-5.8c-3,0-5.4-2.4-5.4-5.3v-86.1c0-2.9,2.4-5.3,5.4-5.3h5.8
		c3,0,5.4,2.4,5.4,5.3V294.6z"/>
	<rect x="237.3" y="238.4" fill="#4C0F18" width="250" height="44.7"/>
	<polygon fill="#5E020C" points="487.3,239 237.3,239 231.9,219.4 492.8,219.4 	"/>
	<rect x="248.7" y="283.1" fill="#5E020C" width="293.6" height="22.3"/>
	<rect x="243.1" y="242.2" fill="#A4001D" width="75.7" height="37.4"/>
	<rect x="324.5" y="242.2" fill="#A4001D" width="75.7" height="37.4"/>
	<rect x="404.5" y="242.1" fill="#A4001D" width="75.7" height="37.4"/>
	<circle fill="#58595B" cx="526.5" cy="325.4" r="37.4"/>
	<g>
		<circle fill="#6D6E71" cx="526.5" cy="325.4" r="35.2"/>
		<circle fill="#414042" cx="526.5" cy="325.4" r="30.1"/>
		<circle fill="#6D6E71" cx="526.5" cy="325.4" r="10.1"/>
		<circle fill="#808285" cx="526.5" cy="325.4" r="6.7"/>
		<polyline fill="#6D6E71" points="529.6,315.8 527.8,295.3 524.9,295.3 523.4,315.8 		"/>
		<polyline fill="#6D6E71" points="523.4,334.9 525.2,355.5 528.1,355.5 529.6,334.9 		"/>
		<polyline fill="#6D6E71" points="534.6,327.6 556.9,325.8 556.9,322.9 534.6,321.4 		"/>
		<polyline fill="#6D6E71" points="518.4,321.4 496.4,323.2 496.4,326.1 518.4,327.6 		"/>
		<polyline fill="#6D6E71" points="535.3,320.8 548.6,304.9 546.5,302.9 530.9,316.4 		"/>
		<polyline fill="#6D6E71" points="523.4,316.2 506.9,302.5 504.9,304.5 518.4,320.4 		"/>
		<polyline fill="#6D6E71" points="517.5,329.8 504.3,345.6 506.4,347.7 522,334.2 		"/>
		<polyline fill="#6D6E71" points="529.5,334.3 546,348.1 548,346 534.5,330.1 		"/>
	</g>
	<circle fill="#58595B" cx="289.4" cy="325.4" r="37.4"/>
	<g>
		<circle fill="#6D6E71" cx="289.4" cy="325.4" r="35.2"/>
		<circle fill="#414042" cx="289.4" cy="325.4" r="30.1"/>
		<circle fill="#6D6E71" cx="289.4" cy="325.4" r="10.1"/>
		<circle fill="#808285" cx="289.4" cy="325.4" r="6.7"/>
		<polyline fill="#6D6E71" points="292.6,315.8 290.7,295.3 287.8,295.3 286.3,315.8 		"/>
		<polyline fill="#6D6E71" points="286.3,334.9 288.2,355.5 291.1,355.5 292.6,334.9 		"/>
		<polyline fill="#6D6E71" points="297.5,327.6 319.8,325.8 319.8,322.9 297.5,321.4 		"/>
		<polyline fill="#6D6E71" points="281.3,321.4 259.3,323.2 259.3,326.1 281.3,327.6 		"/>
		<polyline fill="#6D6E71" points="298.3,320.8 311.5,304.9 309.4,302.9 293.8,316.4 		"/>
		<polyline fill="#6D6E71" points="286.3,316.2 269.8,302.5 267.8,304.5 281.3,320.4 		"/>
		<polyline fill="#6D6E71" points="280.5,329.8 267.2,345.6 269.3,347.7 284.9,334.2 		"/>
		<polyline fill="#6D6E71" points="292.4,334.3 308.9,348.1 310.9,346 297.4,330.1 		"/>
	</g>
	<rect x="230.4" y="278.3" fill="#A4001D" width="71.8" height="3.4"/>
	<path fill="#A4001D" d="M301.8,281.8c0,0,27.2,5.8,27.9,39.6h3.4c0,0,0.9-36.1-30.9-43.1"/>
	<path fill="#5E020C" d="M530.1,278.1c0,2.7-2.4,5-5.4,5h-31.9c-3,0-5.4-2.2-5.4-5v-30.2c0-2.7,2.4-5,5.4-5h31.9c3,0,5.4,2.2,5.4,5
		V278.1z"/>
	<rect x="482.4" y="243" fill="#5E020C" width="22.5" height="40.1"/>
	<rect x="511" y="279.5" fill="#A4001D" width="51.2" height="3.4"/>
	<path fill="#A4001D" d="M511.5,282.9c0,0-27.2,5.8-27.9,39.6h-3.4c0,0-0.9-36.1,30.9-43.1"/>
	<path fill="#A4001D" d="M526.8,272.7c0,2-2.2,3.6-4.8,3.6h-28.2c-2.7,0-4.8-1.6-4.8-3.6v-22.1c0-2,2.2-3.6,4.8-3.6H522
		c2.7,0,4.8,1.6,4.8,3.6V272.7z"/>
	<g id="KRyJ1s.tif_23_">
		<g>
			<path fill="#FFFFFF" d="M278.2,245.3c0.3,0.1,0.6,0.2,0.8,0.3c0.6,0.4,1,0.9,1,1.6c0.1,0.7-0.1,1.3-0.4,1.9
				c-0.2,0.4-0.5,0.8-0.8,1.2c-0.3,0.4-0.7,0.6-1.2,0.7c-0.5,0.1-0.8-0.2-0.9-0.7c0-0.4,0-0.7,0.2-1c0.3-0.6,0.7-1.1,1.3-1.3
				c0.1,0,0.3-0.1,0.4-0.1c0.2,0,0.2-0.1,0.3-0.2c0.2-0.7-0.2-1.2-0.9-1.2c-0.4,0-0.7,0.1-1.1,0.2c-1.4,0.5-2.6,1.3-3.7,2.3
				c-3.5,3.2-6.3,6.9-8.2,11.2c-0.7,1.5-1.2,3.1-1.5,4.8c-0.2,1.1-0.2,2.3,0.1,3.4c0.3,1.4,1.2,2.4,2.6,3c1.1,0.5,2.2,0.6,3.4,0.6
				c1.9-0.2,3.8-0.7,5.6-1.1c2.1-0.5,4.3-1.1,6.4-1.5c2-0.5,4.1-0.7,6.1-0.6c2.4,0.1,4.6,0.8,6.5,2.2c1.1,0.8,2.2,1.6,3.1,2.6
				c0.2,0.2,0.3,0.4,0.4,0.6c-0.1,0-0.1-0.1-0.2-0.1c-1.9-1.2-4-1.9-6.4-1.9c-1,0-1.9,0.2-2.7,0.8c-0.4,0.3-0.7,0.7-1.1,1.1
				c0,0,0,0,0,0c-0.9-1.5-2.2-2.3-3.9-2.8c-1.2-0.3-2.4-0.3-3.6-0.2c-2.1,0.1-4.1,0.7-6.1,1.2c-1.9,0.5-3.8,0.9-5.7,1.3
				c-1.5,0.3-3,0.3-4.5-0.3c-2.2-0.8-3.6-2.4-4-4.7c-0.1-0.4-0.1-0.9-0.2-1.3c0-0.1,0-0.1,0-0.2c0-0.4,0-0.8,0-1.2
				c0-0.3,0.1-0.6,0.1-0.9c0.2-1.8,0.7-3.5,1.4-5.1c1.4-3.3,3.4-6.1,5.9-8.6c1.6-1.6,3.4-3.1,5.4-4.2c1.1-0.6,2.3-1.2,3.5-1.4
				c0.4-0.1,0.8-0.1,1.2-0.2C277.7,245.3,277.9,245.3,278.2,245.3z"/>
			<path fill="#FFFFFF" d="M279.6,257.8c0.2,0,0.3,0,0.4-0.1c0.4-0.2,0.8-0.4,1.2-0.7c0.8-0.5,1.5-1.2,2.2-1.9
				c0.7-0.7,1.5-1.4,2.3-2c0.7-0.5,1.5-0.8,2.5-0.8c1.2,0.1,2,1,1.8,2.2c-0.1,0.9-0.5,1.7-1.1,2.4c-0.2,0.2-0.5,0.5-0.8,0.6
				c-0.5,0.2-1-0.1-1-0.7c0-1,0.9-2,1.8-2.1c0.1,0,0.2,0,0.2-0.1c0.2-0.4,0.1-1-0.6-1c-0.5,0-0.9,0.2-1.3,0.5c-0.7,0.6-1.4,1.3-2,2
				c-1.4,1.7-2.4,3.6-3.2,5.7c-0.2,0.5-0.3,1-0.2,1.6c0.1,0.8,0.8,1.3,1.6,1c0.7-0.2,1.3-0.6,1.9-1.1c1.2-1.1,2.2-2.3,3.2-3.6
				c0.9-1.2,1.8-2.4,2.7-3.6c0.9-1.1,1.9-2.2,3.1-3c0.6-0.4,1.1-0.7,1.8-0.8c0.8-0.1,1.4,0.1,1.8,0.7c0,0,0.1,0.1,0.1,0.1
				c0,0,0.1-0.1,0.1-0.1c0.1-0.4,0.4-0.5,0.8-0.4c0.7,0,1.3,0,2,0c0.1,0,0.1,0,0.3,0c-0.1,0.1-0.1,0.2-0.2,0.3
				c-1.9,3.3-3.8,6.6-5.7,9.8c-0.1,0.2-0.2,0.4-0.2,0.6c0,0.3,0.2,0.4,0.5,0.3c0.2-0.1,0.4-0.2,0.6-0.3c0.7-0.5,1.3-1.1,1.8-1.8
				c0.5-0.6,1-1.2,1.5-1.9c0.1-0.2,0.2-0.2,0.4-0.2c0.2,0,0.4,0,0.6,0c0,0.1,0,0.1-0.1,0.1c-1.2,1.7-2.4,3.4-3.9,4.8
				c-0.8,0.7-1.5,1.4-2.5,1.9c-0.4,0.2-0.9,0.3-1.4,0.2c-0.5-0.1-0.9-0.6-0.9-1.1c0-0.3,0-0.7,0-1.1c0,0.1-0.1,0.1-0.1,0.2
				c-0.5,0.6-1.1,1.1-1.7,1.5c-0.4,0.3-0.9,0.5-1.4,0.5c-1,0.1-1.8-0.5-1.8-1.6c0-0.6,0.1-1.2,0.3-1.8c0-0.1,0-0.2,0-0.3
				c-0.1,0.1-0.1,0.1-0.2,0.2c-0.9,0.8-1.7,1.6-2.6,2.3c-0.7,0.6-1.6,1-2.5,1.1c-0.5,0.1-1,0.1-1.4-0.1c-1-0.3-1.4-1.1-1.6-2.1
				c-0.3-1.3,0.1-2.5,0.6-3.7c0.3-0.7,0.7-1.4,1-2c0-0.1,0.1-0.1,0.1-0.2c-0.4,0.1-0.7,0.2-1,0.2c-0.3,0-0.5,0.2-0.6,0.4
				c-0.7,1.1-1.3,2.2-2.1,3.2c-1,1.4-2.2,2.6-3.6,3.5c-0.6,0.4-1.2,0.7-1.9,0.8c-0.8,0.1-1.5-0.3-1.8-1.1c-0.3-0.6-0.3-1.3-0.2-1.9
				c0.2-1.9,0.9-3.6,2-5.2c1.2-1.9,2.7-3.6,4.5-5c0.8-0.5,1.6-1,2.5-1.2c1.4-0.3,2.3,0.5,2.4,1.9c0,0.8-0.2,1.6-0.5,2.3
				C279.9,257,279.8,257.4,279.6,257.8z M290.3,263.4c0,0.2,0.1,0.4,0.3,0.5c0.2,0.1,0.4,0.1,0.6,0c0.5-0.3,0.9-0.6,1.2-1
				c0.5-0.6,0.9-1.2,1.3-1.9c1.3-2.2,2.6-4.4,3.8-6.6c0.1-0.2,0.1-0.5-0.2-0.6c-0.2-0.1-0.5,0-0.7,0.1c-0.4,0.2-0.8,0.5-1.1,0.9
				c-0.9,1.1-1.8,2.3-2.7,3.4c-0.9,1.3-1.7,2.7-2.3,4.2C290.5,262.6,290.4,263,290.3,263.4z M275.5,256.7c-0.1,0.1-0.1,0.1-0.1,0.1
				c-0.4,0.7-0.9,1.3-1.3,2c-0.6,1-1.1,2-1.4,3.1c-0.1,0.3-0.1,0.7-0.1,1c0.1,0.6,0.5,0.9,1.1,0.8c0.2,0,0.3-0.1,0.4-0.2
				c0.6-0.3,1-0.8,1.4-1.3c0.9-1,1.6-2.2,2.3-3.4c0-0.1,0.1-0.2,0.1-0.3C277,258.4,276.1,257.8,275.5,256.7z M279.5,254.9
				c0-0.1,0-0.2,0-0.3c-0.1-0.8-0.5-1.1-1.3-0.9c-0.1,0-0.3,0.1-0.4,0.2c-0.6,0.4-1,0.9-1.2,1.5c-0.2,0.5-0.2,1.1,0.2,1.5
				c0.4,0.5,1,0.8,1.6,0.9c0.1,0,0.2,0,0.3-0.2c0.2-0.4,0.3-0.7,0.5-1.1C279.4,256,279.5,255.5,279.5,254.9z"/>
		</g>
	</g>
	<g id="KRyJ1s.tif_22_">
		<g>
			<path fill="#FFFFFF" d="M379.8,249.9c0.2-0.4,0.4-0.8,0.6-1.2c0.2-0.4,0.4-0.8,0.4-1.3c0-0.3-0.1-0.5-0.5-0.3
				c-0.3,0.1-0.6,0.3-0.8,0.5c-1.1,0.9-2.2,1.9-3.1,3c-2,2.2-3.7,4.7-5.2,7.3c-1,1.6-1.9,3.3-2.8,4.9c-0.1,0.2-0.2,0.3-0.2,0.5
				c0.1-0.1,0.2-0.1,0.3-0.2c0.6-0.5,1.2-0.9,1.8-1.4c2.5-2.3,4.9-4.8,6.9-7.5c0.2-0.3,0.4-0.5,0.7-0.4c0.2,0,0.3,0,0.5-0.1
				c-0.1,0.2-0.2,0.3-0.3,0.5c-1.3,1.9-2.9,3.6-4.5,5.3c-1.9,2-4,3.9-6.3,5.5c-0.1,0-0.1,0.1-0.2,0.2c-0.7,1.5-1.4,3.1-1.7,4.8
				c-0.1,0.3-0.1,0.7,0,1c0.1,0.5,0.5,0.7,0.9,0.4c0.4-0.3,0.8-0.7,1.2-1.1c0.6-0.8,1.2-1.7,1.8-2.6c1-1.5,1.9-3,3.1-4.3
				c1-1.2,2.2-2.4,3.6-3.2c0.6-0.4,1.3-0.5,2-0.4c0.5,0.1,0.7,0.4,1,0.7c0.1,0.1,0.1,0.2,0.2,0.3c0.1-0.2,0.2-0.4,0.3-0.6
				c0-0.1,0.1-0.1,0.2-0.1c0.9,0,1.7,0,2.6,0c0,0,0,0,0.1,0c0,0.1-0.1,0.1-0.1,0.2c-1.3,2.3-2.6,4.7-4,7c-0.5,0.9-1,1.8-1.6,2.7
				c-0.1,0.2-0.2,0.5-0.3,0.8c-0.1,0.2-0.1,0.4,0.1,0.5c0.2,0.1,0.3,0.1,0.5,0c0.8-0.5,1.4-1.1,1.9-1.8c0.6-0.8,1.3-1.7,1.9-2.6
				c0.1-0.1,0.2-0.2,0.3-0.2c0.2,0,0.5,0,0.7,0c-0.1,0.2-0.2,0.3-0.3,0.4c-1.1,1.7-2.3,3.3-3.7,4.8c-0.8,0.8-1.7,1.5-2.8,2
				c-0.3,0.1-0.6,0.2-0.9,0.2c-0.6,0-1-0.3-1.1-0.8c-0.1-0.4-0.1-0.8-0.1-1.2c0-0.1,0-0.2,0-0.2c0,0,0,0-0.1,0
				c-0.2,0.2-0.3,0.3-0.5,0.5c-0.6,0.6-1.3,1.2-2.1,1.6c-0.4,0.2-0.8,0.3-1.2,0.2c-0.8-0.1-1.2-0.7-1.3-1.5c0-0.3,0-0.7,0-1
				c0-0.1,0-0.2,0-0.3c-0.1,0.1-0.2,0.2-0.2,0.2c-0.6,0.7-1.3,1.5-2.1,2c-0.3,0.2-0.7,0.4-1.1,0.6c-0.8,0.3-1.6,0-2-0.8
				c-0.3-0.5-0.3-1-0.3-1.5c0-1.1,0.4-2.2,0.7-3.3c0.2-0.7,0.4-1.3,0.7-2c-0.1,0-0.2,0-0.3,0.1c-0.3,0-0.7,0.1-1,0.1
				c-0.2,0-0.3,0.1-0.3,0.2c-0.7,1.1-1.3,2.2-2.1,3.2c-1,1.4-2.2,2.6-3.7,3.5c-0.5,0.3-1,0.5-1.6,0.6c-1.1,0.1-1.7-0.6-1.8-1.4
				c-0.2-0.8-0.1-1.6,0.1-2.3c0.4-1.7,1.1-3.2,2-4.6c1-1.5,2.1-3,3.5-4.2c0.8-0.7,1.7-1.3,2.8-1.7c0.4-0.1,0.8-0.2,1.2-0.1
				c0.8,0.1,1.2,0.7,1.3,1.3c0.2,0.9,0.1,1.7-0.2,2.5c-0.2,0.7-0.5,1.3-0.8,2c0,0.1-0.1,0.1-0.1,0.2c0.6,0,1-0.1,1.5-0.3
				c0.1,0,0.1-0.1,0.1-0.2c1.4-2.9,3-5.8,4.8-8.5c2.3-3.3,4.8-6.3,7.9-8.8c0.7-0.6,1.5-1.1,2.4-1.5c0.4-0.2,0.9-0.3,1.4-0.3
				c0.6,0,0.9,0.3,1,0.9c0.1,0.7-0.1,1.4-0.5,2.1c-0.3,0.7-0.4,0.8-1.2,0.9C379.9,249.9,379.8,249.9,379.8,249.9z M371.3,270.8
				c0,0.3,0.3,0.5,0.7,0.3c0.2-0.1,0.4-0.2,0.6-0.3c0.6-0.4,0.9-1,1.3-1.5c1.1-1.5,2-3.1,2.9-4.7c0.5-0.9,1.1-1.9,1.6-2.8
				c0.1-0.2,0.2-0.4,0-0.6c-0.2-0.2-0.4-0.2-0.6-0.2c-0.3,0.1-0.5,0.2-0.7,0.4c-0.3,0.2-0.6,0.5-0.8,0.7c-1.9,1.9-3.4,4.2-4.5,6.6
				C371.5,269.4,371.4,270,371.3,270.8z M358.7,264.1c-0.4,0.6-0.8,1.2-1.2,1.7c-0.7,1-1.2,2.1-1.6,3.3c-0.1,0.4-0.2,0.8-0.1,1.3
				c0.1,0.5,0.5,0.8,1,0.7c0.5-0.1,0.9-0.4,1.3-0.8c1.2-1.1,2.1-2.4,2.8-3.8c0-0.1,0.1-0.2,0.1-0.2
				C360.1,265.8,359.2,265.2,358.7,264.1z M362.7,262.1c0-0.1,0-0.3,0-0.4c-0.1-0.5-0.3-0.8-0.8-0.8c-0.2,0-0.4,0-0.6,0.1
				c-0.5,0.3-1,0.6-1.3,1.1c-0.8,1.3-0.1,2.8,1.4,3.3c0.1,0,0.2,0,0.2-0.1c0.1-0.2,0.3-0.5,0.4-0.7
				C362.3,263.8,362.7,263,362.7,262.1z"/>
			<path fill="#FFFFFF" d="M374,249.5c-0.7,0.7-1.3,1.5-2,2.2c0,0-0.2,0.1-0.2,0c-0.4-0.2-0.9-0.5-1.3-0.8c-1.3-0.8-2.6-1.7-3.9-2.4
				c-1-0.6-2.1-1-3.3-1.2c-0.4-0.1-0.8-0.1-1.1,0.1c-0.1,0-0.2,0.1-0.2,0.2c0.1,1.4-0.2,2.6-0.8,3.9c-0.7,1.7-1.7,3.2-3.1,4.5
				c-0.6,0.5-1.2,0.9-2,1.1c-1,0.3-1.8-0.2-2-1.3c-0.1-0.7,0.1-1.3,0.3-2c0.8-2.1,2.2-3.9,3.9-5.3c0.6-0.5,1.3-0.9,1.9-1.4
				c0,0,0.1-0.1,0.1-0.1c-0.4-0.2-0.8-0.2-1.2-0.1c-0.6,0.1-1.1,0.3-1.6,0.6c-1.9,1-3.6,2.4-5,4c-2.7,2.9-5.1,6-7,9.5
				c-1,1.9-1.8,4-2.2,6.1c-0.2,0.9-0.3,1.8-0.1,2.7c0.3,0.9,0.8,1.6,1.8,1.9c0.6,0.2,1.2,0,1.7-0.2c1-0.4,1.8-1.1,2.6-1.9
				c1.5-1.5,2.6-3.3,3.3-5.3c0.3-0.8,0.4-1.6,0.4-2.4c-0.1-0.8-0.5-1.1-1.2-0.8c-0.5,0.2-0.9,0.6-1.3,1.1c-0.7,1-1.2,2.1-1.5,3.3
				c0,0.1-0.1,0.2-0.2,0.2c-1.3,0.6-2.4,1.5-3.4,2.6c0,0-0.1,0.1-0.1,0.1c0.3-2.4,1-4.6,2.6-6.5c0.9-1.1,2-1.9,3.5-2.2
				c0.4-0.1,0.7-0.2,1.1-0.1c0.6,0.2,1,0.6,1.2,1.2c0.3,0.8,0.2,1.6,0.1,2.4c-0.3,1.9-1.2,3.5-2.2,5.1c-1.3,2-2.9,3.6-5,4.8
				c-0.9,0.5-1.8,0.8-2.8,0.8c-1.6,0.1-2.8-0.7-3.6-2c-0.7-1.2-0.9-2.5-0.8-3.8c0.1-2.1,0.9-4,1.7-5.9c2.4-5.1,5.8-9.4,10.1-13
				c1.9-1.5,4-2.7,6.3-3.4c0.8-0.2,1.7-0.3,2.6-0.1c0.4,0.1,0.7,0.3,1,0.6c0.1,0.1,0.2,0.1,0.3,0.1c0.7-0.2,1.4-0.5,2.1-0.6
				c1.7-0.4,3.4-0.1,5,0.7C370.5,247.5,372.3,248.5,374,249.5C374,249.5,374,249.5,374,249.5z M361.2,247.7
				c-0.2,0.1-0.4,0.2-0.6,0.3c-2.2,1.4-3.8,3.3-5,5.6c-0.3,0.5-0.5,1.1-0.5,1.7c-0.1,0.8,0.5,1.2,1.2,0.9c0.3-0.1,0.6-0.3,0.8-0.5
				c2.4-1.9,3.8-4.3,4.2-7.3C361.2,248.2,361.2,248,361.2,247.7z"/>
			<path fill="#FFFFFF" d="M387.6,245.7c-0.4,0.8-0.9,1.6-1.4,2.3c-1.8,2.2-4,3.9-6.7,4.8c-1.4,0.4-2.8,0.6-4.2,0.3c0,0-0.1,0-0.1,0
				c-0.1,0-0.1,0-0.2-0.1c0-0.1,0.1-0.1,0.1-0.2c0.6-0.7,1.2-1.4,1.8-2.1c0.1-0.1,0.2-0.1,0.3-0.1c1.7,0.1,3.2-0.1,4.8-0.8
				C384,248.9,385.9,247.5,387.6,245.7C387.6,245.8,387.6,245.8,387.6,245.7z"/>
		</g>
	</g>
	<polygon fill="#4C0F18" points="297.8,219.4 303.6,239.7 308.3,239.7 302.3,219.4 	"/>
	<polygon fill="#4C0F18" points="427.7,219.4 421.9,239.7 417.2,239.7 423.2,219.4 	"/>
	<path fill="#FFFFFF" d="M326.6,252.7c-0.5,0.4-1,0.7-1.5,1.1c-0.5,0.4-1.1,0.8-1.6,1.2c-0.1,0.1-0.3,0.1-0.4,0.1
		c-1.8,0-3.6,0-5.4,0c0,0-0.1,0-0.1,0c0,0,0.1-0.1,0.1-0.1c1-0.7,2-1.4,2.9-2.2c0.1-0.1,0.3-0.1,0.4-0.1
		C322.9,252.7,324.7,252.7,326.6,252.7z"/>
</g>
</svg>
