<?xml version="1.0" encoding="utf-8"?>
<!-- Generator: Adobe Illustrator 18.1.1, SVG Export Plug-In . SVG Version: 6.00 Build 0)  -->
<svg version="1.1" id="Layer_1" xmlns="http://www.w3.org/2000/svg" xmlns:xlink="http://www.w3.org/1999/xlink" x="0px" y="0px"
	 viewBox="0 0 800 550" enable-background="new 0 0 800 550" xml:space="preserve">
<g>
	<polygon fill="#FFFFFF" points="498.8,287.5 190.5,287.5 190.5,151.6 493.5,151.6 	"/>
	<path fill="#BCBEC0" d="M556.8,229.4h28.1c0,0,27.1,1.9,22.4,47.8l-53.6,8.7L556.8,229.4z"/>
	<path fill="#D1D3D4" d="M498.8,293.5l-4-110.7c0,0,25.7-3.5,32.2,6.2l29.7,40.4V279v14.5"/>
	<rect x="498.8" y="293.5" fill="#E6E7E8" width="31.2" height="41.7"/>
	<g>
		<circle fill="#020202" cx="574.1" cy="331.7" r="33.1"/>
		<circle fill="#808285" cx="574.1" cy="331.7" r="23.6"/>
		<circle fill="#58595B" cx="574.1" cy="331.7" r="20.5"/>
		<circle fill="#414042" cx="574.1" cy="331.7" r="12.2"/>
		<circle fill="#BCBEC0" cx="574.1" cy="331.7" r="9.5"/>
		<circle fill="#231F20" cx="574.2" cy="315.6" r="2.8"/>
		<circle fill="#231F20" cx="574.2" cy="347.8" r="2.8"/>
		<circle fill="#231F20" cx="590.3" cy="330.5" r="2.8"/>
		<circle fill="#231F20" cx="558.1" cy="330.5" r="2.8"/>
		<circle fill="#231F20" cx="584.8" cy="320.3" r="2.8"/>
		<circle fill="#231F20" cx="562" cy="343.1" r="2.8"/>
		<circle fill="#231F20" cx="562.8" cy="320.3" r="2.8"/>
		<circle fill="#231F20" cx="585.6" cy="343.1" r="2.8"/>
	</g>
	<path fill="#FFFFFF" d="M537.9,335.3c0,0-0.1-39.7,36.2-39.7s35.3,35,35.3,35s2.7,1.5,3.7-2.8v-42.3c0,0-3-9.4-13-12
		c-10-2.7-57.1-11.4-71.8,21.4c-14.7,32.7-9,40.4-9,40.4H537.9z"/>
	<rect x="613" y="298.6" fill="#808285" width="7.5" height="29.2"/>
	<polygon fill="#414042" points="502.3,192.9 502.3,193.5 502.3,227.2 547.5,227.2 524.9,192.9 	"/>
	<path fill="#808285" d="M516.1,232.5c0,0.7-0.6,1.3-1.3,1.3h-11.1c-0.7,0-1.3-0.6-1.3-1.3l0,0c0-0.7,0.6-1.3,1.3-1.3h11.1
		C515.5,231.2,516.1,231.8,516.1,232.5L516.1,232.5z"/>
	<g id="KRyJ1s.tif_16_">
		<g>
			<path fill="#9F2223" d="M516.5,244.2c0.1,0,0.2,0.1,0.4,0.1c0.3,0.2,0.4,0.4,0.4,0.7c0,0.3,0,0.6-0.2,0.8
				c-0.1,0.2-0.2,0.4-0.3,0.5c-0.1,0.2-0.3,0.3-0.5,0.3c-0.2,0-0.3-0.1-0.4-0.3c0-0.2,0-0.3,0.1-0.5c0.1-0.2,0.3-0.5,0.6-0.5
				c0.1,0,0.1,0,0.2,0c0.1,0,0.1,0,0.1-0.1c0.1-0.3-0.1-0.5-0.4-0.5c-0.2,0-0.3,0-0.5,0.1c-0.6,0.2-1.1,0.6-1.6,1
				c-1.5,1.4-2.7,3-3.6,4.9c-0.3,0.7-0.5,1.4-0.6,2.1c-0.1,0.5-0.1,1,0,1.5c0.2,0.6,0.5,1.1,1.1,1.3c0.5,0.2,1,0.3,1.5,0.2
				c0.8-0.1,1.6-0.3,2.5-0.5c0.9-0.2,1.9-0.5,2.8-0.7c0.9-0.2,1.8-0.3,2.7-0.2c1,0.1,2,0.4,2.8,1c0.5,0.3,0.9,0.7,1.4,1.1
				c0.1,0.1,0.1,0.2,0.2,0.2c0,0-0.1,0-0.1,0c-0.8-0.5-1.8-0.8-2.8-0.8c-0.4,0-0.8,0.1-1.2,0.3c-0.2,0.1-0.3,0.3-0.5,0.5
				c0,0,0,0,0,0c-0.4-0.7-1-1-1.7-1.2c-0.5-0.1-1-0.1-1.5-0.1c-0.9,0.1-1.8,0.3-2.7,0.5c-0.8,0.2-1.6,0.4-2.5,0.5
				c-0.7,0.1-1.3,0.1-1.9-0.1c-1-0.3-1.6-1-1.8-2c0-0.2-0.1-0.4-0.1-0.6c0,0,0-0.1,0-0.1c0-0.2,0-0.3,0-0.5c0-0.1,0-0.3,0-0.4
				c0.1-0.8,0.3-1.5,0.6-2.2c0.6-1.4,1.5-2.7,2.6-3.8c0.7-0.7,1.5-1.4,2.3-1.8c0.5-0.3,1-0.5,1.5-0.6c0.2,0,0.4-0.1,0.5-0.1
				C516.2,244.2,516.3,244.2,516.5,244.2z"/>
			<path fill="#9F2223" d="M543.6,246c0.1-0.2,0.2-0.4,0.3-0.5c0.1-0.2,0.2-0.4,0.2-0.6c0-0.1-0.1-0.2-0.2-0.1
				c-0.1,0.1-0.3,0.1-0.4,0.2c-0.5,0.4-0.9,0.8-1.4,1.3c-0.9,1-1.6,2.1-2.3,3.2c-0.4,0.7-0.8,1.4-1.2,2.1c0,0.1-0.1,0.1-0.1,0.2
				c0,0,0.1,0,0.1-0.1c0.3-0.2,0.5-0.4,0.8-0.6c1.1-1,2.1-2.1,3-3.2c0.1-0.1,0.2-0.2,0.3-0.2c0.1,0,0.1,0,0.2,0
				c-0.1,0.1-0.1,0.1-0.1,0.2c-0.6,0.8-1.2,1.6-1.9,2.3c-0.8,0.9-1.8,1.7-2.8,2.4c0,0-0.1,0-0.1,0.1c-0.3,0.7-0.6,1.4-0.7,2.1
				c0,0.1,0,0.3,0,0.4c0,0.2,0.2,0.3,0.4,0.2c0.2-0.1,0.4-0.3,0.5-0.5c0.3-0.4,0.5-0.7,0.8-1.1c0.4-0.6,0.8-1.3,1.3-1.9
				c0.5-0.5,1-1,1.6-1.4c0.3-0.2,0.5-0.2,0.9-0.2c0.2,0,0.3,0.2,0.4,0.3c0,0,0.1,0.1,0.1,0.1c0.1-0.1,0.1-0.2,0.2-0.3
				c0,0,0.1-0.1,0.1-0.1c0.4,0,0.8,0,1.1,0c0,0,0,0,0,0c0,0,0,0.1,0,0.1c-0.6,1-1.1,2-1.7,3.1c-0.2,0.4-0.5,0.8-0.7,1.2
				c-0.1,0.1-0.1,0.2-0.1,0.3c0,0.1,0,0.2,0,0.2c0.1,0.1,0.2,0,0.2,0c0.3-0.2,0.6-0.5,0.8-0.8c0.3-0.4,0.5-0.7,0.8-1.1
				c0-0.1,0.1-0.1,0.1-0.1c0.1,0,0.2,0,0.3,0c0,0.1-0.1,0.1-0.1,0.2c-0.5,0.7-1,1.4-1.6,2.1c-0.3,0.4-0.7,0.7-1.2,0.9
				c-0.1,0-0.3,0.1-0.4,0.1c-0.2,0-0.4-0.1-0.5-0.4c0-0.2,0-0.3,0-0.5c0,0,0-0.1,0-0.1c0,0,0,0,0,0c-0.1,0.1-0.1,0.1-0.2,0.2
				c-0.3,0.3-0.6,0.5-0.9,0.7c-0.2,0.1-0.4,0.1-0.5,0.1c-0.3-0.1-0.5-0.3-0.6-0.7c0-0.1,0-0.3,0-0.4c0,0,0-0.1,0-0.1
				c0,0-0.1,0.1-0.1,0.1c-0.3,0.3-0.6,0.6-0.9,0.9c-0.1,0.1-0.3,0.2-0.5,0.2c-0.4,0.1-0.7,0-0.9-0.4c-0.1-0.2-0.1-0.4-0.1-0.6
				c0-0.5,0.2-1,0.3-1.4c0.1-0.3,0.2-0.6,0.3-0.9c-0.1,0-0.1,0-0.1,0c-0.2,0-0.3,0-0.5,0.1c-0.1,0-0.1,0-0.1,0.1
				c-0.3,0.5-0.6,0.9-0.9,1.4c-0.4,0.6-1,1.1-1.6,1.5c-0.2,0.1-0.4,0.2-0.7,0.2c-0.5,0-0.7-0.3-0.8-0.6c-0.1-0.3,0-0.7,0-1
				c0.2-0.7,0.5-1.4,0.9-2c0.4-0.7,0.9-1.3,1.5-1.8c0.4-0.3,0.8-0.6,1.2-0.7c0.2-0.1,0.3-0.1,0.5-0.1c0.4,0,0.5,0.3,0.6,0.5
				c0.1,0.4,0,0.7-0.1,1.1c-0.1,0.3-0.2,0.6-0.3,0.9c0,0,0,0.1,0,0.1c0.2,0,0.5,0,0.7-0.1c0,0,0-0.1,0.1-0.1
				c0.6-1.3,1.3-2.5,2.1-3.7c1-1.4,2.1-2.7,3.5-3.8c0.3-0.3,0.7-0.5,1-0.7c0.2-0.1,0.4-0.1,0.6-0.1c0.3,0,0.4,0.2,0.4,0.4
				c0,0.3-0.1,0.6-0.2,0.9C544,246,544,246,543.6,246C543.7,246,543.6,246,543.6,246z M539.9,255.1c0,0.1,0.1,0.2,0.3,0.2
				c0.1,0,0.2-0.1,0.2-0.1c0.2-0.2,0.4-0.4,0.6-0.7c0.5-0.7,0.9-1.3,1.2-2c0.2-0.4,0.5-0.8,0.7-1.2c0.1-0.1,0.1-0.2,0-0.3
				c-0.1-0.1-0.2-0.1-0.3-0.1c-0.1,0-0.2,0.1-0.3,0.2c-0.1,0.1-0.2,0.2-0.4,0.3c-0.8,0.8-1.5,1.8-2,2.9
				C540,254.5,539.9,254.8,539.9,255.1z M534.4,252.2c-0.2,0.3-0.4,0.5-0.5,0.8c-0.3,0.5-0.5,0.9-0.7,1.4c-0.1,0.2-0.1,0.4-0.1,0.6
				c0,0.2,0.2,0.4,0.5,0.3c0.2-0.1,0.4-0.2,0.6-0.3c0.5-0.5,0.9-1.1,1.2-1.7c0,0,0-0.1,0-0.1C535,253,534.7,252.7,534.4,252.2z
				 M536.2,251.3c0-0.1,0-0.1,0-0.2c0-0.2-0.1-0.4-0.3-0.4c-0.1,0-0.2,0-0.3,0.1c-0.2,0.1-0.4,0.3-0.6,0.5c-0.4,0.6,0,1.2,0.6,1.4
				c0,0,0.1,0,0.1,0c0.1-0.1,0.1-0.2,0.2-0.3C536,252.1,536.2,251.7,536.2,251.3z"/>
			<path fill="#9F2223" d="M517.1,249.6c0.1,0,0.1,0,0.2,0c0.2-0.1,0.4-0.2,0.5-0.3c0.4-0.2,0.7-0.5,1-0.8c0.3-0.3,0.6-0.6,1-0.9
				c0.3-0.2,0.7-0.3,1.1-0.3c0.5,0,0.9,0.4,0.8,0.9c-0.1,0.4-0.2,0.8-0.5,1.1c-0.1,0.1-0.2,0.2-0.3,0.3c-0.2,0.1-0.4-0.1-0.4-0.3
				c0-0.4,0.4-0.9,0.8-0.9c0,0,0.1,0,0.1,0c0.1-0.2,0-0.4-0.2-0.4c-0.2,0-0.4,0.1-0.6,0.2c-0.3,0.3-0.6,0.5-0.9,0.9
				c-0.6,0.7-1.1,1.6-1.4,2.5c-0.1,0.2-0.1,0.5-0.1,0.7c0.1,0.4,0.3,0.6,0.7,0.5c0.3-0.1,0.6-0.3,0.8-0.5c0.5-0.5,1-1,1.4-1.6
				c0.4-0.5,0.8-1.1,1.2-1.6c0.4-0.5,0.8-0.9,1.4-1.3c0.2-0.2,0.5-0.3,0.8-0.4c0.3-0.1,0.6,0,0.8,0.3c0,0,0,0,0,0.1c0,0,0,0,0,0
				c0.1-0.2,0.2-0.2,0.4-0.2c0.3,0,0.6,0,0.9,0c0,0,0.1,0,0.1,0c0,0.1-0.1,0.1-0.1,0.1c-0.8,1.4-1.6,2.9-2.5,4.3
				c0,0.1-0.1,0.2-0.1,0.3c0,0.1,0.1,0.2,0.2,0.1c0.1,0,0.2-0.1,0.3-0.1c0.3-0.2,0.6-0.5,0.8-0.8c0.2-0.3,0.4-0.5,0.6-0.8
				c0.1-0.1,0.1-0.1,0.2-0.1c0.1,0,0.2,0,0.3,0c0,0,0,0,0,0.1c-0.5,0.7-1,1.5-1.7,2.1c-0.3,0.3-0.7,0.6-1.1,0.8
				c-0.2,0.1-0.4,0.1-0.6,0.1c-0.2,0-0.4-0.2-0.4-0.5c0-0.1,0-0.3,0-0.5c0,0,0,0.1-0.1,0.1c-0.2,0.2-0.5,0.5-0.7,0.6
				c-0.2,0.1-0.4,0.2-0.6,0.2c-0.5,0-0.8-0.2-0.8-0.7c0-0.3,0.1-0.5,0.1-0.8c0,0,0-0.1,0-0.1c0,0-0.1,0.1-0.1,0.1
				c-0.4,0.3-0.7,0.7-1.1,1c-0.3,0.3-0.7,0.4-1.1,0.5c-0.2,0-0.4,0-0.6,0c-0.4-0.2-0.6-0.5-0.7-0.9c-0.1-0.6,0-1.1,0.3-1.6
				c0.1-0.3,0.3-0.6,0.4-0.9c0,0,0-0.1,0.1-0.1c-0.2,0-0.3,0.1-0.4,0.1c-0.1,0-0.2,0.1-0.3,0.2c-0.3,0.5-0.6,1-0.9,1.4
				c-0.4,0.6-1,1.1-1.6,1.5c-0.3,0.2-0.5,0.3-0.8,0.3c-0.3,0-0.7-0.2-0.8-0.5c-0.1-0.3-0.1-0.5-0.1-0.8c0.1-0.8,0.4-1.6,0.9-2.3
				c0.5-0.8,1.2-1.6,2-2.2c0.3-0.2,0.7-0.4,1.1-0.5c0.6-0.1,1,0.2,1,0.8c0,0.3-0.1,0.7-0.2,1C517.2,249.2,517.1,249.4,517.1,249.6z
				 M521.7,252c0,0.1,0,0.2,0.1,0.2c0.1,0,0.2,0,0.3,0c0.2-0.1,0.4-0.3,0.5-0.5c0.2-0.3,0.4-0.5,0.6-0.8c0.6-1,1.1-1.9,1.7-2.9
				c0.1-0.1,0-0.2-0.1-0.2c-0.1,0-0.2,0-0.3,0c-0.2,0.1-0.4,0.2-0.5,0.4c-0.4,0.5-0.8,1-1.2,1.5c-0.4,0.6-0.8,1.2-1,1.8
				C521.8,251.7,521.8,251.8,521.7,252z M515.3,249.1C515.3,249.2,515.2,249.2,515.3,249.1c-0.2,0.4-0.4,0.6-0.6,0.9
				c-0.3,0.4-0.5,0.9-0.6,1.4c0,0.1,0,0.3,0,0.4c0,0.3,0.2,0.4,0.5,0.3c0.1,0,0.1,0,0.2-0.1c0.2-0.1,0.4-0.3,0.6-0.5
				c0.4-0.4,0.7-1,1-1.5c0,0,0-0.1,0-0.1C515.9,249.8,515.5,249.6,515.3,249.1z M517,248.3c0,0,0-0.1,0-0.1
				c-0.1-0.3-0.2-0.5-0.6-0.4c-0.1,0-0.1,0-0.2,0.1c-0.2,0.2-0.4,0.4-0.5,0.7c-0.1,0.2-0.1,0.5,0.1,0.7c0.2,0.2,0.4,0.3,0.7,0.4
				c0.1,0,0.1,0,0.1-0.1c0.1-0.2,0.1-0.3,0.2-0.5C517,248.8,517,248.6,517,248.3z"/>
			<path fill="#9F2223" d="M541.1,245.9c-0.3,0.3-0.6,0.6-0.9,0.9c0,0-0.1,0-0.1,0c-0.2-0.1-0.4-0.2-0.6-0.3
				c-0.6-0.4-1.1-0.7-1.7-1.1c-0.4-0.3-0.9-0.4-1.4-0.5c-0.2,0-0.3,0-0.5,0c0,0-0.1,0-0.1,0.1c0,0.6-0.1,1.1-0.3,1.7
				c-0.3,0.7-0.8,1.4-1.4,1.9c-0.2,0.2-0.5,0.4-0.9,0.5c-0.4,0.1-0.8-0.1-0.9-0.6c0-0.3,0-0.6,0.1-0.9c0.4-0.9,1-1.7,1.7-2.3
				c0.3-0.2,0.6-0.4,0.8-0.6c0,0,0,0,0.1,0c-0.2-0.1-0.3-0.1-0.5-0.1c-0.2,0-0.5,0.1-0.7,0.3c-0.8,0.4-1.5,1-2.2,1.7
				c-1.2,1.3-2.2,2.6-3,4.2c-0.4,0.8-0.8,1.7-1,2.7c-0.1,0.4-0.1,0.8,0,1.2c0.1,0.4,0.3,0.7,0.8,0.8c0.3,0.1,0.5,0,0.8-0.1
				c0.4-0.2,0.8-0.5,1.1-0.8c0.6-0.7,1.1-1.4,1.4-2.3c0.1-0.3,0.2-0.7,0.2-1c0-0.3-0.2-0.5-0.5-0.3c-0.2,0.1-0.4,0.3-0.5,0.5
				c-0.3,0.4-0.5,0.9-0.6,1.4c0,0,0,0.1-0.1,0.1c-0.6,0.3-1.1,0.7-1.5,1.1c0,0,0,0-0.1,0.1c0.1-1,0.4-2,1.1-2.8
				c0.4-0.5,0.9-0.8,1.5-1c0.2,0,0.3-0.1,0.5,0c0.3,0.1,0.4,0.2,0.5,0.5c0.1,0.3,0.1,0.7,0,1c-0.1,0.8-0.5,1.5-1,2.2
				c-0.6,0.9-1.3,1.6-2.2,2.1c-0.4,0.2-0.8,0.3-1.2,0.4c-0.7,0-1.2-0.3-1.6-0.9c-0.3-0.5-0.4-1.1-0.3-1.6c0.1-0.9,0.4-1.8,0.8-2.6
				c1.1-2.2,2.5-4.1,4.4-5.6c0.8-0.7,1.7-1.2,2.7-1.5c0.4-0.1,0.7-0.1,1.1,0c0.2,0,0.3,0.1,0.4,0.2c0,0,0.1,0,0.1,0
				c0.3-0.1,0.6-0.2,0.9-0.3c0.8-0.2,1.5,0,2.2,0.3C539.6,245,540.3,245.4,541.1,245.9C541.1,245.9,541.1,245.9,541.1,245.9z
				 M535.5,245.1c-0.1,0.1-0.2,0.1-0.3,0.1c-1,0.6-1.7,1.4-2.2,2.4c-0.1,0.2-0.2,0.5-0.2,0.7c0,0.3,0.2,0.5,0.5,0.4
				c0.1-0.1,0.2-0.1,0.3-0.2c1-0.8,1.7-1.9,1.8-3.2C535.5,245.3,535.5,245.2,535.5,245.1z"/>
			<path fill="#9F2223" d="M547,244.2c-0.2,0.4-0.4,0.7-0.6,1c-0.8,1-1.7,1.7-2.9,2.1c-0.6,0.2-1.2,0.3-1.8,0.1c0,0,0,0,0,0
				c0,0-0.1,0-0.1,0c0,0,0-0.1,0.1-0.1c0.3-0.3,0.5-0.6,0.8-0.9c0,0,0.1-0.1,0.1-0.1c0.7,0.1,1.4-0.1,2.1-0.3
				C545.4,245.6,546.3,245,547,244.2C547,244.3,547,244.2,547,244.2z"/>
			<path fill="#9F2223" d="M528.6,247.4c-0.1,0.2-0.2,0.3-0.3,0.5c-0.1,0.2-0.2,0.3-0.3,0.5c0,0-0.1,0.1-0.1,0.1c-0.4,0-0.7,0-1.1,0
				c0,0,0,0,0,0c0,0,0,0,0,0c0.2-0.3,0.4-0.6,0.6-0.9c0,0,0.1-0.1,0.1-0.1C527.8,247.4,528.2,247.4,528.6,247.4z"/>
		</g>
	</g>
	<path fill="#808285" stroke="#BCBEC0" stroke-miterlimit="10" d="M590.3,259.2c0,2.1-1.7,3.8-3.8,3.8h-20.7c-2.1,0-3.8-1.7-3.8-3.8
		l0,0c0-2.1,1.7-3.8,3.8-3.8h20.7C588.6,255.4,590.3,257.1,590.3,259.2L590.3,259.2z"/>
	<path fill="#808285" stroke="#BCBEC0" stroke-miterlimit="10" d="M588.4,259.2c0,0.9-0.7,1.6-1.6,1.6h-19.7c-0.9,0-1.6-0.7-1.6-1.6
		l0,0c0-0.9,0.7-1.6,1.6-1.6h19.7C587.7,257.7,588.4,258.4,588.4,259.2L588.4,259.2z"/>
	<rect x="360.2" y="295.5" fill="#939598" width="138.6" height="39.7"/>
	<g>
		<circle fill="#020202" cx="324.2" cy="331.9" r="33.1"/>
		<circle fill="#808285" cx="324.2" cy="331.9" r="23.6"/>
		<circle fill="#58595B" cx="324.2" cy="331.9" r="20.5"/>
		<circle fill="#414042" cx="324.2" cy="331.9" r="12.2"/>
		<circle fill="#BCBEC0" cx="324.2" cy="331.9" r="9.5"/>
		<circle fill="#231F20" cx="324.3" cy="315.8" r="2.8"/>
		<circle fill="#231F20" cx="324.3" cy="348" r="2.8"/>
		<circle fill="#231F20" cx="340.4" cy="330.7" r="2.8"/>
		<circle fill="#231F20" cx="308.2" cy="330.7" r="2.8"/>
		<circle fill="#231F20" cx="334.9" cy="320.4" r="2.8"/>
		<circle fill="#231F20" cx="312.1" cy="343.2" r="2.8"/>
		<circle fill="#231F20" cx="312.9" cy="320.4" r="2.8"/>
		<circle fill="#231F20" cx="335.7" cy="343.2" r="2.8"/>
	</g>
	<path fill="#BCBEC0" d="M360.2,335.3c0,0,0.4-31.6-25.3-39.7h25.3V335.3z"/>
	<path fill="#BCBEC0" d="M284,335.3c0,0-0.4-31.6,25.3-39.7H284V335.3z"/>
	<rect x="198.7" y="295.5" fill="#939598" width="85.3" height="39.7"/>
	<rect x="198.7" y="311.4" fill="#BCBEC0" width="85.3" height="3"/>
	<rect x="198.7" y="331.9" fill="#E6E7E8" width="303.5" height="3.4"/>
	<rect x="198.7" y="287.5" fill="#D1D3D4" width="300.1" height="8"/>
	<rect x="175.5" y="286" fill="#939598" width="23.2" height="54.4"/>
	<polygon fill="#9F2223" points="488,287.5 198.7,287.5 198.7,158.6 482.7,158.6 	"/>
	<g id="KRyJ1s.tif_15_">
		<g>
			<path fill="#FFFFFF" d="M272.6,182.4c0.8,0.3,1.6,0.6,2.3,1c1.8,1,2.7,2.6,2.9,4.6c0.2,1.9-0.2,3.7-1.1,5.4
				c-0.6,1.2-1.3,2.3-2.1,3.4c-0.8,1.1-1.9,1.7-3.3,1.9c-1.3,0.2-2.2-0.6-2.4-1.9c-0.1-1,0-2,0.5-2.9c0.8-1.6,1.8-3,3.7-3.5
				c0.4-0.1,0.7-0.2,1.1-0.2c0.5,0,0.7-0.2,0.8-0.7c0.5-1.8-0.6-3.4-2.6-3.3c-1,0-2,0.2-3,0.5c-4,1.3-7.4,3.6-10.4,6.5
				c-9.7,9-17.6,19.4-23,31.6c-1.9,4.3-3.4,8.7-4.1,13.3c-0.5,3.2-0.6,6.5,0.2,9.7c1,4.1,3.4,6.8,7.3,8.4c3.1,1.3,6.3,1.8,9.6,1.5
				c5.4-0.4,10.6-1.9,15.9-3.1c6-1.4,12-3,18-4.3c5.7-1.3,11.4-1.9,17.2-1.6c6.7,0.3,12.8,2.3,18.3,6.3c3.1,2.2,6.1,4.4,8.8,7.2
				c0.5,0.5,0.9,1,1.2,1.6c-0.2-0.1-0.3-0.2-0.5-0.3c-5.4-3.5-11.3-5.5-17.9-5.4c-2.8,0-5.5,0.5-7.7,2.2c-1.1,0.9-2.1,2-3.2,3
				c0.1,0.1,0,0,0,0c-2.4-4.2-6.2-6.6-10.8-7.7c-3.3-0.8-6.6-0.9-10-0.7c-5.9,0.4-11.5,1.9-17.2,3.3c-5.3,1.3-10.6,2.5-15.9,3.5
				c-4.2,0.8-8.4,0.8-12.5-0.7c-6.2-2.3-10-6.6-11.4-13.1c-0.3-1.2-0.4-2.5-0.5-3.8c0-0.2-0.1-0.4-0.1-0.5c0-1.1,0-2.2,0-3.4
				c0.1-0.9,0.2-1.8,0.3-2.7c0.6-5,2-9.8,4-14.4c4-9.2,9.6-17.2,16.7-24.2c4.6-4.6,9.4-8.8,15.1-11.9c3.2-1.7,6.4-3.3,9.9-4
				c1.1-0.2,2.3-0.4,3.4-0.6C271.1,182.4,271.9,182.4,272.6,182.4z"/>
			<path fill="#FFFFFF" d="M447.8,194.5c0.6-1.2,1.1-2.3,1.6-3.4c0.6-1.1,1-2.3,1-3.6c0-1-0.4-1.3-1.3-0.9c-0.8,0.4-1.7,0.8-2.4,1.3
				c-3.2,2.5-6.1,5.3-8.7,8.3c-5.6,6.3-10.3,13.3-14.7,20.5c-2.7,4.5-5.2,9.2-7.8,13.8c-0.2,0.4-0.4,0.9-0.5,1.5
				c0.3-0.2,0.6-0.3,0.9-0.5c1.7-1.3,3.4-2.6,5-4.1c7.1-6.4,13.6-13.3,19.4-21c0.6-0.7,1.1-1.3,2.1-1.2c0.4,0,0.9-0.1,1.4-0.1
				c-0.3,0.5-0.6,1-0.9,1.4c-3.8,5.3-8.1,10.2-12.5,14.9c-5.4,5.7-11.3,11-17.8,15.5c-0.2,0.1-0.4,0.3-0.4,0.5
				c-2,4.3-3.8,8.7-4.7,13.4c-0.2,0.9-0.2,1.9,0,2.8c0.2,1.4,1.5,1.9,2.6,1.1c1.2-0.9,2.3-2,3.3-3.1c1.8-2.3,3.4-4.7,5-7.2
				c2.7-4.2,5.4-8.3,8.6-12.1c2.9-3.5,6.1-6.7,10.1-9c1.7-1,3.5-1.5,5.6-1.1c1.3,0.2,2,1.1,2.8,2.1c0.2,0.2,0.3,0.5,0.6,0.7
				c0.3-0.6,0.6-1.1,1-1.6c0.1-0.2,0.4-0.4,0.6-0.4c2.4,0,4.9,0,7.3,0c0.1,0,0.1,0,0.2,0.1c-0.1,0.2-0.2,0.4-0.3,0.6
				c-3.7,6.6-7.4,13.1-11.1,19.7c-1.4,2.5-2.9,5.1-4.4,7.6c-0.4,0.7-0.6,1.4-0.9,2.2c-0.2,0.5-0.3,1,0.2,1.4c0.5,0.4,1,0.2,1.4-0.1
				c2.1-1.3,4-3,5.5-5c1.8-2.4,3.5-4.8,5.3-7.3c0.2-0.3,0.5-0.5,0.9-0.5c0.6,0,1.3,0,2,0c-0.3,0.5-0.5,0.9-0.8,1.3
				c-3,4.8-6.4,9.3-10.3,13.3c-2.3,2.3-4.8,4.2-7.8,5.5c-0.8,0.3-1.6,0.5-2.5,0.5c-1.6,0-2.7-0.8-3-2.3c-0.2-1-0.2-2.2-0.2-3.3
				c0-0.2,0.1-0.4,0.1-0.6c0,0-0.1-0.1-0.1-0.1c-0.4,0.4-0.8,0.9-1.3,1.3c-1.8,1.7-3.7,3.3-6,4.4c-1.1,0.5-2.3,0.8-3.5,0.6
				c-2.1-0.3-3.5-1.8-3.7-4.2c-0.1-0.9,0-1.9,0-2.9c0-0.3,0-0.5,0-1c-0.3,0.3-0.4,0.5-0.6,0.7c-1.7,2.1-3.6,4.1-5.8,5.6
				c-1,0.6-2,1.2-3.1,1.6c-2.4,0.8-4.5-0.1-5.7-2.3c-0.7-1.3-0.9-2.7-0.8-4.1c0.1-3.2,1-6.2,2-9.2c0.6-1.8,1.2-3.7,1.8-5.6
				c-0.4,0.1-0.6,0.1-0.9,0.1c-1,0.1-1.9,0.3-2.9,0.3c-0.5,0-0.7,0.3-1,0.6c-1.9,3-3.8,6.1-5.9,9c-2.8,3.9-6.2,7.4-10.5,9.8
				c-1.4,0.8-2.9,1.4-4.5,1.6c-3.1,0.3-4.7-1.8-5.2-3.9c-0.5-2.2-0.3-4.4,0.2-6.5c1.1-4.7,3.1-8.9,5.7-12.9
				c2.8-4.3,5.9-8.4,9.8-11.8c2.3-2,4.9-3.7,7.9-4.7c1.1-0.4,2.3-0.5,3.4-0.4c2.3,0.2,3.4,1.9,3.8,3.5c0.5,2.4,0.2,4.8-0.6,7.1
				c-0.6,1.9-1.4,3.7-2.2,5.5c-0.1,0.2-0.2,0.4-0.3,0.7c1.6,0.1,2.9-0.3,4.2-0.9c0.2-0.1,0.3-0.4,0.4-0.6c4-8.2,8.4-16.2,13.5-23.7
				c6.3-9.3,13.6-17.7,22.3-24.8c2.1-1.7,4.3-3.2,6.7-4.3c1.2-0.6,2.5-0.9,3.9-0.8c1.7,0.1,2.5,1,2.7,2.7c0.2,2.1-0.4,4-1.3,5.9
				c-1,2.1-1.1,2.1-3.3,2.5C448.1,194.5,448,194.5,447.8,194.5z M424.1,253.3c0,0.7,0.9,1.4,2.1,1c0.6-0.2,1.1-0.6,1.6-0.9
				c1.6-1.1,2.6-2.7,3.7-4.3c3-4.2,5.5-8.7,8.1-13.2c1.5-2.6,3-5.2,4.5-7.8c0.3-0.6,0.5-1.1,0.1-1.7c-0.4-0.6-1.1-0.7-1.6-0.5
				c-0.7,0.3-1.5,0.6-2.1,1.1c-0.8,0.6-1.6,1.3-2.3,2.1c-5.3,5.4-9.4,11.7-12.7,18.6C424.7,249.3,424.2,251,424.1,253.3z
				 M388.6,234.5c-1.2,1.7-2.3,3.3-3.3,4.9c-1.8,2.9-3.5,6-4.4,9.3c-0.3,1.2-0.5,2.3-0.3,3.6c0.2,1.5,1.4,2.3,2.9,2
				c1.5-0.3,2.6-1.2,3.6-2.2c3.3-3.1,5.8-6.8,7.8-10.8c0.1-0.2,0.2-0.4,0.3-0.7C392.4,239.2,390.1,237.5,388.6,234.5z M399.8,228.7
				c0-0.4,0-0.7,0-1.1c-0.2-1.5-1-2.4-2.2-2.3c-0.5,0-1.1,0.1-1.6,0.4c-1.4,0.7-2.7,1.7-3.6,3.1c-2.4,3.7-0.2,7.9,3.8,9.3
				c0.2,0.1,0.5-0.1,0.6-0.3c0.4-0.7,0.8-1.4,1.1-2.1C398.8,233.5,399.8,231.3,399.8,228.7z"/>
			<path fill="#FFFFFF" d="M276.6,217.4c0.5-0.1,0.9-0.1,1.2-0.3c1.2-0.6,2.4-1.2,3.5-1.9c2.3-1.5,4.3-3.4,6.2-5.5
				c2-2.1,4.1-4,6.6-5.5c2.1-1.4,4.3-2.3,6.9-2.1c3.3,0.2,5.5,2.8,5,6.1c-0.4,2.6-1.4,4.9-3.2,6.8c-0.6,0.7-1.4,1.3-2.2,1.6
				c-1.4,0.6-2.8-0.3-2.9-1.9c-0.1-2.7,2.4-5.6,5.2-5.8c0.2,0,0.4-0.1,0.5-0.3c0.5-1,0.2-2.7-1.5-2.7c-1.4,0-2.6,0.6-3.7,1.5
				c-2.1,1.6-3.9,3.5-5.6,5.6c-3.9,4.8-6.8,10.2-8.9,16c-0.5,1.4-0.7,2.9-0.5,4.5c0.4,2.4,2.1,3.6,4.5,2.9c2.1-0.6,3.7-1.8,5.3-3.2
				c3.4-3.1,6.3-6.5,9-10.2c2.5-3.4,5-6.9,7.6-10.2c2.5-3.2,5.4-6.1,8.7-8.4c1.6-1.1,3.2-2,5.1-2.4c2.1-0.4,3.8,0.3,5.1,2
				c0.1,0.1,0.2,0.2,0.3,0.3c0.1-0.1,0.2-0.1,0.2-0.2c0.4-1.1,1.2-1.3,2.3-1.2c1.8,0.1,3.7,0,5.5,0c0.2,0,0.4,0,0.7,0
				c-0.2,0.4-0.4,0.7-0.5,0.9c-5.3,9.2-10.6,18.4-15.9,27.6c-0.3,0.5-0.5,1.1-0.6,1.7c-0.1,0.8,0.5,1.3,1.3,0.9
				c0.6-0.2,1.2-0.6,1.7-0.9c2-1.4,3.6-3.2,5.1-5.1c1.4-1.7,2.8-3.5,4.1-5.3c0.3-0.5,0.7-0.6,1.2-0.6c0.6,0,1.1,0,1.8,0
				c-0.1,0.2-0.1,0.3-0.2,0.3c-3.3,4.8-6.7,9.5-10.9,13.6c-2.1,2-4.3,4-7,5.3c-1.2,0.6-2.5,0.9-3.8,0.6c-1.3-0.3-2.4-1.5-2.5-3
				c-0.1-1,0-1.9-0.1-3c-0.1,0.2-0.2,0.4-0.4,0.5c-1.4,1.6-3,3-4.8,4.1c-1.2,0.8-2.5,1.3-4,1.5c-2.9,0.3-5-1.5-5.1-4.4
				c-0.1-1.7,0.4-3.4,0.8-5.1c0.1-0.2,0.1-0.4,0-0.7c-0.2,0.2-0.4,0.4-0.6,0.5c-2.4,2.1-4.7,4.4-7.2,6.4c-2,1.7-4.4,2.8-7.1,3.2
				c-1.4,0.2-2.7,0.3-4.1-0.2c-2.8-1-4-3.2-4.6-5.9c-0.8-3.7,0.2-7.1,1.7-10.4c0.9-1.9,1.9-3.8,2.8-5.8c0.1-0.2,0.2-0.4,0.4-0.7
				c-1,0.3-1.9,0.5-2.9,0.7c-0.8,0.1-1.3,0.6-1.7,1.3c-1.9,3-3.7,6.1-5.8,9c-2.9,3.8-6.2,7.3-10.2,10c-1.7,1.1-3.4,1.9-5.5,2.1
				c-2.2,0.2-4.3-1-5.2-3c-0.7-1.7-0.8-3.5-0.7-5.4c0.5-5.3,2.7-10.1,5.5-14.5c3.4-5.4,7.5-10.2,12.8-13.9c2.1-1.5,4.4-2.8,7-3.3
				c4-0.7,6.6,1.4,6.6,5.5c0,2.2-0.5,4.4-1.3,6.4C277.4,215.2,277,216.2,276.6,217.4z M306.5,233.1c0.1,0.7,0.3,1.2,0.9,1.5
				c0.5,0.3,1.1,0.3,1.7,0c1.3-0.8,2.5-1.7,3.5-2.9c1.3-1.7,2.7-3.5,3.8-5.3c3.7-6.2,7.2-12.4,10.8-18.6c0.4-0.7,0.2-1.3-0.6-1.6
				c-0.6-0.3-1.3-0.1-1.9,0.1c-1.3,0.5-2.4,1.3-3.2,2.4c-2.5,3.2-5.1,6.3-7.5,9.6c-2.6,3.6-4.9,7.5-6.4,11.7
				C307,231,306.8,232,306.5,233.1z M265,214.5c-0.2,0.2-0.3,0.3-0.3,0.4c-1.2,1.9-2.5,3.8-3.7,5.7c-1.7,2.8-3.1,5.6-3.8,8.8
				c-0.2,0.9-0.3,1.9-0.2,2.8c0.2,1.8,1.4,2.6,3.1,2.1c0.4-0.1,0.9-0.3,1.2-0.5c1.6-0.9,2.8-2.2,4.1-3.6c2.6-2.9,4.5-6.2,6.5-9.5
				c0.1-0.2,0.2-0.5,0.3-0.8C269.2,219,266.6,217.5,265,214.5z M276.3,209.3c0-0.3,0-0.6,0-0.9c-0.3-2.2-1.3-3-3.6-2.4
				c-0.4,0.1-0.8,0.3-1.1,0.5c-1.6,1.1-2.8,2.4-3.5,4.2c-0.6,1.5-0.5,3,0.6,4.3c1.2,1.5,2.7,2.2,4.6,2.5c0.4,0,0.6-0.1,0.7-0.5
				c0.4-1,0.9-2,1.3-3C275.8,212.5,276.3,210.9,276.3,209.3z"/>
			<path fill="#FFFFFF" d="M431.7,193.5c-1.9,2.1-3.8,4.1-5.7,6.1c-0.1,0.1-0.5,0.1-0.7,0c-1.2-0.7-2.4-1.4-3.6-2.1
				c-3.6-2.3-7.2-4.7-10.9-6.9c-2.8-1.7-5.9-2.9-9.2-3.4c-1.1-0.2-2.1-0.1-3.1,0.2c-0.3,0.1-0.5,0.3-0.4,0.6
				c0.3,3.8-0.7,7.4-2.1,10.8c-2,4.8-4.9,9-8.7,12.5c-1.6,1.5-3.5,2.6-5.6,3.2c-2.9,0.9-5.1-0.6-5.5-3.6c-0.3-2,0.2-3.7,1-5.5
				c2.4-6,6.2-10.9,11.1-15c1.7-1.4,3.6-2.7,5.4-4c0.1-0.1,0.2-0.2,0.4-0.3c-1.1-0.5-2.2-0.5-3.3-0.3c-1.6,0.2-3,1-4.4,1.7
				c-5.4,2.9-10,6.7-14.2,11.1c-7.7,8.1-14.3,16.9-19.6,26.8c-2.9,5.4-5.2,11.1-6.2,17.2c-0.4,2.5-0.9,5-0.2,7.5
				c0.7,2.6,2.2,4.6,4.9,5.4c1.7,0.5,3.3,0.1,4.9-0.6c2.8-1.2,5.1-3.1,7.2-5.3c4.1-4.3,7.3-9.2,9.2-14.9c0.7-2.2,1.2-4.4,1.1-6.7
				c-0.1-2.2-1.4-3-3.5-2.3c-1.5,0.6-2.6,1.7-3.5,3c-2.1,2.8-3.5,5.8-4.2,9.2c0,0.2-0.2,0.6-0.4,0.7c-3.7,1.8-6.8,4.3-9.6,7.3
				c-0.1,0.1-0.2,0.2-0.4,0.4c0.9-6.8,2.9-13,7.3-18.2c2.6-3.1,5.8-5.3,9.7-6.3c1-0.2,2.1-0.4,3.1-0.2c1.8,0.5,2.9,1.6,3.4,3.3
				c0.7,2.2,0.6,4.4,0.2,6.7c-0.9,5.2-3.3,9.8-6.2,14.2c-3.7,5.5-8.2,10.2-14,13.6c-2.4,1.4-5.1,2.2-7.9,2.3
				c-4.5,0.2-7.9-1.9-10.1-5.7c-1.9-3.3-2.4-6.9-2.2-10.6c0.4-5.9,2.4-11.3,4.9-16.6c6.8-14.2,16.2-26.5,28.5-36.4
				c5.3-4.3,11.1-7.6,17.7-9.5c2.4-0.7,4.8-0.9,7.2-0.2c1.1,0.3,2,0.8,2.8,1.6c0.3,0.3,0.5,0.3,0.9,0.2c1.9-0.6,3.9-1.3,5.8-1.7
				c4.9-1,9.6-0.3,14,2c5,2.6,9.8,5.5,14.7,8.3C431.6,193.4,431.7,193.5,431.7,193.5z M395.7,188.5c-0.7,0.4-1.2,0.6-1.6,0.9
				c-6.2,3.8-10.8,9.2-14.1,15.6c-0.8,1.5-1.4,3-1.5,4.6c-0.2,2.1,1.5,3.4,3.4,2.5c0.8-0.4,1.6-0.8,2.2-1.3
				c6.8-5.2,10.7-12.1,11.7-20.6C395.7,189.7,395.7,189.2,395.7,188.5z"/>
			<path fill="#FFFFFF" d="M469.9,182.9c-1.1,2.3-2.4,4.4-4,6.4c-5,6.3-11.2,10.9-18.9,13.4c-3.9,1.2-7.9,1.6-11.9,0.8
				c-0.1,0-0.2,0-0.2,0c-0.2,0-0.4-0.1-0.6-0.2c0.1-0.2,0.2-0.4,0.4-0.5c1.6-2,3.3-4,4.9-6c0.2-0.2,0.5-0.4,0.7-0.4
				c4.7,0.4,9.1-0.4,13.4-2.2c6.1-2.6,11.4-6.3,16-11.1C469.7,183.1,469.8,183,469.9,182.9z"/>
			<path fill="#FFFFFF" d="M350.7,203.1c-0.7,1.1-1.3,2.1-1.9,3.1c-0.7,1.1-1.4,2.2-2.1,3.3c-0.1,0.2-0.4,0.4-0.6,0.4
				c-2.3,0-4.6,0-6.9,0c0,0-0.1,0-0.1-0.1c0-0.1,0.1-0.2,0.1-0.3c1.2-2,2.5-4.1,3.8-6.1c0.1-0.2,0.3-0.4,0.5-0.4
				C345.9,203.1,348.2,203.1,350.7,203.1z"/>
		</g>
	</g>
	<rect x="277.6" y="158.6" fill="#601115" width="2.4" height="128.9"/>
	<rect x="393.5" y="158.6" fill="#601115" width="2.4" height="128.9"/>
	<path fill="#601115" d="M241.4,282.2c0,0.9-0.7,1.7-1.7,1.7h-8.1c-0.9,0-1.7-0.7-1.7-1.7l0,0c0-0.9,0.7-1.7,1.7-1.7h8.1
		C240.6,280.5,241.4,281.2,241.4,282.2L241.4,282.2z"/>
	<path fill="#601115" d="M348.2,280.5c0,0.9-0.7,1.7-1.7,1.7h-8.1c-0.9,0-1.7-0.7-1.7-1.7l0,0c0-0.9,0.7-1.7,1.7-1.7h8.1
		C347.4,278.8,348.2,279.6,348.2,280.5L348.2,280.5z"/>
	<path fill="#601115" d="M455,280.5c0,0.9-0.7,1.7-1.7,1.7h-8.1c-0.9,0-1.7-0.7-1.7-1.7l0,0c0-0.9,0.7-1.7,1.7-1.7h8.1
		C454.3,278.8,455,279.6,455,280.5L455,280.5z"/>
</g>
</svg>
