<?xml version="1.0" encoding="utf-8"?>
<!-- Generator: Adobe Illustrator 19.0.0, SVG Export Plug-In . SVG Version: 6.00 Build 0)  -->
<svg version="1.1" id="Layer_1" xmlns="http://www.w3.org/2000/svg" xmlns:xlink="http://www.w3.org/1999/xlink" x="0px" y="0px"
	 viewBox="0 0 212.6 114.5" enable-background="new 0 0 212.6 114.5" xml:space="preserve">
<g>
	<g>
		<path fill="#F0326E" d="M129,60c2.8,0.2,5.4-1.2,8.4-3.8c-3.1,0.5-5.1,1.1-7.2,0.5c0.7-3,4.4-4.2,4.5-8.1"/>
		<path fill="#F0326E" d="M127.1,64.5"/>
		<path fill="#F0326E" d="M122,67"/>
		<path fill="#F0326E" d="M103.2,82.6c-2.8,0.1-5.3-0.4-7.3-2.6c-1.4-1.6-3.2-1.9-5.5-1.5c-9.1,1.6-12.5-0.4-15.7-9
			c-1.2-3.2-3.2-5.8-5.6-8.3c-5.9-6.1-6.2-8.7-2.4-16.2c1.9-3.8,0.9-8,0.8-11.9c-0.1-4.2,1.1-8.1,4.5-9.7c4.3-1.9,6.2-5.3,8.6-8.7
			c2.9-4.1,7.4-6.2,12.6-6c1.8,0.1,3-0.6,4-2.1c5.3-7.1,15.9-8.5,22.9-3.1c1.3,1,2.6,1.1,4.1,0.7c7.6-1.5,14,3,15,10.7
			c0.3,1.9,0.9,2.8,2.7,3.3c8.3,2.1,12.7,12.5,7.4,19c-3.3,4.1-3.2,7.6-1.5,12.2c2.6,6.9,1.3,9.7-5.3,12.7c-1.8,0.8-1.6,2.2-1.8,3.7
			c-0.5,7.1-3.6,11.9-9.3,13.1c-3.4,0.7-6.8,0.7-9.7,3.6c-1.5,1.5-4.6,0.8-7,0c-1.3-0.4-2.6-0.8-3.8-1.2L103.2,82.6z"/>
		<path fill="#F0326E" d="M104,82.6c-0.2-1.7-0.4-3.5-0.8-5.1c-1.8-8.1-4.4-9.4-12.2-6.3c-0.5,0.2-1,0.3-1.7,0.5
			c1.9-5.1-3.8-3.8-4.9-6.5c3,0.2,5.3,2.2,8.2,2.8c1.7,0.3,3.7,1.1,4.8-0.6c0.9-1.5-0.9-2.6-1.6-3.7c-2.2-3.4-5-6.2-8.7-8.2
			c-1.9-1-3.7-2.2-4.6-4.7c2.1-0.5,3.3,1.5,5,1.7c0.3,0.1,0.6,0.2,0.8,0.2c-0.1-0.3-0.2-0.5-0.3-0.8c0-1.7-1.6-3.1-0.5-5.2
			c3.2,4.6,5.3,9.8,10,13.6c1.5-6.8-0.4-12.4-4.8-17.3c2.4-1.4,3,1.3,4.7,1.2c0.3-2.4-0.7-4.8,0.6-7.3c2.3,1.8,2.6,4.3,2.8,6.8
			c0.4,5.5,0.6,11,0.1,16.5c-0.2,2.3-0.4,4.6,0.7,6.7c0.5,1,1.3,1.8,2.5,1.8c1.5,0.1,1.4-1.3,1.6-2.3c1.4-5.8,1.5-11.7,1.7-18.6
			c2,3.6,1.6,6.8,2.5,9.7c2.4-0.8,2.6-3.6,4.6-5.1c-0.3,3.1-1.3,6-3.5,7.4c-3.9,2.5-2.5,6.3-3.2,9.6c3.5-3.1,7.1-6.1,6.9-12.3
			c1.3,2.4,2.4,3.8,3.7,0.9c2.3-5,2.3-9.6-2.5-14.2c5.3,2.4,4.7-0.4,4.1-3.2c-0.6-2.7-1.3-5.4-2-8.8c2.7,2,3.1,4.7,4.2,6.9
			c1.1-0.5,0.7-2.2,2.6-2.2c-0.9,5-3.2,9.9-1.6,15.5c3.7-5.4,4.7-11.6,7.3-17.6c1.5,3.1,0.2,5.8,0.1,8.4c-0.4,0.5-0.9,1.1-0.2,1.6
			c0.4,0.3,0.9-0.2,1.1-0.6c2,0.3,0.8,1.4,0.3,1.9c-5.2,4.6-7.2,11.4-12,16.3c-0.2,0.4-0.7,1-0.7,1c0.6,0.5,1.1,0.2,1.6-0.2
			c5.7-3.6,9.9-9,14.9-14.3c-0.1,3.9-3.8,5.2-4.5,8.1c2.2,0.5,4.1,0,7.2-0.5c-3,2.6-5.5,4-8.4,3.8c-3.1-0.2-5,1.1-6.9,3.1
			c1.2,2,3.3,0.5,5,1.4c-1.2,1.9-3.3,2.3-5.1,2.4c-7,0.3-10,4.3-10.4,10.9c-0.1,1.1-0.2,2.1-0.4,3.2c-1.6,9.5-1.4,19,0.3,28.5
			c0.3,1.7-0.6,5-0.6,5h-8.6c0,0-1.8-2.9-1.4-4.7C103.6,100.8,105.1,91.8,104,82.6z"/>
	</g>
	<g>
		<path fill="#D1DD51" d="M129,60c2.8,0.2,5.4-1.2,8.4-3.8c-3.1,0.5-5.1,1.1-7.2,0.5c0.7-3,4.4-4.2,4.5-8.1"/>
		<path fill="#D1DD51" d="M127.1,64.5"/>
		<path fill="#D1DD51" d="M122,67"/>
		<path fill="#F0326E" d="M103.2,82.6c-2.8,0.1-5.3-0.4-7.3-2.6c-1.4-1.6-3.2-1.9-5.5-1.5c-9.1,1.6-12.5-0.4-15.7-9
			c-1.2-3.2-3.2-5.8-5.6-8.3c-5.9-6.1-6.2-8.7-2.4-16.2c1.9-3.8,0.9-8,0.8-11.9c-0.1-4.2,1.1-8.1,4.5-9.7c4.3-1.9,6.2-5.3,8.6-8.7
			c2.9-4.1,7.4-6.2,12.6-6c1.8,0.1,3-0.6,4-2.1c5.3-7.1,15.9-8.5,22.9-3.1c1.3,1,2.6,1.1,4.1,0.7c7.6-1.5,14,3,15,10.7
			c0.3,1.9,0.9,2.8,2.7,3.3c8.3,2.1,12.7,12.5,7.4,19c-3.3,4.1-3.2,7.6-1.5,12.2c2.6,6.9,1.3,9.7-5.3,12.7c-1.8,0.8-1.6,2.2-1.8,3.7
			c-0.5,7.1-3.6,11.9-9.3,13.1c-3.4,0.7-6.8,0.7-9.7,3.6c-1.5,1.5-4.6,0.8-7,0c-1.3-0.4-2.6-0.8-3.8-1.2L103.2,82.6z"/>
		<path fill="#F0326E" d="M104,82.6c-0.2-1.7-0.4-3.5-0.8-5.1c-1.8-8.1-4.4-9.4-12.2-6.3c-0.5,0.2-1,0.3-1.7,0.5
			c1.9-5.1-3.8-3.8-4.9-6.5c3,0.2,5.3,2.2,8.2,2.8c1.7,0.3,3.7,1.1,4.8-0.6c0.9-1.5-0.9-2.6-1.6-3.7c-2.2-3.4-5-6.2-8.7-8.2
			c-1.9-1-3.7-2.2-4.6-4.7c2.1-0.5,3.3,1.5,5,1.7c0.3,0.1,0.6,0.2,0.8,0.2c-0.1-0.3-0.2-0.5-0.3-0.8c0-1.7-1.6-3.1-0.5-5.2
			c3.2,4.6,5.3,9.8,10,13.6c1.5-6.8-0.4-12.4-4.8-17.3c2.4-1.4,3,1.3,4.7,1.2c0.3-2.4-0.7-4.8,0.6-7.3c2.3,1.8,2.6,4.3,2.8,6.8
			c0.4,5.5,0.6,11,0.1,16.5c-0.2,2.3-0.4,4.6,0.7,6.7c0.5,1,1.3,1.8,2.5,1.8c1.5,0.1,1.4-1.3,1.6-2.3c1.4-5.8,1.5-11.7,1.7-18.6
			c2,3.6,1.6,6.8,2.5,9.7c2.4-0.8,2.6-3.6,4.6-5.1c-0.3,3.1-1.3,6-3.5,7.4c-3.9,2.5-2.5,6.3-3.2,9.6c3.5-3.1,7.1-6.1,6.9-12.3
			c1.3,2.4,2.4,3.8,3.7,0.9c2.3-5,2.3-9.6-2.5-14.2c5.3,2.4,4.7-0.4,4.1-3.2c-0.6-2.7-1.3-5.4-2-8.8c2.7,2,3.1,4.7,4.2,6.9
			c1.1-0.5,0.7-2.2,2.6-2.2c-0.9,5-3.2,9.9-1.6,15.5c3.7-5.4,4.7-11.6,7.3-17.6c1.5,3.1,0.2,5.8,0.1,8.4c-0.4,0.5-0.9,1.1-0.2,1.6
			c0.4,0.3,0.9-0.2,1.1-0.6c2,0.3,0.8,1.4,0.3,1.9c-5.2,4.6-7.2,11.4-12,16.3c-0.2,0.4-0.7,1-0.7,1c0.6,0.5,1.1,0.2,1.6-0.2
			c5.7-3.6,9.9-9,14.9-14.3c-0.1,3.9-3.8,5.2-4.5,8.1c2.2,0.5,4.1,0,7.2-0.5c-3,2.6-5.5,4-8.4,3.8c-3.1-0.2-5,1.1-6.9,3.1
			c1.2,2,3.3,0.5,5,1.4c-1.2,1.9-3.3,2.3-5.1,2.4c-7,0.3-10,4.3-10.4,10.9c-0.1,1.1-0.2,2.1-0.4,3.2c-1.6,9.5-1.4,19,0.3,28.5
			c0.3,1.7-0.6,5-0.6,5h-8.6c0,0-1.8-2.9-1.4-4.7C103.6,100.8,105.1,91.8,104,82.6z"/>
	</g>
</g>
<g>
	<g>
		<path fill="#F0326E" d="M44.8,75.5c2,0.1,3.7-0.8,5.8-2.6c-2.2,0.4-3.5,0.7-5,0.4c0.5-2.1,3.1-2.9,3.1-5.6"/>
		<path fill="#F0326E" d="M43.5,78.7"/>
		<path fill="#F0326E" d="M40,80.3"/>
		<path fill="#F0326E" d="M27,91.1c-1.9,0-3.7-0.3-5.1-1.8c-1-1.1-2.2-1.3-3.8-1.1C11.8,89.4,9.5,88,7.2,82c-0.8-2.2-2.2-4-3.9-5.7
			c-4.1-4.2-4.3-6.1-1.6-11.2c1.3-2.6,0.6-5.5,0.6-8.3c-0.1-2.9,0.8-5.6,3.1-6.7c3-1.3,4.3-3.7,6-6c2-2.9,5.1-4.3,8.7-4.2
			c1.2,0,2-0.4,2.8-1.4c3.7-4.9,11-5.9,15.9-2.2c0.9,0.7,1.8,0.7,2.8,0.5c5.3-1.1,9.7,2,10.4,7.4c0.2,1.3,0.6,2,1.9,2.3
			c5.8,1.4,8.8,8.6,5.1,13.2c-2.3,2.9-2.2,5.3-1.1,8.4c1.8,4.8,0.9,6.7-3.7,8.8c-1.2,0.6-1.1,1.5-1.2,2.5c-0.4,4.9-2.5,8.2-6.4,9.1
			c-2.4,0.5-4.7,0.5-6.7,2.5c-1.1,1.1-3.2,0.6-4.8,0c-0.9-0.3-1.8-0.5-2.7-0.8L27,91.1z"/>
		<path fill="#F0326E" d="M27.5,91.1c-0.2-1.2-0.3-2.4-0.5-3.6c-1.3-5.6-3.1-6.5-8.5-4.4c-0.3,0.1-0.7,0.2-1.2,0.3
			c1.3-3.5-2.6-2.7-3.4-4.5c2.1,0.1,3.7,1.5,5.7,1.9c1.2,0.2,2.6,0.8,3.3-0.4c0.6-1-0.6-1.8-1.1-2.6c-1.5-2.4-3.5-4.3-6-5.7
			c-1.3-0.7-2.6-1.5-3.2-3.3c1.5-0.4,2.3,1,3.5,1.2c0.2,0.1,0.4,0.1,0.6,0.2c-0.1-0.2-0.1-0.4-0.2-0.5c0-1.2-1.1-2.2-0.4-3.6
			c2.2,3.2,3.6,6.8,6.9,9.4c1-4.7-0.2-8.6-3.3-12c1.7-0.9,2.1,0.9,3.2,0.8c0.2-1.6-0.5-3.4,0.4-5.1c1.6,1.2,1.8,3,1.9,4.7
			c0.3,3.8,0.4,7.6,0,11.4c-0.2,1.6-0.3,3.2,0.5,4.7c0.4,0.7,0.9,1.2,1.7,1.3c1.1,0,0.9-0.9,1.1-1.6c1-4,1.1-8.1,1.2-12.9
			c1.4,2.5,1.1,4.7,1.7,6.7c1.7-0.6,1.8-2.5,3.2-3.5c-0.2,2.1-0.9,4.2-2.4,5.1c-2.7,1.8-1.7,4.3-2.2,6.6c2.4-2.2,4.9-4.2,4.8-8.5
			c0.9,1.7,1.6,2.6,2.6,0.6c1.6-3.5,1.6-6.7-1.8-9.8c3.7,1.7,3.3-0.3,2.8-2.2c-0.4-1.9-0.9-3.8-1.4-6.1c1.9,1.4,2.1,3.2,2.9,4.8
			c0.8-0.3,0.5-1.5,1.8-1.5c-0.6,3.5-2.2,6.9-1.1,10.7c2.5-3.7,3.2-8,5.1-12.1c1.1,2.1,0.2,4,0,5.8c-0.3,0.4-0.6,0.8-0.2,1.1
			c0.3,0.2,0.6-0.1,0.8-0.4c1.4,0.2,0.6,1,0.2,1.3c-3.6,3.2-5,7.9-8.3,11.3c-0.2,0.2-0.5,0.7-0.5,0.7c0.4,0.3,0.8,0.1,1.1-0.1
			c4-2.5,6.9-6.2,10.3-9.9c0,2.7-2.6,3.6-3.1,5.6c1.5,0.4,2.8,0,5-0.4c-2.1,1.8-3.8,2.8-5.8,2.6c-2.1-0.2-3.5,0.8-4.8,2.2
			c0.8,1.4,2.3,0.4,3.5,1c-0.9,1.3-2.3,1.6-3.5,1.7c-4.9,0.2-6.9,3-7.2,7.5c0,0.7-0.2,1.5-0.3,2.2c-1.1,6.6-1,13.2,0.2,19.7
			c0.2,1.1-0.4,3.4-0.4,3.4h-6c0,0-1.3-2-1-3.3C27.3,103.8,28.3,97.5,27.5,91.1z"/>
	</g>
	<g>
		<path fill="#D1DD51" d="M44.8,75.5c2,0.1,3.7-0.8,5.8-2.6c-2.2,0.4-3.5,0.7-5,0.4c0.5-2.1,3.1-2.9,3.1-5.6"/>
		<path fill="#D1DD51" d="M43.5,78.7"/>
		<path fill="#D1DD51" d="M40,80.3"/>
		<path fill="#F0326E" d="M27,91.1c-1.9,0-3.7-0.3-5.1-1.8c-1-1.1-2.2-1.3-3.8-1.1C11.8,89.4,9.5,88,7.2,82c-0.8-2.2-2.2-4-3.9-5.7
			c-4.1-4.2-4.3-6.1-1.6-11.2c1.3-2.6,0.6-5.5,0.6-8.3c-0.1-2.9,0.8-5.6,3.1-6.7c3-1.3,4.3-3.7,6-6c2-2.9,5.1-4.3,8.7-4.2
			c1.2,0,2-0.4,2.8-1.4c3.7-4.9,11-5.9,15.9-2.2c0.9,0.7,1.8,0.7,2.8,0.5c5.3-1.1,9.7,2,10.4,7.4c0.2,1.3,0.6,2,1.9,2.3
			c5.8,1.4,8.8,8.6,5.1,13.2c-2.3,2.9-2.2,5.3-1.1,8.4c1.8,4.8,0.9,6.7-3.7,8.8c-1.2,0.6-1.1,1.5-1.2,2.5c-0.4,4.9-2.5,8.2-6.4,9.1
			c-2.4,0.5-4.7,0.5-6.7,2.5c-1.1,1.1-3.2,0.6-4.8,0c-0.9-0.3-1.8-0.5-2.7-0.8L27,91.1z"/>
		<path fill="#F0326E" d="M27.5,91.1c-0.2-1.2-0.3-2.4-0.5-3.6c-1.3-5.6-3.1-6.5-8.5-4.4c-0.3,0.1-0.7,0.2-1.2,0.3
			c1.3-3.5-2.6-2.7-3.4-4.5c2.1,0.1,3.7,1.5,5.7,1.9c1.2,0.2,2.6,0.8,3.3-0.4c0.6-1-0.6-1.8-1.1-2.6c-1.5-2.4-3.5-4.3-6-5.7
			c-1.3-0.7-2.6-1.5-3.2-3.3c1.5-0.4,2.3,1,3.5,1.2c0.2,0.1,0.4,0.1,0.6,0.2c-0.1-0.2-0.1-0.4-0.2-0.5c0-1.2-1.1-2.2-0.4-3.6
			c2.2,3.2,3.6,6.8,6.9,9.4c1-4.7-0.2-8.6-3.3-12c1.7-0.9,2.1,0.9,3.2,0.8c0.2-1.6-0.5-3.4,0.4-5.1c1.6,1.2,1.8,3,1.9,4.7
			c0.3,3.8,0.4,7.6,0,11.4c-0.2,1.6-0.3,3.2,0.5,4.7c0.4,0.7,0.9,1.2,1.7,1.3c1.1,0,0.9-0.9,1.1-1.6c1-4,1.1-8.1,1.2-12.9
			c1.4,2.5,1.1,4.7,1.7,6.7c1.7-0.6,1.8-2.5,3.2-3.5c-0.2,2.1-0.9,4.2-2.4,5.1c-2.7,1.8-1.7,4.3-2.2,6.6c2.4-2.2,4.9-4.2,4.8-8.5
			c0.9,1.7,1.6,2.6,2.6,0.6c1.6-3.5,1.6-6.7-1.8-9.8c3.7,1.7,3.3-0.3,2.8-2.2c-0.4-1.9-0.9-3.8-1.4-6.1c1.9,1.4,2.1,3.2,2.9,4.8
			c0.8-0.3,0.5-1.5,1.8-1.5c-0.6,3.5-2.2,6.9-1.1,10.7c2.5-3.7,3.2-8,5.1-12.1c1.1,2.1,0.2,4,0,5.8c-0.3,0.4-0.6,0.8-0.2,1.1
			c0.3,0.2,0.6-0.1,0.8-0.4c1.4,0.2,0.6,1,0.2,1.3c-3.6,3.2-5,7.9-8.3,11.3c-0.2,0.2-0.5,0.7-0.5,0.7c0.4,0.3,0.8,0.1,1.1-0.1
			c4-2.5,6.9-6.2,10.3-9.9c0,2.7-2.6,3.6-3.1,5.6c1.5,0.4,2.8,0,5-0.4c-2.1,1.8-3.8,2.8-5.8,2.6c-2.1-0.2-3.5,0.8-4.8,2.2
			c0.8,1.4,2.3,0.4,3.5,1c-0.9,1.3-2.3,1.6-3.5,1.7c-4.9,0.2-6.9,3-7.2,7.5c0,0.7-0.2,1.5-0.3,2.2c-1.1,6.6-1,13.2,0.2,19.7
			c0.2,1.1-0.4,3.4-0.4,3.4h-6c0,0-1.3-2-1-3.3C27.3,103.8,28.3,97.5,27.5,91.1z"/>
	</g>
</g>
<g>
	<g>
		<path fill="#F0326E" d="M196.7,75.1c2,0.1,3.7-0.8,5.8-2.6c-2.2,0.4-3.5,0.7-5,0.4c0.5-2.1,3.1-2.9,3.1-5.6"/>
		<path fill="#F0326E" d="M195.5,78.2"/>
		<path fill="#F0326E" d="M191.9,79.9"/>
		<path fill="#F0326E" d="M178.9,90.7c-1.9,0-3.7-0.3-5.1-1.8c-1-1.1-2.2-1.3-3.8-1.1c-6.3,1.1-8.6-0.3-10.9-6.2
			c-0.8-2.2-2.2-4-3.9-5.7c-4.1-4.2-4.3-6.1-1.6-11.2c1.3-2.6,0.6-5.5,0.6-8.3c-0.1-2.9,0.8-5.6,3.1-6.7c3-1.3,4.3-3.7,6-6
			c2-2.9,5.1-4.3,8.7-4.2c1.2,0,2-0.4,2.8-1.4c3.7-4.9,11-5.9,15.9-2.2c0.9,0.7,1.8,0.7,2.8,0.5c5.3-1.1,9.7,2,10.4,7.4
			c0.2,1.3,0.6,2,1.9,2.3c5.8,1.4,8.8,8.6,5.1,13.2c-2.3,2.9-2.2,5.3-1.1,8.4c1.8,4.8,0.9,6.7-3.7,8.8c-1.2,0.6-1.1,1.5-1.2,2.5
			c-0.4,4.9-2.5,8.2-6.4,9.1c-2.4,0.5-4.7,0.5-6.7,2.5c-1.1,1.1-3.2,0.6-4.8,0c-0.9-0.3-1.8-0.5-2.7-0.8L178.9,90.7z"/>
		<path fill="#F0326E" d="M179.5,90.7c-0.2-1.2-0.3-2.4-0.5-3.6c-1.3-5.6-3.1-6.5-8.5-4.4c-0.3,0.1-0.7,0.2-1.2,0.3
			c1.3-3.5-2.6-2.7-3.4-4.5c2.1,0.1,3.7,1.5,5.7,1.9c1.2,0.2,2.6,0.8,3.3-0.4c0.6-1-0.6-1.8-1.1-2.6c-1.5-2.4-3.5-4.3-6-5.7
			c-1.3-0.7-2.6-1.5-3.2-3.3c1.5-0.4,2.3,1,3.5,1.2c0.2,0.1,0.4,0.1,0.6,0.2c-0.1-0.2-0.1-0.4-0.2-0.5c0-1.2-1.1-2.2-0.4-3.6
			c2.2,3.2,3.6,6.8,6.9,9.4c1-4.7-0.2-8.6-3.3-12c1.7-0.9,2.1,0.9,3.2,0.8c0.2-1.6-0.5-3.4,0.4-5.1c1.6,1.2,1.8,3,1.9,4.7
			c0.3,3.8,0.4,7.6,0,11.4c-0.2,1.6-0.3,3.2,0.5,4.7c0.4,0.7,0.9,1.2,1.7,1.3c1.1,0,0.9-0.9,1.1-1.6c1-4,1.1-8.1,1.2-12.9
			c1.4,2.5,1.1,4.7,1.7,6.7c1.7-0.6,1.8-2.5,3.2-3.5c-0.2,2.1-0.9,4.2-2.4,5.1c-2.7,1.8-1.7,4.3-2.2,6.6c2.4-2.2,4.9-4.2,4.8-8.5
			c0.9,1.7,1.6,2.6,2.6,0.6c1.6-3.5,1.6-6.7-1.8-9.8c3.7,1.7,3.3-0.3,2.8-2.2c-0.4-1.9-0.9-3.8-1.4-6.1c1.9,1.4,2.1,3.2,2.9,4.8
			c0.8-0.3,0.5-1.5,1.8-1.5c-0.6,3.5-2.2,6.9-1.1,10.7c2.5-3.7,3.2-8,5.1-12.1c1.1,2.1,0.2,4,0,5.8c-0.3,0.4-0.6,0.8-0.2,1.1
			c0.3,0.2,0.6-0.1,0.8-0.4c1.4,0.2,0.6,1,0.2,1.3c-3.6,3.2-5,7.9-8.3,11.3c-0.2,0.2-0.5,0.7-0.5,0.7c0.4,0.3,0.8,0.1,1.1-0.1
			c4-2.5,6.9-6.2,10.3-9.9c0,2.7-2.6,3.6-3.1,5.6c1.5,0.4,2.8,0,5-0.4c-2.1,1.8-3.8,2.8-5.8,2.6c-2.1-0.2-3.5,0.8-4.8,2.2
			c0.8,1.4,2.3,0.4,3.5,1c-0.9,1.3-2.3,1.6-3.5,1.7c-4.9,0.2-6.9,3-7.2,7.5c0,0.7-0.2,1.5-0.3,2.2c-1.1,6.6-1,13.2,0.2,19.7
			c0.2,1.1-0.4,3.4-0.4,3.4h-6c0,0-1.3-2-1-3.3C179.2,103.3,180.2,97,179.5,90.7z"/>
	</g>
	<g>
		<path fill="#D1DD51" d="M196.7,75.1c2,0.1,3.7-0.8,5.8-2.6c-2.2,0.4-3.5,0.7-5,0.4c0.5-2.1,3.1-2.9,3.1-5.6"/>
		<path fill="#D1DD51" d="M195.5,78.2"/>
		<path fill="#D1DD51" d="M191.9,79.9"/>
		<path fill="#F0326E" d="M178.9,90.7c-1.9,0-3.7-0.3-5.1-1.8c-1-1.1-2.2-1.3-3.8-1.1c-6.3,1.1-8.6-0.3-10.9-6.2
			c-0.8-2.2-2.2-4-3.9-5.7c-4.1-4.2-4.3-6.1-1.6-11.2c1.3-2.6,0.6-5.5,0.6-8.3c-0.1-2.9,0.8-5.6,3.1-6.7c3-1.3,4.3-3.7,6-6
			c2-2.9,5.1-4.3,8.7-4.2c1.2,0,2-0.4,2.8-1.4c3.7-4.9,11-5.9,15.9-2.2c0.9,0.7,1.8,0.7,2.8,0.5c5.3-1.1,9.7,2,10.4,7.4
			c0.2,1.3,0.6,2,1.9,2.3c5.8,1.4,8.8,8.6,5.1,13.2c-2.3,2.9-2.2,5.3-1.1,8.4c1.8,4.8,0.9,6.7-3.7,8.8c-1.2,0.6-1.1,1.5-1.2,2.5
			c-0.4,4.9-2.5,8.2-6.4,9.1c-2.4,0.5-4.7,0.5-6.7,2.5c-1.1,1.1-3.2,0.6-4.8,0c-0.9-0.3-1.8-0.5-2.7-0.8L178.9,90.7z"/>
		<path fill="#F0326E" d="M179.5,90.7c-0.2-1.2-0.3-2.4-0.5-3.6c-1.3-5.6-3.1-6.5-8.5-4.4c-0.3,0.1-0.7,0.2-1.2,0.3
			c1.3-3.5-2.6-2.7-3.4-4.5c2.1,0.1,3.7,1.5,5.7,1.9c1.2,0.2,2.6,0.8,3.3-0.4c0.6-1-0.6-1.8-1.1-2.6c-1.5-2.4-3.5-4.3-6-5.7
			c-1.3-0.7-2.6-1.5-3.2-3.3c1.5-0.4,2.3,1,3.5,1.2c0.2,0.1,0.4,0.1,0.6,0.2c-0.1-0.2-0.1-0.4-0.2-0.5c0-1.2-1.1-2.2-0.4-3.6
			c2.2,3.2,3.6,6.8,6.9,9.4c1-4.7-0.2-8.6-3.3-12c1.7-0.9,2.1,0.9,3.2,0.8c0.2-1.6-0.5-3.4,0.4-5.1c1.6,1.2,1.8,3,1.9,4.7
			c0.3,3.8,0.4,7.6,0,11.4c-0.2,1.6-0.3,3.2,0.5,4.7c0.4,0.7,0.9,1.2,1.7,1.3c1.1,0,0.9-0.9,1.1-1.6c1-4,1.1-8.1,1.2-12.9
			c1.4,2.5,1.1,4.7,1.7,6.7c1.7-0.6,1.8-2.5,3.2-3.5c-0.2,2.1-0.9,4.2-2.4,5.1c-2.7,1.8-1.7,4.3-2.2,6.6c2.4-2.2,4.9-4.2,4.8-8.5
			c0.9,1.7,1.6,2.6,2.6,0.6c1.6-3.5,1.6-6.7-1.8-9.8c3.7,1.7,3.3-0.3,2.8-2.2c-0.4-1.9-0.9-3.8-1.4-6.1c1.9,1.4,2.1,3.2,2.9,4.8
			c0.8-0.3,0.5-1.5,1.8-1.5c-0.6,3.5-2.2,6.9-1.1,10.7c2.5-3.7,3.2-8,5.1-12.1c1.1,2.1,0.2,4,0,5.8c-0.3,0.4-0.6,0.8-0.2,1.1
			c0.3,0.2,0.6-0.1,0.8-0.4c1.4,0.2,0.6,1,0.2,1.3c-3.6,3.2-5,7.9-8.3,11.3c-0.2,0.2-0.5,0.7-0.5,0.7c0.4,0.3,0.8,0.1,1.1-0.1
			c4-2.5,6.9-6.2,10.3-9.9c0,2.7-2.6,3.6-3.1,5.6c1.5,0.4,2.8,0,5-0.4c-2.1,1.8-3.8,2.8-5.8,2.6c-2.1-0.2-3.5,0.8-4.8,2.2
			c0.8,1.4,2.3,0.4,3.5,1c-0.9,1.3-2.3,1.6-3.5,1.7c-4.9,0.2-6.9,3-7.2,7.5c0,0.7-0.2,1.5-0.3,2.2c-1.1,6.6-1,13.2,0.2,19.7
			c0.2,1.1-0.4,3.4-0.4,3.4h-6c0,0-1.3-2-1-3.3C179.2,103.3,180.2,97,179.5,90.7z"/>
	</g>
</g>
</svg>
