<?xml version="1.0" encoding="utf-8"?>
<!-- Generator: Adobe Illustrator 19.0.0, SVG Export Plug-In . SVG Version: 6.00 Build 0)  -->
<svg version="1.1" id="Layer_1" xmlns="http://www.w3.org/2000/svg" xmlns:xlink="http://www.w3.org/1999/xlink" x="0px" y="0px"
	 viewBox="-237 202 525 497" style="enable-background:new -237 202 525 497;" xml:space="preserve">
<style type="text/css">
	.st0{fill:#FFFFFF;}
	.st1{fill:none;}
	.st2{fill:none;stroke:#FFFFFF;stroke-width:3;stroke-miterlimit:10;}
</style>
<g>
	<g>
		<g>
			<circle class="st0" cx="159.8" cy="443.8" r="0.9"/>
			<path class="st0" d="M172.2,493.8h0.8c0.6,0,1-0.5,1-1v-22.3c0-0.6-0.5-1-1-1h-0.7v-79.8c0-10.8-8.8-19.6-19.6-19.6H132v-0.3
				c0-0.6-0.5-1-1-1h-12.3c-0.6,0-1,0.5-1,1v0.3h-15.6v-0.3c0-0.6-0.5-1-1-1h-8.7c-0.6,0-1,0.5-1,1v0.3H76v-0.3c0-0.6-0.5-1-1-1
				h-8.5c-0.6,0-1,0.5-1,1v0.3h-181.2c-10.8,0-19.6,8.8-19.6,19.6v102.7c0,10.8,8.8,19.6,19.6,19.6h268.4
				C162.9,511.8,171.4,503.9,172.2,493.8z M162.7,443.8c0,1.6-1.3,2.8-2.8,2.8c-1.6,0-2.8-1.3-2.8-2.8c0-1.6,1.3-2.8,2.8-2.8
				C161.4,441,162.7,442.3,162.7,443.8z M148.6,429.9c1.3,0,2.4,1.1,2.4,2.4v23c0,1.3-1.1,2.4-2.4,2.4h-1c-1.3,0-2.4-1.1-2.4-2.4
				v-23c0-1.3,1.1-2.4,2.4-2.4H148.6z M-129.3,441c0-7.7,6.3-14,14-14s14,6.3,14,14s-6.3,14-14,14C-123.1,455-129.3,448.7-129.3,441
				z M-93.4,504.1V377.7h225.1v126.4C131.6,504.1-93.4,504.1-93.4,504.1z"/>
		</g>
		<path class="st0" d="M-110.3,443.9v-6.1c0-1.3-1.1-2.4-2.4-2.4h-6.2c-1.3,0-2.4,1.1-2.4,2.4v6.1c0,1.3,1.1,2.4,2.4,2.4h6.2
			C-111.3,446.3-110.3,445.3-110.3,443.9z M-118.3,445.4c-1.1,0-1.9-0.9-1.9-1.9v-4.9c0-1.1,0.9-1.9,1.9-1.9h5
			c1.1,0,1.9,0.9,1.9,1.9v4.9c0,1.1-0.9,1.9-1.9,1.9H-118.3z"/>
	</g>
	<path class="st1" d="M10.4,315h23c1.3,0,2.6-1.7,2.6-3.1v-1c0-1.3-1.3-1.9-2.6-1.9h-23c-1.3,0-2.4,0.6-2.4,1.9v1
		C8,313.3,9.1,315,10.4,315z"/>
	<path class="st1" d="M22,302.5c1.6,0,2.8-1.3,2.8-2.8c0-1.6-1.3-2.8-2.8-2.8c-1.6,0-2.8,1.3-2.8,2.8
		C19.1,301.3,20.4,302.5,22,302.5z M22,298.8c0.5,0,0.9,0.4,0.9,0.9s-0.4,0.9-0.9,0.9s-0.9-0.4-0.9-0.9
		C21,299.2,21.4,298.8,22,298.8z"/>
	<path class="st1" d="M-44,328v50H82c0-17,0-50,0-50H-44z"/>
	<path class="st1" d="M-44,553H82c0,0,0-32,0-48H-44V553z"/>
	<path class="st1" d="M21.6,571h-4.9c-1.1,0-1.7,0.7-1.7,1.8v5c0,1.1,0.6,2.2,1.7,2.2h4.9c1.1,0,2.4-1.1,2.4-2.2v-5
		C24,571.7,22.7,571,21.6,571z"/>
	<path class="st1" d="M19.1,560.9c-7.7,0-14,6.3-14,14c0,7.7,6.3,14,14,14c7.7,0,14-6.3,14-14C33.1,567.2,26.9,560.9,19.1,560.9z
		 M25,578.4c0,1.3-1.6,2.6-2.9,2.6H16c-1.3,0-2-1.3-2-2.6v-6.2c0-1.3,0.6-2.2,2-2.2h6.1c1.3,0,2.9,0.9,2.9,2.2V578.4z"/>
	<circle class="st2" cx="22" cy="299.7" r="0.9"/>
	<path class="st2" d="M82.5,553.5h-127v-44h-7v65.8c0,10.8,8.4,20.2,19.2,20.2H70.4c10.8,0,20.2-9.4,20.2-20.2v-65.8h-8
		C82.5,526.5,82.5,553.5,82.5,553.5z M19.1,588.9c-7.7,0-14-6.3-14-14c0-7.7,6.3-14,14-14c7.7,0,14,6.3,14,14
		C33.1,582.6,26.9,588.9,19.1,588.9z"/>
	<path class="st2" d="M-44.5,328.5h127c0,0,0,29,0,46h8v-67.6c0-10.3-8-18.7-18-19.5v-0.8c0-0.6-1-0.1-1.6-0.1H48.6
		c-0.6,0-1.1-0.5-1.1,0.1v0.9h-79.8c-10.8,0-19.2,8.6-19.2,19.4v20.6h-0.7c-0.6,0-1.3,0.5-1.3,1v12.3c0,0.6,0.7,1.7,1.3,1.7h0.7v15
		h-0.7c-0.6,0-1.3,0.4-1.3,1v8.7c0,0.6,0.7,1.4,1.3,1.4h0.7v6h7V328.5z M22,296.9c1.6,0,2.8,1.3,2.8,2.8c0,1.6-1.3,2.8-2.8,2.8
		c-1.6,0-2.8-1.3-2.8-2.8C19.1,298.1,20.4,296.9,22,296.9z M8.5,310.9c0-1.3,0.6-2.4,1.9-2.4h23c1.3,0,2.1,1.1,2.1,2.4v1
		c0,1.3-0.8,2.6-2.1,2.6h-23c-1.3,0-1.9-1.2-1.9-2.6V310.9z"/>
	<path class="st2" d="M22.1,570.5H16c-1.3,0-2.5,0.4-2.5,1.7v6.2c0,1.3,1.1,3.1,2.5,3.1h6.1c1.3,0,2.4-1.8,2.4-3.1v-6.2
		C24.5,570.9,23.4,570.5,22.1,570.5z M23.5,577.8c0,1.1-0.8,2.7-1.9,2.7h-4.9c-1.1,0-2.2-1.6-2.2-2.7v-5c0-1.1,1.1-1.3,2.2-1.3h4.9
		c1.1,0,1.9,0.2,1.9,1.3V577.8z"/>
	<g>
		<path class="st0" d="M262.5,436.2c-3.5-58.9-28.8-114-71-155.3c-42.3-41.3-98.2-65.2-157.2-67.2l0.2-6
			c60.6,2.1,117.8,26.5,161.2,68.9c43.3,42.3,69.2,98.8,72.8,159.2L262.5,436.2z"/>
		<g>
			<path class="st0" d="M288.1,414.2l-4.7-3.7l-18.3,23.2l-19.6-18c-1.2-1.1-3.1-1-4.2,0.2l0,0c-1.1,1.2-1,3.1,0.2,4.2l22,20.1
				c1.3,1.2,3.3,1,4.4-0.4L288.1,414.2z"/>
		</g>
		<g>
			<circle class="st0" cx="34.7" cy="210.8" r="8.8"/>
		</g>
	</g>
	<g>
		<path class="st0" d="M13.6,693.2c-0.1,0-0.1,0-0.2,0c-129.2-6.6-230.5-113.2-230.5-242.7c0-0.8,0-1.7,0-2.5c0-1.7,1.4-3,3-3
			c1.7,0,3,1.4,3,3c0,0.8,0,1.6,0,2.5c0,126.3,98.7,230.3,224.8,236.7c1.7,0.1,2.9,1.5,2.8,3.1C16.5,691.9,15.1,693.2,13.6,693.2z"
			/>
		<g>
			<path class="st0" d="M-236,470.1L-236,470.1c1.2,1.1,3.1,1,4.2-0.2l15.8-17.2c1.2-1.3,3.2-1.3,4.4,0l16,17c1.1,1.2,3,1.3,4.2,0.1
				l0,0c1.2-1.1,1.3-3,0.1-4.2l-20.5-21.7c-1.2-1.3-3.2-1.3-4.4,0l-20.1,22C-237.3,467.1-237.2,469-236,470.1z"/>
		</g>
		<g>
			<circle class="st0" cx="13.1" cy="690.1" r="8.8"/>
		</g>
	</g>
</g>
</svg>
