<?xml version="1.0" encoding="utf-8"?>
<!-- Generator: Adobe Illustrator 19.0.0, SVG Export Plug-In . SVG Version: 6.00 Build 0)  -->
<svg version="1.1" id="Layer_1" xmlns="http://www.w3.org/2000/svg" xmlns:xlink="http://www.w3.org/1999/xlink" x="0px" y="0px"
	 viewBox="0 0 286.6 218.8" enable-background="new 0 0 286.6 218.8" xml:space="preserve">
<g>
	<rect x="248.7" y="36.2" fill="#AC1C18" width="29.4" height="21.1"/>
	<rect x="5.1" y="36.2" fill="#AC1C18" width="29.4" height="21.1"/>
	<rect x="5.3" y="41.7" fill="#C3181D" width="9.6" height="3.3"/>
	<rect x="24.6" y="46.1" fill="#C3181D" width="9.6" height="3.6"/>
	<rect y="31.8" fill="#740E47" width="38.9" height="6.1"/>
	<polygon fill="#740E47" points="4.6,33.6 19.1,5.1 34,34.5 	"/>
	<rect x="14.9" y="2.6" fill="#740E47" width="8.3" height="3.1"/>
	<rect x="18" y="0" fill="#740E47" width="2.2" height="8.3"/>
	<rect x="248.9" y="41.7" fill="#C3181D" width="9.6" height="3.3"/>
	<rect x="268.3" y="46.1" fill="#C3181D" width="9.6" height="3.5"/>
	<rect x="243.2" y="31.8" fill="#740E47" width="39.4" height="6.1"/>
	<polygon fill="#740E47" points="248.3,33.6 262.8,5.1 277.7,34.5 	"/>
	<rect x="258.6" y="2.6" fill="#740E47" width="8.3" height="3.1"/>
	<rect x="261.7" y="0" fill="#740E47" width="2.2" height="8.3"/>
	<rect x="0.5" y="51.4" fill="#D52122" width="286" height="167.4"/>
	<rect x="13.2" y="141.6" fill="#3C272A" width="65.6" height="63.3"/>
	<rect x="79.1" y="141.6" fill="#3C272A" width="65.6" height="63.3"/>
	<rect x="145.3" y="141.6" fill="#3C272A" width="65.6" height="63.3"/>
	<rect x="11.6" y="200.5" fill="#EADCC4" width="68.1" height="6.1"/>
	<rect x="77.8" y="200.5" fill="#EADCC4" width="68.1" height="6.1"/>
	<rect x="143.7" y="200.5" fill="#EADCC4" width="68.1" height="6.1"/>
	<rect x="0.7" y="125" fill="#C3181D" width="16.3" height="4.8"/>
	<rect x="8.6" y="95.1" fill="#C3181D" width="16.3" height="4.8"/>
	<rect x="40" y="127.8" fill="#C3181D" width="16.3" height="4.8"/>
	<rect x="1.8" y="208.6" fill="#C3181D" width="16.3" height="4.8"/>
	<rect x="179.7" y="210.4" fill="#C3181D" width="16.3" height="4.8"/>
	<rect x="217.9" y="127.4" fill="#C3181D" width="16.3" height="4.8"/>
	<rect x="165.2" y="121.2" fill="#C3181D" width="16.3" height="4.8"/>
	<rect x="97.5" y="108.9" fill="#C3181D" width="16.3" height="4.8"/>
	<rect x="59.7" y="67.6" fill="#A2583A" width="16.3" height="4.8"/>
	<rect x="141.4" y="76.4" fill="#C3181D" width="16.3" height="4.8"/>
	<rect x="219.2" y="77.7" fill="#C3181D" width="16.3" height="4.8"/>
	<rect x="280.3" y="109.5" fill="#C3181D" width="6.3" height="4.5"/>
	<rect x="281.2" y="211.3" fill="#C3181D" width="5.3" height="4.5"/>
	<rect x="13" y="141.2" fill="#CCCCCC" width="66.4" height="14.5"/>
	<rect x="38.6" y="148.1" fill="#62584F" width="14.7" height="6.5"/>
	<polygon fill="#EADCC4" points="13,167 15.6,167 20,140 13,140 	"/>
	<polygon fill="#EADCC4" points="79,167 76.5,167 72.1,140 79,140 	"/>
	<rect x="13.8" y="140.7" fill="#EADCC4" width="65.5" height="5"/>
	<rect x="78.9" y="141.2" fill="#CCCCCC" width="66.4" height="14.5"/>
	<rect x="104.4" y="148.1" fill="#62584F" width="14.7" height="6.5"/>
	<polygon fill="#EADCC4" points="79,167 81.5,167 85.9,140 79,140 	"/>
	<polygon fill="#EADCC4" points="145,167 142.4,167 138,140 145,140 	"/>
	<rect x="79.7" y="140.7" fill="#EADCC4" width="65.5" height="5"/>
	<rect x="145" y="141.2" fill="#CCCCCC" width="66.4" height="14.5"/>
	<rect x="170.6" y="148.1" fill="#62584F" width="14.7" height="6.5"/>
	<polygon fill="#EADCC4" points="145,167 147.6,167 152.1,140 145,140 	"/>
	<polygon fill="#EADCC4" points="212,167 208.6,167 204.2,140 212,140 	"/>
	<rect x="145.9" y="140.7" fill="#EADCC4" width="65.5" height="5"/>
	<rect x="211.2" y="141.6" fill="#3C272A" width="65.6" height="63.3"/>
	<rect x="209.6" y="200.5" fill="#EADCC4" width="68.1" height="6.1"/>
	<rect x="210.9" y="141.2" fill="#CCCCCC" width="66.4" height="14.5"/>
	<rect x="236.5" y="148.1" fill="#62584F" width="14.7" height="6.5"/>
	<polygon fill="#EADCC4" points="212,167 213.5,167 218,140 212,140 	"/>
	<polygon fill="#EADCC4" points="277,167 274.5,167 270.1,140 277,140 	"/>
	<rect x="211.8" y="140.7" fill="#EADCC4" width="65.5" height="5"/>
	<rect x="16.7" y="83.4" fill="#754C24" width="21.3" height="32.2"/>
	<polygon fill="#ADFFFF" points="19,91 22.8,91 19,87.3 	"/>
	<polygon fill="#ADFFFF" points="27,85 21.7,85 27,89.2 	"/>
	<polygon fill="#CAFCFC" points="27,89.2 21.7,85 19,85 19,87.3 22.8,91 27,91 	"/>
	<rect x="16.7" y="83.4" fill="#603813" width="1" height="32.3"/>
	<rect x="37.2" y="83.4" fill="#603813" width="1" height="32.3"/>
	<rect x="16.7" y="83.5" fill="#603813" width="21.4" height="1"/>
	<rect x="16.7" y="114.8" fill="#603813" width="21.4" height="1"/>
	<rect x="18.9" y="85.2" fill="#603813" width="7.7" height="0.6"/>
	<polygon fill="#ADFFFF" points="28,91 32,91 28,87.3 	"/>
	<polygon fill="#ADFFFF" points="36,85 30.9,85 36,89.2 	"/>
	<polygon fill="#CAFCFC" points="36,89.2 30.9,85 28,85 28,87.3 32,91 36,91 	"/>
	<rect x="28" y="85.2" fill="#603813" width="7.7" height="0.6"/>
	<polygon fill="#ADFFFF" points="19,99 22.8,99 19,94.8 	"/>
	<polygon fill="#ADFFFF" points="27,93 21.7,93 27,96.7 	"/>
	<polygon fill="#CAFCFC" points="27,96.7 21.7,93 19,93 19,94.8 22.8,99 27,99 	"/>
	<rect x="18.9" y="92.8" fill="#603813" width="7.7" height="0.6"/>
	<polygon fill="#ADFFFF" points="28,99 32,99 28,94.8 	"/>
	<polygon fill="#ADFFFF" points="36,93 30.9,93 36,96.7 	"/>
	<polygon fill="#CAFCFC" points="36,96.7 30.9,93 28,93 28,94.8 32,99 36,99 	"/>
	<rect x="28" y="92.8" fill="#603813" width="7.7" height="0.6"/>
	<polygon fill="#ADFFFF" points="19,106 22.8,106 19,102.4 	"/>
	<polygon fill="#ADFFFF" points="27,100 21.7,100 27,104.3 	"/>
	<polygon fill="#CAFCFC" points="27,104.3 21.7,100 19,100 19,102.4 22.8,106 27,106 	"/>
	<rect x="18.9" y="100.3" fill="#603813" width="7.7" height="0.6"/>
	<polygon fill="#ADFFFF" points="28,106 32,106 28,102.4 	"/>
	<polygon fill="#ADFFFF" points="36,100 30.9,100 36,104.3 	"/>
	<polygon fill="#CAFCFC" points="36,104.3 30.9,100 28,100 28,102.4 32,106 36,106 	"/>
	<rect x="28" y="100.3" fill="#603813" width="7.7" height="0.6"/>
	<polygon fill="#ADFFFF" points="19,114 22.8,114 19,110 	"/>
	<polygon fill="#ADFFFF" points="27,108 21.7,108 27,111.8 	"/>
	<polygon fill="#CAFCFC" points="27,111.8 21.7,108 19,108 19,110 22.8,114 27,114 	"/>
	<rect x="18.9" y="107.9" fill="#603813" width="7.7" height="0.6"/>
	<polygon fill="#ADFFFF" points="28,114 32,114 28,110 	"/>
	<polygon fill="#ADFFFF" points="36,108 30.9,108 36,111.8 	"/>
	<polygon fill="#CAFCFC" points="36,111.8 30.9,108 28,108 28,110 32,114 36,114 	"/>
	<rect x="28" y="107.9" fill="#603813" width="7.7" height="0.6"/>
	<rect x="85.5" y="83.4" fill="#754C24" width="21.3" height="32.2"/>
	<polygon fill="#ADFFFF" points="88,91 91.6,91 88,87.3 	"/>
	<polygon fill="#ADFFFF" points="96,85 90.5,85 96,89.2 	"/>
	<polygon fill="#CAFCFC" points="96,89.2 90.5,85 88,85 88,87.3 91.6,91 96,91 	"/>
	<rect x="85.5" y="83.4" fill="#603813" width="1" height="32.3"/>
	<rect x="106" y="83.4" fill="#603813" width="1" height="32.3"/>
	<rect x="85.5" y="83.5" fill="#603813" width="21.4" height="1"/>
	<rect x="85.5" y="114.8" fill="#603813" width="21.4" height="1"/>
	<rect x="87.7" y="85.2" fill="#603813" width="7.7" height="0.6"/>
	<polygon fill="#ADFFFF" points="97,91 100.8,91 97,87.3 	"/>
	<polygon fill="#ADFFFF" points="105,85 99.7,85 105,89.2 	"/>
	<polygon fill="#CAFCFC" points="105,89.2 99.7,85 97,85 97,87.3 100.8,91 105,91 	"/>
	<rect x="96.8" y="85.2" fill="#603813" width="7.7" height="0.6"/>
	<polygon fill="#ADFFFF" points="88,99 91.6,99 88,94.8 	"/>
	<polygon fill="#ADFFFF" points="96,93 90.5,93 96,96.7 	"/>
	<polygon fill="#CAFCFC" points="96,96.7 90.5,93 88,93 88,94.8 91.6,99 96,99 	"/>
	<rect x="87.7" y="92.8" fill="#603813" width="7.7" height="0.6"/>
	<polygon fill="#ADFFFF" points="97,99 100.8,99 97,94.8 	"/>
	<polygon fill="#ADFFFF" points="105,93 99.7,93 105,96.7 	"/>
	<polygon fill="#CAFCFC" points="105,96.7 99.7,93 97,93 97,94.8 100.8,99 105,99 	"/>
	<rect x="96.8" y="92.8" fill="#603813" width="7.7" height="0.6"/>
	<polygon fill="#ADFFFF" points="88,106 91.6,106 88,102.4 	"/>
	<polygon fill="#ADFFFF" points="96,100 90.5,100 96,104.3 	"/>
	<polygon fill="#CAFCFC" points="96,104.3 90.5,100 88,100 88,102.4 91.6,106 96,106 	"/>
	<rect x="87.7" y="100.3" fill="#603813" width="7.7" height="0.6"/>
	<polygon fill="#ADFFFF" points="97,106 100.8,106 97,102.4 	"/>
	<polygon fill="#ADFFFF" points="105,100 99.7,100 105,104.3 	"/>
	<polygon fill="#CAFCFC" points="105,104.3 99.7,100 97,100 97,102.4 100.8,106 105,106 	"/>
	<rect x="96.8" y="100.3" fill="#603813" width="7.7" height="0.6"/>
	<polygon fill="#ADFFFF" points="88,114 91.6,114 88,110 	"/>
	<polygon fill="#ADFFFF" points="96,108 90.5,108 96,111.8 	"/>
	<polygon fill="#CAFCFC" points="96,111.8 90.5,108 88,108 88,110 91.6,114 96,114 	"/>
	<rect x="87.7" y="107.9" fill="#603813" width="7.7" height="0.6"/>
	<polygon fill="#ADFFFF" points="97,114 100.8,114 97,110 	"/>
	<polygon fill="#ADFFFF" points="105,108 99.7,108 105,111.8 	"/>
	<polygon fill="#CAFCFC" points="105,111.8 99.7,108 97,108 97,110 100.8,114 105,114 	"/>
	<rect x="96.8" y="107.9" fill="#603813" width="7.7" height="0.6"/>
	<rect x="172.2" y="83.4" fill="#754C24" width="21.3" height="32.2"/>
	<polygon fill="#ADFFFF" points="175,91 178.3,91 175,87.3 	"/>
	<polygon fill="#ADFFFF" points="182,85 177.2,85 182,89.2 	"/>
	<polygon fill="#CAFCFC" points="182,89.2 177.2,85 175,85 175,87.3 178.3,91 182,91 	"/>
	<rect x="172.2" y="83.4" fill="#603813" width="1" height="32.3"/>
	<rect x="192.7" y="83.4" fill="#603813" width="1" height="32.3"/>
	<rect x="172.2" y="83.5" fill="#603813" width="21.4" height="1"/>
	<rect x="172.2" y="114.8" fill="#603813" width="21.4" height="1"/>
	<rect x="174.4" y="85.2" fill="#603813" width="7.7" height="0.6"/>
	<polygon fill="#ADFFFF" points="184,91 187.5,91 184,87.3 	"/>
	<polygon fill="#ADFFFF" points="192,85 186.4,85 192,89.2 	"/>
	<polygon fill="#CAFCFC" points="192,89.2 186.4,85 184,85 184,87.3 187.5,91 192,91 	"/>
	<rect x="183.5" y="85.2" fill="#603813" width="7.7" height="0.6"/>
	<polygon fill="#ADFFFF" points="175,99 178.3,99 175,94.8 	"/>
	<polygon fill="#ADFFFF" points="182,93 177.2,93 182,96.7 	"/>
	<polygon fill="#CAFCFC" points="182,96.7 177.2,93 175,93 175,94.8 178.3,99 182,99 	"/>
	<rect x="174.4" y="92.8" fill="#603813" width="7.7" height="0.6"/>
	<polygon fill="#ADFFFF" points="184,99 187.5,99 184,94.8 	"/>
	<polygon fill="#ADFFFF" points="192,93 186.4,93 192,96.7 	"/>
	<polygon fill="#CAFCFC" points="192,96.7 186.4,93 184,93 184,94.8 187.5,99 192,99 	"/>
	<rect x="183.5" y="92.8" fill="#603813" width="7.7" height="0.6"/>
	<polygon fill="#ADFFFF" points="175,106 178.3,106 175,102.4 	"/>
	<polygon fill="#ADFFFF" points="182,100 177.2,100 182,104.3 	"/>
	<polygon fill="#CAFCFC" points="182,104.3 177.2,100 175,100 175,102.4 178.3,106 182,106 	"/>
	<rect x="174.4" y="100.3" fill="#603813" width="7.7" height="0.6"/>
	<polygon fill="#ADFFFF" points="184,106 187.5,106 184,102.4 	"/>
	<polygon fill="#ADFFFF" points="192,100 186.4,100 192,104.3 	"/>
	<polygon fill="#CAFCFC" points="192,104.3 186.4,100 184,100 184,102.4 187.5,106 192,106 	"/>
	<rect x="183.5" y="100.3" fill="#603813" width="7.7" height="0.6"/>
	<polygon fill="#ADFFFF" points="175,114 178.3,114 175,110 	"/>
	<polygon fill="#ADFFFF" points="182,108 177.2,108 182,111.8 	"/>
	<polygon fill="#CAFCFC" points="182,111.8 177.2,108 175,108 175,110 178.3,114 182,114 	"/>
	<rect x="174.4" y="107.9" fill="#603813" width="7.7" height="0.6"/>
	<polygon fill="#ADFFFF" points="184,114 187.5,114 184,110 	"/>
	<polygon fill="#ADFFFF" points="192,108 186.4,108 192,111.8 	"/>
	<polygon fill="#CAFCFC" points="192,111.8 186.4,108 184,108 184,110 187.5,114 192,114 	"/>
	<rect x="183.5" y="107.9" fill="#603813" width="7.7" height="0.6"/>
	<rect x="245.7" y="83.4" fill="#754C24" width="21.3" height="32.2"/>
	<polygon fill="#ADFFFF" points="248,91 251.8,91 248,87.3 	"/>
	<polygon fill="#ADFFFF" points="255,85 250.7,85 255,89.2 	"/>
	<polygon fill="#CAFCFC" points="255,89.2 250.7,85 248,85 248,87.3 251.8,91 255,91 	"/>
	<rect x="245.7" y="83.4" fill="#603813" width="1" height="32.3"/>
	<rect x="266.2" y="83.4" fill="#603813" width="1" height="32.3"/>
	<rect x="245.7" y="83.5" fill="#603813" width="21.4" height="1"/>
	<rect x="245.7" y="114.8" fill="#603813" width="21.4" height="1"/>
	<rect x="247.9" y="85.2" fill="#603813" width="7.7" height="0.6"/>
	<polygon fill="#ADFFFF" points="258,91 261,91 258,87.3 	"/>
	<polygon fill="#ADFFFF" points="265,85 259.9,85 265,89.2 	"/>
	<polygon fill="#CAFCFC" points="265,89.2 259.9,85 258,85 258,87.3 261,91 265,91 	"/>
	<rect x="257" y="85.2" fill="#603813" width="7.7" height="0.6"/>
	<polygon fill="#ADFFFF" points="248,99 251.8,99 248,94.8 	"/>
	<polygon fill="#ADFFFF" points="255,93 250.7,93 255,96.7 	"/>
	<polygon fill="#CAFCFC" points="255,96.7 250.7,93 248,93 248,94.8 251.8,99 255,99 	"/>
	<rect x="247.9" y="92.8" fill="#603813" width="7.7" height="0.6"/>
	<polygon fill="#ADFFFF" points="258,99 261,99 258,94.8 	"/>
	<polygon fill="#ADFFFF" points="265,93 259.9,93 265,96.7 	"/>
	<polygon fill="#CAFCFC" points="265,96.7 259.9,93 258,93 258,94.8 261,99 265,99 	"/>
	<rect x="257" y="92.8" fill="#603813" width="7.7" height="0.6"/>
	<polygon fill="#ADFFFF" points="248,106 251.8,106 248,102.4 	"/>
	<polygon fill="#ADFFFF" points="255,100 250.7,100 255,104.3 	"/>
	<polygon fill="#CAFCFC" points="255,104.3 250.7,100 248,100 248,102.4 251.8,106 255,106 	"/>
	<rect x="247.9" y="100.3" fill="#603813" width="7.7" height="0.6"/>
	<polygon fill="#ADFFFF" points="258,106 261,106 258,102.4 	"/>
	<polygon fill="#ADFFFF" points="265,100 259.9,100 265,104.3 	"/>
	<polygon fill="#CAFCFC" points="265,104.3 259.9,100 258,100 258,102.4 261,106 265,106 	"/>
	<rect x="257" y="100.3" fill="#603813" width="7.7" height="0.6"/>
	<polygon fill="#ADFFFF" points="248,114 251.8,114 248,110 	"/>
	<polygon fill="#ADFFFF" points="255,108 250.7,108 255,111.8 	"/>
	<polygon fill="#CAFCFC" points="255,111.8 250.7,108 248,108 248,110 251.8,114 255,114 	"/>
	<rect x="247.9" y="107.9" fill="#603813" width="7.7" height="0.6"/>
	<polygon fill="#ADFFFF" points="258,114 261,114 258,110 	"/>
	<polygon fill="#ADFFFF" points="265,108 259.9,108 265,111.8 	"/>
	<polygon fill="#CAFCFC" points="265,111.8 259.9,108 258,108 258,110 261,114 265,114 	"/>
	<rect x="257" y="107.9" fill="#603813" width="7.7" height="0.6"/>
	<rect x="2" y="55.1" fill="#E6E6E6" width="281.1" height="22"/>
	<rect x="5.8" y="57.3" fill="#740E47" width="274.2" height="17.5"/>
	<path fill="#FFFFFF" d="M34.6,67.7c-0.2,0.8-0.6,1.5-1.2,1.9c-0.6,0.4-1.3,0.7-2.2,0.7c-0.8,0-1.4-0.2-1.9-0.5
		c-0.5-0.3-0.9-0.7-1.1-1.1c-0.1-0.1-0.1-0.3-0.2-0.4c-0.1-0.1-0.1-0.3-0.1-0.5c-0.1-0.4-0.1-1.1-0.1-2.1c0-1,0-1.7,0.1-2.1
		c0.1-0.4,0.2-0.6,0.3-0.9c0.2-0.4,0.6-0.8,1.1-1.1c0.5-0.3,1.1-0.5,1.9-0.5c0.9,0,1.7,0.3,2.3,0.8c0.6,0.5,1,1.1,1.1,1.9h-1.6
		c-0.1-0.4-0.3-0.7-0.7-0.9c-0.3-0.2-0.7-0.4-1.2-0.4c-0.3,0-0.6,0.1-0.9,0.2c-0.3,0.1-0.5,0.3-0.6,0.5c-0.2,0.2-0.3,0.4-0.4,0.7
		c-0.1,0.3-0.1,0.9-0.1,1.8c0,0.9,0,1.5,0.1,1.8c0.1,0.3,0.2,0.6,0.4,0.8c0.2,0.2,0.4,0.3,0.6,0.5c0.2,0.1,0.5,0.2,0.9,0.2
		c0.8,0,1.4-0.4,1.9-1.2H34.6z"/>
	<path fill="#FFFFFF" d="M31.2,70.5L31.2,70.5c-0.8,0-1.5-0.2-2.1-0.6c-0.6-0.3-1-0.7-1.2-1.2c-0.1-0.1-0.1-0.3-0.2-0.4
		c-0.1-0.2-0.1-0.3-0.2-0.5c-0.1-0.4-0.1-1.1-0.1-2.1c0-1.1,0-1.8,0.1-2.1c0.1-0.4,0.2-0.7,0.4-0.9c0.2-0.4,0.7-0.8,1.2-1.2
		c0.6-0.4,1.3-0.5,2.1-0.6c1,0,1.9,0.3,2.5,0.8c0.6,0.5,1,1.2,1.2,2l0.1,0.3h-2.1l-0.1-0.2c-0.1-0.3-0.3-0.6-0.6-0.8
		c-0.3-0.2-0.6-0.3-1-0.3c-0.3,0-0.5,0.1-0.7,0.2c-0.2,0.1-0.4,0.2-0.5,0.4c-0.2,0.2-0.3,0.4-0.3,0.6c-0.1,0.3-0.1,0.9-0.1,1.8
		c0,0.9,0,1.5,0.1,1.7c0.1,0.3,0.2,0.5,0.3,0.6c0.1,0.2,0.3,0.3,0.5,0.4c0.2,0.1,0.5,0.2,0.8,0.2c0.7,0,1.2-0.4,1.6-1.1l0.1-0.2H35
		l-0.1,0.3c-0.2,0.9-0.7,1.6-1.3,2.1C32.9,70.3,32.1,70.5,31.2,70.5z M31.2,61.4c-0.7,0-1.3,0.2-1.7,0.5c-0.5,0.3-0.8,0.6-1,1
		c-0.1,0.2-0.2,0.5-0.3,0.8c-0.1,0.3-0.1,1-0.1,2c0,1,0,1.7,0.1,2c0,0.2,0.1,0.3,0.1,0.4c0.1,0.1,0.1,0.2,0.2,0.4
		c0.2,0.4,0.6,0.7,1,1c0.5,0.3,1,0.5,1.7,0.5c0.8,0,1.4-0.2,2-0.6c0.5-0.3,0.8-0.8,1-1.5h-1c-0.5,0.8-1.1,1.2-2,1.2
		c-0.4,0-0.8-0.1-1-0.2c-0.3-0.1-0.5-0.3-0.7-0.5c-0.2-0.2-0.4-0.5-0.4-0.9c-0.1-0.3-0.1-0.9-0.1-1.8c0-0.9,0-1.5,0.1-1.9
		c0.1-0.3,0.2-0.6,0.4-0.9c0.2-0.2,0.4-0.4,0.7-0.5c0.3-0.1,0.6-0.2,1-0.2c0.5,0,1,0.2,1.4,0.4c0.3,0.2,0.5,0.5,0.7,0.9h1
		c-0.2-0.6-0.5-1-1-1.4C32.8,61.6,32.1,61.4,31.2,61.4z"/>
	<path fill="#FFFFFF" d="M35.6,65.7c0-1,0-1.7,0.1-2.1c0.1-0.4,0.2-0.6,0.3-0.9c0.2-0.4,0.6-0.8,1.1-1.1c0.5-0.3,1.1-0.5,1.9-0.5
		c0.8,0,1.4,0.2,1.9,0.5c0.5,0.3,0.9,0.7,1.1,1.1c0.2,0.2,0.3,0.5,0.3,0.9c0.1,0.4,0.1,1.1,0.1,2.1c0,1,0,1.7-0.1,2.1
		c-0.1,0.4-0.2,0.7-0.3,0.9c-0.2,0.4-0.6,0.8-1.1,1.1c-0.5,0.3-1.2,0.5-1.9,0.5c-0.8,0-1.4-0.2-1.9-0.5c-0.5-0.3-0.9-0.7-1.1-1.1
		c-0.1-0.1-0.1-0.3-0.2-0.4c-0.1-0.1-0.1-0.3-0.1-0.5C35.6,67.4,35.6,66.7,35.6,65.7z M37,65.7c0,0.9,0,1.5,0.1,1.8
		c0.1,0.3,0.2,0.6,0.4,0.8c0.2,0.2,0.4,0.3,0.6,0.5c0.2,0.1,0.5,0.2,0.9,0.2c0.4,0,0.7-0.1,0.9-0.2c0.2-0.1,0.4-0.3,0.6-0.5
		c0.2-0.2,0.3-0.4,0.4-0.8c0.1-0.3,0.1-0.9,0.1-1.8c0-0.9,0-1.5-0.1-1.8c-0.1-0.3-0.2-0.6-0.4-0.7c-0.1-0.2-0.3-0.3-0.6-0.5
		c-0.3-0.1-0.6-0.2-0.9-0.2c-0.3,0-0.6,0.1-0.9,0.2c-0.3,0.1-0.5,0.3-0.6,0.5c-0.2,0.2-0.3,0.4-0.4,0.7C37.1,64.2,37,64.8,37,65.7z"
		/>
	<path fill="#FFFFFF" d="M39,70.5L39,70.5c-0.8,0-1.5-0.2-2.1-0.6c-0.6-0.3-1-0.7-1.2-1.2c-0.1-0.1-0.1-0.3-0.2-0.4
		c-0.1-0.2-0.1-0.3-0.2-0.5c-0.1-0.4-0.1-1.1-0.1-2.1c0-1.1,0-1.8,0.1-2.1c0.1-0.4,0.2-0.7,0.4-1c0.2-0.4,0.7-0.8,1.2-1.2
		c0.6-0.4,1.3-0.5,2.1-0.6c0.8,0,1.5,0.2,2.1,0.6c0.5,0.3,0.9,0.7,1.2,1.2c0.2,0.2,0.3,0.6,0.4,0.9c0.1,0.4,0.1,1.1,0.1,2.1
		c0,1,0,1.7-0.1,2.1c-0.1,0.4-0.2,0.7-0.4,1c-0.2,0.4-0.6,0.8-1.2,1.2C40.6,70.3,39.9,70.5,39,70.5L39,70.5z M39,61.4
		c-0.7,0-1.3,0.2-1.7,0.5c-0.5,0.3-0.8,0.6-1,1c-0.1,0.2-0.2,0.5-0.3,0.8c-0.1,0.3-0.1,1-0.1,2.1c0,1,0,1.7,0.1,2
		c0,0.2,0.1,0.3,0.1,0.4c0.1,0.1,0.1,0.2,0.2,0.4c0.2,0.4,0.6,0.7,1,1c0.5,0.3,1,0.5,1.7,0.5c0.7,0,1.3-0.2,1.8-0.5
		c0.5-0.3,0.8-0.6,1-1l0,0c0.1-0.2,0.2-0.4,0.3-0.8c0.1-0.3,0.1-1,0.1-2c0-1,0-1.7-0.1-2.1c-0.1-0.3-0.2-0.6-0.3-0.7l0,0
		c-0.2-0.4-0.5-0.7-1-1C40.3,61.6,39.7,61.4,39,61.4z M39,69.2c-0.4,0-0.8-0.1-1-0.2c-0.3-0.1-0.5-0.3-0.7-0.5
		c-0.2-0.2-0.4-0.5-0.4-0.9c-0.1-0.3-0.1-0.9-0.1-1.8c0-0.9,0-1.5,0.1-1.9c0.1-0.3,0.2-0.6,0.4-0.9c0.2-0.2,0.4-0.4,0.7-0.5
		c0.3-0.1,0.6-0.2,1-0.2l0,0l0,0c0.4,0,0.7,0.1,1,0.2c0.3,0.1,0.5,0.3,0.7,0.5c0.2,0.2,0.4,0.5,0.5,0.9c0.1,0.3,0.1,1,0.1,1.9
		c0,0.9,0,1.5-0.1,1.8c-0.1,0.4-0.2,0.6-0.5,0.9c-0.2,0.2-0.4,0.4-0.7,0.5C39.8,69.1,39.4,69.2,39,69.2z M39,62.8
		c-0.3,0-0.5,0.1-0.8,0.2c-0.2,0.1-0.4,0.2-0.5,0.4c-0.2,0.2-0.3,0.4-0.3,0.6c-0.1,0.3-0.1,0.9-0.1,1.8c0,0.9,0,1.5,0.1,1.7
		c0.1,0.3,0.2,0.5,0.3,0.6c0.1,0.2,0.3,0.3,0.5,0.4c0.2,0.1,0.5,0.2,0.8,0.2c0.3,0,0.6-0.1,0.8-0.2c0.2-0.1,0.4-0.2,0.5-0.4l0,0
		c0.2-0.2,0.3-0.4,0.3-0.6c0.1-0.3,0.1-0.9,0.1-1.7c0-0.9,0-1.5-0.1-1.8c-0.1-0.3-0.2-0.5-0.3-0.6l0,0c-0.1-0.2-0.3-0.3-0.5-0.4
		C39.6,62.8,39.3,62.8,39,62.8z"/>
	<path fill="#FFFFFF" d="M51,67.7c-0.2,0.8-0.6,1.5-1.2,1.9c-0.6,0.4-1.3,0.7-2.2,0.7c-0.8,0-1.4-0.2-1.9-0.5
		c-0.5-0.3-0.9-0.7-1.1-1.1c-0.1-0.1-0.1-0.3-0.2-0.4c-0.1-0.1-0.1-0.3-0.1-0.5c-0.1-0.4-0.1-1.1-0.1-2.1c0-1,0-1.7,0.1-2.1
		c0.1-0.4,0.2-0.6,0.3-0.9c0.2-0.4,0.6-0.8,1.1-1.1c0.5-0.3,1.1-0.5,1.9-0.5c0.9,0,1.7,0.3,2.3,0.8c0.6,0.5,1,1.1,1.1,1.9h-1.6
		c-0.1-0.4-0.3-0.7-0.7-0.9c-0.3-0.2-0.7-0.4-1.2-0.4c-0.3,0-0.6,0.1-0.9,0.2c-0.3,0.1-0.5,0.3-0.6,0.5c-0.2,0.2-0.3,0.4-0.4,0.7
		c-0.1,0.3-0.1,0.9-0.1,1.8c0,0.9,0,1.5,0.1,1.8c0.1,0.3,0.2,0.6,0.4,0.8c0.2,0.2,0.4,0.3,0.6,0.5c0.2,0.1,0.5,0.2,0.9,0.2
		c0.8,0,1.4-0.4,1.9-1.2H51z"/>
	<path fill="#FFFFFF" d="M47.6,70.5L47.6,70.5c-0.8,0-1.5-0.2-2.1-0.6c-0.6-0.3-1-0.7-1.2-1.2c-0.1-0.1-0.1-0.3-0.2-0.4
		C44,68.2,44,68,44,67.8c-0.1-0.4-0.1-1.1-0.1-2.1c0-1.1,0-1.8,0.1-2.1c0.1-0.4,0.2-0.7,0.4-0.9c0.2-0.4,0.7-0.8,1.2-1.2
		c0.6-0.4,1.3-0.5,2.1-0.6c1,0,1.9,0.3,2.5,0.8c0.6,0.5,1,1.2,1.2,2l0.1,0.3h-2.1l-0.1-0.2c-0.1-0.3-0.3-0.6-0.6-0.8
		c-0.3-0.2-0.6-0.3-1-0.3c-0.3,0-0.5,0.1-0.7,0.2c-0.2,0.1-0.4,0.2-0.5,0.4c-0.2,0.2-0.3,0.4-0.3,0.6c-0.1,0.3-0.1,0.9-0.1,1.8
		c0,0.9,0,1.5,0.1,1.7c0.1,0.3,0.2,0.5,0.3,0.6c0.1,0.2,0.3,0.3,0.5,0.4c0.2,0.1,0.5,0.2,0.8,0.2c0.7,0,1.2-0.4,1.6-1.1l0.1-0.2h2.1
		l-0.1,0.3c-0.2,0.9-0.7,1.6-1.3,2.1C49.3,70.3,48.5,70.5,47.6,70.5z M47.6,61.4c-0.7,0-1.3,0.2-1.7,0.5c-0.5,0.3-0.8,0.6-1,1
		c-0.1,0.2-0.2,0.5-0.3,0.8c-0.1,0.3-0.1,1-0.1,2c0,1,0,1.7,0.1,2c0,0.2,0.1,0.3,0.1,0.4c0.1,0.1,0.1,0.2,0.2,0.4
		c0.2,0.4,0.6,0.7,1,1c0.5,0.3,1,0.5,1.7,0.5c0.8,0,1.4-0.2,2-0.6c0.5-0.3,0.8-0.8,1-1.5h-1c-0.5,0.8-1.1,1.2-2,1.2
		c-0.4,0-0.8-0.1-1-0.2c-0.3-0.1-0.5-0.3-0.7-0.5c-0.2-0.2-0.4-0.5-0.4-0.9c-0.1-0.3-0.1-0.9-0.1-1.8c0-0.9,0-1.5,0.1-1.9
		c0.1-0.3,0.2-0.6,0.4-0.9c0.2-0.2,0.4-0.4,0.7-0.5c0.3-0.1,0.6-0.2,1-0.2c0.5,0,1,0.2,1.4,0.4c0.3,0.2,0.5,0.5,0.7,0.9h1
		c-0.2-0.6-0.5-1-1-1.4C49.2,61.6,48.5,61.4,47.6,61.4z"/>
	<path fill="#FFFFFF" d="M57.3,68.2h-3.7l-0.7,2h-1.6l3.5-9H56l3.5,9H58L57.3,68.2z M56.8,67l-1.4-3.9h0L54,67H56.8z"/>
	<path fill="#FFFFFF" d="M60,70.5h-2.2l-0.8-2h-3.3l-0.7,2h-2.2l3.7-9.5h1.6L60,70.5z M58.2,69.9h0.9l-3.3-8.5H55l-3.3,8.5h0.9
		l0.7-2h4.1L58.2,69.9z M57.2,67.2h-3.6l1.6-4.5h0.5L57.2,67.2z M54.4,66.7h2l-1-2.8L54.4,66.7z"/>
	<path fill="#FFFFFF" d="M91.4,67.7c-0.2,0.8-0.6,1.5-1.2,1.9c-0.6,0.4-1.3,0.7-2.2,0.7c-0.8,0-1.4-0.2-1.9-0.5
		c-0.5-0.3-0.9-0.7-1.1-1.1c-0.1-0.1-0.1-0.3-0.2-0.4c-0.1-0.1-0.1-0.3-0.1-0.5c-0.1-0.4-0.1-1.1-0.1-2.1c0-1,0-1.7,0.1-2.1
		c0.1-0.4,0.2-0.6,0.3-0.9c0.2-0.4,0.6-0.8,1.1-1.1c0.5-0.3,1.1-0.5,1.9-0.5c0.9,0,1.7,0.3,2.3,0.8c0.6,0.5,1,1.1,1.1,1.9h-1.6
		c-0.1-0.4-0.3-0.7-0.7-0.9c-0.3-0.2-0.7-0.4-1.2-0.4c-0.3,0-0.6,0.1-0.9,0.2c-0.3,0.1-0.5,0.3-0.6,0.5c-0.2,0.2-0.3,0.4-0.4,0.7
		c-0.1,0.3-0.1,0.9-0.1,1.8c0,0.9,0,1.5,0.1,1.8c0.1,0.3,0.2,0.6,0.4,0.8c0.2,0.2,0.4,0.3,0.6,0.5c0.2,0.1,0.5,0.2,0.9,0.2
		c0.8,0,1.4-0.4,1.9-1.2H91.4z"/>
	<path fill="#FFFFFF" d="M88,70.5L88,70.5c-0.8,0-1.5-0.2-2.1-0.6c-0.6-0.3-1-0.7-1.2-1.2c-0.1-0.1-0.1-0.3-0.2-0.4
		c-0.1-0.2-0.1-0.3-0.2-0.5c-0.1-0.4-0.1-1.1-0.1-2.1c0-1.1,0-1.8,0.1-2.1c0.1-0.4,0.2-0.7,0.4-0.9c0.2-0.4,0.7-0.8,1.2-1.2
		c0.6-0.4,1.3-0.5,2.1-0.6c1,0,1.9,0.3,2.5,0.8c0.6,0.5,1,1.2,1.2,2l0.1,0.3h-2.1l-0.1-0.2c-0.1-0.3-0.3-0.6-0.6-0.8
		c-0.3-0.2-0.6-0.3-1-0.3c-0.3,0-0.5,0.1-0.7,0.2c-0.2,0.1-0.4,0.2-0.5,0.4c-0.2,0.2-0.3,0.4-0.3,0.6c-0.1,0.3-0.1,0.9-0.1,1.8
		c0,0.9,0,1.5,0.1,1.7c0.1,0.3,0.2,0.5,0.3,0.6c0.1,0.2,0.3,0.3,0.5,0.4c0.2,0.1,0.5,0.2,0.8,0.2c0.7,0,1.2-0.4,1.6-1.1l0.1-0.2h2.1
		l-0.1,0.3c-0.2,0.9-0.7,1.6-1.3,2.1C89.7,70.3,88.9,70.5,88,70.5z M88,61.4c-0.7,0-1.3,0.2-1.7,0.5c-0.5,0.3-0.8,0.6-1,1
		c-0.1,0.2-0.2,0.5-0.3,0.8c-0.1,0.3-0.1,1-0.1,2c0,1,0,1.7,0.1,2c0,0.2,0.1,0.3,0.1,0.4c0.1,0.1,0.1,0.2,0.2,0.4
		c0.2,0.4,0.6,0.7,1,1c0.5,0.3,1,0.5,1.7,0.5c0.8,0,1.4-0.2,2-0.6c0.5-0.3,0.8-0.8,1-1.5h-1c-0.5,0.8-1.1,1.2-2,1.2
		c-0.4,0-0.8-0.1-1-0.2c-0.3-0.1-0.5-0.3-0.7-0.5c-0.2-0.2-0.4-0.5-0.4-0.9c-0.1-0.3-0.1-0.9-0.1-1.8c0-0.9,0-1.5,0.1-1.9
		c0.1-0.3,0.2-0.6,0.4-0.9c0.2-0.2,0.4-0.4,0.7-0.5c0.3-0.1,0.6-0.2,1-0.2c0.5,0,1,0.2,1.4,0.4c0.3,0.2,0.5,0.5,0.7,0.9h1
		c-0.2-0.6-0.5-1-1-1.4C89.6,61.6,88.9,61.4,88,61.4z"/>
	<path fill="#FFFFFF" d="M92.4,65.7c0-1,0-1.7,0.1-2.1c0.1-0.4,0.2-0.6,0.3-0.9c0.2-0.4,0.6-0.8,1.1-1.1c0.5-0.3,1.1-0.5,1.9-0.5
		c0.8,0,1.4,0.2,1.9,0.5c0.5,0.3,0.9,0.7,1.1,1.1c0.2,0.2,0.3,0.5,0.3,0.9c0.1,0.4,0.1,1.1,0.1,2.1c0,1,0,1.7-0.1,2.1
		c-0.1,0.4-0.2,0.7-0.3,0.9c-0.2,0.4-0.6,0.8-1.1,1.1c-0.5,0.3-1.2,0.5-1.9,0.5c-0.8,0-1.4-0.2-1.9-0.5c-0.5-0.3-0.9-0.7-1.1-1.1
		c-0.1-0.1-0.1-0.3-0.2-0.4c-0.1-0.1-0.1-0.3-0.1-0.5C92.4,67.4,92.4,66.7,92.4,65.7z M93.8,65.7c0,0.9,0,1.5,0.1,1.8
		c0.1,0.3,0.2,0.6,0.4,0.8c0.2,0.2,0.4,0.3,0.6,0.5c0.2,0.1,0.5,0.2,0.9,0.2c0.4,0,0.7-0.1,0.9-0.2c0.2-0.1,0.4-0.3,0.6-0.5
		c0.2-0.2,0.3-0.4,0.4-0.8c0.1-0.3,0.1-0.9,0.1-1.8c0-0.9,0-1.5-0.1-1.8c-0.1-0.3-0.2-0.6-0.4-0.7c-0.1-0.2-0.3-0.3-0.6-0.5
		c-0.3-0.1-0.6-0.2-0.9-0.2c-0.3,0-0.6,0.1-0.9,0.2c-0.3,0.1-0.5,0.3-0.6,0.5c-0.2,0.2-0.3,0.4-0.4,0.7
		C93.9,64.2,93.8,64.8,93.8,65.7z"/>
	<path fill="#FFFFFF" d="M95.8,70.5L95.8,70.5c-0.8,0-1.5-0.2-2.1-0.6c-0.6-0.3-1-0.7-1.2-1.2c-0.1-0.1-0.1-0.3-0.2-0.4
		c-0.1-0.2-0.1-0.3-0.2-0.5c-0.1-0.4-0.1-1.1-0.1-2.1c0-1.1,0-1.8,0.1-2.1c0.1-0.4,0.2-0.7,0.4-1c0.2-0.4,0.7-0.8,1.2-1.2
		c0.6-0.4,1.3-0.5,2.1-0.6c0.8,0,1.5,0.2,2.1,0.6c0.5,0.3,0.9,0.7,1.2,1.2c0.2,0.2,0.3,0.6,0.4,0.9c0.1,0.4,0.1,1.1,0.1,2.1
		c0,1,0,1.7-0.1,2.1c-0.1,0.4-0.2,0.7-0.4,1c-0.2,0.4-0.6,0.8-1.2,1.2C97.4,70.3,96.7,70.5,95.8,70.5L95.8,70.5z M95.8,61.4
		c-0.7,0-1.3,0.2-1.7,0.5c-0.5,0.3-0.8,0.6-1,1c-0.1,0.2-0.2,0.5-0.3,0.8c-0.1,0.3-0.1,1-0.1,2.1c0,1,0,1.7,0.1,2
		c0,0.2,0.1,0.3,0.1,0.4c0.1,0.1,0.1,0.2,0.2,0.4c0.2,0.4,0.6,0.7,1,1c0.5,0.3,1,0.5,1.7,0.5c0.7,0,1.3-0.2,1.8-0.5
		c0.5-0.3,0.8-0.6,1-1l0,0c0.1-0.2,0.2-0.4,0.3-0.8c0.1-0.3,0.1-1,0.1-2c0-1,0-1.7-0.1-2.1c-0.1-0.3-0.2-0.6-0.3-0.7l0,0
		c-0.2-0.4-0.5-0.7-1-1C97.1,61.6,96.5,61.4,95.8,61.4z M95.8,69.2c-0.4,0-0.8-0.1-1-0.2c-0.3-0.1-0.5-0.3-0.7-0.5
		c-0.2-0.2-0.4-0.5-0.4-0.9c-0.1-0.3-0.1-0.9-0.1-1.8c0-0.9,0-1.5,0.1-1.9c0.1-0.3,0.2-0.6,0.4-0.9c0.2-0.2,0.4-0.4,0.7-0.5
		c0.3-0.1,0.6-0.2,1-0.2l0,0l0,0c0.4,0,0.7,0.1,1,0.2c0.3,0.1,0.5,0.3,0.7,0.5c0.2,0.2,0.4,0.5,0.4,0.9c0.1,0.3,0.1,1,0.1,1.9
		c0,0.9,0,1.5-0.1,1.8c-0.1,0.4-0.2,0.6-0.5,0.9c-0.2,0.2-0.4,0.4-0.7,0.5C96.6,69.1,96.2,69.2,95.8,69.2z M95.8,62.8
		c-0.3,0-0.5,0.1-0.8,0.2c-0.2,0.1-0.4,0.2-0.5,0.4c-0.2,0.2-0.3,0.4-0.3,0.6c-0.1,0.3-0.1,0.9-0.1,1.8c0,0.9,0,1.5,0.1,1.7
		c0.1,0.3,0.2,0.5,0.3,0.6c0.1,0.2,0.3,0.3,0.5,0.4c0.2,0.1,0.5,0.2,0.8,0.2c0.3,0,0.6-0.1,0.8-0.2c0.2-0.1,0.4-0.2,0.5-0.4l0,0
		c0.2-0.2,0.3-0.4,0.3-0.6c0.1-0.3,0.1-0.9,0.1-1.7c0-0.9,0-1.5-0.1-1.8c-0.1-0.3-0.2-0.5-0.3-0.6l0,0c-0.1-0.2-0.3-0.3-0.5-0.4
		C96.4,62.8,96.1,62.8,95.8,62.8z"/>
	<path fill="#FFFFFF" d="M101.3,61.2h1.5v7.7h4.7v1.3h-6.2V61.2z"/>
	<path fill="#FFFFFF" d="M107.8,70.5H101v-9.5h2.1v7.7h4.7V70.5z M101.6,69.9h5.6v-0.8h-4.7v-7.7h-0.9V69.9z"/>
	<path fill="#FFFFFF" d="M114.1,68.2h-3.7l-0.7,2h-1.6l3.5-9h1.2l3.5,9h-1.5L114.1,68.2z M113.6,67l-1.4-3.9h0l-1.4,3.9H113.6z"/>
	<path fill="#FFFFFF" d="M116.8,70.5h-2.2l-0.8-2h-3.3l-0.7,2h-2.2l3.7-9.5h1.6L116.8,70.5z M115,69.9h0.9l-3.3-8.5h-0.8l-3.3,8.5
		h0.9l0.7-2h4.1L115,69.9z M114,67.2h-3.6l1.6-4.5h0.5L114,67.2z M111.2,66.7h2l-1-2.8L111.2,66.7z"/>
	<path fill="#FFFFFF" d="M150.8,61.2h3.8c1,0,1.7,0.2,2.1,0.7c0.5,0.4,0.7,1,0.7,1.7c0,0.4-0.1,0.7-0.3,1.1
		c-0.1,0.2-0.2,0.3-0.4,0.5c-0.2,0.2-0.4,0.3-0.7,0.4v0c0.5,0.1,0.9,0.4,1.2,0.8c0.3,0.4,0.4,0.8,0.4,1.3c0,0.8-0.3,1.4-0.8,1.8
		c-0.5,0.5-1.1,0.7-1.9,0.7h-4.1V61.2z M152.3,62.4V65h2.1c0.5,0,0.9-0.1,1.2-0.4c0.3-0.2,0.4-0.5,0.4-0.9c0-0.4-0.1-0.7-0.4-0.9
		c-0.3-0.2-0.6-0.4-1.2-0.4H152.3z M152.3,66.2v2.7h2.3c0.5,0,0.9-0.1,1.2-0.4c0.3-0.3,0.4-0.6,0.4-0.9c0-0.4-0.1-0.7-0.4-1
		c-0.3-0.3-0.7-0.4-1.2-0.4H152.3z"/>
	<path fill="#FFFFFF" d="M154.9,70.5h-4.4v-9.5h4c1,0,1.8,0.3,2.4,0.7c0.5,0.5,0.8,1.1,0.8,1.9c0,0.4-0.1,0.8-0.3,1.2
		c-0.1,0.2-0.3,0.4-0.5,0.5c-0.1,0.1-0.2,0.1-0.3,0.2c0.3,0.2,0.6,0.4,0.8,0.7c0.3,0.4,0.4,0.9,0.4,1.4c0,0.8-0.3,1.5-0.9,2
		C156.5,70.2,155.8,70.5,154.9,70.5z M151.1,69.9h3.8c0.7,0,1.2-0.2,1.7-0.6c0.5-0.4,0.7-1,0.7-1.7c0-0.4-0.1-0.8-0.3-1.2
		c-0.2-0.3-0.6-0.5-1-0.6l-0.2-0.1v-0.4l0.2-0.1c0.3-0.1,0.5-0.2,0.6-0.4c0.2-0.1,0.3-0.3,0.4-0.4c0.2-0.3,0.3-0.6,0.2-0.9
		c0-0.7-0.2-1.2-0.6-1.6c-0.4-0.4-1.1-0.6-1.9-0.6h-3.5V69.9z M152.3,69.2H152v-3.2h2.6c0.6,0,1.1,0.2,1.4,0.5
		c0.3,0.3,0.5,0.7,0.5,1.1c0,0.4-0.2,0.8-0.5,1.1c-0.3,0.3-0.8,0.5-1.4,0.5H152.3z M152.6,68.7h2c0.5,0,0.8-0.1,1-0.3
		c0.2-0.2,0.3-0.5,0.3-0.8c0-0.3-0.1-0.6-0.3-0.8c-0.2-0.2-0.5-0.3-1-0.3h-2V68.7z M154.4,65.3H152v-3.1h2.4c0.6,0,1.1,0.2,1.4,0.4
		c0.3,0.3,0.5,0.7,0.5,1.1c0,0.4-0.2,0.8-0.5,1.1C155.5,65.1,155,65.3,154.4,65.3z M152.6,64.7h1.8c0.5,0,0.8-0.1,1-0.3
		c0.2-0.2,0.3-0.4,0.3-0.7c0-0.3-0.1-0.5-0.3-0.7c-0.2-0.2-0.5-0.3-1-0.3h-1.8V64.7z"/>
	<path fill="#FFFFFF" d="M159.1,65.7c0-1,0-1.7,0.1-2.1c0.1-0.4,0.2-0.6,0.3-0.9c0.2-0.4,0.6-0.8,1.1-1.1c0.5-0.3,1.1-0.5,1.9-0.5
		c0.8,0,1.4,0.2,1.9,0.5c0.5,0.3,0.9,0.7,1.1,1.1c0.2,0.2,0.3,0.5,0.3,0.9c0.1,0.4,0.1,1.1,0.1,2.1c0,1,0,1.7-0.1,2.1
		c-0.1,0.4-0.2,0.7-0.3,0.9c-0.2,0.4-0.6,0.8-1.1,1.1c-0.5,0.3-1.2,0.5-1.9,0.5c-0.8,0-1.4-0.2-1.9-0.5c-0.5-0.3-0.9-0.7-1.1-1.1
		c-0.1-0.1-0.1-0.3-0.2-0.4c-0.1-0.1-0.1-0.3-0.1-0.5C159.1,67.4,159.1,66.7,159.1,65.7z M160.5,65.7c0,0.9,0,1.5,0.1,1.8
		c0.1,0.3,0.2,0.6,0.4,0.8c0.2,0.2,0.4,0.3,0.6,0.5c0.2,0.1,0.5,0.2,0.9,0.2c0.4,0,0.7-0.1,0.9-0.2c0.2-0.1,0.4-0.3,0.6-0.5
		c0.2-0.2,0.3-0.4,0.4-0.8c0.1-0.3,0.1-0.9,0.1-1.8c0-0.9,0-1.5-0.1-1.8c-0.1-0.3-0.2-0.6-0.4-0.7c-0.1-0.2-0.3-0.3-0.6-0.5
		c-0.3-0.1-0.6-0.2-0.9-0.2c-0.3,0-0.6,0.1-0.9,0.2c-0.3,0.1-0.5,0.3-0.6,0.5c-0.2,0.2-0.3,0.4-0.4,0.7
		C160.6,64.2,160.5,64.8,160.5,65.7z"/>
	<path fill="#FFFFFF" d="M162.5,70.5L162.5,70.5c-0.8,0-1.5-0.2-2.1-0.6c-0.6-0.3-1-0.7-1.2-1.2c-0.1-0.1-0.1-0.3-0.2-0.4
		c-0.1-0.2-0.1-0.3-0.2-0.5c-0.1-0.4-0.1-1.1-0.1-2.1c0-1.1,0-1.8,0.1-2.1c0.1-0.4,0.2-0.7,0.4-1c0.2-0.4,0.7-0.8,1.2-1.2
		c0.6-0.4,1.3-0.5,2.1-0.6c0.8,0,1.5,0.2,2.1,0.6c0.5,0.3,0.9,0.7,1.2,1.2c0.2,0.2,0.3,0.6,0.4,0.9c0.1,0.4,0.1,1.1,0.1,2.1
		c0,1,0,1.7-0.1,2.1c-0.1,0.4-0.2,0.7-0.4,1c-0.2,0.4-0.6,0.8-1.2,1.2C164.1,70.3,163.4,70.5,162.5,70.5L162.5,70.5z M162.5,61.4
		c-0.7,0-1.3,0.2-1.7,0.5c-0.5,0.3-0.8,0.6-1,1c-0.1,0.2-0.2,0.5-0.3,0.8c-0.1,0.3-0.1,1-0.1,2.1c0,1,0,1.7,0.1,2
		c0,0.2,0.1,0.3,0.1,0.4c0.1,0.1,0.1,0.2,0.2,0.4c0.2,0.4,0.6,0.7,1,1c0.5,0.3,1,0.5,1.7,0.5c0.7,0,1.3-0.2,1.8-0.5
		c0.5-0.3,0.8-0.6,1-1l0,0c0.1-0.2,0.2-0.4,0.3-0.8c0.1-0.3,0.1-1,0.1-2c0-1,0-1.7-0.1-2.1c-0.1-0.3-0.2-0.6-0.3-0.7l0,0
		c-0.2-0.4-0.5-0.7-1-1C163.8,61.6,163.2,61.4,162.5,61.4z M162.5,69.2c-0.4,0-0.8-0.1-1-0.2c-0.3-0.1-0.5-0.3-0.7-0.5
		c-0.2-0.2-0.4-0.5-0.4-0.9c-0.1-0.3-0.1-0.9-0.1-1.8c0-0.9,0-1.5,0.1-1.9c0.1-0.3,0.2-0.6,0.4-0.9c0.2-0.2,0.4-0.4,0.7-0.5
		c0.3-0.1,0.6-0.2,1-0.2l0,0l0,0c0.4,0,0.7,0.1,1,0.2c0.3,0.1,0.5,0.3,0.7,0.5c0.2,0.2,0.4,0.5,0.4,0.9c0.1,0.3,0.1,1,0.1,1.9
		c0,0.9,0,1.5-0.1,1.8c-0.1,0.4-0.2,0.6-0.5,0.9c-0.2,0.2-0.4,0.4-0.7,0.5C163.3,69.1,162.9,69.2,162.5,69.2z M162.5,62.8
		c-0.3,0-0.5,0.1-0.8,0.2c-0.2,0.1-0.4,0.2-0.5,0.4c-0.2,0.2-0.3,0.4-0.3,0.6c-0.1,0.3-0.1,0.9-0.1,1.8c0,0.9,0,1.5,0.1,1.7
		c0.1,0.3,0.2,0.5,0.3,0.6c0.1,0.2,0.3,0.3,0.5,0.4c0.2,0.1,0.5,0.2,0.8,0.2c0.3,0,0.6-0.1,0.8-0.2c0.2-0.1,0.4-0.2,0.5-0.4l0,0
		c0.2-0.2,0.3-0.4,0.3-0.6c0.1-0.3,0.1-0.9,0.1-1.7c0-0.9,0-1.5-0.1-1.8c-0.1-0.3-0.2-0.5-0.3-0.6l0,0c-0.1-0.2-0.3-0.3-0.5-0.4
		C163.1,62.8,162.8,62.8,162.5,62.8z"/>
	<path fill="#FFFFFF" d="M169.4,62.4h-2.7v-1.2h6.8v1.2h-2.7v7.8h-1.5V62.4z"/>
	<path fill="#FFFFFF" d="M171.1,70.5h-2.1v-7.8h-2.7v-1.7h7.4v1.7h-2.7V70.5z M169.7,69.9h0.9v-7.8h2.7v-0.7H167v0.7h2.7V69.9z"/>
	<path fill="#FFFFFF" d="M176.4,62.4h-2.7v-1.2h6.8v1.2h-2.7v7.8h-1.5V62.4z"/>
	<path fill="#FFFFFF" d="M178.2,70.5h-2.1v-7.8h-2.7v-1.7h7.4v1.7h-2.7V70.5z M176.7,69.9h0.9v-7.8h2.7v-0.7H174v0.7h2.7V69.9z"/>
	<path fill="#FFFFFF" d="M181.8,61.2h1.5v7.7h4.7v1.3h-6.2V61.2z"/>
	<path fill="#FFFFFF" d="M188.3,70.5h-6.8v-9.5h2.1v7.7h4.7V70.5z M182.1,69.9h5.6v-0.8H183v-7.7h-0.9V69.9z"/>
	<path fill="#FFFFFF" d="M189.6,61.2h1.5v9h-1.5V61.2z"/>
	<path fill="#FFFFFF" d="M191.4,70.5h-2.1v-9.5h2.1V70.5z M189.9,69.9h0.9v-8.5h-0.9V69.9z"/>
	<path fill="#FFFFFF" d="M193.2,61.2h1.4l4.4,6.4h0v-6.4h1.5v9h-1.4l-4.4-6.4h0v6.4h-1.5V61.2z"/>
	<path fill="#FFFFFF" d="M200.8,70.5h-1.8l-4-5.8v5.8h-2.1v-9.5h1.8l4,5.8v-5.8h2.1V70.5z M199.3,69.9h0.9v-8.5h-0.9v6.4h-0.5
		l-0.1-0.1l-4.3-6.3h-0.9v8.5h0.9v-6.4h0.5l0.1,0.1L199.3,69.9z"/>
	<path fill="#FFFFFF" d="M206,65.3h3.4v1.8c0,0.9-0.4,1.7-1,2.3c-0.7,0.6-1.5,0.9-2.5,0.9c-0.8,0-1.4-0.2-1.9-0.5
		c-0.5-0.3-0.9-0.7-1.1-1.1c-0.1-0.1-0.1-0.3-0.2-0.4c-0.1-0.1-0.1-0.3-0.1-0.5c-0.1-0.4-0.1-1.1-0.1-2.1c0-1,0-1.7,0.1-2.1
		c0.1-0.4,0.2-0.6,0.3-0.9c0.2-0.4,0.6-0.8,1.1-1.1c0.5-0.3,1.1-0.5,1.9-0.5c0.9,0,1.7,0.3,2.3,0.8c0.6,0.5,1,1.1,1.1,1.9h-1.6
		c-0.1-0.4-0.3-0.7-0.7-0.9c-0.3-0.2-0.7-0.4-1.2-0.4c-0.3,0-0.6,0.1-0.9,0.2c-0.3,0.1-0.5,0.3-0.6,0.5c-0.2,0.2-0.3,0.4-0.4,0.7
		c-0.1,0.3-0.1,0.9-0.1,1.8c0,0.9,0,1.5,0.1,1.8c0.1,0.3,0.2,0.6,0.4,0.8c0.2,0.2,0.4,0.3,0.6,0.5c0.2,0.1,0.5,0.2,0.9,0.2
		c0.6,0,1-0.2,1.4-0.5c0.4-0.3,0.6-0.8,0.6-1.4v-0.5h-2V65.3z"/>
	<path fill="#FFFFFF" d="M206,70.5L206,70.5c-0.8,0-1.5-0.2-2.1-0.6c-0.6-0.3-1-0.7-1.2-1.2c-0.1-0.1-0.1-0.3-0.2-0.4
		c-0.1-0.2-0.1-0.3-0.2-0.5c-0.1-0.4-0.1-1.1-0.1-2.1c0-1.1,0-1.8,0.1-2.1c0.1-0.4,0.2-0.7,0.4-0.9c0.2-0.4,0.7-0.8,1.2-1.2
		c0.6-0.4,1.3-0.5,2.1-0.6c1,0,1.8,0.3,2.5,0.8c0.6,0.5,1,1.2,1.2,2l0.1,0.3h-2.1l-0.1-0.2c-0.1-0.3-0.3-0.6-0.6-0.8
		c-0.3-0.2-0.6-0.3-1-0.3c-0.3,0-0.5,0.1-0.7,0.2c-0.2,0.1-0.4,0.2-0.5,0.4c-0.2,0.2-0.3,0.4-0.3,0.6c-0.1,0.3-0.1,0.9-0.1,1.8
		c0,0.9,0,1.5,0.1,1.7c0.1,0.3,0.2,0.5,0.3,0.6c0.1,0.2,0.3,0.3,0.5,0.4c0.2,0.1,0.5,0.2,0.8,0.2c0.5,0,0.9-0.2,1.2-0.5
		c0.3-0.3,0.5-0.7,0.5-1.2v-0.2h-2V65h4v2.1c0,1-0.4,1.8-1.1,2.4C207.9,70.2,207,70.5,206,70.5L206,70.5z M206,61.4
		c-0.7,0-1.3,0.2-1.7,0.5c-0.5,0.3-0.8,0.6-1,1c-0.1,0.2-0.2,0.5-0.3,0.8c-0.1,0.3-0.1,1-0.1,2.1c0,1,0,1.7,0.1,2
		c0,0.2,0.1,0.3,0.1,0.4c0.1,0.1,0.1,0.2,0.2,0.4c0.2,0.4,0.6,0.7,1,1c0.5,0.3,1,0.5,1.7,0.5c0.9,0,1.6-0.3,2.2-0.8
		c0.6-0.6,0.9-1.2,0.9-2.1v-1.6h-2.9v0.8h2V67c0,0.6-0.2,1.2-0.7,1.5c-0.4,0.4-1,0.6-1.6,0.6c-0.4,0-0.8-0.1-1-0.2
		c-0.3-0.1-0.5-0.3-0.7-0.5c-0.2-0.2-0.4-0.5-0.4-0.9c-0.1-0.3-0.1-0.9-0.1-1.8c0-0.9,0-1.5,0.1-1.9c0.1-0.3,0.2-0.6,0.4-0.9
		c0.2-0.2,0.4-0.4,0.7-0.5c0.3-0.1,0.6-0.2,1-0.2c0.5,0,1,0.2,1.4,0.4c0.3,0.2,0.5,0.5,0.7,0.9h1c-0.2-0.6-0.5-1-1-1.4
		C207.5,61.6,206.8,61.4,206,61.4z"/>
	<path fill="#FFFFFF" d="M251.3,67.7c-0.2,0.8-0.6,1.5-1.2,1.9c-0.6,0.4-1.3,0.7-2.2,0.7c-0.8,0-1.4-0.2-1.9-0.5
		c-0.5-0.3-0.9-0.7-1.1-1.1c-0.1-0.1-0.1-0.3-0.2-0.4c-0.1-0.1-0.1-0.3-0.1-0.5c-0.1-0.4-0.1-1.1-0.1-2.1c0-1,0-1.7,0.1-2.1
		c0.1-0.4,0.2-0.6,0.3-0.9c0.2-0.4,0.6-0.8,1.1-1.1c0.5-0.3,1.1-0.5,1.9-0.5c0.9,0,1.7,0.3,2.3,0.8c0.6,0.5,1,1.1,1.1,1.9h-1.6
		c-0.1-0.4-0.3-0.7-0.7-0.9c-0.3-0.2-0.7-0.4-1.2-0.4c-0.3,0-0.6,0.1-0.9,0.2c-0.3,0.1-0.5,0.3-0.6,0.5c-0.2,0.2-0.3,0.4-0.4,0.7
		c-0.1,0.3-0.1,0.9-0.1,1.8c0,0.9,0,1.5,0.1,1.8c0.1,0.3,0.2,0.6,0.4,0.8c0.2,0.2,0.4,0.3,0.6,0.5c0.2,0.1,0.5,0.2,0.9,0.2
		c0.8,0,1.4-0.4,1.9-1.2H251.3z"/>
	<path fill="#FFFFFF" d="M247.9,70.5L247.9,70.5c-0.8,0-1.5-0.2-2.1-0.6c-0.6-0.3-1-0.7-1.2-1.2c-0.1-0.1-0.1-0.3-0.2-0.4
		c-0.1-0.2-0.1-0.3-0.2-0.5c-0.1-0.4-0.1-1.1-0.1-2.1c0-1.1,0-1.8,0.1-2.1c0.1-0.4,0.2-0.7,0.4-0.9c0.2-0.4,0.7-0.8,1.2-1.2
		c0.6-0.4,1.3-0.5,2.1-0.6c1,0,1.9,0.3,2.5,0.8c0.6,0.5,1,1.2,1.2,2l0.1,0.3h-2.1l-0.1-0.2c-0.1-0.3-0.3-0.6-0.6-0.8
		c-0.3-0.2-0.6-0.3-1-0.3c-0.3,0-0.5,0.1-0.7,0.2c-0.2,0.1-0.4,0.2-0.5,0.4c-0.2,0.2-0.3,0.4-0.3,0.6c-0.1,0.3-0.1,0.9-0.1,1.8
		c0,0.9,0,1.5,0.1,1.7c0.1,0.3,0.2,0.5,0.3,0.6c0.1,0.2,0.3,0.3,0.5,0.4c0.2,0.1,0.5,0.2,0.8,0.2c0.7,0,1.2-0.4,1.6-1.1l0.1-0.2h2.1
		l-0.1,0.3c-0.2,0.9-0.7,1.6-1.3,2.1C249.6,70.3,248.8,70.5,247.9,70.5z M247.9,61.4c-0.7,0-1.3,0.2-1.7,0.5c-0.5,0.3-0.8,0.6-1,1
		c-0.1,0.2-0.2,0.5-0.3,0.8c-0.1,0.3-0.1,1-0.1,2c0,1,0,1.7,0.1,2c0,0.2,0.1,0.3,0.1,0.4c0.1,0.1,0.1,0.2,0.2,0.4
		c0.2,0.4,0.6,0.7,1,1c0.5,0.3,1,0.5,1.7,0.5c0.8,0,1.4-0.2,2-0.6c0.5-0.3,0.8-0.8,1-1.5h-1c-0.5,0.8-1.1,1.2-2,1.2
		c-0.4,0-0.8-0.1-1-0.2c-0.3-0.1-0.5-0.3-0.7-0.5c-0.2-0.2-0.4-0.5-0.4-0.9c-0.1-0.3-0.1-0.9-0.1-1.8c0-0.9,0-1.5,0.1-1.9
		c0.1-0.3,0.2-0.6,0.4-0.9c0.2-0.2,0.4-0.4,0.7-0.5c0.3-0.1,0.6-0.2,1-0.2c0.5,0,1,0.2,1.4,0.4c0.3,0.2,0.5,0.5,0.7,0.9h1
		c-0.2-0.6-0.5-1-1-1.4C249.4,61.6,248.8,61.4,247.9,61.4z"/>
	<path fill="#FFFFFF" d="M252.3,65.7c0-1,0-1.7,0.1-2.1c0.1-0.4,0.2-0.6,0.3-0.9c0.2-0.4,0.6-0.8,1.1-1.1c0.5-0.3,1.1-0.5,1.9-0.5
		c0.8,0,1.4,0.2,1.9,0.5c0.5,0.3,0.9,0.7,1.1,1.1c0.2,0.2,0.3,0.5,0.3,0.9c0.1,0.4,0.1,1.1,0.1,2.1c0,1,0,1.7-0.1,2.1
		c-0.1,0.4-0.2,0.7-0.3,0.9c-0.2,0.4-0.6,0.8-1.1,1.1c-0.5,0.3-1.2,0.5-1.9,0.5c-0.8,0-1.4-0.2-1.9-0.5c-0.5-0.3-0.9-0.7-1.1-1.1
		c-0.1-0.1-0.1-0.3-0.2-0.4c-0.1-0.1-0.1-0.3-0.1-0.5C252.3,67.4,252.3,66.7,252.3,65.7z M253.7,65.7c0,0.9,0,1.5,0.1,1.8
		c0.1,0.3,0.2,0.6,0.4,0.8c0.2,0.2,0.4,0.3,0.6,0.5c0.2,0.1,0.5,0.2,0.9,0.2c0.4,0,0.7-0.1,0.9-0.2c0.2-0.1,0.4-0.3,0.6-0.5
		c0.2-0.2,0.3-0.4,0.4-0.8c0.1-0.3,0.1-0.9,0.1-1.8c0-0.9,0-1.5-0.1-1.8c-0.1-0.3-0.2-0.6-0.4-0.7c-0.1-0.2-0.3-0.3-0.6-0.5
		c-0.3-0.1-0.6-0.2-0.9-0.2c-0.3,0-0.6,0.1-0.9,0.2c-0.3,0.1-0.5,0.3-0.6,0.5c-0.2,0.2-0.3,0.4-0.4,0.7
		C253.8,64.2,253.7,64.8,253.7,65.7z"/>
	<path fill="#FFFFFF" d="M255.7,70.5L255.7,70.5c-0.8,0-1.5-0.2-2.1-0.6c-0.6-0.3-1-0.7-1.2-1.2c-0.1-0.1-0.1-0.3-0.2-0.4
		c-0.1-0.2-0.1-0.3-0.2-0.5c-0.1-0.4-0.1-1.1-0.1-2.1c0-1.1,0-1.8,0.1-2.1c0.1-0.4,0.2-0.7,0.4-1c0.2-0.4,0.7-0.8,1.2-1.2
		c0.6-0.4,1.3-0.5,2.1-0.6c0.8,0,1.5,0.2,2.1,0.6c0.5,0.3,0.9,0.7,1.2,1.2c0.2,0.2,0.3,0.6,0.4,0.9c0.1,0.4,0.1,1.1,0.1,2.1
		c0,1,0,1.7-0.1,2.1c-0.1,0.4-0.2,0.7-0.4,1c-0.2,0.4-0.6,0.8-1.2,1.2C257.3,70.3,256.6,70.5,255.7,70.5L255.7,70.5z M255.7,61.4
		c-0.7,0-1.3,0.2-1.7,0.5c-0.5,0.3-0.8,0.6-1,1c-0.1,0.2-0.2,0.5-0.3,0.8c-0.1,0.3-0.1,1-0.1,2.1c0,1,0,1.7,0.1,2
		c0,0.2,0.1,0.3,0.1,0.4c0.1,0.1,0.1,0.2,0.2,0.4c0.2,0.4,0.6,0.7,1,1c0.5,0.3,1,0.5,1.7,0.5c0.7,0,1.3-0.2,1.8-0.5
		c0.5-0.3,0.8-0.6,1-1l0,0c0.1-0.2,0.2-0.4,0.3-0.8c0.1-0.3,0.1-1,0.1-2c0-1,0-1.7-0.1-2.1c-0.1-0.3-0.2-0.6-0.3-0.7l0,0
		c-0.2-0.4-0.5-0.7-1-1C257,61.6,256.4,61.4,255.7,61.4z M255.7,69.2c-0.4,0-0.8-0.1-1-0.2c-0.3-0.1-0.5-0.3-0.7-0.5
		c-0.2-0.2-0.4-0.5-0.4-0.9c-0.1-0.3-0.1-0.9-0.1-1.8c0-0.9,0-1.5,0.1-1.9c0.1-0.3,0.2-0.6,0.4-0.9c0.2-0.2,0.4-0.4,0.7-0.5
		c0.3-0.1,0.6-0.2,1-0.2l0,0l0,0c0.4,0,0.7,0.1,1,0.2c0.3,0.1,0.5,0.3,0.7,0.5c0.2,0.2,0.4,0.5,0.4,0.9c0.1,0.3,0.1,1,0.1,1.9
		c0,0.9,0,1.5-0.1,1.8c-0.1,0.4-0.2,0.6-0.5,0.9c-0.2,0.2-0.4,0.4-0.7,0.5C256.5,69.1,256.1,69.2,255.7,69.2z M255.7,62.8
		c-0.3,0-0.5,0.1-0.8,0.2c-0.2,0.1-0.4,0.2-0.5,0.4c-0.2,0.2-0.3,0.4-0.3,0.6c-0.1,0.3-0.1,0.9-0.1,1.8c0,0.9,0,1.5,0.1,1.7
		c0.1,0.3,0.2,0.5,0.3,0.6c0.1,0.2,0.3,0.3,0.5,0.4c0.2,0.1,0.5,0.2,0.8,0.2c0.3,0,0.6-0.1,0.8-0.2c0.2-0.1,0.4-0.2,0.5-0.4l0,0
		c0.2-0.2,0.3-0.4,0.3-0.6c0.1-0.3,0.1-0.9,0.1-1.7c0-0.9,0-1.5-0.1-1.8c-0.1-0.3-0.2-0.5-0.3-0.6l0,0c-0.1-0.2-0.3-0.3-0.5-0.4
		C256.3,62.8,256,62.8,255.7,62.8z"/>
	<path fill="#FFFFFF" d="M260.7,68.9h1.4v1.3h-1.4V68.9z"/>
	<path fill="#FFFFFF" d="M262.4,70.5h-2v-1.8h2V70.5z M261,69.9h0.8v-0.8H261V69.9z"/>
	<path fill="#FFFFFF" d="M218.4,90.7h1v7.1h-1V90.7z"/>
	<path fill="#FFFFFF" d="M220.9,90.7h1l3.1,5h0v-5h1v7.1h-1l-3.1-5h0v5h-1V90.7z"/>
	<path fill="#FFFFFF" d="M203.7,102.6h2.7c0.7,0,1.2,0.2,1.5,0.5c0.3,0.3,0.5,0.8,0.5,1.4c0,0.3-0.1,0.6-0.2,0.8
		c-0.1,0.1-0.2,0.2-0.3,0.4c-0.1,0.1-0.3,0.2-0.5,0.3v0c0.4,0.1,0.7,0.3,0.8,0.6c0.2,0.3,0.3,0.7,0.3,1c0,0.6-0.2,1.1-0.6,1.5
		c-0.4,0.4-0.8,0.6-1.3,0.6h-2.9V102.6z M204.8,103.6v2h1.5c0.4,0,0.7-0.1,0.8-0.3c0.2-0.2,0.3-0.4,0.3-0.7s-0.1-0.5-0.3-0.7
		c-0.2-0.2-0.5-0.3-0.8-0.3H204.8z M204.8,106.6v2.1h1.6c0.4,0,0.7-0.1,0.8-0.3c0.2-0.2,0.3-0.5,0.3-0.7c0-0.3-0.1-0.5-0.3-0.7
		c-0.2-0.2-0.5-0.3-0.8-0.3H204.8z"/>
	<path fill="#FFFFFF" d="M209.5,106.2c0-0.8,0-1.4,0.1-1.7c0-0.3,0.1-0.5,0.2-0.7c0.2-0.3,0.4-0.6,0.8-0.9c0.4-0.3,0.8-0.4,1.3-0.4
		c0.5,0,1,0.1,1.4,0.4c0.4,0.3,0.6,0.5,0.8,0.9c0.1,0.2,0.2,0.4,0.2,0.7c0,0.3,0.1,0.8,0.1,1.6c0,0.8,0,1.4-0.1,1.6
		c0,0.3-0.1,0.5-0.2,0.7c-0.2,0.3-0.4,0.6-0.8,0.9c-0.4,0.3-0.8,0.4-1.4,0.4c-0.5,0-1-0.1-1.3-0.4c-0.4-0.2-0.6-0.5-0.8-0.9
		c-0.1-0.1-0.1-0.2-0.1-0.3c0-0.1-0.1-0.2-0.1-0.4C209.6,107.5,209.5,107,209.5,106.2z M210.6,106.2c0,0.7,0,1.2,0.1,1.4
		c0,0.2,0.1,0.4,0.3,0.6c0.1,0.1,0.3,0.3,0.4,0.4c0.2,0.1,0.4,0.2,0.6,0.2c0.2,0,0.5-0.1,0.6-0.2c0.2-0.1,0.3-0.2,0.4-0.4
		c0.1-0.2,0.2-0.4,0.3-0.6c0-0.2,0.1-0.7,0.1-1.4c0-0.7,0-1.2-0.1-1.4c-0.1-0.2-0.1-0.4-0.3-0.6c-0.1-0.1-0.2-0.3-0.4-0.4
		c-0.2-0.1-0.4-0.1-0.6-0.2c-0.2,0-0.5,0.1-0.6,0.2c-0.2,0.1-0.3,0.2-0.4,0.4c-0.1,0.2-0.2,0.3-0.3,0.6
		C210.6,105,210.6,105.5,210.6,106.2z"/>
	<path fill="#FFFFFF" d="M216.8,103.6h-1.9v-1h4.8v1h-1.9v6.1h-1V103.6z"/>
	<path fill="#FFFFFF" d="M221.8,103.6h-1.9v-1h4.8v1h-1.9v6.1h-1V103.6z"/>
	<path fill="#FFFFFF" d="M225.6,102.6h1v6.1h3.3v1h-4.4V102.6z"/>
	<path fill="#FFFFFF" d="M231.1,102.6h4.4v1h-3.3v2h2.9v0.9h-2.9v2.1h3.3v1h-4.4V102.6z"/>
	<path fill="#FFFFFF" d="M236.7,108c0.5,0.5,1.2,0.7,1.9,0.7c0.9,0,1.3-0.3,1.4-1c0-0.5-0.3-0.8-0.9-1c-0.3,0-0.6-0.1-0.9-0.1
		c-0.6-0.1-1-0.3-1.3-0.7c-0.3-0.4-0.5-0.8-0.5-1.3c0-0.6,0.2-1.1,0.6-1.5c0.4-0.4,0.9-0.6,1.6-0.6c0.9,0,1.6,0.3,2.2,0.7l-0.6,0.9
		c-0.5-0.3-1.1-0.5-1.7-0.5c-0.3,0-0.6,0.1-0.8,0.2c-0.2,0.2-0.3,0.4-0.3,0.8c0,0.2,0.1,0.4,0.2,0.6c0.2,0.2,0.4,0.3,0.7,0.3
		c0.2,0,0.4,0.1,0.8,0.1c0.6,0.1,1.1,0.3,1.4,0.7c0.3,0.4,0.5,0.8,0.5,1.3c0,1.4-0.8,2-2.4,2.1c-1,0-1.9-0.3-2.6-1L236.7,108z"/>
	<path fill="#FFFFFF" d="M59.3,86.9c0.3,0.1,0.5,0.2,0.8,0.3c0.6,0.3,0.9,0.9,0.9,1.5c0.1,0.6-0.1,1.2-0.3,1.8
		c-0.2,0.4-0.4,0.8-0.7,1.1c-0.3,0.4-0.6,0.6-1.1,0.6c-0.4,0.1-0.7-0.2-0.8-0.6c0-0.3,0-0.7,0.2-1c0.3-0.5,0.6-1,1.2-1.2
		c0.1,0,0.2-0.1,0.4-0.1c0.2,0,0.2-0.1,0.3-0.2c0.2-0.6-0.2-1.1-0.8-1.1c-0.3,0-0.7,0.1-1,0.2c-1.3,0.4-2.4,1.2-3.4,2.1
		c-3.2,2.9-5.7,6.4-7.5,10.3c-0.6,1.4-1.1,2.9-1.4,4.4c-0.2,1.1-0.2,2.1,0.1,3.2c0.3,1.3,1.1,2.2,2.4,2.8c1,0.4,2.1,0.6,3.1,0.5
		c1.8-0.1,3.5-0.6,5.2-1c2-0.5,3.9-1,5.9-1.4c1.8-0.4,3.7-0.6,5.6-0.5c2.2,0.1,4.2,0.8,6,2.1c1,0.7,2,1.5,2.9,2.3
		c0.1,0.2,0.3,0.3,0.4,0.5c-0.1,0-0.1-0.1-0.2-0.1c-1.8-1.1-3.7-1.8-5.8-1.8c-0.9,0-1.8,0.2-2.5,0.7c-0.4,0.3-0.7,0.7-1,1
		c0,0,0,0,0,0c-0.8-1.4-2-2.2-3.5-2.5c-1.1-0.3-2.2-0.3-3.3-0.2c-1.9,0.1-3.8,0.6-5.6,1.1c-1.7,0.4-3.5,0.8-5.2,1.2
		c-1.4,0.3-2.8,0.2-4.1-0.2c-2-0.7-3.3-2.2-3.7-4.3c-0.1-0.4-0.1-0.8-0.2-1.2c0-0.1,0-0.1,0-0.2c0-0.4,0-0.7,0-1.1
		c0-0.3,0.1-0.6,0.1-0.9c0.2-1.6,0.7-3.2,1.3-4.7c1.3-3,3.2-5.6,5.5-7.9c1.5-1.5,3.1-2.9,5-3.9c1-0.6,2.1-1.1,3.3-1.3
		c0.4-0.1,0.7-0.1,1.1-0.2C58.8,86.9,59.1,86.9,59.3,86.9z"/>
	<path fill="#FFFFFF" d="M60.6,98.3c0.2,0,0.3,0,0.4-0.1c0.4-0.2,0.8-0.4,1.1-0.6c0.8-0.5,1.4-1.1,2-1.8c0.6-0.7,1.4-1.3,2.1-1.8
		c0.7-0.4,1.4-0.7,2.3-0.7c1.1,0.1,1.8,0.9,1.7,2c-0.1,0.9-0.5,1.6-1,2.2c-0.2,0.2-0.5,0.4-0.7,0.5c-0.5,0.2-0.9-0.1-0.9-0.6
		c0-0.9,0.8-1.8,1.7-1.9c0.1,0,0.1,0,0.2-0.1c0.2-0.3,0.1-0.9-0.5-0.9c-0.5,0-0.9,0.2-1.2,0.5c-0.7,0.5-1.3,1.2-1.8,1.8
		c-1.3,1.6-2.2,3.3-2.9,5.2c-0.2,0.5-0.2,1-0.2,1.5c0.1,0.8,0.7,1.2,1.5,1c0.7-0.2,1.2-0.6,1.7-1c1.1-1,2-2.1,2.9-3.3
		c0.8-1.1,1.6-2.2,2.5-3.3c0.8-1,1.8-2,2.9-2.7c0.5-0.4,1-0.7,1.7-0.8c0.7-0.1,1.2,0.1,1.7,0.7c0,0,0.1,0.1,0.1,0.1c0,0,0,0,0.1-0.1
		c0.1-0.4,0.4-0.4,0.8-0.4c0.6,0,1.2,0,1.8,0c0.1,0,0.1,0,0.2,0c-0.1,0.1-0.1,0.2-0.2,0.3c-1.7,3-3.5,6-5.2,9
		c-0.1,0.2-0.2,0.4-0.2,0.6c0,0.3,0.2,0.4,0.4,0.3c0.2-0.1,0.4-0.2,0.5-0.3c0.6-0.5,1.2-1.1,1.7-1.7c0.5-0.6,0.9-1.1,1.3-1.7
		c0.1-0.1,0.2-0.2,0.4-0.2c0.2,0,0.4,0,0.6,0c0,0.1,0,0.1-0.1,0.1c-1.1,1.6-2.2,3.1-3.6,4.4c-0.7,0.7-1.4,1.3-2.3,1.7
		c-0.4,0.2-0.8,0.3-1.2,0.2c-0.4-0.1-0.8-0.5-0.8-1c0-0.3,0-0.6,0-1c0,0.1-0.1,0.1-0.1,0.2c-0.5,0.5-1,1-1.6,1.3
		c-0.4,0.2-0.8,0.4-1.3,0.5c-1,0.1-1.6-0.5-1.7-1.4c0-0.6,0.1-1.1,0.3-1.7c0-0.1,0-0.1,0-0.2c-0.1,0.1-0.1,0.1-0.2,0.2
		c-0.8,0.7-1.6,1.4-2.4,2.1c-0.7,0.5-1.4,0.9-2.3,1.1c-0.4,0.1-0.9,0.1-1.3-0.1c-0.9-0.3-1.3-1-1.5-1.9c-0.2-1.2,0.1-2.3,0.6-3.4
		c0.3-0.6,0.6-1.3,0.9-1.9c0-0.1,0.1-0.1,0.1-0.2c-0.3,0.1-0.6,0.2-0.9,0.2c-0.3,0-0.4,0.2-0.6,0.4c-0.6,1-1.2,2-1.9,2.9
		c-0.9,1.3-2,2.4-3.3,3.3c-0.5,0.4-1.1,0.6-1.8,0.7c-0.7,0.1-1.4-0.3-1.7-1c-0.2-0.6-0.3-1.2-0.2-1.8c0.2-1.7,0.9-3.3,1.8-4.8
		c1.1-1.8,2.5-3.3,4.2-4.6c0.7-0.5,1.4-0.9,2.3-1.1c1.3-0.2,2.1,0.5,2.2,1.8c0,0.7-0.2,1.4-0.4,2.1C60.9,97.6,60.8,97.9,60.6,98.3z
		 M70.4,103.5c0,0.2,0.1,0.4,0.3,0.5c0.2,0.1,0.4,0.1,0.5,0c0.4-0.3,0.8-0.6,1.1-1c0.4-0.6,0.9-1.1,1.2-1.7c1.2-2,2.4-4.1,3.5-6.1
		c0.1-0.2,0.1-0.4-0.2-0.5c-0.2-0.1-0.4,0-0.6,0c-0.4,0.2-0.8,0.4-1.1,0.8c-0.8,1-1.7,2.1-2.5,3.1c-0.9,1.2-1.6,2.4-2.1,3.8
		C70.6,102.8,70.5,103.1,70.4,103.5z M56.8,97.4c-0.1,0.1-0.1,0.1-0.1,0.1c-0.4,0.6-0.8,1.2-1.2,1.9c-0.5,0.9-1,1.8-1.3,2.9
		c-0.1,0.3-0.1,0.6-0.1,0.9c0.1,0.6,0.5,0.8,1,0.7c0.1,0,0.3-0.1,0.4-0.2c0.5-0.3,0.9-0.7,1.3-1.2c0.9-0.9,1.5-2,2.1-3.1
		c0-0.1,0.1-0.2,0.1-0.3C58.2,98.9,57.3,98.4,56.8,97.4z M60.5,95.7c0-0.1,0-0.2,0-0.3c-0.1-0.7-0.4-1-1.2-0.8
		c-0.1,0-0.2,0.1-0.4,0.2c-0.5,0.3-0.9,0.8-1.1,1.4c-0.2,0.5-0.2,1,0.2,1.4c0.4,0.5,0.9,0.7,1.5,0.8c0.1,0,0.2,0,0.2-0.1
		c0.1-0.3,0.3-0.7,0.4-1C60.4,96.7,60.5,96.2,60.5,95.7z"/>
	<path fill="#FFFFFF" d="M151.2,92.9c0.2-0.4,0.4-0.7,0.5-1.1c0.2-0.4,0.3-0.7,0.3-1.2c0-0.3-0.1-0.4-0.4-0.3
		c-0.3,0.1-0.5,0.2-0.8,0.4c-1,0.8-1.9,1.7-2.8,2.6c-1.8,2-3.3,4.2-4.7,6.5c-0.9,1.4-1.7,2.9-2.5,4.4c-0.1,0.1-0.1,0.3-0.2,0.5
		c0.1-0.1,0.2-0.1,0.3-0.2c0.5-0.4,1.1-0.8,1.6-1.3c2.2-2,4.3-4.2,6.2-6.6c0.2-0.2,0.3-0.4,0.7-0.4c0.1,0,0.3,0,0.4,0
		c-0.1,0.2-0.2,0.3-0.3,0.4c-1.2,1.7-2.6,3.2-4,4.7c-1.7,1.8-3.6,3.5-5.6,4.9c-0.1,0-0.1,0.1-0.1,0.2c-0.6,1.4-1.2,2.8-1.5,4.3
		c-0.1,0.3-0.1,0.6,0,0.9c0.1,0.4,0.5,0.6,0.8,0.3c0.4-0.3,0.7-0.6,1-1c0.6-0.7,1.1-1.5,1.6-2.3c0.9-1.3,1.7-2.6,2.7-3.8
		c0.9-1.1,1.9-2.1,3.2-2.9c0.5-0.3,1.1-0.5,1.8-0.4c0.4,0.1,0.6,0.4,0.9,0.7c0.1,0.1,0.1,0.1,0.2,0.2c0.1-0.2,0.2-0.4,0.3-0.5
		c0-0.1,0.1-0.1,0.2-0.1c0.8,0,1.5,0,2.3,0c0,0,0,0,0.1,0c0,0.1-0.1,0.1-0.1,0.2c-1.2,2.1-2.3,4.2-3.5,6.2c-0.5,0.8-0.9,1.6-1.4,2.4
		c-0.1,0.2-0.2,0.5-0.3,0.7c-0.1,0.2-0.1,0.3,0.1,0.4c0.2,0.1,0.3,0.1,0.5,0c0.7-0.4,1.3-0.9,1.7-1.6c0.6-0.7,1.1-1.5,1.7-2.3
		c0.1-0.1,0.2-0.2,0.3-0.2c0.2,0,0.4,0,0.6,0c-0.1,0.2-0.2,0.3-0.2,0.4c-1,1.5-2,2.9-3.3,4.2c-0.7,0.7-1.5,1.3-2.5,1.7
		c-0.2,0.1-0.5,0.1-0.8,0.1c-0.5,0-0.9-0.3-1-0.7c-0.1-0.3-0.1-0.7-0.1-1c0-0.1,0-0.1,0-0.2c0,0,0,0,0,0c-0.1,0.1-0.3,0.3-0.4,0.4
		c-0.6,0.5-1.2,1-1.9,1.4c-0.4,0.2-0.7,0.3-1.1,0.2c-0.7-0.1-1.1-0.6-1.2-1.3c0-0.3,0-0.6,0-0.9c0-0.1,0-0.2,0-0.3
		c-0.1,0.1-0.1,0.2-0.2,0.2c-0.6,0.7-1.1,1.3-1.8,1.8c-0.3,0.2-0.6,0.4-1,0.5c-0.8,0.3-1.4,0-1.8-0.7c-0.2-0.4-0.3-0.8-0.3-1.3
		c0-1,0.3-2,0.6-2.9c0.2-0.6,0.4-1.2,0.6-1.8c-0.1,0-0.2,0-0.3,0c-0.3,0-0.6,0.1-0.9,0.1c-0.2,0-0.2,0.1-0.3,0.2
		c-0.6,1-1.2,1.9-1.9,2.9c-0.9,1.2-2,2.3-3.3,3.1c-0.4,0.3-0.9,0.4-1.4,0.5c-1,0.1-1.5-0.6-1.6-1.2c-0.2-0.7-0.1-1.4,0.1-2.1
		c0.3-1.5,1-2.8,1.8-4.1c0.9-1.4,1.9-2.7,3.1-3.7c0.7-0.6,1.6-1.2,2.5-1.5c0.4-0.1,0.7-0.2,1.1-0.1c0.7,0.1,1.1,0.6,1.2,1.1
		c0.2,0.8,0.1,1.5-0.2,2.2c-0.2,0.6-0.5,1.2-0.7,1.7c0,0.1-0.1,0.1-0.1,0.2c0.5,0,0.9-0.1,1.3-0.3c0.1,0,0.1-0.1,0.1-0.2
		c1.3-2.6,2.7-5.1,4.3-7.5c2-2.9,4.3-5.6,7.1-7.9c0.7-0.5,1.4-1,2.1-1.4c0.4-0.2,0.8-0.3,1.2-0.3c0.5,0,0.8,0.3,0.8,0.8
		c0.1,0.7-0.1,1.3-0.4,1.9c-0.3,0.7-0.3,0.7-1,0.8C151.3,92.9,151.2,92.9,151.2,92.9z M143.7,111.6c0,0.2,0.3,0.4,0.7,0.3
		c0.2-0.1,0.3-0.2,0.5-0.3c0.5-0.4,0.8-0.9,1.2-1.3c0.9-1.3,1.7-2.8,2.6-4.2c0.5-0.8,1-1.7,1.4-2.5c0.1-0.2,0.2-0.3,0-0.5
		c-0.1-0.2-0.3-0.2-0.5-0.1c-0.2,0.1-0.5,0.2-0.7,0.3c-0.3,0.2-0.5,0.4-0.7,0.7c-1.7,1.7-3,3.7-4,5.9
		C143.8,110.3,143.7,110.8,143.7,111.6z M132.4,105.6c-0.4,0.5-0.7,1-1,1.5c-0.6,0.9-1.1,1.9-1.4,2.9c-0.1,0.4-0.2,0.7-0.1,1.1
		c0.1,0.5,0.4,0.7,0.9,0.6c0.5-0.1,0.8-0.4,1.1-0.7c1-1,1.8-2.1,2.5-3.4c0-0.1,0.1-0.1,0.1-0.2C133.6,107.1,132.9,106.5,132.4,105.6
		z M136,103.8c0-0.1,0-0.2,0-0.3c-0.1-0.5-0.3-0.8-0.7-0.7c-0.2,0-0.4,0-0.5,0.1c-0.5,0.2-0.9,0.5-1.1,1c-0.7,1.2-0.1,2.5,1.2,2.9
		c0.1,0,0.2,0,0.2-0.1c0.1-0.2,0.2-0.4,0.3-0.7C135.7,105.3,136,104.6,136,103.8z"/>
	<path fill="#FFFFFF" d="M146.1,92.6c-0.6,0.7-1.2,1.3-1.8,1.9c0,0-0.2,0-0.2,0c-0.4-0.2-0.8-0.4-1.1-0.7c-1.2-0.7-2.3-1.5-3.5-2.2
		c-0.9-0.5-1.9-0.9-2.9-1.1c-0.3,0-0.7,0-1,0.1c-0.1,0-0.1,0.1-0.1,0.2c0.1,1.2-0.2,2.3-0.7,3.4c-0.6,1.5-1.6,2.8-2.8,4
		c-0.5,0.5-1.1,0.8-1.8,1c-0.9,0.3-1.6-0.2-1.7-1.1c-0.1-0.6,0.1-1.2,0.3-1.7c0.8-1.9,2-3.5,3.5-4.7c0.5-0.5,1.1-0.8,1.7-1.3
		c0,0,0.1-0.1,0.1-0.1c-0.4-0.2-0.7-0.2-1-0.1c-0.5,0.1-0.9,0.3-1.4,0.5c-1.7,0.9-3.2,2.1-4.5,3.5c-2.4,2.6-4.5,5.4-6.2,8.5
		c-0.9,1.7-1.6,3.5-2,5.4c-0.1,0.8-0.3,1.6-0.1,2.4c0.2,0.8,0.7,1.5,1.6,1.7c0.5,0.2,1,0,1.5-0.2c0.9-0.4,1.6-1,2.3-1.7
		c1.3-1.4,2.3-2.9,2.9-4.7c0.2-0.7,0.4-1.4,0.3-2.1c0-0.7-0.5-1-1.1-0.7c-0.5,0.2-0.8,0.6-1.1,0.9c-0.7,0.9-1.1,1.8-1.3,2.9
		c0,0.1-0.1,0.2-0.1,0.2c-1.2,0.6-2.2,1.4-3,2.3c0,0-0.1,0.1-0.1,0.1c0.3-2.1,0.9-4.1,2.3-5.8c0.8-1,1.8-1.7,3.1-2
		c0.3-0.1,0.7-0.1,1,0c0.6,0.1,0.9,0.5,1.1,1.1c0.2,0.7,0.2,1.4,0.1,2.1c-0.3,1.7-1.1,3.1-2,4.5c-1.2,1.8-2.6,3.2-4.4,4.3
		c-0.8,0.5-1.6,0.7-2.5,0.7c-1.4,0-2.5-0.6-3.2-1.8c-0.6-1-0.8-2.2-0.7-3.4c0.1-1.9,0.8-3.6,1.5-5.2c2.1-4.5,5.1-8.4,9-11.5
		c1.7-1.4,3.5-2.4,5.6-3c0.7-0.2,1.5-0.3,2.3-0.1c0.3,0.1,0.6,0.3,0.9,0.5c0.1,0.1,0.2,0.1,0.3,0.1c0.6-0.2,1.2-0.4,1.8-0.5
		c1.5-0.3,3-0.1,4.4,0.6C143,90.8,144.5,91.7,146.1,92.6C146,92.6,146.1,92.6,146.1,92.6z M134.7,91c-0.2,0.1-0.4,0.2-0.5,0.3
		c-2,1.2-3.4,2.9-4.5,4.9c-0.2,0.5-0.4,0.9-0.5,1.5c-0.1,0.7,0.5,1.1,1.1,0.8c0.2-0.1,0.5-0.3,0.7-0.4c2.1-1.7,3.4-3.8,3.7-6.5
		C134.7,91.4,134.7,91.2,134.7,91z"/>
	<path fill="#FFFFFF" d="M158.2,89.3c-0.3,0.7-0.8,1.4-1.3,2c-1.6,2-3.5,3.5-6,4.2c-1.2,0.4-2.5,0.5-3.8,0.3c0,0-0.1,0-0.1,0
		c-0.1,0-0.1,0-0.2-0.1c0-0.1,0.1-0.1,0.1-0.2c0.5-0.6,1-1.3,1.6-1.9c0.1-0.1,0.2-0.1,0.2-0.1c1.5,0.1,2.9-0.1,4.2-0.7
		C154.9,92,156.6,90.8,158.2,89.3C158.1,89.3,158.1,89.3,158.2,89.3z"/>
	<path fill="#FFFFFF" d="M115.4,97.2c-0.4,0.3-0.8,0.6-1.1,0.8c-0.4,0.3-0.8,0.6-1.2,0.9c-0.1,0-0.2,0.1-0.3,0.1c-1.4,0-2.7,0-4.1,0
		c0,0,0,0-0.1,0c0,0,0,0,0.1-0.1c0.7-0.6,1.5-1.1,2.3-1.7c0.1,0,0.2-0.1,0.3-0.1C112.5,97.2,113.9,97.2,115.4,97.2z"/>
</g>
</svg>
