<?xml version="1.0" encoding="utf-8"?>
<!-- Generator: Adobe Illustrator 19.0.0, SVG Export Plug-In . SVG Version: 6.00 Build 0)  -->
<!DOCTYPE svg PUBLIC "-//W3C//DTD SVG 1.1//EN" "http://www.w3.org/Graphics/SVG/1.1/DTD/svg11.dtd">
<svg version="1.1" id="Layer_1" xmlns="http://www.w3.org/2000/svg" xmlns:xlink="http://www.w3.org/1999/xlink" x="0px" y="0px"
	 viewBox="0 0 705 543" style="enable-background:new 0 0 705 543;" xml:space="preserve">
<style type="text/css">
	.st0{fill:#AD1A15;}
	.st1{fill:#C2181D;}
	.st2{fill:#740E46;}
	.st3{fill:#D61F20;}
	.st4{fill:#3B272A;}
	.st5{fill:#F5CBB8;}
	.st6{fill:#A2583A;}
	.st7{fill:#CCCCCC;}
	.st8{fill:#674E4A;}
	.st9{fill:#754C24;}
	.st10{fill:#ADFFFF;}
	.st11{fill:#CAFCFC;}
	.st12{fill:#603813;}
	.st13{fill:#E6E6E6;}
	.st14{fill:#FFFFFF;}
</style>
<g id="XMLID_106_">
	<rect id="XMLID_528_" x="613.6" y="94.6" class="st0" width="72.6" height="52"/>
	<rect id="XMLID_527_" x="12.8" y="94.6" class="st0" width="72.6" height="52"/>
	<rect id="XMLID_526_" x="13.3" y="108.1" class="st1" width="23.5" height="8"/>
	<rect id="XMLID_525_" x="60.7" y="118.9" class="st1" width="23.5" height="8.8"/>
	<rect id="XMLID_524_" x="0.3" y="83.7" class="st2" width="95.9" height="15.2"/>
	<polygon id="XMLID_523_" class="st2" points="11.7,88.1 47.5,17.6 84.3,90.2 	"/>
	<rect id="XMLID_522_" x="37.2" y="11.7" class="st2" width="20.6" height="7.6"/>
	<rect id="XMLID_521_" x="44.7" y="5.2" class="st2" width="5.5" height="20.6"/>
	<rect id="XMLID_520_" x="614.1" y="108.1" class="st1" width="23.6" height="8.3"/>
	<rect id="XMLID_519_" x="661.8" y="118.9" class="st1" width="23.6" height="8.5"/>
	<rect id="XMLID_518_" x="599.9" y="83.7" class="st2" width="97.1" height="15.2"/>
	<polygon id="XMLID_517_" class="st2" points="612.5,88.1 648.3,17.6 685.1,90.2 	"/>
	<rect id="XMLID_516_" x="638" y="11.7" class="st2" width="20.6" height="7.6"/>
	<rect id="XMLID_515_" x="645.5" y="5.2" class="st2" width="5.5" height="20.6"/>
	<rect id="XMLID_514_" x="0.6" y="129" class="st3" width="705.2" height="412.7"/>
	<rect id="XMLID_513_" x="32.9" y="354.4" class="st4" width="161.8" height="156"/>
	<rect id="XMLID_512_" x="195.4" y="354.4" class="st4" width="161.8" height="156"/>
	<rect id="XMLID_511_" x="358.6" y="354.4" class="st4" width="161.8" height="156"/>
	<rect id="XMLID_510_" x="29" y="499.6" class="st5" width="167.9" height="15.2"/>
	<rect id="XMLID_509_" x="192.2" y="499.6" class="st5" width="167.9" height="15.2"/>
	<rect id="XMLID_508_" x="354.7" y="499.6" class="st5" width="167.9" height="15.2"/>
	<rect id="XMLID_507_" x="2" y="313.3" class="st1" width="39.8" height="11.9"/>
	<rect id="XMLID_506_" x="21.3" y="239.7" class="st1" width="39.8" height="11.9"/>
	<rect id="XMLID_505_" x="98.4" y="320.4" class="st1" width="39.8" height="11.9"/>
	<rect id="XMLID_504_" x="4.6" y="519.7" class="st1" width="39.8" height="11.9"/>
	<rect id="XMLID_503_" x="440.8" y="524" class="st1" width="39.8" height="11.9"/>
	<rect id="XMLID_502_" x="534.5" y="319.3" class="st1" width="39.8" height="11.9"/>
	<rect id="XMLID_501_" x="405.3" y="304.1" class="st1" width="39.8" height="11.9"/>
	<rect id="XMLID_500_" x="239.4" y="273.8" class="st1" width="39.8" height="11.9"/>
	<rect id="XMLID_499_" x="147.6" y="172" class="st6" width="40.1" height="11.9"/>
	<rect id="XMLID_498_" x="347.1" y="193.7" class="st1" width="39.8" height="11.9"/>
	<rect id="XMLID_497_" x="537.8" y="196.9" class="st1" width="39.8" height="11.9"/>
	<rect id="XMLID_496_" x="687.6" y="275.2" class="st1" width="15.5" height="11.2"/>
	<rect id="XMLID_495_" x="689.9" y="526.3" class="st1" width="15.5" height="11.2"/>
	<rect id="XMLID_494_" x="32.3" y="353.4" class="st7" width="163.7" height="35.7"/>
	<rect id="XMLID_493_" x="99.4" y="370.4" class="st8" width="36.3" height="10"/>
	<path id="XMLID_104_" class="st5" d="M32.9,416.9h5.8l10.9-65H32.9C32.9,351.9,32.9,414.9,32.9,416.9z"/>
	<path id="XMLID_103_" class="st5" d="M195.9,416.9H189l-10.9-65h17.8C195.9,351.9,195.9,414.9,195.9,416.9z"/>
	<rect id="XMLID_490_" x="34.4" y="352.1" class="st5" width="161.5" height="12.3"/>
	<rect id="XMLID_489_" x="194.8" y="353.4" class="st7" width="163.7" height="35.7"/>
	<rect id="XMLID_488_" x="261.9" y="370.4" class="st8" width="36.3" height="10"/>
	<path id="XMLID_102_" class="st5" d="M194.9,416.9h6.3l10.9-65h-17.2C194.9,351.9,194.9,414.9,194.9,416.9z"/>
	<path id="XMLID_101_" class="st5" d="M357.9,416.9h-6.4l-10.9-65h17.3C357.9,351.9,357.9,414.9,357.9,416.9z"/>
	<rect id="XMLID_485_" x="196.9" y="352.1" class="st5" width="161.5" height="12.3"/>
	<rect id="XMLID_484_" x="358" y="353.4" class="st7" width="163.7" height="35.7"/>
	<rect id="XMLID_483_" x="425.1" y="370.4" class="st8" width="36.3" height="10"/>
	<path id="XMLID_100_" class="st5" d="M357.9,416.9h6.5l10.9-65h-17.4C357.9,351.9,357.9,414.9,357.9,416.9z"/>
	<path id="XMLID_99_" class="st5" d="M521.9,416.9h-7.2l-10.9-65h18.1C521.9,351.9,521.9,414.9,521.9,416.9z"/>
	<rect id="XMLID_480_" x="360.1" y="352.1" class="st5" width="161.5" height="12.3"/>
	<rect id="XMLID_479_" x="521.1" y="354.4" class="st4" width="161.8" height="156"/>
	<rect id="XMLID_478_" x="517.2" y="499.6" class="st5" width="167.9" height="15.2"/>
	<rect id="XMLID_477_" x="520.4" y="353.4" class="st7" width="163.7" height="35.7"/>
	<rect id="XMLID_476_" x="587.5" y="370.4" class="st8" width="36.3" height="10"/>
	<path id="XMLID_98_" class="st5" d="M520.9,416.9h6l10.9-65h-16.9C520.9,351.9,520.9,414.9,520.9,416.9z"/>
	<path id="XMLID_97_" class="st5" d="M683.9,416.9h-6.7l-10.9-65h17.6C683.9,351.9,683.9,414.9,683.9,416.9z"/>
	<rect id="XMLID_473_" x="522.5" y="352.1" class="st5" width="161.5" height="12.3"/>
	<g id="XMLID_427_">
		<rect id="XMLID_472_" x="41.5" y="210.7" class="st9" width="52.5" height="79.3"/>
		<g id="XMLID_468_">
			<polygon id="XMLID_96_" class="st10" points="46.9,229.9 56.5,229.9 46.9,220.4 			"/>
			<polygon id="XMLID_95_" class="st10" points="65.9,215.9 53.8,215.9 65.9,225.1 			"/>
			<polygon id="XMLID_94_" class="st11" points="65.9,225.1 53.8,215.9 46.9,215.9 46.9,220.4 56.5,229.9 65.9,229.9 			"/>
		</g>
		<rect id="XMLID_467_" x="41.4" y="210.9" class="st12" width="2.3" height="79.6"/>
		<rect id="XMLID_466_" x="92" y="210.9" class="st12" width="2.3" height="79.6"/>
		<rect id="XMLID_465_" x="41.5" y="211.1" class="st12" width="52.7" height="2.4"/>
		<rect id="XMLID_464_" x="41.5" y="288.3" class="st12" width="52.7" height="2.4"/>
		<rect id="XMLID_463_" x="46.8" y="215.3" class="st12" width="19" height="1.4"/>
		<g id="XMLID_459_">
			<polygon id="XMLID_93_" class="st10" points="69.9,229.9 79.1,229.9 69.9,220.4 			"/>
			<polygon id="XMLID_92_" class="st10" points="88.9,215.9 76.5,215.9 88.9,225.1 			"/>
			<polygon id="XMLID_91_" class="st11" points="88.9,225.1 76.5,215.9 69.9,215.9 69.9,220.4 79.1,229.9 88.9,229.9 			"/>
		</g>
		<rect id="XMLID_458_" x="69.4" y="215.3" class="st12" width="19" height="1.4"/>
		<g id="XMLID_454_">
			<polygon id="XMLID_90_" class="st10" points="46.9,248.9 56.5,248.9 46.9,239 			"/>
			<polygon id="XMLID_89_" class="st10" points="65.9,233.9 53.8,233.9 65.9,243.7 			"/>
			<polygon id="XMLID_88_" class="st11" points="65.9,243.7 53.8,233.9 46.9,233.9 46.9,239 56.5,248.9 65.9,248.9 			"/>
		</g>
		<rect id="XMLID_453_" x="46.8" y="233.9" class="st12" width="19" height="1.4"/>
		<g id="XMLID_449_">
			<polygon id="XMLID_87_" class="st10" points="69.9,248.9 79.1,248.9 69.9,239 			"/>
			<polygon id="XMLID_86_" class="st10" points="88.9,233.9 76.5,233.9 88.9,243.7 			"/>
			<polygon id="XMLID_85_" class="st11" points="88.9,243.7 76.5,233.9 69.9,233.9 69.9,239 79.1,248.9 88.9,248.9 			"/>
		</g>
		<rect id="XMLID_448_" x="69.4" y="233.9" class="st12" width="19" height="1.4"/>
		<g id="XMLID_444_">
			<polygon id="XMLID_84_" class="st10" points="46.9,267.9 56.5,267.9 46.9,257.6 			"/>
			<polygon id="XMLID_83_" class="st10" points="65.9,252.9 53.8,252.9 65.9,262.3 			"/>
			<polygon id="XMLID_82_" class="st11" points="65.9,262.3 53.8,252.9 46.9,252.9 46.9,257.6 56.5,267.9 65.9,267.9 			"/>
		</g>
		<rect id="XMLID_443_" x="46.8" y="252.5" class="st12" width="19" height="1.4"/>
		<g id="XMLID_439_">
			<polygon id="XMLID_81_" class="st10" points="69.9,267.9 79.1,267.9 69.9,257.6 			"/>
			<polygon id="XMLID_80_" class="st10" points="88.9,252.9 76.5,252.9 88.9,262.3 			"/>
			<polygon id="XMLID_79_" class="st11" points="88.9,262.3 76.5,252.9 69.9,252.9 69.9,257.6 79.1,267.9 88.9,267.9 			"/>
		</g>
		<rect id="XMLID_438_" x="69.4" y="252.5" class="st12" width="19" height="1.4"/>
		<g id="XMLID_434_">
			<polygon id="XMLID_78_" class="st10" points="46.9,286.9 56.5,286.9 46.9,276.3 			"/>
			<polygon id="XMLID_77_" class="st10" points="65.9,271.9 53.8,271.9 65.9,280.9 			"/>
			<polygon id="XMLID_76_" class="st11" points="65.9,280.9 53.8,271.9 46.9,271.9 46.9,276.3 56.5,286.9 65.9,286.9 			"/>
		</g>
		<rect id="XMLID_433_" x="46.8" y="271.2" class="st12" width="19" height="1.4"/>
		<g id="XMLID_429_">
			<polygon id="XMLID_75_" class="st10" points="69.9,286.9 79.1,286.9 69.9,276.3 			"/>
			<polygon id="XMLID_74_" class="st10" points="88.9,271.9 76.5,271.9 88.9,280.9 			"/>
			<polygon id="XMLID_73_" class="st11" points="88.9,280.9 76.5,271.9 69.9,271.9 69.9,276.3 79.1,286.9 88.9,286.9 			"/>
		</g>
		<rect id="XMLID_428_" x="69.4" y="271.2" class="st12" width="19" height="1.4"/>
	</g>
	<g id="XMLID_381_">
		<rect id="XMLID_426_" x="129.2" y="210.7" class="st9" width="52.5" height="79.3"/>
		<g id="XMLID_422_">
			<polygon id="XMLID_72_" class="st10" points="134.9,229.9 144.2,229.9 134.9,220.4 			"/>
			<polygon id="XMLID_71_" class="st10" points="153.9,215.9 141.5,215.9 153.9,225.1 			"/>
			<polygon id="XMLID_70_" class="st11" points="153.9,225.1 141.5,215.9 134.9,215.9 134.9,220.4 144.2,229.9 153.9,229.9 			"/>
		</g>
		<rect id="XMLID_421_" x="129.1" y="210.9" class="st12" width="2.3" height="79.6"/>
		<rect id="XMLID_420_" x="179.7" y="210.9" class="st12" width="2.3" height="79.6"/>
		<rect id="XMLID_419_" x="129.2" y="211.1" class="st12" width="52.7" height="2.4"/>
		<rect id="XMLID_418_" x="129.2" y="288.3" class="st12" width="52.7" height="2.4"/>
		<rect id="XMLID_417_" x="134.5" y="215.3" class="st12" width="19" height="1.4"/>
		<g id="XMLID_413_">
			<polygon id="XMLID_69_" class="st10" points="157.9,229.9 166.8,229.9 157.9,220.4 			"/>
			<polygon id="XMLID_68_" class="st10" points="176.9,215.9 164.2,215.9 176.9,225.1 			"/>
			<polygon id="XMLID_67_" class="st11" points="176.9,225.1 164.2,215.9 157.9,215.9 157.9,220.4 166.8,229.9 176.9,229.9 			"/>
		</g>
		<rect id="XMLID_412_" x="157.1" y="215.3" class="st12" width="19" height="1.4"/>
		<g id="XMLID_408_">
			<polygon id="XMLID_66_" class="st10" points="134.9,248.9 144.2,248.9 134.9,239 			"/>
			<polygon id="XMLID_65_" class="st10" points="153.9,233.9 141.5,233.9 153.9,243.7 			"/>
			<polygon id="XMLID_64_" class="st11" points="153.9,243.7 141.5,233.9 134.9,233.9 134.9,239 144.2,248.9 153.9,248.9 			"/>
		</g>
		<rect id="XMLID_407_" x="134.5" y="233.9" class="st12" width="19" height="1.4"/>
		<g id="XMLID_403_">
			<polygon id="XMLID_63_" class="st10" points="157.9,248.9 166.8,248.9 157.9,239 			"/>
			<polygon id="XMLID_62_" class="st10" points="176.9,233.9 164.2,233.9 176.9,243.7 			"/>
			<polygon id="XMLID_61_" class="st11" points="176.9,243.7 164.2,233.9 157.9,233.9 157.9,239 166.8,248.9 176.9,248.9 			"/>
		</g>
		<rect id="XMLID_402_" x="157.1" y="233.9" class="st12" width="19" height="1.4"/>
		<g id="XMLID_398_">
			<polygon id="XMLID_60_" class="st10" points="134.9,267.9 144.2,267.9 134.9,257.6 			"/>
			<polygon id="XMLID_59_" class="st10" points="153.9,252.9 141.5,252.9 153.9,262.3 			"/>
			<polygon id="XMLID_58_" class="st11" points="153.9,262.3 141.5,252.9 134.9,252.9 134.9,257.6 144.2,267.9 153.9,267.9 			"/>
		</g>
		<rect id="XMLID_397_" x="134.5" y="252.5" class="st12" width="19" height="1.4"/>
		<g id="XMLID_393_">
			<polygon id="XMLID_57_" class="st10" points="157.9,267.9 166.8,267.9 157.9,257.6 			"/>
			<polygon id="XMLID_56_" class="st10" points="176.9,252.9 164.2,252.9 176.9,262.3 			"/>
			<polygon id="XMLID_55_" class="st11" points="176.9,262.3 164.2,252.9 157.9,252.9 157.9,257.6 166.8,267.9 176.9,267.9 			"/>
		</g>
		<rect id="XMLID_392_" x="157.1" y="252.5" class="st12" width="19" height="1.4"/>
		<g id="XMLID_388_">
			<polygon id="XMLID_54_" class="st10" points="134.9,286.9 144.2,286.9 134.9,276.3 			"/>
			<polygon id="XMLID_53_" class="st10" points="153.9,271.9 141.5,271.9 153.9,280.9 			"/>
			<polygon id="XMLID_52_" class="st11" points="153.9,280.9 141.5,271.9 134.9,271.9 134.9,276.3 144.2,286.9 153.9,286.9 			"/>
		</g>
		<rect id="XMLID_387_" x="134.5" y="271.2" class="st12" width="19" height="1.4"/>
		<g id="XMLID_383_">
			<polygon id="XMLID_51_" class="st10" points="157.9,286.9 166.8,286.9 157.9,276.3 			"/>
			<polygon id="XMLID_50_" class="st10" points="176.9,271.9 164.2,271.9 176.9,280.9 			"/>
			<polygon id="XMLID_49_" class="st11" points="176.9,280.9 164.2,271.9 157.9,271.9 157.9,276.3 166.8,286.9 176.9,286.9 			"/>
		</g>
		<rect id="XMLID_382_" x="157.1" y="271.2" class="st12" width="19" height="1.4"/>
	</g>
	<g id="XMLID_335_">
		<rect id="XMLID_380_" x="424.9" y="210.7" class="st9" width="52.5" height="79.3"/>
		<g id="XMLID_376_">
			<polygon id="XMLID_48_" class="st10" points="430.9,229.9 440,229.9 430.9,220.4 			"/>
			<polygon id="XMLID_47_" class="st10" points="448.9,215.9 437.3,215.9 448.9,225.1 			"/>
			<polygon id="XMLID_46_" class="st11" points="448.9,225.1 437.3,215.9 430.9,215.9 430.9,220.4 440,229.9 448.9,229.9 			"/>
		</g>
		<rect id="XMLID_375_" x="424.9" y="210.9" class="st12" width="2.3" height="79.6"/>
		<rect id="XMLID_374_" x="475.4" y="210.9" class="st12" width="2.3" height="79.6"/>
		<rect id="XMLID_373_" x="424.9" y="211.1" class="st12" width="52.7" height="2.4"/>
		<rect id="XMLID_372_" x="424.9" y="288.3" class="st12" width="52.7" height="2.4"/>
		<rect id="XMLID_371_" x="430.3" y="215.3" class="st12" width="19" height="1.4"/>
		<g id="XMLID_367_">
			<polygon id="XMLID_45_" class="st10" points="453.9,229.9 462.6,229.9 453.9,220.4 			"/>
			<polygon id="XMLID_44_" class="st10" points="472.9,215.9 459.9,215.9 472.9,225.1 			"/>
			<polygon id="XMLID_43_" class="st11" points="472.9,225.1 459.9,215.9 453.9,215.9 453.9,220.4 462.6,229.9 472.9,229.9 			"/>
		</g>
		<rect id="XMLID_366_" x="452.9" y="215.3" class="st12" width="19" height="1.4"/>
		<g id="XMLID_362_">
			<polygon id="XMLID_42_" class="st10" points="430.9,248.9 440,248.9 430.9,239 			"/>
			<polygon id="XMLID_41_" class="st10" points="448.9,233.9 437.3,233.9 448.9,243.7 			"/>
			<polygon id="XMLID_40_" class="st11" points="448.9,243.7 437.3,233.9 430.9,233.9 430.9,239 440,248.9 448.9,248.9 			"/>
		</g>
		<rect id="XMLID_361_" x="430.3" y="233.9" class="st12" width="19" height="1.4"/>
		<g id="XMLID_357_">
			<polygon id="XMLID_39_" class="st10" points="453.9,248.9 462.6,248.9 453.9,239 			"/>
			<polygon id="XMLID_38_" class="st10" points="472.9,233.9 459.9,233.9 472.9,243.7 			"/>
			<polygon id="XMLID_37_" class="st11" points="472.9,243.7 459.9,233.9 453.9,233.9 453.9,239 462.6,248.9 472.9,248.9 			"/>
		</g>
		<rect id="XMLID_356_" x="452.9" y="233.9" class="st12" width="19" height="1.4"/>
		<g id="XMLID_352_">
			<polygon id="XMLID_36_" class="st10" points="430.9,267.9 440,267.9 430.9,257.6 			"/>
			<polygon id="XMLID_35_" class="st10" points="448.9,252.9 437.3,252.9 448.9,262.3 			"/>
			<polygon id="XMLID_34_" class="st11" points="448.9,262.3 437.3,252.9 430.9,252.9 430.9,257.6 440,267.9 448.9,267.9 			"/>
		</g>
		<rect id="XMLID_351_" x="430.3" y="252.5" class="st12" width="19" height="1.4"/>
		<g id="XMLID_347_">
			<polygon id="XMLID_33_" class="st10" points="453.9,267.9 462.6,267.9 453.9,257.6 			"/>
			<polygon id="XMLID_32_" class="st10" points="472.9,252.9 459.9,252.9 472.9,262.3 			"/>
			<polygon id="XMLID_31_" class="st11" points="472.9,262.3 459.9,252.9 453.9,252.9 453.9,257.6 462.6,267.9 472.9,267.9 			"/>
		</g>
		<rect id="XMLID_346_" x="452.9" y="252.5" class="st12" width="19" height="1.4"/>
		<g id="XMLID_342_">
			<polygon id="XMLID_30_" class="st10" points="430.9,286.9 440,286.9 430.9,276.3 			"/>
			<polygon id="XMLID_29_" class="st10" points="448.9,271.9 437.3,271.9 448.9,280.9 			"/>
			<polygon id="XMLID_28_" class="st11" points="448.9,280.9 437.3,271.9 430.9,271.9 430.9,276.3 440,286.9 448.9,286.9 			"/>
		</g>
		<rect id="XMLID_341_" x="430.3" y="271.2" class="st12" width="19" height="1.4"/>
		<g id="XMLID_337_">
			<polygon id="XMLID_27_" class="st10" points="453.9,286.9 462.6,286.9 453.9,276.3 			"/>
			<polygon id="XMLID_26_" class="st10" points="472.9,271.9 459.9,271.9 472.9,280.9 			"/>
			<polygon id="XMLID_25_" class="st11" points="472.9,280.9 459.9,271.9 453.9,271.9 453.9,276.3 462.6,286.9 472.9,286.9 			"/>
		</g>
		<rect id="XMLID_336_" x="452.9" y="271.2" class="st12" width="19" height="1.4"/>
	</g>
	<g id="XMLID_289_">
		<rect id="XMLID_334_" x="606.2" y="210.7" class="st9" width="52.5" height="79.3"/>
		<g id="XMLID_330_">
			<polygon id="XMLID_24_" class="st10" points="611.9,229.9 621.2,229.9 611.9,220.4 			"/>
			<polygon id="XMLID_23_" class="st10" points="630.9,215.9 618.6,215.9 630.9,225.1 			"/>
			<polygon id="XMLID_22_" class="st11" points="630.9,225.1 618.6,215.9 611.9,215.9 611.9,220.4 621.2,229.9 630.9,229.9 			"/>
		</g>
		<rect id="XMLID_329_" x="606.1" y="210.9" class="st12" width="2.3" height="79.6"/>
		<rect id="XMLID_328_" x="656.7" y="210.9" class="st12" width="2.3" height="79.6"/>
		<rect id="XMLID_327_" x="606.2" y="211.1" class="st12" width="52.7" height="2.4"/>
		<rect id="XMLID_326_" x="606.2" y="288.3" class="st12" width="52.7" height="2.4"/>
		<rect id="XMLID_325_" x="611.5" y="215.3" class="st12" width="19" height="1.4"/>
		<g id="XMLID_321_">
			<polygon id="XMLID_21_" class="st10" points="634.9,229.9 643.8,229.9 634.9,220.4 			"/>
			<polygon id="XMLID_20_" class="st10" points="653.9,215.9 641.2,215.9 653.9,225.1 			"/>
			<polygon id="XMLID_19_" class="st11" points="653.9,225.1 641.2,215.9 634.9,215.9 634.9,220.4 643.8,229.9 653.9,229.9 			"/>
		</g>
		<rect id="XMLID_320_" x="634.1" y="215.3" class="st12" width="19" height="1.4"/>
		<g id="XMLID_316_">
			<polygon id="XMLID_18_" class="st10" points="611.9,248.9 621.2,248.9 611.9,239 			"/>
			<polygon id="XMLID_17_" class="st10" points="630.9,233.9 618.6,233.9 630.9,243.7 			"/>
			<polygon id="XMLID_16_" class="st11" points="630.9,243.7 618.6,233.9 611.9,233.9 611.9,239 621.2,248.9 630.9,248.9 			"/>
		</g>
		<rect id="XMLID_315_" x="611.5" y="233.9" class="st12" width="19" height="1.4"/>
		<g id="XMLID_311_">
			<polygon id="XMLID_15_" class="st10" points="634.9,248.9 643.8,248.9 634.9,239 			"/>
			<polygon id="XMLID_14_" class="st10" points="653.9,233.9 641.2,233.9 653.9,243.7 			"/>
			<polygon id="XMLID_13_" class="st11" points="653.9,243.7 641.2,233.9 634.9,233.9 634.9,239 643.8,248.9 653.9,248.9 			"/>
		</g>
		<rect id="XMLID_310_" x="634.1" y="233.9" class="st12" width="19" height="1.4"/>
		<g id="XMLID_306_">
			<polygon id="XMLID_12_" class="st10" points="611.9,267.9 621.2,267.9 611.9,257.6 			"/>
			<polygon id="XMLID_11_" class="st10" points="630.9,252.9 618.6,252.9 630.9,262.3 			"/>
			<polygon id="XMLID_10_" class="st11" points="630.9,262.3 618.6,252.9 611.9,252.9 611.9,257.6 621.2,267.9 630.9,267.9 			"/>
		</g>
		<rect id="XMLID_305_" x="611.5" y="252.5" class="st12" width="19" height="1.4"/>
		<g id="XMLID_301_">
			<polygon id="XMLID_9_" class="st10" points="634.9,267.9 643.8,267.9 634.9,257.6 			"/>
			<polygon id="XMLID_8_" class="st10" points="653.9,252.9 641.2,252.9 653.9,262.3 			"/>
			<polygon id="XMLID_7_" class="st11" points="653.9,262.3 641.2,252.9 634.9,252.9 634.9,257.6 643.8,267.9 653.9,267.9 			"/>
		</g>
		<rect id="XMLID_300_" x="634.1" y="252.5" class="st12" width="19" height="1.4"/>
		<g id="XMLID_296_">
			<polygon id="XMLID_6_" class="st10" points="611.9,286.9 621.2,286.9 611.9,276.3 			"/>
			<polygon id="XMLID_5_" class="st10" points="630.9,271.9 618.6,271.9 630.9,280.9 			"/>
			<polygon id="XMLID_4_" class="st11" points="630.9,280.9 618.6,271.9 611.9,271.9 611.9,276.3 621.2,286.9 630.9,286.9 			"/>
		</g>
		<rect id="XMLID_295_" x="611.5" y="271.2" class="st12" width="19" height="1.4"/>
		<g id="XMLID_291_">
			<polygon id="XMLID_3_" class="st10" points="634.9,286.9 643.8,286.9 634.9,276.3 			"/>
			<polygon id="XMLID_2_" class="st10" points="653.9,271.9 641.2,271.9 653.9,280.9 			"/>
			<polygon id="XMLID_1_" class="st11" points="653.9,280.9 641.2,271.9 634.9,271.9 634.9,276.3 643.8,286.9 653.9,286.9 			"/>
		</g>
		<rect id="XMLID_290_" x="634.1" y="271.2" class="st12" width="19" height="1.4"/>
	</g>
	<rect id="XMLID_288_" x="5.2" y="141.1" class="st13" width="693.2" height="54.2"/>
	<rect id="XMLID_287_" x="14.6" y="146.5" class="st2" width="676.2" height="43.2"/>
	<g id="XMLID_148_">
		<g id="XMLID_281_">
			<path id="XMLID_285_" class="st14" d="M85.7,172.1c-0.5,2.1-1.5,3.6-3,4.7c-1.5,1.1-3.3,1.6-5.4,1.6c-1.9,0-3.4-0.5-4.7-1.3
				c-1.3-0.8-2.2-1.7-2.8-2.7c-0.2-0.3-0.3-0.7-0.5-1c-0.1-0.3-0.2-0.7-0.3-1.2c-0.2-0.9-0.2-2.6-0.2-5.1c0-2.6,0.1-4.3,0.2-5.2
				c0.2-0.9,0.4-1.6,0.8-2.1c0.6-1,1.5-1.9,2.8-2.7c1.3-0.8,2.8-1.2,4.7-1.2c2.3,0,4.2,0.7,5.6,1.9c1.5,1.3,2.4,2.8,2.8,4.7h-3.8
				c-0.3-0.9-0.8-1.7-1.6-2.3c-0.8-0.6-1.8-0.9-3-0.9c-0.9,0-1.6,0.2-2.2,0.5c-0.6,0.3-1.1,0.7-1.5,1.1c-0.5,0.5-0.8,1.1-0.9,1.8
				c-0.2,0.8-0.3,2.3-0.3,4.5c0,2.2,0.1,3.7,0.3,4.4c0.2,0.8,0.5,1.4,0.9,1.9c0.4,0.5,0.9,0.8,1.5,1.1c0.6,0.3,1.3,0.5,2.2,0.5
				c2,0,3.6-1,4.6-3H85.7z"/>
			<path id="XMLID_282_" class="st14" d="M77.3,179.1L77.3,179.1c-2,0-3.8-0.5-5.1-1.4c-1.4-0.8-2.4-1.8-3-2.9
				c-0.2-0.4-0.4-0.7-0.5-1c-0.2-0.4-0.3-0.8-0.4-1.3c-0.2-0.9-0.3-2.7-0.3-5.2c0-2.6,0.1-4.4,0.3-5.3c0.2-1,0.5-1.7,0.9-2.3
				c0.6-1.1,1.6-2.1,3-2.9c1.4-0.9,3.1-1.3,5.1-1.4c2.5,0,4.6,0.7,6.1,2.1c1.6,1.3,2.6,3,3,5l0.2,0.8h-5.2l-0.2-0.5
				c-0.3-0.8-0.7-1.4-1.4-2c-0.7-0.5-1.5-0.7-2.5-0.8c-0.7,0-1.3,0.2-1.8,0.4c-0.5,0.3-1,0.6-1.3,1c-0.4,0.4-0.7,0.9-0.8,1.6
				c-0.2,0.8-0.3,2.2-0.3,4.3c0,2.1,0.1,3.6,0.2,4.3c0.1,0.7,0.4,1.2,0.8,1.6c0.4,0.4,0.8,0.7,1.3,1c0.5,0.3,1.2,0.4,1.9,0.4
				c1.7,0,3-0.9,3.9-2.6l0.2-0.4h5.2l-0.2,0.8c-0.6,2.2-1.6,3.9-3.2,5.1C81.5,178.5,79.5,179.1,77.3,179.1z M77.3,156.6
				c-1.7,0-3.1,0.4-4.3,1.1c-1.2,0.7-2,1.6-2.6,2.5c-0.3,0.5-0.6,1.1-0.7,1.9c-0.2,0.8-0.2,2.5-0.2,5.1c0,2.5,0.1,4.2,0.2,5
				c0.1,0.4,0.2,0.8,0.3,1.1c0.1,0.3,0.3,0.6,0.5,0.9c0.5,0.9,1.4,1.7,2.5,2.4c1.1,0.7,2.6,1.1,4.3,1.2c1.9,0,3.5-0.5,4.9-1.5
				c1.1-0.9,2-2.1,2.5-3.6h-2.4c-1.1,2-2.8,3-5,3c-1,0-1.9-0.2-2.6-0.6c-0.7-0.3-1.3-0.7-1.7-1.3c-0.5-0.5-0.9-1.3-1.1-2.2
				c-0.2-0.8-0.3-2.3-0.3-4.5c0-2.2,0.1-3.7,0.3-4.6c0.2-0.9,0.5-1.6,1.1-2.1c0.4-0.5,1-0.9,1.7-1.3c0.7-0.3,1.6-0.5,2.5-0.6
				c1.4,0,2.5,0.4,3.4,1.1c0.8,0.6,1.3,1.3,1.7,2.1h2.4c-0.4-1.4-1.2-2.6-2.3-3.5C81.1,157.2,79.4,156.6,77.3,156.6z"/>
		</g>
		<g id="XMLID_272_">
			<path id="XMLID_278_" class="st14" d="M88,167.2c0-2.6,0.1-4.3,0.2-5.2c0.2-0.9,0.4-1.6,0.8-2.1c0.6-1,1.5-1.9,2.8-2.7
				c1.3-0.8,2.8-1.2,4.7-1.2c1.9,0,3.5,0.4,4.8,1.2c1.3,0.8,2.2,1.7,2.7,2.7c0.4,0.5,0.7,1.2,0.8,2.1c0.1,0.9,0.2,2.6,0.2,5.2
				c0,2.5-0.1,4.2-0.2,5.1c-0.2,0.9-0.4,1.6-0.8,2.1c-0.6,1-1.5,1.9-2.7,2.7c-1.3,0.8-2.9,1.2-4.8,1.3c-1.9,0-3.4-0.5-4.7-1.3
				c-1.3-0.8-2.2-1.7-2.8-2.7c-0.2-0.3-0.3-0.7-0.5-1c-0.1-0.3-0.2-0.7-0.3-1.2C88.1,171.5,88,169.7,88,167.2z M91.7,167.2
				c0,2.2,0.1,3.7,0.3,4.4c0.2,0.8,0.5,1.4,0.9,1.9c0.4,0.5,0.9,0.8,1.5,1.1c0.6,0.3,1.3,0.5,2.2,0.5c0.9,0,1.6-0.2,2.2-0.5
				c0.6-0.3,1.1-0.7,1.4-1.1c0.5-0.5,0.8-1.1,1-1.9c0.2-0.8,0.2-2.2,0.2-4.4c0-2.2-0.1-3.7-0.2-4.5c-0.2-0.8-0.5-1.4-1-1.8
				c-0.4-0.5-0.8-0.8-1.4-1.1c-0.6-0.3-1.4-0.5-2.2-0.5c-0.9,0-1.6,0.2-2.2,0.5c-0.6,0.3-1.1,0.7-1.5,1.1c-0.5,0.5-0.8,1.1-0.9,1.8
				C91.8,163.5,91.7,165,91.7,167.2z"/>
			<path id="XMLID_273_" class="st14" d="M96.6,179.1L96.6,179.1c-2,0-3.8-0.5-5.1-1.4c-1.4-0.8-2.4-1.8-3-2.9
				c-0.2-0.4-0.4-0.7-0.5-1c-0.2-0.4-0.3-0.8-0.4-1.3c-0.2-0.9-0.3-2.7-0.3-5.2c0-2.6,0.1-4.4,0.3-5.3c0.2-1,0.5-1.7,0.9-2.3
				c0.6-1.1,1.6-2.1,3-2.9c1.4-0.9,3.1-1.3,5.1-1.4c2.1,0,3.8,0.5,5.2,1.4c1.3,0.8,2.3,1.8,2.9,2.9c0.4,0.6,0.8,1.4,0.9,2.3
				c0.1,0.9,0.2,2.6,0.2,5.3c0,2.6-0.1,4.3-0.2,5.2c-0.2,1-0.5,1.8-0.9,2.4c-0.6,1.1-1.6,2.1-2.9,2.9
				C100.4,178.6,98.6,179.1,96.6,179.1L96.6,179.1z M96.6,156.6c-1.7,0-3.1,0.4-4.3,1.1c-1.2,0.7-2,1.6-2.6,2.5
				c-0.3,0.5-0.6,1.1-0.7,1.9c-0.2,0.8-0.2,2.5-0.2,5.1c0,2.5,0.1,4.2,0.2,5c0.1,0.4,0.2,0.8,0.3,1.1c0.1,0.3,0.3,0.6,0.5,0.9
				c0.5,0.9,1.4,1.7,2.5,2.4c1.1,0.7,2.6,1.1,4.3,1.2c1.7,0,3.2-0.4,4.3-1.2c1.2-0.7,2-1.5,2.5-2.5l0.1-0.1c0.3-0.5,0.6-1.1,0.7-1.9
				c0.1-0.9,0.2-2.6,0.2-5c0-2.5-0.1-4.2-0.2-5.1c-0.1-0.8-0.4-1.4-0.7-1.8l-0.1-0.1c-0.5-0.9-1.3-1.8-2.5-2.5
				C99.8,157,98.3,156.6,96.6,156.6z M96.6,175.8c-1,0-1.9-0.2-2.6-0.6c-0.7-0.3-1.3-0.7-1.7-1.3c-0.5-0.5-0.9-1.3-1.1-2.2
				c-0.2-0.8-0.3-2.3-0.3-4.5c0-2.2,0.1-3.7,0.3-4.6c0.2-0.9,0.5-1.6,1.1-2.1c0.4-0.5,1-0.9,1.7-1.3c0.7-0.3,1.6-0.5,2.5-0.6l0,0
				l0,0c1,0,1.8,0.2,2.6,0.5c0.7,0.4,1.3,0.8,1.7,1.3c0.5,0.6,0.9,1.3,1.1,2.1c0.2,0.9,0.3,2.4,0.3,4.6c0,2.2-0.1,3.7-0.3,4.6
				c-0.2,0.9-0.6,1.6-1.1,2.2c-0.4,0.5-1,1-1.7,1.3C98.4,175.6,97.6,175.8,96.6,175.8z M96.6,159.9c-0.7,0-1.4,0.2-1.9,0.4
				c-0.5,0.3-1,0.6-1.3,1c-0.4,0.4-0.7,0.9-0.8,1.6c-0.2,0.8-0.3,2.2-0.3,4.3c0,2.1,0.1,3.6,0.2,4.3c0.1,0.7,0.4,1.2,0.8,1.6
				c0.4,0.4,0.8,0.7,1.3,1c0.5,0.3,1.2,0.4,1.9,0.4c0.7,0,1.4-0.1,1.9-0.4c0.5-0.3,0.9-0.6,1.2-0.9l0-0.1c0.4-0.4,0.7-0.9,0.8-1.6
				c0.2-0.7,0.2-2.2,0.2-4.3c0-2.1-0.1-3.6-0.2-4.3c-0.1-0.6-0.4-1.1-0.8-1.5l0-0.1c-0.3-0.4-0.7-0.7-1.2-1
				C98,160.1,97.3,160,96.6,159.9z"/>
		</g>
		<g id="XMLID_266_">
			<path id="XMLID_270_" class="st14" d="M126.1,172.1c-0.5,2.1-1.5,3.6-3,4.7c-1.5,1.1-3.3,1.6-5.4,1.6c-1.9,0-3.4-0.5-4.7-1.3
				c-1.3-0.8-2.2-1.7-2.8-2.7c-0.2-0.3-0.3-0.7-0.5-1c-0.1-0.3-0.2-0.7-0.3-1.2c-0.2-0.9-0.2-2.6-0.2-5.1c0-2.6,0.1-4.3,0.2-5.2
				c0.2-0.9,0.4-1.6,0.8-2.1c0.6-1,1.5-1.9,2.8-2.7c1.3-0.8,2.8-1.2,4.7-1.2c2.3,0,4.2,0.7,5.6,1.9c1.5,1.3,2.4,2.8,2.8,4.7h-3.8
				c-0.3-0.9-0.8-1.7-1.6-2.3c-0.8-0.6-1.8-0.9-3-0.9c-0.9,0-1.6,0.2-2.2,0.5c-0.6,0.3-1.1,0.7-1.5,1.1c-0.5,0.5-0.8,1.1-0.9,1.8
				c-0.2,0.8-0.3,2.3-0.3,4.5c0,2.2,0.1,3.7,0.3,4.4c0.2,0.8,0.5,1.4,0.9,1.9c0.4,0.5,0.9,0.8,1.5,1.1c0.6,0.3,1.3,0.5,2.2,0.5
				c2,0,3.6-1,4.6-3H126.1z"/>
			<path id="XMLID_267_" class="st14" d="M117.7,179.1L117.7,179.1c-2,0-3.8-0.5-5.1-1.4c-1.4-0.8-2.4-1.8-3-2.9
				c-0.2-0.4-0.4-0.7-0.5-1c-0.2-0.4-0.3-0.8-0.4-1.3c-0.2-0.9-0.3-2.7-0.3-5.2c0-2.6,0.1-4.4,0.3-5.3c0.2-1,0.5-1.7,0.9-2.3
				c0.6-1.1,1.6-2.1,3-2.9c1.4-0.9,3.1-1.3,5.1-1.4c2.5,0,4.6,0.7,6.1,2.1c1.6,1.3,2.6,3,3,5l0.2,0.8h-5.2l-0.2-0.5
				c-0.3-0.8-0.7-1.4-1.4-2c-0.7-0.5-1.5-0.7-2.5-0.8c-0.7,0-1.3,0.2-1.8,0.4c-0.5,0.3-1,0.6-1.3,1c-0.4,0.4-0.7,0.9-0.8,1.6
				c-0.2,0.8-0.3,2.2-0.3,4.3c0,2.1,0.1,3.6,0.2,4.3c0.1,0.7,0.4,1.2,0.8,1.6c0.4,0.4,0.8,0.7,1.3,1c0.5,0.3,1.2,0.4,1.9,0.4
				c1.7,0,3-0.9,3.9-2.6l0.2-0.4h5.2l-0.2,0.8c-0.6,2.2-1.6,3.9-3.2,5.1C121.9,178.5,120,179.1,117.7,179.1z M117.7,156.6
				c-1.7,0-3.1,0.4-4.3,1.1c-1.2,0.7-2,1.6-2.6,2.5c-0.3,0.5-0.6,1.1-0.7,1.9c-0.2,0.8-0.2,2.5-0.2,5.1c0,2.5,0.1,4.2,0.2,5
				c0.1,0.4,0.2,0.8,0.3,1.1c0.1,0.3,0.3,0.6,0.5,0.9c0.5,0.9,1.4,1.7,2.5,2.4c1.1,0.7,2.6,1.1,4.3,1.2c1.9,0,3.5-0.5,4.9-1.5
				c1.1-0.9,2-2.1,2.5-3.6h-2.4c-1.1,2-2.8,3-5,3c-1,0-1.9-0.2-2.6-0.6c-0.7-0.3-1.3-0.7-1.7-1.3c-0.5-0.5-0.9-1.3-1.1-2.2
				c-0.2-0.8-0.3-2.3-0.3-4.5c0-2.2,0.1-3.7,0.3-4.6c0.2-0.9,0.5-1.6,1.1-2.1c0.4-0.5,1-0.9,1.7-1.3c0.7-0.3,1.6-0.5,2.5-0.6
				c1.4,0,2.5,0.4,3.4,1.1c0.8,0.6,1.3,1.3,1.7,2.1h2.4c-0.4-1.4-1.2-2.6-2.3-3.5C121.5,157.2,119.9,156.6,117.7,156.6z"/>
		</g>
		<g id="XMLID_257_">
			<path id="XMLID_263_" class="st14" d="M141.5,173.3h-9.1l-1.8,5h-3.8l8.7-22.2h3l8.7,22.2h-3.8L141.5,173.3z M140.5,170.4
				l-3.5-9.7H137l-3.5,9.7H140.5z"/>
			<path id="XMLID_258_" class="st14" d="M148.2,178.9h-5.4l-1.9-5h-8l-1.8,5h-5.4l9.2-23.5h4.1L148.2,178.9z M143.9,177.7h2.3
				l-8.2-20.9h-2l-8.2,20.9h2.3l1.8-5H142L143.9,177.7z M141.5,171h-9l3.9-11h1.1L141.5,171z M134.5,169.7h5l-2.5-7L134.5,169.7z"/>
		</g>
		<g id="XMLID_251_">
			<path id="XMLID_255_" class="st14" d="M225.8,172.1c-0.5,2.1-1.5,3.6-3,4.7c-1.5,1.1-3.3,1.6-5.4,1.6c-1.9,0-3.4-0.5-4.7-1.3
				c-1.3-0.8-2.2-1.7-2.8-2.7c-0.2-0.3-0.3-0.7-0.5-1c-0.1-0.3-0.2-0.7-0.3-1.2c-0.2-0.9-0.2-2.6-0.2-5.1c0-2.6,0.1-4.3,0.2-5.2
				c0.2-0.9,0.4-1.6,0.8-2.1c0.6-1,1.5-1.9,2.8-2.7c1.3-0.8,2.8-1.2,4.7-1.2c2.3,0,4.2,0.7,5.6,1.9c1.5,1.3,2.4,2.8,2.8,4.7h-3.8
				c-0.3-0.9-0.8-1.7-1.6-2.3c-0.8-0.6-1.8-0.9-3-0.9c-0.9,0-1.6,0.2-2.2,0.5c-0.6,0.3-1.1,0.7-1.5,1.1c-0.5,0.5-0.8,1.1-0.9,1.8
				c-0.2,0.8-0.3,2.3-0.3,4.5c0,2.2,0.1,3.7,0.3,4.4c0.2,0.8,0.5,1.4,0.9,1.9c0.4,0.5,0.9,0.8,1.5,1.1c0.6,0.3,1.3,0.5,2.2,0.5
				c2,0,3.6-1,4.6-3H225.8z"/>
			<path id="XMLID_252_" class="st14" d="M217.4,179.1L217.4,179.1c-2,0-3.8-0.5-5.1-1.4c-1.4-0.8-2.4-1.8-3-2.9
				c-0.2-0.4-0.4-0.7-0.5-1c-0.2-0.4-0.3-0.8-0.4-1.3c-0.2-0.9-0.3-2.7-0.3-5.2c0-2.6,0.1-4.4,0.3-5.3c0.2-1,0.5-1.7,0.9-2.3
				c0.6-1.1,1.6-2.1,3-2.9c1.4-0.9,3.1-1.3,5.1-1.4c2.5,0,4.6,0.7,6.1,2.1c1.6,1.3,2.6,3,3,5l0.2,0.8h-5.2l-0.2-0.5
				c-0.3-0.8-0.7-1.4-1.4-2c-0.7-0.5-1.5-0.7-2.5-0.8c-0.7,0-1.3,0.2-1.8,0.4c-0.5,0.3-1,0.6-1.3,1c-0.4,0.4-0.7,0.9-0.8,1.6
				c-0.2,0.8-0.3,2.2-0.3,4.3c0,2.1,0.1,3.6,0.2,4.3c0.1,0.7,0.4,1.2,0.8,1.6c0.4,0.4,0.8,0.7,1.3,1c0.5,0.3,1.2,0.4,1.9,0.4
				c1.7,0,3-0.9,3.9-2.6l0.2-0.4h5.2l-0.2,0.8c-0.6,2.2-1.7,3.9-3.2,5.1C221.6,178.5,219.6,179.1,217.4,179.1z M217.4,156.6
				c-1.7,0-3.1,0.4-4.3,1.1c-1.2,0.7-2,1.6-2.6,2.5c-0.3,0.5-0.6,1.1-0.7,1.9c-0.2,0.8-0.2,2.5-0.2,5.1c0,2.5,0.1,4.2,0.2,5
				c0.1,0.4,0.2,0.8,0.3,1.1c0.1,0.3,0.3,0.6,0.5,0.9c0.5,0.9,1.4,1.7,2.5,2.4c1.1,0.7,2.6,1.1,4.3,1.2c1.9,0,3.5-0.5,4.9-1.5
				c1.1-0.9,2-2.1,2.5-3.6h-2.4c-1.1,2-2.8,3-5,3c-1,0-1.9-0.2-2.6-0.6c-0.7-0.3-1.3-0.7-1.7-1.3c-0.5-0.5-0.9-1.3-1.1-2.2
				c-0.2-0.8-0.3-2.3-0.3-4.5c0-2.2,0.1-3.7,0.3-4.6c0.2-0.9,0.5-1.6,1.1-2.1c0.4-0.5,1-0.9,1.7-1.3c0.7-0.3,1.6-0.5,2.5-0.6
				c1.4,0,2.5,0.4,3.4,1.1c0.8,0.6,1.3,1.3,1.7,2.1h2.4c-0.4-1.4-1.2-2.6-2.3-3.5C221.2,157.2,219.5,156.6,217.4,156.6z"/>
		</g>
		<g id="XMLID_242_">
			<path id="XMLID_248_" class="st14" d="M228.1,167.2c0-2.6,0.1-4.3,0.2-5.2c0.2-0.9,0.4-1.6,0.8-2.1c0.6-1,1.5-1.9,2.8-2.7
				c1.3-0.8,2.8-1.2,4.7-1.2c1.9,0,3.5,0.4,4.8,1.2c1.3,0.8,2.2,1.7,2.7,2.7c0.4,0.5,0.7,1.2,0.8,2.1c0.1,0.9,0.2,2.6,0.2,5.2
				c0,2.5-0.1,4.2-0.2,5.1c-0.2,0.9-0.4,1.6-0.8,2.1c-0.6,1-1.5,1.9-2.7,2.7c-1.3,0.8-2.9,1.2-4.8,1.3c-1.9,0-3.4-0.5-4.7-1.3
				c-1.3-0.8-2.2-1.7-2.8-2.7c-0.2-0.3-0.3-0.7-0.5-1c-0.1-0.3-0.2-0.7-0.3-1.2C228.2,171.5,228.1,169.7,228.1,167.2z M231.7,167.2
				c0,2.2,0.1,3.7,0.3,4.4c0.2,0.8,0.5,1.4,0.9,1.9c0.4,0.5,0.9,0.8,1.5,1.1c0.6,0.3,1.3,0.5,2.2,0.5c0.9,0,1.6-0.2,2.2-0.5
				c0.6-0.3,1.1-0.7,1.4-1.1c0.5-0.5,0.8-1.1,1-1.9c0.2-0.8,0.2-2.2,0.2-4.4c0-2.2-0.1-3.7-0.2-4.5c-0.2-0.8-0.5-1.4-1-1.8
				c-0.4-0.5-0.8-0.8-1.4-1.1c-0.6-0.3-1.4-0.5-2.2-0.5c-0.9,0-1.6,0.2-2.2,0.5c-0.6,0.3-1.1,0.7-1.5,1.1c-0.5,0.5-0.8,1.1-0.9,1.8
				C231.8,163.5,231.7,165,231.7,167.2z"/>
			<path id="XMLID_243_" class="st14" d="M236.6,179.1L236.6,179.1c-2,0-3.8-0.5-5.1-1.4c-1.4-0.8-2.4-1.8-3-2.9
				c-0.2-0.4-0.4-0.7-0.5-1c-0.2-0.4-0.3-0.8-0.4-1.3c-0.2-0.9-0.3-2.6-0.3-5.2c0-2.6,0.1-4.4,0.3-5.3c0.2-1,0.5-1.7,0.9-2.3
				c0.6-1.1,1.6-2.1,3-2.9c1.4-0.9,3.1-1.3,5.1-1.4c2.1,0,3.8,0.5,5.2,1.4c1.3,0.8,2.3,1.8,2.9,2.9c0.4,0.6,0.8,1.4,0.9,2.3
				c0.1,0.9,0.2,2.6,0.2,5.3c0,2.6-0.1,4.3-0.2,5.2c-0.2,1-0.5,1.8-0.9,2.4c-0.6,1.1-1.6,2.1-2.9,2.9
				C240.4,178.6,238.7,179.1,236.6,179.1L236.6,179.1z M236.6,156.6c-1.7,0-3.1,0.4-4.3,1.1c-1.2,0.7-2,1.6-2.6,2.5
				c-0.3,0.5-0.6,1.1-0.7,1.9c-0.2,0.8-0.2,2.5-0.2,5.1c0,2.5,0.1,4.2,0.2,5c0.1,0.4,0.2,0.8,0.3,1.1c0.1,0.3,0.3,0.6,0.5,0.9
				c0.5,0.9,1.4,1.7,2.5,2.4c1.1,0.7,2.6,1.1,4.3,1.2c1.7,0,3.2-0.4,4.3-1.2c1.2-0.7,2-1.5,2.5-2.5l0.1-0.1c0.3-0.5,0.6-1.1,0.7-1.9
				c0.1-0.9,0.2-2.6,0.2-5c0-2.5-0.1-4.2-0.2-5.1c-0.1-0.8-0.4-1.4-0.7-1.8l-0.1-0.1c-0.5-0.9-1.3-1.8-2.5-2.5
				C239.8,157,238.4,156.6,236.6,156.6z M236.6,175.8c-1,0-1.9-0.2-2.6-0.6c-0.7-0.3-1.3-0.7-1.7-1.3c-0.5-0.5-0.9-1.3-1.1-2.2
				c-0.2-0.8-0.3-2.3-0.3-4.5c0-2.2,0.1-3.7,0.3-4.6c0.2-0.9,0.5-1.6,1.1-2.1c0.4-0.5,1-0.9,1.7-1.3c0.7-0.3,1.6-0.5,2.5-0.6l0,0
				l0,0c1,0,1.8,0.2,2.6,0.5c0.7,0.4,1.3,0.8,1.7,1.3c0.5,0.6,0.9,1.3,1.1,2.1c0.2,0.9,0.3,2.4,0.3,4.6c0,2.2-0.1,3.7-0.3,4.6
				c-0.2,0.9-0.6,1.6-1.1,2.2c-0.4,0.5-1,1-1.7,1.3C238.5,175.6,237.6,175.8,236.6,175.8z M236.6,159.9c-0.7,0-1.4,0.2-1.9,0.4
				c-0.5,0.3-1,0.6-1.3,1c-0.4,0.4-0.7,0.9-0.8,1.6c-0.2,0.8-0.3,2.2-0.3,4.3c0,2.1,0.1,3.6,0.2,4.3c0.1,0.7,0.4,1.2,0.8,1.6
				c0.4,0.4,0.8,0.7,1.3,1c0.5,0.3,1.2,0.4,1.9,0.4c0.7,0,1.4-0.1,1.9-0.4c0.5-0.3,0.9-0.6,1.2-0.9l0-0.1c0.4-0.4,0.7-0.9,0.8-1.6
				c0.2-0.7,0.2-2.2,0.2-4.3c0-2.1-0.1-3.6-0.2-4.3c-0.1-0.6-0.4-1.1-0.8-1.5l0-0.1c-0.3-0.4-0.7-0.7-1.2-1
				C238,160.1,237.4,160,236.6,159.9z"/>
		</g>
		<g id="XMLID_236_">
			<path id="XMLID_240_" class="st14" d="M250.1,156.1h3.6v19h11.6v3.2h-15.3V156.1z"/>
			<path id="XMLID_237_" class="st14" d="M266,178.9h-16.7v-23.5h5.1v19H266V178.9z M250.8,177.7h13.8v-1.9h-11.6v-19h-2.2V177.7z"
				/>
		</g>
		<g id="XMLID_227_">
			<path id="XMLID_233_" class="st14" d="M281.6,173.3h-9.1l-1.8,5h-3.8l8.7-22.2h3l8.7,22.2h-3.8L281.6,173.3z M280.5,170.4
				l-3.5-9.7H277l-3.5,9.7H280.5z"/>
			<path id="XMLID_228_" class="st14" d="M288.3,178.9h-5.4l-1.9-5h-8l-1.8,5h-5.4l9.2-23.5h4.1L288.3,178.9z M283.9,177.7h2.3
				l-8.2-20.9h-2l-8.2,20.9h2.3l1.8-5h10.1L283.9,177.7z M281.5,171h-9l3.9-11h1.1L281.5,171z M274.6,169.7h5l-2.5-7L274.6,169.7z"
				/>
		</g>
		<g id="XMLID_215_">
			<path id="XMLID_223_" class="st14" d="M372.3,156.1h9.3c2.3,0,4.1,0.6,5.3,1.6c1.2,1.1,1.8,2.5,1.8,4.3c0,0.9-0.2,1.8-0.7,2.6
				c-0.3,0.4-0.6,0.8-1.1,1.1c-0.5,0.4-1,0.7-1.7,1v0.1c1.3,0.3,2.3,0.9,3,1.9c0.6,1,0.9,2.1,0.9,3.2c0,1.9-0.7,3.4-1.9,4.5
				c-1.3,1.2-2.8,1.7-4.7,1.7h-10.1V156.1z M375.9,159.1v6.4h5.2c1.3,0,2.3-0.3,2.9-1c0.6-0.6,1-1.3,1-2.2c0-0.9-0.3-1.7-1-2.3
				c-0.6-0.6-1.6-0.9-2.9-0.9H375.9z M375.9,168.5v6.7h5.6c1.3,0,2.3-0.4,3-1c0.6-0.7,0.9-1.4,0.9-2.3c0-0.9-0.3-1.7-0.9-2.3
				c-0.6-0.6-1.6-1-3-1H375.9z"/>
			<path id="XMLID_216_" class="st14" d="M382.3,178.9h-10.8v-23.5h10c2.5,0,4.5,0.6,5.8,1.8c1.3,1.2,2,2.8,2,4.8c0,1-0.2,2-0.8,2.9
				c-0.3,0.5-0.7,0.9-1.3,1.3c-0.2,0.2-0.4,0.3-0.6,0.4c0.8,0.4,1.5,1,2,1.7c0.7,1.1,1,2.3,1,3.6c0,2.1-0.7,3.8-2.2,5
				C386.2,178.3,384.4,178.9,382.3,178.9z M373,177.7h9.4c1.7,0,3.1-0.5,4.2-1.6c1.2-1,1.7-2.3,1.7-4.1c0-1-0.3-2-0.8-2.9
				c-0.6-0.8-1.4-1.3-2.5-1.6l-0.5-0.1v-0.9l0.4-0.2c0.6-0.3,1.2-0.6,1.6-0.9c0.4-0.3,0.7-0.6,0.9-1c0.4-0.7,0.6-1.5,0.6-2.3
				c0-1.6-0.5-2.9-1.6-3.9c-1-0.9-2.6-1.4-4.8-1.4H373V177.7z M375.9,175.8h-0.7v-8h6.3c1.6,0,2.7,0.4,3.5,1.2
				c0.7,0.8,1.1,1.7,1.1,2.8c0,1-0.4,2-1.1,2.7c-0.8,0.8-1.9,1.2-3.5,1.2H375.9z M376.6,174.5h4.9c1.1,0,1.9-0.3,2.4-0.8
				c0.5-0.5,0.8-1.2,0.8-1.9c0-0.8-0.2-1.4-0.8-1.9c-0.5-0.5-1.3-0.7-2.4-0.8h-4.9V174.5z M381.1,166.1h-6v-7.7h6
				c1.5,0,2.7,0.4,3.4,1.1c0.8,0.8,1.2,1.7,1.2,2.7c0,1.1-0.4,2-1.2,2.7C383.8,165.7,382.6,166.1,381.1,166.1z M376.6,164.8h4.5
				c1.1,0,1.9-0.2,2.4-0.7c0.5-0.5,0.8-1.1,0.8-1.8c0-0.7-0.2-1.3-0.8-1.8c-0.5-0.4-1.3-0.7-2.4-0.7h-4.5V164.8z"/>
		</g>
		<g id="XMLID_206_">
			<path id="XMLID_212_" class="st14" d="M392.6,167.2c0-2.6,0.1-4.3,0.2-5.2c0.2-0.9,0.4-1.6,0.8-2.1c0.6-1,1.5-1.9,2.8-2.7
				c1.3-0.8,2.8-1.2,4.7-1.2c1.9,0,3.5,0.4,4.8,1.2c1.3,0.8,2.2,1.7,2.7,2.7c0.4,0.5,0.7,1.2,0.8,2.1c0.1,0.9,0.2,2.6,0.2,5.2
				c0,2.5-0.1,4.2-0.2,5.1c-0.2,0.9-0.4,1.6-0.8,2.1c-0.6,1-1.5,1.9-2.7,2.7c-1.3,0.8-2.9,1.2-4.8,1.3c-1.9,0-3.4-0.5-4.7-1.3
				c-1.3-0.8-2.2-1.7-2.8-2.7c-0.2-0.3-0.3-0.7-0.5-1c-0.1-0.3-0.2-0.7-0.3-1.2C392.7,171.5,392.6,169.7,392.6,167.2z M396.2,167.2
				c0,2.2,0.1,3.7,0.3,4.4c0.2,0.8,0.5,1.4,0.9,1.9c0.4,0.5,0.9,0.8,1.5,1.1c0.6,0.3,1.3,0.5,2.2,0.5c0.9,0,1.6-0.2,2.2-0.5
				c0.6-0.3,1.1-0.7,1.4-1.1c0.5-0.5,0.8-1.1,1-1.9c0.2-0.8,0.2-2.2,0.2-4.4c0-2.2-0.1-3.7-0.2-4.5c-0.2-0.8-0.5-1.4-1-1.8
				c-0.4-0.5-0.8-0.8-1.4-1.1c-0.6-0.3-1.4-0.5-2.2-0.5c-0.9,0-1.6,0.2-2.2,0.5c-0.6,0.3-1.1,0.7-1.5,1.1c-0.5,0.5-0.8,1.1-0.9,1.8
				C396.3,163.5,396.2,165,396.2,167.2z"/>
			<path id="XMLID_207_" class="st14" d="M401.1,179.1L401.1,179.1c-2,0-3.8-0.5-5.1-1.4c-1.4-0.8-2.4-1.8-3-2.9
				c-0.2-0.4-0.4-0.7-0.5-1c-0.2-0.4-0.3-0.8-0.4-1.3c-0.2-0.9-0.3-2.6-0.3-5.2c0-2.6,0.1-4.4,0.3-5.3c0.2-1,0.5-1.7,0.9-2.3
				c0.6-1.1,1.6-2.1,3-2.9c1.4-0.9,3.1-1.3,5.1-1.4c2.1,0,3.8,0.5,5.2,1.4c1.3,0.8,2.3,1.8,2.9,2.9c0.4,0.6,0.8,1.4,0.9,2.3
				c0.1,0.9,0.2,2.6,0.2,5.3c0,2.6-0.1,4.3-0.2,5.2c-0.2,1-0.5,1.8-0.9,2.4c-0.6,1.1-1.6,2.1-2.9,2.9
				C404.9,178.6,403.2,179.1,401.1,179.1L401.1,179.1z M401.1,156.6c-1.7,0-3.1,0.4-4.3,1.1c-1.2,0.7-2,1.6-2.6,2.5
				c-0.3,0.5-0.6,1.1-0.7,1.9c-0.2,0.8-0.2,2.5-0.2,5.1c0,2.5,0.1,4.2,0.2,5c0.1,0.4,0.2,0.8,0.3,1.1c0.1,0.3,0.3,0.6,0.5,0.9
				c0.5,0.9,1.4,1.7,2.5,2.4c1.1,0.7,2.6,1.1,4.3,1.2c1.7,0,3.2-0.4,4.3-1.2c1.2-0.7,2-1.5,2.5-2.5l0.1-0.1c0.3-0.5,0.6-1.1,0.7-1.9
				c0.1-0.9,0.2-2.6,0.2-5c0-2.5-0.1-4.2-0.2-5.1c-0.1-0.8-0.4-1.4-0.7-1.8l-0.1-0.1c-0.5-0.9-1.3-1.8-2.5-2.5
				C404.3,157,402.8,156.6,401.1,156.6z M401.1,175.8c-1,0-1.9-0.2-2.6-0.6c-0.7-0.3-1.3-0.7-1.7-1.3c-0.5-0.5-0.9-1.3-1.1-2.2
				c-0.2-0.8-0.3-2.3-0.3-4.5c0-2.2,0.1-3.7,0.3-4.6c0.2-0.9,0.5-1.6,1.1-2.1c0.4-0.5,1-0.9,1.7-1.3c0.7-0.3,1.6-0.5,2.5-0.6l0,0
				l0,0c1,0,1.8,0.2,2.6,0.5c0.7,0.4,1.3,0.8,1.7,1.3c0.5,0.6,0.9,1.3,1.1,2.1c0.2,0.9,0.3,2.4,0.3,4.6c0,2.2-0.1,3.7-0.3,4.6
				c-0.2,0.9-0.6,1.6-1.1,2.2c-0.4,0.5-1,1-1.7,1.3C403,175.6,402.1,175.8,401.1,175.8z M401.1,159.9c-0.7,0-1.4,0.2-1.9,0.4
				c-0.5,0.3-1,0.6-1.3,1c-0.4,0.4-0.7,0.9-0.8,1.6c-0.2,0.8-0.3,2.2-0.3,4.3c0,2.1,0.1,3.6,0.2,4.3c0.1,0.7,0.4,1.2,0.8,1.6
				c0.4,0.4,0.8,0.7,1.3,1c0.5,0.3,1.2,0.4,1.9,0.4c0.7,0,1.4-0.1,1.9-0.4c0.5-0.3,0.9-0.6,1.2-0.9l0-0.1c0.4-0.4,0.7-0.9,0.8-1.6
				c0.2-0.7,0.2-2.2,0.2-4.3c0-2.1-0.1-3.6-0.2-4.3c-0.1-0.6-0.4-1.1-0.8-1.5l0-0.1c-0.3-0.4-0.7-0.7-1.2-1
				C402.5,160.1,401.8,160,401.1,159.9z"/>
		</g>
		<g id="XMLID_200_">
			<path id="XMLID_204_" class="st14" d="M418,159.1h-6.6v-3h16.7v3h-6.6v19.2H418V159.1z"/>
			<path id="XMLID_201_" class="st14" d="M422.3,178.9h-5.1v-19.2h-6.6v-4.3h18.2v4.3h-6.6V178.9z M418.7,177.7h2.2v-19.2h6.6v-1.7
				h-15.3v1.7h6.6V177.7z"/>
		</g>
		<g id="XMLID_194_">
			<path id="XMLID_198_" class="st14" d="M435.3,159.1h-6.6v-3h16.7v3h-6.6v19.2h-3.6V159.1z"/>
			<path id="XMLID_195_" class="st14" d="M439.6,178.9h-5.1v-19.2H428v-4.3h18.2v4.3h-6.6V178.9z M436,177.7h2.2v-19.2h6.6v-1.7
				h-15.3v1.7h6.6V177.7z"/>
		</g>
		<g id="XMLID_188_">
			<path id="XMLID_192_" class="st14" d="M448.6,156.1h3.6v19h11.6v3.2h-15.3V156.1z"/>
			<path id="XMLID_189_" class="st14" d="M464.6,178.9h-16.7v-23.5h5.1v19h11.6V178.9z M449.3,177.7h13.8v-1.9h-11.6v-19h-2.2V177.7
				z"/>
		</g>
		<g id="XMLID_182_">
			<path id="XMLID_186_" class="st14" d="M467.8,156.1h3.6v22.2h-3.6V156.1z"/>
			<path id="XMLID_183_" class="st14" d="M472.2,178.9h-5.1v-23.5h5.1V178.9z M468.6,177.7h2.2v-20.9h-2.2V177.7z"/>
		</g>
		<g id="XMLID_176_">
			<path id="XMLID_180_" class="st14" d="M476.8,156.1h3.4l10.8,15.8h0.1v-15.8h3.6v22.2h-3.4l-10.8-15.8h-0.1v15.8h-3.6V156.1z"/>
			<path id="XMLID_177_" class="st14" d="M495.4,178.9h-4.6l-9.7-14.2v14.2h-5.1v-23.5h4.5l9.8,14.2v-14.2h5.1V178.9z M491.7,177.7
				h2.3v-20.9h-2.2v15.8h-1.1l-0.3-0.3l-10.6-15.5h-2.3v20.9h2.2v-15.8h1.1l0.3,0.3L491.7,177.7z"/>
		</g>
		<g id="XMLID_170_">
			<path id="XMLID_174_" class="st14" d="M508.2,166.1h8.5v4.5c0,2.2-0.9,4.1-2.5,5.6c-1.6,1.5-3.6,2.3-6.1,2.3
				c-1.9,0-3.4-0.5-4.7-1.3c-1.3-0.8-2.2-1.7-2.8-2.7c-0.2-0.3-0.3-0.7-0.5-1c-0.1-0.3-0.2-0.7-0.3-1.2c-0.2-0.9-0.2-2.6-0.2-5.1
				c0-2.6,0.1-4.3,0.2-5.2c0.2-0.9,0.4-1.6,0.8-2.1c0.6-1,1.5-1.9,2.8-2.7c1.3-0.8,2.8-1.2,4.7-1.2c2.3,0,4.2,0.7,5.6,1.9
				c1.5,1.3,2.4,2.8,2.8,4.7h-3.8c-0.3-0.9-0.8-1.7-1.6-2.3c-0.8-0.6-1.8-0.9-3-0.9c-0.9,0-1.6,0.2-2.2,0.5
				c-0.6,0.3-1.1,0.7-1.5,1.1c-0.5,0.5-0.8,1.1-0.9,1.8c-0.2,0.8-0.3,2.3-0.3,4.5c0,2.2,0.1,3.7,0.3,4.4c0.2,0.8,0.5,1.4,0.9,1.9
				c0.4,0.5,0.9,0.8,1.5,1.1c0.6,0.3,1.3,0.5,2.2,0.5c1.4,0,2.6-0.4,3.5-1.3c0.9-0.9,1.4-2,1.4-3.4v-1.2h-4.9V166.1z"/>
			<path id="XMLID_171_" class="st14" d="M508.2,179.1L508.2,179.1c-2,0-3.8-0.5-5.1-1.4c-1.4-0.8-2.4-1.8-3-2.9
				c-0.2-0.4-0.4-0.7-0.5-1c-0.2-0.4-0.3-0.8-0.4-1.3c-0.2-0.9-0.3-2.6-0.3-5.2c0-2.6,0.1-4.4,0.3-5.3c0.2-1,0.5-1.7,0.9-2.3
				c0.6-1.1,1.6-2.1,3-2.9c1.4-0.9,3.1-1.3,5.1-1.4c2.5,0,4.6,0.7,6.1,2.1c1.6,1.3,2.6,3,3,5l0.2,0.8h-5.2l-0.2-0.5
				c-0.3-0.8-0.7-1.4-1.4-2c-0.7-0.5-1.5-0.7-2.5-0.8c-0.7,0-1.3,0.2-1.8,0.4c-0.5,0.3-1,0.6-1.3,1c-0.4,0.4-0.7,0.9-0.8,1.6
				c-0.2,0.8-0.3,2.2-0.3,4.3c0,2.1,0.1,3.6,0.2,4.3c0.1,0.7,0.4,1.2,0.8,1.6c0.4,0.4,0.8,0.7,1.3,1c0.5,0.3,1.2,0.4,1.9,0.4
				c1.2,0,2.2-0.4,3-1.1c0.8-0.7,1.2-1.7,1.2-2.9v-0.5h-4.9v-4.5h9.9v5.2c0,2.4-0.9,4.4-2.7,6C513.1,178.2,510.9,179.1,508.2,179.1
				L508.2,179.1z M508.2,156.6c-1.7,0-3.1,0.4-4.3,1.1c-1.2,0.7-2,1.6-2.6,2.5c-0.3,0.5-0.6,1.1-0.7,1.9c-0.2,0.8-0.2,2.5-0.2,5.1
				c0,2.5,0.1,4.2,0.2,5c0.1,0.4,0.2,0.8,0.3,1.1c0.1,0.3,0.3,0.6,0.5,0.9c0.5,0.9,1.4,1.7,2.5,2.4c1.1,0.7,2.6,1.1,4.3,1.2
				c2.3,0,4.1-0.7,5.5-2.1c1.5-1.4,2.2-3.1,2.3-5.1v-3.8H509v1.9h4.9v1.8c0,1.6-0.6,2.8-1.6,3.8c-1,1-2.4,1.5-4,1.5
				c-1,0-1.9-0.2-2.6-0.6c-0.7-0.3-1.3-0.7-1.7-1.3c-0.5-0.5-0.9-1.3-1.1-2.2c-0.2-0.8-0.3-2.3-0.3-4.5c0-2.2,0.1-3.7,0.3-4.6
				c0.2-0.9,0.5-1.6,1.1-2.1c0.4-0.5,1-0.9,1.7-1.3c0.7-0.3,1.6-0.5,2.5-0.6c1.4,0,2.5,0.4,3.4,1.1c0.8,0.6,1.3,1.3,1.7,2.1h2.4
				c-0.4-1.4-1.2-2.6-2.3-3.6C512,157.2,510.3,156.6,508.2,156.6z"/>
		</g>
		<g id="XMLID_164_">
			<path id="XMLID_168_" class="st14" d="M620,172.1c-0.5,2.1-1.5,3.6-3,4.7c-1.5,1.1-3.3,1.6-5.4,1.6c-1.9,0-3.4-0.5-4.7-1.3
				c-1.3-0.8-2.2-1.7-2.8-2.7c-0.2-0.3-0.3-0.7-0.5-1c-0.1-0.3-0.2-0.7-0.3-1.2c-0.2-0.9-0.2-2.6-0.2-5.1c0-2.6,0.1-4.3,0.2-5.2
				c0.2-0.9,0.4-1.6,0.8-2.1c0.6-1,1.5-1.9,2.8-2.7c1.3-0.8,2.8-1.2,4.7-1.2c2.3,0,4.2,0.7,5.6,1.9c1.5,1.3,2.4,2.8,2.8,4.7h-3.8
				c-0.3-0.9-0.8-1.7-1.6-2.3c-0.8-0.6-1.8-0.9-3-0.9c-0.9,0-1.6,0.2-2.2,0.5c-0.6,0.3-1.1,0.7-1.5,1.1c-0.5,0.5-0.8,1.1-0.9,1.8
				c-0.2,0.8-0.3,2.3-0.3,4.5c0,2.2,0.1,3.7,0.3,4.4c0.2,0.8,0.5,1.4,0.9,1.9c0.4,0.5,0.9,0.8,1.5,1.1c0.6,0.3,1.3,0.5,2.2,0.5
				c2,0,3.6-1,4.6-3H620z"/>
			<path id="XMLID_165_" class="st14" d="M611.6,179.1L611.6,179.1c-2,0-3.8-0.5-5.1-1.4c-1.4-0.8-2.4-1.8-3-2.9
				c-0.2-0.4-0.4-0.7-0.5-1c-0.2-0.4-0.3-0.8-0.4-1.3c-0.2-0.9-0.3-2.6-0.3-5.2c0-2.6,0.1-4.4,0.3-5.3c0.2-1,0.5-1.7,0.9-2.3
				c0.6-1.1,1.6-2.1,3-2.9c1.4-0.9,3.1-1.3,5.1-1.4c2.5,0,4.6,0.7,6.1,2.1c1.6,1.3,2.6,3,3,5l0.2,0.8h-5.2l-0.2-0.5
				c-0.3-0.8-0.7-1.4-1.4-2c-0.7-0.5-1.5-0.7-2.5-0.8c-0.7,0-1.3,0.2-1.8,0.4c-0.5,0.3-1,0.6-1.3,1c-0.4,0.4-0.7,0.9-0.8,1.6
				c-0.2,0.8-0.3,2.2-0.3,4.3c0,2.1,0.1,3.6,0.2,4.3c0.1,0.7,0.4,1.2,0.8,1.6c0.4,0.4,0.8,0.7,1.3,1c0.5,0.3,1.2,0.4,1.9,0.4
				c1.7,0,3-0.9,3.9-2.6l0.2-0.4h5.2l-0.2,0.8c-0.6,2.2-1.7,3.9-3.2,5.1C615.8,178.5,613.8,179.1,611.6,179.1z M611.6,156.6
				c-1.7,0-3.1,0.4-4.3,1.1c-1.2,0.7-2,1.6-2.6,2.5c-0.3,0.5-0.6,1.1-0.7,1.9c-0.2,0.8-0.2,2.5-0.2,5.1c0,2.5,0.1,4.2,0.2,5
				c0.1,0.4,0.2,0.8,0.3,1.1c0.1,0.3,0.3,0.6,0.5,0.9c0.5,0.9,1.4,1.7,2.5,2.4c1.1,0.7,2.6,1.1,4.3,1.2c1.9,0,3.5-0.5,4.9-1.5
				c1.1-0.9,2-2.1,2.5-3.6h-2.4c-1.1,2-2.8,3-5,3c-1,0-1.9-0.2-2.6-0.6c-0.7-0.3-1.3-0.7-1.7-1.3c-0.5-0.5-0.9-1.3-1.1-2.2
				c-0.2-0.8-0.3-2.3-0.3-4.5c0-2.2,0.1-3.7,0.3-4.6c0.2-0.9,0.5-1.6,1.1-2.1c0.4-0.5,1-0.9,1.7-1.3c0.7-0.3,1.6-0.5,2.5-0.6
				c1.4,0,2.5,0.4,3.4,1.1c0.8,0.6,1.3,1.3,1.7,2.1h2.4c-0.4-1.4-1.2-2.6-2.3-3.5C615.4,157.2,613.7,156.6,611.6,156.6z"/>
		</g>
		<g id="XMLID_155_">
			<path id="XMLID_161_" class="st14" d="M622.3,167.2c0-2.6,0.1-4.3,0.2-5.2c0.2-0.9,0.4-1.6,0.8-2.1c0.6-1,1.5-1.9,2.8-2.7
				c1.3-0.8,2.8-1.2,4.7-1.2c1.9,0,3.5,0.4,4.8,1.2c1.3,0.8,2.2,1.7,2.7,2.7c0.4,0.5,0.7,1.2,0.8,2.1c0.1,0.9,0.2,2.6,0.2,5.2
				c0,2.5-0.1,4.2-0.2,5.1c-0.2,0.9-0.4,1.6-0.8,2.1c-0.6,1-1.5,1.9-2.7,2.7c-1.3,0.8-2.9,1.2-4.8,1.3c-1.9,0-3.4-0.5-4.7-1.3
				c-1.3-0.8-2.2-1.7-2.8-2.7c-0.2-0.3-0.3-0.7-0.5-1c-0.1-0.3-0.2-0.7-0.3-1.2C622.4,171.5,622.3,169.7,622.3,167.2z M626,167.2
				c0,2.2,0.1,3.7,0.3,4.4c0.2,0.8,0.5,1.4,0.9,1.9c0.4,0.5,0.9,0.8,1.5,1.1c0.6,0.3,1.3,0.5,2.2,0.5c0.9,0,1.6-0.2,2.2-0.5
				c0.6-0.3,1.1-0.7,1.4-1.1c0.5-0.5,0.8-1.1,1-1.9c0.2-0.8,0.2-2.2,0.2-4.4c0-2.2-0.1-3.7-0.2-4.5c-0.2-0.8-0.5-1.4-1-1.8
				c-0.4-0.5-0.8-0.8-1.4-1.1c-0.6-0.3-1.4-0.5-2.2-0.5c-0.9,0-1.6,0.2-2.2,0.5c-0.6,0.3-1.1,0.7-1.5,1.1c-0.5,0.5-0.8,1.1-0.9,1.8
				C626,163.5,626,165,626,167.2z"/>
			<path id="XMLID_156_" class="st14" d="M630.9,179.1L630.9,179.1c-2,0-3.8-0.5-5.1-1.4c-1.4-0.8-2.4-1.8-3-2.9
				c-0.2-0.4-0.4-0.7-0.5-1c-0.2-0.4-0.3-0.8-0.4-1.3c-0.2-0.9-0.3-2.6-0.3-5.2c0-2.6,0.1-4.4,0.3-5.3c0.2-1,0.5-1.7,0.9-2.3
				c0.6-1.1,1.6-2.1,3-2.9c1.4-0.9,3.1-1.3,5.1-1.4c2.1,0,3.8,0.5,5.2,1.4c1.3,0.8,2.3,1.8,2.9,2.9c0.4,0.6,0.8,1.4,0.9,2.3
				c0.1,0.9,0.2,2.6,0.2,5.3c0,2.6-0.1,4.3-0.2,5.2c-0.2,1-0.5,1.8-0.9,2.4c-0.6,1.1-1.6,2.1-2.9,2.9
				C634.7,178.6,632.9,179.1,630.9,179.1L630.9,179.1z M630.9,156.6c-1.7,0-3.1,0.4-4.3,1.1c-1.2,0.7-2,1.6-2.6,2.5
				c-0.3,0.5-0.6,1.1-0.7,1.9c-0.2,0.8-0.2,2.5-0.2,5.1c0,2.5,0.1,4.2,0.2,5c0.1,0.4,0.2,0.8,0.3,1.1c0.1,0.3,0.3,0.6,0.5,0.9
				c0.5,0.9,1.4,1.7,2.5,2.4c1.1,0.7,2.6,1.1,4.3,1.2c1.7,0,3.2-0.4,4.3-1.2c1.2-0.7,2-1.5,2.5-2.5l0.1-0.1c0.3-0.5,0.6-1.1,0.7-1.9
				c0.1-0.9,0.2-2.6,0.2-5c0-2.5-0.1-4.2-0.2-5.1c-0.1-0.8-0.4-1.4-0.7-1.8l-0.1-0.1c-0.5-0.9-1.3-1.8-2.5-2.5
				C634.1,157,632.6,156.6,630.9,156.6z M630.9,175.8c-1,0-1.9-0.2-2.6-0.6c-0.7-0.3-1.3-0.7-1.7-1.3c-0.5-0.5-0.9-1.3-1.1-2.2
				c-0.2-0.8-0.3-2.3-0.3-4.5c0-2.2,0.1-3.7,0.3-4.6c0.2-0.9,0.5-1.6,1.1-2.1c0.4-0.5,1-0.9,1.7-1.3c0.7-0.3,1.6-0.5,2.5-0.6l0,0
				l0,0c1,0,1.8,0.2,2.6,0.5c0.7,0.4,1.3,0.8,1.7,1.3c0.5,0.6,0.9,1.3,1.1,2.1c0.2,0.9,0.3,2.4,0.3,4.6c0,2.2-0.1,3.7-0.3,4.6
				c-0.2,0.9-0.6,1.6-1.1,2.2c-0.4,0.5-1,1-1.7,1.3C632.7,175.6,631.9,175.8,630.9,175.8z M630.9,159.9c-0.7,0-1.4,0.2-1.9,0.4
				c-0.5,0.3-1,0.6-1.3,1c-0.4,0.4-0.7,0.9-0.8,1.6c-0.2,0.8-0.3,2.2-0.3,4.3c0,2.1,0.1,3.6,0.2,4.3c0.1,0.7,0.4,1.2,0.8,1.6
				c0.4,0.4,0.8,0.7,1.3,1c0.5,0.3,1.2,0.4,1.9,0.4c0.7,0,1.4-0.1,1.9-0.4c0.5-0.3,0.9-0.6,1.2-0.9l0-0.1c0.4-0.4,0.7-0.9,0.8-1.6
				c0.2-0.7,0.2-2.2,0.2-4.3c0-2.1-0.1-3.6-0.2-4.3c-0.1-0.6-0.4-1.1-0.8-1.5l0-0.1c-0.3-0.4-0.7-0.7-1.2-1
				C632.3,160.1,631.6,160,630.9,159.9z"/>
		</g>
		<g id="XMLID_149_">
			<path id="XMLID_153_" class="st14" d="M643.2,175.1h3.4v3.2h-3.4V175.1z"/>
			<path id="XMLID_150_" class="st14" d="M647.4,178.9h-4.9v-4.5h4.9V178.9z M643.9,177.7h2v-1.9h-2V177.7z"/>
		</g>
	</g>
	<g id="XMLID_126_">
		<path id="XMLID_146_" class="st14" d="M538.7,228.9h2.6v17.4h-2.6V228.9z"/>
		<path id="XMLID_144_" class="st14" d="M545.1,228.9h2.4l7.6,12.4h0v-12.4h2.6v17.4h-2.4l-7.6-12.4h0v12.4h-2.6V228.9z"/>
		<path id="XMLID_140_" class="st14" d="M502.7,258.3h6.5c1.7,0,2.9,0.4,3.7,1.3c0.8,0.9,1.3,2,1.3,3.4c0,0.7-0.2,1.4-0.5,2.1
			c-0.2,0.3-0.4,0.6-0.8,0.9c-0.3,0.3-0.7,0.6-1.2,0.8v0c0.9,0.2,1.6,0.7,2.1,1.5c0.4,0.8,0.7,1.6,0.7,2.5c0,1.5-0.5,2.7-1.4,3.6
			c-0.9,0.9-2,1.4-3.3,1.4h-7.1V258.3z M505.2,260.6v5h3.7c0.9,0,1.6-0.3,2.1-0.8c0.4-0.5,0.7-1.1,0.7-1.8s-0.2-1.3-0.7-1.8
			c-0.4-0.5-1.1-0.7-2.1-0.7H505.2z M505.2,268v5.3h3.9c1,0,1.6-0.3,2.1-0.8c0.4-0.5,0.7-1.1,0.7-1.8c0-0.7-0.2-1.3-0.7-1.8
			c-0.4-0.5-1.1-0.8-2.1-0.8H505.2z"/>
		<path id="XMLID_137_" class="st14" d="M517,267c0-2,0.1-3.4,0.2-4.1c0.1-0.7,0.3-1.2,0.6-1.7c0.4-0.8,1.1-1.5,2-2.1
			c0.9-0.6,2-1,3.3-1c1.3,0,2.5,0.3,3.4,1c0.9,0.6,1.5,1.3,1.9,2.2c0.3,0.4,0.5,1,0.6,1.7c0.1,0.7,0.2,2,0.2,4.1c0,2-0.1,3.3-0.2,4
			c-0.1,0.7-0.3,1.3-0.6,1.7c-0.4,0.8-1,1.5-1.9,2.1c-0.9,0.6-2,1-3.4,1c-1.3,0-2.4-0.4-3.3-1c-0.9-0.6-1.6-1.3-2-2.1
			c-0.1-0.3-0.2-0.5-0.3-0.8c-0.1-0.2-0.2-0.6-0.2-0.9C517.1,270.3,517,269,517,267z M519.6,267c0,1.7,0.1,2.9,0.2,3.5
			c0.1,0.6,0.3,1.1,0.7,1.5c0.3,0.4,0.6,0.7,1.1,0.9c0.4,0.3,1,0.4,1.6,0.4c0.6,0,1.1-0.1,1.6-0.4c0.4-0.2,0.8-0.5,1-0.9
			c0.3-0.4,0.6-0.9,0.7-1.5c0.1-0.6,0.2-1.8,0.2-3.5c0-1.7-0.1-2.9-0.2-3.5c-0.1-0.6-0.4-1.1-0.7-1.5c-0.3-0.4-0.6-0.7-1-0.9
			c-0.4-0.2-1-0.4-1.6-0.4c-0.6,0-1.1,0.1-1.6,0.4c-0.4,0.2-0.8,0.5-1.1,0.9c-0.3,0.4-0.6,0.9-0.7,1.5
			C519.6,264.1,519.6,265.3,519.6,267z"/>
		<path id="XMLID_135_" class="st14" d="M535,260.6h-4.6v-2.3h11.8v2.3h-4.6v15.1H535V260.6z"/>
		<path id="XMLID_133_" class="st14" d="M547.2,260.6h-4.6v-2.3h11.8v2.3h-4.6v15.1h-2.6V260.6z"/>
		<path id="XMLID_131_" class="st14" d="M556.6,258.3h2.6v15h8.2v2.5h-10.8V258.3z"/>
		<path id="XMLID_129_" class="st14" d="M570.2,258.3H581v2.5h-8.2v5h7v2.3h-7v5.1h8.2v2.5h-10.8V258.3z"/>
		<path id="XMLID_127_" class="st14" d="M584,271.5c1.3,1.1,2.9,1.7,4.8,1.7c2.2,0,3.3-0.8,3.3-2.4c0-1.3-0.7-2.1-2.2-2.3
			c-0.7-0.1-1.4-0.2-2.2-0.3c-1.5-0.2-2.6-0.8-3.3-1.7c-0.8-0.9-1.2-2-1.2-3.2c0-1.5,0.5-2.8,1.5-3.7c0.9-0.9,2.3-1.4,4-1.4
			c2.1,0,3.9,0.6,5.5,1.8l-1.4,2.2c-1.3-0.9-2.7-1.3-4.2-1.3c-0.8,0-1.4,0.2-2,0.6c-0.5,0.4-0.8,1.1-0.8,1.9c0,0.5,0.2,1,0.6,1.4
			c0.4,0.4,1,0.7,1.8,0.9c0.5,0.1,1.1,0.2,1.9,0.3c1.6,0.2,2.8,0.8,3.5,1.8c0.7,0.9,1.1,2,1.1,3.3c-0.1,3.3-2.1,5-5.9,5.1
			c-2.5,0-4.7-0.8-6.4-2.4L584,271.5z"/>
	</g>
	<g id="XMLID_107_">
		<g id="KRyJ1s.tif_19_">
			<g id="XMLID_119_">
				<path id="XMLID_125_" class="st14" d="M247.2,218.3c0.7,0.3,1.3,0.5,2,0.8c1.5,0.8,2.2,2.2,2.4,3.9c0.2,1.6-0.2,3.1-0.9,4.5
					c-0.5,1-1.1,2-1.8,2.9c-0.7,0.9-1.6,1.4-2.7,1.6c-1.1,0.1-1.9-0.5-2-1.6c-0.1-0.8,0-1.7,0.4-2.4c0.7-1.3,1.5-2.5,3.1-3
					c0.3-0.1,0.6-0.2,0.9-0.1c0.4,0,0.6-0.2,0.7-0.5c0.4-1.5-0.5-2.8-2.1-2.8c-0.8,0-1.7,0.2-2.5,0.4c-3.3,1.1-6.2,3-8.7,5.4
					c-8.1,7.5-14.7,16.2-19.2,26.4c-1.6,3.6-2.8,7.3-3.5,11.1c-0.5,2.7-0.5,5.4,0.2,8.1c0.8,3.4,2.9,5.7,6.1,7
					c2.6,1.1,5.2,1.5,8,1.3c4.5-0.4,8.9-1.6,13.3-2.6c5-1.2,10-2.5,15-3.6c4.7-1.1,9.5-1.6,14.4-1.3c5.6,0.3,10.7,1.9,15.3,5.2
					c2.6,1.9,5.1,3.7,7.3,6c0.4,0.4,0.7,0.8,1,1.3c-0.1-0.1-0.3-0.2-0.4-0.3c-4.5-2.9-9.5-4.6-14.9-4.5c-2.3,0-4.6,0.4-6.4,1.9
					c-0.9,0.7-1.7,1.7-2.6,2.5c0.1,0.1,0,0,0,0c-2-3.5-5.2-5.5-9.1-6.5c-2.7-0.7-5.5-0.8-8.3-0.6c-4.9,0.3-9.6,1.6-14.4,2.8
					c-4.4,1.1-8.8,2.1-13.3,2.9c-3.5,0.7-7.1,0.6-10.5-0.6c-5.2-1.9-8.4-5.5-9.5-10.9c-0.2-1-0.3-2.1-0.4-3.1c0-0.2-0.1-0.3-0.1-0.4
					c0-0.9,0-1.9,0-2.8c0.1-0.7,0.2-1.5,0.2-2.2c0.5-4.2,1.7-8.2,3.4-12c3.3-7.6,8.1-14.3,13.9-20.2c3.8-3.8,7.9-7.3,12.6-9.9
					c2.6-1.5,5.3-2.7,8.3-3.4c0.9-0.2,1.9-0.3,2.9-0.5C245.9,218.3,246.5,218.3,247.2,218.3z"/>
				<path id="XMLID_120_" class="st14" d="M250.5,247.5c0.4-0.1,0.8-0.1,1-0.2c1-0.5,2-1,2.9-1.6c1.9-1.3,3.6-2.9,5.2-4.6
					c1.6-1.8,3.5-3.3,5.5-4.6c1.8-1.1,3.6-1.9,5.8-1.8c2.7,0.1,4.6,2.4,4.2,5.1c-0.3,2.2-1.2,4.1-2.7,5.7c-0.5,0.6-1.2,1.1-1.9,1.4
					c-1.2,0.5-2.3-0.3-2.4-1.6c-0.1-2.3,2-4.7,4.3-4.8c0.1,0,0.4-0.1,0.4-0.2c0.4-0.8,0.2-2.3-1.3-2.3c-1.2,0-2.2,0.5-3.1,1.2
					c-1.7,1.4-3.3,3-4.7,4.7c-3.3,4-5.7,8.5-7.4,13.4c-0.4,1.2-0.6,2.5-0.4,3.7c0.3,2,1.8,3,3.7,2.5c1.7-0.5,3.1-1.5,4.4-2.6
					c2.8-2.6,5.2-5.5,7.5-8.5c2.1-2.8,4.2-5.7,6.4-8.5c2.1-2.7,4.5-5.1,7.3-7c1.3-0.9,2.7-1.7,4.3-2c1.8-0.3,3.2,0.2,4.2,1.7
					c0.1,0.1,0.2,0.2,0.2,0.3c0.1-0.1,0.1-0.1,0.1-0.2c0.3-0.9,1-1.1,1.9-1c1.5,0.1,3.1,0,4.6,0c0.2,0,0.3,0,0.6,0
					c-0.2,0.3-0.3,0.6-0.4,0.8c-4.4,7.7-8.9,15.4-13.3,23.1c-0.2,0.4-0.4,0.9-0.5,1.4c-0.1,0.7,0.4,1,1.1,0.8c0.5-0.2,1-0.5,1.4-0.8
					c1.6-1.2,3-2.7,4.3-4.2c1.2-1.4,2.3-2.9,3.4-4.4c0.3-0.4,0.6-0.5,1-0.5c0.5,0,1,0,1.5,0c-0.1,0.1-0.1,0.2-0.1,0.3
					c-2.8,4-5.6,7.9-9.1,11.3c-1.8,1.7-3.6,3.3-5.8,4.4c-1,0.5-2.1,0.7-3.2,0.5c-1.1-0.2-2-1.3-2.1-2.5c-0.1-0.8,0-1.6-0.1-2.5
					c-0.1,0.1-0.2,0.3-0.3,0.4c-1.2,1.3-2.5,2.5-4,3.4c-1,0.6-2.1,1.1-3.3,1.2c-2.4,0.3-4.2-1.2-4.3-3.7c-0.1-1.5,0.3-2.9,0.7-4.3
					c0-0.2,0.1-0.4,0-0.6c-0.2,0.1-0.3,0.3-0.5,0.4c-2,1.8-4,3.6-6,5.3c-1.7,1.4-3.7,2.3-5.9,2.7c-1.1,0.2-2.3,0.3-3.4-0.1
					c-2.3-0.8-3.4-2.6-3.9-5c-0.6-3.1,0.2-5.9,1.4-8.7c0.7-1.6,1.6-3.2,2.4-4.8c0.1-0.2,0.2-0.3,0.3-0.6c-0.9,0.2-1.6,0.4-2.4,0.6
					c-0.7,0.1-1.1,0.5-1.5,1.1c-1.6,2.5-3.1,5.1-4.8,7.5c-2.4,3.2-5.1,6.1-8.5,8.3c-1.4,0.9-2.9,1.6-4.6,1.8
					c-1.9,0.2-3.6-0.8-4.3-2.5c-0.6-1.4-0.7-3-0.6-4.5c0.4-4.5,2.2-8.4,4.6-12.2c2.9-4.5,6.3-8.5,10.7-11.6c1.8-1.3,3.7-2.4,5.9-2.8
					c3.4-0.6,5.5,1.2,5.5,4.6c0,1.9-0.5,3.6-1.1,5.4C251.2,245.7,250.9,246.5,250.5,247.5z M275.5,260.7c0.1,0.5,0.3,1,0.7,1.3
					c0.5,0.3,0.9,0.3,1.4,0c1.1-0.6,2.1-1.4,2.9-2.4c1.1-1.4,2.2-2.9,3.1-4.5c3.1-5.2,6-10.4,9-15.6c0.3-0.6,0.1-1.1-0.5-1.3
					c-0.5-0.2-1.1-0.1-1.6,0.1c-1.1,0.5-2,1.1-2.7,2c-2.1,2.7-4.3,5.3-6.3,8c-2.2,3-4.1,6.2-5.4,9.8
					C275.9,258.9,275.7,259.8,275.5,260.7z M240.8,245.1c-0.1,0.2-0.2,0.3-0.3,0.3c-1,1.6-2.1,3.1-3.1,4.8c-1.4,2.3-2.6,4.7-3.2,7.4
					c-0.2,0.8-0.3,1.6-0.2,2.4c0.2,1.5,1.2,2.1,2.6,1.8c0.4-0.1,0.7-0.3,1-0.5c1.3-0.8,2.4-1.8,3.4-3c2.2-2.4,3.8-5.2,5.5-7.9
					c0.1-0.2,0.2-0.4,0.3-0.7C244.3,248.9,242.1,247.6,240.8,245.1z M250.2,240.7c0-0.2,0-0.5,0-0.7c-0.3-1.9-1.1-2.5-3-2
					c-0.3,0.1-0.6,0.2-0.9,0.4c-1.3,0.9-2.3,2-2.9,3.5c-0.5,1.3-0.4,2.5,0.5,3.6c1,1.2,2.3,1.9,3.8,2.1c0.3,0,0.5-0.1,0.6-0.4
					c0.4-0.8,0.8-1.7,1.1-2.5C249.9,243.4,250.2,242.1,250.2,240.7z"/>
			</g>
		</g>
		<g id="KRyJ1s.tif_18_">
			<g id="XMLID_109_">
				<path id="XMLID_114_" class="st14" d="M388.4,231.2c0.5-1,0.9-1.8,1.3-2.7c0.5-0.9,0.8-1.9,0.8-2.9c0-0.8-0.3-1-1-0.7
					c-0.7,0.3-1.3,0.6-1.9,1.1c-2.6,2-4.9,4.3-7.1,6.7c-4.5,5.1-8.4,10.7-11.9,16.6c-2.2,3.6-4.2,7.4-6.3,11.1
					c-0.2,0.3-0.3,0.7-0.4,1.2c0.2-0.1,0.5-0.3,0.7-0.4c1.4-1.1,2.8-2.1,4.1-3.3c5.7-5.2,11-10.8,15.7-17c0.5-0.6,0.9-1,1.7-1
					c0.3,0,0.7-0.1,1.1-0.1c-0.3,0.4-0.5,0.8-0.7,1.1c-3,4.3-6.5,8.2-10.1,12c-4.4,4.6-9.1,8.9-14.4,12.5c-0.1,0.1-0.3,0.2-0.4,0.4
					c-1.6,3.5-3.1,7-3.8,10.9c-0.1,0.7-0.1,1.5,0,2.3c0.2,1.1,1.2,1.6,2.1,0.9c1-0.7,1.9-1.6,2.6-2.5c1.4-1.9,2.7-3.8,4-5.8
					c2.2-3.4,4.4-6.7,7-9.8c2.4-2.8,5-5.4,8.2-7.3c1.4-0.8,2.9-1.2,4.5-0.9c1,0.2,1.7,0.9,2.2,1.7c0.1,0.2,0.3,0.4,0.5,0.6
					c0.3-0.5,0.5-0.9,0.8-1.3c0.1-0.1,0.3-0.3,0.4-0.3c2,0,3.9,0,5.9,0c0,0,0.1,0,0.2,0.1c-0.1,0.2-0.2,0.3-0.3,0.5
					c-3,5.3-6,10.6-9,15.9c-1.2,2.1-2.4,4.1-3.5,6.2c-0.3,0.6-0.5,1.2-0.8,1.8c-0.2,0.4-0.3,0.8,0.1,1.1c0.4,0.3,0.8,0.1,1.2-0.1
					c1.7-1.1,3.2-2.4,4.4-4c1.5-1.9,2.8-3.9,4.2-5.9c0.2-0.3,0.4-0.4,0.7-0.4c0.5,0,1,0,1.6,0c-0.2,0.4-0.4,0.7-0.6,1
					c-2.5,3.8-5.1,7.5-8.3,10.8c-1.8,1.9-3.9,3.4-6.3,4.4c-0.6,0.3-1.3,0.4-2,0.4c-1.3,0-2.2-0.7-2.5-1.9c-0.2-0.8-0.1-1.8-0.2-2.6
					c0-0.2,0-0.3,0.1-0.5c0,0-0.1,0-0.1-0.1c-0.3,0.4-0.7,0.7-1,1.1c-1.5,1.4-3,2.7-4.8,3.5c-0.9,0.4-1.8,0.7-2.8,0.5
					c-1.7-0.3-2.8-1.5-3-3.4c-0.1-0.8,0-1.5,0-2.3c0-0.2,0-0.4,0-0.8c-0.2,0.3-0.4,0.4-0.5,0.5c-1.4,1.7-2.9,3.3-4.7,4.5
					c-0.8,0.5-1.6,1-2.5,1.3c-1.9,0.6-3.6-0.1-4.6-1.9c-0.6-1-0.7-2.2-0.7-3.3c0.1-2.6,0.8-5,1.6-7.5c0.5-1.5,1-3,1.5-4.5
					c-0.3,0-0.5,0.1-0.7,0.1c-0.8,0.1-1.6,0.2-2.4,0.3c-0.4,0-0.6,0.2-0.8,0.5c-1.6,2.4-3.1,4.9-4.8,7.3c-2.3,3.2-5,5.9-8.5,7.9
					c-1.1,0.7-2.3,1.1-3.6,1.3c-2.5,0.2-3.8-1.5-4.2-3.1c-0.4-1.8-0.2-3.5,0.1-5.3c0.9-3.8,2.5-7.2,4.6-10.5
					c2.3-3.5,4.8-6.8,7.9-9.5c1.9-1.6,4-3,6.4-3.8c0.9-0.3,1.8-0.4,2.8-0.3c1.9,0.2,2.8,1.6,3.1,2.8c0.4,1.9,0.2,3.9-0.5,5.7
					c-0.5,1.5-1.2,3-1.8,4.4c-0.1,0.2-0.1,0.3-0.2,0.6c1.3,0.1,2.4-0.2,3.4-0.8c0.2-0.1,0.2-0.3,0.3-0.5c3.2-6.6,6.8-13.1,10.9-19.2
					c5.1-7.5,11-14.3,18-20.1c1.7-1.4,3.5-2.6,5.5-3.5c1-0.5,2-0.7,3.1-0.7c1.4,0.1,2.1,0.8,2.2,2.1c0.1,1.7-0.3,3.3-1,4.8
					c-0.8,1.7-0.9,1.7-2.7,2C388.7,231.2,388.6,231.2,388.4,231.2z M369.3,278.8c0,0.6,0.7,1.1,1.7,0.8c0.5-0.2,0.9-0.5,1.3-0.8
					c1.3-0.9,2.1-2.2,3-3.4c2.4-3.4,4.4-7,6.5-10.7c1.2-2.1,2.4-4.2,3.7-6.3c0.3-0.5,0.4-0.9,0-1.4c-0.3-0.5-0.9-0.5-1.3-0.4
					c-0.6,0.2-1.2,0.5-1.7,0.9c-0.7,0.5-1.3,1.1-1.9,1.7c-4.3,4.4-7.6,9.5-10.2,15C369.7,275.6,369.3,277,369.3,278.8z M340.5,263.6
					c-0.9,1.4-1.8,2.6-2.7,4c-1.5,2.4-2.8,4.8-3.6,7.5c-0.3,0.9-0.4,1.9-0.3,2.9c0.2,1.2,1.1,1.9,2.4,1.6c1.2-0.3,2.1-1,2.9-1.8
					c2.7-2.5,4.7-5.5,6.3-8.7c0.1-0.2,0.2-0.4,0.3-0.6C343.6,267.4,341.7,266,340.5,263.6z M349.6,259c0-0.3,0-0.6,0-0.9
					c-0.1-1.2-0.8-1.9-1.8-1.9c-0.4,0-0.9,0.1-1.3,0.3c-1.2,0.6-2.2,1.4-2.9,2.5c-1.9,3-0.2,6.4,3.1,7.5c0.1,0,0.4-0.1,0.5-0.2
					c0.3-0.5,0.6-1.1,0.9-1.7C348.8,262.8,349.6,261,349.6,259z"/>
				<path id="XMLID_111_" class="st14" d="M375.4,230.5c-1.5,1.7-3.1,3.3-4.6,4.9c-0.1,0.1-0.4,0.1-0.5,0c-1-0.6-2-1.1-2.9-1.7
					c-2.9-1.9-5.8-3.8-8.8-5.6c-2.3-1.4-4.8-2.3-7.5-2.7c-0.9-0.1-1.7-0.1-2.5,0.2c-0.3,0.1-0.4,0.2-0.4,0.5c0.3,3.1-0.6,6-1.7,8.8
					c-1.6,3.9-4,7.3-7.1,10.1c-1.3,1.2-2.8,2.1-4.5,2.6c-2.3,0.7-4.1-0.5-4.5-2.9c-0.2-1.6,0.2-3,0.8-4.5c1.9-4.8,5-8.8,9-12.1
					c1.4-1.2,2.9-2.1,4.4-3.2c0.1-0.1,0.2-0.1,0.3-0.2c-0.9-0.4-1.8-0.4-2.7-0.3c-1.3,0.2-2.4,0.8-3.5,1.4c-4.3,2.3-8.1,5.4-11.5,9
					c-6.2,6.6-11.6,13.7-15.8,21.7c-2.3,4.4-4.2,9-5,13.9c-0.4,2-0.7,4.1-0.1,6.1c0.6,2.1,1.8,3.7,4,4.3c1.4,0.4,2.7,0.1,3.9-0.5
					c2.2-1,4.1-2.5,5.8-4.3c3.3-3.5,5.9-7.4,7.5-12c0.6-1.7,1-3.5,0.9-5.4c-0.1-1.8-1.2-2.5-2.8-1.8c-1.2,0.5-2.1,1.4-2.8,2.4
					c-1.7,2.2-2.8,4.7-3.4,7.5c0,0.2-0.2,0.5-0.4,0.5c-3,1.5-5.5,3.5-7.7,5.9c-0.1,0.1-0.2,0.2-0.3,0.3c0.7-5.5,2.3-10.5,5.9-14.7
					c2.1-2.5,4.7-4.3,7.9-5.1c0.8-0.2,1.7-0.4,2.5-0.1c1.4,0.4,2.3,1.3,2.8,2.7c0.6,1.8,0.5,3.6,0.2,5.4c-0.8,4.2-2.7,8-5,11.5
					c-3,4.5-6.6,8.2-11.3,11c-2,1.2-4.1,1.8-6.4,1.9c-3.7,0.1-6.4-1.5-8.2-4.6c-1.6-2.7-1.9-5.6-1.7-8.6c0.3-4.8,1.9-9.2,3.9-13.4
					c5.5-11.5,13.1-21.4,23-29.5c4.3-3.5,9-6.1,14.3-7.7c1.9-0.6,3.9-0.7,5.8-0.2c0.9,0.2,1.7,0.7,2.3,1.3c0.2,0.2,0.4,0.2,0.7,0.2
					c1.6-0.5,3.1-1.1,4.7-1.4c3.9-0.8,7.8-0.2,11.3,1.6c4,2.1,7.9,4.5,11.9,6.7C375.3,230.4,375.4,230.4,375.4,230.5z M346.2,226.4
					c-0.5,0.3-0.9,0.5-1.3,0.7c-5,3.1-8.7,7.4-11.4,12.6c-0.6,1.2-1.1,2.4-1.2,3.8c-0.2,1.7,1.2,2.7,2.8,2c0.6-0.3,1.3-0.6,1.8-1.1
					c5.5-4.2,8.7-9.8,9.4-16.7C346.3,227.4,346.2,227,346.2,226.4z"/>
				<path id="XMLID_110_" class="st14" d="M406.3,221.9c-0.9,1.8-2,3.5-3.2,5.1c-4,5.1-9,8.8-15.3,10.8c-3.2,1-6.4,1.3-9.6,0.7
					c-0.1,0-0.1,0-0.2,0c-0.1,0-0.3-0.1-0.5-0.1c0.1-0.2,0.2-0.3,0.3-0.4c1.3-1.6,2.6-3.2,4-4.8c0.1-0.2,0.4-0.3,0.6-0.3
					c3.8,0.3,7.4-0.3,10.8-1.8c5-2.1,9.2-5.1,13-9C406.1,222,406.2,222,406.3,221.9z"/>
			</g>
		</g>
		<path id="XMLID_108_" class="st14" d="M319.8,230.7c-1,0.8-2,1.5-2.9,2.1c-1,0.8-2.1,1.6-3.2,2.3c-0.2,0.1-0.6,0.3-0.8,0.3
			c-3.5,0-7,0-10.5,0c-0.1,0-0.1,0-0.2,0c0.1-0.1,0.1-0.1,0.2-0.2c1.9-1.4,3.8-2.8,5.7-4.2c0.2-0.1,0.5-0.2,0.8-0.2
			C312.5,230.7,316,230.7,319.8,230.7z"/>
	</g>
</g>
</svg>
