<?xml version="1.0" encoding="utf-8"?>
<!-- Generator: Adobe Illustrator 19.0.0, SVG Export Plug-In . SVG Version: 6.00 Build 0)  -->
<!DOCTYPE svg PUBLIC "-//W3C//DTD SVG 1.1//EN" "http://www.w3.org/Graphics/SVG/1.1/DTD/svg11.dtd">
<svg version="1.1" id="Layer_1" xmlns="http://www.w3.org/2000/svg" xmlns:xlink="http://www.w3.org/1999/xlink" x="0px" y="0px"
	 viewBox="0 0 316.8 908.1" style="enable-background:new 0 0 316.8 908.1;" xml:space="preserve">
<style type="text/css">
	.st0{opacity:0.8;fill:#ADC8C3;}
	.st1{fill:#3C2B28;}
	.st2{fill:#D6C7A2;}
	.st3{fill:#C9BB9A;}
	.st4{fill:#FFFFFF;}
	.st5{opacity:0.13;fill:#FFFFFF;}
	.st6{opacity:0.1;fill:#FFFFFF;}
	.st7{opacity:0.1;fill:#1D1D1B;}
	.st8{opacity:0.2;fill:#FFFFFF;}
</style>
<g>
	<path class="st0" d="M211.5,908.1c-40.5-0.8-127.2-5.5-183.2-28.8c-12.5-5.2-22-16-25.4-29.1c-6-23.3-6.1-66,33-130.3
		c19.8-31.5,8.7-173.1,13-224.5l2.5-2.2c0,0,14.4-103,38.4-158.8L89,322.1c0,0,25.8-69.3,53.1-112.1S189.8,72,189.8,72l-3.2-7.5
		l13.6-43.1l-3.5-6.8c0,0-0.5-7.3,6.7-13.8c0,0,53.4-5.8,95.9,13.9c0,0,6.1,6.2,3.4,14.5l-5.3,4.7l1.8,48l-5.7,4.1
		c0,0-11,51.3-0.7,116.3s27,96.7,23.7,158.4l-4.1,8c0,0,5.9,44.7,2.5,91.4s-11.7,70.7-11.7,70.7l2,9.5c0,0-20.1,79-26.6,99.8
		c-6.5,20.9-28.9,86.6-21.3,137.2c6.3,41.8,5.9,75.4-10.7,109.4C240,900,226.4,908.5,211.5,908.1z"/>
	<path class="st1" d="M35.9,719.9c19.8-31.5,8.7-173.1,13-224.5l2.5-2.2c0,0,14.4-103,38.4-158.8L89,322.1c0,0,25.8-69.3,53.1-112.1
		c2.5-3.9,5-8.3,7.3-13c24.6-3,55.8,22.4,90.6,20c40.9-2.9,50.3,41.3,68,59.1c5.8,26.1,10,50.8,8.2,84.6l-4.1,8
		c0,0,5.9,44.7,2.5,91.4c-3.3,46.7-11.7,70.7-11.7,70.7l2,9.5c0,0-20.1,79-26.6,99.8c-6.5,20.9-28.9,86.6-21.3,137.2
		c6.3,41.8,5.9,75.4-10.7,109.4c-6.5,13.4-20.2,21.8-35,21.5c-40.5-0.8-127.2-5.5-183.2-28.8c-12.5-5.2-22-16-25.4-29.1
		C-3,826.9-3.2,784.3,35.9,719.9z"/>
	<path class="st1" d="M291.2,194.8c0,0,14.2,70.2,17,81.3c0,0-18.6,8-19.2,6.6c-0.6-1.5-63.8-65.6-63.8-65.6
		S267.3,219.1,291.2,194.8z"/>
	<path class="st2" d="M149.5,197l3.3-7.1c0,0,7.3-5.4,12.8,1.3s19.8-3.9,28.1,7.2c0,0,7.4-4.4,15.7,6.9c0,0,5-7.2,16,3.7
		c0,0,11.2-9.7,19.5-0.2c0,0,4-8.7,14.7-2.7c0.3,0.1,0.5,0.3,0.8,0.5c11.4,6.9,10.4-11.6,18-7.5c7.6,4.1,3.9-6.3,12.6-8.1l1.4,10.6
		c0,0-3.6-0.7-5.6,3.9s-6.2,2.8-9.9,4.7s-6.1,10-13.7,6.8c-7.6-3.1-14.1,6-21.2,2.2c-7.1-3.8-19,5.9-24-1.6
		c-5-7.5-14.2,4.2-20.9-4.5c0,0-10.4-1.1-12.9-7.9c0,0-8.6,4-14.4-0.6C169.9,204.5,154,208.2,149.5,197z"/>
	<circle class="st3" cx="160.6" cy="201" r="2.4"/>
	<circle class="st3" cx="167.2" cy="200.6" r="1.5"/>
	<circle class="st3" cx="155.3" cy="197.3" r="2"/>
	<circle class="st3" cx="174" cy="202.1" r="2.4"/>
	<circle class="st3" cx="170.7" cy="196.9" r="1.8"/>
	<circle class="st3" cx="193.8" cy="201.8" r="1.8"/>
	<circle class="st3" cx="180.9" cy="202.3" r="2.4"/>
	<circle class="st3" cx="179.1" cy="196.3" r="2.4"/>
	<circle class="st3" cx="161.2" cy="194.9" r="2.4"/>
	<circle class="st3" cx="186" cy="198.1" r="1.5"/>
	<circle class="st3" cx="194.7" cy="208.4" r="1.5"/>
	<circle class="st3" cx="187.1" cy="202.1" r="1.5"/>
	<circle class="st3" cx="205.5" cy="212.3" r="1.5"/>
	<circle class="st3" cx="198.1" cy="204.6" r="1.5"/>
	<circle class="st3" cx="209.7" cy="212.3" r="2.4"/>
	<circle class="st3" cx="199.3" cy="210" r="2.4"/>
	<circle class="st3" cx="216.6" cy="212.5" r="2.4"/>
	<circle class="st3" cx="203.1" cy="204.1" r="2.4"/>
	<circle class="st3" cx="189.7" cy="206.1" r="2.4"/>
	<circle class="st3" cx="214.8" cy="206.4" r="2.4"/>
	<circle class="st3" cx="221.4" cy="210.3" r="1.5"/>
	<circle class="st3" cx="206.9" cy="208.3" r="1.5"/>
	<circle class="st3" cx="227.7" cy="211.2" r="1.5"/>
	<circle class="st3" cx="238.6" cy="213.1" r="1.5"/>
	<circle class="st3" cx="235.4" cy="208.8" r="1.5"/>
	<circle class="st3" cx="245.4" cy="214.6" r="2.4"/>
	<circle class="st3" cx="225.1" cy="217" r="2.4"/>
	<circle class="st3" cx="232.5" cy="214.9" r="2.4"/>
	<circle class="st3" cx="252.3" cy="214.8" r="2.4"/>
	<circle class="st3" cx="279.6" cy="205.7" r="2.4"/>
	<circle class="st3" cx="250.5" cy="208.7" r="2.4"/>
	<circle class="st3" cx="256.1" cy="209" r="1.5"/>
	<circle class="st3" cx="241.5" cy="210.1" r="1.5"/>
	<circle class="st3" cx="274.8" cy="203.5" r="1.5"/>
	<circle class="st3" cx="288.9" cy="196.3" r="1.5"/>
	<circle class="st3" cx="258.1" cy="213.4" r="1.5"/>
	<circle class="st3" cx="260.9" cy="210.5" r="1.5"/>
	<circle class="st3" cx="273.7" cy="209.8" r="1.5"/>
	<circle class="st3" cx="269.4" cy="209.7" r="1.5"/>
	<circle class="st3" cx="264.5" cy="213.9" r="1.5"/>
	<circle class="st3" cx="269" cy="213.4" r="1.5"/>
	<circle class="st3" cx="285.4" cy="202.9" r="1.5"/>
	<path class="st4" d="M47.9,594.7c8,2.4,43.1,15.1,64.3,57.7c12.8-19.6,30.8-30.6,59.8-29.3c33,1.5,55.3,12.2,64.2,36.1
		c-1.1-29.4-23.7-56.4-48.7-72.7c-12.1-7.9-37-17.1-65.1-21.3c-33.9-5.1-70.5-2-73.6,8.4L47.9,594.7z"/>
	<path class="st4" d="M241.1,498.3c-6.7-2.6,2-18.5,6.7-27.9c4.7-9.4,11.9-21.8,20.6-40.7c24.8-54,22.5-60.7,20.5-65.8
		c16.4-14,21.1-55.2,21.1-55.2l-28.5,0l-2.6,8.7c-2.1-3-9.9-14.2-20.9-14.7c-18.2,0-34.8,14.7-52.7,33.9
		c-16.8,18.1-69.9,89.8-80.7,105.9c-10.8,16.1-34,42.9-38.4,48.7c-4.4,5.8-4.8,7-3.8,9.1c-1.9,0-5.8,1.5-9,3.6
		c-3.3,2.1-9.8,8.6-12.4,3.7c-2.6-4.9,1.9-10.5,5.2-11.6c-5.1-1.4-3.1-23.3,6.4-60.5c9.4-37.2,27.8-65.5,38-79.3
		c6.1-8.3,14.7-16.1,17.3-17.5c-3.4-6.4,4.1-17.3,13.9-12.7c7,3.3,6.2,11.8,9.8,14.7c-20.1,0.9-28.6,20.8-30.7,29.2
		c-2.3,9.6-2.3,18.7,6.8,18.7c9.1,0,18.2-13.6,23.2-22.2c4.9-8.7,9.1-22.7,12.8-24.6c-5.3-8.6-1.3-30.3-19.3-38.3
		c-16.1-7.1-46,14.5-35.4,33.2c-8.7,5.1-14.1,13.7-19.4,22c-8.3,12.9-17.3,45.3-20.8,60.1c-3.5,14.5-13.7,71.2-8.5,75.8
		c-5.8,2.3-6.9,11.5-7.2,16.8c-0.8,15.3-1.1,27,2.1,31.9c3.6,5.7,30.1-41.3,40.7-40c-2.9-4.1,7.8-15,13-20.4
		c-3.2,11-4,18.6-0.8,22.6c-9.6,3-6.6,39.9,20.2,39.9c25.3,0,52.7-28.5,57.6-35.9c-3.5,22.9,4.6,35.9,21.4,35.9s33.9-12.9,33.4-18.8
		c5.2-1.3,10.5-4.2,32.5-35c24.8-36,34.3-66,34.3-66h-8.9C275.1,476.3,247.2,500.7,241.1,498.3z M166.5,499c-20,0-2.9-35.9,12.7-64
		c15.6-28.1,52.4-75.6,52.1-83.5c9.4-2.5,18.4-34.1,35.4-24.7c8.9,4.9-4.7,27.6-9.6,29.7c1.4,4.1,1.5,12.3-19,51.3
		C217.4,446.8,186.4,499,166.5,499z"/>
	<path class="st4" d="M313.1,410.5c0.6,30.1-2.2,58.8-4.2,74.8c-2,16-4.6,45.6-10.7,45.5c3.1,2.9,6.4,3.8,3.1,15.9
		c-3.3,12.1-14.7,51.3-19.7,70.1c-5,18.8-8.5,33.1-10.2,38.8c1.9-22,6.3-46.1,10.9-66.3c8-35.3,17.9-54.4,6.4-58.6
		c7.7-4.7,7.7-16.7,11.2-30.6C303.7,483.9,312.1,443.9,313.1,410.5z"/>
	<g>
		<g>
			<path class="st5" d="M271.8,227.9c0,0,3.8,108.7,0.3,125.6l25.6,2.2C297.6,355.8,300.3,253.3,271.8,227.9z"/>
			<path class="st5" d="M210.7,224.3c0,0-10.3,70.9-12.3,117.2c0,0-8.7,0-8.4-5.4C190.2,330.7,200.7,233.7,210.7,224.3z"/>
			<path class="st5" d="M179.4,189.1c0,0-37,98.9-41.1,135.3l-5,4.4l-13.6-3.7C119.6,325,148.9,229.4,179.4,189.1z"/>
			<path class="st5" d="M271.8,536.7l-18.4-5.4c0,0,5.1-3.7,7.8-2.6C263.9,529.9,271.8,536.7,271.8,536.7z"/>
			<path class="st5" d="M247.9,529.7c0,0-27,5.9-56-6.7C191.9,523,238.2,525.8,247.9,529.7z"/>
			<path class="st5" d="M163.6,519.7c0,0-42.6,2.4-57.5-9.9C106.1,509.8,159.7,521.3,163.6,519.7z"/>
			<path class="st5" d="M95.2,507.2c0,0-8.4,4.6-15.2,2.4L95.2,507.2z"/>
			<path class="st6" d="M222.6,746.8c0,0,12.2,67.3-6.8,92.1c0,0-45.6,16.6-61-12.3l12.7-74.4c0,0,15.7-5.1,26.6-1.9
				c0,0-13.5,35.1,6.5,63L201,753L222.6,746.8z"/>
			<path class="st6" d="M138.7,741.4l-12.1,65c0,0-6.2-12.3-5.8-25s6.6-37.9,6.6-37.9L138.7,741.4z"/>
			<path class="st6" d="M103.3,722.5c0,0-8,84.1-28.4,98.3c0,0-20.4,4.8-30.4-4.5c0,0-8-18.8-0.7-37.4s16.8-46,18.1-55.4
				c1.3-9.5,11.6-15.5,16-9.8c0,0,0.4,24-5.3,37.8c-5.7,13.8-15.3,57.2-15.3,57.2s32.6-21,36.2-82.8
				C93.5,725.9,95.8,721.7,103.3,722.5z"/>
			<path class="st6" d="M154.1,339.3l-23.2,124l-30.7,0.9c0,0,24.6-105.4,32.3-128L154.1,339.3z"/>
			<path class="st7" d="M173.9,523.7l-32.6,207.5l-5.9,1.1c0,0,17.2-142.9,29.7-201.3L173.9,523.7z"/>
			<path class="st7" d="M92.3,541.5L84.5,647c0,0-5.5-30.4-7-51.6s4.1-54.4,4.1-54.4L92.3,541.5z"/>
			<path class="st7" d="M132.6,328.8l-5.7,4.4c0,0-17.2-6.8-33.7-4.3C93.2,328.9,92.8,314.9,132.6,328.8z"/>
			<polygon class="st7" points="198.3,341.5 154.1,339.3 144.6,337.3 146.3,333.2 161,333.4 			"/>
			<polygon class="st7" points="297.6,355.8 316.2,359.1 312.1,367.1 272,353.6 			"/>
			<polyline class="st7" points="51.3,491.7 67.2,498.5 48.8,493.8 53.2,490.2 			"/>
			<path class="st7" d="M219.6,891.3c0,0-151.8-1.2-196.9-33.4C22.7,858,162.4,877.4,219.6,891.3z"/>
			<path class="st7" d="M291.1,405c0,0-5.7,98-17.2,123.5l10.2,2.6C284.1,531.2,294.4,460.9,291.1,405z"/>
			<path class="st8" d="M161,333.4l-14.7-0.3l69.6-263.6c-8.6-0.3-17.5-0.2-26.2,0.8l-3.2-7.5c0,0,30.5-7.3,87.9,9.3
				c1.9-2,3.9-4.3,5.2-6.6c2.4-4.6,2.1-29.2,1.9-37.5c-21-5.1-58.3-12.5-81.3-8.3l-3.5-6.8c0,0,37.2-8.4,106,14.5l-5.3,4.7
				c0,0-2-0.6-5.4-1.5c0.8,10.1,2,31.5,0,38.6c-1,3.5-1.9,5.8-2.8,7.4c3.2,1.1,6.5,2.2,9.9,3.5l-5.7,4.1c0,0-8.8-3.2-22.5-6.6
				c-0.1,4-2.8,95.7,0.8,127.5c3.7,32.5,2.9,227.7,1,256.6l-68.5,4.9l11.5-119.1c0,0,21.8,5.8,45.9,6.7c0,0,11-89.7-2.8-132.8
				c0,0-4,9-3.6,25c0.5,16,0.5,100.2,0.5,100.2l-28.4-4c0,0,13.9-236.9,16.5-270.4c-5.9-0.9-12-1.7-18.4-2.2
				C220.5,89.2,166.6,304.9,161,333.4z"/>
			<path class="st4" d="M243.8,70.5"/>
			<path class="st7" d="M243.7,72.3l-18.4-2.2C225.3,70.2,236.4,67.6,243.7,72.3z"/>
			<path class="st7" d="M298.3,75.7c0,0-6.1,7.8-12.9,6.3l6.8,1.5l6.8-3.2L298.3,75.7z"/>
			<path class="st7" d="M281.4,28.2c0,0-41.4-9.8-63.4-9.6C218,18.6,251.6,14.3,281.4,28.2z"/>
		</g>
	</g>
</g>
</svg>
