<?xml version="1.0" encoding="utf-8"?>
<!-- Generator: Adobe Illustrator 19.0.0, SVG Export Plug-In . SVG Version: 6.00 Build 0)  -->
<!DOCTYPE svg PUBLIC "-//W3C//DTD SVG 1.1//EN" "http://www.w3.org/Graphics/SVG/1.1/DTD/svg11.dtd">
<svg version="1.1" id="Layer_1" xmlns="http://www.w3.org/2000/svg" xmlns:xlink="http://www.w3.org/1999/xlink" x="0px" y="0px"
	 viewBox="0 0 360 905.8" style="enable-background:new 0 0 360 905.8;" xml:space="preserve">
<style type="text/css">
	.st0{fill:#C9BB9A;}
	.st1{opacity:0.8;fill:#ADC8C3;}
	.st2{fill:#3C2B28;}
	.st3{fill:#D6C7A2;}
	.st4{fill:#FFFFFF;}
	.st5{opacity:0.13;fill:#FFFFFF;}
	.st6{opacity:0.1;fill:#FFFFFF;}
	.st7{opacity:0.1;fill:#1D1D1B;}
	.st8{opacity:0.24;fill:#FFFFFF;}
</style>
<circle class="st0" cx="17.5" cy="274.5" r="2"/>
<g>
	<path class="st1" d="M154.7,905.6c40.4-3.7,126.5-14.5,180.7-41.7c12.1-6.1,20.8-17.5,23.2-30.9c4.3-23.7,1.4-66.3-42.2-127.7
		c-22-30-21-172-29-223l-2.7-2c0,0-21.7-101.7-49.7-155.7v-12.3c0,0-30.7-67.3-61-108S116.7,70,116.7,70l2.7-7.7l-16.7-42l3-7
		c0,0,0-7.3-7.7-13.3c0,0-53.7-2-94.7,20.7c0,0-5.7,6.7-2.3,14.7l5.7,4.3l1.7,48l6,3.7c0,0,14.7,50.3,9,116S3.4,305.7,11.1,367
		l4.7,7.7c0,0-2.7,45,4,91.3s16.7,69.7,16.7,69.7l-1.3,9.7c0,0,25.7,77.3,33.7,97.7c8,20.3,35,84.3,31,135.3
		c-3.3,42.1-0.5,75.6,18.5,108.3C125.6,899.6,139.8,907,154.7,905.6z"/>
	<path class="st2" d="M316.4,705.4c-22-30-21-172-29-223l-2.7-2c0,0-21.7-101.7-49.7-155.7v-12.3c0,0-30.7-67.3-61-108
		c-2.8-3.7-5.5-7.9-8.3-12.4c-24.7-1.2-59,2.1-86.1,24.1c-26.2,21.3-50.1,47-66.5,66c-3.9,26.5-6.3,51.4-2.1,84.9l4.7,7.7
		c0,0-2.7,45,4,91.3s16.7,69.7,16.7,69.7l-1.3,9.7c0,0,25.7,77.3,33.7,97.7s35,84.3,31,135.3c-3.3,42.1-0.5,75.6,18.5,108.3
		c7.4,12.9,21.7,20.3,36.5,18.9c40.4-3.7,126.5-14.5,180.7-41.7c12.1-6.1,20.8-17.5,23.2-30.9C362.9,809.3,360,766.8,316.4,705.4z"
		/>
	<path class="st3" d="M13.5,282.8l1.3-11.7c0,0,3-9.3,7-9.3c0,0,0.3-10.3,5.7-10.3s4.3-5,7-7.7c2.7-2.7,9.7-14,14.3-15.7
		c4.7-1.7,1.3-11.7,10.3-12.7c0,0,5-10,14-9c0,0,6-12,14.3-9.3c0,0,7.7,2,11.3-1c3.7-3,5.3-7.3,10.3-6c5,1.3,7.7-6,18.3-3.3
		c10.7,2.7,11-9.3,18-6c7,3.3,10.3-2.3,14.3,1.3l6,9.8c0,0-2,6.9-9.6,5.9c0,0-7.3,4.3-14.7-0.7c0,0-4,5.7-12.7,6
		c-8.7,0.3-14.3,1.3-20,8.7c-5.7,7.3-13.7,6-17.7,6.3c-4,0.3-0.7,8.3-12.3,10.7c0,0-8.3-1-12.7,10c-4.3,11-8.3,10.3-15.7,12.7
		s0.7,10-11.3,13.3s-6,10.7-12,14.7S13.5,282.8,13.5,282.8z"/>
	<circle class="st0" cx="22.2" cy="276.5" r="2"/>
	<circle class="st0" cx="21.7" cy="270" r="2.4"/>
	<circle class="st0" cx="30.8" cy="265.8" r="2"/>
	<circle class="st0" cx="34.9" cy="253.4" r="2"/>
	<circle class="st0" cx="39.8" cy="259.8" r="2"/>
	<circle class="st0" cx="43.5" cy="243.8" r="2"/>
	<circle class="st0" cx="61.5" cy="229.5" r="2"/>
	<circle class="st0" cx="44.2" cy="237.1" r="2"/>
	<circle class="st0" cx="63.5" cy="237.5" r="2"/>
	<circle class="st0" cx="81.2" cy="214.1" r="2"/>
	<circle class="st0" cx="56.8" cy="243.1" r="2"/>
	<circle class="st0" cx="89.8" cy="207.1" r="2"/>
	<circle class="st0" cx="87.2" cy="202.5" r="2"/>
	<circle class="st0" cx="81.5" cy="223.1" r="2"/>
	<circle class="st0" cx="49.5" cy="232.8" r="2"/>
	<circle class="st0" cx="73.5" cy="221.1" r="2"/>
	<circle class="st0" cx="107.6" cy="195.7" r="2"/>
	<circle class="st0" cx="72.8" cy="225.8" r="2"/>
	<circle class="st0" cx="88.5" cy="214.8" r="2"/>
	<circle class="st0" cx="81.2" cy="204.5" r="2"/>
	<circle class="st0" cx="96.3" cy="213.7" r="2"/>
	<circle class="st0" cx="97.8" cy="207.5" r="2"/>
	<circle class="st0" cx="98.2" cy="201.1" r="2"/>
	<circle class="st0" cx="124.5" cy="200.5" r="2"/>
	<circle class="st0" cx="131.7" cy="197.6" r="2"/>
	<circle class="st0" cx="115.8" cy="193.1" r="2"/>
	<circle class="st0" cx="154.2" cy="193.5" r="2"/>
	<circle class="st0" cx="158.5" cy="189.1" r="2"/>
	<circle class="st0" cx="131.2" cy="191.5" r="2"/>
	<circle class="st0" cx="146.5" cy="192.8" r="2"/>
	<circle class="st0" cx="26.5" cy="261" r="2.4"/>
	<circle class="st0" cx="32.5" cy="259.6" r="2.4"/>
	<circle class="st0" cx="41.8" cy="253.3" r="2.4"/>
	<circle class="st0" cx="38.8" cy="247.1" r="2.4"/>
	<circle class="st0" cx="50.5" cy="246.8" r="2.4"/>
	<circle class="st0" cx="55.2" cy="227.1" r="2.4"/>
	<circle class="st0" cx="49.1" cy="239.9" r="2.6"/>
	<circle class="st0" cx="56.4" cy="235.6" r="3.5"/>
	<circle class="st0" cx="66" cy="224.3" r="2.4"/>
	<circle class="st0" cx="64.5" cy="217.4" r="2.6"/>
	<circle class="st0" cx="71.8" cy="213.1" r="3.5"/>
	<circle class="st0" cx="105.7" cy="209.8" r="2.4"/>
	<circle class="st0" cx="106.3" cy="202.8" r="2.6"/>
	<circle class="st0" cx="114.5" cy="200.8" r="3.5"/>
	<circle class="st0" cx="122.5" cy="192.8" r="3.5"/>
	<circle class="st0" cx="139" cy="191.1" r="2.4"/>
	<circle class="st0" cx="142.6" cy="185" r="2.6"/>
	<circle class="st0" cx="150.8" cy="186.8" r="3.5"/>
	<g id="Warped_Script_-Co_1_">
		<g id="Warped_Script_-_Co_1_">
			<path class="st4" d="M80.6,348.3c-3.4-4.2,2.6-10.7,26.1-35.8c8.4-9,33.6-36.6,43.3-48.3c9.7-11.7,22.5-29.4,22.7-39.8
				c0.5-21.6,6.9-1.2,15.8,12c8.2,12.2,14.9,31.2,17.1,44.3c4,23.5-0.1,37.6-7,42.7c1.8,2.9-0.3,22.9-1.1,34.8
				c-0.9,13.7-1.2,34.4,11.4,34.4c12.1-0.1,19.8-18.8,19.8-37.5c-0.1-24.3-8.9-32.3-10.9-34.1c1.1-1.4,5.7-2.7,5.4-10
				c-0.3-7.4-1.9-12.3-7.1-24.6c-5.1-12.2-12-23.9-12-23.9s9.6,16.4,14.6,27.5c4.9,11.1,10.2,26.7,1.9,30.8c3,2,11.8,15.4,14.3,34
				c2.6,19.6-2.3,53.2-25.6,53.5c-20.4,0.2-23.8-26.3-22.8-39.9c1-13.6,4.7-39,1.6-43.9c6.3-0.9,11.7-26.2,11.4-45.8
				c-0.3-18.4-8.7-36.5-11.3-41.3c-2.6-4.7-2.1-0.3-2,8.5c0.1,8.8,2.7,20.4-21,61.3c-19.7,34-47.1,57.7-83,128.9
				c-19.5,36.8-26.2,89.1-19.3,92.8c-5.7,3.5-7.8,8.6-2.6,31c6,26.3,9.9,39.5,15.6,55c7.6,20.5,13.8,37.8,18.7,37.7
				c4.9,0,9.2-5.6,19.7-21.1c13.1-19.4,48-74.6,55.8-98c4.1-10.8,7.7-23.2,4.5-25.6c3.3-4.3,5.4-28.5-8.1-33.2
				c-5.6-2-15,1.5-26,16.6c-11,15.1-20.9,37.6-24,63.1c-3.1,1.4-27.4,14.2-34.3,45.8c-2.1-12.1-8.8-63.8,3-74.2
				c-3.2-6.2,7.8-30.9,19.3-43.3c11.5-12.4,31.4-34.6,58-33.1c17,1,35.2,22.9,26.3,55.5c2.3,1.4,6.6,3.6-10,43.6
				c-17.1,41.1-38.5,69.5-53.5,95.4c-3.8,6.6-8.1,12.9-10.9,18c-8.4,14.8-14.1,24.4-18.8,24.5c-5.8,0.1-12.2-18-19.4-34.9
				c-5.4-12.9-10.4-25.6-12.8-32.1c-17.4-47.3-20.2-57.1-22.9-66.3c-2.8-9.1-5-16.1,1-22.6c-5.2-3.4-6.6-10.4-8.1-17.5
				c-2.7-12.7-3.5-42.1,2.2-72.4C41.3,410.5,66.7,352.1,80.6,348.3z"/>
			<path class="st4" d="M286,515.2c0,0,1,9.5,1.2,15.8c0.2,6.5,0.2,6.5,0.2,10.7c-2.6-2.6-7.6-8.1-11.7-17.9
				c-4.1-9.6-2.2-18.7,1.7-29.5c5.4-14.6,0.4-15.4-1.4-17.1c3.3-3.4,0.6-19.7-3-17.1c-3.8,2.7-10.6,20.5-15.7,25.5
				c9.4,2.9-27.7,42.7-41.8,65c-33.9,53.5-42.6,79-44.9,105.1c-1.9,21.6,11,44.2,49,25.7c22.6-11,64.4-33.4,71.8-109
				C293.3,553.3,286,515.2,286,515.2z M273.8,605.6c-10.5,19.9-26.5,37.3-39.1,33.8c-10-2.8-10.1-14.1-6.9-30.4
				c2.6-13.5,25.6-59.8,36.3-85c2.7,6.3,4.8,10,10.4,17.4c5.3,7,9.8,11,11.2,13.1C285.4,557.9,284.6,585.1,273.8,605.6z"/>
		</g>
		<path class="st4" d="M29,325.8h29.7c0,0-10.9,26-4.3,28c-4.2,3.6-9.9,10.3-10.5,13.6l-20.9,0.1c0,0,2.6-8.2,6.2-9.7
			C25.3,356,20.1,353.4,29,325.8z"/>
	</g>
	<g>
		<g>
			<path class="st5" d="M46.1,231.5c0,0,4,108.7,8.7,125.3l-25.3,4C29.4,360.8,19.4,258.8,46.1,231.5z"/>
			<path class="st5" d="M106.7,223.5c0,0,15.3,70,20.7,116c0,0,8.7-0.7,8-6C134.7,328.1,117.4,232.1,106.7,223.5z"/>
			<path class="st5" d="M135.4,186.1c0,0,44,96,50.7,132l5.3,4l13.3-4.7C204.7,317.5,168.7,224.1,135.4,186.1z"/>
			<path class="st5" d="M68.1,539.5l18-6.7c0,0-5.3-3.3-8-2S68.1,539.5,68.1,539.5z"/>
			<path class="st5" d="M91.4,530.8c0,0,27.3,4,55.3-10.7C146.7,520.1,100.7,526.1,91.4,530.8z"/>
			<path class="st5" d="M174.7,514.8c0,0,42.7-0.7,56.7-14C231.4,500.8,178.7,516.1,174.7,514.8z"/>
			<path class="st5" d="M242.1,497.5c0,0,8.7,4,15.3,1.3L242.1,497.5z"/>
			<path class="st6" d="M132.1,745.5c0,0-7.3,68,13.3,91.3c0,0,46.7,13.3,60-16.7l-18-73.3c0,0-16-4-26.7,0c0,0,16,34-2,63.3
				l-4.7-60L132.1,745.5z"/>
			<path class="st6" d="M215.4,734.1l16.7,64c0,0,5.3-12.7,4-25.3c-1.3-12.7-9.3-37.3-9.3-37.3L215.4,734.1z"/>
			<path class="st6" d="M249.4,712.8c0,0,14,83.3,35.3,96c0,0,20.7,3.3,30-6.7c0,0,6.7-19.3-2-37.3c-8.7-18-20-44.7-22-54
				s-12.7-14.7-16.7-8.7c0,0,1.3,24,8,37.3c6.7,13.3,19.3,56,19.3,56s-34-18.7-42-80C259.4,715.5,256.7,711.5,249.4,712.8z"/>
			<path class="st6" d="M171.4,334.1l32,122l30.7-1.3c0,0-32-103.3-41.3-125.3L171.4,334.1z"/>
			<path class="st7" d="M164.7,519.5l47.3,204.7l6,0.7c0,0-27.3-141.3-44-198.7L164.7,519.5z"/>
			<path class="st7" d="M247.4,531.5l15.3,104.7c0,0,3.3-30.7,3.3-52c0-21.3-8-54-8-54L247.4,531.5z"/>
			<path class="st7" d="M192.1,322.1l6,4c0,0,16.7-8,33.3-6.7C231.4,319.5,230.7,305.5,192.1,322.1z"/>
			<polygon class="st7" points="127.4,339.5 171.4,334.1 180.7,331.5 178.7,327.5 164.1,328.8 			"/>
			<polygon class="st7" points="29.4,360.8 11.1,365.5 15.7,373.1 54.7,356.8 			"/>
			<polyline class="st7" points="284.7,478.8 269.4,486.8 287.4,480.8 282.7,477.5 			"/>
			<path class="st7" d="M145.4,889.5c0,0,151.3-12,194-47.3C339.4,842.1,201.4,871.5,145.4,889.5z"/>
			<path class="st7" d="M39.4,409.5c0,0,12.7,97.3,26,122l-10,3.3C55.4,534.8,40.1,465.5,39.4,409.5z"/>
			<path class="st8" d="M164.1,328.8l14.7-1.3L90.5,69.6c8.6-0.9,17.4-1.4,26.2-1.1l2.7-7.7c0,0-30.9-5.1-87.1,15.6
				c-2.1-1.8-4.2-4-5.6-6.2c-2.8-4.4-4.1-29-4.5-37.2c20.6-6.6,57.2-16.7,80.5-14.1l3-7c0,0-37.8-5.8-104.7,22l5.7,4.3
				c0,0,1.9-0.7,5.3-1.9c0,10.1,0.2,31.5,2.7,38.5c1.2,3.4,2.4,5.7,3.3,7.2c-3.1,1.3-6.4,2.7-9.6,4.2l6,3.7c0,0,8.5-3.8,22-8.2
				c0.4,4,9.6,95.2,8.3,127.2c-1.3,32.7,13.3,227.3,17.3,256h68.7l-20-118c0,0-21.3,7.3-45.3,10c0,0-17.3-88.7-6.7-132.7
				c0,0,4.7,8.7,5.3,24.7c0.7,16,6.7,100,6.7,100l28-6c0,0-30.7-235.3-35.7-268.5c5.8-1.3,11.9-2.5,18.2-3.5
				C87.2,89.4,156.4,300.8,164.1,328.8z"/>
			<path class="st4" d="M62.7,72.5"/>
			<path class="st7" d="M63,74.3l18.2-3.5C81.1,70.8,69.9,69.1,63,74.3z"/>
			<path class="st7" d="M8.7,81.5c0,0,6.7,7.3,13.3,5.3l-6.7,2l-7-2.7L8.7,81.5z"/>
			<path class="st7" d="M22.2,32.9c0,0,40.5-12.8,62.5-14.1C84.7,18.8,51,17,22.2,32.9z"/>
		</g>
	</g>
</g>
</svg>
