<?xml version="1.0" encoding="utf-8"?>
<!-- Generator: Adobe Illustrator 19.0.0, SVG Export Plug-In . SVG Version: 6.00 Build 0)  -->
<svg version="1.1" id="Layer_1" xmlns="http://www.w3.org/2000/svg" xmlns:xlink="http://www.w3.org/1999/xlink" x="0px" y="0px"
	 viewBox="-341 -4.1 316.8 908.1" style="enable-background:new -341 -4.1 316.8 908.1;" xml:space="preserve">
<style type="text/css">
	.st0{fill:#231F20;}
	.st1{fill:#FFFFFF;}
	.st2{fill:none;}
</style>
<path id="Group_4_" class="st0" d="M-95.4,720.4c8.6-55.8,43.7-160.9,45.5-167.5c3-10.9,7.5-21.6,1.9-25
	c8.3-4.4,23.7-142.9,11.5-150.1c6.6,1,6.5-14.8,6.9-25.5c0.4-19.9-9.6-68.5-16.7-120.5c-3.1-23.1-8.3-58.2-7.8-83.6
	c0.4-23.5,5.7-52.8,7.7-65.6c5-3.8,7-5.4,7.8-12.4c1-7.2-5.5-26.1-5.2-28.6c0.4-2.5,1-5.6,4.6-8c4-2.6,4.8-8.3,4-13.4
	c-1-5.9-7.7-8.6-11.6-10.2c-3.5-1.4-21.7-6.1-40.7-9.1c-19-2.9-37.8-3.9-41.5-3.6c-4.1,0.4-11.4,1-14.1,6.3
	c-2.3,4.5-3.3,10.2-0.3,13.9c2.8,3.5,2.4,6.5,2,9.1c-0.4,2.5-12.3,18.6-13.6,25.7c-1.3,6.9,0.2,9.1,3.8,14.2
	c-2,12.7-5.8,42.3-12.7,64.8c-7.1,24.4-22.6,56.2-32.5,77.3c-22.5,47.5-46.7,90.7-52.3,109.8c-3,10.3-7.8,25.5-1.1,26.5
	c-14,3.1-41.1,139.8-34.7,146.5c-6.4,1.5-5.3,13.1-5.8,24.4c-0.2,6.9,1.4,117.6-7.2,173.4c-8,51.8-22.2,75.2-29.1,89.1
	c-9.9,19.8-25.2,71.7-3.2,89c13.1,10.5,59.6,24.6,103.3,31.4c0,0,0,0,0,0c43.6,6.8,92.3,7.3,108,1.3c26-9.8,27.1-63.9,23.8-85.8
	C-97,798.8-103.5,772.3-95.4,720.4z"/>
<g id="Group_2_">
	<path class="st1" d="M-225,510.6c-3.6,0-7.6,0-11.3,0.1c-16.5,0.5-12.5,8.8-15.1,13.7c-1.2,2.2-2.1,0.3-1.9-3.8
		c0.5-9.5,2.8-13.7,14.5-13.4c3.5,0.1,6.3,0.1,8.6,0.1L-225,510.6z"/>
	<path class="st1" d="M-117.2,669.2c0,0-6,26-7.9,34.7c-1,4.4-0.1,7.8,0.1,8.6c0.3,1,0.7,0.8,0.9-0.5c11.6-52,34.6-140.1,36.7-148
		c-1.3,0.7-2.9,1.3-2.9,1.3C-93.7,578-106.4,625.2-117.2,669.2z"/>
	<path class="st1" d="M-138.1,724.4c5.8-23.9,33.8-137.5,37.4-152.5c-1.4,0.9-3.2,2.6-3.2,2.6c-5.3,21.9-30.3,117.9-35.1,142.9
		c-0.9,4.7-0.6,6.2-0.4,7.6C-139.2,727.2-139.1,728.3-138.1,724.4z"/>
	<path class="st1" d="M-142.8,797.5c-1.2-2.4-1.4-1.9-0.9,0.8c2.2,10.1,10.8,39.3,12.2-18.7c0.2-6.8-0.8-6.6-1.1-0.2
		C-133.3,795.7-138.3,806.1-142.8,797.5z"/>
	<path class="st1" d="M-110.7,765.3c0,5.1,0.7,11.8,1.4,17.4c3.5,27.3,2.6,40,1.3,54.3c-1.4,16.1,1.2,15.3,3.2-0.4
		c3.5-27.4-1.4-59.9-4-72.4C-109.7,760.1-110.7,762.8-110.7,765.3z"/>
	<path class="st1" d="M-252.6,638.9c-0.9,12.3-3.1,42.1-4.5,53.2c-3.4,26.3-5,32.7-7.4,32.3c-2.4-0.4,1.7-14.8,4.9-68.5
		c2.7-45.2,5.9-81,6.4-89.5c0.6-8.5-1.8-8.5-2.4-0.4c-0.6,8.2-6.9,93.7-10.3,132.5c-1.2,13.2-3.2,29.3-5.6,37.6
		c-5.8,20.3,1.4,21.7,8.6-0.1c3.5-10.6,5.8-23.4,6.9-30.7c2.2-14.5,5.3-54.4,6-65.6C-249.2,628.5-251.7,626.6-252.6,638.9z"/>
	<path class="st1" d="M-112.8,859.1c-0.1,0-27.7,4.1-57.4,3c-11.5-0.4-29.2-2.1-47.7-4.9c-23.5-3.6-48.6-9-67.2-14.6
		c-0.6-0.2-1.2,0.2-1.3,0.7c-0.2,0.6,0.2,1.2,0.7,1.3c18.6,5.6,43.9,11,67.5,14.6c9.5,1.4,18.4,2.5,26.5,3.3c1.5,0.2,5,1.3,4.4,6
		c-0.6,5.1-6,4.4-6,4.4l0,0c-8.2-0.8-17-1.9-26.5-3.3c-36.2-5.5-61-12.6-75.4-17.5c-3.2-1.1-5.5-2.1-8-3c0,0-0.7-0.3-0.9,0.3
		l-1.7,4.4c0,0-0.4,0.7,0.2,0.9c15.3,5.9,42.7,14.5,84.9,20.9c0,0,0,0,0,0c0,0,0,0,0,0c36.8,5.6,63.2,5.8,78.8,5
		c10.2-0.5,16.8-1.1,21-1.8c2.3-0.4,4.9-1.8,5.8-3.6c2.7-5.5,3.3-9.3,4.6-15C-110,858.5-112.2,858.9-112.8,859.1z"/>
	<path class="st1" d="M-312.5,845.3c-3.6-1.7-5.8-2.8-5.9-2.8c-1.4-0.8-3.3-0.4-4.1,1.1c-0.8,1.4-0.4,3.3,1.1,4.1
		c0.3,0.2,2.5,1.4,6.8,3.4c0,0,0.6,0.3,0.9-0.3l1.7-4.4C-311.8,845.6-312.5,845.3-312.5,845.3z"/>
	<path class="st1" d="M-141.4,64.2c1.1,0.8,2.7,0.7,3.2-0.7c0.4-1.4-0.4-3-1.7-3.8c-0.4-0.3-0.9-0.4-1.3-0.4
		C-143.9,59.1-142.6,63.3-141.4,64.2z"/>
	<path class="st1" d="M-114.4,15.5c4.8,0.3,11.3,0.9,18.7,2c12.2,1.7,26.7,4.6,40,8.6c1.4,0.4,2.6,0.8,3.6,1c3,0.7,4.2,0.4,4.9-2
		c1.5-5.3-3.3-7-6.2-7.9c-3-0.9-8.3-2.8-20.9-5.5c-4.7-0.9-9.8-1.9-15.1-2.7c-12.7-1.9-20.5-2.4-24.3-2.7c-2-0.1-2,0.7-2.2,1.7
		c-0.5,2.2-0.6,4.1-0.6,5.7C-116.5,14.9-116.5,15.4-114.4,15.5z"/>
	<path class="st1" d="M-127.6,14.9c0.7,0.1,1.5,0.1,2.4,0.1c1.8,0,2-0.4,2-1.6c0-1.8,0.3-3.8,0.7-5.5c0.2-1,0.4-1.9-1.1-1.9
		c-7.1,0.3-10.9,2.1-10.8,4.8C-134.5,12-135,14.5-127.6,14.9z"/>
	<path class="st1" d="M-137.6,55.4c1.5-0.1,2-0.7,2.5-1.8c1.9-4.7,7.7-18.7,7.9-19.5c0.2-0.9,0.4-1.6-0.7-1.8
		c-0.8-0.1-1.7,0-2.4,0.2c-1.1,0.3-1.5,1-1.8,1.4c-3.2,5.4-9.9,18.5-10,19.9C-142.1,55.6-139.5,55.6-137.6,55.4z"/>
	<g>
		<path class="st2" d="M-64.4,82.2c-1.6-0.7-3.9,1.1-1.6,2.9c2.9,2.2,1.8,6.4,1.1,11c-1.2,7.3-1.1,7.6-2.2,14.9
			c-1.7,11.3-2.9,22.5-3.1,33.9c-0.2,12,0.5,19.1,1.2,31c0.3,5.2,1.8,6.1,1.6-0.2c-0.1-6.7-0.3-16,0.1-30.2c0.3-9.1,1.8-22.5,3.6-34
			c1.2-7.8,2.5-16.5,2.8-18.4C-59.7,85.8-62.2,83.2-64.4,82.2z"/>
		<path class="st1" d="M-61.4,71.5c4.4,1.4,16.7,2.4,13.4-9.5c-3.1-10.8-5.1-16.9-4.4-21.8c0.2-1.2,0.4-2.9,1.1-4.8
			c-0.8,0-1.7-0.1-2.7-0.3c-1.2-0.3-2.4-0.7-4-1.2c-11.4-3.6-25.2-6.8-38.9-8.7c-9-1.3-17.4-1.9-22.3-2c-2.3,0-4.2-0.2-5.9-0.1
			c-2.7,0.1-4.1,4,1.5,4.1c17.7,0.4,39.5,3.7,52.8,8c5.2,1.7,6.1,2.8,5.4,4.5c-0.8,1.9-3.5,1-6.1,0.2c-12.3-4.2-33.6-7.4-47.7-7.4
			c-0.7,0-2.3,0.4-2.8,1.7c-0.4,1-5,13.2-7.1,18.9c-1.1,3,0.6,3,1.5,3.1c11.9,1.1,36.5,4.5,42.9,6.8c5.1,1.9,5.6,2.6,5,4.1
			c-0.7,1.7-2.3,1.1-6.9-0.1c-8.4-2.3-35.8-6-42.4-6.2c-3.3-0.1-4.3,0.7-4.4,2.2c-0.1,1.1,1.7,2.2,4,2.3c8.1,0.3,33.9,4.4,39.1,5.9
			c3,0.9,3.4,1.9,3.1,2.9c-0.3,1.1-1.2,1.6-4,0.7c-6.6-2.1-32.4-6.1-38.1-4.6c-5.1,1.4-8.8,22-12.4,39.8
			c-3.9,19.3-10.7,39.1-12.7,43.9c-3.7,8.9-5.7,8.2-2.2-0.3c2.3-5.5,8-23.9,11.7-44c3.5-18.3,6.5-33.1,7.3-37.5
			c0.3-1.8-0.4-2.9-2.4-3c-2.4,0-4.2,0.3-4.2,0.3c-0.3,1.7-0.3,2.3-0.6,4.5c-2.2,14.9-5.8,39.8-11.9,59.9
			c-3.6,12.3-12.2,32.8-20.2,50.8c-0.9,1.9-1.7,3.8-2.5,5.6c0,0-13.6,29.8-16.5,35.9c-2.9,6.1-2.1,6.8,1.1,0.7
			c1.9-3.6,14.6-28.6,21.2-41.3c0.1,0,0.1,0,0.2,0.1c5,1.5,9.9,2.8,14.6,4c0.2,0.1,0.4,0.1,0.6,0.2c-6.5,18.6-23.2,66.5-24.3,69.3
			c-2.5,6.6-1.9,7.6,1.1,0.6c2.1-4.9,17.4-41.2,25.8-66.4c0,0,0.3-1,0.9-2.6c3.3-9.4,14.6-41.4,18.8-55.2c1.6-5.3,3.2-6,1.8,0.5
			c-4.7,21-10.2,39.1-14.7,56.1c5.6,1.2,10.9,2.3,16,3.2c1.9-10,16.8-89.7,16.8-89.7c2.1-14.2,5.1-13.7,2.9,0.3
			c-0.7,4.9-8,62.5-11.6,90.7c16.5,2.4,30.8,2.9,43.5,2.1c7.5-0.5,14.4-1.5,20.8-2.7c0.1,0,0.1,0,0.2,0c-2.3-20.2-3.3-34.6-3.1-47.9
			c0.3-20.8,4.3-45.7,6.6-60.5c0.4-2.3,0.8-4.4,1-6.2c0.1-1,0.5-2.1-0.6-3.1c-1.7-1.6-6.2-5.6-6.4-5.8
			C-62.6,71.6-62.7,71.1-61.4,71.5z M-60.8,93.1c-0.3,1.9-1.6,10.6-2.8,18.4c-1.7,11.5-3.3,24.9-3.6,34c-0.4,14.2-0.3,23.4-0.1,30.2
			c0.1,6.3-1.3,5.4-1.6,0.2c-0.7-11.9-1.4-19-1.2-31c0.2-11.4,1.3-22.7,3.1-33.9c1.1-7.3,1-7.6,2.2-14.9c0.7-4.6,1.8-8.8-1.1-11
			c-2.3-1.8,0-3.6,1.6-2.9C-62.2,83.2-59.7,85.8-60.8,93.1z"/>
	</g>
	<path class="st1" d="M-73.8,227.5c0.1,4.9,0.9,60.4,1.4,78.3c0.3,9.9,2.1,7.5,2.1-1.8c0-5-1.9-70.4-2.2-76.7
		C-72.7,219.9-73.9,219.2-73.8,227.5z"/>
</g>
<path class="st1" d="M-38.4,413.6c-0.1,28.8-3.5,56.2-5.8,71.5c-2.3,15.3-5.5,43.5-11.2,43.2c2.9,2.9,6,3.7,2.6,15.3
	c-3.5,11.5-15.3,48.7-20.5,66.6c-5.2,17.9-8.9,31.4-10.7,36.9c2.3-21,7.1-43.9,11.9-63.1c8.4-33.6,18.4-51.6,7.4-55.9
	c7.5-4.3,7.8-15.8,11.4-29C-49.1,483.6-40.1,445.5-38.4,413.6z"/>
<path class="st1" d="M-285.8,602.9c7.7,1.9,41.9,12.5,64,52.4c11.4-19.3,28.1-30.6,55.9-30.6c31.5,0,54.4,10.1,63.9,32.6
	c-2.3-28-26.1-53.7-50.7-68.2c-12-7-36.1-14.7-63.1-17.6c-32.6-3.4-67.4,1.2-70,11.2V602.9z"/>
<path class="st1" d="M-108.5,496.1c-6.2-2.4,0.7-15.4,5-24c4.3-8.6,11.6-21.6,19.7-39.1c22.9-49.9,21.5-57.5,19.6-62.2
	c15.2-13,19.5-51.7,19.5-51.7h-26.4l-2.4,8c-1.9-2.8-9.3-13.2-19.4-13.6c-16.9,0-33.9,14.3-50.4,32c-15.5,16.7-64.6,83-74.6,97.9
	c-9.9,14.9-31.8,41.5-35.9,46.9c-4.1,5.4-4.2,6-3.3,7.9c-1.7,0-5.5,1.6-8.5,3.5c-3,1.9-9.1,7.9-11.5,3.4c-2.4-4.5,1.7-9.6,4.8-10.6
	c-4.8-1.3-2.5-23.2,6.3-57.6c8.7-34.4,25.7-60.5,35.1-73.3c5.7-7.7,13.6-14.9,16-16.2c-3.2-5.9,3.7-16,12.9-11.7
	c6.5,3,5.7,10.9,9,13.6c-18.6,0.9-26.5,19.2-28.4,27c-2.2,8.9-2.2,17.3,6.3,17.3c8.4,0,16.9-12.5,21.4-20.5c4.5-8,8.4-21,11.8-22.8
	c-4.9-7.9-1.2-28-17.8-35.4c-14.8-6.6-42.5,13.4-32.7,30.7c-8,4.8-13.2,12.5-17.9,20.3c-4.8,7.8-9.1,17.7-11.5,23.6
	c-2.4,5.8-6.6,25.9-7.8,32c-2.6,13.5-13.1,67.2-8.2,71.5c-5.4,2.2-6,9.1-6.2,14.1c-0.8,14.1-1.4,26.8,1.5,31.4
	c3.3,5.2,28-38.7,37.8-37.5c-2.7-3.8,7.7-14.3,12.5-19.2c-2.9,10.2-4.1,18-1.1,21.7c-8.8,2.8-6.2,36.9,18.5,36.9
	c23.3,0,49.9-27.1,54.5-33.9c-3.2,21.2,3.9,33.9,19.4,33.9c15.6,0,32.2-12.1,31.8-17.5c4.8-1.2,9.7-4.3,30-32.8
	c22.9-33.3,32-61.4,32-61.4h-8.2C-76.9,475.2-102.8,498.3-108.5,496.1z M-178.3,497.4c-18.4,0-3.2-32.8,11.2-58.8
	c14.4-25.9,49.2-71.5,48.9-78.8c8.6-2.3,16.4-31.3,32.6-23.5c9.4,4.5-3.8,26.2-8.4,28.1c1.3,3.8,1.2,11.3-17.8,47.4
	C-130.8,447.9-159.9,497.4-178.3,497.4z"/>
</svg>
