<?xml version="1.0" encoding="utf-8"?>
<!-- Generator: Adobe Illustrator 18.1.1, SVG Export Plug-In . SVG Version: 6.00 Build 0)  -->
<!DOCTYPE svg PUBLIC "-//W3C//DTD SVG 1.1//EN" "http://www.w3.org/Graphics/SVG/1.1/DTD/svg11.dtd">
<svg version="1.1" id="Layer_1" xmlns="http://www.w3.org/2000/svg" xmlns:xlink="http://www.w3.org/1999/xlink" x="0px" y="0px"
	 viewBox="0 0 192.4 641.9" enable-background="new 0 0 192.4 641.9" xml:space="preserve">
<g>
	<path fill="#B3222D" d="M8.5,618.2c0,0,69.3,52.2,178.8,0c0,0,1-78.4-5-103.5c0,0-8-29.1-5-68.3c3-39.2,21.1-127.6-2-209
		s-35.2-80.4-35.2-151.7c0,0,1-9-7-14.1c0,0,10-7,10-18.1l-6-10c0,0,5-10,6-20.1c0,0-5-22.1-45.2-19.1s-47.2,8-50.3,19.1
		c0,0,0,15.1,4,19.1c0,0-13.1,20.1,0,29.1c0,0-5,10-3,25.1c2,15.1-7,91.4-26.1,133.6s-14.1,164.8-8,210s0,62.3-6,85.4
		C8.5,525.8,1.5,579,8.5,618.2z"/>
	<path fill="#861924" d="M51.7,71.7c0,0,57.3-7,81.4,0c0,0,9.3,2.8,7.7,39.1c0,0,5.4,34.5,19.9,80.6s-4.5-4.1-4.5-4.1
		s24.2,63.7,26.8,86.6c0,0-49.9-68.4-49.9-102.6s-23.7-98.5-84.2-65.4C48.9,105.8,42.7,85.7,51.7,71.7z"/>
	<path fill="#861924" d="M183,527.8l-18.8,9c0,0,15.6,64.8-7.3,93.7c0,0,22.4-6.3,30.4-12.3C187.3,618.2,185.9,551,183,527.8z"/>
	<path fill="#CC3742" d="M96.4,641.4c0,0-10.5-50.3-4.5-92.5c0,0-14.1-167.8-12.1-235.1c0,0-26.9,125.6-33,231.1
		c0,0-12.5,25-3.8,89.4C43,634.2,66.3,644.4,96.4,641.4z"/>
	<g>
		<defs>
			<path id="SVGID_1_" d="M8.5,618.2c0,0,69.3,52.2,178.8,0c0,0,1-78.4-5-103.5c0,0-8-29.1-5-68.3c3-39.2,21.1-127.6-2-209
				s-35.2-80.4-35.2-151.7c0,0,1-9-7-14.1c0,0,10-7,10-18.1l-6-10c0,0,5-10,6-20.1c0,0-5-22.1-45.2-19.1s-47.2,8-50.3,19.1
				c0,0,0,15.1,4,19.1c0,0-13.1,20.1,0,29.1c0,0-5,10-3,25.1c2,15.1-7,91.4-26.1,133.6s-14.1,164.8-8,210s0,62.3-6,85.4
				C8.5,525.8,1.5,579,8.5,618.2z"/>
		</defs>
		<clipPath id="SVGID_2_">
			<use xlink:href="#SVGID_1_"  overflow="visible"/>
		</clipPath>
		<g id="bOjIZk.tif_5_" clip-path="url(#SVGID_2_)">
			<g>
				<path fill="#FFFFFF" d="M339.7,284.1c-0.3,2.3-1.6,3.6-2.8,5.1c-2.6,3.4-4.9,7-7.4,10.4c-0.9,1.2-1.9,2.3-2.9,3.4
					c-2.7,3.4-5.5,6.7-8,10.3c-3.6,5-8.3,8.6-12,13.3c-1.4,1.8-3,3.6-4.6,5.2c-3.4,3.5-6.8,7.1-10.5,10.3c-4.1,3.5-8.5,6.7-12.9,9.8
					c-1.7,1.2-2.4,3.1-3.2,5c-1.4,3.4-2.8,6.8-4,10.3c-1.5,4.6-2.6,9.4-4,14.1c-0.9,3.1-1.1,6.2-0.6,9.4c0.4,2.4,3.1,3.8,5,2.6
					c3.9-2.4,6.5-6.2,9-10.1c3.3-5.1,6.5-10.3,9.7-15.6c2.7-4.4,5.2-8.8,7.9-13.1c2.1-3.3,4.4-6.6,6.8-9.7c2.9-3.8,6-7.5,9.2-11
					c2.4-2.7,5.2-5,7.9-7.4c0.3-0.3,0.6-0.4,0.8-0.7c2.5-2.7,5.7-4.1,8.8-5.3c2.9-1.1,6-0.7,8.8,0.8c1.1,0.6,1.8,1.9,2.7,3
					c0.6,0.7,1.2,1.5,1.9,2.4c0.6-1.1,1.1-1.8,1.4-2.7c0.5-1.5,1.3-1.9,2.7-1.9c2.8,0.1,5.6-0.2,8.4-0.2c1.4,0,2.7,0,4.1,0
					c0.6,0,1.1,0.1,0.7,1.1c-0.6,1.4-1.2,2.8-1.9,4.2c-1.3,2.7-2.7,5.3-4.1,8c-1.7,3.4-3.3,6.8-5,10.1c-0.7,1.5-1.6,2.9-2.4,4.3
					c-2.2,4.3-4.3,8.7-6.5,13c-1.7,3.4-3.6,6.6-5.3,9.9c-2.5,5-4.9,10-7.3,15c-0.3,0.7-0.6,1.6-0.7,2.4c-0.1,0.6-0.1,1.7,0.2,1.9
					c0.5,0.4,1.5,0.6,2,0.3c1.9-1.1,4-1.7,5.6-3.7c1.3-1.6,3.1-2.7,4.4-4.3c3.4-4.1,6.7-8.3,9.3-13.1c1.2-2.2,2.8-4.3,4.2-6.4
					c0.6-0.8,3.5-1.3,4.2-0.6c0.2,0.2,0.3,1,0.2,1.3c-1,1.7-2.2,3.3-3.2,5c-0.8,1.3-1.6,2.5-2.3,3.8c-2.2,4-4.9,7.6-7.7,11.2
					c-2.2,2.8-4.2,5.8-6.5,8.5c-2,2.4-4.2,4.5-6.4,6.7c-3.4,3.3-7.3,5.6-11.3,7.6c-2.4,1.2-5.1,1.2-7.6,0.1c-2.1-1-3.2-2.9-3.5-5.2
					c-0.3-2.1-0.1-4.4-0.1-6.6c0-0.4-0.1-0.8-0.3-1.5c-0.6,0.5-1.1,0.7-1.4,1.2c-3.3,4-7.1,7.3-11.2,10.2c-3.3,2.4-7.1,3.6-11,2.3
					c-2.5-0.8-4.5-2.5-5.3-5.8c-0.5-2.2-1.1-4.3-1-6.6c0.1-1.5,0.2-3,0.3-4.5c-0.1-0.1-0.3-0.2-0.4-0.3c-0.6,0.6-1.2,1.1-1.8,1.8
					c-1.9,2.3-3.7,4.5-5.5,6.8c-1.9,2.5-4.5,4-6.8,5.9c-2.3,1.9-4.9,2.9-7.6,3.3c-2.2,0.4-4.3-0.5-6.2-2c-2.9-2.4-4-5.9-4.5-9.8
					c-0.6-5.3,0.5-10.4,1.8-15.4c1.1-4.5,2.5-8.8,3.8-13.2c0.5-1.9,1.1-3.8,1.5-5.7c0.1-0.3-0.1-0.9-0.3-1.2
					c-0.2-0.2-0.6-0.2-0.9-0.2c-0.6,0.1-1.1,0.3-1.7,0.3c-1.6,0.1-3.1,0.1-4.7,0.4c-0.6,0.1-1.3,0.7-1.6,1.3
					c-2.8,4.9-5.4,10.1-8.4,14.8c-2.7,4.3-6,8.2-9,12.3c-3.5,4.7-7.6,8.7-12.1,12.2c-3.6,2.8-7.4,5.1-11.8,6
					c-3.2,0.7-6.4,0.2-8.7-2.3c-2-2.2-3.2-5.2-3.4-8.6c-0.5-6.7,0.6-13.1,2.8-19.2c1-2.8,1.8-5.7,3-8.4c1.5-3.5,3.3-6.9,5.1-10.3
					c1.1-2.1,2.2-4.1,3.4-6.1c1.4-2.2,2.8-4.4,4.3-6.4c2.4-3.3,4.7-6.6,7.2-9.7c2-2.4,4.3-4.4,6.5-6.5c4-3.8,8.3-6.7,13-9.2
					c2.2-1.2,4.5-1.9,6.8-2c2.8-0.2,5.6,0.3,7.9,2.4c1.8,1.6,2.5,3.9,2.8,6.2c0.8,5.2,0.2,10.3-1.4,15.3c-0.9,2.8-1.9,5.6-2.9,8.3
					c-0.4,1.2-1,2.3-1.6,3.4c-0.5,0.9-0.2,1.4,0.6,1.4c1.7-0.1,3.4-0.3,5.1-0.7c1.9-0.4,3.2-1.6,4-3.7c1.6-4,3.3-7.9,5.2-11.7
					c3.1-6.2,6.3-12.4,9.6-18.5c2.7-5.1,5.6-10.1,8.6-15c2.9-4.8,6.1-9.5,9.2-14.1c2.6-3.9,5.2-7.8,7.9-11.7c1.3-1.8,2.6-3.6,4-5.3
					c2.3-2.9,4.6-5.7,7-8.5c3.4-3.9,6.7-7.9,10.3-11.4c4.4-4.3,9.1-8.3,13.7-12.2c2.6-2.2,5.2-4.3,7.9-6.2c3.3-2.2,7.1-3,10.9-2.6
					c2.1,0.2,3.9,2.8,4.1,5.5c0.4,5.4-0.8,10.3-3.3,14.8c-1.2,2.2-2.9,2.9-5.1,2.4c0.9-2,1.9-3.9,2.6-5.9c0.9-2.6,1.8-5.3,2.2-8.1
					c0.4-2.5-1.9-4.1-3.9-2.8c-2.5,1.6-5,3.3-7.1,5.4c-4.6,4.7-9.1,9.5-13.4,14.6c-3,3.6-5.7,7.6-8.5,11.4c-2.2,3-4.3,6-6.3,9
					c-1.3,1.8-2.4,3.8-3.6,5.7c-2.3,3.6-4.6,7.2-6.8,10.9c-1.8,3-3.5,6.2-5.3,9.3c-2,3.5-4.1,7-6,10.6c-1.6,2.9-3.1,5.8-4.6,8.8
					c-1.6,3.2-3.2,6.5-4.8,9.8c-0.8,1.6-1.4,3.3-2.1,5c1.9,0,2.7-1.9,4-3c2.6-2.2,5.1-4.6,7.6-6.9c2.3-2.1,4.6-4.2,6.9-6.4
					c2.8-2.7,5.6-5.5,8.2-8.4c1.8-2,3.2-4.4,4.7-6.7c0.1-0.2,0.2-0.4,0.4-0.6c2.2-2.6,4.4-5.3,6.7-7.9c2.4-2.7,5.1-5.3,7.3-8.2
					c2-2.5,3.6-5.5,5.4-8.1c0.4-0.6,1-1,1.6-1.3C336.6,283.9,338.1,283.3,339.7,284.1z M342.2,332.6c0-2.8-1.1-4.3-2.9-3.9
					c-1.8,0.5-3.6,1.4-5,2.7c-2.8,2.5-5.5,5.2-8,8.1c-2.7,3.2-5.2,6.6-7.6,10.1c-2.3,3.5-4.4,7.2-6.6,10.8c-2.1,3.6-4.2,7.2-6.1,11
					c-2.5,5.1-4.7,10.3-5.3,16.3c-0.1,1.5-0.2,2.9,0.7,3.7c1,1,2.4,1.6,3.8,0.8c1-0.6,2-1.1,2.8-1.9c1.9-1.9,3.7-3.9,5.3-6
					c1.9-2.6,3.6-5.4,5.4-8.2c1.5-2.4,2.9-4.8,4.2-7.3c2.2-4,4.4-8.1,6.5-12.1c0.8-1.5,1.6-3.1,2.4-4.7c1.4-2.6,2.8-5.3,4.2-7.9
					c1.4-2.6,2.8-5.2,4.1-7.8C341.1,335,341.8,333.5,342.2,332.6z M228.2,348.8c-0.3,0.3-0.9,0.6-1.2,1.2c-2.3,3.7-4.6,7.4-6.7,11.3
					c-2.7,4.8-5.2,9.9-6.8,15.4c-1,3.5-2,6.9-1.7,10.8c0.3,4.3,4.3,6.5,7.7,4.5c3-1.7,5.5-3.9,7.7-6.6c2.8-3.3,5.3-6.9,7.7-10.5
					c2.1-3.2,3.8-6.6,5.6-10c1-1.8,0.7-4-0.5-4.6c-2.8-1.4-5.4-3.1-7.5-5.7C231,352.8,229.7,350.8,228.2,348.8z M245,356.6
					c0.8-2.1,1.6-4.2,2.5-6.2c1.5-3.9,3-7.8,3.5-12c0.2-2.1,0.2-4.3,0-6.4c-0.1-1-0.6-2.1-1.2-2.7c-1.2-1.2-2.7-1.8-4.5-1.3
					c-1.4,0.4-2.6,1.2-3.8,1.9c-2.9,1.7-5,4.3-6.5,7.4c-2,4.3-1.5,8.8,0.8,12.8C237.9,353.6,240.9,355.7,245,356.6z"/>
				<path fill="#FFFFFF" d="M0.7,310.6c1.1-0.1,2,0,2.7-0.2c2.9-1.1,5.5-3,8.1-4.8c5.3-3.8,9.3-9.1,13.8-13.9
					c3.2-3.4,6.5-6.5,10.3-9c2.3-1.5,4.6-3.3,7.1-4.4c2.3-1,4.8-1.5,7.5-1.2c2.4,0.4,4.6,0.9,6.6,2.6c2.2,1.8,3.3,4.4,3.7,7.3
					c0.4,3.3-0.4,6.3-1.4,9.4c-1,3.1-2.7,5.8-4.4,8.3c-1.7,2.4-3.9,4.5-6.8,4.7c-1.9,0.2-3.7-2-3.8-4.1c-0.2-3,1-5.3,2.4-7.6
					c1.1-1.8,2.3-3.5,4.2-4.4c1.1-0.5,2.3-0.9,3.4-1c1.4-0.1,1.8-1,1.9-2.3c0.5-3.7-2.5-5.8-5.8-4.6c-4.1,1.5-7.2,4.4-10.2,7.7
					c-4.3,4.8-8.4,9.8-11.8,15.4c-3.3,5.3-6.5,10.8-8.8,16.9c-1.4,3.7-2.9,7.2-4.2,10.9c-1.3,3.9-1.8,7.9-0.6,12
					c1.3,4.7,4.9,5.9,8.5,5.1c4-0.9,7.3-3.5,10.4-6.5c1.7-1.7,3.6-3.3,5.3-5.1c1.9-2.1,3.8-4.3,5.5-6.6c1.7-2.2,3.4-4.5,5-6.9
					c2.1-3.1,4.1-6.2,6.2-9.3c1.5-2.2,3-4.3,4.5-6.5c1.3-1.9,2.6-3.9,4-5.8c1.6-2.3,3.2-4.6,4.9-6.7c1.8-2.4,3.7-4.7,5.8-6.8
					c3.2-3.3,6.4-6.6,9.8-9.5c3.1-2.7,6.6-4.8,10.5-6c3.9-1.2,7.4-0.4,10.4,2.9c0.2,0.2,0.4,0.5,0.7,0.8c0.7,0.7,1.3,1,1.8-0.3
					c0.6-1.5,1.6-1.9,3-1.8c4.4,0.1,8.7,0,13.5,0c-0.8,1.6-1.4,3-2.1,4.3c-3,5.9-6.1,11.7-9.2,17.5c-2.4,4.7-4.7,9.4-7.1,14
					c-2.1,3.9-4.3,7.7-6.4,11.5c-1.8,3.4-3.5,6.8-5.3,10.2c-1.2,2.4-2.4,4.9-3.6,7.3c-0.2,0.4-0.3,1-0.3,1.4c0,0.9-0.1,2.3,0.3,2.6
					c0.8,0.5,2.1,0.7,2.8,0.3c2.1-1.3,4.2-2.8,5.9-4.6c2.9-2.9,5.6-6,8.1-9.2c2.7-3.6,5.1-7.5,7.7-11.2c0.3-0.5,0.9-0.9,1.4-0.9
					c1.3-0.1,2.6,0,4.3,0c-0.7,1.2-1.2,2.2-1.8,3c-2.4,3.6-4.9,7.2-7.4,10.8c-1.3,1.9-2.6,3.7-4,5.5c-2.6,3.2-5,6.5-7.8,9.4
					c-3.6,3.8-7.4,7.4-11.3,10.7c-3,2.5-6.3,4.2-10.3,4.1c-3.9-0.1-6.5-3.9-6.6-7.6c-0.1-1.8,0-3.6,0-5.7c-0.6,0.3-1.4,0.5-1.8,1.1
					c-2.4,3.5-5.5,6.1-8.7,8.5c-2.5,1.9-5.3,3.3-8.2,3.8c-4.9,0.9-9.9-2.3-10.5-9c-0.3-4.4,0.7-8.4,1.5-12.6
					c0.1-0.3,0.1-0.6,0.1-0.9c0-0.1-0.1-0.1-0.3-0.4c-1.2,1.1-2.4,2.2-3.5,3.4c-3.3,3.4-6.5,7.1-10.1,10.3
					c-3.3,2.9-6.7,5.6-10.7,7.2c-3.5,1.4-7,2.4-10.8,2.1c-5.9-0.5-10.6-5.4-12-11.8c-0.5-2.2-1-4.4-1-6.6c0-2,0.3-4.1,0.8-6.1
					c1.3-4.9,2.7-9.9,4.4-14.7c1.2-3.4,3-6.6,4.5-9.9c0.2-0.5,0.4-1.1,0.8-2c-1.3,0.2-2.3,0.3-3.3,0.6c-1,0.2-1.9,0.8-2.9,0.8
					c-2.2,0.1-3,1.9-3.9,3.6c-2,3.7-3.9,7.6-6.1,11.2c-2.2,3.5-4.5,7-7,10.2c-3.3,4.2-6.7,8.3-10.2,12.2c-2,2.3-4.5,4-6.8,6
					c-2.4,2.2-5,3.9-7.9,5c-3.7,1.5-7.5,2.3-11.1-0.2c-2.4-1.6-3.9-3.9-4.7-7c-0.7-3.1-1.1-6.3-0.8-9.4c0.4-3.5,1.1-7.1,1.9-10.5
					c0.7-2.9,1.7-5.8,2.8-8.5c1.6-3.8,3.3-7.5,5.3-11.1c2.6-4.5,5.2-9,8.3-13.2c3.2-4.4,7-8.2,10.5-12.4c2.8-3.5,6.3-6,9.7-8.6
					c3.2-2.5,6.6-4.5,10.4-5.8c2.7-0.9,5.4-1.4,8.1-0.8c2.4,0.5,4.4,2,5.8,4.5c2.1,3.8,1.9,7.9,1.4,12.1c-0.5,4.4-2,8.4-3.3,12.6
					C2.1,307.7,1.4,308.8,0.7,310.6z M100.9,284.9c-1.9,0.2-3.4,1.1-4.8,2c-3,2-5.1,5-7.3,7.9c-3,4.1-6.1,8.1-8.9,12.4
					c-3.4,5.2-6.8,10.3-9.8,15.8c-3.6,6.6-6.8,13.6-8.4,21.3c-0.4,1.9,0,3.6,1.3,4.6c0.8,0.6,2.3,0.8,3.1,0.4
					c3.2-1.6,5.8-4.2,8.1-7.1c1.6-2.1,2.9-4.4,4.2-6.8c3-5.1,5.9-10.2,8.8-15.4c2.6-4.6,5.1-9.3,7.5-14.1c2.8-5.5,5.5-11,8.4-16.5
					c0.8-1.5,0.8-2.7-0.3-3.8C102.4,285.3,101.6,285.2,100.9,284.9z M-22.3,304.5c-0.2,0.2-0.7,0.3-0.9,0.6
					c-2.5,4.1-5.2,8.1-7.4,12.4c-2.5,4.8-4.7,9.7-6.7,14.8c-1.2,3-2.1,6.3-2,9.7c0.2,5.7,3.6,8.6,8.4,5.8c3.3-1.9,5.9-4.7,8.5-7.6
					c3.4-3.8,6.2-8,8.8-12.5c1.9-3.2,3.7-6.4,5.5-9.7c0.7-1.3,0.4-1.8-0.9-2.3c-3.6-1.4-7-3.2-9.6-6.3
					C-19.9,307.9-21,306.2-22.3,304.5z M1,291.4c-0.2-0.9-0.4-2.5-1-3.9c-0.4-1-1.3-1.8-2.2-2.4c-2.3-1.4-4.6-0.2-6.6,0.9
					c-2.3,1.3-4.1,3.5-5.6,5.9c-2.4,4-3.7,9.4-0.4,13.8c2.5,3.3,5.8,4.6,9.3,5.3c0.5,0.1,1.3-0.7,1.6-1.3c0.7-1.5,1.3-3.1,1.9-4.6
					C-0.5,301,0.7,296.7,1,291.4z"/>
				<path fill="#FFFFFF" d="M238.9,242.1c-0.3-1.5-1.3-1.8-2.3-1.7c-2.5,0.3-5,0.3-7.3,1.1c-2.7,1-5.2,2.5-7.7,4.1
					c-3.2,2-6.3,4.2-9.3,6.5c-2.4,1.8-4.6,3.9-6.8,6c-1.9,1.8-3.7,3.7-5.5,5.6c-2.9,3.2-5.9,6.3-8.8,9.5c-0.7,0.8-1.3,1.8-2,2.7
					c-1,1.2-2,2.3-3,3.5c-1.1,1.4-2.2,2.9-3.3,4.3c-2.1,2.7-4.2,5.4-6.1,8.2c-3,4.3-6.1,8.6-8.8,13.2c-5,8.4-9.9,16.7-13.9,25.8
					c-2.5,5.8-5.1,11.7-7.2,17.8c-2.3,6.5-3.9,13.4-4.8,20.4c-0.4,2.8-0.7,5.7-0.8,8.5c-0.1,5,1.1,9.7,3.9,13.5
					c2,2.8,4.9,4.5,8.2,5.2c2.9,0.6,5.5-0.4,8.2-1.1c1.6-0.5,3.1-1.8,4.6-2.8c3.2-2.2,6.1-4.6,8.7-7.7c2.2-2.7,4.8-5.2,6.8-8.1
					c3.7-5.5,7.5-10.9,10.1-17.3c1.7-4.2,3.4-8.4,4.3-13c0.6-3.1,1.3-6.2,1.5-9.4c0.1-2-0.2-4.2-1.3-6c-0.6-1-3.5-1.8-5-1.3
					c-3,1-5.4,2.8-7.2,5.7c-1.6,2.6-3.4,5-4.8,7.7c-2.2,4-3.6,8.4-4.4,13c-0.3,1.7-1.1,2.5-2.4,3.3c-2.6,1.5-5.2,3.1-7.6,5
					c-2.7,2.2-5.2,4.7-7.7,7.2c-0.9,0.9-1.8,1.9-3.1,3.1c0.1-1.4,0.1-2.6,0.3-3.7c0.6-3.4,1.3-6.8,2.1-10.2c0.4-1.8,1.1-3.5,1.8-5.3
					c1.4-3.7,2.7-7.6,4.5-11.1c1.8-3.5,3.9-7,6.3-10c2.6-3.1,5.6-5.8,8.6-8.3c2-1.6,4.4-2.7,6.7-3.6c2.6-0.9,5.3-1.4,7.9-1.9
					c2.6-0.5,6.8,2.7,8,5.6c1.2,3.1,1.8,6.3,1.9,9.6c0,2.6-0.5,5.3-0.9,7.9c-0.4,2.4-0.7,4.8-1.4,7c-1.3,3.9-2.7,7.6-4.3,11.3
					c-1.4,3.2-2.9,6.4-4.7,9.3c-2.7,4.5-5.7,8.8-8.7,13.1c-1.5,2.2-3.3,4.2-5.1,6.1c-4.9,5.3-10.3,9.8-16,13.8
					c-1.6,1.1-3.2,2.1-4.9,2.7c-2.6,0.9-5.3,1.6-8,2.2c-4,0.9-8.1,0.5-11.9-1c-2.7-1.1-5.2-2.9-7.4-5.2c-1.6-1.7-2.8-3.7-4.2-5.5
					c-0.3-0.3-0.4-0.9-0.6-1.3c-2-3.1-2.6-6.9-3.4-10.5c-1-4.7-0.8-9.6-0.5-14.3c0.3-4.1,1.2-8.2,2.3-12.1
					c1.4-5.2,2.9-10.2,4.7-15.2c1.6-4.6,3.6-9,5.6-13.4c1.2-2.7,2.5-5.3,3.8-7.8c1.9-3.4,3.8-6.8,5.8-10.2
					c3.9-6.3,7.8-12.7,11.8-18.9c2-3,4.2-5.8,6.5-8.6c2.4-3,4.9-5.9,7.5-8.8c3.4-3.8,6.7-7.7,10.3-11.3c3.2-3.2,6.7-6.1,10.1-9.1
					c1.7-1.5,3.4-3.1,5.2-4.3c4.2-2.8,8.6-5.4,12.9-8.2c4.6-2.9,9.6-4.6,14.5-6.6c4-1.6,7.9-2.9,12.1-2.6c3.6,0.3,7.1,1.3,10,3.9
					c1.1,1,2.2,1.2,3.6,0.7c3.7-1.3,7.4-2.7,11.2-3.9c1.1-0.4,2.4-0.4,3.6-0.4c3.1-0.1,6.1-0.4,9.1,0.3c1.8,0.5,3.7,0.7,5.6,1.2
					c2.1,0.6,4.3,1.3,6.3,2.2c3,1.4,5.9,3,8.8,4.6c4.1,2.2,8.1,4.6,12.2,6.9c1.9,1.1,3.8,2.2,5.7,3.2c0.2,0.1,0.4,0.2,0.6,0.3
					c2.2,1.3,2.3,1.4,0.5,3.5c-1.9,2.1-3.8,4.2-5.6,6.4c-1.3,1.5-2.6,3-3.7,4.6c-0.8,1.1-1.7,1-2.5,0.4c-3.7-2.6-7.4-5.3-11.1-7.9
					c-3.6-2.6-7.1-5.3-10.8-7.6c-3.2-2-6.6-3.7-9.9-5.4c-3.8-1.9-7.8-2.8-11.9-3.7c-2.3-0.5-4.7,0.1-6.9,1c-0.5,0.2-0.6,1.6-0.7,2.5
					c-0.2,1.8-0.2,3.6-0.3,5.5c-0.1,3.9-1.1,7.7-2.2,11.4c-0.7,2.2-1.3,4.4-2.1,6.6c-1.3,3.6-2.7,7.1-4.8,10.2
					c-2.5,3.5-4.6,7.4-7.1,11c-1.3,1.9-2.8,3.6-4.4,5.1c-2.1,1.9-4.2,3.8-6.5,5.3c-3,1.8-6.1,3.4-9.6,3.1c-3.6-0.3-6.1-3.5-6.9-8
					c-0.7-4,0.3-7.6,1.5-11.1c1.1-3.3,2.5-6.6,4.1-9.6c3.8-7.3,8.3-14.1,13.8-19.8c2.1-2.2,4.3-4.3,6.7-6.3c2.7-2.2,5.5-4.2,8.3-6.3
					C237.9,243.3,238.4,242.7,238.9,242.1z M242.9,249.4c0-2.7-0.4-3.1-2.6-2c-1.2,0.5-2.3,1.2-3.3,2.1c-2.5,2-5,4.1-7.4,6.3
					c-2.1,2-4.1,4.2-6,6.4c-2.4,2.8-4.8,5.7-6.8,8.8c-2.3,3.6-4.2,7.5-6.1,11.3c-1.9,3.9-3.6,8-3.5,12.7c0.1,2.3,2.3,5,4.3,4.7
					c2.3-0.4,4.5-1.3,6.4-3c1.3-1.2,2.6-2.4,3.9-3.6c1.4-1.3,3-2.5,4.2-4c1.9-2.2,3.6-4.5,5.3-7c1.9-2.8,3.7-5.6,5.2-8.6
					c1.2-2.3,1.9-5,2.9-7.5C241.6,260.9,242.6,255.3,242.9,249.4z"/>
				<path fill="#FFFFFF" d="M104.3,411.5c-0.7-0.5-1.4-0.9-2.1-1.4c-1.8-1.1-3.7-2.4-5.6-3.3c-2-1-4.2-1.8-6.3-2.6
					c-2.4-0.9-4.8-1.7-7.3-2.4c-2.3-0.6-4.7-1-7-1.3c-1.6-0.2-3.2-0.1-4.8-0.2c-4.1-0.3-8.1,0.4-12,1.6c-3.1,0.9-5.7,2.8-8,5.3
					c-1,1.1-2,2.2-3,3.4c-0.5,0.6-0.9,0.7-1.4,0c-1.4-1.8-2.7-3.6-4.2-5.3c-1-1.2-2-2.5-3.3-3.3c-2.5-1.8-5.1-3.6-7.8-4.8
					c-3.4-1.5-7-2.5-10.6-3.4c-2.1-0.5-4.2-0.6-6.4-0.7c-2.5-0.1-5-0.2-7.4,0c-4.2,0.4-8.5,0.8-12.7,1.5c-4.4,0.7-8.7,1.8-13.1,2.8
					c-1.7,0.4-3.3,1.2-5,1.7c-1.1,0.3-2.3,0.4-3.5,0.8c-4.1,1.1-8.3,2.3-12.4,3.4c-2.9,0.8-5.9,1.4-8.9,2.2c-4,1-7.9,2.3-12,3
					c-4.6,0.7-9.2,1.1-13.8,1.2c-2.5,0.1-5-0.9-7.5-1.1c-3.2-0.2-6-1.7-8.9-3c-3.4-1.6-6.6-3.9-9.2-6.9c-2.1-2.5-4.3-5-6-7.9
					c-1.8-3.2-2.9-6.9-3.8-10.6c-1.4-6.2-1.8-12.6-1.5-18.9c0.2-4.1,0.8-8.3,1.4-12.4c0.7-3.9,1.5-7.7,2.6-11.4
					c0.9-3.3,2.2-6.6,3.4-9.8c1-2.8,2-5.5,3.1-8.2c1-2.3,2.1-4.6,3.2-6.8c2.1-3.9,4.2-7.7,6.4-11.5c3.1-5.1,6.3-10.2,9.7-15.2
					c2.3-3.3,4.9-6.3,7.4-9.4c1.9-2.3,3.7-4.7,5.8-6.8c3-3.1,6.1-6.1,9.2-9c3.3-3.1,6.7-6.2,10.2-9.1c3.1-2.6,6.4-5.1,10-6.9
					c1.8-0.9,3.4-2.1,5.2-3c4.8-2.6,9.7-4.8,14.9-6.1c3.2-0.8,6.4-1.5,9.7-1.4c5.8,0.1,10.6,3.6,11.9,10.4c0.4,2.3,0.4,4.6-0.1,7
					C1.9,257-0.4,261.9-4,266c-1.9,2.1-4.2,3.2-7,2.3c-1.5-0.5-2.4-1.8-2.4-4c0-3.2,0.9-6.1,2.7-8.4c1.2-1.6,2.7-3,4.3-4.2
					c0.9-0.7,2.2-0.8,3.3-0.8c1.3,0,1.9-1,2-2c0.8-4.5-0.8-7.4-5.3-7.9c-3.2-0.3-6.2,1.1-9,2.5c-2.8,1.3-5.6,2.8-8.1,4.6
					c-3,2.1-5.8,4.6-8.6,6.9c-1.4,1.2-2.7,2.4-4,3.7c-0.9,0.9-1.7,1.9-2.5,2.8c-4.2,5-8.5,10-12.7,15c-2.3,2.7-4.4,5.6-6.4,8.6
					c-2.1,3-4.1,6.1-6.1,9.3c-2.8,4.5-5.6,9-8.1,13.6c-2.4,4.4-4.5,9.1-6.7,13.7c-0.7,1.5-1.5,2.9-2.1,4.5c-0.9,2.2-1.8,4.4-2.5,6.7
					c-1.4,4.4-2.9,8.8-4,13.3c-1.1,5-2.5,9.9-2.5,15.1c0,2.9-0.3,5.8-0.2,8.7c0.1,4.3,1,8.5,2.6,12.5c1.3,3.5,3.1,6.7,5.6,9
					c2.2,2,4.8,3.5,7.4,5c3.5,2,7.3,3,11.1,3.6c3,0.5,6.1,0.7,9.1-0.1c1.9-0.5,3.9-0.4,5.8-0.7c2.4-0.4,4.8-0.7,7.2-1.3
					c4-0.9,8.1-2,12.1-3c3.8-1,7.7-2.2,11.5-3.3c3.1-0.8,6.3-1.4,9.4-2.3c3-0.8,5.9-1.8,8.9-2.6c4.4-1.2,8.8-2.4,13.2-3.5
					c3.5-0.8,7.1-1.6,10.7-2.1c2.3-0.4,4.7-0.5,7-0.6c4.8-0.3,9.5-0.9,14.3-0.8c4.1,0.1,8.1,0.7,12.1,1.4c3.5,0.6,6.9,1.4,10.3,2.5
					c2.8,0.9,5.5,2.4,8.1,3.8c1.5,0.8,3,1.6,4.4,2.6c2.3,1.7,4.6,3.4,6.9,5.2c2.8,2.3,5.6,4.5,8.3,7c3,2.7,5.7,5.7,8.6,8.5
					C104.5,411.2,104.4,411.4,104.3,411.5z"/>
				<path fill="#FFFFFF" d="M387.9,241.8c-1.2,2.8-1.9,5.8-4,8.1c-2.1,2.4-4,5-6.1,7.4c-1,1.1-2.2,2-3.3,3c-2.4,2-4.9,4-7.4,5.8
					c-2.6,1.9-5.1,3.8-7.8,5.4c-3.7,2.2-7.6,4.1-11.4,6c-1.4,0.7-3,1.1-4.5,1.3c-3.3,0.5-6.7,1.1-10,1.2c-1.9,0.1-3.8-0.5-5.7-0.9
					c-0.7-0.1-0.9-0.5-0.4-1.3c1.5-2.1,2.8-4.3,4.3-6.5c1.4-2.1,2.8-4.3,4.3-6.4c0.5-0.6,1.4-1.1,2.2-1.1c5.6-0.3,11.3-0.6,16.8-2
					c2.4-0.6,4.8-1.7,7-2.9c3.7-2,7.4-4.2,11-6.5c3-1.9,6-3.8,8.9-5.9c1.8-1.3,3.4-3,5.1-4.5c0.3-0.3,0.6-0.5,0.9-0.7
					C387.7,241.6,387.8,241.7,387.9,241.8z"/>
				<path fill="#FFFFFF" d="M128.5,293.6c0.9-1.6,1.8-3.3,2.7-4.9c1.5-2.9,3.1-5.8,4.6-8.7c0.2-0.4,0.8-0.9,1.2-0.9
					c4.4-0.1,8.8,0,13.4,0c-0.7,1.3-1.2,2.5-1.9,3.7c-1.9,3.5-3.8,7.1-5.8,10.5c-0.3,0.5-1.1,1-1.7,1c-1.6,0.1-3.2-0.2-4.8-0.2
					c-2.1-0.1-4.2,0-6.3,0c-0.4,0-0.9,0-1.3,0C128.7,293.9,128.6,293.7,128.5,293.6z"/>
			</g>
		</g>
	</g>
	<path fill="#CC3742" d="M136.1,23.4c0,0-39.2-25.1-81.4,0C54.7,23.4,72.8,14.4,136.1,23.4z"/>
	<path fill="#CC3742" d="M8.5,618.2c0,0-7.6-57.1,0-92.4c0,0,10.2-24.7,8.5-51.7l-6.9-80.4c0,0,17.3,72,18.7,100
		c1.3,28-16.2,86.8-2.4,134.4C26.4,628,9.5,621.4,8.5,618.2z"/>
	<path fill="#CC3742" d="M11.9,279.6c0,0,0.3-35.3,19.6-72c0,0,19.5-85.9,17.4-101.9c0,0,11.3-6.4,19.2-7.7
		C68.1,98.1,46.9,257.6,11.9,279.6z"/>
	<path fill="#861924" d="M164.2,536.8c0,0,11.1-27.3,11.1-61.3c0,0,9.3,37.5,7.7,57.5C183,533,181.6,551.6,164.2,536.8z"/>
	<path fill="#861924" d="M139.3,56c0,0-51-43.5-88.5,3.5C50.8,59.5,88.3,30.5,139.3,56z"/>
</g>
</svg>
