<?xml version="1.0" encoding="utf-8"?>
<!-- Generator: Adobe Illustrator 18.1.1, SVG Export Plug-In . SVG Version: 6.00 Build 0)  -->
<!DOCTYPE svg PUBLIC "-//W3C//DTD SVG 1.1//EN" "http://www.w3.org/Graphics/SVG/1.1/DTD/svg11.dtd">
<svg version="1.1" id="Layer_1" xmlns="http://www.w3.org/2000/svg" xmlns:xlink="http://www.w3.org/1999/xlink" x="0px" y="0px"
	 viewBox="0 0 288.5 274.3" enable-background="new 0 0 288.5 274.3" xml:space="preserve">
<path fill="none" stroke="#FFFFFF" stroke-width="2" stroke-linecap="round" stroke-miterlimit="10" d="M237.4,85.5
	c0,0,17.5,33.2-9.7,64.5c-27.3,31.3,41.2,24.8-32.9,112.3"/>
<path fill="none" stroke="#FFFFFF" stroke-width="2" stroke-linecap="round" stroke-miterlimit="10" d="M135.3,128.6
	c0,0,20.8,21.6-4.8,48.5s-13.1,73.9,15.2,97.2"/>
<path fill="none" stroke="#FFFFFF" stroke-width="2" stroke-linecap="round" stroke-miterlimit="10" d="M65.2,80.5
	c0,0-27.4,12-14.1,46.7s-16.1,73.3-51.1,84"/>
<path fill="#E3626E" d="M120.3,79l-18.7,29.4l8.9,14.1l24.2,9.4c0,0,51.4-30.9,44.7-51.1s-26.6-34.3-26.6-34.3l-20.2,1.2
	c0,0,12.2,20,12.9,19.9c0.7,0,20.4,25.1,20.2,25.9C165.5,94.2,149,111,149,111l-4.7-10l-11.2,0.8l-9.8-12.1L120.3,79z"/>
<path fill="#C1272D" d="M110.8,124.6c5,4,10.5,6.7,16.3,8.2l16.5,0.8c11-1.4,19.4-5,25.3-10.9c6.1-6.1,10.3-14,12.5-23.6
	c2.2-9.6,1.9-18.8-1.1-27.6c-2.9-8.8-8-15.9-15.3-21.2c-5.1-3.8-10.8-6.3-17-7.3c0,0,0,0-0.1,0c-0.8-0.1-1.6-0.2-2.4-0.3
	c0.1,0,0.2,0.1,0.2,0.1c-1.9-0.3-3.8-0.4-5.8-0.3c-2.4,0-4.7,0.2-7,0.6c-0.1,0-0.1,0-0.2,0c-1.4,0.2-2.5,0.4-3.2,0.6
	c0,0,0.1,0,0.1,0c-5.2,1.2-10,3.2-14.4,6.1c-6.9,4.6-12.3,11.1-16,19.4c-3.7,8.4-5,17.9-3.8,28.6
	C96.6,108.4,101.7,117.4,110.8,124.6z M158.8,53.4c6.2,4.7,10.7,9.9,13.5,15.6c2.8,5.8,3.4,12.3,1.8,19.8c-1-10.6-5-19.5-12-26.7
	c-7.1-7.2-14.9-11.4-23.5-12.8C145.8,47.4,152.5,48.7,158.8,53.4z M128.7,76.5c3.8-4.3,8.7-5.4,14.5-3.2c5.8,2.2,8.4,6.7,7.7,13.6
	c-0.7,6.9-4.2,10.7-10.6,11.5c-6.4,0.7-10.9-1.7-13.5-7.2C124.3,85.7,124.9,80.8,128.7,76.5z M119,84.1c0.8,5.3,2,9.6,3.7,12.8
	c1.7,3.2,4.5,5.6,8.4,7c3.9,1.5,8.7,1.2,14.6-0.7c-3.1,3.5-6.6,5-10.4,4.7c-3.8-0.4-6.9-1.2-9.2-2.6c-2.3-1.4-4-3.2-5.1-5.4
	c-1.1-2.2-2-4.3-2.8-6.4C117.4,91.4,117.7,88.2,119,84.1z M114.2,120.2c3.1,3.1,8.4,5.6,16.1,7.6c-6.7-0.7-11.5-2.1-14.1-4.2
	c-2.7-2.1-5-4.4-6.8-6.9c-1.9-2.5-3.4-5.7-4.5-9.6C108,112.7,111.2,117.1,114.2,120.2z"/>
<g>
	<path fill="#E3626E" d="M37.5,30.5c4.1,2,3.7,7-1,15.2c-4.8,8.2-6.6,15.3-5.6,21.5c1,6.2,4.2,10.4,9.7,12.7
		c2.1,0.9,4.5,1.7,7.2,2.3l14.6,2l0,0.3l0.1,0c9.2,0.5,15.2-2.1,17.9-6.8c2.7-4.7,4.6-13.5,5.5-26.2c1-12.7,1.3-23.2,1-31.6
		c-0.3-8.3-5-13.5-14.1-15.6c-9.1-2-16.9-2.4-23.3-1.1c-6.4,1.3-11,5.7-13.8,13.2C32.8,23.8,33.4,28.5,37.5,30.5z"/>
	<path fill="#C1272D" d="M36.3,29.8c4.3,2.1,4,7.5-1.1,16.1c-5.1,8.6-7,16.2-6,22.8c1.1,6.6,4.5,11,10.3,13.4c2.2,1,4.7,1.8,7.6,2.4
		l15.5,1.9l0,0.1l0.1,0c9.8,0.6,16.1-2.1,19-7.1c2.9-5,4.8-14.2,5.9-27.6c1-13.4,1.4-24.5,1-33.3C88.3,9.7,83.3,4.2,73.6,2
		c-9.7-2.2-17.9-2.6-24.8-1.2c-6.9,1.4-11.7,6-14.7,13.9C31.2,22.7,31.9,27.7,36.3,29.8z M75,10c4.5,1.5,7.3,4.7,8.4,9.5
		s-1.2,14.8-6.8,30.2c2.7-17.5,3.5-27.5,2.3-30c-1.2-2.5-2.6-4.4-4.4-5.8c-1.7-1.4-6-3.2-12.8-5.5C66,7.9,70.5,8.5,75,10z M50,76.4
		c-3.1,0.3-6.2,0-9.3-1.1c-3.1-1.1-5.1-3.3-5.8-6.6c-0.8-3.3,0.8-10.3,4.8-21C37.7,60,37.2,66.9,38,68.7c0.8,1.7,1.8,3.1,3,4
		C42.2,73.7,45.2,74.9,50,76.4z M39.1,15c-0.8,5.4-0.9,8.5-0.3,9.3c0.6,0.8,1.3,1.4,2.1,1.9c0.8,0.5,2.7,1.1,5.9,2
		c-1.9,0-3.9-0.2-6-0.8c-2.1-0.6-3.4-1.6-4-3.2C36,22.7,36.8,19.7,39.1,15z"/>
	<polygon fill="#C1272D" points="48.1,82 43.1,89.7 50,88.8 53.8,94.5 58.3,90.1 64.5,95.5 64.6,84.1 	"/>
	<path fill="#FFFFFF" d="M46.7,84.4c0,0,15.2,2.1,18,2.3C64.7,86.6,61.3,88.3,46.7,84.4z"/>
</g>
<polygon fill="#C1272D" points="126.4,131.8 124.3,140.1 131.4,137.1 138,143.3 142.4,137.3 152.9,141.3 149.8,128.5 "/>
<path fill="#FFFFFF" d="M126.7,132.5c0,0,11.6,2.7,24-0.3C150.7,132.2,140.5,138.1,126.7,132.5z"/>
<path fill="#E3626E" d="M226.6,43.8l-21.1,27.7l7.7,14.8l23.3,11.4c0,0,53.8-26.4,48.9-47.1s-23.6-36.5-23.6-36.5l-20.2-0.5
	c0,0,10.4,20.9,11.2,21c0.7,0,18.2,26.7,17.9,27.5c-0.3,0.7-18.1,16.1-18.1,16.1l-3.8-10.4l-11.3-0.2l-8.8-12.9L226.6,43.8z"/>
<path fill="#C1272D" d="M213.3,88.4c4.7,4.4,9.9,7.6,15.6,9.5l16.4,2.2c11.1-0.4,19.8-3.3,26.1-8.7c6.6-5.6,11.5-13.1,14.5-22.5
	c3-9.4,3.5-18.6,1.3-27.6c-2.2-9-6.7-16.5-13.5-22.5c-4.8-4.2-10.2-7.2-16.3-8.7c0,0,0,0,0,0c-0.8-0.2-1.6-0.4-2.4-0.5
	c0.1,0,0.2,0.1,0.2,0.1c-1.9-0.4-3.8-0.7-5.7-0.8c-2.4-0.2-4.7-0.2-7,0c-0.1,0-0.1,0-0.2-0.1c-1.4,0.1-2.6,0.2-3.3,0.3
	c0,0,0.1,0,0.1,0c-5.3,0.7-10.2,2.4-14.8,4.8c-7.3,4-13.2,10-17.6,18c-4.4,8-6.5,17.4-6.3,28.2C200.6,71.2,204.9,80.5,213.3,88.4z
	 M267.2,21.6c5.8,5.2,9.9,10.8,12.2,16.7c2.3,6,2.3,12.6,0.1,19.8c-0.1-10.7-3.3-19.9-9.7-27.6c-6.4-7.7-13.9-12.6-22.3-14.7
	C254.8,14.5,261.4,16.4,267.2,21.6z M235.3,42c4.2-4,9.1-4.6,14.7-2c5.6,2.7,7.8,7.4,6.6,14.3c-1.3,6.8-5.1,10.3-11.6,10.5
	c-6.4,0.2-10.7-2.6-12.9-8.3C230.1,50.9,231.1,46,235.3,42z M225,48.8c0.3,5.4,1.2,9.7,2.6,13.1c1.4,3.4,4,5.9,7.7,7.7
	c3.7,1.8,8.6,2,14.6,0.5c-3.4,3.2-7,4.5-10.7,3.8c-3.8-0.7-6.8-1.8-9-3.4c-2.2-1.6-3.8-3.5-4.7-5.8c-0.9-2.3-1.6-4.5-2.2-6.6
	C222.8,55.9,223.3,52.8,225,48.8z M217.1,84.3c2.8,3.3,7.9,6.3,15.4,9c-6.7-1.3-11.2-3-13.7-5.4c-2.5-2.3-4.6-4.8-6.2-7.4
	c-1.7-2.6-2.9-6-3.7-9.9C211.6,76.4,214.3,81,217.1,84.3z"/>
<polygon fill="#C1272D" points="228.3,97 225.5,105.1 232.8,102.6 238.8,109.4 243.8,103.8 253.9,108.7 251.9,95.6 "/>
<path fill="#FFFFFF" d="M228.5,97.7c0,0,11.4,3.7,24,1.7C252.5,99.4,241.8,104.5,228.5,97.7z"/>
</svg>
