<?xml version="1.0" encoding="utf-8"?>
<!-- Generator: Adobe Illustrator 19.0.0, SVG Export Plug-In . SVG Version: 6.00 Build 0)  -->
<svg version="1.1" id="Layer_1" xmlns="http://www.w3.org/2000/svg" xmlns:xlink="http://www.w3.org/1999/xlink" x="0px" y="0px"
	 viewBox="-343 313.7 250.6 274.3" style="enable-background:new -343 313.7 250.6 274.3;" xml:space="preserve">
<style type="text/css">
	.st0{fill:none;stroke:#FFFFFF;stroke-width:2;stroke-linecap:round;stroke-miterlimit:10;}
	.st1{fill:#E3626E;}
	.st2{fill:#C1272D;}
	.st3{fill:#FFFFFF;}
</style>
<path class="st0" d="M-143.6,399.2c0,0,17.5,33.2-9.7,64.5c-27.3,31.3,41.2,24.8-32.9,112.3"/>
<path class="st0" d="M-221.7,442.3c0,0,20.8,21.6-4.8,48.5s-13.1,73.9,15.2,97.2"/>
<path class="st0" d="M-273.8,394.2c0,0-27.4,12-14.1,46.7c13.3,34.7-16.1,73.3-51.1,84"/>
<path class="st1" d="M-236.7,392.7l-18.7,29.4l8.9,14.1l24.2,9.4c0,0,51.4-30.9,44.7-51.1c-6.7-20.2-26.6-34.3-26.6-34.3l-20.2,1.2
	c0,0,12.2,20,12.9,19.9c0.7,0,20.4,25.1,20.2,25.9c-0.2,0.7-16.7,17.5-16.7,17.5l-4.7-10l-11.2,0.8l-9.8-12.1L-236.7,392.7z"/>
<path class="st2" d="M-246.2,438.3c5,4,10.5,6.7,16.3,8.2l16.5,0.8c11-1.4,19.4-5,25.3-10.9c6.1-6.1,10.3-14,12.5-23.6
	s1.9-18.8-1.1-27.6c-2.9-8.8-8-15.9-15.3-21.2c-5.1-3.8-10.8-6.3-17-7.3c0,0,0,0-0.1,0c-0.8-0.1-1.6-0.2-2.4-0.3
	c0.1,0,0.2,0.1,0.2,0.1c-1.9-0.3-3.8-0.4-5.8-0.3c-2.4,0-4.7,0.2-7,0.6c-0.1,0-0.1,0-0.2,0c-1.4,0.2-2.5,0.4-3.2,0.6h0.1
	c-5.2,1.2-10,3.2-14.4,6.1c-6.9,4.6-12.3,11.1-16,19.4c-3.7,8.4-5,17.9-3.8,28.6C-260.4,422.1-255.3,431.1-246.2,438.3z
	 M-198.2,367.1c6.2,4.7,10.7,9.9,13.5,15.6c2.8,5.8,3.4,12.3,1.8,19.8c-1-10.6-5-19.5-12-26.7c-7.1-7.2-14.9-11.4-23.5-12.8
	C-211.2,361.1-204.5,362.4-198.2,367.1z M-228.3,390.2c3.8-4.3,8.7-5.4,14.5-3.2c5.8,2.2,8.4,6.7,7.7,13.6s-4.2,10.7-10.6,11.5
	c-6.4,0.7-10.9-1.7-13.5-7.2C-232.7,399.4-232.1,394.5-228.3,390.2z M-238,397.8c0.8,5.3,2,9.6,3.7,12.8c1.7,3.2,4.5,5.6,8.4,7
	c3.9,1.5,8.7,1.2,14.6-0.7c-3.1,3.5-6.6,5-10.4,4.7c-3.8-0.4-6.9-1.2-9.2-2.6c-2.3-1.4-4-3.2-5.1-5.4c-1.1-2.2-2-4.3-2.8-6.4
	C-239.6,405.1-239.3,401.9-238,397.8z M-242.8,433.9c3.1,3.1,8.4,5.6,16.1,7.6c-6.7-0.7-11.5-2.1-14.1-4.2c-2.7-2.1-5-4.4-6.8-6.9
	c-1.9-2.5-3.4-5.7-4.5-9.6C-249,426.4-245.8,430.8-242.8,433.9z"/>
<g>
	<path class="st1" d="M-301.5,344.2c4.1,2,3.7,7-1,15.2c-4.8,8.2-6.6,15.3-5.6,21.5c1,6.2,4.2,10.4,9.7,12.7
		c2.1,0.9,4.5,1.7,7.2,2.3l14.6,2v0.3h0.1c9.2,0.5,15.2-2.1,17.9-6.8c2.7-4.7,4.6-13.5,5.5-26.2c1-12.7,1.3-23.2,1-31.6
		c-0.3-8.3-5-13.5-14.1-15.6c-9.1-2-16.9-2.4-23.3-1.1c-6.4,1.3-11,5.7-13.8,13.2C-306.2,337.5-305.6,342.2-301.5,344.2z"/>
	<path class="st2" d="M-302.7,343.5c4.3,2.1,4,7.5-1.1,16.1c-5.1,8.6-7,16.2-6,22.8c1.1,6.6,4.5,11,10.3,13.4c2.2,1,4.7,1.8,7.6,2.4
		l15.5,1.9v0.1h0.1c9.8,0.6,16.1-2.1,19-7.1c2.9-5,4.8-14.2,5.9-27.6c1-13.4,1.4-24.5,1-33.3c-0.3-8.8-5.3-14.3-15-16.5
		c-9.7-2.2-17.9-2.6-24.8-1.2c-6.9,1.4-11.7,6-14.7,13.9C-307.8,336.4-307.1,341.4-302.7,343.5z M-264,323.7
		c4.5,1.5,7.3,4.7,8.4,9.5s-1.2,14.8-6.8,30.2c2.7-17.5,3.5-27.5,2.3-30c-1.2-2.5-2.6-4.4-4.4-5.8c-1.7-1.4-6-3.2-12.8-5.5
		C-273,321.6-268.5,322.2-264,323.7z M-289,390.1c-3.1,0.3-6.2,0-9.3-1.1c-3.1-1.1-5.1-3.3-5.8-6.6c-0.8-3.3,0.8-10.3,4.8-21
		c-2,12.3-2.5,19.2-1.7,21c0.8,1.7,1.8,3.1,3,4C-296.8,387.4-293.8,388.6-289,390.1z M-299.9,328.7c-0.8,5.4-0.9,8.5-0.3,9.3
		c0.6,0.8,1.3,1.4,2.1,1.9c0.8,0.5,2.7,1.1,5.9,2c-1.9,0-3.9-0.2-6-0.8c-2.1-0.6-3.4-1.6-4-3.2C-303,336.4-302.2,333.4-299.9,328.7z
		"/>
	<polygon class="st2" points="-290.9,395.7 -295.9,403.4 -289,402.5 -285.2,408.2 -280.7,403.8 -274.5,409.2 -274.4,397.8 	"/>
	<path class="st3" d="M-292.3,398.1c0,0,15.2,2.1,18,2.3C-274.3,400.3-277.7,402-292.3,398.1z"/>
</g>
<polygon class="st2" points="-230.6,445.5 -232.7,453.8 -225.6,450.8 -219,457 -214.6,451 -204.1,455 -207.2,442.2 "/>
<path class="st3" d="M-230.3,446.2c0,0,11.6,2.7,24-0.3C-206.3,445.9-216.5,451.8-230.3,446.2z"/>
<path class="st1" d="M-154.4,357.5l-21.1,27.7l7.7,14.8l23.3,11.4c0,0,53.8-26.4,48.9-47.1s-23.6-36.5-23.6-36.5l-20.2-0.5
	c0,0,10.4,20.9,11.2,21c0.7,0,18.2,26.7,17.9,27.5c-0.3,0.7-18.1,16.1-18.1,16.1l-3.8-10.4l-11.3-0.2l-8.8-12.9L-154.4,357.5z"/>
<path class="st2" d="M-167.7,402.1c4.7,4.4,9.9,7.6,15.6,9.5l16.4,2.2c11.1-0.4,19.8-3.3,26.1-8.7c6.6-5.6,11.5-13.1,14.5-22.5
	s3.5-18.6,1.3-27.6s-6.7-16.5-13.5-22.5c-4.8-4.2-10.2-7.2-16.3-8.7l0,0c-0.8-0.2-1.6-0.4-2.4-0.5c0.1,0,0.2,0.1,0.2,0.1
	c-1.9-0.4-3.8-0.7-5.7-0.8c-2.4-0.2-4.7-0.2-7,0c-0.1,0-0.1,0-0.2-0.1c-1.4,0.1-2.6,0.2-3.3,0.3h0.1c-5.3,0.7-10.2,2.4-14.8,4.8
	c-7.3,4-13.2,10-17.6,18c-4.4,8-6.5,17.4-6.3,28.2C-180.4,384.9-176.1,394.2-167.7,402.1z M-113.8,335.3c5.8,5.2,9.9,10.8,12.2,16.7
	c2.3,6,2.3,12.6,0.1,19.8c-0.1-10.7-3.3-19.9-9.7-27.6c-6.4-7.7-13.9-12.6-22.3-14.7C-126.2,328.2-119.6,330.1-113.8,335.3z
	 M-145.7,355.7c4.2-4,9.1-4.6,14.7-2c5.6,2.7,7.8,7.4,6.6,14.3c-1.3,6.8-5.1,10.3-11.6,10.5c-6.4,0.2-10.7-2.6-12.9-8.3
	C-150.9,364.6-149.9,359.7-145.7,355.7z M-156,362.5c0.3,5.4,1.2,9.7,2.6,13.1c1.4,3.4,4,5.9,7.7,7.7c3.7,1.8,8.6,2,14.6,0.5
	c-3.4,3.2-7,4.5-10.7,3.8c-3.8-0.7-6.8-1.8-9-3.4s-3.8-3.5-4.7-5.8c-0.9-2.3-1.6-4.5-2.2-6.6C-158.2,369.6-157.7,366.5-156,362.5z
	 M-163.9,398c2.8,3.3,7.9,6.3,15.4,9c-6.7-1.3-11.2-3-13.7-5.4c-2.5-2.3-4.6-4.8-6.2-7.4c-1.7-2.6-2.9-6-3.7-9.9
	C-169.4,390.1-166.7,394.7-163.9,398z"/>
<polygon class="st2" points="-152.7,410.7 -155.5,418.8 -148.2,416.3 -142.2,423.1 -137.2,417.5 -127.1,422.4 -129.1,409.3 "/>
<path class="st3" d="M-152.5,411.4c0,0,11.4,3.7,24,1.7C-128.5,413.1-139.2,418.2-152.5,411.4z"/>
</svg>
