<?xml version="1.0" encoding="utf-8"?>
<!-- Generator: Adobe Illustrator 19.0.0, SVG Export Plug-In . SVG Version: 6.00 Build 0)  -->
<svg version="1.1" id="Layer_1" xmlns="http://www.w3.org/2000/svg" xmlns:xlink="http://www.w3.org/1999/xlink" x="0px" y="0px"
	 viewBox="-161 259.7 288.5 274.3" style="enable-background:new -161 259.7 288.5 274.3;" xml:space="preserve">
<style type="text/css">
	.st0{fill:none;stroke:#FFFFFF;stroke-width:2;stroke-linecap:round;stroke-miterlimit:10;}
	.st1{fill:#FFFFFF;}
	.st2{fill:#C1272D;}
	.st3{fill:#E3626E;}
</style>
<path class="st0" d="M75.6,349.4c0,0,16.9,32-9.4,62.2C39.9,441.8,106,435.6,34.5,520"/>
<path class="st0" d="M-22.9,391c0,0,20.1,20.8-4.6,46.8s-12.6,71.3,14.7,93.8"/>
<path class="st0" d="M-90.6,344.6c0,0-26.4,11.6-13.6,45.1s-15.5,70.7-49.3,81"/>
<path class="st1" d="M-31.2,394.7c0,0,11.2,2.6,23.2-0.3C-8.1,394.5-17.9,400.1-31.2,394.7z"/>
<polygon class="st2" points="66.8,360.5 64.1,368.3 71.1,365.9 76.9,372.5 81.8,367 91.5,371.8 89.6,359.1 "/>
<path class="st1" d="M67,361.2c0,0,11,3.6,23.2,1.6C90.1,362.8,79.8,367.7,67,361.2z"/>
<g>
	<path class="st3" d="M-151.2,336.6c0,0-0.6,13.5,20.8,14.1s17.2-11.7,17.2-11.7l10.4-1.8c0,0-0.8,9.7,6.3,13.1
		c7.2,3.4,18.2,1.6,18.2,1.6l3.7-42.3c0,0,2.5-8-7.4-22.7s-28.2-6.7-28.2-6.7l9.8,18.4c0,0,9.2,23.9,6.7,28.2s-17.8,3.1-17.8,3.1
		l-4.9-6.1l-1.2-15.3C-117.5,308.4-153.1,311.4-151.2,336.6z"/>
	<path class="st0" d="M-119.9,340.9c0,0-1.6,38-14.4,62.3c-37.1,70.1,43.8,65.2,15.6,122.9"/>
	<polygon class="st2" points="-144,348.7 -148.4,358.3 -139.1,356.2 -132.7,365.2 -125.9,359 -114.2,366.2 -115,350 	"/>
	<path class="st1" d="M-143.8,349.7c0,0,13.4,5.9,29,5C-114.8,354.7-128.5,359.6-143.8,349.7z"/>
	<path class="st2" d="M-65.9,323c-2.1-16.5-5.5-28.1-10.1-34.8c-4.6-6.7-9.6-11-15.1-12.9c-5.5-1.9-11.5-2.9-18.1-2.9
		s-13.2,2.4-19.7,7.2c-6.6,4.8-13,14.6-19.4,29.5c-6.4,14.9-7.9,25.6-4.5,32.2c2.3,4.5,5.3,7.6,9,9.5c4.2,0.9,9.6,2.1,15.1,2.9
		c1.7-0.4,3.9-0.3,6.8,0.3c5.4,1.1,8.9-0.8,10.6-5.5c1.7-4.7,3.3-7.1,4.8-7.2c1.6-0.1,2.6,1.8,3,5.8c0.4,4,3.7,6.8,9.8,8.5
		c6.1,1.7,12.8,0.8,20-2.6C-66.4,349.5-63.8,339.5-65.9,323z M-147.5,341.5c-2.4-3.5-3.4-6.5-3-9.2c0.4-2.6,1.2-4.7,2.3-6.1
		c-1.5,5.6-1,10,1.5,13.2c2.5,3.2,6.3,6.2,11.6,9C-141,347.3-145.1,345-147.5,341.5z M-115.8,334.5c-3.9-0.4-6.8-2.1-8.5-5.2
		c-1.7-3.1,0.3-8,6.1-14.9c0.7,1.9,0.4,4.5-1.1,8.1c-1.4,3.5-0.7,5.9,2,7.3c2.7,1.3,6.3,2.2,10.7,2.5
		C-108.8,334.2-111.9,334.9-115.8,334.5z M-109,326.4c-6-0.8-7.1-3.8-3.3-9.2c3.8-5.3,6.8-5,9,1.1C-101.1,324.5-103,327.1-109,326.4
		z M-96.4,350.3c-1.9-1.1-2.9-2.7-3.2-5c-0.2-2.3-0.2-4,0-5.2c0.3,2.2,1.1,4.3,2.2,6.2c1.2,2,3.6,3.2,7.3,3.7
		C-92.4,351.3-94.6,351.4-96.4,350.3z M-77.8,314.2c-2.3,0.8-4.2-1.9-5.6-8.2c-1.4-6.3-3.6-11-6.4-14.2c-2.8-3.2-7.6-6.3-14.4-9.2
		c0.7-2.2,4.3-1.8,10.7,1.2c6.5,3,10.9,7.2,13.2,12.5C-77.8,301.8-77,307.7-77.8,314.2z"/>
</g>
<g>
	<path class="st3" d="M-24.6,327.5c0,0,3.1,36.2,37.4,27.6s38-45.4,38-45.4s-1.8-19.6-12.9-26.4S6.7,268-0.7,277.2
		c-7.4,9.2,24.5,17.2,24.5,17.2l6.1,25.1c0,0-13.5,11.7-23.3,9.2c-9.8-2.5-17.2-16.6-17.2-16.6L-24.6,327.5z"/>
	<path class="st0" d="M16.5,344.6c0,0-25.8,46.6-4.3,63.8c39.8,31.8-39.9,53.3,5.5,123.9"/>
	<polygon class="st2" points="-6,356.2 -8.9,366.3 -0.1,362.8 7.8,370.6 13.5,363.4 26.1,368.7 22.7,352.8 	"/>
	<path class="st1" d="M-5.7,357.1c0,0,14.2,3.7,29.4,0.3C23.8,357.4,11,364.4-5.7,357.1z"/>
	<path class="st2" d="M-12.9,352.4c8.4,5.6,17.2,7.7,26.3,6.3l0.2,0.1c4.7-0.7,9.8-2,15.1-4.1l0.3-0.7c5.6-2.4,10.3-5.4,14.1-9
		c6.1-5.8,9.9-13.5,11.4-23.2c1.5-9.7,0.3-18.5-3.5-26.4c-3.8-7.9-9.6-14-17.4-18.3c-7.8-4.3-16.4-5.9-25.7-4.8
		c-9.4,1.1-17.3,4.1-23.8,9.1c-6.5,5-11.2,11.5-14,19.6c-2.9,8.1-3.2,17.1-1,26.9C-28.8,337.8-22.7,346-12.9,352.4z M27.6,280.9
		c6.7,3.7,11.7,8.2,15.1,13.2c3.4,5.1,4.6,11.1,3.8,18.2c-2-9.8-7-17.7-14.7-23.6c-7.8-6-16-9.2-24.7-9.6
		C14.1,276.5,21,277.1,27.6,280.9z M2.3,303.8c4.5-3.7,8.9-4.3,13.1-1.7c4.2,2.5,6.4,6.3,6.4,11.3c0.1,5-2.8,8.6-8.5,10.7
		c-5.8,2.2-10.1,0.3-13.2-5.8C-2.9,312.3-2.2,307.5,2.3,303.8z M-6.9,318.6c1.6,4.2,3.4,7.4,5.3,9.6c1.9,2.3,4.5,3.6,7.7,4
		c3.2,0.4,6.8-0.8,10.8-3.6c-1.7,3.4-4,5.4-6.9,5.9C7,335,4.5,335,2.5,334.3c-2-0.6-3.7-1.7-4.9-3.3c-1.2-1.5-2.4-3.1-3.3-4.7
		C-6.7,324.8-7.1,322.2-6.9,318.6z M-10,347.1c3.4,2.6,9,4.4,16.8,5.6c-6.8,0-11.6-0.9-14.5-2.5c-2.9-1.7-5.4-3.6-7.5-5.8
		c-2.1-2.1-3.9-5-5.5-8.5C-17,340.8-13.4,344.5-10,347.1z"/>
</g>
<g>
	<path class="st3" d="M58.1,285.8c0,0-20.2,22.7,4.9,30c25.1,7.4,25.1,15.9,25.1,15.9l-6.7,1.2l-8.3-7.4l-22.3,2.5
		c0,0-6.7,27.6,28.2,28.2s39.9-20.8,39.9-20.8s8.1-22.4-17.4-25.3c-15.1-2.3-27.3-12.7-15.1-16.4c12.3-3.7,20.2,14.1,27,8
		c6.7-6.1,4.9-27-23.3-22.1C61.8,284.5,58.1,285.8,58.1,285.8z"/>
	<path class="st0" d="M90.6,345.3c0,0-26.4,26.4-12.9,59.5c18.2,44.7-42.3,49.7,6.1,101.2"/>
	<polygon class="st2" points="68.1,356.8 65.2,367 74.1,363.4 81.9,371.2 87.6,364.1 100.2,369.3 96.9,353.5 	"/>
	<path class="st1" d="M68.4,357.7c0,0,14.2,3.7,29.4,0.3C97.9,358,85.1,365,68.4,357.7z"/>
	<path class="st2" d="M79.7,358.7c8.6-1.1,24.1-3.8,34.9-9.6c3.1-2.5,5.1-5.3,6.1-8.5c2-6.4,2.2-12.4,0.5-17.9
		c-1.7-5.5-4.3-9.4-7.8-11.7c-3.5-2.3-8.8-3.6-15.9-4c-7.1-0.4-11.4-1.7-13-4.1c-1.6-2.3-1.4-4.2,0.6-5.7c2-1.5,3.6-0.5,4.7,3.1
		c1.1,3.5,4.4,5.4,9.9,5.8c5.5,0.3,9.8-0.4,12.9-2.3c3.1-1.8,4.9-4.7,5.3-8.6c0.4-3.9-0.8-7.7-3.6-11.2c-2.8-3.6-7.7-6.1-14.6-7.5
		c-6.5-1.3-14.5-1.4-24-0.1c-6.3,0.8-13.2,3.1-17.2,5.4c-2.5,1.5-4.6,3.3-6.2,5.4c-4.4,5.6-5.6,11.6-3.5,18.2
		c2,6.6,6.1,10.5,12,11.7c6,1.2,10.9,2.6,14.9,4.1c4,1.6,6.6,2.8,7.9,3.8c1.3,1,1.8,2.2,1.4,3.8c-0.4,1.6-1.7,2.2-4,1.9
		c-2.3-0.3-3.5-1.5-3.7-3.7c-0.2-2.2-2.6-4.3-7.1-6.4c-4.5-2-9.3-2.2-14.4-0.4c-5.1,1.8-7.8,5.6-8.3,11.5
		c-0.4,5.9,0.8,10.8,3.9,14.8c3,4,7.7,7.2,14.1,9.6C69.8,357.7,74.5,358.5,79.7,358.7z M107.7,283.5c3.7,2.4,5.8,4.8,6.4,7.3
		c0.6,2.5,0.1,5.3-1.5,8.4c-0.4-5.7-2.5-9.8-6-12.5c-3.6-2.6-7.7-4.8-12.5-6.5C99.4,280,103.9,281.1,107.7,283.5z M55.8,308.4
		c-2.8-3.4-4.1-6.4-3.9-9c0.2-2.7,0.7-4.7,1.7-6.3c-1.2,4.7-0.5,9,2.1,12.9c2.6,3.9,7,6.8,13.1,8.6
		C62.9,313.8,58.6,311.7,55.8,308.4z M80.2,310.5c-1.7-1.5-2.7-2.8-3.1-4.1c-0.4-1.2-0.6-3.2-0.6-5.8c0-2.7,1.3-4.7,3.9-6.2
		c-1.9,3.2-2.3,6.1-1.4,8.8c0.9,2.7,2.4,4.6,4.5,5.8c2.1,1.2,4.8,2,8.1,2.4l5.4,1c6.2-0.4,11,1.3,14.4,5.1c3.4,3.8,5.2,7.4,5.4,10.8
		c0.2,3.4-0.7,6.9-2.7,10.5c0.3-7.4-1.1-13.2-4.4-17.3c-3.2-4.1-7.5-6.6-12.8-7.5c-5.3-0.9-9-1.4-11-1.3
		C83.7,312.7,81.9,312,80.2,310.5z M73,325.6c-0.1,1.9,0.3,3.8,1.4,5.7c1.1,1.8,2.6,3.3,4.7,4.4c2.1,1.1,5.3,0.8,9.5-0.7
		c-1.5,3.3-3.7,4.9-6.6,4.9c-2.9,0-5.3-0.7-7-2.3c-1.7-1.5-2.7-2.9-3.1-4.1c-0.4-1.2-0.6-2.6-0.7-4.3
		C71.2,327.5,71.8,326.3,73,325.6z M55.7,346c-2.8-3.4-4.1-6.4-3.9-9c0.2-2.7,0.7-4.7,1.7-6.3c-1.2,4.7-0.5,9,2.1,12.9
		c2.6,3.9,7,6.8,13.1,8.6C62.8,351.5,58.5,349.4,55.7,346z"/>
</g>
<g>
	<path class="st2" d="M-70.4,285.4c11.2-5.3,19-10.8,31.1-0.6c12.1,10.2,26.3,0.6,31.1-6.7c5.7-8.8-0.8-18.8-12.7-10.2
		c-11,8-21.3,3.2-31.5-4.1c-5.7-4.1-19.6-3-27.8,6.7C-86.9,278.5-77.5,288.8-70.4,285.4z"/>
	<path class="st3" d="M-71.6,351h-15.9c0,0-14.1-16.4,0.9-37.8c15-21.4,19.1-33.6,19.1-33.6l12.5-0.2l14.7,26.9l9.2-0.6l3.4-24.2
		c0,0,13.2-4,15.6,8.2S-14,321-14,321l1.2,28.2c0,0-6.7,10.4-16.6,9.2s-18.4-6.1-18.4-6.1s-6.1-8.6-8.6-17.8s-6.1,15-6.1,15
		L-71.6,351z"/>
	<path class="st0" d="M-23.6,347.9c0,0-37.6,23.4-40.7,62.6c-4,50.8,40.5,82.2-4.4,119.5"/>
	<polygon class="st2" points="-48.2,353.5 -53.5,362.7 -44.1,361.4 -38.4,370.9 -31.1,365.4 -20.2,373.6 -19.5,357.4 	"/>
	<path class="st1" d="M-48.1,354.5c0,0,12.8,7.1,28.5,7.6C-19.7,362.1-33.7,365.7-48.1,354.5z"/>
	<path class="st2" d="M-59,344c-0.6-7.1-0.2-10.3,1.3-9.7c1.5,0.6,3.1,4.3,4.7,11c0.9,3.7,2.8,6.6,5.6,8.6
		c5.1,2.1,14.4,4.7,29.3,4.4c6.1-0.3,9.4-11.3,9.9-33.1c0.5-21.8-0.4-34.9-2.5-39.3c-2.2-4.4-7.4-7.1-15.5-8.1
		c-8.2-1-12.2,4.2-12,15.5c0.2,11.3-0.8,14-2.7,8.1c-2-5.9-4.2-11.4-6.7-16.3c-2.5-4.9-6.5-8.2-11.9-9.8c-5.4-1.7-11-1.7-16.8-0.1
		c-5.8,1.6-11.2,14.5-16.2,38.5c-5,24-3.5,36.7,4.3,38c7.9,1.3,14.9,2.2,21,2.4C-61.1,354.5-58.4,351.1-59,344z M-15.6,346.8
		c-0.2,1.3-0.4,2.5-0.6,3.4c-0.3,0.9-0.7,1.6-1.2,2c-0.6,0.5-1.4,0.7-2.3,0.9c-1,0.1-2.2,0-3.5-0.4c1.7-0.3,3-0.7,3.9-1.2
		c0.9-0.6,1.6-1.6,2.2-3.2c0.6-1.5,1.1-3.4,1.4-5.6C-15.5,344-15.5,345.4-15.6,346.8z M-15.8,286.3c1.9,2.8,3,6.1,3.3,9.7
		c0.3,3.7-0.3,6.3-1.6,7.9c-0.9-6.7-2.3-11.6-4.1-14.8c-1.9-3.2-5-5.7-9.5-7.6C-21.7,281.8-17.7,283.4-15.8,286.3z M-83.4,347.8
		c-1.7-0.2-3-0.7-3.9-1.4c-1-0.7-1.9-1.7-2.8-3.1c-0.9-1.4-1.3-4.3-1.1-8.8c0.2-4.5,1.7-11.7,4.7-21.6c-2.4,14.5-3,23.4-1.9,26.6
		c1.1,3.2,2.5,5.2,4.2,5.9c1.7,0.7,3.9,1.2,6.8,1.6C-79.8,347.8-81.7,348-83.4,347.8z M-42,352.1c-1.5-0.6-2.6-1.3-3.4-1.9
		c-0.8-0.6-1.7-2-2.7-4.3c-1-2.2-1.6-3.7-1.8-4.5c-0.2-0.7-0.7-2.6-1.4-5.5c2.7,5,4.6,8.3,5.5,9.7c0.9,1.4,2,2.6,3.2,3.4
		c1.2,0.8,3.3,2,6.1,3.7C-38.8,353-40.6,352.8-42,352.1z M-67.5,279.4c6.3,0.7,10.6,2.9,12.8,6.5c2.2,3.6,4.4,8,6.7,13.3
		c2.3,5.2,3.8,8.5,4.7,9.7c0.8,1.2,2,2.2,3.5,2.9c1.5,0.7,3.1,0.1,4.9-1.9c-0.9,2.9-2.3,4.4-4.1,4.6c-1.9,0.2-3.5-0.5-5.1-2
		c-1.5-1.5-3.5-5.1-6-10.8c-2.5-5.7-4.7-10.2-6.7-13.5C-59.1,284.9-62.6,282-67.5,279.4z"/>
	<path class="st3" d="M-21.8,271.8c0,0,6.3-7.5,11-4.8s2.6,7.8,2.6,7.8s-1.1-6.3-4.4-6S-21.8,271.8-21.8,271.8z"/>
	<path class="st3" d="M-57,264.6c0,0,8.4,7.1,14.1,7.7C-42.9,272.2-51.5,265-57,264.6z"/>
	<path class="st3" d="M-75.6,268.7c0,0-6.3,4.8-4.4,10.6c0,0,0.8-1.4,3.1-1.2C-77,278.1-80.3,275.5-75.6,268.7z"/>
</g>
</svg>
