<?xml version="1.0" encoding="utf-8"?>
<!-- Generator: Adobe Illustrator 18.1.1, SVG Export Plug-In . SVG Version: 6.00 Build 0)  -->
<!DOCTYPE svg PUBLIC "-//W3C//DTD SVG 1.1//EN" "http://www.w3.org/Graphics/SVG/1.1/DTD/svg11.dtd">
<svg version="1.1" id="Layer_1" xmlns="http://www.w3.org/2000/svg" xmlns:xlink="http://www.w3.org/1999/xlink" x="0px" y="0px"
	 viewBox="0 248.7 612 296.6" enable-background="new 0 248.7 612 296.6" xml:space="preserve">
<g>
	<path fill="#515354" d="M546.2,335.6V363h4.2v9c0,0,4.6,9.2,16,0v-18.6c0,0,3.4-0.6,3.4-4.6c0-4-4-2-4-2v-11h-19.6V335.6z"/>
	<polygon fill="#515354" points="545.2,532 544,537.4 539.4,537.4 539.4,532 	"/>
	<path fill="#515354" d="M539.4,537.4h4.6c0,0,1.8,5.8-4.2,6.2H532c0,0-1.8-3.8,3-4C534.8,539.8,539,539,539.4,537.4z"/>
	<polygon fill="#515354" points="566.2,532 567.2,537.4 572,537.4 572,532 	"/>
	<path fill="#515354" d="M572,537.4h-4.6c0,0-1.8,5.8,4.2,6.2h7.8c0,0,1.8-3.8-3-4C576.4,539.8,572.4,539,572,537.4z"/>
	<path fill="#515354" d="M560.6,354.8H547c0,0,2.4-4.2,6.8-4.2C558.2,350.6,560.6,354.8,560.6,354.8z"/>
	<polygon fill="#515354" points="540.6,437.2 538.8,532 545.6,532 558.8,454.4 566.2,532 572.6,532 575,436.8 	"/>
	<path fill="#515354" d="M531.6,372.8c0,0,17-9.6,51,0l-6.4,64c0,0-14,1-36.8-0.2L531.6,372.8z"/>
	<polygon fill="#515354" points="545.2,532 544,537.4 539.4,537.4 539.4,532 	"/>
	<path fill="#515354" d="M539.4,537.4h4.6c0,0,1.8,5.8-4.2,6.2H532c0,0-1.8-3.8,3-4C534.8,539.8,539,539,539.4,537.4z"/>
	<polygon fill="#515354" points="566.2,532 567.2,537.4 572,537.4 572,532 	"/>
	<path fill="#515354" d="M572,537.4h-4.6c0,0-1.8,5.8,4.2,6.2h7.8c0,0,1.8-3.8-3-4C576.4,539.8,572.4,539,572,537.4z"/>
	<polygon fill="#515354" points="538.8,508 549.6,508 544.2,538.8 538.8,538.8 	"/>
	<polygon fill="#515354" points="573.2,508.8 563.4,508.8 566.4,538 572.6,538 	"/>
	<path fill="#515354" d="M548.6,373.6l8.8,14.6l8.6-14.6h9.6c0,0-2.6-6.8-12-7.6c-9.4-0.8-19.8-1.2-23.2,7.6H548.6z"/>
	<path fill="#515354" d="M546.2,335.6V363h4.2v9c0,0,4.6,9.2,16,0v-18.6c0,0,3.4-0.6,3.4-4.6c0-4-4-2-4-2v-11h-19.6V335.6z"/>
	<path fill="#515354" d="M549,372l8.4,14.6l7.8-14.6C565,372,558,363.2,549,372z"/>
	<path fill="#515354" d="M507.4,387.6c0,0-15-3.4-21-15.8c0,0-1.2-3.6-3-3.4c-1.6,0.2-0.8,3.2-0.8,3.2s-1.6-7.6-3.8-7.4
		c-2.2,0.2-7.6,2.8-0.4,15c0,0,16.6,20.6,31,17.4C509.4,396.6,518.6,388,507.4,387.6z"/>
	<path fill="#515354" d="M531.8,372.4c0,0-7.8,12-22,14.4c0,0-1.6,8.6,2.6,10.8c0,0,17.4-3,24.2-11L531.8,372.4z"/>
	<path fill="#515354" d="M603.2,314.8c0.4-15.6-6.4-15-8.6-14s0.4,9.2,0.4,9.2s-0.8-3.6-2.6-2.8c-1.6,0.8-1,5-1,5s0.8,7,5.4,6.8
		C602,318.6,603.2,314.8,603.2,314.8z"/>
	<polygon fill="#515354" points="575.6,373.2 590.8,354 601.8,359.8 576.8,392.2 578.2,380 	"/>
	<polygon fill="#515354" points="590.8,354 597.2,345.2 595.4,318.4 602,316.6 606.4,348.8 600.8,359.4 	"/>
	<path fill="#515354" d="M564,339v11.6l1.6-0.2l0.2-4l1.4-0.4v-13.6c0,0-13.2-13-21.2,3c0,0-3.2,2-2.8,2.4
		c0.6,0.4,11.2-2.4,11.2-2.4l-2.4,2.4l11.8-1.6L564,339z"/>
	<path fill="#515354" d="M539.4,436.8c-0.8,1.6-2.6,102.4-2.6,102.4l7.6-0.6l13.8-69.8l7,69.8l9.4,0.6l0.6-102.4H539.4z"/>
</g>
<g>
	<path fill="#515354" d="M322.3,332.2v27.4h4.2v9c0,0,4.6,9.2,16,0V350c0,0,3.4-0.6,3.4-4.6c0-4-4-2-4-2v-11h-19.6V332.2z"/>
	<polygon fill="#515354" points="346.3,528.6 347.5,533.8 352.1,533.8 352.1,528.6 	"/>
	<polygon fill="#515354" points="325.3,528.6 324.1,533.8 319.5,533.8 319.5,528.6 	"/>
	<path fill="#515354" d="M336.5,351.4h-13.6c0,0,2.4-4.2,6.8-4.2C334.1,347,336.5,351.4,336.5,351.4z"/>
	<path fill="#515354" d="M336.5,351.4l0.6,0.8c0,0-6,1-7.8-0.8c0,0-4.6,1-6.8,0.8l0.6-1C323.1,351.2,332.3,350.2,336.5,351.4z"/>
	<polygon fill="#515354" points="350.7,433.6 352.7,528.6 345.9,528.6 332.7,450.8 325.3,528.6 318.9,528.6 316.3,433.2 	"/>
	<path fill="#515354" d="M359.7,369.2c0,0-17-9.6-51,0l6.4,64.2c0,0,14,1,36.8-0.2L359.7,369.2z"/>
	<polygon fill="#515354" points="346.3,528.6 347.5,533.8 352.1,533.8 352.1,528.6 	"/>
	<path fill="#515354" d="M352.1,533.8h-4.6c0,0-1.8,5.8,4.2,6.2h7.8c0,0,1.8-3.8-3-4C356.5,536.2,352.5,535.4,352.1,533.8z"/>
	<polygon fill="#515354" points="325.3,528.6 324.1,533.8 319.5,533.8 319.5,528.6 	"/>
	<path fill="#515354" d="M319.5,533.8h4.6c0,0,1.8,5.8-4.2,6.2h-7.8c0,0-1.8-3.8,3-4C315.1,536.2,319.1,535.4,319.5,533.8z"/>
	<polygon fill="#515354" points="352.7,504.4 341.7,504.4 347.1,535.2 352.7,535.2 	"/>
	<polygon fill="#515354" points="318.3,505.2 327.9,505.2 324.9,534.6 318.9,534.4 	"/>
	<path fill="#515354" d="M342.9,370.2l-8.8,14.6l-8.6-14.6h-9.6c0,0,2.6-6.8,12-7.6c9.4-0.8,19.8-1.2,23.2,7.6H342.9z"/>
	<path fill="#515354" d="M322.3,332.2v27.4h4.2v9c0,0,4.6,9.2,16,0V350c0,0,3.4-0.6,3.4-4.6c0-4-4-2-4-2v-11h-19.6V332.2z"/>
	<path fill="#515354" d="M342.5,368.4l-8.4,14.6l-7.8-14.6C326.3,368.4,333.3,359.6,342.5,368.4z"/>
	<path fill="#515354" d="M384.1,384c0,0,15-3.4,21-15.8c0,0,1.2-3.6,3-3.4c1.6,0.2,0.8,3.2,0.8,3.2s1.6-7.6,3.8-7.4s7.6,2.8,0.4,15
		c0,0-16.6,20.6-31,17.4C382.1,393.2,372.9,384.6,384.1,384z"/>
	<path fill="#515354" d="M359.7,369c0,0,7.8,12,22,14.4c0,0,1.6,8.6-2.6,10.8c0,0-17.4-3-24.2-11L359.7,369z"/>
	<path fill="#515354" d="M378.1,394c0,0,3.8-5.6,1.8-11l3.8,0.6c0,0,0,9-2.8,10.8L378.1,394z"/>
	<path fill="#515354" d="M282.5,380c0,0-14.4-5.8-18.2-19c0,0-0.6-3.8-2.4-3.8c-1.8,0-1.2,3.2-1.2,3.2s-0.2-7.8-2.4-8
		c-2.2-0.2-8,1.6-2.8,14.8c0,0,13,23,27.6,22.4C282.9,389.4,293.3,382.4,282.5,380z"/>
	<path fill="#515354" d="M309.1,369.2c0,0-9.8,10.6-24.2,10.6c0,0-3,8.2,0.8,11c0,0,17.6-0.2,25.8-6.8L309.1,369.2z"/>
	<path fill="#515354" d="M286.7,390.8c0,0-2.8-6.2,0-11.2h-3.8c0,0-1.6,8.8,1,11.2H286.7z"/>
	<path fill="#515354" d="M341.9,343l-1.4-8.6l-18.4-1c0,0-1.4-6.6,11.2-6.4c12.6,0,10.2,15.6,10.2,15.6"/>
	<polygon fill="#515354" points="350.7,433.6 355.9,534.6 345.9,535.2 333.3,463.8 327.9,534.6 315.7,534.6 315.1,433.4 	"/>
</g>
<g>
	<polygon fill="#515354" points="277.1,355.6 286.7,330.6 300.1,333 284.7,375.4 282.1,362 	"/>
	<polygon fill="#515354" points="286.7,330.6 290.5,319.2 279.5,291.6 285.9,287.6 301.3,319.8 298.9,333 	"/>
	<path fill="#515354" d="M237.1,284.2c4.8-16.6,11.6-13.8,13.6-12c2,1.8-3.6,9.4-3.6,9.4s2-3.4,3.6-2c1.6,1.4-0.6,5.4-0.6,5.4
		s-3,7-8,5.2C237.1,288.6,237.1,284.2,237.1,284.2z"/>
	<polygon fill="#515354" points="246.5,354.8 237.1,329.6 223.5,332 238.9,374.4 241.5,361 	"/>
	<polygon fill="#515354" points="237.1,329.6 233.1,318.2 244.1,290.6 237.7,286.6 222.3,319 224.7,332 	"/>
	<path fill="#515354" d="M249.7,316.6v30h4.6v10c0,0,5.2,10,17.8,0V336c0,0,3.8-0.8,3.8-5.2s-4.4-2.2-4.4-2.2v-12H249.7z"/>
	<polygon fill="#515354" points="276.3,532.6 277.5,538.6 282.7,538.6 282.7,532.6 	"/>
	<path fill="#515354" d="M282.7,538.6h-5.2c0,0-2,6.4,4.6,6.8h8.6c0,0,2-4-3.2-4.4C287.5,541,283.1,540.2,282.7,538.6z"/>
	<polygon fill="#515354" points="253.1,532.6 251.9,538.6 246.9,538.6 246.9,532.6 	"/>
	<path fill="#515354" d="M246.9,538.6h5.2c0,0,2,6.4-4.6,6.8h-8.6c0,0-2-4,3.2-4.4C241.9,541,246.3,540.2,246.9,538.6z"/>
	<path fill="#515354" d="M265.5,337.6h-15c0,0,2.6-4.6,7.6-4.6C262.9,333,265.5,337.6,265.5,337.6z"/>
	<path fill="#515354" d="M265.5,337.6l0.8,0.8c0,0-6.6,1.2-8.6-0.8c0,0-5,1-7.6,0.8l0.6-1C250.7,337.4,260.9,336.4,265.5,337.6z"/>
	<polygon fill="#515354" points="281.3,428.4 283.3,532.6 275.9,532.6 261.3,447.2 253.1,532.6 246.1,532.6 243.3,427.8 	"/>
	<path fill="#515354" d="M291.1,357.2c0,0-18.6-10.4-56.2,0l7,70.6c0,0,15.4,1,40.6-0.2L291.1,357.2z"/>
	<polygon fill="#515354" points="276.3,532.6 277.5,538.6 282.7,538.6 282.7,532.6 	"/>
	<path fill="#515354" d="M282.7,538.6h-5.2c0,0-2,6.4,4.6,6.8h8.6c0,0,2-4-3.2-4.4C287.5,541,283.1,540.2,282.7,538.6z"/>
	<polygon fill="#515354" points="253.1,532.6 251.9,538.6 246.9,538.6 246.9,532.6 	"/>
	<path fill="#515354" d="M246.9,538.6h5.2c0,0,2,6.4-4.6,6.8h-8.6c0,0-2-4,3.2-4.4C241.9,541,246.3,540.2,246.9,538.6z"/>
	<polygon fill="#515354" points="283.3,506.2 271.3,506.2 277.3,540 283.3,540 	"/>
	<polygon fill="#515354" points="245.3,507 256.1,507 252.7,539.2 246.1,539.2 	"/>
	<path fill="#515354" d="M249.7,316.6v30h4.6v10c0,0,5.2,10,17.8,0V336c0,0,3.8-0.8,3.8-5.2s-4.4-2.2-4.4-2.2v-12H249.7z"/>
	<path fill="#515354" d="M272.1,356.6l-9.2,16l-8.4-16C254.3,356.6,262.1,346.8,272.1,356.6z"/>
	<path fill="#515354" d="M288.9,285.2c-4.8-16.6-11.6-13.8-13.6-12c-2,1.8,3.6,9.4,3.6,9.4s-2-3.4-3.6-2s0.6,5.4,0.6,5.4s3,7,8,5.2
		C288.7,289.6,288.9,285.2,288.9,285.2z"/>
	<path fill="#515354" d="M270.5,330.6l0.4-10.8l-21.2-1c0,0-1.6-7.6,12.8-7.4c14.4,0,11.8,18,11.8,18"/>
	<polygon fill="#515354" points="281.5,429.2 284.7,542.2 276.3,542.2 260.9,451.8 254.1,541.2 244.7,542.2 243.3,429.8 	"/>
	<path fill="#515354" d="M274.5,327.6c-1.4-0.6-3,0.4-3.6,1.8s-0.4,3,0,4.4c-1,0-1.8,0-2.8,0c0.2-4.2,0.6-8.4,0.8-12.6
		c-0.8,1.2-1.2,2.6-0.8,4c-1.8-2.2-2.6-5.4-2-8.2c-1.2,2-1.6,4.4-0.8,6.6c-2.2-2-3.2-5.2-2.8-8.2c-1.6,1.4-2.4,4-2,6
		c-1.6-1.6-2.6-4-2.4-6.4c-1.4,2-1.8,4.4-1.2,6.8c-1.6-1.6-2.4-4-2.2-6.2c-1.4,1.6-2.2,4-1.8,6c-1.4-1-1.4-3.2-1.4-5
		c-1.4,1.4-2,3.6-1.6,5.6c-1-1.6-1.8-3.2-2.4-5c-0.6-1.8-0.6-4.2,0.8-5.4c-0.4-2,0.2-4.2,1.6-5.6c-0.4,1.8,0.4,3.8,2,5
		c-0.6-2.8,0.6-5.8,2.8-7.4c-1,1.8,0.2,4,1.4,5.8c-0.8-2,0.4-4.6,2.4-5.4c-0.6,1.4-0.2,3.2,0.8,4.4c0-1.8,0.6-3.6,1.8-4.8
		c-0.4,2-0.4,4.6,1.4,5.6c0-1,0.2-2.2,0.8-3c0.2,2,1.4,4,3,5.2c1.4,0,2.6-1.4,2.6-2.6c0.4,2.2,2.2,3.8,3.4,5.8
		c2.6,3.8,3.6,8.4,3.2,13c0,0.2,0,0.6-0.4,0.6c-0.4,0.2-0.6-0.2-0.8-0.4c-0.8-0.8-2-1-3-0.4"/>
</g>
<g>
	<path fill="#515354" d="M501.8,333.2v27.4h-4.2v9c0,0-4.6,9.2-16,0V351c0,0-3.4-0.6-3.4-4.6s4-2,4-2v-11h19.6V333.2z"/>
	<polygon fill="#515354" points="502.8,529.8 503.8,535 508.6,535 508.6,529.8 	"/>
	<path fill="#515354" d="M508.6,535h-4.8c0,0-1.8,5.8,4.2,6.2h7.8c0,0,1.8-3.8-3-4C513,537.4,509,536.6,508.6,535z"/>
	<polygon fill="#515354" points="481.8,529.8 480.6,535 476,535 476,529.8 	"/>
	<path fill="#515354" d="M476,535h4.6c0,0,1.8,5.8-4.2,6.2h-7.8c0,0-1.8-3.8,3-4C471.4,537.4,475.6,536.6,476,535z"/>
	<path fill="#515354" d="M487.4,352.4H501c0,0-2.4-4.2-6.8-4.2C489.8,348.2,487.4,352.4,487.4,352.4z"/>
	<polygon fill="#515354" points="507.2,434.8 509.2,529.8 502.4,529.8 489,452 481.8,529.8 475.2,529.8 472.8,434.4 	"/>
	<path fill="#515354" d="M516.2,370.4c0,0-17-9.6-51,0l6.4,64.2c0,0,14,1,36.8-0.2L516.2,370.4z"/>
	<polygon fill="#515354" points="502.8,529.8 503.8,535 508.6,535 508.6,529.8 	"/>
	<path fill="#515354" d="M508.6,535h-4.8c0,0-1.8,5.8,4.2,6.2h7.8c0,0,1.8-3.8-3-4C513,537.4,509,536.6,508.6,535z"/>
	<polygon fill="#515354" points="481.8,529.8 480.6,535 476,535 476,529.8 	"/>
	<path fill="#515354" d="M476,535h4.6c0,0,1.8,5.8-4.2,6.2h-7.8c0,0-1.8-3.8,3-4C471.4,537.4,475.6,536.6,476,535z"/>
	<polygon fill="#515354" points="509.2,505.6 498.2,505.6 503.6,536.4 509.2,536.4 	"/>
	<polygon fill="#515354" points="474.6,506.4 484.4,506.4 481.4,535.6 475.2,535.6 	"/>
	<path fill="#515354" d="M499.4,371.2l-8.8,14.6l-8.6-14.6h-9.6c0,0,2.6-6.8,12-7.6c9.4-0.8,19.8-1.2,23.2,7.6H499.4z"/>
	<path fill="#515354" d="M501.8,333.2v27.4h-4.2v9c0,0-4.6,9.2-16,0V351c0,0-3.4-0.6-3.4-4.6s4-2,4-2v-11h19.6V333.2z"/>
	<path fill="#515354" d="M499,369.6l-8.4,14.6l-7.8-14.6C482.8,369.6,489.8,360.8,499,369.6z"/>
	<path fill="#515354" d="M540.6,385.2c0,0,15-3.4,21-15.8c0,0,1.2-3.6,3-3.4c1.6,0.2,0.8,3.2,0.8,3.2s1.6-7.6,3.8-7.4
		c2.2,0.2,7.6,2.8,0.4,15c0,0-16.6,20.6-31,17.4C538.4,394.2,529.4,385.8,540.6,385.2z"/>
	<path fill="#515354" d="M516.2,370c0,0,7.8,12,22,14.4c0,0,1.6,8.6-2.6,10.8c0,0-17.4-3-24.2-11L516.2,370z"/>
	<path fill="#515354" d="M444.7,312.4c-0.4-15.6,6.4-15,8.6-14c2.2,1-0.4,9.2-0.4,9.2s0.8-3.6,2.6-2.8c1.6,0.8,1,5,1,5
		s-0.8,7-5.4,6.8C446.5,316.4,444.7,312.4,444.7,312.4z"/>
	<polygon fill="#515354" points="472.2,370.8 457.3,351.6 446.1,357.4 471.2,389.8 469.8,377.6 	"/>
	<polygon fill="#515354" points="457.3,351.6 450.7,342.8 452.7,316 446.1,314.2 441.5,346.4 447.3,357 	"/>
	<path fill="#515354" d="M484,336.6v11.6l-1.6-0.2l-0.2-4l-1.4-0.4V330c0,0,13.2-13,21.2,3c0,0,3.2,2,2.8,2.4s-11.2-2.4-11.2-2.4
		l2.4,2.4l-11.8-1.6L484,336.6z"/>
	<path fill="#515354" d="M508.4,434.4c0.8,1.6,2.6,102.4,2.6,102.4l-7.6-0.6l-13.8-69.8l-7,69.8l-9.4,0.6l-0.6-102.4H508.4z"/>
</g>
<g>
	<polygon fill="#515354" points="154.1,354.4 155.5,356.2 145,362.8 141.8,359.8 153.1,353.2 	"/>
	<path fill="#515354" d="M99.6,336.2v27.4h4.2v9c0,0,4.6,9.2,16,0V354c0,0,3.4-0.6,3.4-4.6s-4-2-4-2v-11H99.6V336.2z"/>
	<polygon fill="#515354" points="98.4,532.6 97.4,538 92.8,538 92.8,532.6 	"/>
	<path fill="#515354" d="M92.8,538h4.6c0,0,1.8,5.8-4.2,6.2h-7.8c0,0-1.8-3.8,3-4C88.2,540.2,92.2,539.4,92.8,538z"/>
	<polygon fill="#515354" points="119.4,532.6 120.6,538 125.2,538 125.2,532.6 	"/>
	<path fill="#515354" d="M125.2,538h-4.6c0,0-1.8,5.8,4.2,6.2h7.8c0,0,1.8-3.8-3-4C129.8,540.2,125.6,539.4,125.2,538z"/>
	<path fill="#515354" d="M113.8,355.4h-13.6c0,0,2.4-4.2,6.8-4.2S113.8,355.4,113.8,355.4z"/>
	<polygon fill="#515354" points="94,437.6 92.2,532.6 98.8,532.6 112.2,454.8 119.4,532.6 126,532.6 128.4,437.2 	"/>
	<path fill="#515354" d="M85,373.2c0,0,17-9.6,51,0l-6.4,64.2c0,0-14,1-36.8-0.2L85,373.2z"/>
	<polygon fill="#515354" points="98.4,532.6 97.4,538 92.8,538 92.8,532.6 	"/>
	<path fill="#515354" d="M92.8,538h4.6c0,0,1.8,5.8-4.2,6.2h-7.8c0,0-1.8-3.8,3-4C88.2,540.2,92.2,539.4,92.8,538z"/>
	<polygon fill="#515354" points="119.4,532.6 120.6,538 125.2,538 125.2,532.6 	"/>
	<path fill="#515354" d="M125.2,538h-4.6c0,0-1.8,5.8,4.2,6.2h7.8c0,0,1.8-3.8-3-4C129.8,540.2,125.6,539.4,125.2,538z"/>
	<polygon fill="#515354" points="92.2,508.6 103,508.6 97.6,539.2 92.2,539.2 	"/>
	<polygon fill="#515354" points="126.6,509.2 116.8,509.2 119.8,538.6 126,538.4 	"/>
	<path fill="#515354" d="M99.6,336.2v27.4h4.2v9c0,0,4.6,9.2,16,0V354c0,0,3.4-0.6,3.4-4.6s-4-2-4-2v-11H99.6V336.2z"/>
	<path fill="#515354" d="M60.8,388c0,0-15-3.4-21-15.8c0,0-1.2-3.6-3-3.4C35.2,369,36,372,36,372s-1.6-7.6-3.8-7.4
		c-2.2,0.2-7.6,2.8-0.4,15c0,0,16.6,20.6,31,17.4C62.8,397.2,71.8,388.6,60.8,388z"/>
	<path fill="#515354" d="M85.2,373c0,0-7.8,12-22,14.4c0,0-1.6,8.6,2.6,10.8c0,0,17.4-3,24.2-11L85.2,373z"/>
	<path fill="#515354" d="M66.6,398c0,0-3.8-5.6-1.8-11l-3.8,0.6c0,0,0,9,2.8,10.8L66.6,398z"/>
	<path fill="#515354" d="M156.5,315.2c0.4-15.6-6.4-15-8.6-14c-2.2,1,0.4,9.2,0.4,9.2s-0.8-3.6-2.4-2.8c-1.6,0.8-1,5-1,5
		s0.8,7,5.4,6.8C154.9,319.2,156.5,315.2,156.5,315.2z"/>
	<polygon fill="#515354" points="129,373.6 144.2,354.4 155.1,360.2 130.2,392.8 131.6,380.4 	"/>
	<polygon fill="#515354" points="144.2,354.4 150.6,345.6 148.6,318.8 155.3,317.2 159.7,349.2 153.9,359.8 	"/>
	<polygon fill="#515354" points="144.2,354.4 142.8,356.2 153.1,362.8 156.3,359.8 145,353.2 	"/>
	<path fill="#515354" d="M92.8,436.8C92,438.4,90,539.2,90,539.2l7.6-0.6l13.8-69.8l7,69.8l9.4,0.6l0.6-102.4H92.8z"/>
	<path fill="#515354" d="M109.2,333.6c-0.2-0.8-0.4-1.6-0.4-2.2c3.2,0.4,6.2,0.6,9.4,1c1.2,0.2,2.4,0.4,3.2,1.2
		c0.4,0.6,0.6,1.2,0.8,1.8c1.2,4,1.2,8.4,0,12.4c-0.2-1.2-2.2-1.2-3-0.2s-0.6,2.4-0.4,3.6c0.2,1.6,0.4,3.2,0.6,5
		c-2.2,0.2-4.2,0.2-6.4,0.4c1.6-5,2.6-10.2,3-15.4c-0.8,0.8-2,1-3,0.4s-1.6-1.8-1.2-2.8c-2.4-0.4-4.8-0.6-7.2-1
		c-0.8-0.2-1.8-0.2-2.6,0.2c-0.4,0.2-0.8,0.8-1.2,1c-0.8,0.4-2,0.2-2.6-0.6c-0.6-0.8-0.8-1.8-1-2.6c-0.2-2.4,0.4-5,1.8-7.2
		c-0.2,2,1.2,4,3,4.6c-1.4-3.2-0.4-7.2,2.2-9.2C102.8,327.8,105.2,332.6,109.2,333.6z"/>
</g>
<g>
	<path fill="#515354" d="M403.9,329.4v27.4h4.2v9c0,0,4.6,9.2,16,0v-18.6c0,0,3.4-0.6,3.4-4.6s-4-2-4-2v-11h-19.6V329.4z"/>
	<polygon fill="#515354" points="428.1,525.8 429.1,531.2 433.9,531.2 433.9,525.8 	"/>
	<path fill="#515354" d="M433.9,531.2h-4.6c0,0-1.8,5.8,4.2,6.2h7.8c0,0,1.8-3.8-3-4C438.3,533.4,434.3,532.8,433.9,531.2z"/>
	<polygon fill="#515354" points="407.1,525.8 405.9,531.2 401.3,531.2 401.3,525.8 	"/>
	<path fill="#515354" d="M401.3,531.2h4.6c0,0,1.8,5.8-4.2,6.2h-7.8c0,0-1.8-3.8,3-4C396.7,533.4,400.9,532.8,401.3,531.2z"/>
	<path fill="#515354" d="M418.3,348.6h-13.6c0,0,2.4-4.2,6.8-4.2C415.9,344.4,418.3,348.6,418.3,348.6z"/>
	<path fill="#515354" d="M418.3,348.6l0.6,0.8c0,0-6,1-7.8-0.8c0,0-4.6,1-6.8,0.8l0.6-1C404.7,348.4,414.1,347.6,418.3,348.6z"/>
	<polygon fill="#515354" points="432.5,431 434.5,525.8 427.7,525.8 414.3,448.2 407.1,525.8 400.5,525.8 398.1,430.4 	"/>
	<path fill="#515354" d="M441.5,366.4c0,0-17-9.6-51,0l6.4,64.2c0,0,14,1,36.8-0.2L441.5,366.4z"/>
	<polygon fill="#515354" points="428.1,525.8 429.1,531.2 433.9,531.2 433.9,525.8 	"/>
	<path fill="#515354" d="M433.9,531.2h-4.6c0,0-1.8,5.8,4.2,6.2h7.8c0,0,1.8-3.8-3-4C438.3,533.4,434.3,532.8,433.9,531.2z"/>
	<polygon fill="#515354" points="407.1,525.8 405.9,531.2 401.3,531.2 401.3,525.8 	"/>
	<path fill="#515354" d="M401.3,531.2h4.6c0,0,1.8,5.8-4.2,6.2h-7.8c0,0-1.8-3.8,3-4C396.7,533.4,400.9,532.8,401.3,531.2z"/>
	<path fill="#515354" d="M403.9,329.4v27.4h4.2v9c0,0,4.6,9.2,16,0v-18.6c0,0,3.4-0.6,3.4-4.6s-4-2-4-2v-11h-19.6V329.4z"/>
	<path fill="#515354" d="M423.7,340.4v1.6h-1.6h-0.6v-5.2c0,0-3.2-0.8-3.2-2.6s0-3.2,0-3.2h-13.6l-0.6,2.2c0,0-1.2-3.4,0.6-5.2
		c1.8-1.8,21-2.8,23.6,4.4c0,0,0.4,9.4-0.8,11c0,0,0.8-3.4-1.6-3.6C423.7,339.8,423.7,340.4,423.7,340.4z"/>
	<path fill="#515354" d="M424.3,365.8l-8.4,14.6l-7.8-14.6C408.1,365.8,415.1,357,424.3,365.8z"/>
	<path fill="#515354" d="M465.8,381.2c0,0,15-3.4,21-15.8c0,0,1.2-3.6,3-3.4c1.6,0.2,0.8,3.2,0.8,3.2s1.6-7.6,3.8-7.4
		c2.2,0.2,7.6,2.8,0.4,15c0,0-16.6,20.6-31,17.4C463.6,390.4,454.7,381.8,465.8,381.2z"/>
	<path fill="#515354" d="M441.3,366.2c0,0,7.8,12,22,14.4c0,0,1.6,8.6-2.6,10.8c0,0-17.4-3-24.2-11L441.3,366.2z"/>
	<path fill="#515354" d="M364.1,377.4c0,0-14.4-5.8-18.2-19c0,0-0.6-3.8-2.4-3.8c-1.8,0-1.2,3.2-1.2,3.2s-0.2-7.8-2.4-8
		c-2.2-0.2-8,1.6-2.8,14.8c0,0,13,23,27.6,22.4C364.7,386.6,375.1,379.6,364.1,377.4z"/>
	<path fill="#515354" d="M390.7,366.4c0,0-9.8,10.6-24.2,10.6c0,0-3,8.2,0.8,11c0,0,17.6-0.2,25.8-6.8L390.7,366.4z"/>
	<path fill="#515354" d="M405.1,333.4c-0.6-0.4-1-1-1.4-1.6c0,0.4,0.2,0.8,0.2,1.2c-1.4-1.4-1.4-4,0-5.6c0-1.4,1-2.6,2.4-3
		c-0.4,1,0,2.2,1,2.6c-0.6-1.6,1-3.4,2.6-3c-0.8,0.6-1,2.2-0.4,3c0.2-2,2-3.6,3.8-3.8c-0.6,0.8-1.2,1.6-1,2.6s1.6,1.6,2.2,0.6
		c0.2-0.4,0-1-0.2-1.4c0.4,1.2,2,1.6,3.4,1.8c2.6,0.4,5.4,0.8,8,1.2c0.2-0.6,0.4-1.2,0.6-1.8c0.6,1.2,1,2.4,0.8,3.8
		c0.6-0.6,1-1.4,1-2.4c1.4,4.8,0.6,9.8-0.2,14.8c-0.2-1-0.6-2.2-1.4-2.8c-0.8-0.6-2.4-0.6-2.6,0.6c-0.2,0.8,0.2,1.6,0,2.4
		c-0.8,0.2-1.6,0.2-2.4,0.2c-0.4-2-0.4-4.2,0-6.2c-2.4-0.4-4-3.2-3.2-5.6c-1,0.6-1.2,2-0.6,2.8c-1.4-0.4-2.6-1.4-3.4-2.8
		c-0.4,1,0.2,2,1,2.4c-1.8-0.2-3.4-1-4.4-2.4c0,0.8,0.2,1.8,1,2.2c-1.4,0-2.8-1-3.4-2.2c0,0.8,0.2,1.4,0.4,2.2
		c-1-0.2-1.8-1.2-1.8-2.4c-0.6,0.8-0.6,1.8,0,2.6c-1-0.6-1.6-1.6-2-2.8C405.1,331.6,405.1,332.6,405.1,333.4z"/>
</g>
<g>
	<path fill="#515354" d="M171.9,337.6v27h4.2v8.8c0,0,4.6,9,16,0v-18.6c0,0,3.4-0.6,3.4-4.6c0-4-4-2-4-2v-10.8h-19.6V337.6z"/>
	<polygon fill="#515354" points="195.9,530.8 197.1,536.2 201.7,536.2 201.7,530.8 	"/>
	<path fill="#515354" d="M201.7,536.2h-4.6c0,0-1.8,5.8,4.2,6.2h7.8c0,0,1.8-3.6-3-4C206.3,538.4,202.1,537.6,201.7,536.2z"/>
	<polygon fill="#515354" points="174.9,530.8 173.9,536.2 169.1,536.2 169.1,530.8 	"/>
	<path fill="#515354" d="M169.1,536.2h4.8c0,0,1.8,5.8-4.2,6.2h-7.8c0,0-1.8-3.6,3-4C164.7,538.4,168.7,537.6,169.1,536.2z"/>
	<path fill="#515354" d="M186.1,356.4h-13.6c0,0,2.4-4.2,6.8-4.2S186.1,356.4,186.1,356.4z"/>
	<path fill="#515354" d="M186.1,356.4l0.6,0.8c0,0-6,1-7.8-0.8c0,0-4.6,0.8-6.8,0.8l0.6-1C172.7,356.2,181.9,355.4,186.1,356.4z"/>
	<polygon fill="#515354" points="200.5,437.4 202.3,530.8 195.5,530.8 182.3,454.4 174.9,530.8 168.5,530.8 165.9,437 	"/>
	<path fill="#515354" d="M203.7,374c0,0-5.4-9.4-39.4,0l1.6,63c0,0,11.6,1.6,34.4,0.4L203.7,374z"/>
	<polygon fill="#515354" points="195.9,530.8 197.1,536.2 201.7,536.2 201.7,530.8 	"/>
	<path fill="#515354" d="M201.7,536.2h-4.6c0,0-1.8,5.8,4.2,6.2h7.8c0,0,1.8-3.6-3-4C206.3,538.4,202.1,537.6,201.7,536.2z"/>
	<polygon fill="#515354" points="174.9,530.8 173.9,536.2 169.1,536.2 169.1,530.8 	"/>
	<path fill="#515354" d="M169.1,536.2h4.8c0,0,1.8,5.8-4.2,6.2h-7.8c0,0-1.8-3.6,3-4C164.7,538.4,168.7,537.6,169.1,536.2z"/>
	<path fill="#515354" d="M171.9,337.6v27h4.2v8.8c0,0,4.6,9,16,0v-18.6c0,0,3.4-0.6,3.4-4.6c0-4-4-2-4-2v-10.8h-19.6V337.6z"/>
	<path fill="#515354" d="M192.1,373.2l-8.4,14.4l-7.8-14.4C176.1,373.2,182.9,364.6,192.1,373.2z"/>
	<polygon fill="#515354" points="165.9,437 164.5,472.6 168.1,516 174.1,443.2 	"/>
	<polygon fill="#515354" points="200.3,436.6 203.1,473.6 200.1,516.6 193.9,443.8 	"/>
	<path fill="#515354" d="M165.9,373.6l-24-42.8l-5.2,4l28,62.6C164.7,397.4,168.7,385.4,165.9,373.6z"/>
	<path fill="#515354" d="M135.4,333c-6.2-11.4-1-13.4,1-13.6c2-0.2,3,7,3,7s-0.8-2.8,0.8-3c1.6,0,2.6,3.2,2.6,3.2s2,5.4-1.4,7
		C137.8,335.2,135.4,333,135.4,333z"/>
	<path fill="#515354" d="M220.9,446.4c-0.4,13-6,12.2-7.8,11.2c-1.8-1,0.8-7.6,0.8-7.6s-0.8,2.8-2.2,2.2c-1.4-0.6-0.6-4.2-0.6-4.2
		s0.8-5.8,4.8-5.4C220.1,443.2,220.9,446.4,220.9,446.4z"/>
	<path fill="#515354" d="M204.1,373.2l19,35l-2.8,37.8l-6.6-0.8v-31.6l-11.2-14.8C202.3,399,200.9,374,204.1,373.2z"/>
	<path fill="#515354" d="M192.1,373.2c0,0-7,16.8-16,0C176.1,373.2,183.5,407.6,192.1,373.2z"/>
	<path fill="#515354" d="M193.7,347.6c-0.4,0-0.8,0.2-1,0.6c-0.2,0.2-0.2,0.6-0.2,1c-0.2,2-1,4-2,5.8c0.4-2.6,0.6-5.4-0.2-8
		c-0.4-1.2-1-2.2-1.6-3.2c-1-1.8-2-3.4-3-5.2c-0.2,3.4,0.8,6.8,3.2,9.2c-5.6,0.6-11.4-2.6-13.8-7.6c-0.4-0.6-0.6-1.2-1-1.8
		c-0.4-0.4-1.2-0.8-1.8-0.6c0-2,1.6-3.8,3.4-4.8c1.8-0.8,4-1,6-1.2c1.8-0.2,3.6-0.2,5.4,0c3.8,0.6,7.4,3.2,9,6.6
		c1.8,3.4,1.8,7.8,0,11.2C195.7,348.6,194.7,347.6,193.7,347.6z"/>
	<path fill="#515354" d="M171.9,337.6v8.2c0,0-4.4-10.6,1.6-11.8"/>
	<path fill="#515354" d="M194.5,353.4c0,0,0.2,8.6-4.4,8.6c0,0,2.2-3.2,2-7.2L194.5,353.4z"/>
	<circle fill="#515354" cx="192.9" cy="352.8" r="0.6"/>
	<path fill="#515354" d="M194.9,348.6c0.2,4.8-3.2,8.8-4.8,13.2c-2.2,6-1,12.6,0,18.8c0.8-3.8,1.4-7.6,2.2-11.2c2.4,5,2.6,11,0.4,16
		c3.8-2.8,4.2-8.4,4.2-13c1.8,3.4,2.4,7.2,1.6,11c-0.4-5.4,2.8-10.6,2-16c-0.2-1.8-1-3.6-1.4-5.4c-1.6-7,1.8-14.8-1-21.4
		c-1.4-3.6-4.6-6.4-8.2-8.2c-2.4-1.2-5-2-7.8-1.6c-2.6,0.4-5.2,2.4-5.6,5c-0.2-0.4-1-0.6-0.6-0.6c1,1.6,3,2,4.8,2
		c1.8,0,3.6-0.4,5.4,0c1,0.2,2,0.8,2.8,1.4C192.5,341.2,194.9,344.4,194.9,348.6z"/>
	<path fill="#515354" d="M165.9,373.6l-6.4,17l7.2,16.2l20-3.2C186.9,403.8,173.1,374.4,165.9,373.6z"/>
</g>
<g>
	<polygon fill="#006838" points="179.5,337.2 178.1,339 189.5,346.2 193.1,343 180.5,335.8 	"/>
	<path fill="#F9BD91" d="M239.7,317.2V347h-4.6v9.8c0,0-5.2,10-17.8,0v-20.4c0,0-3.8-0.8-3.8-5c0-4.2,4.4-2.2,4.4-2.2v-11.8h21.8
		V317.2z"/>
	<polygon fill="#8B5E3C" points="240.9,531.2 242.1,537 247.3,537 247.3,531.2 	"/>
	<path fill="#231F20" d="M247.3,537h-5.2c0,0-2,6.4,4.6,6.8h8.6c0,0,2-4-3.2-4.4C252.3,539.4,247.7,538.6,247.3,537z"/>
	<polygon fill="#8B5E3C" points="217.9,531.2 216.5,537 211.5,537 211.5,531.2 	"/>
	<path fill="#231F20" d="M211.5,537h5.2c0,0,2,6.4-4.6,6.8h-8.6c0,0-2-4,3.2-4.4C206.5,539.4,210.9,538.6,211.5,537z"/>
	<path fill="#E6E7E8" d="M223.9,338h15c0,0-2.6-4.6-7.6-4.6S223.9,338,223.9,338z"/>
	<polygon fill="#F9BD91" points="245.9,427.8 247.9,531.2 240.5,531.2 225.9,446.4 217.9,531.2 210.7,531.2 207.9,427.2 	"/>
	<path fill="#BCBEC0" d="M255.9,357.4c0,0-18.6-10.4-56.2,0l7,70c0,0,15.4,1,40.6-0.2L255.9,357.4z"/>
	<polygon fill="#8B5E3C" points="240.9,531.2 242.1,537 247.3,537 247.3,531.2 	"/>
	<path fill="#231F20" d="M247.3,537h-5.2c0,0-2,6.4,4.6,6.8h8.6c0,0,2-4-3.2-4.4C252.3,539.4,247.7,538.6,247.3,537z"/>
	<polygon fill="#8B5E3C" points="217.9,531.2 216.5,537 211.5,537 211.5,531.2 	"/>
	<path fill="#231F20" d="M211.5,537h5.2c0,0,2,6.4-4.6,6.8h-8.6c0,0-2-4,3.2-4.4C206.5,539.4,210.9,538.6,211.5,537z"/>
	<polygon fill="#BE1E2D" points="247.9,505 235.9,505 241.9,538.4 247.9,538.4 	"/>
	<polygon fill="#BE1E2D" points="209.9,505.8 220.7,505.8 217.5,537.6 210.7,537.6 	"/>
	<path fill="#A7A9AC" d="M237.1,358.6l-9.6,15.8l-9.4-15.8h-10.6c0,0,2.8-7.4,13.2-8.2c10.4-1,21.8-1.4,25.4,8.2H237.1z"/>
	<path fill="#EAB28C" d="M239.7,317.2V347h-4.6v9.8c0,0-5.2,10-17.8,0v-20.4c0,0-3.8-0.8-3.8-5c0-4.2,4.4-2.2,4.4-2.2v-11.8h21.8
		V317.2z"/>
	<path fill="#EAB28C" d="M236.7,356.8l-9.2,15.8l-8.4-15.8C219.1,356.8,226.7,347,236.7,356.8z"/>
	<path fill="#EAB28C" d="M282.5,373.6c0,0,16.6-3.6,23.2-17.2c0,0,1.4-4,3.2-3.8c1.8,0.2,0.8,3.6,0.8,3.6s1.6-8.4,4.2-8
		c2.4,0.2,8.4,3,0.4,16.4c0,0-18.4,22.4-34.2,19C280.3,383.6,270.3,374.2,282.5,373.6z"/>
	<path fill="#BCBEC0" d="M255.7,357.2c0,0,8.6,13.2,24.2,15.6c0,0,1.8,9.2-3,11.8c0,0-19.2-3.4-26.8-12L255.7,357.2z"/>
	<path fill="#EAB28C" d="M176.9,294.4c-0.4-17,7-16.4,9.4-15.4c2.4,1-0.6,10-0.6,10s1-3.8,2.8-3c1.8,0.8,1,5.4,1,5.4s-0.8,7.6-6,7.4
		C178.3,298.4,176.9,294.4,176.9,294.4z"/>
	<polygon fill="#BCBEC0" points="207.3,358 190.7,337.2 178.5,343.4 206.1,378.8 204.5,365.4 	"/>
	<polygon fill="#EAB28C" points="190.7,337.2 183.5,327.4 185.7,298.2 178.3,296.4 173.5,331.4 179.7,343 	"/>
	<polygon fill="#1F4163" points="207.3,427.2 207.9,537.6 219.3,538.4 226.1,448.2 240.9,538.4 250.7,538.4 245.9,427.8 	"/>
	<path fill="#BCBEC0" d="M206.7,427.4v14.4l20-14.6l21.2,18.6l0.2-26.6C248.3,419.2,208.7,421.2,206.7,427.4z"/>
	<polygon fill="#A7A9AC" points="226.7,373 226.7,427.2 228.9,372 	"/>
	<path fill="#231F20" d="M214.1,329.4c0-0.6,0.6-1,1.2-1.2c0.8-0.2,1.6,0,2.2,0.4c0.6,0.6,0.6,1.6,0.2,2.2c0.8,0,1.6,0.2,2.2,0.2
		c0.2-2.2,0.2-4.4,0-6.4c1,0.2,2.2-0.4,2.6-1.4c0.4-1,0.4-2,0.2-3.2c1,0,1.6-1,2.4-1.4c0.6-0.4,1-0.4,1.6-0.6
		c1.6-0.4,3.2-0.4,4.8-0.4c1.8,0,3.8,0,5.6-0.2c0.6,0,1.2,0,1.8,0.2c0.6,0.2,0.8,1,0.6,1.4c0.6,0,1.2-0.4,1.6-1.2
		c0.4-0.8,0.2-1.4,0.2-2c0-1.2-0.2-3-1.4-3.2c-0.4-0.2-0.6,0-1-0.2c-1.6-0.2-2.8-1.6-3.8-2.8c0.2,0.8-0.4,1.4-1.2,1.6
		c-0.8,0.2-1.4,0-2.2-0.2c-2.2-0.4-4.4-1-6.6-1c-2.4,0-4.8,0.4-7,1.4c-3,1.6-5.2,4.6-6,7.8C211.3,323,212.1,326.6,214.1,329.4z"/>
	<path fill="#231F20" d="M229.7,316.8c0-0.2,0.4-0.2,0.6-0.2c0.2,0.2,0.2,0.4,0.4,0.6c0.2,0.8,0.6,1.6,1,2.2c0.6-0.8,1-1.4,1.4-2.2
		c0.2,0.8,0.4,1.8,0.2,2.8c-0.2,0.8-0.8,1.8-1.8,1.8c1-0.2,2.2-0.6,3-1.4s1.2-1.8,1-3c1,1,0.6,3-0.6,3.6c1,0,2-0.6,2.6-1.4
		s0.8-2,0.8-3c-0.2-1-0.6-2-1.4-2.6c-0.6-0.4-1.6-0.6-2.4-0.8c-1.4-0.2-2.8,0-3.8,0.8C229.7,315,229.1,316,229.7,316.8z"/>
	<path fill="#222A51" d="M219.9,358.6c0,0,9.2,6.2,16.4-1.2l-9,15.4L219.9,358.6z"/>
	<circle fill="#939598" cx="202.3" cy="374.2" r="0.6"/>
	<circle fill="#939598" cx="207.3" cy="360.2" r="0.6"/>
	<circle fill="#939598" cx="207.3" cy="369.8" r="0.6"/>
	<circle fill="#939598" cx="207.3" cy="379.6" r="0.6"/>
	<circle fill="#939598" cx="207.3" cy="389.2" r="0.6"/>
	<circle fill="#939598" cx="207.3" cy="398" r="0.6"/>
	<circle fill="#939598" cx="207.3" cy="407.6" r="0.6"/>
	<circle fill="#939598" cx="207.3" cy="417.2" r="0.6"/>
	<circle fill="#939598" cx="207.3" cy="426.8" r="0.6"/>
	<circle fill="#939598" cx="212.5" cy="364.8" r="0.6"/>
	<circle fill="#939598" cx="212.5" cy="374.4" r="0.6"/>
	<circle fill="#939598" cx="212.5" cy="384.2" r="0.6"/>
	<circle fill="#939598" cx="212.5" cy="393.8" r="0.6"/>
	<circle fill="#939598" cx="212.5" cy="402.6" r="0.6"/>
	<circle fill="#939598" cx="212.5" cy="412.2" r="0.6"/>
	<circle fill="#939598" cx="212.5" cy="421.8" r="0.6"/>
	<circle fill="#939598" cx="212.5" cy="431.4" r="0.6"/>
	<circle fill="#939598" cx="219.3" cy="369.8" r="0.6"/>
	<circle fill="#939598" cx="219.3" cy="379.6" r="0.6"/>
	<circle fill="#939598" cx="219.3" cy="389.2" r="0.6"/>
	<circle fill="#939598" cx="219.3" cy="398" r="0.6"/>
	<circle fill="#939598" cx="219.3" cy="407.6" r="0.6"/>
	<circle fill="#939598" cx="219.3" cy="417.2" r="0.6"/>
	<circle fill="#939598" cx="219.3" cy="426.8" r="0.6"/>
	<circle fill="#939598" cx="224.5" cy="374.4" r="0.6"/>
	<circle fill="#939598" cx="224.5" cy="384.2" r="0.6"/>
	<circle fill="#939598" cx="224.5" cy="393.8" r="0.6"/>
	<circle fill="#939598" cx="224.5" cy="402.6" r="0.6"/>
	<circle fill="#939598" cx="224.5" cy="412.2" r="0.6"/>
	<circle fill="#939598" cx="224.5" cy="421.8" r="0.6"/>
	<circle fill="#939598" cx="229.3" cy="379.8" r="0.6"/>
	<circle fill="#939598" cx="229.3" cy="389.4" r="0.6"/>
	<circle fill="#939598" cx="229.3" cy="398.2" r="0.6"/>
	<circle fill="#939598" cx="229.3" cy="407.8" r="0.6"/>
	<circle fill="#939598" cx="229.3" cy="417.4" r="0.6"/>
	<circle fill="#939598" cx="229.3" cy="427" r="0.6"/>
	<circle fill="#939598" cx="234.5" cy="365" r="0.6"/>
	<circle fill="#939598" cx="234.5" cy="374.6" r="0.6"/>
	<circle fill="#939598" cx="234.5" cy="384.2" r="0.6"/>
	<circle fill="#939598" cx="234.5" cy="393.8" r="0.6"/>
	<circle fill="#939598" cx="234.5" cy="402.8" r="0.6"/>
	<circle fill="#939598" cx="234.5" cy="412.2" r="0.6"/>
	<circle fill="#939598" cx="234.5" cy="422" r="0.6"/>
	<circle fill="#939598" cx="234.5" cy="431.6" r="0.6"/>
	<circle fill="#939598" cx="241.3" cy="360.2" r="0.6"/>
	<circle fill="#939598" cx="241.3" cy="369.8" r="0.6"/>
	<circle fill="#939598" cx="241.3" cy="379.6" r="0.6"/>
	<circle fill="#939598" cx="241.3" cy="389.2" r="0.6"/>
	<circle fill="#939598" cx="241.3" cy="398" r="0.6"/>
	<circle fill="#939598" cx="241.3" cy="407.6" r="0.6"/>
	<circle fill="#939598" cx="241.3" cy="417.2" r="0.6"/>
	<circle fill="#939598" cx="241.3" cy="426.8" r="0.6"/>
	<circle fill="#939598" cx="246.5" cy="364.8" r="0.6"/>
	<circle fill="#939598" cx="246.5" cy="374.4" r="0.6"/>
	<circle fill="#939598" cx="246.5" cy="384.2" r="0.6"/>
	<circle fill="#939598" cx="246.5" cy="393.8" r="0.6"/>
	<circle fill="#939598" cx="246.5" cy="402.6" r="0.6"/>
	<circle fill="#939598" cx="246.5" cy="412.2" r="0.6"/>
	<circle fill="#939598" cx="246.5" cy="421.8" r="0.6"/>
	<circle fill="#939598" cx="246.5" cy="431.4" r="0.6"/>
	<circle fill="#939598" cx="251.3" cy="360.4" r="0.6"/>
	<circle fill="#939598" cx="251.3" cy="370" r="0.6"/>
	<circle fill="#939598" cx="251.3" cy="379.8" r="0.6"/>
	<circle fill="#939598" cx="251.3" cy="389.4" r="0.6"/>
	<circle fill="#939598" cx="256.5" cy="365" r="0.6"/>
	<circle fill="#939598" cx="257.3" cy="376" r="0.6"/>
	<circle fill="#939598" cx="265.7" cy="380.6" r="0.6"/>
	<circle fill="#939598" cx="263.9" cy="373.6" r="0.6"/>
	<circle fill="#939598" cx="272.3" cy="378.2" r="0.6"/>
	<circle fill="#939598" cx="262.3" cy="367.2" r="0.6"/>
	<circle fill="#939598" cx="270.7" cy="371.8" r="0.6"/>
	<circle fill="#939598" cx="279.3" cy="376.4" r="0.6"/>
	<circle fill="#939598" cx="183.5" cy="344.8" r="0.6"/>
	<circle fill="#939598" cx="189.5" cy="352.2" r="0.6"/>
	<circle fill="#939598" cx="195.7" cy="359.6" r="0.6"/>
	<circle fill="#939598" cx="201.9" cy="367" r="0.6"/>
	<circle fill="#939598" cx="190.5" cy="345.6" r="0.6"/>
	<circle fill="#939598" cx="196.7" cy="353.2" r="0.6"/>
	<circle fill="#939598" cx="202.7" cy="360.6" r="0.6"/>
</g>
<g>
	<g>
		<path fill="#F9BD91" d="M85.6,294.4v32.8h5V338c0,0,5.6,11,19.2,0v-22.4c0,0,4.2-0.8,4.2-5.6s-4.8-2.4-4.8-2.4v-13H85.6V294.4z"/>
		<polygon fill="#8B5E3C" points="84.4,530 83,536.4 77.4,536.4 77.4,530 		"/>
		<path fill="#231F20" d="M77.4,536.4H83c0,0,2.2,7-5,7.4h-9.4c0,0-2-4.4,3.6-4.8C72,539,77,538.2,77.4,536.4z"/>
		<polygon fill="#8B5E3C" points="109.6,530 110.8,536.4 116.4,536.4 116.4,530 		"/>
		<path fill="#231F20" d="M116.4,536.4h-5.6c0,0-2.2,7,5,7.4h9.4c0,0,2-4.4-3.6-4.8C121.8,539,117,538.2,116.4,536.4z"/>
		<path fill="#E6E7E8" d="M102.8,317.4H86.4c0,0,3-5,8.2-5C99.8,312.4,102.8,317.4,102.8,317.4z"/>
		<polygon fill="#F9BD91" points="79,416.2 76.8,530 84.8,530 100.8,436.8 109.6,530 117.4,530 120.2,415.6 		"/>
		<path fill="#C4BC6E" d="M68.2,338.8c0,0,20.4-11.4,61.2,0l-7.6,77c0,0-16.8,1.2-44.2-0.2L68.2,338.8z"/>
		<polygon fill="#8B5E3C" points="84.4,530 83,536.4 77.4,536.4 77.4,530 		"/>
		<path fill="#231F20" d="M77.4,536.4H83c0,0,2.2,7-5,7.4h-9.4c0,0-2-4.4,3.6-4.8C72,539,77,538.2,77.4,536.4z"/>
		<polygon fill="#8B5E3C" points="109.6,530 110.8,536.4 116.4,536.4 116.4,530 		"/>
		<path fill="#231F20" d="M116.4,536.4h-5.6c0,0-2.2,7,5,7.4h9.4c0,0,2-4.4-3.6-4.8C121.8,539,117,538.2,116.4,536.4z"/>
		<path fill="#F9BD91" d="M89,338l10,17.4l9.2-17.4C108.2,338,99.8,327.4,89,338z"/>
		<path fill="#EAB28C" d="M39,356.6c0,0-18-4-25.2-18.8c0,0-1.6-4.4-3.6-4.2c-2,0.2-1,4-1,4s-1.8-9.2-4.4-8.8s-9.2,3.4-0.4,18
			c0,0,20,24.6,37.2,20.8C41.6,367.6,52.4,357.2,39,356.6z"/>
		<path fill="#C4BC6E" d="M68.4,338.6c0,0-9.4,14.4-26.4,17.2c0,0-1.8,10.2,3.2,13c0,0,20.8-3.8,29.2-13.2L68.4,338.6z"/>
		<path fill="#EAB28C" d="M153.9,269.4c0.4-18.8-7.6-18-10.2-16.8c-2.6,1.2,0.6,11,0.6,11s-1-4.2-3-3.2c-2,1-1.2,6-1.2,6
			s0.8,8.4,6.6,8C152.6,274,153.9,269.4,153.9,269.4z"/>
		<polygon fill="#EAB28C" points="139,316.4 146.8,305.8 144.4,273.8 152.4,271.6 157.7,310.2 151,323 		"/>
		<polygon fill="#485F7A" points="78.2,415.6 73.8,536.4 84.4,537.4 100.2,444 109.6,538.2 121.6,539.4 120.2,415.6 		"/>
		<path fill="#C4BC6E" d="M98.4,416l22,28.6l1.2-28.8C121.6,415.8,105.8,397.6,98.4,416z"/>
		<path fill="#C4BC6E" d="M98.4,416l-21.2,31l-0.4-36C76.8,411.2,99.8,398.8,98.4,416z"/>
		<path fill="#808285" d="M96.6,332.6c0,0-22.6,2.8-28.2,6l8.4,74.8c0,0,22,8,45,2.4l6-60.6l-4.4-18.8L96.6,332.6z"/>
		<path fill="#EAB28C" d="M85.6,294.4v32.8h5V338c0,0,5.6,11,19.2,0v-22.4c0,0,4.2-0.8,4.2-5.6s-4.8-2.4-4.8-2.4v-13H85.6V294.4z"/>
		<path fill="#F7C843" d="M101.2,346.8l8.8-13c0,0,3.4-2,4,1.6C114,335.4,111.8,343,101.2,346.8z"/>
		<path fill="#F7C843" d="M100,346.8l-8.8-13c0,0-3.4-2-4,1.6C87.2,335.4,89.6,343,100,346.8z"/>
		<path fill="#EAB28C" d="M96.4,341.4l3.6,5.4h1.2l3.8-5.6C105,341.2,99.8,337.2,96.4,341.4z"/>
		
			<rect x="114.6" y="398.4" transform="matrix(-0.9599 0.2802 -0.2802 -0.9599 340.0906 762.1664)" fill="#F7C843" width="2" height="14"/>
		
			<rect x="82.6" y="396.9" transform="matrix(0.9599 0.2802 -0.2802 0.9599 116.5164 -7.2529)" fill="#F7C843" width="2" height="14"/>
		<polygon fill="#231F20" points="123.2,336.4 146.8,305.8 144.4,273.8 153.9,271.6 161.9,312.4 127.8,356.8 		"/>
		<path fill="#231F20" d="M68.4,338.6c0,0-26.4,34.2-52.6,2.6l-9,8.2c0,0,24.8,37.2,64,10.2L68.4,338.6z"/>
		<path fill="#F7C843" d="M144,273.4l0.8,3.4c0,0,10-1.2,10-1.6s-0.6-5-0.6-5S150.2,273.8,144,273.4z"/>
		<polygon fill="#F7C843" points="6.8,349.4 15.8,341.2 18,343.8 9.2,352.4 		"/>
		<path fill="#F7C843" d="M76.8,413.4c0,0,20.2,7.4,45,2.4l-0.4,8c0,0-21.8,5.8-44.6-2.6V413.4z"/>
		<path fill="#231F20" d="M76.8,416.2c0,0,29.6,8.4,44.8,1.4v2.8c0,0-23.2,7.2-44.8-2.2V416.2z"/>
		<path fill="#808285" d="M93.6,412.4L92.2,425c0,0,8,1.4,15.4,0.6l-1.2-14.8L93.6,412.4z"/>
		<polygon fill="#616263" points="100,346.8 98.6,426 100.6,426 101.2,346.8 		"/>
		<circle fill="#AAACAF" cx="103.8" cy="354" r="1.4"/>
		<circle fill="#AAACAF" cx="105" cy="379.2" r="1.4"/>
		<circle fill="#AAACAF" cx="103.8" cy="409.2" r="1.4"/>
		<polygon fill="#231F20" points="109.2,307.6 110,316.8 110,321.4 101.2,327.4 85.6,327.2 85.6,325.2 99.8,325.4 107.6,320.2 
			107,312.4 		"/>
		<path fill="#231F20" d="M99.4,304.6h-3.2c-1.4,0-2.6,1-2.6,2.2s1.2,2.2,2.6,2.2h3.2c1.4,0,2.6-1,2.6-2.2
			C101.8,305.6,100.8,304.6,99.4,304.6z M99.2,308.6h-3c-1,0-2-0.8-2-1.8s0.8-1.8,2-1.8h3c1,0,2,0.8,2,1.8S100.4,308.6,99.2,308.6z"
			/>
		<path fill="#231F20" d="M90,304.6h-3.2c-1.4,0-2.6,1-2.6,2.2s1.2,2.2,2.6,2.2H90c1.4,0,2.6-1,2.6-2.2S91.4,304.6,90,304.6z
			 M90,308.6h-3c-1,0-2-0.8-2-1.8s0.8-1.8,2-1.8h3c1,0,2,0.8,2,1.8S91,308.6,90,308.6z"/>
		<polygon fill="#231F20" points="92.4,306.8 94,306.8 94,306 92,306 		"/>
		<polyline fill="#231F20" points="101.6,307 110,307.6 111,307 101.6,306 		"/>
		<path fill="#231F20" d="M110.2,290.4c0.4,0.8,0.8,1.8,1,2.8c0-0.2,0.2-0.4,0.2-0.6c0.6,0.2,0.8,1,0.8,1.6
			c0.6,4.2,0.8,8.4,0.2,12.8c-1.4-0.2-2.6,1-3.4,2.2c-0.6,1-1.2,2-1.8,3.2c-0.4-4-0.8-7.8-1.2-11.8c-0.6,0.8-0.6,2-0.2,2.8
			c-1.6-1-2.6-3-2.6-5c-0.4,1-0.2,2.2,0.4,3.2c-1.8-0.6-3.2-1.8-4.2-3.2c-0.2-0.4-0.6-0.8-0.8-1.2c-0.4-0.4-1-0.8-1.4-1
			c-0.4-0.2-0.6-0.4-1-0.4c-0.6,0-1.2,0.2-1.8,0.6c-0.6,0.2-1.4,0.2-2.2,0.4c-1,0-2.4,0-3-0.8c-0.8,1-2.4,1.4-3.8,1
			c-1.2-0.4-2.2-1.8-2.2-3.2c0-1.2,0.8-2.4,0.8-3.8c-0.2,1,0.4,2.2,1.4,2.6c0-1.2,0.8-2.4,1.6-3.2c1-0.8,2.2-1.2,3.2-1.8
			c-1.4,0.8-2.2,2.6-1.6,4.2c0.4-2.6,3.2-4.6,5.8-4.2c-1.2,0.6-2,1.8-2.4,3.2c0.6-1,1.8-1.6,3-1.8c1.2-0.2,2.4,0,3.6,0.2
			c2.2,0.4,4.4,0.6,6.6,1c0.6,0,1.4,0.2,2,0c0.2-0.2,0.6-0.4,0.8-0.4C109,289,109.8,289.6,110.2,290.4z"/>
		<g>
			<g>
				<path fill="#F1F2F2" d="M108.2,370.4V367c0.6-0.2,0.8-0.8,0.8-1.4v-9.2c0-0.6,0-1.2-0.8-1.4v-3.4h8.6c1.4,0,3.2,0,4.4,0.8
					c1.4,0.8,1.8,2.4,1.8,4c0,2.2-0.8,3.6-3,4.2l0,0c2.4,0.4,3.2,2.2,3.2,4.4c0,1.6-0.4,3.2-1.6,4.2c-1.4,1-3,1.2-4.6,1.2
					C117,370.4,108.2,370.4,108.2,370.4z M114.8,358.8h0.4c1.2,0,2-0.2,2-1.6c0-1.4-0.8-1.6-2-1.6h-0.4V358.8z M114.8,366.4h0.6
					c1.4,0,2-0.6,2-2s-0.6-2-2-2h-0.6V366.4z"/>
			</g>
			<g>
				<path d="M108.6,369.8v-3.2c0.6-0.2,0.6-0.8,0.8-1.4v-8.6c0-0.6,0-1.2-0.8-1.4V352h8c1.4,0,3,0,4.2,0.8c1.4,0.8,1.8,2.2,1.8,3.8
					c0,2-0.8,3.4-2.8,4l0,0c2.2,0.2,3,2.2,3,4.2c0,1.4-0.4,3-1.4,4c-1.2,1-2.8,1-4.4,1C117,369.8,108.6,369.8,108.6,369.8z
					 M114.8,359h0.4c1.2,0,1.8-0.2,1.8-1.6s-0.6-1.6-1.8-1.6h-0.4V359z M114.8,366.2h0.4c1.4,0,1.8-0.6,1.8-2c0-1.4-0.4-2-1.8-2
					h-0.4V366.2z"/>
			</g>
		</g>
	</g>
	<g id="gQGXcu.tif">
		<g>
			<path d="M84.6,367c0.4,0,0.8,0,1.4,0c1.4-0.2,2.8-0.4,4-1.2c1-0.4,1.8-1,2.4-1.8c1-1.2,1-2.6,0-3.8c-0.4-0.6-1-1-1.6-1.4
				c-1.6-1-3.2-1.4-5.2-1.6c-1.2-0.2-2.4,0-3.6,0c-1.2,0.2-2.4,0.4-3.6,1c-1,0.4-1.8,1-2.4,1.8c-0.6,0.6-0.8,1.4-0.6,2.4
				c0,0.6,0.4,1.2,0.8,1.6c0.6,0.8,1.4,1.2,2.4,1.8C80.6,366.6,82.4,367,84.6,367z"/>
			<path fill="#F9ED32" d="M84.6,367c-2.2,0-4-0.4-5.8-1.2c-1-0.4-1.8-1-2.4-1.8c-0.4-0.4-0.8-1-0.8-1.6c-0.2-0.8,0.2-1.6,0.6-2.4
				c0.6-0.8,1.4-1.4,2.4-1.8c1.2-0.6,2.4-0.8,3.6-1c1.2-0.2,2.4-0.2,3.6,0c1.8,0.2,3.6,0.6,5.2,1.6c0.6,0.4,1.2,0.8,1.6,1.4
				c0.8,1.2,0.8,2.6,0,3.8c-0.6,0.8-1.4,1.4-2.4,1.8c-1.2,0.6-2.6,1-4,1.2C85.6,367,85,367,84.6,367z M83.6,357.8L83.6,357.8
				C83.6,357.8,83.6,358,83.6,357.8c0,0.6-0.2,1.2-0.2,1.6c0,0.4-0.2,0.8-0.4,1c-0.8,0.8-2,0.6-2.4-0.4c-0.2-0.6-0.2-1.2,0.4-1.8
				c0,0,0,0,0.2-0.2c-0.8,0.2-1.6,0.4-2.2,0.8c-0.8,0.4-1.6,0.8-2.2,1.6c-0.8,1-0.8,2.2,0,3.4c0.6,0.8,1.4,1.4,2.4,1.8l0,0v-0.2
				c-0.2-0.4-0.4-0.8-0.2-1c0-0.4,0.2-0.8,0.8-0.8c0.2,0,0.2,0,0.4,0c0.6,0.2,1,0.4,1.4,0.8c0,0,0,0,0.2,0c0-0.2,0.2-0.4,0.2-0.6
				c0.2-0.4,0.6-0.4,1-0.2c0.2,0,0.4,0.2,0.6,0.4c0.6,0.6,0.8,1.2,1,2c0,0.2,0.2,0.4,0.2,0.6c0,0,0,0,0-0.2c0.2-0.8,0.4-1.6,1-2.4
				c0.2-0.2,0.4-0.4,0.6-0.6c0.4-0.2,0.8,0,1,0.2c0.2,0.2,0.2,0.4,0.2,0.6c0,0,0,0,0,0.2c0.2,0,0.2-0.2,0.4-0.2
				c0.4-0.4,0.8-0.6,1.4-0.6c0.4,0,0.8,0.2,0.8,0.8c0,0.4-0.2,0.8-0.2,1c0,0,0,0,0,0.2c1-0.4,1.8-1,2.4-2c0.6-0.8,0.6-1.8,0-2.6
				c-0.2-0.4-0.6-0.8-1-1.2c-1-0.8-2.2-1.2-3.4-1.6c0,0,0,0-0.2,0c0,0,0,0,0,0.2c0.4,0.4,0.4,0.8,0.4,1.4c0,0.8-0.6,1.2-1.4,1.2
				s-1.4-0.6-1.4-1.2s0-1-0.2-1.6V358c-0.2,0.2-0.4,0.4-0.4,0.6c-0.2,0.2-0.2,0.2-0.6,0.2c-0.2,0-0.2,0-0.2-0.2
				C84,358.2,83.8,358,83.6,357.8z"/>
			<path d="M83.6,357.8c0.2,0.2,0.4,0.4,0.4,0.6l0.2,0.2c0.2,0,0.4,0,0.6-0.2c0.2-0.2,0.2-0.4,0.4-0.6v0.2c0,0.6,0,1,0.2,1.6
				c0,0.8,0.8,1.2,1.4,1.2c0.8,0,1.4-0.6,1.4-1.2s0-1-0.4-1.4c0,0,0,0,0-0.2H88c1.2,0.4,2.4,0.8,3.4,1.6c0.4,0.4,0.8,0.6,1,1.2
				c0.6,0.8,0.6,1.8,0,2.6c-0.6,1-1.4,1.6-2.4,2c0,0,0,0,0-0.2c0.2-0.4,0.2-0.6,0.2-1s-0.4-0.8-0.8-0.8c-0.6,0-1,0.4-1.4,0.6
				c-0.2,0-0.2,0.2-0.4,0.2c0,0,0,0,0-0.2c0-0.2-0.2-0.4-0.2-0.6c-0.2-0.4-0.6-0.4-1-0.2c-0.2,0.2-0.6,0.2-0.6,0.6
				c-0.6,0.6-0.8,1.4-1,2.4c0,0,0,0,0,0.2c0-0.2,0-0.4-0.2-0.6c-0.2-0.8-0.6-1.4-1-2c-0.2-0.2-0.4-0.2-0.6-0.4c-0.4-0.2-0.8,0-1,0.2
				c-0.2,0.2-0.2,0.4-0.2,0.6c0,0,0,0-0.2,0c-0.4-0.4-1-0.6-1.4-0.8c-0.2,0-0.2,0-0.4,0c-0.4,0-0.6,0.2-0.8,0.8c0,0.4,0.2,0.8,0.2,1
				v0.2l0,0c-1-0.4-1.8-1-2.4-1.8c-0.8-1-0.8-2.2,0-3.4c0.6-0.8,1.4-1.2,2.2-1.6c0.8-0.4,1.4-0.6,2.2-0.8c0,0,0,0-0.2,0.2
				c-0.4,0.6-0.6,1-0.4,1.8c0.4,1,1.6,1.2,2.4,0.4c0.2-0.2,0.4-0.6,0.4-1C83.6,359,83.6,358.4,83.6,357.8
				C83.6,358,83.6,357.8,83.6,357.8L83.6,357.8z"/>
		</g>
	</g>
</g>
<polygon fill="#8B5E3C" points="345.3,530 344.1,536.4 338.5,536.4 338.5,530 "/>
<path fill="#231F20" d="M338.5,536.4h5.6c0,0,2.2,7-5,7.4h-9.4c0,0-2-4.4,3.4-4.8C333.3,539,338.1,538.2,338.5,536.4z"/>
<polygon fill="#8B5E3C" points="370.1,530 371.5,536.4 377.1,536.4 377.1,530 "/>
<path fill="#231F20" d="M377.1,536.4h-5.6c0,0-2.2,7,5,7.4h9.4c0,0,2-4.4-3.4-4.8C382.3,539,377.5,538.2,377.1,536.4z"/>
<polygon fill="#F9BD91" points="340.1,418 337.9,530 345.9,530 361.5,438.2 370.1,530 377.9,530 380.7,417.4 "/>
<polygon fill="#8B5E3C" points="345.3,530 344.1,536.4 338.5,536.4 338.5,530 "/>
<path fill="#231F20" d="M338.5,536.4h5.6c0,0,2.2,7-5,7.4h-9.4c0,0-2-4.4,3.4-4.8C333.3,539,338.1,538.2,338.5,536.4z"/>
<polygon fill="#8B5E3C" points="370.1,530 371.5,536.4 377.1,536.4 377.1,530 "/>
<path fill="#231F20" d="M377.1,536.4h-5.6c0,0-2.2,7,5,7.4h9.4c0,0,2-4.4-3.4-4.8C382.3,539,377.5,538.2,377.1,536.4z"/>
<polygon fill="#BE1E2D" points="337.9,501.6 350.7,501.6 344.3,537.8 337.9,537.8 "/>
<polygon fill="#BE1E2D" points="378.5,502.4 367.1,502.6 370.7,537.2 377.9,537.2 "/>
<polygon fill="#24305B" points="339.7,419 334.9,537.8 346.7,538.4 361.9,443.2 369.1,538.4 380.7,538.4 380.7,419.4 "/>
<polygon fill="#231F20" points="344.5,339.8 334.3,312.8 319.7,315.4 336.3,361 339.1,346.6 "/>
<polygon fill="#F9BD91" points="334.3,312.8 330.1,300.6 341.9,271 334.9,266.8 318.5,301.4 321.1,315.4 "/>
<path fill="#F9BD91" d="M387.5,263c-5.2-17.8-12.6-14.8-14.6-12.8s3.8,10.2,3.8,10.2s-2.2-3.6-3.8-2.2s0.8,5.8,0.8,5.8
	s3.2,7.6,8.6,5.6C387.7,267.6,387.5,263,387.5,263z"/>
<polygon fill="#231F20" points="377.3,338.8 387.5,311.8 402.1,314.4 385.5,360 382.7,345.6 "/>
<polygon fill="#F9BD91" points="387.5,311.8 391.7,299.6 379.9,270 386.9,265.8 403.3,300.4 400.7,314.4 "/>
<path fill="#F9BD91" d="M373.9,297.8v32.4h-5v10.6c0,0-5.6,10.8-19,0v-22c0,0-4-0.8-4-5.6c0-4.8,4.8-2.4,4.8-2.4V298h23.2V297.8z"/>
<path fill="#E6E7E8" d="M356.9,320.6h16.2c0,0-2.8-5-8-5C359.7,315.6,356.9,320.6,356.9,320.6z"/>
<path fill="#E6E7E8" d="M356.9,320.6l-0.8,0.8c0,0,7.2,1.2,9.4-0.8c0,0,5.4,1,8.2,0.8l-0.6-1.2C372.9,320.2,361.9,319.2,356.9,320.6
	z"/>
<path fill="#52227C" d="M329.5,342.4c0,0,20-13,60.4,0l-7.6,87.8c0,0-16.6,1.4-43.6-0.2L329.5,342.4z"/>
<path fill="#F9BD91" d="M373.9,297.8v32.4h-5v10.6c0,0-5.6,10.8-19,0v-22c0,0-4-0.8-4-5.6c0-4.8,4.8-2.4,4.8-2.4V298h23.2V297.8z"/>
<path fill="#F9BD91" d="M349.9,340.8l10,17.2l9.2-17.2C368.9,340.8,360.7,330.4,349.9,340.8z"/>
<path fill="#F9BD91" d="M331.9,264.2c5.2-17.8,12.6-14.8,14.6-12.8c2.2,2-3.8,10.2-3.8,10.2s2.2-3.6,3.8-2.2
	c1.6,1.4-0.8,5.8-0.8,5.8s-3.2,7.6-8.6,5.6C331.7,268.8,331.9,264.2,331.9,264.2z"/>
<path fill="#F9BD91" d="M351.5,312.8l-0.4-11.6l22.8-1.2c0,0,1.8-8.2-13.8-8c-15.6,0.2-12.6,19.4-12.6,19.4"/>
<path fill="#231F20" d="M357.5,297c0.6-0.4,1.2-0.8,1.8-1.2s1-1,0.8-1.8c-0.2-0.8-1-1.2-1.8-1.2c-2-0.4-4.2-0.8-6.2-0.2
	c-2,0.4-4,1.6-5,3.4c-1.4,2.4-1.2,5.2-0.8,8c0.2,2.2,0.6,4.6,0.8,6.8c0.6-0.8,2-1,2.8-0.4c0.8,0.6,1,1.6,0.6,2.6c1,0,1.6,0,2.4,0
	c0.2-2.4,0-4.8-0.4-7.4c1,0.8,2.6,0,3.2-1c0.6-1,0.6-2.4,0.6-3.8C356.5,299.2,356.7,297.8,357.5,297z"/>
<path fill="#231F20" d="M373.5,296.4c0.4,0,0-1.8,0.2-2.4c0.2-2.2-1.6-4.2-3.6-5.2c-2-0.8-4.4-0.8-6.6-0.8c-1.2,0-2.4,0-3.6,0
	c-2.2,0-4.4,0.2-6.4,0.8c-2,0.8-3.8,2.2-4.4,4.2c-0.4,1.2,0,2.8,1,3.4c1,0.6,2.4,0,3.4-0.4c2-0.8,4-1.2,6.2-1.4
	c1.4-0.2,3-0.2,4.4,0.6c0.8,0.4,1.6,1.4,2.6,1.4c2,0.2,4-3.2,5.4-1.8C372.5,295.6,373.3,296.6,373.5,296.4z"/>
<path fill="#52227C" d="M347.3,341c0,0,12.4,10.4,25,0C372.3,341,359.5,382.4,347.3,341z"/>
<path fill="#F9BD91" d="M531.6,306.8v31h-5.2V348c0,0-5.8,10.4-20,0v-21c0,0-4.4-0.8-4.4-5.4c0-4.6,5-2.4,5-2.4v-12.4H531.6z"/>
<polygon fill="#8B5E3C" points="501.8,530 500.4,536 494.6,536 494.6,530 "/>
<path fill="#231F20" d="M494.6,536h5.8c0,0,2.2,6.6-5.2,7h-9.8c0,0-2.2-4.2,3.6-4.6C489,538.6,494,537.8,494.6,536z"/>
<polygon fill="#8B5E3C" points="527.8,530 529.2,536 535,536 535,530 "/>
<path fill="#231F20" d="M535,536h-5.8c0,0-2.2,6.6,5.2,7h9.8c0,0,2.2-4.2-3.6-4.6C540.6,538.6,535.6,537.8,535,536z"/>
<path fill="#E6E7E8" d="M513.8,328.8h17c0,0-3-4.8-8.6-4.8S513.8,328.8,513.8,328.8z"/>
<path fill="#E6E7E8" d="M513.8,328.8l-0.8,0.8c0,0,7.4,1.2,9.8-0.8c0,0,5.8,1,8.6,0.8l-0.6-1C530.6,328.4,519,327.4,513.8,328.8z"/>
<polygon fill="#C19368" points="496.2,422.2 493.8,530 502.2,530 518.8,441.8 527.8,530 536,530 539,421.6 "/>
<path fill="#BE1E2D" d="M485,349c0,0,21-10.8,63.4,0l-8,72.8c0,0-17.4,1.2-45.8-0.2L485,349z"/>
<polygon fill="#8B5E3C" points="501.8,530 500.4,536 494.6,536 494.6,530 "/>
<path fill="#231F20" d="M494.6,536h5.8c0,0,2.2,6.6-5.2,7h-9.8c0,0-2.2-4.2,3.6-4.6C489,538.6,494,537.8,494.6,536z"/>
<polygon fill="#8B5E3C" points="527.8,530 529.2,536 535,536 535,530 "/>
<path fill="#231F20" d="M535,536h-5.8c0,0-2.2,6.6,5.2,7h9.8c0,0,2.2-4.2-3.6-4.6C540.6,538.6,535.6,537.8,535,536z"/>
<path fill="#DDA885" d="M531.6,306.8v31h-5.2V348c0,0-5.8,10.4-20,0v-21c0,0-4.4-0.8-4.4-5.4c0-4.6,5-2.4,5-2.4v-12.4H531.6z"/>
<path fill="#231F20" d="M507.2,319.2v1.8h2h0.6v-5.8c0,0,3.8-1,4-2.8c0.2-2,0-3.6,0-3.6h17l0.8,2.4c0,0,1.4-3.8-0.8-5.8
	c-2.2-2-26.2-3-29.4,5c0,0-0.6,10.8,0.8,12.6c0,0-1-3.8,2-4C507,318.6,507.2,319.2,507.2,319.2z"/>
<path fill="#DDA885" d="M506.4,348.2l10.4,16.6l9.6-16.6C526.4,348.2,517.8,338.2,506.4,348.2z"/>
<path fill="#DDA885" d="M460.6,372.4c0,0-19,2-30.2-9.2c0,0-2.6-3.4-4.6-2.6c-2,0.8,0.2,3.8,0.2,3.8s-4.4-7.8-6.8-6.6
	c-2.6,1-8.2,6,4.4,16.4c0,0,26.6,16,42.6,7.4C466,381.6,474,368.8,460.6,372.4z"/>
<path fill="#DDA885" d="M567.8,337.4c0,0,10.8-15.8,6.2-31c0,0-1.8-4-0.2-5.4c1.6-1.4,3.4,2,3.4,2s-4.8-7.4-2.6-9.2
	c2.2-1.8,9.2-4.4,12.4,11.6c0,0,1.6,30.8-13.6,41C573.2,346.4,558.2,347.6,567.8,337.4z"/>
<path fill="#231F20" d="M374.1,290c-1-0.6-2-0.8-3.2-0.6c0.6-0.8,1.6-1.2,2.6-0.8c-1.2-0.6-2.6-0.8-4-0.8c0.8-0.6,1.6-0.8,2.6-0.8
	c-2.4-0.8-5,0.2-7.2,1.4c-2.2,1-4.4,2.2-5.6,4.2c-0.2,0.4-0.4,1,0,1.2c1-0.6,2.4-0.4,3.6,0.2c1.2,0.6,2.2,1.4,3.4,1.6
	c1.6,0.4,3.4,0,4.6-1.2c1.2,1.4,2.4,3,3.2,4.6c0.2,0.6,0.4,1.2,0.2,1.6c0.4-1.8,0.4-3.8,0-5.4c-0.2-0.8-0.6-1.6-0.4-2.2
	c0.2-0.8,1-1.4,1.6-1.2c-0.8-1-2-1.4-3.2-1.2C372.5,289.6,373.5,289.4,374.1,290z"/>
<path fill="#808285" d="M348.5,316.4c0,0-1.6,1.6-0.8,2.8c0,0,0.8,0.8,1.8-0.4l-0.4-0.2c0,0-0.2,0.6-0.8,0.4c-0.6-0.2-0.2-1.4,0.6-2
	C348.7,316.8,348.9,316.4,348.5,316.4z"/>
<path fill="#808285" d="M347.1,315.6c0,0-1.6,1.6-0.8,2.8c0,0,0.8,0.8,1.8-0.4l-0.4-0.2c0,0-0.2,0.6-0.8,0.4c-0.6-0.2-0.2-1.4,0.6-2
	C347.3,316,347.5,315.4,347.1,315.6z"/>
<g>
	<g id="MJhsYj.tif">
		<g>
			<path fill="#341351" d="M374.3,354.6c1.8,1.8,3.6,3.4,5.4,5.2c0,0,0,0,0.2,0c-6,7-12,14-18.2,21.2c-0.2-0.2-0.4-0.6-0.8-0.8
				c-4.8-5.6-9.6-11-14.2-16.6c-1-1.2-2-2.4-3-3.6l0,0l0,0l0.2-0.2c2-2,4-3.8,6-5.8l0,0c7.8,0,15.8,0,23.6,0
				C373.7,354,374.1,354.4,374.3,354.6z M349.3,360.8c0-0.8,0-1.8,0-2.6c-0.6,0.6-1.4,1.4-2,2c1,1.4,2.2,2.6,3.4,4
				c0.2-0.2,0.4-0.4,0.6-0.6c0.8-0.8,1.6-1.2,2.6-1.6c1.2-0.4,2.4-0.6,3.6-0.8c1.2-0.2,2.4-0.2,3.4-0.2c0.8,0,1.6,0,2.4,0
				c1.2,0,2.4-0.2,3.6-0.4c0.4-0.2,1-0.4,1.4-0.6c0.2-0.2,0.6-0.4,0.4-0.8c0-0.4-0.2-0.6-0.4-1c-0.4-0.4-0.8-0.6-1.2-1
				c-0.8-0.4-1.6-0.6-2.6-0.6c-0.8,0-1.6-0.2-2.4-0.2c-1.2,0-2.4,0.2-3.6,0.8c-0.8,0.4-1.4,0.8-2,1.6c-0.4,0.6-0.4,1-0.4,1.6
				c0,0.2,0,0.2,0,0.4C353.7,360.8,351.5,360.8,349.3,360.8z M368.9,366.6c-0.6,0-1.4,0.2-2,0.2c-0.6,0-1.2,0.2-2,0.2
				c-0.6,0-1.4,0-2,0.2c-1,0-1.8,0.2-2.8,0.2c-0.6,0-1.4,0-2,0.2c-0.8,0-1.6,0.2-2.4,0.4c-0.2,0-0.4,0.2-0.6,0.2
				c-0.2,0.2-0.2,0.2-0.2,0.4c0,0.2,0.2,0.4,0.4,0.6c0.4,0.4,1,0.6,1.4,0.6c1.2,0.2,2.4,0.2,3.4,0.2c0.6,0,1,0,1.6,0h0.2
				c0.6-0.8,1.4-1.2,2.4-1.6c1.2-0.4,2.4-0.4,3.8,0.2c0.2,0.2,0.6,0.2,0.8,0.4c0.6-0.8,1.4-1.6,2.2-2.6
				C370.3,366.4,369.5,366.4,368.9,366.6z M361.7,377c1-1.2,2.2-2.4,3.2-3.8c-2,0.4-4.2,0.6-6.2,0.2l0,0
				C359.7,374.6,360.7,375.8,361.7,377z M374.7,361.8c0.4-0.6,1-1.2,1.4-1.6c0,0,0,0-0.2-0.2c-1.2-1.2-2.4-2.4-3.6-3.6l-0.2-0.2
				c-0.2,0-0.6,0-0.8,0C372.9,357.8,374.1,359.6,374.7,361.8z M354.3,356.8c0.2-0.2,0.2-0.2,0.4-0.4c-0.2,0-0.2,0-0.4,0
				S354.3,356.6,354.3,356.8z"/>
			<path fill="#FFF200" d="M355.9,360.8c-2.2,0-4.4,0-6.6,0c0-0.8,0-1.8,0-2.6c-0.6,0.6-1.4,1.4-2,2c1,1.4,2.2,2.6,3.4,4
				c0.2-0.2,0.4-0.4,0.6-0.6c0.8-0.8,1.6-1.2,2.6-1.6c1.2-0.4,2.4-0.6,3.6-0.8c1.2-0.2,2.4-0.2,3.4-0.2c0.8,0,1.6,0,2.4,0
				c1.2,0,2.4-0.2,3.6-0.4c0.4-0.2,1-0.4,1.4-0.6c0.2-0.2,0.6-0.4,0.4-0.8c0-0.4-0.2-0.6-0.4-1c-0.4-0.4-0.8-0.6-1.2-1
				c-0.8-0.4-1.6-0.6-2.6-0.6c-0.8,0-1.6-0.2-2.4-0.2c-1.2,0-2.4,0.2-3.6,0.8c-0.8,0.4-1.4,0.8-2,1.6c-0.4,0.6-0.4,1-0.4,1.6
				C355.9,360.6,355.9,360.6,355.9,360.8z"/>
			<path fill="#FFF200" d="M370.9,366.2c-0.8,0.2-1.4,0.2-2.2,0.2c-0.6,0-1.4,0.2-2,0.2c-0.6,0-1.2,0.2-2,0.2c-0.6,0-1.4,0-2,0.2
				c-1,0-1.8,0.2-2.8,0.2c-0.6,0-1.4,0-2,0.2c-0.8,0-1.6,0.2-2.4,0.4c-0.2,0-0.4,0.2-0.6,0.2c-0.2,0.2-0.2,0.2-0.2,0.4
				c0,0.2,0.2,0.4,0.4,0.6c0.4,0.4,1,0.6,1.4,0.6c1.2,0.2,2.4,0.2,3.4,0.2c0.6,0,1,0,1.6,0h0.2c0.6-0.8,1.4-1.2,2.4-1.6
				c1.2-0.4,2.4-0.4,3.8,0.2c0.2,0.2,0.6,0.2,0.8,0.4C369.5,368,370.3,367.2,370.9,366.2z"/>
			<path fill="#FFF200" d="M358.7,373.4c1,1.2,2,2.4,3,3.6c1-1.2,2.2-2.4,3.2-3.8C362.9,373.6,360.7,373.8,358.7,373.4L358.7,373.4z
				"/>
			<path fill="#FFF200" d="M371.3,356.4c1.6,1.6,2.8,3.4,3.4,5.4c0.4-0.6,1-1.2,1.4-1.6c0,0,0,0-0.2-0.2c-1.2-1.2-2.4-2.4-3.6-3.6
				l-0.2-0.2C371.9,356.4,371.7,356.4,371.3,356.4z"/>
			<path fill="#FFFFFF" d="M354.1,356.4c0,0.2,0,0.2,0.2,0.4c0.2-0.2,0.2-0.2,0.4-0.4C354.5,356.4,354.3,356.4,354.1,356.4z"/>
		</g>
	</g>
	<path fill="#FFF200" d="M354.9,356.4h-2v2C352.9,358.2,354.1,356.6,354.9,356.4z"/>
</g>
<path fill="#231F20" d="M368.9,339.2v1.6l0.6,93.4h15.6l6.6-89.2c0,0,14.6-33.2,14.2-42.6l-16.2-35.6l-9.8,5l11.8,27.8l-14.4,39.2
	l-5-0.8l1.6-4.6h-5V339.2z"/>
<rect x="371.1" y="354.4" width="15.4" height="5.6"/>
<path fill="#808285" d="M379.9,357.8l-0.6,0.6c-0.6,0.6-1.4,0.4-2,0l-0.6-0.6c-0.6-0.6-0.4-1.4,0-2l0.6-0.6c0.6-0.6,1.4-0.4,2,0
	l0.6,0.6C380.5,356.4,380.5,357.4,379.9,357.8z"/>
<polygon points="372.3,338 372.3,340.6 382.3,341.8 379.9,337 372.7,336.6 "/>
<polygon points="379.1,270.6 380.9,274 391.7,269.8 389.1,264.8 "/>
<path d="M376.1,417.8v-13c0-0.6,0.6-1.2,1.2-1.2h0.8c0.6,0,1.2,0.6,1.2,1.2v13c0,0.6-0.6,1.2-1.2,1.2h-0.8
	C376.7,419,376.1,418.4,376.1,417.8z"/>
<path fill="#231F20" d="M350.5,339v1.6l-0.6,93.4h-15.6l-5-91.6c0,0-13-31.4-12.6-40.6l16.8-33.6l9,2.8l-11.6,29.6l13.2,37l3.2,0.2
	l-1.6-4.6h5v5.8H350.5z"/>
<rect x="333.7" y="354.4" width="15.4" height="5.6"/>
<path fill="#808285" d="M342.9,357.8l-0.6,0.6c-0.6,0.6-1.4,0.4-2,0l-0.6-0.6c-0.6-0.6-0.4-1.4,0-2l0.6-0.6c0.6-0.6,1.4-0.4,2,0
	l0.6,0.6C343.5,356.4,343.5,357.4,342.9,357.8z"/>
<polygon points="341.9,332 341.3,339.2 348.9,340 346.7,336 "/>
<polygon points="340.5,276.2 342.9,270 332.9,267.2 331.3,271.8 "/>
<path d="M339.7,417.8v-13c0-0.6,0.6-1.2,1.2-1.2h0.8c0.6,0,1.2,0.6,1.2,1.2v13c0,0.6-0.6,1.2-1.2,1.2h-0.8
	C340.3,419,339.7,418.4,339.7,417.8z"/>
<path fill="#231F20" d="M511.4,318.4c3-1.6,5-5,5-8.2c0.8,2.2,0.4,4.6-1,6.6c3.6-0.8,6.6-4.2,7-7.8c0.4,2-0.2,4.2-1.4,5.8
	c1.8,0,3.4-1,4.6-2.4c1.2-1.4,1.8-3,2-4.8c0.8,2,0.4,4.4-0.8,6.2c1.2-0.4,2.2-1.4,3-2.6c0.6-1.2,1-2.4,1.2-3.8c1,2,0.4,4.4-0.2,6.4
	c2.2-1.4,3.6-4.2,3.4-6.6c-0.2-2.6-1.8-5-4.2-6.2c-1.8-0.8-3.6-1-5.6-1.2c-4.6-0.2-9.2,0.2-13.6,1c-1.4,0.2-3,0.6-4.2,1.4
	c-0.8,0.6-1.4,1.2-2,2c-1.6,1.8-3.2,3.8-3.8,6c-0.4,1.2-0.6,2.4-0.6,3.8c0,3.4,0.6,6.8,2.8,9.4c-0.4-1-0.8-2.2-0.4-3.2
	c0.6-1.4,2.6-1.8,4.4-1.8c0,2.2,0.2,4.6,2,6c-0.2-0.8-0.2-1.8-0.2-2.6c1,1.2,1.8,2.4,2.8,3.6c-1-1.6-1.6-3.6-1.4-5.6
	c1,1.2,2,2.4,3,3.6c-1.2-1-1.8-2.6-1.8-4c-0.2-1.6,0.2-3,0.4-4.6C512,316,512,317.4,511.4,318.4z"/>
<path fill="#231F20" d="M507.8,335c-0.6,0.4-1.4,0-2-0.6c-1-0.8-1.6-2-2.2-3c0.2,0.8,0.6,1.6,0.8,2.2c0,0.2,0.2,0.4,0,0.6
	c0,0-0.2,0-0.4,0c-0.4,0-0.8-0.4-1.2-0.8c-1.2-1.6-1.8-3.6-2-5.6c-0.2-2,0.2-4,0.8-6c0.6,1,1,2,1.4,3s1.4,2,2.4,2
	c0.2,0,0.4,0,0.6,0.2c0,0.2,0,0.2,0,0.4c0,1.8,0.6,3.4,1.4,5c-0.6-0.4-1-0.8-1.4-1.4C506.2,332.4,506.8,333.8,507.8,335z"/>
<g>
	<path fill="#231F20" d="M516,319.6c0,1.2,1.2,2.2,2.6,2.2h3.2c1.4,0,2.6-1,2.6-2.2c0-1.2-1.2-2.2-2.6-2.2h-3.2
		C517.2,317.4,516,318.4,516,319.6z M516.6,319.6c0-1,1-1.8,2-1.8h3.2c1.2,0,2,0.8,2,1.8c0,1-1,1.8-2,1.8h-3.2
		C517.6,321.4,516.6,320.6,516.6,319.6z"/>
	<path fill="#231F20" d="M525.6,319.6c0,1.2,1.2,2.2,2.6,2.2h3.2c1.4,0,2.6-1,2.6-2.2c0-1.2-1.2-2.2-2.6-2.2h-3.2
		C526.8,317.4,525.6,318.4,525.6,319.6z M526.2,319.6c0-1,1-1.8,2-1.8h3.2c1.2,0,2,0.8,2,1.8c0,1-1,1.8-2,1.8h-3.2
		C527.2,321.4,526.2,320.6,526.2,319.6z"/>
	<polygon fill="#231F20" points="525.8,319.6 524.2,319.6 524.2,318.8 526,318.8 	"/>
	<polyline fill="#231F20" points="516.2,319.8 507.4,320.2 506.4,319.8 516.2,318.8 	"/>
</g>
<path fill="#BE1E2D" d="M506.4,348.2c0,0,6.8,5.6,20,0l3.4,2.6l-4.6,24.2c0,0-11.6,5-12.2,4.6c-0.4-0.6-6-11.4-6.6-12.4
	C505.8,366.2,506.4,348.2,506.4,348.2z"/>
<polygon fill="#1F4163" points="489,424.6 491.2,536.4 504.4,536 518,455 524.2,537 539,536.4 544.6,424 "/>
<path fill="#272F35" d="M536,345.4c0,0,39.2,4.2,38.8-33.6l13-1.8c0,0,6.6,34.6-37.8,57.2L536,345.4z"/>
<path fill="#272F35" d="M432.5,365l-5,12.6c0,0,34,23.2,61.4-7.8l-7.4-23.8C481.6,346,468.8,386.8,432.5,365z"/>
<polygon fill="#BE1E2D" points="490.4,439.8 540.4,441 536,412.4 506,413.6 "/>
<path fill="#272F35" d="M526.4,345l2.4,109.4l24.2,2L550.8,349C550.8,349,534.8,343.6,526.4,345z"/>
<path fill="#272F35" d="M506,342.2l-2.4,109.4l-23.4,4.8l1.6-110C481.6,346.2,497.6,340.8,506,342.2z"/>
<path fill="#090B0C" d="M527.4,390.2l8.6-22.6l-6.4-5.6c0,0,9.2-10,9.2-11.2c0-1.2-12.4-10.4-12.4-10.4L527.4,390.2z"/>
<polygon fill="#090B0C" points="506.4,339.6 504.8,392.4 494.2,365.4 502.2,361.2 493.6,350.8 "/>
<g>
	<polygon fill="#ED1C24" points="587.2,279.2 597.6,263 612,276.2 605.6,286 	"/>
	
		<ellipse transform="matrix(-0.8442 -0.536 0.536 -0.8442 947.2518 817.6138)" fill="#FFFFFF" cx="592.4" cy="271.2" rx="1.8" ry="9.6"/>
	<path fill="#ED1C24" d="M605.6,286c0,0,5.8-1.6,6.2-9.8C612,276.2,605.6,281,605.6,286z"/>
	
		<ellipse transform="matrix(-0.8442 -0.536 0.536 -0.8442 947.5995 818.0159)" fill="#939598" cx="592.7" cy="271.3" rx="1.4" ry="8.8"/>
</g>
</svg>
