<?xml version="1.0" encoding="utf-8"?>
<!-- Generator: Adobe Illustrator 18.1.1, SVG Export Plug-In . SVG Version: 6.00 Build 0)  -->
<!DOCTYPE svg PUBLIC "-//W3C//DTD SVG 1.1//EN" "http://www.w3.org/Graphics/SVG/1.1/DTD/svg11.dtd">
<svg version="1.1" id="Layer_1" xmlns="http://www.w3.org/2000/svg" xmlns:xlink="http://www.w3.org/1999/xlink" x="0px" y="0px"
	 viewBox="0 0 612 792" enable-background="new 0 0 612 792" xml:space="preserve">
<g>
	<g>
		<path fill="#515354" d="M419.7,362.1v13.3h2v4.4c0,0,2.2,4.5,7.7,0v-9c0,0,1.6-0.3,1.6-2.2s-1.9-1-1.9-1v-5.3L419.7,362.1
			L419.7,362.1z"/>
		<polygon fill="#515354" points="419.2,457.1 418.7,459.7 416.4,459.7 416.4,457.1 		"/>
		<path fill="#515354" d="M416.4,459.7h2.2c0,0,0.9,2.8-2,3h-3.8c0,0-0.9-1.8,1.5-1.9C414.2,460.9,416.2,460.5,416.4,459.7z"/>
		<polygon fill="#515354" points="429.4,457.1 429.9,459.7 432.2,459.7 432.2,457.1 		"/>
		<path fill="#515354" d="M432.2,459.7H430c0,0-0.9,2.8,2,3h3.8c0,0,0.9-1.8-1.5-1.9C434.3,460.9,432.4,460.5,432.2,459.7z"/>
		<path fill="#515354" d="M426.7,371.4h-6.6c0,0,1.2-2,3.3-2S426.7,371.4,426.7,371.4z"/>
		<polygon fill="#515354" points="417,411.3 416.1,457.1 419.4,457.1 425.8,419.6 429.4,457.1 432.5,457.1 433.7,411.1 		"/>
		<path fill="#515354" d="M412.7,380.1c0,0,8.2-4.6,24.7,0l-3.1,31c0,0-6.8,0.5-17.8-0.1L412.7,380.1z"/>
		<polygon fill="#515354" points="419.2,457.1 418.7,459.7 416.4,459.7 416.4,457.1 		"/>
		<path fill="#515354" d="M416.4,459.7h2.2c0,0,0.9,2.8-2,3h-3.8c0,0-0.9-1.8,1.5-1.9C414.2,460.9,416.2,460.5,416.4,459.7z"/>
		<polygon fill="#515354" points="429.4,457.1 429.9,459.7 432.2,459.7 432.2,457.1 		"/>
		<path fill="#515354" d="M432.2,459.7H430c0,0-0.9,2.8,2,3h3.8c0,0,0.9-1.8-1.5-1.9C434.3,460.9,432.4,460.5,432.2,459.7z"/>
		<polygon fill="#515354" points="416.1,445.5 421.4,445.5 418.8,460.4 416.1,460.4 		"/>
		<polygon fill="#515354" points="432.8,445.9 428,445.9 429.5,460 432.5,460 		"/>
		<path fill="#515354" d="M420.9,380.5l4.3,7.1l4.2-7.1h4.6c0,0-1.3-3.3-5.8-3.7c-4.5-0.4-9.6-0.6-11.2,3.7H420.9z"/>
		<path fill="#515354" d="M419.7,362.1v13.3h2v4.4c0,0,2.2,4.5,7.7,0v-9c0,0,1.6-0.3,1.6-2.2s-1.9-1-1.9-1v-5.3L419.7,362.1
			L419.7,362.1z"/>
		<path fill="#515354" d="M421.1,379.7l4.1,7.1l3.8-7.1C428.8,379.7,425.4,375.4,421.1,379.7z"/>
		<path fill="#515354" d="M400.9,387.3c0,0-7.3-1.6-10.2-7.6c0,0-0.6-1.7-1.5-1.6c-0.8,0.1-0.4,1.5-0.4,1.5s-0.8-3.7-1.8-3.6
			c-1.1,0.1-3.7,1.4-0.2,7.3c0,0,8,10,15,8.4C401.9,391.6,406.4,387.4,400.9,387.3z"/>
		<path fill="#515354" d="M412.8,379.9c0,0-3.8,5.8-10.6,7c0,0-0.8,4.2,1.3,5.2c0,0,8.4-1.5,11.7-5.3L412.8,379.9z"/>
		<path fill="#515354" d="M447.3,352c0.2-7.5-3.1-7.3-4.2-6.8s0.2,4.5,0.2,4.5s-0.4-1.7-1.3-1.4c-0.8,0.4-0.5,2.4-0.5,2.4
			s0.4,3.4,2.6,3.3C446.7,353.9,447.3,352,447.3,352z"/>
		<polygon fill="#515354" points="434,380.3 441.3,371 446.6,373.8 434.5,389.5 435.2,383.6 		"/>
		<polygon fill="#515354" points="441.3,371 444.4,366.7 443.5,353.8 446.7,352.9 448.9,368.5 446.1,373.6 		"/>
		<path fill="#515354" d="M428.3,363.7v5.6l0.8-0.1l0.1-1.9l0.7-0.2v-6.6c0,0-6.4-6.3-10.3,1.5c0,0-1.5,1-1.4,1.2
			c0.3,0.2,5.4-1.2,5.4-1.2l-1.2,1.2l5.7-0.8L428.3,363.7z"/>
		<path fill="#515354" d="M416.4,411.1c-0.4,0.8-1.3,49.6-1.3,49.6l3.7-0.3l6.7-33.8l3.4,33.8l4.5,0.3l0.3-49.6H416.4z"/>
	</g>
	<g>
		<path fill="#515354" d="M311.3,360.4v13.3h2v4.4c0,0,2.2,4.5,7.7,0v-9c0,0,1.6-0.3,1.6-2.2s-1.9-1-1.9-1v-5.3L311.3,360.4
			L311.3,360.4z"/>
		<polygon fill="#515354" points="322.9,455.5 323.5,458 325.7,458 325.7,455.5 		"/>
		<polygon fill="#515354" points="312.8,455.5 312.2,458 310,458 310,455.5 		"/>
		<path fill="#515354" d="M318.2,369.7h-6.6c0,0,1.2-2,3.3-2C317,367.6,318.2,369.7,318.2,369.7z"/>
		<path fill="#515354" d="M318.2,369.7l0.3,0.4c0,0-2.9,0.5-3.8-0.4c0,0-2.2,0.5-3.3,0.4l0.3-0.5
			C311.7,369.6,316.2,369.2,318.2,369.7z"/>
		<polygon fill="#515354" points="325.1,409.5 326,455.5 322.7,455.5 316.4,417.8 312.8,455.5 309.7,455.5 308.4,409.3 		"/>
		<path fill="#515354" d="M329.4,378.3c0,0-8.2-4.6-24.7,0l3.1,31.1c0,0,6.8,0.5,17.8-0.1L329.4,378.3z"/>
		<polygon fill="#515354" points="322.9,455.5 323.5,458 325.7,458 325.7,455.5 		"/>
		<path fill="#515354" d="M325.7,458h-2.2c0,0-0.9,2.8,2,3h3.8c0,0,0.9-1.8-1.5-1.9C327.9,459.2,325.9,458.8,325.7,458z"/>
		<polygon fill="#515354" points="312.8,455.5 312.2,458 310,458 310,455.5 		"/>
		<path fill="#515354" d="M310,458h2.2c0,0,0.9,2.8-2,3h-3.8c0,0-0.9-1.8,1.5-1.9C307.8,459.2,309.8,458.8,310,458z"/>
		<polygon fill="#515354" points="326,443.8 320.7,443.8 323.3,458.7 326,458.7 		"/>
		<polygon fill="#515354" points="309.4,444.2 314,444.2 312.6,458.4 309.7,458.3 		"/>
		<path fill="#515354" d="M321.3,378.8l-4.3,7.1l-4.2-7.1h-4.6c0,0,1.3-3.3,5.8-3.7s9.6-0.6,11.2,3.7H321.3z"/>
		<path fill="#515354" d="M311.3,360.4v13.3h2v4.4c0,0,2.2,4.5,7.7,0v-9c0,0,1.6-0.3,1.6-2.2s-1.9-1-1.9-1v-5.3L311.3,360.4
			L311.3,360.4z"/>
		<path fill="#515354" d="M321.1,378L317,385l-3.8-7.1C313.3,378,316.6,373.7,321.1,378z"/>
		<path fill="#515354" d="M341.2,385.5c0,0,7.3-1.6,10.2-7.6c0,0,0.6-1.7,1.5-1.6c0.8,0.1,0.4,1.5,0.4,1.5s0.8-3.7,1.8-3.6
			c1.1,0.1,3.7,1.4,0.2,7.3c0,0-8,10-15,8.4C340.3,390,335.8,385.8,341.2,385.5z"/>
		<path fill="#515354" d="M329.4,378.3c0,0,3.8,5.8,10.6,7c0,0,0.8,4.2-1.3,5.2c0,0-8.4-1.5-11.7-5.3L329.4,378.3z"/>
		<path fill="#515354" d="M338.3,390.3c0,0,1.8-2.7,0.9-5.3l1.8,0.3c0,0,0,4.4-1.4,5.2L338.3,390.3z"/>
		<path fill="#515354" d="M292.1,383.6c0,0-7-2.8-8.8-9.2c0,0-0.3-1.8-1.2-1.8c-0.9,0-0.6,1.5-0.6,1.5s-0.1-3.8-1.2-3.9
			c-1.1-0.1-3.9,0.8-1.4,7.2c0,0,6.3,11.1,13.4,10.8C292.3,388.1,297.3,384.7,292.1,383.6z"/>
		<path fill="#515354" d="M304.9,378.3c0,0-4.7,5.1-11.7,5.1c0,0-1.5,4,0.4,5.3c0,0,8.5-0.1,12.5-3.3L304.9,378.3z"/>
		<path fill="#515354" d="M294.1,388.8c0,0-1.4-3,0-5.4h-1.8c0,0-0.8,4.3,0.5,5.4H294.1z"/>
		<path fill="#515354" d="M320.8,365.7l-0.7-4.2l-8.9-0.5c0,0-0.7-3.2,5.4-3.1c6.1,0,4.9,7.5,4.9,7.5"/>
		<polygon fill="#515354" points="325.1,409.5 327.6,458.4 322.7,458.7 316.6,424.1 314,458.4 308.1,458.4 307.8,409.4 		"/>
	</g>
	<g>
		<polygon fill="#515354" points="289.5,371.8 294.1,359.7 300.6,360.8 293.1,381.3 291.9,374.9 		"/>
		<polygon fill="#515354" points="294.1,359.7 295.9,354.2 290.6,340.8 293.7,338.9 301.2,354.4 300,360.8 		"/>
		<path fill="#515354" d="M270.1,337.2c2.3-8,5.6-6.7,6.6-5.8c1,0.9-1.7,4.5-1.7,4.5s1-1.6,1.7-1c0.8,0.7-0.3,2.6-0.3,2.6
			s-1.5,3.4-3.9,2.5C270.1,339.3,270.1,337.2,270.1,337.2z"/>
		<polygon fill="#515354" points="274.6,371.4 270.1,359.2 263.5,360.3 271,380.9 272.2,374.4 		"/>
		<polygon fill="#515354" points="270.1,359.2 268.2,353.7 273.5,340.3 270.4,338.4 262.9,354.1 264.1,360.3 		"/>
		<path fill="#515354" d="M276.2,352.9v14.5h2.2v4.8c0,0,2.5,4.8,8.6,0v-10c0,0,1.8-0.4,1.8-2.5s-2.1-1.1-2.1-1.1v-5.8H276.2z"/>
		<polygon fill="#515354" points="289.1,457.4 289.6,460.3 292.2,460.3 292.2,457.4 		"/>
		<path fill="#515354" d="M292.2,460.3h-2.5c0,0-1,3.1,2.2,3.3h4.2c0,0,1-1.9-1.5-2.1C294.5,461.5,292.4,461.1,292.2,460.3z"/>
		<polygon fill="#515354" points="277.8,457.4 277.3,460.3 274.8,460.3 274.8,457.4 		"/>
		<path fill="#515354" d="M274.8,460.3h2.5c0,0,1,3.1-2.2,3.3H271c0,0-1-1.9,1.5-2.1C272.4,461.5,274.5,461.1,274.8,460.3z"/>
		<path fill="#515354" d="M283.8,363.1h-7.3c0,0,1.3-2.2,3.7-2.2C282.6,360.8,283.8,363.1,283.8,363.1z"/>
		<path fill="#515354" d="M283.8,363.1l0.4,0.4c0,0-3.2,0.6-4.2-0.4c0,0-2.4,0.5-3.7,0.4l0.3-0.5C276.7,363,281.6,362.5,283.8,363.1
			z"/>
		<polygon fill="#515354" points="291.5,407 292.5,457.4 288.9,457.4 281.8,416.1 277.8,457.4 274.5,457.4 273.1,406.7 		"/>
		<path fill="#515354" d="M296.2,372.5c0,0-9-5-27.2,0l3.4,34.2c0,0,7.5,0.5,19.6-0.1L296.2,372.5z"/>
		<polygon fill="#515354" points="289.1,457.4 289.6,460.3 292.2,460.3 292.2,457.4 		"/>
		<path fill="#515354" d="M292.2,460.3h-2.5c0,0-1,3.1,2.2,3.3h4.2c0,0,1-1.9-1.5-2.1C294.5,461.5,292.4,461.1,292.2,460.3z"/>
		<polygon fill="#515354" points="277.8,457.4 277.3,460.3 274.8,460.3 274.8,457.4 		"/>
		<path fill="#515354" d="M274.8,460.3h2.5c0,0,1,3.1-2.2,3.3H271c0,0-1-1.9,1.5-2.1C272.4,461.5,274.5,461.1,274.8,460.3z"/>
		<polygon fill="#515354" points="292.5,444.6 286.6,444.6 289.6,461 292.5,461 		"/>
		<polygon fill="#515354" points="274.1,445 279.3,445 277.6,460.6 274.5,460.6 		"/>
		<path fill="#515354" d="M276.2,352.9v14.5h2.2v4.8c0,0,2.5,4.8,8.6,0v-10c0,0,1.8-0.4,1.8-2.5s-2.1-1.1-2.1-1.1v-5.8H276.2z"/>
		<path fill="#515354" d="M287,372.2l-4.5,7.7l-4.1-7.7C278.4,372.2,282.2,367.5,287,372.2z"/>
		<path fill="#515354" d="M295.2,337.7c-2.3-8-5.6-6.7-6.6-5.8c-1,0.9,1.7,4.5,1.7,4.5s-1-1.6-1.7-1c-0.8,0.7,0.3,2.6,0.3,2.6
			s1.5,3.4,3.9,2.5C295.1,339.8,295.2,337.7,295.2,337.7z"/>
		<path fill="#515354" d="M286.3,359.7l0.2-5.2l-10.3-0.5c0,0-0.8-3.7,6.2-3.6c7,0,5.7,8.7,5.7,8.7"/>
		<polygon fill="#515354" points="291.6,407.4 293.1,462.1 289.1,462.1 281.6,418.3 278.3,461.6 273.8,462.1 273.1,407.7 		"/>
		<path fill="#515354" d="M288.2,358.2c-0.7-0.3-1.5,0.2-1.7,0.9c-0.3,0.7-0.2,1.5,0,2.1c-0.5,0-0.9,0-1.4,0c0.1-2,0.3-4.1,0.4-6.1
			c-0.4,0.6-0.6,1.3-0.4,1.9c-0.9-1.1-1.3-2.6-1-4c-0.6,1-0.8,2.1-0.4,3.2c-1.1-1-1.5-2.5-1.4-4c-0.8,0.7-1.2,1.9-1,2.9
			c-0.8-0.8-1.3-1.9-1.2-3.1c-0.7,1-0.9,2.1-0.6,3.3c-0.8-0.8-1.2-1.9-1.1-3c-0.7,0.8-1.1,1.9-0.9,2.9c-0.7-0.5-0.7-1.5-0.7-2.4
			c-0.7,0.7-1,1.7-0.8,2.7c-0.5-0.8-0.9-1.5-1.2-2.4s-0.3-2,0.4-2.6c-0.2-1,0.1-2,0.8-2.7c-0.2,0.9,0.2,1.8,1,2.4
			c-0.3-1.4,0.3-2.8,1.4-3.6c-0.5,0.9,0.1,1.9,0.7,2.8c-0.4-1,0.2-2.2,1.2-2.6c-0.3,0.7-0.1,1.5,0.4,2.1c0-0.9,0.3-1.7,0.9-2.3
			c-0.2,1-0.2,2.2,0.7,2.7c0-0.5,0.1-1.1,0.4-1.5c0.1,1,0.7,1.9,1.5,2.5c0.7,0,1.3-0.7,1.3-1.3c0.2,1.1,1.1,1.8,1.6,2.8
			c1.3,1.8,1.7,4.1,1.5,6.3c0,0.1,0,0.3-0.2,0.3c-0.2,0.1-0.3-0.1-0.4-0.2c-0.4-0.4-1-0.5-1.5-0.2"/>
	</g>
	<g>
		<path fill="#515354" d="M398.2,360.9v13.3h-2v4.4c0,0-2.2,4.5-7.7,0v-9c0,0-1.6-0.3-1.6-2.2s1.9-1,1.9-1V361L398.2,360.9
			L398.2,360.9z"/>
		<polygon fill="#515354" points="398.7,456.1 399.2,458.6 401.5,458.6 401.5,456.1 		"/>
		<path fill="#515354" d="M401.5,458.6h-2.3c0,0-0.9,2.8,2,3h3.8c0,0,0.9-1.8-1.5-1.9C403.7,459.7,401.7,459.4,401.5,458.6z"/>
		<polygon fill="#515354" points="388.6,456.1 388,458.6 385.8,458.6 385.8,456.1 		"/>
		<path fill="#515354" d="M385.8,458.6h2.2c0,0,0.9,2.8-2,3h-3.8c0,0-0.9-1.8,1.5-1.9C383.5,459.7,385.6,459.4,385.8,458.6z"/>
		<path fill="#515354" d="M391.3,370.2h6.6c0,0-1.2-2-3.3-2C392.4,368.2,391.3,370.2,391.3,370.2z"/>
		<polygon fill="#515354" points="400.9,410.1 401.8,456.1 398.5,456.1 392,418.4 388.6,456.1 385.4,456.1 384.2,409.9 		"/>
		<path fill="#515354" d="M405.2,378.9c0,0-8.2-4.6-24.7,0l3.1,31.1c0,0,6.8,0.5,17.8-0.1L405.2,378.9z"/>
		<polygon fill="#515354" points="398.7,456.1 399.2,458.6 401.5,458.6 401.5,456.1 		"/>
		<path fill="#515354" d="M401.5,458.6h-2.3c0,0-0.9,2.8,2,3h3.8c0,0,0.9-1.8-1.5-1.9C403.7,459.7,401.7,459.4,401.5,458.6z"/>
		<polygon fill="#515354" points="388.6,456.1 388,458.6 385.8,458.6 385.8,456.1 		"/>
		<path fill="#515354" d="M385.8,458.6h2.2c0,0,0.9,2.8-2,3h-3.8c0,0-0.9-1.8,1.5-1.9C383.5,459.7,385.6,459.4,385.8,458.6z"/>
		<polygon fill="#515354" points="401.8,444.4 396.5,444.4 399.1,459.3 401.8,459.3 		"/>
		<polygon fill="#515354" points="385.1,444.7 389.8,444.7 388.4,458.9 385.4,458.9 		"/>
		<path fill="#515354" d="M397.1,379.3l-4.3,7.1l-4.2-7.1H384c0,0,1.3-3.3,5.8-3.7c4.5-0.4,9.6-0.6,11.2,3.7H397.1z"/>
		<path fill="#515354" d="M398.2,360.9v13.3h-2v4.4c0,0-2.2,4.5-7.7,0v-9c0,0-1.6-0.3-1.6-2.2s1.9-1,1.9-1V361L398.2,360.9
			L398.2,360.9z"/>
		<path fill="#515354" d="M396.9,378.5l-4.1,7.1l-3.8-7.1C389,378.5,392.4,374.3,396.9,378.5z"/>
		<path fill="#515354" d="M417,386.1c0,0,7.3-1.6,10.2-7.6c0,0,0.6-1.7,1.5-1.6c0.8,0.1,0.4,1.5,0.4,1.5s0.8-3.7,1.8-3.6
			c1.1,0.1,3.7,1.4,0.2,7.3c0,0-8,10-15,8.4C415.9,390.4,411.6,386.4,417,386.1z"/>
		<path fill="#515354" d="M405.2,378.7c0,0,3.8,5.8,10.6,7c0,0,0.8,4.2-1.3,5.2c0,0-8.4-1.5-11.7-5.3L405.2,378.7z"/>
		<path fill="#515354" d="M370.6,350.9c-0.2-7.5,3.1-7.3,4.2-6.8c1.1,0.5-0.2,4.5-0.2,4.5s0.4-1.7,1.3-1.4c0.8,0.4,0.5,2.4,0.5,2.4
			s-0.4,3.4-2.6,3.3C371.4,352.8,370.6,350.9,370.6,350.9z"/>
		<polygon fill="#515354" points="383.9,379.1 376.7,369.8 371.2,372.6 383.4,388.3 382.8,382.4 		"/>
		<polygon fill="#515354" points="376.7,369.8 373.5,365.6 374.4,352.6 371.2,351.7 369,367.3 371.8,372.4 		"/>
		<path fill="#515354" d="M389.6,362.6v5.6l-0.8-0.1l-0.1-1.9l-0.7-0.2v-6.6c0,0,6.4-6.3,10.3,1.5c0,0,1.5,1,1.4,1.2
			c-0.2,0.2-5.4-1.2-5.4-1.2l1.2,1.2l-5.7-0.8L389.6,362.6z"/>
		<path fill="#515354" d="M401.4,409.9c0.4,0.8,1.3,49.6,1.3,49.6l-3.7-0.3l-6.7-33.8l-3.4,33.8l-4.5,0.3l-0.3-49.6H401.4z"/>
	</g>
	<g>
		<polygon fill="#515354" points="229.9,371.2 230.6,372.1 225.5,375.2 223.9,373.8 229.4,370.6 		"/>
		<path fill="#515354" d="M203.5,362.4v13.3h2v4.4c0,0,2.2,4.5,7.7,0v-9c0,0,1.6-0.3,1.6-2.2s-1.9-1-1.9-1v-5.3L203.5,362.4
			L203.5,362.4z"/>
		<polygon fill="#515354" points="202.9,457.4 202.4,460 200.2,460 200.2,457.4 		"/>
		<path fill="#515354" d="M200.2,460h2.2c0,0,0.9,2.8-2,3h-3.8c0,0-0.9-1.8,1.5-1.9C198,461.1,199.9,460.7,200.2,460z"/>
		<polygon fill="#515354" points="213.1,457.4 213.7,460 215.9,460 215.9,457.4 		"/>
		<path fill="#515354" d="M215.9,460h-2.2c0,0-0.9,2.8,2,3h3.8c0,0,0.9-1.8-1.5-1.9C218.1,461.1,216.1,460.7,215.9,460z"/>
		<path fill="#515354" d="M210.4,371.7h-6.6c0,0,1.2-2,3.3-2C209.2,369.6,210.4,371.7,210.4,371.7z"/>
		<polygon fill="#515354" points="200.8,411.4 199.9,457.4 203.1,457.4 209.6,419.8 213.1,457.4 216.3,457.4 217.4,411.3 		"/>
		<path fill="#515354" d="M196.4,380.3c0,0,8.2-4.6,24.7,0l-3.1,31.1c0,0-6.8,0.5-17.8-0.1L196.4,380.3z"/>
		<polygon fill="#515354" points="202.9,457.4 202.4,460 200.2,460 200.2,457.4 		"/>
		<path fill="#515354" d="M200.2,460h2.2c0,0,0.9,2.8-2,3h-3.8c0,0-0.9-1.8,1.5-1.9C198,461.1,199.9,460.7,200.2,460z"/>
		<polygon fill="#515354" points="213.1,457.4 213.7,460 215.9,460 215.9,457.4 		"/>
		<path fill="#515354" d="M215.9,460h-2.2c0,0-0.9,2.8,2,3h3.8c0,0,0.9-1.8-1.5-1.9C218.1,461.1,216.1,460.7,215.9,460z"/>
		<polygon fill="#515354" points="199.9,445.8 205.2,445.8 202.5,460.6 199.9,460.6 		"/>
		<polygon fill="#515354" points="216.6,446.1 211.8,446.1 213.3,460.3 216.3,460.2 		"/>
		<path fill="#515354" d="M203.5,362.4v13.3h2v4.4c0,0,2.2,4.5,7.7,0v-9c0,0,1.6-0.3,1.6-2.2s-1.9-1-1.9-1v-5.3L203.5,362.4
			L203.5,362.4z"/>
		<path fill="#515354" d="M184.7,387.4c0,0-7.3-1.6-10.2-7.6c0,0-0.6-1.7-1.5-1.6c-0.8,0.1-0.4,1.5-0.4,1.5s-0.8-3.7-1.8-3.6
			c-1.1,0.1-3.7,1.4-0.2,7.3c0,0,8,10,15,8.4C185.7,391.9,190.1,387.7,184.7,387.4z"/>
		<path fill="#515354" d="M196.5,380.2c0,0-3.8,5.8-10.6,7c0,0-0.8,4.2,1.3,5.2c0,0,8.4-1.5,11.7-5.3L196.5,380.2z"/>
		<path fill="#515354" d="M187.5,392.3c0,0-1.8-2.7-0.9-5.3l-1.8,0.3c0,0,0,4.4,1.4,5.2L187.5,392.3z"/>
		<path fill="#515354" d="M231.1,352.2c0.2-7.5-3.1-7.3-4.2-6.8s0.2,4.5,0.2,4.5s-0.4-1.7-1.2-1.4c-0.8,0.4-0.5,2.4-0.5,2.4
			s0.4,3.4,2.6,3.3C230.3,354.2,231.1,352.2,231.1,352.2z"/>
		<polygon fill="#515354" points="217.7,380.5 225.1,371.2 230.4,374 218.3,389.8 219,383.8 		"/>
		<polygon fill="#515354" points="225.1,371.2 228.2,366.9 227.2,354 230.5,353.2 232.6,368.7 229.8,373.8 		"/>
		<polygon fill="#515354" points="225.1,371.2 224.4,372.1 229.4,375.2 231,373.8 225.5,370.6 		"/>
		<path fill="#515354" d="M200.2,411.1c-0.4,0.8-1.4,49.6-1.4,49.6l3.7-0.3l6.7-33.8l3.4,33.8l4.5,0.3l0.3-49.6H200.2z"/>
		<path fill="#515354" d="M208.2,361.1c-0.1-0.4-0.2-0.8-0.2-1.1c1.5,0.2,3,0.3,4.5,0.5c0.6,0.1,1.2,0.2,1.5,0.6
			c0.2,0.3,0.3,0.6,0.4,0.9c0.6,1.9,0.6,4.1,0,6c-0.1-0.6-1.1-0.6-1.5-0.1s-0.3,1.2-0.2,1.7c0.1,0.8,0.2,1.5,0.3,2.4
			c-1.1,0.1-2,0.1-3.1,0.2c0.8-2.4,1.3-4.9,1.5-7.5c-0.4,0.4-1,0.5-1.5,0.2s-0.8-0.9-0.6-1.4c-1.2-0.2-2.3-0.3-3.5-0.5
			c-0.4-0.1-0.9-0.1-1.3,0.1c-0.2,0.1-0.4,0.4-0.6,0.5c-0.4,0.2-1,0.1-1.3-0.3c-0.3-0.4-0.4-0.9-0.5-1.3c-0.1-1.2,0.2-2.4,0.9-3.5
			c-0.1,1,0.6,1.9,1.5,2.2c-0.7-1.5-0.2-3.5,1.1-4.5C205.1,358.3,206.2,360.6,208.2,361.1z"/>
	</g>
	<g>
		<path fill="#515354" d="M350.8,359.1v13.3h2v4.4c0,0,2.2,4.5,7.7,0v-9c0,0,1.6-0.3,1.6-2.2s-1.9-1-1.9-1v-5.3L350.8,359.1
			L350.8,359.1z"/>
		<polygon fill="#515354" points="362.5,454.1 363,456.7 365.3,456.7 365.3,454.1 		"/>
		<path fill="#515354" d="M365.3,456.7h-2.2c0,0-0.9,2.8,2,3h3.8c0,0,0.9-1.8-1.5-1.9C367.5,457.8,365.5,457.5,365.3,456.7z"/>
		<polygon fill="#515354" points="352.4,454.1 351.8,456.7 349.6,456.7 349.6,454.1 		"/>
		<path fill="#515354" d="M349.6,456.7h2.2c0,0,0.9,2.8-2,3H346c0,0-0.9-1.8,1.5-1.9C347.3,457.8,349.4,457.5,349.6,456.7z"/>
		<path fill="#515354" d="M357.8,368.4h-6.6c0,0,1.2-2,3.3-2C356.6,366.3,357.8,368.4,357.8,368.4z"/>
		<path fill="#515354" d="M357.8,368.4l0.3,0.4c0,0-2.9,0.5-3.8-0.4c0,0-2.2,0.5-3.3,0.4l0.3-0.5
			C351.2,368.3,355.8,367.9,357.8,368.4z"/>
		<polygon fill="#515354" points="364.7,408.3 365.6,454.1 362.3,454.1 355.8,416.6 352.4,454.1 349.2,454.1 348,408 		"/>
		<path fill="#515354" d="M369,377c0,0-8.2-4.6-24.7,0l3.1,31.1c0,0,6.8,0.5,17.8-0.1L369,377z"/>
		<polygon fill="#515354" points="362.5,454.1 363,456.7 365.3,456.7 365.3,454.1 		"/>
		<path fill="#515354" d="M365.3,456.7h-2.2c0,0-0.9,2.8,2,3h3.8c0,0,0.9-1.8-1.5-1.9C367.5,457.8,365.5,457.5,365.3,456.7z"/>
		<polygon fill="#515354" points="352.4,454.1 351.8,456.7 349.6,456.7 349.6,454.1 		"/>
		<path fill="#515354" d="M349.6,456.7h2.2c0,0,0.9,2.8-2,3H346c0,0-0.9-1.8,1.5-1.9C347.3,457.8,349.4,457.5,349.6,456.7z"/>
		<path fill="#515354" d="M350.8,359.1v13.3h2v4.4c0,0,2.2,4.5,7.7,0v-9c0,0,1.6-0.3,1.6-2.2s-1.9-1-1.9-1v-5.3L350.8,359.1
			L350.8,359.1z"/>
		<path fill="#515354" d="M360.4,364.4v0.8h-0.8h-0.3v-2.5c0,0-1.5-0.4-1.5-1.3s0-1.5,0-1.5h-6.6l-0.3,1.1c0,0-0.6-1.6,0.3-2.5
			c0.9-0.9,10.2-1.4,11.4,2.1c0,0,0.2,4.5-0.4,5.3c0,0,0.4-1.6-0.8-1.7C360.4,364.1,360.4,364.4,360.4,364.4z"/>
		<path fill="#515354" d="M360.7,376.7l-4.1,7.1l-3.8-7.1C352.8,376.7,356.2,372.4,360.7,376.7z"/>
		<path fill="#515354" d="M380.8,384.2c0,0,7.3-1.6,10.2-7.6c0,0,0.6-1.7,1.5-1.6c0.8,0.1,0.4,1.5,0.4,1.5s0.8-3.7,1.8-3.6
			c1.1,0.1,3.7,1.4,0.2,7.3c0,0-8,10-15,8.4C379.8,388.6,375.4,384.4,380.8,384.2z"/>
		<path fill="#515354" d="M368.9,376.9c0,0,3.8,5.8,10.6,7c0,0,0.8,4.2-1.3,5.2c0,0-8.4-1.5-11.7-5.3L368.9,376.9z"/>
		<path fill="#515354" d="M331.6,382.3c0,0-7-2.8-8.8-9.2c0,0-0.3-1.8-1.2-1.8c-0.9,0-0.6,1.5-0.6,1.5s-0.1-3.8-1.2-3.9
			c-1.1-0.1-3.9,0.8-1.4,7.2c0,0,6.3,11.1,13.4,10.8C331.8,386.8,336.9,383.4,331.6,382.3z"/>
		<path fill="#515354" d="M344.4,377c0,0-4.7,5.1-11.7,5.1c0,0-1.5,4,0.4,5.3c0,0,8.5-0.1,12.5-3.3L344.4,377z"/>
		<path fill="#515354" d="M351.4,361c-0.3-0.2-0.5-0.5-0.7-0.8c0,0.2,0.1,0.4,0.1,0.6c-0.7-0.7-0.7-1.9,0-2.7c0-0.7,0.5-1.3,1.2-1.5
			c-0.2,0.5,0,1.1,0.5,1.3c-0.3-0.8,0.5-1.6,1.3-1.5c-0.4,0.3-0.5,1.1-0.2,1.5c0.1-1,1-1.7,1.8-1.8c-0.3,0.4-0.6,0.8-0.5,1.3
			s0.8,0.8,1.1,0.3c0.1-0.2,0-0.5-0.1-0.7c0.2,0.6,1,0.8,1.6,0.9c1.3,0.2,2.6,0.4,3.9,0.6c0.1-0.3,0.2-0.6,0.3-0.9
			c0.3,0.6,0.5,1.2,0.4,1.8c0.3-0.3,0.5-0.7,0.5-1.2c0.7,2.3,0.3,4.7-0.1,7.2c-0.1-0.5-0.3-1.1-0.7-1.4c-0.4-0.3-1.2-0.3-1.3,0.3
			c-0.1,0.4,0.1,0.8,0,1.2c-0.4,0.1-0.8,0.1-1.2,0.1c-0.2-1-0.2-2,0-3c-1.2-0.2-1.9-1.5-1.5-2.7c-0.5,0.3-0.6,1-0.3,1.4
			c-0.7-0.2-1.3-0.7-1.6-1.4c-0.2,0.5,0.1,1,0.5,1.2c-0.9-0.1-1.6-0.5-2.1-1.2c0,0.4,0.1,0.9,0.5,1.1c-0.7,0-1.4-0.5-1.6-1.1
			c0,0.4,0.1,0.7,0.2,1.1c-0.5-0.1-0.9-0.6-0.9-1.2c-0.3,0.4-0.3,0.9,0,1.3c-0.5-0.3-0.8-0.8-1-1.4
			C351.4,360.2,351.4,360.6,351.4,361z"/>
	</g>
	<g>
		<path fill="#515354" d="M238.5,363.1v13.1h2v4.3c0,0,2.2,4.4,7.7,0v-9c0,0,1.6-0.3,1.6-2.2s-1.9-1-1.9-1V363L238.5,363.1
			L238.5,363.1z"/>
		<polygon fill="#515354" points="250.2,456.5 250.7,459.2 253,459.2 253,456.5 		"/>
		<path fill="#515354" d="M253,459.2h-2.2c0,0-0.9,2.8,2,3h3.8c0,0,0.9-1.7-1.5-1.9C255.2,460.2,253.2,459.8,253,459.2z"/>
		<polygon fill="#515354" points="240,456.5 239.5,459.2 237.2,459.2 237.2,456.5 		"/>
		<path fill="#515354" d="M237.2,459.2h2.3c0,0,0.9,2.8-2,3h-3.8c0,0-0.9-1.7,1.5-1.9C235.1,460.2,237,459.8,237.2,459.2z"/>
		<path fill="#515354" d="M245.4,372.2h-6.6c0,0,1.2-2,3.3-2C244.3,370.1,245.4,372.2,245.4,372.2z"/>
		<path fill="#515354" d="M245.4,372.2l0.3,0.4c0,0-2.9,0.5-3.8-0.4c0,0-2.2,0.4-3.3,0.4l0.3-0.5
			C238.9,372.1,243.4,371.7,245.4,372.2z"/>
		<polygon fill="#515354" points="252.4,411.4 253.3,456.5 250,456.5 243.6,419.6 240,456.5 236.9,456.5 235.6,411.2 		"/>
		<path fill="#515354" d="M253.9,380.7c0,0-2.6-4.5-19.1,0l0.8,30.5c0,0,5.6,0.8,16.6,0.2L253.9,380.7z"/>
		<polygon fill="#515354" points="250.2,456.5 250.7,459.2 253,459.2 253,456.5 		"/>
		<path fill="#515354" d="M253,459.2h-2.2c0,0-0.9,2.8,2,3h3.8c0,0,0.9-1.7-1.5-1.9C255.2,460.2,253.2,459.8,253,459.2z"/>
		<polygon fill="#515354" points="240,456.5 239.5,459.2 237.2,459.2 237.2,456.5 		"/>
		<path fill="#515354" d="M237.2,459.2h2.3c0,0,0.9,2.8-2,3h-3.8c0,0-0.9-1.7,1.5-1.9C235.1,460.2,237,459.8,237.2,459.2z"/>
		<path fill="#515354" d="M238.5,363.1v13.1h2v4.3c0,0,2.2,4.4,7.7,0v-9c0,0,1.6-0.3,1.6-2.2s-1.9-1-1.9-1V363L238.5,363.1
			L238.5,363.1z"/>
		<path fill="#515354" d="M248.3,380.3l-4.1,7l-3.8-7C240.6,380.3,243.9,376.1,248.3,380.3z"/>
		<polygon fill="#515354" points="235.6,411.2 235,428.4 236.7,449.4 239.6,414.2 		"/>
		<polygon fill="#515354" points="252.3,411 253.6,428.9 252.2,449.7 249.2,414.4 		"/>
		<path fill="#515354" d="M235.6,380.5L224,359.8l-2.5,1.9l13.5,30.3C235.1,392,237,386.2,235.6,380.5z"/>
		<path fill="#515354" d="M220.8,360.8c-3-5.5-0.5-6.5,0.5-6.6c1-0.1,1.5,3.4,1.5,3.4s-0.4-1.4,0.4-1.5c0.8,0,1.3,1.5,1.3,1.5
			s1,2.6-0.7,3.4C222,361.9,220.8,360.8,220.8,360.8z"/>
		<path fill="#515354" d="M262.3,415.7c-0.2,6.3-2.9,5.9-3.8,5.4c-0.9-0.5,0.4-3.7,0.4-3.7s-0.4,1.4-1.1,1.1c-0.7-0.3-0.3-2-0.3-2
			s0.4-2.8,2.3-2.6C261.9,414.2,262.3,415.7,262.3,415.7z"/>
		<path fill="#515354" d="M254.1,380.3l9.2,16.9l-1.4,18.3l-3.2-0.4v-15.3l-5.4-7.2C253.3,392.8,252.6,380.7,254.1,380.3z"/>
		<path fill="#515354" d="M248.3,380.3c0,0-3.4,8.1-7.7,0C240.6,380.3,244.2,396.9,248.3,380.3z"/>
		<path fill="#515354" d="M249.1,367.9c-0.2,0-0.4,0.1-0.5,0.3c-0.1,0.1-0.1,0.3-0.1,0.5c-0.1,1-0.5,1.9-1,2.8
			c0.2-1.3,0.3-2.6-0.1-3.9c-0.2-0.6-0.5-1.1-0.8-1.5c-0.5-0.9-1-1.6-1.5-2.5c-0.1,1.6,0.4,3.3,1.5,4.5c-2.7,0.3-5.5-1.3-6.7-3.7
			c-0.2-0.3-0.3-0.6-0.5-0.9c-0.2-0.2-0.6-0.4-0.9-0.3c0-1,0.8-1.8,1.6-2.3c0.9-0.4,1.9-0.5,2.9-0.6c0.9-0.1,1.7-0.1,2.6,0
			c1.8,0.3,3.6,1.5,4.4,3.2c0.9,1.6,0.9,3.8,0,5.4C250.1,368.4,249.6,367.9,249.1,367.9z"/>
		<path fill="#515354" d="M238.5,363.1v4c0,0-2.1-5.1,0.8-5.7"/>
		<path fill="#515354" d="M249.5,370.7c0,0,0.1,4.2-2.1,4.2c0,0,1.1-1.5,1-3.5L249.5,370.7z"/>
		<circle fill="#515354" cx="248.7" cy="370.4" r="0.3"/>
		<path fill="#515354" d="M249.7,368.4c0.1,2.3-1.5,4.3-2.3,6.4c-1.1,2.9-0.5,6.1,0,9.1c0.4-1.8,0.7-3.7,1.1-5.4
			c1.2,2.4,1.3,5.3,0.2,7.7c1.8-1.4,2-4.1,2-6.3c0.9,1.6,1.2,3.5,0.8,5.3c-0.2-2.6,1.4-5.1,1-7.7c-0.1-0.9-0.5-1.7-0.7-2.6
			c-0.8-3.4,0.9-7.2-0.5-10.4c-0.7-1.7-2.2-3.1-4-4c-1.2-0.6-2.4-1-3.8-0.8c-1.3,0.2-2.5,1.2-2.7,2.4c-0.1-0.2-0.5-0.3-0.3-0.3
			c0.5,0.8,1.5,1,2.3,1s1.7-0.2,2.6,0c0.5,0.1,1,0.4,1.4,0.7C248.5,364.8,249.7,366.3,249.7,368.4z"/>
		<path fill="#515354" d="M235.6,380.5l-3.1,8.2l3.5,7.8l9.7-1.5C245.8,395.1,239.1,380.9,235.6,380.5z"/>
	</g>
</g>
<g>
	<path fill="#F9BD91" d="M297.3,354.3v13.6h-2.1v4.5c0,0-2.3,4.6-8,0v-9.3c0,0-1.7-0.3-1.7-2.3c0-2,2-1,2-1v-5.4H297.3z"/>
	<polygon fill="#8B5E3C" points="285.3,452.1 284.7,454.8 282.4,454.8 282.4,452.1 	"/>
	<polygon fill="#8B5E3C" points="295.7,452.1 296.3,454.8 298.6,454.8 298.6,452.1 	"/>
	<path fill="#E6E7E8" d="M290.1,363.8h6.8c0,0-1.2-2.1-3.4-2.1C291.3,361.7,290.1,363.8,290.1,363.8z"/>
	<path fill="#E6E7E8" d="M290.1,363.8l-0.3,0.4c0,0,3,0.5,3.9-0.4c0,0,2.3,0.5,3.4,0.4l-0.3-0.5
		C296.9,363.7,292.2,363.3,290.1,363.8z"/>
	<polygon fill="#936845" points="283,404.9 282.1,452.1 285.5,452.1 292.1,413.4 295.7,452.1 299,452.1 300.2,404.6 	"/>
	<path fill="#BE1E2D" d="M278.6,372.7c0,0,8.4-4.7,25.4,0l-3.2,32c0,0-7,0.5-18.4-0.1L278.6,372.7z"/>
	<polygon fill="#8B5E3C" points="285.3,452.1 284.7,454.8 282.4,454.8 282.4,452.1 	"/>
	<path fill="#231F20" d="M282.4,454.8h2.3c0,0,0.9,2.9-2.1,3.1h-3.9c0,0-0.9-1.9,1.5-2C280.2,455.9,282.2,455.6,282.4,454.8z"/>
	<polygon fill="#8B5E3C" points="295.7,452.1 296.3,454.8 298.6,454.8 298.6,452.1 	"/>
	<path fill="#231F20" d="M298.6,454.8h-2.3c0,0-0.9,2.9,2.1,3.1h3.9c0,0,0.9-1.9-1.5-2C300.9,455.9,298.8,455.6,298.6,454.8z"/>
	<polygon fill="#BE1E2D" points="282.1,440.1 287.5,440.1 284.9,455.4 282.1,455.4 	"/>
	<polygon fill="#BE1E2D" points="299.3,440.5 294.4,440.5 295.9,455.1 299,455.1 	"/>
	<path fill="#F1F2F2" d="M287,373.2l4.4,7.2l4.3-7.2h4.8c0,0-1.3-3.4-6-3.8s-9.8-0.6-11.5,3.8L287,373.2z"/>
	<path fill="#936845" d="M297.3,354.3v13.6h-2.1v4.5c0,0-2.3,4.6-8,0v-9.3c0,0-1.7-0.3-1.7-2.3c0-2,2-1,2-1v-5.4H297.3z"/>
	<path fill="#936845" d="M287.2,372.4l4.2,7.3l3.8-7.3C295.2,372.4,291.7,368,287.2,372.4z"/>
	<path fill="#936845" d="M266.5,380.1c0,0-7.5-1.6-10.5-7.8c0,0-0.6-1.8-1.5-1.7s-0.4,1.6-0.4,1.6s-0.8-3.8-1.9-3.7
		c-1.1,0.1-3.8,1.4-0.2,7.5c0,0,8.3,10.2,15.4,8.7C267.5,384.7,272,380.4,266.5,380.1z"/>
	<path fill="#BE1E2D" d="M278.6,372.6c0,0-3.9,6-11,7.2c0,0-0.8,4.2,1.3,5.4c0,0,8.7-1.5,12.1-5.5L278.6,372.6z"/>
	<path fill="#F1F2F2" d="M269.4,385.1c0,0-1.9-2.8-0.9-5.5l-1.8,0.3c0,0,0,4.5,1.4,5.4L269.4,385.1z"/>
	<path fill="#936845" d="M317.1,378.1c0,0,7.1-2.9,9.1-9.5c0,0,0.3-1.9,1.2-1.9s0.6,1.6,0.6,1.6s0.1-3.9,1.2-3.9s4,0.8,1.4,7.3
		c0,0-6.5,11.5-13.8,11.1C316.8,382.8,311.6,379.3,317.1,378.1z"/>
	<path fill="#BE1E2D" d="M303.8,372.7c0,0,4.9,5.3,12,5.3c0,0,1.5,4.1-0.4,5.5c0,0-8.8-0.1-12.8-3.4L303.8,372.7z"/>
	<path fill="#F1F2F2" d="M315,383.5c0,0,1.4-3.1,0-5.5h1.9c0,0,0.8,4.4-0.5,5.5H315z"/>
	<path fill="#936845" d="M287.4,359.7l0.7-4.3l9.2-0.5c0,0,0.7-3.3-5.5-3.2c-6.2,0-5.1,7.8-5.1,7.8"/>
	<polygon fill="#262262" points="283,404.9 280.5,455.2 285.5,455.4 291.7,419.9 294.4,455.2 300.5,455.2 300.8,404.7 	"/>
</g>
<g>
	<polygon fill="#00A651" points="313.5,368.9 308.8,356.4 302,357.5 309.7,378.7 311,372 	"/>
	<polygon fill="#F9BD91" points="308.8,356.4 306.9,350.7 312.3,337 309.1,335 301.5,351 302.7,357.5 	"/>
	<path fill="#F9BD91" d="M333.5,333.3c-2.4-8.2-5.8-6.8-6.8-5.9c-1,0.9,1.8,4.7,1.8,4.7s-1-1.7-1.8-1c-0.8,0.7,0.3,2.7,0.3,2.7
		s1.5,3.5,4,2.6C333.4,335.5,333.5,333.3,333.5,333.3z"/>
	<polygon fill="#00A651" points="328.8,368.4 333.5,355.9 340.2,357.1 332.5,378.2 331.2,371.5 	"/>
	<polygon fill="#F9BD91" points="333.5,355.9 335.4,350.2 329.9,336.5 333.2,334.5 340.8,350.6 339.6,357.1 	"/>
	<path fill="#F9BD91" d="M327.1,349.4v15h-2.3v4.9c0,0-2.6,5-8.8,0v-10.2c0,0-1.9-0.4-1.9-2.6s2.2-1.1,2.2-1.1v-6H327.1z"/>
	<polygon fill="#8B5E3C" points="313.9,457.1 313.3,460 310.7,460 310.7,457.1 	"/>
	<path fill="#231F20" d="M310.7,460h2.6c0,0,1,3.2-2.3,3.4h-4.3c0,0-0.9-2,1.6-2.2C308.3,461.2,310.5,460.9,310.7,460z"/>
	<polygon fill="#8B5E3C" points="325.4,457.1 326,460 328.6,460 328.6,457.1 	"/>
	<path fill="#231F20" d="M328.6,460H326c0,0-1,3.2,2.3,3.4h4.3c0,0,0.9-2-1.6-2.2C331.1,461.2,328.8,460.9,328.6,460z"/>
	<path fill="#E6E7E8" d="M319.3,359.9h7.5c0,0-1.3-2.3-3.7-2.3C320.6,357.6,319.3,359.9,319.3,359.9z"/>
	<path fill="#E6E7E8" d="M319.3,359.9l-0.4,0.4c0,0,3.3,0.6,4.3-0.4c0,0,2.5,0.5,3.8,0.4l-0.3-0.5
		C326.7,359.8,321.6,359.3,319.3,359.9z"/>
	<polygon fill="#F9BD91" points="311.5,405.1 310.4,457.1 314.1,457.1 321.4,414.5 325.4,457.1 329,457.1 330.3,404.8 	"/>
	<path fill="#00A651" d="M306.5,369.7c0,0,9.3-5.2,28,0l-3.5,35.2c0,0-7.7,0.5-20.2-0.1L306.5,369.7z"/>
	<polygon fill="#8B5E3C" points="313.9,457.1 313.3,460 310.7,460 310.7,457.1 	"/>
	<path fill="#231F20" d="M310.7,460h2.6c0,0,1,3.2-2.3,3.4h-4.3c0,0-0.9-2,1.6-2.2C308.3,461.2,310.5,460.9,310.7,460z"/>
	<polygon fill="#8B5E3C" points="325.4,457.1 326,460 328.6,460 328.6,457.1 	"/>
	<path fill="#231F20" d="M328.6,460H326c0,0-1,3.2,2.3,3.4h4.3c0,0,0.9-2-1.6-2.2C331.1,461.2,328.8,460.9,328.6,460z"/>
	<polygon fill="#BE1E2D" points="310.4,443.9 316.4,443.9 313.5,460.7 310.4,460.7 	"/>
	<polygon fill="#BE1E2D" points="329.3,444.3 324,444.3 325.6,460.4 329,460.3 	"/>
	<path fill="#F9BD91" d="M327.1,349.4v15h-2.3v4.9c0,0-2.6,5-8.8,0v-10.2c0,0-1.9-0.4-1.9-2.6s2.2-1.1,2.2-1.1v-6H327.1z"/>
	<path fill="#F9BD91" d="M316,369.3l4.6,8l4.2-8C324.8,369.3,321,364.5,316,369.3z"/>
	<path fill="#F9BD91" d="M307.6,333.8c2.4-8.2,5.8-6.8,6.8-5.9c1,0.9-1.8,4.7-1.8,4.7s1-1.7,1.8-1c0.8,0.7-0.3,2.7-0.3,2.7
		s-1.5,3.5-4,2.6S307.6,333.8,307.6,333.8z"/>
	<path fill="#F9BD91" d="M316.8,356.4l-0.2-5.3l10.6-0.5c0,0,0.8-3.8-6.4-3.7s-5.9,9-5.9,9"/>
	<polygon fill="#1C75BC" points="311.3,405.5 309.7,461.8 313.9,461.8 321.5,416.8 325,461.3 329.6,461.8 330.3,405.8 	"/>
	<path fill="#231F20" d="M314.8,354.8c0.7-0.3,1.5,0.2,1.8,0.9c0.3,0.7,0.2,1.5,0,2.2c0.5,0,0.9,0,1.4,0c-0.1-2.1-0.3-4.2-0.4-6.3
		c0.4,0.6,0.6,1.3,0.4,2c0.9-1.1,1.3-2.7,1-4.1c0.6,1,0.8,2.2,0.4,3.3c1.1-1,1.6-2.6,1.4-4c0.8,0.7,1.2,2,1,3c0.8-0.8,1.3-2,1.2-3.2
		c0.7,1,0.9,2.2,0.6,3.4c0.8-0.8,1.2-2,1.1-3.1c0.7,0.8,1.1,1.9,0.9,3c0.7-0.5,0.7-1.6,0.7-2.5c0.7,0.7,1,1.8,0.8,2.8
		c0.5-0.8,0.9-1.6,1.2-2.5c0.3-0.9,0.3-2-0.4-2.6c0.2-1-0.1-2.1-0.8-2.8c0.2,0.9-0.2,1.9-1,2.5c0.3-1.4-0.3-2.9-1.4-3.7
		c0.5,0.9-0.1,2-0.7,2.9c0.4-1-0.2-2.3-1.2-2.7c0.3,0.7,0.1,1.6-0.4,2.2c0-0.9-0.3-1.8-0.9-2.4c0.2,1,0.2,2.3-0.7,2.8
		c0-0.5-0.1-1.1-0.4-1.5c-0.1,1-0.7,2-1.5,2.6c-0.7,0-1.3-0.7-1.3-1.3c-0.2,1.1-1.1,1.9-1.7,2.8c-1.3,1.9-1.8,4.2-1.6,6.5
		c0,0.1,0,0.3,0.2,0.3c0.2,0.1,0.3-0.1,0.4-0.2c0.4-0.4,1-0.5,1.5-0.2"/>
</g>
<g>
	<polygon fill="#006838" points="208.3,370.8 207.6,371.7 212.8,374.9 214.4,373.4 208.7,370.2 	"/>
	<path fill="#F9BD91" d="M235.5,361.6v13.6h-2.1v4.5c0,0-2.3,4.6-8,0v-9.3c0,0-1.7-0.3-1.7-2.3s2-1,2-1v-5.4H235.5z"/>
	<polygon fill="#8B5E3C" points="236,459.5 236.6,462.2 238.9,462.2 238.9,459.5 	"/>
	<path fill="#231F20" d="M238.9,462.2h-2.3c0,0-0.9,2.9,2.1,3.1h3.9c0,0,0.9-1.9-1.5-2C241.2,463.3,239.1,462.9,238.9,462.2z"/>
	<polygon fill="#8B5E3C" points="225.6,459.5 225,462.2 222.7,462.2 222.7,459.5 	"/>
	<path fill="#231F20" d="M222.7,462.2h2.3c0,0,0.9,2.9-2.1,3.1H219c0,0-0.9-1.9,1.5-2C220.4,463.3,222.5,462.9,222.7,462.2z"/>
	<path fill="#E6E7E8" d="M228.4,371.2h6.8c0,0-1.2-2.1-3.4-2.1C229.6,369.1,228.4,371.2,228.4,371.2z"/>
	<polygon fill="#F9BD91" points="238.3,412.2 239.2,459.5 235.8,459.5 229.2,420.8 225.6,459.5 222.3,459.5 221.1,412 	"/>
	<path fill="#FFF200" d="M242.8,380.1c0,0-8.4-4.7-25.4,0l3.2,32c0,0,7,0.5,18.4-0.1L242.8,380.1z"/>
	<polygon fill="#8B5E3C" points="236,459.5 236.6,462.2 238.9,462.2 238.9,459.5 	"/>
	<path fill="#231F20" d="M238.9,462.2h-2.3c0,0-0.9,2.9,2.1,3.1h3.9c0,0,0.9-1.9-1.5-2C241.2,463.3,239.1,462.9,238.9,462.2z"/>
	<polygon fill="#8B5E3C" points="225.6,459.5 225,462.2 222.7,462.2 222.7,459.5 	"/>
	<path fill="#231F20" d="M222.7,462.2h2.3c0,0,0.9,2.9-2.1,3.1H219c0,0-0.9-1.9,1.5-2C220.4,463.3,222.5,462.9,222.7,462.2z"/>
	<polygon fill="#BE1E2D" points="239.2,447.5 233.8,447.5 236.5,462.8 239.2,462.8 	"/>
	<polygon fill="#BE1E2D" points="222,447.9 226.9,447.9 225.4,462.5 222.3,462.5 	"/>
	<path fill="#F9BD91" d="M235.5,361.6v13.6h-2.1v4.5c0,0-2.3,4.6-8,0v-9.3c0,0-1.7-0.3-1.7-2.3s2-1,2-1v-5.4H235.5z"/>
	<path fill="#F9BD91" d="M254.9,387.5c0,0,7.5-1.6,10.5-7.8c0,0,0.6-1.8,1.5-1.7s0.4,1.6,0.4,1.6s0.8-3.8,1.9-3.7
		c1.1,0.1,3.8,1.4,0.2,7.5c0,0-8.3,10.2-15.4,8.7C253.8,392,249.3,387.7,254.9,387.5z"/>
	<path fill="#FFF200" d="M242.7,380c0,0,3.9,6,11,7.2c0,0,0.8,4.2-1.3,5.4c0,0-8.7-1.5-12.1-5.5L242.7,380z"/>
	<path fill="#262262" d="M251.9,392.4c0,0,1.9-2.8,0.9-5.5l1.8,0.3c0,0,0,4.5-1.4,5.4L251.9,392.4z"/>
	<path fill="#F9BD91" d="M207.1,351.2c-0.2-7.8,3.2-7.5,4.3-7c1.1,0.5-0.2,4.6-0.2,4.6s0.4-1.7,1.3-1.4c0.8,0.4,0.5,2.5,0.5,2.5
		s-0.4,3.5-2.7,3.4C207.7,353.1,207.1,351.2,207.1,351.2z"/>
	<polygon fill="#FFF200" points="220.8,380.3 213.3,370.8 207.8,373.6 220.3,389.8 219.6,383.7 	"/>
	<polygon fill="#F9BD91" points="213.3,370.8 210.1,366.4 211,353 207.7,352.2 205.5,368.2 208.3,373.5 	"/>
	<polygon fill="#262262" points="213.3,370.8 214,371.7 208.8,374.9 207.2,373.4 212.9,370.2 	"/>
	<path fill="#262262" d="M238.9,411.7c0.4,0.8,1.3,51.1,1.3,51.1l-3.8-0.3l-6.9-34.8l-3.5,34.8l-4.7,0.3l-0.3-51.1H238.9z"/>
	<path fill="#3C2415" d="M230.7,360.4c0.1-0.4,0.2-0.8,0.2-1.1c-1.6,0.2-3.1,0.3-4.7,0.5c-0.6,0.1-1.2,0.2-1.6,0.6
		c-0.2,0.3-0.3,0.6-0.4,0.9c-0.6,2-0.6,4.2,0,6.2c0.1-0.6,1.1-0.6,1.5-0.1c0.4,0.5,0.3,1.2,0.2,1.8c-0.1,0.8-0.2,1.6-0.3,2.5
		c1.1,0.1,2.1,0.1,3.2,0.2c-0.8-2.5-1.3-5.1-1.5-7.7c0.4,0.4,1,0.5,1.5,0.2c0.5-0.3,0.7-0.9,0.6-1.4c1.2-0.2,2.4-0.3,3.6-0.5
		c0.4-0.1,0.9-0.1,1.3,0.1c0.2,0.1,0.4,0.4,0.6,0.5c0.4,0.2,1,0.1,1.3-0.3c0.3-0.4,0.4-0.8,0.5-1.3c0.1-1.2-0.2-2.5-0.9-3.5
		c0.1,1-0.6,2-1.5,2.3c0.7-1.5,0.2-3.5-1.1-4.6C233.9,357.5,232.7,359.9,230.7,360.4z"/>
</g>
<g>
	<path fill="#F9BD91" d="M266,354.3v13.6h-2.1v4.5c0,0-2.3,4.6-8,0v-9.3c0,0-1.7-0.3-1.7-2.3c0-2,2-1,2-1v-5.4H266z"/>
	<polygon fill="#8B5E3C" points="254,452.1 253.4,454.8 251.1,454.8 251.1,452.1 	"/>
	<path fill="#231F20" d="M251.1,454.8h2.3c0,0,0.9,2.9-2.1,3.1h-3.9c0,0-0.9-1.9,1.5-2C248.9,455.9,250.9,455.6,251.1,454.8z"/>
	<polygon fill="#8B5E3C" points="264.4,452.1 265,454.8 267.3,454.8 267.3,452.1 	"/>
	<path fill="#231F20" d="M267.3,454.8H265c0,0-0.9,2.9,2.1,3.1h3.9c0,0,0.9-1.9-1.5-2C269.6,455.9,267.5,455.6,267.3,454.8z"/>
	<path fill="#E6E7E8" d="M258.8,363.8h6.8c0,0-1.2-2.1-3.4-2.1S258.8,363.8,258.8,363.8z"/>
	<path fill="#E6E7E8" d="M258.8,363.8l-0.3,0.4c0,0,3,0.5,3.9-0.4c0,0,2.3,0.5,3.4,0.4l-0.3-0.5
		C265.6,363.7,260.9,363.3,258.8,363.8z"/>
	<polygon fill="#231F20" points="251.8,404.9 250.8,452.1 254.2,452.1 260.8,413.4 264.4,452.1 267.7,452.1 268.9,404.6 	"/>
	<path fill="#EF4136" d="M247.3,372.7c0,0,8.4-4.7,25.4,0l-3.2,32c0,0-7,0.5-18.4-0.1L247.3,372.7z"/>
	<polygon fill="#8B5E3C" points="254,452.1 253.4,454.8 251.1,454.8 251.1,452.1 	"/>
	<path fill="#231F20" d="M251.1,454.8h2.3c0,0,0.9,2.9-2.1,3.1h-3.9c0,0-0.9-1.9,1.5-2C248.9,455.9,250.9,455.6,251.1,454.8z"/>
	<polygon fill="#8B5E3C" points="264.4,452.1 265,454.8 267.3,454.8 267.3,452.1 	"/>
	<path fill="#231F20" d="M267.3,454.8H265c0,0-0.9,2.9,2.1,3.1h3.9c0,0,0.9-1.9-1.5-2C269.6,455.9,267.5,455.6,267.3,454.8z"/>
	<path fill="#C19368" d="M266,354.3v13.6h-2.1v4.5c0,0-2.3,4.6-8,0v-9.3c0,0-1.7-0.3-1.7-2.3c0-2,2-1,2-1v-5.4H266z"/>
	<path fill="#231F20" d="M256.1,359.7v0.8h0.8h0.3v-2.6c0,0,1.6-0.4,1.6-1.3c0.1-0.9,0-1.6,0-1.6h6.8l0.3,1.1c0,0,0.6-1.7-0.3-2.6
		c-0.9-0.9-10.5-1.4-11.8,2.2c0,0-0.2,4.7,0.4,5.5c0,0-0.4-1.7,0.8-1.8C256.1,359.4,256.1,359.7,256.1,359.7z"/>
	<path fill="#C19368" d="M255.9,372.4l4.2,7.3l3.8-7.3C263.9,372.4,260.4,368,255.9,372.4z"/>
	<path fill="#C19368" d="M235.2,380.1c0,0-7.5-1.6-10.5-7.8c0,0-0.6-1.8-1.5-1.7c-0.8,0.1-0.4,1.6-0.4,1.6s-0.8-3.8-1.9-3.7
		s-3.8,1.4-0.2,7.5c0,0,8.3,10.2,15.4,8.7C236.2,384.7,240.7,380.4,235.2,380.1z"/>
	<path fill="#EF4136" d="M247.3,372.6c0,0-3.9,6-11,7.2c0,0-0.8,4.2,1.3,5.4c0,0,8.7-1.5,12.1-5.5L247.3,372.6z"/>
	<path fill="#C19368" d="M285.8,378.1c0,0,7.1-2.9,9.1-9.5c0,0,0.3-1.9,1.2-1.9c0.8-0.1,0.6,1.6,0.6,1.6s0.1-3.9,1.2-3.9
		s4,0.8,1.4,7.3c0,0-6.5,11.5-13.8,11.1C285.5,382.8,280.4,379.3,285.8,378.1z"/>
	<path fill="#EF4136" d="M272.5,372.8c0,0,4.9,5.3,12,5.3c0,0,1.5,4.1-0.4,5.5c0,0-8.8-0.1-12.8-3.4L272.5,372.8z"/>
	<path fill="#231F20" d="M265.4,356.3c0.3-0.2,0.5-0.5,0.7-0.8c0,0.2-0.1,0.4-0.1,0.6c0.7-0.7,0.7-2,0-2.8c0-0.7-0.5-1.3-1.2-1.5
		c0.2,0.5,0,1.1-0.5,1.3c0.3-0.8-0.5-1.7-1.3-1.5c0.4,0.3,0.5,1.1,0.2,1.5c-0.1-1-1-1.8-1.9-1.9c0.3,0.4,0.6,0.8,0.5,1.3
		c-0.1,0.5-0.8,0.7-1.1,0.3c-0.1-0.2,0-0.5,0.1-0.7c-0.2,0.6-1,0.8-1.7,0.9c-1.3,0.2-2.7,0.4-4,0.6c-0.1-0.3-0.2-0.6-0.3-0.9
		c-0.3,0.6-0.5,1.2-0.4,1.9c-0.3-0.3-0.5-0.7-0.5-1.1c-0.7,2.4-0.3,4.9,0.1,7.3c0.1-0.5,0.3-1.1,0.7-1.4c0.4-0.3,1.2-0.3,1.3,0.3
		c0.1,0.4-0.1,0.8,0,1.2c0.4,0.1,0.8,0.1,1.2,0.1c0.2-1,0.2-2.1,0-3.1c1.2-0.2,2-1.6,1.6-2.8c0.5,0.3,0.6,1,0.3,1.4
		c0.7-0.2,1.3-0.7,1.7-1.4c0.2,0.5-0.1,1-0.5,1.2c0.9-0.1,1.7-0.5,2.2-1.2c0,0.4-0.1,0.9-0.5,1.1c0.7,0,1.4-0.5,1.7-1.1
		c0,0.4-0.1,0.7-0.2,1.1c0.5-0.1,0.9-0.6,0.9-1.2c0.3,0.4,0.3,0.9,0,1.3c0.5-0.3,0.8-0.8,1-1.4C265.4,355.4,265.4,355.8,265.4,356.3
		z"/>
</g>
<g>
	<path fill="#F9BD91" d="M402.1,359.1v13.6h2.1v4.5c0,0,2.3,4.6,8,0v-9.3c0,0,1.7-0.3,1.7-2.3s-2-1-2-1v-5.4H402.1z"/>
	<polygon fill="#8B5E3C" points="414.1,457 414.7,459.6 417,459.6 417,457 	"/>
	<polygon fill="#8B5E3C" points="403.7,457 403.1,459.6 400.8,459.6 400.8,457 	"/>
	<path fill="#E6E7E8" d="M409.3,368.7h-6.8c0,0,1.2-2.1,3.4-2.1C408.1,366.6,409.3,368.7,409.3,368.7z"/>
	<path fill="#E6E7E8" d="M409.3,368.7l0.3,0.4c0,0-3,0.5-3.9-0.4c0,0-2.3,0.5-3.4,0.4l0.3-0.5C402.5,368.6,407.2,368.1,409.3,368.7z
		"/>
	<polygon fill="#936845" points="416.4,409.7 417.3,457 413.9,457 407.3,418.2 403.7,457 400.4,457 399.2,409.5 	"/>
	<path fill="#9B8579" d="M420.8,377.6c0,0-8.4-4.7-25.4,0l3.2,32c0,0,7,0.5,18.4-0.1L420.8,377.6z"/>
	<polygon fill="#8B5E3C" points="414.1,457 414.7,459.6 417,459.6 417,457 	"/>
	<path fill="#231F20" d="M417,459.6h-2.3c0,0-0.9,2.9,2.1,3.1h3.9c0,0,0.9-1.9-1.5-2C419.2,460.8,417.2,460.4,417,459.6z"/>
	<polygon fill="#8B5E3C" points="403.7,457 403.1,459.6 400.8,459.6 400.8,457 	"/>
	<path fill="#231F20" d="M400.8,459.6h2.3c0,0,0.9,2.9-2.1,3.1h-3.9c0,0-0.9-1.9,1.5-2C398.5,460.8,400.6,460.4,400.8,459.6z"/>
	<polygon fill="#BE1E2D" points="417.3,445 411.9,445 414.5,460.3 417.3,460.3 	"/>
	<polygon fill="#BE1E2D" points="400.1,445.3 405,445.3 403.5,459.9 400.4,459.9 	"/>
	<path fill="#414042" d="M412.4,378l-4.4,7.2l-4.3-7.2h-4.8c0,0,1.3-3.4,6-3.8c4.7-0.4,9.8-0.6,11.5,3.8L412.4,378z"/>
	<path fill="#936845" d="M402.1,359.1v13.6h2.1v4.5c0,0,2.3,4.6,8,0v-9.3c0,0,1.7-0.3,1.7-2.3s-2-1-2-1v-5.4H402.1z"/>
	<path fill="#936845" d="M412.2,377.2l-4.2,7.3l-3.8-7.3C404.2,377.2,407.7,372.8,412.2,377.2z"/>
	<path fill="#936845" d="M432.9,384.9c0,0,7.5-1.6,10.5-7.8c0,0,0.6-1.8,1.5-1.7s0.4,1.6,0.4,1.6s0.8-3.8,1.9-3.7
		c1.1,0.1,3.8,1.4,0.2,7.5c0,0-8.3,10.2-15.4,8.7C431.9,389.5,427.4,385.2,432.9,384.9z"/>
	<path fill="#9B8579" d="M420.8,377.4c0,0,3.9,6,11,7.2c0,0,0.8,4.2-1.3,5.4c0,0-8.7-1.5-12.1-5.5L420.8,377.4z"/>
	<path fill="#414042" d="M430,389.9c0,0,1.9-2.8,0.9-5.5l1.8,0.3c0,0,0,4.5-1.4,5.4L430,389.9z"/>
	<path fill="#936845" d="M382.3,383c0,0-7.1-2.9-9.1-9.5c0,0-0.3-1.9-1.2-1.9c-0.8-0.1-0.6,1.6-0.6,1.6s-0.1-3.9-1.2-3.9
		c-1.1-0.1-4,0.8-1.4,7.3c0,0,6.5,11.5,13.8,11.1C382.6,387.6,387.8,384.1,382.3,383z"/>
	<path fill="#9B8579" d="M395.6,377.6c0,0-4.9,5.3-12,5.3c0,0-1.5,4.1,0.4,5.5c0,0,8.8-0.1,12.8-3.4L395.6,377.6z"/>
	<path fill="#414042" d="M384.4,388.4c0,0-1.4-3.1,0-5.5h-1.9c0,0-0.8,4.4,0.5,5.5H384.4z"/>
	<path fill="#936845" d="M412,364.5l-0.7-4.3l-9.2-0.5c0,0-0.7-3.3,5.5-3.2c6.2,0,5.1,7.8,5.1,7.8"/>
	<polygon fill="#414042" points="416.4,409.7 418.9,460 413.9,460.3 407.7,424.7 405,460 398.9,460 398.6,409.5 	"/>
</g>
<g>
	<polygon fill="#1C75BC" points="389.5,370.9 394.2,358.3 400.9,359.5 393.2,380.7 391.9,374 	"/>
	<polygon fill="#F9BD91" points="394.2,358.3 396.1,352.7 390.7,339 393.9,337 401.5,353 400.3,359.5 	"/>
	<path fill="#F9BD91" d="M369.5,335.3c2.4-8.2,5.8-6.8,6.8-5.9c1,0.9-1.8,4.7-1.8,4.7s1-1.7,1.8-1s-0.3,2.7-0.3,2.7s-1.5,3.5-4,2.6
		S369.5,335.3,369.5,335.3z"/>
	<polygon fill="#1C75BC" points="374.2,370.4 369.5,357.9 362.7,359.1 370.4,380.2 371.7,373.5 	"/>
	<polygon fill="#F9BD91" points="369.5,357.9 367.6,352.2 373,338.5 369.8,336.5 362.2,352.6 363.4,359.1 	"/>
	<path fill="#F9BD91" d="M375.9,351.4v15h2.3v4.9c0,0,2.6,5,8.8,0v-10.2c0,0,1.9-0.4,1.9-2.6s-2.2-1.1-2.2-1.1v-6H375.9z"/>
	<polygon fill="#8B5E3C" points="389,459.1 389.7,462 392.2,462 392.2,459.1 	"/>
	<path fill="#231F20" d="M392.2,462h-2.6c0,0-1,3.2,2.3,3.4h4.3c0,0,0.9-2-1.6-2.2C394.7,463.2,392.5,462.9,392.2,462z"/>
	<polygon fill="#8B5E3C" points="377.5,459.1 376.9,462 374.4,462 374.4,459.1 	"/>
	<path fill="#231F20" d="M374.4,462h2.6c0,0,1,3.2-2.3,3.4h-4.3c0,0-0.9-2,1.6-2.2C371.9,463.2,374.1,462.9,374.4,462z"/>
	<path fill="#E6E7E8" d="M383.7,361.9h-7.5c0,0,1.3-2.3,3.7-2.3S383.7,361.9,383.7,361.9z"/>
	<path fill="#E6E7E8" d="M383.7,361.9l0.4,0.4c0,0-3.3,0.6-4.3-0.4c0,0-2.5,0.5-3.8,0.4l0.3-0.5
		C376.3,361.8,381.4,361.3,383.7,361.9z"/>
	<polygon fill="#F9BD91" points="391.5,407.1 392.5,459.1 388.8,459.1 381.5,416.5 377.5,459.1 374,459.1 372.6,406.8 	"/>
	<path fill="#1C75BC" d="M396.4,371.7c0,0-9.3-5.2-28,0l3.5,35.2c0,0,7.7,0.5,20.2-0.1L396.4,371.7z"/>
	<polygon fill="#8B5E3C" points="389,459.1 389.7,462 392.2,462 392.2,459.1 	"/>
	<path fill="#231F20" d="M392.2,462h-2.6c0,0-1,3.2,2.3,3.4h4.3c0,0,0.9-2-1.6-2.2C394.7,463.2,392.5,462.9,392.2,462z"/>
	<polygon fill="#8B5E3C" points="377.5,459.1 376.9,462 374.4,462 374.4,459.1 	"/>
	<path fill="#231F20" d="M374.4,462h2.6c0,0,1,3.2-2.3,3.4h-4.3c0,0-0.9-2,1.6-2.2C371.9,463.2,374.1,462.9,374.4,462z"/>
	<polygon fill="#BE1E2D" points="392.5,445.9 386.6,445.9 389.5,462.7 392.5,462.7 	"/>
	<polygon fill="#BE1E2D" points="373.6,446.3 379,446.3 377.3,462.3 374,462.3 	"/>
	<path fill="#F9BD91" d="M375.9,351.4v15h2.3v4.9c0,0,2.6,5,8.8,0v-10.2c0,0,1.9-0.4,1.9-2.6s-2.2-1.1-2.2-1.1v-6H375.9z"/>
	<path fill="#F9BD91" d="M387,371.3l-4.6,8l-4.2-8C378.1,371.3,381.9,366.4,387,371.3z"/>
	<path fill="#F9BD91" d="M395.3,335.7c-2.4-8.2-5.8-6.8-6.8-5.9c-1,0.9,1.8,4.7,1.8,4.7s-1-1.7-1.8-1c-0.8,0.7,0.3,2.7,0.3,2.7
		s1.5,3.5,4,2.6C395.3,338,395.3,335.7,395.3,335.7z"/>
	<path fill="#F9BD91" d="M386.2,358.3l0.2-5.3l-10.6-0.5c0,0-0.8-3.8,6.4-3.7c7.2,0,5.9,9,5.9,9"/>
	<polygon fill="#414042" points="391.7,407.5 393.2,463.8 389,463.8 381.4,418.8 378,463.3 373.3,463.8 372.6,407.8 	"/>
	<path fill="#969618" d="M388.1,356.8c-0.7-0.3-1.5,0.2-1.8,0.9c-0.3,0.7-0.2,1.5,0,2.2c-0.5,0-0.9,0-1.4,0c0.1-2.1,0.3-4.2,0.4-6.3
		c-0.4,0.6-0.6,1.3-0.4,2c-0.9-1.1-1.3-2.7-1-4.1c-0.6,1-0.8,2.2-0.4,3.3c-1.1-1-1.6-2.6-1.4-4c-0.8,0.7-1.2,2-1,3
		c-0.8-0.8-1.3-2-1.2-3.2c-0.7,1-0.9,2.2-0.6,3.4c-0.8-0.8-1.2-2-1.1-3.1c-0.7,0.8-1.1,1.9-0.9,3c-0.7-0.5-0.7-1.6-0.7-2.5
		c-0.7,0.7-1,1.8-0.8,2.8c-0.5-0.8-0.9-1.6-1.2-2.5c-0.3-0.9-0.3-2,0.4-2.6c-0.2-1,0.1-2.1,0.8-2.8c-0.2,0.9,0.2,1.9,1,2.5
		c-0.3-1.4,0.3-2.9,1.4-3.7c-0.5,0.9,0.1,2,0.7,2.9c-0.4-1,0.2-2.3,1.2-2.7c-0.3,0.7-0.1,1.6,0.4,2.2c0-0.9,0.3-1.8,0.9-2.4
		c-0.2,1-0.2,2.3,0.7,2.8c0-0.5,0.1-1.1,0.4-1.5c0.1,1,0.7,2,1.5,2.6c0.7,0,1.3-0.7,1.3-1.3c0.2,1.1,1.1,1.9,1.7,2.8
		c1.3,1.9,1.8,4.2,1.6,6.5c0,0.1,0,0.3-0.2,0.3c-0.2,0.1-0.3-0.1-0.4-0.2c-0.4-0.4-1-0.5-1.5-0.2"/>
</g>
<g>
	<path fill="#F9BD91" d="M355.2,353.1v13.4h-2.1v4.4c0,0-2.3,4.5-8,0v-9.2c0,0-1.7-0.3-1.7-2.3c0-2,2-1,2-1v-5.3H355.2z"/>
	<polygon fill="#8B5E3C" points="343.2,449.4 342.7,452.1 340.3,452.1 340.3,449.4 	"/>
	<path fill="#231F20" d="M340.3,452.1h2.3c0,0,0.9,2.9-2.1,3.1h-3.9c0,0-0.9-1.8,1.5-2C338.1,453.2,340.1,452.8,340.3,452.1z"/>
	<polygon fill="#8B5E3C" points="353.7,449.4 354.2,452.1 356.6,452.1 356.6,449.4 	"/>
	<path fill="#231F20" d="M356.6,452.1h-2.3c0,0-0.9,2.9,2.1,3.1h3.9c0,0,0.9-1.8-1.5-2C358.8,453.2,356.8,452.8,356.6,452.1z"/>
	<path fill="#E6E7E8" d="M348.1,362.5h6.8c0,0-1.2-2.1-3.4-2.1C349.3,360.4,348.1,362.5,348.1,362.5z"/>
	<path fill="#E6E7E8" d="M348.1,362.5l-0.3,0.4c0,0,3,0.5,3.9-0.4c0,0,2.3,0.4,3.4,0.4l-0.3-0.5C354.8,362.4,350.2,362,348.1,362.5z
		"/>
	<polygon fill="#252F63" points="341,402.9 340.1,449.4 343.4,449.4 350,411.3 353.7,449.4 356.9,449.4 358.2,402.7 	"/>
	<path fill="#0AC1AF" d="M339.4,371.3c0,0,2.7-4.7,19.7,0l-0.3,31.4c0,0-7,0.5-18.4-0.1L339.4,371.3z"/>
	<polygon fill="#8B5E3C" points="343.2,449.4 342.7,452.1 340.3,452.1 340.3,449.4 	"/>
	<path fill="#231F20" d="M340.3,452.1h2.3c0,0,0.9,2.9-2.1,3.1h-3.9c0,0-0.9-1.8,1.5-2C338.1,453.2,340.1,452.8,340.3,452.1z"/>
	<polygon fill="#8B5E3C" points="353.7,449.4 354.2,452.1 356.6,452.1 356.6,449.4 	"/>
	<path fill="#231F20" d="M356.6,452.1h-2.3c0,0-0.9,2.9,2.1,3.1h3.9c0,0,0.9-1.8-1.5-2C358.8,453.2,356.8,452.8,356.6,452.1z"/>
	<path fill="#F9BD91" d="M355.2,353.1v13.4h-2.1v4.4c0,0-2.3,4.5-8,0v-9.2c0,0-1.7-0.3-1.7-2.3c0-2,2-1,2-1v-5.3H355.2z"/>
	<path fill="#F9BD91" d="M345.1,370.9l4.2,7.1l3.8-7.1C353.2,370.9,349.7,366.6,345.1,370.9z"/>
	<polygon fill="#252F63" points="358.2,402.7 358.9,420.4 357.1,442 354.1,405.7 	"/>
	<polygon fill="#252F63" points="341,402.5 339.6,420.9 341.2,442.3 344.2,406 	"/>
	<path fill="#C2B59B" d="M353.2,369.9l1.7,5l-5.8,10.1v18.6l5,10.1l6.3,0.4l-1.6-17.4l0.2-25.4C359,371.3,354.2,369.9,353.2,369.9z"
		/>
	<path fill="#C2B59B" d="M345,369l-1.7,5l6,10.3l-0.2,19l-5,9.5l-6.3,0.4l1.6-17.4l-0.2-25.4C339.1,370.4,344,368.9,345,369z"/>
	<path fill="#C2B59B" d="M358.2,371.1l12-21.3l2.6,1.9l-13.9,34.4C358.9,386.1,356.8,377,358.2,371.1z"/>
	<path fill="#F9BD91" d="M373.5,350.8c3-5.7,0.5-6.7-0.5-6.8c-1-0.1-1.5,3.4-1.5,3.4s0.3-1.4-0.4-1.5c-0.8,0-1.3,1.6-1.3,1.6
		s-1,2.7,0.7,3.5S373.5,350.8,373.5,350.8z"/>
	<path fill="#F9BD91" d="M330.8,407.3c0.2,6.4,3,6.1,3.8,5.6c0.9-0.5-0.4-3.7-0.4-3.7s0.4,1.4,1.1,1.1c0.7-0.4,0.3-2,0.3-2
		s-0.4-2.8-2.4-2.7C331.2,405.7,330.8,407.3,330.8,407.3z"/>
	<path fill="#C2B59B" d="M339.1,370.4l-9.4,17.4l1.4,18.8l3.3-0.4v-15.8l5.6-7.3C340.1,383.2,340.8,370.7,339.1,370.4z"/>
	<path fill="#0AC1AF" d="M345.1,370.9c0,0,3.5,8.3,8,0C353.2,370.9,349.4,388,345.1,370.9z"/>
	<rect x="339.4" y="393.6" fill="#A09582" width="4.8" height="2.4"/>
	<rect x="354.1" y="393.8" fill="#A09582" width="4.8" height="2.4"/>
	
		<rect x="346" y="393.8" transform="matrix(0.9927 0.1206 -0.1206 0.9927 50.8608 -38.944)" fill="#A09582" width="2.3" height="13.7"/>
	
		<rect x="349.8" y="393.8" transform="matrix(0.969 -0.2469 0.2469 0.969 -88.0603 99.0647)" fill="#A09582" width="2.3" height="13.7"/>
	<path fill="#3C2415" d="M344.4,358.1c0.2,0,0.4,0.1,0.5,0.3c0.1,0.1,0.1,0.3,0.1,0.5c0.1,1,0.5,2,1,2.9c-0.2-1.3-0.3-2.7,0.1-4
		c0.2-0.6,0.5-1.1,0.8-1.6c0.5-0.9,1-1.7,1.5-2.6c0.1,1.6-0.4,3.3-1.6,4.6c2.8,0.3,5.7-1.3,6.9-3.8c0.1-0.3,0.3-0.6,0.5-0.9
		c0.2-0.2,0.6-0.4,0.9-0.3c0-1-0.8-1.9-1.7-2.4c-0.9-0.4-2-0.5-3-0.6c-0.9-0.1-1.8-0.1-2.6,0c-1.9,0.3-3.7,1.6-4.5,3.3
		s-0.9,3.9,0,5.6C343.3,358.6,343.8,358.1,344.4,358.1z"/>
	<path fill="#3C2415" d="M355.2,353.1l0,4.1c0,0,2.2-5.3-0.8-5.9"/>
	<path fill="#3C2415" d="M344,361c0,0-0.1,4.3,2.2,4.3c0,0-1.1-1.6-1-3.6L344,361z"/>
	<polygon fill="#A09582" points="349.3,384.6 357.7,378.5 356,376.4 358.5,374.3 353.2,368.7 353.2,370.4 354.9,374.9 	"/>
	<polygon fill="#A09582" points="349.3,384.6 343.3,374 345.1,368.7 345,367.2 340.2,374.7 343,376.7 339.6,378.1 	"/>
	<circle fill="#A09582" cx="349.7" cy="387.2" r="0.7"/>
	<circle fill="#A09582" cx="350.1" cy="391.2" r="0.8"/>
	<circle fill="#E6E7E8" cx="344.8" cy="360.7" r="0.3"/>
	<g>
		<path fill="#231F20" d="M347.9,358.9c0,0.5,0.5,0.9,1.1,0.9h1.4c0.6,0,1.1-0.4,1.1-0.9c0-0.5-0.5-0.9-1.1-0.9H349
			C348.4,358,347.9,358.4,347.9,358.9z M348.2,358.9c0-0.4,0.4-0.7,0.8-0.7h1.3c0.5,0,0.8,0.3,0.8,0.7c0,0.4-0.4,0.7-0.8,0.7H349
			C348.6,359.7,348.2,359.3,348.2,358.9z"/>
		<path fill="#231F20" d="M351.9,358.9c0,0.5,0.5,0.9,1.1,0.9h1.4c0.6,0,1.1-0.4,1.1-0.9c0-0.5-0.5-0.9-1.1-0.9H353
			C352.4,358,351.9,358.4,351.9,358.9z M352.2,358.9c0-0.4,0.4-0.7,0.8-0.7h1.3c0.5,0,0.8,0.3,0.8,0.7c0,0.4-0.4,0.7-0.8,0.7H353
			C352.6,359.7,352.2,359.3,352.2,358.9z"/>
		<polygon fill="#231F20" points="352,358.9 351.3,358.9 351.3,358.6 352.1,358.6 		"/>
		<polyline fill="#231F20" points="348,359 344.4,359.2 344,359 348,358.6 		"/>
	</g>
</g>
</svg>
