<?xml version="1.0" encoding="utf-8"?>
<!-- Generator: Adobe Illustrator 19.0.0, SVG Export Plug-In . SVG Version: 6.00 Build 0)  -->
<svg version="1.1" id="Layer_1" xmlns="http://www.w3.org/2000/svg" xmlns:xlink="http://www.w3.org/1999/xlink" x="0px" y="0px"
	 viewBox="75.8 206.2 280.4 138.2" style="enable-background:new 75.8 206.2 280.4 138.2;" xml:space="preserve">
<style type="text/css">
	.st0{fill:#515354;}
	.st1{fill:#F9BD91;}
	.st2{fill:#8B5E3C;}
	.st3{fill:#E6E7E8;}
	.st4{fill:#936845;}
	.st5{fill:#BE1E2D;}
	.st6{fill:#231F20;}
	.st7{fill:#F1F2F2;}
	.st8{fill:#262262;}
	.st9{fill:#00A651;}
	.st10{fill:#1C75BC;}
	.st11{fill:#006838;}
	.st12{fill:#FFF200;}
	.st13{fill:#3C2415;}
	.st14{fill:#EF4136;}
	.st15{fill:#C19368;}
	.st16{fill:#9B8579;}
	.st17{fill:#414042;}
	.st18{fill:#969618;}
	.st19{fill:#252F63;}
	.st20{fill:#0AC1AF;}
	.st21{fill:#C2B59B;}
	.st22{fill:#A09582;}
</style>
<g>
	<g>
		<path class="st0" d="M326.7,241.1v13.3h2v4.4c0,0,2.2,4.5,7.7,0v-9c0,0,1.6-0.3,1.6-2.2s-1.9-1-1.9-1v-5.3L326.7,241.1
			L326.7,241.1z"/>
		<polygon class="st0" points="326.2,336.1 325.7,338.7 323.4,338.7 323.4,336.1 		"/>
		<path class="st0" d="M323.4,338.7h2.2c0,0,0.9,2.8-2,3h-3.8c0,0-0.9-1.8,1.5-1.9C321.2,339.9,323.2,339.5,323.4,338.7z"/>
		<polygon class="st0" points="336.4,336.1 336.9,338.7 339.2,338.7 339.2,336.1 		"/>
		<path class="st0" d="M339.2,338.7H337c0,0-0.9,2.8,2,3h3.8c0,0,0.9-1.8-1.5-1.9C341.3,339.9,339.4,339.5,339.2,338.7z"/>
		<path class="st0" d="M333.7,250.4h-6.6c0,0,1.2-2,3.3-2S333.7,250.4,333.7,250.4z"/>
		<polygon class="st0" points="324,290.3 323.1,336.1 326.4,336.1 332.8,298.6 336.4,336.1 339.5,336.1 340.7,290.1 		"/>
		<path class="st0" d="M319.7,259.1c0,0,8.2-4.6,24.7,0l-3.1,31c0,0-6.8,0.5-17.8-0.1L319.7,259.1z"/>
		<polygon class="st0" points="326.2,336.1 325.7,338.7 323.4,338.7 323.4,336.1 		"/>
		<path class="st0" d="M323.4,338.7h2.2c0,0,0.9,2.8-2,3h-3.8c0,0-0.9-1.8,1.5-1.9C321.2,339.9,323.2,339.5,323.4,338.7z"/>
		<polygon class="st0" points="336.4,336.1 336.9,338.7 339.2,338.7 339.2,336.1 		"/>
		<path class="st0" d="M339.2,338.7H337c0,0-0.9,2.8,2,3h3.8c0,0,0.9-1.8-1.5-1.9C341.3,339.9,339.4,339.5,339.2,338.7z"/>
		<polygon class="st0" points="323.1,324.5 328.4,324.5 325.8,339.4 323.1,339.4 		"/>
		<polygon class="st0" points="339.8,324.9 335,324.9 336.5,339 339.5,339 		"/>
		<path class="st0" d="M327.9,259.5l4.3,7.1l4.2-7.1h4.6c0,0-1.3-3.3-5.8-3.7c-4.5-0.4-9.6-0.6-11.2,3.7H327.9z"/>
		<path class="st0" d="M326.7,241.1v13.3h2v4.4c0,0,2.2,4.5,7.7,0v-9c0,0,1.6-0.3,1.6-2.2s-1.9-1-1.9-1v-5.3L326.7,241.1
			L326.7,241.1z"/>
		<path class="st0" d="M328.1,258.7l4.1,7.1l3.8-7.1C335.8,258.7,332.4,254.4,328.1,258.7z"/>
		<path class="st0" d="M307.9,266.3c0,0-7.3-1.6-10.2-7.6c0,0-0.6-1.7-1.5-1.6c-0.8,0.1-0.4,1.5-0.4,1.5s-0.8-3.7-1.8-3.6
			c-1.1,0.1-3.7,1.4-0.2,7.3c0,0,8,10,15,8.4C308.9,270.6,313.4,266.4,307.9,266.3z"/>
		<path class="st0" d="M319.8,258.9c0,0-3.8,5.8-10.6,7c0,0-0.8,4.2,1.3,5.2c0,0,8.4-1.5,11.7-5.3L319.8,258.9z"/>
		<path class="st0" d="M354.3,231c0.2-7.5-3.1-7.3-4.2-6.8s0.2,4.5,0.2,4.5s-0.4-1.7-1.3-1.4c-0.8,0.4-0.5,2.4-0.5,2.4
			s0.4,3.4,2.6,3.3C353.7,232.9,354.3,231,354.3,231z"/>
		<polygon class="st0" points="341,259.3 348.3,250 353.6,252.8 341.5,268.5 342.2,262.6 		"/>
		<polygon class="st0" points="348.3,250 351.4,245.7 350.5,232.8 353.7,231.9 355.9,247.5 353.1,252.6 		"/>
		<path class="st0" d="M335.3,242.7v5.6l0.8-0.1l0.1-1.9l0.7-0.2v-6.6c0,0-6.4-6.3-10.3,1.5c0,0-1.5,1-1.4,1.2
			c0.3,0.2,5.4-1.2,5.4-1.2l-1.2,1.2l5.7-0.8L335.3,242.7z"/>
		<path class="st0" d="M323.4,290.1c-0.4,0.8-1.3,49.6-1.3,49.6l3.7-0.3l6.7-33.8l3.4,33.8l4.5,0.3l0.3-49.6H323.4z"/>
	</g>
	<g>
		<path class="st0" d="M218.3,239.4v13.3h2v4.4c0,0,2.2,4.5,7.7,0v-9c0,0,1.6-0.3,1.6-2.2s-1.9-1-1.9-1v-5.3L218.3,239.4
			L218.3,239.4z"/>
		<polygon class="st0" points="229.9,334.5 230.5,337 232.7,337 232.7,334.5 		"/>
		<polygon class="st0" points="219.8,334.5 219.2,337 217,337 217,334.5 		"/>
		<path class="st0" d="M225.2,248.7h-6.6c0,0,1.2-2,3.3-2C224,246.6,225.2,248.7,225.2,248.7z"/>
		<path class="st0" d="M225.2,248.7l0.3,0.4c0,0-2.9,0.5-3.8-0.4c0,0-2.2,0.5-3.3,0.4l0.3-0.5C218.7,248.6,223.2,248.2,225.2,248.7z
			"/>
		<polygon class="st0" points="232.1,288.5 233,334.5 229.7,334.5 223.4,296.8 219.8,334.5 216.7,334.5 215.4,288.3 		"/>
		<path class="st0" d="M236.4,257.3c0,0-8.2-4.6-24.7,0l3.1,31.1c0,0,6.8,0.5,17.8-0.1L236.4,257.3z"/>
		<polygon class="st0" points="229.9,334.5 230.5,337 232.7,337 232.7,334.5 		"/>
		<path class="st0" d="M232.7,337h-2.2c0,0-0.9,2.8,2,3h3.8c0,0,0.9-1.8-1.5-1.9C234.9,338.2,232.9,337.8,232.7,337z"/>
		<polygon class="st0" points="219.8,334.5 219.2,337 217,337 217,334.5 		"/>
		<path class="st0" d="M217,337h2.2c0,0,0.9,2.8-2,3h-3.8c0,0-0.9-1.8,1.5-1.9C214.8,338.2,216.8,337.8,217,337z"/>
		<polygon class="st0" points="233,322.8 227.7,322.8 230.3,337.7 233,337.7 		"/>
		<polygon class="st0" points="216.4,323.2 221,323.2 219.6,337.4 216.7,337.3 		"/>
		<path class="st0" d="M228.3,257.8l-4.3,7.1l-4.2-7.1h-4.6c0,0,1.3-3.3,5.8-3.7s9.6-0.6,11.2,3.7H228.3z"/>
		<path class="st0" d="M218.3,239.4v13.3h2v4.4c0,0,2.2,4.5,7.7,0v-9c0,0,1.6-0.3,1.6-2.2s-1.9-1-1.9-1v-5.3L218.3,239.4
			L218.3,239.4z"/>
		<path class="st0" d="M228.1,257l-4.1,7l-3.8-7.1C220.3,257,223.6,252.7,228.1,257z"/>
		<path class="st0" d="M248.2,264.5c0,0,7.3-1.6,10.2-7.6c0,0,0.6-1.7,1.5-1.6c0.8,0.1,0.4,1.5,0.4,1.5s0.8-3.7,1.8-3.6
			c1.1,0.1,3.7,1.4,0.2,7.3c0,0-8,10-15,8.4C247.3,269,242.8,264.8,248.2,264.5z"/>
		<path class="st0" d="M236.4,257.3c0,0,3.8,5.8,10.6,7c0,0,0.8,4.2-1.3,5.2c0,0-8.4-1.5-11.7-5.3L236.4,257.3z"/>
		<path class="st0" d="M245.3,269.3c0,0,1.8-2.7,0.9-5.3l1.8,0.3c0,0,0,4.4-1.4,5.2L245.3,269.3z"/>
		<path class="st0" d="M199.1,262.6c0,0-7-2.8-8.8-9.2c0,0-0.3-1.8-1.2-1.8c-0.9,0-0.6,1.5-0.6,1.5s-0.1-3.8-1.2-3.9
			s-3.9,0.8-1.4,7.2c0,0,6.3,11.1,13.4,10.8C199.3,267.1,204.3,263.7,199.1,262.6z"/>
		<path class="st0" d="M211.9,257.3c0,0-4.7,5.1-11.7,5.1c0,0-1.5,4,0.4,5.3c0,0,8.5-0.1,12.5-3.3L211.9,257.3z"/>
		<path class="st0" d="M201.1,267.8c0,0-1.4-3,0-5.4h-1.8c0,0-0.8,4.3,0.5,5.4H201.1z"/>
		<path class="st0" d="M227.8,244.7l-0.7-4.2l-8.9-0.5c0,0-0.7-3.2,5.4-3.1c6.1,0,4.9,7.5,4.9,7.5"/>
		<polygon class="st0" points="232.1,288.5 234.6,337.4 229.7,337.7 223.6,303.1 221,337.4 215.1,337.4 214.8,288.4 		"/>
	</g>
	<g>
		<polygon class="st0" points="196.5,250.8 201.1,238.7 207.6,239.8 200.1,260.3 198.9,253.9 		"/>
		<polygon class="st0" points="201.1,238.7 202.9,233.2 197.6,219.8 200.7,217.9 208.2,233.4 207,239.8 		"/>
		<path class="st0" d="M177.1,216.2c2.3-8,5.6-6.7,6.6-5.8c1,0.9-1.7,4.5-1.7,4.5s1-1.6,1.7-1c0.8,0.7-0.3,2.6-0.3,2.6
			s-1.5,3.4-3.9,2.5C177.1,218.3,177.1,216.2,177.1,216.2z"/>
		<polygon class="st0" points="181.6,250.4 177.1,238.2 170.5,239.3 178,259.9 179.2,253.4 		"/>
		<polygon class="st0" points="177.1,238.2 175.2,232.7 180.5,219.3 177.4,217.4 169.9,233.1 171.1,239.3 		"/>
		<path class="st0" d="M183.2,231.9v14.5h2.2v4.8c0,0,2.5,4.8,8.6,0v-10c0,0,1.8-0.4,1.8-2.5s-2.1-1.1-2.1-1.1v-5.8h-10.5V231.9z"/>
		<polygon class="st0" points="196.1,336.4 196.6,339.3 199.2,339.3 199.2,336.4 		"/>
		<path class="st0" d="M199.2,339.3h-2.5c0,0-1,3.1,2.2,3.3h4.2c0,0,1-1.9-1.5-2.1C201.5,340.5,199.4,340.1,199.2,339.3z"/>
		<polygon class="st0" points="184.8,336.4 184.3,339.3 181.8,339.3 181.8,336.4 		"/>
		<path class="st0" d="M181.8,339.3h2.5c0,0,1,3.1-2.2,3.3H178c0,0-1-1.9,1.5-2.1C179.4,340.5,181.5,340.1,181.8,339.3z"/>
		<path class="st0" d="M190.8,242.1h-7.3c0,0,1.3-2.2,3.7-2.2C189.6,239.8,190.8,242.1,190.8,242.1z"/>
		<path class="st0" d="M190.8,242.1l0.4,0.4c0,0-3.2,0.6-4.2-0.4c0,0-2.4,0.5-3.7,0.4l0.3-0.5C183.7,242,188.6,241.5,190.8,242.1z"
			/>
		<polygon class="st0" points="198.5,286 199.5,336.4 195.9,336.4 188.8,295.1 184.8,336.4 181.5,336.4 180.1,285.7 		"/>
		<path class="st0" d="M203.2,251.5c0,0-9-5-27.2,0l3.4,34.2c0,0,7.5,0.5,19.6-0.1L203.2,251.5z"/>
		<polygon class="st0" points="196.1,336.4 196.6,339.3 199.2,339.3 199.2,336.4 		"/>
		<path class="st0" d="M199.2,339.3h-2.5c0,0-1,3.1,2.2,3.3h4.2c0,0,1-1.9-1.5-2.1C201.5,340.5,199.4,340.1,199.2,339.3z"/>
		<polygon class="st0" points="184.8,336.4 184.3,339.3 181.8,339.3 181.8,336.4 		"/>
		<path class="st0" d="M181.8,339.3h2.5c0,0,1,3.1-2.2,3.3H178c0,0-1-1.9,1.5-2.1C179.4,340.5,181.5,340.1,181.8,339.3z"/>
		<polygon class="st0" points="199.5,323.6 193.6,323.6 196.6,340 199.5,340 		"/>
		<polygon class="st0" points="181.1,324 186.3,324 184.6,339.6 181.5,339.6 		"/>
		<path class="st0" d="M183.2,231.9v14.5h2.2v4.8c0,0,2.5,4.8,8.6,0v-10c0,0,1.8-0.4,1.8-2.5s-2.1-1.1-2.1-1.1v-5.8h-10.5V231.9z"/>
		<path class="st0" d="M194,251.2l-4.5,7.7l-4.1-7.7C185.4,251.2,189.2,246.5,194,251.2z"/>
		<path class="st0" d="M202.2,216.7c-2.3-8-5.6-6.7-6.6-5.8c-1,0.9,1.7,4.5,1.7,4.5s-1-1.6-1.7-1c-0.8,0.7,0.3,2.6,0.3,2.6
			s1.5,3.4,3.9,2.5C202.1,218.8,202.2,216.7,202.2,216.7z"/>
		<path class="st0" d="M193.3,238.7l0.2-5.2l-10.3-0.5c0,0-0.8-3.7,6.2-3.6c7,0,5.7,8.7,5.7,8.7"/>
		<polygon class="st0" points="198.6,286.4 200.1,341.1 196.1,341.1 188.6,297.3 185.3,340.6 180.8,341.1 180.1,286.7 		"/>
		<path class="st0" d="M195.2,237.2c-0.7-0.3-1.5,0.2-1.7,0.9c-0.3,0.7-0.2,1.5,0,2.1c-0.5,0-0.9,0-1.4,0c0.1-2,0.3-4.1,0.4-6.1
			c-0.4,0.6-0.6,1.3-0.4,1.9c-0.9-1.1-1.3-2.6-1-4c-0.6,1-0.8,2.1-0.4,3.2c-1.1-1-1.5-2.5-1.4-4c-0.8,0.7-1.2,1.9-1,2.9
			c-0.8-0.8-1.3-1.9-1.2-3.1c-0.7,1-0.9,2.1-0.6,3.3c-0.8-0.8-1.2-1.9-1.1-3c-0.7,0.8-1.1,1.9-0.9,2.9c-0.7-0.5-0.7-1.5-0.7-2.4
			c-0.7,0.7-1,1.7-0.8,2.7c-0.5-0.8-0.9-1.5-1.2-2.4s-0.3-2,0.4-2.6c-0.2-1,0.1-2,0.8-2.7c-0.2,0.9,0.2,1.8,1,2.4
			c-0.3-1.4,0.3-2.8,1.4-3.6c-0.5,0.9,0.1,1.9,0.7,2.8c-0.4-1,0.2-2.2,1.2-2.6c-0.3,0.7-0.1,1.5,0.4,2.1c0-0.9,0.3-1.7,0.9-2.3
			c-0.2,1-0.2,2.2,0.7,2.7c0-0.5,0.1-1.1,0.4-1.5c0.1,1,0.7,1.9,1.5,2.5c0.7,0,1.3-0.7,1.3-1.3c0.2,1.1,1.1,1.8,1.6,2.8
			c1.3,1.8,1.7,4.1,1.5,6.3c0,0.1,0,0.3-0.2,0.3c-0.2,0.1-0.3-0.1-0.4-0.2c-0.4-0.4-1-0.5-1.5-0.2"/>
	</g>
	<g>
		<path class="st0" d="M305.2,239.9v13.3h-2v4.4c0,0-2.2,4.5-7.7,0v-9c0,0-1.6-0.3-1.6-2.2s1.9-1,1.9-1V240L305.2,239.9L305.2,239.9
			z"/>
		<polygon class="st0" points="305.7,335.1 306.2,337.6 308.5,337.6 308.5,335.1 		"/>
		<path class="st0" d="M308.5,337.6h-2.3c0,0-0.9,2.8,2,3h3.8c0,0,0.9-1.8-1.5-1.9C310.7,338.7,308.7,338.4,308.5,337.6z"/>
		<polygon class="st0" points="295.6,335.1 295,337.6 292.8,337.6 292.8,335.1 		"/>
		<path class="st0" d="M292.8,337.6h2.2c0,0,0.9,2.8-2,3h-3.8c0,0-0.9-1.8,1.5-1.9C290.5,338.7,292.6,338.4,292.8,337.6z"/>
		<path class="st0" d="M298.3,249.2h6.6c0,0-1.2-2-3.3-2C299.4,247.2,298.3,249.2,298.3,249.2z"/>
		<polygon class="st0" points="307.9,289.1 308.8,335.1 305.5,335.1 299,297.4 295.6,335.1 292.4,335.1 291.2,288.9 		"/>
		<path class="st0" d="M312.2,257.9c0,0-8.2-4.6-24.7,0l3.1,31.1c0,0,6.8,0.5,17.8-0.1L312.2,257.9z"/>
		<polygon class="st0" points="305.7,335.1 306.2,337.6 308.5,337.6 308.5,335.1 		"/>
		<path class="st0" d="M308.5,337.6h-2.3c0,0-0.9,2.8,2,3h3.8c0,0,0.9-1.8-1.5-1.9C310.7,338.7,308.7,338.4,308.5,337.6z"/>
		<polygon class="st0" points="295.6,335.1 295,337.6 292.8,337.6 292.8,335.1 		"/>
		<path class="st0" d="M292.8,337.6h2.2c0,0,0.9,2.8-2,3h-3.8c0,0-0.9-1.8,1.5-1.9C290.5,338.7,292.6,338.4,292.8,337.6z"/>
		<polygon class="st0" points="308.8,323.4 303.5,323.4 306.1,338.3 308.8,338.3 		"/>
		<polygon class="st0" points="292.1,323.7 296.8,323.7 295.4,337.9 292.4,337.9 		"/>
		<path class="st0" d="M304.1,258.3l-4.3,7.1l-4.2-7.1H291c0,0,1.3-3.3,5.8-3.7c4.5-0.4,9.6-0.6,11.2,3.7H304.1z"/>
		<path class="st0" d="M305.2,239.9v13.3h-2v4.4c0,0-2.2,4.5-7.7,0v-9c0,0-1.6-0.3-1.6-2.2s1.9-1,1.9-1V240L305.2,239.9L305.2,239.9
			z"/>
		<path class="st0" d="M303.9,257.5l-4.1,7.1l-3.8-7.1C296,257.5,299.4,253.3,303.9,257.5z"/>
		<path class="st0" d="M324,265.1c0,0,7.3-1.6,10.2-7.6c0,0,0.6-1.7,1.5-1.6c0.8,0.1,0.4,1.5,0.4,1.5s0.8-3.7,1.8-3.6
			c1.1,0.1,3.7,1.4,0.2,7.3c0,0-8,10-15,8.4C322.9,269.4,318.6,265.4,324,265.1z"/>
		<path class="st0" d="M312.2,257.7c0,0,3.8,5.8,10.6,7c0,0,0.8,4.2-1.3,5.2c0,0-8.4-1.5-11.7-5.3L312.2,257.7z"/>
		<path class="st0" d="M277.6,229.9c-0.2-7.5,3.1-7.3,4.2-6.8s-0.2,4.5-0.2,4.5s0.4-1.7,1.3-1.4c0.8,0.4,0.5,2.4,0.5,2.4
			s-0.4,3.4-2.6,3.3C278.4,231.8,277.6,229.9,277.6,229.9z"/>
		<polygon class="st0" points="290.9,258.1 283.7,248.8 278.2,251.6 290.4,267.3 289.8,261.4 		"/>
		<polygon class="st0" points="283.7,248.8 280.5,244.6 281.4,231.6 278.2,230.7 276,246.3 278.8,251.4 		"/>
		<path class="st0" d="M296.6,241.6v5.6l-0.8-0.1l-0.1-1.9L295,245v-6.6c0,0,6.4-6.3,10.3,1.5c0,0,1.5,1,1.4,1.2
			c-0.2,0.2-5.4-1.2-5.4-1.2l1.2,1.2l-5.7-0.8L296.6,241.6z"/>
		<path class="st0" d="M308.4,288.9c0.4,0.8,1.3,49.6,1.3,49.6l-3.7-0.3l-6.7-33.8l-3.4,33.8l-4.5,0.3l-0.3-49.6H308.4z"/>
	</g>
	<g>
		<polygon class="st0" points="136.9,250.2 137.6,251.1 132.5,254.2 130.9,252.8 136.4,249.6 		"/>
		<path class="st0" d="M110.5,241.4v13.3h2v4.4c0,0,2.2,4.5,7.7,0v-9c0,0,1.6-0.3,1.6-2.2s-1.9-1-1.9-1v-5.3L110.5,241.4
			L110.5,241.4z"/>
		<polygon class="st0" points="109.9,336.4 109.4,339 107.2,339 107.2,336.4 		"/>
		<path class="st0" d="M107.2,339h2.2c0,0,0.9,2.8-2,3h-3.8c0,0-0.9-1.8,1.5-1.9C105,340.1,106.9,339.7,107.2,339z"/>
		<polygon class="st0" points="120.1,336.4 120.7,339 122.9,339 122.9,336.4 		"/>
		<path class="st0" d="M122.9,339h-2.2c0,0-0.9,2.8,2,3h3.8c0,0,0.9-1.8-1.5-1.9C125.1,340.1,123.1,339.7,122.9,339z"/>
		<path class="st0" d="M117.4,250.7h-6.6c0,0,1.2-2,3.3-2C116.2,248.6,117.4,250.7,117.4,250.7z"/>
		<polygon class="st0" points="107.8,290.4 106.9,336.4 110.1,336.4 116.6,298.8 120.1,336.4 123.3,336.4 124.4,290.3 		"/>
		<path class="st0" d="M103.4,259.3c0,0,8.2-4.6,24.7,0l-3.1,31.1c0,0-6.8,0.5-17.8-0.1L103.4,259.3z"/>
		<polygon class="st0" points="109.9,336.4 109.4,339 107.2,339 107.2,336.4 		"/>
		<path class="st0" d="M107.2,339h2.2c0,0,0.9,2.8-2,3h-3.8c0,0-0.9-1.8,1.5-1.9C105,340.1,106.9,339.7,107.2,339z"/>
		<polygon class="st0" points="120.1,336.4 120.7,339 122.9,339 122.9,336.4 		"/>
		<path class="st0" d="M122.9,339h-2.2c0,0-0.9,2.8,2,3h3.8c0,0,0.9-1.8-1.5-1.9C125.1,340.1,123.1,339.7,122.9,339z"/>
		<polygon class="st0" points="106.9,324.8 112.2,324.8 109.5,339.6 106.9,339.6 		"/>
		<polygon class="st0" points="123.6,325.1 118.8,325.1 120.3,339.3 123.3,339.2 		"/>
		<path class="st0" d="M110.5,241.4v13.3h2v4.4c0,0,2.2,4.5,7.7,0v-9c0,0,1.6-0.3,1.6-2.2s-1.9-1-1.9-1v-5.3L110.5,241.4
			L110.5,241.4z"/>
		<path class="st0" d="M91.7,266.4c0,0-7.3-1.6-10.2-7.6c0,0-0.6-1.7-1.5-1.6c-0.8,0.1-0.4,1.5-0.4,1.5s-0.8-3.7-1.8-3.6
			c-1.1,0.1-3.7,1.4-0.2,7.3c0,0,8,10,15,8.4C92.7,270.9,97.1,266.7,91.7,266.4z"/>
		<path class="st0" d="M103.5,259.2c0,0-3.8,5.8-10.6,7c0,0-0.8,4.2,1.3,5.2c0,0,8.4-1.5,11.7-5.3L103.5,259.2z"/>
		<path class="st0" d="M94.5,271.3c0,0-1.8-2.7-0.9-5.3l-1.8,0.3c0,0,0,4.4,1.4,5.2L94.5,271.3z"/>
		<path class="st0" d="M138.1,231.2c0.2-7.5-3.1-7.3-4.2-6.8s0.2,4.5,0.2,4.5s-0.4-1.7-1.2-1.4c-0.8,0.4-0.5,2.4-0.5,2.4
			s0.4,3.4,2.6,3.3C137.3,233.2,138.1,231.2,138.1,231.2z"/>
		<polygon class="st0" points="124.7,259.5 132.1,250.2 137.4,253 125.3,268.8 126,262.8 		"/>
		<polygon class="st0" points="132.1,250.2 135.2,245.9 134.2,233 137.5,232.2 139.6,247.7 136.8,252.8 		"/>
		<polygon class="st0" points="132.1,250.2 131.4,251.1 136.4,254.2 138,252.8 132.5,249.6 		"/>
		<path class="st0" d="M107.2,290.1c-0.4,0.8-1.4,49.6-1.4,49.6l3.7-0.3l6.7-33.8l3.4,33.8l4.5,0.3l0.3-49.6H107.2z"/>
		<path class="st0" d="M115.2,240.1c-0.1-0.4-0.2-0.8-0.2-1.1c1.5,0.2,3,0.3,4.5,0.5c0.6,0.1,1.2,0.2,1.5,0.6
			c0.2,0.3,0.3,0.6,0.4,0.9c0.6,1.9,0.6,4.1,0,6c-0.1-0.6-1.1-0.6-1.5-0.1s-0.3,1.2-0.2,1.7c0.1,0.8,0.2,1.5,0.3,2.4
			c-1.1,0.1-2,0.1-3.1,0.2c0.8-2.4,1.3-4.9,1.5-7.5c-0.4,0.4-1,0.5-1.5,0.2s-0.8-0.9-0.6-1.4c-1.2-0.2-2.3-0.3-3.5-0.5
			c-0.4-0.1-0.9-0.1-1.3,0.1c-0.2,0.1-0.4,0.4-0.6,0.5c-0.4,0.2-1,0.1-1.3-0.3s-0.4-0.9-0.5-1.3c-0.1-1.2,0.2-2.4,0.9-3.5
			c-0.1,1,0.6,1.9,1.5,2.2c-0.7-1.5-0.2-3.5,1.1-4.5C112.1,237.3,113.2,239.6,115.2,240.1z"/>
	</g>
	<g>
		<path class="st0" d="M257.8,238.1v13.3h2v4.4c0,0,2.2,4.5,7.7,0v-9c0,0,1.6-0.3,1.6-2.2s-1.9-1-1.9-1v-5.3L257.8,238.1
			L257.8,238.1z"/>
		<polygon class="st0" points="269.5,333.1 270,335.7 272.3,335.7 272.3,333.1 		"/>
		<path class="st0" d="M272.3,335.7h-2.2c0,0-0.9,2.8,2,3h3.8c0,0,0.9-1.8-1.5-1.9C274.5,336.8,272.5,336.5,272.3,335.7z"/>
		<polygon class="st0" points="259.4,333.1 258.8,335.7 256.6,335.7 256.6,333.1 		"/>
		<path class="st0" d="M256.6,335.7h2.2c0,0,0.9,2.8-2,3H253c0,0-0.9-1.8,1.5-1.9C254.3,336.8,256.4,336.5,256.6,335.7z"/>
		<path class="st0" d="M264.8,247.4h-6.6c0,0,1.2-2,3.3-2C263.6,245.3,264.8,247.4,264.8,247.4z"/>
		<path class="st0" d="M264.8,247.4l0.3,0.4c0,0-2.9,0.5-3.8-0.4c0,0-2.2,0.5-3.3,0.4l0.3-0.5C258.2,247.3,262.8,246.9,264.8,247.4z
			"/>
		<polygon class="st0" points="271.7,287.3 272.6,333.1 269.3,333.1 262.8,295.6 259.4,333.1 256.2,333.1 255,287 		"/>
		<path class="st0" d="M276,256c0,0-8.2-4.6-24.7,0l3.1,31.1c0,0,6.8,0.5,17.8-0.1L276,256z"/>
		<polygon class="st0" points="269.5,333.1 270,335.7 272.3,335.7 272.3,333.1 		"/>
		<path class="st0" d="M272.3,335.7h-2.2c0,0-0.9,2.8,2,3h3.8c0,0,0.9-1.8-1.5-1.9C274.5,336.8,272.5,336.5,272.3,335.7z"/>
		<polygon class="st0" points="259.4,333.1 258.8,335.7 256.6,335.7 256.6,333.1 		"/>
		<path class="st0" d="M256.6,335.7h2.2c0,0,0.9,2.8-2,3H253c0,0-0.9-1.8,1.5-1.9C254.3,336.8,256.4,336.5,256.6,335.7z"/>
		<path class="st0" d="M257.8,238.1v13.3h2v4.4c0,0,2.2,4.5,7.7,0v-9c0,0,1.6-0.3,1.6-2.2s-1.9-1-1.9-1v-5.3L257.8,238.1
			L257.8,238.1z"/>
		<path class="st0" d="M267.4,243.4v0.8h-0.8h-0.3v-2.5c0,0-1.5-0.4-1.5-1.3s0-1.5,0-1.5h-6.6l-0.3,1.1c0,0-0.6-1.6,0.3-2.5
			s10.2-1.4,11.4,2.1c0,0,0.2,4.5-0.4,5.3c0,0,0.4-1.6-0.8-1.7C267.4,243.1,267.4,243.4,267.4,243.4z"/>
		<path class="st0" d="M267.7,255.7l-4.1,7.1l-3.8-7.1C259.8,255.7,263.2,251.4,267.7,255.7z"/>
		<path class="st0" d="M287.8,263.2c0,0,7.3-1.6,10.2-7.6c0,0,0.6-1.7,1.5-1.6c0.8,0.1,0.4,1.5,0.4,1.5s0.8-3.7,1.8-3.6
			c1.1,0.1,3.7,1.4,0.2,7.3c0,0-8,10-15,8.4C286.8,267.6,282.4,263.4,287.8,263.2z"/>
		<path class="st0" d="M275.9,255.9c0,0,3.8,5.8,10.6,7c0,0,0.8,4.2-1.3,5.2c0,0-8.4-1.5-11.7-5.3L275.9,255.9z"/>
		<path class="st0" d="M238.6,261.3c0,0-7-2.8-8.8-9.2c0,0-0.3-1.8-1.2-1.8c-0.9,0-0.6,1.5-0.6,1.5s-0.1-3.8-1.2-3.9
			s-3.9,0.8-1.4,7.2c0,0,6.3,11.1,13.4,10.8C238.8,265.8,243.9,262.4,238.6,261.3z"/>
		<path class="st0" d="M251.4,256c0,0-4.7,5.1-11.7,5.1c0,0-1.5,4,0.4,5.3c0,0,8.5-0.1,12.5-3.3L251.4,256z"/>
		<path class="st0" d="M258.4,240c-0.3-0.2-0.5-0.5-0.7-0.8c0,0.2,0.1,0.4,0.1,0.6c-0.7-0.7-0.7-1.9,0-2.7c0-0.7,0.5-1.3,1.2-1.5
			c-0.2,0.5,0,1.1,0.5,1.3c-0.3-0.8,0.5-1.6,1.3-1.5c-0.4,0.3-0.5,1.1-0.2,1.5c0.1-1,1-1.7,1.8-1.8c-0.3,0.4-0.6,0.8-0.5,1.3
			s0.8,0.8,1.1,0.3c0.1-0.2,0-0.5-0.1-0.7c0.2,0.6,1,0.8,1.6,0.9c1.3,0.2,2.6,0.4,3.9,0.6c0.1-0.3,0.2-0.6,0.3-0.9
			c0.3,0.6,0.5,1.2,0.4,1.8c0.3-0.3,0.5-0.7,0.5-1.2c0.7,2.3,0.3,4.7-0.1,7.2c-0.1-0.5-0.3-1.1-0.7-1.4c-0.4-0.3-1.2-0.3-1.3,0.3
			c-0.1,0.4,0.1,0.8,0,1.2c-0.4,0.1-0.8,0.1-1.2,0.1c-0.2-1-0.2-2,0-3c-1.2-0.2-1.9-1.5-1.5-2.7c-0.5,0.3-0.6,1-0.3,1.4
			c-0.7-0.2-1.3-0.7-1.6-1.4c-0.2,0.5,0.1,1,0.5,1.2c-0.9-0.1-1.6-0.5-2.1-1.2c0,0.4,0.1,0.9,0.5,1.1c-0.7,0-1.4-0.5-1.6-1.1
			c0,0.4,0.1,0.7,0.2,1.1c-0.5-0.1-0.9-0.6-0.9-1.2c-0.3,0.4-0.3,0.9,0,1.3c-0.5-0.3-0.8-0.8-1-1.4
			C258.4,239.2,258.4,239.6,258.4,240z"/>
	</g>
	<g>
		<path class="st0" d="M145.5,242.1v13.1h2v4.3c0,0,2.2,4.4,7.7,0v-9c0,0,1.6-0.3,1.6-2.2s-1.9-1-1.9-1V242L145.5,242.1L145.5,242.1
			z"/>
		<polygon class="st0" points="157.2,335.5 157.7,338.2 160,338.2 160,335.5 		"/>
		<path class="st0" d="M160,338.2h-2.2c0,0-0.9,2.8,2,3h3.8c0,0,0.9-1.7-1.5-1.9C162.2,339.2,160.2,338.8,160,338.2z"/>
		<polygon class="st0" points="147,335.5 146.5,338.2 144.2,338.2 144.2,335.5 		"/>
		<path class="st0" d="M144.2,338.2h2.3c0,0,0.9,2.8-2,3h-3.8c0,0-0.9-1.7,1.5-1.9C142.1,339.2,144,338.8,144.2,338.2z"/>
		<path class="st0" d="M152.4,251.2h-6.6c0,0,1.2-2,3.3-2C151.3,249.1,152.4,251.2,152.4,251.2z"/>
		<path class="st0" d="M152.4,251.2l0.3,0.4c0,0-2.9,0.5-3.8-0.4c0,0-2.2,0.4-3.3,0.4l0.3-0.5C145.9,251.1,150.4,250.7,152.4,251.2z
			"/>
		<polygon class="st0" points="159.4,290.4 160.3,335.5 157,335.5 150.6,298.6 147,335.5 143.9,335.5 142.6,290.2 		"/>
		<path class="st0" d="M160.9,259.7c0,0-2.6-4.5-19.1,0l0.8,30.5c0,0,5.6,0.8,16.6,0.2L160.9,259.7z"/>
		<polygon class="st0" points="157.2,335.5 157.7,338.2 160,338.2 160,335.5 		"/>
		<path class="st0" d="M160,338.2h-2.2c0,0-0.9,2.8,2,3h3.8c0,0,0.9-1.7-1.5-1.9C162.2,339.2,160.2,338.8,160,338.2z"/>
		<polygon class="st0" points="147,335.5 146.5,338.2 144.2,338.2 144.2,335.5 		"/>
		<path class="st0" d="M144.2,338.2h2.3c0,0,0.9,2.8-2,3h-3.8c0,0-0.9-1.7,1.5-1.9C142.1,339.2,144,338.8,144.2,338.2z"/>
		<path class="st0" d="M145.5,242.1v13.1h2v4.3c0,0,2.2,4.4,7.7,0v-9c0,0,1.6-0.3,1.6-2.2s-1.9-1-1.9-1V242L145.5,242.1L145.5,242.1
			z"/>
		<path class="st0" d="M155.3,259.3l-4.1,7l-3.8-7C147.6,259.3,150.9,255.1,155.3,259.3z"/>
		<polygon class="st0" points="142.6,290.2 142,307.4 143.7,328.4 146.6,293.2 		"/>
		<polygon class="st0" points="159.3,290 160.6,307.9 159.2,328.7 156.2,293.4 		"/>
		<path class="st0" d="M142.6,259.5L131,238.8l-2.5,1.9L142,271C142.1,271,144,265.2,142.6,259.5z"/>
		<path class="st0" d="M127.8,239.8c-3-5.5-0.5-6.5,0.5-6.6s1.5,3.4,1.5,3.4s-0.4-1.4,0.4-1.5c0.8,0,1.3,1.5,1.3,1.5s1,2.6-0.7,3.4
			C129,240.9,127.8,239.8,127.8,239.8z"/>
		<path class="st0" d="M169.3,294.7c-0.2,6.3-2.9,5.9-3.8,5.4s0.4-3.7,0.4-3.7s-0.4,1.4-1.1,1.1s-0.3-2-0.3-2s0.4-2.8,2.3-2.6
			C168.9,293.2,169.3,294.7,169.3,294.7z"/>
		<path class="st0" d="M161.1,259.3l9.2,16.9l-1.4,18.3l-3.2-0.4v-15.3l-5.4-7.2C160.3,271.8,159.6,259.7,161.1,259.3z"/>
		<path class="st0" d="M155.3,259.3c0,0-3.4,8.1-7.7,0C147.6,259.3,151.2,275.9,155.3,259.3z"/>
		<path class="st0" d="M156.1,246.9c-0.2,0-0.4,0.1-0.5,0.3c-0.1,0.1-0.1,0.3-0.1,0.5c-0.1,1-0.5,1.9-1,2.8c0.2-1.3,0.3-2.6-0.1-3.9
			c-0.2-0.6-0.5-1.1-0.8-1.5c-0.5-0.9-1-1.6-1.5-2.5c-0.1,1.6,0.4,3.3,1.5,4.5c-2.7,0.3-5.5-1.3-6.7-3.7c-0.2-0.3-0.3-0.6-0.5-0.9
			c-0.2-0.2-0.6-0.4-0.9-0.3c0-1,0.8-1.8,1.6-2.3c0.9-0.4,1.9-0.5,2.9-0.6c0.9-0.1,1.7-0.1,2.6,0c1.8,0.3,3.6,1.5,4.4,3.2
			c0.9,1.6,0.9,3.8,0,5.4C157.1,247.4,156.6,246.9,156.1,246.9z"/>
		<path class="st0" d="M145.5,242.1v4c0,0-2.1-5.1,0.8-5.7"/>
		<path class="st0" d="M156.5,249.7c0,0,0.1,4.2-2.1,4.2c0,0,1.1-1.5,1-3.5L156.5,249.7z"/>
		<circle class="st0" cx="155.7" cy="249.4" r="0.3"/>
		<path class="st0" d="M156.7,247.4c0.1,2.3-1.5,4.3-2.3,6.4c-1.1,2.9-0.5,6.1,0,9.1c0.4-1.8,0.7-3.7,1.1-5.4
			c1.2,2.4,1.3,5.3,0.2,7.7c1.8-1.4,2-4.1,2-6.3c0.9,1.6,1.2,3.5,0.8,5.3c-0.2-2.6,1.4-5.1,1-7.7c-0.1-0.9-0.5-1.7-0.7-2.6
			c-0.8-3.4,0.9-7.2-0.5-10.4c-0.7-1.7-2.2-3.1-4-4c-1.2-0.6-2.4-1-3.8-0.8c-1.3,0.2-2.5,1.2-2.7,2.4c-0.1-0.2-0.5-0.3-0.3-0.3
			c0.5,0.8,1.5,1,2.3,1s1.7-0.2,2.6,0c0.5,0.1,1,0.4,1.4,0.7C155.5,243.8,156.7,245.3,156.7,247.4z"/>
		<path class="st0" d="M142.6,259.5l-3.1,8.2l3.5,7.8l9.7-1.5C152.8,274.1,146.1,259.9,142.6,259.5z"/>
	</g>
</g>
<g>
	<path class="st1" d="M204.3,233.3v13.6h-2.1v4.5c0,0-2.3,4.6-8,0v-9.3c0,0-1.7-0.3-1.7-2.3s2-1,2-1v-5.4h9.8V233.3z"/>
	<polygon class="st2" points="192.3,331.1 191.7,333.8 189.4,333.8 189.4,331.1 	"/>
	<polygon class="st2" points="202.7,331.1 203.3,333.8 205.6,333.8 205.6,331.1 	"/>
	<path class="st3" d="M197.1,242.8h6.8c0,0-1.2-2.1-3.4-2.1C198.3,240.7,197.1,242.8,197.1,242.8z"/>
	<path class="st3" d="M197.1,242.8l-0.3,0.4c0,0,3,0.5,3.9-0.4c0,0,2.3,0.5,3.4,0.4l-0.3-0.5C203.9,242.7,199.2,242.3,197.1,242.8z"
		/>
	<polygon class="st4" points="190,283.9 189.1,331.1 192.5,331.1 199.1,292.4 202.7,331.1 206,331.1 207.2,283.6 	"/>
	<path class="st5" d="M185.6,251.7c0,0,8.4-4.7,25.4,0l-3.2,32c0,0-7,0.5-18.4-0.1L185.6,251.7z"/>
	<polygon class="st2" points="192.3,331.1 191.7,333.8 189.4,333.8 189.4,331.1 	"/>
	<path class="st6" d="M189.4,333.8h2.3c0,0,0.9,2.9-2.1,3.1h-3.9c0,0-0.9-1.9,1.5-2C187.2,334.9,189.2,334.6,189.4,333.8z"/>
	<polygon class="st2" points="202.7,331.1 203.3,333.8 205.6,333.8 205.6,331.1 	"/>
	<path class="st6" d="M205.6,333.8h-2.3c0,0-0.9,2.9,2.1,3.1h3.9c0,0,0.9-1.9-1.5-2C207.9,334.9,205.8,334.6,205.6,333.8z"/>
	<polygon class="st5" points="189.1,319.1 194.5,319.1 191.9,334.4 189.1,334.4 	"/>
	<polygon class="st5" points="206.3,319.5 201.4,319.5 202.9,334.1 206,334.1 	"/>
	<path class="st7" d="M194,252.2l4.4,7.2l4.3-7.2h4.8c0,0-1.3-3.4-6-3.8s-9.8-0.6-11.5,3.8H194z"/>
	<path class="st4" d="M204.3,233.3v13.6h-2.1v4.5c0,0-2.3,4.6-8,0v-9.3c0,0-1.7-0.3-1.7-2.3s2-1,2-1v-5.4h9.8V233.3z"/>
	<path class="st4" d="M194.2,251.4l4.2,7.3l3.8-7.3C202.2,251.4,198.7,247,194.2,251.4z"/>
	<path class="st4" d="M173.5,259.1c0,0-7.5-1.6-10.5-7.8c0,0-0.6-1.8-1.5-1.7s-0.4,1.6-0.4,1.6s-0.8-3.8-1.9-3.7
		c-1.1,0.1-3.8,1.4-0.2,7.5c0,0,8.3,10.2,15.4,8.7C174.5,263.7,179,259.4,173.5,259.1z"/>
	<path class="st5" d="M185.6,251.6c0,0-3.9,6-11,7.2c0,0-0.8,4.2,1.3,5.4c0,0,8.7-1.5,12.1-5.5L185.6,251.6z"/>
	<path class="st7" d="M176.4,264.1c0,0-1.9-2.8-0.9-5.5l-1.8,0.3c0,0,0,4.5,1.4,5.4L176.4,264.1z"/>
	<path class="st4" d="M224.1,257.1c0,0,7.1-2.9,9.1-9.5c0,0,0.3-1.9,1.2-1.9s0.6,1.6,0.6,1.6s0.1-3.9,1.2-3.9s4,0.8,1.4,7.3
		c0,0-6.5,11.5-13.8,11.1C223.8,261.8,218.6,258.3,224.1,257.1z"/>
	<path class="st5" d="M210.8,251.7c0,0,4.9,5.3,12,5.3c0,0,1.5,4.1-0.4,5.5c0,0-8.8-0.1-12.8-3.4L210.8,251.7z"/>
	<path class="st7" d="M222,262.5c0,0,1.4-3.1,0-5.5h1.9c0,0,0.8,4.4-0.5,5.5H222z"/>
	<path class="st4" d="M194.4,238.7l0.7-4.3l9.2-0.5c0,0,0.7-3.3-5.5-3.2c-6.2,0-5.1,7.8-5.1,7.8"/>
	<polygon class="st8" points="190,283.9 187.5,334.2 192.5,334.4 198.7,298.9 201.4,334.2 207.5,334.2 207.8,283.7 	"/>
</g>
<g>
	<polygon class="st9" points="220.5,247.9 215.8,235.4 209,236.5 216.7,257.7 218,251 	"/>
	<polygon class="st1" points="215.8,235.4 213.9,229.7 219.3,216 216.1,214 208.5,230 209.7,236.5 	"/>
	<path class="st1" d="M240.5,212.3c-2.4-8.2-5.8-6.8-6.8-5.9s1.8,4.7,1.8,4.7s-1-1.7-1.8-1s0.3,2.7,0.3,2.7s1.5,3.5,4,2.6
		C240.4,214.5,240.5,212.3,240.5,212.3z"/>
	<polygon class="st9" points="235.8,247.4 240.5,234.9 247.2,236.1 239.5,257.2 238.2,250.5 	"/>
	<polygon class="st1" points="240.5,234.9 242.4,229.2 236.9,215.5 240.2,213.5 247.8,229.6 246.6,236.1 	"/>
	<path class="st1" d="M234.1,228.4v15h-2.3v4.9c0,0-2.6,5-8.8,0v-10.2c0,0-1.9-0.4-1.9-2.6s2.2-1.1,2.2-1.1v-6L234.1,228.4
		L234.1,228.4z"/>
	<polygon class="st2" points="220.9,336.1 220.3,339 217.7,339 217.7,336.1 	"/>
	<path class="st6" d="M217.7,339h2.6c0,0,1,3.2-2.3,3.4h-4.3c0,0-0.9-2,1.6-2.2C215.3,340.2,217.5,339.9,217.7,339z"/>
	<polygon class="st2" points="232.4,336.1 233,339 235.6,339 235.6,336.1 	"/>
	<path class="st6" d="M235.6,339H233c0,0-1,3.2,2.3,3.4h4.3c0,0,0.9-2-1.6-2.2C238.1,340.2,235.8,339.9,235.6,339z"/>
	<path class="st3" d="M226.3,238.9h7.5c0,0-1.3-2.3-3.7-2.3C227.6,236.6,226.3,238.9,226.3,238.9z"/>
	<path class="st3" d="M226.3,238.9l-0.4,0.4c0,0,3.3,0.6,4.3-0.4c0,0,2.5,0.5,3.8,0.4l-0.3-0.5C233.7,238.8,228.6,238.3,226.3,238.9
		z"/>
	<polygon class="st1" points="218.5,284.1 217.4,336.1 221.1,336.1 228.4,293.5 232.4,336.1 236,336.1 237.3,283.8 	"/>
	<path class="st9" d="M213.5,248.7c0,0,9.3-5.2,28,0l-3.5,35.2c0,0-7.7,0.5-20.2-0.1L213.5,248.7z"/>
	<polygon class="st2" points="220.9,336.1 220.3,339 217.7,339 217.7,336.1 	"/>
	<path class="st6" d="M217.7,339h2.6c0,0,1,3.2-2.3,3.4h-4.3c0,0-0.9-2,1.6-2.2C215.3,340.2,217.5,339.9,217.7,339z"/>
	<polygon class="st2" points="232.4,336.1 233,339 235.6,339 235.6,336.1 	"/>
	<path class="st6" d="M235.6,339H233c0,0-1,3.2,2.3,3.4h4.3c0,0,0.9-2-1.6-2.2C238.1,340.2,235.8,339.9,235.6,339z"/>
	<polygon class="st5" points="217.4,322.9 223.4,322.9 220.5,339.7 217.4,339.7 	"/>
	<polygon class="st5" points="236.3,323.3 231,323.3 232.6,339.4 236,339.3 	"/>
	<path class="st1" d="M234.1,228.4v15h-2.3v4.9c0,0-2.6,5-8.8,0v-10.2c0,0-1.9-0.4-1.9-2.6s2.2-1.1,2.2-1.1v-6L234.1,228.4
		L234.1,228.4z"/>
	<path class="st1" d="M223,248.3l4.6,8l4.2-8C231.8,248.3,228,243.5,223,248.3z"/>
	<path class="st1" d="M214.6,212.8c2.4-8.2,5.8-6.8,6.8-5.9s-1.8,4.7-1.8,4.7s1-1.7,1.8-1s-0.3,2.7-0.3,2.7s-1.5,3.5-4,2.6
		S214.6,212.8,214.6,212.8z"/>
	<path class="st1" d="M223.8,235.4l-0.2-5.3l10.6-0.5c0,0,0.8-3.8-6.4-3.7s-5.9,9-5.9,9"/>
	<polygon class="st10" points="218.3,284.5 216.7,340.8 220.9,340.8 228.5,295.8 232,340.3 236.6,340.8 237.3,284.8 	"/>
	<path class="st6" d="M221.8,233.8c0.7-0.3,1.5,0.2,1.8,0.9c0.3,0.7,0.2,1.5,0,2.2c0.5,0,0.9,0,1.4,0c-0.1-2.1-0.3-4.2-0.4-6.3
		c0.4,0.6,0.6,1.3,0.4,2c0.9-1.1,1.3-2.7,1-4.1c0.6,1,0.8,2.2,0.4,3.3c1.1-1,1.6-2.6,1.4-4c0.8,0.7,1.2,2,1,3c0.8-0.8,1.3-2,1.2-3.2
		c0.7,1,0.9,2.2,0.6,3.4c0.8-0.8,1.2-2,1.1-3.1c0.7,0.8,1.1,1.9,0.9,3c0.7-0.5,0.7-1.6,0.7-2.5c0.7,0.7,1,1.8,0.8,2.8
		c0.5-0.8,0.9-1.6,1.2-2.5c0.3-0.9,0.3-2-0.4-2.6c0.2-1-0.1-2.1-0.8-2.8c0.2,0.9-0.2,1.9-1,2.5c0.3-1.4-0.3-2.9-1.4-3.7
		c0.5,0.9-0.1,2-0.7,2.9c0.4-1-0.2-2.3-1.2-2.7c0.3,0.7,0.1,1.6-0.4,2.2c0-0.9-0.3-1.8-0.9-2.4c0.2,1,0.2,2.3-0.7,2.8
		c0-0.5-0.1-1.1-0.4-1.5c-0.1,1-0.7,2-1.5,2.6c-0.7,0-1.3-0.7-1.3-1.3c-0.2,1.1-1.1,1.9-1.7,2.8c-1.3,1.9-1.8,4.2-1.6,6.5
		c0,0.1,0,0.3,0.2,0.3c0.2,0.1,0.3-0.1,0.4-0.2c0.4-0.4,1-0.5,1.5-0.2"/>
</g>
<g>
	<polygon class="st11" points="115.3,249.8 114.6,250.7 119.8,253.9 121.4,252.4 115.7,249.2 	"/>
	<path class="st1" d="M142.5,240.6v13.6h-2.1v4.5c0,0-2.3,4.6-8,0v-9.3c0,0-1.7-0.3-1.7-2.3s2-1,2-1v-5.4h9.8V240.6z"/>
	<polygon class="st2" points="143,338.5 143.6,341.2 145.9,341.2 145.9,338.5 	"/>
	<path class="st6" d="M145.9,341.2h-2.3c0,0-0.9,2.9,2.1,3.1h3.9c0,0,0.9-1.9-1.5-2C148.2,342.3,146.1,341.9,145.9,341.2z"/>
	<polygon class="st2" points="132.6,338.5 132,341.2 129.7,341.2 129.7,338.5 	"/>
	<path class="st6" d="M129.7,341.2h2.3c0,0,0.9,2.9-2.1,3.1H126c0,0-0.9-1.9,1.5-2C127.4,342.3,129.5,341.9,129.7,341.2z"/>
	<path class="st3" d="M135.4,250.2h6.8c0,0-1.2-2.1-3.4-2.1S135.4,250.2,135.4,250.2z"/>
	<polygon class="st1" points="145.3,291.2 146.2,338.5 142.8,338.5 136.2,299.8 132.6,338.5 129.3,338.5 128.1,291 	"/>
	<path class="st12" d="M149.8,259.1c0,0-8.4-4.7-25.4,0l3.2,32c0,0,7,0.5,18.4-0.1L149.8,259.1z"/>
	<polygon class="st2" points="143,338.5 143.6,341.2 145.9,341.2 145.9,338.5 	"/>
	<path class="st6" d="M145.9,341.2h-2.3c0,0-0.9,2.9,2.1,3.1h3.9c0,0,0.9-1.9-1.5-2C148.2,342.3,146.1,341.9,145.9,341.2z"/>
	<polygon class="st2" points="132.6,338.5 132,341.2 129.7,341.2 129.7,338.5 	"/>
	<path class="st6" d="M129.7,341.2h2.3c0,0,0.9,2.9-2.1,3.1H126c0,0-0.9-1.9,1.5-2C127.4,342.3,129.5,341.9,129.7,341.2z"/>
	<polygon class="st5" points="146.2,326.5 140.8,326.5 143.5,341.8 146.2,341.8 	"/>
	<polygon class="st5" points="129,326.9 133.9,326.9 132.4,341.5 129.3,341.5 	"/>
	<path class="st1" d="M142.5,240.6v13.6h-2.1v4.5c0,0-2.3,4.6-8,0v-9.3c0,0-1.7-0.3-1.7-2.3s2-1,2-1v-5.4h9.8V240.6z"/>
	<path class="st1" d="M161.9,266.5c0,0,7.5-1.6,10.5-7.8c0,0,0.6-1.8,1.5-1.7s0.4,1.6,0.4,1.6s0.8-3.8,1.9-3.7
		c1.1,0.1,3.8,1.4,0.2,7.5c0,0-8.3,10.2-15.4,8.7C160.8,271,156.3,266.7,161.9,266.5z"/>
	<path class="st12" d="M149.7,259c0,0,3.9,6,11,7.2c0,0,0.8,4.2-1.3,5.4c0,0-8.7-1.5-12.1-5.5L149.7,259z"/>
	<path class="st8" d="M158.9,271.4c0,0,1.9-2.8,0.9-5.5l1.8,0.3c0,0,0,4.5-1.4,5.4L158.9,271.4z"/>
	<path class="st1" d="M114.1,230.2c-0.2-7.8,3.2-7.5,4.3-7s-0.2,4.6-0.2,4.6s0.4-1.7,1.3-1.4c0.8,0.4,0.5,2.5,0.5,2.5
		s-0.4,3.5-2.7,3.4C114.7,232.1,114.1,230.2,114.1,230.2z"/>
	<polygon class="st12" points="127.8,259.3 120.3,249.8 114.8,252.6 127.3,268.8 126.6,262.7 	"/>
	<polygon class="st1" points="120.3,249.8 117.1,245.4 118,232 114.7,231.2 112.5,247.2 115.3,252.5 	"/>
	<polygon class="st8" points="120.3,249.8 121,250.7 115.8,253.9 114.2,252.4 119.9,249.2 	"/>
	<path class="st8" d="M145.9,290.7c0.4,0.8,1.3,51.1,1.3,51.1l-3.8-0.3l-6.9-34.8l-3.5,34.8l-4.7,0.3l-0.3-51.1H145.9z"/>
	<path class="st13" d="M137.7,239.4c0.1-0.4,0.2-0.8,0.2-1.1c-1.6,0.2-3.1,0.3-4.7,0.5c-0.6,0.1-1.2,0.2-1.6,0.6
		c-0.2,0.3-0.3,0.6-0.4,0.9c-0.6,2-0.6,4.2,0,6.2c0.1-0.6,1.1-0.6,1.5-0.1s0.3,1.2,0.2,1.8c-0.1,0.8-0.2,1.6-0.3,2.5
		c1.1,0.1,2.1,0.1,3.2,0.2c-0.8-2.5-1.3-5.1-1.5-7.7c0.4,0.4,1,0.5,1.5,0.2s0.7-0.9,0.6-1.4c1.2-0.2,2.4-0.3,3.6-0.5
		c0.4-0.1,0.9-0.1,1.3,0.1c0.2,0.1,0.4,0.4,0.6,0.5c0.4,0.2,1,0.1,1.3-0.3s0.4-0.8,0.5-1.3c0.1-1.2-0.2-2.5-0.9-3.5
		c0.1,1-0.6,2-1.5,2.3c0.7-1.5,0.2-3.5-1.1-4.6C140.9,236.5,139.7,238.9,137.7,239.4z"/>
</g>
<g>
	<path class="st1" d="M173,233.3v13.6h-2.1v4.5c0,0-2.3,4.6-8,0v-9.3c0,0-1.7-0.3-1.7-2.3s2-1,2-1v-5.4h9.8V233.3z"/>
	<polygon class="st2" points="161,331.1 160.4,333.8 158.1,333.8 158.1,331.1 	"/>
	<path class="st6" d="M158.1,333.8h2.3c0,0,0.9,2.9-2.1,3.1h-3.9c0,0-0.9-1.9,1.5-2C155.9,334.9,157.9,334.6,158.1,333.8z"/>
	<polygon class="st2" points="171.4,331.1 172,333.8 174.3,333.8 174.3,331.1 	"/>
	<path class="st6" d="M174.3,333.8H172c0,0-0.9,2.9,2.1,3.1h3.9c0,0,0.9-1.9-1.5-2C176.6,334.9,174.5,334.6,174.3,333.8z"/>
	<path class="st3" d="M165.8,242.8h6.8c0,0-1.2-2.1-3.4-2.1S165.8,242.8,165.8,242.8z"/>
	<path class="st3" d="M165.8,242.8l-0.3,0.4c0,0,3,0.5,3.9-0.4c0,0,2.3,0.5,3.4,0.4l-0.3-0.5C172.6,242.7,167.9,242.3,165.8,242.8z"
		/>
	<polygon class="st6" points="158.8,283.9 157.8,331.1 161.2,331.1 167.8,292.4 171.4,331.1 174.7,331.1 175.9,283.6 	"/>
	<path class="st14" d="M154.3,251.7c0,0,8.4-4.7,25.4,0l-3.2,32c0,0-7,0.5-18.4-0.1L154.3,251.7z"/>
	<polygon class="st2" points="161,331.1 160.4,333.8 158.1,333.8 158.1,331.1 	"/>
	<path class="st6" d="M158.1,333.8h2.3c0,0,0.9,2.9-2.1,3.1h-3.9c0,0-0.9-1.9,1.5-2C155.9,334.9,157.9,334.6,158.1,333.8z"/>
	<polygon class="st2" points="171.4,331.1 172,333.8 174.3,333.8 174.3,331.1 	"/>
	<path class="st6" d="M174.3,333.8H172c0,0-0.9,2.9,2.1,3.1h3.9c0,0,0.9-1.9-1.5-2C176.6,334.9,174.5,334.6,174.3,333.8z"/>
	<path class="st15" d="M173,233.3v13.6h-2.1v4.5c0,0-2.3,4.6-8,0v-9.3c0,0-1.7-0.3-1.7-2.3s2-1,2-1v-5.4h9.8V233.3z"/>
	<path class="st6" d="M163.1,238.7v0.8h0.8h0.3v-2.6c0,0,1.6-0.4,1.6-1.3c0.1-0.9,0-1.6,0-1.6h6.8l0.3,1.1c0,0,0.6-1.7-0.3-2.6
		s-10.5-1.4-11.8,2.2c0,0-0.2,4.7,0.4,5.5c0,0-0.4-1.7,0.8-1.8C163.1,238.4,163.1,238.7,163.1,238.7z"/>
	<path class="st15" d="M162.9,251.4l4.2,7.3l3.8-7.3C170.9,251.4,167.4,247,162.9,251.4z"/>
	<path class="st15" d="M142.2,259.1c0,0-7.5-1.6-10.5-7.8c0,0-0.6-1.8-1.5-1.7c-0.8,0.1-0.4,1.6-0.4,1.6s-0.8-3.8-1.9-3.7
		s-3.8,1.4-0.2,7.5c0,0,8.3,10.2,15.4,8.7C143.2,263.7,147.7,259.4,142.2,259.1z"/>
	<path class="st14" d="M154.3,251.6c0,0-3.9,6-11,7.2c0,0-0.8,4.2,1.3,5.4c0,0,8.7-1.5,12.1-5.5L154.3,251.6z"/>
	<path class="st15" d="M192.8,257.1c0,0,7.1-2.9,9.1-9.5c0,0,0.3-1.9,1.2-1.9c0.8-0.1,0.6,1.6,0.6,1.6s0.1-3.9,1.2-3.9
		s4,0.8,1.4,7.3c0,0-6.5,11.5-13.8,11.1C192.5,261.8,187.4,258.3,192.8,257.1z"/>
	<path class="st14" d="M179.5,251.8c0,0,4.9,5.3,12,5.3c0,0,1.5,4.1-0.4,5.5c0,0-8.8-0.1-12.8-3.4L179.5,251.8z"/>
	<path class="st6" d="M172.4,235.3c0.3-0.2,0.5-0.5,0.7-0.8c0,0.2-0.1,0.4-0.1,0.6c0.7-0.7,0.7-2,0-2.8c0-0.7-0.5-1.3-1.2-1.5
		c0.2,0.5,0,1.1-0.5,1.3c0.3-0.8-0.5-1.7-1.3-1.5c0.4,0.3,0.5,1.1,0.2,1.5c-0.1-1-1-1.8-1.9-1.9c0.3,0.4,0.6,0.8,0.5,1.3
		s-0.8,0.7-1.1,0.3c-0.1-0.2,0-0.5,0.1-0.7c-0.2,0.6-1,0.8-1.7,0.9c-1.3,0.2-2.7,0.4-4,0.6c-0.1-0.3-0.2-0.6-0.3-0.9
		c-0.3,0.6-0.5,1.2-0.4,1.9c-0.3-0.3-0.5-0.7-0.5-1.1c-0.7,2.4-0.3,4.9,0.1,7.3c0.1-0.5,0.3-1.1,0.7-1.4s1.2-0.3,1.3,0.3
		c0.1,0.4-0.1,0.8,0,1.2c0.4,0.1,0.8,0.1,1.2,0.1c0.2-1,0.2-2.1,0-3.1c1.2-0.2,2-1.6,1.6-2.8c0.5,0.3,0.6,1,0.3,1.4
		c0.7-0.2,1.3-0.7,1.7-1.4c0.2,0.5-0.1,1-0.5,1.2c0.9-0.1,1.7-0.5,2.2-1.2c0,0.4-0.1,0.9-0.5,1.1c0.7,0,1.4-0.5,1.7-1.1
		c0,0.4-0.1,0.7-0.2,1.1c0.5-0.1,0.9-0.6,0.9-1.2c0.3,0.4,0.3,0.9,0,1.3c0.5-0.3,0.8-0.8,1-1.4C172.4,234.4,172.4,234.8,172.4,235.3
		z"/>
</g>
<g>
	<path class="st1" d="M309.1,238.1v13.6h2.1v4.5c0,0,2.3,4.6,8,0v-9.3c0,0,1.7-0.3,1.7-2.3s-2-1-2-1v-5.4h-9.8V238.1z"/>
	<polygon class="st2" points="321.1,336 321.7,338.6 324,338.6 324,336 	"/>
	<polygon class="st2" points="310.7,336 310.1,338.6 307.8,338.6 307.8,336 	"/>
	<path class="st3" d="M316.3,247.7h-6.8c0,0,1.2-2.1,3.4-2.1C315.1,245.6,316.3,247.7,316.3,247.7z"/>
	<path class="st3" d="M316.3,247.7l0.3,0.4c0,0-3,0.5-3.9-0.4c0,0-2.3,0.5-3.4,0.4l0.3-0.5C309.5,247.6,314.2,247.1,316.3,247.7z"/>
	<polygon class="st4" points="323.4,288.7 324.3,336 320.9,336 314.3,297.2 310.7,336 307.4,336 306.2,288.5 	"/>
	<path class="st16" d="M327.8,256.6c0,0-8.4-4.7-25.4,0l3.2,32c0,0,7,0.5,18.4-0.1L327.8,256.6z"/>
	<polygon class="st2" points="321.1,336 321.7,338.6 324,338.6 324,336 	"/>
	<path class="st6" d="M324,338.6h-2.3c0,0-0.9,2.9,2.1,3.1h3.9c0,0,0.9-1.9-1.5-2C326.2,339.8,324.2,339.4,324,338.6z"/>
	<polygon class="st2" points="310.7,336 310.1,338.6 307.8,338.6 307.8,336 	"/>
	<path class="st6" d="M307.8,338.6h2.3c0,0,0.9,2.9-2.1,3.1h-3.9c0,0-0.9-1.9,1.5-2C305.5,339.8,307.6,339.4,307.8,338.6z"/>
	<polygon class="st5" points="324.3,324 318.9,324 321.5,339.3 324.3,339.3 	"/>
	<polygon class="st5" points="307.1,324.3 312,324.3 310.5,338.9 307.4,338.9 	"/>
	<path class="st17" d="M319.4,257l-4.4,7.2l-4.3-7.2h-4.8c0,0,1.3-3.4,6-3.8s9.8-0.6,11.5,3.8H319.4z"/>
	<path class="st4" d="M309.1,238.1v13.6h2.1v4.5c0,0,2.3,4.6,8,0v-9.3c0,0,1.7-0.3,1.7-2.3s-2-1-2-1v-5.4h-9.8V238.1z"/>
	<path class="st4" d="M319.2,256.2l-4.2,7.3l-3.8-7.3C311.2,256.2,314.7,251.8,319.2,256.2z"/>
	<path class="st4" d="M339.9,263.9c0,0,7.5-1.6,10.5-7.8c0,0,0.6-1.8,1.5-1.7s0.4,1.6,0.4,1.6s0.8-3.8,1.9-3.7
		c1.1,0.1,3.8,1.4,0.2,7.5c0,0-8.3,10.2-15.4,8.7C338.9,268.5,334.4,264.2,339.9,263.9z"/>
	<path class="st16" d="M327.8,256.4c0,0,3.9,6,11,7.2c0,0,0.8,4.2-1.3,5.4c0,0-8.7-1.5-12.1-5.5L327.8,256.4z"/>
	<path class="st17" d="M337,268.9c0,0,1.9-2.8,0.9-5.5l1.8,0.3c0,0,0,4.5-1.4,5.4L337,268.9z"/>
	<path class="st4" d="M289.3,262c0,0-7.1-2.9-9.1-9.5c0,0-0.3-1.9-1.2-1.9c-0.8-0.1-0.6,1.6-0.6,1.6s-0.1-3.9-1.2-3.9
		c-1.1-0.1-4,0.8-1.4,7.3c0,0,6.5,11.5,13.8,11.1C289.6,266.6,294.8,263.1,289.3,262z"/>
	<path class="st16" d="M302.6,256.6c0,0-4.9,5.3-12,5.3c0,0-1.5,4.1,0.4,5.5c0,0,8.8-0.1,12.8-3.4L302.6,256.6z"/>
	<path class="st17" d="M291.4,267.4c0,0-1.4-3.1,0-5.5h-1.9c0,0-0.8,4.4,0.5,5.5H291.4z"/>
	<path class="st4" d="M319,243.5l-0.7-4.3l-9.2-0.5c0,0-0.7-3.3,5.5-3.2c6.2,0,5.1,7.8,5.1,7.8"/>
	<polygon class="st17" points="323.4,288.7 325.9,339 320.9,339.3 314.7,303.7 312,339 305.9,339 305.6,288.5 	"/>
</g>
<g>
	<polygon class="st10" points="296.5,249.9 301.2,237.3 307.9,238.5 300.2,259.7 298.9,253 	"/>
	<polygon class="st1" points="301.2,237.3 303.1,231.7 297.7,218 300.9,216 308.5,232 307.3,238.5 	"/>
	<path class="st1" d="M276.5,214.3c2.4-8.2,5.8-6.8,6.8-5.9s-1.8,4.7-1.8,4.7s1-1.7,1.8-1s-0.3,2.7-0.3,2.7s-1.5,3.5-4,2.6
		S276.5,214.3,276.5,214.3z"/>
	<polygon class="st10" points="281.2,249.4 276.5,236.9 269.7,238.1 277.4,259.2 278.7,252.5 	"/>
	<polygon class="st1" points="276.5,236.9 274.6,231.2 280,217.5 276.8,215.5 269.2,231.6 270.4,238.1 	"/>
	<path class="st1" d="M282.9,230.4v15h2.3v4.9c0,0,2.6,5,8.8,0v-10.2c0,0,1.9-0.4,1.9-2.6s-2.2-1.1-2.2-1.1v-6L282.9,230.4
		L282.9,230.4z"/>
	<polygon class="st2" points="296,338.1 296.7,341 299.2,341 299.2,338.1 	"/>
	<path class="st6" d="M299.2,341h-2.6c0,0-1,3.2,2.3,3.4h4.3c0,0,0.9-2-1.6-2.2C301.7,342.2,299.5,341.9,299.2,341z"/>
	<polygon class="st2" points="284.5,338.1 283.9,341 281.4,341 281.4,338.1 	"/>
	<path class="st6" d="M281.4,341h2.6c0,0,1,3.2-2.3,3.4h-4.3c0,0-0.9-2,1.6-2.2C278.9,342.2,281.1,341.9,281.4,341z"/>
	<path class="st3" d="M290.7,240.9h-7.5c0,0,1.3-2.3,3.7-2.3S290.7,240.9,290.7,240.9z"/>
	<path class="st3" d="M290.7,240.9l0.4,0.4c0,0-3.3,0.6-4.3-0.4c0,0-2.5,0.5-3.8,0.4l0.3-0.5C283.3,240.8,288.4,240.3,290.7,240.9z"
		/>
	<polygon class="st1" points="298.5,286.1 299.5,338.1 295.8,338.1 288.5,295.5 284.5,338.1 281,338.1 279.6,285.8 	"/>
	<path class="st10" d="M303.4,250.7c0,0-9.3-5.2-28,0l3.5,35.2c0,0,7.7,0.5,20.2-0.1L303.4,250.7z"/>
	<polygon class="st2" points="296,338.1 296.7,341 299.2,341 299.2,338.1 	"/>
	<path class="st6" d="M299.2,341h-2.6c0,0-1,3.2,2.3,3.4h4.3c0,0,0.9-2-1.6-2.2C301.7,342.2,299.5,341.9,299.2,341z"/>
	<polygon class="st2" points="284.5,338.1 283.9,341 281.4,341 281.4,338.1 	"/>
	<path class="st6" d="M281.4,341h2.6c0,0,1,3.2-2.3,3.4h-4.3c0,0-0.9-2,1.6-2.2C278.9,342.2,281.1,341.9,281.4,341z"/>
	<polygon class="st5" points="299.5,324.9 293.6,324.9 296.5,341.7 299.5,341.7 	"/>
	<polygon class="st5" points="280.6,325.3 286,325.3 284.3,341.3 281,341.3 	"/>
	<path class="st1" d="M282.9,230.4v15h2.3v4.9c0,0,2.6,5,8.8,0v-10.2c0,0,1.9-0.4,1.9-2.6s-2.2-1.1-2.2-1.1v-6L282.9,230.4
		L282.9,230.4z"/>
	<path class="st1" d="M294,250.3l-4.6,8l-4.2-8C285.1,250.3,288.9,245.4,294,250.3z"/>
	<path class="st1" d="M302.3,214.7c-2.4-8.2-5.8-6.8-6.8-5.9s1.8,4.7,1.8,4.7s-1-1.7-1.8-1s0.3,2.7,0.3,2.7s1.5,3.5,4,2.6
		C302.3,217,302.3,214.7,302.3,214.7z"/>
	<path class="st1" d="M293.2,237.3l0.2-5.3l-10.6-0.5c0,0-0.8-3.8,6.4-3.7c7.2,0,5.9,9,5.9,9"/>
	<polygon class="st17" points="298.7,286.5 300.2,342.8 296,342.8 288.4,297.8 285,342.3 280.3,342.8 279.6,286.8 	"/>
	<path class="st18" d="M295.1,235.8c-0.7-0.3-1.5,0.2-1.8,0.9c-0.3,0.7-0.2,1.5,0,2.2c-0.5,0-0.9,0-1.4,0c0.1-2.1,0.3-4.2,0.4-6.3
		c-0.4,0.6-0.6,1.3-0.4,2c-0.9-1.1-1.3-2.7-1-4.1c-0.6,1-0.8,2.2-0.4,3.3c-1.1-1-1.6-2.6-1.4-4c-0.8,0.7-1.2,2-1,3
		c-0.8-0.8-1.3-2-1.2-3.2c-0.7,1-0.9,2.2-0.6,3.4c-0.8-0.8-1.2-2-1.1-3.1c-0.7,0.8-1.1,1.9-0.9,3c-0.7-0.5-0.7-1.6-0.7-2.5
		c-0.7,0.7-1,1.8-0.8,2.8c-0.5-0.8-0.9-1.6-1.2-2.5c-0.3-0.9-0.3-2,0.4-2.6c-0.2-1,0.1-2.1,0.8-2.8c-0.2,0.9,0.2,1.9,1,2.5
		c-0.3-1.4,0.3-2.9,1.4-3.7c-0.5,0.9,0.1,2,0.7,2.9c-0.4-1,0.2-2.3,1.2-2.7c-0.3,0.7-0.1,1.6,0.4,2.2c0-0.9,0.3-1.8,0.9-2.4
		c-0.2,1-0.2,2.3,0.7,2.8c0-0.5,0.1-1.1,0.4-1.5c0.1,1,0.7,2,1.5,2.6c0.7,0,1.3-0.7,1.3-1.3c0.2,1.1,1.1,1.9,1.7,2.8
		c1.3,1.9,1.8,4.2,1.6,6.5c0,0.1,0,0.3-0.2,0.3c-0.2,0.1-0.3-0.1-0.4-0.2c-0.4-0.4-1-0.5-1.5-0.2"/>
</g>
<g>
	<path class="st1" d="M262.2,232.1v13.4h-2.1v4.4c0,0-2.3,4.5-8,0v-9.2c0,0-1.7-0.3-1.7-2.3s2-1,2-1v-5.3H262.2z"/>
	<polygon class="st2" points="250.2,328.4 249.7,331.1 247.3,331.1 247.3,328.4 	"/>
	<path class="st6" d="M247.3,331.1h2.3c0,0,0.9,2.9-2.1,3.1h-3.9c0,0-0.9-1.8,1.5-2C245.1,332.2,247.1,331.8,247.3,331.1z"/>
	<polygon class="st2" points="260.7,328.4 261.2,331.1 263.6,331.1 263.6,328.4 	"/>
	<path class="st6" d="M263.6,331.1h-2.3c0,0-0.9,2.9,2.1,3.1h3.9c0,0,0.9-1.8-1.5-2C265.8,332.2,263.8,331.8,263.6,331.1z"/>
	<path class="st3" d="M255.1,241.5h6.8c0,0-1.2-2.1-3.4-2.1C256.3,239.4,255.1,241.5,255.1,241.5z"/>
	<path class="st3" d="M255.1,241.5l-0.3,0.4c0,0,3,0.5,3.9-0.4c0,0,2.3,0.4,3.4,0.4l-0.3-0.5C261.8,241.4,257.2,241,255.1,241.5z"/>
	<polygon class="st19" points="248,281.9 247.1,328.4 250.4,328.4 257,290.3 260.7,328.4 263.9,328.4 265.2,281.7 	"/>
	<path class="st20" d="M246.4,250.3c0,0,2.7-4.7,19.7,0l-0.3,31.4c0,0-7,0.5-18.4-0.1L246.4,250.3z"/>
	<polygon class="st2" points="250.2,328.4 249.7,331.1 247.3,331.1 247.3,328.4 	"/>
	<path class="st6" d="M247.3,331.1h2.3c0,0,0.9,2.9-2.1,3.1h-3.9c0,0-0.9-1.8,1.5-2C245.1,332.2,247.1,331.8,247.3,331.1z"/>
	<polygon class="st2" points="260.7,328.4 261.2,331.1 263.6,331.1 263.6,328.4 	"/>
	<path class="st6" d="M263.6,331.1h-2.3c0,0-0.9,2.9,2.1,3.1h3.9c0,0,0.9-1.8-1.5-2C265.8,332.2,263.8,331.8,263.6,331.1z"/>
	<path class="st1" d="M262.2,232.1v13.4h-2.1v4.4c0,0-2.3,4.5-8,0v-9.2c0,0-1.7-0.3-1.7-2.3s2-1,2-1v-5.3H262.2z"/>
	<path class="st1" d="M252.1,249.9l4.2,7.1l3.8-7.1C260.2,249.9,256.7,245.6,252.1,249.9z"/>
	<polygon class="st19" points="265.2,281.7 265.9,299.4 264.1,321 261.1,284.7 	"/>
	<polygon class="st19" points="248,281.5 246.6,299.9 248.2,321.3 251.2,285 	"/>
	<path class="st21" d="M260.2,248.9l1.7,5l-5.8,10.1v18.6l5,10.1l6.3,0.4l-1.6-17.4l0.2-25.4C266,250.3,261.2,248.9,260.2,248.9z"/>
	<path class="st21" d="M252,248l-1.7,5l6,10.3l-0.2,19l-5,9.5l-6.3,0.4l1.6-17.4l-0.2-25.4C246.1,249.4,251,247.9,252,248z"/>
	<path class="st21" d="M265.2,250.1l12-21.3l2.6,1.9l-13.9,34.4C265.9,265.1,263.8,256,265.2,250.1z"/>
	<path class="st1" d="M280.5,229.8c3-5.7,0.5-6.7-0.5-6.8c-1-0.1-1.5,3.4-1.5,3.4s0.3-1.4-0.4-1.5c-0.8,0-1.3,1.6-1.3,1.6
		s-1,2.7,0.7,3.5S280.5,229.8,280.5,229.8z"/>
	<path class="st1" d="M237.8,286.3c0.2,6.4,3,6.1,3.8,5.6c0.9-0.5-0.4-3.7-0.4-3.7s0.4,1.4,1.1,1.1c0.7-0.4,0.3-2,0.3-2
		s-0.4-2.8-2.4-2.7C238.2,284.7,237.8,286.3,237.8,286.3z"/>
	<path class="st21" d="M246.1,249.4l-9.4,17.4l1.4,18.8l3.3-0.4v-15.8l5.6-7.3C247.1,262.2,247.8,249.7,246.1,249.4z"/>
	<path class="st20" d="M252.1,249.9c0,0,3.5,8.3,8,0C260.2,249.9,256.4,267,252.1,249.9z"/>
	<rect x="246.4" y="272.6" class="st22" width="4.8" height="2.4"/>
	<rect x="261.1" y="272.8" class="st22" width="4.8" height="2.4"/>
	
		<rect x="253" y="272.8" transform="matrix(-0.9927 -0.1206 0.1206 -0.9927 472.7358 587.9055)" class="st22" width="2.3" height="13.7"/>
	
		<rect x="256.8" y="272.8" transform="matrix(-0.969 0.2469 -0.2469 -0.969 576.9226 486.9461)" class="st22" width="2.3" height="13.7"/>
	<path class="st13" d="M251.4,237.1c0.2,0,0.4,0.1,0.5,0.3c0.1,0.1,0.1,0.3,0.1,0.5c0.1,1,0.5,2,1,2.9c-0.2-1.3-0.3-2.7,0.1-4
		c0.2-0.6,0.5-1.1,0.8-1.6c0.5-0.9,1-1.7,1.5-2.6c0.1,1.6-0.4,3.3-1.6,4.6c2.8,0.3,5.7-1.3,6.9-3.8c0.1-0.3,0.3-0.6,0.5-0.9
		c0.2-0.2,0.6-0.4,0.9-0.3c0-1-0.8-1.9-1.7-2.4c-0.9-0.4-2-0.5-3-0.6c-0.9-0.1-1.8-0.1-2.6,0c-1.9,0.3-3.7,1.6-4.5,3.3
		s-0.9,3.9,0,5.6C250.3,237.6,250.8,237.1,251.4,237.1z"/>
	<path class="st13" d="M262.2,232.1v4.1c0,0,2.2-5.3-0.8-5.9"/>
	<path class="st13" d="M251,240c0,0-0.1,4.3,2.2,4.3c0,0-1.1-1.6-1-3.6L251,240z"/>
	<polygon class="st22" points="256.3,263.6 264.7,257.5 263,255.4 265.5,253.3 260.2,247.7 260.2,249.4 261.9,253.9 	"/>
	<polygon class="st22" points="256.3,263.6 250.3,253 252.1,247.7 252,246.2 247.2,253.7 250,255.7 246.6,257.1 	"/>
	<circle class="st22" cx="256.7" cy="266.2" r="0.7"/>
	<circle class="st22" cx="257.1" cy="270.2" r="0.8"/>
	<circle class="st3" cx="251.8" cy="239.7" r="0.3"/>
	<g>
		<path class="st6" d="M254.9,237.9c0,0.5,0.5,0.9,1.1,0.9h1.4c0.6,0,1.1-0.4,1.1-0.9s-0.5-0.9-1.1-0.9H256
			C255.4,237,254.9,237.4,254.9,237.9z M255.2,237.9c0-0.4,0.4-0.7,0.8-0.7h1.3c0.5,0,0.8,0.3,0.8,0.7c0,0.4-0.4,0.7-0.8,0.7H256
			C255.6,238.7,255.2,238.3,255.2,237.9z"/>
		<path class="st6" d="M258.9,237.9c0,0.5,0.5,0.9,1.1,0.9h1.4c0.6,0,1.1-0.4,1.1-0.9s-0.5-0.9-1.1-0.9H260
			C259.4,237,258.9,237.4,258.9,237.9z M259.2,237.9c0-0.4,0.4-0.7,0.8-0.7h1.3c0.5,0,0.8,0.3,0.8,0.7c0,0.4-0.4,0.7-0.8,0.7H260
			C259.6,238.7,259.2,238.3,259.2,237.9z"/>
		<polygon class="st6" points="259,237.9 258.3,237.9 258.3,237.6 259.1,237.6 		"/>
		<polyline class="st6" points="255,238 251.4,238.2 251,238 255,237.6 		"/>
	</g>
</g>
</svg>
