<?xml version="1.0" encoding="utf-8"?>
<!-- Generator: Adobe Illustrator 18.1.1, SVG Export Plug-In . SVG Version: 6.00 Build 0)  -->
<!DOCTYPE svg PUBLIC "-//W3C//DTD SVG 1.1//EN" "http://www.w3.org/Graphics/SVG/1.1/DTD/svg11.dtd">
<svg version="1.1" id="Layer_1" xmlns="http://www.w3.org/2000/svg" xmlns:xlink="http://www.w3.org/1999/xlink" x="0px" y="0px"
	 viewBox="0 0 328 305.5" enable-background="new 0 0 328 305.5" xml:space="preserve">
<g>
	<path fill="none" stroke="#FFFFFF" stroke-width="2" stroke-miterlimit="10" d="M134.9,45.2c0,0-12.3,18.8-7,29.8
		c5.3,11,44,10.1,30.3,46.4c-13.7,36.2,17.3,47.6,17.3,47.6"/>
	<path fill="#ED1C24" d="M158.8,24.3c0.2-2.6-0.1-8.7,2.6-7.5c-2-8.4-8.2-17-20.5-16.8c-18.2,0.4-23.6,20.8-17.4,34.5
		c2.1,4.6,7.2,14,16.4,11.8c0.7-0.2,1.5-0.4,2.2-0.6c0.6-1.2,4.5-0.9,5.7-2.4C153.1,36.7,158.2,29.8,158.8,24.3z"/>
	<path fill="#ED1C24" d="M161.6,27.8c0.7-2.9,0.7-6.9-0.3-11c-2.6-1.2-6.1-1.6-5.4,1c2.8,10.3-3.9,18.5-8.1,21.4
		c-1.6,1.1-5.2,5.3-5.8,6.5C150.6,42.9,159.6,36.1,161.6,27.8z"/>
	<polygon fill="#ED1C24" points="132.7,42.2 128.9,49.4 137.3,52.3 135,42.3 	"/>
</g>
<g>
	<path fill="none" stroke="#FFFFFF" stroke-width="2" stroke-miterlimit="10" d="M15.5,127.3c0,0-14.3,17.3-10.3,28.9
		s42.6,15.1,24.8,49.6s11.7,49.3,11.7,49.3"/>
	<path fill="#F2F2F2" d="M41.6,109.2c0.5-2.6,0.9-8.7,3.4-7.2c-1.1-8.6-6.2-17.9-18.5-19C8.4,81.4,0.7,101,5.4,115.3
		c1.6,4.8,5.6,14.8,14.9,13.6c0.7-0.1,1.5-0.2,2.3-0.4c0.8-1.1,4.6-0.4,5.9-1.7C34.6,120.9,40.5,114.7,41.6,109.2z"/>
	<path fill="#F2F2F2" d="M44.1,113c1-2.8,1.5-6.8,1-11c-2.5-1.5-5.9-2.3-5.5,0.3c1.6,10.6-5.9,18-10.5,20.4
		c-1.7,0.9-5.7,4.7-6.5,5.8C31.4,126.9,41.1,121.1,44.1,113z"/>
	<polygon fill="#F2F2F2" points="13.6,124.1 9,130.8 17.1,134.6 16,124.4 	"/>
</g>
<g>
	<path fill="none" stroke="#FFFFFF" stroke-width="2" stroke-miterlimit="10" d="M298.8,196c0,0-12.3,14.9-8.8,24.8
		s36.5,12.9,21.3,42.5s10.1,42.3,10.1,42.3"/>
	<path fill="#F2F2F2" d="M321.1,180.5c0.5-2.2,0.8-7.4,2.9-6.1c-0.9-7.4-5.3-15.3-15.8-16.3c-15.6-1.4-22.2,15.4-18.2,27.7
		c1.3,4.1,4.8,12.6,12.8,11.7c0.6-0.1,1.3-0.2,1.9-0.3c0.7-1,3.9-0.3,5.1-1.5C315.1,190.5,320.1,185.1,321.1,180.5z"/>
	<path fill="#F2F2F2" d="M323.2,183.7c0.9-2.4,1.3-5.9,0.8-9.4c-2.1-1.3-5-1.9-4.7,0.3c1.3,9.1-5.1,15.4-9,17.5
		c-1.5,0.8-4.9,4-5.6,5C312.4,195.6,320.7,190.6,323.2,183.7z"/>
	<polygon fill="#F2F2F2" points="297.1,193.2 293.2,199 300.1,202.2 299.1,193.5 	"/>
</g>
</svg>
