<?xml version="1.0" encoding="utf-8"?>
<!-- Generator: Adobe Illustrator 18.1.1, SVG Export Plug-In . SVG Version: 6.00 Build 0)  -->
<!DOCTYPE svg PUBLIC "-//W3C//DTD SVG 1.1//EN" "http://www.w3.org/Graphics/SVG/1.1/DTD/svg11.dtd">
<svg version="1.1" id="Layer_1" xmlns="http://www.w3.org/2000/svg" xmlns:xlink="http://www.w3.org/1999/xlink" x="0px" y="0px"
	 viewBox="0 0 265.8 328.1" enable-background="new 0 0 265.8 328.1" xml:space="preserve">
<path fill="#CCCCCC" d="M134.2,21.6H123c-0.7,0-1.2-0.6-1.2-1.2V1.2c0-0.7,0.6-1.2,1.2-1.2h11.2c0.7,0,1.2,0.6,1.2,1.2v19.1
	C135.4,21,134.9,21.6,134.2,21.6z"/>
<rect x="19.7" y="117.8" fill="#ED587A" width="226.4" height="37.7"/>
<rect x="20.1" y="152" fill="#ED587A" width="13.3" height="176.1"/>
<rect x="232.7" y="152" fill="#ED587A" width="13.3" height="176.1"/>
<rect x="0" y="109.9" fill="#C80050" width="265.8" height="8.8"/>
<rect x="60" y="26.5" fill="#B6F3E3" width="142.2" height="83.4"/>
<ellipse fill="#B6F3E3" cx="59.3" cy="68" rx="39.4" ry="42"/>
<ellipse fill="#B6F3E3" cx="201.1" cy="68" rx="39.4" ry="42"/>
<circle fill="#54BEB0" cx="60.9" cy="67.4" r="36.6"/>
<circle fill="#54BEB0" cx="198.3" cy="67.4" r="36.6"/>
<rect x="105.6" y="61.4" fill="#54BEB0" width="46.9" height="4.4"/>
<rect x="105.6" y="71.7" fill="#54BEB0" width="46.9" height="4.4"/>
<rect x="105.6" y="82" fill="#54BEB0" width="46.9" height="4.4"/>
<rect x="96.7" y="35.2" fill="#54BEB0" width="67.6" height="8.7"/>
<path fill="#54BEB0" d="M107,28.6h43.8c0,0-2.7-10.5-14.7-10.5v2.5h-14v-2.5C122.1,18.1,112.8,16.6,107,28.6z"/>
<path fill="#333333" d="M133.2,10.9H124c-0.3,0-0.6-0.3-0.6-0.6V2.6c0-0.3,0.3-0.6,0.6-0.6h9.2c0.3,0,0.6,0.3,0.6,0.6v7.7
	C133.8,10.6,133.6,10.9,133.2,10.9z"/>
<circle fill="#999999" cx="128.4" cy="15.9" r="4.3"/>
<circle fill="#B3B3B3" cx="128.4" cy="15.9" r="3.3"/>
</svg>
