<?xml version="1.0" encoding="utf-8"?>
<!-- Generator: Adobe Illustrator 19.0.0, SVG Export Plug-In . SVG Version: 6.00 Build 0)  -->
<svg version="1.1" id="Layer_1" xmlns="http://www.w3.org/2000/svg" xmlns:xlink="http://www.w3.org/1999/xlink" x="0px" y="0px"
	 viewBox="-366 286.9 265.8 328.1" style="enable-background:new -366 286.9 265.8 328.1;" xml:space="preserve">
<style type="text/css">
	.st0{fill:#CCCCCC;}
	.st1{fill:#ED587A;}
	.st2{fill:#C80050;}
	.st3{fill:#B6F3E3;}
	.st4{fill:#54BEB0;}
	.st5{fill:#333333;}
	.st6{fill:#999999;}
	.st7{fill:#B3B3B3;}
</style>
<path class="st0" d="M-231.8,308.5H-243c-0.7,0-1.2-0.6-1.2-1.2v-19.2c0-0.7,0.6-1.2,1.2-1.2h11.2c0.7,0,1.2,0.6,1.2,1.2v19.1
	C-230.6,307.9-231.1,308.5-231.8,308.5z"/>
<rect x="-346.3" y="404.7" class="st1" width="226.4" height="37.7"/>
<rect x="-345.9" y="438.9" class="st1" width="13.3" height="176.1"/>
<rect x="-133.3" y="438.9" class="st1" width="13.3" height="176.1"/>
<rect x="-366" y="396.8" class="st2" width="265.8" height="8.8"/>
<rect x="-306" y="313.4" class="st3" width="142.2" height="83.4"/>
<ellipse class="st3" cx="-306.7" cy="354.9" rx="39.4" ry="42"/>
<ellipse class="st3" cx="-164.9" cy="354.9" rx="39.4" ry="42"/>
<circle class="st4" cx="-305.1" cy="354.3" r="36.6"/>
<circle class="st4" cx="-167.7" cy="354.3" r="36.6"/>
<rect x="-269.3" y="322.1" class="st4" width="67.6" height="8.7"/>
<path class="st4" d="M-259,315.5h43.8c0,0-2.7-10.5-14.7-10.5v2.5h-14V305C-243.9,305-253.2,303.5-259,315.5z"/>
<path class="st5" d="M-232.8,297.8h-9.2c-0.3,0-0.6-0.3-0.6-0.6v-7.7c0-0.3,0.3-0.6,0.6-0.6h9.2c0.3,0,0.6,0.3,0.6,0.6v7.7
	C-232.2,297.5-232.4,297.8-232.8,297.8z"/>
<circle class="st6" cx="-237.6" cy="302.8" r="4.3"/>
<circle class="st7" cx="-237.6" cy="302.8" r="3.3"/>
</svg>
