<?xml version="1.0" encoding="utf-8"?>
<!-- Generator: Adobe Illustrator 18.1.1, SVG Export Plug-In . SVG Version: 6.00 Build 0)  -->
<!DOCTYPE svg PUBLIC "-//W3C//DTD SVG 1.1//EN" "http://www.w3.org/Graphics/SVG/1.1/DTD/svg11.dtd">
<svg version="1.1" id="Layer_1" xmlns="http://www.w3.org/2000/svg" xmlns:xlink="http://www.w3.org/1999/xlink" x="0px" y="0px"
	 viewBox="0 0 263.4 303.1" enable-background="new 0 0 263.4 303.1" xml:space="preserve">
<rect x="19.5" y="94.7" fill="#ED587A" width="224.3" height="37.4"/>
<rect x="19.9" y="128.6" fill="#ED587A" width="13.2" height="174.5"/>
<rect x="230.6" y="128.6" fill="#ED587A" width="13.2" height="174.5"/>
<g>
	<path fill="#F1CB13" d="M62.9,63.8l0.2-6.7c0-0.5,0.6-0.8,1-0.5l6.6,5c0.4,0.3,0.3,1-0.2,1.1l-6.8,1.7
		C63.3,64.5,62.9,64.2,62.9,63.8z"/>
	<path fill="#F8E974" d="M57.1,62l3.6-5.7c0.3-0.4,0.9-0.4,1.1,0.1l3.2,7.7c0.2,0.5-0.3,1-0.8,0.8l-6.8-2C57,62.9,56.9,62.4,57.1,62
		z"/>
	<path fill="#F1CB13" d="M72.3,63.9L69,58c-0.2-0.4,0.1-1,0.6-0.9l8.3,0.9c0.5,0.1,0.7,0.7,0.4,1.1l-5,5
		C72.9,64.3,72.5,64.3,72.3,63.9z"/>
	<path fill="#F8E974" d="M66.3,65.4l0.2-6.7c0-0.5,0.6-0.8,1-0.5l6.7,5c0.4,0.3,0.3,1-0.2,1.1L67.1,66
		C66.7,66.1,66.3,65.8,66.3,65.4z"/>
	<path fill="#F1CB13" d="M80.7,64.4l0.2-6.7c0-0.5,0.6-0.8,1-0.5l6.6,5c0.4,0.3,0.3,1-0.2,1.1L81.4,65C81,65.1,80.6,64.8,80.7,64.4z
		"/>
	<path fill="#F8E974" d="M74.8,62.6l3.6-5.7c0.3-0.4,0.9-0.4,1.1,0.1l3.2,7.7c0.2,0.5-0.3,1-0.8,0.8l-6.8-2
		C74.8,63.4,74.6,62.9,74.8,62.6z"/>
	<path fill="#F1CB13" d="M90,64.5l-3.3-5.9c-0.2-0.4,0.1-1,0.6-0.9l8.3,0.9c0.5,0.1,0.7,0.7,0.4,1.1l-5,5
		C90.7,64.9,90.2,64.8,90,64.5z"/>
	<path fill="#F8E974" d="M84.1,65.9l0.2-6.7c0-0.5,0.6-0.8,1-0.5l6.7,5c0.4,0.3,0.3,1-0.2,1.1l-6.8,1.8
		C84.5,66.7,84.1,66.3,84.1,65.9z"/>
	<path fill="#F1CB13" d="M96.7,63.8l0.2-6.7c0-0.5,0.6-0.8,1-0.5l6.6,5c0.4,0.3,0.3,1-0.2,1.1l-6.8,1.7
		C97.1,64.5,96.7,64.2,96.7,63.8z"/>
	<path fill="#F8E974" d="M90.9,62l3.6-5.7c0.3-0.4,0.9-0.4,1.1,0.1l3.2,7.7c0.2,0.5-0.3,1-0.8,0.8l-6.8-2
		C90.9,62.9,90.7,62.4,90.9,62z"/>
	<path fill="#F1CB13" d="M106.1,63.9l-3.3-5.9c-0.2-0.4,0.1-1,0.6-0.9l8.3,0.9c0.5,0.1,0.7,0.7,0.4,1.1l-5,5
		C106.8,64.3,106.3,64.3,106.1,63.9z"/>
	<path fill="#F8E974" d="M100.2,65.4l0.2-6.7c0-0.5,0.6-0.8,1-0.5l6.7,5c0.4,0.3,0.3,1-0.2,1.1L101,66
		C100.6,66.1,100.2,65.8,100.2,65.4z"/>
	<path fill="#F1CB13" d="M114.5,64.4l0.2-6.7c0-0.5,0.6-0.8,1-0.5l6.6,5c0.4,0.3,0.3,1-0.2,1.1l-6.8,1.7
		C114.9,65.1,114.5,64.8,114.5,64.4z"/>
	<path fill="#F8E974" d="M108.7,62.6l3.6-5.7c0.3-0.4,0.9-0.4,1.1,0.1l3.2,7.7c0.2,0.5-0.3,1-0.8,0.8l-6.8-2
		C108.6,63.4,108.4,62.9,108.7,62.6z"/>
	<path fill="#F1CB13" d="M122.2,64.5l-3.3-5.9c-0.2-0.4,0.1-1,0.6-0.9l8.3,0.9c0.5,0.1,0.7,0.7,0.4,1.1l-5,5
		C122.9,64.9,122.4,64.8,122.2,64.5z"/>
	<path fill="#F8E974" d="M117.9,65.9l0.2-6.7c0-0.5,0.6-0.8,1-0.5l6.7,5c0.4,0.3,0.3,1-0.2,1.1l-6.8,1.8
		C118.3,66.7,117.9,66.3,117.9,65.9z"/>
	<path fill="#FCFCFC" d="M55.8,62.6c0,0-0.1,0.9-0.1,1.2c0,12.5,16,22.9,35.7,22.9c19.7,0,35.7-10.5,35.7-23c0-0.2,0-1.1-0.1-1.1
		H55.8z"/>
	<rect x="78.6" y="85" fill="#FCFCFC" width="25.8" height="1.9"/>
</g>
<rect y="86.9" fill="#C80050" width="263.4" height="8.7"/>
<g>
	<polygon fill="#ED1C24" points="131.8,71.5 146.8,71.5 144.7,86.9 134,86.9 	"/>
	<path fill="#FFFFFF" d="M147,72.2h-15.4c-0.3,0-0.5-0.2-0.5-0.5v-1.1c0-0.3,0.2-0.5,0.5-0.5H147c0.3,0,0.5,0.2,0.5,0.5v1.1
		C147.4,72,147.2,72.2,147,72.2z"/>
</g>
<g>
	<polygon fill="#ED1C24" points="149.4,71.5 164.4,71.5 162.3,86.9 151.5,86.9 	"/>
	<path fill="#FFFFFF" d="M164.5,72.2h-15.4c-0.3,0-0.5-0.2-0.5-0.5v-1.1c0-0.3,0.2-0.5,0.5-0.5h15.4c0.3,0,0.5,0.2,0.5,0.5v1.1
		C165,72,164.8,72.2,164.5,72.2z"/>
</g>
<g>
	<polygon fill="#ED1C24" points="167,71.5 182,71.5 179.8,86.9 169.1,86.9 	"/>
	<path fill="#FFFFFF" d="M182.1,72.2h-15.4c-0.3,0-0.5-0.2-0.5-0.5v-1.1c0-0.3,0.2-0.5,0.5-0.5h15.4c0.3,0,0.5,0.2,0.5,0.5v1.1
		C182.6,72,182.3,72.2,182.1,72.2z"/>
</g>
<g>
	<polygon fill="#ED1C24" points="184.5,71.5 199.5,71.5 197.4,86.9 186.7,86.9 	"/>
	<path fill="#FFFFFF" d="M199.7,72.2h-15.4c-0.3,0-0.5-0.2-0.5-0.5v-1.1c0-0.3,0.2-0.5,0.5-0.5h15.4c0.3,0,0.5,0.2,0.5,0.5v1.1
		C200.1,72,199.9,72.2,199.7,72.2z"/>
</g>
<g>
	<polygon fill="#ED1C24" points="202.1,71.5 217.1,71.5 214.9,86.9 204.2,86.9 	"/>
	<path fill="#FFFFFF" d="M217.2,72.2h-15.4c-0.3,0-0.5-0.2-0.5-0.5v-1.1c0-0.3,0.2-0.5,0.5-0.5h15.4c0.3,0,0.5,0.2,0.5,0.5v1.1
		C217.7,72,217.5,72.2,217.2,72.2z"/>
</g>
<g>
	<polygon fill="#ED1C24" points="140.6,54 155.6,54 153.5,69.3 142.8,69.3 	"/>
	<path fill="#FFFFFF" d="M155.8,54.7h-15.4c-0.3,0-0.5-0.2-0.5-0.5v-1.1c0-0.3,0.2-0.5,0.5-0.5h15.4c0.3,0,0.5,0.2,0.5,0.5v1.1
		C156.2,54.5,156,54.7,155.8,54.7z"/>
</g>
<g>
	<polygon fill="#ED1C24" points="158.2,54 173.2,54 171,69.3 160.3,69.3 	"/>
	<path fill="#FFFFFF" d="M173.3,54.7H158c-0.3,0-0.5-0.2-0.5-0.5v-1.1c0-0.3,0.2-0.5,0.5-0.5h15.4c0.3,0,0.5,0.2,0.5,0.5v1.1
		C173.8,54.5,173.6,54.7,173.3,54.7z"/>
</g>
<g>
	<polygon fill="#ED1C24" points="175.7,54 190.7,54 188.6,69.3 177.9,69.3 	"/>
	<path fill="#FFFFFF" d="M190.9,54.7h-15.4c-0.3,0-0.5-0.2-0.5-0.5v-1.1c0-0.3,0.2-0.5,0.5-0.5h15.4c0.3,0,0.5,0.2,0.5,0.5v1.1
		C191.3,54.5,191.1,54.7,190.9,54.7z"/>
</g>
<g>
	<polygon fill="#ED1C24" points="193.3,54 208.3,54 206.2,69.3 195.4,69.3 	"/>
	<path fill="#FFFFFF" d="M208.4,54.7h-15.4c-0.3,0-0.5-0.2-0.5-0.5v-1.1c0-0.3,0.2-0.5,0.5-0.5h15.4c0.3,0,0.5,0.2,0.5,0.5v1.1
		C208.9,54.5,208.7,54.7,208.4,54.7z"/>
</g>
<g>
	<polygon fill="#ED1C24" points="149.4,36.4 164.4,36.4 162.3,51.8 151.5,51.8 	"/>
	<path fill="#FFFFFF" d="M164.5,37.1h-15.4c-0.3,0-0.5-0.2-0.5-0.5v-1.1c0-0.3,0.2-0.5,0.5-0.5h15.4c0.3,0,0.5,0.2,0.5,0.5v1.1
		C165,36.9,164.8,37.1,164.5,37.1z"/>
</g>
<g>
	<polygon fill="#ED1C24" points="167,36.4 182,36.4 179.8,51.8 169.1,51.8 	"/>
	<path fill="#FFFFFF" d="M182.1,37.1h-15.4c-0.3,0-0.5-0.2-0.5-0.5v-1.1c0-0.3,0.2-0.5,0.5-0.5h15.4c0.3,0,0.5,0.2,0.5,0.5v1.1
		C182.6,36.9,182.3,37.1,182.1,37.1z"/>
</g>
<g>
	<polygon fill="#ED1C24" points="184.5,36.4 199.5,36.4 197.4,51.8 186.7,51.8 	"/>
	<path fill="#FFFFFF" d="M199.7,37.1h-15.4c-0.3,0-0.5-0.2-0.5-0.5v-1.1c0-0.3,0.2-0.5,0.5-0.5h15.4c0.3,0,0.5,0.2,0.5,0.5v1.1
		C200.1,36.9,199.9,37.1,199.7,37.1z"/>
</g>
<g>
	<polygon fill="#ED1C24" points="156,18.8 171,18.8 168.8,34.2 158.1,34.2 	"/>
	<path fill="#FFFFFF" d="M171.1,19.6h-15.4c-0.3,0-0.5-0.2-0.5-0.5V18c0-0.3,0.2-0.5,0.5-0.5h15.4c0.3,0,0.5,0.2,0.5,0.5v1.1
		C171.6,19.4,171.4,19.6,171.1,19.6z"/>
</g>
<g>
	<polygon fill="#ED1C24" points="173.5,18.8 188.5,18.8 186.4,34.2 175.7,34.2 	"/>
	<path fill="#FFFFFF" d="M188.7,19.6h-15.4c-0.3,0-0.5-0.2-0.5-0.5V18c0-0.3,0.2-0.5,0.5-0.5h15.4c0.3,0,0.5,0.2,0.5,0.5v1.1
		C189.1,19.4,188.9,19.6,188.7,19.6z"/>
</g>
<g>
	<polygon fill="#ED1C24" points="164.8,1.3 179.8,1.3 177.6,16.6 166.9,16.6 	"/>
	<path fill="#FFFFFF" d="M179.9,2h-15.4c-0.3,0-0.5-0.2-0.5-0.5V0.5c0-0.3,0.2-0.5,0.5-0.5l15.4,0c0.3,0,0.5,0.2,0.5,0.5v1.1
		C180.4,1.8,180.2,2,179.9,2z"/>
</g>
</svg>
