<?xml version="1.0" encoding="utf-8"?>
<!-- Generator: Adobe Illustrator 18.1.1, SVG Export Plug-In . SVG Version: 6.00 Build 0)  -->
<svg version="1.1" id="Layer_1" xmlns="http://www.w3.org/2000/svg" xmlns:xlink="http://www.w3.org/1999/xlink" x="0px" y="0px"
	 viewBox="167 0 234 792" enable-background="new 167 0 234 792" xml:space="preserve">
<polygon fill="#009245" points="214.1,208.4 201.3,179 230.4,107.1 209.4,106 172.7,183.6 214.8,286.8 251.8,273.8 "/>
<polygon fill="#009245" points="352,345 364.8,374.4 335.7,446.3 356.8,447.4 393.4,369.8 350.1,266.2 314.3,279.6 "/>
<polygon fill="#875C3B" points="241.1,747.6 237.8,764.9 222.9,764.9 223.2,747.6 "/>
<path fill="#231F20" d="M324.2,765l-15.3,0.3c0,0-5.4,16.9,13.2,17.9h24.2c0,0,5.3-11.5-9.1-12.3C337.3,771,325.5,769.8,324.2,765z"
	/>
<polygon fill="#C9D5E9" points="229.9,452.4 222.4,703.9 246.9,705.9 279.1,492.6 302.1,705 326.5,705.4 333.2,454.1 "/>
<polygon fill="#875C3B" points="241.1,747.6 237.8,764.9 222.9,764.9 223.2,747.6 "/>
<polygon fill="#E0A984" points="222.4,703.9 246.9,705.9 237.8,764.9 222.9,764.9 "/>
<polygon fill="#E0A984" points="326.5,705.4 302.1,705 308.9,765.4 324.2,765 "/>
<path fill="#C9D5E9" d="M208.1,266.6c0,0,47.3-28.3,142-0.4l-18.3,188.9c0,0-38.9,2.9-102.4-0.4L208.1,266.6z"/>
<path fill="#E0A984" d="M311.1,158.7v80.1h-12.2v26.3c0,0-13.7,26.9-47.1,0v-54.7c0,0-10.1-2-10.1-13.7c0-11.7,11.7-6.1,11.7-6.1
	v-31.9H311.1z"/>
<path d="M314.5,156.8c-0.2,1.9,0,3.9-0.7,5.6c-0.7,1.8-2.3,3.3-4.1,3.1c0.7-1.5-0.2-3.4-1.6-4.2s-3.1-0.8-4.6-0.7
	c-5,0.1-10,0.3-14.9,0.4c-4.2,0.1-8.5,0.2-12.6,1.1c-1.5,0.3-3.1,0.8-4.4,1.7c-2.2,1.4-3.9,4.1-6.5,4.1c0.6,2.9,0.6,6.1-0.7,8.7
	c-1.3,2.6-4.2,4.5-6.9,3.8c0.7,6,5.2,16.2,4.6,22.3c-2-0.2-4-0.3-6-0.5c1.4-1.6-3.4-8.5-4.9-10c-1.5-1.5-3.8-1.8-5.8-1.3
	c-1.5,0.4-1.5-1.8-1.8-0.1c-5.2-7.8-8.6-14.8-6.6-24.1c2-9.3,8-17.6,16.1-22c5.7-3.1,12.3-4.3,18.7-4.1
	C271.6,140.7,318.2,126.1,314.5,156.8z"/>
<path fill="#009245" d="M316.2,148.2c0,0-14.3-35.8-52.3-19.6c-31.4,13.3-36.1,39-20.9,67.5L316.2,148.2z"/>
<polygon fill="#E0A984" points="333.7,450.7 357,452.2 362.2,437 339.9,434.1 "/>
<path fill="#292846" d="M227.7,445c0,0,38,8.6,58,7.6c20-1,47.5-9.5,47.5-9.5l-1,17.1c0,0-22.8,9.5-46.6,8.6s-56.1-7.6-56.1-7.6
	L227.7,445z"/>
<path fill="#E0A984" d="M335.7,449.2c0,0-13.9,8.9-6.7,22.5c7.1,13.5,27.8,14.3,27.8,14.3s24.2-6.4,10-12.1c0,0-6.4,2.9-9.3-3.6
	c0,0,3.6-5.7-0.7-20C356.8,450.3,341,447.4,335.7,449.2z"/>
<path fill="#009245" d="M251.8,265.1c0,0,4.4,12.6,31,28.8c0,0,17.9-11,16.1-28.8C298.9,265.1,291.1,279.1,251.8,265.1z"/>
<path fill="#8C6239" d="M205.9,116.2c0,0-39-70.3-20-96S241,13.5,241,57.3c0,0,27.6-21.9,28.5,8.6c1,30.4-40.9,48.5-40.9,48.5
	L205.9,116.2z"/>
<circle fill="#FFFFFF" cx="226.8" cy="62" r="18.1"/>
<path fill="#ED1C24" d="M209,58.9c0,0,15.7-1,21.9,20.9l3-1.2c0,0-4.3-21.7-24.1-22.7L209,58.9z"/>
<path fill="#ED1C24" d="M244.7,63.2c0,0-15.6-2.1-17-19.1l-3.1,0.1c0,0,0.6,17,19.8,22.3L244.7,63.2z"/>
<path fill="#C9D5E9" d="M212.1,285.6L180.7,235c0,0,13.5-37.8,43.5-24.2l24.9,52L212.1,285.6z"/>
<path fill="#FBB03B" d="M186.4,245c0,0,9.3-29.2,42.1-24.9l-4.3-9.3c0,0-29.2-22.1-43.5,24.2L186.4,245z"/>
<path fill="#009245" d="M183.5,240.7c0,0,10-39.9,42.8-24.9l5,7.1c0,0-29.2-12.8-42.8,24.2L183.5,240.7z"/>
<path fill="#FBB03B" d="M186.4,245c0,0,16.4-40.6,44.9-22.1l1.4,7.8c0,0-27.1-13.5-41.3,22.1L186.4,245z"/>
<path fill="#C9D5E9" d="M350.1,266.2l37,45.4c0,0-10.8,36.7-40.1,29.5l-31.3-48.5L350.1,266.2z"/>
<path fill="#FBB03B" d="M380.1,302.4c0,0-5.5,30.2-38.6,30l5.4,8.7c0,0,25.3,12.9,40.1-29.5L380.1,302.4z"/>
<path fill="#009245" d="M383.4,306.8c0,0-11.6,35.9-39.2,29.7l-4.1-6.1c0,0,29,8.1,37.8-30.4L383.4,306.8z"/>
<path fill="#FBB03B" d="M380.1,302.4c0,0-9.1,33.3-39.1,29.3l-5.1-9.3c0,0,28.6,10,38.2-27.1L380.1,302.4z"/>
<path fill="#231F20" d="M222.9,764.9h14.9c0,0,5.4,17.3-13.2,18.4h-24.2c0,0-5.3-11.5,9.1-12.3C209.4,771,221.5,769.7,222.9,764.9z"
	/>
<path fill="#292846" d="M222.9,764.9h14.9c0,0,5.4,17.3-13.2,18.4h-24.2c0,0-5.3-11.5,9.1-12.3C209.4,771,221.5,769.7,222.9,764.9z"
	/>
<path fill="#292846" d="M324.2,765l-15.3,0.3c0,0-5.4,16.9,13.2,17.9h24.2c0,0,5.3-11.5-9.1-12.3C337.3,771,325.5,769.8,324.2,765z"
	/>
<path d="M258,187.2c0,0,5.3,2.9,9.6-0.4s6.4-8.9,6.4-8.9s6.8,2.1,11.4,0.4c4.6-1.8,7.1-6.1,7.1-6.1s5.3,4.6,11,4.3
	c5.7-0.4,7.7-0.5,7.7-0.5S297.2,159.4,258,187.2z"/>
<g>
	<path fill="#FFFFFF" d="M273.3,161.7c-0.2-1,0.1-1.8,0.6-2.5c0.2-0.3,0.4-0.6,0.7-0.7c0.8-0.5,0.9-1.1,0.9-2c0-4.3,0-8.6,0-12.8
		c0-0.2,0-0.4,0-0.5c0-0.5-0.1-1.1-0.7-1.3c-0.6-0.2-1.1-0.2-1.6,0.2c-0.1,0.1-0.2,0.1-0.3,0.2c-0.3-0.8-0.2-1.5,0.5-2.1
		c0.5-0.5,1.2-0.8,1.9-0.8c0.5,0,0.6-0.2,0.6-0.7c0-0.4,0-0.8,0.1-1.1c0-0.6,0-1.2-0.6-1.5c-0.7-0.3-1.3-0.4-2,0.1
		c-0.2,0.1-0.3,0.3-0.6,0.4c-0.1-1,0.3-1.8,1-2.4c2.3-2.4,6.2-1.8,8,1.2c2.9,4.9,5.8,9.9,8.7,14.8c0.1,0.2,0.2,0.4,0.4,0.6
		c0.7,1,1.8,1,2.7,0.2c0.2-0.2,0.3-0.3,0.4-0.5c0.1,0,0.1,0,0.1,0.1c0.5,1.5-0.3,4-1.6,4.9c-1.6,1-3.6,0.8-4.9-0.6
		c-1-1-1.6-2.3-2.3-3.5c-0.9-1.5-0.9-1.5-2.6-1c-1.2,0.4-2.4,0.8-3.6,1.1c-0.6,0.2-0.7,0.4-0.7,1c0.1,1.4,0,2.8,0.1,4.2
		c0,0.2-0.2,0.7,0.2,0.8c0.4,0.1,0.8,0,1.1-0.3c0.1-0.1,0.1-0.5,0.4-0.4c0.4,0.1,0.9,0.1,1.2,0.3c0.4,0.4,0.3,0.9,0.1,1.4
		c-0.3,0.5-0.8,0.8-1.3,0.9c-0.3,0.1-0.6,0.1-0.9,0.1C276.6,159.2,274.8,160.1,273.3,161.7z M280.3,148.1c0.6-0.2,1.2-0.4,1.7-0.5
		c0.3-0.1,0.4-0.2,0.2-0.6c-1.2-2.1-2.4-4.2-3.6-6.3c-0.1-0.2-0.2-0.4-0.5-0.3c-0.3,0.1-0.2,0.3-0.2,0.4c0,2.5,0,4.9,0.1,7.4
		c0,0.3,0.1,0.5,0.5,0.4C279.2,148.4,279.8,148.3,280.3,148.1z"/>
	<path fill="#FFFFFF" d="M290.3,135.4c0.4-0.1,0.8-0.2,1.2-0.2c0.8,0,0.9,0.1,0.7,0.9c-0.1,0.3-0.2,0.2-0.4,0.2
		c-0.4,0-0.8-0.1-1.2,0.2c-0.4,0.2-0.7,0.5-0.6,1c0.1,0.5,0.5,0.6,0.9,0.7c0.4,0,0.9,0,1.3,0c0.8,0,1.5,0.3,1.8,1.2
		c0.3,0.9,0.3,1.8-0.5,2.5c-1,0.9-2.2,1.1-3.5,0.8c-0.6-0.1-0.2-0.5-0.2-0.7c0-0.3,0-0.6,0.5-0.5c0.5,0.2,1.1,0.2,1.6-0.1
		c0.5-0.2,0.8-0.6,0.7-1.1c-0.1-0.5-0.5-0.7-1-0.8c-0.4,0-0.8,0-1.3,0c-0.7,0-1.3-0.1-1.6-0.8c-0.4-0.8-0.5-1.6,0.1-2.4
		C289.1,135.9,289.6,135.6,290.3,135.4z"/>
	<path fill="#FFFFFF" d="M286.3,138.6c0-0.3,0.1-0.6,0-0.8c0-0.4-0.2-0.6-0.6-0.5c-0.4,0.1-0.7,0.1-0.8-0.4
		c-0.1-0.5,0.2-0.8,0.7-0.9c0.3-0.1,0.7,0,0.9,0.3C287.1,137,287,137.9,286.3,138.6z"/>
</g>
<g>
	<path fill="#009245" d="M311.8,308c0.1-0.9,0.6-1.5,1.2-2c0.2-0.2,0.5-0.4,0.8-0.4c0.8-0.2,1.1-0.7,1.3-1.4
		c1.2-3.6,2.4-7.2,3.7-10.8c0.1-0.2,0.1-0.3,0.2-0.5c0.1-0.5,0.2-1-0.2-1.3c-0.4-0.4-0.9-0.5-1.4-0.3c-0.1,0-0.2,0.1-0.3,0.1
		c-0.1-0.8,0.3-1.3,1-1.6c0.6-0.3,1.2-0.3,1.8-0.2c0.4,0.1,0.6,0,0.7-0.4c0.1-0.3,0.3-0.6,0.4-0.9c0.2-0.5,0.4-1-0.1-1.4
		c-0.5-0.5-1-0.7-1.7-0.5c-0.2,0-0.4,0.1-0.6,0.2c0.2-0.9,0.8-1.4,1.5-1.8c2.7-1.3,5.7,0.3,6.4,3.3c1,5,2,10,3,15
		c0,0.2,0.1,0.4,0.2,0.6c0.4,1,1.2,1.4,2.2,0.9c0.2-0.1,0.3-0.2,0.5-0.3c0,0,0.1,0.1,0.1,0.1c0,1.4-1.4,3.3-2.8,3.6
		c-1.6,0.4-3.2-0.4-4-1.9c-0.6-1.1-0.6-2.4-0.9-3.6c-0.4-1.5-0.3-1.5-1.9-1.6c-1.1,0-2.2-0.1-3.3-0.1c-0.5,0-0.7,0.1-0.9,0.6
		c-0.3,1.2-0.8,2.4-1.2,3.6c-0.1,0.2-0.4,0.5,0,0.7c0.3,0.2,0.7,0.2,1,0.1c0.2-0.1,0.2-0.4,0.5-0.3c0.3,0.2,0.7,0.3,0.9,0.6
		c0.3,0.4,0,0.8-0.3,1.2c-0.4,0.4-0.9,0.4-1.4,0.4c-0.3,0-0.6-0.1-0.8-0.2C315.3,306.9,313.6,307.1,311.8,308z M321.6,298.6
		c0.5,0,1.1,0,1.6,0.1c0.3,0,0.4-0.1,0.4-0.4c-0.4-2.1-0.8-4.2-1.2-6.3c0-0.2-0.1-0.3-0.3-0.4c-0.2,0-0.2,0.2-0.3,0.3
		c-0.7,2.1-1.4,4.1-2.1,6.2c-0.1,0.3,0,0.4,0.3,0.4C320.6,298.6,321.1,298.6,321.6,298.6z"/>
	<path fill="#009245" d="M333.7,290.8c0.4,0,0.7,0.1,1,0.2c0.7,0.2,0.7,0.4,0.3,1c-0.1,0.2-0.2,0.1-0.4,0.1c-0.3-0.1-0.7-0.3-1-0.2
		c-0.4,0.1-0.7,0.3-0.8,0.7c0,0.4,0.2,0.7,0.6,0.8c0.4,0.1,0.7,0.3,1.1,0.4c0.7,0.3,1.2,0.7,1.2,1.5c0,0.9-0.3,1.6-1.1,2
		c-1.1,0.5-2.1,0.3-3.1-0.3c-0.4-0.2-0.1-0.5,0-0.7c0.1-0.2,0.2-0.5,0.5-0.3c0.4,0.3,0.9,0.5,1.4,0.4c0.5,0,0.8-0.2,0.9-0.7
		c0.1-0.5-0.2-0.8-0.6-0.9c-0.3-0.1-0.7-0.3-1.1-0.4c-0.6-0.2-1.1-0.5-1.1-1.2c-0.1-0.8,0.1-1.5,0.7-2
		C332.6,290.9,333.1,290.7,333.7,290.8z"/>
	<path fill="#009245" d="M329.4,292.4c0.1-0.3,0.2-0.5,0.3-0.7c0.1-0.3,0-0.6-0.4-0.6c-0.4,0-0.7-0.1-0.6-0.6
		c0.1-0.4,0.4-0.6,0.8-0.6c0.3,0,0.5,0.2,0.7,0.5C330.5,291.2,330.2,291.9,329.4,292.4z"/>
</g>
<path fill="#FBB03B" d="M248.7,193.8c0,0,29.4-69,76.9-42.5c13.5,10.3-14.3,24.7-14.3,24.7S300,157.1,248.7,193.8z"/>
</svg>
