<?xml version="1.0" encoding="utf-8"?>
<!-- Generator: Adobe Illustrator 18.1.1, SVG Export Plug-In . SVG Version: 6.00 Build 0)  -->
<svg version="1.1" id="Layer_1" xmlns="http://www.w3.org/2000/svg" xmlns:xlink="http://www.w3.org/1999/xlink" x="0px" y="0px"
	 viewBox="110 0 485 792" enable-background="new 110 0 485 792" xml:space="preserve">
<g>
	<polygon fill="#E0A984" points="308.9,503 290.3,611.5 192,743 169.3,740.1 247.2,606.9 263.1,482.1 	"/>
	<polygon fill="#E0A984" points="311.2,508.1 385.3,587 292.2,732.7 310.4,750.7 439.9,574.4 345.3,464.1 	"/>
	<polygon fill="#C1272D" points="375.8,402 324.3,539.4 241.9,532.4 287.5,398.3 	"/>
	<path fill="#E0A984" d="M353.9,185.5L476,287.4l80.7-101.5L534,170.1l-59.6,61.3L404.2,171C404.2,171,371.9,169.7,353.9,185.5z"/>
	<path fill="#009245" d="M219.5,166.8c0,0,62.1-33.2,184.7,4.2l-13,39.4l-1.4,78.8L375.8,402c0,0-47.6,3.3-130.2-2.8l-13.1-108.6
		l4.5-84L219.5,166.8z"/>
	<path fill="#E0A984" d="M358.7,37.1l-2.5,98.4l-15.7-0.4l-0.8,32.4c0,0-17.6,32.6-57.9-1.5l1.7-67.2c0,0-12.4-2.8-12-17.1
		c0.4-14.3,14.5-7.1,14.5-7.1l1-39.2L358.7,37.1z"/>
	<path fill="#231F20" d="M274.3,74.3c0,0,15.4-8.7,15.9,18.2l12.9-1.9c0,0-7.8-15.3-2.9-25.7s-0.2-24.5-0.2-24.5s34.9-6.1,59.2,0.4
		L358.9,56c0,0,9.1-22-3.4-37.5C343.1,3,284.8-0.4,273.3,31.6C263.2,59.4,274.3,74.3,274.3,74.3z"/>
	<path fill="#E0A984" d="M261.7,155.2c0,0-3.3,61.3,51,62.6c54.3,1.4,50.5-56.5,50.5-56.5S318.2,140.9,261.7,155.2z"/>
	<path fill="#E0A984" d="M233,161.5c0,0,28.3,103-0.4,128.5l-13.1-123.2L233,161.5z"/>
	<path fill="#E0A984" d="M219.5,166.8L114.7,286.4l99.5,83.2l16.3-22.4l-59.8-61.1l62.5-66.8C233.2,219.3,234.9,185.2,219.5,166.8z"
		/>
	<path fill="#E0A984" d="M404.2,171l-10.7-2.6c0,0-14.5,87.3-3.6,120.3L404.2,171z"/>
	<path fill="#E0A984" d="M214.2,369.6c0,0,2.7,32.2,15.5,33.1s35.6-22.5,35.6-22.5l-2.7-8.8l8.8-1.5c0,0-3.2-13.5-14.2-16.1
		s-30.2-7.2-30.2-7.2L214.2,369.6z"/>
	<path fill="#E0A984" d="M551.7,192.3c0,0,32,4.8,35.8-7.5c3.8-12.3-13.6-39.8-13.6-39.8l-9.2,0.6l0.5-8.9c0,0-13.9,0-19,10.1
		s-14,27.7-14,27.7L551.7,192.3z"/>
	<path fill="#FFFFFF" d="M233,161.5c0,0,26.8,96.5-0.4,128.5l0.9,8.8c0,0,37.1-36.4,5.9-138.9L233,161.5z"/>
	<path fill="#FFFFFF" d="M393.4,168.5c0,0-12.2,88.5-3.6,120.3l-2.2,15.7c0,0-16.6-37.2-0.6-138.5L393.4,168.5z"/>
	<path fill="#FFFFFF" d="M255.9,156.2c0,0-0.5,67.2,58.5,67.5c59,0.3,54.2-62.3,54.2-62.3l-8.7-2c0,0,11.5,54.6-43.5,57.3
		c-55,2.7-54.5-61.6-54.5-61.6L255.9,156.2z"/>
	<path fill="#ED1C24" d="M245.7,399.2c0,0-18.3,50.7,11.4,77.2c29.7,26.5,79.9,75.6,80,72.1c0.1-3.5,50.4-53.6,50.4-53.6l-46.2-65.4
		l-0.3-29.7L245.7,399.2z"/>
	<path fill="#231F20" d="M292.2,732.7L277.7,751c0,0,36.4,38.3,43.4,39.7c7,1.3,18.2-27.6-10.7-40L292.2,732.7z"/>
	<path fill="#231F20" d="M169.9,740.1c0,0-15.1,18.3-3.7,30.3l66.6,1.7c0,0,7.7-25.5-14.5-27.2C196.1,743.1,169.9,740.1,169.9,740.1
		z"/>
	<path fill="#FFFFFF" d="M294.6,285.7l39.8,1c0,0,1.3,35.4-21.9,34.8C291.2,321,294.6,285.7,294.6,285.7z"/>
	<path fill="#009245" d="M307.4,289.6l-10.5-0.3c0,0,0,22.8,8.4,27.1L307.4,289.6z"/>
	<path fill="#ED1C24" d="M321.4,289.9l10.5,0.3c0,0-1.2,22.8-9.7,26.6L321.4,289.9z"/>
</g>
</svg>
