<?xml version="1.0" encoding="utf-8"?>
<!-- Generator: Adobe Illustrator 18.1.1, SVG Export Plug-In . SVG Version: 6.00 Build 0)  -->
<svg version="1.1" id="Layer_1" xmlns="http://www.w3.org/2000/svg" xmlns:xlink="http://www.w3.org/1999/xlink" x="0px" y="0px"
	 viewBox="0 106 612 511" enable-background="new 0 106 612 511" xml:space="preserve">
<path fill="#F2F2F2" d="M653.3,759.2"/>
<path fill="#204995" d="M652.6,774.3"/>
<path fill="#204995" d="M652.6,774.3"/>
<g>
	<rect x="16.8" y="267" fill="#F15A24" width="583.4" height="6.9"/>
	<rect x="27.6" y="272.8" fill="#F7931E" width="562.8" height="105.8"/>
	<rect x="246.2" y="241.1" fill="#F7931E" width="132.8" height="44.9"/>
	<path fill="#BCF2E2" d="M303.1,123.3c0,0-0.4-1.1,0.7-1.3c0,0-1.3-1.2-0.3-1.4c1-0.2,0.8-1.6,0.8-1.6l0.5,1.2c0,0,1.4,0.2,0.8,0.9
		c-0.6,0.7-0.4,1.1-0.4,1.1s0.7,0.1,0.5,1.6c-0.1,1.5,0.7,2.7,0.7,2.7s2.4-0.3,2.5-1.6s-1.3-0.8-1.1-1.7c0.2-1,1.2-1.6,2.6-2.4
		c1.4-0.8,4.1-2.6,4.3-3.5l0.3,0.8l2.9-3.2l-0.7,2.2l0.5,0.4l-1.1,1.4l0.4,0.6L316,121l0.6,0.5l-0.9,0.8l0.5,0.4l-0.8,0.9l0.3,0.5
		l-0.6,0.4l0.2,0.5l-0.6,0.4l0.2,0.6c0,0-2.5,1.5-2.4,2.4c0.1,0.9-0.2,3.4-4.4,3.3l-0.2,1.3l-0.3,1.3l-4.9,0l-0.1-1.1
		c0,0-4.8,0-4.6-2.7c0.2-2.7-3.1-2.6-3.6-2.8l0.1-0.7l-1.1-0.5l0.3-0.6l-1.4-0.7l0.5-0.9l-1.5-0.9l0.4-0.8l-1.3-1.3l0.7-0.6
		l-1.5-1.7l0.9-0.1l-0.9-2c0,0,4.7,3.5,6.9,4s6,2.6,4,4.4c-0.6,0.5,1.2,2.2,2.7,1.6C303.3,126.7,304.6,123.4,303.1,123.3z"/>
	<path fill="#BCF2E2" d="M295.6,198.6c0,0,0.2-6.9-1-11.8s-2.2-14.6,1.2-17c3.4-2.4,3.1-0.8,3.1-0.8s5.1-7.9,7-8
		c1.9-0.1,1.8,1.7,1.8,1.7s0,1.3-1.4,1.9c-1.4,0.6-3.4,2.3-4.2,3.8c-0.9,1.6-0.3,2.5-0.3,2.5l1.8,1c0,0,1.4,0,2.7,0.7l0.5-4.5
		c0,0-1.7-0.8-1.9-1.6c-0.2-0.9,0.2-2,0.2-2s3.8-3,5.5-2.7c1.7,0.3,3.2,1,3.6,2.8c0.4,1.8-1.6,4-1.6,4s-0.1,1.9-0.8,3l0.9,1.9l1.7,1
		l2,0.5c0,0,1.6-2,0.6-4.4l1-1.3c0,0,4.5-0.4,5.3,4.7c0.8,5.1,1.5,17.3,1.2,19.1c-0.4,1.7-0.2,5.6-0.2,5.6l3,3.3
		c0,0,1.3,34,1.4,33.7s-40.4,0-40.4,0l1.1-32L295.6,198.6z"/>
	<path fill="#50B5AC" d="M324.5,198.8c0,0-5.4,3-5.3,12.4c0.1,9.3,3.2,14.6,3.2,14.6l1.3-1.1l-2.6-14.2l3.9-8.6v-2L324.5,198.8z"/>
	<path fill="#50B5AC" d="M295.6,198.6c0,0,5.5,2.5,7,6c1.5,3.5-0.9,9.7-0.9,9.7s1,7.6,0.4,9.9l-2.8-0.3l-0.3-14.1L295.6,198.6z"/>
	<path fill="#50B5AC" d="M288,235.4l0.4-8c0,0,12.4-6,24.7-5s14.9,5.9,14.9,5.9l0.6,7.2L288,235.4z"/>
	<path fill="#BCF2E2" d="M363.8,196.7c0,0,0.9-2.2,1.3-3.7c0.4-1.5,0.1-2.9,0.6-4.4c-0.1-3,1.8-5.3,1.8-5.3s-0.5-0.8,0.5-2.1
		c1-1.3,2.6-3.6,3.5-4.6c0.9-1,4.8-2.3,4.8-2.3s0-2.2,1.3-3.2c0,0,1,1.5,1,3.3c0,0,1.9-0.1,2.1,1l2.2-1.5c0,0,0.1,1.5-1.4,3.1
		c0,0-1.2,1.3-0.4,2.4c0.8,1.2-0.3,3-0.3,3l-0.4,4.5c0,0,0.5,0.6,0.3,1c-0.3,0.4-0.9,1.5-0.9,1.5s-0.8,1.5-1.8,1.5
		c0,0-1.7,1.2-2.7,0.3c0,0,1.7,7.3,1.3,7.6c-0.4,0.3,2.7,1.7,2.3,5.9c-0.4,4.2-1.2,6-1.2,6s3.2,2.4,3.2,3.7c0,1.3-1.7,4.9-1.5,6.2
		c0.1,1.3,0.5,3.3-0.1,3.9c-0.6,0.5-0.8,1.3-0.6,2.1c0.1,0.8-0.9,3.9-2.2,4.1c-1.3,0.3-3.5-1.7-2.1-4s2.4-1.7,2.4-2.2s-1-1.4,0-3.1
		s1-5.8,1-5.8s-3.5,1.3-5.8,0.4l-4.4,1.8c0,0-0.3,5.3-2.3,6.8c0,0-1,4.6-0.8,6.9c0.3,2.3,1,3.3,1,3.3h-3.5c0,0-0.5-1.9,0-3.3
		c0.5-1.4,0.4-3,0.4-3l-2.1,6.3h-2.2c0,0,0.4-0.2,0-1.9c-0.4-1.7-0.6-3.3,0.8-4.9c1.4-1.5,1.7-6.4,1.7-6.4l-1.4-1.3l-2.6,1
		c0,0,0.1,2.3-0.4,3.5S355,232,355,235h-3.3c0,0,0.4-4.5-0.3-7.1c-0.6-2.6-0.3-6.6-0.3-6.6s-1.8-1.8-1.5-5.5c0.3-3.7,1-9.2,3-10.8
		C352.6,205,363.2,198.1,363.8,196.7z"/>
	<path fill="#BCF2E2" d="M245.3,176.8l-2.3-0.1c0,0,0.3,1.4,1.8,2c0,0,0.3,1.8-0.1,2.3c-0.4,0.5-1,1.3-0.4,2.3c0.6,1,1.7,4.9,1,6.3
		s-0.5,1.3,0.1,2.2s0.4,1.9,1.7,2.1c1.3,0.1,3.1-0.4,3-1c-0.1-0.6-0.6-3-0.6-3l1-0.8c0,0,0.4,6.4-0.4,8.9c-0.8,2.4-3.1,3.6-2.3,8.2
		c0.8,4.6,0.9,6,0.9,6s-2.7,1.4-2.4,2.8s1,6.4,0.9,7.8c-0.1,1.4,0.5,2.2,0.4,2.7c-0.1,0.5-0.4,3.2,0.4,4.8c0.8,1.5,3.1,1.4,3.6-0.6
		s-2.1-4.5-2.1-4.5s0.6-0.9,0.1-2.3s-0.8-4.5,0.5-6.3l4.4-0.8l2.2,1.2c0,0,1.2,3.5,2.3,5.5c1.2,2.1,2.6,4.5,2.4,6.7
		c-0.1,2.2-0.8,6.4-0.8,6.4l4.6-0.3c0,0,0.9-3.6,0.1-6c-0.8-2.4,0.5-8.2,0.5-8.2l1.5,2.4c0,0-0.5,1.8-0.4,3.4
		c0.1,1.5,0.4,8.1-0.1,8.1h4.6c0,0-0.9-2.3-0.6-4.2c0.3-1.9-0.1-7.1,0.5-8.8c0.6-1.7,4.1-6.8,2.2-14.7c-1.9-7.8-8-5.1-10.3-8.9
		c-2.3-3.9-6.2-13.5-6.5-16.3c-0.4-2.8-5.3-7.9-7.8-6.8l-2-0.2v1.3L245.3,176.8z"/>
	<path fill="#BCF2E2" d="M339,235.2l-0.4-10.4c0,0,0.6-1.4,0.1-2.6c-0.5-1.2,1.2-2.8,2.2-6.3s0.5-12.3,0.5-12.3s0.6-2.1,0.3-2.6
		l-0.5-1.5c0,0-0.1-3.2-2.6-5l-1.4-8.3c0,0,1.7,0,1.8-1.3c0,0,1,0.1,1.4-3.1l-1.5-1.9c0,0,0.5-3.2,0.9-4s-2.1-3.3-2.1-3.3
		s1.5,0,0.9-2.2c0,0-1.5-0.1-2.1,0.9c0,0-0.9-1.5-3.2-0.3l-1-1.3c0,0-1,1.7-0.3,2.8c0,0-3.1,6-4,14.4c-0.9,8.3-3.1,12.8-3.1,12.8
		s-3.7,1.9-4.5,9.6c-0.8,7.7,3.1,17.2,3.1,17.2s-1.2,1.8-0.6,3.6c0.5,1.8,0.8,4.9,0.8,4.9l2.3-0.1c0,0,1.4-9.4,1.8-10.5
		c0.4-1.2,0.9-5.3,3.3-5c2.4,0.3,2.4,2.4,2.4,2.4l0.8,13.6L339,235.2z"/>
	<path fill="#BCF2E2" d="M299.7,235c0,0,0.3-6.7,0.1-8.3c0,0,0.5-1.9,0.8-5c0.3-3.1-0.8-7.8-0.3-9s2.1-6.2-1.4-10.3
		c-3.5-4.1-5.3-6.2-5.5-10c-0.3-3.9,0.4-12.3,0.4-12.3s0.9-0.4,0.3-2.1c-0.6-1.7-1.3-2.2-1.3-2.2s1.2-0.6,0.5-2.3c0,0-0.5,0-1.3,0.9
		c0,0-1.7-1.3-2.4-0.5c-0.8,0.8-1.3,0.9-1.3,0.9s-0.4-1-1.2-1.2c0,0-1.2,1.9,0.3,2.8c0,0-1.7,1.4-1.4,2.4c0.3,1,0.5,4-0.4,6.2
		s-0.8,9.2-1.9,10.9c-1.2,1.7-4,4.6-3.2,8c-0.6,2.4-1.2,5.5-0.3,8s3.2,8.5,3.2,9.2s-0.4,1.8,0.5,4.1s0.1,7.7,1.5,9.7h2.7l-0.9-2
		l-0.4-2.1c0,0,1.5,1,2.1-0.6c0.5-1.5-1-4.7-1-4.7l-0.3-4.2l1.8-1.8l2.1,1.4c0,0,0,3.5,1,4c0,0-2.1,5.1,2.7,5
		c2.2,0.1-0.6-5.5-0.6-5.5s0.4-0.9-0.1-1.9c-0.5-1-0.3-2.2-0.3-2.2s1.3-0.5,2.1,4.2c0.8,4.8,0.8,10.4,0.8,10.4
		S299.9,234.8,299.7,235z"/>
	<path fill="#50B5AC" d="M250.7,188.8c0,0,2.6-2.3,2.6-5.3c0,0,1.9,2.6,1.7,8.2c-0.1,5.7-4.5,5.6-4.5,5.6L250.7,188.8z"/>
	<path fill="#50B5AC" d="M250.1,182.5c0,0-0.8-1.5-1.5-0.1C248.6,182.3,249.1,183.3,250.1,182.5z"/>
	<path fill="#50B5AC" d="M247.6,175.3c0,0,1.5,0.8,1.9,1.8C250,178.2,247.2,178.4,247.6,175.3z"/>
	<path fill="#50B5AC" d="M244.9,178.6l0.2-0.8l-2-1.1C243.1,176.7,243.4,178.2,244.9,178.6z"/>
	<path fill="#50B5AC" d="M247.6,191.3c0,0,1.1-0.3,0.8-1.4C248.2,188.8,247,189.4,247.6,191.3z"/>
	<path fill="#50B5AC" d="M250.4,213.9c0,0,0.1,2-0.3,2.7l1.6-0.2C251.7,216.4,252,215.3,250.4,213.9z"/>
	<path fill="#50B5AC" d="M249.5,225.2c0,0-0.4,0.6-1.2,0.1c0,0,3,3.3,2.8,4.9C251.1,230.2,252.8,228.4,249.5,225.2z"/>
	<path fill="#50B5AC" d="M251.6,207.7l0.2,2.5c0,0,2.4,3.1,1.3,5.8l1.4-0.3c0,0,0.4-3.5-1.9-5.7L251.6,207.7z"/>
	<path fill="#50B5AC" d="M260.4,217.4l-2.1-0.3c0,0,1.2,4.3,2.4,6.5C260.8,223.7,260.8,219.3,260.4,217.4z"/>
	<path fill="#50B5AC" d="M261.3,224.6c0,0,0,1.6,1.3,2c1.3,0.4,1.7-1.5,1.7-1.5S263.3,223.7,261.3,224.6z"/>
	<path fill="#50B5AC" d="M270.9,211.8c-0.1-0.2,1.6,5.5-3.9,5.5c-0.1,0-1.1,3.7-1.1,3.7l1.5,2.4l1.3-4.6
		C268.8,218.9,272.8,217.5,270.9,211.8z"/>
	<path fill="#50B5AC" d="M302,175.8c0,0,0.9,2.2,2.2,3c0,0,2.6-2.8,0.5-6.2C304.7,172.6,303.5,175.4,302,175.8z"/>
	<path fill="#50B5AC" d="M301.8,170.9c0,0-1.1,2.4-2.7,2.1c0,0,3.7-6.5,5.2-7.2C304.3,165.8,302,168.6,301.8,170.9z"/>
	<path fill="#50B5AC" d="M307.4,184.3c0,0,2.1-3.1,2.7-5.3c0,0,0.1,2-0.8,4.1c0,0,1.3-0.3,2.2-3.1c0,0,1.2,0.9-0.6,3.9l3.5-5.3
		c0,0-1.3,2.9-0.7,4.6c0,0-1.3,1.3-1.1,3.1c0,0-0.5,0.9-1.1,1.3c-0.6,0.4-1.3,1.6-1.3,1.6l-2.8-2.7L307.4,184.3z"/>
	<path fill="#50B5AC" d="M316.3,174.8c0,0,1,0.5,1.3,2.7c0.3,2.2-0.2,7.5-0.2,7.5l1.3-1.2l1.8,2.9l0.5-2.9c0,0,1.5-0.1,1.4-1.1
		s0.2-6,0.2-6s-0.3,1.7-1.3,2.2c0,0,2.2-8.7-4.4-8.7C316.9,170.4,317.5,173.1,316.3,174.8z"/>
	<path fill="#50B5AC" d="M314.4,188.1c0,0-0.1,3-0.5,4l1.3,0.4l0.2-1.8c0,0,1.1,0.8,1.4,2.7l0.9,0.2
		C317.7,193.6,316.6,189.8,314.4,188.1z"/>
	<path fill="#50B5AC" d="M300.3,182.2c0,0-0.7,1.3-2,0.4c0,0,1.7,2.9-0.6,3.5c0,0,2.4,0.3,1.9-2.1
		C299.6,184,300.6,183.6,300.3,182.2z"/>
	<path fill="#50B5AC" d="M298.6,198.9c0,0,2.1-3,11.9-3.3s12.9,5.1,12.9,5.1s-4.3-4.6-12.9-4.2C302,196.9,298.6,198.9,298.6,198.9z"
		/>
	<path fill="#50B5AC" d="M311.5,171.1l1.3,3.5c0,0-2.4,1.9-4.2,1.1c-1.8-0.9-2.6-2.5-2.6-2.5v-3.7c0,0,1.1,2.2,2.8,2.4
		S311.5,171.1,311.5,171.1z"/>
	<path fill="#50B5AC" d="M310.8,166.9c0,0-1.3-0.9-2.3,0.1c0,0,0.6,0.7,1.4,0.6C310.6,167.5,310.8,166.9,310.8,166.9z"/>
	<path fill="#50B5AC" d="M311.4,167.1c0,0,1-0.4,1.5,0.1c0,0-0.1,0.6-0.8,0.6S311.4,167.1,311.4,167.1z"/>
	<path fill="#50B5AC" d="M310.1,169.4c0,0,0.2-0.3,0.6-0.1s0.5-0.2,0.5-0.2S311.2,170.3,310.1,169.4z"/>
	<path fill="#50B5AC" d="M306.9,167.5c0-0.1,0.5-0.8,0.4-1.7l1.3-0.9c0,0,0.6,0.4,1.2,0c0,0,1,0.4,1.7-0.4c0,0,0.4,1.1,1.7,1.1
		l0.1,1.2l-0.4,0l-0.1-0.8c0,0-0.9,0-1.4-0.7c0,0-0.7,0.5-1.5,0.2c0,0-0.5,0.3-1.2,0l-0.9,0.5L306.9,167.5z"/>
	<path fill="#50B5AC" d="M303.1,123.3c0,0,0.5-0.8,1.2-0.4c0.7,0.4-0.3,1.6-0.3,1.6s0.1-0.9-0.2-1.2
		C303.4,123,303.1,123.3,303.1,123.3z"/>
	<path fill="#50B5AC" d="M302.6,128.3l0.1,0.7c0,0-1.6,1.3-0.6,3v0.8l-0.2-1.1c0,0-0.7-1.7,0.5-2.9L302.6,128.3z"/>
	<path fill="#50B5AC" d="M310.2,122.4c0,0,4.1-2.1,6.1-4.4C316.4,118,312.4,122.9,310.2,122.4z"/>
	<path fill="#50B5AC" d="M307.6,129.5c0,0,0.4,1,0.3,1.8C307.9,131.3,308.7,130.2,307.6,129.5z"/>
	<path fill="#50B5AC" d="M303.8,130.3c0,0-0.5,1.9-0.2,3.1l0.4-0.6C304,132.8,304.2,131.4,303.8,130.3z"/>
	<path fill="#50B5AC" d="M306.5,129.8c0,0-0.8,1.1,0,2.4c0.8,1.3,0.9-0.2,0.9-0.2s0.2,1.9,0,2.1c-0.2,0.1-0.7-0.3-0.7-0.3l-0.7,0.3
		l-0.4,0l-0.3,0.8l0.3-1.6c0,0,0.7,0.1,0.8-0.2S304.4,131.5,306.5,129.8z"/>
	<path fill="#50B5AC" d="M291.3,213.8c0,0,1.3,0.5,2.6,0c0,0,0.2,4-1.3,4C291,217.8,291.3,213.8,291.3,213.8z"/>
	<path fill="#50B5AC" d="M286.8,231.1c0,0-0.6-2.3-0.6-3.8s0.5-5.2-0.5-6.8c-1-1.5-0.7-7.5-0.7-7.5s3.7,1.3,5.9,1c0,0-0.4,2.6,1,3.9
		c0,0,0.2,2.9,0.1,3.5c0,0.6-0.4,1.7-0.4,1.7l-0.2-2.1c0,0-1.7-0.9-2.1-1.4l-1.6,1.7l0.1,4.6c0,0,2,3.9,0.8,5.1
		C288.1,231.5,286.8,231.1,286.8,231.1z"/>
	<path fill="#50B5AC" d="M297.1,204.6c0,0,0.8,3.1-0.4,5.8C296.6,210.5,299.1,207,297.1,204.6z"/>
	<path fill="#50B5AC" d="M295.3,214.7c0.1,0,1.8,2.6,2.7,3.2l1.1-2.4c0,0,0.8,1.3,0.4,3.3c-0.3,2.1-0.3,7.5-0.3,7.5s-1.5,1.5-2.7,0
		c0,0-0.6-5.7-2.3-5.9l-0.1-2.9c0,0,0.8-1.4,0.3-2.6L295.3,214.7z"/>
	<path fill="#50B5AC" d="M288.2,186.2c0,0,0.9,0.4,0.5,1.6C288.7,187.8,287.2,187.2,288.2,186.2z"/>
	<path fill="#50B5AC" d="M291,188.1c0,0-0.7-1.3,0.7-1.3C291.7,186.8,292,187.5,291,188.1z"/>
	<path fill="#50B5AC" d="M286.7,178.7c0,0,1.3,0.2,1.2,1.3C287.8,180,286.5,180.7,286.7,178.7z"/>
	<path fill="#50B5AC" d="M292.2,180.6c0,0-0.2-1.6,1.1-1.2C293.3,179.4,293.7,180.8,292.2,180.6z"/>
	<path fill="#50B5AC" d="M287,184.8c0,0,0.4,1.8,0.5,3.5s0.7,3,2.8,2.6c2.1-0.3,1.3-4,2.5-6.4c0,0-0.9,6.2-0.7,7
		c0.2,0.9-2.9,3.7-2.9,3.7s-2.2-2.2-2.9-4.1C286.6,188.7,287,184.8,287,184.8z"/>
	<path fill="#50B5AC" d="M291.7,175.2c0,0,0.1,0.9-0.9,0.9s-2.1,0.4-2.1,0.4s1.6,0,2.2,0.2S292.4,176.1,291.7,175.2z"/>
	<path fill="#50B5AC" d="M283.9,208.1c0,0,0.4,3.7,1.3,5.2c0.9,1.5,1.1,0.6,1.1,0.6L283.9,208.1z"/>
	<path fill="#50B5AC" d="M337.2,186.1c0,0-2.2-1.3-2.4-3.3c0,0-3,0.5-3.6-2.8c0,0-0.2,4.9,4,8.9C335.1,189,335.9,185.7,337.2,186.1z
		"/>
	<ellipse fill="#50B5AC" cx="336.9" cy="182.3" rx="0.6" ry="1"/>
	<path fill="#50B5AC" d="M340.1,181.3c0,0-0.9-0.2-0.8,0.7c0.1,0.8,0.7,1.3,0.7,1.3l0.4-1.4L340.1,181.3z"/>
	<path fill="#50B5AC" d="M333.5,176.2c0,0-0.2-1-0.9-0.9C331.8,175.4,332.1,177,333.5,176.2z"/>
	<path fill="#50B5AC" d="M338.6,176.2c0,0,0.3-1,1.2-0.5l-0.3,0.9C339.5,176.6,339.1,176.8,338.6,176.2z"/>
	<path fill="#50B5AC" d="M325.1,208.2c0,0,0.4-2,2.4-1.9c2,0.1,3,2.6,2.9,3.6c-0.1,1-0.8,2.4-2,2.7l-0.1,1.7c0,0,0.5,2-0.1,2.7
		s-0.5,1.9-0.5,1.9s0.7,0.2,0.6,1.2c-0.1,1-0.3,2.7-0.3,2.7s-1.2,0.6-2.6,0.2c0,0-0.4,3.2-0.4,4.7c0.1,1.5-1,2.4-1.2,2.4
		c-0.1,0,0.3,5.2,0.3,5.2l1.7-0.2c0,0,1.5-12.8,3.1-14.5c1.6-1.7,3.9-1.3,4.3,0.7s0.9,14.3,0.9,14.3l2.5-0.2c0,0-0.9-1.3-0.9-2.5
		s0.2-4.2,0-5.5c-0.2-1.3-0.9-3.4-0.4-5.2c0.5-1.8,0.7-4.5,0.3-6.1l1-6l1.6-4.3l-3.8,4.8c0,0-3.1-0.3-3.6-0.6c0,0,0-2.9-2.1-3.9
		C326.8,205.1,325.3,206.6,325.1,208.2z"/>
	<path fill="#50B5AC" d="M336.2,224.6c0,0,1.1,0.9,2.1-0.3c0,0-0.1,3-1,3.2C336.4,227.6,336.2,224.6,336.2,224.6z"/>
	<path fill="#50B5AC" d="M322.4,212.5c0,0,1.3,4.6,1.8,5.1l1.3-1.7c0,0,0.1-1.6,0.5-2.2c0,0-0.4,2.2-0.2,2.8c0.3,0.6,0,2.1,0,2.1
		s-1,0.4-1,0.8s-0.4,2.7-0.4,2.7l0.6,0.7l-0.3,2.1c0,0-1.3-3.1-1-5.9C323.7,218.9,322.1,214.1,322.4,212.5z"/>
	<path fill="#50B5AC" d="M378.4,188.6c0,0.1,0.8-0.9,0.7-1.5c-0.1-0.6-1.3-0.7-1.2,0S378.5,188.3,378.4,188.6z"/>
	<path fill="#50B5AC" d="M376.3,178.8c0,0,1.3,0.4,0.9,2.4c0,0-0.4-0.9-0.5-0.9S375.8,180.2,376.3,178.8z"/>
	<path fill="#50B5AC" d="M372,185c0,0,1.4,1.4,2.1,1.8c0.7,0.4,0.4,2.6,0.6,3.2c0.3,0.6,0.4,1.3,0.4,1.3l0.4,1.7c0,0-1.7-2-2-3.3
		C373.3,188.5,371.5,187.6,372,185z"/>
	<path fill="#50B5AC" d="M374.6,211.8c-0.1,0.1-2.4,4.1-4.5,5.1l1.9-0.7c0,0,1.8,0.7,3.8,0.1c0,0-3.4-0.4-1.3-4.5"/>
	<path fill="#50B5AC" d="M362.5,222.7c0,0,0.8-0.2,2.5,0c0,0,0.2,2.4-1.3,2.5C362.3,225.3,362.5,222.7,362.5,222.7z"/>
	<path fill="#50B5AC" d="M365.3,220.8c-0.1-0.2-0.3-5.5,0.5-7.3c0.1-0.2,2-4.6,2-4.6l-0.8,3.6c0,0,1.8,1,2.2,2.2s0.4,2.4,0.4,2.4
		l-2.2,0.8c0,0-0.2,2.1-0.4,3c-0.3,0.9-0.6,2.9-1.9,3.8C365.3,224.8,365.8,222.3,365.3,220.8z"/>
	<path fill="#50B5AC" d="M361.3,211.8c0,0,0,2.9,0.2,4.2c0.3,1.3,1,3.9,0.9,4.6s-0.8,2.1-0.4,3.5s0.5,5.1,0.5,5.1s-1-2.3-1.2-4
		c-0.2-1.7,0.2-4.5-0.1-5.7C361.1,218.3,360.2,213.9,361.3,211.8z"/>
	<path fill="#50B5AC" d="M361,215.8l-5.5,2.3c0,0-1.5-0.1-1.7,0.7c-0.2,0.8,0.3,11,0.4,11.3c0.2,0.3,0.8,1.9,0.8,1.9
		s0.6-4.7,0.8-5.4s1.1-3,0.8-4.9l2.6-1l1.5,1.3l1.3-1.2C362.1,220.8,361.4,217.2,361,215.8z"/>
	<path fill="#50B5AC" d="M353.8,210c-0.1,0.4,0.8,7.4,2.1,8.9l0.5-0.7c0,0-2.2-5-2.7-8.4"/>
	<path fill="#BCF2E2" d="M302.1,134.5c0,0,2,3.7,1.9,6.1c0,0-4.2-0.7-5.4-1.7l0.3,6.1c0,0,3-2.4,5.2-2.2c0,0-0.1,4-1.7,5.7l6.5-0.4
		c0,0-2.2-2.4-2.2-5.6c0,0,4.2,0.6,5.2,1.8l-0.1-6.3c0,0-1.6,1.6-5.2,2.2c0,0-0.4-3.9,1.9-5.9L302.1,134.5z"/>
	<rect x="305.2" y="148.2" fill="#50B5AC" width="1.3" height="46.4"/>
	<g>
		<path fill="#50B5AC" d="M305.3,149.5c-4.5,0-8.1-3.6-8.1-8.1c0-4.5,3.6-8.1,8.1-8.1c4.5,0,8.1,3.6,8.1,8.1
			C313.4,145.8,309.8,149.5,305.3,149.5z M305.3,135.6c-3.2,0-5.8,2.6-5.8,5.8c0,3.2,2.6,5.8,5.8,5.8c3.2,0,5.8-2.6,5.8-5.8
			C311.1,138.2,308.5,135.6,305.3,135.6z"/>
	</g>
	<path fill="#50B5AC" d="M295.6,198.6c0,0,4.1-3.6,13.9-3.9c9.7-0.3,14.4,4.9,14.4,4.9l0.8-0.9c0,0-5.9-5.2-15.5-5.2
		c-9.6,0-13.7,3.9-13.7,3.9L295.6,198.6z"/>
	<path fill="#50B5AC" d="M309.2,193.5c0,0-0.5-1.1,0.8-2.2c0,0-2.1,0.2-1.9,2.6C308.1,193.9,309.2,194.7,309.2,193.5z"/>
	<path fill="#50B5AC" d="M317.4,185l-0.2,7.8l0.8,3.1l0.9-0.4l-0.8-3.1c0,0,0.4-5.7,0.1-8.4C318.2,184.1,317.8,183.5,317.4,185z"/>
	<path fill="#50B5AC" d="M298.9,168.9c0,0-1.6,3.1-1.9,4.3s5,2.6,5,2.6s0.9,5.5,0.9,7.1c0,1.5-0.6,10.2,0.1,12.2h-1.3
		c0,0,0.1-11.1,0.2-11.7s-0.7-7-0.7-7s-5-0.8-5-3C296.1,173.1,298.9,168.9,298.9,168.9z"/>
	<path fill="#50B5AC" d="M307.1,162.6c0,0-1.1,1.5-2.1,2.3v0.7C305,165.6,307.4,164.9,307.1,162.6z"/>
	<path fill="#BCF2E2" d="M304.6,165.4c0,0,1.8-0.7,2.6-1.8c0.8-1.2-0.6-2.6-0.6-2.6s-1.3-0.2-2.1,0.7
		C303.7,162.5,304.6,165.4,304.6,165.4z"/>
	<rect x="238.7" y="235.1" fill="#F7931E" width="147.4" height="13.5"/>
	<rect x="256" y="249.2" fill="#F15A24" width="113.7" height="31.7"/>
	<rect x="27.6" y="337.6" fill="#F7931E" width="53.9" height="266.7"/>
	<rect x="124.6" y="337.6" fill="#F7931E" width="53.9" height="266.7"/>
	<rect x="221.7" y="337.6" fill="#F7931E" width="53.9" height="266.7"/>
	<rect x="536.4" y="337.6" fill="#F7931E" width="53.9" height="266.7"/>
	<rect x="425.6" y="337.6" fill="#F7931E" width="53.9" height="266.7"/>
	<rect x="315.8" y="337.6" fill="#F7931E" width="53.9" height="266.7"/>
	<rect x="16.8" y="307.2" fill="#F15A24" width="583.4" height="6.9"/>
	<rect x="32.5" y="318" fill="#F15A24" width="39.2" height="39.2"/>
	<rect x="83.5" y="318" fill="#F15A24" width="39.2" height="39.2"/>
	<rect x="134.4" y="318" fill="#F15A24" width="39.2" height="39.2"/>
	<rect x="185.4" y="318" fill="#F15A24" width="39.2" height="39.2"/>
	<rect x="236.4" y="318" fill="#F15A24" width="39.2" height="39.2"/>
	<rect x="287.4" y="318" fill="#F15A24" width="39.2" height="39.2"/>
	<rect x="338.4" y="318" fill="#F15A24" width="39.2" height="39.2"/>
	<rect x="389.4" y="318" fill="#F15A24" width="39.2" height="39.2"/>
	<rect x="440.4" y="318" fill="#F15A24" width="39.2" height="39.2"/>
	<rect x="491.3" y="318" fill="#F15A24" width="39.2" height="39.2"/>
	<rect x="542.3" y="318" fill="#F15A24" width="39.2" height="39.2"/>
	<rect x="81.5" y="369" opacity="0.1" width="43.1" height="9.8"/>
	<rect x="27.4" y="271.9" opacity="0.1" width="218.7" height="9.8"/>
	<rect x="27.4" y="281.7" opacity="0.1" width="195.8" height="9.8"/>
	<rect x="27.4" y="291.6" opacity="0.1" width="169.7" height="15.7"/>
	<rect x="379.3" y="271.9" opacity="0.1" width="211.7" height="9.8"/>
	<rect x="404.1" y="281.7" opacity="0.1" width="186.8" height="9.8"/>
	<rect x="429.5" y="291.6" opacity="0.1" width="161.4" height="15.7"/>
	<rect x="478.6" y="369" opacity="0.1" width="57.6" height="9.8"/>
	<rect x="245.7" y="248.6" opacity="0.1" width="133" height="7.2"/>
	<rect x="32.6" y="398.7" opacity="0.1" width="5.2" height="198.1"/>
	<rect x="45.7" y="398.7" opacity="0.1" width="5.2" height="198.1"/>
	<rect x="58.8" y="398.7" opacity="0.1" width="5.2" height="198.1"/>
	<rect x="71.8" y="398.7" opacity="0.1" width="5.2" height="198.1"/>
	<rect x="128.7" y="398.7" opacity="0.1" width="5.2" height="198.1"/>
	<rect x="141.8" y="398.7" opacity="0.1" width="5.2" height="198.1"/>
	<rect x="154.9" y="398.7" opacity="0.1" width="5.2" height="198.1"/>
	<rect x="167.9" y="398.7" opacity="0.1" width="5.2" height="198.1"/>
	<rect x="226.1" y="398.7" opacity="0.1" width="5.2" height="198.1"/>
	<rect x="239.2" y="398.7" opacity="0.1" width="5.2" height="198.1"/>
	<rect x="252.3" y="398.7" opacity="0.1" width="5.2" height="198.1"/>
	<rect x="265.3" y="398.7" opacity="0.1" width="5.2" height="198.1"/>
	<rect x="320.2" y="398.7" opacity="0.1" width="5.2" height="198.1"/>
	<rect x="333.3" y="398.7" opacity="0.1" width="5.2" height="198.1"/>
	<rect x="346.4" y="398.7" opacity="0.1" width="5.2" height="198.1"/>
	<rect x="359.5" y="398.7" opacity="0.1" width="5.2" height="198.1"/>
	<rect x="430.1" y="398.7" opacity="0.1" width="5.2" height="198.1"/>
	<rect x="443.1" y="398.7" opacity="0.1" width="5.2" height="198.1"/>
	<rect x="456.2" y="398.7" opacity="0.1" width="5.2" height="198.1"/>
	<rect x="469.3" y="398.7" opacity="0.1" width="5.2" height="198.1"/>
	<rect x="541.2" y="398.7" opacity="0.1" width="5.2" height="198.1"/>
	<rect x="554.3" y="398.7" opacity="0.1" width="5.2" height="198.1"/>
	<rect x="567.3" y="398.7" opacity="0.1" width="5.2" height="198.1"/>
	<rect x="580.4" y="398.7" opacity="0.1" width="5.2" height="198.1"/>
	<rect x="196.2" y="371" fill="#FFFFFF" width="215.7" height="111.8"/>
	<g>
		<path fill="#5773C6" d="M234.7,389.7c-14.3,0-25.9,11.6-25.9,25.9s11.6,25.9,25.9,25.9s25.9-11.6,25.9-25.9S249,389.7,234.7,389.7
			z M234.7,437.2c-11.9,0-21.6-9.7-21.6-21.6c0-11.9,9.7-21.6,21.6-21.6s21.6,9.7,21.6,21.6C256.3,427.5,246.7,437.2,234.7,437.2z"
			/>
		<path fill="#EDD034" d="M268.3,413.2c-14.3,0-25.9,11.6-25.9,25.9s11.6,25.9,25.9,25.9c14.3,0,25.9-11.6,25.9-25.9
			S282.6,413.2,268.3,413.2z M268.3,460.6c-11.9,0-21.6-9.7-21.6-21.6c0-11.9,9.7-21.6,21.6-21.6s21.6,9.7,21.6,21.6
			C289.9,451,280.2,460.6,268.3,460.6z"/>
		<path fill="#7AC46F" d="M334.9,413.2c-14.3,0-25.9,11.6-25.9,25.9s11.6,25.9,25.9,25.9s25.9-11.6,25.9-25.9
			S349.2,413.2,334.9,413.2z M334.9,460.6c-11.9,0-21.6-9.7-21.6-21.6c0-11.9,9.7-21.6,21.6-21.6s21.6,9.7,21.6,21.6
			C356.5,451,346.8,460.6,334.9,460.6z"/>
		<path fill="#1D1733" d="M302.3,389.7c-14.3,0-25.9,11.6-25.9,25.9s11.6,25.9,25.9,25.9s25.9-11.6,25.9-25.9
			S316.6,389.7,302.3,389.7z M302.3,437.2c-11.9,0-21.6-9.7-21.6-21.6c0-11.9,9.7-21.6,21.6-21.6s21.6,9.7,21.6,21.6
			C323.9,427.5,314.2,437.2,302.3,437.2z"/>
		<path fill="#F21630" d="M367.5,389.7c-14.3,0-25.9,11.6-25.9,25.9s11.6,25.9,25.9,25.9s25.9-11.6,25.9-25.9
			S381.8,389.7,367.5,389.7z M367.5,437.2c-11.9,0-21.6-9.7-21.6-21.6c0-11.9,9.7-21.6,21.6-21.6s21.6,9.7,21.6,21.6
			C389,427.5,379.4,437.2,367.5,437.2z"/>
	</g>
	<rect x="39.2" y="326.1" opacity="0.1" width="24.8" height="24.2"/>
	<rect x="90.8" y="326.1" opacity="0.1" width="24.8" height="24.2"/>
	<rect x="142.4" y="326.1" opacity="0.1" width="24.8" height="24.2"/>
	<rect x="192.8" y="326.1" opacity="0.1" width="24.8" height="24.2"/>
	<rect x="243.8" y="326.1" opacity="0.1" width="24.8" height="24.2"/>
	<rect x="293.4" y="326.1" opacity="0.1" width="24.8" height="24.2"/>
	<rect x="346.4" y="326.1" opacity="0.1" width="24.8" height="24.2"/>
	<rect x="396.7" y="326.1" opacity="0.1" width="24.8" height="24.2"/>
	<rect x="448.4" y="326.1" opacity="0.1" width="24.8" height="24.2"/>
	<rect x="498.7" y="326.1" opacity="0.1" width="24.8" height="24.2"/>
	<rect x="550.3" y="326.1" opacity="0.1" width="24.8" height="24.2"/>
</g>
</svg>
