<?xml version="1.0" encoding="utf-8"?>
<!-- Generator: Adobe Illustrator 18.1.1, SVG Export Plug-In . SVG Version: 6.00 Build 0)  -->
<svg version="1.1" id="Layer_1" xmlns="http://www.w3.org/2000/svg" xmlns:xlink="http://www.w3.org/1999/xlink" x="0px" y="0px"
	 viewBox="0 80 601 667" enable-background="new 0 80 601 667" xml:space="preserve">
<g>
	<defs>
		<path id="SVGID_1_" d="M116,255c-8.6-14.1-20.7-24.5-36.1-30.3c-19.2-7.3-37.7-4.3-54.6,7c-12,8.1-17.9,19.8-16.2,34.6
			c1,8.7,4.6,16.5,9.9,23.4c9.3,12.4,21.2,21,36.8,23.5c16.9,2.7,33.1,0.1,48.9-7.6c1.3-0.8,3.1-1.8,4.8-2.9
			c11.9-7.6,17.1-19.9,13.2-33.1C121.3,264.5,118.8,259.5,116,255z"/>
	</defs>
	<clipPath id="SVGID_2_">
		<use xlink:href="#SVGID_1_"  overflow="visible"/>
	</clipPath>
	<g clip-path="url(#SVGID_2_)">
		
			<rect x="29.3" y="164" transform="matrix(0.8758 0.4828 -0.4828 0.8758 124.7691 16.5589)" fill="#FFFFFF" width="1.9" height="173.3"/>
		
			<rect x="19.2" y="158.5" transform="matrix(0.8758 0.4828 -0.4828 0.8758 120.8514 20.7165)" fill="#FFFFFF" width="1.9" height="173.3"/>
		
			<rect x="38" y="168.8" transform="matrix(0.8758 0.4828 -0.4828 0.8758 128.1971 12.921)" fill="#FFFFFF" width="1.9" height="173.3"/>
		
			<rect x="38" y="168.8" transform="matrix(0.8758 0.4828 -0.4828 0.8758 128.1971 12.921)" fill="#FFFFFF" width="1.9" height="173.3"/>
		
			<rect x="46.8" y="173.7" transform="matrix(0.8758 0.4828 -0.4828 0.8758 131.6251 9.2831)" fill="#FFFFFF" width="1.9" height="173.3"/>
		
			<rect x="55.6" y="178.5" transform="matrix(0.8758 0.4828 -0.4828 0.8758 135.0531 5.6453)" fill="#FFFFFF" width="1.9" height="173.3"/>
		
			<rect x="64.4" y="183.4" transform="matrix(0.8758 0.4828 -0.4828 0.8758 138.4812 2.0074)" fill="#FFFFFF" width="1.9" height="173.3"/>
		
			<rect x="73.2" y="188.2" transform="matrix(0.8758 0.4828 -0.4828 0.8758 141.9092 -1.6305)" fill="#FFFFFF" width="1.9" height="173.3"/>
		
			<rect x="81.9" y="193.1" transform="matrix(0.8758 0.4828 -0.4828 0.8758 145.3372 -5.2684)" fill="#FFFFFF" width="1.9" height="173.3"/>
		
			<rect x="90.7" y="197.9" transform="matrix(0.8758 0.4828 -0.4828 0.8758 148.7652 -8.9062)" fill="#FFFFFF" width="1.9" height="173.3"/>
		
			<rect x="99.5" y="202.7" transform="matrix(0.8758 0.4828 -0.4828 0.8758 152.1932 -12.5441)" fill="#FFFFFF" width="1.9" height="173.3"/>
		
			<rect x="108.3" y="207.6" transform="matrix(0.8758 0.4828 -0.4828 0.8758 155.6212 -16.182)" fill="#FFFFFF" width="1.9" height="173.3"/>
		
			<rect x="55.2" y="143.8" transform="matrix(0.2779 0.9606 -0.9606 0.2779 261.9368 112.4493)" fill="#FFFFFF" width="1.9" height="173.3"/>
		
			<rect x="52" y="132.8" transform="matrix(0.2779 0.9606 -0.9606 0.2779 249.0623 107.5591)" fill="#FFFFFF" width="1.9" height="173.3"/>
		
			<rect x="58" y="153.4" transform="matrix(0.2779 0.9606 -0.9606 0.2779 273.2019 116.7282)" fill="#FFFFFF" width="1.9" height="173.3"/>
		
			<rect x="58" y="153.4" transform="matrix(0.2779 0.9606 -0.9606 0.2779 273.2019 116.7282)" fill="#FFFFFF" width="1.9" height="173.3"/>
		
			<rect x="60.8" y="163" transform="matrix(0.2779 0.9606 -0.9606 0.2779 284.4671 121.0072)" fill="#FFFFFF" width="1.9" height="173.3"/>
		
			<rect x="63.6" y="172.7" transform="matrix(0.2779 0.9606 -0.9606 0.2779 295.7322 125.2861)" fill="#FFFFFF" width="1.9" height="173.3"/>
		
			<rect x="66.4" y="182.3" transform="matrix(0.2779 0.9606 -0.9606 0.2779 306.9973 129.5651)" fill="#FFFFFF" width="1.9" height="173.3"/>
		
			<rect x="69.2" y="191.9" transform="matrix(0.2779 0.9606 -0.9606 0.2779 318.2625 133.844)" fill="#FFFFFF" width="1.9" height="173.3"/>
		
			<rect x="71.9" y="201.6" transform="matrix(0.2779 0.9606 -0.9606 0.2779 329.5276 138.123)" fill="#FFFFFF" width="1.9" height="173.3"/>
		
			<rect x="74.7" y="211.2" transform="matrix(0.2779 0.9606 -0.9606 0.2779 340.7927 142.4019)" fill="#FFFFFF" width="1.9" height="173.3"/>
		
			<rect x="77.5" y="220.8" transform="matrix(0.2779 0.9606 -0.9606 0.2779 352.0579 146.6809)" fill="#FFFFFF" width="1.9" height="173.3"/>
		
			<rect x="80.3" y="230.5" transform="matrix(0.2779 0.9606 -0.9606 0.2779 363.323 150.9598)" fill="#FFFFFF" width="1.9" height="173.3"/>
	</g>
</g>
<path d="M387.8,163c0,0-15.1,13.4-30,12.6c0,0,15.1,7.6,28.3-1C399.4,165.9,387.8,163,387.8,163z"/>
<polygon fill="#E0A984" points="264.7,280.8 236.4,296.1 161.9,272.8 162.6,294 243.3,324.3 343.2,273.7 327.1,237.7 "/>
<polygon fill="#E0A984" points="491.5,302.3 501.1,332.9 558.4,346.2 555.3,366.3 473.2,362.8 446.7,253.1 483.6,242.7 "/>
<path fill="#231F20" d="M483,720.3l-15.4,0.3c0,0-5.4,17,13.3,18h24.4c0,0,5.4-11.5-9.1-12.3C496.2,726.3,484.4,725.1,483,720.3z"/>
<polygon fill="#E0A984" points="361.9,408.1 328.5,593.5 353.1,595.5 411.3,448.4 468,602.8 492.5,603.1 465.7,409.8 "/>
<polygon fill="#E0A984" points="328.5,593.5 353.1,595.5 326.7,713.6 311.7,713.6 "/>
<polygon fill="#E0A984" points="492.5,603.1 468,602.8 467.7,720.6 483,720.3 "/>
<path fill="#FFFFFF" d="M340,221.4c0,0,47.5-28.4,142.6-0.4l-18.4,189.8c0,0-39.1,2.9-102.8-0.4L340,221.4z"/>
<path fill="#E0A984" d="M443.5,113v80.4h-12.2v26.5c0,0-13.7,27-47.3,0v-55c0,0-10.2-2-10.2-13.7c0-11.7,11.7-6.1,11.7-6.1V113
	H443.5z"/>
<path fill="#E0A984" d="M383.9,219.9c0,0,4.5,12.7,31.2,28.9c0,0,18-11,16.2-28.9C431.3,219.9,423.4,234,383.9,219.9z"/>
<path fill="#FFFFFF" d="M370.8,254.2l-47.7,36.2c0,0-39.1-10-28.4-41.2l49.7-29.9L370.8,254.2z"/>
<path fill="#FFFFFF" d="M483.2,220.9l11.2,57.8c0,0-27,27.4-49.5,7.1l-4.7-57.8L483.2,220.9z"/>
<path fill="#231F20" d="M311.7,713.6h15c0,0,5.5,17.4-13.3,18.5h-24.4c0,0-5.4-11.5,9.1-12.3C298.2,719.8,310.4,718.4,311.7,713.6z"
	/>
<path fill="#292846" d="M311.7,713.6h15c0,0,5.5,17.4-13.3,18.5h-24.4c0,0-5.4-11.5,9.1-12.3C298.2,719.8,310.4,718.4,311.7,713.6z"
	/>
<path fill="#292846" d="M483,720.3l-15.4,0.3c0,0-5.4,17,13.3,18h24.4c0,0,5.4-11.5-9.1-12.3C496.2,726.3,484.4,725.1,483,720.3z"/>
<path d="M421.8,167.7c0,0-19.1-1.9-21,14.3c0,0,21.5-13.8,39.2,1C440,182.9,441.9,168.6,421.8,167.7z"/>
<path d="M423.7,110.4c0,0,9.5,24.8-24.8,48.7c0,0,14.3-16.2,12.4-34.4c0,0,0,22.9-28.6,44.9c0,0,10.5-17.2,4.8-32.5l-3.8,52.5
	c0,0-13.4-22.9-13.4-43.9c0,0-6.7,12.4-20.1,5.7c0,0,19.1-10.5,18.1-24.8S392.2,72.2,423.7,110.4z"/>
<path d="M371.2,119.9c0,0,0,10.1-23.9,12.5c0,0,17.2,10.1,26.7,0L371.2,119.9z"/>
<path d="M370.8,142.9c0,0-10.9,16.9-25.5,20.1c0,0,16.6,3.2,27-8.6C382.7,142.7,370.8,142.9,370.8,142.9z"/>
<path d="M420.9,118c0,0,3.8,19.1,23.9,25.8l-1,21c0,0,14.3-22,9.5-45.8c-4.8-23.9-35.3-41.1-66.8-22C386.5,97,393.2,114.2,420.9,118
	z"/>
<path d="M348.3,121.8c0,0,22.9,6.7,42-10.5l1.9-12.4C392.2,98.9,366.4,120.9,348.3,121.8z"/>
<path fill="#E0A984" d="M548.8,362.5c0,0,29.6,23.9,40.1,10.5c10.5-13.4,8.6-37.2-8.6-34.4C563.2,341.5,546,352,546,352L548.8,362.5
	z"/>
<path fill="#FFFFFF" d="M27.7,224.2c24.3-12.7,51.9-9.4,73.9,8.9c8.3,6.9,15.1,15,20.6,24.3c4.6,7.7,9.6,15.2,16.3,21.3
	c1.9,1.8,4.4,3.2,6.9,4c14.1,4.5,28.4,8.8,42.6,13.1c4.2,1.3,5,2.7,3.7,6.9c-1.3,4.3-2.6,8.6-4,12.9c-1,3.1-2.7,4-5.8,3
	c-14-4.3-28.1-8.4-42.1-12.8c-4.4-1.4-8.7-1.8-13-0.4c-7.9,2.5-15.8,5.1-23.4,8.3c-19.7,8.2-39.9,11.4-60.2,3.8
	c-20.7-7.8-34.6-22.7-39.8-44.6c-4.1-17.6,2-32,16-43.2C22.1,227.7,24.9,226,27.7,224.2z M101.9,305.5c1.3-0.8,3-1.7,4.6-2.8
	c11.4-7.3,16.4-19,12.7-31.8c-1.4-4.9-3.8-9.6-6.5-14c-8.3-13.5-19.8-23.5-34.6-29.1c-18.4-7-36.2-4.2-52.3,6.7
	c-11.5,7.8-17.2,19-15.5,33.2c1,8.4,4.4,15.8,9.4,22.5c9,11.9,20.3,20.2,35.3,22.5C71.2,315.4,86.7,313,101.9,305.5z M181,310.1
	c0.8-2.5,1.6-5,2.3-7.2c-12.7-3.9-25.5-7.8-38.2-11.7c-0.7,2.3-1.5,4.9-2.3,7.2C155.6,302.3,168.4,306.2,181,310.1z M122.4,298.4
	c4.2-0.6,8.4-1.1,12.3-1.7c1-3,2-5.9,2.9-8.5c-3.2-3-6.3-5.8-9.3-8.6c-0.6,3.3-1,6.6-2,9.7C125.4,292.4,123.7,295.3,122.4,298.4z"/>
<path fill="#C9D5E9" d="M389.3,238.3l-7.2,12.9c0,0-16.7-21-11-33.4c5.7-12.4,12.9-8.6,12.9-8.6l-0.2,10.7c0,0,14.5,19.8,24.5,24.6
	L389.3,238.3z"/>
<path fill="#C9D5E9" d="M430.9,209.7c0,0,3.3,27.2-14.3,38.2l15.3-9.5l5.3,9.1C437.1,247.4,457.6,208.7,430.9,209.7z"/>
<polygon points="458.2,248.7 455,254.8 458.6,260.2 461.1,253.7 "/>
<polygon points="467.2,252.7 461.1,255.9 460.9,262.3 466.7,258.5 "/>
<polygon points="455.8,262.3 449.6,259.2 449.5,252.7 455.2,256.6 "/>
<path fill="#FFFFFF" d="M368.3,399.7L334,464.7c0,0,25.8,49.7,70.7,32.5l8.6-31.5l6.7,31.5c0,0,49.7,3.8,64-22l-21-77.4L368.3,399.7
	z"/>
<path fill="#FFFFFF" d="M311.7,714l5.8-51.1c0,0,15.9-7.4,20.4,1.5L326.7,714H311.7z"/>
<path fill="#FFFFFF" d="M467.7,720.6l-0.5-52c0,0,9.3-4.8,20.2-0.4l-4.4,52L467.7,720.6z"/>
<path fill="#E0A984" d="M161.9,272.8c0,0-27.8-0.1-22.1,32.1c0,0,18.2,10.3,30.1,6.4c1-0.3,2-0.8,2.9-1.4
	c11.5-7.2,7.9-19.3,7.9-19.3L161.9,272.8z"/>
</svg>
