<?xml version="1.0" encoding="utf-8"?>
<!-- Generator: Adobe Illustrator 18.1.1, SVG Export Plug-In . SVG Version: 6.00 Build 0)  -->
<svg version="1.1" id="Layer_1" xmlns="http://www.w3.org/2000/svg" xmlns:xlink="http://www.w3.org/1999/xlink" x="0px" y="0px"
	 viewBox="0 291 612 215" enable-background="new 0 291 612 215" xml:space="preserve">
<path fill="#586266" d="M113.3,408.1l-0.1-0.8l-0.3-4.6l-0.2,0l-2.7-27.8l-3.2-12.9c1.5-1.2,2.5-2.2,2.5-2.2l-3.8-9.5
	c2.1-2,3.3-3.6,3.3-3.6c-10.7-8-25.6-4.7-25.6-4.7c-0.1,0.1-0.1,0.2-0.3,0.3c0,0,0.1,0,0.1,0V337h3v-2.1l2.2-1.9l3.6-4H86v-1.7
	l4-0.1V318h-4.2l0,0H91c0-24-31.5-19-30.9,0.9c0.4,11,5.9,14.3,8.9,15v8c-4-0.5-15.5-2-24.6,4.9c0,0,1.3,1.7,3.6,3.8l-3.7,9.3
	c0,0,1.4,1.5,3.5,3l-3,12.2L42,402.8l-0.2,0l-0.3,4.6l-0.1,0.8c-0.3,0.6-2.9,5.7-0.6,8.6c2.4,3,9.7,0.4,10.2-1.5
	c0.3-1.5-0.7-4.5-1.2-5.9l0.6-5.1l-0.1,0l3.1-29.5c0,0,2.1-4.3,4-8.9c0.5-0.1,1-0.3,1.4-0.5l3.9,34c0,0,0.1-0.4,0.1-0.4L62.5,413
	h-0.2c-1.2,0-2.3,1.7-2.3,2.9v14.8c0,1.1,0.9,2,1.9,2.1l-0.3,10.7L60.9,471H61v17.9c-2,0.9-3.7,1.4-3.7,1.4
	c-4.1,0.2-2.9,3.7-2.9,3.7h7c3.8,0,4.1-2,3.9-3h0l3.2-20h-0.4l4.6-27.5l5.6-33.7l3,33.7l2.4,27.6l-0.4,0l2,18.2
	c-0.2,1.5,0,4.7,3.9,4.7h7c0,0,1.5-3.4-2.6-3.7c0,0-2.2-0.5-3.4-1.3l0.5-18h-0.2l0.7-27.5l0.3-10.5h1.4c1.2,0,1.8-1.1,1.8-2.3v-14.8
	c0-1.2-0.6-2.9-1.8-2.9h-0.9l0.4-14.1l-0.4,0.2l3.2-33.6c0.6,0.2,1.3,0.4,1.9,0.4c1.8,4.6,3.9,8.8,3.9,8.8l3.1,29.5l-0.1,0l0.6,5.1
	c-0.5,1.4-1.5,4.5-1.2,5.9c0.4,1.9,7.8,4.6,10.2,1.5C116.1,413.9,113.6,408.7,113.3,408.1z"/>
<path fill="#586266" d="M277.2,408.1l-0.1-0.8l-0.3-4.6l-0.2,0l-2.7-27.8l-3.2-12.9c1.5-1.2,2.5-2.2,2.5-2.2l-3.8-9.5
	c2.1-2,3.3-3.6,3.3-3.6c-10.7-8-25.6-4.7-25.6-4.7c-0.1,0.1-0.1,0.2-0.2,0.3c0,0,0.1,0,0.1,0V337h3v-2.1l2.2-1.9l3.6-4H250v-1.7
	l3-0.1V318h-3l0,0h4.9c0-24-31.4-19-30.8,0.9c0.4,11,6.9,14.3,8.9,15v8c-3-0.5-15.5-2-24.7,4.9c0,0,1.3,1.7,3.6,3.8l-3.7,9.3
	c0,0,1.4,1.5,3.5,3l-3,12.2l-2.7,27.8l-0.2,0l-0.3,4.6l-0.1,0.8c-0.3,0.6-2.9,5.7-0.6,8.6c2.4,3,9.7,0.4,10.2-1.5
	c0.3-1.5-0.7-4.5-1.2-5.9l0.6-5.1l-0.1,0l3.1-29.5c0,0,2.1-4.3,4-8.9c0.5-0.1,1-0.3,1.4-0.5l3.9,34c0,0,0.1-0.4,0.1-0.4l-0.4,14.1
	h-0.2c-1.2,0-2.2,1.7-2.2,2.9v14.8c0,1.1,0.8,2,1.8,2.1l-0.3,10.7l-0.8,27.5H224v17.9c-1,0.9-3.3,1.4-3.3,1.4
	c-4.1,0.2-2.4,3.7-2.4,3.7h7c3.8,0,4.1-2,3.9-3h0l3.2-20h-0.4l4.6-27.5l5.6-33.7l3,33.7l2.4,27.6l-0.4,0l2,18.2
	c-0.2,1.5,0,4.7,3.9,4.7h7c0,0,1.5-3.4-2.6-3.7c0,0-2.2-0.5-3.4-1.3l0.5-18h-0.2l0.7-27.5l0.3-10.5h1.4c1.2,0,1.9-1.1,1.9-2.3v-14.8
	c0-1.2-0.7-2.9-1.9-2.9h-0.9l0.4-14.1l-0.4,0.2l3.2-33.6c0.6,0.2,1.3,0.4,1.9,0.4c1.8,4.6,3.9,8.8,3.9,8.8l3.1,29.5l-0.1,0l0.6,5.1
	c-0.5,1.4-1.5,4.5-1.2,5.9c0.4,1.9,7.8,4.6,10.2,1.5C280,413.9,277.5,408.7,277.2,408.1z"/>
<path fill="#586266" d="M335.7,406.5l0.1-0.8l0.3-4.6l0.2,0l2.7-27.8l3.2-12.9c-1.5-1.2-2.5-2.2-2.5-2.2l3.8-9.5
	c-2.1-2-3.3-3.6-3.3-3.6c10.7-8,25.6-4.7,25.6-4.7c0.1,0.1-0.3,0.2-0.2,0.3c0,0-0.5,0-0.5,0V336h-2v-2.7l-2.2-2.1l-3.6-4.2h5.9v-1.4
	l-3-0.1V316h3.5l0,0H358c0-23,32-18.8,31.4,1.1c-0.4,11-7.3,14.4-8.3,15.2v8c3-0.5,15-2,24.1,4.9c0,0-1.6,1.7-3.8,3.8l3.6,9.3
	c0,0-1.4,1.5-3.5,3l3,12.2l2.7,27.8l0.2,0l0.3,4.6l0.1,0.8c0.3,0.6,2.9,5.7,0.6,8.6c-2.4,3-9.8,0.4-10.2-1.5
	c-0.3-1.5,0.7-4.5,1.2-5.9l-0.6-5.1l0.1,0l-3.1-29.5c0,0-2.1-4.3-4-8.9c-0.5-0.1-1-0.3-1.4-0.5l-3.9,34c0,0-0.1,0-0.1,0l0.4,14.4
	h0.2c1.2,0,3.4,1.1,3.4,2.3V429c0,1.1-1.4,2-2.4,2.1l0,11l0.5,27.9h0.9v17.3c1,0.9,3.2,1.2,3.2,1.2c4.1,0.2,2.3,3.5,2.3,3.5h-7
	c-3.8,0-4.1-1-3.9-5h0l-3.2-17h0.4l-4.6-27.9l-5.6-33.8l-3,33.9l-2.4,27.8h0.4l-2,17.8c0.2,1.5,0,4.2-3.9,4.2h-7
	c0,0-1.5-3.2,2.6-3.5c0,0,2.2-0.1,3.4-0.9L358,470h0.2l-0.7-27.5l-0.3-10.5h-1.4c-1.2,0-1.8-1.8-1.8-3v-14.8c0-1.2,0.6-2.3,1.8-2.3
	h0.9l-0.4-14.4l0.4,0l-3.2-33.7c-0.6,0.2-1.3,0.3-1.9,0.4c-1.8,4.6-3.9,8.8-3.9,8.8l-3.1,29.5l0.1,0l-0.6,5.1
	c0.5,1.4,1.5,4.5,1.2,5.9c-0.4,1.9-7.8,4.5-10.2,1.5C332.8,412.2,335.4,407.1,335.7,406.5z"/>
<path fill="#586266" d="M432.4,406.5l0.1-0.8l0.3-4.6l0.2,0l2.7-27.8l3.2-12.9c-1.5-1.2-2.5-2.2-2.5-2.2l3.8-9.5
	c-2.1-2-3.3-3.6-3.3-3.6c10.7-8,25.6-4.7,25.6-4.7c0.1,0.1,0.8,0.2,0.9,0.3c0,0,0.6,0,0.6,0V336h-5v-2.7l-1.9-2.1l-3.3-4.2h5.2v-1.4
	l-2-0.1V316h2.3l0,0h-4.6c0-23,31.7-18.8,31,1.1c-0.4,11-7.7,14.4-8.7,15.2v8c3-0.5,15.3-2,24.5,4.9c0,0-1.4,1.7-3.7,3.8l3.7,9.3
	c0,0-1.4,1.5-3.5,3l3,12.2l2.7,27.8l0.2,0l0.3,4.6l0.1,0.8c0.3,0.6,2.9,5.7,0.6,8.6c-2.4,3-9.7,0.4-10.2-1.5
	c-0.3-1.5,0.7-4.5,1.2-5.9l-0.6-5.1l0.1,0l-3.1-29.5c0,0-2.1-4.3-4-8.9c-0.5-0.1-1-0.3-1.4-0.5l-3.9,34c0,0-0.1,0-0.1,0l0.4,14.4
	h0.2c1.2,0,3.6,1.1,3.6,2.3V429c0,1.1-1.5,2-2.6,2.1l-0.1,11l0.4,27.9h1.2v17.3c1,0.9,3,1.2,3,1.2c4.1,0.2,2.2,3.5,2.2,3.5h-7
	c-3.8,0-4.1-1-3.9-5h0l-3.2-17h0.4l-4.6-27.9l-5.6-33.8l-3,33.9l-2.4,27.8h0.4l-2,17.8c0.2,1.5,0,4.2-3.9,4.2h-7
	c0,0-1.5-3.2,2.6-3.5c0,0,2.2-0.1,3.4-0.9l-0.5-17.6h0.2l-0.7-27.5l-0.3-10.5h-1.4c-1.2,0-1.5-1.8-1.5-3v-14.8
	c0-1.2,0.3-2.3,1.5-2.3h0.9l-0.4-14.4l0.4,0l-3.2-33.7c-0.6,0.2-1.3,0.3-1.9,0.4c-1.8,4.6-3.9,8.8-3.9,8.8l-3.1,29.5l0.1,0l-0.6,5.1
	c0.5,1.4,1.5,4.5,1.2,5.9c-0.4,1.9-7.8,4.5-10.2,1.5C429.5,412.2,432.1,407.1,432.4,406.5z"/>
<path fill="#586266" d="M493,406.5l0.1-0.8l0.3-4.6l0.2,0l2.7-27.8l3.2-12.9c-1.5-1.2-2.5-2.2-2.5-2.2l3.8-9.5
	c-2.1-2-3.3-3.6-3.3-3.6c10.7-8,25.6-4.7,25.6-4.7c0.1,0.1,0,0.2,0.1,0.3c0,0-0.2,0-0.2,0V336h-3v-2.7l-2-2.1l-3.5-4.2h5.5v-1.4
	l-4-0.1V316h4.8l0,0h-5.5c0-23,31.3-18.8,30.7,1.1c-0.4,11-7,14.4-9,15.2v8c5-0.5,15.6-2,24.8,4.9c0,0-1.2,1.7-3.5,3.8l3.7,9.3
	c0,0-1.4,1.5-3.4,3l3,12.2l2.7,27.8l0.2,0l0.3,4.6l0.1,0.8c0.3,0.6,2.9,5.7,0.6,8.6c-2.4,3-9.7,0.4-10.2-1.5
	c-0.3-1.5,0.7-4.5,1.2-5.9l-0.6-5.1l0.1,0l-3.1-29.5c0,0-2.1-4.3-4-8.9c-0.5-0.1-1-0.3-1.4-0.5l-3.9,34c0,0-0.1,0-0.1,0l0.4,14.4
	h0.2c1.2,0,3,1.1,3,2.3V429c0,1.1-1.2,2-2.2,2.1l0.1,11l0.6,27.9h0.6v17.3c1,0.9,3.4,1.2,3.4,1.2c4.1,0.2,2.5,3.5,2.5,3.5h-7
	c-3.8,0-4.1-1-3.9-5h0l-3.2-17h0.4l-4.6-27.9l-5.6-33.8l-3,33.9l-2.4,27.8h0.4l-2,17.8c0.2,1.5,0,4.2-3.9,4.2h-7
	c0,0-1.5-3.2,2.6-3.5c0,0,2.2-0.1,3.4-0.9l-0.5-17.6h0.2l-0.7-27.5l-0.3-10.5h-1.4c-1.2,0-2.1-1.8-2.1-3v-14.8
	c0-1.2,0.9-2.3,2.1-2.3h0.9l-0.4-14.4l0.4,0l-3.2-33.7c-0.6,0.2-1.3,0.3-1.9,0.4c-1.8,4.6-3.9,8.8-3.9,8.8l-3.1,29.5l0.1,0l-0.6,5.1
	c0.5,1.4,1.5,4.5,1.2,5.9c-0.4,1.9-7.8,4.5-10.2,1.5C490.2,412.2,492.7,407.1,493,406.5z"/>
<path fill="#586266" d="M180.5,406.5l-0.1-0.8l-0.3-4.6l-0.2,0l-2.7-27.8l-3.2-12.9c1.5-1.2,2.5-2.2,2.5-2.2l-3.8-9.5
	c2.1-2,3.3-3.6,3.3-3.6c-10.7-8-25.6-4.7-25.6-4.7c-0.1,0.1-0.2,0.2-0.4,0.3c0,0,0,0,0,0V336h2v-2.7l2.8-2.1l4.2-4.2h-7v-1.4l5-0.1
	V316h-4.1l0,0h5.3c0-23-31.1-18.8-30.5,1.1c0.4,11,8.3,14.4,9.3,15.2v8c-4-0.5-15.9-2-25,4.9c0,0,1.1,1.7,3.4,3.8l-3.8,9.3
	c0,0,1.3,1.5,3.4,3l-3.1,12.2l-2.7,27.8l-0.2,0l-0.3,4.6l-0.1,0.8c-0.3,0.6-2.9,5.7-0.6,8.6c2.4,3,9.7,0.4,10.2-1.5
	c0.3-1.5-0.7-4.5-1.2-5.9l0.6-5.1l-0.1,0l3.1-29.5c0,0,2.1-4.3,4-8.9c0.5-0.1,1-0.3,1.4-0.5l3.9,34c0,0,0.1,0,0.1,0l-0.4,14.4h-0.2
	c-1.2,0-2.5,1.1-2.5,2.3V429c0,1.1,1,2,2,2.1l-0.2,11l-0.7,27.9H128v17.3c-1,0.9-3.6,1.2-3.6,1.2c-4.1,0.2-2.8,3.5-2.8,3.5h7
	c3.8,0,4.1-1,3.9-5h0l3.2-17h-0.4l4.6-27.9l5.6-33.8l3,33.9l2.4,27.8h-0.4l2,17.8c-0.2,1.5,0,4.2,3.9,4.2h7c0,0,1.5-3.2-2.6-3.5
	c0,0-2.2-0.1-3.4-0.9l0.5-17.6H158l0.7-27.5L159,432h1.4c1.2,0,1.6-1.8,1.6-3v-14.8c0-1.2-0.4-2.3-1.6-2.3h-0.9l0.4-14.4l-0.4,0
	l3.2-33.7c0.6,0.2,1.3,0.3,1.9,0.4c1.8,4.6,3.9,8.8,3.9,8.8l3.1,29.5l-0.1,0l0.6,5.1c-0.5,1.4-1.5,4.5-1.2,5.9
	c0.4,1.9,7.8,4.5,10.2,1.5C183.3,412.2,180.8,407.1,180.5,406.5z"/>
<path fill="#7C8284" d="M142.8,408.9l-0.1-0.8l-0.3-4.6l-0.2,0l-2.7-27.8l-3.2-12.9c1.5-1.2,2.5-2.2,2.5-2.2l-3.8-9.5
	c2.1-2,3.3-3.6,3.3-3.6c-10.7-8-25.6-4.7-25.6-4.7c-0.1,0.1-0.4,0.2-0.5,0.3c0,0-0.2,0-0.2,0V338h4v-2.3l1.9-2.3l3.4-4.4H116v-0.9
	l3-0.1V319h-3v-1h4.5c0-22-31.2-18.6-30.6,1.3c0.4,11,7.1,14.7,9.1,15.4v8c-4-0.5-15.7-2-24.9,4.9c0,0,1.2,1.7,3.5,3.8l-3.8,9.3
	c0,0,1.3,1.5,3.4,3l-3,12.2l-2.7,27.8l-0.2,0l-0.3,4.6l-0.1,0.8c-0.3,0.6-2.9,5.7-0.6,8.6c2.4,3,9.7,0.4,10.2-1.5
	c0.3-1.5-0.7-4.5-1.2-5.9l0.6-5.1l-0.1,0l3.1-29.5c0,0,2.1-4.3,4-8.9c0.5-0.1,1-0.3,1.4-0.5l3.9,34c0,0,0.1,0.2,0.1,0.2L92,415h-0.2
	c-1.2,0-1.8,0.5-1.8,1.7v14.8c0,1.1,0.6,2,1.6,2.1l-0.4,10.7L90.4,472H90v17.7c-1,0.9-3.5,1-3.5,1c-4.1,0.2-2.6,3.2-2.6,3.2h7
	c3.8,0,4.1-2,3.9-3h0l3.2-19h-0.4l4.6-27.6l5.6-33.7l3,33.7l2.4,27.6l-0.4,0l2,17.8c-0.2,1.5,0,4.3,3.9,4.3h7c0,0,1.5-3-2.6-3.2
	c0,0-2.2-0.2-3.4-1l0.5-17.7h-0.2l0.7-27.5l0.3-10.5h1.4c1.2,0,0.3-1.3,0.3-2.5v-14.8c0-1.2,0.9-1.7-0.3-1.7h-0.9l0.4-14.7l-0.4-0.1
	l3.2-33.8c0.6,0.2,1.3,0.3,1.9,0.3c1.8,4.6,3.9,8.8,3.9,8.8l3.1,29.5l-0.1,0l0.6,5.1c-0.5,1.4-1.5,4.5-1.2,5.9
	c0.4,1.9,7.8,4.5,10.2,1.5C145.6,414.7,143.1,409.5,142.8,408.9z"/>
<path fill="#7C8284" d="M301.8,408.9l-0.1-0.8l-0.3-4.6l-0.2,0l-2.7-27.8l-3.2-12.9c1.5-1.2,2.5-2.2,2.5-2.2l-3.8-9.5
	c2.1-2,3.3-3.6,3.3-3.6c-10.7-8-25.6-4.7-25.6-4.7c-0.1,0.1,0.1,0.2,0,0.3c0,0,0.3,0,0.3,0V338h2v-2.3l2.4-2.3l3.9-4.4H274v-0.9
	l3-0.1V319h-3v-1h5.5c0-22-31.7-18.6-31.1,1.3c0.4,11,6.6,14.7,8.6,15.4v8c-3-0.5-15.2-2-24.4,4.9c0,0,1.4,1.7,3.7,3.8l-3.6,9.3
	c0,0,1.4,1.5,3.5,3l-3,12.2l-2.7,27.8l-0.2,0l-0.3,4.6l-0.1,0.8c-0.3,0.6-2.9,5.7-0.6,8.6c2.4,3,9.8,0.4,10.2-1.5
	c0.3-1.5-0.7-4.5-1.2-5.9l0.6-5.1l-0.1,0l3.1-29.5c0,0,2.1-4.3,4-8.9c0.5-0.1,1-0.3,1.4-0.5l3.9,34c0,0,0.1,0.2,0.1,0.2L251,415
	h-0.2c-1.2,0-2.8,0.5-2.8,1.7v14.8c0,1.1,1.1,2,2.1,2.1l-0.2,10.7l-0.6,27.6H248v17.7c-1,0.9-3,1-3,1c-4.1,0.2-2.1,3.2-2.1,3.2h7
	c3.8,0,4.1-2,3.9-3h0l3.2-19h-0.4l4.6-27.6l5.6-33.7l3,33.7l2.4,27.6l-0.4,0l2,17.8c-0.2,1.5,0,4.3,3.9,4.3h7c0,0,1.5-3-2.6-3.2
	c0,0-2.2-0.2-3.4-1l0.5-17.7h-0.2l0.7-27.5l0.3-10.5h1.4c1.2,0,3.3-1.3,3.3-2.5v-14.8c0-1.2-2.1-1.7-3.3-1.7h-0.9l0.4-14.7l-0.4-0.1
	l3.2-33.8c0.6,0.2,1.3,0.3,1.9,0.3c1.8,4.6,3.9,8.8,3.9,8.8l3.1,29.5l-0.1,0l0.6,5.1c-0.5,1.4-1.5,4.5-1.2,5.9
	c0.4,1.9,7.8,4.5,10.2,1.5C304.6,414.7,302.1,409.5,301.8,408.9z"/>
<path fill="#7C8284" d="M466.8,408.9l0.1-0.8l0.3-4.6l0.2,0l2.7-27.8l3.2-12.9c-1.5-1.2-2.5-2.2-2.5-2.2l3.8-9.5
	c-2.1-2-3.3-3.6-3.3-3.6c10.7-8,25.6-4.7,25.6-4.7c0.1,0.1,0.6,0.2,0.7,0.3c0,0,0.4,0,0.4,0V338h-3v-2.3l-2.7-2.3l-4.1-4.4h6.7v-0.9
	l-4-0.1V319h4v-1h-5.9c0-22,31.5-18.6,30.8,1.3c-0.4,11-6.9,14.7-8.9,15.4v8c4-0.5,15.5-2,24.7,4.9c0,0-1.3,1.7-3.6,3.8l3.7,9.3
	c0,0-1.4,1.5-3.5,3l3,12.2l2.7,27.8l0.2,0l0.3,4.6l0.1,0.8c0.3,0.6,2.9,5.7,0.6,8.6c-2.4,3-9.7,0.4-10.2-1.5
	c-0.3-1.5,0.7-4.5,1.2-5.9l-0.6-5.1l0.1,0l-3.1-29.5c0,0-2.1-4.3-4-8.9c-0.5-0.1-1-0.3-1.4-0.5l-3.9,34c0,0-0.1,0.2-0.1,0.2
	l0.4,14.7h0.2c1.2,0,2.2,0.5,2.2,1.7v14.8c0,1.1-0.8,2-1.9,2.1l0.3,10.7l0.8,27.6H519v17.7c1,0.9,3.7,1,3.7,1
	c4.1,0.2,2.9,3.2,2.9,3.2h-7c-3.8,0-4.1-2-3.9-3h0l-3.2-19h0.4l-4.6-27.6l-5.6-33.7l-3,33.7l-2.4,27.6l0.4,0l-2,17.8
	c0.2,1.5,0,4.3-3.9,4.3h-7c0,0-1.5-3,2.6-3.2c0,0,2.2-0.2,3.4-1l-0.5-17.7h0.2l-0.7-27.5l-0.3-10.5h-1.4c-1.2,0-0.9-1.3-0.9-2.5
	v-14.8c0-1.2-0.3-1.7,0.9-1.7h0.9l-0.4-14.7l0.4-0.1l-3.2-33.8c-0.6,0.2-1.3,0.3-1.9,0.3c-1.8,4.6-3.9,8.8-3.9,8.8l-3.1,29.5l0.1,0
	l-0.6,5.1c0.5,1.4,1.5,4.5,1.2,5.9c-0.4,1.9-7.8,4.5-10.2,1.5C463.9,414.7,466.5,409.5,466.8,408.9z"/>
<path fill="#7C8284" d="M367.6,408.1l0.1-0.8l0.3-4.6l0.2,0l2.7-27.8l3.2-12.9c-1.5-1.2-2.5-2.2-2.5-2.2l3.8-9.5
	c-2.1-2-3.3-3.6-3.3-3.6c10.7-8,25.6-4.7,25.6-4.7c0.1,0.1,0.2,0.2,0.3,0.3c0,0,0,0,0,0V337h-3v-2.1l-2.2-1.9l-3.7-4h5.9v-1.7
	l-3-0.1V318h3l0,0h-5.1c0-22,31.5-19,30.9,0.9c-0.4,11-7.8,14.3-8.8,15v8c4-0.5,15.5-2,24.6,4.9c0,0-1.3,1.7-3.6,3.8l3.7,9.3
	c0,0-1.4,1.5-3.5,3l3,12.2l2.7,27.8l0.2,0l0.3,4.6l0.1,0.8c0.3,0.6,2.9,5.7,0.6,8.6c-2.4,3-9.7,0.4-10.2-1.5
	c-0.3-1.5,0.7-4.5,1.2-5.9l-0.6-5.1l0.1,0l-3.1-29.5c0,0-2.1-4.3-4-8.9c-0.5-0.1-1-0.3-1.4-0.5l-3.9,34c0,0-0.1-0.4-0.1-0.4
	l0.4,14.1h0.2c1.2,0,1.4,1.7,1.4,2.9v14.8c0,1.1-0.4,2-1.4,2.1l0.5,10.7l1,27.5H420v17.9c2,0.9,3.7,1.4,3.7,1.4
	c4.1,0.2,2.8,3.7,2.8,3.7h-7c-3.8,0-4.1-2-3.9-3h0l-3.2-20h0.4l-4.6-27.5l-5.6-33.7l-3,33.7l-2.4,27.6l0.4,0l-2,18.2
	c0.2,1.5,0,4.7-3.9,4.7h-7c0,0-1.5-3.4,2.6-3.7c0,0,2.2-0.5,3.4-1.3l-0.5-18h0.2l-0.7-27.5l-0.3-10.5h-1.4c-1.2,0-2.7-1.1-2.7-2.3
	v-14.8c0-1.2,1.5-2.9,2.7-2.9h0.9l-0.4-14.1l0.4,0.2l-3.2-33.6c-0.6,0.2-1.3,0.4-1.9,0.4c-1.8,4.6-3.9,8.8-3.9,8.8l-3.1,29.5l0.1,0
	l-0.6,5.1c0.5,1.4,1.5,4.5,1.2,5.9c-0.4,1.9-7.8,4.6-10.2,1.5C364.8,413.9,367.3,408.7,367.6,408.1z"/>
<path fill="#7C8284" d="M251.8,408.1l-0.1-0.8l-0.3-4.6l-0.2,0l-2.7-27.8l-3.2-12.9c1.5-1.2,2.5-2.2,2.5-2.2l-3.8-9.5
	c2.1-2,3.3-3.6,3.3-3.6c-10.7-8-25.6-4.7-25.6-4.7c-0.1,0.1-0.9,0.2-1,0.3c0,0-0.7,0-0.7,0V337h4v-2.1l2.4-1.9l3.9-4H224v-1.7l3-0.1
	V318h-3l0,0h5.5c0-24-31.7-19-31.1,0.9c0.4,11,7.6,14.3,8.6,15v8c-3-0.5-15.2-2-24.4,4.9c0,0,1.4,1.7,3.7,3.8l-3.6,9.3
	c0,0,1.4,1.5,3.5,3l-3,12.2l-2.7,27.8l-0.2,0l-0.3,4.6l-0.1,0.8c-0.3,0.6-2.9,5.7-0.6,8.6c2.4,3,9.8,0.4,10.2-1.5
	c0.3-1.5-0.7-4.5-1.2-5.9l0.6-5.1l-0.1,0l3.1-29.5c0,0,2.1-4.3,4-8.9c0.5-0.1,1-0.3,1.4-0.5l3.9,34c0,0,0.1-0.4,0.1-0.4L201,413
	h-0.2c-1.2,0-2.8,1.7-2.8,2.9v14.8c0,1.1,1.1,2,2.1,2.1l-0.1,10.7l-0.6,27.5H199v17.9c-1,0.9-3.5,1.4-3.5,1.4
	c-4.1,0.2-2.6,3.7-2.6,3.7h7c3.8,0,4.1-2,3.9-3h0l3.2-20h-0.4l4.6-27.5l5.6-33.7l3,33.7l2.4,27.6l-0.4,0l2,18.2
	c-0.2,1.5,0,4.7,3.9,4.7h7c0,0,1.5-3.4-2.6-3.7c0,0-2.2-0.5-3.4-1.3l0.5-18h-0.2l0.7-27.5l0.3-10.5h1.4c1.2,0,2.3-1.1,2.3-2.3v-14.8
	c0-1.2-1.1-2.9-2.3-2.9h-0.9l0.4-14.1l-0.4,0.2l3.2-33.6c0.6,0.2,1.3,0.4,1.9,0.4c1.8,4.6,3.9,8.8,3.9,8.8l3.1,29.5l-0.1,0l0.6,5.1
	c-0.5,1.4-1.5,4.5-1.2,5.9c0.4,1.9,7.8,4.6,10.2,1.5C254.6,413.9,252.1,408.7,251.8,408.1z"/>
<path fill="#7F8E8E" d="M78,408.1l-0.1-0.8l-0.3-4.6l-0.2,0l-2.7-27.8l-3.2-12.9c1.5-1.2,2.5-2.2,2.5-2.2l-3.8-9.5
	c2.1-2,3.3-3.6,3.3-3.6c-10.7-8-25.6-4.7-25.6-4.7c-0.1,0.1-0.5,0.2-0.6,0.3c0,0-0.3,0-0.3,0V337h4v-2.1l2.1-1.9l3.5-4H51v-1.7
	l3-0.1V318h-3.7l0,0h5.5c0-24-31.4-19-30.7,0.9c0.4,11,8,14.3,9,15v8c-3-0.5-15.6-2-24.7,4.9c0,0,1.3,1.7,3.5,3.8L9,359.9
	c0,0,1.4,1.5,3.4,3l-3,12.2l-2.7,27.8l-0.2,0l-0.3,4.6l-0.1,0.8c-0.3,0.6-2.9,5.7-0.6,8.6c2.4,3,9.7,0.4,10.2-1.5
	c0.3-1.5-0.7-4.5-1.2-5.9l0.6-5.1l-0.1,0l3.1-29.5c0,0,2.1-4.3,4-8.9c0.5-0.1,1-0.3,1.4-0.5l3.9,34c0,0,0.1-0.4,0.1-0.4L27.3,413
	h-0.2c-1.2,0-3.1,1.7-3.1,2.9v14.8c0,1.1,1.2,2,2.3,2.1l-0.1,10.7L25.6,471H25v17.9c-1,0.9-3.3,1.4-3.3,1.4
	c-4.1,0.2-2.5,3.7-2.5,3.7h7c3.8,0,4.1-2,3.9-3h0l3.2-20H33l4.6-27.5l5.6-33.7l3,33.7l2.4,27.6l-0.4,0l2,18.2
	c-0.2,1.5,0,4.7,3.9,4.7h7c0,0,1.5-3.4-2.6-3.7c0,0-2.2-0.5-3.4-1.3l0.5-18h-0.2l0.7-27.5l0.3-10.5h1.4c1.2,0,2.1-1.1,2.1-2.3v-14.8
	c0-1.2-0.9-2.9-2.1-2.9H57l0.4-14.1l-0.4,0.2l3.2-33.6c0.6,0.2,1.3,0.4,1.9,0.4c1.8,4.6,3.9,8.8,3.9,8.8l3.1,29.5l-0.1,0l0.6,5.1
	c-0.5,1.4-1.5,4.5-1.2,5.9c0.4,1.9,7.8,4.6,10.2,1.5C80.9,413.9,78.3,408.7,78,408.1z"/>
<path fill="#7F8E8E" d="M220.6,408.1l-0.1-0.8l-0.3-4.6l-0.2,0l-2.7-27.8l-3.2-12.9c1.5-1.2,2.5-2.2,2.5-2.2l-3.8-9.5
	c2.1-2,3.3-3.6,3.3-3.6c-10.7-8-25.6-4.7-25.6-4.7c-0.1,0.1-0.3,0.2-0.4,0.3c0,0-0.1,0-0.1,0V337h5v-2.1l1.4-1.9l2.8-4H195v-1.7
	l2-0.1V318h-3.1l0,0h4.5c0-24-31.7-19-31,0.9c0.4,11,7.7,14.3,8.7,15v8c-4-0.5-15.3-2-24.4,4.9c0,0,1.4,1.7,3.7,3.8l-3.7,9.3
	c0,0,1.4,1.5,3.5,3l-3,12.2l-2.7,27.8l-0.2,0l-0.3,4.6l-0.1,0.8c-0.3,0.6-2.9,5.7-0.6,8.6c2.4,3,9.7,0.4,10.2-1.5
	c0.3-1.5-0.7-4.5-1.2-5.9l0.6-5.1l-0.1,0l3.1-29.5c0,0,2.1-4.3,4-8.9c0.5-0.1,1-0.3,1.4-0.5l3.9,34c0,0,0.1-0.4,0.1-0.4l-0.4,14.1
	h-0.2c-1.2,0-2.7,1.7-2.7,2.9v14.8c0,1.1,1,2,2.1,2.1l-0.2,10.7l-0.7,27.5H168v17.9c-1,0.9-3.5,1.4-3.5,1.4
	c-4.1,0.2-2.7,3.7-2.7,3.7h7c3.8,0,4.1-2,3.9-3h0l3.2-20h-0.4l4.6-27.5l5.6-33.7l3,33.7l2.4,27.6l-0.4,0l2,18.2
	c-0.2,1.5,0,4.7,3.9,4.7h7c0,0,1.5-3.4-2.6-3.7c0,0-2.2-0.5-3.4-1.3l0.5-18h-0.2l0.7-27.5l0.3-10.5h1.4c1.2,0,1.5-1.1,1.5-2.3v-14.8
	c0-1.2-0.2-2.9-1.5-2.9h-0.9l0.4-14.1l-0.4,0.2l3.2-33.6c0.6,0.2,1.3,0.4,1.9,0.4c1.8,4.6,3.9,8.8,3.9,8.8l3.1,29.5l-0.1,0l0.6,5.1
	c-0.5,1.4-1.5,4.5-1.2,5.9c0.4,1.9,7.8,4.6,10.2,1.5C223.5,413.9,220.9,408.7,220.6,408.1z"/>
<path fill="#7F8E8E" d="M529.9,408.1l0.1-0.8l0.3-4.6l0.2,0l2.7-27.8l3.2-12.9c-1.5-1.2-2.5-2.2-2.5-2.2l3.8-9.5
	c-2.1-2-3.3-3.6-3.3-3.6c10.7-8,25.6-4.7,25.6-4.7c0.1,0.1,0.5,0.2,0.7,0.3c0,0,0.3,0,0.3,0V337h-4v-2.1l-2.1-1.9l-3.5-4h5.6v-1.7
	l-3-0.1V318h3.8l0,0h-5.6c0-22,31.4-19,30.8,0.9c-0.4,11-7.9,14.3-8.9,15v8c3-0.5,15.6-2,24.7,4.9c0,0-1.3,1.7-3.5,3.8l3.7,9.3
	c0,0-1.4,1.5-3.4,3l3,12.2l2.7,27.8l0.2,0l0.3,4.6l0.1,0.8c0.3,0.6,2.9,5.7,0.6,8.6c-2.4,3-9.7,0.4-10.2-1.5
	c-0.3-1.5,0.7-4.5,1.2-5.9l-0.6-5.1l0.1,0l-3.1-29.5c0,0-2.1-4.3-4-8.9c-0.5-0.1-1-0.3-1.4-0.5l-3.9,34c0,0-0.1-0.4-0.1-0.4
	l0.4,14.1h0.2c1.2,0,3.1,1.7,3.1,2.9v14.8c0,1.1-1.3,2-2.3,2.1l0.1,10.7l0.6,27.5h0.7v17.9c1,0.9,3.3,1.4,3.3,1.4
	c4.1,0.2,2.4,3.7,2.4,3.7h-7c-3.8,0-4.1-2-3.9-3h0l-3.2-20h0.4l-4.6-27.5l-5.6-33.7l-3,33.7l-2.4,27.6l0.4,0l-2,18.2
	c0.2,1.5,0,4.7-3.9,4.7h-7c0,0-1.5-3.4,2.6-3.7c0,0,2.2-0.5,3.4-1.3l-0.5-18h0.2l-0.7-27.5l-0.3-10.5H550c-1.2,0-2-1.1-2-2.3v-14.8
	c0-1.2,0.8-2.9,2-2.9h0.9l-0.4-14.1l0.4,0.2l-3.2-33.6c-0.6,0.2-1.3,0.4-1.9,0.4c-1.8,4.6-3.9,8.8-3.9,8.8l-3.1,29.5l0.1,0l-0.6,5.1
	c0.5,1.4,1.5,4.5,1.2,5.9c-0.4,1.9-7.8,4.6-10.2,1.5C527.1,413.9,529.6,408.7,529.9,408.1z"/>
<path fill="#7F8E8E" d="M397.1,408.1l0.1-0.8l0.3-4.6l0.2,0l2.7-27.8l3.2-12.9c-1.5-1.2-2.5-2.2-2.5-2.2l3.8-9.5
	c-2.1-2-3.3-3.6-3.3-3.6c10.7-8,25.6-4.7,25.6-4.7c0.1,0.1,0.4,0.2,0.6,0.3c0,0,0.2,0,0.2,0V337h-3v-2.1l-2.5-1.9l-3.9-4h6.4v-1.7
	l-5-0.1V318h5.1l0,0h-5.6c0-22,31.3-19,30.6,0.9c-0.4,11-7.1,14.3-9.1,15v8c5-0.5,15.7-2,24.8,4.9c0,0-1.2,1.7-3.5,3.8l3.8,9.3
	c0,0-1.3,1.5-3.4,3l3,12.2l2.7,27.8l0.2,0l0.3,4.6l0.1,0.8c0.3,0.6,2.9,5.7,0.6,8.6c-2.4,3-9.7,0.4-10.2-1.5
	c-0.3-1.5,0.7-4.5,1.2-5.9l-0.6-5.1l0.1,0l-3.1-29.5c0,0-2.1-4.3-4-8.9c-0.5-0.1-1-0.3-1.4-0.5l-3.9,34c0,0-0.1-0.4-0.1-0.4
	l0.4,14.1h0.2c1.2,0,2.9,1.7,2.9,2.9v14.8c0,1.1-1.1,2-2.2,2.1l0.1,10.7l0.6,27.5h0.4v17.9c1,0.9,3.4,1.4,3.4,1.4
	c4.1,0.2,2.6,3.7,2.6,3.7h-7c-3.8,0-4.1-2-3.9-3h0l-3.2-20h0.4l-4.6-27.5l-5.6-33.7l-3,33.7l-2.4,27.6l0.4,0l-2,18.2
	c0.2,1.5,0,4.7-3.9,4.7h-7c0,0-1.5-3.4,2.6-3.7c0,0,2.2-0.5,3.4-1.3l-0.5-18h0.2l-0.7-27.5l-0.3-10.5h-1.4c-1.2,0-1.2-1.1-1.2-2.3
	v-14.8c0-1.2,0-2.9,1.2-2.9h0.9l-0.4-14.1l0.4,0.2l-3.2-33.6c-0.6,0.2-1.3,0.4-1.9,0.4c-1.8,4.6-3.9,8.8-3.9,8.8l-3.1,29.5l0.1,0
	l-0.6,5.1c0.5,1.4,1.5,4.5,1.2,5.9c-0.4,1.9-7.8,4.6-10.2,1.5C394.3,413.9,396.8,408.7,397.1,408.1z"/>
<path fill="#7F8E8E" d="M304.5,408.1l0.1-0.8l0.3-4.6l0.2,0l2.7-27.8l3.2-12.9c-1.5-1.2-2.5-2.2-2.5-2.2l3.8-9.5
	c-2.1-2-3.3-3.6-3.3-3.6c10.7-8,25.6-4.7,25.6-4.7c0.1,0.1,0.2,0.2,0.4,0.3c0,0,0,0,0,0V337h-2v-2.1l-2.8-1.9l-4.2-4h7v-1.7l-3-0.1
	V318h2.1l0,0h-5.2c0-22,31.6-19,30.9,0.9c-0.4,11-6.8,14.3-8.8,15v8c4-0.5,15.4-2,24.5,4.9c0,0-1.4,1.7-3.6,3.8l3.7,9.3
	c0,0-1.4,1.5-3.5,3l3,12.2l2.7,27.8l0.2,0l0.3,4.6l0.1,0.8c0.3,0.6,2.9,5.7,0.6,8.6c-2.4,3-9.7,0.4-10.2-1.5
	c-0.3-1.5,0.7-4.5,1.2-5.9l-0.6-5.1l0.1,0l-3.1-29.5c0,0-2.1-4.3-4-8.9c-0.5-0.1-1-0.3-1.4-0.5l-3.9,34c0,0-0.1-0.4-0.1-0.4
	l0.4,14.1h0.2c1.2,0,2.5,1.7,2.5,2.9v14.8c0,1.1-1,2-2,2.1l0.2,10.7L357,471h-1v17.9c4,0.9,4.1,1.4,4.1,1.4c4.1,0.2,3.3,3.7,3.3,3.7
	h-7c-3.8,0-4.1-2-3.9-3h0l-3.2-20h0.4l-4.6-27.5l-5.6-33.7l-3,33.7l-2.4,27.6l0.4,0l-2,18.2c0.2,1.5,0,4.7-3.9,4.7h-7
	c0,0-1.5-3.4,2.6-3.7c0,0,2.2-0.5,3.4-1.3l-0.5-18h0.2l-0.7-27.5L326,433h-1.4c-1.2,0-2.6-1.1-2.6-2.3v-14.8c0-1.2,1.4-2.9,2.6-2.9
	h0.9l-0.4-14.1l0.4,0.2l-3.2-33.6c-0.6,0.2-1.3,0.4-1.9,0.4c-1.8,4.6-3.9,8.8-3.9,8.8l-3.1,29.5l0.1,0l-0.6,5.1
	c0.5,1.4,1.5,4.5,1.2,5.9c-0.4,1.9-7.8,4.6-10.2,1.5C301.7,413.9,304.2,408.7,304.5,408.1z"/>
<path fill="#E0A984" d="M334.7,352.5l7.2,29.1l3.3,33.6c0,0-5.3,3.1-8.4,0.6l-3.7-34.6c0,0-7-13.9-6.4-18.8
	C327.2,359.2,329.6,358.1,334.7,352.5z"/>
<path fill="#E0A984" d="M283.9,352.5l-7.2,29.1l-3.3,33.6c0,0,5.3,3.1,8.4,0.6l3.7-34.6c0,0,7-13.9,6.4-18.8
	C291.4,359.2,289,358.1,283.9,352.5z"/>
<g>
	<path fill="#A6994C" d="M302,348.6c0,0-15-3.3-25.6,4.7c0,0,9.6,13.1,23.8,11.1C300.2,364.4,316.4,358.1,302,348.6z"/>
	<path fill="#A6994C" d="M315.1,348.6c0,0,15-3.3,25.6,4.7c0,0-9.6,13.1-23.8,11.1C317,364.4,300.8,358.1,315.1,348.6z"/>
	<path fill="#A6994C" d="M288.5,351.9c0,0,13.5-8,40.8,0l-5.1,54c0,0-11.2,0.8-29.4-0.1L288.5,351.9z"/>
	<path fill="#A6994C" d="M280,356.9l-3.8,9.6c0,0,9.3,10.1,16.7,4.1l-0.8-10.9L280,356.9z"/>
	<path fill="#A6994C" d="M337.4,356.9l3.8,9.6c0,0-9.3,10.1-16.7,4.1l0.8-10.9L337.4,356.9z"/>
</g>
<polygon fill="#E0A984" points="132.1,451 131,488 136.9,488 143.3,451 "/>
<polygon fill="#E0A984" points="151.9,451 155.3,488 161,488 162,451 "/>
<path fill="#E0A984" d="M173.3,352.5l7.2,29.1l3.3,33.6c0,0-5.3,3.1-8.4,0.6l-3.7-34.6c0,0-7-13.9-6.4-18.8
	C165.8,359.2,168.2,358.1,173.3,352.5z"/>
<path fill="#E0A984" d="M183.7,414.6c0,0,3,5.6,0.6,8.7c-2.4,3-9.7,0.4-10.2-1.5s1.5-6.7,1.5-6.7L183.7,414.6z"/>
<polygon fill="#2F2F46" points="183.7,414.6 175.4,415.8 174.8,410.7 183.4,409.3 "/>
<path fill="#E0A984" d="M122.4,352.5l-7.2,29.1l-3.3,33.6c0,0,5.3,3.1,8.4,0.6l3.7-34.6c0,0,7-13.9,6.4-18.8
	C129.9,359.2,127.5,358.1,122.4,352.5z"/>
<path fill="#1C4092" d="M140.6,348.6c0,0-15-3.3-25.6,4.7c0,0,9.6,13.1,23.8,11.1C138.7,364.4,154.9,358.1,140.6,348.6z"/>
<path fill="#1C4092" d="M153.7,348.6c0,0,15-3.3,25.6,4.7c0,0-9.6,13.1-23.8,11.1C155.5,364.4,139.3,358.1,153.7,348.6z"/>
<polygon fill="#FFFFFF" points="136.6,490 135.6,494.8 131.5,494.8 131.5,490 "/>
<path fill="#FFFFFF" d="M131.5,494.8h4.1c0,0,1.6,5.2-3.8,5.5h-7c0,0-1.5-3.3,2.6-3.5C127.5,496.8,131.1,496.2,131.5,494.8z"/>
<path fill="#FFFFFF" d="M160.3,494.8h-4.1c0,0-1.6,5.2,3.8,5.5h7c0,0,1.5-3.3-2.6-3.5C164.3,496.8,160.7,496.2,160.3,494.8z"/>
<polygon fill="#FFFFFF" points="136.6,490 135.6,494.8 131.5,494.8 131.5,490 "/>
<path fill="#FFFFFF" d="M131.5,494.8h4.1c0,0,1.6,5.2-3.8,5.5h-7c0,0-1.5-3.3,2.6-3.5C127.5,496.8,131.1,496.2,131.5,494.8z"/>
<path fill="#FFFFFF" d="M160.3,494.8h-4.1c0,0-1.6,5.2,3.8,5.5h7c0,0,1.5-3.3-2.6-3.5C164.3,496.8,160.7,496.2,160.3,494.8z"/>
<polygon fill="#2F2F46" points="131,477.6 139.1,477.6 135.9,495.9 131,495.9 "/>
<polygon fill="#2F2F46" points="161.5,477.6 154,477.6 156,495.8 160.9,495.6 "/>
<path fill="#1C4092" d="M127.1,351.9c0,0,13.5-8,40.8,0l-5.1,54c0,0-11.2,0.8-29.4-0.1L127.1,351.9z"/>
<path fill="#E0A984" d="M156.8,320.8v23h-3.5v7.6c0,0-3.9,7.7-13.5,0v-15.7c0,0-2.9-0.6-2.9-3.9c0-3.3,3.3-1.7,3.3-1.7v-9.2H156.8z"
	/>
<path fill="#231F20" d="M157.7,320.2c-0.1,0.5,0,1.1-0.2,1.6c-0.2,0.5-0.7,0.9-1.2,0.9c0.2-0.4-0.1-1-0.5-1.2s-0.9-0.2-1.3-0.2
	c-1.4,0-2.9,0.1-4.3,0.1c-1.2,0-2.4,0.1-3.6,0.3c-0.4,0.1-0.9,0.2-1.3,0.5c-0.6,0.4-1.1,1.2-1.9,1.2c0.2,0.8,0.2,1.7-0.2,2.5
	c-0.4,0.8-1.2,1.3-2,1.1c0.2,1.7,0.2,3.5,0,5.2c-0.6,0-1.2-0.1-1.7-0.1c0.4-0.5,0.3-1.3-0.1-1.7s-1.1-0.5-1.7-0.4
	c-0.4,0.1-0.9,0.4-0.9,0.9c-1.5-2.3-2-5.2-1.5-7.8s2.3-5.1,4.6-6.3c1.6-0.9,3.5-1.2,5.4-1.2C145.4,315.6,158.8,311.4,157.7,320.2z"
	/>
<path fill="#E0A984" d="M112,414.6c0,0-3,5.6-0.6,8.7c2.4,3,9.7,0.4,10.2-1.5c0.4-1.9-1.5-6.7-1.5-6.7L112,414.6z"/>
<path fill="#FFFFFF" d="M161.5,323H144v4.9c0,0,0,6.1-3,6.1v6.6c0,0-9.4-3.3-9.8-16C130.5,304.8,161.5,301,161.5,323z"/>
<g>
	<path fill="#1A1A1A" d="M156.8,342h-10.2c-0.1,0-0.2-0.1-0.3-0.2l-7.4-7c-0.2-0.2-0.2-0.4,0-0.6c0,0,0.1-0.1,0.1-0.1l-2.2-6
		c-0.1-0.2,0-0.4,0.2-0.5l7.2-4.2c0.1,0,0.1-0.5,0.2-0.5h16c0.2,0,0.8,1,0.8,1.3v9.7h1.3c0.2,0,0.3-0.1,0.4,0.1s0.1,0.2,0,0.3
		l-3.5,4.7l-2.1,2.7C157,341.9,156.9,342,156.8,342z M146.7,341h9.9l1.9-2.7l3-4.3h-21.7L146.7,341z M139.6,334H160v-11h-15.6
		l-6.8,4.5L139.6,334z"/>
</g>
<g>
	<path d="M143.5,334.1c-0.2,0-0.5-0.2-0.5-0.4v-9c0-0.2,0.3-0.4,0.5-0.4s0.5,0.2,0.5,0.4v9C144,333.9,143.7,334.1,143.5,334.1z"/>
</g>
<g>
	<path fill="#1A1A1A" d="M159.8,338h-17.2c-0.2,0-0.4-0.3-0.4-0.5s0.2-0.5,0.4-0.5h17.2c0.2,0,0.4,0.3,0.4,0.5S160.1,338,159.8,338z
		"/>
</g>
<g>
	<path fill="#1A1A1A" d="M149.5,341.5c-0.2,0-0.5-0.2-0.5-0.4v-6.6c0-0.2,0.3-0.4,0.5-0.4s0.5,0.2,0.5,0.4v6.6
		C150,341.3,149.7,341.5,149.5,341.5z"/>
</g>
<g>
	<path fill="#1A1A1A" d="M156.5,341.5c-0.2,0-0.5-0.2-0.5-0.4v-6.6c0-0.2,0.3-0.4,0.5-0.4s0.5,0.2,0.5,0.4v6.6
		C157,341.3,156.7,341.5,156.5,341.5z"/>
</g>
<path fill="#FFFFFF" d="M118.6,356.9l-3.8,9.6c0,0,9.3,10.1,16.7,4.1l-0.8-10.9L118.6,356.9z"/>
<path fill="#FFFFFF" d="M176,356.9l3.8,9.6c0,0-9.3,10.1-16.7,4.1l0.8-10.9L176,356.9z"/>
<polygon fill="#2F2F46" points="112,414.6 120.3,415.8 120.9,410.7 112.3,409.3 "/>
<polygon fill="none" points="143.3,451 151.9,451 149,417.3 "/>
<polygon fill="#292846" points="149,417.3 151.9,451 162,451 163.1,406.3 133.4,406.1 132.1,451 143.3,451 "/>
<path fill="#1E2038" d="M138.3,439.4h-5.1c-1.5,0-2.7-1.2-2.7-2.7v-13.8c0-1.5,1.2-2.7,2.7-2.7h5.1c1.5,0,2.7,1.2,2.7,2.7v13.8
	C141,438.2,139.8,439.4,138.3,439.4z"/>
<path fill="#1E2038" d="M163.2,439.4h-5.1c-1.5,0-2.7-1.2-2.7-2.7v-13.8c0-1.5,1.2-2.7,2.7-2.7h5.1c1.5,0,2.7,1.2,2.7,2.7v13.8
	C165.8,438.2,164.7,439.4,163.2,439.4z"/>
<g>
	<polygon fill="#E0A984" points="45.3,447 44.2,486 50,486 56.5,447 	"/>
	<polygon fill="#E0A984" points="65.1,447 68.5,486 74.1,486 75.1,447 	"/>
	<path fill="#E0A984" d="M86.4,350.1l7.2,29.1l3.3,33.6c0,0-5.3,3.1-8.4,0.6l-3.7-34.6c0,0-7-13.9-6.4-18.8
		C78.9,356.8,81.3,355.6,86.4,350.1z"/>
	<path fill="#E0A984" d="M96.8,412.1c0,0,3,5.6,0.6,8.7c-2.4,3-9.7,0.4-10.2-1.5c-0.4-1.9,1.5-6.7,1.5-6.7L96.8,412.1z"/>
	<polygon fill="#9A2F4D" points="96.8,412.1 88.5,413.4 87.9,408.3 96.5,406.9 	"/>
	<path fill="#E0A984" d="M35.5,350.1l-7.2,29.1L25,412.8c0,0,5.3,3.1,8.4,0.6l3.7-34.6c0,0,7-13.9,6.4-18.8
		C43.1,356.8,40.7,355.6,35.5,350.1z"/>
	<path fill="#F8F8F8" d="M53.7,346.2c0,0-15-3.3-25.6,4.7c0,0,9.6,13.1,23.8,11.1C51.9,362,68,355.6,53.7,346.2z"/>
	<path fill="#F8F8F8" d="M66.8,346.2c0,0,15-3.3,25.6,4.7c0,0-9.6,13.1-23.8,11.1C68.7,362,52.5,355.6,66.8,346.2z"/>
	<polygon fill="#B22F2F" points="49.8,487.6 48.8,492.3 44.6,492.3 44.6,487.6 	"/>
	<path fill="#B22F2F" d="M44.6,492.3h4.1c0,0,1.6,5.2-3.8,5.5h-7c0,0-1.5-3.3,2.6-3.5C40.7,494.3,44.2,493.7,44.6,492.3z"/>
	<path fill="#B22F2F" d="M73.4,492.3h-4.1c0,0-1.6,5.2,3.8,5.5h7c0,0,1.5-3.3-2.6-3.5C77.4,494.3,73.8,493.7,73.4,492.3z"/>
	<polygon fill="#B22F2F" points="49.8,487.6 48.8,492.3 44.6,492.3 44.6,487.6 	"/>
	<path fill="#21282D" d="M44.6,492.3h4.1c0,0,1.6,5.2-3.8,5.5h-7c0,0-1.5-3.3,2.6-3.5C40.7,494.3,44.2,493.7,44.6,492.3z"/>
	<path fill="#21282D" d="M73.4,492.3h-4.1c0,0-1.6,5.2,3.8,5.5h7c0,0,1.5-3.3-2.6-3.5C77.4,494.3,73.8,493.7,73.4,492.3z"/>
	<polygon fill="#9A2F4D" points="44.1,475.2 52.2,475.2 49,493.4 44.1,493.4 	"/>
	<polygon fill="#9A2F4D" points="74.6,475.2 67.1,475.2 69.1,493.4 74.1,493.1 	"/>
	<path fill="#F8F8F8" d="M40.2,349.5c0,0,13.5-8,40.8,0l-5.1,54c0,0-11.2,0.8-29.4-0.1L40.2,349.5z"/>
	<path fill="#E0A984" d="M69.9,318.3v23h-3.5v7.6c0,0-3.9,7.7-13.5,0v-15.7c0,0-2.9-0.6-2.9-3.9s3.3-1.7,3.3-1.7v-9.2H69.9z"/>
	<path fill="#231F20" d="M70.9,317.7c-0.1,0.5,0,1.1-0.2,1.6s-0.7,0.9-1.2,0.9c0.2-0.4-0.1-1-0.5-1.2c-0.4-0.2-0.9-0.2-1.3-0.2
		c-1.4,0-2.9,0.1-4.3,0.1c-1.2,0-2.4,0.1-3.6,0.3c-0.4,0.1-0.9,0.2-1.3,0.5c-0.6,0.4-1.1,1.2-1.9,1.2c0.2,0.8,0.2,1.7-0.2,2.5
		c-0.4,0.8-1.2,1.3-2,1.1c0.2,1.7,0.2,3.5,0,5.2c-0.6,0-1.2-0.1-1.7-0.1c0.4-0.5,0.3-1.3-0.1-1.7c-0.4-0.4-1.1-0.5-1.7-0.4
		c-0.4,0.1-0.9,0.4-0.9,0.9c-1.5-2.3-2-5.2-1.5-7.8c0.6-2.7,2.3-5.1,4.6-6.3c1.6-0.9,3.5-1.2,5.4-1.2
		C58.5,313.1,71.9,308.9,70.9,317.7z"/>
	<path fill="#E0A984" d="M25.1,412.1c0,0-3,5.6-0.6,8.7c2.4,3,9.7,0.4,10.2-1.5c0.4-1.9-1.5-6.7-1.5-6.7L25.1,412.1z"/>
	<path fill="#9A2F4D" d="M74.6,321H59v4.5c0,0,0,6.1-6,6.1v6.6c0,0-8.9-3.1-9.3-15.8C43.1,302.6,74.6,299,74.6,321z"/>
	<polyline fill="none" stroke="#FFFFFF" stroke-linecap="round" stroke-linejoin="round" stroke-miterlimit="10" points="
		51.8,332.2 59.6,339.5 69.9,339.5 71.9,337 75.4,332.5 52.5,332.5 50.2,325.8 57.4,321.5 72.5,321.5 72.5,331 	"/>
	
		<line fill="none" stroke="#FFFFFF" stroke-linecap="round" stroke-linejoin="round" stroke-miterlimit="10" x1="55.5" y1="321" x2="55.5" y2="331"/>
	
		<line fill="none" stroke="#FFFFFF" stroke-linecap="round" stroke-linejoin="round" stroke-miterlimit="10" x1="55" y1="335.5" x2="73" y2="335.5"/>
	
		<line fill="none" stroke="#FFFFFF" stroke-linecap="round" stroke-linejoin="round" stroke-miterlimit="10" x1="62.5" y1="333" x2="62.5" y2="338"/>
	
		<line fill="none" stroke="#FFFFFF" stroke-linecap="round" stroke-linejoin="round" stroke-miterlimit="10" x1="68.5" y1="333" x2="68.5" y2="338"/>
	<path fill="#F8F8F8" d="M31.7,354.4l-3.8,9.6c0,0,9.3,10.1,16.7,4.1l-0.8-10.9L31.7,354.4z"/>
	<path fill="#F8F8F8" d="M89.1,354.4l3.8,9.6c0,0-9.3,10.1-16.7,4.1l0.8-10.9L89.1,354.4z"/>
	<polygon fill="#9A2F4D" points="25.1,412.1 33.4,413.4 34,408.3 25.4,406.9 	"/>
	<polygon fill="#F8F8F8" points="62.1,413.3 65.1,447 75.1,447 76.2,403.1 46.5,402.5 45.3,447 56.5,447 	"/>
	<path fill="#E6E6E6" d="M51.5,436.9h-5.1c-1.5,0-2.7-1.2-2.7-2.7v-13.8c0-1.5,1.2-2.7,2.7-2.7h5.1c1.5,0,2.7,1.2,2.7,2.7v13.8
		C54.1,435.7,52.9,436.9,51.5,436.9z"/>
	<path fill="#E6E6E6" d="M76.3,436.9h-5.1c-1.5,0-2.7-1.2-2.7-2.7v-13.8c0-1.5,1.2-2.7,2.7-2.7h5.1c1.5,0,2.7,1.2,2.7,2.7v13.8
		C79,435.7,77.8,436.9,76.3,436.9z"/>
	<g>
		<path fill="#9A2F4D" d="M50.5,376.7l6-14.1h3.6v14.1h1.6v3h-1.6v3.8h-3.3v-3.8h-6.3V376.7z M56.8,376.7V369l-3.3,7.7H56.8z"/>
		<path fill="#9A2F4D" d="M72.8,378.3c0,3.5-1.6,5.4-5,5.4c-3.2,0-4.9-1.9-4.9-5.3v-0.5H66v0.7c0,1.5,0.7,2.1,1.7,2.1
			c1.2,0,1.8-0.6,1.8-2.6v-3.8c-0.6,1.2-1.6,1.9-3.1,1.9c-2.4,0-3.6-1.7-3.6-4.8v-3.8c0-3.3,1.8-5.3,5-5.3c3.2,0,5,1.9,5,5.3V378.3z
			 M69.5,371.2v-3.8c0-1.5-0.7-2-1.7-2s-1.7,0.5-1.7,2v3.8c0,1.5,0.7,2.1,1.7,2.1S69.5,372.7,69.5,371.2z"/>
	</g>
</g>
<g>
	<path fill="#FFFFFF" d="M150.3,371.6c0-2.3-0.8-2.9-2.1-2.9s-2.1,0.7-2.1,2.5v1.6h-3.8v-1.4c0-4.1,2-6.4,6-6.4c3.9,0,6,2.3,6,6.4
		v0.7c0,2.7-0.9,4.5-2.8,5.3c2,0.9,2.8,2.8,2.8,5.4v2c0,4.1-2,6.4-6,6.4c-3.9,0-6-2.3-6-6.4v-2.1h3.8v2.4c0,1.8,0.8,2.5,2.1,2.5
		s2.1-0.6,2.1-2.9v-2c0-2.4-0.8-3.3-2.6-3.3h-1.4v-3.7h1.6c1.5,0,2.4-0.7,2.4-2.7V371.6z"/>
</g>
<polygon fill="#E0A984" points="213.3,451 212.2,488 218.1,488 224.5,451 "/>
<polygon fill="#E0A984" points="233.1,451 236.5,488 242.1,488 243.1,451 "/>
<path fill="#E0A984" d="M254.4,352.5l7.2,29.1l3.3,33.6c0,0-5.3,3.1-8.4,0.6l-3.7-34.6c0,0-7-13.9-6.4-18.8
	C246.9,359.2,249.3,358.1,254.4,352.5z"/>
<path fill="#E0A984" d="M264.9,414.6c0,0,3,5.6,0.6,8.7c-2.4,3-9.7,0.4-10.2-1.5c-0.4-1.9,1.5-6.7,1.5-6.7L264.9,414.6z"/>
<polygon fill="#662D91" points="264.9,414.6 256.5,415.8 255.9,410.7 264.5,409.3 "/>
<path fill="#E0A984" d="M203.5,352.5l-7.2,29.1l-3.3,33.6c0,0,5.3,3.1,8.4,0.6l3.7-34.6c0,0,7-13.9,6.4-18.8
	C211.1,359.2,208.7,358.1,203.5,352.5z"/>
<path fill="#CED4E2" d="M221.7,348.6c0,0-15-3.3-25.6,4.7c0,0,9.6,13.1,23.8,11.1C219.9,364.4,236.1,358.1,221.7,348.6z"/>
<path fill="#CED4E2" d="M234.8,348.6c0,0,15-3.3,25.6,4.7c0,0-9.6,13.1-23.8,11.1C236.7,364.4,220.5,358.1,234.8,348.6z"/>
<polygon fill="#662D91" points="217.8,490 216.8,494.8 212.6,494.8 212.6,490 "/>
<path fill="#662D91" d="M212.6,494.8h4.1c0,0,1.6,5.2-3.8,5.5h-7c0,0-1.5-3.3,2.6-3.5C208.7,496.8,212.3,496.2,212.6,494.8z"/>
<path fill="#662D91" d="M241.4,494.8h-4.1c0,0-1.6,5.2,3.8,5.5h7c0,0,1.5-3.3-2.6-3.5C245.4,496.8,241.8,496.2,241.4,494.8z"/>
<polygon fill="#662D91" points="217.8,490 216.8,494.8 212.6,494.8 212.6,490 "/>
<path fill="#662D91" d="M212.6,494.8h4.1c0,0,1.6,5.2-3.8,5.5h-7c0,0-1.5-3.3,2.6-3.5C208.7,496.8,212.3,496.2,212.6,494.8z"/>
<path fill="#662D91" d="M241.4,494.8h-4.1c0,0-1.6,5.2,3.8,5.5h7c0,0,1.5-3.3-2.6-3.5C245.4,496.8,241.8,496.2,241.4,494.8z"/>
<polygon fill="#CED4E2" points="212.1,477.6 220.2,477.6 217,495.9 212.1,495.9 "/>
<polygon fill="#CED4E2" points="242.6,477.6 235.2,477.6 237.1,495.8 242.1,495.6 "/>
<path fill="#CED4E2" d="M208.2,351.9c0,0,13.5-8,40.8,0l-5.1,54c0,0-11.2,0.8-29.4-0.1L208.2,351.9z"/>
<path fill="#E0A984" d="M237.9,320.8v23h-3.5v7.6c0,0-3.9,7.7-13.5,0v-15.7c0,0-2.9-0.6-2.9-3.9c0-3.3,3.3-1.7,3.3-1.7v-9.2H237.9z"
	/>
<path fill="#231F20" d="M238.9,320.2c-0.1,0.5,0,1.1-0.2,1.6c-0.2,0.5-0.7,0.9-1.2,0.9c0.2-0.4-0.1-1-0.5-1.2s-0.9-0.2-1.3-0.2
	c-1.4,0-2.9,0.1-4.3,0.1c-1.2,0-2.4,0.1-3.6,0.3c-0.4,0.1-0.9,0.2-1.3,0.5c-0.6,0.4-1.1,1.2-1.9,1.2c0.2,0.8,0.2,1.7-0.2,2.5
	c-0.4,0.8-1.2,1.3-2,1.1c0.2,1.7,0.2,3.5,0,5.2c-0.6,0-1.2-0.1-1.7-0.1c0.4-0.5,0.3-1.3-0.1-1.7s-1.1-0.5-1.7-0.4
	c-0.4,0.1-0.9,0.4-0.9,0.9c-1.5-2.3-2-5.2-1.5-7.8s2.3-5.1,4.6-6.3c1.6-0.9,3.5-1.2,5.4-1.2C226.5,315.6,239.9,311.4,238.9,320.2z"
	/>
<path fill="#E0A984" d="M193.1,414.6c0,0-3,5.6-0.6,8.7c2.4,3,9.7,0.4,10.2-1.5s-1.5-6.7-1.5-6.7L193.1,414.6z"/>
<path fill="#662D91" d="M242.6,323H226v4.9c0,0,0,6.1-6,6.1v6.6c0,0-8.4-3.3-8.8-16C210.6,304.8,242.6,301,242.6,323z"/>
<g>
	<path fill="#1A1A1A" d="M237.9,342h-10.2c-0.1,0-0.2-0.1-0.3-0.2l-7.4-7c-0.2-0.2-0.2-0.4,0-0.6c0,0,0.1-0.1,0.1-0.1l-2.2-6
		c-0.1-0.2,0-0.4,0.2-0.5l7.2-4.2c0.1,0,0.1-0.5,0.2-0.5h16c0.2,0,1.6,1,1.6,1.3v9.7h0.4c0.2,0,0.3-0.1,0.4,0.1s0.1,0.2,0,0.3
		l-3.5,4.7l-2.1,2.7C238.1,341.9,238,342,237.9,342z M227.8,341h9.9l1.9-2.7l3-4.3h-21.7L227.8,341z M220.8,334H240v-11h-14.5
		l-6.8,4.5L220.8,334z"/>
</g>
<g>
	<path d="M224.5,334.1c-0.2,0-0.5-0.2-0.5-0.4v-9c0-0.2,0.3-0.4,0.5-0.4s0.5,0.2,0.5,0.4v9C225,333.9,224.7,334.1,224.5,334.1z"/>
</g>
<g>
	<path fill="#1A1A1A" d="M241,338h-17.2c-0.2,0-0.4-0.3-0.4-0.5s0.2-0.5,0.4-0.5H241c0.2,0,0.4,0.3,0.4,0.5S241.2,338,241,338z"/>
</g>
<g>
	<path fill="#1A1A1A" d="M231,341.5c0,0,0-0.2,0-0.4v-6.6c0-0.2,0-0.4,0-0.4c1,0,0,0.2,0,0.4v6.6C231,341.3,232,341.5,231,341.5z"/>
</g>
<g>
	<path fill="#1A1A1A" d="M237.5,341.5c-0.2,0-0.5-0.2-0.5-0.4v-6.6c0-0.2,0.3-0.4,0.5-0.4s0.5,0.2,0.5,0.4v6.6
		C238,341.3,237.7,341.5,237.5,341.5z"/>
</g>
<path fill="#CED4E2" d="M199.7,356.9l-3.8,9.6c0,0,9.3,10.1,16.7,4.1l-0.8-10.9L199.7,356.9z"/>
<path fill="#CED4E2" d="M257.1,356.9l3.8,9.6c0,0-9.3,10.1-16.7,4.1l0.8-10.9L257.1,356.9z"/>
<polygon fill="#662D91" points="193.1,414.6 201.4,415.8 202,410.7 193.4,409.3 "/>
<polygon fill="none" points="224.5,451 233.1,451 230.1,417.3 "/>
<polygon fill="#F8F8F8" points="230.1,417.3 233.1,451 243.1,451 244.3,406.3 214.5,406.1 213.3,451 224.5,451 "/>
<path fill="#E6E6E6" d="M219.5,439.4h-5.1c-1.5,0-2.7-1.2-2.7-2.7v-13.8c0-1.5,1.2-2.7,2.7-2.7h5.1c1.5,0,2.7,1.2,2.7,2.7v13.8
	C222.1,438.2,220.9,439.4,219.5,439.4z"/>
<path fill="#E6E6E6" d="M244.3,439.4h-5.1c-1.5,0-2.7-1.2-2.7-2.7v-13.8c0-1.5,1.2-2.7,2.7-2.7h5.1c1.5,0,2.7,1.2,2.7,2.7v13.8
	C247,438.2,245.8,439.4,244.3,439.4z"/>
<g>
	<path fill="#2F2F46" d="M226.2,372.3c0-1.8-0.6-2.3-1.6-2.3s-1.6,0.5-1.6,2v1.3H220v-1.1c0-3.2,1.6-5,4.6-5c3.1,0,4.6,1.8,4.6,5
		v0.5c0,2.1-0.7,3.5-2.2,4.1c1.6,0.7,2.2,2.2,2.2,4.2v1.6c0,3.2-1.6,5-4.6,5c-3.1,0-4.6-1.8-4.6-5v-1.6h2.9v1.8c0,1.4,0.6,2,1.6,2
		s1.6-0.5,1.6-2.2v-1.6c0-1.8-0.6-2.5-2-2.5h-1v-2.8h1.2c1.2,0,1.9-0.5,1.9-2.1V372.3z"/>
	<path fill="#2F2F46" d="M235.9,370c-1,0-1.6,0.5-1.6,2v2.1h-2.9v-1.9c0-3.2,1.6-5,4.6-5c3.1,0,4.6,1.8,4.6,5
		c0,6.5-6.8,8.7-6.2,12.2h5.9v2.8h-9v-2.4c0-5.8,6.2-6.8,6.2-12.5C237.5,370.5,236.9,370,235.9,370z"/>
</g>
<polygon fill="#E0A984" points="293.6,451 292.5,488 298.4,488 304.8,451 "/>
<polygon fill="#E0A984" points="313.4,451 316.8,488 322.4,488 323.4,451 "/>
<path fill="#E0A984" d="M345.2,414.6c0,0,3,5.6,0.6,8.7c-2.4,3-9.7,0.4-10.2-1.5s1.5-6.7,1.5-6.7L345.2,414.6z"/>
<polygon fill="#2F2F46" points="345.2,414.6 336.9,415.8 336.2,410.7 344.8,409.3 "/>
<polygon fill="#662D91" points="298.1,490 297.1,494.8 293,494.8 293,490 "/>
<path fill="#662D91" d="M293,494.8h4.1c0,0,1.6,5.2-3.8,5.5h-7c0,0-1.5-3.3,2.6-3.5C289,496.8,292.6,496.2,293,494.8z"/>
<path fill="#662D91" d="M321.8,494.8h-4.1c0,0-1.6,5.2,3.8,5.5h7c0,0,1.5-3.3-2.6-3.5C325.7,496.8,322.1,496.2,321.8,494.8z"/>
<polygon fill="#662D91" points="298.1,490 297.1,494.8 293,494.8 293,490 "/>
<path fill="#2F2F46" d="M293,494.8h4.1c0,0,1.6,5.2-3.8,5.5h-7c0,0-1.5-3.3,2.6-3.5C289,496.8,292.6,496.2,293,494.8z"/>
<path fill="#2F2F46" d="M321.8,494.8h-4.1c0,0-1.6,5.2,3.8,5.5h7c0,0,1.5-3.3-2.6-3.5C325.7,496.8,322.1,496.2,321.8,494.8z"/>
<polygon fill="#A6994C" points="292.4,477.6 300.5,477.6 297.3,495.9 292.4,495.9 "/>
<polygon fill="#A6994C" points="322.9,477.6 315.5,477.6 317.5,495.8 322.4,495.6 "/>
<path fill="#E0A984" d="M318.2,320.8v23h-3.5v7.6c0,0-3.9,7.7-13.5,0v-15.7c0,0-2.9-0.6-2.9-3.9c0-3.3,3.3-1.7,3.3-1.7v-9.2H318.2z"
	/>
<path fill="#231F20" d="M319.2,320.2c-0.1,0.5,0,1.1-0.2,1.6c-0.2,0.5-0.7,0.9-1.2,0.9c0.2-0.4-0.1-1-0.5-1.2
	c-0.4-0.2-0.9-0.2-1.3-0.2c-1.4,0-2.9,0.1-4.3,0.1c-1.2,0-2.4,0.1-3.6,0.3c-0.4,0.1-0.9,0.2-1.3,0.5c-0.6,0.4-1.1,1.2-1.9,1.2
	c0.2,0.8,0.2,1.7-0.2,2.5c-0.4,0.8-1.2,1.3-2,1.1c0.2,1.7,0.2,3.5,0,5.2c-0.6,0-1.2-0.1-1.7-0.1c0.4-0.5,0.3-1.3-0.1-1.7
	c-0.4-0.4-1.1-0.5-1.7-0.4c-0.4,0.1-0.9,0.4-0.9,0.9c-1.5-2.3-2-5.2-1.5-7.8s2.3-5.1,4.6-6.3c1.6-0.9,3.5-1.2,5.4-1.2
	C306.8,315.6,320.2,311.4,319.2,320.2z"/>
<path fill="#E0A984" d="M273.4,414.6c0,0-3,5.6-0.6,8.7c2.4,3,9.7,0.4,10.2-1.5s-1.5-6.7-1.5-6.7L273.4,414.6z"/>
<path fill="#A6994C" d="M322.9,323H306v4.9c0,0,0,6.1-4,6.1v6.6c0,0-9.2-3.3-9.6-16C291.7,304.8,322.9,301,322.9,323z"/>
<g>
	<path fill="#FFFFFF" d="M318.2,342H308c-0.1,0-0.2-0.1-0.3-0.2l-7.4-7c-0.2-0.2-0.2-0.4,0-0.6c0,0,0.1-0.1,0.1-0.1l-2.2-6
		c-0.1-0.2,0-0.4,0.2-0.5l7.2-4.2c0.1,0,0.1-0.5,0.2-0.5h16c0.2,0,0.3,1,0.3,1.3v9.7h1.7c0.2,0,0.3-0.1,0.4,0.1
		c0.1,0.1,0.1,0.2,0,0.3l-3.5,4.7l-2.1,2.7C318.5,341.9,318.3,342,318.2,342z M308.1,341h9.9l1.9-2.7l3-4.3h-21.7L308.1,341z
		 M301.1,334H321v-11h-15.2l-6.8,4.5L301.1,334z"/>
</g>
<g>
	<path fill="#FFFFFF" d="M305.5,334.1c-0.2,0-0.5-0.2-0.5-0.4v-9c0-0.2,0.3-0.4,0.5-0.4s0.5,0.2,0.5,0.4v9
		C306,333.9,305.7,334.1,305.5,334.1z"/>
</g>
<g>
	<path fill="#FFFFFF" d="M321.3,338h-17.2c-0.2,0-0.4-0.3-0.4-0.5s0.2-0.5,0.4-0.5h17.2c0.2,0,0.4,0.3,0.4,0.5S321.5,338,321.3,338z
		"/>
</g>
<g>
	<path fill="#FFFFFF" d="M311,341.5c-0.2,0-1-0.2-1-0.4v-6.6c0-0.2,0.8-0.4,1-0.4s1,0.2,1,0.4v6.6C312,341.3,311.2,341.5,311,341.5z
		"/>
</g>
<g>
	<path fill="#FFFFFF" d="M317,341.5c-0.2,0-1-0.2-1-0.4v-6.6c0-0.2,0.8-0.4,1-0.4s1,0.2,1,0.4v6.6C318,341.3,317.2,341.5,317,341.5z
		"/>
</g>
<polygon fill="#2F2F46" points="273.4,414.6 281.7,415.8 282.4,410.7 273.8,409.3 "/>
<polygon fill="none" points="304.8,451 313.4,451 310.4,417.3 "/>
<polygon fill="#A6994C" points="310.4,417.3 313.4,451 323.4,451 324.6,406.3 294.9,406.1 293.6,451 304.8,451 "/>
<path fill="#998D3C" d="M299.8,439.4h-5.1c-1.5,0-2.7-1.2-2.7-2.7v-13.8c0-1.5,1.2-2.7,2.7-2.7h5.1c1.5,0,2.7,1.2,2.7,2.7v13.8
	C302.4,438.2,301.2,439.4,299.8,439.4z"/>
<path fill="#998D3C" d="M324.6,439.4h-5.1c-1.5,0-2.7-1.2-2.7-2.7v-13.8c0-1.5,1.2-2.7,2.7-2.7h5.1c1.5,0,2.7,1.2,2.7,2.7v13.8
	C327.3,438.2,326.1,439.4,324.6,439.4z"/>
<g>
	<path fill="#2F2F46" d="M316.7,372.3c0-1.8-0.6-2.3-1.6-2.3c-1,0-1.6,0.5-1.6,2v1.3h-2.9v-1.1c0-3.2,1.6-5,4.6-5
		c3.1,0,4.6,1.8,4.6,5v0.5c0,2.1-0.7,3.5-2.2,4.1c1.6,0.7,2.2,2.2,2.2,4.2v1.6c0,3.2-1.6,5-4.6,5c-3.1,0-4.6-1.8-4.6-5v-1.6h2.9v1.8
		c0,1.4,0.6,2,1.6,2c1,0,1.6-0.5,1.6-2.2v-1.6c0-1.8-0.6-2.5-2-2.5h-1v-2.8h1.2c1.2,0,1.9-0.5,1.9-2.1V372.3z"/>
	<path fill="#2F2F46" d="M304.8,370c-1,0-1.6,0.5-1.6,2v2.1h-2.9v-1.9c0-3.2,1.6-5,4.6-5c3.1,0,4.6,1.8,4.6,5
		c0,6.5-6.8,8.7-6.2,12.2h5.9v2.8h-9v-2.4c0-5.8,6.2-6.8,6.2-12.5C306.4,370.5,305.8,370,304.8,370z"/>
</g>
<path fill="#E0A984" d="M371.6,352.5l-7.2,29.1l-3.3,33.6c0,0,5.3,3.1,8.4,0.6l3.7-34.6c0,0,7-13.9,6.4-18.8
	C379.1,359.2,376.7,358.1,371.6,352.5z"/>
<path fill="#E0A984" d="M416.7,352.5l7.2,29.1l3.3,33.6c0,0-5.3,3.1-8.4,0.6l-3.7-34.6c0,0-7-13.9-6.4-18.8
	C409.2,359.2,411.6,358.1,416.7,352.5z"/>
<g>
	<path fill="#F5FAFA" d="M401,348.6c0,0,15-3.3,25.6,4.7c0,0-9.6,13.1-23.8,11.1C402.8,364.4,386.6,358.1,401,348.6z"/>
	<path fill="#F5FAFA" d="M387.9,348.6c0,0-15-3.3-25.6,4.7c0,0,9.6,13.1,23.8,11.1C386,364.4,402.2,358.1,387.9,348.6z"/>
	<path fill="#F5FAFA" d="M414.5,351.9c0,0-13.5-8-40.8,0l5.1,54c0,0,11.2,0.8,29.4-0.1L414.5,351.9z"/>
	<path fill="#F5FAFA" d="M423,356.9l3.8,9.6c0,0-9.3,10.1-16.7,4.1l0.8-10.9L423,356.9z"/>
	<path fill="#F5FAFA" d="M365.6,356.9l-3.8,9.6c0,0,9.3,10.1,16.7,4.1l-0.8-10.9L365.6,356.9z"/>
</g>
<polygon fill="#E0A984" points="409.4,451 410.5,488 404.6,488 398.2,451 "/>
<polygon fill="#E0A984" points="389.6,451 386.2,488 380.6,488 379.6,451 "/>
<path fill="#E0A984" d="M361.1,414.6c0,0-3,5.6-0.6,8.7c2.4,3,9.7,0.4,10.2-1.5c0.4-1.9-1.5-6.7-1.5-6.7L361.1,414.6z"/>
<polygon fill="#C1272D" points="361.1,414.6 369.4,415.8 370.1,410.7 361.4,409.3 "/>
<polygon fill="#21282D" points="404.9,490 405.9,494.8 410.1,494.8 410.1,490 "/>
<path fill="#21282D" d="M410.1,494.8h-4.1c0,0-1.6,5.2,3.8,5.5h7c0,0,1.5-3.3-2.6-3.5C414,496.8,410.4,496.2,410.1,494.8z"/>
<path fill="#21282D" d="M381.3,494.8h4.1c0,0,1.6,5.2-3.8,5.5h-7c0,0-1.5-3.3,2.6-3.5C377.3,496.8,380.9,496.2,381.3,494.8z"/>
<polygon fill="#21282D" points="404.9,490 405.9,494.8 410.1,494.8 410.1,490 "/>
<path fill="#21282D" d="M410.1,494.8h-4.1c0,0-1.6,5.2,3.8,5.5h7c0,0,1.5-3.3-2.6-3.5C414,496.8,410.4,496.2,410.1,494.8z"/>
<path fill="#21282D" d="M381.3,494.8h4.1c0,0,1.6,5.2-3.8,5.5h-7c0,0-1.5-3.3,2.6-3.5C377.3,496.8,380.9,496.2,381.3,494.8z"/>
<polygon fill="#C1272D" points="410.6,477.6 402.5,477.6 405.7,495.9 410.6,495.9 "/>
<polygon fill="#C1272D" points="380.1,477.6 387.5,477.6 385.6,495.8 380.6,495.6 "/>
<path fill="#E0A984" d="M384.8,320.8v23h3.5v7.6c0,0,3.9,7.7,13.5,0v-15.7c0,0,2.9-0.6,2.9-3.9c0-3.3-3.3-1.7-3.3-1.7v-9.2H384.8z"
	/>
<path fill="#231F20" d="M383.8,320.2c0.1,0.5,0,1.1,0.2,1.6c0.2,0.5,0.7,0.9,1.2,0.9c-0.2-0.4,0.1-1,0.5-1.2
	c0.4-0.2,0.9-0.2,1.3-0.2c1.4,0,2.9,0.1,4.3,0.1c1.2,0,2.4,0.1,3.6,0.3c0.4,0.1,0.9,0.2,1.3,0.5c0.6,0.4,1.1,1.2,1.9,1.2
	c-0.2,0.8-0.2,1.7,0.2,2.5c0.4,0.8,1.2,1.3,2,1.1c-0.2,1.7-0.2,3.5,0,5.2c0.6,0,1.2-0.1,1.7-0.1c-0.4-0.5-0.3-1.3,0.1-1.7
	c0.4-0.4,1.1-0.5,1.7-0.4c0.4,0.1,0.9,0.4,0.9,0.9c1.5-2.3,2-5.2,1.5-7.8c-0.6-2.7-2.3-5.1-4.6-6.3c-1.6-0.9-3.5-1.2-5.4-1.2
	C396.2,315.6,382.8,311.4,383.8,320.2z"/>
<path fill="#E0A984" d="M427.1,414.6c0,0,3,5.6,0.6,8.7c-2.4,3-9.7,0.4-10.2-1.5s1.5-6.7,1.5-6.7L427.1,414.6z"/>
<path fill="#21282D" d="M380.1,323H397v4.9c0,0,0,6.1,5,6.1v6.6c0,0,8.7-3.3,9.1-16C411.8,304.8,380.1,301,380.1,323z"/>
<g>
	<path fill="#FFFFFF" d="M384.5,341.8l-2.1-2.7l-3.5-4.7c-0.1-0.1-0.1-0.1,0-0.3c0.1-0.1,0.2-0.1,0.4-0.1h2.7v-9.7
		c0-0.2-0.9-1.3-0.7-1.3h16c0.1,0,0.1,0.4,0.2,0.5l7.2,3.9c0.2,0.1,0.3,0.4,0.2,0.6l-2.2,6.1c0,0,0.1,0.1,0.1,0.1
		c0.2,0.2,0.1,0.4,0,0.6l-7.4,7c-0.1,0.1-0.2,0.2-0.3,0.2h-10.2C384.7,342,384.6,341.9,384.5,341.8z M401.8,334h-21.7l3,4.3l1.9,2.7
		h9.9L401.8,334z M404,327.5l-6.8-4.5H382v11h19.9L404,327.5z"/>
</g>
<g>
	<path fill="#FFFFFF" d="M398,334.1c0,0,0-0.2,0-0.4v-9c0-0.2,0-0.4,0-0.4s0,0.2,0,0.4v9C398,333.9,398,334.1,398,334.1z"/>
</g>
<g>
	<path fill="#FFFFFF" d="M381.7,338h17.2c0.2,0,0.4-0.3,0.4-0.5s-0.2-0.5-0.4-0.5h-17.2c-0.2,0-0.4,0.3-0.4,0.5S381.5,338,381.7,338
		z"/>
</g>
<g>
	<path fill="#FFFFFF" d="M392,341.5c0,0,0-0.2,0-0.4v-6.6c0-0.2,0-0.4,0-0.4s0,0.2,0,0.4v6.6C392,341.3,392,341.5,392,341.5z"/>
</g>
<g>
	<path fill="#FFFFFF" d="M385,341.5c1,0,0-0.2,0-0.4v-6.6c0-0.2,0-0.4,0-0.4s0,0.2,0,0.4v6.6C385,341.3,385,341.5,385,341.5z"/>
</g>
<polygon fill="#C1272D" points="427.1,414.6 418.8,415.8 418.2,410.7 426.8,409.3 "/>
<polygon fill="none" points="398.2,451 389.6,451 392.6,417.3 "/>
<polygon fill="#C1272D" points="392.6,417.3 389.6,451 379.6,451 378.4,406.3 408.2,406.1 409.4,451 398.2,451 "/>
<path fill="#A71B21" d="M403.2,439.4h5.1c1.5,0,2.7-1.2,2.7-2.7v-13.8c0-1.5-1.2-2.7-2.7-2.7h-5.1c-1.5,0-2.7,1.2-2.7,2.7v13.8
	C400.6,438.2,401.8,439.4,403.2,439.4z"/>
<path fill="#A71B21" d="M378.4,439.4h5.1c1.5,0,2.7-1.2,2.7-2.7v-13.8c0-1.5-1.2-2.7-2.7-2.7h-5.1c-1.5,0-2.7,1.2-2.7,2.7v13.8
	C375.7,438.2,376.9,439.4,378.4,439.4z"/>
<g>
	<path fill="#C1272D" d="M384.6,367c2.5,0,3.1-1.2,3.6-2.6h2.2v20.7h-3.3v-15.8h-2.5V367z"/>
	<path fill="#C1272D" d="M403.9,364.4v2.8l-4.8,17.9h-3.3l4.8-17.8h-6.5v-3H403.9z"/>
</g>
<path fill="#E0A984" d="M450.2,352.5l-7.2,29.1l-3.3,33.6c0,0,5.3,3.1,8.4,0.6l3.7-34.6c0,0,7-13.9,6.4-18.8
	C457.8,359.2,455.4,358.1,450.2,352.5z"/>
<path fill="#E0A984" d="M495.4,352.5l7.2,29.1l3.3,33.6c0,0-5.3,3.1-8.4,0.6l-3.7-34.6c0,0-7-13.9-6.4-18.8
	C487.8,359.2,490.2,358.1,495.4,352.5z"/>
<g>
	<path fill="#9A2F4D" d="M479.7,348.6c0,0,15-3.3,25.6,4.7c0,0-9.6,13.1-23.8,11.1C481.5,364.4,465.3,358.1,479.7,348.6z"/>
	<path fill="#9A2F4D" d="M466.6,348.6c0,0-15-3.3-25.6,4.7c0,0,9.6,13.1,23.8,11.1C464.7,364.4,480.9,358.1,466.6,348.6z"/>
	<path fill="#9A2F4D" d="M493.2,351.9c0,0-13.5-8-40.8,0l5.1,54c0,0,11.2,0.8,29.4-0.1L493.2,351.9z"/>
	<path fill="#9A2F4D" d="M501.7,356.9l3.8,9.6c0,0-9.3,10.1-16.7,4.1l0.8-10.9L501.7,356.9z"/>
	<path fill="#9A2F4D" d="M444.3,356.9l-3.8,9.6c0,0,9.3,10.1,16.7,4.1l-0.8-10.9L444.3,356.9z"/>
</g>
<polygon fill="#E0A984" points="488.1,451 489.2,488 483.3,488 476.9,451 "/>
<polygon fill="#E0A984" points="468.3,451 464.9,488 459.3,488 458.3,451 "/>
<path fill="#E0A984" d="M439.8,414.6c0,0-3,5.6-0.6,8.7c2.4,3,9.7,0.4,10.2-1.5s-1.5-6.7-1.5-6.7L439.8,414.6z"/>
<polygon fill="#9A2F4D" points="439.8,414.6 448.1,415.8 448.7,410.7 440.1,409.3 "/>
<polygon fill="#21282D" points="483.6,490 484.6,494.8 488.7,494.8 488.7,490 "/>
<path fill="#21282D" d="M488.7,494.8h-4.1c0,0-1.6,5.2,3.8,5.5h7c0,0,1.5-3.3-2.6-3.5C492.7,496.8,489.1,496.2,488.7,494.8z"/>
<path fill="#21282D" d="M459.9,494.8h4.1c0,0,1.6,5.2-3.8,5.5h-7c0,0-1.5-3.3,2.6-3.5C455.9,496.8,459.5,496.2,459.9,494.8z"/>
<polygon fill="#21282D" points="483.6,490 484.6,494.8 488.7,494.8 488.7,490 "/>
<path fill="#21282D" d="M488.7,494.8h-4.1c0,0-1.6,5.2,3.8,5.5h7c0,0,1.5-3.3-2.6-3.5C492.7,496.8,489.1,496.2,488.7,494.8z"/>
<path fill="#21282D" d="M459.9,494.8h4.1c0,0,1.6,5.2-3.8,5.5h-7c0,0-1.5-3.3,2.6-3.5C455.9,496.8,459.5,496.2,459.9,494.8z"/>
<polygon fill="#9A2F4D" points="489.3,477.6 481.1,477.6 484.4,495.9 489.3,495.9 "/>
<polygon fill="#9A2F4D" points="458.8,477.6 466.2,477.6 464.2,495.8 459.3,495.6 "/>
<path fill="#E0A984" d="M463.5,320.8v23h3.5v7.6c0,0,3.9,7.7,13.5,0v-15.7c0,0,2.9-0.6,2.9-3.9c0-3.3-3.3-1.7-3.3-1.7v-9.2H463.5z"
	/>
<path fill="#231F20" d="M462.5,320.2c0.1,0.5,0,1.1,0.2,1.6c0.2,0.5,0.7,0.9,1.2,0.9c-0.2-0.4,0.1-1,0.5-1.2s0.9-0.2,1.3-0.2
	c1.4,0,2.9,0.1,4.3,0.1c1.2,0,2.4,0.1,3.6,0.3c0.4,0.1,0.9,0.2,1.3,0.5c0.6,0.4,1.1,1.2,1.9,1.2c-0.2,0.8-0.2,1.7,0.2,2.5
	c0.4,0.8,1.2,1.3,2,1.1c-0.2,1.7-0.2,3.5,0,5.2c0.6,0,1.2-0.1,1.7-0.1c-0.4-0.5-0.3-1.3,0.1-1.7c0.4-0.4,1.1-0.5,1.7-0.4
	c0.4,0.1,0.9,0.4,0.9,0.9c1.5-2.3,2-5.2,1.5-7.8s-2.3-5.1-4.6-6.3c-1.6-0.9-3.5-1.2-5.4-1.2C474.8,315.6,461.5,311.4,462.5,320.2z"
	/>
<path fill="#E0A984" d="M505.8,414.6c0,0,3,5.6,0.6,8.7c-2.4,3-9.7,0.4-10.2-1.5c-0.4-1.9,1.5-6.7,1.5-6.7L505.8,414.6z"/>
<path fill="#F8F8F8" d="M458.8,323H475v4.9c0,0,0,6.1,5,6.1v6.6c0,0,9.1-3.3,9.5-16C490.1,304.8,458.8,301,458.8,323z"/>
<g>
	<path fill="#21282D" d="M463.2,341.8l-2.1-2.7l-3.5-4.7c-0.1-0.1-0.1-0.1,0-0.3c0.1-0.1,0.2-0.1,0.4-0.1h1.1v-9.7
		c0-0.2,0.8-1.3,1-1.3h16c0.1,0,0.1,0.4,0.2,0.5l7.2,3.9c0.2,0.1,0.3,0.4,0.2,0.6l-2.2,6.1c0,0,0.1,0.1,0.1,0.1
		c0.2,0.2,0.1,0.4,0,0.6l-7.4,7c-0.1,0.1-0.2,0.2-0.3,0.2h-10.2C463.4,342,463.2,341.9,463.2,341.8z M480.5,334h-21.7l3,4.3l1.9,2.7
		h9.9L480.5,334z M482.6,327.5l-6.8-4.5H460v11h20.6L482.6,327.5z"/>
</g>
<g>
	<path fill="#21282D" d="M476,334.1c0.2,0,1-0.2,1-0.4v-9c0-0.2-0.8-0.4-1-0.4s-1,0.2-1,0.4v9C475,333.9,475.8,334.1,476,334.1z"/>
</g>
<g>
	<path fill="#21282D" d="M460.4,338h17.2c0.2,0,0.4-0.3,0.4-0.5s-0.2-0.5-0.4-0.5h-17.2c-0.2,0-0.4,0.3-0.4,0.5S460.2,338,460.4,338
		z"/>
</g>
<g>
	<path fill="#21282D" d="M470.5,341.5c0.2,0,0.5-0.2,0.5-0.4v-6.6c0-0.2-0.3-0.4-0.5-0.4s-0.5,0.2-0.5,0.4v6.6
		C470,341.3,470.3,341.5,470.5,341.5z"/>
</g>
<g>
	<path fill="#21282D" d="M464.5,341.5c0.2,0,0.5-0.2,0.5-0.4v-6.6c0-0.2-0.3-0.4-0.5-0.4s-0.5,0.2-0.5,0.4v6.6
		C464,341.3,464.3,341.5,464.5,341.5z"/>
</g>
<polygon fill="#9A2F4D" points="505.8,414.6 497.5,415.8 496.9,410.7 505.5,409.3 "/>
<polygon fill="none" points="476.9,451 468.3,451 471.3,417.3 "/>
<polygon fill="#F8F8F8" points="471.3,417.3 468.3,451 458.3,451 457.1,406.3 486.8,406.1 488.1,451 476.9,451 "/>
<path fill="#E6E6E6" d="M481.9,439.4h5.1c1.5,0,2.7-1.2,2.7-2.7v-13.8c0-1.5-1.2-2.7-2.7-2.7h-5.1c-1.5,0-2.7,1.2-2.7,2.7v13.8
	C479.3,438.2,480.4,439.4,481.9,439.4z"/>
<path fill="#E6E6E6" d="M457.1,439.4h5.1c1.5,0,2.7-1.2,2.7-2.7v-13.8c0-1.5-1.2-2.7-2.7-2.7h-5.1c-1.5,0-2.7,1.2-2.7,2.7v13.8
	C454.4,438.2,455.6,439.4,457.1,439.4z"/>
<g>
	<path fill="#F8F8F8" d="M462.4,367.5c2.5,0,3-1.2,3.5-2.5h2.1v20.2h-3.2v-15.4h-2.5V367.5z"/>
	<path fill="#F8F8F8" d="M476.4,385.4c-3.2,0-5-1.8-5-5.1v-1.6c0-1.9,0.6-3.4,2-4.2c-1.3-0.7-2-2.1-2-4.1v-0.6c0-3.2,1.8-5.1,5-5.1
		c3.2,0,5,1.8,5,5.1v0.6c0,2-0.7,3.3-2,4.1c1.4,0.8,2,2.3,2,4.2v1.6C481.4,383.6,479.6,385.4,476.4,385.4z M474.7,371.1
		c0,1.6,0.8,2.1,1.8,2.1c1,0,1.8-0.5,1.8-2.1v-1.1c0-1.8-0.8-2.3-1.8-2.3s-1.8,0.5-1.8,2.3V371.1z M476.4,382.5c1,0,1.8-0.5,1.8-2.3
		v-1.9c0-1.6-0.7-2.3-1.8-2.3s-1.8,0.7-1.8,2.3v1.9C474.7,382,475.4,382.5,476.4,382.5z"/>
</g>
<path fill="#E0A984" d="M531.4,352.5l-7.2,29.1l-3.3,33.6c0,0,5.3,3.1,8.4,0.6l3.7-34.6c0,0,7-13.9,6.4-18.8
	C538.9,359.2,536.5,358.1,531.4,352.5z"/>
<path fill="#E0A984" d="M576.5,352.5l7.2,29.1l3.3,33.6c0,0-5.3,3.1-8.4,0.6l-3.7-34.6c0,0-7-13.9-6.4-18.8
	C569,359.2,571.4,358.1,576.5,352.5z"/>
<g>
	<path fill="#04006D" d="M560.8,348.6c0,0,15-3.3,25.6,4.7c0,0-9.6,13.1-23.8,11.1C562.6,364.4,546.5,358.1,560.8,348.6z"/>
	<path fill="#04006D" d="M547.7,348.6c0,0-15-3.3-25.6,4.7c0,0,9.6,13.1,23.8,11.1C545.9,364.4,562,358.1,547.7,348.6z"/>
	<path fill="#04006D" d="M574.3,351.9c0,0-13.5-8-40.8,0l5.1,54c0,0,11.2,0.8,29.4-0.1L574.3,351.9z"/>
	<path fill="#04006D" d="M582.8,356.9l3.8,9.6c0,0-9.3,10.1-16.7,4.1l0.8-10.9L582.8,356.9z"/>
	<path fill="#04006D" d="M525.4,356.9l-3.8,9.6c0,0,9.3,10.1,16.7,4.1l-0.8-10.9L525.4,356.9z"/>
</g>
<polygon fill="#E0A984" points="569.2,451 570.3,488 564.5,488 558,451 "/>
<polygon fill="#E0A984" points="549.4,451 546,488 540.4,488 539.4,451 "/>
<path fill="#E0A984" d="M520.9,414.6c0,0-3,5.6-0.6,8.7c2.4,3,9.7,0.4,10.2-1.5c0.4-1.9-1.5-6.7-1.5-6.7L520.9,414.6z"/>
<polygon fill="#C1272D" points="520.9,414.6 529.2,415.8 529.9,410.7 521.3,409.3 "/>
<polygon fill="#21282D" points="564.7,490 565.7,494.8 569.9,494.8 569.9,490 "/>
<path fill="#21282D" d="M569.9,494.8h-4.1c0,0-1.6,5.2,3.8,5.5h7c0,0,1.5-3.3-2.6-3.5C573.9,496.8,570.3,496.2,569.9,494.8z"/>
<path fill="#21282D" d="M541.1,494.8h4.1c0,0,1.6,5.2-3.8,5.5h-7c0,0-1.5-3.3,2.6-3.5C537.1,496.8,540.7,496.2,541.1,494.8z"/>
<polygon fill="#21282D" points="564.7,490 565.7,494.8 569.9,494.8 569.9,490 "/>
<path fill="#21282D" d="M569.9,494.8h-4.1c0,0-1.6,5.2,3.8,5.5h7c0,0,1.5-3.3-2.6-3.5C573.9,496.8,570.3,496.2,569.9,494.8z"/>
<path fill="#21282D" d="M541.1,494.8h4.1c0,0,1.6,5.2-3.8,5.5h-7c0,0-1.5-3.3,2.6-3.5C537.1,496.8,540.7,496.2,541.1,494.8z"/>
<polygon fill="#04006D" points="570.4,477.6 562.3,477.6 565.5,495.9 570.4,495.9 "/>
<polygon fill="#04006D" points="539.9,477.6 547.4,477.6 545.4,495.8 540.4,495.6 "/>
<path fill="#E0A984" d="M544.6,320.8v23h3.5v7.6c0,0,3.9,7.7,13.5,0v-15.7c0,0,2.9-0.6,2.9-3.9c0-3.3-3.3-1.7-3.3-1.7v-9.2H544.6z"
	/>
<path fill="#231F20" d="M543.6,320.2c0.1,0.5,0,1.1,0.2,1.6c0.2,0.5,0.7,0.9,1.2,0.9c-0.2-0.4,0.1-1,0.5-1.2
	c0.4-0.2,0.9-0.2,1.3-0.2c1.4,0,2.9,0.1,4.3,0.1c1.2,0,2.4,0.1,3.6,0.3c0.4,0.1,0.9,0.2,1.3,0.5c0.6,0.4,1.1,1.2,1.9,1.2
	c-0.2,0.8-0.2,1.7,0.2,2.5c0.4,0.8,1.2,1.3,2,1.1c-0.2,1.7-0.2,3.5,0,5.2c0.6,0,1.2-0.1,1.7-0.1c-0.4-0.5-0.3-1.3,0.1-1.7
	c0.4-0.4,1.1-0.5,1.7-0.4c0.4,0.1,0.9,0.4,0.9,0.9c1.5-2.3,2-5.2,1.5-7.8s-2.3-5.1-4.6-6.3c-1.6-0.9-3.5-1.2-5.4-1.2
	C556,315.6,542.6,311.4,543.6,320.2z"/>
<path fill="#E0A984" d="M586.9,414.6c0,0,3,5.6,0.7,8.7c-2.4,3-9.7,0.4-10.2-1.5s1.5-6.7,1.5-6.7L586.9,414.6z"/>
<path fill="#C1272D" d="M539.9,323H556v4.9c0,0,0,6.1,6,6.1v6.6c0,0,8.6-3.3,9-16C571.7,304.8,539.9,301,539.9,323z"/>
<g>
	<path fill="#FFFFFF" d="M544.3,341.8l-2.1-2.7l-3.5-4.7c-0.1-0.1-0.1-0.1,0-0.3s0.2-0.1,0.4-0.1h2.9v-9.7c0-0.2-1.1-1.3-0.9-1.3h16
		c0.1,0,0.1,0.4,0.2,0.5l7.2,3.9c0.2,0.1,0.3,0.4,0.2,0.6l-2.2,6.1c0,0,0.1,0.1,0.1,0.1c0.2,0.2,0.1,0.4,0,0.6l-7.4,7
		c-0.1,0.1-0.2,0.2-0.3,0.2h-10.2C544.5,342,544.4,341.9,544.3,341.8z M561.6,334h-21.7l3,4.3l1.9,2.7h9.9L561.6,334z M563.8,327.5
		L557,323h-15v11h19.7L563.8,327.5z"/>
</g>
<g>
	<path fill="#FFFFFF" d="M557,334.1c0,0,0-0.2,0-0.4v-9c0-0.2,0-0.4,0-0.4s0,0.2,0,0.4v9C557,333.9,557,334.1,557,334.1z"/>
</g>
<g>
	<path fill="#FFFFFF" d="M541.5,338h17.2c0.2,0,0.4-0.3,0.4-0.5s-0.2-0.5-0.4-0.5h-17.2c-0.2,0-0.4,0.3-0.4,0.5S541.3,338,541.5,338
		z"/>
</g>
<g>
	<path fill="#FFFFFF" d="M552,341.5c0.2,0,1-0.2,1-0.4v-6.6c0-0.2-0.8-0.4-1-0.4s-1,0.2-1,0.4v6.6C551,341.3,551.8,341.5,552,341.5z
		"/>
</g>
<g>
	<path fill="#FFFFFF" d="M546,341.5c0,0,0-0.2,0-0.4v-6.6c0-0.2,0-0.4,0-0.4s0,0.2,0,0.4v6.6C546,341.3,546,341.5,546,341.5z"/>
</g>
<polygon fill="#C1272D" points="586.9,414.6 578.6,415.8 578,410.7 586.6,409.3 "/>
<polygon fill="none" points="558,451 549.4,451 552.4,417.3 "/>
<polygon fill="#2F2F46" points="552.4,417.3 549.4,451 539.4,451 538.3,406.3 568,406.1 569.2,451 558,451 "/>
<path fill="#1E2038" d="M563,439.4h5.1c1.5,0,2.7-1.2,2.7-2.7v-13.8c0-1.5-1.2-2.7-2.7-2.7H563c-1.5,0-2.7,1.2-2.7,2.7v13.8
	C560.4,438.2,561.6,439.4,563,439.4z"/>
<path fill="#1E2038" d="M538.2,439.4h5.1c1.5,0,2.7-1.2,2.7-2.7v-13.8c0-1.5-1.2-2.7-2.7-2.7h-5.1c-1.5,0-2.7,1.2-2.7,2.7v13.8
	C535.5,438.2,536.7,439.4,538.2,439.4z"/>
<g>
	<path fill="#F8F8F8" d="M543.5,367.5c2.5,0,3-1.2,3.5-2.5h2.1v20.2H546v-15.4h-2.5V367.5z"/>
	<path fill="#F8F8F8" d="M557.6,385.4c-3.2,0-5-1.8-5-5.1v-1.6c0-1.9,0.6-3.4,2-4.2c-1.3-0.7-2-2.1-2-4.1v-0.6c0-3.2,1.8-5.1,5-5.1
		c3.2,0,5,1.8,5,5.1v0.6c0,2-0.7,3.3-2,4.1c1.4,0.8,2,2.3,2,4.2v1.6C562.5,383.6,560.8,385.4,557.6,385.4z M555.8,371.1
		c0,1.6,0.8,2.1,1.8,2.1c1,0,1.8-0.5,1.8-2.1v-1.1c0-1.8-0.8-2.3-1.8-2.3s-1.8,0.5-1.8,2.3V371.1z M557.6,382.5c1,0,1.8-0.5,1.8-2.3
		v-1.9c0-1.6-0.7-2.3-1.8-2.3c-1.1,0-1.8,0.7-1.8,2.3v1.9C555.8,382,556.6,382.5,557.6,382.5z"/>
</g>
<rect x="254.9" y="396.6" fill="#FFFFFF" width="118" height="104.4"/>
<g>
	<path fill="#009245" d="M304.1,418.9c-2.7,0.4-5.1,1.4-7.2,3.2c-2.5,2.2-4.4,5-5.7,8.1c-2.3,5.4-2.3,10.9-0.9,16.5
		c0.2,0.7,0,1-0.7,0.9c-0.9,0-1.8,0-2.7,0.1c0,0-0.1,0.1-0.2,0.1c0.3,1.1,1,1.9,1.8,2.6c0.5,0.4,1,0.8,1.5,1c0.7,0.3,0.9,0.8,1,1.5
		c0,0.4,0.1,0.7,0.2,1.1c0.1,1.1,0.8,1.3,1.6,1.3c1-0.1,1.5,0.4,2,1.1c1.2,1.5,1.4,3,0.8,4.9c-0.6,1.8-0.8,3.6-1.3,5.5
		c-0.9,0-1.8,0.1-2.6,0.1c-7.9,0-15.9,0-23.8,0c-0.3,0-0.6,0-1,0c0-0.2,0-0.4,0-0.6c0.1-0.3,0.3-0.6,0.3-0.9c0.9-4,1.8-8,2.6-12
		c2.4-10.7,4.7-21.5,7.1-32.2c0.4-1.9,0.8-3.8,1.3-5.6c8.6,0,17.1,0,25.7,0C304.1,416.7,304.1,417.8,304.1,418.9L304.1,418.9z"/>
	<path fill="#009245" d="M362.9,436.5c-1.8,1.5-3.6,3-5.4,4.6c-4.3,3.6-8.5,7.3-12.7,10.9c-3.1,2.6-6.1,5.3-9.2,7.9
		c-2.7,2.3-5.4,4.6-8.3,7.1c0.3-1.6,0.6-3,0.9-4.3c2.3-10.6,4.7-21.2,7-31.8c1.1-5.2,2.3-10.4,3.5-15.6c0.1,0,0.1,0,0.2,0
		c0.6,0.6,1.3,1.2,1.9,1.8c2.8,2.5,5.7,5,8.5,7.4c2.9,2.5,5.7,5,8.6,7.5c1.7,1.5,3.4,2.9,5.1,4.4
		C362.9,436.4,362.9,436.5,362.9,436.5z"/>
	<path fill="#009245" d="M335.7,415.3c-0.5,2.2-0.9,4.4-1.4,6.6c-2,9.2-4,18.3-6,27.5c-1.2,5.6-2.5,11.2-3.7,16.9
		c-0.1,0.5-0.3,0.7-0.8,0.7c-8.2,0-16.3,0-24.5,0c-0.7,0-1.3-0.1-2.2-0.1c0.5-1.9,0.9-3.7,1.3-5.6c1,0.8,1.9,1.5,2.8,2.2
		c2.4,1.8,6.4,2,9,0.5c3.4-1.9,5.9-4.7,7.9-8c0.3-0.5,0.6-0.8,1.2-0.5c0.8,0.4,1.6-0.1,1.7-1c0.1-0.3,0.1-0.6,0.1-0.9
		c0.1-1.3,0.7-2.2,2-2.7c1.4-0.6,2.4-1.7,2.6-3.4c-1.3,0-2.5,0-3.9,0c0.1-1.1,0.3-2,0.4-3c0.4-3.1,0.6-6.3-0.1-9.4
		c-0.4-1.8-1.3-3.5-2-5.2c-1-2.4-2.2-4.6-4-6.4c-2-2.1-4.4-3.7-7.3-4.3c-0.1,0-0.3,0-0.3,0c0,3,0,6,0,9.1c1.3,0,2.5,0,3.8,0
		c0,1.3,0,2.5,0,3.7c-4.2,0-8.4,0-12.8,0c0-1.2,0-2.2,0-3.3c0-0.1,0.3-0.4,0.5-0.4c1-0.1,2-0.1,2.9-0.1c0.6,0,0.8-0.2,0.8-0.8
		c0-1.9,0-3.7,0-5.6c0-1,0.1-1.9,0.1-2.9l0,0c1.2,0,2.4,0,3.6,0.1c0.8,0.1,0.9-0.2,0.9-0.9c0-0.6,0-1.1,0-1.7
		c-0.1-0.7,0.1-1.1,0.9-1c0.3,0,0.7-0.1,1-0.2C318.9,415.3,327.3,415.3,335.7,415.3z"/>
	<path fill="#009245" d="M309.4,487.8c-0.4-0.1-0.8-0.2-1.2-0.3c-1.3-0.4-1.9-1.3-1.5-2.6c0.8-2.6,1.7-5.2,2.6-7.8
		c0.5-1.6,1.1-3.2,1.6-4.8c0.4-1.1,1-1.5,2.1-1.5c4.4,0,8.7,0,13.1,0c1.7,0,2.6,1,2.3,2.7c-0.2,1.2-0.7,2.3-1,3.5
		c-0.4,1.2-0.9,2.4-1.3,3.6c-0.2,0.6-0.5,0.7-1,0.7c-4,0-8,0-12,0c-0.8,0-1.7,1.5-1.3,2.2c0.2,0.3,0.7,0.4,1,0.4c3.7,0,7.3,0,11,0
		c0.3,0,0.6,0,1,0c-0.4,1.4-0.8,2.7-1.2,4C318.9,487.8,314.1,487.8,309.4,487.8z M313.7,477.3c0.5,0,0.8,0,1.1,0c2.2,0,4.4,0,6.5,0
		c1.4,0,1.5-0.1,1.8-1.5c0.1-0.8-0.1-1.2-0.9-1.2c-2.3,0-4.5,0-6.8,0c-0.4,0-0.9,0.3-1.1,0.6C314.1,475.9,314,476.5,313.7,477.3z"/>
	<path fill="#009245" d="M342.6,487.8c-1.6-0.8-2-1.9-1.5-3.6c0.6-1.8,1.2-3.7,1.9-5.5c0.4-1.2,1.2-1.8,2.5-1.8c3.4,0,6.9,0,10.3,0
		c0.8,0,1.5-0.9,1.3-1.7c-0.2-0.6-0.7-0.6-1.2-0.6c-2.8,0-5.7,0-8.5,0c-1,0-1.9,0-3,0c0.4-1.3,0.8-2.5,1.3-3.7
		c0-0.1,0.3-0.2,0.5-0.2c4.8,0,9.6,0,14.4,0c1.3,0,2.2,1.1,1.8,2.5c-0.4,1.5-0.9,2.9-1.4,4.4c-1.2,3.4-2.4,6.8-3.5,10.1
		C352.5,487.8,347.6,487.8,342.6,487.8z M355.4,480.8c-0.4,0-0.7,0-1,0c-2,0-3.9,0-5.9,0c-1.5,0-2,0.4-2.4,1.9
		c-0.2,0.7,0.1,1.1,0.9,1.1c2.3,0,4.5,0,6.8,0c0.2,0,0.5-0.2,0.6-0.3C354.8,482.6,355,481.8,355.4,480.8z"/>
	<path fill="#009245" d="M269.2,487.8c-1.8-0.8-2.3-1.6-1.6-3.6c1.3-4,2.8-8,4.2-12c0.3-1,1.2-1.4,2.1-1.4c4.3,0,8.7,0,13,0
		c1.7,0,2.5,1.2,2,3.1c-0.4,1.5-0.9,2.9-1.4,4.4c-0.8,2.3-1.7,4.6-2.4,7c-0.4,1.2-1,2.2-2.2,2.5
		C278.2,487.8,273.7,487.8,269.2,487.8z M276.7,483.8c1,0,2,0,3,0c0.8,0,1.4-0.4,1.7-1.1c0.8-2.2,1.6-4.5,2.4-6.8
		c0.3-0.8-0.1-1.3-1-1.3c-1.5,0-3.1,0-4.6,0c-2.7,0-2.7,0-3.6,2.5c-0.6,1.7-1.2,3.4-1.8,5.1c-0.4,1.1,0,1.6,1.1,1.6
		C274.8,483.8,275.7,483.8,276.7,483.8z"/>
	<path fill="#009245" d="M286.3,487.8c1.9-5.5,3.8-11.1,5.8-16.6c0.1-0.2,0.4-0.4,0.6-0.4c4.7,0,9.5,0,14.2,0c1.4,0,2.1,0.8,2,2.2
		c0,0.7-0.1,1.3-0.4,1.9c-1.5,4.3-3,8.6-4.6,12.9c-1.5,0-3,0-4.5,0c1.4-3.9,2.7-7.8,4.1-11.7c0.3-1,0-1.4-1-1.4c-1.8,0-3.6,0-5.4,0
		c-1.6,0-1.9,0.3-2.4,1.7c-1.3,3.8-2.6,7.6-4,11.4C289.2,487.8,287.7,487.8,286.3,487.8z"/>
	<path fill="#009245" d="M324.6,487.8c1.9-5.5,3.9-11.1,5.8-16.6c0.1-0.2,0.4-0.5,0.6-0.5c4.2,0,8.3,0,12.7,0
		c-0.4,1.3-0.8,2.5-1.3,3.7c-0.1,0.1-0.5,0.2-0.7,0.2c-2.3,0-4.7,0-7,0c-0.7,0-1.1,0.2-1.3,0.9c-0.1,0.4-0.3,0.8-0.5,1.4
		c2.9,0,5.7,0,8.6,0c-0.5,1.3-0.8,2.4-1.3,3.5c-0.1,0.2-0.5,0.3-0.8,0.3c-2.4,0-4.7,0-7.1,0c-0.7,0-0.9,0.2-1.1,0.8
		c-0.7,2.1-1.5,4.1-2.2,6.2C327.5,487.8,326.1,487.8,324.6,487.8z"/>
	<path fill="#009245" d="M294.6,438.7c0,2.3,0,4.4,0,6.5c-1.1,0-2,0-2.9,0c-0.1,0-0.3-0.3-0.3-0.5c0-2.1,0-4.2,0-6.3
		c0-0.2,0.2-0.5,0.3-0.7c1.3-1.3,2.6-2.7,3.9-4c0.3-0.3,0.7-0.5,1.1-0.5c6.5,0,12.9,0.1,19.4,0.1c0.3,0,0.7,0.2,1,0.4
		c1.2,1.1,2.4,2.3,3.5,3.5c0.2,0.2,0.4,0.6,0.4,1c0.1,2.1,0.1,4.1,0.1,6.2c0,0.5-0.1,0.7-0.7,0.7c-0.7,0-1.4,0-2.2,0
		c0-1.4,0-2.8,0-4.1c0-0.6-0.2-1.3-0.4-1.8c-0.3-0.8-1.1-0.9-1.8-0.3c-0.2,0.2-0.5,0.4-0.8,0.4c-1.6,0-3.1,0.1-4.7,0
		c-0.5,0-1.1-0.5-1.7-0.9c-0.6,0.4-1.2,0.9-1.1,1.9c0.1,1.4,0,2.8,0,4.1c0,0.6-0.2,0.8-0.7,0.7c-0.4,0-0.9,0-1.4,0c-1,0-1,0-1.1-1.1
		c-0.1-1.4-0.1-2.7-0.2-4.1c0-0.6-0.3-1-0.9-1.2c-0.5-0.2-0.9-0.2-1.3,0.2c-0.5,0.5-1.1,0.7-1.9,0.7c-1.2-0.1-2.5,0-3.7,0
		c-0.4,0-0.9,0-1.1-0.6C295.6,439,295.1,438.9,294.6,438.7z"/>
	<path fill="#009245" d="M296.3,454.2c6.7,2.9,13.4,2.3,20.1-0.2c-0.1,1-0.6,1.6-1.2,2.1c-0.9,0.6-2,1.2-3,1.6
		c-0.4,0.2-0.6,0.3-0.6,0.8c0,2.1,0.1,1.7-1.7,1.7c-2.7,0-5.4,0-8.1,0c-0.7,0-1-0.2-1-0.9c0.1-1.1-0.4-1.6-1.4-1.9
		C298.1,456.8,296.9,455.8,296.3,454.2z"/>
	<path fill="#009245" d="M310.6,453c-2.8,0-5.5,0-8.2,0c-0.2,0-0.5-0.3-0.5-0.5c0-1,0-2,0-3c0-0.4,0.2-0.6,0.6-0.6c2.5,0,5,0,7.5,0
		c0.2,0,0.6,0.3,0.6,0.5C310.6,450.6,310.6,451.8,310.6,453z"/>
	<path fill="#009245" d="M313.4,452.5c0-1.1,0-2.2,0-3.2c0-0.1,0.3-0.4,0.4-0.4c2,0,4,0,6.3,0C318.2,450.9,316.1,452,313.4,452.5z"
		/>
	<path fill="#009245" d="M299,452.3c-2.5-0.4-4.5-1.4-6.1-3.4c0.5,0,0.9,0,1.4,0c1.3,0,2.6,0,4,0c0.5,0,0.7,0.1,0.7,0.7
		C299,450.5,299,451.3,299,452.3z"/>
</g>
<ellipse fill="#E0A984" cx="277.4" cy="397.7" rx="6.1" ry="4.5"/>
<ellipse fill="#E0A984" cx="260.2" cy="397.7" rx="6.1" ry="4.5"/>
<ellipse fill="#E0A984" cx="338.1" cy="397.7" rx="6.1" ry="4.5"/>
<ellipse fill="#E0A984" cx="367.6" cy="396.9" rx="6.1" ry="4.5"/>
</svg>
