<?xml version="1.0" encoding="utf-8"?>
<!-- Generator: Adobe Illustrator 18.1.1, SVG Export Plug-In . SVG Version: 6.00 Build 0)  -->
<svg version="1.1" id="Layer_1" xmlns="http://www.w3.org/2000/svg" xmlns:xlink="http://www.w3.org/1999/xlink" x="0px" y="0px"
	 viewBox="5 52 602 679" enable-background="new 5 52 602 679" xml:space="preserve">
<polygon fill="#009245" points="10,58 10,471.8 423.3,58 "/>
<polygon fill="#E41F29" points="601,361.7 238,724 601,724 "/>
<polygon fill="#FFFFFF" points="601,58 423.3,58 10,471.8 10,724 238,724 601,361.7 "/>
<g>
	<path fill="#FFFFFF" d="M69.9,169.2l6-5.7c2.2-2.1,4.1-2.9,5.7-2.8c1.4,0,2.7,0.6,3.9,1.8l0,0c1.7,1.8,2,3.9,1.2,6l6.8,1.4
		l-4.6,4.5l-5.6-1.3l0,0l-0.8,0.8l3.3,3.5l-4.1,3.9L69.9,169.2z M81.3,169.4c1-0.9,1.2-1.9,0.4-2.7l0,0c-0.8-0.8-1.7-0.6-2.7,0.3
		l-1.8,1.7l2.3,2.4L81.3,169.4z"/>
	<path fill="#FFFFFF" d="M88.7,164l-6.5-6.7l4.1-4l6.4,6.7c1.5,1.5,2.9,1.4,4,0.4s1.3-2.4-0.1-3.9l-6.5-6.8l4.1-4l6.4,6.6
		c4,4.2,3.1,8.1-0.5,11.6C96.5,167.5,92.6,168.1,88.7,164z"/>
	<path fill="#FFFFFF" d="M95.6,144.5l6.8-6.6c1.7-1.6,3.1-2.3,4.5-2.2c0.9,0,1.8,0.3,2.6,1.2l0,0c1.4,1.4,1.4,3.2,0.5,4.9
		c2-1.1,3.8-1.2,5.4,0.5l0,0c1.9,2,1.6,4.9-1.4,7.9l-6.8,6.5L95.6,144.5z M105.9,143.8c0.9-0.8,1-1.5,0.5-2.1l0,0
		c-0.5-0.5-1.2-0.4-2.1,0.4l-1.8,1.7l1.6,1.7L105.9,143.8z M110.3,147.8c0.9-0.9,1-1.7,0.5-2.2l0,0c-0.5-0.5-1.3-0.5-2.2,0.4l-2.1,2
		l1.7,1.8L110.3,147.8z"/>
	<path fill="#FFFFFF" d="M107.9,132.6l10.4-10l3.2,3.3l-6.4,6.1l1.2,1.2l6-5.7l2.8,2.9l-6,5.7l1.3,1.3l6.5-6.2l3.2,3.3l-10.5,10.1
		L107.9,132.6z M109.2,123.7l4.8-2.7l-0.6,5.1l-2.6,2.5L109.2,123.7z"/>
	<path fill="#FFFFFF" d="M119.5,121.5l3.8-3.7l9.5,1.2l-5.2-5.4l4-3.9l11.7,12.2l-3.6,3.5l-9.9-1.3l5.4,5.6l-4,3.9L119.5,121.5z"/>
	<path fill="#FFFFFF" d="M75.6,201.5l10.4-10c6.1-5.9,12.9-7.2,18.2-1.7l0.1,0.1c5.3,5.6,3.9,12.6-2.3,18.6l-2.5,2.4l6,6.3l-7.7,7.4
		L75.6,201.5z M96.2,203.4c2-1.9,2.4-4,0.9-5.7l-0.1-0.1c-1.6-1.7-3.7-1.4-5.7,0.6l-2.1,2l4.9,5.1L96.2,203.4z"/>
	<path fill="#FFFFFF" d="M109.9,192.9l-12.2-12.7l7.8-7.5l12.1,12.6c2.7,2.9,5.4,2.7,7.5,0.7c2.1-2,2.5-4.5-0.2-7.3l-12.3-12.8
		l7.8-7.5l12,12.5c7.5,7.9,5.9,15.3-0.9,21.9C124.7,199.5,117.2,200.6,109.9,192.9z"/>
	<path fill="#FFFFFF" d="M129.8,149.1l7.6-7.3l32,13.9l-8.4,8l-4.2-1.9l-8.1,7.7l1.8,4.2l-8.2,7.9L129.8,149.1z M149.7,158.1
		l-7.5-3.6l3.3,7.6L149.7,158.1z"/>
	<path fill="#FFFFFF" d="M164.8,153.4l-0.6-8.9c4.3-0.5,8-2.5,10.6-5c1.4-1.3,1.6-2.3,1-2.9l-0.1-0.1c-0.6-0.7-1.7-0.3-4.6,1.6
		c-6.2,3.9-12.1,6.8-16.8,1.9l-0.1-0.1c-4.2-4.4-4-11,2.3-17.1c4.4-4.3,8.7-6.4,13.4-6.8l1.2,8.8c-3.7,0.5-7,2.3-9.1,4.4
		c-1.2,1.1-1.3,2-0.8,2.6l0.1,0.1c0.6,0.6,1.6,0.4,4.5-1.5c6.9-4.6,12.5-6.6,17-2l0.1,0.1c4.6,4.8,3.5,11.6-2.7,17.6
		C175.7,150.4,170.2,153.2,164.8,153.4z"/>
	<path fill="#FFFFFF" d="M97.4,257.7L97.4,257.7c-4.7-4.9-4.4-12.6,0.7-17.6c5.2-5,12.8-4.9,17.5-0.1l0,0c4.7,4.9,4.4,12.6-0.8,17.5
		C109.7,262.6,102,262.6,97.4,257.7z M110,245.6L110,245.6c-2-2-5-2.5-7.2-0.5c-2.1,2-1.8,5.1,0.1,7.1l0,0c1.9,2,5,2.5,7.1,0.4
		C112.2,250.6,111.9,247.6,110,245.6z"/>
	<path fill="#FFFFFF" d="M109.1,230.3l5.6-5.4l11.5,12l7.9-7.6l4.6,4.8L125.2,247L109.1,230.3z"/>
	<path fill="#FFFFFF" d="M123.8,216.1l5.6-5.4l16.1,16.7l-5.6,5.4L123.8,216.1z"/>
	<path fill="#FFFFFF" d="M130.2,210l6.3-6l12.3,6.3l-5.8-12.5l6.2-5.9l9.4,23.4l-5.4,5.1L130.2,210z"/>
	<path fill="#FFFFFF" d="M153.2,187.7l5.5-5.3l23.3,10.1l-6.1,5.8l-3-1.4l-5.9,5.6l1.3,3.1l-6,5.7L153.2,187.7z M167.6,194.3
		l-5.4-2.6l2.4,5.5L167.6,194.3z"/>
	<path fill="#FFFFFF" d="M166.6,175.1l8.2-7.9c3-2.8,5.6-3.9,7.9-3.9c2,0,3.7,0.8,5.3,2.5l0,0c2.3,2.4,2.7,5.4,1.6,8.3l9.4,2
		l-6.4,6.1l-7.8-1.8l0,0l-1.1,1.1l4.6,4.8l-5.6,5.4L166.6,175.1z M182.3,175.3c1.3-1.3,1.6-2.7,0.6-3.7l0,0c-1-1.1-2.4-0.8-3.7,0.4
		l-2.4,2.3l3.1,3.3L182.3,175.3z"/>
	<path fill="#FFFFFF" d="M183.7,158.6l14.3-13.7l4.4,4.6l-8.8,8.4l1.6,1.7l8.2-7.9l3.9,4l-8.2,7.9l1.7,1.8l8.9-8.5l4.4,4.6
		l-14.4,13.8L183.7,158.6z"/>
	<path fill="#FFFFFF" d="M211.9,158.9l-0.4-6.4c3.2-0.4,5.8-1.8,7.7-3.7c1-1,1.2-1.6,0.7-2.1l0,0c-0.5-0.5-1.2-0.2-3.4,1.1
		c-4.5,2.8-8.8,4.9-12.2,1.4l0,0c-3.1-3.2-2.9-8,1.7-12.5c3.2-3.1,6.4-4.6,9.8-5l0.9,6.4c-2.7,0.4-5.1,1.7-6.6,3.2
		c-0.8,0.8-0.9,1.5-0.6,1.9l0,0c0.4,0.5,1.2,0.3,3.3-1.1c5-3.3,9.1-4.8,12.3-1.5l0,0c3.4,3.5,2.5,8.4-1.9,12.8
		C219.8,156.8,215.8,158.7,211.9,158.9z"/>
</g>
<g>
	<g>
		<path fill="#603813" d="M84,633.7l-0.2-0.2c-18.7-18.7-18.1-47.2,0.6-65.9c13.8-13.8,29.8-16.4,44.6-12.1l-7.2,27.4
			c-6.8-2.1-13.2-2-18.9,3.7c-7.1,7.1-5.5,17.9,2,25.4l0.2,0.2c8.1,8.1,18.7,9,25.6,2.1c5.9-5.9,6-12.4,3.9-19.7l27-7.5
			c4,14.6,2.9,30.9-12.7,46.5C131.5,651,103.4,653.1,84,633.7z"/>
		<path fill="#603813" d="M138.9,514.9l20.7-20.7l89.4,36.6l-22.7,22.7l-11.7-5.1l-21.9,21.9l5.2,11.6l-22.3,22.3L138.9,514.9z
			 M194.6,538.8l-20.9-9.5l9.5,20.9L194.6,538.8z"/>
		<path fill="#603813" d="M189,465.7l21.8-21.8l35.4,8.6l-8.6-35.4l21.8-21.8l62.6,62.6l-20.8,20.8l-31-31l7.9,36.6l-0.4,0.4
			l-36.6-7.9l31,31l-20.5,20.5L189,465.7z"/>
		<path fill="#603813" d="M266.7,388l28.2-28.2c16.6-16.6,35.4-20.6,50.2-5.7l0.2,0.2c15.1,15.1,11.6,34.7-5.3,51.6l-6.8,6.8l17,17
			l-20.9,20.9L266.7,388z M323.9,392.2c5.4-5.4,6.5-11.3,2.1-15.8l-0.2-0.2c-4.6-4.6-10.2-3.6-15.7,2l-5.7,5.7l13.9,13.9
			L323.9,392.2z"/>
		<path fill="#603813" d="M327.3,327.4l53.4-53.4l17.2,17.2L365,324l6.3,6.3l30.6-30.6l15.1,15.1l-30.6,30.6l6.8,6.8l33.3-33.3
			l17.2,17.2L389.9,390L327.3,327.4z"/>
		<path fill="#603813" d="M416.8,300.8l-0.2-0.2c-18.1-18.1-17.7-47.5,1.6-66.8c19.3-19.3,48.4-19.8,66.5-1.6l0.2,0.2
			c18.1,18.1,17.7,47.5-1.6,66.9C464,318.5,434.9,319,416.8,300.8z M464,253.7l-0.2-0.2c-7.4-7.4-19.2-9-27.3-1
			c-8,8-6.3,19.6,1,26.9l0.2,0.2c7.4,7.4,19.2,9,27.3,1C472.9,272.6,471.3,261,464,253.7z"/>
		<path fill="#603813" d="M459.4,195.3l19.6-19.6l49.9,5.4l-27.6-27.6l20.7-20.7l62.6,62.6l-18.6,18.6l-52.1-5.6l28.9,28.9
			l-20.7,20.7L459.4,195.3z"/>
	</g>
	<polygon fill="#603813" points="396.7,206.9 425.8,190.5 422.1,221.5 406,236.9 	"/>
</g>
<g>
	<g>
		<path fill="#FFFFFF" d="M376.6,666.4L376.6,666.4c-5-5-5-12.2-0.4-16.8c3.4-3.4,7.4-3.9,11.3-2.7l-1.6,6.9
			c-1.7-0.6-3.4-0.6-4.8,0.8c-1.7,1.7-1.3,4.5,0.7,6.5l0,0c2.1,2.1,4.8,2.5,6.5,0.8c1.5-1.5,1.4-3.1,0.8-5l6.8-1.7
			c1.1,3.7,1,7.9-2.8,11.7C388.8,671.2,381.7,671.5,376.6,666.4z"/>
		<path fill="#FFFFFF" d="M389.5,636.6l5.1-5.1l23.1,10.1l-5.6,5.6l-3-1.4l-5.4,5.4l1.4,3l-5.5,5.5L389.5,636.6z M403.9,643.2
			l-5.4-2.6l2.6,5.4L403.9,643.2z"/>
		<path fill="#FFFFFF" d="M401.9,624.5l5.4-5.4l9.1,2.5l-2.5-9.1l5.4-5.4l16.5,16.5l-5.1,5.1l-8.2-8.2l2.3,9.4l-0.1,0.1l-9.4-2.3
			l8.2,8.2l-5,5L401.9,624.5z"/>
		<path fill="#FFFFFF" d="M421,605.4l6.9-6.9c4.1-4.1,8.8-4.9,12.7-1l0,0c4,4,3.3,8.9-0.9,13.1l-1.7,1.7l4.5,4.5l-5.1,5.1L421,605.4
			z M435.6,606.9c1.3-1.3,1.6-2.8,0.4-4l0,0c-1.2-1.2-2.6-1-4,0.4l-1.4,1.4l3.7,3.7L435.6,606.9z"/>
		<path fill="#FFFFFF" d="M435.9,590.5l13.1-13.1l4.5,4.5l-8.1,8.1l1.7,1.7l7.5-7.5l4,4l-7.5,7.5l1.8,1.8l8.2-8.2l4.5,4.5
			l-13.2,13.2L435.9,590.5z"/>
		<path fill="#FFFFFF" d="M458.3,584.7L458.3,584.7c-4.8-4.8-5-12.3-0.2-17.1c4.8-4.8,12.1-4.6,16.9,0.2l0,0
			c4.8,4.8,4.9,12.3,0.2,17C470.4,589.6,463,589.5,458.3,584.7z M469.9,573.1L469.9,573.1c-2-2-5-2.5-7-0.5c-2,2-1.4,4.9,0.5,6.9
			l0,0c2,2,5,2.5,6.9,0.5C472.3,578,471.8,575,469.9,573.1z"/>
		<path fill="#FFFFFF" d="M468.2,558.2l4.8-4.8l12.7,1.8l-7.3-7.3l5.1-5.1l16.5,16.5l-4.6,4.6l-13.3-1.9l7.6,7.6l-5.1,5.1
			L468.2,558.2z"/>
		<path fill="#FFFFFF" d="M490.6,535.5l5.1-5.1l23.1,10.1l-5.6,5.6l-3-1.4l-5.4,5.4l1.4,3l-5.5,5.5L490.6,535.5z M505,542.1
			l-5.4-2.6l2.6,5.4L505,542.1z"/>
		<path fill="#FFFFFF" d="M509.6,526.1l-4.5,4.5l-4.7-4.7l14.2-14.2l4.7,4.7l-4.5,4.5l11.8,11.8l-5.1,5.1L509.6,526.1z"/>
		<path fill="#FFFFFF" d="M523.1,519.9L523.1,519.9c-4.8-4.8-5-12.3-0.2-17.1c4.8-4.8,12.1-4.6,16.9,0.2l0,0
			c4.8,4.8,4.9,12.3,0.2,17C535.2,524.8,527.8,524.7,523.1,519.9z M534.7,508.3L534.7,508.3c-2-2-5-2.5-7-0.5c-2,2-1.4,4.9,0.5,6.9
			l0,0c2,2,5,2.5,6.9,0.5C537.1,513.2,536.6,510.2,534.7,508.3z"/>
	</g>
	<g>
		<path fill="#FFFFFF" d="M422.6,667.9l6-6l10.2,2.8l-2.8-10.2l6-6l18.5,18.5l-5.7,5.7l-9.2-9.2l2.6,10.5l-0.1,0.1l-10.5-2.6
			l9.2,9.2l-5.7,5.7L422.6,667.9z"/>
		<path fill="#FFFFFF" d="M454,656.8l-10.2-10.2l5.9-5.9l10.1,10.1c2.3,2.3,4.4,2.2,5.9,0.6c1.6-1.6,1.8-3.6-0.5-5.8l-10.2-10.2
			l5.9-5.9l10.1,10.1c6.3,6.3,5.4,12.2,0.2,17.4C466,662.1,460.2,662.9,454,656.8z"/>
		<path fill="#FFFFFF" d="M462.8,627.7l5.4-5.4l14.3,2l-8.2-8.2l5.7-5.7l18.5,18.5l-5.1,5.1l-14.9-2.1l8.5,8.5l-5.7,5.7L462.8,627.7
			z"/>
		<path fill="#FFFFFF" d="M482,608.5l6.6-6.6c6.9-6.9,13.9-6.7,19.4-1.2l0.1,0.1c5.5,5.5,5.8,12.8-1.1,19.8l-6.4,6.4L482,608.5z
			 M501.8,614.8c2.6-2.6,3.2-5.5,0.5-8.2l-0.1-0.1c-2.7-2.7-5.5-2.1-8.2,0.5l-1,1l7.7,7.7L501.8,614.8z"/>
		<path fill="#FFFFFF" d="M500.6,589.9l5.8-5.8l18.5,18.5l-5.8,5.8L500.6,589.9z"/>
		<path fill="#FFFFFF" d="M514.3,576l5.7-5.7l25.9,11.3l-6.3,6.3l-3.4-1.6l-6,6l1.6,3.4l-6.2,6.2L514.3,576z M530.4,583.3l-6.1-2.9
			l2.9,6.1L530.4,583.3z"/>
		<path fill="#FFFFFF" d="M528.1,562.4l5.8-5.8l13.2,13.2l8.1-8.1l5.3,5.3l-13.9,13.9L528.1,562.4z"/>
	</g>
	<g>
		<path fill="#FFFFFF" d="M475.6,697.4L475.6,697.4c-6-6-6.1-14.8-0.2-20.7c3.2-3.2,6.9-4.6,10.8-4.8l1,8c-2.3,0.1-4.3,0.8-5.9,2.4
			c-2.4,2.4-2.2,6.2,0.5,8.9l0.1,0.1c2.8,2.8,6.6,2.9,9.2,0.3c1.1-1.1,1.5-1.8,1.7-2.6l-2-2l-3.2,3.2l-4.3-4.3l9-9l9.2,9.2
			c-0.3,3.8-1.9,7.8-5.2,11.2C490.6,703.1,481.7,703.6,475.6,697.4z"/>
		<path fill="#FFFFFF" d="M492.4,660.2l6.2-6.2l27.9,12.2l-6.8,6.8l-3.7-1.7l-6.5,6.5l1.7,3.6l-6.7,6.7L492.4,660.2z M509.8,668.1
			l-6.5-3.1l3.1,6.5L509.8,668.1z"/>
		<path fill="#FFFFFF" d="M507.4,645.5l6.2-6.2l14.2,14.2l8.8-8.8l5.7,5.7l-15,15L507.4,645.5z"/>
		<path fill="#FFFFFF" d="M523.7,629.1l6.2-6.2l14.2,14.2l8.8-8.8l5.7,5.7l-15,15L523.7,629.1z"/>
		<path fill="#FFFFFF" d="M548.6,624.3L548.6,624.3c-5.8-5.8-6-14.9-0.3-20.7c5.8-5.8,14.7-5.6,20.5,0.2l0.1,0.1
			c5.8,5.8,5.9,14.8,0.2,20.6C563.4,630.2,554.4,630.1,548.6,624.3z M562.7,610.2L562.7,610.2c-2.4-2.4-6.1-3-8.5-0.6
			c-2.4,2.4-1.8,6,0.6,8.3l0.1,0.1c2.4,2.4,6,3,8.4,0.6C565.7,616.2,565,612.6,562.7,610.2z"/>
	</g>
</g>
<g>
	<path fill="#F1B88D" d="M253.9,256.2"/>
	<g>
		<path fill="#E0A984" d="M257.1,214c12.3-7.7,75.2-24.6,121.3-0.9c-16.4,103.9-4.3,195-4.3,195s-40.3,2.9-106-0.4
			C268.1,407.7,274.4,317.5,257.1,214z"/>
		<path fill="#E0A984" d="M356.7,108.9v80.8h-12.3v26.6c0,0-13.8,27.1-47.6,0v-55.3c0,0-10.2-2-10.2-13.8c0-11.8,11.8-6.1,11.8-6.1
			v-32.2H356.7z"/>
		<path fill="#1A1A1A" d="M310.4,113.7c1.6-0.2,9.2-1,10.8-1.4c4.2-0.9,8.5-1,12.7-1.1c5-0.1,10-0.3,15.1-0.4c1.6,0,3.3-0.1,4.7,0.7
			s2.4,2.7,1.6,4.2c1.8,0.1,3.5-1.4,4.2-3.1c0.7-1.8,0.5-3.8,0.7-5.7c3.7-30.9-44.7-25.1-44.7-25.1c-6.5-0.2-17.4,7.4-23.2,10.5
			c-8.1,4.4-8.6,15.3-10.6,24.7c-2,9.4-0.1,19.7,5.2,27.6c0.2-1.6,1.8-2.7,3.3-3.1c2-0.5,4.4-0.2,5.9,1.3c1.5,1.5,1.9,4.4,0.4,6
			c2,0.2,4.1,0.3,6.1,0.5c0.6-6.1,0.6-12.3-0.1-18.4C302.5,130.8,299.7,115,310.4,113.7z"/>
		<polygon fill="#E0A984" points="257.1,214 162.2,293.8 245.7,415.5 263.7,390.2 199.2,300.3 264.9,247.8 		"/>
		<polygon fill="#2D2B2C" points="245.7,365.1 226.7,387.9 238.1,404.4 257.2,381.1 		"/>
		<polygon fill="#E0A984" points="378.4,213.1 478.8,286.2 412.8,381.1 393.3,366.3 443.6,292.9 369.7,246.4 		"/>
		<polygon fill="#875C3B" points="284.3,678.8 281,694.2 267.6,694.2 267.6,678.8 		"/>
		<path fill="#231F20" d="M267.6,694.2H281c0,0,5.2,16.9-12.2,17.9h-22.6c0,0-5-10.7,8.5-11.4C254.7,700.7,266.4,698.7,267.6,694.2z
			"/>
		<polygon fill="#E0A984" points="271.3,406.1 265.9,678.8 284.3,678.8 325,448.6 345.6,678.8 363.3,678.8 370.4,404.6 		"/>
		<path fill="#231F20" d="M361.3,694.2h-13.4c0,0-5.2,16.9,12.2,17.9h22.6c0,0,5-10.7-8.5-11.4C374.2,700.7,362.5,698.7,361.3,694.2
			z"/>
		<polygon fill="#875C3B" points="284.3,678.8 281,694.2 267.6,694.2 267.6,678.8 		"/>
		<path fill="#231F20" d="M267.6,694.2H281c0,0,5.2,16.9-12.2,17.9h-22.6c0,0-5-10.7,8.5-11.4C254.7,700.7,266.4,698.7,267.6,694.2z
			"/>
		<path fill="#231F20" d="M361.3,694.2h-13.4c0,0-5.2,16.9,12.2,17.9h22.6c0,0,5-10.7-8.5-11.4C374.2,700.7,362.5,698.7,361.3,694.2
			z"/>
		<polygon fill="#231F20" points="265.9,638.5 292.3,638.5 281.8,697.8 265.9,697.8 		"/>
		<polygon fill="#FFFFFF" points="269.1,405.1 269.1,427.2 373,427.2 374.3,405.7 		"/>
		<polyline fill="#2D2B2C" points="372.9,427.2 378.5,503.3 325.1,503.3 324.2,455.4 320,503.3 263.7,503.3 269.7,427.2 		"/>
		<polygon fill="#231F20" points="365,638.5 340.8,638.6 347.3,697.7 363.3,696.8 		"/>
		<polygon fill="#2D2B2C" points="394.1,361.3 414.1,383.2 403.5,400.2 383.4,377.8 		"/>
		<line fill="none" stroke="#EBEAEA" stroke-width="0.5" stroke-miterlimit="10" x1="391.6" y1="365.1" x2="412.2" y2="386.1"/>
		<path fill="#2D2B2C" d="M257.2,381.1c0,0,11.1-8.4,13.8,3.7c2.7,12.1,13.6,44.2-9.8,45.8c0,0-25,6.1-23.1-26.2
			C238.1,404.4,242,378.3,257.2,381.1z"/>
		<path fill="#2D2B2C" d="M383.4,377.8c0,0-11.4-7.9-13.6,4.3c-2.2,12.2-11.6,44.8,11.9,45.3c0,0,25.3,4.9,21.9-27.3
			C403.5,400.2,398.4,374.3,383.4,377.8z"/>
		<path fill="#1A1A1A" d="M339.6,106.5c0,0-9.6,25.5-29.6,31.5c0,0,7.7-10.5,8.7-20.5c0.9-10-1.8-0.9-1.8-0.9s-4.1,16-17.1,23
			c0,0-12.1-23,1.6-29.9S339.6,106.5,339.6,106.5z"/>
		<path fill="#1A1A1A" d="M350.1,107.8l6.8,26.4c0,0,7.3-31.5,2.3-40.1C354.2,85.5,347.4,97.8,350.1,107.8z"/>
		<path fill="#1A1A1A" d="M332.8,116l-0.5,8.2c0,0,21.9-9.1,21.9-14.1S332.8,100.1,332.8,116z"/>
	</g>
	<line fill="none" stroke="#EBEAEA" stroke-width="0.5" stroke-miterlimit="10" x1="228.2" y1="390" x2="247.4" y2="367.5"/>
</g>
</svg>
