<?xml version="1.0" encoding="utf-8"?>
<!-- Generator: Adobe Illustrator 18.1.1, SVG Export Plug-In . SVG Version: 6.00 Build 0)  -->
<svg version="1.1" id="Layer_1" xmlns="http://www.w3.org/2000/svg" xmlns:xlink="http://www.w3.org/1999/xlink" x="0px" y="0px"
	 viewBox="0 102 612 599" enable-background="new 0 102 612 599" xml:space="preserve">
<g>
	<path fill="#D89F79" d="M501.7,465.5c0,0-2.1,36.7-10.5,84.9c0,0-18.9,3.1-33.5-7.3c0,0-2.1-38.8,4.2-90.1L501.7,465.5z"/>
	<path fill="#333333" d="M455.5,671c-2.9,0.7-11.8,4.4-21.8,8.8c-8,3.5-5.3,15.5,3.4,15.3l44.3-1.1c1.1,0,2.1-0.6,2.7-1.6
		c1.8-3.4,5-11.5-1.1-19.4c-0.5-0.7-1.4-1.1-2.3-1.1l-24.4-1C456,670.9,455.7,670.9,455.5,671z"/>
	<path fill="#009245" d="M491.8,544.2c0,0-6.8,83.8-8.9,126.8h-22c0,0-7.3-50.3-3.1-127.8C457.7,543.2,478.7,554.7,491.8,544.2z"/>
	<path fill="#D89F79" d="M517,465.5c0,0,2.1,36.7,10.5,84.9c0,0,18.9,3.1,33.5-7.3c0,0,2.1-38.8-4.2-90.1L517,465.5z"/>
	<g>
		
			<ellipse transform="matrix(-0.8456 0.5338 -0.5338 -0.8456 1013.6335 407.6884)" fill="#F7F7F7" cx="447.9" cy="350.4" rx="31.7" ry="34.1"/>
		<polygon fill="#232021" points="449.8,333.6 463.6,344.5 459.3,358.6 443.8,359 437.8,343.8 		"/>
		<path fill="#232021" d="M452.3,317.6l-3.6,5.8l-9.6-6.1C439.1,317.2,447.7,316.1,452.3,317.6z"/>
		<path fill="#232021" d="M419.8,331.1l4.8,12.2l-7.9,11.6C416.7,354.9,411.9,347.5,419.8,331.1z"/>
		<path fill="#232021" d="M474.7,333.5l-0.9,7.2l6.3,4.8C480.1,345.4,478.3,337.4,474.7,333.5z"/>
		<path fill="#232021" d="M428.3,375.6l1.1-4.2l11.1-2.6l4.2,9l-1.6,5.8C443.1,383.5,431.8,380,428.3,375.6z"/>
		<path fill="#232021" d="M475.4,370.3l-8.5-1.1l-0.8,10.1C466.1,379.3,471.2,376.4,475.4,370.3z"/>
		<path fill="#232021" d="M449,322l1.3,13.5C450.3,335.5,448,326.8,449,322z"/>
		<path fill="#232021" d="M438.8,343.9c0,0-8.1-2.3-15.3-0.5C423.6,343.4,433.8,345,438.8,343.9z"/>
		<path fill="#232021" d="M444.8,357.5c0,0-3.3,11.5-5.1,13l-0.3-1c0,0,3.6-7.1,4.8-12.3L444.8,357.5z"/>
		<path fill="#232021" d="M416.8,353.1c0,0,1.3,11.2,14.3,19.2C431.1,372.3,418.3,366.9,416.8,353.1z"/>
		<path fill="#232021" d="M457.6,356.8c0,0,8.9,9.2,10.8,14.8C468.4,371.6,459.5,360.5,457.6,356.8z"/>
		<path fill="#232021" d="M443.4,377.2c0,0,7.9,5.3,23.5,2C466.9,379.2,451,384.4,443.4,377.2z"/>
		<path fill="#232021" d="M475,340.7c0,0-11,5.3-13.6,4.8c0,0,11.3-4.1,13.3-5.9L475,340.7z"/>
	</g>
	<polygon fill="#E0A984" points="440.6,300.7 421.1,316.1 438,374.2 420.4,379.4 396.1,310.2 456.3,246.1 469.7,271.9 	"/>
	<polygon fill="#E0A984" points="560.3,303.4 577.9,321 554,376.7 570.9,383.9 603.4,318.2 551.4,247.2 535,271.2 	"/>
	<path fill="#E0A984" d="M438,374.2c0,0,16.2,11.8,30.2,1.5c0,0-14,35.3-47.9,3.7L438,374.2z"/>
	<path fill="#603813" d="M460.9,160.6c0,0-29.1-7.5-17.9,41.8c0,0-10.2-8.4-10.8-19.2c0,0-7.7,2.2-8.4,17.3c0,0-13.6-61.1,35-54.4
		L460.9,160.6z"/>
	<polygon fill="#009245" points="465.9,160 462.1,160 461.1,143 465.3,143 	"/>
	<polygon fill="#ED1C24" points="462.1,160 458.4,160 456.8,143 461.1,143 	"/>
	<path fill="#603813" d="M540.1,163.7c0,0,29.1-7.5,17.9,41.8c0,0,10.2-8.4,10.8-19.2c0,0,7.7,2.2,8.4,17.3c0,0,13.6-61.1-35-54.4
		L540.1,163.7z"/>
	<path fill="#333333" d="M563.2,671c2.9,0.7,11.8,4.4,21.8,8.8c8,3.5,5.3,15.5-3.4,15.3l-44.3-1.1c-1.1,0-2.1-0.6-2.7-1.6
		c-1.8-3.4-5-11.5,1.1-19.4c0.5-0.7,1.4-1.1,2.3-1.1l24.4-1C562.7,670.9,563,670.9,563.2,671z"/>
	<path fill="#009245" d="M560.3,242.6c-13.7-6.2-52-19.5-103.7-4.3c-1.6,0.5-2.6,2.2-2.1,3.8c3.1,11.2,13.2,56,7.7,154.3
		c-0.1,1.9,1.5,3.5,3.4,3.3c16.7-1.5,86,1.2,86-0.7c-4.4-115.7,4.3-144.7,10-151.7C562.8,245.8,562.2,243.5,560.3,242.6z"/>
	<path fill="#D89F79" d="M469.9,141.5c-1.7,0-3.1,1.5-3,3.2l1.5,52.4c0,17.3,15.3,23.4,22.7,23.8h0l-1.5,20.8
		c-0.1,0.8,0.2,1.5,0.6,2.1c2.8,3.7,13.9,15.3,34.5-2.7c0.7-0.6,1.1-1.4,1.1-2.3l0.5-45.7c0-1.2,0.8-2.3,1.9-2.8
		c2.9-1.3,8-4.7,7.8-13c-0.2-7.1-4.6-7.6-7.9-6.9c-1.9,0.4-3.7-1-3.8-3l-0.6-24c0-1.7-1.5-3.1-3.2-3L469.9,141.5z"/>
	<path fill="#009245" d="M463.2,275.6c-1.5-1.2-3.7-0.8-4.7,0.9c-4.6,8.1-14.4,29.9,5.9,40.1c18.2,9.1,35.2,5,43.2,2.1
		c2.2-0.8,2.7-3.8,0.9-5.3L463.2,275.6z"/>
	<path fill="#603813" d="M489.7,117.1c0,0-2.4,47.4,34.4,50.2c0,0,13.7,3.4,11.7,9.9C535.8,177.2,556.7,109.8,489.7,117.1z"/>
	<path fill="#603813" d="M493.9,138.7c0,0-2.1,22-26.2,30.4c0,0-17.3-51.7,30.4-52.7C498.1,116.4,517,126.1,493.9,138.7z"/>
	<path fill="#603813" d="M521.2,161.7l-1,18.9c0,0,2.8-11.2,12-11C536.9,169.7,529.5,153.4,521.2,161.7z"/>
	<polygon fill="#009245" points="535.2,165 539,165 540,146 535.7,146 	"/>
	<polygon fill="#ED1C24" points="539,165 542.7,165 544.2,146 540,146 	"/>
	<path fill="#ED1C24" d="M489.4,243.1c0,0,3.3,8.5,15.7,8.3s22-10.9,22-10.9v-3.3c0,0-9.9,10-22.9,10.6c-13,0.6-14.3-9.2-14.3-9.2
		L489.4,243.1z"/>
	<path fill="#009245" d="M546,290.3l9.2,10.7l25.4-23c0,0-12.8-31.4-20.4-35.6C552.6,256.3,546,290.3,546,290.3z"/>
	<path fill="#009245" d="M456.6,238.3c0,0-11.7,6.9-19,16.9c0,0,7.1,24.1,22.8,31.4l6.5-12.8L456.6,238.3z"/>
	<polygon fill="#ED1C24" points="555.2,301.1 580.6,278 579.6,274.3 553.1,298.8 	"/>
	<path fill="#ED1C24" d="M437.6,255.2c0,0,4.6,16.7,16.7,27.7l1.7-2.9c0,0-13.4-15.1-16.3-27.5L437.6,255.2z"/>
	<path fill="#FFFFFF" d="M463.5,394h88c0,0,29.9,35.5,26.7,81.5c0,0-79.2,20.9-140.9-3.9C437.3,471.6,443.1,425,463.5,394z"/>
	<path fill="#009245" d="M526.9,544.2c0,0,6.8,83.8,8.9,126.8h22c0,0,7.3-50.3,3.1-127.8C561,543.2,540,554.7,526.9,544.2z"/>
	<path fill="#E0A984" d="M554,376.7c0,0-13,21.8,8,30.2c21,8.4,32.5-8.4,28.3-13.6c-4.2-5.2-8.4,2.1-8.4,2.1l-11-11.4L554,376.7z"/>
</g>
<g>
	<path fill="#FBB03B" d="M163.3,389.1c0,0-3.2-14.7-9.6-16.6c0,0-7-12.8-13.4-21.1c0,0,9.6-10.2,10.9-15.4c0,0-21.8-12.8-19.8-32
		c1.9-19.2,12.2-33.3,10.2-78.7c-1.9-45.4-13.4-35.8-7-49.3c14.7,9,16,1.9,16,1.9s6.4-49.9,0-61.4s-23.7,8.3-23.7,8.3
		s1.9-7.7-19.8-9s-30.7,3.8-30.7,3.8s-19.2-14.1-23.7-9.6c-4.5,4.5-14.1,31.3-18.6,43.5c-4.5,12.2,4.5,27.5,14.7,23.7l8.3,9L68,187
		c0,0,3.2,14.1,7.7,12.8c4.5-1.3,8.3,7.7,4.5,10.9s-11.5,12.8-11.5,20.5s-7.7,21.8,1.9,29.4c0,0-4.5,22.4,10.2,32l-7,11.5
		c0,0,1.9,7,9.6,11.5l-14.1,7.7c0,0-1.3,10.9,6.4,14.1c0,0,0,17.9,13.4,15.4l4.5,5.8c0,0-16,18.6-13.4,27.5
		C80.1,385.9,162.4,388.2,163.3,389.1z"/>
	<path fill="#F7931E" d="M85.3,140.3c0,0,17.3,16,28.1,18.6l-21.1-4.5c0,0,10.9,7,14.7,7L92.3,162l16,19.8c0,0-10.2,1.3-10.2,7.7
		c0,6.4,14.1,25.6,14.1,25.6l-17.3-8.3l-11.5,1.3c0,0,0.6-9-7.7-8.3c0,0,10.2-10.2,11.5-21.1c1.3-10.9-3.2-17.9-3.2-17.9l-14.1,6.4
		C69.9,167.1,87.8,149.9,85.3,140.3z"/>
	<path fill="#F7931E" d="M110.9,227.9c-1.7,0.9,16.6-2.6,24.9-18.6C135.8,209.4,117.3,224.7,110.9,227.9z"/>
	<path fill="#F7931E" d="M110.2,265c0,0,2.6,23-1.9,24.9c-4.5,1.9-7,0-7,0s0.6,7.7,9,4.5C118.5,291.2,110.2,265,110.2,265z"/>
	<path fill="#F7931E" d="M139,222.8l-21.1,16c0,0,10.2,0,16-4.5c0,0,6.4,25.6,0.6,48.6C134.5,282.9,146,248.4,139,222.8z"/>
	<path fill="#F7931E" d="M110.9,291.2c0,0,0.6,34.5,14.7,45.4C125.6,336.7,104.5,323.9,110.9,291.2z"/>
	<path fill="#F7931E" d="M104.5,350.7c0,0-6.4-34.5-1.3-56.9c0,0-5.8,0.6-6.4,19.8S104.5,350.7,104.5,350.7z"/>
	<path fill="#F7931E" d="M81.3,239.8c0,0,7,33.3,10.2,39.7c0,0-19.5,15.2-16,1.3c0.6-2.6-1.3-4-1.3-14.1
		C74.3,264.8,85.1,260.9,81.3,239.8z"/>
	<path fill="#F7931E" d="M85.3,238.8l16,0.6c0,0-14.1-2.6-15.4-7.7c-1.3-5.1-1.3-16-7-18.6c0,0-8.3,5.1-9,10.9c0,0,8.3-2.6,9,8.3
		C79.5,243.3,85.3,238.8,85.3,238.8z"/>
	<path fill="#F7931E" d="M129.4,135.2c0,0,10.9,11.5,4.5,18.6c-6.4,7-14.1,4.5-14.1,4.5S132.6,153.1,129.4,135.2z"/>
	<rect x="74.6" y="383" fill="#B3B3B3" width="89.6" height="21.4"/>
	<g>
		<path fill="#CCCCCC" d="M179.3,517.2c-40.1,17.3-80.2,17.3-120.3,0c22.1-31.5,22.1-62.9,0-94.4c40.1-17.3,80.2-17.3,120.3,0
			C157.3,454.3,157.3,485.7,179.3,517.2z"/>
	</g>
	<path fill="#999999" d="M183.7,525.4H57v-9.3c0-2,1.7-3.7,3.7-3.7H180c2,0,3.7,1.7,3.7,3.7V525.4z"/>
	<path fill="#333333" d="M215.2,556.8H23.6v-25.1c0-6.5,5.2-11.7,11.7-11.7h168.2c6.5,0,11.7,5.2,11.7,11.7V556.8z"/>
	<path fill="#999999" d="M223.9,591.3H14.8v-30.5c0-3.5,2.8-6.3,6.3-6.3h196.5c3.5,0,6.3,2.8,6.3,6.3V591.3z"/>
	<rect x="15.6" y="570.6" fill="#CCCCCC" width="208.3" height="85"/>
	<path fill="#060206" d="M219.4,674H14.9l-4.1-5.3c-3.8-7.7-3.6-16.1,0.5-23.8l3.6-3.8h204.5l6.4,0.4c7.5,10.2,7.4,22.4-0.3,32.5
		H219.4z"/>
	<rect x="14.8" y="626.2" fill="#999999" width="209.1" height="14.9"/>
	<path fill="#999999" d="M58.5,422.8h121v-8c0-10-8.1-18-18-18H76.5c-10,0-18,8.1-18,18V422.8z"/>
</g>
</svg>
