<?xml version="1.0" encoding="utf-8"?>
<!-- Generator: Adobe Illustrator 18.1.1, SVG Export Plug-In . SVG Version: 6.00 Build 0)  -->
<svg version="1.1" id="Layer_1" xmlns="http://www.w3.org/2000/svg" xmlns:xlink="http://www.w3.org/1999/xlink" x="0px" y="0px"
	 viewBox="0 167 600 363" enable-background="new 0 167 600 363" xml:space="preserve">
<g>
	<polygon fill="#808080" points="211.5,276.5 182.4,192.5 193.9,189.1 221.7,271.1 	"/>
	<rect x="472.8" y="290.4" fill="#4D4D4D" width="2.3" height="226.7"/>
	<rect x="360.6" y="402.7" fill="#4D4D4D" width="226.7" height="2.3"/>
	
		<rect x="473.5" y="291.1" transform="matrix(0.7071 0.7071 -0.7071 0.7071 425.0177 -217.1553)" fill="#4D4D4D" width="2.3" height="226.7"/>
	
		<rect x="473.5" y="291.1" transform="matrix(-0.7071 0.7071 -0.7071 -0.7071 1096.2579 354.8432)" fill="#4D4D4D" width="2.3" height="226.7"/>
	
		<rect x="475" y="288.8" transform="matrix(0.9197 0.3927 -0.3927 0.9197 196.1724 -154.671)" fill="#4D4D4D" width="2.3" height="226.7"/>
	
		<rect x="475" y="288.8" transform="matrix(-0.3927 0.9197 -0.9197 -0.3927 1033.0416 122.199)" fill="#4D4D4D" width="2.3" height="226.7"/>
	
		<rect x="475" y="288.8" transform="matrix(0.3727 0.928 -0.928 0.3727 671.9487 -189.5573)" fill="#4D4D4D" width="2.3" height="226.7"/>
	
		<rect x="475" y="288.8" transform="matrix(-0.928 0.3727 -0.3727 -0.928 1067.928 597.9753)" fill="#4D4D4D" width="2.3" height="226.7"/>
	<circle cx="474.3" cy="403.5" r="8.1"/>
	<path d="M474,285c-65.6,0-118.8,53.2-118.8,118.8S408.4,522.6,474,522.6s118.8-53.2,118.8-118.8S539.6,285,474,285z M474,505.4
		c-56.9,0-103-46.1-103-103s46.1-103,103-103s103,46.1,103,103S530.8,505.4,474,505.4z"/>
	<rect x="123.2" y="290.4" fill="#4D4D4D" width="2.3" height="226.7"/>
	<rect x="11" y="402.7" fill="#4D4D4D" width="226.7" height="2.3"/>
	
		<rect x="123.9" y="291.1" transform="matrix(0.7071 0.7071 -0.7071 0.7071 322.6255 30.0412)" fill="#4D4D4D" width="2.3" height="226.7"/>
	
		<rect x="123.9" y="291.1" transform="matrix(-0.7071 0.7071 -0.7071 -0.7071 499.4727 602.0397)" fill="#4D4D4D" width="2.3" height="226.7"/>
	
		<rect x="125.5" y="288.8" transform="matrix(0.9197 0.3927 -0.3927 0.9197 168.0946 -17.4011)" fill="#4D4D4D" width="2.3" height="226.7"/>
	
		<rect x="125.5" y="288.8" transform="matrix(-0.3927 0.9197 -0.9197 -0.3927 546.1831 443.7098)" fill="#4D4D4D" width="2.3" height="226.7"/>
	
		<rect x="125.5" y="288.8" transform="matrix(0.3727 0.928 -0.928 0.3727 452.638 134.8497)" fill="#4D4D4D" width="2.3" height="226.7"/>
	
		<rect x="125.5" y="288.8" transform="matrix(-0.928 0.3727 -0.3727 -0.928 393.9323 728.2533)" fill="#4D4D4D" width="2.3" height="226.7"/>
	<circle cx="124.7" cy="403.5" r="8.1"/>
	<path d="M124.4,285C58.8,285,5.6,338.2,5.6,403.8s53.2,118.8,118.8,118.8s118.8-53.2,118.8-118.8S190,285,124.4,285z M124.4,505.4
		c-56.9,0-103-46.1-103-103s46.1-103,103-103s103,46.1,103,103S181.2,505.4,124.4,505.4z"/>
	<path fill="#FFFFFF" d="M207.9,269.1l16.5,56.2c0,0,29.8,26.4,27.1,100.9l21-14.9l-50.6-144.5L207.9,269.1z"/>
	<polygon points="201.4,264.3 204.1,273.8 226.4,267.7 223.7,260.3 	"/>
	<polygon fill="#333333" points="164.8,187.8 177,202 213.6,197.3 226.4,182.4 221.7,181.7 212.2,194.6 178.3,198.6 168.9,185.7 	
		"/>
	<path fill="#1A1A1A" d="M142.4,182.4L166,192c4.1,1.7,8.5,2.2,12.8,1.6l40.1-5.8l27.1-2c0,0,4.1-8.8-8.8-8.1
		c-12.9,0.7-46.7,6.1-56.2,4.1c-6.2-1.3-19.1-3.2-27.3-4.4C149.3,176.6,144.9,178.6,142.4,182.4L142.4,182.4z"/>
	<path fill="#FFFFFF" d="M197.5,290.8"/>
	<path fill="none" d="M248.1,411.8l4.2,4.9l4.8,0.5l127.4-151.8l-10.4-7.7c0,0-82.7,2.7-138.7,21.7c-3.6,1.1-10.9,7.8-19.9,17.6
		c-0.4,2.8-2.7,19.6-2.7,21.3C212.9,320.1,248.1,411.8,248.1,411.8z"/>
	<path fill="#FFFFFF" d="M399,240.2c-14.5,0-169.4,30.7-169.4,30.7l-16.7,14.9l-0.5,0.6l3.2,10.2c0,0,0,0.1-0.1,0.4
		c9-9.7,16.3-16.4,19.9-17.6c56-19,138.7-21.7,138.7-21.7l10.4,7.7L257.2,417.2l-4.8-0.5l15.4,18c5.4-1,10.4-3.7,14.1-8L411.6,274
		L399,240.2z"/>
	<polygon fill="#FFFFFF" points="121.7,411.4 122.4,411.1 121.6,411 	"/>
	<polygon fill="#FFFFFF" points="121.2,410.9 121.6,411 121.5,410.7 	"/>
	<path fill="#39B54A" d="M252.3,416.7l-119.1-12.1l-1.7-4.1c0,0,52.7-69.8,84-103.5c0-0.3,0.1-0.4,0.1-0.4l-3.2-10.2l-93.7,114.4
		l2.8,9.9l0.1,0.2l0.9,0.1l137.1,23.7c2.8,0.5,5.5,0.4,8.2,0L252.3,416.7z"/>
	<g>
		<g>
			<path fill="#1A1A1A" d="M267.8,384.6c-20.2,0-36.6,16.4-36.6,36.6c0,20.2,16.4,36.6,36.6,36.6s36.6-16.4,36.6-36.6
				C304.4,401,288,384.6,267.8,384.6z M267.8,450.6c-16.3,0-29.5-13.2-29.5-29.5c0-16.3,13.2-29.5,29.5-29.5s29.5,13.2,29.5,29.5
				C297.2,437.5,284.1,450.6,267.8,450.6z"/>
			<path fill="#1A1A1A" d="M267.1,395.4c-14.2,0-25.7,11.5-25.7,25.7c0,14.2,11.5,25.7,25.7,25.7c14.2,0,25.7-11.5,25.7-25.7
				C292.8,407,281.3,395.4,267.1,395.4z M267.1,441.9c-11.5,0-20.7-9.3-20.7-20.7c0-11.5,9.3-20.7,20.7-20.7
				c11.5,0,20.7,9.3,20.7,20.7C287.8,432.6,278.6,441.9,267.1,441.9z"/>
			<path fill="#1A1A1A" d="M266.4,405.3c-8.6,0-15.6,7-15.6,15.6c0,8.6,7,15.6,15.6,15.6c8.6,0,15.6-7,15.6-15.6
				C282,412.2,275,405.3,266.4,405.3z M266.4,433.4c-6.9,0-12.6-5.6-12.6-12.6c0-6.9,5.6-12.6,12.6-12.6c6.9,0,12.6,5.6,12.6,12.6
				C279,427.8,273.4,433.4,266.4,433.4z"/>
		</g>
		<path fill="#666666" d="M248.5,421.7h12.9l1.7-4.1l-2.4-12.4l4.7-1.8l4.4,11.8l3,1.3l9.5-6.4l3,5.4l-7.5,8.8l16.6,57.9h0
			c-2.5,3.3-6.6,5.1-10.8,4.5l-0.7-0.1l-21.3-58.6l-13.2-1.7V421.7z"/>
		<rect x="282.7" y="477.5" fill="#1A1A1A" width="45.7" height="7.5"/>
	</g>
	<circle fill="#1A1A1A" cx="124.8" cy="403.2" r="3.4"/>
	<path fill="#333333" d="M483.4,206.7c0,0,8.1,6.3,3.6,18.5c-4.5,12.2,8.6,23,8.6,23l3.6-2.7c0,0-8.6-8.1-5.4-19.4
		c3.2-11.3,3.9-28.6-2.7-25.3C490.2,201.3,483.4,206.7,483.4,206.7z"/>
	<polygon fill="#333333" points="387,206.7 398.1,239.3 408.9,237 397.2,204.5 	"/>
	<polygon fill="#333333" points="393.6,219.8 426.1,211.7 424.3,200.4 389,208.6 	"/>
	<circle fill="#333333" cx="430.6" cy="205.4" r="8.6"/>
	<path fill="#ED1C24" d="M474.1,410.7l7.1-5.4l-48.3-105l-22.6-69.1l-16.7,5l25.7,77.2l48.7,91.9C470.7,408.9,473,411.8,474.1,410.7
		z"/>
	<circle fill="#1A1A1A" cx="474.4" cy="403.2" r="3.4"/>
	<path d="M413.4,251.9c0,0-4.5-4.5-3.6,3.2c0.9,7.7,7.2,3.6,7.2,3.6L413.4,251.9z"/>
	<path fill="#CCCCCC" d="M424.7,205.4c0,0,0.9,7.2,6.8,6.3c5.9-0.9,22.1,0.5,22.1,0.5s11.7,10.4,3.6,19c-7.8,8.3-21.1,17.4-43.4,18
		c-1.4,0-2.4,1.4-2.1,2.7l1.7,8.2c0,0,33.4,3.6,52.8-23.9s-5-36.1-13.1-36.1C445.1,200,424.7,194.1,424.7,205.4z"/>
	<path d="M457.7,200.4l1.4,7.2l9,10.8l6.8,1.8c0,0,5.9-7.2,14.5-8.6l10.4-14.9l-1.8-6.8l-9.9-2.7l-2.3,4.6
		c-2.2,4.4-6.6,7.3-11.6,7.6L457.7,200.4z"/>
</g>
</svg>
