<?xml version="1.0" encoding="utf-8"?>
<!-- Generator: Adobe Illustrator 18.1.1, SVG Export Plug-In . SVG Version: 6.00 Build 0)  -->
<svg version="1.1" id="Layer_1" xmlns="http://www.w3.org/2000/svg" xmlns:xlink="http://www.w3.org/1999/xlink" x="0px" y="0px"
	 viewBox="83.9 10.6 460.1 771.4" enable-background="new 83.9 10.6 460.1 771.4" xml:space="preserve">
<rect x="127.5" y="29.3" fill="#FFFFFF" width="402" height="485.2"/>
<path d="M509.2,11H123.8H84v-0.4L83.9,11H84v39.5V549h0.6H124h124v233h1.5h20.6h87.7h18.6h2.7V549h130.2h33.5h1.3V11H509.2z
	 M358,756.5l-30.9-33.3l30.9-32.8V756.5z M300.9,723.2L271,755.5v-64L300.9,723.2z M285.3,679h56.2l-28.1,30.3L285.3,679z M284,644
	l29.4-31.2l29.4,31.2H284z M271,630.6v-64l29.9,31.8L271,630.6z M313.4,738.7l25.7,27.3h-51.5L313.4,738.7z M358,631.7l-30.9-33.3
	l30.9-32.8V631.7z M313.4,584.6l-33-35.6h66L313.4,584.6z M509,508H124V52h385V508z"/>
<ellipse transform="matrix(0.9829 0.184 -0.184 0.9829 30.8989 -56.2228)" fill="#E90200" cx="318.5" cy="138.4" rx="26.4" ry="32.4"/>
<path fill="#3A5F45" d="M241,227.1c5.3,2.2,4.2,10.2-1.5,10.8c-10.2,1.2-22-2-32.2-16.9c-24-34.8,31.3-74.8,70.8-49.6
	c42,26.8,113.4-2.4,122.4-32.3c3.9-12.9,0.9-22.8-10.7-23.1c-3.3-0.1-4.2-4.5-1.2-5.8c14.4-6.2,33.1-8.6,42.5,13.7
	c10.3,24.5-11.4,64.4-80.8,85.1c-53.9,16.1-100.5-25.4-116.8-14.9C223.1,200.8,226,220.8,241,227.1z"/>
<path fill="#E90200" d="M175.3,401.2c0,0,62-81.5,108-116.9s44.3,14.2,14.2,47.8S193,413.6,175.3,401.2z"/>
<rect x="145.2" y="372.9" fill="#3A5F45" width="340" height="118.7"/>
<g>
	<path fill="#FFFFFF" d="M214.1,391.2h13.6v86.4h-13.6V391.2z"/>
	<path fill="#FFFFFF" d="M270.9,415v62.6h-12.2v-86.4h17l14,51.7v-51.7h12.1v86.4h-14L270.9,415z"/>
	<path fill="#FFFFFF" d="M324.3,391.2h21.5c13.6,0,20.2,7.5,20.2,21.4v43.7c0,13.8-6.7,21.4-20.2,21.4h-21.5V391.2z M337.8,403.5
		v61.7h7.7c4.3,0,6.9-2.2,6.9-8.4v-44.9c0-6.2-2.6-8.4-6.9-8.4H337.8z"/>
	<path fill="#FFFFFF" d="M402.1,427.6h18.6v12.3h-18.6v25.3h23.5v12.3h-37v-86.4h37v12.3h-23.5V427.6z"/>
</g>
<path fill="#E90200" d="M325.2,240.8c-14.6,6.4-14.8,27.1-0.3,33.8c20.6,9.7,43.2,25.1,38.2,45.1c-8.9,35.4-58.4,74.4-58.4,74.4
	s81.5-30.1,93.9-70.8C409,288.7,379.8,216.9,325.2,240.8z"/>
</svg>
