<?xml version="1.0" encoding="utf-8"?>
<!-- Generator: Adobe Illustrator 18.0.0, SVG Export Plug-In . SVG Version: 6.00 Build 0)  -->
<!DOCTYPE svg PUBLIC "-//W3C//DTD SVG 1.1//EN" "http://www.w3.org/Graphics/SVG/1.1/DTD/svg11.dtd">
<svg version="1.1" id="Layer_1" xmlns="http://www.w3.org/2000/svg" xmlns:xlink="http://www.w3.org/1999/xlink" x="0px" y="0px"
	 viewBox="0 0 193.7 571.8" enable-background="new 0 0 193.7 571.8" xml:space="preserve">
<g>
	<path fill="#C3802F" d="M77.1,139.1c0,0.9,43-0.2,44.8-0.5c1.8-0.3,1.8-13.4-13.6-17.7l1.7-5.6l-1.7-6.2l2.9-5.8c0,0,4,3.2,6.1-2.8
		L113,89.1l-3.7-14.3l1-4.1l11.5-1.2l-0.3,3.7l1.5,0.5l2.7-6.9l-3.7-1.2h-4l-8.2-2.5l-1.3-6.6l5-4.2l3.2-5.8l15.6-8L108.7,37
		l-4.2,6.4l-2.6,3.1l0.6-2.5c0,0,3.8-2.1,3.2-4.6c-0.6-2.4,0.7-5.7-4.6-6.4s-7.8,2.3-6.3,8.1s-1,3.8-1,3.8l-3-8.5l0.9-12.6l3.7-1.8
		l4.9-4.1L99,13.8l-2.9-1.1l-8.2,4.5l1.4,6l-2.5,12.9l2.3,9.5l-3.5-3.5l-7.2-14.3l-4.2-3.4l-3.9-4.8L48.8,0l1.3,9.3l-4.9-1.8
		l4.2,7.5l-4.2,0.7l9,8.6l-3.9-0.9l5,7.1l8,3.4l-5,2.1l9,6.4l0.9,3.4l5.1,2.4l-2.6,2.8l4.6,2l-3.7,3.3l4.7,1.3l4.7,3.6l4.8,2.6
		l5.6,0.5l-4.7,5.2l1.1,6.6l-4.8,7.2l-3.2,6.3l-5.2,1.8l0.3,5.2l8.8,6.3l3.8,0.1l0.5,5.5l-0.5,8.7l-4,6.7
		C83.5,124,76.9,129.9,77.1,139.1z"/>
	<polygon fill="#58330D" points="102.7,47.3 110.4,38.5 124.6,39.3 119.6,41.4 109.8,42.5 121.2,44.2 116.6,46.5 113.5,52.3 
		107.8,48.5 112,53.6 105,49.4 109.9,53.1 108.6,56.8 107,54.1 101.3,48.4 95.3,45.9 101.9,46.5 	"/>
	<path fill="#58330D" d="M94.8,52.3c0,0,5.9,2.7,7.8-1.1C102.7,51.2,98.1,48,94.8,52.3z"/>
	<path fill="#58330D" d="M91.3,64.1l2.7-4.3l-1-12.2l-1.1,3.3l1,9.9l-4,1.4l1.4-4.8l-3.1,3.8l2.5-5.6l-0.3-9.7l-3.8-3.8l-7.2-14.3
		l-3.8-3l-4.5-5.6L48.8,0l1.3,9.3l-4.9-1.8l4.7,7.5l-4.7,0.7l9,8.6l-3.9-0.9l5,7.1l8,3.4l-2.3-2.5l3.8-1.4l2.5-9.8l5.2,7.6l-8,4.3
		l4.9,0.1l-7.9,4.5l10.4-1.3c0,0-7.1,4.9-6.8,4.8c0.3-0.1,8.9-0.5,8.9-0.5l-6,6l5.1,2.4l-2.6,2.8l4.6,2l-3.7,3.3l4.7,1.3l6.1-5
		l1-10.1l3.2,5.8l-2.1,5.4l-5.6,6l7,4.1L91.3,64.1z"/>
	<polygon fill="#58330D" points="88.8,45.6 91.4,50.1 94.8,45.4 90.4,38.2 91.8,23.8 95.4,22 100.3,17.9 99,13.8 96.1,12.8 
		97.8,15.1 96.7,19.3 91.6,20.9 90.8,17.5 94.6,15.1 94.8,13.5 87.9,17.3 89.4,23.5 86.8,36.1 	"/>
	<path fill="#58330D" d="M102.5,43.9l-1.8,0.5l-2.2-3l0.2-0.7l1.7,1.3l0.2-0.2l-0.8-0.7l1.1-0.5l2.3,0.6l-0.4,1l0.1,1l0.7-1.8l0-1.9
		l0.4-1.3l-1.3-0.4l-0.5-2l1,0.5l0.2-1.3l-1.4-1.8c0,0,3.2,0.6,3.2,2.9c0,0,0.3,3,0.5,3.7C106,40.4,105.6,43.2,102.5,43.9z"/>
	<path fill="#58330D" d="M100.5,39.9c0,0,2.7,0,2.6,0s-1.2-1.1-1.2-1.1l-0.1-0.5l0.6,0.2l-0.9-1l-0.5,0.9l-1.1,0.9l0.9-0.1
		L100.5,39.9z"/>
	<path fill="#58330D" d="M95.3,43.5l0.8-4.1l1-0.4l1.1-3.9l-1.4,1.3l-0.7,1.3L95,40.1v-3.2l2.8-2.1L96,34c0,0-2.2,0.8-1.6,4.5
		S95.3,43.5,95.3,43.5z"/>
	<polyline fill="#58330D" points="99.3,37.2 101,36.7 100.8,35.9 101.3,35.1 98.9,35.9 99.4,36.5 99.2,37.4 	"/>
	<path fill="#58330D" d="M87.2,72.3l8.1-6.8l-3-0.9l6.4-1.2l-0.5,2l7.2-5l-1.3,3.6l3.4-0.2l-0.1-6.3l4,9.7l9.6,0.7l1.5-1.3l0.6,2
		l1.6-0.1l-1.7,5.5l-1.5-0.9l0.3-3.7l-11.2-0.3l-1.2,5.6l-1.9-7l0.4,4l-5.2-0.7l1.1,4l-8.8-6l4.9,5.2l-5.8-1.6l-4.2,4.1l-2.9,7.3
		l8.8-4.1L94,75h4.6l1.8,3.4l-2.1,1.8l5.4,1.5l-1.4-5.3l3.9,3.5l0.2-6.2l4.3,6.4l1.8,7l0.2,4.3l-0.4,2.1l1.4,7l2.2-3.9l1.4,3.8
		c0,0-1.8,6.1-6.1,2.8l-2.9,5.8l1.7,6.2l-1.7,4.8l-3-9.3c0,0,0.3-2.4,0.4-3.3c0.1-0.8-0.8-8.9-0.8-8.9l-3.8,12.8l-0.4-5.7l1.7-6.4
		l-2.4-1.5l0.1,5.1l-1.4,8.7l-3.3-8.8l3.1-7.7l-2-1.3l-2.4,9l-6.5,8.1l0-3.7l-0.4-3.2l2.7-5.7l6-13L85.6,103l-1.8-0.1L75,96.7
		L74.6,92l2.4,1.2l0.7,3.7l4-6l-1.4-1.5l5.2-3.5l-3.9,0.2l1.6-3.7l4.7-5.8L87.2,72.3z"/>
	<polygon fill="#58330D" points="95,105 98.2,113.7 91.5,120.1 93.7,111.8 89,115.1 89,111.8 	"/>
	<path fill="#58330D" d="M121.9,138.6c0,0-1-7.6-6.8-11.7c-5.8-4.1-0.6,0-0.6,0s-3.3,4.7-6.1,1.9c-2.7-2.8,0.9-5,0.9-5l-2.1-2.4
		v-1.3l-5.3-2.7l1.9,2.7l-4.4-2.4l-9.8,5.6L88,122l-2.2-1.9l-2.3,3.8l4,1.7l-6.9,3.9l-3.5,9.9l10.5-7.3l-2.5,7.3l15.7-0.2
		c0,0-4.2-6.9,2.7-8s12,7.8,12,7.8L121.9,138.6z"/>
	<polygon fill="#F0BF7E" points="103.3,44.8 108.7,37 132.2,38.5 129.5,39.9 110.4,38.5 	"/>
	<polygon fill="#F0BF7E" points="77.4,58.5 83,53.7 82.9,47.6 81.3,52.5 76.3,57.7 	"/>
	<polygon fill="#F0BF7E" points="66.1,30.4 70.7,27.5 67.5,22.5 	"/>
	<path fill="#F0BF7E" d="M92.1,19.6c0.3,0,4.1-0.9,4.1-0.9l0.4-3.4l-3,2.1L92.1,19.6z"/>
	<path fill="#F0BF7E" d="M97.8,34.8l0.4,0.4c0,0,2-1.1,2.1-1.1c0.1,0,3.2,0.8,3.2,0.8l-1.4-1.8l-2.5-0.6L97.3,33L96,34L97.8,34.8z"
		/>
	<polygon fill="#F0BF7E" points="109.8,62.9 117.9,65.6 121.9,65.6 117.8,66.4 110.5,65.1 	"/>
	<polygon fill="#F0BF7E" points="95.3,53.3 96,58.5 93.6,63.4 98.9,60.9 98.5,54.1 	"/>
	<polygon fill="#F0BF7E" points="106.1,117.3 103.9,112.1 104.5,102.6 101.5,112.5 	"/>
	<polygon fill="#F0BF7E" points="114.3,42.5 122.4,43.5 127.6,40.9 122.5,40.9 121,41.8 	"/>
	<polygon fill="#F0BF7E" points="99.8,45.5 97.5,40.4 97.5,45.2 	"/>
	<g>
		<path fill="#808184" d="M74,207.2L59.6,571.8h66.9L122.9,214c0,0-0.9-19.3-24.7-19.3S74,207.2,74,207.2z"/>
		<path fill="#6D6E70" d="M105.4,195.3l-0.9,376.5h22L122.9,214C122.9,214,121,197.8,105.4,195.3z"/>
		<path fill="#6D6E70" d="M74.6,183.2l4.8-42.3c0,0,1.7-13.6,23.3-13.6c17.7,0,20.2,18.9,20.2,18.9l1.6,35.9L74.6,183.2z"/>
		<path fill="#58595B" d="M74,207.2c0,0,3.1-9.9,19.3-9.9s29.6,16.6,29.6,16.6h18.9l11.2-25.1l-39.5-22.5l-65.1,12.6v14.4L73.1,218
			L74,207.2z"/>
	</g>
	<rect x="48.4" y="165" fill="#58595B" width="3" height="20.9"/>
	<rect x="56.6" y="165" fill="#58595B" width="3" height="20.9"/>
	<rect x="64.8" y="161.9" fill="#58595B" width="3" height="20.9"/>
	<rect x="73.1" y="159" fill="#58595B" width="3" height="20.9"/>
	<rect x="81.4" y="159" fill="#58595B" width="3" height="20.9"/>
	<rect x="89.6" y="155.9" fill="#58595B" width="3" height="20.9"/>
	<rect x="98.1" y="154.5" fill="#58595B" width="3" height="20.9"/>
	<rect x="115.5" y="154.5" fill="#58595B" width="3" height="20.9"/>
	<rect x="123" y="157.4" fill="#58595B" width="3" height="20.9"/>
	<rect x="130.7" y="161.4" fill="#58595B" width="3" height="20.9"/>
	<rect x="138" y="165" fill="#58595B" width="3" height="20.9"/>
	<rect x="144.7" y="167.9" fill="#58595B" width="3" height="20.9"/>
	<rect x="109.1" y="151.5" fill="#58595B" width="3" height="20.9"/>
	<rect x="150" y="169.4" fill="#58595B" width="3" height="20.9"/>
	<polyline fill="#58595B" points="153,169.4 110.6,150.4 48.4,165 48.4,168.1 110.6,153.6 153,172.4 	"/>
	<path fill="#6D6E70" d="M70.6,293.2c0,0,20.3-14,53.1-1.7c0,0,4.2-7.7,0.8-12.7c0,0-24.6-11.9-53.9,1.9
		C70.6,280.7,66.1,287.5,70.6,293.2z"/>
	<path fill="#6D6E70" d="M66.6,399.4c0,0,22.4-15.4,58.5-1.8c0,0,4.7-8.5,0.9-14c0,0-27.1-13.2-59.4,2.1
		C66.6,385.7,61.7,393.2,66.6,399.4z"/>
	<path fill="#6D6E70" d="M62,505.6c0,0,24.5-16.9,64.1-2c0,0,5.1-9.3,1-15.4c0,0-29.7-14.4-65.1,2.3C62,490.5,56.6,498.8,62,505.6z"
		/>
</g>
<g>
	<path fill="#5773C6" d="M27.2,203.4c-15,0-27.2,12.2-27.2,27.2c0,15,12.2,27.2,27.2,27.2s27.2-12.2,27.2-27.2
		C54.3,215.5,42.2,203.4,27.2,203.4z M27.2,253.2c-12.5,0-22.6-10.1-22.6-22.6c0-12.5,10.1-22.6,22.6-22.6s22.6,10.1,22.6,22.6
		C49.8,243.1,39.7,253.2,27.2,253.2z"/>
	<path fill="#EDD034" d="M62.4,228c-15,0-27.2,12.2-27.2,27.2s12.2,27.2,27.2,27.2s27.2-12.2,27.2-27.2S77.4,228,62.4,228z
		 M62.4,277.9c-12.5,0-22.6-10.1-22.6-22.6c0-12.5,10.1-22.6,22.6-22.6S85,242.7,85,255.2C85,267.7,74.9,277.9,62.4,277.9z"/>
	<path fill="#7AC46F" d="M132.4,228c-15,0-27.2,12.2-27.2,27.2s12.2,27.2,27.2,27.2c15,0,27.2-12.2,27.2-27.2S147.4,228,132.4,228z
		 M132.4,277.9c-12.5,0-22.6-10.1-22.6-22.6c0-12.5,10.1-22.6,22.6-22.6c12.5,0,22.6,10.1,22.6,22.6
		C155,267.7,144.9,277.9,132.4,277.9z"/>
	<path fill="#1D1733" d="M98.1,203.4c-15,0-27.2,12.2-27.2,27.2c0,15,12.2,27.2,27.2,27.2s27.2-12.2,27.2-27.2
		C125.3,215.5,113.1,203.4,98.1,203.4z M98.1,253.2c-12.5,0-22.6-10.1-22.6-22.6c0-12.5,10.1-22.6,22.6-22.6s22.6,10.1,22.6,22.6
		C120.8,243.1,110.6,253.2,98.1,253.2z"/>
	<path fill="#F21630" d="M166.6,203.4c-15,0-27.2,12.2-27.2,27.2c0,15,12.2,27.2,27.2,27.2c15,0,27.2-12.2,27.2-27.2
		C193.7,215.5,181.6,203.4,166.6,203.4z M166.6,253.2c-12.5,0-22.6-10.1-22.6-22.6c0-12.5,10.1-22.6,22.6-22.6
		c12.5,0,22.6,10.1,22.6,22.6C189.2,243.1,179.1,253.2,166.6,253.2z"/>
</g>
</svg>
