<?xml version="1.0" encoding="utf-8"?>
<!-- Generator: Adobe Illustrator 18.0.0, SVG Export Plug-In . SVG Version: 6.00 Build 0)  -->
<!DOCTYPE svg PUBLIC "-//W3C//DTD SVG 1.1//EN" "http://www.w3.org/Graphics/SVG/1.1/DTD/svg11.dtd">
<svg version="1.1" id="Layer_1" xmlns="http://www.w3.org/2000/svg" xmlns:xlink="http://www.w3.org/1999/xlink" x="0px" y="0px"
	 viewBox="0 0 1263.9 293.4" enable-background="new 0 0 1263.9 293.4" xml:space="preserve">
<g>
	<path fill="#808285" d="M29.8,292.1h1211l-16.5-94.1l16.5-47.1c0,0-57.7-88.4-595.5-88.4s-633.2,97-633.2,97L36.9,198L29.8,292.1z"
		/>
	<polygon fill="#D1D3D4" points="686.9,62.5 686.9,11.9 670,62.6 	"/>
	<polygon fill="#D1D3D4" points="741.2,63.5 779.8,63.5 775.9,11.9 	"/>
	<polygon fill="#D1D3D4" points="811.8,65.6 870.9,69.5 857.1,15.5 	"/>
	<polygon fill="#D1D3D4" points="880.1,68.2 955.9,75.4 941.1,20.4 	"/>
	<path fill="#D1D3D4" d="M955.9,79.7c0,0,215.3,19.4,261.7,52.7l-5-52.3l-28.2-10.2l-27.1,6.9L1139,52.2l-38.8,14.6L1086.7,42
		l-56,19.8L1015.4,29l-64.2,33.3L955.9,79.7z"/>
	<polygon fill="#D1D3D4" points="579,62 579,11.4 595.9,62.1 	"/>
	<polygon fill="#D1D3D4" points="524.7,63.1 486.1,63.1 489.9,11.4 	"/>
	<polygon fill="#D1D3D4" points="454,65.1 395,69.1 408.8,15 	"/>
	<polygon fill="#D1D3D4" points="385.8,67.8 310,74.9 324.8,20 	"/>
	<path fill="#D1D3D4" d="M310,79.2c0,0-215.3,19.4-261.7,52.7l5-52.3l28.2-10.2l27.1,6.9l18.2-24.6l38.8,14.6l13.5-24.8l56,19.8
		l15.3-32.8l64.2,33.3L310,79.2z"/>
	<path fill="#414042" d="M20.4,168c0,0,170.3-68.4,607.7-68.4s621,68.4,621,68.4l3.1-11.4c0,0-258.3-68.4-625.7-68.4
		S14.9,156.6,14.9,156.6"/>
	<path fill="#D1D3D4" d="M53.3,75.4c0,0,120.9-73.2,633.6-63.5s525.7,63.9,525.7,63.9l0.7,2.6c0,0-151.3-62.9-526.4-62.9
		S163.5,38.2,52.5,80"/>
	<path fill="#939598" d="M58.1,293.4l1145.9-1.3c0,0-148.3-39.4-572.9-40.4S52.2,292.1,52.2,292.1"/>
	<polygon fill="#414042" points="574.3,63.1 574.3,292.1 580.6,292.1 584.5,62.5 	"/>
	<rect x="683.4" y="62.5" fill="#414042" width="7.1" height="229.6"/>
	<polygon fill="#414042" points="779.8,66.9 757.1,97.1 768.5,293.4 775.9,293.4 768.5,123.7 779.8,97.1 	"/>
	<polygon fill="#58595B" points="371.9,293.4 626.5,251.7 884.2,292.1 808.9,292.1 628.1,263.1 451.9,293.4 	"/>
	<path fill="#58595B" d="M73,292.1c0,0,116.9-40.4,553.5-40.4s576.3,40.4,576.3,40.4h18c0,0-109.8-48-592.7-48s-570,48-570,48"/>
	<polygon fill="#414042" points="1240.8,292.1 1234.1,193.7 1263.9,161.4 1263.9,140.5 1249,143.3 1249,126.2 1222.4,126.2 
		1222.4,153.8 1189.4,192.7 1209.8,292.1 1217.7,292.1 1203.5,198 1236.4,163.5 1224.3,198 1236.5,292.1 	"/>
	<polygon fill="#414042" points="1194.1,292.1 1181.6,190.8 1217.6,133.8 1217.6,110 1185.5,110 1189.4,137.6 1160.4,184.2 
		1180.8,292.1 	"/>
	<polygon fill="#414042" points="1154.1,292.1 1136.8,183.2 1179.2,95.8 1142.5,106.1 1146.3,126.2 1118.8,162.3 1140,292.1 	"/>
	<polygon fill="#414042" points="1100.8,292.1 1081.9,169 1114.1,110 1114.1,83.4 1081.9,92.6 1087.4,118.6 1060,160.4 
		1081.9,292.1 	"/>
	<polygon fill="#414042" points="1041.9,75.8 1015.2,83.4 1019.2,110 997.2,159.5 1019.6,292.1 1034.1,292.1 1015.2,158.5 
		1041.9,105.3 	"/>
	<polygon fill="#414042" points="956.4,68.2 931.3,83.4 936.8,106.2 925.8,151.9 941.1,292.1 949.3,292.1 941.1,149 953.3,110 	"/>
	<polygon fill="#414042" points="870.9,69.5 853.6,77.1 853.6,104.7 843.4,138.9 851.2,293.4 857.1,293.4 857.1,143.7 870.9,100.9 	
		"/>
	<polyline fill="#414042" points="0,142.4 19.6,142.4 15.7,126.2 44.7,134.3 44.7,110 76.1,110 76.1,126.2 102.8,177.3 87.1,292.1 
		73,292.1 86.3,186.1 54.9,146.2 47.1,151.9 74.5,192.7 58.1,292.1 51.4,292.1 62.8,198 30.6,160.4 43.9,198 29.8,292.1 22,292.1 
		30.6,198 7.8,169.9 	"/>
	<polygon fill="#414042" points="83.9,95.8 120.8,103.4 120.8,127.2 148.3,160.4 125.5,292.1 109.8,292.1 128.7,177.3 	"/>
	<polygon fill="#414042" points="148.3,84.4 180.5,90.1 180.5,110 204.8,160.4 185.9,292.1 168.7,292.1 182.8,169 151.4,110 	"/>
	<polygon fill="#414042" points="232.2,292.1 249.5,156.6 223.6,105.3 223.6,75.8 249.5,84.4 249.5,110 268.3,157.6 246,292.1 	"/>
	<polygon fill="#414042" points="308.3,69.2 334.8,76.1 328.7,105.3 341.3,149 324.8,292.1 315.4,292.1 324.8,146.2 308.3,99.6 	"/>
	<polygon fill="#414042" points="397,68.2 414.3,75.8 414.3,103.4 424.5,137.6 416.6,292.1 410.7,292.1 410.7,142.4 397,99.6 	"/>
	<polygon fill="#414042" points="488,65.6 510.8,95.8 499.4,292.1 491.9,292.1 499.4,122.4 488,95.8 	"/>
	<path fill="#414042" d="M42.2,193.9c0,0,110.8-36.6,236.6-43.7s357-4.3,357-4.3v11.4c0,0-211.8-1.4-236.2-1.4s-241.2,5-361,49.2
		L42.2,193.9z"/>
	<path fill="#414042" d="M1228.6,193.9c0,0-110.8-36.6-236.6-43.7s-357-4.3-357-4.3v11.4c0,0,211.8-1.4,236.2-1.4
		c24.4,0,241.2,5,361,49.2L1228.6,193.9z"/>
</g>
</svg>
