<?xml version="1.0" encoding="utf-8"?>
<!-- Generator: Adobe Illustrator 18.0.0, SVG Export Plug-In . SVG Version: 6.00 Build 0)  -->
<!DOCTYPE svg PUBLIC "-//W3C//DTD SVG 1.1//EN" "http://www.w3.org/Graphics/SVG/1.1/DTD/svg11.dtd">
<svg version="1.1" id="Layer_1" xmlns="http://www.w3.org/2000/svg" xmlns:xlink="http://www.w3.org/1999/xlink" x="0px" y="0px"
	 viewBox="0 0 286 124" enable-background="new 0 0 286 124" xml:space="preserve">
<g>
	<path fill="#000200" d="M11,83.5c5.3-0.5,10-3.6,14.6-6.4c4.6-2.8,9.7-5.5,15-4.9c-0.1-1.7-0.5-3.4-1-4.9c-0.2-0.6-0.5-1.2-1.1-1.4
		c-0.5-0.1-1,0.1-1.4,0.3c-5.2,2.7-10.5,5.4-15.7,8.2c-3.1,1.6-6.3,3.2-9.7,3.8c-0.7,0.1-1.6,0.1-1.9-0.6c-0.2-0.4-0.1-0.9,0.1-1.3
		c2-5.4,6.2-9.8,10.9-13c4.8-3.2,10.2-5.4,15.6-7.4c1.9-0.7,3.9-1.5,5.5-2.8s2.7-3.4,2.4-5.5c-14.9,5.1-29.7,12.7-39,25.4
		c-1.4,1.8-2.6,4.1-2.1,6.3C3.9,82.5,7.8,83.8,11,83.5z"/>
	<polygon fill="#000200" points="28.2,103 41.8,124 267.2,124 280.5,103 252.8,13 51.5,13 	"/>
	<polygon fill="#5F554D" points="59.2,5 50.2,43.3 256.2,43.3 245.5,5 	"/>
	<polygon fill="#965A30" points="35.2,103 44.8,118.3 265.5,118.3 274.2,103 	"/>
	<polygon fill="#D29853" points="35.2,103 37.8,94.7 272.8,96.3 274.2,103 	"/>
	<polygon fill="#393529" points="61.2,15 55.2,40 250.5,40 244.2,15 	"/>
	<rect x="47.5" y="47.3" fill="#403A36" width="211.3" height="2"/>
	<rect x="45.7" y="52.4" fill="#403A36" width="214.3" height="2"/>
	<rect x="45.7" y="57.5" fill="#403A36" width="215.2" height="2"/>
	<rect x="44" y="62.6" fill="#403A36" width="218.5" height="2"/>
	<rect x="42.5" y="67.7" fill="#403A36" width="221" height="2"/>
	<rect x="41.7" y="72.8" fill="#403A36" width="223" height="2"/>
	<rect x="41.2" y="77.9" fill="#403A36" width="224.8" height="2"/>
	<rect x="40.3" y="83" fill="#403A36" width="227.6" height="2"/>
	<rect x="39.1" y="88.1" fill="#403A36" width="230.5" height="2"/>
	<path fill="#030301" d="M176.1,38.3h-44.4c-3.9,0-7-3.2-7-7v0c0-3.9,3.2-7,7-7h44.4c3.9,0,7,3.2,7,7v0
		C183.2,35.1,180,38.3,176.1,38.3z"/>
	<path fill="#393529" d="M174.1,37.3h-38.7c-3.9,0-7-3.2-7-7v2c0-3.9,3.2-7,7-7h38.7c3.9,0,7,3.2,7,7v-2
		C181.2,34.1,178,37.3,174.1,37.3z"/>
	<circle fill="#030301" cx="194.9" cy="29.7" r="5.5"/>
	<circle fill="#030301" cx="214.7" cy="29.7" r="5.5"/>
	<circle fill="#030301" cx="92.2" cy="29.7" r="5.5"/>
	<circle fill="#030301" cx="111.9" cy="29.7" r="5.5"/>
	<polygon fill="#030301" points="82.7,85 82.7,102 120.2,77.9 120.2,62.6 	"/>
	<polygon fill="#393529" points="82.7,85 35.2,58.5 35.2,72.8 82.7,102 	"/>
	<polygon fill="#5F554D" points="82.7,85 120.2,62.6 76.9,40 35.2,58.5 	"/>
	<ellipse fill="#C74D38" cx="52.1" cy="59" rx="7.8" ry="4.6"/>
	<ellipse fill="#0C080A" cx="81.5" cy="60.3" rx="21.5" ry="10.4"/>
	<ellipse fill="#403A36" cx="81.5" cy="58.8" rx="18.8" ry="9.1"/>
	<ellipse fill="#0C080A" cx="81" cy="57.9" rx="16.2" ry="7.8"/>
	<ellipse fill="#403A36" cx="81.5" cy="56.4" rx="13" ry="6.3"/>
	<ellipse fill="#0C080A" cx="81.4" cy="55.9" rx="8.3" ry="4"/>
	<rect x="73.1" y="23.7" fill="#0C080A" width="16.6" height="32.2"/>
	<ellipse fill="#403A36" cx="81.4" cy="23.7" rx="8.3" ry="4"/>
</g>
</svg>
