<?xml version="1.0" encoding="utf-8"?>
<!-- Generator: Adobe Illustrator 18.0.0, SVG Export Plug-In . SVG Version: 6.00 Build 0)  -->
<!DOCTYPE svg PUBLIC "-//W3C//DTD SVG 1.1//EN" "http://www.w3.org/Graphics/SVG/1.1/DTD/svg11.dtd">
<svg version="1.1" id="Layer_1" xmlns="http://www.w3.org/2000/svg" xmlns:xlink="http://www.w3.org/1999/xlink" x="0px" y="0px"
	 viewBox="0 0 290.2 124" enable-background="new 0 0 290.2 124" xml:space="preserve">
<g>
	<path fill="#050503" d="M111.7,61.2l-3.4-9l1-21.3c0,0-10.9-1.8-19.1,5.2L91,55.2l6,14C97,69.2,113.3,72.8,111.7,61.2z"/>
	<path fill="#050503" d="M90.1,36.1l-3.3,18.2h12.3C99.2,54.3,97.1,36.6,90.1,36.1z"/>
	<path fill="#F9BD91" d="M113.2,58c7.1,1.3,7.4-1.8,7.1-2.9s-4.2-0.5-4.2-0.5s1.7-0.1,1.4-1c-0.2-0.8-2.2-0.8-2.2-0.8
		s-3.2-0.2-3.5,2C111.5,57.1,113.2,58,113.2,58z"/>
	<path fill="#FFFFFF" d="M98.3,31.8l4.1,10.4l4.5-11.5C106.8,30.7,101,30.8,98.3,31.8z"/>
	<path fill="#F9BD91" d="M107.8,19.3l-0.2,10.1l-1.5,0l-0.1,3.3c0,0-1.8,3.3-5.9-0.1l0.2-6.9c0,0-1.3-0.3-1.2-1.8s1.5-0.7,1.5-0.7
		l0.1-4L107.8,19.3z"/>
	<polygon fill="#050503" points="102.6,34 101,43.3 103.4,44.2 105.4,38.6 104.3,34 	"/>
	<path fill="#3C2415" d="M100.6,23.5l1.7,3.9l0.3-3.2c0,0,0.9-2.3,5.2-2.3c0,0,2.8-4.9-3.1-5c-5.9-0.1-13.8,7.8-6.4,14.9l1.9-0.4
		l0-5.8c0,0-1.3-0.3-1.2-1.8C99,22.5,100.6,23.5,100.6,23.5z"/>
	
		<ellipse transform="matrix(0.9987 5.026217e-02 -5.026217e-02 0.9987 2.862 -6.1453)" fill="#808285" cx="123.6" cy="53.8" rx="11.9" ry="3.7"/>
	<polygon fill="#808285" points="111.8,67.5 111.8,53.2 135.5,54.4 135.5,68.7 	"/>
	
		<ellipse transform="matrix(0.9987 5.026217e-02 -5.026217e-02 0.9987 3.5787 -6.1273)" fill="#58595B" cx="123.6" cy="68.1" rx="11.9" ry="3.7"/>
	
		<ellipse transform="matrix(0.9998 -1.915965e-02 1.915965e-02 0.9998 -1.4104 1.4967)" fill="#808285" cx="77.4" cy="74.4" rx="11.9" ry="3.7"/>
	<polygon fill="#808285" points="66.5,88.8 65.5,74.6 89.3,74.1 90.3,88.3 	"/>
	
		<ellipse transform="matrix(0.9998 -1.915965e-02 1.915965e-02 0.9998 -1.6827 1.5183)" fill="#58595B" cx="78.4" cy="88.6" rx="11.9" ry="3.7"/>
	<circle fill="#939598" cx="102.7" cy="83.1" r="20.2"/>
	<circle fill="#414042" cx="102.7" cy="83.1" r="18.7"/>
	<ellipse transform="matrix(0.974 -0.2264 0.2264 0.974 -4.2263 31.0708)" fill="#AF9C2B" cx="133.4" cy="34" rx="16.7" ry="6.6"/>
	<rect x="132.4" y="32.6" fill="#939598" width="1.3" height="62.8"/>
	
		<rect x="130.1" y="92" transform="matrix(0.9003 0.4353 -0.4353 0.9003 55.4275 -47.225)" fill="#939598" width="1.3" height="10.7"/>
	
		<rect x="134.8" y="92" transform="matrix(-0.9003 0.4353 -0.4353 -0.9003 299.8133 126.0371)" fill="#939598" width="1.3" height="10.7"/>
	
		<ellipse transform="matrix(-0.974 -0.2264 0.2264 -0.974 135.2756 82.4182)" fill="#AF9C2B" cx="72.4" cy="33.5" rx="16.7" ry="6.6"/>
	<rect x="72" y="32.1" fill="#939598" width="1.3" height="62.8"/>
	
		<rect x="74.3" y="91.5" transform="matrix(-0.9003 0.4353 -0.4353 -0.9003 184.5737 151.4166)" fill="#939598" width="1.3" height="10.7"/>
	
		<rect x="69.6" y="91.5" transform="matrix(0.9003 0.4353 -0.4353 0.9003 49.1689 -20.9265)" fill="#939598" width="1.3" height="10.7"/>
	<path fill="#ED1C24" d="M91,54.3l0,0.9l3.7,8.7l10.4-3.5l6.4,1.2l-3-8.3l0.6-22.3c0,0-2.2-0.5-3.2-0.2l0-0.9l-1.7,0.5l-0.1,1.8
		l-0.8-1.6l-3.4-0.2l0,1c0,0-6.1,0.9-9.9,5l-3.3,18.2H91z"/>
	<path fill="#F9BD91" d="M107.5,53.3c7.2-0.3,6.8-3.4,6.3-4.4c-0.5-1-4.2,0.5-4.2,0.5s1.6-0.5,1.2-1.2c-0.4-0.8-2.3-0.3-2.3-0.3
		s-3.2,0.5-3,2.7C105.7,52.8,107.5,53.3,107.5,53.3z"/>
	<polygon fill="#3C2415" points="106.4,26.5 103.4,27.2 106.3,27.2 	"/>
	<polygon fill="#3C2415" points="106.3,26.5 107.7,27.2 106.4,27.2 	"/>
</g>
<g>
	<path fill="#050503" d="M59,17l0.2,0.9c0,0,5.5,0.1,4.9-3.8S59,7.9,59,7.9l-3.8,1.8L59,17z"/>
	<path fill="#050503" d="M63,117.9h4.3l2.7-63.6l-1.4-9.8l1.4-8.7l3,6.3l5.7-4.1l-7.1-17c0,0-13.6-4.9-31.7,2.8l-3.2,21.8l-6.3-1.4
		l-2.8,4.1L42.4,56l2.6-1.9l5.8,63.8h4.6l2.2-45L63,117.9z"/>
	<path fill="#603913" d="M63.5,117.9H67c0,0,1.4,4.5-3.2,4.7h-6c0,0-1.3-2.8,2.2-3C60.1,119.6,63.1,119.1,63.5,117.9z"/>
	<path fill="#FFFFFF" d="M48.5,20.9l8.2,12.6l7-14C63.6,19.5,56,15.2,48.5,20.9z"/>
	<path fill="#F9BD91" d="M45,4.2l3,14.8l2.2-0.5l1,4.9c0,0,3.5,4.4,8.7-1.8l-2.1-10.1c0,0,1.8-0.8,1.4-2.9c-0.4-2.2-2.4-0.7-2.4-0.7
		L55.6,2L45,4.2z"/>
	<path fill="#FFFFFF" d="M26,47.4c0.2-0.2,3.2-1.4,3.6-5l2.7,2.2L28.8,49L26,47.4z"/>
	<g>
		<path fill="#C67700" d="M56.4,43.7c0,0-3.5-1.8-5-1.2c-1.5,0.6-7.7,4.1-8.4,5.3l29.5,8.8c0,0,3.2-7.9-1.8-10.2
			c-5-2.3-7.1-2.1-7.1-2.1s-1.3,3.4-4.8,2.4C55.2,45.7,56.4,43.7,56.4,43.7z"/>
		<path fill="#C67700" d="M52.1,58.3c0,0-3.9-0.5-4.9-1.8s-4.2-7.7-4.1-9.1l29.5,8.8c0,0-1.7,8.4-7.1,7.5s-7.1-2.1-7.1-2.1
			s0.8-3.6-2.7-4.7C52.2,55.9,52.1,58.3,52.1,58.3z"/>
		<path fill="#231F20" d="M51,46.3c0.9,0.3,1.4,1.2,1.1,2.1l-1,3.2c-0.3,0.9-1.2,1.4-2.1,1.1l0,0c-0.9-0.3-1.4-1.2-1.1-2.1l1-3.2
			C49.2,46.5,50.1,46,51,46.3L51,46.3z"/>
		<path fill="#231F20" d="M62.6,50c0.9,0.3,1.4,1.2,1.1,2.1l-1,3.2c-0.3,0.9-1.2,1.4-2.1,1.1l0,0c-0.9-0.3-1.4-1.2-1.1-2.1l1-3.2
			C60.8,50.2,61.7,49.7,62.6,50L62.6,50z"/>
		
			<rect x="62.7" y="54.2" transform="matrix(0.2872 -0.9579 0.9579 0.2872 -5.5021 102.0531)" fill="#231F20" width="6.1" height="1.1"/>
		<polygon fill="#512B02" points="48.9,47.4 47.9,50.9 8.7,38.7 9.6,35.6 		"/>
		
			<rect x="46.6" y="47.9" transform="matrix(0.2872 -0.9579 0.9579 0.2872 -11.8344 83.2453)" fill="#231F20" width="6.9" height="3.4"/>
		
			<rect x="58.2" y="51.5" transform="matrix(0.2872 -0.9579 0.9579 0.2872 -7.0029 96.9885)" fill="#231F20" width="6.9" height="3.4"/>
		<path fill="#231F20" d="M8.7,38.7l0.9-2.9l-0.9-1.2L0,32.1c0,0,1.9,1.6,0.2,5.5l6.6,2L8.7,38.7z"/>
		<path fill="#693C05" d="M69.8,55.4c0,0,2.9-6.6-1.5-8.5c-4.3-1.9-4.3,1.4-7.2,1.4s-5.4,0.1-6.9-3.6c0,0-0.7-1.1-2.6-0.4
			c-2,0.7-4.5,2.6-4.5,2.6l-2.5-0.7c0,0,4-3.5,6.8-4c0,0,4.2,0.5,5,1.6c0,0-0.7,2.1,2.5,2.9c3.2,0.8,4.7-2.6,4.7-2.6
			s3.5,0.6,5.5,1.6c1.9,1,6.7,2.4,3.5,10.6L69.8,55.4z"/>
		<path fill="#693C05" d="M69.9,55.4c0,0-1.4,7.6-6.1,6.8s-2.7-3.7-5.2-5.4s-4.4-3.2-7.8-0.7c0,0-1.2,0.6-2.4-1.1
			c-1.2-1.7-2.3-4.9-2.3-4.9l-2.5-0.7c0,0,1.4,5.4,3.4,7.5c0,0,3.8,2,5,1.4c0,0,0.6-2.3,3.7-1.2c3.1,1.1,2.5,5,2.5,5
			s3.3,1.5,5.5,1.6c2.2,0.2,6.9,1.6,8.9-7.5L69.9,55.4z"/>
		
			<rect x="65" y="56.6" transform="matrix(-0.3718 -0.9283 0.9283 -0.3718 35.0295 144.0854)" fill="#FFFFFF" width="2.5" height="7.2"/>
		<circle fill="#231F20" cx="64.4" cy="61" r="0.8"/>
		<circle fill="#231F20" cx="67.6" cy="59.4" r="0.8"/>
	</g>
	<path fill="#F9BD91" d="M69.2,54.1c-7.9,5.8-10,2.2-10.3,0.7s4.9-3,4.9-3s-2.1,0.8-2.3-0.3s2.2-2.2,2.2-2.2s3.8-2.1,5.4,0.4
		C70.6,52.1,69.2,54.1,69.2,54.1z"/>
	<path fill="#050503" d="M72.9,42l-6.8,5.9l5.2,6.2L81,42L78.6,38C78.6,38,72.6,38.3,72.9,42z"/>
	<polygon fill="#FFFFFF" points="71.3,54.1 73.3,51.6 68.1,46.2 66.1,47.9 	"/>
	<path fill="#603913" d="M51.4,117.9h3.6c0,0,1.4,4.5-3.2,4.7h-6c0,0-1.3-2.8,2.2-3C47.9,119.6,51,119.1,51.4,117.9z"/>
	<path fill="#050503" d="M46.4,16l0.6,3l1.9,1.6l8.5-4.5V7.5l-1-1.7L56,12.2l-3,1.9c0,0-2-2.3-6.1-0.2L46.4,16z"/>
	<path fill="#050503" d="M56.4,6.9c0,0-2.6-1.9-2.9-3.2c0,0-4.7-1.2-8.4,1.2c0,0-3.2-0.7,0-3s13.5-5,15.3,6.8h-1.1
		c0,0-0.1-2.2-2.2-1L56.4,6.9z"/>
	<path fill="#F9BD91" d="M25.6,47.2c-7.8-3.5-6-6.6-5-7.5c1-0.9,4.4,2.3,4.4,2.3s-1.5-1.2-0.8-1.9c0.8-0.7,2.7,0.7,2.7,0.7
		s3.3,2,2.1,4.3S25.6,47.2,25.6,47.2z"/>
</g>
<g>
	<path fill="#51381A" d="M159.2,76.9l16.4-3.5l22.7,2.7l-10.2-19.9l-24.8-4.9C163.4,51.3,157.4,68.8,159.2,76.9z"/>
	<path fill="#050503" d="M190.8,57.4l-2.6-1.9l-5.8,63.8h-4.6l-2.2-45l-5.4,45H166l-2.7-63.6l1.4-9.8l-1.4-8.7l-3,6.3l-5.7-4.1
		l7.1-17c0,0,13.6-4.9,31.7,2.8"/>
	<path fill="#EDE7B2" d="M169.7,119.3h-3.6c0,0-1.4,4.5,3.2,4.7h6c0,0,1.3-2.8-2.2-3C173.1,121,170,120.5,169.7,119.3z"/>
	<path fill="#F9BD91" d="M188.2,5.6l-3,14.8l-2.2-0.5l-1,4.9c0,0-3.5,4.4-8.7-1.8l2.1-10.1c0,0-1.8-0.8-1.4-2.9s2.4-0.7,2.4-0.7
		l1.2-5.9L188.2,5.6z"/>
	<path fill="#EDE7B2" d="M181.8,119.3h-3.6c0,0-1.4,4.5,3.2,4.7h6c0,0,1.3-2.8-2.2-3C185.2,121,182.1,120.5,181.8,119.3z"/>
	<polygon fill="none" stroke="#050503" stroke-miterlimit="10" points="154.6,39.4 155.8,43.8 165.5,46.6 165.9,41.7 161.7,37.3 	
		"/>
	<path fill="#84602D" d="M159.3,77.3l4-21.6l10.4-34.8l0.3-2.7c0,0-4.1-0.6-4.9,2.8l-7.2-0.2l-12.3,17l0.5,5l9.4,5.2l2.8-9.4
		l1.3-0.1l-6.6,21.6L159.3,77.3z"/>
	<path fill="#84602D" d="M182.3,22.9v9.3l5.8,24.1l-0.9,9.7l11.1,10.2l-5-29.9l4.3,3.8l4.6-3.8l-1.1-7l-3.4-3l-3.4-11.4l-3.6-2.7
		h-5.2c0,0-0.8-1.7-2.8-1.7L182.3,22.9z"/>
	<g>
		<path fill="#EDE7B2" d="M160.3,52.5c0,0,4.9,11.7,14.5,8c0,0,4.5-1.6,5.8-4.9c1.2-3.3,2-4.8,3.8-5.3c1.8-0.6,4.5,0.6,6.1-1.4
			s0.6-2.5-0.9-3.6c0,0-4.1-4.7-4.9-9.4c0,0,0.3-2.4-0.6-3.5c-0.9-1.1-3.8-0.1-5,1.9c-1.2,2-2.8,3-5.4,1.6c-2.6-1.4-6.3-1.5-9.5,0.4
			C160.9,38.2,155.8,43.1,160.3,52.5z"/>
		
			<rect x="164.3" y="48.3" transform="matrix(0.4212 0.907 -0.907 0.4212 141.2446 -123.2267)" fill="#C6AE75" width="5.8" height="1.5"/>
		<path fill="#C6AE75" d="M159.7,51.2l5.1-4l2.2,4.7l-6.1,2C160.9,53.9,160,52.2,159.7,51.2z"/>
		<path fill="#EDE7B2" d="M212.2,30.1l2.7,0l6-2.8c0,0,0.1-3.3-2.6-4.6l-6,2.8l-1.5,1.8L212.2,30.1z"/>
		<path fill="#CECAB2" d="M186.6,42l-9.4,4.4l-1,5.2c0,0,1,2.6,3.1,1.3c2-1.3,4.4-4.9,6.4-5.7S188.1,43.4,186.6,42z"/>
		
			<rect x="179.8" y="40.3" transform="matrix(0.4212 0.907 -0.907 0.4212 143.6898 -141.4742)" fill="#C6AE75" width="5.8" height="3"/>
		
			<rect x="174.4" y="42.9" transform="matrix(0.4212 0.907 -0.907 0.4212 142.8356 -135.0998)" fill="#C6AE75" width="5.8" height="3"/>
		
			<rect x="171.4" y="45" transform="matrix(0.4212 0.907 -0.907 0.4212 142.371 -131.6324)" fill="#C6AE75" width="5.8" height="1.5"/>
		
			<rect x="196.3" y="19.9" transform="matrix(0.4212 0.907 -0.907 0.4212 146.3098 -159.1634)" fill="#54503B" width="3.1" height="30.2"/>
		<circle fill="#C6AE75" cx="174.1" cy="58.1" r="1.2"/>
		<circle fill="#C6AE75" cx="170.8" cy="58.1" r="0.8"/>
		<circle fill="#C6AE75" cx="167.1" cy="57.5" r="0.7"/>
	</g>
	<path fill="#F9BD91" d="M160.7,46.4c7.9,5.8,10,2.2,10.3,0.7s-4.9-3-4.9-3s2.1,0.8,2.3-0.3s-2.2-2.2-2.2-2.2s-3.8-2.1-5.4,0.4
		C159.2,44.3,160.7,46.4,160.7,46.4z"/>
	<path fill="#84602D" d="M158.5,47.6c0.1,0.1,0.9,0.4,0.9,0.4l4-7.5l-1.6-2.6C161.7,38,151.6,41.5,158.5,47.6z"/>
	<path fill="#F9BD91" d="M201.3,38.8c2.7-8.1-0.9-8.9-2.2-8.7c-1.3,0.2-1.2,4.9-1.2,4.9s0.1-2-0.9-1.8c-1,0.1-1.3,2.4-1.3,2.4
		s-0.7,3.7,1.8,4.4C200,40.6,201.3,38.8,201.3,38.8z"/>
	<path fill="#4A3807" d="M176.3,9.3l-0.7,6l2.2,1.3V9.3c0,0,4.8-0.4,7.9-4.2l0.9,0.2l0.7,4.7c0,0,2.2-1.6,2.3-3.3s-1.6-4.9-3.7-4.2
		c0,0-5-2.2-9.6-0.1S163,15.6,165.5,21L169,21c0,0,0.8-3.1,4.9-2.8l1.3-5.2c0,0-1.7-0.9-1.3-2.8C174.3,8.4,175.5,8.8,176.3,9.3z"/>
</g>
<g>
	<path fill="#536655" d="M238.8,64.1l-7.5,22.4l5.9,31.5h6.5l-3.1-29.9l8.1-10.3v11.5l2.2,31.2h6.2V91.2l3.1-21.8
		c0,0-8.4-7.5-19.9-5.3"/>
	<path fill="#050503" d="M238.5,117.9h4.5c0,0,1.8,5.7-4.1,6h-7.6c0,0-1.7-3.6,2.8-3.8C234.2,120.1,238.1,119.4,238.5,117.9z"/>
	<path fill="#231F20" d="M243.7,62.8l2.9,24c0,0,17-2.5,21.5-15.3l-2.2-16.3c0,0,6.8-1.5,6.7-11.2s-9.1-18.9-14-19.7
		c-5-0.9-24.6,1.2-27.3,5.5L226,41.9L243.7,62.8z"/>
	<path fill="#231F20" d="M242.1,68.8l-9,12.3l-3-6.1l4.8-14.6C234.9,60.4,242.5,61.8,242.1,68.8z"/>
	<g>
		<path fill="#72111D" d="M250.2,54.1c0,0,2.1,5.5,6.6,6.3c0,0-0.8,1.3-3.8,0.7c-3-0.6-4.1,0.5-5.5,2.7c-1.3,2.2-5.5,5-7.7,5.8
			c-2.2,0.8-7.1-0.4-10.1-8.8c0,0-4.8-10.3,3.8-13.3c0,0,2.2-1.4,6.4-0.3c4.2,1.1,5.3,1.1,7.1-0.2s3.9-3.5,7.6-2.8
			C254.7,44.1,249,48.2,250.2,54.1z"/>
		<path fill="#231F20" d="M250.6,56.8l-12.2,4.3c0,0-5.2,4.2-4.7,5.6c0.5,1.4,4.7,3.9,9.3,0.5S250.4,58.3,250.6,56.8z"/>
		<circle fill="#231F20" cx="237.8" cy="64.9" r="0.6"/>
		<circle fill="#231F20" cx="238.9" cy="67.3" r="0.6"/>
		<circle fill="#231F20" cx="240.3" cy="63.6" r="0.6"/>
		<circle fill="#231F20" cx="241.9" cy="66.2" r="0.6"/>
		
			<rect x="228.3" y="58.5" transform="matrix(0.335 0.9422 -0.9422 0.335 210.4823 -178.4638)" fill="none" stroke="#BCBEC0" stroke-miterlimit="10" width="6.8" height="2.8"/>
		
			<rect x="245.6" y="52.8" transform="matrix(0.335 0.9422 -0.9422 0.335 216.3476 -198.5168)" fill="#6D6E71" width="6.4" height="2.3"/>
		
			<rect x="242.2" y="54.1" transform="matrix(0.335 0.9422 -0.9422 0.335 215.2168 -194.4777)" fill="#6D6E71" width="6.4" height="2.3"/>
		
			<rect x="238.4" y="55.4" transform="matrix(0.335 0.9422 -0.9422 0.335 213.9555 -189.9722)" fill="#6D6E71" width="6.4" height="2.3"/>
		
			<rect x="262.3" y="34.2" transform="matrix(0.335 0.9422 -0.9422 0.335 221.4499 -216.1434)" fill="#73503C" width="3.1" height="29.2"/>
		<path fill="#72111D" d="M277.1,42.5l1,2.9l3.3,0.1l8.8-3.4c0,0-1.6-3.1-4.4-3.7l-6.7,2.4L277.1,42.5z"/>
	</g>
	<path fill="#F9BD91" d="M231.9,57.4c7.4,5.4,9.4,2,9.7,0.6c0.3-1.4-4.6-2.8-4.6-2.8s2,0.8,2.2-0.3s-2.1-2.1-2.1-2.1s-3.6-2-5.1,0.3
		S231.9,57.4,231.9,57.4z"/>
	<path fill="#231F20" d="M233.7,52l-2.3-6.6l-4.7-5.1l-4.1,8.4l9.3,8.6C231.9,57.4,231.5,54,233.7,52z"/>
	<path fill="#72111D" d="M250.9,27.2l-5,6.9l-3.6-6.4C242.3,27.8,249.1,24.8,250.9,27.2z"/>
	<path fill="#F9BD91" d="M262.4,51.8c-2.7-8.1,0.9-8.9,2.2-8.7s1.2,4.9,1.2,4.9s-0.1-2,0.9-1.8c1,0.1,1.3,2.4,1.3,2.4
		s0.7,3.7-1.8,4.4C263.7,53.6,262.4,51.8,262.4,51.8z"/>
	<path fill="#231F20" d="M242.1,24.7c0,0-1.6,1.3-3.3,0c0,0,1.8,0.5,1.6-3C240.4,21.8,243.9,22,242.1,24.7z"/>
	<path fill="#F9BD91" d="M238.8,8.4l0.9,14.7l2.2-0.1l0.3,4.8c0,0,2.8,4.8,8.6-0.5l-0.6-10c0,0,1.8-0.5,1.7-2.6
		c-0.1-2.1-2.2-1-2.2-1l-0.4-5.8L238.8,8.4z"/>
	<path fill="#231F20" d="M242.3,9.9c0,0,0.8,2.2,4.3,3.6s4.2,11.2,4.2,11.2s7.2,0,2.9-6.5c0,0,2.4-11.8-7-11.7
		C246.6,6.6,240.9,6.3,242.3,9.9z"/>
	<path fill="#231F20" d="M239.3,17c0,0,0-4.3,1.4-4.9s3.6-4.4,1.9-4.9S234.3,6.8,239.3,17z"/>
	<polygon fill="#231F20" points="242.6,17.9 242.6,19 245.4,19.4 245.4,18.9 	"/>
	<polygon fill="#231F20" points="242.6,17.9 242.6,19 239.8,19.4 239.8,18.9 	"/>
	<path fill="#050503" d="M252.3,120.5h4.5c0,0,1.8,5.7-4.1,6h-7.6c0,0-1.7-3.6,2.8-3.8C247.9,122.7,251.9,122,252.3,120.5z"/>
</g>
</svg>
