<?xml version="1.0" encoding="utf-8"?>
<!-- Generator: Adobe Illustrator 18.0.0, SVG Export Plug-In . SVG Version: 6.00 Build 0)  -->
<!DOCTYPE svg PUBLIC "-//W3C//DTD SVG 1.1//EN" "http://www.w3.org/Graphics/SVG/1.1/DTD/svg11.dtd">
<svg version="1.1" id="Layer_1" xmlns="http://www.w3.org/2000/svg" xmlns:xlink="http://www.w3.org/1999/xlink" x="0px" y="0px"
	 viewBox="0 0 542.7 825.7" enable-background="new 0 0 542.7 825.7" xml:space="preserve">
<g>
	<path fill="#FFFFFF" d="M237.6,98.9c0.1-0.8,0.6-1.7,0.6-2.5c0-11.7-9.3-21.3-21-21.3c-8.4,0-15.6,4.9-19,12
		c-2.5-1.3-5.3-2.5-8.3-2.5c-8.5,0-15.6,5.4-17.5,13.4H172c-7.8,0-14.9,7.3-14.9,15.1V113c0,7.8,7.2,14,14.9,14h65.6
		c7.8,0,12.5-6.2,12.5-14v0C250.1,105.5,245,99.4,237.6,98.9z"/>
	<rect x="15.9" y="15.4" fill="#989A9C" width="510.9" height="803.5"/>
	<polygon opacity="0.23" points="15.9,670.9 15.9,647.2 526.8,647.2 	"/>
	<rect x="0" y="78.6" fill="#989A9C" width="542.7" height="18"/>
	<rect x="0" y="95.6" fill="#666769" width="542.7" height="3.3"/>
	<rect x="0" y="627" fill="#989A9C" width="542.7" height="18"/>
	<rect x="0" y="644" fill="#666769" width="542.7" height="3.3"/>
	<polygon opacity="0.23" points="15.9,123 15.9,99.2 526.8,99.2 	"/>
	<rect x="11.7" y="155.2" width="3.4" height="80.9"/>
	<rect x="11.7" y="264.5" width="3.4" height="80.9"/>
	<rect x="11.7" y="373.9" width="3.4" height="80.9"/>
	<rect x="11.7" y="483.2" width="3.4" height="80.9"/>
	<rect x="526.8" y="155.2" width="3.4" height="80.9"/>
	<rect x="526.8" y="264.5" width="3.4" height="80.9"/>
	<rect x="526.8" y="373.9" width="3.4" height="80.9"/>
	<rect x="526.8" y="483.2" width="3.4" height="80.9"/>
</g>
<g>
	<rect x="41.3" y="100.1" fill="#FF0000" width="460.5" height="515.9"/>
	<polygon fill="#0A0000" points="209.6,498 203.9,532.2 224.7,572.5 388.1,572.5 379,539.5 397.2,541.2 383,492.9 423.9,466.8 
		420.5,492.4 446.6,450.3 460.9,333.2 430.7,305.3 443.2,243.9 401.2,174 273.8,125.1 163.6,172.9 155,251.9 149.3,281.5 
		98.2,304.2 120.4,311 113,378.1 94.8,386.6 126.6,386.1 141.4,404.8 106.7,443.5 153.3,459.4 156.7,493.5 	"/>
	<polygon fill="#FFFFFF" points="373.3,269.5 365.4,234.3 288.6,205.3 185.2,225.8 174.4,316.1 207.3,416.8 260.8,453.1 
		307.4,425.9 334.7,352.5 373.3,316.7 	"/>
	<polygon fill="#010101" points="380.7,267.8 343.8,254.2 290.9,261 284.1,309.3 313.1,284.9 338.6,309.3 397.2,315 	"/>
	<polygon fill="#010101" points="332.4,380.4 292,360.5 292,351.4 312.2,347.4 284.1,333.2 248.8,333.2 270.7,348 284.1,344 
		281.2,366.7 296.6,380.4 257.3,380.4 232.3,394.6 264.7,391.2 293.2,390.6 252.8,406 315.3,432.1 	"/>
	<polygon fill="#010101" points="221.5,408.2 225.5,384.9 247.1,372.4 214.1,378.7 	"/>
	<polygon fill="#010101" points="247.1,287.1 262.5,279.8 257.9,263.3 186.9,258.2 221,272.7 186.9,294 	"/>
	<polygon fill="#FFFFFF" points="289.1,171.7 300,173.7 291.7,181.2 293.2,192.2 283.5,186.6 273.4,191.4 275.8,180.5 268.1,172.4 
		279.2,171.2 284.5,161.4 	"/>
</g>
<rect x="224.5" y="667" fill="#333333" width="91.3" height="152.3"/>
<g>
	<circle fill="#8F8586" cx="271.7" cy="738.3" r="23.6"/>
	<circle fill="#080B0A" cx="271.7" cy="738.4" r="20.2"/>
	<circle fill="#991C1F" cx="271.7" cy="738.4" r="16"/>
	<circle fill="#E11F26" cx="271.7" cy="738.4" r="11.4"/>
	<circle fill="#ED9C21" cx="271.7" cy="738.4" r="5.9"/>
	<path opacity="0.35" fill="#FFFFFF" d="M264.3,722.6l1.9,3.7c0,0,6.1-3.7,13.5,0.9l2.8-3.3C282.4,724,273.6,717,264.3,722.6z"/>
	<path opacity="0.35" fill="#FFFFFF" d="M279.1,754.3l-1.9-3.7c0,0-6.1,3.7-13.5-0.9l-2.8,3.3C260.9,752.9,269.8,759.9,279.1,754.3z
		"/>
</g>
</svg>
