<?xml version="1.0" encoding="utf-8"?>
<!-- Generator: Adobe Illustrator 18.0.0, SVG Export Plug-In . SVG Version: 6.00 Build 0)  -->
<!DOCTYPE svg PUBLIC "-//W3C//DTD SVG 1.1//EN" "http://www.w3.org/Graphics/SVG/1.1/DTD/svg11.dtd">
<svg version="1.1" id="Layer_1" xmlns="http://www.w3.org/2000/svg" xmlns:xlink="http://www.w3.org/1999/xlink" x="0px" y="0px"
	 viewBox="0 0 857 883.4" enable-background="new 0 0 857 883.4" xml:space="preserve">
<g>
	<rect x="59.5" y="7.8" fill="#CFCFCF" width="759.8" height="369.3"/>
	<rect x="0" y="359.2" fill="#82827D" width="857" height="8"/>
	<rect x="0" y="378.6" fill="#333331" width="857" height="10.5"/>
	<rect x="0" y="366.6" fill="#73736E" width="857" height="4.6"/>
	<rect x="59.5" y="315.5" opacity="0.55" fill="#333331" width="759.8" height="13.8"/>
	<g>
		<polygon fill="#A8A8A1" points="43.5,343.9 67.6,343.9 70.6,353.6 40.1,353.6 		"/>
		<path fill="#73736E" d="M40.1,353.6l3.7,10.4h23.7l3-10.4C70.6,353.6,39.6,354.1,40.1,353.6z"/>
	</g>
	<g>
		<g>
			<g>
				<polygon fill="#333331" points="43.5,378.7 67.6,378.7 70.6,388.4 40.1,388.4 				"/>
			</g>
			<g>
				<path fill="#333331" d="M40.1,388.4l3.7,10.4h23.7l3-10.4C70.6,388.4,39.6,388.9,40.1,388.4z"/>
			</g>
		</g>
	</g>
	<g>
		<polygon fill="#A8A8A1" points="225.4,343.9 249.5,343.9 252.5,353.6 222.1,353.6 		"/>
		<path fill="#73736E" d="M222.1,353.6l3.7,10.4h23.7l3-10.4C252.5,353.6,221.6,354.1,222.1,353.6z"/>
	</g>
	<g>
		<g>
			<g>
				<polygon fill="#333331" points="205.4,378.7 229.4,378.7 232.5,388.4 202,388.4 				"/>
			</g>
			<g>
				<path fill="#333331" d="M202,388.4l3.7,10.4h23.7l3-10.4C232.5,388.4,201.5,388.9,202,388.4z"/>
			</g>
		</g>
	</g>
	<g>
		<g>
			<g>
				<polygon fill="#333331" points="557.2,378.7 581.3,378.7 584.3,388.4 553.9,388.4 				"/>
			</g>
			<g>
				<path fill="#333331" d="M553.9,388.4l3.7,10.4h23.7l3-10.4C584.3,388.4,553.4,388.9,553.9,388.4z"/>
			</g>
		</g>
	</g>
	<g>
		<g>
			<g>
				<polygon fill="#333331" points="747.2,378.7 771.3,378.7 774.3,388.4 743.9,388.4 				"/>
			</g>
			<g>
				<path fill="#333331" d="M743.9,388.4l3.7,10.4h23.7l3-10.4C774.3,388.4,743.4,388.9,743.9,388.4z"/>
			</g>
		</g>
	</g>
	<g>
		<polygon fill="#A8A8A1" points="405.4,343.9 429.5,343.9 432.5,353.6 402,353.6 		"/>
		<path fill="#73736E" d="M402,353.6l3.7,10.4h23.7l3-10.4C432.5,353.6,401.5,354.1,402,353.6z"/>
	</g>
	<g>
		<polygon fill="#A8A8A1" points="597,343.9 621.1,343.9 624.1,353.6 593.7,353.6 		"/>
		<path fill="#73736E" d="M593.7,353.6l3.7,10.4h23.7l3-10.4C624.1,353.6,593.2,354.1,593.7,353.6z"/>
	</g>
	<g>
		<polygon fill="#A8A8A1" points="789.7,343.9 813.8,343.9 816.8,353.6 786.3,353.6 		"/>
		<path fill="#73736E" d="M786.3,353.6L790,364h23.7l3-10.4C816.8,353.6,785.8,354.1,786.3,353.6z"/>
	</g>
	<rect x="384.6" y="373" fill="#73736E" width="49.5" height="510.4"/>
	<polygon opacity="0.5" points="384.6,370.9 384.6,453.3 384.6,453.8 384.6,517 433.7,453.8 434.1,453.8 434.1,370.9 	"/>
	<rect x="474.4" y="388.4" fill="#333331" width="3.7" height="68.2"/>
	<rect x="512.3" y="388.7" fill="#333331" width="3.7" height="55"/>
	<rect x="512.3" y="447.3" fill="#333331" width="3.7" height="6.2"/>
	<rect x="485.3" y="372.3" width="3.7" height="6.6"/>
	<polygon points="485.3,382.5 485.3,378.9 489,378.9 	"/>
	<rect x="477.7" y="415.5" fill="#333331" width="7.6" height="2.5"/>
	<rect x="489" y="415.5" fill="#333331" width="23.4" height="2.5"/>
	<polygon fill="#545451" points="524.9,430.8 516,437.8 516,435.3 524.9,428.2 	"/>
	<rect x="489" y="405.9" fill="#82827D" width="38.4" height="2.5"/>
	<rect x="488.1" y="426" fill="#82827D" width="38.4" height="2.5"/>
	<polygon fill="#545451" points="524.9,410.9 516,418 516,415.5 524.9,408.4 	"/>
	<polygon fill="#333331" points="488.3,447 475.6,457.2 475.6,453.6 488.3,443.4 	"/>
	<polygon fill="#333331" points="488.3,428.5 475.6,438.7 475.6,435.1 488.3,424.9 	"/>
	<polygon fill="#333331" points="488.3,407.3 475.6,417.5 475.6,413.9 488.3,403.7 	"/>
	<polygon fill="#333331" points="528.1,447 515.4,457.2 515.4,453.6 528.1,443.4 	"/>
	<rect x="489" y="436" fill="#333331" width="27" height="2.5"/>
	<rect x="477.7" y="436" fill="#333331" width="7.7" height="2.5"/>
	<rect x="485.3" y="371.2" fill="#82827D" width="3.7" height="76"/>
	<rect x="485.3" y="443.7" fill="#82827D" width="42.5" height="3.5"/>
	<rect x="524.8" y="371.2" fill="#82827D" width="3.7" height="76"/>
	<rect x="474.4" y="453.3" fill="#333331" width="41.6" height="3.8"/>
</g>
</svg>
