<?xml version="1.0" encoding="utf-8"?>
<!-- Generator: Adobe Illustrator 18.0.0, SVG Export Plug-In . SVG Version: 6.00 Build 0)  -->
<!DOCTYPE svg PUBLIC "-//W3C//DTD SVG 1.1//EN" "http://www.w3.org/Graphics/SVG/1.1/DTD/svg11.dtd">
<svg version="1.1" id="Layer_1" xmlns="http://www.w3.org/2000/svg" xmlns:xlink="http://www.w3.org/1999/xlink" x="0px" y="0px"
	 viewBox="0 0 2007.3 337.5" enable-background="new 0 0 2007.3 337.5" xml:space="preserve">
<g>
	<rect x="346" y="23" fill="#DCDAD5" width="999.6" height="312.7"/>
	<rect x="-1.6" y="105.9" fill="#DCDAD5" width="355.2" height="229.7"/>
	<rect x="410.5" y="70.5" fill="#5E8AAF" width="51" height="51"/>
	<rect x="485.5" y="70.5" fill="#5E8AAF" width="51" height="51"/>
	<rect x="410.5" y="154.5" fill="#5E8AAF" width="51" height="51"/>
	<rect x="485.5" y="154.5" fill="#5E8AAF" width="51" height="51"/>
	<rect x="410.5" y="238.6" fill="#5E8AAF" width="51" height="51"/>
	<rect x="485.5" y="238.6" fill="#5E8AAF" width="51" height="51"/>
	<rect x="22.5" y="134.5" fill="#5E8AAF" width="41.9" height="41.9"/>
	<rect x="84.1" y="134.5" fill="#5E8AAF" width="41.9" height="41.9"/>
	<rect x="22.5" y="203.5" fill="#5E8AAF" width="41.9" height="41.9"/>
	<rect x="84.1" y="203.5" fill="#5E8AAF" width="41.9" height="41.9"/>
	<rect x="22.5" y="272.5" fill="#5E8AAF" width="41.9" height="41.9"/>
	<rect x="84.1" y="272.5" fill="#5E8AAF" width="41.9" height="41.9"/>
	<rect x="1205.6" y="70.5" fill="#5E8AAF" width="51" height="51"/>
	<rect x="1280.6" y="70.5" fill="#5E8AAF" width="51" height="51"/>
	<rect x="1205.6" y="154.5" fill="#5E8AAF" width="51" height="51"/>
	<rect x="1280.6" y="154.5" fill="#5E8AAF" width="51" height="51"/>
	<rect x="1205.6" y="238.6" fill="#5E8AAF" width="51" height="51"/>
	<rect x="1280.6" y="238.6" fill="#5E8AAF" width="51" height="51"/>
	<rect x="348" y="133" opacity="0.1" width="998" height="12"/>
	<rect y="185" opacity="0.1" width="347.2" height="12"/>
	<rect y="255" opacity="0.1" width="347.2" height="12"/>
	<rect x="1344.4" y="105.9" fill="#DCDAD5" width="662.2" height="229.7"/>
	<rect x="1345.9" y="185" opacity="0.1" width="661.4" height="12"/>
	<rect x="1345.9" y="255" opacity="0.1" width="661.4" height="12"/>
	<rect x="348" y="215" opacity="0.1" width="998" height="12"/>
	<g>
		<g id="KRyJ1s.tif_2_">
			<g>
				<path fill="#CD0014" d="M707.3,78.6c1.9,0.8,4,1.4,5.8,2.4c4.4,2.5,6.6,6.5,7.1,11.4c0.5,4.7-0.5,9.1-2.6,13.3
					c-1.5,3-3.3,5.8-5.2,8.5c-1.9,2.7-4.7,4.2-8,4.7c-3.2,0.4-5.6-1.4-5.9-4.6c-0.3-2.5,0-5,1.2-7.2c2.1-3.9,4.6-7.5,9.2-8.8
					c0.9-0.2,1.8-0.5,2.7-0.4c1.2,0.1,1.7-0.5,2-1.6c1.3-4.5-1.4-8.3-6.3-8.3c-2.5,0-5,0.5-7.4,1.3c-9.8,3.3-18.2,9-25.8,16
					c-24.1,22.3-43.5,48.1-57,78.1c-4.8,10.6-8.3,21.6-10.2,33c-1.4,7.9-1.4,16,0.5,23.9c2.4,10,8.5,16.8,18,20.8
					c7.6,3.3,15.6,4.5,23.8,3.8c13.4-1,26.3-4.6,39.3-7.7c14.8-3.6,29.6-7.4,44.5-10.7c14-3.1,28.2-4.6,42.6-3.9
					c16.6,0.8,31.7,5.7,45.3,15.5c7.6,5.5,15.2,11,21.7,17.8c1.1,1.2,2.2,2.4,3,3.9c-0.4-0.2-0.8-0.5-1.2-0.7
					c-13.5-8.6-28.1-13.5-44.2-13.4c-6.9,0-13.5,1.2-19,5.6c-2.8,2.2-5.2,4.9-7.8,7.5c0.2,0.2,0,0.1-0.1-0.1
					c-6-10.4-15.4-16.3-26.8-19.1c-8.1-2-16.4-2.2-24.7-1.7c-14.6,0.9-28.5,4.7-42.6,8.2c-13,3.3-26.2,6.1-39.4,8.7
					c-10.4,2.1-20.9,1.9-31-1.8c-15.3-5.6-24.8-16.4-28.1-32.4c-0.6-3.1-0.9-6.2-1.3-9.3c-0.1-0.4-0.2-0.9-0.3-1.3
					c0-2.8,0-5.6,0-8.3c0.2-2.2,0.4-4.4,0.7-6.6c1.6-12.4,5-24.2,10-35.6c9.9-22.7,23.9-42.5,41.3-59.9
					c11.3-11.3,23.4-21.7,37.4-29.4c7.8-4.3,15.8-8.1,24.6-10c2.8-0.6,5.7-0.9,8.5-1.4C703.4,78.6,705.3,78.6,707.3,78.6z"/>
				<path fill="#CD0014" d="M717,165.2c1.2-0.2,2.3-0.2,3.1-0.6c2.9-1.5,5.9-2.9,8.6-4.7c5.7-3.8,10.7-8.5,15.4-13.5
					c4.9-5.2,10.3-9.8,16.3-13.7c5.2-3.4,10.7-5.6,17.1-5.2c8.1,0.4,13.7,7,12.5,15.1c-0.9,6.4-3.5,12.1-7.9,16.9
					c-1.5,1.7-3.5,3.1-5.5,4c-3.5,1.6-6.9-0.9-7.1-4.7c-0.3-6.8,6-13.8,12.9-14.3c0.4,0,1-0.3,1.2-0.7c1.2-2.5,0.5-6.7-3.8-6.8
					c-3.5-0.1-6.4,1.5-9.1,3.7c-5.1,4.1-9.7,8.7-13.8,13.8c-9.7,11.9-16.9,25.2-22,39.7c-1.3,3.6-1.8,7.3-1.2,11.1
					c0.9,5.9,5.3,8.8,11,7.3c5.1-1.4,9.3-4.4,13.1-7.8c8.3-7.6,15.5-16.2,22.2-25.2c6.3-8.4,12.4-17,18.9-25.1
					c6.3-7.9,13.3-15,21.6-20.8c3.9-2.7,7.9-5,12.6-5.8c5.2-1,9.4,0.7,12.5,5c0.2,0.3,0.4,0.5,0.7,0.8c0.2-0.2,0.4-0.4,0.4-0.5
					c1-2.7,3-3.2,5.7-3.1c4.6,0.2,9.2,0.1,13.7,0.1c0.5,0,1,0,1.8,0c-0.5,1-0.9,1.6-1.3,2.3c-13.1,22.8-26.3,45.6-39.4,68.4
					c-0.7,1.3-1.2,2.7-1.4,4.2c-0.2,2.1,1.2,3.1,3.2,2.3c1.5-0.6,2.9-1.4,4.1-2.3c4.8-3.6,8.9-7.9,12.7-12.5
					c3.5-4.2,6.8-8.6,10.1-13c0.8-1.1,1.7-1.6,3-1.5c1.4,0.1,2.8,0,4.5,0c-0.2,0.4-0.3,0.7-0.4,0.9c-8.2,11.9-16.6,23.5-27,33.6
					c-5.2,5-10.6,9.9-17.2,13.1c-3,1.4-6.1,2.2-9.4,1.5c-3.3-0.7-6-3.8-6.3-7.3c-0.2-2.4,0-4.8-0.3-7.5c-0.3,0.4-0.6,0.9-1,1.3
					c-3.6,3.9-7.5,7.4-12,10.1c-3,1.9-6.2,3.3-9.9,3.7c-7.2,0.8-12.4-3.7-12.7-11c-0.2-4.3,0.9-8.5,1.9-12.6
					c0.1-0.5,0.2-1.1,0.1-1.8c-0.5,0.4-0.9,0.9-1.4,1.3c-5.9,5.3-11.7,10.8-17.9,15.8c-5.1,4.1-10.9,7-17.5,8
					c-3.4,0.5-6.8,0.8-10.1-0.4c-6.9-2.4-10-7.8-11.4-14.7c-1.9-9.1,0.5-17.5,4.2-25.7c2.2-4.8,4.7-9.5,7-14.2
					c0.2-0.5,0.5-1,0.9-1.7c-2.6,0.6-4.8,1.3-7.1,1.7c-2.1,0.3-3.2,1.4-4.3,3.1c-4.7,7.5-9.1,15.2-14.4,22.3
					c-7.1,9.5-15.3,18.1-25.3,24.6c-4.1,2.7-8.5,4.8-13.5,5.3c-5.5,0.5-10.6-2.4-12.7-7.5c-1.8-4.3-2.1-8.8-1.7-13.3
					c1.3-13.2,6.6-25,13.6-36c8.5-13.3,18.7-25.2,31.6-34.5c5.3-3.8,10.9-7,17.4-8.2c9.9-1.8,16.2,3.4,16.4,13.5
					c0.1,5.5-1.3,10.8-3.2,15.9C719.1,159.8,718.1,162.3,717,165.2z M791,204.1c0.2,1.6,0.8,2.9,2.1,3.7c1.4,0.8,2.7,0.7,4.1,0
					c3.3-1.9,6.3-4.2,8.6-7.2c3.3-4.3,6.6-8.6,9.3-13.2c9.1-15.3,17.9-30.7,26.8-46.1c1-1.7,0.4-3.2-1.4-3.9
					c-1.6-0.7-3.2-0.3-4.6,0.4c-3.1,1.4-5.9,3.3-8,5.9c-6.3,7.9-12.7,15.7-18.6,23.8c-6.6,8.9-12.1,18.4-15.9,28.9
					C792.3,198.8,791.7,201.5,791,204.1z M688.3,158.1c-0.4,0.5-0.7,0.7-0.8,1c-3.1,4.7-6.2,9.3-9.1,14.1c-4.1,6.8-7.7,14-9.5,21.8
					c-0.5,2.3-0.7,4.7-0.5,7c0.5,4.4,3.5,6.3,7.8,5.2c1.1-0.3,2.1-0.8,3.1-1.3c3.9-2.3,7-5.5,10.1-8.8c6.5-7.1,11.2-15.3,16.1-23.4
					c0.3-0.5,0.5-1.2,0.8-2C698.6,169.3,692.3,165.4,688.3,158.1z M716.2,145.1c0-0.7,0.1-1.5,0-2.2c-0.8-5.5-3.2-7.5-9-5.9
					c-0.9,0.3-1.9,0.7-2.7,1.2c-3.9,2.6-6.9,6-8.6,10.4c-1.4,3.8-1.2,7.4,1.4,10.6c2.9,3.6,6.8,5.5,11.4,6.2
					c0.9,0.1,1.4-0.3,1.7-1.1c1-2.5,2.3-5,3.2-7.5C715.1,153,716.2,149.2,716.2,145.1z"/>
			</g>
		</g>
		<g id="KRyJ1s.tif_1_">
			<g>
				<path fill="#CD0014" d="M1125.6,117c1.4-2.8,2.7-5.5,3.9-8.1c1.3-2.8,2.4-5.6,2.4-8.7c0-2.3-1-3.1-3.1-2.2c-2,0.9-4,1.9-5.7,3.2
					c-7.6,6-14.5,12.8-20.9,20c-13.5,15.1-24.8,31.8-35.3,49.1c-6.5,10.8-12.5,21.9-18.7,33c-0.6,1-1,2.1-1.3,3.5
					c0.7-0.4,1.5-0.7,2.2-1.3c4.1-3.2,8.2-6.3,12.1-9.7c17-15.3,32.7-32,46.5-50.2c1.3-1.8,2.6-3.1,5-2.9c1,0.1,2.1-0.2,3.4-0.4
					c-0.8,1.2-1.4,2.3-2.1,3.3c-9,12.7-19.3,24.3-30,35.7c-13,13.8-27.1,26.3-42.6,37.1c-0.4,0.3-0.9,0.7-1.1,1.2
					c-4.8,10.4-9.1,20.9-11.2,32.2c-0.4,2.2-0.4,4.6-0.1,6.8c0.6,3.3,3.6,4.7,6.3,2.6c2.9-2.2,5.6-4.7,7.8-7.5
					c4.2-5.5,8.1-11.3,11.9-17.2c6.5-10,13-19.9,20.7-29.1c7-8.4,14.7-16,24.2-21.6c4.1-2.4,8.5-3.5,13.3-2.7c3.1,0.5,4.9,2.7,6.6,5
					c0.4,0.6,0.8,1.1,1.4,1.8c0.8-1.4,1.5-2.7,2.3-3.9c0.3-0.4,0.9-0.9,1.3-0.9c5.8-0.1,11.7,0,17.5,0c0.1,0,0.3,0.1,0.5,0.2
					c-0.3,0.5-0.5,1-0.7,1.5c-8.9,15.7-17.7,31.5-26.6,47.2c-3.5,6.1-7,12.1-10.5,18.3c-0.9,1.6-1.6,3.4-2.3,5.2
					c-0.5,1.1-0.8,2.4,0.4,3.3c1.2,0.9,2.3,0.4,3.5-0.3c5.1-3.1,9.5-7.2,13.1-11.9c4.4-5.7,8.4-11.6,12.6-17.4
					c0.6-0.8,1.1-1.2,2.2-1.2c1.5,0.1,3,0,4.8,0c-0.7,1.2-1.2,2.1-1.8,3c-7.3,11.4-15.3,22.3-24.7,32c-5.4,5.6-11.5,10.1-18.7,13.2
					c-1.8,0.8-3.9,1.1-5.9,1.1c-3.8,0-6.5-1.9-7.3-5.6c-0.6-2.5-0.4-5.2-0.5-7.8c0-0.5,0.1-1,0.2-1.6c-0.1-0.1-0.2-0.1-0.3-0.2
					c-1,1.1-2,2.2-3.1,3.2c-4.3,4.1-8.9,7.9-14.3,10.5c-2.7,1.3-5.4,1.9-8.4,1.5c-5.1-0.8-8.4-4.4-8.9-10.1
					c-0.2-2.3-0.1-4.6-0.1-6.8c0-0.6,0.1-1.2,0.1-2.3c-0.7,0.8-1,1.2-1.4,1.6c-4.2,5-8.5,9.8-14,13.4c-2.3,1.5-4.8,2.9-7.4,3.7
					c-5.7,1.9-10.7-0.3-13.6-5.5c-1.7-3.1-2.1-6.4-2-9.8c0.2-7.7,2.5-14.9,4.7-22.1c1.4-4.4,2.9-8.8,4.4-13.4
					c-0.9,0.1-1.5,0.3-2.2,0.4c-2.3,0.3-4.6,0.6-7,0.8c-1.2,0.1-1.7,0.6-2.3,1.5c-4.6,7.2-9.1,14.6-14.1,21.6
					c-6.8,9.4-14.9,17.6-25.1,23.5c-3.3,1.9-6.8,3.4-10.8,3.7c-7.4,0.6-11.2-4.3-12.4-9.2c-1.3-5.3-0.7-10.5,0.4-15.7
					c2.5-11.2,7.4-21.4,13.6-31c6.7-10.4,14.1-20.1,23.5-28.3c5.6-4.9,11.8-8.9,18.8-11.3c2.7-0.9,5.4-1.2,8.2-0.9
					c5.5,0.5,8.2,4.7,9,8.4c1.3,5.8,0.5,11.4-1.4,16.9c-1.5,4.5-3.5,8.8-5.2,13.2c-0.2,0.5-0.4,1-0.7,1.7c3.8,0.2,7-0.7,10.1-2.3
					c0.5-0.2,0.7-0.9,1-1.5c9.5-19.7,20.1-38.8,32.4-56.9c15.1-22.2,32.5-42.4,53.4-59.5c5-4.1,10.3-7.7,16.2-10.4
					c2.9-1.3,6-2.1,9.3-2c4,0.2,6.1,2.3,6.4,6.4c0.4,5-1,9.6-3.1,14.1c-2.3,4.9-2.5,5.1-7.9,6C1126.3,117,1126,117,1125.6,117z
					 M1068.8,258c0,1.7,2.1,3.4,5,2.3c1.4-0.5,2.6-1.4,3.8-2.3c3.7-2.7,6.2-6.5,8.9-10.2c7.2-10.1,13.2-20.9,19.3-31.6
					c3.6-6.3,7.2-12.5,10.9-18.7c0.8-1.3,1.2-2.6,0.1-4c-1-1.4-2.5-1.6-3.9-1.1c-1.8,0.6-3.5,1.5-5,2.6c-2,1.5-3.9,3.2-5.6,4.9
					c-12.8,13-22.6,28.1-30.4,44.6C1070.2,248.4,1069,252.4,1068.8,258z M983.7,212.9c-2.8,4.1-5.4,7.8-7.9,11.7
					c-4.4,7-8.3,14.3-10.6,22.3c-0.8,2.8-1.3,5.6-0.8,8.5c0.6,3.7,3.4,5.6,7,4.8c3.5-0.8,6.2-2.9,8.7-5.3
					c7.9-7.4,13.9-16.2,18.8-25.8c0.3-0.5,0.5-1.1,0.7-1.7C992.9,224.2,987.3,220,983.7,212.9z M1010.5,199.1c0-0.8,0.1-1.7,0-2.5
					c-0.4-3.6-2.3-5.7-5.4-5.5c-1.3,0.1-2.7,0.3-3.9,0.9c-3.5,1.8-6.4,4.1-8.6,7.5c-5.6,8.9-0.5,19,9.1,22.2
					c0.4,0.1,1.3-0.3,1.5-0.6c1-1.6,1.9-3.3,2.6-5C1008.3,210.5,1010.7,205.1,1010.5,199.1z"/>
				<path fill="#CD0014" d="M1087,114.7c-4.6,4.9-9,9.8-13.6,14.6c-0.3,0.3-1.2,0.3-1.6,0.1c-2.9-1.6-5.8-3.3-8.6-5.1
					c-8.7-5.5-17.3-11.2-26.1-16.5c-6.8-4.1-14.2-6.9-22.1-8.1c-2.5-0.4-5.1-0.3-7.5,0.5c-0.8,0.3-1.1,0.7-1.1,1.5
					c0.8,9.1-1.6,17.6-5.1,25.9c-4.8,11.5-11.8,21.5-20.9,30c-3.8,3.5-8.3,6.1-13.4,7.7c-6.9,2.1-12.2-1.4-13.2-8.5
					c-0.6-4.7,0.6-9,2.3-13.2c5.7-14.3,14.8-26.1,26.5-35.9c4.1-3.4,8.7-6.4,13-9.5c0.3-0.2,0.5-0.4,1-0.7c-2.7-1.2-5.3-1.2-7.9-0.8
					c-3.8,0.5-7.2,2.3-10.5,4.1c-12.9,6.9-24,16.1-33.9,26.6c-18.3,19.4-34.3,40.6-46.9,64.2c-6.9,13-12.4,26.6-15,41.2
					c-1.1,6-2,12-0.4,18.1c1.7,6.3,5.2,11,11.8,12.9c4,1.1,7.9,0.3,11.6-1.4c6.7-3,12.2-7.5,17.2-12.7c9.8-10.3,17.6-22,22.1-35.6
					c1.7-5.2,2.9-10.4,2.6-16c-0.4-5.2-3.5-7.3-8.4-5.4c-3.6,1.4-6.1,4.2-8.4,7.2c-5,6.6-8.4,13.9-10,22.1c-0.1,0.6-0.6,1.3-1.1,1.6
					c-8.8,4.3-16.3,10.3-23,17.4c-0.2,0.2-0.5,0.5-1,0.9c2.2-16.2,6.8-31.2,17.4-43.7c6.2-7.4,13.8-12.8,23.3-15
					c2.5-0.6,5-1,7.5-0.4c4.2,1.1,6.8,3.8,8.2,8c1.7,5.3,1.4,10.6,0.5,15.9c-2.2,12.6-8,23.6-14.9,34.1
					c-8.8,13.3-19.7,24.4-33.4,32.5c-5.9,3.5-12.2,5.4-19,5.6c-10.9,0.4-18.8-4.6-24.2-13.8c-4.6-7.9-5.7-16.6-5.2-25.5
					c0.9-14.1,5.7-27.2,11.7-39.7c16.3-34.1,38.8-63.4,68.2-87.3c12.6-10.2,26.6-18.2,42.3-22.7c5.7-1.6,11.4-2.1,17.2-0.5
					c2.6,0.7,4.9,2,6.8,3.8c0.7,0.6,1.2,0.7,2.1,0.5c4.6-1.5,9.2-3.2,14-4.2c11.7-2.4,23-0.6,33.5,4.9c11.9,6.3,23.5,13.3,35.2,19.9
					C1086.8,114.5,1086.9,114.6,1087,114.7z M1000.6,102.6c-1.6,0.9-2.8,1.5-3.9,2.2c-14.9,9.1-25.9,21.9-33.8,37.4
					c-1.8,3.5-3.3,7.1-3.7,11.1c-0.5,5.1,3.5,8.1,8.2,6c1.9-0.9,3.7-1.9,5.4-3.2c16.2-12.5,25.6-28.9,27.9-49.3
					C1000.8,105.5,1000.6,104.3,1000.6,102.6z"/>
				<path fill="#CD0014" d="M1178.4,89.2c-2.6,5.5-5.8,10.5-9.6,15.2c-11.9,15.1-26.7,26.2-45.2,32.1c-9.3,3-18.9,3.9-28.6,2
					c-0.2,0-0.4-0.1-0.6-0.1c-0.4-0.1-0.9-0.2-1.5-0.4c0.3-0.5,0.6-0.9,0.8-1.2c3.9-4.8,7.8-9.5,11.8-14.3c0.4-0.5,1.1-0.9,1.7-0.9
					c11.1,1,21.8-0.9,32.1-5.2c14.7-6.1,27.3-15.2,38.4-26.6C1178,89.7,1178.2,89.5,1178.4,89.2z"/>
			</g>
		</g>
		<path fill="#CD0014" d="M922.4,115.3c-3.1,2.3-5.8,4.3-8.6,6.3c-3.1,2.3-6.2,4.6-9.4,6.9c-0.5,0.4-1.6,0.8-2.5,0.8
			c-10.3,0-20.7,0-31,0c-0.2,0-0.3-0.1-0.7-0.1c0.2-0.2,0.3-0.4,0.5-0.5c5.7-4.2,11.3-8.4,17-12.5c0.5-0.3,1.5-0.7,2.3-0.7
			C900.6,115.2,911.1,115.3,922.4,115.3z"/>
	</g>
	<rect x="308" y="103" opacity="0.1" width="38" height="230"/>
	<rect x="1344" y="103" opacity="0.1" width="38" height="230"/>
	<polygon fill="#DCDAD5" points="1673,128 1546.7,128 1609.8,76 1673,24 1736.2,76 1799.3,128 	"/>
	<path fill="#8C6239" d="M1727,168.3c0-29.5-23.5-54-53-54.3c-29.8-0.3-53.7,23.8-53.7,53.5c0,2.4-1,4.8,0,7.1L1621,337h106V174.6
		V168.3z"/>
	<path fill="#5E8AAF" d="M1721.5,173.3c0-28.7-21-52.6-47.3-52.8c-26.6-0.3-48,23.1-48,52.1c0,2.4-0.9,4.7,0,7l0.6,158h94.6v-158
		V173.3z"/>
	<rect x="1622.5" y="172.5" fill="#8C6239" width="102.5" height="5"/>
	<rect x="1622.5" y="215" fill="#8C6239" width="102.5" height="5"/>
	<rect x="1622.5" y="257.5" fill="#8C6239" width="102.5" height="5"/>
	<rect x="1622.5" y="300" fill="#8C6239" width="102.5" height="5"/>
	<rect x="1654" y="119.3" fill="#8C6239" width="5.7" height="217.7"/>
	<rect x="1689.5" y="119.3" fill="#8C6239" width="5.7" height="217.7"/>
	<rect x="1367.5" y="134.5" fill="#5E8AAF" width="41.9" height="41.9"/>
	<rect x="1429.1" y="134.5" fill="#5E8AAF" width="41.9" height="41.9"/>
	<rect x="1367.5" y="203.5" fill="#5E8AAF" width="41.9" height="41.9"/>
	<rect x="1429.1" y="203.5" fill="#5E8AAF" width="41.9" height="41.9"/>
	<rect x="1367.5" y="272.5" fill="#5E8AAF" width="41.9" height="41.9"/>
	<rect x="1429.1" y="272.5" fill="#5E8AAF" width="41.9" height="41.9"/>
	<rect x="1883.4" y="134.5" fill="#5E8AAF" width="41.9" height="41.9"/>
	<rect x="1945.1" y="134.5" fill="#5E8AAF" width="41.9" height="41.9"/>
	<rect x="1883.4" y="203.5" fill="#5E8AAF" width="41.9" height="41.9"/>
	<rect x="1945.1" y="203.5" fill="#5E8AAF" width="41.9" height="41.9"/>
	<rect x="1883.4" y="272.5" fill="#5E8AAF" width="41.9" height="41.9"/>
	<rect x="1945.1" y="272.5" fill="#5E8AAF" width="41.9" height="41.9"/>
	<polygon opacity="0.1" points="1344,121 1581,121 1673,43 1771,121 2008,121 2008,106 1771,106 1673,24 1575,106 1344.4,105.9 	"/>
</g>
</svg>
