<?xml version="1.0" encoding="utf-8"?>
<!-- Generator: Adobe Illustrator 18.0.0, SVG Export Plug-In . SVG Version: 6.00 Build 0)  -->
<!DOCTYPE svg PUBLIC "-//W3C//DTD SVG 1.1//EN" "http://www.w3.org/Graphics/SVG/1.1/DTD/svg11.dtd">
<svg version="1.1" id="Layer_1" xmlns="http://www.w3.org/2000/svg" xmlns:xlink="http://www.w3.org/1999/xlink" x="0px" y="0px"
	 viewBox="0 0 310.8 570.9" enable-background="new 0 0 310.8 570.9" xml:space="preserve">
<g>
	<polygon fill="#A97C50" points="160,109 139.7,186.1 87.7,176 80.1,190.5 159.4,220.1 	"/>
	<polygon fill="#FBB040" points="103.6,180.3 99.4,218.2 159.4,220.1 160,106.7 139.7,186.1 	"/>
	<path fill="#264C66" d="M244.7,300.8l8.8,253.1h-22.9l-36.2-231.9l-52,93.5l-8.8,138.5h-30l7.1-153.4l48.5-127l0.9-166.7
		c0,0,51.1-19.4,119.9,16.8L244.7,300.8z"/>
	<path fill="#A97C50" d="M244.1,108.8L201,182.1l-9.3-80.6C191.8,101.5,216.1,97.9,244.1,108.8z"/>
	<path fill="#A97C50" d="M77.3,193.2c-31.1-12.2-24.5-24.9-20.8-28.5s17.6,8.5,17.6,8.5s-6.2-4.5-3.3-7.2c2.9-2.7,10.5,2.2,10.5,2.2
		s13.1,7.1,8.8,16.3C85.9,193.7,77.3,193.2,77.3,193.2z"/>
	<path fill="#A97C50" d="M204.7,31.1l-8.8,50.1l7.6,1.3l-3.3,20.1c0,0,6,14.8,29.9,1.6l6-34.3c0,0,6.6-0.1,7.9-7.4s-6.6-5.1-6.6-5.1
		l3.5-20L204.7,31.1z"/>
	<path fill="#160C07" d="M241.5,67.6c0.1-0.3,11.8,19.5-7.9,16.8l2.5-14.4C236.1,70,239.8,70.1,241.5,67.6z"/>
	<path fill="#050503" d="M112.9,553.3h13.2c0,0,5.1,16.6-12,17.6H91.8c0,0-4.9-10.5,8.3-11.3C100.1,559.7,111.6,557.7,112.9,553.3z"
		/>
	<path fill="#050503" d="M249.8,551.6h-13.2c0,0-5.1,16.6,12,17.6h22.3c0,0,4.9-10.5-8.3-11.3C262.5,557.9,251,556,249.8,551.6z"/>
	<polygon fill="#264C66" points="248.9,422.5 280,551.6 214.1,553.9 214.1,431 	"/>
	<polygon fill="#264C66" points="83.3,553.9 152.9,553.9 137.5,417.4 109.8,417.4 	"/>
	<path fill="#FBB040" d="M159.6,273.2c5.4-1.8,88.3,13.6,88.6,11.8c0.4-1.8,32.2-161.7,32.2-161.7s-21.8-10.2-35.8-14.7l-43.1,73.4
		l-9.3-80.6c0,0-21.6-1.3-31.7,5.2L159.6,273.2z"/>
	<polygon fill="#662D91" points="280,123.9 244.6,109 214.1,238 251.5,268.7 	"/>
	<path fill="#662D91" d="M279.7,124.4l0.7-1.1c0,0-32.3-15.6-36.3-14.5c-4,1.1,0.5-0.2,0.5-0.2l-1,4.7L279.7,124.4z"/>
	<path fill="#662D91" d="M158.4,251.4l24.7-18.2l9.2-131.9c0,0-20.3-3.9-31.7,5.2L158.4,251.4z"/>
	<polygon fill="#3C2415" points="159.3,265 251.6,278.7 245.5,296.8 156.3,280.9 159.6,273.2 	"/>
	<path fill="#F7941E" d="M233.6,126.7l27.9,18.7l-7-33.7c0,0-8.7-5.7-20.9-6.4C233.6,105.3,238.4,117.9,233.6,126.7z"/>
	<path fill="#F7941E" d="M195.2,127.6l-26.6,8.1l10.7-34.1c0,0-3-3.4,16.5-1L195.2,127.6z"/>
	<polygon fill="#49226B" points="251.5,268.7 255.6,247.9 225.2,231.4 245.1,134.5 239.4,130.7 214.1,238 	"/>
	<polygon fill="#49226B" points="158.4,251.4 183.1,233.2 190.3,129.1 179.5,132.3 175.5,225.6 159.3,235.1 	"/>
	<circle fill="#603913" cx="239" cy="286.4" r="8.6"/>
	<circle fill="#603913" cx="215.4" cy="283.4" r="8.6"/>
	<circle fill="#603913" cx="190.3" cy="277.8" r="8.6"/>
	<circle fill="#603913" cx="167" cy="274.9" r="8.6"/>
	<path fill="#160C07" d="M239.3,57.1c0,0-6.5,5.3-5.7,9.5s-4.5,6-4.5,6s-3.8-3.4-1.1-9.6c2.8-6.2-2.6-9.5-1-11.2L239.3,57.1z"/>
	<path fill="#160C07" d="M242.5,71.1c0.7-0.5,9.4,1.7,8.3-14.9c0,0,14-5.5,7.9-14.5c0,0,3-16-8.5-16c0,0-3.4-8.5-14.3-4.7
		c0,0-7.4-8.1-19.6-2.8c0,0-9.4-5.5-14.3,1.9c0,0-6.8,3.4-3.6,8.5c0,0-8,10.9,4.5,12.5l25.1-1.5l11.3,17.4c0,0,7.1,0.4,4.7,5.4
		c0,0-1,3.6-4.7,6.8C239.3,69.3,236.7,75.8,242.5,71.1z"/>
	<path fill="#F15A29" d="M239.3,57.1c0,0-36.4-15.7-36.4-15.9c0-0.2,1.8-10.2,1.8-10.2l35,13L239.3,57.1z"/>
	<path fill="#160C07" d="M246.3,74.7c1.5,0.4,3.3-0.3,4.1-1.6c0.9-1.3,0.8-3.2-0.2-4.4c2.1,0,4.1-1.2,5-3c0.9-1.9,0.7-4.2-0.6-5.8
		c2.2,0.1,4.4-1.2,5.5-3.2c1-2,0.9-4.5-0.4-6.3c2.6-0.9,5-2.7,5.9-5.3c0.9-2.6-0.2-5.9-2.7-6.9c2.3-1.5,3.4-4.7,2.8-7.4
		s-2.7-5-5.2-6.3c1.2-0.3,1.9-1.7,1.7-2.9c-0.2-1.2-1.1-2.2-2-3.1c-2.3-2-5.3-3.2-8.4-3.4c0.8-1.6-0.8-3.4-2.3-4.3
		c-3.1-2-6.6-3.4-10.2-4.2c-1.1-0.2-2.4-0.4-3.5,0s-1.9,1.8-1.3,2.8c-1.1-1.7-3.2-2.7-5.2-2.6c-2,0.1-4,1.2-5,3c0-0.4,0-0.7,0-1.1
		c-0.3-2.2-3.1-3.4-5.3-2.8c-2.2,0.6-3.7,2.5-4.9,4.4c0.3-3-2.3-5.8-5.3-5.9c-3-0.1-5.7,2.7-5.6,5.7c0-1-1.3-1.6-2.3-1.3
		c-1,0.3-1.6,1.3-2.2,2.2c-1.3,2.1-2.4,4.8-1.3,7c0.3,0.1,0.3-0.6,0-0.6c-0.3,0-0.6,0.3-0.7,0.6c-1,2-1.5,4.6-0.1,6.3
		c1.2,1.4,3.2,1.7,5,1.9c6.5,0.8,13,2.2,18.8,5.3c4.3,2.3,8.1,5.6,12.3,8.2c2.9,1.8,5.9,3.4,9,4.8c2.1,1,4.4,2,5.8,3.9
		c1.2,1.6,1.7,3.6,1.8,5.6c0.3,3.8-0.3,7.7-2.4,10.8c-1.1,1.7-2.6,3.2-4,4.7c-2.9,3.2-5.4,6.7-7.5,10.5c-0.5,0.9-1,1.9-1,2.9
		s0.5,2.2,1.4,2.6c0.6,0.2,1.2,0.2,1.8,0.1c2.8-0.3,5.6-1.1,7.6-3.1S247.9,76.9,246.3,74.7z"/>
	<path fill="#160C07" d="M212.3,79c0.4-1.1,0-3,0.1-4.2c0.1-1.4,0.5-2.9,0.5-4.3c0-1.8-0.7-1.5-2.3-2.4c-0.8-0.4-1.9-0.9-2.4-1.6
		c1.6-1.1,5.4,0.7,6.6,1.9C216.5,70.3,213.1,76.7,212.3,79z"/>
	<path fill="#160C07" d="M199,76.1c0-1.2,0.9-2.8,1.3-4c0.4-1.4,0.5-2.9,1-4.2c0.6-1.7,1.1-1.2,3-1.5c0.9-0.1,2.1-0.2,2.8-0.7
		c-1.1-1.5-5.3-1.1-6.8-0.4C197.9,66.4,199.1,73.6,199,76.1z"/>
	<path fill="#160C07" d="M206.6,76.1l-1.3,2.9c0,0,2.8,3,6.4,1.2c0,0-9.8,8.7-15.3-1.8l5.6,0.6l0.3-2.9H206.6z"/>
	<g>
		<path fill="#D1D3D4" d="M179.6,232.6c0,0-15.4,24.2-37.6,23.6c0,0,2.5,6.8,17.3,7c14.8,0.2,19.3,6.3,23.6,18.2
			c4.3,11.9,21.4,29.4,31.3,35.3c9.9,6,34.1,5.2,56.7-32.3c0,0,33-44.4-5.2-67.5c0,0-9.4-8.8-30.5-7.8c-21.1,1.1-26.3,0.1-33.9-7.7
			c-7.6-7.7-15-20.5-33.4-20.9C167.8,180.6,191.1,205.6,179.6,232.6z"/>
		<circle fill="#231F20" cx="228" cy="296.3" r="3.1"/>
		<circle fill="#231F20" cx="220.4" cy="306.5" r="3.1"/>
		<circle fill="#231F20" cx="217.4" cy="287.6" r="3.1"/>
		<circle fill="#231F20" cx="207.2" cy="298.5" r="3.1"/>
		
			<rect x="245.8" y="271.6" transform="matrix(-0.5165 0.8563 -0.8563 -0.5165 636.2359 197.3858)" fill="none" stroke="#BCBEC0" stroke-miterlimit="10" width="33.2" height="13.4"/>
		
			<rect x="170.6" y="227.9" transform="matrix(-0.5165 0.8563 -0.8563 -0.5165 482.2995 194.7511)" fill="#6D6E71" width="31.2" height="11.4"/>
		
			<rect x="185.8" y="237" transform="matrix(-0.5165 0.8563 -0.8563 -0.5165 513.1954 195.638)" fill="#6D6E71" width="31.2" height="11.4"/>
		
			<rect x="202.7" y="247.2" transform="matrix(-0.5165 0.8563 -0.8563 -0.5165 547.6576 196.6272)" fill="#6D6E71" width="31.2" height="11.4"/>
		
			<rect x="111.7" y="122.9" transform="matrix(-0.5165 0.8563 -0.8563 -0.5165 347.1064 192.0599)" fill="#73503C" width="15.2" height="142.3"/>
		<path fill="#BCBEC0" d="M62.3,150.7l-7.9,13.1l-15.8-2.9L0,136c0,0,10.6-13.2,24.5-13.7l29.6,17.9L62.3,150.7z"/>
	</g>
	<polygon fill="#A97C50" points="214.1,227.3 215.7,242.6 310.8,216.1 280,123.5 266.1,182.1 275,202.6 	"/>
	<path fill="#A97C50" d="M217,244.8c-32.1,9.2-34.6-4.9-33.8-10c0.8-5.1,19.1-4,19.1-4s-7.7,0.2-7-3.7c0.7-3.9,9.7-4.6,9.7-4.6
		s14.7-2.3,16.9,7.6S217,244.8,217,244.8z"/>
	<polygon fill="#FBB040" points="237.9,217.7 246.6,257.5 310.8,216.1 280,123.5 266.1,182.1 275,202.6 	"/>
	<polygon fill="#603913" points="219.1,225.3 220,242.6 233.6,237.6 232,220.1 	"/>
	<path fill="#160C07" d="M202.9,41.3c0,0-9.4,4.5-2.1,11.7"/>
	<path fill="#160C07" d="M227,51.8c0,0,1.8-4.4,6-1.3c0,0,6-1.5,6.3,6.6"/>
</g>
</svg>
