<?xml version="1.0" encoding="utf-8"?>
<!-- Generator: Adobe Illustrator 18.0.0, SVG Export Plug-In . SVG Version: 6.00 Build 0)  -->
<!DOCTYPE svg PUBLIC "-//W3C//DTD SVG 1.1//EN" "http://www.w3.org/Graphics/SVG/1.1/DTD/svg11.dtd">
<svg version="1.1" id="Layer_1" xmlns="http://www.w3.org/2000/svg" xmlns:xlink="http://www.w3.org/1999/xlink" x="0px" y="0px"
	 viewBox="0 0 173.5 354" enable-background="new 0 0 173.5 354" xml:space="preserve">
<rect x="57.9" y="242.6" fill="#0E1215" width="43.2" height="9.1"/>
<polygon fill="#0E1215" points="102.2,192 98.6,200.3 61.4,157.5 64.9,149.2 "/>
<polygon fill="#0E1215" points="78.7,162.8 75.1,171.1 57,150.2 60.5,141.9 "/>
<polygon fill="#0E1215" points="80.3,162.8 83.9,171.1 102,150.2 98.5,141.9 "/>
<polygon fill="#0E1215" points="61.4,192 64.9,200.3 102.2,157.5 98.6,149.2 "/>
<polygon fill="#0E1215" points="59.9,238.6 63.4,246.1 102.6,205.5 99.1,198 "/>
<polygon fill="#0E1215" points="59.9,292.1 63.4,299.6 102.6,259.1 99.1,251.6 "/>
<polygon fill="#0E1215" points="59.9,339.2 63.4,346.7 102.6,306.1 99.1,298.6 "/>
<polygon fill="#0E1215" points="101.7,235.9 98.1,243.4 60.9,204.9 64.4,197.4 "/>
<polygon fill="#0E1215" points="101.7,287.9 98.1,295.3 60.9,256.8 64.4,249.3 "/>
<polygon fill="#0E1215" points="101.7,338.8 98.1,346.3 60.9,307.7 64.4,300.2 "/>
<rect x="57.9" y="295.2" fill="#0E1215" width="43.2" height="9.1"/>
<rect x="57.9" y="340.9" fill="#0E1215" width="43.2" height="9.1"/>
<rect x="57.9" y="196.5" fill="#0E1215" width="43.2" height="10.2"/>
<rect x="62" y="243.8" fill="#0E1215" width="41.5" height="11.4"/>
<rect x="60.1" y="299.8" fill="#0E1215" width="43.2" height="9.1"/>
<rect x="63.5" y="195.7" fill="#0E1215" width="39.8" height="10.9"/>
<rect x="76.6" y="145" fill="#0E1215" width="6.2" height="21.8"/>
<rect x="57.4" y="145" fill="#0E1215" width="6.2" height="209"/>
<rect x="98.6" y="145" fill="#0E1215" width="6.2" height="209"/>
<g>
	<polygon fill="#050505" points="9.6,20.2 0,4.2 173,4.2 160.1,20.2 	"/>
	<polygon fill="#050505" points="163.9,190.1 173.5,206.2 0.5,206.2 13.4,190.1 	"/>
	<polygon fill="#282828" points="16.1,190 0.5,206.2 0,5.1 16.1,19.7 	"/>
	<polygon fill="#282828" points="156.9,189.6 172.5,205.7 172.9,4.7 156.9,19.3 	"/>
</g>
<g>
	<g>
		<rect x="15.6" y="19.5" fill="#FEFEFC" width="141.7" height="171.4"/>
		<rect x="15.6" y="72.3" fill="#426A8E" width="141.7" height="118.6"/>
		<path fill="#5891AB" d="M108.2,142.5c0,0-6.8-33.1-21.2-37.3c0,0-20,15.7-21.8,39.4L108.2,142.5z"/>
		<path fill="#6EA0BC" d="M118.7,190.9c0,0,2-61.1-32.2-61.1s-31.1,61.1-31.1,61.1H118.7z"/>
		<path fill="#2F627F" d="M112.2,191c0,0-6.6-26.3-25.2-27.2c-18.5-0.9-23.2,27.1-23.2,27.1L112.2,191z"/>
		<path d="M110.4,181.6c0,0-5.8-21-22.4-21.2c-16.6-0.2-22.7,19.6-22.7,19.6s0.2-41.5,22.7-41.5S110.4,181.6,110.4,181.6z"/>
		
			<ellipse transform="matrix(-0.9419 -0.3359 0.3359 -0.9419 99.0032 271.5237)" fill="#2F627F" cx="73" cy="127.2" rx="0.5" ry="1.5"/>
		
			<ellipse transform="matrix(0.9419 -0.3359 0.3359 0.9419 -37.011 41.6148)" fill="#2F627F" cx="101.8" cy="127.8" rx="0.5" ry="1.5"/>
		<path fill="#D8DFD1" d="M61,162.4c0,0,2.4-16.6,12-26.3C73,136,61.2,140.5,61,162.4z"/>
		<path fill="#D8DFD1" d="M68,138.4c0,0,2.9-14.9,15.6-30.2c0,0-15.1,13.8-18,33.4L68,138.4z"/>
		<path fill="#D8DFD1" d="M75.9,138.4c0,0,12.8-8.1,27.2,3.2C103.1,141.6,89.8,124.8,75.9,138.4z"/>
		<path fill="#D8DFD1" d="M75.9,134.7c0,0,17.3-7.5,30.1,6.9C106,141.6,91.3,121.9,75.9,134.7z"/>
		<path fill="#8CB3B6" d="M88.4,140.7l1.5,9.3l1.9-8.4C91.8,141.6,90.6,139.8,88.4,140.7z"/>
		<path fill="#8CB3B6" d="M92.6,143.5l1.3,7.6l1.7-6.9C95.7,144.3,94.6,142.8,92.6,143.5z"/>
		<path fill="#8CB3B6" d="M95.1,142l1.9,7.5l1.2-7C98.2,142.5,97,141.1,95.1,142z"/>
		<path fill="#8CB3B6" d="M73.7,153.1l1.1,4.7l1.3-4.3C76.2,153.6,75.3,152.7,73.7,153.1z"/>
		<path fill="#8CB3B6" d="M72.5,149.6l1.1,4.7l1.3-4.3C74.9,150,74,149.1,72.5,149.6z"/>
		<path fill="#8CB3B6" d="M98.5,145.9l1.1,4.7l1.3-4.3C100.9,146.4,100,145.5,98.5,145.9z"/>
		<path fill="#8CB3B6" d="M101.3,149.6l1.1,4.7l1.3-4.3C103.7,150,102.8,149.1,101.3,149.6z"/>
		<path fill="#8CB3B6" d="M87.1,141.8l-1.5,8.5l-2-7.7C83.6,142.6,84.9,141,87.1,141.8z"/>
		<path fill="#8CB3B6" d="M82.9,144.1l-1.5,8.5l-2-7.7C79.4,144.9,80.6,143.3,82.9,144.1z"/>
		<path fill="#8CB3B6" d="M79.2,144.4l-3.3,6.3l0-6.6C75.9,144.2,77.4,143.2,79.2,144.4z"/>
		<path fill="#8CB3B6" d="M82.9,160.4l1.5-8.5l2,7.7C86.3,159.5,85.1,161.2,82.9,160.4z"/>
		<path fill="#8CB3B6" d="M90,160.2l2.4-8.3l1.2,7.8C93.6,159.7,92.2,161.2,90,160.2z"/>
		<path fill="#8CB3B6" d="M95.7,161.8l2.8-5.7l-0.2,5.8C98.3,161.9,97.1,162.8,95.7,161.8z"/>
		<path fill="#8CB3B6" d="M78.1,161.4l0.2-6.8l2.4,5.7C80.7,160.3,79.9,161.7,78.1,161.4z"/>
		<path fill="#D33711" d="M43,35.2h12.2v18.2c0,0-2.1,7.4-12.2,7.1C32.8,60.4,29.1,54,30,47.9l7.9-1.3c0,0-1.9,5.3,1.8,5.3
			c3.7,0,3.6-1.7,3.6-1.7L43,35.2z"/>
		<polygon fill="#D33711" points="53.2,59.9 63.3,35.2 76.7,35.2 85.5,59.9 75,59.9 73,55.5 64.6,55.5 63.1,59.9 		"/>
		<polygon fill="#D33711" points="77.9,35.2 89.4,35.2 93.1,45.2 97.3,35.2 104.6,35.2 108.2,45.2 111.8,35.2 119.9,35.2 
			111.6,59.9 102.8,59.9 98.9,51.2 95.5,59.9 86.5,59.9 		"/>
		<path fill="#D33711" d="M117.5,55.3l5.2-3.7c0,0,4,4,6.3,3.7c2.3-0.2,6.5-1.8,2.5-3.7c-4-1.9-12.4-0.6-13.1-8.5
			s14.3-11.7,22.7-5.6l-3.6,3.9c0,0-4.2-3.3-7.3-1.1c-3,2.2,3,4.1,7.1,4.6c4.1,0.5,6.6,4.2,6.3,7.9c-0.4,3.6-4.2,7.6-13.1,7.9
			C121.7,60.9,117.5,55.3,117.5,55.3z"/>
		<polygon fill="#FEFFFA" points="66.3,50.4 71.2,50.4 68.8,44.1 		"/>
		<path fill="#E1AF7F" d="M102.5,69.8l-6.9-5.6l-6.9,0.6L87.2,67h1.5l1.1-1.6l5.1,0.2l4,4.1l-3.1,1.3l-7.1-0.8l-7.3,1.5h-5.6
			L69.9,68v-0.8l-4.3,0.4l-1.2,1.7l2.9-0.1l5.1,2.1l2.3,1.2h32.8c0,0,1.7-0.2,1.6-1.8c-0.1-1.6-3-2.2-3-2.2L102.5,69.8z"/>
		<path fill="#755337" d="M107.4,72.3h2.4c0,0-0.2-4.4-1.6-4c0,0-4.6-1.1-6.3,1l0.6,0.5c0,0,4.1-1.8,4.7-0.8
			C107.8,69.9,107.4,72.3,107.4,72.3z"/>
		<path fill="#487170" d="M74.6,72.3c0,0-10.9,4.1-10.2,4.1c0.6,0,13.5,0.6,13.5,0.6h8.8l5.7-1.5c0,0,5.8,1.1,6.5,1.1
			c0.7,0,4.8-2.7,4.8-2.7l4,1.3l7.3-0.1l1.7-1.3l0.8-1.2l-2.5-0.4l-1.3,1c0,0-1,0.4-1.8,0.4c-0.8,0-2.1-1.3-2.1-1.3H74.6z"/>
	</g>
</g>
</svg>
