<?xml version="1.0" encoding="utf-8"?>
<!-- Generator: Adobe Illustrator 18.0.0, SVG Export Plug-In . SVG Version: 6.00 Build 0)  -->
<!DOCTYPE svg PUBLIC "-//W3C//DTD SVG 1.1//EN" "http://www.w3.org/Graphics/SVG/1.1/DTD/svg11.dtd">
<svg version="1.1" id="Layer_1" xmlns="http://www.w3.org/2000/svg" xmlns:xlink="http://www.w3.org/1999/xlink" x="0px" y="0px"
	 viewBox="0 0 93.2 98.2" enable-background="new 0 0 93.2 98.2" xml:space="preserve">
<g>
	<circle fill="#E4E4E4" cx="54.1" cy="59.2" r="37.4"/>
	<path fill="#959494" d="M33.6,87.2c2.5,1.6,5.2,3,7.9,4.2c-2.1-1.4-4.3-3-5.3-5.3c3.9,2.2,7.9,4.4,11.8,6.6c0.6,0.3,1.3,0.7,2,0.6
		c0.5-0.1,0.9-0.4,1.3-0.7c1.8-1.2,4.1-1.5,6.2-0.8c0.5,0.2,0.9,0.4,1.4,0.3c1.3-0.2,1.4-1.9,1.8-3.1c0.5-1.6,2.1-2.9,3.7-3.1
		c-1.6-0.7-3.5-0.2-5.2,0.6s-3.2,1.6-5,1.9c-1.8,0.2-3.5-0.3-5.3-0.6c-1.2-0.1-2.4-0.1-3.3,0.7c0.1-1.5-0.3-3-1.2-4.2
		c-0.1-0.1-0.2-0.2-0.3-0.3c-0.4-0.1-0.6,0.5-0.5,0.9c0.1,0.4,0.1,0.9-0.2,1.1c-1.7-1.3-3.3-2.7-4.6-4.3c-0.5,0.3-0.4,1-0.2,1.6
		c0.2,0.6,0.3,1.4-0.3,1.5c-0.2,0.1-0.4,0-0.6-0.1c-1.1-0.4-2.2-0.9-3.2-1.6c0.3,0.6-0.4,1.4-1.1,1.4s-1.3-0.5-1.8-1s-1.1-1-1.7-1.1
		c0.6-1.6,1.2-3.3,1.7-4.9c-0.9,1.3-1.9,2.5-2.8,3.8c-0.8-0.7-1.4-1.6-1.7-2.6c0.5,0.1,0.8,0.6,0.9,1c-2.9-2.7-3.3-7.3-6-10.2
		c1.2,2.3,2.3,4.6,3.5,6.9c0.3,0.5,0.5,1.3,0,1.7c-0.3,0.2-0.6,0.2-0.8,0.4c-0.2,0.2-0.1,0.5,0,0.8c1.5,4.3,5.1,7.9,9.5,9.2
		C34,88.2,33.8,87.7,33.6,87.2z"/>
	<path fill="#BBBBBB" d="M44.8,70.5c0,1,0,2.2-0.8,2.8c-1.1,0.8-2.5-0.1-3.6-1c0.4,0.3,0.7,0.8,0.7,1.3c-1.6,0.1-3.2-1-3.7-2.4
		c1.5-0.8,1.6-3.3,0.2-4.2c-0.8,0.4-0.7,1.6-0.5,2.5c0.1,0.9-0.1,2.1-1,2.2c-0.3,0-0.6-0.1-0.9-0.3c-0.7-0.4-1.4-0.7-2-1.1
		c-0.2-0.1-0.4-0.2-0.5-0.1c-0.2,0.1,0,0.4,0.1,0.3c-0.3-1.6-1.5-2.8-2.6-4c-1.8-1.8-3.7-3.7-6.2-4.2c0.6,4.4,2.1,8.6,4.4,12.4
		c-0.2,0-0.3-0.4-0.1-0.6c0.1-0.2,0.4-0.3,0.6-0.3c1.1-0.2,2.3-0.1,3.4,0.4c0.6,0.3,1.3,1,0.9,1.6c0.7-0.6,1.7,0.4,1.8,1.4
		c0,0.9-0.4,1.9-0.1,2.8c1.2,0.1,1.2-1.9,2.2-2.5c0.7-0.4,1.7,0,2.1,0.7s0.4,1.6,0.4,2.4c1.1-1.1,3.4-0.6,4,0.9
		c0.2,0.6,0.3,1.4,0.9,1.7c0.3,0.1,0.5,0.1,0.8,0.1c1.4-0.1,2.8-0.3,4.2-0.4c0.7-0.1,1.6-0.5,1.4-1.1c-1-0.7-2.1-1.6-1.9-2.8
		c0.2-1.5,2.5-2.3,2.3-3.8c-1.1,0-2.1,0.3-3.2,0.3s-2.3-0.7-2.2-1.8c0-0.4,0.2-0.7,0.3-1.1c0.6-1.4,1.1-2.9,1-4.5
		c-0.1-1.5-0.9-3.1-2.3-3.8C44.6,66.3,44.7,68.4,44.8,70.5z"/>
</g>
<path fill="#BEE4E8" d="M49.1,13.9c-0.2-1.5-1-1.8-1-1.8c-1.3-1.3,0-3,0-3l0.6,0c-0.2-0.1-0.4-0.1-0.6-0.1l-5.2,0.7
	c-0.7,0.1-0.9,0.8-0.8,1.5l0,0.3c0.1,0.5,0.5,1,1,1.1c-0.4,0.3-0.7,0.8-0.6,1.3L44,25.3c0.1,0.7,0.5,1.5,1.2,1.4l5.2-0.7
	c0.1,0,0.2-0.1,0.3-0.2C50.6,24.9,49.2,15.3,49.1,13.9z"/>
<path fill="#5AC5CB" d="M50.9,24.3l-1.6-11.3c-0.1-0.5-0.5-1-1-1.1c0.4-0.3,0.7-0.8,0.6-1.3l0-0.3c-0.1-0.5-0.1-1-0.5-1.1l-0.5,0
	c0,0-1.2,1.6,0.1,3c0,0,0.8,0.3,1,1.8c0.2,1.4,1.3,10.9,1.4,11.8C50.9,25.5,51,25,50.9,24.3z"/>
<path fill="#DFF0F8" d="M36.2,17.3c0,0,2.8,1.7,5.7,0.7l-0.4-3L38.7,15L36.2,17.3z"/>
<path fill="#F09731" d="M40.2,15c0,0-1.6,1.6-0.7,3.3c0,0-0.3,0.1-1-0.1c0,0-0.2-1.8,1-3L40.2,15z"/>
<path fill="#FFFFFC" d="M43.3,14.3c0,0-2,0-2.1,1.1S43,27.8,43,27.8l7.2-1.2l-1.7-12.1c0,0-0.6-0.8-2.2-0.4S43.3,14.3,43.3,14.3z"/>
<path fill="#180F29" d="M45.3,39.4l1.6-0.2c0,0,0.9,1.9-1.1,2.3L43,41.9c0,0-0.8-1.2,0.8-1.5C43.8,40.4,45.2,39.9,45.3,39.4z"/>
<path fill="#180F29" d="M51.2,38.6l-1.6,0.2c0,0-0.3,2.1,1.7,1.9l2.7-0.4c0,0,0.4-1.3-1.2-1.2C52.8,39.1,51.4,39.1,51.2,38.6z"/>
<path fill="#4C788A" d="M39.5,11.5c2.2-2.1,3-1.1,3.1-0.6S41.3,12,41.3,12s0.6-0.3,0.7,0c0.1,0.3-0.6,0.8-0.6,0.8s-1.1,0.8-1.7,0.1
	S39.5,11.5,39.5,11.5z"/>
<path fill="#4C788A" d="M52.9,25.6c0,3-1.3,2.9-1.8,2.7c-0.4-0.2,0.2-1.8,0.2-1.8s-0.2,0.7-0.5,0.5s-0.1-1-0.1-1s0.2-1.3,1.1-1.3
	C52.7,24.8,52.9,25.6,52.9,25.6z"/>
<path fill="#D89F79" d="M42.7,9.6l0.5,3.5c0,0.3,0.4,0.6,0.7,0.5l0,0L44,15c0,0,0.9,1.3,2.4-0.3l-0.4-2.8c0,0,0.5-0.2,0.4-0.8
	c-0.1-0.6-0.6-0.2-0.6-0.2l-0.2-1.6L42.7,9.6z"/>
<path fill="#5B3B1C" d="M45.9,10.8l0,0.2l-0.2,0l-0.6-2l1,0l0.2,1.6C46.2,10.7,45.9,10.7,45.9,10.8z"/>
<path fill="#5B3B1C" d="M46,9.1c0,0,0-1.4-1.3-1.1c-1.3,0.3-2,1.5-2,1.5L46,9.1z"/>
<rect x="43.1" y="16.7" transform="matrix(0.9906 -0.1365 0.1365 0.9906 -2.0813 6.3718)" fill="#DFF0F8" width="4.5" height="3.3"/>
<path fill="#503418" d="M45,9.2c0,0-1.2,1-2.4,0.3c0,0-0.4-1.1,0.5-1.4c0.9-0.3,2.4-0.7,2.8,0.4C45.9,8.6,46.1,9.6,45,9.2z"/>
<path fill="#DFF0F8" d="M43.5,14.3l0.1,0.8c0,0,0.2,1,2.2,0.8c2-0.3,1.8-1.2,1.8-1.2l-0.1-0.9C47.4,13.7,45.6,15,43.5,14.3z"/>
<path opacity="0.2" fill="#150E1F" d="M43.1,13.8c0,0-1.9-0.7-2-3.8c-0.2-3.1,2-3.2,3-3.3c1-0.1,2.4,0,3.3,2c1,2.4-0.5,4.5-0.5,4.5
	S45.6,14.8,43.1,13.8z"/>
<path fill="#FFFFFC" d="M41.1,9.1c0,0,0-2.3,2.7-2.7c2.7-0.4,3.6,2.2,3.6,2.2s-1.6-1.9-3.5-1.6S41.1,9.1,41.1,9.1z"/>
<path fill="#FFFFFC" d="M39.5,11.5c0,0-2.9,1.7-3.4,5.9c0,0,3.2-0.6,4.9-4.2C41,13.2,38.9,13.5,39.5,11.5z"/>
<path fill="#DFF0F8" d="M44.6,20.2c0,0-1,2.2-2,2.6l-0.2-1.1c0,0,1.1-1.1,1.5-2.1L44.6,20.2z"/>
<path fill="#DFF0F8" d="M47.2,19.8c0,0,1.2,2,2.4,2l-0.2-1.1c0,0-0.8,0.3-1.5-1.3L47.2,19.8z"/>
<path fill="#FFFFFC" d="M43.4,13.8l0.1,0.8c0,0,0.2,1,2.2,0.8c2-0.3,1.8-1.2,1.8-1.2l-0.1-0.9C47.3,13.2,45.5,14.5,43.4,13.8z"/>
<rect x="43.5" y="17" transform="matrix(0.9906 -0.1365 0.1365 0.9906 -2.0824 6.3666)" fill="#5AC5CB" width="3.7" height="2.7"/>
<path fill="#FFFFFC" d="M48.4,14.4c0,0,2.1,0.5,3.8,3.4s1.4,6.8,1.1,7.8c-0.3,1.1-3,0.9-2.8-1c0.2-1.8-0.2-6.8-2.2-7.4L48.4,14.4z"
	/>
<rect x="42.7" y="26.3" transform="matrix(0.9906 -0.1365 0.1365 0.9906 -3.2096 6.5817)" fill="#586982" width="7.3" height="0.8"/>
<path fill="#F09731" d="M49.9,19.4c0,0,0.9,0.1,2.3-1.6l0.3,0.6c0,0-0.5,1.6-2.4,1.6L49.9,19.4z"/>
<path fill="#FFFFFC" d="M42.9,27.8c0,0-1,7.1,1.7,12.4c0,0,1.7,0.4,2.5-0.7c0,0-1.5-6.6-0.1-9.4c0,0,3,2.4,2.4,9.2
	c0,0,1.9,0.7,2.7-0.7c0,0,1-6.2-2-12L42.9,27.8z"/>
<path fill="#F09731" d="M43.1,33.5c0,0,1.2,0.7,3.4-0.2l0.1,1.1c0,0-2.2,1.3-3.3,0.5L43.1,33.5z"/>
<path fill="#F09731" d="M48.8,32.7c0,0,1.3,0.3,3.2-0.9l0.2,1.3c0,0-0.2,1.2-2.9,0.9C49.2,34,49.2,33.7,48.8,32.7z"/>
<rect x="48.2" y="28.6" transform="matrix(0.9183 -0.3959 0.3959 0.9183 -7.8264 22.057)" fill="#DFF0F8" width="2.6" height="2.9"/>
<rect x="43.9" y="35.6" transform="matrix(0.9906 -0.1365 0.1365 0.9906 -4.5813 6.4833)" fill="#DFF0F8" width="2.1" height="2.1"/>
<rect x="27.5" y="5.6" transform="matrix(0.9906 -0.1365 0.1365 0.9906 -3.1044 4.0452)" fill="#F0973F" width="0.9" height="38.2"/>
<rect x="0.8" y="7.2" transform="matrix(-0.9906 0.1365 -0.1365 -0.9906 28.618 26.6146)" fill="#FFFFFC" width="25.1" height="14.1"/>
<rect x="1.7" y="19.2" transform="matrix(-0.9906 0.1365 -0.1365 -0.9906 31.0633 38.3504)" fill="#CC202A" width="25.1" height="2.2"/>
<rect x="1.2" y="15.8" transform="matrix(-0.9906 0.1365 -0.1365 -0.9906 29.6747 31.6861)" fill="#CC202A" width="25.1" height="2.2"/>
<rect x="0.7" y="12.4" transform="matrix(-0.9906 0.1365 -0.1365 -0.9906 28.2861 25.0217)" fill="#CC202A" width="25.1" height="2.2"/>
<rect x="0.3" y="9" transform="matrix(-0.9906 0.1365 -0.1365 -0.9906 26.8976 18.3574)" fill="#CC202A" width="25.1" height="2.2"/>
<rect x="14.8" y="6.3" transform="matrix(0.9906 -0.1365 0.1365 0.9906 -1.251 2.8519)" fill="#47808A" width="10.7" height="8.6"/>
<polygon fill="#FFFFFF" points="16.1,7.7 16.5,7.5 16.4,7.9 16.8,8.1 16.4,8.2 16.3,8.6 16,8.3 15.6,8.3 15.9,8 15.8,7.6 "/>
<polygon fill="#FFFFFF" points="17.9,7.5 18.3,7.2 18.3,7.6 18.6,7.9 18.2,8 18.1,8.4 17.9,8 17.5,8 17.7,7.7 17.6,7.3 "/>
<polygon fill="#FFFFFF" points="19.8,7.2 20.1,7 20.1,7.4 20.4,7.6 20,7.7 19.9,8.1 19.7,7.8 19.3,7.8 19.5,7.5 19.4,7.1 "/>
<polygon fill="#FFFFFF" points="21.6,7 21.9,6.7 21.9,7.1 22.2,7.4 21.8,7.5 21.7,7.9 21.5,7.5 21.1,7.5 21.3,7.2 21.2,6.8 "/>
<polygon fill="#FFFFFF" points="23.4,6.7 23.7,6.5 23.7,6.9 24,7.1 23.6,7.2 23.5,7.6 23.3,7.3 22.9,7.3 23.1,7 23,6.6 "/>
<polygon fill="#FFFFFF" points="16.3,9.2 16.7,9 16.6,9.4 17,9.6 16.6,9.7 16.5,10.1 16.2,9.8 15.8,9.8 16.1,9.4 16,9.1 "/>
<polygon fill="#FFFFFF" points="18.2,9 18.5,8.7 18.5,9.1 18.8,9.4 18.4,9.5 18.3,9.8 18.1,9.5 17.7,9.5 17.9,9.2 17.8,8.8 "/>
<polygon fill="#FFFFFF" points="20,8.7 20.3,8.5 20.3,8.9 20.6,9.1 20.2,9.2 20.1,9.6 19.9,9.3 19.5,9.3 19.7,8.9 19.6,8.6 "/>
<polygon fill="#FFFFFF" points="21.8,8.5 22.1,8.2 22.1,8.6 22.4,8.9 22,9 21.9,9.3 21.7,9 21.3,9 21.5,8.7 21.4,8.3 "/>
<polygon fill="#FFFFFF" points="23.6,8.2 23.9,8 23.9,8.4 24.2,8.6 23.8,8.7 23.7,9.1 23.5,8.8 23.1,8.8 23.3,8.4 23.2,8.1 "/>
<polygon fill="#FFFFFF" points="16.5,10.7 16.9,10.5 16.9,10.9 17.2,11.1 16.8,11.2 16.7,11.6 16.4,11.2 16,11.2 16.3,10.9 
	16.2,10.6 "/>
<polygon fill="#FFFFFF" points="18.4,10.4 18.7,10.2 18.7,10.6 19,10.8 18.6,11 18.5,11.3 18.3,11 17.9,11 18.1,10.7 18,10.3 "/>
<polygon fill="#FFFFFF" points="20.2,10.2 20.5,10 20.5,10.4 20.8,10.6 20.4,10.7 20.3,11.1 20.1,10.7 19.7,10.7 19.9,10.4 
	19.8,10.1 "/>
<polygon fill="#FFFFFF" points="22,9.9 22.3,9.7 22.3,10.1 22.6,10.3 22.2,10.5 22.1,10.8 21.9,10.5 21.5,10.5 21.7,10.2 21.6,9.8 
	"/>
<polygon fill="#FFFFFF" points="23.8,9.7 24.1,9.5 24.1,9.9 24.4,10.1 24.1,10.2 23.9,10.6 23.7,10.2 23.3,10.2 23.6,9.9 23.4,9.6 
	"/>
<polygon fill="#FFFFFF" points="16.7,12.2 17.1,11.9 17.1,12.3 17.4,12.6 17,12.7 16.9,13.1 16.6,12.7 16.3,12.7 16.5,12.4 16.4,12 
	"/>
<polygon fill="#FFFFFF" points="18.6,11.9 18.9,11.7 18.9,12.1 19.2,12.3 18.8,12.4 18.7,12.8 18.5,12.5 18.1,12.5 18.3,12.2 
	18.2,11.8 "/>
<polygon fill="#FFFFFF" points="20.4,11.7 20.7,11.4 20.7,11.8 21,12.1 20.6,12.2 20.5,12.6 20.3,12.2 19.9,12.2 20.1,11.9 20,11.5 
	"/>
<polygon fill="#FFFFFF" points="22.2,11.4 22.5,11.2 22.5,11.6 22.8,11.8 22.4,11.9 22.3,12.3 22.1,12 21.7,12 21.9,11.7 21.8,11.3 
	"/>
<polygon fill="#FFFFFF" points="24,11.2 24.3,10.9 24.3,11.3 24.6,11.6 24.3,11.7 24.1,12.1 23.9,11.7 23.5,11.7 23.8,11.4 23.6,11 
	"/>
<polygon fill="#FFFFFF" points="17,13.7 17.3,13.4 17.3,13.8 17.6,14.1 17.2,14.2 17.1,14.5 16.9,14.2 16.5,14.2 16.7,13.9 
	16.6,13.5 "/>
<polygon fill="#FFFFFF" points="18.8,13.4 19.1,13.2 19.1,13.6 19.4,13.8 19,13.9 18.9,14.3 18.7,14 18.3,14 18.5,13.7 18.4,13.3 
	"/>
<polygon fill="#FFFFFF" points="20.6,13.2 20.9,12.9 20.9,13.3 21.2,13.6 20.8,13.7 20.7,14 20.5,13.7 20.1,13.7 20.3,13.4 20.2,13 
	"/>
<polygon fill="#FFFFFF" points="22.4,12.9 22.7,12.7 22.7,13.1 23,13.3 22.6,13.4 22.5,13.8 22.3,13.5 21.9,13.5 22.1,13.2 22,12.8 
	"/>
<polygon fill="#FFFFFF" points="24.2,12.7 24.5,12.4 24.5,12.8 24.8,13.1 24.5,13.2 24.3,13.5 24.1,13.2 23.7,13.2 24,12.9 
	23.8,12.5 "/>
</svg>
