<?xml version="1.0" encoding="utf-8"?>
<!-- Generator: Adobe Illustrator 18.0.0, SVG Export Plug-In . SVG Version: 6.00 Build 0)  -->
<!DOCTYPE svg PUBLIC "-//W3C//DTD SVG 1.1//EN" "http://www.w3.org/Graphics/SVG/1.1/DTD/svg11.dtd">
<svg version="1.1" id="Layer_1" xmlns="http://www.w3.org/2000/svg" xmlns:xlink="http://www.w3.org/1999/xlink" x="0px" y="0px"
	 viewBox="0 0 803 170" enable-background="new 0 0 803 170" xml:space="preserve">
<g>
	<g opacity="0.29">
		<path d="M379.6,23H13.9C10.4,23,6,26.1,6,29.7v3.4v2.3v78.3v16.5v19.6c0,0,1.9,0,0,0V165h68.1l3.3-3h33.1l2.1,1h177l2.9-2h27.7
			l3.1,2H385v-11.2c0,0-17-0.1-41-0.3V149h41v-19.4v-15.5v-0.4V35.2v-2.8v-2.7C385,26.1,383.2,23,379.6,23z M269,151
			c-47-0.3-98-0.7-146-0.9V149h146V151z"/>
		<path d="M790,35.2v-1.3h-2.5v1.3h-2.9v-1.3h-2.9v50.7h-1.3V35.2v-2.8v-2.7c0-3.6-2.5-6.9-6.1-6.9H408.6c-3.6,0-7.1,3.4-7.1,6.9
			v3.4v0.9h-4.1v1.3h-2.5v-1.3H392v1.3h-2.5v-1.3h-2.9v50.7v56.7h3.4h2.8h2.8h2.8h3.3v8.2v15.1h67.3l3.3-2.5h33.1l2.1,1.3h177
			l2.9-2.9h27.7l3.1,2.9h62.5v-11.5c0,0-16.6-0.1-42.7-0.3v-1.9h42.7v-8.3h1.5h2.7h0.6h2.4h0.3h1c0-35.4,0.8-70.7,1.5-106.1H790z"/>
		<path d="M664.7,151c-46.8-0.3-100.7-0.7-147.2-0.9v-0.5h147.2V151z"/>
		<path d="M517.5,150.1c46.5,0.3,100.4,0.6,147.2,0.9v-1.4H517.5V150.1z"/>
	</g>
	<g>
		<path fill="#424242" d="M289.6,169l2.9-2h27.7l3.1,2H385v-11.6c0,0-377.1-2.8-379-2V170h68.1l3.3-3h33.1l2.1,2H289.6z"/>
		<path fill="#577375" d="M296.5,61h-13.9c-1.2,0-3,0.3-4,0.9c-1.1,0.9-2.5,2.3-2.5,3.9v33.7l25-23.6V65.7
			C301,62.9,299.3,61,296.5,61z"/>
		<path fill="#D6D6D6" d="M386.1,155.4H7.5v-122c0-2.6,2.1-4.7,4.7-4.7h369.3c2.6,0,4.7,2.1,4.7,4.7V155.4z"/>
		<rect x="7.7" y="38.5" fill="#EC6E00" width="378.5" height="81.1"/>
		<rect x="7.4" y="119.6" fill="#E3E3E3" width="378.7" height="15.5"/>
		<rect x="7.5" y="38.6" fill="#D66300" width="378.7" height="2.3"/>
		<path fill="#D9D9D9" d="M121.7,154.8H50.8V61.3c0-2.5,2-4.4,4.4-4.4h62c2.5,0,4.4,2,4.4,4.4V154.8z"/>
		<path fill="#658587" d="M122.6,155.1H50.7V62.8c0-3.6,3-6.6,6.6-6.6h58.6c3.6,0,6.6,3,6.6,6.6V155.1z M51.7,154.2h69.9V62.8
			c0-3.1-2.5-5.6-5.6-5.6H57.3c-3.1,0-5.6,2.5-5.6,5.6V154.2z"/>
		<g>
			<path fill="#D9D9D9" d="M234.1,107.6h-74.8c-0.9,0-1.7-0.8-1.7-1.7V61.6c0-2,1.6-3.6,3.6-3.6h72.7c2,0,3.6,1.6,3.6,3.6v42.7
				C237.4,106.1,235.9,107.6,234.1,107.6z"/>
			<path fill="#D9D9D9" d="M232.9,108.1H160c-1.6,0-2.9-1.3-2.9-2.9V62.9c0-3,2.4-5.4,5.4-5.4h70c3,0,5.4,2.4,5.4,5.4V103
				C237.9,105.8,235.7,108.1,232.9,108.1z M162.5,58.5c-2.4,0-4.4,2-4.4,4.4v42.3c0,1,0.8,1.9,1.9,1.9h72.9c2.2,0,4.1-1.8,4.1-4.1
				V62.9c0-2.4-2-4.4-4.4-4.4H162.5z"/>
		</g>
		<path fill="#4C6466" d="M233.2,105.7h-72.7c-0.5,0-0.8-0.4-0.8-0.8V62.4c0-1.4,1.1-2.5,2.5-2.5h70.8c1.4,0,2.5,1.1,2.5,2.5v41
			C235.4,104.7,234.4,105.7,233.2,105.7z"/>
		<path fill="#658587" d="M232.3,106.2h-71.6c-0.9,0-1.6-0.7-1.6-1.6V63.3c0-2.2,1.8-3.9,3.9-3.9H232c2.2,0,3.9,1.8,3.9,3.9v39.2
			C235.9,104.6,234.3,106.2,232.3,106.2z M163.1,60.4c-1.6,0-2.9,1.3-2.9,2.9v41.2c0,0.4,0.3,0.6,0.6,0.6h71.6
			c1.4,0,2.6-1.2,2.6-2.6V63.3c0-1.6-1.3-2.9-2.9-2.9H163.1z"/>
		<g>
			<path fill="#4C6466" d="M77.4,106.5H60.6c-2.1,0-3.8-1.7-3.8-3.8V64.3c0-2.1,1.7-3.8,3.8-3.8h16.8c2.1,0,3.8,1.7,3.8,3.8v38.4
				C81.1,104.8,79.5,106.5,77.4,106.5z"/>
			<path fill="#424242" d="M76,107H62c-3.1,0-5.7-2.5-5.7-5.7V65.7c0-3.1,2.5-5.7,5.7-5.7H76c3.1,0,5.7,2.5,5.7,5.7v35.6
				C81.6,104.4,79.1,107,76,107z M62,61.1c-2.6,0-4.7,2.1-4.7,4.7v35.6c0,2.6,2.1,4.7,4.7,4.7H76c2.6,0,4.7-2.1,4.7-4.7V65.7
				c0-2.6-2.1-4.7-4.7-4.7H62z"/>
		</g>
		<path fill="#577375" d="M76,61H62c-1.2,0-2.8,0.3-3.8,0.9c-1.1,0.9-2.3,2.3-2.3,3.9v33.7l25-23.6V65.7C81,62.9,78.8,61,76,61z"/>
		<rect x="86.3" y="56.7" fill="#658587" width="0.7" height="98.2"/>
		<rect x="87.1" y="57.2" opacity="0.46" fill="#FFFFFF" width="1" height="97"/>
		<rect x="50" y="155" fill="#545454" width="73.8" height="2.9"/>
		<rect x="50" y="158.1" fill="#6E6E6E" width="73.8" height="0.5"/>
		<rect x="160" y="81.9" fill="#658587" width="75.6" height="1"/>
		<rect x="158.7" y="80.1" fill="#D9D9D9" width="77.6" height="1.8"/>
		<path fill="#658587" d="M76,107H62c-3.1,0-5.7-2.5-5.7-5.7V65.7c0-3.1,2.5-5.7,5.7-5.7H76c3.1,0,5.7,2.5,5.7,5.7v35.6
			C81.6,104.4,79.1,107,76,107z M62,61.1c-2.6,0-4.7,2.1-4.7,4.7v35.6c0,2.6,2.1,4.7,4.7,4.7H76c2.6,0,4.7-2.1,4.7-4.7V65.7
			c0-2.6-2.1-4.7-4.7-4.7H62z"/>
		<g>
			<path fill="#4C6466" d="M112.7,106.5H95.9c-2.1,0-3.8-1.7-3.8-3.8V64.3c0-2.1,1.7-3.8,3.8-3.8h16.8c2.1,0,3.8,1.7,3.8,3.8v38.4
				C116.5,104.8,114.8,106.5,112.7,106.5z"/>
			<path fill="#424242" d="M111.3,107H97.4c-3.1,0-5.7-2.5-5.7-5.7V65.7c0-3.1,2.5-5.7,5.7-5.7h13.9c3.1,0,5.7,2.5,5.7,5.7v35.6
				C117,104.4,114.4,107,111.3,107z M97.4,61.1c-2.6,0-4.7,2.1-4.7,4.7v35.6c0,2.6,2.1,4.7,4.7,4.7h13.9c2.6,0,4.7-2.1,4.7-4.7V65.7
				c0-2.6-2.1-4.7-4.7-4.7H97.4z"/>
		</g>
		<rect x="387.2" y="39.1" fill="#303030" width="2.9" height="108.2"/>
		<rect x="398.9" y="39.1" fill="#303030" width="2.9" height="108.2"/>
		<rect x="393" y="39.1" fill="#303030" width="2.9" height="108.2"/>
		<rect x="390.2" y="40.1" fill="#577375" width="2.9" height="106.2"/>
		<rect x="395.9" y="40.1" fill="#577375" width="2.9" height="106.2"/>
		<g opacity="0.51">
			<rect x="387.2" y="90.1" width="2.9" height="57.1"/>
			<rect x="398.9" y="90.1" width="2.9" height="57.1"/>
			<rect x="393" y="90.1" width="2.9" height="57.1"/>
			<rect x="390.2" y="90.7" width="2.9" height="56.1"/>
			<rect x="395.9" y="90.7" width="2.9" height="56.1"/>
		</g>
		<path fill="#D9D9D9" d="M342.2,154.8h-70.9V61.3c0-2.5,2-4.4,4.4-4.4h62c2.5,0,4.4,2,4.4,4.4V154.8z"/>
		<path fill="#658587" d="M343,155.1h-71.9V62.8c0-3.6,3-6.6,6.6-6.6h58.6c3.6,0,6.6,3,6.6,6.6V155.1z M272.2,154.2h69.9V62.8
			c0-3.1-2.5-5.6-5.6-5.6h-58.6c-3.1,0-5.6,2.5-5.6,5.6V154.2z"/>
		<g>
			<path fill="#4C6466" d="M297.9,106.5h-16.8c-2.1,0-3.8-1.7-3.8-3.8V64.3c0-2.1,1.7-3.8,3.8-3.8h16.8c2.1,0,3.8,1.7,3.8,3.8v38.4
				C301.6,104.8,299.9,106.5,297.9,106.5z"/>
			<path fill="#424242" d="M296.5,107h-13.9c-3.1,0-5.7-2.5-5.7-5.7V65.7c0-3.1,2.5-5.7,5.7-5.7h13.9c3.1,0,5.7,2.5,5.7,5.7v35.6
				C302.1,104.4,299.6,107,296.5,107z M282.5,61.1c-2.6,0-4.7,2.1-4.7,4.7v35.6c0,2.6,2.1,4.7,4.7,4.7h13.9c2.6,0,4.7-2.1,4.7-4.7
				V65.7c0-2.6-2.1-4.7-4.7-4.7H282.5z"/>
		</g>
		<rect x="306.8" y="56.7" fill="#658587" width="0.7" height="98.2"/>
		<rect x="307.6" y="57.2" opacity="0.46" fill="#FFFFFF" width="1" height="97"/>
		<rect x="270.4" y="155" fill="#545454" width="73.8" height="2.9"/>
		<rect x="270.4" y="158.1" fill="#6E6E6E" width="73.8" height="0.5"/>
		<path fill="#658587" d="M296.5,107h-13.9c-3.1,0-5.7-2.5-5.7-5.7V65.7c0-3.1,2.5-5.7,5.7-5.7h13.9c3.1,0,5.7,2.5,5.7,5.7v35.6
			C302.1,104.4,299.6,107,296.5,107z M282.5,61.1c-2.6,0-4.7,2.1-4.7,4.7v35.6c0,2.6,2.1,4.7,4.7,4.7h13.9c2.6,0,4.7-2.1,4.7-4.7
			V65.7c0-2.6-2.1-4.7-4.7-4.7H282.5z"/>
		<g>
			<path fill="#4C6466" d="M333.2,106.5h-16.8c-2.1,0-3.8-1.7-3.8-3.8V64.3c0-2.1,1.7-3.8,3.8-3.8h16.8c2.1,0,3.8,1.7,3.8,3.8v38.4
				C336.9,104.8,335.3,106.5,333.2,106.5z"/>
			<path fill="#424242" d="M331.8,107h-13.9c-3.1,0-5.7-2.5-5.7-5.7V65.7c0-3.1,2.5-5.7,5.7-5.7h13.9c3.1,0,5.7,2.5,5.7,5.7v35.6
				C337.4,104.4,334.9,107,331.8,107z M317.8,61.1c-2.6,0-4.7,2.1-4.7,4.7v35.6c0,2.6,2.1,4.7,4.7,4.7h13.9c2.6,0,4.7-2.1,4.7-4.7
				V65.7c0-2.6-2.1-4.7-4.7-4.7H317.8z"/>
		</g>
		<path fill="#577375" d="M331.8,61h-13.9c-1.2,0-2.7,0.3-3.7,0.9c-1.1,0.9-2.2,2.3-2.2,3.9v33.7l23-23.6V65.7
			C335,62.9,334.6,61,331.8,61z"/>
		<path fill="#658587" d="M331.8,107h-13.9c-3.1,0-5.7-2.5-5.7-5.7V65.7c0-3.1,2.5-5.7,5.7-5.7h13.9c3.1,0,5.7,2.5,5.7,5.7v35.6
			C337.4,104.4,334.9,107,331.8,107z M317.8,61.1c-2.6,0-4.7,2.1-4.7,4.7v35.6c0,2.6,2.1,4.7,4.7,4.7h13.9c2.6,0,4.7-2.1,4.7-4.7
			V65.7c0-2.6-2.1-4.7-4.7-4.7H317.8z"/>
		<path fill="#577375" d="M111.3,61H97.4c-1.2,0-1.9,0.3-2.9,0.9c-1.1,0.9-1.4,2.3-1.4,3.9v33.7l23-23.6V65.7
			C116,62.9,114.1,61,111.3,61z"/>
		<path fill="#658587" d="M111.3,107H97.4c-3.1,0-5.7-2.5-5.7-5.7V65.7c0-3.1,2.5-5.7,5.7-5.7h13.9c3.1,0,5.7,2.5,5.7,5.7v35.6
			C117,104.4,114.4,107,111.3,107z M97.4,61.1c-2.6,0-4.7,2.1-4.7,4.7v35.6c0,2.6,2.1,4.7,4.7,4.7h13.9c2.6,0,4.7-2.1,4.7-4.7V65.7
			c0-2.6-2.1-4.7-4.7-4.7H97.4z"/>
		<path fill="#577375" d="M296.5,61h-13.9c-1.2,0-3,0.3-4,0.9c-1.1,0.9-2.5,2.3-2.5,3.9v33.7l25-23.6V65.7
			C301,62.9,299.3,61,296.5,61z"/>
		<g>
			<path fill="#424242" d="M684.3,169l2.9-2h27.7l3.1,2H781v-11.6c0,0-379-2.8-379-2V170h66.8l3.3-3h33.1l2.1,2H684.3z"/>
			<path fill="#577375" d="M691.2,61h-13.9c-1.2,0-2.4,0.3-3.3,0.9c-1.1,0.9-1.9,2.3-1.9,3.9v33.7l23-23.6V65.7
				C695,62.9,694,61,691.2,61z"/>
			<path fill="#D6D6D6" d="M780.8,155.4H402.2v-122c0-2.6,2.1-4.7,4.7-4.7h369.3c2.6,0,4.7,2.1,4.7,4.7V155.4z"/>
			<rect x="402.4" y="38.5" fill="#EC6E00" width="378.5" height="81.1"/>
			<rect x="402.1" y="119.6" fill="#E3E3E3" width="378.7" height="15.5"/>
			<rect x="402.2" y="38.6" fill="#D66300" width="378.7" height="2.3"/>
			<path fill="#D9D9D9" d="M516.4,154.8h-70.9V61.3c0-2.5,2-4.4,4.4-4.4h62c2.5,0,4.4,2,4.4,4.4V154.8z"/>
			<path fill="#658587" d="M517.3,155.1h-71.9V62.8c0-3.6,3-6.6,6.6-6.6h58.6c3.6,0,6.6,3,6.6,6.6V155.1z M446.4,154.2h69.9V62.8
				c0-3.1-2.5-5.6-5.6-5.6H452c-3.1,0-5.6,2.5-5.6,5.6V154.2z"/>
			<g>
				<path fill="#D9D9D9" d="M628.8,107.6h-74.8c-0.9,0-1.7-0.8-1.7-1.7V61.6c0-2,1.6-3.6,3.6-3.6h72.7c2,0,3.6,1.6,3.6,3.6v42.7
					C632.1,106.1,630.7,107.6,628.8,107.6z"/>
				<path fill="#D9D9D9" d="M627.6,108.1h-72.9c-1.6,0-2.9-1.3-2.9-2.9V62.9c0-3,2.4-5.4,5.4-5.4h70c3,0,5.4,2.4,5.4,5.4V103
					C632.6,105.8,630.4,108.1,627.6,108.1z M557.2,58.5c-2.4,0-4.4,2-4.4,4.4v42.3c0,1,0.8,1.9,1.9,1.9h72.9c2.2,0,4.1-1.8,4.1-4.1
					V62.9c0-2.4-2-4.4-4.4-4.4H557.2z"/>
			</g>
			<path fill="#4C6466" d="M627.9,105.7h-72.7c-0.5,0-0.8-0.4-0.8-0.8V62.4c0-1.4,1.1-2.5,2.5-2.5h70.8c1.4,0,2.5,1.1,2.5,2.5v41
				C630.1,104.7,629.1,105.7,627.9,105.7z"/>
			<path fill="#658587" d="M627,106.2h-71.6c-0.9,0-1.6-0.7-1.6-1.6V63.3c0-2.2,1.8-3.9,3.9-3.9h68.9c2.2,0,3.9,1.8,3.9,3.9v39.2
				C630.6,104.6,629,106.2,627,106.2z M557.8,60.4c-1.6,0-2.9,1.3-2.9,2.9v41.2c0,0.4,0.3,0.6,0.6,0.6H627c1.4,0,2.6-1.2,2.6-2.6
				V63.3c0-1.6-1.3-2.9-2.9-2.9H557.8z"/>
			<g>
				<path fill="#4C6466" d="M472.1,106.5h-16.8c-2.1,0-3.8-1.7-3.8-3.8V64.3c0-2.1,1.7-3.8,3.8-3.8h16.8c2.1,0,3.8,1.7,3.8,3.8v38.4
					C475.9,104.8,474.2,106.5,472.1,106.5z"/>
				<path fill="#424242" d="M470.7,107h-13.9c-3.1,0-5.7-2.5-5.7-5.7V65.7c0-3.1,2.5-5.7,5.7-5.7h13.9c3.1,0,5.7,2.5,5.7,5.7v35.6
					C476.3,104.4,473.8,107,470.7,107z M456.7,61.1c-2.6,0-4.7,2.1-4.7,4.7v35.6c0,2.6,2.1,4.7,4.7,4.7h13.9c2.6,0,4.7-2.1,4.7-4.7
					V65.7c0-2.6-2.1-4.7-4.7-4.7H456.7z"/>
			</g>
			<path fill="#577375" d="M470.7,61h-13.9c-1.2,0-2.6,0.3-3.6,0.9c-1.1,0.9-2.1,2.3-2.1,3.9v33.7l23-23.6V65.7
				C474,62.9,473.5,61,470.7,61z"/>
			<rect x="481" y="56.7" fill="#658587" width="0.7" height="98.2"/>
			<rect x="481.8" y="57.2" opacity="0.46" fill="#FFFFFF" width="1" height="97"/>
			<rect x="444.7" y="155" fill="#545454" width="73.8" height="2.9"/>
			<rect x="444.7" y="158.1" fill="#6E6E6E" width="73.8" height="0.5"/>
			<rect x="554.7" y="81.9" fill="#658587" width="75.6" height="1"/>
			<rect x="553.4" y="80.1" fill="#D9D9D9" width="77.6" height="1.8"/>
			<path fill="#658587" d="M470.7,107h-13.9c-3.1,0-5.7-2.5-5.7-5.7V65.7c0-3.1,2.5-5.7,5.7-5.7h13.9c3.1,0,5.7,2.5,5.7,5.7v35.6
				C476.3,104.4,473.8,107,470.7,107z M456.7,61.1c-2.6,0-4.7,2.1-4.7,4.7v35.6c0,2.6,2.1,4.7,4.7,4.7h13.9c2.6,0,4.7-2.1,4.7-4.7
				V65.7c0-2.6-2.1-4.7-4.7-4.7H456.7z"/>
			<g>
				<path fill="#4C6466" d="M507.4,106.5h-16.8c-2.1,0-3.8-1.7-3.8-3.8V64.3c0-2.1,1.7-3.8,3.8-3.8h16.8c2.1,0,3.8,1.7,3.8,3.8v38.4
					C511.2,104.8,509.5,106.5,507.4,106.5z"/>
				<path fill="#424242" d="M506,107h-13.9c-3.1,0-5.7-2.5-5.7-5.7V65.7c0-3.1,2.5-5.7,5.7-5.7H506c3.1,0,5.7,2.5,5.7,5.7v35.6
					C511.7,104.4,509.1,107,506,107z M492.1,61.1c-2.6,0-4.7,2.1-4.7,4.7v35.6c0,2.6,2.1,4.7,4.7,4.7H506c2.6,0,4.7-2.1,4.7-4.7
					V65.7c0-2.6-2.1-4.7-4.7-4.7H492.1z"/>
			</g>
			<rect x="782" y="39.1" fill="#303030" width="2.9" height="108.2"/>
			<rect x="793.6" y="39.1" fill="#303030" width="2.9" height="108.2"/>
			<path fill="#303030" d="M790.6,39.1h-2.3c0,36.1,0.1,72.1,0.9,108.2h1.4V39.1z"/>
			<path fill="#303030" d="M788.3,39.1h-0.6v108.2h1.5C788.4,111.2,788.3,75.1,788.3,39.1z"/>
			<rect x="784.9" y="40.1" fill="#577375" width="2.9" height="106.2"/>
			<rect x="790.6" y="40.1" fill="#577375" width="2.9" height="106.2"/>
			<path fill="#D9D9D9" d="M736.9,154.8H666V61.3c0-2.5,2-4.4,4.4-4.4h62c2.5,0,4.4,2,4.4,4.4V154.8z"/>
			<path fill="#658587" d="M737.7,155.1h-71.9V62.8c0-3.6,3-6.6,6.6-6.6h58.6c3.6,0,6.6,3,6.6,6.6V155.1z M666.9,154.2h69.9V62.8
				c0-3.1-2.5-5.6-5.6-5.6h-58.6c-3.1,0-5.6,2.5-5.6,5.6V154.2z"/>
			<g>
				<path fill="#4C6466" d="M692.6,106.5h-16.8c-2.1,0-3.8-1.7-3.8-3.8V64.3c0-2.1,1.7-3.8,3.8-3.8h16.8c2.1,0,3.8,1.7,3.8,3.8v38.4
					C696.3,104.8,694.7,106.5,692.6,106.5z"/>
				<path fill="#424242" d="M691.2,107h-13.9c-3.1,0-5.7-2.5-5.7-5.7V65.7c0-3.1,2.5-5.7,5.7-5.7h13.9c3.1,0,5.7,2.5,5.7,5.7v35.6
					C696.8,104.4,694.3,107,691.2,107z M677.2,61.1c-2.6,0-4.7,2.1-4.7,4.7v35.6c0,2.6,2.1,4.7,4.7,4.7h13.9c2.6,0,4.7-2.1,4.7-4.7
					V65.7c0-2.6-2.1-4.7-4.7-4.7H677.2z"/>
			</g>
			<rect x="701.5" y="56.7" fill="#658587" width="0.7" height="98.2"/>
			<rect x="702.3" y="57.2" opacity="0.46" fill="#FFFFFF" width="1" height="97"/>
			<rect x="665.2" y="155" fill="#545454" width="73.8" height="2.9"/>
			<rect x="665.2" y="158.1" fill="#6E6E6E" width="73.8" height="0.5"/>
			<path fill="#658587" d="M691.2,107h-13.9c-3.1,0-5.7-2.5-5.7-5.7V65.7c0-3.1,2.5-5.7,5.7-5.7h13.9c3.1,0,5.7,2.5,5.7,5.7v35.6
				C696.8,104.4,694.3,107,691.2,107z M677.2,61.1c-2.6,0-4.7,2.1-4.7,4.7v35.6c0,2.6,2.1,4.7,4.7,4.7h13.9c2.6,0,4.7-2.1,4.7-4.7
				V65.7c0-2.6-2.1-4.7-4.7-4.7H677.2z"/>
			<g>
				<path fill="#4C6466" d="M727.9,106.5h-16.8c-2.1,0-3.8-1.7-3.8-3.8V64.3c0-2.1,1.7-3.8,3.8-3.8h16.8c2.1,0,3.8,1.7,3.8,3.8v38.4
					C731.6,104.8,730,106.5,727.9,106.5z"/>
				<path fill="#424242" d="M726.5,107h-13.9c-3.1,0-5.7-2.5-5.7-5.7V65.7c0-3.1,2.5-5.7,5.7-5.7h13.9c3.1,0,5.7,2.5,5.7,5.7v35.6
					C732.1,104.4,729.6,107,726.5,107z M712.5,61.1c-2.6,0-4.7,2.1-4.7,4.7v35.6c0,2.6,2.1,4.7,4.7,4.7h13.9c2.6,0,4.7-2.1,4.7-4.7
					V65.7c0-2.6-2.1-4.7-4.7-4.7H712.5z"/>
			</g>
			<path fill="#577375" d="M726.5,61h-13.9c-1.2,0-2.5,0.3-3.5,0.9c-1.1,0.9-2,2.3-2,3.9v33.7l23-23.6V65.7
				C730,62.9,729.3,61,726.5,61z"/>
			<path fill="#658587" d="M726.5,107h-13.9c-3.1,0-5.7-2.5-5.7-5.7V65.7c0-3.1,2.5-5.7,5.7-5.7h13.9c3.1,0,5.7,2.5,5.7,5.7v35.6
				C732.1,104.4,729.6,107,726.5,107z M712.5,61.1c-2.6,0-4.7,2.1-4.7,4.7v35.6c0,2.6,2.1,4.7,4.7,4.7h13.9c2.6,0,4.7-2.1,4.7-4.7
				V65.7c0-2.6-2.1-4.7-4.7-4.7H712.5z"/>
			<path fill="#577375" d="M506,61h-13.9c-1.2,0-2.3,0.3-3.3,0.9c-1.1,0.9-1.8,2.3-1.8,3.9v33.7l24-23.6V65.7
				C511,62.9,508.8,61,506,61z"/>
			<path fill="#658587" d="M506,107h-13.9c-3.1,0-5.7-2.5-5.7-5.7V65.7c0-3.1,2.5-5.7,5.7-5.7H506c3.1,0,5.7,2.5,5.7,5.7v35.6
				C511.7,104.4,509.1,107,506,107z M492.1,61.1c-2.6,0-4.7,2.1-4.7,4.7v35.6c0,2.6,2.1,4.7,4.7,4.7H506c2.6,0,4.7-2.1,4.7-4.7V65.7
				c0-2.6-2.1-4.7-4.7-4.7H492.1z"/>
			<path fill="#577375" d="M691.2,61h-13.9c-1.2,0-2.4,0.3-3.3,0.9c-1.1,0.9-1.9,2.3-1.9,3.9v33.7l23-23.6V65.7
				C695,62.9,694,61,691.2,61z"/>
		</g>
		<g opacity="0.51">
			<rect x="781.8" y="90.1" width="2.9" height="57.1"/>
			<rect x="793.4" y="90.1" width="2.9" height="57.1"/>
			<path d="M787.5,90.1v57.1h1.6c-0.4-19.1-0.6-38.1-0.8-57.1H787.5z"/>
			<path d="M790.4,90.1h-2c0.1,19,0.3,38.1,0.8,57.1h1.2V90.1z"/>
			<rect x="784.7" y="90.7" width="2.9" height="56.1"/>
			<rect x="790.5" y="90.7" width="2.9" height="56.1"/>
		</g>
	</g>
</g>
<polygon fill="#ED1C24" points="414.2,76.3 254.9,169 234.5,169 404.1,69.2 "/>
<polygon fill="#ED1C24" points="502.9,34.4 520.5,23 507.6,23 493.3,30.7 "/>
<path fill="#C1272D" d="M450.6,44.1c0,0-2.2-25.2,31.5-37.3c0,0,32.8,32.5,18.8,49.4c0,0-26.8,6.4-46.5,2.5S450.6,44.1,450.6,44.1z"
	/>
<path fill="#C1272D" d="M457.6,46c0,0,11.5-27.4,28.7-30.6"/>
<path fill="#ED1C24" d="M457,46.1c0,0,5.3-22.5,28.2-21.5C485.2,24.6,468.9,29.9,457,46.1z"/>
<path fill="#ED1C24" d="M492.8,37.5c0,0-18.2,17.2-40.2,15.8C452.7,53.3,481.3,58.6,492.8,37.5z"/>
<path fill="#C1272D" d="M451.9,45c0,0-24.1-15.2-55.9,1.6c0,0,7.4,37.7,30.3,46.6c0,0,23.3-18.3,33.8-35.5S451.9,45,451.9,45z"/>
<path fill="#ED1C24" d="M449.1,51.1c0,0-20.1-11.3-34.9,6.3C414.2,57.4,429,48.9,449.1,51.1z"/>
<path fill="#ED1C24" d="M418.6,71.7c0,0,25-1.8,38.7-19C457.3,52.7,441.8,77.5,418.6,71.7z"/>
<ellipse transform="matrix(0.9165 -0.4001 0.4001 0.9165 18.1271 185.7029)" fill="#ED1C24" cx="453.8" cy="49.4" rx="10.7" ry="15.5"/>
<path fill="#C1272D" d="M447.7,35.6c0,0,12.2,0.2,14.7,14.5C462.4,50.1,455,40.4,447.7,35.6z"/>
</svg>
