<?xml version="1.0" encoding="utf-8"?>
<!-- Generator: Adobe Illustrator 18.0.0, SVG Export Plug-In . SVG Version: 6.00 Build 0)  -->
<!DOCTYPE svg PUBLIC "-//W3C//DTD SVG 1.1//EN" "http://www.w3.org/Graphics/SVG/1.1/DTD/svg11.dtd">
<svg version="1.1" id="Layer_1" xmlns="http://www.w3.org/2000/svg" xmlns:xlink="http://www.w3.org/1999/xlink" x="0px" y="0px"
	 viewBox="0 0 440.4 483" enable-background="new 0 0 440.4 483" xml:space="preserve">
<g>
	<path fill="#231F20" d="M228.8,86.7c0.3,0.4,0.9,0.6,1.4,0.7c2.6,0.7,5.5,1.4,8,0.4c2.6-0.9,4.5-4.1,3.2-6.5
		c1.4,0.1,2.7,1.3,2.9,2.7c0.2,1.4-0.7,2.9-2,3.4c2-0.8,4-2,5.2-3.8c1.2-1.8,1.6-4.2,0.7-6.2c1.2-0.5,1.8-2.7,3-2.2
		c0.4,0.2,0.6,0.8,0.7,1.2c0.2,1.9-0.4,3.8-1.7,5.2c1.6-0.7,3.2-1.5,4.5-2.8c1.3-1.2,2.1-3,2-4.7c-0.2-1.8-1.6-3.4-3.3-3.5
		c1.4,0.2,2.9-0.6,3.8-1.7c0.9-1.2,1.3-2.6,1.5-4c0.2-1.6,0.2-3.4-0.8-4.7c-1-1.3-3.1-1.8-4.2-0.6c0.7-1.2,2.1-2,3.5-1.9
		s2.7,1.2,3,2.6c0.5-2.8-2.5-5.6-5.2-4.9c2.4-0.7,3.9-3.5,3.2-5.9c-0.7-2.4-3.6-3.9-6-3.1c-0.3,0.1-0.6,0.2-0.9,0.2
		c-0.3,0-0.5-0.2-0.7-0.4c-0.8-0.9-0.7-2.6,0.4-3.2c1.1-0.5,2.6,0.7,2.1,1.8c0.9-0.9,1.2-2.3,0.8-3.6c-0.4-1.2-1.6-2.1-2.8-2.3
		c0.3-0.7,1.3-0.3,1.9,0.2c0.6,0.5,1.5,1,1.9,0.4c0.2-0.3,0.2-0.7,0.2-1.1c-0.4-2-1.7-3.7-3.5-4.6c1.8-1.4,2.1-4,1.5-6.2
		s-2.1-4-3.6-5.7c1.6-1.5,0.5-4.2-1-5.7c-1.6-1.5-3.6-2.6-4.4-4.6c-0.2-0.6-0.3-1.2-0.6-1.7c-0.5-1-1.5-1.6-2.4-2.2
		c-1.4-0.8-2.8-1.7-4.4-1.9c-0.9-0.1-1.8,0.1-2.6,0.2c-1.6,0.3-3.1,0.5-4.7,0.8c-1.6,0.3-3.3,0.6-4.2,1.9c-0.7,0.9-0.8,2.1-0.9,3.3
		c-0.9,9.7-1.8,19.5-0.5,29.1c0.6,4.4,1.6,8.8,2.2,13.3c1.3,10.3,0.2,20.8,2.4,30.9C228.5,86,228.6,86.4,228.8,86.7z"/>
	<path fill="#231F20" d="M208.9,61c-0.5,2.3-0.5,4.7-0.6,7.1c-0.2,5-0.8,10.1-3,14.5c-2.3,4.4-6.5,7.9-11.3,7.8
		c-2.1,0-4.2-0.8-6.3-0.4c1.7,0.5,3.5-0.7,4.3-2.4s0.7-3.6,0.3-5.4c-2.1,0.5-3.7,2.6-3.8,4.9c-2.4-1.3-3.8-4.3-3.2-7.1
		c0.2,1.9-0.9,3.9-2.6,4.7c-1.7,0.8-3.8,0.3-5.1-1.1c1.7-0.1,3-1.8,3.4-3.6c0.4-1.7,0-3.6-0.3-5.3c-2,0.5-2.9,3.6-1.5,5.2
		c-1.5-1.9-2.8-4.1-3.1-6.5c-0.3-2.4,0.6-5.2,2.6-6.5c-1.5,1-3.6,0.3-4.9-1c-1.2-1.4-1.8-3.3-2-5.1c-0.4,0.6,0.1,1.5,0.7,1.7
		s1.4-0.1,2-0.4c0.8-0.4,1.5-1,1.8-1.8s0.1-2-0.7-2.3c-0.8-0.4-1.9,0.5-1.6,1.3c-1.1-3.6,1.3-7.9,4.8-8.7c-2,0.3-4-1.2-4.4-3.2
		c1.3,1,3.2,1,4.4-0.2c1.2-1.1,1.4-3.2,0.6-4.6c-1.1,0.7-1.9,1.7-2.6,2.8c-2.1-2.2-2.7-5.7-1.9-8.7c0.8-3,2.9-5.5,5.4-7.2
		c0.3-0.2,0.7-0.5,0.9-0.9c0.3-0.7,0-1.5-0.3-2.2c-1.8-4.3-1.3-9.5,1-13.6c2.3-4,6.3-6.9,10.7-7.9c5.6-1.2,11.3,0.4,16.7,2.5
		c1.4,0.5,2.9,1.2,4,2.3c1.9,2,2.2,5.1,1.8,7.8c-0.4,2.7-1.4,5.4-1.6,8.2c-0.4,4.3,1,8.7,1,13c0,3.9-1.2,7.8-2.3,11.5
		c-0.6,2-1.2,4-1.9,6C209.8,57.8,209.2,59.4,208.9,61z"/>
	<path fill="#231F20" d="M189.4,83.5c-3.3-4.8-4-11.2-1.8-16.6c-2.1,0.6-3.6,2.7-4.2,4.8c-0.6,2.2-0.4,4.4-0.2,6.7
		c-2.4-5.7-2.5-12.3-0.3-18.1c-2.1,3.3-3.1,7.3-2.7,11.2c-3.8-9.1-4.8-20.1,0.6-28.3c1.3-1.9,2.9-4.2,2-6.3
		c-2.7,1.2-4.9,3.7-5.8,6.5c0-2.7,0-5.4-0.1-8.1c0-1.4,0-3,0.6-4.2c0.7-1.4,2.1-2.3,3-3.6c2.4-3.4,0.8-8.3,2.2-12.2
		c1.2-3.3,4.3-5.5,7.2-7.4c1.4-1,2.9-1.9,4.6-2.2c1.4-0.2,2.9,0.1,4.3,0.4c2.5,0.5,4.9,1.1,7.4,1.6c2.5,0.5,5.1,1.1,7.5,0.4
		c1.4-0.4,2.7-1.2,4-1.8c6.2-2.9,13.4-2.3,20-0.8c1.8,0.4,3.7,1,5.2,2c3.8,2.5,5.2,7.3,6.1,11.7c0.8,3.6,1.5,7.4,1.3,11.1
		c-0.2,3.7-1.4,7.5-4.1,10.2c0.2-0.5,0.5-1.1,0.4-1.7c-0.1-0.6-0.6-1.1-1.2-1c-0.7,0.2-0.8,1.2-0.7,1.9c0.9,5.2,4.4,9.6,6.3,14.6
		c2.2,5.5,2.3,11.8,0.3,17.4c-0.3-1-0.4-2-0.3-3.1c-0.4,4-1.9,7.9-4.4,11c0.5-2.3,0.2-4.8-0.9-6.8c-0.7,1.5-1.6,3.2-3.2,3.6
		c-1.8,0.4-3.5-1-5.2-1.5c-3.1-0.9-6.2,1.1-9.4,0.9c-3.4-0.2-6.1-2.6-9.2-4c-0.5-0.2-1-0.4-1.5-0.3c-1.4,0.2-1.8,2-2.9,2.9
		c-0.5,0.5-1.1,0.7-1.6,1c-2.7,1.3-5.5,2.6-8.4,3.2c-1.3,0.3-2.7,0.5-3.9,1.2c-1.8,1-2.9,3.1-2.7,5.2c-2.2-2.4-2.9-6.1-1.6-9.1
		c-1.8,2-2.8,4.7-2.5,7.4c-2.2-1.8-2.9-5.2-1.5-7.7C189.7,77.4,189.5,80.6,189.4,83.5z"/>
	<polygon fill="#231F20" points="184.6,245.4 175.7,457.1 191.5,457.1 220.5,283.7 233.3,457.1 252.8,457.1 252.2,244.3 	"/>
	<path fill="#F9BD91" d="M164.5,101.4c0,0,23.9-21.2,104.7,0l-15.1,142.9c0,0-21.2,2.5-72.2,0L164.5,101.4z"/>
	<path fill="#F9BD91" d="M243.7,18.8v61h-9.3v20.1c0,0-10.4,20.5-35.9,0V58.2c0,0-7.7-1.5-7.7-10.4s8.9-4.6,8.9-4.6V18.8H243.7z"/>
	<polygon fill="#8B5E3C" points="190,457.1 187.5,469.1 177.1,469.1 177.1,457.1 	"/>
	<path fill="#231F20" d="M177.1,469.1h10.4c0,0,4.1,13.1-9.5,13.9h-17.6c0,0-3.9-8.3,6.6-8.9C167,474.1,176.1,472.6,177.1,469.1z"/>
	<polygon fill="#8B5E3C" points="236.8,457.1 239.3,469.1 249.7,469.1 249.7,457.1 	"/>
	<path fill="#231F20" d="M249.7,469.1h-10.4c0,0-4.1,13.1,9.5,13.9h17.6c0,0,3.9-8.3-6.6-8.9C259.8,474.1,250.7,472.6,249.7,469.1z"
		/>
	<polygon fill="#231F20" points="181.9,244.3 175.7,457.1 191.5,457.1 220.5,283.7 233.3,457.1 252.8,457.1 254.1,244.3 	"/>
	<polygon fill="#603913" points="190,457.1 187.5,469.1 177.1,469.1 177.1,457.1 	"/>
	<path fill="#603913" d="M177.1,469.1h10.4c0,0,4.1,13.1-9.5,13.9h-17.6c0,0-3.9-8.3,6.6-8.9C167,474.1,176.1,472.6,177.1,469.1z"/>
	<polygon fill="#603913" points="236.8,457.1 239.3,469.1 249.7,469.1 249.7,457.1 	"/>
	<path fill="#603913" d="M249.7,469.1h-10.4c0,0-4.1,13.1,9.5,13.9h17.6c0,0,3.9-8.3-6.6-8.9C259.8,474.1,250.7,472.6,249.7,469.1z"
		/>
	<polygon fill="#231F20" points="226.8,465.9 258.5,464.8 252.8,371.2 226.8,369.5 	"/>
	<polygon fill="#231F20" points="202.4,467.5 170.6,467.5 178.1,374.6 205.3,375 	"/>
	<polygon fill="#F9BD91" points="266.6,100.8 405.6,109 405.6,122.1 260,130.9 	"/>
	<path fill="#F9BD91" d="M406.2,124.1c35.3,3.8,35.4-11.3,33.6-16.6c-1.8-5.2-20.8-0.7-20.8-0.7s8.1-1.2,6.6-5.2
		c-1.5-4-11-3.1-11-3.1s-15.8,0.2-16.3,11S406.2,124.1,406.2,124.1z"/>
	<polygon fill="#F9BD91" points="173.8,98.5 34.8,106.7 34.8,119.7 180.4,128.6 	"/>
	<path fill="#F9BD91" d="M34.2,121.8c-35.3,3.8-35.4-11.3-33.6-16.6c1.8-5.2,20.8-0.7,20.8-0.7s-8.1-1.2-6.6-5.2s11-3.1,11-3.1
		s15.8,0.2,16.3,11C42.5,118,34.2,121.8,34.2,121.8z"/>
	<ellipse fill="#726658" cx="218.1" cy="252.6" rx="14.3" ry="7.3"/>
	<ellipse fill="#726658" cx="243.3" cy="251.6" rx="10.8" ry="7.3"/>
	<ellipse fill="#726658" cx="193" cy="252.6" rx="10.8" ry="7.3"/>
	<path fill="none" d="M193.4,41.5c0,0.1,0,0.1,0,0.2"/>
	<path fill="#231F20" d="M195.8,35.7c-0.3-0.5,0-1.2,0.6-1.3c0.7,2.8-0.2,6-2.3,7.9c3.3,0.6,6.8-0.7,8.9-3.2
		c2.2-2.5,2.9-6.1,1.9-9.3c1.5,1.2,2.3,3.1,2.2,4.9c-0.1,1.9-1.2,3.6-2.8,4.6c3.1-0.2,4.8-3.7,5.3-6.7s0.3-6.4,2.1-8.9
		c1.7,2.6,1.6,6.3-0.4,8.7c2.2-0.7,4-2.6,4.6-4.8c0.5-2,0.1-4.5,1.6-5.9c1.4,0.8,1.8,2.6,1.4,4.1s-1.5,2.7-2.7,3.8
		c3.4-0.3,6.4-3.3,6.7-6.8c0-0.3,0-0.7-0.2-1c-0.2-0.3-0.7-0.3-0.8,0.1c0.8,0.5,1.6-0.9,2.6-1c0.7-0.1,1.2,0.6,1.3,1.2
		c0.1,0.7,0,1.3,0,2c-0.1,2.6,2.1,5.1,4.7,5.4c-1.3-2.1-1.1-5.1,0.5-7c0,1.6,0.5,3.1,1.4,4.4c0.4,0.6,1.1,1.3,1.8,1.3
		c0.8,0,1.5-1,1-1.6c3.5,1.2,5,6.1,2.8,9.1c2.3-2.6,2.8-6.5,1.4-9.6c1.7,1.8,2.6,4.3,2.4,6.8c-0.1,1.2-0.4,2.3-0.1,3.5
		c0.7,3.1,5,4.6,5.2,7.7c-1-0.9-1-2.5-0.8-3.8c0.4-4.6,0.5-9.2,0.3-13.8c-0.1-2.5-0.3-5.1-1.1-7.5s-2.5-4.6-4.8-5.6
		c-2-0.9-4.3-0.8-6.5-0.7c-2.4,0.1-4.8,0.2-7.2,0.3c-7.5,0.3-15.1,0.6-22.6,1.2c-2.9,0.2-6.1,0.7-7.9,3c-1.9,2.5-1.2,6.1-0.4,9.2
		C196.9,30.2,194.8,31.8,195.8,35.7z"/>
	<path fill="#231F20" d="M203.8,35.4c0-2.5-1.5-5.1-3.9-5.5c-1.8-0.3-3.6,0.7-5,1.9c-3.9,3.2-6.4,8.6-4.8,13.4
		c0.5-1.7,1.9-3.2,3.6-3.8c0.4-0.1,0.8-0.2,1.2,0c0.3,0.2,0.5,0.5,0.6,0.8c1.3,3.1,0.3,7.1-2.4,9.1c1.3,0.4,2.7-0.1,3.7-1.1
		c0.9-1,1.4-2.3,1.7-3.6c1.1,2.3,0.6,5.2-1.3,6.9c1.6,0.4,3.4-1.1,3.4-2.7c0.2,1.2,1.4,1.9,2.6,2s2.3-0.4,3.4-0.8
		c-1.3,0.1-2.4-0.9-2.9-2.1c-0.5-1.2-0.5-2.5-0.5-3.8c1.1,1.5,2.9,2.4,4.8,2.6c-2.7-1-4.7-3.7-4.9-6.6
		C202.9,39.9,203.8,37.7,203.8,35.4z"/>
	<path fill="#231F20" d="M197.7,41.7l2.5,19.7h7.7l-8.1-23.7C199.8,37.7,197.5,40.3,197.7,41.7z"/>
	<circle fill="#FFFFFF" cx="196.9" cy="92.9" r="1.6"/>
	<circle fill="#FFFFFF" cx="196.9" cy="96.2" r="1.6"/>
	<circle fill="#BE1E2D" cx="197.4" cy="99.5" r="1.6"/>
	<circle fill="#FFFFFF" cx="197.5" cy="102.5" r="1.6"/>
	<circle fill="#FFFFFF" cx="197.9" cy="105.7" r="1.6"/>
	<circle fill="#BE1E2D" cx="198.7" cy="108.9" r="1.6"/>
	<circle fill="#FFFFFF" cx="199.4" cy="111.8" r="1.6"/>
	<circle fill="#FFFFFF" cx="200.1" cy="115" r="1.6"/>
	<circle fill="#BE1E2D" cx="201.3" cy="118.1" r="1.6"/>
	<circle fill="#FFFFFF" cx="202.7" cy="121" r="1.6"/>
	<circle fill="#FFFFFF" cx="204.3" cy="123.9" r="1.6"/>
	<circle fill="#BE1E2D" cx="206.3" cy="126.5" r="1.6"/>
	<circle fill="#FFFFFF" cx="236" cy="93.8" r="1.6"/>
	<circle fill="#FFFFFF" cx="236" cy="97" r="1.6"/>
	<circle fill="#BE1E2D" cx="235.6" cy="100.3" r="1.6"/>
	<circle fill="#FFFFFF" cx="235.5" cy="103.3" r="1.6"/>
	<circle fill="#FFFFFF" cx="235.1" cy="106.6" r="1.6"/>
	<circle fill="#BE1E2D" cx="234.2" cy="109.8" r="1.6"/>
	<circle fill="#FFFFFF" cx="233.5" cy="112.7" r="1.6"/>
	<circle fill="#FFFFFF" cx="232.8" cy="115.9" r="1.6"/>
	<circle fill="#BE1E2D" cx="231.6" cy="119" r="1.6"/>
	<circle fill="#FFFFFF" cx="230.2" cy="121.9" r="1.6"/>
	<circle fill="#FFFFFF" cx="228.6" cy="124.8" r="1.6"/>
	<circle fill="#BE1E2D" cx="226.6" cy="127.4" r="1.6"/>
	<circle fill="#FFFFFF" cx="207.9" cy="129" r="1.6"/>
	<circle fill="#FFFFFF" cx="210.3" cy="130.9" r="1.6"/>
	<circle fill="#BE1E2D" cx="212.5" cy="132.6" r="1.6"/>
	<circle fill="#FFFFFF" cx="215.3" cy="133.5" r="1.6"/>
	<circle fill="#FFFFFF" cx="218.5" cy="133.5" r="1.6"/>
	<circle fill="#BE1E2D" cx="220.8" cy="132.6" r="1.6"/>
	<circle fill="#FFFFFF" cx="223.1" cy="130.7" r="1.6"/>
	<circle fill="#FFFFFF" cx="225" cy="129.3" r="1.6"/>
	<circle fill="#DD9F76" cx="187.2" cy="159" r="1.6"/>
	<circle fill="#DD9F76" cx="248.9" cy="159" r="1.6"/>
</g>
</svg>
