<?xml version="1.0" encoding="utf-8"?>
<!-- Generator: Adobe Illustrator 18.0.0, SVG Export Plug-In . SVG Version: 6.00 Build 0)  -->
<!DOCTYPE svg PUBLIC "-//W3C//DTD SVG 1.1//EN" "http://www.w3.org/Graphics/SVG/1.1/DTD/svg11.dtd">
<svg version="1.1" id="Layer_1" xmlns="http://www.w3.org/2000/svg" xmlns:xlink="http://www.w3.org/1999/xlink" x="0px" y="0px"
	 viewBox="0 0 253.4 359.4" enable-background="new 0 0 253.4 359.4" xml:space="preserve">
<rect y="11.2" fill="#CCCCCC" width="220" height="309"/>
<rect x="11" y="21.2" fill="#EB316F" width="199.4" height="290.4"/>
<g id="KMhfcu.tif">
	<g>
		<path d="M28,122.2c0.4-0.7,0.3-1.5,0.4-2.2c0.9-9.4,3.4-18.4,7.6-27c2.4-5,5.3-9.7,8.8-14.2c0.2-0.3,0.4-0.5,0.6-0.7
			c0.5,0.2,0.3,0.5,0.3,0.8c0.4,5.2,0.7,10.4,1.1,15.6c0.3,3.9,0.6,7.7,0.8,11.6c0,0.6-0.1,1-0.5,1.5c-5.2,5.7-10.4,11.5-15.6,17.2
			c-1.2,1.3-2.4,2.6-3.6,4C28,126.6,28,124.4,28,122.2z"/>
		<path fill="#FFFFFF" d="M180.2,286.2c-0.8-0.3-1.7-0.5-2.5-1c-3.9-2.1-6.3-5.3-6.4-9.8c-0.2-5.1-0.1-10.3-0.1-15.5
			c0-0.4,0-0.8,0-1.2c-0.6,0.2-0.5,0.7-0.6,1.1c-2.9,8.3-5.8,16.7-8.6,25c-0.2,0.7-0.5,1.1-1.4,0.8c0.6-1.9,1.3-3.8,1.9-5.6
			c3.6-10.5,7.2-20.9,10.8-31.4c0.3-0.8,0.1-0.9-0.6-0.9c-5.3,0-10.7,0-16,0c-0.4,0-1,0.3-1-0.6c0-0.8,0.5-0.7,1-0.7
			c5.9,0,11.8,0,17.7,0c0.8,0,1,0.2,0.6,0.9c-0.3,0.8-0.5,1.6-0.8,2.4c0,0.1-0.1,0.2,0,0.3c0,0,0.1-0.1,0.2-0.2
			c5.3-5.3,14.1-3.5,17.5,3c0.7,1.4,1.1,2.9,1.1,4.4c0,6,0,11.9,0,17.9c0,5.9-4.8,10.5-9.4,10.9c-0.1,0-0.1,0.1-0.2,0.2
			C182.3,286.2,181.3,286.2,180.2,286.2z M191.7,266.3L191.7,266.3c0-1.7,0-3.3,0-5c0-1.9,0.2-3.8-0.2-5.6c-1-4.4-5.8-8.1-10.1-7.7
			c-4.9,0.5-8.9,4.8-8.9,9.8c0,5.6-0.1,11.3,0,16.9c0.1,4.1,2,7.2,5.5,9.1c5.8,3.2,13.6-1.6,13.7-8.4
			C191.8,272.4,191.7,269.3,191.7,266.3z"/>
		<path d="M100.4,148.1c-1.3,0-2.6,0-4,0c-0.6,0-0.9-0.2-1.1-0.7c-1.7-5.6-3.3-11.2-5-16.8c-1-3.3-1.9-6.5-2.9-9.8
			c-0.2-0.7-0.1-1.2,0.6-1.7c7.8-5.4,15.5-10.8,23.2-16.3c0.5-0.3,0.8-0.5,1.4-0.1c8,5.7,16,11.3,24,16.9c0.6,0.4,0.7,0.7,0.5,1.3
			c-2.9,8.6-5.8,17.1-8.7,25.7c-0.2,0.7-0.6,0.9-1.4,0.9c-7.1,0-14.1,0.1-21.2,0.2c-1.8,0-3.6,0-5.4,0
			C100.4,148,100.4,148,100.4,148.1z"/>
		<path d="M127.7,166.4c1.3,0,2.5,0,3.8,0c0.7,0,1.1,0.2,1.4,0.7c1.9,2.8,3.9,5.5,5.8,8.3c0.3,0.4,0.3,0.8,0,1.2
			c-4.2,6-8.4,12-12.5,18c-0.7,1.1-1.5,2.1-2.2,3.2c-0.3,0.5-0.7,0.6-1.3,0.6c-7.7-0.1-15.3-0.3-23-0.4c-0.6,0-0.9-0.3-1.1-0.7
			c-4.4-6.8-8.7-13.6-13.2-20.3c-1-1.5-1-2.5,0.1-3.8c1.5-1.8,2.8-3.7,4.1-5.7c0.4-0.5,0.8-0.8,1.5-0.8c10.4-0.1,20.8-0.2,31.1-0.2
			c1.8,0,3.6,0,5.4,0C127.7,166.5,127.7,166.4,127.7,166.4z"/>
		<path d="M60.2,81.3c0-1.3,0-2.7,0-4c0-0.5,0.2-0.9,0.7-1.2c6.2-4,12.3-8,18.5-12c0.5-0.3,0.9-0.3,1.5-0.1c8,3.4,16,6.7,24,10.1
			c0.7,0.3,1,0.7,1,1.4c0.1,2.6,0.2,5.2,0.4,7.7c0,0.6-0.2,1-0.7,1.4c-11.1,7.3-22.2,14.6-33.3,22c-0.4,0.3-0.8,0.4-1.3,0.2
			c-3.1-1.2-6.2-2.4-9.4-3.5c-0.7-0.2-0.9-0.6-1-1.3c-0.2-5-0.1-10.1-0.2-15.1c0-1.8,0-3.6,0-5.4C60.3,81.3,60.2,81.3,60.2,81.3z"/>
		<path d="M119.6,76.2c-1.1-2.2,0.3-2.9,2-3.5c7.1-2.9,14.1-5.8,21.1-8.7c0.6-0.2,0.9-0.1,1.3,0.2c5.4,3.7,10.7,7.4,16.1,11.1
			c1.6,1.1,3.2,2.2,4.8,3.3c0.5,0.4,0.8,0.8,0.8,1.4c-0.3,6.5-0.6,13.1-1,19.6c-0.1,1.3-0.2,2.7-0.2,4c0,0.6-0.2,0.9-0.9,1.1
			c-3,0.8-6.1,1.6-9.1,2.5c-0.5,0.2-0.9,0.1-1.3-0.2c-8.2-5.8-16.5-11.6-24.7-17.4c-2.7-1.9-5.3-3.8-8-5.6c-0.6-0.4-0.9-0.9-0.9-1.6
			C119.6,80.1,119.6,78,119.6,76.2z"/>
		<path d="M71.4,166.7c-1.4-0.4-2.8-0.8-4.1-1.1c-6.7-1.9-13.3-3.8-20-5.7c-0.5-0.1-0.7-0.4-0.8-0.8c-2.3-7.2-4.5-14.5-6.8-21.7
			c-0.1-0.4,0-0.7,0.2-1.1c5.4-6.5,10.7-12.9,16.1-19.4c0.3-0.4,0.6-0.4,1-0.3c2.9,0.9,5.9,1.7,8.9,2.6c0.5,0.1,0.7,0.4,0.9,0.8
			c1.4,4.2,2.7,8.4,4.1,12.5c2.7,8.1,5.3,16.3,8,24.4c0.3,0.8,0.2,1.3-0.4,2c-2.1,2.3-4,4.6-6.1,6.9C72,166.2,71.8,166.6,71.4,166.7
			z"/>
		<path d="M184.6,139.1c-0.1,0.2-0.1,0.4-0.2,0.7c-2.5,6.7-4.9,13.5-7.3,20.2c-0.2,0.7-0.6,1-1.4,1.2c-8,1.9-16.1,3.9-24.1,5.8
			c-0.6,0.1-0.8,0-1.1-0.4c-1.9-2.5-3.8-5-5.8-7.5c-0.4-0.5-0.4-0.9-0.2-1.5c3.6-9.9,7.1-19.8,10.7-29.7c0.8-2.2,1.6-4.4,2.3-6.5
			c0.2-0.5,0.5-0.8,1.1-1c2.8-0.9,5.6-1.8,8.3-2.7c0.8-0.3,1.2-0.1,1.6,0.5c4.2,5.4,8.4,10.7,12.5,16.1c1.1,1.4,2.2,2.8,3.3,4.2
			C184.4,138.6,184.7,138.8,184.6,139.1z"/>
		<path d="M133.8,206.8c0.5-1.3,1.5-2.3,2.3-3.5c5.1-7.2,10.3-14.5,15.4-21.7c0.4-0.5,0.8-0.8,1.4-0.9c7.2-1.8,14.4-3.5,21.7-5.3
			c1.9-0.5,3.8-0.9,5.7-1.4c0.3-0.1,0.5-0.2,0.9,0c-0.4,1-1.2,1.9-1.9,2.8c-4.1,5.3-8.7,10.1-14,14.4c-4.9,4-10.3,7.4-16.1,10.2
			c-4.5,2.2-9.1,3.9-14,5.3C134.8,206.6,134.3,206.8,133.8,206.8L133.8,206.8z"/>
		<path d="M86.7,205.8c-1.9-0.5-3.6-1.1-5.2-1.7c-11.4-4.3-21.1-10.8-29.5-19c-3.7-3.6-6.9-7.6-9.8-11.8c-0.2-0.2-0.5-0.5-0.3-0.7
			c0.2-0.2,0.5,0,0.8,0.1c7.1,1.8,14.1,3.6,21.2,5.5c1.8,0.5,3.6,1,5.4,1.4c0.7,0.2,1.2,0.5,1.6,1.1c4.6,7.3,9.2,14.5,13.7,21.8
			C85.3,203.5,86.1,204.5,86.7,205.8z"/>
		<path d="M140.6,51.2c-3.3,1.4-6.4,2.6-9.5,3.9c-5.6,2.3-11.3,4.7-16.9,7c-0.5,0.2-0.8,0.3-1.4,0.1c-8.8-3.8-17.6-7.5-26.4-11.3
			c-0.3-0.1-0.7-0.2-0.9-0.6c9.7-3.1,19.6-4.4,29.8-4.1C123.1,46.4,137.2,49.1,140.6,51.2z"/>
		<path d="M195.2,129.3c-2.1-2.7-4.2-5.3-6.2-7.9c-3.7-4.8-7.5-9.6-11.3-14.4c-0.6-0.8-0.9-1.5-0.8-2.5c0.5-6.1,0.9-12.2,1.4-18.4
			c0.2-2.2,0.3-4.3,0.5-6.5c0-0.3-0.1-0.6,0.3-1C190.3,94,196.6,110.5,195.2,129.3z"/>
		<path fill="#FFFFFF" d="M62.6,252.8c1.7-3.3,4.1-5.6,7.8-6.3c3.6-0.6,6.7,0.3,9.5,3c0.1-0.9-0.4-1.5-0.5-2.2
			c-0.1-0.3-0.5-0.7,0.1-1c0.6-0.2,0.9,0.1,1.1,0.7c0.4,1.4,0.9,2.7,1.4,4c1.6,4.6,3.1,9.2,4.7,13.8c0.2,0.7,0.2,1.2,0,1.9
			c-2,5.8-4,11.7-6,17.5c-0.1,0.2-0.2,0.5-0.2,0.7c-0.2,0.5-0.7,0.4-1,0.3c-0.4-0.1-0.1-0.4-0.1-0.7c0.2-0.6,0.4-1.2,0.7-2.1
			c-6.6,4.9-12.1,3.7-17-2.5c0,1.6,0,3.1,0,4.7c0,0.4,0,0.9-0.6,0.8c-0.4,0-0.6-0.1-0.6-0.5c0-0.4,0-0.8,0-1.1
			c0-8.5-0.1-17-0.1-25.5c0-1.7,0.2-3.3-0.3-5c-1.1-3.9-4.3-5.7-8.2-5.6c-2.2,0.1-3.8,1-5.3,2.6c-1,1.1-1.2,1.1-2.1-0.1
			c-1.6-2.1-3.7-2.6-6.1-2.5c-5.5,0.2-7.4,4.2-7.4,7.9c0,9.3,0,18.6,0,27.9c0,0.3,0,0.6,0,0.9c0,0.5,0.1,0.9-0.7,0.9
			c-0.7,0-0.6-0.4-0.6-0.9c0-3.8,0-7.6,0-11.4c0-5.5,0-10.9,0-16.4c0-2.8,0.5-5.5,2.5-7.6c3.3-3.6,9.2-3.8,12.8-0.4
			c0.6,0.6,0.8,0.6,1.4,0c3.8-3.9,12.3-3.4,14.7,3.4C62.3,252.4,62.4,252.5,62.6,252.8z M62.9,266.1
			C62.9,266.1,62.9,266.1,62.9,266.1c0,3,0,6,0,9c0,6.1,6.2,10.6,12,8.8c3.9-1.2,6.7-4.8,7-8.9c0-0.3-0.2-0.8,0.4-0.8
			c0.6,0,0.7-0.4,0.8-0.8c0.8-2.3,1.6-4.7,2.4-7c0.1-0.3,0.2-0.5,0.1-0.9c-0.8-2.4-1.6-4.8-2.5-7.2c-0.1-0.4-0.3-0.6-0.7-0.6
			c-0.6,0.1-0.7-0.2-0.7-0.7c0-1.8-0.6-3.3-1.6-4.8c-2.5-3.7-6.5-5.3-10.3-4.2c-3.6,1-7.2,5.3-7,9.5
			C63.1,260.4,62.9,263.2,62.9,266.1z M80,249.5c0,0,0-0.1-0.1-0.1c0,0-0.1,0-0.1,0.1C79.9,249.5,79.9,249.5,80,249.5
			C80,249.5,80,249.5,80,249.5z"/>
		<path fill="#FFFFFF" d="M127.2,277.7c-1,2.8-2.8,5-5.3,6.5c-4.6,2.8-10.3,1.3-13.7-3.4c-1.4-2-2-4.2-2-6.7c0-5.4,0-10.9,0-16.3
			c0-6,3.9-10.5,9.7-11.5c2.3-0.4,4.4,0.2,6.3,1.5c2.3,1.6,4,3.7,4.9,6.3c0.4,0,0.3-0.3,0.4-0.6c1.6-4.5,6.3-7.4,10.9-6.8
			c5.3,0.7,9.5,4.7,9.7,9.9c0.3,6.3,0.3,12.6,0,18.9c-0.4,7.4-8,12.2-14.6,9.4c-3-1.3-4.9-3.6-6-6.6c-0.1-0.2-0.1-0.3-0.2-0.5
			C127.3,277.9,127.3,277.8,127.2,277.7z M107.5,265.9c0,2.8,0,5.6,0,8.5c0,0.8,0.1,1.6,0.3,2.4c1,3.5,3.2,6,6.7,7.1
			c3.3,1.1,6.2,0.1,8.9-2.2c2.5-2.2,3.4-5.3,3.5-8.3c0.1-5.4,0.5-10.9-0.3-16.3c-0.6-3.9-2.5-6.6-5.8-8.4c-5.6-2.9-13,1.9-13.1,8.4
			C107.5,260,107.5,262.9,107.5,265.9z M147,266.3c0-3.1,0.1-6.3,0-9.4c-0.2-4.7-4.7-8.8-9.5-8.8c-4.5-0.1-9,3.9-9.3,8.5
			c-0.3,6.3-0.4,12.6,0,18.9c0.2,3.8,2.5,6.7,5.9,8.3c5.3,2.5,12.4-1.9,12.8-7.9C147.2,272.7,147,269.5,147,266.3z"/>
		<path fill="#FFFFFF" d="M46.9,253.6c1.8-3.9,4.8-5.6,8.3-4.9c3.3,0.6,5.6,3.5,5.6,7c0,9.7,0,19.3,0,29c0,0.5,0,0.9-0.7,0.9
			c-0.8,0-0.6-0.5-0.6-0.9c0-9,0-17.9,0-26.9c0-1,0-1.9-0.2-2.9c-0.9-4.3-5.9-6.4-9-3.7c-2,1.7-2.9,4-2.9,6.7c0,8.9,0,17.8,0,26.8
			c0,0.3,0.3,0.8-0.3,1c-0.8,0.2-0.9-0.2-0.9-0.9c0-7.6,0-15.3,0-22.9c0-1.4,0-2.7,0-4.1c0-2.3-0.9-4.3-2.4-6c-2.6-2.9-7.4-2-9,1.8
			c-0.5,1.1-0.6,2.3-0.6,3.6c0,9.1,0,18.1,0,27.2c0,0.3,0,0.6,0,0.9c0,0.4-0.4,0.4-0.7,0.4c-0.3,0-0.5-0.1-0.5-0.5
			c0-0.2,0-0.3,0-0.5c0-9.2,0-18.5,0-27.7c0-1.8,0.2-3.6,1.3-5.2c1.6-2.3,3.9-3.2,6.6-3c2.6,0.2,4.3,1.7,5.5,4
			C46.6,252.9,46.7,253.2,46.9,253.6z"/>
		<path fill="#FFFFFF" d="M88.3,263.7c0.8-1.3,1.1-2.7,1.6-4.1c1.4-4.2,2.8-8.4,4.2-12.5c0.1-0.3,0.2-0.6,0.4-0.7
			c0.2-0.2,0.6-0.1,0.9,0c0.4,0.2,0.1,0.5,0,0.8c-2,5.9-4,11.7-6,17.5c-0.3,0.8-0.3,1.4,0,2.2c2,5.8,4,11.5,6,17.3
			c0.1,0.3,0.6,0.8,0,1c-0.6,0.2-0.9-0.1-1.1-0.7c-1.8-5.2-3.6-10.5-5.4-15.7c-0.1-0.3-0.1-0.7-0.5-1c-0.8,2.3-1.6,4.5-2.3,6.8
			c-1.1,3.3-2.2,6.5-3.3,9.8c0,0.1-0.1,0.3-0.2,0.4c-0.1,0.6-0.6,0.6-1,0.5c-0.6-0.2-0.2-0.6-0.1-0.8c1.8-5.5,3.6-10.9,5.5-16.4
			c0.6-1.6,0.5-3,0-4.7c-1.6-5.4-3.7-10.7-5.4-16.1c-0.1-0.3-0.6-0.7,0.1-0.9c0.6-0.2,0.8,0.2,0.9,0.7c1.3,3.7,2.5,7.4,3.8,11.1
			C87,260,87.6,261.8,88.3,263.7z"/>
		<path fill="#FFFFFF" d="M58.7,270.4c0,4.7,0,9.4,0,14.1c0,0.5,0.2,1-0.6,1c-0.9,0-0.6-0.6-0.6-1c0-9.2,0-18.4,0-27.6
			c0-1.3-0.3-2.6-1.2-3.6c-1.6-1.8-4.2-1.5-5.5,0.5c-0.9,1.3-1.1,2.8-1.1,4.4c0,8.7,0,17.5,0,26.2c0,0.3,0.2,0.8-0.2,1
			c-0.2,0.1-0.6,0.1-0.8,0.1c-0.4-0.1-0.2-0.5-0.2-0.7c0-3,0-5.9,0-8.9c0-6,0-12.1,0-18.1c0-1.6,0.4-3,1.3-4.3
			c1.1-1.7,2.6-2.8,4.8-2.5c1.7,0.2,3.6,2,4.1,3.9c0.2,0.6,0.2,1.2,0.2,1.9C58.7,261.3,58.7,265.8,58.7,270.4z"/>
		<path fill="#FFFFFF" d="M36.3,270.4c0,4.6,0,9.2,0,13.8c0,0.2,0,0.4,0,0.6c0,0.4-0.2,0.6-0.6,0.6c-0.5,0-0.6-0.2-0.6-0.6
			c0-0.1,0-0.3,0-0.4c0-9.2,0-18.4,0-27.6c0-2.1,0.8-3.8,2.5-5c1.7-1.3,3.9-1.2,5.4,0.3c1.5,1.4,2.4,3.2,2.4,5.3
			c0,9.1,0,18.1,0,27.2c0,0.4,0.1,0.9-0.6,0.9c-0.8,0-0.6-0.6-0.6-1c0-8.8,0-17.6,0-26.3c0-1.5-0.3-2.8-1-4.1
			c-0.9-1.5-2.2-2.2-3.6-1.9c-1.5,0.3-2.8,1.6-3,3.2c-0.1,0.6-0.1,1.2-0.1,1.8C36.3,261.6,36.3,266,36.3,270.4z"/>
		<path fill="#FFFFFF" d="M158.5,285.6c1.3-3.7,2.6-7.5,3.9-11.2c2.7-7.8,5.4-15.6,8.1-23.3c0.3-0.8,0.3-1.2-0.8-1.1
			c-4.3,0.1-8.6,0-12.9,0c-0.4,0-1,0.2-1-0.6c0-0.9,0.5-0.7,1.1-0.7c4.9,0,9.8,0,14.6,0c0.9,0,1,0.2,0.7,1
			c-4.1,11.7-8.1,23.5-12.1,35.3C159.7,285.7,159.3,285.9,158.5,285.6z"/>
		<path fill="#FFFFFF" d="M162.7,251c2,0,4,0,6,0c0.6,0,0.9,0,0.6,0.8c-3.8,11-7.6,22.1-11.5,33.2c0,0.1-0.1,0.3-0.1,0.4
			c-0.2,0.6-0.7,0.5-1,0.4c-0.7-0.2-0.1-0.6,0-0.8c3.6-10.6,7.3-21.1,10.9-31.7c0.3-0.9,0.2-1.1-0.8-1.1c-3.4,0-6.8,0-10.1,0
			c-0.4,0-0.9,0.3-0.9-0.6c0-0.8,0.5-0.6,0.9-0.6C158.7,251,160.7,251,162.7,251z"/>
		<path fill="#FFFFFF" d="M90,265.8c0.3-1,0.6-2,0.9-3c1.8-5.2,3.5-10.3,5.3-15.5c0.1-0.2,0.1-0.4,0.2-0.6c0.2-0.5,0.7-0.5,1-0.4
			c0.4,0.2,0.1,0.5,0,0.8c-2,5.8-4,11.6-6,17.4c-0.3,0.8-0.3,1.5,0,2.4c2,5.8,4,11.5,6,17.3c0.1,0.3,0.6,0.7,0,1
			c-0.6,0.2-0.9,0-1.1-0.7c-1.5-4.6-3.1-9.3-4.7-13.9c-0.5-1.3-0.9-2.7-1.4-4C90.2,266.3,90.1,266.1,90,265.8z"/>
		<path fill="#FFFFFF" d="M103.9,265.9c0-6.2,0-12.3,0-18.5c0-0.3-0.1-0.7,0.2-1c0.2-0.2,0.5-0.1,0.8-0.1c0.5,0.1,0.3,0.5,0.3,0.8
			c0,4.3,0,8.6,0,13c0,8.1,0,16.2,0,24.4c0,0.3,0.2,0.8-0.3,1c-0.6,0.3-1,0-1-0.8c0-5.1,0-10.1,0-15.2
			C103.9,268.3,103.9,267.1,103.9,265.9z"/>
		<path fill="#FFFFFF" d="M103.1,265.8c0,6.2,0,12.3,0,18.5c0,0.2,0,0.5,0,0.7c0,0.5-0.4,0.4-0.7,0.5c-0.3,0-0.5-0.1-0.5-0.5
			c0-0.2,0-0.4,0-0.6c0-12.3,0-24.6,0-37c0-0.1,0-0.3,0-0.4c0-0.5,0.1-0.7,0.6-0.7c0.6,0,0.6,0.3,0.6,0.7c0,4.2,0,8.5,0,12.7
			C103.1,261.7,103.1,263.8,103.1,265.8z"/>
		<path fill="#FFFFFF" d="M101,265.9c0,6.1,0,12.2,0,18.3c0,0.3,0,0.6,0,0.8c0,0.5-0.4,0.4-0.7,0.4c-0.3,0-0.6,0-0.6-0.4
			c0-0.3,0-0.6,0-0.8c0-12.2,0-24.3,0-36.5c0-0.2,0-0.4,0-0.6c0-0.5,0-0.8,0.7-0.8c0.7,0,0.6,0.4,0.6,0.8
			C101,253.3,101,259.6,101,265.9z"/>
		<path fill="#FFFFFF" d="M88.3,273.7c-1.2,3.6-2.4,7-3.5,10.4c-0.1,0.3-0.2,0.5-0.3,0.8c-0.2,0.5-0.6,0.4-1,0.3
			c-0.4-0.1-0.1-0.5-0.1-0.7c1.4-4.1,2.8-8.2,4.2-12.3c0.1-0.4,0.2-0.9,0.8-0.9c0.5,0,0.5,0.5,0.6,0.9c1.4,4.1,2.8,8.2,4.2,12.3
			c0.1,0.3,0.4,0.6-0.2,0.7c-0.4,0.1-0.8,0.1-0.9-0.4c-0.3-0.9-0.6-1.7-0.9-2.6c-0.9-2.6-1.8-5.2-2.7-7.9
			C88.6,274.3,88.5,274.1,88.3,273.7z"/>
		<path fill="#FFFFFF" d="M88.6,257.9c0.9-2.7,1.9-5.4,2.8-8c0.3-1,0.7-1.9,1-2.9c0.2-0.5,0.4-0.8,0.9-0.6c0.5,0.2,0.1,0.6,0,0.9
			c-1.4,4-2.8,8.1-4.1,12.1c-0.1,0.4-0.1,0.8-0.6,0.8c-0.5,0-0.5-0.5-0.6-0.9c-1.4-4-2.8-8-4.1-12c-0.1-0.3-0.6-0.7,0-0.9
			c0.6-0.2,0.8,0.2,0.9,0.7c1.2,3.5,2.4,6.9,3.5,10.4c0,0.1,0.1,0.3,0.1,0.4C88.4,257.8,88.5,257.9,88.6,257.9z"/>
		<path d="M133.8,221.8C133.8,221.8,133.8,221.8,133.8,221.8C133.8,221.8,133.7,221.8,133.8,221.8
			C133.8,221.8,133.8,221.8,133.8,221.8L133.8,221.8z"/>
		<path fill="#FFFFFF" d="M190.9,266.4c0,3,0,6,0,9c-0.1,3.5-2.7,7.2-6,8.2c-5.7,1.7-9.7-1.7-11.1-6.7c-0.2-0.6-0.2-1.2-0.2-1.8
			c0-5.9,0-11.8,0-17.7c0-3.7,2.7-7.3,6-8.2c5.6-1.6,11.3,2.5,11.4,8.3C190.9,260.5,190.9,263.4,190.9,266.4
			C190.9,266.4,190.9,266.4,190.9,266.4z M174.8,266.2C174.8,266.2,174.8,266.2,174.8,266.2c0,2.9,0,5.9,0,8.8
			c0.1,3.4,2.5,6.7,5.4,7.4c4.6,1.2,9.3-2.3,9.4-7.3c0.1-5.8,0.1-11.7,0-17.6c-0.1-5-5.1-8.4-9.8-7c-3,0.9-4.9,3.6-5,7.2
			C174.7,260.6,174.8,263.4,174.8,266.2z"/>
		<path fill="#FFFFFF" d="M70.6,265.3c1.6,0,3.1,0,4.7,0c0.4,0,0.8,0,0.8,0.6c0,0.7-0.4,0.6-0.8,0.6c-3.1,0-6.3,0-9.4,0
			c-0.7,0-0.9,0.2-0.9,0.9c0.1,2.6,0,5.2,0.1,7.8c0.1,3.2,2.4,5.9,5.4,6.6c4.4,1,8.6-1.9,9.1-6.4c0-0.2,0.1-0.5,0.1-0.7
			c0-0.6,0.4-0.6,0.8-0.6c0.5,0,0.5,0.3,0.5,0.7c0.1,4.1-3.6,8.1-7.8,8.5c-4.5,0.5-8.7-2.6-9.3-7c-0.5-3.2-0.3-6.5-0.1-9.7
			c0.1-2.6,0.1-5.2,0-7.8c0-1.9,0.1-3.7,1-5.5c1.8-3.6,5.4-5.4,9.3-4.6c3.6,0.7,6.5,4.2,6.8,7.8c0,0.1,0,0.2,0,0.3
			c0,0.4,0.1,0.8-0.5,0.8c-0.6,0-0.6-0.3-0.6-0.7c-0.2-2.8-1.5-4.8-3.8-6.2c-4.5-2.6-10.4,0.5-10.9,5.8c-0.2,2.7-0.1,5.4-0.1,8.2
			c0,0.6,0.3,0.6,0.7,0.6C67.4,265.3,69,265.3,70.6,265.3z"/>
		<path fill="#FFFFFF" d="M71,267.6c1.5,0,2.9,0,4.4,0c0.4,0,0.7,0,0.7,0.6c0,0.6-0.3,0.7-0.8,0.7c-2.5,0-4.9,0-7.4,0
			c-0.7,0-0.9,0.2-0.9,0.9c0.1,1.7,0,3.4,0,5.1c0.1,2.9,1.8,4.9,4.4,5.1c3.2,0.2,5.5-1.5,6-4.5c0-0.2,0.1-0.3,0.1-0.5
			c0-0.6,0.4-0.6,0.8-0.6c0.7,0,0.5,0.5,0.4,0.8c-0.3,3.5-3.2,6-6.8,6c-3.4,0-5.9-2.4-6.2-6.1c-0.2-2.3,0-4.5-0.1-6.8
			c0-0.5,0.3-0.6,0.7-0.6C68.1,267.6,69.6,267.6,71,267.6z"/>
		<path fill="#FFFFFF" d="M71,264.2c-1.4,0-2.9,0-4.3,0c-0.3,0-0.7,0.1-0.7-0.4c0.1-2.8-0.4-5.6,0.3-8.3c0.8-3.1,3.5-4.8,6.8-4.5
			c2.7,0.2,5.3,2.7,5.6,5.5c0,0.1,0,0.3,0,0.4c0,0.4,0.1,0.8-0.5,0.8c-0.6,0-0.5-0.4-0.6-0.7c-0.3-3-2.2-4.8-5.2-4.9
			c-2.7-0.1-5.1,2-5.3,4.9c-0.1,1.9,0,3.8-0.1,5.6c0,0.6,0.3,0.6,0.8,0.6c2.4,0,4.8,0,7.2,0c0.4,0,1.1-0.4,1,0.5
			c0,0.9-0.7,0.5-1.1,0.5C73.7,264.3,72.3,264.2,71,264.2z"/>
		<path fill="#FFFFFF" d="M108.5,266c0-3.2-0.2-6.3,0-9.5c0.3-4.5,4.3-8,8.9-7.9c4.2,0.1,8,3.9,8.2,8.2c0,0.4,0.2,0.9-0.6,1
			c-0.6,0-0.7-0.2-0.8-0.8c-0.1-2.8-1.6-4.9-4-6.2c-4.5-2.6-10.4,0.7-10.7,6c-0.1,3.2,0,6.3-0.1,9.5c0,2.7,0,5.4,0,8.2
			c0.1,3.6,2.2,6.4,5.6,7.3c4.3,1.1,8.7-2,9.1-6.5c0-0.4-0.3-1,0.5-1.1c0.6-0.1,0.8,0.2,0.8,0.8c-0.1,3.6-3.1,7.3-6.7,8.2
			c-5.1,1.2-10.1-2.4-10.4-7.6C108.3,272.3,108.5,269.2,108.5,266z"/>
		<path fill="#FFFFFF" d="M111.8,266c0,2.9-0.1,5.8,0,8.7c0.1,3.9,3.8,6.3,7.4,4.7c1.9-0.8,2.8-2.3,2.9-4.3c0-0.6,0.1-1,0.8-1
			c0.8,0.1,0.5,0.6,0.5,1c-0.3,3.2-3,5.8-6.1,5.9c-3.8,0.2-6.6-2.9-6.8-5.6c-0.1-1.3-0.1-2.6-0.1-4c0-4.4,0-8.9,0-13.3
			c0-2.2,0.5-4.1,2.2-5.6c2-1.8,4.3-2.2,6.7-1.2c2.4,1,3.8,2.9,4.1,5.5c0,0.4,0.2,0.9-0.5,1c-0.7,0.1-0.8-0.3-0.8-0.9
			c-0.2-3-2.3-4.8-5.5-4.8c-2.7,0-4.8,2-4.8,4.8C111.7,260,111.8,263,111.8,266L111.8,266z"/>
		<path fill="#FFFFFF" d="M146.2,267.4c-0.1,2.1,0.4,5.5-0.2,8.9c-0.8,4.8-5.1,8.6-10.9,7.1c-3.2-0.8-6-4.7-6.1-8.3
			c-0.1-5.9-0.1-11.8,0-17.8c0.1-3.9,2.8-7.3,6.1-8.1c5.4-1.4,10.7,2.5,11,8.1C146.3,260.2,146.2,263.2,146.2,267.4z M144.9,266.3
			L144.9,266.3c0-2.9,0-5.9,0-8.8c-0.1-4.1-3.5-7.3-7.8-7.2c-3.9,0-6.8,3.2-6.8,7.4c0,5.6,0,11.3,0,16.9c0,1.7,0.5,3.3,1.5,4.7
			c1.6,2.1,3.6,3.4,6.3,3c4.1-0.6,6.7-3.6,6.7-7.7C144.9,271.8,144.9,269,144.9,266.3z"/>
		<path fill="#FFFFFF" d="M188.7,266.3c0,2.9,0,5.7,0,8.6c-0.1,3.2-2.2,5.9-5.1,6.6c-3.6,0.9-7.1-1.4-7.8-5.1
			c-0.1-0.6-0.2-1.2-0.2-1.9c0-5.4,0-10.9,0-16.3c0-1.8,0.4-3.4,1.5-4.8c1.8-2.2,4.4-2.9,7.3-1.9c2.6,0.9,4.2,3.1,4.3,6
			c0,0.1,0,0.1,0,0.2C188.7,260.6,188.7,263.5,188.7,266.3L188.7,266.3z M187.5,266.4C187.5,266.4,187.5,266.4,187.5,266.4
			c0-3,0-5.9,0-8.9c-0.1-2.9-1.9-4.7-4.9-5.1c-2.7-0.3-4.8,1-5.4,3.5c-0.2,0.7-0.2,1.4-0.2,2.2c0,5.4,0,10.8,0,16.2
			c0,0.8,0.1,1.7,0.4,2.5c0.8,2.2,3.1,3.9,5.1,3.7c3.6-0.4,5.2-2.2,5.2-5.9C187.5,271.8,187.5,269.1,187.5,266.4z"/>
		<path fill="#FFFFFF" d="M131.2,266.1c0-2.6,0-5.3,0-7.9c0-1.2,0.2-2.4,0.7-3.4c1.3-2.7,3.8-3.9,6.7-3.4c3,0.5,5,2.4,5.4,5.4
			c0.1,0.4,0.1,0.8,0.1,1.1c0,5.5,0,11.1,0,16.6c0,2.9-1.3,5.1-4,6.3c-3.9,1.9-8.4-0.7-8.8-5.2c-0.2-1.6-0.1-3.2-0.1-4.8
			C131.1,269.2,131.2,267.7,131.2,266.1z M132.4,266.1L132.4,266.1c0,2.9,0,5.8,0,8.8c0.1,2.8,2.3,5.2,4.9,5.3c3.2,0,5.4-1.8,5.5-5
			c0.1-6,0.1-11.9,0-17.9c-0.1-3-2.4-4.9-5.7-4.8c-2.9,0.1-4.7,1.9-4.7,5C132.3,260.3,132.4,263.2,132.4,266.1z"/>
	</g>
</g>
<rect x="17" y="316.2" fill="#CCCCCC" width="17" height="38"/>
<rect x="187" y="316.2" fill="#CCCCCC" width="17" height="38"/>
<g>
	<polygon fill="#FFF200" points="199.6,173.1 190.3,148.5 177,150.8 192.2,192.4 194.8,179.3 	"/>
	<polygon fill="#A97C50" points="190.3,148.5 186.5,137.2 197.3,110.3 191,106.3 175.9,138 178.3,150.8 	"/>
	<polygon fill="#006838" points="190.3,148.5 191.2,150.8 178.2,154.1 175.9,150 189.8,146.9 	"/>
	<path fill="#A97C50" d="M239,103c-4.8-16.2-11.5-13.5-13.4-11.7c-2,1.7,3.5,9.3,3.5,9.3s-2-3.3-3.5-2c-1.5,1.4,0.7,5.4,0.7,5.4
		s3,6.9,7.8,5.2C238.9,107.3,239,103,239,103z"/>
	<polygon fill="#FFF200" points="229.7,172.2 239,147.5 252.3,149.9 237.1,191.5 234.5,178.4 	"/>
	<polygon fill="#A97C50" points="239,147.5 242.8,136.3 232,109.3 238.3,105.4 253.4,137.1 251,149.9 	"/>
	<polygon fill="#006838" points="239,147.5 238.1,149.9 251.1,153.2 253.4,149 239.5,146 	"/>
	<path fill="#F9BD91" d="M226.4,134.7v29.5H222v9.7c0,0-5,9.9-17.4,0v-20.2c0,0-3.7-0.7-3.7-5s4.3-2.2,4.3-2.2v-11.8H226.4z"/>
	<polygon fill="#8B5E3C" points="200.5,346.9 199.2,352.7 194.2,352.7 194.2,346.9 	"/>
	<path fill="#231F20" d="M194.2,352.7h5c0,0,2,6.4-4.6,6.7h-8.5c0,0-1.9-4,3.2-4.3C189.3,355.1,193.7,354.3,194.2,352.7z"/>
	<polygon fill="#8B5E3C" points="223.1,346.9 224.3,352.7 229.4,352.7 229.4,346.9 	"/>
	<path fill="#231F20" d="M229.4,352.7h-5c0,0-2,6.4,4.6,6.7h8.5c0,0,1.9-4-3.2-4.3C234.2,355.1,229.8,354.3,229.4,352.7z"/>
	<path fill="#E6E7E8" d="M211,155.5h14.8c0,0-2.6-4.6-7.4-4.6S211,155.5,211,155.5z"/>
	<path fill="#E6E7E8" d="M211,155.5l-0.7,0.8c0,0,6.5,1.1,8.5-0.8c0,0,5,1,7.4,0.8l-0.6-1C225.6,155.2,215.5,154.3,211,155.5z"/>
	<polygon fill="#A97C50" points="195.6,244.4 193.6,346.9 200.9,346.9 215.2,262.9 223.1,346.9 230.1,346.9 232.8,243.9 	"/>
	<path fill="#FFF200" d="M185.9,174.7c0,0,18.3-10.3,55.1,0l-6.9,69.3c0,0-15.1,1.1-39.8-0.2L185.9,174.7z"/>
	<polygon fill="#8B5E3C" points="200.5,346.9 199.2,352.7 194.2,352.7 194.2,346.9 	"/>
	<path fill="#231F20" d="M194.2,352.7h5c0,0,2,6.4-4.6,6.7h-8.5c0,0-1.9-4,3.2-4.3C189.3,355.1,193.7,354.3,194.2,352.7z"/>
	<polygon fill="#8B5E3C" points="223.1,346.9 224.3,352.7 229.4,352.7 229.4,346.9 	"/>
	<path fill="#231F20" d="M229.4,352.7h-5c0,0-2,6.4,4.6,6.7h8.5c0,0,1.9-4-3.2-4.3C234.2,355.1,229.8,354.3,229.4,352.7z"/>
	<polygon fill="#2B3990" points="193.6,244 190.2,287.4 213.2,287.4 214.6,270.5 216.1,287.4 234.3,287.4 234.1,244 	"/>
	<polygon fill="#E6E7E8" points="193.6,320.9 205.3,320.9 199.5,354 193.6,354 	"/>
	<polygon fill="#E6E7E8" points="230.8,321.7 220.3,321.7 223.5,353.3 230.1,353.3 	"/>
	<path fill="#006838" d="M204.2,175.8l9.5,15.7l9.3-15.7h10.5c0,0-2.8-7.3-13-8.2c-10.2-0.9-21.3-1.3-25,8.1L204.2,175.8z"/>
	<path fill="#A97C50" d="M226.4,134.7v29.5H222v9.7c0,0-5,9.9-17.4,0v-20.2c0,0-3.7-0.7-3.7-5s4.3-2.2,4.3-2.2v-11.8H226.4z"/>
	<path fill="#231F20" d="M205.1,146.5v1.7h1.7h0.6v-5.6c0,0,3.4-0.9,3.5-2.8s0-3.5,0-3.5h14.8l0.7,2.3c0,0,2.8-7.3,0.9-9.2
		c-1.9-1.9-24.3,0.7-27.1,8.4c0,0-0.5,10.2,0.8,12c0,0-0.9-3.7,1.7-3.8C205.1,145.9,205.1,146.5,205.1,146.5z"/>
	<path fill="#A97C50" d="M204.6,174l9.1,15.7L222,174C222,174,214.4,164.4,204.6,174z"/>
	<g>
		<path fill="#006838" d="M207.6,196.2h-0.9V196l2.3-1.8h0.4v10.4v0c0,0.1,0,0.3,0.1,0.5c0,0.2,0.1,0.4,0.1,0.6c0,0,0,0.1,0.1,0.1
			s0,0.1,0.1,0.1c0,0,0,0,0,0.1h-2.5c0-0.1,0.1-0.1,0.1-0.3c0-0.1,0.1-0.2,0.1-0.3c0.1-0.2,0.1-0.3,0.1-0.5s0-0.3,0-0.4V196.2z"/>
		<path fill="#006838" d="M222.2,199.8c0,0.1,0,0.1,0,0.2c0,0,0,0.1,0,0.2c0,1-0.2,2-0.7,2.9c-0.5,0.9-1.2,1.6-2.1,2.2
			c-0.9,0.5-1.8,0.8-2.9,0.9c-0.8,0-1.6-0.2-2.3-0.5c-0.7-0.3-1.3-0.8-1.9-1.4c-0.5-0.6-1-1.3-1.2-2c-0.3-0.8-0.4-1.5-0.4-2.4
			c0-0.8,0.2-1.5,0.5-2.2c0.3-0.7,0.7-1.3,1.2-1.8s1.1-0.9,1.7-1.2s1.4-0.5,2.1-0.5c0.1,0,0.2,0,0.4,0c0.8,0,1.6,0.1,2.2,0.4
			c0.7,0.3,1.3,0.7,1.7,1.2c0.5,0.5,0.9,1.1,1.1,1.8C222,198.3,222.2,199,222.2,199.8z M212.4,200c0,0.8,0.2,1.6,0.7,2.4
			s1,1.3,1.7,1.8c0.7,0.4,1.5,0.7,2.3,0.7c0.5,0,1-0.2,1.4-0.4c0.4-0.3,0.8-0.6,1-1c0.3-0.4,0.5-0.9,0.6-1.4s0.2-1,0.2-1.6
			c0-0.3,0-0.6-0.1-0.9c-0.1-0.6-0.3-1.1-0.5-1.7c-0.3-0.5-0.6-1-1-1.3s-0.8-0.7-1.3-0.9c-0.5-0.2-1-0.3-1.4-0.3
			c-0.3,0-0.5,0-0.8,0.1c-0.6,0.1-1.1,0.4-1.6,0.9c-0.4,0.4-0.7,1-1,1.6C212.5,198.6,212.4,199.3,212.4,200z"/>
	</g>
	<path fill="#A97C50" d="M188.1,103.9c4.8-16.2,11.5-13.5,13.4-11.7s-3.5,9.3-3.5,9.3s2-3.3,3.5-2c1.5,1.4-0.7,5.4-0.7,5.4
		s-3,6.9-7.8,5.2C188.2,108.3,188.1,103.9,188.1,103.9z"/>
	<g>
		<polygon fill="#000407" points="197.4,111.3 202.7,114.7 222.5,114.7 227.6,112.3 227.6,79.5 226.4,78.2 226.2,77 217.2,74.1 
			201.3,76.6 201.2,77.3 199.6,77.9 197.7,84.3 		"/>
		<path fill="#BF8732" d="M204,77.7c0,0,11.3,7.6,19.3,0C223.2,77.7,213.6,59.4,204,77.7z"/>
		<ellipse fill="#BF8732" cx="215.2" cy="10.6" rx="17.2" ry="4.9"/>
		<ellipse fill="#1E120D" cx="215.2" cy="11.4" rx="17.2" ry="4.9"/>
		<path fill="#A35A2F" d="M200.1,18.5l-1.9-13.3c0,0-6.1,9.9-3,25.9s15,22.9,15,22.9h4.1V26.1c0,0-11.1-3.6-11.8-3.9
			C201.9,22,200.1,18.5,200.1,18.5z"/>
		<path fill="#A35A2F" d="M228.8,19l1.9-13.3c0,0,6.1,9.9,3,25.9c-3.1,16-15,22.9-15,22.9h-4.1V26.7c0,0,11.1-3.6,11.8-3.9
			C227,22.5,228.8,19,228.8,19z"/>
		<path fill="#AE7040" d="M219.8,33.1l0.5-4.4l6.3-4.6l0.6-6.3l-4.9,5.5l-14.8,0.1l-7-5.7l0.9,6.7l6.7,3.6l1.2,5.6
			C209.5,33.7,213.8,39.9,219.8,33.1z"/>
		<polygon fill="#D1A039" points="207.2,51 210.3,74.1 216.7,74.1 219.8,52.5 218.6,42.6 213.5,41.2 208.7,42.7 		"/>
		<polygon fill="#BF8732" points="208.7,42.7 213.5,41.2 218.6,42.6 220.4,39.4 218.4,33.1 217.3,33.1 214.1,36.6 211.3,33.4 
			210.2,33.4 207.7,38.8 		"/>
		<polygon fill="#E4C9B1" points="210.9,42 212.4,68.7 213.5,41.2 		"/>
		<polyline fill="#D1A039" points="211.7,34.6 211.7,33.8 212.6,32 215.9,32 216.6,33.8 214.1,36.6 211.7,34.3 		"/>
		<polygon fill="#D1A039" points="218.6,33.6 226.1,30.4 227.6,15.6 229.6,17.6 228.2,22.1 228.9,32 219.8,37.7 		"/>
		<polygon fill="#D1A039" points="209.9,34 202.4,29.9 200.4,14.9 198.8,18.8 200,21.8 198.8,31.5 208.1,37.9 		"/>
		<polygon fill="#D9B269" points="210.3,74.1 210.9,76.6 216.1,76.6 216.1,74.1 		"/>
		<polygon fill="#D39C37" points="211.7,25.9 211.7,28.9 212.6,32 215.9,32 216.6,29 216.6,25.9 		"/>
		<polygon fill="#A35A2F" points="208.2,14.3 218.6,14.3 218,23.4 209.9,23.4 		"/>
		<polygon fill="#D9B269" points="218,23.4 222.5,23.3 227.3,17.8 227.9,12.6 218.6,14.3 		"/>
		<polygon fill="#D9B269" points="200.7,17.8 207.7,23.5 209.9,23.4 208.2,14.3 200.2,11.4 		"/>
		<path fill="#BF8732" d="M227.6,15.6c0.3,0.3,1.5,1.5,1.5,1.5l1.1-7.6l-2.2,3.2L227.6,15.6z"/>
		<polygon fill="#BF8732" points="199.8,16.3 200.7,17.8 200.2,11.4 198.8,9.4 		"/>
		<rect x="207.2" y="89.8" fill="#E2AA4C" width="9.8" height="18.7"/>
		<polygon fill="#E2AA4C" points="219.8,89.2 219.8,107.9 227.2,104.9 227.2,86.4 		"/>
		<polygon fill="#E2AA4C" points="204.7,89.8 198.7,86.1 198.7,103.4 204.7,107.2 		"/>
	</g>
</g>
</svg>
