<?xml version="1.0" encoding="utf-8"?>
<!-- Generator: Adobe Illustrator 18.0.0, SVG Export Plug-In . SVG Version: 6.00 Build 0)  -->
<!DOCTYPE svg PUBLIC "-//W3C//DTD SVG 1.1//EN" "http://www.w3.org/Graphics/SVG/1.1/DTD/svg11.dtd">
<svg version="1.1" id="Layer_1" xmlns="http://www.w3.org/2000/svg" xmlns:xlink="http://www.w3.org/1999/xlink" x="0px" y="0px"
	 viewBox="0 0 172 347.8" enable-background="new 0 0 172 347.8" xml:space="preserve">
<rect x="57.1" y="237.1" fill="#0E1215" width="42.9" height="9.1"/>
<polygon fill="#0E1215" points="101.1,186.7 97.6,195 60.5,152.4 64,144.2 "/>
<polygon fill="#0E1215" points="77.7,157.7 74.2,166 56.2,145.2 59.7,136.9 "/>
<polygon fill="#0E1215" points="79.4,157.7 82.9,166 101,145.2 97.4,136.9 "/>
<polygon fill="#0E1215" points="60.5,186.7 64,195 101.1,152.4 97.6,144.2 "/>
<polygon fill="#0E1215" points="59.1,233.1 62.6,240.6 101.6,200.2 98.1,192.8 "/>
<polygon fill="#0E1215" points="59.1,286.3 62.6,293.8 101.6,253.5 98.1,246 "/>
<polygon fill="#0E1215" points="59.1,333.1 62.6,340.6 101.6,300.2 98.1,292.8 "/>
<polygon fill="#0E1215" points="100.6,230.4 97.1,237.9 60,199.6 63.6,192.1 "/>
<polygon fill="#0E1215" points="100.6,282.1 97.1,289.5 60,251.2 63.6,243.7 "/>
<polygon fill="#0E1215" points="100.6,332.7 97.1,340.2 60,301.8 63.6,294.4 "/>
<rect x="57.1" y="289.4" fill="#0E1215" width="42.9" height="9.1"/>
<rect x="57.1" y="334.8" fill="#0E1215" width="42.9" height="9.1"/>
<rect x="57.1" y="191.2" fill="#0E1215" width="42.9" height="10.1"/>
<rect x="61.1" y="238.3" fill="#0E1215" width="41.3" height="11.3"/>
<rect x="59.3" y="293.9" fill="#0E1215" width="42.9" height="9.1"/>
<rect x="62.7" y="190.4" fill="#0E1215" width="39.5" height="10.9"/>
<rect x="75.7" y="140" fill="#0E1215" width="6.1" height="21.7"/>
<rect x="56.6" y="140" fill="#0E1215" width="6.1" height="207.8"/>
<rect x="97.6" y="140" fill="#0E1215" width="6.1" height="207.8"/>
<g>
	<polygon fill="#050505" points="9.1,16 -0.5,0 171.5,0 158.7,16 	"/>
	<rect x="15.5" y="15.5" fill="#171717" width="140" height="169.3"/>
	<polygon fill="#050505" points="162.4,184.9 172,200.9 0,200.9 12.8,184.9 	"/>
	<polygon fill="#282828" points="15.5,184.8 0,200.9 -0.5,0.9 15.5,15.5 	"/>
	<polygon fill="#282828" points="155.5,184.3 171,200.4 171.5,0.5 155.5,15 	"/>
	<polygon fill="#FFFFFF" points="57.4,87 62.2,78.4 67,69.4 61.2,73.3 57.9,69.4 57.4,66.4 51.2,65.3 54,61.5 48.9,62.4 45.7,61.5 
		46.4,48.9 37.4,47.9 37.4,39.3 42.9,30.2 55.1,27.6 67,37 68.3,45.6 65.8,43.9 68.3,51.5 70.1,45.7 72.4,46.1 73.5,50.7 72.6,57.3 
		69,60.3 68.3,72.4 69,75.5 62.4,83 62.4,86.3 	"/>
	<polygon fill="#FFFFFF" points="46.3,77.1 50.4,80 58.8,78.5 58.8,75.2 	"/>
	<polygon fill="#FFFFFF" points="46.3,72.1 55.4,72.1 54.2,73.3 58.8,73.3 57.9,69.4 49.1,70.3 	"/>
	<polygon fill="#171717" points="48.2,47.4 51.7,53.9 54.8,54.6 61.8,51.8 56.8,49.1 62.4,51 64.1,49.4 55.4,46.1 	"/>
	<path fill="#171717" d="M52.5,58l6.3,7.9C58.8,65.9,57.6,59.8,52.5,58z"/>
	<polygon fill="#FFFFFF" points="50.3,65.9 48.2,68.1 50.3,68.6 52.5,67.7 57.9,69.4 54.9,66.9 	"/>
	<polygon fill="#FFFFFF" points="42.6,74.1 43.6,72.4 42.6,68.9 44.8,67.6 44.8,65.2 42.6,64.2 44.8,61.9 44.8,54.6 38.9,55.8 
		41.8,57.3 37.4,58 41.1,66.6 39,69.4 	"/>
	<polygon fill="#FFFFFF" points="54,87.6 41.1,77.6 43.1,82.6 46.7,82.6 49.3,88.2 	"/>
	<polygon fill="#171717" points="69.5,51.7 70.9,46.8 72.6,50.3 	"/>
	<polygon fill="#171717" points="68.7,59.1 68.7,54.6 69.5,56.8 71.7,56.8 	"/>
	<polygon fill="#FFFFFF" points="44,95.7 55.4,173.3 65.5,95.7 62.7,94.7 62.9,92.4 	"/>
	<polygon fill="#FFFFFF" points="74.6,108.9 77.5,111.2 74.6,121.7 	"/>
	<polygon fill="#B4251B" points="73.5,106 80.1,110.4 82,107.5 82,99.5 76,98.6 	"/>
	<g id="MOHb2e.tif">
		<g>
			<path fill="#FFFFFF" d="M120.7,31.2c0.2,1.9,0.3,3.9,0.5,5.8c0,0.2-0.2,0.5-0.3,0.6c-1.4,1.6-2.8,3.3-4.3,4.8
				c-1,1.1-1.7,2.2-1.9,3.7c-0.1,0.8-0.3,1.6-0.4,2.4c-0.1,0.9-0.1,1,0.8,1.5c0.6-1.8,1.1-3.6,1.7-5.4c0.2,0,0.4,0.1,0.5,0.1
				c-0.4,1.5-0.8,2.9-1.2,4.3c-0.2,0.9-0.2,1.1,0.2,1.6c0.1-0.2,0.2-0.4,0.3-0.5c1-1.5,2-2.9,3-4.4c0.2-0.3,0.4-0.5,0.8-0.2
				c-0.1,0.2-0.2,0.4-0.3,0.6c-0.8,1.3-1.6,2.6-2.4,3.9c-0.1,0.2-0.3,0.5-0.3,0.8c0,0.2,0.1,0.4,0.3,0.6c0.1,0.1,0.4,0,0.5-0.1
				c1.7-1.5,3.6-2.7,4.6-4.8c0.1-0.1,0.2-0.2,0.3-0.2c0,0.2,0.1,0.3,0.1,0.5c-0.2,1.4-0.5,2.7-0.7,4.1c-0.2,1,0,1.8,0.8,2.5
				c0.3,0.3,0.7,0.7,1,1.1c0.3,0.4,0.6,0.4,1,0.2c0.7-0.3,1.4-0.6,2-1.1c0.8-0.7,1.4-1.5,2.2-2.3c-1.1-0.2-1.9-0.3-2.8-0.5
				c0-1,0-2.1,0-3.1c0-0.1,0.1-0.2,0.2-0.3c0.6-0.2,1.1-0.5,1.8-0.4c1.7,0.3,3.3,0.5,5.1,0.8c0.2-1.7,0-3.3-0.5-4.8
				c-0.4-1-0.8-2-1.6-2.7c-1.3-1.4-1.9-3-1.9-4.9c0-1.4,0-2.7,0-4.1c0.6,0,1.1,0,1.7,0c0,1.8,0,3.7,0.1,5.5c0,0.6,0.3,1.2,0.5,1.9
				c0.5-0.5,0.9-0.9,1.4-1.2c0.1-0.1,0.3-0.2,0.5-0.2c1.2,0.4,2.3,0.7,3.2,1.1c-0.9,1-1.7,2-2.7,3c-0.3,0.3-0.5,0.6-0.4,1.1
				c0.3,1.7,0.6,3.5,0.9,5.2c0.1,0.3,0.2,0.5,0.5,0.5c2,0.3,4,0.6,5.9,0.9c0.1,0,0.3,0.1,0.5,0.1c-0.8,1.2-1.5,2.3-2.2,3.4
				c-0.1,0.1-0.3,0.1-0.5,0.1c-1.3-0.2-2.6-0.4-4-0.6c-0.4-0.1-0.7,0-1,0.3c-1.7,1.3-3.4,2.5-5.2,3.7c-1,0.7-1.2,0.6-1.8-0.4
				c-0.1-0.1-0.1-0.2-0.2-0.3c-0.5,0.2-1,0.4-1.5,0.4c-0.3,0-0.7,0-0.9-0.2c-1.1-0.7-2.1-1.6-3.2-2.4c-0.1,0.1-0.3,0.2-0.4,0.4
				c-1.5,1.4-3.1,2.8-4.6,4.2c-0.3,0.3-0.6,0.4-1,0.3c-1.2-0.3-2.4-0.5-3.7-0.8c1.9-1.7,3.7-3.3,5.5-5c-1-0.5-1.9-1-2.8-1.5
				c-0.5-0.3-1-0.6-1.1-1.3c-0.1-0.5-0.3-0.6-0.7-0.6c-1.9-0.2-3.8-0.5-5.7-0.8c-0.1,0-0.2,0-0.4-0.1c0.8-1,1.6-1.9,2.4-2.9
				c0.1-0.1,0.4-0.1,0.5-0.1c1,0.1,1.9,0.2,2.9,0.4c0.3,0,0.6,0,0.9,0c0.1-0.3,0.2-0.7,0.2-1c0.2-0.8,0.6-1.4,1.3-1.9
				c0.7-0.6,1.5-1.1,2.2-1.7c1-0.8,1.8-1.8,2.5-2.9c0.6-1,0.8-1.9,0.5-3.1c-0.3-1.2-0.4-2.4-0.6-3.5
				C119.9,31.2,120.3,31.2,120.7,31.2z M128.4,53.5c0,0,0.1,0.1,0.1,0.1c0.9-0.3,1.7-0.6,2.6,0.3c0.7-0.7,1.4-1.5,2.2-2.3
				c-1.1-0.2-2.1-0.3-3-0.5c-0.2,0-0.4,0.1-0.5,0.2C129.3,52.1,128.9,52.8,128.4,53.5z M130.2,54.6c-0.4-0.6-1.2-0.7-1.8-0.3
				c-0.3,0.2-0.3,0.8,0.1,1.4C129.1,55.3,129.6,54.9,130.2,54.6z"/>
			<path fill="#FFFFFF" d="M76,39.3c3.1,0,6.3,0,9.4,0c0.7,0,1.5,0,2.3,0c0,2.3,0,4.4,0,6.7c0.7,0,1.3,0,1.9,0
				c1.6,0,2.3,0.7,2.3,2.3c0,3,0,5.9,0,8.9c0,0.8,0,1.5,0.6,2.2c-1.3,0-2.5,0-3.7,0c0-0.2,0-0.5,0-0.7c0-3.2,0-6.3,0-9.5
				c0-0.6-0.3-0.8-0.9-0.6c-0.1,0-0.2,0.3-0.2,0.4c0,1,0,2,0,3c0,1.7,0,3.4,0,5.2c0,0.7-0.1,1.5,0.6,2.2c-1.3,0-2.5,0-3.7,0
				c0-0.2,0-0.5,0-0.7c0-5,0-9.9,0-14.9c0-1.5-0.4-1.8-1.8-1.8c-0.2,0-0.3,0-0.5,0c0,0.3,0,0.5,0,0.7c0,4.9,0,9.7,0,14.6
				c0,0.8,0,1.5,0.9,2.1c-1.7,0-3.3,0-4.9,0c0.2-0.2,0.5-0.4,0.7-0.7c0.2-0.3,0.3-0.6,0.3-0.9c0-5.2,0-10.3,0-15.5
				c0-0.1,0-0.1,0-0.2c-1.4-0.3-2.5,0-3,1.5c0,0.1-0.1,0.1-0.1,0.2C76,42.2,76,40.7,76,39.3z"/>
			<path fill="#FFFFFF" d="M76,62.3c0-0.1,0.1-0.1,0.1-0.2c0.4-1.4,1.2-2,2.6-2.1c0.8,0,1.6,0,2.5,0c3.4,0,6.8,0,10.1,0
				c0.2,0,0.4,0,0.8,0c-0.8,0.8-1.5,1.5-2,2.3c-0.6,0.8-1.3,1.1-2.3,1c-2.4-0.1-4.7,0-7.1,0c-0.8,0-1,0.2-1,1c0,4,0,8.1,0,12.1
				c0,0.5,0.1,0.7,0.7,0.7c1.3,0,1.1,0.1,1.1-1.1c0-2.4,0-4.9,0-7.3c0-0.8-0.2-1.4-0.8-1.9c0.9,0,1.9,0,2.8,0c1.2,0,1.2,0,1.2,1.2
				c0,4.2,0,8.4,0,12.5c0,0.2,0,0.5,0,0.7c0,0-0.1,0-0.1,0c-0.3-0.7-0.8-1-1.6-1c-1.1,0-2.2,0-3.3,0c-1.6,0-2.9-0.5-3.6-2
				C76,72.9,76,67.6,76,62.3z"/>
			<path fill="#FFFFFF" d="M119.1,67.9c-0.1,0.2-0.2,0.4-0.2,0.6c-0.1,0.5-0.3,0.9-0.9,0.7c-0.1,0-0.3,0.3-0.3,0.4c0,1,0,2,0,3
				c0,1.4,0,2.9,0,4.3c0,1.1-0.2,2.2,0.9,3.1c-1.4,0-2.7,0-4,0c0-0.2,0-0.4,0-0.6c0-5.6,0-11.2,0-16.8c0-0.3,0.2-0.6,0.3-0.8
				c0.1-0.2,0.2-0.4,0.2-0.6c0-1,0-1.9,0-2.9c0.4-0.1,0.5,0.1,0.5,0.4c0,0.8,0,1.6,0,2.5c0.7-0.6,1.4-1.2,2.1-1.8c0,0.3,0,0.5,0,0.7
				c0,1.9,0,3.9,0,5.8c0,0.5,0.1,0.7,0.6,0.6c0.3,0,0.6,0,1,0c0-0.2,0-0.4,0-0.6c0-1.1,0-2.2,0-3.3c0-0.4,0.1-0.6,0.4-0.9
				c0.6-0.5,1.5-1,1.8-1.6c0.3-0.7,0.1-1.6,0.1-2.5c0-1.1,0-2.3,0-3.4c0-0.2,0-0.4,0-0.5c0.1,0,0.1,0,0.2-0.1
				c0.1,0.3,0.3,0.5,0.3,0.8c0,1.7,0,3.4,0.1,5.1c0.1,0.2,0.2,0.4,0.2,0.6c0,2,0,3.9,0,5.9c0,0.4,0.1,0.6,0.6,0.6c0.4,0,0.7,0,1.1,0
				c1.7,0,2.5,0.8,2.5,2.5c0,2.7,0,5.5,0,8.2c0,1.9-0.2,1.4,0.9,2.8c-1.3,0-2.6,0-4,0c0-0.2,0-0.4,0-0.7c0-3.2,0-6.4,0-9.6
				c0-0.5-0.2-0.8-0.7-0.6c-0.2,0-0.4,0.3-0.4,0.4c0,3,0,5.9,0,8.9c0,0.5,0.4,1.1,0.6,1.6c-1.2,0-2.5,0-3.8,0c0-4.1,0-8.2,0-12.3
				C119.2,67.9,119.2,67.9,119.1,67.9z"/>
			<path fill="#FFFFFF" d="M96.8,62.6c1.3-1.1,2.6-2.2,4-3.4c0,0.4,0,0.6,0,0.8c0,5.9,0,11.9,0,17.8c0,0.8,0,1.7,0.7,2.4
				c-0.5,0-1-0.1-1.5,0c-1.1,0.1-1.8-0.2-2-1.5c-0.3,0.5-0.5,0.8-0.8,1.1c-0.2,0.2-0.4,0.3-0.6,0.4c-0.2,0.1-0.3,0-0.5,0
				c-1.3,0-2.1-0.7-2.2-2c0-0.3,0-0.6,0-1c0-2.7,0-5.5,0-8.2c0-1.7,0.7-2.4,2.4-2.4c0.5,0,1.2,0.1,1.5-0.2c0.3-0.2,0.1-1,0.1-1.5
				c0-0.4,0-0.8,0-1.1C97.8,63.1,97.7,62.9,96.8,62.6z M96.8,73.4c0,1.2,0,2.4,0,3.7c0,0.4,0,0.6,0.5,0.6c0.4,0,0.5-0.1,0.5-0.6
				c0-2.4,0-4.9,0-7.3c0-0.4-0.1-0.6-0.5-0.6c-0.5,0-0.5,0.2-0.5,0.6C96.8,71,96.8,72.2,96.8,73.4z"/>
			<path fill="#FFFFFF" d="M106.1,62.5c-0.2,0-0.4,0-0.5-0.1c-0.4-0.1-0.6,0.1-0.6,0.6c0,1.2,0,2.4,0,3.7c0.8,0,1.5,0,2.4,0
				c-0.4,0.9-0.6,1.6-1,2.4c-0.1,0.1-0.3,0.2-0.4,0.2c-0.3,0-0.6,0-1,0c0,0.3,0,0.5,0,0.7c0,2.4,0,4.9,0,7.3c0,1-0.2,2,0.7,2.9
				c-1.3,0-2.5,0-3.7,0c0-0.5,0-1,0-1.5c0-5.5,0-11,0-16.5c0-1.7,0.6-2.3,2.3-2.3c0.9,0,1.9,0,2.9,0c0-0.3,0-0.5,0-0.7
				c0-3.3,0-6.5,0-9.8c0-0.2,0-0.3,0-0.5c0-0.1,0.1-0.2,0.2-0.3c0.1,0.1,0.2,0.1,0.2,0.2c0,0.1,0,0.3,0,0.5c0,3.3,0,6.6,0,9.9
				c0,0.4,0,0.7,0.5,0.8c0.6,0.2,0.8,0.7,0.9,1.2c0.1,0.5,0,1,0,1.5c0,0.1-0.1,0.2-0.1,0.3c-0.9,0.8-1.8,1.7-2.8,2.6
				C106.1,64.6,106.1,63.5,106.1,62.5z"/>
			<path fill="#FFFFFF" d="M129.1,66.7c1.6,0,3.1,0,4.6,0c1,0,1.2,0.2,1.2,1.2c0,1,0,1.9,0,2.9c0,0.7-0.2,1.3-0.7,1.7
				c-1.1,1.1-2.1,2.2-3.2,3.2c-0.5,0.4-0.3,0.9-0.3,1.4c0,0.1,0.3,0.3,0.4,0.3c0.7,0,1.4,0,2.1,0c0.8,0,1.3-0.5,1.6-1.4
				c0,0.3,0.1,0.4,0.1,0.5c0,0.9,0,1.8,0,2.7c0,0.5-0.2,0.8-0.7,0.9c-0.2,0-0.5,0.1-0.7,0.1c-1.5,0-2.9,0-4.4,0
				c-1.1,0-1.7-0.7-1.7-1.7c0-3.3,0-6.6,0-9.9c0-0.7,0.2-1.3,0.8-1.7c0.1-0.1,0.2-0.4,0.2-0.6c0-3,0-6,0-9c0-0.3,0-0.6,0.5-0.7
				C129.1,60,129.1,63.4,129.1,66.7z M130.8,72.7c0.7-0.4,1-0.9,1-1.6c0-0.5,0-1,0-1.5c0-0.3-0.1-0.5-0.5-0.5
				c-0.3,0-0.5,0.1-0.5,0.5C130.8,70.6,130.8,71.6,130.8,72.7z"/>
			<path fill="#FFFFFF" d="M85.7,73.5c0-1.6,0-3.2,0-4.8c0-1.3,0.7-2,1.9-2c1.1,0,2.3,0,3.4,0c1.2,0,1.9,0.8,1.9,2
				c0,3.1,0,6.3,0,9.4c0,1.2-0.6,1.9-1.8,2c-1.3,0.1-2.5,0.1-3.8,0c-1.1-0.1-1.6-0.8-1.7-1.9C85.6,76.7,85.7,75.1,85.7,73.5z
				 M88.7,73.4c0,1.3,0,2.5,0,3.8c0,0.4,0.2,0.5,0.5,0.5c0.4,0,0.5-0.1,0.5-0.5c0-2.5,0-4.9,0-7.4c0-0.4-0.2-0.5-0.5-0.5
				c-0.4,0-0.5,0.2-0.5,0.5C88.7,71,88.7,72.2,88.7,73.4z"/>
			<path fill="#FFFFFF" d="M100.2,55.3c0,1.2,0,2.2,0,3.3c0,0.5-0.4,0.7-0.8,0.7c-1.8,0-3.5,0.1-5.3,0c-0.7,0-1.3-0.8-1.3-1.7
				c0-1.8,0-3.5,0-5.3c0-1.4,0-2.9,0-4.3c0-1.3,0.7-2,2-2.1c1.4,0,2.9,0,4.4,0c0.7,0,1,0.3,1,1c0,1.1,0,2.2,0,3.3
				c0,0.6-0.3,1.1-0.7,1.6c-1.1,1.1-2.1,2.2-3.2,3.2c-0.4,0.4-0.3,0.9-0.2,1.4c0,0.1,0.3,0.2,0.5,0.2c0.7,0,1.3,0,2,0
				C99.2,56.6,99.4,56.4,100.2,55.3z M96,51.7c1-0.7,1.5-1.9,1.1-2.9c-0.1-0.1-0.5-0.2-0.7-0.2c-0.1,0-0.3,0.2-0.4,0.4
				C96,49.8,96,50.7,96,51.7z"/>
			<path fill="#FFFFFF" d="M136.2,52.8c0.5-0.1,0.4,0.2,0.4,0.5c0,1.2,0,2.3,0,3.5c0,3.1,0,6.2,0,9.3c0,0.2,0,0.4,0,0.7
				c0.9,0,1.7,0,2.6,0c0,0.3,0,0.6,0,0.8c0.6-0.2,1.2-0.9,1.2-1.5c0-4.3,0-8.5,0-12.8c0-0.4,0.2-0.8,0.3-1.2c0.1,0,0.1,0,0.2,0
				c0,4.8,0,9.7,0,14.6c0.5,0,0.9,0,1.4,0c0.6,0,0.8,0.2,0.8,0.8c0,0.9,0,1.9,0,2.8c0,0.1,0,0.3-0.1,0.4c-0.9,0.9-1.8,1.7-2.7,2.6
				c0-1.1,0-2.3,0-3.4c-0.6,0.1-1,0.6-1,1.1c0,2.5,0,5,0,7.6c0,0.6,0.3,1.1,0.5,1.7c-1.2,0-2.5,0-3.9,0
				C136,71.1,136.1,62,136.2,52.8z"/>
			<path fill="#FFFFFF" d="M106.6,70.2c0.4-0.9,0.7-1.8,1.1-2.6c0.3-0.5,0.8-0.8,1.4-0.8c0.9,0,1.9-0.1,2.8,0c0.9,0,1.5,0.9,1.5,1.9
				c0,1.8,0,3.6,0,5.4c0,1,0,1.9,0,2.9c0,1.1-0.2,2.2,0.5,3.3c-1,0-1.9,0-2.8,0c-0.1,0-0.3-0.2-0.4-0.4c-0.2-0.3-0.4-0.7-0.6-1.1
				c-0.2,0.4-0.4,0.8-0.6,1.1c-0.1,0.2-0.3,0.4-0.4,0.4c-0.7,0-1.4,0-2-0.1c-0.8-0.2-1.1-0.9-1.1-1.7c0-1.1,0-2.3,0-3.4
				c0-0.7,0.3-1.2,0.8-1.7c1-0.9,2.1-1.8,3.1-2.8c0.2-0.2,0.3-0.6,0.3-0.8c0-0.1-0.2-0.3-0.3-0.3c-0.7,0-1.5,0-2.2,0.1
				C107.4,69.5,107.1,69.9,106.6,70.2z M110.3,73.8c-0.1,0-0.1-0.1-0.2-0.1c-0.3,0.4-0.8,0.7-0.8,1.1c-0.1,0.8-0.1,1.7,0,2.5
				c0,0.1,0.3,0.3,0.5,0.3c0.2,0.1,0.5,0.1,0.5-0.3C110.3,76.1,110.3,75,110.3,73.8z"/>
			<path fill="#FFFFFF" d="M136.4,47.7c-0.1-0.1-0.3-0.3-0.3-0.4c0-2.2,0-4.4,0-6.5c0-0.2,0.2-0.4,0.3-0.6c0,0,0.1,0,0.1,0
				c0,2.5,0,4.9,0,7.4C136.5,47.6,136.5,47.7,136.4,47.7z"/>
		</g>
	</g>
</g>
</svg>
