<?xml version="1.0" encoding="utf-8"?>
<!-- Generator: Adobe Illustrator 18.0.0, SVG Export Plug-In . SVG Version: 6.00 Build 0)  -->
<!DOCTYPE svg PUBLIC "-//W3C//DTD SVG 1.1//EN" "http://www.w3.org/Graphics/SVG/1.1/DTD/svg11.dtd">
<svg version="1.1" id="Layer_1" xmlns="http://www.w3.org/2000/svg" xmlns:xlink="http://www.w3.org/1999/xlink" x="0px" y="0px"
	 viewBox="0 0 742 322.8" enable-background="new 0 0 742 322.8" xml:space="preserve">
<rect x="119.3" y="119.4" fill="#37372D" width="523.4" height="165.2"/>
<g>
	<path fill="#586266" d="M327.8,187c1.1-27.2-6.1-45.2-11.8-55.1c1.4-2,2.1-3.6,2.1-3.6c-5.9-10.2-12.8-12.1-14-12.4c0,0,0,0,0,0
		c-3.8-1.2-7.3-1.9-10.6-2.3l-0.3-4l4.4-0.3l0.4-18c0.4-0.6,3.6-5.3,1.6-11.4c-2.1-6.4-5.7-15.4-23.2,0.7c-8.3,7.6-1.7,14-1.7,14
		c-0.1,3.9,3.3,4.7,3.3,4.7l0.2,14.5c-3.8,0.7-6.8,1.6-9,2.5c-0.5,0.2-1.4,0.5-2.6,1.2c-0.5,0.3-0.8,0.4-0.8,0.4c0,0,0,0,0,0
		c-3,1.8-7.1,5.1-10.8,11.4c0,0,0.7,1.5,1.9,3.3c-5.9,9.2-14.5,28-13.3,57.6c-0.5,0.7-5.9,9.4-1.4,12.5c4.6,3.2,12.2,1.1,11.8-1.4
		c-0.4-2.5,0.4-2.4,1.4-4.9c1.1-2.5-4.3-6-4.3-6h0c-0.1-6,0-33.1,12.7-51.5c0.3,0.1,0.5,0.2,0.8,0.3l2.6-2
		c0.3,9.5,0.6,23.6,0.8,44.8c-0.1,0-0.1,0.1-0.2,0.1l-3.3,35.4l0.1,0l-4.2,36.5l-0.1,0l-2.5,23.2c-1.2,0.2-7.3,2.9-12.4,5.2
		c-1.6,0.7-1.1,3.2,0.7,3.2l20.9-0.5c0,0,2.9-3.9-0.4-7.5l4.6-22.9l-0.1,0l7.4-36.9l4.1,0.1l4.3-13.1l4.3,13.7h2.6l7.5,37.4
		l-0.1-0.1l4.5,22.3c-3,3.5-0.3,7.4-0.3,7.4l20.9,0.5c1.8,0,2.4-2.4,0.7-3.2c-5.1-2.3-11.2-5-12.4-5.2l-0.1,0l-2.4-22.5l-0.1,0
		l-5.1-45.1l-0.3,0L304,182c0,0-0.4-0.1-1.1-0.2c0.7,0.1,1.1,0.1,1.1,0.2c0.6-22.1,0.7-36.9,0.7-46.8l3.7,2.8c0.2-0.1,0.4,0,0.5,0
		c11.2,18.3,11.4,43.3,11.3,49.3h0c0,0-5.4,3.4-4.3,5.9c1.1,2.5,1.8,2.4,1.4,4.9c-0.4,2.5,7.2,4.6,11.8,1.4
		C333.6,196.5,328.2,187.7,327.8,187z"/>
	<path fill="#586266" d="M265.8,117.9L265.8,117.9L265.8,117.9z"/>
</g>
<g>
	<path fill="#586266" d="M496.1,198.8c1.1-27.2-6.1-45.2-11.8-55.1c1.4-2,2.1-3.6,2.1-3.6c-5.9-10.2-12.8-12.1-14-12.4c0,0,0,0,0,0
		c-3.8-1.2-7.3-1.9-10.6-2.3l-0.3-4l3-0.2c7.6,2.1,11.2-6.4,11.5-7.1c-0.2,0.5-1.8,4.1-5.1,1.8c-3.5-2.4,5.1-13.4,0-23.1
		s-14.2-1.1-14.2-1.1c-2.9-4-8.3-6.5-15-1.9c-7,4.8-3.5,19-1.3,23.9c2.1,4.8-4,5.9-4,5.9c5.7,2.1,8.9-1.5,10-3.2l0.1,9.2
		c-3.8,0.7-6.8,1.6-9,2.5c-0.5,0.2-1.4,0.5-2.6,1.2c-0.5,0.3-0.8,0.4-0.8,0.4c0,0,0,0,0,0c-3,1.8-7.1,5.1-10.8,11.4
		c0,0,0.7,1.5,1.9,3.3c-5.9,9.2-14.5,28-13.3,57.6c-0.5,0.7-5.9,9.4-1.4,12.5c4.6,3.2,12.2,1.1,11.8-1.4c-0.4-2.5,0.4-2.3,1.4-4.8
		c1.1-2.5-4.3-5.9-4.3-5.9h0c-0.1-6,0-33.2,12.7-51.6c0.3,0.1,0.5,0.1,0.8,0.2l2.6-2c0.3,9.5,0.6,23.6,0.8,44.7
		c-0.1,0-0.1,0.1-0.2,0.1l-3.3,35.4l0.1,0l-4.2,36.5l-0.1,0l-2.5,23.2c-1.2,0.2-7.3,2.9-12.4,5.2c-1.6,0.7-1.1,3.2,0.7,3.2l20.9-0.5
		c0,0,2.9-3.9-0.4-7.5l4.6-22.9l-0.1,0l7.4-36.9l4.1,0.1l4.3-13.5l4.3,13.3h2.6l7.5,37.8l-0.1,0.1l4.5,22.4c-3,3.5-0.3,7.4-0.3,7.4
		l20.9,0.5c1.8,0,2.4-2.4,0.7-3.2c-5.1-2.3-11.2-5-12.4-5.2l-0.1,0l-2.4-22.5l-0.1,0l-5.1-45.1l-0.3,0l-3.1-27.9
		c0,0-0.4-0.1-1.1-0.2c0.7,0.1,1.1,0.1,1.1,0.2c0.6-22.1,0.7-36.9,0.7-46.8l3.7,2.8c0.2-0.1,0.4-0.4,0.5-0.4
		c11.2,18.3,11.4,43.9,11.3,48.9h0c0,0-5.4,3.8-4.3,6.3c1.1,2.5,1.8,2.6,1.4,5.1c-0.4,2.5,7.2,4.7,11.8,1.5
		C502,208.2,496.6,199.5,496.1,198.8z"/>
	<path fill="#586266" d="M434.2,129.7L434.2,129.7L434.2,129.7z"/>
	<path fill="#586266" d="M476.1,114.1C476.1,114.1,476.1,114,476.1,114.1C476.1,114,476.1,114.1,476.1,114.1z"/>
	<path fill="#586266" d="M476.1,114.1C476.1,114.1,476.1,114.1,476.1,114.1L476.1,114.1z"/>
</g>
<path fill="#586266" d="M245.8,199.9c2.1-42-15.3-62.4-20.7-67.6c0.4-1.7,0.7-2.5,0.7-2.5c-2.2-0.7-4.4-1.2-6.5-1.7
	c-2.6-0.6-5.1-0.9-7.4-1l-0.3-3.5c2.4-0.1,7.2-2.3,7.7-7.3h5.6c0,0,0-7.6,0-20.5s-11.6-18-16.4-9.1c0,0-12.2-9.7-16,2.4
	s-0.5,26.8-0.5,26.8l7.6,0.1l0.1,11.8c-1.3,0.3-2.4,0.5-3.3,0.8c0,0,0,0,0,0c-0.1,0-0.2,0-0.2,0.1c-4.8,1.4-7.3,3-7.3,3
	s0.3,0.1,0.6,0.8c-5.6,5.6-22.5,26-20.4,67.4c-0.5,0.8-5.8,9.4-1.4,12.5c4.6,3.2,12.2,1.1,11.8-1.4c-0.4-2.5,0.4-2.8,1.4-5.3
	c1.1-2.5-4.3-6.3-4.3-6.3h0c-0.1-5,0.1-36.4,15.4-54.7c0.7,7.7,1,20.1,0.3,39.5c0,0-4.5,13.5-5,30.6c-0.5,17.2-3.8,58-3.8,58
	l1.9-0.1l-0.5,4.4c-1.2,0.2-7.3,2.9-12.4,5.2c-1.6,0.7-1.1,3.2,0.7,3.2l20.9-0.5c0,0,2.9-3.9-0.4-7.5l1-5.1l0.9,0l8-44.8l2.3-11.4
	l10.6,57.3l1.4-0.2l1,4.8c-3,3.5-0.3,7.4-0.3,7.4l20.9,0.5c1.8,0,2.4-2.4,0.7-3.2c-5.1-2.3-11.2-5-12.4-5.2l-0.1,0l-0.6-5.4l3.2-0.4
	c0,0-4.8-74.5-7.8-86.9c-1.1-0.1-2.2-0.3-3.3-0.4c2,0.1,3.2,0.2,3.3,0.4c-0.7-11.7-0.8-21.2-0.5-28.9c2.9-1.6,3.9-4.2,3.9-6.6
	c11.9,18.4,12,44.9,11.9,49.9h0c0,0-5.4,3.8-4.3,6.3c1.1,2.5,1.8,2.6,1.4,5.1c-0.4,2.5,7.2,4.7,11.8,1.5
	C251.6,209.2,246.3,200.7,245.8,199.9z"/>
<path fill="#586266" d="M568.1,199.9c-2.1-42,15.3-62.4,20.7-67.6c-0.4-1.7-0.7-2.5-0.7-2.5c2.2-0.7,4.4-1.2,6.5-1.7
	c2.6-0.6,5.1-0.9,7.4-1l0.3-3.5c-2.4-0.1-7.2-2.3-7.7-7.3H588c0,0,0-7.6,0-20.5s12-18,16.9-9.1c0,0,12.5-9.7,16.2,2.4
	s0.6,26.8,0.6,26.8l-7.5,0.1l-0.1,11.8c1.3,0.3,2.4,0.5,3.3,0.8c0,0,0,0,0,0c0.1,0,0.2,0,0.2,0.1c4.8,1.4,7.3,3,7.3,3
	s-0.2,0.1-0.6,0.8c5.6,5.6,22.5,26,20.4,67.4c0.5,0.8,5.8,9.4,1.4,12.5c-4.6,3.2-12.2,1.1-11.8-1.4c0.4-2.5-0.4-2.8-1.4-5.3
	c-1.1-2.5,4.3-6.3,4.3-6.3h0c0.1-5-0.1-36.4-15.4-54.7c-0.7,7.7-1,20.1-0.3,39.5c0,0,4.5,13.5,5,30.6c0.5,17.2,3.8,58,3.8,58
	l-1.9-0.1l0.5,4.4c1.2,0.2,7.3,2.9,12.4,5.2c1.6,0.7,1.1,3.2-0.7,3.2l-20.9-0.5c0,0-2.9-3.9,0.4-7.5l-1-5.1l-0.9,0l-8-44.8
	l-2.3-11.4l-10.6,57.3l-1.4-0.2l-1,4.8c3,3.5,0.3,7.4,0.3,7.4l-20.9,0.5c-1.8,0-2.4-2.4-0.7-3.2c5.1-2.3,11.2-5,12.4-5.2l0.1,0
	l0.6-5.4l-3.2-0.4c0,0,4.8-74.5,7.8-86.9c1.1-0.1,2.2-0.3,3.3-0.4c-2,0.1-3.2,0.2-3.3,0.4c0.7-11.7,0.8-21.2,0.5-28.9
	c-2.9-1.6-3.9-4.2-3.9-6.6c-11.9,18.4-12,44.9-11.9,49.9h0c0,0,5.4,3.8,4.3,6.3c-1.1,2.5-1.8,2.6-1.4,5.1c0.4,2.5-7.2,4.7-11.8,1.5
	C562.3,209.2,567.7,200.7,568.1,199.9z"/>
<path fill="#586266" d="M392.1,207.4c2-40.8-14.1-61-20.1-67.1c1-1.4,1.7-1,1.7-1s-1.7-1-4.9-2.2c0,0,0-0.1,0-0.1
	c0,0-2.8-1.1-7.5-1.9l0.1-5.7c9.5,2.6,14.4-7.7,14.4-7.7s-10.7,9.4-6.4-11.3c4.3-20.6-16.1-15.6-16.1-15.6
	c-1.1-5.1-14.5-13.9-19.3-0.8c-3.8,10.2,3.9,14.1,7.4,15.3l0.4,13.3c0,5.9,5.2,8,7.7,8.1l-0.3,3.6c-2.5,0.2-5.2,0.5-8,1.2
	c-1.9,0.4-3.8,0.9-5.9,1.5c0,0,0.3,0.8,0.7,2.5c-5.4,5.2-22.7,25.4-20.7,67.7c-0.5,0.8-5.8,9.4-1.4,12.5c4.6,3.2,12.2,1.1,11.8-1.4
	c-0.4-2.5,0.4-2.5,1.4-5c1.1-2.5-4.3-6.1-4.3-6.1h0c-0.1-6,0-31.8,11.9-50.2c0,2.4,0.9,4.7,3.9,6.3c0.3,7.4,0.2,16.6-0.4,27.7
	c0,0,0,0-0.1,0.1c0,0-6.3,3.9-8.5,25.4c-2.1,21.5-6.4,30.7-6.4,30.7s5,2.7,13.4,4.4l-3.8,33.1l-0.1,0c-1.2,0.2-7.3,2.9-12.4,5.2
	c-1.6,0.7-1.1,3.2,0.7,3.2l20.9-0.5c0,0,2.8-3.8-0.3-7.4l6.4-32.2c3.8,0.1,7.9,0,12.3-0.7l6.5,32.4c-3.2,3.6-0.4,7.5-0.4,7.5
	l20.9,0.5c1.8,0,2.4-2.4,0.7-3.2c-5.1-2.3-11.2-5-12.4-5.2l-3.9-34.7c4-1.2,8.1-2.9,12.2-5c0,0-6.8-17.9-6.4-27.5
	c0.4-9.7-9.2-26.6-9.2-26.6s0,0,0,0c-0.7-18.7-0.3-30.6,0.4-38.2c15.3,18.2,15.5,48.8,15.3,54.8h0c0,0-5.4,3.6-4.3,6.1
	c1.1,2.5,1.8,2.5,1.4,5c-0.4,2.5,7.2,4.7,11.8,1.4C397.9,216.8,392.6,208.2,392.1,207.4z"/>
<path fill="#586266" d="M574,191.3c1.3-27.6-5.6-45.8-12.2-56.6c1.2-1.8,1.9-3.3,1.9-3.3c-5.9-10.2-12.8-12.1-14-12.4c0,0,0,0,0,0
	c-3.8-1.2-7.3-1.9-10.6-2.3l-0.3-4l4.4-0.3l0.4-18c0.3-0.5,2.4-3.8,2.1-10.1c-0.5-13.4-18.2-12.2-24.7-2.9
	c-6.4,9.3-0.8,16.4-0.8,16.4c-0.1,3.9,3.3,4.7,3.3,4.7l0.2,14.5c-3.8,0.7-6.8,1.6-9,2.5c-0.5,0.2-1.4,0.5-2.6,1.2
	c-0.5,0.3-0.8,0.4-0.8,0.4s0,0,0,0c-3,1.8-7.1,5.1-10.7,11.4c0,0,0.3,0.6,0.7,1.4c-6.6,10.7-14,29.1-12.6,57.4
	c-0.5,0.8-5.8,9.4-1.4,12.5c4.6,3.2,12.2,1.1,11.8-1.4c-0.4-2.5,0.4-2.5,1.4-5c1.1-2.5-4.3-6.1-4.3-6.1h0c-0.1-6,0-31.6,11.8-50
	c0.7,0.4,1.5,0.8,2.3,1l2.3-1.7c0,11.3-0.5,28.9-2.2,56.4c0,0.1,0.7,0,1.9-0.1l-9.4,79.8l1.1,0.1l-0.4,3.4
	c-1.2,0.2-7.3,2.9-12.4,5.2c-1.6,0.7-1.1,3.2,0.7,3.2l20.9-0.5c0,0,2.9-3.9-0.4-7.5l0.5-2.7l2,0.2l17.9-70.4l16.4,70.4l1.8-0.1
	l0.6,3c-3,3.5-0.3,7.4-0.3,7.4l20.9,0.5c1.8,0,2.4-2.4,0.7-3.2c-5.1-2.3-11.2-5-12.4-5.2l-0.1,0l-0.3-2.8l1.5,0l-11.5-86.9
	c0,0,0,0,0.1,0c0.2-23.1,0-40.6-0.2-52.6l3.8,2.9c0.2-0.1,0.3-0.1,0.5-0.2c11.9,18.4,12,44.2,11.9,50.2h0c0,0-5.4,3.5-4.3,6.1
	c1.1,2.5,1.8,2.5,1.4,5c-0.4,2.5,7.2,4.6,11.8,1.4C579.8,200.7,574.5,192.1,574,191.3z M543.7,93.3l0.2-7.6
	C544.1,85.7,543.8,90.9,543.7,93.3z"/>
<path fill="#586266" d="M184.6,198.8c2.1-42-15.3-62.4-20.7-67.6c0.4-1.7,0.7-2.5,0.7-2.5c-2.2-0.7-4.4-1.2-6.5-1.7
	c-2.6-0.6-5.1-0.9-7.4-1l-0.3-3.5c2.4-0.1,7.2-2.2,7.7-7.2h5.8c0,0,0-7.7,0-20.6s-11.6-18-16.5-9.1c0,0-12.3-9.7-16,2.4
	c-3.8,12.1-0.5,26.8-0.5,26.8l7.6,0.1l0.1,11.8c-1.3,0.3-2.4,0.5-3.3,0.8c0,0,0,0,0,0c-0.1,0-0.2,0-0.2,0.1c-4.8,1.4-7.3,3-7.3,3
	s0.3,0.1,0.6,0.8c-5.6,5.6-22.5,26-20.4,67.4c-0.5,0.8-5.8,9.4-1.4,12.5c4.6,3.2,12.2,1.1,11.8-1.4c-0.4-2.5,0.4-2.7,1.4-5.2
	c1.1-2.5-4.3-6.3-4.3-6.3h0c-0.1-5,0.1-36.5,15.4-54.7c0.7,7.7,1,20.1,0.3,39.5c0,0-4.5,13.5-5,30.6c-0.5,17.2-3.8,57.9-3.8,57.9
	l1.9-0.1l-0.5,4.4c-1.2,0.2-7.3,2.9-12.4,5.2c-1.6,0.7-1.1,3.2,0.7,3.2l20.9-0.5c0,0,2.9-3.9-0.4-7.5l1-5.1l0.9,0l8-44.8l2.3-11.4
	l10.6,57.3l1.4-0.2l1,4.8c-3,3.5-0.3,7.4-0.3,7.4l20.9,0.5c1.8,0,2.4-2.4,0.7-3.2c-5.1-2.3-11.2-5-12.4-5.2l-0.1,0l-0.6-5.4l3.2-0.4
	c0,0-4.8-74.5-7.8-86.9c-1.1-0.1-2.2-0.3-3.3-0.4c2,0.1,3.2,0.2,3.3,0.4c-0.7-11.7-0.8-21.2-0.5-28.9c2.9-1.6,3.9-4.2,3.9-6.5
	c11.9,18.4,12,45,11.9,50h0c0,0-5.4,3.8-4.3,6.3c1.1,2.5,1.8,2.6,1.4,5.1c-0.4,2.5,7.2,4.7,11.8,1.5
	C190.5,208.2,185.1,199.6,184.6,198.8z"/>
<path fill="#7F8E8E" d="M285.5,207.4c2.1-42-15.3-62.4-20.7-67.6c0.4-1.7,0.7-2.5,0.7-2.5c-2.2-0.7-4.4-1.2-6.5-1.7
	c-2.6-0.6-5.1-0.9-7.4-1l-0.3-3.8c2.4-0.1,7.2-2.5,7.7-7.5h5.9c0,0,0-7.1,0-20s-11.7-18-16.6-9.1c0,0-12.3-9.7-16.1,2.4
	s-0.5,26.8-0.5,26.8l7.5,0.1l0.1,11.8c-1.3,0.3-2.4,0.5-3.3,0.8c0,0,0,0,0,0c-0.1,0-0.2,0-0.2,0.1c-4.8,1.4-7.3,3-7.3,3
	s0.3,0.1,0.6,0.8c-5.6,5.6-22.5,26-20.4,67.4c-0.5,0.8-5.8,9.4-1.4,12.5c4.6,3.2,12.2,1.1,11.8-1.4c-0.4-2.5,0.4-2.5,1.4-5
	c1.1-2.5-4.3-6.1-4.3-6.1h0c-0.1-6,0.1-36.7,15.4-54.9c0.7,7.7,1,20,0.3,39.4c0,0-4.5,13.4-5,30.6c-0.5,17.2-3.8,57.9-3.8,57.9
	l1.9-0.1l-0.5,4.4c-1.2,0.2-7.3,2.9-12.4,5.2c-1.6,0.7-1.1,3.2,0.7,3.2l20.9-0.5c0,0,2.9-3.9-0.4-7.5l1-5.1l0.9,0l8-44.8l2.3-11.4
	l10.6,57.3l1.4-0.2l1,4.8c-3,3.5-0.3,7.4-0.3,7.4l20.9,0.5c1.8,0,2.4-2.4,0.7-3.2c-5.1-2.3-11.2-5-12.4-5.2l-0.1,0l-0.6-5.4l3.2-0.4
	c0,0-4.8-74.5-7.8-86.9c-1.1-0.1-2.2-0.3-3.3-0.4c2,0.1,3.2,0.2,3.3,0.4c-0.7-11.7-0.8-21.2-0.5-28.9c2.9-1.6,3.9-4,3.9-6.3
	c11.9,18.4,12,44.2,11.9,50.2h0c0,0-5.4,3.6-4.3,6.1c1.1,2.5,1.8,2.5,1.4,5c-0.4,2.5,7.2,4.7,11.8,1.4
	C291.3,216.8,286,208.2,285.5,207.4z"/>
<g>
	<path fill="#7F8E8E" d="M546.6,205.3c1.1-27.2-6.1-45.2-11.8-55.1c1.4-2,2.1-3.6,2.1-3.6c-5.9-10.2-12.8-12.1-14-12.4c0,0,0,0,0,0
		c-3.8-1.2-7.3-1.9-10.6-2.3l-0.3-4l4.4-0.3l0.4-18c0.4-0.6,3.6-5.3,1.6-11.4c-2.1-6.4-5.7-15.4-23.2,0.7c-8.3,7.6-1.7,14-1.7,14
		c-0.1,3.9,3.3,4.7,3.3,4.7l0.2,14.5c-3.8,0.7-6.8,1.6-9,2.5c-0.5,0.2-1.4,0.5-2.6,1.2c-0.5,0.3-0.8,0.4-0.8,0.4c0,0,0,0,0,0
		c-3,1.8-7.1,5.1-10.8,11.4c0,0,0.7,1.5,1.9,3.3c-5.9,9.2-14.5,28-13.3,57.6c-0.5,0.7-5.9,9.4-1.4,12.5c4.6,3.2,12.2,1.1,11.8-1.4
		c-0.4-2.5,0.4-2.6,1.4-5.1c1.1-2.5-4.3-6.1-4.3-6.1h0c-0.1-6,0-32.9,12.7-51.3c0.3,0.1,0.5,0.2,0.8,0.3l2.6-2
		c0.3,9.5,0.6,23.6,0.8,44.8c-0.1,0-0.1-0.1-0.2,0l-3.3,35.3h0.1l-4.2,36.6l-0.1,0.1l-2.5,23.3c-1.2,0.2-7.3,2.9-12.4,5.2
		c-1.6,0.7-1.1,3.2,0.7,3.2l20.9-0.5c0,0,2.9-3.9-0.4-7.5l4.6-22.9l-0.1,0l7.4-36.9l4.1,0.1l4.3-13.7l4.3,13.1h2.6l7.5,38l-0.1,0.3
		l4.5,22.4c-3,3.5-0.3,7.4-0.3,7.4l20.9,0.5c1.8,0,2.4-2.4,0.7-3.2c-5.1-2.3-11.2-5-12.4-5.2l-0.1,0l-2.4-22.5l-0.1,0l-5.1-45.1
		l-0.3,0l-3.1-27.9c0,0-0.4-0.1-1.1-0.2c0.7,0.1,1.1,0.1,1.1,0.2c0.6-22.1,0.7-36.9,0.7-46.8l3.7,2.8c0.2-0.1,0.4-0.1,0.5-0.1
		c11.2,18.3,11.4,43.2,11.3,49.2h0c0,0-5.4,3.5-4.3,6c1.1,2.5,1.8,2.5,1.4,5c-0.4,2.5,7.2,4.6,11.8,1.4
		C552.4,214.7,547,206,546.6,205.3z"/>
	<path fill="#7F8E8E" d="M484.6,136.2L484.6,136.2L484.6,136.2z"/>
</g>
<path fill="#7F8E8E" d="M430.3,220.3c2.1-42-15.3-62.4-20.7-67.6c0.4-1.7,0.7-2.5,0.7-2.5c-2.2-0.7-4.4-1.2-6.5-1.7
	c-2.6-0.6-5.1-0.9-7.4-1l-0.3-3.2c2.4-0.1,7.2-1.9,7.7-6.9h6.1c0,0,0-8.3,0-21.1s-11.8-18-16.7-9.1c0,0-12.4-9.7-16.1,2.4
	s-0.5,26.8-0.5,26.8l7.5,0.1l0.1,11.8c-1.3,0.3-2.4,0.5-3.3,0.8c0,0,0,0,0,0c-0.1,0-0.2,0-0.2,0.1c-4.8,1.4-7.3,3-7.3,3
	s0.3,0.1,0.6,0.8c-5.6,5.6-22.5,26-20.4,67.4c-0.5,0.8-5.8,9.4-1.4,12.5c4.6,3.2,12.2,1.1,11.8-1.4c-0.4-2.5,0.4-2.5,1.4-5
	c1.1-2.5-4.3-6-4.3-6h0c-0.1-6,0.1-36.8,15.4-55c0.7,7.7,1,20,0.3,39.3c0,0-4.5,13.4-5,30.6c-0.5,17.2-3.8,57.9-3.8,57.9l1.9-0.1
	l-0.5,4.4c-1.2,0.2-7.3,2.9-12.4,5.2c-1.6,0.7-1.1,3.2,0.7,3.2l20.9-0.5c0,0,2.9-3.9-0.4-7.5l1-5.1l0.9,0l8-44.8l2.3-11.4l10.6,57.3
	l1.4-0.2l1,4.8c-3,3.5-0.3,7.4-0.3,7.4l20.9,0.5c1.8,0,2.4-2.4,0.7-3.2c-5.1-2.3-11.2-5-12.4-5.2l-0.1,0l-0.6-5.4l3.2-0.4
	c0,0-4.8-74.5-7.8-86.9c-1.1-0.1-2.2-0.3-3.3-0.4c2,0.1,3.2,0.2,3.3,0.4c-0.7-11.7-0.8-21.2-0.5-28.9c2.9-1.6,3.9-3.9,3.9-6.3
	c11.9,18.4,12,45.2,11.9,50.2h0c0,0-5.4,3.5-4.3,6c1.1,2.5,1.8,2.5,1.4,5c-0.4,2.5,7.2,4.6,11.8,1.4
	C436.1,229.7,430.8,221.1,430.3,220.3z"/>
<path fill="#7F8E8E" d="M621.6,216c2-40.8-14.1-61-20.1-67.1c1-1.4,1.7-1,1.7-1s-1.7-1-4.9-2.2c0,0,0-0.1,0-0.1c0,0-2.8-1.1-7.5-1.9
	l0.1-5.7c9.5,2.6,14.4-7.7,14.4-7.7s-10.7,9.4-6.4-11.3c4.3-20.6-16.1-15.6-16.1-15.6c-1.1-5.1-14.5-13.9-19.3-0.8
	c-3.8,10.2,3.9,14.1,7.4,15.3l0.4,13.3c0,5.9,5.2,8,7.7,8.1l-0.3,3.6c-2.5,0.2-5.2,0.5-8,1.2c-1.9,0.4-3.8,0.9-5.9,1.5
	c0,0,0.3,0.8,0.7,2.5c-5.4,5.2-22.7,25.4-20.7,67.7c-0.5,0.8-5.8,9.4-1.4,12.5c4.6,3.2,12.2,1.1,11.8-1.4c-0.4-2.5,0.4-2.3,1.4-4.8
	c1.1-2.5-4.3-5.9-4.3-5.9h0c-0.1-6,0-32,11.9-50.4c0,2.4,0.9,4.6,3.9,6.2c0.3,7.4,0.2,16.5-0.4,27.7c0,0,0,0-0.1,0
	c0,0-6.3,3.9-8.5,25.4c-2.1,21.5-6.4,30.7-6.4,30.7s5,2.7,13.4,4.4l-3.8,33.1l-0.1,0c-1.2,0.2-7.3,2.9-12.4,5.2
	c-1.6,0.7-1.1,3.2,0.7,3.2l20.9-0.5c0,0,2.8-3.8-0.3-7.4l6.4-32.2c3.8,0.1,7.9,0,12.3-0.7l6.5,32.4c-3.2,3.6-0.4,7.5-0.4,7.5
	l20.9,0.5c1.8,0,2.4-2.4,0.7-3.2c-5.1-2.3-11.2-5-12.4-5.2l-3.9-34.7c4-1.2,8.1-2.9,12.2-5c0,0-6.8-17.9-6.4-27.5
	c0.4-9.7-9.2-26.6-9.2-26.6s0,0,0,0c-0.7-18.7-0.3-30.4,0.4-38c15.3,18.2,15.5,48,15.3,55h0c0,0-5.4,3.4-4.3,5.9
	c1.1,2.5,1.8,2.4,1.4,4.9c-0.4,2.5,7.2,4.6,11.8,1.4C627.5,225.4,622.1,216.8,621.6,216z"/>
<path fill="#7F8E8E" d="M353,207.4c1.3-27.6-5.6-45.8-12.2-56.6c1.2-1.8,1.9-3.3,1.9-3.3c-5.9-10.2-12.8-12.1-14-12.4c0,0,0,0,0,0
	c-3.8-1.2-7.3-1.9-10.6-2.3l-0.3-4l4.4-0.3l0.4-18c0.3-0.5,2.4-3.8,2.1-10.1c-0.5-13.4-18.2-12.2-24.7-2.9
	c-6.4,9.3-0.8,16.4-0.8,16.4c-0.1,3.9,3.3,4.7,3.3,4.7l0.2,14.5c-3.8,0.7-6.8,1.6-9,2.5c-0.5,0.2-1.4,0.5-2.6,1.2
	c-0.5,0.3-0.8,0.4-0.8,0.4s0,0,0,0c-3,1.8-7.1,5.1-10.7,11.4c0,0,0.3,0.6,0.7,1.4c-6.6,10.7-14,29.1-12.6,57.4
	c-0.5,0.8-5.8,9.4-1.4,12.5c4.6,3.2,12.2,1.1,11.8-1.4c-0.4-2.5,0.4-2.5,1.4-5c1.1-2.5-4.3-6.1-4.3-6.1h0c-0.1-6,0-31.6,11.8-49.9
	c0.7,0.4,1.5,0.8,2.3,1l2.3-1.7c0,11.3-0.5,29-2.2,56.4c0,0.1,0.7,0,1.9-0.1l-9.4,79.8l1.1,0.1l-0.4,3.4c-1.2,0.2-7.3,2.9-12.4,5.2
	c-1.6,0.7-1.1,3.2,0.7,3.2l20.9-0.5c0,0,2.9-3.9-0.4-7.5l0.5-2.7l2,0.2l17.9-70.4l16.4,70.4l1.8-0.1l0.6,3c-3,3.5-0.3,7.4-0.3,7.4
	l20.9,0.5c1.8,0,2.4-2.4,0.7-3.2c-5.1-2.3-11.2-5-12.4-5.2l-0.1,0l-0.3-2.8l1.5,0L329.4,207c0,0,0,0,0.1,0c0.2-23.1,0-40.6-0.2-52.6
	l3.8,2.9c0.2-0.1,0.3-0.1,0.5-0.2c11.9,18.4,12,44.2,11.9,50.2h0c0,0-5.4,3.6-4.3,6.1c1.1,2.5,1.8,2.5,1.4,5
	c-0.4,2.5,7.2,4.7,11.8,1.4C358.9,216.8,353.5,208.2,353,207.4z M322.8,109.4l0.2-7.6C323.1,101.8,322.9,107,322.8,109.4z"/>
<g>
	<path fill="#7F8E8E" d="M219.4,204.2c1.1-27.2-6.1-45.2-11.8-55.1c1.4-2,2.1-3.6,2.1-3.6c-5.9-10.2-12.8-12.1-14-12.4c0,0,0,0,0,0
		c-3.8-1.2-7.3-1.9-10.6-2.3l-0.3-4l3-0.2c7.6,2.1,11.2-6.4,11.5-7.1c-0.2,0.5-1.8,4.1-5.1,1.8c-3.5-2.4,5.1-13.4,0-23.1
		c-5.1-9.7-14.2-1.1-14.2-1.1c-2.9-4-8.3-6.5-15-1.9c-7,4.8-3.5,19-1.3,23.9c2.1,4.8-4,5.9-4,5.9c5.7,2.1,8.9-1.5,10-3.2l0.1,9.2
		c-3.8,0.7-6.8,1.6-9,2.5c-0.5,0.2-1.4,0.5-2.6,1.2c-0.5,0.3-0.8,0.4-0.8,0.4c0,0,0,0,0,0c-3,1.8-7.1,5.1-10.8,11.4
		c0,0,0.7,1.5,1.9,3.3c-5.9,9.2-14.5,28-13.3,57.6c-0.5,0.7-5.9,9.4-1.4,12.5c4.6,3.2,12.2,1.1,11.8-1.4c-0.4-2.5,0.4-2.5,1.4-5
		c1.1-2.5-4.3-6.1-4.3-6.1h0c-0.1-6,0-33,12.7-51.4c0.3,0.1,0.5,0.2,0.8,0.3l2.6-2c0.3,9.5,0.6,23.6,0.8,44.8c-0.1,0-0.1,0-0.2,0
		l-3.3,35.3h0.1l-4.2,36.6l-0.1,0l-2.5,23.3c-1.2,0.2-7.3,2.9-12.4,5.2c-1.6,0.7-1.1,3.2,0.7,3.2l20.9-0.5c0,0,2.9-3.9-0.4-7.5
		l4.6-22.9l-0.1,0l7.4-36.9l4.1,0.1l4.3-13.7l4.3,13.1h2.6l7.5,38l-0.1,0.2l4.5,22.4c-3,3.5-0.3,7.4-0.3,7.4l20.9,0.5
		c1.8,0,2.4-2.4,0.7-3.2c-5.1-2.3-11.2-5-12.4-5.2l-0.1,0l-2.4-22.5l-0.1,0l-5.1-45.1l-0.3,0l-3.1-27.9c0,0-0.4-0.1-1.1-0.2
		c0.7,0.1,1.1,0.1,1.1,0.2c0.6-22.1,0.7-36.9,0.7-46.8l3.7,2.8c0.2-0.1,0.4,0,0.5-0.1c11.2,18.3,11.4,43.2,11.3,49.2h0
		c0,0-5.4,3.5-4.3,6c1.1,2.5,1.8,2.5,1.4,5c-0.4,2.5,7.2,4.6,11.8,1.4C225.3,213.6,219.9,204.9,219.4,204.2z"/>
	<path fill="#7F8E8E" d="M157.5,135.1L157.5,135.1L157.5,135.1z"/>
	<path fill="#7F8E8E" d="M199.4,119.5C199.4,119.4,199.4,119.4,199.4,119.5C199.4,119.4,199.4,119.4,199.4,119.5z"/>
	<path fill="#7F8E8E" d="M199.4,119.5C199.4,119.5,199.4,119.5,199.4,119.5L199.4,119.5z"/>
</g>
<g>
	<path fill="#7C8284" d="M385.7,206.3c1.1-27.2-6.1-45.2-11.8-55.1c1.4-2,2.1-3.6,2.1-3.6c-5.9-10.2-12.8-12.1-14-12.4c0,0,0,0,0,0
		c-3.8-1.2-7.3-1.9-10.6-2.3l-0.3-4l4.4-0.3l0.4-18c0.4-0.6,3.6-5.3,1.6-11.4c-2.1-6.4-5.7-15.4-23.2,0.7c-8.3,7.6-1.7,14-1.7,14
		c-0.1,3.9,3.3,4.7,3.3,4.7l0.2,14.5c-3.8,0.7-6.8,1.6-9,2.5c-0.5,0.2-1.4,0.5-2.6,1.2c-0.5,0.3-0.8,0.4-0.8,0.4c0,0,0,0,0,0
		c-3,1.8-7.1,5.1-10.8,11.4c0,0,0.7,1.5,1.9,3.3c-5.9,9.2-14.5,28-13.3,57.6c-0.5,0.7-5.9,9.4-1.4,12.5c4.6,3.2,12.2,1.1,11.8-1.4
		c-0.4-2.5,0.4-2.6,1.4-5.1c1.1-2.5-4.3-6.2-4.3-6.2h0c-0.1-6,0-32.9,12.7-51.3c0.3,0.1,0.5,0.3,0.8,0.4l2.6-2
		c0.3,9.5,0.6,23.6,0.8,44.8c-0.1,0-0.1-0.1-0.2-0.1l-3.3,35.2h0.1l-4.2,36.7l-0.1,0.1l-2.5,23.3c-1.2,0.2-7.3,2.9-12.4,5.2
		c-1.6,0.7-1.1,3.2,0.7,3.2l20.9-0.5c0,0,2.9-3.9-0.4-7.5l4.6-22.9l-0.1,0l7.4-36.9l4.1,0.1l4.3-12.8l4.3,14.1h2.6l7.5,37.1
		l-0.1-0.2l4.5,22.2c-3,3.5-0.3,7.3-0.3,7.3l20.9,0.5c1.8,0,2.4-2.6,0.7-3.4c-5.1-2.3-11.2-4.4-12.4-5.4H373l-2.4-22.3l-0.1,0.1
		l-5.1-45l-0.3,0l-3.1-27.9c0,0-0.4-0.1-1.1-0.2c0.7,0.1,1.1,0.1,1.1,0.2c0.6-22.1,0.7-36.9,0.7-46.8l3.7,2.8
		c0.2-0.1,0.4-0.1,0.5-0.2c11.2,18.3,11.4,43.2,11.3,49.2h0c0,0-5.4,3.6-4.3,6.1c1.1,2.5,1.8,2.5,1.4,5c-0.4,2.5,7.2,4.6,11.8,1.4
		C391.5,215.7,386.1,207.1,385.7,206.3z"/>
	<path fill="#7C8284" d="M323.7,137.2L323.7,137.2L323.7,137.2z"/>
</g>
<g>
	<path fill="#7C8284" d="M593.8,206.3c1.1-27.2-6.1-45.2-11.8-55.1c1.4-2,2.1-3.6,2.1-3.6c-5.9-10.2-12.8-12.1-14-12.4c0,0,0,0,0,0
		c-3.8-1.2-7.3-1.9-10.6-2.3l-0.3-4l3-0.2c7.6,2.1,11.2-6.4,11.5-7.1c-0.2,0.5-1.8,4.1-5.1,1.8c-3.5-2.4,5.1-13.4,0-23.1
		s-14.2-1.1-14.2-1.1c-2.9-4-8.3-6.5-15-1.9c-7,4.8-3.5,19-1.3,23.9c2.1,4.8-4,5.9-4,5.9c5.7,2.1,8.9-1.5,10-3.2l0.1,9.2
		c-3.8,0.7-6.8,1.6-9,2.5c-0.5,0.2-1.4,0.5-2.6,1.2c-0.5,0.3-0.8,0.4-0.8,0.4c0,0,0,0,0,0c-3,1.8-7.1,5.1-10.8,11.4
		c0,0,0.7,1.5,1.9,3.3c-5.9,9.2-14.5,28-13.3,57.6c-0.5,0.7-5.9,9.4-1.4,12.5c4.6,3.2,12.2,1.1,11.8-1.4c-0.4-2.5,0.4-2.6,1.4-5.1
		c1.1-2.5-4.3-6.2-4.3-6.2h0c-0.1-6,0-32.9,12.7-51.3c0.3,0.1,0.5,0.3,0.8,0.4l2.6-2c0.3,9.5,0.6,23.6,0.8,44.8
		c-0.1,0-0.1-0.1-0.2-0.1l-3.3,35.2h0.1l-4.2,36.7l-0.1,0.1l-2.5,23.3c-1.2,0.2-7.3,2.9-12.4,5.2c-1.6,0.7-1.1,3.2,0.7,3.2l20.9-0.5
		c0,0,2.9-3.9-0.4-7.5l4.6-22.9l-0.1,0l7.4-36.9l4.1,0.1l4.3-12.8l4.3,14.1h2.6l7.5,37.1l-0.1-0.2l4.5,22.2c-3,3.5-0.3,7.3-0.3,7.3
		l20.9,0.5c1.8,0,2.4-2.6,0.7-3.4c-5.1-2.3-11.2-4.4-12.4-5.4h-0.1l-2.4-22.3l-0.1,0.1l-5.1-45l-0.3,0l-3.1-27.9
		c0,0-0.4-0.1-1.1-0.2c0.7,0.1,1.1,0.1,1.1,0.2c0.6-22.1,0.7-36.9,0.7-46.8l3.7,2.8c0.2-0.1,0.4-0.1,0.5-0.2
		c11.2,18.3,11.4,43.2,11.3,49.2h0c0,0-5.4,3.6-4.3,6.1c1.1,2.5,1.8,2.5,1.4,5c-0.4,2.5,7.2,4.6,11.8,1.4
		C599.6,215.7,594.2,207.1,593.8,206.3z"/>
	<path fill="#7C8284" d="M531.8,137.2L531.8,137.2L531.8,137.2z"/>
	<path fill="#7C8284" d="M573.7,121.6C573.7,121.6,573.8,121.6,573.7,121.6C573.8,121.6,573.7,121.6,573.7,121.6z"/>
	<path fill="#7C8284" d="M573.7,121.6C573.7,121.6,573.7,121.6,573.7,121.6L573.7,121.6z"/>
</g>
<path fill="#7C8284" d="M270.5,218.1c2.1-42-15.3-62.4-20.7-67.6c0.4-1.7,0.7-2.5,0.7-2.5c-2.2-0.7-4.4-1.2-6.5-1.7
	c-2.6-0.6-5.1-0.9-7.4-1l-0.3-3.6c2.4-0.1,7.2-1.4,7.7-7.4h6c0,0,0-7.4,0-20.3s-11.7-18-16.6-9.1c0,0-12.3-9.7-16.1,2.4
	c-3.8,12.1-0.5,26.8-0.5,26.8l7.5,0.1l0.1,11.8c-1.3,0.3-2.4,0.5-3.3,0.8c0,0,0,0,0,0c-0.1,0-0.2,0-0.2,0.1c-4.8,1.4-7.3,3-7.3,3
	s0.3,0.1,0.6,0.8c-5.6,5.6-22.5,26-20.4,67.4c-0.5,0.8-5.8,9.4-1.4,12.5c4.6,3.2,12.2,1.1,11.8-1.4c-0.4-2.5,0.4-2.4,1.4-4.9
	c1.1-2.5-4.3-6-4.3-6h0c-0.1-6,0.1-36.8,15.4-55c0.7,7.7,1,19.9,0.3,39.3c0,0-4.5,13.4-5,30.5c-0.5,17.2-3.8,57.9-3.8,57.9l1.9-0.1
	l-0.5,4.4c-1.2,0.2-7.3,2.9-12.4,5.2c-1.6,0.7-1.1,3.2,0.7,3.2l20.9-0.5c0,0,2.9-3.9-0.4-7.5l1-5.1l0.9,0l8-44.8l2.3-11.4l10.6,57.3
	l1.4-0.2l1,4.8c-3,3.5-0.3,7.4-0.3,7.4l20.9,0.5c1.8,0,2.4-2.4,0.7-3.2c-5.1-2.3-11.2-5-12.4-5.2l-0.1,0l-0.6-5.4l3.2-0.4
	c0,0-4.8-74.5-7.8-86.9c-1.1-0.1-2.2-0.3-3.3-0.4c2,0.1,3.2,0.2,3.3,0.4c-0.7-11.7-0.8-21.2-0.5-28.9c2.9-1.6,3.9-3.8,3.9-6.2
	c11.9,18.4,12,45.3,11.9,50.3h0c0,0-5.4,3.5-4.3,6c1.1,2.5,1.8,2.4,1.4,4.9c-0.4,2.5,7.2,4.6,11.8,1.4
	C276.3,227.6,270.9,218.9,270.5,218.1z"/>
<path fill="#7C8284" d="M679.1,218.1c2.1-42-15.3-62.4-20.7-67.6c0.4-1.7,0.7-2.5,0.7-2.5c-2.2-0.7-4.4-1.2-6.5-1.7
	c-2.6-0.6-5.1-0.9-7.4-1l-0.3-3.6c2.4-0.1,7.2-1.4,7.7-7.4h6.3c0,0,0-7.4,0-20.3s-11.9-18-16.7-9.1c0,0-12.4-9.7-16.2,2.4
	s-0.6,26.8-0.6,26.8l7.5,0.1l0.1,11.8c-1.3,0.3-2.4,0.5-3.3,0.8c0,0,0,0,0,0c-0.1,0-0.2,0-0.2,0.1c-4.8,1.4-7.3,3-7.3,3
	s0.3,0.1,0.6,0.8c-5.6,5.6-22.5,26-20.4,67.4c-0.5,0.8-5.8,9.4-1.4,12.5c4.6,3.2,12.2,1.1,11.8-1.4c-0.4-2.5,0.4-2.4,1.4-4.9
	c1.1-2.5-4.3-6-4.3-6h0c-0.1-6,0.1-36.8,15.4-55c0.7,7.7,1,19.9,0.3,39.3c0,0-4.5,13.4-5,30.5c-0.5,17.2-3.8,57.9-3.8,57.9l1.9-0.1
	l-0.5,4.4c-1.2,0.2-7.3,2.9-12.4,5.2c-1.6,0.7-1.1,3.2,0.7,3.2l20.9-0.5c0,0,2.9-3.9-0.4-7.5l1-5.1l0.9,0l8-44.8l2.3-11.4l10.6,57.3
	l1.4-0.2l1,4.8c-3,3.5-0.3,7.4-0.3,7.4l20.9,0.5c1.8,0,2.4-2.4,0.7-3.2c-5.1-2.3-11.2-5-12.4-5.2l-0.1,0l-0.6-5.4l3.2-0.4
	c0,0-4.8-74.5-7.8-86.9c-1.1-0.1-2.2-0.3-3.3-0.4c2,0.1,3.2,0.2,3.3,0.4c-0.7-11.7-0.8-21.2-0.5-28.9c2.9-1.6,3.9-3.8,3.9-6.2
	c11.9,18.4,12,45.3,11.9,50.3h0c0,0-5.4,3.5-4.3,6c1.1,2.5,1.8,2.4,1.4,4.9c-0.4,2.5,7.2,4.6,11.8,1.4
	C684.9,227.6,679.6,218.9,679.1,218.1z"/>
<path fill="#7C8284" d="M489.7,218.1c2-40.8-14.1-61-20.1-67.1c1-1.4,1.7-1,1.7-1s-1.7-1-4.9-2.2c0,0,0-0.1,0-0.1
	c0,0-2.8-1.1-7.5-1.9l0.1-5.7c9.5,2.6,14.4-7.7,14.4-7.7s-10.7,9.4-6.4-11.3c4.3-20.6-16.1-15.6-16.1-15.6
	c-1.1-5.1-14.5-13.9-19.3-0.8c-3.8,10.2,3.9,14.1,7.4,15.3l0.4,13.3c0,5.9,5.2,8,7.7,8.1l-0.3,3.6c-2.5,0.2-5.2,0.5-8,1.2
	c-1.9,0.4-3.8,0.9-5.9,1.5c0,0,0.3,0.8,0.7,2.5c-5.4,5.2-22.7,25.4-20.7,67.7c-0.5,0.8-5.8,9.4-1.4,12.5c4.6,3.2,12.2,1.1,11.8-1.4
	c-0.4-2.5,0.4-2.4,1.4-4.9c1.1-2.5-4.3-6-4.3-6h0c-0.1-5,0-32,11.9-50.3c0,2.4,0.9,4.7,3.9,6.2c0.3,7.4,0.2,16.5-0.4,27.7
	c0,0,0,0-0.1,0c0,0-6.3,3.9-8.5,25.4c-2.1,21.5-6.4,30.7-6.4,30.7s5,2.7,13.4,4.4l-3.8,33.1l-0.1,0c-1.2,0.2-7.3,2.9-12.4,5.2
	c-1.6,0.7-1.1,3.2,0.7,3.2l20.9-0.5c0,0,2.8-3.8-0.3-7.4l6.4-32.2c3.8,0.1,7.9,0,12.3-0.7l6.5,32.4c-3.2,3.6-0.4,7.5-0.4,7.5
	l20.9,0.5c1.8,0,2.4-2.4,0.7-3.2c-5.1-2.3-11.2-5-12.4-5.2l-3.9-34.7c4-1.2,8.1-2.9,12.2-5c0,0-6.8-17.9-6.4-27.5
	c0.4-9.7-9.2-26.6-9.2-26.6s0,0,0,0c-0.7-18.7-0.3-30.4,0.4-38c15.3,18.2,15.5,48.9,15.3,54.9h0c0,0-5.4,3.5-4.3,6
	c1.1,2.5,1.8,2.4,1.4,4.9c-0.4,2.5,7.2,4.6,11.8,1.4C495.5,227.6,490.2,218.9,489.7,218.1z"/>
<path fill="#7C8284" d="M161.1,207.4c1.3-27.6-5.6-45.8-12.2-56.6c1.2-1.8,1.9-3.3,1.9-3.3c-5.9-10.2-12.8-12.1-14-12.4c0,0,0,0,0,0
	c-3.8-1.2-7.3-1.9-10.6-2.3l-0.3-4l4.4-0.3l0.4-18c0.3-0.5,2.4-3.8,2.1-10.1c-0.5-13.4-18.2-12.2-24.7-2.9
	c-6.4,9.3-0.8,16.4-0.8,16.4c-0.1,3.9,3.3,4.7,3.3,4.7l0.2,14.5c-3.8,0.7-6.8,1.6-9,2.5c-0.5,0.2-1.4,0.5-2.6,1.2
	c-0.5,0.3-0.8,0.4-0.8,0.4s0,0,0,0c-3,1.8-7.1,5.1-10.7,11.4c0,0,0.3,0.6,0.7,1.4c-6.6,10.7-14,29.1-12.6,57.4
	c-0.5,0.8-5.8,9.4-1.4,12.5c4.6,3.2,12.2,1.1,11.8-1.4c-0.4-2.5,0.4-2.5,1.4-5c1.1-2.5-4.3-6.1-4.3-6.1h0c-0.1-6,0-31.6,11.8-49.9
	c0.7,0.4,1.5,0.8,2.3,1l2.3-1.7c0,11.3-0.5,29-2.2,56.4c0,0.1,0.7,0,1.9-0.1l-9.4,79.8l1.1,0.1l-0.4,3.4c-1.2,0.2-7.3,2.9-12.4,5.2
	c-1.6,0.7-1.1,3.2,0.7,3.2l20.9-0.5c0,0,2.9-3.9-0.4-7.5l0.5-2.7l2,0.2l17.9-70.4l16.4,70.4l1.8-0.1l0.6,3c-3,3.5-0.3,7.4-0.3,7.4
	l20.9,0.5c1.8,0,2.4-2.4,0.7-3.2c-5.1-2.3-11.2-5-12.4-5.2l-0.1,0l-0.3-2.8l1.5,0L137.4,207c0,0,0,0,0.1,0c0.2-23.1,0-40.6-0.2-52.6
	l3.8,2.9c0.2-0.1,0.3-0.1,0.5-0.2c11.9,18.4,12,44.2,11.9,50.2h0c0,0-5.4,3.6-4.3,6.1c1.1,2.5,1.8,2.5,1.4,5
	c-0.4,2.5,7.2,4.7,11.8,1.4C166.9,216.8,161.5,208.2,161.1,207.4z M130.8,109.4l0.2-7.6C131.2,101.8,130.9,107,130.8,109.4z"/>
<polygon fill="#D89F79" points="533.8,241 526,309.3 535,309.6 548.9,239.9 "/>
<polygon fill="#D89F79" points="561.5,239.9 569.3,308.2 560.4,308.5 546.4,238.8 "/>
<path fill="#F2A94C" d="M531.4,214.9c0,0-6.3,3.9-8.5,25.4s-6.4,30.7-6.4,30.7s27.5,14.7,61.1-2.5c0,0-6.8-17.9-6.4-27.5
	c0.4-9.7-9.2-26.6-9.2-26.6S543.1,203.1,531.4,214.9z"/>
<path fill="#D89F79" d="M562.9,161.6c0,0,25,19.7,22.2,69.7h-7.5c0,0,1.8-37-16.4-57L562.9,161.6z"/>
<path fill="#D89F79" d="M577.6,230.3c0,0-5.4,3.9-4.3,6.4c1.1,2.5,1.8,2.7,1.4,5.2c-0.4,2.5,7.2,4.4,11.8,1.2s-1.4-12.7-1.4-12.7
	H577.6z"/>
<polygon points="538,151.3 538,161.2 544.7,159.5 544.8,151.3 "/>
<path fill="#D89F79" d="M650.3,158.1l-13.7,15.3l-11-19.6l-4.6,3.5l10.3,27.2c0.9,2.3,3.8,3,5.6,1.3l22.1-21L650.3,158.1z"/>
<ellipse fill="#D89F79" cx="624.5" cy="153" rx="3" ry="5"/>
<polygon fill="#D89F79" points="696.7,243.1 704.5,311.4 695.6,311.8 681.6,242 "/>
<polygon fill="#D89F79" points="655.1,242 647.3,310.3 656.2,310.7 670.2,241 "/>
<path fill="#5FC4CC" d="M657.3,215.2l-10.8,91.5l12.2,1.4l17.9-70.4l16.4,70.4l12.5-0.4l-12.2-92.6
	C693.3,215.2,666.7,209.1,657.3,215.2z"/>
<path fill="#FCFCFC" d="M655.5,319.6"/>
<path fill="#333333" d="M647.3,310.3c-1.2,0.2-7.3,2.9-12.4,5.2c-1.6,0.8-1.1,3.2,0.7,3.2l20.9-0.5c0,0,2.9-3.9-0.4-7.5L647.3,310.3
	z"/>
<path fill="#333333" d="M704.5,310.7c1.2,0.2,7.3,2.9,12.4,5.2c1.6,0.8,1.1,3.2-0.7,3.2l-20.9-0.5c0,0-2.9-3.9,0.4-7.5L704.5,310.7z
	"/>
<path fill="#D89F79" d="M702.5,158.1l13.7,15.3l11-19.6l4.6,3.5l-10.3,27.2c-0.9,2.3-3.8,3-5.6,1.3l-22.1-21L702.5,158.1z"/>
<path fill="#F2A94C" d="M655.1,151.2c0,0,15.4-9.3,38.3-2.1c0,0,1.1,24,0.7,71.9c-0.3-1.1-40.1,6.8-40,6.1
	C658.4,159.5,655.1,151.2,655.1,151.2z"/>
<path fill="#D89F79" d="M687.6,115.8l-0.7,26.8l-4.4,0.3l0.5,7.5c0,0-7.1,6.8-15.6-0.9l-0.2-16.8c0,0-3.4-0.8-3.3-4.7
	c0.1-3.9,4-1.9,4-1.9l0.3-10.7L687.6,115.8z"/>
<path fill="#D89F79" d="M667.7,149.6l10,8.2l5.4-7.3C683.1,150.5,672.9,149.6,667.7,149.6z"/>
<path fill="#F2A94C" d="M659,149.4c0,0-8.2,2-14.6,13.1c0,0,3.5,7.9,9.7,9.8l7.2-5.5L659,149.4z"/>
<path fill="#F2A94C" d="M693.3,149.1c0,0,7.7,1.3,14.2,12.4c0,0-3.5,7.9-9.7,9.8l-7.2-5.5L693.3,149.1z"/>
<path d="M668,126l-0.1,9l4.1-0.2l-0.4-13.6c0,0-0.7-5.4,16-5.4c0.3,0-0.3,8.8-0.3,8.8s2.4-3.4,2.1-10.2
	c-0.5-13.4-18.2-12.2-24.7-2.9s-0.8,16.4-0.8,16.4S665.3,124.7,668,126z"/>
<path fill="#FCFCFC" d="M627.6,10.7"/>
<ellipse fill="#D89F79" cx="728.3" cy="153" rx="3" ry="5"/>
<rect x="621.6" y="55.8" fill="#EB5E27" width="2.9" height="141.6"/>
<rect x="491.4" y="59.3" fill="#EB5E27" width="2.9" height="141.6"/>
<rect x="728.8" y="55.8" fill="#EB5E27" width="2.9" height="141.6"/>
<ellipse fill="#D89F79" cx="619.9" cy="154.3" rx="3.4" ry="7"/>
<ellipse fill="#D89F79" cx="732.9" cy="154.3" rx="3.4" ry="7"/>
<path fill="#FCFCFC" d="M561.1,317.5"/>
<path fill="#333333" d="M569.3,308.2c1.2,0.2,7.3,2.9,12.4,5.2c1.6,0.8,1.1,3.2-0.7,3.2L560,316c0,0-2.9-3.9,0.4-7.5L569.3,308.2z"
	/>
<path fill="#333333" d="M526.1,308.5c-1.2,0.2-7.3,2.9-12.4,5.2c-1.6,0.8-1.1,3.2,0.7,3.2l20.9-0.5c0,0,2.9-3.9-0.4-7.5L526.1,308.5
	z"/>
<path fill="#D89F79" d="M532.2,160.2L508,184.1l-11-19.6l-4.6,3.5l10.3,27.2c0.9,2.3,3.8,3,5.6,1.3l22.1-21L532.2,160.2z"/>
<path fill="#4FB3A6" d="M566.8,163c0,0-15.4-9.3-38.3-2.1c0,0,5.3,14.6,2.8,55.1c0.3-1.1,30.6,0.2,30.6-0.5
	C559.8,158.8,566.8,163,566.8,163z"/>
<path fill="#D89F79" d="M534.4,127.6l0.5,18.9c0,5.9,5.2,8,7.7,8.1l0,0l-0.5,7.5c0,0,3.9,6.8,12.4-0.9l0.2-16.8c0,0,3.4-0.8,3.3-4.7
	c-0.1-3.9-4-1.9-4-1.9l-0.3-10.7L534.4,127.6z"/>
<path fill="#D89F79" d="M554.3,161.4l-10,8.2l-5.4-7.3C538.9,162.3,549.1,161.4,554.3,161.4z"/>
<ellipse fill="#D89F79" cx="495.8" cy="163.7" rx="3" ry="5"/>
<ellipse fill="#D89F79" cx="491.2" cy="165" rx="3.4" ry="7"/>
<path fill="#F2F2F2" d="M619.1,97.3H735V1.4c0,0-56.9-3.4-115.5,0.2C619.5,1.6,619.1,98.3,619.1,97.3z"/>
<g>
	<path d="M636.8,16l0.6,10.1v11.7H633V26.1l0.6-10.1H636.8z M633,14V9.7h4.2V14H633z"/>
	<path d="M639.3,9.7h13.6v4h-4.6v24h-4.4v-24h-4.6V9.7z"/>
	<path d="M654.8,9.7h4.4v28h-4.4V9.7z"/>
	<path d="M666.8,21.6h6v4h-6v8.2h7.6v4h-12v-28h12v4h-7.6V21.6z"/>
	<path d="M686.4,37.8c-0.2-0.7-0.4-1.2-0.4-3.4v-4.4c0-2.6-0.9-3.6-2.9-3.6h-1.5v11.4h-4.4v-28h6.6c4.6,0,6.5,2.1,6.5,6.4v2.2
		c0,2.9-0.9,4.8-2.9,5.7c2.2,0.9,2.9,3,2.9,6v4.3c0,1.4,0,2.4,0.5,3.4H686.4z M681.6,13.8v8.6h1.7c1.6,0,2.6-0.7,2.6-3v-2.8
		c0-2-0.7-2.9-2.2-2.9H681.6z"/>
	<path d="M702.5,37.8c-0.2-0.7-0.4-1.2-0.4-3.4v-4.4c0-2.6-0.9-3.6-2.9-3.6h-1.5v11.4h-4.4v-28h6.6c4.6,0,6.5,2.1,6.5,6.4v2.2
		c0,2.9-0.9,4.8-2.9,5.7c2.2,0.9,2.9,3,2.9,6v4.3c0,1.4,0,2.4,0.5,3.4H702.5z M697.7,13.8v8.6h1.7c1.6,0,2.6-0.7,2.6-3v-2.8
		c0-2-0.7-2.9-2.2-2.9H697.7z"/>
	<path d="M723.6,37.8h-4.4l-0.8-5.1H713l-0.8,5.1h-4l4.5-28h6.4L723.6,37.8z M713.6,28.9h4.2l-2.1-14.2L713.6,28.9z"/>
	<path d="M665.8,46.6v2.9c0,3.6-1.7,5.6-5.3,5.6h-1.7v8.5h-3.6V41h5.2C664,41,665.8,43,665.8,46.6z M658.8,44.2v7.7h1.7
		c1.1,0,1.7-0.5,1.7-2.1v-3.4c0-1.6-0.6-2.1-1.7-2.1H658.8z"/>
	<path d="M678.7,63.7h-3.6l-0.6-4.1h-4.4l-0.6,4.1h-3.3l3.6-22.7h5.2L678.7,63.7z M670.6,56.5h3.4L672.3,45L670.6,56.5z"/>
	<path d="M687.8,63.7c-0.2-0.6-0.3-0.9-0.3-2.8v-3.6c0-2.1-0.7-2.9-2.3-2.9h-1.2v9.2h-3.6V41h5.4c3.7,0,5.3,1.7,5.3,5.2V48
		c0,2.3-0.7,3.9-2.3,4.6c1.8,0.7,2.4,2.5,2.4,4.8v3.5c0,1.1,0,1.9,0.4,2.8H687.8z M683.9,44.2v7h1.4c1.3,0,2.1-0.6,2.1-2.4v-2.2
		c0-1.6-0.6-2.3-1.8-2.3H683.9z"/>
	<path d="M704.9,63.7h-3.6l-0.6-4.1h-4.4l-0.6,4.1h-3.3l3.6-22.7h5.2L704.9,63.7z M696.8,56.5h3.4L698.5,45L696.8,56.5z"/>
	<path d="M644.9,66.6H656v3.3h-3.8v19.8h-3.6V69.9h-3.8V66.6z"/>
	<path d="M657.3,72.1c0-3.7,1.9-5.8,5.5-5.8c3.6,0,5.5,2.1,5.5,5.8v12c0,3.7-1.9,5.8-5.5,5.8c-3.6,0-5.5-2.1-5.5-5.8V72.1z
		 M661,84.3c0,1.6,0.7,2.3,1.9,2.3s1.9-0.6,1.9-2.3V71.9c0-1.6-0.7-2.3-1.9-2.3s-1.9,0.6-1.9,2.3V84.3z"/>
	<path d="M670.7,66.6h5.7c3.6,0,5.4,2,5.4,5.7v11.7c0,3.7-1.8,5.7-5.4,5.7h-5.7V66.6z M674.3,69.9v16.5h2c1.2,0,1.8-0.6,1.8-2.2v-12
		c0-1.6-0.7-2.2-1.8-2.2H674.3z"/>
	<path d="M683.8,72.1c0-3.7,1.9-5.8,5.5-5.8c3.6,0,5.5,2.1,5.5,5.8v12c0,3.7-1.9,5.8-5.5,5.8c-3.6,0-5.5-2.1-5.5-5.8V72.1z
		 M687.4,84.3c0,1.6,0.7,2.3,1.9,2.3s1.9-0.6,1.9-2.3V71.9c0-1.6-0.7-2.3-1.9-2.3s-1.9,0.6-1.9,2.3V84.3z"/>
	<path d="M702,66.3c3.5,0,5.3,2.1,5.3,5.8v0.7h-3.4v-1c0-1.6-0.7-2.3-1.8-2.3c-1.2,0-1.8,0.6-1.8,2.3c0,4.7,7.1,5.6,7.1,12.2
		c0,3.7-1.8,5.8-5.4,5.8c-3.6,0-5.4-2.1-5.4-5.8v-1.4h3.4v1.6c0,1.6,0.7,2.2,1.9,2.2s1.9-0.6,1.9-2.2c0-4.7-7.1-5.6-7.1-12.2
		C696.7,68.4,698.5,66.3,702,66.3z"/>
	<path d="M709.9,84.5l-0.5-8.3v-9.6h3.6v9.6l-0.5,8.3H709.9z M713,86.1v3.5h-3.5v-3.5H713z"/>
</g>
<path fill="#D89F79" d="M40.1,158.1l-13.7,15.3l-11-19.6l-4.6,3.5l10.3,27.2c0.9,2.3,3.8,3,5.6,1.3l22.1-21L40.1,158.1z"/>
<ellipse fill="#D89F79" cx="14.2" cy="153" rx="3" ry="5"/>
<polygon fill="#D89F79" points="86.5,243.1 94.2,311.4 85.3,311.8 71.3,242 "/>
<polygon fill="#D89F79" points="44.8,242 37,310.3 46,310.7 59.9,241 "/>
<path fill="#5FC4CC" d="M47.1,215.2l-10.8,91.5l12.2,1.4l17.9-70.4l16.4,70.4l12.5-0.4l-12.2-92.6C83.1,215.2,56.4,209.1,47.1,215.2
	z"/>
<path fill="#FCFCFC" d="M45.2,319.6"/>
<path fill="#333333" d="M37,310.3c-1.2,0.2-7.3,2.9-12.4,5.2c-1.6,0.8-1.1,3.2,0.7,3.2l20.9-0.5c0,0,2.9-3.9-0.4-7.5L37,310.3z"/>
<path fill="#333333" d="M94.2,310.7c1.2,0.2,7.3,2.9,12.4,5.2c1.6,0.8,1.1,3.2-0.7,3.2l-20.9-0.5c0,0-2.9-3.9,0.4-7.5L94.2,310.7z"
	/>
<path fill="#D89F79" d="M92.2,158.1l13.7,15.3l11-19.6l4.6,3.5l-10.3,27.2c-0.9,2.3-3.8,3-5.6,1.3l-22.1-21L92.2,158.1z"/>
<path fill="#F2A94C" d="M44.8,151.2c0,0,15.4-9.3,38.3-2.1c0,0,1.1,24,0.7,71.9c-0.3-1.1-40.1,6.8-40,6.1
	C48.1,159.5,44.8,151.2,44.8,151.2z"/>
<path fill="#D89F79" d="M77.3,115.8l-0.7,26.8l-4.4,0.3l0.5,7.5c0,0-7.1,6.8-15.6-0.9L57,132.6c0,0-3.4-0.8-3.3-4.7
	c0.1-3.9,4-1.9,4-1.9l0.3-10.7L77.3,115.8z"/>
<path fill="#D89F79" d="M57.4,149.6l10,8.2l5.4-7.3C72.8,150.5,62.6,149.6,57.4,149.6z"/>
<path fill="#F2A94C" d="M48.7,149.4c0,0-8.2,2-14.6,13.1c0,0,3.5,7.9,9.7,9.8l7.2-5.5L48.7,149.4z"/>
<path fill="#F2A94C" d="M83,149.1c0,0,7.7,1.3,14.2,12.4c0,0-3.5,7.9-9.7,9.8l-7.2-5.5L83,149.1z"/>
<path d="M57.7,126l-0.1,9l4.1-0.2l-0.4-13.6c0,0-0.7-5.4,16-5.4c0.3,0-0.3,8.8-0.3,8.8s2.7-3.4,2.1-10.2c-0.5-7-18.2-12.2-24.7-2.9
	s-0.8,16.4-0.8,16.4S55,124.7,57.7,126z"/>
<ellipse fill="#D89F79" cx="118" cy="153" rx="3" ry="5"/>
<rect x="11.3" y="55.8" fill="#EB5E27" width="2.9" height="141.6"/>
<rect x="118.5" y="55.8" fill="#EB5E27" width="2.9" height="141.6"/>
<ellipse fill="#D89F79" cx="9.6" cy="154.3" rx="3.4" ry="7"/>
<ellipse fill="#D89F79" cx="122.6" cy="154.3" rx="3.4" ry="7"/>
<path fill="#F2F2F2" d="M5.7,96.9c0,0,62.3,11.8,121.3,0c0,1.8,0-91.2,0-91.2s-59.2,7.9-121,0C6,5.7,5.7,98,5.7,96.9z"/>
<path fill="#D89F79" d="M533.3,159.6c0,0-1.3,10.2,1.6,14.5l21.2,0.5c0,0,5.1-8,5.9-13.9C562,160.7,549.4,155.6,533.3,159.6z"/>
<path fill="#4FB3A6" d="M530.8,172.5c0,0-7.2,10.5,1.3,14.7c8.6,4.3,16.4,0,16.4,0L530.8,172.5z"/>
<path d="M538.1,120.5c-3.4,1.3-6.2,2.7-6.4,13.1l12.9-0.5l1.9-5.6l0.5,6.7l6.7-0.5l0.3,4.1c0,0,3.1-1.9,4,2.2c0.3,3-3.3,4.4-3.3,4.4
	l-0.2,13.9l5.6,1.6c0,0,5.4-22.8,1.3-30.8C557.4,121,550,115.9,538.1,120.5z"/>
<g>
	<polygon fill="#D89F79" points="192.6,246.3 200.4,314.6 191.5,315 177.5,245.3 	"/>
	<polygon fill="#D89F79" points="164.9,245.3 157.2,313.5 166.1,313.9 180,244.2 	"/>
	<path fill="#D89F79" d="M163.5,167.8c0,0-25,19.5-22.2,70.5h7.5c0,0-1.8-37.4,16.4-57.4L163.5,167.8z"/>
	<path fill="#D89F79" d="M148.8,235.3c0,0,5.4,4.1,4.3,6.6c-1.1,2.5-1.8,2.8-1.4,5.3c0.4,2.5-7.2,4.3-11.8,1.1s1.4-12.9,1.4-12.9
		H148.8z"/>
	<polygon points="189,156.3 189,166.6 182,164.7 181.7,156.3 	"/>
	<rect x="232.2" y="64.7" fill="#EB5E27" width="2.9" height="141.6"/>
	<path fill="#FCFCFC" d="M165.4,322.8"/>
	<path fill="#333333" d="M157.2,313.5c-1.2,0.2-7.3,2.9-12.4,5.2c-1.6,0.8-1.1,3.2,0.7,3.2l20.9-0.5c0,0,2.9-3.9-0.4-7.5
		L157.2,313.5z"/>
	<path fill="#333333" d="M200.4,313.9c1.2,0.2,7.3,2.9,12.4,5.2c1.6,0.8,1.1,3.2-0.7,3.2l-20.9-0.5c0,0-2.9-3.9,0.4-7.5L200.4,313.9
		z"/>
	<path fill="#D89F79" d="M194.3,165.5l24.2,23.9l11-19.6l4.6,3.5l-10.3,27.2c-0.9,2.3-3.8,3-5.6,1.3l-22.1-21L194.3,165.5z"/>
	<path fill="#4FB3A6" d="M161.1,168.2c0,0,13.9-9.1,36.8-2c0,0-5.3,14.6-2.8,55.1c-0.3-1.1-30.6,0.2-30.6-0.5
		C166.4,170.4,161.1,168.2,161.1,168.2z"/>
	<path fill="#D89F79" d="M192.1,132.9l-0.5,18.9c0,5.9-5.2,8-7.7,8.1l0,0l0.5,7.5c0,0-3.9,6.8-12.4-0.9l-0.2-16.8
		c0,0-3.4-0.8-3.3-4.7s4-1.9,4-1.9l0.3-10.7L192.1,132.9z"/>
	<path fill="#D89F79" d="M172.2,166.8l10,8.2l5.4-7.3C187.5,167.7,177.4,166.8,172.2,166.8z"/>
	<ellipse fill="#D89F79" cx="230.6" cy="169.1" rx="3" ry="5"/>
	<ellipse fill="#D89F79" cx="235.3" cy="170.4" rx="3.4" ry="7"/>
	<path fill="#D89F79" d="M193.2,165c0,0,1.3,10.2-1.6,14.5l-21.2,0.5c0,0-3.7-8-4.5-13.9C165.9,166.1,177.1,161,193.2,165z"/>
	<path fill="#4FB3A6" d="M195.6,177.9c0,0,7.2,10.5-1.3,14.7c-8.6,4.3-16.4,0-16.4,0L195.6,177.9z"/>
	<path fill="#5EC6BD" d="M164.5,220.8c0,0-4.5,13.4-5,30.6c-0.5,17.2-3.8,57.9-3.8,57.9l12.3-0.5l10.2-56.8l10.7,57.9l13.9-1.6
		c0,0-4.8-74.5-7.8-86.9C179.3,219.2,164.5,220.8,164.5,220.8z"/>
	<path d="M173.8,144.7c0,0,1.7-0.4,1.5-5c0,0,3.5-0.5,1.9-4.6c0,0,5.4,1.1,5.6-2.4c0,0,2.7,3.2,5.1,0.3c0,0,1.9,2.9,4.6,1.1
		l-1.1,20.6c0,0-1.6,2.1-4.3,4l0.8,3.8c0,0,5.4,0,5.9-4.6c0,0,4.6-1.9,2.1-7.2c0,0,5.6-2.1,1.6-6.7c0,0,4.3-2.9,0.8-7
		c0,0,3.8-5.6-2.1-8.3c0,0-2.4-7.2-8.6-3.2c0,0-4-3.5-8.3-0.5c0,0-5.4-2.9-7.8,2.9c0,0-4.8-0.8-5.1,6.4c0,0-4.6,2.7-1.3,8.8
		c0,0-4,3.5-0.8,8c0,0-3.2,3.2-0.3,6.7c0,0-2.1,4.8,2.4,7.5l8.3-1.9c0,0,2.9-2.4,0.3-6.2c0,0,2.9-4.3-0.8-5.6
		C174.2,151.9,176.4,148.6,173.8,144.7z"/>
</g>
<path fill="#F2F2F2" d="M232.2,63.6c0,0,148.8,16.1,261.8-4.3v86.9c0,0-133.9,33.2-262.6-5.4C231.4,140.9,230.9,62.3,232.2,63.6z"/>
<g>
	<g>
		<path d="M273,76.9c2.3,0.2,4.6,0.5,6.9,0.7c4.4,0.4,6.3,3,5.9,7.4c-0.4,4.7-0.8,9.3-1.2,14c-0.4,4.4-2.8,6.7-7.3,6.2
			c-2.4-0.2-4.7-0.5-7.1-0.7C271.1,95.3,272.1,86.1,273,76.9z M277,81.3c-0.6,6.6-1.3,13.2-1.9,19.7c0.8,0.1,1.7,0.2,2.5,0.2
			c1.4,0.1,2.3-0.5,2.5-2.5c0.4-4.8,0.9-9.6,1.3-14.4c0.2-2-0.6-2.8-2-2.9C278.7,81.5,277.8,81.4,277,81.3z"/>
		<path d="M292.6,90.5c2,0.2,4,0.3,6.1,0.5c-0.1,1.3-0.2,2.6-0.3,4c-2-0.1-4.1-0.3-6.1-0.5c-0.2,2.7-0.4,5.4-0.6,8.1
			c2.6,0.2,5.2,0.4,7.7,0.6c-0.1,1.3-0.2,2.6-0.3,4c-4.1-0.3-8.2-0.6-12.3-1c0.8-9.2,1.6-18.5,2.4-27.7c4,0.3,7.9,0.6,11.9,0.9
			c-0.1,1.3-0.2,2.6-0.3,4c-2.5-0.2-5-0.4-7.6-0.6C293.1,85.3,292.9,87.9,292.6,90.5z"/>
		<path d="M307.4,92.2c1.9,0.1,3.8,0.2,5.7,0.3c-0.1,1.3-0.1,2.6-0.2,4c-1.9-0.1-3.8-0.2-5.7-0.3c-0.2,3.8-0.5,7.6-0.7,11.4
			c-1.5-0.1-3-0.2-4.5-0.3c0.6-9.2,1.3-18.5,1.9-27.7c3.9,0.3,7.7,0.5,11.6,0.7c-0.1,1.3-0.1,2.6-0.2,4c-2.4-0.1-4.8-0.3-7.2-0.4
			C307.8,86.6,307.6,89.4,307.4,92.2z"/>
		<path d="M321.3,92.3c2,0.1,4.1,0.2,6.1,0.3c-0.1,1.3-0.1,2.6-0.2,4c-2-0.1-4.1-0.2-6.1-0.3c-0.1,2.7-0.3,5.4-0.4,8.1
			c2.6,0.1,5.2,0.2,7.8,0.3c-0.1,1.3-0.1,2.6-0.2,4c-4.1-0.2-8.2-0.3-12.3-0.6c0.5-9.2,1-18.5,1.5-27.7c4,0.2,7.9,0.4,11.9,0.5
			c-0.1,1.3-0.1,2.6-0.2,4c-2.5-0.1-5.1-0.2-7.6-0.3C321.5,87.1,321.4,89.7,321.3,92.3z"/>
		<path d="M335.8,88.8c-0.2,6.7-0.4,13.4-0.6,20.1c-1.4,0-2.7-0.1-4.1-0.1c0.3-9.3,0.7-18.5,1-27.8c1.8,0.1,3.7,0.1,5.5,0.2
			c1.3,5.6,2.7,11.2,4.1,16.7c0.1-5.5,0.3-11.1,0.4-16.6c1.3,0,2.6,0.1,3.9,0.1c-0.2,9.3-0.4,18.5-0.5,27.8c-1.5,0-3.1-0.1-4.6-0.1
			C339,102.3,337.4,95.6,335.8,88.8z"/>
		<path d="M349.1,81.5c2.3,0,4.6,0.1,6.9,0.1c4.4,0,6.5,2.4,6.5,6.9c0,4.7,0,9.4,0,14c0,4.4-2.2,6.9-6.7,6.8c-2.4,0-4.8,0-7.1-0.1
			C348.8,100,348.9,90.7,349.1,81.5z M353.4,85.5c-0.1,6.6-0.1,13.2-0.2,19.8c0.8,0,1.7,0,2.5,0c1.4,0,2.3-0.7,2.3-2.7
			c0-4.8,0.1-9.6,0.1-14.4c0-2-0.8-2.7-2.2-2.7C355,85.5,354.2,85.5,353.4,85.5z"/>
		<path d="M379.9,109.2c-1.5,0-3,0.1-4.6,0.1c-0.3-1.7-0.6-3.4-0.8-5c-1.8,0-3.7,0-5.5,0.1c-0.2,1.7-0.5,3.4-0.7,5
			c-1.4,0-2.8,0-4.1,0c1.5-9.3,3-18.5,4.4-27.8c2.1,0,4.3,0,6.4-0.1C376.6,90.7,378.2,100,379.9,109.2z M369.6,100.5
			c1.4,0,2.9,0,4.3,0c-0.8-4.7-1.5-9.3-2.3-14C370.9,91.1,370.2,95.8,369.6,100.5z"/>
		<path d="M391.3,100.8c0.8-6.6,1.6-13.2,2.4-19.8c2-0.1,4.1-0.1,6.1-0.2c0.4,9.3,0.8,18.5,1.2,27.8c-1.4,0.1-2.8,0.1-4.3,0.2
			c-0.2-6.6-0.5-13.3-0.7-19.9c-0.8,6.7-1.6,13.3-2.4,20c-1.4,0-2.8,0.1-4.3,0.1c-1.3-6.5-2.6-13-3.9-19.5
			c0.2,6.5,0.3,13.1,0.5,19.6c-1.3,0-2.6,0.1-3.9,0.1c-0.2-9.3-0.4-18.5-0.6-27.8c2,0,4.1-0.1,6.1-0.1
			C388.7,87.8,390,94.3,391.3,100.8z"/>
		<path d="M402.9,87.3c-0.2-4.4,2-7.1,6.3-7.3c4.3-0.2,6.8,2.2,7.1,6.6c0.3,4.8,0.6,9.6,0.9,14.4c0.3,4.4-2,7.1-6.4,7.4
			c-4.4,0.2-7-2.2-7.2-6.6C403.3,97,403.1,92.1,402.9,87.3z M408,101.8c0.1,2,1,2.7,2.5,2.6c1.4-0.1,2.3-0.9,2.2-2.9
			c-0.3-5-0.6-10-0.8-15c-0.1-2-1-2.7-2.4-2.6c-1.4,0.1-2.2,0.9-2.1,2.9C407.5,91.8,407.8,96.8,408,101.8z"/>
		<path d="M424.5,79.1c4.2-0.3,6.6,2.1,7,6.5c0,0.3,0,0.6,0.1,0.9c-1.4,0.1-2.8,0.2-4.2,0.3c0-0.4-0.1-0.8-0.1-1.1
			c-0.1-2-1-2.7-2.4-2.6c-1.4,0.1-2.1,0.9-2,2.9c0.4,5.7,9.1,6.2,9.7,14.1c0.3,4.4-1.7,7.1-6.2,7.5c-4.4,0.3-6.9-2.1-7.2-6.5
			c0-0.6-0.1-1.1-0.1-1.7c1.4-0.1,2.8-0.2,4.2-0.3c0,0.7,0.1,1.3,0.1,2c0.1,2,1.1,2.6,2.5,2.5c1.4-0.1,2.3-0.9,2.1-2.9
			c-0.4-5.7-9.2-6.2-9.7-14.1C418.2,82.1,420.3,79.4,424.5,79.1z"/>
		<path d="M456.6,104.5c-1.5,0.2-3,0.3-4.5,0.5c-0.4-1.6-0.8-3.3-1.3-4.9c-1.8,0.2-3.7,0.4-5.5,0.5c-0.1,1.7-0.2,3.4-0.3,5.1
			c-1.4,0.1-2.8,0.2-4.1,0.4c0.7-9.4,1.4-18.7,2-28.1c2.1-0.2,4.3-0.4,6.4-0.6C451.7,86.4,454.1,95.4,456.6,104.5z M445.6,96.7
			c1.4-0.1,2.9-0.3,4.3-0.4c-1.2-4.6-2.3-9.2-3.5-13.8C446.1,87.3,445.8,92,445.6,96.7z"/>
		<path d="M266.6,120c-0.7,6.7-1.4,13.3-2.1,20c-1.4-0.1-2.8-0.3-4.2-0.5c1-9.2,2-18.4,3-27.6c1.9,0.2,3.8,0.4,5.7,0.6
			c1,5.7,2,11.3,3,17c0.5-5.5,1.1-11,1.6-16.5c1.3,0.1,2.7,0.3,4,0.4c-0.9,9.2-1.7,18.4-2.6,27.7c-1.6-0.2-3.2-0.3-4.8-0.5
			C269,133.7,267.8,126.8,266.6,120z"/>
		<path d="M285.3,114.1c-0.6,7.1-1.2,14.2-1.8,21.4c-0.2,2,0.7,2.8,2.2,2.9c1.5,0.1,2.5-0.5,2.6-2.5c0.6-7.1,1.1-14.2,1.7-21.4
			c1.4,0.1,2.9,0.2,4.3,0.3c-0.5,7-1.1,14.1-1.6,21.1c-0.3,4.4-2.9,6.8-7.5,6.4c-4.6-0.4-6.8-3.1-6.3-7.6c0.6-7,1.3-14,1.9-21.1
			C282.3,113.8,283.8,113.9,285.3,114.1z"/>
		<path d="M301.2,127c2.1,0.1,4.2,0.3,6.3,0.4c-0.1,1.3-0.2,2.6-0.2,4c-2.1-0.1-4.2-0.3-6.3-0.4c-0.2,2.7-0.4,5.4-0.5,8.1
			c2.7,0.2,5.4,0.4,8.1,0.5c-0.1,1.3-0.2,2.6-0.2,4c-4.3-0.3-8.5-0.5-12.8-0.8c0.7-9.2,1.3-18.5,2-27.7c4.1,0.3,8.3,0.6,12.4,0.8
			c-0.1,1.3-0.2,2.6-0.2,4c-2.6-0.2-5.3-0.3-7.9-0.5C301.5,121.9,301.3,124.4,301.2,127z"/>
		<path d="M318.7,116c4.4,0.2,6.6,2.8,6.4,7.3c0,0.3,0,0.6,0,0.9c-1.4-0.1-2.9-0.1-4.3-0.2c0-0.4,0-0.8,0.1-1.1
			c0.1-2-0.7-2.8-2.2-2.8c-1.5-0.1-2.3,0.6-2.4,2.6c-0.3,5.7,8.7,7.2,8.3,15.1c-0.2,4.4-2.7,6.9-7.3,6.7c-4.6-0.2-6.9-2.9-6.6-7.3
			c0-0.6,0.1-1.1,0.1-1.7c1.5,0.1,2.9,0.2,4.4,0.2c0,0.7-0.1,1.3-0.1,2c-0.1,2,0.8,2.7,2.3,2.8c1.5,0.1,2.5-0.6,2.5-2.6
			c0.3-5.7-8.7-7.2-8.3-15.2C311.9,118.2,314.3,115.8,318.7,116z"/>
		<path d="M326.7,116.7c4.7,0.2,9.4,0.3,14.1,0.5c0,1.3-0.1,2.6-0.1,4c-1.6,0-3.2-0.1-4.8-0.1c-0.2,7.9-0.5,15.9-0.7,23.8
			c-1.6,0-3.1-0.1-4.7-0.2c0.3-7.9,0.6-15.9,0.8-23.8c-1.6-0.1-3.2-0.1-4.8-0.2C326.6,119.3,326.7,118,326.7,116.7z"/>
		<path d="M352,145.1c-0.2-0.7-0.4-1.2-0.4-3.4c0-1.5,0-2.9,0.1-4.4c0-2.6-0.9-3.5-3-3.6c-0.5,0-1.1,0-1.6,0
			c-0.1,3.8-0.1,7.5-0.2,11.3c-1.6,0-3.1-0.1-4.7-0.1c0.2-9.3,0.4-18.5,0.6-27.8c2.3,0.1,4.6,0.1,6.9,0.1c4.7,0.1,6.7,2.2,6.7,6.5
			c0,0.7,0,1.5,0,2.2c0,2.9-1,4.7-3.1,5.6c2.3,0.9,3,3,3,5.9c0,1.4,0,2.9,0,4.3c0,1.4,0,2.3,0.5,3.4
			C355.2,145.1,353.6,145.1,352,145.1z M347.3,121.2c0,2.8-0.1,5.7-0.1,8.5c0.6,0,1.2,0,1.8,0c1.7,0,2.8-0.7,2.8-2.9
			c0-0.9,0-1.8,0-2.7c0-2-0.7-2.9-2.3-2.9C348.8,121.2,348,121.2,347.3,121.2z"/>
		<path d="M359,124c0-4.4,2.5-7,6.9-7c4.5,0,6.9,2.5,7,6.9c0.1,4.8,0.1,9.6,0.2,14.4c0.1,4.4-2.4,7-7.1,7c-4.6,0-7.1-2.5-7.1-7
			C359,133.7,359,128.9,359,124z M363.6,138.8c0,2,0.9,2.7,2.4,2.7c1.5,0,2.4-0.8,2.4-2.7c0-5-0.1-10-0.1-15c0-2-0.9-2.7-2.4-2.7
			c-1.5,0-2.4,0.8-2.4,2.7C363.6,128.8,363.6,133.8,363.6,138.8z"/>
		<path d="M381.9,116.9c4.4-0.1,6.8,2.4,6.9,6.8c0,0.3,0,0.6,0,0.9c-1.4,0-2.9,0.1-4.3,0.1c0-0.4,0-0.8,0-1.2c0-2-0.9-2.7-2.3-2.7
			c-1.5,0-2.3,0.8-2.2,2.8c0.1,5.7,9.1,6.6,9.4,14.5c0.1,4.4-2.2,7.1-6.8,7.2c-4.6,0.1-7-2.4-7.1-6.9c0-0.6,0-1.1,0-1.7
			c1.5,0,2.9,0,4.4-0.1c0,0.7,0,1.3,0,2c0,2,1,2.7,2.5,2.7c1.5,0,2.4-0.8,2.4-2.8c-0.1-5.7-9.2-6.6-9.3-14.6
			C375.3,119.5,377.5,117,381.9,116.9z"/>
		<path d="M403.5,144.3c-1.6,0.1-3.1,0.1-4.7,0.2c-0.4-9.3-0.7-18.5-1.1-27.8c1.5-0.1,3-0.1,4.6-0.2c0.2,4,0.3,7.9,0.5,11.9
			c1.7-0.1,3.5-0.2,5.2-0.2c-0.2-4-0.4-7.9-0.6-11.9c1.5-0.1,3.1-0.2,4.6-0.2c0.5,9.2,1,18.5,1.5,27.7c-1.6,0.1-3.2,0.2-4.8,0.2
			c-0.2-4-0.4-7.9-0.6-11.9c-1.8,0.1-3.5,0.2-5.3,0.2C403.1,136.4,403.3,140.3,403.5,144.3z"/>
		<path d="M415.4,115.9c1.5-0.1,3-0.2,4.5-0.3c0.6,9.2,1.2,18.5,1.7,27.7c-1.6,0.1-3.1,0.2-4.7,0.3
			C416.4,134.4,415.9,125.1,415.4,115.9z"/>
		<path d="M423.5,139.2c0.5,0,1.1,0,1.6-0.1c1.5-0.1,2.6-0.7,2.5-2.8c-0.5-7-1-14.1-1.5-21.1c1.5-0.1,3-0.2,4.5-0.3
			c0.5,6.9,1,13.9,1.6,20.8c0.4,5.5-2.7,7.2-6.2,7.4c-0.9,0.1-1.5,0.1-2.3,0.1C423.7,141.9,423.6,140.6,423.5,139.2z"/>
		<path d="M433.9,121.3c-0.3-4.4,1.9-7.1,6.4-7.5c4.5-0.4,7.1,1.9,7.5,6.3c0.4,4.8,0.9,9.6,1.3,14.4c0.4,4.4-1.9,7.2-6.5,7.6
			c-4.6,0.4-7.3-2-7.6-6.4C434.7,130.9,434.3,126.1,433.9,121.3z M439.7,135.6c0.2,2,1.2,2.7,2.6,2.5c1.5-0.1,2.3-1,2.2-2.9
			c-0.4-5-0.9-10-1.3-14.9c-0.2-2-1.2-2.6-2.6-2.5c-1.4,0.1-2.3,0.9-2.1,2.9C438.9,125.7,439.3,130.6,439.7,135.6z"/>
		<path d="M456.2,112.3c4.4-0.5,7,1.8,7.4,6.2c0,0.3,0.1,0.6,0.1,0.9c-1.4,0.2-2.9,0.3-4.3,0.5c0-0.4-0.1-0.8-0.1-1.1
			c-0.2-2-1.1-2.6-2.6-2.5c-1.4,0.1-2.2,1-2,3c0.6,5.7,9.7,5.8,10.5,13.7c0.5,4.4-1.6,7.2-6.2,7.7c-4.6,0.5-7.2-1.8-7.6-6.3
			c-0.1-0.6-0.1-1.1-0.2-1.7c1.5-0.1,2.9-0.3,4.4-0.4c0.1,0.7,0.1,1.3,0.2,2c0.2,2,1.2,2.6,2.7,2.4c1.5-0.2,2.3-1,2.1-2.9
			c-0.6-5.7-9.7-5.8-10.5-13.7C449.8,115.5,451.8,112.7,456.2,112.3z"/>
	</g>
</g>
<g>
	<g>
		<path d="M15.4,21.8c0.3-3.6,2.3-5.5,5.8-5.2c3.5,0.2,5.2,2.4,5,6c-0.2,3.9-0.5,7.8-0.7,11.7c-0.1,1.3-0.4,2.3-0.9,3.1
			c0.1,0.4,0.4,0.5,1,0.5c0.1,0,0.2,0,0.3,0c-0.1,1-0.1,2.1-0.2,3.1c-0.2,0-0.3,0-0.5,0c-1.6-0.1-2.6-0.7-3.1-1.7
			c-0.7,0.2-1.6,0.3-2.6,0.2c-3.6-0.3-5.4-2.5-5.1-6.1C14.8,29.6,15.1,25.7,15.4,21.8z M18.1,34c-0.1,1.6,0.6,2.3,1.7,2.4
			c1.2,0.1,1.9-0.5,2-2.1c0.3-4,0.5-8.1,0.8-12.1c0.1-1.6-0.6-2.3-1.7-2.3c-1.1-0.1-1.9,0.5-2,2.1C18.7,25.9,18.4,30,18.1,34z"/>
		<path d="M32.3,17.5c-0.3,5.8-0.6,11.6-0.9,17.3c-0.1,1.6,0.6,2.2,1.8,2.3c1.2,0.1,1.9-0.5,2-2.1c0.3-5.8,0.6-11.6,0.8-17.4
			c1.1,0.1,2.2,0.1,3.3,0.2C39,23.6,38.8,29.3,38.5,35c-0.1,3.6-2.1,5.6-5.7,5.4c-3.6-0.2-5.3-2.4-5.1-6c0.3-5.7,0.7-11.4,1-17.1
			C29.9,17.4,31.1,17.5,32.3,17.5z"/>
		<path d="M44.9,27.6c1.6,0.1,3.3,0.1,4.9,0.1c0,1.1-0.1,2.1-0.1,3.2c-1.7,0-3.3-0.1-5-0.1c-0.1,2.2-0.1,4.4-0.2,6.6
			c2.1,0.1,4.2,0.1,6.3,0.2c0,1.1-0.1,2.1-0.1,3.2c-3.3-0.1-6.7-0.2-10-0.3c0.3-7.5,0.6-15,0.9-22.5c3.2,0.1,6.4,0.2,9.7,0.3
			c0,1.1-0.1,2.1-0.1,3.2c-2,0-4.1-0.1-6.1-0.2C45.1,23.4,45,25.5,44.9,27.6z"/>
		<path d="M60.7,41c-0.2-0.6-0.3-0.9-0.3-2.8c0-1.2,0-2.4,0-3.5c0-2.1-0.7-2.9-2.3-2.9c-0.4,0-0.8,0-1.2,0c0,3.1-0.1,6.1-0.1,9.2
			c-1.2,0-2.4,0-3.7-0.1c0.2-7.5,0.3-15,0.5-22.5c1.8,0,3.6,0.1,5.3,0.1c3.7,0,5.2,1.7,5.2,5.2c0,0.6,0,1.2,0,1.8
			c0,2.3-0.8,3.8-2.4,4.6c1.8,0.8,2.4,2.5,2.4,4.8c0,1.2,0,2.3,0,3.5c0,1.1,0,1.9,0.4,2.7C63.2,41,62,41,60.7,41z M57,21.6
			c0,2.3-0.1,4.6-0.1,6.9c0.5,0,0.9,0,1.4,0c1.3,0,2.2-0.6,2.2-2.4c0-0.7,0-1.5,0-2.2c0-1.6-0.5-2.3-1.8-2.3
			C58.2,21.6,57.6,21.6,57,21.6z"/>
		<path d="M70.1,27.9c1.6,0,3.3,0,4.9,0c0,1.1,0,2.1,0,3.2c-1.7,0-3.3,0-5,0c0,2.2,0,4.4,0,6.6c2.1,0,4.2,0,6.3-0.1
			c0,1.1,0,2.1,0,3.2c-3.3,0-6.7,0.1-10,0.1c0-7.5,0-15,0-22.5c3.2,0,6.4,0,9.7-0.1c0,1.1,0,2.1,0,3.2c-2,0-4.1,0-6.1,0.1
			C70.1,23.8,70.1,25.9,70.1,27.9z"/>
		<path d="M86.3,34.2c0.7-5.4,1.3-10.7,2-16.1c1.6-0.1,3.3-0.1,4.9-0.2c0.3,7.5,0.6,15,0.9,22.5c-1.2,0-2.3,0.1-3.5,0.1
			c-0.2-5.4-0.4-10.8-0.6-16.1c-0.6,5.4-1.3,10.8-2,16.2c-1.2,0-2.3,0.1-3.5,0.1c-1-5.3-2.1-10.6-3.1-15.9
			c0.1,5.3,0.2,10.6,0.3,15.9c-1.1,0-2.1,0-3.2,0.1c-0.1-7.5-0.3-15-0.4-22.5c1.6,0,3.3-0.1,4.9-0.1C84.2,23.6,85.3,28.9,86.3,34.2z
			"/>
		<path d="M95.7,23.2c-0.2-3.6,1.7-5.7,5.1-5.9c3.5-0.2,5.5,1.8,5.7,5.4c0.2,3.9,0.5,7.8,0.7,11.7c0.2,3.6-1.6,5.8-5.2,6
			c-3.6,0.2-5.7-1.8-5.8-5.4C96,31,95.9,27.1,95.7,23.2z M99.9,35c0.1,1.6,0.8,2.2,2,2.1c1.2-0.1,1.9-0.7,1.8-2.3
			c-0.2-4-0.4-8.1-0.7-12.1c-0.1-1.6-0.8-2.2-2-2.1c-1.1,0.1-1.8,0.7-1.7,2.3C99.5,26.9,99.7,31,99.9,35z"/>
		<path d="M113.3,16.6c3.4-0.2,5.4,1.7,5.7,5.3c0,0.2,0,0.5,0.1,0.7c-1.1,0.1-2.2,0.2-3.4,0.3c0-0.3,0-0.6-0.1-0.9
			c-0.1-1.6-0.8-2.2-1.9-2.1c-1.1,0.1-1.7,0.7-1.6,2.3c0.3,4.6,7.4,5,7.9,11.4c0.3,3.6-1.4,5.8-5,6.1c-3.6,0.3-5.6-1.7-5.8-5.3
			c0-0.5-0.1-0.9-0.1-1.4c1.1-0.1,2.3-0.1,3.4-0.2c0,0.5,0.1,1.1,0.1,1.6c0.1,1.6,0.9,2.1,2,2.1c1.2-0.1,1.8-0.7,1.7-2.3
			c-0.3-4.6-7.5-5-7.8-11.4C108.2,19,109.8,16.8,113.3,16.6z"/>
		<path d="M15.1,52.7c0.9,0.1,1.8,0.1,2.7,0.2c0,0.6-0.1,1.1-0.1,1.7c-0.9-0.1-1.8-0.1-2.7-0.2c-0.1,1.2-0.2,2.3-0.3,3.5
			c1.2,0.1,2.3,0.2,3.5,0.3c0,0.6-0.1,1.1-0.1,1.7c-1.8-0.1-3.7-0.3-5.5-0.4c0.3-4,0.6-8,0.9-12c1.8,0.1,3.6,0.3,5.4,0.4
			c0,0.6-0.1,1.1-0.1,1.7c-1.1-0.1-2.3-0.2-3.4-0.3C15.2,50.4,15.1,51.5,15.1,52.7z"/>
		<path d="M20.1,47.9c0.7,0,1.3,0.1,2,0.1c-0.2,3.4-0.5,6.9-0.7,10.3c1.1,0.1,2.2,0.1,3.3,0.2c0,0.6-0.1,1.1-0.1,1.7
			c-1.8-0.1-3.5-0.2-5.3-0.3C19.5,55.9,19.8,51.9,20.1,47.9z"/>
		<path d="M28.9,48.5c1,0.1,2.1,0.1,3.1,0.2c2,0.1,2.9,1.2,2.8,3.1c-0.1,2-0.2,4-0.3,6.1c-0.1,1.9-1.1,2.9-3.1,2.8
			c-1.1-0.1-2.1-0.1-3.2-0.2C28.5,56.5,28.7,52.5,28.9,48.5z M30.8,50.3c-0.2,2.9-0.3,5.7-0.5,8.6c0.4,0,0.8,0,1.1,0.1
			c0.6,0,1-0.3,1.1-1.1c0.1-2.1,0.2-4.2,0.3-6.2c0-0.9-0.3-1.2-1-1.2C31.6,50.4,31.2,50.3,30.8,50.3z"/>
		<path d="M36.3,48.9c0.7,0,1.3,0.1,2,0.1c-0.2,4-0.3,8-0.5,12c-0.7,0-1.3-0.1-2-0.1C35.9,56.9,36.1,52.9,36.3,48.9z"/>
		<path d="M45.7,61.3c-0.7,0-1.4,0-2-0.1c-0.1-0.7-0.2-1.5-0.3-2.2c-0.8,0-1.6-0.1-2.5-0.1c-0.1,0.7-0.3,1.4-0.4,2.2
			c-0.6,0-1.2,0-1.8-0.1c0.8-4,1.7-8,2.5-11.9c1,0,1.9,0.1,2.9,0.1C44.6,53.2,45.2,57.2,45.7,61.3z M41.3,57.3c0.6,0,1.3,0,1.9,0.1
			c-0.3-2-0.5-4.1-0.7-6.1C42.1,53.3,41.7,55.3,41.3,57.3z"/>
		<path d="M47,49.3c0.7,0,1.3,0,2,0.1c-0.1,3.4-0.2,6.9-0.3,10.3c1.1,0,2.2,0.1,3.3,0.1c0,0.6,0,1.1,0,1.7c-1.8,0-3.6-0.1-5.3-0.1
			C46.8,57.3,46.9,53.3,47,49.3z"/>
		<path d="M52.9,52.3c0-1.9,1.1-3,3.1-3c1.9,0,3,1.1,3,3.1c0,2.1,0,4.2-0.1,6.2c0,1.9-1.1,3-3.1,3c-2,0-3-1.2-3-3.1
			C52.8,56.5,52.9,54.4,52.9,52.3z M54.8,58.7c0,0.9,0.4,1.2,1,1.2c0.6,0,1-0.3,1.1-1.2c0-2.2,0.1-4.3,0.1-6.5c0-0.9-0.4-1.2-1-1.2
			c-0.6,0-1,0.3-1,1.2C54.9,54.4,54.8,56.5,54.8,58.7z"/>
		<path d="M63.2,54.9c0.9,0,1.9,0,2.8,0c0,1.3,0,2.5,0,3.8c0,1.9-1,3-3,3c-2,0-3-1.1-3-3c0-2.1,0-4.2,0.1-6.2c0-1.9,1-3,3-3
			c1.9,0,2.9,1.1,2.9,3c0,0.4,0,0.8,0,1.2c-0.6,0-1.3,0-1.9,0c0-0.4,0-0.9,0-1.3c0-0.9-0.4-1.2-1-1.2c-0.6,0-1,0.3-1,1.2
			c0,2.2,0,4.3,0,6.5c0,0.9,0.4,1.2,1,1.2c0.6,0,1-0.3,1-1.2c0-0.7,0-1.5,0-2.2c-0.3,0-0.6,0-0.9,0C63.2,56,63.2,55.4,63.2,54.9z"/>
		<path d="M67.1,52.4c0-1.9,1.1-3,3-3c1.9,0,3,1.1,3,3c0,2.1,0,4.2,0.1,6.2c0,1.9-1.1,3-3,3c-2,0-3.1-1.1-3.1-3
			C67.1,56.6,67.1,54.5,67.1,52.4z M69.1,58.8c0,0.9,0.4,1.2,1,1.2c0.6,0,1-0.3,1-1.2c0-2.2,0-4.3,0-6.5c0-0.9-0.4-1.2-1-1.2
			c-0.6,0-1,0.3-1,1.2C69.1,54.5,69.1,56.6,69.1,58.8z"/>
		<path d="M83.1,52.3c0,0.5,0,1,0,1.6c0,1.9-0.9,3-2.9,3c-0.3,0-0.6,0-0.9,0c0,1.5,0.1,3,0.1,4.5c-0.7,0-1.3,0-2,0
			c-0.1-4-0.1-8-0.2-12c1,0,1.9,0,2.9,0C82.1,49.4,83.1,50.4,83.1,52.3z M79.2,51.2c0,1.4,0,2.7,0.1,4.1c0.3,0,0.6,0,0.9,0
			c0.6,0,1-0.3,1-1.2c0-0.6,0-1.2,0-1.8c0-0.9-0.4-1.1-1-1.1C79.8,51.2,79.5,51.2,79.2,51.2z"/>
		<path d="M85.9,49.3c0.1,3.1,0.2,6.2,0.3,9.3c0,0.9,0.4,1.2,1.1,1.1c0.6,0,1-0.3,1-1.2c-0.1-3.1-0.2-6.2-0.3-9.3
			c0.6,0,1.2,0,1.9-0.1c0.1,3,0.2,6.1,0.3,9.1c0.1,1.9-0.9,3.1-2.9,3.1c-2,0.1-3-1-3.1-2.9c-0.1-3-0.1-6.1-0.2-9.1
			C84.6,49.3,85.3,49.3,85.9,49.3z"/>
		<path d="M97.3,51.7c0,0.1,0,0.3,0,0.4c0.1,1.2-0.3,2-1.2,2.5c1.1,0.3,1.5,1.2,1.6,2.5c0,0.3,0,0.7,0,1c0.1,1.9-0.9,2.9-2.9,3
			c-1.1,0-2.1,0.1-3.2,0.1c-0.1-4-0.3-8-0.4-12c1,0,2-0.1,3-0.1C96.3,48.9,97.2,49.8,97.3,51.7z M93.3,50.8c0,1.1,0.1,2.1,0.1,3.2
			c0.3,0,0.5,0,0.8,0c0.7,0,1.2-0.4,1.1-1.3c0-0.2,0-0.4,0-0.7c0-0.9-0.4-1.2-1.1-1.2C93.9,50.8,93.6,50.8,93.3,50.8z M93.4,55.7
			c0,1.2,0.1,2.5,0.1,3.7c0.4,0,0.8,0,1.1,0c0.7,0,1-0.3,1-1.2c0-0.3,0-0.7,0-1c0-1.1-0.4-1.4-1.3-1.4C94,55.6,93.7,55.7,93.4,55.7z
			"/>
		<path d="M98.5,48.8c0.7,0,1.3-0.1,2-0.1c0.2,3.4,0.3,6.9,0.5,10.3c1.1-0.1,2.2-0.1,3.3-0.2c0,0.6,0.1,1.1,0.1,1.7
			c-1.8,0.1-3.6,0.2-5.3,0.3C98.9,56.8,98.7,52.8,98.5,48.8z"/>
		<path d="M104.6,48.5c0.7,0,1.3-0.1,2-0.1c0.2,4,0.5,8,0.7,12c-0.7,0-1.3,0.1-2,0.1C105.1,56.5,104.8,52.5,104.6,48.5z"/>
		<path d="M114.3,55.5c0,0.5,0.1,1.1,0.1,1.6c0.1,1.9-0.8,3.1-2.8,3.2c-2,0.1-3.1-0.9-3.2-2.8c-0.1-2.1-0.2-4.2-0.4-6.2
			c-0.1-1.9,0.8-3.1,2.8-3.2c1.9-0.1,3,0.9,3.2,2.8c0,0.4,0.1,0.8,0.1,1.2c-0.6,0-1.3,0.1-1.9,0.1c0-0.4-0.1-0.9-0.1-1.3
			c-0.1-0.9-0.5-1.2-1.1-1.1c-0.6,0-1,0.4-1,1.2c0.1,2.2,0.3,4.3,0.4,6.5c0.1,0.9,0.5,1.1,1.1,1.1c0.6,0,1-0.4,1-1.2
			c0-0.6-0.1-1.1-0.1-1.7C113,55.6,113.6,55.5,114.3,55.5z"/>
		<path d="M115,50.8c-0.1-1.9,0.9-3.1,2.8-3.2c1.9-0.1,3.1,0.9,3.2,2.8c0.2,2.1,0.3,4.2,0.5,6.2c0.2,1.9-0.8,3.1-2.8,3.2
			c-2,0.1-3.1-0.9-3.3-2.8C115.3,54.9,115.1,52.9,115,50.8z M117.4,57c0.1,0.9,0.5,1.2,1.1,1.1c0.6,0,1-0.4,1-1.3
			c-0.2-2.2-0.3-4.3-0.5-6.5c-0.1-0.9-0.5-1.2-1.1-1.1c-0.6,0-1,0.4-0.9,1.3C117.1,52.7,117.3,54.8,117.4,57z"/>
		<path d="M14,80.4c-0.8-3.4-1.7-6.8-2.5-10.3c0.9,0.1,1.8,0.1,2.7,0.2c0.5,2.3,1,4.6,1.5,7c0.8-2.2,1.6-4.5,2.4-6.7
			c0.8,0.1,1.6,0.1,2.4,0.2c-1.3,3.3-2.6,6.5-3.9,9.8c-0.1,1.7-0.2,3.3-0.3,5c-0.9-0.1-1.7-0.1-2.6-0.2C13.8,83.7,13.9,82,14,80.4z"
			/>
		<path d="M25.2,71.1c1.3,0.1,2.7,0.2,4,0.2c2.6,0.1,3.7,1.5,3.6,3.9c-0.1,2.5-0.2,5.1-0.4,7.6c-0.1,2.4-1.5,3.6-4.1,3.5
			c-1.4-0.1-2.8-0.2-4.1-0.2C24.6,81.1,24.9,76.1,25.2,71.1z M27.6,73.3c-0.2,3.6-0.4,7.1-0.6,10.7c0.5,0,1,0.1,1.5,0.1
			c0.8,0,1.3-0.3,1.4-1.4c0.1-2.6,0.3-5.2,0.4-7.8c0.1-1.1-0.4-1.5-1.2-1.5C28.6,73.4,28.1,73.4,27.6,73.3z"/>
		<path d="M36.9,78c1.2,0,2.4,0.1,3.5,0.1c0,0.7-0.1,1.4-0.1,2.1c-1.2,0-2.4-0.1-3.6-0.1c-0.1,1.5-0.1,2.9-0.2,4.4
			c1.5,0.1,3,0.1,4.5,0.2c0,0.7-0.1,1.4-0.1,2.1c-2.4-0.1-4.7-0.2-7.1-0.3c0.2-5,0.5-10,0.7-15c2.3,0.1,4.6,0.2,7,0.3
			c0,0.7-0.1,1.4-0.1,2.1c-1.5-0.1-3-0.1-4.4-0.2C37.1,75.2,37,76.6,36.9,78z"/>
		<path d="M48.3,82.7c0.7-3.5,1.4-7.1,2-10.6c1.2,0,2.4,0.1,3.6,0.1c-0.1,5-0.2,10-0.3,15c-0.8,0-1.6,0-2.5-0.1
			c0.1-3.6,0.2-7.2,0.2-10.8c-0.7,3.6-1.4,7.2-2,10.7c-0.8,0-1.6,0-2.5-0.1c-0.5-3.6-1.1-7.1-1.6-10.7c-0.1,3.5-0.2,7.1-0.3,10.6
			c-0.8,0-1.5,0-2.3-0.1c0.2-5,0.3-10,0.5-15c1.2,0,2.4,0.1,3.6,0.1C47.3,75.6,47.8,79.1,48.3,82.7z"/>
		<path d="M55.5,75.8c0-2.4,1.4-3.8,3.9-3.7c2.5,0,3.9,1.4,3.9,3.8c0,2.6,0,5.2,0,7.8c0,2.4-1.4,3.8-4,3.7c-2.6,0-3.9-1.4-3.9-3.8
			C55.4,81,55.5,78.4,55.5,75.8z M58,83.8c0,1.1,0.5,1.5,1.3,1.5c0.8,0,1.4-0.4,1.4-1.5c0-2.7,0-5.4,0.1-8.1c0-1.1-0.5-1.5-1.3-1.5
			c-0.8,0-1.3,0.4-1.3,1.5C58,78.4,58,81.1,58,83.8z"/>
		<path d="M72.5,81.7c0,0.7,0,1.3,0,2c0,2.4-1.3,3.8-3.9,3.8c-2.6,0-3.9-1.4-3.9-3.8c0-2.6,0-5.2,0-7.8c0-2.4,1.3-3.8,3.8-3.8
			c2.5,0,3.8,1.4,3.8,3.8c0,0.5,0,1,0,1.5c-0.8,0-1.6,0-2.4,0c0-0.5,0-1.1,0-1.6c0-1.1-0.5-1.5-1.3-1.5c-0.8,0-1.3,0.4-1.3,1.5
			c0,2.7,0,5.4,0,8.1c0,1.1,0.5,1.5,1.4,1.5c0.8,0,1.3-0.4,1.3-1.5c0-0.7,0-1.4,0-2.1C70.8,81.7,71.6,81.7,72.5,81.7z"/>
		<path d="M93.2,86.9c-0.9,0-1.8,0.1-2.6,0.1c-0.2-0.9-0.4-1.8-0.5-2.7c-1.1,0-2.1,0.1-3.2,0.1c-0.1,0.9-0.3,1.8-0.4,2.7
			c-0.8,0-1.6,0-2.4,0.1c0.8-5,1.5-10.1,2.3-15.1c1.2,0,2.5-0.1,3.7-0.1C91.1,76.9,92.1,81.9,93.2,86.9z M87.1,82.3
			c0.8,0,1.7,0,2.5-0.1c-0.5-2.5-1-5-1.5-7.6C87.8,77.2,87.4,79.7,87.1,82.3z"/>
		<path d="M80.3,87.2c-0.1-0.4-0.2-0.6-0.3-1.8c0-0.8,0-1.6,0-2.4c0-1.4-0.6-1.9-1.7-1.9c-0.3,0-0.6,0-0.9,0c0,2,0.1,4.1,0.1,6.1
			c-0.9,0-1.7,0-2.6,0c-0.1-5-0.1-10-0.2-15c1.3,0,2.6,0,3.9-0.1c2.6,0,3.8,1.1,3.9,3.4c0,0.4,0,0.8,0,1.2c0,1.5-0.5,2.6-1.6,3.1
			c1.3,0.5,1.7,1.6,1.8,3.2c0,0.8,0,1.5,0,2.3c0,0.7,0.1,1.3,0.3,1.8C82.1,87.2,81.2,87.2,80.3,87.2z M77.3,74.4
			c0,1.5,0,3.1,0.1,4.6c0.3,0,0.7,0,1,0c1,0,1.5-0.4,1.5-1.6c0-0.5,0-1,0-1.5c0-1.1-0.4-1.5-1.3-1.5C78.1,74.4,77.7,74.4,77.3,74.4z
			"/>
		<path d="M92,71.9c2.6-0.1,5.3-0.2,7.9-0.3c0,0.7,0.1,1.4,0.1,2.1c-0.9,0-1.8,0.1-2.7,0.1c0.2,4.3,0.4,8.6,0.5,12.9
			c-0.9,0-1.7,0.1-2.6,0.1c-0.2-4.3-0.3-8.6-0.5-12.9c-0.9,0-1.8,0.1-2.7,0.1C92,73.3,92,72.6,92,71.9z"/>
		<path d="M101,71.5c0.9,0,1.7-0.1,2.6-0.1c0.3,5,0.5,10,0.8,15c-0.9,0-1.7,0.1-2.6,0.1C101.5,81.5,101.2,76.5,101,71.5z"/>
		<path d="M113.4,80.2c0,0.7,0.1,1.3,0.1,2c0.2,2.4-1.1,3.9-3.6,4c-2.6,0.2-4-1.2-4.1-3.6c-0.1-2.6-0.3-5.2-0.4-7.8
			c-0.1-2.4,1.1-3.8,3.6-4c2.5-0.1,3.9,1.1,4.1,3.5c0,0.5,0.1,1,0.1,1.5c-0.8,0.1-1.6,0.1-2.4,0.2c0-0.5-0.1-1.1-0.1-1.6
			c-0.1-1.1-0.6-1.4-1.4-1.4c-0.8,0-1.3,0.5-1.2,1.6c0.2,2.7,0.3,5.4,0.5,8.1c0.1,1.1,0.6,1.4,1.4,1.4c0.8,0,1.3-0.5,1.3-1.5
			c0-0.7-0.1-1.4-0.1-2.1C111.8,80.3,112.6,80.3,113.4,80.2z"/>
		<path d="M114.4,74.3c-0.2-2.4,1.1-3.9,3.6-4c2.5-0.2,4,1.1,4.2,3.5c0.2,2.6,0.4,5.2,0.6,7.8c0.2,2.4-1.1,3.9-3.7,4.1
			c-2.6,0.2-4.1-1.1-4.2-3.5C114.8,79.5,114.6,76.9,114.4,74.3z M117.5,82.1c0.1,1.1,0.6,1.4,1.5,1.4c0.8-0.1,1.3-0.5,1.2-1.6
			c-0.2-2.7-0.4-5.4-0.6-8.1c-0.1-1.1-0.6-1.4-1.4-1.4c-0.8,0.1-1.3,0.5-1.2,1.6C117.2,76.7,117.3,79.4,117.5,82.1z"/>
	</g>
</g>
<path d="M62.8,116.2c0,0,8.2,6.8,15.4,3.8l-0.2-5.4L62.8,116.2z"/>
<polygon points="57.6,135 64.4,138 66,134.2 59.7,131.2 "/>
</svg>
