<?xml version="1.0" encoding="utf-8"?>
<!-- Generator: Adobe Illustrator 18.0.0, SVG Export Plug-In . SVG Version: 6.00 Build 0)  -->
<!DOCTYPE svg PUBLIC "-//W3C//DTD SVG 1.1//EN" "http://www.w3.org/Graphics/SVG/1.1/DTD/svg11.dtd">
<svg version="1.1" id="Layer_1" xmlns="http://www.w3.org/2000/svg" xmlns:xlink="http://www.w3.org/1999/xlink" x="0px" y="0px"
	 viewBox="0 0 131.6 141" enable-background="new 0 0 131.6 141" xml:space="preserve">
<g>
	<path fill="#F6D011" d="M20.6,61.2c-0.1,0.4,0.4,1.2-0.1,1.5c-0.4,0.2-1-0.4-1.6-0.6C15,60,11.1,57.9,7.1,55.8
		c-0.7-0.3-0.8-0.8-0.9-1.4C6,52.3,5.9,50.1,5.7,48c-0.5-5.4-0.9-10.8-1.4-16.2c-0.1-0.9-0.1-1.3,1-0.8c4.4,2.1,8.9,4.1,13.3,6.1
		c0.5,0.2,0.5,0.6,0.5,1c0.3,4.8,0.6,9.5,0.9,14.3C20.2,55.3,20.4,58.2,20.6,61.2z"/>
	<g>
		<path fill="#F6D011" d="M9.8,81.2C9.8,81.2,9.8,81.2,9.8,81.2C9.8,81.2,9.8,81.2,9.8,81.2C9.8,81.2,9.8,81.2,9.8,81.2z"/>
		<path fill="#F6D011" d="M21.9,84.2c-0.2-0.1-0.3-0.3-0.3-0.5c-0.2-3.7-0.4-7.4-0.7-11.1c0-0.3-0.1-0.7,0.2-1c0-0.2,0-0.4,0-0.6
			c-0.3-0.1-0.4-0.4-0.4-0.7c0-1.3-0.1-2.5-0.2-3.8c-0.1-0.9-0.3-1.1-1.2-1.4C18.7,64.8,18,64,17.6,64c0,0,0,0,0,0
			c-0.3-1-0.8-0.8-1.2-1c-3-1.6-6-3.3-9-4.9c-0.7-0.4-0.9-0.2-0.8,0.5c0.1,0.7,0.2,1.4,0.3,2.1c0.3,2.5,0.3,5.1,0.7,7.6
			c0,0.1,0,0.2,0,0.4c0.7,0.5,0.4,1.3,0.5,1.9c0.2,0.9,0.2,1.8,0,2.7c0,0.2,0,0.3,0,0.5c0.4,0.4,0.4,0.8,0.1,1.3c0,0.1,0,0.3,0,0.4
			c0.7,0.4,0.2,1.1,0.4,1.6c0.3,1.2,0.1,2.4,0.5,3.6l0,0c0.4-0.2,0.6,0,0.7,0.4c0.9,0.1,1.6,0.4,2,1.2l0.1,0c0.5,0,0.9,0.1,1,0.6
			l0.1,0c0.2,0,0.3,0.1,0.3,0.2l0,0c2.3,0.7,4.3,1.9,6.1,3.4c0.1,0.1,0.1,0.3,0.2,0.5l0,0c0.6-0.2,1,0.3,1.3,0.5
			c0.9,0.5,0.9,0.1,0.9-0.6c0-0.9-0.1-1.8,0.1-2.6c0,0,0.1,0,0.1-0.1C21.9,84.3,21.9,84.2,21.9,84.2z"/>
	</g>
	<path fill="#D1CA54" d="M21.9,84.2c-0.2-0.1-0.3-0.3-0.3-0.5c-0.2-3.7-0.4-7.4-0.7-11.1c0-0.3-0.1-0.7,0.2-1
		c0.5,3.5,0.5,7,0.7,10.5C21.9,82.7,22.1,83.4,21.9,84.2z"/>
	<path fill="#D1CA54" d="M13.2,83.3c2.3,0.7,4.3,1.9,6.1,3.4c0.1,0.1,0.1,0.3,0.2,0.5c-1.8-0.8-3.5-2-5.2-3.1
		C13.9,83.9,13.4,83.8,13.2,83.3z"/>
	<path fill="#D1CA54" d="M21.1,70.9c-0.3-0.1-0.4-0.4-0.4-0.7c0-1.3-0.1-2.5-0.2-3.8c-0.1-0.9-0.3-1.3-1.2-1.6
		c-0.7-0.2-1.4-0.6-1.8-1.3c0.2,0,0.3,0.1,0.5,0.1c2.8,1.2,2.8,1.2,2.9,4.3C21,68.9,21.3,69.9,21.1,70.9z"/>
	<path fill="#D1CA54" d="M19.5,87.2c0.6-0.2,1,0.3,1.3,0.5c0.9,0.5,0.9,0.1,0.9-0.6c0-0.9-0.1-1.8,0.1-2.6c0.6,1.3,0.2,2.7,0.4,4.1
		c0,0.4-0.2,0.4-0.5,0.2C21,88.2,20.1,87.9,19.5,87.2z"/>
	<path fill="#D1CA54" d="M8.2,75.6c0.7,0.4,0.2,1.1,0.4,1.6c0.3,1.2,0.1,2.4,0.5,3.6c-0.4-0.1-0.6-0.4-0.7-0.8
		C8.4,78.5,8.3,77,8.2,75.6z"/>
	<path fill="#D1CA54" d="M7.6,68.7c0.7,0.5,0.4,1.3,0.5,1.9c0.2,0.9,0.2,1.8,0,2.7c-0.5-0.6-0.3-1.4-0.3-2
		C7.6,70.5,7.6,69.6,7.6,68.7z"/>
	<path fill="#D1CA54" d="M9.8,81.2c0.9,0.1,1.6,0.4,2,1.2C11,82.2,10.3,81.8,9.8,81.2z"/>
	<path fill="#D1CA54" d="M8.1,73.8c0.4,0.4,0.4,0.8,0.1,1.3C7.9,74.7,7.9,74.3,8.1,73.8z"/>
	<path fill="#D1CA54" d="M11.8,82.5c0.5,0,0.9,0.1,1,0.6C12.4,83.1,12.1,82.8,11.8,82.5z"/>
	<path fill="#D1CA54" d="M9.1,80.8c0.4-0.2,0.6,0,0.7,0.4C9.5,81.2,9.3,81.1,9.1,80.8z"/>
	<path fill="#D1CA54" d="M12.9,83.1c0.2,0,0.3,0.1,0.3,0.2C13.1,83.3,13,83.2,12.9,83.1z"/>
	<g>
		<path fill="#333333" d="M67.4,141c-0.5,0-1,0-1.5,0c0-0.3-0.2-0.4-0.4-0.5c-7.4-4.8-14.9-9.5-22.3-14.3
			c-6.6-4.2-13.2-8.5-19.8-12.7c-4.3-2.8-8.7-5.6-13-8.4c-0.4-0.3-0.7-0.5-0.8-1.1c-0.2-1.8-0.4-3.6-0.5-5.4
			c-0.5-6.1-1-12.2-1.6-18.3c-0.3-3.9-0.7-7.9-1-11.8C6,64.2,5.6,59.8,5.2,55.3C4.7,48.9,4.1,42.4,3.6,36c0.1-1.1-0.1-2.2-0.2-3.3
			c0-0.3-0.1-0.5-0.4-0.5c0-0.1,0-0.3,0-0.4c0.4-0.4,0.3-0.7,0-1.1c0-0.5,0-1,0-1.5c0.7,0.3,1-0.4,1.5-0.6c4.1-1.4,8.3-2.9,12.4-4.3
			c3.7-1.3,7.4-2.5,11.1-3.8c2.5-0.9,5-1.7,7.4-2.6c5-1.7,10-3.5,15-5.2c3.5-1.2,6.9-2.3,10.4-3.6c1.7-0.6,3.5-1,5.1-1.9
			c0.5,0,1,0,1.5,0c0.6,0.7,1.5,0.7,2.2,1c4.1,1.5,8.1,2.9,12.2,4.3c0.8,0.3,1.3,1,2,1c1.6,0.1,3.1,0.8,4.6,1.3
			c6.2,2.1,12.5,4.3,18.7,6.5c1.7,0.6,3.5,1.2,5.2,1.8c4.8,1.7,9.6,3.4,14.5,5c0.9,0.3,1.7,1,2.8,1c0,1,0,2,0,3
			c-0.6,0.1-0.3,0.6-0.4,0.8c-0.4,2.8-0.7,5.7-1,8.5c-0.8,6.6-1.6,13.2-2.4,19.8c-0.9,7.4-1.8,14.7-2.7,22.1
			c-0.7,6-1.4,11.9-2.1,17.9c-0.1,0.7-0.3,1.2-0.9,1.6c-1.6,1.2-3.3,2.4-4.9,3.5c-3.2,2.2-6.3,4.5-9.4,6.7c-2.7,1.9-5.3,3.9-8,5.9
			c-3.2,2.3-6.5,4.6-9.7,7c-3.3,2.4-6.6,4.8-9.9,7.2C74.6,135.7,71,138.4,67.4,141z M52.1,107.3L52.1,107.3c0.4,0.5,0.9,0.8,1.6,1
			l0,0c0.8,0.6,1.6,1.3,2.6,1.5l0,0c0.7,0.8,1.7,1.2,2.6,1.7l0,0c0.5,0.3,0.9,0.8,1.5,0.9l0,0c0.2,0.3,0.5,0.5,0.9,0.6
			c0.1,0,0.2,0.1,0.3,0.1c1,0.9,2.3,1.5,3.4,2.3c0.7,0.5,0.8,0.3,0.8-0.4c-0.1-8.5-0.1-16.9-0.2-25.4c0-0.6-0.2-0.9-0.7-1.1
			c-3.6-1.9-7.2-3.8-10.8-5.7c-1.6-0.8-3.2-1.9-4.9-2.5L49,80.3l0.1-0.1c-0.5-0.5-1.1-0.8-1.8-1l-0.1,0c-0.1-0.2-0.3-0.3-0.5-0.2
			l0,0c-0.6-0.6-1.5-0.9-2.3-1.3c-0.4-0.2-0.6,0-0.5,0.3c0.1,1.2-0.1,2.4,0.2,3.6c-0.1,0.3-0.1,0.6,0,0.8c0,0.2-0.1,0.5-0.1,0.7
			c0.1,3.7,0.2,7.4,0.3,11.1c0,0.3,0,0.6,0.2,0.8c-0.1,0.3-0.1,0.7,0,1c0,1.4,0,2.9,0,4.3c0,0.6-0.2,1.3,0.2,1.8c0,0-0.1,0-0.1,0.1
			c0,0.1,0,0.1,0,0.2c0.2,1,1.1,1.1,1.8,1.4l0,0c0.2,0.4,0.5,0.5,0.9,0.6l0.1,0c0.1,0.3,0.3,0.4,0.6,0.4l0,0
			c0.1,0.2,0.3,0.3,0.5,0.3l0,0c0.7,0.7,1.5,1.2,2.4,1.5l0,0C51.3,107.1,51.7,107.2,52.1,107.3z M9.8,81.2L9.8,81.2
			c0.5,0.6,1.2,1,2,1.2l0.1,0c0.2,0.3,0.5,0.6,1,0.6l0.1,0c0.1,0.1,0.1,0.2,0.3,0.2l0,0c0.2,0.5,0.7,0.6,1.1,0.8
			c1.7,1,3.3,2.2,5.2,3.1l0,0c0.6,0.8,1.5,1,2.2,1.5c0.3,0.2,0.5,0.1,0.5-0.2c-0.1-1.4,0.2-2.8-0.4-4.1c0,0,0.1,0,0.1-0.1
			c0-0.1,0-0.1,0-0.2c0.2-0.7,0-1.5,0-2.2c-0.3-3.5-0.2-7-0.7-10.5c0-0.2,0-0.4,0-0.6c0.2-1-0.1-2-0.1-2.9c0-3.1-0.1-3.1-2.9-4.3
			c-0.2-0.1-0.3-0.1-0.5-0.1l0,0c-0.3-0.5-0.8-0.5-1.2-0.8c-3-1.6-6-3.2-9-4.8c-0.7-0.4-0.9-0.1-0.8,0.6c0.1,0.7,0.2,1.4,0.3,2.1
			c0.3,2.5,0.3,5.1,0.7,7.6c0,0.1,0,0.3,0,0.4c0,0.9,0.1,1.8,0.2,2.6c0.1,0.7-0.1,1.4,0.3,2c0,0.2,0,0.3,0,0.5
			c-0.1,0.4-0.1,0.9,0.1,1.3c0,0.1,0,0.3,0,0.4C8.3,77,8.4,78.5,8.4,80c0,0.4,0.2,0.7,0.7,0.8l0,0C9.3,81.1,9.5,81.2,9.8,81.2z
			 M64.3,85.9c0.2,0.4,0.6,0.6,0.9,0.5c0.4-0.1,0.2-0.5,0.1-0.8c0.1-1.1,0.1-2.2,0-3.4c0-0.1,0.1-0.3,0.1-0.4
			c0-5.3-0.1-10.6-0.1-15.9c0-0.3,0.1-0.6-0.2-0.8c0.2-1.1,0.1-2.1,0-3.2c0.2-0.4,0.2-0.8,0-1.1c0-0.2,0-0.4,0-0.6
			c0.3-1.5,0.2-1.7-1.3-2.4c-5.2-2.4-10.3-4.8-15.5-7.1c-1.7-0.8-3.4-1.5-5.1-2.3c0,1.9-0.1,3.8,0,5.6c0.1,2.5,0,5,0.4,7.4
			c-0.1,0.7-0.1,1.4,0.1,2.1c0,0.2-0.1,0.3-0.1,0.5c0.1,3.3,0.2,6.7,0.2,10c0,1.1,0.4,1.6,1.4,1.7c0.1,0.2,0.3,0.3,0.5,0.3
			c0.1,0.1,0.2,0.2,0.3,0.3c2.9,1.5,5.8,3.1,8.7,4.6c2.2,1.1,4.3,2.4,6.6,3.4c0.1,0.1,0.3,0.1,0.4,0.2c0.1,0,0.1,0,0.2,0.1l0,0
			C62.5,85.2,63.3,85.7,64.3,85.9L64.3,85.9L64.3,85.9z M23.6,39.6L23.6,39.6C22.8,39,22,38.7,21,38.3c0,0.9-0.1,1.7,0.2,2.4
			c-0.1,0.4,0,0.8,0.1,1.2c-0.1,0.7-0.2,1.5,0.2,2.2c-0.1,0.2-0.1,0.4,0,0.6c0,2,0,4,0.3,6c0,0.6,0.1,1.3,0.1,1.9
			c0,0.7-0.2,1.4,0.2,2.1c0,0-0.1,0-0.1,0.1c0,0.1,0,0.1,0,0.2c0,2,0,4,0.3,6c0,0.4,0,0.8,0.1,1.2c-0.1,1-0.2,2,1.2,2.2
			c0.4,0.2,0.8,0.4,1.2,0.6c0.8,0.7,1.8,1.1,2.7,1.6c4.4,2.3,8.8,4.7,13.2,7c1,0.5,1,0.5,1-0.6c-0.3-8.2-0.6-16.4-0.8-24.6
			c0-0.7-0.2-1-0.9-1.3c-3.7-1.6-7.3-3.3-10.9-5c-1.7-0.8-3.4-1.7-5.1-2.2c-0.1-0.1-0.3-0.1-0.4-0.2C23.7,39.6,23.6,39.6,23.6,39.6z
			 M21.9,111.1c0.4,0.6,1.1,0.8,1.7,1.2c0.2-0.4,0.1-0.8,0.1-1.2c-0.4-6.4-0.8-12.8-1.2-19.2c0-0.5-0.2-0.7-0.6-1
			c-4.1-2.5-8.2-5.1-12.3-7.6c-0.2-0.1-0.4-0.3-0.7-0.2c-0.2,0.2-0.1,0.5-0.1,0.7c0.6,6.5,1.1,13,1.7,19.5c0,0.6,0.3,0.9,0.7,1.2
			c1.6,1,3.1,2.1,4.7,3C17.9,108.7,19.8,110.1,21.9,111.1L21.9,111.1z M67.3,82.6c0,1,0,1.9,0,2.9c0,1.1,0.1,1.2,1,0.7
			c6.5-3.4,13-6.9,19.5-10.3c0.6-0.3,0.9-0.7,0.9-1.4c0.1-2.7,0.1-5.3,0.2-8c0.1-3.3,0.3-6.6,0.4-9.9c0.1-2.4,0.2-4.8,0.2-7.3
			c0-0.5,0.1-1-0.7-0.6c-2,0.9-3.9,1.8-5.9,2.7c-4.6,2.1-9.2,4.2-13.8,6.3c-2.1,0.9-2.1,0.9-2,3.2C67.2,68,67.1,75.3,67.3,82.6z
			 M67.3,106.5c0.1,0,0.1,0,0.2,0c0,2.6,0,5.1,0,7.7c0,0.4-0.2,1,0.2,1.2c0.4,0.2,0.8-0.3,1.1-0.4c0,0,0.1,0,0.1-0.1
			c6-3.7,12-7.5,18-11.2c0.5-0.3,0.8-0.7,0.8-1.3c0.1-6.7,0.7-13.3,0.7-19.9c0-0.9,0-1.7,0.1-2.6c0.1-0.7,0.4-1.6,0-1.9
			c-0.5-0.4-1.2,0.4-1.8,0.7c-6.1,3.2-12.1,6.4-18.2,9.6c-0.9,0.5-1.2,1-1.2,2C67.3,95.6,67.3,101,67.3,106.5z M111.5,39.7
			c0.1-1.4,0.1-1.4-1.2-0.8c-5.9,2.7-11.9,5.5-17.8,8.1c-0.7,0.3-0.9,0.7-0.9,1.4c0,1.9-0.1,3.8-0.2,5.8c-0.3,6.2-0.5,12.4-0.7,18.7
			c0,1.4,0.1,1.5,1.3,0.8c5.4-2.8,10.7-5.7,16.1-8.5c0.8-0.4,1.2-1,1.3-1.9c0.1-2,0.3-4,0.5-6.1C110.3,51.3,110.9,45.5,111.5,39.7z
			 M89.6,99.8c0,0.3,0,0.4,0,0.6c0,0.4-0.2,0.9,0.1,1.1c0.4,0.3,0.8-0.2,1.1-0.4c5.1-3.1,10.1-6.3,15.2-9.5c0.5-0.3,0.8-0.7,0.9-1.4
			c0.1-1.2,0.1-2.5,0.3-3.7c0.3-3.5,0.7-6.9,1-10.4c0.3-2.8,0.5-5.5,0.7-8.3c0.1-0.9-0.3-1-1-0.6c-1.1,0.6-2.2,1.2-3.3,1.8
			c-4.4,2.4-8.9,4.7-13.3,7.1c-0.6,0.3-0.8,0.7-0.8,1.3C90.2,85,90.1,92.5,89.6,99.8z M66.3,38.2c-0.3,0.1-0.6,0.2-0.8,0.3
			c-2.6,1.1-5.3,2.2-7.9,3.3c-3.9,1.6-7.8,3.1-11.7,4.7c-0.3,0.1-0.8,0.2-0.8,0.6c0,0.4,0.5,0.6,0.8,0.7c6.4,3,12.8,5.9,19.3,8.9
			c0.6,0.3,1.1,0.2,1.6-0.1c2.1-1,4.2-1.9,6.3-2.9c4.1-1.9,8.2-3.7,12.3-5.6c0.7-0.3,1.8-0.4,1.7-1.2c-0.1-0.7-1.2-0.8-1.9-1.1
			c-5.2-2.1-10.4-4.3-15.6-6.4C68.6,39.1,67.5,38.6,66.3,38.2z M67.6,132.4c0.1,0,0.1,0,0.2,0c0,1.7,0,3.3,0,5c0,0.4-0.2,1,0.4,1.2
			c0.5,0.2,0.8-0.2,1.1-0.5c4.9-3.5,9.9-7.1,14.8-10.6c1.6-1.2,3.1-2.1,3.1-4.7c-0.1-5.4,0.3-10.9,0.5-16.3c0-0.3,0.1-0.6-0.2-0.7
			c-0.3-0.1-0.4,0.2-0.6,0.3c-6,3.8-12.1,7.6-18.2,11.3c-0.7,0.4-1,0.9-0.9,1.7C67.6,123.6,67.6,128,67.6,132.4z M90.1,45.8
			c0.4,0,0.8-0.1,1.2-0.3c5.7-2.6,11.3-5.2,17-7.8c0.3-0.1,0.8-0.2,0.7-0.7c0-0.4-0.5-0.5-0.8-0.6c-6.4-2.4-12.7-4.7-19.1-7.1
			c-0.5-0.2-1-0.2-1.4,0c-5.8,2.4-11.6,4.7-17.4,7.1c-0.4,0.2-1.1,0.2-1.1,0.7c0,0.5,0.7,0.6,1.2,0.8c5.9,2.4,11.8,4.8,17.6,7.2
			C88.8,45.5,89.4,45.8,90.1,45.8z M111.3,61.5c0,0.4,0,0.5,0,0.7c0,0.3-0.2,0.7,0.2,0.9c0.3,0.2,0.6-0.1,0.9-0.3
			c0.8-0.4,1.6-0.8,2.3-1.3c3.1-1.7,6.3-3.4,9.4-5c0.9-0.4,1.3-1,1.4-2c0.1-1.6,0.3-3.3,0.5-4.9c0.4-3.4,0.8-6.8,1.3-10.3
			c0.3-2.5,0.6-4.9,0.9-7.4c0.1-1-0.2-1.2-1.1-0.8c-0.8,0.4-1.7,0.8-2.5,1.1c-3.4,1.5-6.7,3.1-10.1,4.6c-0.5,0.2-0.9,0.5-1,1.1
			c0,1-0.2,1.9-0.2,2.9c-0.2,2.7-0.4,5.3-0.7,8C112.2,53.2,111.7,57.5,111.3,61.5z M63.2,37.4c-0.6-0.8-1.4-0.9-2.1-1.2
			c-5.5-2.2-10.9-4.5-16.4-6.7c-0.5-0.2-1-0.2-1.5,0c-0.9,0.4-1.9,0.9-2.8,1.2c-5.4,1.7-10.7,3.9-16,5.8c-0.3,0.1-0.8,0.2-0.8,0.6
			c0,0.4,0.5,0.5,0.8,0.6c2.8,1.3,5.6,2.5,8.4,3.8c2.8,1.3,5.7,2.6,8.5,4c0.8,0.4,1.4,0.3,2.1,0c4.6-1.9,9.2-3.8,13.9-5.7
			C59.3,39,61.2,38.2,63.2,37.4z M108.8,88.3c0,0.2,0,0.4,0,0.5c0,0.3-0.1,0.6,0.1,0.8c0.3,0.2,0.6-0.1,0.8-0.3
			c0.5-0.3,1-0.6,1.5-0.9c3.4-2.1,6.9-4.3,10.3-6.5c0.3-0.2,0.6-0.3,0.7-0.8c0.1-1,0.3-2,0.4-3.1c0.3-2.9,0.7-5.9,1-8.8
			c0.4-3.3,0.8-6.6,1.2-9.9c0.1-0.9-0.1-1-0.9-0.6c-3.6,1.9-7.3,3.9-11,5.7c-1.6,0.8-2.3,1.7-2.3,3.6c0,2.7-0.4,5.3-0.7,8
			C109.6,80.1,109.2,84.2,108.8,88.3z M88.9,120.5c0,1,0,1.7,0,2.5c0,0.2-0.1,0.5,0.1,0.6c0.3,0.2,0.4-0.1,0.6-0.2
			c4.7-3.4,9.4-6.8,14.2-10.2c0.7-0.5,0.9-1.1,1-1.9c0.2-2,0.4-4,0.6-6.1c0.3-3.3,0.6-6.7,0.9-10c0-0.3,0.2-0.8-0.2-1
			c-0.4-0.3-0.7,0.1-1.1,0.3c-4.9,3.1-9.9,6.2-14.8,9.3c-0.4,0.3-0.8,0.5-0.8,1.2C89.5,110.2,89.2,115.5,88.9,120.5z M66.2,36
			c0.6,0,1.2-0.3,1.7-0.5c5.3-2.2,10.7-4.4,16-6.6c0.4-0.2,1-0.2,1-0.7c0-0.6-0.7-0.6-1.1-0.8c-5.4-2-10.9-4-16.3-6
			c-0.9-0.3-1.7-0.3-2.6,0c-5.4,2-10.7,4-16.1,6c-0.5,0.2-1.2,0.2-1.2,0.8c0,0.5,0.7,0.6,1.2,0.8c4.9,2,9.9,4,14.8,6
			C64.5,35.4,65.3,35.9,66.2,36z M20.5,35.8c0.5,0,0.9-0.1,1.3-0.3c4.6-1.7,9.1-3.4,13.7-5.1c1.5-0.6,3-1.1,4.5-1.7
			c0.3-0.1,0.6-0.2,0.7-0.6c0-0.4-0.3-0.4-0.6-0.5c-0.5-0.2-1-0.5-1.6-0.7c-3-1.2-6-2.3-8.9-3.6c-1.8-0.8-3.5-1.2-5.6-0.4
			c-5.5,2.1-11.2,3.9-16.8,5.9c-0.3,0.1-0.7,0.2-0.8,0.6c0,0.4,0.4,0.5,0.7,0.6c4.1,1.9,8.1,3.8,12.2,5.6
			C19.8,35.7,20.1,35.8,20.5,35.8z M106.1,22.2c-0.5,0.1-0.9,0.2-1.3,0.4c-0.9,0.4-1.9,0.8-2.9,1.2c-3,1.2-5.9,2.4-8.9,3.6
			c-0.4,0.2-0.9,0.3-1,0.7c0,0.5,0.6,0.5,1,0.7c1.7,0.6,3.4,1.2,5,1.9c4.3,1.8,8.7,3.2,13.1,5c0.7,0.3,1.4,0.2,2.1-0.1
			c1.3-0.7,2.7-1.3,4.1-1.9c2.7-1.3,5.5-2.5,8.2-3.8c0.2-0.1,0.5-0.1,0.6-0.4c0-0.4-0.3-0.4-0.6-0.6c-0.5-0.3-1.1-0.3-1.6-0.5
			c-4.4-1.5-8.7-3.1-13.1-4.6C109.2,23.3,107.6,22.7,106.1,22.2z M106.9,109.3c0,0.1,0,0.3,0,0.5c0,0.3-0.2,0.7,0.2,0.9
			c0.3,0.1,0.6-0.2,0.8-0.4c3.8-2.7,7.5-5.5,11.3-8.2c0.5-0.3,0.7-0.7,0.8-1.3c0.6-5.2,1.2-10.4,1.8-15.6c0-0.3,0.3-0.7-0.1-0.9
			c-0.3-0.2-0.7,0.1-1,0.2c-3.8,2.4-7.6,4.8-11.5,7.2c-0.6,0.3-0.8,0.8-0.9,1.5c0,1.2-0.2,2.3-0.3,3.5
			C107.7,100.9,107.3,105.1,106.9,109.3z M88.3,27.1c0.3-0.1,0.6-0.1,0.9-0.2c4.1-1.7,8.3-3.4,12.4-5.1c0.4-0.1,0.9-0.3,0.8-0.7
			c0-0.4-0.6-0.5-0.9-0.6c-5.3-1.9-10.5-3.7-15.8-5.6c-1.1-0.4-2.1-0.4-3.3,0c-3.8,1.5-7.6,2.8-11.4,4.2c-0.5,0.2-1.3,0.3-1.3,0.8
			c0,0.6,0.8,0.6,1.2,0.8c4.4,1.6,8.8,3.3,13.2,4.9C85.6,26.2,86.9,26.8,88.3,27.1z M48.7,14.6c-0.7,0-1.3,0.3-1.9,0.5
			c-3.4,1.2-6.8,2.3-10.2,3.5c-1.9,0.7-3.8,1.3-5.7,2c-0.3,0.1-0.7,0.3-0.7,0.7c0,0.5,0.4,0.4,0.7,0.5c4.1,1.7,8.2,3.4,12.3,5
			c0.7,0.3,1.3,0.3,2,0c3.4-1.3,6.7-2.5,10.1-3.8c2.3-0.8,4.5-1.7,6.8-2.5c0.3-0.1,0.6-0.2,0.7-0.5c0-0.4-0.4-0.4-0.6-0.6
			c-0.1-0.1-0.3-0.2-0.5-0.2c-2.9-1.1-5.8-2.2-8.7-3.2C51.5,15.5,50.2,14.9,48.7,14.6z M66.7,8.4c-0.8,0-1.3,0.2-1.8,0.4
			c-1.5,0.5-3.1,1-4.6,1.6c-2.5,0.9-5,1.6-7.4,2.7c-0.2,0.1-0.6,0.1-0.6,0.5c0,0.4,0.4,0.5,0.7,0.6c4.1,1.5,8.3,3,12.4,4.6
			c0.6,0.2,1.2,0.3,1.8,0c4.2-1.6,8.5-3.1,12.7-4.7c0.3-0.1,0.7-0.1,0.7-0.5c0-0.5-0.5-0.5-0.8-0.6c-4.1-1.5-8.2-2.9-12.4-4.3
			C67.1,8.5,66.8,8.5,66.7,8.4z M44.9,105.1c-0.1,0.3-0.1,0.4-0.1,0.5c0.1,6.7,0.3,13.3,0.6,20c0,0.7,0.4,1,0.9,1.3
			c2.7,1.7,5.4,3.4,8,5.2c3.6,2.3,7.1,4.5,10.7,6.8c0.6,0.4,0.9,0.4,0.9-0.5c-0.1-6.6-0.1-13.2-0.2-19.8c0-0.5-0.1-0.8-0.6-1.1
			c-2.8-1.7-5.6-3.4-8.4-5.1C52.8,110.1,48.9,107.6,44.9,105.1z M42.4,88.5c0.1-3.4-0.3-7.2-0.3-11.1c0-0.9-0.4-1.3-1.1-1.6
			c-1.1-0.5-2.1-1.1-3.2-1.7c-4.7-2.5-9.4-5-14.2-7.5c-0.8-0.4-0.9-0.2-0.9,0.6c0.1,0.7,0,1.5,0.1,2.2c0.4,6.5,0.8,13.1,1.2,19.6
			c0,0.9,0.3,1.4,1,1.8c5.6,3.4,11.2,6.9,16.8,10.3c0.2,0.1,0.4,0.5,0.7,0.3c0.3-0.2,0.2-0.6,0.2-0.9C42.7,96.7,42.5,92.8,42.4,88.5
			z M20.6,61.2c-0.2-3-0.3-5.9-0.5-8.8c-0.3-4.8-0.6-9.5-0.9-14.3c0-0.4,0-0.8-0.5-1c-4.5-2-8.9-4-13.3-6.1c-1.1-0.5-1.1-0.1-1,0.8
			C4.7,37.2,5.2,42.6,5.7,48c0.2,2.2,0.4,4.3,0.6,6.5c0.1,0.6,0.2,1.1,0.9,1.4c4,2,7.9,4.1,11.8,6.2c0.5,0.3,1.1,0.9,1.6,0.6
			C21,62.4,20.5,61.7,20.6,61.2z M24.4,92.5c0,0.4-0.1,0.7,0,0.9c0.4,6.6,0.8,13.2,1.2,19.8c0,0.6,0.4,0.7,0.7,1
			c5.4,3.5,10.8,6.9,16.3,10.4c0.2,0.2,0.5,0.6,0.8,0.3c0.3-0.2,0.1-0.6,0.1-0.9c-0.2-6.4-0.6-12.9-0.6-19.3c0-0.6-0.2-0.9-0.7-1.2
			c-1.9-1.1-3.7-2.3-5.6-3.5C32.7,97.5,28.6,95.1,24.4,92.5z"/>
		<path fill="#3755A4" d="M67.3,82.6c-0.2-7.3-0.1-14.5-0.2-21.8c0-2.3,0-2.2,2-3.2c4.6-2.1,9.2-4.2,13.8-6.3c2-0.9,4-1.8,5.9-2.7
			c0.8-0.4,0.7,0.1,0.7,0.6c-0.1,2.4-0.1,4.8-0.2,7.3c-0.1,3.3-0.3,6.6-0.4,9.9c-0.1,2.7-0.2,5.3-0.2,8c0,0.7-0.3,1.1-0.9,1.4
			c-6.5,3.4-13,6.9-19.5,10.3c-1,0.5-1,0.4-1-0.7C67.3,84.5,67.3,83.5,67.3,82.6z"/>
		<path fill="#3755A4" d="M67.3,106.5c0-5.4,0-10.9,0-16.3c0-1,0.2-1.5,1.2-2c6.1-3.2,12.1-6.4,18.2-9.6c0.6-0.3,1.2-1.1,1.8-0.7
			c0.4,0.3,0.1,1.3,0,1.9c-0.1,0.8-0.1,1.7-0.1,2.6c0,6.7-0.6,13.3-0.7,19.9c0,0.6-0.3,1-0.8,1.3c-6,3.7-12,7.5-18,11.2
			c0,0-0.1,0-0.1,0.1c-0.4,0.2-0.8,0.6-1.1,0.4c-0.4-0.2-0.2-0.8-0.2-1.2c0-2.6,0-5.1,0-7.7C67.5,106.5,67.4,106.5,67.3,106.5z"/>
		<path fill="#3755A4" d="M111.5,39.7c-0.6,5.8-1.1,11.6-1.7,17.4c-0.2,2-0.3,4-0.5,6.1c-0.1,0.9-0.5,1.5-1.3,1.9
			c-5.4,2.8-10.7,5.7-16.1,8.5c-1.2,0.6-1.3,0.6-1.3-0.8c0.2-6.2,0.4-12.4,0.7-18.7c0.1-1.9,0.1-3.8,0.2-5.8c0-0.7,0.2-1,0.9-1.4
			c5.9-2.7,11.9-5.4,17.8-8.1C111.5,38.3,111.5,38.3,111.5,39.7z"/>
		<path fill="#3755A4" d="M89.6,99.8c0.5-7.3,0.5-14.8,0.8-22.3c0-0.6,0.2-1,0.8-1.3c4.5-2.3,8.9-4.7,13.3-7.1
			c1.1-0.6,2.2-1.2,3.3-1.8c0.7-0.4,1-0.3,1,0.6c-0.3,2.8-0.5,5.5-0.7,8.3c-0.3,3.5-0.7,6.9-1,10.4c-0.1,1.2-0.2,2.5-0.3,3.7
			c0,0.6-0.3,1-0.9,1.4c-5.1,3.2-10.1,6.3-15.2,9.5c-0.3,0.2-0.7,0.7-1.1,0.4c-0.3-0.2-0.1-0.7-0.1-1.1
			C89.6,100.3,89.6,100.1,89.6,99.8z"/>
		<path fill="#E82326" d="M66.3,38.2c1.1,0.4,2.3,0.8,3.4,1.3c5.2,2.1,10.4,4.2,15.6,6.4c0.7,0.3,1.8,0.4,1.9,1.1
			c0.1,0.8-1.1,0.9-1.7,1.2c-4.1,1.9-8.2,3.7-12.3,5.6c-2.1,1-4.2,1.9-6.3,2.9c-0.6,0.3-1,0.3-1.6,0.1c-6.4-3-12.8-6-19.3-8.9
			c-0.4-0.2-0.8-0.3-0.8-0.7c0-0.4,0.5-0.4,0.8-0.6c3.9-1.6,7.8-3.1,11.7-4.7c2.6-1.1,5.3-2.2,7.9-3.3C65.8,38.4,66,38.3,66.3,38.2z
			"/>
		<path fill="#3755A4" d="M67.6,132.4c0-4.4,0-8.8,0-13.2c0-0.8,0.2-1.3,0.9-1.7c6.1-3.8,12.1-7.6,18.2-11.3
			c0.2-0.1,0.4-0.4,0.6-0.3c0.4,0.1,0.2,0.5,0.2,0.7c-0.2,5.4-0.6,10.9-0.5,16.3c0.1,2.6-1.5,3.5-3.1,4.7
			c-4.9,3.6-9.8,7.1-14.8,10.6c-0.3,0.2-0.7,0.7-1.1,0.5c-0.5-0.2-0.4-0.8-0.4-1.2c0-1.7,0-3.3,0-5
			C67.7,132.4,67.6,132.4,67.6,132.4z"/>
		<path fill="#E82326" d="M90.1,45.8c-0.7,0-1.4-0.3-2-0.6c-5.9-2.4-11.8-4.8-17.6-7.2c-0.4-0.2-1.1-0.3-1.2-0.8
			c0-0.5,0.7-0.5,1.1-0.7c5.8-2.4,11.6-4.7,17.4-7.1c0.5-0.2,1-0.2,1.4,0c6.4,2.4,12.7,4.7,19.1,7.1c0.3,0.1,0.8,0.2,0.8,0.6
			c0,0.4-0.4,0.5-0.7,0.7c-5.7,2.6-11.4,5.2-17,7.8C91,45.7,90.6,45.9,90.1,45.8z"/>
		<path fill="#3755A4" d="M111.3,61.5c0.4-4,0.8-8.2,1.2-12.5c0.3-2.7,0.5-5.3,0.7-8c0.1-1,0.2-1.9,0.2-2.9c0-0.7,0.5-0.9,1-1.1
			c3.4-1.5,6.7-3.1,10.1-4.6c0.8-0.4,1.7-0.8,2.5-1.1c0.9-0.4,1.2-0.2,1.1,0.8c-0.3,2.5-0.6,4.9-0.9,7.4c-0.4,3.4-0.8,6.8-1.3,10.3
			c-0.2,1.6-0.4,3.2-0.5,4.9c-0.1,0.9-0.5,1.5-1.4,2c-3.2,1.6-6.3,3.3-9.4,5c-0.8,0.4-1.6,0.8-2.3,1.3c-0.3,0.2-0.6,0.4-0.9,0.3
			c-0.3-0.2-0.1-0.6-0.2-0.9C111.3,62,111.3,61.9,111.3,61.5z"/>
		<path fill="#E82326" d="M63.2,37.4c-2,0.8-4,1.7-5.9,2.5c-4.6,1.9-9.2,3.8-13.9,5.7c-0.7,0.3-1.4,0.4-2.1,0
			c-2.8-1.4-5.7-2.6-8.5-4c-2.8-1.3-5.6-2.5-8.4-3.8c-0.3-0.1-0.8-0.2-0.8-0.6c0-0.4,0.5-0.5,0.8-0.6c5.3-1.9,10.6-4.1,16-5.8
			c1-0.3,1.9-0.8,2.8-1.2c0.5-0.2,1-0.2,1.5,0c5.5,2.2,10.9,4.5,16.4,6.7C61.8,36.5,62.6,36.6,63.2,37.4z"/>
		<path fill="#3755A4" d="M108.8,88.3c0.4-4,0.8-8.1,1.2-12.2c0.3-2.7,0.6-5.3,0.7-8c0-1.8,0.7-2.8,2.3-3.6c3.7-1.8,7.3-3.8,11-5.7
			c0.8-0.4,1-0.3,0.9,0.6c-0.4,3.3-0.8,6.6-1.2,9.9c-0.3,2.9-0.7,5.9-1,8.8c-0.1,1-0.3,2-0.4,3.1c0,0.4-0.4,0.6-0.7,0.8
			c-3.4,2.2-6.9,4.3-10.3,6.5c-0.5,0.3-1,0.6-1.5,0.9c-0.3,0.2-0.5,0.5-0.8,0.3c-0.3-0.2-0.1-0.5-0.1-0.8
			C108.8,88.6,108.8,88.5,108.8,88.3z"/>
		<path fill="#3755A4" d="M88.9,120.5c0.3-5,0.6-10.3,0.6-15.6c0-0.6,0.3-0.9,0.8-1.2c4.9-3.1,9.8-6.2,14.8-9.3
			c0.3-0.2,0.7-0.6,1.1-0.3c0.3,0.2,0.2,0.7,0.2,1c-0.3,3.3-0.6,6.7-0.9,10c-0.2,2-0.4,4-0.6,6.1c-0.1,0.8-0.3,1.4-1,1.9
			c-4.7,3.4-9.4,6.8-14.2,10.2c-0.2,0.1-0.4,0.4-0.6,0.2c-0.2-0.1-0.1-0.4-0.1-0.6C88.9,122.2,88.9,121.5,88.9,120.5z"/>
		<path fill="#E82326" d="M66.2,36c-1-0.1-1.8-0.6-2.6-0.9c-5-2-9.9-4-14.8-6c-0.4-0.2-1.2-0.3-1.2-0.8c0-0.6,0.7-0.7,1.2-0.8
			c5.4-2,10.7-4,16.1-6c0.9-0.3,1.7-0.4,2.6,0c5.4,2,10.9,4,16.3,6c0.4,0.2,1.1,0.2,1.1,0.8c0,0.4-0.6,0.5-1,0.7
			c-5.3,2.2-10.6,4.4-16,6.6C67.4,35.8,66.9,36,66.2,36z"/>
		<path fill="#E82326" d="M20.5,35.8c-0.4,0-0.8-0.1-1.1-0.2c-4.1-1.9-8.1-3.7-12.2-5.6c-0.3-0.1-0.7-0.2-0.7-0.6
			c0-0.4,0.5-0.5,0.8-0.6c5.6-1.9,11.3-3.7,16.8-5.9c2.1-0.8,3.7-0.4,5.6,0.4c2.9,1.3,5.9,2.4,8.9,3.6c0.5,0.2,1,0.5,1.6,0.7
			c0.2,0.1,0.6,0.2,0.6,0.5c0,0.4-0.4,0.5-0.7,0.6c-1.5,0.6-3,1.1-4.5,1.7c-4.6,1.7-9.1,3.4-13.7,5.1C21.4,35.7,21,35.8,20.5,35.8z"
			/>
		<path fill="#E82326" d="M106.1,22.2c1.6,0.5,3.2,1.1,4.7,1.6c4.4,1.5,8.7,3.1,13.1,4.6c0.5,0.2,1.1,0.1,1.6,0.5
			c0.2,0.1,0.6,0.2,0.6,0.6c0,0.3-0.3,0.3-0.6,0.4c-2.7,1.3-5.5,2.5-8.2,3.8c-1.4,0.6-2.7,1.2-4.1,1.9c-0.7,0.3-1.4,0.4-2.1,0.1
			c-4.3-1.7-8.8-3.2-13.1-5c-1.6-0.7-3.3-1.2-5-1.9c-0.4-0.1-1-0.1-1-0.7c0-0.5,0.6-0.6,1-0.7c3-1.2,5.9-2.4,8.9-3.6
			c1-0.4,1.9-0.8,2.9-1.2C105.2,22.4,105.6,22.3,106.1,22.2z"/>
		<path fill="#3755A4" d="M106.9,109.3c0.4-4.2,0.8-8.4,1.2-12.5c0.1-1.2,0.3-2.3,0.3-3.5c0-0.7,0.3-1.1,0.9-1.5
			c3.8-2.4,7.6-4.8,11.5-7.2c0.3-0.2,0.6-0.5,1-0.2c0.3,0.2,0.1,0.6,0.1,0.9c-0.6,5.2-1.2,10.4-1.8,15.6c-0.1,0.6-0.3,1-0.8,1.3
			c-3.8,2.7-7.5,5.5-11.3,8.2c-0.2,0.2-0.5,0.5-0.8,0.4c-0.3-0.2-0.2-0.6-0.2-0.9C106.9,109.6,106.9,109.4,106.9,109.3z"/>
		<path fill="#E82326" d="M88.3,27.1c-1.4-0.3-2.7-0.9-4-1.4c-4.4-1.6-8.8-3.2-13.2-4.9c-0.5-0.2-1.3-0.3-1.2-0.8
			c0-0.5,0.8-0.6,1.3-0.8c3.8-1.4,7.6-2.8,11.4-4.2c1.1-0.5,2.2-0.4,3.3,0c5.2,1.9,10.5,3.7,15.8,5.6c0.4,0.1,0.9,0.2,0.9,0.6
			c0,0.4-0.5,0.6-0.8,0.7c-4.1,1.7-8.3,3.4-12.4,5.1C89,27,88.6,27,88.3,27.1z"/>
		<path fill="#E82326" d="M48.7,14.6c1.5,0.3,2.8,0.9,4.2,1.4c2.9,1,5.8,2.1,8.7,3.2c0.2,0.1,0.4,0.1,0.5,0.2
			c0.2,0.2,0.7,0.3,0.6,0.6c0,0.3-0.4,0.4-0.7,0.5c-2.3,0.9-4.5,1.7-6.8,2.5c-3.4,1.2-6.7,2.5-10.1,3.8c-0.7,0.3-1.3,0.3-2,0
			c-4.1-1.7-8.2-3.3-12.3-5c-0.3-0.1-0.7-0.1-0.7-0.5c0-0.4,0.4-0.6,0.7-0.7c1.9-0.7,3.8-1.3,5.7-2c3.4-1.2,6.8-2.3,10.2-3.5
			C47.5,14.9,48,14.6,48.7,14.6z"/>
		<path fill="#E82326" d="M66.7,8.4c0.1,0,0.4,0,0.7,0.1c4.1,1.4,8.2,2.9,12.4,4.3c0.3,0.1,0.8,0.1,0.8,0.6c0,0.4-0.4,0.4-0.7,0.5
			c-4.2,1.6-8.5,3.1-12.7,4.7c-0.6,0.2-1.2,0.2-1.8,0c-4.1-1.5-8.3-3-12.4-4.6c-0.3-0.1-0.7-0.2-0.7-0.6c0-0.4,0.4-0.4,0.6-0.5
			c2.4-1.1,5-1.7,7.4-2.7c1.5-0.6,3.1-1.1,4.6-1.6C65.4,8.6,65.9,8.4,66.7,8.4z"/>
		<path fill="#F6D011" d="M23.7,111.1c-0.4-6.4-0.8-12.8-1.2-19.2c0-0.5-0.2-0.7-0.6-1c-4.1-2.5-8.2-5.1-12.3-7.6
			c-0.2-0.1-0.4-0.3-0.7-0.2c-0.2,0.2-0.1,0.5-0.1,0.7c0.6,6.5,1.1,13,1.7,19.5c0,0.6,0.3,0.9,0.7,1.2c1.6,1,3.1,2.1,4.7,3
			c2,1.2,3.8,2.6,5.8,3.6l0,0c0.4,0.6,1.1,0.8,1.7,1.2C23.8,111.9,23.7,111.5,23.7,111.1z"/>
		<path fill="#F6D011" d="M41.9,73.1c-0.3-8.2-0.6-16.4-0.8-24.6c0-0.7-0.2-1-0.9-1.3c-3.7-1.6-7.3-3.3-10.9-5
			c-1.7-0.8-3.4-1.7-5.1-2.2c-0.1-0.1-0.3-0.1-0.4-0.2c-0.1,0.1-0.2,0.1-0.2-0.1c0,0,0,0,0,0c0,0,0,0,0,0v0C22.8,39,22,38.7,21,38.3
			c0,0.9-0.1,1.7,0.2,2.4c-0.1,0.4,0,0.8,0.1,1.2c-0.1,0.7-0.2,1.5,0.2,2.2c-0.1,0.2-0.1,0.4,0,0.6c0,2,0,4,0.3,6
			c0,0.6,0.1,1.3,0.1,1.9c0,0.7-0.2,1.4,0.2,2.1c0,0-0.1,0-0.1,0.1c0,0.1,0,0.1,0,0.2c0,2,0,4,0.3,6c0,0.4,0,0.8,0.1,1.2
			c-0.1,1-0.2,2,1.2,2.2c0.4,0.2,0.8,0.4,1.2,0.6c0.8,0.7,1.8,1.1,2.7,1.6c4.4,2.3,8.8,4.7,13.2,7C41.9,74.2,42,74.2,41.9,73.1z
			 M23,63.3c0.2,0.4,0.3,0.8,0.6,1.1C23.3,64.1,23.2,63.7,23,63.3z M37.7,71.6c0.5,0.3,1.1,0.6,1.6,0.8
			C38.8,72.1,38.2,71.8,37.7,71.6z M38.9,47.2c0.3,0.1,0.6,0.2,0.8,0.4C39.4,47.4,39.1,47.3,38.9,47.2z M40.9,55.8
			c0-0.9,0-1.7,0-2.6C40.9,54.1,40.9,55,40.9,55.8z"/>
		<path fill="#F6D011" d="M65.4,85.6c0.1-1.1,0.1-2.2,0-3.4c0-0.1,0.1-0.3,0.1-0.4c0-5.3-0.1-10.6-0.1-15.9c0-0.3,0.1-0.6-0.2-0.8v0
			c0.2-1.1,0.1-2.1,0-3.2c0.2-0.4,0.2-0.8,0-1.1c0-0.2,0-0.4,0-0.6c0.3-1.5,0.2-1.7-1.3-2.4c-5.2-2.4-10.3-4.8-15.5-7.1
			c-1.7-0.8-3.4-1.5-5.1-2.3c0,1.9-0.1,3.8,0,5.6c0.1,2.5,0,5,0.4,7.4c-0.1,0.7-0.1,1.4,0.1,2.1c0,0.2-0.1,0.3-0.1,0.5
			c0.1,3.3,0.2,6.7,0.2,10c0,1.1,0.4,1.6,1.4,1.7c0.1,0.2,0.3,0.3,0.5,0.3c0.1,0.1,0.2,0.2,0.3,0.3c2.9,1.5,5.8,3.1,8.7,4.6
			c2.2,1.1,4.3,2.4,6.6,3.4c0.1,0.1,0.3,0.1,0.4,0.2c0.1-0.1,0.2-0.1,0.2,0.1c0,0,0,0,0,0c0.8,0.6,1.6,1.1,2.5,1.3
			c0.2,0.4,0.6,0.6,0.9,0.5C65.6,86.3,65.4,85.9,65.4,85.6z M43.9,65.3c0.1,2.3,0.2,4.7,0.2,7C44,70,43.9,67.7,43.9,65.3z
			 M44.3,74.8c0.1,0.3,0.3,0.6,0.6,0.9C44.6,75.4,44.5,75.1,44.3,74.8z"/>
		<path fill="#D1CA54" d="M48.2,104.9c0.2,0,0.4,0,0.5,0.3C48.5,105.2,48.3,105.1,48.2,104.9z"/>
		<path fill="#F6D011" d="M65.5,89.5c0-0.6-0.2-0.9-0.7-1.1c-3.6-1.9-7.2-3.8-10.8-5.7c-1.6-0.8-3.2-1.9-4.9-2.5l0,0
			c-0.5-0.5-1.1-0.8-1.8-1l-0.1,0c-0.1-0.2-0.3-0.2-0.5-0.2c-0.6-0.6-1.5-0.9-2.3-1.3c-0.4-0.2-0.6,0-0.5,0.3
			c0.1,1.2-0.1,2.4,0.2,3.6c-0.1,0.3-0.1,0.6,0,0.8c0,0.2-0.1,0.5-0.1,0.7c0.1,3.7,0.2,7.4,0.3,11.1c0,0.3,0,0.6,0.2,0.8
			c-0.1,0.3-0.1,0.7,0,1c0,1.4,0,2.9,0,4.3c0,0.6-0.2,1.3,0.2,1.8c0,0-0.1,0-0.1,0.1c0,0.1,0,0.2,0,0.2c0.2,1,1,1.5,1.7,1.5h0
			c0.2,0,0.5,0.5,0.9,0.5l0.1,0c0.1,0.3,0.3,0.4,0.6,0.4l0-0.1c0.2,0,0.4,0.2,0.5,0.2c0,0,0,0,0,0c0.7,1,1.5,1.2,2.4,1.6
			c0.3,0.4,0.6,0.6,1.1,0.7c0.4,0.5,0.9,0.9,1.6,1c0.8,0.6,1.6,1.3,2.5,1.5c0.7,0.8,1.7,1.2,2.6,1.7c0.5,0.3,0.9,0.8,1.5,0.9
			c0.2,0.3,0.5,0.5,0.9,0.6c0.1,0,0.2,0.1,0.3,0.1c1,0.9,2.3,1.5,3.4,2.3c0.7,0.5,0.8,0.3,0.8-0.4C65.6,106.4,65.5,98,65.5,89.5z"/>
		<path fill="#D1CA54" d="M23.8,39.7c-0.1,0.1-0.2,0.1-0.2-0.1C23.6,39.6,23.7,39.6,23.8,39.7z"/>
		<path fill="#D1CA54" d="M61.6,84.5c0.1-0.1,0.2-0.1,0.2,0.1C61.7,84.6,61.6,84.6,61.6,84.5z"/>
		<path fill="#F6D011" d="M65.7,118.7c0-0.5-0.1-0.8-0.6-1.1c-2.8-1.7-5.6-3.4-8.4-5.1c-3.9-2.4-7.7-4.8-11.7-7.3
			c-0.1,0.3-0.1,0.4-0.1,0.5c0.1,6.7,0.3,13.3,0.6,20c0,0.7,0.4,1,0.9,1.3c2.7,1.7,5.4,3.4,8,5.2c3.6,2.3,7.1,4.5,10.7,6.8
			c0.6,0.4,0.9,0.4,0.9-0.5C65.8,131.8,65.8,125.3,65.7,118.7z"/>
		<path fill="#F6D011" d="M42.8,100.6c-0.1-3.9-0.3-7.8-0.4-12.1c0.1-3.4-0.3-7.2-0.3-11.1c0-0.9-0.4-1.3-1.1-1.6
			c-1.1-0.5-2.1-1.1-3.2-1.7c-4.7-2.5-9.4-5-14.2-7.5c-0.8-0.4-0.9-0.2-0.9,0.6c0.1,0.7,0,1.5,0.1,2.2c0.4,6.5,0.8,13.1,1.2,19.6
			c0,0.9,0.3,1.4,1,1.8c5.6,3.4,11.2,6.9,16.8,10.3c0.2,0.1,0.4,0.5,0.7,0.3C42.9,101.3,42.8,100.9,42.8,100.6z"/>
		<path fill="#F6D011" d="M43.6,124c-0.2-6.4-0.6-12.9-0.6-19.3c0-0.6-0.2-0.9-0.7-1.2c-1.9-1.1-3.7-2.3-5.6-3.5
			c-4-2.5-8.1-5-12.3-7.6c0,0.4-0.1,0.7,0,0.9c0.4,6.6,0.8,13.2,1.2,19.8c0,0.6,0.4,0.7,0.7,1c5.4,3.5,10.8,6.9,16.3,10.4
			c0.2,0.2,0.5,0.6,0.8,0.3C43.8,124.7,43.6,124.3,43.6,124z M25,94.5c0-0.1-0.1-0.3,0-0.4c0,0,0,0.1,0,0.1c0.1,0.8,0.2,1.5,0.3,2.3
			C25.2,95.9,25.1,95.2,25,94.5z M42.1,123.4c-1.3-0.9-2.7-1.8-4-2.6c-2.4-1.5-4.8-2.8-7.1-4.4c-1.1-0.7-2.1-1.5-3.3-2.1
			c-1-0.5-1.4-1.2-1.5-2c0.2,0.8,0.6,1.5,1.5,1.9c1.2,0.6,2.2,1.3,3.3,2.1c2.3,1.6,4.7,2.9,7.1,4.4
			C39.5,121.6,40.8,122.5,42.1,123.4c0.2,0.1,0.3,0.2,0.4,0.2C42.4,123.6,42.3,123.5,42.1,123.4z M42.6,113.6c0-0.8,0-1.5,0-2.3
			c0,0,0,0,0,0C42.6,112.1,42.5,112.8,42.6,113.6z M43,123c0,0.4-0.1,0.6-0.3,0.6C42.9,123.6,43,123.5,43,123c0-0.2,0-0.5,0-0.7
			C43,122.5,43,122.8,43,123z"/>
	</g>
</g>
</svg>
