<?xml version="1.0" encoding="utf-8"?>
<!-- Generator: Adobe Illustrator 19.0.0, SVG Export Plug-In . SVG Version: 6.00 Build 0)  -->
<!DOCTYPE svg PUBLIC "-//W3C//DTD SVG 1.1//EN" "http://www.w3.org/Graphics/SVG/1.1/DTD/svg11.dtd">
<svg version="1.1" id="Layer_1" xmlns="http://www.w3.org/2000/svg" xmlns:xlink="http://www.w3.org/1999/xlink" x="0px" y="0px"
	 viewBox="-310 166.4 337.4 229.6" style="enable-background:new -310 166.4 337.4 229.6;" xml:space="preserve">
<style type="text/css">
	.st0{fill:#998675;}
	.st1{fill:#825439;}
	.st2{fill:#CD0014;}
	.st3{fill:#736357;}
	.st4{fill:#FFFFFF;}
</style>
<rect x="-296.6" y="239.6" class="st0" width="315.7" height="155.1"/>
<rect x="-253.4" y="229" class="st1" width="2.5" height="167.1"/>
<rect x="-276" y="229" class="st1" width="2.5" height="167.1"/>
<rect x="-228.1" y="229" class="st1" width="2.5" height="167.1"/>
<rect x="-202.7" y="229" class="st1" width="2.5" height="167.1"/>
<rect x="-177.3" y="229" class="st1" width="2.5" height="167.1"/>
<rect x="-151.9" y="229" class="st1" width="2.5" height="167.1"/>
<rect x="-126.6" y="229" class="st1" width="2.5" height="167.1"/>
<rect x="-101.2" y="229" class="st1" width="2.5" height="167.1"/>
<rect x="-75.8" y="229" class="st1" width="2.5" height="167.1"/>
<rect x="-50.5" y="229" class="st1" width="2.5" height="167.1"/>
<rect x="-25.1" y="229" class="st1" width="2.5" height="167.1"/>
<rect x="0.3" y="229" class="st1" width="2.5" height="167.1"/>
<rect x="-304.1" y="168.3" class="st2" width="331.5" height="153.1"/>
<rect x="-304.1" y="320" class="st3" width="331.5" height="4.9"/>
<rect x="-304.1" y="166.7" class="st3" width="331.5" height="5.2"/>
<rect x="21.5" y="168" class="st3" width="5.9" height="157.6"/>
<g>
	<path class="st4" d="M-33.8,276.9c-34.7,6.5-69.6,11.9-105.4,12.6c-29,0.6-57.5-1.8-85.5-8c-28-6.1-53.7-16.6-78-29.3
		c-0.4-0.2-0.4-0.4-1.1-0.7l-0.4,32.5c1.3,0.4,2.7,0.7,3.9,1.1c29.9,10.5,61.3,14.6,93.6,14.1c21-0.3,41.8-2.4,62.6-4.8
		c34.1-4,68-9.6,102.5-11.6c16.3-0.9,32.6-1.1,48.7,1.3c4.8,0.7,9.7,1.6,14.3,2.3c0.1-5,0.1-10,0.2-14.9
		C2.7,270.7-15.6,273.5-33.8,276.9z"/>
</g>
<rect x="-310" y="166.4" class="st3" width="5.9" height="157.6"/>
<g>
	<path class="st4" d="M-286.4,225.1h6.9v14.7h9.6v5.9h-16.5V225.1z"/>
	<path class="st4" d="M-269.2,241.1L-269.2,241.1c0-3.3,2.4-5,6.1-5c1.3,0,3.1,0.3,3.8,0.6v-0.3c0-1.5-0.9-2.3-3-2.3
		c-1.6,0-3,0.4-4.4,0.9l-1.2-4.4c1.8-0.7,4-1.2,6.7-1.2c3.3,0,5.4,0.7,6.8,2.1c1.2,1.2,1.7,2.8,1.7,5.1v9.1h-6.7V244
		c-1.1,1.2-2.6,2-4.6,2C-267,246-269.2,244.3-269.2,241.1z M-259.3,239.7V239c-0.4-0.1-1-0.3-1.5-0.3c-1.3,0-2.1,0.8-2.1,1.8v0.1
		c0,0.9,0.7,1.6,1.5,1.6C-260.2,242.2-259.3,241.2-259.3,239.7z"/>
	<path class="st4" d="M-243.9,237.7L-243.9,237.7c0-4.5,3.5-8.4,8.7-8.4c3.5,0,6,1.8,7.2,4.4l-4.8,2.7c-0.6-1-1.3-1.6-2.3-1.6
		c-1.4,0-2.5,1.2-2.5,2.8v0.1c0,1.7,1.1,2.9,2.4,2.9c1.2,0,1.8-0.6,2.5-1.6l4.8,2.8c-1.4,2.7-3.9,4.4-7.7,4.4
		C-240.3,246-243.9,242.2-243.9,237.7z"/>
	<path class="st4" d="M-226.7,224.2h6.7v7.5c1-1.3,2.6-2.5,4.9-2.5c3.4,0,5.5,2.2,5.5,5.8v10.6h-6.7v-8.4c0-1.4-0.8-2.2-1.8-2.2
		c-1,0-1.9,0.8-1.9,2.2v8.4h-6.7V224.2z"/>
	<path class="st4" d="M-207.9,224.2h6.9v4.3h-6.9V224.2z M-207.8,229.6h6.7v16h-6.7V229.6z"/>
	<path class="st4" d="M-200.2,243.7l2.3-3.8c1.9,1.2,4.1,1.8,5.9,1.8c0.6,0,1-0.1,1-0.5v-0.1c0-0.3-0.3-0.5-1.9-0.9
		c-4-1-6.5-2.1-6.5-5.4v-0.1c0-3.5,2.8-5.5,7-5.5c2.6,0,5.2,0.7,7.2,1.8l-2.1,4c-1.7-0.9-3.8-1.5-5.1-1.5c-0.6,0-0.9,0.2-0.9,0.5
		v0.1c0,0.3,0.4,0.5,2,0.9c4,1,6.5,2.1,6.5,5.4v0.1c0,3.5-2.6,5.5-6.9,5.5C-195.1,246-197.9,245.2-200.2,243.7z"/>
	<path class="st4" d="M-183.7,229.6h6.7v2c1.1-1.2,2.3-2.3,4.7-2.3c3.9,0,6.9,3.4,6.9,8.3v0.1c0,5.1-3,8.4-6.8,8.4
		c-2.4,0-3.8-1.1-4.8-2.2v6.5h-6.7V229.6z M-171.8,237.7L-171.8,237.7c0-1.7-1.1-2.9-2.7-2.9s-2.7,1.3-2.7,2.9v0.1
		c0,1.6,1.1,2.9,2.7,2.9S-171.8,239.3-171.8,237.7z"/>
	<path class="st4" d="M-164.4,241.1L-164.4,241.1c0-3.3,2.4-5,6.1-5c1.3,0,3.1,0.3,3.8,0.6v-0.3c0-1.5-0.9-2.3-3-2.3
		c-1.6,0-3,0.4-4.4,0.9l-1.2-4.4c1.8-0.7,4-1.2,6.7-1.2c3.3,0,5.4,0.7,6.8,2.1c1.2,1.2,1.7,2.8,1.7,5.1v9.1h-6.7V244
		c-1.1,1.2-2.6,2-4.6,2C-162.3,246-164.4,244.3-164.4,241.1z M-154.5,239.7V239c-0.4-0.1-1-0.3-1.5-0.3c-1.3,0-2.1,0.8-2.1,1.8v0.1
		c0,0.9,0.7,1.6,1.5,1.6C-155.4,242.2-154.5,241.2-154.5,239.7z"/>
	<path class="st4" d="M-139.1,237.7L-139.1,237.7c0-5.1,3-8.5,6.8-8.5c2.4,0,3.8,1.1,4.8,2.2v-7.2h6.7v21.4h-6.7v-2
		c-1.1,1.2-2.3,2.3-4.7,2.3C-136,246-139.1,242.6-139.1,237.7z M-127.3,237.7L-127.3,237.7c0-1.6-1.1-2.9-2.7-2.9s-2.7,1.3-2.7,2.9
		v0.1c0,1.6,1.1,2.9,2.7,2.9S-127.3,239.3-127.3,237.7z"/>
	<path class="st4" d="M-119.3,237.7L-119.3,237.7c0-4.8,3.4-8.5,8.2-8.5c5.7,0,8.3,4,8.3,8.8c0,0.4,0,0.8,0,1.1H-113
		c0.5,1.4,1.6,2.1,3,2.1c1.2,0,2.2-0.6,3.3-1.6l3.6,2.8c-1.6,2.1-3.8,3.5-7.3,3.5C-115.7,246-119.3,242.7-119.3,237.7z
		 M-108.8,236.3c-0.1-1.5-1.1-2.4-2.2-2.4c-1.1,0-1.9,0.9-2.1,2.4H-108.8z"/>
	<path class="st4" d="M-93.7,224.2h6.7v21.4h-6.7V224.2z"/>
	<path class="st4" d="M-85.6,241.1L-85.6,241.1c0-3.3,2.4-5,6.1-5c1.3,0,3.1,0.3,3.8,0.6v-0.3c0-1.5-0.9-2.3-3-2.3
		c-1.6,0-3,0.4-4.4,0.9l-1.2-4.4c1.8-0.7,4-1.2,6.7-1.2c3.3,0,5.4,0.7,6.8,2.1c1.2,1.2,1.7,2.8,1.7,5.1v9.1h-6.7V244
		c-1.1,1.2-2.6,2-4.6,2C-83.4,246-85.6,244.3-85.6,241.1z M-75.7,239.7V239c-0.4-0.1-1-0.3-1.5-0.3c-1.3,0-2.1,0.8-2.1,1.8v0.1
		c0,0.9,0.7,1.6,1.5,1.6C-76.6,242.2-75.7,241.2-75.7,239.7z"/>
	<path class="st4" d="M-60.8,229.6h7l2.6,8l2.6-8h6.9l-6.5,16.1h-6.1L-60.8,229.6z"/>
	<path class="st4" d="M-40.8,224.2h6.9v4.3h-6.9V224.2z M-40.7,229.6h6.7v16h-6.7V229.6z"/>
	<path class="st4" d="M-32.4,237.7L-32.4,237.7c0-5.1,3-8.5,6.8-8.5c2.4,0,3.8,1.1,4.8,2.2v-7.2h6.7v21.4h-6.7v-2
		c-1.1,1.2-2.3,2.3-4.7,2.3C-29.4,246-32.4,242.6-32.4,237.7z M-20.6,237.7L-20.6,237.7c0-1.6-1.1-2.9-2.7-2.9
		c-1.5,0-2.7,1.3-2.7,2.9v0.1c0,1.6,1.1,2.9,2.7,2.9C-21.8,240.5-20.6,239.3-20.6,237.7z"/>
	<path class="st4" d="M-12.7,241.1L-12.7,241.1c0-3.3,2.4-5,6.1-5c1.3,0,3.1,0.3,3.8,0.6v-0.3c0-1.5-0.9-2.3-3-2.3
		c-1.6,0-3,0.4-4.4,0.9l-1.2-4.4c1.8-0.7,4-1.2,6.7-1.2c3.3,0,5.4,0.7,6.8,2.1c1.2,1.2,1.7,2.8,1.7,5.1v9.1h-6.7V244
		c-1.1,1.2-2.6,2-4.6,2C-10.6,246-12.7,244.3-12.7,241.1z M-2.8,239.7V239c-0.4-0.1-1-0.3-1.5-0.3c-1.3,0-2.1,0.8-2.1,1.8v0.1
		c0,0.9,0.7,1.6,1.5,1.6C-3.7,242.2-2.8,241.2-2.8,239.7z"/>
</g>
</svg>
