<?xml version="1.0" encoding="utf-8"?>
<!-- Generator: Adobe Illustrator 18.0.0, SVG Export Plug-In . SVG Version: 6.00 Build 0)  -->
<!DOCTYPE svg PUBLIC "-//W3C//DTD SVG 1.1//EN" "http://www.w3.org/Graphics/SVG/1.1/DTD/svg11.dtd">
<svg version="1.1" id="Layer_1" xmlns="http://www.w3.org/2000/svg" xmlns:xlink="http://www.w3.org/1999/xlink" x="0px" y="0px"
	 viewBox="0 0 269.2 224.5" enable-background="new 0 0 269.2 224.5" xml:space="preserve">
<g>
	<path fill="#D89F79" d="M210.9,50.3l-23.4-8l-13.9-21.8c0,0,4.8-7.2,0.1-14.2s-3,10-6.2,11.5c-3.3,1.5-8.4-4.3-8.1,1.1
		c0.3,4.1,2.1,2.9,8.1,9c2.2,7.3,7.6,19.5,13.1,24.7C186,57.8,207.6,65,207.6,65L210.9,50.3z"/>
	<path fill="#E6E6E6" d="M231.4,59.6c0,0-4.4-19.1-23-14.2l-7.9-2c0,0-9.3,20.1-3.7,24.2l20,0.2L231.4,59.6z"/>
	<path fill="#D89F79" d="M171.7,181.7l18.5,23.2l7.1,2.3l-4-30.6C193.4,176.6,176,173.3,171.7,181.7z"/>
	<path fill="#CCCCCC" d="M184.8,114.3c0,0-8.6,8.1-13.3,68.2c0,0,13.1,10.8,22.3,0.8c0,0,8.5-27.9,12.3-48.5l1.8-13.8L184.8,114.3z"
		/>
	<path fill="#FDFAF9" d="M257.2,67.9c0,0-11.2-17.7-38.7-22.2c0,0-15.4,48.1-34.5,68.7c0.8-1,36.5,19.3,37.2,18.7
		C259.6,96.4,257.2,67.9,257.2,67.9z"/>
	<path fill="#D89F79" d="M242.1,14.2l-13.3,28.2l4.5,2.6l-4.5,7.5c0,0,3.8,10.8,16.6,7.2l9-17.4c0,0,3.9,1,5.8-3.1
		c1.9-4.1-3.1-4.1-3.1-4.1l5.3-11.2L242.1,14.2z"/>
	<path fill="#B02300" d="M259.5,46.8c0,0-9.8,5.2-12.1-1.7c-1.7-5.2,9.6-12.1,5.8-17.7c-1.2-1.8-8-8-14.2-7.2l-8.1,17
		c0,0-1.3-16.9,10.9-26.4C254,1.2,273,15.1,268.5,31C266,39.7,259.5,46.8,259.5,46.8z"/>
	<path fill="none" stroke="#F2F2F2" stroke-miterlimit="10" d="M256.7,36.5l-5.2,3c0,0-8.6-1.3-13.5-5.2s-4.7-5.4-4.7-5.4"/>
	<path fill="none" stroke="#F2F2F2" stroke-miterlimit="10" d="M255.5,31.1c0,0-8.4,14.2-11.8,14.6c-4.6,0.5-11.3-2.5-12.6-6.4
		c-0.7-2.2,6.8-18.2,6.8-18.2"/>
	<path fill="none" stroke="#F2F2F2" stroke-miterlimit="10" d="M241.8,36.5c0,0-3.1,2.4-4.2,8.3"/>
	<path fill="none" stroke="#F2F2F2" stroke-miterlimit="10" d="M238,34.4c0,0-2.2,1.7-4,8"/>
	<path fill="none" stroke="#F2F2F2" stroke-miterlimit="10" d="M232.1,30.4c0,0-1.6,2.2,5.3,7.1c6.9,4.9,16.9,4.7,16.9,4.7
		s6.1-7-1.5-15.1c-8.3-8.9-14.8-6.1-14.8-6.1L232.1,30.4z"/>
	<path fill="#E6E6E6" d="M218.8,143.1c-8,5.7-23.9,12.7-50.9,7.4c0,0,2,11.1-6.1,24.5c0,0-10.3,3.4-17.4-4c0,0,0.7-18.6,1.2-32.2
		c0.5-13.6,31.3-10.5,31.3-10.5s-2.2-3.6,5.8-5.3c4.1-0.9,9.8-1.5,14.5-1.9c5-0.4,10,1.1,13.8,4.3l8.2,6.7
		C222.7,135,222.5,140.4,218.8,143.1z"/>
	<path fill="#D89F79" d="M161.8,175l-9.5,21.7l-6.9-3.1l-1-22.5C144.5,171,155.8,177.1,161.8,175z"/>
	<path fill="#463C2D" d="M153.2,196.2c0,0,4.4,7.5-0.1,10.9c-4.5,3.4-24.7,0.8-25.7-5.2c-1-5.9,18.3,0.7,17.4-9.2
		C144.8,192.7,151.8,192.7,153.2,196.2z"/>
	<path fill="#463C2D" d="M198.1,207.4c0,0,4.4,7.5-0.1,10.9c-4.5,3.4-24.7,0.8-25.7-5.2c-1-5.9,18.3,0.7,17.4-9.2
		C189.7,203.9,196.6,203.9,198.1,207.4z"/>
	<path fill="#D89F79" d="M125.3,64.7l21.1,12.9l25.7-3.2c0,0,2.5-8.2,10.9-9.2c8.4-0.9-5.8,8.7-4.9,12.2s8.7,3.7,4.3,6.9
		c-3.3,2.4-3.6,0.3-12.1-0.5c-7,2.9-19.8,6.6-27.4,5.7s-26.8-12.9-26.8-12.9L125.3,64.7z"/>
	<path fill="#3F5F4C" d="M105.2,54.9c0,0,17.5-8.8,25.6,8.7l6.5,4.8c0,0-9.5,20-16.3,18.2l-12.9-15.3L105.2,54.9z"/>
	<path fill="#F2BC00" d="M130.8,63.6c0,0-5.9,9.8-14.6,17.9l3.8,2.8c0,0,9.7-7.7,14.6-17.7L130.8,63.6z"/>
	<path fill="#D89F79" d="M56,52.1c0,0-13.3,10.9-18.8,18.7s20.3,22.7,20.3,22.7l4.5-10.3l-9.8-11.3l11.8-7.9l-9-14.4"/>
	<path fill="#D89F79" d="M49.2,178.7l-26.6,5.6l-9.4-9l26.1-16.5C39.3,158.8,52.9,170.1,49.2,178.7z"/>
	<path fill="#CB9E11" d="M92.2,119.3c0,0-0.2,18.1-43.5,60.1c0,0-16.7-3.2-14.8-16.6c0,0,16.1-24.4,29.5-40.4l9.5-10.2L92.2,119.3z"
		/>
	<path fill="#3F5F4C" d="M82.2,40.3c0,0,20.7-2.7,41.8,15.6c0,0-27.2,42.6-30.9,70.4c0.2-1.3-38.2-15.8-38.1-16.7
		C58.8,56.7,82.2,40.3,82.2,40.3z"/>
	<path fill="#D89F79" d="M133.3,17.7L120.1,46l-4.8-1.8l-2.9,8.2c0,0-10.8,3.9-16.1-8.2l7.6-18c0,0-3.2-2.4-1.3-6.5s5.1-0.2,5.1-0.2
		l5.3-11.3L133.3,17.7z"/>
	<path fill="#F5C200" d="M97,25c0,0,2.3,10.8,9,8.2c5.1-2,3.2-15.1,9.9-15.7c2.1-0.2,11.3,1,14.6,6.4l-8,17.1
		c0,0,13.8-9.8,13.4-25.3c-0.4-15.5-23.1-21.3-32.6-7.6C98.3,15.6,97,25,97,25z"/>
	<path fill="none" stroke="#1E1A17" stroke-miterlimit="10" d="M106.7,20.7l1,5.9c0,0,6.5,5.8,12.6,7.1c6,1.3,7.2,0.2,7.2,0.2"/>
	<path fill="none" stroke="#1E1A17" stroke-miterlimit="10" d="M111.7,18.1c0,0-5.6,15.5-3.7,18.3c2.6,3.9,9.1,7.2,12.9,5.7
		c2.1-0.8,9.6-16.9,9.6-16.9"/>
	<path fill="none" stroke="#1E1A17" stroke-miterlimit="10" d="M116.2,32.1c0,0,0.1,3.9-3.7,8.6"/>
	<path fill="none" stroke="#1E1A17" stroke-miterlimit="10" d="M120.3,33.7c0,0,0.1,2.8-3.6,8.2"/>
	<g>
		<defs>
			<path id="SVGID_1_" d="M102.1,10.1c0,0-2.5,4.8-4.6,12.1L105,20l2.9-5.1L102.1,10.1z"/>
		</defs>
		<clipPath id="SVGID_2_">
			<use xlink:href="#SVGID_1_"  overflow="visible"/>
		</clipPath>
		<g clip-path="url(#SVGID_2_)">
			<path fill="#E9C901" d="M103.7,13.3c0.1,0.1,0.1,0.1,0.2,0.2c0,0,0,0,0,0c0.1,0.1,0.3,0.3,0.4,0.4c0.2,0.2,0.3,0.4,0.4,0.6
				c0.3,0.5,0.6,1,0.8,1.5c0.1,0.4,0.2,0.7,0.2,1.1c0,0.4,0,0.7-0.1,1.1c-0.1,0.2-0.2,0.4-0.3,0.6c0,0-0.1,0.1-0.1,0.1
				c-0.1,0.1-0.1,0.1-0.2,0.2c0,0,0,0-0.1,0.1c-0.2,0.2-0.5,0.3-0.8,0.4c-0.3,0.1-0.7,0.1-1,0.1c-0.4,0-0.8-0.1-1.2-0.2
				c-0.3-0.1-0.7-0.2-1-0.4c-0.2-0.1-0.4-0.2-0.6-0.4c-0.1-0.1-0.3-0.2-0.4-0.3c0,0-0.1-0.1-0.1-0.1c-0.3-0.2-0.5-0.5-0.8-0.7
				c0,0,0,0,0,0c-0.1-0.2-0.3-0.3-0.4-0.5c-0.2-0.2-0.3-0.5-0.5-0.7c-0.2-0.3-0.4-0.7-0.5-1.1c-0.1-0.4-0.2-0.8-0.2-1.3
				c0-0.3,0-0.6,0.1-0.9c0.1-0.2,0.2-0.4,0.3-0.6c0,0,0-0.1,0.1-0.1c0.1-0.1,0.1-0.1,0.2-0.2c0,0,0,0,0,0c0.1-0.1,0.2-0.2,0.4-0.3
				c0.3-0.2,0.6-0.3,1-0.3c0.4,0,0.7,0,1.1,0c0.6,0.1,1.1,0.3,1.6,0.6c0.4,0.2,0.7,0.4,1,0.7C103.5,13,103.6,13.1,103.7,13.3z
				 M99.5,17.8c0.1,0.1,0.2,0.2,0.3,0.3c0.2,0.2,0.4,0.3,0.6,0.4c0.3,0.2,0.5,0.3,0.8,0.5c0.3,0.2,0.7,0.3,1,0.4
				c0.4,0.1,0.8,0.1,1.2,0.1c0.3,0,0.6-0.1,0.8-0.2c0.4-0.2,0.7-0.4,0.9-0.8c0.2-0.3,0.3-0.6,0.3-1c0-0.4,0-0.8-0.1-1.2
				c-0.1-0.6-0.4-1.1-0.7-1.6c-0.2-0.2-0.3-0.5-0.5-0.7c-0.1-0.2-0.3-0.3-0.4-0.5c-0.2-0.2-0.3-0.3-0.5-0.5
				c-0.2-0.2-0.4-0.3-0.7-0.5c-0.3-0.2-0.7-0.4-1-0.5c-0.4-0.2-0.8-0.3-1.2-0.3c-0.4,0-0.8,0-1.1,0.1c-0.4,0.1-0.8,0.3-1.1,0.7
				c-0.1,0.2-0.2,0.3-0.3,0.5c-0.1,0.3-0.2,0.7-0.2,1c0,0.3,0,0.7,0.1,1c0.1,0.5,0.4,1,0.7,1.5c0.2,0.3,0.4,0.6,0.6,0.8
				C99.2,17.5,99.4,17.7,99.5,17.8z"/>
			<path fill="#343F36" d="M99.5,17.8c-0.2-0.2-0.3-0.3-0.5-0.5c-0.2-0.3-0.4-0.5-0.6-0.8c-0.3-0.5-0.5-1-0.7-1.5
				c-0.1-0.3-0.1-0.6-0.1-1c0-0.4,0.1-0.7,0.2-1c0.1-0.2,0.2-0.3,0.3-0.5c0.3-0.4,0.7-0.6,1.1-0.7c0.4-0.1,0.7-0.1,1.1-0.1
				c0.4,0,0.8,0.2,1.2,0.3c0.4,0.1,0.7,0.3,1,0.5c0.2,0.2,0.5,0.3,0.7,0.5c0.2,0.1,0.3,0.3,0.5,0.5c0.1,0.1,0.3,0.3,0.4,0.5
				c0.2,0.2,0.4,0.5,0.5,0.7c0.3,0.5,0.5,1,0.7,1.6c0.1,0.4,0.1,0.8,0.1,1.2c0,0.4-0.1,0.7-0.3,1c-0.2,0.3-0.5,0.6-0.9,0.8
				c-0.3,0.1-0.5,0.2-0.8,0.2c-0.4,0-0.8,0-1.2-0.1c-0.4-0.1-0.7-0.2-1-0.4c-0.3-0.1-0.5-0.3-0.8-0.5c-0.2-0.1-0.4-0.3-0.6-0.4
				C99.7,18,99.6,17.9,99.5,17.8z M105,17.7C105,17.7,105,17.7,105,17.7c0.1-0.4,0.1-0.8,0-1.2c-0.1-0.5-0.3-0.9-0.5-1.3
				c-0.2-0.4-0.5-0.8-0.8-1.1c-0.2-0.2-0.5-0.5-0.7-0.7c-0.2-0.2-0.4-0.3-0.6-0.4c-0.3-0.2-0.6-0.3-0.9-0.4
				c-0.3-0.1-0.7-0.2-1.1-0.2c-0.3,0-0.6,0-0.9,0.1c-0.2,0.1-0.4,0.2-0.6,0.3c-0.2,0.2-0.3,0.4-0.4,0.6c-0.1,0.3-0.2,0.5-0.2,0.8
				c0,0.4,0.1,0.9,0.2,1.3c0.1,0.4,0.3,0.7,0.5,1c0.1,0.2,0.2,0.3,0.4,0.5c0.1,0.2,0.3,0.3,0.4,0.5c0.2,0.2,0.5,0.5,0.8,0.7
				c0.1,0.1,0.3,0.2,0.5,0.3c0.4,0.2,0.8,0.4,1.2,0.5c0.3,0.1,0.7,0.1,1,0.1c0.3,0,0.5,0,0.8-0.1c0.3-0.1,0.6-0.3,0.8-0.5
				c0,0,0,0,0,0c-1.1-1.1-2.3-2.2-3.4-3.3c0,0,0,0,0,0c-0.1,0.2-0.3,0.3-0.4,0.5c0,0,0,0,0,0c0.3,0.3,0.7,0.6,1,0.9
				c0.3,0.3,0.7,0.6,1,1c0,0,0,0,0,0c-0.2,0.1-0.4,0.2-0.6,0.1c-0.2,0-0.4-0.1-0.5-0.2c-0.2-0.1-0.5-0.3-0.7-0.5
				c-0.2-0.2-0.4-0.4-0.6-0.6c-0.2-0.2-0.3-0.4-0.4-0.6c-0.1-0.2-0.2-0.4-0.3-0.6c-0.1-0.2-0.1-0.5,0-0.7c0.1-0.2,0.1-0.4,0.3-0.5
				c0.1-0.1,0.3-0.3,0.4-0.3c0.2-0.1,0.5-0.2,0.8-0.1c0.3,0,0.7,0.1,1,0.3c0.2,0.1,0.5,0.3,0.7,0.5c0.1,0.1,0.3,0.2,0.4,0.4
				c0.2,0.2,0.3,0.3,0.4,0.5c0.1,0.2,0.2,0.4,0.2,0.6c0,0.2,0,0.5,0,0.7c0,0,0,0,0,0C104.1,16.8,104.5,17.3,105,17.7
				C105,17.7,105,17.7,105,17.7z"/>
			<path fill="#FEFEFE" d="M105,17.7C105,17.7,105,17.7,105,17.7c-0.5-0.4-0.9-0.8-1.3-1.2c0,0,0,0,0,0c0.1-0.2,0.1-0.4,0-0.7
				c0-0.2-0.1-0.4-0.2-0.6c-0.1-0.2-0.3-0.4-0.4-0.5c-0.1-0.1-0.2-0.2-0.4-0.4c-0.2-0.2-0.4-0.3-0.7-0.5c-0.3-0.2-0.6-0.2-1-0.3
				c-0.3,0-0.5,0-0.8,0.1c-0.2,0.1-0.3,0.2-0.4,0.3c-0.1,0.2-0.2,0.3-0.3,0.5c-0.1,0.2-0.1,0.5,0,0.7c0.1,0.2,0.1,0.4,0.3,0.6
				c0.1,0.2,0.3,0.4,0.4,0.6c0.2,0.2,0.4,0.4,0.6,0.6c0.2,0.2,0.4,0.3,0.7,0.5c0.2,0.1,0.3,0.1,0.5,0.2c0.2,0,0.4,0,0.6-0.1
				c0,0,0,0,0,0c-0.3-0.3-0.7-0.6-1-1c-0.3-0.3-0.7-0.6-1-0.9c0,0,0,0,0,0c0.2-0.2,0.3-0.3,0.4-0.5c0,0,0,0,0,0
				c1.1,1.1,2.3,2.2,3.4,3.3c0,0,0,0,0,0c-0.2,0.2-0.5,0.4-0.8,0.5c-0.3,0.1-0.5,0.1-0.8,0.1c-0.3,0-0.7-0.1-1-0.1
				c-0.4-0.1-0.8-0.3-1.2-0.5c-0.2-0.1-0.3-0.2-0.5-0.3c-0.3-0.2-0.5-0.4-0.8-0.7c-0.2-0.2-0.3-0.3-0.4-0.5
				c-0.1-0.2-0.3-0.3-0.4-0.5c-0.2-0.3-0.4-0.7-0.5-1c-0.1-0.4-0.2-0.8-0.2-1.3c0-0.3,0.1-0.5,0.2-0.8c0.1-0.2,0.2-0.4,0.4-0.6
				c0.2-0.2,0.4-0.3,0.6-0.3c0.3-0.1,0.6-0.1,0.9-0.1c0.4,0,0.7,0.1,1.1,0.2c0.3,0.1,0.6,0.3,0.9,0.4c0.2,0.1,0.4,0.3,0.6,0.4
				c0.3,0.2,0.5,0.4,0.7,0.7c0.3,0.3,0.6,0.7,0.8,1.1c0.2,0.4,0.4,0.8,0.5,1.3C105.1,16.9,105.1,17.2,105,17.7
				C105,17.7,105,17.7,105,17.7z"/>
		</g>
	</g>
	<path fill="#343F36" d="M115.8,0.4c0,0,9.4,8,5.3,18c0,0,4.5,1.5,6.6,3.1c0,0,5-9.4-2.2-19.8C125.4,1.7,120-0.5,115.8,0.4z"/>
	<path fill="#FCFCFC" d="M118.5,0c0,0,8.7,10.2,5.1,19.5l3,1.3c0,0,4.3-9.9-3.7-20L118.5,0z"/>
	<path fill="none" stroke="#1E1A17" stroke-miterlimit="10" d="M127.1,35.7c0,0-0.7,2.6-8.8,0.5c-8.1-2.2-14.4-10-14.4-10
		s1.5-9.2,12.6-8.5c12.1,0.8,14.2,7.5,14.2,7.5L127.1,35.7z"/>
	<path fill="#F2BC00" d="M48.8,117.8c0.7,9.8,5.5,26.5,26.8,44c0,0-9.9,5.5-15,20.3c0,0,4,10.1,14.2,10.8c0,0,13.9-12.4,24-21.5
		S87,140.6,87,140.6s4.2-0.5,0.4-7.8c-1.9-3.7-5.1-8.5-7.8-12.3c-2.9-4.1-7.2-7-12.1-7.9l-10.4-2C52.6,109.7,48.5,113.3,48.8,117.8z
		"/>
	<path fill="#D89F79" d="M60.7,182.1L50,203.2l6.8,3.3l18-13.6C74.8,192.9,62.9,188.1,60.7,182.1z"/>
	<path fill="#463C2D" d="M48,204.2c0,0-8.1,3.2-6.6,8.6c1.4,5.4,19.1,15.8,23.5,11.7c4.4-4.1-14.9-10.7-8-18
		C56.8,206.5,51.3,202.3,48,204.2z"/>
	<path fill="#463C2D" d="M13.2,175.3c0,0-7.6,3.9-11.8,9c-4.2,5.1,2.5,17.9,2.5,17.9l19.6,1.2c0,0,4.9-9.9-6.9-11.5l6-7.6
		L13.2,175.3z"/>
	<g>
		<path fill="#DEDAC6" d="M76.2,77.3l2.1,0.7l3.6-10.4l-2.2-0.8l0.8-2.4l5.6,1.9l-4.4,12.8l2,0.7l-0.8,2.4l-7.5-2.6L76.2,77.3z"/>
		<path fill="#DEDAC6" d="M90.4,80c-0.3,1.6,0.1,2.5,1.3,2.9c1.5,0.5,2.4-0.3,2.9-1.8c0.6-1.8,0.3-3-1-3.4c-0.8-0.3-1.4-0.1-2.3,0.6
			l-2-2.1l3.1-7.6l8.6,3l-1.2,3.6l-2.2-0.8l0.2-1.2l-3.9-1.4l-1.5,3.6c1.2-0.3,1.9-0.3,2.9,0c2.8,1,4,3.6,3,6.6
			c-0.8,2.4-3,4.8-7.1,3.4c-2.9-1-4.2-3.1-3.6-6.1L90.4,80z"/>
	</g>
	<path fill="#3F5F4C" d="M84.3,41c0,0-16.1-11.1-26.6,5l-7.1,3.9c0,0,6.7,21.1,13.6,20.3L84.3,41z"/>
	<path fill="#F2BC00" d="M57.7,46c0,0,3.5,9.6,11,18.9L65.5,68c0,0-8.5-8.9-12-19.6L57.7,46z"/>
	<path fill="#AF6443" d="M84.6,89.4c0,0-3.2-20.8-29.4-12.7c0,0-2.2,8.9,9.8,15.7S84.6,89.4,84.6,89.4z"/>
	<path fill="#D89F79" d="M56.3,92.7l10.8,5c3.6,1.6,7.7,2.1,11.5,1c3.4-1,6.8-3.1,7.7-7.6c0,0,0.4-6.2-4.3-1.5s-9.7,4.3-6.8-1.7
		c2.9-6-2.6-8-5.6-0.1c0,0-4-2.6-14.5-11.9C55.3,75.8,48.4,79.7,56.3,92.7z"/>
	<g>
		<defs>
			<path id="SVGID_3_" d="M269.2,26.4c0,0,0.5,6-4,12.6l-6-0.2l-3.4-11.2l6.5-1.3L269.2,26.4z"/>
		</defs>
		<clipPath id="SVGID_4_">
			<use xlink:href="#SVGID_3_"  overflow="visible"/>
		</clipPath>
		<g id="PmP89V.tif" clip-path="url(#SVGID_4_)">
			<g>
				<path fill="#020202" d="M264.3,36.7c-0.1,0-0.3,0-0.5,0c-0.1,0-0.3,0.1-0.4,0.1c-0.4,0.2-0.8,0.2-1.2,0.1
					c-0.3-0.1-0.6-0.1-0.8,0c-0.2,0-0.4,0.1-0.6,0.1c-0.1,0-0.2,0-0.4,0c-0.2-0.1-0.3-0.3-0.3-0.5c0.1-0.3,0.2-0.6,0.3-0.9
					c0-0.1,0.1-0.2,0.1-0.4c0-0.2-0.1-0.3-0.2-0.3c-0.1,0-0.2,0-0.3,0.1c-0.1,0.1-0.3,0.1-0.4,0c-0.2-0.1-0.4,0-0.6,0.1
					c-0.1,0-0.1,0.1-0.2,0.1c-0.1,0.1-0.3,0-0.4,0c-0.1-0.1-0.2-0.2-0.1-0.3c0-0.1,0.1-0.2,0.1-0.4c0-0.3-0.1-0.5-0.1-0.8
					c-0.1-0.5-0.1-1,0-1.5c0.1-0.3,0.2-0.5,0.3-0.8c0.1-0.2,0.2-0.5,0.1-0.7c-0.1-0.2-0.1-0.4,0-0.6c0-0.1,0.1-0.2,0.3-0.2
					c0.1,0,0.1,0,0.2,0.1c0.1,0.1,0.3,0.1,0.4,0.1c0.1,0,0.2-0.1,0.3-0.1c0.2-0.1,0.3,0,0.4,0.1c0.1,0.1,0.1,0.1,0.2,0.2
					c0.2,0.1,0.4-0.1,0.4-0.3c0-0.2-0.1-0.3-0.1-0.4c-0.1-0.2-0.1-0.4-0.2-0.6c0-0.2-0.1-0.4,0-0.6c0.1-0.1,0.2-0.2,0.4-0.2
					c0.2,0,0.4,0,0.6,0.1c0.3,0.1,0.6,0.1,0.9,0c0.4-0.1,0.7,0,1,0.2c0.2,0.1,0.3,0.1,0.5,0.1c0.2,0,0.4,0,0.7,0
					c0.1,0,0.2,0.1,0.3,0.2c0.1,0.1,0.3,0.2,0.4,0.2c0.2,0.1,0.4,0.1,0.5,0.1c0.3,0,0.5,0.1,0.7,0.2c0.2,0.2,0.5,0.3,0.8,0.3
					c0.1,0,0.3,0,0.4,0c0.2,0,0.4,0.1,0.5,0.3c0.2,0.1,0.4,0.2,0.6,0.3c0.2,0.1,0.4,0.1,0.6,0.3c0.1,0.1,0.2,0.2,0.3,0.3
					c0.1,0.2,0.3,0.3,0.5,0.4c0.1,0,0.2,0.1,0.3,0.1c0.1,0.1,0.2,0.1,0.2,0.2c0.1,0.2,0.3,0.3,0.5,0.5c0.3,0.3,0.7,0.5,1,0.8
					c0,0,0,0,0,0c0.1,0.1,0.1,0.2,0,0.3c-0.2,0.4-0.5,0.7-0.9,0.8c-0.1,0-0.1,0-0.2,0c-0.2,0.1-0.4,0.2-0.5,0.4
					c-0.2,0.3-0.4,0.5-0.8,0.6c-0.1,0-0.2,0.1-0.3,0.1c-0.2,0.1-0.3,0.1-0.5,0.3c-0.2,0.2-0.5,0.3-0.8,0.4c-0.1,0-0.2,0-0.2,0.1
					c-0.1,0-0.3,0.1-0.4,0.2c-0.2,0.2-0.4,0.2-0.6,0.2c-0.1,0-0.3,0-0.4,0.1c-0.3,0.2-0.6,0.2-0.9,0.2c-0.4,0-0.7,0.2-1,0.3
					C264.8,36.6,264.6,36.7,264.3,36.7z M258.8,34.2c0,0.1,0,0.2,0,0.3c0,0.1,0.1,0.2,0.2,0.2c0.1,0,0.2-0.1,0.3-0.1
					c0.1,0,0.3,0,0.4,0c0.1,0,0.2,0.1,0.4,0c0.2-0.1,0.4-0.1,0.6,0c0.2,0,0.3,0.1,0.3,0.3c0,0.1,0,0.2,0,0.4
					c-0.1,0.3-0.1,0.5-0.2,0.8c0,0.1-0.1,0.2,0,0.4c0,0.1,0.1,0.2,0.3,0.2c0.2,0,0.5,0,0.7,0c0.2,0,0.5-0.1,0.7,0c0.1,0,0.3,0,0.4,0
					c0.2,0,0.4,0,0.7-0.1c0.1,0,0.2-0.1,0.3-0.1c0.2,0,0.4-0.1,0.7-0.1c0.3,0,0.6-0.1,0.8-0.2c0.2-0.1,0.5-0.2,0.7-0.2
					c0.2,0,0.5,0,0.7-0.1c0.2-0.1,0.4-0.2,0.6-0.2c0.2,0,0.4-0.1,0.6-0.2c0.3-0.2,0.6-0.3,0.9-0.4c0.3,0,0.5-0.1,0.7-0.3
					c0.2-0.2,0.5-0.3,0.7-0.4c0.2,0,0.3-0.1,0.4-0.2c0.1-0.1,0.2-0.2,0.3-0.3c0.2-0.2,0.4-0.3,0.7-0.4c0.2,0,0.3-0.1,0.5-0.2
					c0.1-0.1,0.1-0.1,0.1-0.2c0,0,0-0.1-0.1-0.1c-0.1-0.1-0.2-0.2-0.3-0.2c-0.3-0.2-0.6-0.4-0.8-0.7c0-0.1-0.1-0.1-0.2-0.1
					c-0.2-0.1-0.3-0.1-0.5-0.2c-0.1,0-0.2-0.1-0.3-0.2c-0.1-0.1-0.2-0.2-0.2-0.3c-0.2-0.2-0.4-0.4-0.6-0.4c-0.1,0-0.1,0-0.2,0
					c-0.2,0-0.4-0.1-0.6-0.2c-0.1-0.1-0.2-0.2-0.3-0.2c-0.2-0.2-0.4-0.2-0.6-0.2c-0.2,0-0.5-0.1-0.7-0.2c-0.2-0.2-0.5-0.3-0.8-0.3
					c-0.3,0-0.5-0.1-0.7-0.2c-0.2-0.1-0.4-0.2-0.6-0.3c-0.1,0-0.2-0.1-0.3-0.1c-0.1,0-0.2,0-0.3,0c-0.3,0-0.5,0-0.7-0.1
					c-0.2-0.2-0.5-0.2-0.7-0.2c-0.3,0-0.5,0-0.8-0.1c-0.2,0-0.4-0.1-0.6-0.1c-0.1,0-0.2,0-0.2,0.2c0,0.1,0,0.2,0,0.2
					c0,0.2,0.1,0.4,0.2,0.6c0.1,0.2,0.1,0.4,0,0.6c0,0.1,0,0.2-0.1,0.3c-0.2,0.2-0.4,0.2-0.7,0.1c-0.1,0-0.1-0.1-0.2-0.1
					c-0.1,0-0.2,0-0.3,0c-0.1,0-0.2,0.1-0.4,0c-0.2,0-0.3,0-0.4,0.2c-0.1,0.1-0.1,0.2,0,0.4c0.1,0.2,0,0.4-0.1,0.6
					c-0.1,0.1-0.2,0.3-0.2,0.4c-0.2,0.3-0.2,0.7-0.2,1c0,0.2,0,0.4,0.1,0.5C258.8,33.7,258.8,33.9,258.8,34.2z"/>
				<path fill="#FEFEFE" d="M258.8,34.2c0-0.3,0-0.5-0.1-0.8c-0.1-0.2-0.1-0.4-0.1-0.5c0-0.4,0-0.7,0.2-1c0.1-0.1,0.2-0.2,0.2-0.4
					c0.1-0.2,0.1-0.4,0.1-0.6c0-0.1,0-0.2,0-0.4c0.1-0.2,0.2-0.3,0.4-0.2c0.1,0,0.2,0,0.4,0c0.1,0,0.2,0,0.3,0
					c0.1,0,0.1,0.1,0.2,0.1c0.3,0.1,0.5,0,0.7-0.1c0.1-0.1,0.1-0.2,0.1-0.3c0.1-0.2,0-0.4,0-0.6c-0.1-0.2-0.1-0.4-0.2-0.6
					c0-0.1,0-0.2,0-0.2c0-0.1,0.1-0.2,0.2-0.2c0.2,0,0.4,0,0.6,0.1c0.3,0,0.5,0.1,0.8,0.1c0.3,0,0.5,0,0.7,0.2
					c0.2,0.2,0.5,0.2,0.7,0.1c0.1,0,0.2,0,0.3,0c0.1,0,0.2,0,0.3,0.1c0.2,0.1,0.4,0.2,0.6,0.3c0.2,0.1,0.5,0.2,0.7,0.2
					c0.3,0,0.6,0.1,0.8,0.3c0.2,0.2,0.4,0.2,0.7,0.2c0.2,0,0.4,0.1,0.6,0.2c0.1,0.1,0.2,0.2,0.3,0.2c0.2,0.2,0.4,0.2,0.6,0.2
					c0.1,0,0.1,0,0.2,0c0.3,0,0.5,0.2,0.6,0.4c0.1,0.1,0.1,0.2,0.2,0.3c0.1,0.1,0.2,0.1,0.3,0.2c0.2,0,0.3,0.1,0.5,0.2
					c0.1,0,0.1,0.1,0.2,0.1c0.2,0.3,0.5,0.5,0.8,0.7c0.1,0.1,0.2,0.1,0.3,0.2c0,0,0.1,0.1,0.1,0.1c0,0.1,0,0.2-0.1,0.2
					c-0.1,0.1-0.3,0.2-0.5,0.2c-0.3,0.1-0.5,0.2-0.7,0.4c-0.1,0.1-0.2,0.2-0.3,0.3c-0.1,0.1-0.3,0.2-0.4,0.2
					c-0.3,0.1-0.5,0.2-0.7,0.4c-0.2,0.2-0.4,0.3-0.7,0.3c-0.3,0.1-0.6,0.2-0.9,0.4c-0.2,0.1-0.4,0.2-0.6,0.2c-0.2,0-0.4,0.1-0.6,0.2
					c-0.2,0.1-0.5,0.1-0.7,0.1c-0.3,0-0.5,0.1-0.7,0.2c-0.2,0.2-0.5,0.2-0.8,0.2c-0.2,0-0.4,0-0.7,0.1c-0.1,0-0.2,0.1-0.3,0.1
					c-0.2,0.1-0.4,0.1-0.7,0.1c-0.1,0-0.3,0-0.4,0c-0.2,0-0.5,0-0.7,0c-0.2,0-0.5,0-0.7,0c-0.1,0-0.2-0.1-0.3-0.2c0-0.1,0-0.2,0-0.4
					c0.1-0.3,0.1-0.5,0.2-0.8c0-0.1,0-0.2,0-0.4c0-0.2-0.1-0.3-0.3-0.3c-0.2-0.1-0.4,0-0.6,0c-0.1,0-0.2,0-0.4,0
					c-0.1-0.1-0.3-0.1-0.4,0c-0.1,0-0.2,0.1-0.3,0.1c-0.1,0-0.2,0-0.2-0.2C258.8,34.4,258.8,34.3,258.8,34.2z M266.3,32
					c0.1,0,0.2,0,0.3,0c0.4,0,0.7,0,1,0.2c0.3,0.2,0.5,0.4,0.7,0.7c0,0.1,0.1,0.1,0.1,0.1c0.1,0,0.2,0,0.3,0c0,0,0.1,0,0.1,0
					c0.1-0.1,0.2-0.1,0.2-0.2c0,0,0,0,0,0c0-0.4,0-0.8,0-1.2c0,0,0-0.1-0.1-0.1c-0.1,0-0.1,0-0.2,0c-0.2,0-0.3,0-0.5,0.1
					c-0.1,0-0.1,0-0.2,0c-0.5-0.2-0.9-0.3-1.4-0.4c-0.4,0-0.7,0-1,0.1c-0.1,0-0.1,0-0.2-0.1c0,0,0-0.1,0-0.1
					c0.2-0.1,0.4-0.2,0.5-0.3c0.1-0.1,0.2-0.1,0.4-0.1c0.2,0,0.3,0,0.4-0.2l0,0c0,0,0,0,0-0.1c0-0.1,0-0.2,0-0.3
					c0-0.1,0-0.1-0.1-0.1c-0.6,0-1.1,0-1.7,0c0,0-0.1,0-0.1,0c-0.1,0.1-0.2,0.2-0.2,0.4c0,0,0,0,0,0c0,0.1,0,0.1-0.1,0.1
					c-0.4,0.2-0.8,0.4-1.2,0.6c-0.2,0.1-0.3,0.2-0.5,0.3c0-0.1,0-0.3,0-0.4c0-0.1,0-0.2,0-0.3c0-0.1,0.2-0.2,0.2-0.2
					c0,0,0-0.1,0-0.1c0-0.1,0-0.2,0-0.3c0-0.1,0-0.1-0.1-0.1c-0.5,0-1.1,0-1.6,0c-0.1,0-0.1,0-0.1,0.1c-0.2,0.1-0.2,0.3-0.2,0.5
					c0,0.1,0,0.1,0.1,0.1c0.1,0,0.1,0,0.2,0c0.1,0,0.1,0,0.1,0.1c0,0.5,0,1,0,1.5c0,0.1,0,0.2,0,0.3c0,0,0,0.1,0,0c0,0-0.1,0-0.1,0
					c0,0.1-0.1,0.1-0.2,0.2c0,0,0,0.1,0,0.1c0,0.1,0,0.3,0,0.4c0,0.1,0,0.1,0.1,0.1c0.5,0,1.1,0,1.6,0c0.2,0,0.3,0,0.4-0.1
					c0,0,0,0,0-0.1c0-0.2,0-0.3,0-0.5c0,0,0-0.1,0,0c-0.1,0-0.1,0-0.2,0c0,0,0,0,0,0c0-0.1,0-0.1,0.1-0.2c0.3-0.2,0.6-0.3,0.9-0.5
					c0.1-0.1,0.1-0.1,0.2,0l0,0c0,0-0.1,0-0.1,0.1c-0.2,0.1-0.4,0.3-0.5,0.5c-0.3,0.5-0.3,1.2,0.1,1.6c0.2,0.3,0.5,0.5,0.8,0.6
					c0.6,0.3,1.2,0.3,1.9,0.3c0.5,0,0.9-0.1,1.4-0.3c0.4-0.2,0.7-0.4,1-0.7c0.1-0.2,0.2-0.4,0.3-0.6c0,0,0-0.1,0-0.1
					c-0.2,0-0.4,0-0.6,0c0,0,0,0-0.1,0c-0.1,0.2-0.2,0.3-0.4,0.4c-0.7,0.4-1.5,0.4-2.3,0.2c-0.3-0.1-0.6-0.3-0.8-0.6
					c-0.2-0.3-0.1-0.5,0.1-0.7c0,0,0.1,0,0.1,0c0,0,0,0,0,0.1c0,0-0.1,0.1-0.1,0.1c0,0.1,0,0.3,0,0.4c0,0.1,0,0.1,0.1,0.1
					c0.5,0,1.1,0,1.6,0c0,0,0.1,0,0.1,0c0.1-0.1,0.2-0.1,0.2-0.2c0,0,0,0,0,0c0-0.2,0-0.3,0-0.5c0,0,0-0.1-0.1-0.1c0,0-0.1,0-0.1,0
					C266.7,32.4,266.5,32.2,266.3,32z"/>
				<path fill="#020202" d="M266.3,32c0.2,0.2,0.4,0.4,0.6,0.7c0,0,0.1,0,0.1,0c0,0,0.1,0,0.1,0.1c0,0.2,0,0.3,0,0.5c0,0,0,0,0,0
					c-0.1,0.1-0.2,0.1-0.2,0.2c0,0-0.1,0-0.1,0c-0.5,0-1.1,0-1.6,0c-0.1,0-0.1,0-0.1-0.1c0-0.1,0-0.3,0-0.4c0-0.1,0.1-0.1,0.1-0.1
					c0,0,0,0,0-0.1c0,0-0.1,0-0.1,0c-0.2,0.2-0.3,0.5-0.1,0.7c0.2,0.3,0.5,0.5,0.8,0.6c0.8,0.2,1.6,0.1,2.3-0.2
					c0.2-0.1,0.3-0.2,0.4-0.4c0,0,0,0,0.1,0c0.2,0,0.4,0,0.6,0c0,0,0,0,0,0.1c0,0.2-0.1,0.4-0.3,0.6c-0.3,0.3-0.6,0.6-1,0.7
					c-0.4,0.2-0.9,0.3-1.4,0.3c-0.6,0-1.3-0.1-1.9-0.3c-0.3-0.1-0.6-0.3-0.8-0.6c-0.3-0.4-0.4-1.1-0.1-1.6c0.1-0.2,0.3-0.4,0.5-0.5
					c0,0,0.1,0,0.1-0.1l0,0c-0.1-0.1-0.1-0.1-0.2,0c-0.3,0.2-0.6,0.3-0.9,0.5c-0.1,0-0.1,0.1-0.1,0.2c0,0,0,0,0,0c0.1,0,0.1,0,0.2,0
					c0,0,0,0,0,0c0,0.2,0,0.3,0,0.5c0,0,0,0,0,0.1c-0.1,0.1-0.2,0.2-0.4,0.1c-0.5,0-1.1,0-1.6,0c-0.1,0-0.1,0-0.1-0.1
					c0-0.1,0-0.3,0-0.4c0,0,0-0.1,0-0.1c0.1-0.1,0.1-0.1,0.2-0.2c0,0,0.1-0.1,0.1,0c0,0,0,0,0,0c0-0.1,0-0.2,0-0.3c0-0.5,0-1,0-1.5
					c0-0.1,0-0.1-0.1-0.1c-0.1,0-0.1,0-0.2,0c-0.1,0-0.1,0-0.1-0.1c0-0.2,0-0.4,0.2-0.5c0,0,0.1-0.1,0.1-0.1c0.5,0,1.1,0,1.6,0
					c0.1,0,0.1,0,0.1,0.1c0,0.1,0,0.2,0,0.3c0,0,0,0.1,0,0.1c-0.1,0.1-0.2,0.1-0.2,0.2c0,0.1,0,0.2,0,0.3c0,0.1,0,0.3,0,0.4
					c0.2-0.1,0.3-0.2,0.5-0.3c0.4-0.2,0.8-0.4,1.2-0.6c0,0,0.1-0.1,0.1-0.1c0,0,0,0,0,0c0-0.2,0-0.3,0.2-0.4c0,0,0.1,0,0.1,0
					c0.6,0,1.1,0,1.7,0c0.1,0,0.1,0,0.1,0.1c0,0.1,0,0.2,0,0.3c0,0,0,0.1,0,0.1l0,0c-0.1,0.1-0.3,0.2-0.4,0.2c-0.1,0-0.3,0-0.4,0.1
					c-0.2,0.1-0.4,0.2-0.5,0.3c0,0,0,0,0,0.1c0.1,0.1,0.1,0.1,0.2,0.1c0.3-0.1,0.7-0.2,1-0.1c0.5,0,1,0.1,1.4,0.4c0.1,0,0.1,0,0.2,0
					c0.1-0.1,0.3-0.2,0.5-0.1c0.1,0,0.1,0,0.2,0c0.1,0,0.1,0,0.1,0.1c0,0.4,0,0.8,0,1.2c0,0,0,0,0,0c-0.1,0.1-0.1,0.1-0.2,0.2
					c0,0-0.1,0-0.1,0c-0.1,0-0.2,0-0.3,0c-0.1,0-0.1,0-0.1-0.1c-0.2-0.3-0.4-0.5-0.7-0.7c-0.3-0.2-0.7-0.2-1-0.2
					C266.6,32,266.5,32,266.3,32z M265.5,32.8c-0.1,0-0.1,0-0.2,0c0,0-0.1,0-0.1,0c0,0.1,0,0.2,0,0.3c0,0,0,0,0,0c0.5,0,1.1,0,1.6,0
					c0,0,0.1,0,0.1,0c0-0.1,0-0.2,0-0.2c0,0,0,0,0,0c0,0-0.1,0-0.1-0.1c-0.5-0.5-0.9-1.1-1.4-1.6c0,0,0-0.1,0-0.1
					c0.3-0.2,0.6-0.3,0.9-0.5c0.1-0.1,0.2-0.1,0.3-0.1c0,0,0.1,0,0.1,0c0,0,0.1,0,0.1,0c0-0.1,0-0.1,0-0.2c0,0,0-0.1-0.1-0.1
					c-0.5,0-1.1,0-1.6,0c0,0-0.1,0-0.1,0c0,0.1,0,0.1,0,0.2c0,0,0,0,0,0c0,0,0.1,0,0.1,0c-0.5,0.3-0.9,0.5-1.4,0.8
					c-0.3,0.1-0.5,0.3-0.8,0.4c-0.1,0-0.1,0-0.1,0c0-0.4,0-0.8,0-1.1c0-0.1,0-0.1,0.1-0.1c0.1,0,0.1,0,0.2,0c0,0,0.1,0,0.1-0.1
					c0-0.1,0-0.1,0-0.2c0,0,0-0.1,0-0.1c-0.5,0-1,0-1.5,0c0,0-0.1,0-0.1,0c0,0.1,0,0.1,0,0.2c0,0,0,0,0,0c0.1,0,0.1,0,0.2,0
					c0.1,0,0.1,0,0.1,0.1c0,0.3,0,0.6,0,0.9c0,0.5,0,0.9,0,1.4c0,0.1,0,0.1-0.1,0.1c-0.1,0-0.1,0-0.2,0c0,0,0,0,0,0
					c0,0.1,0,0.2,0,0.2c0,0,0,0.1,0.1,0.1c0.1,0,0.2,0,0.3,0c0.4,0,0.8,0,1.2,0c0.1,0,0.1,0,0.1-0.1c0-0.1,0-0.2,0-0.2c0,0,0,0,0,0
					c-0.1,0-0.1,0-0.2,0c0,0,0,0,0-0.1c0-0.1,0-0.2,0-0.3c0,0,0,0,0-0.1c0.4-0.2,0.8-0.4,1.2-0.6c0,0,0.1,0,0.1,0
					c0.2,0.3,0.5,0.5,0.7,0.8C265.3,32.6,265.4,32.7,265.5,32.8z M266.4,34.9c0.3,0,0.7,0,1-0.1c0.5-0.1,0.9-0.3,1.3-0.7
					c0.2-0.2,0.3-0.3,0.3-0.6c0-0.1,0-0.1-0.1-0.1c-0.1,0-0.2,0-0.3,0c0,0-0.1,0-0.1,0c-0.1,0.1-0.2,0.3-0.3,0.3
					c-0.2,0.1-0.4,0.2-0.7,0.3c-0.6,0.1-1.1,0.2-1.7,0c-0.4-0.1-0.7-0.3-0.9-0.6c-0.3-0.3-0.2-0.7,0.1-1c0,0,0-0.1,0-0.1
					c-0.1-0.2-0.3-0.3-0.4-0.5c0,0,0,0-0.1,0c-0.1,0.1-0.3,0.2-0.4,0.3c-0.2,0.3-0.3,0.6-0.3,0.9c0,0.2,0,0.4,0.1,0.5
					c0.2,0.3,0.4,0.5,0.8,0.7C265.2,34.7,265.8,34.9,266.4,34.9z M269.1,32L269.1,32c0-0.1,0-0.3,0-0.4c0-0.2,0-0.1-0.1-0.2
					c-0.2,0-0.3,0-0.5,0.1c0,0-0.1,0-0.2,0c-0.8-0.4-1.6-0.5-2.4-0.2c-0.1,0-0.1,0,0,0.1c0.1,0.1,0.2,0.3,0.3,0.4c0,0,0.1,0,0.1,0
					c0.4-0.1,0.8-0.1,1.2,0c0.4,0.1,0.8,0.3,1.1,0.7c0,0,0,0,0.1,0c0.1,0,0.2,0,0.3,0c0,0,0.1,0,0.1-0.1
					C269.1,32.4,269.1,32.2,269.1,32z"/>
				<path fill="#D21832" d="M265.5,32.8c-0.1-0.1-0.2-0.2-0.3-0.3c-0.2-0.3-0.5-0.5-0.7-0.8c0,0-0.1,0-0.1,0
					c-0.4,0.2-0.8,0.4-1.2,0.6c0,0,0,0,0,0.1c0,0.1,0,0.2,0,0.3c0,0,0,0.1,0,0.1c0.1,0,0.1,0,0.2,0c0,0,0,0,0,0c0,0.1,0,0.2,0,0.2
					c0,0.1,0,0.1-0.1,0.1c-0.4,0-0.8,0-1.2,0c-0.1,0-0.2,0-0.3,0c0,0-0.1,0-0.1-0.1c0-0.1,0-0.2,0-0.2c0,0,0,0,0,0
					c0.1,0,0.1,0,0.2,0c0.1,0,0.1,0,0.1-0.1c0-0.5,0-0.9,0-1.4c0-0.3,0-0.6,0-0.9c0,0,0-0.1-0.1-0.1c-0.1,0-0.1,0-0.2,0
					c0,0-0.1,0,0,0c0-0.1,0-0.1,0-0.2c0,0,0,0,0.1,0c0.5,0,1,0,1.5,0c0,0,0.1,0,0,0.1c0,0.1,0,0.1,0,0.2c0,0,0,0.1-0.1,0.1
					c-0.1,0-0.1,0-0.2,0c-0.1,0-0.1,0-0.1,0.1c0,0.4,0,0.8,0,1.1c0,0.1,0,0.1,0.1,0c0.3-0.1,0.5-0.3,0.8-0.4
					c0.5-0.2,0.9-0.5,1.4-0.8c0,0-0.1,0-0.1,0c0,0-0.1,0,0,0c0-0.1,0-0.1,0-0.2c0,0,0,0,0.1,0c0.5,0,1.1,0,1.6,0c0,0,0.1,0,0.1,0.1
					c0,0.1,0,0.1,0,0.2c0,0,0,0.1-0.1,0c0,0-0.1,0-0.1,0c-0.1,0-0.2,0-0.3,0.1c-0.3,0.2-0.6,0.4-0.9,0.5c0,0-0.1,0,0,0.1
					c0.5,0.5,0.9,1.1,1.4,1.6c0,0,0,0.1,0.1,0.1c0,0,0,0,0,0c0,0.1,0,0.2,0,0.2c0,0,0,0-0.1,0c-0.5,0-1.1,0-1.6,0c0,0,0,0,0,0
					c0-0.1,0-0.2,0-0.3c0,0,0,0,0.1,0C265.4,32.8,265.4,32.8,265.5,32.8z"/>
				<path fill="#D21832" d="M266.4,34.9c-0.6,0-1.1-0.1-1.7-0.4c-0.3-0.1-0.6-0.4-0.8-0.7c-0.1-0.2-0.1-0.4-0.1-0.5
					c0-0.3,0.1-0.6,0.3-0.9c0.1-0.1,0.2-0.2,0.4-0.3c0,0,0,0,0.1,0c0.1,0.2,0.3,0.3,0.4,0.5c0,0,0,0,0,0.1c-0.3,0.3-0.3,0.6-0.1,1
					c0.2,0.3,0.6,0.5,0.9,0.6c0.6,0.1,1.1,0.1,1.7,0c0.2-0.1,0.5-0.1,0.7-0.3c0.1-0.1,0.2-0.2,0.3-0.3c0,0,0.1-0.1,0.1,0
					c0.1,0,0.2,0,0.3,0c0,0,0.1,0,0.1,0.1c-0.1,0.2-0.2,0.4-0.3,0.6c-0.4,0.4-0.8,0.6-1.3,0.7C267.1,34.9,266.7,34.9,266.4,34.9z"/>
				<path fill="#D21832" d="M269.1,32c0,0.2,0,0.4,0,0.5c0,0,0,0.1-0.1,0.1c-0.1,0-0.2,0-0.3,0c0,0-0.1,0-0.1,0
					c-0.3-0.4-0.7-0.6-1.1-0.7c-0.4-0.1-0.8-0.1-1.2,0c0,0-0.1,0-0.1,0c-0.1-0.1-0.2-0.3-0.3-0.4c0-0.1,0-0.1,0-0.1
					c0.8-0.2,1.7-0.1,2.4,0.2c0.1,0,0.1,0,0.2,0c0.1-0.1,0.3-0.1,0.5-0.1c0.1,0,0.1,0,0.1,0.2C269.1,31.8,269.1,31.9,269.1,32
					L269.1,32z"/>
			</g>
		</g>
	</g>
	<g>
		<path fill="#B02300" d="M211.5,75.4c1.6-3.6,4.2-5.2,6.5-4.1c2.3,1.1,2.8,4,1.2,7.6c-1,2.1-2.4,3.7-4.2,4.4c1,1.6,0.8,3.9-0.4,6.5
			c-1.5,3.3-4.2,6.1-7.2,4.7c-3-1.4-2.7-5.1-1.2-8.5c1.2-2.6,2.8-4.1,4.6-4.5C210.3,79.7,210.5,77.6,211.5,75.4z M212.2,88.2
			c0.9-2,1-3.8,0-4.2c-1-0.4-2.3,0.7-3.2,2.8s-1,3.8,0,4.2C210,91.4,211.3,90.3,212.2,88.2z M216.4,78.4c0.7-1.6,1-3.2,0-3.6
			c-0.9-0.4-1.9,0.5-2.8,2.4c-0.8,1.8-0.8,3.2,0,3.6C214.6,81.2,215.6,80.3,216.4,78.4z"/>
		<path fill="#B02300" d="M218.3,91.2c-0.9,2.4-0.8,3.5,0.1,3.9c1.1,0.5,2.3-0.8,3.3-3c1.2-2.6,1.3-4.2,0.3-4.7
			c-0.6-0.3-1.2,0-2.2,1.1l-1.1-2.7l5.5-11.2l6.7,3.1l-2.4,5.3l-1.7-0.8l0.6-1.8l-3.1-1.4l-2.6,5.3c1.2-0.6,1.9-0.7,2.6-0.3
			c2.2,1,2.3,4.7,0.3,9c-1.6,3.5-4.5,7.2-7.7,5.8c-2.3-1.1-2.7-3.9-1.1-8.1L218.3,91.2z"/>
	</g>
	<path fill="#D89F79" d="M240.8,67.8l-23.4-8l-13.9-21.8c0,0,4.8-7.2,0.1-14.2c-4.7-7.1-3,10-6.2,11.5c-3.3,1.5-8.4-4.3-8.1,1.1
		c0.3,4.1,2.1,2.9,8.1,9c2.2,7.3,7.6,19.5,13.1,24.7c5.5,5.2,27.1,12.4,27.1,12.4L240.8,67.8z"/>
	<path fill="#E6E6E6" d="M251.6,63.8c-3.3-1.8-7.7-2.5-13.4-1l-7.9-2c0,0-9.3,20.1-3.7,24.2l20,0.2l4.9-2.7
		C258.8,78.4,259,67.7,251.6,63.8z"/>
	<g>
		<path fill="#B02300" d="M243.7,66.9c2.1-0.1,3.5,0.9,3.6,2.5s-1.2,2.8-3.3,2.9c-1.3,0.1-2.4-0.3-3.1-1.1c-0.5,1-1.6,1.6-3.1,1.7
			c-1.9,0.1-3.9-0.6-4.1-2.7c-0.1-2.2,1.7-3.1,3.7-3.2c1.5-0.1,2.7,0.4,3.3,1.3C241.3,67.5,242.4,67,243.7,66.9z M237.9,71.1
			c1.2-0.1,2-0.5,2-1.3c0-0.7-0.9-1.1-2.2-1c-1.2,0.1-2,0.6-2,1.3C235.8,70.8,236.6,71.2,237.9,71.1z M243.5,70.6
			c0.9-0.1,1.7-0.4,1.7-1.1c0-0.6-0.7-0.9-1.8-0.9c-1.1,0.1-1.7,0.5-1.7,1.1C241.7,70.4,242.4,70.7,243.5,70.6z"/>
		<path fill="#B02300" d="M238,75.5c-1.3,0.2-1.9,0.6-1.8,1.2c0,0.8,1,1.1,2.3,1c1.6-0.1,2.3-0.5,2.3-1.2c0-0.4-0.3-0.7-1.1-1l1-1.4
			l6.7-0.2l0.3,4.8l-3.1,0.2l-0.1-1.2l1-0.2l-0.1-2.2l-3.2,0.1c0.6,0.5,0.8,0.9,0.8,1.4c0.1,1.6-1.6,2.7-4.2,2.9
			c-2.1,0.1-4.6-0.4-4.7-2.7c-0.1-1.6,1.1-2.7,3.5-3.1L238,75.5z"/>
	</g>
</g>
</svg>
