<?xml version="1.0" encoding="utf-8"?>
<!-- Generator: Adobe Illustrator 19.0.0, SVG Export Plug-In . SVG Version: 6.00 Build 0)  -->
<svg version="1.1" id="Layer_1" xmlns="http://www.w3.org/2000/svg" xmlns:xlink="http://www.w3.org/1999/xlink" x="0px" y="0px"
	 viewBox="-640 498.4 337.4 234.1" style="enable-background:new -640 498.4 337.4 234.1;" xml:space="preserve">
<style type="text/css">
	.st0{fill:#998675;}
	.st1{fill:#825439;}
	.st2{fill:#CD0014;}
	.st3{fill:#736357;}
	.st4{fill:#FFFFFF;}
	.st5{fill:none;}
	.st6{fill:#FFFDFD;}
	.st7{font-family:'Gotham-Book';}
	.st8{font-size:10px;}
</style>
<rect x="-626.6" y="576" class="st0" width="315.7" height="155.1"/>
<rect x="-583.4" y="565.4" class="st1" width="2.5" height="167.1"/>
<rect x="-606" y="565.4" class="st1" width="2.5" height="167.1"/>
<rect x="-558.1" y="565.4" class="st1" width="2.5" height="167.1"/>
<rect x="-532.7" y="565.4" class="st1" width="2.5" height="167.1"/>
<rect x="-507.3" y="565.4" class="st1" width="2.5" height="167.1"/>
<rect x="-481.9" y="565.4" class="st1" width="2.5" height="167.1"/>
<rect x="-456.6" y="565.4" class="st1" width="2.5" height="167.1"/>
<rect x="-431.2" y="565.4" class="st1" width="2.5" height="167.1"/>
<rect x="-405.8" y="565.4" class="st1" width="2.5" height="167.1"/>
<rect x="-380.5" y="565.4" class="st1" width="2.5" height="167.1"/>
<rect x="-355.1" y="565.4" class="st1" width="2.5" height="167.1"/>
<rect x="-329.7" y="565.4" class="st1" width="2.5" height="167.1"/>
<rect x="-634.1" y="504.7" class="st2" width="331.5" height="153.1"/>
<rect x="-634.1" y="656.4" class="st3" width="331.5" height="4.9"/>
<rect x="-634.1" y="503.1" class="st3" width="331.5" height="5.2"/>
<rect x="-308.5" y="504.4" class="st3" width="5.9" height="157.6"/>
<g>
	<path class="st4" d="M-363.8,613.3c-34.7,6.5-69.6,11.9-105.4,12.6c-29,0.6-57.5-1.8-85.5-8c-28-6.1-53.7-16.6-78-29.3
		c-0.4-0.2-0.4-0.4-1.1-0.7l-0.4,32.5c1.3,0.4,2.7,0.7,3.9,1.1c29.9,10.5,61.3,14.6,93.6,14.1c21-0.3,41.8-2.4,62.6-4.8
		c34.1-4,68-9.6,102.5-11.6c16.3-0.9,32.6-1.1,48.7,1.3c4.8,0.7,9.7,1.6,14.3,2.3c0.1-5,0.1-10,0.2-14.9
		C-327.3,607.1-345.6,609.9-363.8,613.3z"/>
</g>
<rect x="-640" y="502.8" class="st3" width="5.9" height="157.6"/>
<g>
	<path class="st4" d="M-616.4,561.5h6.9v14.7h9.6v5.9h-16.5V561.5z"/>
	<path class="st4" d="M-599.2,577.5L-599.2,577.5c0-3.3,2.4-5,6.1-5c1.3,0,3.1,0.3,3.8,0.6v-0.3c0-1.5-0.9-2.3-3-2.3
		c-1.6,0-3,0.4-4.4,0.9l-1.2-4.4c1.8-0.7,4-1.2,6.7-1.2c3.3,0,5.4,0.7,6.8,2.1c1.2,1.2,1.7,2.8,1.7,5.1v9.1h-6.7v-1.7
		c-1.1,1.2-2.6,2-4.6,2C-597,582.4-599.2,580.7-599.2,577.5z M-589.3,576.1v-0.7c-0.4-0.1-1-0.3-1.5-0.3c-1.3,0-2.1,0.8-2.1,1.8v0.1
		c0,0.9,0.7,1.6,1.5,1.6C-590.2,578.6-589.3,577.6-589.3,576.1z"/>
	<path class="st4" d="M-573.9,574.1L-573.9,574.1c0-4.5,3.5-8.4,8.7-8.4c3.5,0,6,1.8,7.2,4.4l-4.8,2.7c-0.6-1-1.3-1.6-2.3-1.6
		c-1.4,0-2.5,1.2-2.5,2.8v0.1c0,1.7,1.1,2.9,2.4,2.9c1.2,0,1.8-0.6,2.5-1.6l4.8,2.8c-1.4,2.7-3.9,4.4-7.7,4.4
		C-570.3,582.4-573.9,578.6-573.9,574.1z"/>
	<path class="st4" d="M-556.7,560.6h6.7v7.5c1-1.3,2.6-2.5,4.9-2.5c3.4,0,5.5,2.2,5.5,5.8V582h-6.7v-8.4c0-1.4-0.8-2.2-1.8-2.2
		s-1.9,0.8-1.9,2.2v8.4h-6.7V560.6z"/>
	<path class="st4" d="M-537.9,560.6h6.9v4.3h-6.9V560.6z M-537.8,566h6.7v16h-6.7V566z"/>
	<path class="st4" d="M-530.2,580.1l2.3-3.8c1.9,1.2,4.1,1.8,5.9,1.8c0.6,0,1-0.1,1-0.5v-0.1c0-0.3-0.3-0.5-1.9-0.9
		c-4-1-6.5-2.1-6.5-5.4v-0.1c0-3.5,2.8-5.5,7-5.5c2.6,0,5.2,0.7,7.2,1.8l-2.1,4c-1.7-0.9-3.8-1.5-5.1-1.5c-0.6,0-0.9,0.2-0.9,0.5
		v0.1c0,0.3,0.4,0.5,2,0.9c4,1,6.5,2.1,6.5,5.4v0.1c0,3.5-2.6,5.5-6.9,5.5C-525.1,582.4-527.9,581.6-530.2,580.1z"/>
	<path class="st4" d="M-513.7,566h6.7v2c1.1-1.2,2.3-2.3,4.7-2.3c3.9,0,6.9,3.4,6.9,8.3v0.1c0,5.1-3,8.4-6.8,8.4
		c-2.4,0-3.8-1.1-4.8-2.2v6.5h-6.7V566L-513.7,566z M-501.8,574.1L-501.8,574.1c0-1.7-1.1-2.9-2.7-2.9s-2.7,1.3-2.7,2.9v0.1
		c0,1.6,1.1,2.9,2.7,2.9S-501.8,575.7-501.8,574.1z"/>
	<path class="st4" d="M-494.4,577.5L-494.4,577.5c0-3.3,2.4-5,6.1-5c1.3,0,3.1,0.3,3.8,0.6v-0.3c0-1.5-0.9-2.3-3-2.3
		c-1.6,0-3,0.4-4.4,0.9l-1.2-4.4c1.8-0.7,4-1.2,6.7-1.2c3.3,0,5.4,0.7,6.8,2.1c1.2,1.2,1.7,2.8,1.7,5.1v9.1h-6.7v-1.7
		c-1.1,1.2-2.6,2-4.6,2C-492.3,582.4-494.4,580.7-494.4,577.5z M-484.5,576.1v-0.7c-0.4-0.1-1-0.3-1.5-0.3c-1.3,0-2.1,0.8-2.1,1.8
		v0.1c0,0.9,0.7,1.6,1.5,1.6C-485.4,578.6-484.5,577.6-484.5,576.1z"/>
	<path class="st4" d="M-469.1,574.1L-469.1,574.1c0-5.1,3-8.5,6.8-8.5c2.4,0,3.8,1.1,4.8,2.2v-7.2h6.7V582h-6.7v-2
		c-1.1,1.2-2.3,2.3-4.7,2.3C-466,582.4-469.1,579-469.1,574.1z M-457.3,574.1L-457.3,574.1c0-1.6-1.1-2.9-2.7-2.9s-2.7,1.3-2.7,2.9
		v0.1c0,1.6,1.1,2.9,2.7,2.9S-457.3,575.7-457.3,574.1z"/>
	<path class="st4" d="M-449.3,574.1L-449.3,574.1c0-4.8,3.4-8.5,8.2-8.5c5.7,0,8.3,4,8.3,8.8c0,0.4,0,0.8,0,1.1H-443
		c0.5,1.4,1.6,2.1,3,2.1c1.2,0,2.2-0.6,3.3-1.6l3.6,2.8c-1.6,2.1-3.8,3.5-7.3,3.5C-445.7,582.4-449.3,579.1-449.3,574.1z
		 M-438.8,572.7c-0.1-1.5-1.1-2.4-2.2-2.4s-1.9,0.9-2.1,2.4H-438.8z"/>
	<path class="st4" d="M-423.7,560.6h6.7V582h-6.7V560.6z"/>
	<path class="st4" d="M-415.6,577.5L-415.6,577.5c0-3.3,2.4-5,6.1-5c1.3,0,3.1,0.3,3.8,0.6v-0.3c0-1.5-0.9-2.3-3-2.3
		c-1.6,0-3,0.4-4.4,0.9l-1.2-4.4c1.8-0.7,4-1.2,6.7-1.2c3.3,0,5.4,0.7,6.8,2.1c1.2,1.2,1.7,2.8,1.7,5.1v9.1h-6.7v-1.7
		c-1.1,1.2-2.6,2-4.6,2C-413.4,582.4-415.6,580.7-415.6,577.5z M-405.7,576.1v-0.7c-0.4-0.1-1-0.3-1.5-0.3c-1.3,0-2.1,0.8-2.1,1.8
		v0.1c0,0.9,0.7,1.6,1.5,1.6C-406.6,578.6-405.7,577.6-405.7,576.1z"/>
	<path class="st4" d="M-390.8,566h7l2.6,8l2.6-8h6.9l-6.5,16.1h-6.1L-390.8,566z"/>
	<path class="st4" d="M-370.8,560.6h6.9v4.3h-6.9V560.6z M-370.7,566h6.7v16h-6.7V566z"/>
	<path class="st4" d="M-362.4,574.1L-362.4,574.1c0-5.1,3-8.5,6.8-8.5c2.4,0,3.8,1.1,4.8,2.2v-7.2h6.7V582h-6.7v-2
		c-1.1,1.2-2.3,2.3-4.7,2.3C-359.4,582.4-362.4,579-362.4,574.1z M-350.6,574.1L-350.6,574.1c0-1.6-1.1-2.9-2.7-2.9
		c-1.5,0-2.7,1.3-2.7,2.9v0.1c0,1.6,1.1,2.9,2.7,2.9C-351.8,576.9-350.6,575.7-350.6,574.1z"/>
	<path class="st4" d="M-342.7,577.5L-342.7,577.5c0-3.3,2.4-5,6.1-5c1.3,0,3.1,0.3,3.8,0.6v-0.3c0-1.5-0.9-2.3-3-2.3
		c-1.6,0-3,0.4-4.4,0.9l-1.2-4.4c1.8-0.7,4-1.2,6.7-1.2c3.3,0,5.4,0.7,6.8,2.1c1.2,1.2,1.7,2.8,1.7,5.1v9.1h-6.7v-1.7
		c-1.1,1.2-2.6,2-4.6,2C-340.6,582.4-342.7,580.7-342.7,577.5z M-332.8,576.1v-0.7c-0.4-0.1-1-0.3-1.5-0.3c-1.3,0-2.1,0.8-2.1,1.8
		v0.1c0,0.9,0.7,1.6,1.5,1.6C-333.7,578.6-332.8,577.6-332.8,576.1z"/>
</g>
<rect x="-400.8" y="645" class="st5" width="97.1" height="8"/>
<text transform="matrix(1 0 0 1 -387.1093 652.2498)" class="st6 st7 st8">SLOGAN 1973</text>
</svg>
