<?xml version="1.0" encoding="utf-8"?>
<!-- Generator: Adobe Illustrator 18.0.0, SVG Export Plug-In . SVG Version: 6.00 Build 0)  -->
<!DOCTYPE svg PUBLIC "-//W3C//DTD SVG 1.1//EN" "http://www.w3.org/Graphics/SVG/1.1/DTD/svg11.dtd">
<svg version="1.1" id="Layer_1" xmlns="http://www.w3.org/2000/svg" xmlns:xlink="http://www.w3.org/1999/xlink" x="0px" y="0px"
	 viewBox="0 0 382.6 151.8" enable-background="new 0 0 382.6 151.8" xml:space="preserve">
<g>
	<g>
		<path fill="#7F8082" d="M166.4,85.5l2.9,3.3l96.8,23.4c0,0,11.2-0.6,10.4-12.1c0,0,0.1-6.4-6.4-8.5l-93.8-30.3l-5.7,0.8
			L166.4,85.5z"/>
		<path fill="#626A75" d="M268.3,112c0,0,10.6-0.8,14.3-13.3c0,0-1.9-4.9-8.7-5.3C273.9,93.4,282.8,106.5,268.3,112z"/>
		<polygon fill="#626A75" points="253.8,86.5 256.2,83.4 272.2,89 270.9,92.1 		"/>
		<path fill="#C56B41" d="M166.4,85.5c0,0,9,1.1,11.2-9.8c2.2-10.9-4.1-13.9-5.6-13.7c0,0-11-1.1-14.3,9.1
			C154.5,81.4,166.4,85.5,166.4,85.5z"/>
		<polygon fill="#808285" points="178.3,85.7 188.4,87.8 192.6,82.2 182.8,79.7 		"/>
		<polygon fill="#808285" points="203.7,79 264.1,96.3 262.5,94.9 202.1,75.2 		"/>
	</g>
	<g>
		<path fill="#6D6E71" d="M226.1,59l4.7-12c0,0,0.8-10.6-6.6-11.9C217,33.7,223.3,57.1,226.1,59z"/>
		<g>
			<path fill="#6D6E71" d="M6.4,44.3L4.7,31c0,0,3.5-12.2,22.5-15.9S17.6,47.6,6.4,44.3z"/>
			
				<ellipse transform="matrix(0.9981 6.092143e-02 -6.092143e-02 0.9981 2.5266 -7.1023)" fill="#6D6E71" cx="117.7" cy="37.9" rx="113.3" ry="37.3"/>
			
				<ellipse transform="matrix(0.9981 6.092142e-02 -6.092142e-02 0.9981 3.1695 -7.0204)" fill="#939598" cx="116.7" cy="48.5" rx="110.5" ry="35.5"/>
			
				<ellipse transform="matrix(0.9981 6.092142e-02 -6.092142e-02 0.9981 3.5305 -7.0717)" fill="#6D6E71" cx="117.7" cy="54.4" rx="51.7" ry="16.2"/>
			
				<ellipse transform="matrix(0.9981 6.092142e-02 -6.092142e-02 0.9981 3.9614 -7.0585)" fill="#808285" cx="117.7" cy="61.4" rx="34.6" ry="10.9"/>
			
				<ellipse transform="matrix(0.9981 6.092146e-02 -6.092146e-02 0.9981 4.3076 -6.9857)" fill="#939598" cx="116.7" cy="67.1" rx="21.1" ry="8.1"/>
			<ellipse fill="#F1F2F2" cx="116.7" cy="72.7" rx="11.3" ry="4.1"/>
		</g>
	</g>
	<polygon fill="#6D6E71" points="124.9,32.8 138.8,34.8 138.8,20.6 	"/>
	<path fill="#6D6E71" d="M157.2,65.9l24.1,36.1l27.4,6.5l-16.2-31.4C192.6,77.1,178.1,62.1,157.2,65.9z"/>
	<ellipse fill="#F1F2F2" cx="186.8" cy="29.7" rx="3.8" ry="2.1"/>
	<ellipse fill="#F1F2F2" cx="61.8" cy="70" rx="3" ry="1.6"/>
	<path fill="#939598" d="M170.4,143.8c0,0,66.3,9.6,71.9,7.7c1.5-0.5,9.2-2.2,11.5-5.5c2.2-3.2,13.2-2.2,13.2-2.2s5.2-8.2,0-14.9
		c0,0-20.9-6-26.4-9.5c-5.5-3.5-28.4-11.7-60.2-18.9c0,0,9.7,4.2,10.2,10.7C191.1,117.7,188.9,142.6,170.4,143.8z"/>
	<path fill="#626363" d="M164.5,137.8l4.3,6c0,0,16.4,2.3,22.4-14.8c6-17.1-1.1-26.7-8.3-27.9l-4-0.6l-8.6,2.3
		c0,0,16.4,3.3,12.6,17.8S174.5,137.7,164.5,137.8z"/>
	<path fill="#808285" d="M161.4,135l5,5.4c0,0,18.9,0.1,18.9-19.8S168.5,103,168.5,103L161.4,135z"/>
	
		<ellipse transform="matrix(0.9938 0.1113 -0.1113 0.9938 14.3214 -17.7305)" fill="#4B3303" cx="166" cy="119.4" rx="14.3" ry="16.6"/>
	
		<ellipse transform="matrix(0.9938 0.1113 -0.1113 0.9938 14.3014 -17.373)" fill="#6D4703" cx="162.8" cy="119.4" rx="11.1" ry="12.9"/>
	<polygon fill="#808285" points="241.4,122.2 279.7,69.9 286.7,72.4 247.9,124.9 	"/>
	<polygon fill="#A7A9AC" points="241.4,122.2 239.4,118.7 275.4,68.6 279.7,69.9 	"/>
	<path fill="#939598" d="M260.3,61.4l2.5,3.8l96.8,37.5c0,0,11.7,0.9,12.4-11c0,0,1-6.6-5.5-9.6l-92.9-44.2h-6L260.3,61.4z"/>
	<path fill="#626A75" d="M362,102.8c0,0,11.1,0.6,16.6-11.8c0,0-1.3-5.3-8.3-6.6C370.3,84.4,377.8,99.2,362,102.8z"/>
	<polygon fill="#626A75" points="350.6,74.5 353.4,71.6 369.2,79.6 367.5,82.6 	"/>
	<path fill="#C56B41" d="M260.3,61.4c0,0,9.1,2.4,12.9-8.6s-2.3-15-3.9-15c0,0-11.2-2.6-16,7.5S260.3,61.4,260.3,61.4z"/>
	<polygon fill="#808285" points="272.6,63.3 282.7,66.8 287.9,61.6 278.1,57.7 	"/>
	<polygon fill="#808285" points="299.8,59.8 359.9,86.1 358.4,84.4 298.6,55.7 	"/>
</g>
</svg>
