<?xml version="1.0" encoding="utf-8"?>
<!-- Generator: Adobe Illustrator 18.0.0, SVG Export Plug-In . SVG Version: 6.00 Build 0)  -->
<!DOCTYPE svg PUBLIC "-//W3C//DTD SVG 1.1//EN" "http://www.w3.org/Graphics/SVG/1.1/DTD/svg11.dtd">
<svg version="1.1" id="Layer_1" xmlns="http://www.w3.org/2000/svg" xmlns:xlink="http://www.w3.org/1999/xlink" x="0px" y="0px"
	 viewBox="0 0 337.4 229.6" enable-background="new 0 0 337.4 229.6" xml:space="preserve">
<rect x="13.4" y="73.2" fill="#998675" width="315.7" height="155.1"/>
<rect x="56.6" y="62.6" fill="#825439" width="2.5" height="167.1"/>
<rect x="34" y="62.6" fill="#825439" width="2.5" height="167.1"/>
<rect x="81.9" y="62.6" fill="#825439" width="2.5" height="167.1"/>
<rect x="107.3" y="62.6" fill="#825439" width="2.5" height="167.1"/>
<rect x="132.7" y="62.6" fill="#825439" width="2.5" height="167.1"/>
<rect x="158.1" y="62.6" fill="#825439" width="2.5" height="167.1"/>
<rect x="183.4" y="62.6" fill="#825439" width="2.5" height="167.1"/>
<rect x="208.8" y="62.6" fill="#825439" width="2.5" height="167.1"/>
<rect x="234.2" y="62.6" fill="#825439" width="2.5" height="167.1"/>
<rect x="259.5" y="62.6" fill="#825439" width="2.5" height="167.1"/>
<rect x="284.9" y="62.6" fill="#825439" width="2.5" height="167.1"/>
<rect x="310.3" y="62.6" fill="#825439" width="2.5" height="167.1"/>
<rect x="5.9" y="1.9" fill="#CD0014" width="331.5" height="153.1"/>
<rect x="5.9" y="153.6" fill="#736357" width="331.5" height="4.9"/>
<rect x="5.9" y="0.3" fill="#736357" width="331.5" height="5.2"/>
<rect x="331.5" y="1.6" fill="#736357" width="5.9" height="157.6"/>
<g>
	<path fill="#FFFFFF" d="M276.2,107c-34.7,6.5-69.6,11.9-105.4,12.6c-29,0.6-57.5-1.8-85.5-8c-28-6.1-53.7-16.6-78-29.3
		c-0.4-0.2-0.4-0.4-1.1-0.7l-0.4,32.5c1.3,0.4,2.7,0.7,3.9,1.1c29.9,10.5,61.3,14.6,93.6,14.1c21-0.3,41.8-2.4,62.6-4.8
		c34.1-4,68-9.6,102.5-11.6c16.3-0.9,32.6-1.1,48.7,1.3c4.8,0.7,9.7,1.6,14.3,2.3c0.1-5,0.1-10,0.2-14.9
		C312.7,100.8,294.4,103.6,276.2,107z"/>
</g>
<g>
	<path fill="#FFFFFF" d="M100.9,69.1c-3.3-0.9-5.8-1.3-7.5-1.3c-2.3,0-4.4,0.7-6.2,2.1c-1.6-1.4-2.8-2.4-3.7-2.9
		c-1.5-0.9-3-1.4-4.4-1.4c-2.5,0-6.1,0.8-10.9,2.4c-4.8,1.6-8.4,2.4-10.9,2.4c-3.4,0-6.3-1-8.7-3.1c-2.2-1.9-3.8-4.4-4.8-7.5
		c-3.1,1.5-5.6,2.3-7.3,2.3c-1.5,0-3-0.4-4.5-1.2c-1.7-0.9-2.6-2.1-2.6-3.5c0-3.4,2.1-5.1,6.4-5.1c2.7,0,5.8,0.8,9.3,2.4l4.3-7.3
		c-2.5,0-4.6-0.5-6.2-1.5c-1.9-1.2-2.9-3-2.9-5.4c0-3.3,1.4-6.4,4.2-9.3c2.8-2.9,5.9-4.4,9.1-4.4c0.4,0,2.4,0.2,5.9,0.5
		c-11.3,2.3-17,6.8-17,13.8c0,1.6,0.6,2.9,1.8,4c1.2,1.1,2.6,1.6,4.2,1.6c0.2,0,0.6,0,1.1,0c2-4.6,4.4-8.8,7.1-12.4
		c3.9-5.1,7.5-7.7,10.9-7.7c1.2,0,2.1,0.5,2.8,1.5c0.6,0.9,0.9,1.9,0.9,3.2c0,3-1.9,6.2-5.8,9.4c-3,2.5-6.3,4.5-9.9,5.9
		c-2.6,5.5-5,9-7.3,10.5c0.6,1.9,1,3.2,1.4,4.1c0.7,1.8,1.4,3.1,2.1,3.9c2,2.2,3.9,3.3,5.9,3.3c3,0,7.4-0.9,13.2-2.6
		c5.8-1.8,10.2-2.6,13.2-2.6C91.4,63,96.9,65.1,100.9,69.1z M41.7,58.1v-0.9c0-0.5-0.7-1-2-1.5C38.5,55.2,37.6,55,37,55h-2.7
		c-2,0-3,0.7-3,2.2v0.9c0,0.6,0.4,1.1,1.1,1.5c0.6,0.4,1.3,0.6,1.9,0.6C38.2,60.2,40.7,59.5,41.7,58.1z M69.8,29.7
		c0-1.6-0.7-2.4-2-2.4c-2,0-4.3,2.5-7.1,7.4c-2.2,4-3.7,7.4-4.5,10.3C65.3,41,69.8,35.9,69.8,29.7z"/>
	<path fill="#FFFFFF" d="M76.1,43.1c-0.5,1.9-1.7,4.2-3.5,7.1c-2,3.1-3.3,5.4-3.9,6.9l0.4,0.3c1.3-0.4,2.4-1.4,3.5-2.9
		c1-1.5,1.6-2.3,1.8-2.4h0.2c0.1,0.2,0.2,0.3,0.2,0.5c0,1.3-1.1,3.1-3.4,5.4c-2.3,2.3-4,3.5-5.4,3.5c-1,0-1.7-0.3-2.1-0.8
		c-0.1-0.1-0.4-0.8-0.8-2.1c-1.1,1.9-2.6,2.9-4.5,2.9c-0.9,0-1.6-0.4-2.3-1.1c-0.6-0.7-1-1.5-1-2.4c0-2.4,1.6-5.6,4.9-9.4
		c3.3-3.8,6.1-5.7,8.5-5.7c0.3,0,0.7,0.2,1.4,0.5c0.6,0.3,1.1,0.5,1.4,0.6c0.2-0.1,0.3-0.3,0.3-0.6c0.4-0.3,1-0.4,2-0.4
		C74.8,42.9,75.5,43,76.1,43.1z M70.5,45.3c-0.1-0.4-0.4-0.6-0.9-0.6c-0.5,0-0.9,0.2-1.4,0.6v0c-1.6,1.3-3.1,3-4.5,5.2
		C62,53,61.2,55,61.2,56.7c0,0.7,0.3,1,0.8,1c0.7,0,2.3-1.8,4.6-5.5C68.7,49,70,46.7,70.5,45.3z"/>
	<path fill="#FFFFFF" d="M98.9,45.6c0,0.9-0.3,1.9-1,2.9c-0.7,1.1-1.5,1.6-2.4,1.6c-0.2,0-0.5-0.2-0.9-0.5c-0.2-0.4-0.2-0.7-0.2-0.8
		c0-0.7,0.4-1.4,1.1-2.1c0.7-0.7,1.4-0.9,2.1-0.8c0-0.5-0.4-0.8-1.3-0.8c-1.5,0-3.4,1.8-5.5,5.3c-2,3.3-3,5.8-3,7.6
		c0,0.8,0.3,1.2,0.9,1.2c1.4,0,2.7-0.6,4.1-1.7c0.6-0.5,1.6-1.6,3.1-3.2c1-1.2,1.7-1.7,2.1-1.7c0.1,0,0.2,0.1,0.2,0.2
		c0,0.4-1,1.8-2.9,4.2c-2.7,3.4-5.5,5.1-8.4,5.1c-2.7,0-4.1-1.3-4.1-3.9c0-0.9,0.3-2.1,0.8-3.7c0.5-1.4,1-2.6,1.5-3.4
		c3.4-5.3,7.1-8,11-8c0.7,0,1.4,0.3,2,0.8C98.6,44.3,98.9,44.9,98.9,45.6z"/>
	<path fill="#FFFFFF" d="M116.8,55.4c-0.2,0.7-0.8,1.8-2,3.1c-1.2,1.3-2.1,2.2-2.9,2.6c-1,0.5-2.4,0.8-4,0.8c-2.2,0-3.3-1-3.3-3
		c0-0.6,0.9-2.6,2.6-5.7c1.7-3.2,2.6-5.7,2.6-7.5v-0.6l0,0c-0.1-0.6-0.4-0.9-1-0.9c-0.4,0-0.9,0.1-1.3,0.4c-1.5,2-3,4.5-4.5,7.4
		c-0.4,0.8-1.6,3.4-3.8,7.7c-1.2,0.6-3,0.9-5.6,0.9c1.9-3.4,4.6-8.4,8-15.2c3.4-6.8,6-11.8,7.9-15.1c1-0.6,1.8-0.9,2.5-0.9
		c0.1,0,1,0,2.7,0l-3.3,7.2c-1.8,3.9-2.8,6-3.2,6.3l-0.1,0.2l0,0.1h0.4c0.4,0,0.9-0.1,1.6-0.3c0.7-0.2,1.3-0.3,1.6-0.3
		c0.8,0,1.5,0.3,2,0.9c0.5,0.6,0.7,1.4,0.7,2.2c0,1.5-0.8,3.9-2.5,7.1c-1.7,3.2-2.5,4.9-2.5,5.1c0,0.2,0.2,0.4,0.6,0.7
		c1.7,0,3.2-0.6,4.6-1.7C115.1,56.8,115.8,56.2,116.8,55.4L116.8,55.4z"/>
	<path fill="#FFFFFF" d="M127,52.9c0,1.4-1.1,3.3-3.4,5.6c-2.3,2.3-4.2,3.4-5.7,3.4c-1.5,0-2.3-1.1-2.3-3.2c0-1.2,0.4-2.5,1.3-4
		l2.2-3.8c0.3-0.6,1.1-2.5,2.5-5.8h5.1c-2.6,4.6-4.5,8.7-5.8,12.4l0.5,0.3c1.2-0.4,2.3-1.3,3.1-2.6c0.9-1.5,1.6-2.4,2.2-2.7h0.2
		C126.9,52.6,127,52.7,127,52.9z M129.4,38.9c0,1.1-0.2,1.9-0.6,2.2c-0.4,0.4-1.1,0.6-2.3,0.6c-1.3,0-1.9-0.3-1.9-1v-2.1
		c0-0.4,0.4-0.8,1.2-1.2c0.8-0.4,1.4-0.6,1.9-0.6C128.8,36.7,129.4,37.5,129.4,38.9z"/>
	<path fill="#FFFFFF" d="M139.7,52.8c0,2.3-1,4.4-3,6.4c-2,2-4.1,3-6.4,3c-1.4,0-2.6-0.3-3.7-1c-1.2-0.8-1.8-1.8-1.8-3.1
		c0-0.8,0.2-1.4,0.7-1.9c0.5-0.5,1.1-0.8,1.9-0.8c1.4,0,2.2,0.8,2.2,2.3c0,0.5-0.2,1-0.6,1.4c-0.4,0.4-0.8,0.7-1.3,0.7
		c-0.3,0-0.6,0-0.8,0c0.6,0.6,1.3,0.9,2,0.9c2,0,3.4-1.6,4.4-4.8c0.7-2.3,1-4.7,1-7.3v-1.5c-0.3,0.2-1.4,1.2-3.4,3
		c-1.9,1.8-2.9,2.6-3,2.6c-0.3,0-0.5-0.2-0.5-0.5c0-0.3,0.8-1.1,2.4-2.6c1.1-1,2.1-1.9,3.2-2.9c1.2-1.2,2.1-2.3,2.8-3.3
		c0.5-0.8,0.9-1.3,1.3-1.3c0.5,0,0.7,0.2,0.7,0.7c0,0.1-0.3,0.5-0.8,1.1c-0.5,0.7-0.8,1.2-0.8,1.5c0,0.3,0.6,1.3,1.7,3.1
		C139.1,50.1,139.7,51.6,139.7,52.8z"/>
	<path fill="#FFFFFF" d="M156,48c0,2.7-1.2,5.6-3.6,8.7c-2.5,3.3-5.1,5-7.7,5c-0.3,0-0.7-0.2-1.3-0.5c-0.6-0.4-1.1-0.5-1.4-0.5
		c-0.2,0.4-0.7,1.4-1.6,3l-4,7.2l-4.7,0.6l9.7-17.8c0.1-0.1,0.8-1.3,2.1-3.5c0.8-1.4,1.4-2.6,1.8-3.6l-0.4-0.3
		c-1.3,0.4-2.4,1.3-3.3,2.8c-1.1,1.6-1.7,2.4-1.9,2.5h-0.2c-0.1-0.2-0.2-0.3-0.2-0.5c0-1.3,1.1-3.1,3.4-5.4c2.3-2.3,4-3.5,5.4-3.5
		s2.1,0.4,2.4,1.1c0.1,0.4,0.3,1,0.6,1.8c0.1,0.1,0.2,0.1,0.3,0.1c0.3,0,0.6-0.1,1.1-0.2c0.5-0.1,0.8-0.2,1.1-0.2
		C155.1,44.8,156,45.8,156,48z M151.6,48.9c0-0.5-0.1-1.1-0.2-1.8l0,0c0-0.5-0.3-0.8-0.7-0.9c-0.5,0.2-1.2,1-1.9,2.5
		c-0.4,0.6-0.9,1.6-1.6,2.9c-0.7,1.3-1.5,2.5-2.2,3.8c-0.9,1.5-1.5,2.8-2,3.9c0.1,0.4,0.4,0.6,0.9,0.6c0.5,0,0.9-0.2,1.4-0.6v0
		c1.5-1.2,2.9-2.8,4.2-4.7C150.8,52.3,151.6,50.4,151.6,48.9z"/>
	<path fill="#FFFFFF" d="M174.3,43.1c-0.5,1.9-1.7,4.2-3.5,7.1c-2,3.1-3.3,5.4-3.9,6.9l0.4,0.3c1.3-0.4,2.4-1.4,3.5-2.9
		c1-1.5,1.6-2.3,1.8-2.4h0.2c0.1,0.2,0.2,0.3,0.2,0.5c0,1.3-1.1,3.1-3.4,5.4c-2.3,2.3-4,3.5-5.4,3.5c-1,0-1.7-0.3-2.1-0.8
		c-0.1-0.1-0.4-0.8-0.8-2.1c-1.1,1.9-2.6,2.9-4.5,2.9c-0.9,0-1.6-0.4-2.3-1.1c-0.6-0.7-1-1.5-1-2.4c0-2.4,1.6-5.6,4.9-9.4
		c3.3-3.8,6.1-5.7,8.5-5.7c0.3,0,0.7,0.2,1.4,0.5c0.6,0.3,1.1,0.5,1.4,0.6c0.2-0.1,0.3-0.3,0.3-0.6c0.4-0.3,1-0.4,2-0.4
		C173,42.9,173.8,43,174.3,43.1z M168.8,45.3c-0.1-0.4-0.4-0.6-0.9-0.6c-0.5,0-0.9,0.2-1.4,0.6v0c-1.6,1.3-3.1,3-4.5,5.2
		c-1.7,2.5-2.5,4.6-2.5,6.2c0,0.7,0.3,1,0.8,1c0.7,0,2.3-1.8,4.6-5.5C166.9,49,168.2,46.7,168.8,45.3z"/>
	<path fill="#FFFFFF" d="M184.9,55.1c-0.8,2.1-2.1,5.1-4,9.2c-0.8,1.8-1.7,3.7-2.7,5.7c-1.1,2.2-2.1,4-3.1,5.5
		c-1.9,2.9-3.2,5.2-3.9,7.1l0.4,0.3c1.3-0.4,2.4-1.3,3.3-2.8c0.9-1.4,1.6-2.3,1.9-2.5h0.2c0.1,0.2,0.2,0.3,0.2,0.5
		c0,1.3-1.1,3.1-3.4,5.4c-2.3,2.3-4,3.5-5.4,3.5c-1,0-1.7-0.3-2.1-0.8c-0.1-0.1-0.4-0.8-0.8-2.1c-1.1,1.9-2.6,2.9-4.5,2.9
		c-0.9,0-1.6-0.4-2.3-1.1c-0.6-0.7-1-1.5-1-2.4c0-2.7,2.3-6.5,6.8-11.2c2.4-2.5,4.6-3.8,6.6-3.8c0.3,0,0.7,0.2,1.4,0.5
		c0.6,0.3,1.1,0.5,1.4,0.6c0.1-0.1,0.2-0.3,0.3-0.7c0.1-0.5,0.7-2,1.7-4.3c1.8-4.3,3.3-7.7,4.5-10.1l2.7-0.1
		C184,54.2,184.5,54.5,184.9,55.1z M173.1,70.7c-0.1-0.4-0.4-0.6-0.9-0.6c-0.5,0-0.9,0.2-1.4,0.6v0c-1.6,1.3-3.1,3-4.5,5.2
		c-1.7,2.5-2.5,4.6-2.5,6.2c0,0.7,0.3,1,0.8,1c0.7,0,2.3-1.8,4.6-5.5C171.3,74.4,172.6,72.1,173.1,70.7z"/>
	<path fill="#FFFFFF" d="M192.7,71.7c0,2.3-1.2,4.2-3.5,5.9c-1.9,1.4-4.1,2.3-6.7,2.9c-0.5,1.2-0.7,2.2-0.7,2.9
		c0,0.8,0.3,1.2,0.9,1.2c1.4,0,2.7-0.6,4.1-1.7c0.6-0.5,1.6-1.6,3.1-3.2c1-1.2,1.7-1.7,2.1-1.7c0.1,0,0.2,0.1,0.2,0.2
		c0,0.4-1,1.8-2.9,4.2c-2.7,3.4-5.5,5.1-8.4,5.1c-2.7,0-4.1-1.3-4.1-3.9c0-3.1,1.4-6.4,4.1-9.8c2.9-3.6,5.9-5.4,8.9-5.4
		C191.7,68.4,192.7,69.5,192.7,71.7z M190.6,71.3c0-0.5-0.1-0.9-0.2-1.2c-0.1-0.1-0.3-0.1-0.4-0.1c-1.1,0-2.4,1.3-4.1,3.9
		c-1.3,1.9-2.3,3.8-3,5.5c1.8-0.5,3.5-1.5,5.1-3C189.8,74.7,190.6,73,190.6,71.3z"/>
	<path fill="#FFFFFF" d="M225.9,52.1c0,1.1-0.4,2.3-1.1,3.6c-3.1,5.4-7.6,10.8-13.6,16c-1,0.9-2.6,2.2-4.6,3.9
		c-0.5,0.4-1,1.4-1.5,3.1c-0.5,1.6-0.7,2.8-0.8,3.6l0.5,1.2c0.1,0,0.2,0,0.2,0c0.7,0,1.7-0.8,2.9-2.3c1.3-1.5,2.1-2.3,2.5-2.3
		c0.2,0,0.2,0.1,0.2,0.2c0,0.4-0.7,1.4-2.1,3.1c-2.8,3.4-4.9,5-6.2,5c-0.8,0-1.5-0.3-2-0.9c-0.5-0.6-0.8-1.3-0.8-2.1
		c0-2,0.6-4.5,1.7-7.5c2.1-5.5,5.1-11,9.2-16.3c5.1-6.7,9.3-10,12.9-10C225.1,50.5,225.9,51,225.9,52.1z M224.5,53
		c-0.4-0.6-0.6-1-0.8-1c-2.2,0-5.3,3-9.5,9.1c-3.5,5.2-5.9,9.3-7.1,12.5c2.7-1.8,6-4.9,10.1-9.5C221.6,59.2,224.1,55.5,224.5,53z"/>
	<path fill="#FFFFFF" d="M230.8,68.5c-0.5,1.9-1.7,4.2-3.5,7.1c-2,3.1-3.3,5.4-3.9,6.9l0.4,0.3c1.3-0.4,2.4-1.4,3.5-2.9
		c1-1.5,1.6-2.3,1.8-2.4h0.2c0.1,0.2,0.2,0.3,0.2,0.5c0,1.3-1.1,3.1-3.4,5.4c-2.3,2.3-4,3.5-5.4,3.5c-1,0-1.7-0.3-2.1-0.8
		c-0.1-0.1-0.4-0.8-0.8-2.1c-1.1,1.9-2.6,2.9-4.5,2.9c-0.9,0-1.6-0.4-2.3-1.1c-0.6-0.7-1-1.5-1-2.4c0-2.4,1.6-5.6,4.9-9.4
		c3.3-3.8,6.1-5.7,8.5-5.7c0.3,0,0.7,0.2,1.4,0.5c0.6,0.3,1.1,0.5,1.4,0.6c0.2-0.1,0.3-0.3,0.3-0.6c0.4-0.3,1-0.4,2-0.4
		C229.5,68.3,230.3,68.4,230.8,68.5z M225.3,70.7c-0.1-0.4-0.4-0.6-0.9-0.6c-0.5,0-0.9,0.2-1.4,0.6v0c-1.6,1.3-3.1,3-4.5,5.2
		c-1.7,2.5-2.5,4.6-2.5,6.2c0,0.7,0.3,1,0.8,1c0.7,0,2.3-1.8,4.6-5.5C223.5,74.4,224.8,72.1,225.3,70.7z"/>
	<path fill="#FFFFFF" d="M259.8,74.2c0,0.2-0.2,0.5-0.5,0.8c-3,3-5.5,4.4-7.4,4.4c-0.4,0-0.8,0-1.2,0c-0.5,1-1.5,2.1-2.9,3.5
		c-1.4,1.3-2.6,2.3-3.7,3c-1,0.7-2.1,1-3.3,1c-0.9,0-1.6-0.4-2.3-1.1c-0.6-0.7-1-1.5-1-2.4c0-0.6,0.2-1.3,0.5-2l5.6-12.4l5.6-0.4
		c-1.3,1.7-2.5,3.7-3.8,6.1c-1.5,2.9-2.2,5.1-2.2,6.6c0,0.3,0.1,0.7,0.3,1.2c0.2,0.5,0.4,0.7,0.7,0.7c1.9,0,3.7-1.4,5.6-4.2
		c-1-1-1.5-2.1-1.5-3.4c0-1.7,0.6-3.5,1.7-5.6c1.3-2.3,2.7-3.4,4.3-3.4c1.4,0,2.1,1,2.1,2.9c0,2.4-1.6,5.4-4.8,9.1h0.5
		c1.1,0,2.7-0.8,4.6-2.4c1.9-1.6,2.9-2.4,2.9-2.4C259.7,73.8,259.8,73.9,259.8,74.2z M254.7,71.4c0-0.6-0.3-0.9-0.9-0.9
		c-1.1,0-2.1,0.6-3,1.7c-0.9,1.1-1.4,2.3-1.4,3.4c0,1,0.3,1.9,1,2.6C253.3,74.9,254.7,72.6,254.7,71.4z"/>
	<path fill="#FFFFFF" d="M266.9,78.3c0,1.4-1.1,3.3-3.4,5.6c-2.3,2.3-4.2,3.4-5.7,3.4c-1.5,0-2.3-1.1-2.3-3.2c0-1.2,0.4-2.5,1.3-4
		l2.2-3.8c0.3-0.6,1.1-2.5,2.5-5.8h5.1c-2.6,4.6-4.5,8.7-5.8,12.4l0.5,0.3c1.2-0.4,2.3-1.3,3.1-2.6c0.9-1.5,1.6-2.4,2.2-2.7h0.2
		C266.8,77.9,266.9,78.1,266.9,78.3z M269.2,64.3c0,1.1-0.2,1.9-0.6,2.2c-0.4,0.4-1.1,0.6-2.3,0.6c-1.3,0-1.9-0.3-1.9-1V64
		c0-0.4,0.4-0.8,1.2-1.2c0.8-0.4,1.4-0.6,1.9-0.6C268.7,62.1,269.2,62.8,269.2,64.3z"/>
	<path fill="#FFFFFF" d="M293,55.1c-0.8,2.1-2.1,5.1-4,9.2c-0.8,1.8-1.7,3.7-2.7,5.7c-1.1,2.2-2.1,4-3.1,5.5
		c-1.9,2.9-3.2,5.2-3.9,7.1l0.4,0.3c1.3-0.4,2.4-1.3,3.3-2.8c0.9-1.4,1.6-2.3,1.9-2.5h0.2c0.1,0.2,0.2,0.3,0.2,0.5
		c0,1.3-1.1,3.1-3.4,5.4c-2.3,2.3-4,3.5-5.4,3.5c-1,0-1.7-0.3-2.1-0.8c-0.1-0.1-0.4-0.8-0.8-2.1c-1.1,1.9-2.6,2.9-4.5,2.9
		c-0.9,0-1.6-0.4-2.3-1.1c-0.6-0.7-1-1.5-1-2.4c0-2.7,2.3-6.5,6.8-11.2c2.4-2.5,4.6-3.8,6.6-3.8c0.3,0,0.7,0.2,1.4,0.5
		c0.6,0.3,1.1,0.5,1.4,0.6c0.1-0.1,0.2-0.3,0.3-0.7c0.1-0.5,0.7-2,1.7-4.3c1.8-4.3,3.3-7.7,4.5-10.1l2.7-0.1
		C292,54.2,292.6,54.5,293,55.1z M281.1,70.7c-0.1-0.4-0.4-0.6-0.9-0.6c-0.5,0-0.9,0.2-1.4,0.6v0c-1.6,1.3-3.1,3-4.5,5.2
		c-1.7,2.5-2.5,4.6-2.5,6.2c0,0.7,0.3,1,0.8,1c0.7,0,2.3-1.8,4.6-5.5C279.3,74.4,280.6,72.1,281.1,70.7z"/>
	<path fill="#FFFFFF" d="M305.8,68.5c-0.5,1.9-1.7,4.2-3.5,7.1c-2,3.1-3.3,5.4-3.9,6.9l0.4,0.3c1.3-0.4,2.4-1.4,3.5-2.9
		c1-1.5,1.6-2.3,1.8-2.4h0.2c0.1,0.2,0.2,0.3,0.2,0.5c0,1.3-1.1,3.1-3.4,5.4c-2.3,2.3-4,3.5-5.4,3.5c-1,0-1.7-0.3-2.1-0.8
		c-0.1-0.1-0.4-0.8-0.8-2.1c-1.1,1.9-2.6,2.9-4.5,2.9c-0.9,0-1.6-0.4-2.3-1.1c-0.6-0.7-1-1.5-1-2.4c0-2.4,1.6-5.6,4.9-9.4
		c3.3-3.8,6.1-5.7,8.5-5.7c0.3,0,0.7,0.2,1.4,0.5c0.6,0.3,1.1,0.5,1.4,0.6c0.2-0.1,0.3-0.3,0.3-0.6c0.4-0.3,1-0.4,2-0.4
		C304.5,68.3,305.2,68.4,305.8,68.5z M300.3,70.7c-0.1-0.4-0.4-0.6-0.9-0.6c-0.5,0-0.9,0.2-1.4,0.6v0c-1.6,1.3-3.1,3-4.5,5.2
		c-1.7,2.5-2.5,4.6-2.5,6.2c0,0.7,0.3,1,0.8,1c0.7,0,2.3-1.8,4.6-5.5C298.4,74.4,299.7,72.1,300.3,70.7z"/>
</g>
<rect x="0" y="0" fill="#736357" width="5.9" height="157.6"/>
</svg>
