<?xml version="1.0" encoding="utf-8"?>
<!-- Generator: Adobe Illustrator 19.0.0, SVG Export Plug-In . SVG Version: 6.00 Build 0)  -->
<!DOCTYPE svg PUBLIC "-//W3C//DTD SVG 1.1//EN" "http://www.w3.org/Graphics/SVG/1.1/DTD/svg11.dtd">
<svg version="1.1" id="Layer_1" xmlns="http://www.w3.org/2000/svg" xmlns:xlink="http://www.w3.org/1999/xlink" x="0px" y="0px"
	 viewBox="0 0 225.1 139.1" style="enable-background:new 0 0 225.1 139.1;" xml:space="preserve">
<style type="text/css">
	.st0{fill:#F9BD91;}
	.st1{fill:#E6E6E6;}
	.st2{fill:#FFFFFF;}
	.st3{fill:#F2F2F2;}
	.st4{fill:#231F20;}
	.st5{fill:#CCCCCC;}
	.st6{fill:#E5A87B;}
	.st7{fill:#E6B608;}
	.st8{fill:#303572;}
	.st9{fill:#773F39;}
	.st10{fill:#F6F7FA;}
	.st11{fill:#1A258B;}
	.st12{fill:#B3B3B3;}
	.st13{fill:#333333;}
	.st14{fill:#F7931E;}
	.st15{fill:#999999;}
	.st16{opacity:0.1;fill:#FFFFFF;}
</style>
<g>
	<polygon class="st0" points="64.8,105.7 61.6,95.7 65.8,87.9 75.8,81.3 88.3,83.7 94.9,98.4 89.1,104.8 80.4,103.2 71.8,108.3 	"/>
	<polygon class="st0" points="154.4,105.7 157.5,95.7 153.4,87.9 143.4,81.3 130.9,83.7 124.3,98.4 130,104.8 138.8,103.2 
		147.4,108.3 	"/>
	<path class="st1" d="M138.4,78.6c-1.8-0.9-3.7-1.5-5.7-1.5l-23.2-0.7l-23.2,0.7c-2,0.1-3.9,0.6-5.7,1.5l-8.6,4.6
		c0,0,7.9-0.4,13.8,20.6l4.8,4.6l18.9-9.1l18.9,9.1l4.8-4.6c5.9-21,13.8-20.6,13.8-20.6L138.4,78.6z"/>
	<path class="st2" d="M86.6,121.9c0,0-0.5-5.8-6.9-7.9s-14-5.6-15.8-9.8c0,0,4.4,4.1,8.4,1.6s7-5.1,7-5.1s6.1-1.6,8,3
		s8.5,7.8,8.5,7.8s3.4,7,1.1,8.2S86.6,121.9,86.6,121.9z"/>
	<path class="st2" d="M132.5,121.9c0,0,0.5-5.8,6.9-7.9s14-5.6,15.8-9.8c0,0-4.4,4.1-8.4,1.6s-7-5.1-7-5.1s-6.1-1.6-8,3
		s-8.5,7.8-8.5,7.8s-3.4,7-1.1,8.2S132.5,121.9,132.5,121.9z"/>
	<path d="M86,120.2c0,0-7.5,15.4-5.9,17.1s8.8,1.1,11.4-1.6s-0.1-5,3.9-10.6c4-5.6,6.1-8.1,0.4-13.5c0,0,1.4,5.4-1.8,7.6
		S86,120.2,86,120.2z"/>
	<path d="M133.1,120.2c0,0,7.5,15.4,5.9,17.1s-8.8,1.1-11.4-1.6c-2.6-2.8,0.1-5-3.9-10.6c-4-5.6-6.1-8.1-0.4-13.5
		c0,0-1.4,5.4,1.8,7.6C128.3,121.4,133.1,120.2,133.1,120.2z"/>
	<path class="st3" d="M75.8,62.1L73.7,59c0,0,10.1-18.3,18.2-24.3s32.7-8.3,44.7,1.7s9.5,28.8,9.5,28.8s-2,2.5-11,2.2v10.7
		c0,0-4.7,6.2-7,8.7c-2.3,2.5-18.3,7.9-25.3,2.6c-7-5.3-9.8-12-17.6-11.6l-2-10C83.3,67.7,76,67.2,75.8,62.1z"/>
	<path class="st4" d="M131.5,13.7c1.3-3-0.8-7-4.1-7.6c-1.2-5.8-5.7-6.5-8.8-3.7c-0.8-1.2-2-2.2-3.5-2.5c-1.4-0.2-3.1,0.5-3.6,1.9
		c-0.8-0.8-2.1-1-3.1-0.6s-1.8,1.4-2,2.5c-2.5,0-4.4,3-3.4,5.2c-1.1,0.5-1.8,1.7-1.8,2.9s0.6,2.4,1.7,3c-1.6,1.4-1.2,4.5,0.7,5.4
		c-0.1,1.1-0.2,2.2,0.1,3.3c0.3,1.1,1,2.1,2,2.5c0.6,0.2,1.3,0.2,1.9,0.2c0.9,0.1,1.7,0.4,2.6,0.7c1.1,0.4,2.2,0.7,3.3,1.1
		c3.2,1.1,6.5,2.1,9.6,3.5c0.7,0.3,1.4,0.6,2.1,0.7c0.8,0,1.6-0.2,1.9-0.9c0.4-0.7,0-1.7-0.7-1.8c0.8-0.2,1.6-0.1,2.4-0.1
		c0.8-0.1,1.7-0.4,2-1.1s-0.2-1.8-1-1.7c1.3,0.4,2.8-0.4,3.3-1.7c0.5-1.3-0.1-2.9-1.3-3.5c1.6-0.6,2.6-2.3,2.5-4
		S133.2,14.1,131.5,13.7z"/>
	<path class="st0" d="M107.3,7.6l-1,23.4l3.6,0.1l-0.3,7.7c0,0,3.7,8,13.8,0.6l0.7-16c0,0,3-0.5,3.1-3.9c0.1-3.4-3.3-1.9-3.3-1.9
		l0.4-9.3L107.3,7.6z"/>
	<path class="st4" d="M125.9,14.6c0,0-4.7-0.3-5.2-4.2c0,0-4.2,2.6-6-1.3c0,0-2.3,3.6-4.9,1c0,0-1,4.7-3.1,2.9l0.8-6.8l17.7-0.2
		l1.6,5.1L125.9,14.6z"/>
	<path class="st0" d="M75.3,61.5l-4.2,8.2v6.3l3,3.5l9.1-1.2l8.8-9.2l5.6,1.7l5.9-2.3l-0.3-1.8c0,0,1.2-1.8,0.3-2.5
		c0,0,1.8-2.2-0.2-3.2c0,0,1.3-2.7-1.7-2.7s-4.3-1-4.3-1s1.7-5.2-0.7-7.5c-2.3-2.3-2,0.8-2,0.8s0.6,4.8-1.2,6.5l-1.7,3.5l-10,4.7
		l-3.3-0.7L75.3,61.5z"/>
	<path class="st5" d="M93.1,45.8l0.3,11.4l-1.7,3.5l-2.7,1.3l2-3c0,0-1.8-2-2-7l3,4C92.1,56.1,90.6,49.8,93.1,45.8z"/>
	<polygon class="st6" points="137.1,100.1 141.4,90.6 141.5,86.4 142.9,85.3 143.9,91.3 	"/>
	<g id="XFqErI.tif">
		<g>
			<path class="st7" d="M127.8,46.8C127.8,46.8,127.8,46.8,127.8,46.8c-0.1,0.1-0.1,0.2,0,0.3c0,0,0.1,0,0,0.1c0,0,0,0.1,0,0.1
				c0,0,0.1,0,0.1,0l0,0c0.1,0,0.1,0.1,0.2,0.1l0,0c0.1,0.1,0.2,0,0.2,0.1c0,0,0.1,0,0.1,0c0.1,0,0,0.1,0.1,0.1c0,0,0,0,0,0
				c0,0.1,0,0.1,0.1,0.1c0,0,0.1,0,0.1,0l0,0c0,0,0,0,0,0l0,0c0,0,0,0,0,0.1l0,0c0,0.1,0.1,0.1,0.1,0.2c0,0,0,0,0.1,0
				c0.1,0,0,0.1,0,0.2c0,0,0,0,0,0.1c0,0.1,0.1,0.2,0.1,0.3c0.1,0.1,0,0.2-0.1,0.2c0,0-0.1,0-0.1,0.1c0,0.1,0,0.1,0.1,0.1
				c0.1,0,0.2,0,0.2-0.1c0-0.1,0.1-0.1,0.2-0.1c0.1,0,0.1,0.1,0,0.1c0,0.1,0,0.1,0,0.1c0,0.1,0.1,0.1,0.2,0c0,0,0.1,0,0.1,0
				c0,0-0.1,0.1-0.2,0c0,0-0.1,0-0.1,0c0,0.1-0.1,0.1-0.2,0c-0.1,0-0.1,0-0.2-0.1c-0.3-0.1-0.7-0.2-1.1-0.2c-0.2,0-0.4,0-0.5,0
				c0,0-0.1,0-0.1,0c0,0,0,0.1,0.1,0c0,0,0.1,0,0.1,0c0,0.1-0.1,0-0.1,0.1c0,0.1,0.1,0,0.2,0.1c-0.1,0.1-0.2,0-0.3,0.1
				c-0.2,0-0.4,0.1-0.6,0.1c-0.1,0-0.3,0.1-0.4,0.1c0,0-0.1,0-0.1,0c0,0,0-0.1,0.1-0.1l0,0c0.1,0.1,0.1,0,0.2,0c0,0,0-0.1,0-0.1
				c-0.1,0-0.1,0-0.2,0c0,0,0,0,0,0c0,0.1-0.1,0-0.1,0c0,0,0,0,0-0.1c0.3-0.1,0.6-0.2,0.9-0.3c-0.3,0-0.7,0.1-1,0.3
				c-0.1,0-0.1,0-0.1,0c0-0.1-0.1-0.1-0.1-0.1c0,0-0.1,0-0.1-0.1l0,0c0.2,0.1,0.3,0,0.2-0.2c0-0.1,0-0.1,0.1-0.2
				c0.1,0,0.1,0,0.1,0.1c0,0.1,0.1,0.1,0.1,0.1c0.1,0,0.1,0,0.2-0.1c0-0.1,0-0.1-0.1-0.1c-0.1,0-0.1-0.1-0.1-0.2
				c0-0.1,0.1-0.2,0.2-0.2c0,0,0-0.1,0-0.1c0,0,0,0,0,0c0,0,0-0.1,0-0.1c0.1,0,0.1-0.1,0.1-0.2c0,0,0,0,0,0c0.1,0,0.1,0,0.1-0.1
				c0-0.1,0-0.1,0.1-0.1c0,0,0,0,0.1,0c0.1,0,0.1,0,0.1-0.1c0-0.1,0-0.1,0.1-0.1l0,0c0,0.1,0.1,0.1,0.1,0c0,0,0,0,0,0c0,0,0,0,0,0
				c0.1,0,0.3-0.1,0.4-0.1c0,0,0-0.1,0-0.1c0,0,0,0,0,0c0,0,0.1-0.1,0.1-0.1c0-0.1,0.1-0.1,0-0.2c-0.1,0,0-0.1,0-0.1
				C127.7,46.7,127.7,46.7,127.8,46.8C127.8,46.8,127.8,46.8,127.8,46.8z M127.2,49.1C127.1,49.1,127.1,49.1,127.2,49.1L127.2,49.1
				c0,0.2,0.1,0.1,0.1,0.1C127.3,49.1,127.3,49,127.2,49.1C127.2,49,127.2,49,127.2,49.1L127.2,49.1z M127.7,47.4c0,0-0.1,0-0.1,0
				c-0.1,0-0.3,0-0.4,0c-0.4,0.1-0.6,0.4-0.6,0.7c0,0.1,0,0.1,0.1,0.2c0.1,0.1,0.2,0.2,0,0.3c-0.1,0,0,0.1,0,0.1c0,0,0.1,0.1,0.2,0
				c0.1,0,0.1-0.1,0.1-0.2c0-0.1,0-0.2,0.1-0.2c0.1,0,0.1,0.1,0.1,0.1c0,0.1,0.1,0.1,0.1,0.2c0.1,0,0.1,0,0.1-0.1
				c0-0.1,0-0.1-0.1-0.1c-0.1-0.1-0.1-0.2,0-0.3c0,0.1,0,0.2,0.2,0.2c0.1,0,0.1,0,0.1-0.1l0,0c0,0,0,0,0,0c0,0,0-0.1,0.1-0.1
				c0,0,0.1,0.1,0.1,0.1c0,0,0,0.1-0.1,0.1c-0.1,0-0.1,0.1,0,0.1c0.1,0.1,0.2,0,0.3-0.1c0-0.1,0-0.2,0.1-0.1c0.1,0,0.1,0.1,0.1,0.2
				c0,0.1,0,0.1,0.1,0.1c0.1,0,0.1,0,0.2,0c0,0,0.1,0,0.1-0.1c0,0.1,0,0.1-0.1,0.1c0,0-0.1,0-0.1,0.1c0,0,0.1,0,0.1,0c0,0,0,0,0.1,0
				c0,0,0.1,0,0.1,0c0,0,0-0.1,0-0.1c0-0.1-0.1-0.2,0.1-0.2c0.1,0,0.1-0.1,0-0.2l0,0c0,0,0,0,0,0l0,0c-0.1,0-0.1,0-0.2,0l0,0
				c-0.1,0-0.1,0.1,0,0.2c0,0,0,0,0,0.1c0,0,0,0-0.1,0c-0.1-0.1-0.1-0.2,0.1-0.3c0.1,0,0.1-0.1,0.1-0.1
				C128.7,47.7,128.3,47.4,127.7,47.4C127.8,47.4,127.8,47.4,127.7,47.4C127.8,47.4,127.8,47.4,127.7,47.4z M126.7,48.5
				c0,0,0-0.1,0-0.1l0,0c0-0.1-0.1-0.1-0.1-0.1c0,0-0.1,0-0.1,0c-0.1,0-0.1,0.1,0,0.2c0,0,0.1,0.1,0.1,0.1c0,0,0,0,0,0
				C126.7,48.6,126.7,48.6,126.7,48.5L126.7,48.5z M127,49.1c-0.2,0-0.3,0-0.4,0.1C126.8,49.3,126.9,49.3,127,49.1z M127.5,48.7
				C127.5,48.7,127.5,48.8,127.5,48.7c0.1,0,0.2,0,0.3,0c0,0,0,0,0-0.1c0,0,0-0.1-0.1-0.1c0,0,0-0.1-0.1-0.1
				C127.6,48.6,127.6,48.7,127.5,48.7z M128.3,48.8C128.3,48.8,128.4,48.8,128.3,48.8c0.1-0.1,0-0.2,0-0.2c-0.1,0-0.1,0-0.1,0.1
				C128.1,48.8,128.2,48.8,128.3,48.8z M126.6,48.9c0.1,0,0.2,0,0.2,0c0,0,0,0,0-0.1c0,0-0.1-0.1-0.2-0.1
				C126.6,48.7,126.6,48.8,126.6,48.9C126.6,48.8,126.6,48.9,126.6,48.9z M127.1,48.8c0.1,0,0.2,0,0.2-0.1c0,0-0.1-0.1-0.2-0.1
				C127.1,48.6,127.1,48.7,127.1,48.8C127,48.8,127.1,48.8,127.1,48.8z M129.2,49C129.3,49.1,129.3,49,129.2,49c0.1-0.1,0-0.2,0-0.2
				c-0.1,0-0.1,0-0.1,0.1C129.1,49,129.2,49,129.2,49z M126.2,49c0,0,0.1,0,0.1-0.1c0,0,0-0.1-0.1-0.1
				C126.1,48.9,126.1,48.9,126.2,49C126.1,49,126.1,49.1,126.2,49z"/>
			<path class="st8" d="M129.2,49.6c0.6,0.3,1.1,0.7,1.5,1.3c0.7,1.2,0.7,2.4,0,3.5c-0.7,1.1-1.7,1.6-2.9,1.6
				c-1.4,0-2.7-0.9-3.2-2.3c-0.1-0.2-0.1-0.3-0.1-0.5c0.1-0.1,0-0.2,0.1-0.2c0,0.1,0,0.2,0.1,0.3c0.4,1.8,2.2,2.9,4,2.5
				c1.5-0.3,2.6-1.7,2.5-3.2c0-1.3-0.6-2.3-1.7-2.9c-0.8-0.4-1.6-0.5-2.4-0.3c-0.3,0.1-0.6,0.2-0.9,0.4c0-0.1,0.1-0.1,0.2-0.2
				c0,0,0.1,0,0.1-0.1c0.6-0.3,1.2-0.3,1.8-0.3C128.5,49.4,128.8,49.5,129.2,49.6z"/>
			<path class="st9" d="M127.4,49.3c0.1-0.1,0.2,0,0.3-0.1c0-0.1-0.1,0-0.2-0.1c0-0.1,0.1-0.1,0.1-0.1c0,0-0.1,0-0.1,0
				c0,0-0.1,0-0.1,0c0,0,0,0,0.1,0c0.2,0,0.4,0,0.5,0c0.4,0,0.7,0.1,1.1,0.2c0.1,0,0.1,0,0.2,0.1c0.1,0,0.2,0.1,0.2,0c0,0,0,0,0.1,0
				c0.1,0,0.1,0,0.2,0c0,0-0.1-0.1-0.1,0l0,0c0,0,0-0.1,0-0.1c0-0.1,0-0.1,0.1-0.1c0,0,0,0.1,0,0.1c0,0.1,0,0.1,0.1,0.2
				c0.1,0,0.1,0,0.1-0.1c0-0.1-0.1-0.2-0.2-0.1c0-0.1,0.1-0.1,0.2,0c0,0,0.1,0.1,0.1,0c0,0,0,0,0-0.1c0,0,0-0.1-0.1,0
				c0,0-0.1,0-0.1,0c0,0,0,0,0,0c0.1,0,0.1,0,0.1-0.1c0,0,0-0.1-0.1-0.1c0,0-0.1,0-0.1,0.1c0,0,0,0,0,0c-0.1,0-0.1-0.1,0-0.1
				c0.1-0.1,0-0.1,0-0.1c0.1,0,0.1,0,0.1-0.1c0-0.1-0.1,0-0.1,0c0,0,0,0,0-0.1c0,0-0.1,0.1-0.1,0c0,0,0.1,0,0.1,0c0,0,0-0.1,0-0.1
				c0,0-0.1,0-0.1,0c0,0,0,0,0,0.1c-0.1,0-0.1-0.1,0-0.1c0-0.1,0-0.1-0.1,0c0,0,0,0,0,0c0,0,0.1-0.1,0-0.1c0,0-0.1,0-0.1,0
				c0,0,0,0.1,0,0.1c0,0,0,0,0,0c-0.1,0-0.1-0.1-0.1-0.1c0,0,0-0.1,0-0.1c0,0,0,0,0,0c0,0,0-0.1-0.1-0.1c0,0-0.1,0-0.1,0.1
				c0,0,0,0.1,0.1,0.1c0,0,0,0,0,0c-0.1,0.1-0.1,0-0.1,0c-0.1-0.1-0.2-0.1-0.3,0c0,0,0.1,0,0.1,0.1l0,0c0,0-0.1-0.1-0.1,0
				c0,0,0,0.1,0,0.1l0,0c0,0-0.1,0-0.1,0c0.1-0.1-0.1-0.2-0.1-0.2c0,0,0.1,0.1,0.1,0c0-0.1-0.1-0.1-0.1-0.1c0-0.1-0.1-0.1-0.1,0
				c-0.1,0-0.1,0-0.1-0.1c0,0,0.1,0.1,0.1,0c0,0,0-0.1,0-0.1c0,0-0.1,0-0.1,0c0,0,0-0.1-0.1-0.1c0-0.1,0-0.1-0.1-0.1
				c-0.1,0-0.1,0.1,0,0.1c0,0,0,0,0,0c0-0.1-0.2,0-0.2-0.1c0,0,0.1,0,0.1-0.1c0,0,0,0-0.1,0c-0.1,0-0.1,0.1,0,0.1
				c-0.1,0-0.1-0.1-0.1-0.1c0-0.1,0-0.1-0.1-0.1c0,0-0.1,0,0,0.1c0,0.1,0.1,0.1,0.1,0c0,0-0.1,0-0.1,0c0,0,0-0.1,0-0.1
				c0-0.1,0-0.1,0-0.1c-0.1-0.1-0.1-0.1,0-0.2c0,0,0,0,0,0c-0.1,0.1,0,0.1,0,0.1c0.1,0,0.2,0,0.3,0.1c0.1,0.1,0.3,0,0.4,0.2
				c0,0,0,0,0.1,0c0.1,0,0.1,0,0.1,0.1c0,0.1,0,0.2,0.1,0.2c0,0,0.1,0,0.1,0c0.1,0.1,0.2,0.1,0.3,0c0,0,0,0,0,0
				c0.1,0.1,0.3,0.1,0.3,0.3c0,0,0,0,0.1,0.1c0,0,0.1,0,0.1,0c0,0.1,0.2,0.2,0.2,0.4c0,0.1,0.1,0.2,0.1,0.3c0,0.1,0,0.2,0,0.3
				c0,0.1-0.1,0.2-0.2,0.2c-0.1,0-0.3,0-0.4,0.1c0,0,0,0,0,0c0,0.1-0.1,0.2-0.1,0.3c-0.1,0-0.2,0-0.3-0.1c0.1,0,0.2,0.1,0.3,0.1
				c-0.1-0.1-0.1-0.1-0.1-0.1c0,0,0-0.1,0-0.1c0,0,0.1,0,0.1,0c0,0,0-0.1,0-0.1c0,0,0,0,0,0c-0.3-0.1-0.7-0.2-1-0.3
				c-0.1,0-0.2,0-0.3,0c0,0,0.1,0,0.1,0c0,0,0.1,0,0.1,0.1c0,0.1,0,0.1-0.1,0.1c0,0-0.1,0-0.1,0c0.1,0,0.2,0,0.3,0.1c0,0,0,0-0.1,0
				C127.7,49.3,127.5,49.3,127.4,49.3z"/>
			<path class="st9" d="M125.8,49C125.8,49.1,125.8,49.1,125.8,49c0.1,0.1,0.2,0.1,0.2,0.2c0,0-0.1,0-0.1,0c-0.1,0-0.2,0-0.3,0
				c-0.1,0-0.1-0.1-0.1-0.1c0,0,0,0,0-0.1c0,0,0,0.1,0.1,0.1c0.1,0.1,0.1,0.1,0.2,0.1C125.7,49,125.7,49,125.8,49
				c0-0.1,0-0.2-0.1-0.2c0,0-0.1-0.1-0.1,0c0,0-0.1,0.1-0.1,0.1c0,0,0,0.1,0,0.1c0,0,0,0-0.1,0c0,0,0-0.1,0-0.1c0,0,0-0.1,0-0.1
				C125.7,48.7,125.8,48.7,125.8,49c0.1-0.1,0.1-0.2,0.1-0.2c0,0-0.1-0.1-0.1-0.2c0-0.3,0.2-0.6,0.5-0.7c0.1,0,0.2,0,0.2-0.1
				c-0.1,0-0.1-0.1-0.2,0c0-0.1,0-0.1-0.1-0.1c0,0-0.1,0,0,0.1c0,0.1,0.1,0.1,0.1,0c0,0.1-0.1,0.1-0.2,0c0,0.1,0,0.2-0.1,0.2
				c0,0-0.1,0,0,0.1c0,0.1-0.1,0.1-0.1,0.1c0,0,0.1,0.1,0,0.2c0,0,0,0-0.1,0c-0.1,0,0,0.1,0,0.1c-0.1,0-0.1,0-0.1,0.1c0,0,0,0-0.1,0
				c-0.1-0.1,0.1-0.2,0.1-0.3c0,0,0.1,0,0.2-0.1c0,0,0-0.1-0.1-0.1c0,0,0,0,0,0l0,0c0,0,0,0,0,0c0,0,0,0,0,0c0,0,0,0,0-0.1
				c0,0,0.1-0.1,0-0.1c0,0,0,0,0,0c0.1-0.1,0.1-0.3,0.3-0.3c0,0,0.1,0,0.1-0.1c0-0.1,0.1-0.1,0.1-0.1c0,0,0.1,0,0.1,0
				c0.1-0.1,0.1-0.1,0.2,0c0.1,0,0.1,0,0.1,0c0-0.2,0.2-0.1,0.3-0.2l0,0c0,0,0,0.1,0.1,0.1c0,0-0.1,0-0.1,0.1c0,0.1,0,0.1-0.1,0.1
				c0,0,0.1-0.1,0-0.1c0,0-0.1,0-0.1,0c0,0.1,0,0.1,0,0.1c0,0-0.1,0.1-0.1,0.1c0,0.1,0,0.1-0.1,0.1c0,0,0,0,0,0c0,0,0,0,0,0
				c0,0,0,0,0,0c0.1,0.1,0.1,0.2-0.1,0.2c-0.1,0,0,0.1,0,0.1l0,0c-0.1,0-0.1,0-0.1,0.1c0,0.1,0.1,0.1,0.1,0l0,0
				c-0.1,0.1-0.1,0.2-0.2,0.2c0,0.1,0,0.2,0.1,0.2c0.1,0,0.1,0,0.1,0.1c0,0.1-0.1,0.1-0.2,0.1c-0.1,0-0.1,0-0.1-0.1
				c0-0.1-0.1-0.1-0.1-0.1c-0.1,0-0.1,0.1-0.1,0.2C126.1,49,126,49.1,125.8,49C125.8,49,125.8,49,125.8,49
				C125.8,49,125.8,49,125.8,49z M126,48.3c0.1,0,0.1-0.1,0.2-0.1c0.1,0,0.1-0.1,0.2-0.2c0,0,0,0,0,0c0,0,0,0-0.1,0
				C126.2,48,126,48.1,126,48.3z M126.5,47.8C126.5,47.8,126.4,47.9,126.5,47.8c0,0.1,0,0.1,0,0.1C126.6,47.9,126.6,47.9,126.5,47.8
				C126.6,47.8,126.5,47.8,126.5,47.8z M126,47.9C126,47.9,126,47.9,126,47.9c0.1-0.1,0-0.1,0-0.1C125.9,47.8,125.9,47.8,126,47.9
				C125.9,47.9,125.9,47.9,126,47.9z M126.5,47.6C126.5,47.6,126.4,47.6,126.5,47.6c-0.1-0.1-0.1,0-0.1,0
				C126.3,47.7,126.4,47.7,126.5,47.6C126.4,47.7,126.4,47.7,126.5,47.6z M126.7,47.7C126.7,47.6,126.7,47.6,126.7,47.7
				c-0.1-0.1-0.1,0-0.1,0C126.6,47.7,126.6,47.7,126.7,47.7C126.7,47.7,126.7,47.7,126.7,47.7z M125.8,48
				C125.7,48,125.7,48,125.8,48c-0.1,0.1,0,0.1,0,0.1C125.8,48.1,125.8,48.1,125.8,48C125.8,48,125.8,48,125.8,48z"/>
			<path class="st10" d="M127.4,49.3c0.2,0,0.4,0,0.5,0c0,0,0,0,0.1,0c0.3,0,0.7,0.1,1,0.2c0.1,0.1,0.2,0.1,0.3,0.1
				c0,0-0.1,0-0.1,0.1c-0.4-0.1-0.7-0.3-1.1-0.3c-0.6-0.1-1.2,0-1.8,0.3c0,0,0,0-0.1,0c0,0,0,0,0,0c0.1-0.1,0.2-0.1,0.2-0.1
				c0.1,0,0.2,0,0.3-0.1C126.9,49.3,127.1,49.3,127.4,49.3z"/>
			<path class="st9" d="M127.5,47.3c-0.1,0-0.3,0.1-0.4,0.1c0,0,0,0,0,0c0-0.2-0.1,0-0.2-0.1l0,0c-0.1-0.1,0-0.1,0.1-0.1
				c0,0,0.1,0.1,0.1,0c0.1-0.1,0.1-0.1,0.2-0.1c0,0,0.1,0,0.1,0l0,0c0,0,0,0,0.1,0c0,0,0.1,0,0.1,0c0,0,0.1-0.1,0-0.1c0,0,0,0,0,0
				c0,0,0-0.1,0-0.1c0.1,0,0.1-0.2,0.2-0.1c0,0,0.1,0,0.1,0.1c0,0-0.1,0-0.1,0c0-0.1-0.1,0-0.1,0c0,0-0.1,0.1,0,0.1
				c0.1,0.1,0,0.1,0,0.2c0,0-0.1,0-0.1,0.1l0,0c-0.1,0-0.1,0-0.1,0.1C127.4,47.3,127.5,47.3,127.5,47.3L127.5,47.3z M127.2,47.2
				C127.2,47.2,127.2,47.2,127.2,47.2c-0.1,0.1,0,0.1,0,0.1C127.3,47.3,127.3,47.3,127.2,47.2C127.3,47.2,127.3,47.2,127.2,47.2z"/>
			<path class="st8" d="M124.3,53.3c0-0.1,0-0.2,0-0.3c0.1,0,0.1-0.1,0-0.1c0-0.5,0-0.9,0.2-1.3c0,0,0-0.1,0-0.1c0,0,0,0,0,0
				c0.1,0,0.1-0.1,0.1-0.1c-0.1,0.2-0.2,0.5-0.2,0.7c-0.1,0.3,0,0.7,0,1c-0.1,0-0.1,0-0.1,0.1C124.3,53.2,124.4,53.3,124.3,53.3z"/>
			<path class="st11" d="M124.5,51.5c0.1,0,0,0.1,0,0.1c-0.2,0.4-0.2,0.9-0.2,1.3c0,0,0,0.1,0,0.1c0-0.2,0-0.4,0-0.6
				c0.1-0.1,0-0.2,0-0.2c0,0,0,0,0-0.1c0,0,0.1-0.1,0-0.1c0,0,0,0,0-0.1c0,0,0,0,0-0.1C124.4,51.8,124.5,51.6,124.5,51.5z"/>
			<path class="st9" d="M126.7,49.4c-0.1,0.1-0.2,0.1-0.3,0.1c-0.1,0-0.2,0.1-0.2,0.1c-0.1,0-0.1-0.1-0.2-0.2c0,0,0,0,0.1-0.1
				c0,0,0.1,0,0.1,0c0,0,0,0,0,0c0,0,0.1-0.1,0.2,0c0,0,0.1,0.1,0,0.1c0,0-0.1,0.1-0.2,0c0,0,0,0,0.1,0c0,0,0.1,0,0.1-0.1
				c0,0,0,0,0-0.1c0,0-0.1,0-0.1,0c0,0,0,0,0,0.1c-0.1,0-0.1,0.1-0.1,0.1c0,0.1,0.1,0,0.1,0C126.5,49.4,126.6,49.4,126.7,49.4z"/>
			<path class="st11" d="M124.7,51.4c-0.1,0-0.1,0.1-0.1,0.1c0.1-0.3,0.3-0.6,0.5-0.8l0,0c0,0.1,0,0.1,0,0.2l0,0l0,0
				c-0.1,0-0.1,0-0.1,0.1l0,0C124.8,51,124.7,51.2,124.7,51.4C124.7,51.4,124.7,51.4,124.7,51.4z"/>
			<path class="st11" d="M126.2,49.6C126.3,49.6,126.3,49.6,126.2,49.6C126.3,49.7,126.2,49.7,126.2,49.6c-0.1,0.1-0.2,0.2-0.3,0.3
				l0,0c-0.1,0-0.1,0-0.2,0.1c-0.1,0-0.1,0.1-0.2,0.1c0,0,0,0,0,0C125.8,49.9,126,49.8,126.2,49.6z"/>
			<path class="st11" d="M125,50.7c0.2-0.2,0.3-0.4,0.6-0.6c0,0,0,0,0,0c0,0,0,0.1,0,0.1c0,0,0,0,0,0c-0.1,0-0.1,0-0.1,0.1l0,0
				c0,0,0,0,0,0c0,0,0,0,0,0c0,0,0,0,0,0c0,0,0,0,0,0l0,0c0,0-0.1,0-0.1,0.1l0,0c-0.1,0-0.1,0-0.1,0.1c0,0,0,0,0,0c0,0,0,0,0,0l0,0
				C125.1,50.6,125.1,50.7,125,50.7L125,50.7z"/>
			<path class="st8" d="M125.5,48.8C125.4,48.9,125.5,48.9,125.5,48.8c0,0.1,0,0.1,0,0.1c0,0,0,0,0,0.1c0-0.2,0-0.4,0.1-0.5
				c0,0,0-0.1,0-0.1c0-0.1,0-0.1,0.1-0.2c0,0,0,0,0,0.1c0,0,0,0.1,0,0.1c0,0.1-0.1,0.2-0.1,0.3C125.5,48.7,125.4,48.7,125.5,48.8z"
				/>
			<path class="st8" d="M129.3,47.6c-0.1,0-0.2,0-0.3,0c0,0-0.1,0-0.1,0c-0.1,0-0.2,0-0.1-0.2c0,0.1,0.1,0.2,0.2,0.1
				c0,0,0.1,0,0.1,0C129.1,47.6,129.2,47.6,129.3,47.6z"/>
			<path class="st8" d="M126.1,49.3C126.1,49.4,126.1,49.4,126.1,49.3c-0.1,0-0.2-0.1-0.3-0.2c0,0,0.1,0,0.1,0c0,0,0.1,0.1,0.1,0
				C126.1,49.2,126.1,49.3,126.1,49.3C126.1,49.3,126.1,49.3,126.1,49.3z"/>
			<path class="st8" d="M127.4,47.1C127.4,47.1,127.3,47.1,127.4,47.1c-0.1,0-0.2,0-0.3,0.1c0,0-0.1,0-0.1,0c0,0,0,0,0,0
				C127.1,47.1,127.3,47.1,127.4,47.1z"/>
			<path class="st11" d="M124.3,53.3c0,0,0-0.1,0-0.1c0-0.1,0-0.1,0.1-0.1c0,0,0,0,0,0.1C124.3,53.2,124.4,53.3,124.3,53.3
				C124.3,53.3,124.3,53.3,124.3,53.3z"/>
			<path class="st8" d="M124.3,52.2c0,0.1,0,0.2,0,0.2C124.3,52.3,124.3,52.3,124.3,52.2z"/>
			<path class="st8" d="M124.4,52C124.4,52.1,124.4,52.1,124.4,52C124.3,52.1,124.3,52,124.4,52z"/>
			<path class="st8" d="M124.4,51.9C124.4,51.9,124.4,51.9,124.4,51.9C124.4,51.9,124.4,51.9,124.4,51.9z"/>
			<path class="st8" d="M127.4,47C127.4,47.1,127.4,47.1,127.4,47C127.4,47.1,127.4,47,127.4,47z"/>
			<path class="st9" d="M127.8,47.4c0.5,0,0.9,0.3,0.9,0.8c0,0.1-0.1,0.1-0.1,0.1c-0.1,0.1-0.1,0.2-0.1,0.3c0,0,0,0,0.1,0
				c0,0,0,0,0-0.1c0-0.1-0.1-0.1,0-0.2c0,0.1,0,0.1,0,0.2c0,0,0.1,0,0.1,0c0.1,0,0-0.1,0-0.2c0.1,0.1,0,0.2,0,0.2
				c-0.1,0-0.1,0.1-0.1,0.2c0,0,0.1,0.1,0,0.1c0,0-0.1,0-0.1,0c0,0-0.1,0-0.1,0c0,0-0.1,0-0.1,0c0,0,0,0,0.1-0.1
				c0,0,0.1-0.1,0.1-0.1c0,0-0.1,0-0.1,0.1c-0.1,0.1-0.1,0.1-0.2,0c-0.1,0-0.1-0.1-0.1-0.1c0-0.1,0-0.2-0.1-0.2
				c-0.1,0-0.1,0.1-0.1,0.1c0,0.1-0.2,0.2-0.3,0.1c-0.1,0-0.1-0.1,0-0.1c0.1,0,0.1-0.1,0.1-0.1c0-0.1,0-0.1-0.1-0.1
				c-0.1,0-0.1,0-0.1,0.1c0,0,0,0.1,0,0c0,0,0,0,0-0.1c0-0.1,0-0.1-0.1-0.1c-0.1,0-0.1,0-0.1,0.1c0,0.1,0,0.1,0,0.1c0,0,0.1,0,0.1,0
				c0,0,0,0,0,0c0,0.1-0.1,0.1-0.1,0.1c-0.1,0-0.2-0.1-0.2-0.2c-0.1,0-0.1,0.2,0,0.3c0,0,0.1,0,0.1,0.1c0,0.1-0.1,0.1-0.1,0.1
				c-0.1,0-0.1-0.1-0.1-0.2c0-0.1,0-0.1-0.1-0.1c-0.1,0-0.1,0.1-0.1,0.2c0,0.1,0,0.1-0.1,0.2c-0.1,0-0.1,0-0.2,0c0,0,0-0.1,0-0.1
				c0.1-0.1,0.1-0.2,0-0.3c-0.1,0-0.1-0.1-0.1-0.2c0-0.3,0.2-0.6,0.6-0.7c0.1,0,0.3,0,0.4,0l0,0c0,0,0,0.1-0.1,0.1
				c-0.3,0-0.6,0.1-0.8,0.4c0,0,0,0,0,0.1c0,0,0,0,0.1,0c0.2-0.1,0.4-0.1,0.7-0.1c0,0,0.1,0,0.1,0c0-0.1,0-0.1,0.1,0c0,0,0,0,0.1,0
				c0,0,0,0,0,0c0,0-0.1,0-0.1,0c0,0,0,0.1,0,0.1c0.1,0,0.1,0,0.2,0l0,0l0,0c0.3,0,0.5,0,0.8,0.1C128.5,47.6,128.3,47.4,127.8,47.4
				C127.9,47.4,127.8,47.4,127.8,47.4z M127.7,47.9c-0.1,0-0.1,0.1-0.1,0.1c0,0.1,0,0.1,0.1,0.1c0,0,0.1,0,0.1,0
				c0-0.1,0.1-0.1,0-0.2C127.7,47.9,127.7,47.9,127.7,47.9z"/>
			<path class="st9" d="M128.9,48.1c0-0.1,0.1-0.1,0-0.2l0,0c0.1,0,0.1,0,0.1-0.1l0,0c0.1,0,0.1,0,0.2,0.1c0.3,0.2,0.4,0.4,0.5,0.7
				c0,0,0,0.1,0,0.1c-0.1,0.1-0.1,0.2,0,0.3l0,0c-0.1,0.1-0.1,0-0.2,0c0,0-0.1-0.1,0-0.1c0.1-0.1,0-0.1,0-0.1c-0.1,0-0.1,0-0.2,0.1
				c0,0.1-0.1,0.1-0.2,0.1c-0.1,0-0.1-0.1-0.1-0.1c0-0.1,0.1,0,0.1-0.1c0.1,0,0.1-0.1,0.1-0.2C129,48.3,128.9,48.3,128.9,48.1
				c0,0.1,0.1,0.1,0.1,0.1c0,0,0-0.1,0-0.1C128.9,48.1,128.9,48.1,128.9,48.1z M129.1,48.1c0,0,0,0.1,0.1,0.1c0.1,0,0.2,0.1,0.3,0.1
				c0-0.1-0.2-0.3-0.3-0.3c0,0,0,0,0,0C129,48,129,48,129.1,48.1C129,48,129,48.1,129.1,48.1L129.1,48.1z"/>
			<path class="st9" d="M126.1,49.3C126.1,49.3,126.1,49.2,126.1,49.3c0.3-0.2,0.6-0.3,0.9-0.3C126.7,49,126.4,49.1,126.1,49.3z"/>
			<path class="st8" d="M127,49.1c-0.1,0.2-0.2,0.2-0.4,0.1C126.7,49.1,126.8,49.1,127,49.1z"/>
			<path class="st10" d="M126.6,48.6C126.6,48.6,126.6,48.6,126.6,48.6c-0.1,0-0.1-0.1-0.1-0.2c0,0,0.1,0,0.1,0c0,0,0.1,0.1,0.1,0.1
				l0,0c0,0,0,0.1,0,0.1l0,0C126.7,48.5,126.6,48.6,126.6,48.6z"/>
			<path class="st10" d="M128.9,48.4c0,0.1,0,0.1,0,0.2c0,0-0.1,0-0.1,0c-0.1,0,0-0.1,0-0.2l0,0C128.8,48.3,128.8,48.3,128.9,48.4
				L128.9,48.4C128.9,48.4,128.9,48.4,128.9,48.4L128.9,48.4z"/>
			<path class="st9" d="M127.5,48.7c0.1,0,0.1-0.1,0.2-0.2c0,0,0,0,0.1,0.1c0,0,0,0,0.1,0.1c0,0,0,0.1,0,0.1
				C127.7,48.8,127.7,48.8,127.5,48.7C127.5,48.8,127.5,48.7,127.5,48.7z"/>
			<path class="st9" d="M128.3,48.8c-0.1,0-0.2,0-0.2-0.1c0-0.1,0.1-0.1,0.1-0.1C128.3,48.6,128.3,48.7,128.3,48.8
				C128.4,48.8,128.3,48.8,128.3,48.8z"/>
			<path class="st9" d="M126.6,48.9C126.6,48.9,126.6,48.8,126.6,48.9c0.1-0.1,0-0.2,0.1-0.2c0.1,0,0.1,0.1,0.2,0.1c0,0,0,0,0,0.1
				C126.7,48.9,126.7,48.9,126.6,48.9z"/>
			<path class="st9" d="M127.1,48.8C127.1,48.8,127,48.8,127.1,48.8c0-0.1,0-0.2,0.1-0.2c0.1,0,0.2,0.1,0.2,0.1
				C127.3,48.8,127.2,48.7,127.1,48.8z"/>
			<path class="st8" d="M127.8,47.8L127.8,47.8L127.8,47.8C127.8,47.8,127.8,47.8,127.8,47.8C127.7,47.8,127.7,47.8,127.8,47.8
				c-0.1-0.1,0-0.1-0.1-0.2c0.1,0,0.1-0.1,0-0.2c0,0,0,0,0-0.1c0,0,0,0,0,0c0,0,0,0,0.1,0c0,0,0,0,0,0c0,0.1-0.1,0.1,0,0.2
				C127.9,47.7,127.8,47.7,127.8,47.8z"/>
			<path class="st9" d="M129.2,49c0,0-0.1,0-0.1-0.1c0,0,0.1-0.1,0.1-0.1C129.3,48.9,129.3,48.9,129.2,49
				C129.3,49,129.3,49.1,129.2,49z"/>
			<path class="st9" d="M126.2,49C126.1,49.1,126.1,49,126.2,49c-0.1-0.1,0-0.2,0-0.2c0,0,0.1,0,0.1,0.1C126.3,49,126.2,49,126.2,49
				z"/>
			<path class="st10" d="M126.9,47.3c0.1,0,0.2-0.1,0.2,0.1c0,0,0,0,0,0c0,0-0.1,0-0.1,0l0,0C126.9,47.3,126.9,47.3,126.9,47.3z"/>
			<path class="st10" d="M127.2,49c0.1,0,0.1,0.1,0.1,0.2c0-0.1-0.1,0-0.1-0.1l0,0C127.2,49.1,127.2,49.1,127.2,49L127.2,49
				C127.2,49.1,127.2,49,127.2,49z"/>
			<path class="st10" d="M128.3,47.4C128.3,47.4,128.3,47.4,128.3,47.4c0-0.1,0-0.1,0-0.1c0,0,0.1,0.1,0.1,0.1
				C128.4,47.4,128.4,47.4,128.3,47.4z"/>
			<path class="st10" d="M126.8,47.5c0,0-0.1,0,0-0.1c0,0,0.1,0,0.1,0C126.9,47.5,126.8,47.5,126.8,47.5
				C126.8,47.6,126.8,47.6,126.8,47.5z"/>
			<path class="st10" d="M128.7,47.6c0.1,0,0.1,0,0.1,0.1c0,0.1-0.1,0-0.1,0l0,0C128.7,47.7,128.7,47.7,128.7,47.6L128.7,47.6
				C128.7,47.6,128.7,47.6,128.7,47.6L128.7,47.6z"/>
			<path class="st10" d="M128.9,48.1c0,0,0.1-0.1,0.1,0c0,0,0,0.1,0,0.1C129,48.2,128.9,48.2,128.9,48.1
				C128.9,48.2,128.9,48.1,128.9,48.1z"/>
			<path class="st10" d="M128.5,47.5c0,0,0.1-0.1,0.1,0c0,0,0,0.1,0,0.1C128.6,47.6,128.6,47.5,128.5,47.5
				C128.5,47.5,128.5,47.5,128.5,47.5z"/>
			<path class="st9" d="M126.5,48.4c0,0.1,0,0.2,0.1,0.2c-0.1,0-0.1,0-0.1-0.1C126.4,48.5,126.4,48.4,126.5,48.4z"/>
			<path class="st10" d="M128,47.2c-0.1,0-0.1,0-0.1,0c0,0,0-0.1,0-0.1C128,47.1,128,47.2,128,47.2L128,47.2z"/>
			<path class="st9" d="M127.2,49.1c0,0,0.1,0,0.1,0.1C127.3,49.2,127.2,49.2,127.2,49.1z"/>
			<path class="st9" d="M127,47.4c0,0,0.1,0,0.1,0C127,47.4,127,47.5,127,47.4z"/>
			<path class="st9" d="M128.9,48.3c-0.1,0-0.1,0-0.2,0C128.8,48.3,128.8,48.3,128.9,48.3z"/>
			<path class="st9" d="M126.7,48.4c0,0-0.1-0.1-0.1-0.1C126.7,48.3,126.7,48.3,126.7,48.4z"/>
			<path class="st9" d="M126.6,48.6c0,0,0.1-0.1,0.1-0.1C126.7,48.6,126.7,48.6,126.6,48.6z"/>
			<path class="st9" d="M127.6,47.4c0-0.1,0.1-0.1,0.1,0c0,0,0,0,0,0C127.7,47.4,127.7,47.4,127.6,47.4L127.6,47.4z"/>
			<path class="st9" d="M126.7,48.5c0,0,0-0.1,0-0.1C126.8,48.4,126.8,48.5,126.7,48.5z"/>
			<path class="st9" d="M127.5,47.1c0,0,0,0.1,0,0.1l0,0C127.5,47.2,127.5,47.2,127.5,47.1L127.5,47.1z"/>
			<path class="st9" d="M126.5,48.1C126.6,48.1,126.6,48.2,126.5,48.1L126.5,48.1C126.5,48.2,126.5,48.1,126.5,48.1L126.5,48.1z"/>
			<path class="st9" d="M128.7,47.6C128.7,47.7,128.7,47.7,128.7,47.6C128.7,47.7,128.7,47.7,128.7,47.6z"/>
			<path class="st9" d="M127.2,49C127.2,49,127.2,49.1,127.2,49C127.2,49,127.2,49,127.2,49z"/>
			<path class="st9" d="M127.8,47.4C127.8,47.4,127.8,47.4,127.8,47.4C127.8,47.4,127.7,47.4,127.8,47.4
				C127.7,47.4,127.7,47.4,127.8,47.4C127.8,47.4,127.8,47.4,127.8,47.4z"/>
			<path class="st9" d="M127.2,49.1C127.2,49.1,127.2,49.1,127.2,49.1C127.1,49.1,127.1,49.1,127.2,49.1z"/>
			<path class="st9" d="M127.5,47.1C127.5,47.1,127.5,47.1,127.5,47.1L127.5,47.1C127.5,47.2,127.5,47.1,127.5,47.1L127.5,47.1z"/>
			<path class="st9" d="M128.7,47.6C128.7,47.6,128.7,47.6,128.7,47.6C128.7,47.6,128.7,47.6,128.7,47.6z"/>
			<path class="st9" d="M128.9,48.4C128.9,48.4,128.9,48.4,128.9,48.4C128.9,48.3,128.9,48.4,128.9,48.4z"/>
			<path class="st9" d="M126.5,48.1C126.5,48.1,126.5,48.1,126.5,48.1L126.5,48.1C126.5,48.1,126.5,48.1,126.5,48.1L126.5,48.1z"/>
			<path class="st7" d="M124.4,53.2C124.4,53.1,124.4,53.1,124.4,53.2c0-0.4,0-0.7,0-1c0-0.2,0.1-0.5,0.2-0.7c0,0,0,0,0,0
				c0.1-0.2,0.2-0.3,0.3-0.5l0,0c0,0,0.1-0.1,0.1-0.1l0,0l0,0c0.1-0.1,0.1-0.1,0.2-0.2l0,0c0,0,0,0,0,0c0,0,0,0,0,0
				c0,0,0.1-0.1,0.1-0.1l0,0c0,0,0,0,0.1-0.1l0,0c0,0,0,0,0,0c0,0,0,0,0,0c0,0,0,0,0,0c0,0,0,0,0,0l0,0c0.1,0,0.1-0.1,0.1-0.1
				c0,0,0,0,0,0c0.1-0.1,0.3-0.2,0.4-0.3l0,0c0.3-0.1,0.6-0.3,0.9-0.4c0.8-0.2,1.7-0.1,2.4,0.3c1.1,0.6,1.7,1.6,1.7,2.9
				c0,1.5-1.1,2.9-2.5,3.2c-1.8,0.4-3.6-0.7-4-2.5C124.4,53.3,124.4,53.3,124.4,53.2z M126.5,55.5L126.5,55.5L126.5,55.5
				C126.5,55.5,126.5,55.5,126.5,55.5c0.4,0.2,0.7,0.3,1.1,0.2c0.1,0,0.2,0,0.3,0c0.1,0,0.1,0,0.2,0c0,0,0,0,0.1,0
				c0.1,0,0.3,0,0.4-0.1c0,0,0.1,0,0.1,0c0,0,0,0,0,0l0,0l0,0c0,0,0,0,0.1,0c0,0,0,0,0,0c0,0,0.1,0,0.1,0c0,0,0,0,0,0
				c0,0,0.1,0,0.1,0c0,0,0,0,0,0c0.1,0,0.1,0,0.1-0.1l0,0l0,0c0,0,0.1,0,0.1-0.1l0,0c0,0,0.1,0,0.1,0c0,0,0,0,0,0c0,0,0.1,0,0.1,0
				c0,0,0,0,0,0c0,0,0,0,0.1,0l0,0c0,0,0,0,0,0l0,0c0.1,0,0.1-0.1,0.2-0.1l0,0c0,0,0,0,0,0l0,0l0,0c0.1,0,0.1-0.1,0.2-0.2
				c0,0,0,0,0,0l0,0l0,0c0,0,0,0,0-0.1c0,0,0.1,0,0.1-0.1l0,0l0,0c0,0,0,0,0-0.1l0,0c0,0,0,0,0,0c0,0,0,0,0,0c0,0,0.1-0.1,0.1-0.1
				l0,0c0,0,0.1-0.1,0.1-0.1l0,0l0,0c0.1,0,0.1-0.1,0.1-0.2l0,0l0,0c0.2-0.3,0.2-0.5,0.3-0.8c0,0,0-0.1,0-0.1c0.1-0.3,0.1-0.6,0-0.9
				c0,0,0-0.1,0-0.1c0-0.2-0.1-0.4-0.2-0.6l0,0c0,0,0-0.1,0-0.1c-0.6-1.2-1.9-1.9-3.2-1.7c-1.9,0.3-3,2.3-2.3,4.1
				c0.2,0.5,0.5,0.9,1,1.2c0,0,0,0,0,0c0,0,0,0.1,0.1,0c0.1,0.1,0.1,0.1,0.2,0.1c0,0,0,0,0.1,0c0,0,0.1,0,0.1,0
				C126.4,55.4,126.4,55.4,126.5,55.5L126.5,55.5C126.5,55.5,126.5,55.5,126.5,55.5L126.5,55.5L126.5,55.5z"/>
			<path class="st7" d="M128.9,49.5c-0.3-0.1-0.6-0.2-1-0.2c-0.1-0.1-0.2,0-0.3-0.1c0.1,0,0.1,0,0.1,0c0,0,0.1,0,0.1-0.1
				c0,0-0.1,0-0.1-0.1c0,0,0,0-0.1,0c0.1,0,0.2,0,0.3,0c0.4,0,0.7,0.1,1,0.3c0,0,0,0,0,0c0,0,0.1,0.1,0,0.1c0,0,0,0-0.1,0l0,0
				c0-0.1-0.1-0.1-0.2,0C128.9,49.3,128.9,49.4,128.9,49.5c0.1,0,0.2,0,0.2-0.1l0,0c0,0,0,0,0.1,0.1C129.1,49.6,129,49.4,128.9,49.5
				z M128.8,49.2c-0.1-0.1-0.2-0.2-0.4-0.1c0,0-0.1,0-0.1,0c0,0,0,0,0,0C128.5,49.3,128.7,49.3,128.8,49.2z M128.1,49
				C128.1,49,128,49.1,128.1,49c0,0.1,0,0.2,0.1,0.2c0,0,0.1,0,0.1-0.1C128.2,49.1,128.2,49.1,128.1,49z"/>
			<path class="st7" d="M129.6,49c-0.1-0.1-0.1-0.2,0-0.3c0,0,0.1-0.1,0-0.1c0-0.3-0.2-0.6-0.5-0.7c-0.1,0-0.1,0-0.2-0.1
				c0-0.1-0.1,0-0.1-0.1c0.1-0.1,0.2,0,0.3,0c0,0.1,0.1,0.1,0.1,0l0,0c0,0,0.1,0,0,0.1c0,0.1,0,0.1,0.1,0.1l0,0l0,0
				c0.1,0,0.1,0,0.1,0c0,0,0,0.1,0,0.1l0,0c0,0.1,0.1,0,0.1,0c0,0-0.1,0.1,0,0.1l0,0c0,0,0,0,0,0c0,0,0,0.1,0,0.1c0,0,0,0,0,0
				c0,0,0.1,0,0,0.1c-0.1,0-0.1,0.1,0,0.1l0,0c0,0.1,0.1,0.1,0.1,0c0,0,0.1,0,0.1,0c0,0,0,0.1,0,0.1c0,0-0.1,0-0.1,0
				c-0.1,0-0.1,0-0.2,0l0,0c-0.1,0-0.1,0-0.1,0.1C129.6,48.9,129.6,49,129.6,49z"/>
			<path class="st10" d="M129.7,48.8c0.2,0,0.2,0,0.2,0.1c0,0.1,0,0.1-0.1,0.1C129.7,49,129.6,49,129.7,48.8
				C129.6,48.8,129.7,48.8,129.7,48.8L129.7,48.8z"/>
			<path class="st10" d="M129.7,48.6C129.7,48.6,129.7,48.6,129.7,48.6c0-0.1,0-0.1,0.1-0.1c0,0,0.1,0,0.1,0.1
				C129.8,48.6,129.8,48.6,129.7,48.6C129.7,48.6,129.7,48.6,129.7,48.6L129.7,48.6z"/>
			<path class="st10" d="M129.3,47.8C129.3,47.8,129.3,47.8,129.3,47.8c-0.1,0-0.1,0-0.1-0.1c0,0,0-0.1,0.1-0.1
				C129.3,47.7,129.3,47.7,129.3,47.8C129.3,47.8,129.3,47.8,129.3,47.8L129.3,47.8z"/>
			<path class="st10" d="M129,47.9C129,47.9,128.9,48,129,47.9c-0.1,0.1-0.1,0-0.1,0C128.9,47.8,128.9,47.8,129,47.9z"/>
			<path class="st10" d="M128.1,47.3c0-0.1-0.1-0.1,0-0.1C128.2,47.2,128.2,47.2,128.1,47.3C128.2,47.3,128.2,47.3,128.1,47.3
				L128.1,47.3z"/>
			<path class="st10" d="M129.5,48L129.5,48L129.5,48C129.4,48,129.4,48,129.5,48c-0.1-0.1-0.1-0.1-0.1-0.1c0,0,0,0,0.1,0
				C129.5,47.9,129.5,47.9,129.5,48C129.5,48,129.5,48,129.5,48z"/>
			<path class="st10" d="M129.7,48.4C129.7,48.4,129.7,48.4,129.7,48.4c0-0.1,0-0.1,0-0.1l0,0C129.7,48.3,129.8,48.2,129.7,48.4
				C129.8,48.4,129.8,48.4,129.7,48.4z"/>
			<path class="st10" d="M129.1,49.3L129.1,49.3C129.1,49.3,129.1,49.4,129.1,49.3L129.1,49.3c0,0.1-0.1,0.1-0.1,0.1c0,0,0,0,0-0.1
				C129,49.3,129.1,49.3,129.1,49.3z"/>
			<path class="st10" d="M129.6,48.1C129.6,48.1,129.5,48.1,129.6,48.1c0-0.1,0-0.1,0.1-0.1c0,0,0,0,0,0.1
				C129.7,48.2,129.6,48.1,129.6,48.1L129.6,48.1z"/>
			<path class="st7" d="M125.5,48.8c-0.1-0.1,0-0.1,0-0.2c0,0,0,0,0.1,0l0,0c0,0.1,0.1,0.1,0.1,0c0,0,0.1-0.1,0-0.1
				c0,0-0.1-0.1,0-0.1c0,0,0,0,0.1,0c0.1-0.1,0-0.2,0-0.2c0.1,0,0.1,0,0.1-0.1c0,0,0-0.1,0-0.1c0.1,0,0.1,0,0.1-0.2
				c0.1,0,0.2,0.1,0.2,0l0,0c0.1-0.1,0.1,0,0.2,0c0,0.1-0.1,0.1-0.2,0.1c-0.3,0.1-0.4,0.4-0.5,0.7c0,0.1,0,0.1,0.1,0.2
				c0.1,0.1,0.1,0.1,0,0.2C125.8,48.7,125.7,48.7,125.5,48.8z"/>
			<path class="st10" d="M126,48.3c0.1-0.2,0.2-0.2,0.3-0.3c0,0,0,0,0.1,0c0,0,0,0,0,0c-0.1,0.1-0.1,0.2-0.2,0.2
				C126.1,48.2,126,48.2,126,48.3z"/>
			<path class="st10" d="M125.6,49C125.5,49,125.5,49,125.6,49c0-0.1,0-0.2,0-0.2c0.1,0,0.1,0,0.1,0c0,0,0.1,0.1,0,0.1
				c0,0,0,0.1-0.1,0.1C125.6,49,125.6,49,125.6,49z"/>
			<path class="st10" d="M125.7,48.5c0.1,0,0,0.1,0,0.1c0,0-0.1,0-0.1,0l0,0C125.5,48.5,125.6,48.5,125.7,48.5z"/>
			<path class="st10" d="M125.6,48.4c0,0,0-0.1,0-0.1c0,0,0,0,0,0c0,0,0,0,0,0l0,0l0,0l0,0c0,0,0.1,0,0.1,0.1
				C125.7,48.4,125.6,48.3,125.6,48.4z"/>
			<path class="st10" d="M126.5,47.8C126.5,47.8,126.6,47.8,126.5,47.8c0.1,0.1,0,0.1,0,0.1C126.5,48,126.5,47.9,126.5,47.8
				C126.4,47.9,126.5,47.8,126.5,47.8z"/>
			<path class="st10" d="M126.2,47.8c0,0-0.1,0-0.1,0C126.1,47.7,126.1,47.7,126.2,47.8C126.2,47.7,126.2,47.7,126.2,47.8
				L126.2,47.8z"/>
			<path class="st10" d="M126,47.9C125.9,47.9,125.9,47.9,126,47.9c-0.1-0.1,0-0.1,0-0.1C126,47.8,126,47.9,126,47.9
				C126,47.9,126,47.9,126,47.9z"/>
			<path class="st10" d="M126.5,47.6C126.4,47.7,126.4,47.7,126.5,47.6c-0.1,0.1-0.1,0-0.1,0C126.3,47.6,126.4,47.6,126.5,47.6
				C126.4,47.6,126.5,47.6,126.5,47.6z"/>
			<path class="st10" d="M126.7,47.7C126.7,47.7,126.7,47.7,126.7,47.7c-0.1,0.1-0.1,0-0.1,0C126.6,47.6,126.6,47.6,126.7,47.7
				C126.7,47.6,126.7,47.6,126.7,47.7z"/>
			<path class="st10" d="M125.8,48C125.8,48,125.8,48,125.8,48c0.1,0.1,0.1,0.1,0,0.1C125.8,48.1,125.7,48.1,125.8,48
				C125.7,48,125.7,48,125.8,48z"/>
			<path class="st10" d="M126.5,48.1C126.5,48.1,126.5,48.1,126.5,48.1C126.5,48.1,126.5,48.2,126.5,48.1
				C126.5,48.2,126.4,48.2,126.5,48.1C126.4,48.1,126.4,48.1,126.5,48.1z"/>
			<path class="st7" d="M125.6,49c0,0,0.1,0,0.1,0C125.6,49.1,125.6,49.1,125.6,49L125.6,49C125.5,49,125.5,49,125.6,49z"/>
			<path class="st7" d="M125.5,48.9C125.5,48.9,125.5,48.9,125.5,48.9C125.5,48.9,125.5,49,125.5,48.9L125.5,48.9
				C125.5,49,125.5,49,125.5,48.9z"/>
			<path class="st7" d="M126.6,47.8C126.5,47.8,126.5,47.8,126.6,47.8C126.5,47.8,126.5,47.8,126.6,47.8
				C126.6,47.7,126.6,47.8,126.6,47.8C126.6,47.8,126.6,47.8,126.6,47.8z"/>
			<path class="st8" d="M125.7,48.2C125.7,48.3,125.6,48.3,125.7,48.2C125.6,48.2,125.6,48.2,125.7,48.2z"/>
			<polygon class="st7" points="125.8,49 125.8,49 125.8,49 			"/>
			<path class="st8" d="M125.7,48.2L125.7,48.2L125.7,48.2C125.7,48.2,125.7,48.2,125.7,48.2z"/>
			<path class="st10" d="M127.2,47.2C127.3,47.2,127.3,47.2,127.2,47.2c0.1,0.1,0,0.1,0,0.1C127.2,47.3,127.2,47.3,127.2,47.2
				C127.2,47.2,127.2,47.2,127.2,47.2z"/>
			<path class="st10" d="M127.5,47.1C127.5,47.1,127.5,47.2,127.5,47.1c0,0.1,0,0.1,0,0.1C127.5,47.3,127.4,47.3,127.5,47.1
				C127.4,47.1,127.4,47.1,127.5,47.1z"/>
			<path class="st10" d="M126.3,49.4C126.3,49.4,126.3,49.3,126.3,49.4c0-0.1,0-0.1,0.1-0.1c0,0,0,0,0,0.1
				C126.4,49.4,126.4,49.4,126.3,49.4C126.3,49.4,126.3,49.4,126.3,49.4L126.3,49.4z"/>
			<path class="st8" d="M124.9,50.9c-0.1,0.2-0.2,0.3-0.3,0.5C124.7,51.2,124.8,51,124.9,50.9z"/>
			<path class="st8" d="M125.2,50.6c0,0.1-0.1,0.2-0.2,0.2c0-0.1,0-0.1,0-0.2C125.1,50.7,125.1,50.6,125.2,50.6z"/>
			<path class="st8" d="M125,50.8C125,50.9,125,50.9,125,50.8C124.9,50.9,124.9,50.8,125,50.8z"/>
			<path class="st8" d="M126,49.9c-0.1,0.1-0.3,0.2-0.4,0.3c0,0,0-0.1,0-0.1c0.1,0,0.2-0.1,0.2-0.1C125.9,49.9,125.9,49.9,126,49.9z
				"/>
			<path class="st8" d="M125.6,50.2c0,0.1-0.1,0.1-0.1,0.1C125.4,50.2,125.5,50.2,125.6,50.2z"/>
			<path class="st8" d="M125.3,50.5c0,0.1-0.1,0.1-0.1,0.1C125.2,50.5,125.2,50.5,125.3,50.5z"/>
			<path class="st8" d="M125.3,50.4C125.3,50.4,125.3,50.4,125.3,50.4C125.3,50.4,125.3,50.4,125.3,50.4z"/>
			<path class="st8" d="M125.4,50.3C125.4,50.3,125.4,50.4,125.4,50.3C125.4,50.3,125.4,50.3,125.4,50.3z"/>
			<path class="st8" d="M125.4,50.4C125.4,50.4,125.4,50.4,125.4,50.4C125.3,50.4,125.4,50.4,125.4,50.4z"/>
			<path class="st8" d="M125.2,50.6C125.2,50.6,125.2,50.6,125.2,50.6C125.2,50.6,125.2,50.6,125.2,50.6z"/>
			<path class="st10" d="M127.7,47.4C127.7,47.4,127.8,47.4,127.7,47.4C127.8,47.4,127.8,47.4,127.7,47.4c0,0.1-0.1,0.1-0.1,0.1
				c-0.1,0-0.1,0-0.1,0.1c0,0,0,0.1,0.1,0.1c0,0,0.1,0,0.1,0c0,0,0,0.1,0,0.1c0,0-0.1,0-0.1,0c-0.1-0.1-0.1-0.1-0.1,0
				c0,0.1,0,0-0.1,0c-0.2,0-0.5,0-0.7,0.1c0,0,0,0-0.1,0c0,0,0,0,0-0.1c0.2-0.3,0.4-0.4,0.8-0.4C127.6,47.4,127.6,47.4,127.7,47.4
				C127.7,47.4,127.7,47.4,127.7,47.4z"/>
			<path class="st10" d="M127.8,47.8c0-0.1,0-0.1,0-0.2c0-0.1,0-0.1,0-0.2c0.4,0,0.7,0.2,0.8,0.5C128.4,47.8,128.1,47.8,127.8,47.8z
				"/>
			<path class="st10" d="M127.8,48.4C127.8,48.4,127.8,48.4,127.8,48.4c-0.1,0.1-0.1,0.1-0.2,0c0,0-0.1-0.1,0-0.1
				c0,0,0.1-0.1,0.1-0.1C127.8,48.2,127.8,48.2,127.8,48.4C127.8,48.3,127.8,48.4,127.8,48.4L127.8,48.4z"/>
			<path class="st8" d="M127.8,47.9c0.1,0,0,0.1,0,0.2c0,0.1-0.1,0-0.1,0c-0.1,0-0.1,0-0.1-0.1c0,0,0-0.1,0.1-0.1c0,0.1,0,0.1,0,0.1
				C127.8,48,127.8,48,127.8,47.9z"/>
			<path class="st10" d="M127.8,47.9c0,0.1,0,0.1-0.1,0.1c-0.1,0-0.1-0.1,0-0.1C127.7,47.9,127.7,47.9,127.8,47.9z"/>
			<path class="st7" d="M127.7,47.8C127.8,47.8,127.8,47.8,127.7,47.8C127.8,47.9,127.7,47.8,127.7,47.8
				C127.6,47.8,127.6,47.8,127.7,47.8C127.7,47.8,127.7,47.8,127.7,47.8z"/>
			<path class="st10" d="M129,48C129,47.9,129,47.9,129,48c0.1,0,0.4,0.2,0.4,0.3c-0.1,0-0.2-0.1-0.3-0.1c0,0,0-0.1-0.1-0.1l0,0
				C129.1,48,129,48,129,48z"/>
			<path class="st8" d="M129,48c0,0,0,0.1,0,0.1C129,48.1,129,48,129,48C129,48,129,48,129,48z"/>
			<path class="st8" d="M129.1,48.1c0,0,0,0.1,0.1,0.1C129,48.2,129.1,48.1,129.1,48.1z"/>
			<path class="st9" d="M127.7,47.6C127.7,47.6,127.7,47.6,127.7,47.6c-0.1,0-0.2,0-0.2-0.1c0,0,0-0.1,0.1-0.1c0,0,0.1,0,0.1,0
				C127.8,47.5,127.8,47.6,127.7,47.6z"/>
			<path class="st8" d="M125.9,55.1c-0.5-0.3-0.8-0.7-1-1.2c-0.7-1.8,0.4-3.8,2.3-4.1c1.3-0.2,2.6,0.5,3.2,1.7c0,0,0,0.1,0,0.1
				c-0.1,0,0-0.1-0.1-0.1c0,0,0,0,0,0.1c0,0,0,0,0-0.1c-0.6-1.1-1.7-1.7-2.9-1.6c-1.5,0.1-2.6,1.4-2.6,2.8c0,0.3,0,0.5,0.1,0.8
				c0.1,0.2,0.1,0.4,0.3,0.6c0.2,0.3,0.5,0.6,0.8,0.9c0,0-0.1,0-0.1,0C125.8,55,125.9,55.1,125.9,55.1
				C125.9,55.1,125.9,55.1,125.9,55.1z"/>
			<path class="st11" d="M130.3,51.5C130.3,51.5,130.3,51.5,130.3,51.5c0.1,0,0.1,0,0.1,0.1l0,0c0,0,0,0.1,0,0.1
				c0.1,0.2,0.1,0.3,0.1,0.5c0,0,0,0,0,0.1c0,0,0,0.1,0,0.1c0,0.1,0,0.1,0,0.2c0,0.2,0,0.4,0,0.5c0,0,0,0.1,0,0.1c0,0,0,0.1,0,0.1
				c-0.1,0-0.1,0.1-0.1,0.1c0,0.2-0.1,0.3-0.2,0.5c0,0.1-0.1,0.1-0.1,0.2l0,0l0,0c-0.1,0-0.1,0.1-0.1,0.2l0,0l0,0
				c-0.1,0-0.1,0.1-0.1,0.1l0,0c-0.1,0-0.1,0.1-0.1,0.1c0,0,0,0,0,0c0,0,0,0,0,0l0,0c0,0-0.1,0,0,0.1l0,0l0,0c0,0-0.1,0-0.1,0.1
				c0,0,0,0,0,0.1l0,0c0,0,0,0,0,0c-0.1,0-0.1,0.1-0.2,0.2l0,0c0,0,0,0,0,0c0,0,0,0,0,0l0,0c-0.1,0-0.1,0-0.2,0.1l0,0c0,0,0,0,0,0
				l0,0c0,0-0.1,0-0.1,0c0,0,0,0,0,0c0,0-0.1,0-0.1,0c0,0,0,0,0,0c0,0-0.1,0-0.1,0l0,0c0,0-0.1,0-0.1,0.1l0,0l0,0
				c-0.1,0-0.1,0-0.1,0.1c0,0,0,0,0,0c0,0-0.1,0-0.1,0c0,0,0,0,0,0c0,0-0.1,0-0.1,0c0,0,0,0,0,0c0,0,0,0-0.1,0l0,0l0,0c0,0,0,0,0,0
				c0,0-0.1,0-0.1,0c-0.1,0-0.3,0-0.4,0.1c0,0,0,0-0.1,0c-0.1,0-0.1,0-0.2,0c-0.1,0-0.2,0-0.3,0c0,0,0,0-0.1,0c-0.1,0-0.3,0-0.4,0
				c-0.2,0-0.3-0.1-0.5-0.1c0,0,0,0-0.1,0l0,0l0,0l0,0c0,0,0,0,0,0l0,0c0,0,0,0-0.1,0c0,0-0.1,0-0.1,0c0,0,0,0-0.1,0
				c-0.1,0-0.2-0.1-0.2-0.1c0,0,0-0.1-0.1,0c0,0,0,0,0,0c0,0,0,0,0-0.1c0,0-0.1,0,0-0.1c0,0,0,0,0.1,0l0,0c0,0,0,0,0,0
				c0.1,0.1,0.3,0.2,0.4,0.2c0.6,0.3,1.2,0.4,1.9,0.3c0.3-0.1,0.6-0.2,0.9-0.3c0.3-0.2,0.5-0.4,0.7-0.6c0,0,0,0,0-0.1
				c0.1-0.1,0.2-0.3,0.3-0.4c0.1-0.2,0.2-0.4,0.2-0.6c0-0.2,0.1-0.4,0.1-0.6C130.6,52.4,130.5,52,130.3,51.5z"/>
			<path class="st8" d="M126.6,55.5c0.2,0,0.3,0.1,0.5,0.1c0.1,0,0.3,0.1,0.4,0c0,0,0.1,0,0.1,0C127.2,55.7,126.9,55.6,126.6,55.5z"
				/>
			<path class="st8" d="M130.6,53.2c0,0,0-0.1,0-0.1c0-0.2,0-0.4,0-0.5c0-0.1,0-0.1,0-0.2C130.7,52.6,130.7,52.9,130.6,53.2z"/>
			<path class="st8" d="M130.3,54.1c0-0.1,0-0.1,0.1-0.2c0.1-0.2,0.1-0.3,0.2-0.5c0-0.1,0-0.1,0.1-0.1
				C130.6,53.6,130.5,53.8,130.3,54.1z"/>
			<path class="st8" d="M130.6,52.2C130.6,52.2,130.6,52.2,130.6,52.2c-0.1-0.2-0.1-0.4-0.2-0.6c0,0,0-0.1,0-0.1
				C130.6,51.8,130.6,52,130.6,52.2z"/>
			<path class="st8" d="M128.1,55.7c0.1-0.1,0.3-0.1,0.4-0.1C128.3,55.7,128.2,55.7,128.1,55.7z"/>
			<path class="st8" d="M129.7,54.9c0-0.1,0.1-0.1,0.2-0.2C129.8,54.8,129.8,54.9,129.7,54.9z"/>
			<path class="st8" d="M129.5,55.1c0-0.1,0.1-0.1,0.2-0.1C129.6,55,129.6,55.1,129.5,55.1z"/>
			<path class="st8" d="M130.2,54.3c0-0.1,0-0.1,0.1-0.2C130.3,54.2,130.3,54.2,130.2,54.3z"/>
			<path class="st8" d="M127.9,55.7c0,0,0.1,0,0.2,0C128,55.7,127.9,55.7,127.9,55.7z"/>
			<path class="st8" d="M129,55.4c0-0.1,0.1-0.1,0.1-0.1C129.1,55.4,129,55.4,129,55.4z"/>
			<path class="st8" d="M130.1,54.5c0-0.1,0-0.1,0.1-0.1C130.2,54.4,130.1,54.5,130.1,54.5z"/>
			<path class="st8" d="M129.1,55.3c0-0.1,0.1-0.1,0.1-0.1C129.2,55.3,129.2,55.3,129.1,55.3z"/>
			<path class="st8" d="M128.8,55.5c0-0.1,0.1-0.1,0.1,0C128.9,55.5,128.9,55.5,128.8,55.5z"/>
			<path class="st8" d="M128.7,55.5C128.7,55.5,128.8,55.5,128.7,55.5C128.8,55.5,128.7,55.5,128.7,55.5z"/>
			<path class="st8" d="M130.2,54.4C130.2,54.3,130.2,54.3,130.2,54.4C130.2,54.3,130.2,54.4,130.2,54.4z"/>
			<path class="st8" d="M130,54.6C130,54.6,130,54.6,130,54.6C130,54.6,130,54.6,130,54.6z"/>
			<path class="st8" d="M129.9,54.7C129.9,54.6,130,54.6,129.9,54.7C130,54.7,130,54.7,129.9,54.7z"/>
			<path class="st8" d="M125.9,55.1C126,55.1,126,55.1,125.9,55.1C126,55.2,125.9,55.2,125.9,55.1z"/>
			<path class="st8" d="M129.4,55.2C129.4,55.1,129.4,55.1,129.4,55.2C129.4,55.2,129.4,55.2,129.4,55.2z"/>
			<path class="st8" d="M129.3,55.2C129.3,55.2,129.3,55.2,129.3,55.2C129.4,55.2,129.4,55.2,129.3,55.2z"/>
			<path class="st8" d="M129.2,55.3C129.2,55.2,129.3,55.2,129.2,55.3C129.3,55.3,129.3,55.3,129.2,55.3z"/>
			<path class="st8" d="M126.2,55.3C126.3,55.3,126.3,55.3,126.2,55.3C126.3,55.4,126.2,55.3,126.2,55.3z"/>
			<path class="st8" d="M126.4,55.4C126.4,55.4,126.4,55.4,126.4,55.4C126.4,55.4,126.4,55.4,126.4,55.4z"/>
			<path class="st8" d="M128.6,55.6C128.6,55.5,128.7,55.5,128.6,55.6C128.7,55.6,128.6,55.6,128.6,55.6z"/>
			<path class="st8" d="M126.4,55.4C126.5,55.4,126.5,55.5,126.4,55.4C126.5,55.5,126.5,55.5,126.4,55.4z"/>
			<path class="st8" d="M129.5,55.1C129.5,55.1,129.5,55.1,129.5,55.1C129.5,55.1,129.5,55.1,129.5,55.1z"/>
			<path class="st8" d="M129.7,55C129.7,55,129.7,54.9,129.7,55C129.7,55,129.7,55,129.7,55z"/>
			<path class="st8" d="M130.1,54.6C130.1,54.5,130.1,54.5,130.1,54.6C130.1,54.5,130.1,54.6,130.1,54.6z"/>
			<polygon class="st8" points="126.5,55.5 126.5,55.5 126.5,55.5 			"/>
			<path class="st8" d="M128.6,55.6C128.6,55.6,128.6,55.6,128.6,55.6C128.6,55.6,128.6,55.6,128.6,55.6z"/>
			<polygon class="st8" points="129.9,54.7 129.9,54.7 129.9,54.8 			"/>
			<path class="st8" d="M128.8,49.2c-0.2,0.1-0.3,0-0.4-0.1c0,0,0,0,0,0c0,0,0,0,0.1,0C128.6,49.1,128.7,49.1,128.8,49.2z"/>
			<path class="st9" d="M128.1,49c0,0,0.1,0.1,0.1,0.1c0,0,0,0.1-0.1,0.1C128.1,49.2,128.1,49.2,128.1,49
				C128,49.1,128.1,49,128.1,49z"/>
			<path class="st9" d="M129.1,49.3c0,0-0.1,0-0.1,0c0,0,0,0,0,0.1C129,49.4,129.1,49.4,129.1,49.3c0,0.2-0.1,0.2-0.1,0.1
				c0,0-0.1-0.1,0-0.1C129,49.2,129.1,49.2,129.1,49.3z"/>
			<path class="st9" d="M129.7,48.3C129.7,48.3,129.7,48.3,129.7,48.3C129.6,48.3,129.6,48.3,129.7,48.3
				C129.6,48.3,129.6,48.3,129.7,48.3z"/>
			<path class="st9" d="M125.6,48.6C125.6,48.6,125.6,48.6,125.6,48.6C125.6,48.7,125.6,48.7,125.6,48.6z"/>
			<path class="st10" d="M129.9,54.6c-0.2,0.2-0.5,0.4-0.7,0.6c-0.3,0.2-0.6,0.3-0.9,0.3c-0.6,0.1-1.3,0-1.9-0.3
				c-0.1-0.1-0.3-0.1-0.4-0.2c0,0,0,0,0,0l0,0c-0.3-0.3-0.6-0.6-0.8-0.9c-0.1-0.2-0.2-0.4-0.3-0.6c-0.1-0.3-0.1-0.5-0.1-0.8
				c0-1.4,1.1-2.7,2.6-2.8c1.2-0.1,2.3,0.5,2.9,1.6c0,0,0,0,0,0.1c0.2,0.4,0.3,0.9,0.3,1.3c0,0.2-0.1,0.4-0.1,0.6
				c0,0.2-0.1,0.4-0.2,0.6C130.1,54.3,130,54.4,129.9,54.6C129.9,54.6,129.9,54.6,129.9,54.6z M125.6,52L125.6,52L125.6,52
				C125.6,52,125.6,52.1,125.6,52L125.6,52c0.2,0.2,0.2,0.3,0.2,0.4c-0.1,0.8,0.3,1.7,1.1,2c0.3,0.1,0.3,0.2,0.3,0.5
				c0,0.1,0,0.1,0.1,0.1c0.1,0,0.2,0,0.2,0c0.2,0,0.2,0,0.2-0.2c0-0.2,0-0.2,0.2-0.2c0.1,0,0.1,0,0.2,0c0.2,0.2,0.5,0.5,0.7,0.7
				c0,0,0.1,0.1,0.1,0c0.4-0.2,0.7-0.4,0.9-0.7c0.2-0.2,0.3-0.4,0.4-0.6c0.1-0.2,0.2-0.5,0.2-0.8c0.1-0.4,0-0.8-0.1-1.1
				c0-0.1-0.1-0.3-0.2-0.4l0,0c-0.1-0.2-0.2-0.3-0.3-0.5c0,0,0,0,0,0c-0.1-0.1-0.1-0.2-0.2-0.3l0,0c0-0.1-0.1-0.1-0.1-0.1
				c0,0,0,0-0.1,0c-0.1-0.1-0.1-0.1-0.2-0.2l0,0c0-0.1-0.1-0.1-0.2-0.1c0,0,0,0-0.1-0.1c0-0.1-0.1-0.1-0.1,0c0,0.1-0.1,0.1-0.1,0.2
				c0,0,0,0-0.1,0.1l0,0c-0.1,0.1-0.2,0.2-0.3,0.3c-0.1,0.1-0.1,0.1-0.2,0c-0.4-0.1-0.8-0.1-1.1,0c-0.1,0-0.1,0-0.2,0
				c-0.2-0.2-0.3-0.4-0.5-0.5c0,0-0.1-0.1-0.1,0c-0.9,0.5-1.4,1.3-1.4,2.4c0,0.3,0,0.6,0.1,0.9c0.1,0.4,0.3,0.7,0.6,1
				c0,0,0.1,0.1,0.1,0c0.1-0.1,0.2-0.2,0.3-0.3c0.1-0.1,0.1-0.1,0-0.2c-0.3-0.3-0.4-0.6-0.5-1c-0.1-0.3,0-0.6,0-0.8c0,0,0,0,0,0
				C125.5,52.2,125.5,52.2,125.6,52C125.5,52.1,125.5,52,125.6,52C125.5,52,125.5,52,125.6,52C125.6,52,125.6,52,125.6,52L125.6,52
				L125.6,52z"/>
			<path class="st8" d="M125.9,55C125.9,55,126,55,125.9,55C125.9,55.1,125.9,55,125.9,55z"/>
			<path class="st8" d="M129.9,54.6C129.9,54.6,129.9,54.6,129.9,54.6C129.9,54.6,129.9,54.6,129.9,54.6z"/>
			<path class="st11" d="M129.8,54.5c-0.3,0.3-0.6,0.6-0.9,0.7c-0.1,0-0.1,0-0.1,0c-0.2-0.2-0.5-0.5-0.7-0.7c0-0.1,0.1-0.1,0.2-0.1
				c0.2-0.1,0.3-0.1,0.5-0.2c0.1-0.1,0.2-0.1,0.3-0.3c0,0,0,0,0,0c0.1,0,0.1,0,0.1-0.1c0-0.1-0.2-0.3-0.3-0.3c0,0-0.1,0-0.1,0
				c-0.1,0.1-0.2,0.2-0.3,0.3c0,0,0,0,0,0c0,0-0.1,0-0.1,0c-0.2,0.1-0.4,0.1-0.6,0.2c-0.1,0-0.1,0-0.1-0.1c0-0.3,0-0.3,0.3-0.3
				c0,0,0,0,0,0c0.3,0,0.3,0,0.3-0.3c0-0.1,0-0.1-0.1-0.1c-0.1,0-0.2,0-0.3,0c-0.1,0-0.1,0-0.1-0.1c0-0.1,0-0.1,0.1-0.1
				c0.1,0,0.2,0,0.2,0c0.2,0,0.2,0,0.2-0.2c0-0.2,0-0.2-0.2-0.2c-0.2,0-0.4,0-0.6,0c-0.2-0.1-0.3,0-0.2,0.1c0,0.2,0,0.5,0,0.7
				c0,0,0,0.1-0.1,0.1c-0.2-0.3-0.5-0.5-0.7-0.8c0,0,0-0.1-0.1,0c0,0,0,0,0-0.1c0-0.4,0.1-0.7,0.3-1c0,0,0.1-0.1,0.1-0.1
				c0,0,0,0,0,0c0,0,0.1,0,0.1-0.1l0,0c0.1-0.1,0.2,0,0.3,0.1c0.1,0.1,0.1,0.1,0.2,0.2c0.1,0.1,0.1,0.2,0.2,0.2l0,0
				c0,0.1,0.1,0.1,0.1,0.1l0,0c0,0.1,0,0.1,0.1,0.1c0.1,0,0.1,0,0.1-0.1c0.1-0.1,0.1-0.2,0.3-0.2c0.1,0.1,0.1,0.1,0.2,0.2
				c0,0.1,0.1,0.2,0.2,0.2l0,0c0,0.1,0.1,0.2,0.2,0.2c0,0,0,0,0,0c0,0.1,0.2,0.2,0.3,0.3l0,0c0,0,0,0,0,0l0,0c0,0,0,0,0,0l0,0
				c0,0.1,0,0.1,0.1,0.1l0,0c0,0,0,0,0,0l0,0c0,0,0,0,0,0c0,0,0,0,0,0c0,0.1,0.1,0.2,0.2,0.2c0,0.1,0,0.1,0.1,0.1c0,0,0,0,0,0
				c0,0,0,0,0,0c0,0,0,0,0,0.1c0,0,0,0.1,0,0.1c0,0,0.1-0.1,0.1,0c0,0,0,0.1,0,0.1c0,0.1-0.1,0.1-0.1,0.2c-0.1,0.1-0.1,0.2,0.1,0.3
				l0,0C129.6,54.4,129.7,54.5,129.8,54.5C129.8,54.5,129.8,54.5,129.8,54.5z"/>
			<path class="st8" d="M125.5,52.3c0,0.3-0.1,0.5,0,0.8c0.1,0.4,0.2,0.7,0.5,1c0.1,0.1,0.1,0.1,0,0.2c-0.1,0.1-0.2,0.2-0.3,0.3
				c0,0-0.1,0-0.1,0c-0.2-0.3-0.4-0.6-0.6-1c-0.1-0.3-0.1-0.6-0.1-0.9c0.1-1,0.5-1.8,1.4-2.4c0.1,0,0.1,0,0.1,0
				c0.2,0.2,0.3,0.4,0.5,0.5c0.1,0.1,0.1,0.1,0.2,0c0.4-0.1,0.8-0.1,1.1,0c0.1,0,0.1,0,0.2,0c0.1-0.1,0.2-0.2,0.3-0.3c0,0,0,0,0,0
				c0,0,0,0,0,0c0,0,0,0,0,0c0,0,0,0,0.1-0.1c0,0,0,0,0,0c0.1-0.1,0.2-0.1,0.2-0.2c0,0,0.1,0,0.1,0.1c0,0,0,0,0,0
				c0.1,0,0.1,0.1,0.2,0.1c0,0,0,0,0,0c0,0.1,0,0.1,0,0.1c0,0,0,0,0,0c-0.1-0.1-0.2-0.1-0.3-0.2c-0.1-0.1-0.1,0-0.2,0
				c-0.2,0.2-0.3,0.3-0.5,0.5c0,0.1-0.1,0.1-0.2,0c-0.4-0.1-0.8-0.1-1.2,0c-0.1,0-0.2,0-0.2-0.1c-0.2-0.2-0.3-0.3-0.5-0.5
				c-0.1-0.1-0.1-0.1-0.2,0c-0.2,0.1-0.4,0.3-0.5,0.4c-0.9,0.9-1,2.4-0.3,3.4c0.1,0.2,0.1,0.2,0.3,0c0.1-0.1,0.1-0.1,0-0.2
				c-0.4-0.5-0.5-1-0.5-1.6c0.1-0.7,0.4-1.2,0.9-1.6c0,0,0.1-0.1,0.1,0c0.1,0.1,0.2,0.1,0.2,0.2c0,0-0.1,0-0.1,0
				c-0.2-0.2-0.2-0.2-0.3,0c0,0,0,0,0,0c-0.2,0.2-0.4,0.4-0.5,0.7c0,0.1-0.1,0.2-0.1,0.3C125.5,52.2,125.5,52.2,125.5,52.3
				C125.5,52.3,125.4,52.3,125.5,52.3C125.4,52.3,125.4,52.3,125.5,52.3z"/>
			<path class="st8" d="M129,53.9c0,0.2-0.2,0.2-0.3,0.3c-0.1,0.1-0.3,0.2-0.5,0.2c-0.1,0-0.2,0-0.2,0.1c-0.1,0-0.1,0-0.2,0
				c-0.2,0-0.2,0-0.2,0.2c0,0.2,0,0.2-0.2,0.2c-0.1,0-0.2,0-0.2,0c-0.1,0-0.1,0-0.1-0.1c0-0.2,0-0.4-0.3-0.5c-0.8-0.3-1.2-1.2-1.1-2
				c0-0.1,0-0.2-0.1-0.3c0.1,0,0.1,0.1,0.2,0.1c0-0.1,0-0.1,0-0.2c0.1-0.1,0.2-0.2,0.2-0.4c0,0,0,0,0,0c0.1,0,0.1-0.1,0.1-0.1
				c0,0,0.1-0.1,0.1-0.1c0,0-0.1,0.1-0.1,0.1c-0.2,0.3-0.4,0.6-0.4,0.9c-0.1,0.8,0.3,1.5,1.1,1.8c0.2,0.1,0.4,0.2,0.3,0.5
				c0,0,0,0.1,0.1,0.1c0.3,0,0.3,0,0.3-0.2c0,0,0,0,0-0.1c0-0.1,0-0.1,0.1-0.1c0.1,0,0.2,0,0.3,0C128.4,54.3,128.7,54.2,129,53.9z"
				/>
			<path class="st11" d="M126.4,51.5c-0.1,0-0.1,0-0.1,0.1c0,0,0,0.1-0.1,0.1c0,0,0,0,0,0c0,0.2-0.1,0.3-0.2,0.4c0,0.1,0,0.1,0,0.2
				c-0.1,0-0.1-0.2-0.2-0.1l0,0c0-0.1,0-0.1-0.1-0.1l0,0l0,0c0,0,0,0,0,0c0,0,0,0,0,0c0,0,0,0,0,0c0,0,0,0,0,0c0,0,0,0.1,0,0.1
				c-0.1-0.1,0-0.2,0.1-0.3c0.1-0.3,0.3-0.5,0.5-0.7c0,0,0,0,0,0c0.2-0.2,0.2-0.2,0.3,0c0,0,0,0,0.1,0l0,0c0,0,0,0,0,0l0,0
				C126.6,51.3,126.5,51.3,126.4,51.5L126.4,51.5C126.4,51.4,126.4,51.4,126.4,51.5L126.4,51.5C126.4,51.4,126.4,51.4,126.4,51.5
				L126.4,51.5z"/>
			<path class="st8" d="M129.8,54.5C129.8,54.5,129.8,54.5,129.8,54.5c-0.2-0.1-0.2-0.1-0.2-0.2c0.2,0.1,0.2,0.1,0.3-0.1
				c0.1-0.1,0.2-0.3,0.3-0.5c0.3-0.7,0.3-1.4,0-2.2c-0.1-0.2-0.2-0.4-0.4-0.6c0.1,0,0.1,0.1,0.1,0c0,0,0,0,0,0c0,0,0,0,0,0.1
				c0.1,0.1,0.2,0.2,0.2,0.4c0,0,0,0,0.1,0l0,0c0,0,0,0.1,0,0.1c0,0.1,0.1,0.2,0.1,0.4c0,0.1,0,0,0,0c0.1,0.4,0.1,0.7,0.1,1.1
				c0,0.3-0.1,0.5-0.2,0.8C130.1,54.1,130,54.3,129.8,54.5z"/>
			<path class="st8" d="M129.6,50.6C129.6,50.6,129.6,50.7,129.6,50.6c0,0.1,0.1,0.2,0.2,0.2l0,0c0,0.1,0.1,0.1,0,0.2
				c-0.1-0.1-0.3-0.2-0.4-0.4c0,0,0,0,0,0C129.5,50.6,129.5,50.7,129.6,50.6z"/>
			<path class="st11" d="M130.3,51.6C130.2,51.6,130.2,51.6,130.3,51.6c-0.1-0.2-0.2-0.3-0.3-0.4c0,0,0-0.1,0-0.1
				C130.1,51.3,130.2,51.4,130.3,51.6z"/>
			<path class="st11" d="M130.4,52C130.4,52,130.4,52.1,130.4,52c-0.1-0.1-0.1-0.2-0.2-0.3c0,0,0-0.1,0-0.1
				C130.3,51.7,130.4,51.9,130.4,52z"/>
			<path class="st11" d="M129.1,50.3c-0.1,0.1-0.1,0.1-0.2,0.2c0,0,0,0,0,0c0-0.1,0.1-0.1,0.1-0.2C129,50.2,129.1,50.2,129.1,50.3z"
				/>
			<path class="st11" d="M129.8,51c0-0.1-0.1-0.1,0-0.2c0.1,0.1,0.2,0.2,0.2,0.3C129.9,51.1,129.9,51,129.8,51L129.8,51
				C129.8,51,129.8,51,129.8,51L129.8,51z"/>
			<path class="st11" d="M129.6,50.6c-0.1,0.1-0.1,0-0.2,0c0,0-0.1-0.1,0-0.1C129.4,50.5,129.5,50.6,129.6,50.6z"/>
			<path class="st11" d="M129.4,50.5c-0.1,0-0.1,0-0.2-0.1c0,0,0,0,0,0C129.2,50.4,129.3,50.4,129.4,50.5z"/>
			<path class="st11" d="M129.7,50.8c-0.1,0-0.1,0-0.1-0.1C129.7,50.7,129.7,50.7,129.7,50.8z"/>
			<path class="st8" d="M125.6,52C125.7,52,125.7,52,125.6,52C125.6,52.1,125.6,52,125.6,52z"/>
			<path class="st8" d="M125.6,52C125.6,52,125.6,52,125.6,52C125.6,52,125.6,52,125.6,52L125.6,52L125.6,52z"/>
			<path class="st11" d="M125.5,52.3C125.4,52.3,125.4,52.3,125.5,52.3C125.4,52.3,125.5,52.3,125.5,52.3
				C125.5,52.3,125.5,52.3,125.5,52.3z"/>
			<path class="st8" d="M125.5,52C125.5,52,125.5,52,125.5,52C125.5,52,125.5,52,125.5,52z"/>
			<path class="st7" d="M129.4,50.6c0.1,0.1,0.3,0.2,0.4,0.4l0,0c0,0,0,0,0,0l0,0c0.1,0.2,0.3,0.4,0.4,0.6c0.3,0.7,0.3,1.4,0,2.2
				c-0.1,0.2-0.2,0.3-0.3,0.5c-0.1,0.2-0.1,0.2-0.3,0.1l0,0c0-0.1-0.2-0.1-0.1-0.3c0.5-0.6,0.6-1.2,0.4-2c-0.1-0.5-0.4-0.9-0.8-1.2
				c-0.1-0.1-0.1,0-0.2,0c-0.1,0.1-0.2,0.2-0.2,0.2c-0.1,0.1-0.1,0.1,0,0.1c0.1,0.1,0.2,0.2,0.3,0.3c0.1,0.2,0.1,0.2,0,0.3
				c-0.2,0.1-0.1,0.1-0.2,0l0,0l0,0c0,0,0,0,0,0c0,0,0,0,0,0c0,0,0,0,0,0c0,0,0,0,0,0l0,0c0,0,0,0,0,0l0,0c0,0,0,0,0,0l0,0
				c0,0,0,0,0,0l0,0c0,0,0,0,0,0c0,0,0,0,0,0l0,0l0,0c0,0,0,0,0,0c0,0,0,0,0,0l0,0c0,0,0,0,0,0c0,0,0,0,0,0c0,0,0,0,0,0
				c0,0,0,0-0.1,0.1c0,0,0,0,0,0l0,0c0,0,0,0,0,0c-0.2,0.2-0.3,0.3-0.5,0.5c-0.1,0.1-0.1,0.1-0.2,0l0,0c0-0.1-0.1-0.1-0.1-0.1l0,0
				c0,0,0-0.1-0.1-0.1c-0.1-0.1-0.3-0.3-0.4-0.4c-0.1-0.1-0.1-0.1-0.3,0l0,0c0,0-0.1,0-0.1,0.1c0,0,0,0,0,0c0,0,0,0-0.1,0
				c-0.6,0.6-0.6,1.8,0.6,2.3c0.1,0,0.1,0,0.1-0.1c0-0.3,0-0.7,0-1c0-0.2,0-0.2,0.2-0.2c0.2,0,0.4,0,0.6,0c0.1,0,0.1,0.1,0.1,0.2
				c0,0.1-0.1,0.1-0.1,0.1c-0.1,0-0.1,0-0.2,0c-0.3,0-0.2,0-0.3,0.3c0,0.1,0,0.1,0.1,0.1c0.1,0,0.2,0,0.3,0c0.2,0,0.2,0,0.2,0.2
				c0,0.2-0.1,0.1-0.2,0.1c-0.4,0-0.4,0-0.4,0.4c0,0.1,0,0.1,0.1,0.1c0.3,0,0.5-0.1,0.7-0.2c0,0,0,0,0,0c0.1,0,0.1-0.1,0.2-0.1
				c0.2-0.1,0.2-0.1,0.3,0c0,0,0.1,0.1,0.1,0.2c0,0,0,0,0,0c-0.3,0.2-0.5,0.4-0.9,0.5c-0.1,0-0.2,0-0.3,0c-0.1,0-0.1,0-0.1,0.1
				c0,0,0,0,0,0.1c0,0.3,0,0.3-0.3,0.2c-0.1,0-0.1,0-0.1-0.1c0.1-0.3-0.1-0.4-0.3-0.5c-0.7-0.3-1.1-1-1.1-1.8c0-0.4,0.2-0.7,0.4-0.9
				c0,0,0.1-0.1,0.1-0.1l0,0c0,0,0,0,0-0.1l0,0c0,0,0,0,0,0l0,0c0,0,0.1-0.1,0.1-0.1c0.1-0.1,0.1-0.1,0-0.2l0,0c0,0,0,0,0,0l0,0
				c0-0.1-0.1-0.2-0.2-0.2c0-0.1-0.1,0-0.1,0c-0.5,0.4-0.8,1-0.9,1.6c-0.1,0.6,0.1,1.1,0.5,1.6c0.1,0.1,0,0.1,0,0.2
				c-0.2,0.2-0.2,0.2-0.3,0c-0.7-1-0.6-2.5,0.3-3.4c0.2-0.2,0.3-0.3,0.5-0.4c0.1,0,0.1,0,0.2,0c0.2,0.2,0.3,0.3,0.5,0.5
				C127,51,127,51,127.1,51c0.4-0.1,0.8-0.1,1.2,0c0.1,0,0.1,0,0.2,0c0.2-0.2,0.3-0.3,0.5-0.5c0.1-0.1,0.1-0.1,0.2,0
				C129.2,50.5,129.3,50.6,129.4,50.6z M127.6,51.3c-0.1,0-0.2,0-0.3,0c-0.1,0-0.1,0,0,0.1c0.1,0.1,0.2,0.2,0.3,0.3c0,0,0.1,0,0.1,0
				c0.1-0.1,0.2-0.2,0.3-0.3c0.1-0.1,0-0.1,0-0.1C127.9,51.3,127.8,51.3,127.6,51.3z"/>
			<path class="st10" d="M128.2,52.3c0-0.1-0.1-0.1-0.2-0.2c0.1-0.2,0.3-0.3,0.4-0.4c0,0,0.1,0,0.1,0c0.1,0.1,0.2,0.2,0.3,0.3
				c0.1,0.2,0.1,0.2,0.2,0c0.1-0.1,0.2-0.2,0.3-0.3c0-0.1-0.1-0.2-0.2-0.3c0,0,0,0-0.1-0.1c-0.2-0.2-0.2-0.2,0-0.3
				c0.1-0.1,0.1-0.1,0.2,0c0.3,0.3,0.5,0.6,0.6,1c0.2,0.5,0.1,1.1-0.1,1.6c0,0.1-0.1,0.1-0.1,0c0,0,0,0,0-0.1c0,0,0,0,0,0
				c0,0,0,0,0,0c0,0,0-0.1-0.1-0.1c-0.1-0.1-0.1-0.2-0.2-0.2c0,0,0,0,0,0c0,0,0,0,0,0l0,0c0,0,0,0,0,0l0,0c0,0-0.1-0.1-0.1-0.1
				c0,0,0,0,0,0c0,0,0,0,0,0l0,0c0,0,0,0,0,0l0,0c-0.1-0.1-0.2-0.2-0.3-0.3c0,0,0,0,0,0c-0.1-0.1-0.1-0.1-0.2-0.2l0,0
				C128.4,52.4,128.3,52.3,128.2,52.3z"/>
			<path class="st8" d="M129.6,53.7c0.1,0.1,0.1,0,0.1,0c0.3-0.5,0.3-1,0.1-1.6c-0.1-0.4-0.3-0.7-0.6-1c-0.1-0.1-0.1-0.1-0.2,0
				c-0.2,0.2-0.2,0.2,0,0.3c0,0,0,0,0.1,0.1c0.1,0.1,0.2,0.2,0.2,0.3c0,0.1-0.2,0.2-0.3,0.3c-0.1,0.1-0.1,0.1-0.2,0
				c-0.1-0.1-0.2-0.2-0.3-0.3c0,0-0.1-0.1-0.1,0c-0.1,0.1-0.3,0.3-0.4,0.4c-0.1,0-0.2,0.1-0.3,0.2c0,0-0.1,0.1-0.1,0.1
				c-0.1,0-0.1,0-0.1-0.1c0.1,0.1,0.1,0.1,0.2,0c0.2-0.2,0.3-0.3,0.5-0.5c0,0,0,0,0,0c0,0,0,0,0,0c0,0,0,0,0,0c0,0,0,0,0.1-0.1
				c0,0,0,0,0,0c0,0,0,0,0,0l0,0l0,0l0,0c0,0,0,0,0,0c0,0,0,0,0,0c0,0,0,0,0,0c0,0,0,0,0,0c0,0,0,0,0,0l0,0c0,0,0,0,0,0l0,0
				c0,0,0,0,0,0l0,0c0,0,0,0,0,0l0,0c0,0,0,0,0,0c0,0,0,0,0,0c0,0,0,0,0,0c0,0,0,0,0,0c0,0,0,0,0,0c0.1,0.1,0.1,0.2,0.2,0
				c0.2-0.1,0.2-0.1,0-0.3c-0.1-0.1-0.2-0.2-0.3-0.3c-0.1,0-0.1-0.1,0-0.1c0.1-0.1,0.2-0.2,0.2-0.2c0.1-0.1,0.1-0.1,0.2,0
				c0.4,0.3,0.6,0.7,0.8,1.2c0.2,0.7,0.1,1.4-0.4,2c-0.1,0.1,0,0.2,0.1,0.3c-0.2,0-0.2-0.1-0.1-0.3c0-0.1,0.1-0.1,0.1-0.2
				c0,0,0.1-0.1,0-0.1c0,0-0.1,0-0.1,0C129.6,53.7,129.6,53.7,129.6,53.7z M130,52.5C130,52.5,130,52.5,130,52.5c0,0.1,0,0.3,0,0.4
				c0,0,0,0,0,0C130,52.8,130,52.6,130,52.5z"/>
			<path class="st8" d="M127.5,52.7c-0.2,0-0.2,0-0.2,0.2c0,0.3,0,0.7,0,1c0,0.1,0,0.1-0.1,0.1c-1.1-0.4-1.1-1.6-0.6-2.3
				c0,0,0,0,0.1,0c0,0.1,0,0.1-0.1,0.1c-0.2,0.3-0.3,0.6-0.3,1c0,0,0,0.1,0,0.1c0.1,0.5,0.3,0.8,0.8,1c0,0,0,0.1,0,0.1c0,0,0,0,0,0
				c0,0,0,0-0.1-0.1c0-0.1,0-0.2,0-0.2c0.1,0,0.1-0.1,0.1-0.1c0-0.2,0-0.5,0-0.7C127.2,52.7,127.3,52.6,127.5,52.7z"/>
			<path class="st10" d="M127.2,53.9c-0.5-0.2-0.7-0.5-0.8-1c0-0.1,0.1,0,0.1,0c0.3,0.3,0.5,0.5,0.7,0.8
				C127.2,53.7,127.2,53.8,127.2,53.9C127.2,53.9,127.2,53.9,127.2,53.9z"/>
			<path class="st8" d="M128.4,53.9c-0.2,0.2-0.4,0.2-0.7,0.2c-0.1,0-0.1,0-0.1-0.1c0-0.4,0-0.4,0.4-0.4c0.1,0,0.2,0,0.2-0.1
				c0-0.2,0-0.2-0.2-0.2c-0.1,0-0.2,0-0.3,0c-0.1,0-0.1,0-0.1-0.1c0-0.3,0-0.3,0.3-0.3c0.1,0,0.1,0,0.2,0c0.1,0,0.1,0,0.1-0.1
				c0-0.1,0-0.2-0.1-0.2c0.2,0,0.2,0,0.2,0.2c0,0.2-0.1,0.2-0.2,0.2c-0.1,0-0.2,0-0.2,0c-0.1,0-0.1,0-0.1,0.1c0,0.1,0,0.1,0.1,0.1
				c0.1,0,0.2,0,0.3,0c0.1,0,0.1,0,0.1,0.1c0,0.3,0,0.3-0.3,0.3c0,0,0,0,0,0c-0.3,0-0.3-0.1-0.3,0.3c0,0.1,0,0.1,0.1,0.1
				C128,54,128.2,54,128.4,53.9C128.4,53.9,128.4,53.9,128.4,53.9z"/>
			<path class="st8" d="M126.8,51.6c0.1-0.1,0.1-0.1,0.3,0c0.1,0.1,0.3,0.3,0.4,0.4c0,0,0.1,0.1,0.1,0.1c-0.1,0-0.2-0.1-0.2-0.2
				c-0.1-0.1-0.1-0.1-0.2-0.2C127,51.6,126.9,51.5,126.8,51.6z"/>
			<path class="st8" d="M129,53.9c0.1-0.1,0-0.1-0.1-0.2c-0.2-0.2-0.2-0.2-0.3,0c-0.1,0-0.1,0.1-0.2,0.1c0.1-0.1,0.2-0.2,0.3-0.3
				c0,0,0.1,0,0.1,0C128.9,53.6,129.1,53.8,129,53.9C129.1,53.9,129.1,53.9,129,53.9z"/>
			<path class="st8" d="M128.6,52.7c0.1,0.1,0.2,0.2,0.3,0.3C128.8,52.9,128.7,52.8,128.6,52.7z"/>
			<path class="st8" d="M129.1,53.2c0.1,0.1,0.2,0.2,0.2,0.2C129.3,53.4,129.2,53.3,129.1,53.2z"/>
			<path class="st8" d="M128.4,52.4c0.1,0.1,0.2,0.1,0.2,0.2C128.5,52.6,128.4,52.6,128.4,52.4z"/>
			<path class="st8" d="M128.2,52.3c0.1,0,0.1,0.1,0.2,0.2C128.3,52.4,128.2,52.4,128.2,52.3z"/>
			<path class="st8" d="M129,53c0,0,0.1,0.1,0.1,0.1C129,53.1,128.9,53.1,129,53z"/>
			<path class="st8" d="M127.5,52.1c0.1,0,0.1,0.1,0.1,0.1C127.5,52.2,127.5,52.2,127.5,52.1z"/>
			<path class="st8" d="M129.4,53.5C129.4,53.5,129.5,53.5,129.4,53.5C129.4,53.5,129.4,53.5,129.4,53.5z"/>
			<path class="st8" d="M126.7,51.7C126.7,51.6,126.7,51.6,126.7,51.7C126.8,51.7,126.7,51.7,126.7,51.7z"/>
			<path class="st8" d="M128.9,52.9C128.9,53,128.9,53,128.9,52.9C128.9,53,128.9,53,128.9,52.9z"/>
			<path class="st8" d="M129.5,53.6C129.5,53.6,129.5,53.6,129.5,53.6C129.5,53.6,129.5,53.6,129.5,53.6z"/>
			<path class="st8" d="M129.1,53.1C129.1,53.2,129.1,53.2,129.1,53.1C129.1,53.2,129.1,53.2,129.1,53.1z"/>
			<path class="st8" d="M128.9,53C128.9,53,128.9,53,128.9,53C128.9,53,128.9,53,128.9,53z"/>
			<path class="st8" d="M129.1,53.1C129.1,53.1,129.1,53.1,129.1,53.1C129.1,53.1,129,53.1,129.1,53.1z"/>
			<path class="st11" d="M128.8,50.5C128.8,50.5,128.8,50.5,128.8,50.5C128.8,50.5,128.8,50.5,128.8,50.5
				C128.8,50.5,128.8,50.5,128.8,50.5L128.8,50.5z"/>
			<path class="st8" d="M126.6,51.1c0.1,0,0.1,0.1,0,0.2c0,0-0.1,0.1-0.1,0.1C126.5,51.3,126.6,51.3,126.6,51.1z"/>
			<path class="st8" d="M126.4,51.4C126.4,51.5,126.4,51.5,126.4,51.4C126.4,51.4,126.4,51.4,126.4,51.4z"/>
			<path class="st8" d="M126.5,51.1C126.5,51.1,126.6,51.1,126.5,51.1C126.5,51.1,126.5,51.1,126.5,51.1z"/>
			<path class="st8" d="M126.5,51.4C126.5,51.4,126.4,51.4,126.5,51.4C126.4,51.4,126.4,51.4,126.5,51.4z"/>
			<path class="st8" d="M129.8,51C129.8,51,129.8,51,129.8,51C129.8,51,129.8,51,129.8,51z"/>
			<path class="st8" d="M127.6,51.3c0.2,0,0.3,0,0.4,0.1c0.1,0,0.1,0,0,0.1c-0.1,0.1-0.2,0.2-0.3,0.3c0,0-0.1,0-0.1,0
				c-0.1-0.1-0.2-0.2-0.3-0.3c-0.1-0.1-0.1-0.1,0-0.1C127.5,51.3,127.6,51.3,127.6,51.3z M127.5,51.4c0.1,0.1,0.1,0.1,0.2,0.2
				c0,0,0.1,0.1,0.1,0c0-0.1,0.1-0.1,0.1-0.2c0,0,0,0-0.1,0C127.7,51.4,127.6,51.4,127.5,51.4z"/>
			<path class="st9" d="M128.7,51.7C128.6,51.7,128.6,51.7,128.7,51.7C128.6,51.7,128.7,51.7,128.7,51.7z"/>
			<path class="st9" d="M128.6,51.6C128.6,51.6,128.6,51.6,128.6,51.6C128.6,51.6,128.6,51.6,128.6,51.6z"/>
			<path class="st9" d="M128.7,51.7C128.7,51.7,128.7,51.7,128.7,51.7C128.7,51.7,128.7,51.7,128.7,51.7z"/>
			<path class="st9" d="M128.4,51.5C128.4,51.6,128.4,51.6,128.4,51.5C128.4,51.6,128.4,51.6,128.4,51.5z"/>
			<path class="st9" d="M128.8,51.8C128.8,51.8,128.8,51.8,128.8,51.8C128.8,51.8,128.8,51.8,128.8,51.8z"/>
			<path class="st9" d="M128.7,51.7C128.7,51.7,128.7,51.7,128.7,51.7C128.7,51.7,128.7,51.7,128.7,51.7z"/>
			<path class="st9" d="M128.6,51.6C128.6,51.6,128.6,51.6,128.6,51.6C128.6,51.6,128.6,51.6,128.6,51.6z"/>
			<path class="st9" d="M128.3,51.7C128.3,51.7,128.3,51.7,128.3,51.7C128.3,51.7,128.3,51.7,128.3,51.7z"/>
			<path class="st9" d="M128.8,51.8C128.8,51.8,128.8,51.8,128.8,51.8L128.8,51.8L128.8,51.8z"/>
			<path class="st9" d="M128.6,51.6C128.5,51.6,128.5,51.6,128.6,51.6L128.6,51.6L128.6,51.6z"/>
			<path class="st9" d="M128.5,51.5C128.5,51.5,128.5,51.5,128.5,51.5C128.5,51.5,128.5,51.5,128.5,51.5z"/>
			<path class="st9" d="M128.3,51.6C128.3,51.7,128.3,51.7,128.3,51.6C128.3,51.7,128.3,51.6,128.3,51.6z"/>
			<path class="st9" d="M128.5,51.5L128.5,51.5L128.5,51.5C128.4,51.5,128.5,51.5,128.5,51.5z"/>
			<path class="st11" d="M130,52.5c0,0.1,0,0.3,0,0.4c0,0,0,0,0,0C130,52.8,130,52.6,130,52.5C130,52.5,130,52.5,130,52.5z"/>
			<path class="st11" d="M127.2,53.9C127.2,53.9,127.2,53.9,127.2,53.9C127.2,53.9,127.2,53.9,127.2,53.9
				C127.2,53.9,127.2,54,127.2,53.9C127.2,53.9,127.2,53.9,127.2,53.9z"/>
			<path class="st10" d="M127.5,51.4c0.1,0,0.2,0,0.3,0c0,0,0.1,0,0.1,0c0,0.1-0.1,0.1-0.1,0.2c0,0-0.1,0-0.1,0
				C127.6,51.5,127.5,51.5,127.5,51.4z"/>
		</g>
	</g>
	<g>
		<path class="st12" d="M104.8,90.6c0,0,5.9-3.1,18.3,0l-0.3,15c0,0-1,4.5-6.1,6.5h-5.2c0,0-5.4-2.3-6.3-6.8L104.8,90.6z"/>
		<rect x="111.5" y="111.1" class="st12" width="5.1" height="6.2"/>
		<path class="st12" d="M104.4,122.5c0,0,0-3.4,7.7-6.4h3.8c0,0,6.8,2.5,7.6,6.4C123.6,122.4,104.5,122.4,104.4,122.5z"/>
		<rect x="103" y="122.2" class="st13" width="21.7" height="16.8"/>
		<rect x="107.9" y="126.1" class="st14" width="12.3" height="8.9"/>
		<g>
			<path class="st12" d="M101.9,86.1h3.3v5h1v-6H106h-1.2h-4.3c-2.9,14,5.7,21.3,5.7,21.3l-0.5-2.2
				C100.1,98.5,101.5,87.1,101.9,86.1z"/>
			<path class="st12" d="M127.5,85.1h-4.3h-1.2h0v6h1v-5h3.1c0.3,1,1.8,12.3-3.9,18l-0.5,2.4C121.8,106.4,130.4,99.1,127.5,85.1z"/>
		</g>
		<path class="st15" d="M122.9,103.3c0,0,0.4-0.4,0.7-0.8c0,0,0.6,0.3,0.5,1.2c0,0-1,1.2-1.2,1.5
			C122.9,104.2,122.9,103.3,122.9,103.3z"/>
		<path class="st15" d="M104.4,102.3c0,0,0.6,0.7,0.8,0.8c0,0.4,0,1.9,0,1.9s-1.1-1.2-1.4-1.7C103.8,103.4,103.5,102.4,104.4,102.3z
			"/>
		<polygon class="st15" points="104.8,85.8 105.1,85.3 101.6,85.3 101.9,85.8 		"/>
		<polygon class="st15" points="123.1,86.1 123.1,85.1 126.7,85.1 126.3,86.1 		"/>
		<path class="st15" d="M111.5,112.3c0,0,2.3,0.9,5.2-0.1c0,0-0.2,1-3.9,1.1l0,2.6l-1.2,0L111.5,112.3z"/>
		<polygon class="st15" points="123.9,122.2 104.2,122.2 104.6,121.2 123.4,121.2 		"/>
		<rect x="115" y="118.8" class="st16" width="5" height="1.3"/>
		<rect x="113.3" y="117.5" class="st16" width="5" height="1.3"/>
		<rect x="117" y="127" class="st16" width="2.7" height="6.6"/>
		<rect x="105.2" y="102.4" class="st15" width="17.7" height="0.9"/>
		<rect x="105.2" y="100.8" class="st5" width="17.7" height="0.9"/>
		<path class="st16" d="M117.6,89.5l0,22.4c0,0,2.5-1.7,2.5-2V90C120.1,90,118.8,89.4,117.6,89.5z"/>
		<polygon class="st16" points="116.1,116 114.8,116 114.8,112.8 116.1,112.5 		"/>
	</g>
	<g>
		<path class="st12" d="M37.8,90.6c0,0,5.9-3.1,18.3,0l-0.3,15c0,0-1,4.5-6.1,6.5h-5.2c0,0-5.4-2.3-6.3-6.8L37.8,90.6z"/>
		<rect x="44.5" y="111.1" class="st12" width="5.1" height="6.2"/>
		<path class="st12" d="M37.4,122.5c0,0,0-3.4,7.7-6.4H49c0,0,6.8,2.5,7.6,6.4C56.6,122.4,37.5,122.4,37.4,122.5z"/>
		<rect x="36" y="122.2" class="st13" width="21.7" height="16.8"/>
		<rect x="40.9" y="126.1" class="st14" width="12.3" height="8.9"/>
		<g>
			<path class="st12" d="M34.9,86.1h3.3v5h1v-6H39h-1.2h-4.3c-2.9,14,5.7,21.3,5.7,21.3l-0.5-2.2C33.1,98.5,34.5,87.1,34.9,86.1z"/>
			<path class="st12" d="M60.5,85.1h-4.3h-1.2h0v6h1v-5h3.1c0.3,1,1.8,12.3-3.9,18l-0.5,2.4C54.8,106.4,63.4,99.1,60.5,85.1z"/>
		</g>
		<path class="st15" d="M55.9,103.3c0,0,0.4-0.4,0.7-0.8c0,0,0.6,0.3,0.5,1.2c0,0-1,1.2-1.2,1.5C55.9,104.2,55.9,103.3,55.9,103.3z"
			/>
		<path class="st15" d="M37.4,102.3c0,0,0.6,0.7,0.8,0.8c0,0.4,0,1.9,0,1.9s-1.1-1.2-1.4-1.7C36.8,103.4,36.5,102.4,37.4,102.3z"/>
		<polygon class="st15" points="37.8,85.8 38.1,85.3 34.6,85.3 34.9,85.8 		"/>
		<polygon class="st15" points="56.1,86.1 56.1,85.1 59.7,85.1 59.3,86.1 		"/>
		<path class="st15" d="M44.5,112.3c0,0,2.3,0.9,5.2-0.1c0,0-0.2,1-3.9,1.1l0,2.6l-1.2,0L44.5,112.3z"/>
		<polygon class="st15" points="56.9,122.2 37.2,122.2 37.6,121.2 56.4,121.2 		"/>
		<rect x="48" y="118.8" class="st16" width="5" height="1.3"/>
		<rect x="46.3" y="117.5" class="st16" width="5" height="1.3"/>
		<rect x="50" y="127" class="st16" width="2.7" height="6.6"/>
		<rect x="38.2" y="102.4" class="st15" width="17.7" height="0.9"/>
		<rect x="38.2" y="100.8" class="st5" width="17.7" height="0.9"/>
		<path class="st16" d="M50.6,89.5l0,22.4c0,0,2.5-1.7,2.5-2V90C53.1,90,51.8,89.4,50.6,89.5z"/>
		<polygon class="st16" points="49.1,116 47.8,116 47.8,112.8 49.1,112.5 		"/>
	</g>
	<g>
		<path class="st12" d="M4.8,90.6c0,0,5.9-3.1,18.3,0l-0.3,15c0,0-1,4.5-6.1,6.5h-5.2c0,0-5.4-2.3-6.3-6.8L4.8,90.6z"/>
		<rect x="11.5" y="111.1" class="st12" width="5.1" height="6.2"/>
		<path class="st12" d="M4.4,122.5c0,0,0-3.4,7.7-6.4H16c0,0,6.8,2.5,7.6,6.4C23.6,122.4,4.5,122.4,4.4,122.5z"/>
		<rect x="3" y="122.2" class="st13" width="21.7" height="16.8"/>
		<rect x="7.9" y="126.1" class="st14" width="12.3" height="8.9"/>
		<g>
			<path class="st12" d="M1.9,86.1h3.3v5h1v-6H6H4.9H0.6c-2.9,14,5.7,21.3,5.7,21.3l-0.5-2.2C0.1,98.5,1.5,87.1,1.9,86.1z"/>
			<path class="st12" d="M27.5,85.1h-4.3h-1.2h0v6h1v-5h3.1c0.3,1,1.8,12.3-3.9,18l-0.5,2.4C21.8,106.4,30.4,99.1,27.5,85.1z"/>
		</g>
		<path class="st15" d="M22.9,103.3c0,0,0.4-0.4,0.7-0.8c0,0,0.6,0.3,0.5,1.2c0,0-1,1.2-1.2,1.5C22.9,104.2,22.9,103.3,22.9,103.3z"
			/>
		<path class="st15" d="M4.4,102.3c0,0,0.6,0.7,0.8,0.8c0,0.4,0,1.9,0,1.9s-1.1-1.2-1.4-1.7C3.8,103.4,3.5,102.4,4.4,102.3z"/>
		<polygon class="st15" points="4.8,85.8 5.1,85.3 1.6,85.3 1.9,85.8 		"/>
		<polygon class="st15" points="23.1,86.1 23.1,85.1 26.7,85.1 26.3,86.1 		"/>
		<path class="st15" d="M11.5,112.3c0,0,2.3,0.9,5.2-0.1c0,0-0.2,1-3.9,1.1l0,2.6l-1.2,0L11.5,112.3z"/>
		<polygon class="st15" points="23.9,122.2 4.2,122.2 4.6,121.2 23.4,121.2 		"/>
		<rect x="15" y="118.8" class="st16" width="5" height="1.3"/>
		<rect x="13.3" y="117.5" class="st16" width="5" height="1.3"/>
		<rect x="17" y="127" class="st16" width="2.7" height="6.6"/>
		<rect x="5.2" y="102.4" class="st15" width="17.7" height="0.9"/>
		<rect x="5.2" y="100.8" class="st5" width="17.7" height="0.9"/>
		<path class="st16" d="M17.6,89.5l0,22.4c0,0,2.5-1.7,2.5-2V90C20.1,90,18.8,89.4,17.6,89.5z"/>
		<polygon class="st16" points="16.1,116 14.8,116 14.8,112.8 16.1,112.5 		"/>
	</g>
	<g>
		<path class="st12" d="M201.8,90.6c0,0,5.9-3.1,18.3,0l-0.3,15c0,0-1,4.5-6.1,6.5h-5.2c0,0-5.4-2.3-6.3-6.8L201.8,90.6z"/>
		<rect x="208.5" y="111.1" class="st12" width="5.1" height="6.2"/>
		<path class="st12" d="M201.4,122.5c0,0,0-3.4,7.7-6.4h3.8c0,0,6.8,2.5,7.6,6.4C220.6,122.4,201.5,122.4,201.4,122.5z"/>
		<rect x="200" y="122.2" class="st13" width="21.7" height="16.8"/>
		<rect x="204.9" y="126.1" class="st14" width="12.3" height="8.9"/>
		<g>
			<path class="st12" d="M198.9,86.1h3.3v5h1v-6H203h-1.2h-4.3c-2.9,14,5.7,21.3,5.7,21.3l-0.5-2.2
				C197.1,98.5,198.5,87.1,198.9,86.1z"/>
			<path class="st12" d="M224.5,85.1h-4.3h-1.2h0v6h1v-5h3.1c0.3,1,1.8,12.3-3.9,18l-0.5,2.4C218.8,106.4,227.4,99.1,224.5,85.1z"/>
		</g>
		<path class="st15" d="M219.9,103.3c0,0,0.4-0.4,0.7-0.8c0,0,0.6,0.3,0.5,1.2c0,0-1,1.2-1.2,1.5
			C219.9,104.2,219.9,103.3,219.9,103.3z"/>
		<path class="st15" d="M201.4,102.3c0,0,0.6,0.7,0.8,0.8c0,0.4,0,1.9,0,1.9s-1.1-1.2-1.4-1.7C200.8,103.4,200.5,102.4,201.4,102.3z
			"/>
		<polygon class="st15" points="201.8,85.8 202.1,85.3 198.6,85.3 198.9,85.8 		"/>
		<polygon class="st15" points="220.1,86.1 220.1,85.1 223.7,85.1 223.3,86.1 		"/>
		<path class="st15" d="M208.5,112.3c0,0,2.3,0.9,5.2-0.1c0,0-0.2,1-3.9,1.1l0,2.6l-1.2,0L208.5,112.3z"/>
		<polygon class="st15" points="220.9,122.2 201.2,122.2 201.6,121.2 220.4,121.2 		"/>
		<rect x="212" y="118.8" class="st16" width="5" height="1.3"/>
		<rect x="210.3" y="117.5" class="st16" width="5" height="1.3"/>
		<rect x="214" y="127" class="st16" width="2.7" height="6.6"/>
		<rect x="202.2" y="102.4" class="st15" width="17.7" height="0.9"/>
		<rect x="202.2" y="100.8" class="st5" width="17.7" height="0.9"/>
		<path class="st16" d="M214.6,89.5l0,22.4c0,0,2.5-1.7,2.5-2V90C217.1,90,215.8,89.4,214.6,89.5z"/>
		<polygon class="st16" points="213.1,116 211.8,116 211.8,112.8 213.1,112.5 		"/>
	</g>
	<g>
		<path class="st12" d="M168.8,90.6c0,0,5.9-3.1,18.3,0l-0.3,15c0,0-1,4.5-6.1,6.5h-5.2c0,0-5.4-2.3-6.3-6.8L168.8,90.6z"/>
		<rect x="175.5" y="111.1" class="st12" width="5.1" height="6.2"/>
		<path class="st12" d="M168.4,122.5c0,0,0-3.4,7.7-6.4h3.8c0,0,6.8,2.5,7.6,6.4C187.6,122.4,168.5,122.4,168.4,122.5z"/>
		<rect x="167" y="122.2" class="st13" width="21.7" height="16.8"/>
		<rect x="171.9" y="126.1" class="st14" width="12.3" height="8.9"/>
		<g>
			<path class="st12" d="M165.9,86.1h3.3v5h1v-6H170h-1.2h-4.3c-2.9,14,5.7,21.3,5.7,21.3l-0.5-2.2
				C164.1,98.5,165.5,87.1,165.9,86.1z"/>
			<path class="st12" d="M191.5,85.1h-4.3h-1.2h0v6h1v-5h3.1c0.3,1,1.8,12.3-3.9,18l-0.5,2.4C185.8,106.4,194.4,99.1,191.5,85.1z"/>
		</g>
		<path class="st15" d="M186.9,103.3c0,0,0.4-0.4,0.7-0.8c0,0,0.6,0.3,0.5,1.2c0,0-1,1.2-1.2,1.5
			C186.9,104.2,186.9,103.3,186.9,103.3z"/>
		<path class="st15" d="M168.4,102.3c0,0,0.6,0.7,0.8,0.8c0,0.4,0,1.9,0,1.9s-1.1-1.2-1.4-1.7C167.8,103.4,167.5,102.4,168.4,102.3z
			"/>
		<polygon class="st15" points="168.8,85.8 169.1,85.3 165.6,85.3 165.9,85.8 		"/>
		<polygon class="st15" points="187.1,86.1 187.1,85.1 190.7,85.1 190.3,86.1 		"/>
		<path class="st15" d="M175.5,112.3c0,0,2.3,0.9,5.2-0.1c0,0-0.2,1-3.9,1.1l0,2.6l-1.2,0L175.5,112.3z"/>
		<polygon class="st15" points="187.9,122.2 168.2,122.2 168.6,121.2 187.4,121.2 		"/>
		<rect x="179" y="118.8" class="st16" width="5" height="1.3"/>
		<rect x="177.3" y="117.5" class="st16" width="5" height="1.3"/>
		<rect x="181" y="127" class="st16" width="2.7" height="6.6"/>
		<rect x="169.2" y="102.4" class="st15" width="17.7" height="0.9"/>
		<rect x="169.2" y="100.8" class="st5" width="17.7" height="0.9"/>
		<path class="st16" d="M181.6,89.5l0,22.4c0,0,2.5-1.7,2.5-2V90C184.1,90,182.8,89.4,181.6,89.5z"/>
		<polygon class="st16" points="180.1,116 178.8,116 178.8,112.8 180.1,112.5 		"/>
	</g>
	<path class="st0" d="M131.9,65.3l-1,17l-4.3,29.8l-4.3,3.8l-0.5,2.8c0,0-4.5,2-7.7,0.8l-0.3,1.3l5,1.5l2.8-0.2c0,0,2.2,1.2,2.3,2.9
		c0.2,1.7-1,9.9-1,9.9h1.2l1-2l0.2,5.8l1.3-0.8c0,0,1.3-9.7,3-12.3c0,0,0.7-4.2,1.5-6.5c0.8-2.3,10.3-32.8,10.3-32.8l-0.3-5.8
		l3-16.7L131.9,65.3z"/>
	<path class="st3" d="M144.3,66.6c0,0-8.7,2.3-15.5,1.7c-6.8-0.7,3.2-6,2.8-5.8c-0.3,0.2,12.5-0.7,12.5-0.7L144.3,66.6z"/>
	<polygon class="st5" points="133.9,47.8 125.6,85.6 129.1,74.3 131.4,70.6 131.6,67.8 136.9,58.3 133.4,57.6 141.1,48.8 
		134.9,52.1 	"/>
</g>
</svg>
