<?xml version="1.0" encoding="utf-8"?>
<!-- Generator: Adobe Illustrator 19.0.0, SVG Export Plug-In . SVG Version: 6.00 Build 0)  -->
<!DOCTYPE svg PUBLIC "-//W3C//DTD SVG 1.1//EN" "http://www.w3.org/Graphics/SVG/1.1/DTD/svg11.dtd">
<svg version="1.1" id="Layer_1" xmlns="http://www.w3.org/2000/svg" xmlns:xlink="http://www.w3.org/1999/xlink" x="0px" y="0px"
	 viewBox="0 0 182 224.4" style="enable-background:new 0 0 182 224.4;" xml:space="preserve">
<style type="text/css">
	.st0{fill:#231F20;}
	.st1{fill:#E0A984;}
	.st2{fill:#ED1C24;}
	.st3{fill:#C48C63;}
</style>
<g>
	<path class="st0" d="M112.9,13.7c0,0,4.8-7.5-5.5-12S86.4,2.5,85.9,7c0,0-11,8.2-2.2,23.5l20,1.2L112.9,13.7z"/>
	<path class="st1" d="M59.7,155.2c-1,0.3-18.3,25-18.3,25l-16,21.7c0,0-8.7,2.7-7.3-5.7l11.7-23.7l4-3.7l6-16.3L59.7,155.2z"/>
	<polygon class="st1" points="112.4,145.9 130.4,162.2 131,173.9 143.4,200.9 150.7,197.2 142.7,154.9 128.4,138.2 	"/>
	<path class="st1" d="M100.7,104.6l3.3-29l7.3-29.3l-19.7-8.3L78,37.2L55,48.6l2,27.3l4.7,28.3C61.7,104.2,80.7,115.2,100.7,104.6z"
		/>
	<polygon class="st1" points="103.6,71.7 115.9,62 135.9,71.2 167.1,48.2 160.1,44.5 137.9,58 111.4,46.2 105.4,56.2 	"/>
	<path class="st2" d="M153.6,46.7l5.8,7.8l9.2-5.2c0,0,7.7,7.8,12.2-4.5c4.8-12.7-7-16.7-14.5-15.7c-7.2,1-10,10.2-7,12.7
		L153.6,46.7z"/>
	<path class="st1" d="M98.6,44l3-6.8l7.2,1.8l4.5-27.5c0,0-4.8,5.3-10,5.5c0,0,3.8-2,4.5-4l-8.8,4l2.8-5c0,0-6.5,3.8-7,8
		c0,0-3.5,0.2-5.8-0.5c0,0-3.5,3,0,6.8l-0.8,3.2l-5-0.5l-5.5,10L98.6,44z"/>
	<path class="st3" d="M56.4,65.7c0,0,15.5,17.8,20.8,19.5s18.8-10.8,18.8-10.8L76.1,89.7c0,0-10.5-2.2-19.3-12.8L56.4,65.7z"/>
	<polygon class="st3" points="74.4,54 80.4,64.2 88.6,62.2 	"/>
	<path class="st2" d="M103.9,53.7l10.5,10.5l4.5-6.5c0,0,8-0.2,11.7-7c3.8-6.8-3.5-17.8-10.5-16.8s-13.2,8.2-9.8,12.2L103.9,53.7z"
		/>
	<path class="st2" d="M61.7,104.2L34.4,153c0,0,17.5,11.5,29,5.5l20.5-28l25.8,23.2c0,0,15-4.2,23.5-12.8l-31.2-33.8l-0.2-7.5
		c0,0-29.8,8-41.3-2.2L61.7,104.2z"/>
	<path class="st0" d="M138.6,191.5l5.5,22.8c0,0,17.8,7.8,32.8-1l-1-8c0,0-17-1.2-20-2.5l-6-15.2L138.6,191.5z"/>
	<path class="st0" d="M0,213.6c0,0-0.9,12.7,9.3,10.7L24.9,211l9.2-19.4l-12-6.7l-8,17.3L0,213.6z"/>
</g>
</svg>
