<?xml version="1.0" encoding="utf-8"?>
<!-- Generator: Adobe Illustrator 19.0.0, SVG Export Plug-In . SVG Version: 6.00 Build 0)  -->
<!DOCTYPE svg PUBLIC "-//W3C//DTD SVG 1.1//EN" "http://www.w3.org/Graphics/SVG/1.1/DTD/svg11.dtd">
<svg version="1.1" id="Layer_1" xmlns="http://www.w3.org/2000/svg" xmlns:xlink="http://www.w3.org/1999/xlink" x="0px" y="0px"
	 viewBox="0 0 105.2 185.4" style="enable-background:new 0 0 105.2 185.4;" xml:space="preserve">
<style type="text/css">
	.st0{fill:#FBB03B;}
	.st1{fill:#FBC859;}
	.st2{fill:#F7931E;}
	.st3{fill:#F15A24;}
	.st4{fill:#1A1A1A;}
</style>
<g>
	<path class="st0" d="M32.1,142.6l-2.7,0.2l-8.1,25L21,178.6c0,0,31.3,15.2,62.2-1.8l-1-11l-6.2-21.8L32.1,142.6z"/>
	<path class="st0" d="M33.3,137.4l-3.9,5.5c0,0,5.9,5.2,23.1,4.2s23.6-3,23.6-3l-3.9-6C72.2,138.1,55.9,141.4,33.3,137.4z"/>
	<path class="st1" d="M40.9,134.9l-7.6,2.2c0,0-1.2,4.8,19.4,4.5s19.4-3.5,19.4-3.5l-6.4-2L40.9,134.9z"/>
	<polygon class="st2" points="30.5,31.9 14.2,28.1 43.5,121.1 46.2,128.4 43.2,129.4 0,13.4 29,19.1 	"/>
	<polygon class="st3" points="30.5,31.9 14.2,28.1 43,118.4 13,26.4 	"/>
	<polygon class="st2" points="75.8,31.9 91,28.1 61.8,121.1 59,128.4 62,129.4 105.2,13.4 77.2,19.1 	"/>
	<polygon class="st3" points="78.2,31.1 91,28.1 60.8,122.1 93.5,25.9 	"/>
	<path class="st2" d="M49.3,0.1l1.4,110l12-109.7C57.9-0.1,53.4-0.1,49.3,0.1z"/>
	<path class="st0" d="M61.8,0.4l-11.6,106L33.4,2.7C29.3,3.8,27,4.9,27,4.9l12.8,102.2l0.8,6l2.2,15.5c13.8,3.8,19.5,0.5,19.5,0.5
		L85,5.6C76.6,2.7,68.8,1.1,61.8,0.4z"/>
	<path class="st1" d="M33.4,2.7l17.3,107.5l-1.4-110C42.7,0.5,37.3,1.6,33.4,2.7z"/>
	<polygon class="st2" points="83.5,5.1 62.2,129.1 85,5.6 	"/>
	<polygon class="st2" points="27,4.9 42.8,128.6 38.8,93.6 28.2,4.1 	"/>
	<path class="st0" d="M43.5,126.6L38.7,137c0,0,13.8,6.8,27.1,0.3L62,126.6H43.5z"/>
	<path class="st2" d="M21.2,167.9c0,0,36.5,14.2,61-2l1,11c0,0-25.2,18-62.2,1.8L21.2,167.9z"/>
	<path class="st4" d="M21,170.9c0,0,34.8,13.5,61.8-1.5l0.2,5c0,0-30.2,14.8-62.2,1.2L21,170.9z"/>
	<path class="st1" d="M51.5,146.9l-1,26.2c0,0,2.8,0.8,6.2,0.2l-1.2-26.8L51.5,146.9z"/>
	<path class="st2" d="M55.5,146.6c0,0,5,0.2,9.5-0.8l4.8,25.8c0,0-3.2,2.2-13,2.8L55.5,146.6z"/>
</g>
</svg>
