<?xml version="1.0" encoding="utf-8"?>
<!-- Generator: Adobe Illustrator 19.0.0, SVG Export Plug-In . SVG Version: 6.00 Build 0)  -->
<!DOCTYPE svg PUBLIC "-//W3C//DTD SVG 1.1//EN" "http://www.w3.org/Graphics/SVG/1.1/DTD/svg11.dtd">
<svg version="1.1" id="Layer_1" xmlns="http://www.w3.org/2000/svg" xmlns:xlink="http://www.w3.org/1999/xlink" x="0px" y="0px"
	 viewBox="0 0 109.2 361.5" style="enable-background:new 0 0 109.2 361.5;" xml:space="preserve">
<style type="text/css">
	.st0{fill:#E0A984;}
	.st1{fill:#FFFFFF;}
	.st2{fill:#191A53;}
	.st3{fill:#231F20;}
	.st4{fill:#3D3493;}
	.st5{fill:#A74C00;}
	.st6{fill:#D88318;}
	.st7{fill:#2C2B2B;}
</style>
<g>
	<path class="st0" d="M73.5,42.9c0,0-5.3,2.2-9.3-0.2s-7-1.3-7-1.3l3.7-6.7l3.6,2.6L61.5,30l7.7-11.3c0,0,8.6,8,7.8,17.7
		S73.5,42.9,73.5,42.9z"/>
	<path class="st1" d="M72.1,351.1h-6.6c0,0-2.6,8.3,6,8.8h11.1c0,0,2.4-5.2-4.1-5.6C78.4,354.3,72.7,353.3,72.1,351.1z"/>
	<polygon class="st0" points="29.8,209.9 42.5,285.6 30.5,324.1 42,326.1 58.8,288.9 55.7,225.8 70.8,275.1 66.2,343.6 74.8,343.6 
		87.2,275 78.3,209.2 	"/>
	<path class="st1" d="M72.1,351.1h-6.6c0,0-2.6,8.3,6,8.8h11.1c0,0,2.4-5.2-4.1-5.6C78.4,354.3,72.7,353.3,72.1,351.1z"/>
	<polygon class="st2" points="79,323.6 67.1,323.6 65.2,352.8 73.1,352.4 	"/>
	<path class="st1" d="M28.2,350.3l-6.4-1.7c0,0-4.6,7.3,3.5,10l10.7,2.9c0,0,3.7-4.4-2.5-6.5C33.5,355,28.2,352.6,28.2,350.3z"/>
	<polygon class="st2" points="42.1,325.5 30.6,322.5 21.1,350.1 28.8,351.8 	"/>
	<path class="st0" d="M17.8,123.6c0,0,23.6-12.8,71,0l-8.9,86c0,0-19.5,1.3-51.3-0.2L17.8,123.6z"/>
	<path class="st0" d="M74.2,74v31.1c0,3.1-2.5,5.6-5.6,5.6h0v12.1c0,0-6.3,12.3-21.6,0V97.7c0,0-4.6-0.9-4.6-6.3s5.3-2.8,5.3-2.8V74
		H74.2z"/>
	<path class="st3" d="M47.7,88.6l3.3,6.8l3-1c0,0-4-12.5,2-12.5l0.5-4.5L74.2,74c0,0,2.3-11.1-15.2-10.6s-17,14.5-15.5,25L47.7,88.6
		z"/>
	<polygon class="st3" points="68.5,94.9 57.5,101.4 58.6,101.7 68,97.4 72.9,100.7 73.5,99.9 	"/>
	<rect x="64.5" y="104.4" class="st3" width="4" height="6"/>
	<path class="st3" d="M59.6,110.4c0,0,9.8,1.1,12.1-0.6c0,0-10.8,0.2-14.1-0.8C57.6,109,59.2,110.2,59.6,110.4z"/>
	<path class="st3" d="M63.5,74.9c0,0,0,2.5-1.5,3.2c0,0,4.9-0.4,6.2-3.6L63.5,74.9z"/>
	<path class="st4" d="M39.7,119.7c0,0-4,17.3,12,18s22.7-18.3,22.7-18.3l8.7,2.3c0,0-7.3,29.3,2.7,40.7l-5.3,50h-52l-7.3-46.7
		c0,0,11.3-16.7,4-46c0,0,8-4,15.7-2.3"/>
	<path class="st4" d="M28.5,212.4l0.7,48c0,0,13.2,10.3,32.7,1.3l-1.3-21.3l5.3,23.3c0,0,13.2,0.7,26.7-9.3l-12-42
		C80.5,212.4,57,187.9,28.5,212.4z"/>
	<polygon class="st5" points="62.2,142.6 66.4,153.4 77.5,150 71.7,160 81.2,166.5 69.8,168.2 70.7,179.7 62.2,171.9 53.7,179.7 
		54.6,168.2 43.2,166.5 52.7,160 47,150 58,153.4 	"/>
	<g>
		<path class="st6" d="M36.5,26.8c-0.5-1.2-0.8-2.5-1-3.8c-0.1-0.8-0.2-1.6-0.2-2.3c0,0,0,0,0-0.1c0-0.5,0-1.1,0-1.6
			c0-0.1,0-0.3,0-0.4c0.1-0.9,0.2-1.8,0.4-2.7c0.4-1.8,1-3.5,1.8-5.1c0.1-0.2,0.2-0.4,0.3-0.5c0,0.1-0.1,0.2,0,0.3c0,0,0,0,0,0
			c0,0,0,0,0,0c0,0,0,0,0.1,0c0.4-0.3,0.8-0.6,1.2-0.8c0.9-0.6,1.8-1.3,2.7-1.9c0.9-0.6,1.8-1.1,2.8-1.6c1.2-0.6,2.5-1.1,3.7-1.6
			c1.6-0.6,3.2-1.1,4.8-1.6c1.6-0.5,3.2-0.9,4.8-1.2c0.1,0,0.1,0,0.1,0c0.5,0.4,0.9,0.8,1.3,1.3c0.6,0.6,1.2,1.2,1.7,1.8
			c0.2,0.2,0.3,0.4,0.5,0.6c0,0,0,0,0,0c-0.1,0-0.2,0-0.3,0.1c-1.2,0.2-2.3,0.5-3.5,0.8c-1,0.3-2,0.6-2.9,1
			c-0.7,0.3-1.4,0.6-2.1,0.9c-1.5,0.7-2.8,1.6-4.2,2.5c-0.9,0.6-1.7,1.3-2.5,2c-0.5,0.5-1,1-1.5,1.5c-0.3,0.3-0.5,0.5-0.7,0.8
			c-0.2,0.2-0.3,0.4-0.5,0.6c-0.2,0.2-0.4,0.4-0.5,0.7c-0.3,0.3-0.5,0.6-0.8,1c-0.3,0.4-0.5,0.7-0.8,1.1C40.8,19,40.4,19.5,40,20
			c-1,1.5-1.8,3.1-2.6,4.7C37.1,25.4,36.8,26.1,36.5,26.8z"/>
		<path class="st7" d="M36.5,26.8c0.3-0.7,0.6-1.4,1-2.1c0.8-1.6,1.6-3.2,2.6-4.7c0.3-0.5,0.7-1.1,1.1-1.6c0.3-0.4,0.5-0.7,0.8-1.1
			c0.2-0.3,0.5-0.7,0.8-1c0.2-0.2,0.4-0.5,0.5-0.7c0.2-0.2,0.3-0.4,0.5-0.6c0.2-0.3,0.5-0.5,0.7-0.8c0.5-0.5,1-1,1.5-1.5
			c0.8-0.7,1.6-1.4,2.5-2c1.3-1,2.7-1.8,4.2-2.5c0.7-0.3,1.4-0.6,2.1-0.9c1-0.4,1.9-0.7,2.9-1c1.2-0.3,2.3-0.6,3.5-0.8
			c0.1,0,0.2,0,0.3-0.1c0,0,0,0,0,0c-0.2-0.2-0.3-0.4-0.5-0.6c-0.6-0.6-1.1-1.2-1.7-1.8c-0.4-0.4-0.9-0.8-1.3-1.3c0,0-0.1,0-0.1,0
			c-1.6,0.4-3.2,0.8-4.8,1.2c-1.6,0.5-3.2,1-4.8,1.6c-1.3,0.5-2.5,1-3.7,1.6c-1,0.5-1.9,1-2.8,1.6c-0.9,0.6-1.8,1.3-2.7,1.9
			c-0.4,0.3-0.8,0.6-1.2,0.8c0,0,0,0-0.1,0l0,0c0-0.1,0.1-0.2,0-0.3l0,0c0,0,0,0,0,0c0-0.2,0.1-0.3,0.1-0.5c0-0.1,0-0.1,0.1-0.1
			c0.1-0.1,0.2-0.2,0.3-0.3c0,0,0,0,0,0l0,0c0,0,0,0,0.1,0c0.2-0.2,0.4-0.3,0.6-0.5c0.4-0.3,0.9-0.7,1.3-1c0.2-0.2,0.5-0.4,0.7-0.6
			c0.4-0.3,0.8-0.6,1.3-0.9c0.5-0.3,0.9-0.6,1.4-0.9c0.5-0.2,1-0.5,1.5-0.7c0.4-0.2,0.8-0.4,1.2-0.5c0.7-0.3,1.3-0.5,2-0.8
			c0.6-0.2,1.3-0.4,1.9-0.6c2-0.6,3.9-1.1,5.9-1.6c0.3-0.1,0.5-0.1,0.8-0.2c-0.3-0.3-0.7-0.6-1-0.8c0,0-0.1,0,0-0.1c0,0,0,0,0.1,0
			c0,0,0.1,0,0.1,0c0.3,0,0.5-0.1,0.8-0.1c0,0,0,0,0.1,0c0.1,0.1,0.2,0.1,0.3,0.2c0,0,0,0,0,0l0,0c0.3,0.2,0.5,0.4,0.8,0.6
			c0,0,0,0,0.1,0c0.4-0.1,0.8-0.2,1.2-0.3c0,0,0,0,0,0c0.2-0.1,0.4,0,0.5,0C60.2,0.7,60.6,0.8,61,1C61,1,61.1,1,61.2,1
			c0,0,0,0-0.1,0c-0.6,0.1-1.1,0.2-1.7,0.4c-0.2,0-0.3,0.1-0.5,0.1c0,0,0.1,0,0.1,0.1c0.5,0.4,0.9,0.8,1.3,1.2
			c0.8,0.8,1.6,1.6,2.4,2.4c0.1,0.1,0.1,0.1,0.2,0.1c0.5-0.1,1.1-0.1,1.6-0.2C65.3,5.1,66,5,66.8,5c0.4,0,0.8,0,1.2,0
			c0.1,0,0.2,0,0.3,0.1c0,0,0,0.1,0.1,0l0,0c0,0,0,0,0,0l0,0c0,0,0,0,0,0c0.2,0.2,0.4,0.3,0.7,0.5c0,0-0.1,0-0.1,0
			c-0.4,0-0.9,0-1.3,0c-0.9,0-1.8,0-2.6,0.1c-0.5,0-1,0.1-1.5,0.2c0,0-0.1,0-0.1,0c0,0,0,0,0,0.1c0.9,1.1,1.8,2.3,2.6,3.6
			c0.1,0.1,0.1,0.1,0.2,0.1c0.6-0.1,1.1,0,1.7,0.1c1.1,0.2,2,0.7,2.9,1.3c1.2,0.8,2.1,1.8,3,2.9c0.1,0.1,0.2,0.3,0.3,0.3l0,0
			c0,0,0,0,0,0c0.1,0.1,0.1,0.3,0.1,0.5c0,0,0,0.1,0,0.1c0,0,0,0.1,0,0.1c0,0.3,0.1,0.5,0.1,0.8l0,0c-0.1-0.1-0.1-0.1-0.1-0.2
			c-0.8-1.1-1.6-2.1-2.6-3c-0.7-0.6-1.5-1.1-2.3-1.5c-0.8-0.3-1.7-0.5-2.6-0.4c-0.1,0-0.1,0.1,0,0.1c0.1,0.3,0.3,0.6,0.4,0.9
			c0.4,0.8,0.7,1.5,0.9,2.3c0.5,1.5,0.8,2.9,1,4.5c0.1,0.7,0.2,1.5,0.2,2.2c0,0.8,0,1.7,0,2.5c0,0.4-0.1,0.8-0.1,1.3
			c0,0.5-0.1,0.9-0.2,1.4c-0.1,0.9-0.3,1.8-0.5,2.7c-0.4,1.6-0.9,3.1-1.5,4.7c-0.4,1-0.8,2.1-1.3,3.1c0,0.1-0.1,0.1-0.1,0.1
			c-0.4,0.2-0.9,0.4-1.3,0.6c-0.1,0-0.2,0.1-0.3,0.1c0,0,0-0.1,0-0.1c0.7-1.3,1.3-2.6,1.9-4c0.5-1.3,1-2.5,1.3-3.8
			c0.1-0.5,0.2-0.9,0.4-1.4c0.2-0.8,0.3-1.7,0.5-2.6c0.1-0.7,0.2-1.5,0.2-2.3c0-0.3,0-0.7,0-1c0-0.7,0-1.3-0.1-2
			c0-0.3-0.1-0.6-0.1-0.8c0-0.3-0.1-0.7-0.2-1c-0.1-0.5-0.2-0.9-0.3-1.4c-0.2-0.8-0.4-1.6-0.7-2.4c-0.4-1.1-0.9-2.2-1.5-3.3
			c0-0.1-0.1-0.1-0.2-0.1c-0.6,0.2-1.3,0.5-1.8,0.9c-0.5,0.3-1,0.7-1.5,1.1c-0.3,0.3-0.6,0.6-1,0.9c-0.4,0.4-0.8,0.8-1.2,1.3
			c-0.4,0.5-0.8,1-1.1,1.6c-0.6,0.8-1.1,1.7-1.6,2.5c-1.4,2.2-2.6,4.5-3.9,6.8c-0.4,0.8-0.9,1.6-1.3,2.4c-0.5,0.9-0.9,1.8-1.4,2.7
			c-0.3,0.5-0.5,1-0.8,1.5c-0.4,0.7-0.8,1.5-1.1,2.2c-0.4,0.7-0.7,1.4-1,2c-0.2,0.3-0.3,0.6-0.5,0.9c0,0-0.1,0-0.1,0
			c-0.1-0.1-0.2-0.1-0.4-0.2c0,0,0-0.1-0.1-0.1c-0.1-0.1-0.2-0.2-0.4-0.2c-0.1,0-0.1-0.1,0-0.2c0.3-0.6,0.6-1.1,0.8-1.7
			c0.4-0.8,0.8-1.6,1.2-2.3c0.2-0.5,0.5-0.9,0.7-1.4c0.3-0.6,0.6-1.1,0.9-1.7c0.4-0.8,0.8-1.6,1.2-2.5c0.3-0.6,0.7-1.3,1-1.9
			c0.3-0.6,0.7-1.3,1-1.9c1-1.9,2.1-3.7,3.2-5.5c0.8-1.2,1.6-2.4,2.5-3.6c0.2-0.3,0.4-0.6,0.7-0.8c0.3-0.4,0.6-0.7,1-1.1
			c0.2-0.2,0.4-0.4,0.6-0.6c0.2-0.1,0.3-0.3,0.5-0.4c0.4-0.3,0.7-0.6,1.1-0.8c0.4-0.3,0.8-0.5,1.3-0.7c0.3-0.1,0.5-0.2,0.8-0.3
			c0.1,0,0.1,0,0.1-0.1c-0.8-1.3-1.7-2.5-2.6-3.6c0-0.1-0.1-0.1-0.2-0.1c-0.9,0.2-1.8,0.4-2.6,0.6c-1,0.3-2.1,0.6-3.1,1
			c-1.8,0.7-3.4,1.5-5.1,2.5c-1.2,0.7-2.3,1.5-3.3,2.4c-0.5,0.4-0.9,0.8-1.4,1.2c-0.7,0.6-1.4,1.3-2,2c-0.7,0.7-1.3,1.5-1.9,2.2
			c-0.5,0.6-0.9,1.2-1.3,1.8c-0.7,1.1-1.4,2.2-2,3.3C38.9,24.1,38.4,25,38,26c-0.3,0.8-0.7,1.6-0.9,2.3c0,0,0,0,0,0.1
			c0-0.1-0.1-0.1-0.1-0.2C36.8,27.8,36.7,27.3,36.5,26.8C36.5,26.9,36.5,26.9,36.5,26.8z"/>
		<path class="st6" d="M47.1,38c0.2-0.3,0.3-0.6,0.5-0.9c0.3-0.7,0.7-1.4,1-2c0.4-0.7,0.8-1.5,1.1-2.2c0.3-0.5,0.5-1,0.8-1.5
			c0.5-0.9,0.9-1.8,1.4-2.7c0.4-0.8,0.8-1.6,1.3-2.4c1.2-2.3,2.5-4.6,3.9-6.8c0.5-0.8,1.1-1.7,1.6-2.5c0.4-0.5,0.8-1,1.1-1.6
			c0.3-0.5,0.8-0.9,1.2-1.3c0.3-0.3,0.6-0.6,1-0.9c0.5-0.4,1-0.8,1.5-1.1c0.6-0.4,1.2-0.7,1.8-0.9c0.1,0,0.1,0,0.2,0.1
			c0.6,1.1,1.1,2.1,1.5,3.3c0.3,0.8,0.5,1.6,0.7,2.4c0.1,0.5,0.2,0.9,0.3,1.4c0.1,0.3,0.1,0.7,0.2,1c0,0.3,0.1,0.6,0.1,0.8
			c0.1,0.7,0.1,1.3,0.1,2c0,0.3,0,0.7,0,1c0,0.8-0.1,1.5-0.2,2.3c-0.1,0.9-0.3,1.7-0.5,2.6c-0.1,0.5-0.2,0.9-0.4,1.4
			c-0.3,1.3-0.8,2.6-1.3,3.8c-0.6,1.4-1.2,2.7-1.9,4c0,0,0,0,0,0.1c0.1,0,0.2-0.1,0.3-0.1c0.4-0.2,0.9-0.4,1.3-0.6
			c0.1,0,0.1-0.1,0.1-0.1c0.5-1,0.9-2,1.3-3.1c0.6-1.5,1.1-3.1,1.5-4.7c0.2-0.9,0.4-1.8,0.5-2.7c0.1-0.5,0.1-0.9,0.2-1.4
			c0-0.4,0.1-0.8,0.1-1.3c0.1-0.8,0.1-1.7,0-2.5c0-0.7-0.1-1.5-0.2-2.2c-0.2-1.5-0.6-3-1-4.5c-0.3-0.8-0.6-1.6-0.9-2.3
			c-0.1-0.3-0.3-0.6-0.4-0.9c0,0-0.1-0.1,0-0.1c0.9-0.1,1.8,0.1,2.6,0.4c0.9,0.3,1.6,0.9,2.3,1.5c1,0.9,1.8,1.9,2.6,3
			c0,0.1,0.1,0.1,0.1,0.2c0,0,0,0,0,0c0,0,0,0,0,0c0-0.3-0.1-0.5-0.1-0.8c0,0,0-0.1,0-0.1c0.1,0.3,0.2,0.6,0.2,0.9
			c0.2,0.8,0.3,1.7,0.3,2.5c0.1,0.8,0.1,1.7,0,2.6c-0.1,1-0.2,1.9-0.4,2.8c-0.4,1.7-0.9,3.3-1.7,4.9c-1.1,2.1-2.5,4-4.2,5.6
			c-1.8,1.7-3.9,3-6.3,3.9c-1.2,0.5-2.5,0.8-3.7,1.1c-0.8,0.1-1.5,0.2-2.3,0.3c-0.7,0-1.5,0.1-2.2,0c-2.1-0.1-4.1-0.5-6.1-1.3
			C47.7,38.3,47.4,38.2,47.1,38z"/>
		<path class="st6" d="M37.1,28.3c0.3-0.8,0.6-1.6,0.9-2.3c0.4-0.9,0.8-1.8,1.3-2.7c0.6-1.1,1.3-2.2,2-3.3c0.4-0.6,0.9-1.2,1.3-1.8
			c0.6-0.8,1.2-1.5,1.9-2.2c0.6-0.7,1.3-1.3,2-2c0.5-0.4,0.9-0.8,1.4-1.2c1.1-0.9,2.2-1.6,3.3-2.4c1.6-1,3.3-1.8,5.1-2.5
			c1-0.4,2-0.7,3.1-1c0.9-0.2,1.8-0.4,2.6-0.6c0.1,0,0.1,0,0.2,0.1c0.9,1.2,1.8,2.4,2.6,3.6c0.1,0.1,0.1,0.1-0.1,0.1
			c-0.3,0.1-0.5,0.2-0.8,0.3c-0.5,0.2-0.9,0.5-1.3,0.7c-0.4,0.2-0.8,0.6-1.1,0.8c-0.2,0.1-0.3,0.3-0.5,0.4c-0.2,0.2-0.4,0.4-0.6,0.6
			c-0.3,0.3-0.6,0.7-1,1.1c-0.2,0.3-0.5,0.5-0.7,0.8c-0.9,1.2-1.7,2.3-2.5,3.6C55.1,20.2,54,22,53,23.9c-0.3,0.6-0.7,1.3-1,1.9
			c-0.3,0.6-0.7,1.3-1,1.9c-0.4,0.8-0.8,1.6-1.2,2.5c-0.3,0.6-0.6,1.2-0.9,1.7c-0.2,0.5-0.5,0.9-0.7,1.4c-0.4,0.8-0.8,1.6-1.2,2.3
			c-0.3,0.6-0.6,1.1-0.8,1.7c0,0.1,0,0.1,0,0.2c0.1,0.1,0.2,0.1,0.4,0.2c0,0,0.1,0,0.1,0.1c-0.4-0.2-0.8-0.4-1.2-0.6
			c-0.4-0.2-0.7-0.4-1.1-0.6c-0.9-0.6-1.7-1.2-2.5-1.9C39.9,32.9,38.3,30.8,37.1,28.3C37.1,28.4,37.1,28.3,37.1,28.3z"/>
		<path class="st6" d="M74.2,14.4c-0.1-0.1-0.2-0.2-0.3-0.3c-0.9-1.1-1.9-2.1-3-2.9C70,10.6,69,10.1,68,9.9
			c-0.6-0.1-1.1-0.2-1.7-0.1c-0.1,0-0.1,0-0.2-0.1c-0.8-1.3-1.6-2.5-2.6-3.6c0,0,0,0,0-0.1c0,0,0,0,0.1,0c0.5-0.1,1-0.1,1.5-0.2
			c0.9-0.1,1.8-0.1,2.6-0.1c0.4,0,0.9,0,1.3,0c0.9,0.8,1.7,1.8,2.4,2.7c1.2,1.7,2.1,3.5,2.7,5.5C74.2,14.1,74.2,14.3,74.2,14.4z"/>
		<path class="st6" d="M68.4,5.1C68.3,5.2,68.3,5.1,68.4,5.1C68.2,5,68.1,5,68,5c-0.4,0-0.8,0-1.2,0c-0.8,0-1.5,0-2.3,0.1
			c-0.5,0-1.1,0.1-1.6,0.2c-0.1,0-0.1,0-0.2-0.1c-0.8-0.8-1.6-1.7-2.4-2.4C59.9,2.4,59.5,2,59,1.6c0,0,0,0-0.1-0.1
			c0.2,0,0.3-0.1,0.5-0.1c0.6-0.1,1.1-0.2,1.7-0.4c0,0,0.1,0,0.1,0c0.1,0,0.2,0.1,0.3,0.1C64,2,66.2,3.2,68.1,4.9
			C68.2,5,68.3,5.1,68.4,5.1z"/>
		<path class="st6" d="M59.3,0.5c-0.4,0.1-0.8,0.2-1.2,0.3c0,0-0.1,0-0.1,0c-0.3-0.2-0.5-0.4-0.8-0.6c0.3,0,0.7,0.1,1,0.1
			C58.6,0.4,58.9,0.5,59.3,0.5C59.3,0.5,59.3,0.5,59.3,0.5z"/>
		<path class="st6" d="M68.4,5.2C68.4,5.2,68.4,5.2,68.4,5.2C68.4,5.1,68.4,5.2,68.4,5.2z"/>
		<path class="st6" d="M74.3,14.5C74.2,14.5,74.2,14.4,74.3,14.5C74.3,14.4,74.3,14.5,74.3,14.5z"/>
		<path class="st6" d="M68.4,5.2C68.4,5.2,68.4,5.2,68.4,5.2C68.4,5.2,68.5,5.2,68.4,5.2z"/>
		<path class="st6" d="M57.3,0.2C57.3,0.2,57.2,0.2,57.3,0.2C57.3,0.2,57.3,0.2,57.3,0.2z"/>
		<polygon class="st7" points="37.7,10.7 37.6,10.7 37.7,10.7 		"/>
		<path class="st6" d="M38.3,9.4c0.1-0.2,0.2-0.4,0.4-0.6c1.5-2.2,3.4-4.1,5.7-5.6c1.4-0.9,2.9-1.6,4.4-2.1c0.8-0.3,1.7-0.5,2.6-0.7
			c0.3-0.1,0.6-0.1,1-0.2c0.2,0,0.5-0.1,0.7-0.1c0.2,0,0.4,0,0.6-0.1c0.2,0,0.4,0,0.6,0c0.6,0,1.2,0,1.8,0c0,0,0.1,0,0.1,0
			c0,0-0.1,0-0.1,0c0,0-0.1,0-0.1,0c0,0,0,0,0,0.1c0.3,0.3,0.7,0.6,1,0.8c-0.3,0.1-0.5,0.1-0.8,0.2c-2,0.5-4,1-5.9,1.6
			c-0.6,0.2-1.3,0.4-1.9,0.6c-0.7,0.2-1.4,0.5-2,0.8c-0.4,0.2-0.8,0.4-1.2,0.5c-0.5,0.2-1,0.5-1.5,0.7c-0.5,0.3-1,0.6-1.4,0.9
			c-0.4,0.3-0.8,0.6-1.3,0.9c-0.2,0.2-0.5,0.4-0.7,0.6c-0.4,0.4-0.9,0.7-1.3,1C38.7,9.1,38.5,9.2,38.3,9.4
			C38.3,9.4,38.3,9.4,38.3,9.4z"/>
		<path class="st6" d="M37.7,10.4C37.7,10.3,37.7,10.3,37.7,10.4C37.7,10.3,37.7,10.3,37.7,10.4z"/>
		<path class="st6" d="M38.2,9.4C38.2,9.4,38.2,9.4,38.2,9.4C38.3,9.4,38.2,9.4,38.2,9.4z"/>
		<path class="st7" d="M74.5,16C74.5,16,74.5,16,74.5,16C74.5,16,74.5,16,74.5,16L74.5,16z"/>
	</g>
	<path class="st5" d="M51.5,155.4l-25,15l18.5-6.5l-18.5,13l21.5-9.5l-13,12.5l18-8.5l-8.5,10.5l14.5-9
		C59,172.9,72,151.9,51.5,155.4z"/>
	<g>
		<path class="st6" d="M52.6,164.8c-0.2-0.6-0.4-1.2-0.5-1.8c-0.1-0.4-0.1-0.8-0.1-1.1c0,0,0,0,0,0c0-0.3,0-0.5,0-0.8
			c0-0.1,0-0.1,0-0.2c0-0.4,0.1-0.9,0.2-1.3c0.2-0.9,0.5-1.7,0.9-2.5c0-0.1,0.1-0.2,0.1-0.3c0,0.1,0,0.1,0,0.2c0,0,0,0,0,0
			c0,0,0,0,0,0c0,0,0,0,0,0c0.2-0.1,0.4-0.3,0.6-0.4c0.4-0.3,0.9-0.6,1.3-0.9c0.4-0.3,0.9-0.5,1.3-0.8c0.6-0.3,1.2-0.5,1.8-0.8
			c0.8-0.3,1.5-0.5,2.3-0.8c0.8-0.2,1.5-0.4,2.3-0.6c0,0,0,0,0.1,0c0.2,0.2,0.4,0.4,0.6,0.6c0.3,0.3,0.6,0.6,0.8,0.9
			c0.1,0.1,0.2,0.2,0.2,0.3c0,0,0,0,0,0c0,0-0.1,0-0.1,0c-0.6,0.1-1.1,0.2-1.7,0.4c-0.5,0.1-0.9,0.3-1.4,0.5c-0.3,0.1-0.7,0.3-1,0.4
			c-0.7,0.3-1.4,0.8-2,1.2c-0.4,0.3-0.8,0.6-1.2,1c-0.3,0.2-0.5,0.5-0.7,0.7c-0.1,0.1-0.2,0.3-0.4,0.4c-0.1,0.1-0.2,0.2-0.2,0.3
			c-0.1,0.1-0.2,0.2-0.3,0.3c-0.1,0.2-0.3,0.3-0.4,0.5c-0.1,0.2-0.3,0.4-0.4,0.5c-0.2,0.3-0.3,0.5-0.5,0.8c-0.5,0.7-0.9,1.5-1.3,2.3
			C52.9,164.1,52.8,164.4,52.6,164.8z"/>
		<path class="st7" d="M52.6,164.8c0.2-0.3,0.3-0.7,0.5-1c0.4-0.8,0.8-1.5,1.3-2.3c0.2-0.3,0.3-0.5,0.5-0.8c0.1-0.2,0.3-0.4,0.4-0.5
			c0.1-0.2,0.2-0.3,0.4-0.5c0.1-0.1,0.2-0.2,0.3-0.3c0.1-0.1,0.2-0.2,0.2-0.3c0.1-0.1,0.2-0.3,0.4-0.4c0.2-0.2,0.5-0.5,0.7-0.7
			c0.4-0.4,0.8-0.7,1.2-1c0.6-0.5,1.3-0.9,2-1.2c0.3-0.2,0.7-0.3,1-0.4c0.5-0.2,0.9-0.3,1.4-0.5c0.6-0.2,1.1-0.3,1.7-0.4
			c0,0,0.1,0,0.1,0c0,0,0,0,0,0c-0.1-0.1-0.2-0.2-0.2-0.3c-0.3-0.3-0.5-0.6-0.8-0.9c-0.2-0.2-0.4-0.4-0.6-0.6c0,0,0,0-0.1,0
			c-0.8,0.2-1.5,0.4-2.3,0.6c-0.8,0.2-1.6,0.5-2.3,0.8c-0.6,0.2-1.2,0.5-1.8,0.8c-0.5,0.2-0.9,0.5-1.3,0.8c-0.4,0.3-0.9,0.6-1.3,0.9
			c-0.2,0.1-0.4,0.3-0.6,0.4c0,0,0,0,0,0l0,0c0-0.1,0-0.1,0-0.2l0,0c0,0,0,0,0,0c0-0.1,0-0.2,0-0.2c0,0,0,0,0-0.1
			c0.1,0,0.1-0.1,0.2-0.1c0,0,0,0,0,0l0,0c0,0,0,0,0,0c0.1-0.1,0.2-0.2,0.3-0.2c0.2-0.2,0.4-0.3,0.6-0.5c0.1-0.1,0.2-0.2,0.4-0.3
			c0.2-0.2,0.4-0.3,0.6-0.5c0.2-0.2,0.4-0.3,0.7-0.4c0.2-0.1,0.5-0.2,0.7-0.3c0.2-0.1,0.4-0.2,0.6-0.3c0.3-0.1,0.6-0.3,1-0.4
			c0.3-0.1,0.6-0.2,0.9-0.3c0.9-0.3,1.9-0.5,2.9-0.8c0.1,0,0.2-0.1,0.4-0.1c-0.2-0.1-0.3-0.3-0.5-0.4c0,0,0,0,0,0c0,0,0,0,0,0
			c0,0,0,0,0.1,0c0.1,0,0.3,0,0.4-0.1c0,0,0,0,0,0c0,0,0.1,0.1,0.1,0.1c0,0,0,0,0,0l0,0c0.1,0.1,0.2,0.2,0.4,0.3c0,0,0,0,0,0
			c0.2,0,0.4-0.1,0.6-0.1c0,0,0,0,0,0c0.1,0,0.2,0,0.3,0c0.2,0.1,0.4,0.1,0.5,0.2c0,0,0.1,0,0.1,0c0,0,0,0,0,0
			c-0.3,0.1-0.5,0.1-0.8,0.2c-0.1,0-0.2,0-0.2,0.1c0,0,0,0,0,0c0.2,0.2,0.4,0.4,0.6,0.6c0.4,0.4,0.8,0.8,1.2,1.2c0,0,0.1,0,0.1,0
			c0.3,0,0.5-0.1,0.8-0.1c0.4,0,0.7,0,1.1-0.1c0.2,0,0.4,0,0.6,0c0.1,0,0.1,0,0.1,0c0,0,0,0,0,0l0,0c0,0,0,0,0,0l0,0c0,0,0,0,0,0
			c0.1,0.1,0.2,0.1,0.3,0.2c0,0,0,0-0.1,0c-0.2,0-0.4,0-0.6,0c-0.4,0-0.8,0-1.3,0.1c-0.2,0-0.5,0-0.7,0.1c0,0,0,0,0,0c0,0,0,0,0,0
			c0.5,0.5,0.9,1.1,1.2,1.7c0,0,0,0.1,0.1,0c0.3,0,0.6,0,0.8,0.1c0.5,0.1,1,0.3,1.4,0.6c0.6,0.4,1,0.9,1.5,1.4
			c0,0.1,0.1,0.1,0.1,0.2l0,0c0,0,0,0,0,0c0.1,0.1,0,0.1,0.1,0.2c0,0,0,0,0,0.1c0,0,0,0,0,0.1c0,0.1,0,0.3,0,0.4l0,0
			c0,0,0-0.1-0.1-0.1c-0.4-0.5-0.8-1-1.3-1.5c-0.3-0.3-0.7-0.5-1.1-0.7c-0.4-0.2-0.8-0.2-1.3-0.2c0,0,0,0,0,0
			c0.1,0.1,0.1,0.3,0.2,0.4c0.2,0.4,0.3,0.7,0.5,1.1c0.2,0.7,0.4,1.4,0.5,2.2c0,0.4,0.1,0.7,0.1,1.1c0,0.4,0,0.8,0,1.2
			c0,0.2,0,0.4,0,0.6c0,0.2,0,0.4-0.1,0.7c-0.1,0.4-0.2,0.9-0.3,1.3c-0.2,0.8-0.4,1.5-0.7,2.3c-0.2,0.5-0.4,1-0.6,1.5
			c0,0,0,0-0.1,0.1c-0.2,0.1-0.4,0.2-0.6,0.3c0,0-0.1,0-0.1,0.1c0,0,0,0,0,0c0.3-0.6,0.6-1.3,0.9-1.9c0.2-0.6,0.5-1.2,0.6-1.9
			c0.1-0.2,0.1-0.4,0.2-0.7c0.1-0.4,0.2-0.8,0.2-1.2c0-0.4,0.1-0.7,0.1-1.1c0-0.2,0-0.3,0-0.5c0-0.3,0-0.7-0.1-1c0-0.1,0-0.3,0-0.4
			c0-0.2,0-0.3-0.1-0.5c0-0.2-0.1-0.4-0.1-0.7c-0.1-0.4-0.2-0.8-0.4-1.2c-0.2-0.5-0.4-1.1-0.7-1.6c0,0,0-0.1-0.1,0
			c-0.3,0.1-0.6,0.3-0.9,0.4c-0.3,0.2-0.5,0.3-0.7,0.5c-0.2,0.1-0.3,0.3-0.5,0.4c-0.2,0.2-0.4,0.4-0.6,0.6c-0.2,0.3-0.4,0.5-0.5,0.8
			c-0.3,0.4-0.5,0.8-0.8,1.2c-0.7,1.1-1.3,2.2-1.9,3.3c-0.2,0.4-0.4,0.8-0.6,1.2c-0.2,0.4-0.5,0.9-0.7,1.3c-0.1,0.2-0.2,0.5-0.4,0.7
			c-0.2,0.4-0.4,0.7-0.6,1.1c-0.2,0.3-0.3,0.7-0.5,1c-0.1,0.2-0.2,0.3-0.2,0.5c0,0,0,0,0,0c-0.1,0-0.1-0.1-0.2-0.1c0,0,0,0,0,0
			c-0.1,0-0.1-0.1-0.2-0.1c0,0,0,0,0-0.1c0.1-0.3,0.3-0.5,0.4-0.8c0.2-0.4,0.4-0.8,0.6-1.1c0.1-0.2,0.2-0.5,0.3-0.7
			c0.1-0.3,0.3-0.6,0.4-0.8c0.2-0.4,0.4-0.8,0.6-1.2c0.2-0.3,0.3-0.6,0.5-0.9c0.2-0.3,0.3-0.6,0.5-0.9c0.5-0.9,1-1.8,1.6-2.7
			c0.4-0.6,0.8-1.2,1.2-1.7c0.1-0.1,0.2-0.3,0.3-0.4c0.2-0.2,0.3-0.3,0.5-0.5c0.1-0.1,0.2-0.2,0.3-0.3c0.1-0.1,0.2-0.1,0.2-0.2
			c0.2-0.1,0.4-0.3,0.6-0.4c0.2-0.1,0.4-0.3,0.6-0.3c0.1-0.1,0.3-0.1,0.4-0.2c0.1,0,0.1,0,0-0.1c-0.4-0.6-0.8-1.2-1.3-1.8
			c0,0,0,0-0.1,0c-0.4,0.1-0.9,0.2-1.3,0.3c-0.5,0.1-1,0.3-1.5,0.5c-0.9,0.3-1.7,0.7-2.4,1.2c-0.6,0.3-1.1,0.7-1.6,1.1
			c-0.2,0.2-0.5,0.4-0.7,0.6c-0.3,0.3-0.7,0.6-1,1c-0.3,0.3-0.6,0.7-0.9,1.1c-0.2,0.3-0.4,0.6-0.6,0.9c-0.3,0.5-0.7,1-1,1.6
			c-0.2,0.4-0.4,0.9-0.6,1.3c-0.2,0.4-0.3,0.7-0.5,1.1c0,0,0,0,0,0c0,0,0-0.1,0-0.1C52.8,165.2,52.7,165,52.6,164.8
			C52.7,164.8,52.6,164.8,52.6,164.8z"/>
		<path class="st6" d="M57.8,170.2c0.1-0.2,0.2-0.3,0.2-0.5c0.2-0.3,0.3-0.7,0.5-1c0.2-0.4,0.4-0.7,0.6-1.1c0.1-0.2,0.2-0.5,0.4-0.7
			c0.2-0.4,0.4-0.9,0.7-1.3c0.2-0.4,0.4-0.8,0.6-1.2c0.6-1.1,1.2-2.2,1.9-3.3c0.3-0.4,0.5-0.8,0.8-1.2c0.2-0.3,0.4-0.5,0.5-0.8
			c0.2-0.2,0.4-0.4,0.6-0.6c0.1-0.1,0.3-0.3,0.5-0.4c0.2-0.2,0.5-0.4,0.7-0.5c0.3-0.2,0.6-0.3,0.9-0.4c0,0,0.1,0,0.1,0
			c0.3,0.5,0.5,1,0.7,1.6c0.1,0.4,0.3,0.8,0.4,1.2c0.1,0.2,0.1,0.4,0.1,0.7c0,0.2,0.1,0.3,0.1,0.5c0,0.1,0,0.3,0,0.4
			c0,0.3,0.1,0.6,0.1,1c0,0.2,0,0.3,0,0.5c0,0.4,0,0.7-0.1,1.1c-0.1,0.4-0.1,0.8-0.2,1.2c-0.1,0.2-0.1,0.4-0.2,0.7
			c-0.2,0.6-0.4,1.2-0.6,1.9c-0.3,0.7-0.6,1.3-0.9,1.9c0,0,0,0,0,0c0.1,0,0.1,0,0.1-0.1c0.2-0.1,0.4-0.2,0.6-0.3c0,0,0,0,0.1-0.1
			c0.2-0.5,0.4-1,0.6-1.5c0.3-0.7,0.5-1.5,0.7-2.3c0.1-0.4,0.2-0.9,0.3-1.3c0-0.2,0.1-0.4,0.1-0.7c0-0.2,0-0.4,0-0.6
			c0-0.4,0-0.8,0-1.2c0-0.4,0-0.7-0.1-1.1c-0.1-0.7-0.3-1.5-0.5-2.2c-0.1-0.4-0.3-0.8-0.5-1.1c-0.1-0.1-0.1-0.3-0.2-0.4c0,0,0,0,0,0
			c0.4,0,0.9,0,1.3,0.2c0.4,0.2,0.8,0.4,1.1,0.7c0.5,0.4,0.9,0.9,1.3,1.5c0,0,0,0.1,0.1,0.1c0,0,0,0,0,0c0,0,0,0,0,0
			c0-0.1,0-0.3,0-0.4c0,0,0,0,0-0.1c0,0.1,0.1,0.3,0.1,0.4c0.1,0.4,0.1,0.8,0.2,1.2c0,0.4,0,0.8,0,1.2c0,0.5-0.1,0.9-0.2,1.4
			c-0.2,0.8-0.4,1.6-0.8,2.4c-0.5,1-1.2,1.9-2,2.7c-0.9,0.8-1.9,1.5-3,1.9c-0.6,0.2-1.2,0.4-1.8,0.5c-0.4,0.1-0.7,0.1-1.1,0.1
			c-0.4,0-0.7,0-1.1,0c-1-0.1-2-0.3-3-0.6C58.1,170.3,57.9,170.2,57.8,170.2z"/>
		<path class="st6" d="M52.9,165.5c0.1-0.4,0.3-0.8,0.5-1.1c0.2-0.4,0.4-0.9,0.6-1.3c0.3-0.5,0.6-1.1,1-1.6c0.2-0.3,0.4-0.6,0.6-0.9
			c0.3-0.4,0.6-0.7,0.9-1.1c0.3-0.3,0.6-0.7,1-1c0.2-0.2,0.4-0.4,0.7-0.6c0.5-0.4,1-0.8,1.6-1.1c0.8-0.5,1.6-0.9,2.4-1.2
			c0.5-0.2,1-0.4,1.5-0.5c0.4-0.1,0.8-0.2,1.3-0.3c0,0,0.1,0,0.1,0c0.5,0.6,0.9,1.1,1.3,1.8c0,0.1,0,0.1,0,0.1
			c-0.1,0-0.3,0.1-0.4,0.2c-0.2,0.1-0.4,0.2-0.6,0.3c-0.2,0.1-0.4,0.3-0.6,0.4c-0.1,0.1-0.2,0.1-0.2,0.2c-0.1,0.1-0.2,0.2-0.3,0.3
			c-0.2,0.2-0.3,0.3-0.5,0.5c-0.1,0.1-0.2,0.3-0.3,0.4c-0.4,0.6-0.8,1.1-1.2,1.7c-0.5,0.9-1.1,1.8-1.6,2.7c-0.2,0.3-0.3,0.6-0.5,0.9
			c-0.2,0.3-0.3,0.6-0.5,0.9c-0.2,0.4-0.4,0.8-0.6,1.2c-0.1,0.3-0.3,0.6-0.4,0.8c-0.1,0.2-0.2,0.5-0.3,0.7c-0.2,0.4-0.4,0.8-0.6,1.1
			c-0.1,0.3-0.3,0.5-0.4,0.8c0,0,0,0.1,0,0.1c0.1,0,0.1,0.1,0.2,0.1c0,0,0,0,0,0c-0.2-0.1-0.4-0.2-0.6-0.3c-0.2-0.1-0.3-0.2-0.5-0.3
			c-0.4-0.3-0.8-0.6-1.2-0.9C54.3,167.7,53.5,166.7,52.9,165.5C53,165.5,52.9,165.5,52.9,165.5z"/>
		<path class="st6" d="M70.9,158.8c-0.1,0-0.1-0.1-0.1-0.2c-0.4-0.5-0.9-1-1.5-1.4c-0.4-0.3-0.9-0.5-1.4-0.6
			c-0.3-0.1-0.5-0.1-0.8-0.1c0,0-0.1,0-0.1,0c-0.4-0.6-0.8-1.2-1.2-1.7c0,0,0,0,0,0c0,0,0,0,0,0c0.2,0,0.5-0.1,0.7-0.1
			c0.4,0,0.8-0.1,1.3-0.1c0.2,0,0.4,0,0.6,0c0.4,0.4,0.8,0.8,1.1,1.3c0.6,0.8,1,1.7,1.3,2.6C70.8,158.6,70.9,158.7,70.9,158.8z"/>
		<path class="st6" d="M68.1,154.3C68,154.3,68,154.3,68.1,154.3c-0.1-0.1-0.1-0.1-0.2-0.1c-0.2,0-0.4,0-0.6,0c-0.4,0-0.7,0-1.1,0.1
			c-0.3,0-0.5,0-0.8,0.1c0,0-0.1,0-0.1,0c-0.4-0.4-0.8-0.8-1.2-1.2c-0.2-0.2-0.4-0.4-0.6-0.6c0,0,0,0,0,0c0.1,0,0.2,0,0.2-0.1
			c0.3-0.1,0.5-0.1,0.8-0.2c0,0,0,0,0,0c0.1,0,0.1,0,0.2,0c1.2,0.4,2.3,1,3.2,1.8C68,154.2,68,154.2,68.1,154.3z"/>
		<path class="st6" d="M63.7,152.1c-0.2,0-0.4,0.1-0.6,0.1c0,0,0,0,0,0c-0.1-0.1-0.2-0.2-0.4-0.3c0.2,0,0.3,0,0.5,0.1
			C63.3,152,63.5,152,63.7,152.1C63.7,152.1,63.7,152.1,63.7,152.1z"/>
		<path class="st6" d="M68.1,154.3C68.1,154.3,68,154.3,68.1,154.3C68.1,154.3,68.1,154.3,68.1,154.3z"/>
		<path class="st6" d="M70.9,158.8C70.9,158.8,70.9,158.8,70.9,158.8C70.9,158.8,70.9,158.8,70.9,158.8z"/>
		<path class="st6" d="M68.1,154.3C68.1,154.3,68.1,154.3,68.1,154.3C68.1,154.3,68.1,154.3,68.1,154.3z"/>
		<path class="st6" d="M62.7,151.9C62.7,151.9,62.7,151.9,62.7,151.9C62.7,151.9,62.7,151.9,62.7,151.9z"/>
		<polygon class="st7" points="53.2,157 53.2,157 53.2,157 		"/>
		<path class="st6" d="M53.5,156.3c0-0.1,0.1-0.2,0.2-0.3c0.7-1.1,1.7-2,2.8-2.7c0.7-0.4,1.4-0.8,2.1-1c0.4-0.1,0.8-0.2,1.2-0.3
			c0.2,0,0.3-0.1,0.5-0.1c0.1,0,0.2,0,0.3,0c0.1,0,0.2,0,0.3,0c0.1,0,0.2,0,0.3,0c0.3,0,0.6,0,0.9,0c0,0,0,0,0,0c0,0,0,0-0.1,0
			c0,0,0,0,0,0c0,0,0,0,0,0c0.2,0.1,0.3,0.3,0.5,0.4c-0.1,0-0.3,0.1-0.4,0.1c-1,0.2-1.9,0.5-2.9,0.8c-0.3,0.1-0.6,0.2-0.9,0.3
			c-0.3,0.1-0.7,0.2-1,0.4c-0.2,0.1-0.4,0.2-0.6,0.3c-0.2,0.1-0.5,0.2-0.7,0.3c-0.2,0.1-0.5,0.3-0.7,0.4c-0.2,0.1-0.4,0.3-0.6,0.5
			c-0.1,0.1-0.2,0.2-0.4,0.3c-0.2,0.2-0.4,0.3-0.6,0.5C53.7,156.2,53.6,156.3,53.5,156.3C53.5,156.3,53.5,156.3,53.5,156.3z"/>
		<path class="st6" d="M53.2,156.8C53.2,156.8,53.2,156.8,53.2,156.8C53.2,156.8,53.2,156.8,53.2,156.8z"/>
		<path class="st6" d="M53.5,156.4C53.5,156.4,53.5,156.3,53.5,156.4C53.5,156.4,53.5,156.4,53.5,156.4z"/>
		<polygon class="st7" points="71,159.5 71,159.5 71,159.5 		"/>
	</g>
	<g>
		<path class="st1" d="M53.3,182.9c2.1-0.4,2.4-1.6,2.6-2.8l1.9-0.4l3.5,17.7l-2.8,0.5l-2.7-13.5l-2.1,0.4L53.3,182.9z"/>
		<path class="st1" d="M69.2,177.4l0.5,2.4l-1.1,16l-2.8,0.5l1.1-15.9l-5.5,1.1l-0.5-2.5L69.2,177.4z"/>
	</g>
	<g>
		<path class="st1" d="M33.1,151c1.6-0.9,2.9-0.3,3.8,1.3l0.2,0.3l-1.5,0.8l-0.2-0.4c-0.4-0.7-0.8-0.9-1.4-0.6s-0.7,0.7-0.3,1.5
			c1.1,2.1,4.5,0.8,6.1,3.8c0.9,1.7,0.6,3-1,3.9c-1.6,0.9-2.9,0.4-3.8-1.3l-0.3-0.6l1.5-0.8l0.4,0.7c0.4,0.7,0.9,0.8,1.4,0.5
			c0.5-0.3,0.7-0.7,0.3-1.5c-1.1-2.1-4.5-0.8-6.1-3.8C31.2,153.2,31.5,151.8,33.1,151z"/>
		<path class="st1" d="M38.1,148.5l4.3,8c0.4,0.7,0.9,0.8,1.4,0.5c0.5-0.3,0.7-0.7,0.3-1.5l-4.3-8l1.5-0.8l4.3,7.9
			c0.9,1.7,0.6,3-1,3.9c-1.6,0.9-2.9,0.4-3.8-1.3l-4.3-7.9L38.1,148.5z"/>
		<path class="st1" d="M45.4,148.2l4,7.5l-1.5,0.8l-5.6-10.3l2-1.1l5,5.3l-3.3-6.2l1.4-0.8l5.6,10.3l-1.7,0.9L45.4,148.2z"/>
		<path class="st1" d="M50.8,141.4c1.6-0.9,2.9-0.3,3.8,1.3l0.2,0.3l-1.5,0.8l-0.2-0.4c-0.4-0.7-0.8-0.9-1.4-0.6
			c-0.5,0.3-0.7,0.7-0.3,1.5c1.1,2.1,4.5,0.8,6.1,3.8c0.9,1.7,0.6,3-1,3.9c-1.6,0.9-2.9,0.4-3.8-1.3l-0.3-0.6l1.5-0.8l0.4,0.7
			c0.4,0.7,0.9,0.8,1.4,0.5s0.7-0.7,0.3-1.5c-1.1-2.1-4.5-0.8-6.1-3.8C48.9,143.6,49.2,142.3,50.8,141.4z"/>
	</g>
	<path class="st2" d="M28.5,212.4c0,0,30.5,9.5,52,0l1.8,6.2c0,0-24,15.5-53.5,1L28.5,212.4z"/>
	<path class="st0" d="M34,28.4c0,0,12.5-1,19.5-8s-6-10-6-10s-6.5-3-10.5,3c0,0-0.1-4-3.8-1.5s-0.9,12.4-0.9,12.4L34,28.4z"/>
	<path class="st0" d="M30,119.4L18,74.9l20.5-48l-4.5-6l-34,56l23,74C23,150.9,30.5,136.9,30,119.4z"/>
	<polygon class="st0" points="82.5,123.9 90.2,86.7 73.5,42.9 77,36.4 109.2,84.4 95.5,134.7 	"/>
	<polygon class="st0" points="95.5,134.7 95.2,135.4 84.8,159 84.2,126.4 90.8,118.4 	"/>
</g>
</svg>
