<?xml version="1.0" encoding="utf-8"?>
<!-- Generator: Adobe Illustrator 19.0.0, SVG Export Plug-In . SVG Version: 6.00 Build 0)  -->
<!DOCTYPE svg PUBLIC "-//W3C//DTD SVG 1.1//EN" "http://www.w3.org/Graphics/SVG/1.1/DTD/svg11.dtd">
<svg version="1.1" id="Layer_1" xmlns="http://www.w3.org/2000/svg" xmlns:xlink="http://www.w3.org/1999/xlink" x="0px" y="0px"
	 viewBox="0 0 567.2 272.9" style="enable-background:new 0 0 567.2 272.9;" xml:space="preserve">
<style type="text/css">
	.st0{fill:#E0A984;}
	.st1{fill:#006837;}
	.st2{fill:#009245;}
	.st3{fill:#333333;}
	.st4{fill:#ED1C24;}
	.st5{fill:#FFFFFF;}
</style>
<g>
	<g>
		<path d="M217,60.1c0,0-3.6-7-5.4-8.8c-0.5-0.5-1-2.2-1.4-4.3c-1.4-7.7,2-15.5,8.5-19.8l0.9-0.6c4.9-3.2,11.1-3.5,16.2-0.7l6.3,3.4
			v4.3l-8.3,18C233.9,51.5,225.6,63,217,60.1z"/>
		<polygon class="st0" points="149.9,226.5 155.3,232.5 198.4,199.6 211.6,178.6 194.6,168.8 185.9,186.4 164.3,200.2 		"/>
		<polygon class="st0" points="242.8,207.9 251.2,213.9 283.8,161.8 260.8,147.4 246,164.8 261.4,171.4 250.6,182.2 		"/>
		<path class="st0" d="M228.4,69.5l1.8-7.2l9.9-0.3l-0.9-28.2l-10.8,3.9l1.8,11.4l-2.7,1.5c0,0-2.2-10.8-7.9-5.4
			c-4.1,3.9,2.6,8.1,2.6,8.1v5.4l-5.5-0.2l-1.1,6.1L228.4,69.5z"/>
		<polygon class="st0" points="209.8,82.1 186.5,104.9 205,136.6 212.2,128.2 203.8,104.9 216.4,96.5 		"/>
		<polygon class="st0" points="265.6,82.1 268.6,67.1 274.6,65.3 280.5,68.9 278.7,78.5 271.9,83.9 		"/>
		<polygon class="st1" points="243.8,168.6 261.5,147.7 235.2,136 225.1,140.1 220.6,163 		"/>
		<path class="st2" d="M235.7,136.7c0.7-4.9,1.1-52.6-1.6-61.1c-2.7-8.5-19.5-12.1-19.5-12.1L202.3,77l-3,12.3l8.2,47L235.7,136.7z"
			/>
		<path class="st3" d="M151.8,226.4l-16,2.2l-1.6,17.1l-2,8.1c0,0,5.8,11,6.5,10.8c0.7-0.2,5.4-0.4,3.6-5.4
			c-1.8-4.9,12.9-26.7,12.9-26.7L151.8,226.4z"/>
		<path class="st3" d="M251,212.4c-0.2,1.3-0.2,4.5,0.7,8.8c0.9,4.3,4,13.3,8.5,16.2c0,0-1.3,4.5-7,2c-5.6-2.5-10.8-11.2-14.8-13.9
			c-4-2.7-6.7-7.2-6.7-7.2s5.2-9,11.2-10.3L251,212.4z"/>
		<polygon class="st2" points="191.2,166.8 213.7,179.6 235.7,136 207.1,131.8 198.4,144.3 199.5,154 		"/>
		<polygon class="st0" points="221.8,91.1 244,114.5 271.9,83.9 266.8,79.1 245.8,98.6 232.9,82.7 		"/>
	</g>
	<g>
		<polygon class="st0" points="122.6,156.7 130.1,159.9 120.9,173.4 113.4,213.8 125.2,215.9 154.9,152.9 138.2,141 		"/>
		<polygon class="st0" points="82.7,180.4 68.1,202.5 19.6,242.9 11.6,241 14.3,233.2 43.9,192.2 54.1,187.9 68.7,164.2 		"/>
		<path d="M105.8,33.3c0,0-9.7-9.7-2.2-20.2c7.5-10.5,19.9-8.4,24.2-4.3l2.2-3c0,0,4,6.9-1.1,8.6c-0.8,0.3-2.2,19.1-2.2,18.6
			s-11,5.4-11,5.4L105.8,33.3z"/>
		<path class="st0" d="M100.6,38.8l4.4-6.6l11,0.9l2.2-4.7c0,0-4.7-5.4,1.4-5.7l2.9,7.5l3-1l-1.5-9.8l5-5l0.4,27.3l-9-0.4l-2.5,6.5
			L100.6,38.8z"/>
		<polygon class="st1" points="83.8,108.2 117.2,117.3 117.2,127.6 142,141.6 125.3,161 107.5,156.7 92.1,125.3 		"/>
		<polygon class="st2" points="83.8,108.7 71.9,127.6 73,147.5 59,170.7 83.2,192.8 107.5,156.7 117.2,117.3 		"/>
		<polygon class="st0" points="75.1,59.1 43.9,63.5 41.2,75.3 34.2,97.4 26.6,95.8 32,53.8 83.2,42.4 		"/>
		<path class="st2" d="M84.8,110l-6.1-4c0,0,0.4-10.1-2.2-15.1c-2.5-5-8.3-34.5,7.9-49.2c6.5-3.2,16.2-2.9,16.2-2.9s11.8,6.1,18.7,5
			l6.5,2.8l4.1,1.3l1.2,29.4l-5.7,20.1c0,0,1.8,10.8-7.9,23.7L84.8,110z"/>
		<path class="st0" d="M126.6,50c-6.5,5-5,14.5,3.1,25.9c8.1,11.3,21.9,22.1,21.9,22.1l8.6-0.5V50l-7.5,0.5l-1.6,22.6
			C141.4,62.4,133.2,44.9,126.6,50z"/>
		<polygon class="st0" points="33.1,95.6 38.1,106 37.1,113.6 33.1,113.2 31.7,117.5 20.5,108.2 22.3,101 27.7,94.5 		"/>
		<path class="st0" d="M152.7,50.5l-5-5.2l2.9-5l-2.2-3.2l7.5-5.4l6.8,7.2L160.3,50C160.3,50,159.2,57.2,152.7,50.5z"/>
		<path class="st3" d="M114.2,212.2c0,0-6.4,3.4-8.5,14.5c0,0,5,2.9,9.7,8.6c4.7,5.7,20.5,4.3,20.5,4.3l1.4-4c0,0-7.2-4-8.6-6.8
			c-1.4-2.9-2.6-14.5-2.6-14.5L114.2,212.2z"/>
		<path class="st3" d="M15.1,231.6c0,0-6.4,1.7-11.3,3.7c-3,1.2-4.5,4.5-3.5,7.5c1.7,4.9,3.9,12.1,3,14.4
			c-1.4,3.6,3.7,18.9,11.1,15.1c2.8-1.4,1.4-8.2,1.4-8.2s-2.2-15.5,6.1-23.1C22,241.1,12.2,239.5,15.1,231.6z"/>
	</g>
	<g>
		<path d="M498,54.8c0,0-3.7-7.2-5.6-9.1c-0.5-0.5-1-2.3-1.4-4.5c-1.5-8,2.1-16.1,8.8-20.5l0.9-0.6c5-3.3,11.5-3.6,16.8-0.7l6.5,3.5
			v4.4L515.5,46C515.5,46,506.9,57.8,498,54.8z"/>
		<polygon class="st0" points="428.5,227.2 434.1,233.4 478.8,199.2 492.4,177.5 474.8,167.4 465.8,185.6 443.4,199.9 		"/>
		<polygon class="st0" points="524.7,207.9 533.4,214.1 567.2,160.1 543.3,145.3 528,163.3 544,170.1 532.8,181.2 		"/>
		<path class="st0" d="M509.8,64.6l1.9-7.4l10.2-0.3L521,27.7l-11.2,4l1.9,11.8l-2.8,1.6c0,0-2.4-11.2-8.3-5.6
			c-4.3,4,2.6,8.4,2.6,8.4v5.6l-5.6-0.2l-1.1,6.3L509.8,64.6z"/>
		<polygon class="st0" points="490.6,77.6 466.4,101.2 485.6,134.1 493.1,125.4 484.4,101.2 497.4,92.5 		"/>
		<polygon class="st0" points="548.3,77.6 551.4,62.1 557.6,60.2 563.8,64 561.9,73.9 554.8,79.5 		"/>
		<polygon class="st1" points="525.7,167.2 544.1,145.6 516.9,133.5 506.4,137.7 501.8,161.4 		"/>
		<path class="st2" d="M517.3,134.2c0.7-5.1,1.2-54.5-1.6-63.3s-20.2-12.5-20.2-12.5l-12.7,14l-3.1,12.7l8.5,48.6L517.3,134.2z"/>
		<path class="st3" d="M430.5,227l-16.5,2.3l-1.6,17.7l-2.1,8.4c0,0,6.1,11.4,6.7,11.2c0.7-0.2,5.6-0.5,3.7-5.6
			c-1.9-5.1,13.3-27.6,13.3-27.6L430.5,227z"/>
		<path class="st3" d="M533.2,212.6c-0.2,1.4-0.2,4.7,0.7,9.1c0.9,4.4,4.2,13.7,8.8,16.8c0,0-1.4,4.7-7.2,2.1s-11.2-11.6-15.4-14.4
			c-4.2-2.8-7-7.4-7-7.4s5.4-9.3,11.6-10.7L533.2,212.6z"/>
		<polygon class="st2" points="471.3,165.3 494.6,178.5 517.4,133.4 487.8,129.1 478.7,142.1 479.9,152.1 		"/>
		<polygon class="st0" points="503,86.9 526,111.1 554.8,79.5 549.5,74.5 527.8,94.7 514.5,78.2 		"/>
	</g>
	<g>
		<polygon class="st0" points="396.6,156.7 404.1,159.9 394.9,173.4 387.4,213.8 399.2,215.9 428.9,152.9 412.2,141 		"/>
		<polygon class="st0" points="356.7,180.4 342.1,202.5 293.6,242.9 285.6,241 288.3,233.2 317.9,192.2 328.1,187.9 342.7,164.2 		
			"/>
		<path d="M379.8,33.3c0,0-9.7-9.7-2.2-20.2s19.9-8.4,24.2-4.3l2.2-3c0,0,4,6.9-1.1,8.6c-0.8,0.3-2.2,19.1-2.2,18.6s-11,5.4-11,5.4
			L379.8,33.3z"/>
		<path class="st0" d="M374.6,38.8l4.4-6.6l11,0.9l2.2-4.7c0,0-4.7-5.4,1.4-5.7l1.9,4.5l3-1l-0.5-6.8l5-5l0.4,27.3l-9-0.4l-2.5,6.5
			L374.6,38.8z"/>
		<polygon class="st1" points="357.8,108.2 391.2,117.3 391.2,127.6 416,141.6 399.3,161 381.5,156.7 366.1,125.3 		"/>
		<polygon class="st2" points="357.8,108.7 345.9,127.6 347,147.5 333,170.7 357.2,192.8 381.5,156.7 391.2,117.3 		"/>
		<polygon class="st0" points="349.1,59.1 317.9,63.5 315.2,75.3 308.2,97.4 300.6,95.8 306,53.8 357.2,42.4 		"/>
		<path class="st2" d="M358.8,110l-6.1-4c0,0,0.4-10.1-2.2-15.1s-8.3-34.5,7.9-49.2c6.5-3.2,16.2-2.9,16.2-2.9s9,4.7,15.8,3.6
			l10.8,5.4l6.8,2.5l-2.9,26.9l-5.7,20.1c0,0,1.8,10.8-7.9,23.7L358.8,110z"/>
		<path class="st0" d="M400.6,50c-6.5,5-5,14.5,3.1,25.9c8.1,11.3,21.9,22.1,21.9,22.1l8.6-0.5V50l-7.5,0.5l-1.6,22.6
			C415.4,62.4,407.2,44.9,400.6,50z"/>
		<polygon class="st0" points="307.1,95.6 312.1,106 311.1,113.6 307.1,113.2 305.7,117.5 294.5,108.2 296.3,101 301.7,94.5 		"/>
		<path class="st0" d="M426.7,50.5l-5-5.2l2.9-5l-2.2-3.2l7.5-5.4l6.8,7.2L434.3,50C434.3,50,433.2,57.2,426.7,50.5z"/>
		<path class="st3" d="M388.2,212.2c0,0-6.4,3.4-8.5,14.5c0,0,5,2.9,9.7,8.6c4.7,5.7,20.5,4.3,20.5,4.3l1.4-4c0,0-7.2-4-8.6-6.8
			c-1.4-2.9-2.6-14.5-2.6-14.5L388.2,212.2z"/>
		<path class="st3" d="M289.1,231.6c0,0-6.4,1.7-11.3,3.7c-3,1.2-4.5,4.5-3.5,7.5c1.7,4.9,3.9,12.1,3,14.4
			c-1.4,3.6,3.7,18.9,11.1,15.1c2.8-1.4,1.4-8.2,1.4-8.2s-2.2-15.5,6.1-23.1C296,241.1,286.2,239.5,289.1,231.6z"/>
	</g>
	<path d="M219.7,26.6c0,0-15.5,11-11.5,27.6l6-3.3l8,2.4c0,0,4.7-1.8,5.3-11.1l4.7,2.7c0,0,7.3-5.2,8-12.9
		C240.8,24.2,219.7,26.6,219.7,26.6z"/>
	<path d="M375.8,19.9c0,0-1.3-14,10-18.7c11.3-4.7,19.2,5.6,19.2,5.6l-3.6,7.1L375.8,19.9z"/>
	<polygon class="st4" points="59,170.7 83.2,192.8 85.2,189.9 59.8,168.6 	"/>
	<polygon class="st4" points="125.3,161 142,141.6 139.2,139.9 122.5,160.6 	"/>
	<path class="st4" d="M134.5,52.2c0,0-2.7-6.7-8.3-3.7c-5.7,3-11.2,14.7,1.8,24.7c0,0-8.6-12.5-2.4-20.7
		C130.1,46.5,134.5,52.2,134.5,52.2z"/>
	<path class="st4" d="M100.6,38.8c0,0,9.2,5.1,18.7,5l0.9,0.4c0,0-10.8,1.7-20.5-5.4L100.6,38.8z"/>
	<path class="st4" d="M84.5,41.7c0,0-2.2,0.7-3.8,2.7s-6.1,8.2-5.9,14.9C74.8,59.3,77.8,48.2,84.5,41.7z"/>
	<polygon class="st4" points="191.2,166.8 213.7,179.6 214.8,176.9 192.3,165.1 	"/>
	<polygon class="st4" points="243.8,168.6 261.5,147.7 259,146.4 241.3,168.1 	"/>
	<path class="st4" d="M214.6,63.5c0,0,6.9,0.5,14.7,6c0,0-10-4.3-15.7-5.2L214.6,63.5z"/>
	<path class="st5" d="M84.4,52.2l28.5,6.5L108.2,79l-28.8-6C79.4,73,79.4,62.2,84.4,52.2z"/>
	<path class="st5" d="M202.3,77c0,0-7.2,13.7-10.4,16.5l1.5,1c0,0,12.2-9,14.5-13.5L202.3,77z"/>
	<path class="st5" d="M356.2,54c0,0-5,8.5-3.2,21.5c0,0,18.8,7.8,28.8,6.5c0,0-0.8-12,4.5-21C386.2,61,370.4,51,356.2,54z"/>
	<polygon class="st5" points="482.8,72.3 485.2,73 481.9,98 479.7,85.1 	"/>
	<polygon class="st4" points="333,170.7 357.2,192.8 358.7,190.5 334.4,168 	"/>
	<polygon class="st4" points="399.3,161 416,141.6 413.4,140.2 396.4,160.5 	"/>
	<polygon class="st4" points="471.3,165.3 494.6,178.5 495.7,175.7 472.2,163 	"/>
	<polygon class="st4" points="525.7,167.2 544.1,145.6 541.2,144.2 522.9,167.2 	"/>
	<polygon class="st4" points="503,86.9 514.5,78.2 513.7,75.7 501.4,86 	"/>
	<path class="st4" d="M509.8,64.6L494.4,60l1.1-1.6C495.5,58.4,507.5,61.7,509.8,64.6z"/>
	<path class="st5" d="M414.9,59.8"/>
	<path class="st0" d="M225.1,91.2l8.1-6.4v-3.5c0,0-0.9-4.8-3.1-5.2s-6.8-0.5-9,4s0.8,11.8,0.8,11.8l2.9,0.5L225.1,91.2z"/>
	<path class="st4" d="M221.9,91c0,0-4.2-12.1,3.7-14.3s7.3,6,7.3,6l0.9,1c0,0-0.3-12.2-8.9-8.1s-5.4,13.6-3.4,16.6h1.6L221.9,91z"/>
	<path class="st4" d="M408.3,52.1c0,0-5.3-4.2-8.2-0.5c-2.8,3.7-3.5,13.7,1,20.2c0,0-7.2-9.2-4-18.3s10.9-3,10.9-3L408.3,52.1z"/>
	<path class="st4" d="M356.2,42.6l2.8-1.2c0,0-9.8,11.9-9.9,17.8C349.1,59.1,348.7,51.2,356.2,42.6z"/>
	<path class="st4" d="M374.6,38.8c0,0,15.2,2.9,19.2,4.7l-0.5,1C393.3,44.6,377.6,41.6,374.6,38.8z"/>
</g>
</svg>
