<?xml version="1.0" encoding="utf-8"?>
<!-- Generator: Adobe Illustrator 19.0.0, SVG Export Plug-In . SVG Version: 6.00 Build 0)  -->
<!DOCTYPE svg PUBLIC "-//W3C//DTD SVG 1.1//EN" "http://www.w3.org/Graphics/SVG/1.1/DTD/svg11.dtd">
<svg version="1.1" id="Layer_1" xmlns="http://www.w3.org/2000/svg" xmlns:xlink="http://www.w3.org/1999/xlink" x="0px" y="0px"
	 viewBox="0 0 281.5 265.2" style="enable-background:new 0 0 281.5 265.2;" xml:space="preserve">
<style type="text/css">
	.st0{fill:#C19678;}
	.st1{fill:#E0A984;}
	.st2{fill:#F5F6FB;}
	.st3{fill:#288AB5;}
	.st4{fill:#366291;}
	.st5{fill:#F2F6F2;}
	.st6{fill:#3D4F78;}
	.st7{fill:#29ABE2;}
	.st8{fill:#43769F;}
	.st9{fill:#1A1A1A;}
	.st10{fill:#9CACB8;}
	.st11{fill:#496487;}
	.st12{fill:#BD8A89;}
	.st13{fill:none;stroke:#000000;stroke-width:2;stroke-miterlimit:10;}
	.st14{fill:#EDF1EB;}
	.st15{fill:#546599;}
	.st16{fill:#ED1C24;}
	.st17{fill:#142F67;stroke:#FFFFFF;stroke-miterlimit:10;}
</style>
<g>
	<path class="st0" d="M50.4,63.9l7,24.5l24.8,24.9l32.9-17c0,0-2.6-8.1-8.9-10.5c0,0-7.6,8.5-16.6,7.7L73,72.4
		C73,72.4,65.5,62.9,50.4,63.9z"/>
	<path class="st0" d="M105.7,88.2c0,0-0.9-7.9-0.3-9.1c0.6-1.2,0.2-8.5,0.2-8.5l3.7,0l1.3,8.5l5.7-0.9c0,0,7.8-5.8,11.1-5.6l1,1.6
		l3.6,1.1l-8.5,8l9.7-3.7c0,0,1.3,1.8-0.9,3.3l-8.1,4.9c0,0,4.3-0.4,6.6-2.7c2.2-2.2,2.4,2.7,0.4,3.6s-5.1,2.7-8.4,3.2
		c0,0-6.3,5-11.7,4.6L105.7,88.2z"/>
	<polygon class="st1" points="91,20 97.6,38.7 88.6,44.3 81.6,28.7 	"/>
	<polygon class="st2" points="41,208.3 18.3,207.3 13,199.7 17.6,193 41.3,194 	"/>
	<polygon class="st2" points="76.6,222.3 63,245.7 55.3,239.3 62.3,219 	"/>
	<path class="st3" d="M94,175.3l4.7,7.7l-1,9.3l-21,30.7c0,0-7.7,5-14.3-4l11.3-30L94,175.3z"/>
	<path class="st4" d="M59.3,132.7l5-2.7L84,158l10.3,15c0,0,1.3,9.3-3.3,9.7C86.3,183,58.3,142,58.3,142L59.3,132.7z"/>
	<polygon class="st5" points="160.8,189.3 142.8,197.6 115,229.8 122.5,236.6 178.8,203.3 	"/>
	<path class="st6" d="M173.5,134.8l-10.8,30.2l-7,27.2c0,0,5.5,13.5,6.2,14s20.5-1.2,20.5-1.2l23.5-38.8l16.2-43.3l-19-3.9
		L173.5,134.8z"/>
	<path class="st5" d="M244.5,183.3l-13.5,6c0,0-44,33.8-49.2,40l-8.2-2.5l-0.8-12.5l29.2-32l12.5-8.8L244.5,183.3z"/>
	<polygon class="st0" points="264.6,75.3 265.3,91.7 271.6,95.7 273.6,82.3 270.6,71.7 	"/>
	<path class="st0" d="M157.6,67l-10.3,7.3l11.2,12.8L168,86C168,86,164.6,70.3,157.6,67z"/>
	<path class="st1" d="M151.5,94.3l7-7.2c0,0,0.5-7.5-1.2-10.8s-7-4.5-10-2s-7.2,7-7,11.5S151.5,94.3,151.5,94.3z"/>
	<polygon class="st7" points="37.6,193 37.3,208.7 90,213 96,210 97,200 68.6,193 56.3,190.7 	"/>
	<path class="st8" d="M91.9,205.8l7.7-9.4l-4-11l-32.3-41.7v-10.3c0,0-32.2,2.7-37.6-9.7c0,0-13.2,17,1.5,36S63.2,193,63.2,193
		S90.1,200,91.9,205.8z"/>
	<path class="st9" d="M23,206l-9.7,10L6,229.7l-5.7-2c0,0-1-13,0.7-18S4,189,4,189s12.7-1.7,17.3,5.7C26,202,18,200.7,23,206z"/>
	<path class="st9" d="M58.6,238.3c0,0-9.3-1.7-11.7,8.3c0,0,7,13.3,12,16.7c5,3.3,11.3,1.7,17.3-0.7c6-2.3,0.3-10.3-6.7-10l-5-10
		C64.6,242.7,54.3,244.7,58.6,238.3z"/>
	<path class="st2" d="M60.3,136.3l10.3-18L87,80l11-17.7c0,0,3-14-8.7-21.3s-36,1-36,1S42,47,39,59.3s-6.3,43.3-6.3,43.3l-6.7,22
		l2,9.7C28,134.3,51.6,142.7,60.3,136.3z"/>
	<path class="st1" d="M71.3,64.7l17.3,18.7l33.3,11l21.7-30c0,0-6-6-12.7-5.3c0,0-3,11-11.3,14.3L95.3,62C95.3,62,84.3,57,71.3,64.7
		z"/>
	<path class="st1" d="M131.6,61.3c0,0-4.3-6.7-4.3-8c0-1.3-3.7-7.7-3.7-7.7L127,44l5,7l4.7-3.3c0,0,4.3-8.7,7.3-10l1.7,1l3.7-0.7
		l-4,11l7-7.7c0,0,2,1,0.7,3.3l-5,8c0,0,3.7-2.3,4.7-5.3s3.3,1.3,2,3c-1.3,1.7-3.3,4.7-6,6.7c0,0-3.3,7.3-8.3,9.3L131.6,61.3z"/>
	<path class="st10" d="M59.6,41.7L51,39c0,0-7-23.3,8.3-31.3S90,4.3,95,20.7L88.3,34l3.7,1c0,0,2.7,6-1.3,10.7L59.6,41.7z"/>
	<path class="st11" d="M173.3,106.6c0,0-9.5,15-6,26.7s29.5,34.2,29.5,34.2l19.8,5.8l28,9.5l1.5-9.8l-15.5-29.5l-22-22
		C208.5,121.6,185.3,107.6,173.3,106.6z"/>
	<path class="st9" d="M174,213.6l-6,0.2l-7.2,9.5c0,0,7.8,14.2,10.8,15.5s12.7,9.7,21.4,6.2c0,0,4.7-2.9,0.7-7.7s-7.5-7.6-6-12.3
		C187.6,225,169,222.3,174,213.6z"/>
	<path class="st5" d="M172,105.1l18.8-28.5l4.8-42.6l38.5,0.1l14-7l4.8,48.2l-31,47.5c0,0-15.8,1-25.2-6.2S172,105.1,172,105.1z"/>
	<path class="st5" d="M197.3,34c0,0-10-4.1-18.2,5.4s-12,20.5-12,20.5l-12,6.8l10.8,24.5l17.2-8.8l17.2-14.5L197.3,34z"/>
	<path class="st5" d="M238.5,31.8c0,0,4.2-7.8,17.2-4.5s18,10.7,18.5,18.5s5,29.3,5,29.3l-17.5,6.5l-13.5-6L238.5,31.8z"/>
	<path class="st12" d="M264.8,81.8c0,0-2.8-9.5-17.8-8c0,0-14.2,11.8-2.8,22.5S272,98.6,264.8,81.8z"/>
	<path class="st9" d="M115,229.8c0,0-6.1-0.2-10.4,1.8c-4.3,2-13,14.7-13,14.7s-2.3,7.3,6.3,9.7l19.7-7l7.3-13.7c0,0,0.3-5-8-8.3
		L115,229.8z"/>
	<path class="st13" d="M88,38.1l9.2-10.7l-4-6.7c0,0-9,10-7,14.3s4.7,4.7,4.7,4.7l9.3-7.7l-3-4.7"/>
	<path class="st0" d="M131.3,89.1c0,0,3.8,3,4.5,6s3,7.5,7.8,7.5c0,0,9.8,1.8,12.5-1c0,0,9.5,2.2,9.8-1.8s-1.5-3-4-2.8s-7-0.8-7-0.8
		s-2.2-7.8-4.2-8.2s-2,1-2,1s-0.8-4.5-3.8-4.5s-1.8,1.5-1.8,1.5s-2.8-5-6-2.8s-1,6.2-1,6.2S133.3,86.1,131.3,89.1z"/>
	<path class="st1" d="M272.3,75.2c0,0,3.5,7.6,5.5,10.8s3.8,7.9,3.8,7.9l-0.5,8.5l-5,3.7l-12.8-4c0,0-13,1.5-20-3.8v-2l-4-2.5v-1.5
		c0,0-1-1-0.2-4l13,3l2.1-2l-11.7-6.5l1.8-2.5l14.5,6.8l3.3-2.8l-1.5-7l1.5-1.2l4,3.8l4.5,10.2L272.3,75.2z"/>
	<path class="st0" d="M242.3,28.3l-3.7,18c0,0-6.3,4.7-12.7,1.7l13.8-22.9L242.3,28.3z"/>
	<polygon class="st1" points="209.5,20.1 205,47.3 227.3,53.8 239.8,25.1 	"/>
	<path class="st14" d="M244.6,28.7c0,0,3.7-13.3-3.6-22.1c-4.6-5.6-14-8.2-21.2-5s-13.2,16.2-14.5,25s-0.2,12-0.2,12s2-0.5,2-1.5
		s1.7-7.2,2.6-13.7c0,0,19.7,5.5,26.4,4.8s3,15.5,3,15.5S244.1,35.2,244.6,28.7z"/>
	<path class="st13" d="M206.1,31.1c2,1.7,9.8,15.2,34,5.7"/>
	<path class="st13" d="M221.1,25.3c0,0-4.9,13.2-3.6,24.7"/>
	<path class="st15" d="M224.6,26.3c0,0,3-13.7,11-24.3c0,0-3.5-2.2-8-1.7c0,0-7.7,12-8.7,24.3C219,24.7,223.6,26.7,224.6,26.3z"/>
	<path class="st16" d="M238.3,4c0,0-9,11-11,23.3l1.7,0.3c0,0,2.3-14,11-22.7L238.3,4z"/>
	<path class="st16" d="M224.6,0c0,0-8.3,12.8-8,24.5l-1.2-0.5c0,0,0.7-12.7,7.7-23.8L224.6,0z"/>
	<path class="st13" d="M210.6,22.1c-3.8-2-4.7,1.8-4.3,3.8c0.4,2-0.2,14.2-0.2,14.2s10.3,21.2,29.3,5l4.3-8c0,0,2.7-8.2-1.6-9
		c-4.3-0.8-13.2-0.8-17-2.2S210.6,22.1,210.6,22.1z"/>
	<path class="st5" d="M182.3,107.3c0,0-10.7,14.3,3.3,30s35,25,39.3,39.7l10,3.7c0,0-2-14.3-19-29.3s-33-22.7-24.7-40L182.3,107.3z"
		/>
	<path class="st11" d="M184,109c0,0-7.7,9.7-0.3,21.7c7.3,12,30.3,25.3,35.7,32.7c5.3,7.3,7.7,14.3,7.7,14.3l5.3,2.3
		c0,0-1.3-11.7-12-21c-10.7-9.3-29.3-21.3-32.3-31.3s1-15.7,1-15.7L184,109z"/>
	<path class="st16" d="M182.3,107.3c0,0-7,12.3-1,23s25,23.3,30.7,28.3s12,14.3,13,18.7l-3.7-2c0,0-2.3-8.3-11-14.7
		c0,0-22.3-14.7-31-28.7C170.6,118,182.3,107.3,182.3,107.3z"/>
	<path class="st16" d="M191.6,112.3c0,0-5,5.7-1.7,13.3s16.7,18.3,23,23.7c6.3,5.3,19,17.3,22,31.3l3,0.7c0,0-8-21-23.3-33.3
		c-14.6-11.8-28.3-25.7-21.3-33.7L191.6,112.3z"/>
	<path class="st2" d="M98,62.3L77.8,74.8c0,0-10.5-9.5-10.5-11c0-1.5,8.5-10,8.5-10L98,62.3z"/>
	<path class="st8" d="M78.8,71.3l19-13.5c0,0,2-14-12.5-18.5s-13.5,16-13.5,16l4.5,3L78.8,71.3z"/>
	<polygon class="st17" points="68.8,15.8 68.5,23.6 62.5,26.6 69.3,27.6 68.5,34.8 73.8,28.8 80,29.1 75.8,25.1 79,19.6 72.8,21.3 	
		"/>
</g>
</svg>
