<?xml version="1.0" encoding="utf-8"?>
<!-- Generator: Adobe Illustrator 18.0.0, SVG Export Plug-In . SVG Version: 6.00 Build 0)  -->
<!DOCTYPE svg PUBLIC "-//W3C//DTD SVG 1.1//EN" "http://www.w3.org/Graphics/SVG/1.1/DTD/svg11.dtd">
<svg version="1.1" id="Layer_1" xmlns="http://www.w3.org/2000/svg" xmlns:xlink="http://www.w3.org/1999/xlink" x="0px" y="0px"
	 viewBox="0 0 441 160.2" enable-background="new 0 0 441 160.2" xml:space="preserve">
<g>
	<path fill="#939598" d="M379.7,109.4l-0.1,25.6l-6.5,0.8l-2.9-25.2C370.1,110.5,371.3,106.5,379.7,109.4z"/>
	<circle fill="#231F20" cx="379.6" cy="150.9" r="9.2"/>
	<path fill="#BE1E2D" d="M350.7,142.7c0,0,13.3-10.4,24.1-10.4s19.1,5,18.9,10.2C393.4,147.7,372,160.5,350.7,142.7z"/>
	<polygon fill="#BCBEC0" points="376.1,108.5 376.3,132.3 374.5,132.4 373.5,108.8 	"/>
	<path fill="#9B1828" d="M395.1,142.5c0,0-19.7,7-43,0.2C352.1,142.7,378.4,164.5,395.1,142.5z"/>
	<path fill="#BE1E2D" d="M395.4,65.9l-57.9-4.3L331.9,45L100.8,55.5L84.7,0L50.2,3.7l-7.4,75.8c0,0,199.7,44.4,352.5,31.4
		C395.4,110.9,382.4,90.6,395.4,65.9z"/>
	<path fill="#808285" d="M395.4,110.9c0,0-16.6-23.8,0-45c0,0,15.8,10.7,15.8,22.5S395.4,110.9,395.4,110.9z"/>
	<polygon fill="#21409A" points="167.9,52.4 68.1,75.2 66,2 84.7,0 100.8,55.5 	"/>
	<path fill="#21409A" d="M227.6,49.7c0,0-43.6-16.4-56.3-27.5h74.4l121.2,27.5l-32.5,2.6l-2.4-7.3L227.6,49.7z"/>
	<path fill="#132654" d="M171.2,22.2c0,0,53.4-11.5,77.2-7.8c0,0,4.5,4.5-5.8,7.8H171.2z"/>
	<path fill="#3C71F7" d="M365.1,49.9L242.7,22.2c0,0,12.9-4.8,3-8.2l119.4,32.4C365.1,46.4,368.8,47.5,365.1,49.9z"/>
	<path fill="#F7485D" d="M392.9,105.7l-210.1-2.9c0,0,135.5,19.8,212.5,8.1L392.9,105.7z"/>
	<path fill="#1C75BC" d="M83.8,72.9L0,75.2C0,75.2,47.8,64.5,83.8,72.9z"/>
	<path fill="#00AEEF" d="M264.4,49.9v19.8c0,0-16.9-1.3-25.6-3.7l7.7-13.6L264.4,49.9z"/>
	<polygon fill="#9B1828" points="318.3,45.6 330,104.8 273.6,85.9 269,48.4 	"/>
	<polygon fill="#00AEEF" points="318.3,69.7 277,72.4 275.5,49.9 315.6,48.4 	"/>
	<path fill="#BCBEC0" d="M407.6,98.8c0,0-9.7-10,0.3-20.2l19.8,8.3L407.6,98.8z"/>
	<ellipse opacity="0.48" fill="#BCBEC0" cx="412.3" cy="82.4" rx="28.7" ry="54.4"/>
	<path fill="#00AEEF" d="M356.5,63.1l-28.2,6l-7.1-23.4c0,0,13.7-2,19.7,0.8S356.5,63.1,356.5,63.1z"/>
	<path fill="#939598" d="M281.6,104.8l-3.1,25.4h-6.6v-25.4C271.9,104.8,273.6,101,281.6,104.8z"/>
	<circle fill="#231F20" cx="276.6" cy="146.1" r="9.2"/>
	<path fill="#BE1E2D" d="M248.9,134.8c0,0,14.4-8.8,25.2-7.6s18.4,7.2,17.6,12.3C290.8,144.6,268,154.9,248.9,134.8z"/>
	<polygon fill="#9B1828" points="100.6,77.9 91.2,88.9 68.2,84.7 68.2,76.4 	"/>
	<polygon fill="#BCBEC0" points="278.1,103.5 275.5,127.2 273.8,127.1 275.5,103.5 	"/>
	<path fill="#9B1828" d="M293.1,139.5c0,0-20.3,4.7-42.7-4.7C250.3,134.8,274,159.4,293.1,139.5z"/>
	<polygon fill="#3C71F7" points="388.2,91.2 42.8,75.2 210.4,65.9 215.5,75.2 388,84.6 	"/>
	<polygon fill="#21409A" points="325.4,81.2 326.8,88.7 272.7,85.9 272.7,78.6 	"/>
	<polygon fill="#9B1828" points="100.6,77.9 216.4,83.2 139.8,96.9 89.7,88.7 	"/>
	<polygon fill="#F7485D" points="62.7,2.4 50.2,3.7 43.8,69.7 54.5,11.1 	"/>
	<path fill="#F7485D" d="M395.1,66.4l-38.6-3.4l-16.7,3.5l50.8,7.8C390.7,74.4,393.2,68,395.1,66.4z"/>
	<polygon fill="#939598" points="326.8,104.8 280.7,37.3 271.7,37.3 318.3,104.8 	"/>
	<polygon fill="#BCBEC0" points="278,37.3 323.5,104.8 320.6,104.8 274,37.3 	"/>
</g>
</svg>
