<?xml version="1.0" encoding="utf-8"?>
<!-- Generator: Adobe Illustrator 18.0.0, SVG Export Plug-In . SVG Version: 6.00 Build 0)  -->
<!DOCTYPE svg PUBLIC "-//W3C//DTD SVG 1.1//EN" "http://www.w3.org/Graphics/SVG/1.1/DTD/svg11.dtd">
<svg version="1.1" id="Layer_1" xmlns="http://www.w3.org/2000/svg" xmlns:xlink="http://www.w3.org/1999/xlink" x="0px" y="0px"
	 viewBox="0 0 622.1 680.6" enable-background="new 0 0 622.1 680.6" xml:space="preserve">
<g>
	<rect x="43.2" y="0" fill="#CFCFCF" width="551.6" height="313"/>
	<rect x="0" y="300.1" fill="#82827D" width="622.1" height="5.8"/>
	<rect x="0" y="314.2" fill="#333331" width="622.1" height="7.6"/>
	<rect x="0" y="305.5" fill="#73736E" width="622.1" height="3.4"/>
	<rect x="43.2" y="268.4" opacity="0.55" fill="#333331" width="551.6" height="10.1"/>
	<g>
		<polygon fill="#A8A8A1" points="31.6,289 49,289 51.2,296.1 29.1,296.1 		"/>
		<path fill="#73736E" d="M29.1,296.1l2.7,7.5H49l2.2-7.5C51.2,296.1,28.8,296.4,29.1,296.1z"/>
	</g>
	<g>
		<g>
			<g>
				<polygon fill="#333331" points="31.6,314.3 49,314.3 51.2,321.3 29.1,321.3 				"/>
			</g>
			<g>
				<path fill="#333331" d="M29.1,321.3l2.7,7.5H49l2.2-7.5C51.2,321.3,28.8,321.7,29.1,321.3z"/>
			</g>
		</g>
	</g>
	<g>
		<polygon fill="#A8A8A1" points="163.6,289 181.1,289 183.3,296.1 161.2,296.1 		"/>
		<path fill="#73736E" d="M161.2,296.1l2.7,7.5h17.2l2.2-7.5C183.3,296.1,160.9,296.4,161.2,296.1z"/>
	</g>
	<g>
		<g>
			<g>
				<polygon fill="#333331" points="149.1,314.3 166.6,314.3 168.7,321.3 146.7,321.3 				"/>
			</g>
			<g>
				<path fill="#333331" d="M146.7,321.3l2.7,7.5h17.2l2.2-7.5C168.7,321.3,146.3,321.7,146.7,321.3z"/>
			</g>
		</g>
	</g>
	<g>
		<g>
			<g>
				<polygon fill="#333331" points="404.5,314.3 422,314.3 424.2,321.3 402.1,321.3 				"/>
			</g>
			<g>
				<path fill="#333331" d="M402.1,321.3l2.7,7.5H422l2.2-7.5C424.2,321.3,401.7,321.7,402.1,321.3z"/>
			</g>
		</g>
	</g>
	<g>
		<g>
			<g>
				<polygon fill="#333331" points="542.4,314.3 559.9,314.3 562.1,321.3 540,321.3 				"/>
			</g>
			<g>
				<path fill="#333331" d="M540,321.3l2.7,7.5h17.2l2.2-7.5C562.1,321.3,539.6,321.7,540,321.3z"/>
			</g>
		</g>
	</g>
	<g>
		<polygon fill="#A8A8A1" points="294.3,289 311.8,289 313.9,296.1 291.8,296.1 		"/>
		<path fill="#73736E" d="M291.8,296.1l2.7,7.5h17.2l2.2-7.5C313.9,296.1,291.5,296.4,291.8,296.1z"/>
	</g>
	<g>
		<polygon fill="#A8A8A1" points="433.4,289 450.9,289 453.1,296.1 431,296.1 		"/>
		<path fill="#73736E" d="M431,296.1l2.7,7.5h17.2l2.2-7.5C453.1,296.1,430.6,296.4,431,296.1z"/>
	</g>
	<g>
		<polygon fill="#A8A8A1" points="573.2,289 590.7,289 592.9,296.1 570.8,296.1 		"/>
		<path fill="#73736E" d="M570.8,296.1l2.7,7.5h17.2l2.2-7.5C592.9,296.1,570.5,296.4,570.8,296.1z"/>
	</g>
	<rect x="279.2" y="310.1" fill="#73736E" width="35.9" height="370.5"/>
	<polygon opacity="0.5" points="279.2,308.6 279.2,368.4 279.2,368.8 279.2,414.7 314.8,368.8 315.2,368.8 315.2,308.6 	"/>
	<rect x="344.4" y="321.3" fill="#333331" width="2.7" height="49.5"/>
	<rect x="371.9" y="321.5" fill="#333331" width="2.7" height="39.9"/>
	<rect x="371.9" y="364.1" fill="#333331" width="2.7" height="4.5"/>
	<rect x="352.3" y="309.6" width="2.7" height="4.8"/>
	<polygon points="352.3,317.1 352.3,314.4 355,314.4 	"/>
	<rect x="346.8" y="341" fill="#333331" width="5.5" height="1.8"/>
	<rect x="355" y="341" fill="#333331" width="17" height="1.8"/>
	<polygon fill="#545451" points="381,352.1 374.6,357.2 374.6,355.4 381,350.2 	"/>
	<rect x="355" y="334" fill="#82827D" width="27.9" height="1.8"/>
	<rect x="354.3" y="348.6" fill="#82827D" width="27.9" height="1.8"/>
	<polygon fill="#545451" points="381,337.7 374.6,342.8 374.6,341 381,335.8 	"/>
	<polygon fill="#333331" points="354.5,363.8 345.2,371.2 345.2,368.6 354.5,361.2 	"/>
	<polygon fill="#333331" points="354.5,350.4 345.2,357.8 345.2,355.2 354.5,347.8 	"/>
	<polygon fill="#333331" points="354.5,335 345.2,342.4 345.2,339.8 354.5,332.4 	"/>
	<polygon fill="#333331" points="383.4,363.8 374.1,371.2 374.1,368.6 383.4,361.2 	"/>
	<rect x="355" y="355.9" fill="#333331" width="19.6" height="1.8"/>
	<rect x="346.8" y="355.9" fill="#333331" width="5.6" height="1.8"/>
	<rect x="352.3" y="308.8" fill="#82827D" width="2.7" height="55.2"/>
	<rect x="352.3" y="361.5" fill="#82827D" width="30.8" height="2.6"/>
	<rect x="381" y="308.8" fill="#82827D" width="2.7" height="55.2"/>
	<rect x="344.4" y="368.5" fill="#333331" width="30.2" height="2.7"/>
</g>
</svg>
