<?xml version="1.0" encoding="utf-8"?>
<!-- Generator: Adobe Illustrator 18.0.0, SVG Export Plug-In . SVG Version: 6.00 Build 0)  -->
<!DOCTYPE svg PUBLIC "-//W3C//DTD SVG 1.1//EN" "http://www.w3.org/Graphics/SVG/1.1/DTD/svg11.dtd">
<svg version="1.1" id="Layer_1" xmlns="http://www.w3.org/2000/svg" xmlns:xlink="http://www.w3.org/1999/xlink" x="0px" y="0px"
	 viewBox="0 0 147.6 555.7" enable-background="new 0 0 147.6 555.7" xml:space="preserve">
<g>
	<path fill="#999999" d="M35.3,76.2c0,0-16.9-22.4-9.4-32.5S48.1,32,44.2,18.4S22.8,1.8,15.3,11.7S3.8,33.5,6.4,60.6
		s15.9,87.5,29.9,110.9l3.1,11.2c0,0-7-4.7-14.8-27.3S2.5,86.1,0.2,48.6S22.3-1.9,31.7,0.2s23.4,10.7,16.4,28.4
		c-3.4,11.2-32.5,15.1-8.3,42.2C39.7,70.7,40.5,79.6,35.3,76.2z"/>
	<path fill="#999999" d="M112.3,76.2c0,0,16.3-18.7,9.2-30.2c-6.7-10.7-21.9-14.1-18-27.6s21.3-16.7,28.9-6.8
		c7.5,9.9,11.5,21.9,8.8,48.9s-15.9,87.5-29.9,110.9l-3.1,11.2c0,0,7-4.7,14.8-27.3s22.1-69.2,24.5-106.7
		c2.3-37.5-22.1-50.5-31.5-48.4S92.5,10.9,99.5,28.6c3.4,11.2,30.5,17.4,6.3,44.5C105.9,73.1,107.1,79.6,112.3,76.2z"/>
	<path fill="#B3B3B3" d="M35.5,58.8c0,0-5.5-2.1-1.2-5.9s67.5-5.3,78.9,0.8c3.3,1.8,0.6,4.5-1.8,5.5C109.1,60.1,57.4,55.3,35.5,58.8
		z"/>
	<path fill="#999999" d="M40.2,74c0,0-4.1-7.2-5.3-16c0,0,33.8-4.7,77.7,0c0,0-1.2,11.1-7.2,16.2L40.2,74z"/>
	<path fill="#B3B3B3" d="M17.2,82.8c0,0,11.2-8.3,25.2-10.4c19.3-3,47-3.2,61.3-0.7c14.3,2.5,27.1,12,27.1,12L17.2,82.8z"/>
	<rect x="61.5" y="218.5" fill="#999999" width="25" height="19.1"/>
	<rect x="61.4" y="234.2" fill="#B3B3B3" width="25" height="7.7"/>
	<rect x="57.2" y="239.9" fill="#999999" width="34" height="4.3"/>
	<path fill="#B3B3B3" d="M117.7,251.3H29.5v-3.6c0-3,2.4-5.4,5.4-5.4h77.5c3,0,5.4,2.4,5.4,5.4V251.3z"/>
	<path fill="#B3B3B3" d="M89.1,221.2H59.6c-2.2,0-4-1.8-4-4v-2.7h37.5v2.7C93.1,219.4,91.3,221.2,89.1,221.2z"/>
	<path fill="#B3B3B3" d="M90,215.3H58.7c-3.7,0-6.7-3.4-6.7-7l0,0l44.7,0.1l0,0C96.7,212.1,93.7,215.3,90,215.3z"/>
	<path fill="#999999" d="M51.9,208.3c0,0-28.9-42.4-34.8-125.5c0,0,6.4-6.4,58.4-6.4s55.2,7.2,55.2,7.2s-1.3,69.8-34.1,124.9
		L51.9,208.3z"/>
	<circle fill="#B3B3B3" cx="75.1" cy="99.4" r="11.5"/>
	<circle fill="#666666" cx="75.1" cy="99.4" r="9.4"/>
	<circle fill="#999999" cx="75.4" cy="99.4" r="6.5"/>
</g>
<g>
	<rect x="0" y="537.2" fill="#BFB492" width="148.4" height="18.5"/>
	<rect x="12.6" y="524.6" fill="#BFB492" width="123.3" height="15.9"/>
	<path fill="#BFB492" d="M127.5,526.8H21v-12c0-3,2.4-5.4,5.4-5.4h95.8c3,0,5.4,2.4,5.4,5.4L127.5,526.8z"/>
	<rect x="35.6" y="284.5" fill="#BFB492" width="75.5" height="237.7"/>
	<path fill="#A8987D" d="M46.8,504.5h-3c-1.2,0-2.2-1-2.2-2.2V298.8c0-1.2,1-2.2,2.2-2.2h3c1.2,0,2.2,1,2.2,2.2v203.5
		C49,503.5,48,504.5,46.8,504.5z"/>
	<path fill="#A8987D" d="M60.2,504.5h-3c-1.2,0-2.2-1-2.2-2.2V298.8c0-1.2,1-2.2,2.2-2.2h3c1.2,0,2.2,1,2.2,2.2v203.5
		C62.4,503.5,61.4,504.5,60.2,504.5z"/>
	<path fill="#A8987D" d="M73.6,504.5h-3c-1.2,0-2.2-1-2.2-2.2l0-203.5c0-1.2,1-2.2,2.2-2.2h3c1.2,0,2.2,1,2.2,2.2v203.5
		C75.8,503.5,74.8,504.5,73.6,504.5z"/>
	<path fill="#A8987D" d="M87,504.5h-3c-1.2,0-2.2-1-2.2-2.2V298.8c0-1.2,1-2.2,2.2-2.2h3c1.2,0,2.2,1,2.2,2.2v203.5
		C89.3,503.5,88.3,504.5,87,504.5z"/>
	<path fill="#A8987D" d="M100.4,504.5h-3c-1.2,0-2.2-1-2.2-2.2V298.8c0-1.2,1-2.2,2.2-2.2h3c1.2,0,2.2,1,2.2,2.2v203.5
		C102.7,503.5,101.7,504.5,100.4,504.5z"/>
	<rect x="20.5" y="519.6" fill="#A8987D" width="107.4" height="4.2"/>
	<rect x="35.3" y="506.3" fill="#A8987D" width="76" height="2.6"/>
	<rect x="35.3" y="284.9" fill="#A8987D" width="76" height="2.6"/>
	<rect x="12.7" y="533.4" fill="#A8987D" width="123.3" height="4.2"/>
	<rect x="10.7" y="250.6" fill="#BFB492" width="127" height="13.5"/>
	<rect x="15.8" y="261.6" fill="#BFB492" width="116.8" height="11.6"/>
	<path fill="#BFB492" d="M23.8,271.7h100.9v7.3c0,3-2.4,5.4-5.4,5.4H29.1c-3,0-5.4-2.4-5.4-5.4L23.8,271.7z"/>
	<rect x="23.4" y="273.9" fill="#A8987D" width="101.7" height="3.1"/>
	<rect x="15.7" y="263.8" fill="#A8987D" width="116.8" height="3.1"/>
</g>
<rect x="26.1" y="292.9" fill="#DDB308" width="95.1" height="6.2"/>
<polygon fill="#DDB308" points="73.6,296.5 117.7,296.5 95.7,359.6 73.6,422.5 51.6,359.5 29.5,296.5 "/>
<g>
	<defs>
		<polygon id="SVGID_1_" points="73.6,299.5 111,299.5 92.3,353.2 73.6,406.7 54.9,353.1 36.2,299.5 		"/>
	</defs>
	<clipPath id="SVGID_2_">
		<use xlink:href="#SVGID_1_"  overflow="visible"/>
	</clipPath>
	<g clip-path="url(#SVGID_2_)">
		<polygon fill="#A1224B" points="73.6,299.5 111,299.5 92.3,353.2 73.6,406.7 54.9,353.1 36.2,299.5 		"/>
		<rect x="39.8" y="300.7" fill-rule="evenodd" clip-rule="evenodd" fill="#00539E" width="11.1" height="123"/>
		<rect x="58.6" y="300.7" fill-rule="evenodd" clip-rule="evenodd" fill="#00539E" width="11.1" height="123"/>
		<rect x="77.5" y="300.7" fill-rule="evenodd" clip-rule="evenodd" fill="#00539E" width="11.1" height="123"/>
		<rect x="96.3" y="300.7" fill-rule="evenodd" clip-rule="evenodd" fill="#00539E" width="11.1" height="123"/>
	</g>
</g>
<g>
	<path fill-rule="evenodd" clip-rule="evenodd" fill="#231F20" d="M78.6,310.6c-1.8,1.3-3.5,1.8-5.5,1.8c-1.9,0-3.7-0.6-5.5-1.8
		l-0.5-0.3l-0.5,0.3c-2,1.3-3.7,1.6-6.2,1.6c-0.9,0-1.8-0.2-2.7-0.5l-0.6-0.2l-0.4,0.5c-0.2,0.3-0.3,0.5-0.5,0.6
		c-0.2,0.2-0.3,0.4-0.5,0.7l-0.3,0.5l0.3,0.5c1.5,2.1,2.1,4.2,2.1,6.1c0,3.7-2,7-3.6,8.6l-0.6,0.6l0.6,0.6c0.3,0.3,0.9,0.9,1.3,1.4
		c0,0,0,0.3,0,0.3l0,0c0,0.4,0,0.7,0,1.1c0,3.8,1.1,6.9,3.3,9.3c2.5,2.8,6.5,4.5,11.2,4.7c1.2,1.1,2.4,1.9,2.4,2l0.5,0.4l0.5-0.4
		c0.1,0,1.2-0.9,2.4-2c4.7-0.3,8.7-1.9,11.2-4.7c2.2-2.4,3.3-5.5,3.3-9.3c0-0.3,0-0.7,0-1.1l0,0l0,0c0,0,0-0.2,0-0.2
		c0.4-0.5,1-1.1,1.3-1.4l0.6-0.6l-0.6-0.6c-1.6-1.7-3.6-4.9-3.6-8.6c0-2,0.6-4.1,2.1-6.1l0.3-0.5l-0.3-0.5c-0.2-0.3-0.4-0.5-0.5-0.7
		c-0.1-0.2-0.3-0.3-0.5-0.6l-0.4-0.5l-0.6,0.2c-0.9,0.3-1.8,0.5-2.7,0.5c-2.5,0-4.2-0.2-6.2-1.6l-0.5-0.3L78.6,310.6L78.6,310.6z"/>
	<path fill-rule="evenodd" clip-rule="evenodd" fill="#DDB308" d="M73.1,348.4c0,0-1.3-1-2.6-2.1c-8-0.3-14.5-4.8-14-14.2
		c0-0.2,0-0.2,0-0.7c-0.5-0.5-1.2-1.3-1.6-1.7c2.9-3,6.2-9.7,1.6-15.9c0.3-0.5,0.5-0.7,1-1.3c0.9,0.3,2,0.5,3,0.5
		c2.6,0,4.5-0.3,6.7-1.7c1.8,1.2,3.7,2,5.9,2c2.3,0,4.2-0.8,5.9-2c2.2,1.5,4,1.7,6.7,1.7c1,0,2.1-0.2,3-0.5c0.5,0.6,0.7,0.8,1,1.3
		c-4.6,6.1-1.3,12.9,1.6,15.9c-0.4,0.4-1.2,1.2-1.6,1.7c0,0.4,0,0.4,0,0.7c0.5,9.4-6.1,13.9-14,14.2
		C74.5,347.4,73.1,348.4,73.1,348.4L73.1,348.4z"/>
	<path fill-rule="evenodd" clip-rule="evenodd" fill="#231F20" d="M58,331.4h-0.1l0,0.4l0,0.3c-0.2,3.6,0.7,6.6,2.7,8.7
		c2.3,2.5,5.9,3.9,10.6,4.1c0,0,0.1,0,0.1,0c1.4,0,2.7,0,3.9,0c4.7-0.2,8.3-1.6,10.6-4.1c2-2.2,2.9-5.1,2.7-8.7c0,0,0-0.3,0-0.3
		l0-0.4l-0.1,0H58L58,331.4z"/>
	<path fill-rule="evenodd" clip-rule="evenodd" fill="#00539E" d="M58.2,331.7c0,0.1,0,0.2,0,0.2l0,0.2c0,0.3,0,0.6,0,0.9
		c0,3.2,0.9,5.7,2.7,7.7c0.4,0.5,0.9,0.9,1.4,1.3v-10.3C59.8,331.7,58.2,331.7,58.2,331.7L58.2,331.7z"/>
	<path fill-rule="evenodd" clip-rule="evenodd" fill="#00539E" d="M88.2,332.1l0-0.3c0,0,0-0.1,0-0.2c-0.1,0-1.6,0-4,0V342
		c0.5-0.4,1-0.8,1.4-1.3c1.8-1.9,2.7-4.5,2.7-7.7C88.2,332.7,88.2,332.4,88.2,332.1L88.2,332.1z"/>
	<path fill-rule="evenodd" clip-rule="evenodd" fill="#A1224B" d="M66.5,331.7c-1.6,0-3.1,0-4.4,0V342c1.2,0.9,2.7,1.6,4.4,2.1
		V331.7L66.5,331.7z"/>
	<path fill-rule="evenodd" clip-rule="evenodd" fill="#A1224B" d="M79.7,331.7V344c1.7-0.5,3.2-1.2,4.4-2.1v-10.3
		C82.8,331.7,81.3,331.7,79.7,331.7L79.7,331.7z"/>
	<path fill-rule="evenodd" clip-rule="evenodd" fill="#00539E" d="M68.9,338c0-1.5,0.8-2.9,2-3.6v-2.7c-1.5,0-3,0-4.4,0V344
		c1.3,0.4,2.8,0.6,4.4,0.7v-3.1C69.7,340.9,68.9,339.5,68.9,338L68.9,338z"/>
	<path fill-rule="evenodd" clip-rule="evenodd" fill="#00539E" d="M75.3,331.7v2.7c1.2,0.7,2,2.1,2,3.6c0,1.5-0.8,2.9-2,3.6v3.1
		c1.6-0.1,3.1-0.3,4.4-0.7v-12.3C78.3,331.7,76.8,331.7,75.3,331.7L75.3,331.7z"/>
	<path fill-rule="evenodd" clip-rule="evenodd" fill="#A1224B" d="M75.3,334.4v-2.7c-1.5,0-2.9,0-4.4,0v2.7c0.6-0.4,1.4-0.6,2.2-0.6
		C73.9,333.8,74.7,334,75.3,334.4L75.3,334.4z"/>
	<path fill-rule="evenodd" clip-rule="evenodd" fill="#A1224B" d="M70.9,341.6v3.1c0.1,0,0.2,0,0.2,0l0.1,0c1.4,0,2.7,0,3.8,0
		c0.1,0,0.2,0,0.2,0v-3.1c-0.6,0.4-1.4,0.6-2.2,0.6C72.3,342.2,71.6,342,70.9,341.6L70.9,341.6z"/>
	<path fill-rule="evenodd" clip-rule="evenodd" fill="#DDB308" d="M71,338.8c-0.8-0.7-0.8-2.1-0.6-3c0.1-0.3,0.1-0.5,0.2-0.8
		c-0.9,0.7-1.5,1.8-1.5,3.1c0,0.5,0.1,1,0.3,1.5c0.1,0,0.1,0,0.2,0C70.2,339.5,70.7,339.3,71,338.8L71,338.8z"/>
	<path fill-rule="evenodd" clip-rule="evenodd" fill="#DDB308" d="M75.1,339.1c-0.1,0.7-0.8,1.2-1.5,1.6c-0.7,0.4-1.8,0.6-2.6,0.7
		c0.6,0.4,1.4,0.7,2.2,0.7c1.5,0,2.8-0.8,3.5-2.1C76.5,339,75.6,338.8,75.1,339.1L75.1,339.1z"/>
	<path fill-rule="evenodd" clip-rule="evenodd" fill="#DDB308" d="M70.6,341.1c0.8,0,2.1-0.2,2.8-0.6c0.9-0.6,1.7-1.2,1.3-2
		c-0.2-0.4-0.8-0.9-1.5-0.4c0,0.6-0.8,1.2-1.4,1.1c-0.3,0-0.5-0.1-0.7-0.3c-0.3,0.5-0.9,0.8-1.5,0.8c0,0-0.1,0-0.1,0
		C69.8,340.3,70.2,340.7,70.6,341.1L70.6,341.1z"/>
	<path fill-rule="evenodd" clip-rule="evenodd" fill="#DDB308" d="M73.1,335.5c0.7-0.3,1.6,0.1,2.3,0.5c0.7,0.4,1.3,1,1.7,1.8
		c-0.1-2.1-1.8-3.7-3.9-3.7C72.5,334.5,72.6,335.2,73.1,335.5L73.1,335.5z"/>
	<path fill-rule="evenodd" clip-rule="evenodd" fill="#DDB308" d="M73,338.1c-0.8-0.6-0.8-1.5-0.4-2.1c0.1-0.1,0.2-0.2,0.3-0.3
		c-0.5-0.4-0.6-1.1-0.1-1.6c-0.7,0.1-1.3,0.3-1.9,0.7c-0.2,0.7-0.4,1.4-0.4,2.2c0,1.1,0.4,1.9,1.4,2C72.3,339,73,338.5,73,338.1
		L73,338.1z"/>
	<path fill-rule="evenodd" clip-rule="evenodd" fill="#DDB308" d="M77.1,338.4c-0.2-0.8-1-1.7-1.8-2.2c-1-0.5-2-0.8-2.5-0.1
		c-0.3,0.5-0.3,1.2,0.3,1.8c0.9-0.6,1.6,0,1.9,0.5c0.1,0.2,0.1,0.3,0.1,0.5c0.5-0.2,1.4-0.1,1.7,0.8C76.9,339.2,77,338.8,77.1,338.4
		L77.1,338.4z"/>
	<path fill-rule="evenodd" clip-rule="evenodd" fill="#231F20" d="M69.5,326.9h-2.8v3.9h0.8c0,0,0-1.5,0-1.6c0.1,0,1.2,0,1.2,0v-0.8
		c0,0-1.1,0-1.2,0c0-0.1,0-0.6,0-0.6c0.1,0,2,0,2,0L69.5,326.9L69.5,326.9L69.5,326.9z"/>
	<path fill-rule="evenodd" clip-rule="evenodd" fill="#231F20" d="M71.1,328.8c0,1.2,0.7,2,1.7,2c0.7,0,1.2-0.3,1.5-0.9l0,0
		l-0.7-0.4l0,0c-0.2,0.3-0.4,0.5-0.7,0.5c-0.5,0-0.9-0.5-0.9-1.2c0-0.7,0.3-1.2,0.9-1.2c0.3,0,0.5,0.1,0.7,0.4l0,0l0.8-0.4l0,0
		c-0.3-0.6-0.8-0.9-1.4-0.9C71.8,326.8,71.1,327.6,71.1,328.8L71.1,328.8z"/>
	<path fill-rule="evenodd" clip-rule="evenodd" fill="#231F20" d="M79,328.7c0.2-0.2,0.4-0.4,0.4-0.7c0-0.7-0.5-1.1-1.3-1.1h-1.8h0
		v3.9h1.8c0.9,0,1.4-0.5,1.4-1.3C79.5,329.1,79.3,328.8,79,328.7L79,328.7z M77.2,327.7c0.1,0,0.9,0,0.9,0c0.4,0,0.4,0.2,0.4,0.3
		c0,0.2-0.1,0.3-0.4,0.3c0,0-0.9,0-1,0C77.2,328.2,77.2,327.7,77.2,327.7L77.2,327.7z M78.2,330c0,0-0.9,0-1,0c0-0.1,0-0.8,0-0.9
		c0.1,0,1,0,1,0c0.3,0,0.5,0.1,0.5,0.5C78.7,329.8,78.5,330,78.2,330L78.2,330z"/>
	<path fill-rule="evenodd" clip-rule="evenodd" fill="#231F20" d="M79,312.9c-1.9,1.1-3.8,1.7-5.9,1.7c-2.1,0-4-0.6-5.9-1.7l-0.1,0
		l-0.1,0c-2.2,1.2-4.1,1.5-6.6,1.5c-0.6,0-1.2-0.1-1.9-0.2l-0.3-0.1l0.1,0.2c2.6,4.5,1.7,8.8,0.4,11.7l-0.1,0.2h28.5l-0.1-0.2
		c-1.2-2.8-2.2-7.2,0.4-11.7l0.1-0.2l-0.3,0.1c-0.6,0.1-1.3,0.2-1.9,0.2c-2.5,0-4.4-0.2-6.6-1.5L79,312.9L79,312.9L79,312.9z"/>
	<path fill-rule="evenodd" clip-rule="evenodd" fill="#FFFFFF" d="M64.4,314.3c-1.2,0.3-2.4,0.4-3.9,0.4c-0.5,0-1.1-0.1-1.7-0.2
		c0.7,1.2,1.1,2.4,1.3,3.5c1.6,0,4.1,0,4.2,0C64.4,317.9,64.4,315.9,64.4,314.3L64.4,314.3z"/>
	<path fill-rule="evenodd" clip-rule="evenodd" fill="#FFFFFF" d="M73,318v-3.1c-1.5,0-2.9-0.3-4.3-0.9c0,1.7,0,4,0,4.1
		C68.7,318,70.8,318,73,318L73,318z"/>
	<path fill-rule="evenodd" clip-rule="evenodd" fill="#FFFFFF" d="M60.3,322.3c-0.2,1.4-0.6,2.6-1,3.7c0.1,0,2.2,0,5.1,0
		c0-1.6,0-3.6,0-3.7C64.3,322.3,61.8,322.3,60.3,322.3L60.3,322.3z"/>
	<path fill-rule="evenodd" clip-rule="evenodd" fill="#FFFFFF" d="M68.7,325.9c1.4,0,2.9,0,4.3,0v-3.7c-2.2,0-4.3,0-4.3,0
		C68.7,322.3,68.7,324.4,68.7,325.9L68.7,325.9z"/>
	<path fill-rule="evenodd" clip-rule="evenodd" fill="#E03A3E" d="M68.7,318c0-0.1,0-2.3,0-4.1c-0.5-0.2-1-0.5-1.5-0.8
		c-1,0.5-1.9,0.9-2.8,1.1c0,1.7,0,3.7,0,3.7c-0.1,0-2.7,0-4.2,0c0.2,0.8,0.3,1.7,0.3,2.4c0,0.6,0,1.2-0.1,1.8c1.6,0,4,0,4.1,0
		c0,0.1,0,2.1,0,3.7c1.3,0,2.7,0,4.3,0c0-1.6,0-3.6,0-3.7c0,0,2.1,0,4.3,0V318C70.8,318,68.7,318,68.7,318L68.7,318z"/>
	<path fill-rule="evenodd" clip-rule="evenodd" fill="#FFDE1B" d="M79.1,313.2L79.1,313.2l0,12.8c0.5,0,1,0,1.5,0v-12.1
		C80.1,313.7,79.6,313.4,79.1,313.2L79.1,313.2z"/>
	<path fill-rule="evenodd" clip-rule="evenodd" fill="#FFDE1B" d="M76.1,314.5v11.5c0.5,0,1,0,1.5,0v-12
		C77.1,314.1,76.6,314.3,76.1,314.5L76.1,314.5z"/>
	<path fill-rule="evenodd" clip-rule="evenodd" fill="#FFDE1B" d="M73.3,314.9v11.1c0.4,0,0.9,0,1.3,0v-11.2
		C74.1,314.8,73.7,314.9,73.3,314.9L73.3,314.9z"/>
	<path fill-rule="evenodd" clip-rule="evenodd" fill="#FFDE1B" d="M82.1,314.3v11.6c0.5,0,1,0,1.5,0v-11.4
		C83.1,314.5,82.6,314.4,82.1,314.3L82.1,314.3z"/>
	<path fill-rule="evenodd" clip-rule="evenodd" fill="#FFDE1B" d="M85.8,320.4c0-1.9,0.4-3.9,1.6-6c-0.6,0.1-1.1,0.2-1.7,0.2
		c-0.2,0-0.4,0-0.6,0v11.3c1.1,0,1.8,0,1.9,0C86.4,324.4,85.8,322.5,85.8,320.4L85.8,320.4z"/>
	<path fill-rule="evenodd" clip-rule="evenodd" fill="#E03A3E" d="M83.6,314.5v11.4c0.6,0,1.1,0,1.5,0v-11.3
		C84.6,314.6,84.1,314.6,83.6,314.5L83.6,314.5z"/>
	<path fill-rule="evenodd" clip-rule="evenodd" fill="#E03A3E" d="M74.6,314.8v11.2c0.5,0,1,0,1.5,0v-11.5
		C75.6,314.6,75.1,314.7,74.6,314.8L74.6,314.8z"/>
	<path fill-rule="evenodd" clip-rule="evenodd" fill="#E03A3E" d="M77.6,313.9v12c0.5,0,1,0,1.5,0v-12.8
		C78.6,313.5,78.1,313.7,77.6,313.9L77.6,313.9z"/>
	<path fill-rule="evenodd" clip-rule="evenodd" fill="#E03A3E" d="M80.6,313.9v12.1c0.5,0,1,0,1.5,0v-11.6
		C81.6,314.2,81.1,314,80.6,313.9L80.6,313.9z"/>
</g>
<polygon fill-rule="evenodd" clip-rule="evenodd" fill="#BAA64D" points="30,299.6 117.2,300.1 114.4,304.6 31.7,304.1 "/>
</svg>
