<?xml version="1.0" encoding="utf-8"?>
<!-- Generator: Adobe Illustrator 18.0.0, SVG Export Plug-In . SVG Version: 6.00 Build 0)  -->
<!DOCTYPE svg PUBLIC "-//W3C//DTD SVG 1.1//EN" "http://www.w3.org/Graphics/SVG/1.1/DTD/svg11.dtd">
<svg version="1.1" id="Layer_1" xmlns="http://www.w3.org/2000/svg" xmlns:xlink="http://www.w3.org/1999/xlink" x="0px" y="0px"
	 viewBox="0 0 701.4 812.5" enable-background="new 0 0 701.4 812.5" xml:space="preserve">
<g>
	<polygon fill="#231F20" points="100.9,762 101,757.7 110.1,348 189.3,333.3 195.2,308.5 270,287.5 350,310.5 350.4,329.8 
		375.3,336.8 376,366.9 701,392 702.6,462.9 677.3,483.9 648.7,454.4 584.3,457.9 584.9,483.7 465.1,510 465.7,537.9 410.1,553.1 
		415.7,805.6 102,812.5 	"/>
	<polygon fill="#414042" points="270,287.5 281.4,808.5 147.1,811.5 173.8,313.3 	"/>
	<polygon fill="#414042" points="701,392 259.7,358 261.9,457.5 702.5,457.1 	"/>
	<polyline fill="#414042" points="702.4,453.6 702.6,465.7 682.4,488.4 630.1,455.2 	"/>
	<path fill="#231F20" d="M270,287.5l14.5-96.5l14.3-10.5c0,0-4.3,0.1-4.7-16s-1.2-54.2-1-72s-9.8-29.3-16.4-35.1
		c-6.6-5.8-0.7-8.6-0.7-8.6s14.6,4.5,14.9-4.6c0,0-2.3-8-1.8-9.4c0.5-1.4,3.5-1.4,3.5-1.4l-7.2-11.9c0,0,0.9-9.2-12.3-11.6L270.4,0
		c0,0-6.9,5-8.3,11.5c0,0-7.8-1.7-10,9.4s0.5,20.9,0.5,24.2c0,0,0-11.3-30.6,39.9S96.9,212.3,0,228.9c0,0,77.8-6,68.5,35.6
		c0,0,45.8-18.7,51.5,21.4c0,0,63.1-37.4,69.9,3.3l13.3,16.1L270,287.5z"/>
	<path fill="#414042" d="M290.9,32.7l-7.3,1.4l-0.2-10.4c0,0-1.8-10-10.1-12.3c0,0,10.2,1.7,11.4,11.2L290.9,32.7z"/>
	<path fill="#414042" d="M273.3,14.3l-3.6-11C269.7,3.2,267.6,13.6,273.3,14.3z"/>
	<polygon fill="#414042" points="275.8,46.8 276.8,35.1 262.8,31.9 273.8,36.1 	"/>
	<path fill="#414042" d="M272.4,59.2c0,0,0.3,0.2,0.7,0.6c3,2.5,13.9,12.5,15.8,27.3c2.2,17.1,1.9,85.6,1.9,85.6l3.4,6.4l-20.8,16.9
		l13.9-18.9c0,0-1.6-74.1-3.7-89.1S282.2,74.8,272.4,59.2z"/>
	<path fill="#414042" d="M73.5,248.3l97.8-74.2l-97.6,84.4C73.7,258.5,78.4,253,73.5,248.3z"/>
	<path fill="#414042" d="M123.9,280l65.5-87.4l-69.2,77.8C120.2,270.4,125,270.3,123.9,280z"/>
</g>
</svg>
