<?xml version="1.0" encoding="utf-8"?>
<!-- Generator: Adobe Illustrator 18.0.0, SVG Export Plug-In . SVG Version: 6.00 Build 0)  -->
<!DOCTYPE svg PUBLIC "-//W3C//DTD SVG 1.1//EN" "http://www.w3.org/Graphics/SVG/1.1/DTD/svg11.dtd">
<svg version="1.1" id="Layer_1" xmlns="http://www.w3.org/2000/svg" xmlns:xlink="http://www.w3.org/1999/xlink" x="0px" y="0px"
	 viewBox="0 0 215.8 648.7" enable-background="new 0 0 215.8 648.7" xml:space="preserve">
<g>
	<path fill="#362923" d="M6.8,555.2c0,0-8.2,62.2,24.7,82.3c0,0,15.6,6.4,18.3,0c0,0,8.2,12.8,30.2,11c22-1.8,33-15.6,33-15.6
		s22,16.9,42.1,15.8c20.2-1.1,25.7-12.1,25.7-12.1s23.8-10.9,32.1-54c0,0,4.6-25.7-7.3-47.7c-11.9-22-11-76.1-4.6-99
		s12.8-25.7,12.8-25.7s6.5-25-4.5-32.6V228.9c0,0,8.2-9.2,1.8-26.6l-49.5-87.9c0,0-70.6-12.7-106.3,0c0,0-34.8,57-44,83.4
		c0,0-9.2,27.6-5.5,35.7v145.2c0,0-12.7,26-0.9,34.3c0,0,10,7.3,11.9,22.9s3.6,47.7-3.7,93.5C13.3,529.4,7.3,549.9,6.8,555.2z"/>
	<path fill="#B3222D" d="M5.9,378.7c0,0,128.3,14.5,203.4-1.1V233.6c0,0-78.8-16.7-203.4,0V378.7z"/>
	<path fill="#736B60" d="M150.3,600.2c1.1-0.3,1.9-1,2.7-1.7c5.3-4.9,9.9-10.7,13.5-17c-13.6-2.3-27.1-4.7-40.7-7
		c-6.1-1-12.2-2.1-18.4-2.3c-6.7-0.2-13.4,0.6-20.2,0.8c-16.5,0.4-33-3.3-47.8-10.7c-0.6,25.4,14,50.5,36.4,62.6
		c2.1,1.1,4.5,2.2,6.8,1.6c2.5-0.6,4.3-3,5.6-5.2c6.5-10.9,10-23.5,18.1-33.2c5.9-7,16.4-12.2,24.2-7.4c7.2,4.4,8.8,15,16.3,18.9
		C147.9,600.1,149.1,600.5,150.3,600.2z"/>
	<path fill="#685448" d="M29.9,578.8c-0.9-4.1-1.8-8.1-2.7-12.2c-1.1-4.9-3.5-10.9-8.5-10.9c-3.2,0-5.8,2.7-6.7,5.8
		c-0.9,3-0.5,6.3-0.1,9.4c2.6-1,5.4,1,7.1,3.2c4.3,5.6,5.3,13,7,19.8c3.1,12.6,9.1,24.5,17.4,34.4c0.6,0.8,1.4,1.6,2.3,1.8
		c1,0.3,2.2-0.3,2.3-1.3C37.9,614,33.8,596.2,29.9,578.8z"/>
	<path fill="#685448" d="M25.7,629.4c3.1,3.4,7.5,5.8,12,5.7c0.5-3.9-3.1-7-5.4-10.2c-2.7-3.8-9.7-31.6-16.6-27.8
		C8.6,600.9,22.4,625.8,25.7,629.4z"/>
	<path fill="#685448" d="M47.7,471.4c-2.9-10.9-7.8-21.1-11.1-31.9c-3.2-10.8-4.8-22.6-0.9-33.2c-6.1,2-12.3,4-18.4,6
		c7.6,12.8,9.4,28.2,11,43.1c1.5,14.5,3.1,29.4-0.1,43.6c-3.7,16.7-13.8,32-14.6,49.1c4.8-0.2,9.6-0.3,14.4-0.5
		c1.8-0.1,3.6-0.1,5.2-0.9c2.1-1,3.4-3,4.6-5C50.3,520.9,54,494.9,47.7,471.4z"/>
	<path fill="#685448" d="M8.1,406c1.6,0.6,3.5,0.2,5.2-0.2c3.4-0.8,6.8-1.7,10.2-2.5c-2.7-6.6-1.8-14.4,2.1-20.3
		c-5.2-1.4-10.6-1.9-15.9-1.4c-2.6,4.7-4.3,10-4.9,15.3C4.3,400.4,4.9,404.7,8.1,406z"/>
	<path fill="#685448" d="M10.6,224c-0.1,0.7-0.2,1.4,0.3,1.9c0.5,0.6,1.4,0.5,2.1,0.5c11.9-1.3,23.9-2.6,35.8-4
		c-4.9-2-10.2-4.4-12.9-8.9c-2.3-3.8-2.4-8.4-1.9-12.7c0.6-5.1,2.1-10.1,3.5-15c5.1-17.5,10.2-35.1,15.4-52.6
		C33.5,160.6,15.4,190.6,10.6,224z"/>
	<path fill="#736B60" d="M110.9,218.8c9.7-3.7,17.9-10.9,22.8-20c5.6-10.4,6.7-22.6,7.2-34.4c0.6-12.9,0.6-25.8,0.1-38.7
		c1.5,25.6,10.5,50.6,25.6,71.3c5.5,7.5,12.1,15.1,13.1,24.4c-15,0.2-29.9,0.3-44.9,0.5C126.7,222,118.3,222,110.9,218.8z"/>
	<path fill="#736B60" d="M161.8,532c-1,9.3-2.8,18.9-8.9,26c-6,7.1-17.5,10.3-24.8,4.5c12.8-11.6,17.7-29.8,18.1-47.1
		c0.5-17.3-2.7-34.5-3.1-51.8s2.7-35.6,13.9-48.9c-7.7,14.9-2.4,32.8,1.2,49.2C163.1,486.2,164.3,509.3,161.8,532z"/>
	<path fill="#141217" d="M51.7,619.5c2.3,5.5,4.5,10.9,6.8,16.4c1,2.3,2.1,4.8,4.3,5.8c1.5,0.7,3.2,0.7,4.9,0.6
		c6.5-0.3,13-0.9,19.5-1.8c3.2-0.4,6.4-0.9,9.3-2.3c5.1-2.5,8.4-7.5,11.1-12.4c4.6-8.6,8.1-18,8.3-27.7c-4.1,9.3-9.7,17.9-16.5,25.5
		c-2.4,2.7-5,5.3-8.3,6.8c-2.7,1.3-5.7,1.7-8.7,1.7c-10.2,0.1-20.2-5-26.1-13.3c-0.7-1-1.7-2.1-2.8-1.7c-0.8,0.3-1,1.2-1.1,2.1
		c-0.5,5.1,3.1,10.2,8,11.6"/>
	<path fill="#141217" d="M130.2,619.2c-0.5,3.6-1,7.4,0.5,10.7c1.9,4.4,6.5,6.8,10.8,8.9c5.4,2.6,11,5.1,17,4.9
		c6.3-0.2,12.2-3.6,16.6-8.2c4.4-4.5,7.5-10.1,10.4-15.8c8-15.6,14.5-32,19.6-48.8c-9,7.8-20.2,13.1-31.9,15.2
		c0.2,5.5-0.4,11.1-3,16c-2.6,4.8-7.6,8.6-13.1,8.5c-4.5-0.1-8.6-2.8-12.3-5.4c-3.8-2.6-7.6-5.3-11.4-7.9
		C132.2,604.7,131.2,612,130.2,619.2z"/>
	<path fill="#141217" d="M200.5,430.4c0.7-2.5,1.3-5.3,0.5-7.8c-1.5-4.7-6.9-6.8-11.8-7.2s-9.9,0.3-14.5-1.4
		c0.6,3.3-1.3,6.5-2.8,9.5c-6.5,12.9-5.8,28.1-3.2,42.3c2.6,14.2,7,28.1,7.5,42.5c0.7,21-7.3,42.2-21.8,57.5c16,6,34.1-0.9,48-10.8
		c1.9-1.4,3.9-3,4.5-5.3c0.9-3.8-2.4-7.1-4.9-10.1c-7-8.4-8.8-19.9-10.1-30.8c-2.3-19.1-3.9-38.8,1.5-57.2
		C195.5,444.4,198.6,437.6,200.5,430.4z"/>
	<path fill="#141217" d="M208.8,399.7c1.2-4.3,1-9-0.5-13.3c-0.5-1.5-1.2-3-2.4-4c-2.2-1.9-5.4-1.9-8.3-1.8c-8,0.5-16,1.6-23.9,3.4
		c3.1,2.4,3.9,7,2.5,10.7c-1.5,3.6-5,6.2-8.8,7c9.6,1.7,19.2,3.5,28.8,5.2c2.5,0.4,5.1,0.9,7.4-0.1
		C206.3,405.6,208,402.6,208.8,399.7z"/>
	<path fill="#141217" d="M87.5,120.5c1.5-0.8,3.3-1.6,3.9-3.3c0.8-2-0.7-4.4-2.6-5.4c-2-1-4.3-0.9-6.5-0.8
		c-3.5,0.1-7.1,0.3-10.4,1.6c-7.8,3-11.9,11.5-15,19.3c-7.2,18.3-12.9,37.5-13.9,57.2c4.4-9.7,8.9-19.5,13.4-29.2
		C63.8,144.5,72.4,128.4,87.5,120.5z"/>
	<path fill="#141217" d="M204.8,224c2.4-6.5,2.8-13.8,1-20.5c-1.8-7-5.8-13.1-9.8-19.2c-13.5-20.8-27.1-41.5-40.6-62.3
		c-1-1.5-2.3-3.2-4.1-3.1c-3.1,0.1-3.3,4.8-2.2,7.7c5.9,16.2,16.2,30.2,24.2,45.5s13.6,32.9,9.1,49.5c6.1,1.5,12.3,2.9,18.4,4.4
		c0.9,0.2,1.8,0.4,2.6,0C204.1,225.7,204.5,224.8,204.8,224z"/>
	<g id="bOjIZk.tif_7_">
		<g>
			<path fill="#141217" d="M90.1,435.2c0.6,0.1,0.9,0.4,1.3,0.7c0.9,0.7,1.8,1.3,2.7,1.9c0.3,0.2,0.6,0.5,0.9,0.7
				c0.9,0.7,1.7,1.4,2.7,2.1c1.3,0.9,2.2,2.1,3.4,3.1c0.5,0.4,0.9,0.8,1.3,1.2c0.9,0.9,1.8,1.8,2.7,2.7c0.9,1.1,1.7,2.2,2.5,3.3
				c0.3,0.4,0.8,0.6,1.3,0.8c0.9,0.4,1.8,0.7,2.7,1c1.2,0.4,2.4,0.7,3.6,1c0.8,0.2,1.6,0.3,2.4,0.1c0.6-0.1,1-0.8,0.7-1.3
				c-0.6-1-1.6-1.7-2.6-2.3c-1.3-0.9-2.7-1.7-4-2.5c-1.1-0.7-2.3-1.3-3.4-2c-0.9-0.5-1.7-1.1-2.5-1.8c-1-0.8-1.9-1.5-2.8-2.4
				c-0.7-0.6-1.3-1.3-1.9-2c-0.1-0.1-0.1-0.2-0.2-0.2c-0.7-0.6-1.1-1.5-1.4-2.3c-0.3-0.7-0.2-1.5,0.2-2.3c0.1-0.3,0.5-0.5,0.8-0.7
				c0.2-0.2,0.4-0.3,0.6-0.5c-0.3-0.1-0.5-0.3-0.7-0.4c-0.4-0.1-0.5-0.3-0.5-0.7c0-0.7,0-1.5-0.1-2.2c0-0.3,0-0.7,0-1
				c0-0.2,0-0.3,0.3-0.2c0.4,0.2,0.7,0.3,1.1,0.5c0.7,0.3,1.4,0.7,2.1,1c0.9,0.4,1.7,0.9,2.6,1.3c0.4,0.2,0.7,0.4,1.1,0.6
				c1.1,0.6,2.2,1.1,3.3,1.7c0.9,0.4,1.7,0.9,2.6,1.4c1.3,0.6,2.6,1.3,3.9,1.9c0.2,0.1,0.4,0.1,0.6,0.2c0.2,0,0.4,0,0.5-0.1
				c0.1-0.1,0.2-0.4,0.1-0.5c-0.3-0.5-0.4-1-0.9-1.4c-0.4-0.3-0.7-0.8-1.1-1.1c-1-0.9-2.2-1.7-3.4-2.4c-0.6-0.3-1.1-0.7-1.6-1.1
				c-0.2-0.1-0.3-0.9-0.1-1.1c0.1-0.1,0.3-0.1,0.3,0c0.4,0.3,0.9,0.6,1.3,0.8c0.3,0.2,0.7,0.4,1,0.6c1,0.6,2,1.3,2.9,2
				c0.7,0.6,1.5,1.1,2.2,1.7c0.6,0.5,1.2,1.1,1.7,1.7c0.9,0.9,1.4,1.9,2,2.9c0.3,0.6,0.3,1.3,0,2c-0.2,0.5-0.8,0.8-1.3,0.9
				c-0.6,0.1-1.1,0-1.7,0c-0.1,0-0.2,0-0.4,0.1c0.1,0.2,0.2,0.3,0.3,0.4c1,0.9,1.9,1.8,2.6,2.9c0.6,0.9,0.9,1.8,0.6,2.8
				c-0.2,0.6-0.7,1.2-1.5,1.4c-0.6,0.1-1.1,0.3-1.7,0.2c-0.4,0-0.8-0.1-1.2-0.1c0,0-0.1,0.1-0.1,0.1c0.2,0.2,0.3,0.3,0.5,0.5
				c0.6,0.5,1.2,1,1.8,1.4c0.6,0.5,1,1.1,1.5,1.7c0.5,0.6,0.7,1.3,0.9,2c0.1,0.6-0.1,1.1-0.5,1.6c-0.6,0.8-1.5,1-2.5,1.2
				c-1.4,0.2-2.7-0.1-4-0.5c-1.1-0.3-2.3-0.6-3.4-1c-0.5-0.1-1-0.3-1.5-0.4c-0.1,0-0.2,0-0.3,0.1c-0.1,0,0,0.2,0,0.2
				c0,0.1,0.1,0.3,0.1,0.4c0,0.4,0,0.8,0.1,1.2c0,0.2,0.2,0.3,0.3,0.4c1.3,0.7,2.6,1.4,3.8,2.2c1.1,0.7,2.1,1.5,3.2,2.3
				c1.2,0.9,2.3,2,3.1,3.1c0.7,0.9,1.3,1.9,1.6,3c0.2,0.8,0.1,1.6-0.6,2.2c-0.6,0.5-1.3,0.8-2.2,0.9c-1.7,0.1-3.4-0.2-5-0.7
				c-0.7-0.3-1.5-0.5-2.2-0.8c-0.9-0.4-1.8-0.9-2.7-1.3c-0.5-0.3-1.1-0.6-1.6-0.9c-0.6-0.4-1.1-0.7-1.7-1.1
				c-0.8-0.6-1.7-1.2-2.5-1.9c-0.6-0.5-1.1-1.1-1.7-1.7c-1-1-1.7-2.2-2.4-3.4c-0.3-0.6-0.5-1.2-0.5-1.8c0-0.7,0.1-1.4,0.6-2
				c0.4-0.5,1-0.6,1.6-0.7c1.3-0.2,2.7-0.1,3.9,0.4c0.7,0.2,1.4,0.5,2.1,0.7c0.3,0.1,0.6,0.3,0.9,0.4c0.2,0.1,0.4,0,0.4-0.2
				c0-0.4-0.1-0.9-0.2-1.3c-0.1-0.5-0.4-0.8-1-1c-1-0.4-2-0.8-3-1.3c-1.6-0.8-3.2-1.6-4.8-2.5c-1.3-0.7-2.6-1.4-3.9-2.2
				c-1.2-0.8-2.4-1.6-3.6-2.4c-1-0.7-2-1.4-3-2c-0.5-0.3-0.9-0.7-1.4-1c-0.7-0.6-1.5-1.2-2.2-1.8c-1-0.9-2-1.7-2.9-2.7
				c-1.1-1.1-2.1-2.3-3.2-3.5c-0.6-0.7-1.1-1.3-1.6-2c-0.6-0.9-0.8-1.8-0.7-2.8c0.1-0.6,0.7-1,1.4-1.1c1.4-0.1,2.7,0.2,3.8,0.8
				c0.6,0.3,0.8,0.7,0.6,1.3c-0.5-0.2-1-0.5-1.5-0.7c-0.7-0.2-1.4-0.5-2.1-0.6c-0.6-0.1-1.1,0.5-0.7,1c0.4,0.6,0.8,1.3,1.4,1.8
				c1.2,1.2,2.5,2.3,3.8,3.5c0.9,0.8,1.9,1.5,2.9,2.2c0.8,0.6,1.5,1.1,2.3,1.6c0.5,0.3,1,0.6,1.5,0.9c0.9,0.6,1.9,1.2,2.8,1.8
				c0.8,0.5,1.6,0.9,2.4,1.4c0.9,0.5,1.8,1.1,2.7,1.6c0.7,0.4,1.5,0.8,2.3,1.2c0.8,0.4,1.7,0.8,2.5,1.2c0.4,0.2,0.9,0.4,1.3,0.5
				c0-0.5-0.5-0.7-0.8-1c-0.6-0.7-1.2-1.3-1.8-2c-0.5-0.6-1.1-1.2-1.6-1.8c-0.7-0.7-1.4-1.4-2.2-2.1c-0.5-0.5-1.1-0.8-1.7-1.2
				c-0.1,0-0.1-0.1-0.2-0.1c-0.7-0.6-1.4-1.1-2-1.7c-0.7-0.6-1.4-1.3-2.1-1.9c-0.7-0.5-1.4-0.9-2.1-1.4c-0.1-0.1-0.3-0.3-0.3-0.4
				C90.1,436,89.9,435.6,90.1,435.2z M102.6,434.5c-0.7,0-1.1,0.3-1,0.7c0.1,0.5,0.4,0.9,0.7,1.3c0.6,0.7,1.3,1.4,2.1,2.1
				c0.8,0.7,1.7,1.3,2.6,2c0.9,0.6,1.8,1.1,2.8,1.7c0.9,0.5,1.9,1.1,2.8,1.6c1.3,0.6,2.7,1.2,4.2,1.4c0.4,0,0.7,0,1-0.2
				c0.3-0.3,0.4-0.6,0.2-1c-0.1-0.2-0.3-0.5-0.5-0.7c-0.5-0.5-1-1-1.6-1.4c-0.7-0.5-1.4-0.9-2.1-1.4c-0.6-0.4-1.2-0.7-1.9-1.1
				c-1-0.6-2.1-1.1-3.1-1.7c-0.4-0.2-0.8-0.4-1.2-0.6c-0.7-0.4-1.4-0.7-2-1.1c-0.7-0.4-1.3-0.7-2-1.1
				C103.3,434.8,102.9,434.6,102.6,434.5z M106.8,463.9c0.1,0.1,0.2,0.2,0.3,0.3c1,0.6,1.9,1.2,2.9,1.7c1.2,0.7,2.5,1.3,4,1.7
				c0.9,0.3,1.8,0.5,2.8,0.4c1.1-0.1,1.7-1.1,1.2-2c-0.4-0.8-1-1.4-1.7-2c-0.8-0.7-1.8-1.4-2.7-2c-0.8-0.5-1.7-1-2.6-1.4
				c-0.5-0.3-1-0.2-1.2,0.1c-0.4,0.7-0.8,1.4-1.5,1.9C107.9,463.2,107.3,463.5,106.8,463.9z M108.8,459.6c-0.6-0.2-1.1-0.4-1.6-0.6
				c-1-0.4-2-0.8-3.1-0.9c-0.5-0.1-1.1-0.1-1.7,0c-0.2,0-0.5,0.1-0.7,0.3c-0.3,0.3-0.5,0.7-0.3,1.2c0.1,0.4,0.3,0.7,0.5,1
				c0.4,0.7,1.1,1.3,1.9,1.7c1.1,0.5,2.3,0.4,3.3-0.2C108.1,461.4,108.6,460.6,108.8,459.6z"/>
			<path fill="#141217" d="M97,522.6c0-0.3,0-0.5-0.1-0.7c-0.3-0.7-0.8-1.4-1.2-2.1c-1-1.4-2.3-2.4-3.6-3.6
				c-0.9-0.8-1.7-1.7-2.3-2.7c-0.4-0.6-0.9-1.2-1.1-1.8c-0.3-0.6-0.4-1.2-0.3-1.9c0.1-0.6,0.2-1.2,0.7-1.7c0.5-0.6,1.1-0.9,1.9-1
				c0.8-0.1,1.6,0.1,2.4,0.4c0.8,0.3,1.5,0.7,2.1,1.1c0.6,0.4,1.2,1,1.2,1.8c0,0.5-0.5,0.9-1.1,1c-0.8,0.1-1.4-0.2-1.9-0.6
				c-0.5-0.3-0.9-0.6-1.1-1.1c-0.1-0.3-0.2-0.6-0.3-0.9c0-0.4-0.3-0.5-0.6-0.5c-1-0.1-1.5,0.6-1.2,1.5c0.4,1,1.1,1.9,2,2.6
				c1.2,1.1,2.5,2.2,4,3.1c1.4,0.8,2.8,1.7,4.4,2.3c0.9,0.3,1.9,0.8,2.8,1.1c1,0.3,2,0.5,3.1,0.2c1.2-0.3,1.5-1.3,1.3-2.2
				c-0.2-1-0.9-1.9-1.7-2.7c-0.4-0.4-0.9-0.9-1.3-1.4c-0.5-0.5-1.1-1-1.7-1.4c-0.6-0.4-1.2-0.9-1.8-1.3c-0.8-0.5-1.6-1.1-2.4-1.6
				c-0.6-0.4-1.1-0.8-1.7-1.2c-0.5-0.3-1-0.7-1.5-1c-0.6-0.4-1.2-0.8-1.7-1.3c-0.6-0.5-1.2-1-1.8-1.5c-0.9-0.8-1.7-1.6-2.5-2.5
				c-0.7-0.8-1.2-1.7-1.5-2.7c-0.3-1-0.1-1.9,0.7-2.7c0.1-0.1,0.1-0.1,0.2-0.2c0.2-0.2,0.3-0.3-0.1-0.5c-0.4-0.1-0.5-0.4-0.5-0.8
				c0-1.1,0-2.2,0-3.5c0.4,0.2,0.8,0.4,1.1,0.5c1.5,0.8,3,1.6,4.5,2.4c1.2,0.6,2.4,1.2,3.6,1.8c1,0.5,2,1.1,3,1.7
				c0.9,0.5,1.7,0.9,2.6,1.4c0.6,0.3,1.3,0.6,1.9,0.9c0.1,0.1,0.2,0.1,0.4,0.1c0.2,0,0.6,0,0.7-0.1c0.1-0.2,0.2-0.5,0.1-0.7
				c-0.3-0.5-0.7-1.1-1.2-1.5c-0.8-0.7-1.5-1.5-2.4-2.1c-0.9-0.7-1.9-1.3-2.9-2c-0.1-0.1-0.2-0.2-0.2-0.4c0-0.3,0-0.7,0-1.1
				c0.3,0.2,0.6,0.3,0.8,0.5c0.9,0.6,1.9,1.3,2.8,1.9c0.5,0.3,1,0.7,1.4,1c0.8,0.7,1.7,1.3,2.4,2c1,0.9,1.9,1.9,2.8,2.9
				c0.6,0.8,1.1,1.6,1.1,2.6c0,1-1,1.7-2,1.7c-0.5,0-0.9,0-1.5,0c0.1,0.1,0.1,0.4,0.3,0.5c0.9,0.6,1.6,1.4,2.2,2.3
				c0.5,0.7,0.8,1.4,1,2.1c0.2,1.3-0.6,2.6-2.3,2.7c-1.1,0.1-2.2-0.2-3.2-0.4c-0.1,0-0.1,0-0.2,0c0,0,0,0-0.1,0.1
				c0.3,0.3,0.6,0.6,0.9,0.9c0.9,0.9,1.8,1.7,2.6,2.6c0.7,0.8,1.4,1.7,1.9,2.8c0.4,0.9,0.6,1.8,0.5,2.8c-0.1,1.5-1.4,2.7-3.1,3.1
				c-0.6,0.1-1.1,0.2-1.7,0.3c-0.5,0-1.1-0.1-1.6-0.2c-1.3-0.3-2.6-0.7-3.8-1.1c-0.9-0.3-1.7-0.8-2.5-1.2c-0.1-0.1-0.3-0.1-0.5-0.2
				c0.1,0.3,0.1,0.6,0.2,0.9c0.1,0.3,0.2,0.5,0.2,0.8c0,0.6,0.5,0.8,0.9,1c1,0.5,2,1,2.9,1.6c0.9,0.6,1.8,1.2,2.6,1.8
				c1.1,0.8,2.1,1.7,3.1,2.6c0.6,0.5,1,1.2,1.6,1.7c0.6,0.6,1,1.3,1.3,2c0.4,0.9,0.6,1.9,0,2.9c-0.4,0.6-1,1-1.8,1.2
				c-0.8,0.2-1.6,0.3-2.4,0.2c-0.9-0.1-1.8-0.3-2.7-0.5c-0.8-0.2-1.5-0.4-2.2-0.7c-1-0.4-1.9-0.9-2.9-1.4c-1.2-0.7-2.3-1.3-3.4-2.1
				c-1.1-0.8-2.1-1.8-3.2-2.7c-0.9-0.7-1.5-1.6-2.2-2.5c-0.6-0.8-1.2-1.7-1.5-2.7c-0.2-0.7-0.4-1.4-0.2-2.1c0.1-0.6,0.5-1.1,1.2-1.5
				c1-0.5,2-0.5,3.1-0.4c1.1,0.1,2.2,0.5,3.2,0.8C96.2,522.3,96.5,522.4,97,522.6z M90.3,496.8c0,0.5,0.3,0.9,0.5,1.2
				c0.5,0.8,1.3,1.3,2,1.9c1.1,0.8,2.1,1.6,3.2,2.3c1.3,0.9,2.7,1.8,4.1,2.5c1.7,0.9,3.5,1.7,5.5,2.2c0.5,0.1,0.9,0,1.2-0.3
				c0.2-0.2,0.2-0.6,0.1-0.8c-0.4-0.8-1.1-1.5-1.8-2.1c-0.5-0.4-1.1-0.7-1.7-1.1c-1.3-0.8-2.6-1.5-4-2.3c-1.2-0.7-2.4-1.3-3.6-1.9
				c-1.4-0.7-2.8-1.4-4.2-2.2c-0.4-0.2-0.7-0.2-1,0.1C90.4,496.4,90.4,496.6,90.3,496.8z M95.4,528.6c0,0.1,0.1,0.2,0.2,0.2
				c1.1,0.6,2.1,1.3,3.2,1.9c1.2,0.6,2.5,1.2,3.8,1.7c0.8,0.3,1.6,0.5,2.5,0.5c1.5-0.1,2.2-0.9,1.5-2.2c-0.5-0.8-1.2-1.5-2-2.2
				c-1-0.9-2.1-1.6-3.2-2.3c-0.8-0.5-1.7-1-2.5-1.4c-0.3-0.2-0.5-0.1-0.6,0.2c-0.4,0.9-0.8,1.8-1.6,2.5
				C96.3,527.9,95.8,528.2,95.4,528.6z M92,522.5c-0.2,0.1-0.6,0.1-1,0.3c-0.3,0.1-0.5,0.3-0.6,0.6c-0.4,0.6-0.1,1.2,0.2,1.7
				c0.3,0.6,0.9,1.1,1.5,1.4c1,0.6,2.4,1,3.6,0.1c0.9-0.6,1.2-1.5,1.4-2.4c0-0.1-0.2-0.3-0.3-0.4c-0.4-0.2-0.8-0.3-1.2-0.5
				C94.5,522.9,93.4,522.6,92,522.5z"/>
			<path fill="#141217" d="M79.3,461.2c-0.4,0.1-0.5,0.3-0.4,0.6c0.1,0.6,0.1,1.3,0.3,1.9c0.2,0.7,0.6,1.4,1.1,2
				c0.5,0.8,1.1,1.6,1.7,2.4c0.5,0.6,1,1.2,1.5,1.8c0.5,0.5,0.9,0.9,1.4,1.4c0.8,0.8,1.6,1.5,2.5,2.3c0.2,0.2,0.5,0.3,0.7,0.5
				c0.3,0.3,0.6,0.5,0.9,0.8c0.4,0.3,0.7,0.6,1.1,0.8c0.7,0.5,1.4,1.1,2.1,1.6c1.1,0.8,2.2,1.6,3.4,2.3c2.2,1.3,4.3,2.6,6.7,3.6
				c1.5,0.7,3,1.3,4.6,1.9c1.7,0.6,3.4,1,5.3,1.2c0.7,0.1,1.5,0.2,2.2,0.2c1.3,0,2.5-0.3,3.5-1c0.7-0.5,1.2-1.3,1.3-2.1
				c0.1-0.7-0.1-1.4-0.3-2.1c-0.1-0.4-0.5-0.8-0.7-1.2c-0.6-0.8-1.2-1.6-2-2.2c-0.7-0.6-1.3-1.2-2.1-1.7c-1.4-1-2.8-1.9-4.5-2.6
				c-1.1-0.5-2.2-0.9-3.3-1.1c-0.8-0.2-1.6-0.3-2.4-0.4c-0.5,0-1.1,0-1.6,0.3c-0.3,0.2-0.5,0.9-0.3,1.3c0.3,0.8,0.7,1.4,1.5,1.9
				c0.7,0.4,1.3,0.9,2,1.2c1,0.6,2.2,0.9,3.4,1.1c0.4,0.1,0.7,0.3,0.9,0.6c0.4,0.7,0.8,1.3,1.3,2c0.6,0.7,1.2,1.3,1.8,2
				c0.2,0.2,0.5,0.5,0.8,0.8c-0.4,0-0.7,0-0.9-0.1c-0.9-0.2-1.8-0.3-2.6-0.5c-0.5-0.1-0.9-0.3-1.4-0.5c-1-0.4-2-0.7-2.9-1.2
				c-0.9-0.5-1.8-1-2.6-1.6c-0.8-0.7-1.5-1.4-2.1-2.2c-0.4-0.5-0.7-1.1-0.9-1.7c-0.2-0.7-0.4-1.4-0.5-2c-0.1-0.7,0.7-1.8,1.4-2.1
				c0.8-0.3,1.6-0.5,2.5-0.5c0.7,0,1.4,0.1,2,0.2c0.6,0.1,1.2,0.2,1.8,0.4c1,0.3,2,0.7,2.9,1.1c0.8,0.4,1.6,0.7,2.4,1.2
				c1.2,0.7,2.3,1.5,3.4,2.3c0.6,0.4,1.1,0.8,1.6,1.3c1.4,1.3,2.5,2.6,3.6,4.1c0.3,0.4,0.5,0.8,0.7,1.3c0.2,0.7,0.4,1.4,0.6,2.1
				c0.2,1,0.1,2.1-0.3,3.1c-0.3,0.7-0.7,1.3-1.4,1.9c-0.4,0.4-1,0.7-1.4,1.1c-0.1,0.1-0.2,0.1-0.3,0.2c-0.8,0.5-1.8,0.7-2.7,0.9
				c-1.2,0.3-2.5,0.2-3.7,0.1c-1.1-0.1-2.1-0.3-3.1-0.6c-1.3-0.3-2.6-0.8-3.9-1.2c-1.2-0.4-2.3-0.9-3.5-1.4c-0.7-0.3-1.4-0.6-2-1
				c-0.9-0.5-1.8-1-2.6-1.5c-1.6-1-3.3-2-4.9-3c-0.8-0.5-1.5-1.1-2.2-1.7c-0.8-0.6-1.5-1.3-2.3-1.9c-1-0.9-2-1.7-2.9-2.7
				c-0.8-0.8-1.6-1.7-2.3-2.6c-0.4-0.4-0.8-0.9-1.1-1.3c-0.7-1.1-1.4-2.2-2.1-3.3c-0.8-1.2-1.2-2.5-1.7-3.7c-0.4-1-0.8-2-0.7-3.1
				c0.1-0.9,0.3-1.8,1-2.6c0.3-0.3,0.3-0.6,0.2-0.9c-0.3-1-0.7-1.9-1-2.9c-0.1-0.3-0.1-0.6-0.1-0.9c0-0.8-0.1-1.6,0.1-2.4
				c0.1-0.5,0.2-1,0.3-1.4c0.2-0.5,0.3-1.1,0.6-1.6c0.4-0.8,0.8-1.5,1.2-2.3c0.6-1.1,1.2-2.1,1.8-3.1c0.3-0.5,0.6-1,0.8-1.5
				c0-0.1,0.1-0.1,0.1-0.2c0.3-0.6,0.4-0.6,0.9-0.1c0.6,0.5,1.1,1,1.6,1.4c0.4,0.3,0.8,0.7,1.2,1c0.3,0.2,0.3,0.4,0.1,0.7
				c-0.7,1-1.4,1.9-2,2.9c-0.7,0.9-1.4,1.8-2,2.8c-0.5,0.8-1,1.7-1.4,2.6c-0.5,1-0.7,2-0.9,3.1c-0.1,0.6,0,1.2,0.3,1.8
				c0,0.1,0.4,0.2,0.7,0.2c0.5,0,0.9,0.1,1.4,0.1c1,0,2,0.3,2.9,0.6c0.6,0.2,1.1,0.3,1.7,0.5c0.9,0.3,1.8,0.7,2.6,1.2
				c0.9,0.6,1.9,1.2,2.8,1.8c0.5,0.3,0.9,0.7,1.3,1.1c0.5,0.5,1,1.1,1.4,1.7c0.5,0.8,0.9,1.6,0.8,2.5c-0.1,0.9-0.9,1.6-2.1,1.8
				c-1,0.2-2-0.1-2.9-0.4c-0.9-0.3-1.7-0.6-2.5-1.1c-1.9-1-3.6-2.1-5.1-3.6c-0.6-0.6-1.1-1.1-1.6-1.7c-0.6-0.7-1.1-1.4-1.6-2.1
				C79.6,461.4,79.4,461.3,79.3,461.2z M81.2,460.1c-0.7,0-0.8,0.1-0.5,0.7c0.1,0.3,0.3,0.6,0.5,0.9c0.5,0.6,1,1.3,1.6,1.9
				c0.5,0.5,1.1,1.1,1.7,1.5c0.7,0.6,1.5,1.2,2.3,1.7c0.9,0.6,1.9,1.1,2.9,1.6c1,0.5,2.1,0.9,3.3,0.9c0.6,0,1.3-0.6,1.2-1.1
				c-0.1-0.6-0.3-1.2-0.8-1.6c-0.3-0.3-0.6-0.7-0.9-1c-0.3-0.4-0.6-0.8-1-1.1c-0.6-0.5-1.2-0.9-1.8-1.4c-0.7-0.5-1.4-0.9-2.2-1.3
				c-0.6-0.3-1.3-0.5-1.9-0.8C84.1,460.5,82.7,460.2,81.2,460.1z"/>
			<path fill="#141217" d="M123,495.9c-0.1,0.2-0.2,0.4-0.4,0.5c-0.3,0.5-0.6,0.9-0.9,1.4c-0.3,0.5-0.5,1.1-0.7,1.6
				c-0.2,0.6-0.4,1.2-0.6,1.9c-0.2,0.6-0.3,1.2-0.3,1.8c-0.1,0.4,0,0.8-0.1,1.2c-0.1,1.1,0.1,2.1,0.4,3.1c0.2,0.8,0.7,1.5,1.4,2.1
				c0.3,0.3,0.6,0.5,0.9,0.8c0.2,0.1,0.2,0.2,0,0.4c-0.5,0.4-0.9,0.7-1.4,1.1c-0.3,0.3-0.6,0.5-0.9,0.8c-0.5,0.7-0.9,1.3-1.2,2
				c-0.4,0.9-0.6,1.8-0.9,2.7c-0.1,0.5-0.2,1.1-0.2,1.6c0,0.6-0.1,1.3,0,1.9c0.1,1.1,0.2,2.2,0.4,3.3c0.2,1.1,0.5,2.3,0.7,3.4
				c0.1,0.4,0.3,0.9,0.4,1.3c0.1,0.3,0.1,0.6,0.2,0.9c0.3,1.1,0.6,2.1,0.9,3.2c0.2,0.8,0.4,1.5,0.6,2.3c0.3,1,0.6,2,0.8,3.1
				c0.2,1.2,0.3,2.4,0.3,3.6c0,0.6-0.2,1.3-0.3,1.9c-0.1,0.8-0.4,1.6-0.8,2.3c-0.4,0.9-1,1.7-1.8,2.4c-0.6,0.5-1.3,1.1-2,1.5
				c-0.8,0.5-1.8,0.8-2.7,1c-1.6,0.4-3.2,0.5-4.9,0.4c-1.1-0.1-2.1-0.2-3.2-0.4c-1-0.2-2-0.4-2.9-0.7c-0.9-0.2-1.7-0.6-2.5-0.9
				c-0.7-0.3-1.4-0.5-2.1-0.8c-0.6-0.3-1.2-0.5-1.8-0.8c-1-0.5-2-1.1-3-1.7c-1.3-0.8-2.6-1.6-3.9-2.5c-0.9-0.6-1.6-1.3-2.4-1.9
				c-0.6-0.5-1.2-1-1.8-1.5c-0.8-0.8-1.6-1.6-2.3-2.4c-0.8-0.9-1.6-1.7-2.4-2.6c-0.7-0.8-1.3-1.6-1.8-2.6c-0.2-0.5-0.5-0.9-0.8-1.3
				c-0.7-1.2-1.2-2.5-1.6-3.8c-0.2-0.8-0.4-1.7-0.4-2.5c0-1.5,0.9-2.7,2.7-3.1c0.6-0.1,1.2-0.1,1.8,0c1.5,0.3,2.7,0.9,3.8,1.8
				c0.6,0.5,0.8,1.1,0.6,1.8c-0.1,0.4-0.5,0.6-1,0.6c-0.8,0-1.6-0.2-2.2-0.7c-0.4-0.3-0.8-0.7-1.1-1.1c-0.2-0.2-0.2-0.6-0.2-0.8
				c0-0.3-0.3-0.5-0.5-0.5c-1.2-0.2-1.9,0.2-2,1.4c-0.1,0.8,0.3,1.6,0.7,2.3c0.3,0.7,0.7,1.4,1.2,2.1c0.5,0.8,1.2,1.5,1.8,2.2
				c0.3,0.4,0.6,0.7,1,1c0.2,0.2,0.5,0.4,0.7,0.7c1.3,1.1,2.6,2.2,3.9,3.3c0.7,0.6,1.5,1.1,2.2,1.7c0.8,0.5,1.6,1.1,2.4,1.6
				c1.2,0.7,2.3,1.4,3.5,2.1c1.1,0.6,2.4,1.1,3.5,1.7c0.4,0.2,0.8,0.4,1.2,0.5c0.6,0.2,1.1,0.5,1.7,0.6c1.1,0.4,2.3,0.8,3.4,1
				c1.3,0.3,2.6,0.7,3.9,0.7c0.7,0,1.5,0.1,2.2,0.1c1.1,0,2.2-0.3,3.2-0.7c0.9-0.3,1.7-0.8,2.3-1.5c0.5-0.6,0.9-1.2,1.3-1.9
				c0.5-0.9,0.8-1.9,0.9-2.9c0.1-0.8,0.2-1.6,0-2.4c-0.1-0.5-0.1-1-0.2-1.5c-0.1-0.6-0.2-1.2-0.3-1.9c-0.2-1-0.5-2.1-0.8-3.1
				c-0.3-1-0.6-2-0.8-3c-0.2-0.8-0.4-1.6-0.6-2.4c-0.2-0.8-0.5-1.5-0.7-2.3c-0.3-1.1-0.6-2.3-0.9-3.4c-0.2-0.9-0.4-1.8-0.6-2.7
				c-0.1-0.6-0.1-1.2-0.2-1.8c-0.1-1.2-0.2-2.5-0.2-3.7c0-1,0.2-2.1,0.4-3.1c0.2-0.9,0.4-1.8,0.7-2.7c0.2-0.7,0.6-1.4,1-2.1
				c0.2-0.4,0.4-0.8,0.7-1.1c0.4-0.6,0.9-1.2,1.4-1.8c0.6-0.7,1.2-1.5,1.8-2.1c0.7-0.8,1.5-1.5,2.2-2.2
				C122.9,495.8,123,495.9,123,495.9z"/>
			<path fill="#141217" d="M79.2,422.7c0.7,0.3,1.5,0.5,2.1,1c0.6,0.5,1.3,1,1.9,1.6c0.3,0.3,0.5,0.6,0.8,0.9c0.5,0.6,1,1.3,1.5,1.9
				c0.5,0.7,1,1.3,1.4,2c0.6,1,1.1,2,1.6,3c0.2,0.4,0.3,0.8,0.3,1.2c0.1,0.9,0.3,1.7,0.3,2.6c0,0.5-0.1,1-0.2,1.5
				c0,0.2-0.1,0.2-0.3,0.1c-0.5-0.4-1.1-0.7-1.7-1.1c-0.6-0.4-1.1-0.7-1.6-1.1c-0.2-0.1-0.3-0.4-0.3-0.6c-0.1-1.5-0.2-2.9-0.5-4.3
				c-0.2-0.6-0.4-1.2-0.8-1.8c-0.5-1-1.1-1.9-1.7-2.8c-0.5-0.8-1-1.5-1.5-2.3c-0.3-0.5-0.8-0.9-1.2-1.3
				C79.3,423,79.2,422.9,79.2,422.7C79.2,422.8,79.2,422.8,79.2,422.7z"/>
			<path fill="#141217" d="M92.6,489.6c-0.4-0.2-0.8-0.5-1.3-0.7c-0.7-0.4-1.5-0.8-2.2-1.2c-0.1-0.1-0.2-0.2-0.2-0.3
				c0-1.1,0-2.3,0-3.5c0.3,0.2,0.7,0.3,1,0.5c0.9,0.5,1.8,1,2.7,1.5c0.1,0.1,0.3,0.3,0.3,0.4c0,0.4-0.1,0.8-0.1,1.2
				c0,0.5,0,1.1,0,1.6c0,0.1,0,0.2,0,0.3C92.6,489.6,92.6,489.6,92.6,489.6z"/>
		</g>
	</g>
	<path fill="#861924" d="M209.3,233.6v144.1c0,0-8.4,3.9-14.3,3.8c0,0,20.7-128.4-2.2-150.6L209.3,233.6z"/>
	<polygon fill="#CC3742" points="13.6,232.6 13.6,378.7 25.6,380.5 25.6,231.1 	"/>
	<g id="bOjIZk.tif_8_">
		<g>
			<path fill="#FFFFFF" d="M188.7,262.5c-0.1,0.8-0.6,1.3-1,1.8c-0.9,1.2-1.8,2.5-2.7,3.7c-0.3,0.4-0.7,0.8-1,1.2
				c-1,1.2-2,2.4-2.9,3.7c-1.3,1.8-3,3.1-4.3,4.8c-0.5,0.7-1.1,1.3-1.6,1.9c-1.2,1.3-2.4,2.6-3.8,3.7c-1.5,1.3-3.1,2.4-4.6,3.5
				c-0.6,0.4-0.9,1.1-1.2,1.8c-0.5,1.2-1,2.4-1.4,3.7c-0.5,1.7-0.9,3.4-1.4,5c-0.3,1.1-0.4,2.2-0.2,3.4c0.1,0.9,1.1,1.4,1.8,0.9
				c1.4-0.9,2.3-2.2,3.2-3.6c1.2-1.8,2.3-3.7,3.5-5.6c1-1.6,1.9-3.2,2.8-4.7c0.8-1.2,1.6-2.4,2.4-3.5c1.1-1.4,2.1-2.7,3.3-3.9
				c0.9-1,1.9-1.8,2.8-2.7c0.1-0.1,0.2-0.2,0.3-0.3c0.9-1,2-1.5,3.2-1.9c1-0.4,2.1-0.2,3.1,0.3c0.4,0.2,0.7,0.7,1,1.1
				c0.2,0.3,0.4,0.5,0.7,0.8c0.2-0.4,0.4-0.6,0.5-1c0.2-0.5,0.5-0.7,1-0.7c1,0,2-0.1,3-0.1c0.5,0,1,0,1.5,0c0.2,0,0.4,0,0.3,0.4
				c-0.2,0.5-0.4,1-0.7,1.5c-0.5,1-1,1.9-1.5,2.9c-0.6,1.2-1.2,2.4-1.8,3.6c-0.3,0.5-0.6,1-0.8,1.6c-0.8,1.5-1.5,3.1-2.3,4.7
				c-0.6,1.2-1.3,2.4-1.9,3.6c-0.9,1.8-1.8,3.6-2.6,5.4c-0.1,0.3-0.2,0.6-0.2,0.9c0,0.2,0,0.6,0.1,0.7c0.2,0.1,0.5,0.2,0.7,0.1
				c0.7-0.4,1.4-0.6,2-1.3c0.5-0.6,1.1-1,1.6-1.5c1.2-1.5,2.4-3,3.3-4.7c0.4-0.8,1-1.5,1.5-2.3c0.2-0.3,1.2-0.5,1.5-0.2
				c0.1,0.1,0.1,0.4,0.1,0.5c-0.4,0.6-0.8,1.2-1.2,1.8c-0.3,0.4-0.6,0.9-0.8,1.4c-0.8,1.4-1.7,2.7-2.7,4c-0.8,1-1.5,2.1-2.3,3
				c-0.7,0.9-1.5,1.6-2.3,2.4c-1.2,1.2-2.6,2-4.1,2.7c-0.9,0.4-1.8,0.4-2.7,0c-0.7-0.3-1.1-1-1.3-1.9c-0.1-0.8,0-1.6,0-2.4
				c0-0.1-0.1-0.3-0.1-0.5c-0.2,0.2-0.4,0.3-0.5,0.4c-1.2,1.4-2.6,2.6-4,3.6c-1.2,0.9-2.5,1.3-3.9,0.8c-0.9-0.3-1.6-0.9-1.9-2.1
				c-0.2-0.8-0.4-1.6-0.3-2.4c0-0.5,0.1-1.1,0.1-1.6c0,0-0.1-0.1-0.1-0.1c-0.2,0.2-0.4,0.4-0.6,0.6c-0.7,0.8-1.3,1.6-2,2.5
				c-0.7,0.9-1.6,1.4-2.4,2.1c-0.8,0.7-1.8,1-2.7,1.2c-0.8,0.1-1.6-0.2-2.2-0.7c-1-0.9-1.4-2.1-1.6-3.5c-0.2-1.9,0.2-3.7,0.6-5.5
				c0.4-1.6,0.9-3.2,1.3-4.7c0.2-0.7,0.4-1.4,0.5-2c0-0.1,0-0.3-0.1-0.4c-0.1-0.1-0.2-0.1-0.3-0.1c-0.2,0-0.4,0.1-0.6,0.1
				c-0.6,0-1.1,0-1.7,0.1c-0.2,0-0.5,0.3-0.6,0.5c-1,1.8-1.9,3.6-3,5.3c-1,1.5-2.1,3-3.2,4.4c-1.3,1.7-2.7,3.1-4.3,4.4
				c-1.3,1-2.7,1.8-4.2,2.2c-1.1,0.2-2.3,0.1-3.1-0.8c-0.7-0.8-1.1-1.9-1.2-3.1c-0.2-2.4,0.2-4.7,1-6.9c0.3-1,0.6-2,1.1-3
				c0.6-1.3,1.2-2.5,1.8-3.7c0.4-0.7,0.8-1.5,1.2-2.2c0.5-0.8,1-1.6,1.6-2.3c0.8-1.2,1.7-2.4,2.6-3.5c0.7-0.8,1.5-1.6,2.3-2.3
				c1.4-1.3,3-2.4,4.7-3.3c0.8-0.4,1.6-0.7,2.4-0.7c1-0.1,2,0.1,2.8,0.8c0.6,0.6,0.9,1.4,1,2.2c0.3,1.9,0.1,3.7-0.5,5.5
				c-0.3,1-0.7,2-1,3c-0.2,0.4-0.4,0.8-0.6,1.2c-0.2,0.3-0.1,0.5,0.2,0.5c0.6,0,1.2-0.1,1.8-0.2c0.7-0.1,1.1-0.6,1.4-1.3
				c0.6-1.4,1.2-2.8,1.9-4.2c1.1-2.2,2.3-4.4,3.4-6.6c1-1.8,2-3.6,3.1-5.4c1-1.7,2.2-3.4,3.3-5.1c0.9-1.4,1.9-2.8,2.8-4.2
				c0.5-0.7,0.9-1.3,1.4-1.9c0.8-1,1.7-2.1,2.5-3c1.2-1.4,2.4-2.8,3.7-4.1c1.6-1.5,3.2-3,4.9-4.4c0.9-0.8,1.9-1.6,2.8-2.2
				c1.2-0.8,2.5-1.1,3.9-0.9c0.8,0.1,1.4,1,1.5,2c0.2,1.9-0.3,3.7-1.2,5.3c-0.4,0.8-1,1.1-1.8,0.8c0.3-0.7,0.7-1.4,0.9-2.1
				c0.3-0.9,0.6-1.9,0.8-2.9c0.1-0.9-0.7-1.5-1.4-1c-0.9,0.6-1.8,1.2-2.5,1.9c-1.6,1.7-3.3,3.4-4.8,5.2c-1.1,1.3-2.1,2.7-3.1,4.1
				c-0.8,1.1-1.5,2.1-2.3,3.2c-0.4,0.7-0.9,1.4-1.3,2c-0.8,1.3-1.7,2.6-2.4,3.9c-0.7,1.1-1.3,2.2-1.9,3.3c-0.7,1.3-1.5,2.5-2.2,3.8
				c-0.6,1-1.1,2.1-1.6,3.1c-0.6,1.2-1.2,2.3-1.7,3.5c-0.3,0.6-0.5,1.2-0.8,1.8c0.7,0,1-0.7,1.4-1.1c0.9-0.8,1.8-1.7,2.7-2.5
				c0.8-0.8,1.7-1.5,2.5-2.3c1-1,2-2,2.9-3c0.6-0.7,1.1-1.6,1.7-2.4c0-0.1,0.1-0.1,0.1-0.2c0.8-0.9,1.6-1.9,2.4-2.8
				c0.9-1,1.8-1.9,2.6-2.9c0.7-0.9,1.3-2,1.9-2.9c0.1-0.2,0.4-0.4,0.6-0.5C187.6,262.4,188.1,262.2,188.7,262.5z M189.6,279.8
				c0-1-0.4-1.5-1-1.4c-0.6,0.2-1.3,0.5-1.8,1c-1,0.9-2,1.9-2.9,2.9c-1,1.1-1.9,2.4-2.7,3.6c-0.8,1.2-1.6,2.6-2.4,3.9
				c-0.8,1.3-1.5,2.6-2.2,4c-0.9,1.8-1.7,3.7-1.9,5.8c0,0.5-0.1,1,0.2,1.3c0.4,0.4,0.9,0.6,1.4,0.3c0.3-0.2,0.7-0.4,1-0.7
				c0.7-0.7,1.3-1.4,1.9-2.2c0.7-0.9,1.3-1.9,1.9-2.9c0.5-0.8,1-1.7,1.5-2.6c0.8-1.4,1.6-2.9,2.3-4.3c0.3-0.6,0.6-1.1,0.8-1.7
				c0.5-0.9,1-1.9,1.5-2.8c0.5-0.9,1-1.9,1.5-2.8C189.2,280.7,189.4,280.2,189.6,279.8z M148.8,285.6c-0.1,0.1-0.3,0.2-0.4,0.4
				c-0.8,1.3-1.6,2.7-2.4,4c-1,1.7-1.8,3.5-2.4,5.5c-0.4,1.2-0.7,2.5-0.6,3.9c0.1,1.5,1.5,2.3,2.8,1.6c1.1-0.6,2-1.4,2.8-2.4
				c1-1.2,1.9-2.5,2.7-3.8c0.7-1.1,1.4-2.4,2-3.6c0.4-0.6,0.2-1.4-0.2-1.6c-1-0.5-1.9-1.1-2.7-2
				C149.8,287.1,149.3,286.3,148.8,285.6z M154.8,288.4c0.3-0.8,0.6-1.5,0.9-2.2c0.6-1.4,1.1-2.8,1.2-4.3c0.1-0.8,0.1-1.5,0-2.3
				c0-0.3-0.2-0.7-0.4-1c-0.4-0.4-1-0.7-1.6-0.5c-0.5,0.1-0.9,0.4-1.4,0.7c-1,0.6-1.8,1.5-2.3,2.6c-0.7,1.5-0.5,3.1,0.3,4.6
				C152.2,287.3,153.3,288.1,154.8,288.4z"/>
			<path fill="#FFFFFF" d="M67.3,271.9c0.4,0,0.7,0,1-0.1c1-0.4,2-1.1,2.9-1.7c1.9-1.3,3.3-3.3,4.9-5c1.1-1.2,2.3-2.3,3.7-3.2
				c0.8-0.6,1.7-1.2,2.5-1.6c0.8-0.4,1.7-0.6,2.7-0.4c0.9,0.1,1.7,0.3,2.4,0.9c0.8,0.7,1.2,1.6,1.3,2.6c0.2,1.2-0.1,2.3-0.5,3.4
				c-0.4,1.1-1,2.1-1.6,3c-0.6,0.9-1.4,1.6-2.4,1.7c-0.7,0.1-1.3-0.7-1.4-1.5c-0.1-1.1,0.3-1.9,0.9-2.7c0.4-0.6,0.8-1.3,1.5-1.6
				c0.4-0.2,0.8-0.3,1.2-0.4c0.5,0,0.6-0.4,0.7-0.8c0.2-1.3-0.9-2.1-2.1-1.6c-1.5,0.5-2.6,1.6-3.6,2.7c-1.6,1.7-3,3.5-4.2,5.5
				c-1.2,1.9-2.3,3.9-3.1,6c-0.5,1.3-1.1,2.6-1.5,3.9c-0.5,1.4-0.6,2.8-0.2,4.3c0.5,1.7,1.7,2.1,3,1.8c1.4-0.3,2.6-1.3,3.7-2.3
				c0.6-0.6,1.3-1.2,1.9-1.8c0.7-0.8,1.3-1.6,2-2.4c0.6-0.8,1.2-1.6,1.8-2.5c0.8-1.1,1.5-2.2,2.2-3.3c0.5-0.8,1.1-1.5,1.6-2.3
				c0.5-0.7,0.9-1.4,1.4-2.1c0.6-0.8,1.1-1.6,1.8-2.4c0.7-0.8,1.3-1.7,2.1-2.4c1.1-1.2,2.3-2.4,3.5-3.4c1.1-1,2.4-1.7,3.7-2.1
				c1.4-0.4,2.7-0.1,3.7,1c0.1,0.1,0.2,0.2,0.2,0.3c0.3,0.3,0.5,0.4,0.7-0.1c0.2-0.5,0.6-0.7,1.1-0.7c1.6,0,3.1,0,4.8,0
				c-0.3,0.6-0.5,1.1-0.8,1.6c-1.1,2.1-2.2,4.2-3.3,6.3c-0.9,1.7-1.7,3.4-2.6,5c-0.7,1.4-1.5,2.7-2.3,4.1c-0.7,1.2-1.3,2.4-1.9,3.6
				c-0.4,0.9-0.9,1.7-1.3,2.6c-0.1,0.2-0.1,0.3-0.1,0.5c0,0.3,0,0.8,0.1,0.9c0.3,0.2,0.8,0.3,1,0.1c0.8-0.5,1.5-1,2.1-1.7
				c1-1,2-2.1,2.9-3.3c1-1.3,1.8-2.7,2.7-4c0.1-0.2,0.3-0.3,0.5-0.3c0.5,0,0.9,0,1.5,0c-0.3,0.4-0.4,0.8-0.6,1.1
				c-0.9,1.3-1.8,2.6-2.6,3.9c-0.5,0.7-0.9,1.3-1.4,2c-0.9,1.1-1.8,2.3-2.8,3.4c-1.3,1.4-2.6,2.6-4.1,3.8c-1.1,0.9-2.3,1.5-3.7,1.5
				c-1.4,0-2.3-1.4-2.4-2.7c0-0.6,0-1.3,0-2c-0.2,0.1-0.5,0.2-0.6,0.4c-0.9,1.2-2,2.2-3.1,3c-0.9,0.7-1.9,1.2-2.9,1.4
				c-1.7,0.3-3.6-0.8-3.7-3.2c-0.1-1.6,0.2-3,0.5-4.5c0-0.1,0-0.2,0-0.3c0,0,0-0.1-0.1-0.2c-0.4,0.4-0.9,0.8-1.3,1.2
				c-1.2,1.2-2.3,2.6-3.6,3.7c-1.2,1-2.4,2-3.8,2.6c-1.2,0.5-2.5,0.8-3.9,0.7c-2.1-0.2-3.8-1.9-4.3-4.2c-0.2-0.8-0.3-1.6-0.4-2.4
				c0-0.7,0.1-1.5,0.3-2.2c0.5-1.8,1-3.5,1.6-5.3c0.4-1.2,1.1-2.4,1.6-3.5c0.1-0.2,0.2-0.4,0.3-0.7c-0.5,0.1-0.8,0.1-1.2,0.2
				c-0.4,0.1-0.7,0.3-1,0.3c-0.8,0-1.1,0.7-1.4,1.3c-0.7,1.3-1.4,2.7-2.2,4c-0.8,1.3-1.6,2.5-2.5,3.6c-1.2,1.5-2.4,3-3.7,4.4
				c-0.7,0.8-1.6,1.4-2.4,2.2c-0.9,0.8-1.8,1.4-2.8,1.8c-1.3,0.5-2.7,0.8-4-0.1c-0.8-0.6-1.4-1.4-1.7-2.5c-0.3-1.1-0.4-2.2-0.3-3.4
				c0.1-1.3,0.4-2.5,0.7-3.8c0.3-1,0.6-2.1,1-3c0.6-1.4,1.2-2.7,1.9-4c0.9-1.6,1.9-3.2,3-4.7c1.2-1.6,2.5-2.9,3.8-4.4
				c1-1.2,2.3-2.1,3.5-3.1c1.2-0.9,2.4-1.6,3.7-2.1c1-0.3,1.9-0.5,2.9-0.3c0.9,0.2,1.6,0.7,2.1,1.6c0.7,1.4,0.7,2.8,0.5,4.3
				c-0.2,1.6-0.7,3-1.2,4.5C67.8,270.9,67.5,271.3,67.3,271.9z M103.2,262.7c-0.7,0.1-1.2,0.4-1.7,0.7c-1.1,0.7-1.8,1.8-2.6,2.8
				c-1.1,1.5-2.2,2.9-3.2,4.4c-1.2,1.8-2.5,3.7-3.5,5.7c-1.3,2.4-2.4,4.9-3,7.6c-0.1,0.7,0,1.3,0.5,1.6c0.3,0.2,0.8,0.3,1.1,0.1
				c1.1-0.6,2.1-1.5,2.9-2.5c0.6-0.7,1-1.6,1.5-2.4c1.1-1.8,2.1-3.7,3.1-5.5c0.9-1.7,1.8-3.3,2.7-5c1-2,2-3.9,3-5.9
				c0.3-0.5,0.3-1-0.1-1.3C103.7,262.9,103.4,262.8,103.2,262.7z M59,269.7c-0.1,0.1-0.2,0.1-0.3,0.2c-0.9,1.5-1.9,2.9-2.7,4.4
				c-0.9,1.7-1.7,3.5-2.4,5.3c-0.4,1.1-0.8,2.3-0.7,3.5c0.1,2.1,1.3,3.1,3,2.1c1.2-0.7,2.1-1.7,3.1-2.7c1.2-1.4,2.2-2.9,3.1-4.5
				c0.7-1.2,1.3-2.3,2-3.5c0.3-0.5,0.1-0.6-0.3-0.8c-1.3-0.5-2.5-1.2-3.5-2.3C59.9,271,59.5,270.4,59,269.7z M67.4,265.1
				c-0.1-0.3-0.1-0.9-0.4-1.4c-0.2-0.3-0.5-0.7-0.8-0.8c-0.8-0.5-1.6-0.1-2.4,0.3c-0.8,0.5-1.5,1.2-2,2.1c-0.9,1.4-1.3,3.3-0.1,4.9
				c0.9,1.2,2.1,1.6,3.3,1.9c0.2,0,0.5-0.2,0.6-0.5c0.3-0.5,0.5-1.1,0.7-1.7C66.9,268.5,67.3,267,67.4,265.1z"/>
			<path fill="#FFFFFF" d="M152.6,247.4c-0.1-0.5-0.5-0.6-0.8-0.6c-0.9,0.1-1.8,0.1-2.6,0.4c-1,0.3-1.9,0.9-2.8,1.5
				c-1.1,0.7-2.3,1.5-3.3,2.3c-0.9,0.7-1.6,1.4-2.4,2.1c-0.7,0.6-1.3,1.3-2,2c-1.1,1.1-2.1,2.3-3.1,3.4c-0.3,0.3-0.5,0.6-0.7,0.9
				c-0.4,0.4-0.7,0.8-1.1,1.2c-0.4,0.5-0.8,1-1.2,1.5c-0.7,1-1.5,1.9-2.2,3c-1.1,1.5-2.2,3.1-3.2,4.7c-1.8,3-3.6,6-5,9.2
				c-0.9,2.1-1.8,4.2-2.6,6.4c-0.8,2.3-1.4,4.8-1.7,7.3c-0.1,1-0.3,2-0.3,3.1c0,1.8,0.4,3.5,1.4,4.8c0.7,1,1.7,1.6,2.9,1.9
				c1,0.2,2-0.1,2.9-0.4c0.6-0.2,1.1-0.7,1.6-1c1.1-0.8,2.2-1.6,3.1-2.7c0.8-1,1.7-1.9,2.4-2.9c1.3-2,2.7-3.9,3.6-6.2
				c0.6-1.5,1.2-3,1.5-4.6c0.2-1.1,0.5-2.2,0.5-3.4c0-0.7-0.1-1.5-0.5-2.2c-0.2-0.4-1.3-0.7-1.8-0.5c-1.1,0.4-1.9,1-2.6,2
				c-0.6,0.9-1.2,1.8-1.7,2.8c-0.8,1.4-1.3,3-1.6,4.7c-0.1,0.6-0.4,0.9-0.9,1.2c-0.9,0.5-1.9,1.1-2.7,1.8c-1,0.8-1.9,1.7-2.8,2.6
				c-0.3,0.3-0.7,0.7-1.1,1.1c0-0.5,0-0.9,0.1-1.3c0.2-1.2,0.5-2.4,0.7-3.7c0.2-0.6,0.4-1.3,0.6-1.9c0.5-1.3,1-2.7,1.6-4
				c0.6-1.3,1.4-2.5,2.3-3.6c0.9-1.1,2-2.1,3.1-3c0.7-0.6,1.6-1,2.4-1.3c0.9-0.3,1.9-0.5,2.8-0.7c0.9-0.2,2.4,1,2.9,2
				c0.4,1.1,0.6,2.3,0.7,3.4c0,0.9-0.2,1.9-0.3,2.8c-0.1,0.8-0.3,1.7-0.5,2.5c-0.5,1.4-1,2.7-1.5,4.1c-0.5,1.1-1,2.3-1.7,3.3
				c-1,1.6-2,3.1-3.1,4.7c-0.5,0.8-1.2,1.5-1.8,2.2c-1.7,1.9-3.7,3.5-5.7,4.9c-0.6,0.4-1.2,0.8-1.8,1c-0.9,0.3-1.9,0.6-2.9,0.8
				c-1.4,0.3-2.9,0.2-4.3-0.4c-1-0.4-1.9-1-2.7-1.9c-0.6-0.6-1-1.3-1.5-2c-0.1-0.1-0.1-0.3-0.2-0.5c-0.7-1.1-0.9-2.5-1.2-3.8
				c-0.4-1.7-0.3-3.4-0.2-5.1c0.1-1.5,0.4-2.9,0.8-4.3c0.5-1.8,1-3.7,1.7-5.5c0.6-1.6,1.3-3.2,2-4.8c0.4-1,0.9-1.9,1.4-2.8
				c0.7-1.2,1.4-2.4,2.1-3.6c1.4-2.3,2.8-4.5,4.2-6.8c0.7-1.1,1.5-2.1,2.3-3.1c0.9-1.1,1.8-2.1,2.7-3.2c1.2-1.4,2.4-2.8,3.7-4.1
				c1.1-1.2,2.4-2.2,3.6-3.3c0.6-0.5,1.2-1.1,1.9-1.5c1.5-1,3.1-1.9,4.6-2.9c1.6-1.1,3.4-1.6,5.2-2.4c1.4-0.6,2.8-1,4.3-0.9
				c1.3,0.1,2.5,0.5,3.6,1.4c0.4,0.4,0.8,0.4,1.3,0.2c1.3-0.5,2.7-1,4-1.4c0.4-0.1,0.8-0.1,1.3-0.2c1.1,0,2.2-0.2,3.3,0.1
				c0.7,0.2,1.3,0.2,2,0.4c0.8,0.2,1.5,0.5,2.2,0.8c1.1,0.5,2.1,1.1,3.2,1.6c1.5,0.8,2.9,1.6,4.4,2.5c0.7,0.4,1.4,0.8,2,1.2
				c0.1,0,0.1,0.1,0.2,0.1c0.8,0.5,0.8,0.5,0.2,1.2c-0.7,0.8-1.3,1.5-2,2.3c-0.5,0.5-0.9,1.1-1.3,1.6c-0.3,0.4-0.6,0.4-0.9,0.2
				c-1.3-0.9-2.6-1.9-4-2.8c-1.3-0.9-2.5-1.9-3.9-2.7c-1.1-0.7-2.4-1.3-3.6-1.9c-1.4-0.7-2.8-1-4.2-1.3c-0.8-0.2-1.7,0-2.5,0.4
				c-0.2,0.1-0.2,0.6-0.3,0.9c-0.1,0.6-0.1,1.3-0.1,2c0,1.4-0.4,2.8-0.8,4.1c-0.2,0.8-0.5,1.6-0.7,2.4c-0.5,1.3-1,2.5-1.7,3.6
				c-0.9,1.3-1.7,2.6-2.5,3.9c-0.5,0.7-1,1.3-1.6,1.8c-0.7,0.7-1.5,1.4-2.3,1.9c-1.1,0.6-2.2,1.2-3.5,1.1c-1.3-0.1-2.2-1.2-2.5-2.9
				c-0.2-1.4,0.1-2.7,0.5-4c0.4-1.2,0.9-2.4,1.5-3.4c1.4-2.6,3-5,5-7.1c0.8-0.8,1.6-1.6,2.4-2.2c1-0.8,2-1.5,3-2.2
				C152.2,247.8,152.4,247.6,152.6,247.4z M154,250c0-1-0.1-1.1-0.9-0.7c-0.4,0.2-0.8,0.4-1.2,0.7c-0.9,0.7-1.8,1.5-2.7,2.3
				c-0.8,0.7-1.5,1.5-2.1,2.3c-0.8,1-1.7,2-2.4,3.2c-0.8,1.3-1.5,2.7-2.2,4.1c-0.7,1.4-1.3,2.9-1.2,4.5c0,0.8,0.8,1.8,1.5,1.7
				c0.8-0.1,1.6-0.5,2.3-1.1c0.5-0.4,0.9-0.8,1.4-1.3c0.5-0.5,1.1-0.9,1.5-1.4c0.7-0.8,1.3-1.6,1.9-2.5c0.7-1,1.3-2,1.9-3.1
				c0.4-0.8,0.7-1.8,1-2.7C153.6,254.1,153.9,252.1,154,250z"/>
			<path fill="#FFFFFF" d="M104.4,308.1c-0.2-0.2-0.5-0.3-0.7-0.5c-0.7-0.4-1.3-0.8-2-1.2c-0.7-0.4-1.5-0.6-2.3-0.9
				c-0.9-0.3-1.7-0.6-2.6-0.8c-0.8-0.2-1.7-0.4-2.5-0.5c-0.6-0.1-1.1-0.1-1.7-0.1c-1.5-0.1-2.9,0.1-4.3,0.6c-1.1,0.3-2.1,1-2.9,1.9
				c-0.4,0.4-0.7,0.8-1.1,1.2c-0.2,0.2-0.3,0.2-0.5,0c-0.5-0.6-1-1.3-1.5-1.9c-0.4-0.4-0.7-0.9-1.2-1.2c-0.9-0.6-1.8-1.3-2.8-1.7
				c-1.2-0.5-2.5-0.9-3.8-1.2c-0.7-0.2-1.5-0.2-2.3-0.2c-0.9,0-1.8-0.1-2.7,0c-1.5,0.1-3,0.3-4.5,0.5c-1.6,0.3-3.1,0.6-4.7,1
				c-0.6,0.1-1.2,0.4-1.8,0.6c-0.4,0.1-0.8,0.2-1.3,0.3c-1.5,0.4-3,0.8-4.4,1.2c-1.1,0.3-2.1,0.5-3.2,0.8c-1.4,0.4-2.8,0.8-4.3,1.1
				c-1.6,0.3-3.3,0.4-4.9,0.4c-0.9,0-1.8-0.3-2.7-0.4c-1.1-0.1-2.2-0.6-3.2-1.1c-1.2-0.6-2.4-1.4-3.3-2.5c-0.8-0.9-1.6-1.8-2.1-2.8
				c-0.6-1.2-1.1-2.5-1.4-3.8c-0.5-2.2-0.7-4.5-0.6-6.8c0.1-1.5,0.3-3,0.5-4.4c0.2-1.4,0.6-2.7,0.9-4.1c0.3-1.2,0.8-2.4,1.2-3.5
				c0.4-1,0.7-2,1.1-2.9c0.3-0.8,0.7-1.7,1.2-2.4c0.7-1.4,1.5-2.8,2.3-4.1c1.1-1.8,2.3-3.7,3.5-5.4c0.8-1.2,1.8-2.3,2.6-3.4
				c0.7-0.8,1.3-1.7,2.1-2.4c1.1-1.1,2.2-2.2,3.3-3.2c1.2-1.1,2.4-2.2,3.7-3.3c1.1-0.9,2.3-1.8,3.6-2.5c0.6-0.3,1.2-0.7,1.9-1.1
				c1.7-0.9,3.5-1.7,5.3-2.2c1.2-0.3,2.3-0.5,3.5-0.5c2.1,0,3.8,1.3,4.3,3.7c0.2,0.8,0.1,1.7,0,2.5c-0.4,2-1.3,3.8-2.6,5.3
				c-0.7,0.8-1.5,1.2-2.5,0.8c-0.5-0.2-0.9-0.6-0.9-1.5c0-1.1,0.3-2.2,1-3c0.4-0.6,1-1.1,1.5-1.5c0.3-0.2,0.8-0.3,1.2-0.3
				c0.5,0,0.7-0.4,0.7-0.7c0.3-1.6-0.3-2.7-1.9-2.8c-1.2-0.1-2.2,0.4-3.2,0.9c-1,0.5-2,1-2.9,1.7c-1.1,0.8-2.1,1.6-3.1,2.5
				c-0.5,0.4-1,0.9-1.4,1.3c-0.3,0.3-0.6,0.7-0.9,1c-1.5,1.8-3,3.6-4.5,5.4c-0.8,1-1.6,2-2.3,3.1c-0.8,1.1-1.5,2.2-2.2,3.3
				c-1,1.6-2,3.2-2.9,4.9c-0.9,1.6-1.6,3.3-2.4,4.9c-0.3,0.5-0.5,1.1-0.7,1.6c-0.3,0.8-0.6,1.6-0.9,2.4c-0.5,1.6-1,3.1-1.4,4.8
				c-0.4,1.8-0.9,3.5-0.9,5.4c0,1-0.1,2.1-0.1,3.1c0,1.6,0.4,3,0.9,4.5c0.5,1.2,1.1,2.4,2,3.2c0.8,0.7,1.7,1.3,2.6,1.8
				c1.2,0.7,2.6,1.1,4,1.3c1.1,0.2,2.2,0.3,3.3,0c0.7-0.2,1.4-0.2,2.1-0.3c0.9-0.1,1.7-0.3,2.6-0.5c1.4-0.3,2.9-0.7,4.3-1.1
				c1.4-0.4,2.7-0.8,4.1-1.2c1.1-0.3,2.3-0.5,3.4-0.8c1.1-0.3,2.1-0.6,3.2-0.9c1.6-0.4,3.2-0.9,4.7-1.2c1.3-0.3,2.5-0.6,3.8-0.8
				c0.8-0.1,1.7-0.2,2.5-0.2c1.7-0.1,3.4-0.3,5.1-0.3c1.5,0,2.9,0.3,4.3,0.5c1.2,0.2,2.5,0.5,3.7,0.9c1,0.3,2,0.9,2.9,1.4
				c0.5,0.3,1.1,0.6,1.6,0.9c0.8,0.6,1.7,1.2,2.5,1.9c1,0.8,2,1.6,3,2.5c1.1,1,2.1,2,3.1,3.1C104.5,308,104.4,308,104.4,308.1z"/>
			<path fill="#FFFFFF" d="M206,247.3c-0.4,1-0.7,2.1-1.4,2.9c-0.8,0.9-1.4,1.8-2.2,2.7c-0.4,0.4-0.8,0.7-1.2,1.1
				c-0.9,0.7-1.7,1.4-2.6,2.1c-0.9,0.7-1.8,1.4-2.8,1.9c-1.3,0.8-2.7,1.5-4.1,2.2c-0.5,0.2-1.1,0.4-1.6,0.5
				c-1.2,0.2-2.4,0.4-3.6,0.4c-0.7,0-1.4-0.2-2.1-0.3c-0.3,0-0.3-0.2-0.1-0.5c0.5-0.8,1-1.5,1.5-2.3c0.5-0.8,1-1.6,1.5-2.3
				c0.2-0.2,0.5-0.4,0.8-0.4c2-0.1,4-0.2,6-0.7c0.9-0.2,1.7-0.6,2.5-1.1c1.3-0.7,2.6-1.5,3.9-2.3c1.1-0.7,2.1-1.4,3.2-2.1
				c0.6-0.5,1.2-1.1,1.8-1.6c0.1-0.1,0.2-0.2,0.3-0.3C205.9,247.2,205.9,247.3,206,247.3z"/>
			<path fill="#FFFFFF" d="M113.1,265.8c0.3-0.6,0.6-1.2,1-1.8c0.6-1,1.1-2.1,1.7-3.1c0.1-0.2,0.3-0.3,0.4-0.3c1.6,0,3.1,0,4.8,0
				c-0.2,0.5-0.4,0.9-0.7,1.3c-0.7,1.3-1.4,2.5-2.1,3.8c-0.1,0.2-0.4,0.4-0.6,0.4c-0.6,0-1.1-0.1-1.7-0.1c-0.8,0-1.5,0-2.3,0
				c-0.2,0-0.3,0-0.5,0C113.1,265.9,113.1,265.9,113.1,265.8z"/>
		</g>
	</g>
	<path fill="#FFFFFF" d="M21.5,305.5v24.6c0,0,17.1,16.2,62.6,9c45.5-7.2,101.2-20.5,113.2-6.7v-17.9c0,0-22.5,2.5-38.9,8.7
		C142.1,329.4,58.1,347.8,21.5,305.5z"/>
	<path fill="#B6B6B6" d="M55.4,114.4c0,0,32.1-11.4,106.3,0c0,0-13.6-23.9-13.2-58.3c0,0-21.2-6.9-75.2,0
		C73.3,56.1,76,85.2,55.4,114.4z"/>
	<path fill="#CCCBCB" d="M134.9,68.4c-2.3,3.3-6.4,5-10.4,5.5c-4,0.5-8.1-0.1-12.1-0.3c-12.9-0.9-26.4,0.9-37.3,7.9
		c16.8-1.3,33.8-1,50.6,0.8c2.3,0.2,4.6,0.6,6.6,1.8c3.6,2.4,4.3,7.4,5.9,11.5c2.7,6.8,9.1,12,16.3,13.3
		c-10.8-11.6-14.2-28.5-13.1-44.2c0.1-1,0.1-2.2-0.6-3c-0.4-0.5-1.1-0.7-1.7-0.8c-5.1-1.6-10.3-3.2-15.6-3.8
		c-11.3-1.4-23.2,1.5-32.5,8c5.2-2.3,11-3.5,16.7-3.4C117,61.6,126.1,65.1,134.9,68.4z"/>
	<path fill="#CCCBCB" d="M148.5,59c0,0,9.1-0.3,9.1-6c0,0-53.1-11.8-94.4,0c0,0,1.2,6.6,10.2,6C73.4,59,104.6,47.7,148.5,59z"/>
	<path fill="#F2F1F1" d="M127.8,93.1c-2.5-4.2-7.8-5.9-12.6-6.8c-12.1-2.3-24.6-2-36.5,0.7c-0.1,5.9-4.3,10.7-7,15.9
		c-0.3,0.6-0.6,1.3-0.3,1.9c0.4,0.9,1.6,0.9,2.5,0.8c17-1.4,34-1.9,51.1-1.5c2,0,4.5-0.3,5-2.1c0.2-0.7,0.1-1.4,0-2.1
		C129.4,97.6,129,95.1,127.8,93.1z"/>
	<path fill="#B3222D" d="M67.4,7.1l-1.5,40.7l5.3,3.3c0,0,38.6-7.8,75.5,0l7.7-3.3l-3.3-40.7C151.2,7.1,114.6-8.9,67.4,7.1z"/>
	<path fill="#861924" d="M73.3,51.1c0,0,27.7-7.8,73.4,0l7.7-3.3l-3.3-40.7l-15-4.4c0,0,5.9,32.6,5,38.2
		C141.1,40.9,57.7,42.5,73.3,51.1z"/>
</g>
</svg>
