<?xml version="1.0" encoding="utf-8"?>
<!-- Generator: Adobe Illustrator 18.0.0, SVG Export Plug-In . SVG Version: 6.00 Build 0)  -->
<!DOCTYPE svg PUBLIC "-//W3C//DTD SVG 1.1//EN" "http://www.w3.org/Graphics/SVG/1.1/DTD/svg11.dtd">
<svg version="1.1" id="Layer_1" xmlns="http://www.w3.org/2000/svg" xmlns:xlink="http://www.w3.org/1999/xlink" x="0px" y="0px"
	 viewBox="0 0 424.3 465.1" enable-background="new 0 0 424.3 465.1" xml:space="preserve">
<g>
	<g>
		<g>
			<path fill="#210B0D" d="M210.4,78.7V20.2h-5.6c0,0-4.3,10-4.2,11.4l0.5,1.1c0,0-2.5,5.1-1,13.3l-0.5,0.9c0,0,0.5,4.5,0.6,6.5
				c0.1,2,1.1,9.3,0.7,11.1c-0.5,1.7-1.5,8.3-0.8,11.8C200.1,76.3,205.1,79,210.4,78.7z"/>
			<path fill="#75976F" d="M210.4,76.1c0,0-8-0.2-10.4-1.3c0,0-0.3,1.5,0.6,2.5c0,0,4.4,2.1,9.8,1.7V76.1z"/>
			<polygon fill="#847743" points="210.4,19.9 210.4,21.3 204.3,21.3 205,19.9 			"/>
			<polygon fill="#42140C" points="209.1,33 204.3,32.8 206.3,24.6 205,32.4 			"/>
			<polygon fill="#42140C" points="203.7,32.7 201.3,32.3 204.1,23.9 201.9,31.9 			"/>
			<path fill="#42140C" d="M207.1,47.8c0,0-2.2-0.2-2.4,0c-0.1,0.2-0.3,0.9-0.2,2.8s1.2,15.9,0.9,17.1c-0.3,1.2-0.9,7-0.9,7
				s1.2-5.8,1.4-7.1c0.2-1.3-0.6-16.8-0.6-16.8s-0.3-2.2,0.1-2.4S207.1,47.8,207.1,47.8z"/>
			<path fill="#42140C" d="M202.7,47.7l-2-0.6c0,0-0.3-0.2-0.3,0.6c0,0,0.5,6.7,0.6,7.1s1.1,8.9,0.8,10c-0.3,1.1-1.1,8.2-0.9,9
				c0,0,0.9-8.1,1.2-8.9s0-4.5,0-4.5l-1.3-12.1c0,0-0.2-0.7,0.3-0.7H202.7z"/>
			<path fill="#3D2A35" d="M207.1,48.1l-1.3,0.5l0.9,16.6c0,0,0.1,2.3,0,2.9s-1,6.4-0.2,6.5c0,0,0.4,0,0.9-3.3s0.2-9.6,0.2-10.9
				c0-1.2-0.4-11.3-0.4-11.3S206.7,48.2,207.1,48.1z"/>
			<polygon fill="#3D2A35" points="209.1,22.8 207.6,31.6 208.9,31.6 			"/>
			<path fill="#42140C" d="M209.8,46.4c0,0-8,0.6-9.4-1.2c0,0-1.2-7.7,0.9-11.5c0,0-1.1,7.4,0.2,10.1
				C201.6,43.8,202.7,46.2,209.8,46.4z"/>
			<path fill="#2A4229" d="M201.4,75.3c0,0-0.2,2.2,1.8,3.1c0,0-2.6-0.2-2.7-3.3L201.4,75.3z"/>
			<path fill="#98B491" d="M201.9,75.8c0,0-0.7,2.6,5.6,2.9C207.5,78.7,202.6,78.1,201.9,75.8z"/>
			<path fill="#98B491" d="M210.4,19.9v-13h-4.6c0,0-1.3,2,0,3.9c0,0,0.1,5.6-0.8,9H210.4z"/>
			<path fill="#354E38" d="M206.1,19.9l1-8.9c0,0-1.7-2.3,0-4.1h0.5c0,0-0.9,2.9,0.7,4.1l-1,8.9H206.1z"/>
			<path fill="#839A7C" d="M205.3,19.9l1.1-8.8c0,0-1.3-3.2,0.3-4.1h0.4c0,0-1.5,1.4,0,4.1l-1,8.9H205.3z"/>
			<path fill="#929397" d="M210.4,4.2v3.1l-1.3-0.3l-1.4,0.4l-1-0.4L206,7.4l-0.8-0.4l0.3-2.1C205.5,4.9,206.2,4,210.4,4.2z"/>
			<path fill="#B3222D" d="M210.4,4.9c0,0-3.2,0.2-4-0.2c0,0,1-0.5,4-0.4V4.9z"/>
			<polygon fill="#E3E3D4" points="209.1,6.9 209.3,5.1 209.8,5.1 209.8,7.2 			"/>
			<polygon fill="#E3E3D4" points="207.7,7.4 208.1,5.1 208.6,5.1 208.5,7.1 			"/>
			<polygon fill="#E3E3D4" points="206.7,6.9 207.1,5.1 207.6,5.1 207.2,7.2 			"/>
			<polygon fill="#E3E3D4" points="206,7.4 205.3,7 206.1,5.1 206.7,5.1 			"/>
		</g>
		<path fill="#210B0D" d="M210.3,78.7V20.2h5.6c0,0,4.3,10,4.2,11.4l-0.5,1.1c0,0,2.5,5.1,1,13.3l0.5,0.9c0,0-0.5,4.5-0.6,6.5
			c-0.1,2-1.1,9.3-0.7,11.1s1.5,8.3,0.8,11.8C220.6,76.3,215.7,79,210.3,78.7z"/>
		<path fill="#75976F" d="M210.3,76.1c0,0,8-0.2,10.4-1.3c0,0,0.3,1.5-0.6,2.5c0,0-4.4,2.1-9.8,1.7V76.1z"/>
		<polygon fill="#847743" points="210.3,19.9 210.3,21.3 216.4,21.3 215.7,19.9 		"/>
		<polygon fill="#42140C" points="211.6,33 216.4,32.8 214.4,24.6 215.7,32.4 		"/>
		<polygon fill="#42140C" points="217.1,32.7 219.4,32.3 216.6,23.9 218.9,31.9 		"/>
		<path fill="#42140C" d="M213.6,47.8c0,0,2.2-0.2,2.4,0c0.1,0.2,0.3,0.9,0.2,2.8s-1.2,15.9-0.9,17.1c0.3,1.2,0.9,7,0.9,7
			s-1.2-5.8-1.4-7.1s0.6-16.8,0.6-16.8s0.3-2.2-0.1-2.4S213.6,47.8,213.6,47.8z"/>
		<path fill="#42140C" d="M218,47.7l2-0.6c0,0,0.3-0.2,0.3,0.6c0,0-0.5,6.7-0.6,7.1s-1.1,8.9-0.8,10c0.3,1.1,1.1,8.2,0.9,9
			c0,0-0.9-8.1-1.2-8.9s0-4.5,0-4.5l1.3-12.1c0,0,0.2-0.7-0.3-0.7H218z"/>
		<path fill="#3D2A35" d="M213.6,48.1l1.3,0.5L214,65.2c0,0-0.1,2.3,0,2.9c0.1,0.6,1,6.4,0.2,6.5c0,0-0.4,0-0.9-3.3
			c-0.4-3.3-0.2-9.6-0.2-10.9c0-1.2,0.4-11.3,0.4-11.3S214,48.2,213.6,48.1z"/>
		<polygon fill="#3D2A35" points="211.6,22.8 213.1,31.6 211.8,31.6 		"/>
		<path fill="#42140C" d="M210.9,46.4c0,0,8,0.6,9.4-1.2c0,0,1.2-7.7-0.9-11.5c0,0,1.1,7.4-0.2,10.1C219.2,43.8,218,46.2,210.9,46.4
			z"/>
		<g id="bOjIZk.tif_10_">
			<g>
				<path fill="#FFFFFF" d="M218.3,36.7c0,0.1-0.1,0.1-0.1,0.2c-0.1,0.1-0.2,0.3-0.3,0.4c0,0-0.1,0.1-0.1,0.1
					c-0.1,0.1-0.2,0.3-0.3,0.4c-0.1,0.2-0.3,0.3-0.5,0.5c-0.1,0.1-0.1,0.1-0.2,0.2c-0.1,0.1-0.3,0.3-0.4,0.4
					c-0.2,0.1-0.3,0.3-0.5,0.4c-0.1,0-0.1,0.1-0.1,0.2c-0.1,0.1-0.1,0.3-0.2,0.4c-0.1,0.2-0.1,0.4-0.2,0.6c0,0.1,0,0.3,0,0.4
					c0,0.1,0.1,0.2,0.2,0.1c0.2-0.1,0.3-0.3,0.4-0.4c0.1-0.2,0.3-0.4,0.4-0.6c0.1-0.2,0.2-0.4,0.3-0.5c0.1-0.1,0.2-0.3,0.3-0.4
					c0.1-0.2,0.2-0.3,0.4-0.4c0.1-0.1,0.2-0.2,0.3-0.3c0,0,0,0,0,0c0.1-0.1,0.2-0.2,0.4-0.2c0.1,0,0.2,0,0.4,0c0,0,0.1,0.1,0.1,0.1
					c0,0,0,0.1,0.1,0.1c0,0,0-0.1,0.1-0.1c0-0.1,0.1-0.1,0.1-0.1c0.1,0,0.2,0,0.3,0c0.1,0,0.1,0,0.2,0c0,0,0,0,0,0
					c0,0.1,0,0.1-0.1,0.2c-0.1,0.1-0.1,0.2-0.2,0.3c-0.1,0.1-0.1,0.3-0.2,0.4c0,0.1-0.1,0.1-0.1,0.2c-0.1,0.2-0.2,0.4-0.3,0.5
					c-0.1,0.1-0.1,0.3-0.2,0.4c-0.1,0.2-0.2,0.4-0.3,0.6c0,0,0,0.1,0,0.1c0,0,0,0.1,0,0.1c0,0,0.1,0,0.1,0c0.1,0,0.2-0.1,0.2-0.1
					c0.1-0.1,0.1-0.1,0.2-0.2c0.1-0.2,0.3-0.3,0.4-0.5c0-0.1,0.1-0.2,0.2-0.3c0,0,0.1-0.1,0.2,0c0,0,0,0,0,0.1
					c0,0.1-0.1,0.1-0.1,0.2c0,0.1-0.1,0.1-0.1,0.2c-0.1,0.2-0.2,0.3-0.3,0.5c-0.1,0.1-0.2,0.2-0.3,0.3c-0.1,0.1-0.2,0.2-0.3,0.3
					c-0.1,0.1-0.3,0.2-0.5,0.3c-0.1,0-0.2,0-0.3,0c-0.1,0-0.1-0.1-0.1-0.2c0-0.1,0-0.2,0-0.3c0,0,0,0,0-0.1c0,0,0,0-0.1,0
					c-0.1,0.2-0.3,0.3-0.5,0.4c-0.1,0.1-0.3,0.1-0.4,0.1c-0.1,0-0.2-0.1-0.2-0.2c0-0.1,0-0.2,0-0.3c0-0.1,0-0.1,0-0.2l0,0
					c0,0-0.1,0-0.1,0.1c-0.1,0.1-0.1,0.2-0.2,0.3c-0.1,0.1-0.2,0.2-0.3,0.2c-0.1,0.1-0.2,0.1-0.3,0.1c-0.1,0-0.2,0-0.2-0.1
					c-0.1-0.1-0.2-0.2-0.2-0.4c0-0.2,0-0.4,0.1-0.6c0-0.2,0.1-0.4,0.2-0.5c0-0.1,0-0.2,0.1-0.2c0,0,0,0,0,0c0,0,0,0,0,0
					c0,0,0,0-0.1,0c-0.1,0-0.1,0-0.2,0c0,0-0.1,0-0.1,0.1c-0.1,0.2-0.2,0.4-0.3,0.6c-0.1,0.2-0.2,0.3-0.4,0.5
					c-0.1,0.2-0.3,0.4-0.5,0.5c-0.1,0.1-0.3,0.2-0.5,0.2c-0.1,0-0.3,0-0.4-0.1c-0.1-0.1-0.1-0.2-0.1-0.3c0-0.3,0-0.5,0.1-0.8
					c0-0.1,0.1-0.2,0.1-0.3c0.1-0.1,0.1-0.3,0.2-0.4c0-0.1,0.1-0.2,0.1-0.2c0.1-0.1,0.1-0.2,0.2-0.3c0.1-0.1,0.2-0.3,0.3-0.4
					c0.1-0.1,0.2-0.2,0.3-0.3c0.2-0.2,0.3-0.3,0.5-0.4c0.1,0,0.2-0.1,0.3-0.1c0.1,0,0.2,0,0.3,0.1c0.1,0.1,0.1,0.2,0.1,0.3
					c0,0.2,0,0.4-0.1,0.6c0,0.1-0.1,0.2-0.1,0.3c0,0,0,0.1-0.1,0.1c0,0,0,0.1,0,0.1c0.1,0,0.1,0,0.2,0c0.1,0,0.1-0.1,0.2-0.1
					c0.1-0.2,0.1-0.3,0.2-0.5c0.1-0.3,0.3-0.5,0.4-0.7c0.1-0.2,0.2-0.4,0.3-0.6c0.1-0.2,0.2-0.4,0.4-0.6c0.1-0.2,0.2-0.3,0.3-0.5
					c0.1-0.1,0.1-0.1,0.2-0.2c0.1-0.1,0.2-0.2,0.3-0.3c0.1-0.2,0.3-0.3,0.4-0.5c0.2-0.2,0.4-0.3,0.6-0.5c0.1-0.1,0.2-0.2,0.3-0.2
					c0.1-0.1,0.3-0.1,0.4-0.1c0.1,0,0.2,0.1,0.2,0.2c0,0.2,0,0.4-0.1,0.6c0,0.1-0.1,0.1-0.2,0.1c0-0.1,0.1-0.2,0.1-0.2
					c0-0.1,0.1-0.2,0.1-0.3c0-0.1-0.1-0.2-0.2-0.1c-0.1,0.1-0.2,0.1-0.3,0.2c-0.2,0.2-0.4,0.4-0.5,0.6c-0.1,0.1-0.2,0.3-0.3,0.5
					c-0.1,0.1-0.2,0.2-0.3,0.4c-0.1,0.1-0.1,0.2-0.1,0.2c-0.1,0.1-0.2,0.3-0.3,0.4c-0.1,0.1-0.1,0.3-0.2,0.4
					c-0.1,0.1-0.2,0.3-0.2,0.4c-0.1,0.1-0.1,0.2-0.2,0.4c-0.1,0.1-0.1,0.3-0.2,0.4c0,0.1-0.1,0.1-0.1,0.2c0.1,0,0.1-0.1,0.2-0.1
					c0.1-0.1,0.2-0.2,0.3-0.3c0.1-0.1,0.2-0.2,0.3-0.3c0.1-0.1,0.2-0.2,0.3-0.3c0.1-0.1,0.1-0.2,0.2-0.3c0,0,0,0,0,0
					c0.1-0.1,0.2-0.2,0.3-0.3c0.1-0.1,0.2-0.2,0.3-0.3c0.1-0.1,0.1-0.2,0.2-0.3c0,0,0,0,0.1-0.1C218.2,36.7,218.3,36.6,218.3,36.7z
					 M218.4,38.6c0-0.1,0-0.2-0.1-0.2c-0.1,0-0.1,0.1-0.2,0.1c-0.1,0.1-0.2,0.2-0.3,0.3c-0.1,0.1-0.2,0.3-0.3,0.4
					c-0.1,0.1-0.2,0.3-0.3,0.4c-0.1,0.1-0.2,0.3-0.2,0.4c-0.1,0.2-0.2,0.4-0.2,0.7c0,0.1,0,0.1,0,0.2c0,0,0.1,0.1,0.2,0
					c0,0,0.1,0,0.1-0.1c0.1-0.1,0.1-0.2,0.2-0.2c0.1-0.1,0.1-0.2,0.2-0.3c0.1-0.1,0.1-0.2,0.2-0.3c0.1-0.2,0.2-0.3,0.3-0.5
					c0-0.1,0.1-0.1,0.1-0.2c0.1-0.1,0.1-0.2,0.2-0.3c0.1-0.1,0.1-0.2,0.2-0.3C218.4,38.7,218.4,38.7,218.4,38.6z M213.8,39.3
					C213.8,39.3,213.8,39.3,213.8,39.3c-0.1,0.2-0.2,0.3-0.3,0.5c-0.1,0.2-0.2,0.4-0.3,0.6c0,0.1-0.1,0.3-0.1,0.4
					c0,0.2,0.2,0.3,0.3,0.2c0.1-0.1,0.2-0.2,0.3-0.3c0.1-0.1,0.2-0.3,0.3-0.4c0.1-0.1,0.2-0.3,0.2-0.4c0-0.1,0-0.2,0-0.2
					c-0.1-0.1-0.2-0.1-0.3-0.2C214,39.4,213.9,39.4,213.8,39.3z M214.5,39.6c0-0.1,0.1-0.2,0.1-0.3c0.1-0.2,0.1-0.3,0.1-0.5
					c0-0.1,0-0.2,0-0.3c0,0,0-0.1,0-0.1c-0.1,0-0.1-0.1-0.2-0.1c-0.1,0-0.1,0-0.2,0.1c-0.1,0.1-0.2,0.2-0.3,0.3
					c-0.1,0.2-0.1,0.4,0,0.5C214.2,39.5,214.4,39.6,214.5,39.6z"/>
				<path fill="#FFFFFF" d="M204.7,37.7c0,0,0.1,0,0.1,0c0.1,0,0.2-0.1,0.3-0.2c0.2-0.2,0.4-0.4,0.6-0.6c0.1-0.1,0.3-0.3,0.4-0.4
					c0.1-0.1,0.2-0.1,0.3-0.2c0.1,0,0.2-0.1,0.3,0c0.1,0,0.2,0,0.3,0.1c0.1,0.1,0.1,0.2,0.1,0.3c0,0.1,0,0.3-0.1,0.4
					c0,0.1-0.1,0.2-0.2,0.3c-0.1,0.1-0.2,0.2-0.3,0.2c-0.1,0-0.1-0.1-0.2-0.2c0-0.1,0-0.2,0.1-0.3c0-0.1,0.1-0.1,0.2-0.2
					c0,0,0.1,0,0.1,0c0.1,0,0.1,0,0.1-0.1c0-0.1-0.1-0.2-0.2-0.2c-0.2,0.1-0.3,0.2-0.4,0.3c-0.2,0.2-0.3,0.4-0.5,0.6
					c-0.1,0.2-0.3,0.4-0.4,0.7c-0.1,0.1-0.1,0.3-0.2,0.4c-0.1,0.2-0.1,0.3,0,0.5c0.1,0.2,0.2,0.2,0.3,0.2c0.2,0,0.3-0.1,0.4-0.3
					c0.1-0.1,0.1-0.1,0.2-0.2c0.1-0.1,0.2-0.2,0.2-0.3c0.1-0.1,0.1-0.2,0.2-0.3c0.1-0.1,0.2-0.3,0.2-0.4c0.1-0.1,0.1-0.2,0.2-0.3
					c0.1-0.1,0.1-0.2,0.2-0.2c0.1-0.1,0.1-0.2,0.2-0.3c0.1-0.1,0.1-0.2,0.2-0.3c0.1-0.1,0.3-0.3,0.4-0.4c0.1-0.1,0.3-0.2,0.4-0.2
					c0.2,0,0.3,0,0.4,0.1c0,0,0,0,0,0c0,0,0.1,0,0.1,0c0-0.1,0.1-0.1,0.1-0.1c0.2,0,0.4,0,0.5,0c0,0.1-0.1,0.1-0.1,0.2
					c-0.1,0.2-0.2,0.5-0.4,0.7c-0.1,0.2-0.2,0.4-0.3,0.6c-0.1,0.2-0.2,0.3-0.3,0.5c-0.1,0.1-0.1,0.3-0.2,0.4c0,0.1-0.1,0.2-0.1,0.3
					c0,0,0,0,0,0.1c0,0,0,0.1,0,0.1c0,0,0.1,0,0.1,0c0.1-0.1,0.2-0.1,0.2-0.2c0.1-0.1,0.2-0.2,0.3-0.4c0.1-0.1,0.2-0.3,0.3-0.4
					c0,0,0,0,0.1,0c0.1,0,0.1,0,0.2,0c0,0,0,0.1-0.1,0.1c-0.1,0.1-0.2,0.3-0.3,0.4c-0.1,0.1-0.1,0.1-0.2,0.2
					c-0.1,0.1-0.2,0.3-0.3,0.4c-0.1,0.2-0.3,0.3-0.5,0.4c-0.1,0.1-0.3,0.2-0.4,0.2c-0.2,0-0.3-0.2-0.3-0.3c0-0.1,0-0.1,0-0.2
					c0,0-0.1,0-0.1,0c-0.1,0.1-0.2,0.2-0.4,0.3c-0.1,0.1-0.2,0.1-0.3,0.2c-0.2,0-0.4-0.1-0.4-0.4c0-0.2,0-0.3,0.1-0.5c0,0,0,0,0,0
					c0,0,0,0,0,0c0,0-0.1,0.1-0.1,0.1c-0.1,0.1-0.3,0.3-0.4,0.4c-0.1,0.1-0.3,0.2-0.4,0.3c-0.1,0.1-0.3,0.1-0.4,0.1
					c-0.2,0-0.4-0.2-0.5-0.5c0-0.1,0-0.2,0-0.3c0-0.1,0-0.2,0-0.2c0.1-0.2,0.1-0.4,0.2-0.6c0-0.1,0.1-0.3,0.2-0.4c0,0,0,0,0-0.1
					c-0.1,0-0.1,0-0.1,0c0,0-0.1,0-0.1,0c-0.1,0-0.1,0.1-0.2,0.1c-0.1,0.2-0.2,0.3-0.2,0.5c-0.1,0.1-0.2,0.3-0.3,0.4
					c-0.1,0.2-0.3,0.3-0.4,0.5c-0.1,0.1-0.2,0.2-0.3,0.2c-0.1,0.1-0.2,0.2-0.3,0.2c-0.1,0.1-0.3,0.1-0.4,0c-0.1-0.1-0.2-0.2-0.2-0.3
					c0-0.1,0-0.3,0-0.4c0-0.1,0-0.3,0.1-0.4c0-0.1,0.1-0.2,0.1-0.3c0.1-0.2,0.1-0.3,0.2-0.4c0.1-0.2,0.2-0.4,0.3-0.5
					c0.1-0.2,0.3-0.3,0.4-0.5c0.1-0.1,0.3-0.2,0.4-0.3c0.1-0.1,0.3-0.2,0.4-0.2c0.1,0,0.2-0.1,0.3,0c0.1,0,0.2,0.1,0.2,0.2
					c0.1,0.2,0.1,0.3,0.1,0.5c0,0.2-0.1,0.3-0.1,0.5C204.7,37.6,204.7,37.7,204.7,37.7z M208.7,36.7c-0.1,0-0.1,0-0.2,0.1
					c-0.1,0.1-0.2,0.2-0.3,0.3c-0.1,0.2-0.2,0.3-0.4,0.5c-0.1,0.2-0.3,0.4-0.4,0.6c-0.1,0.3-0.3,0.5-0.3,0.9c0,0.1,0,0.1,0.1,0.2
					c0,0,0.1,0,0.1,0c0.1-0.1,0.2-0.2,0.3-0.3c0.1-0.1,0.1-0.2,0.2-0.3c0.1-0.2,0.2-0.4,0.4-0.6c0.1-0.2,0.2-0.4,0.3-0.6
					c0.1-0.2,0.2-0.4,0.3-0.7C208.8,36.8,208.8,36.8,208.7,36.7C208.8,36.7,208.7,36.7,208.7,36.7z M203.7,37.5
					C203.7,37.5,203.7,37.5,203.7,37.5c-0.1,0.2-0.2,0.4-0.3,0.5c-0.1,0.2-0.2,0.4-0.3,0.6c0,0.1-0.1,0.3-0.1,0.4
					c0,0.2,0.1,0.3,0.3,0.2c0.1-0.1,0.2-0.2,0.3-0.3c0.1-0.2,0.3-0.3,0.4-0.5c0.1-0.1,0.2-0.3,0.2-0.4c0-0.1,0-0.1,0-0.1
					c-0.1-0.1-0.3-0.1-0.4-0.3C203.8,37.6,203.8,37.6,203.7,37.5z M204.7,37c0,0,0-0.1,0-0.2c0,0-0.1-0.1-0.1-0.1
					c-0.1-0.1-0.2,0-0.3,0c-0.1,0.1-0.2,0.1-0.2,0.2c-0.1,0.2-0.2,0.4,0,0.6c0.1,0.1,0.2,0.2,0.4,0.2c0,0,0.1,0,0.1-0.1
					c0-0.1,0.1-0.1,0.1-0.2C204.6,37.4,204.7,37.2,204.7,37z"/>
				<path fill="#FFFFFF" d="M214.3,35C214.3,34.9,214.2,34.9,214.3,35c-0.2-0.1-0.3-0.1-0.4,0c-0.1,0-0.2,0.1-0.3,0.2
					c-0.1,0.1-0.3,0.2-0.4,0.3c-0.1,0.1-0.2,0.2-0.3,0.2c-0.1,0.1-0.1,0.1-0.2,0.2c-0.1,0.1-0.2,0.3-0.4,0.4c0,0-0.1,0.1-0.1,0.1
					c0,0-0.1,0.1-0.1,0.1c0,0.1-0.1,0.1-0.1,0.2c-0.1,0.1-0.2,0.2-0.2,0.3c-0.1,0.2-0.2,0.3-0.4,0.5c-0.2,0.3-0.4,0.7-0.6,1
					c-0.1,0.2-0.2,0.5-0.3,0.7c-0.1,0.3-0.2,0.5-0.2,0.8c0,0.1,0,0.2,0,0.3c0,0.2,0,0.4,0.2,0.5c0.1,0.1,0.2,0.2,0.3,0.2
					c0.1,0,0.2,0,0.3,0c0.1,0,0.1-0.1,0.2-0.1c0.1-0.1,0.2-0.2,0.3-0.3c0.1-0.1,0.2-0.2,0.3-0.3c0.1-0.2,0.3-0.4,0.4-0.7
					c0.1-0.2,0.1-0.3,0.2-0.5c0-0.1,0.1-0.3,0.1-0.4c0-0.1,0-0.2-0.1-0.2c0,0-0.1-0.1-0.2-0.1c-0.1,0-0.2,0.1-0.3,0.2
					c-0.1,0.1-0.1,0.2-0.2,0.3c-0.1,0.2-0.1,0.3-0.2,0.5c0,0.1,0,0.1-0.1,0.1c-0.1,0.1-0.2,0.1-0.3,0.2c-0.1,0.1-0.2,0.2-0.3,0.3
					c0,0-0.1,0.1-0.1,0.1c0-0.1,0-0.1,0-0.1c0-0.1,0.1-0.3,0.1-0.4c0-0.1,0-0.1,0.1-0.2c0.1-0.2,0.1-0.3,0.2-0.4
					c0.1-0.1,0.2-0.3,0.3-0.4c0.1-0.1,0.2-0.2,0.3-0.3c0.1-0.1,0.2-0.1,0.3-0.1c0.1,0,0.2-0.1,0.3-0.1c0.1,0,0.3,0.1,0.3,0.2
					c0,0.1,0.1,0.3,0.1,0.4c0,0.1,0,0.2,0,0.3c0,0.1,0,0.2-0.1,0.3c-0.1,0.2-0.1,0.3-0.2,0.5c-0.1,0.1-0.1,0.3-0.2,0.4
					c-0.1,0.2-0.2,0.4-0.4,0.5c-0.1,0.1-0.1,0.2-0.2,0.2c-0.2,0.2-0.4,0.4-0.6,0.6c-0.1,0-0.1,0.1-0.2,0.1c-0.1,0-0.2,0.1-0.3,0.1
					c-0.2,0-0.3,0-0.5,0c-0.1,0-0.2-0.1-0.3-0.2c-0.1-0.1-0.1-0.2-0.2-0.2c0,0,0,0,0-0.1c-0.1-0.1-0.1-0.3-0.1-0.4
					c0-0.2,0-0.4,0-0.6c0-0.2,0-0.3,0.1-0.5c0.1-0.2,0.1-0.4,0.2-0.6c0.1-0.2,0.1-0.4,0.2-0.5c0-0.1,0.1-0.2,0.2-0.3
					c0.1-0.1,0.2-0.3,0.2-0.4c0.2-0.3,0.3-0.5,0.5-0.8c0.1-0.1,0.2-0.2,0.3-0.3c0.1-0.1,0.2-0.2,0.3-0.4c0.1-0.2,0.3-0.3,0.4-0.5
					c0.1-0.1,0.3-0.2,0.4-0.4c0.1-0.1,0.1-0.1,0.2-0.2c0.2-0.1,0.3-0.2,0.5-0.3c0.2-0.1,0.4-0.2,0.6-0.3c0.2-0.1,0.3-0.1,0.5-0.1
					c0.1,0,0.3,0.1,0.4,0.2c0,0,0.1,0,0.1,0c0.1-0.1,0.3-0.1,0.5-0.2c0,0,0.1,0,0.1,0c0.1,0,0.2,0,0.4,0c0.1,0,0.2,0,0.2,0
					c0.1,0,0.2,0.1,0.3,0.1c0.1,0.1,0.2,0.1,0.4,0.2c0.2,0.1,0.3,0.2,0.5,0.3c0.1,0,0.2,0.1,0.2,0.1c0,0,0,0,0,0
					c0.1,0.1,0.1,0.1,0,0.1c-0.1,0.1-0.2,0.2-0.2,0.3c-0.1,0.1-0.1,0.1-0.2,0.2c0,0-0.1,0-0.1,0c-0.1-0.1-0.3-0.2-0.4-0.3
					c-0.1-0.1-0.3-0.2-0.4-0.3c-0.1-0.1-0.3-0.1-0.4-0.2c-0.2-0.1-0.3-0.1-0.5-0.1c-0.1,0-0.2,0-0.3,0c0,0,0,0.1,0,0.1
					c0,0.1,0,0.1,0,0.2c0,0.2,0,0.3-0.1,0.5c0,0.1-0.1,0.2-0.1,0.3c-0.1,0.1-0.1,0.3-0.2,0.4c-0.1,0.1-0.2,0.3-0.3,0.4
					c-0.1,0.1-0.1,0.1-0.2,0.2c-0.1,0.1-0.2,0.2-0.3,0.2c-0.1,0.1-0.2,0.1-0.4,0.1c-0.1,0-0.2-0.1-0.3-0.3c0-0.2,0-0.3,0.1-0.4
					c0-0.1,0.1-0.3,0.2-0.4c0.2-0.3,0.3-0.6,0.6-0.8c0.1-0.1,0.2-0.2,0.3-0.3C214,35.2,214.1,35.1,214.3,35
					C214.2,35,214.3,35,214.3,35z M214.4,35.3c0-0.1,0-0.1-0.1-0.1c0,0-0.1,0-0.1,0.1c-0.1,0.1-0.2,0.2-0.3,0.3
					c-0.1,0.1-0.2,0.2-0.2,0.3c-0.1,0.1-0.2,0.2-0.3,0.4c-0.1,0.1-0.2,0.3-0.2,0.5c-0.1,0.2-0.1,0.3-0.1,0.5c0,0.1,0.1,0.2,0.2,0.2
					c0.1,0,0.2-0.1,0.3-0.1c0.1,0,0.1-0.1,0.2-0.1c0.1-0.1,0.1-0.1,0.2-0.2c0.1-0.1,0.1-0.2,0.2-0.3c0.1-0.1,0.1-0.2,0.2-0.3
					c0-0.1,0.1-0.2,0.1-0.3C214.4,35.7,214.4,35.5,214.4,35.3z"/>
				<path fill="#FFFFFF" d="M208.8,41.8C208.8,41.8,208.8,41.8,208.8,41.8c-0.2-0.1-0.2-0.2-0.3-0.2c-0.1,0-0.2-0.1-0.3-0.1
					c-0.1,0-0.2-0.1-0.3-0.1c-0.1,0-0.2,0-0.3-0.1c-0.1,0-0.1,0-0.2,0c-0.2,0-0.3,0-0.5,0.1c-0.1,0-0.2,0.1-0.3,0.2
					c0,0-0.1,0.1-0.1,0.1c0,0,0,0-0.1,0c-0.1-0.1-0.1-0.1-0.2-0.2c0,0-0.1-0.1-0.1-0.1c-0.1-0.1-0.2-0.1-0.3-0.2
					c-0.1-0.1-0.3-0.1-0.4-0.1c-0.1,0-0.2,0-0.3,0c-0.1,0-0.2,0-0.3,0c-0.2,0-0.3,0-0.5,0.1c-0.2,0-0.4,0.1-0.5,0.1
					c-0.1,0-0.1,0-0.2,0.1c0,0-0.1,0-0.1,0c-0.2,0-0.3,0.1-0.5,0.1c-0.1,0-0.2,0.1-0.4,0.1c-0.2,0-0.3,0.1-0.5,0.1
					c-0.2,0-0.4,0-0.6,0c-0.1,0-0.2,0-0.3,0c-0.1,0-0.2-0.1-0.4-0.1c-0.1-0.1-0.3-0.2-0.4-0.3c-0.1-0.1-0.2-0.2-0.2-0.3
					c-0.1-0.1-0.1-0.3-0.2-0.4c-0.1-0.3-0.1-0.5-0.1-0.8c0-0.2,0-0.3,0.1-0.5c0-0.2,0.1-0.3,0.1-0.5c0-0.1,0.1-0.3,0.1-0.4
					c0-0.1,0.1-0.2,0.1-0.3c0-0.1,0.1-0.2,0.1-0.3c0.1-0.2,0.2-0.3,0.3-0.5c0.1-0.2,0.3-0.4,0.4-0.6c0.1-0.1,0.2-0.3,0.3-0.4
					c0.1-0.1,0.2-0.2,0.2-0.3c0.1-0.1,0.2-0.2,0.4-0.4c0.1-0.1,0.3-0.3,0.4-0.4c0.1-0.1,0.3-0.2,0.4-0.3c0.1,0,0.1-0.1,0.2-0.1
					c0.2-0.1,0.4-0.2,0.6-0.2c0.1,0,0.3-0.1,0.4-0.1c0.2,0,0.4,0.1,0.5,0.4c0,0.1,0,0.2,0,0.3c0,0.2-0.1,0.4-0.3,0.6
					c-0.1,0.1-0.2,0.1-0.3,0.1c-0.1,0-0.1-0.1-0.1-0.2c0-0.1,0-0.2,0.1-0.3c0.1-0.1,0.1-0.1,0.2-0.2c0,0,0.1,0,0.1,0
					c0.1,0,0.1,0,0.1-0.1c0-0.2,0-0.3-0.2-0.3c-0.1,0-0.2,0-0.4,0.1c-0.1,0.1-0.2,0.1-0.3,0.2c-0.1,0.1-0.2,0.2-0.3,0.3
					c-0.1,0-0.1,0.1-0.2,0.1c0,0-0.1,0.1-0.1,0.1c-0.2,0.2-0.3,0.4-0.5,0.6c-0.1,0.1-0.2,0.2-0.3,0.3c-0.1,0.1-0.2,0.2-0.2,0.4
					c-0.1,0.2-0.2,0.4-0.3,0.5c-0.1,0.2-0.2,0.4-0.3,0.6c0,0.1-0.1,0.1-0.1,0.2c0,0.1-0.1,0.2-0.1,0.3c-0.1,0.2-0.1,0.4-0.2,0.5
					c0,0.2-0.1,0.4-0.1,0.6c0,0.1,0,0.2,0,0.3c0,0.2,0,0.3,0.1,0.5c0.1,0.1,0.1,0.3,0.2,0.4c0.1,0.1,0.2,0.1,0.3,0.2
					c0.1,0.1,0.3,0.1,0.4,0.1c0.1,0,0.2,0,0.4,0c0.1,0,0.2,0,0.2,0c0.1,0,0.2,0,0.3-0.1c0.2,0,0.3-0.1,0.5-0.1
					c0.2,0,0.3-0.1,0.5-0.1c0.1,0,0.3-0.1,0.4-0.1c0.1,0,0.2-0.1,0.4-0.1c0.2,0,0.4-0.1,0.5-0.1c0.1,0,0.3-0.1,0.4-0.1
					c0.1,0,0.2,0,0.3,0c0.2,0,0.4,0,0.6,0c0.2,0,0.3,0,0.5,0.1c0.1,0,0.3,0.1,0.4,0.1c0.1,0,0.2,0.1,0.3,0.2c0.1,0,0.1,0.1,0.2,0.1
					c0.1,0.1,0.2,0.1,0.3,0.2c0.1,0.1,0.2,0.2,0.3,0.3C208.6,41.6,208.7,41.7,208.8,41.8L208.8,41.8z"/>
				<path fill="#FFFFFF" d="M220.3,35c0,0.1-0.1,0.2-0.2,0.3c-0.1,0.1-0.2,0.2-0.2,0.3c0,0-0.1,0.1-0.1,0.1
					c-0.1,0.1-0.2,0.2-0.3,0.2c-0.1,0.1-0.2,0.2-0.3,0.2c-0.2,0.1-0.3,0.2-0.5,0.2c-0.1,0-0.1,0-0.2,0.1c-0.1,0-0.3,0-0.4,0
					c-0.1,0-0.2,0-0.2,0c0,0,0,0,0-0.1c0.1-0.1,0.1-0.2,0.2-0.3c0.1-0.1,0.1-0.2,0.2-0.3c0,0,0.1,0,0.1,0c0.2,0,0.5,0,0.7-0.1
					c0.1,0,0.2-0.1,0.3-0.1c0.2-0.1,0.3-0.2,0.4-0.3c0.1-0.1,0.2-0.2,0.4-0.2C220.1,35.1,220.2,35,220.3,35
					C220.2,35,220.3,35,220.3,35C220.3,35,220.3,35,220.3,35z"/>
				<path fill="#FFFFFF" d="M209.8,37.1c0-0.1,0.1-0.1,0.1-0.2c0.1-0.1,0.1-0.2,0.2-0.4c0,0,0,0,0,0c0.2,0,0.4,0,0.5,0
					c0,0.1,0,0.1-0.1,0.1c-0.1,0.1-0.2,0.3-0.2,0.4c0,0,0,0-0.1,0c-0.1,0-0.1,0-0.2,0C210.1,37.1,210,37.1,209.8,37.1
					C209.9,37.1,209.9,37.1,209.8,37.1L209.8,37.1z"/>
			</g>
		</g>
		<path fill="#2A4229" d="M219.3,75.3c0,0,0.2,2.2-1.8,3.1c0,0,2.6-0.2,2.7-3.3L219.3,75.3z"/>
		<path fill="#98B491" d="M218.8,75.8c0,0,0.7,2.6-5.6,2.9C213.2,78.7,218.1,78.1,218.8,75.8z"/>
		<path fill="#98B491" d="M210.3,19.9v-13h4.6c0,0,1.3,2,0,3.9c0,0-0.1,5.6,0.8,9H210.3z"/>
		<path fill="#354E38" d="M214.6,19.9l-1-8.9c0,0,1.7-2.3,0-4.1h-0.5c0,0,0.9,2.9-0.7,4.1l1,8.9H214.6z"/>
		<path fill="#839A7C" d="M215.4,19.9l-1.1-8.8c0,0,1.3-3.2-0.3-4.1h-0.4c0,0,1.5,1.4,0,4.1l1,8.9H215.4z"/>
		<path fill="#929397" d="M210.3,4.2v3.1l1.3-0.3l1.4,0.4l1-0.4l0.7,0.4l0.8-0.4l-0.3-2.1C215.2,4.9,214.5,4,210.3,4.2z"/>
		<path fill="#B3222D" d="M210.3,4.9c0,0,3.2,0.2,4-0.2c0,0-1-0.5-4-0.4V4.9z"/>
		<polygon fill="#E3E3D4" points="211.6,6.9 211.4,5.1 210.9,5.1 210.9,7.2 		"/>
		<polygon fill="#E3E3D4" points="213,7.4 212.6,5.1 212.1,5.1 212.2,7.1 		"/>
		<polygon fill="#E3E3D4" points="214,6.9 213.6,5.1 213.1,5.1 213.5,7.2 		"/>
		<polygon fill="#E3E3D4" points="214.7,7.4 215.4,7 214.6,5.1 214,5.1 		"/>
	</g>
	<rect x="87" y="329.9" fill="#73272D" width="12.7" height="58.3"/>
	<rect x="331" y="329.9" fill="#73272D" width="12.7" height="58.3"/>
	<rect x="283.2" y="228" fill="#73272D" width="12.7" height="58.3"/>
	<rect x="241.9" y="121.9" fill="#73272D" width="12.7" height="58.3"/>
	<rect x="171.9" y="121.9" fill="#73272D" width="12.7" height="58.3"/>
	<rect x="130.5" y="228" fill="#73272D" width="12.7" height="58.3"/>
	<path fill="#C73531" d="M420.7,465.1H3.7c-1.7,0-3.1-1.4-3.1-3.1v-82.8h423.3V462C423.8,463.7,422.4,465.1,420.7,465.1z"/>
	<g>
		<g>
			<path fill="#FFFFFF" d="M4.2,428.4c-0.2,0-1.2,0-2.3-0.1s-2-0.8-1.9-1.7c0.1-0.9,0.6-1.5,1.1-1.5s3.7,0.8,3.7,1.6
				C4.8,427.7,4.4,428.4,4.2,428.4z"/>
		</g>
		<g>
			<path fill="#FFFFFF" d="M18.4,426.4c-1.8,0.5-3.5,0.2-3.7-0.7c-0.2-0.9,1.1-1.9,2.8-2.4c1.7-0.4,6.4-1.4,6.7-0.6
				C24.6,423.5,20.2,425.9,18.4,426.4z M36.6,417c-1.5,1.2-3.1,1.6-3.6,0.8s0.2-2.2,1.6-3.3c1.4-1.1,5.2-3.9,5.9-3.3
				S38.1,415.8,36.6,417z"/>
		</g>
		<g>
			<path fill="#FFFFFF" d="M48.3,403.3c-0.2,0.4-1.1,0.4-1.8-0.1s-1-1.4-0.6-2.1c0.4-0.7,1.7-3.2,2-3.8c0.3-0.6,0.9-0.6,1.3-0.2
				c0.4,0.4,1.3,1.3,1.9,2c0.6,0.6,1.7,2.7,1.1,3.4s-1.4,0.9-1.7,0.5S48.6,402.9,48.3,403.3z"/>
		</g>
		<g>
			<path fill="#FFFFFF" d="M100.4,429.4c-0.1,0.9-1.5,1.4-3.3,1.2c-1.7-0.2-6.2-2-6-2.8c0.2-0.8,1.8-1.2,3.4-0.9
				C96.2,427.3,100.5,428.6,100.4,429.4z M113.2,429.9c-1.7,0.4-3.3,0-3.4-0.9c-0.1-0.9,1.1-1.9,2.7-2.2c1.6-0.3,6-1.1,6.4-0.3
				C119.1,427.4,114.9,429.6,113.2,429.9z M82.3,424.6c-0.4,0.8-1.9,0.8-3.5,0.1c-1.5-0.8-5.3-3.8-4.8-4.5c0.5-0.7,2.1-0.6,3.6,0.2
				C79.1,421.2,82.7,423.8,82.3,424.6z M130.6,421.7c-1.4,1-3,1.2-3.4,0.5c-0.5-0.7,0.2-2.1,1.6-3.1c1.3-0.9,5.3-3.3,5.9-2.7
				C135.2,417.2,132,420.7,130.6,421.7z M66.3,414.8c-0.5,0.7-2.1,0.4-3.4-0.7c-1.4-1.1-4.4-4.6-3.9-5.3s2.1-0.3,3.5,0.8
				C63.8,410.8,66.8,414.1,66.3,414.8z M144.4,408.5c-1.1,1.3-2.5,1.9-3.2,1.3s-0.3-2.1,0.8-3.4s4.4-4.5,5.1-4
				C147.8,403,145.5,407.2,144.4,408.5z"/>
		</g>
		<g>
			<path fill="#FFFFFF" d="M156.4,395.1c-0.8,0.3-1.6,0.3-1.6,0.1c-0.1-0.2-0.4-0.6-0.5-0.4c-0.1,0.2-1.1,0.3-1.8-0.1
				c-0.7-0.5-1-1.4-0.5-2.2c0.5-0.7,2-3.4,2.5-4.3c0.5-0.9,1.2-0.8,1.4,0.2s0.8,2.4,1,3.2C157.2,392.4,157.2,394.8,156.4,395.1z"/>
		</g>
		<g>
			<path fill="#FFFFFF" d="M217.3,453.5c-0.7,0-2.2,0-3.2,0c-1,0-3.5-1-3.4-1.8c0.1-0.9,1.5-1.5,3.1-1.4c1.6,0.1,6,0.6,6,1.5
				C220,452.6,218.1,453.4,217.3,453.5z M232.4,450.6c-1.6,0.5-3.2,0.3-3.4-0.6c-0.2-0.8,0.8-1.9,2.4-2.5c1.5-0.5,5.8-1.6,6.2-0.8
				S234,450.1,232.4,450.6z M201.8,449.6c-0.3,0.8-1.8,1-3.4,0.4c-1.6-0.6-5.4-3.3-5-4c0.4-0.8,2-0.8,3.5-0.1
				C198.3,446.6,202.1,448.8,201.8,449.6z M248.9,441.7c-1.4,1-2.9,1.2-3.4,0.5c-0.5-0.7,0.2-2.1,1.5-3.1c1.3-1,5.1-3.3,5.7-2.6
				C253.3,437.2,250.3,440.7,248.9,441.7z M185.7,440.9c-0.5,0.7-2,0.4-3.3-0.8c-1.3-1.1-4.1-4.8-3.4-5.4c0.6-0.6,2.1-0.1,3.3,1
				C183.4,436.9,186.2,440.2,185.7,440.9z M262.3,428.7c-1.1,1.3-2.5,1.9-3.2,1.3c-0.7-0.6-0.3-2.1,0.7-3.3c1-1.3,4.3-4.4,5-3.9
				C265.6,423.3,263.4,427.4,262.3,428.7z M173,427.7c-0.7,0.5-2.1-0.2-3.1-1.6s-2.8-5.6-2.1-6.1s2.1,0.3,3,1.7
				C171.7,423.3,173.7,427.2,173,427.7z M272.6,413.1c-0.8,1.5-2.1,2.4-2.9,1.9s-0.7-2,0-3.4s3.3-5.1,4.1-4.8
				C274.8,407.2,273.4,411.6,272.6,413.1z M163.4,412.1c-0.8,0.4-2-0.5-2.7-2.1c-0.7-1.5-1.9-6-1.1-6.3c0.8-0.3,2,0.7,2.7,2.2
				C163,407.5,164.2,411.7,163.4,412.1z"/>
		</g>
		<g>
			<path fill="#FFFFFF" d="M279.2,398.1c-0.1,0.4-0.9,0.4-1.7,0.1c-0.8-0.3-1.3-1.2-1-2c0.3-0.8,1.2-3.6,1.4-4.3
				c0.2-0.7,0.8-0.9,1.3-0.3c0.5,0.6,1.4,1.5,2,2.2c0.6,0.6,1.7,2.8,1,3.4s-1.4,0.9-1.6,0.6S279.3,397.7,279.2,398.1z"/>
		</g>
		<g>
			<path fill="#FFFFFF" d="M343,430.7c-0.7,0-2.1,0-3.1,0s-3.6-1-3.5-1.8c0.1-0.9,1.5-1.5,3.2-1.4c1.6,0.1,5.9,0.7,6,1.5
				C345.6,429.8,343.7,430.7,343,430.7z M357.9,427.8c-1.6,0.6-3.2,0.3-3.4-0.5c-0.2-0.8,0.8-2,2.3-2.5c1.5-0.5,5.7-1.7,6.1-0.9
				S359.5,427.3,357.9,427.8z M327.4,427.1c-0.2,0.8-1.7,1.1-3.4,0.6c-1.6-0.5-5.6-2.9-5.2-3.7s1.9-1,3.4-0.4
				C323.8,424.3,327.7,426.3,327.4,427.1z M310.7,420c-0.4,0.8-2,0.7-3.4-0.2c-1.4-0.9-4.8-4-4.3-4.7c0.5-0.7,2.1-0.5,3.4,0.4
				S311.1,419.2,310.7,420z M373.9,418.1c-1.3,1.1-2.8,1.5-3.3,0.8c-0.5-0.7,0-2.1,1.2-3.2c1.2-1.1,4.7-3.7,5.4-3.1
				S375.2,417,373.9,418.1z M295.7,409.6c-0.6,0.7-2.1,0.4-3.3-0.7s-4.1-4.6-3.6-5.3c0.6-0.6,2.1-0.2,3.4,0.9
				S296.3,408.9,295.7,409.6z"/>
		</g>
		<g>
			<path fill="#FFFFFF" d="M384.4,405.5c-0.2,0.3-1,0.3-1.7-0.2c-0.7-0.5-1-1.4-0.5-2.2c0.4-0.7,1.8-3.2,2.1-3.9
				c0.3-0.7,1-0.7,1.4-0.1c0.4,0.6,1.1,1.7,1.6,2.5c0.5,0.7,1.2,3,0.5,3.5c-0.7,0.5-1.5,0.7-1.7,0.3
				C385.8,405.1,384.7,405.1,384.4,405.5z"/>
		</g>
		<g>
			<path fill="#FFFFFF" d="M412.1,425.9c-0.4,0.8-1.8,0.9-3.1,0.2c-1.3-0.7-4.4-3.4-3.9-4.1s1.9-0.7,3.1,0.1
				S412.5,425.1,412.1,425.9z M398.6,417c-0.6,0.7-2,0.4-3.1-0.7c-1.1-1-3.4-4.4-2.7-5c0.6-0.6,2-0.2,3,0.8
				C396.9,413.3,399.2,416.4,398.6,417z"/>
		</g>
		<g>
			<path fill="#FFFFFF" d="M424.3,429.8c-0.1,0.9-0.6,1.5-1.1,1.5c-0.5-0.1-3.8-1.6-3.5-2.5c0.2-0.8,1.4-1.3,2.6-1.1
				C423.5,428,424.4,428.9,424.3,429.8z"/>
		</g>
	</g>
	<path fill="#D75C86" d="M0.5,379c0,0,19.1,29,40.3,0C40.9,379-0.5,379,0.5,379z"/>
	<path fill="#D75C86" d="M32.4,379c0,0,19.1,29,40.3,0C72.7,379,31.3,379,32.4,379z"/>
	<path fill="#D75C86" d="M64.2,379c0,0,19.1,29,40.3,0C104.5,379,63.1,379,64.2,379z"/>
	<path fill="#D75C86" d="M96,379c0,0,19.1,29,40.3,0C136.3,379,95,379,96,379z"/>
	<path fill="#D75C86" d="M127.8,379c0,0,19.1,29,40.3,0C168.1,379,126.8,379,127.8,379z"/>
	<path fill="#D75C86" d="M159.7,379c0,0,19.1,29,40.3,0C200,379,158.6,379,159.7,379z"/>
	<path fill="#D75C86" d="M191.5,379c0,0,19.1,29,40.3,0C231.8,379,190.4,379,191.5,379z"/>
	<path fill="#D75C86" d="M223.3,379c0,0,19.1,29,40.3,0C263.6,379,222.2,379,223.3,379z"/>
	<path fill="#D75C86" d="M255.1,379c0,0,19.1,29,40.3,0C295.4,379,254.1,379,255.1,379z"/>
	<path fill="#D75C86" d="M287,379c0,0,19.1,29,40.3,0C327.3,379,285.9,379,287,379z"/>
	<path fill="#D75C86" d="M318.8,379c0,0,19.1,29,40.3,0C359.1,379,317.7,379,318.8,379z"/>
	<path fill="#D75C86" d="M350.6,379c0,0,19.1,29,40.3,0C390.9,379,349.5,379,350.6,379z"/>
	<path fill="#D75C86" d="M382.4,379c0,0,19.1,29,40.3,0C422.7,379,381.4,379,382.4,379z"/>
	<path fill="#C73531" d="M366.7,343.1H57.6c-1.7,0-3.1-1.4-3.1-3.1v-62.7h315.3V340C369.8,341.7,368.4,343.1,366.7,343.1z"/>
	<path fill="#D75C86" d="M78.2,277c0,0,14.2,29,30,0C108.2,277,77.4,277,78.2,277z"/>
	<path fill="#D75C86" d="M101.9,277c0,0,14.2,29,30,0C132,277,101.1,277,101.9,277z"/>
	<path fill="#D75C86" d="M125.6,277c0,0,14.2,29,30,0C155.7,277,124.8,277,125.6,277z"/>
	<path fill="#D75C86" d="M149.3,277c0,0,14.2,29,30,0C179.4,277,148.6,277,149.3,277z"/>
	<path fill="#D75C86" d="M173.1,277c0,0,14.2,29,30,0C203.1,277,172.3,277,173.1,277z"/>
	<path fill="#D75C86" d="M196.8,277c0,0,14.2,29,30,0C226.8,277,196,277,196.8,277z"/>
	<path fill="#D75C86" d="M220.5,277c0,0,14.2,29,30,0C250.5,277,219.7,277,220.5,277z"/>
	<path fill="#D75C86" d="M244.2,277c0,0,14.2,29,30,0C274.2,277,243.4,277,244.2,277z"/>
	<path fill="#D75C86" d="M267.9,277c0,0,14.2,29,30,0C297.9,277,267.1,277,267.9,277z"/>
	<path fill="#D75C86" d="M291.6,277c0,0,14.2,29,30,0C321.6,277,290.8,277,291.6,277z"/>
	<path fill="#D75C86" d="M315.3,277c0,0,14.2,29,30,0C345.3,277,314.5,277,315.3,277z"/>
	<path fill="#D75C86" d="M339,277c0,0,14.2,29,30,0C369,277,338.2,277,339,277z"/>
	<path fill="#C73531" d="M318.1,240.2H106.3c-1.7,0-3.1-1.4-3.1-3.1v-64.8h218v64.8C321.2,238.8,319.8,240.2,318.1,240.2z"/>
	<path fill="#C73531" d="M271.5,139.4H152.8c-1.7,0-3.1-1.4-3.1-3.1V76.8h124.9v59.5C274.6,138,273.2,139.4,271.5,139.4z"/>
	<g>
		<g>
			<g>
				<path fill="#FFFFFF" d="M218.9,329.3c-1.7,0.1-3.2,0.1-3.4,0.1c-0.2,0-0.4-0.6-0.3-1.2c0-0.7,0.2-1.2,0.4-1.2
					c0.2,0,1.6,0,3.2-0.1c1.6,0,5.8,0.1,5.9,0.8C224.9,328.3,220.6,329.3,218.9,329.3z M205.7,327.5c-0.2,0.7-1.7,0.9-3.5,0.6
					c-1.7-0.3-6-1.9-5.7-2.6c0.3-0.6,1.9-0.8,3.5-0.4S205.9,326.8,205.7,327.5z M237.5,326.2c-1.7,0.5-3.3,0.4-3.6-0.3
					s0.8-1.5,2.4-2c1.6-0.5,6-1.4,6.4-0.9C243.2,323.7,239.2,325.7,237.5,326.2z M187.8,322.6c-0.4,0.6-2,0.5-3.5-0.2
					c-1.5-0.7-5-3.2-4.5-3.8c0.5-0.5,2.1-0.4,3.5,0.4C184.8,319.8,188.3,322,187.8,322.6z M254.4,318.7c-1.4,0.8-3,1.1-3.5,0.6
					c-0.5-0.5,0.2-1.6,1.5-2.5c1.3-0.8,5.2-2.7,5.8-2.3C258.8,315,255.8,317.8,254.4,318.7z M108.4,319.2c-1.8,0.1-3.3-0.3-3.3-1
					c0-0.7,1.3-1.3,3-1.4c1.7-0.1,6.3-0.1,6.4,0.5C114.8,317.9,110.2,319.1,108.4,319.2z M95.6,317.8c-0.1,0.7-1.6,1-3.4,0.8
					s-6.2-1.7-5.9-2.3c0.3-0.6,1.8-0.9,3.5-0.6C91.5,316,95.7,317.1,95.6,317.8z M331.1,317.3c-1.1,0-2.6,0-3.2,0
					c-0.7,0-2.4-0.6-2.4-1.3s1.5-1.2,3.2-1.2s6.3,0.4,6.3,1.1S332.3,317.3,331.1,317.3z M316,315.2c-0.2,0.7-1.7,1-3.5,0.7
					s-6.1-1.8-5.8-2.4c0.3-0.6,1.8-0.9,3.5-0.5C311.9,313.3,316.2,314.6,316,315.2z M127.3,315.3c-1.6,0.5-3.2,0.5-3.5-0.2
					c-0.3-0.6,0.7-1.6,2.3-2.1s5.9-1.6,6.4-1.1S128.9,314.8,127.3,315.3z M348,315.5c-1.7,0.3-3.3,0-3.5-0.6s1.1-1.4,2.7-1.7
					c1.7-0.3,6.2-0.8,6.5-0.1C354,313.7,349.8,315.2,348,315.5z M172.5,313.9c-0.6,0.5-2.1,0.1-3.4-0.8c-1.2-1-3.9-4-3.2-4.4
					c0.7-0.4,2.2,0,3.3,1C170.4,310.6,173.1,313.4,172.5,313.9z M77.4,313.6c-0.4,0.6-2,0.6-3.6,0c-1.6-0.6-5.3-2.9-4.8-3.5
					c0.5-0.6,2.1-0.5,3.6,0.2C74.1,311,77.7,313,77.4,313.6z M297.9,310.9c-0.4,0.6-2,0.6-3.6,0c-1.6-0.6-5.3-2.9-4.9-3.4
					c0.5-0.6,2.1-0.5,3.6,0.1C294.5,308.3,298.2,310.3,297.9,310.9z M365.9,310.2c-1.4,0.6-2.9,0.6-3.3,0c-0.4-0.6,0.4-1.5,1.7-2.1
					c1.3-0.6,4.4-1.5,4.9-1C369.7,307.7,367.3,309.6,365.9,310.2z M267.6,307.7c-1,1.1-2.5,1.7-3.1,1.3c-0.7-0.4-0.5-1.6,0.5-2.7
					c1-1.1,3.9-3.8,4.7-3.4S268.6,306.6,267.6,307.7z M143.8,307.6c-1.4,0.8-2.9,1.1-3.5,0.5c-0.5-0.5,0.2-1.6,1.5-2.4
					c1.3-0.8,5.3-2.7,5.9-2.2C148.3,304,145.2,306.8,143.8,307.6z M61.2,305.9c-0.5,0.5-2.6-0.2-4.6-1.5s-3.2-2.9-2.5-3.4
					c0.6-0.4,1.7-0.3,2.4,0.2C57.2,301.8,61.7,305.4,61.2,305.9z M281.6,303.4c-0.5,0.5-2.1,0.3-3.5-0.6c-1.4-0.8-4.4-3.6-3.8-4.1
					c0.6-0.5,2.1-0.2,3.4,0.7C279,300.2,282.1,302.8,281.6,303.4z M160,302.9c-0.7,0.4-2-0.1-2.9-1s-3-3.6-3-3.6s-0.1-0.2-0.4-0.4
					c-0.2-0.2,0.1-0.8,0.7-1.3c0.6-0.5,1.4-0.6,1.7-0.3s1.2,1.5,2,2.4C159.1,299.7,160.7,302.5,160,302.9z"/>
			</g>
		</g>
	</g>
	<g>
		<g>
			<g>
				<path fill="#FFFFFF" d="M217.3,228.8c-1.1,0-2.6,0-3.3,0c-0.7,0-2.4-0.6-2.3-1.3s1.5-1.2,3.2-1.2c1.7,0,6.2,0.3,6.3,1
					C221.3,228,218.4,228.8,217.3,228.8z M202.3,226.3c-0.2,0.7-1.8,0.9-3.5,0.4c-1.7-0.4-5.8-2.4-5.4-3s2-0.7,3.5-0.2
					C198.5,224,202.5,225.6,202.3,226.3z M234.1,226.1c-1.7,0.5-3.3,0.3-3.5-0.3c-0.3-0.7,0.8-1.6,2.4-2c1.6-0.5,6-1.4,6.4-0.8
					S235.8,225.6,234.1,226.1z M185.1,220c-0.5,0.6-2.1,0.3-3.5-0.5c-1.4-0.9-4.5-3.8-3.9-4.3s2.1-0.2,3.4,0.7
					C182.4,216.8,185.6,219.4,185.1,220z M251,218.5c-1.4,0.8-3,1.1-3.5,0.5c-0.5-0.6,0.2-1.7,1.5-2.5s5.3-2.7,5.9-2.2
					C255.6,214.8,252.4,217.7,251,218.5z M105.2,218.7c-1.1,0-1.9-0.6-1.9-1.3s0.8-1.3,1.8-1.3c1,0,7.5,0.1,7.6,0.7
					C112.8,217.6,106.3,218.7,105.2,218.7z M314.4,215.9c-0.3,0.7-1.9,0.8-3.5,0.3c-1.6-0.5-5.7-2.5-5.4-3.1s2-0.7,3.6-0.2
					C310.7,213.5,314.7,215.3,314.4,215.9z M125.4,216.4c-1.8,0.3-3.3,0-3.5-0.7c-0.2-0.7,1.1-1.5,2.8-1.8s6.2-0.7,6.5,0
					S127.2,216.1,125.4,216.4z M143.8,211.4c-1.7,0.6-3.3,0.6-3.6,0c-0.3-0.6,0.7-1.6,2.3-2.2c1.6-0.6,5.8-1.8,6.2-1.2
					C149.1,208.6,145.5,210.8,143.8,211.4z M296.9,209.9c-0.4,0.6-2,0.6-3.6-0.1s-5.2-3-4.7-3.6s2.1-0.5,3.5,0.2
					C293.6,207,297.3,209.2,296.9,209.9z M171.4,209.5c-0.7,0.4-2.1-0.2-3.1-1.4s-2.6-4.7-1.8-5s2.1,0.4,2.9,1.6
					C170.2,205.8,172.1,209.1,171.4,209.5z M264.9,207.9c-1.1,1.1-2.6,1.5-3.3,1.1s-0.3-1.7,0.8-2.7c1.1-1,4.5-3.5,5.2-3.1
					C268.4,203.5,266.1,206.8,264.9,207.9z M159.8,202.6c-1.3,1-2.8,1.5-3.4,0.9c-0.6-0.5-0.1-1.7,1.1-2.7c1.2-1,4.5-3.3,5.2-2.9
					C163.4,198.3,161.1,201.5,159.8,202.6z M280.7,201.9c-0.5,0.6-2.1,0.3-3.5-0.6c-1.4-0.9-4.5-3.6-3.9-4.2
					c0.6-0.5,2.1-0.2,3.4,0.6C278,198.7,281.2,201.3,280.7,201.9z"/>
			</g>
		</g>
	</g>
	<g>
		<g>
			<g>
				<path fill="#FFFFFF" d="M242.7,118.2c0,0.6-1.6,1-3.4,0.9s-6.2-1.4-6-2c0.2-0.6,1.8-0.9,3.4-0.7
					C238.3,116.7,242.7,117.6,242.7,118.2z M255.6,118.7c-1.7,0.2-3.3-0.1-3.4-0.8c-0.1-0.6,1.2-1.3,2.8-1.5
					c1.7-0.2,6.3-0.5,6.5,0.1C261.8,117.2,257.3,118.5,255.6,118.7z M175.6,117.5c0,0.6-1.4,1.1-3.2,1c-1.8-0.1-6.4-1.1-6.2-1.7
					c0.2-0.6,1.7-1,3.4-0.8C171.2,116.2,175.6,116.8,175.6,117.5z M188.6,117.2c-1.7,0.4-3.3,0.1-3.5-0.5c-0.2-0.6,1-1.4,2.6-1.7
					s6.1-1.1,6.4-0.5C194.5,115.1,190.4,116.8,188.6,117.2z M157,114.8c-0.3,0.6-2.5,0.4-4.9-0.5c-2.4-0.9-4.1-2.1-3.6-2.6
					s1.6-0.6,2.5-0.2C151.9,111.9,157.3,114.2,157,114.8z M224.4,114.6c-0.4,0.6-2,0.5-3.6-0.2s-5-3.1-4.4-3.6
					c0.6-0.5,2.1-0.3,3.5,0.4C221.3,112,224.8,114.1,224.4,114.6z M272.2,114.9c-0.6,0.2-1.3-0.1-1.7-0.7c-0.3-0.6-0.2-1.2,0.4-1.4
					c0.6-0.2,2.4-0.2,2.8,0.4C274.1,113.7,272.8,114.7,272.2,114.9z M205.8,110.5c-1.4,0.8-3,1-3.5,0.5c-0.5-0.5,0.2-1.6,1.5-2.3
					c1.3-0.8,5.2-2.6,5.8-2.2C210.3,107,207.2,109.7,205.8,110.5z"/>
			</g>
		</g>
	</g>
	<path fill="#D75C86" d="M54.5,277c0,0,14.2,29,30,0C84.5,277,53.7,277,54.5,277z"/>
	<path fill="#D75C86" d="M103.3,172c0,0,13.4,22,28.2,0C131.5,172,102.6,172,103.3,172z"/>
	<path fill="#D75C86" d="M152.1,78c0,0,12.5,19,26.4,0C178.5,78,151.4,78,152.1,78z"/>
	<path fill="#D75C86" d="M175.9,78c0,0,12.5,19,26.4,0C202.3,78,175.2,78,175.9,78z"/>
	<path fill="#D75C86" d="M199.7,78c0,0,12.5,19,26.4,0C226.1,78,199,78,199.7,78z"/>
	<path fill="#D75C86" d="M223.5,78c0,0,12.5,19,26.4,0C249.9,78,222.8,78,223.5,78z"/>
	<path fill="#D75C86" d="M247.3,78c0,0,12.5,19,26.4,0C273.7,78,246.6,78,247.3,78z"/>
	<path fill="#D75C86" d="M130.2,172c0,0,13.4,22,28.2,0C158.5,172,129.5,172,130.2,172z"/>
	<path fill="#D75C86" d="M157.2,172c0,0,13.4,22,28.2,0C185.4,172,156.4,172,157.2,172z"/>
	<path fill="#D75C86" d="M184.1,172c0,0,13.4,22,28.2,0C212.3,172,183.3,172,184.1,172z"/>
	<path fill="#D75C86" d="M211,172c0,0,13.4,22,28.2,0C239.2,172,210.3,172,211,172z"/>
	<path fill="#D75C86" d="M237.9,172c0,0,13.4,22,28.2,0C266.2,172,237.2,172,237.9,172z"/>
	<path fill="#D75C86" d="M264.9,172c0,0,13.4,22,28.2,0C293.1,172,264.1,172,264.9,172z"/>
	<path fill="#D75C86" d="M291.8,172c0,0,13.4,22,28.2,0C320,172,291.1,172,291.8,172z"/>
	<g>
		<path fill="#FFFFFF" d="M166.4,230.1c7.3,0,8.9-3.5,10.4-7.5h6.3v59.9h-9.4v-45.7h-7.3V230.1z"/>
		<path fill="#FFFFFF" d="M193.8,236.9c0-9.6,5-15.1,14.3-15.1c9.2,0,14.3,5.5,14.3,15.1v31.2c0,9.6-5.1,15.1-14.3,15.1
			c-9.2,0-14.3-5.5-14.3-15.1V236.9z M203.2,268.7c0,4.3,1.9,5.9,4.9,5.9s4.9-1.6,4.9-5.9v-32.4c0-4.3-1.9-5.9-4.9-5.9
			s-4.9,1.6-4.9,5.9V268.7z"/>
		<path fill="#FFFFFF" d="M227.7,236.9c0-9.6,5-15.1,14.3-15.1c9.2,0,14.3,5.5,14.3,15.1v31.2c0,9.6-5.1,15.1-14.3,15.1
			c-9.2,0-14.3-5.5-14.3-15.1V236.9z M237.1,268.7c0,4.3,1.9,5.9,4.9,5.9s4.9-1.6,4.9-5.9v-32.4c0-4.3-1.9-5.9-4.9-5.9
			s-4.9,1.6-4.9,5.9V268.7z"/>
		<path fill="#FFFFFF" d="M196.9,321h-4.2l-0.7-4.8h-5.2l-0.7,4.8h-3.9l4.3-26.7h6.1L196.9,321z M187.3,312.6h4l-2-13.5L187.3,312.6
			z"/>
		<path fill="#FFFFFF" d="M202.6,301.7V321h-3.8v-26.7h5.3l4.3,16v-16h3.7V321h-4.3L202.6,301.7z M208.6,288.9l2,1.4
			c-0.7,1.9-1.9,2.6-3.2,2.6c-1.6,0-2.3-1-3.4-1c-0.7,0-1.2,0.2-1.6,1.1l-2-1.4c0.7-1.9,1.9-2.6,3.2-2.6c1.6,0,2.3,1,3.4,1
			C207.7,290,208.2,289.9,208.6,288.9z"/>
		<path fill="#FFFFFF" d="M214.8,300.7c0-4.3,2.3-6.7,6.4-6.7c4.1,0,6.4,2.4,6.4,6.7v13.9c0,4.3-2.3,6.7-6.4,6.7
			c-4.1,0-6.4-2.4-6.4-6.7V300.7z M219,314.9c0,1.9,0.8,2.6,2.2,2.6s2.2-0.7,2.2-2.6v-14.4c0-1.9-0.8-2.6-2.2-2.6s-2.2,0.7-2.2,2.6
			V314.9z"/>
		<path fill="#FFFFFF" d="M235.9,294c4.1,0,6.2,2.4,6.2,6.7v0.8h-4v-1.1c0-1.9-0.8-2.6-2.1-2.6c-1.3,0-2.1,0.7-2.1,2.6
			c0,5.5,8.2,6.5,8.2,14.2c0,4.3-2.1,6.7-6.3,6.7c-4.1,0-6.3-2.4-6.3-6.7V313h4v1.9c0,1.9,0.8,2.6,2.2,2.6c1.3,0,2.2-0.7,2.2-2.6
			c0-5.5-8.2-6.5-8.2-14.2C229.7,296.5,231.8,294,235.9,294z"/>
	</g>
</g>
</svg>
