<?xml version="1.0" encoding="utf-8"?>
<!-- Generator: Adobe Illustrator 18.0.0, SVG Export Plug-In . SVG Version: 6.00 Build 0)  -->
<!DOCTYPE svg PUBLIC "-//W3C//DTD SVG 1.1//EN" "http://www.w3.org/Graphics/SVG/1.1/DTD/svg11.dtd">
<svg version="1.1" id="Layer_1" xmlns="http://www.w3.org/2000/svg" xmlns:xlink="http://www.w3.org/1999/xlink" x="0px" y="0px"
	 viewBox="0 0 200.6 101.8" enable-background="new 0 0 200.6 101.8" xml:space="preserve">
<g>
	<g>
		<rect x="166" y="69.4" fill="#666666" width="10.8" height="28.6"/>
		<polygon fill="#808080" points="166.5,67.1 175.2,67.1 173.4,27.6 166.5,27.6 		"/>
		<path fill="#666666" d="M167.1,27.6c0,0,2,12,1.6,40h7.5l-1.8-40H167.1z"/>
		<rect x="166.6" y="70.6" fill="#808080" width="17.2" height="3.8"/>
		<rect x="166.2" y="70.6" fill="#808080" width="3.1" height="27.3"/>
		<rect x="26.1" y="69.4" fill="#666666" width="10.8" height="28.6"/>
		<polygon fill="#808080" points="36.4,67.1 27.6,67.1 29.4,27.6 36.4,27.6 		"/>
		<path fill="#666666" d="M35.7,27.6c0,0-2,12-1.6,40h-7.5l1.8-40H35.7z"/>
		<rect x="7" y="33.3" fill="#8C6239" width="186.7" height="6.9"/>
		<rect x="7" y="38.5" fill="#754C24" width="186.7" height="1.5"/>
		<rect x="7" y="41.4" fill="#8C6239" width="186.7" height="6.9"/>
		<rect x="7" y="48.9" fill="#8C6239" width="186.7" height="6.9"/>
		<rect x="0.2" y="66.7" fill="#8C6239" width="200.3" height="3.6"/>
		<rect x="7" y="46.6" fill="#754C24" width="186.7" height="1.5"/>
		<rect x="7" y="54.8" fill="#754C24" width="186.7" height="1.5"/>
		<rect x="0" y="69.2" fill="#754C24" width="200.6" height="1.5"/>
		<rect x="19.1" y="70.6" fill="#808080" width="17.2" height="3.8"/>
		<rect x="33.5" y="70.6" fill="#808080" width="3.1" height="27.3"/>
	</g>
	<g>
		<rect x="174.1" y="42.9" fill="#F7931E" width="2.9" height="1.9"/>
		<rect x="167.1" y="42.9" fill="#F7931E" width="2.9" height="1.9"/>
		<rect x="167.1" y="42.8" fill="#FBB03B" width="9.9" height="1"/>
		<path fill="#181B1A" d="M167.3,66.7h-0.4c-3.8,0-6.8-3.1-6.8-6.8v-8.3c0-3.8,3.1-6.8,6.8-6.8h0.4c3.8,0,6.8,3.1,6.8,6.8v8.3
			C174.2,63.6,171.1,66.7,167.3,66.7z"/>
		<path fill="#885A2F" d="M173.3,66.7h-1.2c-5.9,0-10.7-4.8-10.7-10.7v-0.7c0-5.9,4.8-10.7,10.7-10.7h1.2c5.9,0,10.7,4.8,10.7,10.7
			V56C184,61.9,179.2,66.7,173.3,66.7z"/>
		<path fill="#181B1A" d="M178.6,66.7h-0.4c-3.8,0-6.8-3.1-6.8-6.8v-8.3c0-3.8,3.1-6.8,6.8-6.8h0.4c3.8,0,6.8,3.1,6.8,6.8v8.3
			C185.4,63.6,182.4,66.7,178.6,66.7z"/>
		<path fill="#936E40" d="M178.5,65.4h-0.3c-3.1,0-5.6-2.5-5.6-5.6v-8.3c0-3.1,2.5-5.6,5.6-5.6h0.3c3.1,0,5.6,2.5,5.6,5.6v8.3
			C184.1,62.9,181.6,65.4,178.5,65.4z"/>
		<rect x="179.6" y="44.6" fill="#FBB03B" width="1.8" height="4"/>
		<rect x="179.6" y="62.6" fill="#FBB03B" width="1.8" height="4"/>
		<rect x="180.2" y="44.6" fill="#181B1A" width="0.3" height="22"/>
	</g>
	<g>
		<path fill="#331A0A" d="M118.3,93.1c0,0,0.6,1.7-1.5,4.4s-1,4.1-1,4.1l7.7,0.2c0,0,1.4-2.5-1-3.5c-2.3-1-0.4-4.4-0.4-4.4
			L118.3,93.1z"/>
		<path fill="#331A0A" d="M145.4,93.1c0,0-0.6,1.7,1.5,4.4s1,4.1,1,4.1l-7.7,0.2c0,0-1.4-2.5,1-3.5c2.3-1,0.4-4.4,0.4-4.4
			L145.4,93.1z"/>
		<path fill="#D1AA79" d="M117.7,95.1l4.8,0.4c0,0,11.8-25.7,9.8-33.2c-1.9-7.5-11-1.7-11-1.7s-1.5,1,0,4.2
			C121.4,64.8,116.1,83.3,117.7,95.1z"/>
		<path fill="#D1AA79" d="M128.8,67.7l7.8,2.3c0,0,1.4,11.7,5.2,25.7h4.8c0,0,6.3-37.4-6.5-37.6C127.3,57.8,128.8,67.7,128.8,67.7z"
			/>
		<path opacity="0.2" d="M132.2,68.7c0,0,0.4-5.9-3.9-6.8c-4.2-1-0.4-0.3-0.4-0.3h14.9c0,0-4.6-1-6.2,8.4L132.2,68.7z"/>
		<g>
			<defs>
				<path id="SVGID_1_" d="M144.7,25.9c0,0-4.4-8.1-22.4-3.4c0,0,2.4,2.9,1.4,38.8c0.1-0.5,18.2,0.4,18.2,0
					C142.2,28.6,144.7,25.9,144.7,25.9z"/>
			</defs>
			<clipPath id="SVGID_2_">
				<use xlink:href="#SVGID_1_"  overflow="visible"/>
			</clipPath>
			<g clip-path="url(#SVGID_2_)">
				<rect x="113.8" y="18" fill="#A49ACD" width="5.2" height="7.5"/>
				<rect x="119" y="18" fill="#7E81B3" width="5.2" height="7.5"/>
				<rect x="124.1" y="18" fill="#4C598F" width="5.2" height="7.5"/>
				<rect x="129.2" y="18" fill="#EDE4E2" width="5.2" height="7.5"/>
				<rect x="134.3" y="18" fill="#A49ACD" width="5.2" height="7.5"/>
				<rect x="139.5" y="18" fill="#7E81B3" width="5.2" height="7.5"/>
				<rect x="144.6" y="18" fill="#4C598F" width="5.2" height="7.5"/>
				<rect x="139.5" y="25.4" fill="#EDE4E2" width="5.2" height="7.5"/>
				<rect x="144.6" y="25.4" fill="#A49ACD" width="5.2" height="7.5"/>
				<rect x="113.8" y="25.4" fill="#4C598F" width="5.2" height="7.5"/>
				<rect x="119" y="25.4" fill="#EDE4E2" width="5.2" height="7.5"/>
				<rect x="124.1" y="25.4" fill="#A49ACD" width="5.2" height="7.5"/>
				<rect x="129.2" y="25.4" fill="#7E81B3" width="5.2" height="7.5"/>
				<rect x="134.3" y="25.4" fill="#4C598F" width="5.2" height="7.5"/>
				<rect x="113.8" y="32.9" fill="#A49ACD" width="5.2" height="7.5"/>
				<rect x="119" y="32.9" fill="#7E81B3" width="5.2" height="7.5"/>
				<rect x="124.1" y="32.9" fill="#4C598F" width="5.2" height="7.5"/>
				<rect x="129.2" y="32.9" fill="#EDE4E2" width="5.2" height="7.5"/>
				<rect x="134.3" y="32.9" fill="#A49ACD" width="5.2" height="7.5"/>
				<rect x="139.5" y="32.9" fill="#7E81B3" width="5.2" height="7.5"/>
				<rect x="144.6" y="32.9" fill="#4C598F" width="5.2" height="7.5"/>
				<rect x="139.5" y="40.4" fill="#EDE4E2" width="5.2" height="7.5"/>
				<rect x="144.6" y="40.4" fill="#A49ACD" width="5.2" height="7.5"/>
				<rect x="113.8" y="40.4" fill="#4C598F" width="5.2" height="7.5"/>
				<rect x="119" y="40.4" fill="#EDE4E2" width="5.2" height="7.5"/>
				<rect x="124.1" y="40.4" fill="#A49ACD" width="5.2" height="7.5"/>
				<rect x="129.2" y="40.4" fill="#7E81B3" width="5.2" height="7.5"/>
				<rect x="134.3" y="40.4" fill="#4C598F" width="5.2" height="7.5"/>
				<rect x="113.8" y="47.8" fill="#A49ACD" width="5.2" height="7.5"/>
				<rect x="119" y="47.8" fill="#7E81B3" width="5.2" height="7.5"/>
				<rect x="124.1" y="47.8" fill="#4C598F" width="5.2" height="7.5"/>
				<rect x="129.2" y="47.8" fill="#EDE4E2" width="5.2" height="7.5"/>
				<rect x="134.3" y="47.8" fill="#A49ACD" width="5.2" height="7.5"/>
				<rect x="139.5" y="47.8" fill="#7E81B3" width="5.2" height="7.5"/>
				<rect x="144.6" y="47.8" fill="#4C598F" width="5.2" height="7.5"/>
				<rect x="139.5" y="55.3" fill="#EDE4E2" width="5.2" height="7.5"/>
				<rect x="144.6" y="55.3" fill="#A49ACD" width="5.2" height="7.5"/>
				<rect x="113.8" y="55.3" fill="#4C598F" width="5.2" height="7.5"/>
				<rect x="119" y="55.3" fill="#EDE4E2" width="5.2" height="7.5"/>
				<rect x="124.1" y="55.3" fill="#A49ACD" width="5.2" height="7.5"/>
				<rect x="129.2" y="55.3" fill="#7E81B3" width="5.2" height="7.5"/>
				<rect x="134.3" y="55.3" fill="#4C598F" width="5.2" height="7.5"/>
			</g>
		</g>
		<path fill="#D89F79" d="M126.7,2.9v12.3c0,1.2,1,2.2,2.2,2.2l0,0v4.8c0,0,2.5,4.9,8.5,0v-9.9c0,0,1.8-0.4,1.8-2.5
			s-2.1-1.1-2.1-1.1l0.1-6.6l-8.2-0.9L126.7,2.9z"/>
		<path fill="#4D4D4D" d="M137.2,8.6l-0.3,0.8h-0.8L136,3.5l2.5,2l0,2.9C138.4,8.4,137.5,8.5,137.2,8.6z"/>
		<path fill="#1A1A1A" d="M138.4,5.6l-3.2-0.1c0,0,0.1-3.5-1.9-3.5c-2.1,0-1.4,1.4-3.2,1.4c-1,0-0.8-0.6-2-0.9
			c-0.5-0.1-1.1,0.2-1.2,0.8l-0.4,2.2c0,0-0.7-4.3,1.8-5C130.9-0.2,138.6-1.3,138.4,5.6z"/>
		<path opacity="0.2" d="M142.2,65.1c0,0-5.8-12.6-5.8-21.3s0.2-16.4,0.2-16.4l-3.3-2l-3.6,1.9c0,0,0.4,14.9,0.3,19.5
			S122.9,65,122.9,65l2.3-19.2l2.6-21.6l5,0l5.3,0.4C138.1,24.6,142.5,60.7,142.2,65.1z"/>
		<path fill="#4C598F" d="M137.4,19.3l-4.4,5c0,0,3.7,1,4.8,2.6C137.8,27,139,21.6,137.4,19.3z"/>
		<path fill="#7E81B3" d="M128.6,19.3l4.4,5c0,0-3.7,1-4.8,2.6C128.2,27,126.9,21.6,128.6,19.3z"/>
		<path fill="#D5B883" d="M138.1,20.3c0,0-1.4,20.8-0.6,27.5c0.9,6.7,5.8,17.7,5.8,17.7s-2.9-20.8,5.1-39.8
			C148.5,25.6,142.3,20,138.1,20.3z"/>
		<path fill="#D1AA79" d="M137.6,47.8c0,0,3.6-12.7,4.3-20.3l-1.9-3.3l1.9-0.7l0.3-2.1c0,0-1.7-1.1-4.2-1.1
			C138,20.3,136.6,44.8,137.6,47.8z"/>
		<path fill="#D5B883" d="M128.3,20.3c0,0,1.4,20.8,0.6,27.5c-0.9,6.7-6.5,17.8-6.5,17.8s3-20.3-5.1-39.4
			C117.3,26.2,124.1,20,128.3,20.3z"/>
		<path fill="#D1AA79" d="M128.9,47.8c0,0-3.6-12.7-4.3-20.3l1.7-3.3l-2.2-0.5l-0.1-2.1c0,0,1.8-1.3,4.3-1.3
			C128.3,20.3,129.9,44.8,128.9,47.8z"/>
		<rect x="123" y="57.8" fill="#F9F9EE" width="19.7" height="2.7"/>
		<rect x="138.4" y="57.7" fill="#EE7200" width="1.7" height="2.9"/>
		<path fill="#EE7200" d="M134.9,55.8c0,2.7,3.9,2.1,3.9,2.1l0.5,0C139,56,135,53.2,134.9,55.8z M137.8,57.3c0,0-2.1,0.3-2.1-1.1
			c0-1.4,2.2,0.1,2.3,1.1L137.8,57.3z"/>
		<path fill="#EE7200" d="M138.9,57.9l0.5,0c0,0,3.9,0.6,3.9-2.1C143.2,53.2,139.2,56,138.9,57.9z M140.1,57.3
			c0.1-1,2.3-2.5,2.3-1.1c0,1.4-2.1,1.1-2.1,1.1L140.1,57.3z"/>
		<path fill="#D89F79" d="M118.4,58c4.8,5.5,6.9,3.2,7.4,2.2c0.5-1-3-3-3-3s1.4,0.9,1.7,0.1s-1.2-2-1.2-2s-2.4-2.2-4-0.6
			C117.7,56.3,118.4,58,118.4,58z"/>
		<path fill="#D5B883" d="M122.1,32.4l-9.5,12.9l9.9,8.9l-3.7,4.6l-14.2-13.9c0,0,9.8-17.7,14.4-20.2
			C122.7,22.8,122.1,32.4,122.1,32.4z"/>
		<path fill="#D89F79" d="M148.1,58c-4.8,5.5-6.9,3.2-7.4,2.2c-0.5-1,3-3,3-3s-1.4,0.9-1.7,0.1s1.2-2,1.2-2s2.4-2.2,4-0.6
			S148.1,58,148.1,58z"/>
		<path fill="#D5B883" d="M144.4,32.4l9.5,12.9l-9.9,8.9l3.7,4.6l14.2-13.9c0,0-9.8-17.7-14.4-20.2
			C143.8,22.8,144.4,32.4,144.4,32.4z"/>
	</g>
</g>
</svg>
