<?xml version="1.0" encoding="utf-8"?>
<!-- Generator: Adobe Illustrator 18.0.0, SVG Export Plug-In . SVG Version: 6.00 Build 0)  -->
<!DOCTYPE svg PUBLIC "-//W3C//DTD SVG 1.1//EN" "http://www.w3.org/Graphics/SVG/1.1/DTD/svg11.dtd">
<svg version="1.1" id="Layer_1" xmlns="http://www.w3.org/2000/svg" xmlns:xlink="http://www.w3.org/1999/xlink" x="0px" y="0px"
	 viewBox="0 0 474.7 787.4" enable-background="new 0 0 474.7 787.4" xml:space="preserve">
<g>
	<path fill="#FFFFFF" d="M431.6,752.7h-26c0,0-10.1,32.7,23.6,34.7h43.8c0,0,9.6-20.7-16.4-22.1C456.6,765.2,434,761.4,431.6,752.7z
		"/>
	<path fill="#FFFFFF" d="M43.1,738.9h26c0,0,10.1,32.7-23.6,34.7H1.7c0,0-9.6-20.7,16.4-22.1C18.1,751.4,40.7,747.6,43.1,738.9z"/>
	<polygon fill="#D1D3D4" points="238.5,505 402.7,764.8 439.4,756.7 278.7,392.2 171.9,407.4 35.3,741.8 67.4,759 	"/>
	<polygon fill="#FFFFFF" points="168.5,388.8 171.9,407.4 278.7,392.2 275.2,367.7 	"/>
	<path fill="#E6E7E8" d="M168.5,388.8l106.8-21L294.2,220l-106.8-45.6C187.4,174.3,153,319.9,168.5,388.8z"/>
	<path fill="#F9DA00" d="M217.3,215.8l-48.8-8.5l-31,36.7l31-44.2l-35-75l-12.1-82.3l27-5.2l33.3,91.4l25.3,36.3l42.7,9.2
		C249.6,174.3,232.8,214.5,217.3,215.8z"/>
	<path fill="#B97800" d="M137.5,244.1l-13.8,88.4l26.4-19.5l14.4,5.2c0,0,10.5-84.4,15.6-108.8l-11.6-2L137.5,244.1z"/>
	<polygon fill="#BE1E2D" points="264.4,394.2 433.8,756.3 439.4,756.7 299.7,437.6 275.8,392.6 	"/>
	<path fill="#F9BD91" d="M324.2,149.3l-34.5,66.3l-10.1-5.2l-11.3,21.8c0,0-22.9,16.4-39-20.3l23.6-45.3c0,0-7.5-6-2.5-15.7
		c5-9.7,12.3,0,12.3,0l13.7-26.4L324.2,149.3z"/>
	<path fill="#F9BD91" d="M121.6,39.3c-13.5-35,2-39.2,7.8-38.8c5.8,0.4,6.4,21,6.4,21s-1-8.6,3.5-8.2c4.5,0.4,6.1,10.4,6.1,10.4
		s4.1,16.2-6.8,19.7C127.7,46.8,121.6,39.3,121.6,39.3z"/>
	<polygon fill="#F9BD91" points="171.1,267.1 217.3,215.8 178.8,208.8 	"/>
	<path fill="#F9BD91" d="M229.3,211.9c0,0-19.2,59.8-4,71.2c15.2,11.5,23.4-35,23.4-35l22.2-20.9l11.1-10.5l-5.3-4.9H229.3z"/>
	<path fill="#F9DA00" d="M299.9,440.2c0,0-67.4-111.7-51.2-192.1l31-37.8l58.8,35.7l14.2,100.2l35.6,81.5l-14.9,28.1l-56.2-76.4
		l-12.7-60.3l-6.9,76.9L299.9,440.2z"/>
	<path fill="#F9BD91" d="M395.3,432.8c18.7,32.5,4.1,39-1.7,39.5c-5.8,0.5-9.5-19.8-9.5-19.8s2.3,8.3-2.2,8.6
		c-4.5,0.3-7.6-9.3-7.6-9.3s-6.5-15.4,3.7-20.5S395.3,432.8,395.3,432.8z"/>
	<path fill="#181018" d="M262.6,150.8L260,158l5.5,1.7l5.5-10h6.9l6.9-15.5c0,0,18.5,26.5,39.5,15.1c0,0-2.2-15.1-21.1-23.2
		s-29.3-4.9-32.7-2.9L257.8,147C257.8,147,260.1,148,262.6,150.8z"/>
	<polygon fill="#181018" points="293,182.4 274.1,180.1 267.5,185.8 291,187.8 297.3,195.3 298.8,190.4 	"/>
	<g>
		
			<rect x="387.7" y="374" transform="matrix(0.9964 8.441532e-02 -8.441532e-02 0.9964 35.5989 -32.06)" fill="#231F20" width="18.4" height="62"/>
		<circle fill="#231F20" cx="399.6" cy="373.5" r="16.7"/>
		
			<rect x="375.8" y="428.6" transform="matrix(0.9964 8.441532e-02 -8.441532e-02 0.9964 52.9107 -29.7573)" fill="#231F20" width="5.1" height="364.3"/>
	</g>
	<path fill="#D8BA07" d="M266.2,269.4l-41.5,3.6c-0.4,0-0.7-0.3-0.8-0.6l-0.6-6.8c0-0.4,0.3-0.7,0.6-0.8l41.5-3.6
		c0.4,0,0.7,0.3,0.8,0.6l0.6,6.8C266.9,269,266.6,269.3,266.2,269.4z"/>
	<path fill="#D8BA07" d="M266.3,308.5l-40.9,7.9c-0.4,0.1-0.8-0.2-0.8-0.6l-1.3-6.7c-0.1-0.4,0.2-0.8,0.6-0.8l40.9-7.9
		c0.4-0.1,0.8,0.2,0.8,0.6l1.3,6.7C267,308.1,266.7,308.5,266.3,308.5z"/>
	<path fill="#D8BA07" d="M274.3,341.6L235,355.3c-0.4,0.1-0.8-0.1-0.9-0.4l-2.3-6.5c-0.1-0.4,0.1-0.8,0.4-0.9l39.3-13.7
		c0.4-0.1,0.8,0.1,0.9,0.4l2.3,6.5C274.9,341.1,274.7,341.5,274.3,341.6z"/>
	<path fill="#D8BA07" d="M286.9,374.1l-37.7,17.8c-0.4,0.2-0.8,0-0.9-0.3l-2.9-6.2c-0.2-0.4,0-0.8,0.3-0.9l37.7-17.8
		c0.4-0.2,0.8,0,0.9,0.3l2.9,6.2C287.4,373.5,287.3,374,286.9,374.1z"/>
</g>
</svg>
