<?xml version="1.0" encoding="utf-8"?>
<!-- Generator: Adobe Illustrator 18.0.0, SVG Export Plug-In . SVG Version: 6.00 Build 0)  -->
<!DOCTYPE svg PUBLIC "-//W3C//DTD SVG 1.1//EN" "http://www.w3.org/Graphics/SVG/1.1/DTD/svg11.dtd">
<svg version="1.1" id="Layer_1" xmlns="http://www.w3.org/2000/svg" xmlns:xlink="http://www.w3.org/1999/xlink" x="0px" y="0px"
	 viewBox="0 0 364.6 173.3" enable-background="new 0 0 364.6 173.3" xml:space="preserve">
<g>
	<path fill="#E7DE16" d="M294.7,101c0,0-14.4-11.9-23.6,0.6c0,0-21.3-6.9-24.8,8c0,0-21.8,2.1-12,21.7c0,0-6.7,16.8,9.2,17.9
		c0,0-1,18.1,23,14.7c0,0,13.7,10.8,34.4,0.9c0,0,22,8,36.8-4.9c0,0,17.6,2.1,19.8-14.4c0,0,13.2-12.2,3.5-22.2
		c0,0,3.3-17.1-13-16.5c0,0-11.4-9.9-24.4-2.8C323.6,104,314.5,87.2,294.7,101z"/>
	<path fill="#8B6339" d="M287.9,88c-0.6,0-15.8-2.5-14.7-12.2c1.1-9.7,1.2-33.4-15.2-32.7c-14.3,0.6-10.7,7-8.6,6.7
		s12.8-3.8,16.9,1.1c2.9,3.6,5.3,9.9,3.4,23.6s17.7,17.1,17.7,17.1L287.9,88z"/>
	<path fill="#2E368E" d="M276.6,127.8c0,0-8.1,1.1-8.1,4.4c0,3.4,15.6,0.4,15.6-1.7s-0.9-4.8-0.9-4.8L276.6,127.8z"/>
	<path fill="#D89F79" d="M276.3,127.8c0,0,3.8,5.1,7.3,0.2C283.6,128,282.2,123.2,276.3,127.8z"/>
	<path fill="#2E368E" d="M324.8,127.8c0,0,8.1,1.1,8.1,4.4c0,3.4-15.6,0.4-15.6-1.7s0.9-4.8,0.9-4.8L324.8,127.8z"/>
	<path fill="#D89F79" d="M325.2,127.8c0,0-3.8,5.1-7.3,0.2C317.9,128,319.3,123.2,325.2,127.8z"/>
	
		<rect x="296.9" y="18.6" transform="matrix(0.6638 -0.7479 0.7479 0.6638 54.9566 244.1923)" fill="#E02126" width="4.4" height="84.7"/>
	<path fill="#D89F79" d="M249.5,60c0,0-5.5-5.7-8.2,0.2s3.2,10.7,9.3,5.1L249.5,60z"/>
	<path fill="#D89F79" d="M340.8,54.5c0,0,6.1-5.9,9.5,0.2s-2.1,9.5-8.4,5.5L340.8,54.5z"/>
	<path fill="#D89F79" d="M284.5,50.3c0,0-19.4,8.2-35.2,8.8l1.5,6.7c0,0,21.3,3.4,33.9-4.2L284.5,50.3z"/>
	<path fill="#D89F79" d="M308.7,50.8c0,0,18.4,4.1,33.4,3.7l0.2,5.7c0,0-18.5,5.5-33.5-0.2L308.7,50.8z"/>
	<path fill="#4A5A80" d="M280.7,92.1c0,0-17.8,6.6-5.7,35.5l8.5,0.4c0,0-0.2-20.7,13-21c13.2-0.3,22,5.8,20.3,20.8h8.1
		c0,0,18.5-30.1-8.4-38.2L280.7,92.1z"/>
	<path fill="#4A5A80" d="M289.6,49.8h-5.1c0,0-7.6,20.2-3.4,38.1c0,0,18.5,7.4,35.7-1.9c0,0,2-23.8-8.1-35.6L289.6,49.8z"/>
	<path fill="#D89F79" d="M312.8,15.5v21.8c0,9.3-6.5,9.1-9.2,9.1l0,0v15.2c0,0-7.3-5.1-14.3-11.5l-0.2-9.9c0,0-4-0.8-4-5.5
		s4.8-4.3,4.8-4.3l-3.2-10.9L312.8,15.5z"/>
	<path fill="#262430" d="M312.9,31l8.8-8.7l-4,0.4c0,0,2.7-5.4,10.2-7.2c0,0-6.2-2.7-12.2-0.9c0,0,3-5.7,9.2-7.7c0,0-8.8-6.4-17.2,1
		c0,0,0.7-4.1,8.1-7.7c0,0-8.8-3-15.3,7.9c0,0-11.3-2.4-14.7,8.4c0,0-9.4-3.1-14.6,1.4l7.7,4.7l-14.3-0.3c0,0,6.4,6.2,15.2,9.6
		l-8.8,0.4c0,0,9.5,4.6,15.3,5.9c0,0-1.7-5.1,1.9-6.9c1.7-0.9,5.1,2.3,5.1,2.3l-1.6-3.8l2.4,1c0,0-3.7-4.4-4.7-7.4
		c0,0,4.4,3.4,6.8,4.5c0,0-2.7-5.1-2.7-9.9c0,0,8.5,4.7,9.9,8.5c0,0,0.4-6.5-1.1-9.4c0,0,4.7-0.4,5.5,10.1c0,0,2-3.3,2-9.4
		C309.7,18.1,312.4,20.8,312.9,31z"/>
	<path fill="#D89F79" d="M289,50.6"/>
	<path fill="#FFFFFF" d="M282,89.1v3.4c0,0,21,7.3,35-2.8v-3.9C317,85.7,304,95,282,89.1z"/>
	<path fill="#FFFFFF" d="M301.1,93c0,0,0,9.6-4.2,11s-7.6-3.9-7.6-3.9l7.9-7.6L301.1,93z"/>
	<path fill="#FFFFFF" d="M304.4,91.3c0,0,0,9.6,4.2,11c4.2,1.4,7.6-3.9,7.6-3.9l-7.9-7.6L304.4,91.3z"/>
	<path fill="#929091" d="M287,49.8c0,0,11,24,30,25.2v2.2c0,0-20.6-2.4-31.2-27.4H287z"/>
	<polygon fill="#E13F26" points="334.9,54.8 335.7,62.9 342.2,61.1 342,54.8 	"/>
	<polygon fill="#E13F26" points="256.1,58.1 256.7,67.3 249.4,66.3 248.5,59.3 	"/>
	<path fill="#D89F79" d="M281,63.6c0,0,8.6-5.3,3.5-13.3l-3.9,4.8L281,63.6z"/>
	<path fill="#E7DE16" d="M241.8,173.3c-3.4-2.2-184.3-3.4-184.3-3.4l183.2-3.4L241.8,173.3z"/>
	<path fill="#E7DE16" d="M228.3,97.5C224.9,95.2,44,94.1,44,94.1l183.2-3.4L228.3,97.5z"/>
	<path fill="#E7DE16" d="M189.6,119.4C186.2,117.1,5.3,116,5.3,116l183.2-3.4L189.6,119.4z"/>
	<path fill="#E7DE16" d="M221.6,144.7c-3.4-2.2-184.3-3.4-184.3-3.4l183.2-3.4L221.6,144.7z"/>
</g>
</svg>
