<?xml version="1.0" encoding="utf-8"?>
<!-- Generator: Adobe Illustrator 18.0.0, SVG Export Plug-In . SVG Version: 6.00 Build 0)  -->
<!DOCTYPE svg PUBLIC "-//W3C//DTD SVG 1.1//EN" "http://www.w3.org/Graphics/SVG/1.1/DTD/svg11.dtd">
<svg version="1.1" id="Layer_1" xmlns="http://www.w3.org/2000/svg" xmlns:xlink="http://www.w3.org/1999/xlink" x="0px" y="0px"
	 viewBox="0 0 152.5 228.3" enable-background="new 0 0 152.5 228.3" xml:space="preserve">
<rect x="34.3" y="134.5" fill="#333333" width="6" height="91.5"/>
<rect x="46.3" y="121.5" fill="#333333" width="6" height="91.5"/>
<rect x="71.8" y="134.5" fill="#333333" width="6" height="91.5"/>
<rect x="79.8" y="122" fill="#333333" width="6" height="91.5"/>
<rect x="20.8" y="132.5" fill="#1A1A1A" width="60" height="11.5"/>
<path fill="#0071BC" d="M48.3,137.5c0,0,21.5,22.5,32.5,23.5s5.5-17.5-6-38.5C74.8,122.5,48.8,129,48.3,137.5z"/>
<path fill="#0071BC" d="M51.8,135.5c0.7,1.4-25.5,22.5-35.5,16s-5.5-7.5,1-17.5S37.3,107.5,51.8,135.5z"/>
<path fill="#0071BC" d="M29.6,120.3c0,0-0.2,17,19,19.7s26.2-18.3,26.2-18.3L29.6,120.3z"/>
<path fill="#817455" d="M68,47.5c0,0,16.5,26.8,17.6,41.2S90,127.4,97.3,138c0,0-24.9-9.2-29-19.5L66,52.9L68,47.5z"/>
<path fill="#817455" d="M50.3,52.5c0,0-15.5,0.6-22.1,7.1c-13.2,13.1-18,44.2-10.5,48.2s13.2-6.1,13.2-6.1S11.8,137,11.8,145
	c0,0,12.5-21.5,17.5-20.5S55.3,65,50.3,52.5z"/>
<polygon fill="#736357" points="34.8,69.2 32.7,80.9 31.8,80.4 33.7,72.5 32,66.1 33.9,70.2 35.3,66.1 "/>
<path fill="#B29462" d="M45.6,39c0,0,3.2,7.5-2.8,12c0,0,4-1,7-5.5l3.4,7.9L58.8,42L45.6,39z"/>
<path fill="#D0DCD9" d="M68.3,50.5c0,0-10,44.5-4,72l-28-2c0,0,9.5-31,9.5-42s8.4-26.1,8.4-26.1L68.3,50.5z"/>
<path fill="#F9BD91" d="M50.6,10l-5,28.9c-0.3,2.6,7,5.4,9.5,6.1l-0.3,0.5l-1.7,7.9c0,0,3.5,10,13.1,1.2l2.7-18.5
	c0,0,3.7-0.3,4.2-4.4c0.5-4.1-3.9-2.7-3.9-2.7l1.7-14.8L50.6,10z"/>
<path fill="#C5C7CE" d="M53.8,48c0,0-8.5,7.5-16.5,9.5c0,0,2.5,2.5,7.5,3c0,0-2.5,8.5-4,21.5s-7.5,35.5-11.5,42.5s8.5,12.5,8.5,12.5
	s-4-12-1.5-15.5S46.8,84,47.3,76S58.3,51,53.8,48z"/>
<path fill="#C5C7CE" d="M66.2,54.6c0,0,4.6,24.9,9.1,32.4s-7.7,28.1-6.5,37.5c1.3,9.9-3.3,0.1-6-0.5C62.8,124,57.1,82.3,66.2,54.6z"
	/>
<path fill="#B29462" d="M56.8,13c0,0,15.5,3,5,31.5l3-2l-1,6c0,0,2-0.5,3.5-3c0,0,0,5.5-3.5,7.5c0,0,3,1,5.5-2.5c0,0-1.5,3,3.5,5.5
	c0,0-2.5-3,0.5-8c0,0,0.5,5,6.5,6.5c0,0-5-3.5-2-14.5S82.3-5.5,56.8,13z"/>
<path fill="#B29462" d="M56.8,13c0,0-6-4-8,7s-3,24-6,26.5c0,0,2.5-4,0.5-14.5s4-28,11-27s8.5,6.5,8.5,6.5L56.8,13z"/>
<g>
	
		<rect x="1.7" y="74.6" transform="matrix(0.3926 -0.9197 0.9197 0.3926 -64.7673 51.6658)" fill="#673D22" width="10" height="0.5"/>
	<rect x="4.7" y="75.9" transform="matrix(0.3926 -0.9197 0.9197 0.3926 -64.14 55.1076)" fill="#673D22" width="10" height="0.5"/>
	
		<rect x="7.6" y="77.1" transform="matrix(0.3926 -0.9197 0.9197 0.3926 -63.5055 58.589)" fill="#673D22" width="10" height="0.5"/>
	<path fill="#ECC400" d="M78.9,88.7c-3.4,0.7-6.8-0.2-9.3-2.6c-1.1-1-2.3-1.9-3.5-2.4c-6.1-2.6-12.5-1.1-17,9.4
		c-4.4,10.2-0.9,15.8,5.1,18.4c1.2,0.5,2.8,0.8,4.4,0.9c3.4,0.2,6.5,2.1,8.3,5.1c2.6,4.2,6,7.7,9.5,9.2c8.2,3.5,16.8,1.5,22.9-12.7
		c5.9-13.8,1.3-21.3-6.9-24.7C88.9,87.8,83.8,87.7,78.9,88.7z"/>
	
		<rect x="73.6" y="106.2" transform="matrix(0.3926 -0.9197 0.9197 0.3926 -48.2124 142.4975)" fill="#673D22" width="20.4" height="3.1"/>
	<circle fill="#754C24" cx="65.8" cy="99.9" r="6.1"/>
	
		<rect x="36.5" y="63.8" transform="matrix(0.3926 -0.9197 0.9197 0.3926 -57.7168 90.3497)" fill="#754C24" width="6" height="50.1"/>
	<path fill="#ECC400" d="M2.5,69.5C0.9,71,0,73.2,0,75.5l0.1,1.3l14.6,5.5l2.9-6.8l-14-7L2.5,69.5z M13.9,79.1l-0.8,1.8L3.9,77
		l0.8-1.8L13.9,79.1z M15.5,75.4l-0.8,1.8l-9.2-3.9l0.8-1.8L15.5,75.4z"/>
	
		<rect x="13.3" y="78.6" transform="matrix(0.3926 -0.9197 0.9197 0.3926 -62.7196 62.9011)" fill="#C69C6D" width="5.9" height="0.7"/>
	<circle fill="#F7931E" cx="65.8" cy="99.9" r="5.1"/>
	<circle fill="#333333" cx="65.8" cy="99.9" r="3.5"/>
</g>
<path fill="#F9BD91" d="M21.2,89.2c0,0,1.6-1.2,0.1-5.2c0,0,4-6.5,6.5-5.5c1.1,0.5,0,2,0,2s1.3-1.4,2-1c0.7,0.4,0.1,2.1,0.1,2.1
	s1.2-1.6,2.3-1.1c1.1,0.5-0.1,2-0.1,2s2.3-2.3,2.2,0.9c0,0-0.4,4.6-3.9,5.8L29,92.1C29,92.1,25.6,92.7,21.2,89.2z"/>
<path fill="#F9BD91" d="M21.8,78l2.5,1.2C24.3,79.2,24.6,75.5,21.8,78z"/>
<path fill="#534741" d="M21.2,89.2c0,0-1.7-1.8,0.7-1.4L21.2,89.2z"/>
<path fill="#534741" d="M29,92.1c0,0,2.3,0.3,0.8-1.5L29,92.1z"/>
<polygon fill="#736357" points="20.7,88.1 17.2,96.4 17.7,93 15.8,93 "/>
<polygon fill="#736357" points="30.2,102.9 30.3,91.5 31.7,92.6 "/>
<path fill="#F9BD91" d="M73.1,93.9c-0.3-0.2-3.5,0.9-5.5,4.2c-2,3.3,0.7,1.6,0.7,1.6s-1.2,3-3.2,1.3c-2-1.7-2,1.5-0.2,2.3
	c0,0-2.7,0.4-0.3,2.1c0,0-1.6,1.8,1,1.2c0,0-0.8,2.4,2.2,0.6c2.9-1.8,4.3-2.5,7.6-7.3C75.4,99.7,77.6,96.6,73.1,93.9z"/>
<path fill="#817455" d="M67.8,53c0,0,32.7,8.8,34.9,22.9c3.6,23.1-29,26.1-29,26.1s-3.6-4.8-1.4-8.1c0,0,23.2-10.6,12.5-14.9
	c-9.7-3.8-11-5.5-11-5.5L67.8,53z"/>
<path fill="#0071BC" d="M11.3,148.5L40.8,185l5.5-10l-14-29C32.3,146,15.3,142.5,11.3,148.5z"/>
<path fill="#0071BC" d="M86.3,158.5L56.8,195l-5.5-10l17-38.5C68.3,146.5,82.3,152.5,86.3,158.5z"/>
<path fill="#0D0A13" d="M40.8,185l-3,17.5c0,0,16.5-13.5,8.5-27.5C46.3,175,39.8,186,40.8,185z"/>
<path fill="#0D0A13" d="M51.3,185c0,0-8.5,15,3,28.5l2.5-18.5L51.3,185z"/>
<g>
	<rect x="93.9" y="96.6" fill="#333333" width="4.8" height="50.1"/>
	<rect x="122.9" y="152.6" fill="#333333" width="4.3" height="73.6"/>
	
		<rect x="103.8" y="118.2" transform="matrix(0.6329 -0.7743 0.7743 0.6329 -71.9485 134.8022)" fill="#333333" width="4.8" height="50.1"/>
	<rect x="67.2" y="88.8" fill="#333333" width="36.2" height="5.5"/>
	<rect x="70.1" y="88.8" fill="#1A1A1A" width="5.1" height="5.4"/>
	<circle fill="#333333" cx="65.6" cy="91.9" r="6.6"/>
	<rect x="80.6" y="87.9" fill="#1A1A1A" width="12.5" height="2.1"/>
	<rect x="94.8" y="87.2" fill="#1A1A1A" width="3.1" height="9.5"/>
	<rect x="92.5" y="95.8" fill="#4D4D4D" width="7.6" height="2.7"/>
	<rect x="99" y="224.3" fill="#333333" width="53.4" height="4"/>
	<rect x="120.6" y="220.6" fill="#1A1A1A" width="9.1" height="3.7"/>
	<rect x="122.3" y="154.4" fill="#1A1A1A" width="5.7" height="7.3"/>
	<rect x="92.6" y="128.4" fill="#1A1A1A" width="7.5" height="12.2"/>
</g>
</svg>
