<?xml version="1.0" encoding="utf-8"?>
<!-- Generator: Adobe Illustrator 19.0.0, SVG Export Plug-In . SVG Version: 6.00 Build 0)  -->
<!DOCTYPE svg PUBLIC "-//W3C//DTD SVG 1.1//EN" "http://www.w3.org/Graphics/SVG/1.1/DTD/svg11.dtd">
<svg version="1.1" id="Layer_1" xmlns="http://www.w3.org/2000/svg" xmlns:xlink="http://www.w3.org/1999/xlink" x="0px" y="0px"
	 viewBox="0 0 249.4 560" style="enable-background:new 0 0 249.4 560;" xml:space="preserve">
<style type="text/css">
	.st0{fill:url(#XMLID_89_);}
	.st1{fill:#F9BD91;}
	.st2{fill:#1B1D18;}
	.st3{fill:#859CD2;}
	.st4{fill:#EAEEEF;}
	.st5{fill:#5C5D4F;}
	.st6{fill:#E6E7E8;}
	.st7{fill:#231F20;}
	.st8{fill:#F5EC8F;}
</style>
<g id="XMLID_48_">
	<linearGradient id="XMLID_89_" gradientUnits="userSpaceOnUse" x1="124.7246" y1="560" x2="124.7246" y2="-1.134140e-09">
		<stop  offset="0" style="stop-color:#2484C6;stop-opacity:0"/>
		<stop  offset="0.1961" style="stop-color:#63A39A;stop-opacity:0.2058"/>
		<stop  offset="0.3862" style="stop-color:#99BD75;stop-opacity:0.4053"/>
		<stop  offset="0.562" style="stop-color:#C2D258;stop-opacity:0.5899"/>
		<stop  offset="0.7204" style="stop-color:#E0E143;stop-opacity:0.7562"/>
		<stop  offset="0.8559" style="stop-color:#F3EA37;stop-opacity:0.8984"/>
		<stop  offset="0.9527" style="stop-color:#F9ED32"/>
	</linearGradient>
	<polygon id="XMLID_22_" class="st0" points="70.9,0 0,560 249.4,560 150,0 	"/>
	<g id="XMLID_2_">
		<path id="XMLID_21_" class="st1" d="M68.6,397.8c-19,4.2-16.4,12.1-14.5,14.5s10.9-3.2,10.9-3.2s-4,2-2.5,3.9
			c1.4,1.8,6.2-0.3,6.2-0.3s8.2-2.9,6.5-8.6C73.6,398.3,68.6,397.8,68.6,397.8z"/>
		<path id="XMLID_20_" class="st2" d="M132.2,523.2l4.8-8.6c0,0,12.7,2.7,7.2,14.2l-7.2,20.9c0,0-9.5-7-5.2-15.9
			C131.7,533.8,134.6,525.6,132.2,523.2z"/>
		<path id="XMLID_19_" class="st1" d="M99,303l-3.9,27.2l4.4,0.6l-1.4,9.4c0,0,3.5,10.3,16.9,2.4l2.8-19.6c0,0,3.7-0.2,4.3-4.4
			s-3.9-2.8-3.9-2.8l1.4-9.4L99,303z"/>
		<path id="XMLID_18_" class="st1" d="M134.1,284c2-23.1-8.1-23.2-11.5-22s-0.2,13.6-0.2,13.6s-0.9-5.3-3.5-4.4s-1.9,7.2-1.9,7.2
			s0.4,10.4,7.6,10.7C131.7,289.5,134.1,284,134.1,284z"/>
		<polygon id="XMLID_17_" class="st3" points="127.4,326.9 82.4,349.5 77.8,359.3 77.8,377.3 84,378.6 86.8,412.7 130.5,403.5 
			145.1,330.8 135.1,332.6 		"/>
		<polygon id="XMLID_16_" class="st4" points="125.6,326.9 134.6,334.1 146.7,330.5 149.3,319.5 136.4,319.5 129.7,314.8 		"/>
		<path id="XMLID_15_" class="st2" d="M86.8,412.7l-10.3,39.3l33.2,6.7v-5.9l3.6,4.4c0,0,18.5-12.6,18.8-13.4
			c0.3-0.8,1.5-6.2,1.5-6.2s4.9,10.8,4.9,10s2.8-29.7,2.8-29.7l-10.8-14.5L86.8,412.7z"/>
		<circle id="XMLID_14_" class="st5" cx="131.3" cy="261.6" r="18"/>
		<circle id="XMLID_13_" class="st6" cx="135.4" cy="270.6" r="7.9"/>
		<circle id="XMLID_12_" class="st6" cx="125.6" cy="253.7" r="7.9"/>
		<polygon id="XMLID_11_" class="st1" points="131.3,315.9 133.6,304.5 122.2,289.1 133.6,284.8 149.3,298.9 148,319.5 135.7,320.5 
					"/>
		<path id="XMLID_10_" class="st6" d="M147.5,493.6l11.6-3.5l31-30.9l-7.4-6.5l-37.4,15.8C145.1,468.5,139,489.7,147.5,493.6z"/>
		<path id="XMLID_9_" class="st1" d="M113.3,457.2l18.8,34.4c0,0,15.9,6.2,19.5-3.3l-12.8-43.8l-5.2-8.4l-1.5,7.7L113.3,457.2z"/>
		<polygon id="XMLID_8_" class="st6" points="93.7,503.5 95,507.8 132.4,522.2 137.9,515 109.7,489.1 99.7,489.1 		"/>
		<path id="XMLID_7_" class="st1" d="M109.7,458.7l-7.7,33.4c0,0,3.2,8.5-6.9,13.1l-17.3-6.2c0,0-0.4-32.7,2.4-46.3L109.7,458.7z"/>
		<path id="XMLID_6_" class="st7" d="M126.8,321.6c0,1.7-0.8,3.4-1.9,4.8c-2.5,3.4-6.9,6.1-10.9,4.6c1.3,0.2,2.6-0.6,3-1.9
			c-0.5-0.2-1.1-0.3-1.7-0.2c1.6-0.9,2.4-3.1,1.6-4.9c-0.3-0.8-0.9-1.4-1.4-2.1c-1.7-2.4-2.2-5.6-1.4-8.5c0.1,1.1-0.8,2-1.9,2.3
			s-2.1,0-3.2-0.3c1.7-0.5,2.3-3.2,1-4.4c-0.9,2.8-4.5,4.4-7.2,3.3c1.6-0.4,2.4-2.7,1.5-4c0.3,1.4-0.8,2.8-2.2,3.3
			c-1.4,0.5-2.9,0.3-4.3,0.1c1.8,0.2,3-2.7,1.5-3.8c0.3,1.8-1.8,3.4-3.6,3.2s-3.4-1.4-4.7-2.8c0.7,1.8,3.9,1.7,4.5-0.2
			c0.7-2-1.5-4.1-1.2-6.3c0.2-1.2,1.1-2.1,2-2.8c2.4-1.9,5.4-3.1,8.5-3.3c0.8-0.1,1.7,0,2.4,0.3c0.6,0.3,1.1,0.8,1.7,1.1
			c2,1.2,5,0.1,6.7,1.7c0.4,0.3,0.7,0.8,1.1,0.9c0.5,0.1,0.9-0.1,1.4-0.3c2.8-0.9,6,2,5.5,4.8c1.4,0.8,1.9,2.9,1,4.3
			c0.9-0.8,2.4-0.1,2.8,0.9c0.5,1,0.2,2.3-0.2,3.4c-0.4,1.1-0.9,2.1-1,3.3C126.4,319.5,126.8,320.5,126.8,321.6z"/>
		<path id="XMLID_5_" class="st2" d="M190,459.2l-7.4-6.5c0,0,5.2-11.9,15.4-4.1l12.5,10.9c0,0-2.4,8.3-10.2,2.3
			C200.3,461.8,192.9,457.3,190,459.2z"/>
		<path id="XMLID_4_" class="st1" d="M72.8,407.3c0,0,13.7,2,13.6,0.8c-0.1-1.2-2.4-29.5-2.4-29.5l-6.2-1.3v14.2l0,3.7l-2.4,2.7
			l-6,0.2C69.4,398,63.3,406.2,72.8,407.3z"/>
		<polygon id="XMLID_3_" class="st8" points="111.5,338.3 121.4,335.2 120.4,344.6 112.3,346.6 		"/>
	</g>
</g>
</svg>
