<?xml version="1.0" encoding="utf-8"?>
<!-- Generator: Adobe Illustrator 18.0.0, SVG Export Plug-In . SVG Version: 6.00 Build 0)  -->
<!DOCTYPE svg PUBLIC "-//W3C//DTD SVG 1.1//EN" "http://www.w3.org/Graphics/SVG/1.1/DTD/svg11.dtd">
<svg version="1.1" id="Layer_1" xmlns="http://www.w3.org/2000/svg" xmlns:xlink="http://www.w3.org/1999/xlink" x="0px" y="0px"
	 viewBox="0 0 575 229.3" enable-background="new 0 0 575 229.3" xml:space="preserve">
<path fill="#F9BD91" d="M128,67.4c0.5,0,9.7,12.5,9.9,13.4s2.7,7.8,2.7,7.8l7.6-2.2L144,74.1l-7.4-12.2L128,67.4z"/>
<path fill="#CD2E40" d="M147.2,83.5l7.9,19.1l-4.3,2c0,0-6.5-6-10.3-16C140.6,88.5,142.5,84.3,147.2,83.5z"/>
<path fill="#8B8C8C" d="M258.8,75.9c0.8,0,4.7,3,4.7,3s-0.8,3.4-0.8,3.5s4.7,1.4,5.2,1.6c0.5,0.3,2.3,4.4,2.3,4.4l-2.7,3.2
	c0,0-4.2,5.4-4.8,6.2c-0.6,0.8-5.1,4.7-3.9,5.1s7.2,4.5,8.1,8.7s-1.9,9.6-1.8,11.1c0.1,1.5-7.1,4.8-7.1,4.8s0.5,4.4,0.5,5.3
	s-3.2,7.5-3.2,7.5l7.4,4.8c0,0,2.3,5.9,2.8,5.4s4.4-4,4.6-1.5c0.1,2.5,0.8,8.7,1.1,9.7c0.4,1,2.5-2.4,2.5-2.4s-0.8-4.4-0.5-5
	c0.3-0.7-1.9-4.7-2.7-5.2c-0.8-0.5-5.3-1-5.1-2.1c0.3-1.1,1.6-5,2.2-5.5s6.6-8.9,6.6-8.9s0.4-12.1,0.9-13.2s5.2-14.5,5.2-14.5
	l5.4-6.1l14.3-6.9l9.2,2.5l-3.2-3.6l6.5-1.9l4.1-4.3c0,0-2.9-3.2-2.7-3.9c0.3-0.8,1.4-2.5,1.4-2.5l4.2,1.3l3.3,6
	c0,0-3.5,25.8-4.4,28.7c-0.9,2.9-30.1,51.1-30.4,53.6s-12.9,15.4-14.7,15.8c-1.8,0.4-8.6,5.5-14.7-1s-18.2-41.1-17.7-42
	c0.5-0.8-3.3-28.4-2.9-28.8s7.2-27.5,7.2-27.5L258.8,75.9"/>
<path fill="#7C7C7C" d="M318.2,85.3c-4,3-9.2,6.4-10.9,6.8c-2.9,0.7-10.3,1.9-10.3,1.9s-15.5,7.2-16.2,9.6
	c-0.7,2.4-3.7,17.5-3.7,17.5l-4.1,12.8c0,0-3.4,6.2-4.4,6.5c-1,0.4,5.7,2.1,5.7,2.1l2.7,10.9l-7.8,7.3l-2-10.1c0,0-6.1-2.8-7.4-5.4
	c-1.4-2.6-6.1-2.8-6.8-3c-0.7-0.2,5.1-9.3,5.1-9.3l-5.1-5.3c0,0,9.5-5.8,11.1-7.8c1.7-2,0-5.8-6.4-13.4c-6.4-7.7,0.3-3.1,5.3-10.8
	c2.6-4,3.4-7.2,3.2-10.2H26v130h527v-130H318.2z M114.4,122.9c-0.7,2.5-3,5.3-4.4,20.2c-1.4,14.9,0,0,2.7,6.4c2.7,6.4-1,2.7-2.4,8.1
	c-1.4,5.4-0.3,1.7-2.7,7.8c-2.4,6.1,0,0,6.1,13c6.1,13,1,2.8,2,7.4c1,4.6-2.7,5.9-6.4,3.9c-3.7-2-1.4-2.4-2-10.2s-2-5-5.5-10.7
	c-3.5-5.8,1.5-7.1,2.6-15.5c1.1-8.4-0.4-4.7-4.2-10.8c-3.7-6.1,1-5.1,3.4-11.5c2.4-6.4-1-7.1-4.7-12.7c0,0-1-5.1-1.7-8.9
	c-0.7-3.7,0,0,5.4-1c5.4-1,0,3.4,2.7,8.1c2.7,4.7,1.4-2.7,2.7-6.4c1.4-3.7,0,0,5.7-0.3c5.7-0.3,3.4,1.4,6.4,6.8
	C123.2,121.8,115,120.4,114.4,122.9z"/>
<path fill="#A3A3A3" d="M99.4,110.2c0,0-0.8,3.2,0.1,4.4c0.8,1.2,1,1.5,1.9,3.1c0.8,1.5,2,2.5,2.9,4.4s1.5,3.4,1.5,4.9
	c0,1.5-1.8,3.3-2.5,4.7c-0.8,1.5-0.8,4.2-1.8,5.2s-2.4,2-0.7,3.2c1.7,1.2,1.4,0.5,2.7,2c1.4,1.5,3.8,0.6,2.4,2.9
	c-1.4,2.2-0.3,2.3-1.1,3.5c-0.8,1.2-1.6-0.7-1,2c0.6,2.6,1,0.6,0.6,2.6s-1.1,1.8-1.1,4.5c0,2.7,0.1,3.7-0.6,4.7
	c-0.6,1-2.3-1.7-0.6,1s1.2,1.7,1.9,3.7c0.7,2-0.1-0.5,1.2,3.4s-0.3-1,1.9,6.1c2.2,7.1,2.4,6.9,2.2,8.3c-0.2,1.4-1.6,1.7,0,2.9
	c1.6,1.2,4,3.4,4.5,0.8c0.5-2.5,0-2.4,0-3.9c0-1.5-0.3-1.4-0.8-2.9c-0.5-1.5,0.5,0-1.5-2.7c-2-2.7-1.4-0.7-2.4-3.7
	c-1-3-0.6-1.5-1.4-4.7c-0.8-3.2-0.1-2.5-0.3-4.6c-0.2-2.1-1.9-2.4-0.8-4.5c1.1-2,0.4-3.2,1.4-4.7c1-1.5,1.2-0.5,1.7-2.2
	s2.4-1,1.9-2.6c-0.5-1.6-0.3,1.1-2.5-1.5c-2.2-2.6-1.2-5.5-1.2-5.5s0.5-8.5,1-10.1c0.5-1.6,1-3.9,1.4-5.6s0-4.7,1-5.9
	c1-1.2,1.5-1.5,2.8-3c1.3-1.5,3.5,0.2,3.7-2.2c0.2-2.4,0.2-2.2-1-4.7c-1.2-2.5-7.1-1.8-7.1-1.8c-1.5-1.8-1.3-3.7-1.1-4.8
	c0.2-1.2-0.9-2.7,2.1-2.9c3-0.2,5.7,0.5,7.2,1.5c1.4,1,4.6,5.6,5.7,6.9s1.4,4.6,1.5,5.9c0.2,1.4-1,4.6-1.4,5.1
	c-0.3,0.5-3.4,3.4-4.1,3.7c-0.7,0.3-3.5,4.2-4.2,5.6c-0.7,1.4-2.4,7.8-2.4,7.8s1.9,7.1,2.7,7.6c0.8,0.5,1.5,2.4,1.5,2.4l-0.8,5.5
	l-5.2,8.3c0,0,6.1,7.6,6.1,8.1c0,0.5,3,13.2,2.5,13.7c-0.5,0.5-5.9,11.3-6.9,10.1s-12.2-2.4-12.2-3.5c0-1.2-0.2-11.5-0.3-12.3
	c-0.2-0.8-8.4-15.9-8.8-16.5c-0.3-0.7-4.2-7.1-4.1-8.9c0.2-1.9-0.7-8.8,0-11.3s6.1-8.9,7.1-11c1-2-3.7-17.4-3.9-18.6
	c-0.2-1.2,0.3-12.8,1.5-12.8c1.2,0,8.8,0.3,9.8,0c1-0.3,2.5,1.4,2.2,2.2c-0.3,0.8,1.8,1.9,1.9,2.5c0.1,0.7,0,5.1,0,5.1v3.4
	c0,0-2.1-4.1-2.5-4.6c-0.3-0.5-1.2-0.4-1.7-1.4s-2.4-2.4-2.8-1.3S99.4,110.2,99.4,110.2z"/>
<path fill="#5E5E5E" d="M422.1,215.1c0,0,2.3-2.4-0.6-5.9c-2.9-3.5-4.6-4.9-6.9-7.7c-2.3-2.8-6.6-6.4-4.9-9.5
	c1.6-3.2,8.5-4.1,8.9-6.8s0.9-3.3-0.8-5.6c-1.6-2.3,0.6-0.6-1.6-3.7c-2.2-3,0.4-2-3.2-3.8c-3.6-1.8-6-7.7-1.3-9.1
	c4.7-1.4,9.3-3.8,11.6-3.9c2.2-0.1,0.7-0.1,4.4,0s12.2-0.9,13.2-2.7c1-1.7,2.2-6,5.8-6.6c3.7-0.5,6.4-2.2,8.2,0.8
	c1.7,2.9,3.2,4.8,2.5,7.2s-3.9,7-1,6.4c2.9-0.6,5.2-1.3,6.3-3s-0.8-1.4,2.3-2.8c3-1.4,3.9,2.3,4.4-1.5c0.5-3.8-1.3-4.7,1.6-5.3
	c2.9-0.6,4.5-1.7,4.4,1c-0.1,2.7,0.7,3.3,1.4,5.2s0,1.2-0.6,3.4s1.5,3.2,0,3.9c-1.5,0.7-0.5,1.7-3.7,4.6c-3.2,2.9-4.3,2.9-4.4,5.1
	c-0.1,2.2-1.1,2.4,0.3,3.4s1,1.6,2,2.9c1,1.4,0.6-2.4,1.4,2.8c0.8,5.2,1.5,5.6,0.8,6.3s-0.5,4.6-1.5,4.6c-1,0-2-1.4-2.2,1.5
	c-0.1,2.9,3.3-3.2-1.6,3.4c-4.9,6.6-1.9,6.5-5.3,7.8c-3.4,1.2-1.8-0.4-5.3,0.8c-3.5,1.2-2.2,2.6-3.8,2.8s-0.9-1.5-2.9,0.7
	c-2,2.3-4.7,3.5-4.7,3.5h-8.6L422.1,215.1z"/>
<polygon fill="#8B8C8C" points="567.1,226.3 6,226.3 23.2,215.3 549.9,215.3 "/>
<rect x="6" y="226.3" fill="#7C7C7C" width="561" height="3"/>
<rect x="74" y="88.3" fill="#A0A0A0" width="2" height="127"/>
<rect x="147" y="88.3" fill="#A0A0A0" width="1" height="127"/>
<rect x="218" y="88.3" fill="#A0A0A0" width="2" height="127"/>
<rect x="291" y="96.3" fill="#A0A0A0" width="1" height="119"/>
<rect x="365" y="88.3" fill="#A0A0A0" width="2" height="127"/>
<rect x="438" y="88.3" fill="#A0A0A0" width="1" height="127"/>
<rect x="499" y="88.3" fill="#A0A0A0" width="1" height="127"/>
<path fill="#A0A0A0" d="M211.9,88.3c0,0,5.1,4.9,3,12.3c-2,7.4-0.7,6.2,0.5,11.6c1.2,5.4,0.5,4.4,0,9.2c-0.5,4.7,1,8.8,3.5,9.5
	c2.4,0.7,4.1,8.5,2.4,0.7c-1.7-7.8-0.7-3,0.7-9.1c1.3-6.1,1.7,1.7,1.3-6.1c-0.3-7.8-1.7,6.4-0.3-7.8c1.4-14.2,1.4-10,3.7-14.4
	c2.4-4.4,6.4-5.9,6.4-5.9H211.9z"/>
<path fill="none" d="M421.9,179.2c-1-2.5-1.9-4.5-3.9-6.1v14.5C421,185.7,425.7,188.7,421.9,179.2z"/>
<path fill="#A0A0A0" d="M459.3,166.3c-2.6,0.8-4.3,0.7-4.3,0v41.1c3-2,6-1.6,7-2.6v-39.8C461,165.6,460.3,166,459.3,166.3z"/>
<path fill="#A0A0A0" d="M417,171.5V163C408,166.1,412,167,417,171.5z"/>
<path fill="#A0A0A0" d="M455,154.1v6.9C455,158.6,455,156,455,154.1z"/>
<path fill="#A0A0A0" d="M418,162.4V173c2,1.6,2.9,3.6,3.9,6.1c3.8,9.5-0.9,6.5-3.9,8.4v12.1c0,0.9,2.7,2,4.1,3.5
	c1.8,1.8,1.9,3.6,3.9,5.1v-47.5C424,160.7,423,161,418,162.4z"/>
<path fill="#A0A0A0" d="M436,160v55.3h7.1c0,0-3.9-0.1,0.2-3.3c0.1-0.1,0.6-0.3,0.6-0.4v-56.4C442,157,439,159,436,160z"/>
<path fill="#A0A0A0" d="M415.6,190c-3.3,4.5-3.6,5.8,1.4,8.5v-9.9C415,188.9,416.1,189.4,415.6,190z"/>
<path fill="#A0A0A0" d="M451.8,152.1c-3.5-1.2-4.8-0.3-6.8,1.3v57.2c2-1.1,4-0.3,8-2.5v-55.7C453,152.4,452.2,152.2,451.8,152.1z"/>
<path fill="#A0A0A0" d="M475.9,159.3c-0.3-4.1-1.9-4.3-2.9-2.9v10.4C474,164.8,476.1,162.5,475.9,159.3z"/>
<path fill="#A0A0A0" d="M427,160.8v54.5h8v-55C430,161.1,429,161,427,160.8z"/>
<path fill="#A0A0A0" d="M464,164.2v39.1c0-1,1-2.4,1.8-4.5c3.7-9.1,4.9-4.4,4.2-11.5c-0.7-7.1-2.4-0.7-5.4-8.4
	c-1.8-4.7,2.4-7.1,6.4-10.5v-10.5C470,159.6,467,162.2,464,164.2z"/>
<path fill="#020202" d="M418,173v-10.6c-1,0.2-1,0.3-1,0.5v8.5C417,172,417,172.5,418,173z"/>
<path fill="#020202" d="M426,196.3v11.9c1,4.1,0,7.1,0,7.1h0.8l-0.8-30.1l1.1-24.4c-0.5-0.1-1.2-0.1-1.2-0.2v24.5V196.3"/>
<path fill="#020202" d="M434.8,160.3c-0.1,0-0.2,0-0.4,0.1l0.8,47.2l-0.8,7.8h1.6v-7.9V160C435,160.1,435.2,160.2,434.8,160.3z"/>
<path fill="#020202" d="M443.5,155.2l-1,13.1l1,43.3c0.6-0.4,1.1-0.8,1.5-1l-1.3-40.3l1.3-16.9C444.6,153.9,444.1,154.5,443.5,155.2
	z"/>
<path fill="#020202" d="M455,166.4V161C453,163.3,453,165.4,455,166.4z"/>
<path fill="#020202" d="M462,165.1v21.7v18.1c0-0.3,0-0.8,2-1.6v-11.4v-27.6C462,164.5,462,164.8,462,165.1z"/>
<path fill="#020202" d="M473,166.8v-10.4c-2,0.4-2,0.9-2,1.4v10.5C471,167.8,471,167.3,473,166.8z"/>
<rect x="418.2" y="174.3" fill="#020202" width="47" height="0"/>
<rect x="418.2" y="200.3" fill="#020202" width="47" height="0"/>
<g>
	<path d="M291,100.7L291,100.7c0.4,0.1,0.4,2.2,0.1,6.4l-0.2,3.1c0.1-0.3,0.1-0.5,0.2-0.8c0.1-0.2,0.1-0.5,0.2-0.8l-0.1,0
		c0.4-2,0.8-3.6,1-4.7c0.2-1.1,0.4-1.7,0.4-1.9l0-0.4c0,0,0,0,0,0c0,0,0,0,0,0c0-0.1,0.1-0.2,0.3-0.3h0.3l0,0c0.1,0,0.2,0.2,0.2,0.4
		c-1.3,5.9-2.1,10.1-2.4,12.6c0,0.2,0,0.4,0,0.6c0,0.2,0,0.4,0,0.6c-0.1,0.3-0.2,0.5-0.3,0.5l-0.4,0c-0.1,0-0.1-0.2-0.2-0.7
		c-0.1-0.4-0.1-1.1-0.1-1.9c0-0.9,0-2,0-3.3c0-1.4,0.1-3,0.3-4.9h-0.1l0.2-0.3l0-0.6c0,0-0.1,0.2-0.2,0.6c-0.1,0.5-0.3,1.2-0.6,2.1
		c-0.3,1-0.6,2.2-0.9,3.6c-0.1,0.4-0.2,0.9-0.3,1.3c-0.1,0.4-0.2,0.7-0.3,1c-0.4,1.4-0.7,2.2-1,2.2l-0.2,0c0,0-0.1,0-0.1-0.1
		c-0.1-0.1-0.1-0.2-0.2-0.3c0.4-1,0.7-2,1-3c0.1-0.2,0.1-0.4,0.1-0.5c0-0.2,0.1-0.4,0.1-0.5l0.7-2.5c0.4-1.6,0.8-3,1.1-4.2
		c0.3-1.2,0.6-2.2,0.8-3.1L291,100.7z"/>
	<path d="M298.2,103.7l0.4,0.3l0,0.1c-0.5,0.8-1,1.5-1.3,2c-0.3,0.6-0.5,1-0.6,1.4l-0.2,0.6c0,0.2-0.1,0.4-0.1,0.5
		c0,0.1,0,0.2,0,0.3l-0.2,0c-0.4-0.3-0.5-0.7-0.4-1.1l0.3-0.9c0.4-0.7,0.8-1.4,1.4-2.2c0,0,0,0,0-0.1c-0.9,0-1.4,0.1-1.4,0.1
		c0,0.2,0,0.3,0,0.4l0,0.1l-0.3,0.9c0,0,0,0,0.1,0.1c-0.1,0.1-0.1,0.2-0.1,0.2l0,0c0,0.1,0,0.1-0.1,0.1l0,0
		c-0.1,0.3-0.2,0.5-0.3,0.7c-0.1,0.2-0.1,0.4-0.2,0.5l-0.9,2.8l0,0c0.1,0,0.3,0,0.7-0.1l0.1,0.4c-0.1,0.2-0.4,0.3-1,0.4l-0.3,0.8
		c-0.2,0.5-0.3,0.9-0.4,1.2c-0.1,0.4-0.2,0.7-0.3,0.9c-0.1,0.2-0.1,0.4-0.2,0.6c0,0.2-0.1,0.3-0.1,0.4l0.1,0l0.7,0.3l0.2-0.9
		c0.4-0.9,0.7-1.6,1-2c0.3-0.4,0.6-0.6,0.8-0.5l0.2,0.3c-0.3,0.5-0.5,0.9-0.6,1.2c-0.2,0.3-0.3,0.5-0.3,0.6l-0.3,1l0,0.1
		c0,0.1-0.1,0.3-0.1,0.5c0,0.2-0.1,0.4-0.1,0.6l-0.3,0.3c-0.3-0.4-0.6-0.6-0.7-0.6c-0.1,0-0.2,0-0.2-0.1c-0.1,0-0.1,0-0.2-0.1
		c-0.1,0-0.2-0.1-0.2-0.1l-0.2,0.5c0,0.1-0.2,0.1-0.5,0.1c-0.1,0-0.1-0.1-0.2-0.1c-0.1,0-0.1-0.2-0.2-0.5c-0.2,0.1-0.4,0.1-0.5,0.1
		c-0.1,0-0.2,0-0.3,0c-0.1-0.1-0.1-0.2-0.2-0.3l0.1-0.4c0.2,0,0.5,0,0.7,0c0.2,0,0.4,0,0.6-0.1l0.2-0.8c0.1-0.4,0.2-0.8,0.4-1.2
		c0.1-0.4,0.3-0.8,0.4-1.3l0-0.2c0.1-0.1,0.1-0.1,0.1-0.2c0-0.1,0-0.2,0-0.2l0,0l-0.1,0c-0.1,0-0.2,0-0.5,0
		c-0.3-0.1-0.5-0.4-0.5-0.7c0.1-0.2,0.1-0.2,0.2-0.2l0,0l0.2,0.1c0.1,0,0.1,0.1,0.1,0.1c0.5,0.1,0.8,0,0.8-0.1
		c0.1-0.2,0.7-1.9,1.8-5c0,0,0-0.1,0-0.2l0,0l0.2-0.6c-0.3-0.1-0.5,0-0.5,0.1l-0.1-0.2l-0.1,0c0,0-0.1,0-0.2,0
		c-0.2-0.1-0.2-0.4-0.1-0.7c0.1,0,0.2,0,0.3,0c0.1,0,0.2,0,0.2,0l0.1,0l0,0.1C296.4,103.9,297.6,103.9,298.2,103.7z"/>
	<path d="M297.9,108.8l0.4-0.1l0.3,0.1c0.1,0.1,0.1,0.1,0.1,0.3l0,0.1l-0.2,0.5c-0.7,1.9-1.3,3.7-1.7,5.3c-0.2,0.8-0.4,1.5-0.6,2.2
		l-0.1,0.3l-0.5-0.1c-0.1-0.1,0-0.9,0.4-2.6l0.2-0.2c0-0.1,0-0.2,0.1-0.3c0-0.1,0.1-0.2,0.1-0.4c0.2-0.5,0.4-1.2,0.7-2.1
		C297.1,111,297.5,110,297.9,108.8z M299.9,108l-0.2,0.2l-0.2,0.1c0,0-0.1,0-0.1,0c0,0-0.1,0-0.1-0.1l-0.6-1
		c-0.3,0.2-0.6,0.4-0.8,0.6c-0.2,0.2-0.5,0.3-0.7,0.5l-0.2,0.1l-0.3-0.3c0,0,0-0.1,0-0.1c0-0.1,0.2-0.3,0.6-0.6l0.2,0
		c0.1-0.1,0.3-0.2,0.4-0.3c0.1-0.1,0.3-0.2,0.5-0.4c-0.1-0.2-0.3-0.4-0.4-0.6c-0.1-0.2-0.2-0.4-0.3-0.6l-0.1-0.2l0.3-0.3
		c0,0,0,0,0.1,0c0.1,0,0.2,0.2,0.4,0.5l0,0.2c0.1,0.1,0.1,0.2,0.2,0.3c0.1,0.1,0.1,0.2,0.2,0.3c0.2-0.1,0.4-0.3,0.6-0.4
		c0.2-0.1,0.4-0.3,0.7-0.4l0.3,0.1l0.1,0.2c0,0,0,0.1,0,0.1c0,0,0,0.1-0.1,0.1l-0.4,0.2c-0.2,0.1-0.3,0.2-0.5,0.3
		c-0.1,0.1-0.3,0.2-0.4,0.3C299.4,107.2,299.7,107.6,299.9,108z"/>
	<path d="M301.3,103.6L301.3,103.6c0.4,0.1,0.4,2.2,0.1,6.4l-0.2,3.1c0.1-0.3,0.1-0.5,0.2-0.8c0.1-0.2,0.1-0.5,0.2-0.8l-0.1,0
		c0.4-2,0.8-3.6,1-4.7c0.2-1.1,0.4-1.7,0.4-1.9l0-0.4c0,0,0,0,0,0c0,0,0,0,0,0c0-0.1,0.1-0.2,0.3-0.3h0.3l0,0c0.1,0,0.2,0.2,0.2,0.4
		c-1.3,5.9-2.1,10.1-2.4,12.6c0,0.2,0,0.4,0,0.6c0,0.2,0,0.4,0,0.6c-0.1,0.3-0.2,0.5-0.3,0.5l-0.4,0c-0.1,0-0.1-0.2-0.2-0.7
		c-0.1-0.4-0.1-1.1-0.1-1.9c0-0.9,0-2,0-3.3c0-1.4,0.1-3,0.3-4.9h-0.1l0.2-0.3l0-0.6c0,0-0.1,0.2-0.2,0.6c-0.1,0.5-0.3,1.2-0.6,2.1
		c-0.3,1-0.6,2.2-0.9,3.6c-0.1,0.4-0.2,0.9-0.3,1.3c-0.1,0.4-0.2,0.7-0.3,1c-0.4,1.4-0.7,2.2-1,2.2l-0.2,0c0,0-0.1,0-0.1-0.1
		s-0.1-0.2-0.2-0.3c0.4-1,0.7-2,1-3c0.1-0.2,0.1-0.4,0.1-0.5c0-0.2,0.1-0.4,0.1-0.5l0.7-2.5c0.4-1.6,0.8-3,1.1-4.2
		c0.3-1.2,0.6-2.2,0.8-3.1L301.3,103.6z"/>
</g>
<g>
	<path d="M51.5,102.1L51.5,102.1c0.4-0.2,1.8,1.3,4.5,4.6L58,109c-0.1-0.2-0.3-0.5-0.4-0.7c-0.1-0.2-0.3-0.4-0.4-0.7l-0.1,0
		c-1.1-1.8-1.9-3.2-2.5-4.1c-0.6-1-0.9-1.5-1-1.6l-0.3-0.3c0,0,0,0,0,0c0,0,0,0,0,0c0-0.1,0-0.2,0-0.5l0.2-0.2l0,0
		c0.1,0,0.2,0,0.4,0.1c3.1,5.2,5.4,8.8,7,10.7c0.1,0.1,0.3,0.3,0.4,0.4c0.1,0.1,0.2,0.3,0.4,0.4c0.1,0.3,0.2,0.5,0.1,0.6l-0.2,0.3
		c-0.1,0-0.3-0.1-0.6-0.3c-0.3-0.3-0.8-0.7-1.4-1.3c-0.6-0.6-1.4-1.4-2.3-2.4s-2-2.2-3.2-3.7l-0.1,0.1l-0.1-0.3l-0.4-0.4
		c0,0,0.1,0.2,0.3,0.6c0.2,0.4,0.6,1.1,1,1.9c0.5,0.9,1.1,2,1.8,3.3c0.2,0.4,0.4,0.8,0.6,1.1c0.2,0.3,0.4,0.7,0.5,0.9
		c0.7,1.3,1,2.1,0.8,2.2l-0.1,0.1c0,0-0.1,0-0.1,0c-0.1,0-0.2,0-0.3-0.1c-0.4-0.9-0.9-1.9-1.4-2.8c-0.1-0.2-0.2-0.3-0.3-0.5
		c-0.1-0.2-0.2-0.3-0.3-0.5l-1.2-2.3c-0.8-1.4-1.4-2.7-2-3.8c-0.6-1.1-1.1-2-1.6-2.8L51.5,102.1z"/>
	<path d="M58.8,99.3l0.5,0l0.1,0.1c0.2,0.9,0.3,1.7,0.5,2.3c0.2,0.6,0.3,1.1,0.5,1.4l0.2,0.5c0.1,0.2,0.2,0.3,0.3,0.4
		c0.1,0.1,0.1,0.2,0.1,0.2l-0.1,0.1c-0.5,0-0.8-0.1-1-0.5l-0.4-0.9c-0.2-0.8-0.4-1.6-0.6-2.5c0,0,0,0-0.1,0c-0.6,0.6-0.9,1-1,1.1
		c0.1,0.1,0.2,0.2,0.3,0.3l0,0.1l0.4,0.9c0,0,0,0,0.1,0c0,0.1,0.1,0.2,0,0.2l0,0c0,0.1,0,0.1,0,0.1l0,0c0.1,0.3,0.2,0.5,0.3,0.7
		c0.1,0.2,0.2,0.4,0.2,0.5l1.3,2.7l0,0c0.1,0,0.2-0.2,0.5-0.6l0.3,0.2c0.1,0.2-0.1,0.5-0.5,1l0.4,0.8c0.2,0.4,0.4,0.8,0.5,1.2
		c0.2,0.3,0.3,0.6,0.4,0.9c0.1,0.2,0.2,0.4,0.3,0.6c0.1,0.2,0.2,0.3,0.2,0.4l0.1-0.1l0.7-0.3l-0.5-0.8c-0.4-1-0.6-1.7-0.6-2.2
		c-0.1-0.5,0-0.8,0.2-0.9l0.3,0.1c0.2,0.6,0.3,1,0.4,1.3c0.1,0.3,0.2,0.5,0.2,0.6l0.4,0.9l0.1,0.1c0.1,0.1,0.2,0.3,0.3,0.4
		c0.1,0.2,0.2,0.3,0.4,0.5l0,0.5c-0.5,0-0.8,0-1,0c-0.1,0.1-0.1,0.1-0.2,0.1c-0.1,0-0.1,0.1-0.2,0.1c-0.1,0.1-0.2,0.1-0.2,0.1
		l0.2,0.5c0.1,0.1,0,0.2-0.3,0.4c-0.1,0-0.1,0.1-0.2,0.1c-0.1,0-0.2-0.1-0.4-0.2c-0.1,0.2-0.2,0.4-0.3,0.5c-0.1,0.1-0.2,0.2-0.2,0.2
		c-0.1-0.1-0.3-0.1-0.3-0.1l-0.2-0.4c0.2-0.2,0.3-0.3,0.5-0.5c0.1-0.2,0.2-0.3,0.3-0.5l-0.4-0.7c-0.2-0.4-0.4-0.8-0.6-1.1
		c-0.2-0.4-0.4-0.8-0.6-1.2l-0.1-0.1c0-0.1,0-0.2,0-0.2c-0.1-0.1-0.1-0.1-0.1-0.1l0,0l0,0c-0.1,0-0.2,0.1-0.4,0.3
		c-0.3,0.1-0.6,0.1-0.9-0.2c-0.1-0.2,0-0.3,0-0.3l0,0l0.3-0.1c0.1,0,0.1,0,0.1,0c0.4-0.3,0.6-0.5,0.5-0.6c-0.1-0.2-0.8-1.9-2.2-4.9
		c0,0-0.1,0-0.1-0.2l0,0l-0.3-0.6c-0.3,0.2-0.4,0.3-0.3,0.4l-0.2-0.1l0,0c0,0-0.1,0.1-0.1,0.2c-0.2,0-0.4-0.1-0.6-0.5
		c0.1-0.1,0.2-0.2,0.2-0.2c0.1-0.1,0.1-0.1,0.2-0.1l0,0l0,0C57.7,100.7,58.5,99.9,58.8,99.3z"/>
	<path d="M63,101.2l0.1,0.3l-0.1,0.2c0,0,0,0.1-0.1,0.1c0,0-0.1,0-0.1,0l-1.1-0.4c-0.1,0.4-0.1,0.7-0.2,1c-0.1,0.3-0.1,0.6-0.1,0.8
		l-0.1,0.2l-0.4,0c0,0-0.1,0-0.1,0c-0.1-0.1-0.1-0.4,0-0.8l0.1-0.1c0-0.1,0.1-0.3,0.1-0.5c0-0.2,0.1-0.4,0.1-0.6
		c-0.3-0.1-0.5-0.1-0.7-0.2c-0.2-0.1-0.4-0.1-0.6-0.2l-0.2-0.1l0.1-0.4c0,0,0,0,0,0c0.1-0.1,0.3,0,0.6,0.1l0.1,0.1
		c0.1,0,0.2,0.1,0.4,0.1c0.1,0,0.3,0.1,0.4,0.1c0-0.2,0.1-0.4,0.1-0.7c0.1-0.2,0.1-0.5,0.2-0.8l0.3-0.1l0.2,0.1c0,0,0.1,0,0.1,0.1
		c0,0,0,0.1,0,0.1L62,99.9c-0.1,0.2-0.1,0.3-0.1,0.5c0,0.2-0.1,0.3-0.1,0.5C62.1,101,62.5,101.1,63,101.2z M62,103.2l0.2-0.3
		l0.3-0.1c0.1,0,0.2,0,0.3,0.1l0,0l0.2,0.5c0.8,1.9,1.6,3.6,2.4,5c0.4,0.7,0.8,1.4,1.1,2l0.1,0.3l-0.4,0.3c-0.1,0.1-0.6-0.6-1.5-2.1
		l0-0.3c-0.1-0.1-0.1-0.2-0.2-0.3c-0.1-0.1-0.1-0.2-0.2-0.3c-0.3-0.5-0.6-1.1-1-2C63.1,105.4,62.6,104.4,62,103.2z"/>
	<path d="M61,97.1L61,97.1c0.4-0.2,1.8,1.3,4.5,4.6l2.1,2.4c-0.1-0.2-0.3-0.5-0.4-0.7c-0.1-0.2-0.3-0.4-0.4-0.7l-0.1,0
		c-1.1-1.8-1.9-3.2-2.5-4.1c-0.6-1-0.9-1.5-1-1.6l-0.3-0.3c0,0,0,0,0,0c0,0,0,0,0,0c0-0.1,0-0.2,0-0.5l0.2-0.2l0,0
		c0.1,0,0.2,0,0.4,0.1c3.1,5.2,5.4,8.8,7,10.7c0.1,0.1,0.3,0.3,0.4,0.4c0.1,0.1,0.2,0.3,0.4,0.4c0.1,0.3,0.2,0.5,0.1,0.6l-0.2,0.3
		c-0.1,0-0.3-0.1-0.6-0.3c-0.3-0.3-0.8-0.7-1.4-1.3c-0.6-0.6-1.4-1.4-2.3-2.4c-0.9-1-2-2.2-3.2-3.7l-0.1,0.1l-0.1-0.3l-0.4-0.4
		c0,0,0.1,0.2,0.3,0.6c0.2,0.4,0.6,1.1,1,1.9c0.5,0.9,1.1,2,1.8,3.3c0.2,0.4,0.4,0.8,0.6,1.1c0.2,0.3,0.4,0.7,0.5,0.9
		c0.7,1.3,1,2.1,0.8,2.2l-0.1,0.1c0,0-0.1,0-0.1,0c-0.1,0-0.2,0-0.3-0.1c-0.4-0.9-0.9-1.9-1.4-2.8c-0.1-0.2-0.2-0.3-0.3-0.5
		c-0.1-0.2-0.2-0.3-0.3-0.5l-1.2-2.3c-0.8-1.4-1.4-2.7-2-3.8c-0.6-1.1-1.1-2-1.6-2.8L61,97.1z"/>
</g>
<g>
	<path d="M460.8,98.5c0.2,0.2,0.6,0.5,1.2,0.8l0,0.3c-0.1,0.1-0.5,0.7-1,1.7l-0.1,0l-0.1,0c-0.1,0-0.1-0.1-0.1-0.3
		c0.3-0.6,0.6-1,0.7-1.3l0-0.1c0,0-0.1,0-0.2-0.1c-0.2-0.1-0.3-0.2-0.4-0.2c0,0-0.3,0.6-0.9,1.8l0,0l-2.5,5.1c0.3-0.2,0.7-0.4,1-0.5
		c0.4-0.7,0.7-1.3,1-1.8c0.3-0.5,0.5-0.9,0.7-1.3l0,0l-0.2-0.1c-0.1,0-0.2-0.1-0.2-0.2c0-0.1,0-0.2,0-0.4l0.1,0l0.1,0l0,0
		c0,0,0,0,0,0.1c0.2,0,0.4-0.1,0.6-0.2c0.2,0.1,0.3,0.2,0.2,0.3c-0.7,1.3-1.3,2.4-1.8,3.2c-0.5,0.8-0.8,1.5-0.9,1.9c0,0,0,0.1,0,0.1
		c0,0,0,0.1,0,0.1L458,108c0,0,0,0,0,0.1c0,0,0,0.1,0,0.1c0,0-0.1,0.1-0.1,0.1c0,0,0,0,0,0c0,0,0,0,0,0l-0.3-0.1
		c0,0-0.1-0.1-0.1-0.3l0.1-0.1l0.6-1.3l0.1-0.3l0,0c-0.5,0.3-1,0.8-1.5,1.6c-0.1,0-0.1,0-0.1,0c0,0-0.1,0-0.1,0
		c-0.1,0-0.1-0.2-0.1-0.4c0.1-0.1,0.4-0.7,0.9-1.9c0.7-1.4,1.3-2.7,1.8-3.6c0.5-1,0.8-1.7,1.1-2.3c0.1-0.1,0.1-0.2,0.1-0.3
		c0-0.1,0.1-0.2,0.1-0.3l0.2-0.6C460.7,98.6,460.7,98.6,460.8,98.5z"/>
	<path d="M464.5,100.4l0.2,0.2l0,0.1c-0.4,0.5-0.8,0.9-1,1.3c-0.3,0.4-0.4,0.6-0.5,0.9l-0.2,0.4c0,0.1-0.1,0.2-0.1,0.3
		s0,0.1-0.1,0.2l-0.1,0c-0.2-0.2-0.3-0.5-0.2-0.8l0.3-0.6c0.3-0.4,0.7-0.9,1.1-1.4c0,0,0,0,0,0c-0.6-0.1-0.9-0.1-1,0
		c0,0.1,0,0.2-0.1,0.3l0,0.1l-0.3,0.6c0,0,0,0,0,0c0,0.1-0.1,0.1-0.1,0.1l0,0c0,0,0,0.1,0,0.1l0,0c-0.1,0.2-0.2,0.3-0.3,0.5
		c-0.1,0.1-0.1,0.2-0.2,0.3l-0.9,1.8l0,0c0,0,0.2,0,0.5,0l0,0.2c-0.1,0.1-0.3,0.2-0.7,0.2l-0.3,0.5c-0.1,0.3-0.3,0.6-0.4,0.8
		c-0.1,0.2-0.2,0.4-0.3,0.6c-0.1,0.2-0.1,0.3-0.2,0.4c0,0.1-0.1,0.2-0.1,0.3l0.1,0l0.4,0.3l0.2-0.6c0.4-0.6,0.6-1,0.9-1.3
		c0.2-0.2,0.4-0.3,0.6-0.3l0.1,0.2c-0.2,0.3-0.4,0.6-0.5,0.8c-0.1,0.2-0.2,0.3-0.3,0.4l-0.3,0.6l0,0.1c0,0.1-0.1,0.2-0.1,0.3
		c0,0.1-0.1,0.3-0.1,0.4l-0.3,0.2c-0.2-0.3-0.3-0.4-0.4-0.5c-0.1,0-0.1,0-0.2-0.1c0,0-0.1,0-0.1-0.1c-0.1,0-0.1-0.1-0.1-0.1
		l-0.2,0.3c0,0.1-0.1,0.1-0.3,0c-0.1,0-0.1-0.1-0.1-0.1c0,0-0.1-0.1-0.1-0.3c-0.2,0-0.3,0-0.4,0c-0.1,0-0.2,0-0.2,0
		c0-0.1-0.1-0.2-0.1-0.2l0.1-0.3c0.2,0,0.3,0,0.4,0c0.1,0,0.3,0,0.4,0l0.2-0.5c0.1-0.3,0.2-0.5,0.4-0.8c0.1-0.3,0.3-0.5,0.4-0.8
		l0-0.1c0.1,0,0.1-0.1,0.1-0.1c0-0.1,0-0.1,0-0.1l0,0l0,0c-0.1,0-0.2,0-0.3-0.1c-0.2-0.1-0.3-0.3-0.3-0.5c0.1-0.1,0.1-0.1,0.2-0.1
		l0,0l0.2,0.1c0,0,0.1,0.1,0,0.1c0.3,0.1,0.5,0.1,0.6,0c0.1-0.1,0.6-1.2,1.6-3.2c0,0,0-0.1,0-0.1l0,0l0.2-0.4
		c-0.2-0.1-0.3-0.1-0.4,0l-0.1-0.2l0,0c0,0-0.1,0-0.1,0c-0.1-0.1-0.1-0.3,0-0.5c0.1,0,0.1,0,0.2,0c0.1,0,0.1,0,0.1,0l0,0l0,0
		C463.3,100.4,464,100.4,464.5,100.4z"/>
	<path d="M466,100.8l0.2,0.2l-1.2,2.3c0,0.1,0.2,0.3,0.6,0.5l0-0.1c0.2,0.2,0.3,0.4,0.2,0.5c-0.6,0.9-1.1,1.7-1.5,2.3
		c-0.4,0.7-0.7,1.2-0.9,1.7l-0.2,0.4c0,0.1,0,0.2,0,0.3c-0.2,0.2-0.3,0.3-0.4,0.2c-0.2-0.5-0.4-0.8-0.5-0.8l-0.2-0.1
		c-0.4-0.2-0.7-0.1-0.9,0c-0.1,0.3-0.2,0.6,0,0.8l0.1,0c0.1,0,0.3,0,0.8,0l0,0.2c-0.3,0.3-0.6,0.4-1,0.3c-0.4-0.2-0.5-0.7-0.3-1.6
		l0.1-0.2c0.3-0.2,0.5-0.3,0.8-0.3c0.2-0.4,0.4-0.9,0.7-1.6c0.3-0.6,0.6-1.4,1-2.3l0.2-0.3l0.4-1c0-0.1,0.1-0.2,0.2-0.4
		c0.1-0.2,0.1-0.3,0.2-0.5l-0.9-0.1c0-0.2,0-0.4,0-0.6c0-0.1,0.3-0.1,0.8,0l0,0.1L466,100.8z M464.1,103.7c-0.3,0.6-0.6,1.2-0.8,1.7
		c-0.2,0.5-0.4,0.9-0.5,1.2l-0.4,0.9c0,0,0.2,0.2,0.7,0.5c0,0.1,0,0.1,0.1,0.2c0.1-0.3,0.4-0.9,0.8-1.5c0.4-0.7,0.9-1.5,1.5-2.5
		l-0.4-0.3L464.1,103.7z M465,101.5c-0.1,0.3-0.2,0.5-0.3,0.7c-0.1,0.2-0.2,0.4-0.2,0.5l-0.1,0.3l0.1,0l0.1,0l0.1,0.1
		c0.1-0.1,0.2-0.2,0.3-0.5c0.1-0.3,0.3-0.7,0.6-1.2l-0.1,0L465,101.5z"/>
	<path d="M468.3,102.3c0,0,0.1,0.1,0.1,0.3l-0.2,0.4c-0.3,0.4-0.5,0.8-0.6,1.1c-0.2,0.3-0.3,0.6-0.4,0.8c-0.1,0.2-0.2,0.4-0.3,0.6
		c-0.1,0.2-0.2,0.3-0.2,0.5c-0.1,0.2-0.2,0.4-0.2,0.6c-0.1,0.2-0.2,0.4-0.3,0.7c-0.2,0.5-0.5,1.1-0.7,1.7c-0.2,0.6-0.5,1.2-0.8,1.9
		l0,0.1c-0.1,0.1-0.1,0.1-0.2,0.1l-0.2-0.1c0,0,0,0,0,0l0,0c-0.3-0.2-0.5-0.3-0.4-0.4c0,0-0.1,0.1-0.4,0.3l-0.1,0
		c-0.1-0.1-0.2-0.1-0.2-0.2c0-0.1,0-0.2,0.1-0.3l1.1-2.4l0-0.2l0,0c0-0.1,0-0.2,0.1-0.3c0-0.1,0.1-0.2,0.2-0.4c0-0.1,0-0.1,0.1-0.2
		c0-0.1,0.1-0.1,0.1-0.2l1.1-2.2c0-0.1,0.1-0.1,0.1-0.1l0-0.1c0-0.1,0.1-0.1,0.1-0.1l0-0.1l0.7-1.7l0.2-0.4c0.1-0.1,0.1-0.1,0.2-0.2
		l0.6,0.4c0.1,0,0.2,0,0.3,0.1C468,102.2,468.1,102.2,468.3,102.3L468.3,102.3z M467.1,102.6l-0.4,0.8c0,0.1,0,0.1-0.1,0.2
		c0,0,0,0.1-0.1,0.1c0,0.1-0.1,0.2-0.1,0.3c0,0.1-0.1,0.1-0.1,0.2c-0.2,0.3-0.3,0.7-0.5,0.9l-0.8,1.7c-0.3,0.6-0.5,1.1-0.6,1.4
		c-0.1,0.3-0.2,0.5-0.3,0.6l-0.6,1.2l0.2,0.1l0.3,0.2c0.6-1.5,1.1-2.6,1.5-3.5c0.1-0.3,0.3-0.6,0.4-0.8c0.1-0.2,0.2-0.4,0.3-0.6
		l0-0.2c0.1-0.1,0.1-0.1,0.2-0.2c0,0,0,0,0,0l0.1-0.2c0.1-0.1,0.2-0.4,0.4-0.7c0.2-0.3,0.4-0.8,0.7-1.3L467.1,102.6z"/>
	<path d="M469.8,102.8c0.1,0.1,0.1,0.3,0.1,0.4l-0.2,0.5c-0.2,0.4-0.4,0.8-0.7,1.4c-0.3,0.6-0.6,1.2-0.9,2c0,0,0,0.1-0.1,0.2
		c0,0.1-0.1,0.3-0.2,0.5c-0.1,0.1-0.3,0-0.5-0.1c0,0.2,0,0.5-0.1,0.9c-0.1,0.5-0.3,1.1-0.5,1.8c-0.2,0.7-0.2,1.2,0.2,1.4
		c0.2,0,0.5,0,0.7-0.2l0.1,0c0.1,0.1,0.1,0.2,0,0.4c-0.1,0.2-0.4,0.2-1.1,0.1l0,0c-0.1,0-0.1,0-0.1,0c-0.2-0.1-0.4-0.3-0.4-0.5
		c-0.1-0.2-0.1-0.5,0-0.8c0-0.3,0.1-0.6,0.2-0.9c0.1-0.3,0.2-0.6,0.3-0.9l0,0.1c-0.1,0.3-0.4,1-0.8,2.2l0,0.1
		c-0.1,0.1-0.2,0.1-0.4,0.1c-0.1,0-0.1-0.2-0.1-0.4c0-0.2,0.1-0.5,0.2-0.8c0.1-0.3,0.3-0.7,0.4-1.1s0.3-0.8,0.5-1.2l0.2-0.4
		c-0.1-0.1-0.1-0.3,0-0.6c0.2,0,0.3-0.1,0.4-0.3l1.2-2.8l0.2-0.3c0-0.1,0-0.1,0-0.2c-0.3,0-0.4,0-0.5,0c-0.1-0.2-0.1-0.4,0-0.6
		L469.8,102.8z M468.8,104.1l-0.3,0.8c0,0.1-0.1,0.2-0.1,0.2c0,0.1-0.2,0.5-0.5,1.2l0,0l-0.1,0.1l-0.2,0.4l0,0.2l-0.1,0l0,0.1l0,0
		l0,0c0.3-0.6,0.5-1.2,0.8-1.8c0.3-0.6,0.6-1.2,0.9-1.9C469.2,103.3,469,103.5,468.8,104.1z"/>
	<path d="M473.1,104.1l0.2,0.2l0,0.1c-0.4,0.5-0.8,0.9-1,1.3c-0.3,0.4-0.4,0.6-0.5,0.9l-0.2,0.4c0,0.1-0.1,0.2-0.1,0.3
		c0,0.1,0,0.1-0.1,0.2l-0.1,0c-0.2-0.2-0.3-0.5-0.2-0.8l0.3-0.6c0.3-0.4,0.7-0.9,1.1-1.4c0,0,0,0,0,0c-0.6-0.1-0.9-0.1-1,0
		c0,0.1,0,0.2-0.1,0.3l0,0.1l-0.3,0.6c0,0,0,0,0,0c0,0.1-0.1,0.1-0.1,0.1l0,0c0,0,0,0.1,0,0.1l0,0c-0.1,0.2-0.2,0.3-0.3,0.5
		c-0.1,0.1-0.1,0.2-0.2,0.3l-0.9,1.8l0,0c0,0,0.2,0,0.5,0l0,0.2c-0.1,0.1-0.3,0.2-0.7,0.2l-0.3,0.5c-0.1,0.3-0.3,0.6-0.4,0.8
		c-0.1,0.2-0.2,0.4-0.3,0.6c-0.1,0.2-0.1,0.3-0.2,0.4c0,0.1-0.1,0.2-0.1,0.3l0.1,0l0.4,0.3l0.2-0.6c0.4-0.6,0.6-1,0.9-1.3
		c0.2-0.2,0.4-0.3,0.6-0.3l0.1,0.2c-0.2,0.3-0.4,0.6-0.5,0.8c-0.1,0.2-0.2,0.3-0.3,0.4l-0.3,0.6l0,0.1c0,0.1-0.1,0.2-0.1,0.3
		c0,0.1-0.1,0.3-0.1,0.4l-0.3,0.2c-0.2-0.3-0.3-0.4-0.4-0.5c-0.1,0-0.1,0-0.2-0.1c0,0-0.1,0-0.1-0.1c-0.1,0-0.1-0.1-0.1-0.1
		l-0.2,0.3c0,0.1-0.1,0.1-0.3,0c-0.1,0-0.1-0.1-0.1-0.1c0,0-0.1-0.1-0.1-0.3c-0.2,0-0.3,0-0.4,0c-0.1,0-0.2,0-0.2,0
		c0-0.1-0.1-0.2-0.1-0.2l0.1-0.3c0.2,0,0.3,0,0.4,0c0.1,0,0.3,0,0.4,0l0.2-0.5c0.1-0.3,0.2-0.5,0.4-0.8c0.1-0.3,0.3-0.5,0.4-0.8
		l0-0.1c0.1,0,0.1-0.1,0.1-0.1c0-0.1,0-0.1,0-0.1l0,0l0,0c-0.1,0-0.2,0-0.3-0.1c-0.2-0.1-0.3-0.3-0.3-0.5c0.1-0.1,0.1-0.1,0.2-0.1
		l0,0l0.2,0.1c0,0,0.1,0.1,0,0.1c0.3,0.1,0.5,0.1,0.6,0c0.1-0.1,0.6-1.2,1.6-3.2c0,0,0-0.1,0-0.1l0,0l0.2-0.4
		c-0.2-0.1-0.3-0.1-0.4,0l-0.1-0.2l0,0c0,0-0.1,0-0.1,0c-0.1-0.1-0.1-0.3,0-0.5c0.1,0,0.1,0,0.2,0c0.1,0,0.1,0,0.1,0l0,0l0,0
		C471.9,104.1,472.7,104.2,473.1,104.1z"/>
	<path d="M473.6,103.6L473.6,103.6c0.3,0.1,0.1,1.5-0.5,4.3l-0.4,2.1c0.1-0.2,0.1-0.3,0.2-0.5c0.1-0.2,0.1-0.3,0.2-0.5l0,0
		c0.5-1.3,0.8-2.4,1.1-3.1c0.2-0.7,0.4-1.1,0.4-1.2l0.1-0.3c0,0,0,0,0,0s0,0,0,0c0-0.1,0.1-0.1,0.3-0.2l0.2,0l0,0
		c0.1,0,0.1,0.1,0.1,0.3c-1.4,3.8-2.3,6.6-2.7,8.2c0,0.1,0,0.3,0,0.4c0,0.1,0,0.2-0.1,0.4c-0.1,0.2-0.2,0.3-0.3,0.3l-0.2,0
		c0,0-0.1-0.2-0.1-0.5c0-0.3,0-0.7,0.1-1.3c0.1-0.6,0.2-1.3,0.3-2.2c0.1-0.9,0.3-2,0.6-3.2l-0.1,0l0.1-0.2l0-0.4
		c0,0-0.1,0.1-0.2,0.4c-0.1,0.3-0.3,0.8-0.6,1.4c-0.3,0.6-0.6,1.4-0.9,2.4c-0.1,0.3-0.2,0.6-0.3,0.8c-0.1,0.3-0.2,0.5-0.3,0.7
		c-0.4,0.9-0.7,1.4-0.9,1.4l-0.1,0c0,0,0,0-0.1-0.1c0,0-0.1-0.1-0.1-0.2c0.3-0.6,0.6-1.3,0.9-1.9c0.1-0.1,0.1-0.2,0.1-0.3
		c0-0.1,0.1-0.2,0.1-0.3l0.7-1.6c0.4-1,0.8-1.9,1.1-2.7c0.3-0.8,0.6-1.4,0.8-2L473.6,103.6z"/>
	<path d="M479.7,105.7L479.7,105.7c0.1,0.1,0.1,0.2,0.1,0.4c-0.4,0.8-0.9,1.6-1.3,2.4c-0.4,0.8-0.8,1.6-1.1,2.3
		c-1,2.5-1.3,3.9-1.1,4c0.1-0.1,0.2-0.3,0.3-0.4l0.1-0.3c1.1-3,1.9-5.2,2.4-6.5c0.1-0.2,0.2-0.3,0.5-0.4l0,0.1c0,0,0,0,0.1,0l0,0.5
		c-0.1,0.1-0.1,0.2-0.1,0.2c-0.4,0.9-0.8,1.9-1.2,3c-0.4,1.1-0.9,2.3-1.4,3.7c-0.4,0.8-0.7,1.2-1.1,1l-0.1,0
		c-0.5-0.2-0.3-1.6,0.7-4.1l0.6-1.3c0.3-0.7,0.6-1.3,0.9-1.8c0.2-0.5,0.4-0.9,0.6-1.2c0.2-0.3,0.3-0.6,0.4-0.8
		c0.1-0.2,0.2-0.3,0.3-0.4c0.1-0.1,0.1-0.2,0.2-0.2C479.6,105.7,479.7,105.7,479.7,105.7z"/>
	<path d="M481.9,106.9c0.2,0.1,0.2,0.4,0,0.9l-0.1,0.2l-0.1,0.1l0,0.1l-0.1,0.1l0,0.1l-0.1,0.1c0,0,0,0,0,0c0,0.1-0.1,0.1-0.1,0.2
		c-0.3,0.8-0.6,1.4-0.8,1.9c-0.2,0.5-0.3,0.8-0.3,1c0.1,0,0.8-1.1,2-3.5l0.2-0.4l0,0l0-0.1l0.1-0.2c0-0.1,0.1-0.1,0.2-0.1l0,0
		c0.2,0.1,0.2,0.2,0.2,0.3c-0.1,0.2-0.3,0.7-0.6,1.3c-0.3,0.6-0.7,1.5-1.2,2.5l-0.1,0.5l0,0l0,0.1c-0.3,0.7-0.6,1.6-1,2.6
		c-0.3,1-0.7,2.2-1,3.5c-0.1,0.1-0.2,0.2-0.4,0.1l0,0c-0.2-0.1,0-0.9,0.6-2.4c0.1-0.3,0.2-0.7,0.4-1.3c0.2-0.6,0.5-1.3,0.8-2.3
		c-0.6,1-1,1.5-1.2,1.4c0-0.1,0-0.2,0-0.4c0-0.1,0.1-0.3,0.1-0.5c0.1-0.2,0.2-0.5,0.3-0.9c0.1-0.4,0.3-0.9,0.5-1.6
		c-0.4,0.6-0.7,1.2-1.1,1.8c-0.4,0.6-0.8,1.3-1.3,1.9l0,0c-0.3,0.6-0.5,0.8-0.7,0.7l-0.1-0.1c0.1-0.1,0.1-0.2,0-0.3
		c0.2-0.3,0.3-0.4,0.3-0.5l0,0c0.8-1.1,1.5-2.2,2.1-3.2c0.7-1,1.3-2.1,1.9-3.1l0.3-0.6C481.7,107,481.8,106.9,481.9,106.9z"/>
	<path d="M486.2,110.1L486.2,110.1c0.2,0.1,0.3,0.2,0.3,0.3l0,0l0.1,0.1l0.4,0.2c0,0,0,0,0-0.1l0.1,0.1c0.2,0,0.3,0,0.4,0.1l0.1,0
		l-0.1,0.3c-0.9,1.4-1.6,2.6-2.1,3.6c-0.5,0.9-0.9,1.6-1.1,2.1l-0.5,1.1c0.2,0,0.4,0,0.4,0l0.2-0.4c1.1-2.2,1.7-3.3,1.8-3.3
		c0,0,0.1-0.1,0.2-0.1l0.1,0.1c0.1,0.1,0.1,0.2,0,0.4c-0.3,0.4-0.6,0.8-0.8,1.3c-0.3,0.5-0.5,1-0.7,1.5c-0.1,0.3-0.3,0.7-0.5,1.2
		c-0.1,0.1-0.3,0-0.7-0.1c-0.3,0.1-0.5,0.1-0.7,0.1l-0.2-0.3l0.2-0.4l0.1-0.2c0,0,0,0-0.1,0l0.1-0.1c0.3-0.8,0.8-1.7,1.4-2.7
		c0.6-1,1.3-2.2,2.1-3.6l-0.5-0.2l-0.1-0.1l0,0c-0.3,0.9-0.5,1.6-0.7,2.1c-0.2,0.5-0.2,0.8-0.3,0.9l-0.3,0.2l-0.1-0.1l0,0
		c0,0,0,0,0,0c-0.2-0.1-0.1-0.7,0.4-1.9l0.6-1.9C485.9,110.2,486,110.2,486.2,110.1z"/>
	<path d="M489.4,109.9L489.4,109.9c0.1,0.1,0.1,0.2,0.1,0.4c-0.4,0.8-0.9,1.6-1.3,2.4c-0.4,0.8-0.8,1.6-1.1,2.3
		c-1,2.5-1.3,3.9-1.1,4c0.1-0.1,0.2-0.3,0.3-0.4l0.1-0.3c1.1-3,1.9-5.2,2.4-6.5c0.1-0.2,0.2-0.3,0.5-0.4l0,0.1c0,0,0.1,0,0.1,0
		l0,0.5c-0.1,0.1-0.1,0.2-0.1,0.2c-0.4,0.9-0.8,1.9-1.2,3c-0.4,1.1-0.9,2.3-1.4,3.7c-0.4,0.8-0.7,1.2-1.1,1l-0.1,0
		c-0.5-0.2-0.3-1.6,0.7-4.1l0.6-1.3c0.3-0.7,0.6-1.3,0.9-1.8c0.2-0.5,0.4-0.9,0.6-1.2c0.2-0.3,0.3-0.6,0.4-0.8
		c0.1-0.2,0.2-0.3,0.3-0.4c0.1-0.1,0.1-0.2,0.2-0.2C489.3,109.8,489.4,109.9,489.4,109.9z"/>
	<path d="M493.5,112.8l0.2,0.1c0.1,0,0.1,0.2,0.1,0.5c-0.4,0.7-0.7,1.4-1,1.9c-0.3,0.5-0.5,0.9-0.7,1.1c0,0,0,0,0.1,0
		c-0.2,0.4-0.4,0.7-0.5,1c-0.1,0.3-0.3,0.5-0.3,0.7l0,0c-0.1,0.2-0.2,0.5-0.3,0.6c-0.1,0.2-0.2,0.3-0.2,0.4l-0.7,1.7
		c0.2,0,0.5,0,0.8,0c0.1-0.5,0.3-0.9,0.4-1.3c0.1-0.4,0.2-0.7,0.3-0.9c0.1,0,0.1-0.1,0.1-0.1l-0.1,0l1-1.7c0.2,0,0.3,0,0.3,0
		c0.2,0.2,0.3,0.3,0.2,0.4c-0.4,0.5-0.9,1.2-1.2,2.1c0,0.1,0,0.2,0,0.2l0,0c0,0,0,0.1,0,0.1l0,0l0,0.1l-0.1,0.2
		c-0.1,0.3-0.2,0.7-0.3,1.3l0,0.1c-0.1,0.1-0.3,0.1-0.8,0c-0.4,0.1-0.8,0.2-1.1,0.5l-0.2-0.1c0-0.1,0-0.2-0.1-0.3
		c0.1-0.2,0.3-0.4,0.4-0.7c0.1-0.2,0.3-0.5,0.4-0.8l0.4-0.9l0,0l0,0l0.1-0.1l-0.1,0l0.1-0.1l0.3-0.7c0.1-0.3,0.4-0.9,0.8-1.6
		c0.4-0.8,1-1.8,1.7-3c0-0.1,0-0.2,0-0.2L493.5,112.8z"/>
	<path d="M497.2,114.5l0.2,0.2l0,0.1c-0.4,0.5-0.8,0.9-1,1.3c-0.3,0.4-0.4,0.6-0.5,0.9l-0.2,0.4c0,0.1-0.1,0.2-0.1,0.3
		c0,0.1,0,0.1-0.1,0.2l-0.1,0c-0.2-0.2-0.3-0.5-0.2-0.8l0.3-0.6c0.3-0.4,0.7-0.9,1.1-1.4c0,0,0,0,0,0c-0.6-0.1-0.9-0.1-1,0
		c0,0.1,0,0.2-0.1,0.3l0,0.1l-0.3,0.6c0,0,0,0,0,0c0,0.1-0.1,0.1-0.1,0.1l0,0c0,0,0,0.1,0,0.1l0,0c-0.1,0.2-0.2,0.3-0.3,0.5
		c-0.1,0.1-0.1,0.2-0.2,0.3l-0.9,1.8l0,0c0,0,0.2,0,0.5,0l0,0.2c-0.1,0.1-0.3,0.2-0.7,0.2l-0.3,0.5c-0.1,0.3-0.3,0.6-0.4,0.8
		c-0.1,0.2-0.2,0.4-0.3,0.6c-0.1,0.2-0.1,0.3-0.2,0.4c0,0.1-0.1,0.2-0.1,0.3l0.1,0l0.4,0.3l0.2-0.6c0.4-0.6,0.6-1,0.9-1.3
		c0.2-0.2,0.4-0.3,0.6-0.3l0.1,0.2c-0.2,0.3-0.4,0.6-0.5,0.8c-0.1,0.2-0.2,0.3-0.3,0.4l-0.3,0.6l0,0.1c0,0.1-0.1,0.2-0.1,0.3
		c0,0.1-0.1,0.3-0.1,0.4l-0.3,0.2c-0.2-0.3-0.3-0.4-0.4-0.5c-0.1,0-0.1,0-0.2-0.1c0,0-0.1,0-0.1-0.1c-0.1,0-0.1-0.1-0.1-0.1
		l-0.2,0.3c0,0.1-0.1,0.1-0.3,0c-0.1,0-0.1-0.1-0.1-0.1c0,0-0.1-0.1-0.1-0.3c-0.2,0-0.3,0-0.4,0c-0.1,0-0.2,0-0.2,0
		c0-0.1-0.1-0.2-0.1-0.2l0.1-0.3c0.2,0,0.3,0,0.4,0c0.1,0,0.3,0,0.4,0l0.2-0.5c0.1-0.3,0.2-0.5,0.4-0.8s0.3-0.5,0.4-0.8l0-0.1
		c0.1,0,0.1-0.1,0.1-0.1c0-0.1,0-0.1,0-0.1l0,0l0,0c-0.1,0-0.2,0-0.3-0.1c-0.2-0.1-0.3-0.3-0.3-0.5c0.1-0.1,0.1-0.1,0.2-0.1l0,0
		l0.2,0.1c0,0,0.1,0.1,0,0.1c0.3,0.1,0.5,0.1,0.6,0c0.1-0.1,0.6-1.2,1.6-3.2c0,0,0-0.1,0-0.1l0,0l0.2-0.4c-0.2-0.1-0.3-0.1-0.4,0
		l-0.1-0.2l0,0c0,0-0.1,0-0.1,0c-0.1-0.1-0.1-0.3,0-0.5c0.1,0,0.1,0,0.2,0c0.1,0,0.1,0,0.1,0l0,0l0,0
		C496,114.5,496.8,114.6,497.2,114.5z"/>
	<path d="M498.7,114.9l0.2,0.2l-1.2,2.3c0,0.1,0.2,0.3,0.6,0.5l0-0.1c0.2,0.2,0.3,0.4,0.2,0.5c-0.6,0.9-1.1,1.7-1.5,2.3
		c-0.4,0.7-0.7,1.2-0.9,1.7l-0.2,0.4c0,0.1,0,0.2,0,0.3c-0.2,0.2-0.3,0.3-0.4,0.2c-0.2-0.5-0.4-0.8-0.5-0.8l-0.2-0.1
		c-0.4-0.2-0.7-0.1-0.9,0c-0.1,0.3-0.2,0.6,0,0.8l0.1,0c0.1,0,0.3,0,0.8,0l0,0.2c-0.3,0.3-0.6,0.4-1,0.3c-0.4-0.2-0.5-0.7-0.3-1.6
		l0.1-0.2c0.3-0.2,0.5-0.3,0.8-0.3c0.2-0.4,0.4-0.9,0.7-1.6c0.3-0.6,0.6-1.4,1-2.3l0.2-0.3l0.4-1c0-0.1,0.1-0.2,0.2-0.4
		c0.1-0.2,0.1-0.3,0.2-0.5l-0.9-0.1c0-0.2,0-0.4,0-0.6c0-0.1,0.3-0.1,0.8,0l0,0.1L498.7,114.9z M496.8,117.9
		c-0.3,0.6-0.6,1.2-0.8,1.7c-0.2,0.5-0.4,0.9-0.5,1.2l-0.4,0.9c0,0,0.2,0.2,0.7,0.5c0,0.1,0,0.1,0.1,0.2c0.1-0.3,0.4-0.8,0.8-1.5
		c0.4-0.7,0.9-1.5,1.5-2.5l-0.4-0.3L496.8,117.9z M497.8,115.6c-0.1,0.3-0.2,0.5-0.3,0.7c-0.1,0.2-0.2,0.4-0.2,0.5l-0.1,0.3l0.1,0
		l0.1,0l0.1,0.1c0.1-0.1,0.2-0.2,0.3-0.5c0.1-0.3,0.3-0.7,0.6-1.2l-0.1,0L497.8,115.6z"/>
	<path d="M501.8,116.5l0.2,0.2l0,0.1c-0.4,0.5-0.8,0.9-1,1.3c-0.3,0.4-0.4,0.6-0.5,0.9l-0.2,0.4c0,0.1-0.1,0.2-0.1,0.3
		c0,0.1,0,0.1-0.1,0.2l-0.1,0c-0.2-0.2-0.3-0.5-0.2-0.8l0.3-0.6c0.3-0.4,0.7-0.9,1.1-1.4c0,0,0,0,0,0c-0.6-0.1-0.9-0.1-1,0
		c0,0.1,0,0.2-0.1,0.3l0,0.1l-0.3,0.6c0,0,0,0,0,0c0,0.1-0.1,0.1-0.1,0.1l0,0c0,0,0,0.1,0,0.1l0,0c-0.1,0.2-0.2,0.3-0.3,0.5
		c-0.1,0.1-0.1,0.2-0.2,0.3l-0.9,1.8l0,0c0,0,0.2,0,0.5,0l0,0.2c-0.1,0.1-0.3,0.2-0.7,0.2l-0.3,0.5c-0.1,0.3-0.3,0.6-0.4,0.8
		c-0.1,0.2-0.2,0.4-0.3,0.6c-0.1,0.2-0.1,0.3-0.2,0.4c0,0.1-0.1,0.2-0.1,0.3l0.1,0l0.4,0.3l0.2-0.6c0.4-0.6,0.6-1,0.9-1.3
		c0.2-0.2,0.4-0.3,0.6-0.3l0.1,0.2c-0.2,0.3-0.4,0.6-0.5,0.8c-0.1,0.2-0.2,0.3-0.3,0.4l-0.3,0.6l0,0.1c0,0.1-0.1,0.2-0.1,0.3
		c0,0.1-0.1,0.3-0.1,0.4l-0.3,0.2c-0.2-0.3-0.3-0.4-0.4-0.5c-0.1,0-0.1,0-0.2-0.1c0,0-0.1,0-0.1-0.1c-0.1,0-0.1-0.1-0.1-0.1
		l-0.2,0.3c0,0.1-0.1,0.1-0.3,0c-0.1,0-0.1-0.1-0.1-0.1c0,0-0.1-0.1-0.1-0.3c-0.2,0-0.3,0-0.4,0c-0.1,0-0.2,0-0.2,0
		c0-0.1-0.1-0.2-0.1-0.2l0.1-0.3c0.2,0,0.3,0,0.4,0c0.1,0,0.3,0,0.4,0l0.2-0.5c0.1-0.3,0.2-0.5,0.4-0.8c0.1-0.3,0.3-0.5,0.4-0.8
		l0-0.1c0.1,0,0.1-0.1,0.1-0.1c0-0.1,0-0.1,0-0.1l0,0l0,0c-0.1,0-0.2,0-0.3-0.1c-0.2-0.1-0.3-0.3-0.3-0.5c0.1-0.1,0.1-0.1,0.2-0.1
		l0,0l0.2,0.1c0,0,0.1,0.1,0,0.1c0.3,0.1,0.5,0.1,0.6,0c0.1-0.1,0.6-1.2,1.6-3.2c0,0,0-0.1,0-0.1l0,0l0.2-0.4
		c-0.2-0.1-0.3-0.1-0.4,0l-0.1-0.2l0,0c0,0-0.1,0-0.1,0c-0.1-0.1-0.1-0.3,0-0.5c0.1,0,0.1,0,0.2,0c0.1,0,0.1,0,0.1,0l0,0l0,0
		C500.6,116.5,501.4,116.6,501.8,116.5z"/>
	<path d="M502.4,116.1L502.4,116.1c0.2,0.1,0.1,1.5-0.5,4.3l-0.4,2.1c0.1-0.2,0.1-0.3,0.2-0.5c0.1-0.2,0.1-0.3,0.2-0.5l0,0
		c0.5-1.3,0.8-2.4,1.1-3.1c0.2-0.7,0.4-1.1,0.4-1.2l0.1-0.3c0,0,0,0,0,0s0,0,0,0c0-0.1,0.1-0.1,0.3-0.2l0.2,0l0,0
		c0.1,0,0.1,0.1,0.1,0.3c-1.4,3.8-2.3,6.6-2.7,8.2c0,0.1,0,0.3,0,0.4c0,0.1,0,0.2-0.1,0.4c-0.1,0.2-0.2,0.3-0.3,0.3l-0.2,0
		c0,0-0.1-0.2-0.1-0.5c0-0.3,0-0.7,0.1-1.3c0.1-0.6,0.2-1.3,0.3-2.2c0.1-0.9,0.3-2,0.6-3.2l-0.1,0l0.1-0.2l0-0.4
		c0,0-0.1,0.1-0.2,0.4c-0.1,0.3-0.3,0.8-0.6,1.4c-0.3,0.6-0.6,1.4-0.9,2.4c-0.1,0.3-0.2,0.6-0.3,0.8c-0.1,0.3-0.2,0.5-0.3,0.7
		c-0.4,0.9-0.7,1.4-0.9,1.4l-0.1,0c0,0,0,0-0.1-0.1c0,0-0.1-0.1-0.1-0.2c0.3-0.6,0.6-1.3,0.9-1.9c0.1-0.1,0.1-0.2,0.1-0.3
		c0-0.1,0.1-0.2,0.1-0.4l0.7-1.6c0.4-1,0.8-1.9,1.1-2.7c0.3-0.8,0.6-1.4,0.8-2L502.4,116.1z"/>
</g>
<g>
	<path d="M148.4,151.3c0.6,0,1,0.3,1.2,0.9c0.1,3.5,0.5,6.2,1.1,8.1l0.7,2.4c0.4,1.4,1.3,2.4,2.7,3.2l0.3,0.9
		c-0.2,0.1-0.3,0.2-0.3,0.3c-1.1,0.3-2.5-0.8-4-3.5l-0.8-2.6c-0.3-0.8-0.7-3-1.3-6.4c-0.6,0.4-0.9,0.7-0.8,0.8l3,12.1
		c0.1,0,0.2,0,0.2,0.2c0.9-0.6,1.6-1,2-1.1c0.3,0.3,0.4,0.6,0.4,0.7c0.2,0.8-0.4,1.7-1.9,2.5l0.3,1c0.2,0.6,0.5,1.5,0.9,2.9
		c0.4,1.4,1,3.1,1.6,5.3c-0.2,0.3-0.4,0.4-0.5,0.5c-0.6,0.2-1.4-1.5-2.4-4.9l-0.4-1.2l-0.9-2.9c-0.7,0.2-1.2,0-1.7-0.6l-0.1-0.5
		c-0.1-0.4,0.3-0.8,1.2-1.2c-0.6-2.4-1.2-4.6-1.6-6.4c-0.5-1.9-0.9-3.4-1.3-4.7l0.2-0.1c0-0.1-0.5-0.4-1.3-0.7
		c-0.1-0.3-0.3-0.6-0.8-0.9c0.7-0.6,1.4-1.2,2.2-1.9C146.8,152.8,147.6,152.1,148.4,151.3z"/>
	<path d="M149.7,147.5l0.3-0.1c0.1,0,0.4,0.2,0.7,0.7c0.6,2.7,1.2,5.4,1.8,8s1.2,5.1,1.9,7.6c2.7,7.7,4.4,11.5,5.1,11.2
		c0.1-0.5,0.1-1.1-0.1-1.6l-0.3-0.9c-3.2-9.1-5.6-15.7-7-19.6c-0.1-0.5,0-1.1,0.5-1.9l0.1,0.2c0-0.1,0.1-0.1,0.2-0.1l0.9,1
		c0.1,0.4,0.1,0.6,0,0.7c0.9,2.8,2,5.9,3.2,9.2s2.5,7,3.9,11c0.8,2.6,0.6,4-0.6,4.4l-0.2,0.1c-1.6,0.5-3.7-3.1-6.3-10.6l-1.2-4.2
		c-0.6-2.2-1.1-4.2-1.5-5.8c-0.4-1.6-0.7-3-1-4c-0.3-1.1-0.5-2-0.6-2.6c-0.1-0.7-0.2-1.2-0.2-1.5c0-0.4,0-0.6,0.1-0.7
		C149.4,147.7,149.5,147.6,149.7,147.5z"/>
	<path d="M155.7,150.6c0.2,0,0.4,0,0.8,0.1l-0.1-0.2c0.7,0.3,2.3,0,4.8-0.7l0.4-0.1c0.4-0.1,1.2-0.6,2.3-1.3
		c0.4,0.4,0.6,0.8,0.7,1.3c-0.6,0.9-1.2,1.4-1.8,1.6l-4.5,1.3c0.7,0.8,1.4,1.8,2.3,3.2c0.9,1.3,1.8,3,2.8,4.9c1,1.9,2.1,4,3.2,6.5
		c1.1,2.4,2.2,5.1,3.4,8l-0.3,0.6l-0.2,0.1c-1.1,0.1-3.5-2.5-7.2-7.9c-0.7-1-1.5-2.3-2.4-4c-1-1.7-2.1-3.7-3.4-6l0.8-0.7
		c0.6-0.2,1.8,1.7,3.6,5.7c3,5,5,7.9,6,8.7l-0.1-0.4c-0.8-2.6-3.2-7.4-7.3-14.6c-1.9-2.8-3.2-4.1-3.9-3.9l-0.7-0.7
		C154.7,151.2,155,150.8,155.7,150.6z"/>
	<path d="M167.2,145.2l0.9,0l1.7,7.5c0.1,0.3,0.9,0.3,2.5,0l-0.1-0.2c0.9,0.2,1.3,0.4,1.4,0.7c0.4,3.2,0.7,5.9,1.1,8.2
		c0.4,2.3,0.8,4.1,1.2,5.6l0.4,1.3c0.3,0.3,0.5,0.5,0.5,0.7c0,0.8-0.1,1.2-0.5,1.4c-1.4-0.7-2.3-1-2.8-0.9l-0.7,0.2
		c-1.2,0.4-1.8,0.9-1.9,1.8c0.3,1,0.8,1.7,1.4,1.9l0.3-0.1c0.2-0.1,0.8-0.5,1.8-1.4l0.4,0.5c-0.1,1.4-0.7,2.2-1.7,2.5
		c-1.3,0.4-2.5-0.6-3.6-3.1l-0.2-0.6c0.2-1,0.6-1.8,1.3-2.2c-0.3-1.3-0.8-3-1.3-5c-0.6-2-1.2-4.4-2-7.2l-0.1-1.1l-0.9-3.1
		c-0.1-0.3-0.2-0.7-0.4-1.2s-0.4-1-0.6-1.6L163,151c-0.5-0.4-0.8-0.9-1-1.4c-0.1-0.3,0.5-0.8,1.8-1.6l0.1,0.2L167.2,145.2z
		 M166.3,148.7c0.3,0.8,0.6,1.6,0.8,2.2c0.2,0.6,0.4,1.2,0.5,1.6l0.3,0.9l0.1-0.2l0.2-0.1l0.3,0.1c0.1-0.3,0-0.9-0.2-1.7
		c-0.2-0.8-0.6-2.1-1-3.8l-0.3,0.1L166.3,148.7z M168.4,155.8c0.6,2.1,1.1,3.8,1.5,5.4c0.4,1.5,0.8,2.8,1.1,3.8l0.9,2.9
		c0,0.1,0.9,0.1,2.5,0c0,0.2,0.2,0.2,0.5,0.2c-0.3-1.1-0.7-2.7-1.1-5c-0.4-2.2-0.9-5.1-1.5-8.5l-1.4,0.1L168.4,155.8z"/>
	<path d="M174,144.7l2-0.6l0.6,0.2l0.4,0.6l0,1c0,0.5,0.1,1.2,0.3,2.1c0.2,0.9,0.4,2,0.8,3.2c0.2,0,0.4,0.1,0.5,0.5l0.1,0.3
		c-0.4,0.5-0.2,2.3,0.7,5.5l0.5,1.8c1.7,5.7,3.6,9.5,5.7,11.2c0.2,0.3,0.4,0.6,0.5,1c-0.2,0.3-0.4,0.4-0.5,0.5
		c-2.5-0.8-4.9-5.1-7.1-12.7l-1.5-4.9l-1.2,0.6c1.2,3.9,1.9,9.1,2.1,15.5l-0.3,0.1l-1-0.8l-0.2-0.7c-0.3-5.4-1-10-2.1-13.7
		c-0.2,0.1-0.4-0.1-0.7-0.6l-0.2-0.6c0.4-0.1,0.6-0.4,0.5-0.7l-1.7-5.8c0-0.2-0.1-0.3-0.2-0.5c-0.1-0.2-0.2-0.4-0.3-0.7
		C171.4,145.7,172.2,145.2,174,144.7z M173.6,147c0,0.2,0.2,0.7,0.4,1.7c0.2,1,0.6,2.3,1.1,4.1c0.1,0,0.2,0,0.2,0.2
		c1-0.3,1.3-0.9,1-1.8l-0.8-4.5l-0.3-0.1L173.6,147z"/>
	<path d="M178.2,142.4l0.7-0.2c0.3-0.1,0.6,0.2,1.1,0.9c0.5,2.5,1,4.5,1.3,6.2c0.3,1.7,0.5,3,0.6,3.9c0,0,0.1,0,0.2,0
		c0.3,1.3,0.5,2.4,0.7,3.3c0.2,0.9,0.4,1.6,0.6,2.2l0,0c0.2,0.8,0.4,1.5,0.5,2c0.1,0.6,0.3,1,0.4,1.4l1.6,5.2c0.4-0.5,1-1,1.8-1.6
		c-0.6-1.4-1.1-2.6-1.6-3.7c-0.4-1.1-0.7-2-1-2.7c0.1-0.2,0.1-0.4,0.1-0.4l-0.2,0.1l-0.9-5.7c0.4-0.3,0.6-0.5,0.6-0.6
		c0.7,0.1,1.2,0.3,1.4,0.5c0,2,0.3,4.4,1.2,7.2c0.2,0.2,0.3,0.5,0.4,0.6l-0.1,0c0.1,0.1,0.1,0.2,0.2,0.3l-0.1,0l0.1,0.2l0.2,0.7
		c0.3,0.9,0.9,2,1.8,3.4l0.1,0.3c0.1,0.4-0.5,0.9-2,1.5c-0.9,1-1.5,2.1-1.7,3.2l-0.5,0.2c-0.1-0.2-0.4-0.4-0.9-0.5
		c-0.1-0.7-0.2-1.5-0.4-2.3c-0.2-0.8-0.4-1.7-0.7-2.6l-0.8-2.7l0-0.2l-0.1,0l0.1-0.6l-0.2,0.1l0.1-0.6l-0.7-2.3
		c-0.3-1-0.7-2.8-1.2-5.4c-0.5-2.6-1.1-5.9-1.9-10.1c-0.2-0.1-0.3-0.4-0.4-0.6L178.2,142.4z"/>
	<path d="M184.2,140.6l0.7-0.2c0.3-0.1,0.6,0.2,1.1,0.9c0.5,2.5,1,4.5,1.3,6.2c0.3,1.7,0.5,3,0.6,3.9c0,0,0.1,0,0.2,0
		c0.3,1.3,0.5,2.4,0.7,3.3c0.2,0.9,0.4,1.6,0.6,2.2l0,0c0.2,0.8,0.4,1.5,0.5,2c0.1,0.6,0.3,1,0.4,1.4l1.6,5.2c0.4-0.5,1-1,1.8-1.6
		c-0.6-1.4-1.1-2.6-1.6-3.7c-0.4-1.1-0.7-2-1-2.7c0.1-0.2,0.1-0.4,0.1-0.4l-0.2,0.1l-0.9-5.7c0.4-0.3,0.6-0.5,0.6-0.6
		c0.7,0.1,1.2,0.3,1.4,0.5c0,2,0.3,4.4,1.2,7.2c0.2,0.2,0.3,0.5,0.4,0.6l-0.1,0c0.1,0.1,0.1,0.2,0.2,0.3l-0.1,0l0.1,0.2l0.2,0.7
		c0.3,0.9,0.9,2,1.8,3.4l0.1,0.3c0.1,0.4-0.5,0.9-2,1.5c-0.9,1-1.5,2.1-1.7,3.2l-0.5,0.2c-0.1-0.2-0.4-0.4-0.9-0.5
		c-0.1-0.7-0.2-1.5-0.4-2.3c-0.2-0.8-0.4-1.7-0.7-2.6l-0.8-2.7l0-0.2l-0.1,0l0.1-0.6l-0.2,0.1l0.1-0.6l-0.7-2.3
		c-0.3-1-0.7-2.8-1.2-5.4c-0.5-2.6-1.1-5.9-1.9-10.1c-0.2-0.1-0.3-0.4-0.4-0.6L184.2,140.6z"/>
</g>
<g>
	<path d="M298.6,186.9c0.5-0.1,0.9,1,1.2,3.2c0,0.1,0,0.2-0.1,0.2l0.2,0.7l0.2,2c0,0.2-0.1,0.3-0.2,0.3l-0.2,0
		c-0.2,0-0.4-0.2-0.5-0.7c-0.1-0.5-0.4-1.2-0.7-2.2l0.3,7.5l1.2-2l0.6-0.1c0.2,0,0.3,0.1,0.3,0.2c0,0.3-0.2,0.8-0.7,1.4
		c-0.5,0.9-0.9,2.1-1.1,3.7l-0.4,0c-0.3-0.1-0.5-0.3-0.5-0.6c-0.1-1.1-0.3-4.9-0.6-11.3c-0.1-0.2-0.1-0.5-0.1-0.7
		c0-0.2-0.1-0.4-0.1-0.5c0.1,0,0.2-0.1,0.4-0.2c0.2,0,0.6,0.3,1,1.1l-0.1-0.5c-0.1-0.7-0.2-1-0.4-1L298.6,186.9z"/>
	<path d="M302.9,186.5c0.1,0,0.2,0.1,0.4,0.3l0,0.6c0,0.8,0,1.4,0,1.9c0,0.5,0,1,0,1.4c0,0.4,0,0.7,0,1c0,0.3,0.1,0.6,0.1,0.8
		c0,0.3,0.1,0.6,0.1,0.9c0,0.3,0.1,0.7,0.1,1.1c0.1,0.8,0.2,1.7,0.3,2.7c0.1,0.9,0.3,1.9,0.4,3l0,0.1c0,0.2-0.1,0.3-0.2,0.3l-0.4,0
		c0,0-0.1,0-0.1,0l0,0c-0.7,0-1-0.1-1-0.1c0,0-0.1,0.2-0.4,0.7l-0.1,0c-0.2,0-0.4,0-0.5-0.1c-0.1-0.1-0.2-0.3-0.2-0.5l-0.3-3.9
		l-0.1-0.3l0.1,0c0-0.1-0.1-0.2-0.1-0.4c0-0.2-0.1-0.4-0.1-0.6c0-0.1,0-0.2,0-0.3c0-0.1,0-0.2,0-0.3l-0.3-3.7c0-0.1,0-0.2,0-0.2
		l-0.1-0.1c0-0.1,0-0.2,0-0.2l-0.1-0.1l-0.3-2.8l0-0.6c0.1-0.2,0.1-0.3,0.1-0.4l1.3,0c0.2-0.1,0.4-0.2,0.6-0.2
		c0.2,0,0.4-0.1,0.5-0.1L302.9,186.5z M301.3,187.7l0.1,1.3c0,0.1,0,0.2,0,0.3c0,0.1,0,0.2,0,0.2c0,0.2,0,0.3,0.1,0.4
		c0,0.1,0,0.2,0.1,0.3c0,0.6,0,1.1,0,1.5l0.2,2.8c0.1,1,0.2,1.8,0.3,2.3c0.1,0.5,0.1,0.9,0.1,0.9l0.1,1.9l0.4,0.1l0.6,0
		c-0.3-2.3-0.6-4.2-0.7-5.6c-0.1-0.5-0.1-0.9-0.1-1.3c0-0.4-0.1-0.7-0.1-0.9l-0.1-0.2c0.1-0.2,0.1-0.3,0.1-0.4c0,0,0,0-0.1,0
		l0.1-0.3c0-0.2,0-0.6,0-1.2c0-0.6,0-1.3,0-2.2L301.3,187.7z"/>
	<path d="M305.1,186.1c0.5-0.1,0.9,1,1.2,3.2c0,0.1,0,0.2-0.1,0.2l0.2,0.7l0.2,2c0,0.2-0.1,0.3-0.2,0.3l-0.2,0
		c-0.2,0-0.4-0.2-0.5-0.7s-0.4-1.2-0.7-2.2l0.3,7.5l1.2-2l0.6-0.1c0.2,0,0.3,0.1,0.3,0.2c0,0.3-0.2,0.8-0.7,1.4
		c-0.5,0.9-0.9,2.1-1.1,3.7l-0.4,0c-0.3-0.1-0.5-0.3-0.5-0.6c-0.1-1.1-0.3-4.9-0.6-11.3c-0.1-0.2-0.1-0.5-0.1-0.7
		c0-0.2-0.1-0.4-0.1-0.5c0.1,0,0.2-0.1,0.4-0.2c0.2,0,0.6,0.3,1,1.1l-0.1-0.5c-0.1-0.7-0.2-1-0.4-0.9L305.1,186.1z"/>
	<path d="M308.5,185.8l1.3-0.2l0.3,0.2l0.1,0.3l-0.1,0.5c0,0.3-0.1,0.6-0.1,1.1c0,0.5,0,1,0.1,1.6c0.1,0,0.2,0.1,0.2,0.3l0,0.1
		c-0.3,0.2-0.4,1.1-0.2,2.8l0.1,0.9c0.3,3,1,5,2.1,6c0.1,0.2,0.2,0.3,0.2,0.5c-0.2,0.1-0.3,0.2-0.4,0.2c-1.4-0.6-2.4-2.9-2.8-6.8
		l-0.3-2.5l-0.8,0.2c0.2,2,0,4.7-0.6,7.9l-0.2,0l-0.5-0.5l0-0.4c0.5-2.7,0.6-5,0.4-6.9c-0.1,0-0.2-0.1-0.4-0.4l0-0.3
		c0.3,0,0.4-0.1,0.4-0.3l-0.3-3c0-0.1,0-0.2-0.1-0.3c0-0.1,0-0.2-0.1-0.4C306.8,186.1,307.4,185.9,308.5,185.8z M308,186.9
		c0,0.1,0,0.4,0.1,0.9c0,0.5,0.1,1.2,0.2,2.1c0.1,0,0.1,0,0.1,0.1c0.6-0.1,0.9-0.4,0.9-0.8l0.1-2.3l-0.2-0.1L308,186.9z"/>
	<path d="M318,184.6c0.5-0.1,0.9,1,1.2,3.2c0,0.1,0,0.2-0.1,0.2l0.2,0.7l0.2,2c0,0.2-0.1,0.3-0.2,0.3l-0.2,0c-0.2,0-0.4-0.2-0.5-0.7
		c-0.1-0.5-0.4-1.2-0.7-2.2l0.3,7.5l1.2-2l0.6-0.1c0.2,0,0.3,0.1,0.3,0.2c0,0.3-0.2,0.8-0.7,1.4c-0.5,0.9-0.9,2.1-1.1,3.7l-0.4,0
		c-0.3-0.1-0.5-0.3-0.5-0.6c-0.1-1.1-0.3-4.9-0.6-11.3c-0.1-0.2-0.1-0.5-0.1-0.7c0-0.2-0.1-0.4-0.1-0.5c0.1,0,0.2-0.1,0.4-0.2
		c0.2,0,0.6,0.3,1,1.1l-0.1-0.5c-0.1-0.7-0.2-1-0.4-0.9L318,184.6z"/>
	<path d="M322.3,184.2c0.1,0,0.2,0.1,0.4,0.3l0,0.6c0,0.8,0,1.4,0,1.9c0,0.5,0,1,0,1.4c0,0.4,0,0.7,0,1c0,0.3,0.1,0.6,0.1,0.8
		s0.1,0.6,0.1,0.9c0,0.3,0.1,0.7,0.1,1.1c0.1,0.8,0.2,1.7,0.3,2.7c0.1,0.9,0.3,1.9,0.4,3l0,0.1c0,0.2-0.1,0.3-0.2,0.3l-0.4,0
		c0,0-0.1,0-0.1,0l0,0c-0.7,0-1-0.1-1-0.2c0,0-0.1,0.2-0.4,0.7l-0.1,0c-0.2,0-0.4,0-0.5-0.1c-0.1-0.1-0.2-0.3-0.2-0.5l-0.3-3.9
		l-0.1-0.3l0.1,0c0-0.1-0.1-0.2-0.1-0.4c0-0.2-0.1-0.4-0.1-0.6c0-0.1,0-0.2,0-0.3c0-0.1,0-0.2,0-0.3l-0.3-3.7c0-0.1,0-0.2,0-0.2
		l-0.1-0.1c0-0.1,0-0.2,0-0.2l-0.1-0.1l-0.3-2.8l0-0.6c0.1-0.2,0.1-0.3,0.1-0.4l1.3,0c0.2-0.1,0.4-0.2,0.6-0.2
		c0.2,0,0.4-0.1,0.5-0.1L322.3,184.2z M320.7,185.5l0.1,1.3c0,0.1,0,0.2,0,0.3s0,0.2,0,0.2c0,0.2,0,0.3,0.1,0.4c0,0.1,0,0.2,0.1,0.3
		c0,0.6,0,1.1,0,1.5l0.2,2.8c0.1,1,0.2,1.8,0.3,2.3c0.1,0.5,0.1,0.9,0.1,0.9l0.1,1.9l0.4,0.1l0.6,0c-0.3-2.3-0.6-4.2-0.7-5.6
		c-0.1-0.5-0.1-0.9-0.1-1.3c0-0.4-0.1-0.7-0.1-0.9l-0.1-0.2c0.1-0.2,0.1-0.3,0.1-0.4c0,0,0,0-0.1,0l0.1-0.3c0-0.2,0-0.6,0-1.2
		c0-0.6,0-1.3,0-2.2L320.7,185.5z"/>
	<path d="M323.4,183.5l0.4,0c0.2,0,0.4,0.1,0.6,0.5c0,1.3,0,2.3,0,3.2c0,0.9-0.1,1.5-0.1,2c0,0,0,0,0.1,0c0,0.7,0,1.2,0,1.7
		c0,0.5,0,0.8,0.1,1.1l0,0c0,0.4,0,0.8,0.1,1.1c0,0.3,0,0.5,0.1,0.7l0.3,2.7c0.3-0.2,0.8-0.4,1.3-0.7c-0.2-0.7-0.4-1.4-0.5-1.9
		c-0.1-0.6-0.2-1-0.3-1.4c0.1-0.1,0.1-0.2,0.1-0.2l-0.1,0l0.2-2.9c0.3-0.1,0.4-0.2,0.4-0.3c0.5,0.1,0.7,0.2,0.8,0.4
		c-0.3,1-0.3,2.2-0.2,3.6c0.1,0.1,0.1,0.2,0.2,0.3l0,0c0,0,0.1,0.1,0.1,0.2l0,0l0.1,0.1l0,0.4c0.1,0.5,0.3,1.1,0.7,1.8l0,0.2
		c0,0.2-0.4,0.4-1.4,0.6c-0.7,0.4-1.2,0.9-1.5,1.5l-0.3,0c0-0.1-0.2-0.2-0.5-0.3c0-0.4,0.1-0.7,0-1.1c0-0.4,0-0.9-0.1-1.3l-0.2-1.4
		l0-0.1l-0.1,0l0.1-0.3l-0.2,0l0.1-0.3l-0.1-1.2c-0.1-0.5-0.1-1.5-0.1-2.8c0-1.3,0-3,0.1-5.1c-0.1-0.1-0.1-0.2-0.2-0.3L323.4,183.5z
		"/>
	<path d="M328.9,183.4l1.3-0.2l0.3,0.2l0.1,0.3l-0.1,0.5c0,0.3-0.1,0.6-0.1,1.1c0,0.5,0,1,0.1,1.6c0.1,0,0.2,0.1,0.2,0.3l0,0.1
		c-0.3,0.2-0.4,1.1-0.2,2.8l0.1,0.9c0.3,3,1,5,2.1,6c0.1,0.2,0.2,0.3,0.2,0.5c-0.2,0.1-0.3,0.2-0.4,0.2c-1.4-0.6-2.4-2.9-2.8-6.8
		l-0.3-2.5l-0.8,0.2c0.2,2,0,4.7-0.6,7.9l-0.2,0l-0.5-0.5l0-0.4c0.5-2.7,0.6-5,0.4-6.9c-0.1,0-0.2-0.1-0.4-0.4l0-0.3
		c0.3,0,0.4-0.1,0.4-0.3l-0.3-3c0-0.1,0-0.2-0.1-0.3c0-0.1-0.1-0.2-0.1-0.4C327.2,183.8,327.7,183.6,328.9,183.4z M328.3,184.6
		c0,0.1,0,0.4,0.1,0.9c0,0.5,0.1,1.2,0.2,2.1c0.1,0,0.1,0,0.1,0.1c0.6-0.1,0.9-0.4,0.9-0.8l0.1-2.3l-0.2-0.1L328.3,184.6z"/>
</g>
<g>
	<path d="M352.7,116.5c0.2,0.1,0.3,0.2,0.3,0.3l0,0.2l-0.1,0.2c-0.1,0.3-0.3,0.8-0.6,1.5c-0.3,0.7-0.8,1.7-1.3,2.9
		c-0.1,0.1-0.1,0.3-0.2,0.4s-0.1,0.2-0.1,0.3c-0.1,0.2-0.2,0.4-0.2,0.5l0,0.1c0,0.2,0.1,0.2,0.2,0.3c0,0,0.1,0,0.1,0
		c1.2-2.5,2.1-4.4,3-5.7l0.2,0c0,0,0.1,0.1,0.1,0.1c0.1,0.1,0.1,0.2,0.2,0.4c-0.8,1.1-1.6,2.6-2.5,4.6c-0.1,0.2-0.2,0.3-0.2,0.4
		c-0.1,0.1-0.1,0.2-0.1,0.3c0,0.1-0.1,0.2-0.1,0.2l0,0c0.1,0,0.1,0.1,0.1,0.2l0,0.1c0,0,0,0,0,0.1c0,0,0,0.1,0,0.1
		c-0.1,0.2-0.3,0.4-0.6,0.7c-0.1,0.2-0.2,0.4-0.3,0.6c-0.1,0.2-0.1,0.4-0.2,0.6c-0.4,1-0.7,1.8-0.9,2.5c-0.2,0.7-0.4,1.4-0.5,1.9
		l0,0.1c0,0.1,0,0.3,0,0.4c0,0.1,0,0.3-0.1,0.5c-0.1,0.1-0.1,0.3-0.2,0.3c-0.1,0.1-0.1,0.1-0.1,0.1c0,0-0.1,0-0.1,0c0,0-0.1,0-0.1,0
		c-0.2-0.1-0.2-0.3-0.2-0.6l0-0.3c0.1-0.8,0.3-1.6,0.6-2.5c0.2-0.9,0.6-1.8,0.9-2.8c0.1-0.2,0.2-0.5,0.3-0.8
		c0.1-0.3,0.2-0.5,0.4-0.8c-0.1-0.1-0.2-0.2-0.2-0.2c0,0-0.1,0-0.1,0.1c0,0.1-0.1,0.2-0.1,0.3c-0.1,0.1-0.1,0.2-0.1,0.4
		c0,0.1-0.1,0.2-0.1,0.3c-0.5,1.2-1,2.8-1.5,4.6l-0.2,0.1l-0.1,0c0,0-0.1-0.1-0.1-0.1c-0.1-0.1-0.1-0.2-0.2-0.4
		c0.5-1.7,1.3-3.9,2.3-6.6c0.7-1.8,1.3-3.2,1.8-4.3c0.5-1,0.8-1.6,0.9-1.8L352.7,116.5z"/>
	<path d="M357.4,118.9l0.3,0.3l-0.1,0.1c-0.6,0.7-1.1,1.3-1.4,1.9c-0.3,0.5-0.6,0.9-0.7,1.2l-0.2,0.5c0,0.2-0.1,0.3-0.1,0.5
		c0,0.1-0.1,0.2-0.1,0.3l-0.2,0c-0.3-0.3-0.4-0.7-0.3-1.1l0.4-0.8c0.4-0.6,0.9-1.3,1.5-2c0,0,0,0,0-0.1c-0.9,0-1.3-0.1-1.4,0
		c0,0.2,0,0.3-0.1,0.4l0,0.1l-0.4,0.8c0,0,0,0,0.1,0.1c-0.1,0.1-0.1,0.2-0.1,0.2l0,0c0,0.1,0,0.1-0.1,0.1l0,0
		c-0.1,0.3-0.3,0.5-0.4,0.7c-0.1,0.2-0.2,0.4-0.2,0.5l-1.2,2.6l0,0c0.1,0,0.3,0,0.7,0l0,0.3c-0.1,0.2-0.4,0.3-1,0.3l-0.3,0.8
		c-0.2,0.4-0.4,0.8-0.5,1.1c-0.2,0.3-0.3,0.6-0.4,0.9c-0.1,0.2-0.2,0.4-0.2,0.6c-0.1,0.2-0.1,0.3-0.1,0.4h0.1l0.6,0.3l0.3-0.9
		c0.5-0.9,0.9-1.5,1.2-1.8c0.3-0.4,0.6-0.5,0.8-0.4l0.1,0.3c-0.3,0.5-0.6,0.9-0.7,1.1c-0.2,0.3-0.3,0.5-0.3,0.5l-0.4,0.9l-0.1,0.1
		c-0.1,0.1-0.1,0.3-0.2,0.5c0,0.2-0.1,0.4-0.1,0.6l-0.4,0.3c-0.3-0.4-0.5-0.6-0.6-0.7c-0.1,0-0.2,0-0.2-0.1c-0.1,0-0.1,0-0.2-0.1
		c-0.1,0-0.2-0.1-0.2-0.1l-0.2,0.5c0,0.1-0.2,0.1-0.5,0c-0.1,0-0.1-0.1-0.2-0.1c0,0-0.1-0.2-0.1-0.5c-0.2,0-0.4,0.1-0.5,0
		c-0.1,0-0.2,0-0.3,0c0-0.1-0.1-0.2-0.2-0.3l0.2-0.4c0.2,0,0.4,0,0.6,0c0.2,0,0.4,0,0.6,0l0.3-0.7c0.2-0.4,0.3-0.8,0.5-1.2
		c0.2-0.4,0.3-0.8,0.5-1.2l0-0.2c0.1-0.1,0.1-0.1,0.1-0.2c0-0.1,0-0.1,0-0.2l0,0l0,0c-0.1,0-0.2-0.1-0.5-0.1
		c-0.3-0.1-0.4-0.4-0.4-0.7c0.1-0.1,0.2-0.2,0.2-0.2l0,0l0.2,0.1c0.1,0,0.1,0.1,0.1,0.1c0.5,0.1,0.7,0.1,0.8,0
		c0.1-0.2,0.8-1.8,2.2-4.7c0,0,0-0.1,0-0.2l0,0l0.2-0.6c-0.3-0.1-0.5-0.1-0.5,0l-0.1-0.2l0,0c0,0-0.1,0-0.2,0
		c-0.1-0.1-0.1-0.4,0-0.7c0.1,0,0.2,0,0.3,0c0.1,0,0.2,0,0.2,0l0,0l0,0C355.6,119,356.7,119,357.4,118.9z"/>
	<path d="M356.5,123.8l0.4-0.1l0.3,0.1c0.1,0.1,0.1,0.2,0.1,0.3l0,0l-0.3,0.5c-0.9,1.8-1.6,3.5-2.2,4.9c-0.3,0.7-0.6,1.5-0.8,2.1
		l-0.2,0.3l-0.5-0.1c-0.1-0.1,0.1-0.9,0.6-2.4l0.2-0.1c0-0.1,0.1-0.2,0.1-0.3c0-0.1,0.1-0.2,0.1-0.3c0.2-0.5,0.5-1.2,0.8-2
		C355.6,125.9,356,124.9,356.5,123.8z M358.6,123.2l-0.2,0.2l-0.2,0.1c0,0-0.1,0-0.1,0c0,0-0.1,0-0.1-0.1l-0.4-1.1
		c-0.3,0.2-0.6,0.3-0.8,0.5c-0.3,0.1-0.5,0.3-0.7,0.4l-0.2,0.1l-0.2-0.3c0,0,0-0.1,0-0.1c0-0.1,0.2-0.3,0.6-0.5l0.2,0
		c0.1-0.1,0.3-0.2,0.4-0.3c0.2-0.1,0.3-0.2,0.5-0.3c-0.1-0.2-0.2-0.4-0.3-0.6c-0.1-0.2-0.2-0.4-0.3-0.6l-0.1-0.2l0.3-0.2
		c0,0,0,0,0.1,0c0.1,0,0.2,0.2,0.3,0.5l0,0.2c0,0.1,0.1,0.2,0.2,0.3c0.1,0.1,0.1,0.2,0.2,0.4c0.2-0.1,0.4-0.2,0.6-0.3
		c0.2-0.1,0.4-0.2,0.7-0.4l0.2,0.1l0.1,0.2c0,0,0,0.1,0,0.1c0,0,0,0.1-0.1,0.1l-0.4,0.2c-0.2,0.1-0.3,0.1-0.5,0.2
		c-0.1,0.1-0.3,0.2-0.4,0.2C358.2,122.4,358.4,122.8,358.6,123.2z"/>
	<path d="M360.3,120l0.3,0.1c0.1,0.1,0.2,0.3,0.2,0.7c-0.5,1.1-1,2-1.4,2.7c-0.4,0.7-0.7,1.3-0.9,1.6c0,0,0,0,0.1,0.1
		c-0.3,0.6-0.5,1-0.7,1.4c-0.2,0.4-0.3,0.7-0.4,1l0,0c-0.2,0.4-0.3,0.7-0.4,0.9c-0.1,0.3-0.2,0.5-0.3,0.6l-0.9,2.4
		c0.3-0.1,0.7-0.1,1.1-0.1c0.2-0.7,0.3-1.3,0.5-1.9c0.2-0.5,0.3-1,0.4-1.3c0.1-0.1,0.2-0.1,0.2-0.1l-0.1,0l1.4-2.4
		c0.2,0,0.4,0,0.4-0.1c0.3,0.3,0.4,0.5,0.4,0.6c-0.6,0.8-1.2,1.8-1.7,3c0,0.1,0,0.3,0,0.4l0,0c0,0.1,0,0.1,0,0.2l0,0v0.1l-0.1,0.3
		c-0.2,0.4-0.3,1-0.3,1.8l-0.1,0.2c-0.1,0.2-0.5,0.2-1.2,0c-0.6,0.1-1.2,0.3-1.6,0.7l-0.2-0.1c0-0.1,0-0.3-0.2-0.5
		c0.2-0.3,0.4-0.6,0.5-1c0.2-0.4,0.3-0.7,0.5-1.2l0.5-1.3l0.1-0.1l-0.1,0l0.2-0.2l-0.1,0l0.2-0.2l0.4-1.1c0.2-0.5,0.6-1.3,1.1-2.4
		c0.6-1.1,1.3-2.6,2.3-4.4c0-0.1,0-0.2,0-0.4L360.3,120z"/>
	<path d="M366.9,122c0.2,0.1,0.3,0.2,0.3,0.3l0,0.2l-0.1,0.2c-0.1,0.3-0.3,0.8-0.6,1.5c-0.3,0.7-0.8,1.7-1.3,2.9
		c-0.1,0.1-0.1,0.3-0.2,0.4c0,0.1-0.1,0.2-0.1,0.3c-0.1,0.2-0.2,0.4-0.2,0.5l0,0.1c0,0.2,0.1,0.2,0.2,0.3c0,0,0.1,0,0.1,0
		c1.2-2.5,2.1-4.4,3-5.7l0.2,0c0,0,0.1,0.1,0.1,0.1c0.1,0.1,0.1,0.2,0.2,0.4c-0.8,1.1-1.6,2.6-2.5,4.6c-0.1,0.2-0.2,0.3-0.2,0.4
		c-0.1,0.1-0.1,0.2-0.1,0.3c0,0.1-0.1,0.2-0.1,0.2l0,0c0.1,0,0.1,0.1,0.1,0.2l0,0.1c0,0,0,0,0,0.1c0,0,0,0.1,0,0.1
		c-0.1,0.2-0.3,0.4-0.6,0.7c-0.1,0.2-0.2,0.4-0.3,0.6c-0.1,0.2-0.1,0.4-0.2,0.6c-0.4,1-0.7,1.8-0.9,2.5c-0.2,0.7-0.4,1.4-0.5,1.9
		l0,0.1c0,0.1,0,0.3,0,0.4c0,0.1,0,0.3-0.1,0.5c-0.1,0.1-0.1,0.3-0.2,0.3c-0.1,0.1-0.1,0.1-0.1,0.1c0,0-0.1,0-0.1,0c0,0-0.1,0-0.1,0
		c-0.2-0.1-0.2-0.3-0.2-0.6l0-0.3c0.1-0.8,0.3-1.6,0.6-2.5c0.2-0.9,0.6-1.8,0.9-2.8c0.1-0.2,0.2-0.5,0.3-0.8
		c0.1-0.3,0.2-0.5,0.4-0.8c-0.1-0.1-0.2-0.2-0.2-0.2c0,0-0.1,0-0.1,0.1c0,0.1-0.1,0.2-0.1,0.3c-0.1,0.1-0.1,0.2-0.1,0.4
		c0,0.1-0.1,0.2-0.1,0.3c-0.5,1.2-1,2.8-1.5,4.6l-0.2,0.1l-0.1,0c0,0-0.1-0.1-0.1-0.1c-0.1-0.1-0.1-0.2-0.2-0.4
		c0.5-1.7,1.3-3.9,2.3-6.6c0.7-1.8,1.3-3.2,1.8-4.3c0.5-1,0.8-1.6,0.9-1.8L366.9,122z"/>
	<path d="M367.4,128l0.4-0.1l0.3,0.1c0.1,0.1,0.1,0.2,0.1,0.3l0,0l-0.3,0.5c-0.9,1.8-1.6,3.5-2.2,4.9c-0.3,0.7-0.6,1.5-0.8,2.1
		l-0.2,0.3l-0.5-0.1c-0.1-0.1,0.1-0.9,0.6-2.4l0.2-0.1c0-0.1,0.1-0.2,0.1-0.3c0-0.1,0.1-0.2,0.1-0.3c0.2-0.5,0.5-1.2,0.8-2
		C366.4,130.1,366.9,129.2,367.4,128z M369.4,127.5l-0.2,0.2l-0.2,0.1c0,0-0.1,0-0.1,0c0,0-0.1,0-0.1-0.1l-0.4-1.1
		c-0.3,0.2-0.6,0.3-0.8,0.5c-0.3,0.1-0.5,0.3-0.7,0.4l-0.2,0.1l-0.2-0.3c0,0,0-0.1,0-0.1c0-0.1,0.2-0.3,0.6-0.5l0.2,0
		c0.1-0.1,0.3-0.2,0.4-0.3c0.2-0.1,0.3-0.2,0.5-0.3c-0.1-0.2-0.2-0.4-0.3-0.6c-0.1-0.2-0.2-0.4-0.3-0.6l-0.1-0.2l0.3-0.2
		c0,0,0,0,0.1,0c0.1,0,0.2,0.2,0.3,0.5l0,0.2c0,0.1,0.1,0.2,0.2,0.3c0.1,0.1,0.1,0.2,0.2,0.4c0.2-0.1,0.4-0.2,0.6-0.3
		c0.2-0.1,0.4-0.2,0.7-0.4l0.2,0.1l0.1,0.2c0,0,0,0.1,0,0.1c0,0,0,0.1-0.1,0.1l-0.4,0.2c-0.2,0.1-0.3,0.1-0.5,0.2
		c-0.1,0.1-0.3,0.2-0.4,0.2C369,126.7,369.2,127.1,369.4,127.5z"/>
	<path d="M372.6,125c0.4,0.2,0.7,0.4,0.9,0.5c0.2,0.1,0.4,0.3,0.5,0.4c-0.6,0.8-1.1,1.6-1.4,2.5l-0.4,1.1l-0.6,0
		c-0.1,0-0.1-0.2-0.1-0.5c0.1-0.2,0.2-0.4,0.3-0.6c0.1-0.2,0.1-0.3,0.2-0.4l0.2-0.6l0.1-0.1l0,0c0.3-0.5,0.5-0.7,0.5-0.8
		c0.1-0.2,0-0.4-0.4-0.5c-0.1,0-0.1,0-0.1,0.1l-0.7,1.7l-0.2,0.4c0,0,0,0.1,0,0.2l-0.1,0.2c-0.3,0.8-0.8,2-1.4,3.4
		c-0.6,1.5-1.4,3.3-2.3,5.4l0,0.1c-0.2,0.2-0.4,0.3-0.5,0.3l-0.1,0c-0.3-0.1-0.4-0.3-0.3-0.5l0.1-0.3c0.7-1.6,1.5-3.3,2.3-5.2
		c0.8-1.9,1.6-3.9,2.5-6.2l-0.3-0.1l-0.1,0l0.1,0c-0.1,0.2-0.2,0.6-0.4,1c-0.2,0.4-0.4,0.9-0.6,1.5c-0.5,1.1-0.9,1.6-1.3,1.5
		c-0.1-0.1-0.1-0.4,0.1-0.8c0.1-0.2,0.2-0.3,0.3-0.6c0.1-0.2,0.3-0.5,0.4-0.7l0.4-1.1l0.2-0.4c0.3-0.7,0.4-1.2,0.5-1.5
		c0.2-0.2,0.4-0.2,0.6-0.1l0.7,0.4L372.6,125z"/>
	<path d="M374.8,125.6l0.3,0.1c0.1,0.1,0.2,0.3,0.2,0.7c-0.5,1.1-1,2-1.4,2.7c-0.4,0.7-0.7,1.3-0.9,1.6c0,0,0,0,0.1,0.1
		c-0.3,0.6-0.5,1-0.7,1.4c-0.2,0.4-0.3,0.7-0.4,1l0,0c-0.2,0.4-0.3,0.7-0.4,0.9c-0.1,0.3-0.2,0.5-0.3,0.6l-0.9,2.4
		c0.3-0.1,0.7-0.1,1.1-0.1c0.2-0.7,0.3-1.3,0.5-1.9c0.2-0.5,0.3-1,0.4-1.3c0.1-0.1,0.2-0.1,0.2-0.1l-0.1,0l1.4-2.4
		c0.2,0,0.4,0,0.4-0.1c0.3,0.3,0.4,0.5,0.4,0.6c-0.6,0.8-1.2,1.8-1.7,3c0,0.1,0,0.3,0,0.4l0,0c0,0.1,0,0.1,0,0.2l0,0v0.1l-0.1,0.3
		c-0.2,0.4-0.3,1-0.3,1.8l-0.1,0.2c-0.1,0.2-0.5,0.2-1.2,0c-0.6,0.1-1.2,0.3-1.6,0.7l-0.2-0.1c0-0.1,0-0.3-0.2-0.5
		c0.2-0.3,0.4-0.6,0.5-1c0.2-0.4,0.3-0.7,0.5-1.2l0.5-1.3l0.1-0.1l-0.1,0l0.2-0.2l-0.1,0l0.2-0.2l0.4-1.1c0.2-0.5,0.6-1.3,1.1-2.4
		c0.6-1.1,1.3-2.6,2.3-4.4c0-0.1,0-0.2,0-0.4L374.8,125.6z"/>
	<path d="M380.3,127.9l0.3,0.3l-0.1,0.1c-0.6,0.7-1.1,1.3-1.4,1.9c-0.3,0.5-0.6,0.9-0.7,1.2l-0.2,0.5c0,0.2-0.1,0.3-0.1,0.5
		c0,0.1-0.1,0.2-0.1,0.3l-0.2,0c-0.3-0.3-0.4-0.7-0.3-1.1l0.4-0.8c0.4-0.6,0.9-1.3,1.5-2c0,0,0,0,0-0.1c-0.9,0-1.3-0.1-1.4,0
		c0,0.2,0,0.3-0.1,0.4l0,0.1l-0.4,0.8c0,0,0,0,0.1,0.1c-0.1,0.1-0.1,0.2-0.1,0.2l0,0c0,0.1,0,0.1-0.1,0.1l0,0
		c-0.1,0.3-0.3,0.5-0.4,0.7c-0.1,0.2-0.2,0.4-0.2,0.5l-1.2,2.6l0,0c0.1,0,0.3,0,0.7,0l0,0.3c-0.1,0.2-0.4,0.3-1,0.3l-0.3,0.8
		c-0.2,0.4-0.4,0.8-0.5,1.1c-0.2,0.3-0.3,0.6-0.4,0.9c-0.1,0.2-0.2,0.4-0.2,0.6c-0.1,0.2-0.1,0.3-0.1,0.4l0.1,0l0.6,0.3l0.3-0.9
		c0.5-0.9,0.9-1.5,1.2-1.8c0.3-0.4,0.6-0.5,0.8-0.4l0.1,0.3c-0.3,0.5-0.6,0.9-0.7,1.1c-0.2,0.3-0.3,0.5-0.3,0.5l-0.4,0.9l-0.1,0.1
		c-0.1,0.1-0.1,0.3-0.2,0.5c0,0.2-0.1,0.4-0.1,0.6l-0.4,0.3c-0.3-0.4-0.5-0.6-0.6-0.7c-0.1,0-0.2,0-0.2-0.1c-0.1,0-0.1,0-0.2-0.1
		c-0.1,0-0.2-0.1-0.2-0.1l-0.2,0.5c0,0.1-0.2,0.1-0.5,0c-0.1,0-0.1-0.1-0.2-0.1c0,0-0.1-0.2-0.1-0.5c-0.2,0-0.4,0.1-0.5,0
		c-0.1,0-0.2,0-0.3,0c0-0.1-0.1-0.2-0.2-0.3l0.2-0.4c0.2,0,0.4,0,0.6,0c0.2,0,0.4,0,0.6,0l0.3-0.7c0.2-0.4,0.3-0.8,0.5-1.2
		s0.3-0.8,0.5-1.2l0-0.2c0.1-0.1,0.1-0.1,0.1-0.2c0-0.1,0-0.1,0-0.2l0,0l0,0c-0.1,0-0.2-0.1-0.5-0.1c-0.3-0.1-0.4-0.4-0.4-0.7
		c0.1-0.1,0.2-0.2,0.2-0.2l0,0l0.2,0.1c0.1,0,0.1,0.1,0.1,0.1c0.5,0.1,0.7,0.1,0.8,0c0.1-0.2,0.8-1.8,2.2-4.7c0,0,0-0.1,0-0.2l0,0
		l0.2-0.6c-0.3-0.1-0.5-0.1-0.5,0l-0.1-0.2l0,0c0,0-0.1,0-0.2,0c-0.1-0.1-0.1-0.4,0-0.7c0.1,0,0.2,0,0.3,0c0.1,0,0.2,0,0.2,0l0,0
		l0,0C378.5,128,379.6,128.1,380.3,127.9z"/>
	<path d="M382.3,128.8c0.2,0.2,0.2,0.4,0.2,0.5l-0.3,0.7c-0.3,0.6-0.6,1.2-1,2c-0.4,0.8-0.7,1.8-1.2,2.9c0,0,0,0.1-0.1,0.3
		c-0.1,0.2-0.1,0.4-0.3,0.8c-0.1,0.1-0.4,0.1-0.8-0.1c0.1,0.2,0,0.7-0.1,1.3c-0.1,0.7-0.3,1.5-0.7,2.6c-0.3,1.1-0.2,1.7,0.4,2
		c0.3,0,0.7-0.1,1-0.3l0.1,0.1c0.1,0.1,0.1,0.3,0,0.6c-0.1,0.2-0.6,0.3-1.5,0.2l0,0c-0.1,0-0.1,0-0.2,0c-0.3-0.1-0.5-0.4-0.6-0.7
		c-0.1-0.3-0.1-0.7-0.1-1.1c0-0.4,0.1-0.9,0.3-1.4c0.1-0.5,0.3-0.9,0.4-1.4l-0.1,0.1c-0.1,0.4-0.5,1.4-1,3.1l0,0.1
		c-0.1,0.2-0.3,0.2-0.5,0.1c-0.1,0-0.2-0.2-0.1-0.5c0-0.3,0.1-0.7,0.3-1.1c0.1-0.4,0.3-1,0.5-1.5c0.2-0.6,0.5-1.2,0.7-1.8l0.2-0.5
		c-0.2-0.1-0.2-0.4,0-0.9c0.3,0,0.5-0.1,0.6-0.4l1.6-4.1l0.2-0.4c0-0.1,0-0.2,0-0.3c-0.4,0.1-0.6,0.1-0.7,0
		c-0.2-0.3-0.2-0.5-0.1-0.9L382.3,128.8z M380.8,130.8l-0.4,1.1c-0.1,0.1-0.1,0.2-0.2,0.3c0,0.1-0.2,0.7-0.6,1.8l0,0l-0.2,0.2
		l-0.2,0.5l0,0.3l-0.1,0l0.1,0.1l0.1,0l0,0c0.3-0.9,0.7-1.7,1.1-2.6c0.4-0.9,0.8-1.8,1.2-2.7C381.3,129.6,381.1,130,380.8,130.8z"/>
</g>
<path fill="none" d="M113.7,109.6c-5.7,0.3-4.4-3.4-5.7,0.3c-1.4,3.7,0,11.1-2.7,6.4c-2.7-4.7,2.7-9.1-2.7-8.1c-5.4,1-6.1-2.7-5.4,1
	c0.7,3.7,1.7,8.9,1.7,8.9c3.7,5.7,7.1,6.3,4.7,12.7c-2.4,6.4-7.1,5.4-3.4,11.5c3.7,6.1,5.3,2.4,4.2,10.8c-1.1,8.4-6.1,9.8-2.6,15.5
	c3.5,5.8,4.8,2.9,5.5,10.7s-1.7,8.2,2,10.2c3.7,2,7.4,0.7,6.4-3.9c-1-4.6,4.1,5.7-2-7.4c-6.1-13-8.4-7-6.1-13
	c2.4-6.1,1.4-2.4,2.7-7.8c1.4-5.4,5.1-1.7,2.4-8.1c-2.7-6.4-4.1,8.4-2.7-6.4c1.4-14.9,3.7-17.7,4.4-20.2s8.8-1.1,5.7-6.5
	C117.1,111,119.4,109.3,113.7,109.6z"/>
<polygon fill="#8B8C8C" points="261,85 261,76.3 20,76.3 20,88.3 268,88.3 268,86 "/>
<path fill="#8B8C8C" d="M553,76.3H317c0.5,3,1.5,8.9,1.5,8.9l-8.7,3.1l-1.6,0H553V76.3z"/>
<path fill="#E6E7E8" d="M148.4,86.3c0,0-4.4,1.5-6.3,5.6c-1.1-2.2-1.4-3.3-1.4-3.3s0.1-3.8,6.7-5.2L148.4,86.3z"/>
<path fill="#F9BD91" d="M119.8,70.8c-0.5,0-8.8,13.2-8.9,14c-0.2,0.8-2.2,8-2.2,8l-7.8-1.7l3.4-12.5l6.6-12.7L119.8,70.8z"/>
<path fill="#F9BD91" d="M103.8,9.6l-2.2,12.9l4.9,2.2l-2.5,4.4L95,25.4l6.5-18.3C101.5,7.1,103.9,8.6,103.8,9.6z"/>
<path fill="#F9BD91" d="M137,7.4l2.2,12.9l-4.9,2.2l2.5,4.4l8.9-3.7l-6.5-18.3C139.2,4.9,136.9,6.4,137,7.4z"/>
<g>
	<polygon fill="#E6E7E8" points="132.6,53.4 129.8,30.3 139.3,26.4 135.8,20 125.1,22.6 122.1,21.6 113.5,21.6 110.7,23.6 
		104.1,20.8 99.5,30.5 107.6,33.5 111.9,57 132.6,53.4 	"/>
	<polygon fill="#0071BC" points="109.5,62.9 95.1,107.8 99.5,109.5 124,66.5 133.2,76 145.8,75.9 132.8,53.4 112,57 112,57.1 	"/>
</g>
<path fill="#231F20" d="M108.6,9.2c-0.8-1.9,0.5-4.3,2.5-4.7c0.8-2.1,3.4-3.2,5.4-2.3c0.5-0.8,1.2-1.4,2.1-1.5
	c0.9-0.1,1.9,0.3,2.2,1.1c0.5-0.5,1.3-0.6,1.9-0.4s1.1,0.9,1.2,1.6c1.5,0,2.7,1.8,2.1,3.2c0.7,0.3,1.1,1,1.1,1.8
	c0,0.7-0.4,1.5-1,1.8c1,0.9,0.8,2.8-0.4,3.3c0.1,0.7,0.1,1.4,0,2.1s-0.6,1.3-1.3,1.5c-0.4,0.1-0.8,0.1-1.2,0.2
	c-0.5,0.1-1.1,0.2-1.6,0.4c-0.7,0.2-1.4,0.5-2.1,0.7c-2,0.7-4,1.3-5.9,2.1c-0.4,0.2-0.9,0.4-1.3,0.4c-0.5,0-1-0.2-1.2-0.6
	c-0.2-0.4,0-1,0.4-1.1c-0.5-0.1-1,0-1.5-0.1c-0.5,0-1-0.2-1.3-0.7c-0.2-0.4,0.1-1.1,0.6-1.1c-0.8,0.2-1.8-0.3-2.1-1
	c-0.3-0.8,0.1-1.8,0.8-2.2c-1-0.4-1.6-1.4-1.5-2.5S107.6,9.4,108.6,9.2z"/>
<path fill="#F9BD91" d="M123.6,5.4l0.6,14.5L122,20l0.2,4.8c0,0-2.3,5-8.5,0.3l-0.4-9.9c0,0-1.8-0.3-1.9-2.4s2.1-1.2,2.1-1.2
	l-0.2-5.8L123.6,5.4z"/>
<path fill="#231F20" d="M113.1,8.9l4-3.7l-2-0.8l-1.9,1.4C113.2,5.9,112.2,8.1,113.1,8.9z"/>
<circle fill="#F9BD91" cx="103.4" cy="6.5" r="3.8"/>
<circle fill="#F9BD91" cx="137" cy="3.8" r="3.8"/>
<path fill="#231F20" d="M112.5,10c0,0,3-0.2,3.4-2.7c0,0,2.7,1.7,3.9-0.8c0,0,1.5,2.4,3.2,0.7c0,0,0.7,3,2,1.9l-0.5-4.4l-8.4-0.3
	L112,7.8L112.5,10z"/>
<path fill="#050503" d="M99.5,109.5c0,0-4.1-3.5-7.8-4.1s-4.2,2.2-3,3.7C89.9,110.6,96.8,113.2,99.5,109.5z"/>
<path fill="#F9BD91" d="M100.7,90.9c0,0,4.6,0.8,6.8,5.4c0.7-1.6,1.2-3.4,1.2-3.4s-0.4-3.8-7-4.8L100.7,90.9z"/>
<path fill="#0071BC" d="M351.4,66.8c-0.5,0-13.7,13.3-13.9,14.2c-0.2,0.8,0.5,4.7,0.5,4.7l-8.9-1.5l-1.2-5.7l15.9-20.9L351.4,66.8z"
	/>
<path fill="#F9BD91" d="M329.2,84l6.5,19.6l4.5-1.3c0,0,1-8.8-2.7-18.8C337.5,83.6,333.2,81.6,329.2,84z"/>
<path fill="#050503" d="M340.2,102.4c0,0-5.4-0.4-8.6,1.4c-3.3,1.8-2.1,4.3-0.2,4.8C333.2,109.1,340.2,107,340.2,102.4z"/>
<path fill="#0071BC" d="M364.4,61.1c-0.5,0.1-7.8,23.4-7.8,24.3c0,0.9,1.9,4.4,1.9,4.4l-9,1.2l-2.8-5.1l4.7-19L364.4,61.1z"/>
<path fill="#F9BD91" d="M349.6,90.8l12.1,16.8l3.9-2.6c0,0-1.7-8.6-8.2-17.1C357.4,87.8,352.8,87.2,349.6,90.8z"/>
<path fill="#050503" d="M365.6,105c0,0-5.2,1.2-7.8,3.9c-2.6,2.7-0.7,4.7,1.2,4.6C360.9,113.5,367,109.3,365.6,105z"/>
<path fill="#F9BD91" d="M386,12.2l-9,13.9l-7.3,2.7l2.5,4.4l8.9-3.7l8.3-16.6C389.5,12.8,388.5,10.2,386,12.2z"/>
<path fill="#F9BD91" d="M339.2,11.5L337,24.4l4.9,2.2l-2.5,4.4l-8.9-3.7l6.5-18.3C336.9,8.9,339.3,10.4,339.2,11.5z"/>
<polygon points="341.3,60.7 346.4,34.4 336.9,30.5 340.4,24.1 351.1,26.6 354.4,27.5 361.3,28.4 368.9,26.7 372.1,24.9 376.6,34.5 
	368.5,37.5 364.8,60 361.4,69.4 351.2,67.6 "/>
<path fill="#F9BD91" d="M352.7,7l-2.2,14.7c-0.1,1.3,3.6,2.6,4.9,3l-0.1,0.2l-0.7,4c0,0,0,5.6,6.5,1.4l1.2-10.4c0,0,1.9-0.2,2.1-2.3
	c0.2-2.1-2-1.3-2-1.3l0.7-7.5L352.7,7z"/>
<path fill="#F9BD91" d="M386.2,12.3c0,0-0.4-2-1.9-5.1c0,0,0.8-1.7,2.5,1.4c0,0,1-3.2,2-5.3s6.2,1.2,4.1,5.5s-3.8,4.8-3.8,4.8
	S386.8,13.1,386.2,12.3z"/>
<path fill="#F9BD91" d="M339.2,11.5c0,0,1.6-1.3,4.6-2.8c0,0,0.4-1.8-2.9-0.4c0,0,1.1-3.1,1.7-5.4s-5.7-2.9-6.6,1.8s0.1,6.1,0.1,6.1
	S338.2,11.7,339.2,11.5z"/>
<path fill="#231F20" d="M352.5,9.6c0,0-1.7-1.1-0.9-4.1c0,0,6.3-3.6,13.1,0.8c0,0,2.4,5.2-0.6,10.2c0,0-1.8-1.1-2.2,0.5
	c-0.4,1.6-0.6,3-0.6,3l-2-1c0,0,3.2-6.2,2.1-8.9C361.5,10.2,357.6,7.7,352.5,9.6z"/>
</svg>
