<?xml version="1.0" encoding="utf-8"?>
<!-- Generator: Adobe Illustrator 18.0.0, SVG Export Plug-In . SVG Version: 6.00 Build 0)  -->
<!DOCTYPE svg PUBLIC "-//W3C//DTD SVG 1.1//EN" "http://www.w3.org/Graphics/SVG/1.1/DTD/svg11.dtd">
<svg version="1.1" id="Layer_1" xmlns="http://www.w3.org/2000/svg" xmlns:xlink="http://www.w3.org/1999/xlink" x="0px" y="0px"
	 viewBox="0 0 249.4 606.7" enable-background="new 0 0 249.4 606.7" xml:space="preserve">
<linearGradient id="SVGID_1_" gradientUnits="userSpaceOnUse" x1="124.7246" y1="606.7084" x2="124.7246" y2="-1.172339e-09">
	<stop  offset="0" style="stop-color:#2484C6;stop-opacity:0"/>
	<stop  offset="0.9527" style="stop-color:#F9ED32"/>
</linearGradient>
<polygon fill="url(#SVGID_1_)" points="71.7,0 0,606.7 249.4,606.7 150.8,0 "/>
<g>
	<path fill="#F9BD91" d="M69.4,451c-19,4.2-16.4,12.1-14.5,14.5c1.8,2.4,10.9-3.2,10.9-3.2s-4,2-2.5,3.9c1.4,1.8,6.2-0.3,6.2-0.3
		s8.2-2.9,6.5-8.6C74.4,451.5,69.4,451,69.4,451z"/>
	<path fill="#1B1D18" d="M133,576.3l4.8-8.6c0,0,12.7,2.7,7.2,14.2l-8.1,14.5c0,0-8.6-0.6-4.3-9.5
		C132.5,586.9,135.4,578.7,133,576.3z"/>
	<path fill="#F9BD91" d="M99.8,356.1l-3.9,27.2l4.4,0.6l-1.4,9.4c0,0,3.5,10.3,16.9,2.4l2.8-19.6c0,0,3.7-0.2,4.3-4.4
		s-3.9-2.8-3.9-2.8l1.4-9.4L99.8,356.1z"/>
	<path fill="#F9BD91" d="M134.9,337.1c2-23.1-8.1-23.2-11.5-22s-0.2,13.6-0.2,13.6s-0.9-5.3-3.5-4.4s-1.9,7.2-1.9,7.2
		s0.4,10.4,7.6,10.7S134.9,337.1,134.9,337.1z"/>
	<polygon fill="#859CD2" points="128.2,380 83.3,402.6 78.6,412.4 78.6,430.4 84.8,431.7 87.6,465.9 131.3,456.6 146,383.9 
		135.9,385.7 	"/>
	<polygon fill="#EAEEEF" points="126.4,380 135.4,387.2 147.5,383.6 150.1,372.6 137.2,372.6 130.6,367.9 	"/>
	<path fill="#1B1D18" d="M87.6,465.9l-10.3,39.3l33.2,6.7v-5.9l3.6,4.4c0,0,18.5-12.6,18.8-13.4c0.3-0.8,1.5-6.2,1.5-6.2
		s4.9,10.8,4.9,10s2.8-29.7,2.8-29.7l-10.8-14.5L87.6,465.9z"/>
	<circle fill="#5C5D4F" cx="132.1" cy="314.7" r="18"/>
	<circle fill="#E6E7E8" cx="136.2" cy="323.7" r="7.9"/>
	<circle fill="#E6E7E8" cx="126.4" cy="306.8" r="7.9"/>
	<polygon fill="#F9BD91" points="132.1,369 134.4,357.7 123,342.2 134.4,337.9 150.1,352 148.8,372.6 136.5,373.6 	"/>
	<path fill="#E6E7E8" d="M148.3,546.7l11.6-3.5l31-30.9l-7.4-6.5L146,521.6C146,521.6,139.8,542.8,148.3,546.7z"/>
	<path fill="#F9BD91" d="M114.1,510.3l18.8,34.4c0,0,15.9,6.2,19.5-3.3l-12.8-43.8l-5.2-8.4l-1.5,7.7L114.1,510.3z"/>
	<polygon fill="#E6E7E8" points="94.6,556.6 95.9,560.9 133.3,575.3 138.8,568.1 110.5,542.2 100.5,542.2 	"/>
	<path fill="#F9BD91" d="M110.5,511.9l-7.7,33.4c0,0,3.2,8.5-6.9,13.1l-17.3-6.2c0,0-0.4-32.7,2.4-46.3L110.5,511.9z"/>
	<path fill="#231F20" d="M127.6,374.7c0,1.7-0.8,3.4-1.9,4.8c-2.5,3.4-6.9,6.1-10.9,4.6c1.3,0.2,2.6-0.6,3-1.9
		c-0.5-0.2-1.1-0.3-1.7-0.2c1.6-0.9,2.4-3.1,1.6-4.9c-0.3-0.8-0.9-1.4-1.4-2.1c-1.7-2.4-2.2-5.6-1.4-8.5c0.1,1.1-0.8,2-1.9,2.3
		s-2.1,0-3.2-0.3c1.7-0.5,2.3-3.2,1-4.4c-0.9,2.8-4.5,4.4-7.2,3.3c1.6-0.4,2.4-2.7,1.5-4c0.3,1.4-0.8,2.8-2.2,3.3
		c-1.4,0.5-2.9,0.3-4.3,0.1c1.8,0.2,3-2.7,1.5-3.8c0.3,1.8-1.8,3.4-3.6,3.2s-3.4-1.4-4.7-2.8c0.7,1.8,3.9,1.7,4.5-0.2
		c0.7-2-1.5-4.1-1.2-6.3c0.2-1.2,1.1-2.1,2-2.8c2.4-1.9,5.4-3.1,8.5-3.3c0.8-0.1,1.7,0,2.4,0.3c0.6,0.3,1.1,0.8,1.7,1.1
		c2,1.2,5,0.1,6.7,1.7c0.4,0.3,0.7,0.8,1.1,0.9c0.5,0.1,0.9-0.1,1.4-0.3c2.8-0.9,6,2,5.5,4.8c1.4,0.8,1.9,2.9,1,4.3
		c0.9-0.8,2.4-0.1,2.8,0.9s0.2,2.3-0.2,3.4c-0.4,1.1-0.9,2.1-1,3.3C127.3,372.6,127.6,373.7,127.6,374.7z"/>
	<path fill="#1B1D18" d="M190.9,512.3l-7.4-6.5c0,0,5.2-11.9,15.4-4.1l12.5,10.9c0,0-2.4,8.3-10.2,2.3
		C201.1,514.9,193.7,510.4,190.9,512.3z"/>
	<path fill="#F9BD91" d="M73.6,460.4c0,0,13.7,2,13.6,0.8c-0.1-1.2-2.4-29.5-2.4-29.5l-6.2-1.3v14.2l0,3.7l-2.4,2.7l-6,0.2
		C70.3,451.1,64.2,459.3,73.6,460.4z"/>
	<polygon fill="#F5EC8F" points="112.3,391.4 122.2,388.3 121.2,397.7 113.1,399.7 	"/>
</g>
</svg>
