<?xml version="1.0" encoding="utf-8"?>
<!-- Generator: Adobe Illustrator 18.0.0, SVG Export Plug-In . SVG Version: 6.00 Build 0)  -->
<!DOCTYPE svg PUBLIC "-//W3C//DTD SVG 1.1//EN" "http://www.w3.org/Graphics/SVG/1.1/DTD/svg11.dtd">
<svg version="1.1" id="Layer_1" xmlns="http://www.w3.org/2000/svg" xmlns:xlink="http://www.w3.org/1999/xlink" x="0px" y="0px"
	 viewBox="0 0 397.5 320.4" enable-background="new 0 0 397.5 320.4" xml:space="preserve">
<g>
	<g>
		<polygon fill="#603913" points="241.2,242.1 263.2,130.1 275.6,75.3 300.2,0 308.6,1.8 282.4,76.7 249.1,242.1 		"/>
		<path fill="#B52401" d="M252.4,182.6l37.6,12.4l22.1,3l34.3,35.3l-24.6-41.9h14.7l-12.7-10.4H368l-61.5-13.5l82.3-8.6
			c0,0-59.2-14.5-59.9-14.5s20.1-4.1,20.1-4.1l-21.8-8.6l47.5-10.2l-41.1-4.1l39.1-9.7l-26.9-3.6L388.8,94h-63.5l34.3-12.2L317.2,80
			l80.3-24.1l-58.7,2l-17,6.9l-8.6-5.3l-39.6,16.8l-13.7,71.9l24.9,1.3l-32.3,25.4C252.4,174.8,250.4,181.9,252.4,182.6z"/>
		<path fill="#F5EC18" d="M278.3,144.7l-7.9-8.5c0,0,7.4-32.5,7.9-33.3c0.5-0.8,12.7-9.1,12.7-9.1l22.4,29L278.3,144.7z"/>
	</g>
	<g>
		<polygon fill="#490808" points="246.6,159.7 252,150 237.5,135.9 211.4,123.1 209.8,112.3 203.3,110.8 199.1,100.1 177.8,96.8 
			170.1,87.4 170.1,94.7 152.1,91.7 161.6,102.1 152.1,115.3 156.5,132.5 140.7,148.1 135.9,156.4 143.8,169 		"/>
		<path fill="#F9BD91" d="M214.3,162.4l20.3,6.6c0,0,3.5-5.4,2.9-10s-14.4-5.6-14.4-5.6L214.3,162.4z"/>
		<path fill="#184667" d="M235.2,167.8v5l8.1,4.3c0,0,5.7-9.2,5.6-12.3c-0.1-3.2-7.7-12.7-7.7-12.7l-7.4,1.2l-1.4,2.4L235.2,167.8z"
			/>
		<polygon fill="#FAFAFA" points="165.7,142.5 173.3,152.7 182.4,178.3 191.9,176.7 204.2,172.6 187.1,134.6 		"/>
		<polygon fill="#BE1E2D" points="96.3,244.3 101.1,252.3 118.6,267 142.9,263.9 110.2,240.4 		"/>
		<polygon fill="#1379E0" points="161.9,234.7 145.1,219.3 145.1,229 128.3,233.2 106,216.3 106,208.6 84,213.5 79.8,228.5 
			96.3,244.3 113.4,244.3 137.2,263.6 109,265.1 69.4,284.9 79.5,292.6 76.8,307.2 125.8,294.1 178.6,286.7 191.9,268.1 
			186.7,255.1 		"/>
		<polygon fill="#BE1E2D" points="163.2,235.9 161.9,234.7 149.1,262.6 190,275.5 202.3,262.6 		"/>
		<polygon fill="#F9BD91" points="191.9,176.7 174.6,179.6 165.4,198.8 165.4,208.6 153.8,227.4 163.2,235.9 174.4,227.4 176.8,204 
					"/>
		<path fill="#EAAF88" d="M224.6,227.4l-19.8,29.3l-31-7.9l-5.9-15.1l3.2-14.1l-0.5-17.1c0,0,15.6-25,15.6-24.3s31.7-10.4,31.7-10.4
			l22.5,5.7L224.6,227.4z"/>
		<polygon fill="#F9BD91" points="215,195.3 221.7,209.4 222.7,236.7 195.4,271.3 200.9,281.2 246.2,245.6 251.1,206.2 253.7,190.8 
			240.5,173.5 226.4,175.2 		"/>
		<path fill="#F9BD91" d="M199.8,283.9c-23.6,13.1-28.2,2.4-28.6-1.8c-0.3-4.2,14.4-6.7,14.4-6.7s-6,1.5-6.2-1.7
			c-0.2-3.2,6.8-5.4,6.8-5.4s11.2-4.5,14.8,3S199.8,283.9,199.8,283.9z"/>
		<path fill="#BE1E2D" d="M21.1,306.6l4.8,10.1c0,0-10.9,9.9-17.8-2.9l-8-17.1c0,0,6.3-7.5,11.6,2.3
			C11.6,299.1,17.3,307.3,21.1,306.6z"/>
		<path fill="#F9BD91" d="M145.1,219.3v9.7l-16.8,4.2c0,0-22.3-15.9-22.3-16.8s0-7.8,0-7.8l21.1,1.6L145.1,219.3z"/>
		<polygon fill="#BE1E2D" points="69.4,284.9 20.3,307.2 23.8,318.4 78.5,307.2 81,290.3 		"/>
		<path fill="#F9BD91" d="M191.3,121.2l0.6-11.8l-25.9-1.9l-1.7,34.1l5.5,0.3l-0.1,1.1c3.6,2.2,12.4,6.3,21.2,0.4l0.6-13.2
			c0,0,4.6-0.7,4.8-5.9C196.6,118.9,191.3,121.2,191.3,121.2z"/>
		<path fill="#EAAF88" d="M176.3,137.5l12,32l5.1-1.9l4.2,11.1c0,0,10,9.1,19.8-7.4l-8.6-23c0,0,3.9-2.5,2.1-7.4s-5.9-0.7-5.9-0.7
			l-4.2-11.1L176.3,137.5z"/>
		<path fill="#231F20" d="M206.5,138.9c0,0-1.8,0.5-1.7,2l0.9,5.2l-3.4,0.9l-2.3-6c0,0-5.3-1.1-7.3-4.1l-4.1-1.7l-1.1-1.6
			c0,0,0.2-3.6,5-6.4s8.3-3.1,9.3-1.8C202.9,126.6,206.4,125.9,206.5,138.9z"/>
		<path fill="#231F20" d="M187.6,133.1c-1.1-0.8-2.5-1-3.8-0.6s-2.4,1.3-3,2.5c-0.3,0.5-0.5,1.1-0.5,1.6c0,1.1,0.9,1.9,1.6,2.7
			c0.7,0.9,1.4,1.8,2,2.8c0.3,0.5,0.6,1.1,0.6,1.8c0,0.9-0.6,1.9-1.5,2.1c-0.9,0.2-1.9-0.5-1.9-1.5c0.1,1.1,0.3,2.3,1.1,3
			c0.6,0.5,1.4,0.6,2.1,0.7c0.4,0,0.7,0.1,1.1,0c0.5-0.2,0.9-0.6,1.1-1.1c0.6-1,1-2.2,0.7-3.4c-0.3-1.2-1.1-2.2-1.7-3.2
			c-0.6-1.1-1-2.5-0.2-3.5c0.8-1.1,2.7-1.2,3-2.5c0.2-0.7-0.2-1.4-0.8-1.9s-1.2-0.7-1.9-0.9"/>
		<path fill="#231F20" d="M175.4,144.6c0.9-0.8,0.9-2.1,0.7-3.2c-0.2,0.7-1.1,1-1.8,0.9c-0.7-0.1-1.3-0.6-1.8-1.1
			c-1-1-1.8-2.1-2.5-3.3c0.1,1.3,1.3,2.3,2.6,2.2c1.2-0.2,2.1-1.7,1.7-2.8c-0.2,0.4-0.8,0.5-1.2,0.4c-0.4-0.1-0.8-0.4-1.1-0.8
			c-0.7-0.9-1-2-0.9-3.1c0.1,0.9,0.8,1.7,1.7,1.9s1.9-0.2,2.4-1c0.4-0.6,0.5-1.2,0.6-1.9c1-4.2,5.1-7.5,9.4-7.5c0.5,0,1,0,1.5,0
			c0.6-0.1,1.1-0.4,1.7-0.5c1.4-0.4,2.9-0.2,4,0.6c1.2,0.8,2,2,2.2,3.4c0,0.1,0,0.3,0,0.4c-0.1,0.1-0.2,0.2-0.3,0.3
			c-1.6,1.1-3.3,2.2-5.1,3c-1.9,0.8-4.1,1.3-5,3.1c-0.6,1.1-0.5,2.6-1.5,3.4c-0.2-0.5-0.9-0.5-1.4-0.3c-0.7,0.3-1.4,0.7-1.9,1.3
			c-0.8,1.1-0.8,2.6-1,3.9s-0.7,2.9-1.9,3.4c-0.9,0.3-2,0-2.7-0.7s-1.2-1.6-1.5-2.5C172.9,145.1,174.5,145.4,175.4,144.6z"/>
		<polygon fill="#1379E0" points="195.4,253.5 205.8,204 214,177.7 236.6,172.5 236.6,161.9 216,167.8 190,201.2 167.9,235.2 
			173.9,248.8 194.2,254 199.3,255.3 		"/>
		<polygon fill="#BE1E2D" points="187.1,205.7 189.3,216.5 204.8,208.6 211.1,187.1 202.3,185.5 		"/>
		<polygon fill="#F9F733" points="192.4,198.5 203.3,201 194.6,207.6 187.7,204.8 		"/>
		<polygon fill="#F9F733" points="209.8,191.4 199.1,189.7 196.9,192.6 208.1,197.2 		"/>
		<polygon fill="#F9BD91" points="222,218.3 189.7,208.6 182.4,220.9 222.4,229 		"/>
		<polygon fill="#184667" points="182.4,222.5 190.9,209 186.7,203.1 178.6,195 171.2,186.7 174.6,179.6 182.4,178.3 174.1,153.7 
			165.7,142.5 139.2,166.6 141.4,189.7 154.6,226 163.2,212.3 		"/>
		<polygon fill="#F9F733" points="205.8,255.3 173.9,248.8 167.9,233.7 168.7,230.2 163.2,235.9 164.9,251.5 178.1,260.7 
			202.3,262.6 		"/>
		<path fill="#F9BD91" d="M218.5,162.9c-20.8,0.6-20.2-8.3-18.9-11.3c1.3-3,12.2,0.5,12.2,0.5s-4.7-1.1-3.7-3.4s6.6-1.3,6.6-1.3
			s9.3,0.8,9.1,7.3C223.6,161.1,218.5,162.9,218.5,162.9z"/>
		<path fill="#490808" d="M179.9,102.8c-3.4-0.9-7-0.8-10.3,0.3c-0.9,0.3-1.9,0.7-2.5,1.6c-0.7,1-0.7,2.3-0.9,3.5
			c-0.5,3.4-2.9,6.5-6,7.9c2.3,0.3,4.6,0.3,6.7-0.6c2.1-0.8,4-2.6,4.6-4.8c0.8,1.8,0.1,4-1.3,5.4c-1.4,1.4-3.5,2-5.4,2
			c1.5,1.9,3.9,3,6.4,3c2.4-0.1,4.8-1.3,6.2-3.3c1.5-2.2,2-5,3.7-7c1.1-1.2,2.7-2.2,2.9-3.8c0.1-1.1-0.4-2.1-1.2-2.8
			S181,103,179.9,102.8z"/>
	</g>
</g>
</svg>
