<?xml version="1.0" encoding="utf-8"?>
<!-- Generator: Adobe Illustrator 18.0.0, SVG Export Plug-In . SVG Version: 6.00 Build 0)  -->
<!DOCTYPE svg PUBLIC "-//W3C//DTD SVG 1.1//EN" "http://www.w3.org/Graphics/SVG/1.1/DTD/svg11.dtd">
<svg version="1.1" id="Layer_1" xmlns="http://www.w3.org/2000/svg" xmlns:xlink="http://www.w3.org/1999/xlink" x="0px" y="0px"
	 viewBox="0 0 268 338.3" enable-background="new 0 0 268 338.3" xml:space="preserve">
<g>
	<path fill="#A0A9B1" d="M69.9,123.9c-2.2,0,76.9,42,140.5,0c0,0,58.5-81.1,26.7-99c-6.9-3.9-15.5-3-21.9,1.7
		c-9.4,6.9-24.1,24.3-42.4,62.4c0,0-66.4-12.2-98.5,6.6S69.9,123.9,69.9,123.9z"/>
	<path fill="#A0A9B1" d="M239.1,268.3c0,0,9.4-23.2-1.7-44.3c0,0-16.6,7.2-21.6,24.9c0,0-26-29.9-43.7-29.3l-1.1,34.3l57.5,34.8
		L239.1,268.3z"/>
	<path fill="#AEBBBB" d="M162.8,30.4c0,0-6.6-4.4-16.6-5c0,0-5.2-10.8-11.1-14.4C128,6.6,102-3.9,50,24.9c0,0-23.8-16.4-30.6-3.3
		c-8.1,15.5,13.5,28.2,13.5,28.2s-17.1,9.4-12.2,73.6s-3.3,65.8-13.3,85.7s-16.6,85.7,26.6,109s107.9-6.6,136.1,1.1
		s84.6,28.8,90.2,8.9c5.5-19.9,11.6-80.8,5-87.4c-6.6-6.6-29.3,22.7-36,34.8c0,0-28.2-26-43.7-33.7c0,0,0.6-58.1-41.5-119.5
		c0,0-7.7-30.4,10.5-34.8C172.8,83,186.6,53.7,162.8,30.4z"/>
	<path fill="#4D638A" d="M124.6,28.2c0,0-8.9-12.7-20.5,6.6C104.2,34.8,112.5,24.3,124.6,28.2z"/>
	<path fill="#141A1C" d="M170.6,44.8c0,0-15.5-1.4-15.5-11.1C155.1,27.1,180,27.1,170.6,44.8z"/>
	<path fill="#141A1C" d="M168,67.4c0,0-6.1,1.2-11.7-6.4C156.3,61,173.3,43.9,168,67.4z"/>
	<g>
		<g>
			<path fill="#210B0D" d="M260.4,45.1l-76.9,13.1l-1.3-7.4c0,0,12.2-7.9,14-8.1l1.6,0.4c0,0,6.1-4.4,17.2-4.3l1-0.8
				c0,0,6.1-0.3,8.7-0.7c2.6-0.4,12.5-0.6,14.7-1.6c2.2-1,10.5-3.8,15.3-3.7C254.9,32.1,259.6,38,260.4,45.1z"/>
			<path fill="#75976F" d="M257,45.6c0,0-2-10.5-4-13.4c0,0,1.9-0.7,3.5,0.3c0,0,3.8,5.3,4.5,12.5L257,45.6z"/>
			<polygon fill="#847743" points="183.1,58.2 185,57.9 183.6,49.9 181.9,51.2 			"/>
			<polygon fill="#42140C" points="200,53.6 198.7,47.3 188.3,51.8 198.3,48.4 			"/>
			<polygon fill="#42140C" points="198.4,46.5 197.4,43.5 187,49.1 197,44.3 			"/>
			<path fill="#42140C" d="M219,47.6c0,0-0.7-2.9-0.5-3.1c0.2-0.2,1.1-0.5,3.6-0.8s21.1-2,22.6-2.6s9-2.8,9-2.8s-7.4,2.9-9,3.5
				c-1.7,0.6-22.2,3-22.2,3s-2.9,0.1-3.2,0.6C219.1,45.9,219,47.6,219,47.6z"/>
			<path fill="#42140C" d="M217.9,41.9l-1.2-2.5c0,0-0.3-0.3,0.7-0.5c0,0,8.9-0.8,9.5-0.8c0.6,0,12-0.6,13.4-1.2
				c1.4-0.7,10.5-3.2,11.6-3.2c0,0-10.4,2.9-11.4,3.6c-0.9,0.6-5.9,1-5.9,1l-16.2,1c0,0-0.9-0.1-0.8,0.6L217.9,41.9z"/>
			<path fill="#3D2A35" d="M219.4,47.6l0.4-1.8l22-2.5c0,0,3.1-0.3,3.9-0.7c0.8-0.3,8.2-2.8,8.5-1.8c0,0,0.1,0.6-4.2,1.9
				c-4.3,1.3-12.6,2.5-14.2,2.7c-1.6,0.2-15,1.9-15,1.9S219.5,47.1,219.4,47.6z"/>
			<polygon fill="#3D2A35" points="186.6,55.9 197.9,52 198.2,53.6 			"/>
			<path fill="#42140C" d="M217.7,51.5c0,0-0.9-10.7-3.7-12.1c0,0-10.4,0.2-14.9,3.8c0,0,9.5-3.1,13.3-2
				C212.5,41.3,216,42.3,217.7,51.5z"/>
			<path fill="#2A4229" d="M253.9,34c0,0,2.8-0.8,4.4,1.7c0,0-0.8-3.3-4.9-2.8L253.9,34z"/>
			<path fill="#98B491" d="M254.7,34.5c0,0,3.3-1.5,5,6.7C259.8,41.2,257.8,34.9,254.7,34.5z"/>
			<path fill="#98B491" d="M183.1,58.2L166,61.1l-1-6c0,0,2.3-2.2,5.2-0.9c0,0,7.3-1.2,11.7-3L183.1,58.2z"/>
			<path fill="#354E38" d="M182.1,52.6l-11.4,3.3c0,0-3.4-1.8-5.4,0.9l0.1,0.7c0,0,3.6-1.9,5.6,0l11.4-3.3L182.1,52.6z"/>
			<path fill="#839A7C" d="M181.9,51.5l-11.4,3.4c0,0-4.6-1-5.4,1.3l0.1,0.5c0,0,1.6-2.4,5.4-0.9l11.4-3.3L181.9,51.5z"/>
		</g>
		<path fill="#210B0D" d="M260.4,45L183.5,58l1.3,7.4c0,0,14.1,3.4,15.9,3l1.4-1c0,0,7.2,2.1,17.7-1.7l1.2,0.4c0,0,5.8-1.7,8.4-2.2
			c2.6-0.5,12-3.6,14.4-3.3c2.4,0.2,11.2,0.1,15.7-1.6C259.5,59,261.9,51.9,260.4,45z"/>
		<path fill="#75976F" d="M257,45.5c0,0,1.5,10.6,0.7,14c0,0,2.1,0,3.2-1.4c0,0,1.8-6.3,0.1-13.3L257,45.5z"/>
		<polygon fill="#847743" points="183.1,58.1 185,57.8 186.3,65.8 184.3,65.2 		"/>
		<polygon fill="#42140C" points="200.6,56.9 201.4,63.2 190.1,62.5 200.7,62.4 		"/>
		<polygon fill="#42140C" points="201.4,64.1 201.4,67.3 189.8,65.5 200.8,66.6 		"/>
		<path fill="#42140C" d="M220.4,56.2c0,0,0.3,3,0.5,3.1c0.2,0.1,1.2,0.2,3.7-0.4s20.6-5.1,22.2-5c1.6,0.1,9.4-0.3,9.4-0.3
			s-7.9-0.3-9.6-0.3s-21.9,4.5-21.9,4.5s-2.8,0.9-3.2,0.5S220.4,56.2,220.4,56.2z"/>
		<path fill="#42140C" d="M221.3,62l-0.3,2.8c0,0-0.2,0.4,0.8,0.3c0,0,8.7-2.1,9.2-2.4c0.6-0.2,11.5-3.4,13-3.2
			c1.5,0.2,11-0.4,12-0.8c0,0-10.8,0.7-11.9,0.4c-1.1-0.3-5.9,1-5.9,1l-15.6,4.4c0,0-0.9,0.4-1-0.3L221.3,62z"/>
		<path fill="#3D2A35" d="M220.8,56.2l1,1.6l21.6-4.9c0,0,3-0.7,3.9-0.7s8.7-0.1,8.6-1.1c0,0-0.1-0.6-4.6-0.4
			c-4.5,0.2-12.7,1.8-14.3,2.2c-1.6,0.3-14.8,3.1-14.8,3.1S221.1,56.6,220.8,56.2z"/>
		<polygon fill="#3D2A35" points="187.2,59.2 199.1,59.1 198.8,57.5 		"/>
		<path fill="#42140C" d="M218,53c0,0,2.6,10.4,0.5,12.6c0,0-9.9,3.3-15.3,1.3c0,0,10-0.2,13.2-2.6C216.4,64.4,219.4,62.3,218,53z"
			/>
		<g id="bOjIZk.tif_1_">
			<g>
				<path fill="#FFFFFF" d="M206.9,64.7C206.9,64.6,206.9,64.6,206.9,64.7c0.2-0.2,0.3-0.3,0.4-0.5c0.1-0.1,0.2-0.3,0.4-0.5
					c0.1-0.1,0.2-0.3,0.4-0.4c0,0,0,0,0,0c0.1-0.1,0.2-0.2,0.3-0.3c0.1-0.2,0.3-0.3,0.4-0.5c0.1-0.1,0.2-0.3,0.3-0.4
					c0.1-0.2,0.2-0.3,0.3-0.5c0-0.1,0.1-0.1,0.1-0.2c-0.1,0.1-0.2,0.1-0.2,0.2c-0.2,0.1-0.3,0.2-0.5,0.3c-0.1,0.1-0.3,0.2-0.4,0.3
					c-0.2,0.1-0.3,0.3-0.5,0.4c-0.1,0.1-0.3,0.2-0.4,0.4c-0.2,0.2-0.3,0.3-0.5,0.5c-0.1,0.1-0.2,0.2-0.3,0.2
					c-0.1,0.1-0.3,0.3-0.4,0.4c-0.2,0.2-0.4,0.4-0.5,0.6c-0.2,0.3-0.4,0.6-0.7,0.8c-0.1,0.1-0.2,0.3-0.2,0.4
					c-0.1,0.1,0.1,0.2,0.2,0.2c0.1,0,0.3-0.1,0.4-0.2c0.1-0.1,0.2-0.1,0.3-0.2c0.1,0.1,0,0.2-0.1,0.3c-0.2,0.2-0.5,0.3-0.8,0.3
					c-0.1,0-0.3-0.1-0.3-0.2c-0.1-0.2-0.1-0.4,0-0.6c0.1-0.2,0.2-0.3,0.3-0.5c0.2-0.3,0.3-0.6,0.5-0.8c0.2-0.2,0.3-0.4,0.5-0.6
					c0.1-0.2,0.3-0.3,0.4-0.4c0.1-0.1,0.2-0.2,0.2-0.3c0.2-0.2,0.4-0.4,0.5-0.5c0.2-0.2,0.4-0.4,0.7-0.6c0.2-0.2,0.5-0.4,0.7-0.6
					c0.3-0.2,0.6-0.5,0.9-0.7c0.2-0.1,0.4-0.3,0.6-0.4c0.1-0.1,0.2-0.1,0.2-0.2c0-0.1,0-0.2,0-0.3c0,0,0-0.1-0.1,0
					c-0.1,0-0.1,0.1-0.2,0.1c-0.1,0.1-0.3,0.2-0.4,0.2c-0.2,0.1-0.5,0.2-0.8,0.2c-0.1,0-0.3,0-0.4-0.1c-0.1-0.1-0.2-0.2-0.2-0.4
					c0-0.1,0-0.3,0-0.4c0.1-0.3,0.2-0.5,0.4-0.8c0.1-0.1,0.2-0.3,0.3-0.4c0.1-0.2,0.3-0.3,0.4-0.5c0.1-0.1,0.2-0.2,0.3-0.3
					c0.1-0.1,0.2-0.2,0.3-0.2c0.2-0.1,0.3-0.2,0.5-0.4c0.1-0.1,0.3-0.2,0.4-0.2c0.3-0.2,0.6-0.3,1-0.3c0.2,0,0.4,0,0.5,0.1
					c0.2,0.1,0.2,0.3,0.2,0.4c0,0.2-0.1,0.5-0.2,0.7c-0.1,0.3-0.3,0.5-0.5,0.8c-0.2,0.2-0.4,0.4-0.6,0.6c-0.2,0.2-0.5,0.4-0.7,0.6
					c0,0-0.1,0.1-0.1,0.1c0,0.1,0,0.2,0,0.3c0,0,0,0.1,0,0.1c0,0,0,0,0,0c0,0,0,0,0.1,0c0.1,0,0.2-0.1,0.3-0.1
					c0.2-0.1,0.4-0.2,0.7-0.3c0.3-0.1,0.5-0.2,0.8-0.2c0.2,0,0.4,0,0.6,0.1c0.1,0.1,0.2,0.2,0.2,0.3c0,0.1,0,0.3-0.1,0.4
					c-0.1,0.1-0.1,0.3-0.2,0.4c-0.1,0.1-0.2,0.2-0.3,0.4c0,0-0.1,0.1-0.1,0.1c0,0,0,0,0,0c0.1,0,0.2,0,0.2-0.1c0.1,0,0.2,0,0.4,0
					c0.2,0,0.3,0.1,0.4,0.2c0.1,0.2,0.1,0.4,0,0.6c-0.1,0.2-0.3,0.5-0.4,0.7c0,0,0,0.1,0,0.1c0,0,0.1,0,0.1,0c0.1,0,0.2-0.1,0.4-0.1
					c0.1,0,0.2,0,0.3,0.1c0.1,0.1,0.1,0.3,0.1,0.4c-0.1,0.2-0.2,0.5-0.3,0.7c-0.1,0.1-0.2,0.3-0.3,0.4c-0.1,0.1-0.3,0.3-0.4,0.4
					c-0.2,0.2-0.3,0.4-0.5,0.5c-0.1,0-0.1,0.1-0.2,0.2c-0.1,0.1-0.2,0.1-0.2,0.2c0,0-0.1,0-0.1,0c0,0,0-0.2,0-0.2
					c0.1-0.1,0.2-0.2,0.3-0.3c0.2-0.2,0.4-0.4,0.6-0.6c0.1-0.1,0.1-0.2,0.2-0.3c0.1-0.1,0.1-0.2,0.1-0.3c0,0,0-0.1,0-0.1
					c0,0-0.1,0-0.1,0c0,0-0.1,0-0.1,0.1c-0.2,0.2-0.5,0.3-0.7,0.5c-0.2,0.1-0.3,0.3-0.5,0.4c-0.2,0.2-0.4,0.3-0.6,0.5
					c-0.1,0.1-0.1,0.1-0.2,0.2c-0.2,0.1-0.3,0.2-0.5,0.4c-0.1,0.1-0.3,0.2-0.4,0.3c-0.1,0-0.1,0.1-0.2,0.1c0,0-0.1,0-0.1,0
					c0-0.1,0-0.1,0-0.2c0-0.2,0-0.3-0.1-0.5c0-0.1,0-0.1,0.1-0.2c0,0,0.1-0.1,0.1-0.1c-0.1,0-0.1-0.1-0.1-0.1
					c-0.1,0-0.1-0.1-0.2-0.1c-0.1-0.1-0.2-0.3-0.1-0.5c0-0.2,0.1-0.4,0.2-0.5c0,0,0,0,0-0.1c0.1-0.2,0.2-0.3,0.3-0.5
					c0.2-0.2,0.3-0.4,0.5-0.6c0.1-0.2,0.3-0.3,0.5-0.4c0.2-0.2,0.4-0.4,0.6-0.5c0.2-0.2,0.5-0.4,0.7-0.7c0.2-0.2,0.4-0.3,0.5-0.6
					c0-0.1-0.1-0.2-0.2-0.2c-0.2,0-0.3,0-0.5,0.1c-0.2,0.1-0.5,0.2-0.7,0.3c-0.2,0.1-0.3,0.2-0.5,0.3c-0.1,0.1-0.2,0.1-0.2,0.2
					c-0.1,0.3-0.3,0.5-0.4,0.8c-0.1,0.2-0.3,0.4-0.5,0.6c-0.1,0.1-0.2,0.2-0.2,0.3c-0.2,0.2-0.4,0.5-0.6,0.8
					c-0.2,0.2-0.3,0.3-0.5,0.5c-0.1,0.1-0.1,0.1-0.2,0.2c-0.2,0.2-0.3,0.3-0.5,0.5c-0.1,0.1-0.1,0.2-0.2,0.2
					C206.8,64.8,206.9,64.7,206.9,64.7z M209.7,64.5c0.1-0.1,0.3-0.2,0.4-0.3c0.1-0.1,0.3-0.2,0.4-0.3c0.1-0.1,0.2-0.1,0.2-0.2
					c0.2-0.2,0.4-0.3,0.6-0.5c0.1-0.1,0.2-0.2,0.3-0.3c0.1-0.1,0.3-0.2,0.4-0.4c0.1-0.1,0.2-0.2,0.3-0.3c0,0,0.1-0.1,0.1-0.2
					c0-0.1,0-0.2-0.1-0.2c-0.1,0-0.1,0-0.2,0c-0.3,0.1-0.6,0.2-0.8,0.4c-0.2,0.1-0.4,0.3-0.5,0.4c-0.2,0.1-0.4,0.3-0.5,0.4
					c-0.2,0.2-0.3,0.3-0.5,0.5c-0.1,0.2-0.3,0.3-0.4,0.5c-0.1,0.1-0.1,0.2-0.1,0.3c0,0.1,0.1,0.1,0.2,0.1
					C209.5,64.6,209.6,64.5,209.7,64.5z M209.7,58.6c0.2,0.1,0.3,0.2,0.4,0.3c0,0.1,0.2,0.1,0.2,0c0.2-0.1,0.3-0.3,0.5-0.4
					c0.2-0.2,0.3-0.3,0.5-0.5c0.1-0.1,0.2-0.3,0.3-0.5c0.1-0.2-0.1-0.4-0.3-0.4c-0.2,0-0.4,0.1-0.6,0.2c-0.3,0.1-0.5,0.3-0.8,0.5
					c-0.2,0.1-0.4,0.3-0.5,0.5c0,0,0,0.1-0.1,0.1C209.4,58.5,209.6,58.5,209.7,58.6z M209.5,58.8c-0.2-0.1-0.5-0.1-0.7,0.1
					c-0.2,0.1-0.3,0.2-0.3,0.4c0,0.1-0.1,0.1-0.1,0.2c0,0.1,0,0.2,0.1,0.2c0,0,0.1,0,0.2,0c0.1,0,0.2,0,0.3-0.1
					c0.2-0.1,0.4-0.2,0.6-0.3c0.1-0.1,0.2-0.1,0.3-0.2C209.8,59,209.7,58.9,209.5,58.8z"/>
				<path fill="#FFFFFF" d="M205,46.8c-0.2,0.1-0.4,0.2-0.6,0.3c-0.2,0.1-0.4,0.1-0.7,0c-0.1,0-0.2-0.1-0.3-0.3
					c-0.1-0.1-0.1-0.3,0-0.4c0-0.2,0.1-0.4,0.2-0.6c0.1-0.2,0.2-0.4,0.4-0.6c0.2-0.2,0.4-0.5,0.6-0.7c0.2-0.2,0.4-0.4,0.6-0.6
					c0.2-0.1,0.4-0.3,0.5-0.4c0.1-0.1,0.3-0.2,0.4-0.2c0.2-0.1,0.4-0.1,0.5-0.2c0.2,0,0.3-0.1,0.5,0c0.2,0,0.3,0.1,0.4,0.2
					c0.2,0.2,0.2,0.4,0.1,0.6c0,0.2-0.1,0.3-0.2,0.5c-0.1,0.1-0.2,0.3-0.3,0.4c-0.2,0.2-0.4,0.4-0.6,0.7c-0.1,0.2-0.3,0.3-0.5,0.5
					c-0.2,0.1-0.4,0.3-0.5,0.4c-0.1,0.1-0.2,0.1-0.2,0.2c0,0.1,0,0.1,0,0.2c0,0.1,0,0.1,0,0.2c0,0,0.1,0,0.1-0.1
					c0.2-0.1,0.3-0.2,0.5-0.3c0.2-0.1,0.5-0.3,0.7-0.4c0.1,0,0.2-0.1,0.3-0.1c0.1,0,0.2,0,0.4,0c0.4,0,0.7,0.2,0.7,0.5
					c0,0.2,0,0.4,0,0.6c0,0.2-0.2,0.4-0.3,0.6c-0.1,0.2-0.3,0.4-0.5,0.6c-0.1,0.1-0.1,0.1-0.1,0.2c0,0,0,0,0,0c0,0,0,0,0,0
					c0.2-0.1,0.4-0.2,0.7-0.2c0.4,0,0.6,0.2,0.6,0.5c0,0.2,0,0.3-0.1,0.5c-0.1,0.2-0.2,0.4-0.4,0.5c0,0,0,0.1,0,0.1
					c0.1,0,0.2,0,0.3-0.1c0.2,0,0.4,0.1,0.5,0.3c0,0.2,0,0.4-0.1,0.6c-0.1,0.2-0.3,0.5-0.5,0.7c-0.1,0.2-0.3,0.3-0.4,0.5
					c-0.1,0.1-0.2,0.2-0.3,0.3c-0.2,0.2-0.3,0.3-0.5,0.5c0,0-0.1,0.1-0.1,0.1c0-0.1,0-0.2,0-0.2c0,0,0-0.1,0-0.1
					c0.2-0.2,0.4-0.3,0.5-0.5c0.2-0.2,0.3-0.3,0.4-0.5c0.1-0.1,0.1-0.2,0.2-0.4c0,0,0-0.1,0-0.1c0,0-0.1,0-0.1,0c0,0-0.1,0-0.1,0
					c-0.1,0.1-0.2,0.2-0.4,0.3c-0.2,0.1-0.3,0.2-0.5,0.4c-0.2,0.1-0.4,0.3-0.6,0.4c-0.2,0.2-0.5,0.3-0.7,0.5
					c-0.3,0.2-0.6,0.4-0.8,0.6c-0.1,0-0.1,0.1-0.2,0.2c0-0.3-0.1-0.5-0.1-0.7c0-0.1,0-0.1,0.1-0.2c0.1,0,0-0.1,0-0.1c0,0,0,0,0,0
					c-0.2-0.1-0.3-0.3-0.2-0.5c0-0.2,0.1-0.4,0.2-0.6c0.1-0.2,0.3-0.4,0.4-0.6c0.1-0.1,0.2-0.2,0.3-0.4c0.1-0.1,0.2-0.2,0.3-0.3
					c0.1-0.1,0.2-0.2,0.3-0.3c0.1-0.1,0.2-0.2,0.3-0.3c0.1-0.1,0.3-0.3,0.4-0.4c0.1-0.1,0.2-0.2,0.3-0.3c0.1-0.1,0.2-0.2,0.3-0.4
					c0.1-0.1,0.1-0.2,0.2-0.3c0.1-0.2,0.2-0.4,0.3-0.6c0-0.2-0.1-0.4-0.3-0.4c-0.2,0-0.4,0-0.6,0.1c-0.2,0.1-0.4,0.2-0.5,0.3
					c-0.3,0.2-0.6,0.4-0.8,0.6c-0.3,0.2-0.5,0.5-0.7,0.8c-0.1,0.2-0.3,0.4-0.3,0.6c0,0.2,0.1,0.3,0.3,0.3c0.1,0,0.1,0,0.1-0.1
					c0-0.1,0-0.1,0-0.2c0-0.1,0.1-0.2,0.2-0.3c0.1-0.1,0.2-0.2,0.4-0.2c0.1,0,0.2,0.1,0.3,0.2c0,0.2-0.1,0.3-0.2,0.4
					c-0.1,0.1-0.2,0.2-0.4,0.3c-0.2,0.1-0.3,0.2-0.5,0.2c-0.2,0-0.3,0-0.4-0.1c-0.1-0.1-0.2-0.2-0.2-0.3c0-0.1,0-0.3,0-0.4
					c0-0.1,0.1-0.3,0.2-0.4c0.1-0.2,0.2-0.4,0.4-0.6c0.2-0.3,0.5-0.5,0.6-0.9c0.1-0.2,0.1-0.3,0.2-0.5c0,0,0-0.1,0-0.1
					C205.2,46.8,205.1,46.8,205,46.8z M204.9,52.3c0.1,0.1,0.1,0,0.2,0c0.3-0.2,0.5-0.4,0.8-0.6c0.2-0.2,0.5-0.3,0.7-0.5
					c0.2-0.2,0.5-0.4,0.7-0.6c0.1-0.1,0.2-0.2,0.3-0.3c0.1-0.1,0.2-0.3,0.3-0.5c0,0,0-0.1,0-0.2c-0.1-0.1-0.2-0.1-0.3,0
					c-0.4,0.2-0.7,0.4-1.1,0.6c-0.3,0.2-0.5,0.4-0.8,0.7c-0.2,0.2-0.4,0.4-0.6,0.6c-0.1,0.1-0.3,0.3-0.4,0.5
					C204.8,52.1,204.8,52.1,204.9,52.3C204.8,52.3,204.8,52.3,204.9,52.3z M205,45.7c0.2,0.1,0.3,0.3,0.4,0.5c0,0.1,0.1,0.1,0.1,0
					c0.2-0.1,0.3-0.3,0.5-0.4c0.2-0.2,0.4-0.4,0.6-0.6c0.1-0.2,0.3-0.3,0.3-0.5c0.1-0.3-0.1-0.4-0.4-0.4c-0.2,0-0.3,0.1-0.5,0.2
					c-0.3,0.2-0.5,0.3-0.7,0.5c-0.2,0.2-0.4,0.3-0.6,0.5c0,0,0,0,0,0.1C204.8,45.6,204.9,45.6,205,45.7z M204.9,46.6
					c0.1,0,0.2-0.1,0.2-0.1c0,0,0.1-0.1,0.1-0.1c-0.1-0.2-0.2-0.3-0.4-0.4c-0.3-0.1-0.5,0-0.7,0.1c-0.1,0.1-0.2,0.2-0.3,0.3
					c0,0.1-0.1,0.2,0,0.4c0,0,0.1,0.1,0.1,0.1c0.1,0,0.2,0,0.2,0C204.5,46.8,204.7,46.7,204.9,46.6z"/>
				<path fill="#FFFFFF" d="M203.8,59.8c0.1-0.2,0.2-0.3,0.3-0.5c0.1-0.1,0.2-0.3,0.3-0.4c0.3-0.3,0.6-0.6,0.9-0.9
					c0.1-0.1,0.3-0.2,0.5-0.3c0.2-0.1,0.4-0.2,0.6-0.2c0.2,0,0.4,0.1,0.5,0.3c0,0.2,0,0.4-0.1,0.5c-0.1,0.1-0.1,0.3-0.2,0.4
					c-0.1,0.1-0.1,0.2-0.2,0.3c-0.2,0.2-0.4,0.3-0.5,0.5c-0.1,0.1-0.3,0.2-0.5,0.3c-0.1,0.1-0.2,0.1-0.3,0.2
					c-0.2,0.1-0.4,0.2-0.6,0.2c-0.1,0-0.2,0-0.3,0.1c0,0-0.1,0-0.1,0.1c0,0.1,0,0.3,0,0.4c0.1,0.2,0.2,0.4,0.3,0.6
					c0.1,0.2,0.2,0.3,0.4,0.5c0.2,0.2,0.3,0.3,0.5,0.5c0.2,0.2,0.3,0.3,0.5,0.5c0,0,0.1,0.1,0,0.1c-0.1,0.1-0.1,0.2-0.2,0.2
					c-0.1,0.1-0.2,0.2-0.3,0.4c-0.1,0.1-0.1,0.1-0.2,0c0,0,0,0,0,0c-0.1-0.1-0.1-0.2-0.2-0.3c-0.2-0.2-0.3-0.4-0.5-0.6
					c-0.1-0.1-0.2-0.3-0.3-0.4c-0.1-0.1-0.1-0.2-0.2-0.3c0-0.1-0.1-0.2-0.1-0.3c-0.1-0.2-0.1-0.3-0.1-0.5c0-0.1,0-0.1,0-0.2
					c0-0.2,0.1-0.4,0.1-0.6c0-0.1,0-0.1-0.1-0.2c-0.2-0.1-0.3-0.3-0.3-0.5c-0.1-0.2,0-0.4,0-0.7c0.1-0.3,0.1-0.6,0.2-0.8
					c0.1-0.3,0.2-0.5,0.3-0.8c0-0.1,0.1-0.2,0.2-0.3c0.1-0.2,0.2-0.4,0.4-0.6c0.2-0.2,0.3-0.4,0.5-0.6c0.1-0.2,0.3-0.3,0.4-0.5
					c0.1-0.1,0.3-0.3,0.4-0.4c0.3-0.3,0.6-0.5,0.9-0.8c0.2-0.1,0.3-0.3,0.5-0.4c0.1-0.1,0.2-0.2,0.4-0.3c0.2-0.1,0.4-0.3,0.7-0.4
					c0.2-0.1,0.5-0.3,0.8-0.4c0.2-0.1,0.4-0.2,0.6-0.2c0.2-0.1,0.5-0.1,0.8-0.1c0.2,0,0.4,0,0.6,0.1c0,0,0.1,0,0.1,0
					c0.1,0.1,0.2,0.1,0.3,0.2c0.1,0.1,0.3,0.2,0.3,0.3c0.1,0.2,0.2,0.4,0.2,0.6c0,0.1,0,0.3,0,0.4c0,0.1-0.1,0.2-0.1,0.3
					c-0.2,0.3-0.3,0.7-0.6,1c-0.1,0.1-0.2,0.2-0.3,0.3c-0.2,0.2-0.4,0.4-0.6,0.6c-0.1,0.1-0.3,0.2-0.5,0.3c-0.2,0.1-0.4,0.2-0.6,0.3
					c-0.1,0.1-0.2,0.1-0.4,0.1c-0.1,0-0.3,0.1-0.4,0.1c-0.2,0-0.4,0-0.5,0c-0.2,0-0.4-0.2-0.4-0.4c0-0.1,0-0.3,0-0.4
					c0-0.1,0.1-0.3,0.1-0.4c0.1-0.2,0.2-0.4,0.4-0.5c0.1-0.2,0.3-0.3,0.5-0.4c0.2-0.1,0.4-0.2,0.5-0.3c0.1-0.1,0.2-0.1,0.3-0.1
					c0.2-0.1,0.3-0.1,0.5-0.2c0.1,0,0.1,0,0.2-0.1c-0.1,0.1-0.1,0.1-0.1,0.2c-0.1,0.2-0.2,0.3-0.3,0.5c-0.1,0.1-0.1,0.3-0.2,0.4
					c0,0.1-0.1,0.1-0.2,0.2c-0.2,0.1-0.5,0.2-0.6,0.4c-0.1,0.1-0.2,0.2-0.4,0.3c-0.1,0.1-0.2,0.3-0.2,0.4c0,0.1,0.1,0.2,0.1,0.3
					c0.1,0,0.2,0,0.3,0c0.2,0,0.3-0.1,0.5-0.2c0.2-0.1,0.4-0.2,0.6-0.3c0.3-0.2,0.6-0.4,0.8-0.7c0.1-0.1,0.2-0.3,0.4-0.4
					c0.1-0.2,0.2-0.3,0.3-0.5c0-0.1,0.1-0.2,0.1-0.3c0-0.1,0-0.3,0-0.4c-0.1-0.2-0.2-0.3-0.3-0.4c-0.2-0.1-0.5-0.1-0.7-0.1
					c-0.2,0-0.3,0.1-0.4,0.1c-0.4,0.1-0.7,0.3-1,0.4c-0.3,0.2-0.6,0.4-0.9,0.5c-0.4,0.3-0.8,0.6-1.2,1c-0.2,0.2-0.4,0.4-0.6,0.6
					c-0.1,0.1-0.3,0.3-0.4,0.4c-0.1,0.1-0.1,0.1-0.2,0.2c-0.1,0.1-0.1,0.1-0.2,0.2c0,0-0.1,0.1-0.1,0.1c-0.1,0.2-0.3,0.4-0.4,0.6
					c-0.1,0.1-0.2,0.2-0.2,0.3c-0.1,0.1-0.2,0.3-0.3,0.4c-0.1,0.2-0.2,0.4-0.3,0.6c-0.1,0.1-0.1,0.3-0.1,0.4c0,0.1,0,0.3,0,0.4
					C203.7,59.9,203.7,59.9,203.8,59.8C203.8,59.9,203.8,59.9,203.8,59.8z M205.1,59.8c0.1-0.1,0.3-0.1,0.4-0.2
					c0.1-0.1,0.3-0.2,0.4-0.4c0.1-0.1,0.2-0.2,0.3-0.3c0.1-0.1,0.1-0.2,0.2-0.3c0.1-0.1,0.1-0.2,0.2-0.2c0.1-0.1,0.1-0.2,0.1-0.4
					c0-0.1-0.2-0.2-0.3-0.2c-0.3,0-0.5,0.2-0.6,0.3c-0.2,0.1-0.4,0.3-0.5,0.4c-0.1,0.1-0.3,0.3-0.4,0.4c-0.1,0.1-0.2,0.2-0.3,0.4
					c-0.1,0.1-0.2,0.3-0.3,0.4c0,0.1-0.1,0.1-0.1,0.2c0,0.1,0,0.1,0.1,0.1C204.5,60,204.8,59.9,205.1,59.8z"/>
				<path fill="#FFFFFF" d="M211.5,51.3C211.5,51.2,211.5,51.2,211.5,51.3c-0.2-0.2-0.2-0.3-0.3-0.4c-0.1-0.1-0.1-0.2-0.2-0.3
					c-0.1-0.1-0.1-0.2-0.2-0.4c-0.1-0.1-0.1-0.2-0.1-0.4c0-0.1,0-0.2-0.1-0.3c-0.1-0.2-0.1-0.4,0-0.7c0-0.2,0.1-0.3,0.2-0.5
					c0-0.1,0.1-0.1,0.2-0.2c0,0,0-0.1,0-0.1c-0.1-0.1-0.2-0.1-0.3-0.2c-0.1,0-0.1-0.1-0.2-0.1c-0.1-0.1-0.2-0.2-0.3-0.4
					c-0.1-0.2-0.2-0.3-0.3-0.5c0-0.1-0.1-0.2-0.1-0.3c0-0.1-0.1-0.3-0.1-0.4c0-0.2,0-0.5,0-0.7c0-0.2,0-0.5,0-0.7c0-0.1,0-0.2,0-0.3
					c0-0.1,0-0.1,0-0.2c0-0.2,0-0.5,0.1-0.7c0-0.2,0-0.3,0-0.5c0-0.2,0.1-0.4,0-0.7c0-0.2,0-0.5-0.1-0.7c0-0.1-0.1-0.3-0.1-0.4
					c0-0.2-0.1-0.3-0.2-0.4c-0.1-0.2-0.3-0.3-0.5-0.4c-0.2-0.1-0.3-0.2-0.5-0.2c-0.2-0.1-0.4-0.1-0.6-0.1c-0.3,0-0.7,0-1,0.1
					c-0.2,0-0.4,0.1-0.6,0.2c-0.2,0.1-0.4,0.2-0.6,0.2c-0.2,0.1-0.3,0.2-0.5,0.3c-0.1,0.1-0.3,0.2-0.4,0.2c-0.1,0.1-0.2,0.2-0.3,0.2
					c-0.2,0.1-0.4,0.3-0.5,0.4c-0.2,0.2-0.5,0.4-0.7,0.7c-0.2,0.1-0.3,0.3-0.4,0.5c-0.1,0.1-0.2,0.2-0.3,0.4
					c-0.1,0.2-0.3,0.4-0.4,0.6c-0.1,0.2-0.3,0.4-0.4,0.6c-0.1,0.2-0.2,0.4-0.3,0.6c0,0.1-0.1,0.2-0.1,0.3c-0.1,0.3-0.2,0.6-0.2,0.8
					c0,0.2,0,0.4,0,0.5c0.1,0.3,0.3,0.5,0.7,0.5c0.1,0,0.2,0,0.4-0.1c0.3-0.1,0.5-0.3,0.7-0.5c0.1-0.1,0.1-0.3,0.1-0.4
					c0-0.1-0.1-0.1-0.2-0.1c-0.2,0-0.3,0.1-0.4,0.2c-0.1,0.1-0.1,0.2-0.2,0.3c0,0.1,0,0.1,0,0.2c0,0.1,0,0.1-0.1,0.1
					c-0.2,0.1-0.4,0-0.5-0.2c0-0.2,0-0.3,0.1-0.5c0-0.2,0.1-0.3,0.2-0.5c0.1-0.2,0.2-0.3,0.3-0.5c0-0.1,0.1-0.2,0.2-0.2
					c0-0.1,0.1-0.1,0.1-0.2c0.2-0.3,0.5-0.5,0.7-0.8c0.1-0.1,0.3-0.3,0.4-0.4c0.1-0.1,0.3-0.3,0.4-0.4c0.2-0.2,0.4-0.4,0.6-0.6
					c0.2-0.2,0.4-0.3,0.7-0.5c0.1-0.1,0.1-0.1,0.2-0.2c0.1-0.1,0.2-0.1,0.3-0.2c0.2-0.1,0.4-0.2,0.7-0.3c0.3-0.1,0.5-0.2,0.8-0.3
					c0.2,0,0.3-0.1,0.5-0.1c0.2,0,0.5,0,0.7,0c0.2,0,0.4,0.1,0.5,0.2c0.1,0.1,0.2,0.2,0.3,0.3c0.1,0.2,0.2,0.4,0.3,0.6
					c0.1,0.2,0.1,0.3,0.1,0.5c0,0.1,0,0.2,0,0.3c0,0.1,0,0.3,0,0.4c0,0.2,0,0.4-0.1,0.7c0,0.2,0,0.4-0.1,0.6c0,0.2,0,0.3,0,0.5
					c0,0.2,0,0.3-0.1,0.5c0,0.2,0,0.5-0.1,0.7c0,0.2,0,0.4,0,0.6c0,0.1,0,0.3,0,0.4c0,0.3,0,0.5,0.1,0.8c0,0.2,0.1,0.4,0.2,0.6
					c0.1,0.2,0.1,0.4,0.2,0.5c0.1,0.1,0.2,0.3,0.3,0.4c0.1,0.1,0.1,0.1,0.2,0.2c0.1,0.1,0.2,0.2,0.3,0.3c0.1,0.1,0.3,0.3,0.4,0.4
					C211.2,51.1,211.3,51.2,211.5,51.3C211.5,51.3,211.5,51.3,211.5,51.3z"/>
				<path fill="#FFFFFF" d="M205.1,67.8c0.1-0.1,0.3-0.2,0.4-0.3c0.1-0.1,0.2-0.3,0.3-0.4c0.1-0.1,0.1-0.1,0.1-0.2
					c0.1-0.1,0.2-0.3,0.2-0.4c0.1-0.2,0.2-0.3,0.2-0.5c0.1-0.2,0.2-0.4,0.2-0.7c0-0.1,0-0.2,0-0.3c0-0.2,0-0.4,0-0.5
					c0-0.1-0.1-0.2-0.1-0.3c0,0,0,0-0.1,0c-0.1,0.1-0.2,0.2-0.3,0.3c-0.1,0.1-0.2,0.2-0.3,0.3c0,0,0,0.1,0,0.1c0,0.3,0.1,0.6,0,0.9
					c0,0.1,0,0.3-0.1,0.4c-0.1,0.2-0.2,0.4-0.2,0.6c-0.1,0.2-0.1,0.4-0.2,0.5C205.2,67.6,205.2,67.7,205.1,67.8
					C205.1,67.8,205.1,67.8,205.1,67.8C205.1,67.8,205.1,67.8,205.1,67.8z"/>
				<path fill="#FFFFFF" d="M205.5,53.6c-0.1,0.1-0.2,0.1-0.2,0.2c-0.1,0.1-0.3,0.2-0.4,0.3c0,0,0,0.1,0,0.1c0,0.2,0.1,0.5,0.1,0.7
					c0.1,0,0.1-0.1,0.2-0.1c0.2-0.1,0.3-0.3,0.5-0.4c0,0,0-0.1,0-0.1c0-0.1,0-0.2-0.1-0.3C205.6,53.9,205.6,53.8,205.5,53.6
					C205.5,53.7,205.5,53.7,205.5,53.6C205.5,53.6,205.5,53.6,205.5,53.6z"/>
			</g>
		</g>
		<path fill="#2A4229" d="M257.9,57.6c0,0,2.9-0.2,3.6-3.1c0,0,0.3,3.4-3.7,4.2L257.9,57.6z"/>
		<path fill="#98B491" d="M258.5,56.8c0,0,3.6,0.3,2.5-8C261,48.8,261.3,55.4,258.5,56.8z"/>
		<path fill="#98B491" d="M183.1,58.1L166,61l1,6c0,0,2.9,1.3,5.2-0.9c0,0,7.3-1.3,12-1L183.1,58.1z"/>
		<path fill="#354E38" d="M184,63.7l-11.9,0.7c0,0-2.7,2.8-5.4,0.9l-0.1-0.7c0,0,4,0.6,5.3-1.9l11.9-0.7L184,63.7z"/>
		<path fill="#839A7C" d="M184.2,64.8l-11.9,0.5c0,0-4,2.5-5.5,0.5l-0.1-0.5c0,0,2.3,1.7,5.4-0.9l11.9-0.7L184.2,64.8z"/>
	</g>
	<path fill="#AEBBBB" d="M43.3,154.9c-2.2,0,76.9,42,140.5,0c0,0,58.5-81.1,26.7-99c-6.9-3.9-15.5-3-21.9,1.7
		c-9.4,6.9-24.1,24.3-42.4,62.4c0,0-66.4-12.2-98.5,6.6S43.3,154.9,43.3,154.9z"/>
	<path fill="#8094A7" d="M267.4,279.3c0,0-18.3,47.6-32.1,45.9s-39.3-34.3-105.1-41.5c-65.8-7.2-79.1-33.2-74.1-62
		S59.9,115.6,55,85.2c0,0,16.6,13.3,46.5,15.5c0,0-55.3-23.2-68.6-50.9c0,0-18.3,13.3-12.2,73.6s-6.1,73-12.2,83.5s-17.1,60.3,5,94
		S89.8,329.1,118,323s44.3-8.3,70.2,2.2s62,19.4,71.9,7.2C260.2,332.4,264,315.8,267.4,279.3z"/>
	<path fill="#8094A7" d="M166.7,164.3c0,0-73.6,19.4-123.4-23.2C43.3,141,66,201.3,166.7,164.3z"/>
	<path fill="#8094A7" d="M171.1,74.1c0,0-3.3,9.4-16.6,13.3c-12.1,3.5-13.3,15.5-10,33.2c0,0-16-7.7-41.5-5s-36.5,1.7-36.5,1.7
		s54.2-1.7,66.4-20.5C142.3,82.4,171.1,74.1,171.1,74.1z"/>
	<path fill="#8094A7" d="M186.1,241.7c0,0-38.7-22.1-83-13.8c0,0,33-13.8,83,7.7V241.7z"/>
	<path fill="#8094A7" d="M26,24.5c0,0-3.3,8.5,8.9,16.2l1.1-3C36,37.8,27.8,33.4,26,24.5z"/>
	
		<ellipse transform="matrix(-0.7337 0.6795 -0.6795 -0.7337 126.3921 -11.5594)" fill="#AEBBBB" cx="65.5" cy="19" rx="11.4" ry="15.5"/>
</g>
</svg>
