<?xml version="1.0" encoding="utf-8"?>
<!-- Generator: Adobe Illustrator 18.0.0, SVG Export Plug-In . SVG Version: 6.00 Build 0)  -->
<!DOCTYPE svg PUBLIC "-//W3C//DTD SVG 1.1//EN" "http://www.w3.org/Graphics/SVG/1.1/DTD/svg11.dtd">
<svg version="1.1" id="Layer_1" xmlns="http://www.w3.org/2000/svg" xmlns:xlink="http://www.w3.org/1999/xlink" x="0px" y="0px"
	 viewBox="0 0 282.5 169.1" enable-background="new 0 0 282.5 169.1" xml:space="preserve">
<g>
	<rect x="109.3" y="1.2" fill="#AAA8A9" width="119.7" height="116.7"/>
	<polygon fill="#AAA8A9" points="50.8,94.2 57.1,119 113.8,120.2 109,94.2 	"/>
	<polygon fill="#AAA8A9" points="224,94.2 218.3,120.2 274.7,119 282.5,94.2 	"/>
	<polygon fill="#B8B9B4" points="109.3,95.6 224,94.2 218.3,118 113.8,118 	"/>
	<polygon fill="#C1C0BE" points="50.8,94.2 78.5,0 124.5,0 109,94.2 	"/>
	<polygon fill="#C1C0BE" points="208.5,0 224,94.2 282.5,94.2 252.8,0 	"/>
	<ellipse fill="#97989D" cx="82.5" cy="76.2" rx="16.5" ry="12.5"/>
	<ellipse fill="#97989D" cx="250.4" cy="76.2" rx="16.5" ry="12.5"/>
	<ellipse fill="#97989D" cx="82.1" cy="52.8" rx="7.5" ry="5.7"/>
	<ellipse fill="#97989D" cx="165" cy="48.4" rx="64" ry="42.4"/>
	<ellipse fill="#B8B9B4" cx="165" cy="43.6" rx="64" ry="42.4"/>
	<polygon fill="#39B54A" points="77.3,94.2 78.3,90.7 80.8,90.7 80.3,94.2 	"/>
	<polygon fill="#96B3E2" points="244.5,75.1 253,75.1 248.8,71.9 	"/>
	<g id="KkXaBI.tif">
		<g>
			<path fill="#FF6D6B" d="M162.4,46.8c1.3,0.4,2.7,0.7,4,1.1c0.9,0.3,1.8,0.6,2.6,1c1.4,0.7,2.1,2,2.2,3.6c0,0.8,0.1,1.7-0.2,2.5
				c-0.7,1.7-2.3,1.8-3.5,1.2c-0.1,0-0.1-0.3-0.1-0.4c0-1.7,0-3.3,0-5c0-0.3-0.1-0.6-0.2-0.9c-0.1-0.2-0.5-0.4-0.7-0.4
				c-0.2,0-0.4,0.3-0.5,0.6c-0.1,0.2-0.1,0.4-0.1,0.6c0,4.1,0,8.2,0,12.3c0,0.2,0,0.4,0,0.6c0,0-0.1,0-0.1,0c-1-0.3-2.1-0.7-3.1-1
				c-0.2-0.1-0.3-0.1-0.3-0.4C162.3,57,162.3,51.9,162.4,46.8C162.3,46.8,162.4,46.8,162.4,46.8z"/>
			<path fill="#6E98FF" d="M175.9,59.2c-0.4,0.7-1,1-1.7,1.2c-2.5,0.9-5,1.8-7.6,2.7c0,0-0.1,0-0.2,0c0-0.6,0-1.2,0-1.8
				c0-0.1,0.2-0.2,0.3-0.3c1.7-0.6,3.5-1.2,5.2-1.9c0.3-0.1,0.5-0.3,0.7-0.5c-0.3-0.1-0.5-0.3-0.8-0.3c-0.6,0-1.2,0-1.8,0.2
				c-1.2,0.4-2.4,0.8-3.7,1.3c0-0.7,0-1.4,0-2c0-0.1,0.2-0.1,0.3-0.2c2.7-0.8,5.4-0.8,8,0.2c0.5,0.2,0.9,0.5,1.1,1
				C175.9,59,175.9,59.1,175.9,59.2z"/>
			<path fill="#F9ED32" d="M154.2,59.5c0.3-0.3,0.6-0.7,0.9-0.8c1.1-0.5,2.3-0.9,3.5-1.4c1-0.4,2-0.7,3-1.1c0,0.7,0,1.3,0,1.9
				c0,0.1-0.2,0.2-0.3,0.2c-1.1,0.4-2.1,0.7-3.2,1.1c-0.3,0.1-0.5,0.3-0.7,0.5c0.3,0.1,0.5,0.3,0.8,0.3c0.6,0,1.2-0.1,1.8-0.2
				c0.5-0.1,1-0.4,1.6-0.6c0,0.6,0,1.1,0,1.7c0,0.1-0.2,0.2-0.3,0.2c-2.1,0.3-4.2,0.2-6.2-0.7c-0.4-0.2-0.6-0.6-1-0.9
				C154.2,59.7,154.2,59.6,154.2,59.5z"/>
		</g>
	</g>
	<ellipse fill="#7AB1A7" cx="86" cy="75.5" rx="3.7" ry="2"/>
	
		<rect x="76.4" y="71.9" transform="matrix(0.9986 5.257221e-02 -5.257221e-02 0.9986 4.035 -3.9364)" fill="#7AB1A7" width="0.9" height="5.7"/>
	<path fill="#97989D" d="M156.2,116.4h-35.6c-1.6,0-3-1.3-3-3l-2.2-8.3c0-1.6,1.3-3,3-3h37.8c1.6,0,3,1.3,3,3v8.3
		C159.2,115,157.8,116.4,156.2,116.4z"/>
	<path fill="#97989D" d="M175.4,116.4h35.6c1.6,0,3-1.3,3-3l2.2-8.3c0-1.6-1.3-3-3-3h-37.8c-1.6,0-3,1.3-3,3v8.3
		C172.4,115,173.7,116.4,175.4,116.4z"/>
	<g>
		
			<rect x="39.5" y="105.8" transform="matrix(0.9891 0.1471 -0.1471 0.9891 16.9535 -8.6216)" fill="#D1D0CF" width="54.6" height="9"/>
		
			<rect x="29.9" y="111.2" transform="matrix(0.9891 0.1471 -0.1471 0.9891 19.5065 -7.8513)" fill="#AAA9A7" width="66" height="33.5"/>
		<path fill="#97989D" d="M93.6,103.8c0,0,0.5-5.1,6.6-4.3s7.3,1.1,7.5,5.8C107.6,105.3,100.1,108.9,93.6,103.8z"/>
		<path fill="#AAA8A9" d="M115.8,127.6l2.1,31.7c0,0-0.9,6.1-9.4,8.9s-13.1-1.8-15.2-4.7L81.8,139L115.8,127.6z"/>
		<circle fill="#C1C0BE" cx="97" cy="128.1" r="18.7"/>
		<circle fill="#97989D" cx="98.6" cy="120.7" r="4.3"/>
		<circle fill="#97989D" cx="87.6" cy="128.8" r="4.3"/>
		<circle fill="#97989D" cx="95.9" cy="138.8" r="4.3"/>
		<circle fill="#97989D" cx="106.8" cy="131.7" r="4.3"/>
		<polygon fill="#97989D" points="70.8,123.6 70.2,127.7 76.9,126.6 		"/>
		
			<rect x="48.8" y="120.8" transform="matrix(0.9891 0.1471 -0.1471 0.9891 18.5986 -6.3345)" fill="#97989D" width="6.7" height="3.5"/>
		
			<rect x="58.4" y="132.7" transform="matrix(0.9891 0.1471 -0.1471 0.9891 20.4292 -7.5849)" fill="#97989D" width="6.2" height="3.3"/>
		
			<rect x="58.2" y="139.1" transform="matrix(0.9891 0.1471 -0.1471 0.9891 21.2572 -7.3503)" fill="#BE1E2D" width="4.3" height="2"/>
		<circle fill="#C1C0BE" cx="76.9" cy="145.2" r="12.2"/>
		<circle fill="#97989D" cx="76.9" cy="145.3" r="8.6"/>
		<path fill="#B8B9B4" d="M109.8,114.3c0,0,1.1-10-6.2-11.1s-12.4-1.2-13.7,7.5C90,110.7,100.8,106,109.8,114.3z"/>
		<path fill="#97989D" d="M39.5,95.8c0,0,1.1-5-5-6s-7.3-1.1-8.8,3.4C25.6,93.1,31.8,98.7,39.5,95.8z"/>
		<path fill="#AAA8A9" d="M11.3,112.1L0,141.8c0,0-0.9,6.1,6.4,11.2s13.1,2.1,15.9-0.1l18.2-20.1L11.3,112.1z"/>
		<circle fill="#C1C0BE" cx="29.1" cy="118" r="18.7"/>
		<circle fill="#97989D" cx="29.7" cy="110.5" r="4.3"/>
		<circle fill="#97989D" cx="37.9" cy="121.4" r="4.3"/>
		<circle fill="#97989D" cx="27.1" cy="128.5" r="4.3"/>
		<circle fill="#97989D" cx="18.7" cy="118.6" r="4.3"/>
		<circle fill="#C1C0BE" cx="43.4" cy="140.2" r="12.2"/>
		<circle fill="#97989D" cx="43.4" cy="140.3" r="8.6"/>
		<path fill="#B8B9B4" d="M20.9,101.1c0,0,1.8-9.9,9.2-8.9c7.3,1.1,12.2,2.5,10.9,11.2C40.9,103.5,32,95.8,20.9,101.1z"/>
	</g>
</g>
</svg>
