<?xml version="1.0" encoding="utf-8"?>
<!-- Generator: Adobe Illustrator 18.0.0, SVG Export Plug-In . SVG Version: 6.00 Build 0)  -->
<!DOCTYPE svg PUBLIC "-//W3C//DTD SVG 1.1//EN" "http://www.w3.org/Graphics/SVG/1.1/DTD/svg11.dtd">
<svg version="1.1" id="Layer_1" xmlns="http://www.w3.org/2000/svg" xmlns:xlink="http://www.w3.org/1999/xlink" x="0px" y="0px"
	 viewBox="0 0 309.3 212.9" enable-background="new 0 0 309.3 212.9" xml:space="preserve">
<g>
	<path fill="#906928" d="M261.9,113.3c0,0-2.6-35.2-55-41.9S56.2,61.1,34.2,73.7S2.9,106.2,2.9,122.3S93.3,173,93.3,173l178.6-28.3
		L261.9,113.3z"/>
	<path fill="#A4772B" d="M300.9,116.1l-42.1-5.9c0,0-23.6-3.5-21.1,35.7c2.6,40.2-1.4,51.2-1.4,51.2l37.1-1L300.9,116.1z"/>
	<path fill="#B2802C" d="M306.6,195.7c0,0,2.2-47.2,2.7-64.7s-11.5-16-17.1-16.1c-5.5-0.1-17.9-1.3-18.2,24.8
		c-0.3,26.1-0.6,56.4-0.6,56.4L306.6,195.7z"/>
	<path fill="#F5D907" d="M243.8,108.6c0,0,9.7,13,6.9,16.8s-8.2,5.7-8.2,5.7l-3.7-7.7l1.1-12.8L243.8,108.6z"/>
	<path fill="#B73E26" d="M241,101.3c0,0,3.7,4,4.5,7.4c0,0-0.9,2.8-5.7,4c-0.2,0.1-0.4,0.1-0.6,0.1
		C233.7,113.9,239.2,101.2,241,101.3z"/>
	<path fill="#9B712A" d="M273.4,196.2L62,203l-2.6-54.8l204.7-5.1c0,0,5.1,1.1,5.4,11.2C269.7,164.2,273.4,196.2,273.4,196.2z"/>
	<path fill="#F5D907" d="M242.8,71.2l-0.6,17.9c-0.1,1.8-1.8,3.2-3.8,3.2l-4.3-0.1l-0.2,7.1c0,0-0.1,7.2-10-0.2l0.5-14.7
		c0,0-3.1-0.6-3-3.7c0.1-3.1,3.6-1.5,3.6-1.5l0.3-8.6L242.8,71.2z"/>
	<path fill="#F5D907" d="M202.6,95.7l-0.4,12.4c0,1.1-1,1.9-2.2,1.9l-2.5-0.1l-0.1,4.1c0,0,0,4.2-5.8-0.1l0.3-8.6
		c0,0-1.8-0.4-1.7-2.2s2.1-0.9,2.1-0.9l0.2-7L202.6,95.7z"/>
	<path fill="#F5D907" d="M195.4,92.2l4.4-4c0.5-0.4,1.3-0.1,1.3,0.5l-0.1,5.6c0,0.3,0.3,0.6,0.7,0.7l6.3,0.6
		c0.7,0.1,0.9,0.8,0.4,1.2l-5.1,3.4c-0.3,0.2-0.4,0.6-0.2,0.9l3.4,4.7c0.4,0.5-0.2,1.1-0.8,1l-6.2-1.4c-0.4-0.1-0.8,0.1-0.9,0.4
		l-2,5.3c-0.2,0.6-1.1,0.6-1.4,0.1l-2.6-5.1c-0.2-0.3-0.6-0.5-0.9-0.3l-6,1.9c-0.6,0.2-1.2-0.4-0.9-0.9l2.9-5
		c0.2-0.3,0.1-0.7-0.3-0.8l-5.4-2.9c-0.6-0.3-0.4-1.1,0.2-1.2l6.2-1.1c0.4-0.1,0.6-0.4,0.6-0.7l-0.8-5.6c-0.1-0.6,0.7-1,1.2-0.6
		l4.9,3.6C194.7,92.4,195.2,92.4,195.4,92.2z"/>
	<path fill="#88CBF0" d="M199.2,96.9c0,0.6-0.6,1.1-1.3,1.1c-0.7,0-1.3-0.5-1.3-1.2c0-0.6,0.6-1.1,1.3-1.1
		C198.7,95.7,199.3,96.2,199.2,96.9z"/>
	<path fill="#88CBF0" d="M197.3,96.3c0,0-2.6-2.5-3.3-2.1s-0.6,4.2,0.6,4.1c1.2-0.1,3-1.3,3-1.3L197.3,96.3z"/>
	<path fill="#88CBF0" d="M198.7,96.4c0,0,2.8-2.4,3.4-2c0.6,0.4,0.3,4.2-0.9,4.1c-1.2-0.1-2.9-1.5-2.9-1.5L198.7,96.4z"/>
	<path fill="#DE5D26" d="M203.5,106.2c0,1.4-1.3,2.4-2.9,2.4c-1.5,0-2.8-1.2-2.7-2.5c0-1.4,1.3-2.4,2.9-2.4S203.5,104.8,203.5,106.2
		z"/>
	<path fill="#B03D25" d="M199.8,107.6c0,0,3.7,2.2,4.3-0.8c0.6-3-3.8-1.8-3.8-1.8l-0.3,0.7c0,0,3.2-0.3,2.9,1.1
		c-0.3,1.4-3.2,0-3.2,0L199.8,107.6z"/>
	<path fill="#88CBF0" d="M191.1,111.9c0,0-6.7,1.4-5.6,10.9s2.9,18.7,9.4,22.8c6.5,4.2,8.8,2.5,7.8,6.9s0,6.7,2.5,7.1s2.5,4.6,4.8,5
		s7.9-4.4,5.5-7.4c-2.4-3.1-1.7-8.2,1-8.2s4.8-3.2,3-5.8c-1.8-2.6,4-6.3-2.2-8.4c-6.2-2.1-8.9-0.4-11.2-6.3
		c-2.3-5.9-2.1-14.3-8.7-15.9C197.4,112.6,194.1,115.3,191.1,111.9z"/>
	<path fill="#E89CC4" d="M201.5,119.6c0,0,1.8-2.7,4.7-1.1c0,0,0.8-2.5,2.8-1c1.3,1-0.5,2.4-0.5,2.4s3.3,2-0.5,5.2L201.5,119.6z"/>
	<path fill="#F9F6C8" d="M201.5,119.6c-0.4,0-7.2,7.9-7.2,7.9s0.4,4.1,6.5,5.2l7.2-7.6C208,125,207.6,120.3,201.5,119.6z"/>
	<path fill="#F5D907" d="M192.3,129.1c6,4.1,7.7,1.7,8,0.6c0.3-1-3.7-2.2-3.7-2.2s1.6,0.6,1.8-0.2c0.2-0.8-1.6-1.6-1.6-1.6
		s-2.9-1.5-4.2,0.2S192.3,129.1,192.3,129.1z"/>
	<path fill="#F5D907" d="M208.8,124c0,0-1.2-2.3-2.7-0.8s-1.7,4-0.7,4.5C205.4,127.7,208.6,126.5,208.8,124z"/>
	<path fill="#5F6F7B" d="M164,83.1c0,0,6,8.9,9.1,8.9s3.6-11.2,3.6-11.2l6.4,13.6c0,0,3.1,2.1,2.4,6.6c0,0,9.1,4.1,9.2,7.6
		c0,3.5-13.1-0.7-13.1-0.7s0.4,2.1-3.1,2.7l-1.2,2.9c0,0-9.3,1.2-14.4-3.5l0.5-3.5c0,0-6.1,0-8.7-4.1c0,0,5.2,1.2,6.8-0.2
		c0,0-5.4-1.7-5.4-5.9c0,0,3.7,3.5,7.6,1.4S164,83.1,164,83.1z"/>
	<path fill="#495761" d="M176.4,122.8c0,0,8.3-5.2,11.5-0.3s-0.4,8.7-3.6,7.5c-3.2-1.2-3.3-3.5-3.3-3.5l-2.5,1.2L176.4,122.8z"/>
	<path fill="#495761" d="M186.3,134.7c0,0,6.8-4.6,9.1,1.2c2.3,5.8-3,12-3,12s4.3,3,2.2,6.3s-5.5,1.8-7.5-1.7s-3.9-8.4-3.9-8.4
		L186.3,134.7z"/>
	<path fill="#5F6F7B" d="M191.8,146.8c0,0,4.5,0.7,5.4,4.5c0.9,3.8,0.5,7-1.7,10c-2.2,3-3.7,11.2-0.4,13.3c3.4,2.1,6.5,0.4,5.9-3
		s-2.2-7-0.9-9.9c1.4-3,8.1-10.9-5.7-19.6L191.8,146.8z"/>
	<path fill="#5F6F7B" d="M176.3,115.8c0,0-0.6,6.6,1.6,8.2s10,8.5,10.3,14.2c0.3,5.7-1.3,9.4-5.5,9.8c0,0,4.1,6.9,0.6,8.4
		c-3.5,1.6-7.4-0.7-6.7-4.7s-5-4.1-5-4.1s-23-11.3-10.1-34L176.3,115.8z"/>
	<path fill="#4D9B9A" d="M177.7,112.2c0,0,2,0.5,1.9,2.4s-1.5,2.9-2.6,3.1s-3.9,1.9-10.3,0.5s-8.4-5-6.5-6.8
		c1.9-1.8,3.2-2.8,4.3-1.9C165.7,110.5,169.1,114.8,177.7,112.2z"/>
	<path fill="#DE5D26" d="M175.5,187.9c5.7,3.4,6.9,7.9,6.9,7.9s-7.5,2-16.1-2.6c-8.6-4.6-3.4-11.8-3.4-11.8S172.5,186.1,175.5,187.9
		z"/>
	<path fill="#F5D907" d="M161.5,185.2c0,0,4.2,3.5,8.9,5.9c4.5,2.3,7.2-0.1,5-2.5c-0.7-0.8-2-1.8-4.1-3
		C171.4,185.6,165,180.8,161.5,185.2z"/>
	<path fill="#DE5D26" d="M166.3,191.4c5.7,3.4,6.9,7.9,6.9,7.9s-7.5,2-16.1-2.6c-8.6-4.6-3.4-11.8-3.4-11.8S163.2,189.5,166.3,191.4
		z"/>
	<path fill="#F5D907" d="M153.6,188.5c0,0,2.9,3.6,7.6,6c4.5,2.3,7.2-0.1,5-2.5c-0.7-0.8-2-1.8-4.1-3
		C162.2,189.1,157,184.2,153.6,188.5z"/>
	<polygon fill="#F5D907" points="169.7,161.6 167.6,184.9 161.5,185.3 159.1,163.4 	"/>
	<polygon fill="#F5D907" points="160.4,163 160.5,190 153.2,188.4 149,165 	"/>
	<path fill="#F5D907" d="M165.4,97.5c-24.1-6-33.1-0.1-33.1-0.1s0.1-1.4,2.4,6.4c15.6-2.2,25.9-0.4,29.4,0.5
		c-0.5-1.6-1.1-3.1-1.7-4.2C163.7,98,164.7,97.6,165.4,97.5z"/>
	<path fill="#F5D907" d="M161.2,73l-0.5,16.4c0,1.4-1.4,2.5-2.9,2.4l-3.3-0.1l-0.2,5.5c0,0-0.1,5.6-7.7-0.2l0.3-11.3
		c0,0-2.4-0.5-2.3-2.9c0.1-2.4,2.8-1.2,2.8-1.2l0.3-9.2L161.2,73z"/>
	<path fill="#FFFFFF" d="M147,95.4c0,0.8-0.8,1.5-1.7,1.4c-0.9,0-1.6-0.7-1.6-1.5c0-0.8,0.8-1.5,1.7-1.4
		C146.3,93.9,147,94.6,147,95.4z"/>
	<path fill="#FFFFFF" d="M148.6,97.6c0,0.8-0.8,1.5-1.7,1.4c-0.9,0-1.6-0.7-1.6-1.5s0.8-1.5,1.7-1.4
		C147.9,96.1,148.6,96.8,148.6,97.6z"/>
	<path fill="#FFFFFF" d="M151.1,98.4c0,0.8-0.8,1.5-1.7,1.4c-0.9,0-1.6-0.7-1.6-1.5c0-0.8,0.8-1.5,1.7-1.4
		C150.4,96.9,151.1,97.6,151.1,98.4z"/>
	<path fill="#FFFFFF" d="M154.4,99.2c0,0.8-0.9,1.4-1.9,1.4c-1,0-1.8-0.7-1.8-1.5c0-0.8,0.9-1.4,1.9-1.4
		C153.6,97.8,154.4,98.4,154.4,99.2z"/>
	<path fill="#FFFFFF" d="M156.9,97.8c0,0.8-0.8,1.5-1.7,1.4c-0.9,0-1.6-0.7-1.6-1.5c0-0.8,0.8-1.5,1.7-1.4
		C156.2,96.3,156.9,97,156.9,97.8z"/>
	<path fill="#FFFFFF" d="M157.8,95.7c0,0.8-0.8,1.5-1.7,1.4c-0.9,0-1.6-0.7-1.6-1.5c0-0.8,0.8-1.5,1.7-1.4
		C157.1,94.2,157.8,94.8,157.8,95.7z"/>
	<path fill="#DE5D26" d="M165,104.5c-3.5-0.8-14.6-2.8-30.2-0.7c1.6,5.4,4.9,23.1,4.5,39.9c0,0.5,22.9-2.1,22.9-2.8
		C162.4,123.7,165,104.5,165,104.5z"/>
	<path fill="#C9E096" d="M162.2,98.7c0.3,0.1,3.8-1,4-1C166.2,97.7,162.6,98.7,162.2,98.7z"/>
	<path fill="#F5D907" d="M166.2,97.7c0,0,0.5,8.3-2,6.6c-4.6-3.1-3.7-6-3.7-6L166.2,97.7z"/>
	<path fill="#F5D907" d="M166.2,97.7c0,0,15.9,30.1-1,42l-3.2-5.5c0,0,6.9-4.2,2.2-30c-1.2-6.4,0.3-6.9,0.3-6.9L166.2,97.7z"/>
	<path fill="#DE5D26" d="M145.4,196.7c7.8,4.7,9.4,10.8,9.4,10.8s-10.3,2.8-22.1-3.5s-4.7-16.2-4.7-16.2S141.2,194.2,145.4,196.7z"
		/>
	<path fill="#F5D907" d="M125.6,192.8c0,0,6.4,5,12.9,8.3c6.2,3.1,9.8-0.2,6.9-3.4c-1-1.1-2.7-2.4-5.5-4.1
		C139.8,193.6,130.3,186.9,125.6,192.8z"/>
	<path fill="#DE5D26" d="M132.7,201.5c7.8,4.7,9.4,10.8,9.4,10.8s-10.3,2.8-22.1-3.5c-11.8-6.3-4.7-16.2-4.7-16.2
		S128.6,199,132.7,201.5z"/>
	<path fill="#F5D907" d="M112.9,197.5c0,0,6.4,5,12.9,8.3c6.2,3.1,9.8-0.2,6.9-3.4c-1-1.1-2.7-2.4-5.5-4.1
		C127.1,198.3,117.6,191.6,112.9,197.5z"/>
	<polygon fill="#F5D907" points="139.3,167.9 136.1,193.5 125.6,192.8 124.5,168.1 	"/>
	<polygon fill="#F5D907" points="124.6,167.6 124.8,199.6 110.6,198.6 109.8,167.9 	"/>
	<path fill="#C9E096" d="M90.3,131.2c0,0,24-4,37.5,1.3c13.5,5.3,18.2,19,18.4,35.6c0,0-7.6,5.9-38.2,3.7L90.3,131.2z"/>
	<path fill="#F5D907" d="M131.6,73.2c-33-8.3-49.2-1-49.2-1s4.1-1,7.3,9.6c21.4-2.9,35.4-0.5,40.2,0.7c-0.7-2.2-1.5-4.3-2.3-5.7
		C129.1,73.8,130.6,73.2,131.6,73.2z"/>
	<path fill="#3E7ABD" d="M103.3,52.7c0,0-5.1-3.4-3.1-8.4c0,0-3.6-5.8-0.5-7.7c0,0-4-6.5-0.1-9.1c0,0-3.3-4.4,0.2-7
		c0,0-3.3-4.1,0.6-6.7c0,0-4.2-2.9,0.2-5.7c0,0-1.4-5.4,3.5-4.3c0,0,1.3-4.3,6.7-1.5c0,0,3.6-5.1,7,0c0,0,5-3.9,6.4,2
		c0,0,6.5-1.2,4,4.2c0,0,3.7,2.1,0.6,6.7c0,0,3.3,3.8,0.2,6.7c0,0,3.7,3.4-1,6.7c0,0,3.8,0.8-0.6,5.7c0,0,3.3,2.4,0.2,5.4
		c0,0,3.4,1.1-0.5,4c0,0,3.3,2.8-1.7,5.3c0,0,4.5,3.1-2.8,3.3S103.3,52.7,103.3,52.7z"/>
	<path fill="#F5D907" d="M125.9,39.2l-0.7,22.5c-0.1,1.9-1.9,3.4-4,3.4l-4.5-0.1l-0.2,7.5c0,0-0.1,7.6-10.6-0.3l0.5-15.5
		c0,0-3.2-0.7-3.1-4c0.1-3.3,3.8-1.6,3.8-1.6l0.4-12.6L125.9,39.2z"/>
	<path fill="#3E7ABD" d="M107,51c0,0,2.8,0.5,2.1-1.9c0,0,3.1-2.9-1-4c0,0,3.9-4.3,0.5-4.7c0,0,4.1,1.4,5.7-1.2c0,0,3,2.4,6.4,0.5
		c0,0,3.7,2.8,6.3-0.5s-6.5-3.8-6.5-3.8l-14.5,1.3C106.1,36.7,103.3,46.5,107,51z"/>
	<path fill="#DE5D26" d="M106.4,70.2c0,1.1-1.1,2-2.3,2s-2.2-1-2.2-2.1c0-1.1,1.1-2,2.3-2C105.4,68.2,106.4,69.1,106.4,70.2z"/>
	<path fill="#DE5D26" d="M108.6,73.3c0,1.1-1.1,2-2.3,2c-1.3,0-2.2-1-2.2-2.1s1.1-2,2.3-2C107.6,71.2,108.6,72.2,108.6,73.3z"/>
	<path fill="#DE5D26" d="M111.9,74.4c0,1.1-1.1,2-2.3,2c-1.3,0-2.2-1-2.2-2.1c0-1.1,1.1-2,2.3-2S112,73.3,111.9,74.4z"/>
	<path fill="#DE5D26" d="M116.5,75.5c0,1.1-1.2,2-2.5,2c-1.4,0-2.4-1-2.4-2.1c0-1.1,1.2-2,2.5-2C115.4,73.4,116.5,74.4,116.5,75.5z"
		/>
	<path fill="#DE5D26" d="M119.9,73.6c0,1.1-1.1,2-2.3,2c-1.3,0-2.2-1-2.2-2.1c0-1.1,1.1-2,2.3-2C119,71.5,120,72.4,119.9,73.6z"/>
	<path fill="#DE5D26" d="M121.2,70.6c0,1.1-1.1,2-2.3,2c-1.3,0-2.2-1-2.2-2.1c0-1.1,1.1-2,2.3-2S121.2,69.5,121.2,70.6z"/>
	<path fill="#C9E096" d="M89.7,81.7c2.2,7.4,6.7,31.6,6.2,54.6c0,0.6,31.2-4.8,31.4-3.8c0-13.2-4.9-28.1-4.1-35.7
		c8.6-1.4,8.3-11.4,6.8-14.4C125.1,81.3,111,78.8,89.7,81.7z"/>
	<path fill="#C9E096" d="M127.1,74.7c0.4,0.1,5.2-1.4,5.5-1.3C132.6,73.4,127.8,74.7,127.1,74.7z"/>
	<path fill="#BF7D2A" d="M107.9,80.1l2-1c0,0,0,3,3.2,3.6c3.2,0.6,2-4.7-0.6-6.5c-2.6-1.8-7.7-1-7.7-1L107.9,80.1z"/>
	<path fill="#E69324" d="M89.9,83.3c0,0,3.1-13.7,11.4-11s7.4,7.2,5.9,12.5c-1.5,5.3,9.2,9.7,9.2,9.7l-2.1,2.3c0,0-8.7-2.5-13.9-5
		c-5.2-2.5-0.6-0.4-0.6-0.4s1.2,0.9-0.6,1.4c0,0,9.3,16.7,5.2,27.4s-16.6-9.9-16.6-9.9L89.9,83.3z"/>
	<path fill="#1A1A1A" d="M119.1,97.6c-0.5,1.2-2.3,1.7-3.9,1.1s-2.6-2-2.1-3.2c0.5-1.2,2.3-1.7,3.9-1.1S119.6,96.4,119.1,97.6z"/>
	<path fill="#E69324" d="M100.9,74.4c0,0-3.2-3.4-6.7-3.4c-3.4,0-7.6,4.6-5.9,6.2s4.3,1.7,6,0.9S100.9,74.4,100.9,74.4z"/>
	<g>
		<path fill="#677879" d="M96.9,190.5c0,0-3.5,6.1-1.6,10.8l3.3,1.5l1.1-2c0,0,6.4,9.5,24,7.3c0,0,3.9-8.4-10.1-18.4L96.9,190.5z"/>
		<path fill="#556B66" d="M75.2,193c0,0-3.5,6.1-1.6,10.8l3.3,1.5l1.1-2c0,0,6.4,9.5,24,7.3c0,0,3.9-8.4-10.1-18.4L75.2,193z"/>
		<path d="M72.3,29.7c0,0-6-10.6-10.5,1.3C61.8,30.9,65.8,23.7,72.3,29.7z"/>
		<path fill="#FFFFFF" d="M41.4,70.1c0,0,17.1-11.4,54.2,1.1c0,0-13.6,10.9-7.6,69.7c-0.3-1-32.5,8.7-39.9,2.5
			C38.2,117.7,41.4,70.1,41.4,70.1z"/>
		<path fill="#F5D907" d="M82.1,38.1l-0.5,19.8c-0.1,2.4-2.4,4.4-5.1,4.3h0l-0.3,9.5c0,0-6.7,6.3-19.3-0.4l0.5-19.8c0,0-4.1-0.8-4-5
			s4.8-2.1,4.8-2.1l0.2-6.8c0.2-5.8,5.6-10.3,12.1-10.2l0,0C77.1,27.6,82.3,32.4,82.1,38.1z"/>
		<path d="M77.4,29.6c0,0-3-11.4-10.2-0.2C67.2,29.4,71.9,23.7,77.4,29.6z"/>
		<path d="M56.5,42.9l0.5-2.7l1.4,3.2l1.9-2.9c0,0,1.1,3.7,0.9,3.1c-0.2-0.6-0.6-4.5-0.6-4.5l-2.3,2l-1.7-2.7L56.5,42.9z"/>
		<path fill="#CBB177" d="M76.6,62.5c0,0-12,2.1-13.8-2.6c-1.8-4.7-0.2-8.8,5.4-8.7c5.6,0.1,13.4,0.3,13.4,0.3s0.4,3.9-0.1,6.4
			C81.1,60.4,79.8,62.7,76.6,62.5z"/>
		<path fill="#E5E5E4" d="M67.9,73.2c0,0-5.4,6.3-4.8,9.2c0,0-14.2-8.4-6.1-15.2C57,67.1,60.1,73,67.9,73.2z"/>
		<path fill="#E5E5E4" d="M64.9,73.1c0,0,5.1,6.5,4.3,9.4c0,0,14.6-7.8,7-14.9C76.2,67.6,72.8,73.3,64.9,73.1z"/>
		<path fill="#FFFFFF" d="M95.2,71.6c0,0,2.6,15.3-4.8,23.5c0,0,18.7,9,10.9,43.3l-13.6-0.3L83,88.3L95.2,71.6z"/>
		<path fill="#5E98D1" d="M84.2,156.5c0,0,16.2,2.1,7.7,32.7c0,0,11.1,9.2,24.1,2.7c0,0,9.5-40.6-16.9-55.4l-21.9-3.9l7.2,22.9"/>
		<path fill="#3A7FBE" d="M64.6,161.1c0,0,16.2,1.7,8.8,32.5c0,0,11.4,9,24.2,2c0,0,8.2-40.8-18.7-55L61.3,138l3.5,21.9"/>
		<path fill="#FFFFFF" d="M101.3,138.5c0,0-13.8,6.1-33.5,4.3c0,0,3.7-12,17.4-11.7C104.2,131.5,101.3,138.5,101.3,138.5z"/>
		<path fill="#A4772B" d="M27.4,203.2L0,187.5l1.3-61.9c0.6-8.5,7.1-15.9,16.5-18c3-0.6,6.2-0.8,9.4,0.1c13,3.3,33.4,6.8,33.4,6.8
			L27.4,203.2z"/>
		<path fill="#B2802C" d="M68.4,204.1c0,0,2.6-53.2,3.2-72.8c0.5-19.6-14.3-17.9-21.1-18.1s-22.1-1.5-22.4,27.7s-0.6,62.3-0.6,62.3
			L68.4,204.1z"/>
		<path fill="#F5D907" d="M54.4,115.7c17.4,4.4,18.8-2.4,18.3-4.9c-0.4-2.5-10.3-1.9-10.3-1.9s4.2,0.1,3.8-1.8
			c-0.4-1.9-5.2-2.2-5.2-2.2s-8-1.1-9.2,3.7C50.5,113.4,54.4,115.7,54.4,115.7z"/>
		<path fill="#F5D907" d="M31.1,86.3c0,0-16,15.7-14.6,21.5s24.4,9.6,39.6,8.2l-0.5-10.4c0,0-11.7-1.6-17-3S45,90.7,45,90.7
			L31.1,86.3z"/>
		<path fill="#FFFFFF" d="M41.9,69.8c0,0-7.1,2.5-15,15.1c0,0,4.7,8.5,15.3,8.4c0,0,6.5-1.5,8.6-8.9C52.9,77.1,41.9,69.8,41.9,69.8z
			"/>
	</g>
	<path fill="#E69324" d="M90.3,95.3c0,0-2.2-17.1,0.9-20.1c3.1-2.9,3.5-4.6,8.4-3.2C104.6,73.5,96.4,94.1,90.3,95.3z"/>
	<path fill="#BF7D2A" d="M103.3,106c0,0,10-3.8,14.1-1.7c4.1,2.1,6.9,10.2,3.1,10.8c-3.8,0.6-4.3-7.8-15-4.3L103.3,106z"/>
	<path fill="#E69324" d="M102,99.6c0,0,15.5,16.8,11.3,43.1l-2.7,3.3c0,0-4.8-6.1-9.3-7.6c0,0,2.9-17.4-1.9-33.2L102,99.6z"/>
	<path fill="#E69324" d="M97.7,101.9c0,0,10-3.8,14.1-1.7s6.9,10.2,3.1,10.8s-4.3-7.8-15-4.3L97.7,101.9z"/>
	<path fill="#E69324" d="M97.2,71.9c0,0-7.5-5.4-11.1-1.8s-4.4,6.6-1.7,7.3c2.6,0.7,5.4-4.9,6.6-4.2s4.5,2.1,4.5,2.1L97.2,71.9z"/>
	<path fill="#F5D907" d="M131.2,130.9c-11.4,7.1-14.3,2.4-14.7,0.5c-0.4-1.9,7-3.7,7-3.7s-3,1-3.3-0.5c-0.3-1.5,3.2-2.8,3.2-2.8
		s5.5-2.6,7.7,0.6C133.4,128.4,131.2,130.9,131.2,130.9z"/>
	<path fill="#F5D907" d="M132.6,73.4c0,0,0.7,11.3-2.7,9c-6.3-4.3-5-8.3-5-8.3L132.6,73.4z"/>
	<path fill="#F5D907" d="M132.6,73.4c0,0,21.8,41.2-1.4,57.5l-4.3-7.5c0,0,9.5-5.8,3-41c-1.6-8.7,0.5-9.5,0.5-9.5L132.6,73.4z"/>
	<path fill="#DE5D26" d="M143.6,165.9l3.3,4.3c0.1,0,0.1,0,0.2,0l3.7-4.1l6.3,4.2l3-5.2c0,0,6.7,4.6,7,4.6c0.3,0,3.9-5.2,3.9-5.2
		l4.1,3c0.7-0.3,1-0.5,1-0.5c-0.1-12.1-3.5-22.1-13.4-26c-9.9-3.9-27.4-1-27.4-1l6.9,28.4L143.6,165.9z"/>
	<path fill="#F5D907" d="M136.9,97.1c0,0-17.6,29.4-1.3,42l3.5-5.3c0,0-6.7-4.5-0.5-30.1c1.5-6.3,0-7,0-7L136.9,97.1z"/>
	<path fill="#F5D907" d="M151.8,68.3l5.9-5.3c0.6-0.6,1.7-0.2,1.7,0.6l-0.2,7.4c0,0.4,0.4,0.8,0.9,0.9l8.4,0.8
		c0.9,0.1,1.2,1.1,0.5,1.5l-6.7,4.5c-0.4,0.3-0.5,0.8-0.2,1.1l4.5,6.3c0.5,0.7-0.2,1.5-1.1,1.3l-8.2-1.8c-0.5-0.1-1,0.1-1.2,0.6
		l-2.7,7c-0.3,0.7-1.4,0.8-1.8,0.1l-3.5-6.8c-0.2-0.4-0.7-0.6-1.2-0.5l-7.9,2.5c-0.8,0.3-1.6-0.5-1.2-1.2l3.8-6.6
		c0.2-0.4,0.1-0.9-0.4-1.1l-7.2-3.9c-0.8-0.4-0.5-1.4,0.3-1.6l8.2-1.5c0.5-0.1,0.8-0.5,0.8-0.9l-1-7.4c-0.1-0.8,0.9-1.3,1.6-0.8
		l6.5,4.8C150.8,68.7,151.4,68.6,151.8,68.3z"/>
	<path fill="#FFFFFF" d="M140.6,131.6c-0.3-0.1-0.6,8.7,7.4,9.4c8.8,0.7,11.3-1.4,11.4-8.5C159.5,132.5,151.6,136.1,140.6,131.6z"/>
	<path fill="#F5D907" d="M165.2,139.8c-8.3,5.2-10.5,1.8-10.8,0.4c-0.3-1.4,5.1-2.7,5.1-2.7s-2.2,0.7-2.4-0.3c-0.2-1.1,2.3-2,2.3-2
		s4-1.9,5.6,0.5C166.8,137.9,165.2,139.8,165.2,139.8z"/>
	<path fill="#F5D907" d="M135.6,139.1c8,5.5,10.4,2.2,10.7,0.9c0.4-1.4-5-2.9-5-2.9s2.2,0.8,2.4-0.2c0.3-1.1-2.2-2.1-2.2-2.1
		s-3.9-2.1-5.7,0.2C134.2,137.2,135.6,139.1,135.6,139.1z"/>
	<path fill="#F5D907" d="M140.6,131.6c0,0-1.5-1.5,0.2-1.7c0,0-1.3-2,0.4-2c0,0,0.4-1.8,1.9-0.5c0,0,0.7-2,2.2,0c0,0,1.3-2.2,2.5,0
		c0,0,1.2-1.3,2,0.5c0,0,1.9-1,2.3,0.6c0,0,1.2-0.9,1.8,0.2c0,0,1.3-0.9,2.2,0.2c0,0,1-1.4,1.9-0.2c0,0,1.7-1,1.7,1
		c0,0,1.3,0.4,0.3,1.2c0,0,1.2,0.9-0.2,1.3l-0.3,0.6C159.5,132.5,152.8,136.2,140.6,131.6z"/>
	<path fill="#BF7D2A" d="M113.8,134.6c0,0,3.5-1,5.3,1.5c3.2,4.7-2.4,8.8,2.5,8.6c4.9-0.2,12.8-0.9,7.5,2.6
		c-5.3,3.5-12.3,2.5-12.3,2.5S111.8,142.9,113.8,134.6z"/>
	<path fill="#E69324" d="M105.9,141.4c0,0,7.8-5.1,10.7-0.3s-2.4,8.8,2.5,8.6c4.9-0.2,12.8-0.9,7.5,2.6c-5.3,3.5-12.3,2.5-12.3,2.5
		S111.8,146.4,105.9,141.4z"/>
	<path fill="#EAA0C6" d="M184.5,103.5c0,0.7-1.5,1.3-3.3,1.2c-1.8,0-3.2-0.7-3.2-1.4c0-0.7,1.5-1.3,3.3-1.2
		C183.1,102.2,184.6,102.8,184.5,103.5z"/>
	<path fill="#F5D907" d="M225.3,70.4l0-8.1l2,2.1l2-3.8l2.6,3.8l2.4-4.1l2,3.9l2.8-3.7l1.9,4.9l2.2-3.3l-0.4,8.9
		C242.8,71.2,240.5,83.5,225.3,70.4z"/>
	<path fill="#4D95D0" d="M214.3,141.9c-0.3,0.7,0.9,14.3,12.2,17.4c0,0,1.6-3.7,9.6-4.6c0,0,4.6-2.4,0-6.6c1.9-0.8,6.6,4.7,6.6,4.7
		s0-7.8,9.6-5.1c0,0,4.7-3.7-7.9-10.2C231.3,141.3,214.3,141.9,214.3,141.9z"/>
	<path fill="#F5D907" d="M226.6,159.3c0,0,11.5,6.8-1.4,18.6c0,0,0.9,7.8,9.5,5.7c0,0,12-22.4-0.6-30.2
		C234.2,153.4,227.1,152,226.6,159.3z"/>
	<path fill="#F5D907" d="M242.5,151.3c0,0,9.8,7,1.6,24.7c0,0,4.3,9.5,9.3,1.8c0.4-0.7,7-16.8-1.2-29.8
		C252.2,148,246.1,143.1,242.5,151.3z"/>
	<path fill="#DE5D26" d="M234.2,99.4c0,0-4.8,3-10.4-0.6c0,0-6.4-1.3-9.3,2.4c0,0-10.1,15.9-0.3,40.7c0,0,18,8.2,28.5-1.6
		c4.1-3.8-3.9-24.2-1.8-39C241,101.3,238.5,100.2,234.2,99.4z"/>
	<path fill="#F5D907" d="M221.1,109.9c0,0-4.8-1.1-8.1,3.3c0,0-1.9,16.5,9.1,20.3c11,3.8,17.9,1.9,17.9,1.9l-0.4-6.5
		c0,0-12.5,0.5-15.8-3.9S221.1,109.9,221.1,109.9z"/>
	<path fill="#4D95D0" d="M225.2,177.8c0,0-2.9-0.5-5.4,5.5c0,0,7.9,11.6,19,13.3c0,0,5.7-5.8-3.2-15.1l-0.9,2
		C234.7,183.6,225.3,184.1,225.2,177.8z"/>
	<path fill="#FFFFFF" d="M219.8,183.3c0,0,6,10.9,19.1,13.4l0.7-0.9c0,0-13.2-3.3-19.1-13.7L219.8,183.3z"/>
	<path fill="#FFFFFF" d="M225.8,177.3c0,0,1.8,6.4,9.2,5.4l0.6-1.1l0.4,0.7c0,0,0.5,0.8-1.1,1.7c-1.5,0.8-9.8-0.3-10.1-6.2
		L225.8,177.3z"/>
	<path fill="#4D95D0" d="M244.1,174.2c0,0-2.6-0.4-4.8,4.9c0,0,7.1,10.3,16.9,11.9c0,0,5-5.2-2.8-13.4l-0.8,1.8
		C252.6,179.3,244.2,179.8,244.1,174.2z"/>
	<path fill="#FFFFFF" d="M239.2,179c0,0,5.3,9.7,17,11.9l0.6-0.8c0,0-11.7-2.9-17-12.2L239.2,179z"/>
	<path fill="#FFFFFF" d="M244.6,173.7c0,0,1.6,5.7,8.2,4.8l0.5-1l0.3,0.6c0,0,0.4,0.8-1,1.5c-1.4,0.7-8.7-0.3-9-5.5L244.6,173.7z"/>
	<path fill="#B73E26" d="M212.5,113.7c0.1,0.6,10.3-3.3,10.3-3.3s0.8-9-4.4-10.4C213.2,98.7,211.6,109.7,212.5,113.7z"/>
	<polygon fill="#9BCA3B" points="240.7,121.2 240.7,136.6 248.1,136.5 250.2,121.4 	"/>
	<path fill="#FFFFFF" d="M240.5,121.2c0,0-0.2-4.8,5.9-4.1c4.3,0.5,3.6,4.4,3.6,4.4L240.5,121.2z"/>
	<path fill="#E89CC4" d="M240.8,121.5c0,0-0.4-1.6,0.5-1.2c0,0,0.8-2,1.5-1.2c0,0,0.9-1.1,1.7-0.4c0,0,1.1-1.1,2-0.1
		c0,0,0.6-0.9,1.6,0.2c0,0,1.3,0.3,1,1.4c0,0,0.7,0.3,0.5,1.3L240.8,121.5z"/>
	<path fill="#F69220" d="M240.4,124.8c0,0,0.8-1.4,2-0.5c1.2,0.9,1,0.6,1.8,0.3s2-0.7,2.7,0.4c0.7,1.1,2.6-0.5,2.6-0.5l-1,7.6
		c0,0-1.3-1.4-1.8-0.2c-0.5,1.2-1.7,0.8-2.1,0s-1.3,0-1.7,0.5c-0.4,0.6-1.3-1-1.7-1.2c-0.4-0.2-0.9,1-0.9,1L240.4,124.8z"/>
	<path fill="#F5D907" d="M239.9,135.5c10.8-0.9,10.4-4.9,9.5-6.2c-0.9-1.3-6.2,0.9-6.2,0.9s2.3-0.8,1.7-1.7c-0.7-1-3.5-0.2-3.5-0.2
		s-4.7,0.9-4.2,3.8S239.9,135.5,239.9,135.5z"/>
	<path fill="#E5E5E4" d="M244.7,119l0.6-6.8l4.6-0.3l-0.5,1.1l-3.3,0.1l-0.8,5.9C245.3,119.1,245.2,118.5,244.7,119z"/>
</g>
</svg>
