<?xml version="1.0" encoding="utf-8"?>
<!-- Generator: Adobe Illustrator 19.0.0, SVG Export Plug-In . SVG Version: 6.00 Build 0)  -->
<svg version="1.1" id="Layer_1" xmlns="http://www.w3.org/2000/svg" xmlns:xlink="http://www.w3.org/1999/xlink" x="0px" y="0px"
	 viewBox="-680 527.4 298.8 205.5" style="enable-background:new -680 527.4 298.8 205.5;" xml:space="preserve">
<style type="text/css">
	.st0{fill:#998675;}
	.st1{fill:#825439;}
	.st2{fill:#CD0014;}
	.st3{fill:#736357;}
	.st4{fill:#FFFFFF;}
	.st5{fill:#F1FFFF;}
	.st6{fill:none;}
	.st7{fill:#FFFDFD;}
	.st8{font-family:'Gotham-Book';}
	.st9{font-size:9px;}
</style>
<rect x="-673" y="593" class="st0" width="284.3" height="139.6"/>
<rect x="-634.2" y="583.5" class="st1" width="2.2" height="149.4"/>
<rect x="-654.5" y="583.5" class="st1" width="2.2" height="149.4"/>
<rect x="-611.3" y="583.5" class="st1" width="2.2" height="149.4"/>
<rect x="-588.5" y="583.5" class="st1" width="2.2" height="149.4"/>
<rect x="-565.6" y="583.5" class="st1" width="2.2" height="149.4"/>
<rect x="-542.8" y="583.5" class="st1" width="2.2" height="149.4"/>
<rect x="-519.9" y="583.5" class="st1" width="2.2" height="149.4"/>
<rect x="-497.1" y="583.5" class="st1" width="2.2" height="149.4"/>
<rect x="-474.2" y="583.5" class="st1" width="2.2" height="149.4"/>
<rect x="-451.4" y="583.5" class="st1" width="2.2" height="149.4"/>
<rect x="-428.5" y="583.5" class="st1" width="2.2" height="149.4"/>
<rect x="-405.7" y="583.5" class="st1" width="2.2" height="149.4"/>
<rect x="-679.8" y="528.9" class="st2" width="298.5" height="137.9"/>
<rect x="-674.3" y="533" class="st2" width="286.7" height="132.4"/>
<rect x="-679.8" y="665.4" class="st3" width="298.5" height="4.4"/>
<rect x="-679.8" y="527.4" class="st3" width="298.5" height="4.7"/>
<rect x="-386.5" y="528.6" class="st3" width="5.3" height="140.9"/>
<path class="st4" d="M-436.1,637.8c-30.6,5.6-61.4,10.3-92.9,10.9c-25.5,0.5-50.7-1.6-75.4-6.9c-24.7-5.3-47.4-14.4-68.8-25.4
	c-0.4-0.2-0.4-0.4-1-0.6l-0.3,28.1c1.1,0.3,2.4,0.6,3.4,1c26.4,9.1,54,12.7,82.5,12.2c18.5-0.3,36.9-2,55.2-4.2
	c30.1-3.5,60-8.3,90.4-10c14.4-0.8,28.7-0.9,43,1.1c4.2,0.6,8.6,1.4,12.6,2c0.1-4.3,0.1-8.6,0.2-12.9
	C-404,632.4-420.1,634.9-436.1,637.8z"/>
<g>
	<g>
		<g id="KRyJ1s.tif_11_">
			<g>
				<path class="st5" d="M-580.7,569.1c0.5,0.2,1,0.3,1.5,0.6c1.1,0.6,1.7,1.7,1.8,2.9c0.1,1.2-0.1,2.3-0.7,3.4
					c-0.4,0.8-0.8,1.5-1.3,2.2s-1.2,1.1-2.1,1.2c-0.8,0.1-1.4-0.4-1.5-1.2c-0.1-0.6,0-1.3,0.3-1.8c0.5-1,1.2-1.9,2.4-2.2
					c0.2-0.1,0.5-0.1,0.7-0.1c0.3,0,0.4-0.1,0.5-0.4c0.3-1.2-0.4-2.1-1.6-2.1c-0.6,0-1.3,0.1-1.9,0.3c-2.5,0.8-4.7,2.3-6.6,4.1
					c-6.2,5.7-11.1,12.3-14.6,20c-1.2,2.7-2.1,5.5-2.6,8.5c-0.3,2-0.4,4.1,0.1,6.1c0.6,2.6,2.2,4.3,4.6,5.3c2,0.8,4,1.1,6.1,1
					c3.4-0.3,6.7-1.2,10-2c3.8-0.9,7.6-1.9,11.4-2.7c3.6-0.8,7.2-1.2,10.9-1c4.2,0.2,8.1,1.5,11.6,4c1.9,1.4,3.9,2.8,5.6,4.5
					c0.3,0.3,0.6,0.6,0.8,1c-0.1-0.1-0.2-0.1-0.3-0.2c-3.4-2.2-7.2-3.5-11.3-3.4c-1.8,0-3.5,0.3-4.9,1.4c-0.7,0.6-1.3,1.3-2,1.9
					c0.1,0,0,0,0,0c-1.5-2.7-3.9-4.2-6.9-4.9c-2.1-0.5-4.2-0.6-6.3-0.4c-3.7,0.2-7.3,1.2-10.9,2.1c-3.3,0.8-6.7,1.6-10.1,2.2
					c-2.7,0.5-5.4,0.5-7.9-0.5c-3.9-1.4-6.3-4.2-7.2-8.3c-0.2-0.8-0.2-1.6-0.3-2.4c0-0.1-0.1-0.2-0.1-0.3c0-0.7,0-1.4,0-2.1
					c0.1-0.6,0.1-1.1,0.2-1.7c0.4-3.2,1.3-6.2,2.6-9.1c2.5-5.8,6.1-10.9,10.6-15.3c2.9-2.9,6-5.5,9.6-7.5c2-1.1,4.1-2.1,6.3-2.5
					c0.7-0.2,1.4-0.2,2.2-0.4C-581.7,569.1-581.2,569.1-580.7,569.1z"/>
				<path class="st5" d="M-578.2,591.2c0.3-0.1,0.6-0.1,0.8-0.2c0.7-0.4,1.5-0.7,2.2-1.2c1.5-1,2.7-2.2,3.9-3.5
					c1.2-1.3,2.6-2.5,4.2-3.5c1.3-0.9,2.7-1.4,4.4-1.3c2.1,0.1,3.5,1.8,3.2,3.9c-0.2,1.6-0.9,3.1-2,4.3c-0.4,0.4-0.9,0.8-1.4,1
					c-0.9,0.4-1.8-0.2-1.8-1.2c-0.1-1.7,1.5-3.5,3.3-3.7c0.1,0,0.3-0.1,0.3-0.2c0.3-0.6,0.1-1.7-1-1.7c-0.9,0-1.7,0.4-2.3,0.9
					c-1.3,1-2.5,2.2-3.5,3.5c-2.5,3.1-4.3,6.5-5.6,10.2c-0.3,0.9-0.5,1.9-0.3,2.8c0.2,1.5,1.4,2.3,2.8,1.9c1.3-0.3,2.4-1.1,3.4-2
					c2.1-1.9,4-4.1,5.7-6.4c1.6-2.1,3.2-4.3,4.8-6.4c1.6-2,3.4-3.8,5.5-5.3c1-0.7,2-1.3,3.2-1.5c1.3-0.2,2.4,0.2,3.2,1.3
					c0.1,0.1,0.1,0.1,0.2,0.2c0.1-0.1,0.1-0.1,0.1-0.1c0.3-0.7,0.8-0.8,1.5-0.8c1.2,0.1,2.3,0,3.5,0c0.1,0,0.3,0,0.5,0
					c-0.1,0.2-0.2,0.4-0.3,0.6c-3.4,5.8-6.7,11.7-10.1,17.5c-0.2,0.3-0.3,0.7-0.4,1.1c-0.1,0.5,0.3,0.8,0.8,0.6
					c0.4-0.1,0.7-0.4,1.1-0.6c1.2-0.9,2.3-2,3.3-3.2c0.9-1.1,1.8-2.2,2.6-3.3c0.2-0.3,0.4-0.4,0.8-0.4c0.4,0,0.7,0,1.1,0
					c-0.1,0.1-0.1,0.2-0.1,0.2c-2.1,3-4.3,6-6.9,8.6c-1.3,1.3-2.7,2.5-4.4,3.4c-0.8,0.4-1.6,0.6-2.4,0.4s-1.5-1-1.6-1.9
					c0-0.6,0-1.2-0.1-1.9c-0.1,0.1-0.2,0.2-0.2,0.3c-0.9,1-1.9,1.9-3.1,2.6c-0.8,0.5-1.6,0.8-2.5,0.9c-1.9,0.2-3.2-0.9-3.3-2.8
					c0-1.1,0.2-2.2,0.5-3.2c0-0.1,0.1-0.3,0-0.5c-0.1,0.1-0.2,0.2-0.4,0.3c-1.5,1.4-3,2.8-4.6,4.1c-1.3,1.1-2.8,1.8-4.5,2
					c-0.9,0.1-1.7,0.2-2.6-0.1c-1.8-0.6-2.6-2-2.9-3.8c-0.5-2.3,0.1-4.5,1.1-6.6c0.6-1.2,1.2-2.4,1.8-3.6c0.1-0.1,0.1-0.3,0.2-0.4
					c-0.7,0.2-1.2,0.3-1.8,0.4c-0.5,0.1-0.8,0.4-1.1,0.8c-1.2,1.9-2.3,3.9-3.7,5.7c-1.8,2.4-3.9,4.6-6.5,6.3
					c-1.1,0.7-2.2,1.2-3.5,1.4c-1.4,0.1-2.7-0.6-3.3-1.9c-0.5-1.1-0.5-2.2-0.4-3.4c0.3-3.4,1.7-6.4,3.5-9.2c2.2-3.4,4.8-6.5,8.1-8.8
					c1.4-1,2.8-1.8,4.5-2.1c2.5-0.5,4.2,0.9,4.2,3.5c0,1.4-0.3,2.8-0.8,4.1C-577.6,589.9-577.9,590.5-578.2,591.2z M-559.2,601.2
					c0.1,0.4,0.2,0.7,0.5,0.9s0.7,0.2,1.1,0c0.8-0.5,1.6-1.1,2.2-1.8c0.8-1.1,1.7-2.2,2.4-3.4c2.3-3.9,4.6-7.9,6.8-11.8
					c0.2-0.4,0.1-0.8-0.4-1c-0.4-0.2-0.8-0.1-1.2,0.1c-0.8,0.3-1.5,0.8-2,1.5c-1.6,2-3.2,4-4.8,6.1c-1.7,2.3-3.1,4.7-4.1,7.4
					C-558.9,599.9-559,600.5-559.2,601.2z M-585.5,589.4c-0.1,0.1-0.2,0.2-0.2,0.3c-0.8,1.2-1.6,2.4-2.3,3.6c-1.1,1.8-2,3.6-2.4,5.6
					c-0.1,0.6-0.2,1.2-0.1,1.8c0.1,1.1,0.9,1.6,2,1.3c0.3-0.1,0.5-0.2,0.8-0.3c1-0.6,1.8-1.4,2.6-2.2c1.7-1.8,2.9-3.9,4.1-6
					c0.1-0.1,0.1-0.3,0.2-0.5C-582.9,592.3-584.5,591.3-585.5,589.4z M-578.4,586.1c0-0.2,0-0.4,0-0.6c-0.2-1.4-0.8-1.9-2.3-1.5
					c-0.2,0.1-0.5,0.2-0.7,0.3c-1,0.7-1.8,1.5-2.2,2.7c-0.3,1-0.3,1.9,0.4,2.7c0.7,0.9,1.7,1.4,2.9,1.6c0.2,0,0.4-0.1,0.4-0.3
					c0.3-0.6,0.6-1.3,0.8-1.9C-578.6,588.1-578.4,587.1-578.4,586.1z"/>
			</g>
		</g>
		<g id="KRyJ1s.tif_10_">
			<g>
				<path class="st5" d="M-473.6,578.9c0.4-0.7,0.7-1.4,1-2.1c0.3-0.7,0.6-1.4,0.6-2.2c0-0.6-0.2-0.8-0.8-0.6
					c-0.5,0.2-1,0.5-1.5,0.8c-1.9,1.5-3.7,3.3-5.4,5.1c-3.4,3.9-6.3,8.1-9,12.6c-1.7,2.8-3.2,5.6-4.8,8.4c-0.1,0.3-0.3,0.5-0.3,0.9
					c0.2-0.1,0.4-0.2,0.6-0.3c1-0.8,2.1-1.6,3.1-2.5c4.4-3.9,8.4-8.2,11.9-12.9c0.3-0.5,0.7-0.8,1.3-0.7c0.3,0,0.5-0.1,0.9-0.1
					c-0.2,0.3-0.4,0.6-0.5,0.8c-2.3,3.2-4.9,6.2-7.7,9.1c-3.3,3.5-6.9,6.7-10.9,9.5c-0.1,0.1-0.2,0.2-0.3,0.3
					c-1.2,2.7-2.3,5.3-2.9,8.2c-0.1,0.6-0.1,1.2,0,1.7c0.1,0.9,0.9,1.2,1.6,0.7c0.7-0.6,1.4-1.2,2-1.9c1.1-1.4,2.1-2.9,3-4.4
					c1.7-2.6,3.3-5.1,5.3-7.4c1.8-2.1,3.8-4.1,6.2-5.5c1.1-0.6,2.2-0.9,3.4-0.7c0.8,0.1,1.3,0.7,1.7,1.3c0.1,0.1,0.2,0.3,0.3,0.5
					c0.2-0.4,0.4-0.7,0.6-1c0.1-0.1,0.2-0.2,0.3-0.2c1.5,0,3,0,4.5,0h0.1c-0.1,0.1-0.1,0.3-0.2,0.4c-2.3,4-4.5,8.1-6.8,12.1
					c-0.9,1.6-1.8,3.1-2.7,4.7c-0.2,0.4-0.4,0.9-0.6,1.3c-0.1,0.3-0.2,0.6,0.1,0.8c0.3,0.2,0.6,0.1,0.9-0.1c1.3-0.8,2.4-1.8,3.4-3
					c1.1-1.5,2.2-3,3.2-4.5c0.1-0.2,0.3-0.3,0.6-0.3c0.4,0,0.8,0,1.2,0c-0.2,0.3-0.3,0.5-0.5,0.8c-1.9,2.9-3.9,5.7-6.3,8.2
					c-1.4,1.4-3,2.6-4.8,3.4c-0.5,0.2-1,0.3-1.5,0.3c-1,0-1.7-0.5-1.9-1.4c-0.1-0.6-0.1-1.3-0.1-2c0-0.1,0-0.3,0.1-0.4
					c0,0-0.1,0-0.1-0.1c-0.3,0.3-0.5,0.6-0.8,0.8c-1.1,1.1-2.3,2-3.7,2.7c-0.7,0.3-1.4,0.5-2.1,0.4c-1.3-0.2-2.1-1.1-2.3-2.6
					c-0.1-0.6,0-1.2,0-1.8c0-0.2,0-0.3,0-0.6c-0.2,0.2-0.3,0.3-0.4,0.4c-1.1,1.3-2.2,2.5-3.6,3.4c-0.6,0.4-1.2,0.7-1.9,1
					c-1.5,0.5-2.7-0.1-3.5-1.4c-0.4-0.8-0.5-1.6-0.5-2.5c0.1-2,0.6-3.8,1.2-5.7c0.4-1.1,0.7-2.2,1.1-3.4c-0.2,0-0.4,0.1-0.6,0.1
					c-0.6,0.1-1.2,0.2-1.8,0.2c-0.3,0-0.4,0.2-0.6,0.4c-1.2,1.9-2.3,3.7-3.6,5.5c-1.7,2.4-3.8,4.5-6.4,6c-0.9,0.5-1.8,0.9-2.8,1
					c-1.9,0.2-2.9-1.1-3.2-2.4c-0.3-1.3-0.2-2.7,0.1-4c0.6-2.9,1.9-5.5,3.5-7.9c1.7-2.7,3.6-5.2,6-7.2c1.4-1.2,3-2.3,4.8-2.9
					c0.7-0.2,1.4-0.3,2.1-0.2c1.4,0.1,2.1,1.2,2.3,2.2c0.3,1.5,0.1,2.9-0.4,4.3c-0.4,1.1-0.9,2.2-1.3,3.4c-0.1,0.1-0.1,0.2-0.2,0.4
					c1,0,1.8-0.2,2.6-0.6c0.1-0.1,0.2-0.2,0.2-0.4c2.4-5,5.1-9.9,8.3-14.6c3.9-5.7,8.3-10.9,13.7-15.2c1.3-1,2.6-2,4.1-2.7
					c0.7-0.3,1.5-0.5,2.4-0.5c1,0.1,1.6,0.6,1.6,1.6c0.1,1.3-0.2,2.5-0.8,3.6c-0.6,1.3-0.7,1.3-2,1.5
					C-473.4,578.9-473.5,578.9-473.6,578.9z M-488.1,615c0,0.4,0.5,0.9,1.3,0.6c0.3-0.1,0.7-0.4,1-0.6c1-0.7,1.6-1.7,2.3-2.6
					c1.8-2.6,3.4-5.3,4.9-8.1c0.9-1.6,1.9-3.2,2.8-4.8c0.2-0.3,0.3-0.7,0-1c-0.3-0.4-0.6-0.4-1-0.3c-0.4,0.2-0.9,0.4-1.3,0.7
					c-0.5,0.4-1,0.8-1.4,1.3c-3.3,3.3-5.8,7.2-7.8,11.4C-487.8,612.5-488.1,613.6-488.1,615z M-509.9,603.4c-0.7,1.1-1.4,2-2,3
					c-1.1,1.8-2.1,3.6-2.7,5.7c-0.2,0.7-0.3,1.4-0.2,2.2c0.2,0.9,0.9,1.4,1.8,1.2s1.6-0.8,2.2-1.4c2-1.9,3.5-4.2,4.8-6.6
					c0.1-0.1,0.1-0.3,0.2-0.4C-507.5,606.3-509,605.3-509.9,603.4z M-503,599.9c0-0.2,0-0.4,0-0.6c-0.1-0.9-0.6-1.5-1.4-1.4
					c-0.3,0-0.7,0.1-1,0.2c-0.9,0.5-1.6,1.1-2.2,1.9c-1.4,2.3-0.1,4.9,2.3,5.7c0.1,0,0.3-0.1,0.4-0.2c0.2-0.4,0.5-0.8,0.7-1.3
					C-503.6,602.8-503,601.5-503,599.9z"/>
				<path class="st5" d="M-483.5,578.3c-1.2,1.3-2.3,2.5-3.5,3.7c-0.1,0.1-0.3,0.1-0.4,0c-0.7-0.4-1.5-0.9-2.2-1.3
					c-2.2-1.4-4.4-2.9-6.7-4.2c-1.7-1-3.6-1.8-5.7-2.1c-0.6-0.1-1.3-0.1-1.9,0.1c-0.2,0.1-0.3,0.2-0.3,0.4c0.2,2.3-0.4,4.5-1.3,6.6
					c-1.2,3-3,5.5-5.4,7.7c-1,0.9-2.1,1.6-3.4,2c-1.8,0.5-3.1-0.4-3.4-2.2c-0.2-1.2,0.2-2.3,0.6-3.4c1.5-3.7,3.8-6.7,6.8-9.2
					c1.1-0.9,2.2-1.6,3.3-2.4c0.1-0.1,0.1-0.1,0.3-0.2c-0.7-0.3-1.4-0.3-2-0.2c-1,0.1-1.8,0.6-2.7,1.1c-3.3,1.8-6.1,4.1-8.7,6.8
					c-4.7,5-8.8,10.4-12,16.4c-1.8,3.3-3.2,6.8-3.8,10.5c-0.3,1.5-0.5,3.1-0.1,4.6c0.4,1.6,1.3,2.8,3,3.3c1,0.3,2,0.1,3-0.4
					c1.7-0.8,3.1-1.9,4.4-3.3c2.5-2.6,4.5-5.6,5.7-9.1c0.4-1.3,0.8-2.7,0.7-4.1c-0.1-1.3-0.9-1.9-2.1-1.4c-0.9,0.4-1.6,1.1-2.2,1.8
					c-1.3,1.7-2.1,3.6-2.6,5.7c0,0.1-0.1,0.3-0.3,0.4c-2.3,1.1-4.2,2.6-5.9,4.5c-0.1,0.1-0.1,0.1-0.2,0.2c0.6-4.2,1.8-8,4.5-11.2
					c1.6-1.9,3.5-3.3,6-3.8c0.6-0.1,1.3-0.3,1.9-0.1c1.1,0.3,1.7,1,2.1,2c0.4,1.4,0.4,2.7,0.1,4.1c-0.6,3.2-2.1,6-3.8,8.7
					c-2.2,3.4-5,6.2-8.6,8.3c-1.5,0.9-3.1,1.4-4.9,1.4c-2.8,0.1-4.8-1.2-6.2-3.5c-1.2-2-1.5-4.2-1.3-6.5c0.2-3.6,1.5-6.9,3-10.2
					c4.2-8.7,9.9-16.2,17.5-22.3c3.2-2.6,6.8-4.6,10.8-5.8c1.5-0.4,2.9-0.5,4.4-0.1c0.7,0.2,1.3,0.5,1.7,1c0.2,0.2,0.3,0.2,0.5,0.1
					c1.2-0.4,2.4-0.8,3.6-1.1c3-0.6,5.9-0.2,8.6,1.2C-489.5,574.8-486.5,576.5-483.5,578.3L-483.5,578.3z M-505.6,575.2
					c-0.4,0.2-0.7,0.4-1,0.6c-3.8,2.3-6.6,5.6-8.7,9.6c-0.5,0.9-0.8,1.8-0.9,2.8c-0.1,1.3,0.9,2.1,2.1,1.5c0.5-0.2,1-0.5,1.4-0.8
					c4.1-3.2,6.6-7.4,7.1-12.6C-505.5,576-505.6,575.6-505.6,575.2z"/>
				<path class="st5" d="M-460.1,571.8c-0.7,1.4-1.5,2.7-2.4,3.9c-3.1,3.9-6.8,6.7-11.6,8.2c-2.4,0.8-4.8,1-7.3,0.5c0,0-0.1,0-0.2,0
					c-0.1,0-0.2-0.1-0.4-0.1c0.1-0.1,0.1-0.2,0.2-0.3c1-1.2,2-2.4,3-3.7c0.1-0.1,0.3-0.2,0.4-0.2c2.9,0.3,5.6-0.2,8.2-1.3
					c3.8-1.6,7-3.9,9.8-6.8C-460.2,571.9-460.1,571.9-460.1,571.8z"/>
			</g>
		</g>
		<path class="st5" d="M-530.6,581.8c-0.5,0.6-0.9,1.1-1.3,1.6c-0.5,0.6-1,1.2-1.4,1.8c-0.1,0.1-0.2,0.2-0.4,0.2c-1.6,0-3.2,0-4.7,0
			h-0.1l0.1-0.1c0.8-1.1,1.7-2.1,2.6-3.2c0.1-0.1,0.2-0.2,0.4-0.2C-534,581.8-532.3,581.8-530.6,581.8z"/>
	</g>
</g>
<rect x="-680" y="528.3" class="st3" width="5.3" height="140.6"/>
<g>
	<path class="st4" d="M-562,563.1l1.5-1.8c0.9,0.7,2,1,2.9,1c0.5,0,0.7-0.1,0.7-0.4l0,0c0-0.2-0.3-0.4-1.2-0.6
		c-1.9-0.4-3.5-0.9-3.5-2.7l0,0c0-1.6,1.2-2.8,3.6-2.8c1.6,0,2.8,0.4,3.8,1.2l-1.4,1.9c-0.8-0.6-1.7-0.8-2.5-0.8
		c-0.4,0-0.6,0.1-0.6,0.3l0,0c0,0.2,0.2,0.4,1.1,0.5c2.1,0.4,3.6,1,3.6,2.7l0,0c0,1.8-1.5,2.8-3.7,2.8
		C-559.4,564.5-560.9,564-562,563.1z"/>
	<path class="st4" d="M-553.3,556h2.8v8.4h-2.8V556z"/>
	<path class="st4" d="M-549.5,556h7.2v2.3h-4.4v0.9h4.1v2h-4.1v0.9h4.5v2.3h-7.2L-549.5,556L-549.5,556z"/>
	<path class="st4" d="M-541.5,556h2.9l1.8,3l1.8-3h2.9v8.4h-2.8v-4.2l-1.9,3l0,0l-1.9-3v4.2h-2.7L-541.5,556L-541.5,556z"/>
	<path class="st4" d="M-531.1,556h3.8c2.2,0,3.8,1,3.8,3l0,0c0,2-1.5,3.1-3.8,3.1h-0.9v2.3h-2.8L-531.1,556L-531.1,556z
		 M-527.6,560.1c0.7,0,1.2-0.3,1.2-0.9l0,0c0-0.6-0.4-0.9-1.2-0.9h-0.8v1.9L-527.6,560.1L-527.6,560.1z"/>
	<path class="st4" d="M-523,556h4.1c1.5,0,2.4,0.4,3,1c0.5,0.5,0.8,1.1,0.8,2l0,0c0,1.2-0.6,2.1-1.7,2.6l2,2.9h-3.2l-1.6-2.4l0,0
		h-0.6v2.4h-2.8V556z M-519,559.9c0.7,0,1.1-0.3,1.1-0.8l0,0c0-0.5-0.4-0.8-1.1-0.8h-1.2v1.6H-519z"/>
	<path class="st4" d="M-514.4,556h7.2v2.3h-4.4v0.9h4.1v2h-4.1v0.9h4.5v2.3h-7.2V556H-514.4z"/>
</g>
<rect x="-475.6" y="653.7" class="st6" width="88.4" height="11.4"/>
<text transform="matrix(1 0 0 1 -463.5228 660.2705)" class="st7 st8 st9">SLOGAN 1990</text>
</svg>
