<?xml version="1.0" encoding="utf-8"?>
<!-- Generator: Adobe Illustrator 18.0.0, SVG Export Plug-In . SVG Version: 6.00 Build 0)  -->
<!DOCTYPE svg PUBLIC "-//W3C//DTD SVG 1.1//EN" "http://www.w3.org/Graphics/SVG/1.1/DTD/svg11.dtd">
<svg version="1.1" id="Layer_1" xmlns="http://www.w3.org/2000/svg" xmlns:xlink="http://www.w3.org/1999/xlink" x="0px" y="0px"
	 viewBox="0 0 298.7 205.3" enable-background="new 0 0 298.7 205.3" xml:space="preserve">
<rect x="7" y="65.6" fill="#998675" width="284.3" height="139.6"/>
<rect x="45.8" y="56.1" fill="#825439" width="2.2" height="147.1"/>
<rect x="25.5" y="56.1" fill="#825439" width="2.2" height="147.1"/>
<rect x="68.7" y="56.1" fill="#825439" width="2.2" height="147.1"/>
<rect x="91.5" y="56.1" fill="#825439" width="2.2" height="147.1"/>
<rect x="114.4" y="56.1" fill="#825439" width="2.2" height="147.1"/>
<rect x="137.2" y="56.1" fill="#825439" width="2.2" height="147.1"/>
<rect x="160.1" y="56.1" fill="#825439" width="2.2" height="147.1"/>
<rect x="182.9" y="56.1" fill="#825439" width="2.2" height="147.1"/>
<rect x="205.8" y="56.1" fill="#825439" width="2.2" height="147.1"/>
<rect x="228.6" y="56.1" fill="#825439" width="2.2" height="147.1"/>
<rect x="251.5" y="56.1" fill="#825439" width="2.2" height="147.1"/>
<rect x="274.3" y="56.1" fill="#825439" width="2.2" height="147.1"/>
<rect x="0.2" y="1.5" fill="#CD0014" width="298.5" height="137.9"/>
<rect x="5.7" y="5.6" fill="#CD0014" width="286.7" height="132.4"/>
<rect x="0.2" y="138" fill="#736357" width="298.5" height="4.4"/>
<rect x="0.2" y="0" fill="#736357" width="298.5" height="4.7"/>
<rect x="293.5" y="1.2" fill="#736357" width="5.3" height="141.9"/>
<path fill="#FFFFFF" d="M243.9,110.4c-30.6,5.6-61.4,10.3-92.9,10.9c-25.5,0.5-50.7-1.6-75.4-6.9C50.9,109.1,28.2,100,6.8,89
	c-0.4-0.2-0.4-0.4-1-0.6l-0.3,28.1c1.1,0.3,2.4,0.6,3.4,1c26.4,9.1,54,12.7,82.5,12.2c18.5-0.3,36.9-2,55.2-4.2
	c30.1-3.5,60-8.3,90.4-10c14.4-0.8,28.7-0.9,43,1.1c4.2,0.6,8.6,1.4,12.6,2c0.1-4.3,0.1-8.6,0.2-12.9
	C276,105,259.9,107.5,243.9,110.4z"/>
<g>
	<g>
		<g id="KRyJ1s.tif_11_">
			<g>
				<path fill="#F1FFFF" d="M99.3,41.7c0.5,0.2,1,0.3,1.5,0.6c1.1,0.6,1.7,1.7,1.8,2.9c0.1,1.2-0.1,2.3-0.7,3.4
					c-0.4,0.8-0.8,1.5-1.3,2.2c-0.5,0.7-1.2,1.1-2.1,1.2c-0.8,0.1-1.4-0.4-1.5-1.2c-0.1-0.6,0-1.3,0.3-1.8c0.5-1,1.2-1.9,2.4-2.2
					c0.2-0.1,0.5-0.1,0.7-0.1c0.3,0,0.4-0.1,0.5-0.4c0.3-1.2-0.4-2.1-1.6-2.1c-0.6,0-1.3,0.1-1.9,0.3c-2.5,0.8-4.7,2.3-6.6,4.1
					c-6.2,5.7-11.1,12.3-14.6,20c-1.2,2.7-2.1,5.5-2.6,8.5c-0.3,2-0.4,4.1,0.1,6.1c0.6,2.6,2.2,4.3,4.6,5.3c2,0.8,4,1.1,6.1,1
					c3.4-0.3,6.7-1.2,10-2c3.8-0.9,7.6-1.9,11.4-2.7c3.6-0.8,7.2-1.2,10.9-1c4.2,0.2,8.1,1.5,11.6,4c1.9,1.4,3.9,2.8,5.6,4.5
					c0.3,0.3,0.6,0.6,0.8,1c-0.1-0.1-0.2-0.1-0.3-0.2c-3.4-2.2-7.2-3.5-11.3-3.4c-1.8,0-3.5,0.3-4.9,1.4c-0.7,0.6-1.3,1.3-2,1.9
					c0.1,0,0,0,0,0c-1.5-2.7-3.9-4.2-6.9-4.9c-2.1-0.5-4.2-0.6-6.3-0.4c-3.7,0.2-7.3,1.2-10.9,2.1c-3.3,0.8-6.7,1.6-10.1,2.2
					c-2.7,0.5-5.4,0.5-7.9-0.5c-3.9-1.4-6.3-4.2-7.2-8.3c-0.2-0.8-0.2-1.6-0.3-2.4c0-0.1-0.1-0.2-0.1-0.3c0-0.7,0-1.4,0-2.1
					c0.1-0.6,0.1-1.1,0.2-1.7c0.4-3.2,1.3-6.2,2.6-9.1c2.5-5.8,6.1-10.9,10.6-15.3c2.9-2.9,6-5.5,9.6-7.5c2-1.1,4.1-2.1,6.3-2.5
					c0.7-0.2,1.4-0.2,2.2-0.4C98.3,41.7,98.8,41.7,99.3,41.7z"/>
				<path fill="#F1FFFF" d="M101.8,63.8c0.3-0.1,0.6-0.1,0.8-0.2c0.7-0.4,1.5-0.7,2.2-1.2c1.5-1,2.7-2.2,3.9-3.5
					c1.2-1.3,2.6-2.5,4.2-3.5c1.3-0.9,2.7-1.4,4.4-1.3c2.1,0.1,3.5,1.8,3.2,3.9c-0.2,1.6-0.9,3.1-2,4.3c-0.4,0.4-0.9,0.8-1.4,1
					c-0.9,0.4-1.8-0.2-1.8-1.2c-0.1-1.7,1.5-3.5,3.3-3.7c0.1,0,0.3-0.1,0.3-0.2c0.3-0.6,0.1-1.7-1-1.7c-0.9,0-1.7,0.4-2.3,0.9
					c-1.3,1-2.5,2.2-3.5,3.5c-2.5,3.1-4.3,6.5-5.6,10.2c-0.3,0.9-0.5,1.9-0.3,2.8c0.2,1.5,1.4,2.3,2.8,1.9c1.3-0.3,2.4-1.1,3.4-2
					c2.1-1.9,4-4.1,5.7-6.4c1.6-2.1,3.2-4.3,4.8-6.4c1.6-2,3.4-3.8,5.5-5.3c1-0.7,2-1.3,3.2-1.5c1.3-0.2,2.4,0.2,3.2,1.3
					c0.1,0.1,0.1,0.1,0.2,0.2c0.1-0.1,0.1-0.1,0.1-0.1c0.3-0.7,0.8-0.8,1.5-0.8c1.2,0.1,2.3,0,3.5,0c0.1,0,0.3,0,0.5,0
					c-0.1,0.2-0.2,0.4-0.3,0.6c-3.4,5.8-6.7,11.7-10.1,17.5c-0.2,0.3-0.3,0.7-0.4,1.1c-0.1,0.5,0.3,0.8,0.8,0.6
					c0.4-0.1,0.7-0.4,1.1-0.6c1.2-0.9,2.3-2,3.3-3.2c0.9-1.1,1.8-2.2,2.6-3.3c0.2-0.3,0.4-0.4,0.8-0.4c0.4,0,0.7,0,1.1,0
					c-0.1,0.1-0.1,0.2-0.1,0.2c-2.1,3-4.3,6-6.9,8.6c-1.3,1.3-2.7,2.5-4.4,3.4c-0.8,0.4-1.6,0.6-2.4,0.4c-0.8-0.2-1.5-1-1.6-1.9
					c0-0.6,0-1.2-0.1-1.9c-0.1,0.1-0.2,0.2-0.2,0.3c-0.9,1-1.9,1.9-3.1,2.6c-0.8,0.5-1.6,0.8-2.5,0.9c-1.9,0.2-3.2-0.9-3.3-2.8
					c0-1.1,0.2-2.2,0.5-3.2c0-0.1,0.1-0.3,0-0.5c-0.1,0.1-0.2,0.2-0.4,0.3c-1.5,1.4-3,2.8-4.6,4.1c-1.3,1.1-2.8,1.8-4.5,2
					c-0.9,0.1-1.7,0.2-2.6-0.1c-1.8-0.6-2.6-2-2.9-3.8c-0.5-2.3,0.1-4.5,1.1-6.6c0.6-1.2,1.2-2.4,1.8-3.6c0.1-0.1,0.1-0.3,0.2-0.4
					c-0.7,0.2-1.2,0.3-1.8,0.4c-0.5,0.1-0.8,0.4-1.1,0.8c-1.2,1.9-2.3,3.9-3.7,5.7c-1.8,2.4-3.9,4.6-6.5,6.3
					c-1.1,0.7-2.2,1.2-3.5,1.4c-1.4,0.1-2.7-0.6-3.3-1.9c-0.5-1.1-0.5-2.2-0.4-3.4c0.3-3.4,1.7-6.4,3.5-9.2c2.2-3.4,4.8-6.5,8.1-8.8
					c1.4-1,2.8-1.8,4.5-2.1c2.5-0.5,4.2,0.9,4.2,3.5c0,1.4-0.3,2.8-0.8,4.1C102.4,62.5,102.1,63.1,101.8,63.8z M120.8,73.8
					c0.1,0.4,0.2,0.7,0.5,0.9c0.3,0.2,0.7,0.2,1.1,0c0.8-0.5,1.6-1.1,2.2-1.8c0.8-1.1,1.7-2.2,2.4-3.4c2.3-3.9,4.6-7.9,6.8-11.8
					c0.2-0.4,0.1-0.8-0.4-1c-0.4-0.2-0.8-0.1-1.2,0.1c-0.8,0.3-1.5,0.8-2,1.5c-1.6,2-3.2,4-4.8,6.1c-1.7,2.3-3.1,4.7-4.1,7.4
					C121.1,72.5,121,73.1,120.8,73.8z M94.5,62c-0.1,0.1-0.2,0.2-0.2,0.3c-0.8,1.2-1.6,2.4-2.3,3.6c-1.1,1.8-2,3.6-2.4,5.6
					c-0.1,0.6-0.2,1.2-0.1,1.8c0.1,1.1,0.9,1.6,2,1.3c0.3-0.1,0.5-0.2,0.8-0.3c1-0.6,1.8-1.4,2.6-2.2c1.7-1.8,2.9-3.9,4.1-6
					c0.1-0.1,0.1-0.3,0.2-0.5C97.1,64.9,95.5,63.9,94.5,62z M101.6,58.7c0-0.2,0-0.4,0-0.6c-0.2-1.4-0.8-1.9-2.3-1.5
					c-0.2,0.1-0.5,0.2-0.7,0.3c-1,0.7-1.8,1.5-2.2,2.7c-0.3,1-0.3,1.9,0.4,2.7c0.7,0.9,1.7,1.4,2.9,1.6c0.2,0,0.4-0.1,0.4-0.3
					c0.3-0.6,0.6-1.3,0.8-1.9C101.4,60.7,101.6,59.7,101.6,58.7z"/>
			</g>
		</g>
		<g id="KRyJ1s.tif_10_">
			<g>
				<path fill="#F1FFFF" d="M206.4,51.5c0.4-0.7,0.7-1.4,1-2.1c0.3-0.7,0.6-1.4,0.6-2.2c0-0.6-0.2-0.8-0.8-0.6
					c-0.5,0.2-1,0.5-1.5,0.8c-1.9,1.5-3.7,3.3-5.4,5.1c-3.4,3.9-6.3,8.1-9,12.6c-1.7,2.8-3.2,5.6-4.8,8.4c-0.1,0.3-0.3,0.5-0.3,0.9
					c0.2-0.1,0.4-0.2,0.6-0.3c1-0.8,2.1-1.6,3.1-2.5c4.4-3.9,8.4-8.2,11.9-12.9c0.3-0.5,0.7-0.8,1.3-0.7c0.3,0,0.5-0.1,0.9-0.1
					c-0.2,0.3-0.4,0.6-0.5,0.8c-2.3,3.2-4.9,6.2-7.7,9.1c-3.3,3.5-6.9,6.7-10.9,9.5c-0.1,0.1-0.2,0.2-0.3,0.3
					c-1.2,2.7-2.3,5.3-2.9,8.2c-0.1,0.6-0.1,1.2,0,1.7c0.1,0.9,0.9,1.2,1.6,0.7c0.7-0.6,1.4-1.2,2-1.9c1.1-1.4,2.1-2.9,3-4.4
					c1.7-2.6,3.3-5.1,5.3-7.4c1.8-2.1,3.8-4.1,6.2-5.5c1.1-0.6,2.2-0.9,3.4-0.7c0.8,0.1,1.3,0.7,1.7,1.3c0.1,0.1,0.2,0.3,0.3,0.5
					c0.2-0.4,0.4-0.7,0.6-1c0.1-0.1,0.2-0.2,0.3-0.2c1.5,0,3,0,4.5,0c0,0,0.1,0,0.1,0c-0.1,0.1-0.1,0.3-0.2,0.4
					c-2.3,4-4.5,8.1-6.8,12.1c-0.9,1.6-1.8,3.1-2.7,4.7c-0.2,0.4-0.4,0.9-0.6,1.3c-0.1,0.3-0.2,0.6,0.1,0.8c0.3,0.2,0.6,0.1,0.9-0.1
					c1.3-0.8,2.4-1.8,3.4-3c1.1-1.5,2.2-3,3.2-4.5c0.1-0.2,0.3-0.3,0.6-0.3c0.4,0,0.8,0,1.2,0c-0.2,0.3-0.3,0.5-0.5,0.8
					c-1.9,2.9-3.9,5.7-6.3,8.2c-1.4,1.4-3,2.6-4.8,3.4c-0.5,0.2-1,0.3-1.5,0.3c-1,0-1.7-0.5-1.9-1.4c-0.1-0.6-0.1-1.3-0.1-2
					c0-0.1,0-0.3,0.1-0.4c0,0-0.1,0-0.1-0.1c-0.3,0.3-0.5,0.6-0.8,0.8c-1.1,1.1-2.3,2-3.7,2.7c-0.7,0.3-1.4,0.5-2.1,0.4
					c-1.3-0.2-2.1-1.1-2.3-2.6c-0.1-0.6,0-1.2,0-1.8c0-0.2,0-0.3,0-0.6c-0.2,0.2-0.3,0.3-0.4,0.4c-1.1,1.3-2.2,2.5-3.6,3.4
					c-0.6,0.4-1.2,0.7-1.9,1c-1.5,0.5-2.7-0.1-3.5-1.4c-0.4-0.8-0.5-1.6-0.5-2.5c0.1-2,0.6-3.8,1.2-5.7c0.4-1.1,0.7-2.2,1.1-3.4
					c-0.2,0-0.4,0.1-0.6,0.1c-0.6,0.1-1.2,0.2-1.8,0.2c-0.3,0-0.4,0.2-0.6,0.4c-1.2,1.9-2.3,3.7-3.6,5.5c-1.7,2.4-3.8,4.5-6.4,6
					c-0.9,0.5-1.8,0.9-2.8,1c-1.9,0.2-2.9-1.1-3.2-2.4c-0.3-1.3-0.2-2.7,0.1-4c0.6-2.9,1.9-5.5,3.5-7.9c1.7-2.7,3.6-5.2,6-7.2
					c1.4-1.2,3-2.3,4.8-2.9c0.7-0.2,1.4-0.3,2.1-0.2c1.4,0.1,2.1,1.2,2.3,2.2c0.3,1.5,0.1,2.9-0.4,4.3c-0.4,1.1-0.9,2.2-1.3,3.4
					c-0.1,0.1-0.1,0.2-0.2,0.4c1,0,1.8-0.2,2.6-0.6c0.1-0.1,0.2-0.2,0.2-0.4c2.4-5,5.1-9.9,8.3-14.6c3.9-5.7,8.3-10.9,13.7-15.2
					c1.3-1,2.6-2,4.1-2.7c0.7-0.3,1.5-0.5,2.4-0.5c1,0.1,1.6,0.6,1.6,1.6c0.1,1.3-0.2,2.5-0.8,3.6c-0.6,1.3-0.7,1.3-2,1.5
					C206.6,51.5,206.5,51.5,206.4,51.5z M191.9,87.6c0,0.4,0.5,0.9,1.3,0.6c0.3-0.1,0.7-0.4,1-0.6c1-0.7,1.6-1.7,2.3-2.6
					c1.8-2.6,3.4-5.3,4.9-8.1c0.9-1.6,1.9-3.2,2.8-4.8c0.2-0.3,0.3-0.7,0-1c-0.3-0.4-0.6-0.4-1-0.3c-0.4,0.2-0.9,0.4-1.3,0.7
					c-0.5,0.4-1,0.8-1.4,1.3c-3.3,3.3-5.8,7.2-7.8,11.4C192.2,85.1,191.9,86.2,191.9,87.6z M170.1,76c-0.7,1.1-1.4,2-2,3
					c-1.1,1.8-2.1,3.6-2.7,5.7c-0.2,0.7-0.3,1.4-0.2,2.2c0.2,0.9,0.9,1.4,1.8,1.2c0.9-0.2,1.6-0.8,2.2-1.4c2-1.9,3.5-4.2,4.8-6.6
					c0.1-0.1,0.1-0.3,0.2-0.4C172.5,78.9,171,77.9,170.1,76z M177,72.5c0-0.2,0-0.4,0-0.6c-0.1-0.9-0.6-1.5-1.4-1.4
					c-0.3,0-0.7,0.1-1,0.2c-0.9,0.5-1.6,1.1-2.2,1.9c-1.4,2.3-0.1,4.9,2.3,5.7c0.1,0,0.3-0.1,0.4-0.2c0.2-0.4,0.5-0.8,0.7-1.3
					C176.4,75.4,177,74.1,177,72.5z"/>
				<path fill="#F1FFFF" d="M196.5,50.9c-1.2,1.3-2.3,2.5-3.5,3.7c-0.1,0.1-0.3,0.1-0.4,0c-0.7-0.4-1.5-0.9-2.2-1.3
					c-2.2-1.4-4.4-2.9-6.7-4.2c-1.7-1-3.6-1.8-5.7-2.1c-0.6-0.1-1.3-0.1-1.9,0.1c-0.2,0.1-0.3,0.2-0.3,0.4c0.2,2.3-0.4,4.5-1.3,6.6
					c-1.2,3-3,5.5-5.4,7.7c-1,0.9-2.1,1.6-3.4,2c-1.8,0.5-3.1-0.4-3.4-2.2c-0.2-1.2,0.2-2.3,0.6-3.4c1.5-3.7,3.8-6.7,6.8-9.2
					c1.1-0.9,2.2-1.6,3.3-2.4c0.1-0.1,0.1-0.1,0.3-0.2c-0.7-0.3-1.4-0.3-2-0.2c-1,0.1-1.8,0.6-2.7,1.1c-3.3,1.8-6.1,4.1-8.7,6.8
					c-4.7,5-8.8,10.4-12,16.4c-1.8,3.3-3.2,6.8-3.8,10.5c-0.3,1.5-0.5,3.1-0.1,4.6c0.4,1.6,1.3,2.8,3,3.3c1,0.3,2,0.1,3-0.4
					c1.7-0.8,3.1-1.9,4.4-3.3c2.5-2.6,4.5-5.6,5.7-9.1c0.4-1.3,0.8-2.7,0.7-4.1c-0.1-1.3-0.9-1.9-2.1-1.4c-0.9,0.4-1.6,1.1-2.2,1.8
					c-1.3,1.7-2.1,3.6-2.6,5.7c0,0.1-0.1,0.3-0.3,0.4c-2.3,1.1-4.2,2.6-5.9,4.5c-0.1,0.1-0.1,0.1-0.2,0.2c0.6-4.2,1.8-8,4.5-11.2
					c1.6-1.9,3.5-3.3,6-3.8c0.6-0.1,1.3-0.3,1.9-0.1c1.1,0.3,1.7,1,2.1,2c0.4,1.4,0.4,2.7,0.1,4.1c-0.6,3.2-2.1,6-3.8,8.7
					c-2.2,3.4-5,6.2-8.6,8.3c-1.5,0.9-3.1,1.4-4.9,1.4c-2.8,0.1-4.8-1.2-6.2-3.5c-1.2-2-1.5-4.2-1.3-6.5c0.2-3.6,1.5-6.9,3-10.2
					c4.2-8.7,9.9-16.2,17.5-22.3c3.2-2.6,6.8-4.6,10.8-5.8c1.5-0.4,2.9-0.5,4.4-0.1c0.7,0.2,1.3,0.5,1.7,1c0.2,0.2,0.3,0.2,0.5,0.1
					c1.2-0.4,2.4-0.8,3.6-1.1c3-0.6,5.9-0.2,8.6,1.2C190.5,47.4,193.5,49.1,196.5,50.9C196.5,50.9,196.5,50.9,196.5,50.9z
					 M174.4,47.8c-0.4,0.2-0.7,0.4-1,0.6c-3.8,2.3-6.6,5.6-8.7,9.6c-0.5,0.9-0.8,1.8-0.9,2.8c-0.1,1.3,0.9,2.1,2.1,1.5
					c0.5-0.2,1-0.5,1.4-0.8c4.1-3.2,6.6-7.4,7.1-12.6C174.5,48.6,174.4,48.2,174.4,47.8z"/>
				<path fill="#F1FFFF" d="M219.9,44.4c-0.7,1.4-1.5,2.7-2.4,3.9c-3.1,3.9-6.8,6.7-11.6,8.2c-2.4,0.8-4.8,1-7.3,0.5
					c0,0-0.1,0-0.2,0c-0.1,0-0.2-0.1-0.4-0.1c0.1-0.1,0.1-0.2,0.2-0.3c1-1.2,2-2.4,3-3.7c0.1-0.1,0.3-0.2,0.4-0.2
					c2.9,0.3,5.6-0.2,8.2-1.3c3.8-1.6,7-3.9,9.8-6.8C219.8,44.5,219.9,44.5,219.9,44.4z"/>
			</g>
		</g>
		<path fill="#F1FFFF" d="M154.4,51.1c-0.8,0.6-1.5,1.1-2.2,1.6c-0.8,0.6-1.6,1.2-2.4,1.8c-0.1,0.1-0.4,0.2-0.6,0.2
			c-2.6,0-5.3,0-7.9,0c0,0-0.1,0-0.2,0c0,0,0.1-0.1,0.1-0.1c1.4-1.1,2.9-2.1,4.4-3.2c0.1-0.1,0.4-0.2,0.6-0.2
			C148.8,51.1,151.5,51.1,154.4,51.1z"/>
	</g>
</g>
<g>
	<path fill="#FFFFFF" d="M121.9,34c0,1.2-0.5,2.3-1.6,3.4c-1.1,1-2.2,1.6-3.4,1.6c-0.7,0-1.4-0.2-1.9-0.5c-0.6-0.4-1-1-1-1.6
		c0-0.4,0.1-0.7,0.4-1c0.3-0.3,0.6-0.4,1-0.4c0.8,0,1.1,0.4,1.1,1.2c0,0.3-0.1,0.5-0.3,0.8c-0.2,0.2-0.4,0.3-0.7,0.3
		c-0.2,0-0.3,0-0.4,0c0.3,0.3,0.7,0.5,1.1,0.5c1,0,1.8-0.8,2.3-2.5c0.4-1.2,0.5-2.5,0.5-3.9v-0.8c-0.2,0.1-0.8,0.6-1.8,1.6
		c-1,0.9-1.5,1.4-1.6,1.4c-0.2,0-0.3-0.1-0.3-0.3c0-0.1,0.4-0.6,1.3-1.4c0.6-0.5,1.1-1,1.7-1.6c0.6-0.6,1.1-1.2,1.5-1.8
		c0.3-0.4,0.5-0.7,0.7-0.7c0.3,0,0.4,0.1,0.4,0.4c0,0-0.1,0.2-0.4,0.6c-0.3,0.3-0.4,0.6-0.4,0.8c0,0.1,0.3,0.7,0.9,1.6
		C121.6,32.6,121.9,33.4,121.9,34z"/>
	<path fill="#FFFFFF" d="M126.9,34.1c0,0.8-0.6,1.7-1.8,2.9c-1.2,1.2-2.2,1.8-3,1.8c-0.8,0-1.2-0.6-1.2-1.7c0-0.6,0.2-1.3,0.7-2.1
		l1.1-2c0.1-0.3,0.6-1.3,1.3-3.1h2.7c-1.4,2.4-2.4,4.6-3.1,6.5l0.3,0.2c0.6-0.2,1.2-0.7,1.6-1.4c0.5-0.8,0.9-1.2,1.1-1.4h0.1
		C126.8,33.9,126.9,34,126.9,34.1z M128.1,26.7c0,0.6-0.1,1-0.3,1.2c-0.2,0.2-0.6,0.3-1.2,0.3c-0.7,0-1-0.2-1-0.5v-1.1
		c0-0.2,0.2-0.4,0.6-0.6c0.4-0.2,0.8-0.3,1-0.3C127.8,25.6,128.1,25.9,128.1,26.7z"/>
	<path fill="#FFFFFF" d="M134.3,30.6c0,1.2-0.6,2.2-1.9,3.1c-1,0.7-2.2,1.2-3.5,1.5c-0.3,0.6-0.4,1.1-0.4,1.5c0,0.4,0.2,0.6,0.5,0.6
		c0.7,0,1.4-0.3,2.2-0.9c0.3-0.3,0.9-0.8,1.6-1.7c0.5-0.6,0.9-0.9,1.1-0.9c0.1,0,0.1,0,0.1,0.1c0,0.2-0.5,0.9-1.6,2.2
		c-1.4,1.8-2.9,2.7-4.4,2.7c-1.4,0-2.1-0.7-2.1-2c0-1.6,0.7-3.4,2.2-5.1c1.5-1.9,3.1-2.8,4.7-2.8C133.8,28.8,134.3,29.4,134.3,30.6z
		 M133.3,30.4c0-0.3,0-0.5-0.1-0.6c-0.1,0-0.1-0.1-0.2-0.1c-0.6,0-1.3,0.7-2.2,2.1c-0.7,1-1.2,2-1.6,2.9c1-0.2,1.9-0.8,2.7-1.6
		C132.8,32.2,133.3,31.3,133.3,30.4z"/>
	<path fill="#FFFFFF" d="M150.8,35.2c-0.1,0.4-0.4,0.9-1,1.6c-0.6,0.7-1.1,1.2-1.5,1.4c-0.5,0.3-1.2,0.5-2.1,0.5
		c-1.2,0-1.7-0.5-1.7-1.6c0-0.3,0.4-1.2,1.1-2.7c0.7-1.5,1.1-2.6,1.1-3.5v-0.3l0,0c0-0.3-0.2-0.4-0.4-0.4c-0.3,0-0.7,0.3-1.3,1
		c-0.5,0.5-0.9,0.9-1.2,1.3c-0.2,0.2-0.6,1.1-1.2,2.7c-0.6,1.6-0.9,2.5-0.9,2.7c0,0.3,0.2,0.5,0.6,0.7l-3.1,0.2
		c-0.1-0.1-0.1-0.2-0.1-0.4c0-0.7,0.4-1.9,1.2-3.7c0.8-1.7,1.2-3.1,1.2-3.9l0.1-0.3l0,0c0-0.3-0.2-0.4-0.4-0.4
		c-0.5,0-1.3,0.7-2.4,2.2c-0.5,0.7-1.1,1.7-1.5,3.1c-0.6,1.8-1,2.8-1.2,3.2l-3.2,0.2l2.5-5.3c0.1-0.3,0.3-0.6,0.6-1.1
		c0.3-0.5,0.4-0.9,0.4-1.1c0-0.3-0.1-0.4-0.2-0.4c-0.1,0-0.3,0.2-0.8,0.7c-0.5,0.5-0.7,0.7-0.9,0.7c0,0-0.1,0-0.1,0l0-0.1
		c0-0.3,0.5-1,1.4-2c0.9-1,1.5-1.5,1.8-1.5c0.8,0,1.1,0.7,1.1,2c0,0.2,0,0.2,0.1,0.2c0,0,0.4-0.3,1.3-0.8s1.6-0.8,2.1-0.8
		c1.2,0,1.7,0.6,1.7,1.8c0.5-0.3,1-0.7,1.6-1.1c0.7-0.4,1.3-0.6,1.8-0.6c1.1,0,1.7,0.6,1.7,1.7c0,0.7-0.4,1.8-1.1,3.3
		c-0.7,1.5-1.1,2.2-1.1,2.4c0,0.1,0.1,0.2,0.3,0.4c0.9,0,1.7-0.3,2.5-0.9C149.9,35.8,150.3,35.5,150.8,35.2L150.8,35.2z"/>
	<path fill="#FFFFFF" d="M159.2,31.5c0,1.4-0.6,3-1.9,4.6c-1.3,1.7-2.7,2.6-4.1,2.6c-0.1,0-0.4-0.1-0.7-0.3
		c-0.3-0.2-0.6-0.3-0.8-0.3c-0.1,0.2-0.4,0.7-0.8,1.6l-2.1,3.8l-2.5,0.3l5.1-9.4c0.1-0.1,0.4-0.7,1.1-1.8c0.4-0.7,0.8-1.4,0.9-1.9
		l-0.2-0.2c-0.7,0.2-1.2,0.7-1.8,1.5c-0.6,0.8-0.9,1.3-1,1.3h-0.1c-0.1-0.1-0.1-0.2-0.1-0.3c0-0.7,0.6-1.6,1.8-2.9
		c1.2-1.2,2.1-1.8,2.8-1.8c0.7,0,1.1,0.2,1.2,0.6c0.1,0.2,0.2,0.5,0.3,1c0,0,0.1,0.1,0.2,0.1c0.1,0,0.3,0,0.6-0.1
		c0.2-0.1,0.4-0.1,0.6-0.1C158.7,29.8,159.2,30.3,159.2,31.5z M156.9,31.9c0-0.3,0-0.6-0.1-0.9l0,0c0-0.3-0.1-0.4-0.4-0.5
		c-0.3,0.1-0.6,0.6-1,1.3c-0.2,0.3-0.5,0.8-0.9,1.5c-0.4,0.7-0.8,1.3-1.2,2c-0.5,0.8-0.8,1.5-1,2c0.1,0.2,0.2,0.3,0.5,0.3
		c0.2,0,0.5-0.1,0.8-0.3v0c0.8-0.6,1.5-1.5,2.2-2.5C156.5,33.8,156.9,32.8,156.9,31.9z"/>
	<path fill="#FFFFFF" d="M167.8,30.5c0,0.5-0.2,1-0.5,1.5c-0.4,0.6-0.8,0.9-1.3,0.9c-0.1,0-0.2-0.1-0.5-0.3
		c-0.1-0.2-0.2-0.3-0.2-0.4c0-0.4,0.2-0.8,0.6-1.1c0.4-0.3,0.7-0.5,1.1-0.4v-0.2c0-0.2-0.3-0.4-0.8-0.4h-0.2c-0.2,0-0.8,0.4-1.7,1.2
		c-0.9,0.8-1.5,1.4-1.7,1.7c-0.5,0.8-1,1.7-1.6,2.9c-0.4,1-0.9,2-1.3,3l-2.5-0.1l2.5-5.3c0.1-0.3,0.3-0.6,0.6-1.1
		c0.3-0.5,0.4-0.9,0.4-1.1c0-0.3-0.1-0.4-0.2-0.4c-0.1,0-0.3,0.2-0.8,0.7c-0.5,0.5-0.7,0.7-0.9,0.7c0,0-0.1,0-0.1,0l0-0.1
		c0-0.3,0.5-1,1.4-2c0.9-1,1.6-1.5,1.8-1.5c0.8,0,1.1,0.7,1.1,2c0,0.2,0,0.2,0.1,0.2c1.7-1.1,2.8-1.7,3.2-1.7c0.3,0,0.6,0.1,0.8,0.4
		C167.7,29.9,167.8,30.2,167.8,30.5z"/>
	<path fill="#FFFFFF" d="M174.3,30.6c0,1.2-0.6,2.2-1.9,3.1c-1,0.7-2.2,1.2-3.5,1.5c-0.3,0.6-0.4,1.1-0.4,1.5c0,0.4,0.2,0.6,0.5,0.6
		c0.7,0,1.4-0.3,2.2-0.9c0.3-0.3,0.9-0.8,1.6-1.7c0.5-0.6,0.9-0.9,1.1-0.9c0.1,0,0.1,0,0.1,0.1c0,0.2-0.5,0.9-1.6,2.2
		c-1.4,1.8-2.9,2.7-4.4,2.7c-1.4,0-2.1-0.7-2.1-2c0-1.6,0.7-3.4,2.2-5.1c1.5-1.9,3.1-2.8,4.7-2.8C173.7,28.8,174.3,29.4,174.3,30.6z
		 M173.2,30.4c0-0.3,0-0.5-0.1-0.6c-0.1,0-0.1-0.1-0.2-0.1c-0.6,0-1.3,0.7-2.2,2.1c-0.7,1-1.2,2-1.6,2.9c1-0.2,1.9-0.8,2.7-1.6
		C172.7,32.2,173.2,31.3,173.2,30.4z"/>
</g>
<rect x="0" y="0.9" fill="#736357" width="5.3" height="141.9"/>
</svg>
