<?xml version="1.0" encoding="utf-8"?>
<!-- Generator: Adobe Illustrator 18.0.0, SVG Export Plug-In . SVG Version: 6.00 Build 0)  -->
<!DOCTYPE svg PUBLIC "-//W3C//DTD SVG 1.1//EN" "http://www.w3.org/Graphics/SVG/1.1/DTD/svg11.dtd">
<svg version="1.1" id="Layer_1" xmlns="http://www.w3.org/2000/svg" xmlns:xlink="http://www.w3.org/1999/xlink" x="0px" y="0px"
	 viewBox="0 0 187.6 180.8" enable-background="new 0 0 187.6 180.8" xml:space="preserve">
<g>
	<rect x="0" y="0.7" fill="#603913" width="187" height="131.5"/>
	<path fill="#283368" d="M67.9,125.4c-19.9,0-39.7,0-59.6,0c0-39.4,0-78.8,0-118.1c57.2,0,114.4,0,171.6,0c0,39.4,0,78.8,0,118.1
		c-37.2,0-74.5,0-111.7,0c0.1-0.2,0.3-0.4,0.2-0.5c-0.3-0.6-0.2-1.1-0.1-1.7c0-0.3,0-0.8-0.2-0.9c-0.3-0.2-0.8-0.2-1.2-0.3
		c0,0.1-0.1,0.1-0.1,0.2c-0.2-0.3-0.5-0.6-0.1-1c0.1-0.1,0.1-0.2,0-0.3c-0.4-0.6,0-0.8,0.5-1c-0.2-0.6,0-1,0.7-1.1
		c0.3,0,0.7,0,0.8-0.2c0.4-0.8,1.2-0.3,1.6-0.5c0.2,0.3,0.3,0.7,0.6,0.8c1.1,0.3,1.6-0.5,1.9-1.2c0.8,0.1,1.5,0.3,2.3,0.4
		c0.5-1.3,1.9-1.4,3-1.6c0.6-0.1,0.9-0.2,0.8-0.9c0-0.2-0.1-0.5,0-0.7c0-0.2,0.2-0.4,0.3-0.6c0.3-0.3,0.7-0.4,0.8-0.7
		c0.1-0.4,0-0.8-0.1-1.2c-0.2-0.8-0.7-1.6,0.1-2.4c-0.4-0.1-0.7-0.2-1.1-0.3c0.3-0.2,0.4-0.4,0.6-0.4c0.7-0.1,1.4-0.3,2-0.4
		c0.2,0,0.4,0,0.6,0.1c0.4,0.1,0.7,0.3,1.1,0.5c0.1-0.2,0.2-0.4,0.2-0.6c0-0.1-0.3-0.1-0.5-0.3c0.6-1.2,1.1-2.3,1.7-3.5
		c0,0,0.1,0,0.2,0.1c0.6,0.3,1.2,0.7,2,0.5c0.1,0,0.3,0.2,0.5,0.4c0.2-0.1,0.4-0.4,0.6-0.4c0.9,0,1-0.6,0.9-1.2c0-0.2-0.1-0.5,0-0.7
		c0.1-0.5,0.3-1,0.9-1c0.7,0,1-0.3,1-0.9c0-0.3,0.1-0.7,0.5-0.6c0.8,0.1,1.4-0.2,1.9-0.6c0.1-0.1,0.3,0,0.4,0
		c0.2-0.1,0.5-0.1,0.7-0.3c0.7-0.5,1.4-1,2.1-1.5c0.7-0.4,1.4-0.6,2.1-1c0.6-0.4,0.9-0.3,1.4,0.1c0.1,0.1,0.3,0.1,0.4,0
		c0.6-0.3,1,0,1.4,0.4c0.5,0.6,1.1,0.8,1.8,0.9c0.3,0,0.6-0.1,0.9,0c1,0.2,1.8,0.2,2.6-0.6c0.4-0.4,0.4-0.6,0.2-1.1
		c-0.3-0.5-0.6-1.2-0.4-1.7c0.2-0.7,0.8-1.3,1.3-1.9c0,0.1,0.1,0.1,0.1,0.2c0.4,0.1,0.8,0.2,1.3,0.3c0.2,0,0.4,0.1,0.5,0.2
		c0.3,0.3,0.6,0.3,1,0.2c0.9-0.2,1.7,0.1,2.1,1c0.6,1.6,2.8,1.4,3.7,0.7c0.8-0.6,1.7-0.4,2.5-0.4c0.5,0,1,0.2,1.4,0.2
		c0.5,0,0.9,0.1,1.2,0.6c0.1,0.2,0.5,0.4,0.8,0.4c1.5-0.2,3.2,0.2,4.4-1.2c0.2-0.2,0.5-0.2,0.7-0.4c0.4-0.3,0.9-0.7,1.2-1.1
		c0.4-0.4,0.6-1,1-1.4c0.3-0.4,0.8-0.6,1.3-0.2c0.4,0.3,0.7,0.2,1.1-0.1c0.4-0.3,0.8-0.4,1.4-0.3c1.2,0.2,2.1,0,2.6-1.3
		c0-0.1,0.2-0.2,0.3-0.3c0.6-0.2,0.4-0.6,0.2-1c-0.1-0.3-0.4-0.6-0.4-0.9c0.1-0.9,0.4-1.8,0.5-2.7c0-0.4-0.2-0.9-0.4-1.2
		c-0.1-0.2-0.5-0.2-0.9-0.4c-0.1-0.3,0.2-1.4,0.8-1.8c0.6-0.4,1.1-0.9,1.7-1.3c0.2-0.2,0.5-0.2,0.8-0.3c0.8-0.2,1.5-0.4,2.3-0.4
		c0.6,0,1.3,0.1,1.8,0.3c0.4,0.2,0.7,0.6,1.1,0.9c0.5,0.4,1,0.9,1.5,1.3c0.1,0.1,0.2,0.2,0.3,0.3c0.6,0.5,1.3,0.9,1.8,1.4
		c0.5,0.6,1,0.9,1.7,0.4c0.8-0.5,1.6-0.4,2.4-0.3c0.2,0,0.4,0.1,0.6,0.1c0.8-0.2,1.4,0.2,1.6,1c0.1,0.4,1,0.8,1.3,0.6
		c0.3-0.2,0.6-0.5,0.9-0.7c0.4-0.3,0.9-0.4,0.6-1.1c0-0.1,0.1-0.2,0.1-0.3c0.3-0.5,0.5-1,0.8-1.4c0.2-0.3,0.7-0.6,1-0.5
		c0.7,0.1,1,1.4,0.7,2c0.2,0.2,0.4,0.4,0.4,0.7c0.3,0.8,0.5,1.6,0.7,2.4c0.1,0.5,0.1,1,0.3,1.4c0.3,0.7,0,1.1-0.7,1.2
		c-0.3,0-0.6,0.3-0.9,0.6c-0.2,0.2-0.3,0.5-0.4,0.8c-0.1,0.2-0.1,0.6,0,0.7c0.6,0.8,1.3,1.5,1.9,2.3c0.2,0.3,0.1,0.8,0,1.1
		c0,0.2-0.2,0.4-0.2,0.6c-0.2,0.4,0,0.6,0.5,0.5c0.2-0.8,0.3-1.7,0.5-2.5c0.1,0.1,0.3,0.2,0.4,0.2c0.1-0.2,0.2-0.4,0.3-0.6
		c0.2,0.2,0.5,0.5,0.6,0.5c0.5-0.1,1.3-0.3,1.5-0.6c0.5-0.9,1.3-1.7,1.3-2.8c0-1.7-0.1-3.5,0.1-5.2c0.2-1.5-0.1-2.9-0.4-4.3
		c-0.2-0.9-0.5-1.8-0.4-2.6c0.1-1.2,0-2.2-0.8-3.1c-0.7-0.8-1.2-1.8-1.9-2.6c-0.6-0.8-1-1.5-1.1-2.5c-0.1-0.6-0.1-1.3-1-1.2
		c-0.1,0-0.1-0.1-0.2-0.1c-0.4-0.3-0.7-0.5-1.1-0.8c0.1-0.1,0.2-0.3,0.5-0.7c-0.3,0-0.5,0-0.7,0c-0.3,0-0.7,0.1-1,0
		c-0.8-0.3-1.9-0.3-2.6,0.6c0.2,0.4,0.5,0.9,0.6,1.2c-0.5,0.5-0.8,0.8-1.3,1.2c0-0.4-0.1-0.6-0.1-0.9c-0.3-0.1-0.5-0.2-0.7-0.4
		c-0.4,0.4,0.7,0.8-0.1,1.3c-0.3-0.5-0.7-1-0.9-1.4c-0.6,0.3-1,0.6-1.4,0.8c-0.4,0.2-0.8,0.1-0.7-0.4c0-0.5,0.2-0.9,0.3-1.4
		c0.2-1.1,0.4-2.1,0.5-3.2c0-0.4-0.2-0.8-0.2-1.2c0.1-1,0.2-1.9,0.4-2.9c0-0.1,0-0.2-0.1-0.3c-0.6-0.7-0.5-1.4,0.1-2.1
		c-0.5-0.6-0.5-1.3-0.2-1.9c0.4-0.7,0.9-1.4,1.4-2c0.3-0.4,0.6-0.8,1.3-0.7c0.1,0,0.3-0.2,0.4-0.2c-0.3-0.4-0.3-0.6,0.2-0.8
		c0.5-0.2,0.9-0.5,0.8-1.1c0.3-0.1,0.5-0.1,0.7-0.2c-0.5-1-0.5-1.2,0.4-1.8c0.1-0.1,0.2-0.2,0.3-0.3c0.6-0.4,1.1-1,1.9-0.9
		c-0.2,0.2-0.4,0.4-0.4,0.6c0,0.2,0.1,0.4,0.3,0.5c0,0.1,0.4,0,0.4-0.1c0.2-0.5,0.3-1,0.7-1.4c0.1-0.1,0-0.3,0-0.4
		c0-0.2,0-0.4,0-0.6c0.3-0.1,0.5-0.1,0.6-0.2c0.2-0.5,0.4-0.8,0.6-1.2c-0.1,0-0.1-0.1-0.2-0.1c-0.2,0.1-0.4,0.3-0.6,0.4
		c-0.3,0.3-0.6,0.2-0.8-0.1c-0.3-0.7-0.5-1.4-0.7-2.1c-0.1-0.4-0.2-0.8-0.3-1.2c-0.2-0.7-0.5-1.5-0.5-2.2c0-0.6,0.4-1.2,0.6-1.8
		c0.7,0.1,0.8-0.4,0.7-1.1c0.5,0.6,0.9,1.1,1.3,1.6c0.1-0.2,0.1-0.3,0.2-0.5c0.2,0.2,0.4,0.3,0.8,0.6c-0.1-0.7-0.2-1.2-0.2-1.8
		c0-0.7-0.6-1.4,0-2.1c-0.6-0.2-1.6-1.1-1.6-1.4c0-0.7,0.5-1.2,1.2-1.4c-0.5,0.8-0.5,0.8,0.2,1.5c0.4,0.4,0.7,0.7,1.3,0.9
		c0.5,0.2,0.8,1.3,0.6,2c-0.1,0.3,0,0.6,0,0.9c0.1,0.3,0.3,0.6,0.4,0.9c0.3,0.9,0.6,1.9,1,2.8c0.8,1.5,1.1,3,0.5,4.6
		c0.5,0.2,0.8,0.6,1,1.2c0.2,0.7,0.7,1.2,1.1,1.8c0.2,0.2,0.5,0.4,0.6,0.6c0.4,0.8,1.1,1.1,1.9,1.4c0.9,0.3,1.7,0.7,2.5,1.2
		c1.7,0.9,3.3,2.1,5.4,2.5c-0.1-0.7-0.4-1.3-0.4-2c0-0.9-0.6-1.5-1.3-2c-1-0.8-1-1.8,0.1-2.4c-0.8-0.3-1.7-0.6-2-1.4
		c-0.3-0.9-0.3-1.7,0.8-2.1c-0.2-0.5-0.4-0.9-1-0.9c-1.1,0.1-2-0.8-2-1.9c0.2-0.2,0.5-0.6,0.4-0.8c-0.2-0.4-0.5-0.6-1-0.3
		c-0.4,0.3-1.3-0.3-1.5-0.7c-0.2-0.4-0.4-0.7-0.6-1c-0.1,0-0.1,0-0.2,0c-0.1,0.4-0.2,0.8-0.4,1.2c-0.4,0-1.7-0.6-1.7-1
		c0-1-0.6-1.5-1.2-2.1c-0.3-0.3-0.6-0.6-0.3-1.1c0.2-0.3,0.4-0.7,0.6-1c-0.2-0.5-0.3-1-0.5-1.5c0,0,0.1-0.1,0.1-0.1
		c0.3,0.2,0.6,0.3,1,0.6c0-0.2,0-0.3,0-0.3c0-0.1-0.1-0.2-0.2-0.4c-0.2-0.4-0.2-1.9,0-2.3c0.1-0.2,0.3-0.5,0.4-0.7
		c0.2-0.5,0.5-0.6,1-0.5c0.2,0,0.4-0.1,0.8-0.2c-0.9-0.7-1.1-1.5-1.1-2.3c0-0.1,0-0.3-0.1-0.4c-0.9-1.1-1-2.4-1.1-3.6
		c-0.1-1.1-0.4-2-1-2.9c1.4-0.7,1.6-1.2,0.9-2.3c-0.4,0-0.7-0.1-1,0c-0.6,0.2-1,0.5-1.7,0.2c-0.8-0.4-1.4,0.6-2.2,0.7
		c0,0-0.1,0.1-0.1,0.2c-0.1,0.2-0.3,0.3-0.4,0.4c0-0.2-0.1-0.4-0.1-0.6c-0.1,0-0.2,0-0.3,0c0-0.1-0.1-0.1-0.1-0.2
		c0.3-0.1,0.6-0.2,0.8-0.4c0.3-0.2,0.6-0.5,0.6-0.9c0.1-0.3,0-0.8-0.2-1c-0.4-0.5-0.9-0.9-1.5-1.1c-0.3-0.1-0.7,0.2-0.9-0.3
		c-0.1-0.3-0.2-0.6-0.3-0.9c0.6,0,1,0,1.4,0c0.9-0.1,0.9-0.2,0.7-1c-0.1-0.6,0.3-1.1,0.8-0.9c0.6,0.2,0.9,0,1.2-0.6
		c0.1-0.3,0.4-0.6,0.7-0.7c0.7-0.3,0.7-0.5,0.4-0.9c0.1-0.2,0.2-0.4,0.2-0.4c-0.4-0.2-0.6-0.2-0.7-0.4c-0.2-0.3-0.5-0.6-0.9-0.5
		c-0.3,0-0.6,0.1-0.8,0.1c0.1-0.4,0.3-0.7,0.4-1.1c-0.3,0-0.4,0-0.6,0c0.1,0,0.1-0.1,0.2-0.1c-0.2-0.4-0.4-0.9-0.6-1.4
		c-0.7,0.4-1.5,0.8-2,1.3c-0.5,0.5-0.7,1.3-1.1,2.1c0.7,0,1.3,0.1,2,0.1c-0.5,0.4-0.8,0.6-1.1,0.9c-0.4-0.2-0.9-0.1-1.2-0.3
		c-0.4-0.2-0.6-0.2-1,0c-0.5,0.3-1.1,0.6-1.7,0.9c-0.1,0-0.1,0.1-0.2,0.2c-0.8,0.6-1.4,1.4-2.3,1.9c-1.2,0.6-2,1.4-2.9,2.4
		c-0.6,0.7-1,1.6-1.1,2.5c-0.6,0.2-1.2,1.1-1.2,1.7c0.3,0.1,0.6,0.3,0.9,0.4c0.5,0.2,1,0.2,1.4,0.4c0.1,0.1,0.2,0.7,0.1,0.8
		c-0.6,0.3-1.2,0.5-1.9,0.6c-0.1,0-0.3-0.3-0.4-0.5c-0.1-0.2-0.1-0.4-0.1-0.8c-0.5,0.5-0.7,0.7-0.4,1.3c0.2,0.4,0.5,1-0.1,1.5
		c-0.2,0.2-0.3,0.5-0.5,0.7c-0.1,0.1-0.2,0.3-0.3,0.4c-0.7,0.1-0.7,0.6-0.7,1.1c0,0.2-0.1,0.3-0.2,0.5c-0.1,0.3-0.2,0.5-0.4,0.9
		c-0.1,0.1-0.3,0.2-0.6,0.3c-0.4,0.3-0.8,0.4-1.2-0.1c-0.3-0.4-0.6-0.6-1.2-0.6c-1.1,0-1.6,0.8-2.1,1.4c-0.3,0.4-0.5,0.9-0.6,1.4
		c-0.2,0.8-1.1,1.5-1.9,1.3c-0.5-0.1-0.8,0.2-0.9,0.8c-0.2-0.1-0.3-0.2-0.5-0.3c0,0.1,0,0.1,0,0.2c-0.4,0.1-0.7,0.1-1.1,0.2
		c0-0.1,0-0.1-0.1-0.2c0.1-0.2,0.2-0.4,0.4-0.7c-0.3,0-0.6-0.1-0.8,0c-1.1,0.3-1.5,0.8-1.2,2.1c0.1,0.4,0.2,0.8-0.3,0.9
		c-0.1-0.3-0.2-0.6-0.3-0.9c-0.3,0.2-0.6,0.3-0.9,0.5c0,0-0.1-0.1-0.1-0.1c0.2-0.3,0.4-0.7,0.6-1c0,0-0.1-0.1-0.1-0.1
		c-1.1,0.6-2.2,1.3-3.3,1.9c0,0,0,0.1,0,0.1c0.5,0.3,0.7,0.6,0.1,1c-0.3,0.2-0.3,0.6,0,0.8c0.1-0.2,0.3-0.4,0.3-0.4
		c0.4,0.5,0.8,0.9,1.2,1.4c-0.4,0.2-0.8,0.4-1.4,0.7c0.4,0.2,0.6,0.3,0.8,0.4c-0.1,0.1-0.2,0.2-0.3,0.2c-0.5,0-1.1-0.1-1.5,0.2
		c-0.4,0.2-0.5,0.8-0.8,1.4c-0.5-0.1-1.1-0.2-1.9-0.3c0.2,0.5,0.3,0.9,0.5,1.3c0.1,0.4,0.2,0.9,0.3,1.3c-1.4,0.3-2.2-0.5-3.2-1.2
		c-0.1,0-0.3-0.1-0.4-0.1c0.1-0.4,0.2-0.7,0.3-1c-0.2-0.1-0.4-0.1-0.7-0.2c-0.2-0.3-0.4-0.7-0.7-1.3c-0.2-0.1-0.6-0.1-1.2-0.3
		c-0.1,0.2-0.3,0.4-0.5,0.7c-0.6-0.1-1.3-0.2-2.1-0.3c0.2,0.8,0.4,1.5,0.6,2.2c-0.5,0.3-0.9,0.6-1.3,0.7c-0.3,0.1-0.6-0.1-0.9,0
		c-0.9,0.3-1.1,0.3-1.3-0.7c-0.7,0.2-1.5,0.4-2.2,0.7c-0.4,0.2-0.9,0.5-0.8,1.2c-0.2-0.2-0.3-0.3-0.4-0.6c-0.1-0.2-0.1-0.4-0.2-0.8
		c-0.3,0.4-0.4,0.6-0.5,0.7c-0.5-0.1-1-0.2-1.5-0.2c0,0.1-0.1,0.1-0.1,0.2c0.2,0.2,0.3,0.5,0.5,0.8c-0.1,0.1-0.1,0.3-0.2,0.4
		c-0.7,0.2-0.9,1.2-1.8,1.2c-0.1,0-0.2,0.4-0.4,0.6c-0.1,0.1-0.2,0.2-0.3,0.3c-0.1-0.1-0.2-0.1-0.3-0.2c0.3-0.6,0.5-1.5,1-1.9
		c0.7-0.4,0.8-1.1,1.1-1.7c0.3-0.5,0.5-1.1,0.9-1.5c0.9-1,0.9-2,0.2-2.6c0.1-0.3,0.2-0.6,0.2-0.7c-0.5-0.5-1.1-1-1.6-1.4
		c0,0,0,0-0.1,0c-0.8-0.1-1.4,0.2-2.1,0.4c0,0.3,0,0.5,0,0.7c-0.8-0.2-0.8-0.2-0.5-1c-0.6,0-1.2,0-1.7,0c0.6-1.3,0.6-1.3-0.4-1.6
		c-1,0.8-1.7,1.8-1.1,3.3c-0.5,0.1-0.9,0.2-1.3,0.3c0.2,0.2,0.4,0.4,0.5,0.6c-0.7,0.3-1.4,0.5-2.1,0.8c0-0.3,0-0.5,0.1-0.6
		c-0.6,0.2-1.2,0.4-1.8,0.6c0.1,0.2,0.2,0.3,0.2,0.4c-0.9,0.4-1.8,0.7-2.6,1.1c-0.4,0.2-0.8,0.6-1.3,0.9c0,0,0.1,0.1,0.2,0.3
		c-0.1,0-0.1,0-0.2,0c-0.1,0.4-0.2,0.9-0.2,1.3c-0.1,0-0.3,0.1-0.7,0.2c0.2,0.2,0.3,0.2,0.4,0.3c0.1,0.2,0.3,0.4,0.4,0.5
		c-0.2,0.1-0.4,0.2-0.6,0.2c-0.5,0.1-1.1,0.2-1.6,0.3c-0.6,0-1.1-0.1-1.7-0.1c-0.6,0-0.9,0.4-0.7,1c0.1,0.2,0.1,0.5,0,0.7
		c-0.3,0.6,0.1,1,0.4,1.5c0.2,0.3,0.5,0.6,0.6,0.9c0,0.1-0.2,0.4-0.3,0.4c-0.6,0.1-1-0.4-0.9-1.1c-0.3-0.2-0.5-0.4-0.8-0.5
		C87.8,48,87.4,48,87.1,48c-0.1,0-0.1,0.4-0.1,0.7c0,0.1-0.2,0.3-0.3,0.4c-0.3-0.3-0.5-0.4-0.7-0.6c-0.6,0.2-0.6,0.5-0.3,0.9
		c0.2,0.3,0.5,0.5,0.8,0.8c0.2,0.2,0.4,0.5,0.5,0.8c-0.4-0.1-0.8-0.5-1-0.5c-0.6,0.1-0.9-0.3-1.1-0.6c-0.2-0.3-0.2-1,0-1.2
		c0.7-0.7,0.2-1.6,0.6-2.3c-0.1,0-0.2-0.1-0.3-0.1c0,0.2-0.1,0.4-0.1,0.6c-0.2,0.4-0.3,0.9-0.6,1.2c-0.4,0.4-1,0.6-1.5,0.9
		c0.2,0.4,0.3,0.5,0.3,0.7c0.1,0.8,0.4,1.5-0.3,2.3c-0.4,0.4-0.4,1.2-0.6,1.8c-0.3,0.7,0.1,0.8,0.5,0.9c0.2,0.1,0.5-0.1,0.8-0.2
		c0.3,0.1,0.5,0.3,0.8,0.4c0.9,0.4,1.3,1.9,0.7,2.4c-0.5,0.4-0.4,0.9,0.1,1.2c0.1,0.1,0.3,0.2,0.5,0.4c-1.2-0.1-1.7-0.9-1.2-1.6
		c0.4-0.6,0.1-0.9-0.1-1.3c-0.1-0.2-0.2-0.4-0.4-0.6c-0.3,0-0.5,0-0.8,0.1c-0.5,0.1-1,0.6-0.9,1c0.3,0.9,0,1.5-0.7,2
		c-0.1,0.1-0.2,0.2-0.2,0.2c0,0.8-0.6,0.8-1.2,1.1c-0.4,0.1-0.9,0.1-0.9,0.8c0,0-0.4,0.1-0.6,0c-0.2-0.1-0.4-0.2-0.7-0.3
		c-0.9-0.3-1.3-0.9-1.2-1.7c0.5,0.6,1.1,0.8,1.7,0.6c0.3-0.1,0.6-0.2,0.8-0.4c0.5-0.3,0.9-0.7,1.3-1.1c0.1-0.1,0.2-0.3,0.3-0.4
		c0.2-0.3,0.3-0.6,0.4-0.9c0.1-0.2,0.1-0.5,0-0.7c-0.1-0.3-0.4-0.7-0.4-1c0.3-1.1,0.7-2.1,1-3.2c0.2-0.6,0.4-1.3,0.2-1.9
		c-0.1-0.4-0.2-0.7,0-0.9c0.6-0.5,0.7-1.2,1-1.8c0.2-0.5,0-0.9-0.5-1c-0.4-0.1-0.9-0.2-1.2-0.5c-0.4-0.3-0.5-0.1-0.7,0.1
		c-0.2,0.2-0.3,0.6-0.4,0.8c-0.3,1-0.9,1.7-2,2.1c-0.4,0.1-0.9,0.5-0.4,1.1c0.1,0.1,0,0.3,0,0.4c-0.1,0.3-0.2,0.6-0.3,0.9
		c-0.1,0.2-0.2,0.4-0.3,0.5c-0.5,0.4-0.5,0.6,0,1c0.1,0.1,0.2,0.3,0.3,0.5c0.1,0.4,0.2,0.9,0.4,1.5c-0.2,0.3-0.4,0.7-0.7,1.2
		c-0.1,0-0.2,0-0.2,0c-0.1-0.4-0.2-0.9-0.4-1.2c-1.1-1.5-2-3.3-3.8-4.2c-0.2-0.1-0.5-0.1-0.7,0c-0.1,0.1-0.3,0.4-0.3,0.6
		c0,0.4,0.1,0.9-0.5,1.1c-0.4,0.2-0.7,0.5-1.1,0.8c-0.4-0.2-0.5-0.5-0.1-0.9c0.1-0.1,0.2-0.3,0.1-0.5c0-0.1-0.3-0.2-0.4-0.1
		c-0.4,0.1-0.8,0.2-1.3,0.3c0,0-0.1-0.1-0.2-0.1c-0.5-0.7-1.1-0.9-1.9-0.4c-0.5,0.3-0.8-0.1-1.1-0.5c0.3-0.3,0.6-0.5,0.9-0.9
		c-0.1-0.1-0.2-0.4-0.4-0.4c-0.5,0-1,0.1-1.1,0.7c-0.3-0.2-0.4-0.5-0.6-0.5c-1.2-0.1-2.4-0.1-3.7-0.1c-0.1,0-0.3,0.3-0.4,0.4
		c-0.3,0.2-0.6,0.4-0.9,0.4c-0.3,0-0.6-0.2-0.9-0.3c-0.1-0.4-0.2-0.8-0.3-1.2c-0.1-0.4,0-0.8,0.5-0.8c0.4,0,0.9,0.1,1.5,0.2
		c0.2-0.4,0.3-1,0-1.6c-0.3-0.6-0.8-1-1.3-1.4c0.1,0.7,0,1.3-0.6,1.8c-0.6,0.5-1.1,1.1-1.1,1.9c0,0.2-0.2,0.4-0.4,0.5
		c-0.4,0.3-0.9,0.5-1.5,0.8c0.1-0.3,0.2-0.6,0.4-1c-0.3-0.2-0.7-0.6-1.1-0.7c-1-0.1-2,0-2.9,0c-0.2,0.7-0.3,1.2-0.5,1.7
		c0,0.1-0.2,0.2-0.3,0.2c-0.3-0.1-0.6-0.2-0.8-0.4c-0.6-0.6-0.8-1.4-0.9-2.3c0-0.5-0.4-0.5-0.6-0.2c-0.2,0.4-0.3,0.9-0.2,1.3
		c0.2,0.8,0.2,1-0.6,1.3c-0.3-0.3-0.7-0.7-1-1c0.1-0.3,0.3-0.6,0.3-0.8c-0.3-0.7-0.2-1.3,0.2-1.9c0,0,0-0.1,0-0.1
		c0.1-0.5,0.4-0.9,0.9-1.1c0.2-0.1,0.5-0.3,0.6-0.6c0.1-0.7,0.1-1.4,0.2-2.1c0-0.5,0.1-0.9,0.2-1.4c0.1,0,0.2,0,0.3,0
		c0,0.2,0,0.3,0,0.5c0,0.2,0,0.5,0.1,0.7c0,0.2,0.1,0.4,0.2,0.5c0.5,1.1,0.9,2.4,1.5,3.4c0.7,1.2,3,1.4,3.9,0.3
		c0.5-0.6,0.9-2.1,0.5-2.4c-0.5-0.5-0.5-1.2-0.4-1.7c0.2-1.1-0.3-2-0.7-2.9c-0.2-0.5-0.7-0.8-0.9-1.3c-0.2-0.3-0.1-0.7-0.2-1.1
		c0.2,0,0.5,0,0.7,0c0-0.2-0.1-0.4-0.1-0.4c-0.5-0.2-0.8-0.4-1.1-0.5c-0.4-0.1-0.8-0.1-1.2-0.3c-0.7-0.4-1.2,0.1-1.7,0.3
		c-0.8,0.2-0.9,0.8-0.8,1.5c0,0.8-0.3,1.1-1.1,1.1c-0.8,0-1.2,0.4-1.5,1.1c-0.4,0.7-0.3,1.9-1.6,1.9c-0.1,0-0.2,0.1-0.3,0.2
		c-0.3,0.2-0.6,0.4-0.9,0.6c0,0.2,0,0.5-0.1,0.7c-0.1,0.2-0.3,0.4-0.4,0.6c-0.1,0.5-0.4,0.8-0.8,0.8c-0.5,0-0.6,0.3-0.6,0.7
		c0,0.3-0.1,0.6-0.1,0.9C42,46.7,41.8,47,40.9,47c-0.2,0-0.3,0-0.5,0c-1.2,0-2.3,0-3.5,0c-0.5,0-1,0-1.5,0c0,0.1,0,0.1,0,0.2
		c0.2,0.2,0.4,0.3,0.7,0.5c-0.6,0.3-0.7,0.8-0.2,1.3c0.3,0.4,0.4,0.8,0,1.3c-0.1-0.3-0.2-0.5-0.3-0.6c-0.5-0.4-1-1-1.5-1
		c-0.8,0.1-1.1-0.3-1.3-0.9c-0.1-0.3-0.3-0.7-0.5-0.9c-0.7-0.6-1.5-1.2-2.3-1.8c-0.2,0.3-0.3,0.7-0.6,0.8c-0.8,0.6-0.8,0.6-0.2,1.3
		c-0.6,0.4-1.3,0.9-1.9,1.3c-0.2,0.1-0.7,0-1-0.2c-0.2-0.1-0.3-0.4-0.3-0.6c0.1-0.6,0.4-1.2,0.6-1.7c-0.6-0.6-1.2-0.7-1.9-0.2
		c0,0,0,0-0.1,0c-0.9-0.1-1.4,0.7-2.1,1c-0.6,0.2-0.9,1.1-1.7,0.7c-0.1,0.3-0.1,0.5-0.2,0.6c-0.1-0.1-0.4-0.2-0.4-0.3
		c-0.3-0.7-0.6-1-1.3-0.5c-0.1,0-0.2,0-0.3,0c0.3,1.2,0.9,2.1,1.7,2.9c0.5,0.5,0.5,1.2,0.2,1.6c-0.5,0.6-1.1,1.2-1.6,1.9
		c-0.3,0.4-0.6,0.5-1.1,0.1c-0.3-0.3-0.7-0.1-0.9,0.3c-0.1,0.3-0.3,0.5-0.5,0.7c-0.3,0.3-0.7,0.4-0.9,0.7c-0.4,0.5-0.6,1-0.9,1.5
		c-0.2,0.3-0.5,0.3-0.8,0.2c-1-0.2-2.1-0.6-3,0.4c-0.1,0.1-0.2,0.1-0.3,0.2C9.9,57.9,9.5,58,9.1,58c-0.7,0-0.4,0.6-0.6,0.9
		c-0.1,0.2,0.1,0.5,0.2,0.7c0.8,0.7,1.1,1.7,1.3,2.5c0.5,0.5,1,0.9,1.5,1.2c0.1,0.1,0.3,0.1,0.4,0.1c0.3,0,0.5,0,0.9,0
		c-0.1,0.5,0,1.1-0.3,1.3c-0.6,0.6-0.8,1.3-0.8,2c-0.1,0.7-0.4,1.1-1,1.3c-0.3,0.1-0.5,0.4-0.7,0.6C10,68.8,9.8,68.9,9.8,69
		c-0.1,0.3-0.3,0.7-0.3,1c0,0.2,0.3,0.4,0.5,0.5c0.3,0.2,0.6,0.4,0.9,0.6c0.1-0.1,0.2-0.3,0.4-0.4c0.7,0.4,1.3,0.7,2,0.4
		c0.5-0.2,0.9-0.2,1.4,0.2c0.2,0.2,0.6,0.2,0.8,0.3c0,0.3,0.1,0.6,0.1,0.8c-0.3,0-0.7,0-1,0c0,0.1-0.1,0.1-0.1,0.2
		c0.2,0.4,0.5,0.8,0.8,1.1c0.3,0.3,0.7,0.6,1,0.9c0,0.1-0.1,0.1-0.1,0.2c-0.7-0.1-1.3-0.1-2-0.2c0.8,1.3,0.7,1.8-0.4,2.5
		c0.2,0.9,0.2,0.8,1,0.8c0.6,0,1.2,0.2,1.9,0.3c0.1,0,0.1,0.2,0.2,0.3c0.5,0.8,0.9,0.9,1.7,0.4c-0.4-0.2-0.7-0.5-1-0.7
		c-0.7-0.3-0.8-0.6-0.6-1.3c0.1-0.3,0-0.6,0-0.8c-0.1-0.4-0.2-0.8-0.3-1.4c0.2,0.2,0.3,0.2,0.4,0.3c0.3,0.6,0.8,0.9,1.4,0.9
		c0.1,0,0.2,0.1,0.3,0.1c0.6,0.1,1,0.5,1.5,0.6c1.4,0.4,2.6,1.1,3.9,1.8c0.1,0.1,0.2,0.3,0.4,0.7c-1.1-0.2-1.9-0.4-2.8-0.6
		c0.1,0.2,0.1,0.4,0.2,0.6c0,0.2,0,0.4,0,0.5c-0.6,0.1-1.3,0-1.7,0.3c-0.4,0.3-0.6,0.3-0.9,0c-0.1-0.1-0.4-0.2-0.4-0.2
		c-0.1,0.1-0.3,0.3-0.3,0.5c0.1,0.8,0.1,1.6,0.5,2.3c0.7,1.4,0.3,2.9,0.7,4.3c0.1,0.2,0.1,0.4,0.3,0.6c0.4,0.6,0.5,1.4,0.3,2.1
		c-0.2,0.7-0.8,1.2-1.2,1.7c0.4,0.3,1,0.7,1.3,1.2c0.3,0.5,0.5,1.3,0.3,1.9c-0.1,0.6-0.7,1.1-1.1,1.6c1,1.2,1.1,1.3,0.9,2.9
		c0,0.1,0,0.2,0,0.3c0.3,1.3,1.3,2.1,2.8,1.9c0.5-0.1,1.1-0.1,1.6,0c0.4,0.1,0.7,0.5,0.5,0.8c-0.2,0.4-0.6,0.6-1,0.9
		c-0.1,0-0.2,0-0.2-0.1c0.1,0.4,0.2,0.7,0.4,1.1c0.1,0.2,0.2,0.4,0.3,0.5c0.2-0.1,0.4-0.3,0.4-0.4c0.2-0.5,0.4-0.7,1-0.6
		c0.2,0,0.5-0.2,0.7-0.4c0.3-0.3,0.6-0.6,0.9-1c0.4-0.4,0.7-0.3,1.1-0.1c0.1,0.1,0.3,0.2,0.4,0.3c0.1,0,0.1-0.1,0.2-0.1
		c-0.1-0.2-0.2-0.4-0.3-0.5c-0.5-0.4-0.6-1-0.5-1.6c0.4-1.4,0-2.9,0-4.3c0-0.7,0-1.4,0.5-1.9c0.2-0.2,0.3-0.4,0.5-0.7
		c0.3-0.6,0.6-1.1,0.1-1.8c-0.3-0.4-0.1-0.7,0.4-0.7c0.6-0.1,1.3-0.1,1.6-0.7c0.4-0.5,0.7-0.3,1.2-0.2c0.7,0.2,1.5,0.3,2.1,0.1
		c0.6-0.2,1-0.2,1.5-0.1c0.1,0,0.3,0,0.5,0c1.3-0.2,1.9,0,2.6,1.2c0.1,0.1,0.2,0.3,0.3,0.4c0-0.1,0.1-0.1,0.1-0.2
		c0.3,0.2,0.7,0.3,1,0.5c0.4,0.4,0.1,0.8-0.3,1.1c-0.4,0.4-0.8,0.8-1.2,1.2c-0.1,0.1-0.1,0.4-0.1,0.6c0,0.1,0.1,0.3,0.1,0.4
		c-0.6-0.4-1.2-0.8-1.8-1.1c-1-0.5-1.4-0.2-1.5,0.9c0,0,0,0.1-0.1,0.2c-0.2-0.1-0.4-0.2-0.5-0.4c-0.2-0.1-0.3-0.4-0.5-0.5
		c-0.1-0.1-0.4,0-0.6,0c0,0.2,0,0.4,0.1,0.4c0.5,0.4,0.5,0.8,0.2,1.3c-0.1,0.1,0,0.2-0.1,0.3c0,0.5-0.1,0.9-0.2,1.5
		c0,0.1,0.1,0.3,0.2,0.5c0.1,0.2,0.1,0.5,0.3,0.7c0.6,0.8,0.6,0.8-0.1,1.6c-0.4,0.5-0.6,1.2-0.9,1.8c0.1,0,0.1,0.1,0.2,0.1
		c0.3-0.4,0.7-0.7,1-1.1c0.2,0,0.3,0.1,0.5,0.1c0.7,0,1.1,0.5,0.8,1.1c-0.2,0.6-0.3,1.1,0.1,1.6c0.1,0.1,0.1,0.5,0,0.7
		c0,0.1-0.4,0-0.6,0.1c-0.1,0-0.3,0.1-0.4,0.1c-0.2,0-0.5,0-0.6-0.1c-0.4-0.4-0.8-0.9-1.3-1.3c-1.3,1.1-1.3,1.2-1,2.7
		c0.5-0.9,0.7,0.1,1.1,0.1c0,0.7-1.1,0.3-1,1.2c0.3,0,0.5-0.1,0.8-0.1c-0.3,0.4-0.6,0.6-0.2,1.1c0.1,0.1,0,0.6-0.2,0.8
		c-0.6,0.8-1.3,1.6-1.4,2.6c0.3,0.1,0.5,0.2,0.7,0.3c0.3,0.1,0.6,0.2,0.8,0c0.5-0.4,1-0.6,1.6-0.4c0.5,0.2,1,0.4,1.6,0.7
		c0.1-0.1,0.2-0.2,0.3-0.3c0.4,0.3,0.8,0.5,1.2,0.8c-0.1,0.4,0,0.8,0.6,0.9c0.1,0,0.3,0.2,0.3,0.3c0.1,0.7,0.8,0.8,1.3,1.1
		c0.4,0.2,0.8,0.4,0.6,1c0,0.1,0.1,0.3,0.2,0.5c0.2,0.3,0.5,0.7,0.6,1c0.1,0.4,0.2,0.6,0.7,0.7c0.8,0.1,1.1,0.5,0.9,1.2
		c-0.1,0.2-0.2,0.3-0.3,0.5c-0.5,0.6-0.2,1.5,0.5,1.9c0.3,0.1,0.5,0.5,0.8,0.7c0,0.1,0,0.2-0.1,0.3c0.5-0.1,1.2-0.1,1.5-0.4
		C46,122,46.5,122,47,122c0.5,0,1,0,1.5,0c0.2,0,0.5-0.1,0.5-0.2c0-0.5,0.5-0.8,0.7-1.1c0.3-0.6,0.6-0.5,1.1-0.3
		c0.2,0.1,0.6,0,0.7-0.1c0.4-0.6,0.6-0.2,0.9,0.1c0.2,0.2,0.4,0.3,0.6,0.4c0.4,0.2,0.9,0.2,1.3,0.4c0.4,0.2,0.7,0.5,1,0.7
		c0.1,0.3,0.2,0.6,0.3,1c0.5-0.2,0.9-0.4,1.3-0.6c0.3-0.1,0.6-0.1,0.7,0.3c0,0.2,0.2,0.4,0.4,0.5c0.1-0.2,0.3-0.4,0.4-0.6
		c0.1-0.1,0-0.3,0.1-0.6c0.5,0.2,1,0.4,1.5,0.5c0.1-0.2,0.1-0.4,0.1-0.6c0-0.8,0.7-0.7,1.1-1c0.3-0.2,0.7,0,0.7,0.5
		c0,0.1,0.2,0.2,0.4,0.3c-0.2,0.2-0.3,0.4-0.4,0.5c0.1,0.1,0.3,0.1,0.5,0.2c-0.3,0.5-0.6,1-0.8,1.5c-0.1,0.3,0.1,0.7,0.2,1
		c0,0.1,0.2,0.2,0.4,0.2c0.9-0.2,1.8-0.4,2.7-0.7c0.6-0.2,0.8-0.2,0.9,0.6c0.4-0.1,0.9-0.2,1.3-0.3
		C67.3,124.9,67.6,125.1,67.9,125.4z M71.1,40.7c-0.3,0.1-0.9-0.3-0.6,0.5c0.1,0.3-0.9,0.7-1.2,0.7c-0.2,0-0.6,0.1-0.7,0.3
		c-0.1,0.3-0.1,0.8,0,0.9c0.7,0.3,0.7,1,0.9,1.6c-0.7,0.5-0.7,0.6-0.1,1.2c0.5,0.4,1.1,0.7,1.7,1.1c0.1-0.2,0.2-0.3,0.2-0.5
		c0-0.4,0-0.9-0.2-1.3c-0.3-0.8,0-1.5,0.5-2.2c0.3-0.4,0.6-0.8,1-1.1c0.2-0.2,0.4-0.3,0.6-0.4c0.2-0.1,0.3-0.3,0.5-0.4
		c0.5-0.4,1-0.7,1.6-1.2c0.1-0.1,0.4-0.2,0.6-0.4c0.2-0.1,0.4-0.4,0.6-0.5c0.3-0.1,0.7-0.1,1.1-0.2c-0.1-0.5,0.3-0.6,0.6-0.7
		c0.2,0,0.4-0.1,0.7-0.1c0.8-0.2,1.6-0.5,2.5-0.5c1,0,1.8-0.2,2.4-0.9c0.2-0.2,0.2-0.7,0.1-0.9c-0.1-0.2-0.5-0.3-0.8-0.3
		c-0.4,0.1-0.7,0.3-1,0.5c-0.7,0.5-1.5,0.5-2.3,0.1c-0.1-0.1-0.4-0.2-0.4-0.2c-0.5,0.5-1.1,0.3-1.7,0.3c-0.3,0-0.6,0.1-0.8,0.3
		c-0.5,0.4-1,0.5-1.6,0.4c0.4,0.8-0.3,1-0.7,1.3c-0.7,0.4-1.4,0.7-2.1,1.1c0.2,0.1,0.4,0.2,0.6,0.3c-0.3,0.2-0.6,0.5-0.8,0.6
		c-0.3-0.1-0.5-0.1-0.8-0.2C71.2,40.3,71.1,40.5,71.1,40.7z M171.9,77.5C171.9,77.5,171.9,77.5,171.9,77.5c-0.3-0.4-0.5-0.9-1.2-0.5
		c-0.2,0.1-0.6-0.2-0.9-0.4c-0.6-0.3-1.2-0.6-1.8-0.9c-0.6-0.3-0.3-1-0.6-1.4c-0.4-0.6-0.6-1.2-0.5-1.7c0.4-0.2,0.7-0.4,1.1-0.7
		c-0.4-0.3-0.7-0.4-1-0.6c-1.1-0.7-2.1-1.5-3.3-2.1c-0.9-0.5-1.7-1-2.1-1.9c-0.1-0.2-0.3-0.3-0.5-0.4c-0.6-0.4-1.2-0.8-1.8-1.3
		c-0.3-0.2-0.5-0.4-0.8-0.6c-0.1,0.1-0.1,0.1-0.2,0.2c0.1,0.2,0.2,0.3,0.4,0.5c0.3,0.3,0.6,0.5,0.9,0.8c0.1,0.1,0,0.4-0.1,0.5
		c-0.1,0.2-0.3,0.3-0.5,0.5c0.4,0.3,0.6,0.4,0.8,0.6c0.3,0.5,0.6,1,1,1.5c0.2,0.3,0.5,0.4,0.8,0.6c0.6,0.3,1.2,0.6,1.7,1
		c0.5,0.4,0.8,1,1.2,1.5c0.6,0.7,1.1,1.5,1.7,2.2c0.1,0.1,0.2,0.3,0.3,0.4c1.4,0.4,1.6,1.9,2.6,2.7c0.6,0.5,0.9,1.2,1.3,1.8
		c0.1,0,0.1,0,0.2-0.1c0-0.1,0.1-0.3,0.1-0.4c-0.1-0.2-0.2-0.4-0.3-0.6c-0.4-0.6-0.3-0.9,0.3-1.1C171.1,77.5,171.5,77.5,171.9,77.5z
		 M125.9,28.4c-0.7,0.2-1.6,0.3-2.6,0.5c0.3,0.4,0.5,0.7,0.8,1.1c-0.7-0.1-1.3-0.2-1.8-0.2c-0.9,1.1,0.1,1.8,0.6,2.4
		c0.3,0.3,1.2,0.7,1.9,0.2c-0.1-0.2-0.2-0.4-0.2-0.5c0.6-0.6,1.2-1.1,1.8-1.6c0-0.1-0.1-0.1-0.1-0.2c-0.2,0-0.5,0.1-0.7,0.1
		c-0.7-0.1-1.1-0.8-0.7-1.2c0.4,0.8,0.8,1,1.4,0.7c0.1-0.1,0.2-0.4,0.2-0.6C126.3,29,126.1,28.8,125.9,28.4z M97.3,31.1
		c0.2,0.1,0.5,0.2,0.5,0.3c0.1,0.6,0.5,0.6,0.9,0.8c0.2,0.1,0.5,0.3,0.8,0.3c0.2,0,0.5,0,0.7-0.1c0.1,0,0.3-0.4,0.2-0.4
		c-0.4-0.4-0.3-0.9-0.1-1.3c0.1-0.2,0-0.5-0.1-0.7c-0.1-0.3-0.4-0.5-0.7-0.2c-0.1,0.1-0.2,0.2-0.3,0.4c0-0.4,0-0.6,0.1-0.9
		C97.8,29.2,97.6,30.2,97.3,31.1z M100.6,34.4c0.1,0,0.1,0,0.2,0.1c0.3-0.2,0.5-0.4,0.8-0.5c0.3-0.1,0.6-0.2,0.9-0.3
		c0.8-0.3,1.1-1.2,0.5-1.6c-0.3-0.2-0.6-0.4-0.9-0.6c-0.1,0.1-0.2,0.2-0.3,0.3c-0.1-0.3-0.1-0.6-0.2-0.9c-0.1,0-0.2,0-0.3,0
		C100.8,31.9,101,33.3,100.6,34.4z M97.2,29.6c0.6-0.3,1.1-0.5,1.5-0.7c0.1-0.5,0.1-1,0.1-1.4c-0.3-0.3-0.6-0.7-1-1.1
		c-0.1,0.1-0.1,0.1-0.2,0.1c-0.4,0.5-0.8,0.8-1,1.6C96.6,28.9,96.9,29.2,97.2,29.6z M147.7,12.6C147.7,12.6,147.7,12.6,147.7,12.6
		c0-0.2,0-0.4,0-0.5c-0.1-0.2-0.4-0.4-0.5-0.4c-0.4,0.2-0.8,0.4-0.9,1c-0.1,0.6,0.1,1,0.4,1.4c0.1,0.2,0.3,0.4,0.4,0.4
		c0.2,0,0.4-0.2,0.5-0.4C147.7,13.5,147.7,13,147.7,12.6z M126.7,28c0.3,0.2,0.6,0.6,0.8,0.5c0.6-0.1,1.2-0.3,1.7-0.7
		c0.2-0.2,0.4-0.9,0.2-1.1c-0.3-0.4-0.6,0.1-0.9,0.3c-0.1,0.1-0.4,0.3-0.4,0.3c-0.4-0.3-0.5,0.1-0.7,0.3
		C127.2,27.8,127,27.9,126.7,28z M127.3,34.2c0.6-0.3,1.2-0.6,1.8-0.9c-0.2-0.5-1-0.9-1.3-0.8C126.9,32.9,127,33.6,127.3,34.2z
		 M63.4,47.5c0.4-0.3,0.8-0.4,0.9-0.7c0.1-0.3-0.5-1-0.7-0.9c-0.4,0.2-0.6,0.6-0.9,0.8C62.9,46.9,63.1,47.2,63.4,47.5z M78.1,24
		c0.7-0.1,1.1-0.1,1.6-0.2c0.2,0,0.4-0.2,0.4-0.3c0-0.2-0.2-0.4-0.2-0.7c-0.2,0.1-0.3,0.2-0.5,0.4c-0.1,0.1-0.1,0.2-0.1,0.2
		c-0.6,0-1,0.1-1.7,0.1C77.8,23.7,78,23.9,78.1,24z M72,47.8c-0.3,0.3-0.6,0.5-0.6,0.6c0.1,0.4,0.3,0.8,0.5,1.2
		c0,0.1,0.2,0.1,0.3,0.1c0.1-0.1,0.2-0.2,0.2-0.3C72.3,48.9,72.2,48.4,72,47.8z M176.9,56.6c-0.1,0-0.2,0-0.2,0
		c0,0.6,0.1,1.1,0.1,1.7c0,0.1,0.1,0.3,0.2,0.4C177.7,57.9,177.2,57.2,176.9,56.6z M83,25c0,0.2-0.2,0.5-0.1,0.7
		c0,0.1,0.4,0.3,0.5,0.3c0.3-0.1,0.5-0.4,0.8-0.6C83.8,25.2,83.5,25.1,83,25z M167,39.2c0.1,0,0.1,0,0.2,0c0-0.4,0-0.8,0-1.3
		c0-0.2-0.2-0.4-0.3-0.6c-0.1,0.2-0.4,0.4-0.3,0.5C166.7,38.3,166.9,38.8,167,39.2z M26.9,45.3c0.4,0.2,0.9,0.3,1.4,0.5
		c0.2-0.8-0.6-0.7-0.8-1.3C27.2,44.9,27,45.1,26.9,45.3z M110.8,41.3c-0.1-0.1-0.1-0.1-0.2-0.2c-0.3,0.2-0.7,0.4-1,0.6
		c0,0.1,0,0.2,0.1,0.3c0.3,0,0.6,0.2,0.8,0.1C110.6,41.9,110.7,41.5,110.8,41.3z M81,26.1c0.6-0.1,1-0.2,1.6-0.3
		C82.1,25.2,81.3,25.4,81,26.1z M77.6,22.1c0.2,0.7,0.6,0.8,1.5,0.4C78.6,22.4,78.1,22.3,77.6,22.1z M83,44.9
		c-0.2-0.3-0.3-0.5-0.5-0.9c-0.2,0.4-0.4,0.6-0.6,0.9c0,0.1,0.1,0.1,0.1,0.2C82.4,44.9,82.7,44.9,83,44.9z M84.6,25.8
		c0.7,0,1.1-0.3,0.9-0.9c-0.3,0.1-0.7,0.3-1,0.4C84.6,25.5,84.6,25.6,84.6,25.8z M96.8,30.6c0.1,0,0.2-0.1,0.2-0.1
		c0-0.2,0.2-0.5,0.1-0.6c-0.2-0.2-0.5-0.2-0.8-0.3c-0.1,0.1-0.1,0.1-0.2,0.2C96.4,30.1,96.6,30.3,96.8,30.6z M152.3,68.8
		c0.2-0.2,0.8,0.3,0.7-0.4c0-0.2-0.2-0.5-0.3-0.4C152.3,68,152.2,68.3,152.3,68.8z M178.5,75.8c0.4-1.1,0.4-1.5,0-1.7
		C178.5,74.7,178.5,75.3,178.5,75.8z M176.4,40.1c0-0.1,0-0.1,0-0.2c-0.4,0-0.9,0-1.3,0c0,0.1,0,0.1,0,0.2
		C175.5,40.1,175.9,40.1,176.4,40.1z M179.7,70.1c-0.1,0-0.2,0-0.3,0c0,0.5,0,1,0,1.4c0.1,0,0.1,0,0.2,0
		C179.7,71,179.7,70.5,179.7,70.1z"/>
	<path fill="#BE1E2D" d="M67.9,125.4c-0.3-0.2-0.6-0.4-0.9-0.7c-0.4,0.1-0.8,0.2-1.3,0.3c-0.1-0.8-0.3-0.8-0.9-0.6
		c-0.9,0.3-1.8,0.5-2.7,0.7c-0.1,0-0.3-0.1-0.4-0.2c-0.1-0.3-0.3-0.7-0.2-1c0.2-0.5,0.5-1,0.8-1.5c-0.2-0.1-0.3-0.1-0.5-0.2
		c0.1-0.2,0.3-0.3,0.4-0.5c-0.1-0.1-0.4-0.2-0.4-0.3c-0.1-0.5-0.4-0.7-0.7-0.5c-0.4,0.3-1.1,0.2-1.1,1c0,0.2-0.1,0.4-0.1,0.6
		c-0.5-0.2-1-0.4-1.5-0.5c0,0.3,0,0.5-0.1,0.6c-0.1,0.2-0.2,0.4-0.4,0.6c-0.1-0.2-0.3-0.3-0.4-0.5c-0.1-0.5-0.4-0.4-0.7-0.3
		c-0.4,0.1-0.8,0.3-1.3,0.6c-0.1-0.4-0.2-0.7-0.3-1c-0.3-0.2-0.6-0.6-1-0.7c-0.4-0.2-0.9-0.3-1.3-0.4c-0.2-0.1-0.5-0.2-0.6-0.4
		c-0.3-0.4-0.5-0.7-0.9-0.1c-0.1,0.1-0.5,0.2-0.7,0.1c-0.5-0.2-0.8-0.3-1.1,0.3c-0.2,0.4-0.7,0.6-0.7,1.1c0,0.1-0.3,0.2-0.5,0.2
		c-0.5,0-1,0-1.5,0c-0.5,0-0.9,0-1.3,0.5c-0.2,0.3-1,0.3-1.5,0.4c0-0.1,0-0.2,0.1-0.3c-0.3-0.3-0.5-0.6-0.8-0.7
		c-0.7-0.3-1-1.2-0.5-1.9c0.1-0.2,0.3-0.3,0.3-0.5c0.2-0.6-0.1-1.1-0.9-1.2c-0.5-0.1-0.6-0.3-0.7-0.7c-0.1-0.4-0.4-0.7-0.6-1
		c-0.1-0.2-0.3-0.4-0.2-0.5c0.2-0.6-0.2-0.8-0.6-1c-0.5-0.3-1.2-0.3-1.3-1.1c0-0.1-0.2-0.3-0.3-0.3c-0.5-0.2-0.7-0.5-0.6-0.9
		c-0.4-0.3-0.8-0.5-1.2-0.8c-0.1,0.1-0.2,0.2-0.3,0.3c-0.6-0.2-1.1-0.5-1.6-0.7c-0.6-0.2-1.1,0.1-1.6,0.4c-0.2,0.1-0.5,0-0.8,0
		c-0.2,0-0.4-0.2-0.7-0.3c0.1-1.1,0.8-1.8,1.4-2.6c0.1-0.2,0.3-0.6,0.2-0.8c-0.4-0.5-0.1-0.7,0.2-1.1c-0.3,0-0.5,0.1-0.8,0.1
		c-0.1-0.9,1-0.5,1-1.2c-0.4,0-0.6-1-1.1-0.1c-0.3-1.5-0.3-1.5,1-2.7c0.4,0.4,0.8,0.9,1.3,1.3c0.1,0.1,0.4,0.1,0.6,0.1
		c0.1,0,0.3-0.1,0.4-0.1c0.2,0,0.5,0,0.6-0.1c0.1-0.2,0.1-0.5,0-0.7c-0.4-0.5-0.4-1-0.1-1.6c0.3-0.6-0.2-1.1-0.8-1.1
		c-0.2,0-0.3-0.1-0.5-0.1c-0.3,0.4-0.7,0.7-1,1.1c-0.1,0-0.1-0.1-0.2-0.1c0.3-0.6,0.5-1.3,0.9-1.8c0.6-0.8,0.7-0.8,0.1-1.6
		c-0.1-0.2-0.2-0.4-0.3-0.7c-0.1-0.2-0.2-0.5-0.2-0.5c0.1-0.6,0.1-1.1,0.2-1.5c0-0.1,0-0.2,0.1-0.3c0.3-0.5,0.3-0.9-0.2-1.3
		c-0.1-0.1,0-0.3-0.1-0.4c0.2,0,0.4-0.1,0.6,0c0.2,0.1,0.3,0.3,0.5,0.5c0.2,0.1,0.4,0.2,0.5,0.4c0.1-0.1,0.1-0.2,0.1-0.2
		c0.1-1.1,0.5-1.3,1.5-0.9c0.6,0.3,1.2,0.7,1.8,1.1c0-0.1-0.1-0.2-0.1-0.4c0-0.2,0-0.4,0.1-0.6c0.4-0.4,0.8-0.8,1.2-1.2
		c0.4-0.3,0.6-0.7,0.3-1.1c-0.2-0.3-0.6-0.4-1-0.5c0,0.1-0.1,0.1-0.1,0.2c-0.1-0.1-0.2-0.3-0.3-0.4c-0.7-1.1-1.3-1.4-2.6-1.2
		c-0.2,0-0.3,0-0.5,0c-0.5-0.1-0.9-0.1-1.5,0.1c-0.6,0.2-1.4,0.1-2.1-0.1c-0.5-0.1-0.8-0.4-1.2,0.2c-0.4,0.6-1,0.6-1.6,0.7
		c-0.5,0.1-0.7,0.4-0.4,0.7c0.5,0.6,0.2,1.2-0.1,1.8c-0.1,0.2-0.3,0.4-0.5,0.7c-0.4,0.6-0.5,1.2-0.5,1.9c0,1.4,0.4,2.8,0,4.3
		c-0.2,0.6,0,1.1,0.5,1.6c0.1,0.1,0.2,0.3,0.3,0.5c-0.1,0-0.1,0.1-0.2,0.1c-0.1-0.1-0.3-0.2-0.4-0.3c-0.4-0.2-0.8-0.3-1.1,0.1
		c-0.3,0.3-0.6,0.7-0.9,1c-0.2,0.2-0.5,0.4-0.7,0.4c-0.6-0.1-0.8,0.1-1,0.6c-0.1,0.2-0.3,0.3-0.4,0.4c-0.1-0.2-0.3-0.4-0.3-0.5
		c-0.1-0.4-0.3-0.7-0.4-1.1c0.1,0,0.2,0,0.2,0.1c0.3-0.3,0.8-0.6,1-0.9c0.2-0.4,0-0.8-0.5-0.8c-0.5-0.1-1.1-0.1-1.6,0
		c-1.5,0.2-2.5-0.5-2.8-1.9c0-0.1,0-0.2,0-0.3c0.2-1.7,0.2-1.7-0.9-2.9c0.4-0.5,1-1,1.1-1.6c0.1-0.6,0-1.3-0.3-1.9
		c-0.3-0.5-0.9-0.9-1.3-1.2c0.4-0.5,1-1.1,1.2-1.7c0.2-0.6,0.1-1.4-0.3-2.1c-0.1-0.2-0.2-0.4-0.3-0.6c-0.5-1.4,0-2.9-0.7-4.3
		c-0.4-0.7-0.4-1.5-0.5-2.3c0-0.1,0.1-0.4,0.3-0.5c0.1-0.1,0.3,0.1,0.4,0.2c0.3,0.4,0.5,0.4,0.9,0c0.4-0.3,1-0.2,1.7-0.3
		c0-0.1,0-0.3,0-0.5c0-0.2-0.1-0.4-0.2-0.6c0.9,0.2,1.8,0.4,2.8,0.6c-0.2-0.3-0.2-0.6-0.4-0.7c-1.3-0.6-2.5-1.3-3.9-1.8
		c-0.5-0.2-0.9-0.6-1.5-0.6c-0.1,0-0.2-0.1-0.3-0.1c-0.7,0-1.2-0.2-1.4-0.9c0-0.1-0.2-0.2-0.4-0.3c0.1,0.5,0.3,0.9,0.3,1.4
		c0.1,0.3,0.1,0.6,0,0.8c-0.2,0.8-0.1,1,0.6,1.3c0.4,0.2,0.7,0.4,1,0.7c-0.9,0.6-1.3,0.5-1.7-0.4c-0.1-0.1-0.1-0.2-0.2-0.3
		c-0.6-0.1-1.2-0.3-1.9-0.3c-0.8,0-0.8,0.1-1-0.8c1.1-0.7,1.1-1.2,0.4-2.5c0.7,0.1,1.4,0.1,2,0.2c0-0.1,0.1-0.1,0.1-0.2
		c-0.4-0.3-0.7-0.5-1-0.9c-0.3-0.3-0.5-0.7-0.8-1.1c0-0.1,0.1-0.1,0.1-0.2c0.3,0,0.7,0,1,0c0-0.2-0.1-0.5-0.1-0.8
		c-0.2-0.1-0.6-0.1-0.8-0.3c-0.4-0.4-0.9-0.4-1.4-0.2c-0.7,0.3-1.4,0.1-2-0.4c-0.1,0.2-0.3,0.3-0.4,0.4c-0.3-0.2-0.6-0.4-0.9-0.6
		c-0.2-0.1-0.5-0.4-0.5-0.5c0-0.3,0.2-0.7,0.3-1c0.1-0.1,0.2-0.2,0.3-0.3c0.2-0.2,0.5-0.4,0.7-0.6c0.6-0.3,0.9-0.6,1-1.3
		c0.1-0.7,0.2-1.4,0.8-2c0.3-0.2,0.2-0.8,0.3-1.3c-0.4,0-0.7,0-0.9,0c-0.1,0-0.3,0-0.4-0.1c-0.5-0.4-0.9-0.8-1.5-1.2
		c-0.2-0.8-0.5-1.8-1.3-2.5c-0.2-0.2-0.3-0.5-0.2-0.7C8.7,58.6,8.4,58,9.1,58c0.4,0,0.8-0.1,1.2-0.1c0.1,0,0.3-0.1,0.3-0.2
		c0.9-1.1,2-0.6,3-0.4c0.4,0.1,0.6,0.1,0.8-0.2c0.3-0.5,0.6-1,0.9-1.5c0.2-0.3,0.6-0.4,0.9-0.7c0.2-0.2,0.5-0.5,0.5-0.7
		c0.1-0.4,0.5-0.6,0.9-0.3c0.4,0.4,0.7,0.3,1.1-0.1c0.5-0.6,1.1-1.2,1.6-1.9c0.3-0.4,0.2-1-0.2-1.6c-0.8-0.8-1.4-1.7-1.7-2.9
		c0.1,0,0.2,0,0.3,0c0.7-0.5,1-0.2,1.3,0.5c0.1,0.1,0.3,0.2,0.4,0.3c0-0.2,0.1-0.4,0.2-0.6c0.8,0.4,1.1-0.5,1.7-0.7
		c0.7-0.3,1.2-1.1,2.1-1c0,0,0,0,0.1,0c0.7-0.5,1.3-0.4,1.9,0.2c-0.2,0.5-0.4,1.1-0.6,1.7c0,0.2,0.1,0.5,0.3,0.6
		c0.3,0.1,0.7,0.3,1,0.2c0.7-0.4,1.3-0.9,1.9-1.3c-0.6-0.8-0.6-0.8,0.2-1.3c0.2-0.2,0.3-0.5,0.6-0.8c0.8,0.6,1.6,1.2,2.3,1.8
		c0.2,0.2,0.4,0.6,0.5,0.9c0.3,0.6,0.5,1,1.3,0.9c0.5,0,1,0.6,1.5,1c0.1,0.1,0.2,0.3,0.3,0.6c0.4-0.5,0.4-0.9,0-1.3
		c-0.4-0.5-0.4-0.9,0.2-1.3c-0.2-0.2-0.5-0.3-0.7-0.5c0-0.1,0-0.1,0-0.2c0.5,0,1,0,1.5,0c1.2,0,2.3,0,3.5,0c0.2,0,0.3,0,0.5,0
		c0.9-0.1,1.1-0.3,1.2-1.2c0-0.3,0.1-0.6,0.1-0.9c0-0.4,0.1-0.7,0.6-0.7c0.4,0,0.8-0.3,0.8-0.8c0-0.2,0.3-0.3,0.4-0.6
		c0.1-0.2,0.1-0.5,0.1-0.7c0.3-0.2,0.6-0.4,0.9-0.6c0.1-0.1,0.2-0.2,0.3-0.2c1.2,0,1.2-1.2,1.6-1.9c0.4-0.7,0.7-1.1,1.5-1.1
		c0.8,0,1.1-0.3,1.1-1.1c0-0.7,0-1.2,0.8-1.5c0.6-0.2,1-0.7,1.7-0.3c0.3,0.2,0.8,0.2,1.2,0.3c0.3,0.1,0.6,0.3,1.1,0.5
		c0,0,0.1,0.2,0.1,0.4c-0.2,0-0.5,0-0.7,0c0.1,0.4,0,0.8,0.2,1.1c0.2,0.5,0.7,0.8,0.9,1.3c0.4,0.9,1,1.8,0.7,2.9
		c-0.1,0.5-0.1,1.2,0.4,1.7c0.3,0.4-0.1,1.8-0.5,2.4c-0.9,1.1-3.2,0.9-3.9-0.3c-0.6-1.1-1-2.3-1.5-3.4c-0.1-0.2-0.2-0.4-0.2-0.5
		c0-0.2-0.1-0.5-0.1-0.7c0-0.2,0-0.3,0-0.5c-0.1,0-0.2,0-0.3,0c-0.1,0.5-0.1,0.9-0.2,1.4c-0.1,0.7-0.1,1.4-0.2,2.1
		c0,0.2-0.3,0.4-0.6,0.6c-0.5,0.2-0.8,0.5-0.9,1.1c0,0,0,0.1,0,0.1c-0.5,0.6-0.6,1.2-0.2,1.9c0.1,0.2-0.2,0.5-0.3,0.8
		c0.3,0.3,0.7,0.7,1,1c0.8-0.3,0.9-0.6,0.6-1.3c-0.1-0.4,0-1,0.2-1.3c0.2-0.3,0.6-0.3,0.6,0.2c0,0.9,0.3,1.7,0.9,2.3
		c0.2,0.2,0.5,0.3,0.8,0.4c0.1,0,0.3-0.1,0.3-0.2c0.2-0.5,0.3-1.1,0.5-1.7c1,0,1.9-0.1,2.9,0c0.4,0,0.7,0.5,1.1,0.7
		c-0.2,0.4-0.3,0.7-0.4,1c0.6-0.3,1-0.5,1.5-0.8c0.2-0.1,0.4-0.3,0.4-0.5c0-0.9,0.5-1.5,1.1-1.9c0.6-0.5,0.7-1,0.6-1.8
		c0.6,0.4,1,0.8,1.3,1.4c0.3,0.6,0.2,1.1,0,1.6c-0.6-0.1-1-0.2-1.5-0.2c-0.5,0-0.6,0.4-0.5,0.8c0.1,0.4,0.2,0.7,0.3,1.2
		c0.2,0.1,0.6,0.3,0.9,0.3c0.3,0,0.6-0.2,0.9-0.4c0.2-0.1,0.3-0.4,0.4-0.4c1.2,0,2.4,0,3.7,0.1c0.2,0,0.4,0.3,0.6,0.5
		c0.1-0.6,0.6-0.7,1.1-0.7c0.1,0,0.3,0.3,0.4,0.4c-0.4,0.3-0.6,0.6-0.9,0.9c0.3,0.4,0.6,0.7,1.1,0.5c0.8-0.4,1.4-0.2,1.9,0.4
		c0.1,0.1,0.1,0.1,0.2,0.1c0.5-0.1,0.9-0.2,1.3-0.3c0.1,0,0.4,0,0.4,0.1c0.1,0.1,0,0.4-0.1,0.5c-0.4,0.4-0.3,0.7,0.1,0.9
		c0.4-0.3,0.7-0.6,1.1-0.8c0.6-0.2,0.5-0.6,0.5-1.1c0-0.2,0.1-0.5,0.3-0.6c0.2-0.1,0.5-0.1,0.7,0c1.8,0.9,2.6,2.7,3.8,4.2
		c0.2,0.3,0.3,0.8,0.4,1.2c0.1,0,0.2,0,0.2,0c0.3-0.5,0.5-0.9,0.7-1.2c-0.1-0.6-0.2-1-0.4-1.5c-0.1-0.2-0.2-0.4-0.3-0.5
		c-0.5-0.5-0.5-0.7,0-1c0.1-0.1,0.2-0.3,0.3-0.5c0.1-0.3,0.2-0.6,0.3-0.9c0-0.1,0.1-0.4,0-0.4c-0.5-0.6,0-0.9,0.4-1.1
		c1-0.4,1.6-1.1,2-2.1c0.1-0.3,0.2-0.6,0.4-0.8c0.2-0.2,0.3-0.4,0.7-0.1c0.3,0.3,0.8,0.4,1.2,0.5c0.5,0.2,0.7,0.5,0.5,1
		c-0.2,0.7-0.4,1.3-1,1.8c-0.2,0.2-0.1,0.6,0,0.9c0.1,0.6-0.1,1.3-0.2,1.9c-0.3,1.1-0.7,2.1-1,3.2c-0.1,0.3,0.3,0.6,0.4,1
		c0.1,0.2,0,0.5,0,0.7c-0.1,0.3-0.3,0.6-0.4,0.9c-0.1,0.1-0.1,0.3-0.3,0.4c-0.4,0.4-0.8,0.8-1.3,1.1c-0.2,0.2-0.5,0.3-0.8,0.4
		c-0.6,0.2-1.2,0.1-1.7-0.6c-0.1,0.9,0.3,1.4,1.2,1.7c0.2,0.1,0.4,0.3,0.7,0.3c0.2,0.1,0.6,0,0.6,0c0-0.6,0.6-0.6,0.9-0.8
		c0.5-0.2,1.2-0.3,1.2-1.1c0-0.1,0.1-0.2,0.2-0.2c0.7-0.5,1-1.1,0.7-2c-0.1-0.4,0.4-1,0.9-1c0.3,0,0.5,0,0.8-0.1
		c0.1,0.2,0.3,0.4,0.4,0.6c0.2,0.4,0.5,0.7,0.1,1.3c-0.5,0.7,0.1,1.5,1.2,1.6c-0.3-0.2-0.4-0.4-0.5-0.4c-0.5-0.3-0.6-0.7-0.1-1.2
		c0.6-0.5,0.1-2-0.7-2.4c-0.3-0.1-0.6-0.3-0.8-0.4c-0.2,0.1-0.5,0.3-0.8,0.2c-0.4-0.1-0.8-0.2-0.5-0.9c0.2-0.5,0.2-1.3,0.6-1.8
		c0.7-0.7,0.3-1.5,0.3-2.3c0-0.2-0.1-0.4-0.3-0.7c0.5-0.3,1-0.5,1.5-0.9c0.3-0.3,0.4-0.8,0.6-1.2c0.1-0.2,0.1-0.4,0.1-0.6
		c0.1,0,0.2,0.1,0.3,0.1c-0.3,0.7,0.1,1.6-0.6,2.3c-0.2,0.2-0.2,0.9,0,1.2c0.2,0.3,0.5,0.7,1.1,0.6c0.2-0.1,0.6,0.4,1,0.5
		c-0.2-0.3-0.3-0.6-0.5-0.8c-0.2-0.3-0.5-0.5-0.8-0.8c-0.3-0.4-0.3-0.7,0.3-0.9c0.2,0.2,0.4,0.4,0.7,0.6c0.1-0.2,0.2-0.3,0.3-0.4
		C87,48.5,87,48,87.1,48c0.4,0,0.8,0,1.1,0.1c0.3,0.1,0.5,0.3,0.8,0.5c-0.1,0.7,0.4,1.2,0.9,1.1c0.1,0,0.4-0.4,0.3-0.4
		c-0.2-0.3-0.4-0.6-0.6-0.9c-0.3-0.4-0.7-0.8-0.4-1.5c0.1-0.2,0.1-0.5,0-0.7c-0.2-0.6,0.1-1,0.7-1c0.6,0,1.1,0.1,1.7,0.1
		c0.5,0,1.1-0.2,1.6-0.3c0.2,0,0.4-0.2,0.6-0.2c-0.1-0.2-0.3-0.4-0.4-0.5c-0.1-0.1-0.2-0.1-0.4-0.3c0.3-0.1,0.5-0.1,0.7-0.2
		c0.1-0.4,0.2-0.9,0.2-1.3c0.1,0,0.1,0,0.2,0c-0.1-0.1-0.2-0.3-0.2-0.3c0.5-0.3,0.9-0.7,1.3-0.9c0.8-0.4,1.7-0.7,2.6-1.1
		c-0.1-0.1-0.1-0.3-0.2-0.4c0.6-0.2,1.2-0.4,1.8-0.6c0,0.2,0,0.3-0.1,0.6c0.7-0.3,1.4-0.5,2.1-0.8c-0.1-0.2-0.3-0.4-0.5-0.6
		c0.5-0.1,0.9-0.2,1.3-0.3c-0.6-1.4,0-2.4,1.1-3.3c1,0.3,1,0.3,0.4,1.6c0.6,0,1.1,0,1.7,0c-0.4,0.8-0.4,0.8,0.5,1c0-0.2,0-0.5,0-0.7
		c0.6-0.2,1.3-0.5,2.1-0.4c0,0,0,0,0.1,0c0.5,0.5,1.1,0.9,1.6,1.4c0.1,0.1-0.1,0.4-0.2,0.7c0.7,0.6,0.7,1.6-0.2,2.6
		c-0.4,0.5-0.6,1-0.9,1.5c-0.3,0.6-0.4,1.3-1.1,1.7c-0.5,0.3-0.7,1.2-1,1.9c0.1,0.1,0.2,0.1,0.3,0.2c0.1-0.1,0.2-0.2,0.3-0.3
		c0.1-0.2,0.2-0.6,0.4-0.6c0.9,0,1.1-1,1.8-1.2c0.1,0,0.2-0.3,0.2-0.4c-0.2-0.3-0.4-0.5-0.5-0.8c0-0.1,0.1-0.1,0.1-0.2
		c0.5,0.1,1,0.2,1.5,0.2c0.1-0.2,0.3-0.4,0.5-0.7c0.1,0.4,0.1,0.6,0.2,0.8c0.1,0.2,0.2,0.4,0.4,0.6c-0.1-0.7,0.4-1,0.8-1.2
		c0.7-0.3,1.5-0.5,2.2-0.7c0.2,1,0.4,1,1.3,0.7c0.3-0.1,0.6,0.1,0.9,0c0.4-0.2,0.8-0.4,1.3-0.7c-0.2-0.6-0.3-1.3-0.6-2.2
		c0.8,0.1,1.5,0.2,2.1,0.3c0.2-0.3,0.4-0.5,0.5-0.7c0.5,0.1,1,0.2,1.2,0.3c0.3,0.5,0.5,0.9,0.7,1.3c0.3,0.1,0.5,0.1,0.7,0.2
		c-0.1,0.3-0.2,0.6-0.3,1c0.1,0,0.3,0.1,0.4,0.1c1,0.7,1.7,1.6,3.2,1.2c-0.1-0.4-0.2-0.8-0.3-1.3c-0.1-0.4-0.3-0.9-0.5-1.3
		c0.8,0.1,1.4,0.2,1.9,0.3c0.3-0.6,0.5-1.2,0.8-1.4c0.4-0.2,1-0.1,1.5-0.2c0.1-0.1,0.2-0.2,0.3-0.2c-0.2-0.1-0.5-0.2-0.8-0.4
		c0.5-0.3,0.9-0.5,1.4-0.7c-0.4-0.5-0.8-0.9-1.2-1.4c0,0.1-0.2,0.2-0.3,0.4c-0.4-0.3-0.3-0.6,0-0.8c0.6-0.5,0.4-0.8-0.1-1
		c0-0.1,0-0.1,0-0.1c1.1-0.6,2.2-1.3,3.3-1.9c0,0,0.1,0.1,0.1,0.1c-0.2,0.3-0.4,0.7-0.6,1c0,0,0.1,0.1,0.1,0.1
		c0.3-0.2,0.6-0.3,0.9-0.5c0.1,0.3,0.2,0.6,0.3,0.9c0.4-0.2,0.3-0.5,0.3-0.9c-0.2-1.3,0.1-1.8,1.2-2.1c0.2-0.1,0.4,0,0.8,0
		c-0.2,0.3-0.3,0.5-0.4,0.7c0,0.1,0,0.1,0.1,0.2c0.4-0.1,0.7-0.1,1.1-0.2c0-0.1,0-0.1,0-0.2c0.2,0.1,0.3,0.2,0.5,0.3
		c0-0.6,0.4-0.9,0.9-0.8c0.8,0.2,1.7-0.4,1.9-1.3c0.1-0.5,0.3-1,0.6-1.4c0.5-0.7,1-1.4,2.1-1.4c0.6,0,0.9,0.3,1.2,0.6
		c0.4,0.5,0.8,0.4,1.2,0.1c0.2-0.2,0.5-0.3,0.6-0.3c0.2-0.4,0.3-0.6,0.4-0.9c0.1-0.2,0.2-0.3,0.2-0.5c0-0.5,0-1,0.7-1.1
		c0.1,0,0.2-0.2,0.3-0.4c0.2-0.2,0.3-0.5,0.5-0.7c0.6-0.5,0.3-1.1,0.1-1.5c-0.3-0.5,0-0.8,0.4-1.3c0.1,0.4,0.1,0.6,0.1,0.8
		c0.1,0.2,0.3,0.6,0.4,0.5c0.6-0.1,1.3-0.3,1.9-0.6c0.1,0,0-0.7-0.1-0.8c-0.4-0.2-1-0.3-1.4-0.4c-0.3-0.1-0.6-0.3-0.9-0.4
		c0-0.6,0.7-1.5,1.2-1.7c0.1-1,0.5-1.8,1.1-2.5c0.8-0.9,1.7-1.8,2.9-2.4c0.9-0.4,1.5-1.2,2.3-1.9c0.1-0.1,0.1-0.1,0.2-0.2
		c0.6-0.3,1.1-0.6,1.7-0.9c0.3-0.2,0.6-0.2,1,0c0.3,0.2,0.8,0.1,1.2,0.3c0.3-0.3,0.7-0.5,1.1-0.9c-0.8,0-1.3-0.1-2-0.1
		c0.4-0.8,0.6-1.6,1.1-2.1c0.5-0.6,1.3-0.9,2-1.3c0.2,0.5,0.4,0.9,0.6,1.4c-0.1,0-0.1,0.1-0.2,0.1c0.1,0,0.3,0,0.6,0
		c-0.2,0.4-0.3,0.7-0.4,1.1c0.2,0,0.5,0,0.8-0.1c0.4-0.1,0.7,0.2,0.9,0.5c0.1,0.2,0.4,0.2,0.7,0.4c0,0-0.1,0.2-0.2,0.4
		c0.4,0.4,0.3,0.6-0.4,0.9c-0.3,0.1-0.6,0.4-0.7,0.7c-0.3,0.5-0.6,0.7-1.2,0.6c-0.6-0.2-1,0.3-0.8,0.9c0.2,0.8,0.1,0.9-0.7,1
		c-0.4,0-0.8,0-1.4,0c0.1,0.2,0.2,0.6,0.3,0.9c0.2,0.5,0.6,0.2,0.9,0.3c0.6,0.2,1.1,0.7,1.5,1.1c0.2,0.2,0.3,0.7,0.2,1
		c-0.1,0.3-0.4,0.6-0.6,0.9c-0.2,0.2-0.5,0.3-0.8,0.4c0,0.1,0.1,0.1,0.1,0.2c0.1,0,0.3,0,0.3,0c0,0.2,0.1,0.4,0.1,0.6
		c0.1-0.1,0.3-0.3,0.4-0.4c0,0,0.1-0.2,0.1-0.2c0.8-0.1,1.4-1.1,2.2-0.7c0.7,0.3,1.1,0,1.7-0.2c0.3-0.1,0.7,0,1,0
		c0.7,1.1,0.5,1.6-0.9,2.3c0.6,0.9,0.9,1.8,1,2.9c0.1,1.2,0.3,2.6,1.1,3.6c0.1,0.1,0.1,0.2,0.1,0.4c0,0.9,0.2,1.6,1.1,2.3
		c-0.4,0.1-0.6,0.2-0.8,0.2c-0.5-0.1-0.8,0-1,0.5c-0.1,0.2-0.2,0.5-0.4,0.7c-0.3,0.4-0.3,1.8,0,2.3c0.1,0.1,0.1,0.2,0.2,0.4
		c0,0.1,0,0.1,0,0.3c-0.4-0.2-0.7-0.4-1-0.6c0,0-0.1,0.1-0.1,0.1c0.2,0.5,0.3,1,0.5,1.5c-0.1,0.3-0.3,0.6-0.6,1
		c-0.4,0.5,0,0.8,0.3,1.1c0.6,0.6,1.2,1.1,1.2,2.1c0,0.4,1.3,1,1.7,1c0.1-0.4,0.2-0.8,0.4-1.2c0.1,0,0.1,0,0.2,0
		c0.2,0.3,0.4,0.7,0.6,1c0.2,0.5,1.1,1,1.5,0.7c0.5-0.3,0.8-0.1,1,0.3c0.1,0.2-0.2,0.5-0.4,0.8c0,1.2,0.9,2,2,1.9
		c0.6,0,0.8,0.3,1,0.9c-1.1,0.4-1.2,1.2-0.8,2.1c0.3,0.9,1.1,1.2,2,1.4c-1.1,0.7-1,1.7-0.1,2.4c0.6,0.5,1.2,1,1.3,2
		c0,0.6,0.2,1.3,0.4,2c-2.1-0.4-3.7-1.6-5.4-2.5c-0.8-0.5-1.7-0.8-2.5-1.2c-0.7-0.3-1.5-0.6-1.9-1.4c-0.1-0.2-0.4-0.4-0.6-0.6
		c-0.4-0.6-0.8-1.2-1.1-1.8c-0.2-0.5-0.4-1-1-1.2c0.7-1.6,0.3-3.1-0.5-4.6c-0.5-0.9-0.7-1.9-1-2.8c-0.1-0.3-0.3-0.6-0.4-0.9
		c-0.1-0.3-0.1-0.6,0-0.9c0.1-0.7-0.1-1.9-0.6-2c-0.6-0.2-0.9-0.5-1.3-0.9c-0.7-0.7-0.7-0.7-0.2-1.5c-0.7,0.1-1.1,0.6-1.2,1.4
		c0,0.4,0.9,1.3,1.6,1.4c-0.6,0.7,0,1.4,0,2.1c0,0.5,0.1,1.1,0.2,1.8c-0.4-0.3-0.6-0.5-0.8-0.6c-0.1,0.2-0.1,0.3-0.2,0.5
		c-0.4-0.5-0.8-1-1.3-1.6c0,0.8-0.1,1.2-0.7,1.1c-0.2,0.6-0.6,1.2-0.6,1.8c0,0.7,0.3,1.5,0.5,2.2c0.1,0.4,0.2,0.8,0.3,1.2
		c0.2,0.7,0.4,1.4,0.7,2.1c0.1,0.3,0.4,0.4,0.8,0.1c0.2-0.1,0.4-0.3,0.6-0.4c0.1,0,0.1,0.1,0.2,0.1c-0.2,0.4-0.3,0.7-0.6,1.2
		c-0.1,0-0.3,0.1-0.6,0.2c0,0.2,0,0.4,0,0.6c0,0.2,0.1,0.4,0,0.4c-0.4,0.4-0.5,0.9-0.7,1.4c0,0.1-0.3,0.1-0.4,0.1
		c-0.1-0.2-0.3-0.4-0.3-0.5c0-0.2,0.2-0.3,0.4-0.6c-0.8,0-1.3,0.5-1.9,0.9c-0.1,0.1-0.2,0.2-0.3,0.3c-0.9,0.5-1,0.7-0.4,1.8
		c-0.3,0.1-0.5,0.1-0.7,0.2c0.1,0.6-0.3,0.9-0.8,1.1c-0.6,0.2-0.5,0.4-0.2,0.8c-0.1,0.1-0.3,0.3-0.4,0.2c-0.6-0.1-1,0.3-1.3,0.7
		c-0.5,0.6-1,1.3-1.4,2c-0.4,0.6-0.3,1.3,0.2,1.9c-0.6,0.7-0.7,1.4-0.1,2.1c0.1,0.1,0.1,0.2,0.1,0.3c-0.1,1-0.3,1.9-0.4,2.9
		c0,0.4,0.3,0.8,0.2,1.2c-0.1,1.1-0.3,2.1-0.5,3.2c-0.1,0.5-0.2,0.9-0.3,1.4c0,0.5,0.3,0.7,0.7,0.4c0.4-0.2,0.9-0.5,1.4-0.8
		c0.3,0.4,0.6,0.9,0.9,1.4c0.8-0.5-0.3-0.8,0.1-1.3c0.2,0.1,0.5,0.2,0.7,0.4c0,0.2,0,0.5,0.1,0.9c0.4-0.4,0.8-0.8,1.3-1.2
		c-0.1-0.3-0.4-0.7-0.6-1.2c0.7-0.9,1.8-0.9,2.6-0.6c0.3,0.1,0.6,0,1,0c0.2,0,0.4,0,0.7,0c-0.2,0.3-0.4,0.5-0.5,0.7
		c0.4,0.3,0.7,0.5,1.1,0.8c0.1,0.1,0.1,0.1,0.2,0.1c0.9-0.1,0.9,0.6,1,1.2c0.1,1,0.5,1.8,1.1,2.5c0.7,0.8,1.2,1.8,1.9,2.6
		c0.8,0.9,0.9,1.9,0.8,3.1c-0.1,0.8,0.2,1.7,0.4,2.6c0.3,1.4,0.6,2.8,0.4,4.3c-0.2,1.7-0.1,3.5-0.1,5.2c0,1.1-0.7,2-1.3,2.8
		c-0.2,0.4-1,0.5-1.5,0.6c-0.1,0-0.3-0.3-0.6-0.5c-0.1,0.2-0.2,0.4-0.3,0.6c-0.1-0.1-0.2-0.1-0.4-0.2c-0.2,0.9-0.3,1.7-0.5,2.5
		c-0.6,0.1-0.7-0.1-0.5-0.5c0.1-0.2,0.2-0.4,0.2-0.6c0-0.4,0.2-0.9,0-1.1c-0.6-0.8-1.3-1.5-1.9-2.3c-0.1-0.2-0.1-0.5,0-0.7
		c0.1-0.3,0.2-0.6,0.4-0.8c0.2-0.3,0.5-0.6,0.9-0.6c0.7-0.1,1-0.5,0.7-1.2c-0.2-0.4-0.1-1-0.3-1.4c-0.2-0.8-0.4-1.6-0.7-2.4
		c-0.1-0.2-0.3-0.4-0.4-0.7c0.4-0.6,0-1.9-0.7-2c-0.3-0.1-0.8,0.2-1,0.5c-0.3,0.4-0.6,0.9-0.8,1.4c-0.1,0.1-0.2,0.3-0.1,0.3
		c0.3,0.7-0.2,0.8-0.6,1.1c-0.3,0.2-0.6,0.5-0.9,0.7c-0.3,0.2-1.2-0.1-1.3-0.6c-0.2-0.8-0.8-1.2-1.6-1c-0.2,0-0.4,0-0.6-0.1
		c-0.8-0.1-1.6-0.2-2.4,0.3c-0.7,0.5-1.2,0.2-1.7-0.4c-0.5-0.6-1.2-1-1.8-1.4c-0.1-0.1-0.2-0.2-0.3-0.3c-0.5-0.4-1-0.9-1.5-1.3
		c-0.3-0.3-0.7-0.7-1.1-0.9c-0.6-0.2-1.2-0.4-1.8-0.3c-0.8,0-1.5,0.2-2.3,0.4c-0.3,0.1-0.6,0.1-0.8,0.3c-0.6,0.4-1.2,0.8-1.7,1.3
		c-0.6,0.4-0.9,1.5-0.8,1.8c0.4,0.2,0.8,0.2,0.9,0.4c0.2,0.4,0.4,0.8,0.4,1.2c-0.1,0.9-0.4,1.8-0.5,2.7c0,0.3,0.2,0.6,0.4,0.9
		c0.2,0.4,0.4,0.8-0.2,1c-0.1,0-0.2,0.2-0.3,0.3c-0.4,1.3-1.4,1.5-2.6,1.3c-0.5-0.1-1,0-1.4,0.3c-0.3,0.3-0.7,0.3-1.1,0.1
		c-0.5-0.3-1-0.1-1.3,0.2c-0.4,0.4-0.6,0.9-1,1.4c-0.4,0.4-0.8,0.8-1.2,1.1c-0.2,0.2-0.5,0.2-0.7,0.4c-1.2,1.4-2.9,1-4.4,1.2
		c-0.2,0-0.6-0.2-0.8-0.4c-0.3-0.5-0.7-0.6-1.2-0.6c-0.5,0-1-0.2-1.4-0.2c-0.9,0-1.7-0.2-2.5,0.4c-0.9,0.7-3.1,0.9-3.7-0.7
		c-0.3-0.9-1.2-1.2-2.1-1c-0.4,0.1-0.7,0.1-1-0.2c-0.1-0.1-0.3-0.1-0.5-0.2c-0.4-0.1-0.8-0.2-1.3-0.3c0-0.1-0.1-0.1-0.1-0.2
		c-0.4,0.6-1,1.2-1.3,1.9c-0.1,0.5,0.2,1.2,0.4,1.7c0.2,0.5,0.2,0.7-0.2,1.1c-0.8,0.8-1.6,0.8-2.6,0.6c-0.3-0.1-0.6,0.1-0.9,0
		c-0.7-0.1-1.3-0.3-1.8-0.9c-0.4-0.4-0.8-0.7-1.4-0.4c-0.1,0.1-0.3,0-0.4,0c-0.4-0.4-0.8-0.6-1.4-0.1c-0.6,0.5-1.4,0.7-2.1,1
		c-0.7,0.4-1.4,1-2.1,1.5c-0.2,0.1-0.5,0.2-0.7,0.3c-0.1,0-0.3,0-0.4,0c-0.6,0.4-1.2,0.7-1.9,0.6c-0.4-0.1-0.5,0.3-0.5,0.6
		c-0.1,0.6-0.4,0.9-1,0.9c-0.6,0-0.8,0.5-0.9,1c0,0.2,0,0.5,0,0.7c0.1,0.7,0,1.2-0.9,1.2c-0.2,0-0.4,0.3-0.6,0.4
		c-0.2-0.1-0.4-0.4-0.5-0.4c-0.8,0.3-1.4-0.2-2-0.5c-0.1,0-0.2-0.1-0.2-0.1c-0.6,1.2-1.1,2.3-1.7,3.5c0.3,0.1,0.5,0.2,0.5,0.3
		c0,0.2-0.1,0.4-0.2,0.6c-0.4-0.2-0.7-0.3-1.1-0.5c-0.2-0.1-0.4-0.1-0.6-0.1c-0.7,0.1-1.4,0.2-2,0.4c-0.2,0-0.3,0.2-0.6,0.4
		c0.4,0.1,0.7,0.2,1.1,0.3c-0.8,0.8-0.3,1.6-0.1,2.4c0.1,0.4,0.2,0.9,0.1,1.2c-0.1,0.3-0.6,0.4-0.8,0.7c-0.1,0.1-0.3,0.4-0.3,0.6
		c0,0.2,0,0.4,0,0.7c0.1,0.6-0.2,0.8-0.8,0.9c-1.2,0.2-2.5,0.2-3,1.6c-0.8-0.1-1.5-0.3-2.3-0.4c-0.4,0.7-0.9,1.5-1.9,1.2
		c-0.2-0.1-0.3-0.5-0.6-0.8c-0.4,0.2-1.1-0.3-1.6,0.5c-0.1,0.2-0.5,0.1-0.8,0.2c-0.7,0.1-0.9,0.4-0.7,1.1c-0.5,0.2-0.8,0.4-0.5,1
		c0,0.1,0,0.2,0,0.3c-0.4,0.4-0.1,0.7,0.1,1c0-0.1,0.1-0.1,0.1-0.2c0.4,0.1,0.8,0.1,1.2,0.3c0.2,0.1,0.2,0.6,0.2,0.9
		c0,0.6-0.2,1.1,0.1,1.7c0,0.1-0.1,0.3-0.2,0.5C68.1,125.4,68,125.4,67.9,125.4z M37.9,74.7c-0.3,0.2-0.5,0.5-0.8,0.6
		c-0.5,0.2-1.1,0.4-1.7,0.6c-0.1,0-0.1,0.1-0.2,0.2c-0.6,0.6-1.1,1.2-1.7,1.7c-0.6,0.5-1.3,0.9-1.8,1.5c-0.5,0.5-0.5,1.2-0.1,1.7
		c0.4,0.4,1,0.5,1.6-0.1c0.6-0.5,1-1.1,1.5-1.7c0.6-0.7,1.1-1.5,2-1.8c0.1,0,0.2-0.2,0.2-0.2c0.3-0.9,0.3-0.9,1-0.2
		c2.7,2.6,6.7,3.8,10.4,1.7c0.2-0.1,0.6,0,0.7,0.2c0.6,0.6,1.2,1.2,1.8,1.8c0.8,0.8,1.7,0.7,2.3-0.3c0.3-0.4,0.3-0.8-0.1-1.1
		c-0.8-0.7-1.6-1.5-2.5-2.3c0.2-0.2,0.3-0.4,0.4-0.6c1.8-2.9,2.2-5.8,0.5-8.9c-1.9-3.3-4.8-5.4-8.2-6.8c0,0-0.1,0-0.1,0.1
		c0.8,0.6,1.6,1.3,2.4,1.9c2.5,2.2,4.3,4.7,4.7,8.1c0.2,1.7-0.3,3.1-1.5,4.5c-3.3-3-6.5-6-9.7-9.1c1-0.8,1.9-1.6,2.9-2.5
		c-1.4-0.3-2.6-0.7-3.9-1c-0.2,0-0.5,0.1-0.7,0.3c-1,0.9-2.1,1.9-3.1,2.9c-0.4,0.4-0.9,0.9-1.4,1.3c0.8,0.8,1.6,1.6,2.5,2.4
		c0.7-0.7,1.4-1.4,2.1-2c3.1,3.1,6.2,6.1,9.3,9.1C44.7,78.1,41.3,77.4,37.9,74.7z M45.5,58.9c-0.3-1-0.5-1.9-0.9-2.6
		c-0.3-0.7-0.1-1.1,0.5-1.4c0.7-0.4,1.4-1,2.2-1.5c-1-0.1-1.9-0.2-2.8-0.1c-0.7,0-1-0.1-1.2-0.8c-0.2-0.9-0.6-1.7-0.9-2.7
		c-0.4,1-0.7,1.8-0.9,2.7c-0.2,0.7-0.5,0.9-1.2,0.9c-0.9-0.1-1.8,0-2.7,0c0.6,0.6,1.3,1.1,2,1.6c1,0.7,0.9,0.4,0.5,1.6
		c-0.3,0.8-0.5,1.6-0.8,2.5c1-0.7,1.9-1.3,2.7-1.9c0.3-0.2,0.5-0.2,0.8,0C43.6,57.6,44.5,58.2,45.5,58.9z"/>
	<path fill="#BE1E2D" d="M71.1,40.7c0.1-0.2,0.1-0.4,0.2-0.6c0.3,0.1,0.5,0.1,0.8,0.2c0.2-0.2,0.5-0.4,0.8-0.6
		c-0.2-0.1-0.4-0.2-0.6-0.3c0.7-0.4,1.4-0.7,2.1-1.1c0.4-0.3,1.1-0.5,0.7-1.3c0.6,0.1,1.2,0,1.6-0.4c0.2-0.2,0.5-0.3,0.8-0.3
		c0.6,0,1.2,0.1,1.7-0.3c0,0,0.3,0.1,0.4,0.2c0.7,0.4,1.6,0.4,2.3-0.1c0.3-0.2,0.7-0.4,1-0.5c0.2,0,0.7,0.1,0.8,0.3
		c0.1,0.3,0.1,0.7-0.1,0.9c-0.6,0.7-1.4,0.9-2.4,0.9c-0.8,0-1.6,0.3-2.5,0.5c-0.2,0-0.4,0.1-0.7,0.1c-0.4,0.1-0.7,0.2-0.6,0.7
		c-0.4,0-0.8,0-1.1,0.2c-0.2,0.1-0.4,0.4-0.6,0.5c-0.2,0.2-0.5,0.3-0.6,0.4c-0.6,0.4-1.1,0.8-1.6,1.2c-0.2,0.1-0.3,0.3-0.5,0.4
		c-0.2,0.1-0.4,0.3-0.6,0.4c-0.3,0.4-0.7,0.7-1,1.1c-0.4,0.7-0.7,1.3-0.5,2.2c0.1,0.4,0.1,0.9,0.2,1.3c0,0.2-0.1,0.3-0.2,0.5
		c-0.6-0.4-1.2-0.7-1.7-1.1c-0.7-0.6-0.6-0.7,0.1-1.2c-0.2-0.6-0.2-1.2-0.9-1.6c-0.1-0.1-0.1-0.6,0-0.9c0.1-0.2,0.4-0.3,0.7-0.3
		c0.3,0,1.3-0.4,1.2-0.7C70.2,40.4,70.8,40.7,71.1,40.7z"/>
	<path fill="#BE1E2D" d="M171.9,77.5c-0.4,0.1-0.8,0.1-1.1,0.1c-0.7,0.2-0.8,0.5-0.3,1.1c0.1,0.2,0.3,0.4,0.3,0.6
		c0,0.1-0.1,0.3-0.1,0.4c-0.1,0-0.1,0-0.2,0.1c-0.4-0.6-0.8-1.4-1.3-1.8c-1-0.8-1.2-2.3-2.6-2.7c-0.1,0-0.2-0.2-0.3-0.4
		c-0.6-0.7-1.1-1.5-1.7-2.2c-0.4-0.5-0.8-1.1-1.2-1.5c-0.5-0.4-1.1-0.7-1.7-1c-0.3-0.2-0.6-0.4-0.8-0.6c-0.4-0.5-0.6-1-1-1.5
		c-0.1-0.2-0.4-0.3-0.8-0.6c0.2-0.2,0.4-0.3,0.5-0.5c0.1-0.1,0.2-0.4,0.1-0.5c-0.3-0.3-0.6-0.5-0.9-0.8c-0.1-0.1-0.3-0.3-0.4-0.5
		c0.1-0.1,0.1-0.1,0.2-0.2c0.3,0.2,0.5,0.4,0.8,0.6c0.6,0.4,1.2,0.8,1.8,1.3c0.2,0.1,0.4,0.2,0.5,0.4c0.4,1,1.1,1.5,2.1,1.9
		c1.2,0.6,2.2,1.4,3.3,2.1c0.3,0.2,0.6,0.3,1,0.6c-0.4,0.2-0.7,0.4-1.1,0.7c-0.1,0.6,0,1.2,0.5,1.7c0.3,0.4,0,1.1,0.6,1.4
		c0.6,0.3,1.2,0.6,1.8,0.9c0.3,0.1,0.7,0.5,0.9,0.4C171.3,76.6,171.6,77,171.9,77.5C171.9,77.5,171.9,77.5,171.9,77.5z"/>
	<path fill="#BE1E2D" d="M125.9,28.4c0.2,0.3,0.4,0.5,0.4,0.8c0,0.2,0,0.5-0.2,0.6c-0.5,0.3-1,0.1-1.4-0.7c-0.4,0.4,0,1,0.7,1.2
		c0.2,0,0.5-0.1,0.7-0.1c0,0.1,0.1,0.1,0.1,0.2c-0.6,0.5-1.2,1-1.8,1.6c0,0.1,0.1,0.3,0.2,0.5c-0.7,0.6-1.6,0.2-1.9-0.2
		c-0.5-0.6-1.5-1.3-0.6-2.4c0.5,0.1,1.1,0.1,1.8,0.2c-0.3-0.4-0.5-0.7-0.8-1.1C124.4,28.8,125.2,28.6,125.9,28.4z"/>
	<path fill="#BE1E2D" d="M97.3,31.1c0.3-0.9,0.5-1.9,1.9-1.8c0,0.2,0,0.5-0.1,0.9c0.2-0.2,0.3-0.3,0.3-0.4c0.3-0.4,0.6-0.2,0.7,0.2
		c0.1,0.2,0.2,0.5,0.1,0.7c-0.1,0.5-0.2,0.9,0.1,1.3c0,0-0.1,0.4-0.2,0.4c-0.2,0.1-0.5,0.1-0.7,0.1c-0.3,0-0.5-0.2-0.8-0.3
		c-0.3-0.2-0.8-0.2-0.9-0.8C97.8,31.3,97.4,31.2,97.3,31.1z"/>
	<path fill="#BE1E2D" d="M100.6,34.4c0.4-1.2,0.2-2.5,0.8-3.6c0.1,0,0.2,0,0.3,0c0.1,0.3,0.1,0.6,0.2,0.9c0.1-0.1,0.2-0.2,0.3-0.3
		c0.3,0.2,0.6,0.4,0.9,0.6c0.5,0.4,0.2,1.3-0.5,1.6c-0.3,0.1-0.6,0.2-0.9,0.3c-0.3,0.1-0.6,0.4-0.8,0.5
		C100.7,34.5,100.6,34.5,100.6,34.4z"/>
	<path fill="#BE1E2D" d="M97.2,29.6c-0.3-0.5-0.6-0.8-0.5-1.5c0.1-0.8,0.6-1.1,1-1.6c0,0,0.1-0.1,0.2-0.1c0.3,0.4,0.7,0.8,1,1.1
		c0,0.5-0.1,0.9-0.1,1.4C98.3,29.1,97.8,29.4,97.2,29.6z"/>
	<path fill="#BE1E2D" d="M147.7,12.6c-0.1,0.5-0.1,1-0.2,1.4c0,0.2-0.3,0.4-0.5,0.4c-0.1,0-0.3-0.2-0.4-0.4
		c-0.2-0.4-0.4-0.8-0.4-1.4c0.1-0.6,0.5-0.8,0.9-1c0.1,0,0.4,0.2,0.5,0.4C147.8,12.2,147.7,12.4,147.7,12.6
		C147.7,12.6,147.7,12.6,147.7,12.6z"/>
	<path fill="#BE1E2D" d="M126.7,28c0.3-0.2,0.5-0.3,0.7-0.4c0.2-0.1,0.3-0.6,0.7-0.3c0,0,0.3-0.2,0.4-0.3c0.3-0.2,0.6-0.7,0.9-0.3
		c0.2,0.2,0,0.9-0.2,1.1c-0.5,0.4-1.1,0.6-1.7,0.7C127.3,28.6,127,28.3,126.7,28z"/>
	<path fill="#BE1E2D" d="M127.3,34.2c-0.3-0.6-0.4-1.3,0.5-1.6c0.4-0.1,1.1,0.3,1.3,0.8C128.5,33.6,127.9,33.9,127.3,34.2z"/>
	<path fill="#BE1E2D" d="M63.4,47.5c-0.3-0.3-0.5-0.5-0.7-0.8c0.3-0.3,0.6-0.6,0.9-0.8c0.2-0.1,0.9,0.6,0.7,0.9
		C64.2,47,63.8,47.2,63.4,47.5z"/>
	<path fill="#BE1E2D" d="M78.1,24c-0.1-0.1-0.2-0.3-0.5-0.6c0.6,0,1.1-0.1,1.7-0.1c0,0,0-0.1,0.1-0.2c0.1-0.1,0.3-0.2,0.5-0.4
		c0.1,0.2,0.2,0.4,0.2,0.7c0,0.1-0.3,0.3-0.4,0.3C79.2,23.8,78.7,23.9,78.1,24z"/>
	<path fill="#BE1E2D" d="M72,47.8c0.2,0.6,0.3,1.1,0.4,1.5c0,0.1-0.1,0.2-0.2,0.3c-0.1,0-0.3,0-0.3-0.1c-0.2-0.4-0.4-0.8-0.5-1.2
		C71.4,48.2,71.8,48,72,47.8z"/>
	<path fill="#BE1E2D" d="M176.9,56.6c0.3,0.7,0.8,1.3,0.1,2.1c-0.1-0.2-0.2-0.3-0.2-0.4c-0.1-0.6-0.1-1.1-0.1-1.7
		C176.8,56.6,176.9,56.6,176.9,56.6z"/>
	<path fill="#BE1E2D" d="M83,25c0.5,0.1,0.8,0.2,1.2,0.4c-0.3,0.3-0.6,0.5-0.8,0.6c-0.1,0.1-0.5-0.1-0.5-0.3
		C82.8,25.5,83,25.2,83,25z"/>
	<path fill="#BE1E2D" d="M167,39.2c-0.2-0.5-0.4-0.9-0.5-1.4c0-0.1,0.2-0.3,0.3-0.5c0.1,0.2,0.3,0.4,0.3,0.6c0,0.4,0,0.8,0,1.3
		C167.1,39.2,167.1,39.2,167,39.2z"/>
	<path fill="#BE1E2D" d="M26.9,45.3c0.1-0.2,0.3-0.4,0.6-0.8c0.1,0.6,1,0.5,0.8,1.3C27.8,45.6,27.3,45.5,26.9,45.3z"/>
	<path fill="#BE1E2D" d="M110.8,41.3c-0.1,0.2-0.2,0.6-0.4,0.7c-0.2,0.1-0.5,0-0.8-0.1c0-0.1,0-0.2-0.1-0.3c0.3-0.2,0.7-0.4,1-0.6
		C110.7,41.1,110.8,41.2,110.8,41.3z"/>
	<path fill="#BE1E2D" d="M81,26.1c0.3-0.7,1.1-0.9,1.6-0.3C82,25.9,81.6,26,81,26.1z"/>
	<path fill="#BE1E2D" d="M77.6,22.1c0.5,0.1,1,0.3,1.5,0.4C78.2,23,77.8,22.8,77.6,22.1z"/>
	<path fill="#BE1E2D" d="M83,44.9c-0.3,0-0.7,0.1-1,0.1c0-0.1-0.1-0.1-0.1-0.2c0.2-0.3,0.4-0.5,0.6-0.9C82.7,44.3,82.9,44.6,83,44.9
		z"/>
	<path fill="#BE1E2D" d="M84.6,25.8c0-0.2,0-0.3-0.1-0.5c0.3-0.1,0.7-0.3,1-0.4C85.7,25.5,85.4,25.8,84.6,25.8z"/>
	<path fill="#BE1E2D" d="M96.8,30.6c-0.2-0.3-0.4-0.5-0.6-0.8c0.1-0.1,0.1-0.1,0.2-0.2c0.3,0.1,0.6,0.2,0.8,0.3
		c0.1,0-0.1,0.4-0.1,0.6C97,30.5,96.9,30.5,96.8,30.6z"/>
	<path fill="#BE1E2D" d="M152.3,68.8c-0.1-0.4-0.1-0.8,0.4-0.8c0.1,0,0.3,0.3,0.3,0.4C153.1,69.1,152.6,68.6,152.3,68.8z"/>
	<path fill="#BE1E2D" d="M178.5,75.8c0-0.6,0-1.1,0-1.7C178.9,74.3,178.9,74.7,178.5,75.8z"/>
	<path fill="#BE1E2D" d="M176.4,40.1c-0.4,0-0.9,0-1.3,0c0-0.1,0-0.1,0-0.2c0.4,0,0.9,0,1.3,0C176.4,40,176.4,40.1,176.4,40.1z"/>
	<path fill="#BE1E2D" d="M179.7,70.1c0,0.5-0.1,1-0.1,1.4c-0.1,0-0.1,0-0.2,0c0-0.5,0-1,0-1.4C179.6,70.1,179.7,70.1,179.7,70.1z"/>
	<path fill="#FFF200" d="M37.9,74.7c3.4,2.7,6.8,3.4,8.9,1.8c-3.1-3-6.1-6-9.3-9.1c-0.7,0.7-1.4,1.3-2.1,2c-0.8-0.8-1.6-1.6-2.5-2.4
		c0.5-0.5,0.9-0.9,1.4-1.3c1-1,2-1.9,3.1-2.9c0.2-0.2,0.5-0.3,0.7-0.3c1.3,0.3,2.5,0.6,3.9,1c-1,0.9-1.9,1.6-2.9,2.5
		c3.3,3.1,6.5,6.1,9.7,9.1c1.1-1.3,1.6-2.8,1.5-4.5c-0.3-3.4-2.2-6-4.7-8.1c-0.8-0.7-1.6-1.3-2.4-1.9c0.1,0,0.1-0.1,0.1-0.1
		c3.5,1.4,6.4,3.5,8.2,6.8c1.7,3,1.3,6-0.5,8.9c-0.1,0.2-0.3,0.4-0.4,0.6c0.8,0.8,1.6,1.6,2.5,2.3c0.4,0.4,0.4,0.7,0.1,1.1
		c-0.6,1-1.5,1.1-2.3,0.3c-0.6-0.6-1.2-1.2-1.8-1.8c-0.2-0.1-0.6-0.2-0.7-0.2c-3.7,2-7.8,0.9-10.4-1.7c-0.6-0.6-0.7-0.6-1,0.2
		c0,0.1-0.1,0.2-0.2,0.2c-0.9,0.3-1.4,1.1-2,1.8c-0.5,0.6-1,1.2-1.5,1.7c-0.6,0.5-1.2,0.5-1.6,0.1c-0.4-0.5-0.4-1.2,0.1-1.7
		c0.6-0.5,1.2-1,1.8-1.5c0.6-0.5,1.1-1.1,1.7-1.7c0.1-0.1,0.1-0.2,0.2-0.2c0.6-0.2,1.1-0.4,1.7-0.6C37.3,75.1,37.6,74.9,37.9,74.7z"
		/>
	<path fill="#BE1E2D" d="M45.5,58.9c-1-0.7-1.9-1.3-2.7-1.9c-0.3-0.2-0.5-0.2-0.8,0c-0.8,0.6-1.7,1.2-2.7,1.9
		c0.3-0.9,0.6-1.7,0.8-2.5c0.4-1.1,0.5-0.9-0.5-1.6c-0.7-0.5-1.4-1-2-1.6c0.9,0,1.8,0,2.7,0c0.7,0,1.1-0.1,1.2-0.9
		c0.2-0.9,0.6-1.7,0.9-2.7c0.4,1,0.7,1.8,0.9,2.7c0.2,0.7,0.5,0.9,1.2,0.8c0.9-0.1,1.8,0,2.8,0.1c-0.7,0.5-1.4,1-2.2,1.5
		c-0.6,0.4-0.8,0.7-0.5,1.4C45,57,45.2,57.9,45.5,58.9z M44.1,57.1c0,0,0.1-0.1,0.1-0.1c-0.1-0.4-0.2-0.7-0.4-1.1
		c-0.3-0.6-0.2-1,0.4-1.4c0.3-0.2,0.6-0.4,0.9-0.7c-0.6-0.1-1.1-0.2-1.6-0.1c-0.4,0-0.6-0.1-0.7-0.5c-0.1-0.5-0.3-0.9-0.6-1.6
		c-0.2,0.4-0.3,0.7-0.4,1c-0.5,1.3-0.1,1.1-1.5,1.1c-0.3,0-0.6,0-1,0c0.4,0.4,0.7,0.7,1.1,0.9c0.4,0.2,0.5,0.5,0.3,1
		c-0.2,0.4-0.3,0.9-0.4,1.3c0.6-0.2,1-0.6,1.5-0.8c0.2-0.1,0.5-0.1,0.7,0C43.2,56.5,43.6,56.8,44.1,57.1z"/>
	<path fill="#FFF200" d="M44.1,57.1c-0.4-0.3-0.9-0.6-1.3-0.9c-0.2-0.1-0.5-0.1-0.7,0c-0.5,0.2-0.9,0.6-1.5,0.8
		c0.1-0.4,0.2-0.9,0.4-1.3c0.2-0.5,0.1-0.7-0.3-1c-0.4-0.2-0.8-0.5-1.1-0.9c0.3,0,0.6,0,1,0c1.4,0,1,0.2,1.5-1.1
		c0.1-0.3,0.2-0.5,0.4-1c0.2,0.6,0.4,1.1,0.6,1.6c0.1,0.4,0.3,0.5,0.7,0.5c0.5,0,1,0,1.6,0.1c-0.3,0.2-0.6,0.5-0.9,0.7
		c-0.6,0.3-0.7,0.7-0.4,1.4c0.2,0.3,0.2,0.7,0.4,1.1C44.2,57.1,44.1,57.1,44.1,57.1z"/>
	<path fill="#283368" d="M89.2,46.2v5.5l3.5,2.6l-1.8,7V65l1.8,1.5v4.4v3.3l1.4,0.9l2.1,2.8v2l-2.1,3.4l2.6,1.2l3.7,3.6l-2.6,4.4
		v4.2l1.1-4.6l1.7-2.2l1.4-2.2v-1l-3.1-1.8L97.8,83l1.1-1.7l1.5-3.5l-1.6-1.9l-1-0.9v-3.5l4.2-3.1l-1.6-2l-2.6-3.1v-3.6l1-2.5
		l1.7-2.7v-1.8l-1.7-3l1.5-1.9l0.2-2L97.3,42l-3.2-4.6c0,0-0.3-1.2-1.4-1.2C91.6,36.2,83.7,40.2,89.2,46.2z"/>
	<polygon fill="#283368" points="91.7,64.2 85.7,68.5 84.4,71.3 81.3,77 76.6,80.4 81.9,77.1 85.1,71.5 86.3,68.9 91.7,65.6 
		88.4,70.9 92.7,65.4 	"/>
	<polygon fill="#283368" points="97.8,63.8 102,61.2 104.2,63.8 108.1,58.9 116.3,58.9 108,58.4 104.2,62.9 102,60.5 96.7,63.1 	"/>
	<polygon fill="#283368" points="94.6,74.5 90.8,75.3 90.8,79 86.7,79.9 83,91.6 87.3,80.4 91,79.6 88.8,90.3 91.7,79.5 91.5,76.1 
		95.2,75.3 	"/>
	<polygon fill="#754C29" points="0,132.2 8.3,125.4 179.9,125.4 187,132.2 	"/>
	<polygon fill="#754C29" points="187.6,0 179.3,6.8 7.7,6.8 0.6,0 	"/>
	<polygon fill="#754C29" points="134.9,180.8 128.1,178.5 128.1,129.8 134.9,127.7 	"/>
	<polygon fill="#754C29" points="61,180.8 67.8,178.5 67.8,129.8 61,127.7 	"/>
</g>
</svg>
