<?xml version="1.0" encoding="utf-8"?>
<!-- Generator: Adobe Illustrator 19.0.0, SVG Export Plug-In . SVG Version: 6.00 Build 0)  -->
<svg version="1.1" id="Layer_1" xmlns="http://www.w3.org/2000/svg" xmlns:xlink="http://www.w3.org/1999/xlink" x="0px" y="0px"
	 viewBox="-1030 875.9 298.7 205.5" style="enable-background:new -1030 875.9 298.7 205.5;" xml:space="preserve">
<style type="text/css">
	.st0{fill:#998675;}
	.st1{fill:#825439;}
	.st2{fill:#CD0014;}
	.st3{fill:#736357;}
	.st4{fill:#FFFFFF;}
	.st5{fill:#F1FFFF;}
	.st6{fill:none;}
	.st7{enable-background:new    ;}
	.st8{fill:#FFFDFD;}
</style>
<rect x="-1023" y="941.5" class="st0" width="284.3" height="139.6"/>
<rect x="-984.2" y="932" class="st1" width="2.2" height="149.4"/>
<rect x="-1004.5" y="932" class="st1" width="2.2" height="149.4"/>
<rect x="-961.3" y="932" class="st1" width="2.2" height="149.4"/>
<rect x="-938.5" y="932" class="st1" width="2.2" height="149.4"/>
<rect x="-915.6" y="932" class="st1" width="2.2" height="149.4"/>
<rect x="-892.8" y="932" class="st1" width="2.2" height="149.4"/>
<rect x="-869.9" y="932" class="st1" width="2.2" height="149.4"/>
<rect x="-847.1" y="932" class="st1" width="2.2" height="149.4"/>
<rect x="-824.2" y="932" class="st1" width="2.2" height="149.4"/>
<rect x="-801.4" y="932" class="st1" width="2.2" height="149.4"/>
<rect x="-778.5" y="932" class="st1" width="2.2" height="149.4"/>
<rect x="-755.7" y="932" class="st1" width="2.2" height="149.4"/>
<rect x="-1029.8" y="877.4" class="st2" width="298.5" height="137.9"/>
<rect x="-1024.3" y="881.5" class="st2" width="286.7" height="132.4"/>
<rect x="-1029.8" y="1013.9" class="st3" width="298.5" height="4.4"/>
<rect x="-1029.8" y="875.9" class="st3" width="298.5" height="4.7"/>
<rect x="-736.5" y="877.1" class="st3" width="5.3" height="140.9"/>
<path class="st4" d="M-786.1,986.3c-30.6,5.6-61.4,10.3-92.9,10.9c-25.5,0.5-50.7-1.6-75.4-6.9c-24.7-5.3-47.4-14.4-68.8-25.4
	c-0.4-0.2-0.4-0.4-1-0.6l-0.3,28.1c1.1,0.3,2.4,0.6,3.4,1c26.4,9.1,54,12.7,82.5,12.2c18.5-0.3,36.9-2,55.2-4.2
	c30.1-3.5,60-8.3,90.4-10c14.4-0.8,28.7-0.9,43,1.1c4.2,0.6,8.6,1.4,12.6,2c0.1-4.3,0.1-8.6,0.2-12.9
	C-754,980.9-770.1,983.4-786.1,986.3z"/>
<g>
	<g>
		<g id="KRyJ1s.tif_11_">
			<g>
				<path class="st5" d="M-930.7,917.6c0.5,0.2,1,0.3,1.5,0.6c1.1,0.6,1.7,1.7,1.8,2.9s-0.1,2.3-0.7,3.4c-0.4,0.8-0.8,1.5-1.3,2.2
					s-1.2,1.1-2.1,1.2c-0.8,0.1-1.4-0.4-1.5-1.2c-0.1-0.6,0-1.3,0.3-1.8c0.5-1,1.2-1.9,2.4-2.2c0.2-0.1,0.5-0.1,0.7-0.1
					c0.3,0,0.4-0.1,0.5-0.4c0.3-1.2-0.4-2.1-1.6-2.1c-0.6,0-1.3,0.1-1.9,0.3c-2.5,0.8-4.7,2.3-6.6,4.1c-6.2,5.7-11.1,12.3-14.6,20
					c-1.2,2.7-2.1,5.5-2.6,8.5c-0.3,2-0.4,4.1,0.1,6.1c0.6,2.6,2.2,4.3,4.6,5.3c2,0.8,4,1.1,6.1,1c3.4-0.3,6.7-1.2,10-2
					c3.8-0.9,7.6-1.9,11.4-2.7c3.6-0.8,7.2-1.2,10.9-1c4.2,0.2,8.1,1.5,11.6,4c1.9,1.4,3.9,2.8,5.6,4.5c0.3,0.3,0.6,0.6,0.8,1
					c-0.1-0.1-0.2-0.1-0.3-0.2c-3.4-2.2-7.2-3.5-11.3-3.4c-1.8,0-3.5,0.3-4.9,1.4c-0.7,0.6-1.3,1.3-2,1.9c0.1,0,0,0,0,0
					c-1.5-2.7-3.9-4.2-6.9-4.9c-2.1-0.5-4.2-0.6-6.3-0.4c-3.7,0.2-7.3,1.2-10.9,2.1c-3.3,0.8-6.7,1.6-10.1,2.2
					c-2.7,0.5-5.4,0.5-7.9-0.5c-3.9-1.4-6.3-4.2-7.2-8.3c-0.2-0.8-0.2-1.6-0.3-2.4c0-0.1-0.1-0.2-0.1-0.3c0-0.7,0-1.4,0-2.1
					c0.1-0.6,0.1-1.1,0.2-1.7c0.4-3.2,1.3-6.2,2.6-9.1c2.5-5.8,6.1-10.9,10.6-15.3c2.9-2.9,6-5.5,9.6-7.5c2-1.1,4.1-2.1,6.3-2.5
					c0.7-0.2,1.4-0.2,2.2-0.4C-931.7,917.6-931.2,917.6-930.7,917.6z"/>
				<path class="st5" d="M-928.2,939.7c0.3-0.1,0.6-0.1,0.8-0.2c0.7-0.4,1.5-0.7,2.2-1.2c1.5-1,2.7-2.2,3.9-3.5s2.6-2.5,4.2-3.5
					c1.3-0.9,2.7-1.4,4.4-1.3c2.1,0.1,3.5,1.8,3.2,3.9c-0.2,1.6-0.9,3.1-2,4.3c-0.4,0.4-0.9,0.8-1.4,1c-0.9,0.4-1.8-0.2-1.8-1.2
					c-0.1-1.7,1.5-3.5,3.3-3.7c0.1,0,0.3-0.1,0.3-0.2c0.3-0.6,0.1-1.7-1-1.7c-0.9,0-1.7,0.4-2.3,0.9c-1.3,1-2.5,2.2-3.5,3.5
					c-2.5,3.1-4.3,6.5-5.6,10.2c-0.3,0.9-0.5,1.9-0.3,2.8c0.2,1.5,1.4,2.3,2.8,1.9c1.3-0.3,2.4-1.1,3.4-2c2.1-1.9,4-4.1,5.7-6.4
					c1.6-2.1,3.2-4.3,4.8-6.4c1.6-2,3.4-3.8,5.5-5.3c1-0.7,2-1.3,3.2-1.5c1.3-0.2,2.4,0.2,3.2,1.3c0.1,0.1,0.1,0.1,0.2,0.2
					c0.1-0.1,0.1-0.1,0.1-0.1c0.3-0.7,0.8-0.8,1.5-0.8c1.2,0.1,2.3,0,3.5,0c0.1,0,0.3,0,0.5,0c-0.1,0.2-0.2,0.4-0.3,0.6
					c-3.4,5.8-6.7,11.7-10.1,17.5c-0.2,0.3-0.3,0.7-0.4,1.1c-0.1,0.5,0.3,0.8,0.8,0.6c0.4-0.1,0.7-0.4,1.1-0.6
					c1.2-0.9,2.3-2,3.3-3.2c0.9-1.1,1.8-2.2,2.6-3.3c0.2-0.3,0.4-0.4,0.8-0.4c0.4,0,0.7,0,1.1,0c-0.1,0.1-0.1,0.2-0.1,0.2
					c-2.1,3-4.3,6-6.9,8.6c-1.3,1.3-2.7,2.5-4.4,3.4c-0.8,0.4-1.6,0.6-2.4,0.4s-1.5-1-1.6-1.9c0-0.6,0-1.2-0.1-1.9
					c-0.1,0.1-0.2,0.2-0.2,0.3c-0.9,1-1.9,1.9-3.1,2.6c-0.8,0.5-1.6,0.8-2.5,0.9c-1.9,0.2-3.2-0.9-3.3-2.8c0-1.1,0.2-2.2,0.5-3.2
					c0-0.1,0.1-0.3,0-0.5c-0.1,0.1-0.2,0.2-0.4,0.3c-1.5,1.4-3,2.8-4.6,4.1c-1.3,1.1-2.8,1.8-4.5,2c-0.9,0.1-1.7,0.2-2.6-0.1
					c-1.8-0.6-2.6-2-2.9-3.8c-0.5-2.3,0.1-4.5,1.1-6.6c0.6-1.2,1.2-2.4,1.8-3.6c0.1-0.1,0.1-0.3,0.2-0.4c-0.7,0.2-1.2,0.3-1.8,0.4
					c-0.5,0.1-0.8,0.4-1.1,0.8c-1.2,1.9-2.3,3.9-3.7,5.7c-1.8,2.4-3.9,4.6-6.5,6.3c-1.1,0.7-2.2,1.2-3.5,1.4
					c-1.4,0.1-2.7-0.6-3.3-1.9c-0.5-1.1-0.5-2.2-0.4-3.4c0.3-3.4,1.7-6.4,3.5-9.2c2.2-3.4,4.8-6.5,8.1-8.8c1.4-1,2.8-1.8,4.5-2.1
					c2.5-0.5,4.2,0.9,4.2,3.5c0,1.4-0.3,2.8-0.8,4.1C-927.6,938.4-927.9,939-928.2,939.7z M-909.2,949.7c0.1,0.4,0.2,0.7,0.5,0.9
					s0.7,0.2,1.1,0c0.8-0.5,1.6-1.1,2.2-1.8c0.8-1.1,1.7-2.2,2.4-3.4c2.3-3.9,4.6-7.9,6.8-11.8c0.2-0.4,0.1-0.8-0.4-1
					c-0.4-0.2-0.8-0.1-1.2,0.1c-0.8,0.3-1.5,0.8-2,1.5c-1.6,2-3.2,4-4.8,6.1c-1.7,2.3-3.1,4.7-4.1,7.4
					C-908.9,948.4-909,949-909.2,949.7z M-935.5,937.9c-0.1,0.1-0.2,0.2-0.2,0.3c-0.8,1.2-1.6,2.4-2.3,3.6c-1.1,1.8-2,3.6-2.4,5.6
					c-0.1,0.6-0.2,1.2-0.1,1.8c0.1,1.1,0.9,1.6,2,1.3c0.3-0.1,0.5-0.2,0.8-0.3c1-0.6,1.8-1.4,2.6-2.2c1.7-1.8,2.9-3.9,4.1-6
					c0.1-0.1,0.1-0.3,0.2-0.5C-932.9,940.8-934.5,939.8-935.5,937.9z M-928.4,934.6c0-0.2,0-0.4,0-0.6c-0.2-1.4-0.8-1.9-2.3-1.5
					c-0.2,0.1-0.5,0.2-0.7,0.3c-1,0.7-1.8,1.5-2.2,2.7c-0.3,1-0.3,1.9,0.4,2.7c0.7,0.9,1.7,1.4,2.9,1.6c0.2,0,0.4-0.1,0.4-0.3
					c0.3-0.6,0.6-1.3,0.8-1.9C-928.6,936.6-928.4,935.6-928.4,934.6z"/>
			</g>
		</g>
		<g id="KRyJ1s.tif_10_">
			<g>
				<path class="st5" d="M-823.6,927.4c0.4-0.7,0.7-1.4,1-2.1c0.3-0.7,0.6-1.4,0.6-2.2c0-0.6-0.2-0.8-0.8-0.6
					c-0.5,0.2-1,0.5-1.5,0.8c-1.9,1.5-3.7,3.3-5.4,5.1c-3.4,3.9-6.3,8.1-9,12.6c-1.7,2.8-3.2,5.6-4.8,8.4c-0.1,0.3-0.3,0.5-0.3,0.9
					c0.2-0.1,0.4-0.2,0.6-0.3c1-0.8,2.1-1.6,3.1-2.5c4.4-3.9,8.4-8.2,11.9-12.9c0.3-0.5,0.7-0.8,1.3-0.7c0.3,0,0.5-0.1,0.9-0.1
					c-0.2,0.3-0.4,0.6-0.5,0.8c-2.3,3.2-4.9,6.2-7.7,9.1c-3.3,3.5-6.9,6.7-10.9,9.5c-0.1,0.1-0.2,0.2-0.3,0.3
					c-1.2,2.7-2.3,5.3-2.9,8.2c-0.1,0.6-0.1,1.2,0,1.7c0.1,0.9,0.9,1.2,1.6,0.7c0.7-0.6,1.4-1.2,2-1.9c1.1-1.4,2.1-2.9,3-4.4
					c1.7-2.6,3.3-5.1,5.3-7.4c1.8-2.1,3.8-4.1,6.2-5.5c1.1-0.6,2.2-0.9,3.4-0.7c0.8,0.1,1.3,0.7,1.7,1.3c0.1,0.1,0.2,0.3,0.3,0.5
					c0.2-0.4,0.4-0.7,0.6-1c0.1-0.1,0.2-0.2,0.3-0.2c1.5,0,3,0,4.5,0h0.1c-0.1,0.1-0.1,0.3-0.2,0.4c-2.3,4-4.5,8.1-6.8,12.1
					c-0.9,1.6-1.8,3.1-2.7,4.7c-0.2,0.4-0.4,0.9-0.6,1.3c-0.1,0.3-0.2,0.6,0.1,0.8c0.3,0.2,0.6,0.1,0.9-0.1c1.3-0.8,2.4-1.8,3.4-3
					c1.1-1.5,2.2-3,3.2-4.5c0.1-0.2,0.3-0.3,0.6-0.3c0.4,0,0.8,0,1.2,0c-0.2,0.3-0.3,0.5-0.5,0.8c-1.9,2.9-3.9,5.7-6.3,8.2
					c-1.4,1.4-3,2.6-4.8,3.4c-0.5,0.2-1,0.3-1.5,0.3c-1,0-1.7-0.5-1.9-1.4c-0.1-0.6-0.1-1.3-0.1-2c0-0.1,0-0.3,0.1-0.4
					c0,0-0.1,0-0.1-0.1c-0.3,0.3-0.5,0.6-0.8,0.8c-1.1,1.1-2.3,2-3.7,2.7c-0.7,0.3-1.4,0.5-2.1,0.4c-1.3-0.2-2.1-1.1-2.3-2.6
					c-0.1-0.6,0-1.2,0-1.8c0-0.2,0-0.3,0-0.6c-0.2,0.2-0.3,0.3-0.4,0.4c-1.1,1.3-2.2,2.5-3.6,3.4c-0.6,0.4-1.2,0.7-1.9,1
					c-1.5,0.5-2.7-0.1-3.5-1.4c-0.4-0.8-0.5-1.6-0.5-2.5c0.1-2,0.6-3.8,1.2-5.7c0.4-1.1,0.7-2.2,1.1-3.4c-0.2,0-0.4,0.1-0.6,0.1
					c-0.6,0.1-1.2,0.2-1.8,0.2c-0.3,0-0.4,0.2-0.6,0.4c-1.2,1.9-2.3,3.7-3.6,5.5c-1.7,2.4-3.8,4.5-6.4,6c-0.9,0.5-1.8,0.9-2.8,1
					c-1.9,0.2-2.9-1.1-3.2-2.4c-0.3-1.3-0.2-2.7,0.1-4c0.6-2.9,1.9-5.5,3.5-7.9c1.7-2.7,3.6-5.2,6-7.2c1.4-1.2,3-2.3,4.8-2.9
					c0.7-0.2,1.4-0.3,2.1-0.2c1.4,0.1,2.1,1.2,2.3,2.2c0.3,1.5,0.1,2.9-0.4,4.3c-0.4,1.1-0.9,2.2-1.3,3.4c-0.1,0.1-0.1,0.2-0.2,0.4
					c1,0,1.8-0.2,2.6-0.6c0.1-0.1,0.2-0.2,0.2-0.4c2.4-5,5.1-9.9,8.3-14.6c3.9-5.7,8.3-10.9,13.7-15.2c1.3-1,2.6-2,4.1-2.7
					c0.7-0.3,1.5-0.5,2.4-0.5c1,0.1,1.6,0.6,1.6,1.6c0.1,1.3-0.2,2.5-0.8,3.6c-0.6,1.3-0.7,1.3-2,1.5
					C-823.4,927.4-823.5,927.4-823.6,927.4z M-838.1,963.5c0,0.4,0.5,0.9,1.3,0.6c0.3-0.1,0.7-0.4,1-0.6c1-0.7,1.6-1.7,2.3-2.6
					c1.8-2.6,3.4-5.3,4.9-8.1c0.9-1.6,1.9-3.2,2.8-4.8c0.2-0.3,0.3-0.7,0-1c-0.3-0.4-0.6-0.4-1-0.3c-0.4,0.2-0.9,0.4-1.3,0.7
					c-0.5,0.4-1,0.8-1.4,1.3c-3.3,3.3-5.8,7.2-7.8,11.4C-837.8,961-838.1,962.1-838.1,963.5z M-859.9,951.9c-0.7,1.1-1.4,2-2,3
					c-1.1,1.8-2.1,3.6-2.7,5.7c-0.2,0.7-0.3,1.4-0.2,2.2c0.2,0.9,0.9,1.4,1.8,1.2s1.6-0.8,2.2-1.4c2-1.9,3.5-4.2,4.8-6.6
					c0.1-0.1,0.1-0.3,0.2-0.4C-857.5,954.8-859,953.8-859.9,951.9z M-853,948.4c0-0.2,0-0.4,0-0.6c-0.1-0.9-0.6-1.5-1.4-1.4
					c-0.3,0-0.7,0.1-1,0.2c-0.9,0.5-1.6,1.1-2.2,1.9c-1.4,2.3-0.1,4.9,2.3,5.7c0.1,0,0.3-0.1,0.4-0.2c0.2-0.4,0.5-0.8,0.7-1.3
					C-853.6,951.3-853,950-853,948.4z"/>
				<path class="st5" d="M-833.5,926.8c-1.2,1.3-2.3,2.5-3.5,3.7c-0.1,0.1-0.3,0.1-0.4,0c-0.7-0.4-1.5-0.9-2.2-1.3
					c-2.2-1.4-4.4-2.9-6.7-4.2c-1.7-1-3.6-1.8-5.7-2.1c-0.6-0.1-1.3-0.1-1.9,0.1c-0.2,0.1-0.3,0.2-0.3,0.4c0.2,2.3-0.4,4.5-1.3,6.6
					c-1.2,3-3,5.5-5.4,7.7c-1,0.9-2.1,1.6-3.4,2c-1.8,0.5-3.1-0.4-3.4-2.2c-0.2-1.2,0.2-2.3,0.6-3.4c1.5-3.7,3.8-6.7,6.8-9.2
					c1.1-0.9,2.2-1.6,3.3-2.4c0.1-0.1,0.1-0.1,0.3-0.2c-0.7-0.3-1.4-0.3-2-0.2c-1,0.1-1.8,0.6-2.7,1.1c-3.3,1.8-6.1,4.1-8.7,6.8
					c-4.7,5-8.8,10.4-12,16.4c-1.8,3.3-3.2,6.8-3.8,10.5c-0.3,1.5-0.5,3.1-0.1,4.6c0.4,1.6,1.3,2.8,3,3.3c1,0.3,2,0.1,3-0.4
					c1.7-0.8,3.1-1.9,4.4-3.3c2.5-2.6,4.5-5.6,5.7-9.1c0.4-1.3,0.8-2.7,0.7-4.1c-0.1-1.3-0.9-1.9-2.1-1.4c-0.9,0.4-1.6,1.1-2.2,1.8
					c-1.3,1.7-2.1,3.6-2.6,5.7c0,0.1-0.1,0.3-0.3,0.4c-2.3,1.1-4.2,2.6-5.9,4.5c-0.1,0.1-0.1,0.1-0.2,0.2c0.6-4.2,1.8-8,4.5-11.2
					c1.6-1.9,3.5-3.3,6-3.8c0.6-0.1,1.3-0.3,1.9-0.1c1.1,0.3,1.7,1,2.1,2c0.4,1.4,0.4,2.7,0.1,4.1c-0.6,3.2-2.1,6-3.8,8.7
					c-2.2,3.4-5,6.2-8.6,8.3c-1.5,0.9-3.1,1.4-4.9,1.4c-2.8,0.1-4.8-1.2-6.2-3.5c-1.2-2-1.5-4.2-1.3-6.5c0.2-3.6,1.5-6.9,3-10.2
					c4.2-8.7,9.9-16.2,17.5-22.3c3.2-2.6,6.8-4.6,10.8-5.8c1.5-0.4,2.9-0.5,4.4-0.1c0.7,0.2,1.3,0.5,1.7,1c0.2,0.2,0.3,0.2,0.5,0.1
					c1.2-0.4,2.4-0.8,3.6-1.1c3-0.6,5.9-0.2,8.6,1.2C-839.5,923.3-836.5,925-833.5,926.8L-833.5,926.8z M-855.6,923.7
					c-0.4,0.2-0.7,0.4-1,0.6c-3.8,2.3-6.6,5.6-8.7,9.6c-0.5,0.9-0.8,1.8-0.9,2.8c-0.1,1.3,0.9,2.1,2.1,1.5c0.5-0.2,1-0.5,1.4-0.8
					c4.1-3.2,6.6-7.4,7.1-12.6C-855.5,924.5-855.6,924.1-855.6,923.7z"/>
				<path class="st5" d="M-810.1,920.3c-0.7,1.4-1.5,2.7-2.4,3.9c-3.1,3.9-6.8,6.7-11.6,8.2c-2.4,0.8-4.8,1-7.3,0.5c0,0-0.1,0-0.2,0
					c-0.1,0-0.2-0.1-0.4-0.1c0.1-0.1,0.1-0.2,0.2-0.3c1-1.2,2-2.4,3-3.7c0.1-0.1,0.3-0.2,0.4-0.2c2.9,0.3,5.6-0.2,8.2-1.3
					c3.8-1.6,7-3.9,9.8-6.8C-810.2,920.4-810.1,920.4-810.1,920.3z"/>
			</g>
		</g>
		<path class="st5" d="M-880.6,930.3c-0.5,0.6-0.9,1.1-1.3,1.6c-0.5,0.6-1,1.2-1.4,1.8c-0.1,0.1-0.2,0.2-0.4,0.2c-1.6,0-3.2,0-4.7,0
			h-0.1l0.1-0.1c0.8-1.1,1.7-2.1,2.6-3.2c0.1-0.1,0.2-0.2,0.4-0.2C-884,930.3-882.3,930.3-880.6,930.3z"/>
	</g>
</g>
<rect x="-1030" y="876.8" class="st3" width="5.3" height="140.6"/>
<g>
	<path class="st4" d="M-912,911.6l1.5-1.8c0.9,0.7,2,1,2.9,1c0.5,0,0.7-0.1,0.7-0.4l0,0c0-0.2-0.3-0.4-1.2-0.6
		c-1.9-0.4-3.5-0.9-3.5-2.7l0,0c0-1.6,1.2-2.8,3.6-2.8c1.6,0,2.8,0.4,3.8,1.2l-1.4,1.9c-0.8-0.6-1.7-0.8-2.5-0.8
		c-0.4,0-0.6,0.1-0.6,0.3l0,0c0,0.2,0.2,0.4,1.1,0.5c2.1,0.4,3.6,1,3.6,2.7l0,0c0,1.8-1.5,2.8-3.7,2.8
		C-909.4,913-910.9,912.5-912,911.6z"/>
	<path class="st4" d="M-903.3,904.5h2.8v8.4h-2.8V904.5z"/>
	<path class="st4" d="M-899.5,904.5h7.2v2.3h-4.4v0.9h4.1v2h-4.1v0.9h4.5v2.3h-7.2L-899.5,904.5L-899.5,904.5z"/>
	<path class="st4" d="M-891.5,904.5h2.9l1.8,3l1.8-3h2.9v8.4h-2.8v-4.2l-1.9,3l0,0l-1.9-3v4.2h-2.7L-891.5,904.5L-891.5,904.5z"/>
	<path class="st4" d="M-881.1,904.5h3.8c2.2,0,3.8,1,3.8,3l0,0c0,2-1.5,3.1-3.8,3.1h-0.9v2.3h-2.8L-881.1,904.5L-881.1,904.5z
		 M-877.6,908.6c0.7,0,1.2-0.3,1.2-0.9l0,0c0-0.6-0.4-0.9-1.2-0.9h-0.8v1.9L-877.6,908.6L-877.6,908.6z"/>
	<path class="st4" d="M-873,904.5h4.1c1.5,0,2.4,0.4,3,1c0.5,0.5,0.8,1.1,0.8,2l0,0c0,1.2-0.6,2.1-1.7,2.6l2,2.9h-3.2l-1.6-2.4l0,0
		h-0.6v2.4h-2.8V904.5z M-869,908.4c0.7,0,1.1-0.3,1.1-0.8l0,0c0-0.5-0.4-0.8-1.1-0.8h-1.2v1.6H-869z"/>
	<path class="st4" d="M-864.4,904.5h7.2v2.3h-4.4v0.9h4.1v2h-4.1v0.9h4.5v2.3h-7.2v-8.4H-864.4z"/>
</g>
<rect x="-825.6" y="1002.2" class="st6" width="88.4" height="11.4"/>
<g class="st7">
	<path class="st8" d="M-837,1007.9l0.7-0.8c1,0.9,1.9,1.3,3.2,1.3c1.2,0,2.1-0.7,2.1-1.6v0c0-0.9-0.5-1.4-2.4-1.8
		c-2.1-0.5-3.1-1.2-3.1-2.7v0c0-1.5,1.3-2.5,3.1-2.5c1.4,0,2.3,0.4,3.3,1.1l-0.6,0.8c-0.9-0.7-1.7-1-2.7-1c-1.2,0-2,0.7-2,1.5v0
		c0,0.9,0.5,1.4,2.5,1.8c2.1,0.5,3,1.2,3,2.6v0c0,1.6-1.3,2.6-3.2,2.6C-834.6,1009.4-835.9,1008.9-837,1007.9z"/>
	<path class="st8" d="M-827.9,1000h1.1v8.3h5.2v1h-6.3V1000z"/>
	<path class="st8" d="M-820.6,1004.7L-820.6,1004.7c0-2.6,1.9-4.8,4.8-4.8c2.8,0,4.7,2.2,4.7,4.8c0,0,0,0,0,0c0,2.6-1.9,4.8-4.8,4.8
		C-818.7,1009.4-820.6,1007.2-820.6,1004.7z M-812.2,1004.7L-812.2,1004.7c0-2.1-1.5-3.9-3.7-3.9s-3.6,1.7-3.6,3.8v0
		c0,2.1,1.5,3.8,3.7,3.8S-812.2,1006.8-812.2,1004.7z"/>
	<path class="st8" d="M-809.3,1004.7L-809.3,1004.7c0-2.6,1.9-4.8,4.7-4.8c1.6,0,2.5,0.5,3.5,1.2l-0.7,0.8c-0.7-0.6-1.5-1.1-2.8-1.1
		c-2.1,0-3.5,1.7-3.5,3.8v0c0,2.2,1.4,3.9,3.7,3.9c1.1,0,2-0.4,2.7-0.9v-2.3h-2.8v-0.9h3.8v3.7c-0.9,0.8-2.2,1.4-3.7,1.4
		C-807.5,1009.4-809.3,1007.3-809.3,1004.7z"/>
	<path class="st8" d="M-795,999.9h1l4.2,9.4h-1.1l-1.1-2.5h-5.1l-1.1,2.5h-1.1L-795,999.9z M-792.4,1005.9l-2.1-4.7l-2.1,4.7H-792.4
		z"/>
	<path class="st8" d="M-788,1000h1l5.9,7.5v-7.5h1v9.3h-0.8l-6-7.6v7.6h-1V1000z"/>
	<path class="st8" d="M-772.4,1001l-1.8,0.5l-0.3-0.9l2.3-0.8h0.8v9.4h-1V1001z"/>
	<path class="st8" d="M-769,1008.3l0.6-0.8c0.8,0.7,1.5,1,2.3,1c1.7,0,2.8-1.7,2.8-4.1c-0.5,0.8-1.3,1.5-2.6,1.5
		c-1.9,0-3.2-1.2-3.2-2.9v0c0-1.8,1.4-3.2,3.3-3.2c1.1,0,1.8,0.4,2.4,1c0.7,0.7,1.2,1.7,1.2,3.6v0c0,2.9-1.6,5-3.9,5
		C-767.3,1009.4-768.2,1008.9-769,1008.3z M-763.5,1002.9L-763.5,1002.9c0-1.2-1-2.1-2.4-2.1c-1.4,0-2.2,1-2.2,2.2v0
		c0,1.2,0.9,2,2.3,2C-764.4,1005-763.5,1004-763.5,1002.9z"/>
	<path class="st8" d="M-760.4,1008.3l0.6-0.8c0.8,0.7,1.5,1,2.3,1c1.7,0,2.8-1.7,2.8-4.1c-0.5,0.8-1.3,1.5-2.6,1.5
		c-1.9,0-3.2-1.2-3.2-2.9v0c0-1.8,1.4-3.2,3.3-3.2c1.1,0,1.8,0.4,2.4,1c0.7,0.7,1.2,1.7,1.2,3.6v0c0,2.9-1.6,5-3.9,5
		C-758.7,1009.4-759.6,1008.9-760.4,1008.3z M-754.9,1002.9L-754.9,1002.9c0-1.2-1-2.1-2.4-2.1c-1.4,0-2.2,1-2.2,2.2v0
		c0,1.2,0.9,2,2.3,2C-755.8,1005-754.9,1004-754.9,1002.9z"/>
	<path class="st8" d="M-752,1004.7L-752,1004.7c0-2.6,1.6-4.8,3.9-4.8s3.9,2.2,3.9,4.8v0c0,2.6-1.5,4.8-3.9,4.8
		C-750.5,1009.4-752,1007.3-752,1004.7z M-745.3,1004.7L-745.3,1004.7c0-2.1-1.1-3.9-2.8-3.9c-1.7,0-2.8,1.8-2.8,3.8v0
		c0,2,1.1,3.9,2.9,3.9S-745.3,1006.7-745.3,1004.7z"/>
</g>
</svg>
