<?xml version="1.0" encoding="utf-8"?>
<!-- Generator: Adobe Illustrator 18.0.0, SVG Export Plug-In . SVG Version: 6.00 Build 0)  -->
<!DOCTYPE svg PUBLIC "-//W3C//DTD SVG 1.1//EN" "http://www.w3.org/Graphics/SVG/1.1/DTD/svg11.dtd">
<svg version="1.1" id="Layer_1" xmlns="http://www.w3.org/2000/svg" xmlns:xlink="http://www.w3.org/1999/xlink" x="0px" y="0px"
	 viewBox="0 0 390 257.1" enable-background="new 0 0 390 257.1" xml:space="preserve">
<g>
	<polygon fill="#90C750" points="352.2,144.9 371.5,159.3 355.7,161.7 341.1,151.6 330.9,153.8 328.2,148.9 338.3,142.7 	"/>
	<circle fill="#959F97" cx="339.8" cy="106.3" r="11.1"/>
	<circle fill="#959F97" cx="330.1" cy="75.2" r="14.3"/>
	<path fill="#FFFFFF" d="M344.4,75.2c0,0,5.8,18.4,6.3,27.8c0,0-11.6,5.4-20.3,5L322,83.7L344.4,75.2z"/>
	<path fill="#FFFFFF" d="M330.3,113c0,0,9.7-2.2,20.1-3c0,0,1.9,19.7,1.9,34.9c0,0-5.6,4.5-13-0.4C331.8,139.7,330.3,113,330.3,113z
		"/>
	<path fill="#90C750" d="M331.2,116.9c0,0,10.9-2.5,15.1,3c4.2,5.4,5,3,5,3l-0.9-12.9c0,0-16.2,1.2-20.1,3
		C330.3,113,329.2,115.9,331.2,116.9z"/>
	<polygon fill="#90C750" points="234.1,148.6 214.8,163 230.6,165.5 245.2,155.3 255.4,157.5 258.1,152.6 247.9,146.4 	"/>
	<circle fill="#959F97" cx="246.5" cy="110" r="11.1"/>
	<circle fill="#959F97" cx="256.2" cy="79" r="14.3"/>
	<path fill="#FFFFFF" d="M241.9,79c0,0-5.8,18.4-6.3,27.8c0,0,11.6,5.4,20.3,5l8.4-24.3L241.9,79z"/>
	<polygon fill="#959F97" points="226.2,182 218.5,186.3 231,193 237.1,185.5 	"/>
	<path fill="#FFFFFF" d="M241.7,206c0,0,0,3.9-5.8,10.1c0,0-12-18.2-25.9-25.1l5.8-7.3c0,0,17.4,3.9,26.7,13.1L241.7,206z"/>
	<path fill="#90C750" d="M227.9,180.1l-5.2,3.7c0,0,8.9,0,8.2,9.2c0,0-3.6,4.9,0,9.2c1.4,3.1,7.2,2.4,7.2,2.4l5.4,4.8l1.9-3.7
		l0.6-19C246,186.6,237.1,174.7,227.9,180.1z"/>
	<circle fill="#959F97" cx="266.7" cy="160.6" r="10.2"/>
	<circle fill="#959F97" cx="324.7" cy="162.3" r="10.2"/>
	<path fill="#FFFFFF" d="M269,133.8c0,0,8.9,18.3,28.2,16.3c19.3-2,24.3-14.9,24.3-14.9S272,115.9,269,133.8z"/>
	<path fill="#333333" d="M319.9,113.7v14.9c0,0-32.4,11.1-50.2-3.2l2.1-17.8L319.9,113.7z"/>
	<path fill="#FFFFFF" d="M338.3,73.4c0,0-5.2,32-16.1,37.3c-11.6,5.6-27.8,10.6-47,2.6c-19.2-7.9-24.7-40-24.7-40L338.3,73.4z"/>
	<path fill="#90C750" d="M257.1,62.4c-5.3,2-8.4,7-7.5,12.1c1.2,6.9,4.1,15.9,10.8,19.6c11.5,6.4,40.1,18.8,71.5-3.5
		c5.1-4.3,7.1-16.8,7.8-25.7c0.4-5-4.2-9.1-9.7-8.6L257.1,62.4L257.1,62.4z"/>
	<path fill="#959F97" d="M328.7,56c0,0-28.7,35.2-68.4,6.4C260.3,62.4,269.7,55.2,328.7,56z"/>
	<path fill="#EFAA31" d="M145.4,66.6c0,0-7.9,3.2-9.4,27.7c-1.5,24.5,13.9-16.8,11.4-24.8"/>
	<path fill="#5E89AE" d="M149.9,150.8l-57,33.4L52,232.6c0,0-14.1,2.2-14.1-8.9l51.3-46.1l35.7-25.3l-7.4-3L78,173.9l-35.7,31.9
		c0,0-12.6,0-9.7-13.4l42.4-28.2l38.6-20.8c0,0,3-5.9,3.5-5.9C121.9,137.5,147.4,144.9,149.9,150.8z"/>
	<path fill="#EFAA31" d="M162.7,66.6c0,0,20.3,29.7-5,71.3c0,0-25.3,5-33.2-9.9c0,0,21.8-24.3,20.8-61.4
		C145.4,66.6,156.3,56.7,162.7,66.6z"/>
	<circle fill="#E0D8E3" cx="152.3" cy="94.9" r="4.5"/>
	<circle fill="#E0D8E3" cx="147.9" cy="111.2" r="4.5"/>
	<path fill="#E0D8E3" d="M156.3,79c0,0-4.5,28.7-1.5,46.6c3,17.8,5.9,7.9,5.9,7.9s19.8-37.1,2-66.9L156.3,79z"/>
	<path fill="#201D16" d="M167.7,116.2c0,0-5-4.5-5-1c0,3.5-4,2.5-4,7.4s4,9.4,4,9.4S166.7,122.6,167.7,116.2z"/>
	<path fill="#201D16" d="M154.8,98.8c0,0,3.5-6.9,5.4-3.5c2,3.5-0.5,5.4,1,5.9c1.5,0.5-1,9.4-6.9,4L154.8,98.8z"/>
	<path fill="#7A1A1C" d="M147.4,69.6c0,0,0,9.9,5.9,17.3c0,0,5.9-9.9,9.4-20.3C162.7,66.6,148.9,64.2,147.4,69.6z"/>
	<path fill="#201D16" d="M158.8,74.6c0,0-3,10.4,1,9.9s1-5,4-4.5c3,0.5,4.5-2.5,4.5-2.5l-5.4-10.9L158.8,74.6z"/>
	<polygon fill="#EAB12C" points="160.7,96.1 154.9,98 157,92.2 153.4,87.2 159.5,87.4 163.1,82.5 164.9,88.4 170.7,90.3 165.6,93.7 
		165.6,99.9 	"/>
	<path fill="#E0D8E3" d="M145.4,66.6c0,0,3.5,29.2-10.9,50c-5,5.9-9.9,11.4-9.9,11.4s9.1-21,12.9-31.2
		C142.4,83.5,145.4,66.6,145.4,66.6z"/>
	<path fill="#201D16" d="M131,121.1c0,0-0.5-4.5,1.5-5.9c2-1.5,4.5,0,4.5,0L131,121.1z"/>
	<path fill="#201D16" d="M142.9,74.1c0,0,1,10.9,2,12.4l2.5-13.4l0.5-5.9l-2.5-0.5L142.9,74.1z"/>
	<path fill="#B14D26" d="M178.1,25.5c0,0-1.5-19.3-7.9-20.8s-16.3-3-17.3,3S178.1,25.5,178.1,25.5z"/>
	<path fill="#642E19" d="M140,47c0,0-24.5-16.3-21.1-22.5S140-0.7,152.3,0c12.2,0.7,29.3,22.5,32,30.6C187,38.8,178.8,53.1,140,47z"
		/>
	<path fill="#FDDEC6" d="M169.4,36.1c0,8.4-6.8,33.8-15.2,33.8S139,44.5,139,36.1s8.4-15.2,15.2-15.2
		C162.6,20.8,169.4,27.6,169.4,36.1z"/>
	<path fill="#FDDEC6" d="M169.4,36.1c0,8.4,1.5,33.8-15.2,33.8C139,69.9,139,44.5,139,36.1"/>
	<path fill="#401814" d="M138.2,33.5c0,0,3.5,5.2,9.4,1.5c5.9-3.7,15.9-8.9,20.3-6.7C167.9,28.3,151.6,6.5,138.2,33.5z"/>
	<path fill="#753617" d="M157.8,138l-7.9,12.9c0,0-15.4-4-32.7-13.4l7.4-9.4C124.6,128.1,148.9,140,157.8,138z"/>
	
		<ellipse transform="matrix(0.9377 0.3473 -0.3473 0.9377 56.7617 -38.3848)" fill="#DC9B4B" cx="135.5" cy="139.2" rx="8" ry="4.3"/>
	<path fill="#863E1D" d="M40.2,219.9l-23.8,19.3L0.8,224.4l19.3,32.7L52,232.6C52,232.6,52.8,216.2,40.2,219.9z"/>
	<path fill="#863E1D" d="M37.1,189.4l-22.4,18.2L0,193.6l18.2,30.8l30.1-23.1C48.4,201.3,49.1,185.9,37.1,189.4z"/>
	<path fill="#EFAA31" d="M168.2,77.5l18.3,64.4l33.4,3l-7.4,10.4l-31.9-3L166.5,110C166.5,110,169.2,91.2,168.2,77.5z"/>
	<path fill="#FDDEC6" d="M212.5,155.3l22.3,3c0,0-3-8.2-16.3-11.1L212.5,155.3z"/>
	<path fill="#3C4199" d="M313.6,67.6L313.6,67.6c0,0-20.2,12.1-41.6,1.9c5.2-12.1,8.4-17.2,8.4-17.2l20.9,2
		C303.7,57.2,306.1,62.6,313.6,67.6z"/>
	<path fill="#FCD2B1" d="M311.3,49.1c0,10.3-4.7,18.6-14.1,17.8c-11.1-0.9-18.8-9.3-17.1-18.6c1.9-10.1,2.2-26,17.1-25.3
		S311.3,38.8,311.3,49.1z"/>
	<path fill="#3C4199" d="M284.6,63.9c0,0-3.5-28.2,3-35.2c3-3.5,5,1,10.4,0c5.4-1,7.4-2.5,11.4,2c0,0-2.5-9.9-15.9-9.4
		c-12.9,0.5-15.9,17.8-12.9,36.2C283.6,75.8,284.6,63.9,284.6,63.9z"/>
	<circle fill="#EB2027" cx="318" cy="82.7" r="5.4"/>
	<path fill="#29A9E1" d="M268.1,88.7h-1.7c-0.4,0-0.6-0.3-0.6-0.6V75c0-0.4,0.3-0.6,0.6-0.6h1.7c0.4,0,0.6,0.3,0.6,0.6V88
		C268.7,88.4,268.5,88.7,268.1,88.7z"/>
	<path fill="#016937" d="M273.6,91.7h-1.7c-0.4,0-0.6-0.3-0.6-0.6V77.9c0-0.4,0.3-0.6,0.6-0.6h1.7c0.4,0,0.6,0.3,0.6,0.6V91
		C274.2,91.4,273.9,91.7,273.6,91.7z"/>
	<path fill="#EB2027" d="M279,94.6h-1.7c-0.4,0-0.6-0.3-0.6-0.6V80.9c0-0.4,0.3-0.6,0.6-0.6h1.7c0.4,0,0.6,0.3,0.6,0.6V94
		C279.6,94.3,279.4,94.6,279,94.6z"/>
	<path fill="#CCCBCB" d="M258.8,64.4c0,0,35.2,33.7,72.8-5.4l-3-3c0,0-30.2,34.7-68.4,6.4L258.8,64.4z"/>
	<path fill="#3C4199" d="M259.8,97.6c0,0,0,12.9,10.1,17.8s52.1,12.2,58.1-10.2c0,0-10.5,10.9-24.2,10.9
		C290.1,116.1,272.8,119.8,259.8,97.6z"/>
	<path fill="#90C750" d="M269.5,125.3c0,0-0.5,5.9-0.5,8.4c17.3,6.4,29.2,8.9,52.5,1.5l-2-6.7C319.5,128.6,288.3,137.2,269.5,125.3z
		"/>
	<path fill="#FFFFFF" d="M296.2,146.1l19.3,22c0,0,18.6,5,17-12.8l-17.8-16.6L296.2,146.1z"/>
	<path fill="#FFFFFF" d="M293.8,144.3l-19.3,22c0,0-18.6,5-17-12.8l17.8-16.6L293.8,144.3z"/>
	<path fill="#FFFFFF" d="M255.6,156.7c0,0-0.3,8.5,7.2,12.2c0,0,4,0,2.3,6.8l-19.8,29.9l-4.6-3.1c0,0,6.3-10.9-4.3-13.6
		c0,0-0.3-8.5-8.6-8.8l18.1-12.9C246.1,167.2,245.7,156,255.6,156.7z"/>
	<path fill="#90C750" d="M215.6,194.8c0,0,5-7-1.2-12.4c-6.2-5.4-13.9-0.8-15.5,5.8C199,188.2,210.6,189.8,215.6,194.8z"/>
	<path fill="#9385BF" d="M199,188.2c0,0-4.4,7.7,6.4,18.2c5,5.8,14.3,12.9,18.9,14.3c6.6,1.9,11.6-4.6,11.6-4.6
		S223.5,187.1,199,188.2z"/>
	<polygon fill="#959F97" points="362.7,182.6 370.4,186.9 358,193.6 351.9,186.1 	"/>
	<path fill="#FFFFFF" d="M347.2,206.6c0,0,0,3.9,5.8,10.1c0,0,12-18.2,25.9-25.1l-5.8-7.3c0,0-17.4,3.9-26.7,13.1L347.2,206.6z"/>
	<path fill="#90C750" d="M361,180.7l5.2,3.7c0,0-8.9,0-8.2,9.2c0,0,3.6,4.9,0,9.2c-1.4,3.1-7.2,2.4-7.2,2.4l-5.4,4.8l-1.9-3.7
		l-0.6-19C342.9,187.1,351.9,175.3,361,180.7z"/>
	<path fill="#FFFFFF" d="M333.3,157.3c0,0,0.3,8.5-7.2,12.2c0,0-4,0-2.3,6.8l19.8,29.9l4.6-3.1c0,0-6.3-10.9,4.3-13.6
		c0,0,0.3-8.5,8.6-8.8l-18.1-12.9C342.9,167.8,343.2,156.6,333.3,157.3z"/>
	<path fill="#90C750" d="M373.3,195.4c0,0-5-7,1.2-12.4c6.2-5.4,13.9-0.8,15.5,5.8C390,188.8,378.4,190.3,373.3,195.4z"/>
	<path fill="#9385BF" d="M390,188.8c0,0,4.4,7.7-6.4,18.2c-5,5.8-14.3,12.9-18.9,14.3c-6.6,1.9-11.6-4.6-11.6-4.6
		S365.4,187.6,390,188.8z"/>
	<path fill="#FFFFFF" d="M256,116.7c0,0-9.7-2.2-20.1-3c0,0-1.9,19.7-1.9,34.9c0,0,5.6,4.5,13-0.4S256,116.7,256,116.7z"/>
	<path fill="#90C750" d="M255.1,120.6c0,0-10.9-2.5-15.1,3c-4.2,5.4-5,3-5,3l0.9-12.9c0,0,16.2,1.2,20.1,3
		C256,116.7,257.1,119.6,255.1,120.6z"/>
	<path opacity="0.1" fill="#959F97" d="M260.3,62.4c0,0-12.4-44.3,27.7-50.8C335.4,4.1,328.7,56,328.7,56S298,91.4,260.3,62.4z"/>
</g>
</svg>
