<?xml version="1.0" encoding="utf-8"?>
<!-- Generator: Adobe Illustrator 18.0.0, SVG Export Plug-In . SVG Version: 6.00 Build 0)  -->
<!DOCTYPE svg PUBLIC "-//W3C//DTD SVG 1.1//EN" "http://www.w3.org/Graphics/SVG/1.1/DTD/svg11.dtd">
<svg version="1.1" id="Layer_1" xmlns="http://www.w3.org/2000/svg" xmlns:xlink="http://www.w3.org/1999/xlink" x="0px" y="0px"
	 viewBox="0 0 248.6 554.5" enable-background="new 0 0 248.6 554.5" xml:space="preserve">
<g>
	<g>
		<rect x="28.9" y="8.8" opacity="0.1" fill="#8CABE2" width="192.1" height="224.8"/>
		<rect x="59.6" y="203.3" fill="#4C4F39" width="128.4" height="31.6"/>
		<polygon fill="#6E6142" points="191.1,208.6 54.7,208.6 54.6,44.2 191.3,44.2 		"/>
		<polygon fill="#F5F2D2" points="55.3,42 64.8,58.1 184.2,56.4 192,42 		"/>
		<polygon fill="#A0946E" points="192.3,207.3 184.2,187 185.5,55.2 192,42.8 		"/>
		<polygon fill="#F9F5DA" points="61.7,192.4 54.9,207.3 55.3,42.8 64.8,58.2 		"/>
		<rect x="59.8" y="51.5" fill="#C1B18D" width="127.5" height="144.4"/>
		<polygon fill="#F2F0E2" points="179.4,145.5 70,145.2 69.1,59.9 179.4,59.9 		"/>
		<polygon fill="#717462" points="69.1,60.3 179.7,59.6 166.4,76 80.2,76 		"/>
		<polygon fill="#798379" points="69.4,145.2 80.8,132 80.7,75.3 69.4,59.6 		"/>
		<path fill="#243437" d="M170.1,140.1H77.2c-2.8,0-5.1-2.3-5.1-5.1V67.5c0-2.8,2.3-5.1,5.1-5.1h92.8c2.8,0,5.1,2.3,5.1,5.1V135
			C175.2,137.8,172.9,140.1,170.1,140.1z"/>
		<path fill="#74C6DE" d="M168.6,136.9H78.1c-1.5,0-2.7-1.2-2.7-2.7v-65c0-1.5,1.2-2.7,2.7-2.7h90.5c1.5,0,2.7,1.2,2.7,2.7v65
			C171.3,135.7,170.1,136.9,168.6,136.9z"/>
		<g>
			<path fill="#243437" d="M130.9,117.3c-3.2,1.5-6,1.9-9.8,1.9c-8.9,0-16.8-6.4-16.8-16.9c0-11,8-20.5,20.1-20.5
				c9.5,0,16.2,6.5,16.2,15.5c0,7.8-4.4,12.8-10.2,12.8c-2.5,0-4.4-1.3-4.6-4.1h-0.1c-1.7,2.7-4.1,4.1-6.9,4.1c-3.5,0-6-2.6-6-7
				c0-6.6,4.8-12.5,12.6-12.5c2.4,0,5.1,0.6,6.4,1.3l-1.6,9.9c-0.5,3.2-0.2,4.6,1.3,4.7c2.3,0.1,5.2-2.9,5.2-9.1
				c0-7-4.5-12.4-12.8-12.4c-8.2,0-15.4,6.4-15.4,16.7c0,9,5.7,14.1,13.8,14.1c2.7,0,5.6-0.6,7.8-1.7L130.9,117.3z M126.1,95.1
				c-0.4-0.1-1-0.2-1.7-0.2c-3.5,0-6.3,3.5-6.3,7.6c0,2,0.9,3.3,2.7,3.3c2,0,4.1-2.5,4.6-5.6L126.1,95.1z"/>
		</g>
		<rect x="165.9" y="165.1" fill="#AA9F7B" width="14.7" height="10.2"/>
		<rect x="134.2" y="166.9" fill="#AA9F7B" width="39.2" height="6.6"/>
		<rect x="168.6" y="166.9" fill="#7E7657" width="10.5" height="6.6"/>
		<rect x="137.8" y="169.3" fill="#535644" width="41.3" height="1.8"/>
		<rect x="12.2" y="5.7" opacity="0.1" fill="#29ABE2" width="224.4" height="227.8"/>
		<rect x="12.1" y="5.3" opacity="0.1" fill="#FFFFFF" width="224.3" height="3.1"/>
		<rect x="221" y="8.4" opacity="0.1" fill="#FFFFFF" width="3.2" height="224.7"/>
		<rect x="25.7" y="8.4" opacity="0.1" fill="#FFFFFF" width="3.2" height="224.7"/>
		<rect x="12.2" y="8.4" opacity="0.1" fill="#FFFFFF" width="3.2" height="224.7"/>
		<rect x="232.8" y="8.4" opacity="0.1" fill="#FFFFFF" width="3.5" height="224.7"/>
	</g>
	<g>
		<rect x="14.5" y="248.9" fill="#22B573" width="222.4" height="305.6"/>
		<rect x="24.4" y="260.7" opacity="0.1" width="23.5" height="279.4"/>
		<rect x="69.6" y="260.7" opacity="0.1" width="23.5" height="279.4"/>
		<rect x="117.5" y="260.7" opacity="0.1" width="23.5" height="279.4"/>
		<rect x="162.7" y="260.7" opacity="0.1" width="23.5" height="279.4"/>
		<rect x="202.5" y="260.7" opacity="0.1" width="23.5" height="279.4"/>
		<rect x="14.5" y="243.5" opacity="0.1" width="221.5" height="33.5"/>
		<rect x="0" y="233.5" fill="#73A99D" width="248.6" height="20.5"/>
	</g>
</g>
</svg>
