<?xml version="1.0" encoding="utf-8"?>
<!-- Generator: Adobe Illustrator 18.1.1, SVG Export Plug-In . SVG Version: 6.00 Build 0)  -->
<svg version="1.1" id="Layer_1" xmlns="http://www.w3.org/2000/svg" xmlns:xlink="http://www.w3.org/1999/xlink" x="0px" y="0px"
	 viewBox="0 44 606.7 629" enable-background="new 0 44 606.7 629" xml:space="preserve">
<polygon fill="#E0A984" points="416.7,172.1 460.6,172.4 556.5,160.1 568.1,175.5 461,200.1 366.2,209.2 372.9,172.4 "/>
<polygon fill="#E0A984" points="263.1,631.8 259.8,647.6 246.1,647.6 246.1,631.8 "/>
<path fill="#E0A984" d="M246.1,647.6h13.8c0,0,5.3,17.3-12.5,18.3h-23.2c0,0-5.1-11,8.7-11.7C232.8,654.2,244.8,652.1,246.1,647.6z"
	/>
<path fill="#E0A984" d="M341.9,647.6h-13.8c0,0-5.3,17.3,12.5,18.3h23.2c0,0,5.1-11-8.7-11.7C355.2,654.2,343.2,652.1,341.9,647.6z"
	/>
<polygon fill="#E0A984" points="248.7,352 244.3,631.8 263.1,631.8 304.1,385.7 325.9,631.8 344,631.8 353,351.5 "/>
<polygon fill="#E0A984" points="263.1,631.8 259.8,647.6 246.1,647.6 246.1,631.8 "/>
<path fill="#E0A984" d="M246.1,647.6h13.8c0,0,5.3,17.3-12.5,18.3h-23.2c0,0-5.1-11,8.7-11.7C232.8,654.2,244.8,652.1,246.1,647.6z"
	/>
<path fill="#E0A984" d="M341.9,647.6h-13.8c0,0-5.3,17.3,12.5,18.3h23.2c0,0,5.1-11-8.7-11.7C355.2,654.2,343.2,652.1,341.9,647.6z"
	/>
<polygon fill="#E0A984" points="245.6,590.1 269.4,590.1 260.6,651.2 244.3,651.2 "/>
<polygon fill="#E0A984" points="344.4,590.1 323.3,590.1 327.6,651.1 344,650.2 "/>
<path fill="#E0A984" d="M224.9,172.2c0,0,49.3-26.7,148.4,0L353,351.5c0,0-37.8,3.7-104.2,0.5L224.9,172.2z"/>
<path fill="#E0A984" d="M330.1,68.5v76.6h-11.6v25.2c0,0-13.1,25.7-45.1,0v-52.3c0,0-9.7-1.9-9.7-13.1s11.1-5.8,11.1-5.8V68.5H330.1
	z"/>
<path fill="#231F20" d="M333.4,66.6c-0.1,1.8,0,3.7-0.6,5.4c-0.7,1.7-1.1,5-2.8,4.9c0.7-1.4-1.3-5.2-2.7-5.9
	c-1.3-0.8-2.9-0.7-4.4-0.7c-4.8,0.1-9.5,0.3-14.3,0.4c-4,0.1-8.1,0.2-12.1,1.1c-1.5,0.3-2.9,0.7-4.2,1.6c-2.1,1.4-3.8,3.9-6.2,4
	c0.6,2.8-0.6,8.3-0.6,8.3s-4,4.3-6.6,3.6c0.6,5.8,0.6,11.6,0.1,17.4c-1.9-0.2-3.9-0.3-5.8-0.5c1.4-1.5,1.1-4.2-0.4-5.6
	s-3.7-1.8-5.6-1.2c-1.4,0.4-2.9,1.4-3.1,3c-4.9-7.5-6.8-17.2-4.9-26.1c1.9-8.9,7.7-16.8,15.4-21c5.5-3,11.8-4.1,17.9-3.9
	C292.3,51.2,334.4,46.4,333.4,66.6z"/>
<polygon fill="#FFFFFF" points="247,370.5 302.2,386 351,371.2 351,355.5 247,356.2 "/>
<polygon fill="#009245" points="247,370.9 279.4,380.6 286.5,357 247,357 "/>
<polygon fill="#ED1C24" points="321.3,380.8 317.9,357 353.3,357 351.3,371.6 "/>
<path fill="#E0A984" d="M559.5,178.3l30,1.5l6.4-10.8h-20l30.9-9.2l-2.7-18.3l-47.5,18.6C556.5,160.1,552.2,176,559.5,178.3z"/>
<polygon fill="#E0A984" points="193.5,172.1 149.6,172.4 53.7,160.1 42.1,175.5 149.2,200.1 244,209.2 237.3,172.4 "/>
<path fill="#E0A984" d="M50.8,178.3l-30,1.5L14.4,169h20l-30.9-9.2l2.7-18.3l47.5,18.6C53.7,160.1,58,176,50.8,178.3z"/>
<path fill="#0071BC" d="M271.3,160.5c0,0,7.3,27.3,26.4,50.9c0,0,23.6-16.4,22.7-50l19.1,3.6c0,0-4.5,44.5-40,62.7
	c0,0-22.7,2.7-47.3-64.5L271.3,160.5z"/>
<circle fill="#CCCCCC" cx="300.4" cy="221.4" r="14.5"/>
</svg>
