<?xml version="1.0" encoding="utf-8"?>
<!-- Generator: Adobe Illustrator 18.1.1, SVG Export Plug-In . SVG Version: 6.00 Build 0)  -->
<svg version="1.1" id="Layer_1" xmlns="http://www.w3.org/2000/svg" xmlns:xlink="http://www.w3.org/1999/xlink" x="0px" y="0px"
	 viewBox="12 366.7 527.3 46" enable-background="new 12 366.7 527.3 46" xml:space="preserve">
<g>
	<path fill="#666666" d="M148.5,387.8l0.2,0.2l-0.2,0.4l0.4,0.4l-0.1,1.7c-0.5-0.5-0.9-1.3-1.3-1.7l0-0.1l-0.5-0.2l-0.6-0.3l0.1-0.2
		l0.7,0l0-2.1c0.4-0.1,0.1-0.7,0.1-0.7l-0.2,0.2c-0.3-0.3-1.3-0.5-1.9,0.3c-0.5,0.7-0.1,1.3,0.1,1.5l-0.3,0.5c0,0-0.7,0-1.2,0.2
		c-0.1,0-0.1,0.1-0.1,0.1l0-0.1l-3.9,0.7l-0.4,3.1h0l-0.3,0.5l-0.1,0.6l0.9,0.7l0.1-0.3l0.3,0l0.1-0.6l-0.3-0.7l0,0l0.5-1.7l0.2-0.9
		l2.4-0.3c-0.2,1,0,2.2,0.1,2.4c0.2,0.4,0.2,1.2,0.2,1.2l0.4,0.2l-0.9,1.4l0.1,1.5l-1.1,1.8l0.3,0.3l-0.7,1.1l-0.8,0.3l-2.2,3.1
		c0,0,0,0,0-0.1c0,0-0.5,0.1-0.9,0.3c-0.2,0.1-0.3,0.3-0.3,0.6c0.1,0.4,0.3,0.9,0.2,1.1c-0.1,0.3,0.3,1.5,0.9,1.2
		c0.2-0.1,0.1-0.6,0.1-0.6s-0.2-1.2,0.5-1.8c0,0,0,0,0,0l3.5-3l0.7-1.1l0.4,0.4l1.9-2.8l1.4,0.3l0.2-0.2l0.2,0.1l-0.7,1l-0.6,3
		c-0.1,0.1-0.5,0.4-0.6,1.1c0,0,0.4,0.2,0.7,0.7c0.4,0.4,1.6,0.3,1.6,0.3l0.1-0.3c0,0-0.6-0.5-0.7-0.7c-0.1-0.2-0.2-1.3-0.2-1.3h0
		l2.2-4.5l-1.1-0.7l0-0.1l-2-1v-0.5l0.1,0c0.7-1,0.6-1.8,0.6-1.8l0.4-1.5c0.6,0.8,1.9,1.6,1.9,1.6l1,0v-3.6l-0.1-0.9l-0.7-0.6
		L148.5,387.8z"/>
	<path fill="#666666" d="M90.1,387.8l0.2,0.2l-0.2,0.4l0.4,0.4l-0.1,1.7c-0.5-0.5-0.9-1.3-1.3-1.7l0-0.1l-0.5-0.2l-0.6-0.3l0.1-0.2
		l0.7,0l0-2.1c0.4-0.1,0.1-0.7,0.1-0.7l-0.2,0.2c-0.3-0.3-1.3-0.5-1.9,0.3c-0.5,0.7-0.1,1.3,0.1,1.5l-0.3,0.5c0,0-0.7,0-1.2,0.2
		c-0.1,0-0.1,0.1-0.1,0.1l0-0.1l-3.9,0.7l-0.4,3.1h0l-0.3,0.5l-0.1,0.6l0.9,0.7l0.1-0.3l0.3,0l0.1-0.6l-0.3-0.7l0,0l0.5-1.7l0.2-0.9
		l2.4-0.3c-0.2,1,0,2.2,0.1,2.4c0.2,0.4,0.2,1.2,0.2,1.2l0.4,0.2l-0.9,1.4l0.1,1.5l-1.1,1.8l0.3,0.3l-0.7,1.1l-0.8,0.3l-2.2,3.1
		c0,0,0,0,0-0.1c0,0-0.5,0.1-0.9,0.3c-0.2,0.1-0.3,0.3-0.3,0.6c0.1,0.4,0.3,0.9,0.2,1.1c-0.1,0.3,0.3,1.5,0.9,1.2
		c0.2-0.1,0.1-0.6,0.1-0.6s-0.2-1.2,0.5-1.8c0,0,0,0,0,0l3.5-3l0.7-1.1l0.4,0.4l1.9-2.8l1.4,0.3l0.2-0.2l0.2,0.1l-0.7,1l-0.6,3
		c-0.1,0.1-0.5,0.4-0.6,1.1c0,0,0.4,0.2,0.7,0.7c0.4,0.4,1.6,0.3,1.6,0.3l0.1-0.3c0,0-0.6-0.5-0.7-0.7c-0.1-0.2-0.2-1.3-0.2-1.3h0
		l2.2-4.5l-1.1-0.7l0.2-0.1l-1.7-1v-0.5l-0.1,0c0.7-1,0.5-1.8,0.5-1.8l0.4-1.5c0.6,0.8,1.6,1.6,1.6,1.6l0.6,0v-3.6l0.2-0.9l-0.5-0.6
		L90.1,387.8z"/>
	<path fill="#666666" d="M217.6,388.7l-0.2-0.3l-0.5,0.3l-0.3,0.7l0,0l-1.7,0.7l0,0l0.1-0.5l-0.5-0.3l-0.6-0.4l0.1-0.2l0.7,0.1
		l0.2-2.2c0.4-0.1,0.1-0.7,0.1-0.7l-0.2,0.2c-0.3-0.4-1.3-0.6-2,0.2c-0.6,0.6-0.2,1.3,0,1.6l-0.4,0.5c0,0-0.8-0.1-1.3,0.1
		c-1.8,1.6-1.3,3.8-1,3.9c0.4,0.2,0.1,1.2,0.1,1.2l0.4,0.3l-0.5,1.2l-0.1,0.1l0,0.4l-0.1,1l0.1,0l0,0l-1.1,1.5l0.2,0.3l-0.7,0.9
		l-0.7,0.2l-2.3,2.6c0,0,0,0,0-0.1c0,0-0.5,0.1-0.8,0.2c-0.2,0.1-0.3,0.3-0.3,0.5c0.1,0.4,0.2,0.9,0.1,1c-0.1,0.2,0.1,1.3,0.7,1.1
		c0.2-0.1,0.2-0.6,0.2-0.6s-0.1-1.1,0.6-1.6c0,0,0,0,0,0l3.5-2.4l0.8-1l0.3,0.4l1.6-2l0.2,0.1l1.4,0.5l0.2-0.2l0.2,0.1l-0.8,1
		l-0.9,3.1c-0.1,0.1-0.5,0.4-0.7,1.1c0,0,0.4,0.3,0.7,0.8c0.3,0.5,1.6,0.5,1.6,0.5l0.1-0.3c0,0-0.6-0.4-0.6-0.6
		c-0.1-0.2-0.1-1.2-0.1-1.2h0l2.8-4.8l-1.1-0.9l0.1-0.1l-1.2-0.8l0.1-0.1l-0.3-0.4l0.1-0.3l-0.3-0.2l-0.1-0.3
		c0.7-0.9,0.6-1.6,0.6-1.6l0.6-1.6l0.1-0.3l2.4-1.6v0l0.5,0l0.5-0.3l0-1.2L217.6,388.7z"/>
	<path fill="#666666" d="M318.3,388.7l-0.2-0.3l-0.5,0.3l-0.3,0.7l0,0l-1.7,0.7l0,0l0.1-0.5l-0.5-0.3l-0.6-0.4l0.1-0.2l0.7,0.1
		l0.2-2.2c0.4-0.1,0.1-0.7,0.1-0.7l-0.2,0.2c-0.3-0.4-1.3-0.6-2,0.2c-0.6,0.6-0.2,1.3,0,1.6l-0.4,0.5c0,0-0.8-0.1-1.3,0.1
		c-1.8,1.6-1.3,3.8-1,3.9c0.4,0.2,0.1,1.2,0.1,1.2l0.4,0.3l-0.5,1.2l-0.1,0.1l0,0.4l-0.1,1l0.1,0l0,0l-1.1,1.5l0.2,0.3l-0.7,0.9
		l-0.7,0.2l-2.3,2.6c0,0,0,0,0-0.1c0,0-0.5,0.1-0.8,0.2c-0.2,0.1-0.3,0.3-0.3,0.5c0.1,0.4,0.2,0.9,0.1,1c-0.1,0.2,0.1,1.3,0.7,1.1
		c0.2-0.1,0.2-0.6,0.2-0.6s-0.1-1.1,0.6-1.6c0,0,0,0,0,0l3.5-2.4l0.8-1l0.3,0.4l1.6-2l0.2,0.1l1.4,0.5l0.2-0.2l0.2,0.1l-0.8,1
		l-0.9,3.1c-0.1,0.1-0.5,0.4-0.7,1.1c0,0,0.4,0.3,0.7,0.8c0.3,0.5,1.6,0.5,1.6,0.5l0.1-0.3c0,0-0.6-0.4-0.6-0.6
		c-0.1-0.2-0.1-1.2-0.1-1.2h0l2.8-4.8l-1.1-0.9l0.1-0.1l-1.2-0.8l0.1-0.1l-0.3-0.4l0.1-0.3l-0.3-0.2l-0.1-0.3
		c0.7-0.9,0.6-1.6,0.6-1.6l0.6-1.6l0.3-0.3l2.6-1.6v0l0.3,0l0.4-0.3l-0.1-1.2L318.3,388.7z"/>
	<path fill="#666666" d="M229.4,388.6l-0.5,0.3l-0.3,0.7l0,0l-1.8,0.7l0,0l0.1-0.5l-0.5-0.3l-0.6-0.4l0.1-0.2l0.7,0.1l0.2-2.3
		c0.4-0.1,0.2-0.7,0.2-0.7l-0.2,0.2c-0.3-0.4-1.3-0.7-2,0.1c-0.6,0.6-0.2,1.4-0.1,1.6l-0.4,0.5c0,0-0.8-0.1-1.4,0.1
		c-1.5,1.1-1.3,3.6-1.1,4c0.2,0.4,0,1.3,0,1.3l0.4,0.3l-0.5,1.1l-0.1,0.1l0,0.5l-0.1,0.9l0.1,0l0,0l-1.2,1.5l0.2,0.3l-0.7,0.9
		l-0.8,0.2l-2.4,2.6c0,0,0,0,0-0.1c0,0-0.5,0.1-0.8,0.2c-0.2,0.1-0.4,0.3-0.3,0.5c0.1,0.4,0.2,0.9,0.1,1.1c-0.1,0.2,0.1,1.4,0.7,1.2
		c0.2-0.1,0.2-0.6,0.2-0.6s0-1.1,0.6-1.6c0,0,0,0,0,0l3.6-2.4l0.8-1l0.3,0.4l1.7-2l0.2,0.1l1.4,0.5l0.2-0.2l0.2,0.1l-0.9,1l-1,3.2
		c-0.1,0.1-0.6,0.4-0.8,1.1c0,0,0.4,0.3,0.7,0.8c0.3,0.5,1.7,0.6,1.7,0.6l0.2-0.3c0,0-0.6-0.4-0.6-0.6c-0.1-0.3-0.1-1.2-0.1-1.2l0,0
		l3-4.8l-1.1-1l0.1-0.1l-1.2-0.9l0.1-0.1l-0.3-0.4l0.2-0.3l-0.3-0.2l-0.1-0.4c0.7-0.9,0.7-1.7,0.7-1.7l0.7-1.6l0.2-0.3l2.5-1.5v0
		l0.5,0l0.5-0.3l0-1.2l-0.4,0.1L229.4,388.6z"/>
	<path fill="#666666" d="M259.1,388.6l-0.5,0.3l-0.3,0.7l0,0l-1.8,0.7l0,0l0.1-0.5l-0.5-0.3l-0.6-0.4l0.1-0.2l0.7,0.1l0.2-2.3
		c0.4-0.1,0.2-0.7,0.2-0.7l-0.2,0.2c-0.3-0.4-1.3-0.7-2,0.1c-0.6,0.6-0.2,1.4-0.1,1.6l-0.4,0.5c0,0-0.8-0.1-1.4,0.1
		c-1.5,1.1-1.3,3.6-1.1,4c0.2,0.4,0,1.3,0,1.3l0.4,0.3l-0.5,1.1l-0.1,0.1l0,0.5l-0.1,0.9l0.1,0l0,0l-1.2,1.5l0.2,0.3l-0.7,0.9
		l-0.8,0.2l-2.4,2.6c0,0,0,0,0-0.1c0,0-0.5,0.1-0.8,0.2c-0.2,0.1-0.4,0.3-0.3,0.5c0.1,0.4,0.2,0.9,0.1,1.1c-0.1,0.2,0.1,1.4,0.7,1.2
		c0.2-0.1,0.2-0.6,0.2-0.6s0-1.1,0.6-1.6c0,0,0,0,0,0l3.6-2.4l0.8-1l0.3,0.4l1.7-2l0.2,0.1l1.4,0.5l0.2-0.2l0.2,0.1l-0.9,1l-1,3.2
		c-0.1,0.1-0.6,0.4-0.8,1.1c0,0,0.4,0.3,0.7,0.8c0.3,0.5,1.7,0.6,1.7,0.6l0.2-0.3c0,0-0.6-0.4-0.6-0.6c-0.1-0.3-0.1-1.2-0.1-1.2l0,0
		l3-4.8l-1.1-1l0.1-0.1l-1.2-0.9l0.1-0.1l-0.3-0.4l0.2-0.3l-0.3-0.2l-0.1-0.4c0.7-0.9,0.7-1.7,0.7-1.7l0.7-1.6l0.3-0.3l2.7-1.5v0
		l0.3,0l0.4-0.3l0-1.2l-0.4,0.1L259.1,388.6z"/>
	<path fill="#666666" d="M179.6,387.6l-0.5,0.3l-0.3,0.7l0,0l-1.8,0.7l0,0l0.1-0.5l-0.5-0.3l-0.6-0.4l0.1-0.2l0.7,0.1l0.2-2.3
		c0.4-0.1,0.2-0.7,0.2-0.7l-0.2,0.2c-0.3-0.4-1.3-0.7-2,0.1c-0.6,0.6-0.2,1.4-0.1,1.6l-0.4,0.5c0,0-0.8-0.1-1.4,0.1
		c-1.5,1.1-1.3,3.6-1.1,4c0.2,0.4,0,1.3,0,1.3l0.4,0.3l-0.5,1.1l-0.1,0.1l0,0.5l-0.1,0.9l0.1,0l0,0l-1.2,1.5l0.2,0.3l-0.7,0.9
		l-0.8,0.2l-2.4,2.6c0,0,0,0,0-0.1c0,0-0.5,0.1-0.8,0.2c-0.2,0.1-0.4,0.3-0.3,0.5c0.1,0.4,0.2,0.9,0.1,1.1c-0.1,0.2,0.1,1.4,0.7,1.2
		c0.2-0.1,0.2-0.6,0.2-0.6s0-1.1,0.6-1.6c0,0,0,0,0,0l3.6-2.4l0.8-1l0.3,0.4l1.7-2l0.2,0.1l1.4,0.5l0.2-0.2l0.2,0.1l-0.9,1l-1,3.2
		c-0.1,0.1-0.6,0.4-0.8,1.1c0,0,0.4,0.3,0.7,0.8s1.7,0.6,1.7,0.6l0.2-0.3c0,0-0.6-0.4-0.6-0.6c-0.1-0.3-0.1-1.2-0.1-1.2l0,0l3-4.8
		l-1.1-1l0.1-0.1l-1.2-0.9l0.1-0.1l-0.3-0.4l0.2-0.3l-0.3-0.2l-0.1-0.4c0.7-0.9,0.7-1.7,0.7-1.7l0.7-1.6l0.1-0.3l2.5-1.5v0l0.5,0
		l0.5-0.3l0-1.2l-0.4,0.1L179.6,387.6z"/>
	<g>
		<path fill="#666666" d="M161,398.7l-1.8,1.2L158,402l0,0l-1.2,0.2l-0.1,1.4l-0.2,0.7c0,0,0.5,0.9,0.5,0.9c0.1,0,0.5,0,0.3-0.5
			c-0.2-0.4,1.1-2.2,1.1-2.2l3.6-2.8l1.1-1.8l-1.4-0.8L161,398.7z"/>
		<path fill="#666666" d="M166.5,401.6c-0.1-0.3-0.1-0.5-0.1-0.6l0,0l2.7-4.4l-1.9-1.2l0,0l-2.2-1c0,0,0,0,0,0l0,0h0
			c0-0.3,0-1.4,0-2.5l0.7,0.7l2.3-2.6l0.6-0.5l0.2-0.8l-0.5-0.3l-0.5,0.2l-0.2,1.1l-1.7,1.6l-0.9-1.1c0-0.4-0.1-0.7-0.1-0.9
			c-0.1-0.2-0.3-0.4-0.5-0.5l0.1-0.6l0.8,0l0.1-1.9l0.4-0.5v-0.4l-0.7-0.3c-0.4-0.2-1-0.2-1.4,0.1l-0.1,0c-0.5,0.4-0.9,1-0.7,1.7
			c0,0.2,0.1,0.3,0.1,0.4c0.1,0.1,0.3,0.4,0.4,0.6l-0.1,0.4c0,0-0.1,0-0.1,0l-1,1.1l-0.3,1l0,0.2l-1.1,1.1l1.5,2.6l-0.5,0.7l0.1,0.8
			l-0.7,1.1l1.9,1.1l0.7-1.4l1.8,0.4l0.2-0.3l1.2,0.5l-0.9,0.9l-0.7,2.2c-0.5,0.1-0.9,0.9-0.9,0.9s0.2,0.4,0.6,0.6
			c0.3,0.2,0.8,1,1.2,1.2c0.5,0.2,0.6-0.2,0.6-0.2C166.8,402.7,166.6,401.9,166.5,401.6z"/>
	</g>
	<path fill="#666666" d="M196.9,388.5l-0.2-0.3l-0.5,0.3l-0.3,0.7l0,0L194,390l0,0l0.1-0.5l-0.5-0.3l-0.6-0.4l0.1-0.2l0.7,0.1
		l0.2-2.3c0.4-0.1,0.2-0.7,0.2-0.7L194,386c-0.3-0.4-1.3-0.7-2,0.1c-0.6,0.6-0.2,1.4-0.1,1.6l-0.4,0.5c0,0-0.8-0.1-1.4,0.1
		c-1.5,1.1-1.3,3.6-1.1,4c0.2,0.4,0,1.3,0,1.3l0.4,0.3l-0.5,1.1l-0.1,0.1l0,0.5l-0.1,0.9l0.1,0l0,0l-1.2,1.5l0.2,0.3l-0.7,0.9
		l-0.8,0.2l-2.4,2.6c0,0,0,0,0-0.1c0,0-0.5,0.1-0.8,0.2c-0.2,0.1-0.4,0.3-0.3,0.5c0.1,0.4,0.2,0.9,0.1,1.1c-0.1,0.2,0.1,1.4,0.7,1.2
		c0.2-0.1,0.2-0.6,0.2-0.6s0-1.1,0.6-1.6c0,0,0,0,0,0l3.6-2.4l0.8-1l0.3,0.4l1.7-2l0.2,0.1l1.4,0.5l0.2-0.2l0.2,0.1l-0.9,1l-1,3.2
		c-0.1,0.1-0.6,0.4-0.8,1.1c0,0,0.4,0.3,0.7,0.8c0.3,0.5,1.7,0.6,1.7,0.6l0.2-0.3c0,0-0.6-0.4-0.6-0.6s-0.1-1.2-0.1-1.2l0,0l3-4.8
		l-1.1-1l0.1-0.1l-1.2-0.9l0.1-0.1l-0.3-0.4l0.2-0.3l-0.3-0.2l-0.1-0.4c0.7-0.9,0.7-1.7,0.7-1.7l0.7-1.6l0-0.3l2.4-1.5v0l0.6,0
		l0.6-0.3l0-1.2L196.9,388.5z"/>
	<path fill="#666666" d="M161.6,388.5l-0.2-0.3l-0.5,0.3l-0.3,0.7l0,0l-1.8,0.7l0,0l0.1-0.5l-0.5-0.3l-0.6-0.4l0.1-0.2l0.7,0.1
		l0.2-2.3c0.4-0.1,0.2-0.7,0.2-0.7l-0.2,0.2c-0.3-0.4-1.3-0.7-2,0.1c-0.6,0.6-0.2,1.4-0.1,1.6l-0.4,0.5c0,0-0.8-0.1-1.4,0.1
		c-1.5,1.1-1.3,3.6-1.1,4c0.2,0.4,0,1.3,0,1.3l0.4,0.3l-0.5,1.1l-0.1,0.1l0,0.5l-0.1,0.9l0.1,0l0,0l-1.2,1.5l0.2,0.3l-0.7,0.9
		l-0.8,0.2l-2.4,2.6c0,0,0,0,0-0.1c0,0-0.5,0.1-0.8,0.2c-0.2,0.1-0.4,0.3-0.3,0.5c0.1,0.4,0.2,0.9,0.1,1.1c-0.1,0.2,0.1,1.4,0.7,1.2
		c0.2-0.1,0.2-0.6,0.2-0.6s0-1.1,0.6-1.6c0,0,0,0,0,0l3.6-2.4l0.8-1l0.3,0.4l1.7-2l0.2,0.1l1.4,0.5l0.2-0.2l0.2,0.1l-0.9,1l-1,3.2
		c-0.1,0.1-0.6,0.4-0.8,1.1c0,0,0.4,0.3,0.7,0.8c0.3,0.5,1.7,0.6,1.7,0.6l0.2-0.3c0,0-0.6-0.4-0.6-0.6c-0.1-0.3-0.1-1.2-0.1-1.2l0,0
		l3-4.8l-1.1-1l0.1-0.1l-1.2-0.9l0.1-0.1l-0.3-0.4l0.2-0.3l-0.3-0.2l-0.1-0.4c0.7-0.9,0.7-1.7,0.7-1.7l0.7-1.6l0.2-0.3l2.5-1.5v0
		l0.5,0l0.5-0.3l0-1.2L161.6,388.5z"/>
	<path fill="#666666" d="M339.9,388.5l-0.2-0.3l-0.5,0.3l-0.3,0.7l0,0L337,390l0,0l0.1-0.5l-0.5-0.3l-0.6-0.4l0.1-0.2l0.7,0.1
		l0.2-2.3c0.4-0.1,0.2-0.7,0.2-0.7L337,386c-0.3-0.4-1.3-0.7-2,0.1c-0.6,0.6-0.2,1.4-0.1,1.6l-0.4,0.5c0,0-0.8-0.1-1.4,0.1
		c-1.5,1.1-1.3,3.6-1.1,4c0.2,0.4,0,1.3,0,1.3l0.4,0.3l-0.5,1.1l-0.1,0.1l0,0.5l-0.1,0.9l0.1,0l0,0l-1.2,1.5l0.2,0.3l-0.7,0.9
		l-0.8,0.2l-2.4,2.6c0,0,0,0,0-0.1c0,0-0.5,0.1-0.8,0.2c-0.2,0.1-0.4,0.3-0.3,0.5c0.1,0.4,0.2,0.9,0.1,1.1c-0.1,0.2,0.1,1.4,0.7,1.2
		c0.2-0.1,0.2-0.6,0.2-0.6s0-1.1,0.6-1.6c0,0,0,0,0,0l3.6-2.4l0.8-1l0.3,0.4l1.7-2l0.2,0.1l1.4,0.5l0.2-0.2l0.2,0.1l-0.9,1l-1,3.2
		c-0.1,0.1-0.6,0.4-0.8,1.1c0,0,0.4,0.3,0.7,0.8c0.3,0.5,1.7,0.6,1.7,0.6l0.2-0.3c0,0-0.6-0.4-0.6-0.6s-0.1-1.2-0.1-1.2l0,0l3-4.8
		l-1.1-1l0.1-0.1l-1.2-0.9l0.1-0.1l-0.3-0.4l0.2-0.3l-0.3-0.2l-0.1-0.4c0.7-0.9,0.7-1.7,0.7-1.7l0.7-1.6l0-0.3l2.4-1.5v0l0.6,0
		l0.6-0.3l0-1.2L339.9,388.5z"/>
	<path fill="#666666" d="M69.1,388.5l-0.2-0.3l-0.5,0.3l-0.3,0.7l0,0l-1.8,0.7l0,0l0.1-0.5l-0.5-0.3l-0.6-0.4l0.1-0.2l0.7,0.1
		l0.2-2.3c0.4-0.1,0.2-0.7,0.2-0.7l-0.2,0.2c-0.3-0.4-1.3-0.7-2,0.1c-0.6,0.6-0.2,1.4-0.1,1.6l-0.4,0.5c0,0-0.8-0.1-1.4,0.1
		c-1.5,1.1-1.3,3.6-1.1,4c0.2,0.4,0,1.3,0,1.3l0.4,0.3l-0.5,1.1l-0.1,0.1l0,0.5l-0.1,0.9l0.1,0l0,0l-1.2,1.5l0.2,0.3l-0.7,0.9
		l-0.8,0.2l-2.4,2.6c0,0,0,0,0-0.1c0,0-0.5,0.1-0.8,0.2c-0.2,0.1-0.4,0.3-0.3,0.5c0.1,0.4,0.2,0.9,0.1,1.1c-0.1,0.2,0.1,1.4,0.7,1.2
		c0.2-0.1,0.2-0.6,0.2-0.6s0-1.1,0.6-1.6c0,0,0,0,0,0l3.6-2.4l0.8-1l0.3,0.4l1.7-2l0.2,0.1l1.4,0.5l0.2-0.2l0.2,0.1l-0.9,1l-1,3.2
		c-0.1,0.1-0.6,0.4-0.8,1.1c0,0,0.4,0.3,0.7,0.8c0.3,0.5,1.7,0.6,1.7,0.6l0.2-0.3c0,0-0.6-0.4-0.6-0.6c-0.1-0.3-0.1-1.2-0.1-1.2l0,0
		l3-4.8l-1.1-1l0.1-0.1l-1.2-0.9l0.1-0.1l-0.3-0.4l0.2-0.3l-0.3-0.2l-0.1-0.4c0.7-0.9,0.7-1.7,0.7-1.7l0.7-1.6l-0.1-0.3l2.3-1.5v0
		l0.7,0l0.6-0.3l0.1-1.2L69.1,388.5z"/>
	<path fill="#7F8E8E" d="M190.1,387.4l0.2,0.2l-0.2,0.4l0.4,0.4l-0.1,1.7c-0.5-0.5-0.9-1.3-1.3-1.7l0-0.1l-0.5-0.2l-0.6-0.3l0.1-0.2
		l0.7,0l0-2.1c0.4-0.1,0.1-0.7,0.1-0.7l-0.2,0.2c-0.3-0.3-1.3-0.5-1.9,0.3c-0.5,0.7-0.1,1.3,0.1,1.5l-0.3,0.5c0,0-0.7,0-1.2,0.2
		c-0.1,0-0.1,0.1-0.1,0.1l0-0.1l-3.9,0.9l-0.4,3.3h0l-0.3,0.4l-0.1,0.5l0.9,0.7l0.1-0.3l0.3,0l0.1-0.6l-0.3-0.7l0,0l0.5-1.7l0.2-0.9
		l2.4-0.3c-0.2,1,0,2.2,0.1,2.4c0.2,0.4,0.2,1.2,0.2,1.2l0.4,0.2l-0.9,1.4l0.1,1.5l-1.1,1.8l0.3,0.3l-0.7,1.1l-0.8,0.3l-2.2,3.1
		c0,0,0,0,0-0.1c0,0-0.5,0.1-0.9,0.3c-0.2,0.1-0.3,0.3-0.3,0.6c0.1,0.4,0.3,0.9,0.2,1.1c-0.1,0.3,0.3,1.5,0.9,1.2
		c0.2-0.1,0.1-0.6,0.1-0.6s-0.2-1.2,0.5-1.8c0,0,0,0,0,0l3.5-3l0.7-1.1l0.4,0.4l1.9-2.8l1.4,0.3l0.2-0.2l0.2,0.1l-0.7,1l-0.6,3
		c-0.1,0.1-0.5,0.4-0.6,1.1c0,0,0.4,0.2,0.7,0.7c0.4,0.4,1.6,0.3,1.6,0.3l0.1-0.3c0,0-0.6-0.3-0.7-0.5c-0.1-0.2-0.2-1.1-0.2-1.1h0
		l2.2-4.7l-1.1-0.8l-0.3-0.1l-2.3-1.1v-0.5l0.4,0c0.7-1,0.8-1.8,0.8-1.8l0.5-1.5c0.6,0.8,1.6,1.6,1.6,1.6l0.7,0v-3.6l0.2-0.9
		l-0.5-0.6L190.1,387.4z"/>
	<path fill="#7F8E8E" d="M207,389.1l-0.2-0.3l-0.5,0.3l-0.3,0.7l0,0l-1.7,0.7l0,0l0.1-0.5l-0.5-0.3l-0.6-0.4l0.1-0.2l0.7,0.1
		l0.2-2.2c0.4-0.1,0.1-0.7,0.1-0.7l-0.2,0.2c-0.3-0.4-1.3-0.6-2,0.2c-0.6,0.6-0.2,1.3,0,1.6l-0.4,0.5c0,0-0.8-0.1-1.3,0.1
		c-1.8,1.6-1.3,3.8-1,3.9c0.4,0.2,0.1,1.2,0.1,1.2l0.4,0.3l-0.5,1.2l-0.1,0.1l0,0.4l-0.1,1l0.1,0l0,0l-1.1,1.5l0.2,0.3l-0.7,0.9
		l-0.7,0.2l-2.3,2.6c0,0,0,0,0-0.1c0,0-0.5,0.1-0.8,0.2c-0.2,0.1-0.3,0.3-0.3,0.5c0.1,0.4,0.2,0.9,0.1,1c-0.1,0.2,0.1,1.3,0.7,1.1
		c0.2-0.1,0.2-0.6,0.2-0.6s-0.1-1.1,0.6-1.6c0,0,0,0,0,0l3.5-2.4l0.8-1l0.3,0.4l1.6-2l0.2,0.1l1.4,0.5l0.2-0.2l0.2,0.1l-0.8,1
		l-0.9,3.1c-0.1,0.1-0.5,0.4-0.7,1.1c0,0,0.4,0.3,0.7,0.8c0.3,0.5,1.6,0.5,1.6,0.5l0.1-0.3c0,0-0.6-0.5-0.6-0.8
		c-0.1-0.2-0.1-1.4-0.1-1.4h0l2.8-4.6l-1.1-0.8l0.1-0.1l-1.2-0.8l0.1-0.1l-0.3-0.4l0.1-0.3l-0.3-0.2l-0.1-0.3
		c0.7-0.9,0.6-1.6,0.6-1.6l0.6-1.6l-0.1-0.3l2.2-1.6v0l0.7,0l0.6-0.3l0-1.2L207,389.1z"/>
	<path fill="#7F8E8E" d="M174.6,388.6l-0.5,0.3l-0.3,0.7l0,0l-1.8,0.7l0,0l0.1-0.5l-0.5-0.3l-0.6-0.4l0.1-0.2l0.7,0.1l0.2-2.3
		c0.4-0.1,0.2-0.7,0.2-0.7l-0.2,0.2c-0.3-0.4-1.3-0.7-2,0.1c-0.6,0.6-0.2,1.4-0.1,1.6l-0.4,0.5c0,0-0.8-0.1-1.4,0.1
		c-1.5,1.1-1.3,3.6-1.1,4c0.2,0.4,0,1.3,0,1.3l0.4,0.3l-0.5,1.1l-0.1,0.1l0,0.5l-0.1,0.9l0.1,0l0,0l-1.2,1.5l0.2,0.3l-0.7,0.9
		l-0.8,0.2l-2.4,2.6c0,0,0,0,0-0.1c0,0-0.5,0.1-0.8,0.2c-0.2,0.1-0.4,0.3-0.3,0.5c0.1,0.4,0.2,0.9,0.1,1.1c-0.1,0.2,0.1,1.4,0.7,1.2
		c0.2-0.1,0.2-0.6,0.2-0.6s0-1.1,0.6-1.6c0,0,0,0,0,0l3.6-2.4l0.8-1l0.3,0.4l1.7-2l0.2,0.1l1.4,0.5l0.2-0.2l0.2,0.1l-0.9,1l-1,3.2
		c-0.1,0.1-0.6,0.4-0.8,1.1c0,0,0.4,0.3,0.7,0.8c0.3,0.5,1.7,0.6,1.7,0.6l0.2-0.3c0,0-0.6-0.4-0.6-0.6c-0.1-0.3-0.1-1.2-0.1-1.2l0,0
		l3-4.8l-1.1-1l0.1-0.1l-1.2-0.9l0.1-0.1l-0.3-0.4l0.2-0.3l-0.3-0.2l-0.1-0.4c0.7-0.9,0.7-1.7,0.7-1.7l0.7-1.6l0.1-0.3l2.4-1.5v0
		l0.6,0l0.6-0.3l0-1.2l-0.4,0.1L174.6,388.6z"/>
	<path fill="#7F8E8E" d="M85.8,388.6l-0.5,0.3l-0.3,0.7l0,0l-1.8,0.7l0,0l0.1-0.5l-0.5-0.3l-0.6-0.4l0.1-0.2l0.7,0.1l0.2-2.3
		c0.4-0.1,0.2-0.7,0.2-0.7l-0.2,0.2c-0.3-0.4-1.3-0.7-2,0.1c-0.6,0.6-0.2,1.4-0.1,1.6l-0.4,0.5c0,0-0.8-0.1-1.4,0.1
		c-1.5,1.1-1.3,3.6-1.1,4c0.2,0.4,0,1.3,0,1.3l0.4,0.3l-0.5,1.1l-0.1,0.1l0,0.5l-0.1,0.9l0.1,0l0,0l-1.2,1.5l0.2,0.3l-0.7,0.9
		l-0.8,0.2l-2.4,2.6c0,0,0,0,0-0.1c0,0-0.5,0.1-0.8,0.2c-0.2,0.1-0.4,0.3-0.3,0.5c0.1,0.4,0.2,0.9,0.1,1.1c-0.1,0.2,0.1,1.4,0.7,1.2
		c0.2-0.1,0.2-0.6,0.2-0.6s0-1.1,0.6-1.6c0,0,0,0,0,0l3.6-2.4l0.8-1l0.3,0.4l1.7-2l0.2,0.1l1.4,0.5l0.2-0.2l0.2,0.1l-0.9,1l-1,3.2
		c-0.1,0.1-0.6,0.4-0.8,1.1c0,0,0.4,0.3,0.7,0.8c0.3,0.5,1.7,0.6,1.7,0.6l0.2-0.3c0,0-0.6-0.4-0.6-0.6c-0.1-0.3-0.1-1.2-0.1-1.2l0,0
		l3-4.8l-1.1-1l0.1-0.1l-1.2-0.9l0.1-0.1l-0.3-0.4l0.2-0.3l-0.3-0.2l-0.1-0.4c0.7-0.9,0.7-1.7,0.7-1.7l0.7-1.6l0-0.3l2.3-1.5v0
		l0.7,0l0.6-0.3l0-1.2l-0.3,0.1L85.8,388.6z"/>
	<path fill="#7F8E8E" d="M240.6,388.6l-0.5,0.3l-0.3,0.7l0,0l-1.8,0.7l0,0l0.1-0.5l-0.5-0.3l-0.6-0.4l0.1-0.2l0.7,0.1l0.2-2.3
		c0.4-0.1,0.2-0.7,0.2-0.7l-0.2,0.2c-0.3-0.4-1.3-0.7-2,0.1c-0.6,0.6-0.2,1.4-0.1,1.6l-0.4,0.5c0,0-0.8-0.1-1.4,0.1
		c-1.5,1.1-1.3,3.6-1.1,4c0.2,0.4,0,1.3,0,1.3l0.4,0.3l-0.5,1.1l-0.1,0.1l0,0.5l-0.1,0.9l0.1,0l0,0l-1.2,1.5l0.2,0.3l-0.7,0.9
		l-0.8,0.2l-2.4,2.6c0,0,0,0,0-0.1c0,0-0.5,0.1-0.8,0.2c-0.2,0.1-0.4,0.3-0.3,0.5c0.1,0.4,0.2,0.9,0.1,1.1c-0.1,0.2,0.1,1.4,0.7,1.2
		c0.2-0.1,0.2-0.6,0.2-0.6s0-1.1,0.6-1.6c0,0,0,0,0,0l3.6-2.4l0.8-1l0.3,0.4l1.7-2l0.2,0.1l1.4,0.5l0.2-0.2l0.2,0.1l-0.9,1l-1,3.2
		c-0.1,0.1-0.6,0.4-0.8,1.1c0,0,0.4,0.3,0.7,0.8c0.3,0.5,1.7,0.6,1.7,0.6l0.2-0.3c0,0-0.6-0.4-0.6-0.6c-0.1-0.3-0.1-1.2-0.1-1.2l0,0
		l3-4.8l-1.1-1l0.1-0.1l-1.2-0.9l0.1-0.1l-0.3-0.4l0.2-0.3l-0.3-0.2l-0.1-0.4c0.7-0.9,0.7-1.7,0.7-1.7l0.7-1.6l0.1-0.3l2.4-1.5v0
		l0.6,0l0.6-0.3l0-1.2l-0.4,0.1L240.6,388.6z"/>
	<path fill="#7F8E8E" d="M323.5,388.6l-0.5,0.3l-0.3,0.7l0,0l-1.8,0.7l0,0l0.1-0.5l-0.5-0.3l-0.6-0.4l0.1-0.2l0.7,0.1l0.2-2.3
		c0.4-0.1,0.2-0.7,0.2-0.7l-0.2,0.2c-0.3-0.4-1.3-0.7-2,0.1c-0.6,0.6-0.2,1.4-0.1,1.6l-0.4,0.5c0,0-0.8-0.1-1.4,0.1
		c-1.5,1.1-1.3,3.6-1.1,4c0.2,0.4,0,1.3,0,1.3l0.4,0.3l-0.5,1.1l-0.1,0.1l0,0.5l-0.1,0.9l0.1,0l0,0l-1.2,1.5l0.2,0.3l-0.7,0.9
		l-0.8,0.2l-2.4,2.6c0,0,0,0,0-0.1c0,0-0.5,0.1-0.8,0.2c-0.2,0.1-0.4,0.3-0.3,0.5c0.1,0.4,0.2,0.9,0.1,1.1c-0.1,0.2,0.1,1.4,0.7,1.2
		c0.2-0.1,0.2-0.6,0.2-0.6s0-1.1,0.6-1.6c0,0,0,0,0,0l3.6-2.4l0.8-1l0.3,0.4l1.7-2l0.2,0.1l1.4,0.5l0.2-0.2l0.2,0.1l-0.9,1l-1,3.2
		c-0.1,0.1-0.6,0.4-0.8,1.1c0,0,0.4,0.3,0.7,0.8c0.3,0.5,1.7,0.6,1.7,0.6l0.2-0.3c0,0-0.6-0.4-0.6-0.6c-0.1-0.3-0.1-1.2-0.1-1.2l0,0
		l3-4.8l-1.1-1l0.1-0.1l-1.2-0.9l0.1-0.1l-0.3-0.4l0.2-0.3l-0.3-0.2l-0.1-0.4c0.7-0.9,0.7-1.7,0.7-1.7l0.7-1.6l0.1-0.3l2.5-1.5v0
		l0.5,0l0.5-0.3v-1.2l-0.3,0.1L323.5,388.6z"/>
	<path fill="#7F8E8E" d="M403.1,388.6l-0.5,0.3l-0.3,0.7l0,0l-1.8,0.7l0,0l0.1-0.5l-0.5-0.3l-0.6-0.4l0.1-0.2l0.7,0.1l0.2-2.3
		c0.4-0.1,0.2-0.7,0.2-0.7l-0.2,0.2c-0.3-0.4-1.3-0.7-2,0.1c-0.6,0.6-0.2,1.4-0.1,1.6l-0.4,0.5c0,0-0.8-0.1-1.4,0.1
		c-1.5,1.1-1.3,3.6-1.1,4c0.2,0.4,0,1.3,0,1.3l0.4,0.3l-0.5,1.1l-0.1,0.1l0,0.5l-0.1,0.9l0.1,0l0,0l-1.2,1.5l0.2,0.3l-0.7,0.9
		l-0.8,0.2l-2.4,2.6c0,0,0,0,0-0.1c0,0-0.5,0.1-0.8,0.2c-0.2,0.1-0.4,0.3-0.3,0.5c0.1,0.4,0.2,0.9,0.1,1.1c-0.1,0.2,0.1,1.4,0.7,1.2
		c0.2-0.1,0.2-0.6,0.2-0.6s0-1.1,0.6-1.6c0,0,0,0,0,0l3.6-2.4l0.8-1l0.3,0.4l1.7-2l0.2,0.1l1.4,0.5l0.2-0.2l0.2,0.1l-0.9,1l-1,3.2
		c-0.1,0.1-0.6,0.4-0.8,1.1c0,0,0.4,0.3,0.7,0.8c0.3,0.5,1.7,0.6,1.7,0.6l0.2-0.3c0,0-0.6-0.4-0.6-0.6c-0.1-0.3-0.1-1.2-0.1-1.2l0,0
		l3-4.8l-1.1-1l0.1-0.1l-1.2-0.9l0.1-0.1l-0.3-0.4l0.2-0.3l-0.3-0.2l-0.1-0.4c0.7-0.9,0.7-1.7,0.7-1.7l0.7-1.6l-0.2-0.3l2.2-1.5v0
		l0.8,0l0.7-0.3l0.1-1.2l-0.3,0.1L403.1,388.6z"/>
	<g>
		<path fill="#7F8E8E" d="M146.5,399l-1.8,1.2l-1.2,2.2l0,0l-1.2,0.2l-0.1,1.4l-0.2,0.7c0,0,0.5,0.9,0.5,0.9c0.1,0,0.5,0,0.3-0.5
			c-0.2-0.4,1.1-2.2,1.1-2.2l3.6-2.8l1.1-1.8l-1.4-0.8L146.5,399z"/>
		<path fill="#7F8E8E" d="M152,401.9c-0.1-0.3-0.1-0.5-0.1-0.6l0,0l2.7-4.4l-1.9-1.2l0,0l-2.2-1c0,0,0,0,0,0l0,0h0
			c0-0.3,0-1.4,0-2.5l0.7,0.7l2.3-2.6l0.6-0.5l0.2-0.8l-0.5-0.3l-0.5,0.2l-0.2,1.1l-1.7,1.6l-0.9-1.1c0-0.4-0.1-0.7-0.1-0.9
			c-0.1-0.2-0.3-0.4-0.5-0.5l0.1-0.6l0.8,0l-0.1-1.9l0.2-0.5v-0.4l-0.4-0.3c-0.4-0.2-0.9-0.2-1.3,0.1l-0.1,0c-0.5,0.4-0.8,1-0.7,1.7
			c0,0.2,0.1,0.3,0.1,0.4c0.1,0.1,0.3,0.4,0.4,0.6l-0.1,0.4c0,0-0.1,0-0.1,0l-1,1.1l-0.3,1l0,0.2l-1.1,1.1l1.5,2.6l-0.5,0.7l0.1,0.8
			l-0.7,1.1l1.9,1.1l0.7-1.4l1.8,0.4l0.2-0.3l1.2,0.5l-0.9,0.9l-0.7,2.2c-0.5,0.1-0.9,0.9-0.9,0.9s0.2,0.4,0.6,0.6
			c0.3,0.2,0.8,1,1.2,1.2c0.5,0.2,0.6-0.2,0.6-0.2C152.3,403,152,402.3,152,401.9z"/>
	</g>
	<g>
		<path fill="#7F8E8E" d="M54.7,399l-1.8,1.2l-1.2,2.2l0,0l-1.2,0.2l-0.1,1.4l-0.2,0.7c0,0,0.5,0.9,0.5,0.9c0.1,0,0.5,0,0.3-0.5
			c-0.2-0.4,1.1-2.2,1.1-2.2l3.6-2.8l1.1-1.8l-1.4-0.8L54.7,399z"/>
		<path fill="#7F8E8E" d="M60.2,401.9c-0.1-0.3-0.1-0.5-0.1-0.6l0,0l2.7-4.4l-1.9-1.2l0,0l-2.2-1c0,0,0,0,0,0l0,0h0
			c0-0.3,0-1.4,0-2.5l0.7,0.7l2.3-2.6l0.6-0.5l0.2-0.8l-0.5-0.3l-0.5,0.2l-0.2,1.1l-1.7,1.6l-0.9-1.1c0-0.4-0.1-0.7-0.1-0.9
			c-0.1-0.2-0.3-0.4-0.5-0.5l0.1-0.6l0.8,0l0.2-1.9l0.5-0.5v-0.4l-0.8-0.3c-0.4-0.2-1.1-0.2-1.5,0.1l-0.2,0c-0.5,0.4-0.9,1-0.8,1.7
			c0,0.2,0.1,0.3,0.1,0.4c0.1,0.1,0.3,0.4,0.4,0.6l-0.1,0.4c0,0-0.1,0-0.1,0l-1,1.1l-0.3,1l0,0.2l-1.1,1.1l1.5,2.6l-0.5,0.7l0.1,0.8
			l-0.7,1.1l1.9,1.1l0.7-1.4l1.8,0.4l0.2-0.3l1.2,0.5l-0.9,0.9l-0.7,2.2c-0.5,0.1-0.9,0.9-0.9,0.9s0.2,0.4,0.6,0.6
			c0.3,0.2,0.8,1,1.2,1.2c0.5,0.2,0.6-0.2,0.6-0.2C60.5,403,60.3,402.3,60.2,401.9z"/>
	</g>
	<path fill="#7F8E8E" d="M222.3,388.9l-0.2-0.3l-0.5,0.3l-0.3,0.7l0,0l-1.8,0.7l0,0l0.1-0.5l-0.5-0.3l-0.6-0.4l0.1-0.2l0.7,0.1
		l0.2-2.3c0.4-0.1,0.2-0.7,0.2-0.7l-0.2,0.2c-0.3-0.4-1.3-0.7-2,0.1c-0.6,0.6-0.2,1.4-0.1,1.6l-0.4,0.5c0,0-0.8-0.1-1.4,0.1
		c-1.5,1.1-1.3,3.6-1.1,4c0.2,0.4,0,1.3,0,1.3l0.4,0.3l-0.5,1.1l-0.1,0.1l0,0.5l-0.1,0.9l0.1,0l0,0l-1.2,1.5l0.2,0.3l-0.7,0.9
		l-0.8,0.2l-2.4,2.6c0,0,0,0,0-0.1c0,0-0.5,0.1-0.8,0.2c-0.2,0.1-0.4,0.3-0.3,0.5c0.1,0.4,0.2,0.9,0.1,1.1c-0.1,0.2,0.1,1.4,0.7,1.2
		c0.2-0.1,0.2-0.6,0.2-0.6s0-1.1,0.6-1.6c0,0,0,0,0,0l3.6-2.4l0.8-1l0.3,0.4l1.7-2l0.2,0.1l1.4,0.5l0.2-0.2l0.2,0.1l-0.9,1l-1,3.2
		c-0.1,0.1-0.6,0.4-0.8,1.1c0,0,0.4,0.3,0.7,0.8c0.3,0.5,1.7,0.6,1.7,0.6l0.2-0.3c0,0-0.6-0.4-0.6-0.6c-0.1-0.3-0.1-1.2-0.1-1.2l0,0
		l3-4.8l-1.1-1l0.1-0.1l-1.2-0.9l0.1-0.1l-0.3-0.4l0.2-0.3l-0.3-0.2l-0.1-0.4c0.7-0.9,0.7-1.7,0.7-1.7l0.7-1.6l0.3-0.3l2.7-1.5v0
		l0.3,0l0.4-0.3l0-1.2L222.3,388.9z"/>
	<rect x="432.8" y="371.9" fill="#754C24" width="1.2" height="33.9"/>
	<g>
		<polygon fill="#E0A984" points="162,396.9 162.6,397.2 161.9,398.2 161.3,401.3 162.3,401.5 164.5,396.6 163.2,395.7 		"/>
		<polygon fill="#E0A984" points="159,398.7 157.9,400.4 154.2,403.5 153.5,403.4 153.8,402.8 156,399.7 156.8,399.3 157.9,397.5 		
			"/>
		<path fill="#8C6239" d="M160.8,387.5c0,0-0.7-0.7-0.2-1.5c0.6-0.8,1.5-0.6,1.9-0.3l0.2-0.2c0,0,0.3,0.5-0.1,0.7
			c-0.1,0-0.2,1.5-0.2,1.4s-0.8,0.4-0.8,0.4L160.8,387.5z"/>
		<path fill="#E0A984" d="M160.4,387.9l0.3-0.5l0.8,0.1l0.2-0.4c0,0-0.4-0.4,0.1-0.4l0.2,0.6l0.2-0.1l-0.1-0.7l0.4-0.4l0,2.1l-0.7,0
			l-0.2,0.5L160.4,387.9z"/>
		<polygon fill="#874992" points="158.8,393.2 161,393.9 161,394.7 163.2,395.8 162.1,397.3 160.8,396.9 159.5,394.5 		"/>
		<polygon fill="#C07BCE" points="159.1,393.3 158.2,394.7 158.2,396.2 157.2,398 159,399.7 160.9,396.9 161.6,393.9 		"/>
		<polygon fill="#E0A984" points="158.4,389.5 156,389.8 155.8,390.7 155.3,392.4 154.7,392.3 155.1,389 159,388.2 		"/>
		<path fill="#F7CD14" d="M159.2,393.4l-0.5-0.3c0,0,0-0.8-0.2-1.2c-0.2-0.4-0.6-2.6,0.6-3.8c0.5-0.2,1.2-0.2,1.2-0.2
			s0.7,0.4,1.2,0.3l0.8,0.4l0.5,0.2l-0.2,2.1l-0.4,1.5c0,0,0.1,0.8-0.6,1.8L159.2,393.4z"/>
		<path fill="#E0A984" d="M162.4,388.8c-0.5,0.4-0.4,1.1,0.2,2s1.7,1.7,1.7,1.7l0.7,0v-3.6l-0.6,0l-0.1,1.7
			C163.5,389.7,162.9,388.4,162.4,388.8z"/>
		<polygon fill="#E0A984" points="155.2,392.3 155.6,393 155.5,393.6 155.2,393.6 155.1,393.9 154.2,393.2 154.4,392.7 154.8,392.2 
					"/>
		<path fill="#E0A984" d="M164.4,388.8l-0.4-0.4l0.2-0.4l-0.2-0.2l0.6-0.4l0.5,0.6l-0.2,0.9C164.9,388.8,164.9,389.3,164.4,388.8z"
			/>
		<path fill="#333333" d="M161.4,401.2c0,0-0.5,0.3-0.7,1.1c0,0,0.4,0.2,0.7,0.7c0.4,0.4,1.6,0.3,1.6,0.3l0.1-0.3
			c0,0-0.6-0.3-0.7-0.5s-0.2-1.1-0.2-1.1L161.4,401.2z"/>
		<path fill="#333333" d="M153.8,402.7c0,0-0.5,0.1-0.9,0.3c-0.2,0.1-0.3,0.3-0.3,0.6c0.1,0.4,0.3,0.9,0.2,1.1
			c-0.1,0.3,0.3,1.5,0.9,1.2c0.2-0.1,0.1-0.6,0.1-0.6s-0.2-1.2,0.5-1.8C154.3,403.4,153.6,403.3,153.8,402.7z"/>
	</g>
	<g>
		<polygon fill="#E0A984" points="406.7,396.9 407.3,397.2 406.6,398.2 406,401.3 406.9,401.5 409.2,396.6 407.9,395.7 		"/>
		<polygon fill="#E0A984" points="403.6,398.7 402.5,400.4 398.8,403.5 398.2,403.4 398.4,402.8 400.7,399.7 401.4,399.3 
			402.6,397.5 		"/>
		<path fill="#8C6239" d="M405.4,387.5c0,0-0.7-0.7-0.2-1.5c0.6-0.8,1.5-0.6,1.9-0.3l0.2-0.2c0,0,0.3,0.5-0.1,0.7
			c-0.1,0-0.2,1.5-0.2,1.4s-0.8,0.4-0.8,0.4L405.4,387.5z"/>
		<path fill="#E0A984" d="M405,387.9l0.3-0.5l0.8,0.1l0.2-0.4c0,0-0.4-0.4,0.1-0.4l0.2,0.6l0.2-0.1l-0.1-0.7l0.4-0.4l0,2.1l-0.7,0
			l-0.2,0.5L405,387.9z"/>
		<polygon fill="#874992" points="404.1,393.2 407,393.9 407,394.7 408.5,395.8 407.1,397.3 405.6,396.9 404.6,394.5 		"/>
		<polygon fill="#C07BCE" points="403.7,393.3 402.8,394.7 402.9,396.2 401.8,398 403.7,399.7 405.5,396.9 406.3,393.9 		"/>
		<polygon fill="#E0A984" points="403.1,389.5 400.7,389.8 400.5,390.7 399.9,392.4 399.3,392.3 399.8,389 403.7,388.2 		"/>
		<path fill="#F7CD14" d="M403.8,393.4l-0.5-0.3c0,0,0-0.8-0.2-1.2c-0.2-0.4-0.6-2.6,0.6-3.8c0.5-0.2,1.2-0.2,1.2-0.2
			s0.7,0.4,1.2,0.3l0.8,0.4l0.5,0.2l-0.2,2.1l-0.4,1.5c0,0,0.1,0.8-0.6,1.8L403.8,393.4z"/>
		<path fill="#E0A984" d="M407,388.8c-0.5,0.4-0.4,1.1,0.2,2c0.6,0.9,1.4,1.7,1.4,1.7l0.4,0v-3.6l-0.3,0l0,1.7
			C408,389.7,407.5,388.4,407,388.8z"/>
		<polygon fill="#E0A984" points="399.8,392.3 400.2,393 400.1,393.6 399.8,393.6 399.7,393.9 398.9,393.2 399,392.7 399.4,392.2 		
			"/>
		<path fill="#E0A984" d="M409,388.8l-0.4-0.4l0.2-0.4l-0.2-0.2l0.6-0.4l0.5,0.6l-0.2,0.9C409.6,388.8,409.5,389.3,409,388.8z"/>
		<path fill="#333333" d="M406,401.2c0,0-0.5,0.3-0.7,1.1c0,0,0.4,0.2,0.7,0.7c0.4,0.4,1.6,0.3,1.6,0.3l0.1-0.3c0,0-0.6-0.3-0.7-0.5
			s-0.2-1.1-0.2-1.1L406,401.2z"/>
		<path fill="#333333" d="M398.5,402.7c0,0-0.5,0.1-0.9,0.3c-0.2,0.1-0.3,0.3-0.3,0.6c0.1,0.4,0.3,0.9,0.2,1.1
			c-0.1,0.3,0.3,1.5,0.9,1.2c0.2-0.1,0.1-0.6,0.1-0.6s-0.2-1.2,0.5-1.8C399,403.4,398.2,403.3,398.5,402.7z"/>
	</g>
	<g>
		<polygon fill="#E0A984" points="175.9,399.2 174.8,400.7 171.1,403.2 170.6,403 170.8,402.5 173.1,399.8 173.9,399.6 175,398 		
			"/>
		<polygon fill="#458996" points="176.4,394.2 175.5,395.5 175.5,396.9 174.3,398.4 175.9,400.1 177.8,397.7 178.7,395.1 		"/>
		<path fill="#333333" d="M170.9,402.4c0,0-0.5,0.1-0.8,0.2c-0.2,0.1-0.3,0.3-0.3,0.5c0.1,0.4,0.2,0.9,0.1,1
			c-0.1,0.2,0.1,1.3,0.7,1.1c0.2-0.1,0.2-0.6,0.2-0.6s-0.1-1.1,0.6-1.6C171.3,403.1,170.6,402.9,170.9,402.4z"/>
		<polygon fill="#E0A984" points="178.9,398.4 179.5,398.7 178.6,399.7 177.7,402.9 178.7,403.2 181.5,398.3 180.3,397.2 		"/>
		<path fill="#8C6239" d="M178.4,388.3c0,0-0.7-0.9,0-1.7c0.7-0.8,1.7-0.5,2-0.2l0.2-0.2c0,0,0.3,0.6-0.1,0.7
			c-0.1,0-0.3,1.5-0.3,1.5s-0.9,0.4-0.9,0.4L178.4,388.3z"/>
		<path fill="#E0A984" d="M177.9,388.7l0.4-0.5l0.9,0.2l0.2-0.4c0,0-0.3-0.5,0.2-0.5l0.2,0.6l0.2-0.1l-0.1-0.8l0.4-0.4l-0.2,2.2
			l-0.7-0.1l-0.3,0.5L177.9,388.7z"/>
		<polygon fill="#56C2BD" points="176.1,394.2 178.7,395.1 178.6,396 180.6,397.3 179.1,398.7 177.7,398.3 175.4,396.8 175.5,395.5 
					"/>
		<polygon fill="#E0A984" points="177.7,389.1 179.6,390.8 180.5,390.3 182.2,389.6 182.5,390.1 179.7,392 176.3,389.5 		"/>
		<path fill="#C20004" d="M176.2,394.3l-0.5-0.4c0,0,0.4-1.1-0.1-1.2c-0.3-0.1-0.8-2.3,1-3.9c0.5-0.2,1.3-0.1,1.3-0.1
			s0.7,0.4,1.3,0.4l0.8,0.5l0.5,0.3l-0.4,2.2l-0.6,1.6c0,0,0.1,0.9-0.8,1.9L176.2,394.3z"/>
		<path fill="#E0A984" d="M180.2,390.1c-0.5-0.4-1.2-0.1-2,0.7c-0.7,0.8-1.4,2.1-1.4,2.1l0.2,0.7l1.3,2.3l0.7-0.2l-0.9-2.7
			C178.9,392,180.8,390.5,180.2,390.1z"/>
		<polygon fill="#E0A984" points="182.2,389.7 182.6,388.9 183.1,388.5 183.3,388.8 183.6,388.7 183.6,389.8 183.1,390.1 
			182.4,390.1 		"/>
		<path fill="#E0A984" d="M179.1,396.8l0.4-0.5l-0.3-0.4l0.1-0.3l-0.3-0.2l-0.6,0.4l0.1,1C178.5,396.9,178.6,397.4,179.1,396.8z"/>
		<path fill="#333333" d="M177.8,402.8c0,0-0.5,0.2-0.8,1.1c0,0,0.4,0.3,0.7,0.8c0.3,0.5,1.6,0.5,1.6,0.5l0.1-0.3
			c0,0-0.6-0.4-0.6-0.6c-0.1-0.2-0.1-1.2-0.1-1.2L177.8,402.8z"/>
	</g>
	<g>
		<polygon fill="#E0A984" points="368.4,399.2 367.2,400.7 363.6,403.2 363,403 363.3,402.5 365.6,399.8 366.4,399.6 367.5,398 		
			"/>
		<polygon fill="#458996" points="368.9,394.2 368,395.5 367.9,396.9 366.8,398.4 368.4,400.1 370.3,397.7 371.2,395.1 		"/>
		<path fill="#333333" d="M363.4,402.4c0,0-0.5,0.1-0.8,0.2c-0.2,0.1-0.3,0.3-0.3,0.5c0.1,0.4,0.2,0.9,0.1,1
			c-0.1,0.2,0.1,1.3,0.7,1.1c0.2-0.1,0.2-0.6,0.2-0.6s-0.1-1.1,0.6-1.6C363.8,403.1,363.1,402.9,363.4,402.4z"/>
		<polygon fill="#E0A984" points="371.4,398.4 371.9,398.7 371.1,399.7 370.2,402.9 371.1,403.2 374,398.3 372.7,397.2 		"/>
		<path fill="#8C6239" d="M370.9,388.3c0,0-0.7-0.9,0-1.7c0.7-0.8,1.7-0.5,2-0.2l0.2-0.2c0,0,0.3,0.6-0.1,0.7
			c-0.1,0-0.3,1.5-0.3,1.5s-0.9,0.4-0.9,0.4L370.9,388.3z"/>
		<path fill="#E0A984" d="M370.4,388.7l0.4-0.5l0.9,0.2l0.2-0.4c0,0-0.3-0.5,0.2-0.5l0.2,0.6l0.2-0.1l-0.1-0.8l0.4-0.4l-0.2,2.2
			L372,389l-0.3,0.5L370.4,388.7z"/>
		<polygon fill="#56C2BD" points="368.6,394.2 371.2,395.1 371.1,396 373,397.3 371.5,398.7 370.1,398.3 367.9,396.8 368,395.5 		
			"/>
		<polygon fill="#E0A984" points="370.2,389.1 372.1,390.8 373,390.3 374.7,389.6 375,390.1 372.2,392 368.7,389.5 		"/>
		<path fill="#C20004" d="M368.6,394.3l-0.5-0.4c0,0,0.4-1.1-0.1-1.2c-0.3-0.1-0.8-2.3,1-3.9c0.5-0.2,1.3-0.1,1.3-0.1
			s0.7,0.4,1.3,0.4l0.8,0.5l0.5,0.3l-0.4,2.2l-0.6,1.6c0,0,0.1,0.9-0.8,1.9L368.6,394.3z"/>
		<path fill="#E0A984" d="M372.7,390.1c-0.5-0.4-1.2-0.1-2,0.7s-1.4,2.1-1.4,2.1l0.2,0.7l1.3,2.3l0.7-0.2l-0.9-2.7
			C371.3,392,373.2,390.5,372.7,390.1z"/>
		<polygon fill="#E0A984" points="374.7,389.7 375,388.9 375.6,388.5 375.7,388.8 376.1,388.7 376.1,389.8 375.6,390.1 374.9,390.1 
					"/>
		<path fill="#E0A984" d="M371.6,396.8l0.4-0.5l-0.3-0.4l0.1-0.3l-0.3-0.2l-0.6,0.4l0.1,1C370.9,396.9,371.1,397.4,371.6,396.8z"/>
		<path fill="#333333" d="M370.3,402.8c0,0-0.5,0.2-0.8,1.1c0,0,0.4,0.3,0.7,0.8c0.3,0.5,1.6,0.5,1.6,0.5l0.1-0.3
			c0,0-0.6-0.4-0.6-0.6c-0.1-0.2-0.1-1.2-0.1-1.2L370.3,402.8z"/>
	</g>
	<g>
		<polygon fill="#E0A984" points="137.9,399.4 136.7,400.8 132.9,403.3 132.3,403.1 132.6,402.6 135,399.9 135.8,399.7 137,398.1 		
			"/>
		<polygon fill="#ED4514" points="138.6,394.2 137.6,395.5 137.5,396.9 136.3,398.5 137.8,400.2 139.9,397.9 140.9,395.1 		"/>
		<path fill="#333333" d="M132.6,402.5c0,0-0.5,0.1-0.8,0.2c-0.2,0.1-0.4,0.3-0.3,0.5c0.1,0.4,0.2,0.9,0.1,1.1
			c-0.1,0.2,0.1,1.4,0.7,1.2c0.2-0.1,0.2-0.6,0.2-0.6s0-1.1,0.6-1.6C133.1,403.2,132.4,403,132.6,402.5z"/>
		<polygon fill="#E0A984" points="141,398.5 141.5,398.9 140.7,399.9 139.6,403.2 140.6,403.5 143.7,398.5 142.4,397.4 		"/>
		<path fill="#8C6239" d="M140.8,388.2c0,0-0.7-0.9,0-1.7c0.7-0.8,1.7-0.5,2-0.1l0.2-0.2c0,0,0.3,0.6-0.2,0.7
			c-0.1,0-0.4,1.6-0.4,1.5c0,0-1,0.3-1,0.3L140.8,388.2z"/>
		<path fill="#E0A984" d="M140.3,388.6l0.4-0.5l0.9,0.2l0.2-0.4c0,0-0.3-0.5,0.2-0.5l0.2,0.7l0.3-0.1l0-0.8l0.5-0.4l-0.2,2.3
			l-0.7-0.1l-0.3,0.5L140.3,388.6z"/>
		<polygon fill="#ED681D" points="138.2,394.2 140.9,395.2 140.8,396.1 142.7,397.5 141.1,398.9 139.7,398.4 137.4,396.8 
			137.6,395.5 		"/>
		<polygon fill="#E0A984" points="140,389 142,390.8 142.9,390.3 144.7,389.6 145,390.2 142,392.1 138.5,389.4 		"/>
		<path fill="#94CE5E" d="M138.3,394.3l-0.5-0.4c0,0,0.1-0.8,0-1.3s-0.4-2.9,1.1-4c0.6-0.2,1.4-0.1,1.4-0.1s0.7,0.5,1.3,0.4l0.8,0.5
			l0.5,0.3l-0.5,2.2l-0.7,1.6c0,0,0,0.9-0.9,1.9L138.3,394.3z"/>
		<path fill="#E0A984" d="M142.6,390.1c-0.5-0.4-1.3-0.2-2.1,0.7c-0.8,0.8-1.4,2.2-1.4,2.2l0.2,0.7l1.2,2.4l0.7-0.2l-0.8-2.8
			C141.1,392,143.1,390.5,142.6,390.1z"/>
		<polygon fill="#E0A984" points="144.6,389.8 145,388.9 145.5,388.6 145.7,388.9 146.1,388.7 146.1,389.9 145.5,390.2 144.8,390.2 
					"/>
		<path fill="#E0A984" d="M141.2,397l0.4-0.5l-0.3-0.4l0.2-0.3l-0.4-0.2l-0.7,0.3l0.1,1C140.6,397,140.7,397.6,141.2,397z"/>
		<path fill="#333333" d="M139.7,403.1c0,0-0.6,0.2-0.8,1.1c0,0,0.4,0.3,0.7,0.8c0.3,0.5,1.7,0.6,1.7,0.6l0.2-0.3
			c0,0-0.6-0.4-0.6-0.6s-0.1-1.2-0.1-1.2L139.7,403.1z"/>
	</g>
	<g>
		<polygon fill="#E0A984" points="41.8,399.4 40.6,400.8 36.8,403.3 36.2,403.1 36.5,402.6 39,399.9 39.7,399.7 41,398.1 		"/>
		<polygon fill="#ED4514" points="42.5,394.2 41.5,395.5 41.4,396.9 40.2,398.5 41.8,400.2 43.8,397.9 44.8,395.1 		"/>
		<path fill="#333333" d="M36.6,402.5c0,0-0.5,0.1-0.8,0.2c-0.2,0.1-0.4,0.3-0.3,0.5c0.1,0.4,0.2,0.9,0.1,1.1
			c-0.1,0.2,0.1,1.4,0.7,1.2c0.2-0.1,0.2-0.6,0.2-0.6s0-1.1,0.6-1.6C37,403.2,36.3,403,36.6,402.5z"/>
		<polygon fill="#E0A984" points="44.9,398.5 45.5,398.9 44.6,399.9 43.6,403.2 44.5,403.5 47.6,398.5 46.3,397.4 		"/>
		<path fill="#8C6239" d="M44.7,388.2c0,0-0.7-0.9,0-1.7c0.7-0.8,1.7-0.5,2-0.1l0.2-0.2c0,0,0.3,0.6-0.2,0.7c-0.1,0-0.4,1.6-0.4,1.5
			s-1,0.3-1,0.3L44.7,388.2z"/>
		<path fill="#E0A984" d="M44.2,388.6l0.4-0.5l0.9,0.2l0.2-0.4c0,0-0.3-0.5,0.2-0.5l0.2,0.7l0.3-0.1l0-0.8l0.5-0.4l-0.2,2.3
			l-0.7-0.1l-0.3,0.5L44.2,388.6z"/>
		<polygon fill="#ED681D" points="42.2,394.2 44.9,395.2 44.8,396.1 46.7,397.5 45.1,398.9 43.6,398.4 41.3,396.8 41.5,395.5 		"/>
		<polygon fill="#E0A984" points="44,389 45.9,390.8 46.8,390.3 48.6,389.6 48.9,390.2 45.9,392.1 42.5,389.4 		"/>
		<path fill="#94CE5E" d="M42.2,394.3l-0.5-0.4c0,0,0.1-0.8,0-1.3c-0.2-0.4-0.4-2.9,1.1-4c0.6-0.2,1.4-0.1,1.4-0.1s0.7,0.5,1.3,0.4
			l0.8,0.5l0.5,0.3l-0.5,2.2l-0.7,1.6c0,0,0,0.9-0.9,1.9L42.2,394.3z"/>
		<path fill="#E0A984" d="M46.5,390.1c-0.5-0.4-1.3-0.2-2.1,0.7c-0.8,0.8-1.4,2.2-1.4,2.2l0.2,0.7l1.2,2.4l0.7-0.2l-0.8-2.8
			C45,392,47,390.5,46.5,390.1z"/>
		<polygon fill="#E0A984" points="48.5,389.8 48.9,388.9 49.5,388.6 49.7,388.9 50,388.7 50,389.9 49.4,390.2 48.7,390.2 		"/>
		<path fill="#E0A984" d="M45.1,397l0.4-0.5l-0.3-0.4l0.2-0.3l-0.4-0.2l-0.7,0.3l0.1,1C44.5,397,44.6,397.6,45.1,397z"/>
		<path fill="#333333" d="M43.7,403.1c0,0-0.6,0.2-0.8,1.1c0,0,0.4,0.3,0.7,0.8c0.3,0.5,1.7,0.6,1.7,0.6l0.2-0.3
			c0,0-0.6-0.4-0.6-0.6c-0.1-0.3-0.1-1.2-0.1-1.2L43.7,403.1z"/>
	</g>
	<g>
		<path fill="#8C6239" d="M194.6,388.2c0,0-0.3-0.6-0.5-0.7c0,0-0.1-0.2-0.1-0.4c-0.1-0.6,0.2-1.3,0.7-1.7l0.1,0
			c0.4-0.3,0.9-0.3,1.4-0.1l0.5,0.3v0.4l-0.7,1.5C196,387.5,195.3,388.5,194.6,388.2z"/>
		<polygon fill="#E0A984" points="189,402.2 189.5,402.7 193.1,399.9 194.2,398.1 192.7,397.3 192,398.8 190.2,400 		"/>
		<polygon fill="#E0A984" points="196.8,400.6 197.5,401.1 200.2,396.7 198.3,395.5 197,397 198.3,397.5 197.4,398.5 		"/>
		<path fill="#E0A984" d="M195.6,389l0.2-0.6l0.8,0l-0.1-2.4l-0.9,0.3l0.2,1l-0.2,0.1c0,0-0.2-0.9-0.7-0.5c-0.3,0.3,0.2,0.7,0.2,0.7
			v0.5l-0.4,0l-0.1,0.5L195.6,389z"/>
		<polygon fill="#E0A984" points="194,390.1 192.1,392 193.6,394.6 194.2,393.9 193.5,392 194.6,391.3 		"/>
		<polygon fill="#E0A984" points="198.7,390.1 198.9,388.8 199.4,388.7 199.9,389 199.8,389.8 199.2,390.2 		"/>
		<polygon fill="#2E3192" points="196.9,397.3 198.3,395.6 196.1,394.6 195.3,394.9 194.9,396.8 		"/>
		<path fill="#D9E021" d="M196.2,394.6c0.1-0.4,0.1-4.4-0.1-5.1c-0.2-0.7-1.6-1-1.6-1l-1,1.1l-0.3,1l0.7,3.9L196.2,394.6z"/>
		<path fill="#333333" d="M189.2,402.1l-1.3,0.2l-0.1,1.4l-0.2,0.7c0,0,0.5,0.9,0.5,0.9c0.1,0,0.5,0,0.3-0.5
			c-0.2-0.4,1.1-2.2,1.1-2.2L189.2,402.1z"/>
		<path fill="#333333" d="M197.5,401c0,0.1,0,0.4,0.1,0.7c0.1,0.4,0.3,1.1,0.7,1.4c0,0-0.1,0.4-0.6,0.2c-0.5-0.2-0.9-0.9-1.2-1.2
			s-0.6-0.6-0.6-0.6s0.4-0.8,0.9-0.9L197.5,401z"/>
		<polygon fill="#0071BC" points="192.5,397.2 194.3,398.2 196.2,394.6 193.8,394.2 193.1,395.3 193.2,396.1 		"/>
		<polygon fill="#E0A984" points="195,390.8 196.9,392.8 199.2,390.2 198.8,389.8 197,391.5 196,390.1 		"/>
	</g>
	<g>
		<polygon fill="#E0A984" points="230.1,396.9 230.6,397.2 229.9,398.2 229.4,401.3 230.3,401.5 232.5,396.6 231.3,395.7 		"/>
		<polygon fill="#E0A984" points="227,398.7 225.9,400.4 222.2,403.5 221.6,403.4 221.8,402.8 224,399.7 224.8,399.3 225.9,397.5 		
			"/>
		<path fill="#8C6239" d="M228.8,387.5c0,0-0.7-0.7-0.2-1.5c0.6-0.8,1.5-0.6,1.9-0.3l0.2-0.2c0,0,0.3,0.5-0.1,0.7
			c-0.1,0-0.2,1.5-0.2,1.4s-0.8,0.4-0.8,0.4L228.8,387.5z"/>
		<path fill="#E0A984" d="M228.4,387.9l0.3-0.5l0.8,0.1l0.2-0.4c0,0-0.4-0.4,0.1-0.4l0.2,0.6l0.2-0.1l-0.1-0.7l0.4-0.4l0,2.1l-0.7,0
			l-0.2,0.5L228.4,387.9z"/>
		<polygon fill="#458996" points="226.8,393.2 229,393.9 229,394.7 231.2,395.8 230.1,397.3 228.8,396.9 227.5,394.5 		"/>
		<polygon fill="#56C2BD" points="227.1,393.3 226.2,394.7 226.3,396.2 225.2,398 227,399.7 228.9,396.9 229.6,393.9 		"/>
		<polygon fill="#E0A984" points="226.4,389.5 224,389.8 223.8,390.7 223.3,392.4 222.7,392.3 223.1,389 227,388.2 		"/>
		<path fill="#0071BC" d="M227.2,393.4l-0.5-0.3c0,0,0-0.8-0.2-1.2c-0.2-0.4-0.6-2.6,0.6-3.8c0.5-0.2,1.2-0.2,1.2-0.2
			s0.7,0.4,1.2,0.3l0.8,0.4l0.5,0.2l-0.2,2.1l-0.4,1.5c0,0,0.1,0.8-0.6,1.8L227.2,393.4z"/>
		<path fill="#E0A984" d="M230.4,388.8c-0.5,0.4-0.4,1.1,0.2,2c0.6,0.9,1.7,1.7,1.7,1.7l0.7,0v-3.6l-0.6,0l-0.1,1.7
			C231.5,389.7,230.9,388.4,230.4,388.8z"/>
		<polygon fill="#E0A984" points="223.2,392.3 223.6,393 223.5,393.6 223.2,393.6 223.1,393.9 222.2,393.2 222.4,392.7 222.8,392.2 
					"/>
		<path fill="#E0A984" d="M232.4,388.8l-0.4-0.4l0.2-0.4l-0.2-0.2l0.6-0.4l0.5,0.6l-0.2,0.9C232.9,388.8,232.9,389.3,232.4,388.8z"
			/>
		<path fill="#333333" d="M229.4,401.2c0,0-0.5,0.3-0.7,1.1c0,0,0.4,0.2,0.7,0.7c0.4,0.4,1.6,0.3,1.6,0.3l0.1-0.3
			c0,0-0.6-0.3-0.7-0.5c-0.1-0.2-0.2-1.1-0.2-1.1L229.4,401.2z"/>
		<path fill="#333333" d="M221.8,402.7c0,0-0.5,0.1-0.9,0.3c-0.2,0.1-0.3,0.3-0.3,0.6c0.1,0.4,0.3,0.9,0.2,1.1
			c-0.1,0.3,0.3,1.5,0.9,1.2c0.2-0.1,0.1-0.6,0.1-0.6s-0.2-1.2,0.5-1.8C222.4,403.4,221.6,403.3,221.8,402.7z"/>
	</g>
	<g>
		<polygon fill="#E0A984" points="239.3,399.2 238.2,400.7 234.5,403.2 234,403 234.2,402.5 236.5,399.8 237.3,399.6 238.4,398 		
			"/>
		<polygon fill="#46A26B" points="239.8,394.2 238.9,395.5 238.8,396.9 237.7,398.4 239.3,400.1 241.2,397.7 242.1,395.1 		"/>
		<path fill="#333333" d="M234.3,402.4c0,0-0.5,0.1-0.8,0.2c-0.2,0.1-0.3,0.3-0.3,0.5c0.1,0.4,0.2,0.9,0.1,1
			c-0.1,0.2,0.1,1.3,0.7,1.1c0.2-0.1,0.2-0.6,0.2-0.6s-0.1-1.1,0.6-1.6C234.7,403.1,234,402.9,234.3,402.4z"/>
		<polygon fill="#E0A984" points="242.3,398.4 242.8,398.7 242,399.7 241.1,402.9 242.1,403.2 244.9,398.3 243.6,397.2 		"/>
		<path fill="#8C6239" d="M241.8,388.3c0,0-0.7-0.9,0-1.7c0.7-0.8,1.7-0.5,2-0.2l0.2-0.2c0,0,0.3,0.6-0.1,0.7
			c-0.1,0-0.3,1.5-0.3,1.5s-0.9,0.4-0.9,0.4L241.8,388.3z"/>
		<path fill="#E0A984" d="M241.3,388.7l0.4-0.5l0.9,0.2l0.2-0.4c0,0-0.3-0.5,0.2-0.5l0.2,0.6l0.2-0.1l-0.1-0.8l0.4-0.4l-0.2,2.2
			l-0.7-0.1l-0.3,0.5L241.3,388.7z"/>
		<polygon fill="#94CE5E" points="239.5,394.2 242.1,395.1 242,396 243.9,397.3 242.4,398.7 241,398.3 238.8,396.8 238.9,395.5 		
			"/>
		<polygon fill="#E0A984" points="241.1,389.1 243,390.8 243.9,390.3 245.6,389.6 245.9,390.1 243.1,392 239.6,389.5 		"/>
		<path fill="#874992" d="M239.5,394.3l-0.5-0.4c0,0,0.4-1.1-0.1-1.2c-0.3-0.1-0.8-2.3,1-3.9c0.5-0.2,1.3-0.1,1.3-0.1
			s0.7,0.4,1.3,0.4l0.8,0.5l0.5,0.3l-0.4,2.2l-0.6,1.6c0,0,0.1,0.9-0.8,1.9L239.5,394.3z"/>
		<path fill="#E0A984" d="M243.6,390.1c-0.5-0.4-1.2-0.1-2,0.7c-0.7,0.8-1.4,2.1-1.4,2.1l0.2,0.7l1.3,2.3l0.7-0.2l-0.9-2.7
			C242.2,392,244.1,390.5,243.6,390.1z"/>
		<polygon fill="#E0A984" points="245.6,389.7 246,388.9 246.5,388.5 246.7,388.8 247,388.7 247,389.8 246.5,390.1 245.8,390.1 		
			"/>
		<path fill="#E0A984" d="M242.5,396.8l0.4-0.5l-0.3-0.4l0.1-0.3l-0.3-0.2l-0.6,0.4l0.1,1C241.9,396.9,242,397.4,242.5,396.8z"/>
		<path fill="#333333" d="M241.2,402.8c0,0-0.5,0.2-0.8,1.1c0,0,0.4,0.3,0.7,0.8c0.3,0.5,1.6,0.5,1.6,0.5l0.1-0.3
			c0,0-0.6-0.4-0.6-0.6c-0.1-0.2-0.1-1.2-0.1-1.2L241.2,402.8z"/>
	</g>
	<g>
		<polygon fill="#E0A984" points="205.9,399.4 204.7,400.8 200.9,403.3 200.3,403.1 200.6,402.6 203,399.9 203.8,399.7 205.1,398.1 
					"/>
		<polygon fill="#874992" points="206.6,394.2 205.6,395.5 205.5,396.9 204.3,398.5 205.9,400.2 207.9,397.9 208.9,395.1 		"/>
		<path fill="#333333" d="M200.7,402.5c0,0-0.5,0.1-0.8,0.2c-0.2,0.1-0.4,0.3-0.3,0.5c0.1,0.4,0.2,0.9,0.1,1.1
			c-0.1,0.2,0.1,1.4,0.7,1.2c0.2-0.1,0.2-0.6,0.2-0.6s0-1.1,0.6-1.6C201.1,403.2,200.4,403,200.7,402.5z"/>
		<polygon fill="#E0A984" points="209,398.5 209.6,398.9 208.7,399.9 207.7,403.2 208.6,403.5 211.7,398.5 210.4,397.4 		"/>
		<path fill="#8C6239" d="M208.8,388.2c0,0-0.7-0.9,0-1.7c0.7-0.8,1.7-0.5,2-0.1l0.2-0.2c0,0,0.3,0.6-0.2,0.7
			c-0.1,0-0.4,1.6-0.4,1.5s-1,0.3-1,0.3L208.8,388.2z"/>
		<path fill="#E0A984" d="M208.3,388.6l0.4-0.5l0.9,0.2l0.2-0.4c0,0-0.3-0.5,0.2-0.5l0.2,0.7l0.3-0.1l0-0.8l0.5-0.4l-0.2,2.3
			l-0.7-0.1l-0.3,0.5L208.3,388.6z"/>
		<polygon fill="#C07BCE" points="206.2,394.2 208.9,395.2 208.8,396.1 210.7,397.5 209.2,398.9 207.7,398.4 205.4,396.8 
			205.6,395.5 		"/>
		<polygon fill="#E0A984" points="208,389 210,390.8 210.9,390.3 212.7,389.6 213,390.2 210,392.1 206.5,389.4 		"/>
		<path fill="#49A699" d="M206.3,394.3l-0.5-0.4c0,0,0.1-0.8,0-1.3s-0.4-2.9,1.1-4c0.6-0.2,1.4-0.1,1.4-0.1s0.7,0.5,1.3,0.4l0.8,0.5
			l0.5,0.3l-0.5,2.2l-0.7,1.6c0,0,0,0.9-0.9,1.9L206.3,394.3z"/>
		<path fill="#E0A984" d="M210.6,390.1c-0.5-0.4-1.3-0.2-2.1,0.7c-0.8,0.8-1.4,2.2-1.4,2.2l0.2,0.7l1.2,2.4l0.7-0.2l-0.8-2.8
			C209.1,392,211.1,390.5,210.6,390.1z"/>
		<polygon fill="#E0A984" points="212.6,389.8 213,388.9 213.6,388.6 213.7,388.9 214.1,388.7 214.1,389.9 213.5,390.2 212.8,390.2 
					"/>
		<path fill="#E0A984" d="M209.2,397l0.4-0.5l-0.3-0.4l0.2-0.3l-0.4-0.2l-0.7,0.3l0.1,1C208.6,397,208.7,397.6,209.2,397z"/>
		<path fill="#333333" d="M207.7,403.1c0,0-0.6,0.2-0.8,1.1c0,0,0.4,0.3,0.7,0.8c0.3,0.5,1.7,0.6,1.7,0.6l0.2-0.3
			c0,0-0.6-0.4-0.6-0.6s-0.1-1.2-0.1-1.2L207.7,403.1z"/>
	</g>
	<g>
		<path fill="#8C6239" d="M68.2,388.2c0,0-0.3-0.6-0.5-0.7c0,0-0.1-0.2-0.1-0.4c-0.1-0.6,0.2-1.3,0.7-1.7l0.1,0
			c0.4-0.3,0.9-0.3,1.4-0.1l0.5,0.3v0.4l-0.7,1.5C69.6,387.5,68.9,388.5,68.2,388.2z"/>
		<polygon fill="#E0A984" points="62.6,402.2 63,402.7 66.6,399.9 67.7,398.1 66.3,397.3 65.6,398.8 63.8,400 		"/>
		<polygon fill="#E0A984" points="70.3,400.6 71,401.1 73.8,396.7 71.8,395.5 70.6,397 71.9,397.5 71,398.5 		"/>
		<path fill="#E0A984" d="M69.1,389l0.2-0.6l0.8,0L70,386l-0.9,0.3l0.2,1l-0.2,0.1c0,0-0.5-0.9-1-0.5c-0.3,0.3-0.1,0.7-0.1,0.7v0.5
			l-0.2,0l0.1,0.5L69.1,389z"/>
		<polygon fill="#E0A984" points="67.6,390.1 65.6,392 67.2,394.6 67.8,393.9 67.1,392 68.1,391.3 		"/>
		<polygon fill="#E0A984" points="72.2,390.1 72.5,388.8 73,388.7 73.5,389 73.3,389.8 72.8,390.2 		"/>
		<polygon fill="#2E3192" points="70.4,397.3 71.9,395.6 69.7,394.6 68.9,394.9 68.5,396.8 		"/>
		<path fill="#D9E021" d="M69.7,394.6c0.1-0.4,0.1-4.4-0.1-5.1c-0.2-0.7-1.6-1-1.6-1l-1,1.1l-0.3,1l0.7,3.9L69.7,394.6z"/>
		<path fill="#333333" d="M62.7,402.1l-1.3,0.2l-0.1,1.4l-0.2,0.7c0,0,0.5,0.9,0.5,0.9c0.1,0,0.5,0,0.3-0.5
			c-0.2-0.4,1.1-2.2,1.1-2.2L62.7,402.1z"/>
		<path fill="#333333" d="M71,401c0,0.1,0,0.4,0.1,0.7c0.1,0.4,0.3,1.1,0.7,1.4c0,0-0.1,0.4-0.6,0.2s-0.9-0.9-1.2-1.2
			c-0.3-0.2-0.6-0.6-0.6-0.6s0.4-0.8,0.9-0.9L71,401z"/>
		<polygon fill="#0071BC" points="66,397.2 67.9,398.2 69.7,394.6 67.3,394.2 66.6,395.3 66.7,396.1 		"/>
		<polygon fill="#E0A984" points="68.6,390.8 70.4,392.8 72.8,390.2 72.3,389.8 70.6,391.5 69.5,390.1 		"/>
	</g>
	<g>
		<polygon fill="#E0A984" points="89.7,399.4 88.5,400.8 84.7,403.3 84.1,403.1 84.4,402.6 86.8,399.9 87.6,399.7 88.8,398.1 		"/>
		<polygon fill="#874992" points="90.4,394.2 89.4,395.5 89.3,396.9 88.1,398.5 89.6,400.2 91.7,397.9 92.7,395.1 		"/>
		<path fill="#333333" d="M84.4,402.5c0,0-0.5,0.1-0.8,0.2c-0.2,0.1-0.4,0.3-0.3,0.5c0.1,0.4,0.2,0.9,0.1,1.1
			c-0.1,0.2,0.1,1.4,0.7,1.2c0.2-0.1,0.2-0.6,0.2-0.6s0-1.1,0.6-1.6C84.9,403.2,84.2,403,84.4,402.5z"/>
		<polygon fill="#E0A984" points="92.8,398.5 93.3,398.9 92.5,399.9 91.4,403.2 92.4,403.5 95.5,398.5 94.2,397.4 		"/>
		<path fill="#8C6239" d="M92.6,388.2c0,0-0.7-0.9,0-1.7c0.7-0.8,1.7-0.5,2-0.1l0.2-0.2c0,0,0.3,0.6-0.2,0.7c-0.1,0-0.4,1.6-0.4,1.5
			c0,0-1,0.3-1,0.3L92.6,388.2z"/>
		<path fill="#E0A984" d="M92.1,388.6l0.4-0.5l0.9,0.2l0.2-0.4c0,0-0.3-0.5,0.2-0.5l0.2,0.7l0.3-0.1l0-0.8l0.5-0.4l-0.2,2.3
			l-0.7-0.1l-0.3,0.5L92.1,388.6z"/>
		<polygon fill="#C07BCE" points="90,394.2 92.7,395.2 92.6,396.1 94.5,397.5 92.9,398.9 91.5,398.4 89.2,396.8 89.4,395.5 		"/>
		<polygon fill="#E0A984" points="91.8,389 93.8,390.8 94.7,390.3 96.5,389.6 96.7,390.2 93.8,392.1 90.3,389.4 		"/>
		<path fill="#49A699" d="M90.1,394.3l-0.5-0.4c0,0,0.1-0.8,0-1.3c-0.2-0.4-0.4-2.9,1.1-4c0.6-0.2,1.4-0.1,1.4-0.1s0.7,0.5,1.3,0.4
			l0.8,0.5l0.5,0.3l-0.5,2.2l-0.7,1.6c0,0,0,0.9-0.9,1.9L90.1,394.3z"/>
		<path fill="#E0A984" d="M94.4,390.1c-0.5-0.4-1.3-0.2-2.1,0.7c-0.8,0.8-1.4,2.2-1.4,2.2l0.2,0.7l1.2,2.4l0.7-0.2l-0.8-2.8
			C92.9,392,94.9,390.5,94.4,390.1z"/>
		<polygon fill="#E0A984" points="96.4,389.8 96.8,388.9 97.3,388.6 97.5,388.9 97.9,388.7 97.9,389.9 97.3,390.2 96.6,390.2 		"/>
		<path fill="#E0A984" d="M93,397l0.4-0.5l-0.3-0.4l0.2-0.3l-0.4-0.2l-0.7,0.3l0.1,1C92.4,397,92.5,397.6,93,397z"/>
		<path fill="#333333" d="M91.5,403.1c0,0-0.6,0.2-0.8,1.1c0,0,0.4,0.3,0.7,0.8s1.7,0.6,1.7,0.6l0.2-0.3c0,0-0.6-0.4-0.6-0.6
			s-0.1-1.2-0.1-1.2L91.5,403.1z"/>
	</g>
	<g>
		<path fill="#8C6239" d="M256.7,388.2c0,0-0.3-0.6-0.5-0.7c0,0-0.1-0.2-0.1-0.4c-0.1-0.6,0.2-1.3,0.7-1.7l0.1,0
			c0.4-0.3,0.9-0.3,1.4-0.1l0.5,0.3v0.4l-0.7,1.5C258.1,387.5,257.4,388.5,256.7,388.2z"/>
		<polygon fill="#E0A984" points="251.1,402.2 251.5,402.7 255.1,399.9 256.2,398.1 254.8,397.3 254.1,398.8 252.3,400 		"/>
		<polygon fill="#E0A984" points="258.8,400.6 259.5,401.1 262.3,396.7 260.4,395.5 259.1,397 260.4,397.5 259.5,398.5 		"/>
		<path fill="#E0A984" d="M257.6,389l0.2-0.6l0.8,0l-0.1-2.4l-0.9,0.3l0.2,1l-0.2,0.1c0,0-0.2-0.9-0.7-0.5c-0.3,0.3,0.2,0.7,0.2,0.7
			v0.5l-0.4,0l-0.1,0.5L257.6,389z"/>
		<polygon fill="#E0A984" points="256.1,390.1 254.1,392 255.7,394.6 256.3,393.9 255.6,392 256.6,391.3 		"/>
		<polygon fill="#E0A984" points="260.8,390.1 261,388.8 261.5,388.7 262,389 261.9,389.8 261.3,390.2 		"/>
		<polygon fill="#2E3192" points="258.9,397.3 260.4,395.6 258.2,394.6 257.4,394.9 257,396.8 		"/>
		<path fill="#C20004" d="M258.3,394.6c0.1-0.4,0.1-4.4-0.1-5.1c-0.2-0.7-1.6-1-1.6-1l-1,1.1l-0.3,1l0.7,3.9L258.3,394.6z"/>
		<path fill="#333333" d="M251.2,402.1l-1.3,0.2l-0.1,1.4l-0.2,0.7c0,0,0.5,0.9,0.5,0.9c0.1,0,0.5,0,0.3-0.5s1.1-2.2,1.1-2.2
			L251.2,402.1z"/>
		<path fill="#333333" d="M259.5,401c0,0.1,0,0.4,0.1,0.7c0.1,0.4,0.3,1.1,0.7,1.4c0,0-0.1,0.4-0.6,0.2c-0.5-0.2-0.9-0.9-1.2-1.2
			s-0.6-0.6-0.6-0.6s0.4-0.8,0.9-0.9L259.5,401z"/>
		<polygon fill="#0071BC" points="254.5,397.2 256.4,398.2 258.3,394.6 255.9,394.2 255.1,395.3 255.2,396.1 		"/>
		<polygon fill="#E0A984" points="257.1,390.8 258.9,392.8 261.3,390.2 260.9,389.8 259.1,391.5 258,390.1 		"/>
	</g>
	<g>
		<path fill="#8C6239" d="M338.2,388.2c0,0-0.3-0.6-0.5-0.7c0,0-0.1-0.2-0.1-0.4c-0.1-0.6,0.2-1.3,0.7-1.7l0.1,0
			c0.4-0.3,0.9-0.3,1.4-0.1l0.5,0.3v0.4l-0.7,1.5C339.6,387.5,339,388.5,338.2,388.2z"/>
		<polygon fill="#E0A984" points="332.6,402.2 333.1,402.7 336.7,399.9 337.8,398.1 336.4,397.3 335.6,398.8 333.8,400 		"/>
		<polygon fill="#E0A984" points="340.4,400.6 341.1,401.1 343.8,396.7 341.9,395.5 340.7,397 341.9,397.5 341,398.5 		"/>
		<path fill="#E0A984" d="M339.2,389l0.2-0.6l0.8,0l-0.1-2.4l-0.9,0.3l0.2,1l-0.2,0.1c0,0,0-0.9-0.5-0.5c-0.3,0.3,0.4,0.7,0.4,0.7
			v0.5l-0.6,0l-0.2,0.5L339.2,389z"/>
		<polygon fill="#E0A984" points="337.6,390.1 335.7,392 337.2,394.6 337.8,393.9 337.1,392 338.2,391.3 		"/>
		<polygon fill="#E0A984" points="342.3,390.1 342.5,388.8 343.1,388.7 343.6,389 343.4,389.8 342.8,390.2 		"/>
		<polygon fill="#2E3192" points="340.5,397.3 342,395.6 339.8,394.6 338.9,394.9 338.5,396.8 		"/>
		<path fill="#C20004" d="M339.8,394.6c0.1-0.4,0.1-4.4-0.1-5.1c-0.2-0.7-1.6-1-1.6-1l-1,1.1l-0.3,1l0.7,3.9L339.8,394.6z"/>
		<path fill="#333333" d="M332.8,402.1l-1.3,0.2l-0.1,1.4l-0.2,0.7c0,0,0.5,0.9,0.5,0.9c0.1,0,0.5,0,0.3-0.5
			c-0.2-0.4,1.1-2.2,1.1-2.2L332.8,402.1z"/>
		<path fill="#333333" d="M341.1,401c0,0.1,0,0.4,0.1,0.7c0.1,0.4,0.3,1.1,0.7,1.4c0,0-0.1,0.4-0.6,0.2c-0.5-0.2-0.9-0.9-1.2-1.2
			c-0.3-0.2-0.6-0.6-0.6-0.6s0.4-0.8,0.9-0.9L341.1,401z"/>
		<polygon fill="#0071BC" points="336.1,397.2 338,398.2 339.8,394.6 337.4,394.2 336.7,395.3 336.8,396.1 		"/>
		<polygon fill="#E0A984" points="338.6,390.8 340.5,392.8 342.8,390.2 342.4,389.8 340.6,391.5 339.6,390.1 		"/>
	</g>
	<g>
		<polygon fill="#E0A984" points="330.1,396.9 330.7,397.2 330,398.2 329.4,401.3 330.3,401.5 332.6,396.6 331.3,395.7 		"/>
		<polygon fill="#E0A984" points="327,398.7 325.9,400.4 322.2,403.5 321.6,403.4 321.8,402.8 324.1,399.7 324.9,399.3 326,397.5 		
			"/>
		<path fill="#8C6239" d="M328.8,387.5c0,0-0.7-0.7-0.2-1.5c0.6-0.8,1.5-0.6,1.9-0.3l0.2-0.2c0,0,0.3,0.5-0.1,0.7
			c-0.1,0-0.2,1.5-0.2,1.4s-0.8,0.4-0.8,0.4L328.8,387.5z"/>
		<path fill="#E0A984" d="M328.4,387.9l0.3-0.5l0.8,0.1l0.2-0.4c0,0-0.4-0.4,0.1-0.4l0.2,0.6l0.2-0.1l-0.1-0.7l0.4-0.4l0,2.1l-0.7,0
			l-0.2,0.5L328.4,387.9z"/>
		<polygon fill="#874992" points="326.8,393.2 329,393.9 329,394.7 331.2,395.8 330.1,397.3 328.9,396.9 327.5,394.5 		"/>
		<polygon fill="#C07BCE" points="327.1,393.3 326.2,394.7 326.3,396.2 325.2,398 327.1,399.7 328.9,396.9 329.7,393.9 		"/>
		<polygon fill="#E0A984" points="326.5,389.5 324.1,389.8 323.9,390.7 323.3,392.4 322.7,392.3 323.2,389 327.1,388.2 		"/>
		<path fill="#F7CD14" d="M327.2,393.4l-0.5-0.3c0,0,0-0.8-0.2-1.2c-0.2-0.4-0.6-2.6,0.6-3.8c0.5-0.2,1.2-0.2,1.2-0.2
			s0.7,0.4,1.2,0.3l0.8,0.4l0.5,0.2l-0.2,2.1l-0.4,1.5c0,0,0.1,0.8-0.6,1.8L327.2,393.4z"/>
		<path fill="#E0A984" d="M330.4,388.8c-0.5,0.4-0.4,1.1,0.2,2c0.6,0.9,1.7,1.7,1.7,1.7l0.7,0v-3.6l-0.6,0l-0.1,1.7
			C331.5,389.7,330.9,388.4,330.4,388.8z"/>
		<polygon fill="#E0A984" points="323.2,392.3 323.6,393 323.5,393.6 323.2,393.6 323.1,393.9 322.3,393.2 322.4,392.7 322.8,392.2 
					"/>
		<path fill="#E0A984" d="M332.4,388.8l-0.4-0.4l0.2-0.4l-0.2-0.2l0.6-0.4l0.5,0.6l-0.2,0.9C333,388.8,332.9,389.3,332.4,388.8z"/>
		<path fill="#333333" d="M329.5,401.2c0,0-0.5,0.3-0.7,1.1c0,0,0.4,0.2,0.7,0.7c0.4,0.4,1.6,0.3,1.6,0.3l0.1-0.3
			c0,0-0.6-0.3-0.7-0.5s-0.2-1.1-0.2-1.1L329.5,401.2z"/>
		<path fill="#333333" d="M321.9,402.7c0,0-0.5,0.1-0.9,0.3c-0.2,0.1-0.3,0.3-0.3,0.6c0.1,0.4,0.3,0.9,0.2,1.1
			c-0.1,0.3,0.3,1.5,0.9,1.2c0.2-0.1,0.1-0.6,0.1-0.6s-0.2-1.2,0.5-1.8C322.4,403.4,321.6,403.3,321.9,402.7z"/>
	</g>
	<g>
		<polygon fill="#E0A984" points="306,399.4 304.7,400.8 300.9,403.3 300.4,403.1 300.6,402.6 303.1,399.9 303.8,399.7 305.1,398.1 
					"/>
		<polygon fill="#ED4514" points="306.6,394.2 305.6,395.5 305.5,396.9 304.3,398.5 305.9,400.2 307.9,397.9 308.9,395.1 		"/>
		<path fill="#333333" d="M300.7,402.5c0,0-0.5,0.1-0.8,0.2c-0.2,0.1-0.4,0.3-0.3,0.5c0.1,0.4,0.2,0.9,0.1,1.1
			c-0.1,0.2,0.1,1.4,0.7,1.2c0.2-0.1,0.2-0.6,0.2-0.6s0-1.1,0.6-1.6C301.1,403.2,300.4,403,300.7,402.5z"/>
		<polygon fill="#E0A984" points="309,398.5 309.6,398.9 308.7,399.9 307.7,403.2 308.7,403.5 311.7,398.5 310.4,397.4 		"/>
		<path fill="#8C6239" d="M308.8,388.2c0,0-0.7-0.9,0-1.7c0.7-0.8,1.7-0.5,2-0.1l0.2-0.2c0,0,0.3,0.6-0.2,0.7
			c-0.1,0-0.4,1.6-0.4,1.5s-1,0.3-1,0.3L308.8,388.2z"/>
		<path fill="#E0A984" d="M308.3,388.6l0.4-0.5l0.9,0.2l0.2-0.4c0,0-0.3-0.5,0.2-0.5l0.2,0.7l0.3-0.1l0-0.8l0.5-0.4l-0.2,2.3
			l-0.7-0.1l-0.3,0.5L308.3,388.6z"/>
		<polygon fill="#ED681D" points="306.3,394.2 309,395.2 308.9,396.1 310.8,397.5 309.2,398.9 307.8,398.4 305.5,396.8 305.7,395.5 
					"/>
		<polygon fill="#E0A984" points="308.1,389 310,390.8 310.9,390.3 312.7,389.6 313,390.2 310,392.1 306.6,389.4 		"/>
		<path fill="#94CE5E" d="M306.3,394.3l-0.5-0.4c0,0,0.1-0.8,0-1.3c-0.2-0.4-0.4-2.9,1.1-4c0.6-0.2,1.4-0.1,1.4-0.1s0.7,0.5,1.3,0.4
			l0.8,0.5l0.5,0.3l-0.5,2.2l-0.7,1.6c0,0,0,0.9-0.9,1.9L306.3,394.3z"/>
		<path fill="#E0A984" d="M310.6,390.1c-0.5-0.4-1.3-0.2-2.1,0.7c-0.8,0.8-1.4,2.2-1.4,2.2l0.2,0.7l1.2,2.4l0.7-0.2l-0.8-2.8
			C309.2,392,311.2,390.5,310.6,390.1z"/>
		<polygon fill="#E0A984" points="312.6,389.8 313,388.9 313.6,388.6 313.8,388.9 314.1,388.7 314.1,389.9 313.6,390.2 312.9,390.2 
					"/>
		<path fill="#E0A984" d="M309.3,397l0.4-0.5l-0.3-0.4l0.2-0.3l-0.4-0.2l-0.7,0.3l0.1,1C308.6,397,308.8,397.6,309.3,397z"/>
		<path fill="#333333" d="M307.8,403.1c0,0-0.6,0.2-0.8,1.1c0,0,0.4,0.3,0.7,0.8s1.7,0.6,1.7,0.6l0.2-0.3c0,0-0.6-0.4-0.6-0.6
			c-0.1-0.3-0.1-1.2-0.1-1.2L307.8,403.1z"/>
	</g>
	<g>
		<path fill="#8C6239" d="M424.7,388.2c0,0-0.3-0.6-0.5-0.7c0,0-0.1-0.2-0.1-0.4c-0.1-0.6,0.2-1.3,0.7-1.7l0.1,0
			c0.4-0.3,0.9-0.3,1.4-0.1l0.5,0.3v0.4l-0.7,1.5C426.1,387.5,425.4,388.5,424.7,388.2z"/>
		<polygon fill="#E0A984" points="419.1,402.2 419.6,402.7 423.2,399.9 424.3,398.1 422.9,397.3 422.1,398.8 420.3,400 		"/>
		<polygon fill="#E0A984" points="426.9,400.6 427.6,401.1 430.3,396.7 428.4,395.5 427.2,397 428.4,397.5 427.5,398.5 		"/>
		<path fill="#E0A984" d="M425.7,389l0.2-0.6l0.8,0l-0.1-2.4l-0.9,0.3l0.2,1l-0.2,0.1c0,0-0.3-0.9-0.7-0.5c-0.3,0.3,0.1,0.7,0.1,0.7
			v0.5l-0.4,0l0,0.5L425.7,389z"/>
		<polygon fill="#E0A984" points="424.1,390.1 422.2,392 423.7,394.6 424.3,393.9 423.6,392 424.7,391.3 		"/>
		<polygon fill="#E0A984" points="428.8,390.1 429,388.8 429.5,388.7 430.1,389 429.9,389.8 429.3,390.2 		"/>
		<polygon fill="#2E3192" points="427,397.3 428.5,395.6 426.3,394.6 425.4,394.9 425,396.8 		"/>
		<path fill="#C20004" d="M426.3,394.6c0.1-0.4,0.1-4.4-0.1-5.1c-0.2-0.7-1.6-1-1.6-1l-1,1.1l-0.3,1l0.7,3.9L426.3,394.6z"/>
		<path fill="#333333" d="M419.3,402.1l-1.3,0.2l-0.1,1.4l-0.2,0.7c0,0,0.5,0.9,0.5,0.9c0.1,0,0.5,0,0.3-0.5s1.1-2.2,1.1-2.2
			L419.3,402.1z"/>
		<path fill="#333333" d="M427.6,401c0,0.1,0,0.4,0.1,0.7c0.1,0.4,0.3,1.1,0.7,1.4c0,0-0.1,0.4-0.6,0.2s-0.9-0.9-1.2-1.2
			s-0.6-0.6-0.6-0.6s0.4-0.8,0.9-0.9L427.6,401z"/>
		<polygon fill="#0071BC" points="422.6,397.2 424.5,398.2 426.3,394.6 423.9,394.2 423.2,395.3 423.3,396.1 		"/>
		<polygon fill="#E0A984" points="425.1,390.8 427,392.8 429.3,390.2 428.9,389.8 427.1,391.5 426.1,390.1 		"/>
	</g>
	<rect x="434" y="371.9" fill="#FFFFFF" width="33" height="8.3"/>
	<rect x="466.7" y="371.9" fill="#8C6239" width="1.2" height="33.9"/>
	<g>
		<path d="M443.3,377.9l0.8-5.1h1.6v7.2h-1.1v-5.1l-0.8,5.1h-1.1l-0.8-5.1v5.1h-1v-7.2h1.6L443.3,377.9z"/>
		<path d="M447.6,375.8h1.5v1h-1.5v2.1h1.9v1h-3.1v-7.2h3.1v1h-1.9V375.8z"/>
		<path d="M449.9,372.8h3.5v1h-1.2v6.1h-1.1v-6.1h-1.2V372.8z"/>
		<path d="M457.1,379.9H456l-0.2-1.3h-1.4l-0.2,1.3h-1l1.1-7.2h1.6L457.1,379.9z M454.6,377.7h1.1l-0.5-3.6L454.6,377.7z"/>
	</g>
	<path fill="#7F8E8E" d="M501.3,395.3c-0.2-4,1.4-5.9,1.9-6.4c0-0.2-0.1-0.2-0.1-0.2c0.2-0.1,0.4-0.1,0.6-0.2
		c0.2-0.1,0.5-0.1,0.7-0.1l0-0.5c-0.2,0-0.7,0.1-0.7-0.9H503c0,0,0-0.3,0-1.5c0-1.2,1.2-1.7,1.7-0.9c0,0,1.2-0.9,1.6,0.2
		c0.4,1.1,0.1,2.5,0.1,2.5l-0.7,0l0,1.3c0.1,0,0.2,0.3,0.3,0.3c0,0,0,0,0,0c0,0,0-0.2,0-0.2c0.4,0.1,0.7,0.2,0.7,0.2s0,0-0.1,0
		c0.5,0.5,2.1,2.4,1.9,6.3c0,0.1,0.5,0.9,0.1,1.2c-0.4,0.3-1.1,0.1-1.1-0.1s0-0.4-0.1-0.6c-0.1-0.2,0.4-0.7,0.4-0.7h0
		c0,0,0-3.3-1.5-5c-0.1,0.7-0.1,1.9,0,3.8c0,0,0.4,1.2,0.5,2.8c0.1,1.6,0.4,5.4,0.4,5.4H507l0,0.5c0.1,0,0.7,0.3,1.2,0.5
		c0.2,0.1,0.1,0.3-0.1,0.3l-2,0c0,0-0.3-0.4,0-0.7l-0.1-0.5l-0.1,0l-0.8-4.2l-0.2-1.1l-1,5.4l-0.1,0l-0.1,0.4c0.3,0.3,0,0.7,0,0.7
		l-2,0c-0.2,0-0.2,0-0.1-0.1c0.5-0.2,1.1-0.3,1.2-0.3h0l0.1-0.7l-0.3-0.1c0,0,0.5-7.1,0.7-8.2c0.1,0,0.2-0.1,0.3-0.1
		c-0.2,0-0.3,0-0.3,0c0.1-1.1,0.1-2,0-2.7c-0.3-0.2-0.4-0.5-0.4-0.7c-1.1,1.7-1.1,4.6-1.1,4.6h0c0,0,0.5,0.5,0.4,0.7
		c-0.1,0.2-0.2,0.3-0.1,0.5c0,0.2-0.7,0.5-1.1,0.2C500.8,396.1,501.3,395.4,501.3,395.3z"/>
	<g>
		<path fill="#7F8E8E" d="M516.1,395.1c-0.1-2.6,0.6-4.3,1.1-5.2c-0.1-0.2-0.4-0.3-0.4-0.3c0.6-1,1.2-1.1,1.2-1.2c0,0,0,0,0,0
			c0-0.1,0.8-0.2,1.2-0.2l0.1-0.4l-0.4,0l0-1.7c0-0.1-0.3-0.5-0.1-1.1c0.2-0.6,0.5-1.4,2.2,0.1c0.8,0.7,0.2,1.3,0.2,1.3
			c0,0.4-0.3,0.4-0.3,0.4l0,1.4c0.4,0.1,0.6,0.2,0.8,0.2c0,0,0.1,0.3,0.2,0.3c0,0,0.1,0.3,0.1,0.3c0,0,0,0,0,0c0.3,0,0.7,0.3,1,0.9
			c0,0-0.1,0-0.2,0.2c0.6,0.9,1.4,2.6,1.3,5.4c0,0.1,0.6,0.9,0.1,1.1c-0.4,0.3-1.1,0.1-1.1-0.1c0-0.2,0-0.4-0.1-0.7
			c-0.1-0.2,0.4-0.8,0.4-0.8h0c0,0,0-2.9-1.2-4.6c0,0-0.1,0.1-0.1,0.1l-0.2-0.1c0,0.9-0.1,2.2-0.1,4.2c0,0,0,0,0,0.1l0.3,3.4h0
			l0.4,3.4l0,0l0.2,2.2c0.1,0,0.7,0.3,1.2,0.5c0.2,0.1,0.1,0.3-0.1,0.3l-2,0c0,0-0.3-0.6,0-0.9l-0.4-2.4h0l-0.7-3.3l-0.4,0.1
			l-0.4-1.2l-0.4,1.3h-0.2l-0.7,3.5l0,0l-0.4,2.1c0.3,0.3,0,0.7,0,0.7l-2,0c-0.2,0-0.2,0-0.1-0.1c0.5-0.2,1.1-0.3,1.2-0.3h0l0.2-2.3
			l0-0.2l0.5-4.5h0l0.3-2.5c0,0,0,0,0.1,0c-0.1,0-0.1,0-0.1,0.1c-0.1-2.1-0.1-3.5-0.1-4.4l-0.4,0.3c0,0,0,0-0.1-0.1
			c-1.1,1.7-1.1,4.6-1.1,4.6h0c0,0,0.5,0.4,0.4,0.6c-0.1,0.2-0.2,0.3-0.1,0.5c0,0.2-0.7,0.4-1.1,0.1
			C515.5,396,516,395.1,516.1,395.1z"/>
		<path fill="#7F8E8E" d="M521.9,388.8L521.9,388.8L521.9,388.8z"/>
	</g>
	<path fill="#7F8E8E" d="M512.7,396.5c0.2-4-1.4-5.9-1.9-6.4c0-0.2,0.1-0.2,0.1-0.2c-0.2-0.1-0.4-0.1-0.6-0.2
		c-0.2-0.1-0.5-0.1-0.7-0.1l0-0.1c0.2,0,0.7-0.5,0.7-0.5h0.8c0,0,0-1.1,0-2.3s-1.2-1.7-1.7-0.9c0,0-1.2-0.9-1.6,0.2
		s-0.1,2.5-0.1,2.5l0.7,0l0,1.2c-0.1,0-0.2,0.2-0.3,0.2c0,0,0,0,0,0c0,0,0-0.1,0-0.1c-0.4,0.1-0.7,0.2-0.7,0.2s0,0,0.1,0
		c-0.5,0.5-2.1,2.4-1.9,6.3c0,0.1-0.5,0.9-0.1,1.2c0.4,0.3,1.1,0.1,1.1-0.1c0-0.2,0-0.5,0.1-0.7c0.1-0.2-0.4-0.8-0.4-0.8h0
		c0-1,0-3.2,1.5-4.9c0.1,0.7,0.1,2,0,3.8c0,0-0.4,1.2-0.5,2.8c-0.1,1.6-0.4,5.3-0.4,5.3h0.2l0,0.6c-0.1,0-0.7,0.4-1.2,0.6
		c-0.2,0.1-0.1,0.3,0.1,0.3l2,0c0,0,0.3-0.4,0-0.7l0.1-0.5l0.1,0l0.8-4.2l0.2-1.1l1,5.4l0.1,0l0.1,0.4c-0.3,0.3,0,0.7,0,0.7l2,0
		c0.2,0,0.2-0.1,0.1-0.2c-0.5-0.2-1.1-0.4-1.2-0.4h0l-0.1-0.6l0.3-0.1c0,0-0.5-7-0.7-8.2c-0.1,0-0.2,0-0.3-0.1c0.2,0,0.3,0,0.3,0
		c-0.1-1.1-0.1-2,0-2.7c0.3-0.2,0.4-0.6,0.4-0.8c1.1,1.7,1.1,3.5,1.1,4.5h0c0,0-0.5,0.6-0.4,0.8s0.2,0.4,0.1,0.6
		c0,0.2,0.7,0.5,1.1,0.2C513.3,397.3,512.8,396.6,512.7,396.5z"/>
	<path fill="#7F8E8E" d="M530.7,396.1c0.2-3.8-1.3-5.7-1.9-6.3c0.1-0.1,0.2-0.1,0.2-0.1s-0.2-0.1-0.5-0.2c0,0,0,0,0,0
		c0,0-0.3-0.1-0.7-0.2l0-0.5c0.9,0.2,1.4-0.7,1.4-0.7s-1,0.9-0.6-1.1s-1.5-1.5-1.5-1.5c-0.1-0.5-1.4-1.3-1.8-0.1
		c-0.4,1,0.4,1.3,0.7,1.4l0,1.3c0,0.6,0.5,0.8,0.7,0.8l0,0.3c-0.2,0-0.5,0-0.8,0.1c-0.2,0-0.4,0.1-0.6,0.1c0,0,0,0.1,0.1,0.2
		c-0.5,0.5-2.1,2.4-1.9,6.4c0,0.1-0.5,0.9-0.1,1.2c0.4,0.3,1.1,0.1,1.1-0.1c0-0.2,0-0.8,0.1-1c0.1-0.2-0.4-1.1-0.4-1.1h0
		c0,0,0-2.5,1.1-4.2c0,0.2,0.1,0.7,0.4,0.9c0,0.7,0,1.7,0,2.7c0,0,0,0.1,0,0.1c0,0-0.6,0.4-0.8,2.4c-0.2,2-0.6,2.9-0.6,2.9
		s0.5,0.1,1.3,0.2l-0.4,2.9h0c-0.1,0-0.7,0.4-1.2,0.6c-0.2,0.1-0.1,0.4,0.1,0.4h2c0,0,0.3-0.3,0-0.6l0.6-3c0.4,0,0.7,0,1.2,0
		l0.6,3.1c-0.3,0.3,0,0.7,0,0.7l2,0.1c0.2,0,0.2-0.2,0.1-0.3c-0.5-0.2-1.1-0.5-1.2-0.5l-0.4-3.3c0.4-0.1,0.8-0.3,1.2-0.5
		c0,0-0.6-1.7-0.6-2.6c0-0.9-0.9-2.5-0.9-2.5s0,0,0,0c-0.1-1.8,0-3.4,0-4.1c1.4,1.7,1.5,4.6,1.4,4.6h0c0,0-0.5,0.9-0.4,1.1
		c0.1,0.2,0.2,0.5,0.1,0.7c0,0.2,0.7,0.6,1.1,0.3C531.3,396.8,530.8,396.2,530.7,396.1z"/>
	<path fill="#7F8E8E" d="M494.8,396.5c0.4,0.3,1.1,0.1,1.1-0.1c0-0.2,0-0.4,0.1-0.6c0.1-0.2-0.4-0.7-0.4-0.7h0c0,0,0-2.9,1.1-4.6
		c0,0,0,0.1,0,0.1l0.4-0.2c0,1.1,0,2.8,0,5c0,0,0,0,0,0l-1.1,8.2l0.1,0.2l0,0.4h0c-0.1,0-0.7,0.1-1.2,0.3c-0.2,0.1-0.1,0.2,0.1,0.2
		l2-0.1c0,0,0.3-0.6,0-0.9l0.1-0.5h0.2l1.5-6.4l1.7,6.7l0.2,0l0.1,0.3c-0.3,0.3,0,0.7,0,0.7l2,0.1c0.2,0,0.2-0.2,0.1-0.3
		c-0.5-0.2-1.1-0.5-1.2-0.5l0-0.3l0.1,0l-0.9-7.5c0.1,0,0.2,0,0.2,0c-0.2-2.6-0.2-4.2-0.2-5.3l0.2,0.2c0.1,0,0.1-0.2,0.2-0.3
		c1.1,1.7,1.1,4.6,1.1,4.6h0c0,0-0.5,0.5-0.4,0.7c0.1,0.2,0.2,0.3,0.1,0.5c0,0.2,0.7,0.5,1.1,0.2c0.4-0.3-0.1-1.1-0.1-1.1
		c0.1-2.7-0.6-4.4-1.2-5.4c0-0.1,0.1-0.1,0.1-0.1c-0.3-0.6,0.1-0.9-0.9-1.1c0,0,0,0,0,0s-0.1,0-0.1,0c-0.1-0.1-0.2-0.1-0.3-0.1
		c-0.2-0.1-0.5-0.2-0.9-0.2l0-1.4c0,0,0.3-0.1,0.3-0.4c0,0,0.5-0.7-0.1-1.5c-0.6-0.9-2.3-1-2.3,0.3c0,0.6,0.2,0.9,0.2,1l0.1,1.7
		l0.4,0l-0.2,0.4c-0.3,0-0.1,0.1-1.1,0.2c0,0,0,0,0,0c0,0-0.6,0.2-1.2,1.2c0,0,0.1,0.1,0.2,0.3c-0.6,1-1.2,2.7-1.1,5.3
		C494.9,395.4,494.4,396.2,494.8,396.5z M497.8,385.3l0,0.7C497.8,385.8,497.8,385.3,497.8,385.3z"/>
	<g>
		<path fill="#7F8E8E" d="M492.9,395c0.1-2.6-0.6-4.3-1.1-5.2c0.1-0.2,0.4-0.3,0.4-0.3c-0.6-1-1.1-1.1-1.1-1.2c0,0,0,0,0,0
			c0-0.1-0.9-0.2-1.2-0.2l-0.1-0.4l0.2,0c0.7,0.2,1-0.6,1.1-0.7c0,0-0.2,0.4-0.5,0.2c-0.3-0.2,0.5-1.3,0-2.2
			c-0.5-0.9-1.3-0.1-1.3-0.1c-0.3-0.4-0.8-0.6-1.4-0.2c-0.7,0.5-0.3,1.8-0.1,2.2c0.2,0.5-0.4,0.6-0.4,0.6c0.5,0.2,0.8-0.1,0.9-0.3
			l0,0.9c-0.4,0.1-0.6,0.2-0.8,0.2c0,0-0.1,0.3-0.2,0.4c0,0-0.1,0.3-0.1,0.3c0,0,0,0,0,0c-0.3,0-0.7,0.2-1,0.8c0,0,0.1,0,0.2,0.2
			c-0.6,0.9-1.4,2.6-1.3,5.4c0,0.1-0.6,0.8-0.1,1.1c0.4,0.3,1.1,0.1,1.1-0.2c0-0.2,0-0.4,0.1-0.6s-0.4-0.7-0.4-0.7h0
			c0,0,0-3,1.2-4.7c0,0,0.1,0.1,0.1,0.1l0.2-0.2c0,0.9,0.1,2.2,0.1,4.2c0,0,0,0.1,0,0.1L487,398h0l-0.4,3.4l0,0l-0.2,2.2
			c-0.1,0-0.7,0.3-1.2,0.5c-0.2,0.1-0.1,0.3,0.1,0.3l2-0.1c0,0,0.3-0.5,0-0.9l0.4-2.3h0l0.7-3.3l0.4,0.1l0.4-1.2l0.4,1.4h0.2
			l0.7,3.5l0,0l0.4,2.1c-0.3,0.3,0,0.7,0,0.7l2,0c0.2,0,0.2,0,0.1,0c-0.5-0.2-1.1-0.2-1.2-0.2h0l-0.2-2.4l0-0.1l-0.5-4.3l0,0
			l-0.3-2.6c0,0,0,0-0.1,0c0.1,0,0.1,0,0.1,0c0.1-2.1,0.1-3.5,0.1-4.4l0.4,0.3c0,0,0,0,0.1,0c1.1,1.7,1.1,4.6,1.1,4.6h0
			c0,0-0.5,0.3-0.4,0.6c0.1,0.2,0.2,0.2,0.1,0.5c0,0.2,0.7,0.4,1.1,0.1C493.4,395.9,492.9,395,492.9,395z"/>
		<path fill="#7F8E8E" d="M487.1,388.8L487.1,388.8L487.1,388.8z"/>
		<path fill="#7F8E8E" d="M491,387C491,387,491,387,491,387C491,387,491,387,491,387z"/>
		<path fill="#7F8E8E" d="M490.9,387C490.9,387,490.9,387,490.9,387L490.9,387z"/>
	</g>
	<g>
		<path fill="#7C8284" d="M491.2,395.5c-0.1-2.6,0.6-4.3,1.1-5.2c-0.1-0.2-0.4-0.3-0.4-0.3c0.6-1,1.1-1.1,1.1-1.2c0,0,0,0,0,0
			c1-0.1,0.9-0.2,1.2-0.2l0.1-0.4l-0.4,0l0-1.7c0-0.1-0.3-0.5-0.1-1.1c0.2-0.6,0.5-1.4,2.2,0.1c0.8,0.7,0.2,1.3,0.2,1.3
			c0,0.4-0.3,0.4-0.3,0.4l0,1.4c0.4,0.1,0.6,0.2,0.8,0.2c0,0,0.1,0,0.2,0.1c0,0,0.1,0,0.1,0c0,0,0,0,0,0c0.3,0,0.7,0.5,1,1.1
			c0,0-0.1,0.1-0.2,0.3c0.6,0.9,1.4,2.6,1.3,5.4c0,0.1,0.6,0.9,0.1,1.2c-0.4,0.3-1.1,0.1-1.1-0.1c0-0.2,0-0.6-0.1-0.9s0.4-1,0.4-1h0
			c0,0,0-2.7-1.2-4.4c0,0-0.1,0.2-0.1,0.2l-0.2-0.1c0,0.9-0.1,2.3-0.1,4.3c0,0,0-0.2,0-0.1l0.3,3.2h0l0.4,3.6l0,0.1l0.2,2.2
			c0.1,0,0.7,0.3,1.2,0.5c0.2,0.1,0.1,0.3-0.1,0.3l-2,0c0,0-0.3-0.3,0-0.6l-0.4-2.1h0l-0.7-3.5l-0.4,0l-0.4-1l-0.4,1.5h-0.2
			l-0.7,3.2l0-0.1l-0.4,2c0.3,0.3,0,0.7,0,0.7l-2,0c-0.2,0-0.2-0.2-0.1-0.3c0.5-0.2,1.1-0.5,1.2-0.5h0l0.2-2.1l0,0.2l0.5-4.1h0
			l0.3-2.8c0,0,0-0.1,0.1-0.1c-0.1,0-0.1,0-0.1,0c-0.1-2.1-0.1-3.5-0.1-4.4l-0.4,0.3c0,0,0-0.3-0.1-0.3c-1.1,1.7-1.1,4.4-1.1,4.4h0
			c0,0,0.5,0.6,0.4,0.8s-0.2,0.4-0.1,0.6c0,0.2-0.7,0.5-1.1,0.2C490.7,396.3,491.2,395.6,491.2,395.5z"/>
		<path fill="#7C8284" d="M497.1,388.8L497.1,388.8L497.1,388.8z"/>
	</g>
	<g>
		<path fill="#7C8284" d="M520.2,395.2c-0.1-2.6,0.6-4.3,1.1-5.2c-0.1-0.2,0.1-0.3,0.1-0.3c0.6-1,1.6-1.1,1.6-1.2c0,0,0,0,0,0
			c0-0.1,0.4-0.2,0.7-0.2l-0.1-0.4l-0.4,0c-0.7,0.2-1.1-0.6-1.1-0.7c0,0,0.2,0.4,0.5,0.2c0.3-0.2-0.5-1.3,0-2.2
			c0.5-0.9,1.3-0.1,1.3-0.1c0.3-0.4,0.8-0.6,1.4-0.2c0.7,0.5,0.3,1.8,0.1,2.2s0.4,0.6,0.4,0.6c-0.5,0.2-0.8-0.1-0.9-0.3l0,0.9
			c0.4,0.1,0.6,0.2,0.8,0.2c0,0,0.1,0.2,0.2,0.3c0,0,0.1,0.2,0.1,0.2c0,0,0,0,0,0c0.3,0,0.7,0.3,1,0.9c0,0-0.1,0.1-0.2,0.2
			c0.6,0.9,1.4,2.6,1.3,5.4c0,0.1,0.6,0.9,0.1,1.2c-0.4,0.3-1.1,0.1-1.1-0.1s0-0.5-0.1-0.7c-0.1-0.2,0.4-0.8,0.4-0.8h0
			c0,0,0-2.9-1.2-4.6c0,0-0.1,0.1-0.1,0.1l-0.2-0.1c0,0.9-0.1,2.3-0.1,4.2c0,0,0,0,0,0l0.3,3.3h0l0.4,3.5l0,0l0.2,2.2
			c0.1,0,0.7,0.3,1.2,0.5c0.2,0.1,0.1,0.3-0.1,0.3l-2,0c0,0-0.3-0.6,0-1l-0.4-2.4h0l-0.7-3.2l-0.4,0.1l-0.4-1.2l-0.4,1.3h-0.2
			l-0.7,3.6l0,0l-0.4,2.1c0.3,0.3,0,0.7,0,0.7l-2,0.1c-0.2,0-0.2-0.1-0.1-0.1c0.5-0.2,1.1-0.3,1.2-0.3h0l0.2-2.3l0-0.1l0.5-4.3l0,0
			l0.3-2.6c0,0,0,0,0.1,0c-0.1,0-0.1,0-0.1,0c-0.1-2.1-0.1-3.5-0.1-4.4l-0.4,0.3c0,0,0-0.1-0.1-0.1c-1.1,1.7-1.1,4.5-1.1,4.5h0
			c0,0,0.5,0.4,0.4,0.7c-0.1,0.2-0.2,0.3-0.1,0.5c0,0.2-0.7,0.5-1.1,0.2C519.6,396,520.2,395.2,520.2,395.2z"/>
		<path fill="#7C8284" d="M526,388.8L526,388.8L526,388.8z"/>
		<path fill="#7C8284" d="M522.1,387.2C522.1,387.2,522.1,387.2,522.1,387.2C522.1,387.2,522.1,387.2,522.1,387.2z"/>
		<path fill="#7C8284" d="M521.7,387.2C521.7,387.2,521.7,387.2,521.7,387.2L521.7,387.2z"/>
	</g>
	<path fill="#7C8284" d="M528.9,396.3c-0.2-4,1.4-5.9,1.9-6.4c0-0.2-0.1-0.2-0.1-0.2c0.2-0.1,0.4-0.1,0.6-0.2
		c0.2-0.1,0.5-0.1,0.7-0.1l0,0c-0.2,0-0.7-0.4-0.7-0.4H531c0,0,0-1.3,0-2.5c0-1.2,1-1.7,1.5-0.9c0,0,1.1-0.9,1.5,0.2
		c0.4,1.1,0,2.5,0,2.5l-0.7,0l0,1.1c0.1,0,0,0.1,0.4,0.1c0,0,0,0,0,0c0,0,0,0,0,0c0.4,0.1,0.7,0.3,0.7,0.3s0,0-0.1,0.1
		c0.5,0.5,2.1,2.4,1.9,6.3c0,0.1,0.5,0.9,0.1,1.2c-0.4,0.3-1.1,0.1-1.1-0.1c0-0.2,0-0.4-0.1-0.6c-0.1-0.2,0.4-0.7,0.4-0.7h0
		c0-1,0-3.3-1.5-5c-0.1,0.7-0.1,2,0,3.8c0,0,0.4,1.3,0.5,2.9s0.4,5.5,0.4,5.5l-0.2,0l0,0.4c0.1,0,0.7,0.3,1.2,0.5
		c0.2,0.1,0.1,0.3-0.1,0.3l-2,0c0,0-0.3-0.4,0-0.7l-0.1-0.5l-0.1,0l-0.8-4.2l-0.2-1.1l-1,5.4l-0.1,0l-0.1,0.4c0.3,0.3,0,0.7,0,0.7
		l-2,0c-0.2,0-0.2,0-0.1-0.1c0.5-0.2,1.1-0.3,1.2-0.3h0l0.1-0.7l-0.3-0.1c0,0,0.5-7.1,0.7-8.2c0.1,0,0.2-0.1,0.3-0.1
		c-0.2,0-0.3,0-0.3,0c0.1-1.1,0.1-2,0-2.7c-0.3-0.2-0.4-0.5-0.4-0.7c-1.1,1.7-1.1,3.6-1.1,4.6h0c0,0,0.5,0.5,0.4,0.7
		c-0.1,0.2-0.2,0.3-0.1,0.5c0,0.2-0.7,0.5-1.1,0.2C528.4,397.1,528.9,396.4,528.9,396.3z"/>
	<path fill="#7C8284" d="M518.3,396.3c0.2-3.8-1.3-5.7-1.9-6.3c0.1-0.1,0.2-0.1,0.2-0.1s-0.2-0.1-0.5-0.2c0,0,0,0,0,0
		c0,0-0.3-0.1-0.7-0.2l0-0.5c0.9,0.2,1.4-0.7,1.4-0.7s-1,0.9-0.6-1.1s-1.5-1.5-1.5-1.5c-0.1-0.5-1.4-1.3-1.8-0.1
		c-0.4,1,0.4,1.3,0.7,1.4l0,1.3c0,0.6,0.5,0.8,0.7,0.8l0,0.3c-0.2,0-0.5,0-0.8,0.1c-0.2,0-0.4,0.1-0.6,0.1c0,0,0,0.1,0.1,0.2
		c-0.5,0.5-2.1,2.4-1.9,6.4c0,0.1-0.5,0.9-0.1,1.2c0.4,0.3,1.1,0.1,1.1-0.1s0-0.4,0.1-0.6c0.1-0.2-0.4-0.7-0.4-0.7h0
		c0-1,0-2.9,1.1-4.6c0,0.2,0.1,0.5,0.4,0.7c0,0.7,0,1.6,0,2.6c0,0,0,0,0,0c0,0-0.6,0.4-0.8,2.4s-0.6,2.9-0.6,2.9s0.5,0.5,1.3,0.6
		l-0.4,3.3h0c-0.1,0-0.7,0.1-1.2,0.3c-0.2,0.1-0.1,0.2,0.1,0.2l2-0.1c0,0,0.3-0.4,0-0.7l0.6-3c0.4,0,0.7,0,1.2-0.1l0.6,3
		c-0.3,0.3,0,0.7,0,0.7l2,0c0.2,0,0.2-0.2,0.1-0.3c-0.5-0.2-1.1-0.5-1.2-0.5l-0.4-3.3c0.4-0.1,0.8-0.3,1.2-0.5c0,0-0.6-1.7-0.6-2.6
		s-0.9-2.5-0.9-2.5s0,0,0,0c-0.1-1.8,0-3,0-3.7c1.4,1.7,1.5,4,1.4,5h0c0,0-0.5,0.5-0.4,0.7c0.1,0.2,0.2,0.3,0.1,0.5
		c0,0.2,0.7,0.5,1.1,0.2C518.9,397.1,518.4,396.4,518.3,396.3z"/>
	<path fill="#7C8284" d="M479.2,396.5c0.4,0.3,1.1,0.1,1.1-0.1c0-0.2,0-0.4,0.1-0.6c0.1-0.2-0.4-0.7-0.4-0.7h0c0,0,0-2.9,1.1-4.6
		c0,0,0,0.1,0,0.1l0.4-0.2c0,1.1,0,2.8,0,5c0,0,0,0,0,0l-1.1,8.2l0.1,0.2l0,0.4h0c-0.1,0-0.7,0.1-1.2,0.3c-0.2,0.1-0.1,0.2,0.1,0.2
		l2-0.1c0,0,0.3-0.6,0-0.9l0.1-0.5h0.2l1.5-6.4l1.7,6.7l0.2,0l0.1,0.3c-0.3,0.3,0,0.7,0,0.7l2,0.1c0.2,0,0.2-0.2,0.1-0.3
		c-0.5-0.2-1.1-0.5-1.2-0.5l0-0.3l0.1,0l-0.9-7.5c0.1,0,0.2,0,0.2,0c-0.2-2.6-0.2-4.2-0.2-5.3l0.2,0.2c0.1,0,0.1-0.2,0.2-0.3
		c1.1,1.7,1.1,4.6,1.1,4.6h0c0,0-0.5,0.5-0.4,0.7c0.1,0.2,0.2,0.3,0.1,0.5c0,0.2,0.7,0.5,1.1,0.2c0.4-0.3-0.1-1.1-0.1-1.1
		c0.1-2.7-0.6-4.4-1.2-5.4c0-0.1,0.4-0.1,0.4-0.1c-0.3-0.6-0.6-0.9-0.6-1.1c0,0,0,0,0,0s-0.4,0-0.4,0c-0.1-0.1-0.4-0.1-0.4-0.1
		c-0.2-0.1-0.6-0.2-0.9-0.2l0-1.4c0,0,0.3-0.1,0.3-0.4c0,0,0.5-0.7-0.1-1.5c-0.6-0.9-2.3-1-2.3,0.3c0,0.6,0.2,0.9,0.2,1l0,1.7l0.4,0
		l-0.3,0.4c-0.3,0-0.3,0.1-1.3,0.2c0,0,0,0,0,0c0,0-0.4,0.2-1,1.2c0,0,0.2,0.1,0.4,0.3c-0.6,1-1.2,2.7-1.1,5.3
		C479.3,395.4,478.8,396.2,479.2,396.5z M482.2,385.3l0,0.7C482.2,385.8,482.2,385.3,482.2,385.3z"/>
	<g>
		<path fill="#D89F79" d="M510.8,390.4c0,0,2.1,1.6,1.8,5.6H512c0,0,0.1-3-1.3-4.6L510.8,390.4z"/>
		<polygon fill="#D89F79" points="506.7,398.6 505.9,405.1 506.8,405.1 508.1,398.5 		"/>
		<polygon fill="#D89F79" points="510.6,398.5 511.3,405 510.5,405 509.2,398.4 		"/>
		<path fill="#5FC4CC" d="M510.4,396l1,8.6l-1.1,0.1l-1.7-6.6l-1.5,6.6l-1.2,0l1.2-8.7C507,396,509.5,395.4,510.4,396z"/>
		<path fill="#333333" d="M511.3,405c0.1,0,0.7,0.3,1.2,0.5c0.2,0.1,0.1,0.3-0.1,0.3l-2,0c0,0-0.3-0.4,0-0.7L511.3,405z"/>
		<path fill="#333333" d="M505.9,405c-0.1,0-0.7,0.3-1.2,0.5c-0.2,0.1-0.1,0.3,0.1,0.3l2,0c0,0,0.3-0.4,0-0.7L505.9,405z"/>
		<path fill="#D89F79" d="M506.1,390.6l-1.3,1.4l-1-1.8l-0.4,0.3l1,2.6c0.1,0.2,0.4,0.3,0.5,0.1l2.1-2L506.1,390.6z"/>
		<path fill="#0071BC" d="M510.6,390c0,0-1.5-0.9-3.6-0.2c0,0-0.1,2.3-0.1,6.8c0-0.1,3.8,0.6,3.8,0.6
			C510.3,390.8,510.6,390,510.6,390z"/>
		<path fill="#D89F79" d="M507.5,386.7l0.1,2.5l0.4,0l-0.1,0.7c0,0,0.7,0.6,1.5-0.1l0-1.6c0,0,0.3-0.1,0.3-0.4
			c0-0.4-0.4-0.2-0.4-0.2l0-1L507.5,386.7z"/>
		<path fill="#D89F79" d="M509.4,389.8l-0.9,0.8l-0.5-0.7C508,389.9,508.9,389.8,509.4,389.8z"/>
		<path fill="#0071BC" d="M510.2,389.8c0,0,0.8,0.2,1.4,1.2c0,0-0.3,0.7-0.9,0.9l-0.7-0.5L510.2,389.8z"/>
		<path fill="#0071BC" d="M507,389.8c0,0-0.7,0.1-1.3,1.2c0,0,0.3,0.7,0.9,0.9l0.7-0.5L507,389.8z"/>
		<path d="M509.4,387.6l0,0.8l-0.4,0l0-1.3c0,0,0.1-0.5-1.5-0.5c0,0,0,0.8,0,0.8s-0.2-0.3-0.2-1c0.1-1.3,1.7-1.1,2.3-0.3
			c0.6,0.9,0.1,1.5,0.1,1.5S509.6,387.5,509.4,387.6z"/>
		<ellipse fill="#D89F79" cx="503.7" cy="390.2" rx="0.3" ry="0.5"/>
		<ellipse fill="#D89F79" cx="503.3" cy="390.3" rx="0.3" ry="0.7"/>
		<circle fill="#D89F79" cx="512.5" cy="396.7" r="0.5"/>
		<path fill="#D89F79" d="M512.1,396.2c0,0-0.4,0.4-0.3,0.6c0.1,0.2,0.2,0.2,0.4,0.1C512.3,396.7,512.7,396,512.1,396.2z"/>
	</g>
	<g>
		<polygon fill="#D89F79" points="518.8,398.4 518.1,404.9 519,404.9 520.3,398.3 		"/>
		<polygon fill="#D89F79" points="521.4,398.3 522.2,404.8 521.3,404.8 520,398.2 		"/>
		<path fill="#F2A94C" d="M518.6,396c0,0-0.6,0.4-0.8,2.4s-0.6,2.9-0.6,2.9s2.6,1.4,5.8-0.2c0,0-0.6-1.7-0.6-2.6s-0.9-2.5-0.9-2.5
			S519.7,394.9,518.6,396z"/>
		<path fill="#D89F79" d="M521.6,391.2c0,0,2.4,1.8,2.1,6.8H523c0,0,0.2-3.6-1.5-5.5L521.6,391.2z"/>
		<path fill="#D89F79" d="M523,397.8c0,0-0.5,0.2-0.4,0.4c0.1,0.2,0.2,0.2,0.1,0.4c0,0.2,0.7,0.5,1.1,0.2c0.4-0.3-0.1-1.1-0.1-1.1
			H523z"/>
		<path fill="#D89F79" d="M518.5,391.2c0,0-2.4,1.8-2.1,6.8h0.7c0,0-0.2-3.6,1.5-5.5L518.5,391.2z"/>
		<path fill="#D89F79" d="M517.1,397.8c0,0,0.5,0.2,0.4,0.4c-0.1,0.2-0.2,0.2-0.1,0.4c0,0.2-0.7,0.5-1.1,0.2
			c-0.4-0.3,0.1-1.1,0.1-1.1H517.1z"/>
		<polygon points="519,390.1 519,390.9 519.8,390.8 519.9,390.1 		"/>
		<path fill="#333333" d="M522.2,404.8c0.1,0,0.7,0.3,1.2,0.5c0.2,0.1,0.1,0.3-0.1,0.3l-2,0c0,0-0.3-0.4,0-0.7L522.2,404.8z"/>
		<path fill="#333333" d="M518.1,404.8c-0.1,0-0.7,0.3-1.2,0.5c-0.2,0.1-0.1,0.3,0.1,0.3l2,0c0,0,0.3-0.4,0-0.7L518.1,404.8z"/>
		<path fill="#4FB3A6" d="M521.9,391.1c0,0-1.5-0.9-3.6-0.2c0,0,0.5,1.4,0.3,5.2c0-0.1,2.9,0,2.9-0.1
			C521.3,391.7,521.9,391.1,521.9,391.1z"/>
		<path fill="#D89F79" d="M518.9,387.8l0.1,1.8c0,0.6,0.5,0.8,0.7,0.8l0,0l-0.1,0.7c0,0,0.4,0.6,1.2-0.1l0-1.6c0,0,0.3-0.1,0.3-0.4
			c0-0.4-0.4-0.2-0.4-0.2l0-1L518.9,387.8z"/>
		<path fill="#D89F79" d="M520.8,391l-0.9,0.8l-0.5-0.7C519.3,391,520.3,391,520.8,391z"/>
		<path fill="#D89F79" d="M518.8,390.8c0,0-0.1,1,0.2,1.4l2,0.1c0,0,0.5-0.8,0.6-1.3C521.5,390.9,520.3,390.4,518.8,390.8z"/>
		<path fill="#4FB3A6" d="M518.6,392c0,0-0.7,1,0.1,1.4c0.8,0.4,1.5,0,1.5,0L518.6,392z"/>
		<path d="M519.2,387.1c-0.3,0.1-0.6,0.3-0.6,1.2l1.2-0.1l0.2-0.5l0.1,0.6l0.6-0.1l0,0.4c0,0,0.3-0.2,0.4,0.2c0,0.3-0.3,0.4-0.3,0.4
			l0,1.3l0.5,0.2c0,0,0.5-2.1,0.1-2.9C521.1,387.2,520.4,386.7,519.2,387.1z"/>
	</g>
	<g>
		<path fill="#D89F79" d="M490.6,391.2c0,0-2.1,1.8-1.8,5.8h0.6c0,0-0.1-3.1,1.4-4.7L490.6,391.2z"/>
		<path fill="#D89F79" d="M489.4,397c0,0,0.4,0.3,0.4,0.5s-0.1,0.2-0.1,0.4s-0.6,0.4-1,0.2s0.1-1,0.1-1H489.4z"/>
		<polygon fill="#D89F79" points="490.9,398.9 490.2,405.4 491,405.4 492.3,398.8 		"/>
		<polygon fill="#D89F79" points="493.5,398.8 494.2,405.3 493.4,405.3 492.1,398.7 		"/>
		<path fill="#D89F79" d="M493.6,391.4c0,0,2.1,1.6,1.8,5.6h-0.6c0,0,0.1-3-1.3-4.6L493.6,391.4z"/>
		<path fill="#D89F79" d="M494.8,397.4c0,0-0.4,0.2-0.4,0.4c0.1,0.2,0.1,0.2,0.1,0.4c0,0.2,0.6,0.5,1,0.2c0.4-0.3-0.1-0.9-0.1-0.9
			H494.8z"/>
		<polygon points="491.2,390.4 491.2,391.4 491.9,391.2 491.9,390.4 		"/>
		<path fill="#FCFCFC" d="M493.5,406.1"/>
		<path fill="#333333" d="M494.2,405.3c0.1,0,0.7,0.3,1.2,0.5c0.2,0.1,0.1,0.3-0.1,0.3l-2,0c0,0-0.3-0.4,0-0.7L494.2,405.3z"/>
		<path fill="#333333" d="M490.2,405.3c-0.1,0-0.7,0.3-1.2,0.5c-0.2,0.1-0.1,0.3,0.1,0.3l2,0c0,0,0.3-0.4,0-0.7L490.2,405.3z"/>
		<path fill="#F7CD14" d="M493.9,391.6c0,0-1.3-0.9-3.5-0.2c0,0,0.5,1.4,0.3,5.2c0-0.1,2.9,0,2.9-0.1
			C493.4,391.8,493.9,391.6,493.9,391.6z"/>
		<path fill="#D89F79" d="M490.9,388.3l0.1,1.8c0,0.6,0.5,0.8,0.7,0.8l0,0l-0.1,0.7c0,0,0.4,0.6,1.2-0.1l0-1.6c0,0,0.3-0.1,0.3-0.4
			c0-0.4-0.4-0.2-0.4-0.2l0-1L490.9,388.3z"/>
		<path fill="#D89F79" d="M492.8,391.5l-0.9,0.8l-0.5-0.7C491.4,391.5,492.3,391.5,492.8,391.5z"/>
		<path fill="#D89F79" d="M490.8,391.3c0,0-0.1,1,0.2,1.4l2,0.1c0,0,0.3-0.8,0.4-1.3C493.4,391.4,492.4,390.9,490.8,391.3z"/>
		<path fill="#F7CD14" d="M490.6,392.5c0,0-0.7,1,0.1,1.4c0.8,0.4,1.5,0,1.5,0L490.6,392.5z"/>
		<path fill="#C07BCE" d="M493.5,396.5c0,0,0.4,1.3,0.5,2.9c0.1,1.6,0.4,5.4,0.4,5.4l-1.2-0.1l-1-5.3l-1,5.4l-1.3-0.2
			c0,0,0.5-7,0.7-8.2C492.1,396.4,493.5,396.5,493.5,396.5z"/>
		<path d="M492.7,389.4c0,0-0.2,0-0.1-0.5c0,0-0.3-0.1-0.2-0.4c0,0-0.5,0.1-0.5-0.2c0,0-0.3,0.3-0.5,0c0,0-0.2,0.3-0.4,0.1l0.1,1.9
			c0,0,0.2,0.2,0.4,0.4l-0.1,0.4c0,0-0.5,0-0.6-0.4c0,0-0.4-0.2-0.2-0.7c0,0-0.5-0.2-0.2-0.6c0,0-0.4-0.3-0.1-0.7
			c0,0-0.4-0.5,0.2-0.8c0,0,0.2-0.7,0.8-0.3c0,0,0.4-0.3,0.8-0.1c0,0,0.5-0.3,0.7,0.3c0,0,0.5-0.1,0.5,0.6c0,0,0.4,0.3,0.1,0.8
			c0,0,0.4,0.3,0.1,0.8c0,0,0.3,0.3,0,0.6c0,0,0.2,0.5-0.2,0.7l-0.8-0.2c0,0-0.3-0.2,0-0.6c0,0-0.3-0.4,0.1-0.5
			C492.6,390.1,492.4,389.8,492.7,389.4z"/>
	</g>
	<g>
		<path fill="#D89F79" d="M479.4,390.2c0,0-2.1,0.8-1.8,5.8h0.6c0,0-0.1-3.1,1.4-4.7L479.4,390.2z"/>
		<path fill="#D89F79" d="M478.1,395.8c0,0,0.4,0.3,0.4,0.5c-0.1,0.2-0.1,0.2-0.1,0.4c0,0.2-0.6,0.4-1,0.1c-0.4-0.3,0.1-1.1,0.1-1.1
			H478.1z"/>
		<path fill="#D89F79" d="M483.4,390.2c0,0,2.1,0.8,1.8,5.8h-0.6c0,0,0.1-3.1-1.4-4.7L483.4,390.2z"/>
		<path fill="#D89F79" d="M484.6,395.8c0,0-0.4,0.3-0.4,0.5s0.1,0.2,0.1,0.4s0.6,0.4,1,0.1c0.4-0.3-0.1-1.1-0.1-1.1H484.6z"/>
		<g>
			<polygon fill="#D89F79" points="479.4,398.6 478.6,405.1 479.5,405.1 480.8,398.5 			"/>
			<polygon fill="#D89F79" points="483.3,398.5 484,405 483.2,405 481.9,398.4 			"/>
			<path fill="#2E3192" d="M483.1,396l1,8.6l-1.1,0.1l-1.7-6.6l-1.5,6.6l-1.2,0l1.2-8.7C479.7,396,482.2,395.4,483.1,396z"/>
			<path fill="#333333" d="M484,405c0.1,0,0.7,0.3,1.2,0.5c0.2,0.1,0.1,0.3-0.1,0.3l-2,0c0,0-0.3-0.4,0-0.7L484,405z"/>
			<path fill="#333333" d="M478.6,405c-0.1,0-0.7,0.3-1.2,0.5c-0.2,0.1-0.1,0.3,0.1,0.3l2,0c0,0,0.3-0.4,0-0.7L478.6,405z"/>
			<path fill="#C20004" d="M483.3,390c0,0-1.5-0.9-3.6-0.2c0,0-0.1,2.3-0.1,6.8c0-0.1,3.8,0.6,3.8,0.6
				C483,390.8,483.3,390,483.3,390z"/>
			<path fill="#D89F79" d="M480.2,386.7l0.1,2.5l0.4,0l-0.1,0.7c0,0,0.7,0.6,1.5-0.1l0-1.6c0,0,0.3-0.1,0.3-0.4
				c0-0.4-0.4-0.2-0.4-0.2l0-1L480.2,386.7z"/>
			<path fill="#D89F79" d="M482.1,389.8l-0.9,0.8l-0.5-0.7C480.7,389.9,481.6,389.8,482.1,389.8z"/>
			<path fill="#C20004" d="M482.9,389.8c0,0,0.8,0.2,1.4,1.2c0,0-0.3,0.7-0.9,0.9l-0.7-0.5L482.9,389.8z"/>
			<path fill="#C20004" d="M479.7,389.8c0,0-0.7,0.1-1.3,1.2c0,0,0.3,0.7,0.9,0.9l0.7-0.5L479.7,389.8z"/>
			<path d="M482.1,387.6l0,0.8l-0.4,0l0-1.3c0,0,0.1-0.5-1.5-0.5c0,0,0,0.8,0,0.8s-0.3-0.3-0.2-1c0.1-0.7,1.7-1.1,2.3-0.3
				c0.6,0.9,0.1,1.5,0.1,1.5S482.3,387.5,482.1,387.6z"/>
			<path d="M481.6,386.7c0,0-0.8,0.6-1.4,0.4l0-0.5L481.6,386.7z"/>
			<polygon points="482.1,388.5 481.5,388.8 481.3,388.4 481.9,388.1 			"/>
		</g>
	</g>
	<g>
		<path fill="#331A0A" d="M501.5,405.2h-0.4c0,0-0.2,0.5,0.4,0.6h0.7c0,0,0.2-0.3-0.3-0.4C501.9,405.4,501.6,405.4,501.5,405.2z"/>
		<path fill="#331A0A" d="M498.6,405.2h0.4c0,0,0.2,0.5-0.4,0.6H498c0,0-0.2-0.3,0.3-0.4C498.2,405.4,498.6,405.4,498.6,405.2z"/>
		<polygon fill="#3E5081" points="501.4,396.3 501.6,405.3 500.9,405.3 499.8,397.8 499.3,405.2 498.5,405.2 498.3,396.2 		"/>
		<path fill="#C1272D" d="M502.6,390.5c0,0-2.1-0.8-5.3,0c0,0,1.2,0.5,1,7.1c0-0.1,3.3,0.1,3.3,0
			C501.6,391.6,502.6,390.5,502.6,390.5z"/>
		<path fill="#D89F79" d="M503.3,397.3c0.3,1.2-0.2,1.3-0.4,1.2c-0.2,0-0.1-0.7-0.1-0.7s0,0.3-0.1,0.3s-0.2-0.4-0.2-0.4
			s-0.1-0.5,0.3-0.6S503.3,397.3,503.3,397.3z"/>
		<polygon fill="#D89F79" points="502.6,390.5 503.3,397.4 502.6,397.4 501.9,392.9 		"/>
		<path fill="#D89F79" d="M496.5,397.3c-0.3,1.2,0.2,1.3,0.4,1.2c0.2,0,0.1-0.7,0.1-0.7s0,0.3,0.1,0.3c0.1,0,0.2-0.4,0.2-0.4
			s0.1-0.5-0.3-0.6S496.5,397.3,496.5,397.3z"/>
		<polygon fill="#D89F79" points="497.3,390.5 496.5,397.4 497.3,397.4 497.9,392.9 		"/>
		<path fill="#D89F79" d="M498.9,387.2v2.4h0.4v0.8c0,0,0.4,0.8,1.4,0v-1.7c0,0,0.3-0.1,0.3-0.4s-0.4-0.2-0.4-0.2v-1H498.9z"/>
		<path fill="#5B3A1B" d="M500.6,388.2l0,0.1h-0.1l-0.2-1.2l0.6,0.1v0.9C500.8,388.1,500.7,388.2,500.6,388.2z"/>
		<path fill="#5B3A1B" d="M500.8,387.2c0,0,0.1-0.8-0.7-0.8c-0.8,0.1-1.3,0.7-1.3,0.7L500.8,387.2z"/>
		<path fill="#503316" d="M498.9,387.2c0,0-0.6-1.2,0.5-1.4l-0.1,0.3c0,0,0.3-0.4,0.7-0.4l-0.2,0.4c0,0,0.2-0.3,0.7-0.3l-0.3,0.4
			c0,0,0.5-0.3,0.8,0c0,0-0.8,0.2-0.6,1L498.9,387.2z"/>
		<path fill="#C1272D" d="M502.6,390.5l0.2,1.8l-1.1,0.8C501.7,393.1,501.4,390.4,502.6,390.5z"/>
		<path fill="#C1272D" d="M497.2,390.5l-0.2,1.8l1.1,0.8C498.2,393.1,498.4,390.4,497.2,390.5z"/>
		<g opacity="0.2">
			<polygon points="500,392.3 500.3,392.4 500.2,394.8 500.2,392.4 500,392.3 			"/>
			<polygon points="499.6,392.3 499.3,392.4 499.4,394.8 499.4,392.4 499.6,392.3 			"/>
			<path d="M500,392.2l0.8,0.2c0,0-0.2,2.4-0.2,2.5l0.4-2.6c0,0-0.2,0-0.3,0S500,392.2,500,392.2L500,392.2z"/>
			<path d="M499.6,392.2l-0.8,0.2c0,0,0.2,2.4,0.2,2.5l-0.4-2.6c0,0,0.2,0,0.3,0S499.6,392.2,499.6,392.2L499.6,392.2z"/>
			<path d="M500.1,391.4c0,0,0.2,0.3,0.2,0.5l-0.4,0.1l0.1,0.1l0.4-0.1C500.4,392,500.4,391.7,500.1,391.4z"/>
			<path d="M499.4,391.4c0,0-0.2,0.3-0.2,0.5l0.4,0.1l-0.1,0.1l-0.4-0.1C499.2,392,499.1,391.7,499.4,391.4z"/>
			<path d="M500.3,391.3c0,0,0.4,0.4,0.4,0.7c-0.2,0-0.7,0-0.7,0l0,0.1l0.7,0C500.7,392.2,501,391.8,500.3,391.3z"/>
			<path d="M499.3,391.3c0,0-0.4,0.4-0.4,0.7c0.2,0,0.7,0,0.7,0l0,0.1l-0.7,0C498.9,392.2,498.6,391.8,499.3,391.3z"/>
			<path d="M500,392.3c0,0,0.2-0.2,0-0.4c-0.2-0.2-0.4,0.1-0.4,0.1s0,0.2,0.1,0.2l-0.1,0.2c0,0,0,0.4,0.3,0.7c0,0,0.2-0.2,0.3-0.7
				L500,392.3z"/>
		</g>
	</g>
	<path fill="#29ABE2" d="M17.3,394.3c0,0,11.7,4,29.7,0c0,0.5,0,1.7,0,1.7s-13.4,3.6-29.6,0.4L17.3,394.3z"/>
	<path fill="#29ABE2" d="M47.3,394.3c0,0,11.7,4,29.7,0c0,0.5,0,1.7,0,1.7s-13.4,3.6-29.6,0.4L47.3,394.3z"/>
	<path fill="#29ABE2" d="M77.2,394.3c0,0,10.8,4,29.8,0c0,0.5,0,1.7,0,1.7s-13.5,3.6-29.7,0.4L77.2,394.3z"/>
	<path fill="#29ABE2" d="M106.6,394.3c0,0,11.4,4,29.4,0c0,0.5,0,1.7,0,1.7s-13.3,3.6-29.5,0.4L106.6,394.3z"/>
	<path fill="#29ABE2" d="M136.6,394.3c0,0,11.4,4,29.4,0c0,0.5,0,1.7,0,1.7s-13.3,3.6-29.5,0.4L136.6,394.3z"/>
	<path fill="#29ABE2" d="M166.9,394.3c0,0,11.1,4,30.1,0c0,0.5,0,1.7,0,1.7s-13.6,3.6-29.8,0.4L166.9,394.3z"/>
	<path fill="#29ABE2" d="M196.3,394.3c0,0,11.7,4,29.7,0c0,0.5,0,1.7,0,1.7s-13.4,3.6-29.7,0.4L196.3,394.3z"/>
	<path fill="#29ABE2" d="M225.8,394.3c0,0,12.2,4,29.2,0c0,0.5,0,1.7,0,1.7s-13.2,3.6-29.4,0.4L225.8,394.3z"/>
	<path fill="#29ABE2" d="M256.2,394.3c0,0,10.8,4,29.8,0c0,0.5,0,1.7,0,1.7s-13.5,3.6-29.7,0.4L256.2,394.3z"/>
	<path fill="#29ABE2" d="M286.2,394.3c0,0,10.8,4,29.8,0c0,0.5,0,1.7,0,1.7s-13.5,3.6-29.7,0.4L286.2,394.3z"/>
	<path fill="#29ABE2" d="M315.5,394.3c0,0,11.5,4,29.5,0c0,0.5,0,1.7,0,1.7s-13.3,3.6-29.5,0.4L315.5,394.3z"/>
	<path fill="#29ABE2" d="M345.4,394.3c0,0,10.6,4,29.6,0c0,0.5,0,1.7,0,1.7s-13.4,3.6-29.6,0.4L345.4,394.3z"/>
	<path fill="#29ABE2" d="M375.3,394.3c0,0,10.7,4,29.7,0c0,0.5,0,1.7,0,1.7s-13.4,3.6-29.7,0.4L375.3,394.3z"/>
	<path fill="#29ABE2" d="M405.3,394.3c0,0,11.7,4,29.7,0c0,0.5,0,1.7,0,1.7s-13.4,3.6-29.7,0.4L405.3,394.3z"/>
	<path fill="#29ABE2" d="M435.1,394.3c0,0,10.9,4,29.9,0c0,0.5,0,1.7,0,1.7s-13.5,3.6-29.7,0.4L435.1,394.3z"/>
	<rect x="17" y="393.6" fill="#0071BC" width="0.7" height="12.2"/>
	<rect x="46.9" y="393.6" fill="#0071BC" width="0.7" height="12.2"/>
	<rect x="76.7" y="393.6" fill="#0071BC" width="0.7" height="12.2"/>
	<rect x="106.5" y="393.6" fill="#0071BC" width="0.7" height="12.2"/>
	<rect x="136.3" y="393.6" fill="#0071BC" width="0.7" height="12.2"/>
	<rect x="166.2" y="393.6" fill="#0071BC" width="0.7" height="12.2"/>
	<rect x="196" y="393.6" fill="#0071BC" width="0.7" height="12.2"/>
	<rect x="225.8" y="393.6" fill="#0071BC" width="0.7" height="12.2"/>
	<rect x="255.6" y="393.6" fill="#0071BC" width="0.7" height="12.2"/>
	<rect x="285.5" y="393.6" fill="#0071BC" width="0.7" height="12.2"/>
	<rect x="315.3" y="393.6" fill="#0071BC" width="0.7" height="12.2"/>
	<rect x="345.1" y="393.6" fill="#0071BC" width="0.7" height="12.2"/>
	<rect x="374.9" y="393.6" fill="#0071BC" width="0.7" height="12.2"/>
	<rect x="404.7" y="393.6" fill="#0071BC" width="0.7" height="12.2"/>
	<rect x="434.6" y="393.6" fill="#0071BC" width="0.7" height="12.2"/>
	<rect x="464.4" y="393.5" fill="#0071BC" width="0.7" height="12.2"/>
</g>
</svg>
