<?xml version="1.0" encoding="utf-8"?>
<!-- Generator: Adobe Illustrator 18.1.1, SVG Export Plug-In . SVG Version: 6.00 Build 0)  -->
<svg version="1.1" id="Layer_1" xmlns="http://www.w3.org/2000/svg" xmlns:xlink="http://www.w3.org/1999/xlink" x="0px" y="0px"
	 viewBox="101 9 480 783" enable-background="new 101 9 480 783" xml:space="preserve">
<polygon fill="#E0A984" points="320.3,532.6 351.2,620.7 325.9,764.7 359.7,754 410,614 382.1,517.8 "/>
<path fill="#39B54A" d="M329.1,746c0,0-3.7,18.2-3,26.7c0.7,8.5,74.8,13.4,74.8,13.4s65.5-23.9,20.5-18.9
	c-29.3,3.3-55.7-19.9-55.7-19.9L329.1,746z"/>
<polygon fill="#E0A984" points="203.3,528 194.7,621 111.9,741.4 147,745.7 251,639.3 265.7,540.2 "/>
<polygon fill="#E0A984" points="414.9,235.7 433.3,290.7 535.2,287.1 531.1,312.7 402.7,329.9 348,205.5 389.9,177.5 "/>
<path fill="#39B54A" d="M216.8,178.2c0,0,80.7-26.9,173.7,0c-67.6,124.9-32.1,252-32.1,252s-145.2,7.8-145.9,0.7
	C200.5,299.9,216.8,178.2,216.8,178.2z"/>
<path fill="#E0A984" d="M351,49.5v103h-15.7v33.9c0,0-17.6,34.6-60.6,0V116c0,0-13-2.6-13-17.6s15-7.8,15-7.8V49.5H351z"/>
<path fill="#E0A984" d="M260.8,168.4c0,0,0.3,68.2,33.3,71.9s52.3-2.1,54.7-25.4c2.4-23.2-3.8-45.3-3.8-45.3
	S299.9,158.6,260.8,168.4z"/>
<path fill="#E0A984" d="M524.5,296.1l2.3-23.7l18.3-3.1l6.4,7l15-3.3c0,0,26.4,30.3-6,46.6l-32-6.8L524.5,296.1z"/>
<path fill="#E0A984" d="M248.6,252.8l18.3,48.9L377,343.3l-6.1,25.7l-126.7-28.8l-32.3-65.4c-18.3-39.1-23.9-82.2,6.1-97.9l0,0
	L248.6,252.8z"/>
<path fill="#E0A984" d="M358.2,354.8l2.3-23.7l18.3-3.1l6.4,7l15-3.3c0,0,26.4,30.3-6,46.6l-32-6.8L358.2,354.8z"/>
<path fill="#E0A984" d="M342.7,307.8"/>
<path fill="#ED1C24" d="M255.1,169.6c0,0-3.7,49.5,19.3,66.5s73.4,12.4,76.1-15.1s-4.6-52.8-4.6-52.8l-7.8-0.9
	c0,0,6.4,39.9,4.6,52.8c-1.8,12.8-43.9,28-65.1,8.3c-12.8-11.9-11-61-11-61L255.1,169.6z"/>
<path fill="#ED1C24" d="M216.8,178.2l15,30.4c0,0-0.5-17.9-9.6-32.1L216.8,178.2z"/>
<path fill="#ED1C24" d="M390.5,178.2c0,0-21.6,42.4-24.8,63l15.6-65.6L390.5,178.2z"/>
<path fill="#39B54A" d="M212.5,430.9c0,0-25.1,121.5-26.3,125.2c-1.2,3.7,33.6,26,81.3,23.5l30-89.6l31.8,88.1l74.6-20.8
	l-45.6-127.2C358.3,430.2,238.8,392.6,212.5,430.9z"/>
<polygon fill="#ED1C24" points="329.9,578.8 403.9,557.4 400.1,547.6 325.3,569.6 "/>
<path fill="#ED1C24" d="M186.2,556.1c0,0,17.6,26.8,81.3,23.5l2.8-11.5c0,0-49.1,9.2-81.6-21.1L186.2,556.1z"/>
<path fill="#39B54A" d="M111.9,741.4c0,0-5.2,17.8-5.2,26.4c0,8.6,73.4,19.6,73.4,19.6s67.3-18.3,22-17.1
	c-29.4,0.8-53.8-24.5-53.8-24.5L111.9,741.4z"/>
<path fill="#231F20" d="M276.7,92.5l9.8,30.6l12.2-8.6l-1.2-37.9c0,0-24.5-12.2-8.6-25.7c12.5-10.5,63.6,9.8,63.6,9.8
	s9.8-23.2,0-35.5c-15.9-19.9-20.8,0-50.2-6.1c-16.8-3.5-50.2,3.7-61.2,40.4c-8.5,28.3,20.8,47.7,20.8,47.7S255.9,95,276.7,92.5z"/>
</svg>
