<?xml version="1.0" encoding="utf-8"?>
<!-- Generator: Adobe Illustrator 18.1.1, SVG Export Plug-In . SVG Version: 6.00 Build 0)  -->
<svg version="1.1" id="Layer_1" xmlns="http://www.w3.org/2000/svg" xmlns:xlink="http://www.w3.org/1999/xlink" x="0px" y="0px"
	 viewBox="0 96 616 537" enable-background="new 0 96 616 537" xml:space="preserve">
<g>
	<g>
		<path fill="#FCFAF3" d="M607.9,601c-7.5-14-14.9-27.9-22.4-41.9c-1.5-2.7-2.9-5.5-4.4-8.2c-12-22.4-24-44.8-36-67.2
			c-7-13.2-14.8-27.1-28-34.1c-18.4-9.8-41.6-3.3-61.3-9.9c-14.4-4.8-26.5-16.5-41.6-17.6c-4-0.3-8.2,0.1-11.9-1.6
			c-5-2.3-7.5-8-8.9-13.3c-6-22.5-0.7-48.4-13.3-68c-13.6-21.2-43.1-26.9-58.4-46.9c-9.2-12-12-27.6-15.3-42.3
			c-6.9-31-17.3-61.8-35.8-87.6c-8.9-12.4-19.6-23.5-31.7-32.8c-2.8-2.2-6.1-4.4-9.6-4.1c-8.6,0.7-9.3,12.9-13.5,20.5
			c-5.2,9.6-17.6,12.5-25.9,19.8c-12.6,11.1-13.4,30.2-20.6,45.5c-8.6,18.4-26.7,31.2-34.5,49.9c-6.1,14.6-5.1,31.1-7.1,46.8
			c-3,22.8-12.3,44.3-21.5,65.3c-8.2,18.7-16.4,37.4-24.6,56.1c-8.9,20.3-17.8,40.9-20.4,62.9c-2.8,24.4,1.3,52.5-15.7,70.3
			c-10.6,11.1-29.1,18-29.4,33.3c-0.1,2.5,0.5,5.1,2.2,6.9c2.3,2.3,5.9,2.6,9.2,2.7c157.1,5.9,314.3,5.7,471.5,5.4
			c29.8,0,59.7-0.1,89.3-3.7"/>
	</g>
	<path fill="#5E6280" d="M252.3,614.8l86.6-57.4c0,0-6.7-34.9-2.2-52.9c4.5-18,25.9-37.1,25.9-37.1l-7.9-77.6c0,0-21.4-1.1-32.6,4.5
		l-20.2,22.5L313,392h-34.9c0,0-9,4.5-7.9,10.2s-12.4,19.1-12.4,19.1s-1.1-48.4-15.7-60.7c-14.6-12.4-40.5-15.7-40.5-41.6
		c0,0-14.6,22.5-6.7,39.4c7.9,16.9,30.4,28.1,30.4,42.7s-3.4,29.2-3.4,29.2L205,416.8c0,0,17,22.5,6.9,39.4
		c-10.1,16.9-28,38.2-28,38.2s0-43.9,0-49.5s-20.4-23.6-20.4-23.6s8.9-37.1-6.8-51.7s-32.7-54-32.7-54s-3.4,27-18,42.7
		s-15.8,28.1-14.6,31.5c0,0-10.1,20.2-11.3,28.1s-25.9,46.1-24.7,66.4c1.1,20.2,1.1,65.2-14.6,82.1c0,0,23.6,0,40.5,12.4
		s32.6,32.6,32.6,32.6L252.3,614.8z"/>
	<path fill="#FCFAF3" d="M171.3,456.2l2.2,42.7l-14.6,11.2c0,0-6.7-15.7-1.1-23.6S171.3,467.4,171.3,456.2z"/>
	<path fill="#FCFAF3" d="M145.4,520.3l-13.5,11.2l-10.1-27l2.2,31.5l-15.7,12.4c0,0,2.2-31.5-13.5-41.6c-15.7-10.1-9-36-9-36
		s9,20.2,16.9,20.2s21.4,6.7,28.1-9C130.8,482.1,131.9,511.3,145.4,520.3z"/>
	<path fill="#5E6280" d="M412,484.3c0,0,10.1,23.6,10.1,33.7c0,10.1,0,32.6,11.2,37.1c0,0,19.1-16.9,23.6-47.2
		C457,507.9,421,501.2,412,484.3z"/>
	<path fill="#D8D8D6" d="M198.3,160.4c0,0-2.2,20.2,3.4,23.6s20.2,3.4,20.2,3.4l-3.4,24.7c0,0-3.4-12.4-7.9-13.5
		c-4.5-1.1-25.9,4.5-25.9,4.5s7.9-9-5.6-19.1C179.2,184,182.6,162.6,198.3,160.4z"/>
	<path fill="#D8D8D6" d="M136.4,303.2c0,0,15.7-21.4,23.6-24.7s18,0,20.2-4.5s12.4-14.6,12.4-14.6l2.2,12.4c0,0-12.4,13.5-16.9,14.6
		s-15.7,1.1-20.2,9S136.4,303.2,136.4,303.2z"/>
	<path fill="#D8D8D6" d="M48.7,579.9l-5.6,18l38.2,1.1c0,0-5.6-20.2-10.1-15.7S56.6,588.9,48.7,579.9z"/>
	<path fill="#D8D8D6" d="M291.7,254.9c0,0-4.5,33.7,0,37.1s14.5,1.1,14.5,1.1L288,317.8v-13.5c0,0-16.7-2.2-15.6-18
		S290.5,283,291.7,254.9z"/>
	<path fill="#D8D8D6" d="M250,177.3c0,0,4.5-12.4,12.4-10.1c0,0-9-16.9-19.1-16.9l10.1,11.2C253.4,161.5,246.7,168.3,250,177.3z"/>
	<path fill="#D8D8D6" d="M98.2,489.9l-3.4,16.9l-3.4-23.6C91.5,483.2,91.5,491,98.2,489.9z"/>
	<path fill="#D8D8D6" d="M161.4,482.1l5.6,7.9v-20.2C167,469.7,167,482.1,161.4,482.1z"/>
	<path fill="#D8D8D6" d="M181.4,370.7c0,0,10.1-2.2,13.5,18c3.4,20.2,10.1,28.1,10.1,28.1l-10.1,7.9c0,0,4.5-7.9-4.5-13.5
		C181.4,405.6,194.9,397.7,181.4,370.7z"/>
	<path fill="#D8D8D6" d="M254.5,384.2c0,0,13.5-20.2,9-31.5s-27-42.7-40.5-25.9c-4.5-9,3.4-34.9,3.4-34.9s-37.9,21.8-18,45
		C219.8,350.3,252.3,352.7,254.5,384.2z"/>
	<path fill="#D8D8D6" d="M457,507.9c2.5,0.3,11.2-13.5,13.5-16.9s-11.2-24.7-16.9-30.4s6.7,31.5-29.2,36
		C424.4,496.7,445.7,506.8,457,507.9z"/>
	<path fill="#D8D8D6" d="M577.3,609.1c0,0-33.7-66.4-38.2-68.6s-7.9-6.7-30.4-9c-22.5-2.2-38.2-40.5-38.2-40.5l-3.4,120.3
		C467.1,611.4,562.7,620.4,577.3,609.1z"/>
	<path fill="#3A3E60" d="M124.1,321.2c0,0,2.2,24.7,10.1,37.1c0,0-6.7-9-12.4-2.2c-5.6,6.7-6.7,18-13.5,20.2S93.7,373,93.7,373
		s7.9-20.2,15.7-21.4S125.2,328,124.1,321.2z"/>
	<path fill="#3A3E60" d="M278.2,392.1c0,0-14.6,13.5-20.2,29.2l21.4-11.2l9,24.7c0,0,2.2-24.7,13.5-40.5L278.2,392.1z"/>
	<path fill="#3A3E60" d="M252.3,615c0,0-2.2-37.2,7.9-58.6c10.1-21.4,19.1-49.5,19.1-49.5s-34.9,56.3-49.5,63.1S196.1,596,190.4,615
		H252.3z"/>
	<path fill="#3A3E60" d="M87,496.7c0,0-6.7,12.4,2.2,21.4c9,9,20.2,16.9,19.1,30.4c0,0-3.4-19.1-5.6-32.6
		C100.5,502.3,91.5,510.2,87,496.7z"/>
	<path fill="#3A3E60" d="M354.6,389.8c0,0,4.5,30.4,4.5,47.2s3.4,30.4,3.4,30.4s-7.9-23.6-15.7-19.1s5.6-13.5,3.4-29.2
		C347.9,403.3,354.6,389.8,354.6,389.8z"/>
	<path fill="#3A3E60" d="M205,417.9l10.1-5.6c0,0,4.5,7.9,9,9s24.7-7.9,24.7-7.9s-11.2,30.4-11.2,48.4s-24.7,23.6-24.7,23.6
		s-9-11.2-5.6-13.5s14.6-18,5.6-22.5C212.9,449.4,223,435.9,205,417.9z"/>
</g>
<g>
	<polygon fill="#E0A984" points="211,199.7 211.4,198.1 212.2,197.4 212.6,197.8 213.2,197.5 213.5,199.5 212.6,200.1 211.5,200.3 	
		"/>
	<polygon fill="#458996" points="202.4,208.6 201.1,210.9 201.3,213.3 198.9,218.4 194.2,223.4 195.8,225.1 201.4,220.1 
		205.5,214.2 206.4,209.4 	"/>
	<path fill="#8C6239" d="M204.3,198.1c0,0-1.4-1.3-0.4-2.8c1-1.5,2.7-1.3,3.3-0.8l0.3-0.4c0,0,0.6,0.9-0.1,1.2
		c-0.1,0-0.2,2.7-0.2,2.6c0-0.1-1.5,0.8-1.5,0.8L204.3,198.1z"/>
	<path fill="#E0A984" d="M203.6,198.9l0.6-0.9l1.5,0l0.3-0.7c0,0-0.7-0.7,0.2-0.8l0.5,1l0.4-0.2l-0.3-1.3l0.7-0.7l0.2,3.8l-1.2,0
		L206,200L203.6,198.9z"/>
	<polygon fill="#0071BC" points="201.8,208.6 206.4,209.6 206.5,211 212.9,214 208.5,223 206.5,222.7 208.2,215.3 205.4,215.1 
		201.2,213.2 201.1,210.9 	"/>
	<polygon fill="#006837" points="203.3,199.6 207,202 208.3,201 211.1,199.4 211.7,200.2 207.3,204.1 202.1,201.1 	"/>
	<path fill="#009245" d="M201.1,210.4l-0.1-2.1c0,0,0.1-2.2,0.1-2.9c-0.1-1.4,0.1-3.8,1.1-5.9c0.9-0.5,1.4-0.6,1.4-0.6
		s1.3,0.6,2.2,0.4l1.5,0.7l1,0.3l-0.2,3.7l-0.7,2.8c0,0,0.4,2.4-0.8,4.3L201.1,210.4z"/>
	<path fill="#009245" d="M205.7,200.7c-0.2,1.1,0.9,1.9,2.8,2.3c1.9,0.4,4.3,0.1,4.3,0.1l0.8-0.9l2.3-3.9l-1-0.9l-3.2,3.7
		C209.8,201,205.9,199.5,205.7,200.7z"/>
	<path fill="#E0A984" d="M216.6,196.4l-1-0.1l-0.3,0.7l-0.5,0l0,0.7l1.1,0.6l1.3-1C217.2,197.3,217.9,196.6,216.6,196.4z"/>
	<path fill="#333333" d="M206.7,222.7c0,0-0.9,0.5-1.1,2.1c0,0,0.7,0.4,1.4,1.1c0.7,0.8,2.9,0.5,2.9,0.5l0.2-0.6c0,0-1-0.5-1.2-0.9
		c-0.2-0.4-0.5-2-0.5-2L206.7,222.7z"/>
	<path fill="#009245" d="M206.4,199.8c0,0-0.2-0.6,0.5-0.7c0,0,0.8-2.2-0.3-4.9c0,0-0.8-0.8-2.7-0.2c-1.9,0.7-0.4,5.5-0.4,5.5
		L206.4,199.8z"/>
	<path fill="#FFFFFF" d="M206.5,199.2l0.3,0.2l0-0.2l0.3,0L207,199l0.5-0.3l-0.3-0.1l0.3-0.5l-0.3-0.3l0.2-0.6l-0.3-0.3l0.3-0.2
		l-0.3-0.3l0.3-0.4l-0.4-0.3l0.3-0.2l-0.3-0.2l0.2-0.4l-0.3-0.1l0-0.3l-0.2-0.2l0-0.4l-0.4,0l-0.2-0.4l-0.6,0.1l-0.4-0.3l-0.3,0.3
		l-0.3-0.1l-0.1,0.3c0,0,1.2-0.2,1.8,0.3l0.1,0.5l0.3,0.2l-0.2,0.6l0.3,0.1l-0.2,0.6l0.3,0.2l-0.4,0.5l0.4,0l-0.3,0.5l0.4,0.2
		l-0.4,0.3l0.2,0.4c0,0-0.2,0.1-0.2,0.1c0,0,0.4,0.5,0.4,0.5s-0.2,0-0.2,0l0.1,0.2C206.9,199,206.8,199.1,206.5,199.2z"/>
	<path fill="#333333" d="M207.4,201.4c0,0,1-2.2-1.2-2.8c-2.2-0.7-3.3-0.7-3.9-0.3c-0.7,0.4-0.4,1.5-0.4,1.5s-0.7-0.2-1.2,0.9
		s-1.8,7.6-0.7,8.5c1,0.9,5.5,1.9,6,0.2S207.4,201.4,207.4,201.4z"/>
	<path fill="#1A1A1A" d="M206.9,199c0,0-1.2,0-1.1,1.1l-3.9-0.2l4.1,0.9c0,0-0.5,0.2-0.6,1.4c0,1.1-1,8.3-1,8.3s1.3,0,1.6-0.9
		s1.3-6.6,1.4-8.2C207.4,201.4,208,199.4,206.9,199z"/>
	<path fill="#1A1A1A" d="M200.5,206.1c0,0-0.2,1,0.4,1.2c0.6,0.1,2.6,0.9,2.9-0.6c0.3-1.5,0.4-3.1,0.4-3.1s-0.8-0.6-0.9,0.3
		l-0.1,0.7l-2.2-0.3l2.2,0.7c0,0,0.1,1.9-0.4,2.1S200.5,207.3,200.5,206.1z"/>
	<polygon fill="#1A1A1A" points="201.3,201.1 201.2,201.7 204.3,202.2 204.3,201.6 	"/>
	<path fill="#1A1A1A" d="M206.8,205c0,0,0.1,1.6,0.7,1.6c0,0-0.1,0.5,0,0.8c0.1,0.3-0.7,0.1-1-0.5S206.8,205,206.8,205z"/>
	<path fill="#1A1A1A" d="M207.2,201.8c0,0,1.1-0.9,1.8-1.1l-0.4-0.3h-1.2L207.2,201.8z"/>
	<path fill="#FFFFFF" d="M211.2,199.1l-0.4,0.2l0.2,0.3c0,0-0.1,0.4,0,0.4c0.1,0,0.5,0,0.5,0v0.3l0.3,0l0.1,0.3l0.2-0.5l0.2-0.1
		l-0.4-0.2l0.1-0.4l-0.5,0.1l0.1-0.4l-0.3,0.1L211.2,199.1z"/>
	<polygon fill="#FFFFFF" points="214.5,197.9 214.4,198.1 214.9,198.2 215,198.6 215.3,198.5 215.5,198.8 215.7,198.6 216,198.8 
		216,198.4 216.3,198.2 215.8,198.1 215.8,197.8 215.3,197.8 215.3,197.4 214.8,197.6 214.5,197.4 	"/>
	<path fill="#333333" d="M195.2,222.3l-2,2.2c0,0,0.3,1.8,0.4,2.3s0.5,2,1.6,1.7c1.1-0.3,0.6-1.3,0.4-1.8c-0.2-0.5,0.1-1.6,0.1-1.6
		l1.3-0.9C197.1,224.1,195.3,223.6,195.2,222.3z"/>
	<path fill="#333333" d="M207,220.6c0,0,1.3,0.5,2.6,0.4l-1.2,2.7l-2.5,0.1L207,220.6z"/>
</g>
<g>
	<g>
		<path fill="#ED1C24" d="M228.3,117.7l-1.9-15.7c0,0-8.6-0.9-13.9,2.3c0.4,7.6,3,16.4,4.8,21.9C221.9,121,228.3,117.7,228.3,117.7z
			"/>
		<path fill="#39B54A" d="M189.7,118.4l5.2,21c0,0,7.2-0.7,13-3.5l-4-19.6C200.6,120,196,121.8,189.7,118.4z"/>
		<path fill="#FFFFFF" d="M214.4,130.4c0.8-1.5,1.8-2.9,2.9-4.3c-1.8-5.5-4.4-14.3-4.8-21.9c-1.4,0.9-2.6,2.1-3.3,3.7
			c-1.3,3-3,6.1-5.2,8.4l4,19.6C210.7,134.6,213.2,132.8,214.4,130.4z"/>
	</g>
	
		<ellipse transform="matrix(0.9774 -0.2115 0.2115 0.9774 -21.0471 46.9295)" fill="#754C24" cx="208.9" cy="121.9" rx="2" ry="3.7"/>
	<polygon fill="#754C24" points="229,131.2 229.4,102 227,102 227,130.6 	"/>
</g>
</svg>
