<?xml version="1.0" encoding="utf-8"?>
<!-- Generator: Adobe Illustrator 18.1.1, SVG Export Plug-In . SVG Version: 6.00 Build 0)  -->
<svg version="1.1" id="Layer_1" xmlns="http://www.w3.org/2000/svg" xmlns:xlink="http://www.w3.org/1999/xlink" x="0px" y="0px"
	 viewBox="0 0 295.2 215.4" enable-background="new 0 0 295.2 215.4" xml:space="preserve">
<g>
	<polygon fill="#231F20" points="187.1,91.4 213,91.4 255.5,116.4 258,109.6 220.6,83.9 194.4,81.1 	"/>
	<path fill="#231F20" d="M255.5,116.4l6.9,6.2v3.2l8.5,3.4l-4.8-6.4v-6.4l4.8-4.1l18.8,8.5v-1.1l-15.4-9l2.5-1.6l14.9,7.3v-1.1
		l-8-6.2h2.1l-0.7-1.1l-8.3-3.4l-19.9,4.3C256.9,108.8,252.7,113.9,255.5,116.4z"/>
	<path fill="#231F20" d="M182.9,89.4l-9.6,12.6l21.8,3.7l3,18.4l-8.5,5.3L149,139.4l16.5,31.2l21.6,16.5h-18.8l-1.8-8l-12.4-6.9
		l-12.2-23.9l-8.3-5.3l5-12.2l48.4-14l-53.5,7.6l-6.7,27.5l2.8,46.1l2.8-4.1l2.8,1.1l1.1,6.4l9.9,3.9v5.3h-1.4l-2.1-3.4l-3.7-0.2
		l-0.5,3.7h-6.2l-2.1-2.8l-7.1-0.5l-2.3,6.7h-1.8l1.6-12.9l-1.6-0.7l1.1-12.9l-6.7-33.3l3.4-7.1l6.9-18.1l-5-1.6l-8.5,35.8l-2.8,1.8
		l-2.3,11.2l3,9.4l-7.1,1.6l-8.3-4.4l5.3-11.2l-0.5-3.2l-4.8-6l3.7-37.9l6.7-1.8l3.4-16.5l-1.6-7.8l10.1-7.8l2.5,7.8l14.9-11l-0.9-3
		l5.7-5l2.5-4.1l4.4-2.1l6.4,4.1l1.1-4.1h-16.5h-5.5l-8.5-2.3c0,0-3.7-3.4-2.3-11.7c1.4-8.3,17.4-14.2,44.5-11.5
		s46.5,18.9,41.8,34.2L202,93.7c0,0,2.3,4.6,0.7,5S190,100.6,182.9,89.4z"/>
	<path fill="#414042" d="M205.5,82.3h-10c0,0-23.9-19.3-39.2-21.6s-32.7-0.6-24.2,12.9c0,0-6.3,0.2-10.7-2.3
		c0,0-15.3-20.1,21.6-23.5s53.3,11.5,59.9,34.3"/>
	<path fill="#414042" d="M152.5,106.4c0,0,4.4-28.2-7.5-32.5l-4,1.3l-2.7,3.5C138.2,78.6,149.1,77.2,152.5,106.4z"/>
	<path fill="#414042" d="M140.7,106.4c0,0,5.4-7.8,4.3-12.7s-4.4-11.8-11.5-6.6c0,0,3.4,11.3-1.2,19.3l-7.2,35.7l3.8,1.6l4.6-19.2
		l3.5-0.5L140.7,106.4z"/>
	<polygon fill="#414042" points="126.9,152 121.4,150.2 126,198.4 129.7,198.2 	"/>
	<path fill="#414042" d="M159.2,107.2c0,0,12.5-3.8,14.4-9c1.8-5.2,2.4-9.8,2.4-9.8l6.3,1.8l-9,11.8
		C173.3,102,166.7,107.3,159.2,107.2z"/>
	<path fill="#414042" d="M109.6,164l-3.2-4.3l-6.9,4.3l10.1-44.1l8.6-6.9l0.6,14.7l-7.3,30.7C111.6,158.4,110.9,163.2,109.6,164z"/>
	<path fill="#303030" d="M204.5,85.5c0,0-3.7-2.8-9,2.3c0,0-1.7,8.8,6.8,6.5l0-0.9L204.5,85.5z"/>
	<path fill="#6D6E71" d="M199.5,85.6v2.1c0,0,3.8,1.9,5.9,0.7L205,86C205,86,202.1,84.7,199.5,85.6z"/>
	<path fill="#6D6E71" d="M196.6,92.6c0,0,1.5,1.5,5.4,1.1l1.4-1.8c0,0-3.9-0.4-5.7-1.4C197.6,90.5,196.3,91.5,196.6,92.6z"/>
	<path fill="#414042" d="M132,69.9c0,0-1.5-4.6,1.8-6.3c3.4-1.7,19-4.4,35,8.1C168.9,71.7,136.4,68.6,132,69.9z"/>
	<path fill="#231F20" d="M182.3,69.2c0,0-24.1-17.6-50.7-10.3c0,0-1-6,17.2-7.3C167,50.3,180.8,64.7,182.3,69.2z"/>
	<path fill="#414042" d="M156.2,108c0,0-5.4,3.3-5.9-6.1c0,0,0.2-20.6-13.9-21.1l-4.6,4.1c0,0,13.5-6.8,16.5,15.2
		C148.2,100,146.9,111.1,156.2,108z"/>
	<polygon fill="#414042" points="126.8,115.6 129.7,102.9 129.4,90.2 123.3,94.7 120.6,106.4 	"/>
	<polygon fill="#414042" points="102.5,123.3 96.4,167.1 93,162.8 96.6,124.9 	"/>
	<polygon fill="#414042" points="161,108.5 152.3,121.8 159.9,120.8 168.9,106.4 	"/>
	<polygon fill="#414042" points="150.2,122.1 155.5,109.8 147,109.8 141.8,123.3 	"/>
	<path fill="#231F20" d="M106.7,106.6c0,0-8.7-20.4-30.1-32.7S14.7,42.3,8.7,34S-9.9,12.2,14,2.6c0,0,21.6,3.7,23,11.7l-0.7,9.9
		l-4.8,0.7c0,0-14.9-9.9-18.8-9c-3.9,0.9,1.1,10.6,9,15.1s37.2,19.5,45.9,23.5s48.2,21.9,50.3,44.2L106.7,106.6z"/>
	<path fill="#231F20" d="M36.3,24.2l1.8,5.5c0,0,19.8-2.7,31,21.9c0,0,3-38.4-37.4-38.2L36.3,24.2z"/>
	<path fill="#414042" d="M36.5,16.6c0,0,26.2,4.5,32.6,35c0,0,1.6-36.8-32.1-37.2L36.5,16.6z"/>
	<polygon fill="#303030" points="181.3,87.8 179.3,86.3 179.3,82.9 170.8,73.9 154.7,72.6 161.9,76.2 168,83.9 165,95.3 
		156.2,100.3 168.9,95.4 172.6,86.4 176.6,85.8 177.4,87.9 	"/>
	<polygon fill="#303030" points="185.7,117.3 146.9,131.7 138.6,130.9 	"/>
</g>
<g>
	<polygon fill="#D89F79" points="267.9,120.7 258.6,130.8 259.6,121 259.7,118.3 262.8,117.7 	"/>
	<path fill="#D89F79" d="M263.5,101.1l-3.4,11.4c-0.3,1,0.2,2,1.2,2.3l1.3,0.4l-1.2,3.8c0,0,2.1,3.7,5.5,1.8l2.5-7.8
		c0,0,1.5,0.2,2.1-1.5c0.5-1.7,0.2-4.2,0.2-4.2l1.5-4.8L263.5,101.1z"/>
	<path fill="#D89F79" d="M290.2,149.5c0,0-0.6,3.2-1.6,4.2s0.9,3.3,0.9,3.3h3.1c0,0,2.2-1.7,2.6-3.2s-1.6-6.3-1.6-6.3L290.2,149.5z"
		/>
	<path fill="#D89F79" d="M248.8,96.8l-0.7-4.7l1.4-4.9l-2.1-5.4l-1,0.5l1.3,3.7c0,0-1.7-0.8-1.8-0.7c-0.1,0.1-1.4,1.1-1.4,1.1
		l-0.5,2.2l0.7,0.3l0.3-0.5l-0.2,3.9l0.6,0.6l0.3,4.4L248.8,96.8z"/>
	<path d="M245.3,99.4c-0.3-0.2-0.1-4.1-0.1-4.1s2.4,1.2,3.7-0.6l1.2,4.3C250.1,99.1,248,101.2,245.3,99.4z"/>
	<path fill="#B3B2B3" d="M291.7,207.1l1.6,5.2l-1.7,0.5l-1.1-1.6c0,0-1.2,4.8-12.8,4.2c0,0,6.3-2.8,6.3-6.8L291.7,207.1z"/>
	<path fill="#B3B2B3" d="M247.2,204.1l-0.1,5.9c0,0-2.3,0.8-3.9-0.5l0.1-2.1c0,0-1.3,2.4-4.3,3.3c-3,0.9-7.2-0.5-7.2-0.5
		s7-1.9,7-5.4C238.8,204.5,247.2,204.1,247.2,204.1z"/>
	<path fill="#E5E5E4" d="M254.8,148.2c0,0,2,4.9,1.9,8c0,0-8.3,8.9-13.1,19.7c-1.4,4.6-6,28.8-6,28.8s3.1,1.9,10.7,0.8
		c0,0,2.9-21,3-27c0,0,3.6-2.6,5.3-5.3c1.7-2.6,9.7-9.1,9.7-9.1s4.6,3.1,6.2,8.3c1.5,5.2,2.6,8.3,3.2,9.7c0.5,1.5,0.4,5.3,1,6.9
		c0.6,1.6,5.1,8.7,5.6,22.3c0,0,8.9,1.1,10.5-4.1c0,0-3.9-8.7-4.2-12.7c-0.2-3.9-3.7-10.5-6-16.6c0,0-2.4-14.1-4.4-19.2
		s-7.7-14.1-7.8-14.3C270.2,144.2,254.8,148.2,254.8,148.2z"/>
	<path fill="#FFFFFF" d="M255.1,143.7l2.6,9.3l-0.2,3.1c0,0-8.8-1.9-13.1-7.1c0,0,3.5-3.6,2.9-8.7s-2.9-14.8,7-22.3l8-1.6
		L255.1,143.7z"/>
	<path fill="#FFFFFF" d="M249.9,97.9c0,0,4.4,14.8,9.4,19.1l-4.6,4c0,0-7.3-11.2-9.7-22.5C245,98.5,246.9,100,249.9,97.9z"/>
	<path fill="#FFFFFF" d="M269.1,118.4c0,0,16.3,9,20.2,16.1c3.9,7,5.8,14.7,5.8,14.7s-1.5,2.7-5.8,2c0,0-1.5-17-15.3-21.3
		L269.1,118.4z"/>
	<path fill="#F2F2F2" d="M266.6,121.2l-7.7,8.9l-0.9-8.8l-1.6-0.2c0,0-4.6,18.5-3.2,26.8l1.7,3.1l3.1-3.6l2,4.2l7.1-3.8L266.6,121.2
		z"/>
	<path fill="#FFFFFF" d="M276,129.6c0,0-3.2,4.3-3.5,7.8c-0.2,3.5-0.5,6.2,1.2,9c1.6,2.9,5.2,11.4,5.6,15.1c0,0-0.8,1.5-3,2.2
		c-2.2,0.7-8.7-6.5-12.1-20.2l1.5-22.6l2.6-4.1L276,129.6z"/>
	<path d="M258.8,130.1c0,0,7.5-10.8,9.3-13.3c0,0,2.2,5.1,3.1,5.9c0,0-3.8-0.3-5.2-0.9C266.1,121.8,262.6,127.1,258.8,130.1z"/>
	<path d="M258.9,130.3c0,0-1.4-5.4-1.1-7.3c0.2-1.9-2.1-2.6-2.1-2.6s6.1-3.1,6.7-4.7l-0.5,2.2L258.9,130.3z"/>
	<path d="M262.1,106.2c0,0-2.2-4.2,0.9-6.5c3.1-2.3,9.8-1.7,11.9,2.2c1.7,3.1-0.2,9.3-3.4,9.9c0,0,1.2-2.8-1.5-1.7
		c0,0-0.8-2.9,1.5-4.9c2.3-2-3.2-3.2-4.8-1.4c0,0-1.7-2.5-2.9-1.1S262.1,106.2,262.1,106.2z"/>
</g>
</svg>
