<?xml version="1.0" encoding="utf-8"?>
<!-- Generator: Adobe Illustrator 18.1.1, SVG Export Plug-In . SVG Version: 6.00 Build 0)  -->
<svg version="1.1" id="Layer_1" xmlns="http://www.w3.org/2000/svg" xmlns:xlink="http://www.w3.org/1999/xlink" x="0px" y="0px"
	 viewBox="0 0 222.6 212.1" enable-background="new 0 0 222.6 212.1" xml:space="preserve">
<ellipse fill="#828282" cx="111.3" cy="105.7" rx="110.2" ry="106"/>
<g opacity="0.2">
	<defs>
		<ellipse id="SVGID_1_" opacity="0.2" cx="111.3" cy="105.7" rx="110.2" ry="106"/>
	</defs>
	<clipPath id="SVGID_2_">
		<use xlink:href="#SVGID_1_"  overflow="visible"/>
	</clipPath>
	<rect x="-10.5" y="0" clip-path="url(#SVGID_2_)" fill="#F2F2F2" width="13.1" height="21.6"/>
	<rect x="5.4" y="0" clip-path="url(#SVGID_2_)" fill="#E5E5E4" width="13.1" height="21.6"/>
	<rect x="21.2" y="0" clip-path="url(#SVGID_2_)" fill="#CCCBCB" width="13.1" height="21.6"/>
	<rect x="37.1" y="0" clip-path="url(#SVGID_2_)" fill="#B3B2B3" width="13.1" height="21.6"/>
	<rect x="53" y="0" clip-path="url(#SVGID_2_)" fill="#B3B2B3" width="13.1" height="21.6"/>
	<rect x="68.8" y="0" clip-path="url(#SVGID_2_)" fill="#808080" width="13.1" height="21.6"/>
	<rect x="84.7" y="0" clip-path="url(#SVGID_2_)" fill="#5B5B5C" width="13.1" height="21.6"/>
	<rect x="100.5" y="0" clip-path="url(#SVGID_2_)" fill="#B3B2B3" width="13.1" height="21.6"/>
	<rect x="116.4" y="0" clip-path="url(#SVGID_2_)" fill="#5B5B5C" width="13.1" height="21.6"/>
	<rect x="132.2" y="0" clip-path="url(#SVGID_2_)" fill="#808080" width="13.1" height="21.6"/>
	<rect x="148.1" y="0" clip-path="url(#SVGID_2_)" fill="#5B5B5C" width="13.1" height="21.6"/>
	<rect x="163.9" y="0" clip-path="url(#SVGID_2_)" fill="#5B5B5C" width="13.1" height="21.6"/>
	<rect x="179.8" y="0" clip-path="url(#SVGID_2_)" fill="#5B5B5C" width="13.1" height="21.6"/>
	<rect x="195.6" y="0" clip-path="url(#SVGID_2_)" fill="#5B5B5C" width="13.1" height="21.6"/>
	<rect x="211.5" y="0" clip-path="url(#SVGID_2_)" fill="#5B5B5C" width="13.1" height="21.6"/>
	<rect x="-10.5" y="23.8" clip-path="url(#SVGID_2_)" fill="#5B5B5C" width="13.1" height="21.6"/>
	<rect x="5.4" y="23.8" clip-path="url(#SVGID_2_)" fill="#5B5B5C" width="13.1" height="21.6"/>
	<rect x="21.2" y="23.8" clip-path="url(#SVGID_2_)" fill="#5B5B5C" width="13.1" height="21.6"/>
	<rect x="37.1" y="23.8" clip-path="url(#SVGID_2_)" fill="#5B5B5C" width="13.1" height="21.6"/>
	<rect x="53" y="23.8" clip-path="url(#SVGID_2_)" fill="#5B5B5C" width="13.1" height="21.6"/>
	<rect x="68.8" y="23.8" clip-path="url(#SVGID_2_)" fill="#808080" width="13.1" height="21.6"/>
	<rect x="84.7" y="23.8" clip-path="url(#SVGID_2_)" fill="#5B5B5C" width="13.1" height="21.6"/>
	<rect x="100.5" y="23.8" clip-path="url(#SVGID_2_)" fill="#5B5B5C" width="13.1" height="21.6"/>
	<rect x="116.4" y="23.8" clip-path="url(#SVGID_2_)" fill="#5B5B5C" width="13.1" height="21.6"/>
	<rect x="132.2" y="23.8" clip-path="url(#SVGID_2_)" fill="#808080" width="13.1" height="21.6"/>
	<rect x="148.1" y="23.8" clip-path="url(#SVGID_2_)" fill="#5B5B5C" width="13.1" height="21.6"/>
	<rect x="163.9" y="23.8" clip-path="url(#SVGID_2_)" fill="#CCCBCB" width="13.1" height="21.6"/>
	<rect x="179.8" y="23.8" clip-path="url(#SVGID_2_)" fill="#5B5B5C" width="13.1" height="21.6"/>
	<rect x="195.6" y="23.8" clip-path="url(#SVGID_2_)" fill="#5B5B5C" width="13.1" height="21.6"/>
	<rect x="211.5" y="23.8" clip-path="url(#SVGID_2_)" fill="#5B5B5C" width="13.1" height="21.6"/>
	<rect x="-10.5" y="47.6" clip-path="url(#SVGID_2_)" fill="#5B5B5C" width="13.1" height="21.6"/>
	<rect x="5.4" y="47.6" clip-path="url(#SVGID_2_)" fill="#CCCBCB" width="13.1" height="21.6"/>
	<rect x="21.2" y="47.6" clip-path="url(#SVGID_2_)" fill="#5B5B5C" width="13.1" height="21.6"/>
	<rect x="37.1" y="47.6" clip-path="url(#SVGID_2_)" fill="#808080" width="13.1" height="21.6"/>
	<rect x="53" y="47.6" clip-path="url(#SVGID_2_)" fill="#5B5B5C" width="13.1" height="21.6"/>
	<rect x="68.8" y="47.6" clip-path="url(#SVGID_2_)" fill="#5B5B5C" width="13.1" height="21.6"/>
	<rect x="84.7" y="47.6" clip-path="url(#SVGID_2_)" fill="#5B5B5C" width="13.1" height="21.6"/>
	<rect x="100.5" y="47.6" clip-path="url(#SVGID_2_)" fill="#B3B2B3" width="13.1" height="21.6"/>
	<rect x="116.4" y="47.6" clip-path="url(#SVGID_2_)" fill="#5B5B5C" width="13.1" height="21.6"/>
	<rect x="132.2" y="47.6" clip-path="url(#SVGID_2_)" fill="#5B5B5C" width="13.1" height="21.6"/>
	<rect x="148.1" y="47.6" clip-path="url(#SVGID_2_)" fill="#5B5B5C" width="13.1" height="21.6"/>
	<rect x="163.9" y="47.6" clip-path="url(#SVGID_2_)" fill="#5B5B5C" width="13.1" height="21.6"/>
	<rect x="179.8" y="47.6" clip-path="url(#SVGID_2_)" fill="#808080" width="13.1" height="21.6"/>
	<rect x="195.6" y="47.6" clip-path="url(#SVGID_2_)" fill="#CCCBCB" width="13.1" height="21.6"/>
	<rect x="211.5" y="47.6" clip-path="url(#SVGID_2_)" fill="#5B5B5C" width="13.1" height="21.6"/>
	<rect x="-10.5" y="71.4" clip-path="url(#SVGID_2_)" fill="#5B5B5C" width="13.1" height="21.6"/>
	<rect x="5.4" y="71.4" clip-path="url(#SVGID_2_)" fill="#CCCBCB" width="13.1" height="21.6"/>
	<rect x="21.2" y="71.4" clip-path="url(#SVGID_2_)" fill="#5B5B5C" width="13.1" height="21.6"/>
	<rect x="37.1" y="71.4" clip-path="url(#SVGID_2_)" fill="#B3B2B3" width="13.1" height="21.6"/>
	<rect x="53" y="71.4" clip-path="url(#SVGID_2_)" fill="#5B5B5C" width="13.1" height="21.6"/>
	<rect x="68.8" y="71.4" clip-path="url(#SVGID_2_)" fill="#5B5B5C" width="13.1" height="21.6"/>
	<rect x="84.7" y="71.4" clip-path="url(#SVGID_2_)" fill="#5B5B5C" width="13.1" height="21.6"/>
	<rect x="100.5" y="71.4" clip-path="url(#SVGID_2_)" fill="#5B5B5C" width="13.1" height="21.6"/>
	<rect x="116.4" y="71.4" clip-path="url(#SVGID_2_)" fill="#5B5B5C" width="13.1" height="21.6"/>
	<rect x="132.2" y="71.4" clip-path="url(#SVGID_2_)" fill="#A3A3A3" width="13.1" height="21.6"/>
	<rect x="148.1" y="71.4" clip-path="url(#SVGID_2_)" fill="#5B5B5C" width="13.1" height="21.6"/>
	<rect x="163.9" y="71.4" clip-path="url(#SVGID_2_)" fill="#CCCBCB" width="13.1" height="21.6"/>
	<rect x="179.8" y="71.4" clip-path="url(#SVGID_2_)" fill="#B3B2B3" width="13.1" height="21.6"/>
	<rect x="195.6" y="71.4" clip-path="url(#SVGID_2_)" fill="#5B5B5C" width="13.1" height="21.6"/>
	<rect x="211.5" y="71.4" clip-path="url(#SVGID_2_)" fill="#5B5B5C" width="13.1" height="21.6"/>
	<rect x="-10.5" y="95.3" clip-path="url(#SVGID_2_)" fill="#5B5B5C" width="13.1" height="21.6"/>
	<rect x="5.4" y="95.3" clip-path="url(#SVGID_2_)" fill="#5B5B5C" width="13.1" height="21.6"/>
	<rect x="21.2" y="95.3" clip-path="url(#SVGID_2_)" fill="#B3B2B3" width="13.1" height="21.6"/>
	<rect x="37.1" y="95.3" clip-path="url(#SVGID_2_)" fill="#5B5B5C" width="13.1" height="21.6"/>
	<rect x="53" y="95.3" clip-path="url(#SVGID_2_)" fill="#5B5B5C" width="13.1" height="21.6"/>
	<rect x="68.8" y="95.3" clip-path="url(#SVGID_2_)" fill="#5B5B5C" width="13.1" height="21.6"/>
	<rect x="84.7" y="95.3" clip-path="url(#SVGID_2_)" fill="#808080" width="13.1" height="21.6"/>
	<rect x="100.5" y="95.3" clip-path="url(#SVGID_2_)" fill="#CCCBCB" width="13.1" height="21.6"/>
	<rect x="116.4" y="95.3" clip-path="url(#SVGID_2_)" fill="#5B5B5C" width="13.1" height="21.6"/>
	<rect x="132.2" y="95.3" clip-path="url(#SVGID_2_)" fill="#5B5B5C" width="13.1" height="21.6"/>
	<rect x="148.1" y="95.3" clip-path="url(#SVGID_2_)" fill="#5B5B5C" width="13.1" height="21.6"/>
	<rect x="163.9" y="95.3" clip-path="url(#SVGID_2_)" fill="#5B5B5C" width="13.1" height="21.6"/>
	<rect x="179.8" y="95.3" clip-path="url(#SVGID_2_)" fill="#808080" width="13.1" height="21.6"/>
	<rect x="195.6" y="95.3" clip-path="url(#SVGID_2_)" fill="#5B5B5C" width="13.1" height="21.6"/>
	<rect x="211.5" y="95.3" clip-path="url(#SVGID_2_)" fill="#B3B2B3" width="13.1" height="21.6"/>
	<rect x="-10.5" y="119.1" clip-path="url(#SVGID_2_)" fill="#5B5B5C" width="13.1" height="21.6"/>
	<rect x="5.4" y="119.1" clip-path="url(#SVGID_2_)" fill="#CCCBCB" width="13.1" height="21.6"/>
	<rect x="21.2" y="119.1" clip-path="url(#SVGID_2_)" fill="#5B5B5C" width="13.1" height="21.6"/>
	<rect x="37.1" y="119.1" clip-path="url(#SVGID_2_)" fill="#808080" width="13.1" height="21.6"/>
	<rect x="53" y="119.1" clip-path="url(#SVGID_2_)" fill="#5B5B5C" width="13.1" height="21.6"/>
	<rect x="68.8" y="119.1" clip-path="url(#SVGID_2_)" fill="#CCCBCB" width="13.1" height="21.6"/>
	<rect x="84.7" y="119.1" clip-path="url(#SVGID_2_)" fill="#5B5B5C" width="13.1" height="21.6"/>
	<rect x="100.5" y="119.1" clip-path="url(#SVGID_2_)" fill="#5B5B5C" width="13.1" height="21.6"/>
	<rect x="116.4" y="119.1" clip-path="url(#SVGID_2_)" fill="#B3B2B3" width="13.1" height="21.6"/>
	<rect x="132.2" y="119.1" clip-path="url(#SVGID_2_)" fill="#5B5B5C" width="13.1" height="21.6"/>
	<rect x="148.1" y="119.1" clip-path="url(#SVGID_2_)" fill="#5B5B5C" width="13.1" height="21.6"/>
	<rect x="163.9" y="119.1" clip-path="url(#SVGID_2_)" fill="#5B5B5C" width="13.1" height="21.6"/>
	<rect x="179.8" y="119.1" clip-path="url(#SVGID_2_)" fill="#5B5B5C" width="13.1" height="21.6"/>
	<rect x="195.6" y="119.1" clip-path="url(#SVGID_2_)" fill="#5B5B5C" width="13.1" height="21.6"/>
	<rect x="211.5" y="119.1" clip-path="url(#SVGID_2_)" fill="#5B5B5C" width="13.1" height="21.6"/>
	<rect x="-10.5" y="142.9" clip-path="url(#SVGID_2_)" fill="#5B5B5C" width="13.1" height="21.6"/>
	<rect x="5.4" y="142.9" clip-path="url(#SVGID_2_)" fill="#5B5B5C" width="13.1" height="21.6"/>
	<rect x="21.2" y="142.9" clip-path="url(#SVGID_2_)" fill="#B3B2B3" width="13.1" height="21.6"/>
	<rect x="37.1" y="142.9" clip-path="url(#SVGID_2_)" fill="#5B5B5C" width="13.1" height="21.6"/>
	<rect x="53" y="142.9" clip-path="url(#SVGID_2_)" fill="#CCCBCB" width="13.1" height="21.6"/>
	<rect x="68.8" y="142.9" clip-path="url(#SVGID_2_)" fill="#5B5B5C" width="13.1" height="21.6"/>
	<rect x="84.7" y="142.9" clip-path="url(#SVGID_2_)" fill="#808080" width="13.1" height="21.6"/>
	<rect x="100.5" y="142.9" clip-path="url(#SVGID_2_)" fill="#808080" width="13.1" height="21.6"/>
	<rect x="116.4" y="142.9" clip-path="url(#SVGID_2_)" fill="#CCCBCB" width="13.1" height="21.6"/>
	<rect x="132.2" y="142.9" clip-path="url(#SVGID_2_)" fill="#5B5B5C" width="13.1" height="21.6"/>
	<rect x="148.1" y="142.9" clip-path="url(#SVGID_2_)" fill="#B3B2B3" width="13.1" height="21.6"/>
	<rect x="163.9" y="142.9" clip-path="url(#SVGID_2_)" fill="#5B5B5C" width="13.1" height="21.6"/>
	<rect x="179.8" y="142.9" clip-path="url(#SVGID_2_)" fill="#B3B2B3" width="13.1" height="21.6"/>
	<rect x="195.6" y="142.9" clip-path="url(#SVGID_2_)" fill="#5B5B5C" width="13.1" height="21.6"/>
	<rect x="211.5" y="142.9" clip-path="url(#SVGID_2_)" fill="#5B5B5C" width="13.1" height="21.6"/>
	<rect x="-10.5" y="166.7" clip-path="url(#SVGID_2_)" fill="#5B5B5C" width="13.1" height="21.6"/>
	<rect x="5.4" y="166.7" clip-path="url(#SVGID_2_)" fill="#5B5B5C" width="13.1" height="21.6"/>
	<rect x="21.2" y="166.7" clip-path="url(#SVGID_2_)" fill="#5B5B5C" width="13.1" height="21.6"/>
	<rect x="37.1" y="166.7" clip-path="url(#SVGID_2_)" fill="#5B5B5C" width="13.1" height="21.6"/>
	<rect x="53" y="166.7" clip-path="url(#SVGID_2_)" fill="#808080" width="13.1" height="21.6"/>
	<rect x="68.8" y="166.7" clip-path="url(#SVGID_2_)" fill="#5B5B5C" width="13.1" height="21.6"/>
	<rect x="84.7" y="166.7" clip-path="url(#SVGID_2_)" fill="#5B5B5C" width="13.1" height="21.6"/>
	<rect x="100.5" y="166.7" clip-path="url(#SVGID_2_)" fill="#B3B2B3" width="13.1" height="21.6"/>
	<rect x="116.4" y="166.7" clip-path="url(#SVGID_2_)" fill="#5B5B5C" width="13.1" height="21.6"/>
	<rect x="132.2" y="166.7" clip-path="url(#SVGID_2_)" fill="#CCCBCB" width="13.1" height="21.6"/>
	<rect x="148.1" y="166.7" clip-path="url(#SVGID_2_)" fill="#808080" width="13.1" height="21.6"/>
	<rect x="163.9" y="166.7" clip-path="url(#SVGID_2_)" fill="#5B5B5C" width="13.1" height="21.6"/>
	<rect x="179.8" y="166.7" clip-path="url(#SVGID_2_)" fill="#5B5B5C" width="13.1" height="21.6"/>
	<rect x="195.6" y="166.7" clip-path="url(#SVGID_2_)" fill="#5B5B5C" width="13.1" height="21.6"/>
	<rect x="211.5" y="166.7" clip-path="url(#SVGID_2_)" fill="#5B5B5C" width="13.1" height="21.6"/>
	<rect x="-10.5" y="190.5" clip-path="url(#SVGID_2_)" fill="#5B5B5C" width="13.1" height="21.6"/>
	<rect x="5.4" y="190.5" clip-path="url(#SVGID_2_)" fill="#5B5B5C" width="13.1" height="21.6"/>
	<rect x="21.2" y="190.5" clip-path="url(#SVGID_2_)" fill="#5B5B5C" width="13.1" height="21.6"/>
	<rect x="37.1" y="190.5" clip-path="url(#SVGID_2_)" fill="#5B5B5C" width="13.1" height="21.6"/>
	<rect x="53" y="190.5" clip-path="url(#SVGID_2_)" fill="#5B5B5C" width="13.1" height="21.6"/>
	<rect x="68.8" y="190.5" clip-path="url(#SVGID_2_)" fill="#5B5B5C" width="13.1" height="21.6"/>
	<rect x="84.7" y="190.5" clip-path="url(#SVGID_2_)" fill="#808080" width="13.1" height="21.6"/>
	<rect x="100.5" y="190.5" clip-path="url(#SVGID_2_)" fill="#5B5B5C" width="13.1" height="21.6"/>
	<rect x="116.4" y="190.5" clip-path="url(#SVGID_2_)" fill="#5B5B5C" width="13.1" height="21.6"/>
	<rect x="132.2" y="190.5" clip-path="url(#SVGID_2_)" fill="#808080" width="13.1" height="21.6"/>
	<rect x="148.1" y="190.5" clip-path="url(#SVGID_2_)" fill="#5B5B5C" width="13.1" height="21.6"/>
	<rect x="163.9" y="190.5" clip-path="url(#SVGID_2_)" fill="#5B5B5C" width="13.1" height="21.6"/>
	<rect x="179.8" y="190.5" clip-path="url(#SVGID_2_)" fill="#5B5B5C" width="13.1" height="21.6"/>
	<rect x="195.6" y="190.5" clip-path="url(#SVGID_2_)" fill="#5B5B5C" width="13.1" height="21.6"/>
	<rect x="211.5" y="190.5" clip-path="url(#SVGID_2_)" fill="#5B5B5C" width="13.1" height="21.6"/>
</g>
<path fill="#5E5E5E" d="M110.8,81.3c-12.1,15.1-32.6,18.7-45.7,8.2C54.5,81,52,65.9,57.6,52.5c-11.1,15-9.9,34.8,2.8,45.1
	c13.1,10.6,33.6,6.9,45.7-8.2c2.4-3,4.3-6.2,5.7-9.4C111.5,80.4,111.2,80.9,110.8,81.3z"/>
<path fill="#333333" d="M65.1,89.5c13.1,10.6,33.6,6.9,45.7-8.2c0.3-0.4,0.7-0.9,1-1.3c5.7-13.4,3.1-28.5-7.4-37
	c-13.1-10.6-33.6-6.9-45.7,8.2c-0.3,0.4-0.7,0.9-1,1.3C52,65.9,54.5,81,65.1,89.5z"/>
<path fill="#A3A3A3" d="M1.1,107.5c0,0,120.6,38.9,220.4-2.5c0,0,0.1,2.5,0.1,4c0,2.2-0.4,5.3-0.4,5.3s-81.4,42.5-219.6,1.3
	c0,0-0.3-2.6-0.4-3.6C1.1,110.6,1.1,107.5,1.1,107.5z"/>
<path fill="#30302F" d="M1.2,109.6c0,0,122.4,41,220.4-2.3c0,0,0,1.5,0,2c0,0.6-0.2,2.4-0.2,2.4s-82.6,41.2-220.2,1.7
	c0,0-0.1-1.3-0.1-1.8C1.1,111.2,1.2,109.6,1.2,109.6z"/>
<path opacity="0.2" d="M53.9,14.9C22.3,33.6,1.3,67.2,1.3,105.4c0,58.7,49.5,106.3,110.5,106.3c10.1,0,19.9-1.3,29.1-3.7
	C137.5,88,77.6,32.3,53.9,14.9z"/>
</svg>
