<?xml version="1.0" encoding="utf-8"?>
<!-- Generator: Adobe Illustrator 18.1.1, SVG Export Plug-In . SVG Version: 6.00 Build 0)  -->
<svg version="1.1" id="Layer_1" xmlns="http://www.w3.org/2000/svg" xmlns:xlink="http://www.w3.org/1999/xlink" x="0px" y="0px"
	 viewBox="0 0 76.9 181.9" enable-background="new 0 0 76.9 181.9" xml:space="preserve">
<g>
	<polygon fill="#E2A67D" points="57.1,110.3 49.5,149.8 43.9,149.8 46.1,113.6 	"/>
	<path fill="#050503" d="M39.3,175.3h-4.9c0,0-1.9,6.2,4.5,6.6h8.3c0,0,1.8-3.9-3.1-4.2C44,177.6,39.8,176.9,39.3,175.3z"/>
	<path fill="#F9BD91" d="M5.5,14.7L0,40.3h9.4V13.5C9.4,13.5,6.4,10.6,5.5,14.7z"/>
	<path fill="#F9BD91" d="M62.3,14.9l1.4,15.3l8.6-1.3l-6.4-18C65.9,10.8,62.2,13.2,62.3,14.9z"/>
	<polygon fill="#E6E7E8" points="0,40.3 1.2,51.2 17.4,67.2 22,84.8 20.1,102.9 25.9,116.3 42.2,114.7 44.1,111.3 44.9,113.9 
		61,109.1 54.9,79.2 56.1,56.8 76.9,36.7 72.3,28.9 63.7,30.1 63.9,32.7 43.7,38.7 38.9,37.1 25.5,37.1 21.1,40.3 9.4,37.1 	"/>
	<polygon fill="#F9BD91" points="42.2,114.7 48.3,133.6 43.9,146.6 36.3,144.4 36.3,131.6 27.3,116.2 	"/>
	<path fill="#050503" d="M44.3,171.8l-3.8-3.1c0,0-5.4,3.6-0.7,7.9l6.4,5.3c0,0,3.9-1.9,0.3-5.2C46.4,176.6,43.6,173.3,44.3,171.8z"
		/>
	<polygon fill="#E6E7E8" points="43.9,146.6 39.5,175.3 34.1,175.3 34.1,143 	"/>
	<path fill="#BCBEC0" d="M40,171.9c1,0.1,4.2-0.2,4.2-0.2l8-22l-8.6-2L40,171.9z"/>
	<path fill="#231F20" d="M17.8,17.7c-1.3-2.9,0.8-6.8,3.9-7.3c1.2-3.3,5.4-5,8.6-3.6c0.8-1.2,2-2.2,3.4-2.4s3,0.5,3.5,1.8
		c0.8-0.7,2-1,3.1-0.6c1,0.4,1.8,1.4,1.9,2.5c2.4,0,4.2,2.9,3.3,5.1c1,0.5,1.8,1.6,1.8,2.8s-0.6,2.3-1.6,2.9
		c1.6,1.4,1.2,4.3-0.7,5.2c0.1,1.1,0.2,2.2-0.1,3.2c-0.3,1.1-0.9,2.1-2,2.4c-0.6,0.2-1.2,0.2-1.8,0.2c-0.9,0.1-1.7,0.4-2.5,0.6
		c-1.1,0.4-2.2,0.7-3.2,1.1c-3.1,1-6.3,2.1-9.3,3.4c-0.7,0.3-1.4,0.6-2.1,0.6c-0.7,0-1.5-0.2-1.9-0.9s0-1.6,0.7-1.7
		c-0.8-0.2-1.6-0.1-2.3-0.1s-1.6-0.4-2-1.1C18,31,18.5,30,19.3,30.1c-1.3,0.3-2.8-0.4-3.3-1.6c-0.5-1.2,0.1-2.8,1.3-3.4
		c-1.5-0.6-2.5-2.2-2.4-3.9C15,19.5,16.2,18.1,17.8,17.7z"/>
	<path fill="#F9BD91" d="M41.3,11.7l0.9,22.7l-3.5,0.1l0.3,7.5c0,0-3.6,7.8-13.4,0.5l-0.6-15.5c0,0-2.9-0.5-3-3.8
		c-0.1-3.3,3.2-1.9,3.2-1.9l-0.4-9.1L41.3,11.7z"/>
	<path fill="#502377" d="M63.8,31c1,0.5,9.3-0.9,9.3-0.9l1.1,1.9l-10.3,0.7L63.8,31z"/>
	<path fill="#502377" d="M0.3,42.8c0,0,8.4-0.9,8.3-0.9c-0.1,0,2.3-4.4,2.3-4.4l1.4,0.4l-2.9,4.9l-9,1.1"/>
	<polygon fill="#502377" points="27,45.7 34.8,49.1 40.7,43.9 41.6,44.6 35.4,50 27,47 	"/>
	<path fill="#231F20" d="M24.8,17.3l6.3-5.8l-3.1-1.2l-3,2.2C24.9,12.4,23.5,15.9,24.8,17.3z"/>
	<path fill="#6D6E71" d="M25.3,21.5c0,0,2.3-7.8,16.1-7.2v-3.4c0,0-12.7-1.6-17.3,4.8c0,0-1.7,3.7-0.6,5.5L25.3,21.5z"/>
	<circle fill="#F9BD91" cx="7.5" cy="10.2" r="6"/>
	<circle fill="#F9BD91" cx="62.3" cy="9.2" r="6"/>
	<g>
		<g>
			<path fill="#FFFFFF" d="M46.4,52c-0.1,0-0.1,0-0.1-0.1c0-0.1,0-0.1,0.1-0.1c0.1,0,0.1,0,0.1,0.1C46.5,52,46.5,52,46.4,52
				 M45.2,52.4c-0.1,0-0.1,0-0.1-0.1c0-0.1,0-0.1,0.1-0.1c0.1,0,0.1,0,0.1,0.1C45.3,52.4,45.3,52.4,45.2,52.4 M47.7,52
				c-0.1,0-0.1,0-0.1-0.1c0-0.1,0-0.1,0.1-0.1c0.1,0,0.1,0,0.1,0.1C47.8,51.9,47.8,52,47.7,52 M50,51.3c0.1,0,0.1,0.2,0.1,0.2
				c0,0.1-0.2,0.1-0.2,0.1c-0.1,0-0.1-0.2-0.1-0.2C49.8,51.3,49.9,51.3,50,51.3 M46.6,49.4c-0.1,0-0.1,0-0.1-0.1
				c0-0.1,0-0.1,0.1-0.1c0.1,0,0.1,0,0.1,0.1C46.7,49.3,46.7,49.4,46.6,49.4 M46.9,49.7c-0.1,0-0.1,0-0.1-0.1c0-0.1,0-0.1,0.1-0.1
				c0.1,0,0.1,0,0.1,0.1C47,49.6,47,49.7,46.9,49.7 M47,50c-0.1,0-0.1,0-0.1-0.1c0-0.1,0-0.1,0.1-0.1c0.1,0,0.1,0,0.1,0.1
				C47.1,50,47,50,47,50 M47,50.4c-0.1,0-0.1,0-0.1-0.1c0-0.1,0-0.1,0.1-0.1c0.1,0,0.1,0,0.1,0.1C47.1,50.3,47,50.4,47,50.4
				 M46.3,49.5c-0.1,0-0.1,0-0.1-0.1c0-0.1,0-0.1,0.1-0.1c0.1,0,0.1,0,0.1,0.1C46.4,49.4,46.3,49.5,46.3,49.5 M46,49.6
				c-0.1,0-0.1,0-0.1-0.1c0-0.1,0-0.1,0.1-0.1c0.1,0,0.1,0,0.1,0.1C46.1,49.5,46,49.6,46,49.6 M45.7,49.8c-0.1,0-0.1,0-0.1-0.1
				c0-0.1,0-0.1,0.1-0.1c0.1,0,0.1,0,0.1,0.1C45.8,49.8,45.7,49.8,45.7,49.8 M45.5,50.1c-0.1,0-0.1,0-0.1-0.1c0-0.1,0-0.1,0.1-0.1
				c0.1,0,0.1,0,0.1,0.1C45.6,50,45.5,50.1,45.5,50.1 M45.1,50.1c-0.1,0-0.1,0-0.1-0.1c0-0.1,0-0.1,0.1-0.1c0.1,0,0.1,0,0.1,0.1
				C45.2,50,45.2,50.1,45.1,50.1 M44.8,50.2c-0.1,0-0.1,0-0.1-0.1c0-0.1,0-0.1,0.1-0.1c0.1,0,0.1,0,0.1,0.1
				C44.9,50.2,44.9,50.2,44.8,50.2 M44.5,50.4c-0.1,0-0.1,0-0.1-0.1c0-0.1,0-0.1,0.1-0.1c0.1,0,0.1,0,0.1,0.1
				C44.6,50.4,44.6,50.4,44.5,50.4 M44.3,50.7c-0.1,0-0.1,0-0.1-0.1c0-0.1,0-0.1,0.1-0.1c0.1,0,0.1,0,0.1,0.1
				C44.4,50.7,44.4,50.7,44.3,50.7 M44.2,51.1c-0.1,0-0.1,0-0.1-0.1c0-0.1,0-0.1,0.1-0.1c0.1,0,0.1,0,0.1,0.1
				C44.3,51,44.2,51.1,44.2,51.1 M44.1,51.4c-0.1,0-0.1,0-0.1-0.1c0-0.1,0-0.1,0.1-0.1c0.1,0,0.1,0,0.1,0.1
				C44.2,51.4,44.2,51.4,44.1,51.4 M45.3,50.4c-0.1,0-0.1,0-0.1-0.1c0-0.1,0-0.1,0.1-0.1c0.1,0,0.1,0,0.1,0.1
				C45.4,50.4,45.4,50.4,45.3,50.4 M45.3,50.8c-0.1,0-0.1,0-0.1-0.1c0-0.1,0-0.1,0.1-0.1c0.1,0,0.1,0,0.1,0.1
				C45.3,50.7,45.3,50.8,45.3,50.8 M47,51c-0.1,0-0.2-0.1-0.2-0.2c0-0.1,0.1-0.2,0.2-0.2c0.1,0,0.2,0.1,0.2,0.2
				C47.2,50.9,47.1,51,47,51 M45.5,51.3c-0.1,0-0.2,0-0.2-0.1c0-0.1,0-0.2,0.1-0.2c0.1,0,0.2,0,0.2,0.1
				C45.7,51.1,45.6,51.2,45.5,51.3 M44.3,51.9c-0.1,0.1-0.2,0-0.2-0.1c-0.1-0.1,0-0.2,0.1-0.2c0.1-0.1,0.2,0,0.2,0.1
				C44.4,51.8,44.4,51.9,44.3,51.9 M47.2,49.1c0.1,0,0.1,0,0.1,0.1c0,0.1,0,0.1-0.1,0.1c-0.1,0-0.1,0-0.1-0.1
				C47.1,49.2,47.2,49.2,47.2,49.1 M47.6,49.2c0.1,0,0.1,0,0.1,0.1c0,0.1,0,0.1-0.1,0.1c-0.1,0-0.1,0-0.1-0.1
				C47.5,49.2,47.5,49.2,47.6,49.2 M47.9,49.3c0.1,0,0.1,0,0.1,0.1c0,0.1,0,0.1-0.1,0.1c-0.1,0-0.1,0-0.1-0.1
				C47.8,49.3,47.8,49.3,47.9,49.3 M48.2,49.5c0.1,0,0.1,0,0.1,0.1c0,0.1,0,0.1-0.1,0.1c-0.1,0-0.1,0-0.1-0.1
				C48.1,49.5,48.1,49.5,48.2,49.5 M48.4,49.7c0.1,0,0.1,0,0.1,0.1c0,0.1,0,0.1-0.1,0.1c-0.1,0-0.1,0-0.1-0.1
				C48.4,49.8,48.4,49.7,48.4,49.7 M48.8,49.7c0.1,0,0.1,0,0.1,0.1c0,0.1,0,0.1-0.1,0.1c-0.1,0-0.1,0-0.1-0.1
				C48.7,49.7,48.7,49.7,48.8,49.7 M49.1,49.8c0.1,0,0.1,0,0.1,0.1c0,0.1,0,0.1-0.1,0.1C49,50,49,50,49,49.9
				C49,49.9,49,49.8,49.1,49.8 M49.4,50c0.1,0,0.1,0,0.1,0.1c0,0.1,0,0.1-0.1,0.1c-0.1,0-0.1,0-0.1-0.1C49.3,50,49.3,50,49.4,50
				 M49.6,50.3c0.1,0,0.1,0,0.1,0.1c0,0.1,0,0.1-0.1,0.1c-0.1,0-0.1,0-0.1-0.1C49.5,50.3,49.6,50.3,49.6,50.3 M49.8,50.6
				c0.1,0,0.1,0,0.1,0.1c0,0.1,0,0.1-0.1,0.1c-0.1,0-0.1,0-0.1-0.1C49.7,50.6,49.8,50.6,49.8,50.6 M49.9,50.9c0.1,0,0.1,0,0.1,0.1
				c0,0.1,0,0.1-0.1,0.1c-0.1,0-0.1,0-0.1-0.1C49.8,51,49.9,50.9,49.9,50.9 M48.6,50c0.1,0,0.1,0,0.1,0.1c0,0.1,0,0.1-0.1,0.1
				c-0.1,0-0.1,0-0.1-0.1C48.5,50.1,48.6,50,48.6,50 M48.7,50.4c0.1,0,0.1,0,0.1,0.1c0,0.1,0,0.1-0.1,0.1c-0.1,0-0.1,0-0.1-0.1
				C48.6,50.4,48.7,50.4,48.7,50.4 M48.6,50.8c0.1,0,0.2,0.1,0.1,0.2c0,0.1-0.1,0.2-0.2,0.1c-0.1,0-0.2-0.1-0.1-0.2
				C48.4,50.8,48.5,50.7,48.6,50.8 M43.3,57.2c-0.1-2.2,1.6-4.1,3.8-4.2c2.2-0.1,4.1,1.6,4.2,3.8c0.1,2.2-1.6,4.1-3.8,4.2
				C45.3,61.1,43.4,59.4,43.3,57.2 M49,52.2c-0.1,0-0.1,0-0.1-0.1c0-0.1,0-0.1,0.1-0.1c0.1,0,0.1,0,0.1,0.1
				C49.1,52.2,49,52.2,49,52.2"/>
			<g>
				<path fill="#EE334E" d="M48.8,50.7c0.1,0,0.1-0.1,0.1-0.2c0.1,0,0.2,0,0.3,0.1c0.1,0,0.2,0.1,0.2,0.1c0.1,0.1,0.1,0.3,0.1,0.5
					c-0.1,0-0.1,0.1-0.1,0.2c0,0.1,0,0.2,0.1,0.3c-0.1,0-0.2-0.1-0.2-0.2c0,0,0-0.1,0-0.1c0-0.1-0.1-0.2-0.2-0.3
					c-0.1,0-0.2,0.1-0.3,0.2c0,0,0,0,0,0c-0.1,0.1-0.3,0.1-0.3-0.1c0.2,0,0.3-0.1,0.3-0.2C49,51,49,50.8,48.8,50.7
					C48.8,50.8,48.8,50.7,48.8,50.7 M48.6,51.5c-0.1,0-0.2,0-0.2,0c0.1,0,0.1-0.1,0.2-0.1C48.5,51.4,48.5,51.4,48.6,51.5 M49.1,51.5
					C49.1,51.6,49.1,51.6,49.1,51.5L49.1,51.5c0.1,0.1,0.1,0.1,0.1,0.2c-0.1,0-0.2-0.1-0.3-0.1C49,51.6,49.1,51.6,49.1,51.5
					 M47,51.2c0,0.1,0.1,0.1,0.1,0.2c0,0-0.1,0-0.1,0c0,0-0.1,0-0.1,0C47,51.3,47,51.3,47,51.2 M44.9,51.9c0,0,0-0.1,0-0.1l0,0
					c0,0,0,0,0.1,0c0,0,0.1,0,0.1,0.1C45,51.8,44.9,51.9,44.9,51.9 M45.8,51.6c-0.1,0-0.2,0-0.2,0.1c0-0.1,0.1-0.1,0.1-0.2
					C45.6,51.5,45.7,51.6,45.8,51.6 M46.3,51.3C46.3,51.3,46.3,51.3,46.3,51.3c0.1,0,0.1,0.1,0.2,0.1c-0.1,0-0.2,0-0.3,0
					C46.2,51.4,46.3,51.4,46.3,51.3 M47.8,51.2c0,0.1,0.1,0.1,0.1,0.1c-0.1,0-0.2,0-0.3,0C47.6,51.3,47.7,51.3,47.8,51.2
					C47.7,51.2,47.8,51.2,47.8,51.2"/>
				<path fill="#EE334E" d="M49.2,52.2l0.1-0.1l0,0l0,0.1l-0.1,0.1l0,0l0,0L49.2,52.2z M45,52.4l0,0.1l0,0l0,0l-0.1-0.1l0-0.1l0,0
					L45,52.4L45,52.4z M47.4,51.9L47.1,52l-0.3-0.1l0.3-0.1L47.4,51.9z M44.7,50.8c0.1,0,0.2-0.1,0.3-0.1c0,0.1,0.1,0.1,0.1,0.2
					c0,0,0,0.1,0,0.1C45,51,45,51.2,45.1,51.3c0,0.1,0.1,0.2,0.3,0.2c0,0.2-0.2,0.2-0.3,0.1c0,0,0,0,0,0c0-0.1-0.2-0.2-0.3-0.1
					c-0.1,0-0.2,0.2-0.1,0.3c0,0,0,0.1,0,0.1c0,0.1,0,0.1-0.1,0.2c0,0-0.1,0-0.1,0c0.1-0.1,0.1-0.2,0.1-0.3c0-0.1-0.1-0.1-0.1-0.2
					c0-0.2,0-0.4,0.1-0.5C44.5,50.9,44.6,50.9,44.7,50.8 M47.1,50.2c0.4-0.1,0.8-0.1,1.2,0.1c0,0.1,0.1,0.2,0.1,0.3
					c0,0-0.1,0.1-0.1,0.1c-0.1,0-0.2,0.1-0.2,0.2c0,0.1,0,0.2,0.2,0.3c0,0.1-0.1,0.1-0.2,0.1c-0.1,0-0.1-0.1-0.1-0.2
					c0,0,0-0.1,0-0.1c0-0.1-0.1-0.2-0.2-0.2c-0.1,0-0.2,0.1-0.2,0.2c0,0,0,0,0,0.1c0,0.1-0.1,0.1-0.2,0.1c-0.1,0-0.1,0-0.2-0.1
					c0.2,0,0.2-0.1,0.2-0.3c0-0.1,0-0.2-0.2-0.2c0-0.1-0.1-0.1-0.1-0.2c0,0,0.1-0.1,0.1-0.2C47.2,50.3,47.2,50.2,47.1,50.2
					L47.1,50.2z M45.6,50.4c0.3-0.2,0.8-0.3,1.2-0.2l0,0c0,0,0,0.1,0,0.1c0,0.1,0,0.1,0.1,0.1c-0.1,0-0.1,0.1-0.1,0.2
					c-0.1,0-0.2,0.1-0.2,0.3c0,0.1,0.1,0.2,0.3,0.2c0,0.1-0.1,0.1-0.2,0.1c-0.1,0-0.1,0-0.2-0.1c0,0,0,0,0-0.1
					c0-0.1-0.1-0.2-0.2-0.2c-0.1,0-0.2,0.1-0.2,0.2c0,0,0,0.1,0,0.1c0,0.1,0,0.1-0.1,0.2c-0.1,0-0.2,0-0.2-0.1
					c0.2-0.1,0.2-0.2,0.2-0.3c0-0.1-0.1-0.2-0.2-0.2c0,0-0.1-0.1-0.1-0.1C45.6,50.6,45.6,50.5,45.6,50.4"/>
				<path fill="#FEBE10" d="M48.2,54.5l0.8-1c1.2,0.6,2,1.8,2.1,3.2c0,0.9-0.2,1.8-0.7,2.5l-0.4-0.4c0.4-0.6,0.7-1.2,0.7-2.1
					c0-1-0.6-2-1.4-2.5l-0.5,0.6c0.3,0.2,0.5,0.4,0.7,0.7l-0.4,0.4c-0.2-0.3-0.4-0.5-0.7-0.6l-1,1.2l-1.2-1.1
					c-0.5,0.4-0.9,1-0.8,1.7c0,0.9,0.7,1.6,1.5,1.8l-0.1-1.9l1.3-0.1l0,0.4l-0.8,0l0,0.5l0.8,0l0,0.4l-0.8,0l0,0.6
					c0.6,0,1.2-0.4,1.5-0.8l0.4,0.4c-0.5,0.6-1.2,0.9-1.9,1l0,0.6l-0.5,0l0-0.6c-1.2-0.2-2-1.2-2.1-2.4c0-0.8,0.4-1.5,1-2l-0.6-0.5
					C44.4,55.2,44,56,44,57.1c0,1,0.6,1.7,0.9,2l-0.3,0.4c-0.6-0.6-1-1.4-1-2.3c-0.1-1.4,0.6-2.7,1.7-3.4l0.9,0.9
					c0.3-0.1,0.6-0.2,1-0.2C47.5,54.4,47.8,54.5,48.2,54.5L48.2,54.5z M46.6,55l0.6,0.6l0.5-0.6c-0.2,0-0.4-0.1-0.6-0.1
					C47,54.9,46.8,55,46.6,55 M51.9,56.7c0.1,2.5-1.8,4.7-4.4,4.8c-2.5,0.1-4.7-1.8-4.8-4.4c-0.1-2.5,1.8-4.7,4.4-4.9
					C49.6,52.2,51.8,54.2,51.9,56.7 M43.2,57.2c0.1,2.3,2.1,4.1,4.4,3.9c2.3-0.1,4.1-2.1,3.9-4.4c-0.1-2.3-2.1-4.1-4.4-3.9
					C44.8,52.9,43,54.9,43.2,57.2 M47.5,51.9L47,51.7l-0.4,0.2l0.4,0.1L47.5,51.9z M48.3,52.1l0.4-0.1l-0.3-0.2L48,51.9L48.3,52.1z
					 M47.7,52c0.1,0,0.1-0.1,0.1-0.1c0-0.1-0.1-0.1-0.1-0.1c-0.1,0-0.1,0.1-0.1,0.1C47.6,51.9,47.6,52,47.7,52 M45.2,52.5
					c0.1,0,0.1-0.1,0.1-0.1c0-0.1-0.1-0.1-0.1-0.1c-0.1,0-0.1,0.1-0.1,0.1C45.1,52.4,45.1,52.5,45.2,52.5 M46.4,52.1
					c0.1,0,0.1-0.1,0.1-0.1c0-0.1-0.1-0.1-0.1-0.1c-0.1,0-0.1,0.1-0.1,0.1C46.3,52,46.3,52.1,46.4,52.1 M49,52.3
					c0.1,0,0.1-0.1,0.1-0.1c0-0.1-0.1-0.1-0.1-0.1c-0.1,0-0.1,0.1-0.1,0.1C48.8,52.2,48.9,52.3,49,52.3 M45.8,52.2l0.3-0.2l-0.4,0
					l-0.3,0.2L45.8,52.2z M45,52.4l-0.2,0l0,0c0,0,0,0,0,0c0,0,0,0,0,0c0.7-0.4,1.4-0.6,2.2-0.6c0.8,0,1.6,0.1,2.3,0.4
					c0,0,0,0.1,0,0.1c0,0,0,0,0,0l0,0l-0.1,0.1l0.1,0.2l0,0c0.1,0,0,0.1,0,0.1c-0.6-0.3-1.4-0.4-2.1-0.4c-0.7,0-1.4,0.2-2.1,0.6
					c0,0,0,0,0,0c0,0,0,0,0,0c0,0,0,0,0,0l0,0L45,52.4z M49.4,52c-0.7-0.3-1.5-0.4-2.3-0.4c-0.8,0-1.6,0.3-2.3,0.6c0,0-0.1,0-0.1,0
					c0,0,0-0.1,0-0.1c-0.1,0.1-0.2,0.1-0.4,0c-0.2,0.2-0.5-0.1-0.3-0.3c-0.1-0.1-0.1-0.2,0-0.3c0,0,0-0.1,0-0.1
					c0-0.1,0.1-0.2,0.2-0.2C44.1,51.1,44,51,44,51c0-0.1,0.1-0.2,0.2-0.2c0,0-0.1-0.1-0.1-0.1c0-0.1,0.1-0.2,0.2-0.2
					c0,0,0.1,0,0.1,0c0,0,0-0.1,0-0.1c0-0.1,0.1-0.2,0.2-0.2c0,0,0.1,0,0.1,0c0,0,0,0,0-0.1c0-0.1,0.1-0.2,0.2-0.2
					c0.1,0,0.1,0,0.1,0c0-0.1,0.1-0.2,0.2-0.2c0.1,0,0.1,0,0.2,0.1c0-0.1,0.1-0.1,0.1-0.1c0,0,0.1,0,0.1,0c0,0,0-0.1,0-0.1
					c0-0.1,0.1-0.2,0.2-0.2c0.1,0,0.1,0,0.1,0c0,0,0-0.1,0-0.1c0-0.1,0.1-0.2,0.2-0.2c0.1,0,0.1,0,0.1,0c0-0.1,0.1-0.2,0.2-0.2
					c0.1,0,0.1,0,0.2,0.1c0-0.1,0.1-0.1,0.2-0.1c0,0,0,0,0.1,0c0.1-0.1,0.1-0.1,0.2-0.1l0-0.2l-0.2,0l0-0.1l0.2,0l0-0.1l0.1,0l0,0.1
					l0.2,0l0,0.1l-0.2,0l0,0.2c0.1,0,0.1,0,0.2,0.1c0,0,0,0,0.1,0c0.1,0,0.1,0,0.2,0.1c0,0,0.1-0.1,0.1-0.1c0.1,0,0.2,0.1,0.2,0.2
					c0,0,0.1-0.1,0.1-0.1c0.1,0,0.2,0.1,0.2,0.2c0,0,0,0.1,0,0.1c0,0,0.1-0.1,0.1-0.1c0.1,0,0.2,0.1,0.2,0.2c0,0,0,0.1,0,0.1
					c0,0,0.1,0,0.1,0c0.1,0,0.1,0,0.2,0.1c0-0.1,0.1-0.1,0.2-0.1c0.1,0,0.2,0.1,0.2,0.2c0,0,0.1-0.1,0.1-0.1c0.1,0,0.2,0.1,0.2,0.2
					c0,0,0,0,0,0.1c0,0,0.1,0,0.1,0c0.1,0,0.2,0.1,0.2,0.2c0,0,0,0.1,0,0.1c0,0,0.1,0,0.1,0c0.1,0,0.2,0.1,0.2,0.2
					c0,0.1,0,0.1,0,0.1c0.1,0,0.2,0.1,0.2,0.2c0,0.1,0,0.1-0.1,0.2c0.1,0,0.2,0.1,0.2,0.2c0,0,0,0.1,0,0.1c0.1,0.1,0.1,0.2,0.1,0.3
					c0.1,0.1,0.1,0.2,0,0.3c-0.1,0.1-0.2,0.1-0.3,0c-0.1,0.1-0.2,0.1-0.4,0.1l0,0C49.5,51.9,49.4,52,49.4,52 M44.5,51.7
					c0.1,0.2,0,0.2-0.1,0.3c0.1,0,0.1,0,0.2,0c0.1,0,0.1-0.1,0.1-0.2c0,0,0,0,0-0.1c0-0.1,0-0.2,0.1-0.2c0.1,0,0.2,0,0.2,0.1
					c0,0,0,0,0,0c0.1,0.2,0.4,0.1,0.4-0.2c-0.2,0-0.3,0-0.3-0.1c0-0.1,0-0.2,0.1-0.2c0-0.1,0-0.1,0-0.1c-0.1,0-0.2-0.1-0.2-0.2
					c0-0.1,0.1-0.2,0.2-0.2c-0.1,0-0.1-0.1-0.1-0.2c0,0,0,0,0,0c-0.6,0.3-0.7,0.6-0.7,1.2C44.5,51.5,44.5,51.6,44.5,51.7 M46.8,49.6
					C46.8,49.6,46.8,49.6,46.8,49.6c-0.7-0.1-1.2,0.5-1.3,1.2c0.1,0,0.1,0,0.1,0.1c0.1,0,0.2,0,0.2,0.1c0.1,0.2,0,0.2-0.2,0.3
					c0.1,0.1,0.2,0.2,0.3,0.1c0.1,0,0.2-0.1,0.2-0.2c0,0,0-0.1,0-0.1c0-0.1,0.1-0.2,0.2-0.2c0.1,0,0.2,0.1,0.2,0.2c0,0,0,0,0,0.1
					c0,0.1,0.1,0.2,0.2,0.2c0.1,0,0.2-0.1,0.2-0.2c-0.2,0-0.3,0-0.3-0.2c0-0.1,0-0.2,0.2-0.2c0-0.2,0.1-0.2,0.2-0.2
					c0.1,0,0.2,0,0.2,0.2c0.1,0,0.2,0.1,0.2,0.2c0,0.2-0.1,0.2-0.2,0.2c0,0.1,0.1,0.2,0.2,0.2c0.1,0,0.2-0.1,0.2-0.2c0,0,0,0,0-0.1
					c0-0.1,0.1-0.2,0.2-0.2c0.1,0,0.2,0.1,0.2,0.2c0,0,0,0.1,0,0.1c0,0.1,0.1,0.2,0.2,0.2c0.1,0,0.2-0.1,0.3-0.2
					c-0.2,0-0.2-0.1-0.2-0.3c0-0.1,0.1-0.2,0.2-0.2c0-0.1,0-0.1,0.1-0.1c-0.1-0.7-0.7-1.2-1.4-1.1c0,0,0,0,0,0c0,0,0,0.1,0,0.1
					l0,0.2c0,0,0,0.1,0,0.1c0,0,0,0.1,0,0.1l0,0.2c0,0,0,0.1,0,0.1c0,0.1-0.1,0.1-0.1,0.2c-0.1,0-0.2-0.1-0.2-0.2c0,0,0-0.1,0-0.1
					l0-0.2c0,0,0-0.1,0-0.1c0,0,0-0.1,0-0.1L46.8,49.6C46.8,49.6,46.8,49.6,46.8,49.6 M49.5,51.7c0.1,0,0.1,0,0.2,0
					c-0.1-0.1-0.2-0.1-0.2-0.3c0-0.1,0.1-0.1,0.1-0.2c-0.1-0.6-0.3-0.9-0.8-1.1l0,0c0,0,0,0,0,0c0,0.1,0,0.1-0.1,0.2
					c0.1,0,0.2,0.1,0.2,0.2c0,0.1-0.1,0.2-0.1,0.2c0,0.1,0,0.1,0,0.1c0.1,0,0.1,0.1,0.1,0.2c0,0.2-0.1,0.2-0.3,0.2
					c0,0.3,0.3,0.3,0.4,0.2c0,0,0,0,0,0c0-0.1,0.1-0.2,0.2-0.1c0.1,0,0.2,0.1,0.1,0.2c0,0,0,0.1,0,0.1
					C49.4,51.6,49.4,51.6,49.5,51.7 M46.6,49.4c0.1,0,0.1,0,0.1-0.1c0-0.1-0.1-0.1-0.1-0.1c-0.1,0-0.1,0-0.1,0.1
					C46.5,49.3,46.6,49.4,46.6,49.4 M46.9,49.7c0.1,0,0.1,0,0.1-0.1c0-0.1,0-0.1-0.1-0.1c-0.1,0-0.1,0.1-0.1,0.1
					C46.8,49.6,46.9,49.7,46.9,49.7 M47,50c0.1,0,0.1,0,0.1-0.1c0-0.1,0-0.1-0.1-0.1c-0.1,0-0.1,0.1-0.1,0.1C46.9,50,46.9,50,47,50
					 M47,50.4c0.1,0,0.1-0.1,0.1-0.1c0-0.1,0-0.1-0.1-0.1c-0.1,0-0.1,0-0.1,0.1C46.9,50.4,46.9,50.4,47,50.4 M46.3,49.5
					c0.1,0,0.1,0,0.1-0.1c0-0.1,0-0.1-0.1-0.1c-0.1,0-0.1,0.1-0.1,0.1C46.2,49.4,46.2,49.5,46.3,49.5 M46,49.6c0.1,0,0.1,0,0.1-0.1
					c0-0.1,0-0.1-0.1-0.1c-0.1,0-0.1,0-0.1,0.1C45.9,49.5,45.9,49.6,46,49.6 M45.7,49.8c0.1,0,0.1,0,0.1-0.1c0-0.1,0-0.1-0.1-0.1
					c-0.1,0-0.1,0-0.1,0.1C45.6,49.8,45.6,49.8,45.7,49.8 M45.5,50.1c0.1,0,0.1,0,0.1-0.1c0-0.1-0.1-0.1-0.1-0.1
					c-0.1,0-0.1,0.1-0.1,0.1C45.4,50,45.4,50.1,45.5,50.1 M45.1,50.1c0.1,0,0.1,0,0.1-0.1c0-0.1,0-0.1-0.1-0.1c-0.1,0-0.1,0-0.1,0.1
					C45,50,45.1,50.1,45.1,50.1 M44.8,50.2c0.1,0,0.1,0,0.1-0.1c0-0.1,0-0.1-0.1-0.1c-0.1,0-0.1,0-0.1,0.1
					C44.7,50.2,44.8,50.2,44.8,50.2 M44.5,50.4c0.1,0,0.1,0,0.1-0.1c0-0.1-0.1-0.1-0.1-0.1c-0.1,0-0.1,0-0.1,0.1
					C44.4,50.4,44.5,50.4,44.5,50.4 M44.3,50.7c0.1,0,0.1,0,0.1-0.1c0-0.1,0-0.1-0.1-0.1c-0.1,0-0.1,0-0.1,0.1
					C44.2,50.7,44.3,50.7,44.3,50.7 M44.2,51.1c0.1,0,0.1,0,0.1-0.1c0-0.1-0.1-0.1-0.1-0.1c-0.1,0-0.1,0-0.1,0.1
					C44.1,51,44.1,51.1,44.2,51.1 M44.1,51.4c0.1,0,0.1,0,0.1-0.1c0-0.1,0-0.1-0.1-0.1c-0.1,0-0.1,0-0.1,0.1
					C44,51.4,44.1,51.4,44.1,51.4 M45.3,50.4c0.1,0,0.1,0,0.1-0.1c0-0.1,0-0.1-0.1-0.1c-0.1,0-0.1,0-0.1,0.1
					C45.2,50.4,45.3,50.4,45.3,50.4 M45.3,50.8c0.1,0,0.1,0,0.1-0.1c0-0.1-0.1-0.1-0.1-0.1c-0.1,0-0.1,0-0.1,0.1
					C45.1,50.7,45.2,50.8,45.3,50.8 M47,51c0.1,0,0.2-0.1,0.2-0.2c0-0.1-0.1-0.2-0.2-0.2c-0.1,0-0.2,0.1-0.2,0.2
					C46.8,50.9,46.9,51,47,51 M45.5,51.3c0.1,0,0.1-0.1,0.1-0.2c0-0.1-0.1-0.1-0.2-0.1c-0.1,0-0.1,0.1-0.1,0.2
					C45.3,51.2,45.4,51.3,45.5,51.3 M44.3,51.9c0.1-0.1,0.1-0.2,0.1-0.2c-0.1-0.1-0.2-0.1-0.2-0.1C44,51.7,44,51.8,44,51.9
					C44.1,52,44.2,52,44.3,51.9 M47.2,49.1c-0.1,0-0.1,0-0.1,0.1c0,0.1,0,0.1,0.1,0.1c0.1,0,0.1,0,0.1-0.1
					C47.3,49.2,47.3,49.1,47.2,49.1 M47.6,49.2c-0.1,0-0.1,0-0.1,0.1c0,0.1,0,0.1,0.1,0.1c0.1,0,0.1,0,0.1-0.1
					C47.7,49.2,47.6,49.2,47.6,49.2 M47.9,49.3c-0.1,0-0.1,0-0.1,0.1c0,0.1,0,0.1,0.1,0.1c0.1,0,0.1,0,0.1-0.1
					C48,49.3,47.9,49.3,47.9,49.3 M48.2,49.5c-0.1,0-0.1,0-0.1,0.1c0,0.1,0,0.1,0.1,0.1c0.1,0,0.1,0,0.1-0.1
					C48.3,49.5,48.3,49.5,48.2,49.5 M48.4,49.7c-0.1,0-0.1,0.1-0.1,0.1c0,0.1,0,0.1,0.1,0.1c0.1,0,0.1,0,0.1-0.1
					C48.6,49.8,48.5,49.7,48.4,49.7 M48.8,49.7c-0.1,0-0.1,0-0.1,0.1c0,0.1,0,0.1,0.1,0.1c0.1,0,0.1,0,0.1-0.1
					C48.9,49.7,48.8,49.7,48.8,49.7 M49.1,49.8c-0.1,0-0.1,0-0.1,0.1c0,0.1,0,0.1,0.1,0.1c0.1,0,0.1,0,0.1-0.1
					C49.2,49.8,49.1,49.8,49.1,49.8 M49.4,50c-0.1,0-0.1,0-0.1,0.1c0,0.1,0,0.1,0.1,0.1c0.1,0,0.1,0,0.1-0.1
					C49.5,50,49.4,50,49.4,50 M49.6,50.3c-0.1,0-0.1,0-0.1,0.1c0,0.1,0,0.1,0.1,0.1c0.1,0,0.1,0,0.1-0.1
					C49.7,50.3,49.7,50.3,49.6,50.3 M49.8,50.6c-0.1,0-0.1,0-0.1,0.1c0,0.1,0,0.1,0.1,0.1c0.1,0,0.1,0,0.1-0.1
					C49.9,50.6,49.9,50.6,49.8,50.6 M49.9,50.9c-0.1,0-0.1,0-0.1,0.1c0,0.1,0,0.1,0.1,0.1c0.1,0,0.1,0,0.1-0.1
					C50,51,50,50.9,49.9,50.9 M48.6,50c-0.1,0-0.1,0-0.1,0.1c0,0.1,0,0.1,0.1,0.1c0.1,0,0.1,0,0.1-0.1C48.7,50.1,48.7,50,48.6,50
					 M48.7,50.4c-0.1,0-0.1,0-0.1,0.1c0,0.1,0,0.1,0.1,0.1c0.1,0,0.1,0,0.1-0.1C48.8,50.4,48.8,50.4,48.7,50.4 M48.6,50.8
					c-0.1,0-0.2,0-0.2,0.1c0,0.1,0,0.2,0.1,0.2c0.1,0,0.2,0,0.2-0.1C48.7,50.9,48.7,50.8,48.6,50.8 M50,51.3c-0.1,0-0.2,0-0.2,0.1
					c0,0.1,0,0.2,0.1,0.2c0.1,0,0.2,0,0.2-0.1C50.1,51.5,50.1,51.4,50,51.3 M47.8,51.2C47.7,51.2,47.7,51.2,47.8,51.2
					c-0.1,0-0.1,0.1-0.2,0.1c0.1,0,0.2,0,0.3,0C47.8,51.3,47.8,51.3,47.8,51.2L47.8,51.2z M46.3,51.3c0,0.1-0.1,0.1-0.1,0.1
					c0.1,0,0.2,0,0.3,0C46.4,51.4,46.4,51.4,46.3,51.3C46.3,51.3,46.3,51.3,46.3,51.3 M45.8,51.6c-0.1,0-0.1-0.1-0.2-0.1
					c0,0.1,0,0.1-0.1,0.2C45.6,51.6,45.7,51.6,45.8,51.6 M44.9,51.9c0.1,0,0.2-0.1,0.3-0.1c0,0-0.1,0-0.1-0.1c0,0,0,0-0.1,0l0,0
					C44.9,51.8,44.9,51.9,44.9,51.9 M47,51.2c0,0.1-0.1,0.1-0.1,0.2c0,0,0.1,0,0.1,0c0,0,0.1,0,0.1,0C47.1,51.3,47,51.3,47,51.2
					 M49.1,51.5c0,0-0.1,0-0.1,0.1c0.1,0,0.2,0.1,0.3,0.1C49.2,51.7,49.2,51.6,49.1,51.5L49.1,51.5C49.1,51.6,49.1,51.6,49.1,51.5
					 M48.6,51.5c0-0.1-0.1-0.1-0.1-0.2c0,0.1-0.1,0.1-0.2,0.1C48.4,51.5,48.5,51.5,48.6,51.5"/>
			</g>
		</g>
		<g>
			<circle fill="none" cx="47.6" cy="49.3" r="0.1"/>
			<polygon fill="none" points="45,52.4 44.9,52.4 44.9,52.4 44.8,52.5 44.9,52.6 45,52.5 			"/>
			<circle fill="none" cx="47.2" cy="49.2" r="0.1"/>
			<polygon fill="none" points="49.2,52.2 49.2,52.3 49.2,52.3 49.3,52.3 49.3,52.2 			"/>
			<circle fill="none" cx="48.2" cy="49.6" r="0.1"/>
			<circle fill="none" cx="46.4" cy="51.9" r="0.1"/>
			<circle fill="none" cx="48.5" cy="49.8" r="0.1"/>
			<circle fill="none" cx="45.3" cy="50.3" r="0.1"/>
			<circle fill="none" cx="46.9" cy="49.6" r="0.1"/>
			<circle fill="none" cx="45.2" cy="52.3" r="0.1"/>
			<circle fill="none" cx="48.6" cy="50.1" r="0.1"/>
			<path fill="none" d="M46.8,50.1L46.8,50.1c0-0.1,0-0.2,0-0.2c0,0,0-0.1,0-0.1l0-0.2c0,0,0-0.1,0-0.1c-0.6,0-1,0.3-1.1,0.8
				C46,50.2,46.4,50.1,46.8,50.1z"/>
			<path fill="none" d="M47.3,50.6c0.1,0,0.2,0.1,0.2,0.2c0,0.1,0,0.2-0.2,0.3c0,0.1,0.1,0.1,0.2,0.1c0.1,0,0.1-0.1,0.2-0.1
				c0,0,0,0,0-0.1c0-0.1,0.1-0.2,0.2-0.2c0.1,0,0.2,0.1,0.2,0.2c0,0,0,0.1,0,0.1c0,0.1,0.1,0.1,0.1,0.2c0.1,0,0.2,0,0.2-0.1
				c-0.2,0-0.2-0.2-0.2-0.3c0-0.1,0.1-0.2,0.2-0.2c0-0.1,0.1-0.1,0.1-0.1c0-0.1,0-0.2-0.1-0.3c-0.4-0.2-0.8-0.2-1.2-0.1l0,0
				c0,0,0,0.1,0,0.1c0,0.1,0,0.1-0.1,0.2C47.2,50.5,47.2,50.5,47.3,50.6z"/>
			<path fill="none" d="M45.7,50.8c0.1,0,0.2,0.1,0.2,0.2c0,0.1,0,0.2-0.2,0.3c0,0.1,0.1,0.1,0.2,0.1c0.1,0,0.1-0.1,0.1-0.2
				c0,0,0-0.1,0-0.1c0-0.1,0.1-0.2,0.2-0.2c0.1,0,0.2,0.1,0.2,0.2c0,0,0,0,0,0.1c0,0.1,0.1,0.1,0.2,0.1c0.1,0,0.1-0.1,0.2-0.1
				c-0.2,0-0.3-0.1-0.3-0.2c0-0.1,0-0.2,0.2-0.3c0-0.1,0.1-0.1,0.1-0.2c0,0-0.1-0.1-0.1-0.1c0,0,0-0.1,0-0.1l0,0
				c-0.4,0-0.8,0-1.2,0.2c0,0.1,0,0.2-0.1,0.3C45.6,50.7,45.6,50.8,45.7,50.8z"/>
			<circle fill="none" cx="45.7" cy="49.7" r="0.1"/>
			<circle fill="none" cx="45.5" cy="50" r="0.1"/>
			<path fill="none" d="M48.3,50.2c-0.2-0.4-0.6-0.7-1.2-0.7c0,0,0,0.1,0,0.1l0,0.2c0,0,0,0.1,0,0.1c0,0,0,0.1,0,0.1l0,0.1
				C47.5,50.1,48,50.1,48.3,50.2z"/>
			<circle fill="none" cx="47" cy="50.3" r="0.1"/>
			<circle fill="none" cx="47" cy="49.9" r="0.1"/>
			<circle fill="none" cx="46.6" cy="49.3" r="0.1"/>
			<circle fill="none" cx="46" cy="49.5" r="0.1"/>
			<circle fill="none" cx="46.3" cy="49.4" r="0.1"/>
			<circle fill="none" cx="47.9" cy="49.4" r="0.1"/>
			<circle fill="none" cx="48.5" cy="50.9" r="0.2"/>
			<path fill="none" d="M48.3,51.4c0.1,0,0.2,0,0.2,0c0-0.1-0.1-0.1-0.1-0.2C48.4,51.4,48.4,51.4,48.3,51.4z"/>
			<path fill="none" d="M44.9,51.8c0,0,0,0.1-0.1,0.1c0.1,0,0.2-0.1,0.3-0.1C45.1,51.8,45,51.8,44.9,51.8
				C45,51.8,44.9,51.8,44.9,51.8z"/>
			<path fill="none" d="M49.1,51.5c0,0-0.1,0-0.1,0.1c0.1,0,0.2,0.1,0.3,0.1C49.2,51.7,49.2,51.6,49.1,51.5
				C49.1,51.6,49.1,51.6,49.1,51.5z"/>
			<path fill="none" d="M45.6,51.5c0,0.1,0,0.1-0.1,0.2c0.1,0,0.2-0.1,0.2-0.1C45.7,51.6,45.6,51.5,45.6,51.5z"/>
			<circle fill="none" cx="48.7" cy="50.5" r="0.1"/>
			<path fill="none" d="M49.3,52.1c-0.7-0.3-1.5-0.4-2.3-0.4c-0.8,0-1.6,0.3-2.2,0.6c0,0,0,0.1,0,0c0,0,0,0,0,0l0.2,0.1l0,0.2l0,0
				c0,0,0,0,0,0c0,0,0,0,0,0c0,0,0,0,0,0c0.6-0.3,1.3-0.5,2.1-0.6c0.7,0,1.5,0.1,2.1,0.4c0,0,0.1,0,0-0.1l0,0l-0.1-0.2L49.3,52.1
				C49.3,52.1,49.3,52.1,49.3,52.1C49.4,52.1,49.3,52.1,49.3,52.1z M45.2,52.5c-0.1,0-0.1-0.1-0.1-0.1c0-0.1,0.1-0.1,0.1-0.1
				c0.1,0,0.1,0.1,0.1,0.1C45.3,52.4,45.3,52.5,45.2,52.5z M45.8,52.2l-0.4,0l0.3-0.2l0.4,0L45.8,52.2z M46.4,52.1
				c-0.1,0-0.1-0.1-0.1-0.1c0-0.1,0.1-0.1,0.1-0.1c0.1,0,0.1,0.1,0.1,0.1C46.5,52,46.5,52.1,46.4,52.1z M47.1,52l-0.4-0.1l0.4-0.2
				l0.4,0.1L47.1,52z M47.7,52c-0.1,0-0.1-0.1-0.1-0.1c0-0.1,0.1-0.1,0.1-0.1c0.1,0,0.1,0.1,0.1,0.1C47.8,51.9,47.8,52,47.7,52z
				 M48.3,52.1L48,51.9l0.4-0.1l0.3,0.2L48.3,52.1z M49,52.3c-0.1,0-0.1-0.1-0.1-0.1c0-0.1,0.1-0.1,0.1-0.1c0.1,0,0.1,0.1,0.1,0.1
				C49.1,52.2,49,52.3,49,52.3z"/>
			<path fill="none" d="M46.3,51.3C46.3,51.3,46.3,51.3,46.3,51.3c-0.1,0.1-0.1,0.1-0.1,0.2c0.1,0,0.2,0,0.3,0
				C46.4,51.4,46.4,51.4,46.3,51.3z"/>
			<path fill="none" d="M47,51.2c0,0.1-0.1,0.1-0.1,0.2l0.1,0l0.1,0C47.1,51.3,47,51.3,47,51.2z"/>
			<circle fill="none" cx="47" cy="50.8" r="0.2"/>
			<circle fill="none" cx="45.5" cy="51.1" r="0.2"/>
			<path fill="none" d="M47.8,51.2C47.7,51.2,47.7,51.2,47.8,51.2c-0.1,0-0.1,0.1-0.2,0.1c0.1,0,0.2,0,0.3,0
				C47.8,51.3,47.8,51.3,47.8,51.2L47.8,51.2z"/>
			<polygon fill="none" points="46.7,51.9 47.1,52 47.4,51.9 47,51.8 			"/>
			<circle fill="none" cx="49.1" cy="49.9" r="0.1"/>
			<circle fill="none" cx="48.8" cy="49.8" r="0.1"/>
			<path fill="none" d="M49,50.5c0.1,0,0.2,0.1,0.3,0.1c0.1,0,0.1,0.1,0.2,0.1c-0.1-0.2-0.3-0.4-0.6-0.5c0,0.1,0,0.1-0.1,0.1
				C48.9,50.3,48.9,50.4,49,50.5z"/>
			<circle fill="none" cx="49.4" cy="50.1" r="0.1"/>
			<path fill="none" d="M49,50.5c0,0.1-0.1,0.1-0.1,0.2c0,0,0,0.1,0,0.1C49,50.8,49,51,49,51.1c0,0.1-0.1,0.2-0.3,0.2
				c0,0.2,0.2,0.2,0.3,0.1c0,0,0,0,0,0c0-0.1,0.1-0.2,0.3-0.2c0.1,0,0.2,0.1,0.2,0.3c0,0,0,0.1,0,0.1c0,0.1,0.1,0.2,0.2,0.2
				c-0.1-0.1-0.1-0.2-0.1-0.3c0-0.1,0.1-0.1,0.1-0.2c0-0.2-0.1-0.4-0.1-0.5c-0.1,0-0.1-0.1-0.2-0.1C49.2,50.6,49.1,50.5,49,50.5z"/>
			<circle fill="none" cx="49.8" cy="50.7" r="0.1"/>
			<circle fill="none" cx="49.9" cy="51" r="0.1"/>
			<circle fill="none" cx="47.7" cy="51.9" r="0.1"/>
			<circle fill="none" cx="45.2" cy="50.7" r="0.1"/>
			<circle fill="none" cx="49.9" cy="51.5" r="0.2"/>
			<circle fill="none" cx="49.6" cy="50.4" r="0.1"/>
			<circle fill="none" cx="48.9" cy="52.1" r="0.1"/>
			<path fill="none" d="M49.2,54.4l-0.3,0.4c0.3,0.2,0.5,0.4,0.7,0.7l-0.6,0.6c-0.2-0.3-0.3-0.5-0.6-0.7L47.8,56l2.4,2.2
				c0.2-0.4,0.3-0.9,0.3-1.5C50.4,55.7,49.7,54.8,49.2,54.4z"/>
			<circle fill="none" cx="44.3" cy="50.6" r="0.1"/>
			<path fill="none" d="M49,53.6l-0.8,1l0,0c-0.3-0.1-0.6-0.2-1-0.1c-0.3,0-0.7,0.1-1,0.2l-0.9-0.9c-1.1,0.7-1.8,2-1.7,3.4
				c0,0.9,0.4,1.7,1,2.3l0.3-0.4c-0.3-0.3-0.9-1.1-0.9-2c0-1.1,0.4-1.9,1.2-2.7l0.6,0.5c-0.6,0.5-1,1.2-1,2c0,1.2,0.9,2.2,2.1,2.4
				l0,0.6l0.5,0l0-0.6c0.8,0,1.5-0.4,1.9-1l-0.4-0.4c-0.4,0.4-1,0.8-1.5,0.8l0-0.6l0.8,0l0-0.4l-0.8,0l0-0.5l0.8,0l0-0.4l-1.3,0.1
				l0.1,1.9C46,58.6,45.3,58,45.3,57c0-0.7,0.3-1.3,0.8-1.7l1.2,1.1l1-1.2c0.3,0.2,0.5,0.4,0.7,0.6l0.4-0.4
				c-0.2-0.3-0.4-0.5-0.7-0.7l0.5-0.6c0.8,0.5,1.4,1.6,1.4,2.5c0,0.9-0.2,1.5-0.7,2.1l0.4,0.4c0.5-0.7,0.8-1.5,0.7-2.5
				C51,55.4,50.2,54.2,49,53.6z M47.2,55.6L46.6,55c0.2-0.1,0.4-0.1,0.6-0.1c0.2,0,0.4,0,0.6,0.1L47.2,55.6z"/>
			<circle fill="none" cx="44.5" cy="50.3" r="0.1"/>
			<circle fill="none" cx="44.2" cy="51.8" r="0.2"/>
			<circle fill="none" cx="44.2" cy="51" r="0.1"/>
			<circle fill="none" cx="44.1" cy="51.3" r="0.1"/>
			<path fill="none" d="M46.9,55.1l0.3,0.3l0.3-0.3c-0.1,0-0.2,0-0.3,0C47.1,55.1,47,55.1,46.9,55.1z"/>
			<path fill="none" d="M47.1,52.4c-2.5,0.1-4.5,2.3-4.4,4.9c0.1,2.5,2.3,4.5,4.8,4.4c2.5-0.1,4.5-2.3,4.4-4.8
				C51.8,54.2,49.6,52.2,47.1,52.4z M47.5,61.1c-2.3,0.1-4.3-1.7-4.4-3.9c-0.1-2.3,1.7-4.3,3.9-4.4c2.3-0.1,4.3,1.7,4.4,3.9
				C51.6,59.1,49.8,61,47.5,61.1z"/>
			<path fill="none" d="M44.3,52c0.1,0.1,0.2,0.1,0.4,0c0,0,0,0.1,0,0.1c0,0,0.1,0.1,0.1,0c0.7-0.4,1.4-0.6,2.3-0.6
				c0.8,0,1.6,0.1,2.3,0.4c0.1,0,0.1-0.1,0.1-0.1l0,0c0.1,0,0.2,0,0.4-0.1c0.1,0.1,0.2,0,0.3,0c0.1-0.1,0.1-0.2,0-0.3
				c0.1-0.1,0.1-0.2-0.1-0.3c0,0,0-0.1,0-0.1c0-0.1-0.1-0.2-0.2-0.2c0.1,0,0.1-0.1,0.1-0.2c0-0.1-0.1-0.2-0.2-0.2c0,0,0-0.1,0-0.1
				c0-0.1-0.1-0.2-0.2-0.2c0,0-0.1,0-0.1,0c0,0,0-0.1,0-0.1c0-0.1-0.1-0.2-0.2-0.2c0,0-0.1,0-0.1,0c0,0,0,0,0-0.1
				c0-0.1-0.1-0.2-0.2-0.2c-0.1,0-0.1,0-0.1,0.1c0-0.1-0.1-0.2-0.2-0.2c-0.1,0-0.1,0.1-0.2,0.1c0,0-0.1-0.1-0.2-0.1c0,0-0.1,0-0.1,0
				c0,0,0-0.1,0-0.1c0-0.1-0.1-0.2-0.2-0.2c-0.1,0-0.1,0-0.1,0.1c0,0,0-0.1,0-0.1c0-0.1-0.1-0.2-0.2-0.2c-0.1,0-0.1,0-0.1,0.1
				c0-0.1-0.1-0.2-0.2-0.2c-0.1,0-0.1,0-0.1,0.1c0-0.1-0.1-0.1-0.2-0.1c0,0,0,0-0.1,0C47.1,49,47,49,47,49l0-0.2l0.2,0l0-0.1l-0.2,0
				l0-0.1l-0.1,0l0,0.1l-0.2,0l0,0.1l0.2,0l0,0.2c-0.1,0-0.1,0.1-0.2,0.1c0,0,0,0-0.1,0c-0.1,0-0.1,0.1-0.2,0.1c0,0-0.1-0.1-0.2-0.1
				c-0.1,0-0.2,0.1-0.2,0.2c0,0-0.1-0.1-0.1,0c-0.1,0-0.2,0.1-0.2,0.2c0,0,0,0.1,0,0.1c0,0-0.1,0-0.1,0c-0.1,0-0.2,0.1-0.2,0.2
				c0,0,0,0.1,0,0.1c0,0-0.1,0-0.1,0c-0.1,0-0.1,0-0.1,0.1c0-0.1-0.1-0.1-0.2-0.1c-0.1,0-0.2,0.1-0.2,0.2c0,0-0.1,0-0.1,0
				c-0.1,0-0.2,0.1-0.2,0.2c0,0,0,0,0,0.1c0,0-0.1,0-0.1,0c-0.1,0-0.2,0.1-0.2,0.2c0,0,0,0.1,0,0.1c0,0-0.1,0-0.1,0
				c-0.1,0-0.2,0.1-0.2,0.2c0,0.1,0,0.1,0.1,0.1c-0.1,0-0.2,0.1-0.2,0.2c0,0.1,0.1,0.1,0.1,0.2c-0.1,0-0.2,0.1-0.2,0.2
				c0,0,0,0.1,0,0.1c-0.1,0.1-0.1,0.2,0,0.3C43.8,51.9,44.1,52.2,44.3,52z M44.8,52L44.8,52c0-0.1,0.1-0.2,0.1-0.2
				c0.1,0,0.1,0,0.1-0.1c0.1,0,0.1,0.1,0.2,0.1l0,0C45.1,51.9,44.9,51.9,44.8,52z M45.8,51.6c-0.1,0-0.3,0.1-0.4,0.1l0,0
				c0.1-0.1,0.1-0.2,0.1-0.3l0,0C45.6,51.5,45.7,51.5,45.8,51.6L45.8,51.6z M45.4,50.9c0.1,0,0.2,0,0.3,0.1c0,0.1,0,0.2-0.1,0.3
				c-0.1,0-0.2,0-0.3-0.1C45.2,51,45.3,50.9,45.4,50.9z M45.3,50.8c-0.1,0-0.1-0.1-0.1-0.1c0-0.1,0.1-0.1,0.1-0.1
				c0.1,0,0.1,0.1,0.1,0.1C45.4,50.7,45.3,50.8,45.3,50.8z M46.6,51.5c-0.1,0-0.3,0-0.4,0.1l0,0c0.1-0.1,0.1-0.1,0.1-0.2l0,0
				c0,0,0,0,0.1,0C46.4,51.3,46.5,51.4,46.6,51.5L46.6,51.5z M47.2,51.4c-0.1,0-0.1,0-0.2,0c-0.1,0-0.1,0-0.2,0l0,0
				c0.1-0.1,0.2-0.2,0.2-0.3l0,0C47.1,51.2,47.1,51.3,47.2,51.4L47.2,51.4z M46.8,50.8c0-0.1,0.1-0.2,0.2-0.2c0.1,0,0.2,0.1,0.2,0.2
				c0,0.1-0.1,0.2-0.2,0.2C46.9,51,46.8,50.9,46.8,50.8z M47.9,51.4c-0.1,0-0.3,0-0.4,0l0,0c0.1,0,0.1-0.1,0.2-0.2c0,0,0,0,0.1,0
				l0,0C47.8,51.3,47.9,51.4,47.9,51.4L47.9,51.4z M48.6,51.6c-0.1,0-0.3-0.1-0.4-0.1l0,0c0.1,0,0.2-0.1,0.2-0.2l0,0
				C48.5,51.3,48.6,51.4,48.6,51.6L48.6,51.6z M48.7,51c0,0.1-0.1,0.2-0.2,0.2c-0.1,0-0.2-0.1-0.2-0.2c0-0.1,0.1-0.2,0.2-0.2
				C48.7,50.8,48.8,50.9,48.7,51z M48.6,50.5c0-0.1,0.1-0.1,0.1-0.1c0.1,0,0.1,0.1,0.1,0.1c0,0.1-0.1,0.1-0.1,0.1
				C48.7,50.6,48.6,50.6,48.6,50.5z M49.3,51.8c-0.1-0.1-0.3-0.1-0.4-0.1l0,0c0.1,0,0.1,0,0.2-0.1c0,0,0.1,0,0.1,0c0,0,0,0,0,0
				C49.2,51.6,49.3,51.7,49.3,51.8L49.3,51.8z M50.1,51.6c-0.1,0.1-0.2,0.1-0.3,0.1c-0.1-0.1-0.1-0.2-0.1-0.3c0-0.1,0.2-0.1,0.3-0.1
				C50.1,51.4,50.1,51.5,50.1,51.6z M49.9,50.9c0.1,0,0.1,0.1,0.1,0.1c0,0.1-0.1,0.1-0.1,0.1c-0.1,0-0.1-0.1-0.1-0.1
				C49.8,51,49.8,50.9,49.9,50.9z M49.8,50.5c0.1,0,0.1,0.1,0.1,0.1c0,0.1-0.1,0.1-0.1,0.1c-0.1,0-0.1-0.1-0.1-0.1
				C49.7,50.6,49.7,50.5,49.8,50.5z M49.6,50.2c0.1,0,0.1,0.1,0.1,0.1c0,0.1-0.1,0.1-0.1,0.1c-0.1,0-0.1-0.1-0.1-0.1
				C49.5,50.3,49.6,50.2,49.6,50.2z M49.4,50c0.1,0,0.1,0.1,0.1,0.1c0,0.1-0.1,0.1-0.1,0.1c-0.1,0-0.1-0.1-0.1-0.1
				C49.3,50,49.3,50,49.4,50z M49.1,49.8c0.1,0,0.1,0.1,0.1,0.1c0,0.1-0.1,0.1-0.1,0.1C49,50,49,50,49,49.9
				C49,49.8,49,49.8,49.1,49.8z M49.7,51.2c-0.1,0-0.1,0.1-0.1,0.2c-0.1,0.2,0,0.2,0.2,0.3c-0.1,0-0.1,0.1-0.2,0
				c-0.1,0-0.1-0.1-0.1-0.2c0,0,0-0.1,0-0.1c0-0.1,0-0.2-0.1-0.2c-0.1,0-0.2,0-0.2,0.1c0,0,0,0,0,0c-0.1,0.2-0.4,0.1-0.4-0.2
				c0.2,0,0.3,0,0.3-0.2c0-0.1,0-0.2-0.1-0.2c0-0.1,0-0.1,0-0.1c0.1,0,0.2-0.1,0.1-0.2c0-0.1-0.1-0.2-0.2-0.2c0.1,0,0.1-0.1,0.1-0.2
				l0,0C49.4,50.3,49.6,50.6,49.7,51.2z M48.8,49.7c0.1,0,0.1,0.1,0.1,0.1c0,0.1-0.1,0.1-0.1,0.1c-0.1,0-0.1-0.1-0.1-0.1
				C48.6,49.7,48.7,49.7,48.8,49.7z M48.6,50c0.1,0,0.1,0.1,0.1,0.1c0,0.1-0.1,0.1-0.1,0.1c-0.1,0-0.1-0.1-0.1-0.1
				C48.5,50.1,48.6,50,48.6,50z M48.4,49.7c0.1,0,0.1,0.1,0.1,0.1S48.5,50,48.5,50c-0.1,0-0.1-0.1-0.1-0.1S48.4,49.7,48.4,49.7z
				 M48.2,49.5c0.1,0,0.1,0.1,0.1,0.1c0,0.1-0.1,0.1-0.1,0.1c-0.1,0-0.1-0.1-0.1-0.1C48.1,49.5,48.1,49.5,48.2,49.5z M47.9,49.3
				c0.1,0,0.1,0.1,0.1,0.1c0,0.1-0.1,0.1-0.1,0.1c-0.1,0-0.1-0.1-0.1-0.1C47.8,49.3,47.8,49.3,47.9,49.3z M47.6,49.2
				c0.1,0,0.1,0.1,0.1,0.1c0,0.1-0.1,0.1-0.1,0.1c-0.1,0-0.1-0.1-0.1-0.1C47.4,49.2,47.5,49.2,47.6,49.2z M47.2,49.1
				c0.1,0,0.1,0.1,0.1,0.1c0,0.1-0.1,0.1-0.1,0.1c-0.1,0-0.1-0.1-0.1-0.1C47.1,49.2,47.2,49.1,47.2,49.1z M46.9,49.4
				c0.1,0,0.1,0.1,0.1,0.1c0,0.1-0.1,0.1-0.1,0.1c-0.1,0-0.1-0.1-0.1-0.1C46.8,49.5,46.9,49.4,46.9,49.4z M47,50.1
				c-0.1,0-0.1-0.1-0.1-0.1c0-0.1,0.1-0.1,0.1-0.1c0.1,0,0.1,0.1,0.1,0.1C47.1,50,47,50.1,47,50.1z M47.1,50.3
				c0,0.1-0.1,0.1-0.1,0.1c-0.1,0-0.1-0.1-0.1-0.1c0-0.1,0.1-0.1,0.1-0.1C47,50.2,47.1,50.2,47.1,50.3z M46.6,49.2
				c0.1,0,0.1,0.1,0.1,0.1c0,0.1-0.1,0.1-0.1,0.1c-0.1,0-0.1-0.1-0.1-0.1C46.5,49.2,46.5,49.2,46.6,49.2z M46.3,49.2
				c0.1,0,0.1,0.1,0.1,0.1c0,0.1-0.1,0.1-0.1,0.1c-0.1,0-0.1-0.1-0.1-0.1C46.1,49.3,46.2,49.2,46.3,49.2z M46,49.4
				c0.1,0,0.1,0.1,0.1,0.1c0,0.1-0.1,0.1-0.1,0.1c-0.1,0-0.1-0.1-0.1-0.1C45.8,49.4,45.9,49.4,46,49.4z M46.8,49.5
				C46.8,49.6,46.8,49.6,46.8,49.5c0,0.1,0,0.1,0,0.1l0,0.2c0,0,0,0.1,0,0.1c0,0,0,0.1,0,0.1l0,0.2c0,0,0,0.1,0,0.1
				c0,0.1,0.1,0.1,0.2,0.2c0.1,0,0.2-0.1,0.1-0.2c0,0,0-0.1,0-0.1l0-0.2c0,0,0-0.1,0-0.1c0,0,0-0.1,0-0.1l0-0.2c0,0,0-0.1,0-0.1
				c0,0,0,0,0,0c0.7-0.1,1.3,0.4,1.4,1.1c-0.1,0-0.1,0.1-0.1,0.1c-0.1,0-0.2,0.1-0.2,0.2c0,0.2,0,0.2,0.2,0.3c0,0.1-0.1,0.2-0.3,0.2
				c-0.1,0-0.2-0.1-0.2-0.2c0,0,0-0.1,0-0.1c0-0.1-0.1-0.2-0.2-0.2c-0.1,0-0.2,0.1-0.2,0.2c0,0,0,0,0,0.1c0,0.1-0.1,0.2-0.2,0.2
				c-0.1,0-0.2-0.1-0.2-0.2c0.2,0,0.3-0.1,0.2-0.2c0-0.1-0.1-0.2-0.2-0.2c0-0.1-0.1-0.2-0.2-0.2c-0.1,0-0.2,0-0.2,0.2
				c-0.1,0-0.2,0.1-0.2,0.2c0,0.2,0.1,0.2,0.3,0.2c0,0.1-0.1,0.2-0.2,0.2c-0.1,0-0.2-0.1-0.2-0.2c0,0,0,0,0-0.1
				c0-0.1-0.1-0.2-0.2-0.2c-0.1,0-0.2,0.1-0.2,0.2c0,0,0,0.1,0,0.1c0,0.1-0.1,0.2-0.2,0.2c-0.1,0-0.2,0-0.3-0.1
				c0.2,0,0.2-0.1,0.2-0.3c0-0.1-0.1-0.2-0.2-0.1c0-0.1-0.1-0.1-0.1-0.1C45.6,50,46.1,49.5,46.8,49.5z M45.7,49.6
				c0.1,0,0.1,0.1,0.1,0.1c0,0.1-0.1,0.1-0.1,0.1c-0.1,0-0.1-0.1-0.1-0.1C45.5,49.6,45.6,49.6,45.7,49.6z M45.4,49.9
				c0.1,0,0.1,0.1,0.1,0.1s-0.1,0.1-0.1,0.1c-0.1,0-0.1-0.1-0.1-0.1S45.4,49.9,45.4,49.9z M45.4,50.3c0,0.1-0.1,0.1-0.1,0.1
				c-0.1,0-0.1-0.1-0.1-0.1c0-0.1,0.1-0.1,0.1-0.1C45.4,50.2,45.4,50.2,45.4,50.3z M45.1,49.9c0.1,0,0.1,0.1,0.1,0.1
				c0,0.1-0.1,0.1-0.1,0.1c-0.1,0-0.1-0.1-0.1-0.1C45,49.9,45.1,49.9,45.1,49.9z M45.1,50.3C45.1,50.3,45.1,50.3,45.1,50.3
				c0.1,0.1,0.1,0.2,0.2,0.2c-0.1,0-0.2,0.1-0.2,0.2c0,0.1,0.1,0.2,0.2,0.2c0,0.1,0,0.1,0,0.1c-0.1,0.1-0.1,0.1-0.1,0.2
				c0.1,0.2,0.2,0.2,0.3,0.1c0,0.3-0.2,0.4-0.4,0.2c0,0,0,0,0,0c0-0.1-0.1-0.1-0.2-0.1c-0.1,0-0.1,0.1-0.1,0.2c0,0,0,0.1,0,0.1
				c0,0.1,0,0.2-0.1,0.2c-0.1,0-0.1,0-0.2,0c0.1-0.1,0.2-0.1,0.1-0.3c0-0.1-0.1-0.1-0.1-0.1C44.4,50.9,44.5,50.6,45.1,50.3z
				 M44.8,50c0.1,0,0.1,0.1,0.1,0.1c0,0.1-0.1,0.1-0.1,0.1c-0.1,0-0.1-0.1-0.1-0.1C44.7,50.1,44.7,50,44.8,50z M44.5,50.2
				c0.1,0,0.1,0.1,0.1,0.1c0,0.1-0.1,0.1-0.1,0.1c-0.1,0-0.1-0.1-0.1-0.1C44.4,50.3,44.5,50.2,44.5,50.2z M44.3,50.5
				c0.1,0,0.1,0.1,0.1,0.1c0,0.1-0.1,0.1-0.1,0.1c-0.1,0-0.1-0.1-0.1-0.1C44.2,50.6,44.2,50.5,44.3,50.5z M44.1,51
				c0-0.1,0.1-0.1,0.1-0.1c0.1,0,0.1,0.1,0.1,0.1c0,0.1-0.1,0.1-0.1,0.1C44.1,51.1,44.1,51,44.1,51z M44.1,51.2
				c0.1,0,0.1,0.1,0.1,0.1c0,0.1-0.1,0.1-0.1,0.1c-0.1,0-0.1-0.1-0.1-0.1C44,51.3,44,51.2,44.1,51.2z M44.1,51.6
				c0.1-0.1,0.2,0,0.3,0.1c0.1,0.1,0,0.2-0.1,0.3c-0.1,0.1-0.2,0-0.3-0.1C43.9,51.8,44,51.7,44.1,51.6z"/>
			<path fill="none" d="M44.7,50.8c-0.1,0-0.2,0.1-0.2,0.1c0,0.1-0.1,0.3-0.1,0.5c0.1,0,0.1,0.1,0.1,0.2c0,0.1,0.1,0.2-0.1,0.3
				c0,0,0.1,0,0.1,0c0.1,0,0.1-0.1,0.1-0.2c0,0,0-0.1,0-0.1c0-0.1,0-0.2,0.1-0.3c0.1,0,0.2,0,0.3,0.1c0,0,0,0,0,0
				c0.1,0.1,0.3,0,0.3-0.1c-0.2,0-0.3,0-0.3-0.2c0-0.1,0-0.2,0.1-0.3c0,0,0-0.1,0-0.1c-0.1,0-0.1-0.1-0.1-0.2
				C44.9,50.8,44.8,50.8,44.7,50.8z"/>
			<path fill="none" d="M47.1,53c-2.2,0.1-3.9,2-3.8,4.2c0.1,2.2,2,3.9,4.2,3.8c2.2-0.1,3.9-2,3.8-4.2C51.2,54.6,49.3,52.8,47.1,53z
				 M50.8,58.8c-0.4,0.7-1,1.3-1.7,1.6l-0.4-0.4L48,59.5c-0.2,0-0.3,0.1-0.5,0.1l0,0.6l-0.8,0l0-0.7c-1.2-0.3-2-1.3-2.1-2.5
				c0-0.2,0-0.4,0-0.6L44.3,56c-0.1,0.3-0.1,0.7-0.1,1c0,0.7,0.4,1.5,0.9,2l-0.5,0.6c-0.7-0.7-1.1-1.5-1.2-2.5
				c-0.1-1.5,0.7-2.8,1.9-3.6l1,0.9c0.3-0.1,0.6-0.2,0.9-0.2c0.3,0,0.6,0,0.9,0.1l0.9-1c1.3,0.6,2.2,1.9,2.3,3.4
				C51.3,57.5,51.1,58.2,50.8,58.8z"/>
			<circle fill="none" cx="45.1" cy="50" r="0.1"/>
			<path fill="none" d="M46.7,58.6l0-0.4l-1.2-1.1C45.5,57.8,45.9,58.4,46.7,58.6z"/>
			<circle fill="none" cx="44.8" cy="50.1" r="0.1"/>
			<path fill="none" d="M44.7,50.8c0.1,0,0.2-0.1,0.3-0.1c0-0.1,0-0.2,0.1-0.2c0,0-0.1-0.1-0.1-0.1c-0.3,0.2-0.5,0.4-0.6,0.6
				C44.6,50.9,44.6,50.8,44.7,50.8z"/>
			<path fill="#004B93" d="M45.5,50.1c0.1,0,0.1-0.1,0.1-0.1s-0.1-0.1-0.1-0.1c-0.1,0-0.1,0.1-0.1,0.1S45.4,50.1,45.5,50.1z
				 M45.4,49.9c0.1,0,0.1,0,0.1,0.1c0,0.1,0,0.1-0.1,0.1c-0.1,0-0.1,0-0.1-0.1C45.3,49.9,45.4,49.9,45.4,49.9z"/>
			<path fill="#004B93" d="M44.4,51.5c0.1,0,0.1,0.1,0.1,0.1c0.1,0.2,0,0.2-0.1,0.3c0.1,0,0.1,0,0.2,0c0.1,0,0.1-0.1,0.1-0.2
				c0,0,0,0,0-0.1c0-0.1,0-0.2,0.1-0.2c0.1,0,0.2,0,0.2,0.1c0,0,0,0,0,0c0.1,0.2,0.4,0.1,0.4-0.2c-0.2,0-0.3,0-0.3-0.1
				c0-0.1,0-0.2,0.1-0.2c0-0.1,0-0.1,0-0.1c-0.1,0-0.2-0.1-0.2-0.2c0-0.1,0.1-0.2,0.2-0.2c-0.1,0-0.1-0.1-0.1-0.2c0,0,0,0,0,0
				C44.5,50.6,44.4,50.9,44.4,51.5z M45.2,50.9C45.2,50.9,45.2,50.9,45.2,50.9C45,51,45,51.2,45.1,51.3c0,0.1,0.1,0.2,0.3,0.2
				c0,0.2-0.2,0.2-0.3,0.1c0,0,0,0,0,0c0-0.1-0.2-0.2-0.3-0.1c-0.1,0-0.2,0.2-0.1,0.3c0,0,0,0.1,0,0.1c0,0.1,0,0.1-0.1,0.2
				c0,0-0.1,0-0.1,0c0.1-0.1,0.1-0.2,0.1-0.3c0-0.1-0.1-0.1-0.1-0.2c0-0.2,0-0.4,0.1-0.5c0.1,0,0.1-0.1,0.2-0.1
				c0.1,0,0.2-0.1,0.3-0.1C45,50.8,45.1,50.9,45.2,50.9z M45.1,50.3c0,0.1,0,0.1,0.1,0.1c-0.1,0-0.1,0.1-0.1,0.2
				c-0.1,0-0.2,0.1-0.3,0.1c-0.1,0-0.1,0.1-0.2,0.1C44.6,50.7,44.8,50.5,45.1,50.3z"/>
			<path fill="#004B93" d="M45.2,50.3c0,0.1,0.1,0.1,0.1,0.1c0.1,0,0.1-0.1,0.1-0.1c0-0.1-0.1-0.1-0.1-0.1
				C45.2,50.2,45.2,50.2,45.2,50.3z M45.3,50.2c0.1,0,0.1,0,0.1,0.1c0,0.1,0,0.1-0.1,0.1c-0.1,0-0.1,0-0.1-0.1
				C45.2,50.3,45.3,50.2,45.3,50.2z"/>
			<path fill="#004B93" d="M44.3,50.9c0-0.1-0.1-0.1-0.1-0.1c-0.1,0-0.1,0.1-0.1,0.1c0,0.1,0.1,0.1,0.1,0.1
				C44.3,51.1,44.3,51,44.3,50.9z M44.1,51c0-0.1,0-0.1,0.1-0.1c0.1,0,0.1,0,0.1,0.1c0,0.1,0,0.1-0.1,0.1C44.1,51.1,44.1,51,44.1,51
				z"/>
			<path fill="#004B93" d="M45.1,50.1c0.1,0,0.1-0.1,0.1-0.1c0-0.1-0.1-0.1-0.1-0.1c-0.1,0-0.1,0.1-0.1,0.1
				C45,50.1,45.1,50.1,45.1,50.1z M45.1,49.9c0.1,0,0.1,0,0.1,0.1c0,0.1,0,0.1-0.1,0.1c-0.1,0-0.1,0-0.1-0.1
				C45,49.9,45.1,49.9,45.1,49.9z"/>
			<path fill="#004B93" d="M44.8,50.2c0.1,0,0.1-0.1,0.1-0.1c0-0.1-0.1-0.1-0.1-0.1c-0.1,0-0.1,0.1-0.1,0.1
				C44.7,50.2,44.8,50.2,44.8,50.2z M44.8,50c0.1,0,0.1,0,0.1,0.1c0,0.1,0,0.1-0.1,0.1c-0.1,0-0.1,0-0.1-0.1
				C44.7,50.1,44.8,50,44.8,50z"/>
			<path fill="#004B93" d="M44.3,50.8c0.1,0,0.1-0.1,0.1-0.1c0-0.1-0.1-0.1-0.1-0.1c-0.1,0-0.1,0.1-0.1,0.1
				C44.2,50.7,44.3,50.8,44.3,50.8z M44.3,50.5c0.1,0,0.1,0,0.1,0.1c0,0.1,0,0.1-0.1,0.1c-0.1,0-0.1,0-0.1-0.1
				C44.2,50.6,44.3,50.5,44.3,50.5z"/>
			<path fill="#004B93" d="M44.6,50.5c0.1,0,0.1-0.1,0.1-0.1c0-0.1-0.1-0.1-0.1-0.1c-0.1,0-0.1,0.1-0.1,0.1
				C44.4,50.4,44.5,50.5,44.6,50.5z M44.5,50.2c0.1,0,0.1,0,0.1,0.1c0,0.1,0,0.1-0.1,0.1c-0.1,0-0.1,0-0.1-0.1
				C44.4,50.3,44.5,50.2,44.5,50.2z"/>
			<path fill="#004B93" d="M46.8,50.3c0,0.1,0.1,0.1,0.1,0.1c0.1,0,0.1-0.1,0.1-0.1c0-0.1-0.1-0.1-0.1-0.1
				C46.9,50.2,46.8,50.2,46.8,50.3z M47.1,50.3c0,0.1,0,0.1-0.1,0.1c-0.1,0-0.1,0-0.1-0.1c0-0.1,0-0.1,0.1-0.1
				C47,50.2,47.1,50.2,47.1,50.3z"/>
			<path fill="#004B93" d="M46.3,49.5c0.1,0,0.1-0.1,0.1-0.1c0-0.1-0.1-0.1-0.1-0.1c-0.1,0-0.1,0.1-0.1,0.1
				C46.2,49.4,46.2,49.5,46.3,49.5z M46.3,49.3c0.1,0,0.1,0,0.1,0.1c0,0.1,0,0.1-0.1,0.1c-0.1,0-0.1,0-0.1-0.1
				C46.2,49.3,46.2,49.3,46.3,49.3z"/>
			<path fill="#004B93" d="M46.6,49.4c0.1,0,0.1-0.1,0.1-0.1c0-0.1-0.1-0.1-0.1-0.1c-0.1,0-0.1,0.1-0.1,0.1
				C46.5,49.4,46.5,49.4,46.6,49.4z M46.6,49.2c0.1,0,0.1,0,0.1,0.1c0,0.1,0,0.1-0.1,0.1c-0.1,0-0.1,0-0.1-0.1
				C46.5,49.2,46.5,49.2,46.6,49.2z"/>
			<path fill="#004B93" d="M44.1,51.4c0.1,0,0.1-0.1,0.1-0.1c0-0.1-0.1-0.1-0.1-0.1c-0.1,0-0.1,0.1-0.1,0.1
				C44,51.4,44.1,51.4,44.1,51.4z M44.1,51.2c0.1,0,0.1,0,0.1,0.1c0,0.1,0,0.1-0.1,0.1c-0.1,0-0.1,0-0.1-0.1
				C44,51.3,44.1,51.2,44.1,51.2z"/>
			<path fill="#004B93" d="M46,49.6c0.1,0,0.1-0.1,0.1-0.1c0-0.1-0.1-0.1-0.1-0.1c-0.1,0-0.1,0.1-0.1,0.1
				C45.8,49.6,45.9,49.6,46,49.6z M46,49.4c0.1,0,0.1,0,0.1,0.1c0,0.1,0,0.1-0.1,0.1c-0.1,0-0.1,0-0.1-0.1
				C45.9,49.4,45.9,49.4,46,49.4z"/>
			<path fill="#004B93" d="M45.6,50.9c0.1,0,0.2,0,0.2,0.1c0.1,0.2,0,0.2-0.2,0.3c0.1,0.1,0.2,0.2,0.3,0.1c0.1,0,0.2-0.1,0.2-0.2
				c0,0,0-0.1,0-0.1c0-0.1,0.1-0.2,0.2-0.2c0.1,0,0.2,0.1,0.2,0.2c0,0,0,0,0,0.1c0,0.1,0.1,0.2,0.2,0.2c0.1,0,0.2-0.1,0.2-0.2
				c-0.2,0-0.3,0-0.3-0.2c0-0.1,0-0.2,0.2-0.2c0-0.2,0.1-0.2,0.2-0.2c-0.1,0-0.2-0.1-0.2-0.2c0,0,0-0.1,0-0.1l0-0.2c0,0,0-0.1,0-0.1
				c0,0,0-0.1,0-0.1l0-0.2c0,0,0-0.1,0-0.1c0,0,0,0,0,0c-0.7,0-1.2,0.5-1.3,1.2C45.6,50.8,45.6,50.8,45.6,50.9z M46.7,49.6
				c0,0,0,0.1,0,0.1l0,0.2c0,0,0,0.1,0,0.1c0,0,0,0.1,0,0.1l0,0.1c-0.4,0-0.8,0-1.2,0.2C45.8,49.9,46.2,49.6,46.7,49.6z M46.8,50.2
				L46.8,50.2c0,0.1,0,0.1,0,0.1c0,0.1,0,0.1,0.1,0.1c-0.1,0-0.1,0.1-0.1,0.2c-0.1,0-0.2,0.1-0.2,0.3c0,0.1,0.1,0.2,0.3,0.2
				c0,0.1-0.1,0.1-0.2,0.1c-0.1,0-0.1,0-0.2-0.1c0,0,0,0,0-0.1c0-0.1-0.1-0.2-0.2-0.2c-0.1,0-0.2,0.1-0.2,0.2c0,0,0,0.1,0,0.1
				c0,0.1,0,0.1-0.1,0.2c-0.1,0-0.2,0-0.2-0.1c0.2-0.1,0.2-0.2,0.2-0.3c0-0.1-0.1-0.2-0.2-0.2c0,0-0.1-0.1-0.1-0.1
				c0-0.1,0-0.2,0.1-0.3C46,50.2,46.4,50.1,46.8,50.2z"/>
			<path fill="#004B93" d="M47.2,50.6c0.1,0,0.2,0.1,0.2,0.2c0,0.2-0.1,0.2-0.2,0.2c0,0.1,0.1,0.2,0.2,0.2c0.1,0,0.2-0.1,0.2-0.2
				c0,0,0,0,0-0.1c0-0.1,0.1-0.2,0.2-0.2c0.1,0,0.2,0.1,0.2,0.2c0,0,0,0.1,0,0.1c0,0.1,0.1,0.2,0.2,0.2c0.1,0,0.2-0.1,0.3-0.2
				c-0.2,0-0.2-0.1-0.2-0.3c0-0.1,0.1-0.2,0.2-0.2c0-0.1,0-0.1,0.1-0.1c-0.1-0.7-0.7-1.2-1.4-1.1c0,0,0,0,0,0c0,0,0,0.1,0,0.1l0,0.2
				c0,0,0,0.1,0,0.1c0,0,0,0.1,0,0.1l0,0.2c0,0,0,0.1,0,0.1c0,0.1-0.1,0.1-0.1,0.2C47.1,50.5,47.2,50.5,47.2,50.6z M47.1,50
				c0,0,0-0.1,0-0.1c0,0,0-0.1,0-0.1l0-0.2c0,0,0-0.1,0-0.1c0.6-0.1,1,0.2,1.2,0.7C48,50.1,47.5,50.1,47.1,50L47.1,50z M47.2,50.3
				c0,0,0-0.1,0-0.1l0,0c0.4-0.1,0.8-0.1,1.2,0.1c0,0.1,0.1,0.2,0.1,0.3c0,0-0.1,0.1-0.1,0.1c-0.1,0-0.2,0.1-0.2,0.2
				c0,0.1,0,0.2,0.2,0.3c0,0.1-0.1,0.1-0.2,0.1c-0.1,0-0.1-0.1-0.1-0.2c0,0,0-0.1,0-0.1c0-0.1-0.1-0.2-0.2-0.2
				c-0.1,0-0.2,0.1-0.2,0.2c0,0,0,0,0,0.1c0,0.1-0.1,0.1-0.2,0.1c-0.1,0-0.1,0-0.2-0.1c0.2,0,0.2-0.1,0.2-0.3c0-0.1,0-0.2-0.2-0.2
				c0-0.1-0.1-0.1-0.1-0.2C47.1,50.4,47.2,50.4,47.2,50.3z"/>
			<path fill="#004B93" d="M45.7,49.8c0.1,0,0.1-0.1,0.1-0.1c0-0.1-0.1-0.1-0.1-0.1c-0.1,0-0.1,0.1-0.1,0.1
				C45.5,49.8,45.6,49.8,45.7,49.8z M45.7,49.6c0.1,0,0.1,0,0.1,0.1c0,0.1,0,0.1-0.1,0.1c-0.1,0-0.1,0-0.1-0.1
				C45.6,49.7,45.6,49.6,45.7,49.6z"/>
			<path fill="#004B93" d="M46.9,49.8c-0.1,0-0.1,0.1-0.1,0.1c0,0.1,0.1,0.1,0.1,0.1c0.1,0,0.1-0.1,0.1-0.1
				C47.1,49.9,47,49.8,46.9,49.8z M47,50c-0.1,0-0.1,0-0.1-0.1c0-0.1,0-0.1,0.1-0.1c0.1,0,0.1,0,0.1,0.1C47.1,50,47,50,47,50z"/>
			<path fill="#004B93" d="M47.1,52.8c-2.3,0.1-4.1,2.1-3.9,4.4c0.1,2.3,2.1,4.1,4.4,3.9c2.3-0.1,4.1-2.1,3.9-4.4
				C51.4,54.5,49.4,52.7,47.1,52.8z M47.5,61c-2.2,0.1-4.1-1.6-4.2-3.8c-0.1-2.2,1.6-4.1,3.8-4.2c2.2-0.1,4.1,1.6,4.2,3.8
				C51.4,59,49.7,60.9,47.5,61z"/>
			<path fill="#004B93" d="M46.6,55l0.6,0.6l0.5-0.6c-0.2,0-0.4-0.1-0.6-0.1C47,54.9,46.8,55,46.6,55z M47.2,55.4l-0.3-0.3
				c0.1,0,0.2,0,0.3,0c0.1,0,0.2,0,0.3,0L47.2,55.4z"/>
			<path fill="#004B93" d="M44.3,52c0.1-0.1,0.1-0.2,0.1-0.3c-0.1-0.1-0.2-0.1-0.3-0.1c-0.1,0.1-0.1,0.2-0.1,0.3
				C44.1,52,44.2,52,44.3,52z M44.1,51.6c0.1-0.1,0.2,0,0.2,0.1c0.1,0.1,0,0.2-0.1,0.2c-0.1,0.1-0.2,0-0.2-0.1
				C44,51.8,44,51.7,44.1,51.6z"/>
			<path fill="#004B93" d="M44.3,52.1c0.1,0.1,0.2,0.1,0.3,0c0,0,0,0.1,0,0.1c0,0.1,0.1,0.1,0.1,0.1c0,0,0,0.1,0.1,0.1l0,0.1
				l0.1,0.1c0,0,0,0.1,0,0.1c0,0,0.1,0.1,0.1,0c0.6-0.3,1.3-0.5,2-0.6c0.7,0,1.4,0.1,2.1,0.4c0,0,0.1,0,0.1,0c0,0,0-0.1,0-0.1
				l0.1-0.1l0-0.1c0.1,0,0.1-0.1,0-0.1c0.1,0,0.2-0.1,0.1-0.2c0.1,0,0.2,0,0.3-0.1c0.1,0.1,0.2,0,0.3-0.1c0.1-0.1,0.2-0.2,0.1-0.3
				c0.1-0.1,0-0.2-0.1-0.3c0,0,0-0.1,0-0.1c0-0.1-0.1-0.2-0.2-0.2c0,0,0.1-0.1,0-0.2c0-0.1-0.1-0.2-0.2-0.2c0,0,0-0.1,0-0.1
				c0-0.1-0.1-0.2-0.3-0.2c0,0,0,0,0-0.1c0-0.1-0.1-0.2-0.2-0.2c0,0,0,0-0.1,0c0-0.1-0.1-0.2-0.2-0.2c0,0-0.1,0-0.1,0
				c0-0.1-0.1-0.1-0.2-0.1c-0.1,0-0.1,0-0.2,0.1c0,0-0.1-0.1-0.2,0c0,0,0,0,0,0c0-0.1-0.1-0.2-0.2-0.2c0,0-0.1,0-0.1,0
				c0-0.1-0.1-0.2-0.2-0.2c0,0-0.1,0-0.1,0c0-0.1-0.1-0.1-0.2-0.1c-0.1,0-0.1,0-0.1,0.1c0-0.1-0.1-0.1-0.2-0.1c0,0,0,0-0.1,0
				c0,0-0.1-0.1-0.2-0.1l0-0.1l0.2,0l0-0.2l-0.2,0l0-0.1l-0.2,0l0,0.1l-0.2,0l0,0.2l0.2,0l0,0.1c0,0-0.1,0.1-0.1,0.1c0,0,0,0-0.1,0
				c-0.1,0-0.1,0-0.2,0.1c0,0-0.1,0-0.1,0c-0.1,0-0.2,0.1-0.2,0.2c0,0-0.1,0-0.1,0c-0.1,0-0.2,0.1-0.2,0.2c0,0-0.1,0-0.1,0
				c-0.1,0-0.2,0.1-0.2,0.2c0,0,0,0,0,0c-0.1,0-0.1,0-0.1,0.1c0,0-0.1-0.1-0.2-0.1c-0.1,0-0.2,0.1-0.2,0.2c0,0-0.1,0-0.1,0
				c-0.1,0-0.2,0.1-0.2,0.2c0,0,0,0-0.1,0c-0.1,0-0.2,0.1-0.2,0.2c0,0,0,0,0,0.1c-0.1,0-0.2,0.1-0.2,0.2c0,0,0,0.1,0,0.1
				C44,50.8,44,50.9,44,51c0,0.1,0,0.1,0.1,0.1c-0.1,0-0.1,0.1-0.1,0.2c0,0,0,0.1,0,0.1c-0.1,0.1-0.1,0.2,0,0.3
				C43.8,51.9,44.1,52.2,44.3,52.1z M44.9,52.6l-0.1-0.1l0-0.1l0,0l0.1,0L44.9,52.6L44.9,52.6z M49.3,52.3l-0.1,0.1l0,0l0-0.1l0.1,0
				L49.3,52.3z M49.3,52.1C49.3,52.1,49.3,52.1,49.3,52.1l-0.2,0.1l0.1,0.2l0,0c0.1,0,0,0.1,0,0.1c-0.6-0.3-1.4-0.4-2.1-0.4
				c-0.7,0-1.4,0.2-2.1,0.6c0,0,0,0,0,0c0,0,0,0,0,0c0,0,0,0,0,0l0,0l0-0.2l-0.2-0.1c0,0,0,0,0,0c0,0,0,0,0,0
				c0.7-0.4,1.4-0.6,2.2-0.6C47.9,51.6,48.6,51.8,49.3,52.1C49.3,52.1,49.4,52.1,49.3,52.1z M44,51.4c0,0,0-0.1,0-0.1
				c0-0.1,0.1-0.2,0.2-0.2C44.1,51.1,44,51,44,51c0-0.1,0.1-0.2,0.2-0.2c0,0-0.1-0.1-0.1-0.1c0-0.1,0.1-0.2,0.2-0.2c0,0,0.1,0,0.1,0
				c0,0,0-0.1,0-0.1c0-0.1,0.1-0.2,0.2-0.2c0,0,0.1,0,0.1,0c0,0,0,0,0-0.1c0-0.1,0.1-0.2,0.2-0.2c0.1,0,0.1,0,0.1,0
				c0-0.1,0.1-0.2,0.2-0.2c0.1,0,0.1,0,0.2,0.1c0,0,0.1-0.1,0.1-0.1c0,0,0.1,0,0.1,0c0,0,0-0.1,0-0.1c0-0.1,0.1-0.2,0.2-0.2
				c0.1,0,0.1,0,0.1,0c0,0,0-0.1,0-0.1c0-0.1,0.1-0.2,0.2-0.2c0.1,0,0.1,0,0.1,0c0-0.1,0.1-0.2,0.2-0.2c0.1,0,0.1,0,0.2,0.1
				c0-0.1,0.1-0.1,0.2-0.1c0,0,0,0,0.1,0c0.1-0.1,0.1-0.1,0.2-0.1l0-0.2l-0.2,0l0-0.1l0.2,0l0-0.1l0.1,0l0,0.1l0.2,0l0,0.1l-0.2,0
				l0,0.2c0.1,0,0.1,0,0.2,0.1c0,0,0,0,0.1,0c0.1,0,0.1,0,0.2,0.1c0,0,0.1-0.1,0.1-0.1c0.1,0,0.2,0.1,0.2,0.2c0,0,0.1-0.1,0.1-0.1
				c0.1,0,0.2,0.1,0.2,0.2c0,0,0,0.1,0,0.1c0,0,0.1-0.1,0.1-0.1c0.1,0,0.2,0.1,0.2,0.2c0,0,0,0.1,0,0.1c0,0,0.1,0,0.1,0
				c0.1,0,0.1,0,0.2,0.1c0-0.1,0.1-0.1,0.2-0.1c0.1,0,0.2,0.1,0.2,0.2c0,0,0.1-0.1,0.1-0.1c0.1,0,0.2,0.1,0.2,0.2c0,0,0,0,0,0.1
				c0,0,0.1,0,0.1,0c0.1,0,0.2,0.1,0.2,0.2c0,0,0,0.1,0,0.1c0,0,0.1,0,0.1,0c0.1,0,0.2,0.1,0.2,0.2c0,0.1,0,0.1,0,0.1
				c0.1,0,0.2,0.1,0.2,0.2c0,0.1,0,0.1-0.1,0.2c0.1,0,0.2,0.1,0.2,0.2c0,0,0,0.1,0,0.1c0.1,0.1,0.1,0.2,0.1,0.3
				c0.1,0.1,0.1,0.2,0,0.3c-0.1,0.1-0.2,0.1-0.3,0c-0.1,0.1-0.2,0.1-0.4,0.1l0,0c0,0.1,0,0.2-0.1,0.1c-0.7-0.3-1.5-0.4-2.3-0.4
				c-0.8,0-1.6,0.3-2.3,0.6c0,0-0.1,0-0.1,0c0,0,0-0.1,0-0.1c-0.1,0.1-0.2,0.1-0.4,0c-0.2,0.2-0.5-0.1-0.3-0.3
				C43.9,51.6,43.9,51.5,44,51.4z"/>
			<path fill="#004B93" d="M49,53.4l-0.9,1c-0.3-0.1-0.6-0.1-0.9-0.1c-0.3,0-0.7,0.1-0.9,0.2l-1-0.9c-1.2,0.8-2,2.1-1.9,3.6
				c0.1,1,0.5,1.8,1.2,2.5l0.5-0.6c-0.6-0.5-0.9-1.3-0.9-2c0-0.4,0-0.7,0.1-1l0.4,0.4c0,0.2-0.1,0.4,0,0.6c0,1.2,0.9,2.2,2.1,2.5
				l0,0.7l0.8,0l0-0.6c0.2,0,0.3,0,0.5-0.1l0.7,0.7l0.4,0.4c0.7-0.4,1.3-0.9,1.7-1.6c0.3-0.6,0.5-1.3,0.5-2.1
				C51.2,55.3,50.3,54,49,53.4z M50.3,59.2l-0.4-0.4c0.4-0.6,0.7-1.2,0.7-2.1c0-1-0.6-2-1.4-2.5l-0.5,0.6c0.3,0.2,0.5,0.4,0.7,0.7
				l-0.4,0.4c-0.2-0.3-0.4-0.5-0.7-0.6l-1,1.2l-1.2-1.1c-0.5,0.4-0.9,1-0.8,1.7c0,0.9,0.7,1.6,1.5,1.8l-0.1-1.9l1.3-0.1l0,0.4
				l-0.8,0l0,0.5l0.8,0l0,0.4l-0.8,0l0,0.6c0.6,0,1.2-0.4,1.5-0.8l0.4,0.4c-0.5,0.6-1.2,0.9-1.9,1l0,0.6l-0.5,0l0-0.6
				c-1.2-0.2-2-1.2-2.1-2.4c0-0.8,0.4-1.5,1-2l-0.6-0.5C44.4,55.2,44,56,44,57.1c0,1,0.6,1.7,0.9,2l-0.3,0.4c-0.6-0.6-1-1.4-1-2.3
				c-0.1-1.4,0.6-2.7,1.7-3.4l0.9,0.9c0.3-0.1,0.6-0.2,1-0.2c0.3,0,0.6,0,1,0.1l0,0l0.8-1c1.2,0.6,2,1.8,2.1,3.2
				C51.1,57.7,50.9,58.5,50.3,59.2z M47.8,56l0.6-0.6c0.3,0.2,0.4,0.4,0.6,0.7l0.6-0.6c-0.2-0.3-0.4-0.5-0.7-0.7l0.3-0.4
				c0.6,0.4,1.2,1.3,1.3,2.4c0,0.6-0.1,1-0.3,1.5L47.8,56z M46.7,58.2l0,0.4c-0.7-0.2-1.2-0.8-1.2-1.5L46.7,58.2z"/>
			<path fill="#004B93" d="M47.1,52.2c-2.6,0.1-4.6,2.4-4.5,5c0.1,2.6,2.4,4.6,5,4.5c2.6-0.1,4.6-2.4,4.5-5
				C51.9,54.1,49.7,52.1,47.1,52.2z M47.5,61.6c-2.5,0.1-4.7-1.8-4.8-4.4c-0.1-2.5,1.8-4.7,4.4-4.9c2.5-0.1,4.7,1.8,4.8,4.4
				C52.1,59.3,50.1,61.5,47.5,61.6z"/>
			<path fill="#004B93" d="M48.2,49.7c0.1,0,0.1-0.1,0.1-0.1c0-0.1-0.1-0.1-0.1-0.1c-0.1,0-0.1,0.1-0.1,0.1
				C48.1,49.7,48.1,49.7,48.2,49.7z M48.2,49.5c0.1,0,0.1,0,0.1,0.1c0,0.1,0,0.1-0.1,0.1c-0.1,0-0.1,0-0.1-0.1
				C48.1,49.5,48.1,49.5,48.2,49.5z"/>
			<path fill="#004B93" d="M45,51.7c0,0-0.1,0-0.1,0.1c0,0.1,0,0.1-0.1,0.2l0,0c0.1-0.1,0.3-0.1,0.4-0.2l0,0
				C45.1,51.8,45,51.7,45,51.7z M44.9,51.9c0,0,0-0.1,0.1-0.1c0,0,0,0,0.1,0c0,0,0.1,0,0.1,0.1C45,51.8,44.9,51.9,44.9,51.9z"/>
			<path fill="#004B93" d="M45.4,50.7c0-0.1-0.1-0.1-0.1-0.1c-0.1,0-0.1,0.1-0.1,0.1c0,0.1,0.1,0.1,0.1,0.1
				C45.3,50.8,45.4,50.7,45.4,50.7z M45.3,50.8c-0.1,0-0.1,0-0.1-0.1c0-0.1,0-0.1,0.1-0.1c0.1,0,0.1,0,0.1,0.1
				C45.3,50.7,45.3,50.8,45.3,50.8z"/>
			<path fill="#004B93" d="M45.5,51.3c0.1,0,0.2-0.2,0.1-0.3c0-0.1-0.2-0.2-0.3-0.1c-0.1,0-0.2,0.2-0.1,0.3
				C45.3,51.3,45.4,51.3,45.5,51.3z M45.4,50.9c0.1,0,0.2,0,0.2,0.1c0,0.1,0,0.2-0.1,0.2c-0.1,0-0.2,0-0.2-0.1
				C45.3,51,45.3,50.9,45.4,50.9z"/>
			<path fill="#004B93" d="M45.6,51.4L45.6,51.4c0,0.1-0.1,0.2-0.1,0.3l0,0c0.1,0,0.3-0.1,0.4-0.1l0,0
				C45.7,51.5,45.6,51.5,45.6,51.4z M45.5,51.6c0-0.1,0.1-0.1,0.1-0.2c0,0.1,0.1,0.1,0.2,0.1C45.7,51.6,45.6,51.6,45.5,51.6z"/>
			<path fill="#004B93" d="M46.3,51.3C46.3,51.3,46.3,51.3,46.3,51.3L46.3,51.3c-0.1,0.1-0.2,0.2-0.2,0.2l0,0c0.1,0,0.3-0.1,0.4-0.1
				l0,0C46.5,51.4,46.4,51.3,46.3,51.3z M46.2,51.5c0,0,0.1-0.1,0.1-0.1c0,0,0,0,0,0c0,0,0.1,0.1,0.1,0.1
				C46.4,51.4,46.3,51.5,46.2,51.5z"/>
			<path fill="#004B93" d="M47.8,51.2L47.8,51.2C47.7,51.2,47.7,51.2,47.8,51.2c-0.1,0.1-0.2,0.1-0.3,0.2l0,0c0.1,0,0.3,0,0.4,0l0,0
				C47.9,51.4,47.8,51.3,47.8,51.2z M47.6,51.4c0,0,0.1-0.1,0.1-0.1c0,0,0,0,0,0l0,0c0,0,0.1,0.1,0.1,0.1
				C47.8,51.4,47.7,51.4,47.6,51.4z"/>
			<path fill="#004B93" d="M47.2,50.8c0-0.1-0.1-0.2-0.2-0.2c-0.1,0-0.2,0.1-0.2,0.2c0,0.1,0.1,0.2,0.2,0.2
				C47.1,51,47.2,50.9,47.2,50.8z M46.8,50.8c0-0.1,0.1-0.2,0.2-0.2c0.1,0,0.2,0.1,0.2,0.2c0,0.1-0.1,0.2-0.2,0.2
				C46.9,51,46.8,50.9,46.8,50.8z"/>
			<path fill="#004B93" d="M47,51.1L47,51.1c-0.1,0.1-0.1,0.2-0.2,0.3l0,0c0.1,0,0.1,0,0.2,0c0.1,0,0.1,0,0.2,0l0,0
				C47.1,51.3,47.1,51.2,47,51.1z M47,51.4l-0.1,0c0.1,0,0.1-0.1,0.1-0.2c0,0.1,0.1,0.1,0.1,0.2L47,51.4z"/>
			<path fill="#004B93" d="M48.9,52c-0.1,0-0.1,0.1-0.1,0.1c0,0.1,0.1,0.1,0.1,0.1c0.1,0,0.1-0.1,0.1-0.1C49.1,52.1,49,52,48.9,52z
				 M49,52.2c-0.1,0-0.1,0-0.1-0.1c0-0.1,0-0.1,0.1-0.1c0.1,0,0.1,0,0.1,0.1C49.1,52.2,49,52.2,49,52.2z"/>
			<path fill="#004B93" d="M46.4,51.8c-0.1,0-0.1,0.1-0.1,0.1c0,0.1,0.1,0.1,0.1,0.1c0.1,0,0.1-0.1,0.1-0.1
				C46.5,51.9,46.5,51.8,46.4,51.8z M46.4,52c-0.1,0-0.1,0-0.1-0.1c0-0.1,0-0.1,0.1-0.1c0.1,0,0.1,0,0.1,0.1
				C46.5,52,46.5,52,46.4,52z"/>
			<polygon fill="#004B93" points="45.5,52.2 45.8,52.2 46.1,52 45.8,52 			"/>
			<path fill="#004B93" d="M45.2,52.2c-0.1,0-0.1,0.1-0.1,0.1c0,0.1,0.1,0.1,0.1,0.1c0.1,0,0.1-0.1,0.1-0.1
				C45.3,52.3,45.3,52.2,45.2,52.2z M45.2,52.4c-0.1,0-0.1,0-0.1-0.1c0-0.1,0-0.1,0.1-0.1c0.1,0,0.1,0,0.1,0.1
				C45.3,52.4,45.3,52.4,45.2,52.4z"/>
			<path fill="#004B93" d="M48.5,51.2L48.5,51.2c-0.1,0.1-0.2,0.2-0.3,0.2l0,0c0.1,0,0.3,0,0.4,0.1l0,0
				C48.6,51.4,48.5,51.3,48.5,51.2z M48.3,51.4c0.1,0,0.1-0.1,0.2-0.1c0,0.1,0,0.1,0.1,0.2C48.5,51.5,48.4,51.5,48.3,51.4z"/>
			<polygon fill="#004B93" points="48,51.9 48.3,52.1 48.7,52 48.4,51.8 			"/>
			<path fill="#004B93" d="M46.7,51.9l0.4,0.1l0.4-0.2L47,51.7L46.7,51.9z M47.1,52l-0.3-0.1l0.3-0.1l0.3,0.1L47.1,52z"/>
			<path fill="#004B93" d="M47.7,51.7c-0.1,0-0.1,0.1-0.1,0.1c0,0.1,0.1,0.1,0.1,0.1c0.1,0,0.1-0.1,0.1-0.1
				C47.8,51.8,47.8,51.7,47.7,51.7z M47.7,52c-0.1,0-0.1,0-0.1-0.1c0-0.1,0-0.1,0.1-0.1c0.1,0,0.1,0,0.1,0.1
				C47.8,51.9,47.8,52,47.7,52z"/>
			<path fill="#004B93" d="M49.7,50.7c0,0.1,0.1,0.1,0.1,0.1c0.1,0,0.1-0.1,0.1-0.1c0-0.1-0.1-0.1-0.1-0.1
				C49.7,50.5,49.7,50.6,49.7,50.7z M49.8,50.6c0.1,0,0.1,0,0.1,0.1c0,0.1,0,0.1-0.1,0.1c-0.1,0-0.1,0-0.1-0.1
				C49.7,50.6,49.8,50.6,49.8,50.6z"/>
			<path fill="#004B93" d="M48.5,50c0.1,0,0.1-0.1,0.1-0.1s-0.1-0.1-0.1-0.1c-0.1,0-0.1,0.1-0.1,0.1S48.4,50,48.5,50z M48.4,49.7
				c0.1,0,0.1,0,0.1,0.1c0,0.1,0,0.1-0.1,0.1c-0.1,0-0.1,0-0.1-0.1C48.4,49.8,48.4,49.7,48.4,49.7z"/>
			<path fill="#004B93" d="M48.8,49.9c0.1,0,0.1-0.1,0.1-0.1c0-0.1-0.1-0.1-0.1-0.1c-0.1,0-0.1,0.1-0.1,0.1
				C48.6,49.9,48.7,49.9,48.8,49.9z M48.8,49.7c0.1,0,0.1,0,0.1,0.1c0,0.1,0,0.1-0.1,0.1c-0.1,0-0.1,0-0.1-0.1
				C48.7,49.7,48.7,49.7,48.8,49.7z"/>
			<path fill="#004B93" d="M49.1,50c0.1,0,0.1-0.1,0.1-0.1c0-0.1-0.1-0.1-0.1-0.1c-0.1,0-0.1,0.1-0.1,0.1C49,50,49,50,49.1,50z
				 M49.1,49.8c0.1,0,0.1,0,0.1,0.1c0,0.1,0,0.1-0.1,0.1C49,50,49,50,49,49.9C49,49.9,49,49.8,49.1,49.8z"/>
			<path fill="#004B93" d="M48.8,50.1c0,0.1,0,0.1-0.1,0.2c0.1,0,0.2,0.1,0.2,0.2c0,0.1-0.1,0.2-0.1,0.2c0,0.1,0,0.1,0,0.1
				c0.1,0,0.1,0.1,0.1,0.2c0,0.2-0.1,0.2-0.3,0.2c0,0.3,0.3,0.3,0.4,0.2c0,0,0,0,0,0c0-0.1,0.1-0.2,0.2-0.1c0.1,0,0.2,0.1,0.1,0.2
				c0,0,0,0.1,0,0.1c0,0.1,0,0.2,0.1,0.2c0.1,0,0.1,0,0.2,0c-0.1-0.1-0.2-0.1-0.2-0.3c0-0.1,0.1-0.1,0.1-0.2
				C49.6,50.6,49.4,50.3,48.8,50.1L48.8,50.1z M49.6,51.2c-0.1,0-0.1,0.1-0.1,0.2c0,0.1,0,0.2,0.1,0.3c-0.1,0-0.2-0.1-0.2-0.2
				c0,0,0-0.1,0-0.1c0-0.1-0.1-0.2-0.2-0.3c-0.1,0-0.2,0.1-0.3,0.2c0,0,0,0,0,0c-0.1,0.1-0.3,0.1-0.3-0.1c0.2,0,0.3-0.1,0.3-0.2
				c0-0.1,0-0.2-0.1-0.3c0,0,0-0.1,0-0.1c0.1,0,0.1-0.1,0.1-0.2c0.1,0,0.2,0,0.3,0.1c0.1,0,0.2,0.1,0.2,0.1
				C49.6,50.9,49.6,51,49.6,51.2z M49.5,50.7c-0.1,0-0.1-0.1-0.2-0.1c-0.1,0-0.2-0.1-0.3-0.1c0-0.1-0.1-0.2-0.2-0.2
				c0,0,0.1-0.1,0.1-0.1C49.2,50.3,49.4,50.4,49.5,50.7z"/>
			<path fill="#004B93" d="M48.5,50.1c0,0.1,0.1,0.1,0.1,0.1c0.1,0,0.1-0.1,0.1-0.1c0-0.1-0.1-0.1-0.1-0.1
				C48.6,50,48.5,50.1,48.5,50.1z M48.6,50c0.1,0,0.1,0,0.1,0.1c0,0.1,0,0.1-0.1,0.1c-0.1,0-0.1,0-0.1-0.1
				C48.5,50.1,48.6,50,48.6,50z"/>
			<path fill="#004B93" d="M47.2,49.4c0.1,0,0.1-0.1,0.1-0.1c0-0.1-0.1-0.1-0.1-0.1c-0.1,0-0.1,0.1-0.1,0.1
				C47.1,49.3,47.2,49.4,47.2,49.4z M47.2,49.1c0.1,0,0.1,0,0.1,0.1c0,0.1,0,0.1-0.1,0.1c-0.1,0-0.1,0-0.1-0.1
				C47.1,49.2,47.2,49.2,47.2,49.1z"/>
			<path fill="#004B93" d="M47.9,49.5c0.1,0,0.1-0.1,0.1-0.1c0-0.1-0.1-0.1-0.1-0.1c-0.1,0-0.1,0.1-0.1,0.1
				C47.8,49.5,47.8,49.5,47.9,49.5z M47.9,49.3c0.1,0,0.1,0,0.1,0.1c0,0.1,0,0.1-0.1,0.1c-0.1,0-0.1,0-0.1-0.1
				C47.8,49.3,47.8,49.3,47.9,49.3z"/>
			<path fill="#004B93" d="M47.6,49.4c0.1,0,0.1-0.1,0.1-0.1c0-0.1-0.1-0.1-0.1-0.1c-0.1,0-0.1,0.1-0.1,0.1
				C47.4,49.4,47.5,49.4,47.6,49.4z M47.6,49.2c0.1,0,0.1,0,0.1,0.1c0,0.1,0,0.1-0.1,0.1c-0.1,0-0.1,0-0.1-0.1
				C47.5,49.2,47.5,49.2,47.6,49.2z"/>
			<path fill="#004B93" d="M46.9,49.7c0.1,0,0.1-0.1,0.1-0.1c0-0.1-0.1-0.1-0.1-0.1c-0.1,0-0.1,0.1-0.1,0.1
				C46.8,49.7,46.9,49.7,46.9,49.7z M46.9,49.5c0.1,0,0.1,0,0.1,0.1c0,0.1,0,0.1-0.1,0.1c-0.1,0-0.1,0-0.1-0.1
				C46.8,49.5,46.9,49.5,46.9,49.5z"/>
			<path fill="#004B93" d="M49.4,50.2c0.1,0,0.1-0.1,0.1-0.1c0-0.1-0.1-0.1-0.1-0.1c-0.1,0-0.1,0.1-0.1,0.1
				C49.3,50.2,49.3,50.2,49.4,50.2z M49.4,50c0.1,0,0.1,0,0.1,0.1c0,0.1,0,0.1-0.1,0.1c-0.1,0-0.1,0-0.1-0.1
				C49.3,50,49.3,50,49.4,50z"/>
			<path fill="#004B93" d="M50,51.3c-0.1-0.1-0.2,0-0.3,0.1c-0.1,0.1,0,0.2,0.1,0.3c0.1,0.1,0.2,0,0.3-0.1
				C50.1,51.5,50.1,51.4,50,51.3z M50.1,51.6c0,0.1-0.2,0.1-0.2,0.1c-0.1,0-0.1-0.2-0.1-0.2c0-0.1,0.2-0.1,0.2-0.1
				C50.1,51.4,50.1,51.5,50.1,51.6z"/>
			<path fill="#004B93" d="M48.9,50.5c0-0.1-0.1-0.1-0.1-0.1c-0.1,0-0.1,0.1-0.1,0.1c0,0.1,0.1,0.1,0.1,0.1
				C48.8,50.6,48.9,50.6,48.9,50.5z M48.6,50.5c0-0.1,0-0.1,0.1-0.1c0.1,0,0.1,0,0.1,0.1c0,0.1,0,0.1-0.1,0.1
				C48.7,50.6,48.6,50.6,48.6,50.5z"/>
			<path fill="#004B93" d="M49.2,51.5C49.2,51.5,49.1,51.5,49.2,51.5c-0.1,0-0.2,0-0.3,0.1l0,0c0.1,0,0.3,0.1,0.4,0.1l0,0
				C49.3,51.7,49.2,51.6,49.2,51.5C49.2,51.5,49.2,51.5,49.2,51.5z M49,51.6c0,0,0.1,0,0.1-0.1c0,0,0,0,0.1,0c0,0,0,0.1,0.1,0.1
				C49.2,51.7,49.1,51.6,49,51.6z"/>
			<path fill="#004B93" d="M49.8,51c0,0.1,0.1,0.1,0.1,0.1c0.1,0,0.1-0.1,0.1-0.1c0-0.1-0.1-0.1-0.1-0.1C49.8,50.9,49.8,51,49.8,51z
				 M49.9,50.9c0.1,0,0.1,0,0.1,0.1c0,0.1,0,0.1-0.1,0.1c-0.1,0-0.1,0-0.1-0.1C49.8,51,49.9,50.9,49.9,50.9z"/>
			<path fill="#004B93" d="M49.7,50.5c0.1,0,0.1-0.1,0.1-0.1c0-0.1-0.1-0.1-0.1-0.1c-0.1,0-0.1,0.1-0.1,0.1
				C49.5,50.4,49.6,50.5,49.7,50.5z M49.6,50.3c0.1,0,0.1,0,0.1,0.1c0,0.1,0,0.1-0.1,0.1c-0.1,0-0.1,0-0.1-0.1
				C49.5,50.3,49.6,50.3,49.6,50.3z"/>
			<path fill="#004B93" d="M48.3,50.9c0,0.1,0,0.2,0.2,0.2c0.1,0,0.2,0,0.2-0.2c0-0.1,0-0.2-0.2-0.2C48.5,50.7,48.4,50.8,48.3,50.9z
				 M48.7,51c0,0.1-0.1,0.2-0.2,0.1c-0.1,0-0.2-0.1-0.1-0.2c0-0.1,0.1-0.2,0.2-0.1C48.7,50.8,48.7,50.9,48.7,51z"/>
		</g>
	</g>
</g>
</svg>
