<?xml version="1.0" encoding="utf-8"?>
<!-- Generator: Adobe Illustrator 18.1.1, SVG Export Plug-In . SVG Version: 6.00 Build 0)  -->
<svg version="1.1" id="Layer_1" xmlns="http://www.w3.org/2000/svg" xmlns:xlink="http://www.w3.org/1999/xlink" x="0px" y="0px"
	 viewBox="0 0 72.7 109.5" enable-background="new 0 0 72.7 109.5" xml:space="preserve">
<path fill="#F9BD91" d="M39.1,66.3c0.5,0,9.5,12.3,9.7,13.1c0.2,0.8,2.7,7.7,2.7,7.7l7.5-2.2l-4.2-12l-7.3-12L39.1,66.3z"/>
<path fill="#CD2E40" d="M58.1,82.1l7.8,18.8l-4.2,2c0,0-6.4-5.9-10.1-15.7C51.6,87.1,53.5,82.9,58.1,82.1z"/>
<path fill="#050503" d="M61.7,102.8c0,0,3.7-3.8,7.3-4.5c3.6-0.8,4.3,1.9,3.2,3.4C71.2,103.3,64.6,106.2,61.7,102.8z"/>
<path fill="#E6E7E8" d="M59.2,84.9c0,0-4.4,1.4-6.2,5.6c-1.1-2.1-1.4-3.2-1.4-3.2s0.1-3.8,6.6-5.2L59.2,84.9z"/>
<path fill="#F9BD91" d="M31.1,69.6c-0.5,0-8.6,12.9-8.8,13.8c-0.2,0.8-2.2,7.8-2.2,7.8l-7.6-1.7l3.3-12.3l6.5-12.4L31.1,69.6z"/>
<path fill="#F9BD91" d="M15.4,9.5l-2.2,12.7l4.8,2.2l-2.5,4.3L6.7,25l6.4-18C13.1,6.9,15.4,8.4,15.4,9.5z"/>
<path fill="#F9BD91" d="M48,7.3L50.2,20l-4.8,2.2l2.5,4.3l8.8-3.7l-6.4-18C50.2,4.8,47.9,6.3,48,7.3z"/>
<g>
	<polygon fill="#E6E7E8" points="43.6,52.5 40.9,29.8 50.3,26 46.8,19.7 36.3,22.2 33.3,21.2 25,21.2 22.2,23.2 15.7,20.5 
		11.2,29.9 19.1,32.9 23.3,56 43.6,52.5 	"/>
	<polygon fill="#0071BC" points="21,61.8 17.7,70.8 28.8,75.3 35.2,65.4 42.2,72.3 54.7,67.9 43.9,52.5 23.4,56 23.5,56.2 	"/>
</g>
<path fill="#231F20" d="M20.1,9c-0.8-1.8,0.5-4.2,2.5-4.6c0.7-2,3.4-3.2,5.4-2.2c0.5-0.7,1.2-1.4,2.1-1.5s1.9,0.3,2.2,1.1
	c0.5-0.5,1.3-0.6,1.9-0.4s1.1,0.9,1.2,1.5c1.5,0,2.6,1.8,2.1,3.2c0.7,0.3,1.1,1,1.1,1.7s-0.4,1.4-1,1.8c1,0.8,0.8,2.7-0.4,3.3
	c0.1,0.7,0.1,1.4,0,2c-0.2,0.7-0.6,1.3-1.2,1.5c-0.4,0.1-0.8,0.1-1.1,0.1c-0.5,0.1-1.1,0.2-1.6,0.4c-0.7,0.2-1.4,0.4-2,0.7
	c-2,0.6-3.9,1.3-5.8,2.1c-0.4,0.2-0.8,0.4-1.3,0.4c-0.5,0-1-0.1-1.2-0.5c-0.2-0.4,0-1,0.4-1.1c-0.5-0.1-1,0-1.5-0.1
	c-0.5,0-1-0.2-1.2-0.7c-0.2-0.4,0.1-1.1,0.6-1.1c-0.8,0.2-1.7-0.3-2-1c-0.3-0.8,0.1-1.7,0.8-2.1c-0.9-0.4-1.6-1.4-1.5-2.4
	S19.2,9.3,20.1,9z"/>
<path fill="#F9BD91" d="M34.8,5.3l0.6,14.2l-2.2,0.1l0.2,4.7c0,0-2.2,4.9-8.4,0.3l-0.4-9.7c0,0-1.8-0.3-1.9-2.4s2-1.2,2-1.2
	l-0.2-5.7L34.8,5.3z"/>
<polygon fill="#CD2E40" points="25.9,26.6 30.8,28.7 34.5,25.5 35,25.9 31.2,29.3 25.9,27.4 "/>
<path fill="#231F20" d="M24.5,8.8l3.9-3.6l-2-0.8l-1.9,1.4C24.6,5.8,23.7,7.9,24.5,8.8z"/>
<circle fill="#F9BD91" cx="15" cy="6.4" r="3.7"/>
<circle fill="#F9BD91" cx="48" cy="3.7" r="3.7"/>
<path fill="#231F20" d="M24,9.9c0,0,3-0.2,3.3-2.7c0,0,2.7,1.7,3.8-0.8c0,0,1.5,2.3,3.2,0.7c0,0,0.7,3,2,1.8l-0.5-4.3l-8.3-0.3
	l-4,3.5L24,9.9z"/>
<polygon fill="#CD2E40" points="29.8,28.8 32,54.6 36.1,53.9 32.3,27.8 30.8,28.7 "/>
<path fill="#CD2E40" d="M22.2,23.2c0,0,1.8,6.1,2.8,6.7l3.1,25.4L24,56c0,0,0.1-5.3-1.9-17S20,22.3,20,22.3L22.2,23.2z"/>
<path fill="#CD2E40" d="M36.3,22.2c0,0,4.3,14.8,3.3,31l4.2-0.6c0,0-1.1-17.1-4.2-31.2L36.3,22.2z"/>
<polygon fill="#CD2E40" points="49,24.1 50.2,25.9 41.8,29.3 41.8,26.8 "/>
<polygon fill="#CD2E40" points="46.9,19.7 47.8,21.3 41.2,23.1 40.8,21.1 "/>
<polygon fill="#CD2E40" points="19.1,32.9 11.1,30 12.4,27.2 18,30.3 "/>
<path fill="#CD2E40" d="M19.8,22c-1-0.2-3.9-1.5-3.9-1.5l-0.9,2l4.8,1.7V22z"/>
<path fill="#CD2E40" d="M13.3,86.7L6.9,106l4.3,1.7c0,0,5.9-6.3,9-16.4C20.1,91.2,18,87.2,13.3,86.7z"/>
<path fill="#050503" d="M11.2,107.6c0,0-4-3.5-7.6-4c-3.7-0.5-4.1,2.2-3,3.7C1.7,108.8,8.5,111.3,11.2,107.6z"/>
<path fill="#E6E7E8" d="M12.3,89.4c0,0,4.5,0.8,6.6,5.3c0.6-1.6,1.2-3.3,1.2-3.3s-0.4-3.7-6.9-4.7L12.3,89.4z"/>
</svg>
