<?xml version="1.0" encoding="utf-8"?>
<!-- Generator: Adobe Illustrator 19.0.0, SVG Export Plug-In . SVG Version: 6.00 Build 0)  -->
<svg version="1.1" id="Layer_1" xmlns="http://www.w3.org/2000/svg" xmlns:xlink="http://www.w3.org/1999/xlink" x="0px" y="0px"
	 viewBox="-37.8 176 672.8 550" style="enable-background:new -37.8 176 672.8 550;" xml:space="preserve">
<style type="text/css">
	.st0{fill:#F2A700;}
	.st1{fill:#E24100;}
	.st2{fill:#FFFFFF;}
	.st3{fill:#375FA0;}
	.st4{fill:#5BAC00;}
	.st5{fill:#B75A24;}
	.st6{fill:#999999;}
	.st7{fill:#3A5CA1;}
	.st8{opacity:0.1;}
	.st9{fill:#ED1C24;}
	.st10{fill:#333333;}
	.st11{fill:#C1272D;}
	.st12{fill:#F8FB00;}
	.st13{opacity:0.5;fill:#999999;}
	.st14{fill:#4D4D4D;}
</style>
<g>
	<polygon class="st0" points="95.2,356.9 81.6,364.5 92.8,388.4 78.8,386.8 70.8,359.7 86.4,348.1 	"/>
	<polygon class="st0" points="165.7,367.3 180.9,407.9 191.6,407.5 176.1,364.5 	"/>
	<path class="st0" d="M216.3,298.7c0,0,22.7,3.8,16.7,24.7c-3.2,11.2-1.6,28.7,12,24.7c13.6-4,15.1-19.9-3.2-15.9
		c0,0,6.4-39.1-19.9-45.4L216.3,298.7z"/>
	<path class="st1" d="M205.2,271.6l25.5,8.8c0,0-11.2,19.9-9.6,28.7l-24.7-10.4L205.2,271.6z"/>
	<path class="st2" d="M24.2,230.9c0,0-19.9,15.1-26.3-6.4s-40.7-5.6-35.1,1.6s15.9-2.4,14.4,7.2c-1.6,9.6,0,21.5,9.6,20.7
		c9.6-0.8,24.7-11.2,39.1-7.2C25.8,246.9,48.1,230.1,24.2,230.9z"/>
	<path class="st0" d="M59,273.2c0,0-21.8-7.2-17-31.1s-23.2-15.9-17.7-11.2s13.6,3.5,2.3,8c-4,1.6-5.4,12.8,3.4,17.5
		c0,0,14.9,24.7,28.9,24.7V273.2z"/>
	<path class="st1" d="M71.2,277.2l-13.6-10.4l-4,19.1l19.1,9.6C72.8,295.5,84,297.9,71.2,277.2z"/>
	<g>
		<path class="st0" d="M209.6,291.7c0.2-2.2,0.3-4.4,0.3-6.6c0-39.2-31.8-71-71-71s-71,31.8-71,71c0,3.2,0.2,6.3,0.6,9.3
			C95.6,305.4,154.4,322.5,209.6,291.7z"/>
		<path class="st1" d="M68.7,294.5c1.5,11.5,5.8,22.1,12.1,31.2c19,7.4,56.6,17.3,111.3,6.4c9.7-11,16.1-25,17.5-40.4
			C154.4,322.5,95.6,305.4,68.7,294.5z"/>
		<path class="st3" d="M80.8,325.7c12.8,18.4,34.1,30.4,58.2,30.4c21.2,0,40.1-9.3,53.1-24C137.4,343,99.8,333.1,80.8,325.7z"/>
	</g>
	<path class="st4" d="M132.6,215l-15.1,6.4l18.3,0.8l10.4,13.6l1.6-13.6l19.9,8l-8-13.6C159.7,216.6,141.4,211,132.6,215z"/>
	<path class="st4" d="M139,214.2l4.8-35.9l8.8,4l-8,33.5C144.6,215.8,142.2,223.8,139,214.2z"/>
	<path class="st5" d="M158.1,309.1l4.8,12c0,0,28.7-4.8,43.8-13.6l2.9-15.7C209.6,291.7,181.3,307.5,158.1,309.1z"/>
	<path class="st5" d="M103.1,305.1l-3.2,9.6c0,0-22.3-4.8-29.5-11.2l-1.8-9C68.7,294.5,87.2,301.1,103.1,305.1z"/>
	<path class="st6" d="M70.5,630.2c2,2,13,21.5,13,21.5l-28.9,11.6l-1.1-3.8l23.5-9.8l-12.4-20.2L70.5,630.2z"/>
	<circle cx="496.6" cy="656.6" r="22.6"/>
	<circle class="st6" cx="496.1" cy="657.1" r="16.1"/>
	<path class="st7" d="M500.5,623.2c0,0,24.8-2,29.2,17.3c4.5,19.3-34.2,32.2-90.7,8.9C439,649.4,470.3,624.7,500.5,623.2z"/>
	<path class="st8" d="M439,649.4c0,0,55-24.8,89.7-12.4c0,0-6.9-25.8-53.5-8.4C439.5,642,439,649.4,439,649.4z"/>
	<path class="st7" d="M490.6,495.4c0,0,51-8.1,58.3-9.3s23.5-4.9,30.3,7.3c6.9,12.1,19,44.1,17,80.1c0,14.2-16.2,18.6-25.9,19.8
		c-9.7,1.2-60.3,11.3-60.3,11.3s-27.9-57.4-27.9-58.7S490.6,495.4,490.6,495.4z"/>
	<circle cx="416.6" cy="694.7" r="31.3"/>
	<circle class="st6" cx="415.9" cy="694.4" r="18.9"/>
	<circle cx="54.8" cy="661.5" r="10.4"/>
	<circle class="st6" cx="54.6" cy="661.4" r="6.3"/>
	<path class="st7" d="M422.4,650.4c0,0,32.6-2.6,38.5,22.8c5.9,25.4-45,42.4-119.3,11.7C341.6,684.9,382.7,652.4,422.4,650.4z"/>
	<path class="st9" d="M412.7,661.5c0,0,9.8-28,18.9-41.7l86.7-16.3c0,0-42.4-54.7-25.4-108.2L440,477c0,0-27.4-1.3-50.2,2.6
		s-269.2,84.7-277,82.1c-7.8-2.6-52.1-63.2-52.1-63.2l-30,9.1L52.2,494c0,0-11.1-7.2-23.5-2s-19.6,70.4-15,103.6
		c4.6,33.2,20.2,35.2,40.4,37.8c20.2,2.6,310.5-11.9,310.5-11.9s16.1,8.8,35.6,44.4L412.7,661.5z"/>
	<path class="st8" d="M341.6,684.9c0,0,72.3-32.6,118-16.3c0,0-9.1-33.9-70.4-11.1C342.3,675.2,341.6,684.9,341.6,684.9z"/>
	<path class="st8" d="M518.2,603.5l-86.7,16.3l-15,30.6l-4.6,0.7c0,0,6.5-24.1,19.6-45l77.6-18.9L518.2,603.5z"/>
	<path class="st8" d="M394.4,656.3c0,0-19.1-29.6-29.7-34.7L69.8,634.8c0,0,16.9-2,29.3-14.3l262.7-22.8c0,0,5.9-9.1,15-3.3
		l21.5,61.3L394.4,656.3z"/>
	<path class="st10" d="M430.9,515.3c0,0-24.7,10.5-39,12.9c0,0-1.2-25.3-3.2-29.2l9.6-4L430.9,515.3z"/>
	<path class="st10" d="M401.8,492l34.2,22.3c0,0,32-7.8,45.4-16.7L443,482.5c0,0-20.9-1.4-26.1-0.4C411.8,483.1,401.8,492,401.8,492
		z"/>
	<path class="st10" d="M377,509.8c0,0,8,18.5,3.6,22.9c-4.4,4.4-38.4,8.8-38.4,8.8l-9.2-7.8c0,0-1.6-13.3-1.6-16.1s2.8-2.8,5.4-3.6
		s27.9-6,32.2-7.6C373.4,504.8,376,507.6,377,509.8z"/>
	<path class="st10" d="M304.3,519.7l16.9,16.9c0,0,1.8,5.8-2.4,7.8s-28.3,9-31,9.6c-2.8,0.6-5.4-0.8-5.8-6.6s-1.2-13.9-1.4-16.7
		s0-3.6,3.8-5.2C288.2,523.9,304.3,519.7,304.3,519.7z"/>
	<path class="st9" d="M39.8,379.2c0,0,23-5,76.3,5.8c53.3,10.7,302.4,94.2,302.4,94.2s-24.7-0.2-19.5,1.4l-13.9,6.4L39.8,379.2z"/>
	<path class="st11" d="M389.9,485.3c1.2,0.4-171.1,49.3-171.1,49.3s-58.1-28.5-64.9-30.9c-6.8-2.4-125.2-57.3-140.8-84.4
		c-15.5-27.1,4-37,29.1-41.8C67.3,372.8,172.2,416.4,389.9,485.3z"/>
	
		<ellipse transform="matrix(0.9761 -0.2173 0.2173 0.9761 -102.6585 138.6061)" class="st10" cx="578.9" cy="536.1" rx="6.8" ry="43.4"/>
	<path class="st8" d="M206.7,535c0,0-64.5,22.8-63.9,37.1c0.7,14.3,177.9-0.7,249.6-37.8S440,477,440,477l-26.7,0.7L206.7,535z"/>
	<path class="st8" d="M509.1,587.2l64.5-16.3l7.2,8.5c0,0-6.5-11.7,0-13.7c0,0,5.2,18.9,11.1,10.4l0,0c-0.4,6.2-4.8,11.4-10.8,12.8
		l-62.8,14.6C518.2,603.5,512.4,592.4,509.1,587.2z"/>
	<path class="st8" d="M491.5,502.5c0,0-3.9,11.7-2,25.4l78.9-13l-2-5.9l-5.2-17.6L491.5,502.5z"/>
	<path class="st8" d="M13.8,595.7l2.6,11.1c0,0,35.8,0.7,52.1-16.9L13.8,595.7z"/>
	<path class="st11" d="M470,639.3L442,618l31.9-6.7l13,26C486.9,637.3,474.6,647.2,470,639.3z"/>
	<path class="st12" d="M491.1,537.3c0,0-288.1,65.9-478.4,44.6c0,0-1.1,23.4,11.7,38.3c0,0,391.2-14.9,478.4-43.6
		C502.8,576.7,496.4,557.5,491.1,537.3z"/>
	<path class="st13" d="M546.5,430.1c0,0-68,126.8,60.3,219l15-9.1c0,0,32.5-125-58.9-215.4L546.5,430.1z"/>
	<path class="st14" d="M576.9,553.9c0,0,25.4-5.2,22.2-24.1c-3.3-18.9-30-9.8-30-9.8S571.7,533.1,576.9,553.9z"/>
	<path class="st14" d="M582.1,526.6L559.9,421c0,0-14.3-7.2-15,9.1c-0.7,16.3,30.6,100.4,30.6,100.4L582.1,526.6z"/>
	<path class="st14" d="M583.1,543.6l22.2,105.6c0,0,14.3,7.2,15-9.1c0.7-16.3-30.6-100.4-30.6-100.4L583.1,543.6z"/>
	<path class="st7" d="M386.5,614c0,0,1.6-6.8-1.4-10.1s-89.5-93.3-89.5-93.3s-6.6-6-12.5-5c-6,1-11.7-0.6-13.1-3.2
		c0,0,17.3-14.5,39-9.6c0,0,0.2,2.4-4.6,3.8c-4.8,1.4,2.4,8.6,8.4,14.3c6,5.8,71.2,74,79.2,81c8,7,14.9,9.9,21.3,9.7
		c0,0,2,3.4-4.2,6.6S391.9,620.4,386.5,614z"/>
	<polygon class="st8" points="413.2,601.7 308.9,492.8 295.3,499.8 399,607.4 	"/>
	<path class="st7" d="M-27.3,602.4l94.5-9.7c2.9-0.3,5-2.9,4.7-5.8l-0.3-3.1l-105,10.8l0.3,3.1C-32.8,600.5-30.2,602.7-27.3,602.4z"
		/>
	<path class="st1" d="M104.7,247.7c0,0-0.4,21.1,19.1,4.4C123.9,252.1,108.3,260.4,104.7,247.7z"/>
	<path class="st1" d="M144.6,252.5c0,0-0.4,21.1,19.1,4.4C163.7,256.8,148.2,265.2,144.6,252.5z"/>
	<path class="st1" d="M104.3,281.6c0,0,17.5-17.1,52.2,2.8C156.5,284.3,129.4,270.8,104.3,281.6z"/>
	<circle class="st1" cx="163" cy="282.8" r="12"/>
	<circle class="st1" cx="96.1" cy="279.6" r="12"/>
	<path class="st3" d="M92.8,336.6c-1.2,0-18.3,11.6-18.3,11.6l23.5,17.1l27.5-14.7L92.8,336.6z"/>
	<polygon class="st3" points="150.6,352.1 162.1,373.2 186.4,366.9 178.5,338.6 	"/>
	<g>
		<path d="M179.9,597.8l5.9-0.5l0.4,3.9l-5.9,0.5l0.7,8l7.4-0.7l0.4,3.9l-11.7,1.1l-2.5-27.2l11.7-1.1l0.4,3.9l-7.4,0.7L179.9,597.8
			z"/>
		<path d="M194.6,584.6c4.2-0.4,6.5,1.9,6.9,6.3l0.1,0.9l-4,0.4l-0.1-1.1c-0.2-1.9-1-2.6-2.4-2.5c-1.4,0.1-2.1,0.9-1.9,2.9
			c0.5,5.6,9,5.9,9.7,13.7c0.4,4.4-1.6,7-5.8,7.4c-4.2,0.4-6.6-1.9-7-6.3l-0.2-1.7l4-0.4l0.2,1.9c0.2,1.9,1.1,2.6,2.5,2.4
			c1.4-0.1,2.2-0.9,2-2.8c-0.5-5.6-9-5.9-9.7-13.7C188.5,587.6,190.4,584.9,194.6,584.6z"/>
		<path d="M216.7,589.7l0.3,3.5c0.4,4.4-1.5,6.9-5.8,7.3l-2,0.2l0.9,10.2l-4.3,0.4l-2.5-27.2l6.3-0.6
			C214,583.1,216.3,585.3,216.7,589.7z M208,587.6l0.8,9.2l2-0.2c1.4-0.1,2-0.8,1.9-2.8l-0.4-4.1c-0.2-1.9-1-2.5-2.3-2.4L208,587.6z
			"/>
		<path d="M234,608.7l-4.3,0.4l-1.2-4.9l-5.2,0.5l-0.3,5l-3.9,0.4l1.9-27.6l6.3-0.6L234,608.7z M223.5,601l4.1-0.4l-3.3-13.6
			L223.5,601z"/>
		<path d="M238.1,588.5l1.8,19.7l-3.8,0.3l-2.5-27.2l5.4-0.5l5.9,15.9l-1.5-16.3l3.8-0.3l2.5,27.2l-4.4,0.4L238.1,588.5z M243,574.9
			l2.2,1.3c-0.6,2-1.7,2.8-3.1,2.9c-1.6,0.1-2.4-0.8-3.6-0.7c-0.7,0.1-1.2,0.3-1.6,1.3l-2.2-1.3c0.6-2,1.7-2.8,3.1-2.9
			c1.6-0.1,2.4,0.8,3.6,0.7C242.2,576.2,242.6,576,243,574.9z"/>
		<path d="M266.5,605.8l-4.3,0.4l-1.2-4.9l-5.2,0.5l-0.3,5l-3.9,0.4l1.9-27.6l6.3-0.6L266.5,605.8z M255.9,598.1l4.1-0.4l-3.3-13.6
			L255.9,598.1z"/>
		<path d="M280.6,604.9c-4.3,0.4-6.9-1.9-7.3-6.2l-0.2-2.1c-0.2-2.6,0.4-4.7,2.1-5.9c-1.9-0.8-2.9-2.6-3.1-5.2l-0.1-0.9
			c-0.4-4.4,1.8-7.1,6.1-7.4c4.3-0.4,6.9,1.9,7.3,6.2l0.1,0.9c0.2,2.7-0.5,4.6-2.1,5.7c2,0.9,2.9,2.8,3.2,5.4l0.2,2.1
			C287.1,601.8,284.9,604.5,280.6,604.9z M276.5,585.8c0.2,2.2,1.3,2.8,2.7,2.7c1.4-0.1,2.3-0.9,2.2-3.1l-0.1-1.5
			c-0.2-2.4-1.3-3-2.7-2.9c-1.4,0.1-2.4,0.9-2.1,3.3L276.5,585.8z M280.3,601c1.4-0.1,2.3-0.9,2.1-3.3l-0.2-2.5
			c-0.2-2.1-1.2-3-2.7-2.9c-1.5,0.1-2.3,1.2-2.1,3.3l0.2,2.5C277.8,600.5,278.9,601.1,280.3,601z"/>
		<path d="M294,579.5c-1.4,0.1-2.1,0.9-2,2.9l0.3,2.9l-4,0.4L288,583c-0.4-4.4,1.6-7,5.8-7.4c4.2-0.4,6.6,1.9,7,6.3
			c0.8,8.6-7.5,12.5-7.1,17c0,0.2,0,0.4,0.1,0.6l8.1-0.7l0.4,3.9l-12.4,1.1l-0.3-3.3c-0.7-8,7.6-10.1,6.9-17.9
			C296.2,580,295.3,579.4,294,579.5z"/>
	</g>
</g>
</svg>
