<?xml version="1.0" encoding="utf-8"?>
<!-- Generator: Adobe Illustrator 18.1.1, SVG Export Plug-In . SVG Version: 6.00 Build 0)  -->
<svg version="1.1" id="Layer_1" xmlns="http://www.w3.org/2000/svg" xmlns:xlink="http://www.w3.org/1999/xlink" x="0px" y="0px"
	 viewBox="0 0 316.2 224.7" enable-background="new 0 0 316.2 224.7" xml:space="preserve">
<rect x="165.8" y="60.9" transform="matrix(-0.5121 0.8589 -0.8589 -0.5121 329.6271 -5.8097)" fill="#999999" width="1.3" height="59.6"/>
<rect x="152.7" y="82.9" transform="matrix(-0.5121 0.8589 -0.8589 -0.5121 328.6844 38.8159)" fill="#999999" width="1.3" height="59.6"/>
<rect x="82.4" y="190.4" transform="matrix(0.8589 0.5121 -0.5121 0.8589 117.3887 -23.6189)" fill="#666666" width="38.3" height="21.7"/>
<rect x="103.1" y="116" transform="matrix(0.8589 0.5121 -0.5121 0.8589 99.4012 -42.0664)" fill="#808080" width="45.8" height="86.7"/>
<rect x="157.8" y="92.4" transform="matrix(0.8589 0.5121 -0.5121 0.8589 71.9255 -70.2447)" fill="#666666" width="11.2" height="6"/>
<rect x="157.9" y="86.6" transform="matrix(0.8589 0.5121 -0.5121 0.8589 70.0875 -72.1621)" fill="#81827D" width="16.2" height="9"/>
<rect x="163.2" y="87.4" transform="matrix(0.8589 0.5121 -0.5121 0.8589 70.6627 -72.7135)" fill="#B3B3B3" width="8.2" height="9"/>
<rect x="144" y="97" transform="matrix(0.8589 0.5121 -0.5121 0.8589 75.344 -66.8066)" fill="#81827D" width="29.8" height="12.8"/>
<rect x="144.5" y="102.1" transform="matrix(0.8589 0.5121 -0.5121 0.8589 75.0702 -67.1881)" fill="#666666" width="30" height="1"/>
<rect x="126.6" y="107.6" transform="matrix(0.8589 0.5121 -0.5121 0.8589 80.7243 -61.386)" fill="#666666" width="50.2" height="16.5"/>
<rect x="80.8" y="202.7" transform="matrix(0.8589 0.5121 -0.5121 0.8589 118.5555 -22.5298)" fill="#4D4D4D" width="38.7" height="2.3"/>
<rect x="80.5" y="203.1" transform="matrix(0.8589 0.5121 -0.5121 0.8589 117.6034 -13.0317)" fill="#4D4D4D" width="4" height="7.7"/>
<rect x="91.6" y="209.7" transform="matrix(0.8589 0.5121 -0.5121 0.8589 122.5886 -17.8107)" fill="#4D4D4D" width="4" height="7.7"/>
<rect x="103.1" y="216.6" transform="matrix(0.8589 0.5121 -0.5121 0.8589 127.7018 -22.7123)" fill="#4D4D4D" width="4" height="7.7"/>
<rect x="103.2" y="155.7" transform="matrix(0.8589 0.5121 -0.5121 0.8589 99.1837 -42.2258)" fill="#999999" width="46" height="6.3"/>
<rect x="133.5" y="72.9" transform="matrix(0.8589 0.5121 -0.5121 0.8589 63.1662 -56.5125)" fill="#999999" width="1.3" height="27"/>
<rect x="185" y="103.6" transform="matrix(0.8589 0.5121 -0.5121 0.8589 86.1752 -78.5695)" fill="#999999" width="1.3" height="27"/>
<rect x="169.8" y="114.8" transform="matrix(0.8589 0.5121 -0.5121 0.8589 86.2153 -77.5041)" fill="#81827D" width="28" height="5.9"/>
<g>
	
		<rect x="185.4" y="140.9" transform="matrix(0.8589 0.5121 -0.5121 0.8589 116.5603 -106.149)" fill="#999999" width="131.1" height="35.2"/>
	
		<rect x="202.2" y="114.3" transform="matrix(0.8589 0.5121 -0.5121 0.8589 89.2712 -88.7737)" fill="#0071BC" width="7" height="6.7"/>
	
		<rect x="210.1" y="119" transform="matrix(0.8589 0.5121 -0.5121 0.8589 92.7865 -92.1435)" fill="#0071BC" width="7" height="6.7"/>
	
		<rect x="218" y="123.7" transform="matrix(0.8589 0.5121 -0.5121 0.8589 96.3018 -95.5133)" fill="#0071BC" width="7" height="6.7"/>
	
		<rect x="225.9" y="128.4" transform="matrix(0.8589 0.5121 -0.5121 0.8589 99.817 -98.8832)" fill="#0071BC" width="7" height="6.7"/>
	
		<rect x="233.7" y="133.1" transform="matrix(0.8589 0.5121 -0.5121 0.8589 103.3323 -102.253)" fill="#0071BC" width="7" height="6.7"/>
	
		<rect x="241.6" y="137.8" transform="matrix(0.8589 0.5121 -0.5121 0.8589 106.8475 -105.6228)" fill="#0071BC" width="7" height="6.7"/>
	
		<rect x="249.5" y="142.5" transform="matrix(0.8589 0.5121 -0.5121 0.8589 110.3628 -108.9926)" fill="#0071BC" width="7" height="6.7"/>
	
		<rect x="257.4" y="147.2" transform="matrix(0.8589 0.5121 -0.5121 0.8589 113.8781 -112.3624)" fill="#0071BC" width="7" height="6.7"/>
	
		<rect x="265.2" y="151.8" transform="matrix(0.8589 0.5121 -0.5121 0.8589 117.3933 -115.7323)" fill="#0071BC" width="7" height="6.7"/>
	
		<rect x="273.1" y="156.5" transform="matrix(0.8589 0.5121 -0.5121 0.8589 120.9086 -119.1021)" fill="#0071BC" width="7" height="6.7"/>
	
		<rect x="281" y="161.2" transform="matrix(0.8589 0.5121 -0.5121 0.8589 124.4239 -122.4719)" fill="#0071BC" width="7" height="6.7"/>
	
		<rect x="288.8" y="165.9" transform="matrix(0.8589 0.5121 -0.5121 0.8589 127.9391 -125.8417)" fill="#0071BC" width="7" height="6.7"/>
	
		<rect x="296.7" y="170.6" transform="matrix(0.8589 0.5121 -0.5121 0.8589 131.4544 -129.2115)" fill="#0071BC" width="7" height="6.7"/>
	
		<rect x="304.6" y="175.3" transform="matrix(0.8589 0.5121 -0.5121 0.8589 134.9697 -132.5814)" fill="#0071BC" width="7" height="6.7"/>
	
		<rect x="198.1" y="121.2" transform="matrix(0.8589 0.5121 -0.5121 0.8589 92.2122 -85.7058)" fill="#0071BC" width="7" height="6.7"/>
	
		<rect x="206" y="125.9" transform="matrix(0.8589 0.5121 -0.5121 0.8589 95.7274 -89.0757)" fill="#0071BC" width="7" height="6.7"/>
	
		<rect x="213.9" y="130.6" transform="matrix(0.8589 0.5121 -0.5121 0.8589 99.2427 -92.4455)" fill="#0071BC" width="7" height="6.7"/>
	
		<rect x="221.8" y="135.2" transform="matrix(0.8589 0.5121 -0.5121 0.8589 102.7579 -95.8153)" fill="#0071BC" width="7" height="6.7"/>
	
		<rect x="229.6" y="139.9" transform="matrix(0.8589 0.5121 -0.5121 0.8589 106.2732 -99.1851)" fill="#0071BC" width="7" height="6.7"/>
	
		<rect x="237.5" y="144.6" transform="matrix(0.8589 0.5121 -0.5121 0.8589 109.7885 -102.5549)" fill="#0071BC" width="7" height="6.7"/>
	
		<rect x="245.4" y="149.3" transform="matrix(0.8589 0.5121 -0.5121 0.8589 113.3037 -105.9248)" fill="#0071BC" width="7" height="6.7"/>
	
		<rect x="253.3" y="154" transform="matrix(0.8589 0.5121 -0.5121 0.8589 116.819 -109.2946)" fill="#0071BC" width="7" height="6.7"/>
	
		<rect x="261.1" y="158.7" transform="matrix(0.8589 0.5121 -0.5121 0.8589 120.3343 -112.6644)" fill="#0071BC" width="7" height="6.7"/>
	
		<rect x="269" y="163.4" transform="matrix(0.8589 0.5121 -0.5121 0.8589 123.8495 -116.0342)" fill="#0071BC" width="7" height="6.7"/>
	
		<rect x="276.9" y="168.1" transform="matrix(0.8589 0.5121 -0.5121 0.8589 127.3648 -119.404)" fill="#0071BC" width="7" height="6.7"/>
	
		<rect x="284.8" y="172.8" transform="matrix(0.8589 0.5121 -0.5121 0.8589 130.8801 -122.7738)" fill="#0071BC" width="7" height="6.7"/>
	
		<rect x="292.6" y="177.5" transform="matrix(0.8589 0.5121 -0.5121 0.8589 134.3953 -126.1437)" fill="#0071BC" width="7" height="6.7"/>
	
		<rect x="300.5" y="182.2" transform="matrix(0.8589 0.5121 -0.5121 0.8589 137.9106 -129.5135)" fill="#0071BC" width="7" height="6.7"/>
	<rect x="194" y="128" transform="matrix(0.8589 0.5121 -0.5121 0.8589 95.1531 -82.638)" fill="#0071BC" width="7" height="6.7"/>
	
		<rect x="201.9" y="132.7" transform="matrix(0.8589 0.5121 -0.5121 0.8589 98.6684 -86.0078)" fill="#0071BC" width="7" height="6.7"/>
	
		<rect x="209.8" y="137.4" transform="matrix(0.8589 0.5121 -0.5121 0.8589 102.1836 -89.3776)" fill="#0071BC" width="7" height="6.7"/>
	
		<rect x="217.7" y="142.1" transform="matrix(0.8589 0.5121 -0.5121 0.8589 105.6989 -92.7474)" fill="#0071BC" width="7" height="6.7"/>
	
		<rect x="225.5" y="146.8" transform="matrix(0.8589 0.5121 -0.5121 0.8589 109.2141 -96.1172)" fill="#0071BC" width="7" height="6.7"/>
	
		<rect x="233.4" y="151.5" transform="matrix(0.8589 0.5121 -0.5121 0.8589 112.7294 -99.4871)" fill="#0071BC" width="7" height="6.7"/>
	
		<rect x="241.3" y="156.2" transform="matrix(0.8589 0.5121 -0.5121 0.8589 116.2447 -102.8569)" fill="#0071BC" width="7" height="6.7"/>
	
		<rect x="249.2" y="160.9" transform="matrix(0.8589 0.5121 -0.5121 0.8589 119.7599 -106.2267)" fill="#0071BC" width="7" height="6.7"/>
	
		<rect x="257" y="165.6" transform="matrix(0.8589 0.5121 -0.5121 0.8589 123.2752 -109.5965)" fill="#0071BC" width="7" height="6.7"/>
	
		<rect x="264.9" y="170.3" transform="matrix(0.8589 0.5121 -0.5121 0.8589 126.7905 -112.9663)" fill="#0071BC" width="7" height="6.7"/>
	
		<rect x="272.8" y="175" transform="matrix(0.8589 0.5121 -0.5121 0.8589 130.3057 -116.3361)" fill="#0071BC" width="7" height="6.7"/>
	
		<rect x="280.7" y="179.7" transform="matrix(0.8589 0.5121 -0.5121 0.8589 133.821 -119.706)" fill="#0071BC" width="7" height="6.7"/>
	
		<rect x="288.5" y="184.4" transform="matrix(0.8589 0.5121 -0.5121 0.8589 137.3363 -123.0758)" fill="#0071BC" width="7" height="6.7"/>
	
		<rect x="296.4" y="189.1" transform="matrix(0.8589 0.5121 -0.5121 0.8589 140.8515 -126.4456)" fill="#0071BC" width="7" height="6.7"/>
	
		<rect x="190" y="134.9" transform="matrix(0.8589 0.5121 -0.5121 0.8589 98.094 -79.5701)" fill="#0071BC" width="7" height="6.7"/>
	
		<rect x="197.8" y="139.6" transform="matrix(0.8589 0.5121 -0.5121 0.8589 101.6093 -82.9399)" fill="#0071BC" width="7" height="6.7"/>
	
		<rect x="205.7" y="144.3" transform="matrix(0.8589 0.5121 -0.5121 0.8589 105.1246 -86.3097)" fill="#0071BC" width="7" height="6.7"/>
	
		<rect x="213.6" y="149" transform="matrix(0.8589 0.5121 -0.5121 0.8589 108.6398 -89.6796)" fill="#0071BC" width="7" height="6.7"/>
	
		<rect x="221.4" y="153.7" transform="matrix(0.8589 0.5121 -0.5121 0.8589 112.1551 -93.0494)" fill="#0071BC" width="7" height="6.7"/>
	
		<rect x="229.3" y="158.4" transform="matrix(0.8589 0.5121 -0.5121 0.8589 115.6703 -96.4192)" fill="#0071BC" width="7" height="6.7"/>
	
		<rect x="237.2" y="163.1" transform="matrix(0.8589 0.5121 -0.5121 0.8589 119.1856 -99.789)" fill="#0071BC" width="7" height="6.7"/>
	
		<rect x="245.1" y="167.8" transform="matrix(0.8589 0.5121 -0.5121 0.8589 122.7009 -103.1588)" fill="#0071BC" width="7" height="6.7"/>
	
		<rect x="252.9" y="172.5" transform="matrix(0.8589 0.5121 -0.5121 0.8589 126.2161 -106.5286)" fill="#0071BC" width="7" height="6.7"/>
	
		<rect x="260.8" y="177.2" transform="matrix(0.8589 0.5121 -0.5121 0.8589 129.7314 -109.8985)" fill="#0071BC" width="7" height="6.7"/>
	
		<rect x="268.7" y="181.9" transform="matrix(0.8589 0.5121 -0.5121 0.8589 133.2467 -113.2683)" fill="#0071BC" width="7" height="6.7"/>
	
		<rect x="276.6" y="186.5" transform="matrix(0.8589 0.5121 -0.5121 0.8589 136.7619 -116.6381)" fill="#0071BC" width="7" height="6.7"/>
	
		<rect x="284.4" y="191.2" transform="matrix(0.8589 0.5121 -0.5121 0.8589 140.2772 -120.0079)" fill="#0071BC" width="7" height="6.7"/>
	
		<rect x="292.3" y="195.9" transform="matrix(0.8589 0.5121 -0.5121 0.8589 143.7924 -123.3777)" fill="#0071BC" width="7" height="6.7"/>
</g>
<rect x="175.3" y="173.1" transform="matrix(0.8589 0.5121 -0.5121 0.8589 123.4846 -98.7589)" fill="#666666" width="131.3" height="3.3"/>
<rect x="189.7" y="118.8" transform="matrix(0.8589 0.5121 -0.5121 0.8589 90.0501 -81.1803)" fill="#666666" width="5.3" height="8"/>
<rect x="171.9" y="108.3" transform="matrix(0.8589 0.5121 -0.5121 0.8589 82.1248 -73.5829)" fill="#666666" width="5.3" height="8"/>
<rect x="120.6" y="85.5" transform="matrix(-0.8589 -0.5121 0.5121 -0.8589 204.9467 233.269)" fill="#81827D" width="28" height="5.9"/>
<g>
	
		<rect x="1.3" y="31.1" transform="matrix(-0.8589 -0.5121 0.5121 -0.8589 99.2942 124.7399)" fill="#999999" width="131.1" height="35.2"/>
	
		<rect x="120.7" y="65.7" transform="matrix(-0.8589 -0.5121 0.5121 -0.8589 195.592 191.9326)" fill="#0071BC" width="7" height="6.7"/>
	
		<rect x="112.9" y="61" transform="matrix(-0.8589 -0.5121 0.5121 -0.8589 183.3608 179.1734)" fill="#0071BC" width="7" height="6.7"/>
	
		<rect x="105" y="56.3" transform="matrix(-0.8589 -0.5121 0.5121 -0.8589 171.1295 166.4142)" fill="#0071BC" width="7" height="6.7"/>
	
		<rect x="97.1" y="51.6" transform="matrix(-0.8589 -0.5121 0.5121 -0.8589 158.8983 153.6551)" fill="#0071BC" width="7" height="6.7"/>
	
		<rect x="89.2" y="46.9" transform="matrix(-0.8589 -0.5121 0.5121 -0.8589 146.6671 140.896)" fill="#0071BC" width="7" height="6.7"/>
	
		<rect x="81.4" y="42.2" transform="matrix(-0.8589 -0.5121 0.5121 -0.8589 134.4359 128.1369)" fill="#0071BC" width="7" height="6.7"/>
	
		<rect x="73.5" y="37.5" transform="matrix(-0.8589 -0.5121 0.5121 -0.8589 122.2046 115.3777)" fill="#0071BC" width="7" height="6.7"/>
	
		<rect x="65.6" y="32.8" transform="matrix(-0.8589 -0.5121 0.5121 -0.8589 109.9734 102.6186)" fill="#0071BC" width="7" height="6.7"/>
	
		<rect x="57.7" y="28.1" transform="matrix(-0.8589 -0.5121 0.5121 -0.8589 97.7422 89.8595)" fill="#0071BC" width="7" height="6.7"/>
	
		<rect x="49.9" y="23.4" transform="matrix(-0.8589 -0.5121 0.5121 -0.8589 85.511 77.1003)" fill="#0071BC" width="7" height="6.7"/>
	
		<rect x="42" y="18.7" transform="matrix(-0.8589 -0.5121 0.5121 -0.8589 73.2798 64.3412)" fill="#0071BC" width="7" height="6.7"/>
	<rect x="34.1" y="14" transform="matrix(-0.8589 -0.5121 0.5121 -0.8589 61.0485 51.582)" fill="#0071BC" width="7" height="6.7"/>
	
		<rect x="26.3" y="9.4" transform="matrix(-0.8589 -0.5121 0.5121 -0.8589 48.8173 38.8229)" fill="#0071BC" width="7" height="6.7"/>
	
		<rect x="18.4" y="4.7" transform="matrix(-0.8589 -0.5121 0.5121 -0.8589 36.5861 26.0638)" fill="#0071BC" width="7" height="6.7"/>
	
		<rect x="116.6" y="72.6" transform="matrix(-0.8589 -0.5121 0.5121 -0.8589 184.4567 202.6071)" fill="#0071BC" width="7" height="6.7"/>
	
		<rect x="108.8" y="67.9" transform="matrix(-0.8589 -0.5121 0.5121 -0.8589 172.2255 189.8479)" fill="#0071BC" width="7" height="6.7"/>
	
		<rect x="100.9" y="63.2" transform="matrix(-0.8589 -0.5121 0.5121 -0.8589 159.9943 177.0888)" fill="#0071BC" width="7" height="6.7"/>
	
		<rect x="93" y="58.5" transform="matrix(-0.8589 -0.5121 0.5121 -0.8589 147.7631 164.3296)" fill="#0071BC" width="7" height="6.7"/>
	
		<rect x="85.1" y="53.8" transform="matrix(-0.8589 -0.5121 0.5121 -0.8589 135.5318 151.5705)" fill="#0071BC" width="7" height="6.7"/>
	
		<rect x="77.3" y="49.1" transform="matrix(-0.8589 -0.5121 0.5121 -0.8589 123.3006 138.8114)" fill="#0071BC" width="7" height="6.7"/>
	
		<rect x="69.4" y="44.4" transform="matrix(-0.8589 -0.5121 0.5121 -0.8589 111.0694 126.0522)" fill="#0071BC" width="7" height="6.7"/>
	
		<rect x="61.5" y="39.7" transform="matrix(-0.8589 -0.5121 0.5121 -0.8589 98.8382 113.2931)" fill="#0071BC" width="7" height="6.7"/>
	<rect x="53.7" y="35" transform="matrix(-0.8589 -0.5121 0.5121 -0.8589 86.607 100.534)" fill="#0071BC" width="7" height="6.7"/>
	
		<rect x="45.8" y="30.3" transform="matrix(-0.8589 -0.5121 0.5121 -0.8589 74.3757 87.7748)" fill="#0071BC" width="7" height="6.7"/>
	
		<rect x="37.9" y="25.6" transform="matrix(-0.8589 -0.5121 0.5121 -0.8589 62.1445 75.0157)" fill="#0071BC" width="7" height="6.7"/>
	
		<rect x="30" y="20.9" transform="matrix(-0.8589 -0.5121 0.5121 -0.8589 49.9133 62.2566)" fill="#0071BC" width="7" height="6.7"/>
	
		<rect x="22.2" y="16.2" transform="matrix(-0.8589 -0.5121 0.5121 -0.8589 37.682 49.4974)" fill="#0071BC" width="7" height="6.7"/>
	
		<rect x="14.3" y="11.5" transform="matrix(-0.8589 -0.5121 0.5121 -0.8589 25.4509 36.7383)" fill="#0071BC" width="7" height="6.7"/>
	
		<rect x="112.5" y="79.4" transform="matrix(-0.8589 -0.5121 0.5121 -0.8589 173.3215 213.2816)" fill="#0071BC" width="7" height="6.7"/>
	
		<rect x="104.7" y="74.7" transform="matrix(-0.8589 -0.5121 0.5121 -0.8589 161.0902 200.5225)" fill="#0071BC" width="7" height="6.7"/>
	
		<rect x="96.8" y="70" transform="matrix(-0.8589 -0.5121 0.5121 -0.8589 148.859 187.7633)" fill="#0071BC" width="7" height="6.7"/>
	
		<rect x="88.9" y="65.3" transform="matrix(-0.8589 -0.5121 0.5121 -0.8589 136.6278 175.0041)" fill="#0071BC" width="7" height="6.7"/>
	
		<rect x="81" y="60.7" transform="matrix(-0.8589 -0.5121 0.5121 -0.8589 124.3966 162.245)" fill="#0071BC" width="7" height="6.7"/>
	
		<rect x="73.2" y="56" transform="matrix(-0.8589 -0.5121 0.5121 -0.8589 112.1654 149.4859)" fill="#0071BC" width="7" height="6.7"/>
	
		<rect x="65.3" y="51.3" transform="matrix(-0.8589 -0.5121 0.5121 -0.8589 99.9341 136.7268)" fill="#0071BC" width="7" height="6.7"/>
	
		<rect x="57.4" y="46.6" transform="matrix(-0.8589 -0.5121 0.5121 -0.8589 87.7029 123.9676)" fill="#0071BC" width="7" height="6.7"/>
	
		<rect x="49.6" y="41.9" transform="matrix(-0.8589 -0.5121 0.5121 -0.8589 75.4717 111.2085)" fill="#0071BC" width="7" height="6.7"/>
	
		<rect x="41.7" y="37.2" transform="matrix(-0.8589 -0.5121 0.5121 -0.8589 63.2405 98.4494)" fill="#0071BC" width="7" height="6.7"/>
	
		<rect x="33.8" y="32.5" transform="matrix(-0.8589 -0.5121 0.5121 -0.8589 51.0092 85.6902)" fill="#0071BC" width="7" height="6.7"/>
	
		<rect x="25.9" y="27.8" transform="matrix(-0.8589 -0.5121 0.5121 -0.8589 38.778 72.9311)" fill="#0071BC" width="7" height="6.7"/>
	
		<rect x="18.1" y="23.1" transform="matrix(-0.8589 -0.5121 0.5121 -0.8589 26.5468 60.1719)" fill="#0071BC" width="7" height="6.7"/>
	
		<rect x="10.2" y="18.4" transform="matrix(-0.8589 -0.5121 0.5121 -0.8589 14.3156 47.4128)" fill="#0071BC" width="7" height="6.7"/>
	
		<rect x="108.4" y="86.3" transform="matrix(-0.8589 -0.5121 0.5121 -0.8589 162.1862 223.9561)" fill="#0071BC" width="7" height="6.7"/>
	
		<rect x="100.6" y="81.6" transform="matrix(-0.8589 -0.5121 0.5121 -0.8589 149.955 211.197)" fill="#0071BC" width="7" height="6.7"/>
	
		<rect x="92.7" y="76.9" transform="matrix(-0.8589 -0.5121 0.5121 -0.8589 137.7238 198.4378)" fill="#0071BC" width="7" height="6.7"/>
	
		<rect x="84.8" y="72.2" transform="matrix(-0.8589 -0.5121 0.5121 -0.8589 125.4926 185.6787)" fill="#0071BC" width="7" height="6.7"/>
	
		<rect x="77" y="67.5" transform="matrix(-0.8589 -0.5121 0.5121 -0.8589 113.2613 172.9195)" fill="#0071BC" width="7" height="6.7"/>
	
		<rect x="69.1" y="62.8" transform="matrix(-0.8589 -0.5121 0.5121 -0.8589 101.0301 160.1604)" fill="#0071BC" width="7" height="6.7"/>
	
		<rect x="61.2" y="58.1" transform="matrix(-0.8589 -0.5121 0.5121 -0.8589 88.7989 147.4013)" fill="#0071BC" width="7" height="6.7"/>
	
		<rect x="53.3" y="53.4" transform="matrix(-0.8589 -0.5121 0.5121 -0.8589 76.5677 134.6421)" fill="#0071BC" width="7" height="6.7"/>
	
		<rect x="45.5" y="48.7" transform="matrix(-0.8589 -0.5121 0.5121 -0.8589 64.3365 121.883)" fill="#0071BC" width="7" height="6.7"/>
	
		<rect x="37.6" y="44.1" transform="matrix(-0.8589 -0.5121 0.5121 -0.8589 52.1052 109.1239)" fill="#0071BC" width="7" height="6.7"/>
	
		<rect x="29.7" y="39.4" transform="matrix(-0.8589 -0.5121 0.5121 -0.8589 39.874 96.3648)" fill="#0071BC" width="7" height="6.7"/>
	
		<rect x="21.8" y="34.7" transform="matrix(-0.8589 -0.5121 0.5121 -0.8589 27.6428 83.6056)" fill="#0071BC" width="7" height="6.7"/>
	<rect x="14" y="30" transform="matrix(-0.8589 -0.5121 0.5121 -0.8589 15.4116 70.8465)" fill="#0071BC" width="7" height="6.7"/>
	
		<rect x="6.1" y="25.3" transform="matrix(-0.8589 -0.5121 0.5121 -0.8589 3.1803 58.0873)" fill="#0071BC" width="7" height="6.7"/>
</g>
<rect x="-8.4" y="63.5" transform="matrix(-0.8589 -0.5121 0.5121 -0.8589 73.0511 150.4779)" fill="#666666" width="131.3" height="3.3"/>
<rect x="123.4" y="79.3" transform="matrix(-0.8589 -0.5121 0.5121 -0.8589 191.6035 219.3499)" fill="#666666" width="5.3" height="8"/>
<rect x="141.1" y="89.9" transform="matrix(-0.8589 -0.5121 0.5121 -0.8589 219.1794 248.116)" fill="#666666" width="5.3" height="8"/>
<path fill="#4D4D4D" d="M111.7,171.2c-0.4-8.4-0.7-16.7-1.1-25.2c3.6-0.2,7.1-0.3,10.7-0.5c1.9,0.7,3.7,1.4,5.5,2.5
	c0.4-0.4,0.9-0.8,1.3-1.3c0.5-0.5,1-1.1,1.5-1.6c3.6-0.2,7.2-0.3,10.9-0.5c0.2,0.1,0.4,0.3,0.6,0.4c0.6,0.3,1.2,0.6,1.8,0.8
	c0.3,0.1,0.4,0.3,0.4,0.6c0,0.8,0.1,1.6,0.1,2.4c0,0.2,0,0.3,0.1,0.6c0.3-0.3,0.6-0.5,0.8-0.8c0.4-0.5,0.9-0.7,1.5-0.7
	c1.1-0.1,1.9,0.9,1.8,2c-0.1,0.8-0.4,1.3-1,1.8c-0.8,0.7-1.7,1.4-2.5,2.2c-0.5,0.5-0.8,1.1-0.7,1.9c0.2,4,0.4,8,0.5,11.9
	c0,0.3-0.1,0.5-0.4,0.7c-0.5,0.3-1,0.7-1.6,1.1c-0.2,0.2-0.6,0.3-0.8,0.3c-3.5,0.2-7,0.3-10.5,0.5c-0.2,0-0.3,0-0.6,0
	c-0.1-2.8-0.2-5.6-0.4-8.5c-0.9,0.4-1.7,0.7-2.4,1c-0.7,0.3-1.3,0.3-1.8-0.2c-0.2-0.2-0.6-0.4-0.9-0.7c0,0.7,0,1.2,0,1.8
	c0.1,1.7,0.1,3.3,0.2,5c0,0.3-0.1,0.5-0.3,0.7c-0.4,0.3-0.8,0.6-1.1,0.9c-0.4,0.3-0.8,0.5-1.3,0.5
	C118.6,170.9,115.1,171.1,111.7,171.2z M138.2,159.4c-0.1,0-0.1,0-0.2,0c-0.2-0.4-0.5-0.7-0.7-1.1c-0.2-0.6-0.2-1.3-0.3-1.9
	c-0.1-0.4-0.1-0.8-0.3-1.2c-0.1-0.2-0.3-0.4-0.6-0.5c-0.7-0.2-1.6,0.7-1.4,1.4c0.2,0.7,0.3,1.4,0.6,2.1c0.6,1.7,1.2,3.4,1.9,5.1
	c0.1,0.4,0.4,0.7,0.6,1.1c0.2,0.3,1.1,0.3,1.3,0c0.2-0.3,0.4-0.7,0.4-1.1c0.2-2,0.9-3.9,2-5.6c0.6-0.9,1.1-1.9,1.7-2.8
	c0.5-0.8,1.2-1.6,1.8-2.3c0.6-0.7,1.3-1.3,1.9-2c0.6-0.7,0.2-1.7-0.8-1.9c-0.3,0-0.6,0-0.9,0.1c-0.8,0.4-1.3,1-1.8,1.7
	c-0.7,1-1.4,2-2.1,3c-1,1.4-1.6,3.1-2.4,4.7C138.7,158.5,138.4,159,138.2,159.4z M133.3,158.3c0,0-0.1,0-0.1,0c0-1-0.1-2-0.1-3
	c-0.1-0.9,0.3-1.5,1.1-2c0.8-0.5,1.5-0.9,2.3-1.4c0.2-0.1,0.3-0.3,0.4-0.4c0.2-0.3,0.1-0.7-0.2-0.9c-0.3-0.2-0.8-0.2-1,0
	c-1,1.2-2.3,1.7-3.9,1.7c-0.6,0-1.1,0.5-1.1,1.1c0,0.2,0,0.3,0,0.5c0,0.1-0.1,0.3-0.2,0.4c-0.8,0.5-1.6,1.1-2.4,1.6
	c-0.9,0.5-1.8,1-2.6,1.6c-0.5,0.3-0.5,1-0.1,1.4c0.4,0.4,0.9,0.4,1.2-0.1c0.9-1.4,2.2-2.4,3.7-3.1c0.6-0.2,0.7-0.2,0.8,0.4
	c0,0.1,0,0.1,0,0.2c0.3,1.8,0.5,3.6,0.3,5.4c-0.1,0.8-0.2,1.7-0.1,2.5c0.1,0.9,0.3,1.8,0.5,2.6c0.1,0.6,1.1,1,1.6,0.7
	c0.5-0.3,0.8-1.1,0.7-1.7c-0.2-0.7-0.5-1.4-0.5-2.1C133.4,161.9,133.4,160.1,133.3,158.3z M143,156.4c0,0-0.1,0-0.1,0
	c-0.4,0.8-0.8,1.5-1.2,2.3c-0.1,0.2-0.2,0.5-0.2,0.8c0.1,3,0.2,5.9,0.4,8.9c0,0.1,0,0.3,0,0.5c0.5-0.3,0.8-0.5,1.2-0.8
	c0.3-0.2,0.4-0.4,0.4-0.7c-0.2-3.6-0.3-7.2-0.5-10.8C143.1,156.6,143,156.5,143,156.4z M122.8,170c0.5-0.3,0.9-0.5,1.2-0.8
	c0.1-0.1,0.3-0.3,0.3-0.5c-0.1-2.4-0.2-4.8-0.3-7.2c0-0.1,0-0.3-0.1-0.4c-0.4-0.4-0.8-0.7-1.3-1.2
	C122.6,163.4,122.7,166.6,122.8,170z M141.3,152.2c0.5-0.6,0.9-1.2,1.4-1.8c0.1-0.1,0.1-0.2,0.1-0.4c0-1.1-0.1-2.1-0.1-3.2
	c0-0.1-0.1-0.3-0.2-0.3c-0.5-0.2-0.9-0.4-1.5-0.6C141.2,148.1,141.3,150.2,141.3,152.2z M127.3,162.1c1.8-0.1,3-1.4,2.4-2.4
	C128.9,160.5,128.1,161.3,127.3,162.1z M126.4,148.6c-0.9-0.8-1.9-0.9-2.8-1.4c0,0,0,0.1-0.1,0.1c0.7,0.7,1.4,1.4,2.1,2.1
	C125.8,149.1,126.1,148.8,126.4,148.6z"/>
</svg>
