<?xml version="1.0" encoding="utf-8"?>
<!-- Generator: Adobe Illustrator 18.1.1, SVG Export Plug-In . SVG Version: 6.00 Build 0)  -->
<svg version="1.1" id="Layer_1" xmlns="http://www.w3.org/2000/svg" xmlns:xlink="http://www.w3.org/1999/xlink" x="0px" y="0px"
	 viewBox="0 0 601.8 112.3" enable-background="new 0 0 601.8 112.3" xml:space="preserve">
<polygon fill="#E91D1F" points="314.9,112.3 305.4,112.3 305.4,47.8 313.3,47.8 "/>
<rect x="411.2" y="47.8" fill="#E91D1F" width="8.7" height="64.5"/>
<rect x="402.9" y="23.8" fill="#E91D1F" width="9.5" height="79.8"/>
<rect x="392" y="16.2" fill="#E91D1F" width="11.2" height="79.8"/>
<rect x="369.5" y="47.8" fill="#E91D1F" width="16.6" height="64.5"/>
<rect x="346.9" y="0" fill="#E91D1F" width="31.5" height="96"/>
<rect x="339" y="47.8" fill="#E91D1F" width="14.5" height="64.5"/>
<rect x="313.3" y="24.2" fill="#E91D1F" width="9.4" height="79.8"/>
<rect x="322" y="16.6" fill="#E91D1F" width="9.1" height="79.8"/>
<rect x="330.7" y="8.9" fill="#E91D1F" width="17.2" height="95.5"/>
<rect x="377.8" y="8.9" fill="#E91D1F" width="15.7" height="95.5"/>
<polygon fill="#F1ED06" points="593.5,38.7 593.4,30.7 593.3,30.7 593.4,23.7 582.8,23.7 582.8,15.7 569.8,15.7 569.8,8.7 
	528.8,8.7 528.8,15.7 512.8,15.7 512.8,23.7 504.8,23.7 504.8,41.7 520.8,41.7 520.8,48.7 543.8,48.7 543.8,55.7 567.8,55.7 
	567.8,63.7 543.8,63.7 543.8,71.7 520.8,71.7 520.8,79.7 502.8,79.7 502.8,95.7 511.8,95.7 511.8,104.7 528.8,104.7 528.8,111.7 
	577.8,111.7 577.8,104.7 585.8,104.7 585.8,95.7 592.8,95.7 592.8,88.5 592.8,80.7 601.8,80.7 601.8,73.5 601.8,63.9 601.8,55.7 
	601.8,48.4 601.8,38.7 "/>
<rect x="313.3" y="31.9" fill="#FFFEFF" width="31.9" height="24.6"/>
<rect x="322" y="24.3" fill="#FFFEFF" width="16.4" height="40.7"/>
<rect x="313.3" y="39.8" fill="#1F408D" width="15.9" height="16.7"/>
<rect x="361.2" y="31.9" fill="#FFFEFF" width="31.9" height="24.6"/>
<rect x="369.9" y="24.3" fill="#FFFEFF" width="16.4" height="40.7"/>
<rect x="361.2" y="39.8" fill="#1F408D" width="15.9" height="16.7"/>
<polygon fill="#F196B1" points="162.2,112.3 152.7,112.3 152.7,47.8 160.7,47.8 "/>
<rect x="258.5" y="47.8" fill="#F196B1" width="8.7" height="64.5"/>
<rect x="250.2" y="23.8" fill="#F196B1" width="9.5" height="79.8"/>
<rect x="239.3" y="16.2" fill="#F196B1" width="11.2" height="79.8"/>
<rect x="216.8" y="47.8" fill="#F196B1" width="16.6" height="64.5"/>
<rect x="194.2" y="0" fill="#F196B1" width="31.5" height="96"/>
<rect x="186.4" y="47.8" fill="#F196B1" width="14.5" height="64.5"/>
<rect x="160.7" y="24.2" fill="#F196B1" width="9.4" height="79.8"/>
<rect x="169.3" y="16.6" fill="#F196B1" width="9.1" height="79.8"/>
<rect x="178" y="8.9" fill="#F196B1" width="17.2" height="95.5"/>
<rect x="225.1" y="8.9" fill="#F196B1" width="15.7" height="95.5"/>
<rect x="160.7" y="31.9" fill="#FFFEFF" width="31.9" height="24.6"/>
<rect x="169.4" y="24.3" fill="#FFFEFF" width="16.4" height="40.7"/>
<rect x="160.7" y="39.8" fill="#1F408D" width="15.9" height="16.7"/>
<rect x="208.5" y="31.9" fill="#FFFEFF" width="31.9" height="24.6"/>
<rect x="217.2" y="24.3" fill="#FFFEFF" width="16.4" height="40.7"/>
<rect x="208.5" y="39.8" fill="#1F408D" width="15.9" height="16.7"/>
<polygon fill="#50B1E5" points="9.5,112.3 0,112.3 0,47.8 8,47.8 "/>
<rect x="105.8" y="47.8" fill="#50B1E5" width="8.7" height="64.5"/>
<rect x="97.5" y="23.8" fill="#50B1E5" width="9.5" height="79.8"/>
<rect x="86.6" y="16.2" fill="#50B1E5" width="11.2" height="79.8"/>
<rect x="64.1" y="47.8" fill="#50B1E5" width="16.6" height="64.5"/>
<rect x="41.5" y="0" fill="#50B1E5" width="31.5" height="96"/>
<rect x="33.7" y="47.8" fill="#50B1E5" width="14.5" height="64.5"/>
<rect x="8" y="24.2" fill="#50B1E5" width="9.4" height="79.8"/>
<rect x="16.6" y="16.6" fill="#50B1E5" width="9.1" height="79.8"/>
<rect x="25.3" y="8.9" fill="#50B1E5" width="17.2" height="95.5"/>
<rect x="72.4" y="8.9" fill="#50B1E5" width="15.7" height="95.5"/>
<rect x="8" y="31.9" fill="#FFFEFF" width="31.9" height="24.6"/>
<rect x="16.7" y="24.3" fill="#FFFEFF" width="16.4" height="40.7"/>
<rect x="8" y="39.8" fill="#1F408D" width="15.9" height="16.7"/>
<rect x="55.8" y="31.9" fill="#FFFEFF" width="31.9" height="24.6"/>
<rect x="64.5" y="24.3" fill="#FFFEFF" width="16.4" height="40.7"/>
<rect x="55.8" y="39.8" fill="#1F408D" width="15.9" height="16.7"/>
</svg>
