<?xml version="1.0" encoding="utf-8"?>
<!-- Generator: Adobe Illustrator 18.1.1, SVG Export Plug-In . SVG Version: 6.00 Build 0)  -->
<svg version="1.1" id="Layer_1" xmlns="http://www.w3.org/2000/svg" xmlns:xlink="http://www.w3.org/1999/xlink" x="0px" y="0px"
	 viewBox="0 0 833.5 404.7" enable-background="new 0 0 833.5 404.7" xml:space="preserve">
<rect x="132.8" y="174" fill="#37372D" width="593.5" height="187.3"/>
<g>
	<path fill="#586266" d="M369.2,250.7c1.2-30.8-6.9-51.3-13.4-62.5c1.6-2.2,2.4-4.1,2.4-4.1c-6.7-11.5-14.5-13.7-15.9-14
		c0,0,0,0,0,0c-4.3-1.3-8.3-2.2-12-2.6l-0.3-4.5l5-0.3l0.5-20.4c0.4-0.6,4.1-6.1,1.8-12.9c-2.4-7.3-6.5-17.4-26.4,0.8
		c-9.4,8.7-1.9,15.9-1.9,15.9c-0.1,4.4,3.7,5.3,3.7,5.3l0.2,16.5c-4.3,0.7-7.8,1.9-10.1,2.8c-0.6,0.2-1.6,0.6-2.9,1.3
		c-0.6,0.3-0.9,0.5-0.9,0.5c0,0,0,0,0,0c-3.4,2-8.1,5.8-12.2,12.9c0,0,0.7,1.7,2.1,3.7c-6.7,10.4-16.4,31.7-15.1,65.3
		c-0.5,0.8-6.6,10.6-1.6,14.1c5.3,3.6,13.8,1.2,13.4-1.6c-0.4-2.8,0.4-3,1.6-5.8c1.2-2.8-4.9-7-4.9-7h0c-0.1-6,0.1-37.3,14.5-58.1
		c0.3,0.1,0.6,0.3,0.9,0.4l3-2.2c0.4,10.7,0.7,26.8,0.9,50.8c-0.1,0-0.1,0.1-0.2,0.1l-3.8,40.1l0.1,0l-4.7,41.4l-0.2,0l-2.8,26.4
		c-1.4,0.2-8.3,3.3-14,5.9c-1.9,0.9-1.2,3.6,0.8,3.6l23.7-0.6c0,0,3.2-4.5-0.4-8.5l5.3-25.9l-0.1,0l8.4-41.8l4.6,0.1l4.9-14.9
		l4.9,15.5h2.9l8.5,42.5l-0.1,0l5.1,25.3c-3.4,4-0.3,8.4-0.3,8.4l23.7,0.6c2.1,0.1,2.7-2.7,0.8-3.6c-5.8-2.6-12.7-5.7-14-5.9l-0.1,0
		l-2.8-25.5l-0.2,0l-5.8-51.1l-0.3,0l-3.5-31.6c0,0-0.5-0.1-1.3-0.3c0.8,0.1,1.3,0.2,1.3,0.3c0.6-25,0.8-41.8,0.8-53l4.2,3.2
		c0.2-0.1,0.4,0,0.6,0c12.7,20.7,12.9,48.9,12.8,55.9h0c0,0-6.1,3.9-4.9,6.7c1.2,2.8,2,2.7,1.6,5.6c-0.4,2.8,8.1,5.2,13.4,1.6
		C375.9,261.4,369.8,251.5,369.2,250.7z"/>
	<path fill="#586266" d="M299,172.3L299,172.3L299,172.3z"/>
</g>
<g>
	<path fill="#586266" d="M560.2,264.1c1.2-30.8-6.9-51.3-13.4-62.5c1.6-2.2,2.4-4.1,2.4-4.1c-6.7-11.5-14.5-13.7-15.9-14
		c0,0,0,0,0,0c-4.3-1.3-8.3-2.2-12-2.6l-0.3-4.5l3.4-0.2c8.7,2.3,12.8-7.2,13.1-8c-0.2,0.5-2.1,4.6-5.8,2.1c-4-2.7,5.8-15.2,0-26.1
		c-5.8-10.9-16.1-1.2-16.1-1.2c-3.3-4.6-9.4-7.4-17-2.1c-7.9,5.5-4,21.6-1.5,27.1s-4.6,6.7-4.6,6.7c6.4,2.4,10-1.7,11.3-3.7
		l0.1,10.4c-4.3,0.7-7.8,1.9-10.1,2.8c-0.6,0.2-1.6,0.6-2.9,1.3c-0.6,0.3-0.9,0.5-0.9,0.5c0,0,0,0,0,0c-3.4,2-8.1,5.8-12.2,12.9
		c0,0,0.7,1.7,2.1,3.7c-6.7,10.4-16.4,31.7-15.1,65.3c-0.5,0.8-6.6,10.6-1.6,14.1c5.3,3.6,13.8,1.2,13.4-1.6
		c-0.4-2.8,0.4-2.7,1.6-5.5c1.2-2.8-4.9-6.7-4.9-6.7h0c-0.1-7,0.1-37.6,14.5-58.5c0.3,0.1,0.6,0.2,0.9,0.3l3-2.3
		c0.4,10.7,0.7,26.8,0.9,50.7c-0.1,0-0.1-0.2-0.2-0.1l-3.8,39.9h0.1l-4.7,41.6l-0.2,0.1l-2.8,26.4c-1.4,0.2-8.3,3.3-14,5.9
		c-1.9,0.9-1.2,3.7,0.8,3.6l23.7-0.6c0,0,3.2-4.5-0.4-8.5l5.3-25.9l-0.1,0l8.4-41.8l4.6,0.1l4.9-15.1l4.9,15.3h2.9l8.5,42.7
		l-0.1,0.1l5.1,25.3c-3.4,4-0.3,8.4-0.3,8.4l23.7,0.6c2.1,0.1,2.7-2.7,0.8-3.6c-5.8-2.6-12.7-5.7-14-5.9l-0.1,0l-2.8-25.5l-0.2,0
		l-5.8-51.1l-0.3,0l-3.5-31.6c0,0-0.5-0.1-1.3-0.3c0.8,0.1,1.3,0.2,1.3,0.3c0.6-25,0.8-41.8,0.8-53l4.2,3.2c0.2-0.1,0.4-0.2,0.6-0.2
		c12.7,20.7,12.9,49.7,12.8,55.7h0c0,0-6.1,4.1-4.9,6.9c1.2,2.8,2,2.8,1.6,5.7c-0.4,2.8,8.1,5.3,13.4,1.6
		C566.8,274.7,560.7,264.9,560.2,264.1z"/>
	<path fill="#586266" d="M489.9,185.7L489.9,185.7L489.9,185.7z"/>
	<path fill="#586266" d="M537.5,168C537.5,167.9,537.5,167.9,537.5,168C537.5,167.9,537.5,167.9,537.5,168z"/>
	<path fill="#586266" d="M537.5,168C537.5,168,537.5,168,537.5,168L537.5,168z"/>
</g>
<path fill="#586266" d="M276.3,265.3c2.3-47.6-17.3-70.7-23.4-76.7c0.5-1.9,0.8-2.8,0.8-2.8c-2.5-0.8-5-1.4-7.3-1.9
	c-3-0.6-5.8-1-8.4-1.2l-0.3-4.2c2.7-0.2,8.2-2.5,8.7-8.5h6.7c0,0,0-8.2,0-22.8s-13.3-20.4-18.7-10.3c0,0-13.9-10.9-18.2,2.7
	c-4.3,13.7-0.6,30.4-0.6,30.4l8.6,0.1l0.1,13.4c-1.5,0.3-2.7,0.6-3.7,0.9c0,0,0,0,0,0c-0.1,0-0.2,0.1-0.3,0.1
	c-5.4,1.5-8.3,3.4-8.3,3.4s0.3,0.1,0.7,0.9c-6.4,6.4-25.5,29.5-23.2,76.4c-0.6,0.9-6.6,10.6-1.6,14.1c5.3,3.6,13.8,1.2,13.4-1.6
	s0.4-2.9,1.6-5.8c1.2-2.8-4.9-7-4.9-7h0c-0.1-7,0.1-41.5,17.5-62.2c0.8,8.8,1.2,22.7,0.3,44.7c0,0-5.1,15.2-5.7,34.7
	c-0.6,19.5-4.3,65.7-4.3,65.7l2.2-0.1l-0.6,5c-1.4,0.2-8.3,3.3-14,5.9c-1.9,0.9-1.2,3.6,0.8,3.6l23.7-0.6c0,0,3.2-4.5-0.4-8.5
	l1.2-5.8l1.1,0l9.1-50.8l2.6-12.9l12,64.9l1.6-0.2l1.1,5.4c-3.4,4-0.3,8.4-0.3,8.4l23.7,0.6c2.1,0.1,2.7-2.7,0.8-3.6
	c-5.8-2.6-12.7-5.7-14-5.9l-0.1,0l-0.7-6.1l3.6-0.4c0,0-5.5-84.5-8.9-98.5c-1.2-0.2-2.5-0.3-3.7-0.4c2.2,0.1,3.7,0.2,3.7,0.4
	c-0.8-13.3-0.9-24.1-0.5-32.7c3.3-1.8,4.4-4.6,4.4-7.3c13.5,20.8,13.7,50.8,13.5,56.8h0c0,0-6.1,4.2-4.9,7c1.2,2.8,2,2.9,1.6,5.7
	c-0.4,2.8,8.1,5.3,13.4,1.6C282.9,275.9,276.8,266.2,276.3,265.3z"/>
<path fill="#586266" d="M641.8,265.3c-2.3-47.6,17.3-70.7,23.4-76.7c-0.5-1.9-0.8-2.8-0.8-2.8c2.5-0.8,5-1.4,7.3-1.9
	c3-0.6,5.8-1,8.4-1.2l0.3-4.2c-2.7-0.2-8.2-2.5-8.7-8.5H664c0,0,0-8.2,0-22.8s13.8-20.4,19.3-10.3c0,0,14.2-10.9,18.5,2.7
	c4.3,13.7,0.7,30.4,0.7,30.4l-8.5,0.1l-0.1,13.4c1.5,0.3,2.7,0.6,3.7,0.9c0,0,0,0,0,0c0.1,0,0.2,0.1,0.3,0.1
	c5.4,1.5,8.3,3.4,8.3,3.4s-0.3,0.1-0.7,0.9c6.4,6.4,25.5,29.5,23.2,76.4c0.6,0.9,6.6,10.6,1.6,14.1c-5.3,3.6-13.8,1.2-13.4-1.6
	s-0.4-2.9-1.6-5.8c-1.2-2.8,4.9-7,4.9-7h0c0.1-7-0.1-41.5-17.5-62.2c-0.8,8.8-1.2,22.7-0.3,44.7c0,0,5.1,15.2,5.7,34.7
	s4.3,65.7,4.3,65.7l-2.2-0.1l0.6,5c1.4,0.2,8.3,3.3,14,5.9c1.9,0.9,1.2,3.6-0.8,3.6l-23.7-0.6c0,0-3.2-4.5,0.4-8.5l-1.2-5.8l-1.1,0
	l-9.1-50.8l-2.6-12.9l-12,64.9l-1.6-0.2l-1.1,5.4c3.4,4,0.3,8.4,0.3,8.4l-23.7,0.6c-2.1,0.1-2.7-2.7-0.8-3.6
	c5.8-2.6,12.7-5.7,14-5.9l0.1,0l0.7-6.1l-3.6-0.4c0,0,5.5-84.5,8.9-98.5c1.2-0.2,2.5-0.3,3.7-0.4c-2.2,0.1-3.7,0.2-3.7,0.4
	c0.8-13.3,0.9-24.1,0.5-32.7c-3.3-1.8-4.4-4.6-4.4-7.3C650.4,229,650.2,259,650.3,265h0c0,0,6.1,4.2,4.9,7c-1.2,2.8-2,2.9-1.6,5.7
	c0.4,2.8-8.1,5.3-13.4,1.6C635.2,275.9,641.3,266.2,641.8,265.3z"/>
<path fill="#586266" d="M442.2,273.8c2.3-46.3-16-69.2-22.7-76c1.1-1.6,2-1.1,2-1.1s-2-1.2-5.6-2.4c0,0,0-0.1,0-0.1
	c0,0-3.2-1.3-8.5-2.2l0.1-6.5c10.7,2.9,16.3-8.7,16.3-8.7s-12.2,10.6-7.3-12.8c4.9-23.4-18.2-17.6-18.2-17.6
	c-1.2-5.8-16.4-15.8-21.9-0.9c-4.3,11.6,4.4,16,8.4,17.4l0.4,15.1c0,6.7,5.9,9.1,8.8,9.2l-0.3,4.1c-2.9,0.2-5.9,0.6-9.1,1.3
	c-2.1,0.4-4.4,1-6.6,1.7c0,0,0.3,0.9,0.8,2.8c-6.1,5.9-25.8,28.8-23.4,76.7c-0.6,0.9-6.6,10.6-1.6,14.1c5.3,3.6,13.8,1.2,13.4-1.6
	c-0.4-2.8,0.4-2.7,1.6-5.5c1.2-2.8-4.9-6.8-4.9-6.8h0c-0.1-7,0-36.2,13.5-57.1c0,2.7,1.1,5.3,4.4,7.1c0.3,8.4,0.2,18.7-0.5,31.4
	c0,0,0,0-0.1,0c0,0-7.2,4.5-9.6,28.8c-2.4,24.3-7.3,34.9-7.3,34.9s5.7,3,15.2,5l-4.3,37.6l-0.1,0c-1.4,0.2-8.3,3.3-14,5.9
	c-1.9,0.9-1.2,3.6,0.8,3.6l23.7-0.6c0,0,3.2-4.4-0.3-8.4l7.3-36.6c4.3,0.1,9,0,14-0.7l7.4,36.8c-3.6,4.1-0.4,8.5-0.4,8.5l23.7,0.6
	c2.1,0.1,2.7-2.7,0.8-3.6c-5.8-2.6-12.7-5.7-14-5.9l-4.5-39.3c4.5-1.4,9.1-3.3,13.9-5.7c0,0-7.7-20.3-7.3-31.2
	c0.4-10.9-10.4-30.2-10.4-30.2s0,0,0,0c-0.8-21.2-0.4-34.5,0.5-43.1c17.3,20.7,17.5,55.3,17.4,62.3h0c0,0-6.1,3.9-4.9,6.8
	c1.2,2.8,2,2.8,1.6,5.6c-0.4,2.8,8.1,5.2,13.4,1.6C448.8,284.5,442.8,274.7,442.2,273.8z"/>
<path fill="#586266" d="M648.4,255.6c1.5-31.3-6.4-52-13.8-64.2c1.4-2.1,2.1-3.7,2.1-3.7c-6.7-11.5-14.6-13.8-15.9-14c0,0,0,0,0,0
	c-4.3-1.3-8.3-2.2-12-2.6l-0.3-4.5l5-0.3l0.5-20.4c0.3-0.5,2.7-4.4,2.4-11.5c-0.6-15.2-20.7-13.8-28-3.2
	c-7.3,10.5-0.9,18.6-0.9,18.6c-0.1,4.4,3.7,5.3,3.7,5.3l0.2,16.5c-4.3,0.7-7.8,1.9-10.1,2.8c-0.6,0.2-1.6,0.6-2.9,1.3
	c-0.6,0.3-0.9,0.5-0.9,0.5s0,0,0,0c-3.4,2-8.1,5.8-12.2,12.9c0,0,0.3,0.6,0.8,1.6c-7.5,12.1-15.9,33-14.3,65.1
	c-0.6,0.9-6.6,10.6-1.6,14.1c5.3,3.6,13.8,1.2,13.4-1.6c-0.4-2.8,0.4-3.1,1.6-5.9c1.2-2.8-4.9-7.1-4.9-7.1h0
	c-0.1-6,0-35.6,13.3-56.4c0.8,0.5,1.7,1,2.6,1.3l2.6-1.9c0,12.8-0.5,32.9-2.5,64c0,0.1,0.8,0.1,2.1-0.1l-10.6,90.5l1.3,0.2l-0.4,3.9
	c-1.4,0.2-8.3,3.3-14,5.9c-1.9,0.9-1.2,3.6,0.8,3.6l23.7-0.6c0,0,3.2-4.5-0.4-8.5l0.6-3.1l2.2,0.3l20.3-79.9l18.6,79.9l2-0.1
	l0.7,3.4c-3.4,4-0.3,8.4-0.3,8.4l23.7,0.6c2.1,0.1,2.7-2.7,0.8-3.6c-5.8-2.6-12.7-5.7-14-5.9l-0.1,0l-0.4-3.2l1.7,0l-13-98.5
	c0,0,0.1,0,0.1,0c0.2-26.2,0-46-0.2-59.6l4.3,3.3c0.2-0.1,0.4-0.4,0.6-0.5c13.5,20.8,13.7,50.7,13.5,56.7h0c0,0-6.1,4.3-4.9,7.1
	c1.2,2.8,2,3,1.6,5.8c-0.4,2.8,8.1,5.3,13.4,1.7C655,266.1,649,256.4,648.4,255.6z M614.1,144.4l0.2-8.6
	C614.5,135.8,614.2,141.7,614.1,144.4z"/>
<path fill="#586266" d="M207,264.1c2.3-47.6-17.3-70.7-23.4-76.7c0.5-1.9,0.8-2.8,0.8-2.8c-2.5-0.8-5-1.4-7.3-1.9
	c-3-0.6-5.8-1-8.4-1.2l-0.3-4.1c2.7-0.2,8.2-2.4,8.7-8.4h7c0,0,0-8.4,0-23s-13.4-20.4-18.9-10.3c0,0-14-10.9-18.3,2.7
	c-4.3,13.7-0.6,30.4-0.6,30.4l8.5,0.1l0.1,13.4c-1.5,0.3-2.7,0.6-3.7,0.9c0,0,0,0,0,0c-0.1,0-0.2,0.1-0.3,0.1
	c-5.4,1.5-8.3,3.4-8.3,3.4s0.3,0.1,0.7,0.9c-6.4,6.4-25.5,29.5-23.2,76.4c-0.6,0.9-6.6,10.6-1.6,14.1c5.3,3.6,13.8,1.2,13.4-1.6
	s0.4-2.8,1.6-5.7c1.2-2.8-4.9-6.9-4.9-6.9h0c-0.1-7,0.1-41.6,17.5-62.3c0.8,8.8,1.2,22.6,0.3,44.6c0,0-5.1,15.2-5.7,34.7
	c-0.6,19.5-4.3,65.7-4.3,65.7l2.2-0.1l-0.6,5c-1.4,0.2-8.3,3.3-14,5.9c-1.9,0.9-1.2,3.6,0.8,3.6l23.7-0.6c0,0,3.2-4.5-0.4-8.5
	l1.2-5.8l1.1,0l9.1-50.8l2.6-12.9l12,64.9l1.6-0.2l1.1,5.4c-3.4,4-0.3,8.4-0.3,8.4l23.7,0.6c2.1,0.1,2.7-2.7,0.8-3.6
	c-5.8-2.6-12.7-5.7-14-5.9l-0.1,0l-0.7-6.1l3.6-0.4c0,0-5.5-84.5-8.9-98.5c-1.2-0.2-2.5-0.3-3.7-0.4c2.2,0.1,3.7,0.2,3.7,0.4
	c-0.8-13.3-0.9-24.1-0.5-32.7c3.3-1.8,4.4-4.5,4.4-7.1c13.5,20.8,13.7,50.9,13.5,56.9h0c0,0-6.1,4.1-4.9,6.9c1.2,2.8,2,2.8,1.6,5.7
	c-0.4,2.8,8.1,5.3,13.4,1.6C213.6,274.7,207.5,264.9,207,264.1z"/>
<path fill="#7F8E8E" d="M321.3,273.8c2.3-47.6-17.3-70.7-23.4-76.7c0.5-1.9,0.8-2.8,0.8-2.8c-2.5-0.8-5-1.4-7.3-1.9
	c-3-0.6-5.8-1-8.4-1.2l-0.3-4c2.7-0.2,8.2-2.2,8.7-8.2h6.7c0,0,0-8.7,0-23.2s-13.3-20.4-18.7-10.3c0,0-13.9-10.9-18.2,2.7
	c-4.3,13.7-0.6,30.4-0.6,30.4l8.6,0.1l0.1,13.4c-1.5,0.3-2.7,0.6-3.7,0.9c0,0,0,0,0,0c-0.1,0-0.2,0.1-0.3,0.1
	c-5.4,1.5-8.3,3.4-8.3,3.4s0.3,0.1,0.7,0.9c-6.4,6.4-25.5,29.5-23.2,76.4c-0.6,0.9-6.6,10.6-1.6,14.1c5.3,3.6,13.8,1.2,13.4-1.6
	c-0.4-2.8,0.4-2.7,1.6-5.5c1.2-2.8-4.9-6.8-4.9-6.8h0c-0.1-7,0.1-41.8,17.5-62.4c0.8,8.8,1.2,22.6,0.3,44.6c0,0-5.1,15.2-5.7,34.6
	c-0.6,19.5-4.3,65.7-4.3,65.7l2.2-0.1l-0.6,5c-1.4,0.2-8.3,3.3-14,5.9c-1.9,0.9-1.2,3.6,0.8,3.6l23.7-0.6c0,0,3.2-4.5-0.4-8.5
	l1.2-5.8l1.1,0l9.1-50.8l2.6-12.9l12,64.9l1.6-0.2l1.1,5.4c-3.4,4-0.3,8.4-0.3,8.4l23.7,0.6c2.1,0.1,2.7-2.7,0.8-3.6
	c-5.8-2.6-12.7-5.7-14-5.9l-0.1,0l-0.7-6.1l3.6-0.4c0,0-5.5-84.5-8.9-98.5c-1.2-0.2-2.5-0.3-3.7-0.4c2.2,0.1,3.7,0.2,3.7,0.4
	c-0.8-13.3-0.9-24.1-0.5-32.7c3.3-1.8,4.4-4.3,4.4-7c13.5,20.8,13.7,50.1,13.5,57.1h0c0,0-6.1,3.9-4.9,6.8c1.2,2.8,2,2.8,1.6,5.6
	c-0.4,2.8,8.1,5.2,13.4,1.6C327.9,284.5,321.8,274.7,321.3,273.8z"/>
<g>
	<path fill="#7F8E8E" d="M617.3,271.3c1.2-30.8-6.9-51.3-13.4-62.5c1.6-2.2,2.4-4.1,2.4-4.1c-6.7-11.5-14.5-13.7-15.9-14
		c0,0,0,0,0,0c-4.3-1.3-8.3-2.2-12-2.6l-0.3-4.5l5-0.3l0.5-20.4c0.4-0.6,4.1-6.1,1.8-12.9c-2.4-7.3-6.5-17.4-26.4,0.8
		c-9.4,8.7-1.9,15.9-1.9,15.9c-0.1,4.4,3.7,5.3,3.7,5.3l0.2,16.5c-4.3,0.7-7.8,1.9-10.1,2.8c-0.6,0.2-1.6,0.6-2.9,1.3
		c-0.6,0.3-0.9,0.5-0.9,0.5c0,0,0,0,0,0c-3.4,2-8.1,5.8-12.2,12.9c0,0,0.7,1.7,2.1,3.7c-6.7,10.4-16.4,31.7-15.1,65.3
		c-0.5,0.8-6.6,10.6-1.6,14.1c5.3,3.6,13.8,1.2,13.4-1.6c-0.4-2.8,0.4-2.8,1.6-5.6c1.2-2.8-4.9-6.9-4.9-6.9h0
		c-0.1-7,0.1-37.4,14.5-58.3c0.3,0.1,0.6,0.2,0.9,0.3l3-2.3c0.4,10.7,0.7,26.8,0.9,50.7c-0.1,0-0.1,0.1-0.2,0.1l-3.8,40.1l0.1,0
		l-4.7,41.4l-0.2,0l-2.8,26.4c-1.4,0.2-8.3,3.3-14,5.9c-1.9,0.9-1.2,3.6,0.8,3.6l23.7-0.6c0,0,3.2-4.5-0.4-8.5l5.3-25.9l-0.1,0
		l8.4-41.8l4.6,0.1l4.9-14.8l4.9,15.6h2.9l8.5,42.3l-0.1-0.1l5.1,25.2c-3.4,4-0.3,8.3-0.3,8.3l23.7,0.6c2.1,0.1,2.7-2.7,0.8-3.5
		c-5.8-2.6-12.7-5.8-14-5.8H603l-2.8-25.6l-0.2,0l-5.8-51.1l-0.3,0l-3.5-31.6c0,0-0.5-0.1-1.3-0.3c0.8,0.1,1.3,0.2,1.3,0.3
		c0.6-25,0.8-41.8,0.8-53l4.2,3.2c0.2-0.1,0.4-0.3,0.6-0.4c12.7,20.7,12.9,49.6,12.8,55.6h0c0,0-6.1,4.2-4.9,7
		c1.2,2.8,2,2.9,1.6,5.7s8.1,5.3,13.4,1.7C624,281.9,617.9,272.2,617.3,271.3z"/>
	<path fill="#7F8E8E" d="M547.1,193L547.1,193L547.1,193z"/>
</g>
<path fill="#7F8E8E" d="M485.5,288.4c2.3-47.6-17.3-70.7-23.4-76.7c0.5-1.9,0.8-2.8,0.8-2.8c-2.5-0.8-5-1.4-7.3-1.9
	c-3-0.6-5.8-1-8.4-1.2l-0.3-4.3c2.7-0.2,8.2-2.5,8.7-8.5h6.5c0,0,0-8.1,0-22.7S448.8,150,443.3,160c0,0-13.9-10.9-18.1,2.7
	c-4.3,13.7-0.6,30.4-0.6,30.4l8.6,0.1l0.2,13.4c-1.5,0.3-2.7,0.6-3.7,0.9c0,0,0,0,0,0c-0.1,0-0.2,0.1-0.3,0.1
	c-5.4,1.5-8.3,3.4-8.3,3.4s0.3,0.1,0.7,0.9c-6.4,6.4-25.5,29.5-23.2,76.4c-0.6,0.9-6.6,10.6-1.6,14.1c5.3,3.6,13.8,1.2,13.4-1.6
	c-0.4-2.8,0.4-3,1.6-5.8c1.2-2.8-4.9-7.1-4.9-7.1h0c-0.1-7,0.1-41.5,17.5-62.1c0.8,8.8,1.2,22.7,0.3,44.7c0,0-5.1,15.2-5.7,34.7
	c-0.6,19.5-4.3,65.7-4.3,65.7l2.2-0.1l-0.6,5c-1.4,0.2-8.3,3.3-14,5.9c-1.9,0.9-1.2,3.6,0.8,3.6l23.7-0.6c0,0,3.2-4.5-0.4-8.5
	l1.2-5.8l1.1,0l9.1-50.8l2.6-12.9l12,64.9l1.6-0.2l1.1,5.4c-3.4,4-0.3,8.4-0.3,8.4l23.7,0.6c2.1,0.1,2.7-2.7,0.8-3.6
	c-5.8-2.6-12.7-5.7-14-5.9l-0.1,0l-0.7-6.1l3.6-0.4c0,0-5.5-84.5-8.9-98.5c-1.2-0.2-2.5-0.3-3.7-0.4c2.2,0.1,3.7,0.2,3.7,0.4
	c-0.8-13.3-0.9-24.1-0.5-32.7c3.3-1.8,4.4-4.6,4.4-7.3c13.5,20.8,13.7,50.8,13.5,56.8h0c0,0-6.1,4.2-4.9,7.1c1.2,2.8,2,2.9,1.6,5.8
	c-0.4,2.8,8.1,5.3,13.4,1.7C492.1,299,486,289.3,485.5,288.4z"/>
<path fill="#7F8E8E" d="M702.5,283.5c2.3-46.3-16-69.2-22.7-76c1.1-1.6,2-1.1,2-1.1s-2-1.2-5.6-2.4c0,0,0-0.1,0-0.1
	c0,0-3.2-1.3-8.5-2.2l0.1-6.5c10.7,2.9,16.3-8.7,16.3-8.7s-12.2,10.6-7.3-12.8s-18.2-17.6-18.2-17.6c-1.2-5.8-16.4-15.8-21.9-0.9
	c-4.3,11.6,4.4,16,8.4,17.4l0.4,15.1c0,6.7,5.9,9.1,8.8,9.2L654,201c-2.9,0.2-5.9,0.6-9.1,1.3c-2.1,0.4-4.4,1-6.6,1.7
	c0,0,0.3,0.9,0.8,2.8c-6.1,5.9-25.8,28.8-23.4,76.7c-0.6,0.9-6.6,10.6-1.6,14.1c5.3,3.6,13.8,1.2,13.4-1.6c-0.4-2.8,0.4-3.1,1.6-5.9
	c1.2-2.8-4.9-7.1-4.9-7.1h0c-0.1-6,0-35.9,13.5-56.7c0,2.7,1.1,5.5,4.4,7.3c0.3,8.4,0.2,18.8-0.5,31.5c0,0,0,0.1-0.1,0.1
	c0,0-7.2,4.5-9.6,28.8c-2.4,24.3-7.3,34.9-7.3,34.9s5.7,3,15.2,5l-4.3,37.6l-0.1,0c-1.4,0.2-8.3,3.3-14,5.9
	c-1.9,0.9-1.2,3.6,0.8,3.6l23.7-0.6c0,0,3.2-4.4-0.3-8.4l7.3-36.6c4.3,0.1,9,0,14-0.7l7.4,36.8c-3.6,4.1-0.4,8.5-0.4,8.5l23.7,0.6
	c2.1,0.1,2.7-2.7,0.8-3.6c-5.8-2.6-12.7-5.7-14-5.9l-4.5-39.3c4.5-1.4,9.1-3.3,13.9-5.7c0,0-7.7-20.3-7.3-31.2
	c0.4-10.9-10.4-30.2-10.4-30.2s0,0,0,0c-0.8-21.2-0.4-34.9,0.5-43.5c17.3,20.7,17.5,55.9,17.4,61.9h0c0,0-6.1,4.3-4.9,7.1
	c1.2,2.8,2,3,1.6,5.8s8.1,5.3,13.4,1.7C709.1,294.1,703,284.4,702.5,283.5z"/>
<path fill="#7F8E8E" d="M397.9,273.8c1.5-31.3-6.4-52-13.8-64.2c1.4-2.1,2.1-3.7,2.1-3.7c-6.7-11.5-14.6-13.8-15.9-14c0,0,0,0,0,0
	c-4.3-1.3-8.3-2.2-12-2.6l-0.3-4.5l5-0.3l0.5-20.4c0.3-0.5,2.7-4.4,2.4-11.5c-0.6-15.2-20.7-13.8-28-3.2
	c-7.3,10.5-0.9,18.6-0.9,18.6c-0.1,4.4,3.7,5.3,3.7,5.3l0.2,16.5c-4.3,0.7-7.8,1.9-10.1,2.8c-0.6,0.2-1.6,0.6-2.9,1.3
	c-0.6,0.3-0.9,0.5-0.9,0.5s0,0,0,0c-3.4,2-8.1,5.8-12.2,12.9c0,0,0.3,0.6,0.8,1.6c-7.5,12.1-15.9,33-14.3,65.1
	c-0.6,0.9-6.6,10.6-1.6,14.1c5.3,3.6,13.8,1.2,13.4-1.6c-0.4-2.8,0.4-2.7,1.6-5.5c1.2-2.8-4.9-6.8-4.9-6.8h0c-0.1-7,0-36,13.3-56.8
	c0.8,0.5,1.7,0.8,2.6,1.1l2.6-2c0,12.8-0.5,32.8-2.5,63.9c0,0.1,0.8,0,2.1-0.1l-10.6,90.5l1.3,0.1l-0.4,3.9c-1.4,0.2-8.3,3.3-14,5.9
	c-1.9,0.9-1.2,3.6,0.8,3.6l23.7-0.6c0,0,3.2-4.5-0.4-8.5l0.6-3.1l2.2,0.3l20.3-79.9l18.6,79.9l2-0.1l0.7,3.4c-3.4,4-0.3,8.4-0.3,8.4
	l23.7,0.6c2.1,0.1,2.7-2.7,0.8-3.6c-5.8-2.6-12.7-5.7-14-5.9l-0.1,0l-0.4-3.2l1.7,0l-13-98.5c0,0,0.1,0,0.1,0
	c0.2-26.2,0-46-0.2-59.6l4.3,3.3c0.2-0.1,0.4,0,0.6-0.1c13.5,20.8,13.7,50.1,13.5,57.1h0c0,0-6.1,3.9-4.9,6.8c1.2,2.8,2,2.8,1.6,5.6
	c-0.4,2.8,8.1,5.2,13.4,1.6C404.5,284.5,398.5,274.7,397.9,273.8z M363.6,162.7l0.2-8.6C364,154,363.7,159.9,363.6,162.7z"/>
<g>
	<path fill="#7F8E8E" d="M246.4,270.1c1.2-30.8-6.9-51.3-13.4-62.5c1.6-2.2,2.4-4.1,2.4-4.1c-6.7-11.5-14.5-13.7-15.9-14
		c0,0,0,0,0,0c-4.3-1.3-8.3-2.2-12-2.6l-0.3-4.5l3.4-0.2c8.7,2.3,12.8-7.2,13.1-8c-0.2,0.5-2.1,4.6-5.8,2.1c-4-2.7,5.8-15.2,0-26.1
		c-5.8-10.9-16.1-1.2-16.1-1.2c-3.3-4.6-9.4-7.4-17-2.1c-7.9,5.5-4,21.6-1.5,27.1s-4.6,6.7-4.6,6.7c6.4,2.4,10-1.7,11.3-3.7
		l0.1,10.4c-4.3,0.7-7.8,1.9-10.1,2.8c-0.6,0.2-1.6,0.6-2.9,1.3c-0.6,0.3-0.9,0.5-0.9,0.5c0,0,0,0,0,0c-3.4,2-8.1,5.8-12.2,12.9
		c0,0,0.7,1.7,2.1,3.7c-6.7,10.4-16.4,31.7-15.1,65.3c-0.5,0.8-6.6,10.6-1.6,14.1c5.3,3.6,13.8,1.2,13.4-1.6
		c-0.4-2.8,0.4-2.7,1.6-5.5c1.2-2.8-4.9-6.8-4.9-6.8h0c-0.1-7,0.1-37.6,14.5-58.4c0.3,0.1,0.6,0.2,0.9,0.3l3-2.3
		c0.4,10.7,0.7,26.8,0.9,50.7c-0.1,0-0.1,0.3-0.2,0.3l-3.8,40.4h0.1l-4.7,41.1l-0.2-0.1l-2.8,26.3c-1.4,0.2-8.3,3.3-14,5.9
		c-1.9,0.9-1.2,3.6,0.8,3.6l23.7-0.6c0,0,3.2-4.5-0.4-8.5l5.3-25.9l-0.1,0l8.4-41.8l4.6,0.1l4.9-15.2l4.9,15.2h2.9l8.5,42.7
		l-0.1,0.1l5.1,25.3c-3.4,4-0.3,8.4-0.3,8.4l23.7,0.6c2.1,0.1,2.7-2.7,0.8-3.6c-5.8-2.6-12.7-5.7-14-5.9l-0.1,0l-2.8-25.5l-0.2,0
		l-5.8-51.1l-0.3,0l-3.5-31.6c0,0-0.5-0.1-1.3-0.3c0.8,0.1,1.3,0.2,1.3,0.3c0.6-25,0.8-41.8,0.8-53l4.2,3.2c0.2-0.1,0.4-0.2,0.6-0.3
		c12.7,20.7,12.9,49.7,12.8,55.7h0c0,0-6.1,4.1-4.9,6.9c1.2,2.8,2,2.9,1.6,5.7c-0.4,2.8,8.1,5.3,13.4,1.6
		C253,280.8,246.9,270.9,246.4,270.1z"/>
	<path fill="#7F8E8E" d="M176.1,191.8L176.1,191.8L176.1,191.8z"/>
	<path fill="#7F8E8E" d="M223.7,174C223.7,174,223.7,174,223.7,174C223.7,174,223.7,174,223.7,174z"/>
	<path fill="#7F8E8E" d="M223.7,174.1C223.7,174,223.7,174,223.7,174.1L223.7,174.1z"/>
</g>
<g>
	<path fill="#7C8284" d="M434.9,272.6c1.2-30.8-6.9-51.3-13.4-62.5c1.6-2.2,2.4-4.1,2.4-4.1c-6.7-11.5-14.5-13.7-15.9-14
		c0,0,0,0,0,0c-4.3-1.3-8.3-2.2-12-2.6l-0.3-4.5l5-0.3l0.5-20.4c0.4-0.6,4.1-6.1,1.8-12.9c-2.4-7.3-6.5-17.4-26.4,0.8
		c-9.4,8.7-1.9,15.9-1.9,15.9c-0.1,4.4,3.7,5.3,3.7,5.3l0.2,16.5c-4.3,0.7-7.8,1.9-10.1,2.8c-0.6,0.2-1.6,0.6-2.9,1.3
		c-0.6,0.3-0.9,0.5-0.9,0.5c0,0,0,0,0,0c-3.4,2-8.1,5.8-12.2,12.9c0,0,0.7,1.7,2.1,3.7c-6.7,10.4-16.4,31.7-15.1,65.3
		c-0.5,0.8-6.6,10.6-1.6,14.1c5.3,3.6,13.8,1.2,13.4-1.6c-0.4-2.8,0.4-2.9,1.6-5.8c1.2-2.8-4.9-7-4.9-7h0c-0.1-6,0.1-37.3,14.5-58.2
		c0.3,0.1,0.6,0.3,0.9,0.4l3-2.3c0.4,10.7,0.7,26.8,0.9,50.8c-0.1,0-0.1,0.1-0.2,0.1l-3.8,40.1l0.1,0l-4.7,41.4l-0.2,0l-2.8,26.4
		c-1.4,0.2-8.3,3.3-14,5.9c-1.9,0.9-1.2,3.6,0.8,3.6l23.7-0.6c0,0,3.2-4.5-0.4-8.5l5.3-25.9l-0.1,0l8.4-41.8l4.6,0.1l4.9-14.9
		l4.9,15.5h2.9l8.5,42.4l-0.1-0.1l5.1,25.3c-3.4,4-0.3,8.4-0.3,8.4l23.7,0.6c2.1,0.1,2.7-2.8,0.8-3.6c-5.8-2.6-12.7-5.7-14-5.9
		l-0.1,0l-2.8-25.5l-0.2,0l-5.8-51.1l-0.3,0l-3.5-31.6c0,0-0.5-0.1-1.3-0.3c0.8,0.1,1.3,0.2,1.3,0.3c0.6-25,0.8-41.8,0.8-53l4.2,3.2
		c0.2-0.1,0.4,0.1,0.6,0c12.7,20.7,12.9,49,12.8,56h0c0,0-6.1,3.8-4.9,6.6c1.2,2.8,2,2.7,1.6,5.6s8.1,5.2,13.4,1.6
		C441.5,283.3,435.4,273.4,434.9,272.6z"/>
	<path fill="#7C8284" d="M364.7,194.2L364.7,194.2L364.7,194.2z"/>
</g>
<g>
	<path fill="#7C8284" d="M670.9,272.6c1.2-30.8-6.9-51.3-13.4-62.5c1.6-2.2,2.4-4.1,2.4-4.1c-6.7-11.5-14.5-13.7-15.9-14
		c0,0,0,0,0,0c-4.3-1.3-8.3-2.2-12-2.6l-0.3-4.5l3.4-0.2c8.7,2.3,12.8-7.2,13.1-8c-0.2,0.5-2.1,4.6-5.8,2.1c-4-2.7,5.8-15.2,0-26.1
		c-5.8-10.9-16.1-1.2-16.1-1.2c-3.3-4.6-9.4-7.4-17-2.1c-7.9,5.5-4,21.6-1.5,27.1c2.4,5.5-4.6,6.7-4.6,6.7c6.4,2.4,10-1.7,11.3-3.7
		l0.1,10.4c-4.3,0.7-7.8,1.9-10.1,2.8c-0.6,0.2-1.6,0.6-2.9,1.3c-0.6,0.3-0.9,0.5-0.9,0.5c0,0,0,0,0,0c-3.4,2-8.1,5.8-12.2,12.9
		c0,0,0.7,1.7,2.1,3.7c-6.7,10.4-16.4,31.7-15.1,65.3c-0.5,0.8-6.6,10.6-1.6,14.1c5.3,3.6,13.8,1.2,13.4-1.6
		c-0.4-2.8,0.4-2.9,1.6-5.8c1.2-2.8-4.9-7-4.9-7h0c-0.1-6,0.1-37.3,14.5-58.2c0.3,0.1,0.6,0.3,0.9,0.4l3-2.3
		c0.4,10.7,0.7,26.8,0.9,50.8c-0.1,0-0.1,0.1-0.2,0.1l-3.8,40.1l0.1,0l-4.7,41.4l-0.2,0l-2.8,26.4c-1.4,0.2-8.3,3.3-14,5.9
		c-1.9,0.9-1.2,3.6,0.8,3.6l23.7-0.6c0,0,3.2-4.5-0.4-8.5l5.3-25.9l-0.1,0l8.4-41.8l4.6,0.1l4.9-14.9l4.9,15.5h2.9l8.5,42.4
		l-0.1-0.1l5.1,25.3c-3.4,4-0.3,8.4-0.3,8.4l23.7,0.6c2.1,0.1,2.7-2.8,0.8-3.6c-5.8-2.6-12.7-5.7-14-5.9l-0.1,0l-2.8-25.5l-0.2,0
		l-5.8-51.1l-0.3,0l-3.5-31.6c0,0-0.5-0.1-1.3-0.3c0.8,0.1,1.3,0.2,1.3,0.3c0.6-25,0.8-41.8,0.8-53l4.2,3.2c0.2-0.1,0.4,0.1,0.6,0
		c12.7,20.7,12.9,49,12.8,56h0c0,0-6.1,3.8-4.9,6.6c1.2,2.8,2,2.7,1.6,5.6s8.1,5.2,13.4,1.6C677.5,283.3,671.4,273.4,670.9,272.6z"
		/>
	<path fill="#7C8284" d="M600.6,194.2L600.6,194.2L600.6,194.2z"/>
	<path fill="#7C8284" d="M648.2,176.5C648.2,176.4,648.2,176.4,648.2,176.5C648.2,176.4,648.2,176.4,648.2,176.5z"/>
	<path fill="#7C8284" d="M648.2,176.5C648.2,176.5,648.2,176.5,648.2,176.5L648.2,176.5z"/>
</g>
<path fill="#7C8284" d="M304.3,286c2.3-47.6-17.3-70.7-23.4-76.7c0.5-1.9,0.8-2.8,0.8-2.8c-2.5-0.8-5-1.4-7.3-1.9
	c-3-0.6-5.8-1-8.4-1.2l-0.3-4.1c2.7-0.2,8.2-2.3,8.7-8.3h6.7c0,0,0-8.5,0-23.1s-13.3-20.4-18.8-10.3c0,0-13.9-10.9-18.2,2.7
	c-4.3,13.7-0.6,30.4-0.6,30.4l8.6,0.1l0.1,13.4c-1.5,0.3-2.7,0.6-3.7,0.9c0,0,0,0,0,0c-0.1,0-0.2,0.1-0.3,0.1
	c-5.4,1.5-8.3,3.4-8.3,3.4s0.3,0.1,0.7,0.9c-6.4,6.4-25.5,29.5-23.2,76.4c-0.6,0.9-6.6,10.6-1.6,14.1c5.3,3.6,13.8,1.2,13.4-1.6
	c-0.4-2.8,0.4-2.8,1.6-5.6c1.2-2.8-4.9-6.8-4.9-6.8h0c-0.1-7,0.1-41.7,17.5-62.3c0.8,8.8,1.2,22.6,0.3,44.6c0,0-5.1,15.2-5.7,34.6
	c-0.6,19.5-4.3,65.7-4.3,65.7l2.2-0.1l-0.6,5c-1.4,0.2-8.3,3.3-14,5.9c-1.9,0.9-1.2,3.6,0.8,3.6l23.7-0.6c0,0,3.2-4.5-0.4-8.5
	l1.2-5.8l1.1,0l9.1-50.8l2.6-12.9l12,64.9l1.6-0.2l1.1,5.4c-3.4,4-0.3,8.4-0.3,8.4l23.7,0.6c2.1,0.1,2.7-2.7,0.8-3.6
	c-5.8-2.6-12.7-5.7-14-5.9l-0.1,0l-0.7-6.1l3.6-0.4c0,0-5.5-84.5-8.9-98.5c-1.2-0.2-2.5-0.3-3.7-0.4c2.2,0.1,3.7,0.2,3.7,0.4
	c-0.8-13.3-0.9-24.1-0.5-32.7c3.3-1.8,4.4-4.4,4.4-7.1c13.5,20.8,13.7,51,13.5,57h0c0,0-6.1,4-4.9,6.8c1.2,2.8,2,2.8,1.6,5.6
	c-0.4,2.8,8.1,5.3,13.4,1.6C310.9,296.6,304.8,286.8,304.3,286z"/>
<path fill="#7C8284" d="M767.6,286c2.3-47.6-17.3-70.7-23.4-76.7c0.5-1.9,0.8-2.8,0.8-2.8c-2.5-0.8-5-1.4-7.3-1.9
	c-3-0.6-5.8-1-8.4-1.2l-0.3-4.1c2.7-0.2,8.2-2.3,8.7-8.3h7.3c0,0,0-8.5,0-23.1s-13.6-20.4-19.1-10.3c0,0-14.1-10.9-18.4,2.7
	c-4.3,13.7-0.7,30.4-0.7,30.4l8.5,0.1l0.1,13.4c-1.5,0.3-2.7,0.6-3.7,0.9c0,0,0,0,0,0c-0.1,0-0.2,0.1-0.3,0.1
	c-5.4,1.5-8.3,3.4-8.3,3.4s0.3,0.1,0.7,0.9c-6.4,6.4-25.5,29.5-23.2,76.4c-0.6,0.9-6.6,10.6-1.6,14.1c5.3,3.6,13.8,1.2,13.4-1.6
	c-0.4-2.8,0.4-2.8,1.6-5.6c1.2-2.8-4.9-6.8-4.9-6.8h0c-0.1-7,0.1-41.7,17.5-62.3c0.8,8.8,1.2,22.6,0.3,44.6c0,0-5.1,15.2-5.7,34.6
	c-0.6,19.5-4.3,65.7-4.3,65.7l2.2-0.1l-0.6,5c-1.4,0.2-8.3,3.3-14,5.9c-1.9,0.9-1.2,3.6,0.8,3.6l23.7-0.6c0,0,3.2-4.5-0.4-8.5
	l1.2-5.8l1.1,0l9.1-50.8l2.6-12.9l12,64.9l1.6-0.2l1.1,5.4c-3.4,4-0.3,8.4-0.3,8.4l23.7,0.6c2.1,0.1,2.7-2.7,0.8-3.6
	c-5.8-2.6-12.7-5.7-14-5.9l-0.1,0l-0.7-6.1l3.6-0.4c0,0-5.5-84.5-8.9-98.5c-1.2-0.2-2.5-0.3-3.7-0.4c2.2,0.1,3.7,0.2,3.7,0.4
	c-0.8-13.3-0.9-24.1-0.5-32.7c3.3-1.8,4.4-4.4,4.4-7.1c13.5,20.8,13.7,51,13.5,57h0c0,0-6.1,4-4.9,6.8c1.2,2.8,2,2.8,1.6,5.6
	c-0.4,2.8,8.1,5.3,13.4,1.6C774.2,296.6,768.2,286.8,767.6,286z"/>
<path fill="#7C8284" d="M552.9,286c2.3-46.3-16-69.2-22.7-76c1.1-1.6,2-1.1,2-1.1s-2-1.2-5.6-2.4c0,0,0-0.1,0-0.1
	c0,0-3.2-1.3-8.5-2.2l0.1-6.5c10.7,2.9,16.3-8.7,16.3-8.7s-12.2,10.6-7.3-12.8s-18.2-17.6-18.2-17.6c-1.2-5.8-16.4-15.8-21.9-0.9
	c-4.3,11.6,4.4,16,8.4,17.4l0.4,15.1c0,6.7,5.9,9.1,8.8,9.2l-0.3,4.1c-2.9,0.2-5.9,0.6-9.1,1.3c-2.1,0.4-4.4,1-6.6,1.7
	c0,0,0.3,0.9,0.8,2.8c-6.1,5.9-25.8,28.8-23.4,76.7c-0.6,0.9-6.6,10.6-1.6,14.1c5.3,3.6,13.8,1.2,13.4-1.6c-0.4-2.8,0.4-2.8,1.6-5.6
	c1.2-2.8-4.9-6.8-4.9-6.8h0c-0.1-6,0-36.2,13.5-57c0,2.7,1.1,5.3,4.4,7.1c0.3,8.4,0.2,18.8-0.5,31.4c0,0,0,0-0.1,0.1
	c0,0-7.2,4.5-9.6,28.8c-2.4,24.3-7.3,34.9-7.3,34.9s5.7,3,15.2,5l-4.3,37.6l-0.1,0c-1.4,0.2-8.3,3.3-14,5.9
	c-1.9,0.9-1.2,3.6,0.8,3.6l23.7-0.6c0,0,3.2-4.4-0.3-8.4l7.3-36.6c4.3,0.1,9,0,14-0.7l7.4,36.8c-3.6,4.1-0.4,8.5-0.4,8.5l23.7,0.6
	c2.1,0.1,2.7-2.7,0.8-3.6c-5.8-2.6-12.7-5.7-14-5.9l-4.5-39.3c4.5-1.4,9.1-3.3,13.9-5.7c0,0-7.7-20.3-7.3-31.2
	c0.4-10.9-10.4-30.2-10.4-30.2s0,0,0,0c-0.8-21.2-0.4-34.6,0.5-43.2c17.3,20.7,17.5,55.2,17.4,62.2h0c0,0-6.1,4-4.9,6.8
	c1.2,2.8,2,2.8,1.6,5.6s8.1,5.3,13.4,1.6C559.5,296.6,553.5,286.8,552.9,286z"/>
<path fill="#7C8284" d="M180.2,273.8c1.5-31.3-6.4-52-13.8-64.2c1.4-2.1,2.1-3.7,2.1-3.7c-6.7-11.5-14.6-13.8-15.9-14c0,0,0,0,0,0
	c-4.3-1.3-8.3-2.2-12-2.6l-0.3-4.5l5-0.3l0.5-20.4c0.3-0.5,2.7-4.4,2.4-11.5c-0.6-15.2-20.7-13.8-28-3.2
	c-7.3,10.5-0.9,18.6-0.9,18.6c-0.1,4.4,3.7,5.3,3.7,5.3l0.2,16.5c-4.3,0.7-7.8,1.9-10.1,2.8c-0.6,0.2-1.6,0.6-2.9,1.3
	c-0.6,0.3-0.9,0.5-0.9,0.5s0,0,0,0c-3.4,2-8.1,5.8-12.2,12.9c0,0,0.3,0.6,0.8,1.6c-7.5,12.1-15.9,33-14.3,65.1
	c-0.6,0.9-6.6,10.6-1.6,14.1c5.3,3.6,13.8,1.2,13.4-1.6c-0.4-2.8,0.4-2.7,1.6-5.5c1.2-2.8-4.9-6.8-4.9-6.8h0c-0.1-7,0-36,13.3-56.8
	c0.8,0.5,1.7,0.8,2.6,1.1l2.6-2c0,12.8-0.5,32.8-2.5,63.9c0,0.1,0.8,0,2.1-0.1l-10.6,90.5l1.3,0.1l-0.4,3.9c-1.4,0.2-8.3,3.3-14,5.9
	c-1.9,0.9-1.2,3.6,0.8,3.6l23.7-0.6c0,0,3.2-4.5-0.4-8.5l0.6-3.1l2.2,0.3l20.3-79.9l18.6,79.9l2-0.1l0.7,3.4c-3.4,4-0.3,8.4-0.3,8.4
	l23.7,0.6c2.1,0.1,2.7-2.7,0.8-3.6c-5.8-2.6-12.7-5.7-14-5.9l-0.1,0l-0.4-3.2l1.7,0l-13-98.5c0,0,0.1,0,0.1,0
	c0.2-26.2,0-46-0.2-59.6l4.3,3.3c0.2-0.1,0.4,0,0.6-0.1c13.5,20.8,13.7,50.1,13.5,57.1h0c0,0-6.1,3.9-4.9,6.8c1.2,2.8,2,2.8,1.6,5.6
	c-0.4,2.8,8.1,5.2,13.4,1.6C186.8,284.5,180.8,274.7,180.2,273.8z M145.9,162.7l0.2-8.6C146.3,154,146,159.9,145.9,162.7z"/>
<polygon fill="#D89F79" points="602.9,311.8 594.1,389.3 604.2,389.7 620,310.6 "/>
<polygon fill="#D89F79" points="634.3,310.6 643.1,388 633,388.5 617.2,309.4 "/>
<path fill="#0071BC" d="M600.1,282.2c0,0-7.2,4.5-9.6,28.8c-2.4,24.3-7.3,34.9-7.3,34.9s31.2,16.6,69.3-2.8c0,0-7.7-20.3-7.3-31.2
	s-10.4-30.2-10.4-30.2S613.4,268.9,600.1,282.2z"/>
<path fill="#D89F79" d="M635.9,222.4c0,0,28.4,21.6,25.2,79.6h-8.5c0,0,2-42.2-18.6-64.9L635.9,222.4z"/>
<path fill="#D89F79" d="M652.6,300c0,0-6.1,4.3-4.9,7.1s2,3,1.6,5.8s8.1,5.1,13.4,1.4s-1.6-14.4-1.6-14.4H652.6z"/>
<polygon points="607,210 607,221.4 615,219.4 615.3,210 "/>
<path fill="#D89F79" d="M735,217.9l-15.5,17.3L707,213l-5.2,4l11.7,30.9c1,2.6,4.3,3.4,6.4,1.4l25-23.8L735,217.9z"/>
<ellipse fill="#D89F79" cx="705.8" cy="212.1" rx="3.4" ry="5.7"/>
<polygon fill="#D89F79" points="787.6,314.3 796.4,391.7 786.3,392.1 770.5,313 "/>
<polygon fill="#D89F79" points="740.4,313 731.6,390.5 741.7,390.9 757.5,311.8 "/>
<path fill="#E22E0B" d="M743,282.6l-12.2,103.8l13.8,1.6l20.3-79.9l18.6,79.9l14.2-0.4l-13.9-105C783.8,282.6,753.5,275.7,743,282.6
	z"/>
<path fill="#FCFCFC" d="M740.9,401"/>
<path fill="#333333" d="M731.6,390.5c-1.4,0.2-8.3,3.3-14,5.9c-1.9,0.9-1.2,3.6,0.8,3.6l23.7-0.6c0,0,3.2-4.5-0.4-8.5L731.6,390.5z"
	/>
<path fill="#333333" d="M796.4,390.9c1.4,0.2,8.3,3.3,14,5.9c1.9,0.9,1.2,3.6-0.8,3.6l-23.7-0.6c0,0-3.2-4.5,0.4-8.5L796.4,390.9z"
	/>
<path fill="#D89F79" d="M794.1,217.9l15.5,17.3l12.5-22.2l5.2,4l-11.7,30.9c-1,2.6-4.3,3.4-6.4,1.4l-25-23.8L794.1,217.9z"/>
<path fill="#0071BC" d="M740.5,210c0,0,17.5-10.5,43.4-2.4c0,0,1.2,27.2,0.8,81.5c-0.3-1.2-45.5,7.7-45.4,6.9
	C744.2,219.4,740.5,210,740.5,210z"/>
<path fill="#D89F79" d="M777.3,169.8l-0.7,30.4l-5,0.3l0.6,8.5c0,0-8.1,7.7-17.6-1l-0.2-19.1c0,0-3.8-0.9-3.7-5.3
	c0.1-4.4,4.5-2.2,4.5-2.2l0.3-12.1L777.3,169.8z"/>
<path fill="#D89F79" d="M754.7,208.3l11.4,9.3l6.1-8.3C772.1,209.3,760.6,208.3,754.7,208.3z"/>
<path fill="#0071BC" d="M744.9,208c0,0-9.3,2.3-16.6,14.9c0,0,4,9,10.9,11.1l8.2-6.2L744.9,208z"/>
<path fill="#0071BC" d="M783.7,207.6c0,0,8.8,1.5,16.1,14.1c0,0-4,9-10.9,11.1l-8.2-6.2L783.7,207.6z"/>
<path d="M755.1,181.4l-0.2,10.2l4.7-0.2l-0.4-15.4c0,0-0.8-6.1,18.1-6.2c0.3,0-0.3,10-0.3,10s2.7-3.9,2.4-11.6
	c-0.6-15.2-20.7-13.8-28-3.2s-0.9,18.6-0.9,18.6S752,180,755.1,181.4z"/>
<path fill="#FCFCFC" d="M709.3,50.8"/>
<ellipse fill="#D89F79" cx="823.4" cy="212.1" rx="3.4" ry="5.7"/>
<rect x="702.4" y="101.8" fill="#EB5E27" width="3.2" height="160.5"/>
<rect x="554.8" y="105.9" fill="#EB5E27" width="3.2" height="160.5"/>
<rect x="824" y="101.8" fill="#EB5E27" width="3.2" height="160.5"/>
<ellipse fill="#D89F79" cx="700.5" cy="213.5" rx="3.9" ry="7.9"/>
<ellipse fill="#D89F79" cx="828.7" cy="213.5" rx="3.9" ry="7.9"/>
<path fill="#FCFCFC" d="M633.8,398.6"/>
<path fill="#333333" d="M643.1,388c1.4,0.2,8.3,3.3,14,5.9c1.9,0.9,1.2,3.6-0.8,3.6l-23.7-0.6c0,0-3.2-4.5,0.4-8.5L643.1,388z"/>
<path fill="#333333" d="M594.1,388.5c-1.4,0.2-8.3,3.3-14,5.9c-1.9,0.9-1.2,3.6,0.8,3.6l23.7-0.6c0,0,3.2-4.5-0.4-8.5L594.1,388.5z"
	/>
<path fill="#D89F79" d="M601,220.2l-27.5,27.1l-12.5-22.2l-5.2,4l11.7,30.9c1,2.6,4.3,3.4,6.4,1.4l25-23.8L601,220.2z"/>
<path fill="#E22E0B" d="M640.3,223.4c0,0-17.5-10.5-43.4-2.4c0,0,6,16.5,3.2,62.4c0.3-1.2,34.7,0.2,34.7-0.6
	C632.4,218.7,640.3,223.4,640.3,223.4z"/>
<path fill="#D89F79" d="M603.5,183.2l0.6,21.5c0,6.7,5.9,9.1,8.8,9.2l0,0l-0.6,8.5c0,0,4.5,7.7,14-1l0.2-19.1c0,0,3.8-0.9,3.7-5.3
	c-0.1-4.4-4.5-2.2-4.5-2.2l-0.3-12.1L603.5,183.2z"/>
<path fill="#D89F79" d="M626.1,221.6l-11.4,9.3l-6.1-8.3C608.7,222.6,620.2,221.6,626.1,221.6z"/>
<ellipse fill="#D89F79" cx="559.8" cy="224.3" rx="3.4" ry="5.7"/>
<ellipse fill="#D89F79" cx="554.5" cy="225.7" rx="3.9" ry="7.9"/>
<path fill="#E11F2A" d="M699.6,148H831V40.2c0,0-64.5-4.3-131-0.2C700,40,699.6,150,699.6,148z"/>
<path fill="#D89F79" d="M43,217.9l-15.5,17.3L15,213l-5.2,4l11.7,30.9c1,2.6,4.3,3.4,6.4,1.4l25-23.8L43,217.9z"/>
<ellipse fill="#D89F79" cx="13.7" cy="212.1" rx="3.4" ry="5.7"/>
<polygon fill="#D89F79" points="95.6,314.3 104.4,391.7 94.3,392.1 78.5,313 "/>
<polygon fill="#D89F79" points="48.4,313 39.6,390.5 49.7,390.9 65.5,311.8 "/>
<path fill="#E22E0B" d="M51,282.6L38.8,386.4l13.8,1.6l20.3-79.9L91.5,388l14.2-0.4l-13.9-105C91.8,282.6,61.5,275.7,51,282.6z"/>
<path fill="#FCFCFC" d="M48.9,401"/>
<path fill="#333333" d="M39.6,390.5c-1.4,0.2-8.3,3.3-14,5.9c-1.9,0.9-1.2,3.6,0.8,3.6l23.7-0.6c0,0,3.2-4.5-0.4-8.5L39.6,390.5z"/>
<path fill="#333333" d="M104.4,390.9c1.4,0.2,8.3,3.3,14,5.9c1.9,0.9,1.2,3.6-0.8,3.6l-23.7-0.6c0,0-3.2-4.5,0.4-8.5L104.4,390.9z"
	/>
<path fill="#D89F79" d="M102.1,217.9l15.5,17.3l12.5-22.2l5.2,4l-11.7,30.9c-1,2.6-4.3,3.4-6.4,1.4l-25-23.8L102.1,217.9z"/>
<path fill="#0071BC" d="M48.4,210c0,0,17.5-10.5,43.4-2.4c0,0,1.2,27.2,0.8,81.5c-0.3-1.2-45.5,7.7-45.4,6.9
	C52.1,219.4,48.4,210,48.4,210z"/>
<path fill="#D89F79" d="M85.3,169.8l-0.7,30.4l-5,0.3l0.6,8.5c0,0-8.1,7.7-17.6-1l-0.2-19.1c0,0-3.8-0.9-3.7-5.3
	c0.1-4.4,4.5-2.2,4.5-2.2l0.3-12.1L85.3,169.8z"/>
<path fill="#D89F79" d="M62.7,208.3l11.4,9.3l6.1-8.3C80.1,209.3,68.6,208.3,62.7,208.3z"/>
<path fill="#0071BC" d="M52.8,208c0,0-9.3,2.3-16.6,14.9c0,0,4,9,10.9,11.1l8.2-6.2L52.8,208z"/>
<path fill="#0071BC" d="M91.7,207.6c0,0,8.8,1.5,16.1,14.1c0,0-4,9-10.9,11.1l-8.2-6.2L91.7,207.6z"/>
<path d="M63,181.4l-0.2,10.2l4.7-0.2L67.1,176c0,0-0.8-6.1,18.1-6.2c0.3,0-0.3,10-0.3,10s3-3.9,2.4-11.6c-0.6-7.9-20.7-13.8-28-3.2
	s-0.9,18.6-0.9,18.6S59.9,180,63,181.4z"/>
<ellipse fill="#D89F79" cx="131.4" cy="212.1" rx="3.4" ry="5.7"/>
<rect x="10.4" y="101.8" fill="#EB5E27" width="3.2" height="160.5"/>
<rect x="132" y="101.8" fill="#EB5E27" width="3.2" height="160.5"/>
<ellipse fill="#D89F79" cx="8.5" cy="213.5" rx="3.9" ry="7.9"/>
<ellipse fill="#D89F79" cx="136.7" cy="213.5" rx="3.9" ry="7.9"/>
<path fill="#E11F2A" d="M4.7,148.5c0,0,69.3,13.4,138.3,0c0,2,0-103.4,0-103.4S75.6,54,5.4,45.1C5.4,45.1,4.7,149.7,4.7,148.5z"/>
<path fill="#D89F79" d="M602.3,219.6c0,0-1.5,11.6,1.8,16.4l24,0.6c0,0,5.8-9.1,6.7-15.8C634.8,220.8,620.5,215,602.3,219.6z"/>
<path fill="#E22E0B" d="M599.5,234.2c0,0-8.2,11.9,1.5,16.7c9.7,4.9,18.5,0,18.5,0L599.5,234.2z"/>
<path d="M607.7,175.2c-3.9,1.5-7,3-7.3,14.9l14.6-0.6l2.1-6.4l0.6,7.6l7.6-0.6l0.4,4.7c0,0,3.6-2.1,4.5,2.5c0.3,3.4-3.7,5-3.7,5
	l-0.2,15.8l6.4,1.8c0,0,6.1-25.8,1.5-35C629.6,175.8,621.2,170,607.7,175.2z"/>
<g>
	<polygon fill="#D89F79" points="216,317.9 224.8,395.3 214.7,395.7 198.9,316.7 	"/>
	<polygon fill="#D89F79" points="184.6,316.7 175.8,394.1 185.9,394.5 201.7,315.5 	"/>
	<path fill="#D89F79" d="M183,228.4c0,0-28.4,22.6-25.2,79.6h8.5c0,0-2-42.2,18.6-64.9L183,228.4z"/>
	<path fill="#D89F79" d="M166.3,307c0,0,6.1,3.8,4.9,6.7s-2,2.7-1.6,5.6s-8.1,5.4-13.4,1.8c-5.3-3.6,1.6-14,1.6-14H166.3z"/>
	<polygon points="212,217 212,227.5 204,225.9 203.6,217 	"/>
	<rect x="260.8" y="112" fill="#EB5E27" width="3.2" height="160.5"/>
	<path fill="#FCFCFC" d="M185.1,404.7"/>
	<path fill="#333333" d="M175.8,394.1c-1.4,0.2-8.3,3.3-14,5.9c-1.9,0.9-1.2,3.6,0.8,3.6l23.7-0.6c0,0,3.2-4.5-0.4-8.5L175.8,394.1z
		"/>
	<path fill="#333333" d="M224.8,394.5c1.4,0.2,8.3,3.3,14,5.9c1.9,0.9,1.2,3.6-0.8,3.6l-23.7-0.6c0,0-3.2-4.5,0.4-8.5L224.8,394.5z"
		/>
	<path fill="#D89F79" d="M217.9,226.3l27.5,27.1l12.5-22.2l5.2,4l-11.7,30.9c-1,2.6-4.3,3.4-6.4,1.4l-25-23.8L217.9,226.3z"/>
	<path fill="#E22E0B" d="M180.2,229.3c0,0,15.8-10.3,41.8-2.2c0,0-6,16.5-3.2,62.4c-0.3-1.2-34.7,0.2-34.7-0.6
		C186.3,231.8,180.2,229.3,180.2,229.3z"/>
	<path fill="#D89F79" d="M215.4,189.3l-0.6,21.5c0,6.7-5.9,9.1-8.8,9.2l0,0l0.6,8.5c0,0-4.5,7.7-14-1l-0.2-19.1c0,0-3.8-0.9-3.7-5.3
		c0.1-4.4,4.5-2.2,4.5-2.2l0.3-12.1L215.4,189.3z"/>
	<path fill="#D89F79" d="M192.8,227.7l11.4,9.3l6.1-8.3C210.2,228.7,198.7,227.7,192.8,227.7z"/>
	<ellipse fill="#D89F79" cx="259.1" cy="230.3" rx="3.4" ry="5.7"/>
	<ellipse fill="#D89F79" cx="264.4" cy="231.8" rx="3.9" ry="7.9"/>
	<path fill="#D89F79" d="M216.6,225.7c0,0,1.5,11.6-1.8,16.4l-24,0.6c0,0-4.2-9.1-5.1-15.8C185.7,226.9,198.4,221.1,216.6,225.7z"/>
	<path fill="#E22E0B" d="M219.4,240.3c0,0,8.2,11.9-1.5,16.7c-9.7,4.9-18.5,0-18.5,0L219.4,240.3z"/>
	<path fill="#0071BC" d="M184.1,288.9c0,0-5.1,15.2-5.7,34.7c-0.6,19.5-4.3,65.7-4.3,65.7l14-0.6l11.6-64.5l12.2,65.7l15.8-1.8
		c0,0-5.5-84.5-8.9-98.5C200.9,287.1,184.1,288.9,184.1,288.9z"/>
	<path d="M194.7,202.7c0,0,2-0.4,1.7-5.6c0,0,4-0.6,2.1-5.2c0,0,6.1,1.2,6.4-2.7c0,0,3,3.6,5.8,0.3c0,0,2.1,3.3,5.2,1.2l-1.2,23.4
		c0,0-1.8,2.4-4.9,4.6l0.9,4.3c0,0,6.1,0,6.7-5.2c0,0,5.2-2.1,2.4-8.2c0,0,6.4-2.4,1.8-7.6c0,0,4.9-3.3,0.9-7.9c0,0,4.3-6.4-2.4-9.4
		c0,0-2.7-8.2-9.7-3.6c0,0-4.6-4-9.4-0.6c0,0-6.1-3.3-8.8,3.3c0,0-5.5-0.9-5.8,7.3c0,0-5.2,3-1.5,10c0,0-4.6,4-0.9,9.1
		c0,0-3.6,3.6-0.3,7.6c0,0-2.4,5.5,2.7,8.5l9.4-2.1c0,0,3.3-2.7,0.3-7c0,0,3.3-4.9-0.9-6.4C195.1,210.8,197.6,207.1,194.7,202.7z"/>
</g>
<path d="M68.8,170.3c0,0,9.3,7.7,17.4,4.3l-0.2-6.1L68.8,170.3z"/>
<polygon points="62.9,191.6 70.6,195.1 72.4,190.8 65.3,187.4 "/>
<path fill="#E11F2A" d="M494,127h131V18.3c0,0-64.3-3.8-130.7,0.2C494.3,18.5,494,128,494,127z"/>
<path fill="#E11F2A" d="M194.8,127H326V18.3c0,0-64.4-3.8-130.8,0.2C195.2,18.5,194.8,128,194.8,127z"/>
<g>
	<g id="KRyJ1s.tif_17_">
		<g>
			<path fill="#F1FFFF" d="M733.6,71.6c0.4,0.1,0.7,0.3,1.1,0.4c0.8,0.5,1.2,1.2,1.3,2.1c0.1,0.9-0.1,1.7-0.5,2.5
				c-0.3,0.6-0.6,1.1-1,1.6c-0.4,0.5-0.9,0.8-1.5,0.9c-0.6,0.1-1-0.3-1.1-0.9c-0.1-0.5,0-0.9,0.2-1.3c0.4-0.7,0.9-1.4,1.7-1.6
				c0.2,0,0.3-0.1,0.5-0.1c0.2,0,0.3-0.1,0.4-0.3c0.2-0.8-0.3-1.6-1.2-1.5c-0.5,0-0.9,0.1-1.4,0.2c-1.8,0.6-3.4,1.7-4.8,3
				c-4.5,4.2-8.1,9-10.6,14.6c-0.9,2-1.6,4-1.9,6.2c-0.3,1.5-0.3,3,0.1,4.5c0.4,1.9,1.6,3.1,3.4,3.9c1.4,0.6,2.9,0.8,4.4,0.7
				c2.5-0.2,4.9-0.9,7.3-1.4c2.8-0.7,5.5-1.4,8.3-2c2.6-0.6,5.3-0.9,7.9-0.7c3.1,0.2,5.9,1.1,8.5,2.9c1.4,1,2.8,2.1,4.1,3.3
				c0.2,0.2,0.4,0.5,0.6,0.7c-0.1,0-0.2-0.1-0.2-0.1c-2.5-1.6-5.2-2.5-8.2-2.5c-1.3,0-2.5,0.2-3.6,1c-0.5,0.4-1,0.9-1.5,1.4
				c0,0,0,0,0,0c-1.1-1.9-2.9-3-5-3.6c-1.5-0.4-3.1-0.4-4.6-0.3c-2.7,0.2-5.3,0.9-8,1.5c-2.4,0.6-4.9,1.1-7.4,1.6
				c-1.9,0.4-3.9,0.3-5.8-0.3c-2.9-1-4.6-3.1-5.2-6.1c-0.1-0.6-0.2-1.2-0.2-1.7c0-0.1,0-0.2-0.1-0.2c0-0.5,0-1,0-1.6
				c0-0.4,0.1-0.8,0.1-1.2c0.3-2.3,0.9-4.5,1.9-6.6c1.8-4.2,4.5-7.9,7.7-11.2c2.1-2.1,4.4-4,7-5.5c1.5-0.8,3-1.5,4.6-1.9
				c0.5-0.1,1.1-0.2,1.6-0.3C732.9,71.6,733.3,71.6,733.6,71.6z"/>
			<path fill="#F1FFFF" d="M735.4,87.8c0.2,0,0.4,0,0.6-0.1c0.5-0.3,1.1-0.5,1.6-0.9c1.1-0.7,2-1.6,2.9-2.5c0.9-1,1.9-1.8,3-2.6
				c1-0.6,2-1,3.2-1c1.5,0.1,2.6,1.3,2.3,2.8c-0.2,1.2-0.7,2.3-1.5,3.2c-0.3,0.3-0.6,0.6-1,0.8c-0.7,0.3-1.3-0.2-1.3-0.9
				c-0.1-1.3,1.1-2.6,2.4-2.7c0.1,0,0.2-0.1,0.2-0.1c0.2-0.5,0.1-1.2-0.7-1.3c-0.7,0-1.2,0.3-1.7,0.7c-1,0.8-1.8,1.6-2.6,2.6
				c-1.8,2.2-3.2,4.7-4.1,7.4c-0.2,0.7-0.3,1.4-0.2,2.1c0.2,1.1,1,1.6,2.1,1.4c1-0.3,1.7-0.8,2.4-1.5c1.6-1.4,2.9-3,4.1-4.7
				c1.2-1.6,2.3-3.2,3.5-4.7c1.2-1.5,2.5-2.8,4-3.9c0.7-0.5,1.5-0.9,2.4-1.1c1-0.2,1.8,0.1,2.3,0.9c0,0.1,0.1,0.1,0.1,0.2
				c0,0,0.1-0.1,0.1-0.1c0.2-0.5,0.6-0.6,1.1-0.6c0.9,0,1.7,0,2.6,0c0.1,0,0.2,0,0.3,0c-0.1,0.2-0.2,0.3-0.2,0.4
				c-2.5,4.3-4.9,8.5-7.4,12.8c-0.1,0.2-0.2,0.5-0.3,0.8c0,0.4,0.2,0.6,0.6,0.4c0.3-0.1,0.5-0.3,0.8-0.4c0.9-0.7,1.7-1.5,2.4-2.3
				c0.7-0.8,1.3-1.6,1.9-2.4c0.2-0.2,0.3-0.3,0.6-0.3c0.3,0,0.5,0,0.8,0c0,0.1-0.1,0.1-0.1,0.2c-1.5,2.2-3.1,4.4-5,6.3
				c-1,0.9-2,1.8-3.2,2.4c-0.6,0.3-1.1,0.4-1.8,0.3c-0.6-0.1-1.1-0.7-1.2-1.4c0-0.4,0-0.9-0.1-1.4c-0.1,0.1-0.1,0.2-0.2,0.2
				c-0.7,0.7-1.4,1.4-2.2,1.9c-0.6,0.3-1.2,0.6-1.8,0.7c-1.4,0.1-2.3-0.7-2.4-2c0-0.8,0.2-1.6,0.4-2.4c0-0.1,0-0.2,0-0.3
				c-0.1,0.1-0.2,0.2-0.3,0.2c-1.1,1-2.2,2-3.3,3c-0.9,0.8-2,1.3-3.3,1.5c-0.6,0.1-1.3,0.1-1.9-0.1c-1.3-0.5-1.9-1.5-2.1-2.7
				c-0.4-1.7,0.1-3.3,0.8-4.8c0.4-0.9,0.9-1.8,1.3-2.7c0-0.1,0.1-0.2,0.2-0.3c-0.5,0.1-0.9,0.2-1.3,0.3c-0.4,0.1-0.6,0.3-0.8,0.6
				c-0.9,1.4-1.7,2.8-2.7,4.2c-1.3,1.8-2.8,3.4-4.7,4.6c-0.8,0.5-1.6,0.9-2.5,1c-1,0.1-2-0.5-2.4-1.4c-0.3-0.8-0.4-1.6-0.3-2.5
				c0.2-2.5,1.2-4.7,2.5-6.7c1.6-2.5,3.5-4.7,5.9-6.4c1-0.7,2-1.3,3.3-1.5c1.9-0.3,3,0.6,3.1,2.5c0,1-0.3,2-0.6,3
				C735.9,86.8,735.7,87.2,735.4,87.8z M749.3,95c0,0.3,0.1,0.5,0.4,0.7c0.3,0.1,0.5,0.1,0.8,0c0.6-0.4,1.2-0.8,1.6-1.3
				c0.6-0.8,1.2-1.6,1.7-2.5c1.7-2.9,3.3-5.7,5-8.6c0.2-0.3,0.1-0.6-0.3-0.7c-0.3-0.1-0.6-0.1-0.9,0.1c-0.6,0.3-1.1,0.6-1.5,1.1
				c-1.2,1.5-2.4,2.9-3.5,4.4c-1.2,1.7-2.3,3.4-3,5.4C749.5,94.1,749.4,94.6,749.3,95z M730.1,86.4c-0.1,0.1-0.1,0.1-0.2,0.2
				c-0.6,0.9-1.2,1.7-1.7,2.6c-0.8,1.3-1.4,2.6-1.8,4.1c-0.1,0.4-0.1,0.9-0.1,1.3c0.1,0.8,0.6,1.2,1.4,1c0.2-0.1,0.4-0.1,0.6-0.3
				c0.7-0.4,1.3-1,1.9-1.6c1.2-1.3,2.1-2.9,3-4.4c0.1-0.1,0.1-0.2,0.1-0.4C732,88.5,730.8,87.8,730.1,86.4z M735.3,84
				c0-0.1,0-0.3,0-0.4c-0.2-1-0.6-1.4-1.7-1.1c-0.2,0-0.3,0.1-0.5,0.2c-0.7,0.5-1.3,1.1-1.6,1.9c-0.3,0.7-0.2,1.4,0.3,2
				c0.5,0.7,1.3,1,2.1,1.1c0.2,0,0.3-0.1,0.3-0.2c0.2-0.5,0.4-0.9,0.6-1.4C735.1,85.5,735.3,84.8,735.3,84z"/>
		</g>
	</g>
	<g id="KRyJ1s.tif_16_">
		<g>
			<path fill="#F1FFFF" d="M811.8,78.8c0.3-0.5,0.5-1,0.7-1.5c0.2-0.5,0.4-1,0.4-1.6c0-0.4-0.2-0.6-0.6-0.4
				c-0.4,0.2-0.7,0.4-1.1,0.6c-1.4,1.1-2.7,2.4-3.9,3.7c-2.5,2.8-4.6,5.9-6.6,9.2c-1.2,2-2.3,4.1-3.5,6.2c-0.1,0.2-0.2,0.4-0.2,0.7
				c0.1-0.1,0.3-0.1,0.4-0.2c0.8-0.6,1.5-1.2,2.3-1.8c3.2-2.9,6.1-6,8.7-9.4c0.3-0.3,0.5-0.6,0.9-0.5c0.2,0,0.4,0,0.6-0.1
				c-0.1,0.2-0.3,0.4-0.4,0.6c-1.7,2.4-3.6,4.5-5.6,6.7c-2.4,2.6-5.1,4.9-8,6.9c-0.1,0.1-0.2,0.1-0.2,0.2c-0.9,1.9-1.7,3.9-2.1,6
				c-0.1,0.4-0.1,0.9,0,1.3c0.1,0.6,0.7,0.9,1.2,0.5c0.5-0.4,1.1-0.9,1.5-1.4c0.8-1,1.5-2.1,2.2-3.2c1.2-1.9,2.4-3.7,3.9-5.4
				c1.3-1.6,2.8-3,4.5-4c0.8-0.5,1.6-0.7,2.5-0.5c0.6,0.1,0.9,0.5,1.2,0.9c0.1,0.1,0.2,0.2,0.3,0.3c0.2-0.3,0.3-0.5,0.4-0.7
				c0.1-0.1,0.2-0.2,0.2-0.2c1.1,0,2.2,0,3.3,0c0,0,0,0,0.1,0c0,0.1-0.1,0.2-0.1,0.3c-1.7,2.9-3.3,5.9-5,8.8c-0.6,1.1-1.3,2.3-2,3.4
				c-0.2,0.3-0.3,0.6-0.4,1c-0.1,0.2-0.1,0.4,0.1,0.6c0.2,0.2,0.4,0.1,0.6-0.1c1-0.6,1.8-1.3,2.4-2.2c0.8-1.1,1.6-2.2,2.3-3.3
				c0.1-0.2,0.2-0.2,0.4-0.2c0.3,0,0.6,0,0.9,0c-0.1,0.2-0.2,0.4-0.3,0.6c-1.4,2.1-2.8,4.2-4.6,6c-1,1-2.2,1.9-3.5,2.5
				c-0.3,0.1-0.7,0.2-1.1,0.2c-0.7,0-1.2-0.4-1.4-1c-0.1-0.5-0.1-1-0.1-1.5c0-0.1,0-0.2,0-0.3c0,0,0,0-0.1,0
				c-0.2,0.2-0.4,0.4-0.6,0.6c-0.8,0.8-1.7,1.5-2.7,2c-0.5,0.2-1,0.4-1.6,0.3c-1-0.2-1.6-0.8-1.7-1.9c0-0.4,0-0.9,0-1.3
				c0-0.1,0-0.2,0-0.4c-0.1,0.1-0.2,0.2-0.3,0.3c-0.8,0.9-1.6,1.8-2.6,2.5c-0.4,0.3-0.9,0.5-1.4,0.7c-1.1,0.4-2-0.1-2.5-1
				c-0.3-0.6-0.4-1.2-0.4-1.8c0-1.4,0.5-2.8,0.9-4.1c0.3-0.8,0.5-1.6,0.8-2.5c-0.2,0-0.3,0.1-0.4,0.1c-0.4,0.1-0.9,0.1-1.3,0.1
				c-0.2,0-0.3,0.1-0.4,0.3c-0.9,1.4-1.7,2.7-2.6,4c-1.3,1.8-2.8,3.3-4.7,4.4c-0.6,0.4-1.3,0.6-2,0.7c-1.4,0.1-2.1-0.8-2.3-1.7
				c-0.2-1-0.1-2,0.1-2.9c0.5-2.1,1.4-4,2.5-5.8c1.2-1.9,2.6-3.8,4.4-5.3c1-0.9,2.2-1.7,3.5-2.1c0.5-0.2,1-0.2,1.5-0.2
				c1,0.1,1.5,0.9,1.7,1.6c0.2,1.1,0.1,2.1-0.3,3.2c-0.3,0.8-0.6,1.6-1,2.5c0,0.1-0.1,0.2-0.1,0.3c0.7,0,1.3-0.1,1.9-0.4
				c0.1,0,0.1-0.2,0.2-0.3c1.8-3.7,3.8-7.2,6.1-10.6c2.8-4.1,6.1-7.9,10-11.1c0.9-0.8,1.9-1.4,3-1.9c0.5-0.3,1.1-0.4,1.7-0.4
				c0.7,0,1.1,0.4,1.2,1.2c0.1,0.9-0.2,1.8-0.6,2.6c-0.4,0.9-0.5,1-1.5,1.1C811.9,78.8,811.8,78.8,811.8,78.8z M801.2,105.1
				c0,0.3,0.4,0.6,0.9,0.4c0.3-0.1,0.5-0.3,0.7-0.4c0.7-0.5,1.2-1.2,1.7-1.9c1.3-1.9,2.5-3.9,3.6-5.9c0.7-1.2,1.4-2.3,2-3.5
				c0.1-0.3,0.2-0.5,0-0.7c-0.2-0.3-0.5-0.3-0.7-0.2c-0.3,0.1-0.7,0.3-0.9,0.5c-0.4,0.3-0.7,0.6-1,0.9c-2.4,2.4-4.2,5.3-5.7,8.3
				C801.4,103.3,801.2,104.1,801.2,105.1z M785.3,96.7c-0.5,0.8-1,1.5-1.5,2.2c-0.8,1.3-1.6,2.7-2,4.2c-0.1,0.5-0.2,1-0.2,1.6
				c0.1,0.7,0.6,1.1,1.3,0.9c0.6-0.1,1.2-0.6,1.6-1c1.5-1.4,2.6-3,3.5-4.8c0-0.1,0.1-0.2,0.1-0.3C787,98.8,785.9,98,785.3,96.7z
				 M790.3,94.1c0-0.2,0-0.3,0-0.5c-0.1-0.7-0.4-1.1-1-1c-0.2,0-0.5,0.1-0.7,0.2c-0.6,0.3-1.2,0.8-1.6,1.4c-1.1,1.7-0.1,3.5,1.7,4.1
				c0.1,0,0.2,0,0.3-0.1c0.2-0.3,0.3-0.6,0.5-0.9C789.9,96.2,790.3,95.2,790.3,94.1z"/>
			<path fill="#F1FFFF" d="M804.6,78.4c-0.9,0.9-1.7,1.8-2.5,2.7c-0.1,0.1-0.2,0.1-0.3,0c-0.5-0.3-1.1-0.6-1.6-1
				c-1.6-1-3.2-2.1-4.9-3.1c-1.3-0.8-2.7-1.3-4.1-1.5c-0.5-0.1-0.9-0.1-1.4,0.1c-0.1,0-0.2,0.1-0.2,0.3c0.1,1.7-0.3,3.3-1,4.8
				c-0.9,2.2-2.2,4-3.9,5.6c-0.7,0.7-1.6,1.1-2.5,1.4c-1.3,0.4-2.3-0.3-2.5-1.6c-0.1-0.9,0.1-1.7,0.4-2.5c1.1-2.7,2.8-4.9,5-6.7
				c0.8-0.6,1.6-1.2,2.4-1.8c0.1,0,0.1-0.1,0.2-0.1c-0.5-0.2-1-0.2-1.5-0.1c-0.7,0.1-1.3,0.4-2,0.8c-2.4,1.3-4.5,3-6.3,5
				c-3.4,3.6-6.4,7.6-8.8,12c-1.3,2.4-2.3,5-2.8,7.7c-0.2,1.1-0.4,2.2-0.1,3.4c0.3,1.2,1,2.1,2.2,2.4c0.8,0.2,1.5,0,2.2-0.3
				c1.2-0.6,2.3-1.4,3.2-2.4c1.8-1.9,3.3-4.1,4.1-6.6c0.3-1,0.6-1.9,0.5-3c-0.1-1-0.6-1.4-1.6-1c-0.7,0.3-1.1,0.8-1.6,1.3
				c-0.9,1.2-1.6,2.6-1.9,4.1c0,0.1-0.1,0.2-0.2,0.3c-1.6,0.8-3,1.9-4.3,3.3c0,0-0.1,0.1-0.2,0.2c0.4-3,1.3-5.8,3.2-8.2
				c1.2-1.4,2.6-2.4,4.4-2.8c0.5-0.1,0.9-0.2,1.4-0.1c0.8,0.2,1.3,0.7,1.5,1.5c0.3,1,0.3,2,0.1,3c-0.4,2.3-1.5,4.4-2.8,6.4
				c-1.6,2.5-3.7,4.6-6.2,6.1c-1.1,0.6-2.3,1-3.5,1c-2,0.1-3.5-0.9-4.5-2.6c-0.9-1.5-1.1-3.1-1-4.8c0.2-2.6,1.1-5.1,2.2-7.4
				c3-6.4,7.3-11.8,12.7-16.3c2.4-1.9,5-3.4,7.9-4.2c1.1-0.3,2.1-0.4,3.2-0.1c0.5,0.1,0.9,0.4,1.3,0.7c0.1,0.1,0.2,0.1,0.4,0.1
				c0.9-0.3,1.7-0.6,2.6-0.8c2.2-0.4,4.3-0.1,6.3,0.9C800.2,75.8,802.3,77.1,804.6,78.4C804.5,78.3,804.5,78.3,804.6,78.4z
				 M788.4,76.1c-0.3,0.2-0.5,0.3-0.7,0.4c-2.8,1.7-4.8,4.1-6.3,7c-0.3,0.7-0.6,1.3-0.7,2.1c-0.1,1,0.6,1.5,1.5,1.1
				c0.4-0.2,0.7-0.4,1-0.6c3-2.3,4.8-5.4,5.2-9.2C788.4,76.6,788.4,76.4,788.4,76.1z"/>
			<path fill="#F1FFFF" d="M821.6,73.6c-0.5,1-1.1,2-1.8,2.8c-2.2,2.8-5,4.9-8.4,6c-1.7,0.6-3.5,0.7-5.3,0.4c0,0-0.1,0-0.1,0
				c-0.1,0-0.2,0-0.3-0.1c0.1-0.1,0.1-0.2,0.2-0.2c0.7-0.9,1.5-1.8,2.2-2.7c0.1-0.1,0.2-0.2,0.3-0.2c2.1,0.2,4.1-0.2,6-1
				c2.7-1.1,5.1-2.8,7.2-5C821.5,73.7,821.6,73.6,821.6,73.6z"/>
		</g>
	</g>
	<path fill="#F1FFFF" d="M773.8,78.5c-0.6,0.4-1.1,0.8-1.6,1.2c-0.6,0.4-1.2,0.9-1.7,1.3c-0.1,0.1-0.3,0.1-0.5,0.1
		c-1.9,0-3.9,0-5.8,0c0,0-0.1,0-0.1,0c0,0,0.1-0.1,0.1-0.1c1.1-0.8,2.1-1.6,3.2-2.3c0.1-0.1,0.3-0.1,0.4-0.1
		C769.7,78.5,771.7,78.5,773.8,78.5z"/>
</g>
<g>
	<g id="KRyJ1s.tif_11_">
		<g>
			<path fill="#F1FFFF" d="M40.4,81c0.4,0.1,0.7,0.3,1.1,0.4c0.8,0.5,1.2,1.2,1.3,2.1c0.1,0.9-0.1,1.7-0.5,2.5
				c-0.3,0.6-0.6,1.1-1,1.6c-0.4,0.5-0.9,0.8-1.5,0.9c-0.6,0.1-1-0.3-1.1-0.9c-0.1-0.5,0-0.9,0.2-1.3c0.4-0.7,0.9-1.4,1.7-1.6
				c0.2,0,0.3-0.1,0.5-0.1c0.2,0,0.3-0.1,0.4-0.3c0.2-0.8-0.3-1.6-1.2-1.5c-0.5,0-0.9,0.1-1.4,0.2c-1.8,0.6-3.4,1.7-4.8,3
				c-4.5,4.2-8.1,9-10.6,14.6c-0.9,2-1.6,4-1.9,6.2c-0.3,1.5-0.3,3,0.1,4.5c0.4,1.9,1.6,3.1,3.4,3.9c1.4,0.6,2.9,0.8,4.4,0.7
				c2.5-0.2,4.9-0.9,7.3-1.4c2.8-0.7,5.5-1.4,8.3-2c2.6-0.6,5.3-0.9,7.9-0.7c3.1,0.2,5.9,1.1,8.5,2.9c1.4,1,2.8,2.1,4.1,3.3
				c0.2,0.2,0.4,0.5,0.6,0.7c-0.1,0-0.2-0.1-0.2-0.1c-2.5-1.6-5.2-2.5-8.2-2.5c-1.3,0-2.5,0.2-3.6,1c-0.5,0.4-1,0.9-1.5,1.4
				c0,0,0,0,0,0c-1.1-1.9-2.9-3-5-3.6c-1.5-0.4-3.1-0.4-4.6-0.3c-2.7,0.2-5.3,0.9-8,1.5c-2.4,0.6-4.9,1.1-7.4,1.6
				c-1.9,0.4-3.9,0.3-5.8-0.3c-2.9-1-4.6-3.1-5.2-6.1c-0.1-0.6-0.2-1.2-0.2-1.7c0-0.1,0-0.2-0.1-0.2c0-0.5,0-1,0-1.6
				c0-0.4,0.1-0.8,0.1-1.2c0.3-2.3,0.9-4.5,1.9-6.6c1.8-4.2,4.5-7.9,7.7-11.2c2.1-2.1,4.4-4,7-5.5c1.5-0.8,3-1.5,4.6-1.9
				c0.5-0.1,1.1-0.2,1.6-0.3C39.7,81,40,81,40.4,81z"/>
			<path fill="#F1FFFF" d="M42.2,97.1c0.2,0,0.4,0,0.6-0.1c0.5-0.3,1.1-0.5,1.6-0.9c1.1-0.7,2-1.6,2.9-2.5c0.9-1,1.9-1.8,3-2.6
				c1-0.6,2-1,3.2-1c1.5,0.1,2.6,1.3,2.3,2.8c-0.2,1.2-0.7,2.3-1.5,3.2c-0.3,0.3-0.6,0.6-1,0.8c-0.7,0.3-1.3-0.2-1.3-0.9
				c-0.1-1.3,1.1-2.6,2.4-2.7c0.1,0,0.2-0.1,0.2-0.1c0.2-0.5,0.1-1.2-0.7-1.3c-0.7,0-1.2,0.3-1.7,0.7c-1,0.8-1.8,1.6-2.6,2.6
				c-1.8,2.2-3.2,4.7-4.1,7.4c-0.2,0.7-0.3,1.4-0.2,2.1c0.2,1.1,1,1.6,2.1,1.4c1-0.3,1.7-0.8,2.4-1.5c1.6-1.4,2.9-3,4.1-4.7
				c1.2-1.6,2.3-3.2,3.5-4.7c1.2-1.5,2.5-2.8,4-3.9c0.7-0.5,1.5-0.9,2.4-1.1c1-0.2,1.8,0.1,2.3,0.9c0,0.1,0.1,0.1,0.1,0.2
				c0,0,0.1-0.1,0.1-0.1c0.2-0.5,0.6-0.6,1.1-0.6c0.9,0,1.7,0,2.6,0c0.1,0,0.2,0,0.3,0c-0.1,0.2-0.2,0.3-0.2,0.4
				c-2.5,4.3-4.9,8.5-7.4,12.8c-0.1,0.2-0.2,0.5-0.3,0.8c0,0.4,0.2,0.6,0.6,0.4c0.3-0.1,0.5-0.3,0.8-0.4c0.9-0.7,1.7-1.5,2.4-2.3
				c0.7-0.8,1.3-1.6,1.9-2.4c0.2-0.2,0.3-0.3,0.6-0.3c0.3,0,0.5,0,0.8,0c0,0.1-0.1,0.1-0.1,0.2c-1.5,2.2-3.1,4.4-5,6.3
				c-1,0.9-2,1.8-3.2,2.4c-0.6,0.3-1.1,0.4-1.8,0.3c-0.6-0.1-1.1-0.7-1.2-1.4c0-0.4,0-0.9-0.1-1.4c-0.1,0.1-0.1,0.2-0.2,0.2
				c-0.7,0.7-1.4,1.4-2.2,1.9c-0.6,0.3-1.2,0.6-1.8,0.7c-1.4,0.1-2.3-0.7-2.4-2c0-0.8,0.2-1.6,0.4-2.4c0-0.1,0-0.2,0-0.3
				c-0.1,0.1-0.2,0.2-0.3,0.2c-1.1,1-2.2,2-3.3,3c-0.9,0.8-2,1.3-3.3,1.5c-0.6,0.1-1.3,0.1-1.9-0.1c-1.3-0.5-1.9-1.5-2.1-2.7
				c-0.4-1.7,0.1-3.3,0.8-4.8c0.4-0.9,0.9-1.8,1.3-2.7c0-0.1,0.1-0.2,0.2-0.3c-0.5,0.1-0.9,0.2-1.3,0.3c-0.4,0.1-0.6,0.3-0.8,0.6
				c-0.9,1.4-1.7,2.8-2.7,4.2c-1.3,1.8-2.8,3.4-4.7,4.6c-0.8,0.5-1.6,0.9-2.5,1c-1,0.1-2-0.5-2.4-1.4c-0.3-0.8-0.4-1.6-0.3-2.5
				c0.2-2.5,1.2-4.7,2.5-6.7c1.6-2.5,3.5-4.7,5.9-6.4c1-0.7,2-1.3,3.3-1.5c1.9-0.3,3,0.6,3.1,2.5c0,1-0.3,2-0.6,3
				C42.6,96.1,42.4,96.6,42.2,97.1z M56,104.4c0,0.3,0.1,0.5,0.4,0.7c0.3,0.1,0.5,0.1,0.8,0c0.6-0.4,1.2-0.8,1.6-1.3
				c0.6-0.8,1.2-1.6,1.7-2.5c1.7-2.9,3.3-5.7,5-8.6c0.2-0.3,0.1-0.6-0.3-0.7c-0.3-0.1-0.6-0.1-0.9,0.1c-0.6,0.3-1.1,0.6-1.5,1.1
				c-1.2,1.5-2.4,2.9-3.5,4.4c-1.2,1.7-2.3,3.4-3,5.4C56.3,103.4,56.2,103.9,56,104.4z M36.9,95.8c-0.1,0.1-0.1,0.1-0.2,0.2
				c-0.6,0.9-1.2,1.7-1.7,2.6c-0.8,1.3-1.4,2.6-1.8,4.1c-0.1,0.4-0.1,0.9-0.1,1.3c0.1,0.8,0.6,1.2,1.4,1c0.2-0.1,0.4-0.1,0.6-0.3
				c0.7-0.4,1.3-1,1.9-1.6c1.2-1.3,2.1-2.9,3-4.4c0.1-0.1,0.1-0.2,0.1-0.4C38.8,97.9,37.6,97.2,36.9,95.8z M42.1,93.4
				c0-0.1,0-0.3,0-0.4c-0.2-1-0.6-1.4-1.7-1.1c-0.2,0-0.3,0.1-0.5,0.2c-0.7,0.5-1.3,1.1-1.6,1.9c-0.3,0.7-0.2,1.4,0.3,2
				c0.5,0.7,1.3,1,2.1,1.1c0.2,0,0.3-0.1,0.3-0.2c0.2-0.5,0.4-0.9,0.6-1.4C41.9,94.8,42.1,94.1,42.1,93.4z"/>
		</g>
	</g>
	<g id="KRyJ1s.tif_10_">
		<g>
			<path fill="#F1FFFF" d="M118.5,88.1c0.3-0.5,0.5-1,0.7-1.5c0.2-0.5,0.4-1,0.4-1.6c0-0.4-0.2-0.6-0.6-0.4
				c-0.4,0.2-0.7,0.4-1.1,0.6c-1.4,1.1-2.7,2.4-3.9,3.7c-2.5,2.8-4.6,5.9-6.6,9.2c-1.2,2-2.3,4.1-3.5,6.2c-0.1,0.2-0.2,0.4-0.2,0.7
				c0.1-0.1,0.3-0.1,0.4-0.2c0.8-0.6,1.5-1.2,2.3-1.8c3.2-2.9,6.1-6,8.7-9.4c0.3-0.3,0.5-0.6,0.9-0.5c0.2,0,0.4,0,0.6-0.1
				c-0.1,0.2-0.3,0.4-0.4,0.6c-1.7,2.4-3.6,4.5-5.6,6.7c-2.4,2.6-5.1,4.9-8,6.9c-0.1,0.1-0.2,0.1-0.2,0.2c-0.9,1.9-1.7,3.9-2.1,6
				c-0.1,0.4-0.1,0.9,0,1.3c0.1,0.6,0.7,0.9,1.2,0.5c0.5-0.4,1.1-0.9,1.5-1.4c0.8-1,1.5-2.1,2.2-3.2c1.2-1.9,2.4-3.7,3.9-5.4
				c1.3-1.6,2.8-3,4.5-4c0.8-0.5,1.6-0.7,2.5-0.5c0.6,0.1,0.9,0.5,1.2,0.9c0.1,0.1,0.2,0.2,0.3,0.3c0.2-0.3,0.3-0.5,0.4-0.7
				c0.1-0.1,0.2-0.2,0.2-0.2c1.1,0,2.2,0,3.3,0c0,0,0,0,0.1,0c0,0.1-0.1,0.2-0.1,0.3c-1.7,2.9-3.3,5.9-5,8.8c-0.6,1.1-1.3,2.3-2,3.4
				c-0.2,0.3-0.3,0.6-0.4,1c-0.1,0.2-0.1,0.4,0.1,0.6c0.2,0.2,0.4,0.1,0.6-0.1c1-0.6,1.8-1.3,2.4-2.2c0.8-1.1,1.6-2.2,2.3-3.3
				c0.1-0.2,0.2-0.2,0.4-0.2c0.3,0,0.6,0,0.9,0c-0.1,0.2-0.2,0.4-0.3,0.6c-1.4,2.1-2.8,4.2-4.6,6c-1,1-2.2,1.9-3.5,2.5
				c-0.3,0.1-0.7,0.2-1.1,0.2c-0.7,0-1.2-0.4-1.4-1c-0.1-0.5-0.1-1-0.1-1.5c0-0.1,0-0.2,0-0.3c0,0,0,0-0.1,0
				c-0.2,0.2-0.4,0.4-0.6,0.6c-0.8,0.8-1.7,1.5-2.7,2c-0.5,0.2-1,0.4-1.6,0.3c-1-0.2-1.6-0.8-1.7-1.9c0-0.4,0-0.9,0-1.3
				c0-0.1,0-0.2,0-0.4c-0.1,0.1-0.2,0.2-0.3,0.3c-0.8,0.9-1.6,1.8-2.6,2.5c-0.4,0.3-0.9,0.5-1.4,0.7c-1.1,0.4-2-0.1-2.5-1
				c-0.3-0.6-0.4-1.2-0.4-1.8c0-1.4,0.5-2.8,0.9-4.1c0.3-0.8,0.5-1.6,0.8-2.5c-0.2,0-0.3,0.1-0.4,0.1c-0.4,0.1-0.9,0.1-1.3,0.1
				c-0.2,0-0.3,0.1-0.4,0.3c-0.9,1.4-1.7,2.7-2.6,4c-1.3,1.8-2.8,3.3-4.7,4.4c-0.6,0.4-1.3,0.6-2,0.7c-1.4,0.1-2.1-0.8-2.3-1.7
				c-0.2-1-0.1-2,0.1-2.9c0.5-2.1,1.4-4,2.5-5.8c1.2-1.9,2.6-3.8,4.4-5.3c1-0.9,2.2-1.7,3.5-2.1c0.5-0.2,1-0.2,1.5-0.2
				c1,0.1,1.5,0.9,1.7,1.6c0.2,1.1,0.1,2.1-0.3,3.2c-0.3,0.8-0.6,1.6-1,2.5c0,0.1-0.1,0.2-0.1,0.3c0.7,0,1.3-0.1,1.9-0.4
				c0.1,0,0.1-0.2,0.2-0.3c1.8-3.7,3.8-7.2,6.1-10.6c2.8-4.1,6.1-7.9,10-11.1c0.9-0.8,1.9-1.4,3-1.9c0.5-0.3,1.1-0.4,1.7-0.4
				c0.7,0,1.1,0.4,1.2,1.2c0.1,0.9-0.2,1.8-0.6,2.6c-0.4,0.9-0.5,1-1.5,1.1C118.7,88.1,118.6,88.1,118.5,88.1z M107.9,114.4
				c0,0.3,0.4,0.6,0.9,0.4c0.3-0.1,0.5-0.3,0.7-0.4c0.7-0.5,1.2-1.2,1.7-1.9c1.3-1.9,2.5-3.9,3.6-5.9c0.7-1.2,1.4-2.3,2-3.5
				c0.1-0.3,0.2-0.5,0-0.7c-0.2-0.3-0.5-0.3-0.7-0.2c-0.3,0.1-0.7,0.3-0.9,0.5c-0.4,0.3-0.7,0.6-1,0.9c-2.4,2.4-4.2,5.3-5.7,8.3
				C108.2,112.6,108,113.4,107.9,114.4z M92,106c-0.5,0.8-1,1.5-1.5,2.2c-0.8,1.3-1.6,2.7-2,4.2c-0.1,0.5-0.2,1-0.2,1.6
				c0.1,0.7,0.6,1.1,1.3,0.9c0.6-0.1,1.2-0.6,1.6-1c1.5-1.4,2.6-3,3.5-4.8c0-0.1,0.1-0.2,0.1-0.3C93.8,108.1,92.7,107.3,92,106z
				 M97,103.4c0-0.2,0-0.3,0-0.5c-0.1-0.7-0.4-1.1-1-1c-0.2,0-0.5,0.1-0.7,0.2c-0.6,0.3-1.2,0.8-1.6,1.4c-1.1,1.7-0.1,3.5,1.7,4.1
				c0.1,0,0.2,0,0.3-0.1c0.2-0.3,0.3-0.6,0.5-0.9C96.6,105.6,97.1,104.6,97,103.4z"/>
			<path fill="#F1FFFF" d="M111.3,87.7c-0.9,0.9-1.7,1.8-2.5,2.7c-0.1,0.1-0.2,0.1-0.3,0c-0.5-0.3-1.1-0.6-1.6-1
				c-1.6-1-3.2-2.1-4.9-3.1c-1.3-0.8-2.7-1.3-4.1-1.5c-0.5-0.1-0.9-0.1-1.4,0.1c-0.1,0-0.2,0.1-0.2,0.3c0.1,1.7-0.3,3.3-1,4.8
				c-0.9,2.2-2.2,4-3.9,5.6c-0.7,0.7-1.6,1.1-2.5,1.4c-1.3,0.4-2.3-0.3-2.5-1.6c-0.1-0.9,0.1-1.7,0.4-2.5c1.1-2.7,2.8-4.9,5-6.7
				c0.8-0.6,1.6-1.2,2.4-1.8c0.1,0,0.1-0.1,0.2-0.1c-0.5-0.2-1-0.2-1.5-0.1c-0.7,0.1-1.3,0.4-2,0.8c-2.4,1.3-4.5,3-6.3,5
				c-3.4,3.6-6.4,7.6-8.8,12c-1.3,2.4-2.3,5-2.8,7.7c-0.2,1.1-0.4,2.2-0.1,3.4c0.3,1.2,1,2.1,2.2,2.4c0.8,0.2,1.5,0,2.2-0.3
				c1.2-0.6,2.3-1.4,3.2-2.4c1.8-1.9,3.3-4.1,4.1-6.6c0.3-1,0.6-1.9,0.5-3c-0.1-1-0.6-1.4-1.6-1c-0.7,0.3-1.1,0.8-1.6,1.3
				c-0.9,1.2-1.6,2.6-1.9,4.1c0,0.1-0.1,0.2-0.2,0.3c-1.6,0.8-3,1.9-4.3,3.3c0,0-0.1,0.1-0.2,0.2c0.4-3,1.3-5.8,3.2-8.2
				c1.2-1.4,2.6-2.4,4.4-2.8c0.5-0.1,0.9-0.2,1.4-0.1c0.8,0.2,1.3,0.7,1.5,1.5c0.3,1,0.3,2,0.1,3c-0.4,2.3-1.5,4.4-2.8,6.4
				c-1.6,2.5-3.7,4.6-6.2,6.1c-1.1,0.6-2.3,1-3.5,1c-2,0.1-3.5-0.9-4.5-2.6c-0.9-1.5-1.1-3.1-1-4.8c0.2-2.6,1.1-5.1,2.2-7.4
				c3-6.4,7.3-11.8,12.7-16.3c2.4-1.9,5-3.4,7.9-4.2c1.1-0.3,2.1-0.4,3.2-0.1c0.5,0.1,0.9,0.4,1.3,0.7c0.1,0.1,0.2,0.1,0.4,0.1
				c0.9-0.3,1.7-0.6,2.6-0.8c2.2-0.4,4.3-0.1,6.3,0.9C106.9,85.1,109.1,86.4,111.3,87.7C111.3,87.6,111.3,87.7,111.3,87.7z
				 M95.2,85.4c-0.3,0.2-0.5,0.3-0.7,0.4c-2.8,1.7-4.8,4.1-6.3,7c-0.3,0.7-0.6,1.3-0.7,2.1c-0.1,1,0.6,1.5,1.5,1.1
				c0.4-0.2,0.7-0.4,1-0.6c3-2.3,4.8-5.4,5.2-9.2C95.2,86,95.2,85.7,95.2,85.4z"/>
			<path fill="#F1FFFF" d="M128.4,82.9c-0.5,1-1.1,2-1.8,2.8c-2.2,2.8-5,4.9-8.4,6c-1.7,0.6-3.5,0.7-5.3,0.4c0,0-0.1,0-0.1,0
				c-0.1,0-0.2,0-0.3-0.1c0.1-0.1,0.1-0.2,0.2-0.2c0.7-0.9,1.5-1.8,2.2-2.7c0.1-0.1,0.2-0.2,0.3-0.2c2.1,0.2,4.1-0.2,6-1
				c2.7-1.1,5.1-2.8,7.2-5C128.3,83,128.4,83,128.4,82.9z"/>
		</g>
	</g>
	<path fill="#F1FFFF" d="M80.6,87.8C80,88.2,79.5,88.6,79,89c-0.6,0.4-1.2,0.9-1.7,1.3c-0.1,0.1-0.3,0.1-0.5,0.1c-1.9,0-3.9,0-5.8,0
		c0,0-0.1,0-0.1,0c0,0,0.1-0.1,0.1-0.1c1.1-0.8,2.1-1.6,3.2-2.3c0.1-0.1,0.3-0.1,0.4-0.1C76.5,87.8,78.5,87.8,80.6,87.8z"/>
</g>
<g>
	<g id="KRyJ1s.tif_13_">
		<g>
			<path fill="#F1FFFF" d="M229.5,52.2c0.4,0.1,0.7,0.3,1.1,0.4c0.8,0.5,1.2,1.2,1.3,2.1c0.1,0.9-0.1,1.7-0.5,2.5
				c-0.3,0.6-0.6,1.1-1,1.6c-0.4,0.5-0.9,0.8-1.5,0.9c-0.6,0.1-1-0.3-1.1-0.9c-0.1-0.5,0-0.9,0.2-1.3c0.4-0.7,0.9-1.4,1.7-1.6
				c0.2,0,0.3-0.1,0.5-0.1c0.2,0,0.3-0.1,0.4-0.3c0.2-0.8-0.3-1.6-1.2-1.5c-0.5,0-0.9,0.1-1.4,0.2c-1.8,0.6-3.4,1.7-4.8,3
				c-4.5,4.2-8.1,9-10.6,14.6c-0.9,2-1.6,4-1.9,6.2c-0.3,1.5-0.3,3,0.1,4.5c0.4,1.9,1.6,3.1,3.4,3.9c1.4,0.6,2.9,0.8,4.4,0.7
				c2.5-0.2,4.9-0.9,7.3-1.4c2.8-0.7,5.5-1.4,8.3-2c2.6-0.6,5.3-0.9,7.9-0.7c3.1,0.2,5.9,1.1,8.5,2.9c1.4,1,2.8,2.1,4.1,3.3
				c0.2,0.2,0.4,0.5,0.6,0.7c-0.1,0-0.2-0.1-0.2-0.1c-2.5-1.6-5.2-2.5-8.2-2.5c-1.3,0-2.5,0.2-3.6,1c-0.5,0.4-1,0.9-1.5,1.4
				c0,0,0,0,0,0c-1.1-1.9-2.9-3-5-3.6c-1.5-0.4-3.1-0.4-4.6-0.3c-2.7,0.2-5.3,0.9-8,1.5c-2.4,0.6-4.9,1.1-7.4,1.6
				c-1.9,0.4-3.9,0.3-5.8-0.3c-2.9-1-4.6-3.1-5.2-6.1c-0.1-0.6-0.2-1.2-0.2-1.7c0-0.1,0-0.2-0.1-0.2c0-0.5,0-1,0-1.6
				c0-0.4,0.1-0.8,0.1-1.2c0.3-2.3,0.9-4.5,1.9-6.6c1.8-4.2,4.5-7.9,7.7-11.2c2.1-2.1,4.4-4,7-5.5c1.5-0.8,3-1.5,4.6-1.9
				c0.5-0.1,1.1-0.2,1.6-0.3C228.8,52.2,229.2,52.2,229.5,52.2z"/>
			<path fill="#F1FFFF" d="M231.3,68.4c0.2,0,0.4,0,0.6-0.1c0.5-0.3,1.1-0.5,1.6-0.9c1.1-0.7,2-1.6,2.9-2.5c0.9-1,1.9-1.8,3-2.6
				c1-0.6,2-1,3.2-1c1.5,0.1,2.6,1.3,2.3,2.8c-0.2,1.2-0.7,2.3-1.5,3.2c-0.3,0.3-0.6,0.6-1,0.8c-0.7,0.3-1.3-0.2-1.3-0.9
				c-0.1-1.3,1.1-2.6,2.4-2.7c0.1,0,0.2-0.1,0.2-0.1c0.2-0.5,0.1-1.2-0.7-1.3c-0.7,0-1.2,0.3-1.7,0.7c-1,0.8-1.8,1.6-2.6,2.6
				c-1.8,2.2-3.2,4.7-4.1,7.4c-0.2,0.7-0.3,1.4-0.2,2.1c0.2,1.1,1,1.6,2.1,1.4c1-0.3,1.7-0.8,2.4-1.5c1.6-1.4,2.9-3,4.1-4.7
				c1.2-1.6,2.3-3.2,3.5-4.7c1.2-1.5,2.5-2.8,4-3.9c0.7-0.5,1.5-0.9,2.4-1.1c1-0.2,1.8,0.1,2.3,0.9c0,0.1,0.1,0.1,0.1,0.2
				c0,0,0.1-0.1,0.1-0.1c0.2-0.5,0.6-0.6,1.1-0.6c0.9,0,1.7,0,2.6,0c0.1,0,0.2,0,0.3,0c-0.1,0.2-0.2,0.3-0.2,0.4
				c-2.5,4.3-4.9,8.5-7.4,12.8c-0.1,0.2-0.2,0.5-0.3,0.8c0,0.4,0.2,0.6,0.6,0.4c0.3-0.1,0.5-0.3,0.8-0.4c0.9-0.7,1.7-1.5,2.4-2.3
				c0.7-0.8,1.3-1.6,1.9-2.4c0.2-0.2,0.3-0.3,0.6-0.3c0.3,0,0.5,0,0.8,0c0,0.1-0.1,0.1-0.1,0.2c-1.5,2.2-3.1,4.4-5,6.3
				c-1,0.9-2,1.8-3.2,2.4c-0.6,0.3-1.1,0.4-1.8,0.3c-0.6-0.1-1.1-0.7-1.2-1.4c0-0.4,0-0.9-0.1-1.4c-0.1,0.1-0.1,0.2-0.2,0.2
				c-0.7,0.7-1.4,1.4-2.2,1.9c-0.6,0.3-1.2,0.6-1.8,0.7c-1.4,0.1-2.3-0.7-2.4-2c0-0.8,0.2-1.6,0.4-2.4c0-0.1,0-0.2,0-0.3
				c-0.1,0.1-0.2,0.2-0.3,0.2c-1.1,1-2.2,2-3.3,3c-0.9,0.8-2,1.3-3.3,1.5c-0.6,0.1-1.3,0.1-1.9-0.1c-1.3-0.5-1.9-1.5-2.1-2.7
				c-0.4-1.7,0.1-3.3,0.8-4.8c0.4-0.9,0.9-1.8,1.3-2.7c0-0.1,0.1-0.2,0.2-0.3c-0.5,0.1-0.9,0.2-1.3,0.3c-0.4,0.1-0.6,0.3-0.8,0.6
				c-0.9,1.4-1.7,2.8-2.7,4.2c-1.3,1.8-2.8,3.4-4.7,4.6c-0.8,0.5-1.6,0.9-2.5,1c-1,0.1-2-0.5-2.4-1.4c-0.3-0.8-0.4-1.6-0.3-2.5
				c0.2-2.5,1.2-4.7,2.5-6.7c1.6-2.5,3.5-4.7,5.9-6.4c1-0.7,2-1.3,3.3-1.5c1.9-0.3,3,0.6,3.1,2.5c0,1-0.3,2-0.6,3
				C231.7,67.4,231.5,67.9,231.3,68.4z M245.2,75.7c0,0.3,0.1,0.5,0.4,0.7c0.3,0.1,0.5,0.1,0.8,0c0.6-0.4,1.2-0.8,1.6-1.3
				c0.6-0.8,1.2-1.6,1.7-2.5c1.7-2.9,3.3-5.7,5-8.6c0.2-0.3,0.1-0.6-0.3-0.7c-0.3-0.1-0.6-0.1-0.9,0.1c-0.6,0.3-1.1,0.6-1.5,1.1
				c-1.2,1.5-2.4,2.9-3.5,4.4c-1.2,1.7-2.3,3.4-3,5.4C245.4,74.7,245.3,75.2,245.2,75.7z M226,67.1c-0.1,0.1-0.1,0.1-0.2,0.2
				c-0.6,0.9-1.2,1.7-1.7,2.6c-0.8,1.3-1.4,2.6-1.8,4.1c-0.1,0.4-0.1,0.9-0.1,1.3c0.1,0.8,0.6,1.2,1.4,1c0.2-0.1,0.4-0.1,0.6-0.3
				c0.7-0.4,1.3-1,1.9-1.6c1.2-1.3,2.1-2.9,3-4.4c0.1-0.1,0.1-0.2,0.1-0.4C227.9,69.2,226.7,68.4,226,67.1z M231.2,64.6
				c0-0.1,0-0.3,0-0.4c-0.2-1-0.6-1.4-1.7-1.1c-0.2,0-0.3,0.1-0.5,0.2c-0.7,0.5-1.3,1.1-1.6,1.9c-0.3,0.7-0.2,1.4,0.3,2
				c0.5,0.7,1.3,1,2.1,1.1c0.2,0,0.3-0.1,0.3-0.2c0.2-0.5,0.4-0.9,0.6-1.4C231,66.1,231.2,65.4,231.2,64.6z"/>
		</g>
	</g>
	<g id="KRyJ1s.tif_12_">
		<g>
			<path fill="#F1FFFF" d="M307.6,59.4c0.3-0.5,0.5-1,0.7-1.5c0.2-0.5,0.4-1,0.4-1.6c0-0.4-0.2-0.6-0.6-0.4
				c-0.4,0.2-0.7,0.4-1.1,0.6c-1.4,1.1-2.7,2.4-3.9,3.7c-2.5,2.8-4.6,5.9-6.6,9.2c-1.2,2-2.3,4.1-3.5,6.2c-0.1,0.2-0.2,0.4-0.2,0.7
				c0.1-0.1,0.3-0.1,0.4-0.2c0.8-0.6,1.5-1.2,2.3-1.8c3.2-2.9,6.1-6,8.7-9.4c0.3-0.3,0.5-0.6,0.9-0.5c0.2,0,0.4,0,0.6-0.1
				c-0.1,0.2-0.3,0.4-0.4,0.6c-1.7,2.4-3.6,4.5-5.6,6.7c-2.4,2.6-5.1,4.9-8,6.9c-0.1,0.1-0.2,0.1-0.2,0.2c-0.9,1.9-1.7,3.9-2.1,6
				c-0.1,0.4-0.1,0.9,0,1.3c0.1,0.6,0.7,0.9,1.2,0.5c0.5-0.4,1.1-0.9,1.5-1.4c0.8-1,1.5-2.1,2.2-3.2c1.2-1.9,2.4-3.7,3.9-5.4
				c1.3-1.6,2.8-3,4.5-4c0.8-0.5,1.6-0.7,2.5-0.5c0.6,0.1,0.9,0.5,1.2,0.9c0.1,0.1,0.2,0.2,0.3,0.3c0.2-0.3,0.3-0.5,0.4-0.7
				c0.1-0.1,0.2-0.2,0.2-0.2c1.1,0,2.2,0,3.3,0c0,0,0,0,0.1,0c0,0.1-0.1,0.2-0.1,0.3c-1.7,2.9-3.3,5.9-5,8.8c-0.6,1.1-1.3,2.3-2,3.4
				c-0.2,0.3-0.3,0.6-0.4,1c-0.1,0.2-0.1,0.4,0.1,0.6c0.2,0.2,0.4,0.1,0.6-0.1c1-0.6,1.8-1.3,2.4-2.2c0.8-1.1,1.6-2.2,2.3-3.3
				c0.1-0.2,0.2-0.2,0.4-0.2c0.3,0,0.6,0,0.9,0c-0.1,0.2-0.2,0.4-0.3,0.6c-1.4,2.1-2.8,4.2-4.6,6c-1,1-2.2,1.9-3.5,2.5
				c-0.3,0.1-0.7,0.2-1.1,0.2c-0.7,0-1.2-0.4-1.4-1c-0.1-0.5-0.1-1-0.1-1.5c0-0.1,0-0.2,0-0.3c0,0,0,0-0.1,0
				c-0.2,0.2-0.4,0.4-0.6,0.6c-0.8,0.8-1.7,1.5-2.7,2c-0.5,0.2-1,0.4-1.6,0.3c-1-0.2-1.6-0.8-1.7-1.9c0-0.4,0-0.9,0-1.3
				c0-0.1,0-0.2,0-0.4c-0.1,0.1-0.2,0.2-0.3,0.3c-0.8,0.9-1.6,1.8-2.6,2.5c-0.4,0.3-0.9,0.5-1.4,0.7c-1.1,0.4-2-0.1-2.5-1
				c-0.3-0.6-0.4-1.2-0.4-1.8c0-1.4,0.5-2.8,0.9-4.1c0.3-0.8,0.5-1.6,0.8-2.5c-0.2,0-0.3,0.1-0.4,0.1c-0.4,0.1-0.9,0.1-1.3,0.1
				c-0.2,0-0.3,0.1-0.4,0.3c-0.9,1.4-1.7,2.7-2.6,4c-1.3,1.8-2.8,3.3-4.7,4.4c-0.6,0.4-1.3,0.6-2,0.7c-1.4,0.1-2.1-0.8-2.3-1.7
				c-0.2-1-0.1-2,0.1-2.9c0.5-2.1,1.4-4,2.5-5.8c1.2-1.9,2.6-3.8,4.4-5.3c1-0.9,2.2-1.7,3.5-2.1c0.5-0.2,1-0.2,1.5-0.2
				c1,0.1,1.5,0.9,1.7,1.6c0.2,1.1,0.1,2.1-0.3,3.2c-0.3,0.8-0.6,1.6-1,2.5c0,0.1-0.1,0.2-0.1,0.3c0.7,0,1.3-0.1,1.9-0.4
				c0.1,0,0.1-0.2,0.2-0.3c1.8-3.7,3.8-7.2,6.1-10.6c2.8-4.1,6.1-7.9,10-11.1c0.9-0.8,1.9-1.4,3-1.9c0.5-0.3,1.1-0.4,1.7-0.4
				c0.7,0,1.1,0.4,1.2,1.2c0.1,0.9-0.2,1.8-0.6,2.6c-0.4,0.9-0.5,1-1.5,1.1C307.8,59.4,307.7,59.4,307.6,59.4z M297,85.7
				c0,0.3,0.4,0.6,0.9,0.4c0.3-0.1,0.5-0.3,0.7-0.4c0.7-0.5,1.2-1.2,1.7-1.9c1.3-1.9,2.5-3.9,3.6-5.9c0.7-1.2,1.4-2.3,2-3.5
				c0.1-0.3,0.2-0.5,0-0.7c-0.2-0.3-0.5-0.3-0.7-0.2c-0.3,0.1-0.7,0.3-0.9,0.5c-0.4,0.3-0.7,0.6-1,0.9c-2.4,2.4-4.2,5.3-5.7,8.3
				C297.3,83.9,297.1,84.7,297,85.7z M281.1,77.3c-0.5,0.8-1,1.5-1.5,2.2c-0.8,1.3-1.6,2.7-2,4.2c-0.1,0.5-0.2,1-0.2,1.6
				c0.1,0.7,0.6,1.1,1.3,0.9c0.6-0.1,1.2-0.6,1.6-1c1.5-1.4,2.6-3,3.5-4.8c0-0.1,0.1-0.2,0.1-0.3C282.9,79.4,281.8,78.6,281.1,77.3z
				 M286.2,74.7c0-0.2,0-0.3,0-0.5c-0.1-0.7-0.4-1.1-1-1c-0.2,0-0.5,0.1-0.7,0.2c-0.6,0.3-1.2,0.8-1.6,1.4c-1.1,1.7-0.1,3.5,1.7,4.1
				c0.1,0,0.2,0,0.3-0.1c0.2-0.3,0.3-0.6,0.5-0.9C285.7,76.9,286.2,75.9,286.2,74.7z"/>
			<path fill="#F1FFFF" d="M300.4,59c-0.9,0.9-1.7,1.8-2.5,2.7c-0.1,0.1-0.2,0.1-0.3,0c-0.5-0.3-1.1-0.6-1.6-1
				c-1.6-1-3.2-2.1-4.9-3.1c-1.3-0.8-2.7-1.3-4.1-1.5c-0.5-0.1-0.9-0.1-1.4,0.1c-0.1,0-0.2,0.1-0.2,0.3c0.1,1.7-0.3,3.3-1,4.8
				c-0.9,2.2-2.2,4-3.9,5.6c-0.7,0.7-1.6,1.1-2.5,1.4c-1.3,0.4-2.3-0.3-2.5-1.6c-0.1-0.9,0.1-1.7,0.4-2.5c1.1-2.7,2.8-4.9,5-6.7
				c0.8-0.6,1.6-1.2,2.4-1.8c0.1,0,0.1-0.1,0.2-0.1c-0.5-0.2-1-0.2-1.5-0.1c-0.7,0.1-1.3,0.4-2,0.8c-2.4,1.3-4.5,3-6.3,5
				c-3.4,3.6-6.4,7.6-8.8,12c-1.3,2.4-2.3,5-2.8,7.7c-0.2,1.1-0.4,2.2-0.1,3.4c0.3,1.2,1,2.1,2.2,2.4c0.8,0.2,1.5,0,2.2-0.3
				c1.2-0.6,2.3-1.4,3.2-2.4c1.8-1.9,3.3-4.1,4.1-6.6c0.3-1,0.6-1.9,0.5-3c-0.1-1-0.6-1.4-1.6-1c-0.7,0.3-1.1,0.8-1.6,1.3
				c-0.9,1.2-1.6,2.6-1.9,4.1c0,0.1-0.1,0.2-0.2,0.3c-1.6,0.8-3,1.9-4.3,3.3c0,0-0.1,0.1-0.2,0.2c0.4-3,1.3-5.8,3.2-8.2
				c1.2-1.4,2.6-2.4,4.4-2.8c0.5-0.1,0.9-0.2,1.4-0.1c0.8,0.2,1.3,0.7,1.5,1.5c0.3,1,0.3,2,0.1,3c-0.4,2.3-1.5,4.4-2.8,6.4
				c-1.6,2.5-3.7,4.6-6.2,6.1c-1.1,0.6-2.3,1-3.5,1c-2,0.1-3.5-0.9-4.5-2.6c-0.9-1.5-1.1-3.1-1-4.8c0.2-2.6,1.1-5.1,2.2-7.4
				c3-6.4,7.3-11.8,12.7-16.3c2.4-1.9,5-3.4,7.9-4.2c1.1-0.3,2.1-0.4,3.2-0.1c0.5,0.1,0.9,0.4,1.3,0.7c0.1,0.1,0.2,0.1,0.4,0.1
				c0.9-0.3,1.7-0.6,2.6-0.8c2.2-0.4,4.3-0.1,6.3,0.9C296,56.4,298.2,57.7,300.4,59C300.4,58.9,300.4,59,300.4,59z M284.3,56.7
				c-0.3,0.2-0.5,0.3-0.7,0.4c-2.8,1.7-4.8,4.1-6.3,7c-0.3,0.7-0.6,1.3-0.7,2.1c-0.1,1,0.6,1.5,1.5,1.1c0.4-0.2,0.7-0.4,1-0.6
				c3-2.3,4.8-5.4,5.2-9.2C284.3,57.3,284.3,57,284.3,56.7z"/>
			<path fill="#F1FFFF" d="M317.5,54.2c-0.5,1-1.1,2-1.8,2.8c-2.2,2.8-5,4.9-8.4,6c-1.7,0.6-3.5,0.7-5.3,0.4c0,0-0.1,0-0.1,0
				c-0.1,0-0.2,0-0.3-0.1c0.1-0.1,0.1-0.2,0.2-0.2c0.7-0.9,1.5-1.8,2.2-2.7c0.1-0.1,0.2-0.2,0.3-0.2c2.1,0.2,4.1-0.2,6-1
				c2.7-1.1,5.1-2.8,7.2-5C317.4,54.3,317.5,54.3,317.5,54.2z"/>
		</g>
	</g>
	<path fill="#F1FFFF" d="M269.7,59.1c-0.6,0.4-1.1,0.8-1.6,1.2c-0.6,0.4-1.2,0.9-1.7,1.3c-0.1,0.1-0.3,0.1-0.5,0.1
		c-1.9,0-3.9,0-5.8,0c0,0-0.1,0-0.1,0c0,0,0.1-0.1,0.1-0.1c1.1-0.8,2.1-1.6,3.2-2.3c0.1-0.1,0.3-0.1,0.4-0.1
		C265.6,59.1,267.6,59.1,269.7,59.1z"/>
</g>
<g>
	<g id="KRyJ1s.tif_15_">
		<g>
			<path fill="#F1FFFF" d="M527.8,51.9c0.4,0.1,0.7,0.3,1.1,0.4c0.8,0.5,1.2,1.2,1.3,2.1c0.1,0.9-0.1,1.7-0.5,2.5
				c-0.3,0.6-0.6,1.1-1,1.6c-0.4,0.5-0.9,0.8-1.5,0.9c-0.6,0.1-1-0.3-1.1-0.9c-0.1-0.5,0-0.9,0.2-1.3c0.4-0.7,0.9-1.4,1.7-1.6
				c0.2,0,0.3-0.1,0.5-0.1c0.2,0,0.3-0.1,0.4-0.3c0.2-0.8-0.3-1.6-1.2-1.5c-0.5,0-0.9,0.1-1.4,0.2c-1.8,0.6-3.4,1.7-4.8,3
				c-4.5,4.2-8.1,9-10.6,14.6c-0.9,2-1.6,4-1.9,6.2c-0.3,1.5-0.3,3,0.1,4.5c0.4,1.9,1.6,3.1,3.4,3.9c1.4,0.6,2.9,0.8,4.4,0.7
				c2.5-0.2,4.9-0.9,7.3-1.4c2.8-0.7,5.5-1.4,8.3-2c2.6-0.6,5.3-0.9,7.9-0.7c3.1,0.2,5.9,1.1,8.5,2.9c1.4,1,2.8,2.1,4.1,3.3
				c0.2,0.2,0.4,0.5,0.6,0.7c-0.1,0-0.2-0.1-0.2-0.1c-2.5-1.6-5.2-2.5-8.2-2.5c-1.3,0-2.5,0.2-3.6,1c-0.5,0.4-1,0.9-1.5,1.4
				c0,0,0,0,0,0c-1.1-1.9-2.9-3-5-3.6c-1.5-0.4-3.1-0.4-4.6-0.3c-2.7,0.2-5.3,0.9-8,1.5c-2.4,0.6-4.9,1.1-7.4,1.6
				c-1.9,0.4-3.9,0.3-5.8-0.3c-2.9-1-4.6-3.1-5.2-6.1c-0.1-0.6-0.2-1.2-0.2-1.7c0-0.1,0-0.2-0.1-0.2c0-0.5,0-1,0-1.6
				c0-0.4,0.1-0.8,0.1-1.2c0.3-2.3,0.9-4.5,1.9-6.6c1.8-4.2,4.5-7.9,7.7-11.2c2.1-2.1,4.4-4,7-5.5c1.5-0.8,3-1.5,4.6-1.9
				c0.5-0.1,1.1-0.2,1.6-0.3C527.1,51.9,527.4,51.9,527.8,51.9z"/>
			<path fill="#F1FFFF" d="M529.6,68c0.2,0,0.4,0,0.6-0.1c0.5-0.3,1.1-0.5,1.6-0.9c1.1-0.7,2-1.6,2.9-2.5c0.9-1,1.9-1.8,3-2.6
				c1-0.6,2-1,3.2-1c1.5,0.1,2.6,1.3,2.3,2.8c-0.2,1.2-0.7,2.3-1.5,3.2c-0.3,0.3-0.6,0.6-1,0.8c-0.7,0.3-1.3-0.2-1.3-0.9
				c-0.1-1.3,1.1-2.6,2.4-2.7c0.1,0,0.2-0.1,0.2-0.1c0.2-0.5,0.1-1.2-0.7-1.3c-0.7,0-1.2,0.3-1.7,0.7c-1,0.8-1.8,1.6-2.6,2.6
				c-1.8,2.2-3.2,4.7-4.1,7.4c-0.2,0.7-0.3,1.4-0.2,2.1c0.2,1.1,1,1.6,2.1,1.4c1-0.3,1.7-0.8,2.4-1.5c1.6-1.4,2.9-3,4.1-4.7
				c1.2-1.6,2.3-3.2,3.5-4.7c1.2-1.5,2.5-2.8,4-3.9c0.7-0.5,1.5-0.9,2.4-1.1c1-0.2,1.8,0.1,2.3,0.9c0,0.1,0.1,0.1,0.1,0.2
				c0,0,0.1-0.1,0.1-0.1c0.2-0.5,0.6-0.6,1.1-0.6c0.9,0,1.7,0,2.6,0c0.1,0,0.2,0,0.3,0c-0.1,0.2-0.2,0.3-0.2,0.4
				c-2.5,4.3-4.9,8.5-7.4,12.8c-0.1,0.2-0.2,0.5-0.3,0.8c0,0.4,0.2,0.6,0.6,0.4c0.3-0.1,0.5-0.3,0.8-0.4c0.9-0.7,1.7-1.5,2.4-2.3
				c0.7-0.8,1.3-1.6,1.9-2.4c0.2-0.2,0.3-0.3,0.6-0.3c0.3,0,0.5,0,0.8,0c0,0.1-0.1,0.1-0.1,0.2c-1.5,2.2-3.1,4.4-5,6.3
				c-1,0.9-2,1.8-3.2,2.4c-0.6,0.3-1.1,0.4-1.8,0.3c-0.6-0.1-1.1-0.7-1.2-1.4c0-0.4,0-0.9-0.1-1.4c-0.1,0.1-0.1,0.2-0.2,0.2
				c-0.7,0.7-1.4,1.4-2.2,1.9c-0.6,0.3-1.2,0.6-1.8,0.7c-1.4,0.1-2.3-0.7-2.4-2c0-0.8,0.2-1.6,0.4-2.4c0-0.1,0-0.2,0-0.3
				c-0.1,0.1-0.2,0.2-0.3,0.2c-1.1,1-2.2,2-3.3,3c-0.9,0.8-2,1.3-3.3,1.5c-0.6,0.1-1.3,0.1-1.9-0.1c-1.3-0.5-1.9-1.5-2.1-2.7
				c-0.4-1.7,0.1-3.3,0.8-4.8c0.4-0.9,0.9-1.8,1.3-2.7c0-0.1,0.1-0.2,0.2-0.3c-0.5,0.1-0.9,0.2-1.3,0.3c-0.4,0.1-0.6,0.3-0.8,0.6
				c-0.9,1.4-1.7,2.8-2.7,4.2c-1.3,1.8-2.8,3.4-4.7,4.6c-0.8,0.5-1.6,0.9-2.5,1c-1,0.1-2-0.5-2.4-1.4c-0.3-0.8-0.4-1.6-0.3-2.5
				c0.2-2.5,1.2-4.7,2.5-6.7c1.6-2.5,3.5-4.7,5.9-6.4c1-0.7,2-1.3,3.3-1.5c1.9-0.3,3,0.6,3.1,2.5c0,1-0.3,2-0.6,3
				C530,67,529.8,67.5,529.6,68z M543.4,75.3c0,0.3,0.1,0.5,0.4,0.7c0.3,0.1,0.5,0.1,0.8,0c0.6-0.4,1.2-0.8,1.6-1.3
				c0.6-0.8,1.2-1.6,1.7-2.5c1.7-2.9,3.3-5.7,5-8.6c0.2-0.3,0.1-0.6-0.3-0.7c-0.3-0.1-0.6-0.1-0.9,0.1c-0.6,0.3-1.1,0.6-1.5,1.1
				c-1.2,1.5-2.4,2.9-3.5,4.4c-1.2,1.7-2.3,3.4-3,5.4C543.7,74.3,543.6,74.8,543.4,75.3z M524.3,66.7c-0.1,0.1-0.1,0.1-0.2,0.2
				c-0.6,0.9-1.2,1.7-1.7,2.6c-0.8,1.3-1.4,2.6-1.8,4.1c-0.1,0.4-0.1,0.9-0.1,1.3c0.1,0.8,0.6,1.2,1.4,1c0.2-0.1,0.4-0.1,0.6-0.3
				c0.7-0.4,1.3-1,1.9-1.6c1.2-1.3,2.1-2.9,3-4.4c0.1-0.1,0.1-0.2,0.1-0.4C526.2,68.8,525,68.1,524.3,66.7z M529.5,64.3
				c0-0.1,0-0.3,0-0.4c-0.2-1-0.6-1.4-1.7-1.1c-0.2,0-0.3,0.1-0.5,0.2c-0.7,0.5-1.3,1.1-1.6,1.9c-0.3,0.7-0.2,1.4,0.3,2
				c0.5,0.7,1.3,1,2.1,1.1c0.2,0,0.3-0.1,0.3-0.2c0.2-0.5,0.4-0.9,0.6-1.4C529.3,65.8,529.5,65.1,529.5,64.3z"/>
		</g>
	</g>
	<g id="KRyJ1s.tif_14_">
		<g>
			<path fill="#F1FFFF" d="M605.9,59c0.3-0.5,0.5-1,0.7-1.5c0.2-0.5,0.4-1,0.4-1.6c0-0.4-0.2-0.6-0.6-0.4c-0.4,0.2-0.7,0.4-1.1,0.6
				c-1.4,1.1-2.7,2.4-3.9,3.7c-2.5,2.8-4.6,5.9-6.6,9.2c-1.2,2-2.3,4.1-3.5,6.2c-0.1,0.2-0.2,0.4-0.2,0.7c0.1-0.1,0.3-0.1,0.4-0.2
				c0.8-0.6,1.5-1.2,2.3-1.8c3.2-2.9,6.1-6,8.7-9.4c0.3-0.3,0.5-0.6,0.9-0.5c0.2,0,0.4,0,0.6-0.1c-0.1,0.2-0.3,0.4-0.4,0.6
				c-1.7,2.4-3.6,4.5-5.6,6.7c-2.4,2.6-5.1,4.9-8,6.9c-0.1,0.1-0.2,0.1-0.2,0.2c-0.9,1.9-1.7,3.9-2.1,6c-0.1,0.4-0.1,0.9,0,1.3
				c0.1,0.6,0.7,0.9,1.2,0.5c0.5-0.4,1.1-0.9,1.5-1.4c0.8-1,1.5-2.1,2.2-3.2c1.2-1.9,2.4-3.7,3.9-5.4c1.3-1.6,2.8-3,4.5-4
				c0.8-0.5,1.6-0.7,2.5-0.5c0.6,0.1,0.9,0.5,1.2,0.9c0.1,0.1,0.2,0.2,0.3,0.3c0.2-0.3,0.3-0.5,0.4-0.7c0.1-0.1,0.2-0.2,0.2-0.2
				c1.1,0,2.2,0,3.3,0c0,0,0,0,0.1,0c0,0.1-0.1,0.2-0.1,0.3c-1.7,2.9-3.3,5.9-5,8.8c-0.6,1.1-1.3,2.3-2,3.4c-0.2,0.3-0.3,0.6-0.4,1
				c-0.1,0.2-0.1,0.4,0.1,0.6c0.2,0.2,0.4,0.1,0.6-0.1c1-0.6,1.8-1.3,2.4-2.2c0.8-1.1,1.6-2.2,2.3-3.3c0.1-0.2,0.2-0.2,0.4-0.2
				c0.3,0,0.6,0,0.9,0c-0.1,0.2-0.2,0.4-0.3,0.6c-1.4,2.1-2.8,4.2-4.6,6c-1,1-2.2,1.9-3.5,2.5c-0.3,0.1-0.7,0.2-1.1,0.2
				c-0.7,0-1.2-0.4-1.4-1c-0.1-0.5-0.1-1-0.1-1.5c0-0.1,0-0.2,0-0.3c0,0,0,0-0.1,0c-0.2,0.2-0.4,0.4-0.6,0.6c-0.8,0.8-1.7,1.5-2.7,2
				c-0.5,0.2-1,0.4-1.6,0.3c-1-0.2-1.6-0.8-1.7-1.9c0-0.4,0-0.9,0-1.3c0-0.1,0-0.2,0-0.4c-0.1,0.1-0.2,0.2-0.3,0.3
				c-0.8,0.9-1.6,1.8-2.6,2.5c-0.4,0.3-0.9,0.5-1.4,0.7c-1.1,0.4-2-0.1-2.5-1c-0.3-0.6-0.4-1.2-0.4-1.8c0-1.4,0.5-2.8,0.9-4.1
				c0.3-0.8,0.5-1.6,0.8-2.5c-0.2,0-0.3,0.1-0.4,0.1c-0.4,0.1-0.9,0.1-1.3,0.1c-0.2,0-0.3,0.1-0.4,0.3c-0.9,1.4-1.7,2.7-2.6,4
				c-1.3,1.8-2.8,3.3-4.7,4.4c-0.6,0.4-1.3,0.6-2,0.7c-1.4,0.1-2.1-0.8-2.3-1.7c-0.2-1-0.1-2,0.1-2.9c0.5-2.1,1.4-4,2.5-5.8
				c1.2-1.9,2.6-3.8,4.4-5.3c1-0.9,2.2-1.7,3.5-2.1c0.5-0.2,1-0.2,1.5-0.2c1,0.1,1.5,0.9,1.7,1.6c0.2,1.1,0.1,2.1-0.3,3.2
				c-0.3,0.8-0.6,1.6-1,2.5c0,0.1-0.1,0.2-0.1,0.3c0.7,0,1.3-0.1,1.9-0.4c0.1,0,0.1-0.2,0.2-0.3c1.8-3.7,3.8-7.2,6.1-10.6
				c2.8-4.1,6.1-7.9,10-11.1c0.9-0.8,1.9-1.4,3-1.9c0.5-0.3,1.1-0.4,1.7-0.4c0.7,0,1.1,0.4,1.2,1.2c0.1,0.9-0.2,1.8-0.6,2.6
				c-0.4,0.9-0.5,1-1.5,1.1C606.1,59,606,59,605.9,59z M595.3,85.4c0,0.3,0.4,0.6,0.9,0.4c0.3-0.1,0.5-0.3,0.7-0.4
				c0.7-0.5,1.2-1.2,1.7-1.9c1.3-1.9,2.5-3.9,3.6-5.9c0.7-1.2,1.4-2.3,2-3.5c0.1-0.3,0.2-0.5,0-0.7c-0.2-0.3-0.5-0.3-0.7-0.2
				c-0.3,0.1-0.7,0.3-0.9,0.5c-0.4,0.3-0.7,0.6-1,0.9c-2.4,2.4-4.2,5.3-5.7,8.3C595.6,83.6,595.4,84.3,595.3,85.4z M579.4,77
				c-0.5,0.8-1,1.5-1.5,2.2c-0.8,1.3-1.6,2.7-2,4.2c-0.1,0.5-0.2,1-0.2,1.6c0.1,0.7,0.6,1.1,1.3,0.9c0.6-0.1,1.2-0.6,1.6-1
				c1.5-1.4,2.6-3,3.5-4.8c0-0.1,0.1-0.2,0.1-0.3C581.2,79.1,580.1,78.3,579.4,77z M584.4,74.4c0-0.2,0-0.3,0-0.5
				c-0.1-0.7-0.4-1.1-1-1c-0.2,0-0.5,0.1-0.7,0.2c-0.6,0.3-1.2,0.8-1.6,1.4c-1.1,1.7-0.1,3.5,1.7,4.1c0.1,0,0.2,0,0.3-0.1
				c0.2-0.3,0.3-0.6,0.5-0.9C584,76.5,584.5,75.5,584.4,74.4z"/>
			<path fill="#F1FFFF" d="M598.7,58.6c-0.9,0.9-1.7,1.8-2.5,2.7c-0.1,0.1-0.2,0.1-0.3,0c-0.5-0.3-1.1-0.6-1.6-1
				c-1.6-1-3.2-2.1-4.9-3.1c-1.3-0.8-2.7-1.3-4.1-1.5c-0.5-0.1-0.9-0.1-1.4,0.1c-0.1,0-0.2,0.1-0.2,0.3c0.1,1.7-0.3,3.3-1,4.8
				c-0.9,2.2-2.2,4-3.9,5.6c-0.7,0.7-1.6,1.1-2.5,1.4c-1.3,0.4-2.3-0.3-2.5-1.6c-0.1-0.9,0.1-1.7,0.4-2.5c1.1-2.7,2.8-4.9,5-6.7
				c0.8-0.6,1.6-1.2,2.4-1.8c0.1,0,0.1-0.1,0.2-0.1c-0.5-0.2-1-0.2-1.5-0.1c-0.7,0.1-1.3,0.4-2,0.8c-2.4,1.3-4.5,3-6.3,5
				c-3.4,3.6-6.4,7.6-8.8,12c-1.3,2.4-2.3,5-2.8,7.7c-0.2,1.1-0.4,2.2-0.1,3.4c0.3,1.2,1,2.1,2.2,2.4c0.8,0.2,1.5,0,2.2-0.3
				c1.2-0.6,2.3-1.4,3.2-2.4c1.8-1.9,3.3-4.1,4.1-6.6c0.3-1,0.6-1.9,0.5-3c-0.1-1-0.6-1.4-1.6-1c-0.7,0.3-1.1,0.8-1.6,1.3
				c-0.9,1.2-1.6,2.6-1.9,4.1c0,0.1-0.1,0.2-0.2,0.3c-1.6,0.8-3,1.9-4.3,3.3c0,0-0.1,0.1-0.2,0.2c0.4-3,1.3-5.8,3.2-8.2
				c1.2-1.4,2.6-2.4,4.4-2.8c0.5-0.1,0.9-0.2,1.4-0.1c0.8,0.2,1.3,0.7,1.5,1.5c0.3,1,0.3,2,0.1,3c-0.4,2.3-1.5,4.4-2.8,6.4
				c-1.6,2.5-3.7,4.6-6.2,6.1c-1.1,0.6-2.3,1-3.5,1c-2,0.1-3.5-0.9-4.5-2.6c-0.9-1.5-1.1-3.1-1-4.8c0.2-2.6,1.1-5.1,2.2-7.4
				c3-6.4,7.3-11.8,12.7-16.3c2.4-1.9,5-3.4,7.9-4.2c1.1-0.3,2.1-0.4,3.2-0.1c0.5,0.1,0.9,0.4,1.3,0.7c0.1,0.1,0.2,0.1,0.4,0.1
				c0.9-0.3,1.7-0.6,2.6-0.8c2.2-0.4,4.3-0.1,6.3,0.9C594.3,56,596.5,57.3,598.7,58.6C598.7,58.6,598.7,58.6,598.7,58.6z
				 M582.6,56.4c-0.3,0.2-0.5,0.3-0.7,0.4c-2.8,1.7-4.8,4.1-6.3,7c-0.3,0.7-0.6,1.3-0.7,2.1c-0.1,1,0.6,1.5,1.5,1.1
				c0.4-0.2,0.7-0.4,1-0.6c3-2.3,4.8-5.4,5.2-9.2C582.6,56.9,582.6,56.7,582.6,56.4z"/>
			<path fill="#F1FFFF" d="M615.8,53.9c-0.5,1-1.1,2-1.8,2.8c-2.2,2.8-5,4.9-8.4,6c-1.7,0.6-3.5,0.7-5.3,0.4c0,0-0.1,0-0.1,0
				c-0.1,0-0.2,0-0.3-0.1c0.1-0.1,0.1-0.2,0.2-0.2c0.7-0.9,1.5-1.8,2.2-2.7c0.1-0.1,0.2-0.2,0.3-0.2c2.1,0.2,4.1-0.2,6-1
				c2.7-1.1,5.1-2.8,7.2-5C615.7,53.9,615.8,53.9,615.8,53.9z"/>
		</g>
	</g>
	<path fill="#F1FFFF" d="M568,58.7c-0.6,0.4-1.1,0.8-1.6,1.2c-0.6,0.4-1.2,0.9-1.7,1.3c-0.1,0.1-0.3,0.1-0.5,0.1c-1.9,0-3.9,0-5.8,0
		c0,0-0.1,0-0.1,0c0,0,0.1-0.1,0.1-0.1c1.1-0.8,2.1-1.6,3.2-2.3c0.1-0.1,0.3-0.1,0.4-0.1C563.9,58.7,565.9,58.7,568,58.7z"/>
</g>
</svg>
