<?xml version="1.0" encoding="utf-8"?>
<!-- Generator: Adobe Illustrator 18.1.1, SVG Export Plug-In . SVG Version: 6.00 Build 0)  -->
<svg version="1.1" id="Layer_1" xmlns="http://www.w3.org/2000/svg" xmlns:xlink="http://www.w3.org/1999/xlink" x="0px" y="0px"
	 viewBox="0 0 229.5 268.6" enable-background="new 0 0 229.5 268.6" xml:space="preserve">
<g>
	<polygon fill="#808285" points="55,145 50.1,246 61.8,246 75.7,163 82.4,246 93.7,246 93.7,145 	"/>
	<path fill="#F9BD91" d="M80.5,32.1v27.7h-4.2v9.1c0,0-4.7,9.3-16.3,0V50c0,0-3.5-0.7-3.5-4.7s4-2.1,4-2.1V32.1H80.5z"/>
	<path fill="#231F20" d="M91.3,246h-5.6c0,0-2.2,7.1,5.1,7.5h9.5c0,0,2.1-4.5-3.5-4.8C96.7,248.7,91.8,247.9,91.3,246z"/>
	<path fill="none" d="M57.6,42.4C57.6,42.4,57.6,42.5,57.6,42.4"/>
	<circle fill="#DD9F76" cx="54.6" cy="94.8" r="0.7"/>
	<circle fill="#DD9F76" cx="82.6" cy="94.8" r="0.7"/>
	<path fill="#231F20" d="M52,246h5.6c0,0,2.2,7.1-5.1,7.5h-9.5c0,0-2.1-4.5,3.5-4.8C46.6,248.7,51.5,247.9,52,246z"/>
	<path fill="#6D6E71" d="M44.5,71c0,0,10.9-11,47.5,0l-6.8,74c0,0-9.6,1.3-32.8,0L44.5,71z"/>
	<polygon fill="#808285" points="91.5,69.1 128.9,10 136.1,15.6 95.9,97.3 	"/>
	<polygon fill="#808285" points="52.1,69.1 14.7,10 6,14.5 47.7,97.3 	"/>
	<path fill="#6D6E71" d="M42.2,51.5L27.7,63l18.9,33.3l5.5,48.7h41.8l3.7-47.7L119.8,56l-14.4-8.3l-14,20.1c0,0-11.5-4.7-39.2-1.7
		L42.2,51.5z"/>
	<path fill="#231F20" d="M56,61.3c2.5,0.5,5.3-1.1,6-3.6c0.1,1.5-0.7,3-2,3.8c2.3,0.8,5.1-0.2,6.4-2.4c-0.2,0.7-0.4,1.4-0.6,2.1
		c1.7,0.2,3.5-0.6,4.4-2c-0.4,0.5-0.6,1.2-0.5,1.8c4-1.2,6.6-5.9,5.3-9.9c-1.2-0.4-2.3-1.3-2.7-2.5s0.1-2.7,1.2-3.3
		c1.1-0.6,2.8-0.2,3.2,1c0.7-4.8,1.4-9.6,2.1-14.5c-2.9,0.1-5.7-0.9-8.6-1.4c-3.9-0.6-8-0.2-11.8,1.2c-0.4,0.1-0.8,0.3-1.1,0.6
		c-0.3,0.3-0.5,0.8-0.6,1.3c-1.5,4.6-2.7,9.4-2.2,14.2c0.2,2.3,0.8,4.6,0.6,7s-1.8,4.7-4.1,5.1c2.1,1.6,5.7,0.3,6.2-2.3
		C57.8,58.9,57.2,60.5,56,61.3z"/>
	<path fill="#414042" d="M82.2,38.7l-28.7,2.8c-0.6,0.1-1.2-0.4-1.2-1L52.1,38c-0.1-0.6,0.4-1.2,1-1.2L81.7,34
		c0.6-0.1,1.2,0.4,1.2,1l0.2,2.5C83.3,38.1,82.8,38.6,82.2,38.7z"/>
	<path fill="#414042" d="M54.3,36.6l27-2.4c0,0,0.5-8.3-14-7.9C52.9,26.7,54.3,36.6,54.3,36.6z"/>
	<circle fill="#231F20" cx="133.3" cy="10.9" r="7.9"/>
	<circle fill="#231F20" cx="7.9" cy="7.9" r="7.9"/>
	<path fill="#D1D3D4" d="M82.8,72.5c0.4-2.6,0.3-5.6-2-7.4c-1.1-0.8-2.4-1.2-3.8-1.5c-2.7-0.6-5.5-1-8.2-1.3
		c-1.6-0.2-3.3-0.4-4.9-0.2c-2.8,0.4-5.3,2-8.2,2.1c-0.5,0-1.1,0-1.5,0.3c-0.4,0.2-0.5,0.6-0.7,1c-1.7,4.6-2,9.7,0.3,14.2
		c2.3,4.4,7.3,7.9,12.9,7.9c4.3,0,8.5-2,11.2-4.9S82.2,76.2,82.8,72.5z"/>
	<path fill="#27AAE1" d="M79.6,63.7c-3.4-2.5-8-3.9-12.5-3.8s-8.9,1.8-12.1,4.5c3.2,2.7,8.1,3.4,12.6,3.4c4.5,0,9.2-0.7,12.9-3
		C80.4,64.4,80,64,79.6,63.7z"/>
</g>
<g>
	<path fill="#18723C" d="M208.3,56.5c0,0-28.8-11.8-73.6,0l13.5,79.4c0,0,17,1.4,45.3,0L208.3,56.5z"/>
	<polygon fill="#8B5E3C" points="186.4,254.2 187.7,260.9 193.5,260.9 193.5,254.2 	"/>
	<path fill="#231F20" d="M193.5,260.9h-5.8c0,0-2.3,7.3,5.3,7.7h9.8c0,0,2.1-4.6-3.6-4.9C199.1,263.7,194.1,262.8,193.5,260.9z"/>
	<polygon fill="#8B5E3C" points="160.3,254.2 158.9,260.9 153.1,260.9 153.1,254.2 	"/>
	<path fill="#231F20" d="M153.1,260.9h5.8c0,0,2.3,7.3-5.3,7.7h-9.8c0,0-2.1-4.6,3.6-4.9C147.6,263.7,152.6,262.8,153.1,260.9z"/>
	<path fill="#E6E7E8" d="M181.6,35.1l-16.6-3.6c0,0,4.1-4.5,9.4-3.3C179.8,29.4,181.6,35.1,181.6,35.1z"/>
	<polygon fill="#F9BD91" points="191.9,136.5 194.3,254.2 185.9,254.2 169.4,157.8 160.3,254.2 152.3,254.2 149.2,135.9 	"/>
	<path fill="#F9BD91" d="M208.3,56.5c0,0-28.8-11.8-73.6,0l13.5,79.4c0,0,17,1.4,45.3,0L208.3,56.5z"/>
	<polygon fill="#8B5E3C" points="186.4,254.2 187.7,260.9 193.5,260.9 193.5,254.2 	"/>
	<path fill="#E6E7E8" d="M193.5,260.9h-5.8c0,0-2.3,7.3,5.3,7.7h9.8c0,0,2.1-4.6-3.6-4.9C199.1,263.7,194.1,262.8,193.5,260.9z"/>
	<polygon fill="#8B5E3C" points="160.3,254.2 158.9,260.9 153.1,260.9 153.1,254.2 	"/>
	<path fill="#E6E7E8" d="M153.1,260.9h5.8c0,0,2.3,7.3-5.3,7.7h-9.8c0,0-2.1-4.6,3.6-4.9C147.6,263.7,152.6,262.8,153.1,260.9z"/>
	<polygon fill="#E6E7E8" points="194.3,133.5 198.2,191.8 171.7,191.8 170.1,169 168.4,191.8 147.5,191.8 147.7,133.5 	"/>
	<polygon fill="#E6E7E8" points="194.3,238.4 182.9,238.4 187.4,262.4 194.3,262.4 	"/>
	<polygon fill="#E6E7E8" points="151.8,237.6 162.3,237.7 159.1,261.7 152.3,261.6 	"/>
	<polygon fill="#2B3990" points="147.5,139.6 194.7,139.6 194.7,128.9 146.9,128.9 	"/>
	<polygon fill="#936944" points="197.9,111.8 165.1,82.2 195.8,123.3 	"/>
	<polygon fill="#F9BD91" points="208.3,57.3 217.7,108.4 204.8,118.4 182.7,97.4 191.4,90.2 	"/>
	<path fill="#BE1E2D" d="M163.4,86.6c4.2,5.1,11.3,6.1,15.9,2.3l4-3.3c4.6-3.8,5-11,0.9-16.1l0,0c-4.2-5.1-11.3-6.1-15.9-2.3l-4,3.3
		C159.7,74.4,159.3,81.6,163.4,86.6L163.4,86.6z"/>
	
		<rect x="175.5" y="83.1" transform="matrix(-0.7725 0.635 -0.635 -0.7725 382.6235 40.5951)" fill="#BE1E2D" width="17.1" height="11.4"/>
	<path fill="#F9BD91" d="M134.6,56.5l-17.8,50.1l27.8-5.3C144.6,101.3,146.9,57.2,134.6,56.5z"/>
	<polygon fill="#BE1E2D" points="187.5,139.6 192.2,191.8 184.5,191.8 180.8,139.6 	"/>
	<polygon fill="#BE1E2D" points="171.7,191.8 167.6,139.6 174.4,139.6 179,191.8 	"/>
	<polygon fill="#BE1E2D" points="160.2,191.8 161.9,139.6 154.4,139.6 153.7,191.8 	"/>
	<g>
		<polygon fill="#F3F1FE" points="102.3,69.2 116.5,80.5 132.6,88.4 140.8,88.4 139.5,101.6 162,97.7 167.7,81.7 170.2,66.4 
			165,61.5 159.3,60 164,57 168.4,38.6 159.7,41.8 139.5,47 111.1,56.4 		"/>
		<polygon fill="#D7113C" points="162.3,96.9 140.8,88.4 124,57.1 136.9,53.4 142.5,67.9 		"/>
		<polygon fill="#D7113C" points="167.7,81.7 160.6,71.2 154.5,68.6 153.4,59.2 148.2,48.9 158.7,46.1 159.4,54.2 156,62 158,67.4 
			166.8,67.8 		"/>
		<polygon fill="#453C6D" points="132.6,88.4 116.5,80.5 107.3,73.1 112.7,63.9 120,77.3 135.4,88.4 		"/>
		<polygon fill="#F3F1FE" points="106,63.9 99.9,54.8 98.8,63.9 92.1,66.3 85.7,54.8 96.5,48.1 109.2,59.2 		"/>
		<polygon fill="#453C6D" points="109.2,59.2 111.1,56.4 131.4,49.7 100.4,44.4 85.7,50.3 85.7,54.8 96.5,48.1 		"/>
	</g>
	<g>
		<polygon fill="#F3F1FE" points="182.7,45.4 193,59.9 190.8,98.6 217.1,111 229.5,132 224.5,88.1 214.8,72.1 209.1,55.8 
			183.3,43.7 		"/>
		<polygon fill="#D7113C" points="190.4,47 195.5,58.1 193,99.6 202.6,104.2 206.1,54.4 		"/>
		<path fill="#D7113C" d="M205.4,105.5c0.3,0.2,19.6-13.3,19.6-13.3l1.4,12l-9.2,6.8L205.4,105.5z"/>
		<polygon fill="#D7113C" points="220.6,117 227.3,112.9 229.5,132 		"/>
	</g>
	<path fill="#F9BD91" d="M169.4,8.1l-7.3,33.1l5,1.1l-2.4,10.9c0,0,3.2,12.4,19.5,4.3l5-22.6c0,0,4.4,0.1,5.4-4.7s-4.3-3.6-4.3-3.6
		l2.9-13.2L169.4,8.1z"/>
	<path fill="#F9BD91" d="M169.4,8.1l-7.3,33.1l5,1.1l-2.4,10.9c0,0,3.2,12.4,19.5,4.3l5-22.6c0,0,4.4,0.1,5.4-4.7s-4.3-3.6-4.3-3.6
		l2.9-13.2L169.4,8.1z"/>
	<path fill="#231F20" d="M190.4,26.5l-0.4,1.9l-1.9-0.4l-0.7-0.1l1.4-6.2c0,0-3.6-1.8-3.3-4c0.3-2.1,0.9-3.9,0.9-3.9l-16.6-3.6
		l-1.4,2.4c0,0,0.7-8.6,3.9-8.7c5.4-0.2,26.9,3.6,25.7,15.1c0,0-0.6,10.4-3.7,12.4c0,0,1.9-3.9-1-4.7
		C190.6,25.9,190.4,26.5,190.4,26.5z"/>
	<path fill="#231F20" d="M184.3,14.2c0.8,1.3,1.7,2.7,2.5,4c-0.6-1-0.1-2.3,0.5-3.2s1.4-2,1.3-3.1c-0.1-1.5-1.6-2.5-3-3.1
		c-3.7-1.6-7.8-2.4-11.9-2.2c-0.7,0-1.3,0.1-1.9,0.3c-1.4,0.5-2.3,1.8-2.6,3.3c-0.3,1.4,0.2,2.9,0.9,4.1c0-1.4,0.4-2.7,1.2-3.8
		c-0.5,0.8-0.3,1.9,0.2,2.7s1.2,1.5,1.9,2.1c-0.7-1.1-0.7-2.7,0-3.8c-0.1,2.1,1.4,4.2,3.4,4.8c-0.7-0.4-1.1-1.2-1.2-2
		c0-0.8,0.2-1.6,0.5-2.4c0.2,2.1,1.4,4.1,3.2,5.3c-0.7-1.3-0.7-2.9-0.2-4.2c0.5,2.2,1.8,4.1,3.6,5.4c-1.2-1.5-1.3-3.7-0.3-5.4
		c0.1,1.8,0.9,3.6,2.2,5C183.9,16.8,183.8,15.4,184.3,14.2z"/>
	<path fill="#231F20" d="M189.1,34.5c-0.1,1.6-0.5,3.2-1.3,4.7c1.8-0.2,3.4-1.9,3.3-3.8c0.3,1.4,0.1,2.9-0.6,4.2
		c1.6-1.1,2.7-3,2.6-5c1,1.2,0.5,3,0,4.4c1.1-1.5,1.7-3.4,1.6-5.3c0.1,1.6-0.2,3.1-0.8,4.6c1.6-0.5,2.2-2.3,2.7-3.9
		c0.5-1.8,1-3.8,0.3-5.5c-0.1-0.3-0.3-0.6-0.3-1c0-0.3,0.1-0.7,0.1-1c0.4-1.8-0.1-3.7-1-5.4c-0.9-1.6-2.1-3.1-3.3-4.5
		c-0.9-0.3-1.8-0.7-2.8-1c-0.3-0.1-0.5-0.2-0.7-0.4c-0.1-0.2-0.1-0.5-0.1-0.7c-0.2-0.5-0.8-0.6-1.3-0.4s-0.8,0.7-1,1.1
		c-0.8,1.3-1.5,2.7-1.6,4.2c-0.1,1.5,0.3,3.1,1.5,4.1c-0.4-1.4-0.2-2.9,0.4-4.1c-0.3,1.4,0.4,3,1.7,3.8c-0.3-1.2,0.2-2.5,1.3-3.1
		c0.3,1.9,0,3.8-0.9,5.5c0.3,0.4,0.8,0.3,1.3,0.2s0.8-0.4,1.2-0.5c0.6-0.1,1.2,0.1,1.7,0.5c1.5,1.2,1.6,3.6,0.8,5.4
		C193.1,33.4,191.1,35,189.1,34.5z"/>
	<path fill="#231F20" d="M171.7,10.6c-1.5,1.8-2.3,4.3-2.1,6.6c-0.8-1.4-1.2-3-1.1-4.6c-0.9,1.4-1.2,3.2-0.9,4.8
		c-1.4-2.4-1.7-5.4-0.7-8c-1.3,1.3-2,3.1-2.1,4.9c-0.5-2.2-0.6-4.7,0.5-6.6c1-1.6,2.7-2.6,4.5-3.2c1-0.3,2-0.6,3-0.5
		c1,0.1,2.1,0.6,2.6,1.4c0.2,0.3,0.4,0.7,0.3,1.1c0,0.7-0.5,1.2-1,1.6c-0.9,0.8-2,1.4-2.9,2.2c-0.9,0.8-1.7,1.8-1.9,3"/>
	<path fill="#BE1E2D" d="M125.5,67.5c-2.3,6.1,0.4,12.8,6,14.9l4.8,1.8c5.6,2.1,12-1.2,14.3-7.3l0,0c2.3-6.1-0.4-12.8-6-14.9
		l-4.8-1.8C134.3,58.1,127.8,61.3,125.5,67.5L125.5,67.5z"/>
	
		<rect x="124.9" y="79.8" transform="matrix(-0.9368 -0.3498 0.3498 -0.9368 228.5361 212.3736)" fill="#BE1E2D" width="17.1" height="11.4"/>
</g>
</svg>
