<?xml version="1.0" encoding="utf-8"?>
<!-- Generator: Adobe Illustrator 18.1.1, SVG Export Plug-In . SVG Version: 6.00 Build 0)  -->
<svg version="1.1" id="Layer_1" xmlns="http://www.w3.org/2000/svg" xmlns:xlink="http://www.w3.org/1999/xlink" x="0px" y="0px"
	 viewBox="0 0 334 306" enable-background="new 0 0 334 306" xml:space="preserve">
<rect x="5.7" y="4" fill="#0E1215" width="323.6" height="165.8"/>
<rect x="12.9" y="10.3" fill="#BA252B" width="309.1" height="153.3"/>
<rect x="38.5" y="165.8" fill="#0E1215" width="6.1" height="140.1"/>
<rect x="38.8" y="231.3" fill="#0E1215" width="42.9" height="6.1"/>
<rect x="59.4" y="161.2" transform="matrix(0.5725 -0.8199 0.8199 0.5725 -123.9741 129.7682)" fill="#0E1215" width="6.1" height="45.2"/>
<rect x="21.6" y="154.6" transform="matrix(0.3813 -0.9244 0.9244 0.3813 -145.3064 130.2827)" fill="#0E1215" width="6.1" height="38.3"/>
<rect x="309.8" y="156.1" transform="matrix(-0.3813 -0.9244 0.9244 -0.3813 271.6552 528.2778)" fill="#0E1215" width="5.6" height="34.3"/>
<rect x="59.4" y="161.2" transform="matrix(-0.5725 -0.8199 0.8199 -0.5725 -52.459 340.1922)" fill="#0E1215" width="6.1" height="45.2"/>
<rect x="58.9" y="193.8" transform="matrix(-0.5725 -0.8199 0.8199 -0.5725 -80.8819 392.8516)" fill="#0E1215" width="6.1" height="47.5"/>
<rect x="58.9" y="229.7" transform="matrix(-0.5725 -0.8199 0.8199 -0.5725 -110.3251 449.3221)" fill="#0E1215" width="6.1" height="47.5"/>
<rect x="58.9" y="261.2" transform="matrix(-0.5725 -0.8199 0.8199 -0.5725 -136.1777 498.9059)" fill="#0E1215" width="6.1" height="47.5"/>
<rect x="58.9" y="193.8" transform="matrix(0.5725 -0.8199 0.8199 0.5725 -150.931 143.3193)" fill="#0E1215" width="6.1" height="45.2"/>
<rect x="58.9" y="228.6" transform="matrix(0.5725 -0.8199 0.8199 0.5725 -179.4766 158.2027)" fill="#0E1215" width="6.1" height="45.2"/>
<rect x="58.9" y="262.8" transform="matrix(0.5725 -0.8199 0.8199 0.5725 -207.4835 172.8053)" fill="#0E1215" width="6.1" height="45.2"/>
<rect x="38.8" y="266.5" fill="#0E1215" width="42.9" height="6.1"/>
<rect x="38.8" y="297.2" fill="#0E1215" width="42.9" height="6.1"/>
<rect x="38.8" y="196.9" fill="#0E1215" width="42.9" height="6.1"/>
<rect x="83.9" y="175.5" fill="#0E1215" width="169.2" height="6.1"/>
<rect x="252" y="231.3" fill="#0E1215" width="42.9" height="6.1"/>
<rect x="272.7" y="161.2" transform="matrix(0.5725 -0.8199 0.8199 0.5725 -32.8016 304.6322)" fill="#0E1215" width="6.1" height="45.2"/>
<rect x="150.6" y="161.8" transform="matrix(0.5725 -0.8199 0.8199 0.5725 -75.9482 199.8669)" fill="#0E1215" width="6.1" height="22"/>
<rect x="173.8" y="161.8" transform="matrix(-0.5725 -0.8199 0.8199 -0.5725 136.5334 416.7188)" fill="#0E1215" width="6.1" height="22"/>
<rect x="272.7" y="161.2" transform="matrix(-0.5725 -0.8199 0.8199 -0.5725 282.9207 515.0562)" fill="#0E1215" width="6.1" height="45.2"/>
<rect x="272.2" y="193.8" transform="matrix(-0.5725 -0.8199 0.8199 -0.5725 254.4978 567.7156)" fill="#0E1215" width="6.1" height="47.5"/>
<rect x="272.2" y="229.7" transform="matrix(-0.5725 -0.8199 0.8199 -0.5725 225.0546 624.1861)" fill="#0E1215" width="6.1" height="47.5"/>
<rect x="272.2" y="261.2" transform="matrix(-0.5725 -0.8199 0.8199 -0.5725 199.202 673.77)" fill="#0E1215" width="6.1" height="47.5"/>
<rect x="272.2" y="193.8" transform="matrix(0.5725 -0.8199 0.8199 0.5725 -59.7584 318.1833)" fill="#0E1215" width="6.1" height="45.2"/>
<rect x="272.2" y="228.6" transform="matrix(0.5725 -0.8199 0.8199 0.5725 -88.304 333.0667)" fill="#0E1215" width="6.1" height="45.2"/>
<rect x="272.2" y="262.8" transform="matrix(0.5725 -0.8199 0.8199 0.5725 -116.311 347.6693)" fill="#0E1215" width="6.1" height="45.2"/>
<rect x="252" y="266.5" fill="#0E1215" width="42.9" height="6.1"/>
<rect x="252" y="297.2" fill="#0E1215" width="42.9" height="6.1"/>
<rect x="252" y="196.9" fill="#0E1215" width="42.9" height="6.1"/>
<rect x="256.1" y="232.1" fill="#0E1215" width="41.3" height="7.6"/>
<rect x="254.2" y="269.6" fill="#0E1215" width="42.9" height="6.1"/>
<rect x="257.6" y="196.4" fill="#0E1215" width="39.5" height="6.6"/>
<rect x="78.8" y="165.8" fill="#0E1215" width="6.1" height="140.1"/>
<rect x="162.4" y="165.8" fill="#0E1215" width="6.1" height="13.2"/>
<rect x="251.6" y="165.8" fill="#0E1215" width="6.1" height="140.1"/>
<rect x="292.5" y="165.8" fill="#0E1215" width="6.1" height="140.1"/>
<rect x="125.2" y="6" fill="#1A1A1A" width="5.3" height="13.9"/>
<rect x="200.9" y="6" fill="#1A1A1A" width="5.3" height="13.9"/>
<rect x="271" y="6" fill="#1A1A1A" width="5.3" height="13.9"/>
<polygon opacity="0.2" fill="#FCEE21" points="53.4,21.2 17.9,163 102,163 66.1,20.7 "/>
<polygon opacity="0.2" fill="#FCEE21" points="120,21.2 84.5,163 168.6,163 132.7,20.7 "/>
<polygon opacity="0.2" fill="#FCEE21" points="195.7,21.2 160.2,163 244.3,163 208.4,20.7 "/>
<polygon opacity="0.2" fill="#FCEE21" points="265.4,21.2 229.9,163 314,163 278.1,20.7 "/>
<path fill="#333333" d="M66.8,24.8H55.9c-1.8,0-3.1-1.6-2.7-3.3l0.9-4.2c0.3-1.2,1.4-2.1,2.7-2.1H66c1.3,0,2.5,0.9,2.7,2.2l0.8,4.2
	C69.8,23.3,68.5,24.8,66.8,24.8z"/>
<path fill="#1A1A1A" d="M61.3,19.9L61.3,19.9c-1.5,0-2.6-1.2-2.6-2.6V6h5.3v11.3C63.9,18.7,62.7,19.9,61.3,19.9z"/>
<path fill="#333333" d="M133.1,24.8h-10.8c-1.8,0-3.1-1.6-2.7-3.3l0.9-4.2c0.3-1.2,1.4-2.1,2.7-2.1h9.1c1.3,0,2.5,0.9,2.7,2.2
	l0.8,4.2C136.1,23.3,134.8,24.8,133.1,24.8z"/>
<path fill="#1A1A1A" d="M127.6,19.9L127.6,19.9c-1.5,0-2.6-1.2-2.6-2.6V6h5.3v11.3C130.2,18.7,129.1,19.9,127.6,19.9z"/>
<path fill="#333333" d="M209.1,24.8h-10.8c-1.8,0-3.1-1.6-2.7-3.3l0.9-4.2c0.3-1.2,1.4-2.1,2.7-2.1h9.1c1.3,0,2.5,0.9,2.7,2.2
	l0.8,4.2C212.1,23.3,210.8,24.8,209.1,24.8z"/>
<path fill="#1A1A1A" d="M203.6,19.9L203.6,19.9c-1.5,0-2.6-1.2-2.6-2.6V6h5.3v11.3C206.2,18.7,205,19.9,203.6,19.9z"/>
<path fill="#333333" d="M279,24.8h-10.8c-1.8,0-3.1-1.6-2.7-3.3l0.9-4.2c0.3-1.2,1.4-2.1,2.7-2.1h9.1c1.3,0,2.5,0.9,2.7,2.2l0.8,4.2
	C282,23.3,280.8,24.8,279,24.8z"/>
<path fill="#1A1A1A" d="M273.6,19.9L273.6,19.9c-1.5,0-2.6-1.2-2.6-2.6V6h5.3v11.3C276.2,18.7,275,19.9,273.6,19.9z"/>
<path fill="#FFFFFF" d="M269.5,121.7c-33,6-66.1,11.1-100,11.8C142,134,115,131.7,88.3,126c-26.6-5.7-51-15.5-74-27.4
	c-0.4-0.2-0.4-0.4-1-0.6l-0.4,30.3c1.2,0.4,2.6,0.6,3.7,1c28.4,9.8,58.2,13.6,88.8,13.2c19.9-0.3,39.7-2.2,59.4-4.5
	c32.4-3.8,64.6-8.9,97.3-10.8c15.5-0.9,30.9-1,46.3,1.2c4.5,0.7,9.2,1.5,13.6,2.2c0.1-4.6,0.1-9.3,0.2-13.9
	C304.1,115.9,286.8,118.5,269.5,121.7z"/>
<g>
	<path fill="#FFFFFF" d="M158,44.5c0,1.4-1.6,3.6-4.7,6.4c-5.7,5.3-11.5,7.9-17.3,7.9c-1.6,0-3-0.1-4-0.3c-1.3-0.2-3.4-1.2-6.3-2.9
		c-9.2-5.4-15.1-8.1-17.7-8.1c-1.4,0-2,0.3-2,0.9c0,0.3,0.1,0.7,0.2,1.3c0.1,0.6,0.2,1,0.2,1.3c0,3.3-1.2,6.5-3.6,9.6
		c-2.5,3.2-5.4,4.9-8.7,4.9l-2.6-0.7l-1-2.4c0-2.8,1.3-5.8,3.9-9c2.6-3.2,5.3-5.4,7.9-6.4c-0.9-0.4-1.5-0.5-1.8-0.5
		c-4.2,0-8.9,2.9-14.1,8.8c-3.9,4.3-7.2,9.1-10,14.4c-3.3,6.1-4.9,11-4.9,14.7c0,4.7,1.8,7,5.3,7c3.5,0,6.8-1.9,9.9-5.7
		c2.9-3.6,4.4-7.2,4.4-10.8c0-0.5-0.2-1.1-0.6-1.6c-0.4-0.5-0.9-0.8-1.4-0.8c-0.8,0-1.9,0.8-3.5,2.4L85.2,75
		c-0.6,0.9-1.3,2.8-2.2,5.8c-1.1,0.5-2.2,1.2-3.5,2l-3.2,2.3h-0.1c-0.1-0.5-0.1-0.9-0.1-1c0-3.7,1-7,2.9-9.8c2.2-3.2,5-4.9,8.5-4.9
		c3.5,0,5.3,1.6,5.3,4.9c0,5.1-2,9.8-6,14.3c-4.1,4.6-8.6,7-13.6,7c-7.2,0-10.8-3.2-10.8-9.5c0-5.8,2.2-12.2,6.7-19.3
		c3.9-6.2,8.5-11.4,13.7-15.6c6.1-5,11.9-7.4,17.2-7.4c0.6,0,1.5,0.2,2.6,0.6c1.1,0.4,1.9,0.8,2.4,1.2c2.6-1.2,5.4-1.8,8.3-1.8v-0.1
		c2.7,0.1,5.7,1,8.9,2.6c0.7,0.4,3.3,1.9,7.6,4.5c2.7,1.6,4.6,2.4,6,2.4h1.3c4.1,0,7.8-0.9,11.1-2.6c1.8-0.9,4.8-3.2,9.3-6.7h0.3
		v0.1L158,44.5z M103.7,51c0-0.2,0-0.6-0.1-1.1c-0.1-0.5-0.1-1-0.1-1.3c-4.7,2-8.1,5.7-10.3,11.2c-0.3,0.8-0.5,1.4-0.5,1.8
		c0,1.1,0.6,1.6,1.8,1.6c2.3,0,4.5-1.5,6.5-4.5C102.8,56.1,103.7,53.5,103.7,51z"/>
	<path fill="#FFFFFF" d="M115.6,80.1c0,0.5-0.7,1-2,1.3c-1,0.3-1.9,0.4-2.7,0.4c-0.5,0-1,0-1.5,0c-1.7,3.2-3.7,6.1-6.1,8.8
		c-3.2,3.6-6.2,5.4-8.7,5.4c-3.6,0-5.3-1.6-5.3-4.9c0-4,2-8.4,5.9-13.4c4.1-5.1,8.1-7.7,12-7.7c3.1,0,4.6,1.4,4.6,4.3
		c0,0.9-0.5,2.8-1.5,5.5c0.5,0.1,0.9,0.2,1.2,0.2c0.4,0,0.9-0.1,1.6-0.2c0.7-0.1,1.3-0.2,1.6-0.2C115.3,79.6,115.6,79.8,115.6,80.1z
		 M107.5,81.3c-2.5-0.3-4.2-1.5-5.3-3.7c-0.8,0.9-1.9,2.8-3.4,5.8v-0.1c-0.1,0.5-0.5,1.4-1.1,2.8c-0.5,1.2-0.8,2.1-0.8,2.9
		c0,0.9,0.5,1.4,1.4,1.4C101.2,90.5,104.3,87.4,107.5,81.3z M109.9,74.7c0-1.5-0.6-2.2-1.8-2.2c-0.9,0-1.8,0.4-2.8,1.2
		c-1,0.8-1.6,1.6-1.6,2.5c0,0.9,0.5,1.7,1.4,2.4c0.9,0.8,1.8,1.2,2.7,1.2c0.1,0,0.2,0,0.3-0.1v-0.1c0.4,0,0.8-0.7,1.2-2.2
		C109.7,76.3,109.9,75.3,109.9,74.7z"/>
	<path fill="#FFFFFF" d="M134.3,73.4c0,1.3-0.5,2.6-1.4,4c-1,1.5-2.2,2.3-3.4,2.3c-0.2,0-0.7-0.2-1.3-0.7c-0.2-0.5-0.3-0.9-0.3-1.1
		c0-1,0.5-2,1.5-2.9c1-0.9,2-1.3,3-1.1c0-0.8-0.6-1.1-1.8-1.1c-2.2,0-4.7,2.5-7.7,7.4c-2.8,4.6-4.2,8.2-4.2,10.6
		c0,1.1,0.4,1.6,1.2,1.6c1.9,0,3.8-0.8,5.7-2.4c0.9-0.7,2.3-2.2,4.3-4.5c1.4-1.6,2.4-2.4,3-2.4c0.2,0,0.3,0.1,0.3,0.3
		c0,0.5-1.4,2.5-4.1,5.9c-3.8,4.8-7.8,7.2-11.8,7.2c-3.8,0-5.7-1.8-5.7-5.4c0-1.3,0.4-3,1.1-5.1c0.7-2,1.4-3.6,2.1-4.8
		c4.8-7.5,9.9-11.2,15.4-11.2c1,0,2,0.4,2.8,1.1C133.9,71.5,134.3,72.4,134.3,73.4z"/>
	<path fill="#FFFFFF" d="M160.4,69.9c-0.7,2.6-2.3,5.9-4.9,9.9c-2.8,4.4-4.6,7.6-5.4,9.6l0.6,0.4c1.8-0.6,3.4-1.9,4.8-4
		c1.4-2.1,2.3-3.2,2.5-3.3h0.3c0.2,0.2,0.3,0.5,0.3,0.7c0,1.8-1.6,4.4-4.7,7.6c-3.2,3.2-5.7,4.8-7.5,4.8c-1.4,0-2.4-0.4-3-1.1
		c-0.1-0.2-0.5-1.2-1.2-3c-1.5,2.7-3.6,4.1-6.3,4.1c-1.2,0-2.3-0.5-3.2-1.6c-0.9-1-1.4-2.2-1.4-3.4c0-3.4,2.3-7.8,6.9-13.1
		c4.6-5.3,8.5-7.9,11.9-7.9c0.4,0,1,0.2,1.9,0.7c0.9,0.5,1.5,0.7,2,0.8c0.3-0.1,0.4-0.4,0.5-0.9c0.5-0.4,1.4-0.6,2.8-0.6
		C158.6,69.7,159.6,69.7,160.4,69.9z M152.6,73c-0.1-0.6-0.5-0.9-1.2-0.9c-0.6,0-1.3,0.3-2,0.9V73c-2.2,1.8-4.3,4.3-6.4,7.2
		c-2.3,3.5-3.5,6.4-3.5,8.7c0,0.9,0.4,1.4,1.2,1.4c1,0,3.2-2.5,6.5-7.6C150.1,78.2,151.9,74.9,152.6,73z"/>
	<path fill="#FFFFFF" d="M272.2,44.5c0,1.4-1.6,3.6-4.7,6.4c-5.7,5.3-11.5,7.9-17.3,7.9c-1.6,0-3-0.1-4-0.3
		c-1.3-0.2-3.4-1.2-6.3-2.9c-9.2-5.4-15.1-8.1-17.7-8.1c-1.4,0-2,0.3-2,0.9c0,0.3,0.1,0.7,0.2,1.3c0.1,0.6,0.2,1,0.2,1.3
		c0,3.3-1.2,6.5-3.6,9.6c-2.5,3.2-5.4,4.9-8.7,4.9l-2.6-0.7l-1-2.4c0-2.8,1.3-5.8,3.9-9c2.6-3.2,5.3-5.4,7.9-6.4
		c-0.9-0.4-1.5-0.5-1.8-0.5c-4.2,0-8.9,2.9-14.1,8.8c-3.9,4.3-7.2,9.1-10,14.4c-3.3,6.1-4.9,11-4.9,14.7c0,4.7,1.8,7,5.3,7
		c3.5,0,6.8-1.9,9.9-5.7c2.9-3.6,4.4-7.2,4.4-10.8c0-0.5-0.2-1.1-0.6-1.6c-0.4-0.5-0.9-0.8-1.4-0.8c-0.8,0-1.9,0.8-3.5,2.4l-0.1,0.1
		c-0.6,0.9-1.3,2.8-2.2,5.8c-1.1,0.5-2.2,1.2-3.5,2l-3.2,2.3h-0.1c-0.1-0.5-0.1-0.9-0.1-1c0-3.7,1-7,2.9-9.8c2.2-3.2,5-4.9,8.5-4.9
		c3.5,0,5.3,1.6,5.3,4.9c0,5.1-2,9.8-6,14.3c-4.1,4.6-8.6,7-13.6,7c-7.2,0-10.8-3.2-10.8-9.5c0-5.8,2.2-12.2,6.7-19.3
		c3.9-6.2,8.5-11.4,13.7-15.6c6.1-5,11.9-7.4,17.2-7.4c0.6,0,1.5,0.2,2.6,0.6c1.1,0.4,1.9,0.8,2.4,1.2c2.6-1.2,5.4-1.8,8.3-1.8v-0.1
		c2.7,0.1,5.7,1,8.9,2.6c0.7,0.4,3.3,1.9,7.6,4.5c2.7,1.6,4.6,2.4,6,2.4h1.3c4.1,0,7.8-0.9,11.1-2.6c1.8-0.9,4.8-3.2,9.3-6.7h0.3
		v0.1L272.2,44.5z M217.9,51c0-0.2,0-0.6-0.1-1.1c-0.1-0.5-0.1-1-0.1-1.3c-4.7,2-8.1,5.7-10.3,11.2c-0.3,0.8-0.5,1.4-0.5,1.8
		c0,1.1,0.6,1.6,1.8,1.6c2.3,0,4.5-1.5,6.5-4.5C217,56.1,217.9,53.5,217.9,51z"/>
	<path fill="#FFFFFF" d="M229.8,80.1c0,0.5-0.7,1-2,1.3c-1,0.3-1.9,0.4-2.7,0.4c-0.5,0-1,0-1.5,0c-1.7,3.2-3.7,6.1-6.1,8.8
		c-3.2,3.6-6.2,5.4-8.7,5.4c-3.6,0-5.3-1.6-5.3-4.9c0-4,2-8.4,5.9-13.4c4.1-5.1,8.1-7.7,12-7.7c3.1,0,4.6,1.4,4.6,4.3
		c0,0.9-0.5,2.8-1.5,5.5c0.5,0.1,0.9,0.2,1.2,0.2c0.4,0,0.9-0.1,1.6-0.2c0.7-0.1,1.3-0.2,1.6-0.2C229.5,79.6,229.8,79.8,229.8,80.1z
		 M221.7,81.3c-2.5-0.3-4.2-1.5-5.3-3.7c-0.8,0.9-1.9,2.8-3.4,5.8v-0.1c-0.1,0.5-0.5,1.4-1.1,2.8c-0.5,1.2-0.8,2.1-0.8,2.9
		c0,0.9,0.5,1.4,1.4,1.4C215.4,90.5,218.5,87.4,221.7,81.3z M224.1,74.7c0-1.5-0.6-2.2-1.8-2.2c-0.9,0-1.8,0.4-2.8,1.2
		c-1,0.8-1.6,1.6-1.6,2.5c0,0.9,0.5,1.7,1.4,2.4c0.9,0.8,1.8,1.2,2.7,1.2c0.1,0,0.2,0,0.3-0.1v-0.1c0.4,0,0.8-0.7,1.2-2.2
		C223.9,76.3,224.1,75.3,224.1,74.7z"/>
	<path fill="#FFFFFF" d="M264,47c0,1.6-0.5,3.3-1.6,5.1c-4.3,7.6-10.7,15.1-19.1,22.4c-1.4,1.2-3.6,3-6.5,5.4
		c-0.6,0.5-1.3,2-2.1,4.4c-0.7,2.2-1,3.9-1.1,5l0.7,1.6c0.2,0,0.3,0.1,0.3,0.1c0.9,0,2.3-1.1,4.1-3.2c1.8-2.1,3-3.2,3.5-3.2
		c0.2,0,0.3,0.1,0.3,0.3c0,0.5-1,2-3,4.3c-4,4.7-6.9,7-8.7,7c-1.1,0-2.1-0.4-2.8-1.3c-0.7-0.8-1.1-1.8-1.1-2.9
		c0-2.8,0.8-6.3,2.4-10.6c2.9-7.8,7.2-15.4,12.9-22.9c7.1-9.3,13.1-14,18-14C262.8,44.7,264,45.5,264,47z M262,48.3
		c-0.5-0.9-0.9-1.4-1.2-1.4c-3,0-7.5,4.3-13.3,12.8c-5,7.2-8.3,13.1-9.9,17.5c3.7-2.5,8.5-6.9,14.1-13.3
		C258,56.9,261.4,51.7,262,48.3z"/>
	<path fill="#FFFFFF" d="M270.8,69.9c-0.7,2.6-2.3,5.9-4.9,9.9c-2.8,4.4-4.6,7.6-5.4,9.6l0.6,0.4c1.8-0.6,3.4-1.9,4.8-4
		c1.4-2.1,2.3-3.2,2.5-3.3h0.3c0.2,0.2,0.3,0.5,0.3,0.7c0,1.8-1.6,4.4-4.7,7.6c-3.2,3.2-5.7,4.8-7.5,4.8c-1.4,0-2.4-0.4-3-1.1
		c-0.1-0.2-0.5-1.2-1.2-3c-1.5,2.7-3.6,4.1-6.3,4.1c-1.2,0-2.3-0.5-3.2-1.6c-0.9-1-1.4-2.2-1.4-3.4c0-3.4,2.3-7.8,6.9-13.1
		c4.6-5.3,8.5-7.9,11.9-7.9c0.4,0,1,0.2,1.9,0.7c0.9,0.5,1.5,0.7,2,0.8c0.3-0.1,0.4-0.4,0.5-0.9c0.5-0.4,1.4-0.6,2.8-0.6
		C269.1,69.7,270.1,69.7,270.8,69.9z M263.1,73c-0.1-0.6-0.5-0.9-1.2-0.9c-0.6,0-1.3,0.3-2,0.9V73c-2.2,1.8-4.3,4.3-6.4,7.2
		c-2.3,3.5-3.5,6.4-3.5,8.7c0,0.9,0.4,1.4,1.2,1.4c1,0,3.2-2.5,6.5-7.6C260.6,78.2,262.4,74.9,263.1,73z"/>
	<path fill="#FFFFFF" d="M152.3,105.8c0,1.8-0.9,3.4-2.8,4.7c-1.5,1.1-3.3,1.8-5.3,2.3c-0.4,1-0.6,1.7-0.6,2.3
		c0,0.6,0.2,0.9,0.7,0.9c1.1,0,2.2-0.5,3.3-1.4c0.5-0.4,1.3-1.3,2.5-2.6c0.8-0.9,1.4-1.4,1.7-1.4c0.1,0,0.2,0.1,0.2,0.2
		c0,0.3-0.8,1.4-2.4,3.4c-2.2,2.7-4.4,4.1-6.7,4.1c-2.2,0-3.2-1-3.2-3.1c0-2.5,1.1-5.1,3.3-7.8c2.3-2.9,4.7-4.3,7.1-4.3
		C151.5,103.1,152.3,104,152.3,105.8z M150.7,105.5c0-0.4-0.1-0.7-0.2-0.9c-0.1-0.1-0.2-0.1-0.3-0.1c-0.8,0-1.9,1-3.3,3.1
		c-1,1.5-1.8,3-2.4,4.4c1.4-0.4,2.8-1.2,4.1-2.4C150,108.2,150.7,106.8,150.7,105.5z"/>
	<path fill="#FFFFFF" d="M162.4,111c0,1.8-0.8,3.5-2.4,5.1c-1.6,1.6-3.3,2.4-5.1,2.4c-1.1,0-2.1-0.3-2.9-0.8c-1-0.6-1.5-1.4-1.5-2.5
		c0-0.6,0.2-1.1,0.6-1.5s0.9-0.6,1.5-0.6c1.2,0,1.7,0.6,1.7,1.8c0,0.4-0.1,0.8-0.4,1.1c-0.3,0.3-0.6,0.5-1.1,0.5c-0.3,0-0.5,0-0.7,0
		c0.5,0.5,1,0.7,1.6,0.7c1.6,0,2.7-1.3,3.5-3.9c0.5-1.8,0.8-3.8,0.8-5.9v-1.2c-0.3,0.2-1.2,1-2.7,2.4c-1.5,1.4-2.3,2.1-2.4,2.1
		c-0.3,0-0.4-0.1-0.4-0.4c0-0.2,0.6-0.9,1.9-2.1c0.8-0.8,1.7-1.6,2.6-2.4c1-0.9,1.7-1.8,2.2-2.7c0.4-0.7,0.7-1,1-1
		c0.4,0,0.6,0.2,0.6,0.5c0,0.1-0.2,0.4-0.6,0.9c-0.4,0.5-0.6,0.9-0.6,1.2c0,0.2,0.5,1,1.4,2.5C162,108.8,162.4,110,162.4,111z"/>
	<path fill="#FFFFFF" d="M185.4,103.2c-0.4,1.5-1.3,3.4-2.8,5.7c-1.6,2.5-2.6,4.3-3.1,5.5l0.3,0.2c1-0.3,1.9-1.1,2.8-2.3
		c0.8-1.2,1.3-1.8,1.4-1.9h0.2c0.1,0.1,0.2,0.3,0.2,0.4c0,1.1-0.9,2.5-2.7,4.3c-1.8,1.8-3.2,2.8-4.3,2.8c-0.8,0-1.4-0.2-1.7-0.6
		c-0.1-0.1-0.3-0.7-0.7-1.7c-0.9,1.5-2.1,2.3-3.6,2.3c-0.7,0-1.3-0.3-1.8-0.9c-0.5-0.6-0.8-1.2-0.8-1.9c0-2,1.3-4.4,3.9-7.5
		c2.6-3,4.9-4.5,6.8-4.5c0.2,0,0.6,0.1,1.1,0.4c0.5,0.3,0.9,0.4,1.1,0.4c0.2-0.1,0.2-0.2,0.3-0.5c0.3-0.2,0.8-0.3,1.6-0.3
		C184.4,103.1,185,103.1,185.4,103.2z M181,105c-0.1-0.3-0.3-0.5-0.7-0.5c-0.4,0-0.7,0.2-1.2,0.5v0c-1.3,1.1-2.5,2.4-3.6,4.1
		c-1.3,2-2,3.6-2,5c0,0.5,0.2,0.8,0.7,0.8c0.6,0,1.8-1.5,3.7-4.4C179.6,107.9,180.6,106.1,181,105z"/>
	<path fill="#FFFFFF" d="M195.2,111c0,1.8-0.8,3.5-2.4,5.1c-1.6,1.6-3.3,2.4-5.1,2.4c-1.1,0-2.1-0.3-2.9-0.8c-1-0.6-1.5-1.4-1.5-2.5
		c0-0.6,0.2-1.1,0.6-1.5s0.9-0.6,1.5-0.6c1.2,0,1.7,0.6,1.7,1.8c0,0.4-0.1,0.8-0.4,1.1c-0.3,0.3-0.6,0.5-1.1,0.5c-0.3,0-0.5,0-0.7,0
		c0.5,0.5,1,0.7,1.6,0.7c1.6,0,2.7-1.3,3.5-3.9c0.5-1.8,0.8-3.8,0.8-5.9v-1.2c-0.3,0.2-1.2,1-2.7,2.4c-1.5,1.4-2.3,2.1-2.4,2.1
		c-0.3,0-0.4-0.1-0.4-0.4c0-0.2,0.6-0.9,1.9-2.1c0.8-0.8,1.7-1.6,2.6-2.4c1-0.9,1.7-1.8,2.2-2.7c0.4-0.7,0.7-1,1-1
		c0.4,0,0.6,0.2,0.6,0.5c0,0.1-0.2,0.4-0.6,0.9c-0.4,0.5-0.6,0.9-0.6,1.2c0,0.2,0.5,1,1.4,2.5C194.8,108.8,195.2,110,195.2,111z"/>
	<path fill="#FFFFFF" d="M202.8,111c0,1.2-0.9,2.6-2.7,4.4c-1.8,1.8-3.3,2.7-4.5,2.7c-1.2,0-1.9-0.9-1.9-2.6c0-0.9,0.3-2,1-3.2
		l1.7-3c0.2-0.5,0.9-2,2-4.6h4.1c-2.1,3.7-3.6,6.9-4.6,9.9l0.4,0.3c1-0.3,1.8-1,2.5-2.1c0.7-1.2,1.3-1.9,1.7-2.1h0.2
		C202.8,110.7,202.8,110.9,202.8,111z"/>
</g>
<path fill="#FFFFFF" d="M199.5,103.2c0,0,0.1-0.9,2.5-1.2c2.6-0.3,1.5-3,1.5-3s-0.9,1.5-2.5,1.4
	C199.7,100.3,199.2,102.5,199.5,103.2z"/>
</svg>
