<?xml version="1.0" encoding="utf-8"?>
<!-- Generator: Adobe Illustrator 19.0.0, SVG Export Plug-In . SVG Version: 6.00 Build 0)  -->
<svg version="1.1" id="Layer_1" xmlns="http://www.w3.org/2000/svg" xmlns:xlink="http://www.w3.org/1999/xlink" x="0px" y="0px"
	 viewBox="-401.9 529.2 582.1 549.8" style="enable-background:new -401.9 529.2 582.1 549.8;" xml:space="preserve">
<style type="text/css">
	.st0{fill:#0E1215;}
	.st1{fill:#BA252B;}
	.st2{fill:#1A1A1A;}
	.st3{fill:#333333;}
	.st4{fill:#FFFFFF;}
	.st5{fill:none;}
	.st6{enable-background:new    ;}
	.st7{fill:#FFFDFD;}
	.st8{fill:#F1FFFF;}
</style>
<rect x="-401.9" y="536.4" class="st0" width="581.6" height="298"/>
<rect x="-389" y="547.7" class="st1" width="555.6" height="275.5"/>
<rect x="-343" y="827.2" class="st0" width="11" height="251.8"/>
<rect x="-342.4" y="944.9" class="st0" width="77.1" height="11"/>
<rect x="-305.4" y="818.9" transform="matrix(0.5725 -0.8199 0.8199 0.5725 -832.9348 121.5955)" class="st0" width="11" height="81.2"/>
<rect x="-373.3" y="807.2" transform="matrix(0.3813 -0.9244 0.9244 0.3813 -1005.5676 180.6976)" class="st0" width="11" height="68.8"/>
<rect x="144.7" y="809.8" transform="matrix(-0.3813 -0.9244 0.9244 -0.3813 -570.2197 1299.5742)" class="st0" width="10.1" height="61.6"/>
<rect x="-305.4" y="818.9" transform="matrix(-0.5725 -0.8199 0.8199 -0.5725 -1176.222 1105.7079)" class="st0" width="11" height="81.2"/>
<rect x="-306.2" y="877.4" transform="matrix(-0.5725 -0.8199 0.8199 -0.5725 -1227.2543 1200.3726)" class="st0" width="11" height="85.4"/>
<rect x="-306.2" y="942" transform="matrix(-0.5725 -0.8199 0.8199 -0.5725 -1280.1813 1301.9149)" class="st0" width="11" height="85.4"/>
<rect x="-306.2" y="998.8" transform="matrix(-0.5725 -0.8199 0.8199 -0.5725 -1326.8687 1391.2224)" class="st0" width="11" height="85.4"/>
<rect x="-306.3" y="877.6" transform="matrix(0.5725 -0.8199 0.8199 0.5725 -881.3792 145.9013)" class="st0" width="11" height="81.2"/>
<rect x="-306.3" y="940.2" transform="matrix(0.5725 -0.8199 0.8199 0.5725 -932.7297 172.6792)" class="st0" width="11" height="81.2"/>
<rect x="-306.3" y="1001.6" transform="matrix(0.5725 -0.8199 0.8199 0.5725 -983.1231 198.9019)" class="st0" width="11" height="81.2"/>
<rect x="-342.4" y="1008.2" class="st0" width="77.1" height="11"/>
<rect x="-342.4" y="1063.4" class="st0" width="77.1" height="11"/>
<rect x="-342.4" y="883.1" class="st0" width="77.1" height="11"/>
<rect x="-261.4" y="844.6" class="st0" width="304.1" height="11"/>
<rect x="40.8" y="944.9" class="st0" width="77.1" height="11"/>
<rect x="78" y="818.9" transform="matrix(0.5725 -0.8199 0.8199 0.5725 -669.0384 435.878)" class="st0" width="11" height="81.2"/>
<rect x="-141.4" y="820.2" transform="matrix(0.5725 -0.8199 0.8199 0.5725 -746.7325 247.6606)" class="st0" width="11" height="39.5"/>
<rect x="-99.6" y="820" transform="matrix(-0.5725 -0.8199 0.8199 -0.5725 -836.4125 1243.3436)" class="st0" width="11" height="39.5"/>
<rect x="78" y="818.9" transform="matrix(-0.5725 -0.8199 0.8199 -0.5725 -573.3764 1420.021)" class="st0" width="11" height="81.2"/>
<rect x="77.2" y="877.4" transform="matrix(-0.5725 -0.8199 0.8199 -0.5725 -624.3109 1514.6893)" class="st0" width="11" height="85.4"/>
<rect x="77.1" y="941.9" transform="matrix(-0.5725 -0.8199 0.8199 -0.5725 -677.3416 1616.0704)" class="st0" width="11" height="85.4"/>
<rect x="77" y="998.7" transform="matrix(-0.5725 -0.8199 0.8199 -0.5725 -724.0509 1705.2024)" class="st0" width="11" height="85.4"/>
<rect x="77.1" y="877.6" transform="matrix(0.5725 -0.8199 0.8199 0.5725 -717.522 460.2284)" class="st0" width="11" height="81.2"/>
<rect x="77.1" y="940.2" transform="matrix(0.5725 -0.8199 0.8199 0.5725 -768.8329 486.9624)" class="st0" width="11" height="81.2"/>
<rect x="77.2" y="1001.6" transform="matrix(0.5725 -0.8199 0.8199 0.5725 -819.1542 513.3302)" class="st0" width="11" height="81.2"/>
<rect x="40.8" y="1008.2" class="st0" width="77.1" height="11"/>
<rect x="40.8" y="1063.4" class="st0" width="77.1" height="11"/>
<rect x="40.8" y="883.1" class="st0" width="77.1" height="11"/>
<rect x="48.1" y="946.4" class="st0" width="74.2" height="13.7"/>
<rect x="44.7" y="1013.8" class="st0" width="77.1" height="11"/>
<rect x="50.8" y="882.2" class="st0" width="71" height="11.9"/>
<rect x="-270.5" y="827.2" class="st0" width="11" height="251.8"/>
<rect x="-120.3" y="827.2" class="st0" width="11" height="23.7"/>
<rect x="40.1" y="827.2" class="st0" width="11" height="251.8"/>
<rect x="113.6" y="827.2" class="st0" width="11" height="251.8"/>
<rect x="-187.1" y="540" class="st2" width="9.5" height="25"/>
<rect x="-51.1" y="540" class="st2" width="9.5" height="25"/>
<rect x="74.9" y="540" class="st2" width="9.5" height="25"/>
<path class="st3" d="M-292.1,573.8h-19.6c-3.2,0-5.6-2.9-4.9-5.9l1.6-7.5c0.5-2.2,2.5-3.8,4.9-3.8h16.5c2.3,0,4.5,1.6,4.9,4l1.4,7.5
	C-286.7,571.1-289,573.8-292.1,573.8z"/>
<path class="st2" d="M-302,565L-302,565c-2.7,0-4.7-2.2-4.7-4.7V540h9.5v20.3C-297.3,562.8-299.5,565-302,565z"/>
<path class="st3" d="M-172.9,573.8h-19.4c-3.2,0-5.6-2.9-4.9-5.9l1.6-7.5c0.5-2.2,2.5-3.8,4.9-3.8h16.4c2.3,0,4.5,1.6,4.9,4l1.4,7.5
	C-167.5,571.1-169.9,573.8-172.9,573.8z"/>
<path class="st2" d="M-182.8,565L-182.8,565c-2.7,0-4.7-2.2-4.7-4.7V540h9.5v20.3C-178.1,562.8-180.1,565-182.8,565z"/>
<path class="st3" d="M-36.3,573.8h-19.4c-3.2,0-5.6-2.9-4.9-5.9l1.6-7.5c0.5-2.2,2.5-3.8,4.9-3.8h16.4c2.3,0,4.5,1.6,4.9,4l1.4,7.5
	C-30.9,571.1-33.3,573.8-36.3,573.8z"/>
<path class="st2" d="M-46.2,565L-46.2,565c-2.7,0-4.7-2.2-4.7-4.7V540h9.5v20.3C-41.5,562.8-43.7,565-46.2,565z"/>
<path class="st3" d="M89.3,573.8H69.9c-3.2,0-5.6-2.9-4.9-5.9l1.6-7.5c0.5-2.2,2.5-3.8,4.9-3.8h16.4c2.3,0,4.5,1.6,4.9,4l1.4,7.5
	C94.7,571.1,92.5,573.8,89.3,573.8z"/>
<path class="st2" d="M79.6,565L79.6,565c-2.7,0-4.7-2.2-4.7-4.7V540h9.5v20.3C84.3,562.8,82.1,565,79.6,565z"/>
<path class="st4" d="M72.2,747.9c-59.3,10.8-118.8,20-179.7,21.2c-49.4,0.9-98-3.2-145.9-13.5c-47.8-10.2-91.7-27.9-133-49.2
	c-0.7-0.4-0.7-0.7-1.8-1.1l-0.7,54.5c2.2,0.7,4.7,1.1,6.7,1.8c51,17.6,104.6,24.4,159.6,23.7c35.8-0.5,71.4-4,106.8-8.1
	c58.2-6.8,116.1-16,174.9-19.4c27.9-1.6,55.5-1.8,83.2,2.2c8.1,1.3,16.5,2.7,24.4,4c0.2-8.3,0.2-16.7,0.4-25
	C134.4,737.5,103.3,742.2,72.2,747.9z"/>
<rect x="44.4" y="800.4" class="st5" width="121" height="16"/>
<g class="st6">
	<path class="st7" d="M-8.1,803.6l1.1-1.3c1.6,1.5,3.2,2.2,5.4,2.2c2.1,0,3.5-1.1,3.5-2.7v0c0-1.5-0.8-2.3-4.1-3
		c-3.6-0.8-5.3-2-5.3-4.5v0c0-2.5,2.2-4.3,5.2-4.3c2.3,0,3.9,0.7,5.5,1.9l-1,1.4c-1.5-1.2-2.9-1.7-4.5-1.7c-2,0-3.3,1.1-3.3,2.5v0
		c0,1.5,0.8,2.3,4.3,3.1c3.5,0.8,5.1,2,5.1,4.4v0c0,2.7-2.2,4.4-5.4,4.4C-4.2,806.1-6.2,805.2-8.1,803.6z"/>
	<path class="st7" d="M7.3,790.1h1.8v14.1h8.8v1.6H7.3V790.1z"/>
	<path class="st7" d="M19.6,798L19.6,798c0-4.4,3.3-8.2,8-8.2s8,3.7,8,8.1c0,0,0,0,0,0c0,4.3-3.3,8.1-8,8.1
		C22.8,806.1,19.6,802.4,19.6,798z M33.8,798L33.8,798c0-3.6-2.6-6.5-6.2-6.5c-3.6,0-6.1,2.9-6.1,6.4v0c0,3.6,2.6,6.5,6.2,6.5
		S33.8,801.6,33.8,798z"/>
	<path class="st7" d="M38.7,798L38.7,798c0-4.4,3.2-8.2,7.9-8.2c2.6,0,4.3,0.8,5.9,2.1l-1.1,1.3c-1.2-1.1-2.6-1.8-4.8-1.8
		c-3.5,0-6,2.9-6,6.4v0c0,3.7,2.4,6.5,6.2,6.5c1.8,0,3.5-0.7,4.5-1.6V799h-4.8v-1.6H53v6.3c-1.5,1.3-3.7,2.4-6.3,2.4
		C41.7,806.1,38.7,802.5,38.7,798z"/>
	<path class="st7" d="M62.8,790h1.7l7.2,15.8h-1.9l-1.8-4.2h-8.5l-1.9,4.2h-1.8L62.8,790z M67.2,800.1l-3.6-8l-3.6,8H67.2z"/>
	<path class="st7" d="M74.7,790.1h1.7l9.9,12.6v-12.6H88v15.7h-1.4L76.4,793v12.9h-1.7V790.1z"/>
	<path class="st7" d="M101,791.9l-3,0.9l-0.4-1.4l3.8-1.3h1.3v15.8H101V791.9z"/>
	<path class="st7" d="M106.8,804.2l1-1.4c1.3,1.1,2.5,1.7,3.9,1.7c2.8,0,4.7-2.9,4.7-6.9c-0.9,1.4-2.3,2.5-4.4,2.5
		c-3.2,0-5.5-2-5.5-4.9v0c0-3,2.3-5.3,5.7-5.3c1.8,0,3.1,0.6,4.1,1.6c1.2,1.2,2,2.9,2,6.1v0c0,5-2.6,8.5-6.5,8.5
		C109.6,806.1,108.1,805.3,106.8,804.2z M116,795.1L116,795.1c0-2-1.6-3.6-4-3.6c-2.4,0-3.8,1.7-3.8,3.7v0c0,2,1.6,3.4,3.9,3.4
		C114.5,798.6,116,796.9,116,795.1z"/>
	<path class="st7" d="M120.7,801.6L120.7,801.6c0-1.9,1.3-3.2,3.2-3.9c-1.5-0.7-2.7-1.8-2.7-3.6v0c0-2.4,2.5-4.2,5.4-4.2
		s5.4,1.7,5.4,4.2v0c0,1.8-1.2,2.9-2.7,3.6c1.9,0.7,3.2,2,3.2,3.8v0c0,2.7-2.6,4.5-5.9,4.5S120.7,804.3,120.7,801.6z M130.7,801.6
		L130.7,801.6c0-1.8-1.8-3-4.1-3c-2.3,0-4.1,1.2-4.1,3v0c0,1.6,1.5,2.9,4.1,2.9C129.2,804.5,130.7,803.2,130.7,801.6z M130.2,794.2
		L130.2,794.2c0-1.6-1.5-2.8-3.6-2.8c-2,0-3.6,1.1-3.6,2.7v0c0,1.7,1.6,2.9,3.6,2.9S130.2,795.9,130.2,794.2z"/>
	<path class="st7" d="M134.8,804.5l5.7-5c2.4-2.2,3.3-3.4,3.3-4.9c0-1.8-1.5-3-3.2-3c-1.8,0-3,0.9-4.2,2.7l-1.3-0.9
		c1.4-2.1,2.9-3.3,5.7-3.3c2.8,0,4.9,1.9,4.9,4.4v0c0,2.3-1.2,3.7-4,6.1l-4.2,3.7h8.3v1.6h-11V804.5z"/>
</g>
<rect x="-185.3" y="717.5" class="st5" width="152.1" height="26.8"/>
<g class="st6">
	<path class="st7" d="M-167.7,718.6h20.3v5.9h-13.4v3.8h12.1v5.5h-12.1v4h13.5v5.9h-20.4V718.6z"/>
	<path class="st7" d="M-145.6,740.1l3.9-4.6c2.5,2,5.3,3,8.2,3c1.9,0,2.9-0.6,2.9-1.7v-0.1c0-1-0.8-1.6-4.2-2.4
		c-5.4-1.2-9.5-2.7-9.5-7.9v-0.2c0-4.7,3.7-8.1,9.8-8.1c4.3,0,7.6,1.2,10.4,3.3l-3.5,4.9c-2.3-1.6-4.8-2.5-7.1-2.5
		c-1.7,0-2.5,0.7-2.5,1.6v0.1c0,1.2,0.9,1.7,4.4,2.4c5.8,1.3,9.4,3.1,9.4,7.8v0.1c0,5.1-4.1,8.2-10.2,8.2
		C-138.3,744.2-142.5,742.8-145.6,740.1z"/>
	<path class="st7" d="M-101.6,718.4h6.7l10.7,25.4h-7.5l-1.8-4.5h-9.7l-1.8,4.5h-7.3L-101.6,718.4z M-95.4,733.9l-2.8-7.2l-2.8,7.2
		H-95.4z"/>
	<path class="st7" d="M-83.9,740.1l3.9-4.6c2.5,2,5.3,3,8.2,3c1.9,0,2.9-0.6,2.9-1.7v-0.1c0-1-0.8-1.6-4.2-2.4
		c-5.4-1.2-9.5-2.7-9.5-7.9v-0.2c0-4.7,3.7-8.1,9.8-8.1c4.3,0,7.6,1.2,10.4,3.3l-3.5,4.9c-2.3-1.6-4.8-2.5-7.1-2.5
		c-1.7,0-2.5,0.7-2.5,1.6v0.1c0,1.2,0.9,1.7,4.4,2.4c5.8,1.3,9.4,3.1,9.4,7.8v0.1c0,5.1-4.1,8.2-10.2,8.2
		C-76.6,744.2-80.8,742.8-83.9,740.1z"/>
	<path class="st7" d="M-58.4,718.6h7v25.2h-7V718.6z M-53.9,710.3l6.4,2.1l-5.3,4.6h-4.8L-53.9,710.3z"/>
</g>
<g>
	<g>
		<g id="KRyJ1s.tif_11_">
			<g>
				<path class="st8" d="M-211,591.4c1.1,0.4,2.2,0.7,3.3,1.3c2.4,1.3,3.7,3.7,3.9,6.4c0.2,2.6-0.2,5-1.5,7.5
					c-0.9,1.8-1.8,3.3-2.8,4.8c-1.1,1.5-2.6,2.4-4.6,2.6c-1.8,0.2-3.1-0.9-3.3-2.6c-0.2-1.3,0-2.8,0.7-3.9c1.1-2.2,2.6-4.2,5.3-4.8
					c0.4-0.2,1.1-0.2,1.5-0.2c0.7,0,0.9-0.2,1.1-0.9c0.7-2.6-0.9-4.6-3.5-4.6c-1.3,0-2.8,0.2-4.2,0.7c-5.5,1.8-10.3,5-14.5,9
					c-13.6,12.5-24.3,27-32,43.8c-2.6,5.9-4.6,12.1-5.7,18.6c-0.7,4.4-0.9,9,0.2,13.4c1.3,5.7,4.8,9.4,10.1,11.6
					c4.4,1.8,8.8,2.4,13.4,2.2c7.5-0.7,14.7-2.6,21.9-4.4c8.3-2,16.7-4.2,25-5.9c7.9-1.8,15.8-2.6,23.9-2.2
					c9.2,0.4,17.8,3.3,25.4,8.8c4.2,3.1,8.5,6.1,12.3,9.9c0.7,0.7,1.3,1.3,1.8,2.2c-0.2-0.2-0.4-0.2-0.7-0.4
					c-7.5-4.8-15.8-7.7-24.8-7.5c-3.9,0-7.7,0.7-10.7,3.1c-1.5,1.3-2.8,2.8-4.4,4.2c0.2,0,0,0,0,0c-3.3-5.9-8.5-9.2-15.1-10.7
					c-4.6-1.1-9.2-1.3-13.8-0.9c-8.1,0.4-16,2.6-23.9,4.6c-7.2,1.8-14.7,3.5-22.1,4.8c-5.9,1.1-11.8,1.1-17.3-1.1
					c-8.5-3.1-13.8-9.2-15.8-18.2c-0.4-1.8-0.4-3.5-0.7-5.3c0-0.2-0.2-0.4-0.2-0.7c0-1.5,0-3.1,0-4.6c0.2-1.3,0.2-2.4,0.4-3.7
					c0.9-7,2.8-13.6,5.7-19.9c5.5-12.7,13.4-23.9,23.2-33.5c6.4-6.4,13.1-12.1,21-16.4c4.4-2.4,9-4.6,13.8-5.5
					c1.5-0.4,3.1-0.4,4.8-0.9C-213.2,591.4-212.1,591.4-211,591.4z"/>
				<path class="st8" d="M-205.5,639.8c0.7-0.2,1.3-0.2,1.8-0.4c1.5-0.9,3.3-1.5,4.8-2.6c3.3-2.2,5.9-4.8,8.5-7.7
					c2.6-2.9,5.7-5.5,9.2-7.7c2.8-2,5.9-3.1,9.6-2.8c4.6,0.2,7.7,3.9,7,8.5c-0.4,3.5-2,6.8-4.4,9.4c-0.9,0.9-2,1.8-3.1,2.2
					c-2,0.9-3.9-0.4-3.9-2.6c-0.2-3.7,3.3-7.7,7.2-8.1c0.2,0,0.7-0.2,0.7-0.4c0.7-1.3,0.2-3.7-2.2-3.7c-2,0-3.7,0.9-5,2
					c-2.8,2.2-5.5,4.8-7.7,7.7c-5.5,6.8-9.4,14.2-12.3,22.4c-0.7,2-1.1,4.2-0.7,6.1c0.4,3.3,3.1,5,6.1,4.2c2.8-0.7,5.3-2.4,7.5-4.4
					c4.6-4.2,8.8-9,12.5-14c3.5-4.6,7-9.4,10.5-14c3.5-4.4,7.5-8.3,12.1-11.6c2.2-1.5,4.4-2.8,7-3.3c2.8-0.4,5.3,0.4,7,2.8
					c0.2,0.2,0.2,0.2,0.4,0.4c0.2-0.2,0.2-0.2,0.2-0.2c0.7-1.5,1.8-1.8,3.3-1.8c2.6,0.2,5,0,7.7,0c0.2,0,0.7,0,1.1,0
					c-0.2,0.4-0.4,0.9-0.7,1.3c-7.5,12.7-14.7,25.6-22.1,38.4c-0.4,0.7-0.7,1.5-0.9,2.4c-0.2,1.1,0.7,1.8,1.8,1.3
					c0.9-0.2,1.5-0.9,2.4-1.3c2.6-2,5-4.4,7.2-7c2-2.4,3.9-4.8,5.7-7.2c0.4-0.7,0.9-0.9,1.8-0.9s1.5,0,2.4,0
					c-0.2,0.2-0.2,0.4-0.2,0.4c-4.6,6.6-9.4,13.1-15.1,18.8c-2.8,2.8-5.9,5.5-9.6,7.5c-1.8,0.9-3.5,1.3-5.3,0.9
					c-1.8-0.4-3.3-2.2-3.5-4.2c0-1.3,0-2.6-0.2-4.2c-0.2,0.2-0.4,0.4-0.4,0.7c-2,2.2-4.2,4.2-6.8,5.7c-1.8,1.1-3.5,1.8-5.5,2
					c-4.2,0.4-7-2-7.2-6.1c0-2.4,0.4-4.8,1.1-7c0-0.2,0.2-0.7,0-1.1c-0.2,0.2-0.4,0.4-0.9,0.7c-3.3,3.1-6.6,6.1-10.1,9
					c-2.8,2.4-6.1,3.9-9.9,4.4c-2,0.2-3.7,0.4-5.7-0.2c-3.9-1.3-5.7-4.4-6.4-8.3c-1.1-5,0.2-9.9,2.4-14.5c1.3-2.6,2.6-5.3,3.9-7.9
					c0.2-0.2,0.2-0.7,0.4-0.9c-1.5,0.4-2.6,0.7-3.9,0.9c-1.1,0.2-1.8,0.9-2.4,1.8c-2.6,4.2-5,8.5-8.1,12.5
					c-3.9,5.3-8.5,10.1-14.2,13.8c-2.4,1.5-4.8,2.6-7.7,3.1c-3.1,0.2-5.9-1.3-7.2-4.2c-1.1-2.4-1.1-4.8-0.9-7.5
					c0.7-7.5,3.7-14,7.7-20.2c4.8-7.5,10.5-14.2,17.8-19.3c3.1-2.2,6.1-3.9,9.9-4.6c5.5-1.1,9.2,2,9.2,7.7c0,3.1-0.7,6.1-1.8,9
					C-204.2,637-204.9,638.3-205.5,639.8z M-163.9,661.8c0.2,0.9,0.4,1.5,1.1,2s1.5,0.4,2.4,0c1.8-1.1,3.5-2.4,4.8-3.9
					c1.8-2.4,3.7-4.8,5.3-7.5c5-8.5,10.1-17.3,14.9-25.9c0.4-0.9,0.2-1.8-0.9-2.2c-0.9-0.4-1.8-0.2-2.6,0.2
					c-1.8,0.7-3.3,1.8-4.4,3.3c-3.5,4.4-7,8.8-10.5,13.4c-3.7,5-6.8,10.3-9,16.2C-163.2,658.9-163.5,660.2-163.9,661.8z
					 M-221.5,635.9c-0.2,0.2-0.4,0.4-0.4,0.7c-1.8,2.6-3.5,5.3-5,7.9c-2.4,3.9-4.4,7.9-5.3,12.3c-0.2,1.3-0.4,2.6-0.2,3.9
					c0.2,2.4,2,3.5,4.4,2.8c0.7-0.2,1.1-0.4,1.8-0.7c2.2-1.3,3.9-3.1,5.7-4.8c3.7-3.9,6.4-8.5,9-13.1c0.2-0.2,0.2-0.7,0.4-1.1
					C-215.8,642.3-219.3,640.1-221.5,635.9z M-206,628.7c0-0.4,0-0.9,0-1.3c-0.4-3.1-1.8-4.2-5-3.3c-0.4,0.2-1.1,0.4-1.5,0.7
					c-2.2,1.5-3.9,3.3-4.8,5.9c-0.7,2.2-0.7,4.2,0.9,5.9c1.5,2,3.7,3.1,6.4,3.5c0.4,0,0.9-0.2,0.9-0.7c0.7-1.3,1.3-2.8,1.8-4.2
					C-206.4,633.1-206,630.9-206,628.7z"/>
			</g>
		</g>
		<g id="KRyJ1s.tif_10_">
			<g>
				<path class="st8" d="M23.7,612.9c0.9-1.5,1.5-3.1,2.2-4.6s1.3-3.1,1.3-4.8c0-1.3-0.4-1.8-1.8-1.3c-1.1,0.4-2.2,1.1-3.3,1.8
					c-4.2,3.3-8.1,7.2-11.8,11.2C2.8,623.7-3.5,633-9.4,642.8c-3.7,6.1-7,12.3-10.5,18.4c-0.2,0.7-0.7,1.1-0.7,2
					c0.4-0.2,0.9-0.4,1.3-0.7c2.2-1.8,4.6-3.5,6.8-5.5c9.6-8.5,18.4-18,26.1-28.3c0.7-1.1,1.5-1.8,2.8-1.5c0.7,0,1.1-0.2,2-0.2
					c-0.4,0.7-0.9,1.3-1.1,1.8c-5,7-10.7,13.6-16.9,19.9c-7.2,7.7-15.1,14.7-23.9,20.8c-0.2,0.2-0.4,0.4-0.7,0.7
					c-2.6,5.9-5,11.6-6.4,18c-0.2,1.3-0.2,2.6,0,3.7c0.2,2,2,2.6,3.5,1.5c1.5-1.3,3.1-2.6,4.4-4.2c2.4-3.1,4.6-6.4,6.6-9.6
					c3.7-5.7,7.2-11.2,11.6-16.2c3.9-4.6,8.3-9,13.6-12.1c2.4-1.3,4.8-2,7.5-1.5c1.8,0.2,2.8,1.5,3.7,2.8c0.2,0.2,0.4,0.7,0.7,1.1
					c0.4-0.9,0.9-1.5,1.3-2.2c0.2-0.2,0.4-0.4,0.7-0.4c3.3,0,6.6,0,9.9,0h0.2c-0.2,0.2-0.2,0.7-0.4,0.9c-5,8.8-9.9,17.8-14.9,26.5
					c-2,3.5-3.9,6.8-5.9,10.3c-0.4,0.9-0.9,2-1.3,2.8c-0.2,0.7-0.4,1.3,0.2,1.8c0.7,0.4,1.3,0.2,2-0.2c2.8-1.8,5.3-3.9,7.5-6.6
					c2.4-3.3,4.8-6.6,7-9.9c0.2-0.4,0.7-0.7,1.3-0.7c0.9,0,1.8,0,2.6,0c-0.4,0.7-0.7,1.1-1.1,1.8c-4.2,6.4-8.5,12.5-13.8,18
					c-3.1,3.1-6.6,5.7-10.5,7.5c-1.1,0.4-2.2,0.7-3.3,0.7c-2.2,0-3.7-1.1-4.2-3.1c-0.2-1.3-0.2-2.8-0.2-4.4c0-0.2,0-0.7,0.2-0.9
					c0,0-0.2,0-0.2-0.2c-0.7,0.7-1.1,1.3-1.8,1.8c-2.4,2.4-5,4.4-8.1,5.9c-1.5,0.7-3.1,1.1-4.6,0.9c-2.8-0.4-4.6-2.4-5-5.7
					c-0.2-1.3,0-2.6,0-3.9c0-0.4,0-0.7,0-1.3c-0.4,0.4-0.7,0.7-0.9,0.9c-2.4,2.8-4.8,5.5-7.9,7.5c-1.3,0.9-2.6,1.5-4.2,2.2
					c-3.3,1.1-5.9-0.2-7.7-3.1c-0.9-1.8-1.1-3.5-1.1-5.5c0.2-4.4,1.3-8.3,2.6-12.5c0.9-2.4,1.5-4.8,2.4-7.5c-0.4,0-0.9,0.2-1.3,0.2
					c-1.3,0.2-2.6,0.4-3.9,0.4c-0.7,0-0.9,0.4-1.3,0.9c-2.6,4.2-5,8.1-7.9,12.1c-3.7,5.3-8.3,9.9-14,13.1c-2,1.1-3.9,2-6.1,2.2
					c-4.2,0.4-6.4-2.4-7-5.3c-0.7-2.8-0.4-5.9,0.2-8.8c1.3-6.4,4.2-12.1,7.7-17.3c3.7-5.9,7.9-11.4,13.1-15.8
					c3.1-2.6,6.6-5,10.5-6.4c1.5-0.4,3.1-0.7,4.6-0.4c3.1,0.2,4.6,2.6,5,4.8c0.7,3.3,0.2,6.4-0.9,9.4c-0.9,2.4-2,4.8-2.8,7.5
					c-0.2,0.2-0.2,0.4-0.4,0.9c2.2,0,3.9-0.4,5.7-1.3c0.2-0.2,0.4-0.4,0.4-0.9c5.3-11,11.2-21.7,18.2-32c8.5-12.5,18.2-23.9,30-33.3
					c2.8-2.2,5.7-4.4,9-5.9c1.5-0.7,3.3-1.1,5.3-1.1c2.2,0.2,3.5,1.3,3.5,3.5c0.2,2.8-0.4,5.5-1.8,7.9c-1.3,2.8-1.5,2.8-4.4,3.3
					C24.1,612.9,23.9,612.9,23.7,612.9z M-8.1,692c0,0.9,1.1,2,2.8,1.3c0.7-0.2,1.5-0.9,2.2-1.3c2.2-1.5,3.5-3.7,5-5.7
					c3.9-5.7,7.5-11.6,10.7-17.8c2-3.5,4.2-7,6.1-10.5c0.4-0.7,0.7-1.5,0-2.2c-0.7-0.9-1.3-0.9-2.2-0.7c-0.9,0.4-2,0.9-2.8,1.5
					c-1.1,0.9-2.2,1.8-3.1,2.8c-7.2,7.2-12.7,15.8-17.1,25C-7.4,686.5-8.1,688.9-8.1,692z M-55.8,666.6c-1.5,2.4-3.1,4.4-4.4,6.6
					c-2.4,3.9-4.6,7.9-5.9,12.5c-0.4,1.5-0.7,3.1-0.4,4.8c0.4,2,2,3.1,3.9,2.6s3.5-1.8,4.8-3.1c4.4-4.2,7.7-9.2,10.5-14.5
					c0.2-0.2,0.2-0.7,0.4-0.9C-50.6,672.9-53.9,670.7-55.8,666.6z M-40.7,658.9c0-0.4,0-0.9,0-1.3c-0.2-2-1.3-3.3-3.1-3.1
					c-0.7,0-1.5,0.2-2.2,0.4c-2,1.1-3.5,2.4-4.8,4.2c-3.1,5-0.2,10.7,5,12.5c0.2,0,0.7-0.2,0.9-0.4c0.4-0.9,1.1-1.8,1.5-2.8
					C-42,665.3-40.7,662.4-40.7,658.9z"/>
				<path class="st8" d="M2,611.6c-2.6,2.8-5,5.5-7.7,8.1c-0.2,0.2-0.7,0.2-0.9,0c-1.5-0.9-3.3-2-4.8-2.8c-4.8-3.1-9.6-6.4-14.7-9.2
					c-3.7-2.2-7.9-3.9-12.5-4.6c-1.3-0.2-2.8-0.2-4.2,0.2c-0.4,0.2-0.7,0.4-0.7,0.9c0.4,5-0.9,9.9-2.8,14.5
					c-2.6,6.6-6.6,12.1-11.8,16.9c-2.2,2-4.6,3.5-7.5,4.4c-3.9,1.1-6.8-0.9-7.5-4.8c-0.4-2.6,0.4-5,1.3-7.5
					c3.3-8.1,8.3-14.7,14.9-20.2c2.4-2,4.8-3.5,7.2-5.3c0.2-0.2,0.2-0.2,0.7-0.4c-1.5-0.7-3.1-0.7-4.4-0.4c-2.2,0.2-3.9,1.3-5.9,2.4
					c-7.2,3.9-13.4,9-19.1,14.9c-10.3,11-19.3,22.8-26.3,35.9c-3.9,7.2-7,14.9-8.3,23c-0.7,3.3-1.1,6.8-0.2,10.1
					c0.9,3.5,2.8,6.1,6.6,7.2c2.2,0.7,4.4,0.2,6.6-0.9c3.7-1.8,6.8-4.2,9.6-7.2c5.5-5.7,9.9-12.3,12.5-19.9c0.9-2.8,1.8-5.9,1.5-9
					c-0.2-2.8-2-4.2-4.6-3.1c-2,0.9-3.5,2.4-4.8,3.9c-2.8,3.7-4.6,7.9-5.7,12.5c0,0.2-0.2,0.7-0.7,0.9c-5,2.4-9.2,5.7-12.9,9.9
					c-0.2,0.2-0.2,0.2-0.4,0.4c1.3-9.2,3.9-17.5,9.9-24.5c3.5-4.2,7.7-7.2,13.1-8.3c1.3-0.2,2.8-0.7,4.2-0.2
					c2.4,0.7,3.7,2.2,4.6,4.4c0.9,3.1,0.9,5.9,0.2,9c-1.3,7-4.6,13.1-8.3,19.1c-4.8,7.5-11,13.6-18.8,18.2c-3.3,2-6.8,3.1-10.7,3.1
					c-6.1,0.2-10.5-2.6-13.6-7.7c-2.6-4.4-3.3-9.2-2.8-14.2c0.4-7.9,3.3-15.1,6.6-22.4c9.2-19.1,21.7-35.5,38.4-48.9
					c7-5.7,14.9-10.1,23.7-12.7c3.3-0.9,6.4-1.1,9.6-0.2c1.5,0.4,2.8,1.1,3.7,2.2c0.4,0.4,0.7,0.4,1.1,0.2c2.6-0.9,5.3-1.8,7.9-2.4
					c6.6-1.3,12.9-0.4,18.8,2.6C-11.1,603.9-4.6,607.6,2,611.6L2,611.6z M-46.4,604.8c-0.9,0.4-1.5,0.9-2.2,1.3
					c-8.3,5-14.5,12.3-19.1,21c-1.1,2-1.8,3.9-2,6.1c-0.2,2.8,2,4.6,4.6,3.3c1.1-0.4,2.2-1.1,3.1-1.8c9-7,14.5-16.2,15.6-27.6
					C-46.2,606.5-46.4,605.7-46.4,604.8z"/>
				<path class="st8" d="M53.3,597.3c-1.5,3.1-3.3,5.9-5.3,8.5c-6.8,8.5-14.9,14.7-25.4,18c-5.3,1.8-10.5,2.2-16,1.1
					c0,0-0.2,0-0.4,0s-0.4-0.2-0.9-0.2c0.2-0.2,0.2-0.4,0.4-0.7c2.2-2.6,4.4-5.3,6.6-8.1c0.2-0.2,0.7-0.4,0.9-0.4
					c6.4,0.7,12.3-0.4,18-2.8c8.3-3.5,15.3-8.5,21.5-14.9C53.1,597.5,53.3,597.5,53.3,597.3z"/>
			</g>
		</g>
		<path class="st8" d="M-101.2,619.2c-1.1,1.3-2,2.4-2.8,3.5c-1.1,1.3-2.2,2.6-3.1,3.9c-0.2,0.2-0.4,0.4-0.9,0.4c-3.5,0-7,0-10.3,0
			h-0.2l0.2-0.2c1.8-2.4,3.7-4.6,5.7-7c0.2-0.2,0.4-0.4,0.9-0.4C-108.7,619.2-104.9,619.2-101.2,619.2z"/>
	</g>
</g>
</svg>
