<?xml version="1.0" encoding="utf-8"?>
<!-- Generator: Adobe Illustrator 19.0.0, SVG Export Plug-In . SVG Version: 6.00 Build 0)  -->
<svg version="1.1" id="Layer_1" xmlns="http://www.w3.org/2000/svg" xmlns:xlink="http://www.w3.org/1999/xlink" x="0px" y="0px"
	 viewBox="-192.7 354 579.7 547.8" style="enable-background:new -192.7 354 579.7 547.8;" xml:space="preserve">
<style type="text/css">
	.st0{fill:#0E1215;}
	.st1{fill:#BA252B;}
	.st2{fill:#1A1A1A;}
	.st3{fill:#333333;}
	.st4{fill:#FFFFFF;}
	.st5{fill:none;}
	.st6{fill:#FFFDFD;}
	.st7{font-family:'Gotham-Book';}
	.st8{font-size:12px;}
	.st9{enable-background:new    ;}
	.st10{fill:#F1FFFF;}
</style>
<rect x="-192.9" y="359.2" class="st0" width="581.6" height="298"/>
<rect x="-180" y="370.5" class="st1" width="555.6" height="275.5"/>
<rect x="-134" y="650" class="st0" width="11" height="251.8"/>
<rect x="-133.4" y="767.7" class="st0" width="77.1" height="11"/>
<rect x="-96.3" y="641.7" transform="matrix(-0.5725 0.8199 -0.8199 -0.5725 416.5721 1147.4093)" class="st0" width="11" height="81.2"/>
<rect x="-164.3" y="629.9" transform="matrix(-0.3813 0.9244 -0.9244 -0.3813 394.7452 1064.5083)" class="st0" width="11" height="68.8"/>
<rect x="353.7" y="632.6" transform="matrix(0.3813 0.9244 -0.9244 0.3813 835.2142 78.8133)" class="st0" width="10.1" height="61.6"/>
<rect x="-96.4" y="641.7" transform="matrix(0.5725 0.8199 -0.8199 0.5725 520.6052 366.2074)" class="st0" width="11" height="81.2"/>
<rect x="-97.2" y="700.2" transform="matrix(0.5725 0.8199 -0.8199 0.5725 569.9121 392.8062)" class="st0" width="11" height="85.4"/>
<rect x="-97.2" y="764.8" transform="matrix(0.5725 0.8199 -0.8199 0.5725 622.8863 420.392)" class="st0" width="11" height="85.4"/>
<rect x="-97.2" y="821.6" transform="matrix(0.5725 0.8199 -0.8199 0.5725 669.3954 444.6992)" class="st0" width="11" height="85.4"/>
<rect x="-97.3" y="700.4" transform="matrix(-0.5725 0.8199 -0.8199 -0.5725 463.2138 1240.4438)" class="st0" width="11" height="81.2"/>
<rect x="-97.3" y="763" transform="matrix(-0.5725 0.8199 -0.8199 -0.5725 514.5431 1338.9142)" class="st0" width="11" height="81.2"/>
<rect x="-97.3" y="824.4" transform="matrix(-0.5725 0.8199 -0.8199 -0.5725 564.8346 1435.5021)" class="st0" width="11" height="81.2"/>
<rect x="-133.4" y="831" class="st0" width="77.1" height="11"/>
<rect x="-133.4" y="886.2" class="st0" width="77.1" height="11"/>
<rect x="-133.4" y="705.9" class="st0" width="77.1" height="11"/>
<rect x="-52.4" y="667.4" class="st0" width="304.1" height="11"/>
<rect x="249.8" y="767.7" class="st0" width="77.1" height="11"/>
<rect x="287" y="641.7" transform="matrix(-0.5725 0.8199 -0.8199 -0.5725 1019.3427 833.1134)" class="st0" width="11" height="81.2"/>
<rect x="67.6" y="642.9" transform="matrix(-0.5725 0.8199 -0.8199 -0.5725 658.2859 982.1464)" class="st0" width="11" height="39.5"/>
<rect x="109.4" y="642.8" transform="matrix(0.5725 0.8199 -0.8199 0.5725 592.3781 189.0083)" class="st0" width="11" height="39.5"/>
<rect x="287" y="641.7" transform="matrix(0.5725 0.8199 -0.8199 0.5725 684.473 51.8523)" class="st0" width="11" height="81.2"/>
<rect x="286.2" y="700.2" transform="matrix(0.5725 0.8199 -0.8199 0.5725 733.8298 78.4275)" class="st0" width="11" height="85.4"/>
<rect x="286.1" y="764.7" transform="matrix(0.5725 0.8199 -0.8199 0.5725 786.6853 106.0989)" class="st0" width="11" height="85.4"/>
<rect x="286" y="821.5" transform="matrix(0.5725 0.8199 -0.8199 0.5725 833.1949 130.406)" class="st0" width="11" height="85.4"/>
<rect x="286.1" y="700.4" transform="matrix(-0.5725 0.8199 -0.8199 -0.5725 1066.0647 926.1259)" class="st0" width="11" height="81.2"/>
<rect x="286" y="763" transform="matrix(-0.5725 0.8199 -0.8199 -0.5725 1117.3145 1024.6183)" class="st0" width="11" height="81.2"/>
<rect x="286.1" y="824.4" transform="matrix(-0.5725 0.8199 -0.8199 -0.5725 1167.8385 1121.1277)" class="st0" width="11" height="81.2"/>
<rect x="249.8" y="831" class="st0" width="77.1" height="11"/>
<rect x="249.8" y="886.2" class="st0" width="77.1" height="11"/>
<rect x="249.8" y="705.9" class="st0" width="77.1" height="11"/>
<rect x="257.1" y="769.2" class="st0" width="74.2" height="13.7"/>
<rect x="253.7" y="836.6" class="st0" width="77.1" height="11"/>
<rect x="259.8" y="705" class="st0" width="71" height="11.9"/>
<rect x="-61.5" y="650" class="st0" width="11" height="251.8"/>
<rect x="88.7" y="650" class="st0" width="11" height="23.7"/>
<rect x="249.1" y="650" class="st0" width="11" height="251.8"/>
<rect x="322.6" y="650" class="st0" width="11" height="251.8"/>
<rect x="21.9" y="362.8" class="st2" width="9.5" height="25"/>
<rect x="157.9" y="362.8" class="st2" width="9.5" height="25"/>
<rect x="283.9" y="362.8" class="st2" width="9.5" height="25"/>
<path class="st3" d="M-83.1,396.6h-19.6c-3.2,0-5.6-2.9-4.9-5.9l1.6-7.5c0.5-2.2,2.5-3.8,4.9-3.8h16.5c2.3,0,4.5,1.6,4.9,4l1.4,7.5
	C-77.7,393.9-80,396.6-83.1,396.6z"/>
<path class="st2" d="M-93,387.8L-93,387.8c-2.7,0-4.7-2.2-4.7-4.7v-20.3h9.5v20.3C-88.3,385.6-90.5,387.8-93,387.8z"/>
<path class="st3" d="M36.1,396.6H16.7c-3.2,0-5.6-2.9-4.9-5.9l1.6-7.5c0.5-2.2,2.5-3.8,4.9-3.8h16.4c2.3,0,4.5,1.6,4.9,4l1.4,7.5
	C41.5,393.9,39.1,396.6,36.1,396.6z"/>
<path class="st2" d="M26.2,387.8L26.2,387.8c-2.7,0-4.7-2.2-4.7-4.7v-20.3H31v20.3C30.9,385.6,28.9,387.8,26.2,387.8z"/>
<path class="st3" d="M172.7,396.6h-19.4c-3.2,0-5.6-2.9-4.9-5.9l1.6-7.5c0.5-2.2,2.5-3.8,4.9-3.8h16.4c2.3,0,4.5,1.6,4.9,4l1.4,7.5
	C178.1,393.9,175.7,396.6,172.7,396.6z"/>
<path class="st2" d="M162.8,387.8L162.8,387.8c-2.7,0-4.7-2.2-4.7-4.7v-20.3h9.5v20.3C167.5,385.6,165.3,387.8,162.8,387.8z"/>
<path class="st3" d="M298.3,396.6h-19.4c-3.2,0-5.6-2.9-4.9-5.9l1.6-7.5c0.5-2.2,2.5-3.8,4.9-3.8h16.4c2.3,0,4.5,1.6,4.9,4l1.4,7.5
	C303.7,393.9,301.5,396.6,298.3,396.6z"/>
<path class="st2" d="M288.6,387.8L288.6,387.8c-2.7,0-4.7-2.2-4.7-4.7v-20.3h9.5v20.3C293.3,385.6,291.1,387.8,288.6,387.8z"/>
<path class="st4" d="M281.2,570.7c-59.3,10.8-118.8,20-179.7,21.2c-49.4,0.9-98-3.2-145.9-13.5c-47.8-10.2-91.7-27.9-133-49.2
	c-0.7-0.4-0.7-0.7-1.8-1.1l-0.7,54.5c2.2,0.7,4.7,1.1,6.7,1.8c51,17.6,104.6,24.4,159.6,23.7c35.8-0.5,71.4-4,106.8-8.1
	c58.2-6.8,116.1-16,174.9-19.4c27.9-1.6,55.5-1.8,83.2,2.2c8.1,1.3,16.5,2.7,24.4,4c0.2-8.3,0.2-16.7,0.4-25
	C343.4,560.3,312.3,565,281.2,570.7z"/>
<rect x="253.4" y="623.2" class="st5" width="121" height="16"/>
<text transform="matrix(1 0 0 1 271.8718 631.9598)" class="st6 st7 st8">SLOGAN 1982</text>
<rect x="23.7" y="540.3" class="st5" width="152.1" height="26.8"/>
<g class="st9">
	<path class="st6" d="M41.3,541.4h20.3v5.9H48.2v3.8h12.1v5.5H48.2v4h13.5v5.9H41.3V541.4z"/>
	<path class="st6" d="M63.4,562.9l3.9-4.6c2.5,2,5.3,3,8.2,3c1.9,0,2.9-0.6,2.9-1.7v-0.1c0-1-0.8-1.6-4.2-2.4
		c-5.4-1.2-9.5-2.7-9.5-7.9V549c0-4.7,3.7-8.1,9.8-8.1c4.3,0,7.6,1.2,10.4,3.3l-3.5,4.9c-2.3-1.6-4.8-2.5-7.1-2.5
		c-1.7,0-2.5,0.7-2.5,1.6v0.1c0,1.2,0.9,1.7,4.4,2.4c5.8,1.3,9.4,3.1,9.4,7.8v0.1c0,5.1-4.1,8.2-10.2,8.2
		C70.7,567,66.5,565.6,63.4,562.9z"/>
	<path class="st6" d="M107.4,541.2h6.7l10.7,25.4h-7.5l-1.8-4.5h-9.7l-1.8,4.5h-7.3L107.4,541.2z M113.6,556.7l-2.8-7.2l-2.8,7.2
		H113.6z"/>
	<path class="st6" d="M125.1,562.9l3.9-4.6c2.5,2,5.3,3,8.2,3c1.9,0,2.9-0.6,2.9-1.7v-0.1c0-1-0.8-1.6-4.2-2.4
		c-5.4-1.2-9.5-2.7-9.5-7.9V549c0-4.7,3.7-8.1,9.8-8.1c4.3,0,7.6,1.2,10.4,3.3l-3.5,4.9c-2.3-1.6-4.8-2.5-7.1-2.5
		c-1.7,0-2.5,0.7-2.5,1.6v0.1c0,1.2,0.9,1.7,4.4,2.4c5.8,1.3,9.4,3.1,9.4,7.8v0.1c0,5.1-4.1,8.2-10.2,8.2
		C132.4,567,128.2,565.6,125.1,562.9z"/>
	<path class="st6" d="M150.6,541.4h7v25.2h-7V541.4z M155.1,533.1l6.4,2.1l-5.3,4.6h-4.8L155.1,533.1z"/>
</g>
<g>
	<g>
		<g id="KRyJ1s.tif_11_">
			<g>
				<path class="st10" d="M-2,414.2c1.1,0.4,2.2,0.7,3.3,1.3c2.4,1.3,3.7,3.7,3.9,6.4c0.2,2.6-0.2,5-1.5,7.5
					c-0.9,1.8-1.8,3.3-2.8,4.8c-1.1,1.5-2.6,2.4-4.6,2.6c-1.8,0.2-3.1-0.9-3.3-2.6c-0.2-1.3,0-2.8,0.7-3.9c1.1-2.2,2.6-4.2,5.3-4.8
					c0.4-0.2,1.1-0.2,1.5-0.2c0.7,0,0.9-0.2,1.1-0.9c0.7-2.6-0.9-4.6-3.5-4.6c-1.3,0-2.8,0.2-4.2,0.7c-5.5,1.8-10.3,5-14.5,9
					c-13.6,12.5-24.3,27-32,43.8c-2.6,5.9-4.6,12.1-5.7,18.6c-0.7,4.4-0.9,9,0.2,13.4c1.3,5.7,4.8,9.4,10.1,11.6
					c4.4,1.8,8.8,2.4,13.4,2.2c7.5-0.7,14.7-2.6,21.9-4.4c8.3-2,16.7-4.2,25-5.9c7.9-1.8,15.8-2.6,23.9-2.2
					c9.2,0.4,17.8,3.3,25.4,8.8c4.2,3.1,8.5,6.1,12.3,9.9c0.7,0.7,1.3,1.3,1.8,2.2c-0.2-0.2-0.4-0.2-0.7-0.4
					c-7.5-4.8-15.8-7.7-24.8-7.5c-3.9,0-7.7,0.7-10.7,3.1c-1.5,1.3-2.8,2.8-4.4,4.2c0.2,0,0,0,0,0c-3.3-5.9-8.5-9.2-15.1-10.7
					c-4.6-1.1-9.2-1.3-13.8-0.9c-8.1,0.4-16,2.6-23.9,4.6c-7.2,1.8-14.7,3.5-22.1,4.8c-5.9,1.1-11.8,1.1-17.3-1.1
					c-8.5-3.1-13.8-9.2-15.8-18.2c-0.4-1.8-0.4-3.5-0.7-5.3c0-0.2-0.2-0.4-0.2-0.7c0-1.5,0-3.1,0-4.6c0.2-1.3,0.2-2.4,0.4-3.7
					c0.9-7,2.8-13.6,5.7-19.9c5.5-12.7,13.4-23.9,23.2-33.5c6.4-6.4,13.1-12.1,21-16.4c4.4-2.4,9-4.6,13.8-5.5
					c1.5-0.4,3.1-0.4,4.8-0.9C-4.2,414.2-3.1,414.2-2,414.2z"/>
				<path class="st10" d="M3.5,462.6c0.7-0.2,1.3-0.2,1.8-0.4c1.5-0.9,3.3-1.5,4.8-2.6c3.3-2.2,5.9-4.8,8.5-7.7s5.7-5.5,9.2-7.7
					c2.8-2,5.9-3.1,9.6-2.8c4.6,0.2,7.7,3.9,7,8.5c-0.4,3.5-2,6.8-4.4,9.4c-0.9,0.9-2,1.8-3.1,2.2c-2,0.9-3.9-0.4-3.9-2.6
					c-0.2-3.7,3.3-7.7,7.2-8.1c0.2,0,0.7-0.2,0.7-0.4c0.7-1.3,0.2-3.7-2.2-3.7c-2,0-3.7,0.9-5,2c-2.8,2.2-5.5,4.8-7.7,7.7
					c-5.5,6.8-9.4,14.2-12.3,22.4c-0.7,2-1.1,4.2-0.7,6.1c0.4,3.3,3.1,5,6.1,4.2c2.8-0.7,5.3-2.4,7.5-4.4c4.6-4.2,8.8-9,12.5-14
					c3.5-4.6,7-9.4,10.5-14c3.5-4.4,7.5-8.3,12.1-11.6c2.2-1.5,4.4-2.8,7-3.3c2.8-0.4,5.3,0.4,7,2.8c0.2,0.2,0.2,0.2,0.4,0.4
					c0.2-0.2,0.2-0.2,0.2-0.2c0.7-1.5,1.8-1.8,3.3-1.8c2.6,0.2,5,0,7.7,0c0.2,0,0.7,0,1.1,0c-0.2,0.4-0.4,0.9-0.7,1.3
					c-7.5,12.7-14.7,25.6-22.1,38.4c-0.4,0.7-0.7,1.5-0.9,2.4c-0.2,1.1,0.7,1.8,1.8,1.3c0.9-0.2,1.5-0.9,2.4-1.3c2.6-2,5-4.4,7.2-7
					c2-2.4,3.9-4.8,5.7-7.2c0.4-0.7,0.9-0.9,1.8-0.9c0.9,0,1.5,0,2.4,0c-0.2,0.2-0.2,0.4-0.2,0.4c-4.6,6.6-9.4,13.1-15.1,18.8
					c-2.8,2.8-5.9,5.5-9.6,7.5c-1.8,0.9-3.5,1.3-5.3,0.9c-1.8-0.4-3.3-2.2-3.5-4.2c0-1.3,0-2.6-0.2-4.2c-0.2,0.2-0.4,0.4-0.4,0.7
					c-2,2.2-4.2,4.2-6.8,5.7c-1.8,1.1-3.5,1.8-5.5,2c-4.2,0.4-7-2-7.2-6.1c0-2.4,0.4-4.8,1.1-7c0-0.2,0.2-0.7,0-1.1
					c-0.2,0.2-0.4,0.4-0.9,0.7c-3.3,3.1-6.6,6.1-10.1,9c-2.8,2.4-6.1,3.9-9.9,4.4c-2,0.2-3.7,0.4-5.7-0.2c-3.9-1.3-5.7-4.4-6.4-8.3
					c-1.1-5,0.2-9.9,2.4-14.5c1.3-2.6,2.6-5.3,3.9-7.9c0.2-0.2,0.2-0.7,0.4-0.9c-1.5,0.4-2.6,0.7-3.9,0.9c-1.1,0.2-1.8,0.9-2.4,1.8
					c-2.6,4.2-5,8.5-8.1,12.5c-3.9,5.3-8.5,10.1-14.2,13.8c-2.4,1.5-4.8,2.6-7.7,3.1c-3.1,0.2-5.9-1.3-7.2-4.2
					c-1.1-2.4-1.1-4.8-0.9-7.5c0.7-7.5,3.7-14,7.7-20.2c4.8-7.5,10.5-14.2,17.8-19.3c3.1-2.2,6.1-3.9,9.9-4.6c5.5-1.1,9.2,2,9.2,7.7
					c0,3.1-0.7,6.1-1.8,9C4.8,459.8,4.1,461.1,3.5,462.6z M45.1,484.6c0.2,0.9,0.4,1.5,1.1,2s1.5,0.4,2.4,0c1.8-1.1,3.5-2.4,4.8-3.9
					c1.8-2.4,3.7-4.8,5.3-7.5c5-8.5,10.1-17.3,14.9-25.9c0.4-0.9,0.2-1.8-0.9-2.2c-0.9-0.4-1.8-0.2-2.6,0.2
					c-1.8,0.7-3.3,1.8-4.4,3.3c-3.5,4.4-7,8.8-10.5,13.4c-3.7,5-6.8,10.3-9,16.2C45.8,481.7,45.5,483,45.1,484.6z M-12.5,458.7
					c-0.2,0.2-0.4,0.4-0.4,0.7c-1.8,2.6-3.5,5.3-5,7.9c-2.4,3.9-4.4,7.9-5.3,12.3c-0.2,1.3-0.4,2.6-0.2,3.9c0.2,2.4,2,3.5,4.4,2.8
					c0.7-0.2,1.1-0.4,1.8-0.7c2.2-1.3,3.9-3.1,5.7-4.8c3.7-3.9,6.4-8.5,9-13.1c0.2-0.2,0.2-0.7,0.4-1.1
					C-6.8,465.1-10.3,462.9-12.5,458.7z M3,451.5c0-0.4,0-0.9,0-1.3c-0.4-3.1-1.8-4.2-5-3.3c-0.4,0.2-1.1,0.4-1.5,0.7
					c-2.2,1.5-3.9,3.3-4.8,5.9c-0.7,2.2-0.7,4.2,0.9,5.9c1.5,2,3.7,3.1,6.4,3.5c0.4,0,0.9-0.2,0.9-0.7c0.7-1.3,1.3-2.8,1.8-4.2
					C2.6,455.9,3,453.7,3,451.5z"/>
			</g>
		</g>
		<g id="KRyJ1s.tif_10_">
			<g>
				<path class="st10" d="M232.7,435.7c0.9-1.5,1.5-3.1,2.2-4.6c0.7-1.5,1.3-3.1,1.3-4.8c0-1.3-0.4-1.8-1.8-1.3
					c-1.1,0.4-2.2,1.1-3.3,1.8c-4.2,3.3-8.1,7.2-11.8,11.2c-7.5,8.5-13.8,17.8-19.7,27.6c-3.7,6.1-7,12.3-10.5,18.4
					c-0.2,0.7-0.7,1.1-0.7,2c0.4-0.2,0.9-0.4,1.3-0.7c2.2-1.8,4.6-3.5,6.8-5.5c9.6-8.5,18.4-18,26.1-28.3c0.7-1.1,1.5-1.8,2.8-1.5
					c0.7,0,1.1-0.2,2-0.2c-0.4,0.7-0.9,1.3-1.1,1.8c-5,7-10.7,13.6-16.9,19.9c-7.2,7.7-15.1,14.7-23.9,20.8
					c-0.2,0.2-0.4,0.4-0.7,0.7c-2.6,5.9-5,11.6-6.4,18c-0.2,1.3-0.2,2.6,0,3.7c0.2,2,2,2.6,3.5,1.5c1.5-1.3,3.1-2.6,4.4-4.2
					c2.4-3.1,4.6-6.4,6.6-9.6c3.7-5.7,7.2-11.2,11.6-16.2c3.9-4.6,8.3-9,13.6-12.1c2.4-1.3,4.8-2,7.5-1.5c1.8,0.2,2.8,1.5,3.7,2.8
					c0.2,0.2,0.4,0.7,0.7,1.1c0.4-0.9,0.9-1.5,1.3-2.2c0.2-0.2,0.4-0.4,0.7-0.4c3.3,0,6.6,0,9.9,0h0.2c-0.2,0.2-0.2,0.7-0.4,0.9
					c-5,8.8-9.9,17.8-14.9,26.5c-2,3.5-3.9,6.8-5.9,10.3c-0.4,0.9-0.9,2-1.3,2.8c-0.2,0.7-0.4,1.3,0.2,1.8c0.7,0.4,1.3,0.2,2-0.2
					c2.8-1.8,5.3-3.9,7.5-6.6c2.4-3.3,4.8-6.6,7-9.9c0.2-0.4,0.7-0.7,1.3-0.7c0.9,0,1.8,0,2.6,0c-0.4,0.7-0.7,1.1-1.1,1.8
					c-4.2,6.4-8.5,12.5-13.8,18c-3.1,3.1-6.6,5.7-10.5,7.5c-1.1,0.4-2.2,0.7-3.3,0.7c-2.2,0-3.7-1.1-4.2-3.1
					c-0.2-1.3-0.2-2.8-0.2-4.4c0-0.2,0-0.7,0.2-0.9c0,0-0.2,0-0.2-0.2c-0.7,0.7-1.1,1.3-1.8,1.8c-2.4,2.4-5,4.4-8.1,5.9
					c-1.5,0.7-3.1,1.1-4.6,0.9c-2.8-0.4-4.6-2.4-5-5.7c-0.2-1.3,0-2.6,0-3.9c0-0.4,0-0.7,0-1.3c-0.4,0.4-0.7,0.7-0.9,0.9
					c-2.4,2.8-4.8,5.5-7.9,7.5c-1.3,0.9-2.6,1.5-4.2,2.2c-3.3,1.1-5.9-0.2-7.7-3.1c-0.9-1.8-1.1-3.5-1.1-5.5
					c0.2-4.4,1.3-8.3,2.6-12.5c0.9-2.4,1.5-4.8,2.4-7.5c-0.4,0-0.9,0.2-1.3,0.2c-1.3,0.2-2.6,0.4-3.9,0.4c-0.7,0-0.9,0.4-1.3,0.9
					c-2.6,4.2-5,8.1-7.9,12.1c-3.7,5.3-8.3,9.9-14,13.1c-2,1.1-3.9,2-6.1,2.2c-4.2,0.4-6.4-2.4-7-5.3c-0.7-2.8-0.4-5.9,0.2-8.8
					c1.3-6.4,4.2-12.1,7.7-17.3c3.7-5.9,7.9-11.4,13.1-15.8c3.1-2.6,6.6-5,10.5-6.4c1.5-0.4,3.1-0.7,4.6-0.4c3.1,0.2,4.6,2.6,5,4.8
					c0.7,3.3,0.2,6.4-0.9,9.4c-0.9,2.4-2,4.8-2.8,7.5c-0.2,0.2-0.2,0.4-0.4,0.9c2.2,0,3.9-0.4,5.7-1.3c0.2-0.2,0.4-0.4,0.4-0.9
					c5.3-11,11.2-21.7,18.2-32c8.5-12.5,18.2-23.9,30-33.3c2.8-2.2,5.7-4.4,9-5.9c1.5-0.7,3.3-1.1,5.3-1.1c2.2,0.2,3.5,1.3,3.5,3.5
					c0.2,2.8-0.4,5.5-1.8,7.9c-1.3,2.8-1.5,2.8-4.4,3.3C233.1,435.7,232.9,435.7,232.7,435.7z M200.9,514.8c0,0.9,1.1,2,2.8,1.3
					c0.7-0.2,1.5-0.9,2.2-1.3c2.2-1.5,3.5-3.7,5-5.7c3.9-5.7,7.5-11.6,10.7-17.8c2-3.5,4.2-7,6.1-10.5c0.4-0.7,0.7-1.5,0-2.2
					c-0.7-0.9-1.3-0.9-2.2-0.7c-0.9,0.4-2,0.9-2.8,1.5c-1.1,0.9-2.2,1.8-3.1,2.8c-7.2,7.2-12.7,15.8-17.1,25
					C201.6,509.3,200.9,511.7,200.9,514.8z M153.2,489.4c-1.5,2.4-3.1,4.4-4.4,6.6c-2.4,3.9-4.6,7.9-5.9,12.5
					c-0.4,1.5-0.7,3.1-0.4,4.8c0.4,2,2,3.1,3.9,2.6s3.5-1.8,4.8-3.1c4.4-4.2,7.7-9.2,10.5-14.5c0.2-0.2,0.2-0.7,0.4-0.9
					C158.4,495.7,155.1,493.5,153.2,489.4z M168.3,481.7c0-0.4,0-0.9,0-1.3c-0.2-2-1.3-3.3-3.1-3.1c-0.7,0-1.5,0.2-2.2,0.4
					c-2,1.1-3.5,2.4-4.8,4.2c-3.1,5-0.2,10.7,5,12.5c0.2,0,0.7-0.2,0.9-0.4c0.4-0.9,1.1-1.8,1.5-2.8
					C167,488.1,168.3,485.2,168.3,481.7z"/>
				<path class="st10" d="M211,434.4c-2.6,2.8-5,5.5-7.7,8.1c-0.2,0.2-0.7,0.2-0.9,0c-1.5-0.9-3.3-2-4.8-2.8
					c-4.8-3.1-9.6-6.4-14.7-9.2c-3.7-2.2-7.9-3.9-12.5-4.6c-1.3-0.2-2.8-0.2-4.2,0.2c-0.4,0.2-0.7,0.4-0.7,0.9
					c0.4,5-0.9,9.9-2.8,14.5c-2.6,6.6-6.6,12.1-11.8,16.9c-2.2,2-4.6,3.5-7.5,4.4c-3.9,1.1-6.8-0.9-7.5-4.8c-0.4-2.6,0.4-5,1.3-7.5
					c3.3-8.1,8.3-14.7,14.9-20.2c2.4-2,4.8-3.5,7.2-5.3c0.2-0.2,0.2-0.2,0.7-0.4c-1.5-0.7-3.1-0.7-4.4-0.4c-2.2,0.2-3.9,1.3-5.9,2.4
					c-7.2,3.9-13.4,9-19.1,14.9c-10.3,11-19.3,22.8-26.3,35.9c-3.9,7.2-7,14.9-8.3,23c-0.7,3.3-1.1,6.8-0.2,10.1
					c0.9,3.5,2.8,6.1,6.6,7.2c2.2,0.7,4.4,0.2,6.6-0.9c3.7-1.8,6.8-4.2,9.6-7.2c5.5-5.7,9.9-12.3,12.5-19.9c0.9-2.8,1.8-5.9,1.5-9
					c-0.2-2.8-2-4.2-4.6-3.1c-2,0.9-3.5,2.4-4.8,3.9c-2.8,3.7-4.6,7.9-5.7,12.5c0,0.2-0.2,0.7-0.7,0.9c-5,2.4-9.2,5.7-12.9,9.9
					c-0.2,0.2-0.2,0.2-0.4,0.4c1.3-9.2,3.9-17.5,9.9-24.5c3.5-4.2,7.7-7.2,13.1-8.3c1.3-0.2,2.8-0.7,4.2-0.2
					c2.4,0.7,3.7,2.2,4.6,4.4c0.9,3.1,0.9,5.9,0.2,9c-1.3,7-4.6,13.1-8.3,19.1c-4.8,7.5-11,13.6-18.8,18.2c-3.3,2-6.8,3.1-10.7,3.1
					c-6.1,0.2-10.5-2.6-13.6-7.7c-2.6-4.4-3.3-9.2-2.8-14.2c0.4-7.9,3.3-15.1,6.6-22.4c9.2-19.1,21.7-35.5,38.4-48.9
					c7-5.7,14.9-10.1,23.7-12.7c3.3-0.9,6.4-1.1,9.6-0.2c1.5,0.4,2.8,1.1,3.7,2.2c0.4,0.4,0.7,0.4,1.1,0.2c2.6-0.9,5.3-1.8,7.9-2.4
					c6.6-1.3,12.9-0.4,18.8,2.6C197.9,426.7,204.4,430.4,211,434.4L211,434.4z M162.6,427.6c-0.9,0.4-1.5,0.9-2.2,1.3
					c-8.3,5-14.5,12.3-19.1,21c-1.1,2-1.8,3.9-2,6.1c-0.2,2.8,2,4.6,4.6,3.3c1.1-0.4,2.2-1.1,3.1-1.8c9-7,14.5-16.2,15.6-27.6
					C162.8,429.3,162.6,428.5,162.6,427.6z"/>
				<path class="st10" d="M262.3,420.1c-1.5,3.1-3.3,5.9-5.3,8.5c-6.8,8.5-14.9,14.7-25.4,18c-5.3,1.8-10.5,2.2-16,1.1
					c0,0-0.2,0-0.4,0s-0.4-0.2-0.9-0.2c0.2-0.2,0.2-0.4,0.4-0.7c2.2-2.6,4.4-5.3,6.6-8.1c0.2-0.2,0.7-0.4,0.9-0.4
					c6.4,0.7,12.3-0.4,18-2.8c8.3-3.5,15.3-8.5,21.5-14.9C262.1,420.3,262.3,420.3,262.3,420.1z"/>
			</g>
		</g>
		<path class="st10" d="M107.8,442c-1.1,1.3-2,2.4-2.8,3.5c-1.1,1.3-2.2,2.6-3.1,3.9c-0.2,0.2-0.4,0.4-0.9,0.4c-3.5,0-7,0-10.3,0
			h-0.2l0.2-0.2c1.8-2.4,3.7-4.6,5.7-7c0.2-0.2,0.4-0.4,0.9-0.4C100.3,442,104.1,442,107.8,442z"/>
	</g>
</g>
</svg>
