<?xml version="1.0" encoding="utf-8"?>
<!-- Generator: Adobe Illustrator 19.0.0, SVG Export Plug-In . SVG Version: 6.00 Build 0)  -->
<svg version="1.1" id="Layer_1" xmlns="http://www.w3.org/2000/svg" xmlns:xlink="http://www.w3.org/1999/xlink" x="0px" y="0px"
	 viewBox="6 176 591 550" style="enable-background:new 6 176 591 550;" xml:space="preserve">
<style type="text/css">
	.st0{fill:#0E1215;}
	.st1{fill:#BA252B;}
	.st2{fill:#1A1A1A;}
	.st3{fill:#333333;}
	.st4{fill:#FFFFFF;}
	.st5{fill:none;}
	.st6{fill:#FFFDFD;}
	.st7{font-family:'Gotham-Book';}
	.st8{font-size:12px;}
	.st9{font-family:'Gotham-Black';}
	.st10{font-size:36px;}
</style>
<rect x="11.1" y="183.2" class="st0" width="581.6" height="298"/>
<rect x="24" y="194.5" class="st1" width="555.6" height="275.5"/>
<rect x="70" y="474" class="st0" width="11" height="251.8"/>
<rect x="70.6" y="591.7" class="st0" width="77.1" height="11"/>
<rect x="107.7" y="465.7" transform="matrix(0.5725 -0.8199 0.8199 0.5725 -366.7661 309.261)" class="st0" width="11" height="81.2"/>
<rect x="39.7" y="453.9" transform="matrix(0.3813 -0.9244 0.9244 0.3813 -423.4565 343.9394)" class="st0" width="11" height="68.8"/>
<rect x="557.7" y="456.6" transform="matrix(-0.3813 -0.9244 0.9244 -0.3813 326.7491 1193.4532)" class="st0" width="10.1" height="61.6"/>
<rect x="107.7" y="465.7" transform="matrix(-0.5725 -0.8199 0.8199 -0.5725 -237.1826 889.0107)" class="st0" width="11" height="81.2"/>
<rect x="106.8" y="524.3" transform="matrix(-0.5725 -0.8199 0.8199 -0.5725 -288.3193 983.606)" class="st0" width="11" height="85.4"/>
<rect x="106.8" y="588.8" transform="matrix(-0.5725 -0.8199 0.8199 -0.5725 -341.1694 1085.1251)" class="st0" width="11" height="85.4"/>
<rect x="106.8" y="645.5" transform="matrix(-0.5725 -0.8199 0.8199 -0.5725 -387.7127 1174.3396)" class="st0" width="11" height="85.4"/>
<rect x="106.7" y="524.4" transform="matrix(0.5725 -0.8199 0.8199 0.5725 -415.255 333.5121)" class="st0" width="11" height="81.2"/>
<rect x="106.7" y="587" transform="matrix(0.5725 -0.8199 0.8199 0.5725 -466.5873 360.2903)" class="st0" width="11" height="81.2"/>
<rect x="106.7" y="648.4" transform="matrix(0.5725 -0.8199 0.8199 0.5725 -516.9639 386.5438)" class="st0" width="11" height="81.2"/>
<rect x="70.6" y="655" class="st0" width="77.1" height="11"/>
<rect x="70.6" y="710.2" class="st0" width="77.1" height="11"/>
<rect x="70.6" y="529.9" class="st0" width="77.1" height="11"/>
<rect x="151.6" y="491.4" class="st0" width="304.1" height="11"/>
<rect x="453.8" y="591.7" class="st0" width="77.1" height="11"/>
<rect x="491" y="465.7" transform="matrix(0.5725 -0.8199 0.8199 0.5725 -202.8831 623.5231)" class="st0" width="11" height="81.2"/>
<rect x="271.6" y="466.9" transform="matrix(0.5725 -0.8199 0.8199 0.5725 -280.5468 435.2756)" class="st0" width="11" height="39.5"/>
<rect x="313.4" y="466.8" transform="matrix(-0.5725 -0.8199 0.8199 -0.5725 102.5863 1026.5846)" class="st0" width="11" height="39.5"/>
<rect x="491" y="465.6" transform="matrix(-0.5725 -0.8199 0.8199 -0.5725 365.7253 1203.1854)" class="st0" width="11" height="81.2"/>
<rect x="490.2" y="524.3" transform="matrix(-0.5725 -0.8199 0.8199 -0.5725 314.6113 1297.9562)" class="st0" width="11" height="85.4"/>
<rect x="490.1" y="588.8" transform="matrix(-0.5725 -0.8199 0.8199 -0.5725 261.5626 1399.3223)" class="st0" width="11" height="85.4"/>
<rect x="490.1" y="645.5" transform="matrix(-0.5725 -0.8199 0.8199 -0.5725 215.0197 1488.5372)" class="st0" width="11" height="85.4"/>
<rect x="490.1" y="524.4" transform="matrix(0.5725 -0.8199 0.8199 0.5725 -251.3833 647.8661)" class="st0" width="11" height="81.2"/>
<rect x="490" y="587" transform="matrix(0.5725 -0.8199 0.8199 0.5725 -302.7039 674.5527)" class="st0" width="11" height="81.2"/>
<rect x="490.1" y="648.4" transform="matrix(0.5725 -0.8199 0.8199 0.5725 -353.001 700.9095)" class="st0" width="11" height="81.2"/>
<rect x="453.8" y="655" class="st0" width="77.1" height="11"/>
<rect x="453.8" y="710.2" class="st0" width="77.1" height="11"/>
<rect x="453.8" y="529.9" class="st0" width="77.1" height="11"/>
<rect x="461.1" y="593.2" class="st0" width="74.2" height="13.7"/>
<rect x="457.7" y="660.6" class="st0" width="77.1" height="11"/>
<rect x="463.8" y="529" class="st0" width="71" height="11.9"/>
<rect x="142.5" y="474" class="st0" width="11" height="251.8"/>
<rect x="292.7" y="474" class="st0" width="11" height="23.7"/>
<rect x="453.1" y="474" class="st0" width="11" height="251.8"/>
<rect x="526.6" y="474" class="st0" width="11" height="251.8"/>
<rect x="225.9" y="186.8" class="st2" width="9.5" height="25"/>
<rect x="361.9" y="186.8" class="st2" width="9.5" height="25"/>
<rect x="487.9" y="186.8" class="st2" width="9.5" height="25"/>
<path class="st3" d="M120.9,220.6h-19.6c-3.2,0-5.6-2.9-4.9-5.9l1.6-7.5c0.5-2.2,2.5-3.8,4.9-3.8h16.5c2.3,0,4.5,1.6,4.9,4l1.4,7.5
	C126.3,217.9,124,220.6,120.9,220.6z"/>
<path class="st2" d="M111,211.8L111,211.8c-2.7,0-4.7-2.2-4.7-4.7v-20.3h9.5v20.3C115.7,209.6,113.5,211.8,111,211.8z"/>
<path class="st3" d="M240.1,220.6h-19.4c-3.2,0-5.6-2.9-4.9-5.9l1.6-7.5c0.5-2.2,2.5-3.8,4.9-3.8h16.4c2.3,0,4.5,1.6,4.9,4l1.4,7.5
	C245.5,217.9,243.1,220.6,240.1,220.6z"/>
<path class="st2" d="M230.2,211.8L230.2,211.8c-2.7,0-4.7-2.2-4.7-4.7v-20.3h9.5v20.3C234.9,209.6,232.9,211.8,230.2,211.8z"/>
<path class="st3" d="M376.7,220.6h-19.4c-3.2,0-5.6-2.9-4.9-5.9l1.6-7.5c0.5-2.2,2.5-3.8,4.9-3.8h16.4c2.3,0,4.5,1.6,4.9,4l1.4,7.5
	C382.1,217.9,379.7,220.6,376.7,220.6z"/>
<path class="st2" d="M366.8,211.8L366.8,211.8c-2.7,0-4.7-2.2-4.7-4.7v-20.3h9.5v20.3C371.5,209.6,369.3,211.8,366.8,211.8z"/>
<path class="st3" d="M502.3,220.6h-19.4c-3.2,0-5.6-2.9-4.9-5.9l1.6-7.5c0.5-2.2,2.5-3.8,4.9-3.8h16.4c2.3,0,4.5,1.6,4.9,4l1.4,7.5
	C507.7,217.9,505.5,220.6,502.3,220.6z"/>
<path class="st2" d="M492.6,211.8L492.6,211.8c-2.7,0-4.7-2.2-4.7-4.7v-20.3h9.5v20.3C497.3,209.6,495.1,211.8,492.6,211.8z"/>
<path class="st4" d="M485.2,394.7c-59.3,10.8-118.8,20-179.7,21.2c-49.4,0.9-98-3.2-145.9-13.5c-47.8-10.2-91.7-27.9-133-49.2
	c-0.7-0.4-0.7-0.7-1.8-1.1l-0.7,54.5c2.2,0.7,4.7,1.1,6.7,1.8c51,17.6,104.6,24.4,159.6,23.7c35.8-0.5,71.4-4,106.8-8.1
	c58.2-6.8,116.1-16,174.9-19.4c27.9-1.6,55.5-1.8,83.2,2.2c8.1,1.3,16.5,2.7,24.4,4c0.2-8.3,0.2-16.7,0.4-25
	C547.4,384.3,516.3,389,485.2,394.7z"/>
<g>
	<path class="st4" d="M284.8,256c0,2.5-2.9,6.5-8.4,11.5c-10.2,9.5-20.7,14.2-31.1,14.2c-2.9,0-5.4-0.2-7.2-0.5
		c-2.3-0.4-6.1-2.2-11.3-5.2c-16.5-9.7-27.1-14.6-31.8-14.6c-2.5,0-3.6,0.5-3.6,1.6c0,0.5,0.2,1.3,0.4,2.3c0.2,1.1,0.4,1.8,0.4,2.3
		c0,5.9-2.2,11.7-6.5,17.3c-4.5,5.8-9.7,8.8-15.6,8.8l-4.7-1.3l-1.8-4.3c0-5,2.3-10.4,7-16.2c4.7-5.8,9.5-9.7,14.2-11.5
		c-1.6-0.7-2.7-0.9-3.2-0.9c-7.5,0-16,5.2-25.3,15.8c-7,7.7-12.9,16.4-18,25.9c-5.9,11-8.8,19.8-8.8,26.4c0,8.4,3.2,12.6,9.5,12.6
		s12.2-3.4,17.8-10.2c5.2-6.5,7.9-12.9,7.9-19.4c0-0.9-0.4-2-1.1-2.9c-0.7-0.9-1.6-1.4-2.5-1.4c-1.4,0-3.4,1.4-6.3,4.3l-0.7,0.2
		c-1.1,1.6-2.3,5-4,10.4c-2,0.9-4,2.2-6.3,3.6L138,329h-0.2c-0.2-0.9-0.2-1.6-0.2-1.8c0-6.7,1.8-12.6,5.2-17.6c4-5.8,9-8.8,15.3-8.8
		c6.3,0,9.5,2.9,9.5,8.8c0,9.2-3.6,17.6-10.8,25.7c-7.4,8.3-15.5,12.6-24.4,12.6c-12.9,0-19.4-5.8-19.4-17.1c0-10.4,4-21.9,12-34.7
		c7-11.1,15.3-20.5,24.6-28c11-9,21.4-13.3,30.9-13.3c1.1,0,2.7,0.4,4.7,1.1c2,0.7,3.4,1.4,4.3,2.2c4.7-2.2,9.7-3.2,14.9-3.2v-0.2
		c4.9,0.2,10.2,1.8,16,4.7c1.3,0.7,5.9,3.4,13.7,8.1c4.9,2.9,8.3,4.3,10.8,4.3h2.3c7.4,0,14-1.6,20-4.7c3.2-1.6,8.6-5.8,16.7-12h0.5
		v0.2L284.8,256z M187.2,267.7c0-0.4,0-1.1-0.2-2c-0.2-0.9-0.2-1.8-0.2-2.3c-8.4,3.6-14.6,10.2-18.5,20.1c-0.5,1.4-0.9,2.5-0.9,3.2
		c0,2,1.1,2.9,3.2,2.9c4.1,0,8.1-2.7,11.7-8.1C185.6,276.8,187.2,272.2,187.2,267.7z"/>
	<path class="st4" d="M208.6,320c0,0.9-1.3,1.8-3.6,2.3c-1.8,0.5-3.4,0.7-4.9,0.7c-0.9,0-1.8,0-2.7,0c-3.1,5.8-6.7,11-11,15.8
		c-5.8,6.5-11.1,9.7-15.6,9.7c-6.5,0-9.5-2.9-9.5-8.8c0-7.2,3.6-15.1,10.6-24.1c7.4-9.2,14.6-13.8,21.6-13.8c5.6,0,8.3,2.5,8.3,7.7
		c0,1.6-0.9,5-2.7,9.9c0.9,0.2,1.6,0.4,2.2,0.4c0.7,0,1.6-0.2,2.9-0.4c1.3-0.2,2.3-0.4,2.9-0.4C208.1,319.1,208.6,319.4,208.6,320z
		 M194.1,322.1c-4.5-0.5-7.5-2.7-9.5-6.7c-1.4,1.6-3.4,5-6.1,10.4v-0.2c-0.2,0.9-0.9,2.5-2,5c-0.9,2.2-1.4,3.8-1.4,5.2
		c0,1.6,0.9,2.5,2.5,2.5C182.7,338.7,188.3,333.1,194.1,322.1z M198.4,310.3c0-2.7-1.1-4-3.2-4c-1.6,0-3.2,0.7-5,2.2
		c-1.8,1.4-2.9,2.9-2.9,4.5s0.9,3.1,2.5,4.3c1.6,1.4,3.2,2.2,4.9,2.2c0.2,0,0.4,0,0.5-0.2v-0.2c0.7,0,1.4-1.3,2.2-4
		C198,313.1,198.4,311.3,198.4,310.3z"/>
	<path class="st4" d="M242.2,307.9c0,2.3-0.9,4.7-2.5,7.2c-1.8,2.7-4,4.1-6.1,4.1c-0.4,0-1.3-0.4-2.3-1.3c-0.4-0.9-0.5-1.6-0.5-2
		c0-1.8,0.9-3.6,2.7-5.2c1.8-1.6,3.6-2.3,5.4-2c0-1.4-1.1-2-3.2-2c-4,0-8.4,4.5-13.8,13.3c-5,8.3-7.5,14.7-7.5,19.1
		c0,2,0.7,2.9,2.2,2.9c3.4,0,6.8-1.4,10.2-4.3c1.6-1.3,4.1-4,7.7-8.1c2.5-2.9,4.3-4.3,5.4-4.3c0.4,0,0.5,0.2,0.5,0.5
		c0,0.9-2.5,4.5-7.4,10.6c-6.8,8.6-14,12.9-21.2,12.9c-6.8,0-10.2-3.2-10.2-9.7c0-2.3,0.7-5.4,2-9.2c1.3-3.6,2.5-6.5,3.8-8.6
		c8.6-13.5,17.8-20.1,27.7-20.1c1.8,0,3.6,0.7,5,2C241.5,304.5,242.2,306.1,242.2,307.9z"/>
	<path class="st4" d="M289.1,301.6c-1.3,4.7-4.1,10.6-8.8,17.8c-5,7.9-8.3,13.7-9.7,17.3l1.1,0.7c3.2-1.1,6.1-3.4,8.6-7.2
		c2.5-3.8,4.1-5.8,4.5-5.9h0.5c0.4,0.4,0.5,0.9,0.5,1.3c0,3.2-2.9,7.9-8.4,13.7c-5.8,5.8-10.2,8.6-13.5,8.6c-2.5,0-4.3-0.7-5.4-2
		c-0.2-0.4-0.9-2.2-2.2-5.4c-2.7,4.9-6.5,7.4-11.3,7.4c-2.2,0-4.1-0.9-5.8-2.9c-1.6-1.8-2.5-4-2.5-6.1c0-6.1,4.1-14,12.4-23.5
		s15.3-14.2,21.4-14.2c0.7,0,1.8,0.4,3.4,1.3c1.6,0.9,2.7,1.3,3.6,1.4c0.5-0.2,0.7-0.7,0.9-1.6c0.9-0.7,2.5-1.1,5-1.1
		C285.9,301.3,287.7,301.3,289.1,301.6z M275.1,307.2c-0.2-1.1-0.9-1.6-2.2-1.6c-1.1,0-2.3,0.5-3.6,1.6l0,0
		c-4,3.2-7.7,7.7-11.5,12.9c-4.1,6.3-6.3,11.5-6.3,15.6c0,1.6,0.7,2.5,2.2,2.5c1.8,0,5.8-4.5,11.7-13.7
		C270.6,316.6,273.9,310.6,275.1,307.2z"/>
	<path class="st4" d="M490.1,256c0,2.5-2.9,6.5-8.4,11.5c-10.2,9.5-20.7,14.2-31.1,14.2c-2.9,0-5.4-0.2-7.2-0.5
		c-2.3-0.4-6.1-2.2-11.3-5.2c-16.5-9.7-27.1-14.6-31.8-14.6c-2.5,0-3.6,0.5-3.6,1.6c0,0.5,0.2,1.3,0.4,2.3c0.2,1.1,0.4,1.8,0.4,2.3
		c0,5.9-2.2,11.7-6.5,17.3c-4.5,5.8-9.7,8.8-15.6,8.8l-4.7-1.3l-1.8-4.3c0-5,2.3-10.4,7-16.2c4.7-5.8,9.5-9.7,14.2-11.5
		c-1.6-0.7-2.7-0.9-3.2-0.9c-7.5,0-16,5.2-25.3,15.8c-7,7.7-12.9,16.4-18,25.9c-5.9,11-8.8,19.8-8.8,26.4c0,8.4,3.2,12.6,9.5,12.6
		s12.2-3.4,17.8-10.2c5.2-6.5,7.9-12.9,7.9-19.4c0-0.9-0.4-2-1.1-2.9c-0.7-0.9-1.6-1.4-2.5-1.4c-1.4,0-3.4,1.4-6.3,4.3l-0.2,0.2
		c-1.1,1.6-2.3,5-4,10.4c-2,0.9-4,2.2-6.3,3.6l-5.8,4.1h-0.2c-0.2-0.9-0.2-1.6-0.2-1.8c0-6.7,1.8-12.6,5.2-17.6
		c4-5.8,9-8.8,15.3-8.8s9.5,2.9,9.5,8.8c0,9.2-3.6,17.6-10.8,25.7c-7.4,8.3-15.5,12.6-24.4,12.6c-12.9,0-19.4-5.8-19.4-17.1
		c0-10.4,4-21.9,12-34.7c7-11.1,15.3-20.5,24.6-28c11-9,21.4-13.3,30.9-13.3c1.1,0,2.7,0.4,4.7,1.1c2,0.7,3.4,1.4,4.3,2.2
		c4.7-2.2,9.7-3.2,14.9-3.2v-0.2c4.9,0.2,10.2,1.8,16,4.7c1.3,0.7,5.9,3.4,13.7,8.1c4.9,2.9,8.3,4.3,10.8,4.3h2.3
		c7.4,0,14-1.6,20-4.7c3.2-1.6,8.6-5.8,16.7-12h0.5v0.2L490.1,256z M392.5,267.7c0-0.4,0-1.1-0.2-2c-0.2-0.9-0.2-1.8-0.2-2.3
		c-8.4,3.6-14.6,10.2-18.5,20.1c-0.5,1.4-0.9,2.5-0.9,3.2c0,2,1.1,2.9,3.2,2.9c4.1,0,8.1-2.7,11.7-8.1
		C390.9,276.8,392.5,272.2,392.5,267.7z"/>
	<path class="st4" d="M413.9,320c0,0.9-1.3,1.8-3.6,2.3c-1.8,0.5-3.4,0.7-4.9,0.7c-0.9,0-1.8,0-2.7,0c-3.1,5.8-6.7,11-11,15.8
		c-5.8,6.5-11.1,9.7-15.6,9.7c-6.5,0-9.5-2.9-9.5-8.8c0-7.2,3.6-15.1,10.6-24.1c7.4-9.2,14.6-13.8,21.6-13.8c5.6,0,8.3,2.5,8.3,7.7
		c0,1.6-0.9,5-2.7,9.9c0.9,0.2,1.6,0.4,2.2,0.4c0.7,0,1.6-0.2,2.9-0.4c1.3-0.2,2.3-0.4,2.9-0.4C413.3,319.1,413.9,319.4,413.9,320z
		 M399.3,322.1c-4.5-0.5-7.5-2.7-9.5-6.7c-1.4,1.6-3.4,5-6.1,10.4v-0.2c-0.2,0.9-0.9,2.5-2,5c-0.9,2.2-1.4,3.8-1.4,5.2
		c0,1.6,0.9,2.5,2.5,2.5C388,338.7,393.6,333.1,399.3,322.1z M403.6,310.3c0-2.7-1.1-4-3.2-4c-1.6,0-3.2,0.7-5,2.2
		c-1.8,1.4-2.9,2.9-2.9,4.5s0.9,3.1,2.5,4.3c1.6,1.4,3.2,2.2,4.9,2.2c0.2,0,0.4,0,0.5-0.2v-0.2c0.7,0,1.4-1.3,2.2-4
		C403.3,313.1,403.6,311.3,403.6,310.3z"/>
	<path class="st4" d="M475.3,260.5c0,2.9-0.9,5.9-2.9,9.2c-7.7,13.7-19.2,27.1-34.3,40.3c-2.5,2.2-6.5,5.4-11.7,9.7
		c-1.1,0.9-2.3,3.6-3.8,7.9c-1.3,4-1.8,7-2,9l1.3,2.9c0.4,0,0.5,0.2,0.5,0.2c1.6,0,4.1-2,7.4-5.8c3.3-3.8,5.4-5.8,6.3-5.8
		c0.4,0,0.5,0.2,0.5,0.5c0,0.9-1.8,3.6-5.4,7.7c-7.2,8.4-12.4,12.6-15.6,12.6c-2,0-3.8-0.7-5-2.3c-1.3-1.4-2-3.2-2-5.2
		c0-5,1.4-11.3,4.3-19.1c5.2-14,12.9-27.7,23.2-41.2c12.8-16.7,23.6-25.1,32.4-25.1C473.2,256.3,475.3,257.8,475.3,260.5z
		 M471.8,262.8c-0.9-1.6-1.6-2.5-2.2-2.5c-5.4,0-13.5,7.7-23.9,23c-9,12.9-14.9,23.5-17.8,31.5c6.7-4.5,15.3-12.4,25.3-23.9
		C464.6,278.3,470.7,268.9,471.8,262.8z"/>
	<path class="st4" d="M487.6,301.6c-1.3,4.7-4.1,10.6-8.8,17.8c-5,7.9-8.3,13.7-9.7,17.3l1.1,0.7c3.2-1.1,6.1-3.4,8.6-7.2
		c2.5-3.8,4.1-5.8,4.5-5.9h0.5c0.4,0.4,0.5,0.9,0.5,1.3c0,3.2-2.9,7.9-8.4,13.7c-5.8,5.8-10.2,8.6-13.5,8.6c-2.5,0-4.3-0.7-5.4-2
		c-0.2-0.4-0.9-2.2-2.2-5.4c-2.7,4.9-6.5,7.4-11.3,7.4c-2.2,0-4.1-0.9-5.8-2.9c-1.6-1.8-2.5-4-2.5-6.1c0-6.1,4.1-14,12.4-23.5
		c8.3-9.5,15.3-14.2,21.4-14.2c0.7,0,1.8,0.4,3.4,1.3c1.6,0.9,2.7,1.3,3.6,1.4c0.5-0.2,0.7-0.7,0.9-1.6c0.9-0.7,2.5-1.1,5-1.1
		C484.5,301.3,486.3,301.3,487.6,301.6z M473.7,307.2c-0.2-1.1-0.9-1.6-2.2-1.6c-1.1,0-2.3,0.5-3.6,1.6l0,0
		c-4,3.2-7.7,7.7-11.5,12.9c-4.1,6.3-6.3,11.5-6.3,15.6c0,1.6,0.7,2.5,2.2,2.5c1.8,0,5.8-4.5,11.7-13.7
		C469.2,316.6,472.5,310.6,473.7,307.2z"/>
</g>
<rect x="457.4" y="447.2" class="st5" width="121" height="16"/>
<text transform="matrix(1 0 0 1 475.8718 455.9598)" class="st6 st7 st8">SLOGAN 1982</text>
<rect x="227.7" y="364.3" class="st5" width="152.1" height="26.8"/>
<text transform="matrix(1 0 0 1 243.041 390.6046)" class="st6 st9 st10">ES ASÍ</text>
</svg>
