<?xml version="1.0" encoding="utf-8"?>
<!-- Generator: Adobe Illustrator 18.1.1, SVG Export Plug-In . SVG Version: 6.00 Build 0)  -->
<svg version="1.1" id="Layer_1" xmlns="http://www.w3.org/2000/svg" xmlns:xlink="http://www.w3.org/1999/xlink" x="0px" y="0px"
	 viewBox="0 0 800 550" enable-background="new 0 0 800 550" xml:space="preserve">
<rect x="110.1" y="7.2" fill="#0E1215" width="581.6" height="298"/>
<rect x="123" y="18.5" fill="#BA252B" width="555.6" height="275.5"/>
<rect x="169" y="298" fill="#0E1215" width="11" height="251.8"/>
<rect x="169.6" y="415.7" fill="#0E1215" width="77.1" height="11"/>
<rect x="206.6" y="289.7" transform="matrix(-0.5725 0.8199 -0.8199 -0.5725 604.4249 345.5391)" fill="#0E1215" width="11" height="81.2"/>
<rect x="138.8" y="277.9" transform="matrix(-0.3813 0.9244 -0.9244 -0.3813 487.9432 298.0263)" fill="#0E1215" width="11" height="68.8"/>
<rect x="656.7" y="280.6" transform="matrix(0.3813 0.9244 -0.9244 0.3813 697.2653 -419.0699)" fill="#0E1215" width="10.1" height="61.6"/>
<rect x="206.7" y="289.7" transform="matrix(0.5725 0.8199 -0.8199 0.5725 361.5024 -32.7406)" fill="#0E1215" width="11" height="81.2"/>
<rect x="205.8" y="348.3" transform="matrix(0.5725 0.8199 -0.8199 0.5725 410.8782 -6.1245)" fill="#0E1215" width="11" height="85.4"/>
<rect x="205.8" y="412.8" transform="matrix(0.5725 0.8199 -0.8199 0.5725 463.8028 21.4869)" fill="#0E1215" width="11" height="85.4"/>
<rect x="205.8" y="469.5" transform="matrix(0.5725 0.8199 -0.8199 0.5725 510.2777 45.7672)" fill="#0E1215" width="11" height="85.4"/>
<rect x="205.7" y="348.4" transform="matrix(-0.5725 0.8199 -0.8199 -0.5725 651.0491 438.507)" fill="#0E1215" width="11" height="81.2"/>
<rect x="205.7" y="410.9" transform="matrix(-0.5725 0.8199 -0.8199 -0.5725 702.3058 536.9028)" fill="#0E1215" width="11" height="81.2"/>
<rect x="205.8" y="472.4" transform="matrix(-0.5725 0.8199 -0.8199 -0.5725 752.7744 633.4652)" fill="#0E1215" width="11" height="81.2"/>
<rect x="169.6" y="479" fill="#0E1215" width="77.1" height="11"/>
<rect x="169.6" y="534.2" fill="#0E1215" width="77.1" height="11"/>
<rect x="169.6" y="353.9" fill="#0E1215" width="77.1" height="11"/>
<rect x="250.6" y="315.4" fill="#0E1215" width="304.1" height="11"/>
<rect x="552.8" y="415.7" fill="#0E1215" width="77.1" height="11"/>
<rect x="590" y="289.7" transform="matrix(-0.5725 0.8199 -0.8199 -0.5725 1207.2264 31.1638)" fill="#0E1215" width="11" height="81.2"/>
<rect x="370.6" y="290.8" transform="matrix(-0.5725 0.8199 -0.8199 -0.5725 846.0739 180.0953)" fill="#0E1215" width="11" height="39.5"/>
<rect x="412.4" y="290.8" transform="matrix(0.5725 0.8199 -0.8199 0.5725 433.2961 -209.878)" fill="#0E1215" width="11" height="39.5"/>
<rect x="590" y="289.6" transform="matrix(0.5725 0.8199 -0.8199 0.5725 525.3405 -347.0419)" fill="#0E1215" width="11" height="81.2"/>
<rect x="589.2" y="348.2" transform="matrix(0.5725 0.8199 -0.8199 0.5725 574.7162 -320.4259)" fill="#0E1215" width="11" height="85.4"/>
<rect x="589.1" y="412.8" transform="matrix(0.5725 0.8199 -0.8199 0.5725 627.6408 -292.8145)" fill="#0E1215" width="11" height="85.4"/>
<rect x="589.1" y="469.5" transform="matrix(0.5725 0.8199 -0.8199 0.5725 674.116 -268.5341)" fill="#0E1215" width="11" height="85.4"/>
<rect x="589.1" y="348.3" transform="matrix(-0.5725 0.8199 -0.8199 -0.5725 1253.8511 124.1314)" fill="#0E1215" width="11" height="81.2"/>
<rect x="589.1" y="410.9" transform="matrix(-0.5725 0.8199 -0.8199 -0.5725 1305.1078 222.5273)" fill="#0E1215" width="11" height="81.2"/>
<rect x="589.1" y="472.3" transform="matrix(-0.5725 0.8199 -0.8199 -0.5725 1355.576 319.0899)" fill="#0E1215" width="11" height="81.2"/>
<rect x="552.8" y="479" fill="#0E1215" width="77.1" height="11"/>
<rect x="552.8" y="534.2" fill="#0E1215" width="77.1" height="11"/>
<rect x="552.8" y="353.9" fill="#0E1215" width="77.1" height="11"/>
<rect x="560.1" y="417.2" fill="#0E1215" width="74.2" height="13.7"/>
<rect x="556.7" y="484.6" fill="#0E1215" width="77.1" height="11"/>
<rect x="562.8" y="353" fill="#0E1215" width="71" height="11.9"/>
<rect x="241.5" y="298" fill="#0E1215" width="11" height="251.8"/>
<rect x="391.7" y="298" fill="#0E1215" width="11" height="23.7"/>
<rect x="552.1" y="298" fill="#0E1215" width="11" height="251.8"/>
<rect x="625.6" y="298" fill="#0E1215" width="11" height="251.8"/>
<rect x="324.9" y="10.8" fill="#1A1A1A" width="9.5" height="25"/>
<rect x="460.9" y="10.8" fill="#1A1A1A" width="9.5" height="25"/>
<rect x="586.9" y="10.8" fill="#1A1A1A" width="9.5" height="25"/>
<path fill="#333333" d="M219.9,44.6h-19.6c-3.2,0-5.6-2.9-4.9-5.9l1.6-7.5c0.5-2.2,2.5-3.8,4.9-3.8h16.5c2.3,0,4.5,1.6,4.9,4
	l1.4,7.5C225.3,41.9,223,44.6,219.9,44.6z"/>
<path fill="#1A1A1A" d="M210,35.8L210,35.8c-2.7,0-4.7-2.2-4.7-4.7V10.8h9.5v20.3C214.7,33.6,212.5,35.8,210,35.8z"/>
<path fill="#333333" d="M339.1,44.6h-19.4c-3.2,0-5.6-2.9-4.9-5.9l1.6-7.5c0.5-2.2,2.5-3.8,4.9-3.8h16.4c2.3,0,4.5,1.6,4.9,4
	l1.4,7.5C344.5,41.9,342.1,44.6,339.1,44.6z"/>
<path fill="#1A1A1A" d="M329.2,35.8L329.2,35.8c-2.7,0-4.7-2.2-4.7-4.7V10.8h9.5v20.3C333.9,33.6,331.9,35.8,329.2,35.8z"/>
<path fill="#333333" d="M475.7,44.6h-19.4c-3.2,0-5.6-2.9-4.9-5.9l1.6-7.5c0.5-2.2,2.5-3.8,4.9-3.8h16.4c2.3,0,4.5,1.6,4.9,4
	l1.4,7.5C481.1,41.9,478.7,44.6,475.7,44.6z"/>
<path fill="#1A1A1A" d="M465.8,35.8L465.8,35.8c-2.7,0-4.7-2.2-4.7-4.7V10.8h9.5v20.3C470.5,33.6,468.3,35.8,465.8,35.8z"/>
<path fill="#333333" d="M601.3,44.6h-19.4c-3.2,0-5.6-2.9-4.9-5.9l1.6-7.5c0.5-2.2,2.5-3.8,4.9-3.8h16.4c2.3,0,4.5,1.6,4.9,4
	l1.4,7.5C606.7,41.9,604.5,44.6,601.3,44.6z"/>
<path fill="#1A1A1A" d="M591.6,35.8L591.6,35.8c-2.7,0-4.7-2.2-4.7-4.7V10.8h9.5v20.3C596.3,33.6,594.1,35.8,591.6,35.8z"/>
<path fill="#FFFFFF" d="M584.2,218.7c-59.3,10.8-118.8,20-179.7,21.2c-49.4,0.9-98-3.2-145.9-13.5c-47.8-10.2-91.7-27.9-133-49.2
	c-0.7-0.4-0.7-0.7-1.8-1.1l-0.7,54.5c2.2,0.7,4.7,1.1,6.7,1.8c51,17.6,104.6,24.4,159.6,23.7c35.8-0.5,71.4-4,106.8-8.1
	c58.2-6.8,116.1-16,174.9-19.4c27.9-1.6,55.5-1.8,83.2,2.2c8.1,1.3,16.5,2.7,24.4,4c0.2-8.3,0.2-16.7,0.4-25
	C646.4,208.3,615.3,213,584.2,218.7z"/>
<g>
	<path fill="#FFFFFF" d="M383.8,80c0,2.5-2.9,6.5-8.4,11.5c-10.2,9.5-20.7,14.2-31.1,14.2c-2.9,0-5.4-0.2-7.2-0.5
		c-2.3-0.4-6.1-2.2-11.3-5.2c-16.5-9.7-27.1-14.6-31.8-14.6c-2.5,0-3.6,0.5-3.6,1.6c0,0.5,0.2,1.3,0.4,2.3c0.2,1.1,0.4,1.8,0.4,2.3
		c0,5.9-2.2,11.7-6.5,17.3c-4.5,5.8-9.7,8.8-15.6,8.8l-4.7-1.3l-1.8-4.3c0-5,2.3-10.4,7-16.2c4.7-5.8,9.5-9.7,14.2-11.5
		c-1.6-0.7-2.7-0.9-3.2-0.9c-7.5,0-16,5.2-25.3,15.8c-7,7.7-12.9,16.4-18,25.9c-5.9,11-8.8,19.8-8.8,26.4c0,8.4,3.2,12.6,9.5,12.6
		s12.2-3.4,17.8-10.2c5.2-6.5,7.9-12.9,7.9-19.4c0-0.9-0.4-2-1.1-2.9c-0.7-0.9-1.6-1.4-2.5-1.4c-1.4,0-3.4,1.4-6.3,4.3l-0.7,0.2
		c-1.1,1.6-2.3,5-4,10.4c-2,0.9-4,2.2-6.3,3.6L237,153h-0.2c-0.2-0.9-0.2-1.6-0.2-1.8c0-6.7,1.8-12.6,5.2-17.6c4-5.8,9-8.8,15.3-8.8
		c6.3,0,9.5,2.9,9.5,8.8c0,9.2-3.6,17.6-10.8,25.7c-7.4,8.3-15.5,12.6-24.4,12.6c-12.9,0-19.4-5.8-19.4-17.1c0-10.4,4-21.9,12-34.7
		c7-11.1,15.3-20.5,24.6-28c11-9,21.4-13.3,30.9-13.3c1.1,0,2.7,0.4,4.7,1.1c2,0.7,3.4,1.4,4.3,2.2c4.7-2.2,9.7-3.2,14.9-3.2v-0.2
		c4.9,0.2,10.2,1.8,16,4.7c1.3,0.7,5.9,3.4,13.7,8.1c4.9,2.9,8.3,4.3,10.8,4.3h2.3c7.4,0,14-1.6,20-4.7c3.2-1.6,8.6-5.8,16.7-12h0.5
		v0.2L383.8,80z M286.2,91.7c0-0.4,0-1.1-0.2-2c-0.2-0.9-0.2-1.8-0.2-2.3c-8.4,3.6-14.6,10.2-18.5,20.1c-0.5,1.4-0.9,2.5-0.9,3.2
		c0,2,1.1,2.9,3.2,2.9c4.1,0,8.1-2.7,11.7-8.1C284.6,100.8,286.2,96.2,286.2,91.7z"/>
	<path fill="#FFFFFF" d="M307.6,144c0,0.9-1.3,1.8-3.6,2.3c-1.8,0.5-3.4,0.7-4.9,0.7c-0.9,0-1.8,0-2.7,0c-3.1,5.8-6.7,11-11,15.8
		c-5.8,6.5-11.1,9.7-15.6,9.7c-6.5,0-9.5-2.9-9.5-8.8c0-7.2,3.6-15.1,10.6-24.1c7.4-9.2,14.6-13.8,21.6-13.8c5.6,0,8.3,2.5,8.3,7.7
		c0,1.6-0.9,5-2.7,9.9c0.9,0.2,1.6,0.4,2.2,0.4c0.7,0,1.6-0.2,2.9-0.4c1.3-0.2,2.3-0.4,2.9-0.4C307.1,143.1,307.6,143.4,307.6,144z
		 M293.1,146.1c-4.5-0.5-7.5-2.7-9.5-6.7c-1.4,1.6-3.4,5-6.1,10.4v-0.2c-0.2,0.9-0.9,2.5-2,5c-0.9,2.2-1.4,3.8-1.4,5.2
		c0,1.6,0.9,2.5,2.5,2.5C281.7,162.7,287.3,157.1,293.1,146.1z M297.4,134.3c0-2.7-1.1-4-3.2-4c-1.6,0-3.2,0.7-5,2.2
		c-1.8,1.4-2.9,2.9-2.9,4.5c0,1.6,0.9,3.1,2.5,4.3c1.6,1.4,3.2,2.2,4.9,2.2c0.2,0,0.4,0,0.5-0.2v-0.2c0.7,0,1.4-1.3,2.2-4
		C297,137.1,297.4,135.3,297.4,134.3z"/>
	<path fill="#FFFFFF" d="M341.2,131.9c0,2.3-0.9,4.7-2.5,7.2c-1.8,2.7-4,4.1-6.1,4.1c-0.4,0-1.3-0.4-2.3-1.3c-0.4-0.9-0.5-1.6-0.5-2
		c0-1.8,0.9-3.6,2.7-5.2c1.8-1.6,3.6-2.3,5.4-2c0-1.4-1.1-2-3.2-2c-4,0-8.4,4.5-13.8,13.3c-5,8.3-7.5,14.7-7.5,19.1
		c0,2,0.7,2.9,2.2,2.9c3.4,0,6.8-1.4,10.2-4.3c1.6-1.3,4.1-4,7.7-8.1c2.5-2.9,4.3-4.3,5.4-4.3c0.4,0,0.5,0.2,0.5,0.5
		c0,0.9-2.5,4.5-7.4,10.6c-6.8,8.6-14,12.9-21.2,12.9c-6.8,0-10.2-3.2-10.2-9.7c0-2.3,0.7-5.4,2-9.2c1.3-3.6,2.5-6.5,3.8-8.6
		c8.6-13.5,17.8-20.1,27.7-20.1c1.8,0,3.6,0.7,5,2C340.5,128.5,341.2,130.1,341.2,131.9z"/>
	<path fill="#FFFFFF" d="M388.1,125.6c-1.3,4.7-4.1,10.6-8.8,17.8c-5,7.9-8.3,13.7-9.7,17.3l1.1,0.7c3.2-1.1,6.1-3.4,8.6-7.2
		c2.5-3.8,4.1-5.8,4.5-5.9h0.5c0.4,0.4,0.5,0.9,0.5,1.3c0,3.2-2.9,7.9-8.4,13.7c-5.8,5.8-10.2,8.6-13.5,8.6c-2.5,0-4.3-0.7-5.4-2
		c-0.2-0.4-0.9-2.2-2.2-5.4c-2.7,4.9-6.5,7.4-11.3,7.4c-2.2,0-4.1-0.9-5.8-2.9c-1.6-1.8-2.5-4-2.5-6.1c0-6.1,4.1-14,12.4-23.5
		s15.3-14.2,21.4-14.2c0.7,0,1.8,0.4,3.4,1.3c1.6,0.9,2.7,1.3,3.6,1.4c0.5-0.2,0.7-0.7,0.9-1.6c0.9-0.7,2.5-1.1,5-1.1
		C384.9,125.3,386.7,125.3,388.1,125.6z M374.1,131.2c-0.2-1.1-0.9-1.6-2.2-1.6c-1.1,0-2.3,0.5-3.6,1.6l0,0
		c-4,3.2-7.7,7.7-11.5,12.9c-4.1,6.3-6.3,11.5-6.3,15.6c0,1.6,0.7,2.5,2.2,2.5c1.8,0,5.8-4.5,11.7-13.7
		C369.6,140.6,372.9,134.6,374.1,131.2z"/>
	<path fill="#FFFFFF" d="M589.1,80c0,2.5-2.9,6.5-8.4,11.5c-10.2,9.5-20.7,14.2-31.1,14.2c-2.9,0-5.4-0.2-7.2-0.5
		c-2.3-0.4-6.1-2.2-11.3-5.2c-16.5-9.7-27.1-14.6-31.8-14.6c-2.5,0-3.6,0.5-3.6,1.6c0,0.5,0.2,1.3,0.4,2.3c0.2,1.1,0.4,1.8,0.4,2.3
		c0,5.9-2.2,11.7-6.5,17.3c-4.5,5.8-9.7,8.8-15.6,8.8l-4.7-1.3l-1.8-4.3c0-5,2.3-10.4,7-16.2s9.5-9.7,14.2-11.5
		c-1.6-0.7-2.7-0.9-3.2-0.9c-7.5,0-16,5.2-25.3,15.8c-7,7.7-12.9,16.4-18,25.9c-5.9,11-8.8,19.8-8.8,26.4c0,8.4,3.2,12.6,9.5,12.6
		c6.3,0,12.2-3.4,17.8-10.2c5.2-6.5,7.9-12.9,7.9-19.4c0-0.9-0.4-2-1.1-2.9c-0.7-0.9-1.6-1.4-2.5-1.4c-1.4,0-3.4,1.4-6.3,4.3
		l-0.2,0.2c-1.1,1.6-2.3,5-4,10.4c-2,0.9-4,2.2-6.3,3.6l-5.8,4.1h-0.2c-0.2-0.9-0.2-1.6-0.2-1.8c0-6.7,1.8-12.6,5.2-17.6
		c4-5.8,9-8.8,15.3-8.8s9.5,2.9,9.5,8.8c0,9.2-3.6,17.6-10.8,25.7c-7.4,8.3-15.5,12.6-24.4,12.6c-12.9,0-19.4-5.8-19.4-17.1
		c0-10.4,4-21.9,12-34.7c7-11.1,15.3-20.5,24.6-28c11-9,21.4-13.3,30.9-13.3c1.1,0,2.7,0.4,4.7,1.1s3.4,1.4,4.3,2.2
		c4.7-2.2,9.7-3.2,14.9-3.2v-0.2c4.9,0.2,10.2,1.8,16,4.7c1.3,0.7,5.9,3.4,13.7,8.1c4.9,2.9,8.3,4.3,10.8,4.3h2.3
		c7.4,0,14-1.6,20-4.7c3.2-1.6,8.6-5.8,16.7-12h0.5v0.2L589.1,80z M491.5,91.7c0-0.4,0-1.1-0.2-2c-0.2-0.9-0.2-1.8-0.2-2.3
		c-8.4,3.6-14.6,10.2-18.5,20.1c-0.5,1.4-0.9,2.5-0.9,3.2c0,2,1.1,2.9,3.2,2.9c4.1,0,8.1-2.7,11.7-8.1
		C489.9,100.8,491.5,96.2,491.5,91.7z"/>
	<path fill="#FFFFFF" d="M512.9,144c0,0.9-1.3,1.8-3.6,2.3c-1.8,0.5-3.4,0.7-4.9,0.7c-0.9,0-1.8,0-2.7,0c-3.1,5.8-6.7,11-11,15.8
		c-5.8,6.5-11.1,9.7-15.6,9.7c-6.5,0-9.5-2.9-9.5-8.8c0-7.2,3.6-15.1,10.6-24.1c7.4-9.2,14.6-13.8,21.6-13.8c5.6,0,8.3,2.5,8.3,7.7
		c0,1.6-0.9,5-2.7,9.9c0.9,0.2,1.6,0.4,2.2,0.4c0.7,0,1.6-0.2,2.9-0.4c1.3-0.2,2.3-0.4,2.9-0.4C512.3,143.1,512.9,143.4,512.9,144z
		 M498.3,146.1c-4.5-0.5-7.5-2.7-9.5-6.7c-1.4,1.6-3.4,5-6.1,10.4v-0.2c-0.2,0.9-0.9,2.5-2,5c-0.9,2.2-1.4,3.8-1.4,5.2
		c0,1.6,0.9,2.5,2.5,2.5C487,162.7,492.6,157.1,498.3,146.1z M502.6,134.3c0-2.7-1.1-4-3.2-4c-1.6,0-3.2,0.7-5,2.2
		c-1.8,1.4-2.9,2.9-2.9,4.5c0,1.6,0.9,3.1,2.5,4.3c1.6,1.4,3.2,2.2,4.9,2.2c0.2,0,0.4,0,0.5-0.2v-0.2c0.7,0,1.4-1.3,2.2-4
		C502.3,137.1,502.6,135.3,502.6,134.3z"/>
	<path fill="#FFFFFF" d="M574.3,84.5c0,2.9-0.9,5.9-2.9,9.2c-7.7,13.7-19.2,27.1-34.3,40.3c-2.5,2.2-6.5,5.4-11.7,9.7
		c-1.1,0.9-2.3,3.6-3.8,7.9c-1.3,4-1.8,7-2,9l1.3,2.9c0.4,0,0.5,0.2,0.5,0.2c1.6,0,4.1-2,7.4-5.8s5.4-5.8,6.3-5.8
		c0.4,0,0.5,0.2,0.5,0.5c0,0.9-1.8,3.6-5.4,7.7c-7.2,8.4-12.4,12.6-15.6,12.6c-2,0-3.8-0.7-5-2.3c-1.3-1.4-2-3.2-2-5.2
		c0-5,1.4-11.3,4.3-19.1c5.2-14,12.9-27.7,23.2-41.2C547.9,88.4,558.7,80,567.5,80C572.2,80.3,574.3,81.8,574.3,84.5z M570.8,86.8
		c-0.9-1.6-1.6-2.5-2.2-2.5c-5.4,0-13.5,7.7-23.9,23c-9,12.9-14.9,23.5-17.8,31.5c6.7-4.5,15.3-12.4,25.3-23.9
		C563.6,102.3,569.7,92.9,570.8,86.8z"/>
	<path fill="#FFFFFF" d="M586.6,125.6c-1.3,4.7-4.1,10.6-8.8,17.8c-5,7.9-8.3,13.7-9.7,17.3l1.1,0.7c3.2-1.1,6.1-3.4,8.6-7.2
		c2.5-3.8,4.1-5.8,4.5-5.9h0.5c0.4,0.4,0.5,0.9,0.5,1.3c0,3.2-2.9,7.9-8.4,13.7c-5.8,5.8-10.2,8.6-13.5,8.6c-2.5,0-4.3-0.7-5.4-2
		c-0.2-0.4-0.9-2.2-2.2-5.4c-2.7,4.9-6.5,7.4-11.3,7.4c-2.2,0-4.1-0.9-5.8-2.9c-1.6-1.8-2.5-4-2.5-6.1c0-6.1,4.1-14,12.4-23.5
		c8.3-9.5,15.3-14.2,21.4-14.2c0.7,0,1.8,0.4,3.4,1.3c1.6,0.9,2.7,1.3,3.6,1.4c0.5-0.2,0.7-0.7,0.9-1.6c0.9-0.7,2.5-1.1,5-1.1
		C583.5,125.3,585.3,125.3,586.6,125.6z M572.7,131.2c-0.2-1.1-0.9-1.6-2.2-1.6c-1.1,0-2.3,0.5-3.6,1.6l0,0
		c-4,3.2-7.7,7.7-11.5,12.9c-4.1,6.3-6.3,11.5-6.3,15.6c0,1.6,0.7,2.5,2.2,2.5c1.8,0,5.8-4.5,11.7-13.7
		C568.2,140.6,571.5,134.6,572.7,131.2z"/>
	<path fill="#FFFFFF" d="M373.6,190.2c0,3.2-1.6,6.1-5,8.4c-2.7,2-5.9,3.2-9.5,4.1c-0.7,1.8-1.1,3.1-1.1,4.1c0,1.1,0.4,1.6,1.3,1.6
		c2,0,4-0.9,5.9-2.5c0.9-0.7,2.3-2.3,4.5-4.7c1.4-1.6,2.5-2.5,3.1-2.5c0.2,0,0.4,0.2,0.4,0.4c0,0.5-1.4,2.5-4.3,6.1
		c-4,4.9-7.9,7.4-12,7.4c-4,0-5.8-1.8-5.8-5.6c0-4.5,2-9.2,5.9-14c4.1-5.2,8.4-7.7,12.8-7.7C372.1,185.3,373.6,186.9,373.6,190.2z
		 M370.7,189.6c0-0.7-0.2-1.3-0.4-1.6c-0.2-0.2-0.4-0.2-0.5-0.2c-1.4,0-3.4,1.8-5.9,5.6c-1.8,2.7-3.2,5.4-4.3,7.9
		c2.5-0.7,5-2.2,7.4-4.3C369.4,194.5,370.7,192,370.7,189.6z"/>
	<path fill="#FFFFFF" d="M391.7,199.5c0,3.2-1.4,6.3-4.3,9.2c-2.9,2.9-5.9,4.3-9.2,4.3c-2,0-3.8-0.5-5.2-1.4
		c-1.8-1.1-2.7-2.5-2.7-4.5c0-1.1,0.4-2,1.1-2.7c0.7-0.7,1.6-1.1,2.7-1.1c2.2,0,3.1,1.1,3.1,3.2c0,0.7-0.2,1.4-0.7,2
		c-0.5,0.5-1.1,0.9-2,0.9c-0.5,0-0.9,0-1.3,0c0.9,0.9,1.8,1.3,2.9,1.3c2.9,0,4.9-2.3,6.3-7c0.9-3.2,1.4-6.8,1.4-10.6v-2.2
		c-0.5,0.4-2.2,1.8-4.9,4.3s-4.1,3.8-4.3,3.8c-0.5,0-0.7-0.2-0.7-0.7c0-0.4,1.1-1.6,3.4-3.8c1.4-1.4,3.1-2.9,4.7-4.3
		c1.8-1.6,3.1-3.2,4-4.9c0.7-1.3,1.3-1.8,1.8-1.8c0.7,0,1.1,0.4,1.1,0.9c0,0.2-0.4,0.7-1.1,1.6c-0.7,0.9-1.1,1.6-1.1,2.2
		c0,0.4,0.9,1.8,2.5,4.5C391,195.6,391.7,197.7,391.7,199.5z"/>
	<path fill="#FFFFFF" d="M433.1,185.5c-0.7,2.7-2.3,6.1-5,10.2c-2.9,4.5-4.7,7.7-5.6,9.9l0.5,0.4c1.8-0.5,3.4-2,5-4.1
		c1.4-2.2,2.3-3.2,2.5-3.4h0.4c0.2,0.2,0.4,0.5,0.4,0.7c0,2-1.6,4.5-4.9,7.7c-3.2,3.2-5.8,5-7.7,5c-1.4,0-2.5-0.4-3.1-1.1
		c-0.2-0.2-0.5-1.3-1.3-3.1c-1.6,2.7-3.8,4.1-6.5,4.1c-1.3,0-2.3-0.5-3.2-1.6s-1.4-2.2-1.4-3.4c0-3.6,2.3-7.9,7-13.5
		c4.7-5.4,8.8-8.1,12.2-8.1c0.4,0,1.1,0.2,2,0.7c0.9,0.5,1.6,0.7,2,0.7c0.4-0.2,0.4-0.4,0.5-0.9c0.5-0.4,1.4-0.5,2.9-0.5
		C431.3,185.3,432.4,185.3,433.1,185.5z M425.2,188.7c-0.2-0.5-0.5-0.9-1.3-0.9c-0.7,0-1.3,0.4-2.2,0.9l0,0c-2.3,2-4.5,4.3-6.5,7.4
		c-2.3,3.6-3.6,6.5-3.6,9c0,0.9,0.4,1.4,1.3,1.4c1.1,0,3.2-2.7,6.7-7.9C422.6,193.9,424.4,190.7,425.2,188.7z"/>
	<path fill="#FFFFFF" d="M450.7,199.5c0,3.2-1.4,6.3-4.3,9.2c-2.9,2.9-5.9,4.3-9.2,4.3c-2,0-3.8-0.5-5.2-1.4
		c-1.8-1.1-2.7-2.5-2.7-4.5c0-1.1,0.4-2,1.1-2.7c0.7-0.7,1.6-1.1,2.7-1.1c2.2,0,3.1,1.1,3.1,3.2c0,0.7-0.2,1.4-0.7,2
		c-0.5,0.5-1.1,0.9-2,0.9c-0.5,0-0.9,0-1.3,0c0.9,0.9,1.8,1.3,2.9,1.3c2.9,0,4.9-2.3,6.3-7c0.9-3.2,1.4-6.8,1.4-10.6v-2.2
		c-0.5,0.4-2.2,1.8-4.9,4.3s-4.1,3.8-4.3,3.8c-0.5,0-0.7-0.2-0.7-0.7c0-0.4,1.1-1.6,3.4-3.8c1.4-1.4,3.1-2.9,4.7-4.3
		c1.8-1.6,3.1-3.2,4-4.9c0.7-1.3,1.3-1.8,1.8-1.8c0.7,0,1.1,0.4,1.1,0.9c0,0.2-0.4,0.7-1.1,1.6s-1.1,1.6-1.1,2.2
		c0,0.4,0.9,1.8,2.5,4.5C450,195.6,450.7,197.7,450.7,199.5z"/>
	<path fill="#FFFFFF" d="M464.3,199.5c0,2.2-1.6,4.7-4.9,7.9c-3.2,3.2-5.9,4.9-8.1,4.9s-3.4-1.6-3.4-4.7c0-1.6,0.5-3.6,1.8-5.8
		l3.1-5.4c0.4-0.9,1.6-3.6,3.6-8.3h7.4c-3.8,6.7-6.5,12.4-8.3,17.8l0.7,0.5c1.8-0.5,3.2-1.8,4.5-3.8c1.3-2.2,2.3-3.4,3.1-3.8h0.4
		C464.3,199,464.3,199.3,464.3,199.5z"/>
</g>
<path fill="#FFFFFF" d="M458.4,185.5c0,0,0.2-1.6,4.5-2.2c4.7-0.5,2.7-5.4,2.7-5.4s-1.6,2.7-4.5,2.5
	C458.8,180.3,457.9,184.2,458.4,185.5z"/>
</svg>
