<?xml version="1.0" encoding="utf-8"?>
<!-- Generator: Adobe Illustrator 18.1.1, SVG Export Plug-In . SVG Version: 6.00 Build 0)  -->
<svg version="1.1" id="Layer_1" xmlns="http://www.w3.org/2000/svg" xmlns:xlink="http://www.w3.org/1999/xlink" x="0px" y="0px"
	 viewBox="0 0 658.5 430.5" enable-background="new 0 0 658.5 430.5" xml:space="preserve">
<g>
	<defs>
		<path id="SVGID_1_" d="M672.1,110.2l-15.6,212.4c0,0-64.7,18.9-53.1,30.4c11.6,11.5-24,21.4-24,21.4l24.2,24.9l-30.5,17.8
			c0,0,65.2,64.5-37.3,38.7C433.2,429.9-75.7,250.9-78.5,245.3S-11.6,17.4-2.8,14.1s449.1-85.8,449.1-85.8L672.1,110.2z"/>
	</defs>
	<clipPath id="SVGID_2_">
		<use xlink:href="#SVGID_1_"  overflow="visible"/>
	</clipPath>
	<g clip-path="url(#SVGID_2_)">
		<g>
			<polyline fill="none" stroke="#FFFFFF" stroke-miterlimit="10" points="416.2,271.7 299,4.8 19.7,169.4 			"/>
			<polyline fill="none" stroke="#FFFFFF" stroke-miterlimit="10" points="125.6,213.3 299,4.8 75,196 			"/>
			<polyline fill="none" stroke="#FFFFFF" stroke-miterlimit="10" points="377.2,252.6 299,4.8 174.6,228.6 			"/>
			<polyline fill="none" stroke="#FFFFFF" stroke-miterlimit="10" points="317.4,251.5 299,4.8 343.2,240.3 			"/>
			<polyline fill="none" stroke="#FFFFFF" stroke-miterlimit="10" points="222.2,245.7 299,4.8 278.7,249.6 			"/>
			<polyline fill="none" stroke="#FFFFFF" stroke-miterlimit="10" points="929,439.6 1181.4,293.7 1309.2,591.7 			"/>
			<polyline fill="none" stroke="#FFFFFF" stroke-miterlimit="10" points="1197.8,564.5 1181.4,293.7 1248.9,580.4 			"/>
			<polyline fill="none" stroke="#FFFFFF" stroke-miterlimit="10" points="971.7,447.2 1181.4,293.7 1149.3,547.8 			"/>
			<polyline fill="none" stroke="#FFFFFF" stroke-miterlimit="10" points="1020.6,481.7 1181.4,293.7 1006.4,457.5 			"/>
			<polyline fill="none" stroke="#FFFFFF" stroke-miterlimit="10" points="1100.8,533.5 1181.4,293.7 1052.9,503.1 			"/>
			<polygon fill="#28241F" points="299.1,4.6 270.5,253.3 262.7,250.7 			"/>
			<path fill="#823D36" d="M479.2,206.7l-38.2-6.5c-4.2,29.6-10.2,72.5-9.9,72c0.5-0.9,37.6,12.3,37.6,12.3L479.2,206.7z"/>
			<path fill="#823D36" d="M654,262.3l-38.2-6.5c-4.2,29.6-10.4,74-10.1,73.5c0.5-0.9,37.6,12.3,37.6,12.3L654,262.3z"/>
			<path fill="#823D36" d="M828.5,319.7l-38.2-6.5c-4.2,29.6-10.4,73.8-10.1,73.3c0.5-0.9,37.6,12.3,37.6,12.3L828.5,319.7z"/>
			<path fill="#823D36" d="M998.5,375.1l-38.2-6.5c-4.2,29.6-10.4,74-10.1,73.5c0.5-0.9,37.6,12.3,37.6,12.3L998.5,375.1z"/>
			<path fill="#356080" d="M226.4,249.1c0,0,11.7,1,15.7-11.8c0,0,82.1,27.1,92.7,31.6s20,4.2,24.6,0.9l667.9,213.1
				c0,0,0.2,7.3,10.9,10.8c10.7,3.5,36.7,11.2,36.7,11.2s-5.7,11.2,5.9,18.1L400.2,312.7L226.4,249.1z"/>
			<path fill="#356080" d="M162.7,227.2c0,0-5.5-5.7-6.5-13.2L4.7,161.8c0,0-1.6,4.9,0.1,8.3C6.5,173.5,162.7,227.2,162.7,227.2z"/>
			<path fill="#070B23" d="M4.8,170.1c0,0,10.8,20.5,36.5,39.2L6.7,242.7c0,0,321.3,105.2,447.6,146.6s832.4,271,832.4,271
				l30.6-71.5C1317.3,588.8,811.2,454.7,4.8,170.1z"/>
			<path fill="#295064" d="M289.9,247.8l772.8,246l2.3-7c0,0-19.2-6.3-28.6-8.9c-9.4-2.6-15.6-8.5-16.8-12l35.8,11.7l4.4-13.3
				L767,368.5l-3.1,9.5L343.2,240.3c0,0-10.8,0.7-13.6,2.9l17.7,5.8l-3.1,9.5l-50-16.4L289.9,247.8z"/>
			<circle fill="#070B23" cx="245.3" cy="249.6" r="1.7"/>
			<circle fill="#070B23" cx="252.3" cy="251.9" r="1.7"/>
			<circle fill="#070B23" cx="259.2" cy="254.2" r="1.7"/>
			<circle fill="#070B23" cx="266.2" cy="256.4" r="1.7"/>
			<circle fill="#070B23" cx="273.2" cy="258.7" r="1.7"/>
			<circle fill="#070B23" cx="280.1" cy="261" r="1.7"/>
			<circle fill="#070B23" cx="287.1" cy="263.3" r="1.7"/>
			<circle fill="#070B23" cx="294" cy="265.6" r="1.7"/>
			<circle fill="#070B23" cx="323.3" cy="275.1" r="1.7"/>
			<circle fill="#070B23" cx="330.7" cy="277.6" r="1.7"/>
			<circle fill="#070B23" cx="338.2" cy="280" r="1.7"/>
			<circle fill="#070B23" cx="345.6" cy="282.4" r="1.7"/>
			<circle fill="#070B23" cx="380.4" cy="293.8" r="1.7"/>
			<circle fill="#070B23" cx="389.2" cy="296.7" r="1.7"/>
			<circle fill="#070B23" cx="398" cy="299.6" r="1.7"/>
			<circle fill="#070B23" cx="406.9" cy="302.5" r="1.7"/>
			<circle fill="#070B23" cx="415.7" cy="305.4" r="1.7"/>
			<circle fill="#070B23" cx="424.5" cy="308.3" r="1.7"/>
			<circle fill="#070B23" cx="441.7" cy="313.9" r="1.7"/>
			<circle fill="#070B23" cx="451.4" cy="317.1" r="1.7"/>
			<circle fill="#070B23" cx="461.2" cy="320.3" r="1.7"/>
			<circle fill="#070B23" cx="470.9" cy="323.5" r="1.7"/>
			<circle fill="#070B23" cx="480.7" cy="326.7" r="1.7"/>
			<circle fill="#070B23" cx="490.4" cy="329.9" r="1.7"/>
			<circle fill="#070B23" cx="507.1" cy="335.3" r="1.7"/>
			<circle fill="#070B23" cx="516.4" cy="338.4" r="1.7"/>
			<circle fill="#070B23" cx="525.7" cy="341.4" r="1.7"/>
			<circle fill="#070B23" cx="535" cy="344.5" r="1.7"/>
			<circle fill="#070B23" cx="553.6" cy="350.5" r="1.7"/>
			<circle fill="#070B23" cx="562.4" cy="353.4" r="1.7"/>
			<circle fill="#070B23" cx="571.2" cy="356.3" r="1.7"/>
			<circle fill="#070B23" cx="580" cy="359.2" r="1.7"/>
			<circle fill="#070B23" cx="588.9" cy="362.1" r="1.7"/>
			<circle fill="#070B23" cx="597.7" cy="365" r="1.7"/>
			<circle fill="#070B23" cx="617.6" cy="371.5" r="1.7"/>
			<circle fill="#070B23" cx="627.4" cy="374.7" r="1.7"/>
			<circle fill="#070B23" cx="637.1" cy="377.9" r="1.7"/>
			<circle fill="#070B23" cx="646.9" cy="381.1" r="1.7"/>
			<circle fill="#070B23" cx="656.6" cy="384.3" r="1.7"/>
			<circle fill="#070B23" cx="666.4" cy="387.5" r="1.7"/>
			<circle fill="#070B23" cx="682.6" cy="392.8" r="1.7"/>
			<circle fill="#070B23" cx="691.9" cy="395.9" r="1.7"/>
			<circle fill="#070B23" cx="701.2" cy="398.9" r="1.7"/>
			<circle fill="#070B23" cx="710.5" cy="401.9" r="1.7"/>
			<circle fill="#070B23" cx="719.8" cy="405" r="1.7"/>
			<circle fill="#070B23" cx="729.1" cy="408" r="1.7"/>
			<circle fill="#070B23" cx="746.2" cy="413.6" r="1.7"/>
			<circle fill="#070B23" cx="774.6" cy="377.2" r="1.7"/>
			<circle fill="#070B23" cx="782.5" cy="379.8" r="1.7"/>
			<circle fill="#070B23" cx="790.4" cy="382.4" r="1.7"/>
			<circle fill="#070B23" cx="798.3" cy="384.9" r="1.7"/>
			<circle fill="#070B23" cx="806.2" cy="387.5" r="1.7"/>
			<circle fill="#070B23" cx="814.1" cy="390.1" r="1.7"/>
			<circle fill="#070B23" cx="822" cy="392.7" r="1.7"/>
			<circle fill="#070B23" cx="844.7" cy="400.1" r="1.7"/>
			<circle fill="#070B23" cx="872.6" cy="409.3" r="1.7"/>
			<circle fill="#070B23" cx="877.7" cy="410.9" r="1.7"/>
			<circle fill="#070B23" cx="882.8" cy="412.6" r="1.7"/>
			<circle fill="#070B23" cx="887.9" cy="414.3" r="1.7"/>
			<circle fill="#070B23" cx="893" cy="416" r="1.7"/>
			<circle fill="#070B23" cx="898.1" cy="417.6" r="1.7"/>
			<circle fill="#070B23" cx="903.2" cy="419.3" r="1.7"/>
			<circle fill="#070B23" cx="908.3" cy="421" r="1.7"/>
			<circle fill="#070B23" cx="934.3" cy="429.5" r="1.7"/>
			<circle fill="#070B23" cx="943.6" cy="432.5" r="1.7"/>
			<circle fill="#070B23" cx="948.3" cy="434" r="1.7"/>
			<circle fill="#070B23" cx="952.9" cy="435.6" r="1.7"/>
			<circle fill="#070B23" cx="957.5" cy="437.1" r="1.7"/>
			<circle fill="#070B23" cx="981.7" cy="445" r="1.7"/>
			<circle fill="#070B23" cx="988.2" cy="447.1" r="1.7"/>
			<circle fill="#070B23" cx="994.7" cy="449.2" r="1.7"/>
			<circle fill="#070B23" cx="1001.2" cy="451.4" r="1.7"/>
			<circle fill="#070B23" cx="1007.7" cy="453.5" r="1.7"/>
			<circle fill="#070B23" cx="1014.2" cy="455.6" r="1.7"/>
			<circle fill="#070B23" cx="1039.3" cy="463.8" r="1.7"/>
			<circle fill="#070B23" cx="1045.3" cy="465.8" r="1.7"/>
			<circle fill="#070B23" cx="838.7" cy="398.2" r="1.7"/>
			<circle fill="#070B23" cx="755.5" cy="416.7" r="1.7"/>
			<circle fill="#070B23" cx="764.8" cy="419.7" r="1.7"/>
			<circle fill="#070B23" cx="774.1" cy="422.8" r="1.7"/>
			<circle fill="#070B23" cx="796.4" cy="430.1" r="1.7"/>
			<circle fill="#070B23" cx="805.7" cy="433.1" r="1.7"/>
			<circle fill="#070B23" cx="810.8" cy="434.8" r="1.7"/>
			<circle fill="#070B23" cx="824.2" cy="439.2" r="1.7"/>
			<circle fill="#070B23" cx="837.7" cy="443.6" r="1.7"/>
			<circle fill="#070B23" cx="847" cy="446.6" r="1.7"/>
			<circle fill="#070B23" cx="856.3" cy="449.7" r="1.7"/>
			<circle fill="#070B23" cx="865.6" cy="452.7" r="1.7"/>
			<circle fill="#070B23" cx="874.8" cy="455.8" r="1.7"/>
			<circle fill="#070B23" cx="884.3" cy="458.3" r="1.7"/>
			<circle fill="#070B23" cx="893.7" cy="460.9" r="1.7"/>
			<circle fill="#070B23" cx="903" cy="463.9" r="1.7"/>
			<circle fill="#070B23" cx="912.3" cy="467" r="1.7"/>
			<circle fill="#070B23" cx="921.6" cy="470" r="1.7"/>
			<circle fill="#070B23" cx="930.9" cy="473.1" r="1.7"/>
			<circle fill="#070B23" cx="940.1" cy="476.1" r="1.7"/>
			<circle fill="#070B23" cx="949.6" cy="478.7" r="1.7"/>
			<circle fill="#070B23" cx="959" cy="481.3" r="1.7"/>
			<circle fill="#070B23" cx="968.5" cy="483.8" r="1.7"/>
			<circle fill="#070B23" cx="977.9" cy="486.4" r="1.7"/>
			<circle fill="#070B23" cx="987.2" cy="489.5" r="1.7"/>
			<circle fill="#070B23" cx="996.5" cy="492.5" r="1.7"/>
			<circle fill="#070B23" cx="1005.9" cy="495.1" r="1.7"/>
			<circle fill="#070B23" cx="1015.3" cy="497.6" r="1.7"/>
			<circle fill="#070B23" cx="1024.8" cy="500.2" r="1.7"/>
			<circle fill="#070B23" cx="1034.1" cy="503.3" r="1.7"/>
			<circle fill="#070B23" cx="1043.3" cy="506.3" r="1.7"/>
			<circle fill="#070B23" cx="1052.8" cy="508.9" r="1.7"/>
			<circle fill="#070B23" cx="1062.2" cy="511.5" r="1.7"/>
			
				<rect x="363" y="271.3" transform="matrix(0.9503 0.3112 -0.3112 0.9503 103.5885 -99.9468)" fill="#070B23" width="4" height="6.5"/>
			
				<rect x="370.1" y="273.7" transform="matrix(0.9503 0.3112 -0.3112 0.9503 104.6704 -102.0522)" fill="#070B23" width="4" height="6.5"/>
			
				<rect x="377.2" y="276" transform="matrix(0.9503 0.3112 -0.3112 0.9503 105.7523 -104.1576)" fill="#070B23" width="4" height="6.5"/>
			
				<rect x="384.4" y="278.4" transform="matrix(0.9503 0.3112 -0.3112 0.9503 106.8343 -106.2629)" fill="#070B23" width="4" height="6.5"/>
			
				<rect x="391.5" y="280.7" transform="matrix(0.9503 0.3112 -0.3112 0.9503 107.9162 -108.3683)" fill="#070B23" width="4" height="6.5"/>
			
				<rect x="398.6" y="283" transform="matrix(0.9503 0.3112 -0.3112 0.9503 108.9982 -110.4737)" fill="#070B23" width="4" height="6.5"/>
			
				<rect x="405.8" y="285.4" transform="matrix(0.9503 0.3112 -0.3112 0.9503 110.0801 -112.579)" fill="#070B23" width="4" height="6.5"/>
			
				<rect x="412.9" y="287.7" transform="matrix(0.9503 0.3112 -0.3112 0.9503 111.162 -114.6844)" fill="#070B23" width="4" height="6.5"/>
			
				<rect x="420.1" y="290.1" transform="matrix(0.9503 0.3112 -0.3112 0.9503 112.244 -116.7898)" fill="#070B23" width="4" height="6.5"/>
			
				<rect x="427.2" y="292.4" transform="matrix(0.9503 0.3112 -0.3112 0.9503 113.3259 -118.8952)" fill="#070B23" width="4" height="6.5"/>
			
				<rect x="434.3" y="294.7" transform="matrix(0.9503 0.3112 -0.3112 0.9503 114.4079 -121.0005)" fill="#070B23" width="4" height="6.5"/>
			
				<rect x="441.5" y="297.1" transform="matrix(0.9503 0.3112 -0.3112 0.9503 115.4898 -123.1059)" fill="#070B23" width="4" height="6.5"/>
			
				<rect x="448.6" y="299.4" transform="matrix(0.9503 0.3112 -0.3112 0.9503 116.5717 -125.2113)" fill="#070B23" width="4" height="6.5"/>
			
				<rect x="455.8" y="301.7" transform="matrix(0.9503 0.3112 -0.3112 0.9503 117.6537 -127.3166)" fill="#070B23" width="4" height="6.5"/>
			
				<rect x="462.9" y="304.1" transform="matrix(0.9503 0.3112 -0.3112 0.9503 118.7356 -129.422)" fill="#070B23" width="4" height="6.5"/>
			
				<rect x="470" y="306.4" transform="matrix(0.9503 0.3112 -0.3112 0.9503 119.8176 -131.5274)" fill="#070B23" width="4" height="6.5"/>
			
				<rect x="477.2" y="308.8" transform="matrix(0.9503 0.3112 -0.3112 0.9503 120.8995 -133.6327)" fill="#070B23" width="4" height="6.5"/>
			
				<rect x="494.8" y="314.5" transform="matrix(0.9503 0.3112 -0.3112 0.9503 123.5648 -138.8191)" fill="#070B23" width="4" height="6.5"/>
			
				<rect x="508.7" y="319.1" transform="matrix(0.9503 0.3112 -0.3112 0.9503 125.6847 -142.9443)" fill="#070B23" width="4" height="6.5"/>
			
				<rect x="522.6" y="323.6" transform="matrix(0.9503 0.3112 -0.3112 0.9503 127.787 -147.0352)" fill="#070B23" width="4" height="6.5"/>
			
				<rect x="536.4" y="328.2" transform="matrix(0.9503 0.3112 -0.3112 0.9503 129.8805 -151.109)" fill="#070B23" width="4" height="6.5"/>
			
				<rect x="545.6" y="331.2" transform="matrix(0.9503 0.3112 -0.3112 0.9503 131.2791 -153.8306)" fill="#070B23" width="4" height="6.5"/>
			
				<rect x="554.9" y="334.2" transform="matrix(0.9503 0.3112 -0.3112 0.9503 132.6777 -156.5521)" fill="#070B23" width="4" height="6.5"/>
			
				<rect x="564.1" y="337.2" transform="matrix(0.9503 0.3112 -0.3112 0.9503 134.0763 -159.2737)" fill="#070B23" width="4" height="6.5"/>
			
				<rect x="578.1" y="341.8" transform="matrix(0.9503 0.3112 -0.3112 0.9503 136.205 -163.416)" fill="#070B23" width="4" height="6.5"/>
			
				<rect x="587.8" y="345" transform="matrix(0.9503 0.3112 -0.3112 0.9503 137.6651 -166.2574)" fill="#070B23" width="4" height="6.5"/>
			
				<rect x="596.8" y="347.9" transform="matrix(0.9503 0.3112 -0.3112 0.9503 139.0286 -168.9105)" fill="#070B23" width="4" height="6.5"/>
			
				<rect x="605.8" y="350.9" transform="matrix(0.9503 0.3112 -0.3112 0.9503 140.392 -171.5636)" fill="#070B23" width="4" height="6.5"/>
			
				<rect x="614.8" y="353.8" transform="matrix(0.9503 0.3112 -0.3112 0.9503 141.7554 -174.2167)" fill="#070B23" width="4" height="6.5"/>
			
				<rect x="624.3" y="356.9" transform="matrix(0.9503 0.3112 -0.3112 0.9503 143.2068 -177.041)" fill="#070B23" width="4" height="6.5"/>
			
				<rect x="633.9" y="360.1" transform="matrix(0.9503 0.3112 -0.3112 0.9503 144.6494 -179.8481)" fill="#070B23" width="4" height="6.5"/>
			
				<rect x="642.9" y="363" transform="matrix(0.9503 0.3112 -0.3112 0.9503 146.0128 -182.5012)" fill="#070B23" width="4" height="6.5"/>
			
				<rect x="652.5" y="366.2" transform="matrix(0.9503 0.3112 -0.3112 0.9503 147.473 -185.3426)" fill="#070B23" width="4" height="6.5"/>
			
				<rect x="661" y="369" transform="matrix(0.9503 0.3112 -0.3112 0.9503 148.766 -187.8588)" fill="#070B23" width="4" height="6.5"/>
			
				<rect x="670.6" y="372.1" transform="matrix(0.9503 0.3112 -0.3112 0.9503 150.2262 -190.7002)" fill="#070B23" width="4" height="6.5"/>
			
				<rect x="679.6" y="375.1" transform="matrix(0.9503 0.3112 -0.3112 0.9503 151.5896 -193.3533)" fill="#070B23" width="4" height="6.5"/>
			
				<rect x="688.7" y="378" transform="matrix(0.9503 0.3112 -0.3112 0.9503 152.9618 -196.0235)" fill="#070B23" width="4" height="6.5"/>
			
				<rect x="697.8" y="381" transform="matrix(0.9503 0.3112 -0.3112 0.9503 154.334 -198.6937)" fill="#070B23" width="4" height="6.5"/>
			
				<rect x="706.8" y="384" transform="matrix(0.9503 0.3112 -0.3112 0.9503 155.7063 -201.364)" fill="#070B23" width="4" height="6.5"/>
			
				<rect x="715.9" y="386.9" transform="matrix(0.9503 0.3112 -0.3112 0.9503 157.0785 -204.0342)" fill="#070B23" width="4" height="6.5"/>
			
				<rect x="725.4" y="390" transform="matrix(0.9503 0.3112 -0.3112 0.9503 158.5211 -206.8413)" fill="#070B23" width="4" height="6.5"/>
			
				<rect x="726.3" y="376.7" transform="matrix(0.9503 0.3112 -0.3112 0.9503 154.1359 -207.8255)" fill="#070B23" width="4" height="4.7"/>
			
				<rect x="733.4" y="379.1" transform="matrix(0.9503 0.3112 -0.3112 0.9503 155.2149 -209.9251)" fill="#070B23" width="4" height="4.7"/>
			
				<rect x="740.5" y="381.4" transform="matrix(0.9503 0.3112 -0.3112 0.9503 156.2939 -212.0248)" fill="#070B23" width="4" height="4.7"/>
			
				<rect x="747.6" y="383.7" transform="matrix(0.9503 0.3112 -0.3112 0.9503 157.3729 -214.1245)" fill="#070B23" width="4" height="4.7"/>
			
				<rect x="754.7" y="386.1" transform="matrix(0.9503 0.3112 -0.3112 0.9503 158.4519 -216.2241)" fill="#070B23" width="4" height="4.7"/>
			
				<rect x="761.9" y="388.4" transform="matrix(0.9503 0.3112 -0.3112 0.9503 159.5309 -218.3238)" fill="#070B23" width="4" height="4.7"/>
			
				<rect x="769" y="390.7" transform="matrix(0.9503 0.3112 -0.3112 0.9503 160.6099 -220.4234)" fill="#070B23" width="4" height="4.7"/>
			
				<rect x="776.1" y="393.1" transform="matrix(0.9503 0.3112 -0.3112 0.9503 161.6889 -222.5231)" fill="#070B23" width="4" height="4.7"/>
			
				<rect x="783.2" y="395.4" transform="matrix(0.9503 0.3112 -0.3112 0.9503 162.768 -224.6228)" fill="#070B23" width="4" height="4.7"/>
			
				<rect x="790.3" y="397.7" transform="matrix(0.9503 0.3112 -0.3112 0.9503 163.847 -226.7224)" fill="#070B23" width="4" height="4.7"/>
			
				<rect x="797.5" y="400" transform="matrix(0.9503 0.3112 -0.3112 0.9503 164.926 -228.8221)" fill="#070B23" width="4" height="4.7"/>
			
				<rect x="804.6" y="402.4" transform="matrix(0.9503 0.3112 -0.3112 0.9503 166.005 -230.9218)" fill="#070B23" width="4" height="4.7"/>
			
				<rect x="811.7" y="404.7" transform="matrix(0.9503 0.3112 -0.3112 0.9503 167.084 -233.0214)" fill="#070B23" width="4" height="4.7"/>
			
				<rect x="818.8" y="407" transform="matrix(0.9503 0.3112 -0.3112 0.9503 168.163 -235.1211)" fill="#070B23" width="4" height="4.7"/>
			
				<rect x="825.9" y="409.4" transform="matrix(0.9503 0.3112 -0.3112 0.9503 169.242 -237.2207)" fill="#070B23" width="4" height="4.7"/>
			
				<rect x="833" y="411.7" transform="matrix(0.9503 0.3112 -0.3112 0.9503 170.321 -239.3204)" fill="#070B23" width="4" height="4.7"/>
			
				<rect x="840.2" y="414" transform="matrix(0.9503 0.3112 -0.3112 0.9503 171.4 -241.4201)" fill="#070B23" width="4" height="4.7"/>
			
				<rect x="847.3" y="416.4" transform="matrix(0.9503 0.3112 -0.3112 0.9503 172.479 -243.5197)" fill="#070B23" width="4" height="4.7"/>
			
				<rect x="854.4" y="418.7" transform="matrix(0.9503 0.3112 -0.3112 0.9503 173.558 -245.6194)" fill="#070B23" width="4" height="4.7"/>
			
				<rect x="861.5" y="421" transform="matrix(0.9503 0.3112 -0.3112 0.9503 174.637 -247.7191)" fill="#070B23" width="4" height="4.7"/>
			
				<rect x="868.6" y="423.4" transform="matrix(0.9503 0.3112 -0.3112 0.9503 175.716 -249.8187)" fill="#070B23" width="4" height="4.7"/>
			
				<rect x="875.8" y="425.7" transform="matrix(0.9503 0.3112 -0.3112 0.9503 176.795 -251.9184)" fill="#070B23" width="4" height="4.7"/>
			
				<rect x="882.9" y="428" transform="matrix(0.9503 0.3112 -0.3112 0.9503 177.8741 -254.0181)" fill="#070B23" width="4" height="4.7"/>
			
				<rect x="890" y="430.4" transform="matrix(0.9503 0.3112 -0.3112 0.9503 178.9531 -256.1177)" fill="#070B23" width="4" height="4.7"/>
			
				<rect x="897.1" y="432.7" transform="matrix(0.9503 0.3112 -0.3112 0.9503 180.0321 -258.2174)" fill="#070B23" width="4" height="4.7"/>
			
				<rect x="904.2" y="435" transform="matrix(0.9503 0.3112 -0.3112 0.9503 181.1111 -260.317)" fill="#070B23" width="4" height="4.7"/>
			
				<rect x="911.4" y="437.3" transform="matrix(0.9503 0.3112 -0.3112 0.9503 182.1901 -262.4167)" fill="#070B23" width="4" height="4.7"/>
			
				<rect x="918.5" y="439.7" transform="matrix(0.9503 0.3112 -0.3112 0.9503 183.2691 -264.5164)" fill="#070B23" width="4" height="4.7"/>
			
				<rect x="925.6" y="442" transform="matrix(0.9503 0.3112 -0.3112 0.9503 184.3481 -266.616)" fill="#070B23" width="4" height="4.7"/>
			
				<rect x="932.7" y="444.3" transform="matrix(0.9503 0.3112 -0.3112 0.9503 185.4271 -268.7157)" fill="#070B23" width="4" height="4.7"/>
			
				<rect x="939.8" y="446.7" transform="matrix(0.9503 0.3112 -0.3112 0.9503 186.5061 -270.8153)" fill="#070B23" width="4" height="4.7"/>
			
				<rect x="946.9" y="449" transform="matrix(0.9503 0.3112 -0.3112 0.9503 187.5851 -272.915)" fill="#070B23" width="4" height="4.7"/>
			
				<rect x="954.1" y="451.3" transform="matrix(0.9503 0.3112 -0.3112 0.9503 188.6641 -275.0147)" fill="#070B23" width="4" height="4.7"/>
			
				<rect x="961.2" y="453.7" transform="matrix(0.9503 0.3112 -0.3112 0.9503 189.7431 -277.1143)" fill="#070B23" width="4" height="4.7"/>
			
				<rect x="968.3" y="456" transform="matrix(0.9503 0.3112 -0.3112 0.9503 190.8221 -279.214)" fill="#070B23" width="4" height="4.7"/>
			
				<rect x="975.4" y="458.3" transform="matrix(0.9503 0.3112 -0.3112 0.9503 191.9011 -281.3136)" fill="#070B23" width="4" height="4.7"/>
			
				<rect x="982.5" y="460.7" transform="matrix(0.9503 0.3112 -0.3112 0.9503 192.9801 -283.4133)" fill="#070B23" width="4" height="4.7"/>
			
				<rect x="989.7" y="463" transform="matrix(0.9503 0.3112 -0.3112 0.9503 194.0592 -285.513)" fill="#070B23" width="4" height="4.7"/>
			
				<rect x="996.8" y="465.3" transform="matrix(0.9503 0.3112 -0.3112 0.9503 195.1382 -287.6126)" fill="#070B23" width="4" height="4.7"/>
			
				<rect x="1003.9" y="467.7" transform="matrix(0.9503 0.3112 -0.3112 0.9503 196.2172 -289.7123)" fill="#070B23" width="4" height="4.7"/>
			
				<rect x="1011" y="470" transform="matrix(0.9503 0.3112 -0.3112 0.9503 197.2962 -291.812)" fill="#070B23" width="4" height="4.7"/>
			
				<rect x="734.9" y="393.1" transform="matrix(0.9503 0.3112 -0.3112 0.9503 159.9637 -209.6485)" fill="#070B23" width="4" height="6.5"/>
			
				<rect x="744.4" y="396.3" transform="matrix(0.9503 0.3112 -0.3112 0.9503 161.4062 -212.4557)" fill="#070B23" width="4" height="6.5"/>
			
				<rect x="753.9" y="399.4" transform="matrix(0.9503 0.3112 -0.3112 0.9503 162.8488 -215.2628)" fill="#070B23" width="4" height="6.5"/>
			
				<rect x="763.4" y="402.5" transform="matrix(0.9503 0.3112 -0.3112 0.9503 164.2914 -218.07)" fill="#070B23" width="4" height="6.5"/>
			
				<rect x="776.4" y="406.8" transform="matrix(0.9503 0.3112 -0.3112 0.9503 166.2618 -221.9041)" fill="#070B23" width="4" height="6.5"/>
			
				<rect x="783.7" y="409.1" transform="matrix(0.9503 0.3112 -0.3112 0.9503 167.3613 -224.0437)" fill="#070B23" width="4" height="6.5"/>
			
				<rect x="791" y="411.5" transform="matrix(0.9503 0.3112 -0.3112 0.9503 168.4608 -226.1833)" fill="#070B23" width="4" height="6.5"/>
			
				<rect x="798.2" y="413.9" transform="matrix(0.9503 0.3112 -0.3112 0.9503 169.5604 -228.3229)" fill="#070B23" width="4" height="6.5"/>
			
				<rect x="805.5" y="416.3" transform="matrix(0.9503 0.3112 -0.3112 0.9503 170.6599 -230.4625)" fill="#070B23" width="4" height="6.5"/>
			
				<rect x="812.7" y="418.6" transform="matrix(0.9503 0.3112 -0.3112 0.9503 171.7594 -232.6021)" fill="#070B23" width="4" height="6.5"/>
			
				<rect x="820" y="421" transform="matrix(0.9503 0.3112 -0.3112 0.9503 172.8589 -234.7418)" fill="#070B23" width="4" height="6.5"/>
			
				<rect x="827.2" y="423.4" transform="matrix(0.9503 0.3112 -0.3112 0.9503 173.9585 -236.8813)" fill="#070B23" width="4" height="6.5"/>
			
				<rect x="834.5" y="425.8" transform="matrix(0.9503 0.3112 -0.3112 0.9503 175.058 -239.021)" fill="#070B23" width="4" height="6.5"/>
			
				<rect x="841.7" y="428.1" transform="matrix(0.9503 0.3112 -0.3112 0.9503 176.1575 -241.1606)" fill="#070B23" width="4" height="6.5"/>
			
				<rect x="858.9" y="433.8" transform="matrix(0.9503 0.3112 -0.3112 0.9503 178.7612 -246.2271)" fill="#070B23" width="4" height="6.5"/>
			
				<rect x="872.3" y="438.2" transform="matrix(0.9503 0.3112 -0.3112 0.9503 180.7932 -250.1811)" fill="#070B23" width="4" height="6.5"/>
			
				<rect x="884.8" y="442.3" transform="matrix(0.9503 0.3112 -0.3112 0.9503 182.6932 -253.8783)" fill="#070B23" width="4" height="6.5"/>
			
				<rect x="894.1" y="445.3" transform="matrix(0.9503 0.3112 -0.3112 0.9503 184.0918 -256.5999)" fill="#070B23" width="4" height="6.5"/>
			
				<rect x="903" y="448.2" transform="matrix(0.9503 0.3112 -0.3112 0.9503 185.4464 -259.2359)" fill="#070B23" width="4" height="6.5"/>
			
				<rect x="911.9" y="451.1" transform="matrix(0.9503 0.3112 -0.3112 0.9503 186.7922 -261.8548)" fill="#070B23" width="4" height="6.5"/>
			
				<rect x="920.8" y="454" transform="matrix(0.9503 0.3112 -0.3112 0.9503 188.138 -264.4737)" fill="#070B23" width="4" height="6.5"/>
			
				<rect x="929.7" y="456.9" transform="matrix(0.9503 0.3112 -0.3112 0.9503 189.4839 -267.0925)" fill="#070B23" width="4" height="6.5"/>
			
				<rect x="938.5" y="459.8" transform="matrix(0.9503 0.3112 -0.3112 0.9503 190.8297 -269.7114)" fill="#070B23" width="4" height="6.5"/>
			
				<rect x="947.4" y="462.7" transform="matrix(0.9503 0.3112 -0.3112 0.9503 192.1755 -272.3303)" fill="#070B23" width="4" height="6.5"/>
			
				<rect x="956.3" y="465.6" transform="matrix(0.9503 0.3112 -0.3112 0.9503 193.5213 -274.9491)" fill="#070B23" width="4" height="6.5"/>
			
				<rect x="961.7" y="467.4" transform="matrix(0.9503 0.3112 -0.3112 0.9503 194.3482 -276.5581)" fill="#070B23" width="4" height="6.5"/>
			
				<rect x="970.7" y="470.4" transform="matrix(0.9503 0.3112 -0.3112 0.9503 195.7116 -279.2112)" fill="#070B23" width="4" height="6.5"/>
			
				<rect x="979.6" y="473.3" transform="matrix(0.9503 0.3112 -0.3112 0.9503 197.0486 -281.813)" fill="#070B23" width="4" height="6.5"/>
			
				<rect x="988.7" y="476.3" transform="matrix(0.9503 0.3112 -0.3112 0.9503 198.4297 -284.5003)" fill="#070B23" width="4" height="6.5"/>
			
				<rect x="997.8" y="479.2" transform="matrix(0.9503 0.3112 -0.3112 0.9503 199.8107 -287.1877)" fill="#070B23" width="4" height="6.5"/>
			
				<rect x="347.1" y="253.4" transform="matrix(0.9503 0.3112 -0.3112 0.9503 98.0393 -99.1202)" fill="#070B23" width="25.1" height="8.5"/>
			
				<rect x="372.1" y="259.7" transform="matrix(0.9503 0.3112 -0.3112 0.9503 100.9417 -104.7682)" fill="#070B23" width="13.3" height="8.5"/>
			
				<rect x="386.7" y="264.2" transform="matrix(0.9503 0.3112 -0.3112 0.9503 103.0471 -108.8651)" fill="#070B23" width="11.9" height="8.5"/>
			
				<rect x="399.5" y="268.8" transform="matrix(0.9503 0.3112 -0.3112 0.9503 105.1739 -113.0037)" fill="#070B23" width="14.4" height="8.5"/>
			
				<rect x="414.5" y="273.6" transform="matrix(0.9503 0.3112 -0.3112 0.9503 107.375 -117.2869)" fill="#070B23" width="13.4" height="8.5"/>
			
				<rect x="428.8" y="278.2" transform="matrix(0.9503 0.3112 -0.3112 0.9503 109.5007 -121.4232)" fill="#070B23" width="12.9" height="8.5"/>
			
				<rect x="442.5" y="282.7" transform="matrix(0.9503 0.3112 -0.3112 0.9503 111.5883 -125.4855)" fill="#070B23" width="12.9" height="8.5"/>
			
				<rect x="456.3" y="287.2" transform="matrix(0.9503 0.3112 -0.3112 0.9503 113.6759 -129.5479)" fill="#070B23" width="12.9" height="8.5"/>
			
				<rect x="470.9" y="292" transform="matrix(0.9503 0.3112 -0.3112 0.9503 115.8809 -133.8386)" fill="#070B23" width="12.9" height="8.5"/>
			
				<rect x="484.9" y="296.6" transform="matrix(0.9503 0.3112 -0.3112 0.9503 118.0154 -137.9922)" fill="#070B23" width="12.9" height="8.5"/>
			
				<rect x="498.6" y="301.1" transform="matrix(0.9503 0.3112 -0.3112 0.9503 120.097 -142.0429)" fill="#070B23" width="13.1" height="8.5"/>
			
				<rect x="512.8" y="305.7" transform="matrix(0.9503 0.3112 -0.3112 0.9503 122.255 -146.2422)" fill="#070B23" width="13.1" height="8.5"/>
			
				<rect x="526.6" y="310.2" transform="matrix(0.9503 0.3112 -0.3112 0.9503 124.3427 -150.3046)" fill="#070B23" width="13.1" height="8.5"/>
			
				<rect x="540.8" y="314.9" transform="matrix(0.9503 0.3112 -0.3112 0.9503 126.5007 -154.5039)" fill="#070B23" width="13.1" height="8.5"/>
			
				<rect x="554.7" y="319.5" transform="matrix(0.9503 0.3112 -0.3112 0.9503 128.6118 -158.612)" fill="#070B23" width="13.1" height="8.5"/>
			
				<rect x="568.7" y="323" transform="matrix(0.9503 0.3112 -0.3112 0.9503 130.2683 -161.8354)" fill="#070B23" width="7.2" height="8.5"/>
			
				<rect x="577.4" y="326.4" transform="matrix(0.9503 0.3112 -0.3112 0.9503 131.8015 -164.8189)" fill="#070B23" width="9.9" height="8.5"/>
			
				<rect x="587.4" y="333.4" transform="matrix(0.9503 0.3112 -0.3112 0.9503 134.04 -168.0623)" fill="#070B23" width="12.5" height="5.2"/>
			
				<rect x="600.8" y="337.8" transform="matrix(0.9503 0.3112 -0.3112 0.9503 136.0807 -172.0334)" fill="#070B23" width="12.5" height="5.2"/>
			
				<rect x="614.3" y="342.2" transform="matrix(0.9503 0.3112 -0.3112 0.9503 138.1214 -176.0045)" fill="#070B23" width="12.5" height="5.2"/>
			
				<rect x="627.8" y="346.6" transform="matrix(0.9503 0.3112 -0.3112 0.9503 140.1622 -179.9756)" fill="#070B23" width="12.5" height="5.2"/>
			
				<rect x="641.2" y="351" transform="matrix(0.9503 0.3112 -0.3112 0.9503 142.2029 -183.9467)" fill="#070B23" width="12.5" height="5.2"/>
			
				<rect x="654.7" y="355.4" transform="matrix(0.9503 0.3112 -0.3112 0.9503 144.2436 -187.9178)" fill="#070B23" width="12.5" height="5.2"/>
			
				<rect x="668.2" y="359.8" transform="matrix(0.9503 0.3112 -0.3112 0.9503 146.2844 -191.8889)" fill="#070B23" width="12.5" height="5.2"/>
			
				<rect x="681.6" y="364.2" transform="matrix(0.9503 0.3112 -0.3112 0.9503 148.3251 -195.86)" fill="#070B23" width="12.5" height="5.2"/>
			
				<rect x="695.1" y="368.6" transform="matrix(0.9503 0.3112 -0.3112 0.9503 150.3658 -199.8311)" fill="#070B23" width="12.5" height="5.2"/>
			<path fill="#070B23" d="M715,378.5l-6.9-2.3l1.6-5l11.9,3.9l0,0C720.7,377.9,717.7,379.4,715,378.5z"/>
			<path fill="#070B23" d="M483.1,178.1c0,0-28.9-6.6-38.1-5.3c0,0-1.7,11.8-3.9,27.4l38.2,6.5L483.1,178.1z"/>
			<path fill="#070B23" d="M657.6,235.3c0,0-28.9-6.6-38.1-5.3c0,0-1.6,11.1-3.7,25.8l38.2,6.5L657.6,235.3z"/>
			<path fill="#070B23" d="M832.2,292.5c0,0-28.9-6.6-38.1-5.3c0,0-1.6,11.2-3.7,26.1l38.2,6.5L832.2,292.5z"/>
			<path fill="#070B23" d="M1002.1,348.1c0,0-28.9-6.6-38.1-5.3c0,0-1.6,11.1-3.7,25.8l38.2,6.5L1002.1,348.1z"/>
			<polygon fill="#28241F" points="1180.7,293.3 1152.2,542 1144.3,539.5 			"/>
			<path fill="#356080" d="M1155.1,541.9c0,0,7.8-1.3,13-6.8l153,47.5c0,0-1.5,3.2-4.1,6.9C1313.6,591.2,1155.1,541.9,1155.1,541.9z
				"/>
			<g>
				<path fill="#FFFFFF" d="M1134,551.3l11.4,3.7l-1.1,3.3l-3.8-1.3l-6.6,20.1l-3.7-1.2l6.6-20.1l-3.8-1.3L1134,551.3z"/>
				<path fill="#FFFFFF" d="M1147,555.5l3.7,1.2l-7.7,23.4l-3.7-1.2L1147,555.5z"/>
				<path fill="#FFFFFF" d="M1152.2,557.3l11.4,3.7l-1.1,3.3l-3.8-1.3l-6.6,20.1l-3.7-1.2l6.6-20.1l-3.8-1.3L1152.2,557.3z"/>
				<path fill="#FFFFFF" d="M1168.2,588.4l-3.7-1.2l0.8-4.5l-4.5-1.5l-2,4l-3.4-1.1l11.4-22.2l5.4,1.8L1168.2,588.4z M1162.2,578.2
					l3.5,1.2l2.1-12.4L1162.2,578.2z"/>
				<path fill="#FFFFFF" d="M1178.7,573.1l-5.6,16.9l-3.3-1.1l7.7-23.4l4.6,1.5l-0.8,15.2l4.6-14l3.3,1.1l-7.7,23.4l-3.8-1.2
					L1178.7,573.1z"/>
				<path fill="#FFFFFF" d="M1191.8,570.2l3.7,1.2l-7.7,23.4l-3.7-1.2L1191.8,570.2z"/>
				<path fill="#FFFFFF" d="M1204,590.5l-1,3.1c-1.2,3.7-3.8,5.3-7.4,4.1c-3.6-1.2-4.8-3.9-3.6-7.7l4-12.2c1.2-3.7,3.8-5.3,7.4-4.1
					c3.6,1.2,4.8,3.9,3.6,7.7l-0.7,2.3l-3.5-1.1l0.8-2.5c0.5-1.7,0-2.5-1.2-2.9c-1.2-0.4-2.1,0-2.7,1.7l-4.1,12.6
					c-0.5,1.7,0,2.5,1.2,2.9c1.2,0.4,2.1,0,2.6-1.6l1.1-3.3L1204,590.5z"/>
			</g>
		</g>
	</g>
</g>
</svg>
