<?xml version="1.0" encoding="utf-8"?>
<!-- Generator: Adobe Illustrator 18.1.1, SVG Export Plug-In . SVG Version: 6.00 Build 0)  -->
<svg version="1.1" id="Layer_1" xmlns="http://www.w3.org/2000/svg" xmlns:xlink="http://www.w3.org/1999/xlink" x="0px" y="0px"
	 viewBox="0 0 425.5 600.8" enable-background="new 0 0 425.5 600.8" xml:space="preserve">
<g>
	<polygon points="75.6,253.9 129.9,203 128.4,212.1 82.2,259.5 	"/>
	<polygon points="117,274.4 77.2,252.9 55.9,265.4 38.9,261.4 0,311.9 8.8,358 68.4,396.4 117,346.1 130.9,298.4 118.9,298.1 	"/>
	<path fill="#050503" d="M281.6,561h-21.3c0,0-8.3,26.9,19.4,28.5h36c0,0,7.9-17-13.4-18.2C302.1,571.3,283.6,568.1,281.6,561z"/>
	<path fill="#231F20" d="M281.2,126.7c0,0-81.3-86.3-177-9.4l14.7,180.8l124.9,4.5L281.2,126.7z"/>
	<polygon fill="#674F4E" points="171.6,86.4 155.3,104.8 166.6,299.7 203,300.9 224.4,107.6 210.4,87.9 	"/>
	<path fill="#F9BD91" d="M226.2,14.1l-4.1,67.6L211.8,81l-1.3,22.2c0,0-12.9,22-39.8-2.4l2.8-46.2c0,0-8.4-2.2-7.9-12.1
		c0.6-9.8,10.1-4.5,10.1-4.5l1.6-26.9L226.2,14.1z"/>
	<path fill="#3C2415" d="M175.8,38.1v10.8h7.2V38.1l9.7-7.1c0,0-6.3-10.7-6.3-11.6s28.2,5.3,35.1,0l4.6,6.6l2-12.6
		c0,0,4.1-8.2-6.9-9.4c-11-1.3-65.9-19.9-54.6,35.3C166.6,39.3,173.3,35.4,175.8,38.1z"/>
	<polygon fill="#231F20" points="142.9,221.8 108.9,210.8 112.7,197.7 104.2,117.3 64,219.1 83.2,240 144.6,248.6 	"/>
	<path fill="#231F20" d="M281.2,126.7l23.2,82.4l-30.9,14.1L263,212.3C263,212.3,243.8,126.7,281.2,126.7z"/>
	<path fill="#414042" d="M304.4,209.1c1.9,37-16.1,40.1-22.1,39.2s0.7-22.1,0.7-22.1s-2,8.9-6.6,8.1c-4.6-0.8-2.8-11.1-2.8-11.1
		s1.4-17,14.2-19.7S304.4,209.1,304.4,209.1z"/>
	<path fill="#231F20" d="M243.8,302.6L288.9,562h-33.8l-65.3-229.7L128,572.4H92.3L129,300.9l0.3-2.4
		C129.3,298.5,195.2,297.8,243.8,302.6z"/>
	<path fill="#050503" d="M102,572.4h21.3c0,0,8.3,26.9-19.4,28.5H68c0,0-7.9-17,13.4-18.2C81.4,582.6,100,579.5,102,572.4z"/>
	<path fill="#808285" d="M195.9,80l9.8-10.1l2.1-4.5c0,0-1.2-2.6,0-3.6s3.5-3.2,3.5-3.2l1.9-5.2v-4.5l-1.9-5.9l-1-8l-4-3.5l-7.3-3.8
		l-3.2,7.1l-6,5.4l-1.3,5.6l1.3,5.6l2.8,3.5l1.3,1.6l-4.1,7.8l-1.3,5.2L195.9,80z"/>
	<circle fill="#58595B" cx="204.5" cy="50.3" r="6.4"/>
	<circle fill="#ED1C24" cx="204.8" cy="50" r="3"/>
	<polygon points="128.5,217.2 262,110.8 240.7,98.3 110.7,196.7 111.9,211.8 	"/>
	<g>
		<g>
			<path fill="#B57504" d="M121.3,184.6l15.6,21.3c1.7,2.3,1.2,5.7-1.1,7.4h0c-2.3,1.7-5.7,1.2-7.4-1.1l-15.6-21.3"/>
			
				<rect x="119.8" y="188.3" transform="matrix(0.8057 -0.5923 0.5923 0.8057 -93.4221 112.7432)" fill="#603913" width="10.6" height="20.9"/>
		</g>
		<g>
			<path fill="#B57504" d="M131.5,177.1l15.6,21.3c1.7,2.3,1.2,5.7-1.1,7.4l0,0c-2.3,1.7-5.7,1.2-7.4-1.1L123,183.3"/>
			
				<rect x="130.1" y="180.8" transform="matrix(0.8057 -0.5923 0.5923 0.8057 -86.9765 117.3546)" fill="#603913" width="10.6" height="20.9"/>
		</g>
		<g>
			<path fill="#B57504" d="M141.8,169.7l15.6,21.3c1.7,2.3,1.2,5.7-1.1,7.4h0c-2.3,1.7-5.7,1.2-7.4-1.1L133.2,176"/>
			
				<rect x="140.3" y="173.5" transform="matrix(0.8057 -0.5923 0.5923 0.8057 -80.6439 122.003)" fill="#603913" width="10.6" height="20.9"/>
		</g>
		<g>
			<path fill="#B57504" d="M152,162.2l15.6,21.3c1.7,2.3,1.2,5.7-1.1,7.4l0,0c-2.3,1.7-5.7,1.2-7.4-1.1l-15.6-21.3"/>
			
				<rect x="150.6" y="165.9" transform="matrix(0.8057 -0.5923 0.5923 0.8057 -74.1982 126.6144)" fill="#603913" width="10.6" height="20.9"/>
		</g>
		<g>
			<path fill="#B57504" d="M162.4,153.3l15.6,21.3c1.7,2.3,1.2,5.7-1.1,7.4l0,0c-2.3,1.7-5.7,1.2-7.4-1.1l-15.6-21.3"/>
			
				<rect x="160.9" y="157" transform="matrix(0.8057 -0.5923 0.5923 0.8057 -66.879 131.0079)" fill="#603913" width="10.6" height="20.9"/>
		</g>
		<g>
			<path fill="#B57504" d="M172.6,145.7l15.6,21.3c1.7,2.3,1.2,5.7-1.1,7.4l0,0c-2.3,1.7-5.7,1.2-7.4-1.1L164.1,152"/>
			
				<rect x="171.2" y="149.5" transform="matrix(0.8057 -0.5923 0.5923 0.8057 -60.4333 135.6193)" fill="#603913" width="10.6" height="20.9"/>
		</g>
		<g>
			<path fill="#B57504" d="M182.9,138.4l15.6,21.3c1.7,2.3,1.2,5.7-1.1,7.4v0c-2.3,1.7-5.7,1.2-7.4-1.1l-15.6-21.3"/>
			
				<rect x="181.4" y="142.1" transform="matrix(0.8057 -0.5923 0.5923 0.8057 -54.1007 140.2678)" fill="#603913" width="10.6" height="20.9"/>
		</g>
		<g>
			<path fill="#B57504" d="M193.1,130.9l15.6,21.3c1.7,2.3,1.2,5.7-1.1,7.4l0,0c-2.3,1.7-5.7,1.2-7.4-1.1l-15.6-21.3"/>
			
				<rect x="191.7" y="134.6" transform="matrix(0.8057 -0.5923 0.5923 0.8057 -47.6551 144.8792)" fill="#603913" width="10.6" height="20.9"/>
		</g>
		<g>
			<path fill="#B57504" d="M203.5,123.1l15.6,21.3c1.7,2.3,1.2,5.7-1.1,7.4h0c-2.3,1.7-5.7,1.2-7.4-1.1L195,129.4"/>
			
				<rect x="202.1" y="126.8" transform="matrix(0.8057 -0.5923 0.5923 0.8057 -41.0087 149.5031)" fill="#603913" width="10.6" height="20.9"/>
		</g>
		<g>
			<path fill="#B57504" d="M213.8,115.6l15.6,21.3c1.7,2.3,1.2,5.7-1.1,7.4h0c-2.3,1.7-5.7,1.2-7.4-1.1l-15.6-21.3"/>
			
				<rect x="212.3" y="119.3" transform="matrix(0.8057 -0.5923 0.5923 0.8057 -34.563 154.1145)" fill="#603913" width="10.6" height="20.9"/>
		</g>
		<g>
			<path fill="#B57504" d="M224,108.2l15.6,21.3c1.7,2.3,1.2,5.7-1.1,7.4l0,0c-2.3,1.7-5.7,1.2-7.4-1.1l-15.6-21.3"/>
			
				<rect x="222.6" y="112" transform="matrix(0.8057 -0.5923 0.5923 0.8057 -28.2304 158.763)" fill="#603913" width="10.6" height="20.9"/>
		</g>
		<g>
			<path fill="#B57504" d="M234.3,100.7l15.6,21.3c1.7,2.3,1.2,5.7-1.1,7.4l0,0c-2.3,1.7-5.7,1.2-7.4-1.1L225.7,107"/>
			
				<rect x="232.8" y="104.4" transform="matrix(0.8057 -0.5923 0.5923 0.8057 -21.7847 163.3744)" fill="#603913" width="10.6" height="20.9"/>
		</g>
	</g>
	<path fill="#7F5005" d="M67.3,414.7c0,0-1.1-23.4,8.3-45.7c9.4-22.3,16.6-63.4,16.6-63.4l20.1,12.6c0,0-1.6,18.8-6.3,37.3
		c-4.7,18.5-13.9,37.4-10.7,44.9C95.4,400.4,75.9,427.7,67.3,414.7z"/>
	<polygon points="110.7,291.8 262,110.8 267.6,114.9 114.7,302.6 	"/>
	<path fill="#58595B" d="M259.8,257.3h34.5h51.2h2.5h56.2v28.9h-55.5l-6.3,4.4h-79.1l-7.8,3.8c0,0,2.5,13.2-7.8,14.1H161l-8.5-7.6
		c0,0-27.2-10.3-27.2-55l61-9.6l66.3-1.6l41.5,10.2l0.8,7.4L259.8,257.3z"/>
	<path fill="#414042" d="M144.6,248.6c41.3,7.1,42.5-10.8,40.7-17.1s-24.4-2.4-24.4-2.4s9.6-0.8,8.2-5.6c-1.4-4.8-12.7-4.4-12.7-4.4
		s-18.7-0.9-20,11.8C135.1,243.6,144.6,248.6,144.6,248.6z"/>
	<path fill="#414042" d="M263.3,257.3c0,0-13.8,11.3,0,33.3l-7.8,3.8c0,0-14-6.9-2-37H263.3z"/>
	<path fill="#414042" d="M348.7,286.2c0,0-13.8-11.9-3.1-28.9h-10.7c0,0-9.1,23.9,7.5,33.3L348.7,286.2z"/>
	<ellipse fill="#414042" cx="412" cy="272.3" rx="12.6" ry="22.1"/>
	<ellipse fill="#58595B" cx="414.1" cy="271.9" rx="11.5" ry="20"/>
	<polygon fill="#414042" points="295,252.3 252.3,248.6 253.9,255.1 293.1,257.3 	"/>
	<path fill="#414042" d="M229.3,278.9h-56.7c-0.6,0-1-0.5-1-1v-7.1c0-0.6,0.5-1,1-1h56.7c0.6,0,1,0.5,1,1v7.1
		C230.3,278.5,229.9,278.9,229.3,278.9z"/>
	<path fill="#414042" d="M229.2,298.4h-61.6c-0.7,0-1.2-0.5-1.2-1.2v-8.3c0-0.7,0.5-1.2,1.2-1.2h61.6c0.7,0,1.2,0.5,1.2,1.2v8.3
		C230.3,297.9,229.8,298.4,229.2,298.4z"/>
	<path fill="#414042" d="M237.3,261.4h-51.7c-0.5,0-0.9-0.4-0.9-0.9v-6.6c0-0.5,0.4-0.9,0.9-0.9h51.7c0.5,0,0.9,0.4,0.9,0.9v6.6
		C238.2,260.9,237.8,261.4,237.3,261.4z"/>
	<path fill="#B57504" d="M199.6,291.8h-25.2c0,0-32.4,34.7-53.7,70.8s-42.5,63.9-53.3,52.1c0,0,6.6,19.8,28.7,20.7
		c0,0,26.4-9.9,54.6-71.8S199.6,291.8,199.6,291.8z"/>
	<path fill="#7F5005" d="M96,435.4c0,0,19.1-10.4,36.5-38.1s35.9-86.7,67-105.5v4.7c0,0-28.5,27-42,60.9
		C144,391.3,117.7,436.2,96,435.4z"/>
</g>
</svg>
