<?xml version="1.0" encoding="utf-8"?>
<!-- Generator: Adobe Illustrator 18.1.1, SVG Export Plug-In . SVG Version: 6.00 Build 0)  -->
<svg version="1.1" id="Layer_1" xmlns="http://www.w3.org/2000/svg" xmlns:xlink="http://www.w3.org/1999/xlink" x="0px" y="0px"
	 viewBox="0 0 888 557" enable-background="new 0 0 888 557" xml:space="preserve">
<g>
	<defs>
		<path id="SVGID_1_" d="M144,14.7c0,0-174.7,218.2-182.5,277S27.5,420,27.5,420l-8.4,23l9.8,22.7L6.6,493.3c0,0-10.8,21.2,0,55.2
			c10.8,34,27.5,43.6,36,44c8.6,0.5,970.6-131,970.6-131L834.4,50c0,0-542.2-159.2-536.9-153.9C302.7-98.5,144,14.7,144,14.7z"/>
	</defs>
	<clipPath id="SVGID_2_">
		<use xlink:href="#SVGID_1_"  overflow="visible"/>
	</clipPath>
	<g clip-path="url(#SVGID_2_)">
		<g>
			<polyline fill="none" stroke="#FFFFFF" stroke-miterlimit="10" points="-464.1,503.8 -794,252.5 -1027.9,649.9 			"/>
			<polyline fill="none" stroke="#FFFFFF" stroke-miterlimit="10" points="-865.9,631.6 -794,252.5 -940.8,644.9 			"/>
			<polyline fill="none" stroke="#FFFFFF" stroke-miterlimit="10" points="-525.8,506.9 -794,252.5 -794.4,616.8 			"/>
			<polyline fill="none" stroke="#FFFFFF" stroke-miterlimit="10" points="-600.9,546.7 -794,252.5 -576.6,515 			"/>
			<polyline fill="none" stroke="#FFFFFF" stroke-miterlimit="10" points="-723.4,605.3 -794,252.5 -650.4,571.1 			"/>
			<polyline fill="none" stroke="#FFFFFF" stroke-miterlimit="10" points="289.8,359.2 503.2,3.6 867.6,286.2 			"/>
			<polyline fill="none" stroke="#FFFFFF" stroke-miterlimit="10" points="710.3,329.1 503.2,3.6 784.8,313.8 			"/>
			<polyline fill="none" stroke="#FFFFFF" stroke-miterlimit="10" points="348.2,339.2 503.2,3.6 638.4,341.8 			"/>
			<polyline fill="none" stroke="#FFFFFF" stroke-miterlimit="10" points="432.7,348.4 503.2,3.6 398.4,327.9 			"/>
			<polyline fill="none" stroke="#FFFFFF" stroke-miterlimit="10" points="568.2,357.4 503.2,3.6 487.7,352.7 			"/>
			<polygon fill="#28241F" points="-794.1,252 -658,581.1 -669.6,583.3 			"/>
			<path fill="#823D36" d="M-430.5,379.4l-52,18.3c15.2,39.7,37.3,97.3,37.3,96.4c0.1-1.4,55.3-10.6,55.3-10.6L-430.5,379.4z"/>
			<path fill="#823D36" d="M-174.7,328.2l-51.9,18.2c15.2,39.8,38.1,99.3,38.1,98.4c0.1-1.4,55.3-10.6,55.3-10.6L-174.7,328.2z"/>
			<path fill="#823D36" d="M82.1,279.2l-51.9,18.2c15.2,39.7,37.9,99.1,38,98.1c0.1-1.4,55.3-10.6,55.3-10.6L82.1,279.2z"/>
			<path fill="#823D36" d="M331.7,231l-51.9,18.2c15.2,39.8,38.1,99.3,38.1,98.4c0.1-1.4,55.3-10.6,55.3-10.6L331.7,231z"/>
			<path fill="#356080" d="M-715.8,606.5c0,0,15.3-6.8,11.4-25.5c0,0,120.9-22.8,137.2-24.6c16.3-1.7,27.7-8.5,31.3-15.9L442,345.1
				c0,0,5.2,8.9,20.9,5.9c15.7-3,53.4-11.3,53.4-11.3s0.6,17.9,19.8,18.5l-991.9,207.7L-715.8,606.5z"/>
			<path fill="#356080" d="M-810.2,623.2c0,0-10.8-3.3-17.1-11.9l-224.5,39.5c0,0,1.4,7.2,5.8,10.2
				C-1041.6,664-810.2,623.2-810.2,623.2z"/>
			<path fill="#070B23" d="M-1046,661c0,0,27.5,17.8,72.4,23.3l-20.1,65.1c0,0,472.3-90.6,657.9-126.2S886.9,386.7,886.9,386.7
				l-11.2-109.9C875.7,276.9,153.6,459.1-1046,661z"/>
			<path fill="#295064" d="M-638.1,560.9L492.8,334.6l-2-10.2c0,0-28,4.7-41.5,8s-24.7,1.3-28.9-4l52-10l-3.4-17.7L39.8,383.1
				l2.6,13.7l-618.9,118.8c0,0-13.2,6.6-14.8,13l24.8-4.8l2.4,12.8l-72.2,13.9L-638.1,560.9z"/>
			<circle fill="#070B23" cx="-692" cy="594.1" r="2.4"/>
			<circle fill="#070B23" cx="-681.7" cy="592.2" r="2.4"/>
			<circle fill="#070B23" cx="-671.5" cy="590.2" r="2.4"/>
			<circle fill="#070B23" cx="-661.3" cy="588.2" r="2.4"/>
			<circle fill="#070B23" cx="-651" cy="586.3" r="2.4"/>
			<circle fill="#070B23" cx="-640.8" cy="584.3" r="2.4"/>
			<circle fill="#070B23" cx="-630.5" cy="582.3" r="2.4"/>
			<circle fill="#070B23" cx="-620.3" cy="580.4" r="2.4"/>
			<circle fill="#070B23" cx="-577.3" cy="572.1" r="2.4"/>
			<circle fill="#070B23" cx="-566.4" cy="570" r="2.4"/>
			<circle fill="#070B23" cx="-555.5" cy="567.9" r="2.4"/>
			<circle fill="#070B23" cx="-544.6" cy="565.8" r="2.4"/>
			<circle fill="#070B23" cx="-493.4" cy="556" r="2.4"/>
			<circle fill="#070B23" cx="-480.4" cy="553.5" r="2.4"/>
			<circle fill="#070B23" cx="-467.4" cy="551" r="2.4"/>
			<circle fill="#070B23" cx="-454.5" cy="548.6" r="2.4"/>
			<circle fill="#070B23" cx="-441.5" cy="546.1" r="2.4"/>
			<circle fill="#070B23" cx="-428.5" cy="543.6" r="2.4"/>
			<circle fill="#070B23" cx="-403.3" cy="538.7" r="2.4"/>
			<circle fill="#070B23" cx="-388.9" cy="536" r="2.4"/>
			<circle fill="#070B23" cx="-374.6" cy="533.2" r="2.4"/>
			<circle fill="#070B23" cx="-360.3" cy="530.5" r="2.4"/>
			<circle fill="#070B23" cx="-345.9" cy="527.7" r="2.4"/>
			<circle fill="#070B23" cx="-331.6" cy="525" r="2.4"/>
			<circle fill="#070B23" cx="-307" cy="520.3" r="2.4"/>
			<circle fill="#070B23" cx="-293.4" cy="517.7" r="2.4"/>
			<circle fill="#070B23" cx="-279.7" cy="515" r="2.4"/>
			<circle fill="#070B23" cx="-266.1" cy="512.4" r="2.4"/>
			<circle fill="#070B23" cx="-238.8" cy="507.2" r="2.4"/>
			<circle fill="#070B23" cx="-225.8" cy="504.7" r="2.4"/>
			<circle fill="#070B23" cx="-212.9" cy="502.2" r="2.4"/>
			<circle fill="#070B23" cx="-199.9" cy="499.7" r="2.4"/>
			<circle fill="#070B23" cx="-186.9" cy="497.2" r="2.4"/>
			<circle fill="#070B23" cx="-174" cy="494.7" r="2.4"/>
			<circle fill="#070B23" cx="-144.6" cy="489.1" r="2.4"/>
			<circle fill="#070B23" cx="-130.3" cy="486.4" r="2.4"/>
			<circle fill="#070B23" cx="-115.9" cy="483.6" r="2.4"/>
			<circle fill="#070B23" cx="-101.6" cy="480.9" r="2.4"/>
			<circle fill="#070B23" cx="-87.3" cy="478.1" r="2.4"/>
			<circle fill="#070B23" cx="-73" cy="475.4" r="2.4"/>
			<circle fill="#070B23" cx="-49.1" cy="470.8" r="2.4"/>
			<circle fill="#070B23" cx="-35.4" cy="468.2" r="2.4"/>
			<circle fill="#070B23" cx="-21.8" cy="465.5" r="2.4"/>
			<circle fill="#070B23" cx="-8.1" cy="462.9" r="2.4"/>
			<circle fill="#070B23" cx="5.5" cy="460.3" r="2.4"/>
			<circle fill="#070B23" cx="19.2" cy="457.7" r="2.4"/>
			<circle fill="#070B23" cx="44.4" cy="452.8" r="2.4"/>
			<circle fill="#070B23" cx="54.6" cy="387.9" r="2.4"/>
			<circle fill="#070B23" cx="66.2" cy="385.7" r="2.4"/>
			<circle fill="#070B23" cx="77.8" cy="383.4" r="2.4"/>
			<circle fill="#070B23" cx="89.4" cy="381.2" r="2.4"/>
			<circle fill="#070B23" cx="101" cy="379" r="2.4"/>
			<circle fill="#070B23" cx="112.6" cy="376.8" r="2.4"/>
			<circle fill="#070B23" cx="124.2" cy="374.5" r="2.4"/>
			<circle fill="#070B23" cx="157.7" cy="368.1" r="2.4"/>
			<circle fill="#070B23" cx="198.6" cy="360.3" r="2.4"/>
			<circle fill="#070B23" cx="206.1" cy="358.8" r="2.4"/>
			<circle fill="#070B23" cx="213.6" cy="357.4" r="2.4"/>
			<circle fill="#070B23" cx="221.1" cy="355.9" r="2.4"/>
			<circle fill="#070B23" cx="228.7" cy="354.5" r="2.4"/>
			<circle fill="#070B23" cx="236.2" cy="353.1" r="2.4"/>
			<circle fill="#070B23" cx="243.7" cy="351.6" r="2.4"/>
			<circle fill="#070B23" cx="251.2" cy="350.2" r="2.4"/>
			<circle fill="#070B23" cx="289.4" cy="342.8" r="2.4"/>
			<circle fill="#070B23" cx="303" cy="340.2" r="2.4"/>
			<circle fill="#070B23" cx="309.9" cy="338.9" r="2.4"/>
			<circle fill="#070B23" cx="316.7" cy="337.6" r="2.4"/>
			<circle fill="#070B23" cx="323.5" cy="336.3" r="2.4"/>
			<circle fill="#070B23" cx="359" cy="329.5" r="2.4"/>
			<circle fill="#070B23" cx="368.6" cy="327.7" r="2.4"/>
			<circle fill="#070B23" cx="378.1" cy="325.8" r="2.4"/>
			<circle fill="#070B23" cx="387.7" cy="324" r="2.4"/>
			<circle fill="#070B23" cx="397.2" cy="322.2" r="2.4"/>
			<circle fill="#070B23" cx="406.8" cy="320.3" r="2.4"/>
			<circle fill="#070B23" cx="443.6" cy="313.3" r="2.4"/>
			<circle fill="#070B23" cx="452.5" cy="311.5" r="2.4"/>
			<circle fill="#070B23" cx="148.8" cy="369.8" r="2.4"/>
			<circle fill="#070B23" cx="58.1" cy="450.2" r="2.4"/>
			<circle fill="#070B23" cx="71.7" cy="447.6" r="2.4"/>
			<circle fill="#070B23" cx="85.4" cy="445" r="2.4"/>
			<circle fill="#070B23" cx="118.1" cy="438.7" r="2.4"/>
			<circle fill="#070B23" cx="131.8" cy="436.1" r="2.4"/>
			<circle fill="#070B23" cx="139.3" cy="434.6" r="2.4"/>
			<circle fill="#070B23" cx="159.1" cy="430.8" r="2.4"/>
			<circle fill="#070B23" cx="178.9" cy="427" r="2.4"/>
			<circle fill="#070B23" cx="192.5" cy="424.4" r="2.4"/>
			<circle fill="#070B23" cx="206.2" cy="421.8" r="2.4"/>
			<circle fill="#070B23" cx="219.8" cy="419.2" r="2.4"/>
			<circle fill="#070B23" cx="233.5" cy="416.6" r="2.4"/>
			<circle fill="#070B23" cx="247" cy="413.3" r="2.4"/>
			<circle fill="#070B23" cx="260.5" cy="410" r="2.4"/>
			<circle fill="#070B23" cx="274.2" cy="407.3" r="2.4"/>
			<circle fill="#070B23" cx="287.8" cy="404.7" r="2.4"/>
			<circle fill="#070B23" cx="301.5" cy="402.1" r="2.4"/>
			<circle fill="#070B23" cx="315.1" cy="399.5" r="2.4"/>
			<circle fill="#070B23" cx="328.8" cy="396.9" r="2.4"/>
			<circle fill="#070B23" cx="342.3" cy="393.6" r="2.4"/>
			<circle fill="#070B23" cx="355.8" cy="390.3" r="2.4"/>
			<circle fill="#070B23" cx="369.3" cy="387" r="2.4"/>
			<circle fill="#070B23" cx="382.8" cy="383.6" r="2.4"/>
			<circle fill="#070B23" cx="396.5" cy="381" r="2.4"/>
			<circle fill="#070B23" cx="410.1" cy="378.4" r="2.4"/>
			<circle fill="#070B23" cx="423.7" cy="375.1" r="2.4"/>
			<circle fill="#070B23" cx="437.2" cy="371.8" r="2.4"/>
			<circle fill="#070B23" cx="450.7" cy="368.5" r="2.4"/>
			<circle fill="#070B23" cx="464.4" cy="365.9" r="2.4"/>
			<circle fill="#070B23" cx="478" cy="363.3" r="2.4"/>
			<circle fill="#070B23" cx="491.5" cy="360" r="2.4"/>
			<circle fill="#070B23" cx="505" cy="356.7" r="2.4"/>
			
				<rect x="-528.7" y="538.1" transform="matrix(0.9821 -0.1884 0.1884 0.9821 -111.6978 -89.3624)" fill="#070B23" width="5.7" height="9.3"/>
			
				<rect x="-518.2" y="536.1" transform="matrix(0.9821 -0.1884 0.1884 0.9821 -111.1304 -87.4211)" fill="#070B23" width="5.7" height="9.3"/>
			
				<rect x="-507.7" y="534.1" transform="matrix(0.9821 -0.1884 0.1884 0.9821 -110.563 -85.4798)" fill="#070B23" width="5.7" height="9.3"/>
			
				<rect x="-497.2" y="532.1" transform="matrix(0.9821 -0.1884 0.1884 0.9821 -109.9955 -83.5384)" fill="#070B23" width="5.7" height="9.3"/>
			
				<rect x="-486.7" y="530" transform="matrix(0.9821 -0.1884 0.1884 0.9821 -109.4281 -81.5971)" fill="#070B23" width="5.7" height="9.3"/>
			
				<rect x="-476.2" y="528" transform="matrix(0.9821 -0.1884 0.1884 0.9821 -108.8607 -79.6558)" fill="#070B23" width="5.7" height="9.3"/>
			
				<rect x="-465.7" y="526" transform="matrix(0.9821 -0.1884 0.1884 0.9821 -108.2933 -77.7144)" fill="#070B23" width="5.7" height="9.3"/>
			
				<rect x="-455.2" y="524" transform="matrix(0.9821 -0.1884 0.1884 0.9821 -107.7258 -75.7731)" fill="#070B23" width="5.7" height="9.3"/>
			
				<rect x="-444.7" y="522" transform="matrix(0.9821 -0.1884 0.1884 0.9821 -107.1584 -73.8318)" fill="#070B23" width="5.7" height="9.3"/>
			
				<rect x="-434.2" y="520" transform="matrix(0.9821 -0.1884 0.1884 0.9821 -106.591 -71.8904)" fill="#070B23" width="5.7" height="9.3"/>
			
				<rect x="-423.7" y="518" transform="matrix(0.9821 -0.1884 0.1884 0.9821 -106.0236 -69.9491)" fill="#070B23" width="5.7" height="9.3"/>
			
				<rect x="-413.3" y="516" transform="matrix(0.9821 -0.1884 0.1884 0.9821 -105.4561 -68.0078)" fill="#070B23" width="5.7" height="9.3"/>
			
				<rect x="-402.8" y="513.9" transform="matrix(0.9821 -0.1884 0.1884 0.9821 -104.8887 -66.0665)" fill="#070B23" width="5.7" height="9.3"/>
			
				<rect x="-392.3" y="511.9" transform="matrix(0.9821 -0.1884 0.1884 0.9821 -104.3213 -64.1251)" fill="#070B23" width="5.7" height="9.3"/>
			
				<rect x="-381.8" y="509.9" transform="matrix(0.9821 -0.1884 0.1884 0.9821 -103.7539 -62.1838)" fill="#070B23" width="5.7" height="9.3"/>
			
				<rect x="-371.3" y="507.9" transform="matrix(0.9821 -0.1884 0.1884 0.9821 -103.1864 -60.2425)" fill="#070B23" width="5.7" height="9.3"/>
			
				<rect x="-360.8" y="505.9" transform="matrix(0.9821 -0.1884 0.1884 0.9821 -102.619 -58.3011)" fill="#070B23" width="5.7" height="9.3"/>
			
				<rect x="-334.9" y="500.9" transform="matrix(0.9821 -0.1884 0.1884 0.9821 -101.2212 -53.5188)" fill="#070B23" width="5.7" height="9.3"/>
			
				<rect x="-314.4" y="497" transform="matrix(0.9821 -0.1884 0.1884 0.9821 -100.1094 -49.7151)" fill="#070B23" width="5.7" height="9.3"/>
			
				<rect x="-294" y="493.1" transform="matrix(0.9821 -0.1884 0.1884 0.9821 -99.0068 -45.9429)" fill="#070B23" width="5.7" height="9.3"/>
			
				<rect x="-273.7" y="489.2" transform="matrix(0.9821 -0.1884 0.1884 0.9821 -97.9089 -42.1865)" fill="#070B23" width="5.7" height="9.3"/>
			
				<rect x="-260.1" y="486.6" transform="matrix(0.9821 -0.1884 0.1884 0.9821 -97.1754 -39.677)" fill="#070B23" width="5.7" height="9.3"/>
			
				<rect x="-246.6" y="484" transform="matrix(0.9821 -0.1884 0.1884 0.9821 -96.4419 -37.1675)" fill="#070B23" width="5.7" height="9.3"/>
			
				<rect x="-233" y="481.4" transform="matrix(0.9821 -0.1884 0.1884 0.9821 -95.7084 -34.6579)" fill="#070B23" width="5.7" height="9.3"/>
			
				<rect x="-212.3" y="477.4" transform="matrix(0.9821 -0.1884 0.1884 0.9821 -94.592 -30.8384)" fill="#070B23" width="5.7" height="9.3"/>
			
				<rect x="-198.2" y="474.7" transform="matrix(0.9821 -0.1884 0.1884 0.9821 -93.8262 -28.2184)" fill="#070B23" width="5.7" height="9.3"/>
			
				<rect x="-185" y="472.1" transform="matrix(0.9821 -0.1884 0.1884 0.9821 -93.1111 -25.772)" fill="#070B23" width="5.7" height="9.3"/>
			
				<rect x="-171.7" y="469.6" transform="matrix(0.9821 -0.1884 0.1884 0.9821 -92.3961 -23.3256)" fill="#070B23" width="5.7" height="9.3"/>
			
				<rect x="-158.5" y="467.1" transform="matrix(0.9821 -0.1884 0.1884 0.9821 -91.681 -20.8792)" fill="#070B23" width="5.7" height="9.3"/>
			
				<rect x="-144.4" y="464.4" transform="matrix(0.9821 -0.1884 0.1884 0.9821 -90.9199 -18.275)" fill="#070B23" width="5.7" height="9.3"/>
			
				<rect x="-130.4" y="461.7" transform="matrix(0.9821 -0.1884 0.1884 0.9821 -90.1633 -15.6865)" fill="#070B23" width="5.7" height="9.3"/>
			
				<rect x="-117.2" y="459.1" transform="matrix(0.9821 -0.1884 0.1884 0.9821 -89.4482 -13.2401)" fill="#070B23" width="5.7" height="9.3"/>
			
				<rect x="-103.1" y="456.4" transform="matrix(0.9821 -0.1884 0.1884 0.9821 -88.6824 -10.6201)" fill="#070B23" width="5.7" height="9.3"/>
			
				<rect x="-90.5" y="454" transform="matrix(0.9821 -0.1884 0.1884 0.9821 -88.0043 -8.3)" fill="#070B23" width="5.7" height="9.3"/>
			
				<rect x="-76.4" y="451.3" transform="matrix(0.9821 -0.1884 0.1884 0.9821 -87.2385 -5.68)" fill="#070B23" width="5.7" height="9.3"/>
			
				<rect x="-63.1" y="448.8" transform="matrix(0.9821 -0.1884 0.1884 0.9821 -86.5235 -3.2336)" fill="#070B23" width="5.7" height="9.3"/>
			
				<rect x="-49.8" y="446.2" transform="matrix(0.9821 -0.1884 0.1884 0.9821 -85.8038 -0.7714)" fill="#070B23" width="5.7" height="9.3"/>
			
				<rect x="-36.5" y="443.7" transform="matrix(0.9821 -0.1884 0.1884 0.9821 -85.0841 1.6907)" fill="#070B23" width="5.7" height="9.3"/>
			
				<rect x="-23.2" y="441.1" transform="matrix(0.9821 -0.1884 0.1884 0.9821 -84.3645 4.1529)" fill="#070B23" width="5.7" height="9.3"/>
			
				<rect x="-9.9" y="438.6" transform="matrix(0.9821 -0.1884 0.1884 0.9821 -83.6448 6.6151)" fill="#070B23" width="5.7" height="9.3"/>
			
				<rect x="4.1" y="435.9" transform="matrix(0.9821 -0.1884 0.1884 0.9821 -82.8882 9.2035)" fill="#070B23" width="5.7" height="9.3"/>
			
				<rect x="-4.6" y="418.9" transform="matrix(0.9821 -0.1884 0.1884 0.9821 -79.5912 7.2348)" fill="#070B23" width="5.7" height="6.6"/>
			
				<rect x="5.9" y="416.9" transform="matrix(0.9821 -0.1884 0.1884 0.9821 -79.0253 9.1709)" fill="#070B23" width="5.7" height="6.6"/>
			
				<rect x="16.3" y="414.9" transform="matrix(0.9821 -0.1884 0.1884 0.9821 -78.4594 11.107)" fill="#070B23" width="5.7" height="6.6"/>
			
				<rect x="26.8" y="412.9" transform="matrix(0.9821 -0.1884 0.1884 0.9821 -77.8935 13.043)" fill="#070B23" width="5.7" height="6.6"/>
			
				<rect x="37.2" y="410.9" transform="matrix(0.9821 -0.1884 0.1884 0.9821 -77.3277 14.9791)" fill="#070B23" width="5.7" height="6.6"/>
			
				<rect x="47.7" y="408.8" transform="matrix(0.9821 -0.1884 0.1884 0.9821 -76.7618 16.9152)" fill="#070B23" width="5.7" height="6.6"/>
			
				<rect x="58.2" y="406.8" transform="matrix(0.9821 -0.1884 0.1884 0.9821 -76.1959 18.8512)" fill="#070B23" width="5.7" height="6.6"/>
			
				<rect x="68.6" y="404.8" transform="matrix(0.9821 -0.1884 0.1884 0.9821 -75.63 20.7873)" fill="#070B23" width="5.7" height="6.6"/>
			
				<rect x="79.1" y="402.8" transform="matrix(0.9821 -0.1884 0.1884 0.9821 -75.0641 22.7234)" fill="#070B23" width="5.7" height="6.6"/>
			
				<rect x="89.6" y="400.8" transform="matrix(0.9821 -0.1884 0.1884 0.9821 -74.4982 24.6594)" fill="#070B23" width="5.7" height="6.6"/>
			
				<rect x="100" y="398.8" transform="matrix(0.9821 -0.1884 0.1884 0.9821 -73.9323 26.5955)" fill="#070B23" width="5.7" height="6.6"/>
			
				<rect x="110.5" y="396.8" transform="matrix(0.9821 -0.1884 0.1884 0.9821 -73.3664 28.5316)" fill="#070B23" width="5.7" height="6.6"/>
			
				<rect x="121" y="394.8" transform="matrix(0.9821 -0.1884 0.1884 0.9821 -72.8005 30.4677)" fill="#070B23" width="5.7" height="6.6"/>
			
				<rect x="131.4" y="392.8" transform="matrix(0.9821 -0.1884 0.1884 0.9821 -72.2347 32.4037)" fill="#070B23" width="5.7" height="6.6"/>
			
				<rect x="141.9" y="390.8" transform="matrix(0.9821 -0.1884 0.1884 0.9821 -71.6688 34.3398)" fill="#070B23" width="5.7" height="6.6"/>
			
				<rect x="152.4" y="388.8" transform="matrix(0.9821 -0.1884 0.1884 0.9821 -71.1029 36.2759)" fill="#070B23" width="5.7" height="6.6"/>
			
				<rect x="162.8" y="386.8" transform="matrix(0.9821 -0.1884 0.1884 0.9821 -70.537 38.2119)" fill="#070B23" width="5.7" height="6.6"/>
			
				<rect x="173.3" y="384.7" transform="matrix(0.9821 -0.1884 0.1884 0.9821 -69.9711 40.148)" fill="#070B23" width="5.7" height="6.6"/>
			
				<rect x="183.8" y="382.7" transform="matrix(0.9821 -0.1884 0.1884 0.9821 -69.4052 42.0841)" fill="#070B23" width="5.7" height="6.6"/>
			
				<rect x="194.2" y="380.7" transform="matrix(0.9821 -0.1884 0.1884 0.9821 -68.8393 44.0201)" fill="#070B23" width="5.7" height="6.6"/>
			
				<rect x="204.7" y="378.7" transform="matrix(0.9821 -0.1884 0.1884 0.9821 -68.2734 45.9562)" fill="#070B23" width="5.7" height="6.6"/>
			
				<rect x="215.1" y="376.7" transform="matrix(0.9821 -0.1884 0.1884 0.9821 -67.7075 47.8923)" fill="#070B23" width="5.7" height="6.6"/>
			
				<rect x="225.6" y="374.7" transform="matrix(0.9821 -0.1884 0.1884 0.9821 -67.1417 49.8284)" fill="#070B23" width="5.7" height="6.6"/>
			
				<rect x="236.1" y="372.7" transform="matrix(0.9821 -0.1884 0.1884 0.9821 -66.5758 51.7644)" fill="#070B23" width="5.7" height="6.6"/>
			
				<rect x="246.5" y="370.7" transform="matrix(0.9821 -0.1884 0.1884 0.9821 -66.0099 53.7005)" fill="#070B23" width="5.7" height="6.6"/>
			
				<rect x="257" y="368.7" transform="matrix(0.9821 -0.1884 0.1884 0.9821 -65.444 55.6366)" fill="#070B23" width="5.7" height="6.6"/>
			
				<rect x="267.5" y="366.7" transform="matrix(0.9821 -0.1884 0.1884 0.9821 -64.8781 57.5726)" fill="#070B23" width="5.7" height="6.6"/>
			
				<rect x="277.9" y="364.7" transform="matrix(0.9821 -0.1884 0.1884 0.9821 -64.3122 59.5087)" fill="#070B23" width="5.7" height="6.6"/>
			
				<rect x="288.4" y="362.7" transform="matrix(0.9821 -0.1884 0.1884 0.9821 -63.7463 61.4448)" fill="#070B23" width="5.7" height="6.6"/>
			
				<rect x="298.9" y="360.6" transform="matrix(0.9821 -0.1884 0.1884 0.9821 -63.1804 63.3808)" fill="#070B23" width="5.7" height="6.6"/>
			
				<rect x="309.3" y="358.6" transform="matrix(0.9821 -0.1884 0.1884 0.9821 -62.6145 65.3169)" fill="#070B23" width="5.7" height="6.6"/>
			
				<rect x="319.8" y="356.6" transform="matrix(0.9821 -0.1884 0.1884 0.9821 -62.0487 67.253)" fill="#070B23" width="5.7" height="6.6"/>
			
				<rect x="330.3" y="354.6" transform="matrix(0.9821 -0.1884 0.1884 0.9821 -61.4828 69.1891)" fill="#070B23" width="5.7" height="6.6"/>
			
				<rect x="340.7" y="352.6" transform="matrix(0.9821 -0.1884 0.1884 0.9821 -60.9169 71.1251)" fill="#070B23" width="5.7" height="6.6"/>
			
				<rect x="351.2" y="350.6" transform="matrix(0.9821 -0.1884 0.1884 0.9821 -60.351 73.0612)" fill="#070B23" width="5.7" height="6.6"/>
			
				<rect x="361.7" y="348.6" transform="matrix(0.9821 -0.1884 0.1884 0.9821 -59.7851 74.9973)" fill="#070B23" width="5.7" height="6.6"/>
			
				<rect x="372.1" y="346.6" transform="matrix(0.9821 -0.1884 0.1884 0.9821 -59.2192 76.9333)" fill="#070B23" width="5.7" height="6.6"/>
			
				<rect x="382.6" y="344.6" transform="matrix(0.9821 -0.1884 0.1884 0.9821 -58.6533 78.8694)" fill="#070B23" width="5.7" height="6.6"/>
			
				<rect x="393.1" y="342.6" transform="matrix(0.9821 -0.1884 0.1884 0.9821 -58.0874 80.8055)" fill="#070B23" width="5.7" height="6.6"/>
			
				<rect x="403.5" y="340.6" transform="matrix(0.9821 -0.1884 0.1884 0.9821 -57.5215 82.7415)" fill="#070B23" width="5.7" height="6.6"/>
			
				<rect x="414" y="338.6" transform="matrix(0.9821 -0.1884 0.1884 0.9821 -56.9557 84.6776)" fill="#070B23" width="5.7" height="6.6"/>
			
				<rect x="18.1" y="433.2" transform="matrix(0.9821 -0.1884 0.1884 0.9821 -82.1317 11.792)" fill="#070B23" width="5.7" height="9.3"/>
			
				<rect x="32.1" y="430.5" transform="matrix(0.9821 -0.1884 0.1884 0.9821 -81.3751 14.3804)" fill="#070B23" width="5.7" height="9.3"/>
			
				<rect x="46.1" y="427.8" transform="matrix(0.9821 -0.1884 0.1884 0.9821 -80.6185 16.9689)" fill="#070B23" width="5.7" height="9.3"/>
			
				<rect x="60.1" y="425.1" transform="matrix(0.9821 -0.1884 0.1884 0.9821 -79.862 19.5573)" fill="#070B23" width="5.7" height="9.3"/>
			
				<rect x="79.2" y="421.5" transform="matrix(0.9821 -0.1884 0.1884 0.9821 -78.8286 23.0927)" fill="#070B23" width="5.7" height="9.3"/>
			
				<rect x="89.8" y="419.4" transform="matrix(0.9821 -0.1884 0.1884 0.9821 -78.2519 25.0656)" fill="#070B23" width="5.7" height="9.3"/>
			
				<rect x="100.5" y="417.4" transform="matrix(0.9821 -0.1884 0.1884 0.9821 -77.6753 27.0385)" fill="#070B23" width="5.7" height="9.3"/>
			
				<rect x="111.2" y="415.3" transform="matrix(0.9821 -0.1884 0.1884 0.9821 -77.0986 29.0114)" fill="#070B23" width="5.7" height="9.3"/>
			
				<rect x="121.8" y="413.3" transform="matrix(0.9821 -0.1884 0.1884 0.9821 -76.522 30.9843)" fill="#070B23" width="5.7" height="9.3"/>
			
				<rect x="132.5" y="411.2" transform="matrix(0.9821 -0.1884 0.1884 0.9821 -75.9453 32.9572)" fill="#070B23" width="5.7" height="9.3"/>
			
				<rect x="143.1" y="409.2" transform="matrix(0.9821 -0.1884 0.1884 0.9821 -75.3687 34.9301)" fill="#070B23" width="5.7" height="9.3"/>
			
				<rect x="153.8" y="407.1" transform="matrix(0.9821 -0.1884 0.1884 0.9821 -74.792 36.903)" fill="#070B23" width="5.7" height="9.3"/>
			
				<rect x="164.5" y="405.1" transform="matrix(0.9821 -0.1884 0.1884 0.9821 -74.2154 38.8759)" fill="#070B23" width="5.7" height="9.3"/>
			
				<rect x="175.1" y="403" transform="matrix(0.9821 -0.1884 0.1884 0.9821 -73.6387 40.8488)" fill="#070B23" width="5.7" height="9.3"/>
			
				<rect x="200.4" y="398.2" transform="matrix(0.9821 -0.1884 0.1884 0.9821 -72.2732 45.5206)" fill="#070B23" width="5.7" height="9.3"/>
			
				<rect x="220.1" y="394.4" transform="matrix(0.9821 -0.1884 0.1884 0.9821 -71.2075 49.1666)" fill="#070B23" width="5.7" height="9.3"/>
			
				<rect x="238.5" y="390.9" transform="matrix(0.9821 -0.1884 0.1884 0.9821 -70.2111 52.5757)" fill="#070B23" width="5.7" height="9.3"/>
			
				<rect x="252.1" y="388.3" transform="matrix(0.9821 -0.1884 0.1884 0.9821 -69.4776 55.0852)" fill="#070B23" width="5.7" height="9.3"/>
			
				<rect x="265.2" y="385.8" transform="matrix(0.9821 -0.1884 0.1884 0.9821 -68.7671 57.5159)" fill="#070B23" width="5.7" height="9.3"/>
			
				<rect x="278.3" y="383.3" transform="matrix(0.9821 -0.1884 0.1884 0.9821 -68.0613 59.9307)" fill="#070B23" width="5.7" height="9.3"/>
			
				<rect x="291.3" y="380.8" transform="matrix(0.9821 -0.1884 0.1884 0.9821 -67.3555 62.3455)" fill="#070B23" width="5.7" height="9.3"/>
			
				<rect x="304.4" y="378.2" transform="matrix(0.9821 -0.1884 0.1884 0.9821 -66.6497 64.7603)" fill="#070B23" width="5.7" height="9.3"/>
			
				<rect x="317.4" y="375.7" transform="matrix(0.9821 -0.1884 0.1884 0.9821 -65.9438 67.1752)" fill="#070B23" width="5.7" height="9.3"/>
			
				<rect x="330.5" y="373.2" transform="matrix(0.9821 -0.1884 0.1884 0.9821 -65.238 69.59)" fill="#070B23" width="5.7" height="9.3"/>
			
				<rect x="343.5" y="370.7" transform="matrix(0.9821 -0.1884 0.1884 0.9821 -64.5322 72.0048)" fill="#070B23" width="5.7" height="9.3"/>
			
				<rect x="351.6" y="369.2" transform="matrix(0.9821 -0.1884 0.1884 0.9821 -64.0986 73.4884)" fill="#070B23" width="5.7" height="9.3"/>
			
				<rect x="364.8" y="366.7" transform="matrix(0.9821 -0.1884 0.1884 0.9821 -63.3835 75.9348)" fill="#070B23" width="5.7" height="9.3"/>
			
				<rect x="377.8" y="364.2" transform="matrix(0.9821 -0.1884 0.1884 0.9821 -62.6823 78.3339)" fill="#070B23" width="5.7" height="9.3"/>
			
				<rect x="391.2" y="361.6" transform="matrix(0.9821 -0.1884 0.1884 0.9821 -61.958 80.8118)" fill="#070B23" width="5.7" height="9.3"/>
			
				<rect x="404.5" y="359" transform="matrix(0.9821 -0.1884 0.1884 0.9821 -61.2337 83.2898)" fill="#070B23" width="5.7" height="9.3"/>
			
				<rect x="-562" y="519.3" transform="matrix(0.9821 -0.1884 0.1884 0.9821 -108.7441 -93.1381)" fill="#070B23" width="35.7" height="12"/>
			
				<rect x="-525.5" y="513.9" transform="matrix(0.9821 -0.1884 0.1884 0.9821 -107.2219 -87.9303)" fill="#070B23" width="18.9" height="12"/>
			
				<rect x="-504.1" y="510" transform="matrix(0.9821 -0.1884 0.1884 0.9821 -106.1177 -84.1525)" fill="#070B23" width="16.9" height="12"/>
			
				<rect x="-485.2" y="506" transform="matrix(0.9821 -0.1884 0.1884 0.9821 -105.0023 -80.3364)" fill="#070B23" width="20.5" height="12"/>
			
				<rect x="-463.1" y="501.9" transform="matrix(0.9821 -0.1884 0.1884 0.9821 -103.8479 -76.3869)" fill="#070B23" width="19" height="12"/>
			
				<rect x="-442.2" y="498" transform="matrix(0.9821 -0.1884 0.1884 0.9821 -102.7331 -72.5729)" fill="#070B23" width="18.4" height="12"/>
			
				<rect x="-422" y="494.1" transform="matrix(0.9821 -0.1884 0.1884 0.9821 -101.6383 -68.827)" fill="#070B23" width="18.4" height="12"/>
			
				<rect x="-401.7" y="490.2" transform="matrix(0.9821 -0.1884 0.1884 0.9821 -100.5434 -65.0811)" fill="#070B23" width="18.4" height="12"/>
			
				<rect x="-380.3" y="486.1" transform="matrix(0.9821 -0.1884 0.1884 0.9821 -99.387 -61.1248)" fill="#070B23" width="18.4" height="12"/>
			
				<rect x="-359.6" y="482.1" transform="matrix(0.9821 -0.1884 0.1884 0.9821 -98.2675 -57.2948)" fill="#070B23" width="18.4" height="12"/>
			
				<rect x="-339.6" y="478.3" transform="matrix(0.9821 -0.1884 0.1884 0.9821 -97.1758 -53.5598)" fill="#070B23" width="18.7" height="12"/>
			
				<rect x="-318.7" y="474.2" transform="matrix(0.9821 -0.1884 0.1884 0.9821 -96.0441 -49.6876)" fill="#070B23" width="18.7" height="12"/>
			
				<rect x="-298.4" y="470.4" transform="matrix(0.9821 -0.1884 0.1884 0.9821 -94.9492 -45.9417)" fill="#070B23" width="18.7" height="12"/>
			
				<rect x="-277.5" y="466.3" transform="matrix(0.9821 -0.1884 0.1884 0.9821 -93.8174 -42.0696)" fill="#070B23" width="18.7" height="12"/>
			
				<rect x="-257" y="462.4" transform="matrix(0.9821 -0.1884 0.1884 0.9821 -92.7102 -38.2816)" fill="#070B23" width="18.7" height="12"/>
			
				<rect x="-236.7" y="459.3" transform="matrix(0.9821 -0.1884 0.1884 0.9821 -91.8414 -35.3093)" fill="#070B23" width="10.2" height="12"/>
			
				<rect x="-223.8" y="456.5" transform="matrix(0.9821 -0.1884 0.1884 0.9821 -91.0374 -32.5583)" fill="#070B23" width="14.1" height="12"/>
			
				<rect x="-207.9" y="457.7" transform="matrix(0.9821 -0.1884 0.1884 0.9821 -90.5176 -29.2314)" fill="#070B23" width="17.8" height="7.5"/>
			
				<rect x="-188.1" y="453.9" transform="matrix(0.9821 -0.1884 0.1884 0.9821 -89.4473 -25.5697)" fill="#070B23" width="17.8" height="7.5"/>
			
				<rect x="-168.3" y="450.1" transform="matrix(0.9821 -0.1884 0.1884 0.9821 -88.3771 -21.908)" fill="#070B23" width="17.8" height="7.5"/>
			
				<rect x="-148.5" y="446.3" transform="matrix(0.9821 -0.1884 0.1884 0.9821 -87.3068 -18.2463)" fill="#070B23" width="17.8" height="7.5"/>
			
				<rect x="-128.7" y="442.5" transform="matrix(0.9821 -0.1884 0.1884 0.9821 -86.2365 -14.5846)" fill="#070B23" width="17.8" height="7.5"/>
			
				<rect x="-108.9" y="438.7" transform="matrix(0.9821 -0.1884 0.1884 0.9821 -85.1663 -10.9229)" fill="#070B23" width="17.8" height="7.5"/>
			
				<rect x="-89.2" y="434.9" transform="matrix(0.9821 -0.1884 0.1884 0.9821 -84.096 -7.2612)" fill="#070B23" width="17.8" height="7.5"/>
			
				<rect x="-69.4" y="431.1" transform="matrix(0.9821 -0.1884 0.1884 0.9821 -83.0257 -3.5995)" fill="#070B23" width="17.8" height="7.5"/>
			
				<rect x="-49.6" y="427.3" transform="matrix(0.9821 -0.1884 0.1884 0.9821 -81.9555 6.218832e-02)" fill="#070B23" width="17.8" height="7.5"/>
			<path fill="#070B23" d="M-18.7,430.6l-10.2,2l-1.4-7.3l17.5-3.4l0,0C-12,425.9-14.7,429.9-18.7,430.6z"/>
			<path fill="#070B23" d="M-445.4,341.3c0,0-40.6,11.7-51.1,19.7c0,0,6.1,15.9,14,36.7l52-18.3L-445.4,341.3z"/>
			<path fill="#070B23" d="M-188.8,292c0,0-40.6,11.7-51.1,19.7c0,0,5.7,14.9,13.3,34.7l51.9-18.2L-188.8,292z"/>
			<path fill="#070B23" d="M67.8,242.8c0,0-40.6,11.7-51.1,19.7c0,0,5.7,15,13.4,35l51.9-18.2L67.8,242.8z"/>
			<path fill="#070B23" d="M317.6,194.8c0,0-40.6,11.7-51.1,19.7c0,0,5.7,14.9,13.3,34.7l51.9-18.2L317.6,194.8z"/>
			<polygon fill="#28241F" points="502,3.3 638,332.4 626.4,334.7 			"/>
			<path fill="#356080" d="M641.5,330.5c0,0,8.8-7,11.5-17.4l223.2-46.4c0,0,0.3,5-0.4,11.4C872.9,282.5,641.5,330.5,641.5,330.5z"
				/>
			<g>
				<path fill="#FFFFFF" d="M621.8,356.7l16.7-3.2l0.9,4.9l-5.7,1.1l5.7,29.5l-5.4,1l-5.7-29.5l-5.7,1.1L621.8,356.7z"/>
				<path fill="#FFFFFF" d="M640.9,353.1l5.4-1l6.6,34.4l-5.4,1L640.9,353.1z"/>
				<path fill="#FFFFFF" d="M648.6,351.6l16.7-3.2l0.9,4.9l-5.7,1.1l5.7,29.5l-5.4,1l-5.7-29.5l-5.7,1.1L648.6,351.6z"/>
				<path fill="#FFFFFF" d="M689.9,379.3l-5.5,1l-2.1-6.1l-6.6,1.3l0.3,6.4l-5,1l-1.1-35.5l7.9-1.5L689.9,379.3z M675.5,370.8l5.2-1
					l-5.9-16.9L675.5,370.8z"/>
				<path fill="#FFFFFF" d="M692.5,353l4.8,24.9l-4.9,0.9l-6.6-34.4l6.8-1.3l9.5,19.5l-4-20.6l4.8-0.9l6.6,34.4l-5.6,1.1L692.5,353z
					"/>
				<path fill="#FFFFFF" d="M706.8,340.4l5.4-1l6.6,34.4l-5.4,1L706.8,340.4z"/>
				<path fill="#FFFFFF" d="M736,357.2l0.9,4.6c1.1,5.5-1.1,9.2-6.4,10.2c-5.3,1-8.7-1.6-9.7-7.1l-3.4-17.9
					c-1.1-5.5,1.1-9.2,6.4-10.2c5.3-1,8.7,1.6,9.7,7.1l0.6,3.3l-5.1,1l-0.7-3.7c-0.5-2.5-1.7-3.2-3.5-2.9c-1.7,0.3-2.6,1.5-2.1,3.9
					l3.6,18.6c0.5,2.5,1.7,3.1,3.4,2.8c1.7-0.3,2.6-1.4,2.2-3.9l-0.9-4.9L736,357.2z"/>
			</g>
		</g>
	</g>
</g>
</svg>
