<?xml version="1.0" encoding="utf-8"?>
<!-- Generator: Adobe Illustrator 18.1.1, SVG Export Plug-In . SVG Version: 6.00 Build 0)  -->
<svg version="1.1" id="Layer_1" xmlns="http://www.w3.org/2000/svg" xmlns:xlink="http://www.w3.org/1999/xlink" x="0px" y="0px"
	 viewBox="31 6 458 786" enable-background="new 31 6 458 786" xml:space="preserve">
<g>
	<polygon fill="#E0A984" points="245.2,404.5 234.9,762.3 258.8,762.3 310.7,450.5 338.3,762.3 361.3,762.3 368.7,408.3 	"/>
	<path fill="#2E61CB" d="M239.1,415.2l-19.6,94.5c0,0,50.7,19.6,87.5,10.4l3.5-38l3.5,40.3c0,0,55.3,15,84.1-28.8l-25.3-71.4
		L239.1,415.2z"/>
	<path fill="#F2F2F2" d="M245,170.2v249.6c16,0.6,29,1.1,42,1.6V190h36v232h-5.8c18.1,0,31.8,0.8,45.8,1V169.8
		C316,158.2,274,163.6,245,170.2z"/>
	<path fill="#2E61D4" d="M323,190h-36v231.3c10,0.3,21.2,0.7,30.2,0.7h5.8V190z"/>
	<path fill="#2E61D4" d="M217.3,180c12.6,120,5.2,238.6,5.2,238.6c7.7,0.4,15.5,0.8,22.5,1.1V170.2C227,174.6,217.3,179.4,217.3,180
		z"/>
	<path fill="#2E61D4" d="M390.5,179c-9.3-3.8-19.5-6.8-27.5-9.2V423c12,0.2,19.4,0.2,19.4,0.2S369.6,291.9,390.5,179z"/>
	<path fill="#B74269" d="M267.9,180.2l35.1,35.7l31.7-36.3l-1.2-13.8c0,0-20.2-14.4-65.1,0L267.9,180.2z"/>
	<path fill="#2E61D4" d="M287,422h30.2c-9,0-20.2-0.4-30.2-0.7V422z"/>
	<g>
		
			<ellipse transform="matrix(0.8456 0.5338 -0.5338 0.8456 244.9815 -162.5093)" fill="#F7F7F7" cx="403.4" cy="342.3" rx="49.7" ry="53.4"/>
		<polygon fill="#232021" points="400.4,315.9 378.9,333 385.5,355.1 409.8,355.6 419.2,331.9 		"/>
		<path fill="#232021" d="M396.5,290.9l5.7,9l15-9.5C417.1,290.3,403.6,288.5,396.5,290.9z"/>
		<path fill="#232021" d="M447.3,312.1l-7.4,19l12.4,18.2C452.3,349.3,459.7,337.7,447.3,312.1z"/>
		<path fill="#232021" d="M361.4,315.8l1.4,11.2l-9.9,7.4C353,334.4,355.9,321.9,361.4,315.8z"/>
		<path fill="#232021" d="M434,381.6l-1.7-6.6l-17.4-4.1l-6.6,14.1l2.5,9.1C410.9,394,428.6,388.5,434,381.6z"/>
		<path fill="#232021" d="M360.4,373.3l13.2-1.7l1.3,15.8C374.9,387.4,366.9,382.9,360.4,373.3z"/>
		<path fill="#232021" d="M401.6,297.8l-2.1,21.1C399.5,318.9,403.1,305.2,401.6,297.8z"/>
		<path fill="#232021" d="M417.5,332c0,0,12.6-3.6,23.9-0.8C441.4,331.2,425.5,333.8,417.5,332z"/>
		<path fill="#232021" d="M408.3,353.3c0,0,5.1,18,8,20.3l0.5-1.5c0,0-5.7-11.1-7.5-19.3L408.3,353.3z"/>
		<path fill="#232021" d="M452,346.4c0,0-2.1,17.5-22.4,30.1C429.6,376.4,449.7,368,452,346.4z"/>
		<path fill="#232021" d="M388.2,352.3c0,0-13.9,14.4-17,23.1C371.3,375.4,385.1,357.9,388.2,352.3z"/>
		<path fill="#232021" d="M410.3,384.2c0,0-12.3,8.2-36.8,3.1C373.6,387.2,398.5,395.5,410.3,384.2z"/>
		<path fill="#232021" d="M361,327.1c0,0,17.2,8.2,21.3,7.5c0,0-17.7-6.4-20.8-9.3L361,327.1z"/>
	</g>
	<polygon fill="#E0A984" points="414.8,264.5 445.3,288.5 418.8,379.5 446.5,387.5 484.5,279.3 390.2,179 369.3,219.4 	"/>
	<polygon fill="#E0A984" points="164.8,165.6 127.6,154.6 83.8,71.3 66.3,90 109.4,184.6 238.7,226.5 236.8,179.6 	"/>
	<path d="M237.1,758.2c-0.9,3.2-5,5.6-9.3,7.3c-3.8,1.3-7.4,1.9-7.4,1.9c-3.3,0.2-5.8,0.9-7.6,1.8c-19.4,2.3-11.9,18.9-11.9,18.9
		l38.1,0.2c29.3-1.5,20.7-30,20.7-30L237.1,758.2z"/>
	<path d="M382.5,770.5c0,0-18.8-2.5-20.8-9.5h-21.6c0,0-8.4,23,19.6,27h36.4C396.1,788,404.1,771.7,382.5,770.5z"/>
	<path fill="#E0A984" d="M343.6,48.6v97h-14.7v31.9c0,0-16.6,32.5-57.1,0v-66.3c0,0-12.3-2.5-12.3-16.6s14.1-7.4,14.1-7.4V48.6
		H343.6z"/>
	<path fill="#603813" d="M347.8,46.2c-0.3,2.3,0,4.7-0.8,6.8c-0.9,2.1-2.8,3.9-5,3.8c0.9-1.8-0.3-4.1-1.9-5.1
		c-1.7-1-3.7-0.9-5.6-0.9c-6,0.2-12.1,0.3-18.1,0.5c-5.1,0.1-10.3,0.3-15.3,1.4c-1.9,0.4-3.7,0.9-5.3,2c-2.6,1.8-4.8,5-7.9,5
		c0.7,3.5,0.8,7.4-0.8,10.5c-1.6,3.2-5.1,5.5-8.4,4.6c0.8,7.3,0.8,14.7,0.1,22c-2.4-0.2-4.9-0.4-7.3-0.6c1.7-1.9,1.3-5.3-0.5-7.2
		c-1.8-1.8-4.6-2.2-7.1-1.6c-1.8,0.5-3.7,1.8-4,3.8c-6.3-9.5-8.6-21.8-6.2-33.1C256,47,263.3,37,273,31.7c6.9-3.8,14.9-5.2,22.7-4.9
		C295.7,26.8,352.2,9.1,347.8,46.2z"/>
	<path fill="#E0A984" d="M82.8,78.8l5.1-40.6c0,0-13.9-6-13.9,3.5s0,9.5,0,9.5s-8.1-34.6-13.3-32.8c-5.2,1.7-34.7,14.7-14,48.4
		s33.6,33.7,33.6,33.7L82.8,78.8z"/>
	<path fill="#603813" d="M269.1,68.5c0,0,17.3,15,41.5,8.1l-16.1-12.7c0,0,34.6,12.7,47.2,2.3l-10.4-11.5c0,0,31.1,8.1,41.5-13.8
		l-25.3-5.8c0,0,3.5-27.6-49.5-23S246,67.3,256.4,80L269.1,68.5z"/>
	<path fill="#E0A984" d="M418.8,379.5c0,0-25.3,18.4-47.2,2.3c0,0,21.9,55.3,74.9,5.8L418.8,379.5z"/>
	<polygon fill="#E0A984" points="271.8,179 304.8,208.7 328.9,179 	"/>
	<path fill="#F2F2F2" d="M366.4,225.7l39.7,46.1c0,0,35.7-10.4,39.2-41.5L390.2,179C390.2,179,367.6,184.2,366.4,225.7z"/>
	<path fill="#2E61D4" d="M369.9,199.8l54.7,62.2c0,0,10.9-5.2,15-15.6L375,183.7C375,183.7,368.7,192.3,369.9,199.8z"/>
	<path fill="#2E61D4" d="M383.1,244.7c0,0-10.6-37,7.1-65.8l-20.9,0.7l-5.8,52.4L383.1,244.7z"/>
	<path fill="#F2F2F2" d="M236.2,236.1l-69.7-20.7l6.3-53.6l67.4,12.1C240.3,173.9,247.2,213,236.2,236.1z"/>
	<path fill="#2E61D4" d="M222.4,239l-4.6-58.9c0,0,16.7-8.9,28.2-9.9l-1.2,45.7C244.9,215.9,252.4,264.3,222.4,239z"/>
	<path fill="#2E61D4" d="M170.6,189.4l59.3,14.4l2.9-21.9c0,0-61-12.7-59.9-13.2C174,168.1,170.6,189.4,170.6,189.4z"/>
	<path fill="#B74269" d="M334.7,175c23.6-4,51.3,13.2,51.3,13.2l57.6,51.3c0,0,1.7-2.9,1.7-9.2L390.2,179c0,0-31.3-13.7-58.9-14.9
		C331.3,164.1,329.6,175.9,334.7,175z"/>
	<path fill="#B74269" d="M267.9,180.2l-41.5,2.3l-53.6-20.7l61.6,10.9c0,0,26.5-7.5,36.9-8.6L267.9,180.2z"/>
	<path fill="#2E61CB" d="M236.8,673.2l36.9-2.3l-14,87.4c0,0-16.2,11.3-24.7,4L236.8,673.2z"/>
	<path fill="#2E61CB" d="M327.8,670.9l34.6-1.2l-0.7,89.8c0,0-7.1,16.9-23.4,2.7L327.8,670.9z"/>
</g>
</svg>
