<?xml version="1.0" encoding="utf-8"?>
<!-- Generator: Adobe Illustrator 18.1.1, SVG Export Plug-In . SVG Version: 6.00 Build 0)  -->
<svg version="1.1" id="Layer_1" xmlns="http://www.w3.org/2000/svg" xmlns:xlink="http://www.w3.org/1999/xlink" x="0px" y="0px"
	 viewBox="186 0 426 792" enable-background="new 186 0 426 792" xml:space="preserve">
<polygon fill="#2F2F46" points="497.7,270 513,304.9 478.4,390.3 503.4,391.6 546.9,299.4 496.6,176.2 453,192.3 "/>
<polygon fill="#875C3B" points="366,744.7 361.9,764.3 344.8,764.3 344.8,744.7 "/>
<path fill="#231F20" d="M344.8,764.3h17.1c0,0,6.6,21.5-15.5,22.8h-28.8c0,0-6.3-13.6,10.8-14.5C328.4,772.5,343.2,770,344.8,764.3z
	"/>
<path fill="#231F20" d="M463.8,764.3h-17.1c0,0-6.6,21.5,15.5,22.8H491c0,0,6.3-13.6-10.8-14.5C480.3,772.5,465.4,770,463.8,764.3z"
	/>
<polygon fill="#292846" points="352.7,394.1 342.7,744.7 366,744.7 416.9,439.2 444,744.7 466.4,744.7 475.4,396.1 "/>
<polygon fill="#875C3B" points="366,744.7 361.9,764.3 344.8,764.3 344.8,744.7 "/>
<path fill="#231F20" d="M344.8,764.3h17.1c0,0,6.6,21.5-15.5,22.8h-28.8c0,0-6.3-13.6,10.8-14.5C328.4,772.5,343.2,770,344.8,764.3z
	"/>
<path fill="#231F20" d="M463.8,764.3h-17.1c0,0-6.6,21.5,15.5,22.8H491c0,0,6.3-13.6-10.8-14.5C480.3,772.5,465.4,770,463.8,764.3z"
	/>
<polygon fill="#231F20" points="342.7,693.5 376.2,693.5 362.8,768.8 342.7,768.8 "/>
<polygon fill="#231F20" points="468.6,693.4 437.9,693.5 446.1,768.7 466.4,767.6 "/>
<path fill="#2F2F46" d="M326.5,174.1c0,0,55.9-33.1,168.4,0l-21.2,223.1c0,0-46.2,3.4-121.5-0.5L326.5,174.1z"/>
<path fill="#E0A984" d="M449.1,45.4v95.1h-14.4v31.3c0,0-16.2,31.9-56,0v-65c0,0-12-2.4-12-16.2s13.8-7.2,13.8-7.2v-38H449.1z"/>
<path fill="#231F20" d="M453.2,43c-0.3,2.3,0,4.6-0.8,6.7c-0.8,2.1-2.8,3.9-4.9,3.7c0.9-1.8-0.3-4-1.9-5c-1.7-0.9-3.6-0.9-5.5-0.9
	c-5.9,0.2-11.8,0.3-17.7,0.5c-5,0.1-10.1,0.3-15,1.3c-1.8,0.4-3.7,0.9-5.2,2c-2.6,1.7-4.7,4.9-7.7,4.9c0.7,3.4,0.8,7.2-0.8,10.3
	c-1.5,3.1-5,5.4-8.2,4.5c0.8,7.2,0.8,14.4,0.1,21.6c-2.4-0.2-4.8-0.4-7.2-0.6c1.7-1.9,1.3-5.2-0.5-7s-4.5-2.2-6.9-1.5
	c-1.8,0.5-3.6,1.8-3.9,3.7c-6.1-9.3-8.5-21.4-6.1-32.4s9.5-20.9,19.1-26.1c6.8-3.7,14.6-5,22.2-4.8C402.2,23.9,457.5,6.6,453.2,43z"
	/>
<path fill="#FFFFFF" d="M417.9,183.3l11.3,2.3l-1.1,14.7l20.3-29.3l-13.1-10.4C435.2,160.5,434.8,176.5,417.9,183.3z"/>
<path fill="#FFFFFF" d="M397.9,181.2L387,185l3.1,14.4L366,173.1l12.1-13.4C378.1,159.6,380.2,176.8,397.9,181.2z"/>
<path fill="#FFFFFF" d="M390.4,178.7l19.5,39.4l14.8-36C424.6,182,406,186.3,390.4,178.7z"/>
<path fill="#2F2F46" d="M451.2,37.1c0,0-3.4-33.3-40.1-31.6S338.6,44.8,367,87.3L451.2,37.1z"/>
<path fill="#272528" d="M377.8,85.1c0,0,49.7-82.9,99.3-55.3c14.1,10.7-27.7,35.6-27.7,35.6S433.7,37.1,377.8,85.1z"/>
<path fill="#FFFFFF" d="M478.4,390.3c0,0-16.5,10.6-8,26.7s33,16.9,33,16.9s28.8-7.6,11.9-14.4c0,0-7.6,3.4-11-4.2
	c0,0,4.2-6.8-0.8-23.7C503.4,391.6,484.7,388.2,478.4,390.3z"/>
<path fill="#2F2F46" d="M326.5,174.1l-42.4,193.7l-10.2,105c0,0,22,12.7,34.7,2.5l11.9-109.2l29.6-111.7
	C350.1,254.4,347.7,197.1,326.5,174.1z"/>
<rect x="191" y="485.5" fill="#333333" width="376.7" height="6.8"/>
<path fill="#FFFFFF" d="M277.3,470.3c0,0-11.9,22-2.5,33.9c9.3,11.9,38.1,1.7,39.8-5.9c1.7-7.6-5.9-26.2-5.9-26.2L277.3,470.3z"/>
<path fill="#333333" d="M568,484.7v40.6c0,0,20.3,4.2,20.3-17.8S568,484.7,568,484.7z"/>
</svg>
