<?xml version="1.0" encoding="utf-8"?>
<!-- Generator: Adobe Illustrator 18.1.1, SVG Export Plug-In . SVG Version: 6.00 Build 0)  -->
<svg version="1.1" id="Layer_1" xmlns="http://www.w3.org/2000/svg" xmlns:xlink="http://www.w3.org/1999/xlink" x="0px" y="0px"
	 viewBox="36 7 540 777" enable-background="new 36 7 540 777" xml:space="preserve">
<g>
	<polygon fill="#E0A984" points="449,162.4 485.9,151.5 529.3,69 546.6,87.5 503.9,181.2 375.9,222.8 359.8,178.6 	"/>
	<polygon fill="#E0A984" points="165.6,162.4 128.7,151.5 85.3,69 68,87.5 110.7,181.2 238.8,222.8 254.8,178.6 	"/>
	<polygon fill="#E0A984" points="245.2,399.1 235.1,753.5 258.7,753.5 310.1,444.7 337.5,753.5 360.2,753.5 367.6,402.8 	"/>
	<path fill="#E0A984" d="M237.2,749.5c-0.9,3.2-4.9,5.5-9.2,7.2c-3.8,1.3-7.3,1.9-7.3,1.9c-3.3,0.2-5.7,0.8-7.5,1.8
		c-19.2,2.3-11.8,18.7-11.8,18.7l37.7,0.2c29-1.5,20.5-29.7,20.5-29.7L237.2,749.5z"/>
	<path fill="#E0A984" d="M381.2,760.5c0,0-18.6-2.5-20.6-9.5h-21.4c0,0-8.3,25,19.4,27h36.1C394.7,778,402.6,761.7,381.2,760.5z"/>
	<path fill="#E0A984" d="M218.7,176.7c-0.6-1.6,84.7-35.3,170.3,0c-35.6,125.7-21.4,225.6-21.4,225.6s-46.7,3.5-122.9-0.5
		C244.7,401.8,262,285.3,218.7,176.7z"/>
	<path fill="#E0A984" d="M342.7,46.5v96.1h-14.6v31.6c0,0-16.4,32.2-56.6,0v-65.7c0,0-12.2-2.4-12.2-16.4s14-7.3,14-7.3V46.5H342.7z
		"/>
	<path fill="#231F20" d="M346.8,44.1c-0.3,2.3,0,4.7-0.8,6.8c-0.9,2.1-2.8,3.9-5,3.7c0.9-1.8-0.3-4.1-1.9-5c-1.7-1-3.7-0.9-5.6-0.9
		c-6,0.2-12,0.3-17.9,0.5c-5.1,0.1-10.2,0.3-15.2,1.3c-1.8,0.4-3.7,0.9-5.3,2c-2.6,1.7-4.7,4.9-7.8,5c0.7,3.5,0.8,7.3-0.8,10.5
		c-1.6,3.2-5.1,5.4-8.3,4.6c0.8,7.2,0.8,14.6,0.1,21.8c-2.4-0.2-4.8-0.4-7.3-0.6c1.7-1.9,1.3-5.3-0.5-7.1s-4.6-2.2-7-1.6
		c-1.8,0.5-3.7,1.8-3.9,3.7c-6.2-9.4-8.6-21.6-6.1-32.8c2.4-11.2,9.6-21.1,19.3-26.4c6.9-3.7,14.8-5.1,22.5-4.9
		C295.3,24.9,351.2,7.4,346.8,44.1z"/>
	<polygon fill="#2E3192" points="245.2,399.7 367.6,402.3 368.2,431.9 310.1,444.7 243.8,429.1 	"/>
	<g>
		<rect x="267" y="409" fill="#ED1C24" width="6" height="10"/>
		<rect x="253" y="409" fill="#009245" width="7" height="10"/>
		<rect x="260" y="409" fill="#F2F2F2" width="7" height="10"/>
	</g>
	<path fill="#231F20" d="M287.4,57.5c0,0,6.6,7.8,1.5,17.2c0,0,9.4-16.3,6.8-27.4c0,0,7.7,11.1,6.8,19.7c0,0,6.8-9.4,2.6-20.5
		c0,0,6.8,17.1,18,18c0,0-9.4-12-3.4-21.4c0,0,13.7,9.4,10.3,23.1c0,0,6-2.6,6-20.5c0,0,5.1,21.4,11.1,21.4c0,0-3.8-13.3-0.2-22.9
		c3.6-9.6-29.7-13.1-29.7-13.1S282.5,20.6,287.4,57.5z"/>
	<path fill="#E0A984" d="M84.3,76.5l4.8-40.2c0,0-14.1-6-14.1,3.4s0,9.4,0,9.4s-7.8-34.2-12.9-32.5S27.8,31.1,48.4,64.5
		s33.4,33.4,33.4,33.4L84.3,76.5z"/>
	<path fill="#E0A984" d="M528.4,76.3L523.5,36c0,0,13.7-5.9,13.7,3.5s-0.1,9.4-0.1,9.4s8.4-34.2,13.5-32.4
		c5.1,1.8,34.3,14.8,13.5,48s-33.5,33.1-33.5,33.1L528.4,76.3z"/>
</g>
</svg>
