<?xml version="1.0" encoding="utf-8"?>
<!-- Generator: Adobe Illustrator 18.1.1, SVG Export Plug-In . SVG Version: 6.00 Build 0)  -->
<svg version="1.1" id="Layer_1" xmlns="http://www.w3.org/2000/svg" xmlns:xlink="http://www.w3.org/1999/xlink" x="0px" y="0px"
	 viewBox="6.5 192 605.5 324" enable-background="new 6.5 192 605.5 324" xml:space="preserve">
<g>
	<path fill="#754C24" d="M28.1,253.9l-0.9,81h3.8l-0.9-81c0-1.5-0.5-2.7-1.1-2.7h0C28.6,251.2,28.1,252.4,28.1,253.9z"/>
	<path fill="#754C24" d="M62.6,253.9l-0.9,81h3.8l-0.9-81c0-1.5-0.5-2.7-1.1-2.7l0,0C63.1,251.2,62.7,252.4,62.6,253.9z"/>
	<path fill="#754C24" d="M97.2,253.9l-0.9,81h3.8l-0.9-81c0-1.5-0.5-2.7-1.1-2.7l0,0C97.7,251.2,97.2,252.4,97.2,253.9z"/>
	<path fill="#754C24" d="M131.7,253.9l-0.9,81h3.8l-0.9-81c0-1.5-0.5-2.7-1.1-2.7h0C132.2,251.2,131.8,252.4,131.7,253.9z"/>
	<path fill="#754C24" d="M166.3,253.9l-0.9,81h3.8l-0.9-81c0-1.5-0.5-2.7-1.1-2.7l0,0C166.8,251.2,166.3,252.4,166.3,253.9z"/>
	<path fill="#754C24" d="M439.8,254.8l-0.9,81h3.8l-0.9-81c0-1.5-0.5-2.7-1.1-2.7l0,0C440.3,252.1,439.8,253.3,439.8,254.8z"/>
	<path fill="#754C24" d="M475.3,254.8l-0.9,81h3.8l-0.9-81c0-1.5-0.5-2.7-1.1-2.7l0,0C475.8,252.1,475.4,253.3,475.3,254.8z"/>
	<path fill="#754C24" d="M510.4,254.8l-0.9,81h3.8l-0.9-81c0-1.5-0.5-2.7-1.1-2.7l0,0C510.9,252.1,510.4,253.3,510.4,254.8z"/>
	<path fill="#754C24" d="M543.7,254.8l-0.9,81h3.8l-0.9-81c0-1.5-0.5-2.7-1.1-2.7l0,0C544.2,252.1,543.7,253.3,543.7,254.8z"/>
	<path fill="#754C24" d="M578.7,254.8l-0.9,81h3.8l-0.9-81c0-1.5-0.5-2.7-1.1-2.7l0,0C579.2,252.1,578.8,253.3,578.7,254.8z"/>
	<rect x="7" y="333" fill="#C7B299" width="591" height="29"/>
	<rect x="201.5" y="334.1" fill="#A67C52" width="204.8" height="33.8"/>
	<rect x="7" y="362" fill="#A67C52" width="592" height="149"/>
	<rect x="15.2" y="476.4" fill="#C69C6D" width="28.8" height="30.2"/>
	<rect x="15.2" y="440" fill="#C69C6D" width="28.8" height="30.2"/>
	<rect x="15.2" y="403.7" fill="#C69C6D" width="28.8" height="30.2"/>
	<rect x="15.2" y="367.3" fill="#C69C6D" width="28.8" height="30.2"/>
	<rect x="49.6" y="476.4" fill="#C69C6D" width="28.8" height="30.2"/>
	<rect x="49.6" y="440" fill="#C69C6D" width="28.8" height="30.2"/>
	<rect x="49.6" y="403.7" fill="#C69C6D" width="28.8" height="30.2"/>
	<rect x="49.6" y="367.3" fill="#C69C6D" width="28.8" height="30.2"/>
	<rect x="83.9" y="476.4" fill="#C69C6D" width="28.8" height="30.2"/>
	<rect x="83.9" y="440" fill="#C69C6D" width="28.8" height="30.2"/>
	<rect x="83.9" y="403.7" fill="#C69C6D" width="28.8" height="30.2"/>
	<rect x="83.9" y="367.3" fill="#C69C6D" width="28.8" height="30.2"/>
	<rect x="118.3" y="476.4" fill="#C69C6D" width="28.8" height="30.2"/>
	<rect x="118.3" y="440" fill="#C69C6D" width="28.8" height="30.2"/>
	<rect x="118.3" y="403.7" fill="#C69C6D" width="28.8" height="30.2"/>
	<rect x="118.3" y="367.3" fill="#C69C6D" width="28.8" height="30.2"/>
	<rect x="152.6" y="476.4" fill="#C69C6D" width="28.8" height="30.2"/>
	<rect x="152.6" y="440" fill="#C69C6D" width="28.8" height="30.2"/>
	<rect x="152.6" y="403.7" fill="#C69C6D" width="28.8" height="30.2"/>
	<rect x="152.6" y="367.3" fill="#C69C6D" width="28.8" height="30.2"/>
	<rect x="187" y="476.4" fill="#C69C6D" width="28.8" height="30.2"/>
	<rect x="187" y="440" fill="#C69C6D" width="28.8" height="30.2"/>
	<rect x="187" y="403.7" fill="#C69C6D" width="28.8" height="30.2"/>
	<rect x="187" y="367.3" fill="#C69C6D" width="28.8" height="30.2"/>
	<rect x="221.3" y="476.4" fill="#C69C6D" width="28.8" height="30.2"/>
	<rect x="221.3" y="440" fill="#C69C6D" width="28.8" height="30.2"/>
	<rect x="221.3" y="403.7" fill="#C69C6D" width="28.8" height="30.2"/>
	<rect x="221.3" y="367.3" fill="#C69C6D" width="28.8" height="30.2"/>
	<rect x="255.7" y="476.4" fill="#C69C6D" width="28.8" height="30.2"/>
	<rect x="255.7" y="440" fill="#C69C6D" width="28.8" height="30.2"/>
	<rect x="255.7" y="403.7" fill="#C69C6D" width="28.8" height="30.2"/>
	<rect x="255.7" y="367.3" fill="#C69C6D" width="28.8" height="30.2"/>
	<rect x="290" y="476.4" fill="#C69C6D" width="28.8" height="30.2"/>
	<rect x="290" y="440" fill="#C69C6D" width="28.8" height="30.2"/>
	<rect x="290" y="403.7" fill="#C69C6D" width="28.8" height="30.2"/>
	<rect x="290" y="367.3" fill="#C69C6D" width="28.8" height="30.2"/>
	<rect x="324.4" y="476.4" fill="#C69C6D" width="28.8" height="30.2"/>
	<rect x="324.4" y="440" fill="#C69C6D" width="28.8" height="30.2"/>
	<rect x="324.4" y="403.7" fill="#C69C6D" width="28.8" height="30.2"/>
	<rect x="324.4" y="367.3" fill="#C69C6D" width="28.8" height="30.2"/>
	<rect x="358.8" y="476.4" fill="#C69C6D" width="28.8" height="30.2"/>
	<rect x="358.8" y="440" fill="#C69C6D" width="28.8" height="30.2"/>
	<rect x="358.8" y="403.7" fill="#C69C6D" width="28.8" height="30.2"/>
	<rect x="358.8" y="367.3" fill="#C69C6D" width="28.8" height="30.2"/>
	<rect x="393.1" y="476.4" fill="#C69C6D" width="28.8" height="30.2"/>
	<rect x="393.1" y="440" fill="#C69C6D" width="28.8" height="30.2"/>
	<rect x="393.1" y="403.7" fill="#C69C6D" width="28.8" height="30.2"/>
	<rect x="393.1" y="367.3" fill="#C69C6D" width="28.8" height="30.2"/>
	<rect x="427.5" y="476.4" fill="#C69C6D" width="28.8" height="30.2"/>
	<rect x="427.5" y="440" fill="#C69C6D" width="28.8" height="30.2"/>
	<rect x="427.5" y="403.7" fill="#C69C6D" width="28.8" height="30.2"/>
	<rect x="427.5" y="367.3" fill="#C69C6D" width="28.8" height="30.2"/>
	<rect x="461.8" y="476.4" fill="#C69C6D" width="28.8" height="30.2"/>
	<rect x="461.8" y="440" fill="#C69C6D" width="28.8" height="30.2"/>
	<rect x="461.8" y="403.7" fill="#C69C6D" width="28.8" height="30.2"/>
	<rect x="461.8" y="367.3" fill="#C69C6D" width="28.8" height="30.2"/>
	<rect x="496.2" y="476.4" fill="#C69C6D" width="28.8" height="30.2"/>
	<rect x="496.2" y="440" fill="#C69C6D" width="28.8" height="30.2"/>
	<rect x="496.2" y="403.7" fill="#C69C6D" width="28.8" height="30.2"/>
	<rect x="496.2" y="367.3" fill="#C69C6D" width="28.8" height="30.2"/>
	<rect x="530.5" y="476.4" fill="#C69C6D" width="28.8" height="30.2"/>
	<rect x="530.5" y="440" fill="#C69C6D" width="28.8" height="30.2"/>
	<rect x="530.5" y="403.7" fill="#C69C6D" width="28.8" height="30.2"/>
	<rect x="530.5" y="367.3" fill="#C69C6D" width="28.8" height="30.2"/>
	<rect x="565.9" y="476.4" fill="#C69C6D" width="28.8" height="30.2"/>
	<rect x="565.9" y="440" fill="#C69C6D" width="28.8" height="30.2"/>
	<rect x="565.9" y="403.7" fill="#C69C6D" width="28.8" height="30.2"/>
	<rect x="565.9" y="367.3" fill="#C69C6D" width="28.8" height="30.2"/>
	<rect x="27.5" y="333.7" fill="#8C6239" width="4.2" height="177.6"/>
	<rect x="61.8" y="333.7" fill="#8C6239" width="4.2" height="177.6"/>
	<rect x="96.1" y="333.7" fill="#8C6239" width="4.2" height="177.6"/>
	<rect x="130.4" y="333.7" fill="#8C6239" width="4.2" height="177.6"/>
	<rect x="164.7" y="333.7" fill="#8C6239" width="4.2" height="177.6"/>
	<rect x="199" y="333.7" fill="#8C6239" width="4.2" height="177.6"/>
	<rect x="405.4" y="331.8" fill="#8C6239" width="4.5" height="178.9"/>
	<rect x="439.1" y="333.7" fill="#8C6239" width="4.2" height="177.6"/>
	<rect x="474.4" y="333.7" fill="#8C6239" width="4.2" height="177.6"/>
	<rect x="509.2" y="333.7" fill="#8C6239" width="4.2" height="177.6"/>
	<rect x="543" y="333.7" fill="#8C6239" width="4.2" height="177.6"/>
	<rect x="577.8" y="333.7" fill="#8C6239" width="4.2" height="177.6"/>
	<rect x="7.3" y="380.4" fill="#8C6239" width="591.4" height="3.6"/>
	<rect x="7.3" y="416.7" fill="#8C6239" width="591.4" height="3.6"/>
	<rect x="7.3" y="453.1" fill="#8C6239" width="591.4" height="3.6"/>
	<rect x="7.3" y="489.2" fill="#8C6239" width="591.4" height="3.6"/>
	<polygon fill="#8C6239" points="15,367.1 15,371.7 41,398 44,398 44,393.9 17.3,367.2 	"/>
	<path fill="#8C6239" d="M44,367.1v4.6L18,398h-3v-4.1l26.7-26.7C41.7,367.2,43,367.1,44,367.1z"/>
	<polygon fill="#8C6239" points="50,367.1 50,371.7 75.6,398 79,398 79,393.9 52.3,367.2 	"/>
	<path fill="#8C6239" d="M79,367.1v4.6L52.6,398H50v-4.1l26.7-26.7C76.7,367.2,77,367.1,79,367.1z"/>
	<path fill="#8C6239" d="M83,367.1v4.6l26.4,26.3h3.6v-4.1l-27.2-26.7C85.8,367.2,84,367.1,83,367.1z"/>
	<path fill="#8C6239" d="M113,367.1v4.6L86.3,398H83v-4.1l27.2-26.7C110.2,367.2,112,367.1,113,367.1z"/>
	<polygon fill="#8C6239" points="119,367.1 119,371.7 143.9,398 147,398 147,393.9 120.8,367.2 	"/>
	<path fill="#8C6239" d="M147,367.1v4.6L120.9,398H119v-4.1l26.2-26.7C145.2,367.2,146,367.1,147,367.1z"/>
	<polygon fill="#8C6239" points="152,367.1 152,371.7 178.5,398 182,398 182,393.9 154.8,367.2 	"/>
	<path fill="#8C6239" d="M182,367.1v4.6L155.5,398H152v-4.1l27.2-26.7C179.2,367.2,181,367.1,182,367.1z"/>
	<polygon fill="#8C6239" points="187,367.1 187,371.7 213,398 215,398 215,393.9 188.8,367.2 	"/>
	<polygon fill="#8C6239" points="215,367.1 215,371.7 190,398 187,398 187,393.9 213.2,367.2 	"/>
	<path fill="#8C6239" d="M221,367.1v4.6l26.6,26.3h2.4v-4.1l-26.7-26.7C223.3,367.2,222,367.1,221,367.1z"/>
	<polygon fill="#8C6239" points="250,367.1 250,371.7 224.6,398 221,398 221,393.9 247.7,367.2 	"/>
	<polygon fill="#8C6239" points="255,367.1 255,371.7 281.4,398 284,398 284,393.9 257.3,367.2 	"/>
	<polygon fill="#8C6239" points="284,367.1 284,371.7 258.3,398 255,398 255,393.9 281.7,367.2 	"/>
	<path fill="#8C6239" d="M290,367.1v4.6l25.9,26.3h3.1v-4.1l-26.7-26.7C292.3,367.2,291,367.1,290,367.1z"/>
	<polygon fill="#8C6239" points="319,367.1 319,371.7 292.9,398 290,398 290,393.9 316.7,367.2 	"/>
	<path fill="#8C6239" d="M323,367.1v4.6l27.5,26.3h3.5v-4.1l-27.7-26.7C326.3,367.2,326,367.1,323,367.1z"/>
	<path fill="#8C6239" d="M354,367.1v4.6L327.4,398H323v-4.1l27.7-26.7C350.7,367.2,353,367.1,354,367.1z"/>
	<path fill="#8C6239" d="M358,367.1v4.6l26.3,26.3h3.7v-4.1l-27.2-26.7C360.8,367.2,359,367.1,358,367.1z"/>
	<polygon fill="#8C6239" points="388,367.1 388,371.7 361.2,398 358,398 358,393.9 385.2,367.2 	"/>
	<path fill="#8C6239" d="M392,367.1v4.6l26.8,26.3h3.2v-4.1l-27.2-26.7C394.8,367.2,393,367.1,392,367.1z"/>
	<path fill="#8C6239" d="M422,367.1v4.6L395.8,398H392v-4.1l27.2-26.7C419.2,367.2,421,367.1,422,367.1z"/>
	<polygon fill="#8C6239" points="428,367.1 428,371.7 453.4,398 457,398 457,393.9 430.3,367.2 	"/>
	<path fill="#8C6239" d="M457,367.1v4.6L430.3,398H428v-4.1l26.7-26.7C454.7,367.2,455,367.1,457,367.1z"/>
	<polygon fill="#8C6239" points="462,367.1 462,371.7 487.9,398 491,398 491,393.9 464.3,367.2 	"/>
	<path fill="#8C6239" d="M491,367.1v4.6L464.9,398H462v-4.1l26.7-26.7C488.7,367.2,490,367.1,491,367.1z"/>
	<polygon fill="#8C6239" points="497,367.1 497,371.7 522.5,398 525,398 525,393.9 498.8,367.2 	"/>
	<polygon fill="#8C6239" points="525,367.1 525,371.7 499.4,398 497,398 497,393.9 523.2,367.2 	"/>
	<path fill="#8C6239" d="M530,367.1v4.6l27,26.3h3v-4.1l-27.2-26.7C532.8,367.2,532,367.1,530,367.1z"/>
	<polygon fill="#8C6239" points="560,367.1 560,371.7 534,398 530,398 530,393.9 557.2,367.2 	"/>
	<polygon fill="#8C6239" points="566,367.1 566,371.7 591.6,398 594,398 594,393.9 567.8,367.2 	"/>
	<path fill="#8C6239" d="M594,367.1v4.6L568.5,398H566v-4.1l26.2-26.7C592.2,367.2,593,367.1,594,367.1z"/>
	<polygon fill="#8C6239" points="15,403.9 15,408.5 41,434 44,434 44,430.8 17.3,404.1 	"/>
	<path fill="#8C6239" d="M44,403.9v4.6L18,434h-3v-3.2l26.7-26.7C41.7,404.1,43,403.9,44,403.9z"/>
	<polygon fill="#8C6239" points="50,403.9 50,408.5 75.6,434 79,434 79,430.8 52.3,404.1 	"/>
	<path fill="#8C6239" d="M79,403.9v4.6L52.6,434H50v-3.2l26.7-26.7C76.7,404.1,77,403.9,79,403.9z"/>
	<path fill="#8C6239" d="M83,403.9v4.6l26.4,25.5h3.6v-3.2l-27.2-26.7C85.8,404.1,84,403.9,83,403.9z"/>
	<path fill="#8C6239" d="M113,403.9v4.6L86.3,434H83v-3.2l27.2-26.7C110.2,404.1,112,403.9,113,403.9z"/>
	<polygon fill="#8C6239" points="119,403.9 119,408.5 143.9,434 147,434 147,430.8 120.8,404.1 	"/>
	<path fill="#8C6239" d="M147,403.9v4.6L120.9,434H119v-3.2l26.2-26.7C145.2,404.1,146,403.9,147,403.9z"/>
	<polygon fill="#8C6239" points="152,403.9 152,408.5 178.5,434 182,434 182,430.8 154.8,404.1 	"/>
	<path fill="#8C6239" d="M182,403.9v4.6L155.5,434H152v-3.2l27.2-26.7C179.2,404.1,181,403.9,182,403.9z"/>
	<polygon fill="#8C6239" points="187,403.9 187,408.5 213,434 215,434 215,430.8 188.8,404.1 	"/>
	<polygon fill="#8C6239" points="215,403.9 215,408.5 190,434 187,434 187,430.8 213.2,404.1 	"/>
	<path fill="#8C6239" d="M221,403.9v4.6l26.6,25.5h2.4v-3.2l-26.7-26.7C223.3,404.1,222,403.9,221,403.9z"/>
	<polygon fill="#8C6239" points="250,403.9 250,408.5 224.6,434 221,434 221,430.8 247.7,404.1 	"/>
	<polygon fill="#8C6239" points="255,403.9 255,408.5 281.4,434 284,434 284,430.8 257.3,404.1 	"/>
	<polygon fill="#8C6239" points="284,403.9 284,408.5 258.3,434 255,434 255,430.8 281.7,404.1 	"/>
	<path fill="#8C6239" d="M290,403.9v4.6l25.9,25.5h3.1v-3.2l-26.7-26.7C292.3,404.1,291,403.9,290,403.9z"/>
	<polygon fill="#8C6239" points="319,403.9 319,408.5 292.9,434 290,434 290,430.8 316.7,404.1 	"/>
	<path fill="#8C6239" d="M323,403.9v4.6l27.5,25.5h3.5v-3.2l-27.7-26.7C326.3,404.1,326,403.9,323,403.9z"/>
	<path fill="#8C6239" d="M354,403.9v4.6L327.4,434H323v-3.2l27.7-26.7C350.7,404.1,353,403.9,354,403.9z"/>
	<path fill="#8C6239" d="M358,403.9v4.6l26.3,25.5h3.7v-3.2l-27.2-26.7C360.8,404.1,359,403.9,358,403.9z"/>
	<polygon fill="#8C6239" points="388,403.9 388,408.5 361.2,434 358,434 358,430.8 385.2,404.1 	"/>
	<path fill="#8C6239" d="M392,403.9v4.6l26.8,25.5h3.2v-3.2l-27.2-26.7C394.8,404.1,393,403.9,392,403.9z"/>
	<path fill="#8C6239" d="M422,403.9v4.6L395.8,434H392v-3.2l27.2-26.7C419.2,404.1,421,403.9,422,403.9z"/>
	<polygon fill="#8C6239" points="428,403.9 428,408.5 453.4,434 457,434 457,430.8 430.3,404.1 	"/>
	<path fill="#8C6239" d="M457,403.9v4.6L430.3,434H428v-3.2l26.7-26.7C454.7,404.1,455,403.9,457,403.9z"/>
	<polygon fill="#8C6239" points="462,403.9 462,408.5 487.9,434 491,434 491,430.8 464.3,404.1 	"/>
	<path fill="#8C6239" d="M491,403.9v4.6L464.9,434H462v-3.2l26.7-26.7C488.7,404.1,490,403.9,491,403.9z"/>
	<polygon fill="#8C6239" points="497,403.9 497,408.5 522.5,434 525,434 525,430.8 498.8,404.1 	"/>
	<polygon fill="#8C6239" points="525,403.9 525,408.5 499.4,434 497,434 497,430.8 523.2,404.1 	"/>
	<path fill="#8C6239" d="M530,403.9v4.6l27,25.5h3v-3.2l-27.2-26.7C532.8,404.1,532,403.9,530,403.9z"/>
	<polygon fill="#8C6239" points="560,403.9 560,408.5 534,434 530,434 530,430.8 557.2,404.1 	"/>
	<polygon fill="#8C6239" points="566,403.9 566,408.5 591.6,434 594,434 594,430.8 567.8,404.1 	"/>
	<path fill="#8C6239" d="M594,403.9v4.6L568.5,434H566v-3.2l26.2-26.7C592.2,404.1,593,403.9,594,403.9z"/>
	<polygon fill="#8C6239" points="15,440 15,444.6 41,470 44,470 44,466.9 17.3,440.1 	"/>
	<path fill="#8C6239" d="M44,440v4.6L18,470h-3v-3.1l26.7-26.7C41.7,440.1,43,440,44,440z"/>
	<polygon fill="#8C6239" points="50,440 50,444.6 75.6,470 79,470 79,466.9 52.3,440.1 	"/>
	<path fill="#8C6239" d="M79,440v4.6L52.6,470H50v-3.1l26.7-26.7C76.7,440.1,77,440,79,440z"/>
	<path fill="#8C6239" d="M83,440v4.6l26.4,25.4h3.6v-3.1l-27.2-26.7C85.8,440.1,84,440,83,440z"/>
	<path fill="#8C6239" d="M113,440v4.6L86.3,470H83v-3.1l27.2-26.7C110.2,440.1,112,440,113,440z"/>
	<polygon fill="#8C6239" points="119,440 119,444.6 143.9,470 147,470 147,466.9 120.8,440.1 	"/>
	<path fill="#8C6239" d="M147,440v4.6L120.9,470H119v-3.1l26.2-26.7C145.2,440.1,146,440,147,440z"/>
	<polygon fill="#8C6239" points="152,440 152,444.6 178.5,470 182,470 182,466.9 154.8,440.1 	"/>
	<path fill="#8C6239" d="M182,440v4.6L155.5,470H152v-3.1l27.2-26.7C179.2,440.1,181,440,182,440z"/>
	<polygon fill="#8C6239" points="187,440 187,444.6 213,470 215,470 215,466.9 188.8,440.1 	"/>
	<polygon fill="#8C6239" points="215,440 215,444.6 190,470 187,470 187,466.9 213.2,440.1 	"/>
	<path fill="#8C6239" d="M221,440v4.6l26.6,25.4h2.4v-3.1l-26.7-26.7C223.3,440.1,222,440,221,440z"/>
	<polygon fill="#8C6239" points="250,440 250,444.6 224.6,470 221,470 221,466.9 247.7,440.1 	"/>
	<polygon fill="#8C6239" points="255,440 255,444.6 281.4,470 284,470 284,466.9 257.3,440.1 	"/>
	<polygon fill="#8C6239" points="284,440 284,444.6 258.3,470 255,470 255,466.9 281.7,440.1 	"/>
	<path fill="#8C6239" d="M290,440v4.6l25.9,25.4h3.1v-3.1l-26.7-26.7C292.3,440.1,291,440,290,440z"/>
	<polygon fill="#8C6239" points="319,440 319,444.6 292.9,470 290,470 290,466.9 316.7,440.1 	"/>
	<path fill="#8C6239" d="M323,440v4.6l27.5,25.4h3.5v-3.1l-27.7-26.7C326.3,440.1,326,440,323,440z"/>
	<path fill="#8C6239" d="M354,440v4.6L327.4,470H323v-3.1l27.7-26.7C350.7,440.1,353,440,354,440z"/>
	<path fill="#8C6239" d="M358,440v4.6l26.3,25.4h3.7v-3.1l-27.2-26.7C360.8,440.1,359,440,358,440z"/>
	<polygon fill="#8C6239" points="388,440 388,444.6 361.2,470 358,470 358,466.9 385.2,440.1 	"/>
	<path fill="#8C6239" d="M392,440v4.6l26.8,25.4h3.2v-3.1l-27.2-26.7C394.8,440.1,393,440,392,440z"/>
	<path fill="#8C6239" d="M422,440v4.6L395.8,470H392v-3.1l27.2-26.7C419.2,440.1,421,440,422,440z"/>
	<polygon fill="#8C6239" points="428,440 428,444.6 453.4,470 457,470 457,466.9 430.3,440.1 	"/>
	<path fill="#8C6239" d="M457,440v4.6L430.3,470H428v-3.1l26.7-26.7C454.7,440.1,455,440,457,440z"/>
	<polygon fill="#8C6239" points="462,440 462,444.6 487.9,470 491,470 491,466.9 464.3,440.1 	"/>
	<path fill="#8C6239" d="M491,440v4.6L464.9,470H462v-3.1l26.7-26.7C488.7,440.1,490,440,491,440z"/>
	<polygon fill="#8C6239" points="497,440 497,444.6 522.5,470 525,470 525,466.9 498.8,440.1 	"/>
	<polygon fill="#8C6239" points="525,440 525,444.6 499.4,470 497,470 497,466.9 523.2,440.1 	"/>
	<path fill="#8C6239" d="M530,440v4.6l27,25.4h3v-3.1l-27.2-26.7C532.8,440.1,532,440,530,440z"/>
	<polygon fill="#8C6239" points="560,440 560,444.6 534,470 530,470 530,466.9 557.2,440.1 	"/>
	<polygon fill="#8C6239" points="566,440 566,444.6 591.6,470 594,470 594,466.9 567.8,440.1 	"/>
	<path fill="#8C6239" d="M594,440v4.6L568.5,470H566v-3.1l26.2-26.7C592.2,440.1,593,440,594,440z"/>
	<polygon fill="#8C6239" points="15,476.1 15,480.7 41,507 44,507 44,503 17.3,476.2 	"/>
	<path fill="#8C6239" d="M44,476.1v4.6L18,507h-3v-4l26.7-26.7C41.7,476.2,43,476.1,44,476.1z"/>
	<polygon fill="#8C6239" points="50,476.1 50,480.7 75.6,507 79,507 79,503 52.3,476.2 	"/>
	<path fill="#8C6239" d="M79,476.1v4.6L52.6,507H50v-4l26.7-26.7C76.7,476.2,77,476.1,79,476.1z"/>
	<path fill="#8C6239" d="M83,476.1v4.6l26.4,26.3h3.6v-4l-27.2-26.7C85.8,476.2,84,476.1,83,476.1z"/>
	<path fill="#8C6239" d="M113,476.1v4.6L86.3,507H83v-4l27.2-26.7C110.2,476.2,112,476.1,113,476.1z"/>
	<polygon fill="#8C6239" points="119,476.1 119,480.7 143.9,507 147,507 147,503 120.8,476.2 	"/>
	<path fill="#8C6239" d="M147,476.1v4.6L120.9,507H119v-4l26.2-26.7C145.2,476.2,146,476.1,147,476.1z"/>
	<polygon fill="#8C6239" points="152,476.1 152,480.7 178.5,507 182,507 182,503 154.8,476.2 	"/>
	<path fill="#8C6239" d="M182,476.1v4.6L155.5,507H152v-4l27.2-26.7C179.2,476.2,181,476.1,182,476.1z"/>
	<polygon fill="#8C6239" points="187,476.1 187,480.7 213,507 215,507 215,503 188.8,476.2 	"/>
	<polygon fill="#8C6239" points="215,476.1 215,480.7 190,507 187,507 187,503 213.2,476.2 	"/>
	<path fill="#8C6239" d="M221,476.1v4.6l26.6,26.3h2.4v-4l-26.7-26.7C223.3,476.2,222,476.1,221,476.1z"/>
	<polygon fill="#8C6239" points="250,476.1 250,480.7 224.6,507 221,507 221,503 247.7,476.2 	"/>
	<polygon fill="#8C6239" points="255,476.1 255,480.7 281.4,507 284,507 284,503 257.3,476.2 	"/>
	<polygon fill="#8C6239" points="284,476.1 284,480.7 258.3,507 255,507 255,503 281.7,476.2 	"/>
	<path fill="#8C6239" d="M290,476.1v4.6l25.9,26.3h3.1v-4l-26.7-26.7C292.3,476.2,291,476.1,290,476.1z"/>
	<polygon fill="#8C6239" points="319,476.1 319,480.7 292.9,507 290,507 290,503 316.7,476.2 	"/>
	<path fill="#8C6239" d="M323,476.1v4.6l27.5,26.3h3.5v-4l-27.7-26.7C326.3,476.2,326,476.1,323,476.1z"/>
	<path fill="#8C6239" d="M354,476.1v4.6L327.4,507H323v-4l27.7-26.7C350.7,476.2,353,476.1,354,476.1z"/>
	<path fill="#8C6239" d="M358,476.1v4.6l26.3,26.3h3.7v-4l-27.2-26.7C360.8,476.2,359,476.1,358,476.1z"/>
	<polygon fill="#8C6239" points="388,476.1 388,480.7 361.2,507 358,507 358,503 385.2,476.2 	"/>
	<path fill="#8C6239" d="M392,476.1v4.6l26.8,26.3h3.2v-4l-27.2-26.7C394.8,476.2,393,476.1,392,476.1z"/>
	<path fill="#8C6239" d="M422,476.1v4.6L395.8,507H392v-4l27.2-26.7C419.2,476.2,421,476.1,422,476.1z"/>
	<polygon fill="#8C6239" points="428,476.1 428,480.7 453.4,507 457,507 457,503 430.3,476.2 	"/>
	<path fill="#8C6239" d="M457,476.1v4.6L430.3,507H428v-4l26.7-26.7C454.7,476.2,455,476.1,457,476.1z"/>
	<polygon fill="#8C6239" points="462,476.1 462,480.7 487.9,507 491,507 491,503 464.3,476.2 	"/>
	<path fill="#8C6239" d="M491,476.1v4.6L464.9,507H462v-4l26.7-26.7C488.7,476.2,490,476.1,491,476.1z"/>
	<polygon fill="#8C6239" points="497,476.1 497,480.7 522.5,507 525,507 525,503 498.8,476.2 	"/>
	<polygon fill="#8C6239" points="525,476.1 525,480.7 499.4,507 497,507 497,503 523.2,476.2 	"/>
	<path fill="#8C6239" d="M530,476.1v4.6l27,26.3h3v-4l-27.2-26.7C532.8,476.2,532,476.1,530,476.1z"/>
	<polygon fill="#8C6239" points="560,476.1 560,480.7 534,507 530,507 530,503 557.2,476.2 	"/>
	<polygon fill="#8C6239" points="566,476.1 566,480.7 591.6,507 594,507 594,503 567.8,476.2 	"/>
	<path fill="#8C6239" d="M594,476.1v4.6L568.5,507H566v-4l26.2-26.7C592.2,476.2,593,476.1,594,476.1z"/>
	<rect x="221" y="440" fill="#42210B" width="167.3" height="71.3"/>
	<rect x="221.7" y="365.8" fill="#C7B299" width="167.7" height="69.6"/>
	<g>
		<path fill="#FEFEFE" d="M287.5,422c0,0-0.7,3.8,3.5,4.4c4.2,0.6,12.2,0.9,14.3,4.7c0,0,2.6-4.9,13.5-4.6c3.7,0.1,4.5-2.5,4.5-4.5
			H287.5z"/>
		<rect x="287.5" y="383.4" fill="#FEFEFE" width="35.8" height="38.7"/>
		<rect x="287.5" y="383.4" fill="#426BAD" width="35.9" height="8.7"/>
		<rect x="294" y="397.1" fill="#426AAC" width="22.9" height="24.9"/>
		<rect x="301.3" y="397.9" fill="#FEFEFE" width="8.3" height="23.6"/>
		<path fill="#FEFEFE" d="M297.1,388.5l2.3,0.5c-0.2,0.5-0.4,0.9-0.7,1.2c-0.3,0.3-0.7,0.6-1.2,0.8c-0.5,0.2-1.1,0.3-1.9,0.3
			c-0.9,0-1.7-0.1-2.2-0.3c-0.6-0.2-1.1-0.6-1.5-1.1c-0.4-0.5-0.6-1.2-0.6-2c0-1.1,0.4-1.9,1.1-2.5c0.7-0.6,1.8-0.9,3.1-0.9
			c1.1,0,1.9,0.2,2.5,0.5c0.6,0.3,1.1,0.8,1.3,1.5l-2.3,0.4c-0.1-0.2-0.2-0.3-0.3-0.4c-0.1-0.2-0.3-0.3-0.5-0.4
			c-0.2-0.1-0.4-0.1-0.7-0.1c-0.6,0-1,0.2-1.3,0.6c-0.2,0.3-0.4,0.7-0.4,1.3c0,0.7,0.1,1.2,0.4,1.5c0.3,0.3,0.7,0.4,1.2,0.4
			c0.5,0,0.9-0.1,1.1-0.3C296.8,389.2,297,388.9,297.1,388.5z"/>
		<path fill="#FEFEFE" d="M317.8,390.1h-3.1l-0.4,1.1h-2.8l3.3-6.9h3l3.3,6.9h-2.8L317.8,390.1z M317.3,388.6l-1-2.5l-1,2.5H317.3z"
			/>
		<polygon fill="#FEFEFE" stroke="#000000" stroke-miterlimit="10" points="313.5,407.5 307.5,407.5 307.5,400.5 304.5,400.5 
			304.5,407.5 298.5,407.5 298.5,411.5 304.5,411.5 304.5,418.5 307.5,418.5 307.5,411.5 313.5,411.5 		"/>
		<polygon fill="#8DB3D4" points="298.3,380 314.5,380 317.8,374 316.4,373.7 313.8,377.8 313,377.3 313,375.7 313,376.1 313,374.2 
			313,373.7 313,372.4 311.4,372.4 310.8,373.8 309,373.8 309,375.7 310.8,375.6 310.9,377 307.6,376.8 307.5,375.2 309,375.1 
			309,373 307,372.8 307,372 305,372 305,373.1 303,373.4 303,375 304.8,375 304.8,376.9 301,377.2 301,377 303,377 303,374 
			301,373.8 301,372.6 299,373.2 299,374.2 298.1,375.2 298.5,377 299,377 299,377.5 298.2,377.8 296.2,373.5 295,374 		"/>
	</g>
	<rect x="6.5" y="355.6" fill="#8C6239" width="195.5" height="8.2"/>
	<rect x="407.3" y="355.6" fill="#8C6239" width="191" height="8.2"/>
	<rect x="199" y="332" fill="#8C6239" width="210.2" height="8.2"/>
	<g>
		<g>
			<path fill="#FFFFFF" d="M420.5,303.2c0.1-0.1,3.2-1.7,4.4-5.2c0.8-2.5,0.4-5.3-1.1-8.3c-3.2-6.2,0.6-8.5,3.6-10.4
				c1.4-0.9,2.7-1.6,3-2.7c1.1-3.2-2.6-7.8-2.8-7.9l-0.4,0.3c0,0,3.7,4.6,2.7,7.5c-0.3,0.9-1.5,1.6-2.8,2.4c-3,1.9-7.2,4.4-3.8,11
				c1.5,2.9,1.9,5.6,1.1,8c-1.1,3.3-4.1,4.9-4.1,4.9L420.5,303.2z"/>
		</g>
		<path fill="#F2F2F2" d="M420.4,264c-0.1-0.7-0.3-2.3-0.9-1.9c0.3-2.3,1.7-4.8,4.9-5.1c4.9-0.4,6.9,4.8,5.7,8.6
			c-0.4,1.3-1.5,3.9-4,3.6c-0.2,0-0.4-0.1-0.6-0.1c-0.2-0.3-1.2-0.1-1.6-0.5C422.3,267.1,420.8,265.5,420.4,264z"/>
		<path fill="#F2F2F2" d="M419.8,265c-0.3-0.8-0.4-1.8-0.3-2.9c0.7-0.4,1.6-0.6,1.5,0.1c-0.4,2.8,1.6,4.8,2.8,5.4
			c0.5,0.2,1.5,1.3,1.7,1.6C423.2,268.7,420.6,267.2,419.8,265z"/>
		<polygon fill="#F2F2F2" points="427.9,268 429.2,269.8 427,270.8 427.3,268.1 		"/>
	</g>
	<g>
		<g>
			<path fill="#FFFFFF" d="M321.2,320.6c0.1-0.1,3.2-1.7,4.4-5.2c0.8-2.5,0.4-5.3-1.1-8.3c-3.2-6.2,0.6-8.5,3.6-10.4
				c1.4-0.9,2.7-1.6,3-2.7c1.1-3.2-2.6-7.8-2.8-7.9l-0.4,0.3c0,0,3.7,4.6,2.7,7.5c-0.3,0.9-1.5,1.6-2.8,2.4c-3,1.9-7.2,4.4-3.8,11
				c1.5,2.9,1.9,5.6,1.1,8c-1.1,3.3-4.1,4.9-4.1,4.9L321.2,320.6z"/>
		</g>
		<path fill="#F2F2F2" d="M321.1,281.4c-0.1-0.7-0.3-2.3-0.9-1.9c0.3-2.3,1.7-4.8,4.9-5.1c4.9-0.4,6.9,4.8,5.7,8.6
			c-0.4,1.3-1.5,3.9-4,3.6c-0.2,0-0.4-0.1-0.6-0.1c-0.2-0.3-1.2-0.1-1.6-0.5C323,284.5,321.4,282.9,321.1,281.4z"/>
		<path fill="#F2F2F2" d="M320.5,282.4c-0.3-0.8-0.4-1.8-0.3-2.9c0.7-0.4,1.6-0.6,1.5,0.1c-0.4,2.8,1.6,4.8,2.8,5.4
			c0.5,0.2,1.5,1.3,1.7,1.6C323.9,286.1,321.3,284.6,320.5,282.4z"/>
		<polygon fill="#F2F2F2" points="328.6,285.4 329.9,287.2 327.7,288.2 328,285.5 		"/>
	</g>
	<g>
		<g>
			<path fill="#FFFFFF" d="M513.9,286.3c-0.1-0.1-3.5-1.8-4.8-5.6c-0.9-2.7-0.5-5.8,1.2-9.1c3.5-6.7-0.7-9.3-4-11.3
				c-1.6-1-2.9-1.8-3.3-2.9c-1.2-3.5,2.9-8.4,3-8.7l0.4,0.3c0,0-4.1,5-3,8.1c0.3,1,1.6,1.7,3.1,2.6c3.3,2,7.8,4.8,4.1,12
				c-1.6,3.2-2,6.1-1.2,8.7c1.2,3.6,4.5,5.3,4.5,5.3L513.9,286.3z"/>
		</g>
		<path fill="#F2F2F2" d="M514,243.6c0.2-0.7,0.3-2.5,1-2.1c-0.3-2.5-1.8-5.2-5.4-5.5c-5.3-0.5-7.5,5.2-6.2,9.4
			c0.5,1.4,1.6,4.3,4.3,4c0.2,0,0.4-0.1,0.7-0.1c0.2-0.3,1.3-0.1,1.7-0.5C512,247,513.7,245.2,514,243.6z"/>
		<path fill="#F2F2F2" d="M514.7,244.7c0.3-0.8,0.4-2,0.3-3.2c-0.7-0.4-1.7-0.7-1.6,0.1c0.5,3.1-1.7,5.2-3,5.9
			c-0.5,0.3-1.7,1.4-1.9,1.7C511,248.8,513.9,247.1,514.7,244.7z"/>
		<polygon fill="#F2F2F2" points="505.8,248 504.5,249.9 506.8,251 506.5,248.1 		"/>
	</g>
	<g>
		<g>
			<path fill="#FFFFFF" d="M556.3,310.4c0.2-0.1,5.3-2.7,7.2-8.5c1.3-4.1,0.7-8.7-1.9-13.7c-5.2-10.1,1-14,6-17.1
				c2.3-1.5,4.4-2.7,5-4.4c1.8-5.2-4.3-12.8-4.6-13.1l-0.6,0.5c0.1,0.1,6.1,7.5,4.5,12.3c-0.5,1.4-2.4,2.6-4.6,4
				c-5,3.1-11.8,7.3-6.3,18.1c2.5,4.8,3.1,9.2,1.8,13.1c-1.8,5.5-6.7,8-6.8,8.1L556.3,310.4z"/>
		</g>
		<path fill="#426AAC" d="M556.2,246c-0.2-1.1-0.4-3.8-1.5-3.2c0.5-3.8,2.7-7.9,8.1-8.4c8-0.7,11.4,7.9,9.3,14.2
			c-0.7,2.1-2.5,6.5-6.6,6c-0.3,0-0.7-0.1-1-0.2c-0.3-0.5-2-0.2-2.6-0.8C559.3,251.1,556.7,248.4,556.2,246z"/>
		<path fill="#426AAC" d="M555.1,247.6c-0.5-1.3-0.6-3-0.4-4.8c1.1-0.7,2.6-1,2.4,0.2c-0.7,4.7,2.6,7.9,4.6,8.9
			c0.7,0.4,2.5,2.1,2.9,2.6C560.7,253.7,556.4,251.2,555.1,247.6z"/>
		<polygon fill="#426AAC" points="568.5,252.5 570.5,255.5 567,257.1 567.5,252.6 		"/>
	</g>
	<g>
		<g>
			<path fill="#FFFFFF" d="M461.6,326.6c-0.2-0.1-4.1-2.1-5.6-6.6c-1-3.2-0.5-6.8,1.4-10.7c4.1-7.9-0.8-10.9-4.7-13.3
				c-1.8-1.1-3.4-2.1-3.9-3.4c-1.4-4.1,3.4-9.9,3.6-10.2l0.5,0.4c0,0.1-4.8,5.8-3.5,9.6c0.4,1.1,1.9,2,3.6,3.1
				c3.9,2.4,9.2,5.7,4.9,14.1c-1.9,3.7-2.4,7.2-1.4,10.2c1.4,4.3,5.3,6.3,5.3,6.3L461.6,326.6z"/>
		</g>
		<path fill="#426AAC" d="M461.6,276.4c0.2-0.9,0.3-3,1.2-2.5c-0.4-2.9-2.1-6.1-6.3-6.5c-6.2-0.6-8.9,6.1-7.3,11.1
			c0.5,1.6,1.9,5,5.1,4.7c0.3,0,0.5-0.1,0.8-0.1c0.3-0.4,1.6-0.1,2-0.6C459.2,280.4,461.2,278.2,461.6,276.4z"/>
		<path fill="#426AAC" d="M462.5,277.7c0.4-1,0.5-2.3,0.3-3.8c-0.8-0.5-2-0.8-1.9,0.1c0.5,3.6-2,6.2-3.6,7c-0.6,0.3-2,1.6-2.2,2
			C458.1,282.4,461.5,280.4,462.5,277.7z"/>
		<polygon fill="#426AAC" points="452.1,281.5 450.5,283.8 453.2,285.1 452.9,281.6 		"/>
	</g>
	<g>
		<g>
			<path fill="#FFFFFF" d="M285,297.4c-0.2-0.1-4.1-2.1-5.6-6.6c-1-3.2-0.5-6.8,1.4-10.7c4.1-7.9-0.8-10.9-4.7-13.3
				c-1.8-1.1-3.4-2.1-3.9-3.4c-1.4-4.1,3.4-9.9,3.6-10.2l0.5,0.4c0,0.1-4.8,5.8-3.5,9.6c0.4,1.1,1.9,2,3.6,3.1
				c3.9,2.4,9.2,5.7,4.9,14.1c-1.9,3.7-2.4,7.2-1.4,10.2c1.4,4.3,5.3,6.3,5.3,6.3L285,297.4z"/>
		</g>
		<path fill="#426AAC" d="M285,247.2c0.2-0.9,0.3-3,1.2-2.5c-0.4-2.9-2.1-6.1-6.3-6.5c-6.2-0.6-8.9,6.1-7.3,11.1
			c0.5,1.6,1.9,5,5.1,4.7c0.3,0,0.5-0.1,0.8-0.1c0.3-0.4,1.6-0.1,2-0.6C282.6,251.2,284.6,249.1,285,247.2z"/>
		<path fill="#426AAC" d="M285.9,248.5c0.4-1,0.5-2.3,0.3-3.8c-0.8-0.5-2-0.8-1.9,0.1c0.5,3.6-2,6.2-3.6,7c-0.6,0.3-2,1.6-2.2,2
			C281.5,253.2,284.9,251.3,285.9,248.5z"/>
		<polygon fill="#426AAC" points="275.5,252.3 273.9,254.6 276.6,255.9 276.3,252.4 		"/>
	</g>
	<g>
		<g>
			<path fill="#FFFFFF" d="M387.8,300c-0.2-0.1-5.9-3-8-9.5c-1.5-4.6-0.8-9.7,2.1-15.3c5.8-11.3-1.1-15.6-6.7-19
				c-2.6-1.6-4.9-3-5.5-4.9c-2-5.8,4.8-14.2,5.1-14.6l0.7,0.6c-0.1,0.1-6.9,8.4-5,13.7c0.6,1.6,2.7,2.9,5.2,4.5
				c5.6,3.4,13.2,8.1,7,20.2c-2.7,5.3-3.4,10.3-2,14.6c2,6.1,7.5,9,7.6,9L387.8,300z"/>
		</g>
		<path fill="#426AAC" d="M387.9,228.1c0.3-1.3,0.5-4.2,1.7-3.5c-0.5-4.2-3-8.8-9-9.3c-8.9-0.8-12.7,8.8-10.4,15.8
			c0.8,2.4,2.7,7.2,7.3,6.7c0.4,0,0.7-0.1,1.1-0.2c0.4-0.5,2.2-0.2,2.9-0.9C384.5,233.8,387.4,230.7,387.9,228.1z"/>
		<path fill="#426AAC" d="M389.1,229.9c0.5-1.4,0.7-3.3,0.5-5.4c-1.2-0.7-2.9-1.1-2.7,0.2c0.8,5.2-2.9,8.8-5.1,10
			c-0.8,0.4-2.8,2.3-3.2,2.9C382.9,236.7,387.7,233.9,389.1,229.9z"/>
		<polygon fill="#426AAC" points="374.2,235.3 371.9,238.7 375.9,240.5 375.3,235.5 		"/>
	</g>
	<g>
		<g>
			<path fill="#FFFFFF" d="M157.2,303.2c-0.1-0.1-3.2-1.7-4.4-5.2c-0.8-2.5-0.4-5.3,1.1-8.3c3.2-6.2-0.6-8.5-3.6-10.4
				c-1.4-0.9-2.7-1.6-3-2.7c-1.1-3.2,2.6-7.8,2.8-7.9l0.4,0.3c0,0-3.7,4.6-2.7,7.5c0.3,0.9,1.5,1.6,2.8,2.4c3,1.9,7.2,4.4,3.8,11
				c-1.5,2.9-1.9,5.6-1.1,8c1.1,3.3,4.1,4.9,4.1,4.9L157.2,303.2z"/>
		</g>
		<path fill="#F2F2F2" d="M157.3,264c0.1-0.7,0.3-2.3,0.9-1.9c-0.3-2.3-1.7-4.8-4.9-5.1c-4.9-0.4-6.9,4.8-5.7,8.6
			c0.4,1.3,1.5,3.9,4,3.6c0.2,0,0.4-0.1,0.6-0.1c0.2-0.3,1.2-0.1,1.6-0.5C155.4,267.1,157,265.5,157.3,264z"/>
		<path fill="#F2F2F2" d="M157.9,265c0.3-0.8,0.4-1.8,0.3-2.9c-0.7-0.4-1.6-0.6-1.5,0.1c0.4,2.8-1.6,4.8-2.8,5.4
			c-0.5,0.2-1.5,1.3-1.7,1.6C154.6,268.7,157.2,267.2,157.9,265z"/>
		<polygon fill="#F2F2F2" points="149.8,268 148.6,269.8 150.7,270.8 150.4,268.1 		"/>
	</g>
	<g>
		<g>
			<path fill="#FFFFFF" d="M239,320.6c-0.1-0.1-3.2-1.7-4.4-5.2c-0.8-2.5-0.4-5.3,1.1-8.3c3.2-6.2-0.6-8.5-3.6-10.4
				c-1.4-0.9-2.7-1.6-3-2.7c-1.1-3.2,2.6-7.8,2.8-7.9l0.4,0.3c0,0-3.7,4.6-2.7,7.5c0.3,0.9,1.5,1.6,2.8,2.4c3,1.9,7.2,4.4,3.8,11
				c-1.5,2.9-1.9,5.6-1.1,8c1.1,3.3,4.1,4.9,4.1,4.9L239,320.6z"/>
		</g>
		<path fill="#F2F2F2" d="M239.1,281.4c0.1-0.7,0.3-2.3,0.9-1.9c-0.3-2.3-1.7-4.8-4.9-5.1c-4.9-0.4-6.9,4.8-5.7,8.6
			c0.4,1.3,1.5,3.9,4,3.6c0.2,0,0.4-0.1,0.6-0.1c0.2-0.3,1.2-0.1,1.6-0.5C237.2,284.5,238.8,282.8,239.1,281.4z"/>
		<path fill="#F2F2F2" d="M239.8,282.4c0.3-0.8,0.4-1.8,0.3-2.9c-0.7-0.4-1.6-0.6-1.5,0.1c0.4,2.8-1.6,4.8-2.8,5.4
			c-0.5,0.2-1.5,1.3-1.7,1.6C236.4,286.1,239,284.5,239.8,282.4z"/>
		<polygon fill="#F2F2F2" points="231.6,285.3 230.4,287.1 232.5,288.2 232.2,285.4 		"/>
	</g>
	<g>
		<g>
			<path fill="#FFFFFF" d="M63.8,286.3c0.1-0.1,3.5-1.8,4.8-5.6c0.9-2.7,0.5-5.8-1.2-9.1c-3.5-6.7,0.7-9.3,4-11.3
				c1.6-1,2.9-1.8,3.3-2.9c1.2-3.5-2.9-8.4-3-8.7l-0.4,0.3c0,0,4.1,5,3,8.1c-0.3,1-1.6,1.7-3.1,2.6c-3.3,2-7.8,4.8-4.1,12
				c1.6,3.2,2,6.1,1.2,8.7c-1.2,3.6-4.5,5.3-4.5,5.3L63.8,286.3z"/>
		</g>
		<path fill="#F2F2F2" d="M63.7,243.6c-0.2-0.7-0.3-2.5-1-2.1c0.3-2.5,1.8-5.2,5.4-5.5c5.3-0.5,7.5,5.2,6.2,9.4
			c-0.5,1.4-1.6,4.3-4.3,4c-0.2,0-0.4-0.1-0.7-0.1c-0.2-0.3-1.3-0.1-1.7-0.5C65.8,247,64.1,245.2,63.7,243.6z"/>
		<path fill="#F2F2F2" d="M63,244.7c-0.3-0.8-0.4-2-0.3-3.2c0.7-0.4,1.7-0.7,1.6,0.1c-0.5,3.1,1.7,5.2,3,5.9
			c0.5,0.3,1.7,1.4,1.9,1.7C66.7,248.8,63.9,247.1,63,244.7z"/>
		<polygon fill="#F2F2F2" points="71.9,248 73.2,249.9 70.9,251 71.2,248.1 		"/>
	</g>
	<g>
		<g>
			<path fill="#FFFFFF" d="M21.4,310.4c-0.2-0.1-5.3-2.7-7.2-8.5c-1.3-4.1-0.7-8.7,1.9-13.7c5.2-10.1-1-14-6-17.1
				c-2.3-1.5-4.4-2.7-5-4.4c-1.8-5.2,4.3-12.8,4.6-13.1l0.6,0.5c-0.1,0.1-6.1,7.5-4.5,12.3c0.5,1.4,2.4,2.6,4.6,4
				c5,3.1,11.8,7.3,6.3,18.1c-2.5,4.8-3.1,9.2-1.8,13.1c1.8,5.5,6.7,8,6.8,8.1L21.4,310.4z"/>
		</g>
		<path fill="#426AAC" d="M21.5,246c0.2-1.1,0.4-3.8,1.5-3.2c-0.5-3.8-2.7-7.9-8.1-8.4c-8-0.7-11.4,7.9-9.3,14.2
			c0.7,2.1,2.5,6.5,6.6,6c0.3,0,0.7-0.1,1-0.2c0.3-0.5,2-0.2,2.6-0.8C18.5,251.1,21,248.4,21.5,246z"/>
		<path fill="#426AAC" d="M22.6,247.6c0.5-1.3,0.6-3,0.4-4.8c-1.1-0.7-2.6-1-2.4,0.2c0.7,4.7-2.6,7.9-4.6,8.9
			c-0.7,0.4-2.5,2.1-2.9,2.6C17,253.7,21.3,251.2,22.6,247.6z"/>
		<polygon fill="#426AAC" points="9.2,252.5 7.2,255.5 10.7,257.1 10.3,252.6 		"/>
	</g>
	<g>
		<g>
			<path fill="#FFFFFF" d="M116.2,326.6c0.2-0.1,4.1-2.1,5.6-6.6c1-3.2,0.5-6.8-1.4-10.7c-4.1-7.9,0.8-10.9,4.7-13.3
				c1.8-1.1,3.4-2.1,3.9-3.4c1.4-4.1-3.4-9.9-3.6-10.2l-0.5,0.4c0,0.1,4.8,5.8,3.5,9.6c-0.4,1.1-1.9,2-3.6,3.1
				c-3.9,2.4-9.2,5.7-4.9,14.1c1.9,3.7,2.4,7.2,1.4,10.2c-1.4,4.3-5.3,6.3-5.3,6.3L116.2,326.6z"/>
		</g>
		<path fill="#426AAC" d="M116.1,276.4c-0.2-0.9-0.3-3-1.2-2.5c0.4-2.9,2.1-6.1,6.3-6.5c6.2-0.6,8.9,6.1,7.3,11.1
			c-0.5,1.6-1.9,5-5.1,4.7c-0.3,0-0.5-0.1-0.8-0.1c-0.3-0.4-1.6-0.1-2-0.6C118.5,280.4,116.5,278.2,116.1,276.4z"/>
		<path fill="#426AAC" d="M115.3,277.7c-0.4-1-0.5-2.3-0.3-3.8c0.8-0.5,2-0.8,1.9,0.1c-0.5,3.6,2,6.2,3.6,7c0.6,0.3,2,1.6,2.2,2
			C119.6,282.4,116.3,280.4,115.3,277.7z"/>
		<polygon fill="#426AAC" points="125.7,281.5 127.3,283.8 124.5,285.1 124.9,281.6 		"/>
	</g>
	<g>
		<g>
			<path fill="#FFFFFF" d="M189.9,300c0.2-0.1,5.9-3,8-9.5c1.5-4.6,0.8-9.7-2.1-15.3c-5.8-11.3,1.1-15.6,6.7-19
				c2.6-1.6,4.9-3,5.5-4.9c2-5.8-4.8-14.2-5.1-14.6l-0.7,0.6c0.1,0.1,6.9,8.4,5,13.7c-0.6,1.6-2.7,2.9-5.2,4.5
				c-5.6,3.4-13.2,8.1-7,20.2c2.7,5.3,3.4,10.3,2,14.6c-2,6.1-7.5,9-7.6,9L189.9,300z"/>
		</g>
		<path fill="#426AAC" d="M189.8,228.1c-0.3-1.3-0.5-4.2-1.7-3.5c0.5-4.2,3-8.8,9-9.3c8.9-0.8,12.7,8.8,10.4,15.8
			c-0.8,2.4-2.7,7.2-7.3,6.7c-0.4,0-0.7-0.1-1.1-0.2c-0.4-0.5-2.2-0.2-2.9-0.9C193.2,233.8,190.4,230.7,189.8,228.1z"/>
		<path fill="#426AAC" d="M188.6,229.9c-0.5-1.4-0.7-3.3-0.5-5.4c1.2-0.7,2.9-1.1,2.7,0.2c-0.8,5.2,2.9,8.8,5.1,10
			c0.8,0.4,2.8,2.3,3.2,2.9C194.8,236.7,190.1,233.9,188.6,229.9z"/>
		<polygon fill="#426AAC" points="203.6,235.3 205.8,238.7 201.9,240.5 202.4,235.5 		"/>
	</g>
</g>
</svg>
