<?xml version="1.0" encoding="utf-8"?>
<!-- Generator: Adobe Illustrator 19.0.0, SVG Export Plug-In . SVG Version: 6.00 Build 0)  -->
<!DOCTYPE svg PUBLIC "-//W3C//DTD SVG 1.1//EN" "http://www.w3.org/Graphics/SVG/1.1/DTD/svg11.dtd">
<svg version="1.1" id="Layer_1" xmlns="http://www.w3.org/2000/svg" xmlns:xlink="http://www.w3.org/1999/xlink" x="0px" y="0px"
	 viewBox="-319 209.1 319.2 142.9" style="enable-background:new -319 209.1 319.2 142.9;" xml:space="preserve">
<style type="text/css">
	.st0{fill:#DE0029;}
	.st1{fill:#03447F;}
	.st2{fill:none;}
	.st3{fill:#84003C;}
	.st4{fill:#070707;}
	.st5{fill:#595F84;}
	.st6{opacity:0.1;fill:#070707;enable-background:new    ;}
	.st7{fill:#FFFFFF;}
	.st8{fill:none;stroke:#FFFFFF;stroke-miterlimit:10;}
	.st9{fill:#A70043;}
	.st10{opacity:0.61;fill:#848484;enable-background:new    ;}
	.st11{fill:#EEBC00;}
	.st12{fill-rule:evenodd;clip-rule:evenodd;fill:#231F20;}
	.st13{fill-rule:evenodd;clip-rule:evenodd;fill:#DDB308;}
	.st14{fill-rule:evenodd;clip-rule:evenodd;fill:#00539E;}
	.st15{fill-rule:evenodd;clip-rule:evenodd;fill:#A1224B;}
	.st16{fill-rule:evenodd;clip-rule:evenodd;fill:#FFFFFF;}
	.st17{fill-rule:evenodd;clip-rule:evenodd;fill:#E03A3E;}
	.st18{fill-rule:evenodd;clip-rule:evenodd;fill:#FFDE1B;}
</style>
<path class="st0" d="M-18.8,316.3c0,0,10.4,5.6,12.5,8.9c2,3.4,5.1,7.5-3.2,11.1s-30,4-36.7,3.1s-99.3-14-154.8-32.5
	c-55.5-18.5-113.8-41.5-113.8-41.5l7.7-2.9l1.2-6.3l14.1-41.9c0,0,11-1.8,13.9-1.4c0,0,5.7,0.2,10.3,4.8
	c4.6,4.6,13.9,46.2,13.9,46.2s205.4,30.3,222.6,39.8C-14,313.1-19.5,314.5-18.8,316.3z"/>
<path class="st1" d="M-196.6,272.4c-32.7-5.2-57.2-8.8-57.2-8.8s-9.3-41.6-13.8-46.2c-4.6-4.5-10.3-4.7-10.3-4.7
	c-2.8-0.4-14,1.4-14,1.4l-14.1,41.9l-1.2,6.3l-7.7,2.9c0,0,58.1,23,113.6,41.5C-190.3,288.9-193.8,277.3-196.6,272.4z"/>
<path class="st2" d="M-267.1,214.7c0.3,0.4-3.5,11.1-3.5,11.1c-0.4,1.9-4-0.8-4-0.8l-0.7,0.3l4.7,2.5l-2.5,15.3l-5.1-1l-2.3,16.8
	l-27.3-3c0,0,11.2-45.9,11.6-45.7c0.3,0.3,19-2.2,19-2.2S-268.1,212.9-267.1,214.7z"/>
<path class="st3" d="M-278.2,242.2l5.1,1l2.5-15.2l-4.7-2.7l0.7-0.3c0,0,3.6,2.6,4,0.8c0,0,1.9-5.3,2.8-8.5
	c-4.6-4.5-10.1-4.6-10.1-4.6c-2.8-0.4-14,1.4-14,1.4l-14.1,41.9l-0.1,0.3l25.1,2.6L-278.2,242.2z"/>
<rect x="-177.9" y="288.3" transform="matrix(0.1841 -0.9829 0.9829 0.1841 -428.9442 65.647)" class="st4" width="5.8" height="5.8"/>
<rect x="-160.3" y="289.5" transform="matrix(0.1841 -0.9829 0.9829 0.1841 -417.5687 83.6612)" class="st4" width="3.9" height="7.8"/>
<rect x="-142.7" y="293.3" transform="matrix(0.1841 -0.9829 0.9829 0.1841 -406.4197 103.762)" class="st4" width="3.9" height="6.8"/>
<rect x="-92.8" y="301.8" transform="matrix(0.1841 -0.9829 0.9829 0.1841 -374.2195 160.5684)" class="st4" width="4.9" height="7.8"/>
<rect x="-75.1" y="305.5" transform="matrix(0.1841 -0.9829 0.9829 0.1841 -362.9406 180.5995)" class="st4" width="4.9" height="6.8"/>
<path class="st5" d="M-33.6,309.8c0,0,0.8,2.7,0.5,3.1c-0.3,0.3-1.4,1.7-1.4,1.7l8.7,1.7l7,0.1c-0.2-1,1.5-2.4-1-3.9l-6.1-1.2
	L-33.6,309.8z"/>
<path class="st6" d="M-46.1,339.3c6.7,0.9,28.4,0.6,36.7-3.1c8.3-3.6,5.2-7.8,3.2-11.1c-0.2-0.4-0.6-0.9-1.1-1.3
	c-19,8.7-64.3,13.4-172.4-10.7C-124.6,328.2-52.1,338.6-46.1,339.3z"/>
<path class="st7" d="M-79.1,337.6c-0.3,0.2-5.9,5-77.7-15.8l-18.5-8.6l17.8-2l6.5,0.2l5.2-11.2c0,0,12.3-5.1,30.7-1.8
	s17.8,3.3,18,3.9c0.2,0.6,16.4,24.6,16.7,25.1s1.7,1.1,3,1.3C-75.9,328.8-75.4,335-79.1,337.6z"/>
<path class="st8" d="M-61.3,322.2"/>
<polygon class="st7" points="-57.2,346.8 -65.2,346 -60.6,321.4 -49.8,323.4 "/>
<ellipse transform="matrix(-0.9557 -0.2942 0.2942 -0.9557 -203.3529 639.8447)" class="st7" cx="-53.5" cy="335.2" rx="5.8" ry="12.5"/>
<polyline class="st9" points="-57.6,322.2 -64.1,320 -67.6,319.3 -89.3,318.7 -91.7,324.4 -90.5,336.1 -64.9,345.9 "/>
<path d="M-79.6,338c3.7-2.6,3.1-8.8,1.7-9c-1.5-0.1-2.6-0.8-3-1.3s-16.7-24.6-16.7-25.1c-0.2-0.6,0.4-0.6-18-3.9
	c-18.4-3.2-30.7,1.9-30.7,1.9l-5.2,11.2l-0.8,1.8l-1.8,4.4l-4,4l0.7,0.3C-85.6,342.9-79.9,338.3-79.6,338z"/>
<path class="st10" d="M-31.2,304.2c-17-9.4-220.3-40-222.3-40.3l0,0c0,0,24.3,3.5,57.1,8.7c0.3,0.6,0.6,1.3,1,2
	c58.6,10.1,142.1,24.1,175.8,37.8C-22.7,310.2-19.6,310.6-31.2,304.2z"/>
<path class="st10" d="M-267.7,217.5c-2-2-4.3-3.2-6.2-3.9c4.4,8.1,10.9,23.7,17.3,50.9c0,0,25.8,3.9,61,9.9
	c-0.3-0.8-0.6-1.4-0.9-1.9c-32.7-5.2-57.1-8.7-57.1-8.7l0,0l-0.2-0.1C-253.7,263.8-263.1,222.1-267.7,217.5z"/>
<path class="st11" d="M-271.6,220.6c0,0-0.1,0-0.2,0l-19.4-3.7c-0.1,0-0.2,0-0.2,0l0,0c0,0,0.1,0,0.2,0l19.4,3.6
	C-271.7,220.6-271.6,220.6-271.6,220.6L-271.6,220.6z"/>
<polygon class="st11" points="-270.6,225.8 -270.6,225.8 -292.8,221.6 -292.8,221.6 -292.8,221.6 -292.8,221.6 "/>
<polygon class="st11" points="-272.9,231.3 -272.9,231.3 -295.2,227.2 -295.2,227.2 -295.2,227.2 -295.2,227.2 "/>
<path class="st11" d="M-273.4,236.6c0,0.1-0.2,0.5-0.3,0.4l-18.8-3.5c-0.1,0-0.2-0.4-0.1-0.5l0,0c0-0.1,0.2-0.5,0.3-0.4l18.8,3.5
	C-273.5,236.1-273.4,236.5-273.4,236.6L-273.4,236.6z"/>
<path class="st11" d="M-274.5,241.9c0,0-0.1,0-0.2,0l-18.8-3.5c-0.1,0-0.2,0-0.2,0l0,0c0.2-1,0.1,0,0.2,0l18.8,3.5
	C-274.6,241.9-274.3,241-274.5,241.9C-274.5,241.9-274.3,241-274.5,241.9z"/>
<path class="st11" d="M-279.2,245c0,0-0.1,0-0.2,0l-14.9-2.8c-0.1,0-0.2,0-0.2,0l0,0c0,0,0.1,0,0.2,0l14.9,2.8
	C-279.3,245-279.2,245-279.2,245L-279.2,245z"/>
<path class="st11" d="M-280,249.8c0,0-0.1,0-0.2,0l-14.9-2.8c-0.1,0-0.2,0-0.2,0l0,0c0,0,0.1,0,0.2,0l14.9,2.8
	C-280.1,249.8-280,249.8-280,249.8L-280,249.8z"/>
<path class="st11" d="M-280.9,254.5c0,0.1-0.3,1-0.4,0.9l-21.6-4.1c-0.1,0-0.1-0.9-0.1-1l0,0c0-0.1,0.3-1,0.4-0.9l21.6,4.1
	C-280.9,253.6-280.9,254.4-280.9,254.5L-280.9,254.5z"/>
<g>
	<path class="st12" d="M-189.4,282.8c-1.3,0.4-2.4,0.4-3.5,0.1c-1.1-0.3-2-1-2.8-2l-0.2-0.3l-0.3,0.1c-1.4,0.4-2.4,0.3-3.9-0.2
		c-0.5-0.2-1-0.4-1.5-0.7l-0.3-0.2l-0.3,0.2c-0.2,0.1-0.3,0.2-0.4,0.3c-0.1,0.1-0.3,0.2-0.4,0.3l-0.3,0.2l0.1,0.3
		c0.5,1.4,0.5,2.8,0.2,3.9c-0.6,2.1-2.4,3.7-3.6,4.3l-0.4,0.2l0.2,0.4c0.1,0.2,0.3,0.7,0.5,1c0,0-0.1,0.1-0.1,0.1l0,0
		c-0.1,0.2-0.1,0.4-0.2,0.6c-0.7,2.2-0.6,4.2,0.3,5.9c1,2.1,3,3.7,5.6,4.7c0.5,0.8,1,1.5,1,1.6l0.2,0.3l0.4-0.1c0,0,0.9-0.3,1.7-0.7
		c2.8,0.7,5.3,0.4,7.3-0.8c1.7-1,2.9-2.6,3.5-4.8c0.1-0.2,0.1-0.4,0.2-0.6l0,0l0,0c0,0,0-0.1,0-0.1c0.3-0.2,0.8-0.4,1-0.6l0.4-0.2
		l-0.2-0.4c-0.6-1.2-1.2-3.5-0.6-5.6c0.3-1.1,1-2.3,2.3-3.2l0.3-0.2l-0.1-0.3c-0.1-0.2-0.1-0.4-0.2-0.5c-0.1-0.1-0.1-0.2-0.2-0.4
		l-0.1-0.4l-0.4,0c-0.6,0-1.1,0-1.6-0.2c-1.5-0.4-2.4-0.9-3.3-2l-0.2-0.3L-189.4,282.8L-189.4,282.8z"/>
	<path class="st13" d="M-199.1,303.6c0,0-0.6-0.8-1.1-1.7c-4.5-1.6-7.5-5.3-5.6-10.6c0.1-0.1,0-0.1,0.1-0.4
		c-0.2-0.4-0.5-0.9-0.6-1.2c2.2-1.2,5.2-4.5,3.7-8.9c0.3-0.2,0.4-0.3,0.8-0.6c0.5,0.3,1,0.6,1.6,0.8c1.5,0.5,2.6,0.6,4.1,0.2
		c0.8,1,1.8,1.8,3.1,2.2c1.3,0.4,2.5,0.3,3.8-0.1c1,1.2,2,1.7,3.5,2.2c0.6,0.2,1.2,0.2,1.8,0.2c0.1,0.4,0.2,0.6,0.3,0.9
		c-3.7,2.7-3,7.2-1.9,9.4c-0.3,0.2-0.9,0.5-1.2,0.7c0,0.3-0.1,0.2-0.1,0.4c-1.3,5.5-5.9,6.9-10.5,5.8
		C-198.1,303.2-199.1,303.6-199.1,303.6L-199.1,303.6z"/>
	<path class="st12" d="M-204.8,291.2L-204.8,291.2l-0.2,0.2l-0.1,0.1c-0.7,2.1-0.7,3.9,0,5.5c0.9,1.8,2.7,3.3,5.4,4.2c0,0,0,0,0,0
		c0.8,0.2,1.6,0.5,2.2,0.7c2.7,0.7,5.1,0.5,6.8-0.5c1.5-0.9,2.5-2.4,3.1-4.6c0,0,0-0.2,0-0.2l0-0.2l-0.1,0L-204.8,291.2
		L-204.8,291.2z"/>
	<path class="st14" d="M-204.8,291.4c0,0.1,0,0.1,0,0.1s-0.1,0.1-0.1,0.1c-0.1,0.2-0.1,0.3-0.2,0.5c-0.5,1.8-0.5,3.4,0.2,4.9
		c0.2,0.3,0.4,0.7,0.6,1l1.8-5.9C-203.9,291.7-204.8,291.4-204.8,291.4L-204.8,291.4z"/>
	<path class="st14" d="M-187.6,296.8l0-0.1c0,0,0-0.1,0-0.1c0,0-0.9-0.3-2.3-0.7l-1.8,5.9c0.4-0.1,0.7-0.3,1-0.5
		c1.3-0.8,2.3-2.1,2.9-3.9C-187.7,297.2-187.7,297-187.6,296.8L-187.6,296.8z"/>
	<path class="st15" d="M-200,292.8c-0.9-0.3-1.8-0.5-2.5-0.8l-1.8,5.9c0.5,0.7,1.3,1.4,2.2,1.9L-200,292.8L-200,292.8z"/>
	<path class="st15" d="M-192.4,295.1l-2.1,7.1c1.1,0,2-0.1,2.9-0.4l1.8-5.9C-190.6,295.7-191.5,295.4-192.4,295.1L-192.4,295.1z"/>
	<path class="st14" d="M-199.7,296.9c0.3-0.9,1-1.5,1.8-1.7l0.5-1.6c-0.9-0.3-1.7-0.5-2.5-0.8l-2.1,7.1c0.7,0.4,1.5,0.8,2.4,1.1
		l0.5-1.8C-199.7,298.7-200,297.8-199.7,296.9L-199.7,296.9z"/>
	<path class="st14" d="M-194.9,294.4l-0.5,1.6c0.6,0.6,0.8,1.5,0.5,2.4c-0.3,0.9-1,1.5-1.8,1.7l-0.5,1.8c0.9,0.2,1.8,0.4,2.6,0.4
		l2.1-7.1C-193.2,294.9-194.1,294.6-194.9,294.4L-194.9,294.4z"/>
	<path class="st15" d="M-195.4,295.9l0.5-1.6c-0.8-0.3-1.7-0.5-2.5-0.8l-0.5,1.6c0.4-0.1,0.9-0.1,1.4,0
		C-196.1,295.3-195.7,295.6-195.4,295.9L-195.4,295.9z"/>
	<path class="st15" d="M-199.2,299.3l-0.5,1.8c0,0,0.1,0,0.1,0l0,0c0.8,0.2,1.6,0.5,2.2,0.7c0,0,0.1,0,0.1,0l0.5-1.8
		c-0.4,0.1-0.9,0.1-1.4,0C-198.5,299.9-198.9,299.6-199.2,299.3L-199.2,299.3z"/>
	<path class="st13" d="M-198.7,297.7c-0.3-0.5-0.1-1.3,0.2-1.8c0.1-0.1,0.2-0.3,0.3-0.4c-0.6,0.3-1.2,0.8-1.4,1.5
		c-0.1,0.3-0.1,0.6-0.1,0.9c0,0,0.1,0,0.1,0C-199.2,298-198.9,297.9-198.7,297.7L-198.7,297.7z"/>
	<path class="st13" d="M-196.4,298.6c-0.2,0.4-0.7,0.5-1.1,0.6c-0.5,0.1-1.1,0-1.6-0.1c0.3,0.4,0.7,0.6,1.2,0.8
		c0.9,0.3,1.8,0,2.4-0.6C-195.5,298.7-196,298.5-196.4,298.6L-196.4,298.6z"/>
	<path class="st13" d="M-199.3,298.9c0.5,0.1,1.2,0.2,1.7,0.1c0.6-0.2,1.2-0.4,1.1-0.9c0-0.3-0.3-0.7-0.8-0.5
		c-0.1,0.3-0.7,0.5-1,0.4c-0.2-0.1-0.3-0.2-0.4-0.3c-0.3,0.3-0.6,0.3-1,0.2c0,0,0,0-0.1,0C-199.6,298.3-199.5,298.7-199.3,298.9
		L-199.3,298.9z"/>
	<path class="st13" d="M-196.9,296.2c0.4,0,0.9,0.3,1.2,0.7c0.3,0.3,0.6,0.8,0.7,1.3c0.3-1.2-0.4-2.5-1.6-2.8
		C-197,295.5-197.1,295.9-196.9,296.2L-196.9,296.2z"/>
	<path class="st13" d="M-197.4,297.6c-0.4-0.5-0.2-1,0.1-1.3c0.1-0.1,0.1-0.1,0.2-0.1c-0.2-0.3-0.1-0.7,0.2-0.9
		c-0.4-0.1-0.8-0.1-1.2,0.1c-0.2,0.4-0.5,0.8-0.6,1.2c-0.2,0.6-0.1,1.2,0.4,1.4C-197.9,298-197.5,297.9-197.4,297.6L-197.4,297.6z"
		/>
	<path class="st13" d="M-195.1,298.5c0-0.5-0.3-1.2-0.7-1.6c-0.5-0.5-1-0.8-1.4-0.5c-0.3,0.2-0.4,0.7-0.1,1.1c0.6-0.2,0.9,0.3,1,0.6
		c0,0.1,0,0.2,0,0.3c0.3,0,0.8,0.2,0.8,0.7C-195.3,299-195.2,298.7-195.1,298.5L-195.1,298.5z"/>
	<path class="st12" d="M-197.4,290.6l-1.6-0.5l-0.7,2.2l0.5,0.1c0,0,0.3-0.9,0.3-0.9c0,0,0.7,0.2,0.7,0.2l0.1-0.5
		c0,0-0.6-0.2-0.7-0.2c0,0,0.1-0.3,0.1-0.4c0,0,1.1,0.3,1.1,0.3L-197.4,290.6L-197.4,290.6L-197.4,290.6z"/>
	<path class="st12" d="M-196.8,292c-0.2,0.7,0,1.3,0.6,1.5c0.4,0.1,0.7,0,1-0.3l0,0l-0.3-0.4l0,0c-0.2,0.2-0.3,0.2-0.5,0.1
		c-0.3-0.1-0.4-0.4-0.3-0.8c0.1-0.4,0.4-0.6,0.7-0.5c0.2,0.1,0.3,0.2,0.3,0.3l0,0l0.5-0.1l0,0c-0.1-0.4-0.3-0.6-0.7-0.7
		C-196.1,290.9-196.6,291.3-196.8,292L-196.8,292z"/>
	<path class="st12" d="M-192.3,293.2c0.2-0.1,0.3-0.2,0.3-0.4c0.1-0.4-0.1-0.7-0.5-0.8l-1-0.3l0,0l-0.7,2.2l1,0.3
		c0.5,0.2,0.9,0,1-0.5C-192.1,293.6-192.1,293.4-192.3,293.2L-192.3,293.2z M-193.2,292.4c0,0,0.5,0.2,0.5,0.2
		c0.2,0.1,0.2,0.2,0.2,0.3c0,0.1-0.1,0.2-0.3,0.1c0,0-0.5-0.2-0.6-0.2C-193.3,292.7-193.2,292.4-193.2,292.4L-193.2,292.4z
		 M-193,293.9c0,0-0.5-0.2-0.6-0.2c0,0,0.1-0.5,0.2-0.5c0,0,0.6,0.2,0.6,0.2c0.2,0.1,0.3,0.2,0.2,0.3
		C-192.7,293.8-192.8,293.9-193,293.9L-193,293.9z"/>
	<path class="st12" d="M-189.5,284.2c-1.3,0.3-2.5,0.3-3.7,0c-1.2-0.4-2.2-1-3.1-2l0,0l0,0c-1.5,0.3-2.6,0.1-4-0.3
		c-0.4-0.1-0.7-0.3-1-0.4l-0.1-0.1l0,0.2c0.7,3-0.6,5.4-1.8,6.8l-0.1,0.1l16.4,4.9l0-0.1c-0.2-1.9,0-4.5,2.3-6.6l0.1-0.1l-0.2,0
		c-0.4,0-0.8-0.1-1.1-0.2C-187.4,285.8-188.4,285.3-189.5,284.2L-189.5,284.2L-189.5,284.2L-189.5,284.2z"/>
	<path class="st16" d="M-198.2,282.4c-0.7,0-1.5-0.2-2.3-0.5c-0.3-0.1-0.6-0.2-0.9-0.4c0.2,0.8,0.2,1.6,0.2,2.3
		c0.9,0.3,2.4,0.7,2.4,0.7C-198.8,284.5-198.5,283.4-198.2,282.4L-198.2,282.4z"/>
	<path class="st16" d="M-193.9,286.1l0.5-1.8c-0.9-0.3-1.6-0.7-2.3-1.3c-0.3,1-0.7,2.3-0.7,2.3
		C-196.4,285.3-195.2,285.7-193.9,286.1L-193.9,286.1z"/>
	<path class="st16" d="M-201.9,286.3c-0.4,0.8-0.8,1.4-1.2,1.9c0.1,0,1.2,0.4,3,0.9c0.3-0.9,0.6-2.1,0.6-2.1
		C-199.6,287-201,286.6-201.9,286.3L-201.9,286.3z"/>
	<path class="st16" d="M-197.8,289.9c0.8,0.2,1.7,0.5,2.5,0.8l0.6-2.1c-1.3-0.4-2.5-0.7-2.5-0.8C-197.1,287.8-197.5,289-197.8,289.9
		L-197.8,289.9z"/>
	<path class="st17" d="M-196.4,285.3c0,0,0.4-1.4,0.7-2.3c-0.3-0.2-0.5-0.4-0.7-0.7c-0.6,0.1-1.2,0.2-1.8,0.1
		c-0.3,1-0.6,2.1-0.6,2.1c0,0-1.5-0.5-2.4-0.7c0,0.5-0.1,1-0.3,1.5c-0.1,0.4-0.2,0.7-0.4,1c0.9,0.3,2.3,0.7,2.4,0.7
		c0,0-0.4,1.2-0.6,2.1c0.7,0.2,1.6,0.5,2.5,0.7c0.3-0.9,0.6-2.1,0.6-2.1c0,0,1.2,0.4,2.5,0.8l0.7-2.5
		C-195.2,285.7-196.4,285.3-196.4,285.3L-196.4,285.3z"/>
	<path class="st18" d="M-189.5,284.3C-189.5,284.3-189.5,284.3-189.5,284.3l-2.2,7.4c0.3,0.1,0.6,0.2,0.9,0.3l2.1-6.9
		C-189.1,284.8-189.3,284.6-189.5,284.3L-189.5,284.3z"/>
	<path class="st18" d="M-191.5,284.6l-2,6.6c0.3,0.1,0.6,0.2,0.9,0.3l2.1-6.9C-190.9,284.6-191.2,284.6-191.5,284.6L-191.5,284.6z"
		/>
	<path class="st18" d="M-193.2,284.3l-1.9,6.4c0.3,0.1,0.5,0.2,0.8,0.2l1.9-6.4C-192.7,284.4-192.9,284.4-193.2,284.3L-193.2,284.3z
		"/>
	<path class="st18" d="M-188,285.5l-2,6.7c0.3,0.1,0.6,0.2,0.9,0.3l2-6.6C-187.5,285.8-187.7,285.7-188,285.5L-188,285.5z"/>
	<path class="st18" d="M-186.9,289.7c0.3-1.1,0.9-2.2,2-3.2c-0.3,0-0.7-0.1-1-0.2c-0.1,0-0.2-0.1-0.4-0.1l-2,6.5
		c0.7,0.2,1.1,0.3,1.1,0.3C-187.3,292.1-187.3,290.9-186.9,289.7L-186.9,289.7z"/>
	<path class="st17" d="M-187.2,285.9l-2,6.6c0.3,0.1,0.6,0.2,0.9,0.3l2-6.5C-186.6,286.1-186.9,286-187.2,285.9L-187.2,285.9z"/>
	<path class="st17" d="M-192.4,284.5l-1.9,6.4c0.3,0.1,0.6,0.2,0.9,0.3l2-6.6C-191.8,284.6-192.1,284.5-192.4,284.5L-192.4,284.5z"
		/>
	<path class="st17" d="M-190.5,284.5l-2.1,6.9c0.3,0.1,0.6,0.2,0.9,0.3l2.2-7.4C-189.9,284.4-190.2,284.5-190.5,284.5L-190.5,284.5z
		"/>
	<path class="st17" d="M-188.8,285l-2.1,6.9c0.3,0.1,0.6,0.2,0.9,0.3l2-6.7C-188.3,285.4-188.5,285.2-188.8,285L-188.8,285z"/>
</g>
</svg>
