<?xml version="1.0" encoding="utf-8"?>
<!-- Generator: Adobe Illustrator 18.1.1, SVG Export Plug-In . SVG Version: 6.00 Build 0)  -->
<svg version="1.1" id="Layer_1" xmlns="http://www.w3.org/2000/svg" xmlns:xlink="http://www.w3.org/1999/xlink" x="0px" y="0px"
	 viewBox="0 194.3 612 283.7" enable-background="new 0 194.3 612 283.7" xml:space="preserve">
<g>
	<path fill="#DE0029" d="M579.4,406.1c0,0,20.4,10.8,24.3,17.4s9.9,14.6-6.3,21.7c-16.1,7.1-58.7,7.8-71.8,6
		c-13.1-1.8-194.3-27.4-303-63.6S-0.1,306.3-0.1,306.3l15.1-5.8l2.3-12.3l27.6-81.9c0,0,21.6-3.5,27.2-2.7c0,0,11.2,0.4,20.2,9.3
		c9,8.9,27.2,90.4,27.2,90.4s402,59.3,435.7,78C588.8,399.9,578,402.6,579.4,406.1z"/>
	<path fill="#03447F" d="M231.5,320.3c-64.1-10-111.9-17.1-111.9-17.1s-18.1-81.4-27.1-90.3c-9-8.9-20.1-9.3-20.1-9.3
		c-5.6-0.8-27.5,2.6-27.5,2.6l-27.6,81.9L15,300.5l-15.1,5.8c0,0,113.7,45,222.5,81.2C243.9,352.6,237,329.8,231.5,320.3z"/>
	<path fill="none" d="M93.6,207.3c0.5,0.8-6.8,21.7-6.8,21.7c-0.7,3.7-7.7-1.4-7.7-1.4l-1.4,0.7l9.1,5L81.7,263l-10-1.9l-4.6,33
		l-53.3-5.8c0,0,22-89.7,22.7-89.3s37.2-4.6,37.2-4.6S91.5,203.8,93.6,207.3z"/>
	<path fill="#84003C" d="M71.8,261.1l10,1.9l5-29.6l-9.1-5.3l1.4-0.5c0,0,7,5.2,7.7,1.4c0,0,3.5-10.3,5.5-16.6
		c-8.9-8.7-19.8-8.9-19.8-8.9c-5.6-0.8-27.5,2.7-27.5,2.7l-27.6,82l-0.1,0.5l49.2,5.2L71.8,261.1z"/>
	
		<rect x="268.1" y="351.4" transform="matrix(0.1841 -0.9829 0.9829 0.1841 -127.5664 560.525)" fill="#070707" width="11.4" height="11.4"/>
	
		<rect x="302.2" y="353.6" transform="matrix(0.1841 -0.9829 0.9829 0.1841 -105.3268 595.5014)" fill="#070707" width="7.6" height="15.2"/>
	
		<rect x="336.9" y="361" transform="matrix(0.1841 -0.9829 0.9829 0.1841 -83.4397 634.8514)" fill="#070707" width="7.6" height="13.3"/>
	
		<rect x="434.4" y="377.5" transform="matrix(0.1841 -0.9829 0.9829 0.1841 -20.264 745.929)" fill="#070707" width="9.5" height="15.2"/>
	
		<rect x="469.1" y="385" transform="matrix(0.1841 -0.9829 0.9829 0.1841 1.6231 785.279)" fill="#070707" width="9.5" height="13.3"/>
	<path fill="#595F84" d="M550.3,393.4c0,0,1.6,5.4,0.9,6.1s-2.7,3.3-2.7,3.3l16.9,3.2l13.7,0.2c-0.4-2,2.9-4.8-2-7.7l-12-2.3
		L550.3,393.4z"/>
	<path opacity="0.1" fill="#070707" d="M525.7,451.2c13.1,1.8,55.6,1.1,71.8-6c16.1-7.1,10.2-15.2,6.3-21.7c-0.5-0.8-1.2-1.6-2-2.5
		c-37.1,17-125.7,26.3-337.4-20.9C372.2,429.5,514.2,449.6,525.7,451.2z"/>
	<path fill="#FFFFFF" d="M461.5,447.7c-0.6,0.4-11.6,9.7-152-30.8l-36.3-16.9l34.8-4.1l12.8,0.3l10-21.8c0,0,24-9.9,60-3.5
		s34.9,6.5,35.2,7.6c0.3,1.1,32,48.3,32.8,49.2s3.2,2.1,6,2.4C467.5,430.6,468.6,442.6,461.5,447.7z"/>
	<path fill="none" stroke="#FFFFFF" stroke-miterlimit="10" d="M496.1,417.6"/>
	<polygon fill="#FFFFFF" points="504.3,465.9 488.4,464.1 497.7,414.5 518.8,418.5 	"/>
	
		<ellipse transform="matrix(0.9557 0.2942 -0.2942 0.9557 153.0153 -130.8459)" fill="#FFFFFF" cx="511.4" cy="443.2" rx="11.5" ry="24.3"/>
	<polyline fill="#A70043" points="503.3,417.5 490.7,413.2 483.9,412 441.3,410.8 436.7,422 438.9,444.8 489.1,464 	"/>
	<path d="M460.3,448.6c7.1-5.1,6.1-17.2,3.3-17.4c-2.8-0.3-5.1-1.5-6-2.4s-32.5-48.1-32.8-49.2c-0.3-1.1,0.7-1.2-35.2-7.6
		c-35.9-6.5-60,3.5-60,3.5l-10,21.8l-1.5,3.4l-3.3,8.7l-7.8,7.9l1.3,0.6C448.7,458.2,459.7,449,460.3,448.6z"/>
	<path opacity="0.61" fill="#848484" d="M554.5,382.3C521.2,363.8,124,304,119,303.5v0c0,0,48.1,6.9,112.2,16.9
		c0.7,1.1,1.5,2.4,2.1,3.9c114.8,19.8,277.8,47.1,343.8,74C571.3,394.2,577.3,395,554.5,382.3z"/>
	<path opacity="0.61" fill="#848484" d="M92.3,212.9c-4-4-8.5-6.2-12.2-7.5c8.6,15.7,21.4,46.1,34,99.5c0,0,50.6,7.7,119.3,19.5
		c-0.7-1.5-1.6-2.7-2.3-3.9c-64.1-10-112.2-16.9-112.2-16.9v0c0,0,0.2-0.2,0.2-0.2S101.3,221.8,92.3,212.9z"/>
	<path fill="#EEBC00" d="M84.8,218.9c0,0-0.2,0-0.5-0.1l-38-7.1c-0.2,0-0.5-0.1-0.5-0.1l0,0c0,0,0.2,0,0.5,0.1l38,7.1
		C84.6,218.9,84.8,218.9,84.8,218.9L84.8,218.9z"/>
	<polygon fill="#EEBC00" points="86.7,229 86.7,229 43.1,220.8 43.1,220.8 43.1,220.8 43.1,220.8 86.7,229 86.7,229 	"/>
	<polygon fill="#EEBC00" points="82,239.7 82,239.7 38.4,231.6 38.4,231.6 38.4,231.6 38.4,231.6 82,239.7 82,239.7 	"/>
	<path fill="#EEBC00" d="M81,250.2c-0.1,0.3-0.4,0.9-0.6,0.9l-36.7-6.9c-0.2,0-0.3-0.7-0.3-1l0,0c0.1-0.3,0.4-0.9,0.6-0.9l36.7,6.9
		C81,249.2,81.1,249.9,81,250.2L81,250.2z"/>
	<path fill="#EEBC00" d="M79.1,260.5c0,0-0.2,0-0.4-0.1l-36.7-6.9c-0.2,0-0.4-0.1-0.4-0.1l0,0c0.4-1.9,0.2,0,0.4,0.1l36.7,6.9
		C78.9,260.5,79.4,258.6,79.1,260.5C79.1,260.5,79.4,258.6,79.1,260.5z"/>
	<path fill="#EEBC00" d="M69.9,266.6c0,0-0.2,0-0.3-0.1L40.4,261c-0.2,0-0.3-0.1-0.3-0.1l0,0c0,0,0.2,0,0.3,0.1l29.1,5.5
		C69.7,266.5,69.9,266.6,69.9,266.6L69.9,266.6z"/>
	<path fill="#EEBC00" d="M68.1,275.9c0,0-0.2,0-0.3-0.1l-29.1-5.5c-0.2,0-0.3-0.1-0.3-0.1l0,0c0,0,0.2,0,0.3,0.1l29.1,5.5
		C68,275.9,68.1,275.9,68.1,275.9L68.1,275.9z"/>
	<path fill="#EEBC00" d="M66.4,285.3c-0.1,0.3-0.6,1.8-0.9,1.8l-42.3-7.9c-0.3-0.1-0.2-1.7-0.2-2l0,0c0.1-0.3,0.6-1.8,0.9-1.8
		l42.3,7.9C66.5,283.4,66.4,285,66.4,285.3L66.4,285.3z"/>
	<g id="QxYNqN.tif">
		
			<image overflow="visible" width="977" height="989" id="Layer_0_2_" xlink:href="C7B6B574C6F3660A.png"  transform="matrix(2.816323e-02 5.276189e-03 -5.276189e-03 2.816323e-02 176.7146 323.2512)">
		</image>
	</g>
</g>
</svg>
