<?xml version="1.0" encoding="utf-8"?>
<!-- Generator: Adobe Illustrator 18.1.1, SVG Export Plug-In . SVG Version: 6.00 Build 0)  -->
<svg version="1.1" id="Layer_1" xmlns="http://www.w3.org/2000/svg" xmlns:xlink="http://www.w3.org/1999/xlink" x="0px" y="0px"
	 viewBox="87 5 412 782" enable-background="new 87 5 412 782" xml:space="preserve">
<g>
	<rect x="295.2" y="397.3" fill="#808080" width="25.4" height="385.6"/>
	<rect x="94" y="9.9" width="399.9" height="399.9"/>
	<rect x="111.9" y="28" fill="#B32028" width="363" height="364.2"/>
	<rect x="279.7" y="397.3" width="25.4" height="385.6"/>
	<path fill="#322D97" d="M111.3,393l366-366H110.7C110.7,27,113.1,391.2,111.3,393z"/>
	<g>
		<defs>
			<rect id="SVGID_1_" x="111.4" y="28.9" width="363" height="364.2"/>
		</defs>
		<clipPath id="SVGID_2_">
			<use xlink:href="#SVGID_1_"  overflow="visible"/>
		</clipPath>
		<g clip-path="url(#SVGID_2_)">
			<g>
				<path fill="#34388B" d="M498.5,245c-1.1-1-2.2-2-3.4-2.9c0.9-0.5,1.7-1.2,2.5-2.3l0.1-0.1l0.1-0.1c1.4-2.4,2.7-5.1,3.1-8
					c0.5-3,0-6.3-2.4-9.9l-0.3-0.5l-9.4-6.9c0,0,0.4,8.8,0.4,9.6c-0.3,0.7-0.9,1.6-1.6,2c-1-0.2-2.7-0.5-3.6-0.6
					c-1.5-1.2-2.1-2.6-1.9-4.5c0.1-0.4,0.1-0.8,0.3-1.3c0.7-2.5,3.1-4.7,6-5.7c2.1-0.7,6.2-1.3,10.8,2.1c3.5,2.7,5.4,7.6,5.1,13.6
					c0,0.8-0.1,1.6-0.2,2.5C503.4,236.5,501.3,240.9,498.5,245z M460,220.6l-0.5,1.8c-2.1-0.7-4.2-1.3-6.3-1.8
					c0.1-0.1,0.2-0.2,0.4-0.2c0.6-0.4,1.1-0.8,1.6-1.2c0.8-0.7,1.5-1.4,2.1-2.2c0.3-0.5,0.6-0.9,0.9-1.4c0.3-0.5,0.5-0.9,0.6-1.4
					l0.3-1.1l0,0c0.6,0.1,1.3,0.2,1.9,0.3l0.9-5.7c1,2.2,2,4.7,2.3,5.2c0,0.2,0,0.3,0,0.5C462.2,215.3,460.8,217.6,460,220.6z
					 M424.9,215.3c0.1-3.1-0.5-5.7-1.8-8.3c0-0.3,0.1-0.3,0.1-0.5c0.4-0.4,2.1-2.5,3.7-4.3l-0.9,5.8c0.6,0.1,1.2,0.2,1.8,0.3
					c0,0,0.1,0,0.1,0l-0.1,1.2c0,0.5,0.1,1,0.2,1.6c0.1,0.5,0.3,1.1,0.5,1.6c0.4,1,0.9,1.8,1.4,2.7c0.4,0.7,0.9,1.3,1.4,2
					c-2.2-0.1-4.4-0.1-6.6-0.1L424.9,215.3z M428.8,200.1c0,0.1-0.1,0.3-0.1,0.4l-0.2,0.9c-0.2,0-0.4-0.1-0.6-0.1
					C428.1,200.9,428.5,200.5,428.8,200.1z M461.4,206.4c-0.2,0-0.4,0-0.6-0.1l0.1-0.9c0-0.1,0-0.2,0-0.3
					C461,205.4,461.2,205.9,461.4,206.4z M400.6,212.7c-0.9-0.1-2.6-0.3-3.7-0.5c-0.6-0.6-0.9-1.6-0.9-2.4c0.3-0.8,3.2-9.1,3.2-9.1
					l-11,3.8l-0.4,0.4c-3.3,2.8-4.7,5.8-5.2,8.8c-0.4,2.9,0,5.9,0.6,8.6l0,0.2l0.1,0.2c0.4,1.3,1.1,2.2,1.7,2.9
					c-1.4,0.6-2.7,1.2-4.1,1.8c-1.4-4.8-2.2-9.5-1.5-14.3c0.1-0.8,0.3-1.6,0.5-2.4c1.5-5.7,4.7-9.9,8.9-11.5
					c5.3-1.9,9.1-0.1,10.9,1.2c2.5,1.8,4.2,4.6,4.1,7.2c0,0.5,0,0.9-0.1,1.3C403.5,210.8,402.5,212,400.6,212.7z M506.6,253.2
					c2.6-3.7,5.1-7.5,6.9-11.2c2.6-5.5,3.7-11.9,3.2-18.7l0-0.2l-0.1-0.2c-1.9-8.4-5.8-14.4-11.6-17.6c-6.3-3.6-14.5-3.8-24.4-0.7
					c-5.7,1.8-8.6,2.2-14.1,0.9l-5.8-1.4c0-0.1,0-0.2,0-0.3c-0.2-1.1-0.5-2-1-3c-0.3-0.6-0.6-1.2-0.9-1.8c-0.6-1.1-1.3-2-2.1-3
					c0,0-0.1-0.1-0.1-0.1l0.9-0.2c0.9-0.3,1.6-0.5,2.4-1c2.4-1.4,4.4-3.7,5.4-6.4c0.5-1.2,0.6-1.9,0.8-2.9l-3-7.7l-1.7-3.6
					c-0.4-0.4-0.9-0.7-1.3-1c-1-0.6-2.1-1-3.3-1.1l4.2-7.9l-1.6-2.8c-0.7-1.1-1.4-2.1-2.3-3.1c-1.4-1.3-2.9-2.3-4.7-2.8c0,0,0,0,0,0
					c0.8-0.5,1.4-1.4,1.5-2.4c0.3-1.9-1-3.7-2.9-4c-1.9-0.3-3.7,1-4,2.9c-0.2,1.5,0.5,2.9,1.8,3.6l-0.9,8.3
					c-11.2,2-15.2,9.1-18.6,18.7l10.6-5.3c-0.6,0.9-1.1,1.9-1.6,2.9l-0.6,1.7c-0.6,2-0.9,4-1,6c-0.1,0.9-0.1,1.7-0.1,2.6l1,0.8
					l0.2,0.4c-0.1,0-0.1,0.1-0.2,0.1c-1.1,0.6-2.2,1.2-3.2,2c-0.6,0.4-1.1,0.9-1.7,1.4c-0.8,0.8-1.6,1.6-2.3,2.5
					c-0.4,0.5-0.7,1-1,1.6c0,0.1-0.1,0.2-0.1,0.3l-6-0.3c-5.6-0.3-8.3-1.6-13.3-5c-8.5-5.9-16.4-8.1-23.5-6.5
					c-6.4,1.4-11.9,6-16.2,13.5l-0.1,0.2l-0.1,0.2c-2.5,6.2-3.3,12.7-2.5,18.9c0.5,4,1.8,8.4,3.2,12.7c-26.3,16-45.5,43-50.4,75.8
					c-8.8,58.6,31.6,113.2,90.2,122c58.6,8.8,113.2-31.6,122-90.2C537.5,307.7,527.1,276.2,506.6,253.2z"/>
			</g>
			<g>
				<path fill="#FFFFFF" d="M492.7,252.5c1-1.2,2-2.4,3-3.7c-1.1-1.1-2.3-2.1-3.5-3.1c-0.5,1.4-1.3,2.8-2.5,4.1
					C490.7,250.7,491.7,251.6,492.7,252.5z"/>
			</g>
			<g>
				<path fill="#FFFFFF" d="M386.7,230c-1.4,0.6-2.8,1.2-4.2,1.9c0.6,1.5,1.2,2.9,1.8,4.4c1.2-0.6,2.4-1.1,3.7-1.7
					C387.2,233.1,386.8,231.5,386.7,230z"/>
			</g>
			<g>
				<path fill="#FFFFFF" d="M454.3,228.2C454.3,228.2,454.3,228.2,454.3,228.2c0.7,0.8,1.5,1.6,2.3,2.4c0.3,0.4,0.6,0.7,0.9,1.1
					c9.3,3.1,17.9,7.5,25.7,13c0.1-0.7,0.1-1.4,0.1-2c0,0,0,0,0,0c-3.4-0.7-7.1-2.6-9.7-5.3c-1.7-1.7-2.8-3.6-3.4-5.7
					c-0.2-0.1-0.5-0.2-0.7-0.3c-0.2,0.1-0.4,0.3-0.6,0.4l-0.8,0.7l-5.4,0.3c0,0,0.4-2,0.8-4c-3.2-1.3-6.6-2.3-10-3.3
					c0.1,0.3,0.2,0.6,0.3,0.9C453.9,227.1,454.1,227.6,454.3,228.2z"/>
			</g>
			<g>
				<path fill="#FFFFFF" d="M428.2,224.2c0.4-0.5,0.7-1,1.1-1.5c0.2-0.2,0.3-0.5,0.5-0.7c-3.6-0.1-7.1,0-10.5,0.2
					c-0.2,2.1-0.4,4-0.4,4l-5.1-1.9l-0.6-0.9c-0.1-0.2-0.3-0.4-0.4-0.6c-0.3,0-0.5,0.1-0.8,0.1c-1.1,1.8-2.8,3.3-4.9,4.4
					c-3.3,1.8-7.4,2.6-10.8,2.2c0,0,0,0,0,0c-0.2,0.6-0.4,1.2-0.5,2c9-3,18.6-4.7,28.4-4.9C425.4,225.8,426.8,225,428.2,224.2
					L428.2,224.2z"/>
			</g>
			<g>
				<path fill="#FFFFFF" d="M503.7,257.1c-0.8,1.1-1.6,2.1-2.4,3.1c0,0-0.3,0.3-0.5,0.7c17.8,20.8,26.8,48.9,22.4,78.2
					c-8,53.4-57.8,90.2-111.3,82.2c-53.4-8-90.3-57.8-82.2-111.3c4.4-29.2,21.2-53.4,44.4-68.1l-0.3-0.8c-0.5-1.2-0.9-2.5-1.4-3.7
					c-24.7,15.3-42.7,41-47.4,71.9c-8.4,56,30.2,108.2,86.2,116.6c56,8.4,108.2-30.2,116.6-86.2C532.6,308.8,522.8,279,503.7,257.1z
					"/>
			</g>
			<g>
				<path fill="#FFFFFF" d="M395.1,262.6l0.8-5.7c-0.9,0.4-1.8,0.8-2.7,1.3c0.5,1.5,1,3.1,1.4,4.6
					C394.7,262.8,394.9,262.7,395.1,262.6z"/>
			</g>
			<g>
				<path fill="#FFFFFF" d="M474.7,274.6c0.1,0.1,0.3,0.3,0.4,0.4c0.8-1.3,1.7-2.7,2.7-4c-0.7-0.7-1.5-1.4-2.2-2L474.7,274.6z"/>
			</g>
			<g>
				<path fill="#FFFFFF" d="M488.2,291.5c0,0-0.4-0.2-0.9-0.4c7.1,12.9,10.2,28.1,7.8,43.8c-5.7,37.9-41,64-78.9,58.3
					c-37.9-5.7-64-41-58.3-78.9c2.4-15.7,9.8-29.3,20.4-39.6c-0.6,0.1-1.1,0.1-1.1,0.1l2.3-5.1c0.5-1.1,0.8-2.2,1.1-3.3
					c-14.3,11.3-24.4,27.8-27.3,47.2c-6.1,40.5,21.8,78.2,62.3,84.3c40.5,6.1,78.3-21.8,84.3-62.3c2.9-19.4-2-38.2-12.3-53.2
					c-0.1,1.1-0.1,2.3,0,3.5L488.2,291.5z"/>
			</g>
			<g>
				<path fill="#FFFFFF" d="M362.5,314.9c-1.5,10-0.6,19.8,2.2,28.9l8.4-55.8C367.7,295.8,364,304.9,362.5,314.9z"/>
			</g>
			<g>
				<path fill="#FFFFFF" d="M490.5,334.1c1.5-10,0.6-19.8-2.2-28.9l-8.4,55.8C485.2,353.3,489,344.1,490.5,334.1z"/>
			</g>
			<g>
				<path fill="#FFFFFF" d="M469.9,306.7c-0.4,2.6-0.6,4.1-0.6,4.1c-1.5,9.9-4,16.7-11.2,21.6l-7.9,52.4c5.1-2,9.9-4.6,14.3-7.8
					l9.5-63.3l-2.9-4.8C470.6,308.1,470.2,307.4,469.9,306.7z"/>
			</g>
			<g>
				<path fill="#FFFFFF" d="M389.7,298.8c0,0,0.2-1.5,0.6-4.1c-0.5,0.6-1.2,1.2-1.8,1.8l-4.1,3.7l-9.5,63.3
					c3.3,4.3,7.1,8.2,11.3,11.6L394,323C388.5,316.6,388.1,310,389.7,298.8z"/>
			</g>
			<g>
				<path fill="#FFFFFF" d="M430.3,342.6l-7,46.5c4.5,0.2,8.9,0,13.2-0.7l7.5-50.3c-0.9,0.3-1.7,0.5-2.6,0.7
					C437.6,340,433.8,341.1,430.3,342.6z"/>
			</g>
			<g>
				<path fill="#FFFFFF" d="M405.7,332.4l-7.5,50.3c3.9,1.9,8.1,3.4,12.4,4.5l7-46.6c-2.9-2.5-6.2-4.6-9.5-6.7L405.7,332.4z"/>
			</g>
			<g>
				<path fill="#CB262B" d="M383.2,294l0-1.2c0,0,0.4-3.9,0.8-7.4c-1,1.2-2.1,2.4-2.1,2.4l-1.3-6c-0.2-0.9-0.2-1.7-0.2-2.4
					c-2.6,2.7-5.1,5.6-7.2,8.7l-8.4,55.8c2.2,7.1,5.7,13.8,10.1,19.7l9.5-63.3l-0.6,0.5L383.2,294z"/>
			</g>
			<g>
				<path fill="#CB262B" d="M394,323l-7.8,52.2c3.7,2.9,7.7,5.5,11.9,7.6l7.5-50.3l-2.9-1.9C399,327.9,396.1,325.4,394,323z"/>
			</g>
			<g>
				<path fill="#CB262B" d="M444.1,338.2l-7.5,50.3c4.7-0.7,9.3-2,13.6-3.7l7.9-52.4c-2.4,1.6-5.5,3.1-9.2,4.3
					C447.3,337.2,445.7,337.7,444.1,338.2z"/>
			</g>
			<g>
				<path fill="#CB262B" d="M479.9,302.4c0,0-0.7-1.4-1.3-2.9c-0.7,3.5-1.4,7.4-1.4,7.4l-0.4,1.2l-2.6,6.2l-0.4-0.6l-9.5,63.3
					c6-4.3,11.2-9.7,15.5-15.8l8.4-55.8c-1.1-3.6-2.6-7.2-4.3-10.5c-0.2,0.7-0.5,1.5-0.9,2.3L479.9,302.4z"/>
			</g>
			<g>
				<path fill="#CB262B" d="M423.2,346.6l-1.8-2.1c-1.2-1.4-2.5-2.6-3.9-3.8l-7,46.6c2.1,0.5,4.2,1,6.3,1.3c2.2,0.3,4.3,0.5,6.4,0.6
					l7-46.5c-1.5,0.6-2.9,1.3-4.3,2.2C425.9,344.8,423.2,346.6,423.2,346.6z"/>
			</g>
			<g>
				<path fill="#FEE730" d="M457.2,243.3c-0.8,0.2-1.5,0.5-2.3,0.7c-5.2,1.3-10.8,2-16.1,1.1c-1.2-0.2-2.3-0.4-3.4-0.7
					c-0.7-0.2-1.4-0.4-2.1-0.6c-2.4-0.8-4.7-1.8-6.9-3c-1.6-0.9-3.1-1.8-4.6-2.8l-21-3.2l1.3,4.2l-9.1,60.3
					c-2.1,14.7-0.5,20,11.9,28.6c6.5,4.5,14,8.4,19.2,14.5l0.6-0.4c7.2-4.3,15.6-5.7,23.5-8.4c12.8-4.3,16.3-10.3,18.3-23.4
					l9.1-60.3l2.5-3.7L457.2,243.3z"/>
			</g>
			<g>
				<path fill="#FEE730" d="M513.5,223.5c-4-17.5-16.6-20.9-31.9-16c-6.2,2-9.8,2.4-15.9,0.9l1.6,3.7l-0.2,2.4
					c-2.4,2.2-3.5,4.3-4.2,6.9l4.9,1.2l-1.4,6.8c0,0,0,0,0.3,0c1.8-1.5,3.5-2.1,5.1-2.3l0.7,0.8c0,0,0,0,0.2,0.3
					c-0.2,6.8,7.9,11.5,12.6,11.5l0.9,2.3c0.2,2.3-0.2,4.6-1.1,7.1c3.6-1.8,4.3-5.2,5-8.2c1.4-1.2,3.4-1,4.8-3
					c2.6-4.6,4.5-9.2,0.8-14.7l-3.7-2.7l0.2,3.7c-0.4,1.7-2,4.2-4.4,4.8l-5.4-0.9c-4.1-2.8-4.2-6.5-3.3-9.7
					c2-6.9,12.6-12.1,21.7-5.2c4.6,3.5,6.6,9.7,6.4,16.2c-0.6,13.4-11.2,23.5-19.3,33.2c-9.3,11.1-17.9,22.6-16.7,35.2l-0.1,0.7
					l0.3,3.6c0.4,1.8,1.1,3.4,2.1,5l0.1-0.2l0.3-0.9l2.4-12.4l1.7-0.4l1.2,0.4c0,0,0,0,0.1,0.2l0.7,1.6c1.8-3.1,0.1-6.5,1.1-9.7
					c0,0,0,0,0.3-0.1c0.9-0.1,1.7,0.1,2.8,0.6c-1.3-10.5,6.1-17.1,13-26.1c4.7-6.1,10.2-13,13.3-19.5
					C513,235.6,514,229.7,513.5,223.5z"/>
			</g>
			<g>
				<path fill="#FEE730" d="M421.8,215.3c0.1-2.6-0.3-5-2-7.8l0.5-2.4l2.7-3.1c-6.2-0.3-9.5-1.8-14.9-5.5c-13.2-9.2-26.2-9.6-35.1,6
					c-2.3,5.7-3,11.7-2.3,17.2c0.9,7.1,4.2,15.4,6.9,22.6c3.9,10.6,9.1,19.1,4.7,28.8c1.2-0.1,2,0,2.9,0.3c0.2,0.2,0.2,0.2,0.2,0.2
					c0,3.4-2.6,6.1-1.8,9.5l1.2-1.3c0.2-0.2,0.2-0.2,0.2-0.2l1.2,0l1.5,0.9l-1.3,12.6l0,0.9l0,0.3c1.4-1.3,2.6-2.6,3.5-4.2l1.3-3.4
					l0.1-0.7c4.8-11.8,0-25.3-5.6-38.6c-4.9-11.7-12.1-24.4-8.7-37.4c1.7-6.3,5.4-11.6,10.8-13.6c10.8-3.9,19.4,4.1,19.3,11.4
					c0,3.3-1.3,6.8-6,8.3l-5.4-0.7c-2.1-1.3-2.9-4.2-2.8-5.9l1.2-3.5l-4.3,1.5c-5.1,4.3-4.6,9.2-3.5,14.3c0.8,2.3,2.7,2.7,3.7,4.3
					c-0.2,3.1-0.6,6.4,2.3,9.3c-0.1-2.7,0.2-5,1.1-7.1l1.5-1.9c4.5,1.3,13.6-0.7,15.4-7.3c0.2-0.2,0.2-0.2,0.2-0.2l0.9-0.6
					c1.5,0.6,3,1.7,4.2,3.7c0.3,0.1,0.3,0.1,0.3,0.1l0.7-6.9L421.8,215.3z"/>
			</g>
			<g>
				<path fill="#62BDF0" d="M425.4,332.1c-2.7-4.1-8.8-7.1-14.5-10.8c-9.9-6.3-11.3-9.4-9.6-20.5l8.1-54.1l56.3,8.4l-8.1,54.1
					c-1.7,11.1-3.8,13.6-15.2,16.8C435.9,327.8,429.1,329,425.4,332.1z"/>
			</g>
			<g>
				<defs>
					<path id="SVGID_3_" d="M424.8,319.3c-1,0.7-4,2.4-4,2.4l1.3,0.2l2.6-1l1.4-0.1l-0.2,1.8l1.3,0.2l0.4-1.8l1.4,0.3l1.2,1.7
						l1.2,0.3l-0.3-1.1l-0.8-1l-0.3-1.1l-0.3-1.1c0,0,2.4-19.9,5.3-33.9l-4.7-1.1C428.9,294.1,425.9,316.9,424.8,319.3"/>
				</defs>
				<clipPath id="SVGID_4_">
					<use xlink:href="#SVGID_3_"  overflow="visible"/>
				</clipPath>
				<g clip-path="url(#SVGID_4_)">
					
						<rect x="350.4" y="236.1" transform="matrix(0.1484 -0.9889 0.9889 0.1484 24.4017 617.7936)" fill="#B38F39" width="40.9" height="117.2"/>
				</g>
				<g clip-path="url(#SVGID_4_)">
					
						<rect x="411.1" y="301.1" transform="matrix(0.1484 -0.9889 0.9889 0.1484 67.0499 685.5248)" fill="#B38F39" width="40.9" height="5.5"/>
				</g>
				<g clip-path="url(#SVGID_4_)">
					
						<rect x="471.8" y="254.4" transform="matrix(0.1484 -0.9889 0.9889 0.1484 109.6973 753.2549)" fill="#82612E" width="40.9" height="117.2"/>
				</g>
			</g>
			<g>
				<defs>
					<path id="SVGID_5_" d="M445.9,321.7c0.7,0.1,1.4,0.2,2,0.3c0.5-0.2,0.9-0.4,1.3-0.7c0.2-1.6-1.3-5.2,0.5-4.7
						c-1.7-1.9-2.6-2.3-2.7-3.7c1.8,0.4,4.6,0.9,5.3-1.6c1-3.9-3.5-8.8-1-12c0.4-0.6,1-0.6,1.6-0.2c1.2,1.9-0.4,3.6,0.6,5.4
						c0.2,0.4,0.6,0.6,0.9,0.9c-0.1-1.6,0.3-2.3,0.2-4c-1-0.6-0.6-2.4-1.4-3.2c-0.6-0.5-1.7-0.7-2.3-0.2c-4,3.5,2,9.1,0.2,13
						c-0.7,1.5-2.7,0.7-3.3,0.2c-2.4-2-3-5.3-1.8-7.7c0.4-0.2,0.4-0.2,0.4-0.2c0.4,0.1,0.8,0.1,1.1,0.2l0-1.4
						c0.2,0.1,0.4,0.3,0.7,0.4c0.1-0.5,0.1-1,0.2-1.5c0.2-0.2,0.5-0.4,0.7-0.6c0.2-0.7,0.3-1.5,0.5-2.2c0.1-0.1,0.3-0.2,0.4-0.4
						c-0.3-2.4-1.2-4.7-2.7-6.9c-0.1-0.4-0.3-0.8-0.4-1.2c-0.7,0.3-1.5,0.5-2.2,0.8c-0.4,0.2-2.2,0.1-3.7,0.8
						c-0.3,0.4,0.3,0.8,0.5,1.8c0.2,0,0.5-0.2,0.7-0.3c0.9-0.3,2,0,1.9,1.3c-0.1,1.4-1.8,1-2.7,0.5c-0.1,0.4-0.1,0.8-0.2,1.2
						c0.3,0.3,1.4,0,1.8,0c-0.8,0.4-2.2,1.3-3.1,1.6c-0.3,0.1-0.7,0.1-0.8-0.1c-0.5-0.8-0.6-1.7-0.8-2.6c0.1-0.2,0.2-0.3,0.4-0.5
						c0.1-0.1,0.2-0.2,0.3-0.4c0-0.3,0-0.6,0-0.9c-0.3-0.4-0.7-0.8-1-1.2c-0.7,0.3-1.4,0.6-2.1,0.9c-0.1,0.2-0.3,0.4-0.4,0.7
						c0.2,0.8,0.5,1.6,0.7,2.4c1.3,1.1,0.7,2.3,1.2,3.7c-1,0.6-2,0.7-2.9,0.5c-0.1-0.6-0.2-1.4-0.4-2c-0.4-0.1-0.4-0.1-0.4-0.1
						c-0.5-0.3-0.9-0.1-1.2,0.3c-0.1,0.4,0.2,0.9,0.1,1.3c0.1,0.7-0.3,1.4-0.2,2.1c0.5,0.1,0.9,0.2,1.5,0.1c1-0.3,2.7,0.5,3.5,0.9
						c0-0.6,0-1.1,0.7-0.7c0.4,2.8,2.9,5.1,3.1,5.8c0,0.2-0.3,0.7-0.2,1c-1.4,0.1-1.9-0.1-3.2,0.3l-2,1.6c-0.2,2.1-0.3,3.9-1.4,5.7
						c-0.6,0-0.9-0.3-1.4-0.5c-0.4-0.1-0.8-0.1-1.2,0.1c-0.6,0.3-0.7,1.2-0.2,1.4c0.2,0.3,0.3,0.3,0.4,0.6c1.7-0.2,2.1-0.2,2.8,0.2
						c0.3,0.2,0.8,0.3,1.4,0.4c0.5-0.9,0-1.8,0.5-2.7c0.2-0.5,1.9-0.4,2-0.9c-1.3-0.5-0.7-1.4-0.5-1.9c0.7-1.6,2.5-0.7,3.5-0.6
						c0.2,0.6,0.2,1.2,0.6,1.7c2.3,3.6,2,1.2,4.6,3.7c-0.2,0.5-0.3,1-0.5,1.5c-0.4-0.1-0.8-0.3-1.3-0.2c-0.4,0.1-0.7,0.4-1,0.6
						c0.1,0.4,0.1,0.9,0.2,1.3c0.5-0.1,0.8-0.1,1.1,0.2C445.8,321.5,445.8,321.6,445.9,321.7"/>
				</defs>
				<clipPath id="SVGID_6_">
					<use xlink:href="#SVGID_5_"  overflow="visible"/>
				</clipPath>
				<g clip-path="url(#SVGID_6_)">
					<polygon fill="#F3CB31" points="-1006.4,-1477.2 -1030.8,-1457.1 426.8,313.4 451.3,293.3 					"/>
				</g>
				<g clip-path="url(#SVGID_6_)">
					<defs>
						
							<rect id="SVGID_7_" x="427.3" y="294" transform="matrix(-0.1484 0.9889 -0.9889 -0.1484 810.8715 -87.5857)" width="31.6" height="22.7"/>
					</defs>
					<clipPath id="SVGID_8_">
						<use xlink:href="#SVGID_7_"  overflow="visible"/>
					</clipPath>
					<g clip-path="url(#SVGID_8_)">
						<g>
							<defs>
								<polygon id="SVGID_9_" points="416.4,303.3 440.6,332.7 470.4,308.1 446.3,278.7 								"/>
							</defs>
							<clipPath id="SVGID_10_">
								<use xlink:href="#SVGID_9_"  overflow="visible"/>
							</clipPath>
							<g clip-path="url(#SVGID_10_)">
								<defs>
									
										<rect id="SVGID_11_" x="405.2" y="267.5" transform="matrix(-0.6356 -0.772 0.772 -0.6356 489.2384 842.3246)" width="76.5" height="76.5"/>
								</defs>
								<clipPath id="SVGID_12_">
									<use xlink:href="#SVGID_11_"  overflow="visible"/>
								</clipPath>
								<g transform="matrix(1 0 0 1 0 -1.525879e-05)" clip-path="url(#SVGID_12_)">
									
										<image overflow="visible" width="449" height="449" xlink:href="4D5D8AA70E79BF9B.jpg"  transform="matrix(0.24 0 0 0.24 389.5997 251.8912)">
									</image>
								</g>
							</g>
						</g>
					</g>
				</g>
			</g>
			<g>
				<defs>
					<path id="SVGID_13_" d="M408.7,316.2c-0.7-0.1-1.4-0.2-2.1-0.3c-0.4-0.3-0.7-0.7-1.1-1c0.2-1.6,2.8-4.6,0.9-4.6
						c2.2-1.3,3.2-1.4,3.7-2.7c-1.8-0.2-4.7-0.5-4.6-3.1c0.2-4,5.9-7.3,4.5-11.2c-0.3-0.7-0.8-0.9-1.5-0.6c-1.7,1.5-0.6,3.5-2.1,5
						c-0.3,0.3-0.8,0.4-1.2,0.6c0.6-1.5,0.4-2.3,1-3.8c1.1-0.3,1.3-2.1,2.3-2.6c0.7-0.4,1.8-0.2,2.2,0.5c2.8,4.5-4.6,8.1-4,12.4
						c0.2,1.6,2.3,1.4,3.1,1.1c2.9-1.2,4.4-4.2,4-6.9c-0.3-0.3-0.3-0.3-0.3-0.3c-0.4-0.1-0.8-0.1-1.1-0.2l0.4-1.3
						c-0.2,0.1-0.5,0.1-0.7,0.2c0.1-0.5,0.1-1,0.2-1.5c-0.2-0.3-0.3-0.5-0.5-0.8c0.1-0.7,0.1-1.5,0.2-2.2c-0.1-0.2-0.2-0.3-0.3-0.5
						c1-2.2,2.6-4.1,4.6-5.8c0.2-0.3,0.5-0.7,0.7-1c0.6,0.5,1.3,1,1.9,1.4c0.3,0.3,2.1,0.7,3.3,1.8c0.2,0.5-0.5,0.7-1,1.6
						c-0.2-0.1-0.4-0.4-0.6-0.5c-0.8-0.6-1.9-0.6-2.2,0.7c-0.3,1.4,1.5,1.5,2.4,1.3c-0.1,0.4-0.1,0.8-0.2,1.2
						c-0.4,0.2-1.3-0.4-1.7-0.5c0.6,0.6,1.8,1.9,2.5,2.4c0.2,0.2,0.6,0.3,0.9,0.1c0.7-0.6,1-1.5,1.6-2.2c-0.1-0.2-0.1-0.4-0.2-0.5
						c-0.1-0.2-0.2-0.3-0.2-0.5c0.1-0.3,0.2-0.6,0.3-0.9c0.4-0.3,0.8-0.6,1.3-0.8c0.6,0.5,1.2,1,1.7,1.5c0.1,0.2,0.1,0.5,0.2,0.7
						c-0.5,0.7-0.9,1.4-1.4,2.1c-1.6,0.7-1.4,2-2.3,3.2c0.8,0.9,1.8,1.2,2.7,1.3c0.3-0.5,0.6-1.3,0.9-1.8c0.4,0.1,0.4,0.1,0.4,0.1
						c0.5-0.1,0.9,0.2,1.1,0.7c0,0.4-0.4,0.8-0.4,1.2c-0.3,0.7-0.1,1.4-0.4,2.1c-0.5,0-0.9-0.1-1.4-0.4c-0.8-0.5-2.7-0.3-3.6-0.2
						c0.1-0.5,0.3-1.1-0.5-0.9c-1.2,2.5-4.3,4-4.6,4.6c-0.1,0.2,0,0.7-0.1,1c1.2,0.5,1.9,0.4,3,1.2l1.4,2.1
						c-0.5,2.1-0.9,3.8-0.4,5.9c0.5,0.2,1,0,1.5,0c0.4,0,0.8,0.2,1.2,0.5c0.5,0.5,0.3,1.3-0.2,1.4c-0.2,0.2-0.3,0.2-0.6,0.5
						c-1.5-0.7-2-0.8-2.8-0.6c-0.3,0.1-0.9,0.1-1.4-0.1c-0.2-1,0.5-1.7,0.3-2.7c0-0.6-1.7-0.9-1.7-1.4c1.4-0.1,1.1-1.2,1-1.6
						c-0.2-1.7-2.1-1.4-3.2-1.6c-0.3,0.5-0.6,1.1-1,1.4c-3.2,2.7-2.3,0.6-5.5,2.2c0,0.5,0,1.1,0,1.6c0.4,0.1,0.9,0,1.3,0.2
						c0.4,0.2,0.5,0.6,0.8,0.8c-0.2,0.4-0.4,0.8-0.5,1.2c-0.5-0.3-0.8-0.3-1.1-0.1C409,316,408.8,316.1,408.7,316.2"/>
				</defs>
				<clipPath id="SVGID_14_">
					<use xlink:href="#SVGID_13_"  overflow="visible"/>
				</clipPath>
				<g clip-path="url(#SVGID_14_)">
					<polygon fill="#F3CB31" points="-1014.7,-1460.9 -1040.3,-1439.8 400.6,310.4 426.2,289.3 					"/>
				</g>
				<g clip-path="url(#SVGID_14_)">
					<defs>
						
							<rect id="SVGID_15_" x="400.4" y="290" transform="matrix(-0.1484 0.9889 -0.9889 -0.1484 775.9233 -65.5799)" width="31.6" height="22.7"/>
					</defs>
					<clipPath id="SVGID_16_">
						<use xlink:href="#SVGID_15_"  overflow="visible"/>
					</clipPath>
					<g clip-path="url(#SVGID_16_)">
						<g>
							<defs>
								<polygon id="SVGID_17_" points="389.5,299.3 413.6,328.6 443.5,304.1 419.3,274.7 								"/>
							</defs>
							<clipPath id="SVGID_18_">
								<use xlink:href="#SVGID_17_"  overflow="visible"/>
							</clipPath>
							<g clip-path="url(#SVGID_18_)">
								<defs>
									
										<rect id="SVGID_19_" x="378.2" y="263.4" transform="matrix(-0.6356 -0.772 0.772 -0.6356 448.2813 814.9052)" width="76.5" height="76.5"/>
								</defs>
								<clipPath id="SVGID_20_">
									<use xlink:href="#SVGID_19_"  overflow="visible"/>
								</clipPath>
								<g clip-path="url(#SVGID_20_)">
									
										<image overflow="visible" width="449" height="449" xlink:href="4D5D8AA70E79BF99.jpg"  transform="matrix(0.24 0 0 0.24 362.6508 247.8471)">
									</image>
								</g>
							</g>
						</g>
					</g>
				</g>
			</g>
			<g>
				<defs>
					<path id="SVGID_21_" d="M438.7,243.3c-6.8-0.8-15-5.3-19.9-9.4c6.7,3,13.3,5.8,20.3,6.6c6.9,1.2,14.1,0.6,21.4-0.4
						C454.5,242.7,445.4,244.6,438.7,243.3"/>
				</defs>
				<clipPath id="SVGID_22_">
					<use xlink:href="#SVGID_21_"  overflow="visible"/>
				</clipPath>
				<g clip-path="url(#SVGID_22_)">
					<path fill="#D1D2D3" d="M438.7,243.3c-6.8-0.8-15-5.3-19.9-9.4c6.7,3,13.3,5.8,20.3,6.6c6.9,1.2,14.1,0.6,21.4-0.4
						C454.5,242.7,445.4,244.6,438.7,243.3"/>
				</g>
				<g clip-path="url(#SVGID_22_)">
					<path fill="#D1D2D3" d="M463.5,243.6c-1.6,10.8-11.7,18.3-22.5,16.6c-10.8-1.6-18.3-11.7-16.6-22.5
						c1.6-10.8,11.7-18.3,22.5-16.6C457.7,222.8,465.1,232.8,463.5,243.6"/>
				</g>
				<g clip-path="url(#SVGID_22_)">
					<defs>
						
							<rect id="SVGID_23_" x="435.8" y="219.3" transform="matrix(-0.1484 0.9889 -0.9889 -0.1484 741.9714 -158.2716)" width="6.6" height="42.1"/>
					</defs>
					<clipPath id="SVGID_24_">
						<use xlink:href="#SVGID_23_"  overflow="visible"/>
					</clipPath>
					<g clip-path="url(#SVGID_24_)">
						<g>
							<defs>
								
									<rect id="SVGID_25_" x="418.3" y="237.4" transform="matrix(-0.9889 -0.1484 0.1484 -0.9889 838.1527 543.9178)" width="42.1" height="6.6"/>
							</defs>
							<clipPath id="SVGID_26_">
								<use xlink:href="#SVGID_25_"  overflow="visible"/>
							</clipPath>
							<g clip-path="url(#SVGID_26_)">
								<defs>
									
										<rect id="SVGID_27_" x="418.3" y="237.4" transform="matrix(-0.9889 -0.1484 0.1484 -0.9889 838.1526 543.9178)" width="42.1" height="6.6"/>
								</defs>
								<clipPath id="SVGID_28_">
									<use xlink:href="#SVGID_27_"  overflow="visible"/>
								</clipPath>
								<g clip-path="url(#SVGID_28_)">
									
										<image overflow="visible" width="178" height="54" xlink:href="4D5D8AA70E79BF9F.jpg"  transform="matrix(0.24 0 0 0.24 418.0605 234.2818)">
									</image>
								</g>
							</g>
						</g>
					</g>
				</g>
			</g>
			<g>
				<line fill="#00AAE9" x1="456.6" y1="195.6" x2="456.5" y2="195.6"/>
			</g>
			<g>
				<path fill="#CB262B" d="M450.1,156.3c3.2,0.2,5.8,2.3,7.8,5.7l-8.4,0.2L450.1,156.3"/>
			</g>
			<g>
				<path fill="#CB262B" d="M450.5,150.3c1,0.1,1.6,1,1.4,2c-0.1,1-1,1.6-1.9,1.5c-1-0.1-1.6-1-1.5-2
					C448.7,150.8,449.5,150.1,450.5,150.3"/>
			</g>
			<g>
				<path fill="#CB262B" d="M432,178.7l8.1-4.1l14.8-3.3l2.9-6.2C446.8,162.7,435.8,167.7,432,178.7"/>
			</g>
			<g>
				<defs>
					<path id="SVGID_29_" d="M439.4,238.7c-6.2-1.5-10.3-2.5-18.6-6.3c3.1-4,4.3-4.4,8.8-7c3.6,2.4,6.9,5,11,5.6
						c4.1,0.6,8-0.8,12.1-2.1c3.6,3.8,4.6,4.5,6.3,9.3C449.9,239.3,445.8,239,439.4,238.7"/>
				</defs>
				<clipPath id="SVGID_30_">
					<use xlink:href="#SVGID_29_"  overflow="visible"/>
				</clipPath>
				<g clip-path="url(#SVGID_30_)">
					<path fill="#D1D2D3" d="M439.4,238.7c-6.2-1.5-10.3-2.5-18.6-6.3c3.1-4,4.3-4.4,8.8-7c3.6,2.4,6.9,5,11,5.6
						c4.1,0.6,8-0.8,12.1-2.1c3.6,3.8,4.6,4.5,6.3,9.3C449.9,239.3,445.8,239,439.4,238.7"/>
				</g>
				<g clip-path="url(#SVGID_30_)">
					<path fill="#D1D2D3" d="M460.3,224.2c5,8.7,2.1,19.8-6.5,24.8c-8.7,5-19.8,2.1-24.8-6.5c-5-8.6-2.1-19.7,6.5-24.8
						C444.2,212.6,455.3,215.5,460.3,224.2"/>
				</g>
				<g clip-path="url(#SVGID_30_)">
					<defs>
						
							<rect id="SVGID_31_" x="434.4" y="213.6" transform="matrix(-0.1484 0.9889 -0.9889 -0.1484 735.8918 -167.9106)" width="11.7" height="38.6"/>
					</defs>
					<clipPath id="SVGID_32_">
						<use xlink:href="#SVGID_31_"  overflow="visible"/>
					</clipPath>
					<g clip-path="url(#SVGID_32_)">
						<g>
							<defs>
								<polygon id="SVGID_33_" points="416,228.3 432.7,257 465,238.2 448.3,209.5 								"/>
							</defs>
							<clipPath id="SVGID_34_">
								<use xlink:href="#SVGID_33_"  overflow="visible"/>
							</clipPath>
							<g clip-path="url(#SVGID_34_)">
								<defs>
									
										<rect id="SVGID_35_" x="405.6" y="198.3" transform="matrix(-0.8639 0.5036 -0.5036 -0.8639 938.5378 212.916)" width="69.9" height="69.8"/>
								</defs>
								<clipPath id="SVGID_36_">
									<use xlink:href="#SVGID_35_"  overflow="visible"/>
								</clipPath>
								<g clip-path="url(#SVGID_36_)">
									
										<image overflow="visible" width="399" height="398" xlink:href="4D5D8AA70E79BF98.jpg"  transform="matrix(0.24 0 0 0.24 392.7334 185.4967)">
									</image>
								</g>
							</g>
						</g>
					</g>
				</g>
			</g>
			<g>
				<defs>
					<path id="SVGID_37_" d="M440.7,229.7c-4.1-0.6-8.8-3.9-10.4-5.6c0.3-0.5,1.2-2.2,3.8-4c2.2,1.6,4.8,2.6,7.6,3
						c2.7,0.4,5.5,0.2,8.1-0.7c2,2.5,2.3,4.4,2.5,4.9C450.2,228.6,444.8,230.4,440.7,229.7"/>
				</defs>
				<clipPath id="SVGID_38_">
					<use xlink:href="#SVGID_37_"  overflow="visible"/>
				</clipPath>
				<g clip-path="url(#SVGID_38_)">
					<path fill="#D1D2D3" d="M440.7,229.7c-4.1-0.6-8.8-3.9-10.4-5.6c0.3-0.5,1.2-2.2,3.8-4c2.2,1.6,4.8,2.6,7.6,3
						c2.7,0.4,5.5,0.2,8.1-0.7c2,2.5,2.3,4.4,2.5,4.9C450.2,228.6,444.8,230.4,440.7,229.7"/>
				</g>
				<g clip-path="url(#SVGID_38_)">
					<path fill="#D1D2D3" d="M453,220.5c2.9,5,1.2,11.4-3.8,14.3c-5,2.9-11.4,1.2-14.3-3.8c-2.9-5-1.2-11.4,3.8-14.3
						C443.7,213.9,450.1,215.5,453,220.5"/>
				</g>
				<g clip-path="url(#SVGID_38_)">
					<defs>
						
							<rect id="SVGID_39_" x="437" y="214.4" transform="matrix(-0.1484 0.9889 -0.9889 -0.1484 729.8942 -177.4508)" width="8.6" height="22.2"/>
					</defs>
					<clipPath id="SVGID_40_">
						<use xlink:href="#SVGID_39_"  overflow="visible"/>
					</clipPath>
					<g clip-path="url(#SVGID_40_)">
						<g>
							<defs>
								
									<rect id="SVGID_41_" x="431.3" y="214.5" transform="matrix(-0.5038 -0.8638 0.8638 -0.5038 468.9767 721.1816)" width="20.6" height="22.7"/>
							</defs>
							<clipPath id="SVGID_42_">
								<use xlink:href="#SVGID_41_"  overflow="visible"/>
							</clipPath>
							<g clip-path="url(#SVGID_42_)">
								<defs>
									
										<rect id="SVGID_43_" x="420.2" y="204.5" transform="matrix(-0.8639 0.5036 -0.5036 -0.8639 936.9005 198.6478)" width="42.9" height="42.8"/>
								</defs>
								<clipPath id="SVGID_44_">
									<use xlink:href="#SVGID_43_"  overflow="visible"/>
								</clipPath>
								<g clip-path="url(#SVGID_44_)">
									
										<image overflow="visible" width="245" height="245" xlink:href="4D5D8AA70E79BF96.jpg"  transform="matrix(0.24 0 0 0.24 412.3103 196.6065)">
									</image>
								</g>
							</g>
						</g>
					</g>
				</g>
			</g>
			<g>
				<defs>
					<path id="SVGID_45_" d="M442.7,216.2c-4.1-3-9.2-6.1-13.1-7.1c-0.3,3.7,5,11.6,12.3,12.7c7.3,1,14.7-4.9,15.5-8.6
						C453.3,213.1,447.6,214.6,442.7,216.2"/>
				</defs>
				<clipPath id="SVGID_46_">
					<use xlink:href="#SVGID_45_"  overflow="visible"/>
				</clipPath>
				<g clip-path="url(#SVGID_46_)">
					<path fill="#D1D2D3" d="M442.7,216.2c-4.1-3-9.2-6.1-13.1-7.1c-0.3,3.7,5,11.6,12.3,12.7c7.3,1,14.7-4.9,15.5-8.6
						C453.3,213.1,447.6,214.6,442.7,216.2"/>
				</g>
				<g clip-path="url(#SVGID_46_)">
					<path fill="#D1D2D3" d="M455,224.7c5.2-4,5.3-10.9,0.3-15.5c-5-4.6-13.3-5.1-18.5-1.1c-5.2,4-5.3,10.9-0.3,15.5
						C441.5,228.2,449.8,228.7,455,224.7"/>
				</g>
				<g clip-path="url(#SVGID_46_)">
					<defs>
						
							<rect id="SVGID_47_" x="437.3" y="202.5" transform="matrix(-0.1484 0.9889 -0.9889 -0.1484 722.5425 -189.1275)" width="10.8" height="28"/>
					</defs>
					<clipPath id="SVGID_48_">
						<use xlink:href="#SVGID_47_"  overflow="visible"/>
					</clipPath>
					<g clip-path="url(#SVGID_48_)">
						<g>
							<defs>
								<polygon id="SVGID_49_" points="422.7,215 443.5,233.9 463.3,218.8 442.5,199.9 								"/>
							</defs>
							<clipPath id="SVGID_50_">
								<use xlink:href="#SVGID_49_"  overflow="visible"/>
							</clipPath>
							<g clip-path="url(#SVGID_50_)">
								<defs>
									<polygon id="SVGID_51_" points="402.8,214.5 442.4,250.4 483.1,219.3 443.6,183.4 									"/>
								</defs>
								<clipPath id="SVGID_52_">
									<use xlink:href="#SVGID_51_"  overflow="visible"/>
								</clipPath>
								<g clip-path="url(#SVGID_52_)">
									
										<image overflow="visible" width="335" height="280" xlink:href="4D5D8AA70E79BF97.jpg"  transform="matrix(0.24 0 0 0.24 402.8082 183.3924)">
									</image>
								</g>
							</g>
						</g>
					</g>
				</g>
			</g>
			<g>
				<defs>
					<path id="SVGID_53_" d="M443,214.4c-7.4-6.8-15-7.8-15-7.8l0.5-3.5c0,0,7.6,1.3,16.7-3c7.4,6.8,15,7.8,15,7.8l-0.5,3.5
						C459.7,211.4,452,210.1,443,214.4"/>
				</defs>
				<clipPath id="SVGID_54_">
					<use xlink:href="#SVGID_53_"  overflow="visible"/>
				</clipPath>
				<g clip-path="url(#SVGID_54_)">
					<path fill="#E6E6E7" d="M443,214.4c-7.4-6.8-15-7.8-15-7.8l0.5-3.5c0,0,7.6,1.3,16.7-3c7.4,6.8,15,7.8,15,7.8l-0.5,3.5
						C459.7,211.4,452,210.1,443,214.4"/>
				</g>
				<g clip-path="url(#SVGID_54_)">
					<path fill="#E6E6E7" d="M460.8,200.8c4.4,6.9,2,15.7-5.3,19.7c-7.3,3.9-16.8,1.5-21.2-5.4c-4.4-6.9-2-15.7,5.3-19.6
						C447,191.5,456.4,193.9,460.8,200.8"/>
				</g>
				<g clip-path="url(#SVGID_54_)">
					<defs>
						
							<rect id="SVGID_55_" x="436.8" y="191.2" transform="matrix(-0.1484 0.9889 -0.9889 -0.1484 714.9542 -201.1776)" width="14.5" height="32.1"/>
					</defs>
					<clipPath id="SVGID_56_">
						<use xlink:href="#SVGID_55_"  overflow="visible"/>
					</clipPath>
					<g clip-path="url(#SVGID_56_)">
						<g>
							<defs>
								<polygon id="SVGID_57_" points="421.2,202.5 437.7,228.7 467.5,212.6 451,186.4 								"/>
							</defs>
							<clipPath id="SVGID_58_">
								<use xlink:href="#SVGID_57_"  overflow="visible"/>
							</clipPath>
							<g clip-path="url(#SVGID_58_)">
								<defs>
									<polygon id="SVGID_59_" points="399,196 455.8,165.4 489.7,219.1 432.9,249.7 									"/>
								</defs>
								<clipPath id="SVGID_60_">
									<use xlink:href="#SVGID_59_"  overflow="visible"/>
								</clipPath>
								<g clip-path="url(#SVGID_60_)">
									
										<image overflow="visible" width="379" height="352" xlink:href="4D5D8AA70E79BFA7.jpg"  transform="matrix(0.24 0 0 0.24 398.9947 165.4103)">
									</image>
								</g>
							</g>
						</g>
					</g>
				</g>
			</g>
			<g>
				<defs>
					<path id="SVGID_61_" d="M445.5,198.2c-5.1,2.1-11.1,3.4-15.3,3.2c0.9-4.4,8.7-11.1,16.4-10c7.6,1.2,13.2,9.9,12.7,14.4
						C455.1,204.7,449.7,201.7,445.5,198.2"/>
				</defs>
				<clipPath id="SVGID_62_">
					<use xlink:href="#SVGID_61_"  overflow="visible"/>
				</clipPath>
				<g clip-path="url(#SVGID_62_)">
					<path fill="#D1D2D3" d="M445.5,198.2c-5.1,2.1-11.1,3.4-15.3,3.2c0.9-4.4,8.7-11.1,16.4-10c7.6,1.2,13.2,9.9,12.7,14.4
						C455.1,204.7,449.7,201.7,445.5,198.2"/>
				</g>
				<g clip-path="url(#SVGID_62_)">
					<path fill="#D1D2D3" d="M460.8,191.1c3.9,6.3,1.7,14.4-4.8,18c-6.6,3.6-15,1.4-18.9-4.9c-3.9-6.3-1.7-14.4,4.8-18
						C448.5,182.6,457,184.8,460.8,191.1"/>
				</g>
				<g clip-path="url(#SVGID_62_)">
					<defs>
						
							<rect id="SVGID_63_" x="439.4" y="182.8" transform="matrix(-0.1484 0.9889 -0.9889 -0.1484 706.9976 -213.815)" width="12.3" height="29.4"/>
					</defs>
					<clipPath id="SVGID_64_">
						<use xlink:href="#SVGID_63_"  overflow="visible"/>
					</clipPath>
					<g clip-path="url(#SVGID_64_)">
						<g>
							<defs>
								<polygon id="SVGID_65_" points="425.3,193.4 439.7,217 466.4,202.3 451.9,178.7 								"/>
							</defs>
							<clipPath id="SVGID_66_">
								<use xlink:href="#SVGID_65_"  overflow="visible"/>
							</clipPath>
							<g clip-path="url(#SVGID_66_)">
								<defs>
									<polygon id="SVGID_67_" points="405.6,187.5 456.2,159.5 486,208.2 435.5,236.2 									"/>
								</defs>
								<clipPath id="SVGID_68_">
									<use xlink:href="#SVGID_67_"  overflow="visible"/>
								</clipPath>
								<g clip-path="url(#SVGID_68_)">
									
										<image overflow="visible" width="336" height="320" xlink:href="4D5D8AA70E79BFA9.jpg"  transform="matrix(0.24 0 0 0.24 405.6227 159.5479)">
									</image>
								</g>
							</g>
						</g>
					</g>
				</g>
			</g>
			<g>
				<defs>
					<path id="SVGID_69_" d="M438.7,243.3c-6.8-0.8-15-5.3-19.9-9.4c6.7,3,13.3,5.8,20.3,6.6c6.9,1.2,14.1,0.6,21.4-0.4
						C454.5,242.7,445.4,244.6,438.7,243.3"/>
				</defs>
				<clipPath id="SVGID_70_">
					<use xlink:href="#SVGID_69_"  overflow="visible"/>
				</clipPath>
				<g clip-path="url(#SVGID_70_)">
					<path fill="#D1D2D3" d="M438.7,243.3c-6.8-0.8-15-5.3-19.9-9.4c6.7,3,13.3,5.8,20.3,6.6c6.9,1.2,14.1,0.6,21.4-0.4
						C454.5,242.7,445.4,244.6,438.7,243.3"/>
				</g>
				<g clip-path="url(#SVGID_70_)">
					<path fill="#D1D2D3" d="M461,230.7c5.5,9.4,2.3,21.6-7.1,27.1c-9.4,5.5-21.6,2.3-27.1-7.1c-5.5-9.4-2.3-21.6,7.1-27.1
						C443.4,218.1,455.5,221.3,461,230.7"/>
				</g>
				<g clip-path="url(#SVGID_70_)">
					<defs>
						
							<rect id="SVGID_71_" x="435.8" y="219.3" transform="matrix(-0.1484 0.9889 -0.9889 -0.1484 741.9714 -158.2716)" width="6.6" height="42.1"/>
					</defs>
					<clipPath id="SVGID_72_">
						<use xlink:href="#SVGID_71_"  overflow="visible"/>
					</clipPath>
					<g clip-path="url(#SVGID_72_)">
						<g>
							<defs>
								<polygon id="SVGID_73_" points="415.5,236.4 431.3,263.6 463.3,245 447.4,217.7 								"/>
							</defs>
							<clipPath id="SVGID_74_">
								<use xlink:href="#SVGID_73_"  overflow="visible"/>
							</clipPath>
							<g clip-path="url(#SVGID_74_)">
								<defs>
									
										<rect id="SVGID_75_" x="405.5" y="206.8" transform="matrix(-0.8639 0.5036 -0.5036 -0.8639 940.2202 227.3344)" width="67.9" height="67.7"/>
								</defs>
								<clipPath id="SVGID_76_">
									<use xlink:href="#SVGID_75_"  overflow="visible"/>
								</clipPath>
								<g clip-path="url(#SVGID_76_)">
									
										<image overflow="visible" width="387" height="387" xlink:href="4D5D8AA70E79BFAB.jpg"  transform="matrix(0.24 0 0 0.24 393.0316 194.343)">
									</image>
								</g>
							</g>
						</g>
					</g>
				</g>
			</g>
			<g>
				<defs>
					<path id="SVGID_77_" d="M456.8,191.7l-1.4,0.5l-0.7,0.8l0.9,0.7l0.4,0.2c0,0,0,0,0.3,0c3.4-0.5,7.1-4.5,7.4-7.1
						c-3.3-0.5-8,1.3-10.7,4.9l1.1,0.5l0.8-0.7l1.8-0.4l0.5,0.3c0,0,0,0-0.2,0.1C457,191.6,457,191.6,456.8,191.7"/>
				</defs>
				<clipPath id="SVGID_78_">
					<use xlink:href="#SVGID_77_"  overflow="visible"/>
				</clipPath>
				<g clip-path="url(#SVGID_78_)">
					<polygon fill="#FFFFFF" points="-1524.6,1341.3 -1520.2,1348.9 462.7,193 458.2,185.4 					"/>
				</g>
				<g clip-path="url(#SVGID_78_)">
					<defs>
						
							<rect id="SVGID_79_" x="454.2" y="185.2" transform="matrix(-0.1484 0.9889 -0.9889 -0.1484 714.4055 -234.7959)" width="8.1" height="10"/>
					</defs>
					<clipPath id="SVGID_80_">
						<use xlink:href="#SVGID_79_"  overflow="visible"/>
					</clipPath>
					<g clip-path="url(#SVGID_80_)">
						<g>
							<defs>
								<polygon id="SVGID_81_" points="449.8,188.4 456.2,199.2 467.3,192.8 460.9,181.9 								"/>
							</defs>
							<clipPath id="SVGID_82_">
								<use xlink:href="#SVGID_81_"  overflow="visible"/>
							</clipPath>
							<g clip-path="url(#SVGID_82_)">
								<defs>
									
										<rect id="SVGID_83_" x="446" y="178" transform="matrix(-0.8639 0.5036 -0.5036 -0.8639 950.6917 124.2644)" width="25.2" height="25.2"/>
								</defs>
								<clipPath id="SVGID_84_">
									<use xlink:href="#SVGID_83_"  overflow="visible"/>
								</clipPath>
								<g clip-path="url(#SVGID_84_)">
									
										<image overflow="visible" width="144" height="144" xlink:href="2E850A251798B178.jpg"  transform="matrix(0.24 0 0 0.24 441.3577 173.3597)">
									</image>
								</g>
							</g>
						</g>
					</g>
				</g>
				<g clip-path="url(#SVGID_78_)">
					<polygon fill="#B2AFD5" points="462.1,183.2 466.6,190.8 2449.4,-965.1 2445,-972.7 					"/>
				</g>
			</g>
			<g>
				<defs>
					<path id="SVGID_85_" d="M450.2,190.3l0.5-0.3c2.4-2.8,6.1-5.1,9.2-5.6l3.6-0.6l-2.2-5.7l-1.4-3.2c-1.5-1.1-3-1.7-4.8-1.4
						c-6.5,3.4-8.7,9.4-10.5,14.3L450.2,190.3"/>
				</defs>
				<clipPath id="SVGID_86_">
					<use xlink:href="#SVGID_85_"  overflow="visible"/>
				</clipPath>
				<g clip-path="url(#SVGID_86_)">
					<polygon fill="#FFFFFF" points="-1530.6,1329.5 -1522.7,1342.9 459.4,187.5 451.5,174 					"/>
				</g>
				<g clip-path="url(#SVGID_86_)">
					<defs>
						
							<rect id="SVGID_87_" x="445.7" y="172.9" transform="matrix(-0.1484 0.9889 -0.9889 -0.1484 702.0224 -240.6542)" width="17.9" height="18.1"/>
					</defs>
					<clipPath id="SVGID_88_">
						<use xlink:href="#SVGID_87_"  overflow="visible"/>
					</clipPath>
					<g clip-path="url(#SVGID_88_)">
						<g>
							<defs>
								<polygon id="SVGID_89_" points="437.6,177.8 450.3,199.6 472.2,186.9 459.5,165 								"/>
							</defs>
							<clipPath id="SVGID_90_">
								<use xlink:href="#SVGID_89_"  overflow="visible"/>
							</clipPath>
							<g clip-path="url(#SVGID_90_)">
								<defs>
									
										<rect id="SVGID_91_" x="429.9" y="157.3" transform="matrix(-0.8639 0.5036 -0.5036 -0.8639 939.7061 110.698)" width="49.9" height="49.9"/>
								</defs>
								<clipPath id="SVGID_92_">
									<use xlink:href="#SVGID_91_"  overflow="visible"/>
								</clipPath>
								<g clip-path="url(#SVGID_92_)">
									
										<image overflow="visible" width="285" height="285" xlink:href="2E850A251798B17F.jpg"  transform="matrix(0.24 0 0 0.24 420.7498 148.155)">
									</image>
								</g>
							</g>
						</g>
					</g>
				</g>
				<g clip-path="url(#SVGID_86_)">
					<polygon fill="#B2AFD5" points="458.1,170.2 466,183.6 2448,-971.8 2440.2,-985.3 					"/>
				</g>
			</g>
			<g>
				<defs>
					<path id="SVGID_93_" d="M438.1,189.7l1.3-0.4c-0.1-2.8,0.3-5.5,2.6-8l0.6,0.2l-1.2,7.7c0,0,0,0,0.2-0.2c0.8-4.3,3.3-8.6,6-12.7
						l-5.9,0.4c-3.1,4.1-3.9,8.4-4,12.8L438.1,189.7"/>
				</defs>
				<clipPath id="SVGID_94_">
					<use xlink:href="#SVGID_93_"  overflow="visible"/>
				</clipPath>
				<g clip-path="url(#SVGID_94_)">
					<polygon fill="#FFFFFF" points="-1528.8,1324.2 -1522.4,1335.2 447.8,186.7 441.4,175.7 					"/>
				</g>
				<g clip-path="url(#SVGID_94_)">
					<defs>
						
							<rect id="SVGID_95_" x="435.2" y="178.7" transform="matrix(-0.1484 0.9889 -0.9889 -0.1484 689.0327 -227.5529)" width="14.7" height="8.3"/>
					</defs>
					<clipPath id="SVGID_96_">
						<use xlink:href="#SVGID_95_"  overflow="visible"/>
					</clipPath>
					<g clip-path="url(#SVGID_96_)">
						<g>
							<defs>
								<polygon id="SVGID_97_" points="431.8,180 440.2,194.4 453.7,186.5 445.3,172.1 								"/>
							</defs>
							<clipPath id="SVGID_98_">
								<use xlink:href="#SVGID_97_"  overflow="visible"/>
							</clipPath>
							<g clip-path="url(#SVGID_98_)">
								<defs>
									
										<rect id="SVGID_99_" x="426.8" y="167.3" transform="matrix(-0.8639 0.5036 -0.5036 -0.8639 917.5591 118.588)" width="32" height="32"/>
								</defs>
								<clipPath id="SVGID_100_">
									<use xlink:href="#SVGID_99_"  overflow="visible"/>
								</clipPath>
								<g clip-path="url(#SVGID_100_)">
									
										<image overflow="visible" width="183" height="183" xlink:href="2E850A251798B179.jpg"  transform="matrix(0.24 0 0 0.24 420.8971 161.3909)">
									</image>
								</g>
							</g>
						</g>
					</g>
				</g>
				<g clip-path="url(#SVGID_94_)">
					<polygon fill="#B2AFD5" points="446.5,172.8 452.9,183.7 2423.1,-964.8 2416.7,-975.8 					"/>
				</g>
			</g>
			<g>
				<polyline fill="#CB262B" points="422.6,333.8 424.2,334.1 424.9,335.2 425.8,334.3 427.5,334.5 425.5,336.6 426.8,339 
					425.2,338.8 424.5,337.6 423.5,338.5 421.9,338.3 423.8,336.3 422.6,333.8 				"/>
			</g>
			<g>
				<polygon fill="#CB262B" points="402.1,273 400.9,274.2 400.1,272.7 398,272.3 399.6,275.5 397.1,278 399.3,278.4 400.5,277.1 
					401.3,278.7 403.4,279 401.8,275.8 404.3,273.3 				"/>
			</g>
			<g>
				<polygon fill="#CB262B" points="397.5,303.6 396.3,304.9 395.5,303.3 393.4,303 395,306.2 392.5,308.7 394.6,309.1 395.9,307.8 
					396.7,309.4 398.8,309.7 397.2,306.5 399.7,303.9 				"/>
			</g>
			<g>
				<polygon fill="#CB262B" points="409.5,238.5 407.3,238.2 406.1,239.5 405.3,237.9 403.2,237.6 404.8,240.8 402.3,243.3 
					404.5,243.6 405.7,242.4 406.5,244 408.6,244.3 407,241.1 				"/>
			</g>
			<g>
				<polygon fill="#CB262B" points="462.3,313.3 461.1,314.6 460.3,313 458.2,312.7 459.8,315.9 457.3,318.5 459.5,318.8 
					460.7,317.6 461.5,319.1 463.6,319.4 462,316.2 464.5,313.7 				"/>
			</g>
			<g>
				<polygon fill="#CB262B" points="466.9,282.7 465.7,283.9 464.9,282.4 462.8,282.1 464.4,285.2 461.9,287.8 464.1,288.1 
					465.3,286.8 466.1,288.4 468.2,288.7 466.6,285.5 469.1,283 				"/>
			</g>
			<g>
				<polygon fill="#CB262B" points="474.3,248.2 472.2,247.9 470.9,249.2 470.1,247.6 468,247.3 469.6,250.5 467.1,253.1 
					469.3,253.4 470.5,252.1 471.3,253.7 473.4,254 471.8,250.8 				"/>
			</g>
			<g>
				<line fill="#00AAE9" x1="465.3" y1="182.3" x2="465.2" y2="182.3"/>
			</g>
			<g>
				<line fill="#00AAE9" x1="465.3" y1="182.3" x2="465.2" y2="182.3"/>
			</g>
			<g>
				<path fill="#505F86" d="M457.7,208L457.7,208c0.4,0.1,0.8,0.2,0.7,0.3l-0.3,2.2c0,0.1-0.4,0.1-0.8,0.1c-0.4-0.1-0.8-0.2-0.8-0.3
					l0.3-2.2C456.9,207.9,457.3,207.9,457.7,208"/>
			</g>
			<g>
				<path fill="#505F86" d="M445,201.4L445,201.4c-0.4-0.1-0.8,0.3-0.9,0.7l-1.5,10c-0.1,0.5,0.2,0.9,0.7,1c0.4,0.1,0.8-0.3,0.9-0.7
					l1.5-10C445.7,201.9,445.4,201.5,445,201.4"/>
			</g>
			<g>
				<path fill="#505F86" d="M430.9,203.9L430.9,203.9c-0.4-0.1-0.8,0-0.8,0.1l-0.3,2.2c0,0.1,0.3,0.2,0.8,0.3c0.4,0.1,0.8,0,0.8-0.1
					l0.3-2.2C431.7,204.1,431.3,204,430.9,203.9"/>
			</g>
			<g>
				<path fill="#505F86" d="M433.6,204.1L433.6,204.1c-0.4-0.1-0.8,0-0.8,0.1l-0.4,2.6c0,0.1,0.3,0.3,0.8,0.3c0.4,0.1,0.8,0,0.8-0.1
					l0.4-2.6C434.4,204.4,434,204.2,433.6,204.1"/>
			</g>
			<g>
				<path fill="#505F86" d="M436.4,203.8L436.4,203.8c-0.4-0.1-0.8,0-0.8,0.2l-0.6,3.8c0,0.2,0.3,0.4,0.7,0.4c0.4,0.1,0.8,0,0.8-0.2
					l0.6-3.8C437.1,204.1,436.8,203.9,436.4,203.8"/>
			</g>
			<g>
				<path fill="#505F86" d="M439.2,203.4L439.2,203.4c-0.4-0.1-0.8,0.1-0.9,0.3l-0.8,5.2c0,0.2,0.3,0.5,0.7,0.5
					c0.4,0.1,0.8-0.1,0.8-0.3l0.8-5.2C439.9,203.7,439.6,203.5,439.2,203.4"/>
			</g>
			<g>
				<path fill="#505F86" d="M442,202.8L442,202.8c-0.4-0.1-0.8,0.1-0.9,0.5l-1,6.9c0,0.3,0.3,0.6,0.7,0.7c0.4,0.1,0.8-0.1,0.9-0.5
					l1-6.9C442.8,203.2,442.4,202.9,442,202.8"/>
			</g>
			<g>
				<path fill="#505F86" d="M447.4,203.6L447.4,203.6c0.4,0.1,0.7,0.4,0.7,0.7l-1,6.9c0,0.3-0.4,0.5-0.9,0.5
					c-0.4-0.1-0.7-0.4-0.7-0.7l1-6.9C446.6,203.8,446.9,203.6,447.4,203.6"/>
			</g>
			<g>
				<path fill="#505F86" d="M449.9,205L449.9,205c0.4,0.1,0.8,0.3,0.7,0.6l-0.8,5.2c0,0.2-0.4,0.4-0.8,0.3c-0.4-0.1-0.8-0.3-0.7-0.5
					l0.8-5.2C449.1,205.1,449.5,205,449.9,205"/>
			</g>
			<g>
				<path fill="#505F86" d="M452.5,206.2L452.5,206.2c0.4,0.1,0.8,0.3,0.7,0.4l-0.6,3.8c0,0.2-0.4,0.3-0.8,0.2
					c-0.4-0.1-0.8-0.3-0.7-0.4l0.6-3.8C451.7,206.3,452,206.2,452.5,206.2"/>
			</g>
			<g>
				<path fill="#505F86" d="M455,207.4L455,207.4c0.4,0.1,0.8,0.2,0.8,0.3l-0.4,2.6c0,0.1-0.4,0.2-0.8,0.1c-0.4-0.1-0.8-0.2-0.8-0.3
					l0.4-2.6C454.2,207.3,454.6,207.3,455,207.4"/>
			</g>
			<g>
				<defs>
					<path id="SVGID_101_" d="M412.4,278.9l-1.7-2.7c-0.9-1.4-0.7-2.9-0.9-4.6l0.6-2c-0.6-0.8,0-2.7,0.1-3.6l3-3.7l0.9,0.1l1.4-2.7
						l0.2,0c2.2-3.5,7.1-1,9.8-3.9c0.3-0.3,0.5-0.6,0.8-1l4.2-1.9c2.3-1,4-0.3,6,1c1,0.6,1.5,0.5,2.7,0.4c-0.1,0.9,0.9,1.2,1.4,1.7
						l1.6-0.1l6.3,2.5l0,1.6c0.4,0.4,1,0.7,1.5,1.1l-0.2,1.1c0.3,0.2,0.7,0.2,1.1,0.3l2.8,1.3c0.8,2.3,2,3.9,3.5,5.9l0,3.5l1.2,2.8
						l-1.3,1.5l1,1.4c0.7,1-2.2,4.8-2.8,5.7l-1.7,0l-0.9,1.1l-1.5,0.1l-0.7,1.3l-6.8,0.3l-0.3-0.3l-6.1-2.6
						c-0.7,0.3-1.8,0.5-2.3,1.1l-8.8-2.1c-4.3,0-9.5,0.7-12.8-2.7L412.4,278.9"/>
				</defs>
				<clipPath id="SVGID_102_">
					<use xlink:href="#SVGID_101_"  overflow="visible"/>
				</clipPath>
				<g clip-path="url(#SVGID_102_)">
					<path fill="#46A856" d="M412.4,278.9l-1.7-2.7c-0.9-1.4-0.7-2.9-0.9-4.6l0.6-2c-0.6-0.8,0-2.7,0.1-3.6l3-3.7l0.9,0.1l1.4-2.7
						l0.2,0c2.2-3.5,7.1-1,9.8-3.9c0.3-0.3,0.5-0.6,0.8-1l4.2-1.9c2.3-1,4-0.3,6,1c1,0.6,1.5,0.5,2.7,0.4c-0.1,0.9,0.9,1.2,1.4,1.7
						l1.6-0.1l6.3,2.5l0,1.6c0.4,0.4,1,0.7,1.5,1.1l-0.2,1.1c0.3,0.2,0.7,0.2,1.1,0.3l2.8,1.3c0.8,2.3,2,3.9,3.5,5.9l0,3.5l1.2,2.8
						l-1.3,1.5l1,1.4c0.7,1-2.2,4.8-2.8,5.7l-1.7,0l-0.9,1.1l-1.5,0.1l-0.7,1.3l-6.8,0.3l-0.3-0.3l-6.1-2.6
						c-0.7,0.3-1.8,0.5-2.3,1.1l-8.8-2.1c-4.3,0-9.5,0.7-12.8-2.7L412.4,278.9"/>
				</g>
				<g clip-path="url(#SVGID_102_)">
					<path fill="#46A856" d="M457.9,253.1c7.3,10.3,5,24.6-5.3,31.9c-10.3,7.3-24.6,5-31.9-5.3c-7.3-10.3-5-24.6,5.3-31.9
						C436.2,240.4,450.5,242.8,457.9,253.1"/>
				</g>
			</g>
			<g>
				<path fill="#FFFFFF" d="M371.5,264.9c-0.3-0.9-0.6-1.7-1.2-2.6c-0.5-0.8-1.1-1.6-1.8-2.2c-0.7-0.6-1.4-1.2-2.2-1.8
					c-0.8-0.5-1.7-0.9-2.6-1.2c-0.9-0.3-1.8-0.3-2.7-0.1c-0.9,0.2-1.7,0.7-2.5,1.4c-0.7,0.7-1.1,1.4-1.4,2.2
					c-0.3,0.8-0.4,1.5-0.3,2.2c0.1,0.7,0.3,1.4,0.5,2c0.3,0.6,0.7,1.2,1.1,1.6l1.9-2c-0.3-0.4-0.6-0.9-0.7-1.4c-0.1-0.5-0.1-1,0-1.4
					c0.1-0.5,0.4-0.9,0.7-1.3c0.5-0.5,1.1-0.7,1.8-0.7c0.7,0,1.4,0.2,2.2,0.6c0.8,0.4,1.5,0.9,2.2,1.6c0.7,0.7,1.2,1.4,1.6,2.1
					c0.4,0.8,0.6,1.5,0.6,2.2c0,0.7-0.2,1.3-0.7,1.9c-0.6,0.6-1.3,0.9-2,0.8c-0.7-0.1-1.5-0.4-2.2-0.9l-1.9,1.9
					c0.6,0.6,1.2,1,1.9,1.3c0.7,0.3,1.4,0.5,2.1,0.5c0.7,0,1.4-0.1,2-0.3c0.6-0.2,1.2-0.5,1.7-0.9c0.1-0.1,0.2-0.2,0.4-0.3
					c0.8-0.8,1.3-1.6,1.5-2.5C371.8,266.7,371.7,265.8,371.5,264.9z"/>
			</g>
			<g>
				<polygon fill="#FFFFFF" points="346.8,273.7 349.1,275.4 352.9,270.4 363.2,278.1 364.9,275.9 352.1,266.4 				"/>
			</g>
			<g>
				<path fill="#FFFFFF" d="M346.8,279.3c-0.8-0.1-1.6-0.1-2.2,0.2c-0.7,0.2-1.3,0.5-1.8,0.9c-0.5,0.4-0.9,0.9-1.2,1.5
					c-0.4,0.8-0.6,1.6-0.6,2.6c0,0.9,0.4,1.8,1,2.7c0.6,0.9,1.5,1.6,2.6,2.2l9.1,4.7l1.3-2.5l-9.5-5c-0.7-0.4-1.2-0.9-1.4-1.5
					c-0.2-0.6-0.1-1.2,0.2-1.8c0.3-0.6,0.8-1,1.4-1.2c0.6-0.2,1.3-0.1,2.1,0.3l9.5,5l1.3-2.4l-9.1-4.7
					C348.5,279.7,347.6,279.4,346.8,279.3z"/>
			</g>
			<g>
				<polygon fill="#FFFFFF" points="347.9,327.4 332.1,328.6 332.9,338.5 335.8,338.2 335.3,331.3 339.1,331 339.6,337.1 
					342.5,336.9 342,330.7 345.3,330.5 345.8,337.1 348.6,336.9 				"/>
			</g>
			<g>
				<polygon fill="#FFFFFF" points="364.4,372.6 362.2,374.5 364.7,377.4 354.9,385.8 356.6,387.9 366.5,379.5 368.9,382.3 
					371.1,380.5 				"/>
			</g>
			<g>
				<polygon fill="#FFFFFF" points="372.2,381.4 361.7,393.3 363.8,395.1 374.3,383.2 				"/>
			</g>
			<g>
				<polygon fill="#FFFFFF" points="383,390 373.7,397.7 378.5,386.7 376.3,385.1 370.3,400.3 372.3,401.7 385.2,391.6 				"/>
			</g>
			<g>
				<path fill="#FFFFFF" d="M406.1,405.8c0.4-0.7,1-1.3,1.6-1.7c0.6-0.4,1.3-0.5,1.9-0.4c0.9,0.2,1.5,0.7,2,1.4
					c0.5,0.7,0.7,1.4,0.7,2.1l2.3,0.6c0.2-1,0.2-1.9-0.1-2.8c-0.3-0.9-0.8-1.7-1.5-2.4c-0.7-0.7-1.6-1.1-2.6-1.4
					c-1.1-0.3-2.1-0.2-3,0.1c-0.9,0.3-1.7,0.8-2.4,1.5c-0.7,0.7-1.3,1.5-1.7,2.4c-0.5,0.9-0.8,1.9-1.1,2.9c-0.3,1.1-0.3,2.2-0.2,3.2
					c0.1,1,0.4,2,0.8,2.8c0.4,0.8,1,1.5,1.7,2.1c0.7,0.6,1.4,0.9,2.2,1.1c0.5,0.1,1,0.1,1.5,0c0.5-0.1,1-0.3,1.4-0.5
					c0.4-0.3,0.8-0.6,1.1-0.9l-0.3,2l1.7,0.4l2-8.5l-5-1.2l-0.6,2.7l2.8,0.7c-0.1,0.4-0.3,0.9-0.8,1.4c-0.4,0.5-0.9,0.9-1.4,1.1
					c-0.6,0.3-1.1,0.3-1.7,0.2c-0.8-0.2-1.4-0.6-1.8-1.2c-0.4-0.6-0.7-1.4-0.8-2.3c-0.1-0.9,0-1.8,0.2-2.7
					C405.3,407.4,405.7,406.6,406.1,405.8z"/>
			</g>
			<g>
				<path fill="#FFFFFF" d="M427.6,413.3l0.1-10.3l-2.9,0l-0.1,10.7c0,0.8-0.3,1.5-0.7,1.9c-0.5,0.5-1,0.7-1.7,0.7
					c-0.6,0-1.2-0.2-1.7-0.7c-0.5-0.5-0.7-1.1-0.7-2l0.1-10.7l-2.7,0l-0.1,10.3c0,1,0.1,1.8,0.4,2.6c0.3,0.8,0.7,1.4,1.1,1.9
					c0.5,0.5,1,0.9,1.7,1.2c0.6,0.3,1.3,0.4,1.9,0.4c0.9,0,1.7-0.2,2.6-0.7c0.8-0.4,1.4-1.1,1.9-2
					C427.4,415.7,427.6,414.6,427.6,413.3z"/>
			</g>
			<g>
				<polygon fill="#FFFFFF" points="481.4,397.6 476.2,401.3 468.7,390.8 466.5,392.4 475.7,405.2 483,400 				"/>
			</g>
			<g>
				<path fill="#FFFFFF" d="M500.8,382.3c0-0.8-0.2-1.4-0.5-2.1c-0.4-0.6-0.9-1.2-1.6-1.7l-9.3-7.1l-1.7,2.2l9.3,7.1
					c0.4,0.3,0.7,0.7,0.9,1c0.1,0.3,0.1,0.7-0.2,1c-0.1,0-0.1,0.1-0.2,0.2c-0.5,0.6-1.5,0.4-2.7-0.5c-0.4-0.4-0.6-0.6-0.8-0.7
					l-1.6,2.1c0.1,0.1,0.2,0.2,0.5,0.4c0.2,0.2,0.4,0.4,0.6,0.5c0.7,0.5,1.4,0.9,2.1,1.2c0.7,0.3,1.5,0.3,2.3,0.2
					c0.8-0.2,1.5-0.7,2.2-1.5C500.5,383.8,500.8,383,500.8,382.3z"/>
			</g>
			<g>
				<polygon fill="#FFFFFF" points="519.7,309.8 516.5,310.2 516.8,313 520,312.5 				"/>
			</g>
			<g>
				<path fill="#FFFFFF" d="M515.7,292.7c-0.3-0.9-0.8-1.7-1.3-2.2c-0.6-0.6-1.2-1-1.9-1.2c-0.7-0.3-1.4-0.4-2.1-0.4
					c-0.7,0-1.3,0.1-1.9,0.3l0.9,2.6c0.5-0.1,1.1-0.1,1.5,0c0.5,0.1,0.9,0.3,1.3,0.6c0.4,0.3,0.7,0.7,0.8,1.2
					c0.2,0.6,0.2,1.3-0.1,1.9c-0.3,0.6-0.8,1.2-1.5,1.7c-0.7,0.5-1.5,0.9-2.4,1.3c-0.9,0.3-1.8,0.5-2.6,0.5c-0.9,0-1.6-0.1-2.3-0.4
					c-0.7-0.3-1.1-0.8-1.4-1.5c-0.3-0.8-0.2-1.6,0.2-2.2c0.4-0.6,1-1.1,1.8-1.5l-0.9-2.5c-0.7,0.2-1.4,0.6-2,1.1
					c-0.6,0.5-1,1-1.4,1.6c-0.3,0.6-0.5,1.3-0.6,1.9c-0.1,0.7-0.1,1.3,0.1,1.9c0,0.1,0.1,0.3,0.2,0.5c0.4,1,0.9,1.9,1.6,2.4
					c0.7,0.6,1.5,0.9,2.4,1.1c0.9,0.2,1.8,0.2,2.8,0.1c1-0.1,1.9-0.3,2.8-0.7c0.9-0.3,1.7-0.7,2.5-1.2c0.8-0.5,1.6-1.1,2.2-1.8
					c0.6-0.7,1-1.5,1.3-2.4C516.1,294.7,516,293.7,515.7,292.7z"/>
			</g>
			<g>
				<polygon fill="#FFFFFF" points="510.2,281.2 507.3,282.7 508.6,285.1 511.4,283.6 				"/>
			</g>
			<g>
				<path fill="#FFFFFF" d="M348.4,300.9c-0.2,0.5-0.5,0.8-0.9,0.9c-0.4,0.2-0.9,0.1-1.3,0c-0.5-0.2-0.8-0.4-1.1-0.8
					c-0.2-0.4-0.3-0.8-0.1-1.3l1.1-3l3.4,1.2L348.4,300.9z M342.4,299.1c-0.2,0.5-0.5,0.8-0.9,1c-0.4,0.1-0.9,0.1-1.4,0
					c-0.5-0.2-0.9-0.5-1.2-0.9c-0.3-0.4-0.3-0.9-0.1-1.4l1.2-3.4l3.7,1.3L342.4,299.1z M338.2,291.1l-2,5.6
					c-0.3,0.9-0.4,1.7-0.2,2.5c0.2,0.8,0.5,1.4,1,2c0.5,0.6,1.1,0.9,1.9,1.2c0.7,0.3,1.4,0.4,2.1,0.3c0.7-0.1,1.4-0.2,2-0.6
					c0.2,0.5,0.6,0.9,1,1.3c0.4,0.4,0.9,0.7,1.5,0.9c0.7,0.3,1.5,0.4,2.2,0.3c0.8-0.1,1.4-0.3,2-0.8c0.6-0.5,1.1-1.1,1.3-1.9l2-5.6
					L338.2,291.1z"/>
			</g>
			<g>
				<path fill="#FFFFFF" d="M344.6,321.1c-0.5,0.4-1.2,0.7-2,0.8c-0.8,0.2-1.6,0.2-2.5,0.1c-0.9-0.1-1.7-0.3-2.4-0.5
					c-0.8-0.3-1.3-0.7-1.8-1.1c-0.4-0.5-0.6-1-0.6-1.6l0.2-2.4l10.2,0.8l-0.2,2.4C345.4,320.2,345.1,320.7,344.6,321.1z
					 M348.1,320.2l0.4-5.5l-15.8-1.2l-0.4,5.5c-0.1,0.9,0.1,1.6,0.5,2.4c0.4,0.7,0.9,1.3,1.6,1.8c0.7,0.5,1.5,0.9,2.5,1.2
					c0.9,0.3,1.9,0.5,2.9,0.6c1,0.1,2,0.1,3-0.1c1-0.1,1.8-0.4,2.6-0.8c0.8-0.4,1.4-0.9,1.9-1.5C347.7,321.8,348,321.1,348.1,320.2z
					"/>
			</g>
			<g>
				<path fill="#FFFFFF" d="M347.5,346.4c-0.4,0.4-0.9,0.7-1.5,0.8c-0.6,0.1-1.2,0.1-1.7-0.2c-0.5-0.2-0.8-0.6-1-1.2l-0.6-2.5l4.5-1
					l0.6,2.5C348,345.5,347.8,346,347.5,346.4z M350.7,345.2l-1.3-6l-15.4,3.4l0.6,2.7l5.5-1.2l0.7,3.4c0.2,0.8,0.5,1.4,1.1,1.9
					c0.6,0.5,1.3,0.7,2.1,0.9c0.8,0.1,1.7,0.1,2.5-0.1c0.9-0.2,1.7-0.5,2.4-1c0.7-0.4,1.2-1,1.5-1.7
					C350.7,346.7,350.8,346,350.7,345.2z"/>
			</g>
			<g>
				<path fill="#FFFFFF" d="M351.1,359.3c-0.4,0.5-0.8,1-1.4,1.4c-0.5,0.4-1.2,0.8-1.8,1.1c-0.6,0.3-1.2,0.4-1.8,0.5
					c-0.6,0.1-1.2,0.1-1.7,0.1c-0.6-0.1-1-0.3-1.5-0.6c-0.4-0.3-0.8-0.7-1-1.3c-0.3-0.7-0.4-1.5-0.2-2.2c0.2-0.7,0.6-1.3,1.2-1.9
					c0.6-0.6,1.3-1,2.2-1.4c0.9-0.4,1.7-0.6,2.6-0.7c0.9-0.1,1.7,0,2.4,0.3c0.7,0.3,1.2,0.7,1.5,1.3c0.2,0.6,0.3,1.1,0.2,1.7
					C351.7,358.3,351.5,358.8,351.1,359.3z M354.5,355.1c-0.6-1.4-1.5-2.4-2.7-2.9c-1.2-0.5-2.4-0.7-3.7-0.6
					c-1.3,0.1-2.5,0.4-3.7,0.8c-1.4,0.6-2.4,1.3-3.3,2c-0.9,0.8-1.5,1.6-1.9,2.4c-0.4,0.8-0.6,1.7-0.6,2.5c0,0.8,0.2,1.7,0.5,2.4
					c0.4,1,1,1.8,1.7,2.4c0.7,0.6,1.5,0.9,2.4,1.1c0.9,0.2,1.8,0.2,2.8,0c1-0.2,2-0.5,3-0.9c1.7-0.8,3-1.7,4-2.8
					c0.9-1.1,1.5-2.1,1.7-3.2C355.1,357.1,355,356,354.5,355.1z"/>
			</g>
			<g>
				<path fill="#FFFFFF" d="M359,370.8c-0.2,0.5-0.4,0.8-0.9,1.1c-0.5,0.3-0.9,0.4-1.5,0.3c-0.5-0.1-0.9-0.3-1.2-0.8l-1.8-3l3.3-2
					l1.8,2.9C359.1,369.8,359.2,370.3,359,370.8z M362.1,370.3c0-0.5-0.2-0.9-0.4-1.4l-3.8-6.3l-13.5,8.3l1.4,2.3l5.4-3.3l1.4,2.3
					c0.3,0.5,0.5,0.9,0.5,1.2c0.1,0.3,0,0.5-0.2,0.7c-0.2,0.2-0.4,0.4-0.8,0.6c-0.5,0.3-0.9,0.5-1.2,0.7c-1.1,0.7-1.9,1.4-2.5,2.2
					l1.5,2.5l0.7-0.4c-0.1-0.1,0-0.2,0.1-0.5c0.1-0.2,0.4-0.4,0.6-0.6l2.9-2c0.3-0.2,0.5-0.4,0.7-0.7c0.2-0.3,0.3-0.6,0.3-0.8
					c0-0.3,0-0.5,0-0.7c0.8,0.3,1.6,0.5,2.3,0.4c0.8-0.1,1.5-0.3,2.2-0.7c0.5-0.3,0.9-0.6,1.2-1c0.3-0.4,0.6-0.8,0.8-1.3
					C362.1,371.2,362.2,370.7,362.1,370.3z"/>
			</g>
			<g>
				<path fill="#FFFFFF" d="M391.8,402.2c-0.2,0.7-0.4,1.3-0.7,2c-0.3,0.6-0.7,1.1-1.1,1.6c-0.4,0.5-0.9,0.9-1.3,1.1
					c-0.5,0.3-1,0.4-1.5,0.5c-0.5,0-1.1-0.1-1.6-0.4c-0.7-0.4-1.2-0.9-1.5-1.6c-0.3-0.7-0.3-1.4-0.2-2.3c0.1-0.8,0.4-1.6,0.8-2.5
					c0.4-0.8,1-1.5,1.6-2.2c0.6-0.6,1.3-1.1,2-1.3c0.7-0.2,1.4-0.2,2,0.1c0.5,0.3,1,0.7,1.3,1.2c0.3,0.5,0.5,1.1,0.5,1.7
					C392,400.9,391.9,401.5,391.8,402.2z M394.9,400.5c0.1-1.4-0.2-2.6-0.7-3.6c-0.6-1-1.3-1.7-2.2-2.2c-1.4-0.7-2.7-0.9-3.9-0.6
					c-1.2,0.3-2.3,0.9-3.3,1.9c-0.9,0.9-1.7,1.9-2.3,3c-0.7,1.3-1.1,2.5-1.3,3.6c-0.2,1.1-0.2,2.1,0.1,3c0.2,0.9,0.6,1.7,1.2,2.3
					c0.5,0.6,1.2,1.2,1.9,1.6c1,0.5,1.9,0.8,2.8,0.7c0.9,0,1.8-0.2,2.6-0.7c0.8-0.4,1.5-1,2.2-1.8c0.7-0.7,1.2-1.6,1.8-2.6
					C394.4,403.5,394.8,402,394.9,400.5z"/>
			</g>
			<g>
				<path fill="#FFFFFF" d="M435.5,412.5l0.8-5.9l2.3,5.5L435.5,412.5z M437.3,402.3l-3.2,0.4l-2.4,16.3l2.9-0.4l0.4-3.3l4.6-0.6
					l1.4,3.1l2.9-0.4L437.3,402.3z"/>
			</g>
			<g>
				<path fill="#FFFFFF" d="M453,411.2c-0.3,0.6-0.7,1-1.3,1.1l-2.3,0.7l-2.9-9.8l2.3-0.7c0.6-0.2,1.1-0.1,1.7,0.2
					c0.5,0.3,1,0.9,1.5,1.5c0.4,0.7,0.8,1.5,1,2.3c0.3,0.8,0.4,1.7,0.4,2.5C453.5,409.9,453.3,410.6,453,411.2z M456.3,408.8
					c0-1-0.2-1.9-0.5-2.9c-0.3-1-0.7-1.9-1.2-2.7c-0.5-0.9-1.1-1.6-1.7-2.2c-0.6-0.6-1.4-1-2.1-1.2c-0.8-0.2-1.6-0.2-2.4,0l-5.3,1.6
					l4.5,15.2l5.3-1.6c0.8-0.2,1.5-0.7,2-1.3c0.5-0.6,0.9-1.3,1.1-2.2C456.3,410.7,456.4,409.8,456.3,408.8z"/>
			</g>
			<g>
				<path fill="#FFFFFF" d="M463.1,404.9l-1-5.9l3.8,4.6L463.1,404.9z M461.8,394.6l-2.9,1.3l2.5,16.2l2.7-1.2l-0.6-3.3l4.2-1.9
					l2.3,2.5l2.7-1.2L461.8,394.6z"/>
			</g>
			<g>
				<path fill="#FFFFFF" d="M485.3,390.4l-2.9-5.3l5.1,3.1L485.3,390.4z M480.7,381.1l-2.4,2.2l7.6,14.5l2.1-2l-1.6-2.9l3.3-3.2
					l3,1.6l2.1-2L480.7,381.1z"/>
			</g>
			<g>
				<path fill="#FFFFFF" d="M502,370.7l-4.3-4.2l5.8,1.5L502,370.7z M509.5,369.5l1.4-2.5l-16-3.8l-1.6,2.8l11.6,11.7l1.4-2.5
					l-2.4-2.3l2.3-4L509.5,369.5z"/>
			</g>
			<g>
				<path fill="#FFFFFF" d="M506.2,354.5l-1.3,3.3l-3.6-1.4l1.3-3.2c0.2-0.5,0.5-0.9,1-1c0.5-0.2,0.9-0.2,1.4,0
					c0.5,0.2,0.9,0.5,1.1,0.9C506.3,353.5,506.4,354,506.2,354.5z M515.6,353.4c0,0.1-0.2,0.2-0.5,0.2c-0.3,0-0.6,0-0.9-0.2
					l-3.4-1.1c-0.3-0.1-0.7-0.2-1-0.2c-0.3,0-0.6,0.1-0.9,0.2c-0.2,0.1-0.4,0.3-0.6,0.4c-0.2-0.8-0.6-1.5-1.1-2.1
					c-0.5-0.6-1.1-1-1.9-1.3c-0.5-0.2-1-0.3-1.6-0.3c-0.5,0-1,0-1.5,0.2c-0.5,0.1-0.9,0.4-1.2,0.7c-0.4,0.3-0.6,0.7-0.8,1.2
					l-2.7,6.8l14.7,5.8l1-2.5l-5.9-2.3l1-2.5c0.2-0.5,0.4-0.9,0.6-1.1c0.2-0.2,0.4-0.3,0.7-0.3c0.2,0,0.6,0.1,1,0.3
					c0.5,0.2,0.9,0.4,1.2,0.5c1.2,0.4,2.3,0.7,3.3,0.7l1.1-2.7L515.6,353.4z"/>
			</g>
			<g>
				<path fill="#FFFFFF" d="M512.6,344.2l-5.3-2.8l6-0.3L512.6,344.2z M519.5,340.9l0.6-2.9l-16.4,1.1l-0.7,3.2l14.5,7.8l0.6-2.8
					l-3-1.5l1-4.5L519.5,340.9z"/>
			</g>
			<g>
				<path fill="#FFFFFF" d="M509,322.6l5.7-1.8l0.1,3.1L509,322.6z M520.9,325.3l-3.3-0.7l-0.2-4.6l3.2-1.2l-0.1-2.9l-15.6,5.3
					l0.1,3.2l16,3.8L520.9,325.3z"/>
			</g>
		</g>
		<g clip-path="url(#SVGID_2_)">
			<path fill="#FFF100" d="M149.4-5.3c65.3-9.5,126.4,36.1,135.8,101.5c9.5,65.3-36.1,126.4-101.5,135.8
				C118.4,241.4,57.4,195.9,48,130.5C38.5,65.2,84.1,4.2,149.4-5.3L149.4-5.3z"/>
			<path fill="#2E3191" d="M150.5,2.2c-61.2,8.9-103.9,66-95,127.2s66,103.9,127.2,95c61.2-8.9,103.9-66,95-127.2
				C268.8,36,211.7-6.6,150.5,2.2z"/>
			<path fill="#FFF100" d="M273,95.5l-19.8,2.9c-1.2-2.5-2.4-4.9-3.7-7.2c-7-12.3-15.7-21.5-24.7-25.5l-2-0.9l-1.7,1.4
				c-0.6,0.5-1.2,1-1.7,1.6c-2-4.5-4.2-8.9-6.7-13.3l19.9-26.7C253.3,44,268.4,67.7,273,95.5z"/>
			<path fill="#FFF100" d="M151.1,6.5c28.6-4.1,56.3,3.4,78.2,19.1l-19.8,26.5c-4-1-7.9-1.9-11.8-2.6l-0.5-6.9l-1.4-0.5
				c0.3,1.3-3.5,0-3.7-2.2c-0.7,0.1,0.4-2.1-0.9-1.9l-1.5-1.9l-0.7,0.1l-2.9-2.4l-0.1-0.7c-0.7-0.6-2.8,0.5-2.8-0.1
				c-0.7,0.1-2.6,0.9-2.5,1.6l-0.7,0.1l-0.7,0.1l-0.4,2.4c0.1,0.7,0.1,1,0.1,1.7c0.7-0.1,1.1,1.8,1.8,1.7l0.1,0.7
				c0.5,0.7,2.1-0.2,3.3,1.5l1.4,0.5c0.1,0.7,0.3,1,1,1.6l1.1,1.4l0.7-0.1l0.8,0.9l0.7-0.1c0.8,1.3,1.1,5.1,0.5,5.9l-0.6,0.8
				c-0.7,0.1-3.5,1.3-3.3,2.6c0.7-0.1,0.4,4,2.3,1.7c0.1,0.7,2.7,1.4,2.7,2.1l0.4,1.8c1.6,2.3,3.4,3.5,5.5,3.1
				c0.6-0.4,1.5,0.8,1-3.1l0.2-1.4c-1.1-2.9-1.7-4.7,1.4-2l0.6-0.7l0.6-0.7l-0.7-2.9c2.8,0.6,5.6,1.3,8.4,2
				c2.9,4.9,5.4,9.9,7.7,14.9c-5.3,6.6-9.4,15.9-12,26.7c-3.1,13.4-4,29.3-2,45.4l0.2,1.2l-0.7-0.6c-1.3,0.1-1.2-1.9-2.5-1.7
				c-0.1-1.3-0.7,0.1-0.8-1.3l-1.6-0.5l-1.6-0.6c-0.7,0.1-1.1-1.1-1.1-1.8c0.7-0.1,1.3-0.8,1.9-0.9l-0.1-1.3l-0.7,0.1
				c-0.1-0.7-1.7-2.4-1.7-3c-1.3,0.1-4.6-2.3-5.2-4.4c-0.1-0.7-1.5-1.6-2.2-1.5c-0.1-1.3-1.9-0.8-2.1-2.1c-0.7,0.1-1.3-1.1-1.3-1.1
				l-2.4-1.3c-1.3,0.1-2.2,0.8-3.5,1.6l-2.5,3l-3.8-2.1l-0.1-2.9c-0.7,0.1-1.1-0.3-1.1-1l-1.2-1.4l-2.4-1.1
				c-0.1-1.1,0.8-2.8,2.1-2.9l0.8-1.2l-1.3-1.4l-2.1,0.8l-1,1.2l-2.1,0.9l-0.7-0.6c-0.1-0.7-1.1-1.5-1-2.5c-0.2-2.4-0.3-4.7,1.9-6.6
				c1.5-1.7,2.8-1.3,4.2-0.5c2.7-0.3-1.1-1.3,4.4-1.5l-0.1,4.6l1.3,1.2c0.7,0.3,0.9-0.1,1.5-0.7l0.4-3.4c0.1-1-0.2-1.1,0-1.9
				c-0.1-0.7,1.8-0.3,1.7-1l0.6-0.7c0.7-0.1,1.6-0.2,1.5-0.9c0.1-0.5,0.4-1,0.9-1.4c-0.1-0.7,0.5-1.4,0.5-2.1l1.9-0.9l-0.1-0.7
				l1.9-0.9l0.6-0.7c-0.1-0.7,1.1-2.1,1.7-2.9l5.3,1c0.5-0.8,3.6-3.5,1.8-4.5c-0.1-1.4-1.7-0.1-1.8-3.8l0.6-0.7l1.3-0.1l3.8,0.2
				c-0.3,1.5-1.2,1.7-1.2,3.8c0.7-0.1,0.6,2.6,0.6,2.6l0.1,0.7c0.9,0,2.4,1,3.3,1c0-0.2,0.7,0.1,0.7-0.1c0.4,0,1.8-1.5,2.3-1.5
				c-0.2-2-0.3-3.8-2.2-4.3c-0.1-0.8,1.9-2.1,1.8-3.3c-0.1-1.2-2.2-2.3-2.6-3.4c-0.7-1.9-2.7-3-2.9-4.4c-0.3-1.9,0.8-2.7,0.6-4.6
				l-1.3-1.7l-1.6-0.3l-1.3-0.9c-0.8-1.3-1.9-3.4-3.2-3.2c-0.1-0.7-1.8,0.2-1.9-0.5c-1.9-1-3.4-0.9-4.4,0.3l-0.6,0.7l0.1,1.3l-0.7,1
				c-1.1,2.8-0.9,5.5-2.1,7.6l-0.7,0.1l0.9,4.4l-0.8,1.1c-1.3,0.1-2-4.7-2.7-4.6c-0.1-0.7,0.7-2.4,0-2.3l-2.4-0.8l-1.2-1.4
				c-1.3,0.1-0.5-5.7-2.5-5.5c-0.1-0.7,0.5-2.1,0.4-2.7l1.8-2.2l-0.1-0.7l-0.1-0.7c1.3-0.1,2.5-5.1,4.5-5.3
				c-0.1-1.4,3.8-2.1,4.8-2.2c0.6-0.7,0.5-2.3,1.2-2.4l-0.7-6.1L180,46c-0.7-0.6-0.9-1.2-1.5-1.1c-1.3-0.4-2.8-2.1-3-4.5
				c-0.1-1,1.4-2.9,0.4-3.3l-1.5,0.8c-1.3,0.9-2.2,2.8-0.2,4.8c0.8,1.1-0.4,2.4-1.8,2l-0.7,0.1l-0.7,0.1c0.1,1.3-2.2,0.1-2.6,1.2
				l-3.2-0.4c0,0-2-0.2-3.4-0.1l-2.7,0.7l-2.1-2.4c-1.3,0.1-2,0.2-2.1-0.5l-0.6-1.6c0,0-2-1.2-2.1-1.8c-2.1-0.1-1.8-2.3-2.5-2.7
				c-5.4,1.2-12.7,1.3-15.7-2.9l-0.1-0.7c-0.7,0.1-4.3-3-5-2.9l-0.8-1.3c-1.6,0.4-3.7,1.2-5.2,1.4c-1.2,1.5-2.4,3.5-4.4,3.7
				c-0.8,0.3-0.7,1.7-0.5,3.2l0.9,0.3c0.1,1.3,1,2.1,1.1,3.4l-0.7,0.7c-0.7,0.1-1.5,0-2.2,0.1l-1,2l-0.7,0.1l0.2,2l0.7-0.1l1.7,2.7
				c-0.9,1.7-3.9,2.8-5.2,3.9c-1.3,0.5-1.3,2.3-0.6,3c1.1,0.7,2.1,1.6,2.5,1.9l3.2,2.5c0.2,0.3,0.2,0.5,0.2,0.7
				c-0.6,0.3-1.2,0.6-1.8,0.9c-0.2,0-0.5,0-0.7,0c-0.1,0.2-0.3,0.4-0.4,0.6c-0.7,0.4-1.5,0.8-2.2,1.2c-1.4,0.4-2.8,0.4-2.9,1
				l0.1,0.6c-0.8,0.4-1.5,0.9-2.3,1.3L81.5,47C98.1,25.8,122.5,10.7,151.1,6.5z"/>
			<path fill="#FFF100" d="M166.8,147.1l2.2,4.1c0.6,0.6,0.5,3,2.3,2.9c0.1,0.7,0.3,2.3,1,2.3l-0.7,1.5l-0.4,2
				c0.1,0.7-2.7,5.9-2.7,6.6c-0.6,1.1,0.2,3.1-0.1,4.3l-0.5,0.9c-0.6,0.7-0.4,2.6-1.5,3.4c-13.8,0.8-28.1-0.7-42.9-4.5
				c-2.3-3.7-4.4-7.5-6.3-11.4c5.4-0.8,10.4-2.7,14.8-5.4c4.6-2.8,8.4-6.6,11.4-11l2-2.8l-2.8-2.1l-13.4-10l-2.1,3.1
				c-1.4,2.1-3.3,3.9-5.5,5.3c-2.1,1.3-4.5,2.2-7.1,2.6c-1.7,0.3-3.5,0.2-5.1,0c-3.3-11.4-4.9-23.2-4.7-35.3c1.4-0.6,3-1,4.6-1.3
				c2.7-0.4,5.3-0.2,7.7,0.5c2.5,0.7,4.9,2,6.9,3.7l2.9,2.5l11.8-15.8l-2.7-2.2c-4.1-3.3-8.9-5.7-14-7.2c-4.9-1.3-10-1.7-15.3-1
				c0.7-4,1.5-8.1,2.5-12.2c2.8-1.8,5.7-3.4,8.6-4.9c2.7-0.7,5.1-1.9,5.5-2.7c3.1-1.5,6.2-2.8,9.3-4c0.4,0.5,0.9,1,1.5,1
				c0.3,2.7,1.3,6.6,1.6,9.3c3.7,3,4.1,5.5,4.7,10.9c-0.8,2.7-0.5,10.3,0.3,11.6L141,92c0.1,0.7-0.2,4.8,1.7,5.2
				c3.1,3.1,2.8,5.6,3.2,7c0.4,1.2,0.8,2,2.3,3.7c1.6,5.7,1.9,2.3,2.6,1.9c-1.6-3-1.1-5.7-1.9-7l-0.9-0.5l-0.2-2.3l0.9-0.1
				c0,0.3,0.7,0.8,0.9,1.1c0.7,1.1,1.5,2.1,1.6,2.6c0.7,0.7-0.2,3.7,1.3,4.4l0.3,2.4l0.4,3.2c2.2,3.2,6.4,6.5,9.8,5l2.7,2.1
				c0.2,2,1.7,4,2.5,4.6l0.7,0.6c0.4,0,0.5,2,2.8,1.6c0.7-0.1,0.7,0.8,0.9,0.8l1.3,2.2l-1.1,1.6l-2,1.3c-1.5-0.9-2.5,1.5-3.8,2
				c0.1,5.4-0.9,3.9-2.7,5.9C164.6,143.3,166,145.9,166.8,147.1z"/>
			<path fill="#FFF100" d="M79.2,50.1l26,19.4c-1.1,4.7-2,9.3-2.7,13.9c-8.9,2.2-16.5,7.4-21.7,14.4c-5.5,7.4-8.4,16.8-7.5,26.6
				l-13.7,2C56,98.5,63.8,71.5,79.2,50.1z"/>
			<path fill="#FFF100" d="M101.7,120.3l-8.5,1.2c-0.2-4.4,1.1-8.7,3.7-12c1.1-1.5,2.4-2.8,3.9-3.9
				C100.9,110.6,101.2,115.5,101.7,120.3z"/>
			<path fill="#FFF100" d="M105.1,137.8c-1.6-0.6-3.1-1.4-4.4-2.5c-3-2.2-5.3-5.4-6.5-9.1l8.3-1.2
				C103.1,129.3,104,133.6,105.1,137.8z"/>
			<path fill="#FFF100" d="M60.1,131.2l13.8-2c2,9.3,7.4,17.2,14.6,22.6c6.9,5.1,15.5,8,24.5,7.7c2,4.3,4.2,8.5,6.7,12.6l-19.6,26.2
				C79.6,182.2,64.8,158.7,60.1,131.2z"/>
			<path fill="#FFF100" d="M182.1,220.2c-28.9,4.2-56.8-3.6-78.8-19.5l19.6-26.2c14,3.4,27.6,4.9,40.8,4.4c-0.1,0.6-0.1,1.4,0,2.3
				l-0.8,1.5c0.2,2-0.1,4.7,0.2,7.4l0.5,1.2l0.7-0.1l0.4,1.4l1.3,1.2c0.4,0.4,1.6-0.5,2.3-1.3c0.9-1.2,1.2-2.1,1.3-2.7l0.1-1.6
				l0.7-0.1l-0.1-1.3c1.1-0.3,1.4-3.6,2.3-4.1l0.7-0.1l-0.1-1.3c1.3-0.1-0.3-1.9,1-2.1c0-0.5,0.3-0.9,0.9-1.3
				c17.8-2.2,34.7-8.3,50.8-18.5l26.5,19.8C235.5,200.6,210.9,216,182.1,220.2z"/>
			<path fill="#FFF100" d="M254.4,176l-27-20.1c1.8-7.8,3-15.5,3.5-23.1l13.6-1.9c0.1,0.5,0.3,1,0.4,1.5c0.4,1.6,0.6,3.1,0.8,4.6
				l0.5,3.6l18.7-2.7l-0.6-3.6c-1.8-11.1-5-21.8-9-31.3l18.4-2.7C277.1,128,269.6,154.7,254.4,176z"/>
			<path fill="#EC1C24" d="M106.6,86.3c10-1.4,19.6,1.5,26.9,7.4l-7.5,10c-4.7-3.9-10.9-6-17.4-5c-12,1.7-20.4,13-18.7,25
				c1.7,12,13,20.4,25,18.7c6.4-0.9,11.7-4.5,15.1-9.5l10.4,7.8c-5.3,7.8-13.8,13.4-23.8,14.8C97.6,158.3,79.8,145,77,125.9
				S87.5,89.1,106.6,86.3L106.6,86.3z"/>
			<path fill="#EC1C24" d="M223.4,69c-13.9,11.7-21.1,42.2-17.2,73.6l11.5-1.7c-0.5-3.3-0.6-6.5-0.3-9.9l29.6-4.3
				c1.2,3.1,1.8,6.3,2.3,9.6l11.5-1.7C255.6,103.5,240,76.3,223.4,69L223.4,69z"/>
			<path fill="#FFF100" d="M206.5,148.3l-0.7-0.6c-0.5,0-0.9-0.7-1.3-1.1l17.3-2.5l-0.6-3.6c-0.2-1.5-0.4-3-0.4-4.5
				c0-0.6,0-1.2,0-1.8l6.4-0.9c-0.6,7.5-1.9,15-3.8,22.7c-12.9,8.4-26.5,14-40.6,16.8c0.7-0.9,1.6-1.9,1.5-2.3
				c0.7-0.1,1.9-0.3,1.8-1c0.7-0.1,1.3-0.8,1.2-1.5l0.3-2c-0.1-0.8,4.6-4.4,4.7-4.3c2-0.2,3.6-0.6,5.6-0.8c0,0,1.8-2.2,2.5-2.3
				c-0.1-1.3,0.7-0.1,0.5-1.4c0.7-0.1,1.3-0.8,1.2-1.5l0.6-0.7l0.6-0.7c0.7-0.1,2.4-1.9,3.1-2l0.6-0.7
				C207,151,206.6,149,206.5,148.3z"/>
			<path fill="#2E3191" d="M157.5,33.7l-0.4,3.8c2.7,0.1,2.9,1.1,2.1,2.5c-0.7,1.5,0.4,2.4,3.3,2.7c4.3,1.3,7.4,1.6,7.7-0.4L169,38
				c-0.9-1-0.8-2.7-0.5-4.5c0.9-1.9-0.6-3.7-4.4-5.3C161.6,28.8,159.7,30.4,157.5,33.7z"/>
			<path fill="#2E3191" d="M153.5,36.5l4.1-4.7l0.1-5.3c-1.1-0.9-2.5-1.1-4.1-0.6c-0.5,2.3-1.3,3.5-2.7,5.4l-0.9,2.5
				C151.2,36.2,152.3,37.1,153.5,36.5z"/>
			<path fill="#2E3191" d="M227.1,93.1c-2.7,4.8-4.2,11.3-5.8,20.5l17.2-2.5C234.3,102.7,231,96.9,227.1,93.1L227.1,93.1z"/>
			<path fill="#FFF100" d="M227.9,99c-1.1,2.4-1.7,5.7-2.2,10.4l7.3-1.1C231.1,104,229.6,101,227.9,99L227.9,99z"/>
		</g>
	</g>
	<g>
		<g>
			<path d="M270.8,242.1l12.5-84.6h15l-16,103.8h-24.3l-16-103.8h16.4L270.8,242.1z"/>
			<path d="M327.8,156.3c15.9,0,24,9.5,24,26.1v3.3h-15.4v-4.3c0-7.4-3-10.2-8.1-10.2c-5.2,0-8.2,2.8-8.2,10.2
				c0,21.3,31.9,25.3,31.9,55c0,16.6-8.3,26.1-24.3,26.1c-16,0-24.3-9.5-24.3-26.1V230h15.4v7.4c0,7.4,3.3,10.1,8.4,10.1
				c5.2,0,8.4-2.7,8.4-10.1c0-21.3-31.9-25.3-31.9-55C303.8,165.8,311.9,156.3,327.8,156.3z"/>
		</g>
		<g>
			<path fill="#FFFFFF" d="M261.3,241l12.5-84.6h15l-16,103.8h-24.3l-16-103.8h16.4L261.3,241z"/>
			<path fill="#FFFFFF" d="M318.3,155.1c15.9,0,24,9.5,24,26.1v3.3h-15.4v-4.3c0-7.4-3-10.2-8.1-10.2c-5.2,0-8.2,2.8-8.2,10.2
				c0,21.3,31.9,25.3,31.9,55c0,16.6-8.3,26.1-24.3,26.1c-16,0-24.3-9.5-24.3-26.1v-6.4h15.4v7.4c0,7.4,3.3,10.1,8.4,10.1
				c5.2,0,8.4-2.7,8.4-10.1c0-21.3-31.9-25.3-31.9-55C294.2,164.6,302.4,155.1,318.3,155.1z"/>
		</g>
	</g>
</g>
</svg>
