<?xml version="1.0" encoding="utf-8"?>
<!-- Generator: Adobe Illustrator 19.0.0, SVG Export Plug-In . SVG Version: 6.00 Build 0)  -->
<!DOCTYPE svg PUBLIC "-//W3C//DTD SVG 1.1//EN" "http://www.w3.org/Graphics/SVG/1.1/DTD/svg11.dtd">
<svg version="1.1" id="Layer_1" xmlns="http://www.w3.org/2000/svg" xmlns:xlink="http://www.w3.org/1999/xlink" x="0px" y="0px"
	 viewBox="-555 238 168.7 326" style="enable-background:new -555 238 168.7 326;" xml:space="preserve">
<style type="text/css">
	.st0{fill:#808080;}
	.st1{fill:#FCF500;}
	.st2{fill:none;}
	.st3{clip-path:url(#SVGID_2_);}
	.st4{fill:#B32028;}
	.st5{fill:#FFFFFF;}
	.st6{fill:#0D245F;}
</style>
<rect x="-470.5" y="402" class="st0" width="10.7" height="162"/>
<rect x="-555" y="239.2" width="168" height="168"/>
<rect x="-477" y="402" width="10.7" height="162"/>
<path class="st1" d="M-544.6,396.3l149.3-147.8h-149.5C-544.8,248.5-543.9,395.5-544.6,396.3z"/>
<rect x="-413.3" y="325.2" transform="matrix(0.5038 0.8638 -0.8638 0.5038 82.0916 517.0237)" class="st2" width="8.7" height="9.5"/>
<rect x="-411" y="315.4" transform="matrix(0.1484 -0.9889 0.9889 0.1484 -665.9346 -129.1156)" class="st2" width="6.1" height="13.5"/>
<path class="st2" d="M-407.4,318.3c-2.2,0.9-4.7,1.4-6.4,1.3c0.4-1.9,3.7-4.7,6.9-4.2s5.5,4.1,5.3,6
	C-403.3,321.1-405.6,319.8-407.4,318.3"/>
<path class="st2" d="M-410.2,337.3c-2.9-0.3-6.3-2.2-8.4-4c2.8,1.3,5.6,2.4,8.5,2.8c2.9,0.5,5.9,0.2,9-0.2
	C-403.5,337-407.4,337.8-410.2,337.3"/>
<path class="st2" d="M-402.6,315.6l-0.6,0.2l-0.3,0.3l0.4,0.3l0.2,0.1c0,0,0,0,0.1,0c1.4-0.2,3-1.9,3.1-3c-1.4-0.2-3.4,0.5-4.5,2
	l0.5,0.2l0.3-0.3l0.7-0.2l0.2,0.1C-402.4,315.5-402.4,315.5-402.6,315.6C-402.5,315.6-402.5,315.6-402.6,315.6"/>
<path class="st2" d="M-405.3,315l0.2-0.1c1-1.2,2.6-2.1,3.9-2.4l1.5-0.2l-0.9-2.4l-0.6-1.4c-0.6-0.5-1.3-0.7-2-0.6
	c-2.7,1.4-3.6,4-4.4,6L-405.3,315"/>
<path class="st2" d="M-410.4,314.7l0.5-0.2c0-1.2,0.1-2.3,1.1-3.4l0.2,0.1l-0.5,3.2c0,0,0,0,0.1-0.1c0.3-1.8,1.4-3.6,2.5-5.3
	l-2.5,0.2C-410.2,311-410.5,312.8-410.4,314.7L-410.4,314.7"/>
<path class="st2" d="M-421.3,352.2l-0.7-1.1c-0.4-0.6-0.3-1.2-0.4-1.9l0.2-0.9c-0.2-0.3,0-1.1,0-1.5l1.3-1.5l0.4,0.1l0.6-1.1h0.1
	c0.9-1.5,3-0.4,4.1-1.7c0.1-0.1,0.2-0.3,0.3-0.4l1.8-0.8c1-0.4,1.7-0.1,2.5,0.4c0.4,0.3,0.6,0.2,1.1,0.2c-0.1,0.4,0.4,0.5,0.6,0.7
	l0.7-0.1l2.7,1.1v0.7c0.2,0.2,0.4,0.3,0.6,0.4l-0.1,0.4c0.1,0.1,0.3,0.1,0.5,0.1l1.2,0.5c0.3,1,0.8,1.6,1.5,2.5v1.5l0.5,1.2
	l-0.6,0.6l0.4,0.6c0.3,0.4-0.9,2-1.2,2.4h-0.7l-0.4,0.4h-0.6l-0.3,0.5l-2.8,0.1l-0.1-0.1l-2.5-1.1c-0.3,0.1-0.8,0.2-1,0.5l-3.7-0.9
	c-1.8,0-4,0.3-5.4-1.1L-421.3,352.2"/>
<g>
	<defs>
		<path id="SVGID_1_" d="M-395.2,248.1l-149.3,147.8H-395C-395,395.9-396,248.9-395.2,248.1z"/>
	</defs>
	<clipPath id="SVGID_2_">
		<use xlink:href="#SVGID_1_"  style="overflow:visible;"/>
	</clipPath>
	<g class="st3">
		<rect x="-518" y="248.6" class="st4" width="15.5" height="147"/>
		<rect x="-432.5" y="248.6" class="st4" width="15.5" height="147"/>
		<rect x="-461" y="248.6" class="st4" width="15.5" height="147"/>
		<rect x="-404.1" y="248.6" class="st4" width="8.7" height="147"/>
		<rect x="-543.4" y="248.6" class="st4" width="12.5" height="147"/>
		<rect x="-489.5" y="248.6" class="st4" width="15.5" height="147"/>
		<rect x="-530.9" y="238.2" class="st5" width="12.9" height="10.4"/>
		<rect x="-530.9" y="395.7" class="st5" width="12.9" height="3.4"/>
		<rect x="-530.9" y="248.6" class="st5" width="12.9" height="147"/>
		<rect x="-502.4" y="238.2" class="st5" width="12.9" height="10.4"/>
		<rect x="-502.4" y="395.7" class="st5" width="12.9" height="3.4"/>
		<rect x="-502.4" y="248.6" class="st5" width="12.9" height="147"/>
		<rect x="-474" y="238.2" class="st5" width="12.9" height="10.4"/>
		<rect x="-474" y="395.7" class="st5" width="12.9" height="3.4"/>
		<rect x="-474" y="248.6" class="st5" width="12.9" height="147"/>
		<rect x="-445.5" y="238.2" class="st5" width="12.9" height="10.4"/>
		<rect x="-445.5" y="395.7" class="st5" width="12.9" height="3.4"/>
		<rect x="-445.5" y="248.6" class="st5" width="12.9" height="147"/>
		<rect x="-417" y="395.7" class="st5" width="12.9" height="3.4"/>
		<rect x="-417" y="238.2" class="st5" width="12.9" height="10.4"/>
		<rect x="-417" y="248.6" class="st5" width="12.9" height="147"/>
	</g>
</g>
<path class="st6" d="M-530.8,307.8c-2.2,2.7-3.4,5.8-3.8,9.2c-0.4,3.8,0.5,7.4,2.6,10.6c2,3.2,4.9,5.4,8.4,6.6c4,1.4,8.1,1.3,12-0.3
	c1-0.4,2-1,3-1.5c0.1-0.1,0.3-0.1,0.4,0c0.8-0.7,2.5-2.3,4-4.2c1-1.4,1.8-2.8,2.4-4.4c0.8-2.1,1.1-4.4,1-6.7
	c-2.7-0.1-5.4-0.2-8.2-0.3c0.4,3.4-0.5,6.2-3.1,8.4c-1.9,1.6-4.2,2.2-6.6,1.9c-4.8-0.6-8.3-4.8-7.9-9.6c0.4-4.7,4.9-9.2,10.8-7.9
	c0.1-2.7,0.2-5.4,0.3-8.2c-4.6-0.5-8.8,0.7-12.5,3.5c0-0.1-0.1-0.1-0.1-0.2c-1,0.8-1.9,1.7-2.7,2.7
	C-530.6,307.5-530.7,307.7-530.8,307.8z"/>
<path class="st6" d="M-460.3,280.3c1.2,1,2.2,2.1,3.3,3.3c1.8-1.7,3.5-3.3,5.3-5c-0.1-0.1-0.1-0.2-0.2-0.3c-1-1-1.9-2.1-2.9-3
	c-1.7-1.6-3.5-3.1-5.4-4.5c-2.8-2-5.8-3.7-8.9-5c-3.5-1.5-7-2.6-10.8-2.9c-1.6-0.1-3.2-0.1-4.8,0c0,0-0.6,2.2-0.6,5.1
	c0,0.1,0,0.1,0,0.2c0.1,3.3,0.8,6.4,1.9,9.5c1.3,4,3.2,7.7,5.5,11.2c1,1.6,2.1,3.1,3.4,4.5c1.1,1.2,2.1,2.3,3.2,3.5
	c0.1,0.2,0.3,0.3,0.5,0.1c1.6-1.6,3.3-3.1,4.9-4.7c0,0,0.1-0.1,0.1-0.2c-1.1-1.1-2.1-2.2-3.2-3.4c0.8-0.8,1.6-1.5,2.4-2.3l2.7-2.5
	c0,0,0,0,0,0C-462.9,282.8-461.6,281.6-460.3,280.3z M-475.1,273.2c2.2,0.7,4.2,1.5,6.1,2.6c-1.3,1.2-2.5,2.4-3.8,3.6
	C-473.9,277.5-474.5,275.4-475.1,273.2z"/>
<path class="st2" d="M-150.1,135c-0.7-0.2-1.4-0.4-2.1-0.7c0,0,0.2,1.4,1,3.3c0.2-0.1,0.3-0.1,0.5-0.2
	C-151.9,136.2-150.3,135.9-150.1,135z"/>
<g>
	<path class="st6" d="M-483.4,319.5c0.2,0.5,0.5,1,0.9,1.4c0.8,1.1,1.8,2,2.8,2.8c0.3,0.2,0.8,0.3,1.2,0.4c0.2,0,0.4-0.1,0.4-0.4
		c0-1-0.2-1.8-0.9-2.5c-0.2-0.3-0.3-0.5-0.1-0.8c0-0.1,0.1-0.1,0.1-0.2c0.3-0.5,0.2-0.6-0.2-0.9c-0.3-0.2-0.5-0.6-0.4-1
		c0.1-0.8,0.2-1.6,0.8-2.3c0.5-0.7,0.6-1.6,0.5-2.5c-0.1-0.9-0.1-1.7-0.2-2.6c0-0.1,0-0.3,0.1-0.4c0,0,1.9-6.2-0.8-11
		c-0.3-0.1-0.6-0.2-0.9-0.3c-1.2-0.1-2.4-0.3-3.6-0.1c-0.5,0.1-1,0.2-1.5,0.3c-0.1-0.3-0.3-0.7-0.4-1c-0.1-0.2-0.2-0.3-0.4-0.3
		c-0.6-0.1-1.2-0.2-1.8-0.2c-0.6,0-1.3-0.1-1.9-0.1c-0.3,0-0.6-0.1-0.8-0.3c-0.3-0.4-0.8-0.4-1.3-0.3c-0.4,0.1-0.8,0.2-1.2,0.4
		c-0.8,0.2-1.7,0-2.2-0.6c-0.3-0.4-0.3-0.8,0-1.3c0.2-0.3,0.4-0.5,0.6-0.8c0.1-0.1,0.1-0.2,0.2-0.4c-0.7-0.2-1.2,0.1-1.4,0.6
		c-0.2,0.4-0.3,0.7-0.4,1.1c-0.1,0.2-0.1,0.3-0.2,0.5c-0.2,0.6-0.4,0.7-1.1,0.7c-0.8-0.1-1.3-0.6-1.7-1.2c-0.4-0.4-0.7-0.9-1.1-1.4
		c-0.3-0.4-0.4-0.9-0.4-1.5c0.1-0.7,0.3-1.4,0.7-2c0-0.1,0.2-0.2,0.3-0.1c0.3,0,0.6,0.1,1,0.1c0.3,0,0.5-0.1,0.5-0.3
		c0.1-0.2,0.1-0.4,0.1-0.6c0-0.5,0.1-0.6,0.6-0.7c0.5-0.1,0.5-0.4,0.2-0.7c-0.3-0.3-0.1-0.5-0.1-0.8c0-0.1,0-0.3,0.1-0.4
		c0.1-0.4,0-0.6-0.5-0.8c-0.1,0-0.3-0.1-0.5-0.1c0.1-0.1,0.2-0.2,0.3-0.3c-0.3-0.3-0.6-0.6-0.9-0.8c-0.2-0.2-0.3-0.3-0.3-0.7
		c0.1-0.4,0-0.7,0-1.1c0,0,0-0.1,0-0.1c-0.2-0.3-0.1-0.6,0.1-0.8c0.3-0.4,0.7-0.9,1-1.3c0.3-0.4,0.3-0.5,0-0.9c0-0.1,0-0.2,0-0.3
		c0-0.3,0.1-0.5,0-0.8c-0.3-0.6-0.4-1.1-0.4-1.8c0-0.1,0-0.2,0-0.3c-0.3,0-0.5,0.1-0.8,0.1c-0.1-0.5-0.2-0.6-0.7-0.5
		c-0.5,0.1-1,0.2-1.5,0.3c-0.2,0-0.3,0-0.5,0c0.1-0.3,0.3-0.6,0.4-0.8c0.2-0.5-0.2-0.9-0.7-0.8c-0.4,0.1-0.7,0.2-0.9-0.2
		c0,0-0.1,0-0.2,0c-0.6,0-1.1,0.2-1.6,0.5c-0.1,0.1-0.2,0.3-0.1,0.4c0.1,0.4,0.1,0.9,0.2,1.3c0.1,0.4,0.1,0.8-0.2,1.2
		c0.1,0.1,0.1,0.2,0.2,0.2c-0.3,0.1-0.6,0.3-0.9,0.2c-0.2,0-0.5,0.1-0.6,0.2c-0.4,0.3-0.4,0.3-0.6-0.2c-0.3,0-0.6,0.1-0.8,0.1
		c-0.3,0-0.4-0.1-0.5-0.4c0-0.4-0.1-0.7-0.4-0.9c-0.1-0.1,0-0.4,0-0.6c0-0.1,0-0.2,0-0.3c-0.4-0.6-0.2-1.1,0.2-1.6
		c0.3-0.4,0.7-0.8,1-1.3c0.1-0.2,0.2-0.5,0.3-0.7c-0.6-0.2-0.6-0.2-0.6-0.8c0-0.3-0.1-0.6-0.3-0.8c-0.2-0.2-0.4-0.2-0.7-0.1
		c-0.1,0.1-0.2,0.1-0.3,0.2c-0.3,0.1-0.5,0.3-0.8,0.4c0,0.2,0.2,0.3,0.3,0.4c0.1,0.2,0.2,0.3,0,0.5c-0.1-0.1-0.2-0.1-0.3-0.2
		c-0.3-0.2-0.5-0.3-0.8-0.1c0,0-0.1,0-0.2,0c-0.3-0.1-0.7-0.3-1-0.4c-0.2-0.1-0.3-0.1-0.4,0.1c-0.1,0.2-0.2,0.3,0.1,0.5
		c0.3,0.2,0.4,0.4,0.3,0.7c-0.2,0.6-0.6,1-1,1.3c-0.1,0.1-0.3,0.2-0.4,0.3c-0.2,0.2-0.5,0.4-0.8,0.4c-0.4,0-0.6,0.3-0.8,0.6
		c-0.2,0.3-0.4,0.7-0.7,1c-0.3,0.3-1,0.3-1.4,0c-0.1,0-0.2-0.1-0.2,0c-1,0.1-2,0.1-3-0.1c-0.1,0-0.3,0-0.3,0.1
		c-0.3,0.4-0.6,0.8-0.9,1.3c-0.6,1-1.6,1.4-2.7,1.5c-0.8,0-1.7,0-2.6-0.1c-0.9-0.1-1.5,0.3-1.9,1.1c-0.3,0.6-0.5,1.2-0.7,1.8
		c-0.1,0.2-0.2,0.4-0.3,0.6c-0.2,0.4-0.2,0.6,0.2,0.9c0.2,0.2,0.5,0.3,0.7,0.4c0.7,0.4,0.9,0.5,0.2,1.1c-0.2,0.2-0.4,0.5-0.6,0.7
		c-0.2,0.2-0.2,0.4,0.1,0.5c0.2,0.1,0.5,0.1,0.7,0.2c0.2,0,0.5,0,0.7,0c0.4,0,0.6,0.3,0.4,0.7c-0.2,0.5-0.5,1-0.7,1.5
		c-0.2,0.4-0.2,0.9-0.1,1.3c0.1,0.3,0.3,0.4,0.6,0.3c0.2-0.1,0.5-0.2,0.7-0.4c0.2,0.3-0.2,0.8,0.5,0.8c0,0.1-0.1,0.1-0.1,0.2
		c0.8,0.3,2,0.6,3.5,0.2c0,0,0-0.1,0.1-0.1c1.1-0.7,2.2-1.4,3.3-2.1c0.2-0.1,0.5-0.2,0.7-0.3c0.1,0,0.2,0,0.3,0
		c0.3,0.2,0.7,0.1,1,0.1c1.1-0.1,2,0.5,2.6,1.4c0.5,0.8,1,1.6,1.5,2.4c0.3,0.5,0.8,1,1.3,1.4c0.2,0.1,0.2,0.3,0.1,0.5
		c1.2,0.3,2.4,0.6,3.3,1.3c-0.2,0.4-0.3,0.7-0.5,1.1c0.4,0,0.7,0.1,1,0.1c0.3,0,0.6,0,0.9,0c0.6,0,1.1,0.3,1.6,0.5
		c0.1,0.1,0.2,0.3,0.3,0.4c0.1,0.1,0.2,0.3,0.3,0.4c0.2,0.2,0.5,0.2,0.7,0c0.2-0.2,0.3-0.3,0.5-0.5c0.1-0.1,0.1-0.3-0.1-0.4
		c-0.8-0.3-1.4-0.9-2-1.5c-0.5-0.5-1-1-1.7-1.2c-0.3-0.1-0.6-0.2-1-0.2c0-0.4,0.5-0.7,0.8-0.6c1.6,0.5,2.9,1.4,4.1,2.4
		c0.7,0.6,1.3,1.3,1.9,1.9c0.1,0.1,0.3,0.2,0.5,0.3c2,0.7,3.8,0.3,5.5-1.1c0.5-0.4,1.3-0.7,1.9-0.6c-0.3,0.6,0,1.1,0.2,1.6
		c0.2,0.4,0.1,0.7,0,1.1c0,0-0.1,0.1-0.1,0.1c-0.3,0.2-0.3,0.3,0.1,0.5c0.8,0.4,1,0.8,0.7,1.7c-0.2,0.5-0.4,1-0.5,1.5
		c-0.1,0.6,0.1,1.1,0.7,1.3c0.1,0.1,0.3,0.1,0.5,0.1c-0.1,0.2-0.2,0.4-0.3,0.6c-0.1,0.2-0.2,0.3-0.2,0.5c-0.1,0.3,0,0.5,0.3,0.7
		c1,0.8,2.2,1.2,3.3,1.6c0.7,0.3,1.3,0.5,2,0.8c0.8,0.3,1.3,0.9,1.6,1.6c0.3,0.7,0.5,1.4,0.7,2.1c0,0,0.9,1.6,1.5,3.9
		c0.1,0.2,0.1,0.3,0.1,0.5C-483.7,318.5-483.5,319-483.4,319.5z"/>
	<path class="st6" d="M-505.3,269.1c-0.2,0.1-0.3,0.2-0.5,0.4c-0.3,0.2-0.5,0.2-0.7-0.1c-0.1-0.1-0.2-0.3-0.3-0.4
		c-0.1,0.1-0.2,0.1-0.2,0.2c-0.2-0.3-0.4-0.4-0.7-0.4c-0.7-0.1-1.4,0-2,0.3c-0.7,0.4-0.8,0.9-0.3,1.6c0.5,0.6,1.1,0.8,1.8,0.5
		c0.1,0,0.2-0.1,0.3-0.1c0.4,0,0.8,0,1.2,0.1c0.9,0.1,1.2,0.7,0.8,1.5c-0.1,0.1-0.1,0.2-0.2,0.3c-0.2,0.2-0.2,0.4,0,0.7
		c0.3,0.4,0.3,0.4,0.7,0.1c0.4-0.3,0.8-0.2,1.1,0.2c0.1,0.1,0.2,0.2,0.4,0.3c0.4,0.1,1,0,1.5-0.2c-0.1-0.1-0.1-0.3-0.2-0.4
		c-0.1-0.2-0.1-0.3-0.1-0.5c0-0.2,0-0.4-0.3-0.6c0,0-0.1-0.9-0.9-2.8c-0.2,0.1-0.4,0.2-0.6,0.3C-504.8,269.7-505,269.4-505.3,269.1z
		"/>
</g>
</svg>
