<?xml version="1.0" encoding="utf-8"?>
<!-- Generator: Adobe Illustrator 18.1.1, SVG Export Plug-In . SVG Version: 6.00 Build 0)  -->
<svg version="1.1" id="Layer_1" xmlns="http://www.w3.org/2000/svg" xmlns:xlink="http://www.w3.org/1999/xlink" x="0px" y="0px"
	 viewBox="0 0 198.7 326.2" enable-background="new 0 0 198.7 326.2" xml:space="preserve">
<g>
	<rect x="53.2" y="88.4" fill="#373A5E" width="12.2" height="231"/>
	<rect x="65.4" y="149.4" fill="#2F6CAC" width="6.5" height="170"/>
	<path fill="#373A5E" d="M121.1,139.6c0,5.6-3.2,10.1-7.2,10.1H7.2c-4,0-7.2-4.5-7.2-10.1V10.1C0,4.5,3.2,0,7.2,0h106.7
		c4,0,7.2,4.5,7.2,10.1V139.6z"/>
	<path fill="#C42C12" d="M117.5,134.2c0,5.2-3,9.3-6.7,9.3h-99c-3.7,0-6.7-4.2-6.7-9.3V14.8c0-5.2,3-9.3,6.7-9.3h99
		c3.7,0,6.7,4.2,6.7,9.3V134.2z"/>
	<path fill="#ACC9E5" d="M117.5,134.2c0,5.2-3,9.3-6.7,9.3h-99c-3.7,0-6.7-4.2-6.7-9.3V14.8c0-5.2,3-9.3,6.7-9.3h99
		c3.7,0,6.7,4.2,6.7,9.3V134.2z"/>
	<g>
		<rect x="23.7" y="36.1" fill="#2F6CAC" width="73.7" height="19.6"/>
		<path fill="#FFFFFF" d="M23.7,55.7h73.7v61.7c0,0,1.1,6.2-5.2,7c-6.3,0.8-25.6,1.4-31.5,10.4c0,0-6.8-8.8-20.1-9.1
			s-17.1-1.5-16.9-7.3V55.7z"/>
		<rect x="37.3" y="65.7" fill="#2F6CAC" width="46.4" height="50.2"/>
		<rect x="51.3" y="65.5" fill="#FFFFFF" width="18.5" height="53.9"/>
		<g>
			<polygon fill="#231F20" points="56.7,85.4 56.7,71.9 54.6,68.9 59.1,68.9 60.8,71 62.9,68.9 67.7,68.9 64.4,72 64.4,85.4 
				73.1,85.4 76.1,83.2 76.1,86.8 73.3,89.2 76.1,91.3 76.1,95.1 73.3,92.7 64.5,92.7 64.5,109.2 66.7,112.5 62.2,112.5 60.9,110.4 
				59.3,112.5 54.6,112.5 57,109.5 57,92.6 48.3,92.6 45.3,94.7 45.3,90.7 48,89.2 45,87.1 45,82.4 47.9,85.6 			"/>
			<polygon fill="#FFFFFF" points="57.2,85.8 57.1,72.4 55.4,69.4 58.9,69.4 60.8,71.4 62.9,69.4 66.6,69.4 64,72.3 64,85.8 
				73.1,86 75.8,84 75.8,86.6 72.5,89.2 75.5,91.5 75.8,94.3 73.2,92.1 64.1,92.1 64,108.8 65.9,112.1 62.2,112.1 60.9,110 
				59.3,112.1 55.5,112.1 57.5,109.1 57.4,92.1 48.5,92 45.6,94 45.6,91 48.7,89.3 45.3,86.8 45.3,83.4 48.2,86.2 			"/>
		</g>
		<g>
			<path fill="#2D6CAB" d="M37.9,17.4l5.7,11.7c0,0,17.6,6.2,34.2,0L84.5,16l-8.3,7.9c0,0-14.9-5-30.9,0.8L37.9,17.4z"/>
			<rect x="59.1" y="11.4" fill="#2F6CAB" width="4.4" height="10.7"/>
			<rect x="56" y="13.5" fill="#2D6CAB" width="10.7" height="4.4"/>
			<rect x="69.9" y="13.5" fill="#2F6BAB" width="4.4" height="10.7"/>
			<rect x="66.6" y="15.6" fill="#2D6CAB" width="10.7" height="4.4"/>
			<rect x="48.4" y="13.7" fill="#2D6CAB" width="4.4" height="10.7"/>
			<rect x="45.3" y="15.8" fill="#2D6CAB" width="10.7" height="4.4"/>
		</g>
		<g>
			<path fill="#FFFFFF" d="M84.9,50.4h-6.3l-0.9,2.4h-5.7l6.7-14.6h6.1l6.7,14.6h-5.8L84.9,50.4z M83.8,47.3l-2-5.3l-2,5.3H83.8z"/>
		</g>
		<g>
			<path fill="#FFFFFF" d="M42,46.9l4.9,1.2c-0.3,1.1-0.8,2-1.5,2.8c-0.7,0.7-1.6,1.3-2.6,1.7c-1,0.4-2.4,0.6-4,0.6
				c-2,0-3.5-0.2-4.8-0.7c-1.2-0.5-2.3-1.3-3.2-2.4s-1.3-2.6-1.3-4.5c0-2.4,0.8-4.3,2.4-5.6c1.6-1.3,3.8-1.9,6.7-1.9
				c2.3,0,4,0.4,5.3,1.1c1.3,0.7,2.3,1.9,2.9,3.4l-4.9,0.9c-0.2-0.4-0.4-0.8-0.5-1c-0.3-0.3-0.7-0.6-1.1-0.8s-1-0.3-1.5-0.3
				c-1.3,0-2.2,0.4-2.9,1.2c-0.5,0.6-0.8,1.6-0.8,2.9c0,1.6,0.3,2.7,0.9,3.3c0.6,0.6,1.5,0.9,2.5,0.9c1.1,0,1.9-0.2,2.4-0.7
				C41.4,48.5,41.8,47.8,42,46.9z"/>
		</g>
	</g>
</g>
<g>
	<path fill="#F9BD91" d="M88.2,192.6c-3.4,18.2,4.6,18.9,7.4,18.1c2.8-0.7,1.2-10.8,1.2-10.8s0.3,4.3,2.5,3.7c2.1-0.6,2-5.6,2-5.6
		s0.5-8.3-5.1-9C90.4,188.4,88.2,192.6,88.2,192.6z"/>
	<path fill="#2E3192" d="M88.2,192.6l9.6-3l19.1-62.7l-8.7-23C108.1,103.8,93.8,148.2,88.2,192.6z"/>
	<polygon fill="#F9BD91" points="109.3,234.2 105.3,264.9 121.7,264.9 131.7,234.2 	"/>
	<polygon fill="#F9BD91" points="147.1,234.4 155.4,259.8 171.5,259.8 166.1,231.4 	"/>
	<polygon fill="#2E3192" points="105.4,264.5 99.9,311.7 108.1,314.3 121.7,264.9 	"/>
	<polygon fill="#2E3192" points="155.4,259.8 175.1,314.3 184,314.3 171.5,259.8 	"/>
	<path fill="#F9BD91" d="M189,187.5c3.1,16.6-4.2,17.2-6.7,16.6c-2.6-0.7-1.1-9.8-1.1-9.8s-0.3,3.9-2.2,3.3c-2-0.5-1.9-5.1-1.9-5.1
		s-0.5-7.5,4.7-8.2S189,187.5,189,187.5z"/>
	<path fill="#2E3192" d="M116.9,126.9l1.8,67.6l44.6-0.3l2.9-63.5l13.5,56.6h6.4l-12.8-83.5c0,0-31.7-14.1-65,0L116.9,126.9z"/>
	<path fill="#F9BD91" d="M153.1,62.3v27.6h-4.4v9.6c0,0-5,9.8-17.1,0V79.6c0,0-3.7-0.7-3.7-5c0-4.2,4.2-2.2,4.2-2.2v-9.6L153.1,62.3
		z"/>
	<path fill="#231F20" d="M184,314.3h-8.9c0,0-3.5,11.2,8.1,11.9h15c0,0,3.3-7.1-5.6-7.6C192.5,318.6,184.8,317.3,184,314.3z"/>
	<path fill="#231F20" d="M99.9,311.7h8.9c0,0,3.5,11.2-8.1,11.9h-15c0,0-3.3-7.1,5.6-7.6C91.3,316,99.1,314.6,99.9,311.7z"/>
	<path fill="#594A42" d="M132.1,72.4v3.3h1.8v-6.3c0,0,3.7-2.4,3.9-7.2h-7.6c0,0-1.4,4.3-0.8,9.7C129.4,72.1,131.3,71.9,132.1,72.4z
		"/>
	<rect x="123.2" y="103.8" fill="#FFFFFF" width="6" height="90.4"/>
	<rect x="133" y="106.4" fill="#FFFFFF" width="6" height="87.8"/>
	<rect x="142.5" y="106.4" fill="#FFFFFF" width="6" height="87.8"/>
	<rect x="152.2" y="103.8" fill="#FFFFFF" width="6" height="90.4"/>
	<path fill="#594A42" d="M136.9,63.2l20.1-0.9c0,0-11.3-13.6-26.9,0"/>
	<polygon fill="#2E3192" points="118.6,194.5 106.6,240.8 136.9,242.4 140.5,220.8 142.5,242.4 172.9,242.4 163.2,194.2 	"/>
</g>
</svg>
