<?xml version="1.0" encoding="utf-8"?>
<!-- Generator: Adobe Illustrator 18.1.1, SVG Export Plug-In . SVG Version: 6.00 Build 0)  -->
<svg version="1.1" id="Layer_1" xmlns="http://www.w3.org/2000/svg" xmlns:xlink="http://www.w3.org/1999/xlink" x="0px" y="0px"
	 viewBox="0 0 238.8 468.3" enable-background="new 0 0 238.8 468.3" xml:space="preserve">
<g>
	<path fill="#18723C" d="M24.3,98.1c0,0,50.2-20.6,128.5,0l-23.6,138.7c0,0-29.6,2.4-79.1,0L24.3,98.1z"/>
	<path fill="#F9BD91" d="M114.7,17.9v59.2h-9v19.5c0,0-10.1,19.9-34.9,0V56.1c0,0-7.5-1.5-7.5-10.1s8.6-4.5,8.6-4.5V17.9H114.7z"/>
	<polygon fill="#8B5E3C" points="62.6,443.2 60.1,454.8 50,454.8 50,443.2 	"/>
	<path fill="#231F20" d="M50,454.8h10.1c0,0,3.9,12.7-9.2,13.5H33.9c0,0-3.7-8.1,6.4-8.6C40.3,459.7,49.1,458.2,50,454.8z"/>
	<polygon fill="#8B5E3C" points="108,443.2 110.4,454.8 120.5,454.8 120.5,443.2 	"/>
	<path fill="#231F20" d="M120.5,454.8h-10.1c0,0-3.9,12.7,9.2,13.5h17.1c0,0,3.7-8.1-6.4-8.6C130.3,459.7,121.5,458.2,120.5,454.8z"
		/>
	<path fill="#E6E7E8" d="M83.7,59.4h29.6c0,0-5.2-9.2-14.8-9.2S83.7,59.4,83.7,59.4z"/>
	<path fill="#E6E7E8" d="M83.7,59.4L82.3,61c0,0,13,2.2,17.1-1.6c0,0,10,2,14.9,1.6l-1.2-2C113,59,92.7,57.1,83.7,59.4z"/>
	<polygon fill="#A97C50" points="52.8,237.8 48.7,443.2 63.4,443.2 92.2,275 108,443.2 122.1,443.2 127.4,236.7 	"/>
	<path fill="#A97C50" d="M24.3,98.1c0,0,50.2-20.6,128.5,0l-23.6,138.7c0,0-29.6,2.4-79.1,0L24.3,98.1z"/>
	<path fill="#A97C50" d="M114.7,17.9v59.2h-9v19.5c0,0-10.1,19.9-34.9,0V56.1c0,0-7.5-1.5-7.5-10.1s8.6-4.5,8.6-4.5V17.9H114.7z"/>
	<polygon fill="#8B5E3C" points="62.6,443.2 60.1,454.8 50,454.8 50,443.2 	"/>
	<path fill="#E6E7E8" d="M50,454.8h10.1c0,0,3.9,12.7-9.2,13.5H33.9c0,0-3.7-8.1,6.4-8.6C40.3,459.7,49.1,458.2,50,454.8z"/>
	<polygon fill="#8B5E3C" points="108,443.2 110.4,454.8 120.5,454.8 120.5,443.2 	"/>
	<path fill="#E6E7E8" d="M120.5,454.8h-10.1c0,0-3.9,12.7,9.2,13.5h17.1c0,0,3.7-8.1-6.4-8.6C130.3,459.7,121.5,458.2,120.5,454.8z"
		/>
	<polygon fill="#E6E7E8" points="48.7,232.5 41.9,334.2 88.1,334.2 91,294.5 94,334.2 130.4,334.2 130,232.5 	"/>
	<polygon fill="#E6E7E8" points="48.7,415.7 68.7,415.7 60.7,457.5 48.7,457.5 	"/>
	<polygon fill="#E6E7E8" points="122.8,414.2 104.6,414.3 110.1,456.2 122.1,456.1 	"/>
	<rect x="47.9" y="224.5" fill="#231F20" width="82.4" height="18.6"/>
	<polyline fill="#A97C50" points="152.9,98.1 189.3,153.1 203.1,106.7 220.8,106.7 197.4,198.1 142.9,145 	"/>
	<path fill="#BE1E2D" d="M238.4,95.4c-1.9,11.3-11.8,19-22.1,17.3l-8.8-1.5c-10.3-1.7-17.2-12.3-15.3-23.6l0,0
		c1.9-11.3,11.8-19,22.1-17.3l8.8,1.5C233.5,73.6,240.3,84.1,238.4,95.4L238.4,95.4z"/>
	
		<rect x="195.8" y="105.8" transform="matrix(0.9862 0.1658 -0.1658 0.9862 22.123 -33.3425)" fill="#BE1E2D" width="29.9" height="20"/>
	<path fill="#231F20" d="M71.9,41.5v3.4h3.4h1.2V33.8c0,0,6.8-1.8,7.1-5.5c0.3-3.7,0-7,0-7h29.6l1.4,4.7c0,0,5.6-14.6,1.7-18.5
		S55.3,1.3,57.5,24.2c0,0,1.5,19.4,6.1,24c0,0-1.8-7.4,3.4-7.6C71.8,40.3,71.9,41.5,71.9,41.5z"/>
	<polygon fill="#936944" points="42.4,194.6 99.6,143 46.1,214.7 	"/>
	<polygon fill="#A97C50" points="24.3,99.5 7.8,188.6 30.3,206.1 69,169.4 53.8,156.9 	"/>
	<path fill="#BE1E2D" d="M102.6,150.6c-7.3,8.8-19.7,10.6-27.8,3.9l-6.9-5.7c-8.1-6.6-8.8-19.2-1.5-28l0,0
		c7.3-8.8,19.7-10.6,27.8-3.9l6.9,5.7C109.2,129.3,109.8,141.8,102.6,150.6L102.6,150.6z"/>
	
		<rect x="51.7" y="144.6" transform="matrix(0.7725 0.635 -0.635 0.7725 113.2898 -7.1439)" fill="#BE1E2D" width="29.9" height="20"/>
</g>
</svg>
