<?xml version="1.0" encoding="utf-8"?>
<!-- Generator: Adobe Illustrator 18.1.1, SVG Export Plug-In . SVG Version: 6.00 Build 0)  -->
<svg version="1.1" id="Layer_1" xmlns="http://www.w3.org/2000/svg" xmlns:xlink="http://www.w3.org/1999/xlink" x="0px" y="0px"
	 viewBox="0 0 79.3 160.2" enable-background="new 0 0 79.3 160.2" xml:space="preserve">
<g>
	<polygon fill="#FFFFFF" points="22.5,63.7 15.5,80 38.1,122.4 50.3,122.4 50.3,108.3 44.8,97.9 54.8,77.2 	"/>
	<path fill="#FFFFFF" d="M52.2,49.2l8.4,13.2l10.4-21.9c0,0-3.1-7.6-17.2-10.4s-27.3,2.2-35,15.8l6.1,10.1l-2.4,7.7
		c0,0,10.6,13.2,24.3,13.3C60.5,77.1,63.2,65.4,59,58.6L52.2,49.2z"/>
	<path fill="#E0E0E0" d="M52.2,49.2L37.8,38.9c0,0-4.5-0.3-5.7,3.9l17.8,19.6c0,0,10-1.9,12.2-5.5C62.1,56.8,59.2,47.7,52.2,49.2z"
		/>
	<path fill="#E0E0E0" d="M24.6,55.5c0,0-5.8,4.2-12.4,2.3c0,0-0.7-11.4,3.4-14.5c0,0,2.7,1.8,5.5,1.1L24.6,55.5z"/>
	<path fill="#070906" d="M22.5,63.7c0,0,8.1,15,20.5,16.2s14.1-6.1,14.1-6.1s-3.5,4.2-12.2,3.1S24.5,66.1,22.5,63.7z"/>
	<path fill="#E0E0E0" d="M34.4,115.4c0.2,0.3-11.2,10.8-11.2,10.8l-8.6-7.4l12.1-17.9L34.4,115.4z"/>
	<polygon fill="#151412" points="38.1,122.4 45.4,154.3 52.4,154.3 50.3,122.4 	"/>
	<polygon fill="#151412" points="23.2,126.2 5.3,143.5 0,141.8 14.6,118.9 	"/>
	<path fill="#151412" d="M5.4,142.1l-5-0.3c0,0-2.3,6.2,4.1,6.9l8.4,0.5c0,0,2.1-3.9-2.9-4.4C10,144.8,5.7,143.8,5.4,142.1z"/>
	<path fill="#151412" d="M50.9,153.6h-5c0,0-1.9,6.3,4.5,6.7h8.4c0,0,1.8-4-3.1-4.2C55.7,156,51.4,155.2,50.9,153.6z"/>
	<path fill="#F9BD91" d="M21.9,43.6c2.8-10.3-1.7-11.1-3.3-10.8c-1.6,0.3-1.2,6.1-1.2,6.1s0-2.5-1.2-2.2s-1.4,3.1-1.4,3.1
		s-0.7,4.7,2.5,5.4S21.9,43.6,21.9,43.6z"/>
	<path fill="#A97C50" d="M16.9,36.1L72,15.3c0,0,2.8-1.1,4.3,0.9c1.5,1.9-1.2,4.2-1.2,4.2L18.4,38.3"/>
	<path fill="#F9BD91" d="M66.7,13.5l-4.3,18.3l-2.8-0.7l-1.4,6c0,0-4.6,5.4-10.7-2.5l2.9-12.5c0,0-2.2-1-1.6-3.7
		c0.6-2.7,3-0.8,3-0.8l1.7-7.3L66.7,13.5z"/>
	<path fill="#3A3A93" d="M66,12.3c0,0-0.1-4.9-6.6-4.9s-9.5,2.4-10.1,10c0,0,1.2-0.8,2.5,0.2C51.8,17.7,58.1,11.9,66,12.3z"/>
	<path fill="#262262" d="M51.8,17.7c0,0,3.3-3,9-2.2c5.7,0.8,4.5,3.7,4.5,3.7s6.7-1.6,5.2-4.2C69,12.3,54.6,7.3,51.8,17.7z"/>
	<path fill="#F9BD91" d="M32.5,42.8c-9.5-6.7-6.3-10.4-4.7-11.3c1.6-0.9,5.3,4.3,5.3,4.3s-1.7-2-0.5-2.7s3.4,1.6,3.4,1.6
		s3.9,3.5,1.7,6.2S32.5,42.8,32.5,42.8z"/>
	<ellipse transform="matrix(0.9602 -0.2794 0.2794 0.9602 -9.8514 6.3615)" fill="#A97C50" cx="17.4" cy="37.7" rx="2.2" ry="3"/>
	<circle fill="#070906" cx="42" cy="71.3" r="1.1"/>
	<circle fill="#070906" cx="45.3" cy="61.3" r="1.1"/>
	<circle fill="#070906" cx="51.8" cy="44.4" r="1.1"/>
	<path fill="#070906" d="M51.8,17.7l-0.5,2.7h1.9l1.4-4.2C54.6,16.1,52.6,16.5,51.8,17.7z"/>
	<polygon fill="#262262" points="35.8,49.6 38.3,55.9 39.2,55.5 37.9,52.7 40.5,54.9 41.3,54.5 40,51.4 38.2,49.6 38.6,51.5 
		36.9,49.6 	"/>
</g>
</svg>
