<?xml version="1.0" encoding="utf-8"?>
<!-- Generator: Adobe Illustrator 18.1.1, SVG Export Plug-In . SVG Version: 6.00 Build 0)  -->
<svg version="1.1" id="Layer_1" xmlns="http://www.w3.org/2000/svg" xmlns:xlink="http://www.w3.org/1999/xlink" x="0px" y="0px"
	 viewBox="0 0 273 191.6" enable-background="new 0 0 273 191.6" xml:space="preserve">
<g>
	<g>
		<path fill="#06000D" d="M140.8,115.1l59,33v-22.7h34.9l-8.7-25.7l41.1,8c0,0-40.1-63.9-113.6-19
			C153.7,88.7,132.8,102.2,140.8,115.1z"/>
		<path fill="#06000D" d="M175.5,37.1c0,0-39.1-57.8-128.4-19.8l42.3,19.8L37.3,51l29.4,22.5L24.9,82L53,107.7L6,128.6
			c0,0,60.1,23.7,104.8-13.1l34-38.8l9.3-22.6L175.5,37.1z"/>
		<polygon fill="#B6B5B3" points="156.9,84.8 162.3,93.1 161.2,103.3 149.9,120.1 134,111.3 124.3,94.6 134,77 148.5,52 173.7,38.8 
			175.6,42.4 154.9,58.6 147.4,76.4 		"/>
		<path fill="#F9BD91" d="M168.5,74.7l-9.9,11.6l-1.8-1.5l-3.2,3.8c0,0-5.3,2.2-6.8-5.8l6.7-8c0,0-1.2-1.5,0.2-3.2
			c1.4-1.7,2.4,0.6,2.4,0.6l3.9-4.6L168.5,74.7z"/>
		<path fill="#142482" d="M133.8,107.6c-8.9-6.3-5.9-9.8-4.4-10.6c1.5-0.8,4.9,4,4.9,4s-1.6-1.9-0.5-2.5c1.1-0.6,3.2,1.5,3.2,1.5
			s3.6,3.3,1.6,5.9C136.5,108.4,133.8,107.6,133.8,107.6z"/>
		<path fill="#142482" d="M175,45.4c10.8-1.7,9.6-6.2,8.6-7.6s-6.2,1.4-6.2,1.4s2.3-1,1.6-2.1c-0.7-1.1-3.5,0-3.5,0s-4.7,1.3-4,4.6
			C172.3,44.9,175,45.4,175,45.4z"/>
		<path fill="#F7F022" d="M124.3,94.6l-5.9,5.1l5.9,11.6c0,0,10.2,5.7,10.2,5.3c0-0.5,2.5-3.6,2.5-3.6l-5.8-6.3L124.3,94.6z"/>
		<polygon fill="#142482" points="118.4,99.7 108,107.7 114.5,125.8 126.9,125.8 134.5,116.6 124.3,111.3 		"/>
		<polygon fill="#B6B5B3" points="108,107.7 98.1,118 94,133.9 109,134.7 104.9,160.3 134.5,151.8 126.9,125.8 114.2,125 		"/>
		<path fill="#F9BD91" d="M141,86.9l8.1,12.9l-2,1.2l2.7,4.2c0,0,0.5,5.7-7.6,4.8l-5.6-8.8c0,0-1.8,0.7-3-1.2
			c-1.2-1.9,1.3-2.2,1.3-2.2l-3.2-5.1L141,86.9z"/>
		<path fill="#110B1B" d="M162.8,81.8l-3.8,0.5l-1.9-5.1l-4,4.2l3.8,3.4l-4.1,4.6c0,0-5.7-0.3-6-6.6l15.5-25.2l-1.1,10.9l5.9,4.6
			l7.2-5.6L162.8,81.8z"/>
		<polygon fill="#603913" points="135,97.9 137.4,98.6 136.2,95.2 142.6,89.4 141.5,85.1 136.1,88.1 130.6,93 		"/>
		<polygon fill="#162923" points="137,113 126.9,125.8 130.6,152.9 141.9,160.3 147.6,156.4 134.5,146.1 134.5,132.5 147.6,137.4 
			161.4,154.6 170.6,155.5 177.6,149.5 197.7,152.7 203.1,185.3 208.2,184.3 207.4,144.9 181.3,125.1 178.2,104.1 173.4,104.1 
			174.3,116.6 170.3,116.6 161.2,103.3 149.9,120.1 		"/>
		<polygon fill="#D15610" points="151.3,118 157.7,127.2 159.8,143.2 167.5,120.1 158.2,107.7 		"/>
		<path fill="#F9BD91" d="M143.7,161.7c5.2,9.6,9,7,10,5.6c1-1.4-3.4-5.4-3.4-5.4s1.7,1.8,2.5,0.8c0.8-1.1-1.1-3.3-1.1-3.3
			s-2.8-4-5.6-2.2C143.2,159,143.7,161.7,143.7,161.7z"/>
		<path fill="#F9BD91" d="M178.8,102.3c-2.3-10.7-6.7-9.2-8.1-8.2c-1.4,1,1.8,6.1,1.8,6.1s-1.1-2.2-2.1-1.4c-1,0.8,0.2,3.5,0.2,3.5
			s1.6,4.6,4.8,3.7C178.5,105.1,178.8,102.3,178.8,102.3z"/>
		<path fill="#67112C" d="M208.6,183.9l-5.6,1.4c0,0-0.4,7.5,6.9,6.1l9.4-2.4c0,0,0.9-4.9-4.7-3.8
			C214.6,185.2,209.6,185.6,208.6,183.9z"/>
		<path fill="#67112C" d="M186.2,150.3l-5.7-0.4c0,0-2.8,7,4.6,8l9.6,0.7c0,0,2.5-4.4-3.2-5.1C191.5,153.5,186.5,152.2,186.2,150.3z
			"/>
	</g>
	<path fill="#999999" d="M126.9,125.8l-6.3,19.5c0,0,8.9-0.4,8.9-1C129.3,143.8,126.9,125.8,126.9,125.8z"/>
	<polygon fill="#999999" points="109,134.7 113.8,123.8 94,133.9 	"/>
</g>
</svg>
