<?xml version="1.0" encoding="utf-8"?>
<!-- Generator: Adobe Illustrator 18.1.1, SVG Export Plug-In . SVG Version: 6.00 Build 0)  -->
<svg version="1.1" id="Layer_1" xmlns="http://www.w3.org/2000/svg" xmlns:xlink="http://www.w3.org/1999/xlink" x="0px" y="0px"
	 viewBox="0 0 605 390.5" enable-background="new 0 0 605 390.5" xml:space="preserve">
<g>
	<rect x="14.4" y="170.3" fill="#FBE97F" width="423.5" height="187.2"/>
	<polygon opacity="0.1" points="213,289.5 213,238.5 12,238.5 12,307.5 197,307.5 197,359.5 410,359.5 410,289.5 	"/>
	<rect x="485.1" y="0" fill="#4FB3AA" width="13.6" height="165.2"/>
	<rect x="549.5" y="0" fill="#4FB3AA" width="13.6" height="165.2"/>
	<rect x="432" y="149.9" fill="#FBE97F" width="164.3" height="197.4"/>
	<rect x="398.1" y="346.1" fill="#E11F2A" width="199.1" height="43.6"/>
	<rect x="4.2" y="244.9" fill="#F1AD4C" width="199.1" height="144.8"/>
	<rect x="201.6" y="298" fill="#F1AD4C" width="199.1" height="91.7"/>
	<rect x="17" y="321.9" fill="#3B8891" width="86.9" height="24.6"/>
	<rect x="148.3" y="321.9" fill="#3B8891" width="24.6" height="24.6"/>
	<rect x="207.1" y="321.9" fill="#3B8891" width="145.4" height="24.6"/>
	<rect x="360.9" y="341.1" fill="#457A8C" width="28" height="48.3"/>
	<rect x="53.4" y="186.4" fill="#3B8891" width="18.6" height="38.1"/>
	<rect x="158.4" y="186.4" fill="#3B8891" width="18.6" height="38.1"/>
	<rect x="188.9" y="186.4" fill="#3B8891" width="18.6" height="38.1"/>
	<rect x="219.4" y="186.4" fill="#3B8891" width="18.6" height="38.1"/>
	<rect x="249.9" y="186.4" fill="#3B8891" width="18.6" height="38.1"/>
	<rect x="218.8" y="258" fill="#3B8891" width="212.2" height="26.9"/>
	<rect x="280.4" y="186.4" fill="#3B8891" width="18.6" height="38.1"/>
	<rect x="310.9" y="186.4" fill="#3B8891" width="18.6" height="38.1"/>
	<rect x="341.4" y="186.4" fill="#3B8891" width="18.6" height="38.1"/>
	<rect x="371.9" y="186.4" fill="#3B8891" width="18.6" height="38.1"/>
	<rect x="402.4" y="186.4" fill="#3B8891" width="18.6" height="38.1"/>
	<rect x="23.7" y="186.4" fill="#3B8891" width="18.6" height="38.1"/>
	<rect x="432" y="150" opacity="0.1" width="28.1" height="196.4"/>
	<circle fill="#E11F2A" cx="114.7" cy="205.6" r="26"/>
	<g>
		<g id="KRyJ1s.tif_6_">
			<g>
				<path fill="#F1FFFF" d="M101,196.6c0.2,0.1,0.3,0.1,0.5,0.2c0.4,0.2,0.6,0.5,0.6,1c0,0.4,0,0.8-0.2,1.1
					c-0.1,0.2-0.3,0.5-0.4,0.7c-0.2,0.2-0.4,0.4-0.7,0.4c-0.3,0-0.5-0.1-0.5-0.4c0-0.2,0-0.4,0.1-0.6c0.2-0.3,0.4-0.6,0.8-0.7
					c0.1,0,0.2,0,0.2,0c0.1,0,0.1,0,0.2-0.1c0.1-0.4-0.1-0.7-0.5-0.7c-0.2,0-0.4,0-0.6,0.1c-0.8,0.3-1.5,0.8-2.2,1.3
					c-2,1.9-3.6,4-4.8,6.5c-0.4,0.9-0.7,1.8-0.9,2.8c-0.1,0.7-0.1,1.3,0,2c0.2,0.8,0.7,1.4,1.5,1.7c0.6,0.3,1.3,0.4,2,0.3
					c1.1-0.1,2.2-0.4,3.3-0.6c1.2-0.3,2.5-0.6,3.7-0.9c1.2-0.3,2.4-0.4,3.6-0.3c1.4,0.1,2.7,0.5,3.8,1.3c0.6,0.5,1.3,0.9,1.8,1.5
					c0.1,0.1,0.2,0.2,0.3,0.3c0,0-0.1,0-0.1-0.1c-1.1-0.7-2.4-1.1-3.7-1.1c-0.6,0-1.1,0.1-1.6,0.5c-0.2,0.2-0.4,0.4-0.7,0.6
					c0,0,0,0,0,0c-0.5-0.9-1.3-1.4-2.2-1.6c-0.7-0.2-1.4-0.2-2.1-0.1c-1.2,0.1-2.4,0.4-3.6,0.7c-1.1,0.3-2.2,0.5-3.3,0.7
					c-0.9,0.2-1.8,0.2-2.6-0.2c-1.3-0.5-2.1-1.4-2.4-2.7c-0.1-0.3-0.1-0.5-0.1-0.8c0,0,0-0.1,0-0.1c0-0.2,0-0.5,0-0.7
					c0-0.2,0-0.4,0.1-0.5c0.1-1,0.4-2,0.8-3c0.8-1.9,2-3.6,3.5-5c0.9-0.9,2-1.8,3.1-2.5c0.7-0.4,1.3-0.7,2.1-0.8
					c0.2-0.1,0.5-0.1,0.7-0.1C100.7,196.6,100.9,196.6,101,196.6z"/>
				<path fill="#F1FFFF" d="M101.8,203.8c0.1,0,0.2,0,0.3-0.1c0.2-0.1,0.5-0.2,0.7-0.4c0.5-0.3,0.9-0.7,1.3-1.1
					c0.4-0.4,0.9-0.8,1.4-1.1c0.4-0.3,0.9-0.5,1.4-0.4c0.7,0,1.1,0.6,1,1.3c-0.1,0.5-0.3,1-0.7,1.4c-0.1,0.1-0.3,0.3-0.5,0.3
					c-0.3,0.1-0.6-0.1-0.6-0.4c0-0.6,0.5-1.2,1.1-1.2c0,0,0.1,0,0.1-0.1c0.1-0.2,0-0.6-0.3-0.6c-0.3,0-0.5,0.1-0.8,0.3
					c-0.4,0.3-0.8,0.7-1.2,1.2c-0.8,1-1.4,2.1-1.8,3.3c-0.1,0.3-0.1,0.6-0.1,0.9c0.1,0.5,0.4,0.7,0.9,0.6c0.4-0.1,0.8-0.4,1.1-0.7
					c0.7-0.6,1.3-1.4,1.9-2.1c0.5-0.7,1-1.4,1.6-2.1c0.5-0.7,1.1-1.3,1.8-1.7c0.3-0.2,0.7-0.4,1.1-0.5c0.4-0.1,0.8,0.1,1,0.4
					c0,0,0,0,0.1,0.1c0,0,0,0,0,0c0.1-0.2,0.2-0.3,0.5-0.3c0.4,0,0.8,0,1.2,0c0,0,0.1,0,0.2,0c0,0.1-0.1,0.1-0.1,0.2
					c-1.1,1.9-2.2,3.8-3.3,5.7c-0.1,0.1-0.1,0.2-0.1,0.3c0,0.2,0.1,0.3,0.3,0.2c0.1,0,0.2-0.1,0.3-0.2c0.4-0.3,0.7-0.7,1.1-1.1
					c0.3-0.4,0.6-0.7,0.9-1.1c0.1-0.1,0.1-0.1,0.3-0.1c0.1,0,0.2,0,0.4,0c0,0,0,0.1,0,0.1c-0.7,1-1.4,2-2.3,2.8
					c-0.4,0.4-0.9,0.8-1.4,1.1c-0.2,0.1-0.5,0.2-0.8,0.1c-0.3-0.1-0.5-0.3-0.5-0.6c0-0.2,0-0.4,0-0.6c0,0,0,0.1-0.1,0.1
					c-0.3,0.3-0.6,0.6-1,0.8c-0.3,0.2-0.5,0.3-0.8,0.3c-0.6,0.1-1-0.3-1.1-0.9c0-0.4,0.1-0.7,0.2-1.1c0,0,0-0.1,0-0.2
					c0,0-0.1,0.1-0.1,0.1c-0.5,0.4-1,0.9-1.5,1.3c-0.4,0.3-0.9,0.6-1.5,0.7c-0.3,0-0.6,0.1-0.8,0c-0.6-0.2-0.8-0.7-1-1.2
					c-0.2-0.8,0-1.5,0.4-2.2c0.2-0.4,0.4-0.8,0.6-1.2c0,0,0-0.1,0.1-0.1c-0.2,0.1-0.4,0.1-0.6,0.1c-0.2,0-0.3,0.1-0.4,0.3
					c-0.4,0.6-0.8,1.3-1.2,1.9c-0.6,0.8-1.3,1.5-2.1,2.1c-0.3,0.2-0.7,0.4-1.1,0.4c-0.5,0-0.9-0.2-1.1-0.6c-0.2-0.4-0.2-0.7-0.1-1.1
					c0.1-1.1,0.6-2.1,1.1-3c0.7-1.1,1.6-2.1,2.6-2.9c0.4-0.3,0.9-0.6,1.5-0.7c0.8-0.1,1.4,0.3,1.4,1.1c0,0.5-0.1,0.9-0.3,1.3
					C102,203.4,101.9,203.6,101.8,203.8z M108,207.1c0,0.1,0.1,0.2,0.2,0.3c0.1,0.1,0.2,0.1,0.3,0c0.3-0.2,0.5-0.4,0.7-0.6
					c0.3-0.4,0.5-0.7,0.8-1.1c0.8-1.3,1.5-2.6,2.2-3.9c0.1-0.1,0-0.3-0.1-0.3c-0.1-0.1-0.3,0-0.4,0c-0.3,0.1-0.5,0.3-0.7,0.5
					c-0.5,0.7-1.1,1.3-1.6,2c-0.5,0.7-1,1.5-1.3,2.4C108.1,206.6,108.1,206.9,108,207.1z M99.4,203.2
					C99.4,203.3,99.4,203.3,99.4,203.2c-0.3,0.5-0.6,0.9-0.8,1.3c-0.3,0.6-0.6,1.2-0.8,1.8c0,0.2-0.1,0.4,0,0.6
					c0,0.4,0.3,0.5,0.7,0.4c0.1,0,0.2-0.1,0.3-0.1c0.3-0.2,0.6-0.5,0.8-0.7c0.5-0.6,0.9-1.3,1.4-2c0,0,0-0.1,0.1-0.2
					C100.3,204.2,99.8,203.8,99.4,203.2z M101.8,202.1c0-0.1,0-0.1,0-0.2c-0.1-0.5-0.3-0.6-0.8-0.5c-0.1,0-0.2,0.1-0.2,0.1
					c-0.3,0.2-0.6,0.5-0.7,0.9c-0.1,0.3-0.1,0.6,0.1,0.9c0.2,0.3,0.6,0.5,1,0.5c0.1,0,0.1,0,0.1-0.1c0.1-0.2,0.2-0.4,0.3-0.6
					C101.7,202.8,101.8,202.5,101.8,202.1z"/>
			</g>
		</g>
		<g id="KRyJ1s.tif_5_">
			<g>
				<path fill="#F1FFFF" d="M136.1,199.8c0.1-0.2,0.2-0.5,0.3-0.7c0.1-0.2,0.2-0.5,0.2-0.7c0-0.2-0.1-0.3-0.3-0.2
					c-0.2,0.1-0.3,0.2-0.5,0.3c-0.6,0.5-1.2,1.1-1.8,1.7c-1.1,1.3-2.1,2.7-3,4.1c-0.5,0.9-1,1.8-1.6,2.8c0,0.1-0.1,0.2-0.1,0.3
					c0.1,0,0.1-0.1,0.2-0.1c0.3-0.3,0.7-0.5,1-0.8c1.4-1.3,2.7-2.7,3.9-4.2c0.1-0.1,0.2-0.3,0.4-0.2c0.1,0,0.2,0,0.3,0
					c-0.1,0.1-0.1,0.2-0.2,0.3c-0.8,1.1-1.6,2-2.5,3c-1.1,1.2-2.3,2.2-3.6,3.1c0,0-0.1,0.1-0.1,0.1c-0.4,0.9-0.8,1.7-0.9,2.7
					c0,0.2,0,0.4,0,0.6c0,0.3,0.3,0.4,0.5,0.2c0.2-0.2,0.5-0.4,0.7-0.6c0.4-0.5,0.7-0.9,1-1.4c0.5-0.8,1.1-1.7,1.7-2.4
					c0.6-0.7,1.2-1.3,2-1.8c0.3-0.2,0.7-0.3,1.1-0.2c0.3,0,0.4,0.2,0.6,0.4c0,0,0.1,0.1,0.1,0.2c0.1-0.1,0.1-0.2,0.2-0.3
					c0,0,0.1-0.1,0.1-0.1c0.5,0,1,0,1.5,0c0,0,0,0,0,0c0,0,0,0.1-0.1,0.1c-0.7,1.3-1.5,2.6-2.2,4c-0.3,0.5-0.6,1-0.9,1.5
					c-0.1,0.1-0.1,0.3-0.2,0.4c0,0.1-0.1,0.2,0,0.3c0.1,0.1,0.2,0,0.3,0c0.4-0.3,0.8-0.6,1.1-1c0.4-0.5,0.7-1,1.1-1.5
					c0-0.1,0.1-0.1,0.2-0.1c0.1,0,0.3,0,0.4,0c-0.1,0.1-0.1,0.2-0.2,0.3c-0.6,1-1.3,1.9-2.1,2.7c-0.5,0.5-1,0.8-1.6,1.1
					c-0.2,0.1-0.3,0.1-0.5,0.1c-0.3,0-0.5-0.2-0.6-0.5c0-0.2,0-0.4,0-0.7c0,0,0-0.1,0-0.1c0,0,0,0,0,0c-0.1,0.1-0.2,0.2-0.3,0.3
					c-0.4,0.3-0.7,0.7-1.2,0.9c-0.2,0.1-0.5,0.2-0.7,0.1c-0.4-0.1-0.7-0.4-0.7-0.8c0-0.2,0-0.4,0-0.6c0-0.1,0-0.1,0-0.2
					c-0.1,0.1-0.1,0.1-0.1,0.1c-0.3,0.4-0.7,0.8-1.2,1.1c-0.2,0.1-0.4,0.2-0.6,0.3c-0.5,0.2-0.9,0-1.1-0.5c-0.1-0.3-0.2-0.5-0.2-0.8
					c0-0.6,0.2-1.2,0.4-1.9c0.1-0.4,0.2-0.7,0.4-1.1c-0.1,0-0.1,0-0.2,0c-0.2,0-0.4,0.1-0.6,0.1c-0.1,0-0.1,0.1-0.2,0.1
					c-0.4,0.6-0.8,1.2-1.2,1.8c-0.6,0.8-1.3,1.5-2.1,2c-0.3,0.2-0.6,0.3-0.9,0.3c-0.6,0.1-0.9-0.4-1-0.8c-0.1-0.4-0.1-0.9,0-1.3
					c0.2-0.9,0.6-1.8,1.1-2.6c0.6-0.9,1.2-1.7,2-2.4c0.5-0.4,1-0.7,1.6-0.9c0.2-0.1,0.5-0.1,0.7-0.1c0.5,0,0.7,0.4,0.8,0.7
					c0.1,0.5,0,1-0.1,1.4c-0.1,0.4-0.3,0.7-0.4,1.1c0,0,0,0.1-0.1,0.1c0.3,0,0.6-0.1,0.8-0.2c0,0,0.1-0.1,0.1-0.1
					c0.8-1.6,1.7-3.2,2.7-4.8c1.3-1.9,2.7-3.6,4.5-5c0.4-0.3,0.9-0.6,1.4-0.9c0.2-0.1,0.5-0.2,0.8-0.2c0.3,0,0.5,0.2,0.5,0.5
					c0,0.4-0.1,0.8-0.3,1.2C136.6,199.7,136.6,199.7,136.1,199.8C136.1,199.8,136.1,199.8,136.1,199.8z M131.3,211.6
					c0,0.1,0.2,0.3,0.4,0.2c0.1,0,0.2-0.1,0.3-0.2c0.3-0.2,0.5-0.5,0.7-0.9c0.6-0.8,1.1-1.7,1.6-2.6c0.3-0.5,0.6-1,0.9-1.6
					c0.1-0.1,0.1-0.2,0-0.3c-0.1-0.1-0.2-0.1-0.3-0.1c-0.1,0.1-0.3,0.1-0.4,0.2c-0.2,0.1-0.3,0.3-0.5,0.4c-1.1,1.1-1.9,2.4-2.5,3.7
					C131.4,210.8,131.3,211.1,131.3,211.6z M124.2,207.8c-0.2,0.3-0.5,0.7-0.7,1c-0.4,0.6-0.7,1.2-0.9,1.9c-0.1,0.2-0.1,0.5-0.1,0.7
					c0.1,0.3,0.3,0.5,0.6,0.4c0.3-0.1,0.5-0.2,0.7-0.4c0.7-0.6,1.2-1.4,1.6-2.2c0,0,0-0.1,0.1-0.1
					C125,208.8,124.5,208.4,124.2,207.8z M126.4,206.7c0-0.1,0-0.1,0-0.2c0-0.3-0.2-0.5-0.4-0.5c-0.1,0-0.2,0-0.3,0.1
					c-0.3,0.1-0.5,0.3-0.7,0.6c-0.5,0.7,0,1.6,0.8,1.9c0,0,0.1,0,0.1-0.1c0.1-0.1,0.2-0.3,0.2-0.4
					C126.2,207.6,126.4,207.2,126.4,206.7z"/>
				<path fill="#F1FFFF" d="M132.8,199.6c-0.4,0.4-0.8,0.8-1.1,1.2c0,0-0.1,0-0.1,0c-0.2-0.1-0.5-0.3-0.7-0.4
					c-0.7-0.5-1.4-0.9-2.2-1.4c-0.6-0.3-1.2-0.6-1.9-0.7c-0.2,0-0.4,0-0.6,0c-0.1,0-0.1,0.1-0.1,0.1c0.1,0.8-0.1,1.5-0.4,2.2
					c-0.4,1-1,1.8-1.8,2.5c-0.3,0.3-0.7,0.5-1.1,0.6c-0.6,0.2-1-0.1-1.1-0.7c-0.1-0.4,0-0.8,0.2-1.1c0.5-1.2,1.2-2.2,2.2-3
					c0.3-0.3,0.7-0.5,1.1-0.8c0,0,0,0,0.1-0.1c-0.2-0.1-0.4-0.1-0.7-0.1c-0.3,0-0.6,0.2-0.9,0.3c-1.1,0.6-2,1.3-2.8,2.2
					c-1.5,1.6-2.9,3.4-3.9,5.4c-0.6,1.1-1,2.2-1.3,3.5c-0.1,0.5-0.2,1,0,1.5c0.1,0.5,0.4,0.9,1,1.1c0.3,0.1,0.7,0,1-0.1
					c0.6-0.2,1-0.6,1.4-1.1c0.8-0.9,1.5-1.8,1.9-3c0.1-0.4,0.2-0.9,0.2-1.3c0-0.4-0.3-0.6-0.7-0.5c-0.3,0.1-0.5,0.3-0.7,0.6
					c-0.4,0.6-0.7,1.2-0.8,1.9c0,0,0,0.1-0.1,0.1c-0.7,0.4-1.4,0.9-1.9,1.5c0,0,0,0-0.1,0.1c0.2-1.4,0.6-2.6,1.5-3.7
					c0.5-0.6,1.2-1.1,2-1.3c0.2,0,0.4-0.1,0.6,0c0.4,0.1,0.6,0.3,0.7,0.7c0.1,0.4,0.1,0.9,0,1.3c-0.2,1.1-0.7,2-1.3,2.9
					c-0.7,1.1-1.6,2-2.8,2.7c-0.5,0.3-1,0.5-1.6,0.5c-0.9,0-1.6-0.4-2-1.2c-0.4-0.7-0.5-1.4-0.4-2.1c0.1-1.2,0.5-2.3,1-3.3
					c1.4-2.9,3.3-5.3,5.7-7.3c1.1-0.9,2.2-1.5,3.5-1.9c0.5-0.1,1-0.2,1.4,0c0.2,0.1,0.4,0.2,0.6,0.3c0.1,0.1,0.1,0.1,0.2,0
					c0.4-0.1,0.8-0.3,1.2-0.3c1-0.2,1.9-0.1,2.8,0.4C130.9,198.4,131.8,199,132.8,199.6C132.8,199.6,132.8,199.6,132.8,199.6z
					 M125.6,198.6c-0.1,0.1-0.2,0.1-0.3,0.2c-1.3,0.8-2.2,1.8-2.8,3.1c-0.2,0.3-0.3,0.6-0.3,0.9c0,0.4,0.3,0.7,0.7,0.5
					c0.2-0.1,0.3-0.2,0.5-0.3c1.4-1,2.1-2.4,2.3-4.1C125.6,198.8,125.6,198.7,125.6,198.6z"/>
				<path fill="#F1FFFF" d="M140.5,197.5c-0.2,0.5-0.5,0.9-0.8,1.3c-1,1.3-2.2,2.2-3.8,2.7c-0.8,0.2-1.6,0.3-2.4,0.2c0,0,0,0,0,0
					c0,0-0.1,0-0.1,0c0,0,0-0.1,0.1-0.1c0.3-0.4,0.7-0.8,1-1.2c0,0,0.1-0.1,0.1-0.1c0.9,0.1,1.8-0.1,2.7-0.4
					C138.5,199.2,139.5,198.5,140.5,197.5C140.5,197.5,140.5,197.5,140.5,197.5z"/>
			</g>
		</g>
		<path fill="#F1FFFF" d="M119,199.6c-0.3,0.2-0.5,0.4-0.7,0.5c-0.3,0.2-0.5,0.4-0.8,0.6c0,0-0.1,0.1-0.2,0.1c-0.9,0-1.7,0-2.6,0
			c0,0,0,0-0.1,0c0,0,0,0,0,0c0.5-0.4,0.9-0.7,1.4-1.1c0,0,0.1-0.1,0.2-0.1C117.2,199.6,118.1,199.6,119,199.6z"/>
	</g>
	<g>
		<g id="KRyJ1s.tif_8_">
			<g>
				<path fill="#F1FFFF" d="M472.4,353.9c0.3,0.1,0.6,0.2,0.9,0.4c0.7,0.4,1,1,1.1,1.8c0.1,0.7-0.1,1.4-0.4,2
					c-0.2,0.5-0.5,0.9-0.8,1.3c-0.3,0.4-0.7,0.6-1.2,0.7c-0.5,0.1-0.9-0.2-0.9-0.7c0-0.4,0-0.8,0.2-1.1c0.3-0.6,0.7-1.2,1.4-1.3
					c0.1,0,0.3-0.1,0.4-0.1c0.2,0,0.3-0.1,0.3-0.2c0.2-0.7-0.2-1.3-1-1.3c-0.4,0-0.8,0.1-1.1,0.2c-1.5,0.5-2.8,1.4-4,2.5
					c-3.7,3.4-6.7,7.4-8.7,12c-0.7,1.6-1.3,3.3-1.6,5.1c-0.2,1.2-0.2,2.5,0.1,3.7c0.4,1.5,1.3,2.6,2.8,3.2c1.2,0.5,2.4,0.7,3.7,0.6
					c2.1-0.2,4-0.7,6-1.2c2.3-0.5,4.5-1.1,6.8-1.6c2.1-0.5,4.3-0.7,6.5-0.6c2.5,0.1,4.9,0.9,6.9,2.4c1.2,0.8,2.3,1.7,3.3,2.7
					c0.2,0.2,0.3,0.4,0.5,0.6c-0.1,0-0.1-0.1-0.2-0.1c-2.1-1.3-4.3-2.1-6.8-2.1c-1.1,0-2.1,0.2-2.9,0.9c-0.4,0.3-0.8,0.8-1.2,1.2
					c0,0,0,0,0,0c-0.9-1.6-2.4-2.5-4.1-2.9c-1.2-0.3-2.5-0.3-3.8-0.3c-2.2,0.1-4.4,0.7-6.5,1.3c-2,0.5-4,0.9-6,1.3
					c-1.6,0.3-3.2,0.3-4.8-0.3c-2.4-0.9-3.8-2.5-4.3-5c-0.1-0.5-0.1-1-0.2-1.4c0-0.1,0-0.1,0-0.2c0-0.4,0-0.9,0-1.3
					c0-0.3,0.1-0.7,0.1-1c0.2-1.9,0.8-3.7,1.5-5.5c1.5-3.5,3.7-6.5,6.3-9.2c1.7-1.7,3.6-3.3,5.7-4.5c1.2-0.7,2.4-1.2,3.8-1.5
					c0.4-0.1,0.9-0.1,1.3-0.2C471.8,353.9,472.1,353.9,472.4,353.9z"/>
				<path fill="#F1FFFF" d="M473.9,367.2c0.2,0,0.3,0,0.5-0.1c0.4-0.2,0.9-0.4,1.3-0.7c0.9-0.6,1.6-1.3,2.4-2.1
					c0.7-0.8,1.6-1.5,2.5-2.1c0.8-0.5,1.6-0.9,2.6-0.8c1.2,0.1,2.1,1.1,1.9,2.3c-0.1,1-0.5,1.9-1.2,2.6c-0.2,0.3-0.5,0.5-0.8,0.6
					c-0.5,0.2-1.1-0.1-1.1-0.7c0-1,0.9-2.1,2-2.2c0.1,0,0.2,0,0.2-0.1c0.2-0.4,0.1-1-0.6-1c-0.5,0-1,0.2-1.4,0.6
					c-0.8,0.6-1.5,1.3-2.1,2.1c-1.5,1.8-2.6,3.9-3.4,6.1c-0.2,0.5-0.3,1.1-0.2,1.7c0.1,0.9,0.8,1.4,1.7,1.1c0.8-0.2,1.4-0.7,2-1.2
					c1.3-1.2,2.4-2.5,3.4-3.9c1-1.3,1.9-2.6,2.9-3.9c1-1.2,2-2.3,3.3-3.2c0.6-0.4,1.2-0.8,1.9-0.9c0.8-0.1,1.4,0.1,1.9,0.8
					c0,0,0.1,0.1,0.1,0.1c0,0,0.1-0.1,0.1-0.1c0.2-0.4,0.5-0.5,0.9-0.5c0.7,0,1.4,0,2.1,0c0.1,0,0.2,0,0.3,0
					c-0.1,0.1-0.1,0.3-0.2,0.4c-2,3.5-4,7-6,10.5c-0.1,0.2-0.2,0.4-0.2,0.6c0,0.3,0.2,0.5,0.5,0.4c0.2-0.1,0.4-0.2,0.6-0.4
					c0.7-0.5,1.4-1.2,1.9-1.9c0.5-0.7,1.1-1.3,1.6-2c0.1-0.2,0.3-0.2,0.5-0.2c0.2,0,0.4,0,0.7,0c0,0.1,0,0.1-0.1,0.1
					c-1.3,1.8-2.6,3.6-4.1,5.2c-0.8,0.8-1.6,1.5-2.6,2c-0.5,0.2-0.9,0.3-1.4,0.2c-0.5-0.1-0.9-0.6-1-1.1c0-0.4,0-0.7,0-1.2
					c0,0.1-0.1,0.1-0.1,0.2c-0.5,0.6-1.1,1.1-1.8,1.6c-0.5,0.3-1,0.5-1.5,0.6c-1.1,0.1-1.9-0.6-1.9-1.7c0-0.7,0.1-1.3,0.3-1.9
					c0-0.1,0-0.2,0-0.3c-0.1,0.1-0.1,0.1-0.2,0.2c-0.9,0.8-1.8,1.7-2.7,2.4c-0.8,0.6-1.7,1.1-2.7,1.2c-0.5,0.1-1,0.1-1.5-0.1
					c-1.1-0.4-1.5-1.2-1.8-2.3c-0.3-1.4,0.1-2.7,0.7-3.9c0.3-0.7,0.7-1.5,1.1-2.2c0-0.1,0.1-0.1,0.1-0.3c-0.4,0.1-0.7,0.2-1.1,0.3
					c-0.3,0-0.5,0.2-0.7,0.5c-0.7,1.2-1.4,2.3-2.2,3.4c-1.1,1.5-2.3,2.8-3.9,3.8c-0.6,0.4-1.3,0.7-2.1,0.8c-0.8,0.1-1.6-0.4-2-1.2
					c-0.3-0.7-0.3-1.3-0.3-2c0.2-2,1-3.8,2.1-5.5c1.3-2,2.9-3.9,4.9-5.3c0.8-0.6,1.7-1.1,2.7-1.3c1.5-0.3,2.5,0.5,2.5,2.1
					c0,0.8-0.2,1.7-0.5,2.4C474.3,366.4,474.1,366.8,473.9,367.2z M485.3,373.2c0,0.2,0.1,0.4,0.3,0.6c0.2,0.1,0.4,0.1,0.6,0
					c0.5-0.3,1-0.6,1.3-1.1c0.5-0.7,1-1.3,1.4-2c1.4-2.3,2.7-4.7,4.1-7.1c0.1-0.3,0.1-0.5-0.2-0.6c-0.2-0.1-0.5,0-0.7,0.1
					c-0.5,0.2-0.9,0.5-1.2,0.9c-1,1.2-1.9,2.4-2.9,3.7c-1,1.4-1.9,2.8-2.4,4.4C485.5,372.4,485.4,372.8,485.3,373.2z M469.5,366.1
					c-0.1,0.1-0.1,0.1-0.1,0.2c-0.5,0.7-1,1.4-1.4,2.2c-0.6,1-1.2,2.1-1.5,3.3c-0.1,0.3-0.1,0.7-0.1,1.1c0.1,0.7,0.5,1,1.2,0.8
					c0.2,0,0.3-0.1,0.5-0.2c0.6-0.4,1.1-0.8,1.5-1.3c1-1.1,1.7-2.4,2.5-3.6c0.1-0.1,0.1-0.2,0.1-0.3
					C471.1,367.8,470.1,367.2,469.5,366.1z M473.8,364.1c0-0.1,0-0.2,0-0.3c-0.1-0.8-0.5-1.2-1.4-0.9c-0.1,0-0.3,0.1-0.4,0.2
					c-0.6,0.4-1.1,0.9-1.3,1.6c-0.2,0.6-0.2,1.1,0.2,1.6c0.4,0.6,1,0.9,1.7,0.9c0.1,0,0.2,0,0.3-0.2c0.2-0.4,0.3-0.8,0.5-1.2
					C473.7,365.3,473.8,364.7,473.8,364.1z"/>
			</g>
		</g>
		<g id="KRyJ1s.tif_7_">
			<g>
				<path fill="#F1FFFF" d="M536.7,359.8c0.2-0.4,0.4-0.8,0.6-1.2c0.2-0.4,0.4-0.9,0.4-1.3c0-0.4-0.1-0.5-0.5-0.3
					c-0.3,0.1-0.6,0.3-0.9,0.5c-1.2,0.9-2.2,2-3.2,3.1c-2.1,2.3-3.8,4.9-5.4,7.5c-1,1.7-1.9,3.4-2.9,5.1c-0.1,0.2-0.2,0.3-0.2,0.5
					c0.1-0.1,0.2-0.1,0.3-0.2c0.6-0.5,1.3-1,1.9-1.5c2.6-2.4,5-4.9,7.1-7.7c0.2-0.3,0.4-0.5,0.8-0.4c0.2,0,0.3,0,0.5-0.1
					c-0.1,0.2-0.2,0.4-0.3,0.5c-1.4,1.9-3,3.7-4.6,5.5c-2,2.1-4.2,4-6.5,5.7c-0.1,0-0.1,0.1-0.2,0.2c-0.7,1.6-1.4,3.2-1.7,4.9
					c-0.1,0.3-0.1,0.7,0,1c0.1,0.5,0.6,0.7,1,0.4c0.4-0.3,0.9-0.7,1.2-1.2c0.6-0.8,1.2-1.7,1.8-2.6c1-1.5,2-3.1,3.2-4.5
					c1.1-1.3,2.3-2.4,3.7-3.3c0.6-0.4,1.3-0.5,2-0.4c0.5,0.1,0.8,0.4,1,0.8c0.1,0.1,0.1,0.2,0.2,0.3c0.1-0.2,0.2-0.4,0.4-0.6
					c0-0.1,0.1-0.1,0.2-0.1c0.9,0,1.8,0,2.7,0c0,0,0,0,0.1,0c0,0.1-0.1,0.2-0.1,0.2c-1.4,2.4-2.7,4.8-4.1,7.2
					c-0.5,0.9-1.1,1.9-1.6,2.8c-0.1,0.3-0.2,0.5-0.3,0.8c-0.1,0.2-0.1,0.4,0.1,0.5c0.2,0.1,0.4,0.1,0.5,0c0.8-0.5,1.5-1.1,2-1.8
					c0.7-0.9,1.3-1.8,1.9-2.7c0.1-0.1,0.2-0.2,0.3-0.2c0.2,0,0.5,0,0.7,0c-0.1,0.2-0.2,0.3-0.3,0.5c-1.1,1.7-2.3,3.4-3.8,4.9
					c-0.8,0.9-1.8,1.6-2.9,2c-0.3,0.1-0.6,0.2-0.9,0.2c-0.6,0-1-0.3-1.1-0.9c-0.1-0.4-0.1-0.8-0.1-1.2c0-0.1,0-0.2,0-0.2
					c0,0,0,0-0.1,0c-0.2,0.2-0.3,0.3-0.5,0.5c-0.7,0.6-1.4,1.2-2.2,1.6c-0.4,0.2-0.8,0.3-1.3,0.2c-0.8-0.1-1.3-0.7-1.4-1.6
					c0-0.3,0-0.7,0-1.1c0-0.1,0-0.2,0-0.4c-0.1,0.1-0.2,0.2-0.2,0.2c-0.6,0.8-1.3,1.5-2.1,2.1c-0.4,0.2-0.7,0.4-1.1,0.6
					c-0.9,0.3-1.6,0-2.1-0.9c-0.3-0.5-0.3-1-0.3-1.5c0-1.2,0.4-2.3,0.7-3.4c0.2-0.7,0.4-1.3,0.7-2.1c-0.1,0-0.2,0-0.3,0.1
					c-0.4,0-0.7,0.1-1.1,0.1c-0.2,0-0.3,0.1-0.3,0.2c-0.7,1.1-1.4,2.2-2.2,3.3c-1,1.4-2.3,2.7-3.9,3.6c-0.5,0.3-1.1,0.5-1.7,0.6
					c-1.1,0.1-1.7-0.7-1.9-1.4c-0.2-0.8-0.1-1.6,0.1-2.4c0.4-1.7,1.1-3.3,2.1-4.8c1-1.6,2.2-3.1,3.6-4.3c0.9-0.7,1.8-1.4,2.9-1.7
					c0.4-0.1,0.8-0.2,1.3-0.1c0.8,0.1,1.3,0.7,1.4,1.3c0.2,0.9,0.1,1.8-0.2,2.6c-0.2,0.7-0.5,1.3-0.8,2c0,0.1-0.1,0.1-0.1,0.3
					c0.6,0,1.1-0.1,1.6-0.3c0.1,0,0.1-0.1,0.1-0.2c1.5-3,3.1-6,5-8.7c2.3-3.4,5-6.5,8.2-9.1c0.8-0.6,1.6-1.2,2.5-1.6
					c0.4-0.2,0.9-0.3,1.4-0.3c0.6,0,0.9,0.4,1,1c0.1,0.8-0.1,1.5-0.5,2.2c-0.4,0.8-0.4,0.8-1.2,0.9
					C536.8,359.8,536.7,359.8,536.7,359.8z M527.9,381.4c0,0.3,0.3,0.5,0.8,0.4c0.2-0.1,0.4-0.2,0.6-0.3c0.6-0.4,1-1,1.4-1.6
					c1.1-1.5,2-3.2,3-4.8c0.5-1,1.1-1.9,1.7-2.9c0.1-0.2,0.2-0.4,0-0.6c-0.2-0.2-0.4-0.2-0.6-0.2c-0.3,0.1-0.5,0.2-0.8,0.4
					c-0.3,0.2-0.6,0.5-0.9,0.8c-2,2-3.5,4.3-4.7,6.8C528.1,380,528,380.6,527.9,381.4z M514.9,374.5c-0.4,0.6-0.8,1.2-1.2,1.8
					c-0.7,1.1-1.3,2.2-1.6,3.4c-0.1,0.4-0.2,0.9-0.1,1.3c0.1,0.6,0.5,0.9,1.1,0.7c0.5-0.1,0.9-0.5,1.3-0.8c1.2-1.1,2.1-2.5,2.9-4
					c0-0.1,0.1-0.2,0.1-0.3C516.3,376.3,515.4,375.6,514.9,374.5z M519,372.4c0-0.1,0-0.3,0-0.4c-0.1-0.6-0.4-0.9-0.8-0.9
					c-0.2,0-0.4,0-0.6,0.1c-0.5,0.3-1,0.6-1.3,1.1c-0.9,1.4-0.1,2.9,1.4,3.4c0.1,0,0.2,0,0.2-0.1c0.1-0.2,0.3-0.5,0.4-0.8
					C518.7,374.2,519,373.3,519,372.4z"/>
				<path fill="#F1FFFF" d="M530.7,359.5c-0.7,0.8-1.4,1.5-2.1,2.2c0,0-0.2,0.1-0.2,0c-0.4-0.3-0.9-0.5-1.3-0.8
					c-1.3-0.8-2.7-1.7-4-2.5c-1-0.6-2.2-1.1-3.4-1.2c-0.4-0.1-0.8-0.1-1.2,0.1c-0.1,0-0.2,0.1-0.2,0.2c0.1,1.4-0.3,2.7-0.8,4
					c-0.7,1.8-1.8,3.3-3.2,4.6c-0.6,0.5-1.3,0.9-2.1,1.2c-1.1,0.3-1.9-0.2-2-1.3c-0.1-0.7,0.1-1.4,0.3-2c0.9-2.2,2.3-4,4.1-5.5
					c0.6-0.5,1.3-1,2-1.5c0,0,0.1-0.1,0.2-0.1c-0.4-0.2-0.8-0.2-1.2-0.1c-0.6,0.1-1.1,0.4-1.6,0.6c-2,1.1-3.7,2.5-5.2,4.1
					c-2.8,3-5.3,6.2-7.2,9.9c-1.1,2-1.9,4.1-2.3,6.3c-0.2,0.9-0.3,1.8-0.1,2.8c0.3,1,0.8,1.7,1.8,2c0.6,0.2,1.2,0,1.8-0.2
					c1-0.5,1.9-1.1,2.6-2c1.5-1.6,2.7-3.4,3.4-5.5c0.3-0.8,0.5-1.6,0.4-2.4c-0.1-0.8-0.5-1.1-1.3-0.8c-0.6,0.2-0.9,0.6-1.3,1.1
					c-0.8,1-1.3,2.1-1.5,3.4c0,0.1-0.1,0.2-0.2,0.2c-1.4,0.7-2.5,1.6-3.5,2.7c0,0-0.1,0.1-0.1,0.1c0.3-2.5,1.1-4.8,2.7-6.7
					c1-1.1,2.1-2,3.6-2.3c0.4-0.1,0.8-0.2,1.2-0.1c0.6,0.2,1,0.6,1.3,1.2c0.3,0.8,0.2,1.6,0.1,2.4c-0.3,1.9-1.2,3.6-2.3,5.2
					c-1.3,2-3,3.7-5.1,5c-0.9,0.5-1.9,0.8-2.9,0.9c-1.7,0.1-2.9-0.7-3.7-2.1c-0.7-1.2-0.9-2.5-0.8-3.9c0.1-2.2,0.9-4.2,1.8-6.1
					c2.5-5.2,6-9.7,10.5-13.4c1.9-1.6,4.1-2.8,6.5-3.5c0.9-0.3,1.8-0.3,2.6-0.1c0.4,0.1,0.8,0.3,1,0.6c0.1,0.1,0.2,0.1,0.3,0.1
					c0.7-0.2,1.4-0.5,2.1-0.6c1.8-0.4,3.5-0.1,5.1,0.7C527.1,357.3,528.9,358.4,530.7,359.5C530.7,359.4,530.7,359.4,530.7,359.5z
					 M517.5,357.6c-0.2,0.1-0.4,0.2-0.6,0.3c-2.3,1.4-4,3.4-5.2,5.7c-0.3,0.5-0.5,1.1-0.6,1.7c-0.1,0.8,0.5,1.2,1.3,0.9
					c0.3-0.1,0.6-0.3,0.8-0.5c2.5-1.9,3.9-4.4,4.3-7.6C517.5,358.1,517.5,357.9,517.5,357.6z"/>
				<path fill="#F1FFFF" d="M544.8,355.5c-0.4,0.8-0.9,1.6-1.5,2.3c-1.8,2.3-4.1,4-6.9,4.9c-1.4,0.5-2.9,0.6-4.4,0.3
					c0,0-0.1,0-0.1,0c-0.1,0-0.1,0-0.2-0.1c0-0.1,0.1-0.1,0.1-0.2c0.6-0.7,1.2-1.5,1.8-2.2c0.1-0.1,0.2-0.1,0.3-0.1
					c1.7,0.2,3.3-0.1,4.9-0.8C541,358.8,543,357.4,544.8,355.5C544.7,355.6,544.7,355.6,544.8,355.5z"/>
			</g>
		</g>
		<path fill="#F1FFFF" d="M505.5,359.5c-0.5,0.3-0.9,0.7-1.3,1c-0.5,0.4-0.9,0.7-1.4,1.1c-0.1,0.1-0.3,0.1-0.4,0.1
			c-1.6,0-3.2,0-4.8,0c0,0,0,0-0.1,0c0,0,0-0.1,0.1-0.1c0.9-0.6,1.7-1.3,2.6-1.9c0.1-0.1,0.2-0.1,0.4-0.1
			C502.1,359.5,503.7,359.5,505.5,359.5z"/>
	</g>
	<rect x="16.4" y="321.1" opacity="0.1" width="87.5" height="9"/>
	<rect x="148" y="321.1" opacity="0.1" width="25.1" height="9"/>
	<rect x="206.7" y="321.1" opacity="0.1" width="144.8" height="9"/>
	<rect x="375" y="340.3" opacity="0.1" width="13.6" height="50.3"/>
	<rect x="4" y="265.7" fill="#ED6615" width="10.3" height="6.8"/>
	<rect x="12.5" y="271.4" fill="#ED6615" width="20.9" height="6.8"/>
	<rect x="148.6" y="248.2" fill="#ED6615" width="20.9" height="6.8"/>
	<rect x="115" y="368" fill="#ED6615" width="20.9" height="6.8"/>
	<rect x="20.7" y="353.8" fill="#ED6615" width="20.9" height="6.8"/>
	<rect x="251.6" y="310.4" fill="#ED6615" width="20.9" height="6.8"/>
	<rect x="378.7" y="299.1" fill="#ED6615" width="20.9" height="6.8"/>
	<rect x="193.2" y="291.4" fill="#ED6615" width="9.3" height="6.6"/>
	<rect x="103.8" y="321.7" fill="#ED6615" width="9.3" height="6.6"/>
	<rect x="351.8" y="383.3" fill="#ED6615" width="9.3" height="6.6"/>
	<rect x="9.6" y="166.9" fill="#EDC42C" width="422.4" height="5.6"/>
	<rect x="427" y="146" fill="#EDC42C" width="172.3" height="7.9"/>
	<rect x="21.5" y="221.1" fill="#EDC42C" width="22.6" height="4.5"/>
	<rect x="51.4" y="221.1" fill="#EDC42C" width="22.6" height="4.5"/>
	<rect x="156.5" y="221.1" fill="#EDC42C" width="22.6" height="4.5"/>
	<rect x="187" y="221.1" fill="#EDC42C" width="22.6" height="4.5"/>
	<rect x="216.9" y="221.1" fill="#EDC42C" width="22.6" height="4.5"/>
	<rect x="248" y="221.1" fill="#EDC42C" width="22.6" height="4.5"/>
	<rect x="278.5" y="221.1" fill="#EDC42C" width="22.6" height="4.5"/>
	<rect x="308.4" y="221.1" fill="#EDC42C" width="22.6" height="4.5"/>
	<rect x="339.5" y="221.1" fill="#EDC42C" width="22.6" height="4.5"/>
	<rect x="369.4" y="221.1" fill="#EDC42C" width="22.6" height="4.5"/>
	<rect x="399.9" y="221.1" fill="#EDC42C" width="22.6" height="4.5"/>
	<rect x="21.5" y="185.5" fill="#EDC42C" width="22.6" height="4.5"/>
	<rect x="51.4" y="185.5" fill="#EDC42C" width="22.6" height="4.5"/>
	<rect x="156.5" y="185.5" fill="#EDC42C" width="22.6" height="4.5"/>
	<rect x="187" y="185.5" fill="#EDC42C" width="22.6" height="4.5"/>
	<rect x="216.9" y="185.5" fill="#EDC42C" width="22.6" height="4.5"/>
	<rect x="248" y="185.5" fill="#EDC42C" width="22.6" height="4.5"/>
	<rect x="278.5" y="185.5" fill="#EDC42C" width="22.6" height="4.5"/>
	<rect x="308.4" y="185.5" fill="#EDC42C" width="22.6" height="4.5"/>
	<rect x="339.5" y="185.5" fill="#EDC42C" width="22.6" height="4.5"/>
	<rect x="369.4" y="185.5" fill="#EDC42C" width="22.6" height="4.5"/>
	<rect x="399.9" y="185.5" fill="#EDC42C" width="22.6" height="4.5"/>
	<rect x="251.8" y="255" fill="#FBE97F" width="2.8" height="32.2"/>
	<rect x="287.8" y="255" fill="#FBE97F" width="2.8" height="32.2"/>
	<rect x="323.8" y="255" fill="#FBE97F" width="2.8" height="32.2"/>
	<rect x="359.7" y="255" fill="#FBE97F" width="2.8" height="32.2"/>
	<rect x="395.7" y="255" fill="#FBE97F" width="2.8" height="32.2"/>
</g>
</svg>
