<?xml version="1.0" encoding="utf-8"?>
<!-- Generator: Adobe Illustrator 18.1.1, SVG Export Plug-In . SVG Version: 6.00 Build 0)  -->
<svg version="1.1" id="Layer_1" xmlns="http://www.w3.org/2000/svg" xmlns:xlink="http://www.w3.org/1999/xlink" x="0px" y="0px"
	 viewBox="0 0 316 522.5" enable-background="new 0 0 316 522.5" xml:space="preserve">
<g>
	<path fill="#9ED8B9" d="M107.5,246.5l-13.6,15.4l13.6,21.6l9.9,5.8l3,14.1l28.5,6l3.3-7.7l26.4,15.8l-5.2-77.5
		C173.4,240.2,134.2,225.7,107.5,246.5z"/>
	<path fill="#3E5E42" d="M167.2,258l-25.5,4.6l-16.7-9l-16.6,2.8l1.3,18.7l16.5,12.3l1.3,17.7h-7.1l-3-15.6l-9.9-5.8l-15.1-21.6
		l15.1-15.4C107.5,246.5,165.1,230.2,167.2,258z"/>
	<path fill="#EDCF95" d="M69.3,178.3c0,0-10-1.3-21.2-1.5c-7.1-0.1-14.6,0.2-20.4,1.5c0,0,25.4,6.2,27,12.9
		c1.7,6.7,12.9,13.7,14.6,18.7c1.7,5,4.2,16.6,4.2,16.6s25.8,19.6,34.1,20s20.4,1.2,27.5,7.9c7.1,6.7,20.8,6.2,37.4-4.2
		c16.6-10.4,41.2-49.5,42-75.3c0.8-25.8,7.5-62.4,2.1-62c-5.4,0.4-27.9,4.6-27.9,24.1l-32.9-31.6l-72-15.4l-35.8,82
		C48,172.1,33.5,186.6,69.3,178.3z"/>
	<path fill="#E7F5E6" d="M188.7,137.1v14.6c0,0-10.4-19.1-20-23.3c-9.6-4.2-15,4.2-19.8-5s-31-15.4-50.1-14.6
		c-19.1,0.8-54.5-45.3-54.5-45.3l5-4.6L41,55.1c0,0,15-6.2,25.8-2.5l-20.4-4.2c0,0,24.1-9.6,41.2-5.8l-22-10.4
		c0,0,21.2-7.9,51.6,3.3l-25-26.2c0,0,52.4-1.7,92.4,44.5c0,0,22.1,25.4,20.2,62C204.7,115.9,189.1,119.6,188.7,137.1z"/>
	<path fill="#C8EEDD" d="M160,127.3V85.9l-6.7,24.5V83l-8.9,35.7C144.4,118.7,152.1,131.2,160,127.3z"/>
	<polygon fill="#C8EEDD" points="92.1,9.4 117.1,35.6 133.3,68.5 125,111.3 139.2,63.1 123.1,27.3 	"/>
	<polygon fill="#C8EEDD" points="67.7,33.3 92.1,43.9 108.3,108.9 100.9,39.8 	"/>
	<polygon fill="#C8EEDD" points="49.8,47.2 73,55.1 93.9,108.2 79.7,47.2 	"/>
	<path fill="#C8EEDD" d="M198.4,118.8c0,0,1.4-45.7-25-76.3c0,0,34.9,24.3,31.3,73.4L198.4,118.8z"/>
	<path fill="#F2C12E" d="M132.4,150.3l-38.5-6.6l-44.1,24.2l-4.7,8.9c0,0-10.2,0.1-17.5,1.5c0,0,18.5,5.2,25.6,10.6
		c0,0,6.7,13.5,11.5,15.1l32.3,34.6l10.4,7.9c0,0,10.5-0.6,24.9,5.9c0,0,11.4,17,40-2.1l13.9-40.4L172,188.7l-19.8-12.8L132.4,150.3
		z"/>
	<path fill="#F7661C" d="M115.7,202l-4.8-25l21.6-25.4l29.5,5.8l-5.8,19.3l17.2-7.3l-11,13.7l20.8-2.5l7.9,33.7l-18.7,35.8
		l10.8-38.7L171.2,201l-26.8,4.8l7.8-7.5l-7.8-3.3l-13.6,0.8c0,0,12.1,7.5,5.8,14.1c0,0,0.4-10.8-19.1-8.9"/>
	<path fill="#F7661C" d="M64.8,204l7.1-3l11.1,8.5l20-8.5l-6.7,13.9l6.7,7.5l-4.2,8.3l14.6,7.9H97.1l8.3,7.5c0,0-20-9.6-32-19.6
		C73.4,226.6,71.5,210.9,64.8,204z"/>
	<path fill="#EDF3E7" d="M27.7,165.9l17.5,10.9l4.7-3.4l2.4,1.1l5-4.8l10.5,7.2l4.2-5.4l10-2.3v-6.9l12.1-4.1l2.3-8.7l9-5.6v-10.9
		l8.1-8.1l-2.5-9l6.6-10.1l-6.6-7l2.5-9.7l-10.9-3.4l2.2-10.6h-7.8l-2.9-7.1l-9.8-1.4l-1.4-5.9h-7.7l-0.7-1.7c0,0-33.7,3.3-35.9,4
		c-2.2,0.6-21.8,6.2-30.9,40.6S7.3,155,27.7,165.9z"/>
	<polyline fill="#E23220" points="103.6,230.5 127.9,230.5 171.8,205.3 153.9,237.8 132.1,241.9 102.3,230.3 	"/>
	<polygon fill="#DFF9FE" points="120,232 131,236.1 141.9,234 158.9,215.5 127.9,230.5 	"/>
	<polygon fill="#F0F5BF" points="108.3,215.5 118.8,217.2 125.2,210.5 132.5,210.5 130.4,204.3 114.4,204.3 	"/>
	<polygon fill="none" stroke="#000000" stroke-miterlimit="10" points="123.1,185.8 123.1,172.5 135.4,163.5 152.2,170.2 
		143.5,180.6 	"/>
	<polygon fill="#DFF9FE" points="123.1,185.8 125.6,173.1 135.6,166 150.4,172.4 143.5,180.6 	"/>
	<polygon fill="none" stroke="#000000" stroke-miterlimit="10" points="99.4,198.5 89.1,187.7 73.6,191.4 71.9,201 80.5,204.3 	"/>
	<polygon fill="#DFF9FE" points="99.4,198.5 88,190.6 75.3,193.5 73.8,198.5 80.5,204.3 	"/>
	<polygon fill="#FF9019" points="120.4,219.6 105.6,217.2 105.6,199 85.7,178.7 103,201 102.3,219.6 	"/>
	<path fill="#FF9019" d="M141.4,246.1l16.2-4.2C157.7,241.9,154.2,254.6,141.4,246.1z"/>
	<polygon fill="#FF9019" points="136.7,209.9 130.8,217.2 150.4,213.6 170.1,206.3 149.6,210.7 	"/>
	<polygon fill="#F0F5BF" points="93.9,217.2 82.4,219.6 88,225.8 96.3,219.6 	"/>
	<g>
		<circle fill="#F92F0F" cx="135.6" cy="176.8" r="6.1"/>
		<circle cx="135.6" cy="176.8" r="3"/>
		<circle fill="#FFFFFF" cx="133.7" cy="174.6" r="1.9"/>
	</g>
	<g>
		<circle fill="#F92F0F" cx="84.9" cy="197.4" r="5.4"/>
		<circle cx="84.9" cy="197.4" r="2.6"/>
		<circle fill="#FFFFFF" cx="83.3" cy="195.4" r="1.7"/>
	</g>
	<polygon fill="#DEE6AF" points="182.3,101 189.2,83 178.6,55.1 	"/>
	<path fill="#BBD9B1" d="M120,14.3l33.9,44.4l-24.4-42.4C129.5,16.3,122.9,13.6,120,14.3z"/>
	<polygon fill="#BBD9B1" points="96.3,30.3 120,65.4 103,31.5 	"/>
	<polygon fill="#BBD9B1" points="197.5,103.5 189.2,121 198,108.9 	"/>
	<polygon fill="#BBD9B1" points="44.3,63.5 67.7,58.7 54.3,51.7 41,55.1 46.4,57.6 	"/>
	<polygon fill="#AFBFA0" points="79.6,167.5 69.7,160 64.8,166 71.9,172.7 81.9,169 	"/>
	<polygon fill="#AFBFA0" points="81.9,162.2 75.3,156.9 81.6,151.7 88,143.8 92.1,141 93.9,126 99.4,121 98.8,108.8 103,99.1 
		96.3,90.1 92.1,80.7 86.9,78.1 83.3,72.3 78.1,68 82.7,60.3 85.7,66.5 93.9,67.6 96.8,74.8 104.6,74.8 102.5,85.4 113.4,88.8 
		110.9,98.5 117.4,105.5 110.9,115.7 113.4,124.7 105.3,132.8 105.3,143.8 96.2,149.4 93.9,160 	"/>
	<g>
		<path fill="#362923" d="M185.6,467.7c0,0,59.2,31.7,113.8-2.8c0,0-9.1-10.2-4-40.7c5.1-30.4,22.6-128.1,11.3-166.1
			c-11.3-38-36.7-104.5-37.8-115.7c0,0-29.9-5.6-70.5,3.9c0,0-27.6,76.1-33.8,114.4c-6.2,38.3,11.7,103.8,15.7,122.9
			C184.3,402.9,187.9,461.8,185.6,467.7z"/>
		<path fill="#3E3735" d="M188.8,461.5c0,0-19.2,30.2,0,53.1c0,0,59.2,20,111.6-3.6c0,0,16.3-27.6-3.9-49.5
			C296.5,461.5,242.1,494.3,188.8,461.5z"/>
		<path fill="#8C7E73" d="M197.6,148.6c0,0,40-10.7,71.7-3.6c0,0-12.3-38.6-11.7-53.3c0,0,11.3-9.8-2.3-27.7c0,0-33.8-7.9-50.7,5.1
			c0,0-10.7,19-0.6,23.1C204,92.2,204.4,129.1,197.6,148.6z"/>
		<path fill="#AD9E8F" d="M285.1,516.7c0,0,9.3-29.4-5.2-47.7c0,0,14.2,13.3,16.3,23c0,0,1.5-15.9-5.4-27.6c0,0,18.5,11,9.6,46.6
			C300.4,511,291,515.1,285.1,516.7z"/>
		<path fill="#AD9E8F" d="M198.8,473.3c0,0-11.6,13.6-5.3,26.1c0,0,2.5,1.9,3.4-8.8c0,0,3.4,23.8-5.3,24.1c0,0-18.8-18.6,3.6-49.5
			C195.2,465.1,189.5,475.9,198.8,473.3z"/>
		<path fill="#231518" d="M238.6,490.4c-4.8,0.5-9.4,1.7-13.9,3.4c0.1,0.9,1,1.6,2,1.7s1.9-0.2,2.8-0.4c0.9,1.1,2.4,1.4,3.8,1.6
			c5.6,0.8,11.3,1.1,17,0.7c0.5,0,1-0.1,1.4-0.4c0.3-0.3,0.4-0.7,0.4-1.2c0.2-1.2,0.2-2.3,0.2-3.5c0-0.7-0.1-1.5-0.7-1.9
			c-0.4-0.3-0.9-0.3-1.4-0.4c-1.4-0.4-2.3-1.7-3.3-2.7c-3-3.1-7.6-4.4-11.9-3.9c-4.3,0.6-8.2,2.8-11.4,5.8
			C228.2,486.3,234.5,486.9,238.6,490.4z"/>
		<path fill="#231518" d="M206.4,492.9c1.4,0.2,2.8,0.4,4.1-0.2s2-2.4,1-3.4c-0.8-0.8-2.1-0.7-3.1-1.2c-1.1-0.6-1.7-1.9-1.3-3.1
			c-1.7-0.9-4-0.6-5.3,0.8s-1.4,3.8-0.1,5.3C202.8,492.3,204.6,492.6,206.4,492.9z"/>
		<path fill="#695548" d="M200.6,147.9c0,0-14.3,57.2-18.2,64.8c-3.8,7.6-16.5,63.9-15.2,79.9c0,0-1.7,27.5,9.7,39.3
			c0,0-1-31.1,3.3-39.7c0,0,1.6-15.7,3.6-26.7c2-11,7.6-28.9,7.6-28.9s26.6-63.9,22.3-91.3L200.6,147.9z"/>
		<path fill="#320C13" d="M201.2,439.7c-0.2-1-0.4-2.1-1.1-2.8c-0.7-0.7-2.1-0.9-2.7-0.1c1.1,3.3,1.6,6.8,1.5,10.3
			c-0.1,1.5-0.6,3.3-2.1,3.4c-0.8,0-1.4-0.5-1.9-1.1c-1.3-1.9-1-4.4-1-6.7c0.1-6.6-2.4-12.8-4.1-19.2c-2.5-9.4-3.4-19.2-2.3-28.8
			c2.3,9.3,5.9,18.2,10.8,26.4c3.3,5.6,7.3,11.1,8.6,17.6c1.6,7.6-0.9,15.5-3.3,22.9c-0.9,2.7-1.9,5.5-4.1,7.2
			C202.1,459.4,202.7,449.4,201.2,439.7z"/>
		<path fill="#141217" d="M257.2,474.8c0,0-8.1-127.7,3.2-182.1l8.9-0.1c0,0,5.3-61.6-17-82.4c0,0-6.5-47.1-4.2-67.5
			c0,0-15.8-3-27.1,2.7c0,0-4,43.6-14.7,69.1c-10.7,25.6-25.4,61.2-19.2,117.8s32,96,24.8,139.7
			C211.9,471.9,241.1,481.8,257.2,474.8z"/>
		<path fill="#736B61" d="M252.3,142.8c0,0,2.5,59.4,5.9,63.4c3.4,3.9,26.5,40,15.8,86.5l-9.4,6.2l-1.7,38.7c0,0,43.3-4.1,43.8-57.6
			c0,0-19.1-55.8-26.8-80.6c-7.6-24.8-10.6-54.4-10.6-54.4L252.3,142.8z"/>
		<path fill="#F2E8D7" d="M245.3,62.4c0,0,4.4,24.5-2.7,29.3l9.6,49.2l12.1,0.9L250,91.7c0,0,6.3-11.6,0.6-28.6L245.3,62.4z"/>
		<path fill="#F2E8D7" d="M212,143.7l5.3-51.9c0,0-6.7-17.8-1.5-27.9l-6.8,2.6c0,0-4.7,12.6,1.8,25.3l-7.3,53.5L212,143.7z"/>
		<path fill="#3E3634" d="M222.1,142.2L226,62l12.7,0.4l5.1,78.4C243.8,140.8,229.9,141.2,222.1,142.2z"/>
		<path fill="#736B61" d="M189.5,255.3c-0.3-2.2-0.2-4.4,0.2-6.5c-0.7-0.6-1.8-0.3-2.5,0.4c-0.6,0.7-0.9,1.6-1.2,2.5
			c-1.4,3.5-4.7,6.3-8.4,7.1c2.6-1.3,4.7-3.5,5.9-6.1c0.6-1.2,0.8-3-0.4-3.6c-0.9,3-2.8,5.6-5.4,7.3c-0.2-2.4,0.1-5,1.4-7.1
			c1.2-2.1,3.6-3.7,6-3.5c1.1,0.1,2.1,0.5,3.2,0.6s2.3-0.1,2.9-1c-1.3-0.2-2.7-0.3-4-0.5c-0.5-0.1-1-0.1-1.4-0.4
			c-0.9-0.6-1-2-0.8-3.1s0.6-2.3,0.2-3.3c-0.7-0.6-1.8-0.1-2.6,0.4c-2.5,1.7-4.8,3.6-6.9,5.8c2.3-3.4,4.7-6.7,7.1-9.9
			c0.5-0.7,1.1-1.4,1.8-1.7s1.8-0.4,2.4,0.3c0.4,0.5,0.5,1.2,0.5,1.9c0.1,1.6,0.1,3.1,0.2,4.7c0,0.5,0,1.1,0.3,1.5
			c0.5,1.1,2.1,1.4,3.3,1.1s2.3-1,3.5-1.4c2-0.7,4.3-0.3,6,0.9c-1.1,2.3-4,3.2-6,4.8c-3.4,2.6-4.7,7.8-2.8,11.7
			C190.6,258.4,189.7,256.6,189.5,255.3z"/>
		<path fill="#736B61" d="M244.1,234.7c-2.4,1.4-4.8,2.8-7.3,4.2c-2,1.1-4.2,2.6-4.5,4.8c-0.3-1.7-2.7-2-4.2-1.2
			c-1.5,0.7-2.9,2-4.5,2.1c-1.6,0.1-3-0.8-4.6-1.2c-4.7-1.1-8.9,3-13.5,4.6c-1.6,0.6-3.4,0.8-4.8,1.9c-1.1,0.8-1.8,2-2.8,2.9
			c-1.5,1.3-3.8,1.7-5.7,1c1.3,2.3,4.6,2.6,7,1.6s4.2-3,6.3-4.6c2.5-1.9,5.5-3.3,8.5-4c5.6-1.3,11.7-0.5,16.9-2.8
			c-1,0.1-1.7,1.3-1.4,2.3s1.5,1.5,2.4,1.2c1-0.3,1.7-1.3,2.3-2.2c2.3-3.4,5.6-6.2,9.3-7.9c2.6-1.2,6-1.9,8.2,0.1
			c1.6,1.5,1.9,4.2,0.8,6c-1.1,1.9-3.5,2.9-5.7,2.6c2.9,2.1,7.4,1.5,9.7-1.2c2.3-2.7,2.2-7.2-0.2-9.8c0.8-0.8,1.9-1.2,3-1.1
			c-1.7-2.3-4.8-3-7.6-2.6C249.1,231.8,246.6,233.3,244.1,234.7z"/>
		<path fill="#736B61" d="M169.4,261.4c0.5-0.1,0.7,0.6,0.7,1.1c-0.1,1.9,0.3,3.8,0.9,5.6c0.5,1.4,1.5,2.9,2.9,3.3
			c0.9,0.2,1.9,0,2.8-0.3c6.6-2.1,12.5-5.9,17.2-11.1c-1.3-0.1-2.7,0.4-3.9,0.9c-4,1.7-7.8,3.8-11.4,6.3c-0.6,0.4-1.2,0.8-1.9,1.1
			c-1.8,0.6-4-0.5-4.7-2.3c-0.9-2.4,0.8-5.5-0.9-7.5C170.4,259.3,169.8,260.3,169.4,261.4z"/>
		<path fill="#736B61" d="M235.1,258c-0.2,2.8,0.1,5.6,1,8.2c0.2,0.5,0.4,1,0.7,1.4c0.9,1.3,2.7,1.6,3.6,2.9c-2.9-0.3-5.6-2-7.2-4.5
			c-1.4-2.3-1.8-5.2-1.5-7.9c0.3-2.7,1.3-5.3,2.3-7.8c0.5-1.1,1-2.3,1.9-3.2c0.8-0.9,2.1-1.6,3.3-1.4
			C237.2,249.6,235.5,253.7,235.1,258z"/>
		<path fill="#736B61" d="M264.9,240.6c0.6,2.7,0.9,5.4,0.8,8.2c0,0.6-0.1,1.3-0.5,1.8c-0.7,0.9-2.1,0.7-3.2,0.6
			c-5.9-0.5-11.7,4.5-12,10.5c-1.7-1-3.5-2-5.5-2.2s-4.2,0.7-5,2.6c1.9-1.3,4.7-0.1,6,1.8c1.2,2,1.2,4.5,1,6.8
			c2.1-1.9,3.2-4.5,4.4-7.1s2.5-5.2,4.8-6.7c2.3-1.6,5.9-1.7,7.6,0.5c0.4,0.5,0.7,1.1,1.2,1.6c0.7,0.8,1.8,1.2,2.9,1.1
			c2.9-0.4,4-3.9,4.1-6.8c0.1-2.9,0-6.2,2.2-8.1c2.2,1.3,5,1.5,7.4,0.6c-1.8-0.2-3.7-0.5-5-1.7c-1.3-1.2-1.7-3.6-0.2-4.7
			c1.2-0.9,3-0.3,3.9,0.9c0.9,1.2,1.1,2.7,1.1,4.2c0,4.5-1.7,9-4.6,12.4c3.9-1.4,6.5-5.8,5.8-10c2.3-0.2,4.5-1.9,5.3-4.1
			c-1.4,1.4-3.2,2.3-5.2,2.5c0.4-1.8,0.7-3.7,0.1-5.4c-0.5-1.7-2-3.3-3.8-3.5c-2.9-0.3-4.9,2.8-6.2,5.5c-1.6,3.5-3.3,7-4.9,10.5
			c0.1-2.3,1-4.5,1-6.7C268.5,243.4,267.1,240.7,264.9,240.6z"/>
		<path fill="#736B61" d="M284,256.2c-2.1,2.1-4.3,4.6-4.3,7.6c0,1.2,0.3,2.5-0.4,3.4c-0.5,0.8-1.6,1.1-2.6,1
			c-2.2-0.2-4-2.1-4.8-4.2c-1-2.8-0.3-6.1,1.7-8.3c-3.3,2.4-4.6,7.1-3.1,10.8c0.2,0.6,0.5,1.1,0.9,1.6c1.1,1.4,2.7,2.1,4.3,2.7
			c1,0.3,2.1,0.6,3.1,0.2c1.3-0.6,1.8-2.2,3.1-2.9c-0.3,1.2,1,2.3,2.2,2.2c1.2,0,2.3-0.8,3.2-1.6c-0.2,0.9,0.1,2,0.9,2.6
			c0.7,0.6,1.8,0.8,2.7,0.4c0.4-1-0.5-2.1-1.4-2.7c-0.9-0.6-2-1-2.5-2c-1.1,0-2.2,0-3.3-0.1c-0.3,0-0.7-0.1-0.9-0.3
			c-0.4-0.3-0.4-0.9-0.3-1.3c0.3-2.1,1.6-4,3.4-5c0.7-0.4,1.7-0.6,2.2,0c0.5,0.5,0.4,1.3,0.3,2c-0.4,1.8-0.8,3.5-1.5,5.2
			c0.4,0.4,1.1,0.4,1.6,0c0.5-0.4,0.7-0.9,1-1.4c1.5-3.4,3-7.1,2.1-10.7c-1,0.9-2,1.8-3,2.7c-0.2-1.5-2-2.3-3.5-2
			C283.5,256.4,285,255.2,284,256.2z"/>
		<path fill="#141217" d="M176.3,258.6c0,0,0.1,0,0.1,0c1,0.4,2.2,0.1,3.2-0.5s1.7-1.4,2.4-2.3c1.7-2,3.5-4,5.2-6
			c0.4-0.5,0.9-1,1.5-1c0,1.4-0.1,2.8-0.1,4.1c0,1.3-0.1,2.7-0.5,4c-0.7,2.2-2.6,4-4.8,4.7c-0.8,0.2-1.6,0.3-2.4,0.1
			c-1.3-0.3-2.4-1.3-3.1-2.5C177.1,258.2,176.7,259.9,176.3,258.6z"/>
		<path fill="#141217" d="M189.9,242c-1.2,0.1-2.3-0.8-2.7-1.8s-0.3-2.3-0.2-3.5c0.1-0.9,0.3-1.9,0-2.8c-0.3-0.9-1.3-1.6-2.2-1.3
			c1-1.3,3.1-1.5,4.3-0.3c1.2,1.3,1,3.3,0.9,5s0.1,3.9,1.7,4.6C192.1,242.5,189.8,242.6,189.9,242z"/>
		<path fill="#141217" d="M275.1,252.8c-3.1,2.5,0.2,4.4,2.9,3c2.5-1.3,4-6.1,4.9-8.6c2.2-0.2,4-2.3,3.8-4.4c0.4,0,0.7,0,1.1,0
			c1,1.1,0.4,2.9-0.5,4.1c-0.9,1.2-2.2,2.1-2.7,3.5c-0.5,1.5-3.6,6.3-5.2,5.2c-2.1-1.5,0.5-7.3,0.7-9.1c-0.5,0.1-6.4-0.3-6-1.3
			c-0.3,0.7,0.2,1.4,0.7,1.9c0.5,0.5,1.2,0.9,1.6,1.5C277.1,250,276.3,251.8,275.1,252.8z"/>
		<path fill="#141217" d="M270.9,273c-1.1-0.1-2,0.7-2.9,1.2c-1.8,1-4.1,1-5.9,0.2c2.1-3,6.8-4,7.9-7.5c1,1.3,2,2.6,3.3,3.5
			c1.3,0.9,3,1.4,4.6,1c1.5-0.5,2.7-1.8,3.4-3.2c-0.8,1.2,0.5,2.9,1.9,3c1.4,0.1,2.7-1,3.4-2.2c-0.3,1.3,0.6,2.7,1.9,3
			s2.7-0.6,3.1-1.9c0.6,1.4-0.5,3.1-2,3.4c-1.5,0.4-3-0.3-4.2-1.2c-0.4,0.9-1.7,1.3-2.7,1.2s-2-0.5-3.1-0.5c-2.1,0-4.1,1.5-6.2,0.9
			C272.6,273.7,271.8,273.1,270.9,273z"/>
		<path fill="#141217" d="M287.6,259.8c-0.2-0.1-0.5-0.1-0.8-0.1c-1.8,0.2-3.3,2-3.2,3.9c0.4-0.4,0.5-0.9,0.9-1.3
			c0.7-0.5,1.7,0,2,0.8c0.3,0.8,0,1.7-0.3,2.5c1.3-1.2,2-3,1.9-4.7C288,260.4,287.9,260,287.6,259.8z"/>
		<path fill="#141217" d="M290.3,256.1c0.3-0.1,0.6-0.2,0.9-0.1c0.5,0.2,0.5,1,0.5,1.5c-0.5,3.3-1.2,6.6-2.2,9.9
			c3.8-3.3,5.2-9.1,3.3-13.8c-1.1,0-2.2,0-3.2,0.5c-1,0.5-1.8,1.6-1.5,2.6C288.8,256.6,289.6,256.4,290.3,256.1z"/>
		<path fill="#141217" d="M269.8,472.1c0,0-3.7-5.8-3.2-25.3c0.4-19.4,7.2-112.2,7.2-112.2l9.8-5.4l-11.9,116.3
			c0,0-2.4,17.5,5.3,24.4L269.8,472.1z"/>
		<path fill="#5D0C13" d="M201,75c0,0-4.7,0.7-5.2-2.8c-0.4-3.5,1.7-15.9,1.7-15.9s1.5-4.1,11-6.6s37.6-4.4,51.6,1.9
			c0,0,5.1,3.2,4.9,5.5l0.9,13.9c0,0-2.4,6.4-4.8,5.5l-1.8-5.9l-8,1.5l-3.7-2.6l-7.4,1.8l-9.3-2.2l-11.3,3l-3.4-3.9l-6.7,3.9
			l-3.5-2.4L201,75z"/>
		<path fill="#955747" d="M240.4,66c-0.3,0-0.5-0.5-0.5-0.8c-0.4-3.5-0.8-7-1.3-10.5c-1.1,3.4-1.5,7-1.5,10.6c0.3,0.7,1.1,1,1.8,0.7
			C240.1,65.5,239.8,67.1,240.4,66z"/>
		<path fill="#955747" d="M247.6,53.5c0,4.9,0.1,9.8,0.1,14.6c1.6,0.7,2.9,1.8,3.9,3.2c-0.6-2.4-0.2-5,1.2-7.1
			c0.5-0.8,1.4-1.6,2.3-1.3c0.5,0.1,0.8,0.5,1.1,0.8c1.2,1.9,0.5,4.8,2.3,6.2c0.4-2,0.8-4,1.2-6c1.2,0.2,1.7,1.6,1.9,2.8
			c0.2,1.2,0.3,2.5,1.3,3.3c0.4-4.3,0.2-8.7-0.9-12.9c-0.2-0.8-0.4-1.6-0.8-2.4c-1.4-2.7-4.8-3.9-7.9-3.7c-1.5,0.1-2.9,0.5-4.1,1.3
			C247.9,53.2,247.6,52,247.6,53.5z"/>
		<path fill="#955747" d="M200.9,54c-2.2,1.5-2.6,4.4-2.8,7.1c-0.2,3.1-0.5,6.1-0.7,9.2c0,0.4-0.1,0.8,0.1,1.1c0.4,1,2,1.2,2.4,2.2
			c1.2-3.6,2.4-7.2,3.6-10.8c1.1,1.9,2.3,3.8,3.4,5.6c0.3,0.4,0.5,0.9,1,1c0.8,0.3,1.7-0.3,1.9-1.1c0.3-0.8,0.1-1.7,0-2.5
			c-0.8-5.9,1.3-12.1,5.4-16.4c-3-0.7-5.8,1.8-8.9,2.3c-1.1,0.2-2.2,0.2-3.3,0.4C200.7,52.9,202.9,52.7,200.9,54z"/>
		<path fill="#955747" d="M221.3,68.8c-0.8-5.8-0.3-12.1-3.2-17.2c-0.4,4-0.6,8.1-0.5,12.1c0,0.7,0,1.3,0.3,1.9
			C218.6,67.1,220.3,67.6,221.3,68.8z"/>
	</g>
</g>
</svg>
