<?xml version="1.0" encoding="utf-8"?>
<!-- Generator: Adobe Illustrator 18.1.1, SVG Export Plug-In . SVG Version: 6.00 Build 0)  -->
<svg version="1.1" id="Layer_1" xmlns="http://www.w3.org/2000/svg" xmlns:xlink="http://www.w3.org/1999/xlink" x="0px" y="0px"
	 viewBox="0 0 1120 627.8" enable-background="new 0 0 1120 627.8" xml:space="preserve">
<g>
	<polygon fill="#B3B3B3" points="925.6,0 925.6,0 923.4,89.8 927.8,89.8 	"/>
	<polygon fill="#B3B3B3" points="880.4,380.8 901.5,399.8 901.9,396.2 881.3,378.3 	"/>
	<polygon fill="#B3B3B3" points="905.7,380.1 873.4,400.8 875.3,396.1 903.6,378.1 	"/>
	<polygon fill="#B3B3B3" points="901.9,400.7 866.7,422.3 866.8,418.9 900.9,397.6 	"/>
	<polygon fill="#B3B3B3" points="897.4,422.7 857.2,446 859.2,441.8 894.7,420.4 	"/>
	<polygon fill="#B3B3B3" points="890.6,444.6 850.4,467.9 852.4,463.7 887.9,442.2 	"/>
	<polygon fill="#B3B3B3" points="872.9,400.7 897.5,422.9 897.9,418.8 874.6,398.5 	"/>
	<polygon fill="#B3B3B3" points="866.1,422.6 890.7,444.8 891.1,440.6 866.7,419.2 	"/>
	<polygon fill="#B3B3B3" points="857.8,446.7 882.4,468.9 882.8,464.8 858.4,443.4 	"/>
	<polygon fill="#B3B3B3" points="968.3,380.8 947.2,399.8 946.8,396.2 966.8,378.9 	"/>
	<polygon fill="#B3B3B3" points="943,380.1 974.1,400.4 973.5,396.1 945.2,378.1 	"/>
	<polygon fill="#B3B3B3" points="946.8,400.7 982,422.3 981,418.5 947.8,397.6 	"/>
	<polygon fill="#B3B3B3" points="951.3,422.7 992.4,446.6 989.5,441.8 954,420.4 	"/>
	<polygon fill="#B3B3B3" points="957.4,444.6 998.5,468.5 995.6,463.7 960,442.2 	"/>
	<polygon fill="#B3B3B3" points="975.8,400.7 951.3,422.9 950.8,418.8 974.1,398.5 	"/>
	<polygon fill="#B3B3B3" points="982.6,422.6 958.1,444.8 957.6,440.6 980.9,420.4 	"/>
	<polygon fill="#B3B3B3" points="990.9,446 966.4,468.1 965.9,464 989.2,443.8 	"/>
	<polygon fill="#B3B3B3" points="885.7,361.7 893.5,371.8 895.6,371.7 887.7,360.4 	"/>
	<polygon fill="#B3B3B3" points="885,371.5 896.7,362.1 897.1,360.4 895.5,360.4 883.7,369.4 883.2,371.7 	"/>
	<polygon fill="#B3B3B3" points="896,361.9 894.8,371.8 897.4,371.6 898.6,360.3 896.4,360.4 	"/>
	<polygon fill="#B3B3B3" points="897.8,361.7 905.6,371.8 907.7,371.7 899.8,360.4 	"/>
	<polygon fill="#B3B3B3" points="897.1,371.5 908.7,362.1 909.2,360.4 907.6,360.4 895.8,369.4 895.3,371.7 	"/>
	<polygon fill="#B3B3B3" points="908.1,361.9 906.8,371.8 909.5,371.6 910.7,360.3 908.5,360.4 	"/>
	<polygon fill="#B3B3B3" points="910.1,360.3 921.8,372.5 923,369.8 913.4,360.4 	"/>
	<polygon fill="#B3B3B3" points="910.7,371.5 923.8,361.5 924.3,360 921.7,359.8 909.3,369.5 908.8,371.7 	"/>
	<polygon fill="#B3B3B3" points="923.2,361.2 922,372.2 924.9,371.7 925.8,359.5 923.5,359.6 	"/>
	<polygon fill="#B3B3B3" points="925.1,361.2 936.9,371.8 940.1,371.6 926.2,359.8 	"/>
	<polygon fill="#B3B3B3" points="926.5,371.5 938.2,362.1 938.6,360.4 937,360.4 925.2,369.4 924.7,371.7 	"/>
	<polygon fill="#B3B3B3" points="937.5,361.9 938.8,371.7 940.8,371.6 939.5,360.3 937.9,360.4 	"/>
	<polygon fill="#B3B3B3" points="938.1,362.9 952.8,371.7 953.7,369.7 939,360.8 	"/>
	<polygon fill="#B3B3B3" points="940.1,371.5 951.7,362.1 952.2,360.4 950.6,360.4 938.8,369.4 938.3,371.7 	"/>
	<polygon fill="#B3B3B3" points="951.1,361.9 952.8,371.8 955.5,371.6 952.3,360.3 949.8,360.4 	"/>
	<polygon fill="#B3B3B3" points="950.6,361.7 964.5,372 966.3,370.7 952.6,360.4 	"/>
	<polygon fill="#B3B3B3" points="954.4,371.5 963.1,362.4 963.3,360.5 961.9,360.4 952.5,368.9 952.6,371.7 	"/>
	<polygon fill="#B3B3B3" points="891.4,379.4 866.5,464.6 870,465 894.2,379.6 	"/>
	<polygon fill="#B3B3B3" points="954.7,380.2 980,465.4 983.8,465.4 957.2,380.1 	"/>
	<path fill="#B3B3B3" d="M851.8,464.4c0-1,36-104,36-104h-2.8l-36.6,104H851.8z"/>
	<path fill="#B3B3B3" d="M964.4,360.4c0,0,21.6,77,37.8,104.9l-4.1-0.4c0,0-30-71.5-37-104.5C962.1,360.4,964.4,360.4,964.4,360.4z"
		/>
	<path fill="#B3B3B3" d="M887.2,464.7c0,0,17-62.3,21.7-93.3l-3.3,0.4c0,0-11.8,65.1-21.9,93L887.2,464.7z"/>
	<path fill="#B3B3B3" d="M964,465.8c0,0-18.2-42.4-25-105l2.5-0.2c0,0,7,61.1,25.5,104.7L964,465.8z"/>
	<polygon fill="#B3B3B3" points="883.2,371.7 966.8,371.5 967.9,380 880.2,379.4 	"/>
	<polygon fill="#CCCCCC" points="828.6,495.8 1022.8,496.2 1012.1,480 837.8,479.8 	"/>
	<polygon fill="#B3B3B3" points="835.1,465.8 836.9,472.9 836.4,480.4 1014.7,480.4 1014.3,470.9 1014.9,466 	"/>
	<rect x="838.8" y="476.1" fill="#CCCCCC" width="173.5" height="2.9"/>
	<polygon fill="#808080" points="836,466.4 839.3,473.4 1011.7,473.4 1014.9,466.4 	"/>
	<rect x="845.5" y="450.7" fill="#CCCCCC" width="2" height="12.6"/>
	<rect x="836.7" y="450.7" fill="#CCCCCC" width="2" height="12.6"/>
	<rect x="855" y="450.7" fill="#CCCCCC" width="2" height="12.6"/>
	<rect x="866.1" y="450.7" fill="#CCCCCC" width="2" height="12.6"/>
	<rect x="874.9" y="450.7" fill="#CCCCCC" width="2" height="12.6"/>
	<rect x="885.9" y="450.7" fill="#CCCCCC" width="2" height="12.6"/>
	<rect x="894.8" y="450.7" fill="#CCCCCC" width="2" height="12.6"/>
	<rect x="905.3" y="450.7" fill="#CCCCCC" width="2" height="12.6"/>
	<rect x="914.6" y="450.7" fill="#CCCCCC" width="2" height="12.6"/>
	<rect x="924.7" y="450.7" fill="#CCCCCC" width="2" height="12.6"/>
	<rect x="934" y="450.7" fill="#CCCCCC" width="2" height="12.6"/>
	<rect x="944" y="450.7" fill="#CCCCCC" width="2" height="12.6"/>
	<rect x="953.8" y="450.7" fill="#CCCCCC" width="2" height="12.6"/>
	<rect x="964.2" y="450.7" fill="#CCCCCC" width="2" height="12.6"/>
	<rect x="973" y="450.7" fill="#CCCCCC" width="2" height="12.6"/>
	<rect x="981.8" y="450.7" fill="#CCCCCC" width="2" height="12.6"/>
	<rect x="992.6" y="450.7" fill="#CCCCCC" width="2" height="12.6"/>
	<rect x="1002.1" y="450.7" fill="#CCCCCC" width="2" height="12.6"/>
	<rect x="1010.9" y="450.7" fill="#CCCCCC" width="2" height="12.6"/>
	<rect x="834.9" y="448.2" fill="#999999" width="179.8" height="3.3"/>
	<rect x="835.2" y="462.5" fill="#B3B3B3" width="179.8" height="3.3"/>
	<rect x="845.3" y="465.4" fill="#B3B3B3" width="2.1" height="14.7"/>
	<rect x="855" y="465.4" fill="#B3B3B3" width="2.1" height="14.7"/>
	<rect x="865.2" y="465.4" fill="#B3B3B3" width="2.1" height="14.7"/>
	<rect x="875.1" y="465.4" fill="#B3B3B3" width="2.1" height="14.7"/>
	<rect x="885.1" y="465.4" fill="#B3B3B3" width="2.1" height="14.7"/>
	<rect x="895" y="465.4" fill="#B3B3B3" width="2.1" height="14.7"/>
	<rect x="904.9" y="465.4" fill="#B3B3B3" width="2.1" height="14.7"/>
	<rect x="914.9" y="465.4" fill="#B3B3B3" width="2.1" height="14.7"/>
	<rect x="924.8" y="465.4" fill="#B3B3B3" width="2.1" height="14.7"/>
	<rect x="934.7" y="465.4" fill="#B3B3B3" width="2.1" height="14.7"/>
	<rect x="944.7" y="465.4" fill="#B3B3B3" width="2.1" height="14.7"/>
	<rect x="954.6" y="465.4" fill="#B3B3B3" width="2.1" height="14.7"/>
	<rect x="964.5" y="465.4" fill="#B3B3B3" width="2.1" height="14.7"/>
	<rect x="974.5" y="465.4" fill="#B3B3B3" width="2.1" height="14.7"/>
	<rect x="984.4" y="465.4" fill="#B3B3B3" width="2.1" height="14.7"/>
	<rect x="994.3" y="465.4" fill="#B3B3B3" width="2.1" height="14.7"/>
	<rect x="1004.3" y="465.4" fill="#B3B3B3" width="2.1" height="14.7"/>
	<polygon fill="#B3B3B3" points="836.5,480.5 751.4,610.4 756.7,610.4 839.9,479.8 	"/>
	<polygon fill="#B3B3B3" points="1014.3,480.5 1099.4,610.4 1094.2,610.4 1010.9,479.8 	"/>
	<path fill="#B3B3B3" d="M815.9,610.4c0,0,5.7-102.7,106.4-105c100.7-2.3,115,105,115,105h6c0,0-10.9-110.5-120.7-110.9
		c-102.6-0.4-112.4,110.9-112.4,110.9H815.9z"/>
	<polygon fill="#B3B3B3" points="874.1,480 835.2,542.6 845.2,533.9 878.7,480.3 	"/>
	<polygon fill="#B3B3B3" points="971.9,480.3 1006.4,536.4 1017,545.2 974.5,480.1 	"/>
	<path fill="#B3B3B3" d="M827.8,495.4c0.8,0,38.5,0.2,38.5,0.2l-1.1,2.1l-38.1-0.6L827.8,495.4z"/>
	<path fill="#B3B3B3" d="M984,495.4c0.8,0,39.8,0.2,39.8,0.2l-1.2,2.1l-39.4-0.6L984,495.4z"/>
	<path fill="#B3B3B3" d="M987.8,503c0.8,0,41.6,0.2,41.6,0.2l-1.2,2.1l-41.2-0.6L987.8,503z"/>
	<path fill="#B3B3B3" d="M823.3,502.2c0.8,0,38.5,0.2,38.5,0.2l-1.1,2.1l-38.1-0.6L823.3,502.2z"/>
	<polygon fill="#B3B3B3" points="821.8,506.9 843.2,533.4 844.2,529.5 822.7,504.6 	"/>
	<polygon fill="#B3B3B3" points="803.7,534.1 825.7,561.9 826.7,557.9 804.6,531.8 	"/>
	<polygon fill="#B3B3B3" points="785.2,563.9 811.3,609.6 812.5,602.9 786.3,560.1 	"/>
	<polygon fill="#B3B3B3" points="860.6,504.5 808.4,526.6 806.1,530.6 859.2,508.5 	"/>
	<polygon fill="#B3B3B3" points="843.3,531.6 791,553.8 788.8,557.8 841.8,535.7 	"/>
	<polygon fill="#B3B3B3" points="825.3,562.2 759.2,602.5 756.3,609.8 823.5,569.5 	"/>
	<polygon fill="#B3B3B3" points="815.3,516.8 852.5,516.9 850.2,520.8 813.5,519.9 	"/>
	<polygon fill="#B3B3B3" points="806.2,530.4 843.5,530.5 841.2,534.4 804.5,533.5 	"/>
	<polygon fill="#B3B3B3" points="797.9,544.7 835.2,544.8 832.9,548.7 796.2,547.9 	"/>
	<polygon fill="#B3B3B3" points="788.2,558.3 826.9,558.4 824.5,562.3 786.4,561.4 	"/>
	<path fill="#B3B3B3" d="M843.8,503.9c0,0.4-45,55.5-53.1,105.5h-5.4c0,0,13-53.9,54.9-105.7C841.4,503.8,843.8,503.9,843.8,503.9z"
		/>
	<path fill="#B3B3B3" d="M1024.1,495.4c-0.8,0-40,0.2-40,0.2l1.1,2.1l39.6-0.6L1024.1,495.4z"/>
	<path fill="#B3B3B3" d="M1028.7,502.2c-0.8,0-40,0.2-40,0.2l1.1,2.1l39.6-0.6L1028.7,502.2z"/>
	<polygon fill="#B3B3B3" points="1028.6,507.6 1007.2,534.2 1006.2,530.3 1027.7,505.4 	"/>
	<polygon fill="#B3B3B3" points="1048.2,534.1 1026.2,561.9 1025.2,557.9 1047.3,531.8 	"/>
	<polygon fill="#B3B3B3" points="1066.7,563.9 1040.6,609.6 1039.4,602.9 1065.6,560.1 	"/>
	<polygon fill="#B3B3B3" points="989,503.4 1043.5,526.4 1045.8,530.6 990.6,507.5 	"/>
	<polygon fill="#B3B3B3" points="1008.7,531.6 1060.9,553.8 1063.2,557.8 1010.1,535.7 	"/>
	<polygon fill="#B3B3B3" points="1026.6,562.2 1092.7,602.5 1095.6,609.8 1028.4,569.5 	"/>
	<polygon fill="#B3B3B3" points="1036.5,516.8 997.5,516.9 999.9,520.8 1038.4,519.9 	"/>
	<polygon fill="#B3B3B3" points="1045.7,530.4 1008.5,530.5 1010.7,534.4 1047.4,533.5 	"/>
	<polygon fill="#B3B3B3" points="1054,544.7 1016.8,544.8 1019,548.7 1055.7,547.9 	"/>
	<polygon fill="#B3B3B3" points="1063.7,558.3 1025.1,558.4 1027.4,562.3 1065.6,561.4 	"/>
	<path fill="#B3B3B3" d="M1008.1,503.9c0,0.4,45,55.5,53.1,105.5h5.4c0,0-13-53.9-54.9-105.7
		C1010.5,503.8,1008.1,503.9,1008.1,503.9z"/>
	<path fill="#B3B3B3" d="M982.3,495.4H867.6c0,0-20.2,33.7-20,34c0.2,0.3,21.8-14.8,21.8-14.8l39.9-11.7l53.7,3.6l38.7,20.3
		L982.3,495.4z M857.3,516.5c0,0-0.6-1.9,1.2-2.8c1.8-0.9,3,0,3,0L857.3,516.5z M863.1,512.8c0,0-3-3.8-0.5-5.2
		c2.5-1.4,5.1,2.5,5.1,2.5L863.1,512.8z M869.3,509.6c0,0-2.4-3.6-3.5-5.5c-1.1-1.9,0.3-2.9,1.2-3.5c0.9-0.6,3.1-1.3,4.4,0.8
		c1.3,2.2,3.4,5.7,3.4,5.7L869.3,509.6z M875.8,506.6c0,0-2.2-3.3-3.2-5.1s0.3-2.7,1.1-3.2c0.9-0.5,2.9-1.2,4.1,0.8
		c1.2,2,3.2,5.3,3.2,5.3L875.8,506.6z M883.2,503.6c0,0-1-2.2-1.8-3.6c-0.8-1.4,0.2-2.2,0.9-2.5c1.2-0.6,2.9-0.7,3.9,0.9
		c1,1.6,1.8,3.8,1.8,3.8L883.2,503.6z M889.6,501.4c0,0-1.1-3,1.5-3.8c3.6-0.8,4.2,2.5,4.2,2.5L889.6,501.4z M897.6,499.6
		c0,0,0.3-1.9,2.3-2c2-0.1,2.7,1.3,2.7,1.3L897.6,499.6z M947,498.8c0,0,0.7-1.4,2.7-1.3c2,0.1,2.3,2,2.3,2L947,498.8z M960,501.4
		l-5.8-1.3c0,0,0.7-3.2,4.2-2.5C961.2,498.4,960,501.4,960,501.4z M968.2,500.1c-0.8,1.4-1.8,3.6-1.8,3.6l-4.8-1.4
		c0,0,0.9-2.2,1.8-3.8c1-1.6,2.6-1.5,3.9-0.9C968,497.9,969,498.7,968.2,500.1z M968.6,504.3c0,0,1.9-3.2,3.2-5.3
		c1.2-2,3.2-1.3,4.1-0.8c0.9,0.5,2.2,1.5,1.1,3.2c-1.1,1.8-3.2,5.1-3.2,5.1L968.6,504.3z M974.7,507.1c0,0,2.1-3.5,3.4-5.7
		c1.3-2.2,3.5-1.4,4.4-0.8c0.9,0.6,2.4,1.6,1.2,3.5c-1.1,1.9-3.5,5.5-3.5,5.5L974.7,507.1z M986.5,512.8l-4.6-2.7
		c0,0,2.5-3.9,5.1-2.5C989.6,509,986.5,512.8,986.5,512.8z M988,513.6c0,0,1.2-0.9,3,0c1.8,0.9,1.2,2.8,1.2,2.8L988,513.6z"/>
	<path fill="#B3B3B3" d="M891,347.8c0,0,19.6-125.4,24.1-243.4h2.3c0,0-14,181.5-23,242.2L891,347.8z"/>
	<path fill="#B3B3B3" d="M959.6,347.8c0,0-19.6-125.4-24.1-243.4h-2.3c0,0,14,181.5,23,242.2L959.6,347.8z"/>
	<polygon fill="#B3B3B3" points="926.8,108.4 926.4,239.1 915.1,345.8 912.1,345 923.4,238.7 924.5,108.4 	"/>
	<polygon fill="#B3B3B3" points="926.3,236.6 940,345.3 935.5,344.2 924.7,241.3 	"/>
	<rect x="916" y="107.6" fill="#B3B3B3" width="18.7" height="1.5"/>
	<polygon fill="#B3B3B3" points="917,109.7 924.4,116.2 915.2,124.3 914.9,126 924.4,134.1 913.9,143.2 913.7,145.5 924.7,155.1 
		912,165.6 911.8,168 924.6,179 910,191.5 909.9,193.4 924.5,207 907.3,221.1 907.2,223.3 924.2,238.9 904.1,254.5 903.9,257.7 
		921.1,273.8 900.2,291.1 899.3,293.1 916.9,311.2 896.2,328.2 896.1,330.3 895.5,334.8 909.6,347.2 912.4,347.3 911.6,345.4 
		896.3,333.3 896.6,329.9 916.4,313.4 918,310.5 917.5,308.5 900.5,292.6 920.8,276.4 922.2,272.3 904.4,256.4 923.8,241.5 
		925.2,237.9 907.6,222.2 924.7,209 925.1,205.6 910.2,192.4 924.9,180.5 925.4,177 912.2,167 925.1,156.2 925.4,152.9 914,144.5 
		925.2,135.2 925.1,132.4 915.6,125.4 925.4,117.1 925.2,113.8 918.3,108.9 917,108.7 	"/>
	<polygon fill="#B3B3B3" points="935,110.5 927.2,117 936.1,125.1 936.3,126.8 926.7,134.8 937.3,144 937.4,146.3 926.4,155.8 
		939.1,166.4 939.3,168.8 926.5,179.8 941.1,192.2 941.2,194.2 926.6,207.8 943.8,221.8 943.9,224 926.9,239.7 947,255.2 
		947.2,258.5 930,274.5 950.9,291.9 951.8,293.9 934.2,311.9 954.9,328.9 955,331 955.6,335.6 941.5,348 938.7,348.1 939.5,346.2 
		954.8,334.1 954.5,330.7 934.7,314.2 933.1,311.3 933.6,309.3 950.6,293.3 930.3,277.2 928.9,273.1 946.7,257.1 927.3,242.3 
		925.9,238.6 943.5,223 926.4,209.8 926,206.3 940.9,193.2 926.2,181.3 925.7,177.7 938.9,167.8 926,157 925.7,153.6 937.1,145.3 
		925.9,135.9 926.1,133.1 935.5,126.1 925.7,117.8 925.9,114.6 933.2,109.6 935,109.4 	"/>
	<path fill="#B3B3B3" d="M923.9,108.2l-8.6,7l-0.2,2.4l9.4,7.5l-10.3,7.7l-0.3,3.1l10.7,8.1l-11.7,9.5v3l11.4,10l-13.6,11.5
		l-0.1,2.4l13.6,11.9l-15.8,13.7l-0.2,2.4L924,222l-19.1,17.6c0,0,17.8,16.3,17.7,16c-0.1-0.3-21.3,18.2-21.3,18.2l16.8,18
		l-21.3,19.5l17.2,19.9l-21,15.3l-0.4,1.5l22.6-15.3v-3.2l-16.3-18.1l20.4-17.9l0.5-3.3l-16.7-16.7l20.9-17.4l0.1-1.6l-17.3-14.8
		l18.4-15.9l0.1-3.6l-16-12.7l16.5-14.3l-0.2-1.9l-14-11.7l14.3-11.3l-0.2-2.7l-12.3-10.2l12.5-10.6l-0.2-2l-10.7-8l11-8.5l-0.6-3
		l-9.3-6.6l9-6.6l-0.4-1.5L923.9,108.2z"/>
	<path fill="#B3B3B3" d="M926.9,108.2l8.6,7l0.2,2.4l-9.4,7.5l10.3,7.7l0.3,3.1l-11.1,8.1l11.3,9.5v3l-11,10l13.8,11.5l0.2,2.4
		l-13.5,11.9l15.8,13.7l0.2,2.4L926.8,222l19.1,17.6c0,0-17.8,16.3-17.7,16c0.1-0.3,21.3,18.2,21.3,18.2l-16.8,18l21.3,19.5
		l-17.2,19.9l21,15.3l0.5,1.5L936,332.7v-3.2l16.2-18.1l-20.4-17.9l-0.5-3.3l16.7-16.7L927,256.1l-0.1-1.6l17.3-14.8l-18.4-15.9
		l-0.1-3.6l16-12.7l-16.5-14.3l0.2-1.9l14-11.7l-14.3-11.3l0.2-2.7l12.3-10.2l-12.5-10.6l0.2-2l10.7-8l-11-8.5l0.6-3l9.3-6.6l-9-6.6
		l0.4-1.5L926.9,108.2z"/>
	<polygon fill="#B3B3B3" points="922.6,274.2 930.4,287.9 930.5,291.7 921.7,275.8 	"/>
	<polygon fill="#B3B3B3" points="928.7,274.1 920.3,288.5 920.2,292.4 929.6,275.8 	"/>
	<polygon fill="#B3B3B3" points="930.7,293 918.8,309.2 918.4,312.9 930.8,295.1 	"/>
	<polygon fill="#B3B3B3" points="933.7,311.8 915.8,329.5 915.4,333.2 933.8,314 	"/>
	<polygon fill="#B3B3B3" points="935.2,329.9 917.3,347.6 916.9,351.3 935.3,332.1 	"/>
	<polygon fill="#B3B3B3" points="920.7,291.6 932.1,308.7 932.3,313.4 919.5,293.6 	"/>
	<polygon fill="#B3B3B3" points="918.6,310.5 933.9,327.3 934.8,332.4 917.5,312.9 	"/>
	<polygon fill="#B3B3B3" points="916.3,330.1 931.7,346.9 932.5,352 915.3,332.5 	"/>
	<rect x="910.3" y="92.6" fill="#808080" width="30.4" height="12"/>
	<rect x="912.3" y="87.5" fill="#999999" width="26" height="5"/>
	<polygon fill="#999999" points="881,351.3 881,348.3 886.3,345.4 964.9,345.4 972,348.7 972,351.3 961.8,355.5 	"/>
	<polygon fill="#808080" points="886.2,361.4 880.3,351.3 885.4,349.3 965,349.5 972.7,351.6 965.4,361.8 	"/>
	<rect x="743.5" y="609" fill="#B3B3B3" width="82.2" height="18.9"/>
	<rect x="1028.3" y="609" fill="#B3B3B3" width="82.2" height="18.9"/>
</g>
<g>
	
		<rect x="481.8" y="200.9" transform="matrix(-0.7206 -0.6934 0.6934 -0.7206 689.2617 692.4183)" fill="#B3B3B3" width="4.8" height="12.9"/>
	<circle fill="#2D2C31" cx="478.1" cy="214.2" r="6.6"/>
	<circle fill="#B3B3B3" cx="478.1" cy="214.2" r="4.1"/>
	<path fill="#F2F2F2" d="M673.3,194.5c0,0-10.7-11-41.3-14.1c-9.4-1.3-14.7,7.6-14.7,7.6l16.4,17.8l37.4,5.2L673.3,194.5z"/>
	<path fill="#4D4D4D" d="M756.3,207.9c13.7,3.8,24.7,13.4,23.5,27.6c-1.2,14.2-13.7,24.3-27.9,23.1l-43.7-3.8l4.5-55.1
		C712.7,199.8,745.2,204.8,756.3,207.9z"/>
	<path fill="#605565" d="M785.7,231c0,0-6.6-9.2-6.5-13.7c0.1-4.6,3.1-44.7,5.9-45.1c2.8-0.4,6.9,43.3,6.5,45.9
		C791.3,220.7,788.9,230.4,785.7,231z"/>
	<path fill="#C1272D" d="M783,239.1l7.8-0.6c1.5-0.1,2.6-1.4,2.5-2.9l-0.6-7.4c-0.1-1.5-1.4-2.6-2.9-2.5l-7.8,0.6
		c-1.5,0.1-2.6,1.4-2.5,2.9l0.6,7.4C780.1,238.1,781.5,239.2,783,239.1z"/>
	<path fill="#2D2C31" d="M778.7,241.6l-1-18.2c0,0,6.9-0.8,7,5.3c0.1,6.2,0.9,10.2-1.9,12.1C780,242.7,778.7,241.6,778.7,241.6z"/>
	<path fill="#605565" d="M787.4,237.3c0,0,6.6,9.1,6.5,13.7c-0.1,4.6-2.9,44.7-5.6,45.1s-7.1-43.3-6.8-45.9
		C781.9,247.6,784.2,237.9,787.4,237.3z"/>
	<circle fill="#808080" cx="711.6" cy="251.2" r="1.5"/>
	<circle fill="#808080" cx="712.5" cy="240.5" r="1.5"/>
	<circle fill="#808080" cx="713.3" cy="229.8" r="1.5"/>
	<circle fill="#808080" cx="714.7" cy="217.7" r="1.5"/>
	<circle fill="#808080" cx="715" cy="208.4" r="1.5"/>
	
		<rect x="702.4" y="261.1" transform="matrix(-0.9871 0.16 -0.16 -0.9871 1441.9965 424.726)" fill="#B3B3B3" width="2.9" height="18.7"/>
	
		<rect x="697.6" y="248.9" transform="matrix(-0.9774 0.2114 -0.2114 -0.9774 1441.0372 358.1735)" fill="#808080" width="7.6" height="14.4"/>
	<path fill="#4D4D4D" d="M641.6,203.3c0,0,2.8-10.9-1.8-21.9l-1.7-0.2c0,0,3.9,8.9,2.4,22.3L641.6,203.3z"/>
	<path fill="#4D4D4D" d="M666.3,206.3c0,0,2.4-8.8,0-16.6l-1.5-0.8c0,0,2.8,7.2,0.8,17.4L666.3,206.3z"/>
	<path fill="#4D4D4D" d="M670.7,203.1c0,0-31.1-3.7-35.3-3.1l-0.5-0.5c0,0,8.3-0.7,36.1,3.1L670.7,203.1z"/>
	<path fill="#4D4D4D" d="M625.4,187.5l3.4-7.2c0,0,16,0.7,26.4,4.6s18.3,9,18.3,9l-0.2,0.8c0,0-11.6-7.6-24-10.7s-19.8-2.7-19.8-2.7
		L626,188L625.4,187.5z"/>
	
		<ellipse transform="matrix(-0.9368 -0.3498 0.3498 -0.9368 1266.5668 808.6558)" fill="#2D2C31" cx="706.3" cy="289.9" rx="10.4" ry="10.1"/>
	
		<ellipse transform="matrix(-0.9368 -0.3498 0.3498 -0.9368 1266.5668 808.6558)" fill="#B3B3B3" cx="706.3" cy="289.9" rx="6.5" ry="6.3"/>
	<path fill="#808080" d="M480.8,146.1c16.2,9.5,22.5,31.4,22.5,31.4l121.9,9.9l11.5,14.8l32.9,3.9l3.5-11.5l39.7,5.4l-4.7,55
		c0,0-73.3-7.8-217.2-48.7l-38.8-14.9c1.3-5,2.8-11,4.6-17.9C462.9,150.9,474.2,146.5,480.8,146.1z"/>
	<path fill="#C1272D" d="M473,142.8c2.8,0.7,5.4,1.9,7.8,3.3c-6.7,0.5-17.9,4.8-23.9,27.3c-1.9,7-3.4,12.9-4.6,17.9l-9.8-3.8
		C442.5,187.5,451.1,137,473,142.8z"/>
	<polygon fill="#4D4D4D" points="674.4,194.2 670.8,207.1 636.7,203.1 624.6,187.4 626.4,187.2 637.3,202.2 669.8,205.7 
		673.5,193.9 	"/>
	<polygon fill="#4D4D4D" points="626.4,187.2 618.2,186.8 626.3,188.5 	"/>
	<path fill="#4D4D4D" d="M493.3,184l-30.1-2.6c0,0-0.1,5.7,3.7,6.5c3.8,0.8,19.3,1.9,23.1,1.9S493.3,184,493.3,184z"/>
	<path fill="#4D4D4D" d="M705.7,255.1l-95.4-17.8c0,0,8.3-10.8,25.8-17.6s25.8-8.8,46.1-1C699.3,225.3,714.8,256.7,705.7,255.1z"/>
</g>
<g>
	<path fill="#CCCCCC" d="M448.7,127.5c0,0-78.1-65.1-161.2-33.5c-99.5,37.8-62.6,110.2-272,108.4l-7,62.9c0,0,121.4,18.2,206.6-35.6
		s111.2-108.5,206.2-55L448.7,127.5z"/>
	<polygon fill="#C1272D" points="15.4,202.5 8.4,265.4 26.2,266.4 30.7,202.2 	"/>
	<polygon fill="#C1272D" points="448.7,127.5 421.1,174.8 410,168 439.3,121.1 	"/>
</g>
</svg>
