<?xml version="1.0" encoding="utf-8"?>
<!-- Generator: Adobe Illustrator 18.1.1, SVG Export Plug-In . SVG Version: 6.00 Build 0)  -->
<svg version="1.1" id="Layer_1" xmlns="http://www.w3.org/2000/svg" xmlns:xlink="http://www.w3.org/1999/xlink" x="0px" y="0px"
	 viewBox="0 0 536.1 505" enable-background="new 0 0 536.1 505" xml:space="preserve">
<g>
	<rect x="20.2" y="380.5" fill="#3C3C3C" width="18.6" height="1.5"/>
	<path fill="#6A5B4B" d="M120.1,336h-9.5c0,0,1.5,1.2-0.4,3.4s-2.5,5.5-4.7,8c-2.2,2.5,0.4,3.7-4.7,6.9S87,372.9,71.7,371.1
		c-15.3-1.8-30.6,4.7-34.2,6.6c-3.6,1.8,1.8,5.1-5.8,7.6s-22.2,2.2-24,6.2c-1.8,4-7.6,9.8-7.6,9.8V505h118.3
		C118.3,505,120.4,336,120.1,336z"/>
	<g>
		<defs>
			<path id="SVGID_1_" d="M18.2,430.4c0,0-7.6,7.6,0.4,16.7c8,9.1,11.3,15.6,8.4,25.1s12,32,12,32l24.4,0.4c0,0,2.5-25.5-6.2-37.1
				c-8.7-11.6-21.8-23.7-18.2-32C42.6,427.1,28,414.8,18.2,430.4z"/>
		</defs>
		<clipPath id="SVGID_2_">
			<use xlink:href="#SVGID_1_"  overflow="visible"/>
		</clipPath>
		<g clip-path="url(#SVGID_2_)">
			<rect x="12.8" y="418" fill="#998675" width="54.1" height="86.2"/>
			<rect x="14.9" y="419.8" fill="#6A5B4B" width="16.7" height="4"/>
			<rect x="32.3" y="419.8" fill="#6A5B4B" width="16.7" height="4"/>
			<rect x="50" y="419.8" fill="#6A5B4B" width="16.7" height="4"/>
			<rect x="7.3" y="424.2" fill="#6A5B4B" width="16.7" height="4"/>
			<rect x="24.7" y="424.2" fill="#6A5B4B" width="16.7" height="4"/>
			<rect x="42.4" y="424.2" fill="#6A5B4B" width="16.7" height="4"/>
			<rect x="60.1" y="424.2" fill="#6A5B4B" width="16.7" height="4"/>
			<rect x="14.9" y="428.9" fill="#6A5B4B" width="16.7" height="4"/>
			<rect x="32.3" y="428.9" fill="#6A5B4B" width="16.7" height="4"/>
			<rect x="50" y="428.9" fill="#6A5B4B" width="16.7" height="4"/>
			<rect x="7.3" y="433.3" fill="#6A5B4B" width="16.7" height="4"/>
			<rect x="24.7" y="433.3" fill="#6A5B4B" width="16.7" height="4"/>
			<rect x="42.4" y="433.3" fill="#6A5B4B" width="16.7" height="4"/>
			<rect x="60.1" y="433.3" fill="#6A5B4B" width="16.7" height="4"/>
			<rect x="14.9" y="438" fill="#6A5B4B" width="16.7" height="4"/>
			<rect x="32.3" y="438" fill="#6A5B4B" width="16.7" height="4"/>
			<rect x="50" y="438" fill="#6A5B4B" width="16.7" height="4"/>
			<rect x="7.3" y="442.4" fill="#6A5B4B" width="16.7" height="4"/>
			<rect x="24.7" y="442.4" fill="#6A5B4B" width="16.7" height="4"/>
			<rect x="42.4" y="442.4" fill="#6A5B4B" width="16.7" height="4"/>
			<rect x="60.1" y="442.4" fill="#6A5B4B" width="16.7" height="4"/>
			<rect x="14.9" y="447.1" fill="#6A5B4B" width="16.7" height="4"/>
			<rect x="32.3" y="447.1" fill="#6A5B4B" width="16.7" height="4"/>
			<rect x="50" y="447.1" fill="#6A5B4B" width="16.7" height="4"/>
			<rect x="7.3" y="451.5" fill="#6A5B4B" width="16.7" height="4"/>
			<rect x="24.7" y="451.5" fill="#6A5B4B" width="16.7" height="4"/>
			<rect x="42.4" y="451.5" fill="#6A5B4B" width="16.7" height="4"/>
			<rect x="60.1" y="451.5" fill="#6A5B4B" width="16.7" height="4"/>
			<rect x="14.9" y="456.2" fill="#6A5B4B" width="16.7" height="4"/>
			<rect x="32.3" y="456.2" fill="#6A5B4B" width="16.7" height="4"/>
			<rect x="50" y="456.2" fill="#6A5B4B" width="16.7" height="4"/>
			<rect x="7.3" y="460.6" fill="#6A5B4B" width="16.7" height="4"/>
			<rect x="24.7" y="460.6" fill="#6A5B4B" width="16.7" height="4"/>
			<rect x="42.4" y="460.6" fill="#6A5B4B" width="16.7" height="4"/>
			<rect x="60.1" y="460.6" fill="#6A5B4B" width="16.7" height="4"/>
			<rect x="14.9" y="465.3" fill="#6A5B4B" width="16.7" height="4"/>
			<rect x="32.3" y="465.3" fill="#6A5B4B" width="16.7" height="4"/>
			<rect x="50" y="465.3" fill="#6A5B4B" width="16.7" height="4"/>
			<rect x="7.3" y="469.7" fill="#6A5B4B" width="16.7" height="4"/>
			<rect x="24.7" y="469.7" fill="#6A5B4B" width="16.7" height="4"/>
			<rect x="42.4" y="469.7" fill="#6A5B4B" width="16.7" height="4"/>
			<rect x="60.1" y="469.7" fill="#6A5B4B" width="16.7" height="4"/>
			<rect x="14.9" y="474.4" fill="#6A5B4B" width="16.7" height="4"/>
			<rect x="32.3" y="474.4" fill="#6A5B4B" width="16.7" height="4"/>
			<rect x="50" y="474.4" fill="#6A5B4B" width="16.7" height="4"/>
			<rect x="7.3" y="478.8" fill="#6A5B4B" width="16.7" height="4"/>
			<rect x="24.7" y="478.8" fill="#6A5B4B" width="16.7" height="4"/>
			<rect x="42.4" y="478.8" fill="#6A5B4B" width="16.7" height="4"/>
			<rect x="60.1" y="478.8" fill="#6A5B4B" width="16.7" height="4"/>
			<rect x="14.9" y="483.5" fill="#6A5B4B" width="16.7" height="4"/>
			<rect x="32.3" y="483.5" fill="#6A5B4B" width="16.7" height="4"/>
			<rect x="50" y="483.5" fill="#6A5B4B" width="16.7" height="4"/>
			<rect x="7.3" y="487.9" fill="#6A5B4B" width="16.7" height="4"/>
			<rect x="24.7" y="487.9" fill="#6A5B4B" width="16.7" height="4"/>
			<rect x="42.4" y="487.9" fill="#6A5B4B" width="16.7" height="4"/>
			<rect x="60.1" y="487.9" fill="#6A5B4B" width="16.7" height="4"/>
			<rect x="14.9" y="492.6" fill="#6A5B4B" width="16.7" height="4"/>
			<rect x="32.3" y="492.6" fill="#6A5B4B" width="16.7" height="4"/>
			<rect x="50" y="492.6" fill="#6A5B4B" width="16.7" height="4"/>
			<rect x="7.3" y="497" fill="#6A5B4B" width="16.7" height="4"/>
			<rect x="24.7" y="497" fill="#6A5B4B" width="16.7" height="4"/>
			<rect x="42.4" y="497" fill="#6A5B4B" width="16.7" height="4"/>
			<rect x="60.1" y="497" fill="#6A5B4B" width="16.7" height="4"/>
			<rect x="14.9" y="501.7" fill="#6A5B4B" width="16.7" height="4"/>
			<rect x="32.3" y="501.7" fill="#6A5B4B" width="16.7" height="4"/>
			<rect x="50" y="501.7" fill="#6A5B4B" width="16.7" height="4"/>
			<rect x="7.3" y="506.1" fill="#6A5B4B" width="16.7" height="4"/>
			<rect x="24.7" y="506.1" fill="#6A5B4B" width="16.7" height="4"/>
			<rect x="42.4" y="506.1" fill="#6A5B4B" width="16.7" height="4"/>
			<rect x="60.1" y="506.1" fill="#6A5B4B" width="16.7" height="4"/>
		</g>
	</g>
	<path opacity="0.1" d="M120.4,336H111c0,0,1.5,1.2-0.4,3.4s-2.5,5.5-4.7,8c-2.2,2.5,0.4,3.7-4.7,6.9c-0.5,0.3-0.9,0.7-1.5,1.2
		c1,4.2,3.3,9.4,3.3,15.2c0,9.1-0.7,70.1-1.5,84.2c-0.7,13-0.4,44.7-0.4,50h17.5C118.6,505,120.8,336,120.4,336z"/>
	<rect x="88.1" y="344.2" fill="#3C3C3C" width="1.5" height="18.6"/>
	<rect x="41.3" y="414.8" fill="#3C3C3C" width="18.6" height="1.5"/>
	<rect x="81.9" y="351.8" fill="#3C3C3C" width="1.5" height="18.6"/>
	<path fill="#998675" d="M123.9,440.6c-1.8-1.1-0.8-6.2-1.6-8c-0.5-1.1,0.7-1.7,1.7-2V318h-8.9c0.1,1,0.4,2.1,1,3.4
		c1.8,4,1.1,4.6-0.4,4.6c-1.5,0,2.2,4,0.7,4.3s-0.4,3.6-0.7,4.7c-0.4,1.1,3.1,2.5-1.3,4.4c-1.2,0.5-2.5,0.9-3.5,1.3v28.1
		c1,0.6,1.4,1,2.7,0.7c4-0.7,2.3,4,3,6.2c0.7,2.2-2.5,4-1.4,4s-0.2,4-2,4.4c-0.7,0.1-1.3,0.7-2.3,1.4V409H92v-49.7
		c-5-0.9-6.8,3.1-8.2,4.2c-1.5,1.1-3.5,2.9-4.2,5.5c-0.2,0.6-0.6,1.1-0.6,1.6v16.7c1,0.2,1.4,0.8,1.3,2.1c-0.4,2.9,2.6,4.7-0.3,5.8
		c-0.4,0.2-1,0.4-1,0.6V409H53.3c0.8,1,1.5,3.3,0.2,4.3c0,0,2.5,2.2-0.7,4.3c-3.3,2.2-8.4,2.5-8.4,2.5s4.4,3.3,1.8,6.5
		c-2.5,3.3-4.8,3.6-3.3,5.8c1.3,1.9,2.1,6.7-5.9,6.9V505h14v-66h60v66h13v-64.2C124,440.8,124,440.7,123.9,440.6z"/>
	<rect x="66.6" y="422.4" fill="#736357" width="57.9" height="2.5"/>
	<rect x="37.8" y="445.3" fill="#736357" width="13.1" height="1.1"/>
	<rect x="37.8" y="451.9" fill="#736357" width="13.1" height="1.1"/>
	<rect x="37.8" y="458.4" fill="#736357" width="13.1" height="1.1"/>
	<rect x="37.8" y="465" fill="#736357" width="13.1" height="1.1"/>
	<rect x="37.8" y="471.5" fill="#736357" width="13.1" height="1.1"/>
	<rect x="37.8" y="478.1" fill="#736357" width="13.1" height="1.1"/>
	<rect x="37.8" y="484.6" fill="#736357" width="13.1" height="1.1"/>
	<rect x="37.8" y="491.2" fill="#736357" width="13.1" height="1.1"/>
	<rect x="37.8" y="497.7" fill="#736357" width="13.1" height="1.1"/>
	<rect x="111.4" y="445.3" fill="#736357" width="13.1" height="1.1"/>
	<rect x="111.4" y="451.9" fill="#736357" width="13.1" height="1.1"/>
	<rect x="111.4" y="458.4" fill="#736357" width="13.1" height="1.1"/>
	<rect x="111.4" y="465" fill="#736357" width="13.1" height="1.1"/>
	<rect x="111.4" y="471.5" fill="#736357" width="13.1" height="1.1"/>
	<rect x="111.4" y="478.1" fill="#736357" width="13.1" height="1.1"/>
	<rect x="111.4" y="484.6" fill="#736357" width="13.1" height="1.1"/>
	<rect x="111.4" y="491.2" fill="#736357" width="13.1" height="1.1"/>
	<rect x="111.4" y="497.7" fill="#736357" width="13.1" height="1.1"/>
	<rect x="72.1" y="408.9" fill="#736357" width="6.6" height="4"/>
	<rect x="91.3" y="408.9" fill="#736357" width="6.6" height="4"/>
	<rect x="104.4" y="408.9" fill="#736357" width="6.6" height="4"/>
	<rect x="117.9" y="339.8" fill="#736357" width="1.8" height="83.7"/>
	<path fill="#3C3C3C" d="M64.8,372.9c0,0-2.5,4.4-2.5,5.5s2.9,1.1,2.2,2.5c-0.7,1.5-2.9,8.7-2.9,8.7l5.1-10.6l-2.5-2.5l2.5-4
		L64.8,372.9z"/>
	<rect x="32.8" y="439.5" opacity="0.1" width="12.7" height="64.8"/>
	<rect x="78.6" y="369.3" opacity="0.1" width="7.1" height="39.3"/>
	<rect x="111" y="340.5" opacity="0.1" width="7.5" height="68.1"/>
	<rect x="110.3" y="439.5" opacity="0.1" width="9.1" height="64.8"/>
</g>
<g>
	<rect x="192.6" y="422.6" fill="#3C3C3C" width="11.8" height="0.9"/>
	<path fill="#6A5B4B" d="M140.8,394h6c0,0-0.9,0.9,0.2,2.3c1.2,1.4,1.6,3.6,3,5.2c1.4,1.6-0.2,2.4,3,4.5c3.2,2.1,8.8,11.9,18.6,10.7
		s19.5,3,21.8,4.2c2.3,1.2-1.2,3.3,3.7,4.9s14,1.4,15.1,3.9c1.2,2.6,4.7,6.3,4.7,6.3V502h-75.1C141.9,502,140.6,394,140.8,394z"/>
	<g>
		<defs>
			<path id="SVGID_3_" d="M205.8,454.4c0,0,4.9,4.9-0.2,10.7c-5.1,5.8-7.2,10-5.3,16s-7.7,20.4-7.7,20.4l-15.5,0.2
				c0,0-1.6-16.2,3.9-23.7c5.6-7.4,13.9-15.1,11.6-20.4C190.2,452.3,199.5,444.5,205.8,454.4z"/>
		</defs>
		<clipPath id="SVGID_4_">
			<use xlink:href="#SVGID_3_"  overflow="visible"/>
		</clipPath>
		<g clip-path="url(#SVGID_4_)">
			<rect x="174.7" y="446.5" fill="#998675" width="34.5" height="55"/>
			<rect x="197.2" y="447.7" fill="#6A5B4B" width="10.6" height="2.6"/>
			<rect x="186.1" y="447.7" fill="#6A5B4B" width="10.6" height="2.6"/>
			<rect x="174.8" y="447.7" fill="#6A5B4B" width="10.6" height="2.6"/>
			<rect x="202.1" y="450.5" fill="#6A5B4B" width="10.6" height="2.6"/>
			<rect x="191" y="450.5" fill="#6A5B4B" width="10.6" height="2.6"/>
			<rect x="179.7" y="450.5" fill="#6A5B4B" width="10.6" height="2.6"/>
			<rect x="168.4" y="450.5" fill="#6A5B4B" width="10.6" height="2.6"/>
			<rect x="197.2" y="453.5" fill="#6A5B4B" width="10.6" height="2.6"/>
			<rect x="186.1" y="453.5" fill="#6A5B4B" width="10.6" height="2.6"/>
			<rect x="174.8" y="453.5" fill="#6A5B4B" width="10.6" height="2.6"/>
			<rect x="202.1" y="456.3" fill="#6A5B4B" width="10.6" height="2.6"/>
			<rect x="191" y="456.3" fill="#6A5B4B" width="10.6" height="2.6"/>
			<rect x="179.7" y="456.3" fill="#6A5B4B" width="10.6" height="2.6"/>
			<rect x="168.4" y="456.3" fill="#6A5B4B" width="10.6" height="2.6"/>
			<rect x="197.2" y="459.3" fill="#6A5B4B" width="10.6" height="2.6"/>
			<rect x="186.1" y="459.3" fill="#6A5B4B" width="10.6" height="2.6"/>
			<rect x="174.8" y="459.3" fill="#6A5B4B" width="10.6" height="2.6"/>
			<rect x="202.1" y="462.1" fill="#6A5B4B" width="10.6" height="2.6"/>
			<rect x="191" y="462.1" fill="#6A5B4B" width="10.6" height="2.6"/>
			<rect x="179.7" y="462.1" fill="#6A5B4B" width="10.6" height="2.6"/>
			<rect x="168.4" y="462.1" fill="#6A5B4B" width="10.6" height="2.6"/>
			<rect x="197.2" y="465.1" fill="#6A5B4B" width="10.6" height="2.6"/>
			<rect x="186.1" y="465.1" fill="#6A5B4B" width="10.6" height="2.6"/>
			<rect x="174.8" y="465.1" fill="#6A5B4B" width="10.6" height="2.6"/>
			<rect x="202.1" y="467.9" fill="#6A5B4B" width="10.6" height="2.6"/>
			<rect x="191" y="467.9" fill="#6A5B4B" width="10.6" height="2.6"/>
			<rect x="179.7" y="467.9" fill="#6A5B4B" width="10.6" height="2.6"/>
			<rect x="168.4" y="467.9" fill="#6A5B4B" width="10.6" height="2.6"/>
			<rect x="197.2" y="470.9" fill="#6A5B4B" width="10.6" height="2.6"/>
			<rect x="186.1" y="470.9" fill="#6A5B4B" width="10.6" height="2.6"/>
			<rect x="174.8" y="470.9" fill="#6A5B4B" width="10.6" height="2.6"/>
			<rect x="202.1" y="473.7" fill="#6A5B4B" width="10.6" height="2.6"/>
			<rect x="191" y="473.7" fill="#6A5B4B" width="10.6" height="2.6"/>
			<rect x="179.7" y="473.7" fill="#6A5B4B" width="10.6" height="2.6"/>
			<rect x="168.4" y="473.7" fill="#6A5B4B" width="10.6" height="2.6"/>
			<rect x="197.2" y="476.7" fill="#6A5B4B" width="10.6" height="2.6"/>
			<rect x="186.1" y="476.7" fill="#6A5B4B" width="10.6" height="2.6"/>
			<rect x="174.8" y="476.7" fill="#6A5B4B" width="10.6" height="2.6"/>
			<rect x="202.1" y="479.5" fill="#6A5B4B" width="10.6" height="2.6"/>
			<rect x="191" y="479.5" fill="#6A5B4B" width="10.6" height="2.6"/>
			<rect x="179.7" y="479.5" fill="#6A5B4B" width="10.6" height="2.6"/>
			<rect x="168.4" y="479.5" fill="#6A5B4B" width="10.6" height="2.6"/>
			<rect x="197.2" y="482.5" fill="#6A5B4B" width="10.6" height="2.6"/>
			<rect x="186.1" y="482.5" fill="#6A5B4B" width="10.6" height="2.6"/>
			<rect x="174.8" y="482.5" fill="#6A5B4B" width="10.6" height="2.6"/>
			<rect x="202.1" y="485.3" fill="#6A5B4B" width="10.6" height="2.6"/>
			<rect x="191" y="485.3" fill="#6A5B4B" width="10.6" height="2.6"/>
			<rect x="179.7" y="485.3" fill="#6A5B4B" width="10.6" height="2.6"/>
			<rect x="168.4" y="485.3" fill="#6A5B4B" width="10.6" height="2.6"/>
			<rect x="197.2" y="488.3" fill="#6A5B4B" width="10.6" height="2.6"/>
			<rect x="186.1" y="488.3" fill="#6A5B4B" width="10.6" height="2.6"/>
			<rect x="174.8" y="488.3" fill="#6A5B4B" width="10.6" height="2.6"/>
			<rect x="202.1" y="491.1" fill="#6A5B4B" width="10.6" height="2.6"/>
			<rect x="191" y="491.1" fill="#6A5B4B" width="10.6" height="2.6"/>
			<rect x="179.7" y="491.1" fill="#6A5B4B" width="10.6" height="2.6"/>
			<rect x="168.4" y="491.1" fill="#6A5B4B" width="10.6" height="2.6"/>
			<rect x="197.2" y="494.1" fill="#6A5B4B" width="10.6" height="2.6"/>
			<rect x="186.1" y="494.1" fill="#6A5B4B" width="10.6" height="2.6"/>
			<rect x="174.8" y="494.1" fill="#6A5B4B" width="10.6" height="2.6"/>
			<rect x="202.1" y="496.9" fill="#6A5B4B" width="10.6" height="2.6"/>
			<rect x="191" y="496.9" fill="#6A5B4B" width="10.6" height="2.6"/>
			<rect x="179.7" y="496.9" fill="#6A5B4B" width="10.6" height="2.6"/>
			<rect x="168.4" y="496.9" fill="#6A5B4B" width="10.6" height="2.6"/>
			<rect x="197.2" y="499.9" fill="#6A5B4B" width="10.6" height="2.6"/>
			<rect x="186.1" y="499.9" fill="#6A5B4B" width="10.6" height="2.6"/>
			<rect x="174.8" y="499.9" fill="#6A5B4B" width="10.6" height="2.6"/>
			<rect x="202.1" y="502.7" fill="#6A5B4B" width="10.6" height="2.6"/>
			<rect x="191" y="502.7" fill="#6A5B4B" width="10.6" height="2.6"/>
			<rect x="179.7" y="502.7" fill="#6A5B4B" width="10.6" height="2.6"/>
			<rect x="168.4" y="502.7" fill="#6A5B4B" width="10.6" height="2.6"/>
		</g>
	</g>
	<path opacity="0.1" d="M140.6,394h6c0,0-0.9,0.9,0.2,2.3c1.2,1.4,1.6,3.6,3,5.2c1.4,1.6-0.2,2.4,3,4.5c0.3,0.2,0.6,0.5,0.9,0.8
		c-0.7,2.7-2.1,6-2.1,9.7c0,5.8,0.5,44.7,0.9,53.7c0.4,8.3,0.3,28.7,0.2,31.9h-11.1C141.7,502,140.3,394,140.6,394z"/>
	<rect x="160.3" y="399.4" fill="#3C3C3C" width="0.9" height="11.8"/>
	<rect x="179.2" y="444.5" fill="#3C3C3C" width="11.8" height="0.9"/>
	<rect x="164.2" y="404.3" fill="#3C3C3C" width="0.9" height="11.8"/>
	<path fill="#998675" d="M138.2,460.9c1.2-0.7,0.5-3.9,0.9-5.1c0.3-0.7-0.5-1.1-1.2-1.3V383h6c-0.1,1-0.2,1.2-0.6,2.1
		c-1.2,2.6-0.7,2.9,0.2,2.9s-1.4,2.5-0.5,2.7c0.9,0.2,0.2,2.3,0.5,3c0.2,0.7-2.3,1.6,0.5,2.8c0.7,0.3,1.9,0.6,1.9,0.8v17.9
		c0,0.4-0.6,0.6-1.4,0.5c-2.6-0.5-1.3,2.6-1.8,3.9c-0.5,1.4,1.7,2.6,1,2.6c-0.7,0-0.2,2.6,1,2.8c0.4,0.1,1.2,0.5,1.2,0.9V441h13
		v-31.9c2-0.6,4.2,2,5,2.7c0.9,0.7,2.2,1.9,2.6,3.5c0.1,0.4,0.3,0.7,0.3,1v10.6c-1,0.1-0.9,0.5-0.8,1.4c0.2,1.9-1.7,3,0.2,3.7
		c0.3,0.1,0.6,0.2,0.6,0.4v8.7h16.4c-0.5,1-0.9,2-0.1,2.7c0,0-1.6,1.3,0.5,2.7c2.1,1.4,5.3,1.6,5.3,1.6s-2.8,2.1-1.2,4.2
		c1.6,2.1,2.7,2.3,1.7,3.7c-0.8,1.2-1.6,4.3,3.4,4.4V502h-9v-41h-38v41h-8v-40.9C138,461,138.2,461,138.2,460.9z"/>
	<rect x="138" y="449.3" fill="#736357" width="36.9" height="1.6"/>
	<rect x="184.9" y="463.9" fill="#736357" width="8.4" height="0.7"/>
	<rect x="184.9" y="468.1" fill="#736357" width="8.4" height="0.7"/>
	<rect x="184.9" y="472.3" fill="#736357" width="8.4" height="0.7"/>
	<rect x="184.9" y="476.5" fill="#736357" width="8.4" height="0.7"/>
	<rect x="184.9" y="480.7" fill="#736357" width="8.4" height="0.7"/>
	<rect x="184.9" y="484.8" fill="#736357" width="8.4" height="0.7"/>
	<rect x="184.9" y="489" fill="#736357" width="8.4" height="0.7"/>
	<rect x="184.9" y="493.2" fill="#736357" width="8.4" height="0.7"/>
	<rect x="184.9" y="497.4" fill="#736357" width="8.4" height="0.7"/>
	<rect x="138" y="463.9" fill="#736357" width="8.4" height="0.7"/>
	<rect x="138" y="468.1" fill="#736357" width="8.4" height="0.7"/>
	<rect x="138" y="472.3" fill="#736357" width="8.4" height="0.7"/>
	<rect x="138" y="476.5" fill="#736357" width="8.4" height="0.7"/>
	<rect x="138" y="480.7" fill="#736357" width="8.4" height="0.7"/>
	<rect x="138" y="484.8" fill="#736357" width="8.4" height="0.7"/>
	<rect x="138" y="489" fill="#736357" width="8.4" height="0.7"/>
	<rect x="138" y="493.2" fill="#736357" width="8.4" height="0.7"/>
	<rect x="138" y="497.4" fill="#736357" width="8.4" height="0.7"/>
	<rect x="167.2" y="440.7" fill="#736357" width="4.2" height="2.6"/>
	<rect x="154.9" y="440.7" fill="#736357" width="4.2" height="2.6"/>
	<rect x="146.6" y="440.7" fill="#736357" width="4.2" height="2.6"/>
	<rect x="141" y="396.7" fill="#736357" width="1.2" height="53.4"/>
	<path fill="#3C3C3C" d="M176.1,417.8c0,0,1.6,2.8,1.6,3.5s-1.9,0.7-1.4,1.6c0.5,0.9,1.9,5.6,1.9,5.6l-3.2-6.7l1.6-1.6l-1.6-2.6
		L176.1,417.8z"/>
	<rect x="188.4" y="460.2" opacity="0.1" width="8.1" height="41.3"/>
	<rect x="162.7" y="415.5" opacity="0.1" width="4.5" height="25.1"/>
	<rect x="141.8" y="397.1" opacity="0.1" width="4.8" height="43.4"/>
	<rect x="141.3" y="460.2" opacity="0.1" width="5.8" height="41.3"/>
</g>
<g>
	
		<ellipse transform="matrix(0.9879 -0.1554 0.1554 0.9879 -39.6101 36.6632)" fill="#3F4458" cx="214.8" cy="271.7" rx="21.7" ry="5.9"/>
	<path fill="#605565" d="M278.7,237c0,0,5.5,3.6,6.3,6.1c0.9,2.5,7.5,25,6.1,25.8c-1.4,0.8-12.7-22.2-13-23.7
		C277.8,243.8,277.1,238,278.7,237z"/>
	<path fill="#C1272D" d="M265,230.6c0,0,8.6-2.3,23.8,0.9c0,0-4,8.9-18.9,15.7L265,230.6z"/>
	<path fill="#F2F2F2" d="M212,239.5c0,0-8.1-3.8-25.4,0.7c-5.4,1.2-6.4,7.2-6.4,7.2l12.6,6.4l21.5-4.8L212,239.5z"/>
	<path fill="#535852" d="M260,229.9c8.3-0.7,10.7,3,13,11c2.2,8,3,15.3-5,17.5l-24.6,6.8l-8.8-31C234.6,234.4,253.3,230.5,260,229.9
		z"/>
	<path fill="#605565" d="M276.5,234c0,0-5.5-3.7-6.3-6.2s-7.4-25-6-25.8c1.4-0.8,12.6,22.2,12.9,23.7
		C277.4,227.2,278.1,233,276.5,234z"/>
	<path fill="#4D4D4D" d="M196.5,250.7c0,0-0.7-6.5-5.5-11.6l-1,0.2c0,0,3.9,4.1,5.9,11.7L196.5,250.7z"/>
	<path fill="#4D4D4D" d="M210.6,247.4c0,0-0.5-5.3-3.4-9.1l-1-0.1c0,0,3,3.4,4,9.3L210.6,247.4z"/>
	<path fill="#4D4D4D" d="M212.4,244.7c0,0-17.7,4.3-19.9,5.5l-0.4-0.2c0,0,4.4-2.1,20.3-5.7L212.4,244.7z"/>
	<path fill="#4D4D4D" d="M184.4,245.5l0.4-4.6c0,0,8.9-2.9,15.3-2.9c6.5,0,11.8,1.2,11.8,1.2l0,0.5c0,0-7.9-1.8-15.3-0.9
		c-7.4,0.9-11.3,2.6-11.3,2.6l-0.5,4.2L184.4,245.5z"/>
	<path fill="#535852" d="M97.1,252.3c5.8,4.9,12.9,11,15.5,14c0.8,0.9,2,1.2,3.1,0.8l69.1-26.2l-0.3,4.4l9.1,5.8l18.7-4.6l-0.4-7
		l22.8-5.2l8.6,31c0,0-26.6,6.9-81.8,13.2c-13.8,1.6-29.3,3.1-46.6,4.5l-24.2-0.2c-0.3-3-0.7-6.5-1.1-10.7
		C88.3,258.6,93.6,253.9,97.1,252.3z"/>
	<path fill="#F3F7FF" d="M92.2,252.1c1.7-0.2,3.3-0.1,4.9,0.2c-3.5,1.6-8.8,6.3-7.5,19.8c0.4,4.2,0.8,7.7,1.1,10.7l-6.1-0.1
		C84.6,282.7,79,253.4,92.2,252.1z"/>
	<polygon fill="#4D4D4D" points="212.5,239 213.2,246.8 193.8,251.6 184.4,245.5 184.9,245.1 193.9,251 212.4,246.3 212,239 	"/>
	<path fill="#2C2D27" d="M111.6,270.5l-17,4.7c0,0,1.1,3.1,3.3,2.8c2.3-0.3,10.9-2.9,13-3.6C113,273.6,111.6,270.5,111.6,270.5z"/>
	<path fill="#2C2D27" d="M242,266l-55.7,9.7c0,0,2.3-7.6,10.5-14.9c8.2-7.3,12.3-10,24.9-9.9C232.5,251,247.3,265,242,266z"/>
	<path fill="#070707" d="M273.9,244.7c0,0-21.2-2.6-33.8,12.9c0,0,1.1,5.5,7.4,6.1c0,0,16.6-3.9,20.5-5.2
		C271.9,257.3,276.4,253.5,273.9,244.7z"/>
	<path fill="#C1272D" d="M240.1,257.5l1.5-0.6l32.3-12.3C273.9,244.7,252.7,240.7,240.1,257.5z"/>
	<polygon fill="#FEFFFF" points="244,260.8 245.7,255.8 248.6,258.1 251.2,254.1 254.4,256.4 257,251.5 260.1,254.7 262.1,249.8 
		265.6,252.1 267,247.2 271,250.4 271.9,245.8 274,249 274,244.4 240.3,257.5 	"/>
	<polygon fill="#FEFFFF" points="276.4,250.7 274.2,255.6 271.5,253.1 268.6,256.8 265.6,254.2 262.6,258.8 259.8,255.4 
		257.3,260.1 254.1,257.5 252.2,262.2 248.5,258.7 247.4,263.2 245.8,259.9 245.4,264.4 280,254.4 	"/>
	<path fill="#C1272D" d="M240.1,257.5c0,0,4.9,5.3,7.9,5.4c3,0.1,23.5-6.3,23.5-6.3s-1.4,1.3-2.9,1.7s-19,5.3-22.4,6.2
		C242.7,265.4,240.1,257.5,240.1,257.5z"/>
	<path fill="#F7F8FC" d="M258.5,237.4l4.2,3.1C262.7,240.5,255.3,244.9,258.5,237.4z"/>
	<path fill="#29ABE2" d="M260.6,238.9c0,0-0.9,0.6-0.1,1.3s1.4-0.2,1.4-0.2L260.6,238.9z"/>
</g>
<g>
	
		<rect x="160.4" y="162" transform="matrix(-0.9176 -0.3975 0.3975 -0.9176 245.5417 390.0534)" fill="#B3B3B3" width="5.6" height="15.2"/>
	<circle fill="#2D2C31" cx="159.4" cy="179.6" r="7.8"/>
	<circle fill="#B3B3B3" cx="159.4" cy="179.6" r="4.9"/>
	<path fill="#F2F2F2" d="M366.8,77.4c0,0-16.4-7.7-51.4,1.4c-10.9,2.5-13,14.5-13,14.5l25.5,12.9l43.5-9.7L366.8,77.4z"/>
	<path fill="#756556" d="M464.1,58c16.7-1.4,32.8,4.6,37.3,20.7c4.5,16.2-5.1,32.5-21.3,37l-49.8,13.8L412.5,67
		C412.5,67,450.5,59.1,464.1,58z"/>
	<path fill="#605565" d="M506,71.4c0,0-11.1-7.4-12.8-12.5s-15-50.7-12.1-52.2s25.4,45,26.1,48C508,57.7,509.3,69.3,506,71.4z"/>
	<path fill="#C1272D" d="M505.9,81.6l9.2-4.3c1.4-0.6,2-2.3,1.3-3.6l-4.1-8.8c-0.6-1.4-2.3-2-3.6-1.3l-9.2,4.3
		c-1.4,0.6-2,2.3-1.3,3.6l4.1,8.8C502.9,81.7,504.5,82.3,505.9,81.6z"/>
	<path fill="#2D2C31" d="M502.7,85.9l-8.6-19.7c0,0,7.3-3.8,10,3c2.7,6.8,5.2,10.9,2.8,14.2S502.7,85.9,502.7,85.9z"/>
	<path fill="#605565" d="M510.5,77.6c0,0,11.1,7.3,12.8,12.4c1.7,5.1,15.3,50.6,12.4,52.1c-2.9,1.6-25.7-44.9-26.4-47.9
		C508.6,91.3,507.2,79.6,510.5,77.6z"/>
	<circle fill="#808080" cx="432.5" cy="124.2" r="1.7"/>
	<circle fill="#808080" cx="429" cy="112" r="1.7"/>
	<circle fill="#808080" cx="425.6" cy="99.8" r="1.7"/>
	<circle fill="#808080" cx="422.1" cy="85.9" r="1.7"/>
	<circle fill="#808080" cx="418.6" cy="75.5" r="1.7"/>
	
		<rect x="430.2" y="137.6" transform="matrix(-0.8688 0.4952 -0.4952 -0.8688 880.8088 63.8809)" fill="#B3B3B3" width="3.5" height="22"/>
	
		<rect x="418.7" y="125.4" transform="matrix(-0.8417 0.5399 -0.5399 -0.8417 851.7855 18.0281)" fill="#808080" width="9" height="17"/>
	<path fill="#4D4D4D" d="M335.5,100.1c0,0-1.4-13.2-11.1-23.5l-2,0.4c0,0,8,8.3,11.9,23.6L335.5,100.1z"/>
	<path fill="#4D4D4D" d="M363.9,93.3c0,0-1-10.7-6.9-18.3l-2-0.2c0,0,6.1,6.8,8,18.9L363.9,93.3z"/>
	<path fill="#4D4D4D" d="M367.6,88c0,0-35.8,8.7-40.3,11.2l-0.8-0.4c0,0,8.9-4.2,41.1-11.4L367.6,88z"/>
	<path fill="#4D4D4D" d="M311,89.5l0.8-9.3c0,0,18-5.8,31.1-5.8s23.9,2.5,23.9,2.5l0.1,1c0,0-15.9-3.6-30.9-1.9
		c-15,1.7-23,5.2-23,5.2l-1,8.5L311,89.5z"/>
	<ellipse fill="#2D2C31" cx="442.7" cy="169.2" rx="12.3" ry="11.9"/>
	<ellipse fill="#B3B3B3" cx="442.7" cy="169.2" rx="7.7" ry="7.4"/>
	<path fill="#847B6C" d="M134.3,103.3c21.8,3.8,37.8,25.4,37.8,25.4l138.8-39.4l18.8,11.6l37.9-9.3l-0.9-14.2L412.8,67l17.5,62.7
		c0,0-84.1,21.6-259.9,35.8l-49-0.5c-0.7-6.1-1.5-13.2-2.3-21.7C116.5,116,127.1,106.6,134.3,103.3z"/>
	<path fill="#756556" d="M124.3,102.9c3.4-0.3,6.8-0.2,10,0.4c-7.2,3.3-17.8,12.7-15.2,40c0.8,8.5,1.6,15.6,2.3,21.7l-12.4-0.1
		C109,164.9,97.7,105.5,124.3,102.9z"/>
	<polygon fill="#4D4D4D" points="367.9,77 369.2,92.5 330,102.1 310.1,89.7 312,88.7 330.3,100.7 367.6,91.4 366.8,77 	"/>
	<polygon fill="#4D4D4D" points="312,88.7 302.8,91.6 312.4,90.1 	"/>
	<path fill="#756556" d="M163.6,140l-34.3,9.6c0,0,2.2,6.3,6.7,5.6c4.6-0.7,22.2-5.9,26.3-7.4C166.5,146.3,163.6,140,163.6,140z"/>
	<path fill="#756556" d="M427.6,131l-112.8,19.7c0,0,4.7-15.4,21.2-30.1s24.8-20.3,50.5-20.1C408.3,100.7,438.3,129,427.6,131z"/>
</g>
</svg>
