<?xml version="1.0" encoding="utf-8"?>
<!-- Generator: Adobe Illustrator 18.1.1, SVG Export Plug-In . SVG Version: 6.00 Build 0)  -->
<svg version="1.1" id="Layer_1" xmlns="http://www.w3.org/2000/svg" xmlns:xlink="http://www.w3.org/1999/xlink" x="0px" y="0px"
	 viewBox="221.8 0 475.2 204.1" enable-background="new 221.8 0 475.2 204.1" xml:space="preserve">
<g>
	
		<rect x="282.8" y="176.4" transform="matrix(0.9176 0.3975 -0.3975 0.9176 96.9551 -98.3947)" fill="#B3B3B3" width="6.1" height="16.6"/>
	<circle fill="#2D2C31" cx="281.7" cy="195.6" r="8.5"/>
	<circle fill="#B3B3B3" cx="281.7" cy="195.6" r="5.3"/>
	<path fill="#F2F2F2" d="M507.5,84.3c0,0-17.9-8.4-56,1.5c-11.9,2.7-14.2,15.8-14.2,15.8l27.8,14l47.4-10.6L507.5,84.3z"/>
	<path fill="#756556" d="M613.5,63.2c18.2-1.5,35.7,5,40.6,22.5c4.9,17.6-5.6,35.4-23.2,40.3l-54.2,15L557.3,73
		C557.3,73,598.7,64.4,613.5,63.2z"/>
	<path fill="#605565" d="M659.2,77.8c0,0-12.1-8.1-13.9-13.6c-1.9-5.6-16.3-55.2-13.2-56.9c3.2-1.6,27.7,49,28.4,52.3
		C661.3,62.8,662.7,75.5,659.2,77.8z"/>
	<path fill="#C1272D" d="M659,88.9l10-4.7c1.5-0.7,2.2-2.5,1.4-3.9l-4.5-9.6c-0.7-1.5-2.5-2.2-3.9-1.4l-10,4.7
		c-1.5,0.7-2.2,2.5-1.4,3.9l4.5,9.6C655.8,89,657.5,89.6,659,88.9z"/>
	<path fill="#2D2C31" d="M655.6,93.6l-9.4-21.5c0,0,8-4.1,10.9,3.3c2.9,7.4,5.7,11.9,3,15.5S655.6,93.6,655.6,93.6z"/>
	<path fill="#605565" d="M664.1,84.5c0,0,12.1,8,13.9,13.5c1.9,5.6,16.7,55.1,13.5,56.7c-3.2,1.7-28-48.9-28.8-52.2
		C662,99.4,660.5,86.7,664.1,84.5z"/>
	<circle fill="#808080" cx="579.1" cy="135.3" r="1.9"/>
	<circle fill="#808080" cx="575.3" cy="122" r="1.9"/>
	<circle fill="#808080" cx="571.6" cy="108.7" r="1.9"/>
	<circle fill="#808080" cx="567.8" cy="93.6" r="1.9"/>
	<circle fill="#808080" cx="564" cy="82.2" r="1.9"/>
	
		<rect x="576.6" y="149.9" transform="matrix(0.8688 -0.4952 0.4952 0.8688 -4.2769 307.7146)" fill="#B3B3B3" width="3.8" height="24"/>
	
		<rect x="564.2" y="136.5" transform="matrix(0.8417 -0.5399 0.5399 0.8417 11.3881 330.3142)" fill="#808080" width="9.8" height="18.5"/>
	<path fill="#4D4D4D" d="M473.5,109c0,0-1.5-14.4-12.1-25.6l-2.2,0.4c0,0,8.7,9,13,25.7L473.5,109z"/>
	<path fill="#4D4D4D" d="M504.4,101.6c0,0-1.1-11.7-7.5-19.9l-2.2-0.2c0,0,6.6,7.4,8.7,20.6L504.4,101.6z"/>
	<path fill="#4D4D4D" d="M508.4,95.8c0,0-39,9.5-43.9,12.2l-0.9-0.4c0,0,9.7-4.6,44.8-12.4L508.4,95.8z"/>
	<path fill="#4D4D4D" d="M446.8,97.5l0.9-10.1c0,0,19.6-6.3,33.9-6.3s26,2.7,26,2.7l0.1,1.1c0,0-17.3-3.9-33.7-2.1
		c-16.3,1.9-25,5.7-25,5.7l-1.1,9.3L446.8,97.5z"/>
	<ellipse fill="#2D2C31" cx="590.2" cy="184.3" rx="13.4" ry="13"/>
	<ellipse fill="#B3B3B3" cx="590.2" cy="184.3" rx="8.4" ry="8.1"/>
	<path fill="#847B6C" d="M254.3,112.5c23.7,4.1,41.2,27.7,41.2,27.7l151.2-42.9l20.5,12.6l41.3-10.1l-1-15.5L557.6,73l19.1,68.3
		c0,0-91.6,23.5-283.1,39l-53.4-0.5c-0.8-6.6-1.6-14.4-2.5-23.6C234.9,126.3,246.5,116.1,254.3,112.5z"/>
	<path fill="#756556" d="M243.4,112.1c3.7-0.3,7.4-0.2,10.9,0.4c-7.8,3.6-19.4,13.8-16.6,43.6c0.9,9.3,1.7,17,2.5,23.6l-13.5-0.1
		C226.8,179.6,214.5,114.9,243.4,112.1z"/>
	<polygon fill="#4D4D4D" points="508.7,83.9 510.2,100.7 467.5,111.2 445.8,97.7 447.9,96.6 467.8,109.7 508.4,99.5 507.5,83.9 	"/>
	<polygon fill="#4D4D4D" points="447.9,96.6 437.8,99.8 448.3,98.1 	"/>
	<path fill="#756556" d="M286.2,152.5l-37.4,10.5c0,0,2.4,6.9,7.3,6.1c5-0.8,24.2-6.4,28.6-8.1C289.4,159.3,286.2,152.5,286.2,152.5
		z"/>
	<path fill="#756556" d="M573.8,142.7l-122.9,21.5c0,0,5.1-16.8,23.1-32.8c18-16,27-22.1,55-21.9
		C552.7,109.7,585.4,140.5,573.8,142.7z"/>
</g>
</svg>
