<?xml version="1.0" encoding="utf-8"?>
<!-- Generator: Adobe Illustrator 18.1.1, SVG Export Plug-In . SVG Version: 6.00 Build 0)  -->
<svg version="1.1" id="Layer_1" xmlns="http://www.w3.org/2000/svg" xmlns:xlink="http://www.w3.org/1999/xlink" x="0px" y="0px"
	 viewBox="198.1 220 227.2 88.2" enable-background="new 198.1 220 227.2 88.2" xml:space="preserve">
<g>
	
		<ellipse transform="matrix(-0.1554 -0.9879 0.9879 -0.1554 102.8546 679.7524)" fill="#3F4458" cx="342" cy="295.9" rx="6.4" ry="23.6"/>
	<path fill="#605565" d="M411.6,258.1c0,0,6,3.9,6.9,6.6c1,2.7,8.2,27.2,6.6,28.1c-1.5,0.9-13.8-24.2-14.2-25.8
		C410.6,265.5,409.9,259.2,411.6,258.1z"/>
	<path fill="#C1272D" d="M396.7,251.1c0,0,9.4-2.5,25.9,1c0,0-4.4,9.7-20.6,17.1L396.7,251.1z"/>
	<path fill="#F2F2F2" d="M339,260.8c0,0-8.8-4.1-27.7,0.8c-5.9,1.3-7,7.8-7,7.8l13.7,7l23.4-5.2L339,260.8z"/>
	<path fill="#535852" d="M391.2,250.4c9-0.8,11.7,3.3,14.2,12c2.4,8.7,3.3,16.7-5.4,19.1l-26.8,7.4l-9.6-33.8
		C363.6,255.3,383.9,251,391.2,250.4z"/>
	<path fill="#605565" d="M409.2,254.9c0,0-6-4-6.9-6.8c-0.9-2.7-8.1-27.2-6.5-28.1c1.5-0.9,13.7,24.2,14,25.8
		C410.2,247.4,410.9,253.8,409.2,254.9z"/>
	<path fill="#4D4D4D" d="M322.1,273c0,0-0.8-7.1-6-12.6l-1.1,0.2c0,0,4.2,4.5,6.4,12.7L322.1,273z"/>
	<path fill="#4D4D4D" d="M337.4,269.4c0,0-0.5-5.8-3.7-9.9l-1.1-0.1c0,0,3.3,3.7,4.4,10.1L337.4,269.4z"/>
	<path fill="#4D4D4D" d="M339.4,266.5c0,0-19.3,4.7-21.7,6l-0.4-0.2c0,0,4.8-2.3,22.1-6.2V266.5z"/>
	<path fill="#4D4D4D" d="M308.9,267.4l0.4-5c0,0,9.7-3.2,16.7-3.2c7.1,0,12.9,1.3,12.9,1.3v0.5c0,0-8.6-2-16.7-1
		c-8.1,1-12.3,2.8-12.3,2.8l-0.5,4.6L308.9,267.4z"/>
	<path fill="#535852" d="M213.8,274.8c6.3,5.3,14,12,16.9,15.2c0.9,1,2.2,1.3,3.4,0.9l75.3-28.5l-0.3,4.8l9.9,6.3l20.4-5l-0.4-7.6
		l24.8-5.7l9.4,33.8c0,0-29,7.5-89.1,14.4c-15,1.7-31.9,3.4-50.8,4.9l-26.4-0.2c-0.3-3.3-0.8-7.1-1.2-11.7
		C204.2,281.6,210,276.5,213.8,274.8z"/>
	<path fill="#F3F7FF" d="M208.5,274.6c1.9-0.2,3.6-0.1,5.3,0.2c-3.8,1.7-9.6,6.9-8.2,21.6c0.4,4.6,0.9,8.4,1.2,11.7l-6.6-0.1
		C200.2,307.9,194.1,276,208.5,274.6z"/>
	<polygon fill="#4D4D4D" points="339.5,260.3 340.3,268.8 319.1,274 308.9,267.4 309.4,266.9 319.2,273.4 339.4,268.2 339,260.3 	
		"/>
	<path fill="#2C2D27" d="M229.6,294.6l-18.5,5.1c0,0,1.2,3.4,3.6,3c2.5-0.3,11.9-3.2,14.2-3.9C231.1,298,229.6,294.6,229.6,294.6z"
		/>
	<path fill="#2C2D27" d="M371.6,289.7L311,300.3c0,0,2.5-8.3,11.4-16.2c8.9-8,13.4-10.9,27.1-10.8
		C361.3,273.4,377.4,288.6,371.6,289.7z"/>
	<path fill="#070707" d="M406.4,266.5c0,0-23.1-2.8-36.8,14c0,0,1.2,6,8.1,6.6c0,0,18.1-4.2,22.3-5.7
		C404.2,280.2,409.1,276.1,406.4,266.5z"/>
	<path fill="#C1272D" d="M369.6,280.4l1.6-0.7l35.2-13.4C406.4,266.5,383.3,262.1,369.6,280.4z"/>
	<polygon fill="#FEFFFF" points="373.8,284 375.7,278.6 378.8,281.1 381.6,276.7 385.1,279.2 388,273.9 391.3,277.4 393.5,272.1 
		397.3,274.6 398.9,269.2 403.2,272.7 404.2,267.7 406.5,271.2 406.5,266.2 369.8,280.4 	"/>
	<polygon fill="#FEFFFF" points="409.1,273 406.7,278.4 403.8,275.7 400.6,279.7 397.3,276.9 394.1,281.9 391,278.2 388.3,283.3 
		384.8,280.4 382.7,285.6 378.7,281.8 377.5,286.7 375.8,283.1 375.3,288 413,277.1 	"/>
	<path fill="#C1272D" d="M369.6,280.4c0,0,5.3,5.8,8.6,5.9s25.6-6.9,25.6-6.9s-1.5,1.4-3.2,1.9s-20.7,5.8-24.4,6.8
		C372.4,289,369.6,280.4,369.6,280.4z"/>
	<path fill="#F7F8FC" d="M389.6,258.6l4.6,3.4C394.2,261.9,386.1,266.7,389.6,258.6z"/>
	<path fill="#29ABE2" d="M391.9,260.2c0,0-1,0.7-0.1,1.4c0.9,0.8,1.5-0.2,1.5-0.2L391.9,260.2z"/>
</g>
</svg>
