<?xml version="1.0" encoding="utf-8"?>
<!-- Generator: Adobe Illustrator 18.1.1, SVG Export Plug-In . SVG Version: 6.00 Build 0)  -->
<svg version="1.1" id="Layer_1" xmlns="http://www.w3.org/2000/svg" xmlns:xlink="http://www.w3.org/1999/xlink" x="0px" y="0px"
	 viewBox="0 0 154 472.8" enable-background="new 0 0 154 472.8" xml:space="preserve">
<g>
	<path fill="#3C2415" d="M122.1,78.7c2.7,0.9,5.8,0,8.1-1.6c2.3-1.7,4.1-4.1,5.7-6.4c-1,1.6-3.5,1.8-5.1,0.8s-2.5-2.8-3.3-4.5
		c-0.9-2-1.6-4.1-2.2-6.2c3,1.7,6.7,2.2,10.1,1.5c-3.3,0.4-6.4-2.5-7.4-5.7c-1-3.2-0.5-6.7-0.2-10.1c1-11-0.2-22.5-5.7-32
		c-1.5-2.6-3.4-5.1-5.9-6.9s-5.6-2.8-8.6-2.3c-1.8,0.3-3.4,1.1-5,2c-1.3,0.8-2.7,1.6-3.6,2.9c-2,2.7-1.7,6.3-1.4,9.6
		c0.4,3.8,0.7,7.6,0.4,11.4c-0.3,4-1.2,7.9-0.9,11.9c0.1,2,0.6,4,1,5.9c0.8,3.8,1.7,7.6,2.7,11.4c1.4,5.7,3.3,11.8,8.2,15
		c0.8,0.5,1.8,1,2.4,1.8c0.5,0.6,0.7,1.4,1,2.1c2.3,5.8,4.5,7.2,10.5,5.3c-1.7-0.2,1.7,0.6,0.9-0.8
		C122.8,82.1,122.4,80.4,122.1,78.7z"/>
	<path fill="#3C2415" d="M84.5,86.7c-6.9,2.4-14.5,2.8-21.5,0.9c6.3-2.3,10.9-8.4,11.6-15c0,3.4-4,5.8-7.4,5.1
		c-3.3-0.8-5.7-3.8-6.8-7.1c2.9,2.9,8.2,1.3,10.4-2.1s2.1-7.8,1.6-11.8c-2.5,2.5-6.6,3.4-9.9,2c4.7-1.2,8.3-5.7,8.5-10.5
		c-2.7,2.2-5.7,4-8.9,5.3c2.7-2.1,3.7-5.7,3.8-9.1c0.1-3.4-0.7-6.7-0.8-10.1C65,26.9,68,19.5,73.3,14.4s12.8-7.9,20.1-7.6
		c1.7,0.1,3.5,0.4,5.1,1c3.7,1.4,6.5,4.6,8.1,8.2s2.2,7.6,2.3,11.6"/>
	<path fill="#F9BD91" d="M116.1,100.6l4.1,1.5C120.1,102.1,113.2,107.6,116.1,100.6z"/>
	<path fill="#603913" d="M78.6,459.9l-9.8-1.9c0,0-6.2,11.7,6.4,14.8l16.6,3.1c0,0,5.1-7.1-4.6-9.6
		C87.1,466.4,78.8,463.4,78.6,459.9z"/>
	<polygon fill="#911928" points="57.5,452.8 87.6,457.4 98.9,368.1 74.7,361.8 	"/>
	<polyline fill="#911928" points="98.9,368.1 106.9,327.2 80.1,294.6 74.7,361.8 	"/>
	<polygon fill="#8B5E3C" points="120.9,450.6 123.3,462.1 133.4,462.1 133.4,450.6 	"/>
	<path fill="#231F20" d="M133.4,462.1h-10c0,0-3.9,12.6,9.1,13.3h16.9c0,0,3.7-8-6.3-8.5C143,466.9,134.3,465.4,133.4,462.1z"/>
	<polygon fill="#603913" points="120.9,450.6 123.3,462.1 133.4,462.1 133.4,450.6 	"/>
	<path fill="#603913" d="M133.4,462.1h-10c0,0-3.9,12.6,9.1,13.3h16.9c0,0,3.7-8-6.3-8.5C143,466.9,134.3,465.4,133.4,462.1z"/>
	<path fill="#F9BD91" d="M125.6,23v58.6h-8.9v19.3c0,0-10,19.6-34.5,0v-40c0,0-7.4-1.5-7.4-10s8.5-4.4,8.5-4.4V23H125.6z"/>
	<path fill="none" d="M77.3,44.9c0,0.1,0,0.1,0,0.2"/>
	<path fill="#F9BD91" d="M54.7,106.3l19.5,140.7l54.5-0.6l14.5-122.1C143.1,124.2,119.8,81.5,54.7,106.3z"/>
	<polygon fill="#BE1E2D" points="74.2,246.9 64.3,277 118.6,376 111.3,459.1 145.8,459.1 141.1,376.6 123.8,278.9 127.5,246.9 	"/>
	<polygon fill="#F9BD91" points="54.7,106.3 5.1,160.8 54.7,254.3 70.2,247.4 33.2,170.1 62.8,140 	"/>
	<path fill="#F1F2F2" d="M64.3,216.4c5.6-0.6,74.3,0,74.3,0s-0.5-25.5-0.3-52l4.8-41.6c0,0-8.3-16.3-26.4-22c0,0,6.4,28.1-10.9,27.9
		c-17.3-0.2-23.6-30.2-23.6-30.2L54,104.9L68,202L64.3,216.4z"/>
	<polygon fill="#6D6E71" points="126.1,258.1 72.7,254.9 73.7,243.7 129.6,243.7 	"/>
	<path fill="#F9BD91" d="M52.5,251c-4.4,33.8,10.2,34.2,15.2,32.5c5.1-1.6,1.1-19.9,1.1-19.9s1,7.8,4.8,6.5
		c3.8-1.3,3.2-10.5,3.2-10.5s0.1-15.2-10.2-15.9C56.2,243.1,52.5,251,52.5,251z"/>
	<path fill="#3C2415" d="M83.3,46.4c0.3,0,0.1-1.7,0-1.3c-0.5,3.5-2,4.3-5,6.1c2.3,0.8,4.9-0.2,6.7-1.8c1.8-1.6,2.9-3.8,4-6
		c1.5-3.2,2.9-6.6,2.6-10c1.5,2.4,1.3,5.8-0.7,7.8c5.3-2.9,9.2-8.2,10.2-14.2c1.5,2.2,1.4,5.3-0.1,7.4c4.6-2.4,7.5-7.5,7.3-12.7
		c0-0.3,0-0.5-0.2-0.8c-0.3-0.6-1.1-0.7-1.7-0.7c-8.8-0.3-17.6,0-26.3,1.1c-0.3,0-0.6,0.1-0.9,0.3c-0.2,0.2-0.3,0.6-0.3,0.9
		c-0.5,5.6-0.7,11.2-0.6,16.8c0,0.8,0,1.5,0.3,2.3c0.3,0.6,0.7,1.1,1.1,1.6c1,1.2,2.1,2.4,3.1,3.6"/>
	<path fill="#3C2415" d="M108,20.8c-0.1-0.3-0.6,0.1-0.6,0.5c-0.1,3.1-0.1,6.6,2,8.9c0.4,0.5,0.9,0.9,1.4,1.3
		c1.4,1.1,2.7,2.3,4.1,3.4c-2-1.8-2-4.9-1.9-7.6c1.1,5.9,5,11.3,10.3,14.1c-1.7-1.9-2.2-4.9-1.3-7.3c0.6,3.5,1.3,7,3.5,9.8
		c2.1,2.8,5.9,4.6,9.2,3.5c-3.1-0.8-5.7-3.5-6.4-6.7c-0.7-3,0.3-6.2,0.9-9.2c0.6-3.2,0.9-6.5-0.2-9.5c-1.1-2.9-3.4-5.3-6-7.1
		c-1.9-1.3-4.2-2.4-6.5-2.3c-1.7,0.1-3.3,0.8-4.8,1.7c-1,0.6-2,1.2-2.8,2.1C107.3,18.5,107.9,18.3,108,20.8z"/>
	<g>
		<polygon fill-rule="evenodd" clip-rule="evenodd" points="87.2,158 96.5,149.2 102.6,147.8 108.4,149 115,147.8 122.5,150.4 
			127.8,155.2 129.9,157.1 125,163.9 119.9,171.2 117.7,177.9 115.8,181.6 112.1,185.2 110.4,186 109,185.7 97,179.6 87.2,158 		"/>
		<path fill-rule="evenodd" clip-rule="evenodd" fill="#EB2D2E" d="M109.5,144c-2.2-8.5-12.9-1.8-14.7,3.3
			c-2.1,5.8-8.9,10.4-8.9,10.4c-2.9,1.9,6.9,4.9,2.5,10.9c0,0-5.9,9.7-2.2,18.5c7.1,16.9,25.1,4,27.3-8.3c0,0,2.7-12.1,11-19.3
			c2.2-1.9-2.2-1.2-3.2-3.3c-1.5,0-3.3,2.2-4.9,0.6c-3,3.3-6,2.7-9.8,2.8c0,0-7.5,4.7-10.3,18.4c-1.7-5.3,4-15,7.4-18.7
			c-3-0.1-4.4-2.1-4.4-2.1l-7.7,5.3c-4.9-6.3-2.1-5.1,4.2-10.7c4.9-5.4,9.7,2.2,15.2-1c8-4.3,8.3,6.4,14.8,6.4
			c1.5,0,2.2,0.3,2.2,0.3c-3.7,4-7.8,8.3-10,13.4c-2.3,5.5-2.3,11.3-7.5,15.1c6.9-0.3,10.8-8.1,12.1-13.7c1.5-6.4,9.9-14.6,9.9-14.6
			s1.6-1.6-0.3-1.9c0,0-5.6-1.4-8.3-10.6C122.3,137.8,113,138.6,109.5,144L109.5,144z"/>
		<path fill-rule="evenodd" clip-rule="evenodd" fill="#FFFFFF" d="M99.3,153.8c0,0-1.5,1-2.5,0.5c-3.9-1.9,3.9-6.2,8-2.3
			c4,3.2,8.1-4.2,12.5-0.4c3.8,3.4,1.2,6.3-0.5,4.5c0,0-1.2-1.3-1.1-1.5c0.1-0.2-1.5,1.7-3.9,2.1c-2.4,0.4-3.9-1.3-3.9-1.3
			s-0.3-1.2-1.4-0.1C104.4,157.4,100.1,156.8,99.3,153.8L99.3,153.8z"/>
		<path fill-rule="evenodd" clip-rule="evenodd" fill="#FFFFFF" d="M102.4,144.6c0,0-3.4,2.1-2.2-1.1c1.2-3.2,4-2.8,4-2.8
			s2.6,0.1,3,2c0.4,2-1.1,3.2-1.1,3.2C104.2,147.4,103.9,143.4,102.4,144.6L102.4,144.6z"/>
		<path fill-rule="evenodd" clip-rule="evenodd" fill="#FFFFFF" d="M115.1,145c0,0-2.9,1.9-2.4-1.2c0.4-2.6,5.7-3.3,7-1.1
			c0,0,0.6,1.2,0.3,2c-1.1,2.5-2.6,1.2-2.6,1.2C116.6,145.2,116.3,143.8,115.1,145L115.1,145z"/>
		<path fill-rule="evenodd" clip-rule="evenodd" fill="#FFFFFF" d="M99.2,161.6c0,0-10.8,7.9-10,18c0.3,3.4,3.1,2.7,3.4-0.1
			c0.3-2.6,0.7-10.6,7.1-16.3C100.5,162.5,101,160.4,99.2,161.6L99.2,161.6z"/>
		<path fill-rule="evenodd" clip-rule="evenodd" fill="#FFFFFF" d="M115.3,161.4c-3.4,2.6-6.4,8.5-7.6,12.9
			c-1.9,7.1-3.4,7.8-3.4,7.8c-3.1,4.6,3,6.7,4.3,1.7c2-7.3,3.3-13.9,7.8-20.1C118.9,162.9,117.6,159.7,115.3,161.4L115.3,161.4z"/>
	</g>
</g>
</svg>
