<?xml version="1.0" encoding="utf-8"?>
<!-- Generator: Adobe Illustrator 18.1.1, SVG Export Plug-In . SVG Version: 6.00 Build 0)  -->
<svg version="1.1" id="Layer_1" xmlns="http://www.w3.org/2000/svg" xmlns:xlink="http://www.w3.org/1999/xlink" x="0px" y="0px"
	 viewBox="0 0 414 537" enable-background="new 0 0 414 537" xml:space="preserve">
<g>
	<path fill="#F9BD91" d="M239.1,21.5v67.6h-10.3v22.2c0,0-11.5,22.7-39.8,0V65.2c0,0-8.6-1.7-8.6-11.5s9.8-5.1,9.8-5.1V21.5H239.1z"
		/>
	<polygon fill="#8B5E3C" points="179.7,507 176.9,520.3 165.3,520.3 165.3,507 	"/>
	<path fill="#231F20" d="M165.3,520.3h11.5c0,0,4.5,14.5-10.5,15.4h-19.5c0,0-4.3-9.2,7.3-9.8C154.2,525.9,164.3,524.1,165.3,520.3z
		"/>
	<polygon fill="#8B5E3C" points="231.5,507 234.3,520.3 245.8,520.3 245.8,507 	"/>
	<path fill="#231F20" d="M245.8,520.3h-11.5c0,0-4.5,14.5,10.5,15.4h19.5c0,0,4.3-9.2-7.3-9.8C257,525.9,246.9,524.1,245.8,520.3z"
		/>
	<path fill="#E6E7E8" d="M203.7,69h33.8c0,0-6-10.5-16.9-10.5S203.7,69,203.7,69z"/>
	<path fill="#E6E7E8" d="M203.7,69l-1.6,1.8c0,0,14.9,2.6,19.5-1.8c0,0,11.4,2.2,17,1.8l-1.4-2.3C237.2,68.5,214.1,66.3,203.7,69z"
		/>
	<polygon fill="#A97C50" points="168.5,272.6 163.9,507 180.6,507 213.5,315 231.5,507 247.6,507 253.7,271.3 	"/>
	<path fill="#FFF200" d="M146.3,113.1c0,0,41.9-23.5,126.2,0l-15.9,158.6c0,0-34.6,2.4-91.1-0.3L146.3,113.1z"/>
	<polygon fill="#8B5E3C" points="179.7,507 176.9,520.3 165.3,520.3 165.3,507 	"/>
	<path fill="#231F20" d="M165.3,520.3h11.5c0,0,4.5,14.5-10.5,15.4h-19.5c0,0-4.3-9.2,7.3-9.8C154.2,525.9,164.3,524.1,165.3,520.3z
		"/>
	<polygon fill="#8B5E3C" points="231.5,507 234.3,520.3 245.8,520.3 245.8,507 	"/>
	<path fill="#231F20" d="M245.8,520.3h-11.5c0,0-4.5,14.5,10.5,15.4h19.5c0,0,4.3-9.2-7.3-9.8C257,525.9,246.9,524.1,245.8,520.3z"
		/>
	<polygon fill="#2B3990" points="163.9,271.7 156.1,370.9 208.8,370.9 212.1,332.2 215.5,370.9 257,370.9 256.6,271.7 	"/>
	<polygon fill="#E6E7E8" points="163.9,447.6 190.8,447.6 177.5,523.4 163.9,523.4 	"/>
	<polygon fill="#E6E7E8" points="249.1,449.3 225,449.4 232.4,521.8 247.6,521.8 	"/>
	<path fill="#006838" d="M188.1,115.5l21.7,35.9l21.3-35.9h24c0,0-6.4-16.7-29.7-18.8s-48.8-3-57.1,18.6L188.1,115.5z"/>
	<path fill="#A97C50" d="M239.1,21.5v67.6h-10.3v22.2c0,0-11.5,22.7-39.8,0V65.2c0,0-8.6-1.7-8.6-11.5s9.8-5.1,9.8-5.1V21.5H239.1z"
		/>
	<path fill="#231F20" d="M190.4,48.5v3.9h3.9h1.4V39.7c0,0,7.7-2,8.1-6.3c0.4-4.3,0-8,0-8h33.8l1.6,5.3c0,0,6.4-16.7,2-21.1
		s-55.6,1.7-62.1,19.1c0,0-1.1,23.4,1.8,27.4c0,0-2-8.5,3.9-8.7C190.2,47.2,190.4,48.5,190.4,48.5z"/>
	<path fill="#A97C50" d="M189.1,111.4l20.7,36l19-36C228.9,111.4,211.6,89.5,189.1,111.4z"/>
	<path fill="#A97C50" d="M86.2,149.8c0,0-37.2-8.2-52.1-38.9c0,0-3.1-8.9-7.3-8.5s-1.9,8.1-1.9,8.1s-3.8-18.9-9.2-18.3
		c-5.4,0.6-19,7-1,37c0,0,41.2,50.7,76.6,43.1C91.3,172.3,113.9,151.1,86.2,149.8z"/>
	<path fill="#FFF200" d="M146.7,112.5c0,0-19.5,29.8-54.5,35.6c0,0-3.9,21,6.6,26.6c0,0,43-7.7,60.1-27.2L146.7,112.5z"/>
	<path fill="#006838" d="M101,174.4c0,0-9.5-14-4.5-27.1l-9.2,1.5c0,0-0.2,22.3,6.8,26.8L101,174.4z"/>
	<path fill="#A97C50" d="M337.5,139.9c0,0,35.4-14.2,45-46.9c0,0,1.6-9.3,5.8-9.6c4.2-0.3,3.2,7.7,3.2,7.7s0.6-19.2,6.1-19.6
		c5.5-0.3,19.9,3.8,7.1,36.4c0,0-32.3,56.8-68.4,55.1C336.2,163,310.4,145.8,337.5,139.9z"/>
	<path fill="#FFF200" d="M271.7,113.2c0,0,24.1,26.1,59.6,26.1c0,0,7.3,20.1-2.1,27.4c0,0-43.6-0.5-63.7-16.9L271.7,113.2z"/>
	<path fill="#006838" d="M327,166.7c0,0,7.1-15.4,0-27.5h9.3c0,0,3.9,22-2.2,27.5H327z"/>
	<g>
		<path fill="#006838" d="M195.9,162.3h-2.1v-0.5l5.3-4.2h1v23.9v0c0,0.3,0.1,0.6,0.1,1.1c0.1,0.5,0.2,0.9,0.3,1.4
			c0,0.1,0.1,0.2,0.1,0.3c0.1,0.2,0.1,0.3,0.1,0.3s0,0.1,0.1,0.1h-5.8c0.1-0.1,0.1-0.3,0.2-0.6s0.2-0.5,0.2-0.6
			c0.1-0.4,0.2-0.8,0.2-1.2s0.1-0.7,0.1-0.9V162.3z"/>
		<path fill="#006838" d="M229.4,170.4c0,0.1,0,0.3,0,0.4c0,0.1,0,0.3,0,0.4c0,2.4-0.6,4.6-1.7,6.6s-2.7,3.7-4.7,5
			c-2,1.3-4.2,1.9-6.6,2c-1.9,0-3.6-0.4-5.3-1.1s-3.1-1.8-4.3-3.1c-1.2-1.3-2.2-2.9-2.8-4.6c-0.7-1.7-1-3.5-1-5.4
			c0.1-1.8,0.5-3.5,1.1-5.1c0.7-1.6,1.6-2.9,2.7-4.1s2.5-2.1,4-2.8c1.5-0.7,3.1-1.1,4.9-1.2c0.2,0,0.5,0,0.9,0c1.9,0,3.6,0.3,5.1,1
			s2.9,1.6,4,2.8c1.1,1.2,2,2.6,2.6,4.2S229.4,168.6,229.4,170.4z M207,170.9c0,1.9,0.5,3.7,1.5,5.4c1,1.7,2.3,3.1,4,4.1
			s3.4,1.5,5.3,1.5c1.2-0.1,2.3-0.4,3.3-1s1.7-1.3,2.4-2.3c0.7-0.9,1.1-2,1.5-3.1c0.3-1.1,0.5-2.4,0.5-3.6c0-0.6-0.1-1.3-0.2-2.1
			c-0.2-1.4-0.6-2.6-1.3-3.8s-1.4-2.2-2.4-3.1c-0.9-0.9-1.9-1.5-3-2c-1.1-0.5-2.2-0.7-3.3-0.7c-0.6,0-1.2,0.1-1.8,0.2
			c-1.4,0.3-2.6,1-3.6,2s-1.7,2.2-2.2,3.7S207,169.2,207,170.9z"/>
	</g>
</g>
<g>
	<polygon fill="#145E32" points="13.9,116 12.1,236 85.6,258.5 	"/>
	<polygon fill="#145E32" points="159.4,118.5 161.2,238.5 87.6,261.1 	"/>
	<polygon fill="#231F20" points="45.8,275.3 41.1,508.5 58.5,508.5 90.4,317.5 104.5,508.5 126,508.5 130.4,274.1 	"/>
	<path fill="#18723C" d="M13.4,116.6c0,0,57-23.4,145.9,0l-26.8,157.4c0,0-33.6,2.8-89.8,0L13.4,116.6z"/>
	<polygon fill="#8B5E3C" points="56.8,508.5 54.1,521.7 42.6,521.7 42.6,508.5 	"/>
	<path fill="#231F20" d="M42.6,521.7h11.5c0,0,4.5,14.5-10.4,15.3H24.3c0,0-4.3-9.1,7.2-9.8C31.5,527.2,41.5,525.5,42.6,521.7z"/>
	<polygon fill="#8B5E3C" points="108.4,508.5 111.2,521.7 122.6,521.7 122.6,508.5 	"/>
	<path fill="#231F20" d="M122.6,521.7h-11.5c0,0-4.5,14.5,10.4,15.3h19.4c0,0,4.3-9.1-7.2-9.8C133.7,527.2,123.7,525.5,122.6,521.7z
		"/>
	<path fill="#145E32" d="M64.3,100.3c0,0,22.7,10.2,44,0V116c0,0-1,11.2-19.1,11.2s-26.8-13.4-26.8-13.4L64.3,100.3z"/>
	<polygon fill="#145E32" points="13.9,116 12.1,236 85.6,258.5 	"/>
	<polygon fill="#304566" points="45.8,275.3 41.1,508.5 58.5,508.5 90.4,317.5 104.5,508.5 126,508.5 130.4,274.1 	"/>
	<path fill="#364A72" d="M13.4,116.6c0,0,57-23.4,145.9,0l-26.8,157.4c0,0-33.6,2.8-89.8,0L13.4,116.6z"/>
	<polygon fill="#8B5E3C" points="56.8,508.5 54.1,521.7 42.6,521.7 42.6,508.5 	"/>
	<path fill="#8B5E3C" d="M42.6,521.7h11.5c0,0,4.5,14.5-10.4,15.3H24.3c0,0-4.3-9.1,7.2-9.8C31.5,527.2,41.5,525.5,42.6,521.7z"/>
	<polygon fill="#8B5E3C" points="108.4,508.5 111.2,521.7 122.6,521.7 122.6,508.5 	"/>
	<path fill="#8B5E3C" d="M122.6,521.7h-11.5c0,0-4.5,14.5,10.4,15.3h19.4c0,0,4.3-9.1-7.2-9.8C133.7,527.2,123.7,525.5,122.6,521.7z
		"/>
	<path fill="#F9BD91" d="M122.7,203.5h14.1c0,0,4.6-10.3-21.3-12.7L122.7,203.5z"/>
	<polygon fill="#3B537A" points="159.4,116.6 144,207.1 122.7,203.5 82.4,223.2 166.1,241.1 181.8,224.9 	"/>
	<polygon fill="#304566" points="82.4,223.2 122.7,203.5 167.8,241.1 	"/>
	<path fill="#F9BD91" d="M42.4,190.8l2.5,6.4l20-2.2C64.9,195,54.1,185.2,42.4,190.8z"/>
	<path fill="#0E384F" d="M53.7,125l-13-23.1c0,0,40.6-28.1,87.9,0l-7.8,23.1H53.7z"/>
	<polygon fill="#E6E7E8" points="105.8,114.9 120.8,125 120.8,189.8 66.8,197.1 54.6,125 66.2,114.9 	"/>
	<path fill="#3C2415" d="M56.1,96.9c-3.6-5.3-4.4-12.4-2-18.3c-2.4,0.7-4,2.9-4.7,5.3c-0.6,2.4-0.4,4.9-0.2,7.3
		c-2.7-6.3-2.8-13.6-0.3-19.9c-2.3,3.6-3.4,8-3,12.3c-4.2-10-5.2-22.1,0.7-31.2c1.4-2.1,3.2-4.6,2.2-6.9c-3,1.3-5.4,4-6.4,7.2
		c0-3-0.1-6-0.1-9c0-1.6,0-3.3,0.7-4.7c0.8-1.5,2.3-2.6,3.3-4c2.6-3.8,0.8-9.1,2.4-13.5c1.3-3.6,4.7-6,7.9-8.2
		c1.6-1.1,3.2-2.1,5.1-2.4c1.6-0.2,3.2,0.1,4.7,0.4c2.7,0.6,5.4,1.2,8.2,1.8c2.7,0.6,5.6,1.2,8.3,0.5c1.6-0.4,3-1.3,4.4-2
		c6.8-3.2,14.7-2.6,22-0.8c2,0.5,4,1.1,5.7,2.2c4.2,2.7,5.7,8,6.8,12.8c0.9,4,1.7,8.1,1.5,12.2c-0.2,4.1-1.6,8.3-4.5,11.2
		c0.3-0.6,0.5-1.2,0.4-1.8c-0.1-0.6-0.7-1.2-1.3-1.1c-0.8,0.2-0.9,1.3-0.8,2.1c0.9,5.8,4.9,10.6,7,16c2.4,6.1,2.5,13,0.3,19.1
		c-0.3-1.1-0.5-2.2-0.3-3.4c-0.4,4.4-2.1,8.7-4.9,12.1c0.6-2.5,0.2-5.3-1-7.5c-0.8,1.7-1.7,3.5-3.5,3.9c-2,0.5-3.8-1.1-5.8-1.7
		c-3.4-0.9-6.9,1.2-10.4,1c-3.7-0.2-6.7-2.9-10.1-4.4c-0.5-0.2-1-0.4-1.6-0.4c-1.5,0.2-2,2.1-3.1,3.2c-0.5,0.5-1.2,0.8-1.8,1.1
		c-3,1.4-6,2.8-9.3,3.6c-1.5,0.3-3,0.5-4.3,1.3c-2,1.1-3.2,3.4-3,5.7c-2.5-2.6-3.2-6.7-1.8-10c-2,2.2-3.1,5.2-2.8,8.1
		c-2.4-2-3.2-5.7-1.7-8.5C56.5,90.2,56.2,93.7,56.1,96.9z"/>
	<path fill="#F9BD91" d="M116,25.6v67.2h-10.2v22.1c0,0-11.5,22.6-39.6,0V69c0,0-8.5-1.7-8.5-11.5s9.8-5.1,9.8-5.1V25.6H116z"/>
	<path fill="#E6E7E8" d="M80.8,72.8h33.6c0,0-6-10.4-16.8-10.4S80.8,72.8,80.8,72.8z"/>
	<path fill="#E6E7E8" d="M80.8,72.8l-1.6,1.8c0,0,14.8,2.6,19.4-1.8c0,0,11.4,2.2,16.9,1.8l-1.4-2.3C114.1,72.3,91.1,70.1,80.8,72.8
		z"/>
	<path fill="#F9BD91" d="M130.6,192.5c1.8-1.4,4.8-4.1,2.7-6.3c-2.8-3.1-11.1,1.4-11.1,1.4c-5.4,2.1-10.8,3.3-16.1,3.9
		c0.2,9.2,4,17.5,9.9,23.5c5-0.4,8.1-0.9,8.1-0.9c33.4-9.9,27.8-23.8,24.2-27.8C145.3,182.8,134.4,189.9,130.6,192.5z"/>
	<polygon fill="#3B537A" points="12.1,236 38.9,244.5 119.2,214.9 112.8,189.8 44.9,197.1 13.4,116.6 5.7,231.3 	"/>
	<path fill="#F9BD91" d="M116,25.6v67.2h-10.2v22.1c0,0-11.5,22.6-39.6,0V69c0,0-8.5-1.7-8.5-11.5s9.8-5.1,9.8-5.1V25.6H116z"/>
	<path fill="#F1F2F2" d="M166.5,186.2c-0.3-1.1-1.1-1.8-1.8-1.7l-19.6,4.5c-0.8,0.2-1.2,1.2-0.9,2.3l0,0c0.3,1.1,1.1,1.8,1.8,1.7
		l19.6-4.5C166.3,188.3,166.7,187.3,166.5,186.2L166.5,186.2z"/>
	<polygon fill="#F1F2F2" points="72.4,232.2 69.1,275.3 117.6,275.3 116,232.2 89.5,225 	"/>
	<polygon fill="#304566" points="31.4,521.7 64,521.7 74.8,411 43.1,406.8 	"/>
	<rect x="62.4" y="268.7" fill="#231F20" width="56.7" height="12"/>
	<ellipse fill="#726047" cx="93" cy="274" rx="16" ry="11"/>
	<polygon fill="#364A72" points="70.5,256.9 69.1,286.3 42.4,288.2 37.7,246.7 	"/>
	<polygon fill="#364A72" points="116.4,244.5 117.6,280.2 132.1,285 137.2,246.7 	"/>
	<polygon fill="#304566" points="137.1,523 104.4,523 96.8,412.3 128.5,408.1 	"/>
	<path fill="#231F20" d="M66.2,114.9c0,0,11.7,10.4,23.6,10c11.9-0.4,16-10,16-10l3.6,2.4c0,0-4.3,9.7-19.4,9.8
		c-15.1,0.1-26.5-9.8-26.5-9.8"/>
	<circle fill="#7C674D" cx="88.6" cy="53.1" r="9.3"/>
	<circle fill="#231F20" cx="88.6" cy="53.1" r="8.5"/>
	<circle fill="#7C674D" cx="109.2" cy="52.3" r="9.3"/>
	<circle fill="#231F20" cx="109.2" cy="52.3" r="8.5"/>
	<rect x="97.6" y="51.4" fill="#7C674D" width="3.1" height="0.9"/>
	<path fill="#3C2415" d="M66.6,52.3l1.2,20.5l7.1,0.6l-4.6-27.8c0,0,16.7-6.8,18.7-21.5l-30.6-0.9L66.6,52.3z"/>
	<rect x="66.6" y="51.4" fill="#7C674D" width="13.5" height="0.9"/>
	<g>
		<defs>
			<polygon id="SVGID_1_" points="57.7,143 66.4,194.8 112.8,189.8 120.8,187.2 120.8,142.2 			"/>
		</defs>
		<clipPath id="SVGID_2_">
			<use xlink:href="#SVGID_1_"  overflow="visible"/>
		</clipPath>
		<g id="qMOpak.tif_2_" clip-path="url(#SVGID_2_)">
			<g>
				<path d="M82.3,171.6c-0.9,0-1.7,0-2.6,0c0-1.1,0-2.2,0-3.3c-0.9,0-1.8,0-2.7,0c0,7.9,0,15.9,0,23.8c0.9,0,1.7,0,2.6,0
					c0-1.5,0-3,0-4.5c0.9,0,1.7,0,2.6,0c0,0.1,0,0.3,0,0.4c0,1.6,0,3.2,0,4.8c0,0.2-0.2,0.4-0.3,0.6c0,0.1-0.1,0.1-0.2,0.2
					c-0.7,0.9-1.5,1.1-2.6,1c-0.9-0.1-1.9,0-2.8,0c-0.1,0-0.1,0-0.2,0c-0.5,0-0.7-0.5-1.1-0.8c-0.3-0.2-0.7-0.4-0.7-1
					c0-8.3,0-16.5,0-24.8c0-0.1,0-0.2,0-0.3c0.1-0.5,1.5-1.6,2-1.6c1.1,0,2.3,0,3.4,0c0.6,0,1.1,0.2,1.6,0.6c0.6,0.5,1,1.1,0.9,2
					C82.2,169.6,82.3,170.6,82.3,171.6z"/>
				<path d="M59.6,157.9c0,0.4-0.1,0.8-0.1,1.2c0,4,0,8,0.1,12c0,0.3-0.1,0.5-0.4,0.7c-0.5,0.3-1,0.7-1.6,1.2c0-8,0-16,0-23.9
					c0.7,0,1.3,0,2,0c0.1,0,0.2,0.2,0.2,0.4c0.8,3.2,1.7,6.3,2.5,9.5c0.1,0.4,0.2,0.7,0.4,1.1c-0.1-3.6-0.2-7.3-0.2-11
					c0.7,0,1.4,0,2.1,0c0,0.1,0,0.3,0,0.4c0.1,6.1,0.2,12.2,0.2,18.2c0,0.3-0.1,0.5-0.4,0.7c-0.5,0.2-0.9,0.5-1.5,0.9
					C61.9,165.4,60.8,161.7,59.6,157.9z"/>
				<path d="M78.3,160.4c-0.3,0.9-0.6,1.8-0.9,2.7c-0.1,0.3-0.2,0.4-0.4,0.5c-0.7,0.2-1.4,0.4-2.2,0.6c-0.5-5.1-1.4-10-1.7-15.1
					c0.9,0,1.6,0,2.5,0c0.3,2.2,0.5,4.4,0.8,6.6c0,0,0.1,0,0.1,0c0.6-2,1.3-4,1.9-6.1c0.5,2.1,1.1,4,1.6,6c0,0,0.1,0,0.1,0
					c0.5-2.2,1-4.3,1.5-6.5c0.7,0,1.5,0,2.4,0c-0.7,4.7-1.5,9.3-2.2,14c-0.8,0-1.5,0.1-2.3,0.1c-0.1,0-0.2-0.2-0.3-0.3
					C78.9,162.1,78.6,161.2,78.3,160.4C78.3,160.4,78.3,160.4,78.3,160.4z"/>
				<path d="M102.7,194.5c-0.9,0-1.7,0-2.6,0c0-0.2,0-0.3,0-0.5c0-4.8-0.1-9.5,0-14.3c0-1.5-0.2-3-0.7-4.5c-0.9-2.9-1.7-5.8-2.6-8.8
					c0-0.1-0.1-0.3-0.1-0.4c0.8,0,1.6,0,2.4,0c0.1,0,0.3,0.2,0.3,0.4c0.5,1.7,1,3.5,1.5,5.2c0.2,0.6,0.4,1.1,0.6,1.7
					c0.1-0.2,0.1-0.3,0.1-0.4c0.6-2.2,1.2-4.5,1.8-6.7c0.1-0.3,0.2-0.4,0.5-0.4c0.7,0,1.5,0,2.2,0c-0.1,0.3-0.2,0.6-0.2,0.8
					c-1.1,3.4-2.1,6.9-3.2,10.3c-0.1,0.2-0.1,0.4-0.1,0.6c0,5.4,0,10.8,0,16.2C102.7,194.1,102.7,194.3,102.7,194.5z"/>
				<path d="M107.7,149c1.9,0,3.6,0,5.4,0c0.2,0,0.3,0.1,0.4,0.2c0.6,0.4,1,0.9,1,1.8c-0.1,2,0,4.1,0,6.1c0,0.5-0.1,0.9-0.6,1.1
					c-0.7,0.4-0.8,0.9-0.6,1.6c0.6,2.5,1.1,4.9,1.7,7.4c0,0.2,0.1,0.3,0.1,0.5c-0.8-0.4-1.5-0.7-2.2-1.1c-0.1-0.1-0.2-0.3-0.2-0.5
					c-0.6-2.3-1.1-4.6-1.7-6.9c-0.1-0.2-0.2-0.5-0.2-0.7c-0.1-0.4-0.3-0.6-0.7-0.4c0,2.5,0,5.1,0,7.6c-0.7-0.2-1.4-0.4-2.2-0.7
					C107.7,159.8,107.9,154.4,107.7,149z M110.2,150.6c0,1.8,0,3.6,0,5.3c0.7,0.1,1.3,0.2,1.9,0.3c0-1.9,0-3.7,0-5.6
					C111.4,150.6,110.8,150.6,110.2,150.6z"/>
				<path d="M90.6,168.3c-0.9,0-1.8,0-2.6,0c0-0.8,0-1.5,0-2.3c0.1,0,0.1,0,0.2,0c2.1,0,4.2,0,6.4,0c0.4,0,0.7,0.1,1.1,0.1
					c0.2,0,0.3,0.1,0.3,0.3c0,0.5,0,1,0,1.5c0,0.3-0.1,0.4-0.4,0.4c-0.8,0-1.5,0-2.3,0c0,0.2,0,0.3,0,0.5c0,8.4,0,16.9,0,25.3
					c0,0.3-0.1,0.4-0.4,0.4c-0.7,0-1.5,0-2.2,0C90.6,185.8,90.6,177.1,90.6,168.3z"/>
				<path d="M123,173.1c-0.7-0.6-1.5-1-2.1-1.6c-0.2-0.2-0.3-0.5-0.4-0.8c-0.6-3.1-1.3-6.3-1.9-9.4c0-0.2-0.1-0.3-0.2-0.5
					c-0.1,3-0.1,5.9-0.1,9c-0.5-0.4-1-0.7-1.5-1.1c-0.1-0.1-0.1-0.3-0.1-0.4c-0.1-1.5-0.2-2.9-0.2-4.4c-0.1-4.8-0.3-9.6-0.4-14.4
					c0-0.1,0-0.3,0-0.5c0.7,0,1.4,0,2.2,0c0,2.9,0,5.9,0,8.8c0.1,0,0.1,0,0.2,0c0.7-2.9,1.4-5.9,2.1-8.8c0.7,0,1.4,0,2.2,0
					c-0.3,1.1-0.5,2.2-0.8,3.2c-0.6,2.4-1.2,4.7-1.8,7.1c-0.1,0.2-0.1,0.5,0,0.7c0.9,4.2,1.8,8.5,2.7,12.7
					C123,172.9,123,172.9,123,173.1z"/>
				<path d="M86.5,166c0,9.5,0,19,0,28.5c-0.8,0-1.7,0-2.6,0c0-0.2,0-0.4,0-0.6c0-8.1,0-16.2,0-24.3c0-1,0-2,0-3
					c0-0.4,0.1-0.5,0.5-0.5C85,166,85.7,166,86.5,166z"/>
				<path d="M105.7,156.6c0,2.1,0,4.2,0,6.2c0,0.1,0,0.3-0.1,0.4c-0.3,0.5-0.9,0.9-1.5,0.8c-1.2-0.1-2.4-0.2-3.6-0.4
					c-0.6-0.1-1.3-0.9-1.3-1.5c0-3.9,0-7.9,0-11.8c0-0.6,0.7-1.3,1.3-1.3c1.3,0,2.6,0,4,0.1c0.6,0,1.2,0.7,1.2,1.3
					C105.7,152.5,105.7,154.6,105.7,156.6C105.7,156.6,105.7,156.6,105.7,156.6z M103.6,162.6c0-4,0-7.9,0-11.9c-0.8,0-1.5,0-2.3,0
					c0,3.9,0,7.8,0,11.7C102.1,162.4,102.8,162.5,103.6,162.6z"/>
				<path d="M66.8,167c0-6,0-11.9,0-17.9c1.8,0,3.6,0,5.4,0c0,0.6,0,1.2,0,1.8c-1,0-1.9,0-3,0c0,1.5,0,3,0,4.5c0.7,0,1.4,0,2.1,0
					c0,0.6,0,1.2,0,1.8c-0.6,0.1-1.2,0.2-1.8,0.2c-0.3,0-0.4,0.1-0.4,0.4c0,1.8,0,3.6-0.1,5.5c0,0.2,0.1,0.4,0.1,0.6
					c1-0.2,2-0.5,3-0.7c0,0.7,0,1.2,0,1.8c0,0.1-0.2,0.2-0.3,0.3c-1.4,0.5-2.8,1-4.2,1.5C67.4,166.7,67.2,166.8,66.8,167z"/>
				<path d="M94,153.5c0.4-1,0.7-1.8,1.1-2.7c0.2-0.5,0.4-1,0.6-1.4c0.1-0.1,0.2-0.3,0.3-0.3c0.7,0,1.3,0,2.1,0
					c-0.1,0.2-0.1,0.3-0.2,0.4c-0.9,2-1.8,4-2.7,6.1c-0.2,0.5-0.2,1-0.2,1.5c0,1.8,0,3.6,0,5.5c0,0.3,0,0.5,0,0.8
					c-0.7-0.1-1.5-0.1-2.2-0.2c0-0.2,0-0.3,0-0.5c0-2,0-4.1,0-6.1c0-0.6-0.2-1.3-0.4-1.8c-0.7-1.7-1.4-3.4-2.2-5.1
					c-0.1-0.2-0.2-0.3-0.4-0.5c0.8,0,1.5,0,2.2,0c0.1,0,0.2,0.2,0.3,0.3c0.5,1.1,1,2.3,1.4,3.4C93.8,153,93.9,153.2,94,153.5z"/>
				<path fill="#FFFFFF" d="M110.2,150.6c0.6,0,1.2,0,1.9,0c0,1.9,0,3.7,0,5.6c-0.6-0.1-1.2-0.2-1.9-0.3
					C110.2,154.2,110.2,152.4,110.2,150.6z"/>
				<path fill="#FFFFFF" d="M103.6,162.6c-0.8-0.1-1.5-0.2-2.3-0.3c0-3.9,0-7.8,0-11.7c0.8,0,1.5,0,2.3,0
					C103.6,154.6,103.6,158.6,103.6,162.6z"/>
			</g>
		</g>
	</g>
	<path fill="#3C2415" d="M116,45.1c0,0,1.5-20.2-20.3-19.6c0,0,10-9.2,18-4.4S118.7,38.1,116,45.1z"/>
	<path fill="#3C2415" d="M121.4,80.6c0,0-0.3,11.2,9,7.6c0,0-4.8-2.7-3.5-10.3s-2.6-9-2.6-9s4.8,0.2,5.6,8.3c0,0,1.7-11.1-7.8-14.7
		c0,0,4,1.8,7.3-2.1c0,0-7,1.9-10.3-3L121.4,80.6z"/>
	<path fill="#3C2415" d="M59,87.5c0,0-2.3,4-2.2,7.3c0.1,3.3-3.7,4.8-7.9,2.6c0,0,4.7-2.8,4.3-7.6c-0.4-4.8-1-5.1,0.5-10
		c0,0-0.8,17.1-10.2,11.8c0,0,3.6-1.4,3.7-10.5c0-9.1,1.7-10.5,1.7-10.5S62.4,74.7,59,87.5z"/>
	<path fill="#3C2415" d="M99.1,25.7c0,0,7.8,5.4,4.3,16c0,0,8.3-2.2,8-12.8C111.1,18.4,93.9,14.9,99.1,25.7z"/>
</g>
</svg>
