<?xml version="1.0" encoding="utf-8"?>
<!-- Generator: Adobe Illustrator 18.1.1, SVG Export Plug-In . SVG Version: 6.00 Build 0)  -->
<svg version="1.1" id="Layer_1" xmlns="http://www.w3.org/2000/svg" xmlns:xlink="http://www.w3.org/1999/xlink" x="0px" y="0px"
	 viewBox="0 0 265 412.9" enable-background="new 0 0 265 412.9" xml:space="preserve">
<g>
	<path fill="#FFF200" d="M53.1,180.3c0,0-10.2,28.7-4,45.4c0,0-1.6-17.6,5.5-37.5L53.1,180.3z"/>
	<path fill="#006838" d="M49.1,225.7c0,0-6.5-20.8,4.4-43.5v-6.4C53.5,175.9,37.5,204.3,49.1,225.7z"/>
	<path fill="#ED1C24" d="M49.1,225.7c0,0-11.7-21.4,4.4-49.8v-6.4C53.5,169.4,31.6,193.5,49.1,225.7z"/>
	<polygon fill="#231F20" points="61.2,212.4 57.6,391.1 71,391.1 95.4,244.7 106.2,391.1 122.7,391.1 126.1,211.5 	"/>
	<path fill="#89B7E5" d="M36.4,90.9c0,0,43.7-17.9,111.8,0l-20.5,120.6c0,0-25.7,2.1-68.8,0L36.4,90.9z"/>
	<polygon fill="#8B5E3C" points="69.7,391.1 67.6,401.2 58.8,401.2 58.8,391.1 	"/>
	<path fill="#231F20" d="M58.8,401.2h8.8c0,0,3.4,11.1-8,11.7H44.7c0,0-3.3-7,5.5-7.5C50.3,405.4,57.9,404.1,58.8,401.2z"/>
	<polygon fill="#8B5E3C" points="109.2,391.1 111.3,401.2 120.1,401.2 120.1,391.1 	"/>
	<path fill="#231F20" d="M120.1,401.2h-8.8c0,0-3.4,11.1,8,11.7h14.8c0,0,3.3-7-5.5-7.5C128.6,405.4,120.9,404.1,120.1,401.2z"/>
	<polygon fill="#2A384C" points="61.2,212.4 57.6,391.1 71,391.1 95.4,244.7 106.2,391.1 122.7,391.1 126.1,211.5 	"/>
	<polygon fill="#8B5E3C" points="69.7,391.1 67.6,401.2 58.8,401.2 58.8,391.1 	"/>
	<path fill="#603913" d="M58.8,401.2h8.8c0,0,3.4,11.1-8,11.7H44.7c0,0-3.3-7,5.5-7.5C50.3,405.4,57.9,404.1,58.8,401.2z"/>
	<polygon fill="#8B5E3C" points="109.2,391.1 111.3,401.2 120.1,401.2 120.1,391.1 	"/>
	<path fill="#603913" d="M120.1,401.2h-8.8c0,0-3.4,11.1,8,11.7h14.8c0,0,3.3-7-5.5-7.5C128.6,405.4,120.9,404.1,120.1,401.2z"/>
	<polygon fill="#2A384C" points="47.1,401.2 78.4,401.2 83.5,316.4 59.2,313.2 	"/>
	<polygon fill="#2A384C" points="131.1,402.1 100.3,401.2 100.3,317.4 124.6,314.1 	"/>
	<path fill="#89B7E5" d="M58.9,211.5l-1.6,51.7l37.1-21l2.1-30.7l2.9,31.2l29.1,20.5l-0.8-51.7L114.6,192
		C114.6,192,64.3,175.5,58.9,211.5z"/>
	<path fill="#6CA5D3" d="M96.5,119.6l15-15.1l-2.2-9.2l21,1.9c0,0-9.2-17.2-23.1-19.4L96.5,119.6z"/>
	<path fill="#6CA5D3" d="M87.8,118.2l-15-15.1l2.2-9.2l-21,1.9c0,0,9.2-17.2,23.1-19.4L87.8,118.2z"/>
	<path fill="#A97C50" d="M210.2,51.8c26.9-16,18.9-26.8,14.9-29.5s-15,10.5-15,10.5s5.1-5.1,1.9-7.2c-3.1-2-9.4,3.7-9.4,3.7
		s-11.1,8.6-5.7,16.4S210.2,51.8,210.2,51.8z"/>
	<path fill="#A97C50" d="M195.4,41l-58.2,57l-0.1,35.3l70.5-81.4C207.6,51.9,196.7,47.4,195.4,41z"/>
	<polyline fill="#89B7E5" points="145.3,90.1 183.3,52.9 172.4,74.6 190.6,63.4 205.8,76.4 178.5,85.6 133.5,138.6 135.2,94.8 
		144.3,89.9 	"/>
	<path fill="#A97C50" d="M14.3,211.6c-15.1,29.3-2.8,34.9,2.1,35.2S24,229,24,229s-1.8,7.5,2,7.7c3.7,0.2,6.2-8.4,6.2-8.4
		s5.2-13.9-3.4-18.2S14.3,211.6,14.3,211.6z"/>
	<path fill="#A97C50" d="M32.5,213.5l21.4-84.1L36.2,96.8L16.4,210C16.4,210,28.2,208.3,32.5,213.5z"/>
	<polyline fill="#89B7E5" points="51,141.1 37,196 35.4,170.1 25.4,190.2 5.7,186.6 24.6,163.3 36.4,90.9 57.3,131.4 51.9,140.8 	
		"/>
	<path fill="#FFF200" d="M125.2,84.5c0,0,2.4,49.2-11.3,72.7l5.7,2.8c0,0,13.5-48.1,11.7-73.6L125.2,84.5z"/>
	<path fill="#006838" d="M131,86c0,0-0.6,52.1-14.3,75.5l6.8,2c0,0,15.5-50,13.6-75.5L131,86z"/>
	<path fill="#ED1C24" d="M137.2,87.9c0,0-5.5,54-14.5,75.5l3.4,2.9c0,0,16.5-50.2,15.8-77L137.2,87.9z"/>
	<g>
		<path fill="#9D251A" d="M122.9,215c0,0,30-4.6,31.6-29.1c0,0-8.4,6.2-15.2,0.1c-6.8-6.1-11.9-26.2-27.3-29.4
			c-15.4-3.3-14.9,14-14.3,17.5s-3,15.7-17.1,11.3C66.6,181,25.2,205.8,62,245.9c0,0,23.6,26,50.8,1.1
			C112.8,247,129,233.5,122.9,215z"/>
		
			<rect x="165.3" y="72" transform="matrix(0.6764 0.7365 -0.7365 0.6764 159.2993 -81.1011)" fill="#414042" width="13.3" height="137.6"/>
		<path fill="#030303" d="M104,217.5c0,0,0.1,0.3,0.2,0.8c0.3,1.9,0.5,7-4.5,11.8l10,10.9c0,0,13.7-14.6,9.8-24.9
			c0,0,19.4-9.6,26.6-20.4c0,0-9.5,0.5-15.6-7.7l-28.6,26.3L104,217.5z"/>
		
			<rect x="79.6" y="213.2" transform="matrix(0.6764 0.7365 -0.7365 0.6764 187.4908 4.0743)" fill="#414042" width="19.1" height="4.3"/>
		
			<rect x="73.5" y="218.8" transform="matrix(0.6764 0.7365 -0.7365 0.6764 189.6329 10.3515)" fill="#414042" width="19.1" height="4.3"/>
		<circle fill="#414042" cx="79.9" cy="244.6" r="3.4"/>
		<circle fill="#414042" cx="94.1" cy="245.9" r="3.4"/>
		<circle fill="#414042" cx="95.8" cy="236.7" r="3.4"/>
		<circle fill="#F1F2F2" cx="107.7" cy="168.4" r="6.2"/>
		<circle fill="#BCBEC0" cx="107.7" cy="168.4" r="3.4"/>
		
			<rect x="226.6" y="62.8" transform="matrix(0.6764 0.7365 -0.7365 0.6764 135.101 -150.1186)" fill="#030303" width="23.5" height="31.8"/>
		<path fill="#030303" d="M218.7,80.8l-0.6,8.5l9,9.8l7.5-1C234.6,98.1,230.2,81.1,218.7,80.8z"/>
		<circle fill="#D1D3D4" cx="241.8" cy="65.4" r="2"/>
		<circle fill="#D1D3D4" cx="233.3" cy="73.2" r="2"/>
		<circle fill="#D1D3D4" cx="224.3" cy="81.5" r="2"/>
		<circle fill="#D1D3D4" cx="251.1" cy="77.1" r="2"/>
		<circle fill="#D1D3D4" cx="242.7" cy="84.8" r="2"/>
		<circle fill="#D1D3D4" cx="233.6" cy="93.1" r="2"/>
	</g>
	<path fill="#F9BD91" d="M115,21.1v51.5h-7.8v16.9c0,0-8.8,17.3-30.3,0V54.4c0,0-6.5-1.3-6.5-8.8s7.5-3.9,7.5-3.9V21.1H115z"/>
	<path fill="#E6E7E8" d="M88,57.3h25.7c0,0-4.6-8-12.9-8S88,57.3,88,57.3z"/>
	<path fill="#E6E7E8" d="M88,57.3l-1.2,1.4c0,0,11.3,2,14.8-1.4c0,0,8.7,1.7,13,1.4l-1.1-1.8C113.5,56.9,95.9,55.3,88,57.3z"/>
	<path fill="#A97C50" d="M76.8,89.6l15.8,60.9l14.5-60.9C107.2,89.6,83.1,78.5,76.8,89.6z"/>
	<path fill="#FFFFFF" d="M79.6,100.1c1.4,0.8,14.1,9,25.1,0l-12,50.4l-13.1-49.4"/>
	<path d="M101.4,11.5c-0.5,1-0.3,2.2,0.4,3.2c0.6,0.9-4,6.6-3.1,7.3c1.2,0.8,5.7,0.8,6.9,1.6c0.9,0.6,3.2,0.3,3.9,1.2
		c0.9,1.1,2.2-0.8,2.7,0.6c3.4,11.5,5.2,23.6,5.3,35.6c0,4.1-0.2,8.5,1.5,12.3c0.2,0.4,0.4,0.8,0.9,0.9c0.7,0.1,1.1-0.7,1.3-1.5
		c0.7-3.5,0.5-7.2,0.3-10.8c-0.6-10.6-1.3-21.1-1.9-31.7c0.5,0,0.8,0.5,1,0.9c3.6,7.7,3.8,16.5,3.9,25c0.1,8.5,0.2,17,0.3,25.4
		c0,1,0,2.1,0.6,2.9s1.9,1.2,2.6,0.5c0.3-0.3,0.4-0.7,0.5-1.1c1.7-5.8,2.3-11.9,1.8-17.9c-0.4-4.4-1.3-8.6-1.9-13
		c-0.5-3.5-0.7-7.1-1.3-10.6c-1.5-8.6-5.2-16.7-8.9-24.6c-1.3-2.8-2.7-5.7-5.1-7.4c-3-2.1-7.2-2.2-10.2-0.1
		C102.1,10.6,101.7,11,101.4,11.5z"/>
	<path d="M112.6,60.5c1.4,9.7-1,19.5-0.8,29.3c0,2.1,0.5,4.7,2.4,5.6c1.1-6.8,2.2-13.7,3.3-20.5c0.2-1,0.4-2.1,1.4-2.4
		c1.8,15.9-4.2,32.3-0.2,47.9c1.4-0.6,2.1-2.2,2.6-3.6c5.1-15.1,4.7-31.4,6.2-47.2c0-0.3,0.1-0.6,0.3-0.8c0.4-0.5,1.2-0.3,1.6,0.2
		s0.5,1.1,0.5,1.7c0.5,5.3,1,10.7,1.5,16c3.2-6.3,2.7-13.8,2.1-20.9c-0.7-7.9-1.5-15.9-3.9-23.4c-2.3-7.6-6.2-14.9-12.3-20
		c-2.3-1.9-5.8-3.5-8-1.5c-1.5,1.4-1.5,3.8-1.3,5.9c0.7,8.8,1.3,17.5,3.1,26.1C111.6,55.2,112.2,57.8,112.6,60.5z"/>
	<path fill="#A97C50" d="M115,21.1v51.5h-7.8v16.9c0,0-8.8,17.3-30.3,0V54.4c0,0-6.5-1.3-6.5-8.8s7.5-3.9,7.5-3.9V21.1H115z"/>
	<path d="M110.8,68.3c0,0,1.3,10.1-8.1,10.1s-10-10.1-10-10.1s2.1,3.1,10.1,3.1S110.8,68.3,110.8,68.3z"/>
	<path d="M103.5,18.5c0.1-0.4,0.3-0.7,0.4-1.1c1.5,1.7,0.4,4.6-1.5,5.9s-4.2,1.9-6.1,3.2c-4.7,3.2-5,9.9-5.1,15.5
		c-0.2,12.4-1.3,24.8-3.2,37.1c-0.2,1.3-0.8,2.9-2.1,2.8c-1.3-0.1-1.6-1.9-1.6-3.2c0.3-8.7,0.6-17.3,0.9-26
		c-1.3-0.1-1.8,1.5-1.9,2.8c-0.8,12-1.6,24.1-2.4,36.1c-0.6,9.7-1.3,19.5-4.9,28.5c-0.5,1.3-1.6,2.9-3,2.5c-1.4-0.4-1.5-2.2-1.4-3.7
		c1-10.5,2-20.9,3-31.4c-1.1,0-1.8,1.2-2.2,2.2c-5.1,13.1-1.4,28.4-6.4,41.5c-0.3,0.9-0.9,1.9-1.9,1.8c-0.6-0.1-1.1-0.6-1.4-1.1
		c-3.6-5.5-2.6-12.6-1.7-19.1c1.2-8.7,2.2-17.4,2.9-26.2C62.7,86.8,62,88,61.6,89c-2.8,8-0.8,17.6-5.3,24.8
		c-1.5-1.2-1.5-3.3-1.5-5.2c0.4-12.7,2-25.4,4.8-37.8c-1.2,0.2-1.9,1.6-2.4,2.7c-1.9,4.8-3.1,9.9-3.5,15c-0.3,3.7-0.4,7.8-3,10.4
		c-0.2-13.3,1.7-26.6,3.5-39.8c1.2-8.3,2.3-16.7,3.5-25c0.5-3.7,1.1-7.5,2.7-10.9c1.8-3.8,4.8-6.8,7.8-9.7c1.6-1.6,3.2-3.2,5.1-4.5
		c8.8-6.2,22-4.5,29.6,3.2c1.2,1.2,2.3,2.6,2.6,4.2C106.1,19.8,103.1,15.2,103.5,18.5z"/>
	<polygon points="102.9,53.3 102.9,56.3 112,58.4 112,64.1 113.4,57.3 	"/>
	<polygon points="102.5,53.3 102.5,56.3 93.4,58.4 93.4,64.1 92,57.3 	"/>
</g>
</svg>
