<?xml version="1.0" encoding="utf-8"?>
<!-- Generator: Adobe Illustrator 18.1.1, SVG Export Plug-In . SVG Version: 6.00 Build 0)  -->
<svg version="1.1" id="Layer_1" xmlns="http://www.w3.org/2000/svg" xmlns:xlink="http://www.w3.org/1999/xlink" x="0px" y="0px"
	 viewBox="0 0 100 261" enable-background="new 0 0 100 261" xml:space="preserve">
<g>
	<rect x="45.6" y="33.4" fill="#231F20" width="9" height="227.5"/>
	<rect x="54.6" y="36.9" fill="#414042" width="4.8" height="224.1"/>
	<g>
		<path fill="#231F20" d="M95.4,73.4c0,2.8-2.4,5-5.3,5H11.8c-2.9,0-5.3-2.3-5.3-5V9c0-2.8,2.4-5,5.3-5h78.3c2.9,0,5.3,2.3,5.3,5
			V73.4z"/>
		<path fill="#C42C12" d="M92.8,70.8c0,2.6-2.2,4.6-4.9,4.6H15.3c-2.7,0-4.9-2.1-4.9-4.6V11.3c0-2.6,2.2-4.6,4.9-4.6h72.7
			c2.7,0,4.9,2.1,4.9,4.6V70.8z"/>
		<path fill="#C42C12" d="M92.8,70.8c0,2.6-2.2,4.6-4.9,4.6H15.3c-2.7,0-4.9-2.1-4.9-4.6V11.3c0-2.6,2.2-4.6,4.9-4.6h72.7
			c2.7,0,4.9,2.1,4.9,4.6V70.8z"/>
		<g>
			<g id="_x39_vYi6G.tif">
				<g>
					<path fill="#F4C300" d="M51.6,38.9c0.2-1.4,0.4-2.7,0.7-4c0.8-4.2,1.9-8.3,3.7-12.3c0.9-1.9,1.9-3.6,3.4-5.1
						c0.9-0.9,2-1.6,3.2-1.8c1.4-0.3,2.6,0.1,3.7,0.9c1.5,1,2.6,2.4,3.6,3.9c1.9,2.7,3.3,5.7,4.5,8.7c2.1,5.2,3.6,10.5,4.7,15.9
						c0.2,0.9,0.4,1.8,0.5,2.8c0,0.1,0,0.2,0,0.3c-0.2,0-0.3,0-0.4,0c-2,0-4.1,0-6.1,0c-0.3,0-0.4-0.1-0.5-0.4
						c-0.4-2.8-0.8-5.7-1.3-8.5c-0.8-4.3-1.8-8.5-3.3-12.6c-0.5-1.5-1.1-2.9-2-4.2c-0.3-0.5-0.7-1-1.1-1.4c-0.8-0.8-1.7-0.8-2.6-0.2
						c-0.8,0.5-1.3,1.3-1.7,2.1c-1,1.7-1.6,3.6-2.1,5.5c-0.7,2.7-1.3,5.5-1.6,8.3c-0.3,2.4-0.6,4.8-0.8,7.3
						c-0.1,1.3-0.2,2.5-0.3,3.8c0,0.2-0.1,0.3-0.3,0.3c-2.6,0-5.2,0-7.8,0c-0.3,0-0.4-0.2-0.4-0.4c-0.1-0.9-0.1-1.9-0.2-2.8
						c-0.1-1.7-0.3-3.4-0.5-5c-0.3-2.3-0.6-4.6-1-6.9c-0.5-2.9-1.2-5.8-2.4-8.6c-0.4-1-0.9-2-1.7-2.8c-0.3-0.3-0.6-0.6-0.9-0.8
						c-0.9-0.6-1.8-0.5-2.5,0.3c-0.5,0.6-1,1.2-1.4,1.9c-1.1,1.9-1.9,4.1-2.5,6.2c-1.3,4.1-2.2,8.3-2.9,12.5
						c-0.4,2.5-0.8,5.1-1.1,7.7c-0.3,2.3-0.5,4.7-0.6,7c-0.2,3.2-0.2,6.5-0.3,9.7c0,0.3-0.1,0.4-0.4,0.4c-2.3,0-4.6,0-6.9,0
						c-0.2,0-0.3-0.1-0.3-0.3c0.1-2.3,0.2-4.5,0.3-6.8c0.2-3.3,0.7-6.6,1.2-9.9c1.3-7.6,3.3-15,6.4-22.1c1.2-2.7,2.5-5.3,4.3-7.7
						c0.8-1.1,1.7-2,2.7-2.8c2.2-1.7,4.5-1.4,6.6,0.2c1.4,1.1,2.3,2.5,3.2,4c1.6,3,2.7,6.2,3.6,9.5c0.7,2.7,1.2,5.4,1.6,8.1
						C51.5,38.7,51.6,38.8,51.6,38.9z"/>
					<path fill="#F4C300" d="M77.7,66.5c-1.1,0-2.3,0-3.4,0c-0.3,0-0.4-0.1-0.4-0.4c0-2-0.1-4-0.1-6c0-0.8-0.1-1.7-0.1-2.5
						c0-0.3,0.1-0.3,0.3-0.3c2.2,0,4.5,0,6.7,0c0.2,0,0.3,0.1,0.3,0.3c0.1,0.8,0.2,1.7,0.2,2.5c0.1,2,0.2,4,0.2,6
						c0,0.4,0,0.4-0.4,0.4C80,66.5,78.8,66.5,77.7,66.5z"/>
					<path fill="#F4C300" d="M47.8,57.3c0.1,0,0.2,0,0.3,0c2.3,0,4.6,0,6.9,0c0.3,0,0.4,0.1,0.4,0.4c0,1.8-0.1,3.7-0.1,5.5
						c0,0.3-0.1,0.4-0.4,0.3c-2.3,0-4.6,0-6.9,0c-0.2,0-0.4,0-0.4-0.3c0-1.9,0-3.9-0.1-5.8C47.7,57.4,47.8,57.3,47.8,57.3z"/>
					<path fill="#F4C300" d="M50.7,54.7c0.4,0,0.8,0,1.2,0c0.7,0,1.2-0.4,1.5-1.1c0.2-0.6,0.2-1.1,0-1.7c-0.2-0.6-0.6-1-1.2-1.1
						c-0.5-0.1-0.9,0-1.4,0C50.7,52.1,50.7,53.4,50.7,54.7z"/>
					<path fill="#F4C300" d="M75.1,53.4c-0.3,0-0.6,0-0.9,0c-0.3,0-0.5,0.1-0.7,0.3c-0.2,0.2-0.3,0.4-0.2,0.7
						c0.1,0.3,0.3,0.4,0.6,0.4C74.7,54.9,75.2,54.3,75.1,53.4z"/>
					<path fill="#F4C300" d="M50.7,54.7c0-1.3,0-2.6,0-3.9c0.5,0,1,0,1.4,0c0.6,0.1,1,0.5,1.2,1.1c0.2,0.6,0.2,1.1,0,1.7
						c-0.2,0.7-0.7,1.1-1.5,1.1C51.5,54.7,51.1,54.7,50.7,54.7z"/>
					<path fill="#F4C300" d="M75.1,53.4c0.1,0.9-0.4,1.4-1.2,1.4c-0.3,0-0.5-0.1-0.6-0.4c-0.1-0.3-0.1-0.5,0.2-0.7
						c0.2-0.1,0.5-0.2,0.7-0.3C74.5,53.4,74.8,53.4,75.1,53.4z"/>
				</g>
			</g>
			<path fill="#F4C300" d="M46.6,40c0,0,1.5,15.8,1.1,20.7h7.7c0,0,0.3-14.4,1.2-20.7H46.6z"/>
			<path fill="#F4C300" d="M72.3,44.5c0,0,1.5,12.7,1.6,18l7.3-4.3c0,0-1.4-11.1-2.4-15.1L72.3,44.5z"/>
		</g>
	</g>
</g>
</svg>
