<?xml version="1.0" encoding="utf-8"?>
<!-- Generator: Adobe Illustrator 18.1.1, SVG Export Plug-In . SVG Version: 6.00 Build 0)  -->
<svg version="1.1" id="Layer_1" xmlns="http://www.w3.org/2000/svg" xmlns:xlink="http://www.w3.org/1999/xlink" x="0px" y="0px"
	 viewBox="0 0 745.6 336.6" enable-background="new 0 0 745.6 336.6" xml:space="preserve">
<path fill="#7C8284" d="M188.1,162.9l-1.8,10.2c0,0-22.6,54.2-20.5,81.1c2.1,26.8-16.8,47.4-16.8,47.4c21.7,13.7,32.9,6,34.9,4.3
	l-0.3,18.2h-0.2c-0.6,2-5.9,2.9-5.9,2.9c-6.1,0.3-3.8,5.1-3.8,5.1h10.3c7.3-1,5.8-7,5.6-7h0l2.2-15.7c10.3,3.7,18.7,1.7,24.4-0.4
	l1.8,15.7l0.3-0.2c-0.4,1.7-1,6.7,5.7,7.7h10.3c0,0,2.3-4.9-3.8-5.3c0,0-3.7-1-5.3-2.4l0.2,0.1l-0.4-19.3
	c16.9,8.3,30.5-5.8,30.5-5.8s-8.4-4.7-10.5-42.6c-2.1-37.9-18.9-83.7-18.9-83.7s-2.2-2.5-0.7-8.8c0.2-0.7,0.3-1.3,0.4-1.9
	c0.2-0.2,0.5-0.4,0.7-0.6c0.1-0.1,0.1-0.2,0.1-0.2c24.7,5.8,39-2.6,39-2.6c1.2-12.5-13.1-25.9-20.5-32l0.5-0.6l-16-10.8l-14.8-8.7
	c0-0.1,0-0.1,0-0.1s0,0,0.1,0.1l0.1,0c0-0.1,0-0.1,0-0.1v-7.2c2,0.1,3.3-1.2,3.3-1.2c6,1.5,6.6-3.3,6.7-3.9c5.2,0.5,5-5.6,5-5.6
	c5.5-3.9,0.4-7.8,0.4-7.8c2.1-5.8-3.9-5.9-3.9-5.9s0,8.6-0.2,13.3c0,0.3-0.3,0.5-0.3,0.8V63c0,0,3.7-12.5-18.5-13.7
	s-16.7,27.4-16.7,27.4s-3.4,0.8-6.2,5.1s2.2,7.1,2.2,7.1c-0.4,5.4,5.9,5.7,5.9,5.7c1.6,5,7.3,3,7.3,2.6v8.1c0-0.1-0.9,0-1,0.9
	c-0.5-0.1-1.4-0.2-1.4,1.2c0,0.1,0,0.3,0.1,0.6l-11.8,5.9c6,8.2,15.1,14.7,21.1,18.5c-6.5-4-16.3-10.9-21.1-18.5l-18.7,12.9
	c0,0,0.1,0.1,0.3,0.3c-7.4,6.1-21.4,19.4-20.2,31.8c0,0,14.2,8.4,39,2.6c0,0,0,0.1,0.1,0.2C186.5,162.4,187.3,162.8,188.1,162.9z
	 M198.7,81.9C198.7,81.9,198.7,81.9,198.7,81.9c-0.2,0-0.5-0.2-0.8-0.4C198.2,81.6,198.5,81.8,198.7,81.9z M223.4,94
	c0.4-0.2,0.7-0.5,1-0.8c-0.4,0.4-0.7,0.6-0.9,0.7C223.5,94,223.5,94,223.4,94z M224.9,153.6l12.7-17.1c4.2,5,8.8,9.3,13,12.7
	l-24.8,6C225.5,154.6,225.2,154.1,224.9,153.6z M212.4,136.7c0.2-0.3,0.3-0.5,0.5-0.8c0.3-0.2,0.6-0.5,0.9-0.7
	C213.3,135.7,212.8,136.2,212.4,136.7z M187.8,152.4c-0.5,0.9-1,1.8-1.4,2.7l-24.8-6c4.5-3.6,9.3-8.1,13.6-13.5
	C179.6,140.7,184.7,147,187.8,152.4z"/>
<g>
	<path fill="#7F8E8E" d="M460.8,163c18.4,4.2,30.5-1.6,30.5-1.6l-0.4-4.2l1.1-0.2c0.3,9.6,0.4,20.4,0.1,32.6c0,0.5,0,1,0.1,1.5
		l-2,25.4c1.3-0.9,2.5-1.9,3.7-2.9l1.9,106.2h2c-0.6,1-6.5,3.8-6.5,3.8c-6.7,0.4-4.2,6.2-4.2,6.2h11.4c8.7-3,6.1-10,6.1-10h3.9
		l8.2-120.4L535.5,320h2.4c-0.4,4-0.6,7,6.3,10h11.4c0,0,2.5-6.4-4.2-6.7c0,0-4.1-2.3-5.8-3.3h0.2l-2-107c1.3,1.1,2.6,2.8,4,3.7
		l-2.7-33.7c0.3-10.2,0.7-19.5,1.3-27.8l3.2,0.5l-0.3,4.2c0,0,12.1,5.8,30.5,1.6c18.4-4.2-13.2-64.2-16.8-72.6
		c-3.7-8.4-8.9-9.5-8.9-9.5l-0.1,0.5c-0.2-0.1-0.4-0.2-0.7-0.2c-4.3-1-9.5-2.1-16.5-2.8l-4.1-0.9v-8.2c0,0,0,0,0,0V54.3
		c0,0,4.2-1.5,4.2-7.3c0-2.5-1.9-4.1-3.1-4.1c0,0,0.9,0,0.9,0V32c5-1.2,8.7-3.7,8.7-3.7c3.6-4.1-1.9-4.2-7.6-2.7
		c0.2-5.2-0.9-15.1-11.3-16.2c-13.2-1.5-23.2,0.3-23.3,17.3c-2.7-1-5.4-2-7.3-0.5c-2.6,2.1,2.8,5.3,7.8,6.4v23.6l-1.1,2.6l1.1,0.1
		v3.5c0,3.3,2.8,6,6,6c-0.1,0,0,0,0,0v8.5c-1,0.1-1.3,0.2-2,0.3c-5.8,0.6-12.1,1.4-18.7,2.8c-2.5,0.5-4.3,2.2-5.2,4.3
		c-1.4,1.4-2.8,3.4-4,6.3C474,98.8,442.4,158.8,460.8,163z M547.1,145.9c1.5-16.8,3.6-29.4,5.7-38.7c8.5,9,12.4,23.4,13.7,29.5
		c1.6,7.4-15.8,4.2-15.8,4.2l-0.4,5.4L547.1,145.9z M474,138.3c1.3-6.1,5.1-20.3,13.4-29.2c1.9,9.3,3.4,21.8,4.3,38.6l-1.5,0.2
		l-0.4-5.4C489.8,142.5,472.4,145.7,474,138.3z"/>
	<path fill="#7C8284" d="M621,94.6c-3.7-8.4-8.9-9.5-8.9-9.5l-0.2,0.5c-0.2-0.1-0.5-0.2-0.7-0.2c-3.5-0.8-8.4-1.7-13.7-2.3l-8.9-1.7
		v-7.9c0,0,0,0,0,0V60.1c0,0,5.3-1.4,5.3-7.1c0-2.5-0.8-4-2-4h-2.3V34.6c-12-27.9-30,0-30,0v25.1c-4,2.4-5.9-0.7-5.9-0.7
		s1.9,3.3,5.9,4.1v4.9c0,3.3,2.7,6,6,6c0,0,0,0,0,0v8.4c-1,0.1-1.3,0.2-2,0.3c-5.8,0.6-11.9,1.4-18.5,2.8c-2.5,0.5-4.3,2.2-5.3,4.3
		c-1.4,1.4-2.8,3.4-4,6.3c-3.7,8.4-35.3,68.4-16.8,72.6c18.4,4.2,30.5-1.6,30.5-1.6l-0.3-4.2l1.1-0.2c0.3,9.6,0.4,20.4,0.1,32.6
		c0,0.5,0,1,0.1,1.5l-2,25.5c1.3-0.9,2.5-1.8,3.7-2.8L554,326h2c-0.6,1-6.5,3.8-6.5,3.8c-6.7,0.4-4.2,6.2-4.2,6.2h11.4
		c8.7-1,6.1-10,6.1-10h3.9l8.2-120.4L593.7,326h2.4c-0.4,4-0.6,9,6.3,10h11.4c0,0,2.5-6.4-4.2-6.7c0,0-4.1-2.3-5.8-3.3h0.2l-2-107.1
		c1.3,1.1,2.6,2.4,4,3.3l-2.7-33.5c0.3-10.2,0.7-19.4,1.3-27.8l3.2,0.5l-0.4,4.2c0,0,12.1,5.8,30.5,1.6
		C656.3,163,624.7,103,621,94.6z M548.4,153.7l-0.4-5.4c0,0-17.4,3.2-15.8-4.2c1.3-6.1,5.1-20.3,13.4-29.2
		c1.9,9.3,3.4,21.8,4.3,38.6L548.4,153.7z M608.9,146.7l-0.4,5.4l-3.2-0.4c1.5-16.8,3.6-29.4,5.7-38.7c8.5,9,12.4,23.4,13.7,29.5
		C626.3,149.9,608.9,146.7,608.9,146.7z"/>
	<path fill="#37372D" d="M108.4,120.4c0,0.6,0.1,2.1,0.2,4.2c1.3,27.6,10.5,170.5,10.5,170.5l162.8,6.3c0,0,18.7,8.4,36,4.2
		s39.8,8.5,65.3-4.7c25.4-13.2,213.6-6.9,213.6-6.9l5.3-128.4l-141.5-44.2L108.4,120.4z"/>
	<path fill="#7F8E8E" d="M216.2,97.8c-1.3-2.9-2.7-4.9-4.1-6.3c-0.9-2.1-2.8-3.8-5.3-4.3c-6.5-1.3-13.1-2.2-18.9-2.8
		c-0.7-0.1-0.4-0.2-2.4-0.3v-8.5c0,0,0.5,0,0.5,0c3.3,0,6.5-2.7,6.5-6v-4.9c3-0.8,5.9-4.1,5.9-4.1s-2.9,3.1-5.9,0.7V40.8
		c7-0.8,11.8-1.9,11.8-1.9c-4-1.8-8.1-3.2-12.1-4.1l0.4-27.5c-17.4-7.9-33.1,0.5-33.1,0.5V35c-7,1.5-11.5,3.3-11.5,3.3
		c3.9,1.1,8.5,1.9,11.5,2.4V52c0,0,0.6,0,0.6,0c-1.2,0-2.4,0.8-2.4,3.3c0,5.7,4.8,6.4,4.8,6.4v13.4c0,0,0,0,0,0V83l-8.3,1.6
		c-5.4,0.7-9.9,1.5-13.4,2.4c-0.2,0.1-0.5,0.1-0.7,0.2l-0.1-0.5c0,0-5.3,1.1-8.9,9.5c-3.7,8.4-35.3,68.4-16.8,72.6
		c18.4,4.2,30.5-1.6,30.5-1.6l-0.3-4.2l3.2-0.5c0.6,8.3,1,17.6,1.3,27.8l-2.7,33.7c1.4-0.9,2.7-2.8,4-3.9l-2,106.8h0.2
		c-1.7,3-5.8,3.3-5.8,3.3c-6.7,0.4-4.2,6.7-4.2,6.7h11.4c6.9-1.2,6.7-6,6.3-10h2.4l18.7-120.4l8.2,120.4h3.9c0,0-2.6,8.8,6.1,10
		h11.4c0,0,2.5-5.9-4.2-6.2c0,0-5.9-0.8-6.5-3.8h2l1.9-106c1.2,1,2.4,2.1,3.7,3l-2-25.4c0.1-0.5,0.1-1,0.1-1.5
		c-0.2-12.2-0.2-23,0.1-32.6l1.1,0.2l-0.4,4.2c0,0,12.1,5.8,30.5,1.6C251.5,166.2,219.9,106.2,216.2,97.8z M143.6,153.7l-0.4-5.4
		c0,0-17.4,3.2-15.8-4.2c1.3-6.1,5.2-20.6,13.7-29.5c2.1,9.3,4.2,21.9,5.7,38.7L143.6,153.7z M204.1,149.9l-0.4,5.4l-1.5-0.2
		c0.8-16.8,2.4-29.3,4.3-38.6c8.3,9,12.1,23.2,13.4,29.2C221.5,153,204.1,149.9,204.1,149.9z"/>
	<path fill="#7F8E8E" d="M31,163c18.4,4.2,30.5-1.6,30.5-1.6l-0.4-4.2l1.1-0.2c0.3,9.6,0.4,20.4,0.1,32.6c0,0.5,0,1,0.1,1.5l-2,25.4
		c1.3-0.9,2.5-1.9,3.7-2.9L66.1,320h2c-0.6,1-6.5,3.8-6.5,3.8c-6.7,0.4-4.2,6.2-4.2,6.2h11.4c8.7-3,6.1-10,6.1-10h3.9L87,199.6
		L105.7,320h2.4c-0.4,4-0.6,7,6.3,10h11.4c0,0,2.5-6.4-4.2-6.7c0,0-4.1-2.3-5.8-3.3h0.2l-2-107c1.3,1.1,2.6,2.8,4,3.7l-2.7-33.7
		c0.3-10.2,0.7-19.5,1.3-27.8l3.2,0.5l-0.3,4.2c0,0,12.1,5.8,30.5,1.6c18.4-4.2-13.2-64.2-16.8-72.6c-3.7-8.4-8.9-9.5-8.9-9.5
		l-0.1,0.5c-0.2-0.1-0.4-0.2-0.7-0.2c-4.3-1-9.6-2.1-16.6-2.8l-4.2-0.9v-8.2c0,0,0,0,0,0V54.3c0,0,4.3-1.5,4.3-7.3
		c0-2.5-1.7-4.1-3-4.1h1.6V32c5-1.2,8.3-3.7,8.3-3.7c3.6-4.1-2.1-4.2-7.8-2.7c0.2-5.2-1-15.1-11.4-16.2C81.5,7.9,71.4,9.6,71.3,26.7
		c-2.7-1-5.1-2-6.9-0.5c-2.6,2.1,3.2,5.3,8.2,6.4v23.6l-1.1,2.6l1.1,0.1v3.5c0,3.3,3.3,6,6.5,6c-0.1,0,0.5,0,0.5,0v8.5
		c-2,0.1-2.2,0.2-2.9,0.3c-5.8,0.6-12.6,1.4-19.1,2.8c-2.5,0.5-4.5,2.2-5.4,4.3c-1.4,1.4-2.9,3.4-4.1,6.3
		C44.3,98.8,12.6,158.8,31,163z M117.3,145.9c1.5-16.8,3.6-29.4,5.7-38.7c8.5,9,12.4,23.4,13.7,29.5c1.6,7.4-15.8,4.2-15.8,4.2
		l-0.4,5.4L117.3,145.9z M44.2,138.3c1.3-6.1,5.1-20.3,13.4-29.2c1.9,9.3,3.4,21.8,4.3,38.6l-1.5,0.2l-0.4-5.4
		C60,142.5,42.6,145.7,44.2,138.3z"/>
	<path fill="#586266" d="M148.2,162.7c0.1-0.1,0.1-0.2,0.1-0.2c24.7,5.8,39-2.6,39-2.6c1.2-12.4-12.8-25.7-20.2-31.8
		c0.2-0.2,0.3-0.3,0.3-0.3l-18.7-12.9c-4.9,7.6-14.7,14.5-21.1,18.5c6-3.8,15.1-10.3,21.1-18.5l-11.8-5.9c0.1-0.2,0.2-0.4,0.2-0.6
		c0-1.4-0.6-1.4-1.1-1.2c-0.1-0.9-0.5-1-0.5-0.9v-8.1c0,0.4,5.3,2.5,6.8-2.6c0,0,5.9-0.3,5.5-5.7c0,0,4.9-2.8,2.1-7.1
		c-2.8-4.3-6.3-5.1-6.3-5.1s5.6-28.6-16.6-27.4s-18.5,13.7-18.5,13.7v26.1c0-0.3-0.3-0.5-0.3-0.8c-0.1-4.7-0.1-13.3-0.1-13.3
		s-6,0.1-3.9,5.9c0,0-5.2,3.8,0.4,7.8c0,0-0.2,6.1,5,5.6c0.1,0.6,0.7,5.4,6.7,3.9c0,0,2.2,1.3,3.2,1.2v7.2c0,0,0,0,0,0.1l0.1,0
		c0-0.1,0.1-0.1,0.1-0.1s0,0.1,0,0.1l-14.8,8.7l-16,10.8l0.5,0.6c-7.4,6-21.7,19.4-20.5,32c0,0,14.2,8.4,39,2.6c0,0,0,0.1,0.1,0.2
		c0.2,0.3,0.4,0.5,0.7,0.6c0.1,0.6,0.2,1.3,0.4,1.9c1.6,6.3-0.7,8.8-0.7,8.8s-16.8,45.8-18.9,83.7C87.4,295.7,79,300.4,79,300.4
		s13.6,14.1,30.5,5.8l-0.4,19.4l0.2,0c-1.5,1.4-5.3,3.1-5.3,3.1c-6.1,0.3-3.8,6.2-3.8,6.2h10.3c6.6-3,6-6.9,5.7-8.6l0.3-0.5
		l1.8-15.8c5.6,2.1,14.1,3.9,24.4,0.3l2.2,15.7h0c-0.3,0-1.8,6,5.6,9h10.3c0,0,2.3-5.8-3.8-6.1c0,0-5.3-1.9-5.9-3.9h-0.2l-0.3-18.2
		c2,1.8,13.2,9.6,34.9-4.1c0,0-18.9-20.6-16.8-47.4c2.1-26.8-20.5-81.1-20.5-81.1l-1.8-10.2C146.9,163.8,147.7,163.4,148.2,162.7z
		 M136.3,82.5c-0.3,0.2-0.6,0.4-0.8,0.5c0,0,0-0.1,0-0.1C135.7,82.8,136,82.7,136.3,82.5z M110.6,95.1c-0.2-0.1-0.5-0.3-0.9-0.7
		c0.3,0.3,0.6,0.5,1,0.8C110.7,95.1,110.7,95.1,110.6,95.1z M108.4,156.2l-24.8-6c4.2-3.4,8.8-7.6,13-12.7l12.7,17.1
		C109,155.2,108.7,155.7,108.4,156.2z M120.5,136.2c0.3,0.2,0.6,0.5,0.9,0.7c0.2,0.3,0.3,0.5,0.5,0.8
		C121.4,137.3,120.9,136.8,120.5,136.2z M159,136.7c4.3,5.4,9.2,9.9,13.6,13.5l-24.8,6c-0.5-0.9-1-1.8-1.4-2.7
		C149.5,148.1,154.6,141.8,159,136.7z"/>
	<path fill="#586266" d="M294.6,94.6c-3.7-8.4-8.9-9.5-8.9-9.5l-0.2,0.5c-0.2-0.1-0.5-0.2-0.7-0.2c-3.5-0.8-7.7-1.7-13-2.3l-8.2-1.7
		v-7.9c0,0,0,0,0,0V60.1c0,0,4.6-1.4,4.6-7.1c0-2.5-1.4-4-2.7-4h0V34.6c-13-27.9-32,0-32,0v25.1c-3,2.4-5.9-0.7-5.9-0.7
		s2.9,3.3,5.9,4.1v4.9c0,3.3,2.7,6,6,6c0,0,0,0,0,0v8.4c-1,0.1-1.4,0.2-2.2,0.3c-5.8,0.6-12,1.4-18.6,2.8c-2.5,0.5-4.4,2.2-5.3,4.3
		c-1.4,1.4-2.8,3.4-4.1,6.3c-3.7,8.4-35.3,68.4-16.8,72.6c18.4,4.2,30.5-1.6,30.5-1.6l-0.3-4.2l1.1-0.2c0.3,9.6,0.4,20.4,0.1,32.6
		c0,0.5,0,1,0.1,1.5l-2,25.5c1.3-0.9,2.5-1.8,3.7-2.8l1.9,106.3h2c-0.6,1-6.5,3.8-6.5,3.8c-6.7,0.4-4.2,6.2-4.2,6.2h11.4
		c8.7-1,6.1-10,6.1-10h3.9l8.2-120.4L267.3,326h2.4c-0.4,4-0.6,9,6.3,10h11.4c0,0,2.5-6.4-4.2-6.7c0,0-4.1-2.3-5.8-3.3h0.2l-2-107.1
		c1.3,1.1,2.6,2.4,4,3.3l-2.7-33.5c0.3-10.2,0.7-19.4,1.3-27.8l3.2,0.5l-0.4,4.2c0,0,12.1,5.8,30.5,1.6
		C329.9,163,298.3,103,294.6,94.6z M222.1,153.7l-0.4-5.4c0,0-17.4,3.2-15.8-4.2c1.3-6.1,5.1-20.3,13.4-29.2
		c1.9,9.3,3.4,21.8,4.3,38.6L222.1,153.7z M282.5,146.7l-0.4,5.4l-3.2-0.4c1.5-16.8,3.6-29.4,5.7-38.7c8.5,9,12.4,23.4,13.7,29.5
		C299.9,149.9,282.5,146.7,282.5,146.7z"/>
	<path fill="#7F8E8E" d="M425.7,97.8c-1.3-2.9-2.7-4.9-4.1-6.3c-0.9-2.1-2.8-3.8-5.3-4.3c-6.5-1.3-12.3-2.2-18.2-2.8
		c-0.7-0.1-1.6-0.2-1.6-0.3v-8.5c0,0,0,0,0,0c3.3,0,6-2.7,6-6v-4.9c4-0.8,5.9-4.1,5.9-4.1s-1.9,3.1-5.9,0.7V40.8
		c6-0.8,11.5-1.9,11.5-1.9c-4-1.8-8.2-3.2-12.2-4.1l0.6-27.5c-17.4-7.9-32.9,0.5-32.9,0.5V35c-8,1.5-11.5,3.3-11.5,3.3
		c3.9,1.1,7.5,1.9,11.5,2.4V52h0.1c-1.2,0-2.2,0.8-2.2,3.3c0,5.7,5.1,6.4,5.1,6.4v13.4c0,0,0,0,0,0V83l-8.5,1.6
		c-5.4,0.7-10,1.5-13.6,2.4c-0.2,0.1-0.5,0.1-0.8,0.2l-0.2-0.5c0,0-5.3,1.1-9,9.5c-3.7,8.4-35.3,68.4-16.9,72.6
		c18.4,4.2,30.5-1.6,30.5-1.6l-0.4-4.2l3.1-0.5c0.6,8.3,1,17.6,1.3,27.8l-2.7,33.7c1.4-0.9,2.7-2.8,4-3.9l-2,106.8h0.2
		c-1.7,3-5.8,3.3-5.8,3.3c-6.7,0.4-4.2,6.7-4.2,6.7h11.4c6.9-1.2,6.7-6,6.3-10h2.4l18.7-120.4l8.2,120.4h3.9c0,0-2.6,8.8,6.1,10
		h11.4c0,0,2.5-5.9-4.2-6.2c0,0-5.9-0.8-6.5-3.8h2l1.9-106c1.2,1,2.4,2.1,3.7,3l-2-25.4c0.1-0.5,0.1-1,0.1-1.5
		c-0.2-12.2-0.2-23,0.1-32.6l1.1,0.2l-0.4,4.2c0,0,12.1,5.8,30.5,1.6C461,166.2,429.4,106.2,425.7,97.8z M353.1,153.7l-0.4-5.4
		c0,0-17.4,3.2-15.8-4.2c1.3-6.1,5.2-20.6,13.7-29.5c2.1,9.3,4.2,21.9,5.7,38.7L353.1,153.7z M413.6,149.9l-0.4,5.4l-1.5-0.2
		c0.8-16.8,2.4-29.3,4.3-38.6c8.3,9,12.1,23.2,13.4,29.2C431,153,413.6,149.9,413.6,149.9z"/>
	<path fill="#7F8E8E" d="M240.5,163c18.4,4.2,30.5-1.6,30.5-1.6l-0.4-4.2l1.1-0.2c0.3,9.6,0.4,20.4,0.1,32.6c0,0.5,0,1,0.1,1.5
		l-2,25.4c1.3-0.9,2.5-1.9,3.7-2.9l1.9,106.2h2c-0.6,1-6.5,3.8-6.5,3.8c-6.7,0.4-4.2,6.2-4.2,6.2h11.4c8.7-3,6.1-10,6.1-10h3.9
		l8.2-120.4L315.2,320h2.4c-0.4,4-0.6,7,6.3,10h11.4c0,0,2.5-6.4-4.2-6.7c0,0-4.1-2.3-5.8-3.3h0.2l-2-107c1.3,1.1,2.6,2.8,4,3.7
		l-2.7-33.7c0.3-10.2,0.7-19.5,1.3-27.8l3.2,0.5l-0.3,4.2c0,0,12.1,5.8,30.5,1.6c18.4-4.2-13.2-64.2-16.8-72.6
		c-3.7-8.4-8.9-9.5-8.9-9.5l-0.1,0.5c-0.2-0.1-0.4-0.2-0.7-0.2c-4.3-1-9.3-2.1-16.3-2.8l-3.9-0.9v-8.2c0,0,0,0,0,0V54.3
		c0,0,4.1-1.5,4.1-7.3c0-2.5-2-4.1-3.2-4.1c0,0,2.1,0,2.1,0V32c5-1.2,8-3.7,8-3.7c3.6-4.1-2.2-4.2-7.9-2.7
		c0.2-5.2-1.1-15.1-11.5-16.2C291,7.9,281,9.6,280.9,26.7c-2.7-1-4.8-2-6.7-0.5c-2.6,2.1,3.4,5.3,8.4,6.4v23.6l-1.1,2.6l1.1,0.1v3.5
		c0,3.3,2.8,6,6,6c-0.1,0,0,0,0,0v8.5c-1,0.1-2,0.2-2.6,0.3c-5.8,0.6-12.5,1.4-19,2.8c-2.5,0.5-4.5,2.2-5.4,4.3
		c-1.4,1.4-2.9,3.4-4.1,6.3C253.8,98.8,222.1,158.8,240.5,163z M326.8,145.9c1.5-16.8,3.6-29.4,5.7-38.7c8.5,9,12.4,23.4,13.7,29.5
		c1.6,7.4-15.8,4.2-15.8,4.2l-0.4,5.4L326.8,145.9z M253.7,138.3c1.3-6.1,5.1-20.3,13.4-29.2c1.9,9.3,3.4,21.8,4.3,38.6l-1.5,0.2
		l-0.4-5.4C269.5,142.5,252.1,145.7,253.7,138.3z"/>
	<path fill="#586266" d="M357.7,162.7c0.1-0.1,0.1-0.2,0.1-0.2c24.7,5.8,39-2.6,39-2.6c1.2-12.4-12.8-25.7-20.2-31.8
		c0.2-0.2,0.3-0.3,0.3-0.3l-18.7-12.9c-4.9,7.6-14.7,14.5-21.1,18.5c6-3.8,15.1-10.3,21.1-18.5l-11.8-5.9c0.1-0.2,0.2-0.4,0.2-0.6
		c0-1.4,0.1-1.4-0.3-1.2c-0.1-0.9,0.3-1,0.3-0.9v-8.1c0,0.4,4.5,2.5,6.1-2.6c0,0,5.5-0.3,5.1-5.7c0,0,4.7-2.8,1.9-7.1
		c-2.8-4.3-6.3-5.1-6.3-5.1s6.3-28.6-15.9-27.4s-17.8,13.7-17.8,13.7v26.1c0-0.3-1.1-0.5-1.1-0.8c-0.1-4.7-0.5-13.3-0.5-13.3
		s-6.2,0.1-4.1,5.9c0,0-5.3,3.8,0.3,7.8c0,0-0.3,6.1,4.9,5.6c0.1,0.6,1.4,5.4,7.4,3.9c0,0,1,1.3,4,1.2v7.2c0,0,0,0,0,0.1l-0.6,0
		c0-0.1-0.3-0.1-0.3-0.1s-0.2,0.1-0.2,0.1l-14.8,8.7l-16.1,10.8l0.5,0.6c-7.4,6-21.7,19.4-20.5,32c0,0,14.2,8.4,38.9,2.6
		c0,0,0,0.1,0.1,0.2c0.2,0.3,0.4,0.5,0.7,0.6c0.1,0.6,0.2,1.3,0.4,1.9c1.6,6.3-0.7,8.8-0.7,8.8s-16.8,45.8-18.9,83.7
		c-2.1,37.9-10.5,42.6-10.5,42.6s13.6,14.1,30.5,5.8l-0.4,19.4l0.2,0c-1.5,1.4-5.3,3.1-5.3,3.1c-6.1,0.3-3.8,6.2-3.8,6.2h10.3
		c6.6-3,6-6.9,5.7-8.6l0.3-0.5l1.8-15.8c5.6,2.1,14.1,3.9,24.4,0.3l2.2,15.7h0c-0.3,0-1.8,6,5.6,9h10.3c0,0,2.3-5.8-3.8-6.1
		c0,0-5.3-1.9-5.9-3.9h-0.2l-0.3-18.2c2,1.8,13.2,9.6,34.9-4.1c0,0-18.9-20.6-16.8-47.4c2.1-26.8-20.5-81.1-20.5-81.1l-1.8-10.2
		C356.4,163.8,357.2,163.4,357.7,162.7z M345.8,82.5c-0.3,0.2-0.6,0.4-0.8,0.5c0,0,0-0.1,0-0.1C345.2,82.8,345.5,82.7,345.8,82.5z
		 M320.1,95.1c-0.2-0.1-0.5-0.3-0.9-0.7c0.3,0.3,0.6,0.5,1,0.8C320.2,95.1,320.2,95.1,320.1,95.1z M317.9,156.2l-24.8-6
		c4.2-3.4,8.8-7.6,13-12.7l12.7,17.1C318.5,155.2,318.2,155.7,317.9,156.2z M330,136.2c0.3,0.2,0.6,0.5,0.9,0.7
		c0.2,0.3,0.3,0.5,0.5,0.8C330.9,137.3,330.4,136.8,330,136.2z M368.5,136.7c4.3,5.4,9.2,9.9,13.6,13.5l-24.8,6
		c-0.5-0.9-1-1.8-1.4-2.7C359,148.1,364.1,141.8,368.5,136.7z"/>
	<path fill="#7C8284" d="M397.6,162.9l-1.8,10.2c0,0-22.6,54.2-20.5,81.1c2.1,26.8-16.8,47.4-16.8,47.4c21.7,13.7,32.9,6,34.9,4.3
		L393,324h-0.2c-0.6,2-5.9,2.9-5.9,2.9c-6.1,0.3-3.8,5.1-3.8,5.1h10.3c7.3-1,5.8-7,5.6-7h0l2.2-15.7c10.3,3.7,18.7,1.7,24.4-0.4
		l1.8,15.7l0.3-0.2c-0.4,1.7-1,6.7,5.7,7.7h10.3c0,0,2.3-4.9-3.8-5.3c0,0-3.7-1-5.3-2.4l0.2,0.1l-0.4-19.3
		c16.9,8.3,30.5-5.8,30.5-5.8s-8.4-4.7-10.5-42.6c-2.1-37.9-18.9-83.7-18.9-83.7s-2.2-2.5-0.7-8.8c0.2-0.7,0.3-1.3,0.4-1.9
		c0.2-0.2,0.5-0.4,0.7-0.6c0.1-0.1,0.1-0.2,0.1-0.2c24.7,5.8,39-2.6,39-2.6c1.2-12.5-13.1-25.9-20.5-32l0.5-0.6l-16-10.8l-14.8-8.7
		c0-0.1,0-0.1,0-0.1s0.3,0,0.3,0.1l0.4,0c0-0.1,0-0.1,0-0.1v-7.2c1,0.1,3-1.2,3-1.2c6,1.5,6.5-3.3,6.6-3.9c5.2,0.5,4.9-5.6,4.9-5.6
		c5.5-3.9,0.4-7.8,0.4-7.8c2.1-5.8-3.9-5.9-3.9-5.9s0.2,8.6,0.1,13.3c0,0.3-0.1,0.5-0.1,0.8V63c0,0,3.5-12.5-18.8-13.7
		S400,76.7,400,76.7s-3.5,0.8-6.3,5.1c-2.8,4.3,2.1,7.1,2.1,7.1c-0.4,5.4,5.7,5.7,5.7,5.7c1.6,5,7,3,7,2.6v8.1c0-0.1-0.7,0-0.7,0.9
		c-0.5-0.1-1.2-0.2-1.2,1.2c0,0.1,0,0.3,0.2,0.6l-11.8,5.9c6,8.2,15.1,14.7,21.1,18.5c-6.5-4-16.2-10.9-21.1-18.5l-18.7,12.9
		c0,0,0.1,0.1,0.3,0.3c-7.4,6.1-21.4,19.4-20.2,31.8c0,0,14.2,8.4,39,2.6c0,0,0,0.1,0.1,0.2C396,162.4,396.8,162.8,397.6,162.9z
		 M408.2,81.9C408.2,81.9,408.2,81.9,408.2,81.9c-0.2,0-0.5-0.2-0.8-0.4C407.7,81.6,408,81.8,408.2,81.9z M432.9,94
		c0.4-0.2,0.7-0.5,1-0.8c-0.4,0.4-0.7,0.6-0.9,0.7C433,94,433,94,432.9,94z M434.4,153.6l12.7-17.1c4.2,5,8.8,9.3,13,12.7l-24.8,6
		C435,154.6,434.7,154.1,434.4,153.6z M421.9,136.7c0.2-0.3,0.3-0.5,0.5-0.8c0.3-0.2,0.6-0.5,0.9-0.7
		C422.8,135.7,422.3,136.2,421.9,136.7z M397.3,152.4c-0.5,0.9-1,1.8-1.4,2.7l-24.8-6c4.5-3.6,9.3-8.1,13.6-13.5
		C389.1,140.7,394.2,147,397.3,152.4z"/>
	<path fill="#586266" d="M550.9,161.6c0.1-0.1,0.1-0.2,0.1-0.2c24.7,5.8,39-2.6,39-2.6c1.2-12.4-12.8-25.7-20.2-31.8
		c0.2-0.2,0.3-0.3,0.3-0.3l-18.7-12.9c-4.9,7.6-14.7,14.5-21.1,18.5c6-3.8,15.1-10.3,21.1-18.5l-11.8-5.9c0.1-0.2,0.2-0.4,0.2-0.6
		c0-1.4-1-1.4-1.4-1.2c-0.1-0.9-0.8-1-0.8-0.9v-8.1c0,0.4,5.6,2.5,7.2-2.6c0,0,6-0.3,5.7-5.7c0,0,5-2.8,2.2-7.1
		c-2.8-4.3-6.2-5.1-6.2-5.1s5.2-28.6-17-27.4S510.6,63,510.6,63v26.1c0-0.3,0-0.5,0-0.8c-0.1-4.7,0-13.3,0-13.3s-5.9,0.1-3.8,5.9
		c0,0-5.1,3.8,0.4,7.8c0,0-0.2,6.1,5,5.6c0.1,0.6,0.3,5.4,6.3,3.9c0,0-0.1,1.3,2.9,1.2v7.2c0,0,0,0,0,0.1l0.5,0
		c0-0.1,0.2-0.1,0.2-0.1s0.1,0.1,0.1,0.1l-14.7,8.7l-16,10.8l0.5,0.6c-7.4,6-21.7,19.4-20.5,32c0,0,14.2,8.4,39,2.6
		c0,0,0,0.1,0.1,0.2c0.2,0.3,0.4,0.5,0.7,0.6c0.1,0.6,0.2,1.3,0.4,1.9c1.6,6.3-0.7,8.8-0.7,8.8s-16.8,45.8-18.9,83.7
		c-2.1,37.9-10.5,42.6-10.5,42.6s13.6,14.1,30.5,5.8l-0.4,19.4l0.2-0.1c-1.5,1.4-5.3,2.3-5.3,2.3c-6.1,0.3-3.8,5.3-3.8,5.3h10.3
		c6.6-1,6-6,5.7-7.7l0.3,0l1.8-15.6c5.6,2.1,14.1,4.2,24.4,0.5l2.2,15.8h0c-0.3,0-1.8,6,5.6,7h10.3c0,0,2.3-4.8-3.8-5.1
		c0,0-5.3-0.9-5.9-2.9h-0.2l-0.3-18.2c2,1.8,13.2,9.7,34.9-4c0,0-18.9-20.7-16.8-47.5c2.1-26.8-20.5-81.1-20.5-81.1l-1.8-10.2
		C549.6,162.8,550.3,162.4,550.9,161.6z M539,81.4c-0.3,0.2-0.6,0.4-0.8,0.5c0,0,0-0.1,0-0.1C538.4,81.8,538.7,81.6,539,81.4z
		 M513.3,94c-0.2-0.1-0.5-0.3-0.9-0.7c0.3,0.3,0.6,0.5,1,0.8C513.4,94,513.4,94,513.3,94z M511.1,155.2l-24.8-6
		c4.2-3.4,8.8-7.6,13-12.7l12.7,17.1C511.7,154.1,511.4,154.6,511.1,155.2z M523.2,135.2c0.3,0.2,0.6,0.5,0.9,0.7
		c0.2,0.3,0.3,0.5,0.5,0.8C524,136.2,523.6,135.7,523.2,135.2z M561.7,135.7c4.3,5.4,9.2,9.9,13.6,13.5l-24.8,6
		c-0.5-0.9-1-1.8-1.4-2.7C552.2,147,557.3,140.7,561.7,135.7z"/>
	<path fill="#586266" d="M504.1,94.6c-3.7-8.4-8.9-9.5-8.9-9.5l-0.2,0.5c-0.2-0.1-0.5-0.2-0.7-0.2c-3.5-0.8-7.5-1.7-12.7-2.3l-8-1.7
		v-7.9c0,0,0,0,0,0V60.1c0,0,4.4-1.4,4.4-7.1c0-2.5-1.7-4-2.9-4h-0.5V34.6c-12-27.9-30,0-30,0v25.1c-4,2.4-5.9-0.7-5.9-0.7
		s1.9,3.3,5.9,4.1v4.9c0,3.3,2.7,6,6,6c0,0,0,0,0,0v8.4c-3,0.1-2.2,0.2-2.9,0.3c-5.8,0.6-12.4,1.4-18.9,2.8
		c-2.5,0.5-4.6,2.2-5.5,4.3c-1.4,1.4-2.9,3.4-4.2,6.3c-3.7,8.4-35.3,68.4-16.9,72.6c18.4,4.2,30.5-1.6,30.5-1.6l-0.4-4.2l1.1-0.2
		c0.3,9.6,0.4,20.4,0.1,32.6c0,0.5,0,1,0.1,1.5l-2,25.5c1.3-0.9,2.5-1.8,3.7-2.8l1.9,106.3h2c-0.6,1-6.5,3.8-6.5,3.8
		c-6.7,0.4-4.2,6.2-4.2,6.2h11.4c8.7-1,6.1-10,6.1-10h3.9l8.2-120.4L476.8,326h2.4c-0.4,4-0.6,9,6.3,10h11.4c0,0,2.5-6.4-4.2-6.7
		c0,0-4.1-2.3-5.8-3.3h0.2l-2-107.1c1.3,1.1,2.6,2.4,4,3.3l-2.7-33.5c0.3-10.2,0.7-19.4,1.3-27.8l3.2,0.5l-0.4,4.2
		c0,0,12.1,5.8,30.5,1.6C539.4,163,507.8,103,504.1,94.6z M431.6,153.7l-0.4-5.4c0,0-17.4,3.2-15.8-4.2c1.3-6.1,5.1-20.3,13.4-29.2
		c1.9,9.3,3.4,21.8,4.3,38.6L431.6,153.7z M492,146.7l-0.4,5.4l-3.2-0.4c1.5-16.8,3.6-29.4,5.7-38.7c8.5,9,12.4,23.4,13.7,29.5
		C509.4,149.9,492,146.7,492,146.7z"/>
</g>
<g>
	<path fill="#776F62" d="M158.3,87c11.9-2.8,35.1-6.1,66,0.2c4.6,0.9,7.2,5.9,5.2,10.3c-5.1,11.1-11.6,37.5-10.4,99.7
		c0.1,4.1-3.2,7.5-7.3,7.5c-14.6,0-45.2,1.4-45.2,0.5c-0.6-66.8-8.5-96.3-13.4-108.2C151.4,92.8,153.9,88.1,158.3,87z"/>
	<path fill="#331A0A" d="M166.4,327.6h6.7c0,0,2.6,8.5-6.1,9h-11.4c0,0-2.5-5.4,4.2-5.7C159.9,330.8,165.8,329.8,166.4,327.6z"/>
	<path fill="#331A0A" d="M213.4,327.6h-6.7c0,0-2.6,8.5,6.1,9h11.4c0,0,2.5-5.4-4.2-5.7C219.9,330.8,214,329.8,213.4,327.6z"/>
	<polygon fill="#494238" points="168.3,182.9 165.5,328.6 175.8,328.6 194.5,207.7 202.7,327.6 215.4,327.6 218,182.2 	"/>
	<path fill="#D89F79" d="M209.5,36.2v33.5c0,3.3-2.7,6-6,6l0,0v13c0,0-6.7,13.2-23.2,0v-27c0,0-5-1-5-6.7s5.7-3,5.7-3V36.2H209.5z"
		/>
	<path fill="#3E3D38" d="M181,52l0.7,2.1h2.1l3.5-19.4l-9.7,1.6v15.1C177.5,51.4,180.2,51.5,181,52z"/>
	<path fill="#776F62" d="M193.6,182.5c0,0,8.9,29,27.4,41.6l-3.7-46.3L193.6,182.5z"/>
	<path fill="#776F62" d="M193,181.5c0,0-11.1,30-29.5,42.6l3.7-46.3L193,181.5z"/>
	<polygon fill="#494238" points="193,181.5 194.6,115.7 192,122.5 	"/>
	<path fill="#D89F79" d="M227.6,156.1l-13-1.7c0,0,3.7-14.7-4.2-19.8l-2.3,28.2l19.4,2.8V156.1z"/>
	<path fill="#776F62" d="M224.6,88.3c0,0,5.3,1.1,8.9,9.5s35.3,68.4,16.8,72.6c-18.4,4.2-30.5-1.6-30.5-1.6l1.6-18.9
		c0,0,17.4,3.2,15.8-4.2c-1.6-7.4-6.8-26.8-19.5-34.2L224.6,88.3z"/>
	<path fill="#D89F79" d="M154.6,154.5l12.9-1.7c0,0-3.7-14.7,4.1-19.8l2.3,28.2l-19.3,2.8V154.5z"/>
	<path fill="#776F62" d="M157.4,86.7c0,0-5.3,1.1-8.9,9.5s-35.3,68.4-16.8,72.6c18.4,4.2,30.5-1.6,30.5-1.6l-1.6-18.9
		c0,0-17.4,3.2-15.8-4.2c1.6-7.4,6.8-26.8,19.5-34.2L157.4,86.7z"/>
	<path fill="#F6F5FA" d="M204.1,89.9l-10.5,18.4l-13.2-17.4C180.4,90.9,194.6,87.2,204.1,89.9z"/>
	<path fill="#F6F5FA" d="M179.6,75.1v14.2c0,0,6.5,4.2,13.8,2.1c0,0,3.1-14.7-3.8-15.8S179.6,75.1,179.6,75.1z"/>
	<path fill="#F6F5FA" d="M193.7,91.8c0,0-1.1-17.1,9.9-16.1v13.6C203.6,89.4,199,93.7,193.7,91.8z"/>
	<path fill="#494238" d="M194.9,109.9l-0.4,15.3l-17.3-22.6l3.2-4.7l-12.3-12.1l13.5-2.6v9.5C181.6,92.5,188.9,102,194.9,109.9z"/>
	<path fill="#494238" d="M203,84.1l1.1,7.9l-12.6,19.5l0.5,11.1l16.8-18.9l-5.3-6.8l12.1-10.5C215.7,86.2,208.3,84.6,203,84.1z"/>
	<path fill="#706547" d="M168.4,35.7c0,0,4.7,3.7,13.2,4.2c8.4,0.5,17.9,0.5,24.2,0.5c6.3,0,14.7-4.2,11.6-6.8s-8.4,2.1-12.6,1.6
		s-23.2-0.5-29-2.1C170,31.5,164.8,31.5,168.4,35.7z"/>
	<path fill="#706547" d="M175.8,36.2c0,0-3.2-17.9,11.1-19.5c14.2-1.6,24.7,0.5,23.2,21.6C210,38.3,184.2,40.4,175.8,36.2z"/>
	<polygon fill="#3E3D38" points="196.9,60.4 193.7,67.2 210.6,66.2 207.9,59.9 	"/>
	<circle fill="#7F8E8E" cx="194.8" cy="92.5" r="4.3"/>
	<path fill="#7F8E8E" d="M195,92.3l-12.7-7.8c0,0-3.2,9.4,1,16.7L195,92.3z"/>
	<path fill="#7F8E8E" d="M193.8,92.3l12.7-7.8c0,0,3.2,9.4-1,16.7L193.8,92.3z"/>
</g>
<g>
	<path fill="#331A0A" d="M459.3,328.5h6.1c0,0,2.4,7.7-5.5,8.1h-10.3c0,0-2.3-4.8,3.8-5.2C453.5,331.4,458.8,330.5,459.3,328.5z"/>
	<path fill="#331A0A" d="M500.4,328.5h-6.1c0,0-2.4,7.7,5.5,8.1h10.3c0,0,2.3-4.8-3.8-5.2C506.3,331.4,501,330.5,500.4,328.5z"/>
	<polygon fill="#D89F79" points="461,197.9 458.6,329.4 465.8,329 478.5,221 494.3,328.6 500.2,328.4 498,195.2 	"/>
	<path fill="#0071BC" d="M458,177.8c0,0-16.8,45.8-18.9,83.7s-10.5,42.6-10.5,42.6s14.2,14.7,31.6,5.3c0,0,16.3,13.7,39.5,0.5
		c0,0,11.1,11.6,35.3-3.7c0,0-18.9-20.5-16.8-47.4s-20.5-81.1-20.5-81.1v0C484.9,172,470.5,172,458,177.8L458,177.8z"/>
	<path fill="#D89F79" d="M512.1,128.3c0,0,26.3,18.4,24.7,35.3c0,0-18.9-9.5-31.1-26.8C493.7,119.4,512.1,128.3,512.1,128.3z"/>
	<path fill="#D89F79" d="M443.2,128.3c0,0-26.3,18.4-24.7,35.3c0,0,18.9-9.5,31.1-26.8S443.2,128.3,443.2,128.3z"/>
	<path fill="#D89F79" d="M470.6,110.7l-16.1,9.5c0,0,6.1,12.1,16.3,20.5c0,0,17.6-8.9,27.4-22.1l-16.8-8.4L470.6,110.7z"/>
	<path fill="#D89F79" d="M457.6,67.8v26.4c0,3,2.4,5.4,5.4,5.4h6.3v11.7c0,0-0.2,12,14.7,0V86.9c0,0,4.5-0.9,4.5-6.1
		c0-5.2-5.2-2.7-5.2-2.7V67.8H457.6z"/>
	<path fill="#FFFFFF" d="M484.1,110.1c0,0,1.3-0.8,1.3,0.9c0,1.7-10.8,12-15.9,5.5c-1.6-2.4-0.2-5.3-0.2-5.3s-0.9,4.1,1.9,5.6
		C474,118.3,479.8,116.2,484.1,110.1z"/>
	<path fill="#FFFFFF" d="M485.1,111c0,0,1.5-0.9,1.5,1.1s-12.6,14-18.6,6.4c-1.8-2.8-0.2-6.2-0.2-6.2s-1,4.8,2.2,6.5
		C473.3,120.5,480,118.1,485.1,111z"/>
	<path fill="#5B3A1B" d="M457.6,67.8c0,0,1.8,6.4,10.8,3.2c0,0,4.1,3.8,10.7,0.8c0,0-1.4,7.4,2.2,10.3c0,0-0.4-3.9,3.9-4.3
		c4.3-0.4,3.6,5.4,1.6,7.5s-2.9,1.8-2.9,1.8l-0.1,14.9c0,0,5.8,3,7.5-2.5c0,0,6.2-0.3,5.8-5.7c0,0,5-2.8,2.2-7.1
		c-2.8-4.3-6.2-5.1-6.2-5.1s5.4-28.6-16.8-27.4C454.1,55.3,457.6,67.8,457.6,67.8z"/>
	<ellipse fill="#FFFFFF" cx="484.1" cy="87.1" rx="1" ry="1.1"/>
	<path fill="#5B3A1B" d="M457.6,79.7c0,0-5.9,0.1-3.8,5.9c0,0-5.1,3.8,0.4,7.8c0,0-0.3,7,6.2,5.4c0,0-2.6-1.1-2.8-5.8
		C457.4,88.3,457.6,79.7,457.6,79.7z"/>
	<path fill="#5B3A1B" d="M459.1,99c0,0,0.4,5.5,6.8,3.9c0,0,1.6,1.3,3.4,1.2l0-4.5c0,0-8.3-0.1-9.6-1S459.1,99,459.1,99z"/>
	<path fill="#0064BC" d="M498.2,118.6l18.7,12.9c0,0-17.9,17.9-22.6,29c0,0-12.6-1.1-23.4-19.7C470.8,140.7,490.6,130.4,498.2,118.6
		z"/>
	<path fill="#0071BC" d="M454.5,120.1c0,0,26.1,37.1,39.7,40.3l-34.7-1.1l-21.1-28.4L454.5,120.1z"/>
	<path fill="#0064BC" d="M459.8,159.1c0,0-2.8,3.7-1.2,10c1.6,6.3-0.7,8.9-0.7,8.9h39.5l-3.2-17.5L459.8,159.1z"/>
	<path fill="#3B3E3D" d="M418.5,163.6c0,0,14.2,8.4,39,2.6c0,0,0,0.1,0.1,0.2c1.9,2.3,5.7,1.4,6.4-1.5l5.1-21.3l-2.1-0.5
		c0,0-4.2,7.9-8.9,16.8l-30.5-7.4C427.4,152.5,418.1,151.7,418.5,163.6z"/>
	<path fill="#3B3E3D" d="M536.8,163.6c0,0-14.2,8.4-39,2.6c0,0,0,0.1-0.1,0.2c-1.9,2.3-5.7,1.4-6.4-1.5l-5.1-21.3l2.1-0.5
		c0,0,4.2,7.9,8.9,16.8l30.5-7.4C527.9,152.5,536.5,150.5,536.8,163.6z"/>
</g>
<g>
	<path fill="#331A0A" d="M77.5,328.5h-6.1c0,0-2.4,7.7,5.5,8.1h10.3c0,0,2.3-4.8-3.8-5.2C83.4,331.4,78.1,330.5,77.5,328.5z"/>
	<path fill="#331A0A" d="M36.4,328.5h6.1c0,0,2.4,7.7-5.5,8.1H26.7c0,0-2.3-4.8,3.8-5.2C30.6,331.4,35.9,330.5,36.4,328.5z"/>
	<polygon fill="#D89F79" points="75.8,197.9 78.3,329.4 71,329 58.4,221 42.6,328.6 36.6,328.4 38.9,195.2 	"/>
	<path fill="#EE334E" d="M78.9,177.8c0,0,16.8,45.8,18.9,83.7s10.5,42.6,10.5,42.6s-14.2,14.7-31.6,5.3c0,0-16.3,13.7-39.5,0.5
		c0,0-11.1,11.6-35.3-3.7c0,0,18.9-20.5,16.8-47.4s20.5-81.1,20.5-81.1l0,0C51.9,172,66.4,172,78.9,177.8L78.9,177.8z"/>
	<path fill="#D89F79" d="M24.7,128.3c0,0-26.3,18.4-24.7,35.3c0,0,18.9-9.5,31.1-26.8S24.7,128.3,24.7,128.3z"/>
	<path fill="#D89F79" d="M93.6,128.3c0,0,26.3,18.4,24.7,35.3c0,0-18.9-9.5-31.1-26.8S93.6,128.3,93.6,128.3z"/>
	<path fill="#D89F79" d="M66.3,110.7l16.1,9.5c0,0-6.1,12.1-16.3,20.5c0,0-17.6-8.9-27.4-22.1l16.8-8.4L66.3,110.7z"/>
	<path fill="#D89F79" d="M79.2,67.8v26.4c0,3-2.4,5.4-5.4,5.4h-6.3v11.7c0,0,0.2,12-14.7,0V86.9c0,0-4.5-0.9-4.5-6.1
		c0-5.2,5.2-2.7,5.2-2.7V67.8H79.2z"/>
	<path fill="#FBB03B" d="M52.7,110.1c0,0-1.3-0.8-1.3,0.9c0,1.7,10.8,12,15.9,5.5c1.6-2.4,0.2-5.3,0.2-5.3s0.9,4.1-1.9,5.6
		C62.8,118.3,57,116.2,52.7,110.1z"/>
	<path fill="#FBB03B" d="M51.7,111c0,0-1.5-0.9-1.5,1.1s12.6,14,18.6,6.4c1.8-2.8,0.2-6.2,0.2-6.2s1,4.8-2.2,6.5
		C63.5,120.5,56.8,118.1,51.7,111z"/>
	<path fill="#C1272D" d="M38.6,118.6l-18.7,12.9c0,0,17.9,17.9,22.6,29c0,0,12.6-1.1,23.4-19.7C66,140.7,46.3,130.4,38.6,118.6z"/>
	<path fill="#EE334E" d="M82.3,120.1c0,0-26.1,37.1-39.7,40.3l34.7-1.1l21.1-28.4L82.3,120.1z"/>
	<path fill="#C1272D" d="M77,159.1c0,0,2.8,3.7,1.2,10s0.7,8.9,0.7,8.9H39.4l3.2-17.5L77,159.1z"/>
	<path fill="#FFFFFF" d="M118.4,163.6c0,0-14.2,8.4-39,2.6c0,0,0,0.1-0.1,0.2c-1.9,2.3-5.7,1.4-6.4-1.5l-5.1-21.3l2.1-0.5
		c0,0,4.2,7.9,8.9,16.8l30.5-7.4C109.4,152.5,118.8,151.7,118.4,163.6z"/>
	<path fill="#FFFFFF" d="M0,163.6c0,0,14.2,8.4,39,2.6c0,0,0,0.1,0.1,0.2c1.9,2.3,5.7,1.4,6.4-1.5l5.1-21.3l-2.1-0.5
		c0,0-4.2,7.9-8.9,16.8l-30.5-7.4C8.9,152.5,0.3,150.5,0,163.6z"/>
	<path fill="#5B3A1B" d="M79.2,88.7c0,0,5-2.6,2.6-8.7c0,0,5.8-4.2,1.3-10c0,0,6.3-5.7-0.5-10c0,0,3.7-11.8-6.4-15
		c-10.1-3.2-22,3.4-23.6,13.2c0,0-10.4,0.5-8.4,15.1c0,0-5.4,4.3-1.1,10.4c0,0-3.6,7.2,3.8,9.1c0,0-2.4,6.4,5.9,7.6l-0.1-13.4
		c0,0-4.8-1-4.3-7c0.3-3.6,5.1-1.9,5.1-1.9S58.6,74,57,67.8c0,0,9.1,3,12-0.3c0,0,6.8,3.7,10.3,0.3L79.2,88.7z"/>
	<ellipse fill="#FFFFFF" cx="52.8" cy="87.1" rx="1" ry="1.1"/>
</g>
<g>
	<path fill="#3B3E3D" d="M378.5,87c-11.9-2.8-35.1-6.1-66,0.2c-4.6,0.9-7.2,5.9-5.2,10.3c5.1,11.1,11.6,37.5,10.4,99.7
		c-0.1,4.1,3.2,7.5,7.3,7.5c14.6,0,45.2,1.4,45.2,0.5c0.6-66.8,8.5-96.3,13.4-108.2C385.4,92.8,382.9,88.1,378.5,87z"/>
	<path fill="#331A0A" d="M370.4,327.6h-6.7c0,0-2.6,8.5,6.1,9h11.4c0,0,2.5-5.4-4.2-5.7C376.9,330.8,371,329.8,370.4,327.6z"/>
	<path fill="#331A0A" d="M323.4,327.6h6.7c0,0,2.6,8.5-6.1,9h-11.4c0,0-2.5-5.4,4.2-5.7C316.9,330.8,322.7,329.8,323.4,327.6z"/>
	<polygon fill="#5C676A" points="368.5,182.9 371.2,328.6 361,328.6 342.3,207.7 334,327.6 321.4,327.6 318.8,182.2 	"/>
	<path fill="#D89F79" d="M327.3,36.2v33.5c0,3.3,2.7,6,6,6l0,0v13c0,0,6.7,13.2,23.2,0v-27c0,0,5-1,5-6.7s-5.7-3-5.7-3V36.2H327.3z"
		/>
	<path fill="#5B3A1B" d="M355.8,52l-0.7,2.1H353l-3.5-19.4l9.7,1.6v15.1C359.3,51.4,356.6,51.5,355.8,52z"/>
	<path fill="#090C0F" d="M315.3,38.8c0,0,29.2,6.8,55.8-0.5C371.1,38.3,342.5,26.2,315.3,38.8z"/>
	<path fill="#090C0F" d="M359.6,37.2V7.8c0,0-15.6-8.4-32.9-0.5l0.4,31.1C327.1,38.3,361.6,38.8,359.6,37.2z"/>
	<path fill="#5B3A1B" d="M335,60.7c0,0-3.2-5-6.6-0.5c-3.4,4.5-7.1,0.5-7.1,0.5S329,70.4,335,60.7z"/>
	<path fill="#5B3A1B" d="M334,60.7c0,0,3.2-5,6.6-0.5c3.4,4.5,7.1,0.5,7.1,0.5S340,70.4,334,60.7z"/>
	<path fill="#3B3E3D" d="M343.2,182.5c0,0-8.9,29-27.4,41.6l3.7-46.3L343.2,182.5z"/>
	<path fill="#3B3E3D" d="M343.7,181.5c0,0,11.1,30,29.5,42.6l-3.7-46.3L343.7,181.5z"/>
	<polygon fill="#211C26" points="343.7,181.5 342.1,115.7 344.8,122.5 	"/>
	<path fill="#D89F79" d="M309.6,156.1l12.8-1.7c0,0-3.8-14.7,4.1-19.8l2.4,28.2l-19.3,2.8V156.1z"/>
	<path fill="#3B3E3D" d="M312.1,88.3c0,0-5.3,1.1-8.9,9.5c-3.7,8.4-35.3,68.4-16.8,72.6c18.4,4.2,30.5-1.6,30.5-1.6l-1.6-18.9
		c0,0-17.4,3.2-15.8-4.2c1.6-7.4,6.8-26.8,19.5-34.2L312.1,88.3z"/>
	<path fill="#D89F79" d="M381.6,154.5l-12.6-1.7c0,0,3.9-14.7-4-19.8l-2.5,28.2l19.1,2.8V154.5z"/>
	<path fill="#3B3E3D" d="M379.4,86.7c0,0,5.3,1.1,8.9,9.5c3.7,8.4,35.3,68.4,16.8,72.6c-18.4,4.2-30.5-1.6-30.5-1.6l1.6-18.9
		c0,0,17.4,3.2,15.8-4.2c-1.6-7.4-6.8-26.8-19.5-34.2L379.4,86.7z"/>
	<path fill="#F6F5FA" d="M332.7,89.9l10.5,18.4l13.2-17.4C356.4,90.9,342.1,87.2,332.7,89.9z"/>
	<path fill="#F6F5FA" d="M357.6,75.1v14.2c0,0-6.7,4.2-14,2.1c0,0-3-14.7,3.9-15.8C354.2,74.6,357.6,75.1,357.6,75.1z"/>
	<path fill="#F6F5FA" d="M342.5,91.8c0,0,1.1-17.1-9.9-16.1v13.6C332.6,89.4,337.2,93.7,342.5,91.8z"/>
	<path fill="#7F8E8E" d="M356.9,86.2l-0.5,4.7c0,0-8.9,5.8-23.7-1.1l0.5-3.7C333.2,86.2,344.8,94.1,356.9,86.2z"/>
	<path fill="#7F8E8E" d="M340,90.9c0,0,0.5,6.3,3.7,6.3s4.2-5.8,4.2-5.8"/>
	<polygon fill="#7F8E8E" points="342.1,94.6 338.5,100.9 343.2,108.3 349,100.9 344.3,93.6 	"/>
	<path fill="#211C26" d="M343.8,109.9l0.2,15.3l17.2-22.6l-3.2-4.7l12.7-12.1L357.6,83v9.5C357.6,92.5,349.9,102,343.8,109.9z"/>
	<path fill="#211C26" d="M333.7,84.1l-1.1,7.9l12.6,19.5l-0.5,11.1l-16.8-18.9l5.3-6.8l-12.1-10.5C321.1,86.2,328.5,84.6,333.7,84.1
		z"/>
</g>
<g>
	<polygon fill="#2E3157" points="652.3,87.7 679,114.9 701.6,110.1 701.6,122.5 676.3,129.4 647.6,108.3 	"/>
	<path fill="#D89F79" d="M561.9,196.5c0,0-3.4,13.7,5,15s9.2-3.2,6.8-5c-2.4-1.8,1.3-1.3,2.6-1.1c1.3,0.3,2.6-5.5-2.1-9.2
		C569.5,192.5,561.9,196.5,561.9,196.5z"/>
	<path fill="#2E3157" d="M650.1,87c-11.9-2.8-35.1-6.1-66,0.2c-4.6,0.9-7.2,5.9-5.2,10.3c5.1,11.1,11.6,37.5,10.4,99.7
		c-0.1,4.1,3.2,7.5,7.3,7.5c14.6,0,45.2,1.4,45.2,0.5c0.6-66.8,8.5-96.3,13.4-108.2C657,92.8,654.5,88.1,650.1,87z"/>
	<path fill="#331A0A" d="M642,327.6h-6.7c0,0-2.6,8.5,6.1,9h11.4c0,0,2.5-5.4-4.2-5.7C648.5,330.8,642.6,329.8,642,327.6z"/>
	<path fill="#331A0A" d="M595,327.6h6.7c0,0,2.6,8.5-6.1,9h-11.4c0,0-2.5-5.4,4.2-5.7C588.5,330.8,594.4,329.8,595,327.6z"/>
	<polygon fill="#5C676A" points="640.1,182.9 642.9,328.6 632.6,328.6 613.9,207.7 605.6,327.6 593,327.6 590.4,182.2 	"/>
	<path fill="#D89F79" d="M598.9,36.2v33.5c0,3.3,2.7,6,6,6l0,0v13c0,0,6.7,13.2,23.2,0v-27c0,0,5-1,5-6.7s-5.7-3-5.7-3V36.2H598.9z"
		/>
	<path fill="#5B3A1B" d="M627.4,52l-0.7,2.1h-2.1l-3.5-19.4l9.7,1.6v15.1C630.9,51.4,628.2,51.5,627.4,52z"/>
	<path fill="#2E3157" d="M614.8,182.5c0,0-8.9,29-27.4,41.6l3.7-46.3L614.8,182.5z"/>
	<path fill="#2E3157" d="M615.3,181.5c0,0,11.1,30,29.5,42.6l-3.7-46.3L615.3,181.5z"/>
	<polygon fill="#211C26" points="615.3,181.5 613.8,115.7 616.4,122.5 	"/>
	<path fill="#F6F5FA" d="M604.2,91.5l11.4,18.8l13-17.4C628.7,92.9,613.7,88.9,604.2,91.5z"/>
	<path fill="#F6F5FA" d="M628.5,75.1l0.2,17.4c0,0-6.5,1.1-13.9-1.1c0,0-0.1-10.7,5.8-14.7C624.9,73.8,628.5,75.1,628.5,75.1z"/>
	<path fill="#F6F5FA" d="M615.1,91.8c0,0-1.5-15.3-10.5-15.9v15.6C604.6,91.5,609.7,93.7,615.1,91.8z"/>
	<path fill="#0071BC" d="M628.5,86.2l-0.5,4.7c0,0-8.9,5.8-23.7-1.1l0.5-3.7C604.8,86.2,616.4,94.1,628.5,86.2z"/>
	<path fill="#0071BC" d="M611.7,90.9c0,0,0.5,6.3,3.7,6.3c3.2,0,4.2-5.8,4.2-5.8"/>
	<polygon fill="#0071BC" points="613.8,94.6 610.1,100.9 615.9,109.5 621.8,101.8 615.9,93.6 	"/>
	<path fill="#211C26" d="M615.1,109.9l0.4,15.3l17.3-22.6l-3.2-4.7l12.4-12.1L628.5,83l-1.2,10.1C627.3,93.1,621.1,102,615.1,109.9z
		"/>
	<path fill="#211C26" d="M604.4,84.4l0.2,6.9l12.3,20.1l-0.5,11.1l-16.8-18.9l5.3-6.8l-12.1-10.5C592.7,86.2,599.2,84.9,604.4,84.4z
		"/>
	<path fill="#5B3A1B" d="M614.8,61.5c-3.7-0.4-8.2-0.6-11.5-0.7c-2.6-0.1-4.8,2-4.8,4.7v11.3l2.4-1.8l2.6,4.5l4.5-3.7l2.6,4.5
		l3.2-3.4l3.9,3.2l0.8-4.2C618.5,75.7,621.7,62.2,614.8,61.5z M615.9,69.4l-15.3-1.1c0-4.7,5.5-4.5,11.1-3.4
		C617.2,65.9,615.9,69.4,615.9,69.4z"/>
	<path fill="#2E3157" d="M584.2,87.2c0,0-12.5,2.7-13.8,26.4s-8.4,82.9-8.4,82.9l12.6,0.8c0,0,9.5-74.7,13.7-79.5L584.2,87.2z"/>
	<path fill="#5B3A1B" d="M624.8,36.3c-0.2-0.5-10.7,7.1-25.7,3.2c0,0-3.8-5.7,1.4-10.3c5.1-4.5,28.4-3.6,30.4,7.1
		C630.9,36.2,625.9,39,624.8,36.3z"/>
	<g>
		<rect x="696.1" y="38.6" fill="#231F20" width="9.7" height="116.2"/>
		<path fill="#231F20" d="M740.5,78.7c0,2.7-2.1,5-4.7,5h-69.6c-2.6,0-4.7-2.2-4.7-5V15.4c0-2.7,2.1-5,4.7-5h69.6
			c2.6,0,4.7,2.2,4.7,5V78.7z"/>
		<path fill="#0071BC" d="M737.7,76.1c0,2.5-2,4.6-4.4,4.6h-64.6c-2.4,0-4.4-2-4.4-4.6V17.6c0-2.5,2-4.6,4.4-4.6h64.6
			c2.4,0,4.4,2,4.4,4.6V76.1z"/>
		<g>
			<g>
				<path fill-rule="evenodd" clip-rule="evenodd" fill="#FFFFFF" d="M685.7,24.6c-1.8,1.8-3,4.1-4.9,5.8c-0.6,0.5-1.2,0.9-1.8,1.5
					C679.4,28.3,681.8,25,685.7,24.6L685.7,24.6z"/>
			</g>
			<g>
				<path fill-rule="evenodd" clip-rule="evenodd" fill="#FFFFFF" d="M716.3,24.6c1.8,1.8,3,4.1,4.9,5.8c0.6,0.5,1.2,0.9,1.8,1.5
					C722.5,28.3,720.2,25,716.3,24.6L716.3,24.6z"/>
			</g>
			<g>
				<path fill-rule="evenodd" clip-rule="evenodd" fill="#FFFFFF" d="M680.7,27c-2.7,1.4-2.2,4.9-3.1,7l0.1,0
					c0.9-2.1,4.3-2.6,5.3-5.1c-0.1,4.5-4.7,5.4-6.6,8.8C676.2,33.8,675.4,28.4,680.7,27L680.7,27z"/>
			</g>
			<g>
				<path fill-rule="evenodd" clip-rule="evenodd" fill="#FFFFFF" d="M721.3,27c2.7,1.4,2.2,4.9,3.1,7l-0.1,0
					c-0.9-2.1-4.3-2.6-5.3-5.1c0.1,4.5,4.7,5.4,6.6,8.8C725.8,33.8,726.6,28.4,721.3,27L721.3,27z"/>
			</g>
			<g>
				<path fill-rule="evenodd" clip-rule="evenodd" fill="#FFFFFF" d="M676,30.9c-1.4,2.6,0.1,5.2-0.4,9.6c0,0,0,0.1,0.1,0.1
					c0.8-3.8,4-4.4,4.8-6.3c-0.6,4.3-4.4,6.5-5,10.4C675.3,42.5,670.8,35.9,676,30.9L676,30.9z"/>
			</g>
			<g>
				<path fill-rule="evenodd" clip-rule="evenodd" fill="#FFFFFF" d="M726,30.9c1.4,2.6-0.1,5.2,0.4,9.6c0,0,0,0.1-0.1,0.1
					c-0.8-3.8-4-4.4-4.8-6.3c0.6,4.3,4.4,6.5,5,10.4C726.7,42.5,731.2,35.9,726,30.9L726,30.9z"/>
			</g>
			<g>
				<path fill-rule="evenodd" clip-rule="evenodd" fill="#FFFFFF" d="M673,38.2c-0.6,2.8,2,6.1,2.7,9.9c0,0,0.1,0,0.1-0.1
					c-0.2-3,0.6-4.4,2.1-6.6c0.4-0.6,0.6-1.3,0.8-1.9c0.7,1,0,3.2-0.7,5.9c-0.5,1.9-1.3,3.6-1.1,6.5c-1-1.2-3.8-4.7-4.1-6
					C672,43.3,671.8,40.7,673,38.2L673,38.2z"/>
			</g>
			<g>
				<path fill-rule="evenodd" clip-rule="evenodd" fill="#FFFFFF" d="M729,38.2c0.6,2.8-2,6.1-2.7,9.9c0,0-0.1,0-0.1-0.1
					c0.2-3-0.6-4.4-2.1-6.6c-0.4-0.6-0.6-1.3-0.8-1.9c-0.7,1,0,3.2,0.7,5.9c0.5,1.9,1.3,3.6,1.1,6.5c1-1.2,3.8-4.7,4.1-6
					C730,43.3,730.2,40.7,729,38.2L729,38.2z"/>
			</g>
			<g>
				<path fill-rule="evenodd" clip-rule="evenodd" fill="#FFFFFF" d="M672.3,46.6c0.4,3.1,4.3,5.5,6,8.4c0,0,0.1,0,0.1-0.1
					c-1.7-3.5,0.2-6,0.2-8.9c2,4.4,0.3,7.6,2.6,12.5C675.4,55.6,671.4,52.1,672.3,46.6L672.3,46.6z"/>
			</g>
			<g>
				<path fill-rule="evenodd" clip-rule="evenodd" fill="#FFFFFF" d="M729.7,46.6c-0.4,3.1-4.3,5.5-6,8.4c0,0-0.1,0-0.1-0.1
					c1.7-3.5-0.2-6-0.2-8.9c-2,4.4-0.3,7.6-2.6,12.5C726.6,55.6,730.6,52.1,729.7,46.6L729.7,46.6z"/>
			</g>
			<g>
				<path fill-rule="evenodd" clip-rule="evenodd" fill="#FFFFFF" d="M674.1,54.4c0.5,1.1,1.7,2.3,3.3,3.2c2.1,1.2,4.1,1.6,6,3.5
					c-1.8-2.2-2.2-4.1-3.1-9.4c1.5,1.5,2.4,3.4,3.2,5.5c0.7,2,1.1,4.3,3.1,6c-1.5-0.6-4.7-0.7-7.3-1.9
					C676.6,60,674.6,57.4,674.1,54.4L674.1,54.4z"/>
			</g>
			<g>
				<path fill-rule="evenodd" clip-rule="evenodd" fill="#FFFFFF" d="M727.9,54.4c-0.5,1.1-1.7,2.3-3.3,3.2c-2.1,1.2-4.1,1.6-6,3.5
					c1.8-2.2,2.2-4.1,3.1-9.4c-1.5,1.5-2.4,3.4-3.2,5.5c-0.7,2-1.1,4.3-3.1,6c1.5-0.6,4.7-0.7,7.3-1.9
					C725.4,60,727.3,57.4,727.9,54.4L727.9,54.4z"/>
			</g>
			<g>
				<path fill-rule="evenodd" clip-rule="evenodd" fill="#FFFFFF" d="M678.3,61.3c3,3.2,8.2,2.1,11,2.8c-3-1.4-3.8-4-5-6.4
					c3,1.2,4.6,5.9,10,6.8c-2.9,0.4-6.3,2.5-10.9,1.3C681,65,679.4,63.6,678.3,61.3L678.3,61.3z"/>
			</g>
			<g>
				<path fill-rule="evenodd" clip-rule="evenodd" fill="#FFFFFF" d="M723.7,61.3c-3,3.2-8.2,2.1-11,2.8c3-1.4,3.8-4,5-6.4
					c-3,1.2-4.6,5.9-10,6.8c2.9,0.4,6.3,2.5,10.9,1.3C720.9,65,722.6,63.6,723.7,61.3L723.7,61.3z"/>
			</g>
			<g>
				<path fill-rule="evenodd" clip-rule="evenodd" fill="#FFFFFF" d="M715.6,68.7c-3,1.2-6.3,0.2-8.6-1.7c-1.1-0.7-3.1-2.1-4.6-1.7
					c2.3,1.1,4.2,2.5,6.2,4.4c-0.3,0.4-0.8,0.8-1.2,1.1c-1.9-2.1-4-3.9-6.3-5.1c-1.9,0.8-5.1,3.4-6.4,5.1l-1.3-1.2
					c2-2,3.9-3.3,6.3-4.4c-2.3-0.5-3.5,0.9-5.2,2c-2,1.4-5.3,2.4-7.8,1.4c-1.3-0.5-2.7-1.3-3.6-2.6c1.9,1.4,5.6,1.1,7.8,0.2
					c3-1.3,6-3,10.1-1.7c3.1-1.1,6.2-0.3,9,1.2c3,1.3,5.7,1.9,8.8,0.2C717.9,67.5,717,68.2,715.6,68.7L715.6,68.7z"/>
			</g>
			<g>
				<path fill="#FFFFFF" d="M700.7,63.1c-11.3,0-20.4-9.2-20.4-20.4s9.2-20.4,20.4-20.4s20.4,9.2,20.4,20.4S711.9,63.1,700.7,63.1z
					 M700.7,23.6c-10.6,0-19.2,8.6-19.2,19.2s8.6,19.2,19.2,19.2s19.2-8.6,19.2-19.2S711.2,23.6,700.7,23.6z M700.7,59.3
					c-9.1,0-16.5-7.4-16.5-16.5s7.4-16.5,16.5-16.5c9.1,0,16.5,7.4,16.5,16.5S709.8,59.3,700.7,59.3z M700.7,27.4
					c-8.4,0-15.3,6.9-15.3,15.3S692.2,58,700.7,58c8.4,0,15.3-6.9,15.3-15.3S709.1,27.4,700.7,27.4z M700.7,55.3
					c-6.9,0-12.5-5.6-12.5-12.5c0-6.9,5.6-12.5,12.5-12.5s12.5,5.6,12.5,12.5C713.2,49.6,707.6,55.3,700.7,55.3z M700.7,31.4
					c-6.2,0-11.3,5.1-11.3,11.3c0,6.2,5.1,11.3,11.3,11.3c6.2,0,11.3-5.1,11.3-11.3C711.9,36.5,706.9,31.4,700.7,31.4z M700.7,51
					c-4.6,0-8.3-3.7-8.3-8.3s3.7-8.3,8.3-8.3c4.6,0,8.3,3.7,8.3,8.3S705.2,51,700.7,51z M700.7,35.7c-3.9,0-7,3.2-7,7s3.2,7,7,7
					s7-3.2,7-7S704.5,35.7,700.7,35.7z"/>
			</g>
			<g>
				<path fill="#FFFFFF" d="M700.7,47.3c-2.4,0-4.4-2-4.4-4.5c0-2.5,2-4.5,4.4-4.5c2.4,0,4.4,2,4.4,4.5
					C705,45.3,703.1,47.3,700.7,47.3z M700.7,39.6c-1.7,0-3.1,1.4-3.1,3.2c0,1.8,1.4,3.2,3.1,3.2c1.7,0,3.1-1.4,3.1-3.2
					C703.7,41.1,702.4,39.6,700.7,39.6z"/>
			</g>
			<g>
				<polygon fill="#FFFFFF" points="701.3,62.4 700,62.4 700,43 686.3,29.2 687.2,28.3 700,41.2 700,23 701.3,23 701.3,42.5 
					715,56.2 714.1,57.1 701.3,44.2 				"/>
			</g>
			<g>
				<rect x="681" y="42.1" fill="#FFFFFF" width="39.4" height="1.3"/>
			</g>
			<g>
				
					<rect x="700" y="23" transform="matrix(0.7071 0.7071 -0.7071 0.7071 235.4215 -482.9277)" fill="#FFFFFF" width="1.3" height="39.4"/>
			</g>
			<g>
				<path fill-rule="evenodd" clip-rule="evenodd" fill="#FFFFFF" d="M684,46.9h-0.2l-0.1-0.1l-0.1,0l-0.2,0l-0.2,0l-0.1,0.1
					l-0.1,0.1l-0.1,0.1v0.1l-0.1,0.1l-0.1,0.1l-0.1,0.1v0.2l0,0.2l0,0.2v0.2l0,0.1l0.1,0.1l0,0.2l0.1,0.2l0.1,0.1l0.1,0.2l0.1,0.1
					l0.1,0.2l0,0.2l0.2,0.1l0.2,0l0.2,0.2l0.1,0.1l0.1,0.1l0.1,0.1l0.2,0h0.2l0-0.1l0.1,0l0.2,0.1l0.1,0.1l0.2,0.1l0.1,0.1l0.1,0.1
					l0.2,0.1l0.1,0l0.2,0.1l0.1,0.1l0.1,0.1l0,0.1l0.1,0.2l0.1,0.1l0.2,0.3l0.1,0.1l0.6,0l0.3,0.5l0.6,0.4l0.9,0.9l0.5,0l0.1,0.1
					l1.3,0l0.2,0.1l0.1,0.1l0.1,0l0.2,0h0.1l0.3,0l0.2-0.1l0.1-0.1l0.1-0.1l0.2,0l0.4,0l0.1-0.1l0.3,0l0.4,0l0.2-0.2l0-0.4l-0.3-0.6
					L693,52l-0.2-0.3l-0.2-0.3l-0.2-0.3l-0.3-0.3l-0.2-0.2l0-0.3l0.2-0.1l0.1-0.2l0-0.2v-0.2l0-0.2l-0.1-0.1l-0.1-0.3l-0.1-0.1
					l-0.1-0.1l-0.1-0.1l0-0.8l-0.1-0.1l0.1-0.6l-0.1-0.1l0-0.3l-0.1-0.1l0-0.6l-0.1-0.1v-0.2l-0.7-0.8l0-0.6l-0.1-0.1l0-0.2l0.1-0.1
					l0.1-0.1l0.2-0.1l0.3-0.3l0-0.4h0.5l0.2-0.1l0-0.2l-0.1-0.3l-0.1-0.2l0-0.2l-0.1-0.1l0-0.2l0.1-0.1l0.1,0l0.1-0.1l0.5,0l0.1,0.1
					l0.1,0.1l0,0.2l0,0.4l-0.1,0.1l0,0.6l0.1,0.2l-0.1,0.1l-0.2,0.2h-0.3l-0.1-0.1l-0.1,0l-0.1-0.1l-0.3,0l0,0.3l0.1,0.1l0,0.4
					l-0.2,0l-0.1,0.1l-0.2,0.1l0,0.2l0.2,0.2l0.1,0.2l0.1,0.1l0.1,0l0-0.1l0.1,0l0-0.1l0-0.4l0.1-0.1l0.1-0.1l0.1,0l0-0.1l0.3,0
					l0,0.1l0.3,0l0.1,0h0.2l0.2,0l0.2,0l0,0.1l0.4,0l0.1,0.1l0.3,0l0.3,0.4l0.4,0l0.5,0.8l0.2,0l0.1-0.3l0.1,0l0,0.1l0.1,0.1l0,0.7
					l0.1,0l0.6-0.5l0-0.5l0.1,0l0-0.1h0.2l0.2,0.2l0.3,0l0.3,0l0.3,0l0.3,0l0.2,0l0.4-0.1l0.2,0l0-0.1l0.5,0l0.3-0.2l0-0.2l0-0.2
					l0.2-0.3l0.1-0.2l0.1-0.1l0-0.2l0.1-0.1l0-0.1l-0.1-0.1v-0.3l-0.2-0.1l0-0.1h-1.1l-0.2,0.2l0,0.5l-0.2,0.2l-0.2,0l-0.1,0.2
					l-0.1,0.1l0,0.1l-0.3,0l0-0.1l-0.1,0l0-0.1l0.3,0l0-0.1l0.1,0l0-0.1l0-0.1l0-0.2l0.1-0.1l0-0.2l0.1-0.1l0.1-0.1l0-0.2l-0.1,0V43
					l0-0.2l-0.4-0.1l-0.1-0.2l-0.1-0.1l0-0.2l0.1,0l0-0.4l0.1-0.2l0.1-0.1l0.1-0.1l0.1-0.1l0.2-0.1l0.1-0.1l0.1-0.1l0.2-0.1l0.2-0.1
					l0.1-0.1l0.2,0l0.2-0.1l0.2-0.1l0.1-0.1l0.2-0.1l0-0.1l0-0.1v-0.1l0-0.1l-0.1-0.1l0-0.5l0.1,0l0.1-0.1l0.3,0l0,0.2l-0.1,0
					l-0.1,0l-0.1,0l-0.1,0.1l0,0.1v0.1l0.1,0.1l0.1,0.1l0.1,0.1l0.1,0.1l0.2,0.1l0.2,0.1l0.1,0.1l0.2,0l0.2,0l0.2,0.1l0.2,0.2
					l0.2,0.2l0.1,0.1l0.1,0.1l0.2,0l0,0.2v0.2v0.1l0.1,0l0,0.2l-0.1,0.1l-0.1,0.1l-0.1,0.1l-0.1,0.1l0,0.1l0,0.1l0.1,0.1l0.1,0.1
					l0.1,0.1l0.1,0.1l0,0.1L703,43l0,0.2v0.1l0,0.1l0,0.2l0.1,0.1l0.1,0.1v0.2l0,0.2l-0.1,0.1l-0.1,0.1l0,0.1l-0.1,0.1l-0.2,0h-0.2
					l-0.2,0l-0.2,0l-0.2,0.1l-0.1,0l-0.1,0.1l-0.1,0.1l0,0.2l-0.1,0.1l-0.1,0.1l0,0.2l-0.1,0.1l-0.2,0.2l-0.1,0.1l-0.1,0.1l-0.1,0.1
					l-0.1,0.1l-0.1,0.1l-0.1,0.1l-0.1,0.1l-0.1,0.2l0,0.1l-0.1,0.1l0,0.2l0,0.1v0.2l-0.1,0.1l0,0.2l0,0.1l0,0.1l0,0.2l0.1,0.1
					l0.1,0.1v0.1l0,0.1h-0.1l-0.1,0l-0.1,0l-0.1,0l-0.1,0.1l-0.1,0l0,0.1l-0.1,0.1l0,0.1l0,0l0,0.1l0.1,0l0.1,0l0,0.1
					c0,0-0.1,0-0.1,0c0,0-0.1,0-0.1,0l0,0.1l0,0.1l0,0.1l0,0.1l-0.1,0l0,0.1l-0.1,0l-0.2,0l-0.1,0.1l0,0.1l0,0.1l-0.1,0.1l0,0.1
					l-0.1,0.1l-0.1,0.1v0.2l-0.1,0.1l-0.1,0.1l-0.2,0l-0.1,0.1l-0.1,0.1l-0.1,0.1l-0.1,0.1v0.1l-0.1,0.1l-0.1,0.1l0,0.1l-0.1,0.1
					l-0.1,0.1l-0.1,0.1l0,0.2v0.2l0.1,0.1l0.2,0.2l0.1,0.1l0,0.2l0.1,0.1l0.1,0.2l0.1,0.1l0.1,0.1l0.1,0.1l0.1,0l0.1,0.1l0.2,0
					l0.2,0.1l0.2,0.1l0.2,0l0.1,0.1l0.1,0.1l0.2,0.1l0.1,0.2l0.1,0l0.2,0.1l0.2,0.1l0.2,0.1l0.1,0.1l0.1,0.1l0.2,0.1l0.1,0.1
					l0.1,0.1l0.1,0.1l0.2,0.1l1.1,0.1l0,0.1l0,0.2l-0.1,0.1l-0.1,0.1l-0.1,0.2l0,0.2l0.1,0.1l0,0.1l0,0.1l0.1,0.2l0.1,0l0.1,0.1
					l0.1,0.2l0.2,0l0.1,0.1l0.2,0.1l0.1,0.1l0.2,0.1l0.1,0.2l0.1,0.2l0.2,0.1l0.1,0.1l0.1,0.1l0.1,0.1l0.1,0.1l0.1,0.1l0.1,0.1
					l0.2,0.1l0.1,0.1l0.2,0l0.1,0.1l0.1,0.1l0.1,0.1l0.1,0.1l0.2,0.1l0.1,0.1l0.2,0.1l0.1,0l0.1,0l0.2-0.1l0.1-0.1l0.1-0.1l0.2-0.1
					l0.2-0.1l0.2-0.1l0.2-0.2l0.2-0.1l0.2-0.2l0.2-0.2l0.2-0.2l0.2-0.2l0.1-0.2l0.1-0.2l0.2-0.2l0.1-0.2l0.1-0.2l0.1-0.2l0.1-0.2
					l0-0.2l0-0.2l0.1-0.2l0.1-0.2l0.1-0.2l0-0.2l0-0.2l0-0.1V55v-0.1l-0.1-0.1l-0.1-0.1v-0.2l0.1-0.1l0.1-0.2l0.1-0.1l0-0.1l0.1-0.1
					l0-0.1l0.1-0.1l0.1-0.1l0.1-0.1l0-0.1l-0.1-0.1l-0.1-0.1l-0.1-0.1l-0.1-0.1l-0.1-0.1l-0.1-0.1l-0.1-0.1l-0.1,0l-0.1-0.1
					l-0.1-0.1l-0.1,0l-0.1-0.1l0-0.1l0-0.2l0.1-0.1l0.1-0.1l0-0.1l0.1-0.1l0.1-0.1l0.1,0l0.1,0.1l0.1,0.1l0.1,0.1l0,0.1l0.1,0.1
					l0.1,0l0,0.1l0.1,0.1c0.1,0.1,0.1,0.2,0.1,0.2l0.1,0.1l0.1,0l0.1,0.2l0.1,0.1l0.1,0.2l0.1,0.1l0,0.1l0.1,0.1l0.1,0.1l0.1,0.1
					l0.1,0l0.2,0l0.1,0l0.1,0l0.2,0l0.2,0l0.2,0l0-0.1l0.2,0v-0.1l0-0.2l0-0.2v-0.2l-0.1-0.1l0-0.2l-0.1-0.1l0-0.2l0-0.2v-0.2
					l-0.1-0.1v-0.2l-0.1-0.1l-0.1-0.1l-0.1-0.1l-0.1,0l-0.1-0.1h-0.1l-0.2,0l0,0.1l0,0.1l0,0.1l0,0.1l-0.1,0l-0.1,0v-0.1l0-0.1
					l-0.1,0l-0.1-0.1l0-0.1l-0.1,0l-0.1-0.1l-0.1-0.1l-0.1-0.1l-0.1-0.1l-0.1-0.1l-0.1,0l-0.1-0.1l-0.1-0.1l0-0.2l-0.1-0.1l-0.1,0
					l0-0.1l0-0.1l-0.1-0.1l0-0.1l-0.1,0h-0.1l-0.1-0.1l0-0.1l0-0.1l-0.1-0.1l0-0.1l0-0.1l-0.1,0l-0.1,0l-0.1,0l0,0.1l0,0.1l-0.1,0.1
					l0,0.1l-0.1,0.1l0,0.1l0,0.1l0,0.1v0.1l0,0.1l-0.1,0.1l-0.1,0.1l-0.2,0.1h-0.2l-0.3,0l-0.2-0.1l-0.3,0l-0.2,0l-0.3,0l-0.1-0.1
					h-0.2l-0.2-0.1h-0.2L706,50l-0.2,0l-0.2,0l-0.1,0l0-0.2l-0.2-0.1l0-0.1l0.2,0l0.1,0l0.2,0h0.2l0.2,0l0.2,0l0.2,0l0.1,0.2l0.2,0
					l0.2,0l0.2,0l0.2,0l0.2,0l0.1,0.1l0.2,0h0.2l0.2,0l0.1-0.1l0-0.1l0.1-0.2v-0.2l0.1-0.2l0.1-0.2l0.1-0.2l0-0.1l0.1-0.2l0-0.1
					l0.1-0.1l0-0.1l0-0.1l0-0.2l0-0.1l0-0.2l0-0.2l-0.1-0.1l-0.1-0.2c-0.1,0-0.2,0-0.2,0v-0.1l0-0.1l0.1,0l0-0.1l0.1-0.1l0-0.1
					l0.1-0.1l0-0.1l0-0.1l0.1-0.1l0.1-0.1l0-0.1h0.1l0,0.1l0.1,0.1l0,0.1l0.1,0l0.1,0l0.1,0h0.1l0-0.1l0-0.1l0-0.1l0-0.1l0-0.1
					l0.2,0l0.1,0l0.1,0.1h0.1l0.1,0l0.1,0h0.1l0.1,0l0.2,0l0.2,0l0.2,0l0.1-0.1c0-0.1,0.1-0.1,0.1-0.1l0.1,0l0,0.1l0.1,0l0.1,0
					l0.1,0l0.1,0l0.1,0l0.1,0h0.1l0.1,0l0.1,0l0.1,0l0,0.1l0.1,0l0.1,0l0.1,0l0.1,0l0-0.1l0-0.1c0,0,0-0.1,0-0.1c0,0,0-0.1,0-0.1
					l0-0.1l0.1-0.1c0,0,0,0,0.1,0c0,0,0.1,0,0.1,0c0,0,0.1,0,0.1,0l0.1,0l0-0.1l0.1,0l0.1,0v-0.1l0.1-0.1l0-0.1l0-0.1l-0.1-0.1
					l-0.1-0.1l-0.1-0.1l0-0.1l-0.1-0.1l-0.1-0.1l0.1-0.2l0-0.1l0-0.1c0.1,0,0.1-0.2,0.1-0.2l-0.1-0.2l0-0.1l0.1-0.1l-0.1-0.1l0-2.1
					l-0.1-0.1l0-0.1l0-0.2l0-0.2v-0.2l-0.1-0.1l0-0.7l0.1-0.1l0-0.2l-0.1-0.1l0-0.1l-0.2,0v0.1c-0.1,0-0.1,0.2-0.1,0.2l-0.1,0.1
					l-0.1,0.1l0,0.2l0,0.1l-0.2,0v0.3l0,0.1l-0.1,0.1l0,0.1l-0.1,0.1l-0.1,0.1l0,0.4l0,0.3l0.1,0.1l0,0.6c0,0,0,0.2,0,0.3
					s0.1,0.3,0.1,0.3l-0.1,0.3l0,0.8l-0.1,0.1l-0.1,0.2l0,0.2l0,0.2l-0.1,0l0,0.3l-0.1,0.1l-0.1,0l0-0.1l0-0.1l0-0.1l0-0.2l-0.1-0.1
					l-0.1-0.1c0,0-0.1-0.1-0.1-0.1c0,0-0.1-0.1-0.1-0.1l-0.1-0.1l-0.1-0.1c0,0-0.1,0-0.1-0.1c0,0-0.1-0.1-0.1-0.1v-0.1l0-0.2
					l-0.1-0.1l-0.1-0.1l-0.1-0.1l0.1,0l0.1,0l0.1,0l0.1,0l0.1,0l0.1,0l0.2,0l0.1-0.1l0-0.1l0.1-0.1l0.1-0.1l0-0.1l0-0.1v-0.1l0-0.1
					l0-0.1l0-0.1l0-0.1l0-0.2l-0.1,0l-0.1,0l-0.1,0l0-0.1l-0.1,0l0-0.1l-0.1,0v-0.1l0-0.1l0-0.1l0.1,0l0-0.1l0-0.1l0.1,0l0-0.1h0.1
					l0.1,0l0.1,0.1l0.1-0.1l0-0.1l0.1,0l0-0.1l0.1-0.1l0.1-0.2l0.1-0.2l0.1-0.2l0-0.1l0,0l0,0l0-0.1l0-0.1l0-0.1l0-0.2l0.1,0l0-0.1
					l0.1,0l0-0.1l0-0.2l0-0.2l0-0.1l-0.1-0.1l0-0.2l0-0.3l0-0.2l0.1,0l0-0.1l0-0.2l0-0.1l0-0.1l-0.1-0.1l0-0.2l0-0.2l-0.1-0.1
					l-0.1-0.1l-0.1,0l-0.1,0l-0.1-0.1l-0.1,0l0-0.1l0-0.1l0.1,0l0.1-0.1l0-0.1l0-0.1v-0.1l0-0.1l-0.1,0l-0.1-0.1l-0.1-0.1l0-0.1
					l0-0.1v-0.3l-0.1,0l0-0.1l-0.1,0l-0.1,0l-0.1,0l-0.1,0l-0.1,0l-0.1,0.1l-0.1,0l-0.1,0l0-0.1l0-0.1l0-0.1l-0.1,0l0-0.1l0-0.1
					l-0.1,0l-0.1-0.1l-0.1,0l-0.2-0.2l-0.2-0.2l-0.1-0.3L710,34l-0.1-0.1l-0.1-0.2l-0.2-0.2l-0.1-0.1l-0.1-0.3l-0.1-0.1l0-0.2
					l-0.1-0.1l0-0.1l0-0.1l-0.1-0.1l0-0.1l-0.1-0.1l-0.1,0l0,0l0,0l0,0l-0.1,0h-0.1l0,0l-0.1-0.1l-0.1,0l-0.1,0l0-0.1l0,0l-0.1-0.1
					l-0.1-0.1l0-0.1l-0.1-0.1l-0.1-0.1l-0.1-0.1l-0.1-0.1l-0.1-0.1l-0.1,0l0-0.1h-0.2l-0.1,0l0,0.1l0.1,0.1l-0.1,0.1l0.1,0.1l0,0.1
					l0.1,0.1l0.1,0.1l0,0.1l0,0.2l0,0.1l0,0.1l0,0.1l0.1,0.1l0,0.1l0.1,0.1l0.1,0.1l0,0.1l0,0.1l0.1,0.1l0.1,0.1l0,0.1l0.1,0.1
					c0,0,0,0.1,0,0.1c0,0,0,0.1,0,0.1l0,0.1c0,0,0,0.1,0.1,0.1c0,0,0,0.1,0,0.1l0.1,0.1l0.1,0.1v0.1l0.1,0.3l0,0.2l0.1,0.1l0,0.2
					l0.1,0.1l0.1,0.1l0,0.1l0.1,0.1l0,0.1l0.1,0l0.1,0.1l0.1,0.1l0.1,0.1l0.1,0.1c0,0,0.1,0.2,0.1,0.2c0,0,0.1,0.2,0.1,0.2
					s0.1,0,0.1,0.1c0,0,0.1,0.1,0.1,0.1l0.1,0.2l0,0.2l0,0.1l0,0.1l0,0.1l-0.1,0.1l-0.1,0.1c0,0,0,0.1,0,0.1c0,0-0.1,0.1-0.1,0.1
					s0,0.1,0,0.2c0,0,0,0,0,0.1c0,0,0,0,0.1,0.1c0,0,0.1,0.1,0.1,0.1l0.1,0.1l0.1,0.1l0.1,0.1l0.1,0.1l0.2,0.1l0.1,0.1l0.1,0.2
					l0.2,0.2l0.1,0.2l0.1,0.2l0.1,0.3l0,0.2l0,0.2l0.1,0v0.1l0,0.1l0,0.1l0,0.1l0,0.1l-0.1,0.1l0,0.1l-0.1,0.1l-0.1,0.1l-0.1,0.1
					l-0.1,0.1l-0.1,0.1l-0.1,0l-0.2,0l0-0.1l-0.1-0.1l0-0.1l0.1-0.1l0-0.1l0.1-0.1l0,0l0-0.1l0-0.1l0-0.1v-0.1l0-0.1l0.1-0.1l0-0.1
					l0-0.1l-0.1,0c0,0-0.1,0-0.1-0.1c0,0,0,0,0-0.1c0,0,0,0,0,0s0,0-0.1-0.1c0,0-0.1-0.1-0.1-0.1s0,0-0.1-0.1c-0.1,0-0.1,0-0.1,0
					l0-0.1L711,39l-0.1,0l-0.1-0.1l-0.1,0c0,0-0.1,0-0.1,0c0,0-0.1,0-0.1,0l-0.1,0l-0.1,0.1l-0.1,0.1l0,0.1l-0.1,0H710l-0.1,0
					c0,0,0-0.1,0-0.1c0,0,0-0.1,0-0.1l0,0l0,0l0,0l0,0l0,0v-0.1l-0.1,0l0-0.1l-0.1-0.1l-0.1-0.1l0-0.1l-0.1-0.1l-0.1-0.1l-0.1-0.1
					c0,0-0.1-0.1-0.1-0.1c-0.1,0-0.1,0-0.1,0l-0.2-0.1l-0.1,0l-0.1,0c0,0-0.2-0.1-0.2-0.1c0,0-0.2,0-0.2,0s0,0-0.1,0
					c-0.1,0-0.2,0-0.2,0s0,0-0.1,0c-0.1,0-0.1,0-0.2,0c0,0-0.1,0-0.1,0c0,0-0.1,0-0.1,0h-0.1c0,0,0,0-0.1,0c0,0-0.1,0-0.1,0
					c0,0-0.1-0.1-0.1-0.1s0,0-0.1,0s-0.1,0-0.1,0l-0.1,0.1l-0.1,0.1l-0.1,0.1l-0.1,0.1l0,0.1l0,0.2l0,0.1l0,0.1l0,0.1l-0.1,0l-0.1,0
					l0-0.1l-0.1-0.1l0-0.1l0-0.1l0-0.1l0-0.1v-0.1l-0.1-0.1l-0.1-0.1l0-0.1v-0.1l-0.1,0l-0.1-0.1v-0.1l-0.1,0l0-0.1V37l0-0.1l0-0.1
					l0-0.1l-0.1,0l-0.1,0c0,0-0.1,0-0.1,0c0,0,0,0.1,0,0.1l0,0l-0.1,0.1l-0.1,0.1l-0.1,0.1l-0.1,0l-0.1,0.1l0,0.1l0,0l0,0.1l0,0l0,0
					l0.1,0h0.1l0,0c0,0,0,0.1,0,0.1l0,0.1l-0.1,0h-0.1l0,0.1l-0.1,0.1l-0.1,0.1l-0.1,0l-0.1,0l0,0.1l-0.1,0.1l-0.1,0l-0.1,0.1
					l-0.1,0.1l-0.1,0l-0.1,0.1l-0.1,0.1l-0.1,0l-0.1,0.1l0,0.1l-0.1,0.1l0,0.1l-0.1,0.1l-0.1,0.1l-0.1,0h-0.1l-0.1,0l-0.1-0.1l0-0.1
					l-0.1-0.1l-0.1-0.1l-0.1-0.1l-0.1-0.1l-0.1-0.1h-0.1l-0.1,0.1l-0.1,0l-0.1,0l0,0.1l-0.1,0l0,0.1h-0.1l0-0.1l0-0.1l0-0.1l0,0
					l0.1,0l0-0.1l0,0l0.1,0l0-0.1c0,0,0,0,0-0.1c0,0,0.1,0,0.1,0l0.1-0.1l0,0l0-0.1l0.1,0l0.1-0.1l0.1,0l0.1-0.1c0,0,0-0.1,0-0.1
					c0,0,0.1-0.1,0.1-0.1l0.1-0.1l0-0.1l0-0.1l0,0l0.1-0.1l0-0.1l0-0.1l0-0.1l0-0.1v-0.1l-0.1-0.1l-0.1-0.1l0-0.1l-0.1,0l-0.1,0
					l-0.1,0v0.1l-0.1,0.1l0,0.1l-0.1,0l-0.1,0.1l0,0.1l-0.1,0.1l-0.1,0.1l-0.1,0l-0.1,0.1l-0.1,0.1l-0.1,0l-0.1,0l-0.2,0l-0.1-0.1
					l-0.1-0.1l-0.1-0.1l-0.1-0.1l-0.1,0l-0.1-0.1l-0.1-0.1l-0.1,0l-0.1,0l-0.1,0l0,0.1c0,0,0,0-0.1,0s-0.2,0-0.2,0l-0.1,0l-0.1,0.1
					l-0.1,0l-0.5,0l-0.1,0l-0.1,0.1l-0.1,0.1h-0.2l-0.1-0.1l0-0.1l-0.1-0.1v-0.1l0-0.1l-0.1,0l-0.1,0l0,0.1l-0.1,0.1l-0.1,0.1
					l-0.1,0.1l0,0.1l-0.1,0.1l0,0.1l0,0.2l0,0.1l-0.1,0.1l-0.1,0.1l-0.1,0.1l-0.4,0l-0.1-0.1l-0.1,0.1h-0.2l-0.2,0l0-0.1l-0.1-0.1
					l-0.1,0l-0.2,0l-0.1,0.1l-0.1,0.1l-0.1,0l-0.1-0.1l0-0.1l0-0.1l0-0.1l0-0.1l-0.1-0.1c0,0,0,0-0.1,0c0,0-0.2-0.1-0.2-0.1
					l-0.1-0.1l-0.1-0.1l-0.5-0.2l-0.2,0l-0.2,0l-0.1-0.1l-0.3-0.1l-0.1-0.1h-0.3l-0.2,0l-0.5,0.5l-0.1,0.1l-0.2,0.1l-0.2,0l-0.3,0.2
					l-0.1,0.1l-0.1,0.2l-0.2,0.3l-0.2,0l-0.2,0l-0.2,0l-0.1,0.1l-0.1,0.1l0,0.1l0,0.2l-0.1,0.1l-0.1,0h-0.1l-0.1,0.1l-0.2,0
					l-0.2,0.3l-0.1,0.1l-0.1,0.2l-0.1,0.2l-0.1,0.2c0,0-0.1,0.1-0.1,0.2c0,0-0.1,0.2-0.1,0.2s0,0.1,0,0.2c0,0,0,0.2,0,0.2l0,0.3
					l0,0.2l0.1,0.2l0,0.2l0.1,0.1l0,0.2l0,0.2l-0.1,0.2l-0.2,0.1l-0.1,0.1l-0.1,0.1l-0.1,0.1l-0.1,0.2l0,0.2c0,0,0,0.1,0,0.2
					c0,0,0,0.2,0,0.2l0,0.1l0,0.1l0,0.1l0,0.1l0.1,0l0.1,0.1l0,0.1c0,0,0,0.1,0,0.1c0,0,0,0.1,0,0.1l-0.1,0.1l-0.1,0.1l-0.1,0.1
					l-0.1,0l-0.1,0l-0.1-0.1l-0.1-0.1c0,0-0.1,0-0.1,0c0,0-0.1,0-0.1,0l-0.1-0.1l-0.1-0.1l0-0.1h-0.2l-0.1-0.1l-0.1-0.1l-0.2-0.1
					l-0.1-0.1l-0.2-0.1l-0.1,0l-0.2,0l-0.1,0.1l-0.1,0.1l-0.1,0.1l-0.1,0.1l-0.1,0.1l-0.1,0.1c0,0-0.2,0.1-0.2,0.1
					c0,0-0.1,0.2-0.1,0.2l-0.1,0.1l-0.1,0.1l0,0.1l0,0.1c0,0-0.1,0,0,0.1s0,0.1,0,0.1l-0.1,0l0,0.1c0,0,0,0,0,0.1c0,0,0,0,0,0l0,0.2
					l0,0.2v0.3l0,0.2l-0.1,0.1l-0.1,0.1l-0.1,0.1l0,0.1l-0.2,0l-0.3,0l-0.1-0.1c0,0-0.1,0-0.1,0c0,0-0.2,0-0.2,0l-0.3,0l-0.2,0
					l-0.1-0.1h-0.1l0-0.1l0-0.1l-0.1-0.1l0-0.1h-0.2l-0.2,0l-0.2,0l-0.1,0.1l-0.1,0.1l0,0.1L684,46.9L684,46.9L684,46.9z
					 M696.4,43.5h-0.1l-0.1,0v-0.1l0.1,0l0-0.1l0.1,0l0.1,0l0-0.1l0-0.1l0-0.1l0.1-0.1l0.1-0.1l0.1-0.1l0-0.1l0.2,0l0.1,0l0.1,0
					l0.2,0h0.1l0.1,0.1l0.1,0.1l0,0.1l0.1,0.1l0,0.1l0,0.1l0.1,0.1c0,0,0.1,0,0.1,0c0,0,0.1,0,0.1,0l0.1,0l0,0.1l0,0.1l-0.1,0
					l-0.1-0.1l0,0l-0.1,0l0,0l-0.1,0h-0.1l-0.1,0l-0.1,0l-0.1,0l-0.1,0l0,0.1l-0.1,0l-0.1-0.1l-0.1,0l0,0l-0.1,0.1l-0.1,0l-0.1,0
					h-0.1L696.4,43.5L696.4,43.5L696.4,43.5z M705.1,45.9l0.1,0l0.1,0.1l0.1,0.1l0,0.1l0.1,0.1l0.1,0l0,0.1l0,0.1l0.1,0.1l0.1,0.1
					l0,0.1l0.1,0.1c0,0,0,0.1,0,0.1s0,0.2,0,0.2l-0.1,0.1l-0.1,0l-0.1-0.1c0,0,0-0.1-0.1-0.1s-0.1,0-0.1,0l0-0.1l-0.1-0.1l-0.1,0
					l0-0.1l0-0.1l-0.1,0l-0.1,0c0,0,0,0.1,0,0.1c0,0-0.1,0-0.1,0l0-0.1l0-0.1l0-0.1l-0.1-0.1l0-0.1l0-0.1L705.1,45.9L705.1,45.9
					L705.1,45.9z M703.9,48l0.1,0l0.1-0.1l0.1-0.1l0.1,0l0.2-0.1l0.1-0.1l0.1-0.1l0.1-0.1v-0.1l-0.2,0l-0.1,0.1l-0.1,0.1l-0.2,0.1
					l0,0.1l-0.1,0l-0.1,0.1L703.9,48L703.9,48z M707.2,47.8l0,0.1l0.1,0l0.1,0h0.1l0.1,0l0.1,0l0.1,0l0.1-0.1l0-0.1l0,0l0.1-0.1
					l0.1-0.1l0-0.1l0.1-0.1l0-0.1l0-0.1l0-0.1l-0.1,0c0,0,0,0,0,0.1c0,0,0,0.1,0,0.1l-0.1,0l-0.1,0c0,0-0.1,0-0.1,0c0,0,0,0.1,0,0.1
					l0,0.1l-0.1,0.1v0.1h-0.1l-0.1,0l-0.1,0L707.2,47.8L707.2,47.8L707.2,47.8z"/>
			</g>
			<g>
				<polygon fill-rule="evenodd" clip-rule="evenodd" fill="#FFFFFF" points="709.3,32.3 709.2,32.2 709.1,32.2 709.1,32.1 709,32 
					708.9,32 708.9,31.8 708.9,31.6 708.9,31.6 708.8,31.5 708.7,31.4 708.7,31 708.8,31 708.8,30.9 708.8,30.8 708.7,30.8 
					708.6,30.7 708.6,30.6 708.5,30.5 708.4,30.4 708.3,30.2 708.2,30.1 708.2,29.9 708.1,29.8 708.1,29.6 708.1,29.4 708.1,29.3 
					708.2,29.3 708.2,29.1 708.2,29 708.3,28.9 708.3,28.8 708.3,28.7 708.3,28.6 708.4,28.5 708.5,28.4 708.6,28.3 708.7,28.2 
					708.8,28.2 708.8,28.2 708.9,28.1 709,28.1 709.2,28.1 709.3,28.1 709.5,28.1 709.6,28.1 709.7,28.2 709.8,28.2 709.9,28.2 
					710,28.2 710.1,28.3 710.1,28.3 710.2,28.4 710.3,28.4 710.4,28.4 710.5,28.4 710.5,28.5 710.6,28.5 710.6,28.6 710.6,28.6 
					710.7,28.6 710.8,28.7 710.8,28.7 710.9,28.8 711,28.8 711.1,28.9 711.2,28.9 711.3,29 711.4,29.1 711.4,29.2 711.5,29.3 
					711.7,29.4 711.7,29.5 711.9,29.6 711.9,29.9 712,30.1 712.1,30.2 712.2,30.3 712.5,30.8 712.6,30.9 712.6,31.1 712.6,31.2 
					712.7,31.3 712.7,31.7 712.9,31.8 713,31.9 713.1,32 713.3,32.3 713.4,32.3 713.5,32.4 713.6,32.5 713.8,32.6 713.9,32.7 
					714,32.8 714,32.9 714.1,33.1 714.2,33.2 714.3,33.3 714.4,33.5 714.6,33.6 714.7,33.7 714.8,33.9 714.9,34 714.9,34.1 
					715,34.3 715.1,34.4 715.2,34.6 715.4,34.7 715.5,34.9 715.6,35.1 715.7,35.1 715.7,35.3 715.8,35.4 715.8,35.5 715.9,35.6 
					715.9,35.8 715.9,35.9 715.9,36 715.8,36.2 715.7,36.3 715.7,36.4 715.6,36.5 715.4,36.6 715.2,36.6 715.2,36.7 715,36.7 
					714.9,36.7 714.8,36.7 714.6,36.7 714.6,36.8 714.5,36.7 714.4,36.7 714.3,36.7 714.2,36.6 714.2,36.6 714.2,36.4 714.1,36.4 
					714.1,36.3 714,36.2 714,36.1 713.8,35.9 713.6,35.7 713.4,35.5 713.2,35.4 713.1,35.3 712.7,35.2 712.6,35.1 712.5,34.9 
					712.1,34.9 712,34.7 711.8,34.6 711.7,34.5 711.7,34.3 711.6,34.2 711.5,34.1 711,34 710.9,33.9 710.8,33.8 710.7,33.7 
					710.6,33.6 710.6,33.4 710.6,33 710.5,33 710.5,32.6 710.4,32.5 710.3,32.4 710.3,32.2 710.2,32.2 710.1,32.1 710,32.1 
					709.9,32 709.7,32 709.6,32.1 709.5,32.1 709.4,32.2 709.4,32.2 709.3,32.3 				"/>
				<path fill="#007DC1" d="M714.6,36.8l-0.1,0l-0.1,0l-0.1-0.1l-0.1-0.1l-0.1-0.1l0-0.1l0-0.1l-0.1-0.1l-0.1-0.1l0-0.1l-0.4-0.4
					l-0.2-0.2l-0.2-0.1l-0.1,0l-0.4-0.1l-0.1-0.2l-0.1-0.1l-0.4-0.1l-0.1-0.2l-0.1-0.1l-0.1-0.1l0-0.2l-0.1-0.1l-0.1-0.1l-0.5-0.1
					l-0.2-0.1l-0.1-0.1l-0.1-0.1l-0.1-0.2l0-0.2l0-0.4l-0.1-0.1v-0.4l0-0.2l-0.1-0.1l0-0.2l-0.1,0l-0.1-0.1l-0.1-0.1l-0.2-0.1
					l-0.1,0.1l-0.2,0l-0.1,0l-0.1,0v0.1l-0.1,0.1l-0.1-0.1l-0.1,0l-0.1-0.1l0-0.1l-0.1,0l0-0.2l0-0.2l-0.1,0l-0.1-0.1l-0.1,0l0-0.5
					l0.1,0l0-0.1l0,0l-0.1,0l-0.1-0.1l-0.1-0.1l-0.1-0.2l-0.1-0.1l-0.1-0.2l-0.1-0.1l-0.1-0.2l-0.1-0.1l0-0.2v-0.2l0-0.1l0.1,0v-0.1
					l0-0.2l0.1-0.1l0-0.1l0-0.3l0.1-0.1l0-0.1l0.1-0.1l0.1-0.1h0.1l0.1,0l0.1-0.1l0.1,0l0.2,0l0.1,0l0.2,0l0.3,0l0.1,0.1l0.1,0
					l0.1,0l0.1,0l0,0.1l0.1,0l0.1,0l0.1,0l0.1,0l0,0.1l0.1,0l0.1,0.1l0,0l0,0l0.2,0.1l0.2,0l0.1,0.1l0.1,0.1l0.1,0.1l0.1,0.1
					l0.1,0.1l0.1,0.1l0.1,0.1l0.1,0.1l0.1,0.2l0,0.2L712,30l0.1,0.2l0.1,0.1l0.5,0.6l0,0.2l0,0.2l0,0.1l0.1,0.4l0.1,0.1l0.1,0.1
					l0.1,0.1l0.2,0.2l0.1,0l0.1,0.1l0.1,0.1l0.2,0.1l0.2,0.3l0.1,0.3l0.1,0.1l0.1,0.1l0.1,0.1l0.2,0.1l0.1,0.1l0.1,0.1l0.1,0.1
					l0.1,0.2l0,0.2l0.1,0.1l0.2,0.2l0.2,0.1l0.1,0.2l0.1,0.2l0.1,0.1l0,0.1l0,0.1l0,0.1l0.1,0.1l0,0.3l-0.1,0.4l-0.1,0.2l-0.1,0.1
					l-0.2,0.1l-0.1,0l0,0.1l-0.5,0L714.6,36.8L714.6,36.8z M714.4,36.7h0.1l0.1,0l0,0l0.1,0l0.2,0l0.2,0l0-0.1l0.2,0l0.2-0.1
					l0.1-0.1l0.1-0.1l0.1-0.1l0.1-0.3l0-0.3l-0.1-0.1l0-0.1l0-0.1l0-0.1l-0.1-0.1l-0.2-0.2l-0.1-0.2l-0.1-0.1l-0.2-0.2l-0.1-0.1
					l0-0.2l-0.1-0.1l-0.1-0.1l-0.1-0.1l-0.1-0.1l-0.2-0.1l-0.1-0.1l-0.2-0.1l-0.1-0.1l-0.1-0.3l-0.1-0.2l-0.1-0.1l-0.1-0.1l-0.1,0
					l-0.1,0l-0.2-0.2l-0.1-0.1l-0.1-0.1l-0.2-0.1l-0.1-0.4l0-0.1l0-0.2l0-0.2l-0.1-0.1l-0.5-0.6l-0.1-0.2l-0.1-0.2l0-0.2l-0.1-0.2
					l0-0.1l-0.1-0.1l-0.2-0.2l-0.1-0.1l-0.1-0.1l-0.1-0.1l-0.1-0.1l-0.1,0l-0.1,0l-0.2-0.1l-0.1,0l0-0.1l0,0l-0.1,0l0-0.1l0,0
					l-0.2,0l-0.1,0l0-0.1l-0.1,0l-0.1,0l-0.1,0l-0.1-0.1l-0.2,0l-0.2,0l-0.1,0l-0.2,0l-0.1,0l-0.1,0.1l-0.1,0l-0.1,0l-0.1,0
					l-0.1,0.1l0,0.1l-0.1,0.1l0,0.3l0,0.1l-0.1,0.1l0,0.1l0,0.2l-0.1,0l0,0.1l0,0.2l0,0.1l0.1,0.1l0.1,0.2l0.1,0.1l0.1,0.2l0.1,0.1
					l0.1,0.1l0.1,0.1l0.1,0.1l0.1,0.1l0,0.1l-0.1,0.1l-0.1,0l0,0.4l0.1,0l0.1,0.1l0.1,0.1l0,0.2l0,0.1l0.1,0l0.1,0.2l0,0l0.1,0
					l0.1,0.1l0,0v-0.1l0.1-0.1l0.1,0l0.2,0l0.1-0.1l0.2,0.1l0.1,0.1l0.1,0.1l0.1,0l0,0.2l0.1,0.1l0.1,0.2V33l0.1,0.1l0,0.4l0,0.1
					l0.2,0.2l0.1,0.1L711,34l0.5,0.1l0.1,0.1l0.1,0.2l0,0.1l0.3,0.2l0.1,0.1l0.4,0.1l0.2,0.2l0.1,0.1l0.4,0.1l0.1,0.1l0.2,0.1
					l0.2,0.2l0.4,0.4l0,0.1l0,0.1l0.1,0.1l0,0.1l0,0.1l0.1,0L714.4,36.7L714.4,36.7z"/>
			</g>
			<g>
				<polygon fill-rule="evenodd" clip-rule="evenodd" fill="#FFFFFF" points="710.1,27.7 710.1,27.8 710.1,27.9 710.2,28 
					710.3,28.1 710.3,28.1 710.4,28.2 710.4,28.3 710.5,28.3 710.6,28.3 710.7,28.4 710.8,28.4 710.8,28.5 710.9,28.5 711,28.6 
					711.1,28.5 711.2,28.5 711.2,28.4 711.2,28.3 711.3,28.2 711.2,28.1 711.2,28 711.2,28 711.2,27.9 711.2,27.8 711.1,27.7 
					711.1,27.7 711,27.7 711,27.6 710.9,27.5 710.8,27.5 710.6,27.5 710.5,27.5 710.4,27.5 710.3,27.5 710.2,27.5 710.1,27.5 
					710.1,27.7 				"/>
			</g>
			<g>
				<path fill-rule="evenodd" clip-rule="evenodd" fill="#FFFFFF" d="M701.7,25.7l0.1,0.1l0.2,0.2l0.2,0.1l0.3,0.1h0.3l0.2,0h0.3
					l0.2-0.1h0.3l0.3,0l0.3,0l0.2,0l0.2,0L705,26l0.2-0.1l0.2-0.1l0-0.2l-0.1-0.2l-0.2-0.2l-0.1-0.1c0,0-0.1-0.1-0.2-0.1
					c0,0-0.2-0.1-0.2-0.1l-0.2,0l-0.3,0l-0.2,0l-0.5,0l-0.1,0.1l-0.1,0.1l-0.3,0.1l-0.3,0.1l-0.3,0.1l-0.2,0h-0.2L701.7,25.7
					L701.7,25.7z"/>
				<path fill="#007DC1" d="M702.8,26.3l-0.3,0l-0.3-0.1L702,26l-0.2-0.2l-0.2-0.1l0.2-0.3h0.2l0.2,0l0.3-0.1l0.2-0.1l0.3-0.1
					l0.1-0.1l0.1-0.1l0.5,0l0.2,0l0.3,0l0.2,0c0,0,0.2,0.1,0.2,0.1c0,0,0.2,0.1,0.2,0.1l0.1,0.1l0.2,0.2l0.1,0.2l0,0.3l-0.3,0.2
					l-0.2,0.2l-0.2,0.1l-0.2,0l-0.2,0l-0.3,0l-0.4,0l-0.2,0l-0.2,0.1H703L702.8,26.3z M702.5,26.2h0.2l0.2,0l0.3,0l0.2-0.1h0.3
					l0.4,0l0.3,0l0.2,0l0.2,0l0.2-0.1l0.2-0.1l0.2-0.1l0-0.2l-0.1-0.1l-0.2-0.2l-0.1-0.1c-0.1,0-0.2-0.1-0.2-0.1
					c0,0-0.2-0.1-0.2-0.1l-0.2,0l-0.3,0l-0.2,0l-0.4,0l-0.1,0.1l-0.2,0.1l-0.3,0.1l-0.3,0.1l-0.3,0.1l-0.2,0H702l-0.2,0.2l0.1,0.1
					l0.2,0.2l0.2,0.1L702.5,26.2z"/>
			</g>
		</g>
	</g>
	<path fill="#D89F79" d="M711.2,112.4c0.3-6-7.5-7.3-8.7-1.4c-1.2,5.9-1,13.6,2.6,14C708.6,125.5,711,116.8,711.2,112.4z"/>
	<ellipse fill="#D89F79" cx="696.2" cy="111.4" rx="2.2" ry="4.2"/>
</g>
</svg>
