<?xml version="1.0" encoding="utf-8"?>
<!-- Generator: Adobe Illustrator 18.1.1, SVG Export Plug-In . SVG Version: 6.00 Build 0)  -->
<svg version="1.1" id="Layer_1" xmlns="http://www.w3.org/2000/svg" xmlns:xlink="http://www.w3.org/1999/xlink" x="0px" y="0px"
	 viewBox="0 0 288 121.5" enable-background="new 0 0 288 121.5" xml:space="preserve">
<g>
	<g>
		<line fill="none" stroke="#6D6E71" stroke-miterlimit="10" x1="265.7" y1="16.8" x2="285" y2="16.8"/>
		<line fill="none" stroke="#6D6E71" stroke-miterlimit="10" x1="265.6" y1="26" x2="285" y2="26"/>
		<line fill="none" stroke="#6D6E71" stroke-miterlimit="10" x1="265.7" y1="34.4" x2="285.1" y2="34.4"/>
		<line fill="none" stroke="#6D6E71" stroke-miterlimit="10" x1="265.7" y1="42.3" x2="285.1" y2="42.3"/>
		<line fill="none" stroke="#6D6E71" stroke-miterlimit="10" x1="265.6" y1="51.6" x2="285" y2="51.6"/>
		<line fill="none" stroke="#6D6E71" stroke-miterlimit="10" x1="265.7" y1="59.9" x2="285.1" y2="59.9"/>
		<line fill="none" stroke="#6D6E71" stroke-miterlimit="10" x1="265.6" y1="68.3" x2="285" y2="68.3"/>
		<line fill="none" stroke="#6D6E71" stroke-miterlimit="10" x1="265.6" y1="77.6" x2="285" y2="77.6"/>
		<line fill="none" stroke="#6D6E71" stroke-miterlimit="10" x1="265.7" y1="85.9" x2="285" y2="85.9"/>
		<line fill="none" stroke="#6D6E71" stroke-miterlimit="10" x1="265.6" y1="93.8" x2="285" y2="93.8"/>
		<line fill="none" stroke="#6D6E71" stroke-miterlimit="10" x1="265.6" y1="103.1" x2="285" y2="103.1"/>
		<line fill="none" stroke="#6D6E71" stroke-miterlimit="10" x1="265.7" y1="111.5" x2="285.1" y2="111.5"/>
		<line fill="none" stroke="#6D6E71" stroke-miterlimit="10" x1="265.6" y1="119.4" x2="284.9" y2="119.4"/>
		<line fill="none" stroke="#6D6E71" stroke-miterlimit="10" x1="265.2" y1="121.5" x2="265.2" y2="8.2"/>
		<line fill="none" stroke="#6D6E71" stroke-miterlimit="10" x1="267.3" y1="120.4" x2="267.3" y2="7.7"/>
		<line fill="none" stroke="#6D6E71" stroke-miterlimit="10" x1="269.4" y1="121" x2="269.4" y2="8.2"/>
		<line fill="none" stroke="#6D6E71" stroke-miterlimit="10" x1="271.8" y1="121.3" x2="271.8" y2="8.5"/>
		<line fill="none" stroke="#6D6E71" stroke-miterlimit="10" x1="273.9" y1="120.8" x2="273.9" y2="8"/>
		<line fill="none" stroke="#6D6E71" stroke-miterlimit="10" x1="276" y1="121" x2="276" y2="8.2"/>
		<line fill="none" stroke="#6D6E71" stroke-miterlimit="10" x1="278.3" y1="121.3" x2="278.3" y2="8.4"/>
		<line fill="none" stroke="#6D6E71" stroke-miterlimit="10" x1="280.5" y1="120.8" x2="280.5" y2="7.9"/>
		<line fill="none" stroke="#6D6E71" stroke-miterlimit="10" x1="282.5" y1="121.5" x2="282.5" y2="8.7"/>
		<line fill="none" stroke="#6D6E71" stroke-miterlimit="10" x1="284.6" y1="121.1" x2="284.6" y2="8.2"/>
	</g>
	<g>
		<line fill="none" stroke="#6D6E71" stroke-miterlimit="10" x1="4" y1="16.5" x2="23.4" y2="16.5"/>
		<line fill="none" stroke="#6D6E71" stroke-miterlimit="10" x1="4" y1="25.8" x2="23.3" y2="25.8"/>
		<line fill="none" stroke="#6D6E71" stroke-miterlimit="10" x1="4.1" y1="34.1" x2="23.4" y2="34.1"/>
		<line fill="none" stroke="#6D6E71" stroke-miterlimit="10" x1="4" y1="42" x2="23.4" y2="42"/>
		<line fill="none" stroke="#6D6E71" stroke-miterlimit="10" x1="4" y1="51.3" x2="23.3" y2="51.3"/>
		<line fill="none" stroke="#6D6E71" stroke-miterlimit="10" x1="4.1" y1="59.7" x2="23.4" y2="59.7"/>
		<line fill="none" stroke="#6D6E71" stroke-miterlimit="10" x1="4" y1="68" x2="23.3" y2="68"/>
		<line fill="none" stroke="#6D6E71" stroke-miterlimit="10" x1="3.9" y1="77.3" x2="23.3" y2="77.3"/>
		<line fill="none" stroke="#6D6E71" stroke-miterlimit="10" x1="4" y1="85.7" x2="23.4" y2="85.7"/>
		<line fill="none" stroke="#6D6E71" stroke-miterlimit="10" x1="4" y1="93.6" x2="23.3" y2="93.6"/>
		<line fill="none" stroke="#6D6E71" stroke-miterlimit="10" x1="3.9" y1="102.9" x2="23.3" y2="102.9"/>
		<line fill="none" stroke="#6D6E71" stroke-miterlimit="10" x1="4" y1="111.2" x2="23.4" y2="111.2"/>
		<line fill="none" stroke="#6D6E71" stroke-miterlimit="10" x1="3.9" y1="119.1" x2="23.3" y2="119.1"/>
		<line fill="none" stroke="#6D6E71" stroke-miterlimit="10" x1="3.5" y1="120.8" x2="3.5" y2="7.9"/>
		<line fill="none" stroke="#6D6E71" stroke-miterlimit="10" x1="5.6" y1="120.3" x2="5.6" y2="7.4"/>
		<line fill="none" stroke="#6D6E71" stroke-miterlimit="10" x1="7.8" y1="120.8" x2="7.8" y2="7.9"/>
		<line fill="none" stroke="#6D6E71" stroke-miterlimit="10" x1="10.1" y1="121" x2="10.1" y2="8.2"/>
		<line fill="none" stroke="#6D6E71" stroke-miterlimit="10" x1="12.3" y1="120.6" x2="12.3" y2="7.7"/>
		<line fill="none" stroke="#6D6E71" stroke-miterlimit="10" x1="14.3" y1="120.7" x2="14.3" y2="7.9"/>
		<line fill="none" stroke="#6D6E71" stroke-miterlimit="10" x1="16.7" y1="121" x2="16.7" y2="8.2"/>
		<line fill="none" stroke="#6D6E71" stroke-miterlimit="10" x1="18.8" y1="120.5" x2="18.8" y2="7.7"/>
		<line fill="none" stroke="#6D6E71" stroke-miterlimit="10" x1="20.8" y1="121.3" x2="20.8" y2="8.4"/>
		<line fill="none" stroke="#6D6E71" stroke-miterlimit="10" x1="22.9" y1="120.8" x2="22.9" y2="7.9"/>
	</g>
	<g>
		<line fill="none" stroke="#6D6E71" stroke-miterlimit="10" x1="23.3" y1="33.4" x2="265.6" y2="33.4"/>
		<line fill="none" stroke="#6D6E71" stroke-miterlimit="10" x1="22.8" y1="40.4" x2="265" y2="40.4"/>
		<line fill="none" stroke="#6D6E71" stroke-miterlimit="10" x1="23.8" y1="46.7" x2="266.1" y2="46.7"/>
		<line fill="none" stroke="#6D6E71" stroke-miterlimit="10" x1="23.4" y1="52.6" x2="265.7" y2="52.6"/>
		<line fill="none" stroke="#6D6E71" stroke-miterlimit="10" x1="22.8" y1="59.6" x2="265.1" y2="59.6"/>
		<line fill="none" stroke="#6D6E71" stroke-miterlimit="10" x1="23.9" y1="65.8" x2="266.1" y2="65.8"/>
		<line fill="none" stroke="#6D6E71" stroke-miterlimit="10" x1="22.8" y1="72.1" x2="265.1" y2="72.1"/>
		<line fill="none" stroke="#6D6E71" stroke-miterlimit="10" x1="22.3" y1="79.1" x2="264.5" y2="79.1"/>
		<line fill="none" stroke="#6D6E71" stroke-miterlimit="10" x1="23.3" y1="85.4" x2="265.6" y2="85.4"/>
		<line fill="none" stroke="#6D6E71" stroke-miterlimit="10" x1="22.9" y1="91.3" x2="265.2" y2="91.3"/>
		<line fill="none" stroke="#6D6E71" stroke-miterlimit="10" x1="22.3" y1="98.2" x2="264.6" y2="98.2"/>
		<line fill="none" stroke="#6D6E71" stroke-miterlimit="10" x1="23.4" y1="104.5" x2="265.6" y2="104.5"/>
		<line fill="none" stroke="#6D6E71" stroke-miterlimit="10" x1="21.7" y1="110.4" x2="264" y2="110.4"/>
		<line fill="none" stroke="#6D6E71" stroke-miterlimit="10" x1="22.8" y1="116.7" x2="265.1" y2="116.7"/>
		<line fill="none" stroke="#6D6E71" stroke-miterlimit="10" x1="31.2" y1="119.8" x2="31.2" y2="26.8"/>
		<line fill="none" stroke="#6D6E71" stroke-miterlimit="10" x1="38.1" y1="120.1" x2="38.1" y2="27.1"/>
		<line fill="none" stroke="#6D6E71" stroke-miterlimit="10" x1="44.4" y1="119.7" x2="44.4" y2="26.7"/>
		<line fill="none" stroke="#6D6E71" stroke-miterlimit="10" x1="50.3" y1="119.8" x2="50.3" y2="26.8"/>
		<line fill="none" stroke="#6D6E71" stroke-miterlimit="10" x1="57.3" y1="120" x2="57.3" y2="27"/>
		<line fill="none" stroke="#6D6E71" stroke-miterlimit="10" x1="63.5" y1="119.6" x2="63.5" y2="26.6"/>
		<line fill="none" stroke="#6D6E71" stroke-miterlimit="10" x1="69.8" y1="120" x2="69.8" y2="27"/>
		<line fill="none" stroke="#6D6E71" stroke-miterlimit="10" x1="76.8" y1="120.3" x2="76.8" y2="27.3"/>
		<line fill="none" stroke="#6D6E71" stroke-miterlimit="10" x1="83.1" y1="119.9" x2="83.1" y2="26.9"/>
		<line fill="none" stroke="#6D6E71" stroke-miterlimit="10" x1="89" y1="120" x2="89" y2="27"/>
		<line fill="none" stroke="#6D6E71" stroke-miterlimit="10" x1="96" y1="120.2" x2="96" y2="27.2"/>
		<line fill="none" stroke="#6D6E71" stroke-miterlimit="10" x1="102.2" y1="119.8" x2="102.2" y2="26.8"/>
		<line fill="none" stroke="#6D6E71" stroke-miterlimit="10" x1="108.1" y1="120.5" x2="108.1" y2="27.5"/>
		<line fill="none" stroke="#6D6E71" stroke-miterlimit="10" x1="114.4" y1="120.1" x2="114.4" y2="27.1"/>
		<line fill="none" stroke="#6D6E71" stroke-miterlimit="10" x1="120.8" y1="120.2" x2="120.8" y2="27.2"/>
		<line fill="none" stroke="#6D6E71" stroke-miterlimit="10" x1="127.7" y1="120.5" x2="127.7" y2="27.5"/>
		<line fill="none" stroke="#6D6E71" stroke-miterlimit="10" x1="134" y1="120.1" x2="134" y2="27.1"/>
		<line fill="none" stroke="#6D6E71" stroke-miterlimit="10" x1="139.9" y1="120.2" x2="139.9" y2="27.2"/>
		<line fill="none" stroke="#6D6E71" stroke-miterlimit="10" x1="146.9" y1="120.4" x2="146.9" y2="27.4"/>
		<line fill="none" stroke="#6D6E71" stroke-miterlimit="10" x1="153.2" y1="120" x2="153.2" y2="27"/>
		<line fill="none" stroke="#6D6E71" stroke-miterlimit="10" x1="159.4" y1="120.4" x2="159.4" y2="27.4"/>
		<line fill="none" stroke="#6D6E71" stroke-miterlimit="10" x1="166.4" y1="120.7" x2="166.4" y2="27.7"/>
		<line fill="none" stroke="#6D6E71" stroke-miterlimit="10" x1="172.7" y1="120.3" x2="172.7" y2="27.3"/>
		<line fill="none" stroke="#6D6E71" stroke-miterlimit="10" x1="178.6" y1="120.4" x2="178.6" y2="27.4"/>
		<line fill="none" stroke="#6D6E71" stroke-miterlimit="10" x1="185.6" y1="120.6" x2="185.6" y2="27.6"/>
		<line fill="none" stroke="#6D6E71" stroke-miterlimit="10" x1="191.8" y1="120.2" x2="191.8" y2="27.2"/>
		<line fill="none" stroke="#6D6E71" stroke-miterlimit="10" x1="197.7" y1="120.9" x2="197.7" y2="27.9"/>
		<line fill="none" stroke="#6D6E71" stroke-miterlimit="10" x1="204" y1="120.5" x2="204" y2="27.5"/>
		<line fill="none" stroke="#6D6E71" stroke-miterlimit="10" x1="210.6" y1="120.1" x2="210.6" y2="27.1"/>
		<line fill="none" stroke="#6D6E71" stroke-miterlimit="10" x1="217.5" y1="120.4" x2="217.5" y2="27.4"/>
		<line fill="none" stroke="#6D6E71" stroke-miterlimit="10" x1="223.8" y1="120" x2="223.8" y2="27"/>
		<line fill="none" stroke="#6D6E71" stroke-miterlimit="10" x1="229.7" y1="120.1" x2="229.7" y2="27.1"/>
		<line fill="none" stroke="#6D6E71" stroke-miterlimit="10" x1="236.7" y1="120.3" x2="236.7" y2="27.3"/>
		<line fill="none" stroke="#6D6E71" stroke-miterlimit="10" x1="243" y1="119.9" x2="243" y2="26.9"/>
		<line fill="none" stroke="#6D6E71" stroke-miterlimit="10" x1="249.3" y1="120.3" x2="249.3" y2="27.3"/>
		<line fill="none" stroke="#6D6E71" stroke-miterlimit="10" x1="256.2" y1="120.5" x2="256.2" y2="27.5"/>
		<line fill="none" stroke="#6D6E71" stroke-miterlimit="10" x1="262.5" y1="120.1" x2="262.5" y2="27.1"/>
	</g>
	<g>
		<line fill="none" stroke="#6D6E71" stroke-miterlimit="10" x1="9.7" y1="5.3" x2="278.2" y2="5.3"/>
		<line fill="none" stroke="#6D6E71" stroke-miterlimit="10" x1="9.1" y1="8.4" x2="277.5" y2="8.4"/>
		<line fill="none" stroke="#6D6E71" stroke-miterlimit="10" x1="10.2" y1="11.2" x2="278.7" y2="11.2"/>
		<line fill="none" stroke="#6D6E71" stroke-miterlimit="10" x1="9.8" y1="13.8" x2="278.2" y2="13.8"/>
		<line fill="none" stroke="#6D6E71" stroke-miterlimit="10" x1="13.7" y1="16.9" x2="277.6" y2="16.9"/>
		<line fill="none" stroke="#6D6E71" stroke-miterlimit="10" x1="20.6" y1="19.6" x2="269.9" y2="19.6"/>
		<line fill="none" stroke="#6D6E71" stroke-miterlimit="10" x1="18.9" y1="22.3" x2="268.2" y2="22.3"/>
		<line fill="none" stroke="#6D6E71" stroke-miterlimit="10" x1="20" y1="25" x2="269.3" y2="25"/>
		<line fill="none" stroke="#6D6E71" stroke-miterlimit="10" x1="18.9" y1="26.6" x2="18.9" y2="4.4"/>
		<line fill="none" stroke="#6D6E71" stroke-miterlimit="10" x1="26.6" y1="26.7" x2="26.6" y2="4.4"/>
		<line fill="none" stroke="#6D6E71" stroke-miterlimit="10" x1="33.6" y1="26.6" x2="33.6" y2="4.3"/>
		<line fill="none" stroke="#6D6E71" stroke-miterlimit="10" x1="40.1" y1="26.6" x2="40.1" y2="4.4"/>
		<line fill="none" stroke="#6D6E71" stroke-miterlimit="10" x1="47.9" y1="26.7" x2="47.9" y2="4.4"/>
		<line fill="none" stroke="#6D6E71" stroke-miterlimit="10" x1="54.8" y1="26.6" x2="54.8" y2="4.3"/>
		<line fill="none" stroke="#6D6E71" stroke-miterlimit="10" x1="61.8" y1="26.7" x2="61.8" y2="4.4"/>
		<line fill="none" stroke="#6D6E71" stroke-miterlimit="10" x1="69.5" y1="26.7" x2="69.5" y2="4.5"/>
		<line fill="none" stroke="#6D6E71" stroke-miterlimit="10" x1="76.4" y1="26.6" x2="76.4" y2="4.4"/>
		<line fill="none" stroke="#6D6E71" stroke-miterlimit="10" x1="83" y1="26.7" x2="83" y2="4.4"/>
		<line fill="none" stroke="#6D6E71" stroke-miterlimit="10" x1="90.7" y1="26.7" x2="90.7" y2="4.5"/>
		<line fill="none" stroke="#6D6E71" stroke-miterlimit="10" x1="97.7" y1="26.6" x2="97.7" y2="4.4"/>
		<line fill="none" stroke="#6D6E71" stroke-miterlimit="10" x1="104.2" y1="26.8" x2="104.2" y2="4.5"/>
		<line fill="none" stroke="#6D6E71" stroke-miterlimit="10" x1="111.2" y1="26.7" x2="111.2" y2="4.4"/>
		<line fill="none" stroke="#6D6E71" stroke-miterlimit="10" x1="118.2" y1="26.7" x2="118.2" y2="4.5"/>
		<line fill="none" stroke="#6D6E71" stroke-miterlimit="10" x1="125.9" y1="26.8" x2="125.9" y2="4.5"/>
		<line fill="none" stroke="#6D6E71" stroke-miterlimit="10" x1="132.9" y1="26.7" x2="132.9" y2="4.4"/>
		<line fill="none" stroke="#6D6E71" stroke-miterlimit="10" x1="139.4" y1="26.7" x2="139.4" y2="4.5"/>
		<line fill="none" stroke="#6D6E71" stroke-miterlimit="10" x1="147.2" y1="26.8" x2="147.2" y2="4.5"/>
		<line fill="none" stroke="#6D6E71" stroke-miterlimit="10" x1="154.1" y1="26.7" x2="154.1" y2="4.4"/>
		<line fill="none" stroke="#6D6E71" stroke-miterlimit="10" x1="161.1" y1="26.8" x2="161.1" y2="4.5"/>
		<line fill="none" stroke="#6D6E71" stroke-miterlimit="10" x1="168.8" y1="26.8" x2="168.8" y2="4.6"/>
		<line fill="none" stroke="#6D6E71" stroke-miterlimit="10" x1="175.7" y1="26.7" x2="175.7" y2="4.5"/>
		<line fill="none" stroke="#6D6E71" stroke-miterlimit="10" x1="182.3" y1="26.8" x2="182.3" y2="4.5"/>
		<line fill="none" stroke="#6D6E71" stroke-miterlimit="10" x1="190" y1="26.8" x2="190" y2="4.6"/>
		<line fill="none" stroke="#6D6E71" stroke-miterlimit="10" x1="197" y1="26.7" x2="197" y2="4.5"/>
		<line fill="none" stroke="#6D6E71" stroke-miterlimit="10" x1="203.5" y1="26.9" x2="203.5" y2="4.6"/>
		<line fill="none" stroke="#6D6E71" stroke-miterlimit="10" x1="210.5" y1="26.8" x2="210.5" y2="4.5"/>
		<line fill="none" stroke="#6D6E71" stroke-miterlimit="10" x1="217.7" y1="26.7" x2="217.7" y2="4.4"/>
		<line fill="none" stroke="#6D6E71" stroke-miterlimit="10" x1="225.5" y1="26.7" x2="225.5" y2="4.5"/>
		<line fill="none" stroke="#6D6E71" stroke-miterlimit="10" x1="232.4" y1="26.6" x2="232.4" y2="4.4"/>
		<line fill="none" stroke="#6D6E71" stroke-miterlimit="10" x1="239" y1="26.7" x2="239" y2="4.4"/>
		<line fill="none" stroke="#6D6E71" stroke-miterlimit="10" x1="246.7" y1="26.7" x2="246.7" y2="4.5"/>
		<line fill="none" stroke="#6D6E71" stroke-miterlimit="10" x1="253.6" y1="26.6" x2="253.6" y2="4.4"/>
		<line fill="none" stroke="#6D6E71" stroke-miterlimit="10" x1="260.6" y1="26.7" x2="260.6" y2="4.5"/>
		<line fill="none" stroke="#6D6E71" stroke-miterlimit="10" x1="268.3" y1="26.8" x2="268.3" y2="4.5"/>
	</g>
	<rect x="3.3" y="3.4" fill="#F1316D" width="4.7" height="117"/>
	<rect x="280.2" y="3.4" fill="#F1316D" width="4.7" height="117"/>
	<rect x="3.6" y="3.4" fill="#F1316D" width="280.6" height="4.7"/>
	<polygon fill="#F1316D" points="25.4,121.1 21.3,121.1 21.3,25.3 24.4,25.3 	"/>
	<polygon fill="#F1316D" points="24.4,25.3 22.4,27.7 6.6,7.2 9.3,5.1 	"/>
	<polygon fill="#F1316D" points="264.2,121.1 268.2,121.1 268.2,25.3 265.2,25.3 	"/>
	<polygon fill="#F1316D" points="265.2,25.3 267.2,27.7 283,7.2 280.3,5.1 	"/>
	<rect x="22.2" y="25.4" fill="#F1316D" width="244.5" height="1.7"/>
</g>
</svg>
