<?xml version="1.0" encoding="utf-8"?>
<!-- Generator: Adobe Illustrator 19.0.0, SVG Export Plug-In . SVG Version: 6.00 Build 0)  -->
<svg version="1.1" id="Layer_1" xmlns="http://www.w3.org/2000/svg" xmlns:xlink="http://www.w3.org/1999/xlink" x="0px" y="0px"
	 viewBox="-292 182 414 537" style="enable-background:new -292 182 414 537;" xml:space="preserve">
<style type="text/css">
	.st0{fill:#F9BD91;}
	.st1{fill:#8B5E3C;}
	.st2{fill:#231F20;}
	.st3{fill:#E6E7E8;}
	.st4{fill:#A97C50;}
	.st5{fill:#FFF200;}
	.st6{fill:#2B3990;}
	.st7{fill:#006838;}
</style>
<g>
	<path class="st0" d="M-52.9,203.5v67.6h-10.3v22.2c0,0-11.5,22.7-39.8,0v-46.1c0,0-8.6-1.7-8.6-11.5s9.8-5.1,9.8-5.1v-27.1H-52.9z"
		/>
	<polygon class="st1" points="-112.3,689 -115.1,702.3 -126.7,702.3 -126.7,689 	"/>
	<path class="st2" d="M-126.7,702.3h11.5c0,0,4.5,14.5-10.5,15.4h-19.5c0,0-4.3-9.2,7.3-9.8C-137.8,707.9-127.7,706.1-126.7,702.3z"
		/>
	<polygon class="st1" points="-60.5,689 -57.7,702.3 -46.2,702.3 -46.2,689 	"/>
	<path class="st2" d="M-46.2,702.3h-11.5c0,0-4.5,14.5,10.5,15.4h19.5c0,0,4.3-9.2-7.3-9.8C-35,707.9-45.1,706.1-46.2,702.3z"/>
	<path class="st3" d="M-88.3,251h33.8c0,0-6-10.5-16.9-10.5S-88.3,251-88.3,251z"/>
	<path class="st3" d="M-88.3,251l-1.6,1.8c0,0,14.9,2.6,19.5-1.8c0,0,11.4,2.2,17,1.8l-1.4-2.3C-54.8,250.5-77.9,248.3-88.3,251z"/>
	<polygon class="st4" points="-123.5,454.6 -128.1,689 -111.4,689 -78.5,497 -60.5,689 -44.4,689 -38.3,453.3 	"/>
	<path class="st5" d="M-145.7,295.1c0,0,41.9-23.5,126.2,0l-15.9,158.6c0,0-34.6,2.4-91.1-0.3L-145.7,295.1z"/>
	<polygon class="st1" points="-112.3,689 -115.1,702.3 -126.7,702.3 -126.7,689 	"/>
	<path class="st2" d="M-126.7,702.3h11.5c0,0,4.5,14.5-10.5,15.4h-19.5c0,0-4.3-9.2,7.3-9.8C-137.8,707.9-127.7,706.1-126.7,702.3z"
		/>
	<polygon class="st1" points="-60.5,689 -57.7,702.3 -46.2,702.3 -46.2,689 	"/>
	<path class="st2" d="M-46.2,702.3h-11.5c0,0-4.5,14.5,10.5,15.4h19.5c0,0,4.3-9.2-7.3-9.8C-35,707.9-45.1,706.1-46.2,702.3z"/>
	<polygon class="st6" points="-128.1,453.7 -135.9,552.9 -83.2,552.9 -79.9,514.2 -76.5,552.9 -35,552.9 -35.4,453.7 	"/>
	<polygon class="st3" points="-128.1,629.6 -101.2,629.6 -114.5,705.4 -128.1,705.4 	"/>
	<polygon class="st3" points="-42.9,631.3 -67,631.4 -59.6,703.8 -44.4,703.8 	"/>
	<path class="st7" d="M-103.9,297.5l21.7,35.9l21.3-35.9h24c0,0-6.4-16.7-29.7-18.8c-23.3-2.1-48.8-3-57.1,18.6L-103.9,297.5z"/>
	<path class="st4" d="M-52.9,203.5v67.6h-10.3v22.2c0,0-11.5,22.7-39.8,0v-46.1c0,0-8.6-1.7-8.6-11.5s9.8-5.1,9.8-5.1v-27.1H-52.9z"
		/>
	<path class="st2" d="M-101.6,230.5v3.9h3.9h1.4v-12.7c0,0,7.7-2,8.1-6.3c0.4-4.3,0-8,0-8h33.8l1.6,5.3c0,0,6.4-16.7,2-21.1
		c-4.4-4.4-55.6,1.7-62.1,19.1c0,0-1.1,23.4,1.8,27.4c0,0-2-8.5,3.9-8.7C-101.8,229.2-101.6,230.5-101.6,230.5z"/>
	<path class="st4" d="M-102.9,293.4l20.7,36l19-36C-63.1,293.4-80.4,271.5-102.9,293.4z"/>
	<path class="st4" d="M-205.8,331.8c0,0-37.2-8.2-52.1-38.9c0,0-3.1-8.9-7.3-8.5c-4.2,0.4-1.9,8.1-1.9,8.1s-3.8-18.9-9.2-18.3
		c-5.4,0.6-19,7-1,37c0,0,41.2,50.7,76.6,43.1C-200.7,354.3-178.1,333.1-205.8,331.8z"/>
	<path class="st5" d="M-145.3,294.5c0,0-19.5,29.8-54.5,35.6c0,0-3.9,21,6.6,26.6c0,0,43-7.7,60.1-27.2L-145.3,294.5z"/>
	<path class="st7" d="M-191,356.4c0,0-9.5-14-4.5-27.1l-9.2,1.5c0,0-0.2,22.3,6.8,26.8L-191,356.4z"/>
	<path class="st4" d="M45.5,321.9c0,0,35.4-14.2,45-46.9c0,0,1.6-9.3,5.8-9.6c4.2-0.3,3.2,7.7,3.2,7.7s0.6-19.2,6.1-19.6
		c5.5-0.3,19.9,3.8,7.1,36.4c0,0-32.3,56.8-68.4,55.1C44.2,345,18.4,327.8,45.5,321.9z"/>
	<path class="st5" d="M-20.3,295.2c0,0,24.1,26.1,59.6,26.1c0,0,7.3,20.1-2.1,27.4c0,0-43.6-0.5-63.7-16.9L-20.3,295.2z"/>
	<path class="st7" d="M35,348.7c0,0,7.1-15.4,0-27.5h9.3c0,0,3.9,22-2.2,27.5H35z"/>
	<g>
		<path class="st7" d="M-96.1,344.3h-2.1v-0.5l5.3-4.2h1v23.9l0,0c0,0.3,0.1,0.6,0.1,1.1c0.1,0.5,0.2,0.9,0.3,1.4
			c0,0.1,0.1,0.2,0.1,0.3c0.1,0.2,0.1,0.3,0.1,0.3s0,0.1,0.1,0.1H-97c0.1-0.1,0.1-0.3,0.2-0.6s0.2-0.5,0.2-0.6
			c0.1-0.4,0.2-0.8,0.2-1.2c0-0.4,0.1-0.7,0.1-0.9v-19.1H-96.1z"/>
		<path class="st7" d="M-62.6,352.4c0,0.1,0,0.3,0,0.4c0,0.1,0,0.3,0,0.4c0,2.4-0.6,4.6-1.7,6.6s-2.7,3.7-4.7,5s-4.2,1.9-6.6,2
			c-1.9,0-3.6-0.4-5.3-1.1s-3.1-1.8-4.3-3.1s-2.2-2.9-2.8-4.6c-0.7-1.7-1-3.5-1-5.4c0.1-1.8,0.5-3.5,1.1-5.1
			c0.7-1.6,1.6-2.9,2.7-4.1s2.5-2.1,4-2.8c1.5-0.7,3.1-1.1,4.9-1.2c0.2,0,0.5,0,0.9,0c1.9,0,3.6,0.3,5.1,1s2.9,1.6,4,2.8
			c1.1,1.2,2,2.6,2.6,4.2S-62.6,350.6-62.6,352.4z M-85,352.9c0,1.9,0.5,3.7,1.5,5.4s2.3,3.1,4,4.1s3.4,1.5,5.3,1.5
			c1.2-0.1,2.3-0.4,3.3-1s1.7-1.3,2.4-2.3c0.7-0.9,1.1-2,1.5-3.1c0.3-1.1,0.5-2.4,0.5-3.6c0-0.6-0.1-1.3-0.2-2.1
			c-0.2-1.4-0.6-2.6-1.3-3.8s-1.4-2.2-2.4-3.1c-0.9-0.9-1.9-1.5-3-2s-2.2-0.7-3.3-0.7c-0.6,0-1.2,0.1-1.8,0.2c-1.4,0.3-2.6,1-3.6,2
			s-1.7,2.2-2.2,3.7S-85,351.2-85,352.9z"/>
	</g>
</g>
</svg>
