<?xml version="1.0" encoding="utf-8"?>
<!-- Generator: Adobe Illustrator 18.1.1, SVG Export Plug-In . SVG Version: 6.00 Build 0)  -->
<svg version="1.1" id="Layer_1" xmlns="http://www.w3.org/2000/svg" xmlns:xlink="http://www.w3.org/1999/xlink" x="0px" y="0px"
	 viewBox="0 0 131 121" enable-background="new 0 0 131 121" xml:space="preserve">
<g>
	<path fill="#DC4182" d="M60.8,76.3l-33.5,23.8c0,0-20.5,16.4-20.1,20.9c0,0,33.2-14.7,59-14.7s59.5,12.4,59.5,12.4"/>
	<path fill="#FFFFFF" d="M73.3,72.4l1.8,24H68l-7-16.6l2,15.1h-6.6l-2.9-26.2h17.2C70.9,68.8,73.1,69.3,73.3,72.4z"/>
	<path fill="#151412" d="M72.2,111.2l2.6-0.2c0,0,1.2,3.2-2.1,3.6l-4.3,0.3c0,0-1.1-2,1.5-2.3C69.8,112.6,72.1,112.1,72.2,111.2z"/>
	<path fill="#FFFFFF" d="M53.7,68.8l-2.7-28.1c0,0,8.5-7.3,23.1-1.7l-0.6,34.7L53.7,68.8z"/>
	<polygon fill="#231F20" points="53.8,69.9 73.5,69.9 73.6,62.7 53.1,62.7 	"/>
	<rect x="58" y="62.7" fill="#FBB040" width="9.7" height="7.2"/>
	<path fill="#479AEC" d="M64.4,66.3l3.3-29l7.4,1.5l-1.6,25.1c0,0,0.1,12.8,12.6,21.6s39.6,33.2,39.6,33.2s-17.8-7.2-27.3-11.7
		S65.3,86.6,64.4,66.3z"/>
	<polygon fill="#479AEC" points="72.7,60 76.1,54.4 73.6,52.6 75.2,38.8 86.2,53.4 78.4,64.8 	"/>
	<path fill="#479AEC" d="M58,63.8l-5.3-24.2c0,0-15.1,7.3-17.2,21.5l5.5,1.6c0,0,2.2-8,8.3-9.4l3.8,12.1c0,0,1.1,10.5-5.3,17.3
		S5.5,111.3,7.2,121c0,0,10.7-15,22.4-18.7S56.4,89,58,69.4V63.8z"/>
	<polygon fill="#DC4182" points="64.4,62.7 66.1,36.9 75.2,38.8 	"/>
	<path fill="#DC4182" d="M58,62.5l-2-25.2c0,0-5.5,1.7-7.8,5.1L58,62.5z"/>
	<polygon fill="#151412" points="72.5,111.7 68,96.5 75.2,96.5 75.2,111.6 	"/>
	<path fill="#151412" d="M60.5,110.1l2.6-0.2c0,0,1.2,3.2-2.1,3.6l-4.3,0.3c0,0-1.1-2,1.5-2.3C58.1,111.5,60.3,111,60.5,110.1z"/>
	<polygon fill="#151412" points="60.7,110.6 56.2,95.3 63.4,95.3 63.4,110.5 	"/>
	<path fill="#F9BD91" d="M68.4,15.9l-0.1,17l-2.6,0l0,5.6c0,0-2.9,5.7-10-0.1l0.1-11.6c0,0-2.1-0.4-2.1-2.9s2.5-1.3,2.5-1.3l0-6.8
		L68.4,15.9z"/>
	<path fill="#F9BD91" d="M73.2,69.9c-5.1,7.3-8,4.8-8.7,3.6c-0.7-1.2,3.3-4,3.3-4s-1.6,1.3-2.1,0.4C65.3,69,67,67.3,67,67.3
		s2.7-2.9,4.8-1.3C73.9,67.8,73.2,69.9,73.2,69.9z"/>
	<circle fill="#A7A9AC" cx="60.8" cy="44.1" r="4.5"/>
	
		<rect x="68.2" y="61.9" transform="matrix(0.7615 0.6481 -0.6481 0.7615 59.9039 -32.1243)" fill="#DC4182" width="10.8" height="7"/>
	<path fill="#F9BD91" d="M34.3,65.6c-4.8,7.4-1.5,9.2-0.1,9.4s2.5-4.6,2.5-4.6s-0.6,1.9,0.4,2.1c1.1,0.1,1.9-2.1,1.9-2.1
		s1.7-3.6-0.6-4.9C36.1,64.1,34.3,65.6,34.3,65.6z"/>
	
		<rect x="32.3" y="60.3" transform="matrix(0.9418 0.3362 -0.3362 0.9418 23.6258 -8.9609)" fill="#DC4182" width="10.8" height="7"/>
	<path fill="#F7D253" d="M57,22.2c0.5,0.7,1.2,1.2,1.9,1.5c-0.4-0.6-0.5-1.3-0.3-2c0.1-0.7,0.5-1.3,0.8-1.9c-0.4,0.4,0,1,0.3,1.4
		c0.7,0.9,1.3,1.7,2,2.6c-0.1-1.3,0.2-2.6,1-3.7c0.7,0.6,1,1.7,0.7,2.6c1.3-0.4,2.3-1.8,2.1-3.2c0.6,1.1,0.7,2.4,0.3,3.5
		c1-0.2,1.8-1.3,1.6-2.3c0.7,1.2,1.1,2.6,1.1,3.9c0.7-0.5,1-1.3,0.9-2.1c0.6,1.5,1.7,2.7,3.2,3.4c-1.1-1.3-1.7-2.9-1.7-4.6
		c0.6,0.3,1.2,0.7,1.7,1c0.2-1.8-0.7-3.6-2.3-4.5c0.6-0.3,1-1.1,1-1.8c0-0.7-0.2-1.4-0.5-2.1c-0.2,0.9-0.8,1.7-1.5,2.2
		c0.6-0.4,0.5-1.2,0.4-1.8c-0.3-1.1-0.9-2-1.8-2.8c-0.3,0.8-1.2,1.4-2,1.2c0.7-0.6,0.5-1.7,0.2-2.5c-1.1-2.5-3.1-4.5-5.6-5.6
		c0.9,0.9,1.7,1.8,2.1,3c0.4,1.2,0.2,2.6-0.7,3.4c-0.8-0.5-1.4-1.1-1.9-1.8c-0.3-0.4-0.5-1-0.2-1.4c-0.9,0.6-1.5,1.7-1.4,2.8
		c-0.6-0.9-1.5-1.6-2.5-1.9c0.5,0.9,0.7,2,0.5,3c-0.5-0.5-1.1-0.8-1.6-1.3c-0.5-0.5-0.9-1.1-0.8-1.8c-0.4,1.2-0.3,2.6,0.3,3.8
		c-0.4-0.7-0.9-1.4-1.6-1.8s-1.7-0.4-2.2,0.2c0.4-0.2,1,0,1.3,0.3s0.5,0.8,0.7,1.2c0.2,0.4,0.3,0.9,0.5,1.3
		c-0.8-0.7-2.2-0.5-2.7,0.4c-0.3,0.5-0.4,1.2-0.8,1.7c0.6-0.6,1.8-0.6,2.4,0.1c-1.1,0.6-1.9,1.8-2,3.1c0.6-0.7,1.5-1.1,2.5-1
		c-0.6,0.5-1.2,1.2-1.4,1.9s-0.2,1.7,0.4,2.3c0.2-0.9,0.9-1.6,1.8-1.8c-1,0.9-1,2.6-0.1,3.5c0.1-0.6,0.3-1.3,0.8-1.7
		c0.5-0.4,1.3-0.4,1.7,0.1c0.1,0.2,0.2,0.4,0.3,0.6c0.4,1,1.1,1.9,1.9,2.5C56.8,24.6,56.7,23.4,57,22.2z"/>
</g>
</svg>
