<?xml version="1.0" encoding="utf-8"?>
<!-- Generator: Adobe Illustrator 19.0.0, SVG Export Plug-In . SVG Version: 6.00 Build 0)  -->
<!DOCTYPE svg PUBLIC "-//W3C//DTD SVG 1.1//EN" "http://www.w3.org/Graphics/SVG/1.1/DTD/svg11.dtd">
<svg version="1.1" id="Layer_1" xmlns="http://www.w3.org/2000/svg" xmlns:xlink="http://www.w3.org/1999/xlink" x="0px" y="0px"
	 viewBox="-210 122 191 550" style="enable-background:new -210 122 191 550;" xml:space="preserve">
<style type="text/css">
	.st0{fill:#3E3735;}
	.st1{fill:#362923;}
	.st2{fill:#8A7D72;}
	.st3{fill:#736B60;}
	.st4{fill:#685448;}
	.st5{fill:#141217;}
	.st6{fill:#310C13;}
	.st7{fill:#F0E5D4;}
	.st8{fill:#3E3634;}
	.st9{fill:#5B0C14;}
	.st10{fill:#915646;}
	.st11{fill:#231618;}
	.st12{fill:#AA9B8D;}
</style>
<g>
	<path class="st0" d="M-190.2,611.5c0,0-5.1,27.9,2.9,37.8c0,0,57.9,29.2,148,0c0,0,7.4-17.8,0-32.6
		C-39.3,616.7-120.4,652.7-190.2,611.5z"/>
	<path class="st1" d="M-190.2,611.5c0,0,54.7,43.5,150.9,5.2c0,0-2-20.5-6.7-35.5c-4.7-15,0-52.9-1.3-67.3
		c-1.3-14.3,12.1-90.5,8.1-131.8s-18.2-88.4-26.9-108.5S-83,231.2-83,231.2s-36.3-4-65.3,0c0,0-24.2,53.8-30.3,79.4
		c-6.1,25.6-18.5,49.8-13.3,95.5c5.2,45.7,9.9,93.6,9.9,107.3C-181.9,527.2-178.3,586.7-190.2,611.5z"/>
	<path class="st2" d="M-148.2,231.2c0,0,48.4-4,65.3,0c0,0-8.1-32.4-6.7-43.5c0,0,7.4-5.7,6.7-12.4c-0.7-6.7-8.1-21.6-8.1-21.6
		l-53.1,3.6l-4,13.6c0,0-2,14.4,4,16.8C-144.2,187.7-143.5,192.2-148.2,231.2z"/>
	<path class="st3" d="M-86.5,442.3V462c0,0,10.1,17.2,10.1,51.5c0,0,9.1-28.7,11.1-51.5c0,0,10.1,25.3,9.1,52.3
		c0,0,8.6-46.2,7.6-77.3c0,0,6-20.9,0.1-75.4c0,0-19.3-102.3-34.4-130.4c0,0-27.5-3.4-35.2-1.6l10.5,232.4L-86.5,442.3z"/>
	<path class="st4" d="M-148.2,231.2c0,0-67.9,134.4-28.1,233.3c0,0,5.6-4.7,5.5-20.3c-0.1-15.6,49-146.2,49-146.2s-5.5-44.4-3-49.9
		s-4.5-18.2-4.5-18.2S-139.8,227-148.2,231.2z"/>
	<path class="st5" d="M-82.5,629.3c0,0-5.8-29.5-7.2-57.1c-1.3-27.6,0-136.9,0-136.9s24.2,3,25.6,13.1c0,0,8.7-18.2-21.5-28.3
		c0,0,2.1-11.6,2.7-35.1c0.6-23.5-5.9-39.4-7.4-63.1c-1.4-23.6-0.7-27-6.1-45.2s-5.4-45.7-5.4-45.7s-28.9-3.6-37.7-1.8v44.2
		c0,0,13.5-7.4,13.5,0.7s-13.5,15.5-13.5,15.5s2.7,17.5,0,23.5c-2.7,6.1-21.5,34.1-21.5,41.9s-10.1,32.1-10.1,51.6
		c0,19.5,0.7,35,0,45.1c-0.7,10.1,6.1,60.3,6.1,65.5s11.3,67.4-6.1,104.6C-171.1,621.9-139.2,642-82.5,629.3z"/>
	<path class="st3" d="M-84.7,566.9c-0.9,8.6-1.1,17.4-0.4,26c0.4,5.6,1.2,11.2,3.5,16.3c2.3,5.1,6.3,9.6,11.6,11.5
		c-2.1-9.6-1.9-19.6-1.6-29.4c2.2,11.5,11.5,21.4,22.9,24.4c-5.9-23.8-8.7-48.3-8.6-72.8c-7.2,11.1-12.2,23.7-14.6,36.7
		c-2-12.8-4.6-25.6-7.7-38.2c-3.7,12.6-5.4,25.9-4.9,39.1"/>
	<path class="st6" d="M-165.8,542.7c-1.9-19.1-4.5-38.1-9.9-56.5c-0.8,37.4-1.6,74.8-2.4,112.1c2-0.3,3.3-2.1,4.3-3.8
		c4.2-7,6.9-14.8,8.2-22.8C-164.1,562.1-164.8,552.4-165.8,542.7z"/>
	<path class="st3" d="M-170.3,358.3c2.1-0.5,4.7-0.1,5.8,1.8c0.5,0.9,0.4,2.3-0.5,2.7c-0.4,0.2-0.8,0.2-1.3,0.2
		c-3.9,0.1-7.4,2.4-9.8,5.5c-2.4,3-3.8,6.8-4.8,10.5c-1.7,6.2-2.7,12.8-1.8,19.1c-2.8-9.6-2-20.2,2.1-29.3
		C-178.7,364.1-175.3,359.5-170.3,358.3z"/>
	<path class="st3" d="M-170.8,388.3c1.5,0,2.5-1.5,3.2-2.8c1.4-2.7,2.6-5.5,3.6-8.3c0.5-0.3,1.1,0.4,1.2,1c0.3,1.5-0.1,3.1-0.6,4.5
		c-0.6,2-1.4,4.1-2.9,5.6c-1.5,1.5-3.9,2.3-5.9,1.5c-2.1-0.9-3.1-3.4-2.9-5.7c0.2-2.3,1.3-4.3,2.5-6.2c1.4-2.3,3.1-4.6,5.6-5.7
		c0.4-0.2,1-0.3,1.4,0c0.6,0.5,0,1.5-0.5,2.1c-2.4,2.6-4.3,5.6-5.6,8.9c-0.3,0.7-0.5,1.5-0.5,2.3c0.1,0.8,0.5,1.6,1.3,1.9
		c0.6,0.2,1.3,0,1.9-0.2c1.3-0.4,2.6-0.8,3.8-1.3"/>
	<path class="st3" d="M-150.4,374.1c1.1-0.6,2.3-1.2,2.9-2.3c-0.6,0-1.2,0.1-1.8,0.1c-1.3,0.2-8.9,2.4-8.3,4.4
		C-156.8,378.7-151,374.4-150.4,374.1z"/>
	<path class="st3" d="M-120.6,375.7c-0.7-2.7-3.3-4.7-6.1-5.2c-2.8-0.5-5.6,0.1-8.2,1.2c-1.5,0.6-3,1.4-4.3,2.5
		c-1.9,1.7-3,4-4.3,6.1c-2.2,3.5-5.7,7-9.8,6.6c-0.5,0-1-0.1-1.4,0c-1.4,0.5-1,2.9,0.4,3.4s2.9,0,4.3-0.6c2.5-1.1,5-2.2,6.8-4.2
		c1.6-1.8,2.5-4.2,3.9-6.1c1.4-2,3.4-3.5,5.7-4.4c2.1-0.8,4.5-1,6.6-0.1c2,1,3.5,3.4,2.9,5.5c-0.5,1.7-2,3-2.2,4.7
		c-0.3,1.7,0.8,3.4,2.2,4.5c1.4,1.1,3,1.7,4.6,2.5c-2.8-1.1-3.1-4.9-2.4-7.8C-121.2,381.5-119.8,378.5-120.6,375.7z"/>
	<path class="st3" d="M-128.4,378.2c-0.6,1.6-2.8,7.8-4.8,8c-2,0.2-0.8-2.5-1-3.9c-0.4,1.3-1.3,5.3-0.2,6.4
		C-130.9,392.2-128.9,379.4-128.4,378.2z"/>
	<path class="st3" d="M-170.9,400.9c1.3-0.3,2.6-0.7,3.6-1.5c1-0.8,1.7-2.2,1.3-3.5c-0.6,0.4-1.3,0.9-2,1.3c-2,1.2-4.2,2-6.4,1.4
		c-0.8-0.2-1.6-0.7-2.3-1.2c-1-0.7-1.9-1.7-3-2.3C-179,399.1-174.5,401.7-170.9,400.9z"/>
	<path class="st3" d="M-102.1,386.3c0.6-2,1.2-4.1,2.2-5.9c1.3-2.3,3.2-4.2,4-6.7c0.1-0.2,0.1-0.3,0.1-0.5c-0.1-0.3-0.5-0.4-0.8-0.5
		c-2.5-0.1-4.6,2-6,4.2c-3.8,5.8-5.8,13.2-3.2,19.6c0.8,1.9,2,3.6,3.7,4.6c1.8,1,4.1,1,5.7-0.3c-3.1,0.3-5.7-2.4-6.5-5.4
		C-103.7,392.4-103,389.2-102.1,386.3z"/>
	<path class="st3" d="M-92.4,389.3c1.3,0,2.7,0.5,3.8,1.2c0.6,0.3,1.2,0.8,1.6,1.3c1.4,1.5,1.6,3.9,0.6,5.7c-1,1.8-3.2,2.8-5.2,2.4
		c1.2-1.8,2.4-4.1,1.3-6c-0.7-1.1-2-1.7-3.3-2.1c-1.5-0.5-3.4-0.8-4.6,0.2C-96.6,390.5-94.6,389.3-92.4,389.3z"/>
	<path class="st3" d="M-78.2,364.1c5.5-0.1,10.9,1.6,15.4,4.8c2.1,1.5,4.1,3.4,6.5,4.5c-3.9-6.2-10.5-10.7-17.7-12.2
		c-2.9-0.6-6.2-0.6-8.6,1c-0.3,0.2-0.6,0.4-1,0.4c-0.4,0-0.7-0.3-1-0.6c-2-1.7-5.2-1.4-7.4,0c-2.2,1.4-3.8,3.6-5.2,5.8
		c3.2-1.7,6.7-2.7,10.2-3c-1.3,1.4-1.9,3.5-1.4,5.3c0.5,1.9,2,3.4,3.8,4c-0.3-1.7-1.4-3.2-1.5-4.9c-0.2-1.7,1.3-3.8,2.9-3.2
		c1,0.4,1.5,1.6,1.7,2.6c0.3,1.6,0.2,3.3-0.1,4.9c1.9-1.9,2.7-4.9,2-7.5c-0.1-0.5-0.3-1.1,0-1.6C-79.5,364.2-78.8,364.1-78.2,364.1z
		"/>
	<path class="st3" d="M-83.3,396.4c-0.6,2.3-0.4,5,1.1,6.8c1.5,1.8,4.8,2.2,6.3,0.3c-2-0.3-3.8-1.6-4.7-3.4
		c-0.9-1.8-0.8-4.1,0.1-5.8c0.5-0.9,1.2-1.6,1.7-2.5c0.5-0.9,0.8-1.9,0.5-2.9C-80.8,390.8-82.6,393.5-83.3,396.4z"/>
	<path class="st3" d="M-62.8,390.4c-0.9-1.4-0.5-3.3,0-4.9c2.2-7.5,6-14.4,9.8-21.2c-4.1,3.3-7,7.9-8.9,12.9
		c-1.9,4.9-2.8,10.2-3.6,15.4c-1.5-0.3-1.6-2.3-1.9-3.7c-0.4-1.5-1.4-2.9-2.9-3.4s-3.3-0.1-4.2,1.2c0.4-0.4,1.2-0.3,1.5,0.1
		c-1.1,3,1.2,6.6,4.3,7.4c3.1,0.9,6.5-0.4,8.9-2.6s4-5.1,5.4-8c2.4-4.9,4.7-10.1,4.4-15.5c0-0.7-0.1-1.5-0.6-2.1
		c-0.4-0.6-1.2-1-1.9-0.7c1.4,3.8,0.4,8.1-1.4,11.7c-1.8,3.6-4.3,6.8-6.2,10.4C-60.7,388.5-61.4,389.9-62.8,390.4z"/>
	<path class="st3" d="M-51.5,401.4c-0.6-0.1-0.9-0.7-1-1.3c-0.5-1.6-1-3.3-0.9-5c0.1-1.7,0.8-3.4,2.2-4.4c1.4-0.9,3.6-0.7,4.5,0.7
		c0.3-1.4,0.1-3.1-1-3.9c-1.1-0.8-2.6-0.5-3.8,0.2c-3.3,1.9-4.3,6.1-4.8,9.9c-0.1,0.9-0.2,1.9-0.7,2.7c-0.6,1-1.9,1.5-3.1,1.3
		c-1.2-0.2-2.2-1.1-2.4-2.3c-0.2-0.7-0.2-1.5-0.8-1.8c-0.4-0.2-0.9,0-1.2,0.3c-1.1,0.8-1.5,2.3-1.2,3.7c0.3,1.3,1.3,2.4,2.4,3.1
		c1.7,1,3.8,1.2,5.6,0.4c1.8-0.8,3.1-2.5,3.4-4.4c-0.3,1.2,0.2,2.5,1.2,3.2s2.4,0.7,3.4,0.1c1.5-0.9,1.8-2.9,2.1-4.6
		c0.4-2.5,0.8-5,1.2-7.6c-0.9,3.2-1.8,6.5-4.1,9C-50.7,401.1-51.1,401.5-51.5,401.4z"/>
	<path class="st5" d="M-74.7,390.4c0.8,1.6,0.8,3.6-0.1,5.2c-0.9,1.7-2.6,2.8-3.6,4.4c-0.2,0.3-0.3,0.6-0.3,0.9
		c0,0.2,0.2,0.4,0.3,0.6c0.6,0.8,1.5,1.5,2.4,1.9c3.2-3.4,4.3-8.6,3-13c-0.1-0.5-0.3-0.9-0.7-1.2c-0.4-0.3-1.1-0.1-1.2,0.4
		C-74.9,389.8-74.8,390.1-74.7,390.4z"/>
	<path class="st5" d="M-78.2,409.4c-1.6,0.1-3-1-4.1-2.2c-1-1-1.9-2.2-2.1-3.6c-0.1-0.6,0-1.3,0.4-1.8s1.2-0.6,1.6-0.2
		c-0.1,2.4,2.4,4.2,4.7,4.2s4.5-1.5,6.1-3.2c-0.8,2-2.1,3.9-3.8,5.4C-76.2,408.6-77.2,409.3-78.2,409.4z"/>
	<path class="st5" d="M-79.4,363.3c0.5,0.8,0.6,1.8,0.3,2.6c5.5,0.3,10.9,2.4,15.2,5.9c0.3,0.2,0.5,0.4,0.6,0.7c0.2,0.5,0,1-0.3,1.4
		c-0.9,1.7-2.2,3.2-3.1,4.9c-2.1,4-1.6,9.3,1.2,12.9c-0.3-6.2,2.2-12.1,5.1-17.6c0.7-1.3,1.4-3,0.5-4.3c-0.4-0.6-1.1-0.9-1.7-1.1
		c-1.3-0.6-2.7-1.2-4-1.8C-70.1,365.1-74.7,363.1-79.4,363.3z"/>
	<path class="st5" d="M-165.5,397c-0.3,1.1-0.6,2.3-1.1,3.4c-0.6,1.3-1.5,2.5-2.8,3.1c-1.8,0.8-3.9,0.4-5.6-0.5
		c-0.7-0.4-1.4-0.7-1.8-1.4C-173,399.9-167.1,403.3-165.5,397z"/>
	<path class="st5" d="M-68.2,404c0.8,2.9,3.6,5,6.5,5.1c3,0.1,5.9-1.6,7.3-4.2c0.4,1.2,1,2.6,2.2,2.9c0.9,0.3,1.9-0.2,2.5-0.8
		c0.6-0.7,1-1.6,1.3-2.4c0.5-1.7,0.8-3.5,0.9-5.3c-0.3,1.5-0.9,3-1.8,4.4c-0.6,0.9-1.6,1.9-2.7,1.5c-1.1-0.5-1.1-2.2-2.1-3
		c-1.4,0.9-2.6,2.2-4.1,3.1c-1.5,0.9-3.3,1.4-4.8,0.5c-1-0.6-1.7-1.7-2-2.8c-0.3-1.2-0.3-2.4-0.2-3.5c0-1.1,0-2.2-0.4-3.2
		s-1.5-1.8-2.6-1.5C-67.7,397.7-69.1,400.9-68.2,404z"/>
	<path class="st7" d="M-93.1,229.4c0,0-12.9-25.8-10.3-47c0,0,8.8-10.7,0.7-27.9h7.3c0,0,6.8,19.6-0.8,28.4c0,0-3,26.2,10.3,47.4
		L-93.1,229.4z"/>
	<path class="st7" d="M-146.3,230.4c0,0,10.8-30.5,8.8-45.2c0,0-4.9-19.6,0.3-30.7c0.5-1.1,7.8-0.8,7.8-0.8s-5,18.9-1.5,28.5
		c0,0,1.8,31.7-6.9,46.9L-146.3,230.4z"/>
	<polygon class="st8" points="-121.8,154.5 -126.4,229 -103.7,229.7 -112.5,153.7 	"/>
	<path class="st9" d="M-150,163.5c0,0-5.2,0.7-5.7-3.1c-0.5-3.8,1.9-17.6,1.9-17.6s1.6-4.5,12.1-7.3c10.5-2.8,41.6-4.9,57,2.2
		c0,0,5.6,3.5,5.4,6.1l1,15.4c0,0-2.6,7-5.3,6.1l-2-6.6l-8.8,1.7l-4.1-2.9l-8.2,1.9l-10.3-2.4l-12.5,3.3l-3.8-4.3l-7.4,4.3l-3.8-2.6
		L-150,163.5z"/>
	<path class="st10" d="M-106.4,153.6c-0.4,0-0.5-0.5-0.6-0.9c-0.5-3.9-0.9-7.7-1.4-11.6c-1.3,3.8-1.7,7.7-1.7,11.7
		c0.3,0.7,1.3,1.1,2,0.8C-106.8,153.1-107.1,154.9-106.4,153.6z"/>
	<path class="st10" d="M-98.5,139.8c0,5.4,0.1,10.8,0.1,16.2c1.7,0.7,3.2,2,4.3,3.5c-0.7-2.7-0.2-5.6,1.3-7.9
		c0.6-0.9,1.5-1.7,2.5-1.5c0.5,0.1,0.9,0.5,1.2,0.9c1.4,2.1,0.5,5.3,2.5,6.9c0.4-2.2,0.9-4.4,1.3-6.6c1.3,0.3,1.9,1.8,2.1,3.1
		c0.2,1.3,0.4,2.8,1.4,3.6c0.5-4.8,0.2-9.6-1-14.3c-0.2-0.9-0.5-1.8-0.9-2.6c-1.6-3-5.3-4.3-8.7-4c-1.6,0.1-3.2,0.5-4.6,1.5
		C-98.1,139.5-98.5,138.2-98.5,139.8z"/>
	<path class="st10" d="M-150,140.4c-2.4,1.6-2.9,4.9-3.1,7.8c-0.3,3.4-0.5,6.8-0.8,10.1c0,0.4-0.1,0.9,0.1,1.2
		c0.5,1.2,2.2,1.3,2.7,2.5c1.3-4,2.6-8,3.9-12c1.3,2.1,2.5,4.2,3.8,6.2c0.3,0.5,0.6,1,1.1,1.2c0.9,0.3,1.8-0.4,2.1-1.3
		c0.3-0.9,0.1-1.8,0-2.8c-0.9-6.5,1.4-13.4,6-18.1c-3.4-0.8-6.5,2-9.8,2.6c-1.2,0.2-2.4,0.2-3.6,0.5
		C-150.3,139.1-147.8,138.9-150,140.4z"/>
	<path class="st10" d="M-127.5,156.8c-0.9-6.4-0.3-13.4-3.5-19c-0.5,4.4-0.6,8.9-0.5,13.4c0,0.7,0,1.5,0.4,2.2
		C-130.5,154.9-128.6,155.4-127.5,156.8z"/>
	<path class="st11" d="M-157.7,643.8c-3.4,0.4-6.8,1.2-10.1,2.2c5.8,0.9,11.6,1.6,17.4,2.1c-3.1,0.2-6.1,1-8.9,2.4
		c8.6,1.1,16.3,6.2,24.9,7.6c4.5,0.8,9.2,0.5,13.8,0.2c15.4-1.2,30.7-3.3,45.9-6.4c-7.4-3.3-17.2,2.4-23.7-2.3
		c7.2-0.9,14.4-2,21.5-3.4c-4.6-1.9-9.8-2.2-14.8-2.4c-11.9-0.5-23.8-1.1-35.8-1.6c-6.5-0.3-12.9-0.6-19.4-0.2
		c-7.1,0.4-14.1,1.6-20.9,3.6"/>
	<path class="st12" d="M-178.9,653c2.1,0,4.1,0.1,6.2,0.1c-1.4-1.2-2.8-2.4-3.8-4s-1.3-3.6-0.6-5.3c0.8-1.7,2.9-2.7,4.5-1.9
		c-2.3-1-4.7-2.2-5.9-4.5c-1.2-2.4-0.6-5.2,0.1-7.7c0.7-2.7,1.7-5.8,4.3-6.9c-4.6-1.3-9-3.6-12.7-6.6c0.8,7,1.7,13.9,2.9,20.9
		c0.2,1.2,0.6,2.7,1.8,3c-1.2-0.6-2.9-0.4-3.9,0.6c-1,1-1.3,2.6-0.8,3.8c0.7,1.7,2.7,2.5,3.6,4.1c0.8,1.3,0.8,3.2,2.2,3.9
		C-180.3,653-179.6,653-178.9,653z"/>
	<path class="st12" d="M-58.4,644.9c2.8-0.7,5.6-1.4,8.5-2.2c-0.3,4-3.4,7.1-6.3,9.8c2.3-0.6,4.6-1.2,6.9-1.7c2.1-0.5,4.7-1.2,6.2-3
		c2-2.5,0.6-4.1,0.6-6.8c0-3.4,4.3-8.1,2-11.5c-3.3-5-14,1.2-17.3,3.3c3.3-2,11.5-5.6,9.9,1.5C-49,639.1-54.6,642.4-58.4,644.9z"/>
</g>
</svg>
