<?xml version="1.0" encoding="utf-8"?>
<!-- Generator: Adobe Illustrator 19.0.0, SVG Export Plug-In . SVG Version: 6.00 Build 0)  -->
<!DOCTYPE svg PUBLIC "-//W3C//DTD SVG 1.1//EN" "http://www.w3.org/Graphics/SVG/1.1/DTD/svg11.dtd">
<svg version="1.1" id="Layer_1" xmlns="http://www.w3.org/2000/svg" xmlns:xlink="http://www.w3.org/1999/xlink" x="0px" y="0px"
	 viewBox="-210 122 191 550" style="enable-background:new -210 122 191 550;" xml:space="preserve">
<style type="text/css">
	.st0{fill:#B3222D;}
	.st1{fill:#861924;}
	.st2{fill:#CC3742;}
	.st3{clip-path:url(#SVGID_2_);}
	.st4{fill:#FFFFFF;}
</style>
<g>
	<path class="st0" d="M-190.1,650.7c0,0,58.7,44.2,151.3,0c0,0,0.9-66.3-4.3-87.6c0,0-6.8-24.7-4.3-57.8
		c2.6-33.2,17.9-108-1.7-176.8s-29.8-68-29.8-128.4c0,0,0.9-7.7-6-11.9c0,0,8.5-6,8.5-15.3l-5.1-8.5c0,0,4.3-8.5,5.1-17
		c0,0-4.2-18.7-38.2-16.2c-34,2.6-40,6.8-42.5,16.2c0,0,0,12.8,3.4,16.2c0,0-11.1,17,0,24.7c0,0-4.3,8.5-2.6,21.3
		s-6,77.4-22.1,113.1S-190.1,462-185,500.2s0,52.7-5.1,72.3C-190.1,572.5-196,617.5-190.1,650.7z"/>
	<path class="st1" d="M-153.5,188.2c0,0,48.5-6,68.9,0c0,0,7.9,2.4,6.5,33.1c0,0,4.6,29.2,16.9,68.2s-3.8-3.5-3.8-3.5
		s20.5,53.9,22.7,73.3c0,0-42.2-57.9-42.2-86.9s-20-83.4-71.2-55.3C-155.9,217.1-161.2,200.1-153.5,188.2z"/>
	<path class="st1" d="M-42.4,574.2l-15.9,7.7c0,0,13.2,54.8-6.2,79.3c0,0,18.9-5.3,25.7-10.4C-38.7,650.7-40,593.9-42.4,574.2z"/>
	<path class="st2" d="M-115.7,670.3c0,0-8.9-42.6-3.8-78.3c0,0-11.9-142-10.2-198.9c0,0-22.7,106.3-28,195.5c0,0-10.6,21.2-3.2,75.6
		C-160.9,664.3-141.1,672.9-115.7,670.3z"/>
	<g>
		<defs>
			<path id="SVGID_1_" d="M-190.1,650.7c0,0,58.7,44.2,151.3,0c0,0,0.9-66.3-4.3-87.6c0,0-6.8-24.7-4.3-57.8
				c2.6-33.2,17.9-108-1.7-176.8s-29.8-68-29.8-128.4c0,0,0.9-7.7-6-11.9c0,0,8.5-6,8.5-15.3l-5.1-8.5c0,0,4.3-8.5,5.1-17
				c0,0-4.2-18.7-38.2-16.2c-34,2.6-40,6.8-42.5,16.2c0,0,0,12.8,3.4,16.2c0,0-11.1,17,0,24.7c0,0-4.3,8.5-2.6,21.3
				s-6,77.4-22.1,113.1S-190.1,462-185,500.2s0,52.7-5.1,72.3C-190.1,572.5-196,617.5-190.1,650.7z"/>
		</defs>
		<clipPath id="SVGID_2_">
			<use xlink:href="#SVGID_1_"  style="overflow:visible;"/>
		</clipPath>
		<g id="bOjIZk.tif_5_" class="st3">
			<g>
				<path class="st4" d="M90.2,368c-0.3,1.9-1.3,3.1-2.3,4.3c-2.2,2.9-4.2,5.9-6.3,8.8c-0.7,1-1.6,1.9-2.4,2.9
					c-2.3,2.9-4.6,5.7-6.8,8.7c-3,4.2-7,7.2-10.2,11.3c-1.2,1.5-2.5,3-3.9,4.4c-2.9,3-5.8,6-8.9,8.7c-3.5,3-7.2,5.6-10.9,8.3
					c-1.4,1-2.1,2.6-2.7,4.2c-1.2,2.9-2.4,5.8-3.4,8.7c-1.2,3.9-2.2,7.9-3.3,11.9c-0.7,2.6-0.9,5.2-0.5,8c0.3,2,2.6,3.2,4.2,2.2
					c3.3-2,5.5-5.3,7.7-8.5c2.8-4.3,5.5-8.8,8.2-13.2c2.3-3.7,4.4-7.5,6.7-11.1c1.8-2.8,3.7-5.6,5.7-8.2c2.5-3.2,5.1-6.4,7.8-9.3
					c2.1-2.3,4.4-4.2,6.7-6.3c0.2-0.2,0.5-0.4,0.7-0.6c2.1-2.3,4.8-3.5,7.5-4.5c2.4-0.9,5.1-0.6,7.4,0.7c0.9,0.5,1.6,1.6,2.3,2.5
					c0.5,0.6,1,1.3,1.6,2c0.5-0.9,0.9-1.5,1.2-2.3c0.4-1.3,1.1-1.6,2.3-1.6c2.4,0.1,4.8-0.1,7.1-0.2c1.1,0,2.3,0,3.4,0
					c0.5,0,1,0.1,0.6,0.9c-0.5,1.2-1,2.4-1.6,3.6c-1.1,2.3-2.3,4.5-3.4,6.8c-1.4,2.9-2.8,5.7-4.2,8.6c-0.6,1.2-1.4,2.4-2,3.7
					c-1.8,3.7-3.6,7.4-5.5,11c-1.5,2.8-3.1,5.6-4.5,8.4c-2.1,4.2-4.2,8.4-6.2,12.7c-0.3,0.6-0.5,1.3-0.6,2c-0.1,0.5-0.1,1.4,0.2,1.6
					c0.4,0.3,1.2,0.5,1.7,0.3c1.6-0.9,3.4-1.4,4.7-3.1c1.1-1.4,2.6-2.3,3.8-3.6c2.9-3.4,5.6-7.1,7.9-11.1c1-1.9,2.3-3.6,3.5-5.4
					c0.5-0.7,2.9-1.1,3.6-0.5c0.2,0.2,0.3,0.9,0.1,1.1c-0.9,1.4-1.8,2.8-2.7,4.2c-0.7,1.1-1.3,2.1-1.9,3.3c-1.9,3.4-4.1,6.5-6.5,9.4
					c-1.9,2.3-3.5,4.9-5.5,7.2c-1.7,2-3.6,3.8-5.4,5.6c-2.9,2.8-6.2,4.7-9.6,6.4c-2,1-4.3,1-6.5,0c-1.7-0.8-2.7-2.5-3-4.4
					c-0.3-1.8-0.1-3.7-0.1-5.6c0-0.3-0.1-0.7-0.2-1.2c-0.5,0.4-0.9,0.6-1.2,1c-2.8,3.4-6,6.1-9.5,8.6c-2.8,2-6,3-9.3,1.9
					c-2.1-0.7-3.8-2.1-4.5-4.9c-0.4-1.9-0.9-3.7-0.8-5.6c0.1-1.3,0.2-2.5,0.3-3.8c-0.1-0.1-0.2-0.2-0.3-0.2c-0.5,0.5-1,1-1.5,1.5
					c-1.6,1.9-3.1,3.8-4.7,5.8c-1.6,2.1-3.8,3.4-5.7,5c-2,1.6-4.2,2.4-6.5,2.8c-1.9,0.3-3.7-0.4-5.2-1.7c-2.5-2.1-3.4-5-3.8-8.3
					c-0.5-4.5,0.5-8.8,1.5-13c0.9-3.8,2.1-7.5,3.2-11.2c0.5-1.6,0.9-3.2,1.3-4.8c0.1-0.3-0.1-0.8-0.3-1c-0.2-0.2-0.5-0.2-0.8-0.1
					c-0.5,0.1-0.9,0.2-1.4,0.3c-1.3,0.1-2.6,0.1-3.9,0.3c-0.5,0.1-1.1,0.6-1.4,1.1c-2.4,4.2-4.6,8.5-7.1,12.6c-2.3,3.6-5,7-7.6,10.4
					c-3,4-6.5,7.4-10.3,10.3c-3,2.4-6.3,4.3-10,5.1c-2.7,0.6-5.4,0.2-7.4-1.9c-1.7-1.8-2.7-4.4-2.9-7.3c-0.4-5.7,0.5-11,2.3-16.3
					c0.8-2.4,1.5-4.8,2.5-7.1c1.3-3,2.8-5.8,4.3-8.7c0.9-1.7,1.9-3.5,2.9-5.1c1.2-1.9,2.4-3.7,3.7-5.5c2-2.8,3.9-5.6,6.1-8.2
					c1.7-2,3.6-3.7,5.5-5.5c3.4-3.2,7.1-5.7,11-7.8c1.9-1,3.8-1.6,5.8-1.7c2.4-0.1,4.7,0.2,6.7,2c1.5,1.3,2.1,3.3,2.4,5.3
					c0.7,4.4,0.2,8.7-1.2,12.9c-0.8,2.4-1.6,4.7-2.4,7c-0.4,1-0.8,2-1.3,2.9c-0.4,0.8-0.1,1.2,0.5,1.2c1.5-0.1,2.9-0.3,4.4-0.6
					c1.6-0.3,2.7-1.4,3.4-3.1c1.3-3.4,2.8-6.7,4.4-9.9c2.6-5.3,5.4-10.5,8.1-15.7c2.3-4.3,4.7-8.6,7.2-12.7c2.5-4.1,5.1-8,7.8-12
					c2.2-3.3,4.4-6.6,6.7-9.9c1.1-1.5,2.2-3,3.4-4.5c2-2.4,3.9-4.9,6-7.2c2.9-3.3,5.6-6.7,8.7-9.7c3.7-3.6,7.7-7,11.6-10.4
					c2.2-1.9,4.4-3.7,6.7-5.2c2.8-1.9,6-2.5,9.2-2.2c1.8,0.2,3.3,2.3,3.5,4.6c0.4,4.5-0.6,8.7-2.8,12.5c-1,1.9-2.4,2.5-4.3,2
					c0.8-1.7,1.6-3.3,2.2-5c0.8-2.2,1.5-4.5,1.9-6.9c0.3-2.1-1.6-3.5-3.3-2.3c-2.1,1.4-4.2,2.8-6,4.6c-3.9,4-7.7,8.1-11.3,12.3
					c-2.6,3-4.8,6.4-7.2,9.6c-1.8,2.5-3.6,5.1-5.4,7.6c-1.1,1.6-2,3.2-3,4.8c-1.9,3.1-3.9,6.1-5.8,9.2c-1.5,2.6-3,5.3-4.4,7.9
					c-1.7,3-3.5,5.9-5.1,8.9c-1.3,2.4-2.6,4.9-3.9,7.4c-1.4,2.7-2.7,5.5-4,8.3c-0.6,1.4-1.2,2.8-1.8,4.2c1.6,0,2.3-1.6,3.4-2.6
					c2.2-1.9,4.3-3.9,6.4-5.9c1.9-1.8,3.9-3.5,5.8-5.4c2.4-2.3,4.7-4.6,6.9-7.1c1.5-1.7,2.7-3.8,4-5.7c0.1-0.2,0.2-0.4,0.3-0.5
					c1.9-2.2,3.8-4.5,5.7-6.7c2-2.3,4.3-4.5,6.2-6.9c1.7-2.1,3-4.6,4.6-6.9c0.3-0.5,0.9-0.9,1.4-1.1C87.6,367.8,88.8,367.3,90.2,368
					z M92.4,409c0-2.4-0.9-3.7-2.4-3.3c-1.5,0.4-3.1,1.2-4.3,2.3c-2.4,2.1-4.7,4.4-6.7,6.8c-2.3,2.7-4.4,5.6-6.4,8.6
					c-2,2.9-3.8,6.1-5.6,9.2c-1.8,3.1-3.6,6.1-5.1,9.3c-2.1,4.3-4,8.7-4.4,13.8c-0.1,1.2-0.1,2.4,0.6,3.2c0.8,0.9,2,1.4,3.2,0.6
					c0.8-0.5,1.7-0.9,2.3-1.6c1.6-1.6,3.1-3.3,4.5-5.1c1.6-2.2,3.1-4.6,4.5-6.9c1.2-2,2.4-4.1,3.6-6.1c1.9-3.4,3.7-6.8,5.5-10.3
					c0.7-1.3,1.3-2.7,2-4c1.2-2.2,2.4-4.4,3.6-6.7c1.2-2.2,2.3-4.4,3.5-6.6C91.4,411.1,92,409.8,92.4,409z M-4.1,422.7
					c-0.2,0.2-0.7,0.5-1,1c-1.9,3.2-3.9,6.3-5.7,9.5c-2.3,4.1-4.4,8.4-5.7,13c-0.9,3-1.7,5.9-1.4,9.1c0.3,3.6,3.6,5.5,6.6,3.8
					c2.5-1.4,4.7-3.3,6.6-5.6c2.3-2.8,4.5-5.8,6.5-8.9c1.7-2.7,3.2-5.6,4.8-8.4c0.8-1.5,0.6-3.4-0.5-3.9c-2.4-1.2-4.6-2.6-6.4-4.8
					C-1.7,426.1-2.8,424.4-4.1,422.7z M10,429.3c0.7-1.8,1.4-3.5,2.1-5.3c1.3-3.3,2.6-6.6,2.9-10.2c0.2-1.8,0.2-3.6,0-5.4
					c-0.1-0.8-0.5-1.8-1-2.3c-1.1-1-2.3-1.6-3.8-1.1c-1.2,0.3-2.2,1-3.2,1.6c-2.5,1.4-4.3,3.6-5.5,6.3c-1.7,3.6-1.3,7.4,0.7,10.8
					C4,426.8,6.6,428.6,10,429.3z"/>
				<path class="st4" d="M-196.7,390.4c1-0.1,1.7,0,2.3-0.2c2.5-1,4.7-2.5,6.9-4.1c4.5-3.2,7.9-7.7,11.7-11.7
					c2.7-2.9,5.5-5.5,8.7-7.6c2-1.3,3.9-2.8,6-3.7c2-0.9,4.1-1.3,6.3-1c2.1,0.3,3.9,0.8,5.6,2.2c1.9,1.6,2.8,3.7,3.1,6.2
					c0.4,2.8-0.3,5.3-1.2,8c-0.9,2.7-2.3,4.9-3.7,7c-1.4,2-3.3,3.8-5.8,4c-1.6,0.1-3.1-1.7-3.2-3.5c-0.2-2.5,0.8-4.5,2-6.4
					c0.9-1.5,1.9-3,3.5-3.7c0.9-0.4,1.9-0.8,2.9-0.9c1.2-0.1,1.5-0.8,1.6-2c0.4-3.1-2.1-4.9-4.9-3.9c-3.4,1.3-6.1,3.7-8.6,6.5
					c-3.7,4-7.1,8.3-10,13c-2.8,4.5-5.5,9.1-7.4,14.3c-1.1,3.1-2.5,6.1-3.5,9.2c-1.1,3.3-1.5,6.6-0.5,10.2c1.1,4,4.1,5,7.2,4.3
					c3.4-0.8,6.2-3,8.8-5.5c1.5-1.5,3-2.8,4.4-4.3c1.6-1.8,3.2-3.7,4.7-5.6c1.5-1.9,2.9-3.8,4.2-5.8c1.8-2.6,3.5-5.3,5.2-7.9
					c1.3-1.9,2.6-3.7,3.8-5.5c1.1-1.6,2.2-3.3,3.4-4.9c1.4-1.9,2.7-3.9,4.2-5.7c1.6-2,3.1-4,4.9-5.8c2.7-2.8,5.4-5.6,8.3-8.1
					c2.6-2.3,5.6-4.1,8.8-5.1c3.3-1,6.3-0.3,8.8,2.4c0.2,0.2,0.4,0.4,0.6,0.6c0.6,0.6,1.1,0.8,1.5-0.2c0.5-1.3,1.3-1.6,2.5-1.5
					c3.7,0.1,7.4,0,11.4,0c-0.7,1.4-1.2,2.5-1.8,3.7c-2.6,5-5.2,9.9-7.8,14.8c-2,3.9-4,8-6,11.9c-1.7,3.3-3.7,6.5-5.4,9.8
					c-1.5,2.8-3,5.7-4.5,8.6c-1,2-2.1,4.1-3.1,6.2c-0.2,0.4-0.3,0.8-0.3,1.2c0,0.8-0.1,2,0.3,2.2c0.7,0.4,1.8,0.6,2.4,0.2
					c1.8-1.1,3.5-2.4,5-3.9c2.4-2.5,4.8-5,6.9-7.8c2.3-3,4.3-6.3,6.5-9.4c0.3-0.4,0.8-0.7,1.2-0.8c1.1-0.1,2.2,0,3.6,0
					c-0.6,1-1,1.8-1.5,2.6c-2.1,3.1-4.1,6.1-6.2,9.2c-1.1,1.6-2.2,3.1-3.4,4.6c-2.2,2.7-4.3,5.5-6.6,8c-3.1,3.2-6.3,6.3-9.6,9.1
					c-2.5,2.1-5.4,3.5-8.7,3.5c-3.3-0.1-5.5-3.3-5.6-6.5c0-1.5,0-3.1,0-4.8c-0.5,0.3-1.1,0.5-1.5,1c-2.1,2.9-4.7,5.1-7.4,7.2
					c-2.1,1.6-4.5,2.8-6.9,3.2c-4.1,0.7-8.4-1.9-8.9-7.6c-0.3-3.7,0.6-7.1,1.2-10.6c0-0.2,0.1-0.5,0.1-0.7c0-0.1-0.1-0.1-0.3-0.4
					c-1,1-2,1.9-3,2.9c-2.8,2.9-5.5,6-8.5,8.7c-2.8,2.4-5.7,4.7-9.1,6.1c-2.9,1.2-6,2-9.1,1.7c-5-0.4-9-4.6-10.1-10
					c-0.4-1.8-0.8-3.7-0.9-5.6c0-1.7,0.2-3.5,0.7-5.1c1.1-4.2,2.3-8.4,3.8-12.4c1-2.9,2.5-5.6,3.8-8.3c0.2-0.4,0.4-0.9,0.7-1.7
					c-1.1,0.2-2,0.3-2.8,0.5c-0.8,0.2-1.6,0.7-2.5,0.7c-1.9,0.1-2.5,1.6-3.3,3c-1.7,3.2-3.3,6.4-5.1,9.5c-1.8,3-3.8,5.9-5.9,8.6
					c-2.8,3.6-5.6,7-8.7,10.3c-1.7,1.9-3.8,3.4-5.7,5.1c-2,1.9-4.3,3.3-6.7,4.3c-3.1,1.3-6.3,1.9-9.4-0.2c-2-1.4-3.3-3.3-3.9-5.9
					c-0.6-2.6-1-5.3-0.6-8c0.4-3,0.9-6,1.6-8.9c0.6-2.5,1.4-4.9,2.4-7.2c1.4-3.2,2.8-6.4,4.5-9.4c2.2-3.8,4.4-7.7,7-11.1
					c2.7-3.7,6-6.9,8.9-10.5c2.4-3,5.4-5,8.2-7.3c2.7-2.1,5.6-3.8,8.8-4.9c2.3-0.8,4.5-1.2,6.8-0.7c2,0.4,3.7,1.7,4.9,3.8
					c1.7,3.2,1.6,6.7,1.2,10.3c-0.4,3.7-1.7,7.1-2.8,10.6C-195.5,387.9-196,388.9-196.7,390.4z M-111.8,368.6
					c-1.6,0.1-2.9,0.9-4.1,1.7c-2.5,1.7-4.3,4.2-6.1,6.7c-2.5,3.5-5.2,6.9-7.6,10.5c-2.9,4.4-5.8,8.8-8.3,13.4
					c-3,5.6-5.7,11.5-7.1,18c-0.3,1.6,0,3,1.1,3.9c0.7,0.5,1.9,0.7,2.7,0.3c2.7-1.3,4.9-3.5,6.8-6c1.3-1.8,2.5-3.8,3.6-5.7
					c2.5-4.3,5-8.6,7.4-13c2.2-3.9,4.3-7.9,6.4-11.9c2.4-4.6,4.7-9.3,7.1-13.9c0.7-1.3,0.7-2.3-0.3-3.2
					C-110.6,369-111.3,368.9-111.8,368.6z M-216.1,385.2c-0.2,0.1-0.6,0.3-0.8,0.5c-2.1,3.5-4.4,6.9-6.3,10.5c-2.1,4-4,8.2-5.7,12.5
					c-1,2.6-1.8,5.3-1.7,8.2c0.2,4.9,3.1,7.2,7.1,4.9c2.8-1.6,5-4,7.2-6.5c2.9-3.2,5.3-6.8,7.4-10.6c1.6-2.7,3.1-5.4,4.7-8.2
					c0.6-1.1,0.3-1.5-0.7-1.9c-3-1.2-5.9-2.7-8.2-5.4C-214.1,388.1-215,386.7-216.1,385.2z M-196.4,374.1c-0.2-0.7-0.3-2.1-0.9-3.3
					c-0.4-0.8-1.1-1.5-1.9-2c-2-1.2-3.9-0.2-5.6,0.8c-2,1.1-3.5,2.9-4.7,5c-2,3.4-3.2,7.9-0.4,11.7c2.1,2.8,4.9,3.9,7.9,4.5
					c0.4,0.1,1.1-0.6,1.3-1.1c0.6-1.2,1.1-2.6,1.6-3.9C-197.7,382.3-196.6,378.6-196.4,374.1z"/>
				<path class="st4" d="M4.9,332.4c-0.3-1.3-1.1-1.5-1.9-1.4c-2.1,0.2-4.2,0.2-6.2,0.9c-2.3,0.8-4.4,2.1-6.5,3.4
					c-2.7,1.7-5.3,3.5-7.9,5.5c-2,1.5-3.9,3.3-5.8,5.1c-1.6,1.5-3.1,3.1-4.6,4.7c-2.5,2.7-5,5.4-7.4,8.1c-0.6,0.7-1.1,1.5-1.7,2.2
					c-0.8,1-1.7,1.9-2.5,3c-1,1.2-1.8,2.4-2.8,3.6c-1.7,2.3-3.5,4.6-5.2,7c-2.6,3.7-5.2,7.3-7.5,11.1c-4.2,7.1-8.4,14.2-11.7,21.9
					c-2.1,4.9-4.3,9.9-6.1,15c-1.9,5.5-3.3,11.3-4,17.2c-0.3,2.4-0.6,4.8-0.7,7.2c-0.1,4.2,0.9,8.2,3.3,11.4
					c1.7,2.4,4.1,3.8,6.9,4.4c2.5,0.5,4.7-0.3,6.9-1c1.4-0.4,2.6-1.5,3.9-2.4c2.7-1.8,5.2-3.9,7.3-6.5c1.9-2.3,4.1-4.4,5.7-6.9
					c3.1-4.7,6.4-9.3,8.6-14.6c1.5-3.6,2.9-7.1,3.6-11c0.5-2.6,1.1-5.3,1.3-7.9c0.1-1.7-0.1-3.6-1.1-5.1c-0.5-0.8-3-1.5-4.2-1.1
					c-2.5,0.8-4.6,2.4-6.1,4.8c-1.4,2.2-2.8,4.3-4.1,6.5c-1.9,3.4-3,7.1-3.7,11c-0.3,1.5-0.9,2.1-2,2.8c-2.2,1.3-4.4,2.6-6.4,4.3
					c-2.3,1.8-4.4,4-6.5,6.1c-0.8,0.8-1.6,1.6-2.6,2.6c0.1-1.2,0.1-2.2,0.3-3.1c0.5-2.9,1.1-5.8,1.8-8.6c0.4-1.5,0.9-3,1.5-4.5
					c1.2-3.2,2.3-6.4,3.8-9.4c1.5-3,3.3-5.9,5.4-8.4c2.2-2.6,4.7-4.9,7.3-7c1.7-1.4,3.7-2.3,5.7-3c2.2-0.8,4.5-1.2,6.7-1.6
					c2.2-0.4,5.8,2.3,6.7,4.7c1,2.6,1.5,5.4,1.6,8.1c0,2.2-0.4,4.4-0.8,6.6c-0.3,2-0.6,4-1.2,5.9c-1.1,3.3-2.3,6.5-3.7,9.6
					c-1.2,2.7-2.4,5.4-3.9,7.9c-2.3,3.8-4.8,7.4-7.4,11c-1.3,1.8-2.8,3.5-4.3,5.2c-4.1,4.5-8.7,8.3-13.5,11.7
					c-1.3,0.9-2.7,1.8-4.2,2.3c-2.2,0.8-4.5,1.3-6.8,1.8c-3.4,0.8-6.8,0.4-10.1-0.8c-2.3-0.9-4.4-2.4-6.3-4.4
					c-1.4-1.4-2.3-3.2-3.6-4.7c-0.2-0.3-0.3-0.8-0.5-1.1c-1.7-2.6-2.2-5.8-2.9-8.9c-0.9-4-0.7-8.1-0.4-12.1c0.3-3.5,1-6.9,1.9-10.3
					c1.1-4.4,2.5-8.7,4-12.9c1.4-3.9,3.1-7.6,4.7-11.3c1-2.3,2.1-4.5,3.2-6.6c1.6-2.9,3.2-5.8,4.9-8.6c3.3-5.4,6.6-10.7,10-16
					c1.7-2.6,3.6-4.9,5.5-7.3c2-2.5,4.2-5,6.3-7.4c2.9-3.2,5.7-6.5,8.7-9.6c2.7-2.7,5.6-5.2,8.5-7.7c1.4-1.3,2.8-2.6,4.4-3.7
					c3.6-2.4,7.3-4.6,10.9-6.9c3.9-2.5,8.1-3.9,12.3-5.6c3.3-1.3,6.7-2.5,10.3-2.2c3,0.2,6,1.1,8.5,3.3c0.9,0.9,1.9,1,3,0.6
					c3.1-1.1,6.3-2.3,9.5-3.3c1-0.3,2-0.3,3-0.4c2.6-0.1,5.2-0.4,7.7,0.3c1.6,0.4,3.2,0.6,4.7,1c1.8,0.5,3.6,1.1,5.3,1.9
					c2.5,1.2,5,2.5,7.5,3.9c3.5,1.9,6.9,3.9,10.3,5.8c1.6,0.9,3.2,1.8,4.8,2.7c0.2,0.1,0.3,0.2,0.5,0.3c1.9,1.1,1.9,1.2,0.4,2.9
					c-1.6,1.8-3.2,3.6-4.7,5.4c-1.1,1.3-2.2,2.5-3.2,3.9c-0.7,0.9-1.4,0.9-2.1,0.4c-3.1-2.2-6.3-4.5-9.4-6.7c-3-2.2-6-4.5-9.1-6.4
					c-2.7-1.7-5.6-3.1-8.4-4.6c-3.2-1.6-6.6-2.4-10-3.1c-2-0.4-4,0.1-5.8,0.9c-0.4,0.2-0.5,1.4-0.6,2.1c-0.2,1.5-0.2,3.1-0.2,4.6
					c-0.1,3.3-0.9,6.5-1.9,9.6c-0.6,1.9-1.1,3.8-1.8,5.6c-1.1,3-2.3,6-4.1,8.6c-2.1,3-3.9,6.3-6,9.3c-1.1,1.6-2.4,3-3.8,4.3
					c-1.7,1.6-3.5,3.3-5.5,4.4c-2.5,1.5-5.2,2.9-8.2,2.6c-3-0.3-5.2-2.9-5.9-6.8c-0.6-3.4,0.2-6.4,1.3-9.4c1-2.8,2.1-5.6,3.5-8.1
					c3.3-6.1,7-11.9,11.7-16.7c1.8-1.8,3.7-3.7,5.6-5.3c2.3-1.9,4.7-3.5,7-5.3C4.1,333.4,4.5,332.9,4.9,332.4z M8.3,338.6
					c0-2.3-0.3-2.6-2.2-1.7c-1,0.5-2,1-2.8,1.7C1.2,340.4-1,342.1-3,344c-1.8,1.7-3.5,3.5-5,5.5c-2,2.4-4,4.8-5.7,7.5
					c-1.9,3-3.6,6.3-5.2,9.6c-1.6,3.3-3.1,6.7-2.9,10.7c0.1,1.9,1.9,4.2,3.6,4c2-0.3,3.8-1.1,5.4-2.5c1.1-1,2.2-2,3.3-3
					c1.2-1.1,2.5-2.1,3.6-3.4c1.6-1.9,3.1-3.8,4.4-5.9c1.6-2.3,3.1-4.7,4.4-7.3c1-2,1.6-4.2,2.5-6.3C7.2,348.4,8.1,343.6,8.3,338.6z
					"/>
				<path class="st4" d="M-109,475.8c-0.6-0.4-1.2-0.8-1.8-1.2c-1.6-1-3.1-2-4.7-2.8c-1.7-0.8-3.5-1.5-5.3-2.2c-2-0.7-4.1-1.5-6.2-2
					c-2-0.5-4-0.8-5.9-1.1c-1.3-0.2-2.7-0.1-4.1-0.2c-3.5-0.2-6.8,0.3-10.2,1.3c-2.6,0.8-4.8,2.3-6.8,4.5c-0.9,0.9-1.7,1.9-2.5,2.9
					c-0.4,0.5-0.8,0.6-1.2,0c-1.2-1.5-2.3-3.1-3.5-4.5c-0.9-1-1.7-2.1-2.8-2.8c-2.1-1.5-4.3-3.1-6.6-4.1c-2.9-1.3-5.9-2.1-9-2.9
					c-1.7-0.4-3.6-0.5-5.4-0.6c-2.1-0.1-4.2-0.2-6.3,0c-3.6,0.3-7.2,0.7-10.7,1.3c-3.7,0.6-7.4,1.5-11.1,2.3c-1.4,0.3-2.8,1-4.3,1.4
					c-1,0.3-2,0.4-3,0.6c-3.5,0.9-7,1.9-10.5,2.9c-2.5,0.7-5,1.2-7.5,1.8c-3.4,0.8-6.7,1.9-10.1,2.5c-3.9,0.6-7.8,0.9-11.7,1
					c-2.1,0.1-4.2-0.8-6.3-0.9c-2.7-0.2-5.1-1.4-7.5-2.6c-2.9-1.4-5.6-3.3-7.8-5.9c-1.8-2.1-3.7-4.2-5-6.7c-1.5-2.7-2.5-5.8-3.2-9
					c-1.2-5.3-1.6-10.6-1.3-16c0.2-3.5,0.6-7,1.2-10.5c0.6-3.3,1.3-6.5,2.2-9.7c0.8-2.8,1.9-5.6,2.8-8.3c0.8-2.3,1.7-4.7,2.6-7
					c0.8-2,1.7-3.9,2.7-5.8c1.8-3.3,3.5-6.5,5.5-9.7c2.6-4.3,5.3-8.7,8.2-12.8c1.9-2.8,4.1-5.3,6.3-7.9c1.6-2,3.2-4,4.9-5.8
					c2.5-2.6,5.2-5.2,7.8-7.6c2.8-2.6,5.7-5.3,8.6-7.7c2.7-2.2,5.4-4.3,8.5-5.8c1.5-0.7,2.9-1.8,4.4-2.6c4-2.2,8.2-4,12.6-5.2
					c2.7-0.7,5.4-1.3,8.2-1.2c4.9,0.1,9,3,10.1,8.8c0.4,1.9,0.3,3.9-0.1,5.9c-1,4.8-3,9-6,12.4c-1.6,1.8-3.5,2.7-5.9,1.9
					c-1.3-0.4-2-1.5-2-3.4c0-2.7,0.8-5.1,2.3-7.1c1.1-1.3,2.3-2.6,3.6-3.5c0.8-0.6,1.8-0.7,2.8-0.7c1.1,0,1.6-0.8,1.7-1.7
					c0.6-3.8-0.7-6.3-4.5-6.7c-2.7-0.3-5.2,1-7.6,2.1c-2.4,1.1-4.7,2.4-6.9,3.9c-2.5,1.8-4.9,3.9-7.3,5.9c-1.2,1-2.3,2-3.4,3.1
					c-0.8,0.7-1.5,1.6-2.2,2.4c-3.6,4.2-7.2,8.4-10.7,12.7c-1.9,2.3-3.7,4.8-5.5,7.2c-1.8,2.6-3.5,5.2-5.1,7.9
					c-2.3,3.8-4.7,7.6-6.9,11.5c-2,3.8-3.8,7.7-5.6,11.6c-0.6,1.3-1.2,2.5-1.8,3.8c-0.8,1.9-1.5,3.7-2.1,5.7
					c-1.2,3.7-2.5,7.4-3.4,11.3c-1,4.2-2.2,8.4-2.2,12.8c0,2.4-0.2,4.9-0.2,7.3c0.1,3.7,0.9,7.2,2.2,10.6c1.1,2.9,2.6,5.6,4.8,7.6
					c1.9,1.7,4.1,3,6.2,4.2c2.9,1.7,6.2,2.5,9.4,3.1c2.5,0.4,5.1,0.6,7.7-0.1c1.6-0.4,3.3-0.4,4.9-0.6c2-0.3,4.1-0.6,6.1-1.1
					c3.4-0.8,6.8-1.7,10.2-2.6c3.3-0.9,6.5-1.9,9.7-2.8c2.6-0.7,5.3-1.2,8-1.9c2.5-0.7,5-1.5,7.5-2.2c3.7-1,7.4-2,11.2-2.9
					c3-0.7,6-1.3,9-1.8c2-0.3,4-0.4,6-0.5c4-0.3,8.1-0.8,12.1-0.7c3.4,0.1,6.9,0.6,10.3,1.2c2.9,0.5,5.9,1.2,8.7,2.1
					c2.4,0.8,4.6,2.1,6.9,3.2c1.3,0.6,2.5,1.4,3.7,2.2c2,1.4,3.9,2.9,5.8,4.4c2.4,1.9,4.8,3.8,7,5.9c2.5,2.3,4.9,4.8,7.3,7.2
					C-108.8,475.5-108.9,475.7-109,475.8z"/>
				<path class="st4" d="M131,332.2c-1,2.4-1.6,4.9-3.3,6.9c-1.8,2-3.4,4.3-5.2,6.3c-0.8,1-1.8,1.7-2.8,2.5
					c-2.1,1.7-4.1,3.4-6.2,4.9c-2.2,1.6-4.3,3.2-6.6,4.6c-3.2,1.8-6.4,3.5-9.7,5.1c-1.2,0.6-2.5,0.9-3.8,1.1c-2.8,0.4-5.6,0.9-8.5,1
					c-1.6,0.1-3.2-0.4-4.9-0.7c-0.6-0.1-0.8-0.4-0.3-1.1c1.2-1.8,2.4-3.7,3.6-5.5c1.2-1.8,2.3-3.7,3.6-5.4c0.4-0.5,1.2-0.9,1.8-1
					c4.8-0.2,9.5-0.5,14.2-1.7c2-0.5,4-1.5,5.9-2.5c3.2-1.7,6.2-3.6,9.3-5.5c2.5-1.6,5.1-3.2,7.5-5c1.5-1.1,2.9-2.5,4.3-3.8
					c0.2-0.2,0.5-0.4,0.8-0.6C130.8,332,130.9,332.1,131,332.2z"/>
				<path class="st4" d="M-88.5,376c0.8-1.4,1.5-2.8,2.3-4.2c1.3-2.5,2.6-4.9,3.9-7.4c0.2-0.4,0.7-0.7,1-0.8c3.7-0.1,7.4,0,11.3,0
					c-0.6,1.1-1,2.1-1.6,3.1c-1.6,3-3.2,6-4.9,8.9c-0.3,0.5-0.9,0.9-1.4,0.9c-1.3,0-2.7-0.2-4.1-0.2c-1.8,0-3.6,0-5.4,0
					c-0.4,0-0.7,0-1.1,0C-88.4,376.2-88.4,376.1-88.5,376z"/>
			</g>
		</g>
	</g>
	<path class="st2" d="M-82.1,147.4c0,0-33.2-21.3-68.9,0C-150.9,147.4-135.6,139.7-82.1,147.4z"/>
	<path class="st2" d="M-190.1,650.7c0,0-6.5-48.3,0-78.2c0,0,8.6-20.9,7.2-43.7l-5.8-68.1c0,0,14.7,60.9,15.8,84.6
		c1.1,23.7-13.7,73.4-2,113.7C-174.9,659-189.2,653.4-190.1,650.7z"/>
	<path class="st2" d="M-187.2,364.2c0,0,0.2-29.9,16.6-60.9c0,0,16.5-72.7,14.7-86.2c0,0,9.5-5.4,16.3-6.5
		C-139.6,210.5-157.5,345.6-187.2,364.2z"/>
	<path class="st1" d="M-58.3,581.8c0,0,9.4-23.1,9.4-51.9c0,0,7.9,31.7,6.5,48.7C-42.4,578.6-43.5,594.4-58.3,581.8z"/>
	<path class="st1" d="M-79.4,174.9c0,0-43.2-36.8-74.9,3C-154.3,177.9-122.5,153.3-79.4,174.9z"/>
</g>
</svg>
