<?xml version="1.0" encoding="utf-8"?>
<!-- Generator: Adobe Illustrator 19.0.0, SVG Export Plug-In . SVG Version: 6.00 Build 0)  -->
<!DOCTYPE svg PUBLIC "-//W3C//DTD SVG 1.1//EN" "http://www.w3.org/Graphics/SVG/1.1/DTD/svg11.dtd">
<svg version="1.1" id="Layer_1" xmlns="http://www.w3.org/2000/svg" xmlns:xlink="http://www.w3.org/1999/xlink" x="0px" y="0px"
	 viewBox="-210 122 191 550" style="enable-background:new -210 122 191 550;" xml:space="preserve">
<style type="text/css">
	.st0{fill:#362923;}
	.st1{fill:#8A7D72;}
	.st2{fill:#847743;}
	.st3{fill:#5B0C14;}
	.st4{fill:#B3222D;}
	.st5{fill:#141217;}
	.st6{fill:#736B60;}
	.st7{fill:#F0E5D4;}
	.st8{fill:#3E3634;}
	.st9{fill:#490B14;}
	.st10{fill:#FFFFFF;}
</style>
<path class="st0" d="M-118.3,662.7V244.5h-37.5c0,0-28.8,71.5-28.1,81.5l3.6,8.1c0,0-16.5,36.2-6.7,94.9l-3.1,6.2
	c0,0,3.6,32.4,4,46.7c0.4,14.3,7.6,66.7,4.5,79.1c-3.1,12.4-9.8,59.1-5.4,84.4C-187,645.3-154,664.9-118.3,662.7z"/>
<path class="st1" d="M-118.3,644.4c0,0-53.6-1.4-69.9-9c0,0-2,10.9,4.3,18.1c0,0,29.7,15.3,65.6,12.4V644.4z"/>
<polygon class="st2" points="-118.3,242.1 -118.3,252.3 -158.9,252.3 -154.2,242.1 "/>
<path class="st1" d="M-118.3,242.1v-92.9h-30.8c0,0-8.7,14.3,0,28.2c0,0,0.5,39.7-5.1,64.6H-118.3z"/>
<path class="st3" d="M-118.3,129.7v22l-8.7-2.5l-9.3,3.2l-6.7-3.2l-5,3.2l-5.5-3.2l2.3-14.8C-151.1,134.3-146.2,127.9-118.3,129.7z"
	/>
<path class="st4" d="M-118.3,134.3c0,0-21.4,1.6-26.6-1.8c0,0,6.5-3.4,26.6-2.9V134.3z"/>
<polygon class="st4" points="-127,149.2 -125.3,135.8 -122,135.8 -122,151.3 "/>
<path class="st0" d="M-118.7,662.7V244.5h37.5c0,0,28.8,71.5,28.1,81.5l-3.6,8.1c0,0,16.5,36.2,6.7,94.9l3.1,6.2
	c0,0-3.6,32.4-4,46.7c-0.4,14.3-7.6,66.7-4.5,79.1c3.1,12.4,9.8,59.1,5.4,84.4C-50,645.3-83,664.9-118.7,662.7z"/>
<path class="st1" d="M-118.7,644.4c0,0,53.6-1.4,69.9-9c0,0,2,10.9-4.3,18.1c0,0-29.7,15.3-65.6,12.4V644.4z"/>
<polygon class="st2" points="-118.7,242.1 -118.7,252.3 -78.1,252.3 -82.8,242.1 "/>
<polygon class="st5" points="-110,335.7 -78.1,334.5 -91.3,275.4 -82.8,331.5 "/>
<path class="st6" d="M-96.6,443.6l8.6,3.9L-94,566.2c0,0-1,16.4,0,21.1c1,4.6,6.9,45.9,1.6,46.4c0,0-3,0.1-6-23.8
	s-1.7-68.8-1.3-77.7c0.3-8.8,3-81.1,3-81.1S-94.3,444.7-96.6,443.6z"/>
<polygon class="st6" points="-110,262.7 -100.2,326 -108.7,326 "/>
<path class="st7" d="M-61.9,642.2c0,0,4.7,18.7-37.4,20.7C-99.3,662.9-66.4,658.4-61.9,642.2z"/>
<path class="st1" d="M-118.7,242.1v-92.9h30.8c0,0,8.7,14.3,0,28.2c0,0-0.5,39.7,5.1,64.6H-118.7z"/>
<path class="st8" d="M-90.1,242.1l-6.5-63.4c0,0,11.7-16.6,0-29.5h-3.6c0,0,6.2,20.9-4.9,29.5l6.7,63.4H-90.1z"/>
<path class="st3" d="M-118.7,129.7v22l8.7-2.5l9.3,3.2l6.7-3.2l5,3.2l5.5-3.2l-2.3-14.8C-85.9,134.3-90.8,127.9-118.7,129.7z"/>
<path class="st4" d="M-118.7,134.3c0,0,21.4,1.6,26.6-1.8c0,0-6.5-3.4-26.6-2.9V134.3z"/>
<polygon class="st4" points="-110,149.2 -111.7,135.8 -115,135.8 -115,151.3 "/>
<polygon class="st4" points="-100.8,152.4 -103.3,135.8 -107,135.8 -106.3,150.5 "/>
<polygon class="st4" points="-94.1,149.2 -96.6,136.3 -100,136.3 -97.6,151.3 "/>
<path class="st3" d="M-186.4,428.7c0,0,71,27,137,0c0,0,8.2-51.3-6.7-94.9c0,0-51.3,14.4-123.6,0
	C-179.7,333.8-199.3,369.6-186.4,428.7z"/>
<path class="st9" d="M-122.3,431.4c0,0-53.5,4.6-62.9-8.6c0,0-7.9-55.1,6.2-82.2c0,0-7.4,52.9,1.6,72.2
	C-177.4,412.8-169.5,430.4-122.3,431.4z"/>
<path class="st9" d="M-114.7,431.4c0,0,53.5,4.6,62.9-8.6c0,0,7.9-55.1-6.2-82.2c0,0,7.4,52.9-1.6,72.2
	C-59.6,412.8-67.5,430.4-114.7,431.4z"/>
<g id="bOjIZk.tif_4_">
	<g>
		<path class="st10" d="M-65.7,373.1c-0.1,0.6-0.4,1-0.7,1.4c-0.7,0.9-1.3,1.9-2,2.8c-0.2,0.3-0.5,0.6-0.8,0.9
			c-0.7,0.9-1.5,1.8-2.1,2.7c-1,1.3-2.2,2.3-3.2,3.5c-0.4,0.5-0.8,0.9-1.2,1.4c-0.9,0.9-1.8,1.9-2.8,2.7c-1.1,0.9-2.3,1.8-3.4,2.6
			c-0.4,0.3-0.6,0.8-0.9,1.3c-0.4,0.9-0.8,1.8-1.1,2.7c-0.4,1.2-0.7,2.5-1.1,3.7c-0.2,0.8-0.3,1.7-0.1,2.5c0.1,0.6,0.8,1,1.3,0.7
			c1-0.6,1.7-1.7,2.4-2.7c0.9-1.4,1.7-2.8,2.6-4.1c0.7-1.2,1.4-2.3,2.1-3.5c0.6-0.9,1.2-1.7,1.8-2.6c0.8-1,1.6-2,2.4-2.9
			c0.7-0.7,1.4-1.3,2.1-2c0.1-0.1,0.2-0.1,0.2-0.2c0.7-0.7,1.5-1.1,2.4-1.4c0.8-0.3,1.6-0.2,2.3,0.2c0.3,0.2,0.5,0.5,0.7,0.8
			c0.2,0.2,0.3,0.4,0.5,0.6c0.1-0.3,0.3-0.5,0.4-0.7c0.1-0.4,0.3-0.5,0.7-0.5c0.7,0,1.5,0,2.2-0.1c0.4,0,0.7,0,1.1,0
			c0.2,0,0.3,0,0.2,0.3c-0.2,0.4-0.3,0.8-0.5,1.1c-0.4,0.7-0.7,1.4-1.1,2.1c-0.4,0.9-0.9,1.8-1.3,2.7c-0.2,0.4-0.4,0.8-0.6,1.2
			c-0.6,1.1-1.1,2.3-1.7,3.5c-0.5,0.9-1,1.8-1.4,2.6c-0.7,1.3-1.3,2.7-2,4c-0.1,0.2-0.2,0.4-0.2,0.6c0,0.2,0,0.4,0.1,0.5
			c0.1,0.1,0.4,0.2,0.5,0.1c0.5-0.3,1.1-0.4,1.5-1c0.3-0.4,0.8-0.7,1.2-1.1c0.9-1.1,1.8-2.2,2.5-3.5c0.3-0.6,0.7-1.1,1.1-1.7
			c0.2-0.2,0.9-0.3,1.1-0.2c0.1,0.1,0.1,0.3,0,0.3c-0.3,0.5-0.6,0.9-0.9,1.3c-0.2,0.3-0.4,0.7-0.6,1c-0.6,1.1-1.3,2-2,3
			c-0.6,0.7-1.1,1.5-1.7,2.2c-0.5,0.6-1.1,1.2-1.7,1.8c-0.9,0.9-2,1.5-3,2c-0.6,0.3-1.4,0.3-2,0c-0.5-0.3-0.8-0.8-0.9-1.4
			c-0.1-0.6,0-1.2,0-1.8c0-0.1,0-0.2-0.1-0.4c-0.2,0.1-0.3,0.2-0.4,0.3c-0.9,1.1-1.9,1.9-3,2.7c-0.9,0.6-1.9,1-2.9,0.6
			c-0.7-0.2-1.2-0.7-1.4-1.5c-0.1-0.6-0.3-1.2-0.3-1.8c0-0.4,0.1-0.8,0.1-1.2c0,0-0.1-0.1-0.1-0.1c-0.2,0.2-0.3,0.3-0.5,0.5
			c-0.5,0.6-1,1.2-1.5,1.8c-0.5,0.7-1.2,1.1-1.8,1.6c-0.6,0.5-1.3,0.8-2,0.9c-0.6,0.1-1.2-0.1-1.6-0.5c-0.8-0.7-1.1-1.6-1.2-2.6
			c-0.2-1.4,0.1-2.8,0.5-4.1c0.3-1.2,0.7-2.3,1-3.5c0.1-0.5,0.3-1,0.4-1.5c0-0.1,0-0.2-0.1-0.3c0-0.1-0.2-0.1-0.3,0
			c-0.1,0-0.3,0.1-0.4,0.1c-0.4,0-0.8,0-1.2,0.1c-0.2,0-0.3,0.2-0.4,0.4c-0.8,1.3-1.4,2.7-2.2,4c-0.7,1.1-1.6,2.2-2.4,3.3
			c-0.9,1.3-2,2.3-3.2,3.2c-1,0.7-2,1.4-3.1,1.6c-0.8,0.2-1.7,0.1-2.3-0.6c-0.5-0.6-0.8-1.4-0.9-2.3c-0.1-1.8,0.2-3.5,0.7-5.1
			c0.3-0.7,0.5-1.5,0.8-2.2c0.4-0.9,0.9-1.8,1.4-2.7c0.3-0.6,0.6-1.1,0.9-1.6c0.4-0.6,0.8-1.2,1.2-1.7c0.6-0.9,1.2-1.8,1.9-2.6
			c0.5-0.6,1.1-1.2,1.7-1.7c1.1-1,2.2-1.8,3.5-2.5c0.6-0.3,1.2-0.5,1.8-0.5c0.7,0,1.5,0.1,2.1,0.6c0.5,0.4,0.7,1,0.8,1.7
			c0.2,1.4,0.1,2.7-0.4,4.1c-0.2,0.7-0.5,1.5-0.8,2.2c-0.1,0.3-0.3,0.6-0.4,0.9c-0.1,0.2,0,0.4,0.2,0.4c0.5,0,0.9-0.1,1.4-0.2
			c0.5-0.1,0.8-0.4,1.1-1c0.4-1.1,0.9-2.1,1.4-3.1c0.8-1.7,1.7-3.3,2.6-4.9c0.7-1.4,1.5-2.7,2.3-4c0.8-1.3,1.6-2.5,2.4-3.8
			c0.7-1,1.4-2.1,2.1-3.1c0.3-0.5,0.7-0.9,1.1-1.4c0.6-0.8,1.2-1.5,1.9-2.3c0.9-1,1.8-2.1,2.7-3c1.2-1.1,2.4-2.2,3.6-3.3
			c0.7-0.6,1.4-1.2,2.1-1.6c0.9-0.6,1.9-0.8,2.9-0.7c0.6,0.1,1,0.7,1.1,1.5c0.1,1.4-0.2,2.7-0.9,3.9c-0.3,0.6-0.8,0.8-1.4,0.6
			c0.2-0.5,0.5-1,0.7-1.6c0.2-0.7,0.5-1.4,0.6-2.2c0.1-0.7-0.5-1.1-1-0.7c-0.7,0.4-1.3,0.9-1.9,1.4c-1.2,1.2-2.4,2.5-3.6,3.9
			c-0.8,1-1.5,2-2.3,3c-0.6,0.8-1.1,1.6-1.7,2.4c-0.3,0.5-0.6,1-1,1.5c-0.6,1-1.2,1.9-1.8,2.9c-0.5,0.8-0.9,1.7-1.4,2.5
			c-0.5,0.9-1.1,1.9-1.6,2.8c-0.4,0.8-0.8,1.6-1.2,2.3c-0.4,0.9-0.9,1.7-1.3,2.6c-0.2,0.4-0.4,0.9-0.6,1.3c0.5,0,0.7-0.5,1.1-0.8
			c0.7-0.6,1.4-1.2,2-1.8c0.6-0.6,1.2-1.1,1.8-1.7c0.7-0.7,1.5-1.5,2.2-2.2c0.5-0.5,0.8-1.2,1.3-1.8c0-0.1,0.1-0.1,0.1-0.2
			c0.6-0.7,1.2-1.4,1.8-2.1c0.6-0.7,1.3-1.4,2-2.2c0.5-0.7,1-1.5,1.4-2.2c0.1-0.1,0.3-0.3,0.4-0.3C-66.5,373-66.1,372.8-65.7,373.1z
			 M-65,386c0-0.8-0.3-1.2-0.8-1c-0.5,0.1-1,0.4-1.3,0.7c-0.7,0.7-1.5,1.4-2.1,2.2c-0.7,0.8-1.4,1.8-2,2.7c-0.6,0.9-1.2,1.9-1.7,2.9
			c-0.6,1-1.1,1.9-1.6,2.9c-0.7,1.4-1.3,2.7-1.4,4.3c0,0.4,0,0.8,0.2,1c0.3,0.3,0.6,0.4,1,0.2c0.3-0.2,0.5-0.3,0.7-0.5
			c0.5-0.5,1-1,1.4-1.6c0.5-0.7,1-1.4,1.4-2.2c0.4-0.6,0.8-1.3,1.1-1.9c0.6-1.1,1.2-2.1,1.7-3.2c0.2-0.4,0.4-0.8,0.6-1.2
			c0.4-0.7,0.8-1.4,1.1-2.1c0.4-0.7,0.7-1.4,1.1-2.1C-65.3,386.6-65.1,386.2-65,386z M-95.3,390.3c-0.1,0.1-0.2,0.2-0.3,0.3
			c-0.6,1-1.2,2-1.8,3c-0.7,1.3-1.4,2.6-1.8,4.1c-0.3,0.9-0.5,1.8-0.5,2.9c0.1,1.1,1.1,1.7,2.1,1.2c0.8-0.4,1.5-1,2.1-1.7
			c0.7-0.9,1.4-1.8,2-2.8c0.5-0.8,1-1.8,1.5-2.7c0.3-0.5,0.2-1.1-0.1-1.2c-0.8-0.4-1.4-0.8-2-1.5C-94.6,391.4-94.9,390.8-95.3,390.3
			z M-90.9,392.4c0.2-0.6,0.4-1.1,0.7-1.7c0.4-1,0.8-2.1,0.9-3.2c0.1-0.6,0.1-1.1,0-1.7c0-0.3-0.2-0.6-0.3-0.7
			c-0.3-0.3-0.7-0.5-1.2-0.4c-0.4,0.1-0.7,0.3-1,0.5c-0.8,0.4-1.3,1.1-1.7,2c-0.5,1.1-0.4,2.3,0.2,3.4
			C-92.8,391.6-91.9,392.1-90.9,392.4z"/>
		<path class="st10" d="M-155.9,380.1c0.3,0,0.5,0,0.7-0.1c0.8-0.3,1.5-0.8,2.2-1.3c1.4-1,2.5-2.4,3.7-3.7c0.8-0.9,1.7-1.7,2.7-2.4
			c0.6-0.4,1.2-0.9,1.9-1.2c0.6-0.3,1.3-0.4,2-0.3c0.6,0.1,1.2,0.2,1.8,0.7c0.6,0.5,0.9,1.2,1,1.9c0.1,0.9-0.1,1.7-0.4,2.5
			c-0.3,0.8-0.7,1.5-1.2,2.2c-0.4,0.6-1,1.2-1.8,1.3c-0.5,0-1-0.5-1-1.1c-0.1-0.8,0.3-1.4,0.6-2c0.3-0.5,0.6-0.9,1.1-1.2
			c0.3-0.1,0.6-0.2,0.9-0.3c0.4,0,0.5-0.3,0.5-0.6c0.1-1-0.7-1.5-1.5-1.2c-1.1,0.4-1.9,1.2-2.7,2c-1.2,1.3-2.2,2.6-3.2,4.1
			c-0.9,1.4-1.7,2.9-2.3,4.5c-0.4,1-0.8,1.9-1.1,2.9c-0.3,1-0.5,2.1-0.2,3.2c0.4,1.2,1.3,1.6,2.3,1.4c1.1-0.2,2-0.9,2.8-1.7
			c0.5-0.5,1-0.9,1.4-1.4c0.5-0.6,1-1.2,1.5-1.8c0.5-0.6,0.9-1.2,1.3-1.8c0.6-0.8,1.1-1.7,1.6-2.5c0.4-0.6,0.8-1.2,1.2-1.7
			c0.4-0.5,0.7-1,1.1-1.5c0.4-0.6,0.9-1.2,1.3-1.8c0.5-0.6,1-1.3,1.5-1.8c0.8-0.9,1.7-1.8,2.6-2.5c0.8-0.7,1.8-1.3,2.8-1.6
			c1-0.3,2-0.1,2.8,0.8c0.1,0.1,0.1,0.1,0.2,0.2c0.2,0.2,0.4,0.3,0.5-0.1c0.2-0.4,0.4-0.5,0.8-0.5c1.2,0,2.3,0,3.6,0
			c-0.2,0.4-0.4,0.8-0.6,1.2c-0.8,1.6-1.6,3.1-2.4,4.7c-0.6,1.2-1.2,2.5-1.9,3.7c-0.5,1-1.2,2-1.7,3.1c-0.5,0.9-0.9,1.8-1.4,2.7
			c-0.3,0.6-0.6,1.3-1,1.9c-0.1,0.1-0.1,0.3-0.1,0.4c0,0.2,0,0.6,0.1,0.7c0.2,0.1,0.6,0.2,0.8,0.1c0.6-0.4,1.1-0.8,1.6-1.2
			c0.8-0.8,1.5-1.6,2.2-2.5c0.7-0.9,1.4-2,2-3c0.1-0.1,0.2-0.2,0.4-0.2c0.3,0,0.7,0,1.1,0c-0.2,0.3-0.3,0.6-0.5,0.8
			c-0.6,1-1.3,1.9-2,2.9c-0.3,0.5-0.7,1-1.1,1.5c-0.7,0.9-1.3,1.7-2.1,2.5c-1,1-2,2-3,2.9c-0.8,0.7-1.7,1.1-2.7,1.1
			c-1,0-1.7-1-1.8-2c0-0.5,0-1,0-1.5c-0.1,0.1-0.4,0.1-0.5,0.3c-0.7,0.9-1.5,1.6-2.3,2.3c-0.7,0.5-1.4,0.9-2.2,1
			c-1.3,0.2-2.6-0.6-2.8-2.4c-0.1-1.2,0.2-2.2,0.4-3.3c0-0.1,0-0.2,0-0.2c0,0,0,0-0.1-0.1c-0.3,0.3-0.6,0.6-0.9,0.9
			c-0.9,0.9-1.7,1.9-2.7,2.7c-0.9,0.8-1.8,1.5-2.9,1.9c-0.9,0.4-1.9,0.6-2.9,0.5c-1.6-0.1-2.8-1.4-3.2-3.1c-0.1-0.6-0.3-1.2-0.3-1.8
			c0-0.5,0.1-1.1,0.2-1.6c0.4-1.3,0.7-2.6,1.2-3.9c0.3-0.9,0.8-1.8,1.2-2.6c0.1-0.1,0.1-0.3,0.2-0.5c-0.3,0.1-0.6,0.1-0.9,0.2
			c-0.3,0.1-0.5,0.2-0.8,0.2c-0.6,0-0.8,0.5-1,1c-0.5,1-1,2-1.6,3c-0.6,0.9-1.2,1.9-1.9,2.7c-0.9,1.1-1.8,2.2-2.7,3.2
			c-0.5,0.6-1.2,1.1-1.8,1.6c-0.6,0.6-1.3,1-2.1,1.3c-1,0.4-2,0.6-3,0c-0.6-0.4-1-1-1.2-1.9c-0.2-0.8-0.3-1.7-0.2-2.5
			c0.1-0.9,0.3-1.9,0.5-2.8c0.2-0.8,0.4-1.5,0.7-2.3c0.4-1,0.9-2,1.4-2.9c0.7-1.2,1.4-2.4,2.2-3.5c0.9-1.2,1.9-2.2,2.8-3.3
			c0.8-0.9,1.7-1.6,2.6-2.3c0.9-0.7,1.8-1.2,2.8-1.5c0.7-0.2,1.4-0.4,2.1-0.2c0.6,0.1,1.2,0.5,1.5,1.2c0.5,1,0.5,2.1,0.4,3.2
			c-0.1,1.2-0.5,2.2-0.9,3.3C-155.5,379.3-155.7,379.6-155.9,380.1z M-129.2,373.3c-0.5,0-0.9,0.3-1.3,0.5c-0.8,0.5-1.4,1.3-1.9,2.1
			c-0.8,1.1-1.6,2.2-2.4,3.3c-0.9,1.4-1.8,2.8-2.6,4.2c-1,1.8-1.8,3.6-2.2,5.7c-0.1,0.5,0,1,0.3,1.2c0.2,0.2,0.6,0.2,0.8,0.1
			c0.8-0.4,1.6-1.1,2.2-1.9c0.4-0.6,0.8-1.2,1.1-1.8c0.8-1.4,1.6-2.7,2.3-4.1c0.7-1.2,1.4-2.5,2-3.7c0.8-1.5,1.5-2.9,2.2-4.4
			c0.2-0.4,0.2-0.7-0.1-1C-128.8,373.4-129,373.3-129.2,373.3z M-162,378.5c-0.1,0-0.2,0.1-0.2,0.2c-0.7,1.1-1.4,2.2-2,3.3
			c-0.7,1.3-1.3,2.6-1.8,3.9c-0.3,0.8-0.6,1.7-0.5,2.6c0.1,1.5,1,2.3,2.2,1.6c0.9-0.5,1.6-1.3,2.3-2c0.9-1,1.7-2.1,2.3-3.3
			c0.5-0.9,1-1.7,1.5-2.6c0.2-0.3,0.1-0.5-0.2-0.6c-0.9-0.4-1.9-0.9-2.6-1.7C-161.4,379.4-161.7,378.9-162,378.5z M-155.8,375
			c-0.1-0.2-0.1-0.7-0.3-1c-0.1-0.3-0.4-0.5-0.6-0.6c-0.6-0.4-1.2-0.1-1.8,0.2c-0.6,0.4-1.1,0.9-1.5,1.6c-0.6,1.1-1,2.5-0.1,3.7
			c0.7,0.9,1.5,1.2,2.5,1.4c0.1,0,0.3-0.2,0.4-0.3c0.2-0.4,0.3-0.8,0.5-1.2C-156.2,377.6-155.9,376.4-155.8,375z"/>
		<path class="st10" d="M-92.5,361.9c-0.1-0.4-0.3-0.5-0.6-0.4c-0.7,0.1-1.3,0.1-2,0.3c-0.7,0.3-1.4,0.7-2.1,1.1
			c-0.8,0.5-1.7,1.1-2.5,1.7c-0.6,0.5-1.2,1-1.8,1.6c-0.5,0.5-1,1-1.5,1.5c-0.8,0.8-1.6,1.7-2.3,2.5c-0.2,0.2-0.3,0.5-0.5,0.7
			c-0.3,0.3-0.5,0.6-0.8,0.9c-0.3,0.4-0.6,0.8-0.9,1.1c-0.5,0.7-1.1,1.4-1.6,2.2c-0.8,1.2-1.6,2.3-2.4,3.5c-1.3,2.2-2.6,4.5-3.7,6.9
			c-0.7,1.6-1.4,3.1-1.9,4.7c-0.6,1.7-1,3.6-1.3,5.4c-0.1,0.8-0.2,1.5-0.2,2.3c0,1.3,0.3,2.6,1,3.6c0.5,0.7,1.3,1.2,2.2,1.4
			c0.8,0.1,1.5-0.1,2.2-0.3c0.4-0.1,0.8-0.5,1.2-0.8c0.8-0.6,1.6-1.2,2.3-2c0.6-0.7,1.3-1.4,1.8-2.2c1-1.5,2-2.9,2.7-4.6
			c0.5-1.1,0.9-2.2,1.1-3.5c0.2-0.8,0.4-1.7,0.4-2.5c0-0.5,0-1.1-0.3-1.6c-0.2-0.3-0.9-0.5-1.3-0.4c-0.8,0.3-1.4,0.8-1.9,1.5
			c-0.4,0.7-0.9,1.3-1.3,2c-0.6,1.1-1,2.2-1.2,3.5c-0.1,0.5-0.3,0.7-0.6,0.9c-0.7,0.4-1.4,0.8-2,1.3c-0.7,0.6-1.4,1.3-2.1,1.9
			c-0.3,0.2-0.5,0.5-0.8,0.8c0-0.4,0-0.7,0.1-1c0.2-0.9,0.3-1.8,0.6-2.7c0.1-0.5,0.3-0.9,0.5-1.4c0.4-1,0.7-2,1.2-3
			c0.5-0.9,1-1.9,1.7-2.7c0.7-0.8,1.5-1.5,2.3-2.2c0.5-0.4,1.2-0.7,1.8-1c0.7-0.2,1.4-0.4,2.1-0.5c0.7-0.1,1.8,0.7,2.1,1.5
			c0.3,0.8,0.5,1.7,0.5,2.6c0,0.7-0.1,1.4-0.2,2.1c-0.1,0.6-0.2,1.3-0.4,1.9c-0.3,1-0.7,2-1.2,3c-0.4,0.9-0.8,1.7-1.2,2.5
			c-0.7,1.2-1.5,2.3-2.3,3.5c-0.4,0.6-0.9,1.1-1.3,1.6c-1.3,1.4-2.7,2.6-4.3,3.7c-0.4,0.3-0.9,0.6-1.3,0.7c-0.7,0.2-1.4,0.4-2.1,0.6
			c-1.1,0.2-2.1,0.1-3.2-0.3c-0.7-0.3-1.4-0.8-2-1.4c-0.4-0.5-0.7-1-1.1-1.5c-0.1-0.1-0.1-0.2-0.2-0.3c-0.5-0.8-0.7-1.8-0.9-2.8
			c-0.3-1.3-0.2-2.5-0.1-3.8c0.1-1.1,0.3-2.2,0.6-3.2c0.4-1.4,0.8-2.7,1.3-4.1c0.4-1.2,1-2.4,1.5-3.6c0.3-0.7,0.7-1.4,1-2.1
			c0.5-0.9,1-1.8,1.6-2.7c1-1.7,2.1-3.4,3.1-5c0.5-0.8,1.1-1.6,1.7-2.3c0.6-0.8,1.3-1.6,2-2.3c0.9-1,1.8-2.1,2.7-3
			c0.9-0.9,1.8-1.6,2.7-2.4c0.5-0.4,0.9-0.8,1.4-1.1c1.1-0.8,2.3-1.4,3.4-2.2c1.2-0.8,2.6-1.2,3.9-1.8c1.1-0.4,2.1-0.8,3.2-0.7
			c1,0.1,1.9,0.3,2.7,1c0.3,0.3,0.6,0.3,1,0.2c1-0.4,2-0.7,3-1c0.3-0.1,0.6-0.1,0.9-0.1c0.8,0,1.6-0.1,2.4,0.1
			c0.5,0.1,1,0.2,1.5,0.3c0.6,0.2,1.1,0.3,1.7,0.6c0.8,0.4,1.6,0.8,2.3,1.2c1.1,0.6,2.2,1.2,3.2,1.8c0.5,0.3,1,0.6,1.5,0.9
			c0.1,0,0.1,0.1,0.2,0.1c0.6,0.4,0.6,0.4,0.1,0.9c-0.5,0.6-1,1.1-1.5,1.7c-0.3,0.4-0.7,0.8-1,1.2c-0.2,0.3-0.4,0.3-0.7,0.1
			c-1-0.7-2-1.4-2.9-2.1c-1-0.7-1.9-1.4-2.9-2c-0.9-0.5-1.8-1-2.6-1.4c-1-0.5-2.1-0.7-3.2-1c-0.6-0.1-1.3,0-1.8,0.3
			c-0.1,0-0.2,0.4-0.2,0.7c0,0.5-0.1,1-0.1,1.5c0,1.1-0.3,2-0.6,3c-0.2,0.6-0.3,1.2-0.6,1.8c-0.3,1-0.7,1.9-1.3,2.7
			c-0.7,0.9-1.2,2-1.9,2.9c-0.3,0.5-0.8,1-1.2,1.4c-0.5,0.5-1.1,1-1.7,1.4c-0.8,0.5-1.6,0.9-2.6,0.8c-1-0.1-1.6-0.9-1.8-2.1
			c-0.2-1.1,0.1-2,0.4-3c0.3-0.9,0.7-1.8,1.1-2.6c1-1.9,2.2-3.7,3.7-5.3c0.6-0.6,1.2-1.2,1.8-1.7c0.7-0.6,1.5-1.1,2.2-1.7
			C-92.7,362.2-92.6,362-92.5,361.9z M-91.4,363.8c0-0.7-0.1-0.8-0.7-0.5c-0.3,0.1-0.6,0.3-0.9,0.5c-0.7,0.5-1.3,1.1-2,1.7
			c-0.6,0.5-1.1,1.1-1.6,1.7c-0.6,0.8-1.3,1.5-1.8,2.3c-0.6,1-1.1,2-1.6,3c-0.5,1-1,2.1-0.9,3.4c0,0.6,0.6,1.3,1.1,1.3
			c0.6-0.1,1.2-0.3,1.7-0.8c0.3-0.3,0.7-0.6,1-1c0.4-0.3,0.8-0.7,1.1-1.1c0.5-0.6,1-1.2,1.4-1.9c0.5-0.7,1-1.5,1.4-2.3
			c0.3-0.6,0.5-1.3,0.8-2C-91.8,366.9-91.5,365.4-91.4,363.8z"/>
		<path class="st10" d="M-128.3,407c-0.2-0.1-0.4-0.2-0.6-0.4c-0.5-0.3-1-0.6-1.5-0.9c-0.5-0.3-1.1-0.5-1.7-0.7
			c-0.6-0.2-1.3-0.5-1.9-0.6c-0.6-0.2-1.2-0.3-1.9-0.4c-0.4-0.1-0.9,0-1.3-0.1c-1.1-0.1-2.2,0.1-3.2,0.4c-0.8,0.2-1.5,0.7-2.1,1.4
			c-0.3,0.3-0.5,0.6-0.8,0.9c-0.1,0.2-0.3,0.2-0.4,0c-0.4-0.5-0.7-1-1.1-1.4c-0.3-0.3-0.5-0.7-0.9-0.9c-0.7-0.5-1.3-1-2.1-1.3
			c-0.9-0.4-1.9-0.7-2.8-0.9c-0.5-0.1-1.1-0.2-1.7-0.2c-0.7,0-1.3-0.1-2,0c-1.1,0.1-2.3,0.2-3.4,0.4c-1.2,0.2-2.3,0.5-3.5,0.7
			c-0.5,0.1-0.9,0.3-1.3,0.4c-0.3,0.1-0.6,0.1-0.9,0.2c-1.1,0.3-2.2,0.6-3.3,0.9c-0.8,0.2-1.6,0.4-2.4,0.6c-1.1,0.3-2.1,0.6-3.2,0.8
			c-1.2,0.2-2.4,0.3-3.7,0.3c-0.7,0-1.3-0.2-2-0.3c-0.9-0.1-1.6-0.4-2.4-0.8c-0.9-0.4-1.8-1-2.4-1.8c-0.6-0.7-1.2-1.3-1.6-2.1
			c-0.5-0.9-0.8-1.8-1-2.8c-0.4-1.7-0.5-3.3-0.4-5c0.1-1.1,0.2-2.2,0.4-3.3c0.2-1,0.4-2,0.7-3c0.2-0.9,0.6-1.8,0.9-2.6
			c0.3-0.7,0.5-1.5,0.8-2.2c0.3-0.6,0.5-1.2,0.9-1.8c0.6-1,1.1-2.1,1.7-3c0.8-1.4,1.7-2.7,2.6-4c0.6-0.9,1.3-1.7,2-2.5
			c0.5-0.6,1-1.2,1.5-1.8c0.8-0.8,1.6-1.6,2.5-2.4c0.9-0.8,1.8-1.7,2.7-2.4c0.8-0.7,1.7-1.4,2.7-1.8c0.5-0.2,0.9-0.6,1.4-0.8
			c1.3-0.7,2.6-1.3,4-1.6c0.9-0.2,1.7-0.4,2.6-0.4c1.6,0,2.8,1,3.2,2.8c0.1,0.6,0.1,1.2,0,1.9c-0.3,1.5-0.9,2.8-1.9,3.9
			c-0.5,0.6-1.1,0.9-1.9,0.6c-0.4-0.1-0.6-0.5-0.6-1.1c0-0.8,0.2-1.6,0.7-2.2c0.3-0.4,0.7-0.8,1.1-1.1c0.2-0.2,0.6-0.2,0.9-0.2
			c0.3,0,0.5-0.3,0.5-0.5c0.2-1.2-0.2-2-1.4-2.1c-0.9-0.1-1.6,0.3-2.4,0.7c-0.7,0.4-1.5,0.8-2.2,1.2c-0.8,0.6-1.5,1.2-2.3,1.8
			c-0.4,0.3-0.7,0.6-1.1,1c-0.2,0.2-0.5,0.5-0.7,0.8c-1.1,1.3-2.3,2.7-3.4,4c-0.6,0.7-1.2,1.5-1.7,2.3c-0.6,0.8-1.1,1.6-1.6,2.5
			c-0.7,1.2-1.5,2.4-2.2,3.6c-0.6,1.2-1.2,2.4-1.8,3.7c-0.2,0.4-0.4,0.8-0.6,1.2c-0.2,0.6-0.5,1.2-0.7,1.8c-0.4,1.2-0.8,2.3-1.1,3.5
			c-0.3,1.3-0.7,2.6-0.7,4c0,0.8-0.1,1.5-0.1,2.3c0,1.2,0.3,2.3,0.7,3.3c0.4,0.9,0.8,1.8,1.5,2.4c0.6,0.5,1.3,0.9,2,1.3
			c0.9,0.5,1.9,0.8,3,1c0.8,0.1,1.6,0.2,2.4,0c0.5-0.1,1-0.1,1.5-0.2c0.6-0.1,1.3-0.2,1.9-0.3c1.1-0.2,2.1-0.5,3.2-0.8
			c1-0.3,2-0.6,3.1-0.9c0.8-0.2,1.7-0.4,2.5-0.6c0.8-0.2,1.6-0.5,2.4-0.7c1.2-0.3,2.3-0.6,3.5-0.9c0.9-0.2,1.9-0.4,2.8-0.6
			c0.6-0.1,1.2-0.1,1.9-0.2c1.3-0.1,2.5-0.2,3.8-0.2c1.1,0,2.2,0.2,3.2,0.4c0.9,0.2,1.8,0.4,2.7,0.7c0.7,0.3,1.5,0.6,2.2,1
			c0.4,0.2,0.8,0.4,1.2,0.7c0.6,0.4,1.2,0.9,1.8,1.4c0.7,0.6,1.5,1.2,2.2,1.9c0.8,0.7,1.5,1.5,2.3,2.3
			C-128.3,406.9-128.3,406.9-128.3,407z"/>
		<path class="st10" d="M-52.8,361.8c-0.3,0.7-0.5,1.5-1.1,2.2c-0.6,0.6-1.1,1.3-1.6,2c-0.3,0.3-0.6,0.5-0.9,0.8
			c-0.6,0.5-1.3,1.1-2,1.6c-0.7,0.5-1.4,1-2.1,1.4c-1,0.6-2,1.1-3,1.6c-0.4,0.2-0.8,0.3-1.2,0.4c-0.9,0.1-1.8,0.3-2.7,0.3
			c-0.5,0-1-0.1-1.5-0.2c-0.2,0-0.3-0.1-0.1-0.3c0.4-0.6,0.8-1.2,1.1-1.7c0.4-0.6,0.7-1.2,1.1-1.7c0.1-0.2,0.4-0.3,0.6-0.3
			c1.5-0.1,3-0.2,4.5-0.5c0.6-0.2,1.3-0.5,1.9-0.8c1-0.5,2-1.1,2.9-1.7c0.8-0.5,1.6-1,2.4-1.6c0.5-0.4,0.9-0.8,1.4-1.2
			C-53.1,361.8-53,361.8-52.8,361.8C-52.9,361.7-52.9,361.8-52.8,361.8z"/>
		<path class="st10" d="M-121.9,375.6c0.2-0.4,0.5-0.9,0.7-1.3c0.4-0.8,0.8-1.6,1.2-2.3c0.1-0.1,0.2-0.2,0.3-0.2c1.2,0,2.3,0,3.6,0
			c-0.2,0.4-0.3,0.7-0.5,1c-0.5,0.9-1,1.9-1.5,2.8c-0.1,0.1-0.3,0.3-0.5,0.3c-0.4,0-0.9-0.1-1.3-0.1c-0.6,0-1.1,0-1.7,0
			c-0.1,0-0.2,0-0.3,0C-121.8,375.7-121.9,375.6-121.9,375.6z"/>
	</g>
</g>
</svg>
