<?xml version="1.0" encoding="utf-8"?>
<!-- Generator: Adobe Illustrator 19.0.0, SVG Export Plug-In . SVG Version: 6.00 Build 0)  -->
<!DOCTYPE svg PUBLIC "-//W3C//DTD SVG 1.1//EN" "http://www.w3.org/Graphics/SVG/1.1/DTD/svg11.dtd">
<svg version="1.1" id="Layer_1" xmlns="http://www.w3.org/2000/svg" xmlns:xlink="http://www.w3.org/1999/xlink" x="0px" y="0px"
	 viewBox="-210 122 191 550" style="enable-background:new -210 122 191 550;" xml:space="preserve">
<style type="text/css">
	.st0{fill:#8A7D72;}
	.st1{fill:#4B4441;}
	.st2{fill:#362923;}
	.st3{fill:#141217;}
	.st4{fill:#C0B4B1;}
	.st5{fill:#736B60;}
	.st6{fill:#685448;}
	.st7{fill:#19191C;}
	.st8{fill:#AA9B8D;}
	.st9{fill:#F0E5D4;}
	.st10{fill:#5B0C14;}
	.st11{fill:#915646;}
	.st12{fill:#3E3634;}
	.st13{fill:#9C9190;}
	.st14{fill:#861724;}
	.st15{fill:#490B14;}
	.st16{fill:#FFFFFF;}
</style>
<g>
	<path class="st0" d="M-159.7,240.2c0,0,10.3-54.1,8.7-62.8c0,0-2-1.3-2-5.6c0,0-14.1-16.9,2.1-29c1.8-1.3,53.9-6.5,61.4-2.3
		c0,0,14.2,25.2,4.3,28.2c0,0,1.6,5.5-0.8,6.3c0,0,2.5,46.1,12.2,65.1C-73.6,240.2-115.5,258-159.7,240.2z"/>
	<path class="st1" d="M-192.7,615.7c0,0,81.2,42.3,159,0c0,0,3.6,25.5-12.2,43.5c0,0-100,28.1-141.3-5.1
		C-187.3,654.1-197,638.6-192.7,615.7z"/>
	<path class="st2" d="M-192.7,615.7c0,0,78.1,45.9,159,0c0,0-1.2-19-4.7-38c-3.6-18.9-4.7-55.7,1.2-91.2s4.7-51.7,0.4-57.2
		c0,0,5.1-71.5-3.9-97.5c0,0,2.8-12.2-0.4-20.5s-28-66.3-32.4-71.1c0,0-42.2-9.9-86.1,0c0,0-27.2,37.9-31.2,73.4
		c0,0-0.8,12.2,0.8,14.6c0,0-11,52.1-5.5,102.2c0,0-4.3,25.3,0,51.3s14.5,61.5,8.7,94C-186.9,575.8-192.1,597.2-192.7,615.7z"/>
	<path class="st3" d="M-82.6,580.4c-1.9-13-0.5-26.1,0.8-39.2c0.5,10.1,1,20.4,3.8,30.2c1.2,4.1,2.7,8,3.5,12.1
		c0.8,4.3,0.8,8.7,1,13.1c0.4,7.6,1.6,15.2,3.6,22.6c0.4,1.6,1.6,3.6,3.2,3c0.7-0.3,1.1-1,1.4-1.6c1.5-3.2,2.3-6.7,2.6-10.2
		c1,4.9,1.8,9.8,2.5,14.8c0.1,0.7,0.2,1.4-0.2,1.9c-0.4,0.7-1.2,0.9-1.9,1.1c-4.4,1.3-8.8,2.6-13.3,3.9
		C-71.5,615-80,597.8-82.6,580.4z"/>
	<path class="st3" d="M-73.6,439.6c-0.5-0.3-1-0.7-1.6-0.5c-0.7,0.2-0.9,1.2-0.9,1.9c-0.1,3.9,0.1,7.7,0,11.6
		c-0.4,17.8-6.3,35.7-2.8,53.1c3-14.5,6-29.1,9.1-43.6c0.8-4,1.6-8,1.3-12C-68.8,446.2-70.4,442.1-73.6,439.6z"/>
	<path class="st3" d="M-160.7,626.7c-9.8-8.8-0.1-26.2,2.3-39.1c3.4-18,6.2-36.5,3.7-54.6c-1-7.3-2.9-14.5-3.9-21.8
		c-1.7-12.6-0.7-25.3-1.5-38c-1.2-18.3-3.1-53-3.2-52.1l72.2,0c0,0,2,6.7,0,10.7c-2,3.9-7.5,41.8-5.9,52.9S-92.1,635-92.1,635
		S-146.6,639.4-160.7,626.7z"/>
	<path class="st3" d="M-170.3,624.1c-3-10.4,0.1-21.5,2.2-32.1c4-19.7,4.8-40,2.5-59.9c-1.2-9.9-3.2-19.8-4.1-29.7
		c-2.1-21.8,0.8-43.7-0.9-65.5c-0.1-1.5-0.6-3.5-2.2-3.6c-1.3-0.1-2.3,1.3-2.8,2.5c-5.5,12.3-4.4,26.5-3.2,39.9
		c1.8,19.9,3.5,39.7,6.5,59.5c1,6.4,2.1,12.9,2.1,19.4c0.1,22.9-12.9,44.3-12.7,67.2c3.9,1.6,7.7,3.3,11.6,4.9
		C-170.2,626.8-170,625.1-170.3,624.1z"/>
	<path class="st3" d="M-164.3,335.4h74.2c0,0,0.3,3.2-2.9-7.1c-3.2-10.3-2.4-17.4-6.7-26.8s-4.7-8.3-6.7-15.8
		c-2-7.5-4.7-7.1-10.3-3.2s3-9.9-10.5-2.8c-13.5,7.1-29.7,18.6-29.3,35.9C-156.1,333-164.3,335.4-164.3,335.4z"/>
	<polygon class="st4" points="-196.7,416.7 -36.3,419.5 -36.3,408.2 -197.5,408.2 	"/>
	<polygon class="st4" points="-193,345.3 -37.8,345.3 -39.7,335.8 -191.2,334 	"/>
	<path class="st5" d="M-90.2,437.1c-2,11.5-1.9,23.3-1.7,35c0.3,19.1,0.5,38.2,1.9,57.3c1-19.5,2-39.2,5.7-58.4
		c2.1-10.7,5.1-21.6,3.4-32.4c-0.3-1.8-0.7-3.6-1.8-5c-1.1-1.4-3.2-2.2-4.8-1.4C-89.3,433-89.9,435.2-90.2,437.1z"/>
	<path class="st5" d="M-66.8,437.7c-0.5-3.2,3.7-4.9,6.9-5.4c5.3-0.7,11.8-0.9,14.7,3.5c1.4,2.1,1.5,4.9,1.6,7.4
		c0.4,17.7-0.7,35.4-3.2,52.8c-1.8,12.7-4.4,25.4-5.3,38.2c-1.3,18.5,1,37.2,6.6,54.8c1.9,5.8,4.1,12.1,2,17.8
		c-2,5.6-7.7,9.1-13.3,11.1c2.5-4,3.6-8.8,3.1-13.5c-0.4-4.2-2-8.2-3.1-12.3c-1.5-5.2-2.2-10.6-2.9-16c-1.8-13.4-3.7-26.9-3.3-40.5
		c0.7-26.1,9.6-51.4,10.6-77.4c0.3-6.2-0.8-13.7-6.5-16.2C-61.8,441.1-66.2,440.9-66.8,437.7z"/>
	<path class="st5" d="M-69,262.9c-3.8-8.6-6.6-18.8-14.9-23.3c-2.6-1.4-5.7-2.1-8.5-1.4c-6.4,1.6-9,9.2-9.6,15.8
		c-1.4,14.7,2.1,29.4,5.7,43.7c1.9,7.7,3.8,15.4,5.8,23.1c0.7,2.8,1.5,5.7,3.8,7.5c2.3,1.8,5.5,1.8,8.4,1.8c9.3-0.2,18.7-0.4,28-0.6
		c0.9,0,1.9-0.1,2.5-0.8c0.3-0.4,0.4-0.8,0.5-1.3c1.3-6.1,1.5-12.4,0.4-18.5C-49.9,292-62.1,278.5-69,262.9z"/>
	<path class="st3" d="M-86.7,273.1c-0.9,0.4-0.9,1.7-0.7,2.8c1.9,11.6,3.5,23.4,4.8,35.1c0.3,2.9,0.7,5.9,2,8.5
		c1.3,2.6,4,4.8,6.9,4.7c1.3,0,2.6-0.6,3.1-1.7c0.3-0.6,0.3-1.2,0.3-1.8c-0.2-13.8-5.4-27-10.6-39.9
		C-82.2,277.7-83.7,274.4-86.7,273.1z"/>
	<path class="st6" d="M-152.3,241.4c-3.1,13.3-8.4,26-15.7,37.6c-2.5,4-5.3,7.9-7.4,12.3c-2.3,4.8-3.6,10-4.5,15.3
		c-1.6,8.4-2.4,17-2.4,25.6c7.3,0.2,14.5,0.4,21.8,0.7c-2.5-8.8-0.6-18.4,2.7-27c3.3-8.6,7.9-16.6,11.2-25.2
		c4.2-11.2,6-23.3,5.1-35.2c-0.1-1.9-0.5-4.1-2.2-5.1c-2.2-1.3-5,0.6-6.4,2.7c-1.4,2.2-2.3,4.8-4.4,6.2"/>
	<path class="st6" d="M-182.3,424.8c-10.5,33.1-6.4,68.9-1.1,103.2c2,12.7,4.1,25.7,2.6,38.5c-1.3,11.1-5.3,21.7-6.4,32.7
		c-0.1,1-0.1,2.3,0.8,2.8c1.1,0.7,2.5-0.4,3.3-1.5c2.5-3.4,4.1-7.4,5.4-11.5c7.3-23.5,4.5-48.8,0.9-73.2
		c-3.6-24.4-7.9-49.2-3.3-73.4c0.5-2.7,1.2-5.5,2.7-7.7s4.2-4,6.9-3.7c6.5,24.4,3.1,50.2,4.5,75.4c0.6,11,2.2,22,2,33
		c-0.3,20.1-6.3,40.2-3.5,60.1c0.1,0.9,0.4,1.9,1.2,2.2c1.2,0.5,2.3-1,2.9-2.2c8.4-19.9,9.5-42.1,8.1-63.6s-4.9-42.9-5.4-64.5
		c-0.2-9.9,0.2-19.8-1.2-29.6c-0.9-6.2-2.6-12.6-6.8-17.4c-2.4-2.8-6.4-5-9.8-3.5c-4.2,1.9-4.6,8.2-8.6,10.7"/>
	<path class="st7" d="M-85.6,645.3c-7.8,0.8-15.6,1.6-23.4,2.4c-9.7,1-19.5,2-29.3,1.2c28.3,6.7,58.5,10.8,86,1.4
		c-16.1,5-32.2,10-48.9,12.5s-34,2.2-49.9-3.2c16.3-1.3,32.9,4.2,48.9,0.6c-18.6-2.4-38.4-5.3-52.2-17.8c7.2,0.3,14.4,0.2,21.6-0.3
		c-5-1.2-9.9-2.4-14.9-3.7C-127.1,641.8-106.3,644.1-85.6,645.3z"/>
	<path class="st8" d="M-175,655.3c-2.3-1.1-4.7-2.2-6.3-4.1c-1.6-2-2.2-4.7-2.6-7.2c-0.8-4.2-1.5-8.5-0.7-12.8
		c0.3-1.7,1-3.4,2.5-4.2c5.2,4.7,12,7.8,19,8.5c1.3,0.1,3.2,1,2.6,2.2c-4.9,0-9.8,0.6-14.6,1.7c0.8,2.2,3.5,2.8,5.4,4.2
		c1,0.7,1.8,1.7,2.6,2.6c2.7,2.9,6,5.3,9.6,7c-0.4-0.3-0.7-0.6-1.1-0.9c-1,2.1-0.5,4.7,1.1,6.3c-2.6,1.8-6.1,1.8-9.1,0.8
		S-172.2,656.7-175,655.3z"/>
	<path class="st8" d="M-43.6,621.6c0.5-0.2,1,0,1.3,0.4c-5.6,5.1-11.2,10.3-16.8,15.4c3.7-1.2,7.4-2.3,11-3.5c0.6-0.2,1.3-0.4,1.8,0
		c0.7,0.5,0.4,1.6,0,2.3c-0.8,1.2-2,2.1-3.3,2.6c0.4-1.4,2.7-1.3,3.5-0.1c0.8,1.2,0.5,2.9,0,4.2c-2.8,7.7-10.7,12.1-17.9,15.9
		c5.8-0.7,12.3-1.8,15.6-6.6c1.5-2.1,2.1-4.7,3-7.1c2.6-6.5,7.8-11.9,9.3-18.7c0.1-0.7,0.3-1.4,0-2.1c-0.7-1.7-3.1-1.8-5-1.4
		c-3.5,0.6-6.9,1.2-10.4,1.8"/>
	<path class="st9" d="M-108.6,170.1c-0.3,2.8-0.7,5.7-0.7,8.6c0,4,0.7,8,1.4,12c2.5,14.4,4.9,28.7,7.4,43.1c0.1,0.7,0.3,1.6,0.9,2
		c0.4,0.4,1.1,0.4,1.6,0.5c5,0.6,10,1.3,15.1,1.9c-4.4-13.1-8-26.5-10.8-40.1c-1.1-5.4-2.1-10.9-1.8-16.4c0.3-6,2-11.8,3.2-17.6
		c1.2-5.9,1.9-12,0.2-17.8s-6.4-10.9-12.3-11.7C-105.8,146.4-107.2,158.3-108.6,170.1z"/>
	<path class="st9" d="M-138.1,156.8c4.7,24.9-10.3,51.2-2.4,75.3c-1-12.8,3-25.3,5.5-37.9C-132.4,181.7-131.6,167.8-138.1,156.8z"/>
	<path class="st9" d="M-154.3,161.4c-0.4,1.8-0.7,3.8,0.1,5.4c0.8,1.7,3,2.7,4.6,1.7c-0.3,2.2-0.7,4.5-1,6.7
		c1.8,1.6,1.6,4.5,1.2,6.9c-2.3,15.2-4.5,30.3-6.8,45.5c4.5-16.9,9.1-34,10.1-51.6c0.4-7.4,0.2-14.8-0.7-22.2
		c-0.2-1.7-1.1-4-2.8-3.7C-151.8,153.6-153.4,157.4-154.3,161.4z"/>
	<g>
		<path class="st10" d="M-153.8,153.3c0,0-5.3,0.7-5.8-3.2s1.9-18,1.9-18s1.7-4.7,12.5-7.5c10.8-2.8,42.6-5,58.5,2.2
			c0,0,5.7,3.6,5.5,6.2l1,15.8c0,0-2.7,7.2-5.4,6.2l-2.1-6.7l-9,1.8l-4.2-3l-8.4,2l-10.6-2.5l-12.8,3.4l-3.9-4.4l-7.6,4.4l-3.9-2.7
			L-153.8,153.3z"/>
		<path class="st11" d="M-109.7,142.2c-0.5-4-0.9-7.9-1.4-11.9"/>
		<path class="st11" d="M-100.9,129c0,5.5,0.1,11.1,0.1,16.6c1.8,0.8,3.3,2,4.4,3.6c-0.7-2.7-0.2-5.7,1.4-8.1
			c0.6-0.9,1.6-1.8,2.6-1.5c0.5,0.1,0.9,0.5,1.2,1c1.4,2.1,0.6,5.5,2.6,7c0.5-2.2,0.9-4.5,1.4-6.7c1.3,0.3,1.9,1.8,2.2,3.2
			c0.2,1.3,0.4,2.9,1.5,3.7c0.5-4.9,0.2-9.9-1-14.7c-0.2-0.9-0.5-1.9-0.9-2.7c-1.6-3.1-5.5-4.4-8.9-4.1c-1.7,0.1-3.3,0.6-4.7,1.5
			C-100.6,128.7-100.9,127.4-100.9,129z"/>
		<path class="st11" d="M-153.8,129.6c-2.5,1.6-3,5-3.2,8c-0.3,3.5-0.6,6.9-0.8,10.4c0,0.4-0.1,0.9,0.1,1.3c0.5,1.2,2.3,1.4,2.8,2.5
			c1.4-4.1,2.7-8.2,4.1-12.3c1.3,2.1,2.6,4.3,3.8,6.4c0.3,0.5,0.6,1,1.1,1.2c0.9,0.4,1.9-0.4,2.2-1.3c0.3-0.9,0.1-1.9,0-2.8
			c-0.9-6.7,1.4-13.7,6.1-18.6c-3.4-0.8-6.6,2-10.1,2.6c-1.2,0.2-2.5,0.2-3.7,0.5C-154.1,128.3-151.6,128.1-153.8,129.6z"/>
		<path class="st11" d="M-130.7,146.4c-1-6.6-0.3-13.7-3.6-19.5"/>
	</g>
	<path class="st12" d="M-120.1,150.2c-0.8,0.4-1.3,1.2-1.8,2c-5.8,9.8-6.1,21.7-6.7,33.1c-0.9,16.7-2.8,33.3-5.6,49.8
		c8.1-0.5,16.2-0.4,24.2,0.2c-1.4-26-2.8-52-4.1-78c-0.1-1.9-0.2-3.8-1.2-5.4C-116.3,150.3-118.5,149.3-120.1,150.2z"/>
	<path class="st10" d="M-197.4,406.8l161.2,1.8c0,0,3.2-53.3-1.5-64.7h-155.2C-192.8,343.9-197.3,384.8-197.4,406.8z"/>
	<polygon class="st13" points="-164.3,408.6 -161.8,417.3 -92,418.5 -92,408.6 	"/>
	<path class="st14" d="M-36.2,408.6c0,0,4.5-50.4-1.5-64.7h-8.6c0,0,14.3,33.7-6.5,64.7H-36.2z"/>
	<path class="st14" d="M-164.3,408.6c0,0-6.3-48.2,0-64.7h-18c0,0-11.2,41.3-1.7,64.7H-164.3z"/>
	<path class="st15" d="M-159.7,407.2c0,0-5.1-45,2-63.3h64.8c0,0,11.4,26.6,1,64.7C-92,408.6-153,408.7-159.7,407.2z"/>
	<g id="KRyJ1s.tif_50_">
		<g>
			<path class="st16" d="M-155,350.8c0.4,0.2,0.9,0.3,1.3,0.5c1,0.6,1.5,1.5,1.6,2.6c0.1,1.1-0.1,2.1-0.6,3
				c-0.3,0.7-0.8,1.3-1.2,1.9c-0.4,0.6-1.1,1-1.8,1.1c-0.7,0.1-1.3-0.3-1.3-1c-0.1-0.6,0-1.1,0.3-1.6c0.5-0.9,1-1.7,2.1-2
				c0.2-0.1,0.4-0.1,0.6-0.1c0.3,0,0.4-0.1,0.5-0.4c0.3-1-0.3-1.9-1.4-1.9c-0.6,0-1.1,0.1-1.7,0.3c-2.2,0.7-4.1,2-5.8,3.6
				c-5.4,5.1-9.8,10.9-12.9,17.7c-1.1,2.4-1.9,4.9-2.3,7.5c-0.3,1.8-0.3,3.6,0.1,5.4c0.5,2.3,1.9,3.8,4.1,4.7c1.7,0.7,3.5,1,5.4,0.9
				c3-0.2,6-1,8.9-1.8c3.4-0.8,6.7-1.7,10.1-2.4c3.2-0.7,6.4-1.1,9.6-0.9c3.8,0.2,7.2,1.3,10.3,3.5c1.7,1.2,3.4,2.5,4.9,4
				c0.3,0.3,0.5,0.6,0.7,0.9c-0.1-0.1-0.2-0.1-0.3-0.2c-3-2-6.4-3.1-10-3c-1.6,0-3.1,0.3-4.3,1.3c-0.6,0.5-1.2,1.1-1.8,1.7
				c0,0,0,0,0,0c-1.4-2.4-3.5-3.7-6.1-4.3c-1.8-0.5-3.7-0.5-5.6-0.4c-3.3,0.2-6.5,1.1-9.6,1.9c-3,0.7-5.9,1.4-8.9,2
				c-2.4,0.5-4.7,0.4-7-0.4c-3.5-1.3-5.6-3.7-6.4-7.3c-0.1-0.7-0.2-1.4-0.3-2.1c0-0.1,0-0.2-0.1-0.3c0-0.6,0-1.3,0-1.9
				c0.1-0.5,0.1-1,0.2-1.5c0.4-2.8,1.1-5.5,2.3-8.1c2.2-5.1,5.4-9.6,9.3-13.6c2.6-2.6,5.3-4.9,8.5-6.7c1.8-1,3.6-1.8,5.6-2.3
				c0.6-0.1,1.3-0.2,1.9-0.3C-155.9,350.8-155.4,350.8-155,350.8z"/>
			<path class="st16" d="M-56.8,357.6c0.3-0.7,0.6-1.3,0.9-1.9c0.3-0.6,0.6-1.3,0.6-2c0-0.5-0.2-0.7-0.7-0.5
				c-0.5,0.2-0.9,0.4-1.3,0.8c-1.8,1.4-3.4,3-4.9,4.7c-3.1,3.5-5.8,7.4-8.2,11.5c-1.5,2.5-2.9,5.1-4.4,7.7c-0.1,0.2-0.2,0.5-0.3,0.8
				c0.2-0.1,0.4-0.2,0.5-0.3c0.9-0.8,1.9-1.5,2.8-2.3c4-3.6,7.6-7.5,10.9-11.7c0.3-0.4,0.6-0.7,1.2-0.7c0.2,0,0.5,0,0.8-0.1
				c-0.2,0.3-0.3,0.5-0.5,0.8c-2.1,3-4.5,5.7-7,8.3c-3,3.2-6.3,6.1-10,8.7c-0.1,0.1-0.2,0.2-0.2,0.3c-1.1,2.4-2.1,4.9-2.6,7.5
				c-0.1,0.5-0.1,1.1,0,1.6c0.1,0.8,0.8,1.1,1.5,0.6c0.7-0.5,1.3-1.1,1.8-1.8c1-1.3,1.9-2.7,2.8-4c1.5-2.3,3-4.7,4.8-6.8
				c1.6-2,3.4-3.7,5.7-5c1-0.6,2-0.8,3.1-0.6c0.7,0.1,1.1,0.6,1.5,1.2c0.1,0.1,0.2,0.3,0.3,0.4c0.2-0.3,0.4-0.6,0.5-0.9
				c0.1-0.1,0.2-0.2,0.3-0.2c1.4,0,2.7,0,4.1,0c0,0,0.1,0,0.1,0c-0.1,0.1-0.1,0.2-0.2,0.3c-2.1,3.7-4.1,7.4-6.2,11
				c-0.8,1.4-1.6,2.8-2.4,4.3c-0.2,0.4-0.4,0.8-0.5,1.2c-0.1,0.3-0.2,0.6,0.1,0.8c0.3,0.2,0.5,0.1,0.8-0.1c1.2-0.7,2.2-1.7,3.1-2.8
				c1-1.3,2-2.7,2.9-4.1c0.1-0.2,0.3-0.3,0.5-0.3c0.4,0,0.7,0,1.1,0c-0.2,0.3-0.3,0.5-0.4,0.7c-1.7,2.7-3.6,5.2-5.8,7.5
				c-1.3,1.3-2.7,2.4-4.4,3.1c-0.4,0.2-0.9,0.3-1.4,0.3c-0.9,0-1.5-0.5-1.7-1.3c-0.1-0.6-0.1-1.2-0.1-1.8c0-0.1,0-0.2,0-0.4
				c0,0-0.1,0-0.1,0c-0.2,0.2-0.5,0.5-0.7,0.7c-1,1-2.1,1.8-3.3,2.4c-0.6,0.3-1.3,0.5-2,0.3c-1.2-0.2-2-1-2.1-2.4
				c-0.1-0.5,0-1.1,0-1.6c0-0.1,0-0.3,0-0.5c-0.2,0.2-0.2,0.3-0.3,0.4c-1,1.2-2,2.3-3.3,3.1c-0.5,0.4-1.1,0.7-1.7,0.9
				c-1.3,0.4-2.5-0.1-3.2-1.3c-0.4-0.7-0.5-1.5-0.5-2.3c0.1-1.8,0.6-3.5,1.1-5.2c0.3-1,0.7-2.1,1-3.1c-0.2,0-0.4,0.1-0.5,0.1
				c-0.5,0.1-1.1,0.1-1.6,0.2c-0.3,0-0.4,0.1-0.5,0.4c-1.1,1.7-2.1,3.4-3.3,5.1c-1.6,2.2-3.5,4.1-5.9,5.5c-0.8,0.5-1.6,0.8-2.5,0.9
				c-1.7,0.1-2.6-1-2.9-2.2c-0.3-1.2-0.2-2.5,0.1-3.7c0.6-2.6,1.7-5,3.2-7.2c1.6-2.4,3.3-4.7,5.5-6.6c1.3-1.1,2.7-2.1,4.4-2.6
				c0.6-0.2,1.3-0.3,1.9-0.2c1.3,0.1,1.9,1.1,2.1,2c0.3,1.3,0.1,2.7-0.3,4c-0.4,1-0.8,2.1-1.2,3.1c0,0.1-0.1,0.2-0.2,0.4
				c0.9,0,1.6-0.2,2.4-0.5c0.1-0.1,0.2-0.2,0.2-0.3c2.2-4.6,4.7-9.1,7.6-13.3c3.5-5.2,7.6-9.9,12.5-13.9c1.2-1,2.4-1.8,3.8-2.4
				c0.7-0.3,1.4-0.5,2.2-0.5c0.9,0,1.4,0.5,1.5,1.5c0.1,1.2-0.2,2.3-0.7,3.3c-0.5,1.2-0.6,1.2-1.9,1.4
				C-56.7,357.6-56.7,357.6-56.8,357.6z M-70.1,390.6c0,0.4,0.5,0.8,1.2,0.5c0.3-0.1,0.6-0.3,0.9-0.5c0.9-0.6,1.5-1.5,2.1-2.4
				c1.7-2.4,3.1-4.9,4.5-7.4c0.8-1.5,1.7-2.9,2.5-4.4c0.2-0.3,0.3-0.6,0-0.9c-0.2-0.3-0.6-0.4-0.9-0.3c-0.4,0.1-0.8,0.3-1.2,0.6
				c-0.5,0.3-0.9,0.7-1.3,1.2c-3,3-5.3,6.6-7.1,10.4C-69.8,388.3-70.1,389.3-70.1,390.6z M-90,380c-0.6,1-1.3,1.8-1.8,2.7
				c-1,1.6-1.9,3.3-2.5,5.2c-0.2,0.7-0.3,1.3-0.2,2c0.1,0.9,0.8,1.3,1.6,1.1c0.8-0.2,1.4-0.7,2-1.2c1.8-1.7,3.2-3.8,4.4-6
				c0.1-0.1,0.1-0.2,0.2-0.4C-87.9,382.7-89.2,381.7-90,380z M-83.8,376.8c0-0.2,0-0.4,0-0.6c-0.1-0.9-0.5-1.3-1.3-1.3
				c-0.3,0-0.6,0.1-0.9,0.2c-0.8,0.4-1.5,1-2,1.7c-1.3,2.1-0.1,4.4,2.1,5.2c0.1,0,0.3-0.1,0.4-0.2c0.2-0.4,0.4-0.8,0.6-1.2
				C-84.3,379.5-83.7,378.2-83.8,376.8z"/>
			<path class="st16" d="M-152.8,370.4c0.3-0.1,0.5,0,0.7-0.1c0.7-0.3,1.3-0.7,2-1.1c1.3-0.9,2.4-1.9,3.5-3.1
				c1.1-1.2,2.3-2.2,3.7-3.1c1.2-0.8,2.4-1.3,3.9-1.2c1.8,0.1,3.1,1.6,2.8,3.4c-0.2,1.5-0.8,2.7-1.8,3.8c-0.3,0.4-0.8,0.7-1.2,0.9
				c-0.8,0.4-1.6-0.2-1.6-1.1c-0.1-1.5,1.4-3.1,2.9-3.2c0.1,0,0.2-0.1,0.3-0.1c0.3-0.6,0.1-1.5-0.9-1.5c-0.8,0-1.5,0.3-2.1,0.8
				c-1.2,0.9-2.2,2-3.1,3.1c-2.2,2.7-3.8,5.7-5,9c-0.3,0.8-0.4,1.6-0.3,2.5c0.2,1.3,1.2,2,2.5,1.6c1.2-0.3,2.1-1,3-1.8
				c1.9-1.7,3.5-3.7,5-5.7c1.4-1.9,2.8-3.8,4.3-5.7c1.4-1.8,3-3.4,4.9-4.7c0.9-0.6,1.8-1.1,2.9-1.3c1.2-0.2,2.1,0.2,2.8,1.1
				c0,0.1,0.1,0.1,0.2,0.2c0-0.1,0.1-0.1,0.1-0.1c0.2-0.6,0.7-0.7,1.3-0.7c1,0.1,2.1,0,3.1,0c0.1,0,0.2,0,0.4,0
				c-0.1,0.2-0.2,0.4-0.3,0.5c-3,5.2-6,10.3-8.9,15.5c-0.2,0.3-0.3,0.6-0.3,0.9c-0.1,0.5,0.3,0.7,0.7,0.5c0.3-0.1,0.6-0.3,0.9-0.5
				c1.1-0.8,2-1.8,2.9-2.8c0.8-1,1.6-2,2.3-2.9c0.2-0.3,0.4-0.4,0.7-0.3c0.3,0,0.6,0,1,0c0,0.1-0.1,0.2-0.1,0.2
				c-1.8,2.7-3.8,5.3-6.1,7.6c-1.2,1.1-2.4,2.2-3.9,3c-0.7,0.3-1.4,0.5-2.1,0.3c-0.7-0.1-1.4-0.9-1.4-1.7c0-0.5,0-1.1-0.1-1.7
				c-0.1,0.1-0.1,0.2-0.2,0.3c-0.8,0.9-1.7,1.7-2.7,2.3c-0.7,0.4-1.4,0.8-2.2,0.8c-1.6,0.2-2.8-0.8-2.9-2.5c0-1,0.2-1.9,0.4-2.9
				c0-0.1,0.1-0.2,0-0.4c-0.1,0.1-0.2,0.2-0.3,0.3c-1.3,1.2-2.7,2.4-4,3.6c-1.1,0.9-2.5,1.6-4,1.8c-0.8,0.1-1.5,0.2-2.3-0.1
				c-1.6-0.6-2.3-1.8-2.6-3.3c-0.4-2.1,0.1-4,1-5.8c0.5-1.1,1.1-2.2,1.6-3.2c0.1-0.1,0.1-0.2,0.2-0.4c-0.6,0.1-1.1,0.3-1.6,0.4
				c-0.5,0.1-0.7,0.3-1,0.7c-1.1,1.7-2.1,3.4-3.3,5c-1.6,2.2-3.5,4.1-5.7,5.6c-0.9,0.6-1.9,1.1-3.1,1.2c-1.2,0.1-2.4-0.5-2.9-1.7
				c-0.4-1-0.5-2-0.4-3c0.3-3,1.5-5.7,3.1-8.2c1.9-3,4.2-5.7,7.2-7.8c1.2-0.9,2.5-1.6,4-1.9c2.3-0.4,3.7,0.8,3.7,3.1
				c0,1.3-0.3,2.4-0.7,3.6C-152.3,369.2-152.5,369.7-152.8,370.4z M-136,379.2c0.1,0.4,0.2,0.7,0.5,0.8c0.3,0.2,0.6,0.2,0.9,0
				c0.7-0.4,1.4-1,1.9-1.6c0.7-1,1.5-1.9,2.1-3c2-3.5,4-7,6.1-10.4c0.2-0.4,0.1-0.7-0.3-0.9c-0.4-0.2-0.7-0.1-1,0.1
				c-0.7,0.3-1.3,0.7-1.8,1.3c-1.4,1.8-2.9,3.5-4.2,5.4c-1.5,2-2.8,4.2-3.6,6.5C-135.7,378-135.9,378.6-136,379.2z M-159.3,368.8
				c-0.1,0.1-0.1,0.2-0.2,0.2c-0.7,1.1-1.4,2.1-2.1,3.2c-0.9,1.5-1.7,3.2-2.1,4.9c-0.1,0.5-0.2,1.1-0.1,1.6c0.1,1,0.8,1.4,1.8,1.2
				c0.2-0.1,0.5-0.2,0.7-0.3c0.9-0.5,1.6-1.2,2.3-2c1.5-1.6,2.5-3.5,3.7-5.3c0.1-0.1,0.1-0.3,0.2-0.4
				C-156.9,371.3-158.4,370.5-159.3,368.8z M-153,365.9c0-0.2,0-0.3,0-0.5c-0.2-1.2-0.7-1.7-2-1.3c-0.2,0.1-0.4,0.1-0.6,0.3
				c-0.9,0.6-1.6,1.3-1.9,2.4c-0.3,0.9-0.3,1.7,0.3,2.4c0.7,0.8,1.5,1.3,2.6,1.4c0.2,0,0.3-0.1,0.4-0.3c0.2-0.6,0.5-1.1,0.7-1.7
				C-153.2,367.7-153,366.8-153,365.9z"/>
			<path class="st16" d="M-65.9,357c-1.1,1.2-2.1,2.3-3.2,3.4c-0.1,0.1-0.3,0.1-0.4,0c-0.7-0.4-1.4-0.8-2-1.2c-2-1.3-4-2.6-6.1-3.9
				c-1.6-1-3.3-1.6-5.2-1.9c-0.6-0.1-1.2-0.1-1.8,0.1c-0.2,0.1-0.3,0.2-0.2,0.4c0.2,2.1-0.4,4.1-1.2,6.1c-1.1,2.7-2.8,5-4.9,7
				c-0.9,0.8-1.9,1.4-3.1,1.8c-1.6,0.5-2.9-0.3-3.1-2c-0.2-1.1,0.1-2.1,0.5-3.1c1.3-3.3,3.5-6.1,6.2-8.4c1-0.8,2-1.5,3-2.2
				c0.1,0,0.1-0.1,0.2-0.2c-0.6-0.3-1.2-0.3-1.8-0.2c-0.9,0.1-1.7,0.5-2.5,1c-3,1.6-5.6,3.8-7.9,6.2c-4.3,4.5-8,9.5-11,15
				c-1.6,3-2.9,6.2-3.5,9.6c-0.3,1.4-0.5,2.8-0.1,4.2c0.4,1.5,1.2,2.6,2.8,3c0.9,0.3,1.9,0.1,2.7-0.3c1.6-0.7,2.9-1.7,4-3
				c2.3-2.4,4.1-5.1,5.2-8.3c0.4-1.2,0.7-2.4,0.6-3.7c-0.1-1.2-0.8-1.7-2-1.3c-0.9,0.3-1.4,1-2,1.7c-1.2,1.5-2,3.3-2.3,5.2
				c0,0.1-0.1,0.3-0.2,0.4c-2.1,1-3.8,2.4-5.4,4.1c-0.1,0.1-0.1,0.1-0.2,0.2c0.5-3.8,1.6-7.3,4.1-10.2c1.5-1.7,3.2-3,5.5-3.5
				c0.6-0.1,1.2-0.2,1.8-0.1c1,0.3,1.6,0.9,1.9,1.9c0.4,1.2,0.3,2.5,0.1,3.7c-0.5,2.9-1.9,5.5-3.5,8c-2,3.1-4.6,5.7-7.8,7.6
				c-1.4,0.8-2.8,1.3-4.4,1.3c-2.5,0.1-4.4-1.1-5.7-3.2c-1.1-1.8-1.3-3.9-1.2-6c0.2-3.3,1.3-6.4,2.7-9.3c3.8-8,9.1-14.8,16-20.4
				c3-2.4,6.2-4.2,9.9-5.3c1.3-0.4,2.7-0.5,4-0.1c0.6,0.2,1.1,0.5,1.6,0.9c0.2,0.2,0.3,0.2,0.5,0.1c1.1-0.3,2.2-0.7,3.3-1
				c2.7-0.6,5.4-0.1,7.8,1.1C-71.4,353.8-68.7,355.4-65.9,357C-65.9,357-65.9,357-65.9,357z M-86.1,354.2c-0.4,0.2-0.7,0.4-0.9,0.5
				c-3.5,2.1-6,5.1-7.9,8.7c-0.4,0.8-0.8,1.7-0.9,2.6c-0.1,1.2,0.8,1.9,1.9,1.4c0.4-0.2,0.9-0.4,1.3-0.7c3.8-2.9,6-6.8,6.5-11.5
				C-86,354.9-86.1,354.6-86.1,354.2z"/>
			<path class="st16" d="M-44.5,351.1c-0.6,1.3-1.4,2.5-2.2,3.6c-2.8,3.5-6.3,6.1-10.6,7.5c-2.2,0.7-4.4,0.9-6.7,0.5
				c0,0-0.1,0-0.1,0c-0.1,0-0.2-0.1-0.4-0.1c0.1-0.1,0.1-0.2,0.2-0.3c0.9-1.1,1.8-2.2,2.8-3.3c0.1-0.1,0.3-0.2,0.4-0.2
				c2.6,0.2,5.1-0.2,7.5-1.2c3.4-1.4,6.4-3.6,9-6.2C-44.6,351.2-44.5,351.1-44.5,351.1z"/>
			<path class="st16" d="M-111.3,362.4c-0.4,0.6-0.7,1.2-1.1,1.7c-0.4,0.6-0.8,1.3-1.2,1.9c-0.1,0.1-0.2,0.2-0.3,0.2
				c-1.3,0-2.6,0-3.8,0c0,0,0,0-0.1,0c0,0,0-0.1,0.1-0.1c0.7-1.1,1.4-2.3,2.1-3.4c0.1-0.1,0.2-0.2,0.3-0.2
				C-114,362.4-112.7,362.4-111.3,362.4z"/>
		</g>
	</g>
</g>
</svg>
