<?xml version="1.0" encoding="utf-8"?>
<!-- Generator: Adobe Illustrator 19.0.0, SVG Export Plug-In . SVG Version: 6.00 Build 0)  -->
<!DOCTYPE svg PUBLIC "-//W3C//DTD SVG 1.1//EN" "http://www.w3.org/Graphics/SVG/1.1/DTD/svg11.dtd">
<svg version="1.1" id="Layer_1" xmlns="http://www.w3.org/2000/svg" xmlns:xlink="http://www.w3.org/1999/xlink" x="0px" y="0px"
	 viewBox="-210 122 191 550" style="enable-background:new -210 122 191 550;" xml:space="preserve">
<style type="text/css">
	.st0{fill:#454744;}
	.st1{fill:#362923;}
	.st2{fill:#736B60;}
	.st3{fill:#685448;}
	.st4{fill:#141217;}
	.st5{fill:#19191C;}
	.st6{fill:#918C73;}
	.st7{fill:#FFFFFF;}
	.st8{fill:#8A7D72;}
	.st9{fill:#F0E5D4;}
	.st10{fill:#3E3634;}
	.st11{fill:#5B0C14;}
	.st12{fill:#915646;}
</style>
<g>
	<path class="st0" d="M-183.3,630.7v14.7c0,0,15,16,72.6,16c57.6,0,66.8-14.1,66.8-14.1v-13.9C-43.9,633.4-117,652.2-183.3,630.7z"
		/>
	<path class="st1" d="M-43.9,633.4c0,0-5.9-49.6-9.7-80s5.4-118.8,4.8-131.2c-0.5-12.4-2.7-74.9-9.7-100.7
		c-7-25.9-26.4-71.6-26.4-71.6s-46.3-5.4-70.6,2.7c0,0-15.1,43.1-21.5,67.3c0,0-10,75.9-6.4,107.2s10.1,114.7,8.5,126.3
		c0,0-8.5,60-8.5,77.3C-183.3,630.7-123.6,654.4-43.9,633.4z"/>
	<path class="st2" d="M-70.3,633.4c0,0-16.7-21.5-15.1-61.9s6.2-133.6,0-141.7c0,0,4.5-89.9-0.1-97c0,0,2-8.1,0-15.6
		c-2-7.5-15.5-69.1-15.5-69.1l16.2,1.8c0,0,18.3,58.7,18.3,68.4s0,14.5,0,16.2c0,1.6,15.6,33.9,8.1,98c0,0,3,9.2,2.1,20.5
		s-5.3,89.8-3.1,103.3c2.2,13.6,7.5,63.1,7.5,63.1s1.6,18.9-4.3,11.3c-5.9-7.5-10.8-23.7-10.8-23.7S-65.4,633.9-70.3,633.4z"/>
	<path class="st3" d="M-175.1,633.4c0,0,11.1-80.3,6.8-112c-4.3-31.8-6.8-85.6-6.8-85.6s-5.6-45.6-3.4-66.7s23.2-116.5,23.2-116.5
		s14.6-3.3,19.8-3.7c0,0,15.7,43.8,4.9,98.1l-27.4,33.4c0,0-5.8,18.2-2.8,32.1c3,13.9-3.8,26.2-3.3,32.8c0.5,6.6,0,24.4,0.5,36.8
		s1.6,143.8-2.2,153C-165.6,635-170,634.9-175.1,633.4z"/>
	<path class="st4" d="M-85.4,640.8c0,0-2.7-54.3-3.2-74.8c-0.5-20.5,0-101.3,0-113.7s-1.6-18.3-2.7-23.7c-1.1-5.4,0.5-73.6,0-81.8
		c-0.5-8.2,3.6-25.4-0.4-43.7c-3.9-18.3-9.3-55.1-9.3-55.1s-26.3-0.3-34.6,0.8c0,0,9.8,52.7,4.4,64.6c-5.4,11.9-9.2,23.7-9.2,11.9
		s7-25.9,0-28c-7-2.2-20.5,22.4-19.9,43.5s5.4,72.3,3.2,81.4c-2.2,9.2-4.3,40.5-3.2,72.2c1.1,31.7-1.1,75.4-0.3,92.1
		c0.8,16.7-0.2,50-0.2,50S-138.7,646.1-85.4,640.8z"/>
	<path class="st5" d="M-160.7,650.6c0,0,53.8,10.2,91.5,0C-69.2,650.6-131.3,639.4-160.7,650.6z"/>
	<path class="st6" d="M-174.6,643.2c0.2,0.2,0.3,0.4,0.3,0.7c-0.1,0.5-0.9,0.5-1.3,0.8c-0.6,0.3-0.8,1.3-0.5,1.9
		c0.3,0.7,1,1.1,1.6,1.5c4.3,2.8,9,5,13.8,6.6c-2.5-0.8-6.7-3.2-7.4-6c-1-4.2,3.4-2.5,3.7-5.5c0.5-5.1-13-8.2-16-8
		C-178.8,638.1-176.6,640.6-174.6,643.2z"/>
	<path class="st6" d="M-56.7,646.1c-0.2,3.4-6.7,3.4-7,6.8c3.7,0.2,7.3-1,10.8-2.2c1.2-0.4,2.3-0.8,3.3-1.5c1.7-1.2,2.7-3.2,3.1-5.2
		c0.4-2,0.3-4.1,0.2-6.2c-0.1-1.3-0.4-3-1.7-3.3c-0.7-0.2-1.4,0.2-2.1,0.5c-2.5,1.2-5,2.4-7.4,3.7c1.2-0.4,2.4-0.6,3.7-0.7
		c0.3,0,0.6,0,0.8,0.1c0.4,0.2,0.6,0.6,0.5,1.1c0,2.3-4,2.7-4.4,4.9C-56.9,644.7-56.6,645.4-56.7,646.1z"/>
	<g id="KRyJ1s.tif_49_">
		<g>
			<path class="st7" d="M-151.4,366.3c0.4,0.2,0.8,0.3,1.2,0.5c0.9,0.5,1.4,1.3,1.5,2.4c0.1,1-0.1,1.9-0.5,2.7
				c-0.3,0.6-0.7,1.2-1.1,1.8c-0.4,0.6-1,0.9-1.7,1c-0.7,0.1-1.1-0.3-1.2-1c-0.1-0.5,0-1,0.2-1.5c0.4-0.8,0.9-1.5,1.9-1.8
				c0.2,0,0.4-0.1,0.6-0.1c0.3,0,0.4-0.1,0.4-0.3c0.3-0.9-0.3-1.7-1.3-1.7c-0.5,0-1,0.1-1.5,0.3c-2,0.7-3.8,1.9-5.3,3.3
				c-5,4.6-9,9.9-11.7,16.1c-1,2.2-1.7,4.4-2.1,6.8c-0.3,1.6-0.3,3.3,0.1,4.9c0.5,2.1,1.8,3.5,3.7,4.3c1.6,0.7,3.2,0.9,4.9,0.8
				c2.8-0.2,5.4-1,8.1-1.6c3.1-0.7,6.1-1.5,9.2-2.2c2.9-0.6,5.8-1,8.8-0.8c3.4,0.2,6.5,1.2,9.3,3.2c1.6,1.1,3.1,2.3,4.5,3.7
				c0.2,0.2,0.4,0.5,0.6,0.8c-0.1-0.1-0.2-0.1-0.3-0.2c-2.8-1.8-5.8-2.8-9.1-2.8c-1.4,0-2.8,0.2-3.9,1.1c-0.6,0.5-1.1,1-1.6,1.5
				c0,0,0,0,0,0c-1.2-2.2-3.2-3.4-5.5-3.9c-1.7-0.4-3.4-0.5-5.1-0.4c-3,0.2-5.9,1-8.8,1.7c-2.7,0.7-5.4,1.3-8.1,1.8
				c-2.1,0.4-4.3,0.4-6.4-0.4c-3.2-1.1-5.1-3.4-5.8-6.7c-0.1-0.6-0.2-1.3-0.3-1.9c0-0.1,0-0.2-0.1-0.3c0-0.6,0-1.1,0-1.7
				c0-0.5,0.1-0.9,0.2-1.4c0.3-2.5,1-5,2.1-7.3c2-4.7,4.9-8.8,8.5-12.3c2.3-2.3,4.8-4.5,7.7-6.1c1.6-0.9,3.3-1.7,5.1-2.1
				c0.6-0.1,1.2-0.2,1.7-0.3C-152.2,366.3-151.8,366.3-151.4,366.3z"/>
			<path class="st7" d="M-62.1,372.5c0.3-0.6,0.6-1.2,0.8-1.7c0.3-0.6,0.5-1.2,0.5-1.9c0-0.5-0.2-0.7-0.7-0.5
				c-0.4,0.2-0.8,0.4-1.2,0.7c-1.6,1.3-3.1,2.7-4.5,4.3c-2.9,3.2-5.3,6.8-7.5,10.4c-1.4,2.3-2.7,4.7-4,7c-0.1,0.2-0.2,0.5-0.3,0.7
				c0.2-0.1,0.3-0.2,0.5-0.3c0.9-0.7,1.8-1.3,2.6-2.1c3.6-3.3,6.9-6.8,9.9-10.7c0.3-0.4,0.6-0.7,1.1-0.6c0.2,0,0.4,0,0.7-0.1
				c-0.2,0.3-0.3,0.5-0.5,0.7c-1.9,2.7-4.1,5.2-6.4,7.6c-2.8,2.9-5.8,5.6-9.1,7.9c-0.1,0.1-0.2,0.2-0.2,0.3c-1,2.2-1.9,4.4-2.4,6.8
				c-0.1,0.5-0.1,1,0,1.4c0.1,0.7,0.8,1,1.3,0.6c0.6-0.5,1.2-1,1.7-1.6c0.9-1.2,1.7-2.4,2.5-3.7c1.4-2.1,2.8-4.2,4.4-6.2
				c1.5-1.8,3.1-3.4,5.1-4.6c0.9-0.5,1.8-0.8,2.8-0.6c0.7,0.1,1,0.6,1.4,1.1c0.1,0.1,0.2,0.2,0.3,0.4c0.2-0.3,0.3-0.6,0.5-0.8
				c0.1-0.1,0.2-0.2,0.3-0.2c1.2,0,2.5,0,3.7,0c0,0,0.1,0,0.1,0c-0.1,0.1-0.1,0.2-0.2,0.3c-1.9,3.3-3.8,6.7-5.7,10
				c-0.7,1.3-1.5,2.6-2.2,3.9c-0.2,0.3-0.3,0.7-0.5,1.1c-0.1,0.2-0.2,0.5,0.1,0.7c0.2,0.2,0.5,0.1,0.7-0.1c1.1-0.7,2-1.5,2.8-2.5
				c0.9-1.2,1.8-2.5,2.7-3.7c0.1-0.2,0.2-0.3,0.5-0.2c0.3,0,0.6,0,1,0c-0.1,0.2-0.3,0.4-0.4,0.6c-1.6,2.4-3.2,4.7-5.3,6.8
				c-1.2,1.2-2.5,2.2-4,2.8c-0.4,0.2-0.8,0.2-1.3,0.2c-0.8,0-1.4-0.4-1.6-1.2c-0.1-0.5-0.1-1.1-0.1-1.7c0-0.1,0-0.2,0-0.3
				c0,0,0,0-0.1,0c-0.2,0.2-0.4,0.5-0.7,0.7c-0.9,0.9-1.9,1.7-3,2.2c-0.6,0.3-1.2,0.4-1.8,0.3c-1.1-0.2-1.8-0.9-1.9-2.2
				c0-0.5,0-1,0-1.5c0-0.1,0-0.3,0-0.5c-0.1,0.2-0.2,0.2-0.3,0.3c-0.9,1.1-1.8,2.1-3,2.9c-0.5,0.3-1,0.6-1.6,0.8
				c-1.2,0.4-2.3-0.1-2.9-1.2c-0.4-0.7-0.4-1.4-0.4-2.1c0-1.6,0.5-3.2,1-4.7c0.3-0.9,0.6-1.9,0.9-2.9c-0.2,0-0.3,0.1-0.5,0.1
				c-0.5,0.1-1,0.1-1.5,0.2c-0.2,0-0.4,0.1-0.5,0.3c-1,1.5-1.9,3.1-3,4.6c-1.4,2-3.2,3.7-5.3,5c-0.7,0.4-1.5,0.7-2.3,0.8
				c-1.6,0.1-2.4-0.9-2.6-2c-0.3-1.1-0.2-2.2,0.1-3.3c0.5-2.4,1.6-4.6,2.9-6.6c1.4-2.2,3-4.3,5-6c1.2-1,2.5-1.9,4-2.4
				c0.6-0.2,1.1-0.2,1.8-0.2c1.2,0.1,1.7,1,1.9,1.8c0.3,1.2,0.1,2.4-0.3,3.6c-0.3,0.9-0.7,1.9-1.1,2.8c0,0.1-0.1,0.2-0.1,0.4
				c0.8,0,1.5-0.1,2.1-0.5c0.1,0,0.1-0.2,0.2-0.3c2-4.2,4.3-8.3,6.9-12.1c3.2-4.7,6.9-9,11.4-12.7c1.1-0.9,2.2-1.6,3.4-2.2
				c0.6-0.3,1.3-0.5,2-0.4c0.9,0,1.3,0.5,1.4,1.4c0.1,1.1-0.2,2.1-0.6,3c-0.5,1.1-0.5,1.1-1.7,1.3C-61.9,372.5-62,372.5-62.1,372.5z
				 M-74.2,402.5c0,0.4,0.4,0.7,1.1,0.5c0.3-0.1,0.6-0.3,0.8-0.5c0.8-0.6,1.3-1.4,1.9-2.2c1.5-2.1,2.8-4.4,4.1-6.7
				c0.8-1.3,1.5-2.7,2.3-4c0.2-0.3,0.2-0.6,0-0.9c-0.2-0.3-0.5-0.3-0.8-0.2c-0.4,0.1-0.7,0.3-1.1,0.5c-0.4,0.3-0.8,0.7-1.2,1
				c-2.7,2.8-4.8,6-6.5,9.5C-73.9,400.4-74.1,401.3-74.2,402.5z M-92.3,392.9c-0.6,0.9-1.2,1.7-1.7,2.5c-0.9,1.5-1.8,3-2.3,4.7
				c-0.2,0.6-0.3,1.2-0.2,1.8c0.1,0.8,0.7,1.2,1.5,1c0.7-0.2,1.3-0.6,1.8-1.1c1.7-1.6,2.9-3.5,4-5.5c0.1-0.1,0.1-0.2,0.2-0.4
				C-90.3,395.3-91.5,394.4-92.3,392.9z M-86.6,390c0-0.2,0-0.4,0-0.5c-0.1-0.8-0.5-1.2-1.1-1.2c-0.3,0-0.6,0.1-0.8,0.2
				c-0.7,0.4-1.4,0.9-1.8,1.6c-1.2,1.9-0.1,4,1.9,4.7c0.1,0,0.3-0.1,0.3-0.1c0.2-0.3,0.4-0.7,0.6-1.1C-87,392.4-86.5,391.2-86.6,390
				z"/>
			<path class="st7" d="M-149.4,384.2c0.3,0,0.5,0,0.6-0.1c0.6-0.3,1.2-0.6,1.8-1c1.2-0.8,2.2-1.8,3.2-2.8c1-1.1,2.1-2,3.3-2.8
				c1.1-0.7,2.2-1.1,3.5-1.1c1.7,0.1,2.8,1.4,2.6,3.1c-0.2,1.3-0.7,2.5-1.6,3.5c-0.3,0.3-0.7,0.6-1.1,0.8c-0.7,0.3-1.4-0.2-1.5-1
				c-0.1-1.4,1.2-2.8,2.6-3c0.1,0,0.2-0.1,0.2-0.1c0.2-0.5,0.1-1.4-0.8-1.4c-0.7,0-1.3,0.3-1.9,0.8c-1.1,0.8-2,1.8-2.8,2.8
				c-2,2.5-3.5,5.2-4.5,8.2c-0.3,0.7-0.4,1.5-0.2,2.3c0.2,1.2,1.1,1.8,2.3,1.5c1-0.3,1.9-0.9,2.7-1.6c1.7-1.6,3.2-3.3,4.6-5.2
				c1.3-1.7,2.5-3.5,3.9-5.2c1.3-1.6,2.7-3.1,4.5-4.3c0.8-0.6,1.6-1,2.6-1.2c1.1-0.2,1.9,0.1,2.6,1c0,0.1,0.1,0.1,0.1,0.2
				c0,0,0.1-0.1,0.1-0.1c0.2-0.5,0.6-0.7,1.2-0.6c0.9,0.1,1.9,0,2.8,0c0.1,0,0.2,0,0.4,0c-0.1,0.2-0.2,0.3-0.3,0.5
				c-2.7,4.7-5.4,9.4-8.1,14.1c-0.1,0.3-0.3,0.6-0.3,0.9c0,0.4,0.2,0.6,0.6,0.5c0.3-0.1,0.6-0.3,0.9-0.5c1-0.7,1.8-1.6,2.6-2.6
				c0.7-0.9,1.4-1.8,2.1-2.7c0.2-0.2,0.3-0.3,0.6-0.3c0.3,0,0.6,0,0.9,0c0,0.1-0.1,0.1-0.1,0.2c-1.7,2.4-3.4,4.8-5.6,6.9
				c-1.1,1-2.2,2-3.6,2.7c-0.6,0.3-1.3,0.5-1.9,0.3c-0.7-0.1-1.2-0.8-1.3-1.5c0-0.5,0-1-0.1-1.6c-0.1,0.1-0.1,0.2-0.2,0.3
				c-0.7,0.8-1.5,1.5-2.5,2.1c-0.6,0.4-1.3,0.7-2,0.8c-1.5,0.2-2.6-0.8-2.6-2.3c0-0.9,0.2-1.7,0.4-2.6c0-0.1,0-0.2,0-0.4
				c-0.1,0.1-0.2,0.2-0.3,0.3c-1.2,1.1-2.4,2.2-3.7,3.3c-1,0.9-2.2,1.4-3.6,1.6c-0.7,0.1-1.4,0.2-2.1-0.1c-1.4-0.5-2.1-1.6-2.4-3
				c-0.4-1.9,0.1-3.6,0.9-5.3c0.4-1,1-2,1.4-2.9c0.1-0.1,0.1-0.2,0.2-0.4c-0.5,0.1-1,0.3-1.5,0.3c-0.4,0.1-0.7,0.3-0.9,0.6
				c-1,1.5-1.9,3.1-3,4.6c-1.5,2-3.1,3.7-5.2,5.1c-0.8,0.6-1.7,1-2.8,1.1c-1.1,0.1-2.2-0.5-2.6-1.5c-0.4-0.9-0.4-1.8-0.3-2.7
				c0.3-2.7,1.4-5.1,2.8-7.4c1.7-2.7,3.8-5.2,6.5-7.1c1.1-0.8,2.2-1.4,3.6-1.7c2-0.4,3.3,0.7,3.4,2.8c0,1.1-0.3,2.2-0.7,3.3
				C-148.9,383-149.1,383.6-149.4,384.2z M-134.1,392.2c0,0.3,0.2,0.6,0.4,0.8c0.3,0.2,0.6,0.2,0.8,0c0.7-0.4,1.3-0.9,1.8-1.5
				c0.7-0.9,1.4-1.8,1.9-2.7c1.9-3.1,3.7-6.3,5.5-9.5c0.2-0.3,0.1-0.7-0.3-0.8c-0.3-0.1-0.6-0.1-1,0.1c-0.6,0.3-1.2,0.7-1.6,1.2
				c-1.3,1.6-2.6,3.2-3.8,4.9c-1.4,1.8-2.5,3.8-3.3,6C-133.8,391.1-134,391.6-134.1,392.2z M-155.3,382.7c-0.1,0.1-0.1,0.2-0.2,0.2
				c-0.6,1-1.3,1.9-1.9,2.9c-0.8,1.4-1.6,2.9-1.9,4.5c-0.1,0.5-0.2,1-0.1,1.4c0.1,0.9,0.7,1.3,1.6,1.1c0.2-0.1,0.4-0.2,0.6-0.3
				c0.8-0.5,1.4-1.1,2.1-1.8c1.3-1.5,2.3-3.2,3.3-4.8c0.1-0.1,0.1-0.2,0.2-0.4C-153.2,385-154.5,384.2-155.3,382.7z M-149.5,380
				c0-0.1,0-0.3,0-0.4c-0.2-1.1-0.7-1.6-1.9-1.2c-0.2,0.1-0.4,0.1-0.5,0.2c-0.8,0.5-1.4,1.2-1.8,2.1c-0.3,0.8-0.2,1.5,0.3,2.2
				c0.6,0.7,1.4,1.1,2.3,1.3c0.2,0,0.3-0.1,0.4-0.2c0.2-0.5,0.5-1,0.7-1.5C-149.8,381.7-149.5,380.9-149.5,380z"/>
			<path class="st7" d="M-70.3,372c-1,1.1-1.9,2.1-2.9,3.1c-0.1,0.1-0.3,0.1-0.3,0c-0.6-0.3-1.2-0.7-1.8-1.1
				c-1.9-1.2-3.7-2.4-5.6-3.5c-1.5-0.9-3-1.5-4.7-1.7c-0.5-0.1-1.1-0.1-1.6,0.1c-0.2,0.1-0.2,0.1-0.2,0.3c0.2,1.9-0.3,3.8-1.1,5.5
				c-1,2.5-2.5,4.6-4.5,6.4c-0.8,0.8-1.8,1.3-2.8,1.6c-1.5,0.4-2.6-0.3-2.8-1.8c-0.1-1,0.1-1.9,0.5-2.8c1.2-3,3.1-5.6,5.6-7.6
				c0.9-0.7,1.8-1.4,2.8-2c0.1,0,0.1-0.1,0.2-0.1c-0.6-0.2-1.1-0.2-1.7-0.2c-0.8,0.1-1.5,0.5-2.2,0.9c-2.7,1.5-5.1,3.4-7.2,5.7
				c-3.9,4.1-7.3,8.6-10,13.7c-1.5,2.8-2.6,5.7-3.2,8.8c-0.2,1.3-0.4,2.6-0.1,3.8c0.4,1.3,1.1,2.3,2.5,2.7c0.9,0.2,1.7,0.1,2.5-0.3
				c1.4-0.6,2.6-1.6,3.7-2.7c2.1-2.2,3.7-4.7,4.7-7.6c0.4-1.1,0.6-2.2,0.5-3.4c-0.1-1.1-0.7-1.5-1.8-1.1c-0.8,0.3-1.3,0.9-1.8,1.5
				c-1.1,1.4-1.8,3-2.1,4.7c0,0.1-0.1,0.3-0.2,0.3c-1.9,0.9-3.5,2.2-4.9,3.7c0,0.1-0.1,0.1-0.2,0.2c0.5-3.5,1.5-6.6,3.7-9.3
				c1.3-1.6,2.9-2.7,5-3.2c0.5-0.1,1.1-0.2,1.6-0.1c0.9,0.2,1.5,0.8,1.7,1.7c0.4,1.1,0.3,2.3,0.1,3.4c-0.5,2.7-1.7,5-3.2,7.2
				c-1.9,2.8-4.2,5.2-7.1,6.9c-1.2,0.7-2.6,1.1-4,1.2c-2.3,0.1-4-1-5.2-2.9c-1-1.7-1.2-3.5-1.1-5.4c0.2-3,1.2-5.8,2.5-8.4
				c3.5-7.3,8.3-13.5,14.5-18.6c2.7-2.2,5.7-3.9,9-4.8c1.2-0.3,2.4-0.5,3.7-0.1c0.6,0.2,1,0.4,1.5,0.8c0.1,0.1,0.3,0.2,0.4,0.1
				c1-0.3,2-0.7,3-0.9c2.5-0.5,4.9-0.1,7.1,1C-75.3,369-72.9,370.5-70.3,372C-70.3,372-70.3,372-70.3,372z M-88.7,369.4
				c-0.3,0.2-0.6,0.3-0.8,0.5c-3.2,1.9-5.5,4.7-7.2,8c-0.4,0.7-0.7,1.5-0.8,2.4c-0.1,1.1,0.7,1.7,1.7,1.3c0.4-0.2,0.8-0.4,1.1-0.7
				c3.4-2.7,5.5-6.2,5.9-10.5C-88.6,370.1-88.7,369.8-88.7,369.4z"/>
			<path class="st7" d="M-50.9,366.6c-0.5,1.2-1.2,2.2-2,3.2c-2.5,3.2-5.7,5.6-9.6,6.8c-2,0.6-4,0.8-6.1,0.4c0,0-0.1,0-0.1,0
				c-0.1,0-0.2,0-0.3-0.1c0.1-0.1,0.1-0.2,0.2-0.3c0.8-1,1.7-2,2.5-3c0.1-0.1,0.2-0.2,0.4-0.2c2.4,0.2,4.6-0.2,6.8-1.1
				c3.1-1.3,5.8-3.2,8.2-5.7C-50.9,366.7-50.9,366.6-50.9,366.6z"/>
			<path class="st7" d="M-111.6,376.9c-0.3,0.6-0.7,1.1-1,1.6c-0.3,0.6-0.7,1.1-1.1,1.7c-0.1,0.1-0.2,0.2-0.3,0.2
				c-1.2,0-2.3,0-3.5,0c0,0,0,0-0.1,0c0,0,0-0.1,0.1-0.1c0.6-1,1.3-2.1,1.9-3.1c0.1-0.1,0.2-0.2,0.3-0.2
				C-114.1,376.9-112.9,376.9-111.6,376.9z"/>
		</g>
	</g>
	<path class="st8" d="M-155.4,252.5c0,0,35.4-7,70.6-2.7c0,0-9-47-5.7-63.6c0,0,8.6-10.8,1.8-28.4c0,0-21.5-11.1-62.5,0
		c0,0-9.8,15.8-1.7,28.4C-152.9,186.3-147.7,206.7-155.4,252.5z"/>
	<path class="st9" d="M-101.1,190.8c0-1.2,0-2.4,0.3-3.5c0.6-1.6,2-2.9,2.6-4.5c0.5-1.4,0.4-3,0.2-4.5c-0.6-5.3-1.2-10.6-1.7-15.8
		c-0.2-1.9-0.5-3.9-1.5-5.5c-1.1-1.6-3.3-2.6-5-1.8c-2.7,20.1-5.4,40.4-4.5,60.6c0.5,10.9,2.1,21.7,4,32.5c3.9,0.4,7.7,0.9,11.6,1.3
		C-100.1,230.5-100.6,210.5-101.1,190.8z"/>
	<path class="st9" d="M-140.5,218.2c4.2-17.1-3-35.6,1.8-52.6c-1.3,9.1-1.5,18.4-0.3,27.6c1,7.3,2.8,14.5,2.4,21.9
		c-0.6,10.3-5.5,20.5-2.8,30.5c0.2,0.6,0.3,1.2,0.3,1.7c-0.1,2.5-3.4,3.2-5.8,3.2c-0.7,0-1.5,0-1.9-0.5c-0.5-0.5-0.5-1.4-0.4-2.2
		c0.4-5.2,0.9-10.4,2.2-15.4C-143.8,227.6-141.7,223-140.5,218.2z"/>
	<path class="st10" d="M-132.4,156.6c-0.2,6.5-0.5,13.1,1,19.4c0.4,1.9,1,3.7,1.2,5.6c0.2,1.8,0,3.6-0.2,5.4
		c-0.6,6.3-1,12.7-1.3,19.1c-0.2,3.7-0.4,7.4-0.6,11c-0.5,9.7-1,19.4-1.5,29.1c0,0.7-0.1,1.5,0.3,2.1c0.7,1.2,2.3,1.2,3.6,1.2
		c4.8-0.2,9.5-0.4,14.3-0.5c0.7,0,1.4-0.1,2-0.3c1.4-0.6,2-2.4,1.9-3.9c-0.1-1.5-0.9-3-1.4-4.4c-2.4-6-2.6-12.6-2.6-19.1
		c-0.2-12.3-0.4-24.5-0.5-36.8c0-1.3,0-2.5,0.2-3.8c0.2-1,0.6-2,1-3c2.1-6.5,0.9-13.5-0.3-20.3c-0.3-1.4-0.6-3-1.9-3.7
		c-0.7-0.4-1.5-0.4-2.2-0.4c-3.6-0.1-7.1,0.2-10.6,0.9c-0.7,0.1-1.5,0.3-1.9,0.9C-132.4,155.6-132.4,156.1-132.4,156.6z"/>
	<path class="st10" d="M-151.4,184.8c-0.3,0.1-0.7,0.3-0.8,0.7c-0.1,0.3,0,0.5,0,0.8c0.5,1.9,1,3.8,1.6,5.7c4.5-2.9,9.5-5,14.8-5.9
		c-3.7-1-7.5-0.2-11.2,0.7c3-2.6,6.5-4.6,10.3-5.8C-141.7,181.4-146.7,182.7-151.4,184.8z"/>
	<path class="st10" d="M-86.5,180.1c0.1,0,0.3,0,0.4,0.1c0.4,0.2,0.3,0.8,0.1,1.3c-0.8,2-2,4.2-4,4.5c-0.7,0.1-1.4-0.1-2-0.2
		c-4.3-1-8.5-2-12.8-3.1c-1.6-0.4-3.2-0.7-4.7-0.1C-102,180.5-94.2,179.7-86.5,180.1z"/>
	<path class="st11" d="M-151.2,161.8c0,0-4.9,0.7-5.3-2.9c-0.4-3.6,1.7-16.4,1.7-16.4s1.5-4.2,11.3-6.8c9.8-2.6,38.8-4.5,53.2,2
		c0,0,5.2,3.3,5,5.7l0.9,14.4c0,0-2.5,6.6-5,5.7l-1.9-6.1l-8.2,1.6l-3.8-2.7l-7.7,1.8l-9.6-2.3l-11.6,3.1l-3.5-4l-6.9,4l-3.6-2.5
		L-151.2,161.8z"/>
	<path class="st12" d="M-111.1,151.7c-0.4-3.6-0.9-7.2-1.3-10.8"/>
	<path class="st12" d="M-103.2,139.6c0,5,0.1,10.1,0.1,15.1c1.6,0.7,3,1.9,4,3.3c-0.6-2.5-0.2-5.2,1.2-7.3c0.5-0.8,1.4-1.6,2.4-1.4
		c0.5,0.1,0.8,0.5,1.1,0.9c1.3,1.9,0.5,5,2.3,6.4c0.4-2,0.8-4.1,1.2-6.1c1.2,0.3,1.8,1.7,2,2.9s0.4,2.6,1.3,3.4
		c0.5-4.5,0.2-9-0.9-13.3c-0.2-0.8-0.4-1.7-0.8-2.5c-1.5-2.8-5-4-8.1-3.8c-1.5,0.1-3,0.5-4.3,1.4
		C-102.8,139.4-103.2,138.1-103.2,139.6z"/>
	<path class="st12" d="M-151.3,140.1c-2.3,1.5-2.7,4.6-2.9,7.3c-0.3,3.2-0.5,6.3-0.8,9.5c0,0.4-0.1,0.8,0.1,1.2
		c0.4,1.1,2.1,1.2,2.5,2.3c1.2-3.7,2.5-7.5,3.7-11.2c1.2,1.9,2.3,3.9,3.5,5.8c0.3,0.4,0.6,0.9,1,1.1c0.8,0.3,1.7-0.4,2-1.2
		c0.3-0.8,0.1-1.7,0-2.6c-0.8-6.1,1.3-12.5,5.6-16.9c-3.1-0.7-6,1.8-9.2,2.4c-1.1,0.2-2.3,0.2-3.4,0.5
		C-151.6,139-149.2,138.8-151.3,140.1z"/>
	<path class="st12" d="M-130.3,155.4c-0.9-6-0.3-12.5-3.3-17.7"/>
</g>
</svg>
