<?xml version="1.0" encoding="utf-8"?>
<!-- Generator: Adobe Illustrator 19.0.0, SVG Export Plug-In . SVG Version: 6.00 Build 0)  -->
<!DOCTYPE svg PUBLIC "-//W3C//DTD SVG 1.1//EN" "http://www.w3.org/Graphics/SVG/1.1/DTD/svg11.dtd">
<svg version="1.1" id="Layer_1" xmlns="http://www.w3.org/2000/svg" xmlns:xlink="http://www.w3.org/1999/xlink" x="0px" y="0px"
	 viewBox="-210 122 191 550" style="enable-background:new -210 122 191 550;" xml:space="preserve">
<style type="text/css">
	.st0{fill:#362923;}
	.st1{fill:#B3222D;}
	.st2{fill:#736B60;}
	.st3{fill:#685448;}
	.st4{fill:#141217;}
	.st5{fill:#861924;}
	.st6{fill:#CC3742;}
	.st7{fill:#FFFFFF;}
	.st8{fill:#B6B6B6;}
	.st9{fill:#CCCBCB;}
	.st10{fill:#F2F1F1;}
</style>
<g>
	<path class="st0" d="M-198.8,591.2c0,0-6.9,51.9,20.7,68.7c0,0,13,5.4,15.3,0c0,0,6.9,10.7,25.2,9.2c18.4-1.5,27.5-13,27.5-13
		s18.4,14.1,35.2,13.2c16.8-0.9,21.4-10.1,21.4-10.1s19.9-9.1,26.8-45.1c0,0,3.8-21.5-6.1-39.8s-9.2-63.5-3.8-82.6
		S-26,470.2-26,470.2s5.4-20.9-3.8-27.3V318.7c0,0,6.9-7.6,1.5-22.2l-41.3-73.4c0,0-58.9-10.6-88.7,0c0,0-29.1,47.6-36.7,69.7
		c0,0-7.6,23-4.6,29.8v121.2c0,0-10.6,21.7-0.7,28.6c0,0,8.4,6.1,9.9,19.1s3,39.8-3.1,78C-193.5,569.6-198.4,586.8-198.8,591.2z"/>
	<path class="st1" d="M-199.6,443.9c0,0,107.1,12.1,169.8-0.9V322.7c0,0-65.8-13.9-169.8,0V443.9z"/>
	<path class="st2" d="M-79.1,628.7c0.9-0.2,1.6-0.8,2.3-1.4c4.4-4.1,8.2-8.9,11.3-14.2c-11.3-1.9-22.7-3.9-34-5.8
		c-5.1-0.9-10.2-1.8-15.4-1.9c-5.6-0.2-11.2,0.5-16.8,0.7c-13.8,0.3-27.6-2.8-39.9-8.9c-0.5,21.2,11.7,42.2,30.4,52.2
		c1.8,0.9,3.7,1.8,5.7,1.4c2.1-0.5,3.5-2.5,4.7-4.3c5.4-9.1,8.3-19.7,15.1-27.7c5-5.9,13.7-10.2,20.2-6.2c6,3.7,7.3,12.6,13.6,15.7
		C-81.1,628.6-80.1,629-79.1,628.7z"/>
	<path class="st3" d="M-179.6,610.8c-0.8-3.4-1.5-6.8-2.3-10.2c-0.9-4.1-2.9-9.1-7.1-9.1c-2.6,0-4.8,2.3-5.6,4.8s-0.4,5.2-0.1,7.8
		c2.2-0.8,4.5,0.8,5.9,2.7c3.6,4.7,4.4,10.8,5.8,16.6c2.6,10.5,7.6,20.5,14.6,28.8c0.5,0.6,1.1,1.3,1.9,1.5s1.8-0.2,1.9-1.1
		C-172.9,640.3-176.3,625.4-179.6,610.8z"/>
	<path class="st3" d="M-183.1,653.1c2.6,2.8,6.2,4.9,10.1,4.7c0.4-3.3-2.6-5.8-4.5-8.5c-2.3-3.2-8.1-26.4-13.9-23.2
		C-197.3,629.3-185.9,650.1-183.1,653.1z"/>
	<path class="st3" d="M-164.7,521.2c-2.4-9.1-6.5-17.7-9.2-26.7c-2.7-9-4-18.9-0.7-27.7c-5.1,1.7-10.2,3.4-15.4,5
		c6.4,10.7,7.8,23.6,9.2,36c1.3,12.1,2.6,24.5-0.1,36.4c-3.1,14-11.6,26.7-12.2,41c4-0.1,8-0.3,12-0.4c1.5,0,3-0.1,4.4-0.8
		c1.7-0.8,2.9-2.5,3.8-4.2C-162.5,562.6-159.5,540.9-164.7,521.2z"/>
	<path class="st3" d="M-197.8,466.6c1.4,0.5,2.9,0.2,4.4-0.2c2.8-0.7,5.7-1.4,8.5-2.1c-2.2-5.5-1.5-12,1.8-16.9
		c-4.3-1.2-8.8-1.6-13.3-1.1c-2.2,3.9-3.6,8.3-4.1,12.8C-200.9,462-200.5,465.6-197.8,466.6z"/>
	<path class="st3" d="M-195.7,314.6c-0.1,0.6-0.1,1.2,0.2,1.6c0.4,0.5,1.1,0.4,1.8,0.4c10-1.1,19.9-2.2,29.9-3.3
		c-4.1-1.7-8.5-3.6-10.8-7.4c-1.9-3.1-2-7-1.6-10.6c0.5-4.3,1.7-8.4,2.9-12.5c4.3-14.6,8.5-29.3,12.8-43.9
		C-176.6,261.8-191.7,286.8-195.7,314.6z"/>
	<path class="st2" d="M-112,310.3c8.1-3.1,14.9-9.1,19-16.7c4.7-8.7,5.6-18.9,6-28.7c0.5-10.7,0.5-21.5,0.1-32.3
		c1.2,21.3,8.8,42.3,21.4,59.5c4.6,6.3,10.1,12.6,11,20.4c-12.5,0.1-25,0.3-37.5,0.4C-98.8,313-105.8,313-112,310.3z"/>
	<path class="st2" d="M-69.5,571.8c-0.8,7.7-2.4,15.8-7.4,21.7c-5,5.9-14.6,8.6-20.7,3.8c10.7-9.7,14.8-24.9,15.1-39.3
		c0.4-14.4-2.3-28.8-2.6-43.2c-0.3-14.4,2.3-29.7,11.6-40.8c-6.4,12.4-2,27.4,1,41C-68.4,533.6-67.4,552.9-69.5,571.8z"/>
	<path class="st4" d="M-161.4,644.9c1.9,4.6,3.8,9.1,5.7,13.7c0.8,1.9,1.7,4,3.6,4.9c1.3,0.6,2.7,0.6,4.1,0.5
		c5.4-0.3,10.9-0.8,16.3-1.5c2.7-0.4,5.4-0.8,7.8-2c4.2-2.1,7-6.2,9.3-10.4c3.9-7.1,6.7-15,6.9-23.1c-3.5,7.7-8.1,14.9-13.8,21.2
		c-2,2.2-4.2,4.4-6.9,5.7c-2.2,1-4.8,1.4-7.2,1.4c-8.5,0.1-16.9-4.2-21.8-11.1c-0.6-0.8-1.5-1.8-2.4-1.4c-0.6,0.3-0.9,1-0.9,1.7
		c-0.4,4.2,2.6,8.5,6.6,9.7"/>
	<path class="st4" d="M-95.9,644.6c-0.4,3-0.8,6.2,0.4,9c1.6,3.7,5.4,5.7,9,7.4c4.5,2.1,9.2,4.3,14.2,4.1c5.3-0.2,10.2-3,13.8-6.8
		c3.7-3.8,6.3-8.5,8.7-13.2c6.7-13,12.1-26.7,16.3-40.7c-7.5,6.5-16.8,10.9-26.6,12.7c0.1,4.6-0.3,9.3-2.5,13.3s-6.4,7.2-10.9,7.1
		c-3.8-0.1-7.2-2.3-10.3-4.5c-3.2-2.2-6.4-4.4-9.6-6.6C-94.2,632.5-95.1,638.6-95.9,644.6z"/>
	<path class="st4" d="M-37.1,487c0.6-2.1,1-4.4,0.4-6.5c-1.2-3.9-5.8-5.7-9.8-6s-8.3,0.3-12.1-1.1c0.5,2.8-1.1,5.4-2.4,7.9
		c-5.4,10.7-4.8,23.5-2.7,35.3c2.2,11.8,5.8,23.4,6.2,35.4c0.6,17.5-6.1,35.2-18.2,48c13.4,5,28.5-0.7,40.1-9
		c1.6-1.1,3.3-2.5,3.7-4.4c0.8-3.2-2-5.9-4.1-8.4c-5.8-7-7.4-16.6-8.5-25.7c-1.9-15.9-3.2-32.4,1.3-47.8
		C-41.4,498.7-38.8,493-37.1,487z"/>
	<path class="st4" d="M-30.3,461.3c1-3.6,0.8-7.5-0.4-11.1c-0.4-1.2-1-2.5-2-3.3c-1.8-1.6-4.5-1.6-6.9-1.5
		c-6.7,0.4-13.4,1.4-19.9,2.9c2.6,2,3.3,5.9,2.1,8.9c-1.2,3-4.2,5.2-7.4,5.9c8,1.4,16,2.9,24,4.3c2.1,0.4,4.2,0.7,6.2-0.1
		C-32.3,466.3-30.9,463.8-30.3,461.3z"/>
	<path class="st4" d="M-131.5,228.3c1.3-0.7,2.7-1.4,3.2-2.7c0.7-1.7-0.6-3.7-2.2-4.5c-1.6-0.8-3.6-0.8-5.4-0.7
		c-2.9,0.1-5.9,0.2-8.7,1.3c-6.5,2.5-9.9,9.6-12.5,16.1c-6,15.3-10.8,31.3-11.6,47.7c3.7-8.1,7.4-16.3,11.2-24.3
		C-151.3,248.3-144.1,234.9-131.5,228.3z"/>
	<path class="st4" d="M-33.6,314.7c2-5.4,2.3-11.5,0.8-17.1c-1.5-5.8-4.9-11-8.2-16c-11.3-17.3-22.6-34.7-33.9-52
		c-0.8-1.3-1.9-2.7-3.4-2.6c-2.6,0.1-2.7,4-1.8,6.5c4.9,13.5,13.5,25.3,20.2,38s11.4,27.5,7.6,41.3c5.1,1.2,10.3,2.5,15.4,3.7
		c0.7,0.2,1.5,0.3,2.2,0C-34.2,316.1-33.9,315.4-33.6,314.7z"/>
	<g id="bOjIZk.tif_7_">
		<g>
			<path class="st4" d="M-129.3,491c0.5,0.1,0.8,0.3,1.1,0.6c0.7,0.6,1.5,1.1,2.2,1.6c0.3,0.2,0.5,0.4,0.7,0.6
				c0.7,0.6,1.5,1.2,2.2,1.7c1.1,0.8,1.8,1.8,2.9,2.6c0.4,0.3,0.8,0.6,1.1,1c0.8,0.7,1.5,1.5,2.2,2.3c0.8,0.9,1.4,1.8,2.1,2.8
				c0.3,0.4,0.7,0.5,1.1,0.7c0.7,0.3,1.5,0.6,2.2,0.9c1,0.3,2,0.6,3,0.9c0.7,0.2,1.3,0.2,2,0.1c0.5-0.1,0.8-0.7,0.6-1.1
				c-0.5-0.8-1.3-1.4-2.2-1.9c-1.1-0.7-2.2-1.4-3.4-2.1c-0.9-0.6-1.9-1.1-2.8-1.7c-0.7-0.5-1.4-0.9-2.1-1.5c-0.8-0.6-1.6-1.3-2.4-2
				c-0.6-0.5-1.1-1.1-1.6-1.7c-0.1-0.1-0.1-0.1-0.2-0.2c-0.6-0.5-0.9-1.2-1.1-1.9c-0.2-0.6-0.1-1.3,0.2-1.9c0.1-0.2,0.4-0.4,0.6-0.6
				c0.2-0.1,0.3-0.3,0.5-0.4c-0.2-0.1-0.4-0.2-0.6-0.3c-0.3-0.1-0.4-0.3-0.4-0.6c0-0.6,0-1.2-0.1-1.8c0-0.3,0-0.6,0-0.9
				c0-0.1,0-0.2,0.2-0.2c0.3,0.1,0.6,0.3,0.9,0.4c0.6,0.3,1.1,0.6,1.7,0.9c0.7,0.4,1.5,0.7,2.2,1.1c0.3,0.2,0.6,0.4,0.9,0.5
				c0.9,0.5,1.9,0.9,2.8,1.4c0.7,0.4,1.4,0.8,2.1,1.1c1.1,0.5,2.1,1.1,3.2,1.6c0.2,0.1,0.3,0.1,0.5,0.1c0.1,0,0.4,0,0.4-0.1
				c0.1-0.1,0.1-0.3,0.1-0.4c-0.2-0.4-0.4-0.9-0.8-1.2c-0.4-0.3-0.6-0.7-0.9-1c-0.9-0.7-1.8-1.4-2.8-2c-0.5-0.3-0.9-0.6-1.4-0.9
				c-0.2-0.1-0.3-0.7-0.1-0.9c0,0,0.2-0.1,0.3,0c0.4,0.2,0.7,0.5,1.1,0.7c0.3,0.2,0.5,0.3,0.8,0.5c0.9,0.5,1.6,1,2.4,1.6
				c0.6,0.5,1.2,0.9,1.8,1.4c0.5,0.4,1,0.9,1.4,1.4c0.7,0.7,1.2,1.6,1.6,2.4c0.3,0.5,0.3,1.1,0,1.6c-0.2,0.4-0.6,0.7-1.1,0.8
				c-0.5,0.1-0.9,0-1.4,0c-0.1,0-0.2,0-0.3,0.1c0.1,0.1,0.2,0.2,0.3,0.3c0.9,0.7,1.6,1.5,2.2,2.4c0.5,0.7,0.8,1.5,0.5,2.4
				c-0.2,0.5-0.5,1-1.3,1.1c-0.5,0.1-0.9,0.2-1.4,0.2c-0.3,0-0.6,0-1-0.1c0,0,0,0.1-0.1,0.1c0.1,0.1,0.2,0.3,0.4,0.4
				c0.5,0.4,1,0.8,1.5,1.2c0.5,0.4,0.9,1,1.3,1.5c0.4,0.5,0.6,1.1,0.7,1.6c0.1,0.5-0.1,0.9-0.4,1.3c-0.5,0.6-1.3,0.9-2.1,1
				c-1.1,0.1-2.2-0.1-3.3-0.4c-1-0.2-1.9-0.5-2.8-0.8c-0.4-0.1-0.8-0.2-1.2-0.3c-0.1,0-0.2,0-0.2,0.1c0,0,0,0.1,0,0.2
				c0,0.1,0.1,0.2,0.1,0.4c0,0.3,0,0.7,0.1,1c0,0.1,0.2,0.3,0.3,0.3c1.1,0.6,2.2,1.2,3.2,1.8c0.9,0.6,1.8,1.3,2.7,1.9
				c1,0.8,1.9,1.6,2.6,2.6c0.6,0.8,1.1,1.6,1.3,2.5c0.1,0.7,0,1.4-0.5,1.9c-0.5,0.4-1.1,0.7-1.8,0.7c-1.4,0.1-2.8-0.1-4.1-0.6
				c-0.6-0.2-1.2-0.4-1.8-0.6c-0.8-0.3-1.5-0.7-2.2-1.1c-0.4-0.2-0.9-0.5-1.3-0.7c-0.5-0.3-0.9-0.6-1.4-0.9c-0.7-0.5-1.4-1-2.1-1.6
				c-0.5-0.4-1-0.9-1.4-1.4c-0.8-0.9-1.4-1.8-2-2.8c-0.3-0.5-0.4-1-0.4-1.5c0-0.6,0.1-1.2,0.5-1.7c0.3-0.4,0.8-0.5,1.3-0.6
				c1.1-0.2,2.2,0,3.3,0.3c0.6,0.2,1.2,0.4,1.8,0.6c0.3,0.1,0.5,0.2,0.7,0.3c0.2,0.1,0.3,0,0.3-0.1c0-0.4-0.1-0.7-0.1-1.1
				c-0.1-0.4-0.3-0.7-0.8-0.9c-0.9-0.3-1.7-0.7-2.5-1.1c-1.3-0.7-2.7-1.4-4-2.1c-1.1-0.6-2.2-1.2-3.2-1.8c-1-0.6-2-1.3-3-2
				c-0.8-0.6-1.7-1.1-2.5-1.7c-0.4-0.3-0.8-0.6-1.1-0.9c-0.6-0.5-1.2-1-1.8-1.5c-0.8-0.7-1.7-1.4-2.5-2.2c-0.9-0.9-1.8-1.9-2.6-2.9
				c-0.5-0.5-0.9-1.1-1.3-1.7c-0.5-0.7-0.6-1.5-0.6-2.3c0-0.5,0.6-0.8,1.2-0.9c1.2-0.1,2.2,0.2,3.2,0.7c0.5,0.3,0.6,0.6,0.5,1.1
				c-0.4-0.2-0.8-0.4-1.3-0.6c-0.6-0.2-1.2-0.4-1.7-0.5c-0.5-0.1-0.9,0.4-0.6,0.8c0.3,0.5,0.7,1.1,1.2,1.5c1,1,2.1,2,3.1,2.9
				c0.8,0.7,1.6,1.2,2.5,1.8c0.6,0.5,1.3,0.9,1.9,1.4c0.4,0.3,0.8,0.5,1.2,0.8c0.8,0.5,1.5,1,2.3,1.5c0.7,0.4,1.3,0.8,2,1.1
				c0.8,0.4,1.5,0.9,2.3,1.3c0.6,0.3,1.3,0.7,1.9,1c0.7,0.3,1.4,0.7,2.1,1c0.3,0.2,0.7,0.3,1.1,0.5c0-0.4-0.4-0.6-0.7-0.9
				c-0.5-0.6-1-1.1-1.5-1.6c-0.5-0.5-0.9-1-1.4-1.5c-0.6-0.6-1.2-1.2-1.8-1.8c-0.4-0.4-1-0.7-1.4-1c0,0-0.1-0.1-0.1-0.1
				c-0.6-0.5-1.1-1-1.7-1.4c-0.6-0.5-1.1-1.1-1.8-1.6c-0.5-0.4-1.2-0.8-1.8-1.2c-0.1-0.1-0.2-0.2-0.3-0.3
				C-129.4,491.6-129.5,491.3-129.3,491z M-118.9,490.4c-0.6,0-0.9,0.2-0.8,0.6c0.1,0.4,0.3,0.8,0.6,1.1c0.5,0.6,1.1,1.2,1.7,1.7
				c0.7,0.6,1.4,1.1,2.2,1.6c0.7,0.5,1.5,1,2.3,1.4c0.8,0.5,1.6,0.9,2.4,1.3c1.1,0.5,2.2,1,3.5,1.1c0.3,0,0.6,0,0.8-0.1
				c0.2-0.2,0.3-0.5,0.2-0.8c-0.1-0.2-0.2-0.4-0.4-0.6c-0.4-0.4-0.8-0.8-1.3-1.1c-0.6-0.4-1.2-0.8-1.8-1.2c-0.5-0.3-1-0.6-1.6-0.9
				c-0.9-0.5-1.7-0.9-2.6-1.4c-0.3-0.2-0.7-0.3-1-0.5c-0.6-0.3-1.1-0.6-1.7-0.9c-0.6-0.3-1.1-0.6-1.7-0.9
				C-118.3,490.7-118.7,490.5-118.9,490.4z M-115.4,515c0.1,0.1,0.1,0.2,0.3,0.3c0.8,0.5,1.6,1,2.4,1.5c1,0.6,2.1,1.1,3.3,1.5
				c0.8,0.2,1.5,0.4,2.3,0.4c0.9-0.1,1.4-0.9,1-1.7c-0.4-0.6-0.8-1.2-1.4-1.7c-0.7-0.6-1.5-1.1-2.3-1.6c-0.7-0.4-1.4-0.8-2.1-1.2
				c-0.4-0.2-0.9-0.1-1,0.1c-0.3,0.6-0.7,1.2-1.2,1.6C-114.5,514.4-114.9,514.6-115.4,515z M-113.7,511.4c-0.5-0.2-0.9-0.4-1.3-0.5
				c-0.8-0.3-1.7-0.7-2.6-0.7c-0.5,0-0.9,0-1.4,0c-0.2,0-0.4,0.1-0.6,0.3c-0.3,0.3-0.4,0.6-0.3,1c0.1,0.3,0.3,0.6,0.4,0.8
				c0.4,0.6,0.9,1.1,1.6,1.4c0.9,0.4,1.9,0.3,2.8-0.2C-114.4,512.9-113.9,512.2-113.7,511.4z"/>
			<path class="st4" d="M-123.6,564c0-0.2,0-0.4-0.1-0.6c-0.2-0.6-0.6-1.2-1-1.7c-0.8-1.1-2-2-3-3c-0.7-0.7-1.4-1.4-1.9-2.2
				c-0.3-0.5-0.7-1-1-1.5c-0.2-0.5-0.3-1-0.3-1.6c0.1-0.5,0.2-1,0.5-1.4c0.4-0.5,0.9-0.7,1.6-0.8c0.7-0.1,1.4,0.1,2,0.3
				c0.7,0.2,1.2,0.6,1.8,0.9c0.5,0.4,1,0.8,1,1.5c0,0.4-0.4,0.8-0.9,0.8c-0.6,0-1.1-0.2-1.6-0.5c-0.4-0.2-0.8-0.5-0.9-0.9
				c-0.1-0.2-0.2-0.5-0.2-0.7c0-0.3-0.2-0.4-0.5-0.4c-0.8-0.1-1.3,0.5-1,1.2c0.3,0.9,0.9,1.5,1.6,2.2c1,0.9,2.1,1.8,3.3,2.6
				c1.2,0.7,2.3,1.4,3.6,1.9c0.8,0.3,1.6,0.6,2.4,0.9c0.8,0.3,1.7,0.4,2.6,0.1c1-0.3,1.3-1,1.1-1.8c-0.2-0.9-0.8-1.6-1.4-2.2
				c-0.4-0.4-0.7-0.8-1.1-1.1c-0.5-0.4-0.9-0.8-1.4-1.2c-0.5-0.4-1-0.7-1.5-1.1c-0.7-0.5-1.3-0.9-2-1.3c-0.5-0.3-0.9-0.7-1.4-1
				c-0.4-0.3-0.8-0.6-1.2-0.9c-0.5-0.3-1-0.7-1.5-1.1c-0.5-0.4-1-0.8-1.5-1.2c-0.7-0.7-1.4-1.4-2.1-2.1c-0.6-0.7-1-1.4-1.3-2.3
				c-0.3-0.8-0.1-1.6,0.6-2.2c0.1,0,0.1-0.1,0.2-0.1c0.2-0.2,0.2-0.3-0.1-0.4c-0.3-0.1-0.4-0.3-0.4-0.6c0-0.9,0-1.9,0-2.9
				c0.3,0.2,0.6,0.3,0.9,0.5c1.3,0.7,2.5,1.3,3.8,2c1,0.5,2,1,3,1.5c0.8,0.4,1.7,0.9,2.5,1.4c0.7,0.4,1.5,0.8,2.2,1.1
				c0.5,0.3,1,0.5,1.6,0.8c0.1,0,0.2,0.1,0.3,0.1c0.2,0,0.5,0,0.6-0.1c0.1-0.2,0.2-0.5,0.1-0.6c-0.3-0.5-0.6-0.9-1-1.3
				c-0.6-0.6-1.3-1.2-2-1.8c-0.8-0.6-1.6-1.1-2.4-1.6c-0.1-0.1-0.2-0.2-0.2-0.3c0-0.3,0-0.6,0-0.9c0.3,0.2,0.5,0.3,0.7,0.4
				c0.8,0.5,1.6,1.1,2.3,1.6c0.4,0.3,0.8,0.6,1.2,0.9c0.7,0.5,1.4,1.1,2,1.7c0.8,0.8,1.6,1.6,2.3,2.4c0.5,0.6,0.9,1.4,0.9,2.2
				c0,0.8-0.8,1.4-1.6,1.4c-0.4,0-0.8,0-1.2,0c0.1,0.1,0.1,0.3,0.2,0.4c0.7,0.5,1.3,1.2,1.8,1.9c0.4,0.5,0.7,1.1,0.8,1.8
				c0.2,1-0.5,2.1-1.9,2.3c-0.9,0.1-1.8-0.1-2.7-0.3c-0.1,0-0.1,0-0.2,0c0,0,0,0-0.1,0.1c0.2,0.3,0.5,0.5,0.7,0.8
				c0.7,0.7,1.5,1.4,2.2,2.2c0.6,0.7,1.2,1.5,1.6,2.3c0.3,0.8,0.5,1.5,0.4,2.3c-0.1,1.3-1.2,2.3-2.5,2.6c-0.5,0.1-0.9,0.2-1.4,0.2
				c-0.4,0-0.9-0.1-1.3-0.2c-1.1-0.3-2.1-0.6-3.2-1c-0.7-0.3-1.4-0.6-2.1-1c-0.1-0.1-0.2-0.1-0.4-0.2c0,0.3,0.1,0.5,0.1,0.7
				c0.1,0.2,0.2,0.4,0.2,0.6c0,0.5,0.4,0.6,0.8,0.8c0.8,0.4,1.6,0.8,2.4,1.3c0.8,0.5,1.5,1,2.2,1.5c0.9,0.7,1.8,1.4,2.6,2.2
				c0.5,0.4,0.9,1,1.3,1.5c0.5,0.5,0.8,1.1,1.1,1.7c0.3,0.8,0.5,1.6,0,2.4c-0.3,0.5-0.8,0.8-1.5,1c-0.7,0.2-1.4,0.2-2,0.2
				c-0.8-0.1-1.5-0.2-2.3-0.4c-0.6-0.2-1.2-0.4-1.8-0.6c-0.8-0.3-1.6-0.7-2.4-1.1c-1-0.6-1.9-1.1-2.8-1.8c-0.9-0.7-1.8-1.5-2.7-2.3
				c-0.8-0.6-1.3-1.4-1.8-2.1c-0.5-0.7-1-1.4-1.2-2.2c-0.2-0.6-0.3-1.2-0.2-1.7c0.1-0.5,0.4-1,1-1.2c0.8-0.4,1.7-0.4,2.6-0.3
				c1,0.1,1.8,0.4,2.7,0.7C-124.2,563.7-124,563.8-123.6,564z M-129.1,542.4c0,0.4,0.2,0.7,0.4,1c0.4,0.6,1.1,1.1,1.7,1.6
				c0.9,0.6,1.7,1.3,2.7,1.9c1.1,0.7,2.2,1.5,3.4,2.1c1.4,0.8,2.9,1.5,4.6,1.8c0.4,0.1,0.8,0,1-0.3c0.1-0.2,0.2-0.5,0.1-0.7
				c-0.3-0.7-0.9-1.3-1.5-1.7c-0.4-0.3-1-0.6-1.5-0.9c-1.1-0.6-2.2-1.3-3.3-1.9c-1-0.6-2-1.1-3-1.6c-1.2-0.6-2.4-1.2-3.5-1.8
				c-0.3-0.2-0.6-0.2-0.8,0.1C-129.1,542.1-129.1,542.2-129.1,542.4z M-124.9,568.9c0,0.1,0.1,0.1,0.1,0.2c0.9,0.5,1.7,1.1,2.7,1.6
				c1,0.5,2.1,1,3.2,1.4c0.7,0.3,1.4,0.5,2.1,0.4c1.2,0,1.8-0.8,1.3-1.8c-0.4-0.7-1-1.3-1.6-1.8c-0.8-0.7-1.7-1.3-2.7-1.9
				c-0.7-0.4-1.4-0.8-2.1-1.2c-0.3-0.2-0.4-0.1-0.5,0.2c-0.3,0.8-0.7,1.5-1.4,2.1C-124.2,568.4-124.6,568.7-124.9,568.9z
				 M-127.7,563.9c-0.2,0-0.5,0.1-0.8,0.2c-0.2,0.1-0.4,0.3-0.5,0.5c-0.3,0.5,0,1,0.2,1.4c0.3,0.5,0.7,0.9,1.3,1.2
				c0.9,0.5,2,0.8,3,0.1c0.7-0.5,1-1.2,1.1-2c0-0.1-0.1-0.3-0.3-0.3c-0.3-0.2-0.7-0.3-1-0.4C-125.7,564.2-126.6,564-127.7,563.9z"/>
			<path class="st4" d="M-138.4,512.7c-0.3,0.1-0.4,0.3-0.4,0.5c0.1,0.5,0.1,1.1,0.2,1.6c0.2,0.6,0.5,1.1,0.9,1.7
				c0.4,0.7,0.9,1.4,1.4,2c0.4,0.5,0.8,1,1.3,1.5c0.4,0.4,0.8,0.8,1.2,1.2c0.7,0.6,1.4,1.3,2.1,1.9c0.2,0.2,0.4,0.3,0.6,0.4
				c0.3,0.2,0.5,0.4,0.8,0.6c0.3,0.2,0.6,0.5,0.9,0.7c0.6,0.4,1.2,0.9,1.8,1.3c0.9,0.7,1.9,1.3,2.8,1.9c1.8,1.1,3.6,2.1,5.6,3
				c1.3,0.5,2.5,1.1,3.8,1.6c1.4,0.5,2.9,0.8,4.4,1c0.6,0.1,1.2,0.2,1.8,0.2c1.1,0,2.1-0.2,2.9-0.8c0.6-0.4,1-1,1.1-1.8
				c0.1-0.6-0.1-1.2-0.2-1.8c-0.1-0.4-0.4-0.7-0.6-1c-0.5-0.7-1-1.3-1.6-1.9c-0.6-0.5-1.1-1-1.8-1.5c-1.2-0.8-2.4-1.6-3.7-2.2
				c-0.9-0.4-1.8-0.7-2.8-0.9c-0.7-0.1-1.3-0.3-2-0.3c-0.4,0-0.9,0-1.3,0.3c-0.2,0.1-0.4,0.8-0.3,1.1c0.2,0.6,0.6,1.2,1.2,1.6
				c0.6,0.4,1.1,0.7,1.7,1c0.9,0.5,1.8,0.8,2.8,1c0.4,0.1,0.5,0.2,0.7,0.5c0.3,0.6,0.7,1.1,1.1,1.6c0.5,0.6,1,1.1,1.5,1.7
				c0.2,0.2,0.4,0.4,0.7,0.7c-0.3,0-0.6,0-0.8-0.1c-0.7-0.1-1.5-0.3-2.2-0.4c-0.4-0.1-0.8-0.2-1.1-0.4c-0.8-0.3-1.6-0.6-2.4-1
				c-0.8-0.4-1.5-0.8-2.1-1.4c-0.7-0.6-1.3-1.2-1.8-1.9c-0.3-0.4-0.6-0.9-0.8-1.5c-0.2-0.6-0.3-1.1-0.4-1.7
				c-0.1-0.6,0.6-1.5,1.2-1.7c0.7-0.3,1.4-0.4,2.1-0.4c0.6,0,1.1,0.1,1.7,0.2c0.5,0.1,1,0.2,1.5,0.3c0.8,0.3,1.6,0.6,2.4,0.9
				c0.7,0.3,1.4,0.6,2,1c1,0.6,1.9,1.2,2.8,1.9c0.5,0.3,0.9,0.7,1.3,1.1c1.1,1,2.1,2.2,3,3.4c0.2,0.3,0.5,0.7,0.6,1.1
				c0.2,0.6,0.3,1.1,0.5,1.7c0.2,0.9,0.1,1.7-0.2,2.6c-0.2,0.6-0.6,1.1-1.1,1.6c-0.4,0.3-0.8,0.6-1.2,0.9c-0.1,0.1-0.2,0.1-0.3,0.1
				c-0.7,0.4-1.5,0.6-2.3,0.7c-1,0.2-2.1,0.2-3.1,0.1c-0.9-0.1-1.8-0.3-2.6-0.5c-1.1-0.3-2.2-0.6-3.3-1c-1-0.4-1.9-0.8-2.9-1.2
				c-0.6-0.3-1.1-0.5-1.7-0.8c-0.7-0.4-1.5-0.8-2.2-1.3c-1.4-0.8-2.7-1.7-4.1-2.5c-0.7-0.4-1.3-0.9-1.9-1.4
				c-0.6-0.5-1.3-1.1-1.9-1.6c-0.8-0.7-1.7-1.4-2.4-2.2c-0.7-0.7-1.3-1.4-2-2.2c-0.3-0.4-0.7-0.7-0.9-1.1c-0.6-0.9-1.2-1.9-1.8-2.8
				c-0.6-1-1-2.1-1.4-3.1c-0.3-0.9-0.6-1.7-0.6-2.6c0.1-0.8,0.3-1.5,0.8-2.2c0.2-0.2,0.2-0.5,0.1-0.8c-0.3-0.8-0.6-1.6-0.8-2.4
				c-0.1-0.2-0.1-0.5-0.1-0.8c0-0.7-0.1-1.3,0.1-2c0.1-0.4,0.1-0.8,0.3-1.2c0.1-0.5,0.3-0.9,0.5-1.4c0.3-0.6,0.6-1.3,1-1.9
				c0.5-0.9,1-1.7,1.5-2.6c0.2-0.4,0.5-0.8,0.7-1.2c0,0,0-0.1,0.1-0.1c0.3-0.5,0.3-0.5,0.7-0.1c0.5,0.4,0.9,0.8,1.4,1.2
				c0.3,0.3,0.6,0.6,1,0.8c0.2,0.2,0.2,0.4,0.1,0.5c-0.6,0.8-1.1,1.6-1.7,2.4c-0.6,0.8-1.1,1.5-1.6,2.3c-0.4,0.7-0.8,1.4-1.2,2.1
				c-0.4,0.8-0.6,1.7-0.8,2.6c-0.1,0.5,0,1,0.2,1.5c0,0.1,0.4,0.1,0.5,0.2c0.4,0,0.8,0,1.2,0.1c0.9,0,1.7,0.2,2.4,0.5
				c0.5,0.1,1,0.3,1.4,0.4c0.8,0.3,1.5,0.6,2.2,1c0.8,0.5,1.6,1,2.4,1.5c0.4,0.3,0.8,0.6,1.1,1c0.4,0.4,0.8,0.9,1.1,1.4
				c0.4,0.6,0.7,1.3,0.7,2.1c-0.1,0.8-0.7,1.3-1.7,1.5c-0.9,0.1-1.6-0.1-2.4-0.3c-0.7-0.2-1.4-0.5-2.1-0.9c-1.6-0.8-3-1.8-4.3-3
				c-0.5-0.5-0.9-0.9-1.3-1.4c-0.5-0.6-0.9-1.2-1.3-1.8C-138.1,512.9-138.2,512.8-138.4,512.7z M-136.8,511.8
				c-0.6,0-0.7,0.1-0.4,0.6c0.1,0.3,0.3,0.5,0.4,0.7c0.4,0.5,0.9,1.1,1.4,1.6c0.4,0.5,0.9,0.9,1.4,1.3c0.6,0.5,1.2,1,1.9,1.5
				c0.8,0.5,1.6,0.9,2.4,1.3c0.8,0.4,1.7,0.8,2.7,0.7c0.5,0,1.1-0.5,1-0.9c-0.1-0.5-0.3-1-0.6-1.4c-0.3-0.3-0.5-0.6-0.8-0.8
				c-0.3-0.3-0.5-0.6-0.9-0.9c-0.5-0.4-1-0.8-1.5-1.1c-0.6-0.4-1.2-0.8-1.9-1.1c-0.5-0.3-1.1-0.4-1.6-0.6
				C-134.3,512.1-135.5,511.9-136.8,511.8z"/>
			<path class="st4" d="M-101.9,541.7c-0.1,0.2-0.2,0.3-0.3,0.5c-0.2,0.4-0.5,0.8-0.7,1.2c-0.2,0.4-0.4,0.9-0.6,1.4
				c-0.2,0.5-0.4,1-0.5,1.6c-0.1,0.5-0.2,1-0.3,1.5c0,0.3,0,0.7-0.1,1c-0.1,0.9,0.1,1.7,0.3,2.6c0.2,0.7,0.6,1.2,1.1,1.7
				c0.2,0.2,0.5,0.4,0.7,0.6c0.1,0.1,0.1,0.2,0,0.3c-0.4,0.3-0.8,0.6-1.1,0.9c-0.3,0.2-0.5,0.4-0.7,0.7c-0.4,0.5-0.8,1.1-1,1.7
				c-0.3,0.7-0.5,1.5-0.7,2.3c-0.1,0.4-0.1,0.9-0.1,1.4c0,0.5,0,1.1,0,1.6c0.1,0.9,0.2,1.8,0.3,2.7c0.2,0.9,0.4,1.9,0.6,2.8
				c0.1,0.4,0.2,0.7,0.4,1.1c0.1,0.2,0.1,0.5,0.2,0.8c0.2,0.9,0.5,1.8,0.7,2.7c0.2,0.6,0.3,1.3,0.5,1.9c0.2,0.9,0.5,1.7,0.6,2.6
				c0.2,1,0.2,2,0.3,3c0,0.5-0.2,1.1-0.2,1.6c0,0.7-0.4,1.3-0.7,1.9c-0.3,0.7-0.8,1.4-1.5,2c-0.5,0.5-1.1,0.9-1.7,1.3
				c-0.7,0.4-1.5,0.6-2.3,0.8c-1.3,0.3-2.7,0.4-4.1,0.3c-0.9,0-1.8-0.2-2.7-0.3c-0.8-0.1-1.7-0.3-2.5-0.6c-0.7-0.2-1.4-0.5-2.1-0.7
				c-0.6-0.2-1.2-0.4-1.8-0.7c-0.5-0.2-1-0.4-1.5-0.7c-0.8-0.4-1.7-0.9-2.5-1.4c-1.1-0.7-2.2-1.4-3.3-2.1c-0.7-0.5-1.4-1.1-2-1.6
				c-0.5-0.4-1-0.8-1.5-1.2c-0.7-0.6-1.3-1.3-1.9-2c-0.7-0.7-1.3-1.4-2-2.2c-0.6-0.7-1.1-1.4-1.5-2.2c-0.2-0.4-0.4-0.7-0.7-1.1
				c-0.6-1-1-2.1-1.3-3.2c-0.2-0.7-0.3-1.4-0.3-2.1c0-1.3,0.8-2.3,2.2-2.6c0.5-0.1,1-0.1,1.5,0c1.2,0.3,2.3,0.8,3.2,1.5
				c0.5,0.4,0.7,0.9,0.5,1.5c-0.1,0.3-0.4,0.5-0.9,0.5c-0.7,0-1.3-0.2-1.8-0.6c-0.3-0.3-0.7-0.6-0.9-0.9c-0.1-0.2-0.2-0.5-0.2-0.7
				c0-0.3-0.2-0.4-0.4-0.4c-1-0.2-1.6,0.2-1.7,1.1c-0.1,0.7,0.2,1.3,0.5,1.9c0.3,0.6,0.6,1.2,1,1.7c0.5,0.6,1,1.2,1.5,1.9
				c0.2,0.3,0.5,0.6,0.8,0.9c0.2,0.2,0.4,0.4,0.6,0.5c1.1,0.9,2.1,1.8,3.2,2.7c0.6,0.5,1.2,0.9,1.8,1.4c0.6,0.5,1.3,0.9,2,1.3
				c1,0.6,1.9,1.2,2.9,1.8c1,0.5,2,1,3,1.4c0.3,0.2,0.6,0.3,1,0.4c0.5,0.2,1,0.4,1.4,0.5c0.9,0.3,1.9,0.6,2.9,0.9
				c1.1,0.2,2.1,0.5,3.3,0.5c0.6,0,1.2,0.1,1.9,0c0.9,0,1.8-0.2,2.7-0.6c0.7-0.3,1.4-0.7,1.9-1.2c0.4-0.5,0.8-1,1.1-1.6
				c0.4-0.7,0.6-1.6,0.8-2.4c0.1-0.6,0.2-1.3,0-2c-0.1-0.4-0.1-0.8-0.2-1.3c-0.1-0.5-0.2-1-0.3-1.5c-0.2-0.9-0.4-1.7-0.7-2.6
				c-0.2-0.8-0.5-1.6-0.7-2.5c-0.2-0.7-0.3-1.4-0.5-2c-0.2-0.6-0.4-1.3-0.6-1.9c-0.3-0.9-0.5-1.9-0.7-2.8c-0.2-0.8-0.3-1.5-0.5-2.3
				c-0.1-0.5-0.1-1-0.1-1.5c-0.1-1-0.2-2.1-0.2-3.1c0-0.9,0.2-1.7,0.3-2.6c0.1-0.7,0.3-1.5,0.5-2.2c0.2-0.6,0.5-1.2,0.8-1.8
				c0.2-0.3,0.3-0.6,0.6-0.9c0.4-0.5,0.7-1,1.1-1.5c0.5-0.6,1-1.2,1.5-1.8c0.6-0.6,1.2-1.2,1.8-1.9
				C-101.9,541.6-101.9,541.6-101.9,541.7z"/>
			<path class="st4" d="M-138.4,480.6c0.6,0.3,1.2,0.4,1.7,0.9c0.5,0.5,1.1,0.9,1.6,1.3c0.2,0.2,0.4,0.5,0.6,0.7
				c0.4,0.5,0.9,1,1.3,1.6c0.4,0.5,0.8,1.1,1.2,1.7c0.5,0.8,0.9,1.6,1.3,2.5c0.1,0.3,0.2,0.6,0.3,1c0.1,0.7,0.2,1.4,0.3,2.2
				c0,0.4-0.1,0.8-0.2,1.2c0,0.2-0.1,0.2-0.3,0.1c-0.5-0.3-0.9-0.6-1.4-0.9c-0.5-0.3-0.9-0.6-1.4-0.9c-0.1-0.1-0.2-0.3-0.2-0.5
				c-0.1-1.2-0.1-2.4-0.4-3.6c-0.1-0.5-0.4-1-0.6-1.5c-0.4-0.8-0.9-1.6-1.4-2.4c-0.4-0.6-0.8-1.3-1.3-1.9c-0.3-0.4-0.6-0.7-1-1.1
				C-138.4,480.8-138.4,480.7-138.4,480.6C-138.5,480.6-138.4,480.6-138.4,480.6z"/>
			<path class="st4" d="M-127.3,536.4c-0.4-0.2-0.7-0.4-1.1-0.6c-0.6-0.3-1.3-0.7-1.9-1c-0.1-0.1-0.2-0.2-0.2-0.3c0-0.9,0-1.9,0-2.9
				c0.3,0.1,0.5,0.3,0.8,0.4c0.8,0.4,1.5,0.8,2.3,1.2c0.1,0.1,0.2,0.2,0.2,0.4c0,0.3,0,0.7-0.1,1c0,0.5,0,0.9,0,1.4
				C-127.2,536.2-127.2,536.3-127.3,536.4C-127.2,536.4-127.2,536.4-127.3,536.4z"/>
		</g>
	</g>
	<path class="st5" d="M-29.8,322.7v120.3c0,0-7,3.3-11.9,3.2c0,0,17.2-107.2-1.9-125.7L-29.8,322.7z"/>
	<polygon class="st6" points="-193.2,321.8 -193.2,443.9 -183.2,445.4 -183.2,320.6 	"/>
	<g id="bOjIZk.tif_8_">
		<g>
			<path class="st7" d="M-47,346.8c-0.1,0.7-0.5,1.1-0.8,1.5c-0.8,1-1.5,2.1-2.2,3.1c-0.3,0.4-0.6,0.7-0.9,1c-0.8,1-1.6,2-2.4,3.1
				c-1.1,1.5-2.5,2.6-3.6,4c-0.4,0.5-0.9,1.1-1.4,1.5c-1,1-2,2.1-3.1,3.1c-1.2,1.1-2.5,2-3.9,2.9c-0.5,0.4-0.7,0.9-1,1.5
				c-0.4,1-0.8,2-1.2,3.1c-0.4,1.4-0.8,2.8-1.2,4.2c-0.3,0.9-0.3,1.9-0.2,2.8c0.1,0.7,0.9,1.1,1.5,0.8c1.2-0.7,1.9-1.9,2.7-3
				c1-1.5,1.9-3.1,2.9-4.7c0.8-1.3,1.5-2.6,2.4-3.9c0.6-1,1.3-2,2-2.9c0.9-1.1,1.8-2.2,2.7-3.3c0.7-0.8,1.6-1.5,2.3-2.2
				c0.1-0.1,0.2-0.1,0.3-0.2c0.7-0.8,1.7-1.2,2.6-1.6c0.9-0.3,1.8-0.2,2.6,0.2c0.3,0.2,0.5,0.6,0.8,0.9c0.2,0.2,0.4,0.4,0.6,0.7
				c0.2-0.3,0.3-0.5,0.4-0.8c0.1-0.5,0.4-0.6,0.8-0.6c0.8,0,1.7-0.1,2.5-0.1c0.4,0,0.8,0,1.2,0c0.2,0,0.3,0,0.2,0.3
				c-0.2,0.4-0.4,0.8-0.6,1.3c-0.4,0.8-0.8,1.6-1.2,2.4c-0.5,1-1,2-1.5,3c-0.2,0.4-0.5,0.9-0.7,1.3c-0.7,1.3-1.3,2.6-1.9,3.9
				c-0.5,1-1.1,2-1.6,3c-0.7,1.5-1.5,3-2.2,4.5c-0.1,0.2-0.2,0.5-0.2,0.7c0,0.2,0,0.5,0.1,0.6c0.1,0.1,0.4,0.2,0.6,0.1
				c0.6-0.3,1.2-0.5,1.7-1.1c0.4-0.5,0.9-0.8,1.3-1.3c1-1.2,2-2.5,2.8-3.9c0.4-0.7,0.8-1.3,1.3-1.9c0.2-0.3,1-0.4,1.3-0.2
				c0.1,0.1,0.1,0.3,0,0.4c-0.3,0.5-0.6,1-1,1.5c-0.2,0.4-0.5,0.8-0.7,1.1c-0.7,1.2-1.5,2.3-2.3,3.3c-0.7,0.8-1.3,1.7-1.9,2.5
				c-0.6,0.7-1.3,1.4-1.9,2c-1,1-2.2,1.7-3.4,2.3c-0.7,0.4-1.5,0.4-2.3,0c-0.6-0.3-0.9-0.9-1-1.6c-0.1-0.6,0-1.3,0-2
				c0-0.1,0-0.2-0.1-0.4c-0.2,0.1-0.3,0.2-0.4,0.3c-1,1.2-2.1,2.2-3.3,3c-1,0.7-2.1,1.1-3.3,0.7c-0.7-0.2-1.4-0.8-1.6-1.7
				c-0.1-0.7-0.3-1.3-0.3-2c0-0.4,0.1-0.9,0.1-1.3c0,0-0.1-0.1-0.1-0.1c-0.2,0.2-0.4,0.3-0.5,0.5c-0.6,0.7-1.1,1.4-1.6,2
				c-0.6,0.7-1.3,1.2-2,1.8c-0.7,0.6-1.5,0.9-2.3,1c-0.7,0.1-1.3-0.1-1.9-0.6c-0.9-0.7-1.2-1.8-1.3-2.9c-0.2-1.6,0.2-3.1,0.5-4.6
				c0.3-1.3,0.8-2.6,1.1-4c0.2-0.6,0.3-1.1,0.5-1.7c0-0.1,0-0.3-0.1-0.3c-0.1-0.1-0.2-0.1-0.3,0c-0.2,0-0.3,0.1-0.5,0.1
				c-0.5,0-0.9,0-1.4,0.1c-0.2,0-0.4,0.2-0.5,0.4c-0.8,1.5-1.6,3-2.5,4.4c-0.8,1.3-1.8,2.5-2.7,3.7c-1.1,1.4-2.3,2.6-3.6,3.7
				c-1.1,0.8-2.2,1.5-3.5,1.8c-1,0.2-1.9,0.1-2.6-0.7c-0.6-0.6-1-1.5-1-2.6c-0.1-2,0.2-3.9,0.8-5.8c0.3-0.8,0.5-1.7,0.9-2.5
				c0.5-1.1,1-2.1,1.5-3.1c0.3-0.6,0.7-1.2,1-1.8c0.4-0.7,0.8-1.3,1.3-1.9c0.7-1,1.4-2,2.2-2.9c0.6-0.7,1.3-1.3,1.9-1.9
				c1.2-1.1,2.5-2,3.9-2.8c0.7-0.4,1.3-0.6,2-0.6c0.8,0,1.7,0.1,2.4,0.7c0.5,0.5,0.7,1.2,0.8,1.9c0.2,1.6,0.1,3.1-0.4,4.6
				c-0.3,0.8-0.6,1.7-0.9,2.5c-0.1,0.4-0.3,0.7-0.5,1c-0.1,0.3,0,0.4,0.2,0.4c0.5,0,1-0.1,1.5-0.2c0.6-0.1,0.9-0.5,1.2-1.1
				c0.5-1.2,1-2.4,1.5-3.5c0.9-1.9,1.9-3.7,2.9-5.5c0.8-1.5,1.7-3,2.6-4.5c0.9-1.4,1.8-2.8,2.7-4.2c0.8-1.2,1.6-2.3,2.4-3.5
				c0.4-0.5,0.8-1.1,1.2-1.6c0.7-0.9,1.4-1.7,2.1-2.5c1-1.2,2-2.4,3.1-3.4c1.3-1.3,2.7-2.5,4.1-3.7c0.8-0.7,1.5-1.3,2.4-1.8
				c1-0.7,2.1-0.9,3.3-0.8c0.6,0.1,1.2,0.8,1.2,1.6c0.1,1.6-0.2,3.1-1,4.4c-0.4,0.7-0.9,0.9-1.5,0.7c0.3-0.6,0.6-1.2,0.8-1.8
				c0.3-0.8,0.5-1.6,0.7-2.4c0.1-0.8-0.6-1.2-1.2-0.8c-0.7,0.5-1.5,1-2.1,1.6c-1.4,1.4-2.7,2.8-4,4.4c-0.9,1.1-1.7,2.3-2.5,3.4
				c-0.6,0.9-1.3,1.8-1.9,2.7c-0.4,0.6-0.7,1.1-1.1,1.7c-0.7,1.1-1.4,2.2-2,3.3c-0.5,0.9-1,1.9-1.6,2.8c-0.6,1.1-1.2,2.1-1.8,3.2
				c-0.5,0.9-0.9,1.7-1.4,2.6c-0.5,1-1,1.9-1.4,2.9c-0.2,0.5-0.4,1-0.6,1.5c0.6,0,0.8-0.6,1.2-0.9c0.8-0.7,1.5-1.4,2.3-2.1
				c0.7-0.6,1.4-1.2,2.1-1.9c0.8-0.8,1.7-1.6,2.4-2.5c0.5-0.6,0.9-1.3,1.4-2c0-0.1,0.1-0.1,0.1-0.2c0.7-0.8,1.3-1.6,2-2.4
				c0.7-0.8,1.5-1.6,2.2-2.4c0.6-0.8,1.1-1.6,1.6-2.4c0.1-0.2,0.3-0.3,0.5-0.4C-48,346.7-47.5,346.5-47,346.8z M-46.3,361.3
				c0-0.8-0.3-1.3-0.9-1.2c-0.5,0.1-1.1,0.4-1.5,0.8c-0.8,0.7-1.6,1.5-2.4,2.4c-0.8,1-1.6,2-2.3,3c-0.7,1-1.3,2.1-2,3.2
				c-0.6,1.1-1.3,2.2-1.8,3.3c-0.7,1.5-1.4,3.1-1.6,4.9c0,0.4,0,0.9,0.2,1.1c0.3,0.3,0.7,0.5,1.1,0.2c0.3-0.2,0.6-0.3,0.8-0.6
				c0.6-0.6,1.1-1.2,1.6-1.8c0.6-0.8,1.1-1.6,1.6-2.4c0.4-0.7,0.9-1.4,1.3-2.2c0.7-1.2,1.3-2.4,1.9-3.6c0.2-0.5,0.5-0.9,0.7-1.4
				c0.4-0.8,0.8-1.6,1.3-2.4c0.4-0.8,0.8-1.5,1.2-2.3C-46.6,362-46.4,361.6-46.3,361.3z M-80.4,366.1c-0.1,0.1-0.3,0.2-0.4,0.4
				c-0.7,1.1-1.4,2.2-2,3.4c-0.8,1.4-1.5,3-2,4.6c-0.3,1-0.6,2.1-0.5,3.2c0.1,1.3,1.3,1.9,2.3,1.4c0.9-0.5,1.7-1.2,2.3-2
				c0.8-1,1.6-2.1,2.3-3.1c0.6-0.9,1.1-2,1.7-3c0.3-0.5,0.2-1.2-0.2-1.4c-0.8-0.4-1.6-0.9-2.3-1.7
				C-79.5,367.3-79.9,366.7-80.4,366.1z M-75.4,368.5c0.3-0.6,0.5-1.3,0.7-1.9c0.5-1.2,0.9-2.3,1-3.6c0.1-0.6,0.1-1.3,0-1.9
				c0-0.3-0.2-0.6-0.4-0.8c-0.4-0.4-0.8-0.5-1.3-0.4c-0.4,0.1-0.8,0.4-1.1,0.6c-0.9,0.5-1.5,1.3-1.9,2.2c-0.6,1.3-0.5,2.6,0.2,3.8
				C-77.5,367.6-76.6,368.2-75.4,368.5z"/>
			<path class="st7" d="M-148.4,354.7c0.3,0,0.6,0,0.8-0.1c0.9-0.3,1.6-0.9,2.4-1.4c1.6-1.1,2.8-2.7,4.1-4.1c0.9-1,1.9-2,3.1-2.7
				c0.7-0.5,1.4-1,2.1-1.3c0.7-0.3,1.4-0.5,2.2-0.3c0.7,0.1,1.4,0.3,2,0.8c0.7,0.5,1,1.3,1.1,2.2c0.1,1-0.1,1.9-0.4,2.8
				c-0.3,0.9-0.8,1.7-1.3,2.5c-0.5,0.7-1.2,1.3-2,1.4c-0.6,0.1-1.1-0.6-1.1-1.2c-0.1-0.9,0.3-1.6,0.7-2.3c0.3-0.5,0.7-1.1,1.2-1.3
				c0.3-0.1,0.7-0.3,1-0.3c0.4,0,0.5-0.3,0.6-0.7c0.1-1.1-0.7-1.7-1.7-1.4c-1.2,0.5-2.1,1.3-3,2.3c-1.3,1.4-2.5,2.9-3.5,4.6
				c-1,1.6-1.9,3.2-2.6,5c-0.4,1.1-0.9,2.2-1.3,3.3c-0.4,1.2-0.5,2.3-0.2,3.6c0.4,1.4,1.5,1.8,2.5,1.5c1.2-0.3,2.2-1,3.1-2
				c0.5-0.5,1.1-1,1.6-1.5c0.6-0.6,1.1-1.3,1.7-2c0.5-0.7,1-1.4,1.5-2.1c0.6-0.9,1.2-1.9,1.8-2.8c0.4-0.7,0.9-1.3,1.4-1.9
				c0.4-0.6,0.8-1.2,1.2-1.7c0.5-0.7,1-1.4,1.5-2c0.6-0.7,1.1-1.4,1.7-2c1-1,1.9-2,2.9-2.9c0.9-0.8,2-1.4,3.1-1.8
				c1.2-0.4,2.2-0.1,3.1,0.9c0.1,0.1,0.1,0.2,0.2,0.2c0.2,0.2,0.4,0.3,0.5-0.1c0.2-0.4,0.5-0.6,0.9-0.5c1.3,0,2.6,0,4,0
				c-0.2,0.5-0.4,0.9-0.6,1.3c-0.9,1.7-1.8,3.5-2.7,5.2c-0.7,1.4-1.4,2.8-2.1,4.2c-0.6,1.2-1.3,2.3-1.9,3.5c-0.5,1-1.1,2-1.6,3
				c-0.4,0.7-0.7,1.5-1.1,2.2c-0.1,0.1-0.1,0.3-0.1,0.4c0,0.3,0,0.7,0.1,0.8c0.2,0.1,0.6,0.2,0.8,0.1c0.6-0.4,1.2-0.8,1.8-1.4
				c0.9-0.9,1.7-1.8,2.4-2.8c0.8-1.1,1.5-2.2,2.3-3.3c0.1-0.1,0.3-0.3,0.4-0.3c0.4,0,0.8,0,1.3,0c-0.2,0.4-0.4,0.6-0.5,0.9
				c-0.7,1.1-1.5,2.2-2.2,3.2c-0.4,0.6-0.8,1.1-1.2,1.6c-0.8,1-1.5,1.9-2.3,2.8c-1.1,1.1-2.2,2.2-3.4,3.2c-0.9,0.8-1.9,1.2-3.1,1.2
				c-1.2,0-1.9-1.2-2-2.3c0-0.5,0-1.1,0-1.7c-0.2,0.1-0.4,0.2-0.5,0.3c-0.7,1-1.7,1.8-2.6,2.5c-0.8,0.6-1.6,1-2.5,1.1
				c-1.5,0.3-3-0.7-3.1-2.7c-0.1-1.3,0.2-2.5,0.4-3.8c0-0.1,0-0.2,0-0.3c0,0,0,0-0.1-0.1c-0.4,0.3-0.7,0.7-1.1,1c-1,1-1.9,2.1-3,3.1
				c-1,0.9-2,1.7-3.2,2.2c-1,0.4-2.1,0.7-3.2,0.6c-1.8-0.1-3.2-1.6-3.6-3.5c-0.1-0.7-0.3-1.3-0.3-2c0-0.6,0.1-1.2,0.2-1.8
				c0.4-1.5,0.8-3,1.3-4.4c0.4-1,0.9-2,1.4-2.9c0.1-0.2,0.1-0.3,0.2-0.6c-0.4,0.1-0.7,0.1-1,0.2c-0.3,0.1-0.6,0.2-0.9,0.2
				c-0.7,0-0.9,0.6-1.2,1.1c-0.6,1.1-1.2,2.3-1.8,3.4c-0.6,1.1-1.4,2.1-2.1,3c-1,1.3-2,2.5-3.1,3.6c-0.6,0.7-1.4,1.2-2,1.8
				c-0.7,0.7-1.5,1.2-2.4,1.5c-1.1,0.5-2.2,0.7-3.3-0.1c-0.7-0.5-1.2-1.2-1.4-2.1c-0.2-0.9-0.3-1.9-0.2-2.8c0.1-1.1,0.3-2.1,0.6-3.2
				c0.2-0.9,0.5-1.7,0.8-2.5c0.5-1.1,1-2.3,1.6-3.3c0.8-1.4,1.6-2.7,2.5-3.9c1-1.3,2.1-2.4,3.1-3.7c0.9-1,1.9-1.8,2.9-2.6
				c1-0.7,2-1.4,3.1-1.7c0.8-0.3,1.6-0.4,2.4-0.2c0.7,0.2,1.3,0.6,1.7,1.3c0.6,1.1,0.6,2.4,0.4,3.6c-0.1,1.3-0.6,2.5-1,3.8
				C-148,353.8-148.2,354.2-148.4,354.7z M-118.4,347c-0.6,0-1,0.3-1.4,0.6c-0.9,0.6-1.5,1.5-2.2,2.4c-0.9,1.2-1.8,2.4-2.7,3.7
				c-1,1.5-2,3.1-2.9,4.7c-1.1,2-2,4.1-2.5,6.4c-0.1,0.6,0,1.1,0.4,1.4c0.2,0.2,0.7,0.2,0.9,0.1c1-0.5,1.7-1.2,2.4-2.1
				c0.5-0.6,0.9-1.3,1.3-2c0.9-1.5,1.8-3.1,2.6-4.6c0.8-1.4,1.5-2.8,2.3-4.2c0.8-1.6,1.7-3.3,2.5-4.9c0.2-0.5,0.2-0.8-0.1-1.1
				C-118,347.1-118.2,347.1-118.4,347z M-155.3,352.9c-0.1,0-0.2,0.1-0.3,0.2c-0.8,1.2-1.6,2.4-2.2,3.7c-0.7,1.4-1.4,2.9-2,4.4
				c-0.4,0.9-0.6,1.9-0.6,2.9c0.1,1.7,1.1,2.6,2.5,1.7c1-0.6,1.8-1.4,2.6-2.3c1-1.1,1.9-2.4,2.6-3.7c0.6-1,1.1-1.9,1.6-2.9
				c0.2-0.4,0.1-0.5-0.3-0.7c-1.1-0.4-2.1-1-2.9-1.9C-154.5,353.9-154.9,353.4-155.3,352.9z M-148.3,349c-0.1-0.3-0.1-0.8-0.3-1.2
				c-0.1-0.3-0.4-0.5-0.7-0.7c-0.7-0.4-1.4-0.1-2,0.3c-0.7,0.4-1.2,1-1.7,1.8c-0.7,1.2-1.1,2.8-0.1,4.1c0.7,1,1.7,1.4,2.8,1.6
				c0.1,0,0.4-0.2,0.5-0.4c0.2-0.4,0.4-0.9,0.6-1.4C-148.7,351.8-148.4,350.5-148.3,349z"/>
			<path class="st7" d="M-77.2,334.2c-0.1-0.4-0.4-0.5-0.7-0.5c-0.7,0.1-1.5,0.1-2.2,0.3c-0.8,0.3-1.6,0.7-2.3,1.2
				c-1,0.6-1.9,1.2-2.8,1.9c-0.7,0.5-1.4,1.2-2,1.8c-0.6,0.5-1.1,1.1-1.6,1.7c-0.9,0.9-1.8,1.9-2.6,2.9c-0.2,0.2-0.4,0.5-0.6,0.8
				c-0.3,0.4-0.6,0.7-0.9,1c-0.3,0.4-0.7,0.9-1,1.3c-0.6,0.8-1.2,1.6-1.8,2.5c-0.9,1.3-1.8,2.6-2.6,3.9c-1.5,2.5-3,5-4.1,7.7
				c-0.8,1.7-1.5,3.5-2.2,5.3c-0.7,2-1.2,4-1.4,6.1c-0.1,0.8-0.2,1.7-0.2,2.6c0,1.5,0.3,2.9,1.2,4c0.6,0.8,1.5,1.4,2.5,1.5
				c0.9,0.2,1.7-0.1,2.4-0.3c0.5-0.1,0.9-0.5,1.4-0.9c0.9-0.6,1.8-1.4,2.6-2.3c0.7-0.8,1.4-1.5,2-2.4c1.1-1.6,2.2-3.3,3-5.2
				c0.5-1.3,1-2.5,1.3-3.9c0.2-0.9,0.4-1.9,0.5-2.8c0-0.6-0.1-1.3-0.4-1.8c-0.2-0.3-1.1-0.5-1.5-0.4c-0.9,0.3-1.6,0.9-2.2,1.7
				c-0.5,0.8-1,1.5-1.4,2.3c-0.7,1.2-1.1,2.5-1.3,3.9c-0.1,0.5-0.3,0.8-0.7,1c-0.8,0.4-1.6,0.9-2.3,1.5c-0.8,0.7-1.5,1.4-2.3,2.1
				c-0.3,0.3-0.6,0.6-0.9,0.9c0-0.4,0-0.8,0.1-1.1c0.2-1,0.4-2,0.6-3.1c0.1-0.5,0.3-1.1,0.5-1.6c0.4-1.1,0.8-2.3,1.3-3.3
				c0.5-1.1,1.2-2.1,1.9-3c0.8-0.9,1.7-1.7,2.6-2.5c0.6-0.5,1.3-0.8,2-1.1c0.8-0.3,1.6-0.4,2.4-0.6c0.8-0.1,2,0.8,2.4,1.7
				c0.4,0.9,0.5,1.9,0.6,2.9c0,0.8-0.2,1.6-0.3,2.3c-0.1,0.7-0.2,1.4-0.4,2.1c-0.4,1.2-0.8,2.3-1.3,3.4c-0.4,1-0.9,1.9-1.4,2.8
				c-0.8,1.3-1.7,2.6-2.6,3.9c-0.5,0.6-1,1.2-1.5,1.8c-1.5,1.6-3.1,2.9-4.8,4.1c-0.5,0.3-1,0.6-1.5,0.8c-0.8,0.3-1.6,0.5-2.4,0.7
				c-1.2,0.3-2.4,0.2-3.6-0.3c-0.8-0.3-1.5-0.9-2.2-1.6c-0.5-0.5-0.8-1.1-1.3-1.7c-0.1-0.1-0.1-0.3-0.2-0.4c-0.6-0.9-0.8-2.1-1-3.1
				c-0.3-1.4-0.2-2.9-0.1-4.3c0.1-1.2,0.4-2.4,0.7-3.6c0.4-1.5,0.9-3.1,1.4-4.6c0.5-1.4,1.1-2.7,1.7-4c0.4-0.8,0.7-1.6,1.1-2.3
				c0.6-1,1.1-2,1.7-3c1.2-1.9,2.3-3.8,3.5-5.6c0.6-0.9,1.3-1.7,1.9-2.6c0.7-0.9,1.5-1.8,2.2-2.6c1-1.1,2-2.3,3.1-3.4
				c1-1,2-1.8,3-2.7c0.5-0.4,1-0.9,1.6-1.3c1.3-0.8,2.6-1.6,3.9-2.4c1.4-0.9,2.9-1.4,4.3-2c1.2-0.5,2.4-0.9,3.6-0.8
				c1.1,0.1,2.1,0.4,3,1.2c0.3,0.3,0.7,0.3,1.1,0.2c1.1-0.4,2.2-0.8,3.3-1.2c0.3-0.1,0.7-0.1,1.1-0.1c0.9,0,1.8-0.1,2.7,0.1
				c0.6,0.1,1.1,0.2,1.7,0.4c0.6,0.2,1.3,0.4,1.9,0.7c0.9,0.4,1.8,0.9,2.6,1.4c1.2,0.7,2.4,1.4,3.6,2.1c0.6,0.3,1.1,0.6,1.7,1
				c0.1,0,0.1,0.1,0.2,0.1c0.7,0.4,0.7,0.4,0.2,1c-0.6,0.6-1.1,1.3-1.7,1.9c-0.4,0.4-0.8,0.9-1.1,1.4c-0.2,0.3-0.5,0.3-0.8,0.1
				c-1.1-0.8-2.2-1.6-3.3-2.4c-1.1-0.8-2.1-1.6-3.2-2.3c-1-0.6-2-1.1-3-1.6c-1.1-0.6-2.3-0.8-3.5-1.1c-0.7-0.2-1.4,0-2.1,0.3
				c-0.1,0.1-0.2,0.5-0.2,0.8c-0.1,0.5-0.1,1.1-0.1,1.6c0,1.2-0.3,2.3-0.7,3.4c-0.2,0.7-0.4,1.3-0.6,2c-0.4,1.1-0.8,2.1-1.4,3
				c-0.7,1.1-1.4,2.2-2.1,3.3c-0.4,0.6-0.8,1.1-1.3,1.5c-0.6,0.6-1.2,1.1-1.9,1.6c-0.9,0.5-1.8,1-2.9,0.9c-1.1-0.1-1.8-1-2.1-2.4
				c-0.2-1.2,0.1-2.3,0.4-3.3c0.3-1,0.7-2,1.2-2.9c1.2-2.2,2.5-4.2,4.1-5.9c0.6-0.7,1.3-1.3,2-1.9c0.8-0.7,1.7-1.2,2.5-1.9
				C-77.5,334.6-77.3,334.4-77.2,334.2z M-76,336.4c0-0.8-0.1-0.9-0.8-0.6c-0.3,0.2-0.7,0.4-1,0.6c-0.8,0.6-1.5,1.2-2.2,1.9
				c-0.6,0.6-1.2,1.3-1.8,1.9c-0.7,0.8-1.4,1.7-2,2.6c-0.7,1.1-1.3,2.2-1.8,3.4c-0.6,1.2-1.1,2.4-1,3.8c0,0.7,0.7,1.5,1.3,1.4
				c0.7-0.1,1.3-0.4,1.9-0.9c0.4-0.4,0.8-0.7,1.2-1.1c0.4-0.4,0.9-0.7,1.3-1.2c0.6-0.7,1.1-1.4,1.6-2.1c0.6-0.8,1.1-1.7,1.6-2.6
				c0.4-0.7,0.6-1.5,0.9-2.2C-76.4,339.8-76.1,338.2-76,336.4z"/>
			<path class="st7" d="M-117.4,384.9c-0.2-0.1-0.4-0.3-0.6-0.4c-0.6-0.3-1.1-0.7-1.7-1c-0.6-0.3-1.2-0.5-1.9-0.8
				c-0.7-0.3-1.4-0.5-2.2-0.7c-0.7-0.2-1.4-0.3-2.1-0.4c-0.5-0.1-1,0-1.4-0.1c-1.2-0.1-2.4,0.1-3.6,0.5c-0.9,0.3-1.7,0.8-2.4,1.6
				c-0.3,0.3-0.6,0.7-0.9,1c-0.2,0.2-0.3,0.2-0.4,0c-0.4-0.5-0.8-1.1-1.2-1.6c-0.3-0.4-0.6-0.7-1-1c-0.8-0.5-1.5-1.1-2.3-1.4
				c-1-0.4-2.1-0.7-3.2-1c-0.6-0.2-1.3-0.2-1.9-0.2c-0.7,0-1.5-0.1-2.2,0c-1.3,0.1-2.5,0.2-3.8,0.5c-1.3,0.2-2.6,0.5-3.9,0.8
				c-0.5,0.1-1,0.3-1.5,0.5c-0.3,0.1-0.7,0.1-1,0.2c-1.2,0.3-2.5,0.7-3.7,1c-0.9,0.2-1.8,0.4-2.7,0.7c-1.2,0.3-2.4,0.7-3.6,0.9
				c-1.4,0.2-2.7,0.3-4.1,0.4c-0.7,0-1.5-0.3-2.2-0.3c-1-0.1-1.8-0.5-2.7-0.9c-1-0.5-2-1.2-2.7-2.1c-0.6-0.7-1.3-1.5-1.8-2.4
				c-0.5-1-0.9-2.1-1.1-3.2c-0.4-1.9-0.5-3.8-0.5-5.7c0.1-1.2,0.2-2.5,0.4-3.7c0.2-1.2,0.5-2.3,0.8-3.4c0.3-1,0.7-2,1-2.9
				c0.3-0.8,0.6-1.7,0.9-2.5c0.3-0.7,0.6-1.4,1-2c0.6-1.2,1.2-2.3,1.9-3.4c0.9-1.5,1.9-3.1,2.9-4.5c0.7-1,1.5-1.9,2.2-2.8
				c0.6-0.7,1.1-1.4,1.7-2c0.9-0.9,1.8-1.8,2.8-2.7c1-0.9,2-1.9,3.1-2.7c0.9-0.8,1.9-1.5,3-2.1c0.5-0.3,1-0.6,1.5-0.9
				c1.4-0.8,2.9-1.4,4.5-1.8c1-0.2,1.9-0.4,2.9-0.4c1.7,0,3.2,1.1,3.6,3.1c0.1,0.7,0.1,1.4,0,2.1c-0.4,1.7-1.1,3.2-2.1,4.4
				c-0.6,0.6-1.2,1-2.1,0.7c-0.5-0.2-0.7-0.5-0.7-1.2c0-0.9,0.3-1.8,0.8-2.5c0.4-0.5,0.8-0.9,1.3-1.3c0.3-0.2,0.7-0.2,1-0.2
				c0.4,0,0.6-0.3,0.6-0.6c0.2-1.3-0.2-2.2-1.6-2.4c-1-0.1-1.8,0.3-2.7,0.8c-0.8,0.4-1.7,0.8-2.4,1.4c-0.9,0.6-1.7,1.4-2.6,2.1
				c-0.4,0.3-0.8,0.7-1.2,1.1c-0.3,0.3-0.5,0.6-0.8,0.8c-1.3,1.5-2.5,3-3.8,4.5c-0.7,0.8-1.3,1.7-1.9,2.6c-0.6,0.9-1.2,1.8-1.8,2.8
				c-0.8,1.3-1.7,2.7-2.4,4.1c-0.7,1.3-1.3,2.7-2,4.1c-0.2,0.4-0.4,0.9-0.6,1.3c-0.3,0.7-0.5,1.3-0.7,2c-0.4,1.3-0.9,2.6-1.2,4
				c-0.3,1.5-0.8,3-0.8,4.5c0,0.9-0.1,1.7-0.1,2.6c0,1.3,0.3,2.5,0.8,3.7c0.4,1,0.9,2,1.7,2.7c0.7,0.6,1.4,1.1,2.2,1.5
				c1,0.6,2.2,0.9,3.3,1.1c0.9,0.2,1.8,0.2,2.7,0c0.6-0.2,1.2-0.1,1.7-0.2c0.7-0.1,1.4-0.2,2.1-0.4c1.2-0.3,2.4-0.6,3.6-0.9
				c1.1-0.3,2.3-0.7,3.4-1c0.9-0.2,1.9-0.4,2.8-0.7c0.9-0.2,1.8-0.5,2.7-0.8c1.3-0.4,2.6-0.7,4-1c1.1-0.3,2.1-0.5,3.2-0.6
				c0.7-0.1,1.4-0.1,2.1-0.2c1.4-0.1,2.8-0.3,4.3-0.2c1.2,0,2.4,0.2,3.6,0.4c1,0.2,2.1,0.4,3.1,0.8c0.8,0.3,1.6,0.7,2.4,1.1
				c0.5,0.2,0.9,0.5,1.3,0.8c0.7,0.5,1.4,1,2,1.6c0.8,0.7,1.7,1.3,2.5,2.1c0.9,0.8,1.7,1.7,2.6,2.6
				C-117.3,384.8-117.4,384.8-117.4,384.9z"/>
			<path class="st7" d="M-32.6,334.1c-0.4,0.8-0.6,1.7-1.2,2.4c-0.6,0.7-1.2,1.5-1.8,2.2c-0.3,0.3-0.7,0.6-1,0.9
				c-0.7,0.6-1.5,1.2-2.2,1.7c-0.8,0.6-1.5,1.1-2.3,1.6c-1.1,0.7-2.3,1.2-3.4,1.8c-0.4,0.2-0.9,0.3-1.4,0.4c-1,0.2-2,0.3-3,0.4
				c-0.6,0-1.1-0.2-1.7-0.3c-0.2,0-0.3-0.1-0.1-0.4c0.4-0.6,0.8-1.3,1.3-1.9c0.4-0.6,0.8-1.3,1.3-1.9c0.1-0.2,0.4-0.3,0.7-0.3
				c1.7-0.1,3.4-0.2,5-0.6c0.7-0.2,1.4-0.5,2.1-0.9c1.1-0.6,2.2-1.3,3.3-1.9c0.9-0.6,1.8-1.1,2.6-1.8c0.5-0.4,1-0.9,1.5-1.3
				c0.1-0.1,0.2-0.1,0.3-0.2C-32.7,334.1-32.7,334.1-32.6,334.1z"/>
			<path class="st7" d="M-110.2,349.6c0.3-0.5,0.5-1,0.8-1.5c0.5-0.9,0.9-1.7,1.4-2.6c0.1-0.1,0.2-0.3,0.4-0.3c1.3,0,2.6,0,4,0
				c-0.2,0.4-0.4,0.8-0.6,1.1c-0.6,1.1-1.1,2.1-1.7,3.2c-0.1,0.2-0.3,0.3-0.5,0.3c-0.5,0-1-0.1-1.4-0.1c-0.6,0-1.3,0-1.9,0
				c-0.1,0-0.3,0-0.4,0C-110.1,349.7-110.1,349.7-110.2,349.6z"/>
		</g>
	</g>
	<path class="st7" d="M-186.6,382.7v20.5c0,0,14.3,13.5,52.3,7.5c38-6,84.5-17.1,94.5-5.6v-14.9c0,0-18.8,2.1-32.4,7.3
		S-156,418-186.6,382.7z"/>
	<path class="st8" d="M-158.3,223.2c0,0,26.8-9.5,88.7,0c0,0-11.3-20-11-48.6c0,0-17.7-5.7-62.8,0
		C-143.4,174.6-141.1,198.8-158.3,223.2z"/>
	<path class="st9" d="M-92,184.8c-1.9,2.8-5.3,4.2-8.7,4.6c-3.4,0.4-6.7,0-10.1-0.3c-10.8-0.8-22,0.8-31.1,6.6
		c14.1-1,28.2-0.8,42.2,0.7c1.9,0.2,3.9,0.5,5.5,1.5c3,2,3.6,6.2,5,9.6c2.3,5.7,7.6,10,13.6,11.1c-9-9.7-11.9-23.8-11-36.9
		c0.1-0.9,0.1-1.9-0.5-2.5c-0.4-0.4-0.9-0.6-1.4-0.7c-4.3-1.3-8.6-2.6-13-3.2c-9.5-1.2-19.3,1.2-27.2,6.7c4.4-1.9,9.2-2.9,14-2.9
		C-106.8,179.1-99.3,182-92,184.8z"/>
	<path class="st9" d="M-80.6,177c0,0,7.6-0.3,7.6-5c0,0-44.4-9.8-78.8,0c0,0,1,5.5,8.5,5C-143.3,177-117.2,167.5-80.6,177z"/>
	<path class="st10" d="M-97.9,205.4c-2.1-3.5-6.5-4.9-10.6-5.7c-10.1-1.9-20.5-1.7-30.5,0.6c0,4.9-3.6,9-5.8,13.3
		c-0.3,0.5-0.5,1.1-0.3,1.6c0.3,0.7,1.3,0.8,2.1,0.7c14.2-1.2,28.4-1.6,42.6-1.3c1.6,0,3.7-0.2,4.2-1.8c0.2-0.6,0.1-1.2,0-1.7
		C-96.5,209.1-96.9,207.1-97.9,205.4z"/>
	<path class="st1" d="M-148.3,133.6l-1.3,34l4.4,2.7c0,0,32.2-6.5,63.1,0l6.5-2.7l-2.7-34C-78.4,133.6-108.9,120.2-148.3,133.6z"/>
	<path class="st5" d="M-143.4,170.4c0,0,23.2-6.5,61.3,0l6.5-2.7l-2.7-34l-12.6-3.7c0,0,4.9,27.2,4.1,31.9
		C-86.8,161.8-156.4,163.1-143.4,170.4z"/>
</g>
</svg>
