<?xml version="1.0" encoding="utf-8"?>
<!-- Generator: Adobe Illustrator 19.0.0, SVG Export Plug-In . SVG Version: 6.00 Build 0)  -->
<!DOCTYPE svg PUBLIC "-//W3C//DTD SVG 1.1//EN" "http://www.w3.org/Graphics/SVG/1.1/DTD/svg11.dtd">
<svg version="1.1" id="Layer_1" xmlns="http://www.w3.org/2000/svg" xmlns:xlink="http://www.w3.org/1999/xlink" x="0px" y="0px"
	 viewBox="-210 122 191 550" style="enable-background:new -210 122 191 550;" xml:space="preserve">
<style type="text/css">
	.st0{fill:#362923;}
	.st1{fill:#75976F;}
	.st2{fill:#847743;}
	.st3{fill:#141217;}
	.st4{fill:#736B60;}
	.st5{fill:#2A4229;}
	.st6{fill:#98B491;}
	.st7{fill:#354E38;}
	.st8{fill:#839A7C;}
	.st9{fill:#929397;}
	.st10{fill:#B3222D;}
	.st11{fill:#E3E3D4;}
	.st12{fill:#FFFFFF;}
</style>
<g>
	<g>
		<path class="st0" d="M-114.3,663.4V242.3H-152c0,0-29,72-28.3,82.1l3.6,8.2c0,0-16.6,36.5-6.7,95.5l-3.1,6.2c0,0,3.6,32.6,4,47
			c0.4,14.4,7.6,67.2,4.5,79.7c-3.1,12.5-9.9,59.5-5.4,84.9C-183.5,645.9-150.2,665.6-114.3,663.4z"/>
		<path class="st1" d="M-114.3,644.9c0,0-54-1.4-70.3-9.1c0,0-2,11,4.3,18.2c0,0,29.9,15.4,66,12.5V644.9z"/>
		<polygon class="st2" points="-114.3,239.9 -114.3,250.2 -155.2,250.2 -150.4,239.9 		"/>
		<polygon class="st3" points="-123,334.2 -155.2,333 -141.9,273.5 -150.4,329.9 		"/>
		<polygon class="st3" points="-159.6,332.3 -175.4,329.4 -156.5,268.9 -171.8,326.5 		"/>
		<path class="st3" d="M-136.5,440.5c0,0-15-1.2-15.9,0c-0.9,1.2-1.8,6.2-1.1,20.2c0.7,13.9,7.9,114.2,6.1,122.8
			c-1.8,8.6-6.3,50.6-6.3,50.6s8.1-41.7,9.7-51.1c1.6-9.4-4-120.7-4-120.7s-2-15.6,0.4-17.5C-145.3,442.9-136.5,440.5-136.5,440.5z"
			/>
		<path class="st3" d="M-165.9,440l-13.7-4c0,0-2-1.5-2,4c0,0,3.4,48,4,51.4c0.7,3.4,7.4,64.3,5.2,72.2c-2.2,7.9-7.2,58.8-6.1,64.5
			c0,0,5.8-58.3,8.1-63.8c2.2-5.5,0.2-32.4,0.2-32.4l-8.5-87.1c0,0-1.1-4.9,2.2-4.9H-165.9z"/>
		<path class="st4" d="M-136.5,442.8l-8.7,4l6,119.5c0,0,1,16.6,0,21.2c-1,4.7-7,46.2-1.6,46.7c0,0,3,0.1,6-24
			c3-24.1,1.7-69.3,1.3-78.2c-0.3-8.9-3-81.6-3-81.6S-138.9,443.9-136.5,442.8z"/>
		<polygon class="st4" points="-123,260.7 -132.9,324.4 -124.4,324.4 		"/>
		<path class="st3" d="M-118.3,430.5c0,0-53.9,4.7-63.3-8.6c0,0-8-55.4,6.3-82.8c0,0-7.4,53.3,1.6,72.7
			C-173.8,411.8-165.8,429.5-118.3,430.5z"/>
		<path class="st5" d="M-174.9,638.9c0,0-1.4,15.9,12.4,22c0,0-17.3-1.3-18-23.5L-174.9,638.9z"/>
		<path class="st6" d="M-171.5,642.8c0,0-4.8,18.8,37.7,20.8C-133.8,663.6-166.9,659.1-171.5,642.8z"/>
		<path class="st6" d="M-114.3,239.9v-93.5h-31c0,0-8.8,14.4,0,28.4c0,0,0.5,40-5.2,65.1H-114.3z"/>
		<path class="st7" d="M-143.1,239.9l6.6-63.8c0,0-11.8-16.7,0-29.7h3.6c0,0-6.2,21.1,4.9,29.7l-6.8,63.8H-143.1z"/>
		<path class="st8" d="M-148.6,239.9l7.4-63.6c0,0-8.9-23.4,2.1-29.9h2.6c0,0-10.4,10.4,0,29.7l-6.6,63.8H-148.6z"/>
		<path class="st9" d="M-114.3,126.8v22.1l-8.8-2.5l-9.3,3.2l-6.7-3.2l-5,3.2l-5.6-3.2l2.4-14.9C-147.3,131.5-142.4,125-114.3,126.8
			z"/>
		<path class="st10" d="M-114.3,131.5c0,0-21.6,1.6-26.8-1.8c0,0,6.6-3.4,26.8-2.9V131.5z"/>
		<polygon class="st11" points="-123,146.4 -121.4,132.9 -118,132.9 -118,148.6 		"/>
		<polygon class="st11" points="-132.4,149.6 -129.8,132.9 -126.1,132.9 -126.8,147.7 		"/>
		<polygon class="st11" points="-139.1,146.4 -136.5,133.4 -133.1,133.4 -135.5,148.6 		"/>
		<polygon class="st11" points="-144.1,149.6 -148.6,147 -143.1,132.9 -139.1,133.4 		"/>
	</g>
	<path class="st0" d="M-114.7,663.4V242.3H-77c0,0,29,72,28.3,82.1l-3.6,8.2c0,0,16.6,36.5,6.7,95.5l3.1,6.2c0,0-3.6,32.6-4,47
		c-0.4,14.4-7.6,67.2-4.5,79.7c3.1,12.5,9.9,59.5,5.4,84.9C-45.5,645.9-78.8,665.6-114.7,663.4z"/>
	<path class="st1" d="M-114.7,644.9c0,0,54-1.4,70.3-9.1c0,0,2,11-4.3,18.2c0,0-29.9,15.4-66,12.5V644.9z"/>
	<polygon class="st2" points="-114.7,239.9 -114.7,250.2 -73.8,250.2 -78.6,239.9 	"/>
	<polygon class="st3" points="-106,334.2 -73.8,333 -87.1,273.5 -78.6,329.9 	"/>
	<polygon class="st3" points="-69.4,332.3 -53.6,329.4 -72.5,268.9 -57.2,326.5 	"/>
	<path class="st3" d="M-92.5,440.5c0,0,15-1.2,15.9,0c0.9,1.2,1.8,6.2,1.1,20.2s-7.9,114.2-6.1,122.8s6.3,50.6,6.3,50.6
		s-8.1-41.7-9.7-51.1c-1.6-9.4,4-120.7,4-120.7s2-15.6-0.4-17.5C-83.7,442.9-92.5,440.5-92.5,440.5z"/>
	<path class="st3" d="M-63.1,440l13.7-4c0,0,2-1.5,2,4c0,0-3.4,48-4,51.4c-0.7,3.4-7.4,64.3-5.2,72.2c2.2,7.9,7.2,58.8,6.1,64.5
		c0,0-5.8-58.3-8.1-63.8c-2.2-5.5-0.2-32.4-0.2-32.4l8.5-87.1c0,0,1.1-4.9-2.2-4.9H-63.1z"/>
	<path class="st4" d="M-92.5,442.8l8.7,4l-6,119.5c0,0-1,16.6,0,21.2s7,46.2,1.6,46.7c0,0-3,0.1-6-24c-3-24.1-1.7-69.3-1.3-78.2
		s3-81.6,3-81.6S-90.1,443.9-92.5,442.8z"/>
	<polygon class="st4" points="-106,260.7 -96.1,324.4 -104.6,324.4 	"/>
	<path class="st3" d="M-110.7,430.5c0,0,53.9,4.7,63.3-8.6c0,0,8-55.4-6.3-82.8c0,0,7.4,53.3-1.6,72.7
		C-55.2,411.8-63.2,429.5-110.7,430.5z"/>
	<g id="bOjIZk.tif_3_">
		<g>
			<path class="st12" d="M-61.3,371.8c-0.1,0.6-0.4,1-0.7,1.4c-0.7,0.9-1.3,1.9-2,2.8c-0.2,0.3-0.5,0.6-0.8,0.9
				c-0.7,0.9-1.5,1.8-2.1,2.8c-1,1.3-2.2,2.3-3.2,3.6c-0.4,0.5-0.8,1-1.2,1.4c-0.9,0.9-1.8,1.9-2.8,2.8c-1.1,0.9-2.3,1.8-3.5,2.6
				c-0.5,0.3-0.7,0.8-0.9,1.3c-0.4,0.9-0.8,1.8-1.1,2.8c-0.4,1.2-0.7,2.5-1.1,3.8c-0.2,0.8-0.3,1.7-0.2,2.5c0.1,0.6,0.8,1,1.3,0.7
				c1-0.6,1.7-1.7,2.4-2.7c0.9-1.4,1.7-2.8,2.6-4.2c0.7-1.2,1.4-2.4,2.1-3.5c0.6-0.9,1.2-1.8,1.8-2.6c0.8-1,1.6-2,2.5-3
				c0.7-0.7,1.4-1.3,2.1-2c0.1-0.1,0.2-0.1,0.2-0.2c0.7-0.7,1.5-1.1,2.4-1.4c0.8-0.3,1.6-0.2,2.4,0.2c0.3,0.2,0.5,0.5,0.7,0.8
				c0.2,0.2,0.3,0.4,0.5,0.6c0.2-0.3,0.3-0.5,0.4-0.7c0.1-0.4,0.3-0.5,0.7-0.5c0.8,0,1.5,0,2.3-0.1c0.4,0,0.7,0,1.1,0
				c0.2,0,0.3,0,0.2,0.3c-0.2,0.4-0.3,0.8-0.5,1.1c-0.4,0.7-0.7,1.4-1.1,2.1c-0.4,0.9-0.9,1.8-1.3,2.7c-0.2,0.4-0.4,0.8-0.6,1.2
				c-0.6,1.2-1.1,2.3-1.7,3.5c-0.5,0.9-1,1.8-1.4,2.7c-0.7,1.3-1.3,2.7-2,4c-0.1,0.2-0.2,0.4-0.2,0.6c0,0.2,0,0.4,0.1,0.5
				c0.1,0.1,0.4,0.2,0.5,0.1c0.5-0.3,1.1-0.4,1.5-1c0.3-0.4,0.8-0.7,1.2-1.1c0.9-1.1,1.8-2.2,2.5-3.5c0.3-0.6,0.7-1.1,1.1-1.7
				c0.2-0.2,0.9-0.3,1.1-0.2c0.1,0.1,0.1,0.3,0,0.3c-0.3,0.5-0.6,0.9-0.9,1.3c-0.2,0.3-0.4,0.7-0.6,1c-0.6,1.1-1.3,2.1-2.1,3
				c-0.6,0.7-1.1,1.5-1.7,2.3c-0.5,0.6-1.1,1.2-1.7,1.8c-0.9,0.9-2,1.5-3,2c-0.6,0.3-1.4,0.3-2,0c-0.5-0.3-0.9-0.8-0.9-1.4
				c-0.1-0.6,0-1.2,0-1.8c0-0.1,0-0.2-0.1-0.4c-0.2,0.1-0.3,0.2-0.4,0.3c-0.9,1.1-1.9,1.9-3,2.7c-0.9,0.6-1.9,1-3,0.6
				c-0.7-0.2-1.2-0.7-1.4-1.6c-0.1-0.6-0.3-1.2-0.3-1.8c0-0.4,0.1-0.8,0.1-1.2c0,0-0.1-0.1-0.1-0.1c-0.2,0.2-0.3,0.3-0.5,0.5
				c-0.5,0.6-1,1.2-1.5,1.8c-0.5,0.7-1.2,1.1-1.8,1.6c-0.6,0.5-1.3,0.8-2,0.9c-0.6,0.1-1.2-0.1-1.7-0.5c-0.8-0.7-1.1-1.6-1.2-2.6
				c-0.2-1.4,0.1-2.8,0.5-4.1c0.3-1.2,0.7-2.4,1-3.5c0.1-0.5,0.3-1,0.4-1.5c0-0.1,0-0.2-0.1-0.3c0-0.1-0.2-0.1-0.3,0
				c-0.2,0-0.3,0.1-0.4,0.1c-0.4,0-0.8,0-1.2,0.1c-0.2,0-0.3,0.2-0.4,0.4c-0.8,1.3-1.4,2.7-2.3,4c-0.7,1.2-1.6,2.2-2.4,3.3
				c-0.9,1.3-2,2.3-3.3,3.3c-1,0.7-2,1.4-3.2,1.6c-0.9,0.2-1.7,0.1-2.3-0.6c-0.5-0.6-0.9-1.4-0.9-2.3c-0.1-1.8,0.2-3.5,0.7-5.2
				c0.3-0.8,0.5-1.5,0.8-2.2c0.4-0.9,0.9-1.9,1.4-2.8c0.3-0.6,0.6-1.1,0.9-1.6c0.4-0.6,0.8-1.2,1.2-1.7c0.6-0.9,1.3-1.8,1.9-2.6
				c0.5-0.6,1.1-1.2,1.7-1.7c1.1-1,2.2-1.8,3.5-2.5c0.6-0.3,1.2-0.5,1.8-0.5c0.7,0,1.5,0.1,2.1,0.6c0.5,0.4,0.7,1,0.8,1.7
				c0.2,1.4,0.1,2.8-0.4,4.1c-0.2,0.7-0.5,1.5-0.8,2.2c-0.1,0.3-0.3,0.6-0.4,0.9c-0.1,0.2,0,0.4,0.2,0.4c0.5,0,0.9-0.1,1.4-0.2
				c0.5-0.1,0.8-0.4,1.1-1c0.4-1.1,0.9-2.1,1.4-3.1c0.8-1.7,1.7-3.3,2.6-5c0.7-1.4,1.5-2.7,2.3-4c0.8-1.3,1.6-2.5,2.5-3.8
				c0.7-1.1,1.4-2.1,2.1-3.1c0.3-0.5,0.7-1,1.1-1.4c0.6-0.8,1.2-1.5,1.9-2.3c0.9-1,1.8-2.1,2.8-3.1c1.2-1.2,2.4-2.2,3.7-3.3
				c0.7-0.6,1.4-1.2,2.1-1.7c0.9-0.6,1.9-0.8,2.9-0.7c0.6,0.1,1,0.7,1.1,1.5c0.1,1.4-0.2,2.8-0.9,4c-0.3,0.6-0.8,0.8-1.4,0.6
				c0.2-0.5,0.5-1,0.7-1.6c0.2-0.7,0.5-1.4,0.6-2.2c0.1-0.7-0.5-1.1-1-0.7c-0.7,0.4-1.3,0.9-1.9,1.5c-1.2,1.3-2.4,2.6-3.6,3.9
				c-0.8,1-1.5,2-2.3,3.1c-0.6,0.8-1.1,1.6-1.7,2.4c-0.3,0.5-0.6,1-1,1.5c-0.6,1-1.2,1.9-1.8,2.9c-0.5,0.8-0.9,1.7-1.4,2.5
				c-0.5,0.9-1.1,1.9-1.6,2.8c-0.4,0.8-0.8,1.6-1.2,2.4c-0.4,0.9-0.9,1.7-1.3,2.6c-0.2,0.4-0.4,0.9-0.6,1.3c0.5,0,0.7-0.5,1.1-0.8
				c0.7-0.6,1.4-1.2,2-1.9c0.6-0.6,1.2-1.1,1.8-1.7c0.7-0.7,1.5-1.5,2.2-2.3c0.5-0.5,0.8-1.2,1.3-1.8c0-0.1,0.1-0.1,0.1-0.2
				c0.6-0.7,1.2-1.4,1.8-2.1c0.6-0.7,1.4-1.4,2-2.2c0.5-0.7,1-1.5,1.4-2.2c0.1-0.2,0.3-0.3,0.4-0.3
				C-62.1,371.7-61.7,371.6-61.3,371.8z M-60.6,384.8c0-0.8-0.3-1.2-0.8-1c-0.5,0.1-1,0.4-1.4,0.7c-0.8,0.7-1.5,1.4-2.1,2.2
				c-0.7,0.9-1.4,1.8-2,2.7c-0.6,0.9-1.2,1.9-1.8,2.9c-0.6,1-1.1,1.9-1.6,3c-0.7,1.4-1.3,2.8-1.4,4.4c0,0.4,0,0.8,0.2,1
				c0.3,0.3,0.6,0.4,1,0.2c0.3-0.2,0.5-0.3,0.7-0.5c0.5-0.5,1-1,1.4-1.6c0.5-0.7,1-1.4,1.4-2.2c0.4-0.6,0.8-1.3,1.1-1.9
				c0.6-1.1,1.2-2.2,1.7-3.2c0.2-0.4,0.4-0.8,0.6-1.3c0.4-0.7,0.8-1.4,1.1-2.1c0.4-0.7,0.7-1.4,1.1-2.1
				C-60.9,385.4-60.7,385-60.6,384.8z M-91.2,389.1c-0.1,0.1-0.2,0.2-0.3,0.3c-0.6,1-1.2,2-1.8,3c-0.7,1.3-1.4,2.6-1.8,4.1
				c-0.3,0.9-0.5,1.9-0.5,2.9c0.1,1.2,1.1,1.7,2.1,1.2c0.8-0.5,1.5-1.1,2.1-1.8c0.7-0.9,1.4-1.8,2.1-2.8c0.6-0.8,1-1.8,1.5-2.7
				c0.3-0.5,0.2-1.1-0.1-1.2c-0.8-0.4-1.5-0.8-2-1.5C-90.4,390.2-90.8,389.7-91.2,389.1z M-86.7,391.2c0.2-0.6,0.4-1.1,0.7-1.7
				c0.4-1,0.8-2.1,0.9-3.2c0.1-0.6,0.1-1.2,0-1.7c0-0.3-0.2-0.6-0.3-0.7c-0.3-0.3-0.7-0.5-1.2-0.4c-0.4,0.1-0.7,0.3-1,0.5
				c-0.8,0.4-1.4,1.1-1.7,2c-0.5,1.2-0.4,2.4,0.2,3.4C-88.6,390.4-87.8,391-86.7,391.2z"/>
			<path class="st12" d="M-152.2,378.9c0.3,0,0.5,0,0.7-0.1c0.8-0.3,1.5-0.8,2.2-1.3c1.4-1,2.5-2.4,3.7-3.7c0.8-0.9,1.7-1.8,2.8-2.4
				c0.6-0.4,1.2-0.9,1.9-1.2c0.6-0.3,1.3-0.4,2-0.3c0.7,0.1,1.2,0.2,1.8,0.7c0.6,0.5,0.9,1.2,1,2c0.1,0.9-0.1,1.7-0.4,2.5
				c-0.3,0.8-0.7,1.5-1.2,2.2c-0.4,0.6-1,1.2-1.8,1.3c-0.5,0-1-0.5-1-1.1c-0.1-0.8,0.3-1.4,0.6-2c0.3-0.5,0.6-0.9,1.1-1.2
				c0.3-0.1,0.6-0.2,0.9-0.3c0.4,0,0.5-0.3,0.5-0.6c0.1-1-0.7-1.6-1.6-1.2c-1.1,0.4-1.9,1.2-2.7,2.1c-1.2,1.3-2.3,2.6-3.2,4.1
				c-0.9,1.4-1.7,2.9-2.3,4.5c-0.4,1-0.8,1.9-1.1,2.9c-0.3,1-0.5,2.1-0.2,3.2c0.4,1.3,1.3,1.6,2.3,1.4c1.1-0.2,2-0.9,2.8-1.8
				c0.5-0.5,1-0.9,1.4-1.4c0.5-0.6,1-1.2,1.5-1.8c0.5-0.6,0.9-1.2,1.3-1.8c0.6-0.8,1.1-1.7,1.7-2.5c0.4-0.6,0.8-1.2,1.2-1.7
				c0.4-0.5,0.7-1,1.1-1.5c0.4-0.6,0.9-1.2,1.3-1.8c0.5-0.6,1-1.3,1.5-1.8c0.9-0.9,1.7-1.8,2.6-2.6c0.8-0.7,1.8-1.3,2.8-1.6
				c1.1-0.3,2-0.1,2.8,0.8c0.1,0.1,0.1,0.1,0.2,0.2c0.2,0.2,0.4,0.3,0.5-0.1c0.2-0.4,0.4-0.5,0.8-0.5c1.2,0,2.3,0,3.6,0
				c-0.2,0.4-0.4,0.8-0.6,1.2c-0.8,1.6-1.6,3.1-2.5,4.7c-0.6,1.2-1.3,2.5-1.9,3.8c-0.6,1-1.2,2.1-1.7,3.1c-0.5,0.9-0.9,1.8-1.4,2.7
				c-0.3,0.6-0.7,1.3-1,2c-0.1,0.1-0.1,0.3-0.1,0.4c0,0.2,0,0.6,0.1,0.7c0.2,0.1,0.6,0.2,0.8,0.1c0.6-0.4,1.1-0.8,1.6-1.2
				c0.8-0.8,1.5-1.6,2.2-2.5c0.7-1,1.4-2,2.1-3c0.1-0.1,0.2-0.2,0.4-0.2c0.3,0,0.7,0,1.2,0c-0.2,0.3-0.3,0.6-0.5,0.8
				c-0.7,1-1.3,1.9-2,2.9c-0.3,0.5-0.7,1-1.1,1.5c-0.7,0.9-1.3,1.7-2.1,2.5c-1,1-2,2-3,2.9c-0.8,0.7-1.7,1.1-2.7,1.1
				c-1,0-1.7-1-1.8-2c0-0.5,0-1,0-1.5c-0.1,0.1-0.4,0.1-0.5,0.3c-0.7,0.9-1.5,1.6-2.3,2.3c-0.7,0.5-1.4,0.9-2.2,1
				c-1.3,0.2-2.7-0.6-2.8-2.4c-0.1-1.2,0.2-2.3,0.4-3.4c0-0.1,0-0.2,0-0.2c0,0,0,0-0.1-0.1c-0.3,0.3-0.6,0.6-0.9,0.9
				c-0.9,0.9-1.7,1.9-2.7,2.8c-0.9,0.8-1.8,1.5-2.9,1.9c-0.9,0.4-1.9,0.6-2.9,0.6c-1.6-0.1-2.8-1.5-3.2-3.2
				c-0.1-0.6-0.3-1.2-0.3-1.8c0-0.5,0.1-1.1,0.2-1.6c0.4-1.3,0.7-2.6,1.2-3.9c0.3-0.9,0.8-1.8,1.2-2.6c0.1-0.1,0.1-0.3,0.2-0.5
				c-0.3,0.1-0.6,0.1-0.9,0.2c-0.3,0.1-0.5,0.2-0.8,0.2c-0.6,0-0.8,0.5-1,1c-0.5,1-1,2-1.6,3c-0.6,1-1.2,1.9-1.9,2.7
				c-0.9,1.1-1.8,2.2-2.7,3.3c-0.5,0.6-1.2,1.1-1.8,1.6c-0.6,0.6-1.4,1-2.1,1.3c-1,0.4-2,0.6-3,0c-0.6-0.4-1.1-1.1-1.2-1.9
				c-0.2-0.8-0.3-1.7-0.2-2.5c0.1-1,0.3-1.9,0.5-2.8c0.2-0.8,0.4-1.6,0.8-2.3c0.4-1,0.9-2,1.4-3c0.7-1.2,1.4-2.4,2.2-3.5
				c0.9-1.2,1.9-2.2,2.8-3.3c0.8-0.9,1.7-1.6,2.6-2.3c0.9-0.7,1.8-1.2,2.8-1.6c0.7-0.2,1.4-0.4,2.2-0.2c0.6,0.1,1.2,0.5,1.5,1.2
				c0.5,1,0.5,2.1,0.4,3.3c-0.1,1.2-0.5,2.3-0.9,3.4C-151.8,378.1-152,378.4-152.2,378.9z M-125.3,372c-0.5,0-0.9,0.3-1.3,0.5
				c-0.8,0.5-1.4,1.3-1.9,2.1c-0.8,1.1-1.6,2.2-2.4,3.3c-0.9,1.4-1.8,2.8-2.6,4.2c-1,1.8-1.8,3.6-2.2,5.7c-0.1,0.5,0,1,0.3,1.2
				c0.2,0.2,0.6,0.2,0.8,0.1c0.9-0.4,1.6-1.1,2.2-1.9c0.4-0.6,0.8-1.2,1.1-1.8c0.8-1.4,1.6-2.7,2.3-4.1c0.7-1.2,1.4-2.5,2-3.8
				c0.8-1.5,1.5-3,2.3-4.4c0.2-0.4,0.2-0.7-0.1-1C-124.9,372.1-125.1,372.1-125.3,372z M-158.3,377.2c-0.1,0-0.2,0.1-0.2,0.2
				c-0.7,1.1-1.4,2.2-2,3.3c-0.7,1.3-1.3,2.6-1.8,4c-0.3,0.8-0.6,1.7-0.5,2.6c0.1,1.5,1,2.3,2.3,1.6c0.9-0.5,1.6-1.3,2.3-2
				c0.9-1,1.7-2.1,2.4-3.3c0.5-0.9,1-1.7,1.5-2.6c0.2-0.3,0.1-0.5-0.2-0.6c-1-0.4-1.9-0.9-2.6-1.7
				C-157.7,378.1-158,377.7-158.3,377.2z M-152.1,373.7c-0.1-0.2-0.1-0.7-0.3-1c-0.1-0.3-0.4-0.5-0.6-0.6c-0.6-0.4-1.2-0.1-1.8,0.3
				c-0.6,0.4-1.1,0.9-1.5,1.6c-0.6,1.1-1,2.5-0.1,3.7c0.7,0.9,1.5,1.2,2.5,1.4c0.1,0,0.3-0.2,0.4-0.3c0.2-0.4,0.3-0.8,0.5-1.2
				C-152.5,376.3-152.1,375.2-152.1,373.7z"/>
			<path class="st12" d="M-88.3,360.5c-0.1-0.4-0.3-0.5-0.6-0.4c-0.7,0.1-1.3,0.1-2,0.3c-0.7,0.3-1.4,0.7-2.1,1.1
				c-0.9,0.5-1.7,1.1-2.5,1.7c-0.6,0.5-1.2,1-1.8,1.6c-0.5,0.5-1,1-1.5,1.5c-0.8,0.8-1.6,1.7-2.4,2.6c-0.2,0.2-0.4,0.5-0.5,0.7
				c-0.3,0.3-0.5,0.6-0.8,0.9c-0.3,0.4-0.6,0.8-0.9,1.2c-0.6,0.7-1.1,1.5-1.6,2.2c-0.8,1.2-1.6,2.3-2.4,3.5
				c-1.3,2.2-2.7,4.5-3.7,6.9c-0.7,1.6-1.4,3.1-1.9,4.8c-0.6,1.8-1,3.6-1.3,5.5c-0.1,0.8-0.2,1.5-0.2,2.3c0,1.3,0.3,2.6,1,3.6
				c0.5,0.8,1.3,1.2,2.2,1.4c0.8,0.2,1.5-0.1,2.2-0.3c0.4-0.1,0.8-0.5,1.2-0.8c0.8-0.6,1.6-1.2,2.3-2.1c0.6-0.7,1.3-1.4,1.8-2.2
				c1-1.5,2-2.9,2.7-4.6c0.5-1.1,0.9-2.3,1.2-3.5c0.2-0.8,0.4-1.7,0.4-2.5c0-0.5,0-1.1-0.3-1.6c-0.2-0.3-0.9-0.5-1.3-0.4
				c-0.8,0.3-1.5,0.8-1.9,1.5c-0.4,0.7-0.9,1.3-1.3,2.1c-0.6,1.1-1,2.3-1.2,3.5c-0.1,0.5-0.3,0.7-0.6,0.9c-0.7,0.4-1.4,0.8-2,1.4
				c-0.7,0.6-1.4,1.3-2.1,1.9c-0.3,0.2-0.5,0.5-0.8,0.8c0-0.4,0-0.7,0.1-1c0.2-0.9,0.3-1.8,0.6-2.7c0.1-0.5,0.3-1,0.5-1.4
				c0.4-1,0.7-2,1.2-3c0.5-0.9,1-1.9,1.7-2.7c0.7-0.8,1.5-1.6,2.3-2.2c0.5-0.4,1.2-0.7,1.8-1c0.7-0.3,1.4-0.4,2.1-0.5
				c0.7-0.1,1.8,0.7,2.1,1.5c0.3,0.8,0.5,1.7,0.5,2.6c0,0.7-0.1,1.4-0.3,2.1c-0.1,0.6-0.2,1.3-0.4,1.9c-0.3,1-0.7,2-1.2,3
				c-0.4,0.9-0.8,1.7-1.2,2.5c-0.7,1.2-1.5,2.4-2.3,3.5c-0.4,0.6-0.9,1.1-1.4,1.6c-1.3,1.4-2.7,2.6-4.3,3.7
				c-0.4,0.3-0.9,0.6-1.3,0.7c-0.7,0.3-1.4,0.4-2.2,0.6c-1.1,0.2-2.2,0.1-3.2-0.3c-0.7-0.3-1.4-0.8-2-1.4c-0.4-0.5-0.7-1-1.1-1.5
				c-0.1-0.1-0.1-0.2-0.2-0.3c-0.5-0.8-0.7-1.8-0.9-2.8c-0.3-1.3-0.2-2.6-0.1-3.8c0.1-1.1,0.3-2.2,0.6-3.2c0.4-1.4,0.8-2.7,1.3-4.1
				c0.4-1.2,1-2.4,1.5-3.6c0.3-0.7,0.7-1.4,1-2.1c0.5-0.9,1-1.8,1.6-2.7c1-1.7,2.1-3.4,3.2-5.1c0.5-0.8,1.1-1.6,1.7-2.3
				c0.6-0.8,1.3-1.6,2-2.4c0.9-1,1.8-2.1,2.8-3c0.9-0.9,1.8-1.6,2.7-2.4c0.5-0.4,0.9-0.8,1.4-1.2c1.1-0.8,2.3-1.5,3.5-2.2
				c1.2-0.8,2.6-1.2,3.9-1.8c1.1-0.4,2.1-0.8,3.3-0.7c1,0.1,1.9,0.3,2.7,1.1c0.3,0.3,0.6,0.3,1,0.2c1-0.4,2-0.7,3-1
				c0.3-0.1,0.6-0.1,1-0.1c0.8,0,1.6-0.1,2.5,0.1c0.5,0.1,1,0.2,1.5,0.3c0.6,0.2,1.1,0.3,1.7,0.6c0.8,0.4,1.6,0.8,2.4,1.2
				c1.1,0.6,2.2,1.2,3.3,1.8c0.5,0.3,1,0.6,1.5,0.9c0.1,0,0.1,0.1,0.2,0.1c0.6,0.4,0.6,0.4,0.1,0.9c-0.5,0.6-1,1.1-1.5,1.7
				c-0.3,0.4-0.7,0.8-1,1.2c-0.2,0.3-0.5,0.3-0.7,0.1c-1-0.7-2-1.4-3-2.1c-1-0.7-1.9-1.4-2.9-2c-0.9-0.5-1.8-1-2.7-1.4
				c-1-0.5-2.1-0.7-3.2-1c-0.6-0.1-1.3,0-1.9,0.3c-0.1,0.1-0.2,0.4-0.2,0.7c0,0.5-0.1,1-0.1,1.5c0,1.1-0.3,2.1-0.6,3
				c-0.2,0.6-0.4,1.2-0.6,1.8c-0.3,1-0.7,1.9-1.3,2.7c-0.7,1-1.2,2-1.9,2.9c-0.3,0.5-0.8,1-1.2,1.4c-0.6,0.5-1.1,1-1.7,1.4
				c-0.8,0.5-1.6,0.9-2.6,0.8c-1-0.1-1.6-0.9-1.9-2.1c-0.2-1.1,0.1-2,0.4-3c0.3-0.9,0.7-1.8,1.1-2.6c1-1.9,2.2-3.8,3.7-5.3
				c0.6-0.6,1.2-1.2,1.8-1.7c0.7-0.6,1.5-1.1,2.2-1.7C-88.6,360.8-88.5,360.7-88.3,360.5z M-87.2,362.5c0-0.7-0.1-0.8-0.7-0.5
				c-0.3,0.1-0.6,0.3-0.9,0.5c-0.7,0.5-1.4,1.1-2,1.7c-0.6,0.5-1.1,1.1-1.6,1.7c-0.6,0.8-1.3,1.5-1.8,2.4c-0.6,1-1.1,2-1.6,3
				c-0.5,1.1-1,2.1-0.9,3.4c0,0.6,0.6,1.3,1.1,1.3c0.6-0.1,1.2-0.3,1.7-0.8c0.4-0.3,0.7-0.6,1.1-1c0.4-0.4,0.8-0.7,1.1-1.1
				c0.5-0.6,1-1.2,1.4-1.9c0.5-0.7,1-1.5,1.4-2.3c0.3-0.6,0.5-1.3,0.8-2C-87.6,365.6-87.3,364-87.2,362.5z"/>
			<path class="st12" d="M-124.4,405.9c-0.2-0.1-0.4-0.3-0.6-0.4c-0.5-0.3-1-0.6-1.5-0.9c-0.5-0.3-1.1-0.5-1.7-0.7
				c-0.6-0.2-1.3-0.5-2-0.6c-0.6-0.2-1.3-0.3-1.9-0.4c-0.4-0.1-0.9,0-1.3-0.1c-1.1-0.1-2.2,0.1-3.2,0.4c-0.8,0.2-1.5,0.7-2.1,1.4
				c-0.3,0.3-0.5,0.6-0.8,0.9c-0.1,0.2-0.3,0.2-0.4,0c-0.4-0.5-0.7-1-1.1-1.4c-0.3-0.3-0.5-0.7-0.9-0.9c-0.7-0.5-1.4-1-2.1-1.3
				c-0.9-0.4-1.9-0.7-2.8-0.9c-0.6-0.1-1.1-0.2-1.7-0.2c-0.7,0-1.3-0.1-2,0c-1.1,0.1-2.3,0.2-3.4,0.4c-1.2,0.2-2.3,0.5-3.5,0.7
				c-0.5,0.1-0.9,0.3-1.3,0.4c-0.3,0.1-0.6,0.1-0.9,0.2c-1.1,0.3-2.2,0.6-3.3,0.9c-0.8,0.2-1.6,0.4-2.4,0.6
				c-1.1,0.3-2.1,0.6-3.2,0.8c-1.2,0.2-2.5,0.3-3.7,0.3c-0.7,0-1.3-0.2-2-0.3c-0.9-0.1-1.6-0.5-2.4-0.8c-0.9-0.4-1.8-1-2.5-1.9
				c-0.6-0.7-1.2-1.3-1.6-2.1c-0.5-0.9-0.8-1.8-1-2.8c-0.4-1.7-0.5-3.4-0.4-5.1c0.1-1.1,0.2-2.2,0.4-3.3c0.2-1,0.4-2.1,0.7-3.1
				c0.3-0.9,0.6-1.8,0.9-2.6c0.3-0.7,0.5-1.5,0.8-2.2c0.3-0.6,0.6-1.2,0.9-1.8c0.6-1,1.1-2.1,1.7-3.1c0.8-1.4,1.7-2.7,2.6-4.1
				c0.6-0.9,1.3-1.7,2-2.5c0.5-0.6,1-1.3,1.5-1.8c0.8-0.8,1.6-1.6,2.5-2.4c0.9-0.8,1.8-1.7,2.7-2.4c0.8-0.7,1.7-1.4,2.7-1.8
				c0.5-0.2,0.9-0.6,1.4-0.8c1.3-0.7,2.6-1.3,4-1.6c0.9-0.2,1.7-0.4,2.6-0.4c1.6,0,2.8,1,3.2,2.8c0.1,0.6,0.1,1.2,0,1.9
				c-0.3,1.5-0.9,2.8-1.9,3.9c-0.5,0.6-1.1,0.9-1.9,0.6c-0.4-0.1-0.6-0.5-0.6-1.1c0-0.8,0.2-1.6,0.7-2.2c0.3-0.4,0.7-0.8,1.1-1.1
				c0.2-0.2,0.6-0.2,0.9-0.2c0.4,0,0.5-0.3,0.5-0.5c0.2-1.2-0.2-2-1.4-2.1c-0.9-0.1-1.7,0.3-2.4,0.7c-0.7,0.4-1.5,0.8-2.2,1.2
				c-0.8,0.6-1.5,1.2-2.3,1.9c-0.4,0.3-0.7,0.6-1.1,1c-0.2,0.2-0.5,0.5-0.7,0.8c-1.1,1.3-2.3,2.7-3.4,4c-0.6,0.7-1.2,1.5-1.7,2.3
				c-0.6,0.8-1.1,1.6-1.6,2.5c-0.7,1.2-1.5,2.4-2.2,3.7c-0.6,1.2-1.2,2.4-1.8,3.7c-0.2,0.4-0.4,0.8-0.6,1.2
				c-0.2,0.6-0.5,1.2-0.7,1.8c-0.4,1.2-0.8,2.4-1.1,3.6c-0.3,1.3-0.7,2.7-0.7,4.1c0,0.8-0.1,1.6-0.1,2.3c0,1.2,0.3,2.3,0.7,3.3
				c0.4,0.9,0.8,1.8,1.5,2.4c0.6,0.5,1.3,0.9,2,1.3c0.9,0.5,2,0.8,3,1c0.8,0.1,1.6,0.2,2.5,0c0.5-0.1,1-0.1,1.6-0.2
				c0.6-0.1,1.3-0.2,1.9-0.3c1.1-0.2,2.2-0.5,3.2-0.8c1-0.3,2.1-0.6,3.1-0.9c0.8-0.2,1.7-0.4,2.5-0.6c0.8-0.2,1.6-0.5,2.4-0.7
				c1.2-0.3,2.4-0.6,3.5-0.9c0.9-0.2,1.9-0.4,2.9-0.6c0.6-0.1,1.3-0.1,1.9-0.2c1.3-0.1,2.6-0.2,3.8-0.2c1.1,0,2.2,0.2,3.3,0.4
				c0.9,0.2,1.9,0.4,2.8,0.7c0.8,0.3,1.5,0.7,2.2,1c0.4,0.2,0.8,0.4,1.2,0.7c0.6,0.4,1.2,0.9,1.8,1.4c0.8,0.6,1.5,1.2,2.2,1.9
				c0.8,0.7,1.5,1.5,2.3,2.3C-124.3,405.8-124.4,405.9-124.4,405.9z"/>
			<path class="st12" d="M-48.4,360.4c-0.3,0.7-0.5,1.6-1.1,2.2c-0.6,0.6-1.1,1.3-1.6,2c-0.3,0.3-0.6,0.5-0.9,0.8
				c-0.7,0.5-1.3,1.1-2,1.6c-0.7,0.5-1.4,1-2.1,1.4c-1,0.6-2,1.1-3.1,1.6c-0.4,0.2-0.8,0.3-1.2,0.4c-0.9,0.1-1.8,0.3-2.7,0.3
				c-0.5,0-1-0.1-1.5-0.2c-0.2,0-0.3-0.1-0.1-0.3c0.4-0.6,0.8-1.2,1.1-1.7c0.4-0.6,0.7-1.2,1.1-1.7c0.1-0.2,0.4-0.3,0.6-0.3
				c1.5-0.1,3-0.2,4.5-0.5c0.6-0.2,1.3-0.5,1.9-0.8c1-0.5,2-1.1,2.9-1.7c0.8-0.5,1.6-1,2.4-1.6c0.5-0.4,0.9-0.8,1.4-1.2
				C-48.6,360.5-48.6,360.4-48.4,360.4C-48.4,360.4-48.4,360.4-48.4,360.4z"/>
			<path class="st12" d="M-117.9,374.3c0.2-0.4,0.5-0.9,0.7-1.3c0.4-0.8,0.8-1.6,1.2-2.3c0.1-0.1,0.2-0.2,0.3-0.2c1.2,0,2.4,0,3.6,0
				c-0.2,0.4-0.3,0.7-0.5,1c-0.5,0.9-1,1.9-1.5,2.8c-0.1,0.1-0.3,0.3-0.5,0.3c-0.4,0-0.9-0.1-1.3-0.1c-0.6,0-1.1,0-1.7,0
				c-0.1,0-0.2,0-0.3,0C-117.8,374.4-117.9,374.3-117.9,374.3z"/>
		</g>
	</g>
	<path class="st5" d="M-54.1,638.9c0,0,1.4,15.9-12.4,22c0,0,17.3-1.3,18-23.5L-54.1,638.9z"/>
	<path class="st6" d="M-57.5,642.8c0,0,4.8,18.8-37.7,20.8C-95.2,663.6-62.1,659.1-57.5,642.8z"/>
	<path class="st6" d="M-114.7,239.9v-93.5h31c0,0,8.8,14.4,0,28.4c0,0-0.5,40,5.2,65.1H-114.7z"/>
	<path class="st7" d="M-85.9,239.9l-6.6-63.8c0,0,11.8-16.7,0-29.7h-3.6c0,0,6.2,21.1-4.9,29.7l6.8,63.8H-85.9z"/>
	<path class="st8" d="M-80.4,239.9l-7.4-63.6c0,0,8.9-23.4-2.1-29.9h-2.6c0,0,10.4,10.4,0,29.7l6.6,63.8H-80.4z"/>
	<path class="st9" d="M-114.7,126.8v22.1l8.8-2.5l9.3,3.2l6.7-3.2l5,3.2l5.6-3.2l-2.4-14.9C-81.7,131.5-86.6,125-114.7,126.8z"/>
	<path class="st10" d="M-114.7,131.5c0,0,21.6,1.6,26.8-1.8c0,0-6.6-3.4-26.8-2.9V131.5z"/>
	<polygon class="st11" points="-106,146.4 -107.6,132.9 -111,132.9 -111,148.6 	"/>
	<polygon class="st11" points="-96.6,149.6 -99.2,132.9 -102.9,132.9 -102.2,147.7 	"/>
	<polygon class="st11" points="-89.9,146.4 -92.5,133.4 -95.9,133.4 -93.5,148.6 	"/>
	<polygon class="st11" points="-84.9,149.6 -80.4,147 -85.9,132.9 -89.9,133.4 	"/>
</g>
</svg>
