<?xml version="1.0" encoding="utf-8"?>
<!-- Generator: Adobe Illustrator 19.0.0, SVG Export Plug-In . SVG Version: 6.00 Build 0)  -->
<!DOCTYPE svg PUBLIC "-//W3C//DTD SVG 1.1//EN" "http://www.w3.org/Graphics/SVG/1.1/DTD/svg11.dtd">
<svg version="1.1" id="Layer_1" xmlns="http://www.w3.org/2000/svg" xmlns:xlink="http://www.w3.org/1999/xlink" x="0px" y="0px"
	 viewBox="0 0 155.2 254.6" style="enable-background:new 0 0 155.2 254.6;" xml:space="preserve">
<style type="text/css">
	.st0{fill:#E0A984;}
	.st1{fill:#DE4D00;}
	.st2{fill:#FFFFFF;}
	.st3{fill:#39B54A;}
	.st4{fill:#29ABE2;}
</style>
<g>
	<path d="M72,5.1c0,0-11.8,0.9-10.3,16.2s2.6,17.7-3.1,22.4l16.7-1.7L72,5.1z"/>
	<path class="st0" d="M93.8,10.2v26.6h-4.5v9.8c0,0-5.1,10-17.5,0V26.2c0,0-3.8-0.8-3.8-5.1s4.3-2.3,4.3-2.3V7.1l17-2.6L93.8,10.2z"
		/>
	<path class="st1" d="M72.5,19.1l3.3,0.2c0,0,0.7,4,3.6,4.7c1.7,0.4,4.7,0.2,6.4-3.5c0,0,1.3,3.9,5.1,3.9s3.1-6.4,3.1-6.4H70
		L72.5,19.1z"/>
	<path d="M93.8,10.9c0,0-1.3-5.6-9.9-5.3C73.7,5.9,76.4,13,76.4,13s-2.7,1.9-2.2,10c0,0-1.4-6.6-5.5-3.9c0,0-3.8-4.2,1.7-13.8
		C74.7-1.9,92.6-3.4,93.8,10.9z"/>
	<polygon class="st0" points="68.9,40.9 89.9,40.6 94.4,46.3 87.1,57.6 71.9,53.1 	"/>
	<path class="st0" d="M57.9,90.6l3,26.3c0,0,17.3,14,27.7,12s9.3-8,9.3-8l4-30.3C101.9,90.6,79.9,69.6,57.9,90.6z"/>
	<path class="st2" d="M55.9,142.9c0,0-6.3-17.7,5-26c0,0,31.7,16,37,4c0,0,3,11.7-4.7,20.7S55.9,142.9,55.9,142.9z"/>
	<path class="st0" d="M92.6,141.3c0,0-12.3-17-27.3-12.3c-15,4.7-11.7,18.3,2.3,24.7c14,6.3,36.3,21,36.3,21l0.7,24.7l20,40.3
		l7.3-6.3l-18.3-71.7L92.6,141.3z"/>
	<polygon class="st0" points="89.2,161.9 63.6,193.3 17.9,179.6 18.2,172.9 46.6,168.9 55.9,172.9 63.9,147.6 	"/>
	<path class="st2" d="M124.6,236.6c0,0-1.3,13,2,16.7c3.3,3.7,10.7-1.7,10.7-1.7s13.7-1,18-10.3l-1.7-5c0,0-7.7,2.3-10.3,2
		c-2.7-0.3-7.7-8.3-13-6.7L124.6,236.6z"/>
	<path class="st2" d="M19.2,179.6c-1,0-7.7,5.3-9.7,10c-2,4.7-4,10.7-4,10.7l-4.3,2c0,0-4-11,2.3-20.3l0.7-10l14,1L19.2,179.6z"/>
	<path class="st0" d="M50.9,62.6l-23,3.7l6.7,31l-7.3,3.3l-11.3-37l4-8l41.7-12c0,0,5-0.3,3.7,7.3c-1.3,7.7-4.3,22-11.3,22.7
		L50.9,62.6z"/>
	<polygon class="st0" points="26.6,100.6 32.6,113.6 37.2,115.6 46.2,109.3 45.9,103.3 34.6,97.3 	"/>
	<path class="st0" d="M94.2,42.3l11,5.7l9,8.3l13.3,25.7l-1.7,9.7l-22-3.3l0.7-8.7l8.3-3.3l-7.7-9.3
		C105.2,66.9,102.6,48.6,94.2,42.3z"/>
	<path class="st2" d="M53.9,73.6l4,17c0,0,34,6.3,44,0l3.3-23.7c0,0-1.3-15.7-11-24.7l-4.3-1.7c0,0,3.7,7,1.3,10s-13.7,3.3-15.7,1
		s-6.7-10.7-6.7-10.7l-7.3,2.7C61.6,43.6,67.6,66.9,53.9,73.6z"/>
	<path class="st0" d="M103.9,88.3c0,0-9.3,2.8-10,2.8c-0.7,0-6.2-4.8-6.2-4.8l2.5-9.8l6.3-0.8l1.8-1.5l6.2,5.5L103.9,88.3z"/>
	<path class="st3" d="M55.9,142.9c0,0-1-12,14.3-15.3l2-6.3l-11.3-4.3C60.9,116.9,46.6,122.6,55.9,142.9z"/>
	<path class="st3" d="M61.6,43.6c0,0,7.7,6.7,6,16.3c-1.7,9.7-11.3,25.3-11.3,25.3l-2.3-11.7C53.9,73.6,65.6,57.6,61.6,43.6z"/>
	<path class="st3" d="M94.2,42.3c0,0,7,18,11.7,24.3C105.9,66.6,102.6,45.9,94.2,42.3z"/>
	<rect x="72.2" y="58.9" class="st4" width="27.7" height="15.3"/>
</g>
</svg>
