<?xml version="1.0" encoding="utf-8"?>
<!-- Generator: Adobe Illustrator 19.0.0, SVG Export Plug-In . SVG Version: 6.00 Build 0)  -->
<!DOCTYPE svg PUBLIC "-//W3C//DTD SVG 1.1//EN" "http://www.w3.org/Graphics/SVG/1.1/DTD/svg11.dtd">
<svg version="1.1" id="Layer_1" xmlns="http://www.w3.org/2000/svg" xmlns:xlink="http://www.w3.org/1999/xlink" x="0px" y="0px"
	 viewBox="0 0 610 165.9" style="enable-background:new 0 0 610 165.9;" xml:space="preserve">
<style type="text/css">
	.st0{fill:#333333;}
	.st1{fill:#E0A984;}
	.st2{fill:#C1272D;}
	.st3{fill:#231F20;}
	.st4{fill:#FFFFFF;}
	.st5{fill:#EA0107;}
	.st6{fill:#4D4D4D;}
	.st7{fill:#1A1A1A;}
	.st8{fill:#808080;}
</style>
<g>
	<path class="st0" d="M325.4,38.7c0,0,3.5,2.2,6-1c0,0-3.2-0.1-2.6-2.1c0,0,1.2,0.8,2.5-0.4c0,0-2.8-1.6-1.1-3.9s0.5-5.4,0.5-5.4
		l-1.8-1.8l-5.6,7.5L325.4,38.7z"/>
	<path class="st1" d="M250.8,34.4c1.5-4,6.2-14,3.8-14.5s-4.8,1.5-4.8,4.8c0,0-6-5.2-8.5,0.8s-2.2,11.2,3.5,13
		S250.8,34.4,250.8,34.4z"/>
	<path class="st2" d="M341.5,52.4c0-0.5-25.6-10.7-51.4,0c1.5,43.5,6.5,68.1,6.5,68.1s14.1,1,37.1-0.1
		C333.7,120.4,338.4,96.6,341.5,52.4z"/>
	<path class="st1" d="M304.1,13.1v29h4.4v9.6c0,0,5,9.7,17.1,0V31.8c0,0,3.7-0.7,3.7-5s-4.2-2.2-4.2-2.2V13.1H304.1z"/>
	<path class="st3" d="M302.8,12.3c-0.4,0.6,0,1.4,0.2,2s0.8,1.2,1.5,1.1c-0.3-0.5,0.1-1.2,0.6-1.5c0.5-0.3,1.1-0.3,1.7-0.3
		c1.8,0,3.6,0.1,5.4,0.1c1.5,0,3.1,0.1,4.6,0.4c0.6,0.1,1.1,0.3,1.6,0.6c0.8,0.5,1.4,1.5,2.4,1.5c-0.2,1.1-0.2,2.2,0.2,3.2
		c0.5,1,1.5,1.6,2.5,1.4c-0.2,2.2-0.2,4.4,0,6.6c0.7-0.1,1.5-0.1,2.2-0.2c-0.5-0.6-0.4-1.6,0.1-2.1c0.5-0.5,1.4-0.7,2.1-0.5
		c0.5,0.1,1.1,0.5,1.2,1.1c1.9-2.8,2.6-6.5,1.9-9.9s-2.9-6.4-5.8-8c-2.1-1.1-4.5-1.5-6.8-1.5C318.4,6.5,309,2.4,302.8,12.3z"/>
	<path class="st2" d="M303.5,10.7c0,0,6.9-16.9,23.1-8.3c16.2,8.6,4.1,25.5,4.1,25.5l-5.2-4.8C325.6,23.1,314.9,8,303.5,10.7z"/>
	<path class="st4" d="M325.8,25.2c0,0-4.4-18.8-26.8-18c-2.3,0.1-3.6,2.7-2.3,4.6c1.6,2.3,4.1,5,7.2,6.2
		C304,18,311.2,8.6,325.8,25.2z"/>
	<g>
		<path class="st5" d="M239.1,108.2c32.8,1.7,37.8,15,56.3,22.5c18.5,7.6,82.3,3.3,117.6,1.6c35.3-1.7,44.5-34.5,44.5-34.5
			c13.4-5,1.7-20.2,1.7-20.2l-38.6-37.3c0-0.2-0.1-0.1-0.1-0.1H345V60l-12.6,12.3h-24.9L290,84.7v-4.3h-23v5.4
			c0,0-75-16.8-132.7-3.4s-85.7,32.8-131,34.4l10.1,11.5h59.5C82.6,116.4,206.6,106.6,239.1,108.2z"/>
		<path class="st0" d="M274.5,154.4h255.4c0,0-3.9-66-3.9-64.4l-71.1-49.6h-34.4c0,0,0.1-0.1,0.1,0.1L459.2,78c0,0,11.8,15-1.7,20
			c0,0-9.2,32.7-44.5,34.4c-35.3,1.7-99.1,5.8-117.6-1.7c-18.5-7.6-23.5-20.7-56.3-22.4c-32.5-1.7-156.5,8.1-166.1,20.1h173.5
			C246.5,128.4,270,125.4,274.5,154.4z"/>
		<rect x="529.3" y="56.7" class="st6" width="12.3" height="33.6"/>
		<path class="st5" d="M529,36v37.5c0,0,80.1,2.2,80.1-38.7L529,36z"/>
		<g>
			<path class="st4" d="M359.3,136.3c-26.9,0-51.1-1.1-52.9-1.2c-5.6-0.3-15-5.6-26-11.7c-12.3-6.9-26.2-14.6-34.4-14.6
				c-18,0-155.6,5.6-172.8,19l-2,0c18.6-14.5,163.1-21.3,174.8-21.3c8.9,0,22.4,7.6,35.5,14.9c10.3,5.7,19.9,11.2,25,11.4
				c0.8,0,80.6,3.8,112.9-2.2c29.2-5.4,37-32.8,37.1-33l0.1-0.5l0.5-0.2c3.3-1.5,5.3-3.6,5.8-6.2c1.2-5.5-4.1-11.7-4.5-12.2
				l-40-38.2l3.2,0L460,77c0.3,0.3,6.4,7.4,5,14.1c-0.7,3.2-2.9,5.7-6.6,7.6c-0.6,1.8-2.7,7.9-7.7,14.7c-5.3,7.2-15,16.5-31,19.5
				C405.1,135.6,381.3,136.3,359.3,136.3z"/>
		</g>
		<path class="st2" d="M354.6,76.4l6.7,23h-15.7C345.6,99.4,355.4,77.2,354.6,76.4z"/>
		<path class="st2" d="M345.1,60.3c-3,0,93,0.1,93,0.1l-4.2-4.1h-89.3C344.5,56.4,345.6,60.3,345.1,60.3z"/>
		<rect y="123.9" class="st5" width="71.1" height="26.9"/>
		<path class="st2" d="M267.2,85.8c3.3,0.7-62.7-1.1-95.2-1.1S84,105.4,65.5,111.6c-18.5,6.2-62.2,5-62.2,5s47.6-5.6,79.5-19
			S171.4,64,267.2,85.8z"/>
		<circle class="st7" cx="128.3" cy="123.9" r="42"/>
		<circle class="st6" cx="127.7" cy="123.9" r="23.5"/>
		<circle class="st8" cx="127.2" cy="123.9" r="10.1"/>
		<polygon class="st2" points="354,75.4 453.7,75.4 354,82.4 		"/>
		<polygon class="st7" points="455.1,40.5 472.2,73.5 520.4,101.5 526,89.3 		"/>
		<circle class="st7" cx="541.7" cy="123.9" r="42"/>
		<circle class="st6" cx="541.1" cy="123.9" r="23.5"/>
		<circle class="st8" cx="540.5" cy="123.9" r="10.1"/>
		<polygon class="st2" points="529.9,36 545.6,48.8 610,34.8 		"/>
	</g>
	<polygon class="st2" points="326,48.4 326,42.4 307.5,44.9 308,54.9 321.5,60.4 328.5,51.9 	"/>
	<path class="st2" d="M290.1,52.4c0,0-38.8,10-37.1-19.3l-10.5,5c0,0,8.8,39.5,51,22.5L290.1,52.4z"/>
	<path class="st0" d="M323.2,22.6c0,0,0.6,5.8-2.5,7c0,0,4.2-0.1,5-2.3l1.7-2.5l-2.9-3L323.2,22.6z"/>
</g>
</svg>
