<?xml version="1.0" encoding="utf-8"?>
<!-- Generator: Adobe Illustrator 19.0.0, SVG Export Plug-In . SVG Version: 6.00 Build 0)  -->
<!DOCTYPE svg PUBLIC "-//W3C//DTD SVG 1.1//EN" "http://www.w3.org/Graphics/SVG/1.1/DTD/svg11.dtd">
<svg version="1.1" id="Layer_1" xmlns="http://www.w3.org/2000/svg" xmlns:xlink="http://www.w3.org/1999/xlink" x="0px" y="0px"
	 viewBox="0 0 1016.3 1504.9" style="enable-background:new 0 0 1016.3 1504.9;" xml:space="preserve">
<style type="text/css">
	.st0{fill:#FFFFFF;}
	.st1{fill:#989A9C;}
	.st2{opacity:0.23;}
	.st3{fill:#666769;}
	.st4{fill:#005EAC;}
	.st5{fill:#FFD800;}
	.st6{opacity:0.1;}
	.st7{opacity:0.1;fill-rule:evenodd;clip-rule:evenodd;}
	.st8{fill:none;}
	.st9{fill-rule:evenodd;clip-rule:evenodd;fill:#FFD800;}
	.st10{fill-rule:evenodd;clip-rule:evenodd;fill:#005EAC;}
	.st11{fill:#999999;}
	.st12{fill:#4D4D4D;}
	.st13{fill:#CCCCCC;}
	.st14{fill:#E6E6E6;}
	.st15{fill:#754C24;}
	.st16{fill:#B8B89C;}
	.st17{fill:#F7931E;}
	.st18{opacity:0.2;fill:#FFFFFF;}
	.st19{fill-rule:evenodd;clip-rule:evenodd;fill:#FFFFFF;}
	.st20{fill:#ED3024;}
	.st21{fill:#2E3191;}
</style>
<g>
	<path class="st0" d="M445.4,156.5c0.2-1.5,0.9-3.1,0.9-4.7c0-22-17.5-39.8-39.5-39.8c-15.7,0-29.2,9.1-35.7,22.4
		c-4.7-2.5-9.9-4.9-15.6-4.9c-15.9,0-29.2,10.8-32.7,24.8h-0.6c-14.6,0-28.1,14.2-28.1,28.8v-0.2c0,14.6,13.5,26.5,28.1,26.5h122.8
		c14.6,0,24.1-11.9,24.1-26.5v0.1C469.1,168.8,459.2,157.3,445.4,156.5z"/>
	<rect x="29.8" class="st1" width="956.8" height="1504.9"/>
	<polygon class="st2" points="29.8,1227.8 29.8,1183.3 986.6,1183.3 	"/>
	<rect y="118.5" class="st1" width="1016.3" height="33.7"/>
	<rect y="150.3" class="st3" width="1016.3" height="6.2"/>
	<rect y="1145.5" class="st1" width="1016.3" height="33.7"/>
	<rect y="1177.4" class="st3" width="1016.3" height="6.2"/>
	<rect x="21.9" y="261.9" width="6.3" height="151.6"/>
	<rect x="21.9" y="466.7" width="6.3" height="151.6"/>
	<rect x="21.9" y="671.4" width="6.3" height="151.6"/>
	<rect x="21.9" y="876.1" width="6.3" height="151.6"/>
	<rect x="986.6" y="261.9" width="6.3" height="151.6"/>
	<rect x="986.6" y="466.7" width="6.3" height="151.6"/>
	<rect x="986.6" y="671.4" width="6.3" height="151.6"/>
	<rect x="986.6" y="876.1" width="6.3" height="151.6"/>
	<g>
		<rect x="75.3" y="161.4" class="st4" width="865.6" height="976.9"/>
		<rect x="75.3" y="577.2" class="st5" width="865.6" height="326.3"/>
		<rect x="75.3" y="192.3" class="st6" width="865.6" height="114.3"/>
		<path class="st7" d="M779.4,520.9L633.9,411c-35.3,34.3-79.7,51.1-125.7,51.4c-46.1-0.3-90.5-17.2-125.7-51.5L236.9,520.9
			c-13.8,239.3,84.3,426.6,271.2,548.3C695.1,947.6,793.2,760.3,779.4,520.9z"/>
		<path class="st8" d="M196.3,532.6l0.3,1.3c-0.1-0.5-0.1-0.9-0.2-1.4C196.3,532.6,196.3,532.6,196.3,532.6z"/>
		<g>
			<g>
				<path class="st9" d="M508.2,1048c-174.8-113.8-266.6-289-253.7-512.8l136.1-102.8c33,32.1,74.5,47.8,117.6,48.1
					c43.1-0.3,84.6-16,117.6-48.1l136.1,102.8C774.7,759.1,683,934.3,508.2,1048L508.2,1048z"/>
				<path class="st10" d="M508.2,505c-40.9-0.1-81.5-14.8-118.9-42.4l-111.9,84.7c-10.8,177.5,61.5,359.3,230.8,470.7
					c169.3-111.4,241.5-293.2,230.7-470.7L627,462.6C589.7,490.1,549,504.9,508.2,505L508.2,505z"/>
				<g>
					<g>
						<polygon class="st9" points="509.1,762.6 513,775 526.1,775 515.4,782.7 519.6,795 509,787.5 498.6,795 502.6,782.7 
							491.9,775 505.1,775 509.1,762.6 						"/>
						<polygon class="st9" points="563.6,762.6 567.5,775 580.5,775 569.9,782.7 574.1,795 563.4,787.5 553,795 557.1,782.7 
							546.4,775 559.6,775 563.6,762.6 						"/>
						<polygon class="st9" points="618,762.6 622,775 635,775 624.4,782.7 628.5,795 617.9,787.5 607.5,795 611.5,782.7 600.9,775 
							614,775 618,762.6 						"/>
						<polygon class="st9" points="672.5,762.6 676.5,775 689.5,775 678.9,782.7 683,795 672.4,787.5 662,795 666,782.7 655.4,775 
							668.5,775 672.5,762.6 						"/>
						<polygon class="st9" points="454.6,762.6 458.5,775 471.6,775 461,782.7 465.1,795 454.5,787.5 444.1,795 448.1,782.7 
							437.4,775 450.6,775 454.6,762.6 						"/>
						<polygon class="st9" points="400.1,762.6 404,775 417.1,775 406.5,782.7 410.6,795 400,787.5 389.6,795 393.6,782.7 
							382.9,775 396.1,775 400.1,762.6 						"/>
						<polygon class="st9" points="345.6,762.6 349.6,775 362.6,775 352,782.7 356.1,795 345.5,787.5 335.1,795 339.1,782.7 
							328.4,775 341.6,775 345.6,762.6 						"/>
						<polygon class="st9" points="538.1,802 542,814.3 555.1,814.3 544.5,822 548.6,834.3 538,826.8 527.6,834.3 531.6,822.1 
							520.9,814.3 534.1,814.3 538.1,802 						"/>
						<polygon class="st9" points="596.1,802 600.1,814.3 613.1,814.3 602.5,822 606.6,834.3 596,826.8 585.6,834.3 589.6,822.1 
							578.9,814.3 592.1,814.3 596.1,802 						"/>
						<polygon class="st9" points="652.3,802 656.3,814.3 669.3,814.3 658.7,822 662.9,834.3 652.2,826.8 641.8,834.3 645.9,822.1 
							635.2,814.3 648.4,814.3 652.3,802 						"/>
						<polygon class="st9" points="480,802 484,814.3 497,814.3 486.4,822 490.6,834.3 479.9,826.8 469.5,834.3 473.6,822.1 
							462.9,814.3 476.1,814.3 480,802 						"/>
						<polygon class="st9" points="422,802 426,814.3 439,814.3 428.4,822 432.5,834.3 421.9,826.8 411.5,834.3 415.5,822.1 
							404.9,814.3 418,814.3 422,802 						"/>
						<polygon class="st9" points="365.8,802 369.7,814.3 382.8,814.3 372.2,822 376.3,834.3 365.7,826.8 355.3,834.3 359.3,822.1 
							348.6,814.3 361.8,814.3 365.8,802 						"/>
						<polygon class="st9" points="570.6,841.3 574.6,853.7 587.6,853.7 577,861.4 581.1,873.7 570.5,866.2 560.1,873.7 
							564.1,861.4 553.4,853.7 566.6,853.7 570.6,841.3 						"/>
						<polygon class="st9" points="630.4,841.3 634.4,853.7 647.4,853.7 636.8,861.4 640.9,873.7 630.3,866.2 619.9,873.7 
							623.9,861.4 613.2,853.7 626.4,853.7 630.4,841.3 						"/>
						<polygon class="st9" points="509.1,841.3 513,853.7 526.1,853.7 515.4,861.4 519.6,873.7 509,866.2 498.6,873.7 502.6,861.4 
							491.9,853.7 505.1,853.7 509.1,841.3 						"/>
						<polygon class="st9" points="447.5,841.3 451.5,853.7 464.5,853.7 453.9,861.4 458,873.7 447.4,866.2 437,873.7 441,861.4 
							430.3,853.7 443.5,853.7 447.5,841.3 						"/>
						<polygon class="st9" points="387.7,841.3 391.7,853.7 404.7,853.7 394.1,861.4 398.2,873.7 387.6,866.2 377.2,873.7 
							381.2,861.4 370.6,853.7 383.7,853.7 387.7,841.3 						"/>
						<polygon class="st9" points="594.3,882.5 598.3,894.8 611.3,894.8 600.7,902.5 604.8,914.8 594.2,907.3 583.8,914.8 
							587.8,902.6 577.2,894.8 590.3,894.8 594.3,882.5 						"/>
						<polygon class="st9" points="538.1,877.2 542,889.5 555.1,889.5 544.5,897.2 548.6,909.5 538,902 527.6,909.5 531.6,897.3 
							520.9,889.5 534.1,889.5 538.1,877.2 						"/>
						<polygon class="st9" points="480,877.2 484,889.5 497,889.5 486.4,897.2 490.6,909.5 479.9,902 469.5,909.5 473.6,897.3 
							462.9,889.5 476.1,889.5 480,877.2 						"/>
						<polygon class="st9" points="423.8,882.5 427.8,894.8 440.8,894.8 430.2,902.5 434.3,914.8 423.7,907.3 413.3,914.8 
							417.3,902.6 406.6,894.8 419.8,894.8 423.8,882.5 						"/>
						<polygon class="st9" points="561,921.8 565,934.2 578,934.2 567.4,941.8 571.5,954.1 560.9,946.7 550.5,954.1 554.5,941.9 
							543.9,934.2 557,934.1 561,921.8 						"/>
						<polygon class="st9" points="509.1,914.7 513,927.1 526.1,927.1 515.4,934.8 519.6,947.1 509,939.6 498.6,947.1 502.6,934.8 
							491.9,927.1 505.1,927.1 509.1,914.7 						"/>
						<polygon class="st9" points="457.1,921.8 461.1,934.2 474.1,934.2 463.5,941.8 467.6,954.1 457,946.7 446.6,954.1 
							450.6,941.9 439.9,934.2 453.1,934.1 457.1,921.8 						"/>
						<polygon class="st9" points="509.1,961.7 513,974 526.1,974 515.4,981.7 519.6,994 509,986.5 498.6,994 502.6,981.8 
							491.9,974 505.1,974 509.1,961.7 						"/>
						<polygon class="st9" points="479.7,602.2 483.7,614.5 496.7,614.5 486.1,622.2 490.3,634.5 479.6,627 469.2,634.5 
							473.3,622.3 462.6,614.5 475.7,614.5 479.7,602.2 						"/>
						<polygon class="st9" points="536.8,602.2 540.7,614.5 553.8,614.5 543.1,622.2 547.3,634.5 536.6,627 526.2,634.5 
							530.3,622.3 519.6,614.5 532.8,614.5 536.8,602.2 						"/>
						<polygon class="st9" points="593,602.2 597,614.5 610,614.5 599.4,622.2 603.5,634.5 592.9,627 582.5,634.5 586.5,622.3 
							575.8,614.5 589,614.5 593,602.2 						"/>
						<polygon class="st9" points="647.5,602.2 651.5,614.5 664.5,614.5 653.9,622.2 658,634.5 647.4,627 637,634.5 641,622.3 
							630.3,614.5 643.5,614.5 647.5,602.2 						"/>
						<polygon class="st9" points="705.5,602.2 709.5,614.5 722.5,614.5 711.9,622.2 716,634.5 705.4,627 695,634.5 699,622.3 
							688.4,614.5 701.5,614.5 705.5,602.2 						"/>
						<polygon class="st9" points="423.5,602.2 427.5,614.5 440.5,614.5 429.9,622.2 434,634.5 423.4,627 413,634.5 417,622.3 
							406.3,614.5 419.5,614.5 423.5,602.2 						"/>
						<polygon class="st9" points="369,602.2 373,614.5 386,614.5 375.4,622.2 379.5,634.5 368.9,627 358.5,634.5 362.5,622.3 
							351.8,614.5 365,614.5 369,602.2 						"/>
						<polygon class="st9" points="311,602.2 314.9,614.5 328,614.5 317.4,622.2 321.5,634.5 310.9,627 300.5,634.5 304.5,622.3 
							293.8,614.5 307,614.5 311,602.2 						"/>
						<polygon class="st9" points="478,556.8 481.9,569.1 495,569.1 484.4,576.8 488.5,589.1 477.9,581.6 467.5,589.1 471.5,576.9 
							460.8,569.1 474,569.1 478,556.8 						"/>
						<polygon class="st9" points="538.5,556.8 542.5,569.1 555.5,569.1 544.9,576.8 549,589.1 538.4,581.6 528,589.1 532,576.9 
							521.4,569.1 534.5,569.1 538.5,556.8 						"/>
						<polygon class="st9" points="596,556.8 600,569.1 613,569.1 602.4,576.8 606.5,589.1 595.9,581.6 585.5,589.1 589.6,576.9 
							578.9,569.1 592,569.1 596,556.8 						"/>
						<polygon class="st9" points="653.6,556.8 657.5,569.1 670.6,569.1 659.9,576.8 664.1,589.1 653.5,581.6 643.1,589.1 
							647.1,576.9 636.4,569.1 649.6,569.1 653.6,556.8 						"/>
						<polygon class="st9" points="713.3,556.8 717.3,569.1 730.3,569.1 719.7,576.8 723.9,589.1 713.2,581.6 702.8,589.1 
							706.9,576.9 696.2,569.1 709.3,569.1 713.3,556.8 						"/>
						<polygon class="st9" points="420.5,556.8 424.4,569.1 437.5,569.1 426.8,576.8 431,589.1 420.4,581.6 410,589.1 414,576.9 
							403.3,569.1 416.5,569.1 420.5,556.8 						"/>
						<polygon class="st9" points="362.9,556.8 366.9,569.1 379.9,569.1 369.3,576.8 373.5,589.1 362.8,581.6 352.4,589.1 
							356.5,576.9 345.8,569.1 358.9,569.1 362.9,556.8 						"/>
						<polygon class="st9" points="303.2,556.8 307.1,569.1 320.2,569.1 309.5,576.8 313.7,589.1 303.1,581.6 292.6,589.1 
							296.7,576.9 286,569.1 299.2,569.1 303.2,556.8 						"/>
						<polygon class="st9" points="474.7,514.4 478.7,526.8 491.7,526.8 481.1,534.4 485.2,546.7 474.6,539.3 464.2,546.7 
							468.2,534.5 457.5,526.8 470.7,526.7 474.7,514.4 						"/>
						<polygon class="st9" points="541.8,514.4 545.8,526.8 558.8,526.8 548.2,534.4 552.3,546.7 541.7,539.3 531.3,546.7 
							535.3,534.5 524.6,526.8 537.8,526.7 541.8,514.4 						"/>
						<polygon class="st9" points="608.7,514.4 612.6,526.8 625.6,526.8 615,534.4 619.2,546.7 608.5,539.3 598.2,546.7 
							602.2,534.5 591.5,526.8 604.7,526.7 608.7,514.4 						"/>
						<polygon class="st9" points="675.8,514.4 679.7,526.8 692.8,526.8 682.1,534.4 686.3,546.7 675.7,539.3 665.3,546.7 
							669.3,534.5 658.6,526.8 671.8,526.7 675.8,514.4 						"/>
						<polygon class="st9" points="407.9,514.4 411.8,526.8 424.8,526.8 414.2,534.4 418.4,546.7 407.7,539.3 397.3,546.7 
							401.4,534.5 390.7,526.8 403.9,526.7 407.9,514.4 						"/>
						<polygon class="st9" points="340.7,514.4 344.7,526.8 357.7,526.8 347.1,534.4 351.3,546.7 340.6,539.3 330.2,546.7 
							334.3,534.5 323.6,526.8 336.8,526.7 340.7,514.4 						"/>
						<polygon class="st9" points="629.8,479.8 633.8,492.2 646.8,492.2 636.2,499.9 640.4,512.2 629.7,504.7 619.3,512.2 
							623.4,499.9 612.7,492.2 625.8,492.2 629.8,479.8 						"/>
						<polygon class="st9" points="386.7,479.8 390.6,492.2 403.7,492.2 393,499.9 397.2,512.2 386.6,504.7 376.2,512.2 
							380.2,499.9 369.5,492.2 382.7,492.2 386.7,479.8 						"/>
					</g>
				</g>
			</g>
			<g>
				<polygon class="st9" points="404.2,686.3 373.4,686.3 373.4,671.8 356.7,671.8 356.7,725.1 373.4,725.1 373.4,710.9 
					404.2,710.9 404.2,731.6 387.4,749.5 342.7,749.5 325.9,731.6 325.9,665.2 342.7,647.3 387.4,647.3 404.2,665.2 404.2,686.3 
									"/>
				<polygon class="st9" points="690.4,647.3 690.4,671.8 685.3,671.8 685.3,734.5 672.2,749.5 631,749.5 614.7,734.4 614.8,707.8 
					643.7,707.8 643.8,725.1 655.5,725.1 655.6,671.8 650.4,671.8 650.4,647.3 690.4,647.3 				"/>
				<g>
					<g>
						<g>
							<path class="st9" d="M478.6,720.8l1.8,4.4h-4.9l0,24.4h39.6v-24.4h-4.3l-23.1-53.3h5.2l0-24.5h-57.1l0,24.5h5.3L418,725.1
								h-4.3v24.4h39.7l-0.1-24.4h-4.9l1.8-4.4H478.6L478.6,720.8z M458.1,701.2l6.3-12.1l6.1,12.1L458.1,701.2L458.1,701.2z"/>
						</g>
					</g>
				</g>
				<path class="st9" d="M523.6,647.3h63.9L605,665v25.5l-7,5.2l7,5v30.9l-17.6,18h-63.8v-24.4h8.2l0-53.3l-8.2,0V647.3L523.6,647.3
					z M573,685.9l-12.7,0v-14H573V685.9L573,685.9L573,685.9z M573,710.8v14.3h-12.7v-14.3L573,710.8L573,710.8z"/>
			</g>
		</g>
		<g>
			<path class="st11" d="M486.3,512.1c0,0-1.1,3.1,2,3.7s9.7,2.8,9.7,2.8l11.6-1l1.2,10l-9.4,11.2l2.6,16.5l-9.6,4.5l1.1,2.9
				l7.6-1.6v8.2h4v-9.6l10.2-4.1l-0.3-2.9c0,0,1.9,0.2,0.8-4.1c-1.1-4.2-8.2-2.1-7.9,1.1c0.3,3.2-0.1,4.1-0.1,4.1l-1.8,0.2l-1-13
				l7-5.2l5,7.5l13.4,14.4c0,0,1.7,0,0.6-3.7l-10-13c0,0-2.2-6.5-4.3-11.7c0,0,0.6-8.2,2.6-9.3c1.9-1.1,6.7,6.5,6.7,6.5
				s6.3,10.2,7.6,10.6c1.3,0.4,0.4-2.6,0.4-2.6l-6.5-10.6c0,0-4.8-9.7-10-11.5l-0.4-3c0,0,3.2-1.9,2.8-4.3c-0.4-2.4-1.7-4.5-4.3-4.1
				c-2.6,0.4-4.1,2.4-4.1,5c0,2.6,1.5,3.7,1.5,3.7l-0.4,2.2c0,0-4.1-1.1-6.5,1.3l-8.9,1.5L486.3,512.1z"/>
			<rect x="440" y="612.9" class="st12" width="4.5" height="17.2"/>
			<rect x="436.5" y="610.5" class="st12" width="4.5" height="22"/>
			<rect x="432.6" y="606.8" class="st12" width="4.5" height="29.3"/>
			
				<rect x="429.3" y="604.3" transform="matrix(-1 2.525036e-03 -2.525036e-03 -1 864.7844 1241.9324)" class="st12" width="4.5" height="34.5"/>
			<path class="st13" d="M458.1,815.4v-13.8c0,0,27.2-6.4,30.1-26.2c2.9-19.8,2.5-62.1,2.5-62.1h30.8c0,0-1.7,57.9,3.2,68.9
				c4.9,11,32.4,20.7,32.4,20.7v8.6L458.1,815.4z"/>
			<path class="st13" d="M448.9,859.1l-11.8-6.7v-21l19.9-21.1h102.2l18.5,20.5l-0.3,21.9l-8,8.3C569.4,861,448.9,858.6,448.9,859.1
				z"/>
			<path class="st14" d="M437.7,830.8c10.7-2.9,53.3-9.2,140-0.3l-18.5-20.2H456.7L437.7,830.8z"/>
			<path class="st15" d="M577.1,979.6V852.3h-140v127.3l-9.4,24.7c0,0,98,21.9,159.9-1.9L577.1,979.6z"/>
			<circle class="st16" cx="508.3" cy="624.3" r="60"/>
			<path class="st11" d="M449.6,637.9l-5.5-5.5v-18.2c0,0,3.9-19.5,64.6-19.5s62.4,18.5,62.4,18.5v19.1l-4.3,4.5l1.1-6.3
				c0,0-15.9-16.1-59.1-16.1s-60.6,15.7-60.6,15.7L449.6,637.9z"/>
			<rect x="571.2" y="612.9" class="st12" width="4.5" height="17.2"/>
			<rect x="574.8" y="610.5" class="st12" width="4.5" height="22"/>
			<rect x="578.7" y="606.8" class="st12" width="4.5" height="29.3"/>
			
				<rect x="581.9" y="604.3" transform="matrix(1 2.525036e-03 -2.525036e-03 1 1.5712 -1.4731)" class="st12" width="4.5" height="34.5"/>
			<path class="st11" d="M498.1,672.6v6.2l-4,6v20.3l4.1,8.2h16.9l3-8.2v-20.3l-4-6v-6.2C514.1,672.6,507.1,661.9,498.1,672.6z"/>
			<rect x="444.7" y="939.7" class="st17" width="55.5" height="19.5"/>
			<rect x="444.7" y="913.3" class="st17" width="126.4" height="20.3"/>
			<rect x="509.9" y="939.7" class="st17" width="61.2" height="19.5"/>
			<rect x="444.7" y="964" class="st17" width="55.5" height="19.5"/>
			<rect x="509.9" y="964" class="st17" width="61.2" height="19.5"/>
			<rect x="444.7" y="886.8" class="st17" width="55.5" height="22.4"/>
			<rect x="509.9" y="886.8" class="st17" width="61.2" height="22.4"/>
			<rect x="509.9" y="859.9" class="st17" width="61.2" height="22.4"/>
			<rect x="444.7" y="859.9" class="st17" width="55.5" height="22.4"/>
			<path class="st6" d="M516.4,552.7c0,0,1.9,0.2,0.7-4.1c-0.4-1.3-1.3-2-2.5-2.3c0,0.5,0,1,0,1.6c0,5.2-1.3,8.7-1.3,8.7l0.3,0.2
				l3-1.2L516.4,552.7z"/>
			<path class="st6" d="M578.1,979.4l-0.4-126.6l0.2-21.6l-18.5-19.8l-1.3,0l0-8.7c0,0-27.9-9.8-32.8-20.8
				c-4.9-11-3.8-69.1-3.8-69.1l-6.5,0l3.9-7.8l-0.1-20.3l-0.9-1.3c24.4-4.1,43.8-23,48.8-47.1l3.8-4.2l-0.1-19.1
				c0,0-0.2-3.5-5.6-7.5c-4.8-14.7-15.2-26.9-28.6-34.1c6.3,9.1,18,28.6,9.5,36.7c0,0,8.5,16.4,2,29.4c0,0,2.3,27.3-35.7,42.8v24.7
				l-2,9.5v3.7h5c0,0-5,63.3,5.3,74.1c10.4,10.8,22.7,12.6,22.7,12.6v6.5l16,24.2v144.5l9.3,27.8c7-1.6,13.7-3.6,20.1-6L578.1,979.4
				z"/>
			<path class="st6" d="M516.6,508.1c-0.9,5.2,4,8.3,4,8.3l-3.8,3.9c0,0-0.8,14.3,1.8,19.9l-1.9,0.5l1.7,2.5l13.5,14.4
				c0,0,1.7,0,0.6-3.7l-10-13c0,0-2.2-6.5-4.4-11.7c0,0,0.6-8.2,2.6-9.3c1.9-1.1,6.7,6.5,6.7,6.5s6.3,10.1,7.6,10.6
				c1.3,0.4,0.4-2.6,0.4-2.6l-6.5-10.6c0,0-4.8-9.7-10-11.4l-0.4-3c0,0,3.2-2,2.8-4.3c-0.2-1.1-0.6-2.1-1.2-2.8
				C518.7,503.3,517.1,505.2,516.6,508.1z"/>
			<path class="st18" d="M503.6,833.6l5.4-22.1v-11.7l-0.2-87c0,0-3.2-10.4-4.5-10c-1.3,0.4-0.1-20.8-0.1-20.8s-10.4-19-8.2-44.1
				c0,0-7.7-44-0.1-72.6c-5.1,1-10,2.7-14.6,5l-0.6,38.6l-3.2,6.1l0,21.2l6.7,4.8c0,0-4.1,20.3,15.4,42.4l0,21.6
				c0,0,3.9,4.8,3.9,9.1l0,98.7l-9.1,22.5l0,148.9l-8.6,28.2c8.7,0.6,17.9,1.1,27.3,1.1l-9.5-28.8L503.6,833.6z"/>
		</g>
		<path class="st19" d="M940.1,1139V724.1l-416.8,416.8C523.3,1140.8,948.1,1139,940.1,1139z"/>
		<g>
			<polygon class="st20" points="749.4,938.7 904.1,938.7 904.1,1093.3 749.4,1093.3 749.4,938.7 			"/>
			<path class="st0" d="M826.7,955c33.6,0,61,27.4,61,61c0,33.6-27.4,61-61,61c-33.6,0-61-27.4-61-61
				C765.7,982.4,793.1,955,826.7,955L826.7,955z"/>
			<polygon class="st21" points="877.9,1031.6 842.3,1031.6 842.3,1067.1 811.2,1067.1 811.2,1031.6 775.6,1031.6 775.6,1000.5 
				811.2,1000.5 811.2,964.9 842.3,964.9 842.3,1000.5 877.9,1000.5 877.9,1031.6 			"/>
		</g>
		<g>
			<path class="st0" d="M268.9,213h12.8v69.8h21.1v11.6h-33.9V213z"/>
			<path class="st0" d="M308.3,213h12.8v81.4h-12.8V213z"/>
			<path class="st0" d="M368.7,231.7v2.9c0,8.4-2.6,13.7-8.3,16.4c6.9,2.7,9.5,8.8,9.5,17.5v6.6c0,12.6-6.6,19.3-19.4,19.3h-20.1
				V213h19.3C363,213,368.7,219.1,368.7,231.7z M343.2,224.6v21.5h5c4.8,0,7.7-2.1,7.7-8.6V233c0-5.8-2-8.4-6.5-8.4H343.2z
				 M343.2,257.8v25h7.3c4.3,0,6.6-2,6.6-8v-7.1c0-7.6-2.4-9.9-8.3-9.9H343.2z"/>
			<path class="st0" d="M390.5,247.3h17.6v11.6h-17.6v23.9h22.1v11.6h-34.9V213h34.9v11.6h-22.1V247.3z"/>
			<path class="st0" d="M447.3,294.4c-0.7-2.1-1.2-3.4-1.2-10v-12.8c0-7.6-2.6-10.4-8.4-10.4h-4.4v33.2h-12.8V213h19.3
				c13.3,0,19,6.2,19,18.7v6.4c0,8.4-2.7,13.8-8.4,16.5c6.4,2.7,8.5,8.8,8.5,17.3v12.6c0,4,0.1,6.9,1.4,9.9H447.3z M433.3,224.6v25
				h5c4.8,0,7.7-2.1,7.7-8.6v-8c0-5.8-2-8.4-6.5-8.4H433.3z"/>
			<path class="st0" d="M463.6,213h39.6v11.6h-13.4v69.8H477v-69.8h-13.4V213z"/>
			<path class="st0" d="M545.8,294.4h-12.9l-2.2-14.8h-15.7l-2.2,14.8H501l13-81.4h18.7L545.8,294.4z M516.6,268.6h12.3l-6.2-41.2
				L516.6,268.6z"/>
			<path class="st0" d="M551.7,213H572c12.8,0,19.1,7.1,19.1,20.1v41.2c0,13-6.3,20.1-19.1,20.1h-20.2V213z M564.5,224.6v58.2h7.2
				c4.1,0,6.5-2.1,6.5-7.9v-42.3c0-5.8-2.4-7.9-6.5-7.9H564.5z"/>
			<path class="st0" d="M598.2,232.5c0-13,6.9-20.5,19.4-20.5c12.6,0,19.4,7.4,19.4,20.5v42.3c0,13-6.9,20.5-19.4,20.5
				c-12.6,0-19.4-7.4-19.4-20.5V232.5z M610.9,275.7c0,5.8,2.6,8,6.6,8c4.1,0,6.6-2.2,6.6-8v-44c0-5.8-2.6-8-6.6-8
				c-4.1,0-6.6,2.2-6.6,8V275.7z"/>
			<path class="st0" d="M672,294.4c-0.7-2.1-1.2-3.4-1.2-10v-12.8c0-7.6-2.6-10.4-8.4-10.4h-4.4v33.2h-12.8V213h19.3
				c13.3,0,19,6.2,19,18.7v6.4c0,8.4-2.7,13.8-8.4,16.5c6.4,2.7,8.5,8.8,8.5,17.3v12.6c0,4,0.1,6.9,1.4,9.9H672z M658.1,224.6v25h5
				c4.8,0,7.7-2.1,7.7-8.6v-8c0-5.8-2-8.4-6.5-8.4H658.1z"/>
			<path class="st0" d="M704.9,247.3h17.6v11.6h-17.6v23.9H727v11.6h-34.9V213H727v11.6h-22.1V247.3z"/>
			<path class="st0" d="M752.1,212c12.4,0,18.8,7.4,18.8,20.5v2.6h-12.1v-3.4c0-5.8-2.3-8-6.4-8c-4.1,0-6.4,2.2-6.4,8
				c0,16.8,25,19.9,25,43.2c0,13-6.5,20.5-19.1,20.5c-12.6,0-19.1-7.4-19.1-20.5v-5H745v5.8c0,5.8,2.6,7.9,6.6,7.9
				c4.1,0,6.6-2.1,6.6-7.9c0-16.8-25-19.9-25-43.2C733.3,219.5,739.7,212,752.1,212z"/>
		</g>
		<g>
			<path class="st0" d="M394.7,368.1v10.8c0,13-6.5,20.5-19.1,20.5c-12.6,0-19.1-7.4-19.1-20.5v-42.3c0-13,6.5-20.5,19.1-20.5
				c12.6,0,19.1,7.4,19.1,20.5v7.9h-12.1v-8.7c0-5.8-2.6-8-6.6-8s-6.6,2.2-6.6,8v44c0,5.8,2.6,7.9,6.6,7.9s6.6-2.1,6.6-7.9v-11.6
				H394.7z"/>
			<path class="st0" d="M444,398.4h-12.9l-2.2-14.8h-15.7l-2.2,14.8h-11.8l13-81.4h18.7L444,398.4z M414.8,372.6h12.3l-6.2-41.2
				L414.8,372.6z"/>
			<path class="st0" d="M477,374.8l8.7-57.8h17.8v81.4h-12.1V340l-8.8,58.4h-12.1l-9.5-57.6v57.6h-11.2V317h17.8L477,374.8z"/>
			<path class="st0" d="M550.8,337.1v10.6c0,13-6.3,20.1-19.1,20.1h-6.1v30.6h-12.8V317h18.8C544.5,317,550.8,324.1,550.8,337.1z
				 M525.7,328.6v27.6h6.1c4.1,0,6.3-1.9,6.3-7.7v-12.2c0-5.8-2.2-7.7-6.3-7.7H525.7z"/>
			<path class="st0" d="M569.6,351.3h17.6v11.6h-17.6v23.9h22.1v11.6h-34.9V317h34.9v11.6h-22.1V351.3z"/>
			<path class="st0" d="M598.6,336.5c0-13,6.9-20.5,19.4-20.5c12.6,0,19.4,7.4,19.4,20.5v42.3c0,13-6.9,20.5-19.4,20.5
				c-12.6,0-19.4-7.4-19.4-20.5V336.5z M631.7,299.8l-11.9,12.9h-8.6l7.9-12.9H631.7z M611.4,379.7c0,5.8,2.6,8,6.6,8s6.6-2.2,6.6-8
				v-44c0-5.8-2.6-8-6.6-8s-6.6,2.2-6.6,8V379.7z"/>
			<path class="st0" d="M657.1,339.4v59h-11.5V317h16.1l13.1,48.7V317h11.4v81.4H673L657.1,339.4z"/>
		</g>
	</g>
	<polygon class="st2" points="29.8,201.5 29.8,157 986.6,157 	"/>
</g>
</svg>
