<?xml version="1.0" encoding="utf-8"?>
<!-- Generator: Adobe Illustrator 19.0.0, SVG Export Plug-In . SVG Version: 6.00 Build 0)  -->
<!DOCTYPE svg PUBLIC "-//W3C//DTD SVG 1.1//EN" "http://www.w3.org/Graphics/SVG/1.1/DTD/svg11.dtd">
<svg version="1.1" id="Layer_1" xmlns="http://www.w3.org/2000/svg" xmlns:xlink="http://www.w3.org/1999/xlink" x="0px" y="0px"
	 viewBox="0 0 133.4 250.8" style="enable-background:new 0 0 133.4 250.8;" xml:space="preserve">
<style type="text/css">
	.st0{fill:#2F2F46;}
	.st1{fill:#E6E6E6;}
	.st2{fill:#DD934C;}
	.st3{fill:#F2F2F2;}
	.st4{fill:#272528;}
	.st5{fill:#D64757;}
</style>
<g>
	<path d="M61.8,224.7c0,0-2.6,8.5-4.1,10.9s-4.1,7.2-4.1,7.2l-5.7-0.6c0,0-2.8-7.9-1.1-12.5c1.7-4.6,3-13.8,5.5-14.6
		c2.6-0.7,6.6-0.2,7.2,0.6C60.1,216.4,61.8,224.7,61.8,224.7z"/>
	<path d="M83,246.8c0,0,8,3.8,15.5,4s10.2-3.2,10.2-3.2l-0.2-10.5l-11.2-3c0,0-1,4-3.5,5.5s-8.5,1-9,2.8S83,246.8,83,246.8z"/>
	<path class="st0" d="M90.5,96.5l-8,18.5c0,0,1,42.2-0.2,46.2S54,210.5,54,210.5s-1,18.2,12,19.5c0,0,28.8-25.5,36-58.5l-6.2,63
		c0,0,11,1.5,13.5,4.8c0,0,15.5-57,19.2-74.2s10.2-52-3.5-66.5C125,98.5,106.8,105,90.5,96.5z"/>
	<path class="st1" d="M51,19L0,61c0,0,2.2,9.2,5.2,10s4.8-3.2,4.8-3.2l-6.1-6.1l47.9-40.9L51,19z"/>
	<polygon class="st2" points="101,21.3 98.2,13.8 71.8,6 70.2,10.3 89.8,23.5 	"/>
	<path class="st3" d="M75,8.8c0,0,1-9-4-8.8s-9.2,3.5-9.5,5.2S66.2,13,72.2,12S75,8.8,75,8.8z"/>
	<path class="st2" d="M69,9.2L77.9,27c0.9,1.8,0.2,3.9-1.6,4.8v0l3.4,6.9c0,0-0.1,8.8-12.3,6.1l-7.1-14.3c0,0-2.9,0.8-4.4-2.3
		s2.3-3.1,2.3-3.1l-4.2-8.4L69,9.2z"/>
	<path class="st0" d="M68.6,7.2c0,0-4.4-7-12.3-2.6s-11.7,16.6-0.8,22.9L68.6,7.2z"/>
	<path class="st4" d="M57.7,25.8c0,0,1.8-23.7,15.8-23.1c4.3,0.8-2.2,10.9-2.2,10.9S64.7,9.1,57.7,25.8z"/>
	<path class="st5" d="M62.8,58.8c0,0,21,23.2,24.2,31.5s1.5,8.2,1.5,8.2s26.2,12,36.5,0c0,0-1.5-26.8-22.5-49.8s-25-15.2-28.2-11
		l-11,2.5C63.2,40.3,56.5,50.3,62.8,58.8z"/>
	<path class="st5" d="M100.2,51.3c0.8-0.1,10.8-17.2,2.2-32.8c0,0-12.2-4.5-15.5,3.8l-1.5,8.5c0,0-6.8,1.2-7.8,3.7
		S85.5,53.3,100.2,51.3z"/>
</g>
</svg>
