<?xml version="1.0" encoding="utf-8"?>
<!-- Generator: Adobe Illustrator 19.0.0, SVG Export Plug-In . SVG Version: 6.00 Build 0)  -->
<!DOCTYPE svg PUBLIC "-//W3C//DTD SVG 1.1//EN" "http://www.w3.org/Graphics/SVG/1.1/DTD/svg11.dtd">
<svg version="1.1" id="Layer_1" xmlns="http://www.w3.org/2000/svg" xmlns:xlink="http://www.w3.org/1999/xlink" x="0px" y="0px"
	 viewBox="0 0 78.4 229.9" style="enable-background:new 0 0 78.4 229.9;" xml:space="preserve">
<style type="text/css">
	.st0{fill:#875C3B;}
	.st1{fill:#231F20;}
	.st2{fill:#E0A984;}
	.st3{fill:#6785BE;}
	.st4{fill:#FFFFFF;}
	.st5{fill:#C4926E;}
	.st6{fill:#ED3024;}
	.st7{fill:#2E3191;}
</style>
<g>
	<polygon class="st0" points="22.3,217.4 21.1,223.2 16,223.2 16,217.4 	"/>
	<path class="st1" d="M16,223.2h5c0,0,2,6.4-4.6,6.7H8c0,0-1.9-4,3.2-4.3C11.2,225.6,15.6,224.9,16,223.2z"/>
	<path class="st1" d="M51.2,223.2h-5c0,0-2,6.4,4.6,6.7h8.5c0,0,1.9-4-3.2-4.3C56,225.6,51.6,224.9,51.2,223.2z"/>
	<polygon class="st2" points="17.4,115 15.4,217.4 22.3,217.4 37.3,127.2 45.3,217.4 51.9,217.4 54.6,114.5 	"/>
	<polygon class="st0" points="22.3,217.4 21.1,223.2 16,223.2 16,217.4 	"/>
	<path class="st1" d="M16,223.2h5c0,0,2,6.4-4.6,6.7H8c0,0-1.9-4,3.2-4.3C11.2,225.6,15.6,224.9,16,223.2z"/>
	<path class="st1" d="M51.2,223.2h-5c0,0-2,6.4,4.6,6.7h8.5c0,0,1.9-4-3.2-4.3C56,225.6,51.6,224.9,51.2,223.2z"/>
	<polygon class="st3" points="15.4,202.3 25.3,202.3 21.3,224.6 15.4,224.6 	"/>
	<polygon class="st3" points="52.6,202.3 43.5,202.3 45.9,224.5 51.9,224.2 	"/>
	<path class="st2" d="M56.9,60c0,0,6,28.5,6.5,34.5s3.5,48.5,3.5,48.5l5.8-1.2c0,0,2.2-52.5,2.2-53.2s-9.5-33.7-9.5-33.7L56.9,60z"
		/>
	<path class="st3" d="M64.9,39.7l4,21.5c0,0-9.2,7-13.8,7S64.9,39.7,64.9,39.7z"/>
	<path class="st4" d="M68.9,61.2c0,0-6.2,5.5-11,6.5s-0.3,1.3-0.3,1.3l1.3-4.3l9.2-5.2L68.9,61.2z"/>
	<path class="st1" d="M50.9,3.2c0,0-18-4-23.5,16.8s-2,17.8-2,17.8l9.8-4.2l7-14.5L50.9,3.2z"/>
	<path class="st1" d="M73.1,20.8c0,0,7.1-5.3-0.8-13.2S54.8-1.7,49.9,1.8C44.6,5.5,37.1,8.6,39.8,26L58,34.3L73.1,20.8z"/>
	<path class="st3" d="M54.2,98.1l3.3-29l7.3-29.3l-19.7-8.3l-13.7-0.7l-23,11.3l2,27.3l4.7,28.3C15.2,97.7,34.2,108.7,54.2,98.1z"/>
	<path class="st5" d="M56.8,17.6c-1.2,0.8-3.2,2.3-3.7,3.3c0,0,0.4-3.9-4.1-3.2c0,0-4.3,1.5-2.4,6.3l-1.9,2.8l-4.5-2.3l-8.7,7.4
		L43.2,48l11-9.2l6.1,4.2l14-24.1l-2.2-1.3C67.4,14.7,61.4,14.6,56.8,17.6z"/>
	<g>
		
			<rect x="18.6" y="50.9" transform="matrix(0.9396 -0.3423 0.3423 0.9396 -20.3798 14.0339)" class="st4" width="22" height="27.7"/>
		<g>
			<polygon class="st6" points="18.1,59.1 35.4,52.9 41.7,70.1 24.4,76.4 18.1,59.1 			"/>
			<path class="st4" d="M27.4,57.8c3.8-1.4,7.9,0.6,9.3,4.3c1.4,3.8-0.6,7.9-4.3,9.3c-3.8,1.4-7.9-0.6-9.3-4.3
				C21.7,63.4,23.7,59.2,27.4,57.8L27.4,57.8z"/>
			<polygon class="st7" points="36.2,64.3 32.2,65.7 33.7,69.7 30.2,71 28.8,67 24.8,68.4 23.5,65 27.5,63.5 26.1,59.6 29.5,58.3 
				31,62.3 35,60.8 36.2,64.3 			"/>
		</g>
	</g>
	<polygon class="st4" points="28.4,32.2 42.4,51.5 56.7,40.2 54.2,38.7 44.2,45.2 33.7,30 	"/>
	<path class="st3" d="M15.2,97.7c0,0-7,25-3.7,47c0,0,9,9,22,2l2.3-11.3l3.3,12c0,0,12.7,5.7,19-2.7l-4-46.7L15.2,97.7z"/>
	<path class="st2" d="M45.4,29l4-11.8l3.2,0.8l-1,4.2l9.2-6.5c0,0,7.8,3.8,7,12l-18.5,8.8C49.4,36.5,44.4,34.5,45.4,29z"/>
	<path class="st2" d="M66.2,139.7l-6.2,9.7l2.4,1.9l2.5-3.2l0.6,10.5c0,0,7.2,3.5,12.8-1.9L74,138.2C74,138.2,69.6,135.7,66.2,139.7
		z"/>
	<path class="st2" d="M50.7,33.5L30.4,64.7L9.2,60l9-13.2l9.5,3.8l19.2-22.8C46.9,27.7,51.4,27.7,50.7,33.5z"/>
	<path class="st3" d="M24.4,44.7l-7.5,22c0,0-15.5,0.5-16.8-10s4.8-16.2,11-15.2S24.4,44.7,24.4,44.7z"/>
	<polygon class="st4" points="24.2,44.7 16.9,66.7 11.9,66.7 20.2,43.2 	"/>
</g>
</svg>
