<?xml version="1.0" encoding="utf-8"?>
<!-- Generator: Adobe Illustrator 19.0.0, SVG Export Plug-In . SVG Version: 6.00 Build 0)  -->
<!DOCTYPE svg PUBLIC "-//W3C//DTD SVG 1.1//EN" "http://www.w3.org/Graphics/SVG/1.1/DTD/svg11.dtd">
<svg version="1.1" id="Layer_1" xmlns="http://www.w3.org/2000/svg" xmlns:xlink="http://www.w3.org/1999/xlink" x="0px" y="0px"
	 viewBox="0 0 299.8 316.1" style="enable-background:new 0 0 299.8 316.1;" xml:space="preserve">
<style type="text/css">
	.st0{fill:#E0A984;}
	.st1{fill:#A32C22;}
	.st2{fill:#B43F27;}
	.st3{fill:#C19678;}
	.st4{fill:#EFF8FE;}
	.st5{fill:#081953;}
	.st6{fill:#D88318;}
	.st7{fill:#2C2B2B;}
</style>
<g>
	<g>
		<path class="st0" d="M135.6,56.3c0,0-6.1,0.5-5.8,6.9c0.3,6.4,0,23.1,0,23.1l-20.2,13.3l-12.5,6.8l1.3,9.4l1.9-0.8l-0.5-2.4
			l1.3,5.6l5.3,2.1l1.6-2.7l-4.5-3.2l6.6-3.4l-0.5,2.9l2.7-0.3l3.7-5.6l0.5-2.7l26.8-7.2L135.6,56.3z"/>
		<path class="st1" d="M223.9,123.7l-20.4-23.1l-4.2-24.9L186,62.1l-19.6-6.4l-32.1,1.1l4.8,34.5c0,0,18.6,33.4,19.6,34.2
			c1.1,0.8,5,5,5,5l6.1,12.7c0,0,15.1,10.1,25.7,6.1S228.2,134.6,223.9,123.7z"/>
		<path class="st0" d="M214.7,200.6l3.2,27.1l6.9,5.3l43,25.5c0,0,8.5-0.5,8-8.5l-23.3-29.2l-13.3-4.2L238,198
			C238,198,225.8,188.4,214.7,200.6z"/>
		<path class="st0" d="M173.8,190l-7.4,10.1l12.2,8l15.4,21.2c0,0-5.8,9-10.6,8.5l-44.6-27.6l-6.4-14.9l8-16.5
			C140.4,178.9,164.8,165.6,173.8,190z"/>
		<path d="M194,229.3l14.3,10.1l11.9,5c0,0-9,15.9-12.7,19.6c-3.7,3.7-27.6,6.1-27.6,6.1s-3.2-3.7-0.3-7.7c0,0,11.4-3.2,15.7-15.7
			l-11.9-9C183.3,237.8,188.7,236.2,194,229.3z"/>
		<path d="M262.4,255.3l13.3,9.3l7.4,9.8l2.4,7.7c0,0,13.8,1.3,14.3-11.7l-16.5-15.1L272,245.2C272,245.2,270.6,256.9,262.4,255.3z"
			/>
		<path class="st2" d="M137.4,181.5l34,14.6l19.4-20.4l18.3,19.4l1.6,15.1c0,0,25.5,8,33.7-5.3l-5.6-27.9c0,0,5.3-36.6-14.6-54.1
			c0,0-22,30.2-56.8,15.1C167.4,138,142.5,165.3,137.4,181.5z"/>
		<path class="st0" d="M134.5,26.8l2.4,36.3h9.6c0,0-1.3,6.7,6.1,20c0,0,10.3-11.6,13.8-25.7L162.8,26L134.5,26.8z"/>
		<path class="st3" d="M147.3,64.1h10.3l-8,13.5C149.7,77.6,145.4,68.1,147.3,64.1z"/>
		<path class="st0" d="M167.4,94c0,0,4.2,7.4,10.1,6.9l1.6,23.3l6.7,10.1l-2.8,14.3v21l12.3,1.9l5.7-38.2v-25.7l-5.2-16.7
			c0,0,4.1-4.2-0.1-13.3c-4.2-9-16.5-9-21.8-3.7S163.7,85.5,167.4,94z"/>
		<path class="st0" d="M183.3,169.9l-1.1,6.4l-5.8,7.4l-3.4,6.9c0,0,0,1.3,1.9,0.5c0,0-3.2,9.8-2.4,9.8s2.1,0.3,2.1,0.3l7.7-12
			l-0.3,16.9h2.7l2.7-16.6l1.6,16l2.9-0.5l0.3-14.8l5.3,13l3.4-1.6l-5.8-14.6c0,0,2.4-4-0.8-10.3l0.9-5
			C195.2,171.4,188.9,158.2,183.3,169.9z"/>
		<path d="M164.4,42l-3.4-2.9l-3,2.7v7.2h-4.4l-0.8-9.8c0,0-5.6-4.3-2-11.5l-16.3,0.8c0,0-4.8-6.3,7.2-13.1l-0.8,4.4
			c0,0,3.6-4.8,13.9-5.2l-2,2.8c0,0,8.4-2.4,15.1,6.4l-4.8-1.2c0,0,11.9,16.3,2.8,27.9L164.4,42z"/>
		<path class="st4" d="M224.9,213c0,0-13.5-34.6-2.8-65.7c0,0,15.1,19.9,20.7,58.1c0,0,0.4,2.4-2.8,4c0,0-4-28.3-15.5-50.9
			c0,0-6.8,21.1,4.4,53.7L224.9,213z"/>
		<path class="st4" d="M231.6,212.2c0,0-7.6-21.9-6-38.6c0,0,10,19.1,12.3,36.6l-2.4,0.8l-5.6-20.3l3.6,21.1L231.6,212.2z"/>
		<path class="st4" d="M147.7,107.5c0,0,0.4-24.3-7.6-45l-3.2,0.4c0,0,9.2,23.5,6.8,37.8L147.7,107.5z"/>
		<path class="st4" d="M187.9,64.5c0,0-19.1-1.6-23.5,15.9s8.8,28.7,13.5,29.5l0.4,5.6c0,0-25.1-11.1-17.1-35.8
			C169.2,55,187.9,64.5,187.9,64.5z"/>
		<polygon class="st4" points="201,112.3 205.4,103.1 203.5,100.6 200.6,107.5 		"/>
	</g>
	<g>
		<path class="st0" d="M68.5,74.9l-4.8-6l-27.5,4.4L23.9,61.3L18.3,51l9.6-2L41,55.8l10.7-1.2l11.1-9.2l11.5,0.4
			C74.4,45.8,72.8,70.5,68.5,74.9z"/>
		<path class="st4" d="M66.9,119.8c0,0,3.2-4.4,3.2-10c0-5.6-3.6-34.6-2-39.4s6.4-24.7,6.4-24.7l12.3-6l23.1,2.4
			c0,0,16.7,6,17.1,12.7c0.4,6.8,1.2,29.9,1.2,29.9l-1.2,24.3c0,0-3.6,0.4-3.6,2.4c0,2,2,6.8-0.4,13.9l-33,11.1
			C89.9,136.6,68.9,129.8,66.9,119.8z"/>
		<path class="st0" d="M49.2,170c0.3,1.2-25.8,10-25.8,10l5.2,10l-0.8,10.3c0,0-4.2,10.3-16.5,3.6L0,174.8v-11.5l27.5-17.9
			C27.5,145.3,43.4,148.5,49.2,170z"/>
		<path class="st0" d="M120.2,207.4c0,0,6,11.5,7.2,24.3l7.2,25.5l7.6,23.1c0,0,8.8,5.2,11.9-4.4c3.2-9.6-0.4-49.4-0.4-49.4
			s-9.2-12.7-9.6-18.3C143.7,202.6,130.1,193.9,120.2,207.4z"/>
		<path class="st0" d="M150.4,127.8c0,0-3.2,8.4-6,10c-2.8,1.6-2.8,9.6-2.8,9.6l3.6,1.2l4-5.6l1.2,11.1l3.2-1.2l2.4-11.5l1.2,13.5
			l5.2-1.6l0.8-10l2.4,4l-0.4,6l2.8-1.2l0.8-7.6l-7.6-12.7L150.4,127.8z"/>
		<path class="st0" d="M109.9,42.2l7.2-27.1L94.3,6.4l-3.6,12.7c0,0-4-5.2-5.2,0.8s3.2,8.8,3.2,8.8l-4,15.1c0,0-0.4,15.5,7.2,21.5
			C91.9,65.3,109.1,55,109.9,42.2z"/>
		<path class="st3" d="M106.7,49l-16.3-4l-0.8-9.6l-2,13.1l9.2,11.9C96.7,60.5,106.3,49,106.7,49z"/>
		<path class="st4" d="M11.1,201.8l8.4,22.3c0,0-12.7,26.3-11.9,29.1s5.6,1.2,5.6,1.2l18.3-13.5c0,0,11.1-3.2,12.3-12.7l-9.2-11.5
			l-5.6-26.7C29.1,189.9,23.9,201.4,11.1,201.8z"/>
		<path class="st4" d="M25.1,144.9c0,0,21.1,13.1,23.1,28.7c0,0,12.3-2,15.9,0.4c3.6,2.4,20.3,0.4,20.3,0.4s10,8.4,9.2,21.1
			c-0.8,12.7,1.6,20.3,1.6,20.3s36.6,4.4,52.9-3.2c0,0-6.8-37-12.7-50.9c0-11.1-12.3-36.2-12.3-36.2s-40.6,15.5-56.1-6.8l-3.6,6.8
			C63.3,125.4,30.2,141.3,25.1,144.9z"/>
		<path class="st4" d="M141.7,277.8c0,0-2.4,7.2-2.8,8.4s1.6,5.2,3.6,7.2c2,2-4.8,13.9-5.2,16.3c-0.4,2.4,11.1,9.6,18.3,4.8
			s0.8-48.6,0.8-48.6l-19.9-1.2L141.7,277.8z"/>
		<path class="st5" d="M63.4,125.3c0,0,32.9,26.3,62.1,4.5l-2.5-4.4c0,0-34.4,14.5-56.1-6.8L63.4,125.3z"/>
		<path class="st5" d="M67.1,74.3l4-4.5l2.1,23.9c0,0,1.9-30.5,4-37.1c2.1-6.6,2.1-13.5,2.1-13.5l-4.9,2.8L67.1,74.3z"/>
		<path class="st5" d="M117.3,45.7c0,0-6.1,4-7.2,8.8s-5.3,44-5.3,44l7.7-20.7c0,0,5.8,12.5,15.7,10.9c0,0,1.3-29.4-2.4-36.9
			C123.1,46.5,117.3,45.7,117.3,45.7z"/>
		<path class="st0" d="M121.4,50.6c0,0,9.2,2.8,12.7,10.7c3.6,8,21.9,42.6,21.9,42.6l5.2,27.9l-12.3-0.8l-5.2-24.7L122.2,82
			C122.2,82,108.3,67.7,121.4,50.6z"/>
		<path class="st5" d="M94.5,213.1c0,0,31.8,0.8,38.7-1.3c0,0,11.1-10.9,8.5-28.7c0,0,6.4,23.3,6.4,29.5c0,0-9.3,7.2-52.9,3.2
			L94.5,213.1z"/>
		<path class="st5" d="M48.2,173.6l3.8-0.3c0,0-2.7-23.3-21.8-31.3l-6.4,2.7C23.9,144.6,36.6,148.1,48.2,173.6z"/>
		<path class="st0" d="M28.5,50.1l4.4-5.3l-0.2-9.1l-3,2L28.3,40l0.2-9.2l-6-4.4l-0.2,2.4l0.8,1.8l-2.4-1.4l-7.2,1l0.4,1.6L11.5,33
			l-0.8,4.1h2.8c0,0-1.6,11.3,5.4,14.5L28.5,50.1z"/>
		<path d="M90.7,19.1l1.6,3.2c0,0,3.6-10.3,5.6-11.1c2-0.8,16.3,4,18.3,7.6c0,0,7.6-13.5-9.2-17.9s-18.3,9.6-19.5,15.9
			C87.6,16.8,90.3,17.2,90.7,19.1z"/>
	</g>
	<g>
		<path class="st6" d="M177.6,267.9c-0.5-1.5-0.9-3-1.2-4.5c-0.2-0.9-0.2-1.9-0.3-2.8c0,0,0,0,0-0.1c0-0.6,0-1.3,0-1.9
			c0-0.2,0-0.3,0-0.5c0.1-1.1,0.2-2.2,0.4-3.3c0.4-2.1,1.1-4.2,2.1-6.1c0.1-0.2,0.2-0.4,0.4-0.6c0,0.1-0.1,0.3,0,0.4c0,0,0,0,0,0
			c0,0,0,0,0,0c0,0,0.1,0,0.1,0c0.5-0.3,1-0.7,1.4-1c1.1-0.8,2.2-1.6,3.3-2.3c1.1-0.7,2.2-1.4,3.3-1.9c1.5-0.7,3-1.3,4.5-1.9
			c1.9-0.7,3.8-1.4,5.7-1.9c1.9-0.5,3.8-1,5.7-1.5c0.1,0,0.1,0,0.2,0c0.5,0.5,1.1,1,1.6,1.5c0.7,0.7,1.4,1.4,2.1,2.1
			c0.2,0.2,0.4,0.4,0.6,0.7c0,0,0,0,0,0c-0.1,0-0.2,0-0.4,0.1c-1.4,0.2-2.8,0.6-4.2,0.9c-1.2,0.3-2.3,0.7-3.5,1.2
			c-0.8,0.3-1.7,0.7-2.5,1.1c-1.7,0.9-3.4,1.9-5,3c-1,0.8-2,1.6-3,2.4c-0.6,0.6-1.2,1.2-1.8,1.8c-0.3,0.3-0.6,0.6-0.9,1
			c-0.2,0.2-0.4,0.4-0.6,0.7c-0.2,0.3-0.4,0.5-0.7,0.8c-0.3,0.4-0.6,0.8-0.9,1.2c-0.3,0.4-0.7,0.9-1,1.3c-0.4,0.6-0.9,1.3-1.3,1.9
			c-1.1,1.8-2.2,3.7-3.1,5.6C178.3,266.2,178,267.1,177.6,267.9z"/>
		<path class="st7" d="M177.6,267.9c0.4-0.8,0.7-1.7,1.1-2.5c0.9-1.9,2-3.8,3.1-5.6c0.4-0.7,0.8-1.3,1.3-1.9c0.3-0.5,0.6-0.9,1-1.3
			c0.3-0.4,0.6-0.8,0.9-1.2c0.2-0.3,0.4-0.5,0.7-0.8c0.2-0.2,0.4-0.4,0.6-0.7c0.3-0.3,0.6-0.6,0.9-1c0.6-0.6,1.2-1.2,1.8-1.8
			c0.9-0.9,1.9-1.7,3-2.4c1.6-1.1,3.2-2.2,5-3c0.8-0.4,1.6-0.8,2.5-1.1c1.1-0.4,2.3-0.9,3.5-1.2c1.4-0.4,2.8-0.7,4.2-0.9
			c0.1,0,0.2,0,0.4-0.1c0,0,0,0,0,0c-0.2-0.2-0.4-0.4-0.6-0.7c-0.7-0.7-1.4-1.5-2.1-2.1c-0.5-0.5-1.1-1-1.6-1.5c0,0-0.1,0-0.2,0
			c-1.9,0.4-3.8,0.9-5.7,1.5c-1.9,0.6-3.9,1.2-5.7,1.9c-1.5,0.6-3,1.2-4.5,1.9c-1.2,0.6-2.3,1.2-3.3,1.9c-1.1,0.7-2.2,1.5-3.3,2.3
			c-0.5,0.3-1,0.7-1.4,1c0,0-0.1,0-0.1,0l0,0c0-0.1,0.1-0.3,0-0.4l0,0c0,0,0,0,0-0.1c0-0.2,0.1-0.4,0.1-0.6c0-0.1,0-0.1,0.1-0.1
			c0.1-0.1,0.3-0.2,0.4-0.3c0,0,0,0,0,0l0,0c0,0,0.1,0,0.1,0c0.2-0.2,0.5-0.4,0.7-0.6c0.5-0.4,1-0.8,1.5-1.3
			c0.3-0.2,0.6-0.5,0.9-0.7c0.5-0.4,1-0.8,1.5-1.1c0.5-0.4,1.1-0.7,1.7-1c0.6-0.3,1.2-0.6,1.8-0.9c0.5-0.2,1-0.4,1.5-0.6
			c0.8-0.3,1.6-0.6,2.4-0.9c0.8-0.3,1.5-0.5,2.3-0.7c2.3-0.7,4.7-1.3,7.1-1.9c0.3-0.1,0.6-0.1,0.9-0.2c-0.4-0.3-0.8-0.7-1.2-1
			c0,0-0.1,0-0.1-0.1c0,0,0.1,0,0.1,0c0.1,0,0.1,0,0.2,0c0.3,0,0.6-0.1,0.9-0.2c0,0,0,0,0.1,0c0.1,0.1,0.2,0.2,0.3,0.2c0,0,0,0,0,0
			l0,0c0.3,0.2,0.6,0.5,0.9,0.7c0,0,0.1,0,0.1,0c0.5-0.1,1-0.2,1.4-0.4c0,0,0,0,0,0c0.2-0.1,0.4,0,0.6,0.1c0.4,0.2,0.9,0.3,1.3,0.5
			c0.1,0,0.2,0.1,0.3,0.1c0,0.1-0.1,0-0.1,0.1c-0.7,0.1-1.3,0.3-2,0.4c-0.2,0-0.4,0.1-0.6,0.1c0.1,0,0.1,0.1,0.1,0.1
			c0.5,0.4,1.1,0.9,1.6,1.4c1,0.9,2,1.9,2.9,2.9c0.1,0.1,0.1,0.1,0.2,0.1c0.6-0.1,1.3-0.1,1.9-0.2c0.9-0.1,1.8-0.1,2.7-0.1
			c0.5,0,1,0,1.4,0c0.1,0,0.3,0,0.4,0.1c0,0,0,0.1,0.1,0l0,0c0,0.1,0,0.1,0.1,0.1l0,0c0,0,0,0,0,0c0.3,0.2,0.5,0.4,0.8,0.6
			c-0.1,0-0.1,0-0.1,0c-0.5,0-1.1,0-1.6,0c-1.1,0-2.1,0.1-3.1,0.1c-0.6,0.1-1.2,0.1-1.8,0.2c0,0-0.1,0-0.1,0c0,0,0,0,0,0.1
			c1.1,1.4,2.2,2.8,3.1,4.3c0.1,0.1,0.1,0.1,0.2,0.1c0.7-0.1,1.4,0,2,0.1c1.3,0.3,2.5,0.8,3.5,1.6c1.4,1,2.6,2.2,3.6,3.5
			c0.1,0.1,0.2,0.3,0.4,0.4l0,0c0,0,0,0,0,0c0.2,0.2,0.1,0.4,0.2,0.6c0,0.1,0,0.1,0,0.2c0,0.1,0,0.1,0,0.2c0,0.3,0.1,0.6,0.1,0.9
			l0,0c-0.1-0.1-0.1-0.2-0.2-0.2c-0.9-1.3-1.9-2.6-3.1-3.6c-0.8-0.7-1.7-1.3-2.8-1.8c-1-0.4-2-0.6-3.1-0.5c-0.1,0-0.1,0.1,0,0.1
			c0.2,0.4,0.4,0.7,0.5,1.1c0.4,0.9,0.8,1.8,1.1,2.8c0.6,1.7,1,3.5,1.3,5.4c0.1,0.9,0.2,1.8,0.2,2.6c0,1,0,2,0,3
			c0,0.5-0.1,1-0.1,1.5c0,0.5-0.1,1.1-0.2,1.6c-0.2,1.1-0.4,2.2-0.7,3.3c-0.5,1.9-1.1,3.8-1.8,5.6c-0.5,1.2-1,2.5-1.6,3.7
			c0,0.1-0.1,0.1-0.1,0.1c-0.5,0.2-1,0.5-1.5,0.7c-0.1,0-0.2,0.1-0.3,0.1c0,0,0-0.1,0-0.1c0.8-1.5,1.6-3.1,2.3-4.7
			c0.6-1.5,1.2-3,1.6-4.6c0.1-0.5,0.3-1.1,0.4-1.6c0.2-1,0.4-2,0.6-3.1c0.1-0.9,0.2-1.8,0.2-2.7c0-0.4,0-0.8,0-1.3
			c0-0.8-0.1-1.6-0.1-2.4c0-0.3-0.1-0.7-0.1-1c0-0.4-0.1-0.8-0.2-1.2c-0.1-0.6-0.2-1.1-0.3-1.7c-0.2-1-0.5-2-0.9-2.9
			c-0.5-1.3-1.1-2.6-1.8-3.9c-0.1-0.1-0.1-0.1-0.2-0.1c-0.8,0.3-1.5,0.6-2.2,1.1c-0.6,0.4-1.2,0.8-1.8,1.3c-0.4,0.3-0.8,0.7-1.1,1
			c-0.5,0.5-1,1-1.4,1.6c-0.4,0.6-0.9,1.2-1.3,1.9c-0.7,1-1.3,2-2,3c-1.6,2.7-3.2,5.4-4.6,8.1c-0.5,1-1,1.9-1.5,2.9
			c-0.6,1.1-1.1,2.1-1.7,3.2c-0.3,0.6-0.6,1.2-0.9,1.8c-0.5,0.9-0.9,1.8-1.4,2.7c-0.4,0.8-0.8,1.6-1.2,2.5c-0.2,0.4-0.4,0.8-0.6,1.1
			c0,0-0.1,0-0.1,0c-0.1-0.1-0.3-0.2-0.4-0.2c0,0,0-0.1-0.1-0.1c-0.1-0.1-0.3-0.2-0.4-0.3c-0.1-0.1-0.1-0.1-0.1-0.2
			c0.3-0.7,0.7-1.3,1-2c0.5-0.9,0.9-1.9,1.4-2.8c0.3-0.6,0.5-1.1,0.8-1.7c0.4-0.7,0.7-1.4,1-2.1c0.5-1,1-2,1.5-2.9
			c0.4-0.8,0.8-1.5,1.2-2.3c0.4-0.8,0.8-1.5,1.2-2.3c1.2-2.2,2.5-4.5,3.8-6.6c0.9-1.5,1.9-2.9,3-4.3c0.3-0.3,0.5-0.7,0.8-1
			c0.4-0.4,0.7-0.9,1.1-1.3c0.2-0.2,0.5-0.5,0.7-0.7c0.2-0.2,0.4-0.4,0.6-0.5c0.4-0.4,0.9-0.7,1.4-1c0.5-0.3,1-0.6,1.5-0.8
			c0.3-0.1,0.6-0.3,1-0.4c0.1,0,0.1,0,0.1-0.2c-0.9-1.5-2-3-3.1-4.3c-0.1-0.1-0.1-0.1-0.2-0.1c-1.1,0.2-2.1,0.4-3.2,0.7
			c-1.2,0.3-2.5,0.7-3.7,1.2c-2.1,0.8-4.1,1.8-6,3c-1.4,0.9-2.7,1.8-4,2.8c-0.6,0.5-1.1,0.9-1.7,1.4c-0.8,0.8-1.6,1.5-2.4,2.4
			c-0.8,0.9-1.5,1.7-2.2,2.7c-0.6,0.7-1.1,1.4-1.6,2.2c-0.9,1.3-1.6,2.6-2.4,3.9c-0.6,1.1-1.1,2.1-1.6,3.2c-0.4,0.9-0.8,1.9-1.1,2.8
			c0,0,0,0,0,0.1c0-0.1-0.1-0.1-0.1-0.2C178,269.1,177.8,268.5,177.6,267.9C177.6,268,177.6,268,177.6,267.9z"/>
		<path class="st6" d="M190.3,281.3c0.2-0.4,0.4-0.8,0.6-1.1c0.4-0.8,0.8-1.6,1.2-2.5c0.5-0.9,0.9-1.8,1.4-2.7
			c0.3-0.6,0.6-1.2,0.9-1.8c0.6-1.1,1.1-2.1,1.7-3.2c0.5-1,1-1.9,1.5-2.9c1.5-2.7,3-5.5,4.6-8.1c0.6-1,1.3-2,2-3
			c0.4-0.6,0.9-1.3,1.3-1.9c0.4-0.6,0.9-1.1,1.4-1.6c0.4-0.4,0.7-0.7,1.1-1c0.6-0.5,1.2-0.9,1.8-1.3c0.7-0.4,1.4-0.8,2.2-1.1
			c0.1,0,0.2,0,0.2,0.1c0.7,1.3,1.3,2.6,1.8,3.9c0.3,1,0.7,1.9,0.9,2.9c0.1,0.6,0.3,1.1,0.3,1.7c0.1,0.4,0.1,0.8,0.2,1.2
			c0,0.3,0.1,0.7,0.1,1c0.1,0.8,0.1,1.6,0.1,2.4c0,0.4,0,0.8,0,1.3c0,0.9-0.1,1.8-0.2,2.7c-0.1,1-0.3,2.1-0.6,3.1
			c-0.1,0.5-0.3,1.1-0.4,1.6c-0.4,1.6-1,3.1-1.6,4.6c-0.7,1.6-1.4,3.2-2.3,4.7c0,0,0,0,0,0.1c0.1,0,0.2-0.1,0.3-0.1
			c0.5-0.2,1-0.5,1.5-0.7c0.1,0,0.1-0.1,0.1-0.1c0.6-1.2,1.1-2.4,1.6-3.7c0.7-1.8,1.3-3.7,1.8-5.6c0.3-1.1,0.5-2.2,0.7-3.3
			c0.1-0.5,0.2-1.1,0.2-1.6c0-0.5,0.1-1,0.1-1.5c0.1-1,0.1-2,0-3c0-0.9-0.1-1.8-0.2-2.6c-0.2-1.8-0.7-3.6-1.3-5.4
			c-0.3-1-0.7-1.9-1.1-2.8c-0.2-0.4-0.3-0.7-0.5-1.1c0,0-0.1-0.1,0-0.1c1.1-0.1,2.1,0.1,3.1,0.5c1,0.4,1.9,1,2.8,1.8
			c1.2,1.1,2.2,2.3,3.1,3.6c0.1,0.1,0.1,0.2,0.2,0.2c0,0,0,0,0,0c0,0,0,0,0,0c0-0.3-0.1-0.6-0.1-0.9c0-0.1,0-0.1,0-0.2
			c0.1,0.4,0.2,0.7,0.3,1.1c0.2,1,0.3,2,0.4,3c0.1,1,0.1,2,0,3.1c-0.1,1.1-0.2,2.3-0.4,3.4c-0.4,2-1.1,4-2,5.9
			c-1.3,2.5-3,4.8-5.1,6.7c-2.2,2-4.7,3.6-7.5,4.7c-1.5,0.6-2.9,1-4.5,1.3c-0.9,0.2-1.8,0.3-2.8,0.3c-0.9,0.1-1.8,0.1-2.7,0
			c-2.5-0.1-5-0.6-7.3-1.5C191,281.6,190.7,281.5,190.3,281.3z"/>
		<path class="st6" d="M178.3,269.7c0.3-0.9,0.7-1.9,1.1-2.8c0.5-1.1,1-2.2,1.6-3.2c0.7-1.4,1.5-2.7,2.4-3.9c0.5-0.7,1-1.5,1.6-2.2
			c0.7-0.9,1.5-1.8,2.2-2.7c0.8-0.8,1.5-1.6,2.4-2.4c0.5-0.5,1.1-1,1.7-1.4c1.3-1,2.6-2,4-2.8c1.9-1.2,3.9-2.2,6-3
			c1.2-0.5,2.4-0.9,3.7-1.2c1-0.3,2.1-0.5,3.2-0.7c0.1,0,0.1,0,0.2,0.1c1.1,1.4,2.2,2.8,3.1,4.3c0.1,0.1,0.1,0.1-0.1,0.2
			c-0.3,0.1-0.7,0.2-1,0.4c-0.5,0.2-1,0.5-1.5,0.8c-0.5,0.3-0.9,0.7-1.4,1c-0.2,0.2-0.4,0.3-0.6,0.5c-0.2,0.2-0.5,0.4-0.7,0.7
			c-0.4,0.4-0.8,0.8-1.1,1.3c-0.3,0.3-0.5,0.6-0.8,1c-1.1,1.4-2,2.8-3,4.3c-1.4,2.2-2.6,4.4-3.8,6.6c-0.4,0.8-0.8,1.5-1.2,2.3
			c-0.4,0.8-0.8,1.5-1.2,2.3c-0.5,1-1,2-1.5,2.9c-0.3,0.7-0.7,1.4-1,2.1c-0.3,0.6-0.6,1.1-0.8,1.7c-0.5,0.9-0.9,1.9-1.4,2.8
			c-0.3,0.7-0.7,1.3-1,2c0,0.1-0.1,0.1,0.1,0.2c0.2,0.1,0.3,0.2,0.4,0.3c0,0,0.1,0,0.1,0.1c-0.5-0.2-1-0.5-1.4-0.7
			c-0.4-0.2-0.9-0.5-1.3-0.8c-1.1-0.7-2.1-1.4-3-2.3C181.7,275.2,179.8,272.7,178.3,269.7C178.4,269.7,178.3,269.7,178.3,269.7z"/>
		<path class="st6" d="M222.8,253.1c-0.1-0.1-0.2-0.3-0.4-0.4c-1.1-1.3-2.3-2.5-3.6-3.5c-1.1-0.7-2.2-1.3-3.5-1.6
			c-0.7-0.1-1.4-0.2-2-0.1c-0.1,0-0.2,0-0.2-0.1c-0.9-1.5-1.9-2.9-3.1-4.3c0,0,0,0,0-0.1c0,0,0,0,0.1,0c0.6-0.1,1.2-0.1,1.8-0.2
			c1-0.1,2.1-0.1,3.1-0.1c0.5,0,1.1,0,1.6,0c1,1,2,2.1,2.8,3.3c1.4,2,2.5,4.2,3.3,6.5C222.7,252.7,222.8,252.9,222.8,253.1z"/>
		<path class="st6" d="M215.8,241.9C215.7,242,215.7,241.9,215.8,241.9c-0.2-0.1-0.3-0.1-0.4-0.1c-0.5,0-1,0-1.4,0
			c-0.9,0-1.8,0.1-2.7,0.1c-0.6,0-1.3,0.1-1.9,0.2c-0.1,0-0.2,0-0.2-0.1c-0.9-1-1.9-2-2.9-2.9c-0.5-0.5-1-0.9-1.6-1.4
			c0,0-0.1,0-0.1-0.1c0.2-0.1,0.4-0.1,0.6-0.1c0.7-0.1,1.3-0.3,2-0.4c0,0,0.1,0,0.1-0.1c0.1,0,0.3,0.1,0.4,0.1
			c2.9,1,5.6,2.5,7.9,4.5C215.6,241.8,215.7,241.8,215.8,241.9z"/>
		<path class="st6" d="M204.9,236.4c-0.5,0.1-1,0.2-1.4,0.4c0,0-0.1,0-0.1,0c-0.3-0.2-0.6-0.5-0.9-0.7c0.4,0,0.8,0.1,1.2,0.2
			C204.1,236.3,204.5,236.4,204.9,236.4C204.9,236.4,204.9,236.4,204.9,236.4z"/>
		<path class="st6" d="M215.8,242C215.8,242,215.8,242,215.8,242C215.8,242,215.8,242,215.8,242z"/>
		<path class="st6" d="M222.8,253.1C222.8,253.1,222.8,253.1,222.8,253.1C222.8,253.1,222.8,253.1,222.8,253.1z"/>
		<path class="st6" d="M215.9,242C215.9,242,215.8,242,215.9,242C215.9,242,215.9,242,215.9,242z"/>
		<path class="st6" d="M202.5,236.1C202.5,236.1,202.5,236.1,202.5,236.1C202.5,236.1,202.5,236.1,202.5,236.1z"/>
		<polygon class="st7" points="179,248.6 179,248.6 179,248.6 		"/>
		<path class="st6" d="M179.7,247.1c0.1-0.3,0.3-0.5,0.5-0.7c1.8-2.7,4.1-4.9,6.9-6.7c1.7-1.1,3.4-1.9,5.3-2.5c1-0.3,2-0.6,3.1-0.8
			c0.4-0.1,0.8-0.1,1.2-0.2c0.3,0,0.6-0.1,0.9-0.1c0.3,0,0.5,0,0.8-0.1c0.2,0,0.4,0,0.7,0c0.7,0,1.4,0,2.1,0c0,0,0.1,0,0.1,0
			c-0.1,0-0.1,0-0.2,0c0,0-0.1,0-0.1,0c0,0,0,0,0.1,0.1c0.4,0.3,0.8,0.7,1.2,1c-0.3,0.1-0.6,0.2-0.9,0.2c-2.4,0.6-4.8,1.2-7.1,1.9
			c-0.8,0.2-1.5,0.5-2.3,0.7c-0.8,0.3-1.6,0.6-2.4,0.9c-0.5,0.2-1,0.4-1.5,0.6c-0.6,0.3-1.2,0.6-1.8,0.9c-0.6,0.3-1.2,0.7-1.7,1
			c-0.5,0.4-1,0.7-1.5,1.1c-0.3,0.2-0.6,0.5-0.9,0.7c-0.5,0.4-1,0.8-1.5,1.3C180.3,246.7,180,246.8,179.7,247.1
			C179.8,247,179.8,247.1,179.7,247.1z"/>
		<path class="st6" d="M179.1,248.2C179,248.2,179.1,248.2,179.1,248.2C179.1,248.2,179.1,248.2,179.1,248.2z"/>
		<path class="st6" d="M179.7,247.1C179.7,247.1,179.7,247.1,179.7,247.1C179.7,247.1,179.7,247.1,179.7,247.1z"/>
		<path class="st7" d="M223.1,254.9C223.1,254.9,223.2,254.9,223.1,254.9C223.1,255,223.1,254.9,223.1,254.9L223.1,254.9z"/>
	</g>
	<path class="st0" d="M132.4,57.9c0,0-6.1,0.5-5.8,6.9c0.3,6.4,0,23.1,0,23.1l-20.2,13.3l-12.5,6.8l1.3,9.4l1.9-0.8l-0.5-2.4
		l1.3,5.6l5.3,2.1l1.6-2.7l-4.5-3.2l6.6-3.4l-0.5,2.9l2.7-0.3l3.7-5.6l0.5-2.7l26.8-7.2L132.4,57.9z"/>
</g>
</svg>
