<?xml version="1.0" encoding="utf-8"?>
<!-- Generator: Adobe Illustrator 19.0.0, SVG Export Plug-In . SVG Version: 6.00 Build 0)  -->
<!DOCTYPE svg PUBLIC "-//W3C//DTD SVG 1.1//EN" "http://www.w3.org/Graphics/SVG/1.1/DTD/svg11.dtd">
<svg version="1.1" id="Layer_1" xmlns="http://www.w3.org/2000/svg" xmlns:xlink="http://www.w3.org/1999/xlink" x="0px" y="0px"
	 viewBox="0 0 322.9 245" style="enable-background:new 0 0 322.9 245;" xml:space="preserve">
<style type="text/css">
	.st0{fill:#232220;}
	.st1{fill:#F1AF7F;}
	.st2{fill:#F9BD91;}
	.st3{fill:#E4E1DE;}
</style>
<g>
	<rect x="-22.5" y="90.9" transform="matrix(0.868 -0.4965 0.4965 0.868 -25.5646 92.6274)" class="st0" width="368" height="7"/>
	<path class="st0" d="M224.2,29.9c0,0-17,1.2-20.2,21.5l2.8-2.8l-1.2,7.2l2.2-4c0,0-0.5,6,2.2,9.5l1.5-7.2c0,0,1.8,12.5-6,15.5
		c0,0,3.5,0.5,7.5-1.8l-2.8,7.2l8.8-1l5-22.2L224.2,29.9z"/>
	<polyline class="st1" points="203.6,111 203.3,110.5 187.4,90.1 192.3,86.5 204.8,100.9 	"/>
	<path class="st2" d="M231.1,103.9l-4.7,14.4l6.8,25.9l-28.8-11.5c0,0-3.8-24.2-1.1-37.1l11.7-4.9L231.1,103.9z"/>
	<path class="st2" d="M217.6,76.7c-1-0.7-4.5-2.7-4.5-2.7l1.1-4l7.1-2.3l3.7,4.3L217.6,76.7z"/>
	<polygon class="st1" points="218.2,169.2 207.4,183.8 210.1,205 205.9,227.5 199.3,227.1 194,180.4 204.4,132.7 214.4,135.4 	"/>
	<path class="st2" d="M216.1,36l-0.8,19.8c-0.1,2,1.4,3.6,3.4,3.7l0,0l0,10.6c0,0,3.4,5.1,13.5-2.4l0.7-16c0,0,3-0.5,3.1-3.9
		c0.1-3.4-3.3-1.9-3.3-1.9l0.4-9.3L216.1,36z"/>
	<path class="st2" d="M208,137.1l7.8,44l0.2,6.7l9.7,46.7h5.7l3.2-32.2l-3.6-22l2.3-36.1C233.2,144.2,228.2,130.5,208,137.1z"/>
	<polygon class="st1" points="193,89 194.4,80.5 193,76.9 189.8,75.8 189.3,78.6 191.1,80.1 191,80.9 184,85.4 187.4,90.1 	"/>
	<path class="st3" d="M225.6,234.7l-8.7,5.2l-4.7,1.1c0,0,2.3,3.6,5.1,4c2.8,0.4,15.3-4.2,15.3-4.2l-1.3-6.1
		C231.3,234.7,225.2,234.3,225.6,234.7z"/>
	<path class="st3" d="M199.8,226.2l-8.7,4.9l-4.7,1.1c0,0,2.3,3.6,5.1,4c2.8,0.4,15.3-4.2,15.3-4.2l-1.3-5.9
		C205.5,226.2,199.5,225.8,199.8,226.2z"/>
	<path d="M235.8,67c-0.6,0-3.4-2.8-3.4-2.8s-6.6,1.3-13.1,8.9l-6.2,0.9l3.8-4.7l-2.6,0.8l-12.6,11.2l1.6,14.4c0,0,9.8,0.2,15.1,3.8
		c5.3,3.6,12.7,4.5,12.7,4.5l6.9-8.1L235.8,67z"/>
	<path d="M233.2,144.3c0,0-13.5-11.9-24.5-2.9l-6-2.7l1-11.5c0,0,22.8,0.3,24.8-1L233.2,144.3z"/>
	<path class="st1" d="M231.5,121.9l-6.1-9.5l-1.1,1.1l1.3,3.4l-8.3-3.6l-5.7,1.7l0.8,1.5l4-0.8l3.6,1.3l-6.8,0.4l-3.4,1.7l3.6,6.8
		l5.9-0.2c0,0,6.4,4.5,8.9,3.8s6.8-2.5,6.8-2.5L231.5,121.9z"/>
	<path class="st2" d="M238,95.8c0,0-8.3-4-11.7-10.6c-3.4-6.6,0.8-14.2,2.6-15.7s4.7-3.5,9.5-2c7.4,2.2,25.2,38,24.1,38.5
		l-27.8,21.2l-3.4-4.8l17.5-20.5l-8.5-8.9L238,95.8z"/>
	<path class="st0" d="M223,36.9c0,0,7.4,0,9.7,9.1l0.2,5.8l-0.4,12.4l3.4,2.8c0,0,6.4,3.1,8.6,6.9c0,0-3.2-14.8-3.5-22.2
		c0,0,3.2-0.5,1.2-5.2s-1.8-19.2-18-16.5L223,36.9z"/>
	<path class="st0" d="M223,36.9c0,0-6.2-1.5-9,5.2l0.8-7.5l8.2,0.2V36.9z"/>
	<path class="st1" d="M189.5,74.4c0,0-1.8-4-6-1s-5.7,5.5-3.3,9.8c2.3,4.3,8.2-2.8,8.2-2.8s0.8-2-0.8-4.2L189.5,74.4z"/>
</g>
</svg>
