<?xml version="1.0" encoding="utf-8"?>
<!-- Generator: Adobe Illustrator 18.0.0, SVG Export Plug-In . SVG Version: 6.00 Build 0)  -->
<!DOCTYPE svg PUBLIC "-//W3C//DTD SVG 1.1//EN" "http://www.w3.org/Graphics/SVG/1.1/DTD/svg11.dtd">
<svg version="1.1" id="Layer_1" xmlns="http://www.w3.org/2000/svg" xmlns:xlink="http://www.w3.org/1999/xlink" x="0px" y="0px"
	 viewBox="0 0 279.5 67.9" enable-background="new 0 0 279.5 67.9" xml:space="preserve">
<g>
	<path fill="#D1D3D4" d="M5.9,53.9l56.4,12.7l196.3-7.8c0,0,20.6-3.3,20.9-10.6c0,0-12.7-15.9-34.2-14.6l-183.9,6L8.1,50.1L5.9,53.9
		z"/>
	<path fill="#808285" d="M5.9,53.9l8.5,1.9c0,0,3.2-4.2,0-7l-7,1.2C7.4,50.1,5,51.9,5.9,53.9z"/>
	<path fill="#FFFFFF" d="M15.8,52.3l263.7-4.1c0,0-10.7-12.8-28.7-14.7L61.4,39.7l-47,9.2C14.4,48.8,16.4,50.4,15.8,52.3z"/>
	<polygon fill="#2B3990" points="23.5,47.1 60.6,39.8 51.7,37.6 15.8,4.7 5.9,4.7 	"/>
	<polygon fill="#A7A9AC" points="120.8,61.3 138.8,60 144.5,53.3 118.1,33.6 124.8,33.6 177.7,50.1 153.6,52.3 172.2,57.7 
		175.6,62.1 	"/>
	<path fill="#FFFFFF" d="M199.7,49.5c0,0,5.5,8.5,0,18.4l-17.5-1.3c0,0,3-9.4,0-13.1L199.7,49.5z"/>
	<path fill="#6E6256" d="M182.1,66.6l-4.4-2.3l-0.4-8.3l4.9-2.5C182.1,53.5,185.9,60.1,182.1,66.6z"/>
	<path fill="#A7A9AC" d="M199.7,67.9l4.2-1.6c0,0,4.2-8.9,0-15.4l-4.2-1.4C199.7,49.5,204.7,58.3,199.7,67.9z"/>
	<path fill="#58595B" d="M177.3,56l-9.2,3.7l9.7,4.7C177.7,64.3,179,59.3,177.3,56z"/>
	<circle fill="#262262" cx="251.2" cy="42.3" r="1.2"/>
	<circle fill="#262262" cx="245.4" cy="42.5" r="1.2"/>
	<circle fill="#262262" cx="239.7" cy="42.7" r="1.2"/>
	<circle fill="#262262" cx="234" cy="43" r="1.2"/>
	<circle fill="#262262" cx="228.2" cy="43.2" r="1.2"/>
	<circle fill="#262262" cx="222.5" cy="43.4" r="1.2"/>
	<circle fill="#262262" cx="216.7" cy="43.6" r="1.2"/>
	<circle fill="#262262" cx="211" cy="43.8" r="1.2"/>
	<circle fill="#262262" cx="205.3" cy="44.1" r="1.2"/>
	<circle fill="#262262" cx="199.5" cy="44.3" r="1.2"/>
	<circle fill="#262262" cx="193.8" cy="44.5" r="1.2"/>
	<circle fill="#262262" cx="188.1" cy="44.7" r="1.2"/>
	<circle fill="#262262" cx="182.3" cy="44.9" r="1.2"/>
	<circle fill="#262262" cx="176.6" cy="45.2" r="1.2"/>
	<circle fill="#262262" cx="170.9" cy="45.4" r="1.2"/>
	<circle fill="#262262" cx="133.2" cy="46.9" r="1.2"/>
	<circle fill="#262262" cx="127.5" cy="47.1" r="1.2"/>
	<circle fill="#262262" cx="121.7" cy="47.4" r="1.2"/>
	<circle fill="#262262" cx="116" cy="47.6" r="1.2"/>
	<circle fill="#262262" cx="110.3" cy="47.8" r="1.2"/>
	<circle fill="#262262" cx="104.5" cy="48" r="1.2"/>
	<circle fill="#262262" cx="98.8" cy="48.2" r="1.2"/>
	<circle fill="#262262" cx="93.1" cy="48.5" r="1.2"/>
	<circle fill="#262262" cx="87.3" cy="48.7" r="1.2"/>
	<circle fill="#262262" cx="81.6" cy="48.9" r="1.2"/>
	<circle fill="#262262" cx="75.8" cy="49.1" r="1.2"/>
	<circle fill="#262262" cx="70.1" cy="49.3" r="1.2"/>
	<path fill="#262262" d="M269.9,40.2c0,0-6.2-0.9-5.6,1.8c0.6,2.7,8.9,0.6,8.9,0.6L269.9,40.2z"/>
	<polygon fill="#2B3990" points="18.6,35.2 36.2,23.4 15.8,4.7 5.9,4.7 	"/>
	<polyline fill="#BE1E2D" points="17.3,6 15.8,4.7 5.9,4.7 7.8,9.3 	"/>
</g>
</svg>
