<?xml version="1.0" encoding="utf-8"?>
<!-- Generator: Adobe Illustrator 18.0.0, SVG Export Plug-In . SVG Version: 6.00 Build 0)  -->
<!DOCTYPE svg PUBLIC "-//W3C//DTD SVG 1.1//EN" "http://www.w3.org/Graphics/SVG/1.1/DTD/svg11.dtd">
<svg version="1.1" id="Layer_1" xmlns="http://www.w3.org/2000/svg" xmlns:xlink="http://www.w3.org/1999/xlink" x="0px" y="0px"
	 viewBox="0 0 231.3 150.7" enable-background="new 0 0 231.3 150.7" xml:space="preserve">
<g>
	<path fill="#CDA494" d="M212.2,30.6c0,0-4.4-3.2-7.7-4.8c-3.3-1.6-6.8-9.5-9.6-7s-9.2-3-12.5-3.3c-3.3-0.4-10.9-0.5-10.9-0.5v6
		c0,0-2.6-1.6-2.2-3.2c0.4-1.6-5.3,0.7-5.7,0C163.2,17,150.5,30,150.5,30L212.2,30.6z"/>
	<path fill="#CDA494" d="M125.6,28.6c0,0-1.9-4.8-2.1-10.5s-3.7-7.7-3.7-7.7c-2.8,3-5.1,7.7-5.1,7.7s-0.2-7.5-0.7-10
		c-0.3-1.5-0.6-5.1-0.8-8.1l-0.1,0L95.5,5.3l1.1,11.2L93.2,6L48.3,19.6c-0.2,1.1-0.4,2.3,0,2.3c0.7,0,0.5,2.3,0.5,2.3
		s-2.1-2.3-3.7-2.1c-1.1,0.2,0-0.6,0.7-1.9l-30.4,9.1h119.2L125.6,28.6z"/>
	<rect x="22.7" y="60.1" fill="#B3825B" width="13.1" height="70.3"/>
	<rect x="19" y="53.7" fill="#DCAC81" width="20.2" height="6.4"/>
	<rect x="19" y="126.7" fill="#DCAC81" width="20.2" height="6.4"/>
	<rect x="46.2" y="60.1" fill="#B3825B" width="13.1" height="70.3"/>
	<rect x="42.7" y="53.7" fill="#DCAC81" width="20.2" height="6.4"/>
	<rect x="42.7" y="126.7" fill="#DCAC81" width="20.2" height="6.4"/>
	<rect x="70.5" y="60.1" fill="#B3825B" width="13.1" height="70.3"/>
	<rect x="66.8" y="53.7" fill="#DCAC81" width="20.2" height="6.4"/>
	<rect x="66.8" y="126.7" fill="#DCAC81" width="20.2" height="6.4"/>
	<rect x="95.1" y="60.1" fill="#B3825B" width="13.1" height="70.3"/>
	<rect x="91.4" y="53.7" fill="#DCAC81" width="20.2" height="6.4"/>
	<rect x="91.4" y="126.7" fill="#DCAC81" width="20.2" height="6.4"/>
	<rect x="121.4" y="60.1" fill="#B3825B" width="13.1" height="70.3"/>
	<rect x="117.7" y="53.7" fill="#DCAC81" width="20.2" height="6.4"/>
	<rect x="117.7" y="126.7" fill="#DCAC81" width="20.2" height="6.4"/>
	<rect x="149.3" y="60.1" fill="#B3825B" width="13.1" height="70.3"/>
	<rect x="145.6" y="53.7" fill="#DCAC81" width="20.2" height="6.4"/>
	<rect x="145.6" y="126.7" fill="#DCAC81" width="20.2" height="6.4"/>
	<rect x="173.9" y="60.1" fill="#B3825B" width="13.1" height="70.3"/>
	<rect x="170.2" y="53.7" fill="#DCAC81" width="20.2" height="6.4"/>
	<rect x="170.2" y="126.7" fill="#DCAC81" width="20.2" height="6.4"/>
	<rect x="196.4" y="60.1" fill="#B3825B" width="13.1" height="70.3"/>
	<rect x="192.7" y="53.7" fill="#DCAC81" width="20.2" height="6.4"/>
	<rect x="192.7" y="126.7" fill="#DCAC81" width="20.2" height="6.4"/>
	<rect x="18.4" y="32.7" fill="#7E5628" width="194.5" height="13.3"/>
	<rect x="14.3" y="131.8" fill="#C08A56" width="202.6" height="3.4"/>
	<rect x="8.3" y="134.2" fill="#BF9574" width="214.8" height="6.8"/>
	<rect x="0" y="140" fill="#C9AA96" width="231.3" height="10.7"/>
	<rect x="13" y="28.8" fill="#C49A79" width="205.3" height="5.7"/>
	<path fill="#BF9574" d="M210.7,54.4H20.6c-2.7,0-4.9-2.2-4.9-4.9v-0.3c0-2.7,2.2-4.9,4.9-4.9h190.1c2.7,0,4.9,2.2,4.9,4.9v0.3
		C215.6,52.2,213.4,54.4,210.7,54.4z"/>
	<rect x="24.2" y="62.1" opacity="0.1" width="1.9" height="63.6"/>
	<rect x="28.2" y="62.1" opacity="0.1" width="1.9" height="63.6"/>
	<rect x="32.1" y="62.1" opacity="0.1" width="1.9" height="63.6"/>
	<rect x="47.9" y="62.1" opacity="0.1" width="1.9" height="63.6"/>
	<rect x="51.9" y="62.1" opacity="0.1" width="1.9" height="63.6"/>
	<rect x="55.9" y="62.1" opacity="0.1" width="1.9" height="63.6"/>
	<rect x="72.2" y="62.1" opacity="0.1" width="1.9" height="63.6"/>
	<rect x="76.2" y="62.1" opacity="0.1" width="1.9" height="63.6"/>
	<rect x="80.2" y="62.1" opacity="0.1" width="1.9" height="63.6"/>
	<rect x="96.8" y="62.1" opacity="0.1" width="1.9" height="63.6"/>
	<rect x="100.7" y="62.1" opacity="0.1" width="1.9" height="63.6"/>
	<rect x="104.7" y="62.1" opacity="0.1" width="1.9" height="63.6"/>
	<rect x="122.9" y="62.1" opacity="0.1" width="1.9" height="63.6"/>
	<rect x="126.9" y="62.1" opacity="0.1" width="1.9" height="63.6"/>
	<rect x="130.9" y="62.1" opacity="0.1" width="1.9" height="63.6"/>
	<rect x="150.9" y="62.1" opacity="0.1" width="1.9" height="63.6"/>
	<rect x="154.8" y="62.1" opacity="0.1" width="1.9" height="63.6"/>
	<rect x="158.8" y="62.1" opacity="0.1" width="1.9" height="63.6"/>
	<rect x="175.5" y="62.1" opacity="0.1" width="1.9" height="63.6"/>
	<rect x="179.5" y="62.1" opacity="0.1" width="1.9" height="63.6"/>
	<rect x="183.5" y="62.1" opacity="0.1" width="1.9" height="63.6"/>
	<rect x="198" y="62.1" opacity="0.1" width="1.9" height="63.6"/>
	<rect x="201.9" y="62.1" opacity="0.1" width="1.9" height="63.6"/>
	<rect x="205.9" y="62.1" opacity="0.1" width="1.9" height="63.6"/>
	<rect x="20.4" y="36.4" opacity="0.1" width="5.3" height="6.1"/>
	<rect x="27.8" y="36.4" opacity="0.1" width="5.3" height="6.1"/>
	<rect x="35.2" y="36.4" opacity="0.1" width="5.3" height="6.1"/>
	<rect x="42.6" y="36.4" opacity="0.1" width="5.3" height="6.1"/>
	<rect x="50" y="36.4" opacity="0.1" width="5.3" height="6.1"/>
	<rect x="57.4" y="36.4" opacity="0.1" width="5.3" height="6.1"/>
	<rect x="64.8" y="36.4" opacity="0.1" width="5.3" height="6.1"/>
	<rect x="72.2" y="36.4" opacity="0.1" width="5.3" height="6.1"/>
	<rect x="79.6" y="36.4" opacity="0.1" width="5.3" height="6.1"/>
	<rect x="87" y="36.4" opacity="0.1" width="5.3" height="6.1"/>
	<rect x="94.4" y="36.4" opacity="0.1" width="5.3" height="6.1"/>
	<rect x="101.8" y="36.4" opacity="0.1" width="5.3" height="6.1"/>
	<rect x="109.2" y="36.4" opacity="0.1" width="5.3" height="6.1"/>
	<rect x="116.6" y="36.4" opacity="0.1" width="5.3" height="6.1"/>
	<rect x="124" y="36.4" opacity="0.1" width="5.3" height="6.1"/>
	<rect x="131.4" y="36.4" opacity="0.1" width="5.3" height="6.1"/>
	<rect x="138.8" y="36.4" opacity="0.1" width="5.3" height="6.1"/>
	<rect x="146.2" y="36.4" opacity="0.1" width="5.3" height="6.1"/>
	<rect x="153.6" y="36.4" opacity="0.1" width="5.3" height="6.1"/>
	<rect x="161" y="36.4" opacity="0.1" width="5.3" height="6.1"/>
	<rect x="168.4" y="36.4" opacity="0.1" width="5.3" height="6.1"/>
	<rect x="175.8" y="36.4" opacity="0.1" width="5.3" height="6.1"/>
	<rect x="183.2" y="36.4" opacity="0.1" width="5.3" height="6.1"/>
	<rect x="190.6" y="36.4" opacity="0.1" width="5.3" height="6.1"/>
	<rect x="198" y="36.4" opacity="0.1" width="5.3" height="6.1"/>
	<rect x="205.4" y="36.4" opacity="0.1" width="5.3" height="6.1"/>
	<path fill="#C49A79" d="M92.6,1.9L84,4.7c0.1,0.3,0.1,0.5,0.1,0.6c-0.2,0.4-0.2,3-0.2,3L83,5L48.1,16.4l1.4,4.4L94,6.3L92.6,1.9z"
		/>
	<g>
		<path fill="#5773C6" d="M83.2,25.8c-7.2,0-13,5.8-13,13s5.8,13,13,13c7.2,0,13-5.8,13-13S90.4,25.8,83.2,25.8z M83.2,49.7
			c-6,0-10.8-4.9-10.8-10.8c0-6,4.9-10.8,10.8-10.8s10.8,4.9,10.8,10.8C94.1,44.8,89.2,49.7,83.2,49.7z"/>
		<path fill="#EDD034" d="M100.1,37.6c-7.2,0-13,5.8-13,13s5.8,13,13,13c7.2,0,13-5.8,13-13S107.3,37.6,100.1,37.6z M100.1,61.5
			c-6,0-10.8-4.9-10.8-10.8c0-6,4.9-10.8,10.8-10.8c6,0,10.8,4.9,10.8,10.8C110.9,56.7,106.1,61.5,100.1,61.5z"/>
		<path fill="#7AC46F" d="M133.6,37.6c-7.2,0-13,5.8-13,13s5.8,13,13,13c7.2,0,13-5.8,13-13S140.8,37.6,133.6,37.6z M133.6,61.5
			c-6,0-10.8-4.9-10.8-10.8c0-6,4.9-10.8,10.8-10.8c6,0,10.8,4.9,10.8,10.8C144.4,56.7,139.6,61.5,133.6,61.5z"/>
		<path fill="#1D1733" d="M117.2,25.8c-7.2,0-13,5.8-13,13s5.8,13,13,13c7.2,0,13-5.8,13-13S124.4,25.8,117.2,25.8z M117.2,49.7
			c-6,0-10.8-4.9-10.8-10.8c0-6,4.9-10.8,10.8-10.8s10.8,4.9,10.8,10.8C128.1,44.8,123.2,49.7,117.2,49.7z"/>
		<path fill="#F21630" d="M150,25.8c-7.2,0-13,5.8-13,13s5.8,13,13,13s13-5.8,13-13S157.2,25.8,150,25.8z M150,49.7
			c-6,0-10.8-4.9-10.8-10.8c0-6,4.9-10.8,10.8-10.8s10.8,4.9,10.8,10.8C160.8,44.8,156,49.7,150,49.7z"/>
	</g>
</g>
</svg>
