<?xml version="1.0" encoding="utf-8"?>
<!-- Generator: Adobe Illustrator 18.0.0, SVG Export Plug-In . SVG Version: 6.00 Build 0)  -->
<!DOCTYPE svg PUBLIC "-//W3C//DTD SVG 1.1//EN" "http://www.w3.org/Graphics/SVG/1.1/DTD/svg11.dtd">
<svg version="1.1" id="Layer_1" xmlns="http://www.w3.org/2000/svg" xmlns:xlink="http://www.w3.org/1999/xlink" x="0px" y="0px"
	 viewBox="0 0 150.2 461.1" enable-background="new 0 0 150.2 461.1" xml:space="preserve">
<g>
	<path fill="#101010" d="M49.5,128.4c-1.7,5.5-3.2,17.7-4.1,26.3c0,0,28.3,12.2,59.4-0.8c-0.2-7.3-1.2-19.1-2.7-24.3
		C74.6,140.1,55.3,131.6,49.5,128.4z"/>
	<path fill="#899DC3" d="M102.2,129.6c-4.3-15.2-12.7-21.8-17-24.3l-6.7-0.5l-16.8,3.6c0,0-7.2,3.9-12.2,20
		C55.3,131.6,74.6,140.1,102.2,129.6z"/>
	<path fill="#F15A24" d="M52.5,37.6c0,0,3.3,11.2,11.5,16.8l-0.5-6.7L52.5,37.6z"/>
	<path fill="#F7931E" d="M59.7,44.7c0,0,5.5,36.7,6,49.6c0.5,12.9-6.2,15.7-6.2,15.7s9.2,10,31.9,0.8c0,0-7.7-6.4-6.5-18.3
		c1.1-11.9,4.2-46.3,4.2-46.3L59.7,44.7z"/>
	<circle fill="#FBB03B" cx="74.7" cy="28.6" r="24.1"/>
	<path fill="#F7931E" d="M65.2,36.6c0,0-1.5,0.6-1.1,1.9c0.3,1.4,1.4,3.2,2.1,3.1s2.7-0.8,3.7-0.3s2.3,1.1,2.7,0.8
		c0.5-0.3,0.7,2.2,2.9,0.6s3-2.5,2.3-3.4c-0.7-0.9-0.8-1.6-1.3-1.5c-0.5,0.1-1-0.8-1.1-1.3c-0.1-0.5-0.1-2.7-0.6-2.1
		c-0.5,0.7-0.2,1.9-1,2.3s-2.1-0.1-2.5-0.9c-0.5-0.8-0.6-1.6-1-1.5c-0.5,0.1-0.5,1.6-1.5,1.6c-1,0-1.1-0.2-1.7,0.2
		C66.3,36.6,65.2,36.6,65.2,36.6z"/>
	<path fill="#F7931E" d="M70.2,30.7c0,0-0.1,0.6,0.9,0.9s1.7,0.1,1.7,0.9c0,0.8,0.6,1.6,1,1.6c0.5,0,1.5-0.7,1.8-0.5
		c0.3,0.2,2.1,1.9,1.9,1.4c-0.1-0.6-0.7-1.5-1.3-1.8S76,32.9,76,32.4c0,0-0.2-0.2-1.5-0.9c-1.3-0.7-3.6-1.6-3.8-1.3"/>
	<path fill="#F7931E" d="M57.1,27.3c0,0,1.4,1.4,1.6,2.2c0.2,0.8,0.3,1.7,0.9,1.9c0.6,0.2,3.8,1,3.8,1s1.6,1.3,2.3,1.3
		s3.7-0.3,3.5-0.7c-0.1-0.3,0.5-1-0.9-0.5c-1.4,0.6-1.9,1.1-3,0.7c-1-0.5-2.4-1.3-4.2-1.8c-1.8-0.6-0.5,0-0.5,0s-0.9-0.9-0.3-1.3
		c0.6-0.3,0.2-1.4-0.2-1.5c-0.5-0.1-0.3-1.6-1.1-1.5C58.1,27.3,57.1,27.3,57.1,27.3z"/>
	<path fill="#F7931E" d="M61.9,28.1c0,0-0.2,1.3,0.6,1.7c0.8,0.5,1.7,0.7,2.1,0.3c0.3-0.3,0.5-2.3,0.5-2.6c0-0.3,0.3-1,0.3-1.4
		s-0.9-0.2-1.5,0.7C63.2,27.8,62.4,27.7,61.9,28.1z"/>
	<path fill="#F7931E" d="M66.6,21c0,0-1,0.5-0.8,1.5c0.2,1,0.7,2.2,0.6,2.6c-0.1,0.5,0.2,1.7,0.8,1.6c0.6-0.1,1.7-1.1,1.4-1.8
		C68.2,24.2,67,22.5,66.6,21z"/>
	<path fill="#F7931E" d="M53.1,20.3c0,0,0,3.8,0.6,4c0.6,0.2,0.1-2.2,1.4-3.5c1.3-1.4,2.6-2.5,3.3-0.5c0.7,2.1,1.1,3,2.3,3.7
		c1.1,0.7,0.8,1.3,0.8,1.3s1.4-0.7,1.6-1.9c0.2-1.3-1.8-2.6-1-3.1c0.8-0.5,1.4,0.1,2.1-0.5c0.7-0.6,2.3-0.7,3.1-1s1.1-1.7,0.6-1.8
		c-0.6-0.1-1-1.1-0.6-1.5c0.5-0.3-0.6-2.3,0.6-1.9c1.1,0.3,1.6,0.7,1.3,1.7c-0.3,1,1.3,0.8,1.4-0.1s0.5-1.8,1.4-1.9s2.1,0.7,2.6-0.1
		c0.6-0.8-0.5-1.4,0.5-2.1c0.9-0.7-1.3-1.7,0.1-1.8s2.2,0.8,2.6,0.5c0.5-0.3,1-0.8,1.6-0.9S80.4,8,81.3,8s2.2-0.3,1.7-0.7
		c-0.5-0.3-1.9-1.1-2.5-0.7c-0.6,0.5-0.2,0.2-1.4-0.2c-1.1-0.5-3.7-1.9-6.4-1.7s-12,2.1-19.1,12.1c0,0-1.6,3.2-1.3,4.2l1-1"/>
	<path fill="#F7931E" d="M51.7,22.4c0,0-2.1,9.8,5,19.9c0,0-1.8-1.4-3.4-4.4S48.8,27.4,51.7,22.4z"/>
	<path fill="#F7931E" d="M82.5,43.8c0,0-1.6,0.8-2.1,0.9c-0.5,0.1,0.1,0.3,0.8,0.5C81.9,45.3,83.1,43.9,82.5,43.8z"/>
	<path fill="#F7931E" d="M73.8,14.4c0,0-0.2,0.7-1,1c-0.8,0.3-2.2,0.1-2.4,1s0.6,0.9,1.4,0.2C72.5,16,75.3,14.4,73.8,14.4z"/>
	<path fill="#F7931E" d="M76.3,4.7c0,0,3.8,0.5,4.4,1s2.4,1.6,3.8,1.6s8.5,4.9,10.4,8.1C94.8,15.4,88.3,4.7,76.3,4.7z"/>
	<path fill="#F15A24" d="M98.3,25.2c0,0,2.8,8.4-8.4,21.3s-19.4,14-23.6,15.3c-4.1,1.4-4.1,2.9-4.1,4.8S62,73.5,65,75.4v-4.1
		c0,0,0.8-1.9,4-3.4c3.2-1.5,13.1-5,18-11.2s6-11.1,7.6-12.8c3.4-3.8,6.7-12.6,4.2-18.7"/>
	<path fill="#F15A24" d="M87.1,63.5l-0.3,3.2c0,0,1,2.7-2.9,6.6S65.7,83.6,63.6,86l0.9,7.2l2.5,2.2v-4.1c0,0,5.1-3.3,7.6-4.9
		c2.5-1.6,11.7-6.5,13.1-10.8C88,71.6,89.4,66.5,87.1,63.5z"/>
	<path fill="#F15A24" d="M85.7,83.1c0,0,0.9,6.4-3.8,9.4c-4.7,3-13.3,6.5-14.3,17.2c0,0,5.2-4.6,8.8-6.4c3.7-1.8,9-6.3,10-9.3
		C86.4,94,88.7,84.5,85.7,83.1z"/>
	<circle fill="#FBB03B" cx="75.3" cy="124.2" r="6.9"/>
	<circle fill="#F7931E" cx="75.3" cy="124.2" r="5.2"/>
	
		<ellipse transform="matrix(0.9139 -0.4059 0.4059 0.9139 -40.4575 49.0588)" fill="#FBB03B" cx="95.4" cy="119.9" rx="3.6" ry="6"/>
	
		<ellipse transform="matrix(0.9139 -0.4059 0.4059 0.9139 -40.4575 49.0588)" fill="#F7931E" cx="95.4" cy="119.9" rx="2.7" ry="4.5"/>
	
		<ellipse transform="matrix(-0.9139 -0.4059 0.4059 -0.9139 59.6634 252.4575)" fill="#FBB03B" cx="56.6" cy="119.9" rx="3.6" ry="6"/>
	
		<ellipse transform="matrix(-0.9139 -0.4059 0.4059 -0.9139 59.6634 252.4575)" fill="#F7931E" cx="56.6" cy="119.9" rx="2.7" ry="4.5"/>
	<path fill="#FBB03B" d="M90.8,149.3c-15.5,5-30.2,0-30.2,0s0-7.6,3.8-13.1c11.5,3.3,22.8,0,22.8,0S90.4,140.9,90.8,149.3z"/>
	<path fill-rule="evenodd" clip-rule="evenodd" fill="#F7931E" d="M83.1,140.8l-2.7,7.4h2.3l0.3-1h2.6l0.3,1h2.3l-2.7-7.5H83.1z
		 M83.4,145.7l0.9-3l0.9,3H83.4z M78.3,142.3h2.8l0.6-1.6h-5.7v7.4h2.3v-2.6H80l0.6-1.7h-2.3V142.3z M67.9,142.3h2.8l0.6-1.6h-5.7
		v7.4h2.3v-2.6h1.6l0.6-1.7h-2.3V142.3z M72.1,140.8v7.4h2.3v-7.4H72.1z"/>
</g>
<g>
	<rect x="0" y="442.5" fill="#BFB492" width="150.2" height="18.7"/>
	<rect x="12.7" y="429.7" fill="#BFB492" width="124.8" height="16.1"/>
	<path fill="#BFB492" d="M129,431.9H21.2v-12.3c0-3,2.4-5.4,5.4-5.4h97.1c3,0,5.4,2.4,5.4,5.4L129,431.9z"/>
	<rect x="36" y="186.7" fill="#BFB492" width="76.4" height="240.5"/>
	<path fill="#A8987D" d="M47.3,409.4h-3.1c-1.2,0-2.2-1-2.2-2.2v-206c0-1.2,1-2.2,2.2-2.2h3.1c1.2,0,2.2,1,2.2,2.2v206
		C49.6,408.4,48.6,409.4,47.3,409.4z"/>
	<path fill="#A8987D" d="M60.9,409.4h-3.1c-1.2,0-2.2-1-2.2-2.2v-206c0-1.2,1-2.2,2.2-2.2h3.1c1.2,0,2.2,1,2.2,2.2v206
		C63.2,408.4,62.2,409.4,60.9,409.4z"/>
	<path fill="#A8987D" d="M74.5,409.4h-3.1c-1.2,0-2.2-1-2.2-2.2v-206c0-1.2,1-2.2,2.2-2.2h3.1c1.2,0,2.2,1,2.2,2.2v206
		C76.8,408.4,75.7,409.4,74.5,409.4z"/>
	<path fill="#A8987D" d="M88.1,409.4h-3.1c-1.2,0-2.2-1-2.2-2.2v-206c0-1.2,1-2.2,2.2-2.2h3.1c1.2,0,2.2,1,2.2,2.2v206
		C90.3,408.4,89.3,409.4,88.1,409.4z"/>
	<path fill="#A8987D" d="M101.7,409.4h-3.1c-1.2,0-2.2-1-2.2-2.2v-206c0-1.2,1-2.2,2.2-2.2h3.1c1.2,0,2.2,1,2.2,2.2v206
		C103.9,408.4,102.9,409.4,101.7,409.4z"/>
	<rect x="20.7" y="424.6" fill="#A8987D" width="108.6" height="4.2"/>
	<rect x="35.7" y="411.2" fill="#A8987D" width="76.9" height="2.6"/>
	<rect x="35.7" y="187.1" fill="#A8987D" width="76.9" height="2.6"/>
	<rect x="12.8" y="438.6" fill="#A8987D" width="124.8" height="4.2"/>
	<rect x="10.8" y="152.4" fill="#BFB492" width="128.5" height="13.6"/>
	<rect x="16" y="163.6" fill="#BFB492" width="118.2" height="11.8"/>
	<path fill="#BFB492" d="M24.1,173.8h102.1v7.5c0,3-2.4,5.4-5.4,5.4H29.4c-3,0-5.4-2.4-5.4-5.4L24.1,173.8z"/>
	<rect x="23.7" y="176" fill="#A8987D" width="102.9" height="3.1"/>
	<rect x="15.9" y="165.7" fill="#A8987D" width="118.2" height="3.1"/>
</g>
<rect x="28.2" y="194.3" fill="#E6E6E6" width="96.2" height="6.2"/>
<polygon fill="#E6E6E6" points="76.3,199 120.9,199 98.6,262.3 76.3,325.8 54,262.4 31.6,199 "/>
<g>
	<defs>
		<polygon id="SVGID_1_" points="76.3,202 114.1,202 95.2,255.9 76.3,309.8 57.4,255.9 38.4,202 		"/>
	</defs>
	<clipPath id="SVGID_2_">
		<use xlink:href="#SVGID_1_"  overflow="visible"/>
	</clipPath>
	<g clip-path="url(#SVGID_2_)">
		<polygon fill="#FFFFFF" points="76.3,202 63,202 63,272.8 76,309.8 89,272.8 89,202 		"/>
		<polygon fill="#00A551" points="38.4,202 57.2,255.9 63,272.8 63,202 		"/>
		<polygon fill="#EC1C24" points="114.1,202 89,202 89,272.8 95.1,255.9 		"/>
	</g>
</g>
<polygon fill-rule="evenodd" clip-rule="evenodd" fill="#CCCCCC" points="32.4,200.8 120.4,200.5 119,204.2 33.6,203.9 "/>
<g>
	<path fill-rule="evenodd" clip-rule="evenodd" fill="#5F2C0C" d="M83.7,222.9c0.2-0.1,0.3-0.4,0.5-0.5c0.2,0.5,0.4,1.2,0,1.6
		c2.2,0.8,3.2,3.1,4,5.1c0.3,0.6,0.9,0.7,1.4,0.8c0,0.2,0,0.4-0.2,0.5c0.1,0.6,0.2,1.3-0.3,1.6c0.1,2.6,0.6,5.3-0.6,7.6h-0.2
		c-0.2-0.5,0.2-0.9-0.1-1.3c-0.3,0.1-0.1,0.8-0.6,0.7c-0.3-0.2-0.3-2.3-0.6-0.9c-0.3-0.5,0.1-1.5-0.6-1.7l-0.5-0.9
		c0,0.3-0.3,0.3-0.5,0.2l-0.5-0.6c0,0.3-0.3,0.3-0.6,0.2c-0.2-0.1-0.4-0.4-0.6-0.5c-0.2,0.4-0.6,0.2-0.8,0c-0.7-0.7-1.2-1.6-2.2-1.7
		c-0.1-0.1-0.2-0.3-0.3-0.3l0.2,1.5c2.1,1.6,3.7,4.4,6.3,4.7c0.2,0.1,0.1,0.3,0.1,0.4c-0.8,0.5-1.8,1-2.8,0.6
		c-0.5,0.4-1.2,0.3-1.8,0.7c0.3,0.3,0.4,0.7,0.6,1.2c0.4-0.5,0.8-1,1.4-1.3c0,0.1-0.1,0.2-0.1,0.3c0.3,0.1,0.9-0.8,0.9,0
		c0.1,0.1,0.1,0.3,0.2,0.3c0.8-0.1,0.6-1.1,1.4-1.2c0.3,0.1,0.8-0.1,1,0.2c0.4-0.1,0.6-0.7,1-0.6c-0.2,0.3-0.5,0.7-0.9,1
		c0.1,0.5,0.2,1.1-0.3,1.3c-0.3,0.1-0.5-0.1-0.7-0.1l-0.7,0.6c0.2,0.2,0.6,0,0.6,0.3c-0.4,0.7-1.6,0.5-1.5,1.3
		c-0.3,0.8-1.1,1.5-1.9,1.8c-0.2,0.2-0.4-0.4-0.6,0c0.2,0,0.4,0.2,0.5,0.4c0.1,0.6-0.2,1-0.5,1.4c0.5,0.3,0.5-0.6,0.9-0.3
		c0.2,0.4-0.5,0.6,0,0.8c0.3,0,0.6,0,0.8-0.2c0.1-0.6-1.2-1-0.4-1.5c0.2,0,0.4,0.2,0.4,0.4c-0.2,0.3,0,0.5,0.2,0.7
		c0.1-1.5,1.3-2.5,2.3-3.6l0.1-0.9c0.6,0.2,0.6,1,0.5,1.6c0.4-0.1,0.8-0.6,1-1c0.1-0.9-1.4-0.4-0.9-1.4c0.1-0.2,0.4-0.3,0.6-0.2
		c0.2,0.1,0.3,0.5,0.2,0.8c0.3,0.3,0.3,0.8,0.6,1c0.2-1.2-0.6-2.6,0.5-3.6c0.3-0.4,0.7-0.7,0.8-1.2c0.4,0,0.1,0.4,0.4,0.6
		c0.1-0.4,0.9-0.6,0.5-1.1c-0.4-0.5-1.9,0.2-1.3-0.9c0.1-0.1,0.4-0.3,0.6-0.1c0.1,0.1,0.2,0.3,0,0.5l0.6,0.2c-0.1-0.6-0.8-1.3-0.2-2
		c0.2-0.7-0.3-1.1-0.5-1.7c0.4,0,0.9,0,1,0.5c0.3-0.6,0.5-1.2,1-1.7c0.2,0.4-0.1,1.3,0.3,1.8l0.1,0.1c0.3-0.4,0.2-1,0-1.5
		c0.4,0.1,0.4,0.6,0.6,1c0.3,1.4-0.1,2.7-1.2,3.7c0.4,0.1,0.7-0.5,1.2-0.1c0.1,0.2-0.1,0.4-0.3,0.5c-0.2,0-0.4,0-0.5-0.1l-1,0.3
		c0,0.5-0.1,0.9-0.2,1.3c0.5,0.1,0.8-0.8,1.4-0.5c-1,1.4-1.1,3.3-2.9,4.2c0,0.1,0.2,0.3,0.3,0.4c0.2,0,0.5-0.4,0.7-0.1
		c0.2,0.1,0.1,0.5,0,0.6c-0.2,0.2-0.5,0.4-0.7,0.2c-0.3-0.2,0-0.8-0.5-0.9c-0.2-0.1-0.6,0-0.8-0.1c-0.2,0.2-0.1,0.6-0.1,0.9
		c0.2,0,0.3-0.3,0.5-0.3c0.2,0.6-0.1,1.4-0.4,2c-1,1.2-2.6,0.9-4,1.4c0.3,0.4,1.4,0.6,0.7,1.2c-0.2,0.2-0.5,0.1-0.6-0.2
		c-0.1-0.2,0-0.6-0.4-0.6l-0.5,0.8c0.3,0.4,1.2-0.3,0.9,0.5c-1.3,0.2-2.4,0.9-3.6,1.2c-0.9-0.3-1.7-0.8-2.4-1.6
		c-0.3,0-0.9,0.7-1.1,0.8c0,0,1.5,0.8,1.7,0.8c0,0-0.5,0.7-0.7,1.4c0,0.2-0.3,0.5-0.5,0.3c-0.5-0.5-1.1-1.2-1.8-1
		c-0.2,0.2-0.1,0.7-0.6,0.7c0-0.5-1.8-0.8-2.2-0.4c-0.3-0.5,0.5-0.5,0.6-0.9l1.2-1l-0.1-0.2c-0.7,0-0.8,1.5-1.5,0.8
		c-0.2,0.1-0.4,0-0.5-0.1c-0.2,0.2-0.3,0.6-0.6,0.6c-0.3,0.2-0.5-0.2-0.6-0.5c-0.4,0.2-0.8,0.4-1.2,0.3c-0.3-0.3,0-0.6,0-0.9
		c-0.6,0-0.8,1.2-1.3,0.5c-0.1-0.2,0.2-0.4,0-0.6c-0.2,0.3-0.7,0.4-1.1,0.3c-0.2-0.2-0.1-0.5-0.1-0.7c0.2-0.3,0.9-0.3,0.6-0.8
		c-0.1-0.2-0.3-0.1-0.5-0.1c-0.1,0.3-0.2,0.7-0.6,0.7c-0.5-0.4-1.3,0.3-1.4-0.6c-0.2,0-0.3-0.2-0.4-0.3v-0.4c-0.3,0-0.7,0.2-1,0.2
		c-0.2-0.4-0.7-0.4-0.8-0.7c0-0.3,0.3-0.3,0.4-0.5c-0.6-0.1-0.8-0.7-1.2-1.1c0-0.2,0.2-0.4,0.4-0.4h0.7c-0.1-0.2-0.5-0.5-0.7-0.8
		c-0.1,0.1-0.2,0.3-0.4,0.4c-0.3,0.1-0.6-0.1-0.7-0.3c-0.3,0.1-0.6,0-0.8-0.1c0.1-0.5,0.8-0.6,1.1-0.9c-0.6,0.2-1.4,0.1-1.8-0.3
		c-0.1-0.2,0.1-0.3,0.2-0.5c-0.4-0.2-0.9-0.1-1.1-0.5c0-0.3,0.2-0.3,0.4-0.5c-0.3-0.2-0.7-0.2-0.8-0.6c0-0.2,0-0.4,0.2-0.4
		c0.9,0.4,0.3-0.7,1-0.7c-0.1-0.3-0.4-0.5-0.6-0.7c-0.5,0.5-0.9-0.2-1.4,0c-0.3-0.3-0.4-0.8-0.3-1.2c0.2-0.1,0.4-0.2,0.6-0.1
		c0.4,0.3,0.5,0.4,1,0.3c0-0.8-1.4-0.6-1.3-1.5c0.1-0.1,0.2-0.2,0.4-0.2l0,0c0.3-0.4-0.6-1.4,0.4-1.5l0.2,0.3l0.1-0.8
		c0.3-0.2,0.3,0.4,0.7,0.1l0.6-0.7c0.4,0.2,0.2,0.8,0.1,1.1l-0.2,0.3c0.3,0.1,0.4,0.2,0.5,0.5c0,0.5-0.6,0.6-0.7,1
		c0.1,0,0.3,0,0.5,0l0.2,0.4c0.2-0.1,0.4-0.4,0.6-0.3c0.6,0.6,0.1,1.4,0,2c-0.3,0.3-0.8,0.2-1.1,0l-0.2-0.2
		c-0.6,0.6,0.3,1.1,0.5,1.6c0.2-0.1,0.1-0.3,0.3-0.3c0.4,0.2,0.1,0.8,0.5,1.2c0.2-0.3,0-1.2,0.7-0.9c0.4,0.5-0.2,1.1,0,1.6
		c0.2,0,0.3-0.3,0.5-0.2l0.2,0.3c0.2-0.2,0.6-0.7,1.1-0.5c0.3,0.2,0.2,0.8,0,1.1c-0.3,0.4,0.2,1.3-0.6,1.2c0,0.2,0,0.4,0,0.5
		c0.1-0.3,0.4-0.5,0.7-0.4c0.2,0.2,0.2,0.5,0.5,0.6c0-0.2,0.2-0.5,0.4-0.6c0.7,0,0.4,1.4,1.3,1.1c0.6,0.4-0.1,1.4,0.7,1.6l0.3-0.7
		c-0.3-0.3-0.8-0.7-0.6-1.2c0.3-0.3,0.8-0.3,1.2-0.4c-0.7-0.5-1.8-0.3-2.3-1.2c-0.2-0.5,0.1-1,0.2-1.3c1,0.6,1.9,1.7,3.2,1.9
		c0.3,0.1,0.7,0.7,1,0.2l0.2-0.2c-0.2-0.1-0.6-0.3-0.6-0.6v-0.4c-0.9,0.1-1.5-0.3-2.3-0.6v-0.1l0.4,0c-0.7-0.2-1-1.4-1.8-0.9
		c-0.4,0-0.6-0.4-0.9-0.1c-0.3-0.1-0.2-0.2-0.4-0.4c-0.4-0.1-0.8-0.2-1-0.6c-0.1-0.3,0.3-0.2,0.5-0.3c-0.1-0.7-1.2-0.8-0.8-1.6
		c0.1,0,0.2,0,0.2,0.1c0.4-0.4-0.2-0.7-0.3-1.1c-0.5,0.2-0.9-0.1-1.1-0.6c-0.4-0.7,0.4-0.8,0.8-1.3c-0.4-0.2-0.4-0.8-0.3-1.2l0.2,0
		c0.1,0.4,0,0.9,0.3,1.2c0.4-0.2,0.9-0.3,1.3-0.1c0.5,0.3,0,0.9,0.2,1.3c0.3,0.3,0,0.8,0.5,0.9c0.2-0.3-0.1-0.5,0-0.8
		c0.4,0,0.4,0.6,0.5,0.8l1.1,0.6c-1.1-0.8-0.6-2.5-1.8-3.3c-0.6-0.8,0.3-1.9-0.4-2.7c-0.1,0.2-0.3,0.1-0.4,0
		c-0.4-0.4-1.1-0.3-1.5-0.6c-0.2-0.2-0.4-0.3-0.6-0.6c-0.1-0.5,0.3-0.8,0.7-0.9c0.5,0.3,1.2-0.1,1.5,0.5c0.7,0,1.4,0.5,1.7,1.2
		c0.4,1.1-1,2.4,0.6,2.9c0.7,0.5,0.1,2.1,1.4,1.7c0.3-0.2,0-0.7,0.3-0.9c-0.7-0.1-1.3-0.6-1.7-1.3c-0.5-1.2-0.2-2.5,0.6-3.4l1.6-1.7
		c-0.4-0.8-1.6-0.4-2.2-0.5c-0.2-0.2-0.6,0.1-0.7-0.2c-0.2-0.3-0.4-0.7-0.2-1c0.1-0.3-0.3-0.6-0.5-1c-0.2-1.1,1.1-1.3,1.6-1.9
		c0.5-0.3,0.5,0.4,0.6,0.7c0,0.2,0,0.4,0,0.5c-0.4,0.1-0.2-0.4-0.4-0.6c-0.1,0.3-0.3,0.6-0.2,1c0.4,0.3,0.7-0.1,1.1-0.1
		c0,0.5-0.6,0.7-1,1c0.2,0.1,0.4,0.3,0.6,0.2c0.4-0.6,1-0.9,0.9-1.7c0.1-0.5,0.8-0.5,1-1c0-0.3,0.2-0.8,0-1.1c0.1-0.1,0.2,0,0.3,0
		c0.1,0.2,0.2,0.3,0.4,0.5c0.2-0.2,0-0.8,0.4-0.9l0.2,0.5c0.3-0.2-0.1-0.7,0.3-0.8c0.3,0.2,0.2,0.6,0.4,0.9c0.5-0.1-0.1-0.9,0.4-0.9
		c0.3,0.3,0.3,0.7,0.3,1.1c1,0,2.2-0.1,2.7,0.9c0.1,0,0.2,0,0.2,0.1c0.1-0.1,0-0.3-0.1-0.4c-0.5-1.2-2.5-0.9-2-2.4
		c1.2-1.3,3.6-0.9,5-0.3C80.7,222.5,82.1,223.5,83.7,222.9L83.7,222.9z M71.7,228.3c1.3,2.1-2.4,2.8-2.1,4.9c0.4,1.7,2.5,0,3.2,1.5
		c0.4,0.3-0.1,1.3,0.6,1.1c-0.1-0.2-0.3-0.4-0.1-0.6h0.6l-0.6-1.5c-0.1,0.1-0.4,0.3-0.5,0c-0.4-1.1-0.9-2.3-0.5-3.5
		c-0.7-0.7,0.6-0.9,0.6-1.5c-0.2-0.4,0.3-0.9,0.2-1.3C72.6,227.7,72.1,228.2,71.7,228.3L71.7,228.3z M76.8,237.8
		c0,0.4,0.5,0.9,0,1.3c-0.6-0.8-1.2,0-1.9,0.1c-0.4,0.1-0.9,0.3-1.3,0c0-0.3,0-0.5,0.2-0.7c-0.8,0.4-1.8-1.1-2.4-0.1l0.6,0.5
		c0.1,0.6,0,1.1-0.3,1.6l0.3,0c0.3,0.5,0.6-0.2,1,0l-0.1-0.1c0-0.2,0-0.4,0.2-0.6c0.6-0.1,1.2,0.2,1.7,0.4l0-0.3
		c0.3-0.1,0.4-0.1,0.7,0c0.1,1.1,1.3,0.1,1.7,0.9c0.5-0.5,1.3-0.2,1.7-0.6c-0.6-0.4-0.8-1.2-1.3-1.7l-0.2,0.4
		C77,238.5,77.1,238,76.8,237.8L76.8,237.8z M68.5,238.6l-0.3-0.2l0.2,0L68.5,238.6L68.5,238.6z M69,238.5l0.2,1H70v-0.1
		c-0.1-0.3,0-0.6,0.3-0.9L69,238.5L69,238.5z M72.5,243.5l-0.3,0.5c0.3,0.4,0.7,0.6,1.1,0.9c0.1-0.1,0-0.3,0.1-0.5
		c-0.2,0-0.4-0.1-0.5-0.2c-0.1-0.2,0.1-0.2,0.2-0.4C72.9,243.7,72.8,243.6,72.5,243.5L72.5,243.5z M64.1,243.6
		c-0.2,0.3,0.2,0.6,0.3,0.9C64.8,244.1,64,244,64.1,243.6L64.1,243.6z M76.8,244l-0.2,0.2c0.1,0.1,0.2,0.2,0.2,0.4L76.8,244
		L76.8,244z M70.1,246.5c-0.7,0.1,0,0.9-0.4,1.3c0.2,0.1,0,0.8,0.5,0.5c0.5,0,0.8,0.5,1,0.9l-0.1-0.3c0.1-0.2,0.3-0.4,0.6-0.4
		c0.1,0,0.3,0.2,0.3,0.3v-0.1c0.1-0.3,0.5-0.4,0.8-0.4c0.3,0.1,0.3,0.4,0.4,0.6c0.4,0.5,0.8,0.2,1.4,0.3c0.3-0.1,0.6,0.4,0.8,0
		c-0.6-0.7-1.6-0.5-1.8-1.4c-0.4,0-1.2-0.2-1.3,0.3c-0.3,0.4-0.8,0.3-1.2,0.3c-0.2-0.2-0.6-0.5-0.4-0.9c0.2-0.5,0.7-0.8,1.3-0.7
		l0-0.4C71.5,245.9,70.1,245.5,70.1,246.5L70.1,246.5z M81.5,247.2c-0.5,0.1-0.9,0.2-1.2,0.7c-0.3,0.3-0.7,0.4-1.1,0.2
		c-0.3,0.3-0.9,0.4-0.9,0.9c1.4,1.2,2.2-1.1,3.5-1.2C81.5,247.7,81.6,247.4,81.5,247.2L81.5,247.2z"/>
	<path fill-rule="evenodd" clip-rule="evenodd" fill="#B1764D" d="M75.3,222.6c0.2,0.6,0.8,0,1.2,0.5l-0.7,0.3
		c-0.3-0.2-0.8-0.3-0.9-0.7c0.1-0.6,0.7-0.8,1.2-0.9L75.3,222.6L75.3,222.6z"/>
	<path fill-rule="evenodd" clip-rule="evenodd" fill="#B1764D" d="M79.1,222.3c-0.1,0.3,0.1,0.6,0.3,0.9c-1,0.1-1.8-0.4-2.4-1
		c-0.3,0.3,0.3,0.7,0.4,0.9c-0.5-0.1-0.9-0.6-1.4-0.7C76.7,221.1,78.1,222.1,79.1,222.3L79.1,222.3z"/>
	<path fill-rule="evenodd" clip-rule="evenodd" fill="#B1764D" d="M83.9,223.2c0.1,0.4-0.3,0.8-0.6,0.9c-1.2,0.3-2.2-0.5-3.2-0.8
		c-0.3-0.2-0.5-0.5-0.6-0.8C80.8,223,82.4,224.3,83.9,223.2L83.9,223.2z"/>
	<path fill-rule="evenodd" clip-rule="evenodd" fill="#B1764D" d="M79,224.9c0-0.2-0.2-0.2-0.4-0.3l-0.2,0.2l0.6,1.5
		c-0.1,0-0.4-0.5-0.6-0.2c0,0.5,0.4,1,0.3,1.6c-0.3-0.1-0.2-0.7-0.7-0.6c-0.2,0.2,0,0.7,0,1l-0.5-1c0.2,0.1,0.3-0.1,0.5-0.2
		c-0.2-0.2,0.4-0.4,0.3-0.7c0.1-0.7-0.4-1-0.3-1.7c-0.3-0.3,0.2-0.8-0.2-1c0.1-0.1,0.4-0.1,0.5,0C78.6,223.9,78.8,224.4,79,224.9
		L79,224.9z"/>
	<path fill-rule="evenodd" clip-rule="evenodd" fill="#B1764D" d="M77.5,223.8c0.1,0.3-0.3,0.4-0.5,0.3c-0.4,0.1-0.6-0.2-0.9-0.5
		C76.5,223.6,77.1,223.4,77.5,223.8L77.5,223.8z"/>
	<path fill-rule="evenodd" clip-rule="evenodd" fill="#A26345" d="M80.8,225.1l0.2,0.8c-0.4-1.1-1.9-1.2-2-2.2
		C79.9,223.8,80.3,224.4,80.8,225.1L80.8,225.1z"/>
	<path fill-rule="evenodd" clip-rule="evenodd" fill="#B1764D" d="M72.6,224.5c0.3,0,0.4-0.3,0.6-0.5c0,0.2,0.1,0.6,0.3,0.9h0.2
		l0-0.5c0.7,0,1.5-0.1,2,0.4c-0.4,0.1-1-0.3-1.3,0.1c0.3,0.6,1.2,0.2,1.6,0.9c-0.4,0.2-1-0.5-1.5-0.2c0.2,0.5,0.9,0.5,1.3,0.9
		c-0.5,0.2-1.3,0-1.8-0.4c0.3-0.3,0.4-0.6,0.4-1c-0.5-0.3-0.2,0.4-0.5,0.6c-0.2,0.2-0.5,0.1-0.7,0.1c0.1-0.3,0-0.7-0.2-0.9h-0.1
		c-0.2,0.2,0.2,0.5-0.1,0.7c-0.3,0.4-0.9-0.2-1.1,0.3h-0.1c-0.1-0.1,0.1-0.2,0.2-0.3c0.2,0,0.3,0,0.4-0.2c0-0.3-0.4-0.4-0.6-0.5H71
		l0.2-0.6c0.2,0.2,0.1,0.6,0.5,0.6l0.2-0.6c0,0.1,0,0.2,0.1,0.3c0.3,0.1,0.3-0.3,0.4-0.5C72.6,224.2,72.4,224.5,72.6,224.5
		L72.6,224.5z"/>
	<path fill-rule="evenodd" clip-rule="evenodd" fill="#A26345" d="M87.2,228.1c0.4,0.8,0.7,1.6,1.4,2.1c-2.1-0.7-2.3-3.1-3.5-4.6
		c-0.1,0-0.2-0.2-0.3-0.1l0.9,1.7c-0.3,0.4,0.4,0.7,0,1.2c-0.2,0.1-0.5,0-0.5-0.2c0-0.3,0.4-0.1,0.4-0.4c-0.1-1.3-1.2-2.2-2.3-3
		c0.3-0.4,1-0.2,1.5,0.1C86,225.6,86.9,226.8,87.2,228.1L87.2,228.1z"/>
	<path fill-rule="evenodd" clip-rule="evenodd" fill="#B1764D" d="M77.6,224.8v0.2c-0.2-0.2-0.9,0.2-0.8-0.4
		C77.1,224.7,77.7,224.2,77.6,224.8L77.6,224.8z"/>
	<path fill-rule="evenodd" clip-rule="evenodd" fill="#A26345" d="M80.6,226.2l-0.9-1C80.2,225.3,80.5,225.8,80.6,226.2L80.6,226.2z
		"/>
	<path fill-rule="evenodd" clip-rule="evenodd" fill="#B1764D" d="M77.1,226.3l-0.1,0.8c-0.1-0.5-0.7-1.5-1.1-1.9
		C76.5,225.2,77.1,226.2,77.1,226.3L77.1,226.3z"/>
	<path fill-rule="evenodd" clip-rule="evenodd" fill="#EC1C24" d="M70,226.4c-0.1-0.5,0.2-0.8,0.5-1l0.5,0
		C70.7,225.7,70.9,226.7,70,226.4L70,226.4z"/>
	<path fill-rule="evenodd" clip-rule="evenodd" fill="#29B473" d="M67.9,226.7c0.2,0,0.3,0,0.5,0c0,0.1-0.6,0.2-0.5,0.6
		c0.2,0.3,0.6,0.1,0.9,0.3l0.1,0.8c-0.4,0.1-0.9,0-1.3-0.1c-0.2-0.3-0.1-0.6,0-0.9c-0.2-0.4-0.8-0.9-0.5-1.4l0.9-0.6
		C68,225.8,67.7,226.3,67.9,226.7L67.9,226.7z"/>
	<path fill-rule="evenodd" clip-rule="evenodd" fill="#B1764D" d="M77.9,225.9l0,0.4c-0.4,0-0.6-0.5-0.7-0.9
		C77.4,225.5,77.8,225.5,77.9,225.9L77.9,225.9z"/>
	<path fill-rule="evenodd" clip-rule="evenodd" fill="#A26345" d="M80.3,226.9l-0.1,0.5c-0.3-0.6-0.9-1.2-1-1.9
		C79.7,225.5,80.4,226.3,80.3,226.9L80.3,226.9z"/>
	<path fill-rule="evenodd" clip-rule="evenodd" fill="#A26345" d="M84.8,228c0,0.3,0.2,0.7,0,1c-0.8,0.3-1.5-0.9-2.1-1.5
		c0.5,0.4,1,0.7,1.6,1.1c0.4-0.2,0-0.6,0-0.9l-1.4-2C83.6,226.3,84.3,227.1,84.8,228L84.8,228z"/>
	<path fill-rule="evenodd" clip-rule="evenodd" fill="#B1764D" d="M76.7,227.1l-0.2,0.3c-0.3,0-0.3-0.3-0.4-0.4
		c0.2,0,0.4-0.3,0.5-0.4c0.1-0.5-0.4,0.1-0.5-0.4l0.2-0.2C76.5,226.4,76.8,226.8,76.7,227.1L76.7,227.1z"/>
	<path fill-rule="evenodd" clip-rule="evenodd" fill="#B1764D" d="M73.9,226.7c-0.5,0.4,0.3,1.8-0.7,1.4c0-0.1,0.6-1.2-0.7-1.9
		C73.5,226.2,73.6,226.1,73.9,226.7L73.9,226.7z"/>
	<path fill-rule="evenodd" clip-rule="evenodd" fill="#B1764D" d="M72.8,226.9c-0.2,0.4-0.6,0.7-1,0.8c0-0.3,0.2-0.7,0.1-1
		c-0.9,0.2-1.8,0.5-2.3,1.3l0.1,0.5c-0.2,0-0.4-0.2-0.5-0.4c0.2-0.5,0.5-1,1-1.2c0.3-0.2,1.1,0.1,1-0.5
		C71.9,226.3,72.4,226.5,72.8,226.9L72.8,226.9z"/>
	<path fill-rule="evenodd" clip-rule="evenodd" fill="#A26345" d="M81.2,227.1c-0.1-0.2-0.4-0.5,0-0.7
		C81.4,226.6,80.8,226.9,81.2,227.1L81.2,227.1z"/>
	<path fill-rule="evenodd" clip-rule="evenodd" fill="#B1764D" d="M74.6,227.2l-0.4,1.2c0.3-0.5-0.6-1.5,0.3-1.4L74.6,227.2
		L74.6,227.2z"/>
	<path fill-rule="evenodd" clip-rule="evenodd" fill="#B1764D" d="M75.4,227.1c0.1,0.3,0,0.6-0.1,0.8l-0.2-0.8H75.4L75.4,227.1z"/>
	<path fill-rule="evenodd" clip-rule="evenodd" fill="#A26345" d="M80.8,228.5l-0.2,0.3c-0.5-0.5,0-1.1,0.1-1.7
		C80.9,227.4,81,228,80.8,228.5L80.8,228.5z"/>
	<path fill-rule="evenodd" clip-rule="evenodd" fill="#A26345" d="M79.6,227.7c0.2,0.4,0.2,0.8,0.2,1.3l-0.6-1.7
		C79.4,227,79.9,227.3,79.6,227.7L79.6,227.7z"/>
	<path fill-rule="evenodd" clip-rule="evenodd" fill="#B1764D" d="M76.2,229.8c-0.4-0.6-0.6-1.4-0.4-2.3
		C76.6,227.9,76.1,229.1,76.2,229.8L76.2,229.8z"/>
	<path fill-rule="evenodd" clip-rule="evenodd" fill="#29B473" d="M71.5,228.6c0.2,2-2.9,2.6-2.4,4.7c0.4,0.6,0.1,1.5,0.9,1.9
		c-0.6,0-1.4-0.2-1.7-0.9c-0.4-0.5-0.3-1.3-0.3-1.9c0.4-1.3,1.9-1.9,2.5-3c-0.1-0.4-0.3-0.9-0.6-1.2c-0.1-0.2,0-0.5,0.3-0.5
		C70.9,227.8,71.3,228.3,71.5,228.6L71.5,228.6z"/>
	<polygon fill-rule="evenodd" clip-rule="evenodd" fill="#A26345" points="77.2,228.2 77,227.8 77.2,228.1 77.2,228.2 	"/>
	<path fill-rule="evenodd" clip-rule="evenodd" fill="#B1764D" d="M75.3,228.3c0,0.5,0.3,1.1-0.3,1.4l-0.2,0.2c0-0.5,0.2-0.9,0-1.3
		c-0.4,0.2-0.4,0.7-0.5,1.1c-0.5-0.7,0.6-1,0.4-1.7C75,228.1,75,228.5,75.3,228.3L75.3,228.3z"/>
	<path fill-rule="evenodd" clip-rule="evenodd" fill="#A26345" d="M79.4,230l-0.5-1.7l0.3-0.2C79.3,228.7,79.8,229.4,79.4,230
		L79.4,230z"/>
	<path fill-rule="evenodd" clip-rule="evenodd" fill="#A26345" d="M77.7,230.8c-0.2-0.9-1.2-1.5-1.1-2.6
		C77.3,228.9,77.7,229.9,77.7,230.8L77.7,230.8z"/>
	<path fill-rule="evenodd" clip-rule="evenodd" fill="#B1764D" d="M73.5,229.7h-0.1l0.4-1.3C73.8,228.7,74.2,229.5,73.5,229.7
		L73.5,229.7z"/>
	<path fill-rule="evenodd" clip-rule="evenodd" fill="#B1764D" d="M88.6,231.8c-1.5-0.4-1.7-2.2-2.3-3.4
		C87.2,229.5,87.7,230.8,88.6,231.8L88.6,231.8z"/>
	<path fill-rule="evenodd" clip-rule="evenodd" fill="#B1764D" d="M72.9,229.9c-0.1,0-0.2-0.1-0.4-0.1l0.8-1
		C73.2,229.1,73.1,229.6,72.9,229.9L72.9,229.9z"/>
	<polygon fill-rule="evenodd" clip-rule="evenodd" fill="#A26345" points="78.7,230.9 78.6,228.9 79,230.1 78.7,230.9 	"/>
	<path fill-rule="evenodd" clip-rule="evenodd" fill="#B1764D" d="M85.9,228.9c0.4,1.1,1,2.1,1.7,3.1l-0.2,0.2c-1-0.8-1.4-2-1.8-3.1
		C85.6,228.9,85.8,228.9,85.9,228.9L85.9,228.9z"/>
	<path fill-rule="evenodd" clip-rule="evenodd" fill="#A26345" d="M84.1,229.6c-0.3,0.2-0.7-0.2-1-0.3c0.3-0.5,0.6-0.1,1,0.1V229.6
		L84.1,229.6z"/>
	<path fill-rule="evenodd" clip-rule="evenodd" fill="#A26345" d="M83.2,230.2c-0.2,0.5-0.6,0-0.8,0l-0.3-0.4
		c0.2-0.1,0.3-0.4,0.2-0.6C82.6,229.5,83.3,229.7,83.2,230.2L83.2,230.2z"/>
	<path fill-rule="evenodd" clip-rule="evenodd" fill="#A26345" d="M80.2,229.7c-0.1,0.2-0.1,0.4-0.4,0.5c-0.1-0.3,0.5-0.6,0.4-0.9
		C80.4,229.4,80.1,229.6,80.2,229.7L80.2,229.7z"/>
	<path fill-rule="evenodd" clip-rule="evenodd" fill="#B1764D" d="M86.9,232.3c-0.7-0.5-1.5-1.6-1.8-2.6l0.1-0.3
		C85.7,230.4,86.1,231.5,86.9,232.3L86.9,232.3z"/>
	<path fill-rule="evenodd" clip-rule="evenodd" fill="#A26345" d="M77.1,231.5c-0.2-0.6-0.6-1.1-0.5-1.8
		C77,230.2,77.2,230.8,77.1,231.5L77.1,231.5z"/>
	<path fill-rule="evenodd" clip-rule="evenodd" fill="#A26345" d="M76.3,231.6c-0.3-0.6-0.7-1.2-0.7-1.8
		C76.1,230.2,76.3,230.9,76.3,231.6L76.3,231.6z"/>
	<path fill-rule="evenodd" clip-rule="evenodd" fill="#B1764D" d="M86.2,232.3c-1-0.3-1.3-1.3-1.7-2.1l0.2-0.3
		C84.9,230.8,85.5,231.6,86.2,232.3L86.2,232.3z"/>
	<path fill-rule="evenodd" clip-rule="evenodd" fill="#B1764D" d="M75.4,232.4c-0.5,0-0.6-0.5-0.7-0.8l-0.1-0.6l0.4,0.2
		c0.4-0.3-0.1-0.7,0.2-1.1C75.5,230.8,75.3,231.7,75.4,232.4L75.4,232.4z"/>
	<path fill-rule="evenodd" clip-rule="evenodd" fill="#B1764D" d="M83.9,230.3c0.4,0.7,0.7,1.4,1.3,2.1c-0.9,0.1-1.2-1-1.6-1.6
		l0.2-0.6L83.9,230.3L83.9,230.3z"/>
	<path fill-rule="evenodd" clip-rule="evenodd" fill="#A26345" d="M82.3,230.6c0,0.2-0.1,0.3-0.2,0.4c-0.2,0-0.4-0.2-0.5-0.4
		l0.3-0.3C82,230.3,82.2,230.5,82.3,230.6L82.3,230.6z"/>
	<path fill-rule="evenodd" clip-rule="evenodd" fill="#B1764D" d="M89,230.7c0,0.3-0.1,0.4-0.1,0.7c-0.4-0.1-0.6-0.6-0.9-0.9
		L89,230.7L89,230.7z"/>
	<path fill-rule="evenodd" clip-rule="evenodd" fill="#B1764D" d="M64.3,230.7c-0.1,0.2-0.4,0.3-0.4,0.6
		C63.7,230.9,64.1,230.7,64.3,230.7L64.3,230.7z"/>
	<path fill-rule="evenodd" clip-rule="evenodd" fill="#B1764D" d="M74.2,233.3c-0.4-0.6-0.6-1.3-0.7-2c0.1,0.1,0.2,0.1,0.3,0.1
		c0.4-0.2-0.1-0.5,0.2-0.7C74,231.5,73.9,232.5,74.2,233.3L74.2,233.3z"/>
	<path fill-rule="evenodd" clip-rule="evenodd" fill="#A26345" d="M81.3,231l-0.1,0.3c-0.2,0-0.4-0.2-0.5-0.3l0.2-0.3
		C81,230.8,81.1,230.9,81.3,231L81.3,231z"/>
	<path fill-rule="evenodd" clip-rule="evenodd" fill="#A26345" d="M81.7,232.9c-1-0.2-1.6-1.3-1.8-2.1
		C80.7,231.4,80.8,232.3,81.7,232.9L81.7,232.9z"/>
	<path fill-rule="evenodd" clip-rule="evenodd" fill="#B1764D" d="M65.2,230.9c-0.1,0.2-0.5,0.5-0.3,0.9c-0.2,0-0.4-0.2-0.5-0.4
		C64.4,231,64.9,230.8,65.2,230.9L65.2,230.9z"/>
	<path fill-rule="evenodd" clip-rule="evenodd" fill="#B1764D" d="M83.8,232.3c-0.4-0.2-0.9-0.8-1-1.3
		C83.5,231,83.4,231.9,83.8,232.3L83.8,232.3z"/>
	<path fill-rule="evenodd" clip-rule="evenodd" fill="#B1764D" d="M72.9,233.2c-0.3-0.6-0.5-1.3-0.5-2c0,0.1,0.1,0.3,0.3,0.3
		l0.4-0.4C73.2,231.7,73.4,232.7,72.9,233.2L72.9,233.2z"/>
	<path fill-rule="evenodd" clip-rule="evenodd" fill="#B1764D" d="M65.6,231.9c-0.2,0.1-0.4-0.3-0.3-0.5c0.2-0.1,0.3-0.2,0.5-0.2
		L65.6,231.9L65.6,231.9z"/>
	<path fill-rule="evenodd" clip-rule="evenodd" fill="#29B473" d="M67,232.2c0.3,0.8-0.5,1.4-0.2,2.3c1.5,0.5,0.8,2.4,2.3,2.8
		l0.2,0.7c-0.3,0-0.6-0.1-0.9,0c-1.1-0.8-0.4-2.4-1.7-3.1c-0.5-1,0.3-2.4-0.7-3.2l0-0.4C66.4,231.5,66.8,231.8,67,232.2L67,232.2z"
		/>
	<path fill-rule="evenodd" clip-rule="evenodd" fill="#B1764D" d="M83.1,232.3l0.3,0.3c-0.3,0-0.7-0.2-1-0.5
		c-0.1-0.2-0.3-0.4-0.3-0.6C82.7,231.2,82.6,232.1,83.1,232.3L83.1,232.3z"/>
	<path fill-rule="evenodd" clip-rule="evenodd" fill="#A26345" d="M76.7,232.2l0.5,0.9c-0.3-0.4-0.6-1.3-1.2-1.2l-0.1-0.5
		C76,231.9,76.3,232.1,76.7,232.2L76.7,232.2z"/>
	<path fill-rule="evenodd" clip-rule="evenodd" fill="#B1764D" d="M82.4,232.7c-0.5-0.1-0.8-0.4-1.1-0.7l0.4-0.4
		C81.8,232,82.1,232.4,82.4,232.7L82.4,232.7z"/>
	<path fill-rule="evenodd" clip-rule="evenodd" fill="#A26345" d="M78,233.8c-0.3-0.5-0.8-1-0.9-1.6L78,233.8L78,233.8z"/>
	<path fill-rule="evenodd" clip-rule="evenodd" fill="#85503B" d="M88,232.2c0.2,1.5,0.3,3.7,0.2,5.2c0-1.5-0.3-3.5-0.4-5
		C87.9,232.3,88,232.2,88,232.2L88,232.2z"/>
	<polygon fill-rule="evenodd" clip-rule="evenodd" fill="#85503B" points="88.7,232 88.7,232.3 88.6,238.1 88.3,232.4 88.7,232 	"/>
	<path fill-rule="evenodd" clip-rule="evenodd" fill="#A26345" d="M80,233.1l0.2,1l-1.1-1.7C79.5,232.6,79.6,233.4,80,233.1
		L80,233.1z"/>
	<path fill-rule="evenodd" clip-rule="evenodd" fill="#85503B" d="M86.3,232.8c0.1,1,0.2,2,0.2,3c-0.4-1-0.7-2-0.9-3.1
		C85.8,232.7,86.1,232.9,86.3,232.8L86.3,232.8z"/>
	<path fill-rule="evenodd" clip-rule="evenodd" fill="#85503B" d="M85.5,235.1c-0.5-0.4-0.7-1.5-1-2.3
		C85.7,232.7,85.1,234.3,85.5,235.1L85.5,235.1z"/>
	<path fill-rule="evenodd" clip-rule="evenodd" fill="#85503B" d="M87.1,236.4v0.2l-0.2-3.6c0.1,0,0.5-0.3,0.4,0
		C87.5,234.1,87.2,235.2,87.1,236.4L87.1,236.4z"/>
	<path fill-rule="evenodd" clip-rule="evenodd" fill="#A26345" d="M76.2,233.5c0,0-0.4-0.4-0.3-0.6L76.2,233.5L76.2,233.5z"/>
	<path fill-rule="evenodd" clip-rule="evenodd" fill="#85503B" d="M84.4,234.9c-0.6-0.5-0.8-1.1-1.1-1.7c0.2,0,0.3-0.5,0.6-0.3
		C84.2,233.5,84.2,234.3,84.4,234.9L84.4,234.9z"/>
	<path fill-rule="evenodd" clip-rule="evenodd" fill="#A26345" d="M80.1,234.7l-1.1-1.5l0.1-0.1C79.5,233.5,79.7,234.2,80.1,234.7
		L80.1,234.7z"/>
	<path fill-rule="evenodd" clip-rule="evenodd" fill="#85503B" d="M82.2,233.2c0,0,0.4,0.1,0.5-0.1l0.5,1.3L82.2,233.2L82.2,233.2z"
		/>
	<path fill-rule="evenodd" clip-rule="evenodd" fill="#B1764D" d="M75.1,234.2l1.5,2.1c-0.9-0.6-1.4-1.5-2-2.4l0.1-0.5
		C75.1,233.6,74.9,234,75.1,234.2L75.1,234.2z"/>
	<path fill-rule="evenodd" clip-rule="evenodd" fill="#A26345" d="M76.7,235.7c-0.4-0.4-0.8-1.2-1.2-1.9l0.2-0.3
		C76.3,234.2,76.5,234.9,76.7,235.7L76.7,235.7z"/>
	<path fill-rule="evenodd" clip-rule="evenodd" fill="#85503B" d="M78.3,234.9l-0.1,0.4l-0.7-1.4C77.6,234,78.3,234.6,78.3,234.9
		L78.3,234.9z"/>
	<path fill-rule="evenodd" clip-rule="evenodd" fill="#B1764D" d="M72.5,235.4c-0.6-1-2,0.1-2.5-1C70.7,235,72.3,234,72.5,235.4
		L72.5,235.4z"/>
	<path fill-rule="evenodd" clip-rule="evenodd" fill="#00A551" d="M92.6,235.9c0.1,0.2,0.3,0,0.5,0l0.3-0.5c0.1,1.2-0.3,2.4-1.4,3.1
		c-0.4-0.5-0.8-1-0.8-1.6c0.3-0.5,0.3-1.2,0.1-1.7c0.5,0.4,0.2,1.1,0.6,1.5c0.2-0.7,0-1.5,0.4-2.1C92.3,234.9,92.7,235.4,92.6,235.9
		L92.6,235.9z"/>
	<polygon fill-rule="evenodd" clip-rule="evenodd" fill="#A26345" points="75,236.6 73.9,234.6 74.9,236 75,236.6 	"/>
	<path fill-rule="evenodd" clip-rule="evenodd" fill="#85503B" d="M87.7,237.9c-0.3-0.9,0-2.1,0-3.2
		C87.8,235.7,88.2,236.9,87.7,237.9L87.7,237.9z"/>
	<path fill-rule="evenodd" clip-rule="evenodd" fill="#85503B" d="M77.7,236c0.5-0.6,0.8,0.8,1-0.1c0.7,1,1.7,1.8,2,3
		c-1.1-0.7-2-1.9-2.8-2.8c-0.1,1.2,1.2,1.9,1.3,3.1c-0.6-1.5-1.9-2.7-2.3-4.3C77.2,235.2,77.3,235.7,77.7,236L77.7,236z"/>
	<path fill-rule="evenodd" clip-rule="evenodd" fill="#A26345" d="M81.6,235.8c0,0-0.3,0.2-0.2,0.2l-0.6-1.1L81.6,235.8L81.6,235.8z
		"/>
	<path fill-rule="evenodd" clip-rule="evenodd" fill="#00A551" d="M61.5,236.3H62c-0.2,0.4-1,0.7-0.8,1.2c0.1,0.1,0.5,0.3,0.7,0.3
		l-0.6,1.6c0-0.6-0.9-1.5-1.2-1.9c0.3,0,0.4-0.3,0.5-0.5c-0.1-0.2-0.1-0.4-0.1-0.7c0.2,0.1,0.4,0.2,0.6,0.1c0.3-0.3,0-0.6,0-0.9
		c0.2,0,0.6,0,0.8-0.3C61.8,235.6,61.2,235.9,61.5,236.3L61.5,236.3z"/>
	<polygon fill-rule="evenodd" clip-rule="evenodd" fill="#85503B" points="79,235.7 78.7,235.2 79.2,235.5 79,235.7 	"/>
	<path fill-rule="evenodd" clip-rule="evenodd" fill="#85503B" d="M79.7,235.9c1,0.6,1.3,1.7,2.3,2.4l1.7,1.4l-0.7,0.1
		c-1.2-1.4-2.6-2.8-3.6-4.3C79.7,235.2,79.7,235.7,79.7,235.9L79.7,235.9z"/>
	<path fill-rule="evenodd" clip-rule="evenodd" fill="#FFFFFF" d="M70.6,236.6c-0.2-0.2-0.2-0.6,0-0.8l0.5-0.3
		C71,235.8,70.5,236.2,70.6,236.6L70.6,236.6z"/>
	<path fill-rule="evenodd" clip-rule="evenodd" fill="#85503B" d="M73,236.7c-0.2,0.3-0.4,0.6-0.8,0.7c-0.5,0.1-0.9-0.2-1-0.6
		c0-0.2-0.2-0.6,0-0.8C71.8,235.3,72.6,236.2,73,236.7L73,236.7z"/>
	<path fill-rule="evenodd" clip-rule="evenodd" fill="#B1764D" d="M74.3,236c-0.2,0-0.6-0.1-0.6-0.4C73.9,235.8,74.2,235.8,74.3,236
		L74.3,236z"/>
	<path fill-rule="evenodd" clip-rule="evenodd" fill="#F6921E" d="M65.6,235.8c0.1,0.3-0.1,1-0.5,0.6l-0.4-0.4
		C65,235.9,65.3,235.8,65.6,235.8L65.6,235.8z"/>
	<path fill-rule="evenodd" clip-rule="evenodd" fill="#FFFFFF" d="M70.1,236.6c-0.3-0.2-0.3-0.6,0.1-0.8L70.1,236.6L70.1,236.6z"/>
	<path fill-rule="evenodd" clip-rule="evenodd" fill="#FFFFFF" d="M73.8,236.4c-0.2,0.2-0.5,0.5-0.5,0.7c0.1-0.2,0.2-0.8,0.1-1.2
		L73.8,236.4L73.8,236.4z"/>
	<path fill-rule="evenodd" clip-rule="evenodd" fill="#85503B" d="M86.3,239.2c-0.2,0.1-0.4,0.2-0.7,0.3c-1.2-1-2.4-2-3.6-3.1v-0.3
		C83.5,237.1,84.6,239,86.3,239.2L86.3,239.2z"/>
	<path fill-rule="evenodd" clip-rule="evenodd" fill="#85503B" d="M84.1,239.3c-1.2-0.9-2.3-1.9-3.2-3.2L84.1,239.3L84.1,239.3z"/>
	<path fill-rule="evenodd" clip-rule="evenodd" fill="#F6921E" d="M65,236.8c-0.1,0.1-0.3,0.2-0.5,0.1c-0.1,0-0.1,0.1-0.2,0.1
		c-0.2-0.2-0.4-0.7,0.1-0.8C64.7,236.3,64.7,236.7,65,236.8L65,236.8z"/>
	<path fill-rule="evenodd" clip-rule="evenodd" fill="#B1764D" d="M74.8,237h-1c0.1-0.3,0.4-0.4,0.7-0.5
		C74.6,236.7,74.8,236.8,74.8,237L74.8,237z"/>
	<path fill-rule="evenodd" clip-rule="evenodd" fill="#85503B" d="M78,237.9c-0.2-0.1-0.3-0.5-0.6-0.5l-0.2,0.3l-0.6-1
		c0.4,0.2,0.3-0.5,0.6-0.1L78,237.9L78,237.9z"/>
	<path fill-rule="evenodd" clip-rule="evenodd" fill="#B1764D" d="M76.1,236.9l0.3,1.2c-0.5-0.1-0.7-0.9-0.9-1.4
		C75.6,236.9,76,237.1,76.1,236.9L76.1,236.9z"/>
	<path fill-rule="evenodd" clip-rule="evenodd" fill="#EC1C24" d="M66,238.2c-0.4,0.2-0.7-0.4-0.9-0.7c0.1-0.3,0.6-0.4,0.7-0.8
		C65.9,237.2,66.2,237.7,66,238.2L66,238.2z"/>
	<path fill-rule="evenodd" clip-rule="evenodd" fill="#85503B" d="M70.8,237c0.1,0.3,0.3,0.7,0.1,1.1c-0.4,0.1-0.9,0.1-1.2-0.2
		c-0.3-0.3-0.2-0.7-0.2-1.1C69.9,237,70.4,237.4,70.8,237L70.8,237z"/>
	<path fill-rule="evenodd" clip-rule="evenodd" fill="#B1764D" d="M74.5,237.5c-0.3,0.6-1,0.4-1.6,0.4l-0.2-0.1
		C73.2,237.5,73.9,237.6,74.5,237.5L74.5,237.5z"/>
	<path fill-rule="evenodd" clip-rule="evenodd" fill="#538664" d="M62.8,238.4c-0.1,0-0.2-0.2-0.4-0.1l0.3-0.5
		C63,237.8,62.9,238.2,62.8,238.4L62.8,238.4z"/>
	<path fill-rule="evenodd" clip-rule="evenodd" fill="#B1764D" d="M75.7,238.2c0,0,0.1-0.1,0.1-0.1l0.1,0.1
		c-0.6,0.2-1.1,0.5-1.8,0.5l0.6-0.7C75,238.2,75.4,238.4,75.7,238.2L75.7,238.2z"/>
	<path fill-rule="evenodd" clip-rule="evenodd" fill="#29B473" d="M68.6,239.2c0.2,0.7-0.2,1.3-0.7,1.8h-0.2c0.1,0,0-0.1,0-0.2
		c-0.4-0.3-0.7,0.1-1.1,0c0-0.1,0-0.2-0.1-0.3c-0.2,0-0.4,0.3-0.6,0c0.2-0.5-0.4-1-0.5-1.4c0.2,0,0-0.3,0-0.5c0.2-0.1,0.5,0.2,0.7,0
		l0.3-0.6C67.3,238.1,67.9,238.9,68.6,239.2L68.6,239.2z"/>
	<path fill-rule="evenodd" clip-rule="evenodd" fill="#85503B" d="M82,240.5c-0.6-0.1-1.3,0-1.5-0.6c-0.2-0.2,0-0.6-0.4-0.7
		c-0.1,0.1-0.1,0.2-0.1,0.3l-0.5-1.1C80.2,239.6,81.7,239.2,82,240.5L82,240.5z"/>
	<path fill-rule="evenodd" clip-rule="evenodd" fill="#85503B" d="M82.6,240.1c-0.5,0.2-0.7-0.5-1-0.8l-0.5-0.9L82.6,240.1
		L82.6,240.1z"/>
	<path fill-rule="evenodd" clip-rule="evenodd" fill="#538664" d="M62.7,238.9v0.3h-0.5C62.2,238.9,62.4,238.3,62.7,238.9
		L62.7,238.9z"/>
	<path fill-rule="evenodd" clip-rule="evenodd" fill="#F6921E" d="M71.8,239c0,0.5-0.1,1-0.6,1.2c-0.5,0.1-0.7-0.5-0.8-0.9
		c0-0.3,0.3-0.4,0.5-0.5c0.3,0,0.6,0.3,0.6-0.1C71.6,238.6,71.7,238.8,71.8,239L71.8,239z"/>
	<path fill-rule="evenodd" clip-rule="evenodd" fill="#FFFFFF" d="M66.5,239c-0.1,0.3-0.3-0.1-0.5-0.1l0.1-0.2
		C66.3,238.7,66.5,238.8,66.5,239L66.5,239z"/>
	<path fill-rule="evenodd" clip-rule="evenodd" fill="#FFFFFF" d="M67.3,238.8c0,0.1-0.1,0.3-0.2,0.3c-0.2,0-0.4-0.2-0.3-0.4
		L67.3,238.8L67.3,238.8z"/>
	<path fill-rule="evenodd" clip-rule="evenodd" fill="#538664" d="M60.7,239.6L60.7,239.6c-0.2,0-0.3-0.2-0.2-0.3l0.2-0.1
		C60.7,239.3,60.8,239.5,60.7,239.6L60.7,239.6z"/>
	<path fill-rule="evenodd" clip-rule="evenodd" fill="#FFFFFF" d="M66.7,239.5c-0.2,0.2-0.5,0.2-0.7,0.1c-0.1-0.1-0.2-0.3-0.1-0.5
		C66.1,240,67,238.6,66.7,239.5L66.7,239.5z"/>
	<path fill-rule="evenodd" clip-rule="evenodd" fill="#FFFFFF" d="M68,239.4c0.1,0.2,0,0.5-0.1,0.7h-0.1
		C67.7,239.9,67.8,239.5,68,239.4L68,239.4z"/>
	<path fill-rule="evenodd" clip-rule="evenodd" fill="#00A551" d="M90.8,242.1c0.8-0.3,0.4-1.4,1.3-1.5c-0.4,1.3-1,2.7-2.4,3.3
		c-0.2-1.3-0.6-2.8,0.7-3.7c-0.3,0.6-0.6,1.4-0.5,2h0.2c0.3-0.9,0.6-1.8,1.3-2.5C91.4,240.5,91,241.4,90.8,242.1L90.8,242.1z"/>
	<path fill-rule="evenodd" clip-rule="evenodd" fill="#FFFFFF" d="M67.4,239.8c0.1,0.4-0.3,0.4-0.5,0.6h-0.1
		C66.7,240.1,67.1,239.9,67.4,239.8L67.4,239.8z"/>
	<path fill-rule="evenodd" clip-rule="evenodd" fill="#29B473" d="M70.1,239.9c0,0.6-0.2,1.5,0.4,1.9c0.5,0.1,1-0.3,1.1-0.7l0-0.2
		c0.2,0.2,0.9,0.1,0.7,0.5c-0.1,0.5-0.2,0.8-0.5,1.2c-0.5,0.2-0.9,0.5-1.6,0.3l0.3-0.3c-0.2-0.3-0.4,0-0.6,0
		c-0.6-0.2-1.1-0.7-1.6-1.1c0.1-0.5,0.9-0.8,0.8-1.5L70.1,239.9L70.1,239.9z"/>
	<path fill-rule="evenodd" clip-rule="evenodd" fill="#F6921E" d="M80,240l0.1-0.1c0.2,1.1,1.4,1,2.3,1.2c0.1,0.1,0.2,0.3,0.1,0.5
		c-0.3,0.2-0.6,0.3-1,0.2c0.4-0.2-0.2-0.6-0.5-0.7c-0.6-0.2-1.4-0.3-2-0.2c0.1-0.2-0.2-0.2-0.2-0.2l-1.1,0.3v-0.2
		c0.5-0.3,1.6,0,1.6-0.9C79.6,239.9,79.8,240.2,80,240L80,240z"/>
	<path fill-rule="evenodd" clip-rule="evenodd" fill="#29B473" d="M75,240.5c0.6,0.2,1.2,0.3,1.8,0.5c-0.1,0.3-0.5,0.6-0.2,0.9
		c0.3,0,0.6-0.2,0.8-0.3c0,0.5-0.3,0.9-0.1,1.4c-0.3,0.5-0.7,0.7-1.2,0.9l-0.1-0.5c-0.5-0.2-0.7,0.5-1.2,0.5c0.2-0.1,0-0.4-0.2-0.4
		l-1,0.5c-0.1-0.1,0.4-0.4,0-0.6c-0.4,0.2-0.9-0.1-1-0.5c-0.2-0.7,0-1.4,0.5-1.9l0-0.2c0.2,0.2,0.5-0.1,0.7,0.1
		c0.1-0.2,0-0.5-0.1-0.6C74.2,239.9,74.4,241,75,240.5L75,240.5z"/>
	<path fill-rule="evenodd" clip-rule="evenodd" fill="#EC1C24" d="M71.2,240.6c0,0.3-0.2,0.5-0.4,0.7c-0.2,0.1-0.4-0.2-0.3-0.3
		l0-0.6L71.2,240.6L71.2,240.6z"/>
	<path fill-rule="evenodd" clip-rule="evenodd" fill="#F6921E" d="M87.6,240.4c0,0.1-0.1,0.4,0.1,0.5h0.1c0.1,0.3,0.1,0.7-0.2,0.8
		l-0.4,0c0-0.2,0.2-0.5,0-0.7c-0.1-0.2-0.3-0.3-0.6-0.2C86.8,240.3,87.2,240.4,87.6,240.4L87.6,240.4z"/>
	<path fill-rule="evenodd" clip-rule="evenodd" fill="#FFFFFF" d="M76.2,241.3c0,0.1-0.1,0-0.2,0c-0.2-0.1-0.1-0.3,0-0.4
		C76.2,240.9,76.2,241.1,76.2,241.3L76.2,241.3z"/>
	<path fill-rule="evenodd" clip-rule="evenodd" fill="#F6921E" d="M78.2,241.7c-0.2,0-0.1-0.2-0.2-0.4c0.3-0.2,0.6-0.3,0.9-0.3
		L78.2,241.7L78.2,241.7z"/>
	<path fill-rule="evenodd" clip-rule="evenodd" fill="#EC1C24" d="M86.9,241c0.1,0.6-0.5,0.7-0.9,1.1c-0.2,0.1-0.3-0.2-0.4-0.3
		c-0.1-0.4,0.4-0.5,0.6-0.7C86.5,241.1,86.7,240.9,86.9,241L86.9,241z"/>
	<path fill-rule="evenodd" clip-rule="evenodd" fill="#00A551" d="M62.5,241.7c0.1,0.2,0,0.4,0.3,0.6l0.4-0.1c0,0.3,0.1,0.5,0.3,0.6
		h0.5c-0.1,0.4-0.3,0.9-0.7,1l-0.7-0.1c0.1-0.1,0.6-0.1,0.6-0.5c0-0.5-0.5-0.2-0.7-0.5c-0.3,0-0.5,0.1-0.8,0c0.4-0.2,0.7,0,1.1-0.3
		c0-0.3-0.1-0.5-0.4-0.6l-1.1-0.1c0.3,0.1,0.5,0,0.6-0.3V241C62,241.1,61.9,242,62.5,241.7L62.5,241.7z"/>
	<path fill-rule="evenodd" clip-rule="evenodd" fill="#FFFFFF" d="M75.8,241.5l-0.1,0.4c-0.2,0.1-0.1-0.2-0.3-0.2
		c-0.2,0-0.4,0.4-0.6,0.2c-0.1-0.2,0.2-0.3,0.3-0.5c-0.2-0.1-0.8,0.1-0.6-0.4C75,241.1,75.7,240.9,75.8,241.5L75.8,241.5z"/>
	<path fill-rule="evenodd" clip-rule="evenodd" fill="#FFFFFF" d="M69,241.6c-0.1-0.1-0.1-0.2-0.1-0.3c0.1-0.1,0.2-0.2,0.4-0.2
		C69.3,241.3,69.3,241.6,69,241.6L69,241.6z"/>
	<path fill-rule="evenodd" clip-rule="evenodd" fill="#FFFFFF" d="M72,241.1c-0.1,0.1,0,0.4-0.3,0.4C71.5,241.3,71.8,241,72,241.1
		L72,241.1z"/>
	<path fill-rule="evenodd" clip-rule="evenodd" fill="#29B473" d="M85.5,242.3l0.7,0.5c-0.4,0.4-1.1,0.5-1.7,0.7
		c0,0.1,0,0.3,0.2,0.3l0.5,0c0,0.2-0.3,0.4-0.5,0.5c-0.7,0-1.4,0-1.8-0.5c-0.1,0-0.2,0-0.3,0.2l0.1,0.2c-0.5,0-0.6-0.7-1.1-0.4
		c0.1,0.6,0.7,0.8,1.2,0.9c-0.6,0.5-1.5,0.3-2.3,0.3c-0.4-0.9,0.9-0.8,1.2-1.6c0.5,0.3,0.8-0.4,1.3-0.5c0.1-0.6,0.6-1.2,1-1.6
		c0,0.2,0,0.4,0.2,0.5l0.7-0.6C85.4,241.4,85.2,241.9,85.5,242.3L85.5,242.3z"/>
	<path fill-rule="evenodd" clip-rule="evenodd" fill="#29B473" d="M81.1,241.5c-0.1,0.1,0,0.2,0,0.4c0.2,0.3,0.6,0.4,0.9,0.4
		c-0.4,1.9-2.9,1.4-3.6,3.3c-0.1,0.2-0.2,0.5-0.4,0.6c-0.5-0.1-0.7-0.7-0.9-1.2c0-1.2,0.3-2.4,1.5-2.9c0.2-0.3,0.6-0.7,0.9-0.9
		C80.1,241.1,80.6,241.3,81.1,241.5L81.1,241.5z"/>
	<path fill-rule="evenodd" clip-rule="evenodd" fill="#FFFFFF" d="M74.5,242c0,0.4-0.2,0.7-0.5,0.9c-0.2,0-0.4,0-0.5-0.2v-0.1
		c0.3,0.1,0.7-0.1,0.7-0.5c0.1-0.3-0.4-0.5-0.2-0.7C74.4,241.5,74.4,241.8,74.5,242L74.5,242z"/>
	<path fill-rule="evenodd" clip-rule="evenodd" fill="#FFFFFF" d="M80,242h0.1c0.1,0.3-0.2,0.3-0.4,0.4c-0.3,0.1-0.4-0.1-0.5-0.4
		c0-0.1,0.1-0.1,0.1-0.2h0.1c0,0.1,0,0.2,0,0.2c0.3-0.1,0.2-0.5,0.5-0.5L80,242L80,242z"/>
	<path fill-rule="evenodd" clip-rule="evenodd" fill="#FFFFFF" d="M82.8,241.9c0,0.3-0.2,0.6-0.5,0.9
		C82.5,242.6,82.2,241.8,82.8,241.9L82.8,241.9z"/>
	<path fill-rule="evenodd" clip-rule="evenodd" fill="#FFFFFF" d="M71.8,242c-0.1,0.3-0.4,0.4-0.6,0.4c0-0.3,0.3-0.4,0.5-0.5
		C71.7,241.9,71.8,242,71.8,242L71.8,242z"/>
	<polygon fill-rule="evenodd" clip-rule="evenodd" fill="#FFFFFF" points="77.7,242.2 77.8,241.9 77.9,242 77.7,242.2 	"/>
	<path fill-rule="evenodd" clip-rule="evenodd" fill="#FFFFFF" d="M76.1,242.1c-0.2,0.4-0.5,0.9-1,0.9c-0.1-0.1-0.1-0.2-0.1-0.3
		c0.4-0.1,0.7-0.5,1-0.7L76.1,242.1L76.1,242.1z"/>
	<path fill-rule="evenodd" clip-rule="evenodd" fill="#FFFFFF" d="M84.2,242.3c0,0.1,0,0.3-0.2,0.3c-0.2,0-0.4-0.1-0.4-0.2l0.1-0.3
		C83.8,242.1,84,242.4,84.2,242.3L84.2,242.3z"/>
	<path fill-rule="evenodd" clip-rule="evenodd" fill="#FFFFFF" d="M74,242.3v0.1c-0.1,0.1-0.3,0-0.4-0.1
		C73.7,242.2,73.9,242,74,242.3L74,242.3z"/>
	<path fill-rule="evenodd" clip-rule="evenodd" fill="#FFFFFF" d="M85.2,242.2c0,0,0.1,0,0.2,0c0,0.2-0.1,0.4-0.2,0.5l0.3,0.1
		c0,0.2-0.2,0.3-0.3,0.3c-0.3,0.1-0.4-0.1-0.5-0.3c0-0.2-0.1-0.5,0.1-0.6C84.9,242.2,85,242.5,85.2,242.2L85.2,242.2z"/>
	<path fill-rule="evenodd" clip-rule="evenodd" fill="#FFFFFF" d="M76.7,242.5c0,0.2-0.2,0.2-0.2,0.4c-0.1,0-0.3,0-0.3-0.1
		c-0.1-0.3,0.2-0.2,0.3-0.3C76.5,242.5,76.6,242.4,76.7,242.5L76.7,242.5z"/>
	<path fill-rule="evenodd" clip-rule="evenodd" fill="#FFFFFF" d="M80,242.8l0.3-0.2c0.1,0.1,0,0.2,0,0.4l0.3,0.1
		c0,0.2-0.2,0.2-0.3,0.3c-0.3,0.1-0.4-0.2-0.5-0.4C79.6,242.7,80.2,242.2,80,242.8L80,242.8z"/>
	<path fill-rule="evenodd" clip-rule="evenodd" fill="#FFFFFF" d="M78.9,242.7c-0.2,0.1-0.2,0.3-0.2,0.5l0.1,0
		c0.2-0.1,0.2-0.4,0.5-0.5c0.1,0.1,0,0.3,0,0.4l-0.2,0.2l0.5,0.1c0,0.2-0.2,0.2-0.3,0.3c-0.4,0.1-0.7-0.1-0.8-0.5
		c0-0.3,0-0.6,0.3-0.7C78.8,242.5,78.8,242.6,78.9,242.7L78.9,242.7z"/>
	<path fill-rule="evenodd" clip-rule="evenodd" fill="#FFFFFF" d="M81.7,242.6c0.1,0.3-0.3,0.3-0.4,0.5c-0.1,0-0.1,0-0.2,0
		C81.1,242.7,81.4,242.6,81.7,242.6L81.7,242.6z"/>
	<path fill-rule="evenodd" clip-rule="evenodd" fill="#00A551" d="M72.2,243.6c-0.1,0.1-0.4,0.5-0.6,0.2c0.2-0.1,0.5-0.4,0.6-0.7
		c-0.1-0.1-0.1-0.3,0.1-0.3C72.3,242.9,72.3,243.4,72.2,243.6L72.2,243.6z"/>
	<path fill-rule="evenodd" clip-rule="evenodd" fill="#FFFFFF" d="M83.7,243.1c0.3,0,0.5-0.4,0.7-0.3c0,0.3-0.3,0.4-0.5,0.6
		c0.1,0.1,0.2,0,0.3,0.2c0.1,0.1-0.1,0.2-0.2,0.2c-0.2,0-0.5-0.2-0.6-0.5c0-0.2,0-0.4,0.2-0.5L83.7,243.1L83.7,243.1z"/>
	<path fill-rule="evenodd" clip-rule="evenodd" fill="#F6921E" d="M68.5,243.8c-0.2,0.3-0.6,0.2-0.8,0.1c-0.2-0.2-0.4-0.5-0.2-0.8
		C67.8,243.3,68.2,243.5,68.5,243.8L68.5,243.8z"/>
	<path fill-rule="evenodd" clip-rule="evenodd" fill="#00A551" d="M71.7,243c0.1,0.2-0.1,0.5-0.3,0.5C71.3,243.4,71.4,243,71.7,243
		L71.7,243z"/>
	<path fill-rule="evenodd" clip-rule="evenodd" fill="#FFFFFF" d="M80.2,243.5c0.1,0.3-0.2,0.3-0.4,0.4h-0.1c0-0.1,0-0.1-0.1-0.1
		C79.7,243.5,80,243.5,80.2,243.5L80.2,243.5z"/>
	<path fill-rule="evenodd" clip-rule="evenodd" fill="#538664" d="M65,244.1c0,0-0.4-0.9-0.5-1c-0.1-0.1,0.6-0.7,0.7-0.8
		C65.2,242.5,65.1,244,65,244.1L65,244.1z"/>
	<path fill-rule="evenodd" clip-rule="evenodd" fill="#F6921E" d="M76.2,244.3L76.2,244.3c0.2,1.1,0.3,2.3,1,3.2
		c-0.2,0.2-0.6,0.2-0.7,0.1c-0.6-0.9-0.2-2.3-1.2-3c-0.1-0.1,0-0.3-0.1-0.4l0.3-0.2C75.6,244.2,75.9,244.5,76.2,244.3L76.2,244.3z"
		/>
	<path fill-rule="evenodd" clip-rule="evenodd" fill="#FFFFFF" d="M78.5,244c0.1,0.3-1.1,0.8-0.2,0.8c0,0.1-0.1,0.2-0.2,0.2
		c-0.3,0-0.6-0.1-0.7-0.5c0.1-0.2-0.2-0.4,0-0.5l0.3,0.5C78.1,244.4,78.2,244,78.5,244L78.5,244z"/>
	<path fill-rule="evenodd" clip-rule="evenodd" fill="#00ADEE" d="M71.9,245l-0.3-0.3c0.2-0.1,0.3-0.3,0.5-0.4
		c0.4,0.5,0.8,0.9,1.4,1c0.4,0.6,0.4,1.3,0.3,1.9c-0.5-0.4-1.7,0.2-1.4-0.9c0,0,0.1,0,0.2,0c-0.2-0.7-1-0.8-1.6-0.9
		c-0.4,0.3-0.5-0.3-0.7-0.5l-1.3-0.7C70,244.2,70.7,245.5,71.9,245L71.9,245z"/>
	<path fill-rule="evenodd" clip-rule="evenodd" fill="#F6921E" d="M74.6,245.6c0.5,0.2,0.6-0.9,0.9-0.2c0.1,0.9,0.2,1.9,0.8,2.6
		l-0.7-0.1c0-0.4-0.1-0.9-0.6-1.1c-0.6,0.2-0.6,0.2-0.9-0.3l-0.1-0.4c0.2,0,0.5,0.2,0.6-0.1c-0.2-0.3-1-0.3-0.9-0.9
		c0.1-0.2,0-0.6,0.3-0.6C73.9,244.8,74,245.5,74.6,245.6L74.6,245.6z"/>
	<path fill-rule="evenodd" clip-rule="evenodd" fill="#F6921E" d="M74.8,245.1c-0.2,0-0.5,0-0.5-0.2c-0.1-0.4,0.4-0.1,0.5-0.4V245.1
		L74.8,245.1z"/>
	<path fill-rule="evenodd" clip-rule="evenodd" fill="#F6921E" d="M79.4,245.2c0.1-0.4,0.4-0.4,0.7-0.6
		C80,244.7,79.6,245.1,79.4,245.2L79.4,245.2z"/>
	<path fill-rule="evenodd" clip-rule="evenodd" fill="#00A551" d="M87.3,245.6c-0.1,0.1-0.2,0.1-0.2,0.2c0.1,0.2,0.3,0.1,0.4,0
		c0.3-0.5,0.9-0.7,1.2-1.2c0.3,0.4-0.3,0.9,0.1,1.2l0.4-0.1c-0.1,0.6-0.5,1.2-1,1.5c-0.8,0.3-1.8,0.4-2.6,0.6
		c-0.1-1.3,0.8-2.3,1.6-3.2C87.4,244.8,87.2,245.2,87.3,245.6L87.3,245.6z"/>
	<path fill-rule="evenodd" clip-rule="evenodd" fill="#538664" d="M64,245.1c0,0.1-0.8-0.2-0.9-0.2l0.6-0.3
		C64.1,244.6,64.1,244.8,64,245.1L64,245.1z"/>
	<path fill-rule="evenodd" clip-rule="evenodd" fill="#F6921E" d="M84.5,244.7c-0.3,0.4-0.7,0.6-1.2,0.6c-0.3-0.2,0-0.5,0-0.7
		C83.8,244.7,84.1,244.8,84.5,244.7L84.5,244.7z"/>
	<path fill-rule="evenodd" clip-rule="evenodd" fill="#00A551" d="M66,245.6c0.3,0.1,0.4-0.2,0.5-0.3v-0.2c0.4,0.4,0.4,1.3,1.1,1.1
		c0,0.5-0.1,1,0.3,1.3c0.5,0.2,0.6,0.7,0.9,1c-0.5-0.1-1.3-0.3-1.7,0.2c0.1-0.3-0.1-0.7-0.5-0.8c-0.4,0-0.9,0.7-1.2,0.1l-0.2-0.2
		c0.3-0.6,0.4-0.2,1.1-0.7c-0.6-0.5-1.5,0.3-1.8-0.8c0.4-0.2,1.2,0.2,1.1-0.5c-0.1-0.1-0.3-0.2-0.4-0.3l0.2-0.5
		C65.5,245.2,65.7,245.5,66,245.6L66,245.6z"/>
	<path fill-rule="evenodd" clip-rule="evenodd" fill="#00ADEE" d="M82.9,245.4c-0.4,0.4-1.6,0-1.4,0.8l0.4,0.4
		c-0.1,0.4-0.7,0.1-0.9,0.3c0.2-0.6-1.1-0.8-0.4-1.6c0.7,0,1.6,0.1,2.2-0.3C82.8,245.1,82.8,245.3,82.9,245.4L82.9,245.4z"/>
	<path fill-rule="evenodd" clip-rule="evenodd" fill="#F6921E" d="M79.7,246c0.1,0.1,0.3,0.2,0.3,0.4c-0.5-0.1-0.9,0.2-1.2,0.6
		l-0.2,0.3c-0.2-0.3-0.7,0.1-1-0.1c-0.5-0.5-0.6-1.1-0.7-1.8c0.3,0.4,0.5,1,1,1.1c0.5,0.1,0.8-0.3,1-0.7c0-0.6,0.9,0,1.2-0.5
		C80.1,245.8,79.3,245.6,79.7,246L79.7,246z"/>
	<path fill-rule="evenodd" clip-rule="evenodd" fill="#00A551" d="M69.5,245.4c-0.2,0-0.2,0.4-0.4,0.1c0,0,0-0.1-0.1-0.1
		c-0.3,0.1,0,0.3,0,0.4c0.2,0.3,0.6,0.3,0.7-0.1l-0.1-0.3h0.1c0,0.2,0,0.4,0.2,0.5c-0.1,0.1-0.1,0.4-0.4,0.4
		c-0.4-0.4-0.8,0.1-1.1-0.6C68.5,245.2,69.2,245.4,69.5,245.4L69.5,245.4z"/>
	<path fill-rule="evenodd" clip-rule="evenodd" fill="#F6921E" d="M83,246.3c0.1,0.3,0,0.7-0.3,0.9c-0.1,0.3-0.5,0.4-0.7,0.2
		c-0.1,0,0-0.2,0-0.2c0.1-0.1,0.3,0,0.3-0.2C82,246.6,82.7,246.4,83,246.3L83,246.3z"/>
	<path fill-rule="evenodd" clip-rule="evenodd" fill="#538664" d="M69.4,246.8c-0.1,0.3-0.1,0.7-0.5,0.9
		C68.7,247.3,68.9,246.6,69.4,246.8L69.4,246.8z"/>
	<path fill-rule="evenodd" clip-rule="evenodd" fill="#F6921E" d="M80,247.1c0.1,0.3-0.6,0.4-0.2,0.7c-0.2,0.1-0.4,0-0.5-0.1
		c-0.2-0.2,0.1-0.4,0.2-0.6C79.6,246.8,80.1,246.7,80,247.1L80,247.1z"/>
	<path fill-rule="evenodd" clip-rule="evenodd" fill="#F6921E" d="M71.9,247.6c-0.2,0.1-0.5,0.1-0.7,0.1c-0.2-0.2,0.1-0.5,0.3-0.6
		l0.4,0V247.6L71.9,247.6z"/>
	<path fill-rule="evenodd" clip-rule="evenodd" fill="#F6921E" d="M75,247.2c0.2,0.2,0.4,0.6,0.1,0.9c-0.2,0.1-0.4,0.1-0.6,0
		c-0.2-0.2-0.2-0.5-0.2-0.8l0.1-0.1l0.1,0.2L75,247.2L75,247.2z"/>
	<path fill-rule="evenodd" clip-rule="evenodd" fill="#00ADEE" d="M76.2,248.8l-1.1-0.2c0.3-0.6,0.8,0,1.2-0.1
		c0.8-0.1,1.7-0.2,2.5-0.6C78.3,248.6,77.3,248.8,76.2,248.8L76.2,248.8z"/>
	<path fill-rule="evenodd" clip-rule="evenodd" fill="#538664" d="M69.6,248.3l-0.1,0.3l-0.5-0.5C69.1,247.9,69.6,248,69.6,248.3
		L69.6,248.3z"/>
	<path fill-rule="evenodd" clip-rule="evenodd" fill="#00A551" d="M83.1,248.2c-0.1,0-0.2,0.1-0.3,0.2c0.1,0.8,1,0,1.5,0.2
		c0.1,0.4-1.2,1.1-0.1,1.3l-2.6,0.9c-0.5-0.3-1.1-0.5-1.5-1c0.4-0.1,1,0.1,1.1-0.4l-0.8,0C81,248.5,82.1,248.3,83.1,248.2
		L83.1,248.2z"/>
	<path fill-rule="evenodd" clip-rule="evenodd" fill="#00A551" d="M72.9,249.1c0.5,0.6,1.1,0.3,1.8,0.5c-0.2,0.3-0.3,0.7-0.6,1
		c-0.2-0.1,0.3-0.5-0.1-0.6c-0.3-0.1-0.5,0.3-0.7,0.5c-0.1,0.2,0,0.4-0.3,0.6c-0.1-0.3,0.3-0.6-0.1-0.8c-0.5,0-0.7,0.5-1.2,0.6
		c0-0.2,0.2-0.7,0-1c-0.4,0-0.8,0.2-1.2,0.5v-0.6c-0.5-0.2-0.9,0.3-1.4,0.5c0.1-0.6,1.2-0.6,0.7-1.3l0.4,0.3l0.2-0.3l-0.1-0.1l0.1,0
		c0.2,0.4,0.5,0.8,1,0.8c0.2-0.1,0.3-0.4,0.2-0.6c0.2,0.3,0.5,0.5,0.8,0.5c0.3-0.2,0.1-0.5,0.1-0.7C72.7,248.7,72.8,249,72.9,249.1
		L72.9,249.1z"/>
	<path fill-rule="evenodd" clip-rule="evenodd" fill="#538664" d="M67.9,248.9c0,0.2-0.2,0.3-0.3,0.4c-0.1,0-0.2,0-0.2-0.1
		C67.4,249,67.7,248.7,67.9,248.9L67.9,248.9z"/>
	<path fill-rule="evenodd" clip-rule="evenodd" fill="#538664" d="M68.6,249c-0.1,0.1-0.2,0.3-0.4,0.3l0.2-0.5L68.6,249L68.6,249z"
		/>
	<path fill-rule="evenodd" clip-rule="evenodd" fill="#EC1C24" d="M78,249.2c-0.1-0.1,0.2,0.6-0.1,1.1h-0.2l-0.1-1.2
		c0.2,0.1,0.2-0.1,0.4,0V249.2L78,249.2z"/>
	<path fill-rule="evenodd" clip-rule="evenodd" fill="#00A551" d="M76.4,250.2c-0.4,0.2-0.3-0.3-0.4-0.5c-0.1-0.3,0.2-0.3,0.3-0.4
		L76.4,250.2L76.4,250.2z"/>
	<path fill-rule="evenodd" clip-rule="evenodd" fill="#FFFFFF" d="M77.3,249.9v0.3h-0.5c-0.2-0.3-0.1-0.7,0-1
		C77.3,249.1,77.2,249.7,77.3,249.9L77.3,249.9z"/>
	<path fill-rule="evenodd" clip-rule="evenodd" fill="#00A551" d="M75.1,251.8h-0.6c0-0.2,1-0.9,1.4-1.1
		C75.6,251,75.5,251.5,75.1,251.8L75.1,251.8z"/>
	<polygon fill-rule="evenodd" clip-rule="evenodd" fill="#FFFFFF" points="75.4,251.7 76.5,250.7 75.8,251.9 75.4,251.7 	"/>
	<path fill-rule="evenodd" clip-rule="evenodd" fill="#EC1C24" d="M76.3,252c-0.1,0-0.2,0-0.2-0.1l1-1.2
		C77,251.2,76.6,251.6,76.3,252L76.3,252z"/>
	<path fill-rule="evenodd" clip-rule="evenodd" fill="#EC1C24" d="M79.5,251.4c0.1,0.1-0.1,0.3-0.2,0.3c-0.5-0.3-1.2-0.7-1.5-1
		L79.5,251.4L79.5,251.4z"/>
	<path fill-rule="evenodd" clip-rule="evenodd" fill="#00A551" d="M79,252.2c-0.1,0.1-0.1,0.5-0.2,0.5c-0.3-0.4-1-1.1-1.5-1.2
		l0.2-0.5L79,252.2L79,252.2z"/>
</g>
</svg>
