<?xml version="1.0" encoding="utf-8"?>
<!-- Generator: Adobe Illustrator 18.1.1, SVG Export Plug-In . SVG Version: 6.00 Build 0)  -->
<svg version="1.1" id="Layer_1" xmlns="http://www.w3.org/2000/svg" xmlns:xlink="http://www.w3.org/1999/xlink" x="0px" y="0px"
	 viewBox="0 0 453.2 284.7" enable-background="new 0 0 453.2 284.7" xml:space="preserve">
<g>
	<polyline fill="#4F3C1B" points="368.8,144.7 368.8,147.9 412.2,152.9 412.2,137.4 368.8,143.6 	"/>
	<path fill="#D9DA8B" d="M354.5,76.2l-32.7,40.4l2,21.5l20.5-3.7l17.6-34.1C361.9,100.3,359.7,76.5,354.5,76.2z"/>
	<path fill="#F9BD91" d="M164.5,156.7c20.1,7.8,22.6-1.1,22.3-4.4c-0.2-3.4-12.1-3.7-12.1-3.7s4.9,0.6,4.7-2s-6-3.5-6-3.5
		s-9.3-2.4-11.3,3.9C160.2,153.2,164.5,156.7,164.5,156.7z"/>
	<polygon fill="#F5F5B9" points="126.6,133.1 150.6,147.4 160.4,149.3 169.1,141.9 143.8,123.2 100.7,106.9 88.5,110.6 75.7,128.1 
		112,147.9 	"/>
	<path fill="#F9BD91" d="M133,109.6l-8,29.2l-4.4-1.2l-2.6,9.6c0,0-7.7,8.4-17.2-4.7l5.5-20c0,0-3.5-1.8-2.3-6
		c1.2-4.3,4.9-1.1,4.9-1.1l3.2-11.7L133,109.6z"/>
	<path fill="#F5F5B9" d="M110.3,161.6l61.3,8.3l2.6-17.8l-56.5-11.5l-20.1-17.5H79.9c0,0-23.2,24.1-20.1,46.7l29,2.6L110.3,161.6z"
		/>
	<polygon fill="#603913" points="88.8,179.7 57.1,178.8 59.8,169.9 88.8,172.5 	"/>
	<path fill="#DADA81" d="M101.1,216l15.8,10.4l1.9,9h15.7v-14.4L116.9,199C116.9,199,93.5,205,101.1,216z"/>
	<path fill="#F5F5B9" d="M57.1,178.8l-6.7,11.3v24.3l50.4,3l2.5-10.1l9.2,0.9l1.1-6l6.2-6L97,179.7h-8.2
		C88.8,179.7,57.9,177.5,57.1,178.8z"/>
	<path fill="#5E2413" d="M118.7,235.5l4.5,36.8c0,0-3.7,9.2,0,12.5h26c0,0,0-4.9-6.5-7.7c-6.5-2.8-8.8-2.6-8.8-10.5l0.4-31H118.7z"
		/>
	<polygon fill="#DADA81" points="54,214.7 54,228.4 40.3,235.5 48.4,248.4 70.8,237.7 75.5,215.9 	"/>
	<path fill="#5E2413" d="M40.3,235.5L6.1,256.8c0,0-5.2-0.2-5.8,1.9c-0.6,2.2-0.4,21.5,3.7,22.6c0,0,6,3,7.3-4.1
		c1.3-7.1,0.9-11,2.4-12.5l34.8-16.3L40.3,235.5z"/>
	<path fill="#603913" d="M108.7,115.4v3.6h2.1l1.9-4.9c0,0,6.3-2,6-5.3l13.6,3.1c0,0,3.9-5.6-1.3-6.9s-23.3-12.9-24.3,9.2
		C106.7,114.4,108.7,114.8,108.7,115.4z"/>
	<path fill="#603913" d="M109.6,106.6c0,0-3.1-8.3-8.4-5.9l-3.5,3.9c0,0,9-0.1,11.1,4.2C108.7,108.8,110.6,108.7,109.6,106.6z"/>
	<path fill="#F9BD91" d="M340.8,121.4c16.2-5.1,13.6-12,11.9-14c-1.7-2-9.3,3.7-9.3,3.7s3.4-2.1,2-3.6c-1.3-1.5-5.4,0.7-5.4,0.7
		s-7,3.2-5.3,8.2S340.8,121.4,340.8,121.4z"/>
	<polygon fill="#D9DA8B" points="380.3,149.2 392.4,202.6 426.8,183.4 412.2,152.9 	"/>
	<polygon fill="#C6BF54" points="380.3,149.2 347.7,175.9 388.8,186.9 	"/>
	<polygon fill="#D9DA8B" points="380.3,149.2 338.7,185.4 329,175.9 368.8,147.9 	"/>
	<polygon fill="#4F3C1B" points="380.3,184.6 354.7,206.3 334.6,204 351.1,175.9 	"/>
	<polygon fill="#4F3C1B" points="398.1,199 409.3,214.9 425.3,207 419.3,186.9 	"/>
	<path fill="#160C00" d="M409.3,214.9l23.8,39.6c0,0-13.2,13.8-14.6,14.3c-1.4,0.6,22.9,3.4,25.8,0c2.9-3.4,8.9-14.6,8.9-14.6
		L425.3,207L409.3,214.9z"/>
	<polygon fill="#160C00" points="334.6,204 329,260.1 309,270.5 347.7,270.5 345.9,260.1 354.7,206.3 	"/>
	<path fill="#231F20" d="M246,58.3l0.7,30.3l-4.6,0.1l0.2,10c0,0-4.9,10.3-17.8,0.4L224,78.4c0,0-3.9-0.7-4-5.1s4.4-2.4,4.4-2.4
		l-0.3-12.1L246,58.3z"/>
	<path fill="#BE1E2D" d="M243.3,58.3l-4.1,12.5L235,58.5l-5.4,0.1c0,0,4.1,2.4,3.8,4c-0.3,1.6-2.6,3.6-2.6,3.6l0.4,2.2l3.5,0.9
		l3.8,7.5l3.4-7.7l4.4-1.6l-0.2-9.3L243.3,58.3z"/>
	<path fill="#BE1E2D" d="M238.4,77.8l-4.3-7.8l-3.9-0.5v-3.2c0,0-2.4,0.3-2.5-2.6c-0.1-2.9,0.9-5,0.9-5H226v7.8L229,69l0.1,3.7
		l-2.2,2.2l0.4,4.9l4,4.8l7.2-4.2l7.8,3.7V68.4l-3.9,1.4L238.4,77.8z"/>
	<path d="M252.1,151.1c20.5,6.7,22.5-2.4,22-5.7s-12.3-3-12.3-3s5,0.3,4.6-2.3c-0.4-2.5-6.1-3.2-6.1-3.2s-9.5-1.8-11.1,4.5
		S252.1,151.1,252.1,151.1z"/>
	<path d="M270.2,100.3l-47.4-7.5c0,0-15.3,0.2-19.6,11.8l-3.7,26.7l1.5,9.2l30.1,4.7l10.7-7l5.6,15.4l7.5-3.6l2.6-11.8l-7.3-28.1
		h21.1C271.4,110,276.3,101.2,270.2,100.3z"/>
	<polygon fill="#231F20" points="231.2,145.1 201.1,140.5 202,149.9 231.2,151.2 	"/>
	<polygon points="202,149.9 164.5,211.9 203.7,239.6 220.1,199 222.2,235.5 270.8,213.1 231.2,149.9 	"/>
	<path fill="#231F20" d="M247.6,223.8l13.9,36.3c0,0,3,11.1,11.7,11.7c8.7,0.6,11-5.6,3.3-9.5l-7.1-5.6l-6.6-40L247.6,223.8z"/>
	<path fill="#231F20" d="M188.8,229.1l-19.8,38c0,0-11.8,12.3-23.4,5.8c0,0,2.8-7.7,11.6-11.2l17-43L188.8,229.1z"/>
	<g>
		<path fill="#BE1E2D" d="M207,246.7l2.9,1.4c1,0.5,2.1,0,2.6-0.9L322.7,15.7c0.5-1,0-2.1-0.9-2.6l-2.9-1.4c-1-0.5-2.1,0-2.6,0.9
			L206.1,244C205.7,245,206.1,246.2,207,246.7z"/>
		
			<rect x="231.1" y="126.8" transform="matrix(0.4146 -0.91 0.91 0.4146 35.1581 317.3498)" fill="#A7A9AC" width="66.3" height="9.2"/>
	</g>
	<path fill="#38F44A" d="M350.6,126.5l2.3-1.4c0.8-0.5,1-1.5,0.5-2.3l-75.8-122c-0.5-0.8-1.5-1-2.3-0.5l-2.3,1.4
		c-0.8,0.5-1,1.5-0.5,2.3l75.8,122C348.8,126.8,349.8,127,350.6,126.5z"/>
	
		<rect x="320.6" y="104.6" transform="matrix(-0.5415 -0.8407 0.8407 -0.5415 435.333 454.43)" fill="#A7A9AC" width="41.9" height="7.8"/>
	<path fill="#00AEEF" d="M181.4,151.7l-2,1.9c-0.7,0.6-0.7,1.7,0,2.3l99.4,103.7c0.6,0.7,1.7,0.7,2.3,0l2-1.9c0.7-0.6,0.7-1.7,0-2.3
		l-99.4-103.7C183.1,151.1,182,151.1,181.4,151.7z"/>
	
		<rect x="173" y="163.6" transform="matrix(0.7042 0.71 -0.71 0.7042 176.307 -88.1283)" fill="#A7A9AC" width="41.9" height="7.8"/>
	<path fill="#F9BD91" d="M170.2,167c20.1,7.8,22.6-1.1,22.3-4.4c-0.2-3.4-12.1-3.7-12.1-3.7s4.9,0.6,4.7-2c-0.2-2.6-6-3.5-6-3.5
		s-9.3-2.4-11.3,3.9C165.9,163.5,170.2,167,170.2,167z"/>
	<path fill="#F9BD91" d="M355.4,135.7c-20.8-5.9-17.3-14.5-15.1-17c2.2-2.5,11.9,4.3,11.9,4.3s-4.3-2.5-2.6-4.4
		c1.7-1.9,6.9,0.8,6.9,0.8s8.9,3.8,6.7,9.9C361,135.5,355.4,135.7,355.4,135.7z"/>
	<polygon fill="#D9DA8B" points="394.6,77.6 425.3,88.8 425.3,129.5 394.6,147.9 351.1,142.6 355.7,120.9 368.9,123.2 354.5,76.2 	
		"/>
	<polygon fill="#F5F1D3" points="400.5,79.8 380.3,102.6 371.6,76.8 390.5,76.2 	"/>
	<path fill="#F9BD91" d="M371.6,41.2l0.4,30.3l4.6-0.1l0.1,10c0,0,5.3,10.1,17.8-0.2l-0.3-20.7c0,0,3.8-0.8,3.8-5.2
		s-4.4-2.2-4.4-2.2l0.1-14.3L371.6,41.2z"/>
	<path fill="#5F2B00" d="M398.1,59c0,0,14.1,14,11.7,21.7c-2.4,7.7-17.7,26.9-9.4,40c0,0-17.9-5.2-8.9-24.7c9-19.6,3-19.8,3-19.8
		l-0.2-15.7L398.1,59z"/>
	<path fill="#5F2B00" d="M376.8,81.5c0,0-11.4,17.5-3.9,34c0,0-10.5-14.2-9.3-27.5C364.7,74.7,372,70,372,70l0,1.6l4.6-0.1
		L376.8,81.5z"/>
	<path fill="#5F2B00" d="M393.7,53.1l-0.1-9.7c0,0-0.5-4.2-10.2-2.3l-3,1.4l-6.3,0.2l-2.3-1.5c0,0-3.2-3.4,5.1-4.9
		c8.4-1.5,29.8-3.2,20.6,16.8C397.4,53.1,396.3,51.5,393.7,53.1z"/>
	<polyline fill="#5F2B00" points="393.7,53.1 394.4,64.7 392,70 379.4,71.3 372,71.6 372,67.4 383.2,66.4 388.2,66.2 391.1,63.4 
		393.7,45 	"/>
	<polygon fill="#5F2B00" points="376.2,58.3 376.2,60.3 381,61.1 382,66.5 382,59.7 	"/>
	<polygon fill="#5F2B00" points="376.4,58.3 376.4,60.3 372.5,61.1 371.6,66.5 371.6,59.7 	"/>
	<path d="M270.8,113.1c20.5,6.7,22.5-2.4,22-5.7c-0.4-3.3-12.3-3-12.3-3s5,0.3,4.6-2.3c-0.4-2.5-6.1-3.2-6.1-3.2s-9.5-1.8-11.1,4.5
		C266.3,109.9,270.8,113.1,270.8,113.1z"/>
</g>
</svg>
