<?xml version="1.0" encoding="utf-8"?>
<!-- Generator: Adobe Illustrator 18.0.0, SVG Export Plug-In . SVG Version: 6.00 Build 0)  -->
<!DOCTYPE svg PUBLIC "-//W3C//DTD SVG 1.1//EN" "http://www.w3.org/Graphics/SVG/1.1/DTD/svg11.dtd">
<svg version="1.1" id="Layer_1" xmlns="http://www.w3.org/2000/svg" xmlns:xlink="http://www.w3.org/1999/xlink" x="0px" y="0px"
	 viewBox="0 0 1048.3 612.4" enable-background="new 0 0 1048.3 612.4" xml:space="preserve">
<g>
	<path fill="#F9BD91" d="M921.4,230.2v50.2h-7.6V297c0,0-8.6,16.9-29.6,0v-34.3c0,0-6.4-1.3-6.4-8.6c0-7.3,7.3-3.8,7.3-3.8v-20
		H921.4z"/>
	<polygon fill="#8B5E3C" points="877.2,591.1 875.1,601 866.5,601 866.5,591.1 	"/>
	<path fill="#231F20" d="M866.5,601h8.6c0,0,3.3,10.8-7.8,11.4h-14.5c0,0-3.2-6.8,5.4-7.3C858.3,605.1,865.7,603.8,866.5,601z"/>
	<polygon fill="#8B5E3C" points="915.7,591.1 917.8,601 926.4,601 926.4,591.1 	"/>
	<path fill="#231F20" d="M926.4,601h-8.6c0,0-3.3,10.8,7.8,11.4h14.5c0,0,3.2-6.8-5.4-7.3C934.7,605.1,927.2,603.8,926.4,601z"/>
	<path fill="#E6E7E8" d="M895.1,265.5h25.1c0,0-4.5-7.8-12.6-7.8C899.5,257.7,895.1,265.5,895.1,265.5z"/>
	<path fill="#E6E7E8" d="M895.1,265.5l-1.2,1.4c0,0,11.1,1.9,14.5-1.4c0,0,8.5,1.7,12.6,1.4l-1-1.7
		C920,265.1,902.8,263.5,895.1,265.5z"/>
	<polygon fill="#C19368" points="868.9,416.8 865.5,591.1 877.9,591.1 902.3,448.3 915.7,591.1 927.7,591.1 932.2,415.9 	"/>
	<path fill="#2B3990" d="M852.4,298.2c0,0,31.2-17.5,93.8,0l-11.8,117.9c0,0-25.7,1.8-67.7-0.3L852.4,298.2z"/>
	<polygon fill="#8B5E3C" points="877.2,591.1 875.1,601 866.5,601 866.5,591.1 	"/>
	<path fill="#231F20" d="M866.5,601h8.6c0,0,3.3,10.8-7.8,11.4h-14.5c0,0-3.2-6.8,5.4-7.3C858.3,605.1,865.7,603.8,866.5,601z"/>
	<polygon fill="#8B5E3C" points="915.7,591.1 917.8,601 926.4,601 926.4,591.1 	"/>
	<path fill="#231F20" d="M926.4,601h-8.6c0,0-3.3,10.8,7.8,11.4h14.5c0,0,3.2-6.8-5.4-7.3C934.7,605.1,927.2,603.8,926.4,601z"/>
	<polygon fill="#F1F2F2" points="865.5,416.2 859.7,489.9 898.8,489.9 901.3,461.1 903.9,489.9 934.7,489.9 934.4,416.2 	"/>
	<polygon fill="#BE1E2D" points="865.5,547 885.5,547 875.6,603.3 865.5,603.3 	"/>
	<polygon fill="#BE1E2D" points="928.8,548.2 910.9,548.3 916.4,602.1 927.7,602.1 	"/>
	<path fill="#F1F2F2" d="M883.5,300l16.1,26.7l15.8-26.7h17.8c0,0-4.8-12.4-22.1-14c-17.3-1.6-36.3-2.2-42.5,13.8L883.5,300z"/>
	<path fill="#C19368" d="M921.4,230.2v50.2h-7.6V297c0,0-8.6,16.9-29.6,0v-34.3c0,0-6.4-1.3-6.4-8.6c0-7.3,7.3-3.8,7.3-3.8v-20
		H921.4z"/>
	<path fill="#231F20" d="M885.1,250.2v2.9h2.9h1v-9.5c0,0,5.7-1.5,6-4.7c0.3-3.2,0-6,0-6h25.1l1.2,4c0,0,2.1-6.1-1.2-9.4
		c-3.3-3.3-38.7-5-43.5,8c0,0-0.8,17.4,1.3,20.4c0,0-1.5-6.3,2.9-6.5C885,249.2,885.1,250.2,885.1,250.2z"/>
	<path fill="#C19368" d="M884.2,297l15.4,26.7l14.2-26.7C913.8,297,901,280.7,884.2,297z"/>
	<path fill="#C19368" d="M807.7,325.5c0,0-27.7-6.1-38.8-28.9c0,0-2.3-6.6-5.4-6.3s-1.4,6-1.4,6s-2.8-14-6.9-13.6
		s-14.1,5.2-0.7,27.5c0,0,30.6,37.7,56.9,32C811.5,342.3,828.3,326.5,807.7,325.5z"/>
	<path fill="#2B3990" d="M852.7,297.8c0,0-14.5,22.1-40.5,26.5c0,0-2.9,15.6,4.9,19.8c0,0,31.9-5.7,44.7-20.2L852.7,297.8z"/>
	<path fill="#006838" d="M818.7,343.8c0,0-7.1-10.4-3.4-20.2l-6.8,1.1c0,0-0.1,16.6,5,19.9L818.7,343.8z"/>
	<path fill="#C19368" d="M994.5,318.2c0,0,26.3-10.6,33.4-34.9c0,0,1.2-6.9,4.3-7.2s2.4,5.7,2.4,5.7s0.5-14.3,4.5-14.5
		s14.8,2.8,5.2,27c0,0-24,42.2-50.9,41C993.5,335.4,974.4,322.6,994.5,318.2z"/>
	<path fill="#2B3990" d="M945.6,298.3c0,0,17.9,19.4,44.3,19.4c0,0,5.4,14.9-1.6,20.4c0,0-32.4-0.3-47.4-12.6L945.6,298.3z"/>
	<path fill="#F1F2F2" d="M986.7,338.1c0,0,5.2-11.4,0-20.5h6.9c0,0,2.9,16.3-1.7,20.5H986.7z"/>
	<path fill="#F9BD91" d="M345.4,230.2v50.2h-7.6V297c0,0-8.6,16.9-29.6,0v-34.3c0,0-6.4-1.3-6.4-8.6c0-7.3,7.3-3.8,7.3-3.8v-20
		H345.4z"/>
	<polygon fill="#8B5E3C" points="301.2,591.1 299.1,601 290.5,601 290.5,591.1 	"/>
	<path fill="#231F20" d="M290.5,601h8.6c0,0,3.3,10.8-7.8,11.4h-14.5c0,0-3.2-6.8,5.4-7.3C282.2,605.1,289.7,603.8,290.5,601z"/>
	<polygon fill="#8B5E3C" points="339.7,591.1 341.8,601 350.4,601 350.4,591.1 	"/>
	<path fill="#231F20" d="M350.4,601h-8.6c0,0-3.3,10.8,7.8,11.4H364c0,0,3.2-6.8-5.4-7.3C358.6,605.1,351.2,603.8,350.4,601z"/>
	<path fill="#E6E7E8" d="M319.1,265.5h25.1c0,0-4.5-7.8-12.6-7.8S319.1,265.5,319.1,265.5z"/>
	<path fill="#E6E7E8" d="M319.1,265.5l-1.2,1.4c0,0,11.1,1.9,14.5-1.4c0,0,8.5,1.7,12.6,1.4l-1-1.7
		C343.9,265.1,326.8,263.5,319.1,265.5z"/>
	<polygon fill="#C19368" points="292.9,416.8 289.4,591.1 301.9,591.1 326.3,448.3 339.7,591.1 351.7,591.1 356.2,415.9 	"/>
	<path fill="#2B3990" d="M276.4,298.2c0,0,31.2-17.5,93.8,0l-11.8,117.9c0,0-25.7,1.8-67.7-0.3L276.4,298.2z"/>
	<polygon fill="#8B5E3C" points="301.2,591.1 299.1,601 290.5,601 290.5,591.1 	"/>
	<path fill="#231F20" d="M290.5,601h8.6c0,0,3.3,10.8-7.8,11.4h-14.5c0,0-3.2-6.8,5.4-7.3C282.2,605.1,289.7,603.8,290.5,601z"/>
	<polygon fill="#8B5E3C" points="339.7,591.1 341.8,601 350.4,601 350.4,591.1 	"/>
	<path fill="#231F20" d="M350.4,601h-8.6c0,0-3.3,10.8,7.8,11.4H364c0,0,3.2-6.8-5.4-7.3C358.6,605.1,351.2,603.8,350.4,601z"/>
	<polygon fill="#F1F2F2" points="289.4,416.2 283.6,489.9 322.8,489.9 325.3,461.1 327.8,489.9 358.7,489.9 358.4,416.2 	"/>
	<polygon fill="#BE1E2D" points="289.4,547 309.4,547 299.6,603.3 289.4,603.3 	"/>
	<polygon fill="#BE1E2D" points="352.8,548.2 334.9,548.3 340.4,602.1 351.7,602.1 	"/>
	<path fill="#F1F2F2" d="M307.4,300l16.1,26.7l15.8-26.7h17.8c0,0-4.8-12.4-22.1-14c-17.3-1.6-36.3-2.2-42.5,13.8L307.4,300z"/>
	<path fill="#C19368" d="M345.4,230.2v50.2h-7.6V297c0,0-8.6,16.9-29.6,0v-34.3c0,0-6.4-1.3-6.4-8.6c0-7.3,7.3-3.8,7.3-3.8v-20
		H345.4z"/>
	<path fill="#231F20" d="M309.1,250.2v2.9h2.9h1v-9.5c0,0,5.7-1.5,6-4.7c0.3-3.2,0-6,0-6h25.1l1.2,4c0,0,2.1-6.1-1.2-9.4
		c-3.3-3.3-38.7-5-43.5,8c0,0-0.8,17.4,1.3,20.4c0,0-1.5-6.3,2.9-6.5C309,249.2,309.1,250.2,309.1,250.2z"/>
	<path fill="#C19368" d="M308.2,297l15.4,26.7l14.2-26.7C337.7,297,324.9,280.7,308.2,297z"/>
	<path fill="#C19368" d="M231.7,325.5c0,0-27.7-6.1-38.8-28.9c0,0-2.3-6.6-5.4-6.3c-3.1,0.3-1.4,6-1.4,6s-2.8-14-6.9-13.6
		c-4,0.4-14.1,5.2-0.7,27.5c0,0,30.6,37.7,56.9,32C235.5,342.3,252.2,326.5,231.7,325.5z"/>
	<path fill="#2B3990" d="M276.6,297.8c0,0-14.5,22.1-40.5,26.5c0,0-2.9,15.6,4.9,19.8c0,0,31.9-5.7,44.7-20.2L276.6,297.8z"/>
	<path fill="#006838" d="M242.7,343.8c0,0-7.1-10.4-3.4-20.2l-6.8,1.1c0,0-0.1,16.6,5,19.9L242.7,343.8z"/>
	<path fill="#C19368" d="M418.5,318.2c0,0,26.3-10.6,33.4-34.9c0,0,1.2-6.9,4.3-7.2c3.1-0.2,2.4,5.7,2.4,5.7s0.5-14.3,4.5-14.5
		c4.1-0.2,14.8,2.8,5.2,27c0,0-24,42.2-50.9,41C417.5,335.4,398.4,322.6,418.5,318.2z"/>
	<path fill="#2B3990" d="M369.6,298.3c0,0,17.9,19.4,44.3,19.4c0,0,5.4,14.9-1.6,20.4c0,0-32.4-0.3-47.4-12.6L369.6,298.3z"/>
	<path fill="#006838" d="M410.7,338.1c0,0,5.2-11.4,0-20.5h6.9c0,0,2.9,16.3-1.7,20.5H410.7z"/>
	<path fill="#F9BD91" d="M581.9,230.2v50.2h7.6V297c0,0,8.6,16.9,29.6,0v-34.3c0,0,6.4-1.3,6.4-8.6c0-7.3-7.3-3.8-7.3-3.8v-20H581.9
		z"/>
	<polygon fill="#8B5E3C" points="580,591.1 577.9,601 569.3,601 569.3,591.1 	"/>
	<path fill="#231F20" d="M569.3,601h8.6c0,0,3.3,10.8-7.8,11.4h-14.5c0,0-3.2-6.8,5.4-7.3C561,605.1,568.5,603.8,569.3,601z"/>
	<polygon fill="#8B5E3C" points="618.5,591.1 620.6,601 629.2,601 629.2,591.1 	"/>
	<path fill="#231F20" d="M629.2,601h-8.6c0,0-3.3,10.8,7.8,11.4h14.5c0,0,3.2-6.8-5.4-7.3C637.4,605.1,630,603.8,629.2,601z"/>
	<path fill="#E6E7E8" d="M608.2,265.5h-25.1c0,0,4.5-7.8,12.6-7.8C603.8,257.7,608.2,265.5,608.2,265.5z"/>
	<polygon fill="#F9BD91" points="571.7,416.8 568.2,591.1 580.7,591.1 605.1,448.3 618.5,591.1 630.5,591.1 635,415.9 	"/>
	<path fill="#2B3990" d="M555.2,298.2c0,0,31.2-17.5,93.8,0l-11.8,117.9c0,0-25.7,1.8-67.7-0.3L555.2,298.2z"/>
	<polygon fill="#8B5E3C" points="580,591.1 577.9,601 569.3,601 569.3,591.1 	"/>
	<path fill="#231F20" d="M569.3,601h8.6c0,0,3.3,10.8-7.8,11.4h-14.5c0,0-3.2-6.8,5.4-7.3C561,605.1,568.5,603.8,569.3,601z"/>
	<polygon fill="#8B5E3C" points="618.5,591.1 620.6,601 629.2,601 629.2,591.1 	"/>
	<path fill="#231F20" d="M629.2,601h-8.6c0,0-3.3,10.8,7.8,11.4h14.5c0,0,3.2-6.8-5.4-7.3C637.4,605.1,630,603.8,629.2,601z"/>
	<polygon fill="#F1F2F2" points="568.2,416.2 562.4,489.9 601.6,489.9 604.1,461.1 606.6,489.9 637.5,489.9 637.2,416.2 	"/>
	<polygon fill="#BE1E2D" points="568.2,547 588.2,547 578.4,603.3 568.2,603.3 	"/>
	<polygon fill="#BE1E2D" points="631.6,548.2 613.7,548.3 619.2,602.1 630.5,602.1 	"/>
	<path fill="#F1F2F2" d="M586.2,300l16.1,26.7l15.8-26.7H636c0,0-4.8-12.4-22.1-14c-17.3-1.6-36.3-2.2-42.5,13.8L586.2,300z"/>
	<path fill="#F9BD91" d="M581.9,230.2v50.2h7.6V297c0,0,8.6,16.9,29.6,0v-34.3c0,0,6.4-1.3,6.4-8.6c0-7.3-7.3-3.8-7.3-3.8v-20H581.9
		z"/>
	<path fill="#F9BD91" d="M587,297l15.4,26.7l14.2-26.7C616.5,297,603.7,280.7,587,297z"/>
	<path fill="#F9BD91" d="M510.5,325.5c0,0-27.7-6.1-38.8-28.9c0,0-2.3-6.6-5.4-6.3s-1.4,6-1.4,6s-2.8-14-6.9-13.6
		c-4,0.4-14.1,5.2-0.7,27.5c0,0,30.6,37.7,56.9,32C514.3,342.3,531,326.5,510.5,325.5z"/>
	<path fill="#2B3990" d="M555.4,297.8c0,0-14.5,22.1-40.5,26.5c0,0-2.9,15.6,4.9,19.8c0,0,31.9-5.7,44.7-20.2L555.4,297.8z"/>
	<path fill="#F1F2F2" d="M521.5,343.8c0,0-7.1-10.4-3.4-20.2l-6.8,1.1c0,0-0.1,16.6,5,19.9L521.5,343.8z"/>
	<path fill="#F9BD91" d="M686.7,191.7c0.6-28.7-11.7-27.7-15.7-25.9c-4.1,1.8,0.9,16.8,0.9,16.8s-1.5-6.4-4.6-5
		c-3.1,1.5-1.7,9.1-1.7,9.1s1.3,12.8,10,12.4C684.3,198.7,686.7,191.7,686.7,191.7z"/>
	<polygon fill="#2B3990" points="636,299.1 663.8,263.9 684.2,274.5 638.1,334.2 640.7,311.6 	"/>
	<polygon fill="#F9BD91" points="663.8,263.9 675.7,247.6 672.1,198.4 684.4,195.2 692.6,254.3 682.1,273.8 	"/>
	<polygon fill="#006838" points="663.8,263.9 661.2,267.2 680.5,279.3 686.4,273.7 665.4,261.7 	"/>
	<path fill="#603913" d="M614.5,236.3v21.4l3.1-0.2l0.5-7.2l2.6-0.8v-24.8c0,0-24.3-23.7-38.9,5.6c0,0-6,3.7-5,4.3
		c1,0.6,20.7-4.3,20.7-4.3l-4.5,4.3l21.7-3L614.5,236.3z"/>
	<path fill="#F9BD91" d="M764.2,230.2v50.2h-7.6V297c0,0-8.6,16.9-29.6,0v-34.3c0,0-6.4-1.3-6.4-8.6c0-7.3,7.3-3.8,7.3-3.8v-20
		H764.2z"/>
	<polygon fill="#8B5E3C" points="766.1,591.1 768.2,601 776.8,601 776.8,591.1 	"/>
	<path fill="#231F20" d="M776.8,601h-8.6c0,0-3.3,10.8,7.8,11.4h14.5c0,0,3.2-6.8-5.4-7.3C785.1,605.1,777.6,603.8,776.8,601z"/>
	<polygon fill="#8B5E3C" points="727.6,591.1 725.5,601 716.9,601 716.9,591.1 	"/>
	<path fill="#231F20" d="M716.9,601h8.6c0,0,3.3,10.8-7.8,11.4h-14.5c0,0-3.2-6.8,5.4-7.3C708.7,605.1,716.1,603.8,716.9,601z"/>
	<path fill="#E6E7E8" d="M737.9,265.5H763c0,0-4.5-7.8-12.6-7.8C742.3,257.7,737.9,265.5,737.9,265.5z"/>
	<polygon fill="#F9BD91" points="774.4,416.8 777.9,591.1 765.4,591.1 741,448.3 727.6,591.1 715.6,591.1 711.1,415.9 	"/>
	<path fill="#2B3990" d="M790.9,298.2c0,0-31.2-17.5-93.8,0l11.8,117.9c0,0,25.7,1.8,67.7-0.3L790.9,298.2z"/>
	<polygon fill="#8B5E3C" points="766.1,591.1 768.2,601 776.8,601 776.8,591.1 	"/>
	<path fill="#231F20" d="M776.8,601h-8.6c0,0-3.3,10.8,7.8,11.4h14.5c0,0,3.2-6.8-5.4-7.3C785.1,605.1,777.6,603.8,776.8,601z"/>
	<polygon fill="#8B5E3C" points="727.6,591.1 725.5,601 716.9,601 716.9,591.1 	"/>
	<path fill="#231F20" d="M716.9,601h8.6c0,0,3.3,10.8-7.8,11.4h-14.5c0,0-3.2-6.8,5.4-7.3C708.7,605.1,716.1,603.8,716.9,601z"/>
	<polygon fill="#F1F2F2" points="777.9,416.2 783.7,489.9 744.5,489.9 742,461.1 739.5,489.9 708.6,489.9 708.9,416.2 	"/>
	<polygon fill="#BE1E2D" points="777.9,547 757.9,547 767.7,603.3 777.9,603.3 	"/>
	<polygon fill="#BE1E2D" points="714.5,548.2 732.4,548.3 726.9,602.1 715.6,602.1 	"/>
	<path fill="#F1F2F2" d="M759.9,300l-16.1,26.7L727.9,300h-17.8c0,0,4.8-12.4,22.1-14c17.3-1.6,36.3-2.2,42.5,13.8L759.9,300z"/>
	<path fill="#F9BD91" d="M764.2,230.2v50.2h-7.6V297c0,0-8.6,16.9-29.6,0v-34.3c0,0-6.4-1.3-6.4-8.6c0-7.3,7.3-3.8,7.3-3.8v-20
		H764.2z"/>
	<path fill="#F9BD91" d="M759.1,297l-15.4,26.7L729.6,297C729.6,297,742.4,280.7,759.1,297z"/>
	<path fill="#F9BD91" d="M835.6,325.5c0,0,27.7-6.1,38.8-28.9c0,0,2.3-6.6,5.4-6.3s1.4,6,1.4,6s2.8-14,6.9-13.6
		c4,0.4,14.1,5.2,0.7,27.5c0,0-30.6,37.7-56.9,32C831.8,342.3,815.1,326.5,835.6,325.5z"/>
	<path fill="#2B3990" d="M790.7,297.8c0,0,14.5,22.1,40.5,26.5c0,0,2.9,15.6-4.9,19.8c0,0-31.9-5.7-44.7-20.2L790.7,297.8z"/>
	<path fill="#F1F2F2" d="M824.6,343.8c0,0,7.1-10.4,3.4-20.2l6.8,1.1c0,0,0.1,16.6-5,19.9L824.6,343.8z"/>
	<path fill="#F9BD91" d="M659.4,191.7c-0.6-28.7,11.7-27.7,15.7-25.9c4.1,1.8-0.9,16.8-0.9,16.8s1.5-6.4,4.6-5
		c3.1,1.5,1.7,9.1,1.7,9.1s-1.3,12.8-10,12.4C661.8,198.7,659.4,191.7,659.4,191.7z"/>
	<polygon fill="#2B3990" points="710.1,299.1 682.3,263.9 661.9,274.5 708,334.2 705.4,311.6 	"/>
	<polygon fill="#F9BD91" points="682.3,263.9 670.4,247.6 674,198.4 661.7,195.2 653.5,254.3 664,273.8 	"/>
	<polygon fill="#F1F2F2" points="682.3,263.9 684.9,267.2 665.6,279.3 659.7,273.7 680.7,261.7 	"/>
	<path fill="#231F20" d="M727.9,250.2l4.5,2.8v-21.1c0,0,24.4,11.4,35.4,2.6c0,0,0.2-20.3-32.9-13.3s-13.6,29.7-13.6,29.7
		L727.9,250.2z"/>
	<path fill="#F9BD91" d="M173.5,230.2v50.2h-7.6V297c0,0-8.6,16.9-29.6,0v-34.3c0,0-6.4-1.3-6.4-8.6c0-7.3,7.3-3.8,7.3-3.8v-20
		H173.5z"/>
	<polygon fill="#8B5E3C" points="129.3,591.1 127.3,601 118.7,601 118.7,591.1 	"/>
	<path fill="#231F20" d="M118.7,601h8.6c0,0,3.3,10.8-7.8,11.4H105c0,0-3.2-6.8,5.4-7.3C110.4,605.1,117.9,603.8,118.7,601z"/>
	<polygon fill="#8B5E3C" points="167.9,591.1 169.9,601 178.5,601 178.5,591.1 	"/>
	<path fill="#231F20" d="M178.5,601h-8.6c0,0-3.3,10.8,7.8,11.4h14.5c0,0,3.2-6.8-5.4-7.3C186.8,605.1,179.3,603.8,178.5,601z"/>
	<path fill="#E6E7E8" d="M147.2,265.5h25.1c0,0-4.5-7.8-12.6-7.8S147.2,265.5,147.2,265.5z"/>
	<path fill="#E6E7E8" d="M147.2,265.5l-1.2,1.4c0,0,11.1,1.9,14.5-1.4c0,0,8.5,1.7,12.6,1.4l-1-1.7
		C172.1,265.1,154.9,263.5,147.2,265.5z"/>
	<polygon fill="#936845" points="121.1,416.8 117.6,591.1 130.1,591.1 154.5,448.3 167.9,591.1 179.8,591.1 184.4,415.9 	"/>
	<path fill="#2B3990" d="M104.5,298.2c0,0,31.2-17.5,93.8,0l-11.8,117.9c0,0-25.7,1.8-67.7-0.3L104.5,298.2z"/>
	<polygon fill="#8B5E3C" points="129.3,591.1 127.3,601 118.7,601 118.7,591.1 	"/>
	<path fill="#231F20" d="M118.7,601h8.6c0,0,3.3,10.8-7.8,11.4H105c0,0-3.2-6.8,5.4-7.3C110.4,605.1,117.9,603.8,118.7,601z"/>
	<polygon fill="#8B5E3C" points="167.9,591.1 169.9,601 178.5,601 178.5,591.1 	"/>
	<path fill="#231F20" d="M178.5,601h-8.6c0,0-3.3,10.8,7.8,11.4h14.5c0,0,3.2-6.8-5.4-7.3C186.8,605.1,179.3,603.8,178.5,601z"/>
	<polygon fill="#F1F2F2" points="117.6,416.2 111.8,489.9 151,489.9 153.5,461.1 156,489.9 186.9,489.9 186.6,416.2 	"/>
	<polygon fill="#BE1E2D" points="117.6,547 137.6,547 127.7,603.3 117.6,603.3 	"/>
	<polygon fill="#BE1E2D" points="180.9,548.2 163,548.3 168.5,602.1 179.8,602.1 	"/>
	<path fill="#F1F2F2" d="M135.6,300l16.1,26.7l15.8-26.7h17.8c0,0-4.8-12.4-22.1-14c-17.3-1.6-36.3-2.2-42.5,13.8L135.6,300z"/>
	<path fill="#936845" d="M173.5,230.2v50.2h-7.6V297c0,0-8.6,16.9-29.6,0v-34.3c0,0-6.4-1.3-6.4-8.6c0-7.3,7.3-3.8,7.3-3.8v-20
		H173.5z"/>
	<path fill="#936845" d="M136.3,297l15.4,26.7l14.2-26.7C165.9,297,153.1,280.7,136.3,297z"/>
	<path fill="#936845" d="M59.9,325.5c0,0-27.7-6.1-38.8-28.9c0,0-2.3-6.6-5.4-6.3s-1.4,6-1.4,6s-2.8-14-6.9-13.6
		c-4,0.4-14.1,5.2-0.7,27.5c0,0,30.6,37.7,56.9,32C63.7,342.3,80.4,326.5,59.9,325.5z"/>
	<path fill="#2B3990" d="M104.8,297.8c0,0-14.5,22.1-40.5,26.5c0,0-2.9,15.6,4.9,19.8c0,0,31.9-5.7,44.7-20.2L104.8,297.8z"/>
	<path fill="#F1F2F2" d="M70.9,343.8c0,0-7.1-10.4-3.4-20.2l-6.8,1.1c0,0-0.1,16.6,5,19.9L70.9,343.8z"/>
	<path fill="#936845" d="M246.7,318.2c0,0,26.3-10.6,33.4-34.9c0,0,1.2-6.9,4.3-7.2c3.1-0.2,2.4,5.7,2.4,5.7s0.5-14.3,4.5-14.5
		c4.1-0.2,14.8,2.8,5.2,27c0,0-24,42.2-50.9,41C245.7,335.4,226.6,322.6,246.7,318.2z"/>
	<path fill="#2B3990" d="M197.8,298.3c0,0,17.9,19.4,44.3,19.4c0,0,5.4,14.9-1.6,20.4c0,0-32.4-0.3-47.4-12.6L197.8,298.3z"/>
	<path fill="#F1F2F2" d="M238.8,338.1c0,0,5.2-11.4,0-20.5h6.9c0,0,2.9,16.3-1.7,20.5H238.8z"/>
	<path fill="#936845" d="M137.3,250.2l2.5-15.8l33.8-1.7c0,0,2.6-12.1-20.4-11.9c-23.1,0.2-18.8,28.7-18.8,28.7"/>
	<polygon fill="#2B3990" points="428.6,263.7 411.2,217.5 386.3,221.9 414.7,299.8 419.5,275.3 	"/>
	<polygon fill="#F9BD91" points="411.2,217.5 404.1,196.5 424.2,146 412.4,138.6 384.2,197.9 388.7,221.9 	"/>
	<polygon fill="#F1F2F2" points="411.2,217.5 412.8,221.9 388.5,228.1 384.2,220.3 410.2,214.7 	"/>
	<path fill="#F9BD91" d="M502.3,132.4c-9-30.3-21.4-25.2-25.1-21.9c-3.7,3.3,6.5,17.3,6.5,17.3s-3.8-6.2-6.5-3.7s1.2,10.1,1.2,10.1
		s5.6,13,14.7,9.7C502.1,140.5,502.3,132.4,502.3,132.4z"/>
	<polygon fill="#2B3990" points="484.9,262 502.3,215.8 527.2,220.1 498.8,298 494,273.5 	"/>
	<polygon fill="#F9BD91" points="502.3,215.8 509.4,194.8 489.3,144.3 501.1,136.9 529.3,196.2 524.8,220.1 	"/>
	<polygon fill="#F1F2F2" points="502.3,215.8 500.7,220.1 524.9,226.3 529.3,218.6 503.3,212.9 	"/>
	<path fill="#F9BD91" d="M478.8,191.8v55.3h-8.4v18.2c0,0-9.4,18.5-32.5,0v-37.8c0,0-7-1.4-7-9.4c0-8,8-4.2,8-4.2v-22H478.8z"/>
	<polygon fill="#8B5E3C" points="430.2,589 427.9,599.8 418.5,599.8 418.5,589 	"/>
	<path fill="#231F20" d="M418.5,599.8h9.4c0,0,3.7,11.9-8.6,12.6h-15.9c0,0-3.5-7.5,5.9-8C409.4,604.4,417.6,603,418.5,599.8z"/>
	<polygon fill="#8B5E3C" points="472.6,589 474.9,599.8 484.3,599.8 484.3,589 	"/>
	<path fill="#231F20" d="M484.3,599.8h-9.4c0,0-3.7,11.9,8.6,12.6h15.9c0,0,3.5-7.5-5.9-8C493.4,604.4,485.2,603,484.3,599.8z"/>
	<path fill="#E6E7E8" d="M449.9,230.6h27.6c0,0-4.9-8.6-13.8-8.6C454.8,222.1,449.9,230.6,449.9,230.6z"/>
	<path fill="#E6E7E8" d="M449.9,230.6l-1.3,1.5c0,0,12.2,2.1,15.9-1.5c0,0,9.4,1.8,13.9,1.5l-1.1-1.9
		C477.3,230.2,458.4,228.4,449.9,230.6z"/>
	<polygon fill="#F9BD91" points="421.1,397.2 417.3,589 431,589 457.8,431.9 472.6,589 485.7,589 490.7,396.2 	"/>
	<path fill="#2B3990" d="M402.9,266.7c0,0,34.3-19.2,103.2,0l-13,129.8c0,0-28.3,2-74.5-0.3L402.9,266.7z"/>
	<polygon fill="#8B5E3C" points="430.2,589 427.9,599.8 418.5,599.8 418.5,589 	"/>
	<path fill="#231F20" d="M418.5,599.8h9.4c0,0,3.7,11.9-8.6,12.6h-15.9c0,0-3.5-7.5,5.9-8C409.4,604.4,417.6,603,418.5,599.8z"/>
	<polygon fill="#8B5E3C" points="472.6,589 474.9,599.8 484.3,599.8 484.3,589 	"/>
	<path fill="#231F20" d="M484.3,599.8h-9.4c0,0-3.7,11.9,8.6,12.6h15.9c0,0,3.5-7.5-5.9-8C493.4,604.4,485.2,603,484.3,599.8z"/>
	<polygon fill="#F1F2F2" points="417.3,396.4 410.9,477.6 454,477.6 456.7,445.9 459.5,477.6 493.5,477.6 493.1,396.4 	"/>
	<polygon fill="#BE1E2D" points="417.3,540.4 439.3,540.4 428.4,602.3 417.3,602.3 	"/>
	<polygon fill="#BE1E2D" points="487,541.8 467.3,541.9 473.3,601.1 485.7,601 	"/>
	<path fill="#F1F2F2" d="M437.1,268.7l17.8,29.4l17.4-29.4h19.6c0,0-5.2-13.6-24.3-15.4c-19.1-1.7-39.9-2.4-46.7,15.2L437.1,268.7z"
		/>
	<path fill="#F9BD91" d="M478.8,191.8v55.3h-8.4v18.2c0,0-9.4,18.5-32.5,0v-37.8c0,0-7-1.4-7-9.4c0-8,8-4.2,8-4.2v-22H478.8z"/>
	<path fill="#F9BD91" d="M437.9,265.3l17,29.4l15.6-29.4C470.4,265.3,456.3,247.4,437.9,265.3z"/>
	<path fill="#F9BD91" d="M407,134.1c9-30.3,21.4-25.2,25.1-21.9s-6.5,17.3-6.5,17.3s3.8-6.2,6.5-3.7c2.8,2.6-1.2,10.1-1.2,10.1
		s-5.6,13-14.7,9.7C407.2,142.3,407,134.1,407,134.1z"/>
	<path fill="#F9BD91" d="M440.8,217.5l-0.6-19.7l38.9-2c0,0,3-13.9-23.5-13.7c-26.6,0.2-21.6,33.1-21.6,33.1"/>
	<polygon fill="#BE1E2D" points="109.4,338.1 194.2,338.1 192.8,353.7 111.8,353.7 	"/>
	<g>
		<ellipse fill="#FF9300" cx="457" cy="29.9" rx="28.3" ry="29.9"/>
		<path fill="#FF9300" d="M468.1,120.4c0,0,4.7-7,4.9-10c0.2-3-3.3-7.5-3.3-11.7c0-4.1,6.5-16.3,6.9-21.4c0.4-5.1-1.8-17.5-1.8-17.5
			l3.2-14.5l-9.9-7.6L455,70.4l5,34.2L468.1,120.4z"/>
		<path fill="#FCB000" d="M477.3,36c0,0-1.3-8.4-7.6-9.5C466,21,458,20.8,454.1,21c-4,0.2-6.5,0-5.9-4.6c0.4-1.5,0,0.2-1.9,0
			c-1.9-0.2-2.8-2.7-0.8-3.6c2-1,4-2.9,6.3,0c1.1,1.7,2.1-0.2,0.8-1.9c5-1.7,6-4.2,8.3-5.5c3.7-0.4,5.3-2.7,5.3-2.7
			s-0.5-1.1-3.8-2.1c-3.6-1-18.1-2.5-28.2,10.7c0,0,2.6,5.3,3.5,5.9s0-2.7,0-3.1c0-0.5,0.7,1.9,2.2,3.2c1.4,1.3,3.6,1.6,5.4,2
			c1.8,0.4,5.4,4.4,5.4,4.4s-1.9,9.1,1.9,10.8c3.7,1.7,4.3,13.3,4.3,13.3s11.5,4.9,12.1,4.6c0.5-0.4,0.9,9.9,4.1,11.2
			c3.2,1.3,8.8-13.7,8.1-22.8"/>
		<path fill="#FCB000" d="M441,65.9c0,0-1.4,12-2.5,16.6c-0.6,2.2,6.8,15.1,8.2,16.2c7.1-6,7.4-16.4,7.4-16.4L441,65.9z"/>
		<path fill="#FFB000" d="M432.5,53.7c0,0,9.4,7.2,14,38.8c7.4-8.1,9.5-45.1,9.5-45.1s-13.7-9.3-15.1-14.5
			C437.9,50.4,435.3,51,432.5,53.7z"/>
		<path fill="#F8CF00" d="M432.9,47.6l-0.4,6.1c0,0,7.1-3.8,9.2-20.8C435.5,46.7,432.9,47.6,432.9,47.6z"/>
		<ellipse fill="#F9D100" cx="457.9" cy="50.3" rx="5.4" ry="5.7"/>
		<path fill="#FCB000" d="M450.8,15.1c0,0-0.1-0.6,1.7,0c1.7,0.6,4.1,0.8,4.3,0c0.2-0.8-2.2,0.3-2.7-0.3c-0.5-0.5-4,0-4,0"/>
		<path fill="#F9D100" d="M471.4,146.8h-15.7C462.6,146.8,467.7,146.8,471.4,146.8z"/>
		<path fill="#F9D100" d="M471.4,118.4c3.1-5.1,0.7-14.3-1.4-18.8s-10.1-21.7-3.4-37.3c6.7-15.6,10.6-25.4,10.6-25.4
			s3.1-2.3,2.2-6.3c1.4-1.9,0.9-3.1,0.9-3.1l-3.4-1.5l-2.7,5.3c0,0,0.5,2.5,0.5,3.4c0,1-8.1,17.5-8.1,17.5s-5.5,10-6.3,1.3
			c-0.8-8.7-5.6,0.1-5.6,0.1s0.6,4.9-3.9,1.5c-2.3-5.7-9.3-18.1-9.3-18.1s1.6-3.9,0-5.8s-2.7-4.4-2.7-4.4H435c0,0,0.2,6.4,2.3,9.9
			c2.2,3.4,9.7,25.2,11.3,32.2c1.6,7,0.2,27-7.9,39.1c4.1,6.7,5,7.1,5,7.1l-4.1,3.9c0,0-1.2,3.8-2.9,10.8h35.6
			C473.1,122.8,472,121.6,471.4,118.4z"/>
		<path fill="#F9D100" d="M437.4,138.8c-0.7,0-1.5,0-2.3,5h43.4c-0.8-5-1.7-5-2.6-5H437.4z"/>
		<path fill="#006C23" d="M481.1,145v-0.4c0,0-1.6,0.3-9.7,0.4H481.1z"/>
		<path fill="#006C23" d="M432.5,144.6c9.4,0.2,17,0.3,23.2,0.4h15.7c8.1-0.1,9.7-0.4,9.7-0.4s-1.1-2.3-2.6-5.7h-43.4
			C434.2,141.2,433.3,143.3,432.5,144.6z"/>
		<path fill="#006C23" d="M474.4,128.3h-35.6c-0.4,1.4-0.9,3-1.3,4.4h38.5C475.4,131.4,474.8,129.7,474.4,128.3z"/>
		<g>
			<path fill="#FF9400" d="M454,68.4c-1.6,0-3-1.2-3-1.3l0.5-0.6c0,0,1.5,1.3,2.9,1.1c0.6-0.1,1.1-0.4,1.5-1l0.6,0.4
				c-0.5,0.8-1.2,1.2-2,1.3C454.3,68.4,454.1,68.4,454,68.4z"/>
		</g>
		<g>
			<path fill="#FF9400" d="M441.5,118.9l0.2-0.7c6.1-4.5,12.4-15.1,13-16.1l0.9-9.6l0.7,0.1l-0.9,9.9
				C455,102.9,448.3,115,441.5,118.9z"/>
		</g>
		<g>
			<polygon fill="#FF9400" points="457.7,105.5 454.7,102.5 455.2,101.9 458.2,105 			"/>
		</g>
		<rect x="429.7" y="146.8" fill="#131313" width="55.2" height="0"/>
	</g>
	<polygon fill="#BE1E2D" points="280.4,332.6 366.7,332.6 365.2,348.2 282.4,348.2 	"/>
	<polygon fill="#BE1E2D" points="406.9,305 502.2,305 500.5,322.2 409.2,322.2 	"/>
	<polygon fill="#BE1E2D" points="558.9,332.6 645.2,332.6 643.7,348.2 560.9,348.2 	"/>
	<polygon fill="#BE1E2D" points="700.1,332.6 786.4,332.6 784.9,348.2 702.1,348.2 	"/>
	<polygon fill="#BE1E2D" points="857.8,340.4 944.1,340.4 942.6,356 859.8,356 	"/>
</g>
</svg>
