<?xml version="1.0" encoding="utf-8"?>
<!-- Generator: Adobe Illustrator 18.0.0, SVG Export Plug-In . SVG Version: 6.00 Build 0)  -->
<!DOCTYPE svg PUBLIC "-//W3C//DTD SVG 1.1//EN" "http://www.w3.org/Graphics/SVG/1.1/DTD/svg11.dtd">
<svg version="1.1" id="Layer_1" xmlns="http://www.w3.org/2000/svg" xmlns:xlink="http://www.w3.org/1999/xlink" x="0px" y="0px"
	 viewBox="0 0 231.8 198.8" enable-background="new 0 0 231.8 198.8" xml:space="preserve">
<rect x="-4.1" y="0" fill="#8B8C8C" width="0.4" height="0.9"/>
<g>
	<rect x="0" y="0.9" fill="#CCD8DC" width="231.8" height="97.2"/>
	<rect x="3.5" y="98.1" fill="#2C3739" width="224.5" height="4.1"/>
	<rect x="0" y="102.2" fill="#5B5B56" width="231.8" height="27.5"/>
	<g>
		<path fill="#465C93" d="M77.7,66.8c0-0.2,0-0.3,0-0.5c0-0.1,0-0.3,0-0.4c0-0.1,0-0.1,0-0.2c0-0.2,0-0.5-0.1-0.7c0-0.2,0-0.3,0-0.5
			c0-0.1,0-0.3,0-0.4c0-0.2,0-0.3,0-0.5c0-0.1,0-0.3,0-0.4c0-0.1,0-0.3,0-0.4c0-0.2,0-0.3,0-0.5c0-0.1,0-0.3,0-0.4
			c0-0.2,0-0.3,0-0.5c0-0.2,0-0.3,0-0.5c0-0.1,0-0.3,0-0.4c0-0.1,0-0.3,0-0.4c0-0.2,0-0.3,0-0.5c0-0.2,0-0.3,0-0.5
			c0-0.1,0-0.3,0-0.4c0-0.1,0-0.1,0-0.2c0,0,0-0.1,0-0.1c0-0.1,0-0.1,0-0.1c0-0.1,0-0.3,0-0.4c0-0.1,0-0.3,0-0.4c0-0.2,0-0.3,0-0.5
			c0-0.2,0-0.3,0-0.5c0-0.1,0-0.3,0-0.4c0-0.2,0-0.3,0-0.5c0-0.1,0-0.3,0-0.4c0-0.2,0-0.3,0-0.5c0-0.1,0-0.3,0-0.4
			c0-0.1,0-0.3,0-0.4c0-0.2,0-0.3,0-0.5c0-0.2,0-0.3,0-0.5c0-0.1,0-0.3,0-0.4c0-0.2,0-0.3,0-0.5c0-0.1,0-0.3,0-0.4
			c0-0.2,0-0.3,0-0.5c0-0.4,0-0.7-0.1-1.1c0,0-0.1-0.1-0.1-0.1c0-0.6,0-1.1,0-1.7c0.1,0,0.1-0.1,0.2-0.2c0.3-0.5,0.6-1,1.1-1.3
			c0.5-0.4,1.1-0.6,1.7-0.5c7.8,0,15.6,0,23.3,0.1c0.9,0,1.8,0,2.7,0c0.3,0,0.5,0.1,0.6,0.3c0.2,0.3,0.2,0.3,0.5,0
			c1.2-1.1,2.2-2.4,3.2-3.6c2-2.7,3.8-5.5,5.4-8.4c1-1.7,1.9-3.5,2.8-5.3c0.1-0.2,0.1-0.4,0.1-0.7c0-3.5-0.1-7-0.1-10.5
			c0-0.3,0.1-0.6,0.3-0.9c0.3-0.4,0.7-0.8,1.1-1.2c0,0,0.1,0,0.1-0.1c0.1-0.1,0.1-0.1,0.2-0.2c0,0,0.1,0,0.1-0.1
			c0.1-0.1,0.1-0.1,0.2-0.1c0,0,0.1,0,0.1-0.1c0.2-0.2,0.5-0.3,0.7-0.4c0,0,0.1,0,0.1,0c0.1-0.1,0.3-0.1,0.4-0.2
			c0.1,0,0.1,0,0.2-0.1c0.1,0,0.1,0,0.2-0.1c0.1,0,0.3,0,0.4-0.1c0.1-0.1,0.2-0.1,0.3-0.1c0.1,0,0.1,0,0.2,0c0.1,0,0.1,0,0.2,0
			c0.2,0,0.4,0,0.6-0.1c0.1,0,0.2,0,0.3,0c0.1,0.1,0.2,0,0.3,0c0.4-0.1,0.8-0.1,1.2,0c0.1,0,0.2,0,0.3,0c0.1,0,0.2,0,0.3,0
			c0.1,0.1,0.1,0.1,0.2,0c0.1,0,0.2,0,0.3,0c0.1,0.1,0.2,0.1,0.2,0c0.1,0,0.1,0,0.2,0c0,0.1,0.1,0.1,0.1,0c0,0,0.1,0,0.1,0
			c0,0.1,0.1,0.1,0.1,0c0,0,0.1,0,0.1,0c0.1,0.1,0.1,0.1,0.2,0.1c0.1,0,0.3,0.1,0.4,0.1c0,0,0,0,0.1,0c0.1,0,0.2,0.1,0.3,0.1
			c0.1,0.1,0.1,0.1,0.2,0.1c0,0,0.1,0,0.1,0c0,0,0,0,0.1,0c0,0,0.1,0,0.1,0.1c0,0.1,0.1,0.1,0.1,0.1c0,0,0,0,0.1,0c0,0,0,0,0.1,0
			c0,0,0,0,0.1,0c0,0,0,0,0.1,0c0.1,0,0.2,0.1,0.2,0.1c0,0,0,0.1,0.1,0.1c0.2,0.1,0.3,0.2,0.4,0.4c0,0,0,0.1,0.1,0.1c0,0,0,0,0,0
			c0,0,0,0.1,0.1,0.1c0.1,0.1,0.1,0.2,0.2,0.3c0,0,0,0.1,0.1,0.1c0.5,0.8,0.9,1.6,1.3,2.4c1.1,2.3,2.1,4.7,2.8,7.2
			c0.5,1.9,0.6,3.8,0.4,5.7c-0.2,2.5-0.8,4.9-1.4,7.3c-0.1,0.5-0.3,1.1-0.4,1.6c-0.1,0.3-0.1,0.3,0.3,0.3c0.1,0,0.2,0,0.3,0
			c6.7,0,13.5,0,20.2,0c2.6,0,4.4,1.2,5.6,3.3c1.3,2.4,1.2,4.7-0.1,7.1c-0.5,0.9-1.2,1.7-2,2.4c-0.2,0.2-0.2,0.2-0.1,0.4
			c1,1.9,0.9,3.8,0,5.7c-0.5,1.1-1.2,2-2.1,2.8c-0.2,0.2-0.2,0.3-0.2,0.6c0.4,1.4,0.6,2.8,0.3,4.2c-0.3,1.6-1.1,3-2.3,4.1
			c-0.2,0.2-0.3,0.4-0.2,0.7c0.5,2,0.4,4-0.5,5.9c-0.3,0.7-0.7,1.3-1.2,1.8c-0.1,0.2-0.3,0.3-0.4,0.5c0,0-0.1,0-0.1,0.1
			c0,0,0,0-0.1,0.1l0,0l0,0c0,0,0,0,0,0l0,0l0,0c-0.5,0.4-1,0.8-1.5,1.2l0,0l0,0c-0.1,0.1-0.3,0.1-0.4,0.2c-0.1,0-0.1,0-0.2,0.1
			c-0.3,0.1-0.5,0.3-0.8,0.4c-0.1,0-0.1,0-0.2,0.1c-0.1,0-0.2,0.1-0.3,0.1c-0.3,0.1-0.5,0.1-0.8,0.3c-0.1,0-0.1,0-0.1,0
			c-0.1,0-0.1,0-0.1,0c-0.1,0-0.1,0-0.1,0c-0.1,0-0.1,0-0.1,0c-0.1,0-0.1,0-0.2,0c-0.1,0-0.1,0-0.2,0c-0.1,0-0.2,0-0.3,0
			c-0.2,0-0.3,0-0.5,0c-0.2,0-0.4,0-0.6,0c-10.4,0-20.9,0-31.3,0c-0.1,0-0.2,0-0.3,0c-0.1-0.1-0.2-0.1-0.4,0c-0.1,0-0.1,0-0.2,0
			c0,0-0.1-0.1-0.1,0c-0.2-0.1-0.5-0.2-0.7-0.2c-0.1-0.1-0.2-0.1-0.3-0.1c-0.1-0.1-0.3-0.2-0.4-0.2c0-0.1-0.1-0.1-0.2-0.1
			c-0.1-0.1-0.1-0.1-0.2-0.1c0-0.1-0.1-0.1-0.2-0.1c-0.1-0.1-0.2-0.1-0.3-0.2c0-0.1-0.1-0.1-0.2-0.1c-0.1-0.1-0.2-0.2-0.3-0.2
			c0,0,0-0.1-0.1,0c0,0-0.1-0.1-0.1-0.1l0,0l0,0c-0.2-0.2-0.4-0.4-0.7-0.6c0-0.1-0.1-0.1-0.1-0.1c-0.1,0-0.1,0.1,0,0.1
			c0,0.2,0,0.4,0,0.6c-0.1,0.3-0.1,0.6,0,0.9c0,0.3-0.1,0.7,0,1c-0.1,0.1-0.1,0.1,0,0.2c0,0,0,0.1,0,0.1c-0.1,0-0.1,0.1-0.1,0.2
			c0,0,0,0.1,0,0.1c0,0-0.1,0.1,0,0.1c-0.1,0.1-0.1,0.2-0.2,0.3c0,0-0.1,0-0.1,0.1c-0.1,0.2-0.3,0.3-0.4,0.5c0,0,0,0,0,0
			c-0.1,0-0.2,0.1-0.2,0.2c-0.1,0-0.2,0-0.2,0.1l0,0c-0.1,0-0.2,0-0.2,0.1c-0.1,0-0.1,0-0.2,0.1c-0.1,0-0.1,0-0.1,0
			c-0.1,0-0.1,0-0.2,0c-0.2,0-0.3,0-0.5,0c-7.7,0-15.4,0-23.1,0c-0.2,0-0.4,0-0.5,0c-0.1,0-0.1-0.1-0.2,0c0,0-0.1-0.1-0.1,0
			c-0.1,0-0.1-0.1-0.2-0.1c-0.1-0.1-0.2-0.1-0.3-0.2c0,0,0,0,0,0c0,0,0,0,0,0l0,0c0,0-0.1,0-0.1-0.1c0,0,0,0,0,0c0,0,0,0-0.1,0
			c0-0.1-0.1-0.1-0.2-0.1c-0.3-0.3-0.6-0.6-0.8-1c0-0.1-0.1-0.2-0.2-0.3c0-0.1,0-0.2-0.1-0.2c0-0.1,0-0.1,0-0.1c0,0,0-0.1,0-0.1
			c0-0.1,0-0.2,0-0.3c0-0.1,0-0.3,0-0.4c0-0.2,0-0.3,0-0.5c0-0.2,0-0.3,0-0.5c0-0.1,0-0.2,0-0.4c0-0.1,0-0.2,0-0.3
			c0-0.2,0-0.5-0.1-0.7c0-0.2,0-0.3,0-0.5c0-0.1,0-0.3,0-0.4c0-0.2,0-0.3,0-0.5c0-0.1,0-0.2,0-0.4c0-0.2,0-0.3,0-0.5
			c0-0.2,0-0.3,0-0.5c0-0.1,0-0.3,0-0.4c0-0.2,0-0.3,0-0.5c0-0.2,0-0.3,0-0.5c0-0.1,0-0.2,0-0.4c0-0.2,0-0.3,0-0.5
			c0-0.2,0-0.3,0-0.5c0-0.2,0-0.3,0-0.5c0-0.1,0-0.3,0-0.4c0-0.1,0-0.1,0-0.2c0,0,0-0.1,0-0.1c0-0.1,0-0.1,0-0.1c0-0.1,0-0.2,0-0.4
			c0-0.2,0-0.3,0-0.5c0-0.2,0-0.3,0-0.5c0-0.1,0-0.3,0-0.4c0-0.2,0-0.3,0-0.5c0-0.1,0-0.3,0-0.4c0-0.1,0-0.3,0-0.4
			c0-0.2,0-0.4,0-0.6c0-0.1,0-0.3,0-0.4c0-0.2,0-0.3,0-0.5c0-0.1,0-0.3,0-0.4c0-0.2,0-0.3,0-0.5C77.7,67.1,77.7,66.9,77.7,66.8z
			 M107.2,49.7L107.2,49.7c-0.1,0-0.2,0.1-0.2,0.1c-0.5,0.4-1.1,0.7-1.6,1.1c-0.5,0.3-0.4,0.2-0.4,0.8c0,8.3,0,16.6,0,24.8
			c0,0.1,0,0.2,0,0.3c0,0.1,0.1,0.2,0.2,0.2c0.7,0,1.4,0,2.1,0c0.1,0,0.1,0,0.2,0c0.4-0.1,0.8,0.1,1.1,0.3c1,0.6,2.1,1.3,3.1,1.8
			c0.2,0.1,0.4,0.2,0.6,0.2c0,0,0.1,0,0.1,0c0.6,0,1.1,0.1,1.7,0.1c7,0.1,13.9,0,20.9,0c0.5,0,1.1,0,1.6,0c0.1,0,0.2,0,0.2,0
			c1,0,1.9,0,2.9,0c1.4,0,2.8,0,4.2,0c0.4,0,0.8-0.1,1.2-0.3c1.1-0.5,2.1-1.3,2.9-2.2c0.4-0.5,0.8-1.1,1-1.7
			c0.4-1.1,0.3-2.2-0.4-3.1c-0.2-0.3-0.4-0.5-0.6-0.7c-0.4-0.3-0.4-0.7-0.3-1.1c0.1-0.3,0.2-0.5,0.5-0.5c0.4-0.1,0.7-0.3,1-0.5
			c1.1-0.8,1.9-1.9,2.3-3.2c0.3-0.9,0.2-1.8-0.2-2.6c-0.2-0.4-0.5-0.8-0.9-1.1c-0.2-0.2-0.3-0.4-0.3-0.6c0-0.5,0.2-0.8,0.7-1
			c0.8-0.4,1.6-0.9,2.2-1.6c1.5-1.7,1.5-4.2-0.2-6c-0.4-0.4-0.3-1.2,0.3-1.4c0.6-0.2,1.1-0.5,1.6-0.8c1.4-1.1,2.1-2.5,1.8-4.3
			c-0.2-1.7-1.7-3-3.4-3c-1,0-2,0-3.1,0c-1.7,0-3.4,0-5.1,0c-0.4,0-0.8-0.1-1.3,0c-4.2,0-8.4,0-12.7,0c-0.8,0-1.5,0-2.3,0
			c-0.1-0.2,0-0.4,0-0.5c0.7-3.3,1.4-6.7,1.9-10.1c0.1-1.1,0.2-2.3,0.3-3.4c0.1-1.2-0.2-2.3-0.4-3.4c-0.7-2.9-1.9-5.6-3.1-8.2
			c0-0.1-0.1-0.2-0.2-0.3c-0.9-0.6-1.9-0.9-3-0.8c-0.4,0-0.8,0-1.2,0.2c0,0-0.1,0-0.1,0c-0.5,0.1-0.9,0.3-1.3,0.6
			c-0.3,0.2-0.4,0.4-0.4,0.8c0,3.5,0,6.9,0,10.4c0,0.2,0,0.4-0.1,0.6c-1.5,3-3.1,5.9-4.9,8.7c-2.1,3.4-4.3,6.6-6.7,9.7
			c-0.1,0.2-0.3,0.3-0.5,0.4C108.5,48.7,107.9,49.2,107.2,49.7C107.2,49.6,107.2,49.6,107.2,49.7z M101.8,61.9
			C101.8,61.9,101.8,61.9,101.8,61.9c0-4.1,0-8.1,0-12.2c0-0.5,0.1-0.5-0.5-0.5c-7.1,0-14.1,0-21.2,0c-0.1,0-0.1,0-0.2,0
			c-0.4,0-0.4,0-0.4,0.4c0,0.3,0.1,0.6,0.1,0.8c0,0.5,0.1,0.9,0.1,1.4c0,0.3,0,0.7,0.1,1c0.1,0.7,0.1,1.5,0.2,2.2
			c0,0.5,0.1,0.9,0.1,1.4c0,0.4,0,0.7,0.1,1.1c0.1,0.4,0.1,0.8,0.1,1.3c0,0.5,0.1,0.9,0.1,1.4c0,0.3,0,0.7,0.1,1
			c0.1,0.4,0.1,0.9,0.1,1.3c0,0.5,0.1,1,0.1,1.4c0,0.3,0,0.7,0.1,1c0.1,0.4,0.1,0.8,0.1,1.3c0,0.5,0.1,0.9,0.1,1.4
			c0,0.3,0,0.7,0.1,1c0.1,0.7,0.1,1.5,0.2,2.2c0,0.5,0.1,1,0.1,1.4c0,0.3,0,0.7,0.1,1c0.1,0.4,0.1,0.9,0.1,1.3
			c0,0.5,0.1,0.9,0.1,1.4c0,0.3,0,0.7,0.1,1c0.1,0.5,0.1,1,0.1,1.4c0,0.4,0.1,0.9,0.1,1.3c0.1,0.8,0.1,1.5,0.2,2.3
			c0,0.3,0,0.3,0.3,0.3c0.1,0,0.1,0,0.2,0c6.3,0,12.6,0,18.9,0c0.5,0,0.5,0,0.5-0.5c0-2.5,0-4.9,0-7.4
			C101.7,70.1,101.8,66,101.8,61.9z"/>
		<path fill="#6C7EB4" d="M125.1,13.9c-0.1,0.1-0.2,0-0.3,0c-0.4-0.1-0.8-0.1-1.2,0c-0.1,0-0.2,0-0.3,0c0,0,0-0.1,0-0.1
			c0.6,0,1.3,0,1.9,0C125.1,13.9,125.1,13.9,125.1,13.9z"/>
		<path fill="#6C7EB4" d="M122.9,14c-0.2,0.1-0.4,0.1-0.6,0.1C122.5,14,122.7,13.9,122.9,14z"/>
		<path fill="#6C7EB4" d="M121.7,14.3c-0.1,0.1-0.2,0.1-0.4,0.1C121.4,14.3,121.5,14.2,121.7,14.3z"/>
		<path fill="#6C7EB4" d="M122.2,14.1c0,0.1-0.1,0.1-0.2,0C122,14.1,122.1,14.1,122.2,14.1z"/>
		<path fill="#6C7EB4" d="M121.1,14.4c0,0.1-0.1,0.1-0.2,0.1C121,14.5,121,14.4,121.1,14.4z"/>
		<path fill="#6C7EB4" d="M119.2,15.6C119.2,15.6,119.2,15.6,119.2,15.6C119.1,15.6,119.1,15.6,119.2,15.6z"/>
		<path fill="#6C7EB4" d="M119.5,15.4C119.5,15.4,119.4,15.4,119.5,15.4C119.4,15.4,119.4,15.4,119.5,15.4z"/>
		<path fill="#6C7EB4" d="M119.7,15.2C119.7,15.2,119.7,15.2,119.7,15.2C119.7,15.2,119.7,15.2,119.7,15.2z"/>
		<path fill="#6C7EB4" d="M120.5,14.7C120.5,14.7,120.5,14.7,120.5,14.7C120.5,14.7,120.5,14.7,120.5,14.7z"/>
		<path fill="#DBE3E6" d="M107.6,80.6c0-0.1,0-0.1,0-0.1c0.1,0,0.1,0.1,0.1,0.1C107.7,80.6,107.6,80.6,107.6,80.6z"/>
		<path fill="#6C7EB4" d="M125.6,14c-0.1,0.1-0.2,0.1-0.2,0C125.4,13.9,125.5,13.9,125.6,14z"/>
		<path fill="#6C7EB4" d="M126.1,14.1c-0.1,0-0.2,0.1-0.2,0C125.9,14,126,14,126.1,14.1z"/>
		<path fill="#6C7EB4" d="M128.1,14.7c-0.1,0-0.2,0-0.2-0.1C127.9,14.6,128,14.6,128.1,14.7z"/>
		<path fill="#6C7EB4" d="M127.1,14.3c-0.1,0-0.2,0-0.2-0.1C126.9,14.2,127,14.2,127.1,14.3z"/>
		<path fill="#6C7EB4" d="M126.4,14.1c-0.1,0.1-0.1,0-0.1,0C126.3,14.1,126.4,14.1,126.4,14.1z"/>
		<path fill="#6C7EB4" d="M126.7,14.2c-0.1,0.1-0.1,0-0.1,0C126.6,14.2,126.7,14.2,126.7,14.2z"/>
		<path fill="#6C7EB4" d="M128.5,14.9c-0.1,0-0.1,0-0.1-0.1C128.5,14.8,128.5,14.8,128.5,14.9z"/>
		<path fill="#6C7EB4" d="M129.9,16.1C129.8,16.1,129.8,16,129.9,16.1C129.9,16,129.9,16,129.9,16.1z"/>
		<path fill="#6C7EB4" d="M129.7,15.7C129.6,15.7,129.6,15.7,129.7,15.7C129.6,15.7,129.7,15.7,129.7,15.7z"/>
		<path fill="#6C7EB4" d="M129.6,15.6C129.6,15.6,129.5,15.6,129.6,15.6C129.6,15.6,129.6,15.6,129.6,15.6z"/>
		<path fill="#6C7EB4" d="M129.1,15.2C129.1,15.2,129,15.2,129.1,15.2C129.1,15.2,129.1,15.2,129.1,15.2z"/>
		<path fill="#6C7EB4" d="M128.8,15C128.8,15,128.8,15,128.8,15C128.8,15,128.8,15,128.8,15z"/>
		<path fill="#6C7EB4" d="M128.7,15C128.6,15,128.6,14.9,128.7,15C128.6,14.9,128.7,14.9,128.7,15z"/>
		<path fill="#6C7EB4" d="M128.3,14.7C128.2,14.8,128.2,14.7,128.3,14.7C128.2,14.7,128.2,14.7,128.3,14.7z"/>
		<path fill="#6C7EB4" d="M127.5,14.5C127.5,14.5,127.5,14.5,127.5,14.5C127.5,14.4,127.5,14.4,127.5,14.5z"/>
		<path fill="#ECF4F6" d="M136.6,79.5c-0.5,0-1.1,0-1.6,0c-7,0-13.9,0-20.9,0c-0.6,0-1.1,0-1.7-0.1c0,0-0.1,0-0.1,0
			c-0.2,0-0.4-0.1-0.6-0.2c-1.1-0.6-2.1-1.2-3.1-1.8c-0.3-0.2-0.7-0.4-1.1-0.3c-0.1,0-0.1,0-0.2,0c0-0.2,0-0.3,0-0.5
			c0-5.3,0-10.7,0-16c0-3.6,0-7.2,0-10.9l0,0c0,0,0,0,0.1,0c0.6-0.4,1.2-0.9,1.8-1.3c0.2-0.1,0.3-0.3,0.5-0.4
			c2.4-3.1,4.7-6.3,6.7-9.7c1.7-2.8,3.3-5.7,4.9-8.7c0.1-0.2,0.1-0.4,0.1-0.6c0-3.5,0-6.9,0-10.4c0-0.4,0.1-0.6,0.4-0.8
			c0.4-0.2,0.8-0.5,1.3-0.6c0,0,0.1,0,0.1,0c0.4-0.1,0.8-0.2,1.2-0.2c0.2,1,0.5,1.9,0.7,2.9c0.3,1.2,0.6,2.4,0.8,3.6
			c0.3,1.4,0.6,2.7,1,4.1c0.1,0.5,0.2,0.9-0.2,1.3c0,0,0,0,0,0.1c-0.4,0.7-0.7,1.3-1.1,2c-0.5,0.9-1,1.8-1.5,2.7
			c-0.3,0.6-0.7,1.2-1,1.8c-0.5,1-1.1,1.9-1.6,2.9c-0.4,0.7-0.8,1.4-1.2,2.1c-0.2,0.3-0.4,0.7-0.4,1.1c-0.2,0.9,0.5,1.9,1.4,1.9
			c0.7,0,1.3,0.1,2,0.1c0.1,0,0.2,0,0.3,0c0.8,0.1,1.5,0.1,2.3,0.1c0.7,0,1.4,0.1,2.2,0.1c0.1,0,0.2,0,0.2,0c0.2,0,0.4,0.1,0.7,0
			c0.8,0,1.5,0,2.3,0c4.2,0,8.4,0,12.7,0c0,0,0,0.1,0.1,0.1c0.6,0.6,0.9,1.3,1,2.1c0.1,0.4,0.2,0.9,0.1,1.3c0,0.3-0.1,0.6-0.1,1
			c-0.2,0.8-0.5,1.6-1,2.3c-0.3,0.4-0.6,0.8-0.9,1.2c-0.2,0.2-0.3,0.3-0.6,0.5c-0.1,0.1-0.1,0.2-0.2,0.3c-0.2,0.4,0,0.7,0.2,1
			c0.5,0.6,0.7,1.3,0.8,2c0.1,0.7-0.1,1.4-0.3,2.1c-0.1,0.5-0.4,1-0.6,1.4c-0.4,0.8-0.9,1.6-1.7,2.2c-0.4,0.2-0.5,0.9-0.2,1.2
			c0.2,0.3,0.4,0.7,0.6,1.1c0.3,0.6,0.4,1.3,0.4,2c0,0.5-0.1,0.9-0.3,1.4c-0.4,1.3-1.2,2.3-2.2,3.1c-0.3,0.2-0.4,0.5-0.4,0.9
			c0,0.4,0.1,0.7,0.3,1c0.4,0.7,0.7,1.5,0.8,2.3c0.1,0.8-0.1,1.6-0.5,2.4c-0.5,1-1.1,1.8-1.8,2.5C136.8,79.1,136.7,79.3,136.6,79.5z
			"/>
		<path fill="#DBE3E6" d="M136.6,79.5c0.1-0.3,0.2-0.4,0.4-0.6c0.7-0.8,1.4-1.6,1.8-2.5c0.4-0.8,0.5-1.5,0.5-2.4
			c-0.1-0.8-0.3-1.6-0.8-2.3c-0.2-0.3-0.3-0.6-0.3-1c0-0.4,0.1-0.6,0.4-0.9c1.1-0.8,1.8-1.8,2.2-3.1c0.2-0.5,0.3-0.9,0.3-1.4
			c0-0.7-0.1-1.3-0.4-2c-0.2-0.4-0.3-0.7-0.6-1.1c-0.2-0.3-0.1-0.9,0.2-1.2c0.8-0.6,1.3-1.3,1.7-2.2c0.2-0.5,0.5-0.9,0.6-1.4
			c0.2-0.7,0.4-1.4,0.3-2.1c-0.1-0.7-0.3-1.4-0.8-2c-0.2-0.3-0.4-0.6-0.2-1c0-0.1,0.1-0.2,0.2-0.3c0.2-0.1,0.4-0.3,0.6-0.5
			c0.4-0.3,0.7-0.7,0.9-1.2c0.4-0.7,0.8-1.5,1-2.3c0.1-0.3,0.1-0.6,0.1-1c0.1-0.5,0-0.9-0.1-1.3c-0.1-0.8-0.5-1.5-1-2.1
			c0,0-0.1-0.1-0.1-0.1c0.4-0.1,0.8,0,1.3,0c1.7,0,3.4,0,5.1,0c1,0,2,0,3.1,0c1.7,0,3.2,1.3,3.4,3c0.2,1.8-0.4,3.2-1.8,4.3
			c-0.5,0.4-1,0.7-1.6,0.8c-0.6,0.2-0.8,0.9-0.3,1.4c1.8,1.8,1.7,4.3,0.2,6c-0.6,0.7-1.3,1.2-2.2,1.6c-0.4,0.2-0.7,0.5-0.7,1
			c0,0.3,0.1,0.5,0.3,0.6c0.4,0.3,0.7,0.7,0.9,1.1c0.4,0.8,0.5,1.7,0.2,2.6c-0.4,1.3-1.2,2.4-2.3,3.2c-0.3,0.2-0.6,0.4-1,0.5
			c-0.3,0.1-0.5,0.3-0.5,0.5c-0.1,0.4-0.1,0.8,0.3,1.1c0.2,0.2,0.5,0.4,0.6,0.7c0.7,1,0.8,2,0.4,3.1c-0.2,0.6-0.6,1.2-1,1.7
			c-0.8,0.9-1.7,1.7-2.9,2.2c-0.4,0.2-0.8,0.3-1.2,0.3c-1.4,0-2.8,0-4.2,0c-1,0-1.9,0-2.9,0C136.8,79.5,136.7,79.5,136.6,79.5z"/>
		<path fill="#6C7EB4" d="M101.8,61.9c0,4.1,0,8.1,0,12.2c0,2.5,0,4.9,0,7.4c0,0.5,0,0.5-0.5,0.5c-6.3,0-12.6,0-18.9,0
			c-0.1,0-0.1,0-0.2,0C82,82,82,82,82,81.8c-0.1-0.8-0.1-1.5-0.2-2.3c0-0.4-0.1-0.9-0.1-1.3c0-0.5,0-1-0.1-1.4c-0.1-0.3,0-0.7-0.1-1
			c0-0.5-0.1-0.9-0.1-1.4c0-0.4,0-0.9-0.1-1.3c-0.1-0.3-0.1-0.7-0.1-1c0-0.5-0.1-1-0.1-1.4C81,70,81,69.2,80.9,68.5
			c0-0.3,0-0.7-0.1-1c0-0.5-0.1-0.9-0.1-1.4c0-0.4,0-0.8-0.1-1.3c-0.1-0.3,0-0.7-0.1-1c0-0.5-0.1-1-0.1-1.4c0-0.4,0-0.9-0.1-1.3
			c-0.1-0.3-0.1-0.7-0.1-1c0-0.5-0.1-0.9-0.1-1.4c0-0.4,0-0.8-0.1-1.3c-0.1-0.4,0-0.7-0.1-1.1c0-0.5-0.1-0.9-0.1-1.4
			c-0.1-0.7-0.1-1.5-0.2-2.2c0-0.3,0-0.7-0.1-1c0-0.5-0.1-0.9-0.1-1.4c0-0.3-0.1-0.6-0.1-0.8c0-0.4,0-0.4,0.4-0.4c0.1,0,0.1,0,0.2,0
			c7.1,0,14.1,0,21.2,0c0.5,0,0.5-0.1,0.5,0.5C101.8,53.8,101.8,57.9,101.8,61.9C101.8,61.9,101.8,61.9,101.8,61.9z M99.5,66.9
			c0-4.2,0-8.5,0-12.7c0-0.5,0-0.5-0.5-0.5c-5.5,0-11.1,0-16.6,0c-0.1,0-0.1,0-0.2,0c-0.2,0-0.3,0-0.3,0.3c0,0.4,0.1,0.9,0.1,1.3
			c0,0.4,0,0.9,0.1,1.3c0.1,0.4,0.1,0.8,0.1,1.1c0,0.5,0.1,1.1,0.1,1.6c0,0.1,0,0.1,0,0.2c0.1,0.6,0.1,1.2,0.2,1.9
			c0,0.4,0.1,0.8,0.1,1.2c0,0.3,0,0.6,0.1,0.9c0.1,0.4,0.1,0.8,0.1,1.2c0,0.4,0.1,0.8,0.1,1.3c0.1,0.6,0.1,1.2,0.2,1.9
			c0.1,0.6,0.1,1.2,0.1,1.8c0,0.7,0.1,1.3,0.2,2c0,0.3,0,0.6,0.1,0.9c0.1,0.4,0.1,0.8,0.1,1.2c0,0.4,0.1,0.9,0.1,1.3
			c0,0.3,0,0.6,0.1,0.8c0.1,0.4,0.1,0.9,0.1,1.3c0,0.3,0.1,0.7,0.1,1c0,0.5,0.1,1,0.1,1.4c0,0.3,0.1,0.4,0.4,0.4c0.1,0,0.1,0,0.2,0
			c4.8,0,9.6,0,14.4,0c0.1,0,0.1,0,0.2,0c0.3,0,0.3,0,0.3-0.3c0-0.1,0-0.2,0-0.3C99.5,75.3,99.5,71.1,99.5,66.9z"/>
		<path fill="#DBE3E6" d="M128.7,43.8c-0.2,0.1-0.4,0-0.7,0c-0.1,0-0.2,0-0.2,0c-0.7,0-1.4-0.1-2.2-0.1c-0.8,0-1.5,0-2.3-0.1
			c-0.1,0-0.2,0-0.3,0c-0.7,0-1.4-0.1-2-0.1c-0.9,0-1.6-1-1.4-1.9c0.1-0.4,0.2-0.7,0.4-1.1c0.4-0.7,0.8-1.4,1.2-2.1
			c0.5-1,1.1-1.9,1.6-2.9c0.3-0.6,0.7-1.2,1-1.8c0.5-0.9,1-1.8,1.5-2.7c0.4-0.6,0.7-1.3,1.1-2c0,0,0,0,0-0.1
			c0.4-0.4,0.3-0.8,0.2-1.3c-0.3-1.4-0.6-2.7-1-4.1c-0.3-1.2-0.6-2.4-0.8-3.6c-0.2-1-0.5-1.9-0.7-2.9c1.1-0.1,2.1,0.2,3,0.8
			c0.1,0.1,0.2,0.2,0.2,0.3c1.2,2.7,2.3,5.4,3.1,8.2c0.3,1.1,0.5,2.3,0.4,3.4c-0.1,1.1-0.1,2.3-0.3,3.4c-0.4,3.4-1.2,6.7-1.9,10.1
			C128.7,43.5,128.6,43.6,128.7,43.8z"/>
		<path fill="#DBE3E6" d="M107.2,49.7c0,3.6,0,7.2,0,10.9c0,5.3,0,10.7,0,16c0,0.2,0,0.3,0,0.5c-0.7,0.1-1.4,0-2.1,0
			c-0.1,0-0.2-0.1-0.2-0.2c0-0.1,0-0.2,0-0.3c0-8.3,0-16.6,0-24.8c0-0.7-0.1-0.5,0.4-0.8c0.5-0.4,1.1-0.7,1.6-1.1
			C107,49.7,107.1,49.7,107.2,49.7z"/>
		<path fill="#DBE3E6" d="M107.2,49.6C107.2,49.6,107.2,49.6,107.2,49.6C107.2,49.6,107.2,49.6,107.2,49.6z"/>
		<path fill="#DBE3E6" d="M123.1,17.2C123,17.3,123,17.3,123.1,17.2C123,17.2,123,17.2,123.1,17.2z"/>
		<path fill="#DBE3E6" d="M112.3,79.4c0,0,0.1,0,0.1,0C112.3,79.4,112.3,79.4,112.3,79.4z"/>
		<path fill="#6474AD" d="M99.5,66.9c0,4.2,0,8.4,0,12.6c0,0.1,0,0.2,0,0.3c0,0.3,0,0.3-0.3,0.3c-0.1,0-0.1,0-0.2,0
			c-4.8,0-9.6,0-14.4,0c-0.1,0-0.1,0-0.2,0c-0.3,0-0.3-0.1-0.4-0.4C84,79.2,84,78.7,84,78.3c0-0.3-0.1-0.7-0.1-1
			c-0.1-0.4,0-0.9-0.1-1.3c-0.1-0.3-0.1-0.6-0.1-0.8c0-0.4-0.1-0.9-0.1-1.3c0-0.4,0-0.8-0.1-1.2c-0.1-0.3-0.1-0.6-0.1-0.9
			c0-0.7-0.1-1.3-0.2-2c0-0.6-0.1-1.2-0.1-1.8c-0.1-0.6-0.1-1.2-0.2-1.9c0-0.4-0.1-0.8-0.1-1.3c0-0.4,0-0.8-0.1-1.2
			c-0.1-0.3,0-0.6-0.1-0.9c0-0.4-0.1-0.8-0.1-1.2c-0.1-0.6,0-1.3-0.2-1.9c0-0.1,0-0.1,0-0.2c0-0.5-0.1-1.1-0.1-1.6
			c0-0.4,0-0.8-0.1-1.1C82,56.1,82,55.6,82,55.2c0-0.4-0.1-0.9-0.1-1.3c0-0.2,0-0.2,0.3-0.3c0.1,0,0.1,0,0.2,0c5.5,0,11.1,0,16.6,0
			c0.5,0,0.5,0,0.5,0.5C99.5,58.4,99.5,62.7,99.5,66.9z M95.9,74.4c-1.2-0.1-2.3,1-2.3,2.3c0,1.3,1,2.3,2.3,2.3c1.3,0,2.4-1,2.4-2.3
			C98.2,75.5,97.2,74.4,95.9,74.4z"/>
		<path fill="#FFFFFF" d="M95.9,74.4c1.3,0,2.3,1,2.3,2.3c0,1.3-1.1,2.3-2.4,2.3c-1.3,0-2.3-1.1-2.3-2.3
			C93.6,75.4,94.7,74.4,95.9,74.4z M96.7,77.3c0-0.2-0.2-0.3-0.3-0.3c-0.2,0-0.3,0.2-0.3,0.3c0,0.2,0.2,0.3,0.3,0.3
			C96.6,77.6,96.7,77.5,96.7,77.3z M95.4,77.6c0.2,0,0.3-0.1,0.3-0.3c0-0.2-0.2-0.3-0.3-0.3c-0.2,0-0.3,0.1-0.3,0.3
			C95.1,77.5,95.2,77.6,95.4,77.6z M96.7,76.3c0-0.2-0.2-0.3-0.3-0.3c-0.2,0-0.3,0.2-0.3,0.3c0,0.2,0.2,0.3,0.3,0.3
			C96.6,76.6,96.7,76.4,96.7,76.3z M95.7,76.3c0-0.2-0.1-0.3-0.3-0.3c-0.2,0-0.3,0.1-0.3,0.3c0,0.2,0.1,0.3,0.3,0.3
			C95.6,76.6,95.7,76.5,95.7,76.3z"/>
		<path fill="#465C93" d="M96.7,77.3c0,0.2-0.1,0.3-0.3,0.3c-0.2,0-0.3-0.1-0.3-0.3c0-0.2,0.1-0.3,0.3-0.3
			C96.6,77,96.7,77.1,96.7,77.3z"/>
		<path fill="#465C93" d="M95.4,77.6c-0.2,0-0.3-0.1-0.3-0.3c0-0.2,0.1-0.3,0.3-0.3c0.2,0,0.3,0.2,0.3,0.3
			C95.7,77.5,95.6,77.6,95.4,77.6z"/>
		<path fill="#465C93" d="M96.7,76.3c0,0.2-0.1,0.3-0.3,0.3c-0.2,0-0.3-0.1-0.3-0.3c0-0.2,0.1-0.3,0.3-0.3
			C96.6,76,96.7,76.1,96.7,76.3z"/>
		<path fill="#465C93" d="M95.7,76.3c0,0.2-0.2,0.3-0.3,0.3c-0.2,0-0.3-0.1-0.3-0.3c0-0.2,0.1-0.3,0.3-0.3
			C95.6,76,95.7,76.1,95.7,76.3z"/>
	</g>
	<g>
		<path fill="#EFECE9" d="M26.2,116c0-1,0-2.1,0-3.1c0-0.1,0-0.2,0.2-0.2c0.4-0.1,0.8-0.1,1.1-0.2c0.1,0,0.1,0,0.1,0.1
			c0,0.7,0,1.3,0,2c0,0,0,0.1,0,0.1c0,0.1,0,0.1,0.1,0.1c0.3-0.1,0.6-0.1,1-0.1c0.3,0,0.6,0,1,0.1c0.4,0.1,0.6,0.4,0.7,0.8
			c0.1,0.3,0.1,0.6,0.1,0.9c0,0.5,0,0.9,0,1.4c0,0.4-0.1,0.8-0.4,1.1c-0.2,0.2-0.4,0.3-0.6,0.4c-0.3,0.1-0.6,0.2-0.9,0.2
			c-0.3,0-0.5,0-0.8,0c-0.3,0-0.7-0.1-1-0.1c-0.2,0-0.3,0-0.5-0.1c0,0-0.1,0-0.1-0.1c0,0,0-0.1,0-0.1
			C26.2,118.1,26.2,117.1,26.2,116C26.2,116,26.2,116,26.2,116z M27.6,117.2c0,0.3,0,0.7,0,1c0,0.1,0,0.2,0.1,0.1c0.2,0,0.4,0,0.6,0
			c0.5,0,0.7-0.3,0.7-0.7c0-0.4,0-0.8,0-1.3c0-0.4-0.2-0.6-0.6-0.6c-0.3,0-0.5,0.1-0.7,0.2c-0.1,0-0.1,0.1-0.1,0.2
			C27.6,116.5,27.6,116.8,27.6,117.2z"/>
		<path fill="#EFECE9" d="M41.8,116.8C41.8,116.7,41.8,116.7,41.8,116.8c0.2-0.3,0.4-0.6,0.6-0.8c0.2-0.4,0.5-0.8,0.7-1.2
			c0,0,0.1-0.1,0.1-0.1c0.5,0,0.9,0,1.4,0c0,0,0,0,0.1,0c-0.1,0.1-0.1,0.2-0.2,0.3c-0.4,0.6-0.8,1.3-1.2,1.9c0,0.1,0,0.1,0,0.2
			c0.3,0.4,0.5,0.9,0.8,1.3c0.2,0.3,0.4,0.6,0.5,0.9c0,0,0,0.1,0,0.1c-0.1,0-0.1,0-0.1,0c-0.4,0-0.8,0-1.2,0c-0.1,0-0.2,0-0.2-0.1
			c-0.4-0.6-0.8-1.3-1.2-1.9c0,0-0.1-0.1-0.1-0.1c0,0,0,0-0.1,0c0,0,0,0,0,0.1c0,0,0,0.1,0,0.1c0,0.6,0,1.3,0,1.9
			c0,0.1,0,0.1-0.1,0.1c-0.4,0-0.7,0-1.1,0c-0.2,0-0.2,0-0.2-0.2c0-1.2,0-2.5,0-3.7c0-0.9,0-1.8,0-2.7c0-0.2,0-0.2,0.2-0.2
			c0.4-0.1,0.8-0.1,1.2-0.2c0,0,0,0,0.1,0C41.8,113.9,41.8,115.3,41.8,116.8C41.8,116.8,41.8,116.8,41.8,116.8z"/>
		<path fill="#EFECE9" d="M25.5,118.2C25.5,118.2,25.5,118.2,25.5,118.2c0,0.4,0,0.7,0,1c0,0.1,0,0.1-0.1,0.1
			c-0.4,0-0.7,0.1-1.1,0.1c-0.4,0-0.7,0-1.1,0c-0.5,0-1-0.2-1.4-0.6c-0.2-0.3-0.4-0.6-0.4-1c0-0.6,0-1.1,0-1.7
			c0-0.8,0.5-1.3,1.3-1.5c0.5-0.1,1.1-0.1,1.6,0c0.7,0.2,1.1,0.6,1.2,1.3c0,0.4,0,0.9,0,1.3c0,0.1,0,0.1-0.1,0.1c-0.1,0-0.3,0-0.4,0
			c-0.7,0-1.3,0-2,0c-0.1,0-0.2,0-0.2,0.2c0,0.2,0,0.4,0.2,0.5c0.1,0.1,0.3,0.1,0.5,0.2c0.5,0,1.1,0,1.6-0.1
			C25.3,118.2,25.4,118.2,25.5,118.2z M23.5,116.5C23.5,116.5,23.5,116.5,23.5,116.5c0.2,0,0.4,0,0.5,0c0,0,0.1,0,0.1-0.1
			c0-0.3,0-0.7-0.5-0.8c-0.1,0-0.2,0-0.3,0c-0.3,0-0.5,0.2-0.5,0.5c0,0.1,0,0.2,0,0.3c0,0.1,0,0.1,0.1,0.1
			C23.2,116.5,23.4,116.5,23.5,116.5z"/>
		<path fill="#EFECE9" d="M35.1,117.1c0,0.3,0,0.7-0.1,1c-0.1,0.6-0.5,1.1-1.2,1.2c-0.6,0.2-1.3,0.2-1.9-0.1c-0.6-0.2-0.9-0.7-1-1.3
			c0-0.2,0-0.3,0-0.5c0-0.3,0-0.7,0-1c0-0.3,0.1-0.7,0.2-1c0.2-0.4,0.6-0.7,1-0.8c0.6-0.2,1.3-0.2,1.9,0c0.6,0.2,1,0.7,1.1,1.3
			C35.1,116.4,35.1,116.7,35.1,117.1z M33.7,117C33.7,117,33.7,117,33.7,117c0-0.2,0-0.5,0-0.7c0-0.2-0.1-0.4-0.3-0.4
			c-0.2-0.1-0.3-0.1-0.5-0.1c-0.3,0-0.6,0.2-0.6,0.5c0,0.5,0,1,0,1.5c0,0,0,0,0,0.1c0,0.2,0.1,0.3,0.3,0.4c0.2,0.1,0.4,0.1,0.6,0
			c0.3-0.1,0.4-0.2,0.4-0.5C33.7,117.5,33.7,117.3,33.7,117z"/>
		<path fill="#EFECE9" d="M35.6,117c0-0.3,0-0.6,0.1-1c0.1-0.7,0.5-1.2,1.2-1.3c0.6-0.1,1.1-0.1,1.7,0c0.7,0.2,1.1,0.7,1.2,1.4
			c0,0.2,0,0.4,0,0.6c0,0.4,0,0.8,0,1.2c0,0.4-0.2,0.8-0.5,1.1c-0.3,0.2-0.6,0.4-0.9,0.4c-0.6,0.1-1.1,0.1-1.7-0.1
			c-0.6-0.2-1-0.7-1.1-1.3C35.6,117.7,35.6,117.4,35.6,117z M38.4,117.1C38.4,117.1,38.4,117.1,38.4,117.1c0-0.2,0-0.4,0-0.6
			c0-0.3-0.2-0.5-0.5-0.6c-0.1,0-0.2,0-0.3,0c-0.4,0-0.6,0.2-0.6,0.6c0,0.4,0,0.8,0,1.3c0,0.3,0.2,0.5,0.5,0.6c0.2,0,0.3,0,0.5,0
			c0.3-0.1,0.4-0.2,0.5-0.5C38.4,117.5,38.4,117.3,38.4,117.1z"/>
		<path fill="#EFECE9" d="M15.6,119.4c0-0.1,0-0.1,0-0.2c0-0.1,0-0.1-0.1-0.1c-0.3,0.2-0.6,0.3-1,0.3c-0.5,0-0.9,0-1.3-0.3
			c-0.2-0.2-0.3-0.4-0.3-0.6c-0.1-0.3-0.1-0.7,0-1c0.1-0.4,0.4-0.6,0.9-0.7c0.1,0,0.3,0,0.4,0c0.4,0,0.8,0,1.2,0
			c0.1,0,0.1,0,0.1-0.1c0-0.1,0-0.3,0-0.4c0-0.2-0.2-0.3-0.4-0.4c-0.2,0-0.3,0-0.5,0c-0.3,0-0.7,0-1,0c0,0-0.1,0-0.1,0
			c0-0.3,0.1-0.6,0.1-0.9c0,0,0,0,0,0c0-0.2,0-0.2,0.3-0.2c0.5,0,1,0,1.5,0c0.3,0,0.6,0.1,0.9,0.2c0.4,0.2,0.6,0.5,0.7,0.9
			c0,0.3,0.1,0.6,0.1,0.9c0,0.9,0,1.7,0,2.6c0,0.2,0,0.2-0.2,0.2c-0.3,0-0.6,0-0.9,0C15.7,119.4,15.7,119.4,15.6,119.4z M14.9,117.7
			c-0.1,0-0.2,0-0.3,0c-0.1,0-0.3,0-0.4,0.2c-0.1,0.3,0.1,0.6,0.4,0.6c0.2,0,0.5-0.1,0.7-0.2c0,0,0.1-0.1,0.1-0.1c0-0.1,0-0.3,0-0.4
			c0-0.1,0-0.1-0.1-0.1C15.2,117.7,15.1,117.7,14.9,117.7z"/>
		<path fill="#EFECE9" d="M12.9,114.7c0,0.2,0,0.3,0,0.5c0,0.2,0,0.4-0.1,0.5c0,0.1,0,0.1-0.1,0.1c-0.2,0-0.5,0-0.7,0
			c-0.2,0-0.2,0-0.2,0.2c0,1.1,0,2.2,0,3.2c0,0.2,0,0.2-0.2,0.2c-0.4,0-0.7,0-1.1,0c-0.1,0-0.1,0-0.1-0.1c0-1.1,0-2.1,0-3.2
			c0,0,0-0.1,0-0.1c0-0.1,0-0.1-0.1-0.1c-0.2,0-0.3,0-0.5,0c-0.1,0-0.1,0-0.1-0.1c0-0.3,0-0.7,0-1c0-0.1,0-0.1,0.1-0.1
			c0.2,0,0.3,0,0.5,0c0.1,0,0.2,0,0.2-0.2c0-0.3,0-0.5,0-0.8c0-0.3,0.1-0.5,0.2-0.8c0.2-0.4,0.5-0.6,0.9-0.6c0.4,0,0.9,0,1.4,0
			c0,0,0.1,0,0.1,0.1c0,0.3,0,0.7,0,1c0,0.1,0,0.1-0.1,0.1c-0.2,0-0.4,0-0.6,0c-0.3,0-0.4,0.1-0.4,0.4c0,0.2,0,0.4,0,0.6
			c0,0.1,0,0.1,0.1,0.1c0.3,0,0.6,0,0.9,0C12.8,114.7,12.8,114.7,12.9,114.7z"/>
		<path fill="#EFECE9" d="M21,115.9c-0.3,0-0.5-0.1-0.8-0.1c-0.3,0-0.6,0-0.9,0c-0.3,0-0.5,0.2-0.5,0.5c0,0.5,0,1,0,1.5
			c0,0.3,0.2,0.4,0.5,0.5c0.4,0.1,0.7,0,1.1,0c0.2,0,0.4-0.1,0.6-0.1c0,0,0,0.1,0,0.1c0,0.3,0,0.6,0,1c0,0.1,0,0.1-0.1,0.1
			c-0.5,0.1-1.1,0.2-1.6,0.2c-0.4,0-0.9-0.1-1.2-0.4c-0.3-0.2-0.5-0.6-0.6-1c0-0.2-0.1-0.4-0.1-0.6c0-0.3,0-0.7,0-1
			c0-0.4,0.1-0.7,0.3-1.1c0.2-0.4,0.6-0.6,1-0.7c0.5-0.1,1-0.1,1.4-0.1c0.3,0,0.5,0.1,0.8,0.1c0.1,0,0.1,0,0.1,0.1
			c0,0.3,0,0.6,0,0.9C21,115.9,21,115.9,21,115.9z"/>
	</g>
	<path fill="#FFFFFF" d="M198.3,117c0.4-2,0.9-4,1.3-6c0.7,0,1.3,0,2.1,0c0.4,2.1,0.9,4.1,1.3,6.2c0.1,0,0.1,0,0.2,0
		c0.1-0.4,0.2-0.8,0.3-1.2c0.3-1.4,0.7-2.8,1-4.2c0.2-0.8,0.2-0.8,1-0.8c0.4,0,0.8,0,1.3,0c-1,3.4-1.9,6.7-2.8,9.9
		c-0.2,0.1-0.2,0.1-0.3,0.1c-2.1,0.1-1.7,0.1-2.1-1.5c-0.3-1.5-0.7-3-1.2-4.5c-0.5,2-0.9,4-1.4,5.9c-0.1,0.1-0.1,0.1-0.2,0.1
		c-1.7,0.3-1.8,0.2-2.2-1.4c-0.7-2.4-1.4-4.9-2.1-7.3c-0.1-0.4-0.2-0.7-0.3-1.2c0.7,0,1.2,0,1.8,0c0.4,0,0.5,0.4,0.5,0.7
		c0.4,1.4,0.7,2.8,1,4.1c0.1,0.4,0.2,0.8,0.3,1.3C198.2,117,198.2,117,198.3,117z"/>
	<path fill="#FFFFFF" d="M151,114.6c1.2,0,2.3,0,3.6,0c0-1.3,0.1-2.5,0.1-3.7c0.7,0,1.4,0,2.1,0c0,0.2,0.1,0.5,0.1,0.7
		c0,2.8,0,5.6,0,8.4c0,0.9-0.1,1-0.9,1c-0.4,0-0.8,0-1.3-0.1c0-1.5,0-2.8-0.1-4.3c-1.2,0-2.3,0-3.6,0c0,1.4-0.1,2.8-0.1,4.2
		c-0.7,0.3-1.4,0.1-2.1,0.2c-0.1-0.9,0-1.7,0-2.5c0-0.8,0-1.7,0-2.5c0-0.8,0-1.6,0-2.4c0-0.8,0-1.7,0-2.6c0.7,0,1.4,0,2.1,0
		C151.1,112.1,150.9,113.3,151,114.6z"/>
	<path fill="#FFFFFF" d="M179.3,113.8c-0.9,0.9-1.7,1.8-2.5,2.7c0.8,1.5,1.9,2.8,2.7,4.5c-0.6,0.1-1.1,0.1-1.5,0.2
		c-0.6,0.1-0.9-0.2-1.2-0.6c-0.3-0.6-0.7-1.2-1.1-1.8c-0.1-0.2-0.3-0.5-0.5-0.7c-0.6,0.3-0.7,0.7-0.7,1.2c0,0.5,0,1.1,0,1.7
		c-0.7,0-1.3,0-1.9,0c-0.2-0.6-0.3-8.9,0-10c0.6,0,1.2,0,1.9,0c0.3,1.6,0,3.3,0.1,5.2c0.5-0.5,0.8-0.8,1.1-1.1
		C177.1,113.5,177.1,113.5,179.3,113.8z"/>
	<path fill="#FFFFFF" d="M186.1,118.7c-0.1,1-0.5,1.6-1.2,2c-1.2,0.7-2.5,0.7-3.7,0.2c-0.9-0.3-1.4-1.1-1.7-2c-0.3-1-0.4-2,0-3
		c0.8-2.1,2.8-3,4.8-2.1c0.9,0.4,1.4,1.1,1.7,2c0.2,0.5,0.2,1,0.3,1.4c0.1,0.6,0,0.7-0.7,0.7c-1.1,0-2.2,0-3.2,0
		c-0.3,0-0.7,0-1.1,0.1c0,0.7,0.4,1.1,0.9,1.4c0.5,0.2,1.2,0.3,1.5-0.2C184.5,118.4,185.3,118.7,186.1,118.7z M184.1,116.4
		c-0.2-1-0.6-1.3-1.4-1.3c-0.7,0-1.2,0.5-1.2,1.3C182.3,116.4,183.2,116.4,184.1,116.4z"/>
	<path fill="#FFFFFF" d="M158,115.9c0.1-1.1,0.6-1.8,1.5-2.1c1.2-0.4,2.3-0.4,3.5,0.1c0.8,0.3,1.2,1,1.2,1.9c0,0.7,0,1.3,0,2
		c0,1,0,2.1,0,3.1c-1,0.2-1.5,0.2-2.1-0.3c-1.2,0.7-2.3,0.8-3.5,0.1c-1.2-0.7-1.4-2.5-0.3-3.3c0.5-0.4,1.1-0.6,1.7-0.7
		c0.5-0.1,1-0.2,1.5-0.3c0.3-0.1,0.6-0.2,0.7-0.6c0-0.4-0.3-0.6-0.7-0.7c-0.5-0.1-1.1-0.1-1.4,0.4c-0.3,0.6-0.8,0.6-1.3,0.6
		C158.6,116,158.4,115.9,158,115.9z M162.1,117.5c-0.6,0.2-1.2,0.3-1.8,0.5c-0.4,0.2-0.7,0.6-0.6,1c0.1,0.4,0.5,0.6,1,0.6
		C161.9,119.6,162.4,118.8,162.1,117.5z"/>
	<path fill="#FFFFFF" d="M206.6,116c0-1,0.3-1.7,1.1-2c1.2-0.6,2.5-0.6,3.7-0.1c0.6,0.3,1,0.7,1.1,1.4c0.1,0.3,0.1,0.6,0.1,0.9
		c0,1.6,0,3.1,0,4.8c-0.7,0-1.4,0.3-2-0.4c-0.1,0.1-0.3,0.1-0.4,0.2c-0.8,0.4-1.5,0.5-2.4,0.2c-1.1-0.3-1.5-0.9-1.6-2
		c0-1.2,0.4-1.9,1.5-2.2c0.7-0.2,1.4-0.3,2.1-0.4c0.5-0.1,0.8-0.3,0.7-0.7c-0.1-0.4-0.4-0.6-0.8-0.6c-0.6,0-1.1,0-1.4,0.6
		c-0.1,0.2-0.3,0.3-0.5,0.4C207.5,116.1,207.1,116,206.6,116z M210.6,117.5c-0.6,0.2-1.2,0.3-1.8,0.5c-0.4,0.1-0.6,0.5-0.6,0.9
		c0.1,0.4,0.4,0.6,0.9,0.7C210.2,119.7,210.8,118.9,210.6,117.5z"/>
	<path fill="#FFFFFF" d="M217.7,113.8c0.7,0,1.3,0,2,0c-0.1,0.4-0.2,0.6-0.3,0.9c-0.7,2-1.3,4-2,6.1c-0.1,0.2-0.1,0.3-0.2,0.5
		c-0.7,1.8-1.6,2.3-3.6,1.9c0-0.4,0-0.9,0-1.4c0.3,0,0.6-0.1,0.8-0.1c0.5-0.1,0.7-0.3,0.7-0.8c0-0.4-0.1-0.8-0.2-1.1
		c-0.5-1.6-1.1-3.1-1.7-4.7c-0.1-0.4-0.2-0.7-0.4-1.1c0.6-0.2,1.2-0.2,1.8-0.1c0.2,0,0.4,0.3,0.4,0.6c0.3,1,0.6,1.9,1,2.9
		c0.1,0.2,0.1,0.3,0.3,0.5C216.9,116.4,217.3,115.1,217.7,113.8z"/>
	<path fill="#FFFFFF" d="M171.9,116.3c-0.6,0-1.1,0-1.5,0c-0.3,0-0.5-0.1-0.7-0.4c-0.3-0.5-0.7-0.7-1.3-0.7c-0.6,0.1-1,0.5-1.2,1
		c-0.2,0.7-0.3,1.5,0,2.2c0.2,0.6,0.7,1,1.3,1c0.6,0,1.1-0.3,1.3-0.8c0-0.1,0.1-0.2,0.2-0.3c0.6,0,1.2,0,1.8,0
		c0,1.4-1.1,2.6-2.5,2.8c-1.6,0.2-3-0.3-3.9-1.8c-0.8-1.5-0.7-3.1,0.2-4.5c1.3-2,5-1.8,5.9,0.4C171.7,115.5,171.7,115.8,171.9,116.3
		z"/>
	<path fill="#FFFFFF" d="M141.6,114.3c-0.7,0-1.4,0-2.1,0c0-0.5,0-0.9,0-1.4c0.3-0.1,0.5-0.2,0.7-0.2c0.7-0.1,1.2-0.4,1.5-1.1
		c0.2-0.4,0.4-0.5,0.8-0.5c0.4,0,0.7,0,1.1,0.1c0,3.3,0,6.5,0,9.8c-0.7,0-1.3,0-1.9,0c-0.3-0.7-0.1-1.5-0.1-2.2c0-0.7,0-1.5,0-2.2
		C141.6,115.8,141.6,115.1,141.6,114.3z"/>
	<path fill="#FFFFFF" d="M189.1,120.9c-0.7,0-1.3,0-2,0c-0.1-2.4-0.1-4.7,0-7c1.2-0.4,1.8-0.3,2.1,0.4c0.6-0.4,1.1-0.8,2-0.5
		c0,0.5,0,1.1,0,1.6c-0.2,0.1-0.5,0.1-0.7,0.2c-0.9,0.2-1.3,0.8-1.4,1.7c0,0.9,0,1.7,0,2.6C189.1,120.1,189.1,120.4,189.1,120.9z"/>
</g>
<rect x="115.9" y="115.9" fill="#5B5B56" width="10.8" height="82.9"/>
</svg>
