<?xml version="1.0" encoding="utf-8"?>
<!-- Generator: Adobe Illustrator 18.0.0, SVG Export Plug-In . SVG Version: 6.00 Build 0)  -->
<!DOCTYPE svg PUBLIC "-//W3C//DTD SVG 1.1//EN" "http://www.w3.org/Graphics/SVG/1.1/DTD/svg11.dtd">
<svg version="1.1" id="Layer_1" xmlns="http://www.w3.org/2000/svg" xmlns:xlink="http://www.w3.org/1999/xlink" x="0px" y="0px"
	 viewBox="0 0 252.5 116" enable-background="new 0 0 252.5 116" xml:space="preserve">
<g>
	<rect x="0.7" y="81.5" fill="#1B1464" width="225.1" height="21.6"/>
	<rect x="0.7" y="99.5" opacity="0.2" width="225.1" height="3.7"/>
	<rect x="0.7" y="81.1" opacity="0.2" width="225.1" height="11.3"/>
	<ellipse fill="#457A8C" cx="160.3" cy="100.8" rx="15.1" ry="15.2"/>
	<rect x="209.1" y="43.3" fill="#52BAB2" width="6" height="6.6"/>
	<rect x="209.1" y="29.5" fill="#52BAB2" width="6" height="6.6"/>
	<rect x="209.1" y="33.6" fill="#457A8C" width="8" height="9.8"/>
	<polygon fill="#BBECE9" points="177,7.1 184.6,1.6 184.6,0 202.6,0 202.6,1.8 211.4,7.1 	"/>
	<rect x="128.3" y="23" fill="#52BAB2" width="17.9" height="16.5"/>
	<rect x="131.5" y="16.6" fill="#52BAB2" width="12.2" height="4.5"/>
	<path fill="#BBECE9" d="M143.7,16.7h-12.2v0c0-1.1,0.9-2,2-2h8.2C142.8,14.7,143.7,15.6,143.7,16.7L143.7,16.7z"/>
	<rect x="75.1" y="38.7" fill="#457A8C" width="104.3" height="44.3"/>
	<rect x="156.4" y="19.9" fill="#BBECE9" width="3.4" height="17.9"/>
	<circle fill="#457A8C" cx="110.2" cy="100.8" r="15.5"/>
	<circle fill="#52BAB2" cx="110.1" cy="100.8" r="12.3"/>
	<circle fill="#457A8C" cx="110.2" cy="100.8" r="4.7"/>
	<circle fill="#52BAB2" cx="160.4" cy="100.8" r="12.3"/>
	<rect x="114.8" y="100.6" fill="#457A8C" width="9" height="1.2"/>
	<rect x="96.9" y="100.8" fill="#457A8C" width="8.8" height="1"/>
	<rect x="109.5" y="88.5" fill="#457A8C" width="1.2" height="8.2"/>
	<rect x="109.6" y="104.4" fill="#457A8C" width="1.1" height="10.1"/>
	
		<rect x="110.8" y="106.7" transform="matrix(0.7071 0.7071 -0.7071 0.7071 109.7407 -50.6194)" fill="#457A8C" width="10.4" height="1"/>
	
		<rect x="99.3" y="94.5" transform="matrix(0.7071 0.7071 -0.7071 0.7071 97.5359 -45.5138)" fill="#457A8C" width="8.8" height="1"/>
	
		<rect x="112" y="94.4" transform="matrix(-0.7071 0.7071 -0.7071 -0.7071 265.3377 80.1088)" fill="#457A8C" width="8.2" height="1.2"/>
	
		<rect x="99.2" y="106.5" transform="matrix(-0.7071 0.7071 -0.7071 -0.7071 253.6408 109.0101)" fill="#457A8C" width="10.1" height="1.1"/>
	
		<rect x="104.1" y="106.7" transform="matrix(0.9886 -0.1508 0.1508 0.9886 -15.2464 17.7341)" fill="#62C3CA" width="10.4" height="5.4"/>
	
		<rect x="104.3" y="109.8" transform="matrix(0.9886 -0.1508 0.1508 0.9886 -15.4817 17.7839)" opacity="0.2" width="10.4" height="2.4"/>
	
		<rect x="114.1" y="103.6" transform="matrix(0.9886 -0.1505 0.1505 0.9886 -14.2713 21.6946)" fill="#BBECE9" width="44.2" height="3.1"/>
	<rect x="153.1" y="93" fill="#62C3CA" width="14.9" height="14.3"/>
	<rect x="179.3" y="96.3" fill="#52BAB2" width="28.9" height="13.5"/>
	<circle fill="#457A8C" cx="45.1" cy="105.5" r="10"/>
	<circle fill="#52BAB2" cx="45.1" cy="105.5" r="2.5"/>
	<circle fill="#457A8C" cx="17.5" cy="105.5" r="10"/>
	<circle fill="#52BAB2" cx="17.5" cy="105.5" r="2.5"/>
	<rect x="0.3" y="87.4" fill="#52BAB2" width="75.7" height="2.6"/>
	<rect x="0.3" y="51.5" fill="#62C3CA" width="74.8" height="36"/>
	<rect x="14.7" y="21.7" fill="#62C3CA" width="60.4" height="36.3"/>
	<rect x="38" y="27.1" fill="#457A8C" width="13.2" height="29.5"/>
	<rect x="52.6" y="27.1" fill="#457A8C" width="13.2" height="29.5"/>
	<rect x="11.8" y="19.6" fill="#52BAB2" width="67" height="2.6"/>
	<path fill="#BBECE9" d="M76.3,19.7H14.1v0c0-2.7,2.2-5,5-5h52.3C74.1,14.7,76.3,16.9,76.3,19.7L76.3,19.7z"/>
	<rect x="97.6" y="21.8" fill="#52BAB2" width="20.4" height="17.2"/>
	<path fill="#BBECE9" d="M118,22.1H97.6v0c0-1.8,1.5-3.3,3.3-3.3h13.8C116.5,18.8,118,20.3,118,22.1L118,22.1z"/>
	<path fill="#BBECE9" d="M146.2,23.2h-17.9v0c0-1.6,1.3-2.9,2.9-2.9h12.1C144.9,20.3,146.2,21.6,146.2,23.2L146.2,23.2z"/>
	<path fill="#457A8C" d="M158.4,23.8c3.3,0,2.7,4.7,2.7,4.7s1.8,0.7,2,2.2c0,0-4.8,1-8.9,0c0,0,0.1-1.9,1.6-2.2
		C155.8,28.4,155.1,23.8,158.4,23.8z"/>
	<rect x="176.8" y="7" fill="#52BAB2" width="34.9" height="6.8"/>
	<polygon fill="#457A8C" points="187.8,38 201.1,38 211.8,13.6 176.8,13.8 	"/>
	<rect x="187.9" y="37.8" fill="#52BAB2" width="13" height="8.1"/>
	<rect x="188.6" y="45.9" fill="#457A8C" width="11.3" height="1.2"/>
	<rect x="187.2" y="47.1" fill="#52BAB2" width="14.6" height="2.6"/>
	<rect x="179.3" y="49.6" fill="#62C3CA" width="37.7" height="33.7"/>
	<path fill="#BBECE9" d="M216.9,83.4L216.9,83.4V49.6l0,0c2.3,0,4.1,1.9,4.1,4.1v25.5C221.1,81.6,219.2,83.4,216.9,83.4z"/>
	<rect x="225.8" y="92" fill="#457A8C" width="3.8" height="25.7"/>
	<path fill="#457A8C" d="M229.6,92v25.5l21.3-1.2l1.6-1.8L229.6,92z M248.1,114l-17.3-18.4l15.2,18.4h-2l-13.2-18.4l10.8,18.4h-2.1
		l-8.6-18.4l6.6,18.4h-2l-4.6-18.1l2.5,18.6l-2.5,0l0-18.6l19.5,18.2H248.1z"/>
	<rect x="0.2" y="50.5" fill="#52BAB2" width="14.7" height="2.3"/>
	<rect x="75" y="34.9" fill="#457A8C" width="103.6" height="1.7"/>
	<rect x="14.5" y="22.2" opacity="0.2" width="60.6" height="3.7"/>
	<rect x="75.4" y="38.7" opacity="0.2" width="104.1" height="3.7"/>
	<path opacity="0.2" d="M221.4,53.3h-42v-3.7h38.3C219.8,49.6,221.4,51.2,221.4,53.3L221.4,53.3z"/>
	<rect x="75.4" y="79.3" opacity="0.2" width="104.1" height="3.7"/>
	<rect x="38.9" y="27.9" opacity="0.2" width="11.1" height="27.5"/>
	<rect x="53.5" y="27.9" opacity="0.2" width="11.1" height="27.5"/>
	<rect x="75.2" y="38.8" opacity="0.2" width="3.6" height="47.8"/>
	<rect x="175.5" y="38.8" opacity="0.2" width="4" height="44.6"/>
	<rect x="179.2" y="49.8" opacity="0.2" width="3.7" height="33.6"/>
	<rect x="215.5" y="49.8" opacity="0.2" width="1.3" height="33.6"/>
	<rect x="0.2" y="52.6" opacity="0.2" width="14.7" height="3.7"/>
	<rect x="0.2" y="89.1" opacity="0.2" width="75.8" height="1.1"/>
	<rect x="11.6" y="20.9" opacity="0.2" width="67.1" height="1.3"/>
	<rect x="0" y="51.4" opacity="0.2" width="15" height="1.3"/>
	<rect x="75.3" y="72.2" fill="#52BAB2" width="104.1" height="2.4"/>
	<rect x="16.7" y="27.7" opacity="0.2" width="19.1" height="58.2"/>
	<rect x="179.2" y="106.9" opacity="0.2" width="28.9" height="2.9"/>
	<path opacity="0.2" d="M216.9,83.7h-37.2v-2.9H221l0,0C219.5,82.6,219.3,83.7,216.9,83.7z"/>
	<rect x="153.1" y="104.8" opacity="0.2" width="15.2" height="2.3"/>
	<rect x="153.1" y="93.1" opacity="0.2" width="15.2" height="2.3"/>
	<rect x="79.4" y="74.7" fill="#BBECE9" width="22.9" height="10.3"/>
	<rect x="79.5" y="82.2" opacity="0.2" width="23.1" height="2.9"/>
	<rect x="79.5" y="74.6" opacity="0.2" width="23.1" height="2.8"/>
	<circle fill="#FFFFFF" cx="102.1" cy="54.9" r="2.4"/>
	<circle fill="#FFFFFF" cx="111.1" cy="50.2" r="2.4"/>
	<path fill="#FFFFFF" d="M119.5,57.5c-6.8-3.3-14.5,0-16.8,7.2c-0.5-0.2-1-0.4-1.5-0.7c2.7-8.1,11.3-11.7,18.9-8.1
		C119.9,56.5,119.7,57,119.5,57.5z"/>
</g>
</svg>
