<?xml version="1.0" encoding="utf-8"?>
<!-- Generator: Adobe Illustrator 18.0.0, SVG Export Plug-In . SVG Version: 6.00 Build 0)  -->
<!DOCTYPE svg PUBLIC "-//W3C//DTD SVG 1.1//EN" "http://www.w3.org/Graphics/SVG/1.1/DTD/svg11.dtd">
<svg version="1.1" id="Layer_1" xmlns="http://www.w3.org/2000/svg" xmlns:xlink="http://www.w3.org/1999/xlink" x="0px" y="0px"
	 viewBox="0 0 1153.6 419.5" enable-background="new 0 0 1153.6 419.5" xml:space="preserve">
<g>
	<rect x="0" y="0" fill="#3B8891" width="713.4" height="419.1"/>
	<rect x="712.8" y="96.5" fill="#3B8891" width="440.7" height="322.6"/>
	<rect x="309.9" y="95.5" fill="#4FB3AA" width="403.4" height="207.3"/>
	<rect x="713.3" y="95.7" fill="#4FB3AA" width="415.4" height="207"/>
	<rect x="26.4" y="29.1" fill="#4FB3AA" width="662.6" height="35.6"/>
	<rect x="26.4" y="102" fill="#4FB3AA" width="246.2" height="35.6"/>
	<rect x="26.4" y="174.9" fill="#4FB3AA" width="246.2" height="35.6"/>
	<rect x="26.4" y="247.8" fill="#4FB3AA" width="246.2" height="35.6"/>
	<rect x="63.7" y="22.6" fill="#3B8891" width="6.5" height="48.6"/>
	<rect x="105.8" y="22.6" fill="#3B8891" width="6.5" height="48.6"/>
	<rect x="147.9" y="22.6" fill="#3B8891" width="6.5" height="48.6"/>
	<rect x="190" y="22.6" fill="#3B8891" width="6.5" height="48.6"/>
	<rect x="232.2" y="22.6" fill="#3B8891" width="6.5" height="48.6"/>
	<rect x="63.7" y="95.5" fill="#3B8891" width="6.5" height="48.6"/>
	<rect x="105.8" y="95.5" fill="#3B8891" width="6.5" height="48.6"/>
	<rect x="147.9" y="95.5" fill="#3B8891" width="6.5" height="48.6"/>
	<rect x="190" y="95.5" fill="#3B8891" width="6.5" height="48.6"/>
	<rect x="232.2" y="95.5" fill="#3B8891" width="6.5" height="48.6"/>
	<rect x="63.7" y="168.4" fill="#3B8891" width="6.5" height="48.6"/>
	<rect x="105.8" y="168.4" fill="#3B8891" width="6.5" height="48.6"/>
	<rect x="147.9" y="168.4" fill="#3B8891" width="6.5" height="48.6"/>
	<rect x="190" y="168.4" fill="#3B8891" width="6.5" height="48.6"/>
	<rect x="232.2" y="168.4" fill="#3B8891" width="6.5" height="48.6"/>
	<rect x="63.7" y="241.3" fill="#3B8891" width="6.5" height="48.6"/>
	<rect x="105.8" y="241.3" fill="#3B8891" width="6.5" height="48.6"/>
	<rect x="147.9" y="241.3" fill="#3B8891" width="6.5" height="48.6"/>
	<rect x="190" y="241.3" fill="#3B8891" width="6.5" height="48.6"/>
	<rect x="232.2" y="241.3" fill="#3B8891" width="6.5" height="48.6"/>
	<rect x="274.3" y="22.6" fill="#3B8891" width="6.5" height="48.6"/>
	<rect x="316.4" y="22.6" fill="#3B8891" width="6.5" height="48.6"/>
	<rect x="358.5" y="22.6" fill="#3B8891" width="6.5" height="48.6"/>
	<rect x="400.7" y="22.6" fill="#3B8891" width="6.5" height="48.6"/>
	<rect x="442.8" y="22.6" fill="#3B8891" width="6.5" height="48.6"/>
	<rect x="484.9" y="22.6" fill="#3B8891" width="6.5" height="48.6"/>
	<rect x="527" y="22.6" fill="#3B8891" width="6.5" height="48.6"/>
	<rect x="569.1" y="22.6" fill="#3B8891" width="6.5" height="48.6"/>
	<rect x="611.3" y="22.6" fill="#3B8891" width="6.5" height="48.6"/>
	<rect x="653.4" y="22.6" fill="#3B8891" width="6.5" height="48.6"/>
	<g>
		<g id="KRyJ1s.tif_4_">
			<g>
				<path fill="#F1FFFF" d="M934.3,327.6c0.8,0.3,1.6,0.6,2.3,1c1.8,1,2.7,2.6,2.9,4.6c0.2,1.9-0.2,3.7-1.1,5.4
					c-0.6,1.2-1.3,2.3-2.1,3.4c-0.8,1.1-1.9,1.7-3.2,1.9c-1.3,0.2-2.2-0.6-2.4-1.9c-0.1-1,0-2,0.5-2.9c0.8-1.6,1.8-3,3.7-3.5
					c0.4-0.1,0.7-0.2,1.1-0.2c0.5,0,0.7-0.2,0.8-0.7c0.5-1.8-0.6-3.4-2.6-3.3c-1,0-2,0.2-3,0.5c-4,1.3-7.4,3.6-10.4,6.5
					c-9.7,9-17.5,19.4-23,31.5c-1.9,4.3-3.4,8.7-4.1,13.3c-0.5,3.2-0.6,6.4,0.2,9.6c1,4.1,3.4,6.8,7.3,8.4c3.1,1.3,6.3,1.8,9.6,1.5
					c5.4-0.4,10.6-1.9,15.8-3.1c6-1.4,11.9-3,18-4.3c5.6-1.3,11.4-1.9,17.2-1.6c6.7,0.3,12.8,2.3,18.3,6.3c3.1,2.2,6.1,4.4,8.8,7.2
					c0.5,0.5,0.9,1,1.2,1.6c-0.2-0.1-0.3-0.2-0.5-0.3c-5.4-3.5-11.3-5.5-17.8-5.4c-2.8,0-5.4,0.5-7.7,2.2c-1.1,0.9-2.1,2-3.1,3
					c0.1,0.1,0,0,0,0c-2.4-4.2-6.2-6.6-10.8-7.7c-3.3-0.8-6.6-0.9-10-0.7c-5.9,0.4-11.5,1.9-17.2,3.3c-5.3,1.3-10.6,2.5-15.9,3.5
					c-4.2,0.8-8.4,0.8-12.5-0.7c-6.2-2.2-10-6.6-11.3-13.1c-0.3-1.2-0.4-2.5-0.5-3.8c0-0.2-0.1-0.4-0.1-0.5c0-1.1,0-2.2,0-3.4
					c0.1-0.9,0.2-1.8,0.3-2.6c0.6-5,2-9.8,4-14.4c4-9.1,9.6-17.2,16.7-24.2c4.6-4.6,9.4-8.7,15.1-11.9c3.2-1.7,6.4-3.3,9.9-4
					c1.1-0.2,2.3-0.4,3.4-0.6C932.7,327.6,933.5,327.6,934.3,327.6z"/>
				<path fill="#F1FFFF" d="M938.2,362.6c0.5-0.1,0.9-0.1,1.2-0.3c1.2-0.6,2.4-1.2,3.5-1.9c2.3-1.5,4.3-3.4,6.2-5.5
					c2-2.1,4.1-4,6.6-5.5c2.1-1.4,4.3-2.3,6.9-2.1c3.3,0.2,5.5,2.8,5,6.1c-0.4,2.6-1.4,4.9-3.2,6.8c-0.6,0.7-1.4,1.3-2.2,1.6
					c-1.4,0.6-2.8-0.3-2.9-1.9c-0.1-2.7,2.4-5.6,5.2-5.8c0.2,0,0.4-0.1,0.5-0.3c0.5-1,0.2-2.7-1.5-2.7c-1.4,0-2.6,0.6-3.7,1.5
					c-2.1,1.6-3.9,3.5-5.6,5.6c-3.9,4.8-6.8,10.2-8.9,16c-0.5,1.4-0.7,2.9-0.5,4.5c0.4,2.4,2.1,3.6,4.5,2.9c2.1-0.6,3.7-1.8,5.3-3.2
					c3.4-3.1,6.2-6.5,9-10.2c2.5-3.4,5-6.8,7.6-10.2c2.5-3.2,5.4-6.1,8.7-8.4c1.6-1.1,3.2-2,5.1-2.4c2.1-0.4,3.8,0.3,5.1,2
					c0.1,0.1,0.2,0.2,0.3,0.3c0.1-0.1,0.2-0.1,0.2-0.2c0.4-1.1,1.2-1.3,2.3-1.2c1.8,0.1,3.7,0,5.5,0c0.2,0,0.4,0,0.7,0
					c-0.2,0.4-0.4,0.7-0.5,0.9c-5.3,9.2-10.6,18.4-15.9,27.6c-0.3,0.5-0.5,1.1-0.6,1.7c-0.1,0.8,0.5,1.2,1.3,0.9
					c0.6-0.2,1.2-0.6,1.7-0.9c2-1.4,3.6-3.2,5.1-5.1c1.4-1.7,2.8-3.5,4.1-5.3c0.3-0.5,0.7-0.6,1.2-0.6c0.6,0,1.1,0,1.8,0
					c-0.1,0.2-0.1,0.3-0.2,0.3c-3.3,4.8-6.7,9.5-10.9,13.6c-2.1,2-4.3,4-7,5.3c-1.2,0.6-2.5,0.9-3.8,0.6c-1.3-0.3-2.4-1.5-2.5-3
					c-0.1-1,0-1.9-0.1-3c-0.1,0.2-0.2,0.4-0.4,0.5c-1.4,1.6-3,3-4.8,4.1c-1.2,0.8-2.5,1.3-4,1.5c-2.9,0.3-5-1.5-5.1-4.4
					c-0.1-1.7,0.4-3.4,0.8-5.1c0.1-0.2,0.1-0.4,0-0.7c-0.2,0.2-0.4,0.4-0.6,0.5c-2.4,2.1-4.7,4.4-7.2,6.4c-2,1.7-4.4,2.8-7.1,3.2
					c-1.4,0.2-2.7,0.3-4.1-0.2c-2.8-1-4-3.2-4.6-5.9c-0.8-3.7,0.2-7.1,1.7-10.4c0.9-1.9,1.9-3.8,2.8-5.7c0.1-0.2,0.2-0.4,0.4-0.7
					c-1,0.2-1.9,0.5-2.9,0.7c-0.8,0.1-1.3,0.6-1.7,1.3c-1.9,3-3.7,6.1-5.8,9c-2.9,3.8-6.2,7.3-10.2,10c-1.7,1.1-3.4,1.9-5.4,2.1
					c-2.2,0.2-4.3-1-5.1-3c-0.7-1.7-0.8-3.5-0.7-5.4c0.5-5.3,2.7-10.1,5.5-14.5c3.4-5.4,7.5-10.2,12.8-13.9c2.1-1.5,4.4-2.8,7-3.3
					c4-0.7,6.6,1.4,6.6,5.5c0,2.2-0.5,4.4-1.3,6.4C939.1,360.4,938.7,361.4,938.2,362.6z M968.1,378.3c0.1,0.7,0.3,1.2,0.9,1.5
					c0.5,0.3,1.1,0.3,1.7,0c1.3-0.8,2.5-1.7,3.5-2.9c1.3-1.7,2.6-3.5,3.8-5.3c3.7-6.2,7.2-12.4,10.8-18.6c0.4-0.7,0.2-1.3-0.6-1.6
					c-0.6-0.3-1.3-0.1-1.9,0.1c-1.3,0.5-2.4,1.3-3.2,2.4c-2.5,3.2-5.1,6.3-7.5,9.6c-2.6,3.6-4.9,7.4-6.4,11.7
					C968.7,376.2,968.4,377.2,968.1,378.3z M926.7,359.7c-0.2,0.2-0.3,0.3-0.3,0.4c-1.2,1.9-2.5,3.8-3.7,5.7
					c-1.7,2.8-3.1,5.6-3.8,8.8c-0.2,0.9-0.3,1.9-0.2,2.8c0.2,1.8,1.4,2.6,3.1,2.1c0.4-0.1,0.9-0.3,1.2-0.5c1.6-0.9,2.8-2.2,4.1-3.5
					c2.6-2.9,4.5-6.2,6.5-9.5c0.1-0.2,0.2-0.5,0.3-0.8C930.8,364.2,928.2,362.7,926.7,359.7z M937.9,354.5c0-0.3,0-0.6,0-0.9
					c-0.3-2.2-1.3-3-3.6-2.4c-0.4,0.1-0.8,0.3-1.1,0.5c-1.6,1.1-2.8,2.4-3.5,4.2c-0.6,1.5-0.5,3,0.6,4.3c1.2,1.5,2.7,2.2,4.6,2.5
					c0.4,0,0.6-0.1,0.7-0.5c0.4-1,0.9-2,1.3-3C937.5,357.7,937.9,356.1,937.9,354.5z"/>
			</g>
		</g>
		<g id="KRyJ1s.tif_3_">
			<g>
				<path fill="#F1FFFF" d="M1103.2,343.1c0.6-1.1,1.1-2.2,1.6-3.3c0.5-1.1,1-2.3,1-3.5c0-0.9-0.4-1.3-1.2-0.9
					c-0.8,0.4-1.6,0.8-2.3,1.3c-3.1,2.4-5.9,5.2-8.5,8.1c-5.4,6.1-10,12.8-14.2,19.8c-2.6,4.4-5.1,8.9-7.6,13.3
					c-0.2,0.4-0.4,0.9-0.5,1.4c0.3-0.2,0.6-0.3,0.9-0.5c1.6-1.3,3.3-2.5,4.9-3.9c6.9-6.2,13.2-12.9,18.8-20.3c0.5-0.7,1-1.2,2-1.2
					c0.4,0,0.8-0.1,1.4-0.1c-0.3,0.5-0.6,0.9-0.9,1.3c-3.6,5.1-7.8,9.8-12.1,14.4c-5.2,5.6-10.9,10.6-17.2,15
					c-0.2,0.1-0.3,0.3-0.4,0.5c-1.9,4.2-3.7,8.4-4.5,13c-0.2,0.9-0.2,1.9,0,2.7c0.2,1.3,1.5,1.9,2.5,1.1c1.2-0.9,2.3-1.9,3.1-3
					c1.7-2.2,3.3-4.6,4.8-6.9c2.6-4,5.2-8,8.3-11.7c2.8-3.4,5.9-6.4,9.8-8.7c1.7-1,3.4-1.4,5.4-1.1c1.2,0.2,2,1.1,2.7,2
					c0.2,0.2,0.3,0.4,0.6,0.7c0.3-0.6,0.6-1.1,0.9-1.6c0.1-0.2,0.4-0.4,0.5-0.4c2.4,0,4.7,0,7.1,0c0.1,0,0.1,0,0.2,0.1
					c-0.1,0.2-0.2,0.4-0.3,0.6c-3.6,6.4-7.2,12.7-10.7,19.1c-1.4,2.5-2.8,4.9-4.2,7.4c-0.4,0.7-0.6,1.4-0.9,2.1
					c-0.2,0.5-0.3,1,0.2,1.3c0.5,0.4,0.9,0.2,1.4-0.1c2.1-1.3,3.8-2.9,5.3-4.8c1.8-2.3,3.4-4.7,5.1-7c0.2-0.3,0.5-0.5,0.9-0.5
					c0.6,0,1.2,0,1.9,0c-0.3,0.5-0.5,0.8-0.7,1.2c-2.9,4.6-6.2,9-10,12.9c-2.2,2.2-4.7,4.1-7.5,5.3c-0.7,0.3-1.6,0.4-2.4,0.4
					c-1.5,0-2.6-0.8-2.9-2.3c-0.2-1-0.2-2.1-0.2-3.2c0-0.2,0.1-0.4,0.1-0.6c0,0-0.1-0.1-0.1-0.1c-0.4,0.4-0.8,0.9-1.2,1.3
					c-1.7,1.7-3.6,3.2-5.8,4.2c-1.1,0.5-2.2,0.8-3.4,0.6c-2.1-0.3-3.4-1.8-3.6-4.1c-0.1-0.9,0-1.8,0-2.8c0-0.3,0-0.5,0-0.9
					c-0.3,0.3-0.4,0.5-0.6,0.7c-1.7,2-3.4,3.9-5.6,5.4c-0.9,0.6-1.9,1.2-3,1.5c-2.3,0.8-4.3-0.1-5.5-2.2c-0.7-1.2-0.9-2.6-0.8-4
					c0.1-3.1,1-6,1.9-8.9c0.6-1.8,1.2-3.5,1.8-5.4c-0.4,0.1-0.6,0.1-0.9,0.1c-0.9,0.1-1.9,0.3-2.8,0.3c-0.5,0-0.7,0.3-0.9,0.6
					c-1.9,2.9-3.7,5.9-5.7,8.7c-2.7,3.8-6,7.1-10.1,9.5c-1.3,0.8-2.8,1.4-4.3,1.5c-3,0.2-4.5-1.7-5-3.7c-0.5-2.1-0.3-4.2,0.2-6.3
					c1-4.5,3-8.6,5.5-12.5c2.7-4.2,5.7-8.1,9.5-11.4c2.3-2,4.7-3.6,7.6-4.5c1.1-0.4,2.2-0.5,3.3-0.4c2.2,0.2,3.3,1.9,3.7,3.4
					c0.5,2.3,0.2,4.6-0.6,6.8c-0.6,1.8-1.4,3.5-2.1,5.3c-0.1,0.2-0.2,0.4-0.3,0.7c1.5,0.1,2.8-0.3,4.1-0.9c0.2-0.1,0.3-0.4,0.4-0.6
					c3.8-7.9,8.1-15.7,13.1-23c6.1-9,13.1-17.1,21.6-24c2-1.6,4.2-3.1,6.5-4.2c1.2-0.5,2.4-0.9,3.7-0.8c1.6,0.1,2.5,0.9,2.6,2.6
					c0.2,2-0.4,3.9-1.2,5.7c-0.9,2-1,2.1-3.2,2.4C1103.5,343.1,1103.4,343.1,1103.2,343.1z M1080.3,400c0,0.7,0.8,1.4,2,0.9
					c0.6-0.2,1.1-0.6,1.5-0.9c1.5-1.1,2.5-2.6,3.6-4.1c2.9-4.1,5.3-8.4,7.8-12.7c1.4-2.5,2.9-5,4.4-7.6c0.3-0.5,0.5-1,0.1-1.6
					c-0.4-0.6-1-0.6-1.6-0.4c-0.7,0.2-1.4,0.6-2,1c-0.8,0.6-1.6,1.3-2.3,2c-5.2,5.3-9.1,11.4-12.3,18
					C1080.8,396.2,1080.3,397.8,1080.3,400z M1045.9,381.8c-1.1,1.7-2.2,3.2-3.2,4.7c-1.8,2.8-3.4,5.8-4.3,9
					c-0.3,1.1-0.5,2.3-0.3,3.4c0.2,1.5,1.4,2.3,2.8,1.9c1.4-0.3,2.5-1.2,3.5-2.1c3.2-3,5.6-6.6,7.6-10.4c0.1-0.2,0.2-0.4,0.3-0.7
					C1049.6,386.4,1047.4,384.7,1045.9,381.8z M1056.7,376.2c0-0.3,0-0.7,0-1c-0.2-1.5-0.9-2.3-2.2-2.2c-0.5,0-1.1,0.1-1.6,0.4
					c-1.4,0.7-2.6,1.7-3.5,3c-2.3,3.6-0.2,7.7,3.7,9c0.2,0.1,0.5-0.1,0.6-0.3c0.4-0.7,0.7-1.3,1.1-2
					C1055.8,380.9,1056.8,378.7,1056.7,376.2z"/>
				<path fill="#F1FFFF" d="M1087.6,342.2c-1.8,2-3.7,4-5.5,5.9c-0.1,0.1-0.5,0.1-0.7,0c-1.2-0.7-2.3-1.3-3.5-2.1
					c-3.5-2.2-7-4.5-10.6-6.6c-2.8-1.6-5.7-2.8-8.9-3.3c-1-0.1-2-0.1-3,0.2c-0.3,0.1-0.5,0.3-0.4,0.6c0.3,3.7-0.7,7.1-2.1,10.5
					c-1.9,4.7-4.7,8.7-8.4,12.1c-1.6,1.4-3.4,2.5-5.4,3.1c-2.8,0.8-4.9-0.6-5.3-3.5c-0.3-1.9,0.2-3.6,0.9-5.3
					c2.3-5.8,6-10.5,10.7-14.5c1.7-1.4,3.5-2.6,5.2-3.8c0.1-0.1,0.2-0.2,0.4-0.3c-1.1-0.5-2.1-0.5-3.2-0.3c-1.5,0.2-2.9,0.9-4.2,1.7
					c-5.2,2.8-9.7,6.5-13.7,10.8c-7.4,7.8-13.8,16.4-18.9,25.9c-2.8,5.3-5,10.7-6,16.6c-0.4,2.4-0.8,4.8-0.2,7.3
					c0.7,2.6,2.1,4.5,4.8,5.2c1.6,0.5,3.2,0.1,4.7-0.6c2.7-1.2,4.9-3,6.9-5.1c4-4.2,7.1-8.9,8.9-14.4c0.7-2.1,1.2-4.2,1-6.4
					c-0.1-2.1-1.4-2.9-3.4-2.2c-1.5,0.6-2.5,1.7-3.4,2.9c-2,2.7-3.4,5.6-4,8.9c0,0.2-0.2,0.5-0.4,0.6c-3.6,1.7-6.6,4.2-9.3,7
					c-0.1,0.1-0.2,0.2-0.4,0.4c0.9-6.6,2.8-12.6,7-17.6c2.5-3,5.6-5.2,9.4-6.1c1-0.2,2-0.4,3-0.2c1.7,0.4,2.8,1.6,3.3,3.2
					c0.7,2.1,0.6,4.3,0.2,6.4c-0.9,5.1-3.2,9.5-6,13.8c-3.5,5.4-7.9,9.8-13.5,13.1c-2.4,1.4-4.9,2.2-7.7,2.3
					c-4.4,0.1-7.6-1.8-9.8-5.6c-1.9-3.2-2.3-6.7-2.1-10.3c0.4-5.7,2.3-11,4.7-16c6.6-13.8,15.7-25.6,27.5-35.2
					c5.1-4.1,10.7-7.3,17.1-9.2c2.3-0.7,4.6-0.9,7-0.2c1,0.3,2,0.8,2.8,1.5c0.3,0.3,0.5,0.3,0.8,0.2c1.9-0.6,3.7-1.3,5.6-1.7
					c4.7-1,9.3-0.3,13.5,2c4.8,2.5,9.5,5.3,14.2,8C1087.5,342.1,1087.6,342.2,1087.6,342.2z M1052.7,337.3c-0.7,0.4-1.1,0.6-1.6,0.9
					c-6,3.7-10.4,8.9-13.7,15.1c-0.7,1.4-1.3,2.9-1.5,4.5c-0.2,2.1,1.4,3.3,3.3,2.4c0.8-0.3,1.5-0.8,2.2-1.3
					c6.5-5.1,10.3-11.7,11.3-19.9C1052.8,338.5,1052.7,338,1052.7,337.3z"/>
				<path fill="#F1FFFF" d="M1124.5,331.9c-1,2.2-2.4,4.2-3.9,6.1c-4.8,6.1-10.8,10.6-18.2,12.9c-3.8,1.2-7.6,1.6-11.5,0.8
					c-0.1,0-0.2,0-0.2,0c-0.2,0-0.3-0.1-0.6-0.2c0.1-0.2,0.2-0.3,0.3-0.5c1.6-1.9,3.2-3.9,4.8-5.8c0.2-0.2,0.5-0.4,0.7-0.3
					c4.5,0.4,8.8-0.4,13-2.1c5.9-2.5,11-6.1,15.5-10.7C1124.3,332.1,1124.4,332,1124.5,331.9z"/>
			</g>
		</g>
		<path fill="#F1FFFF" d="M1021.1,342.4c-1.2,0.9-2.4,1.7-3.5,2.6c-1.3,0.9-2.5,1.9-3.8,2.8c-0.2,0.1-0.7,0.3-1,0.3
			c-4.2,0-8.4,0-12.5,0c-0.1,0-0.1,0-0.3-0.1c0.1-0.1,0.1-0.2,0.2-0.2c2.3-1.7,4.6-3.4,6.9-5.1c0.2-0.1,0.6-0.3,0.9-0.3
			C1012.4,342.4,1016.6,342.4,1021.1,342.4z"/>
	</g>
	<rect x="713.3" y="95.9" opacity="0.1" width="60.9" height="323.6"/>
	<rect x="293.7" y="157.1" fill="#3B8891" width="855.4" height="8.1"/>
	<rect x="293.7" y="223.5" fill="#3B8891" width="855.4" height="8.1"/>
	<rect x="713.3" y="95.5" opacity="0.1" width="22.7" height="323.3"/>
	<rect x="23.2" y="367.7" fill="#457A8C" width="43.7" height="51.8"/>
	<rect x="287.3" y="367.7" fill="#457A8C" width="43.7" height="51.8"/>
	<rect x="85.6" y="367.7" fill="#457A8C" width="176.2" height="51.8"/>
	<rect x="309.4" y="94" opacity="0.1" width="819.9" height="22.9"/>
	<rect x="309.4" y="165.3" opacity="0.1" width="819.9" height="22.9"/>
	<rect x="309.4" y="231.1" opacity="0.1" width="819.9" height="22.9"/>
	<rect x="23.2" y="368.3" opacity="0.1" width="44.3" height="13"/>
	<rect x="287.3" y="368.3" opacity="0.1" width="44.3" height="13"/>
	<rect x="85.3" y="368.3" opacity="0.1" width="176.5" height="13"/>
</g>
</svg>
