<?xml version="1.0" encoding="utf-8"?>
<!-- Generator: Adobe Illustrator 18.0.0, SVG Export Plug-In . SVG Version: 6.00 Build 0)  -->
<!DOCTYPE svg PUBLIC "-//W3C//DTD SVG 1.1//EN" "http://www.w3.org/Graphics/SVG/1.1/DTD/svg11.dtd">
<svg version="1.1" id="Layer_1" xmlns="http://www.w3.org/2000/svg" xmlns:xlink="http://www.w3.org/1999/xlink" x="0px" y="0px"
	 viewBox="0 0 308.2 615.1" enable-background="new 0 0 308.2 615.1" xml:space="preserve">
<g>
	
		<rect x="277.3" y="-7.7" transform="matrix(0.8228 0.5684 -0.5684 0.8228 72.9023 -151.2698)" fill="#7A423F" width="3.3" height="98"/>
	<path fill="#D89F79" d="M285.3,89.6c0-2,0-22.7,8-31.3c8-8.7-2-35.3-13.3-31.3c-11.3,4-24.7,27.3-17.3,27.3c7.3,0,3.3,28.7,6,37.3
		l13.3-0.7L285.3,89.6z"/>
	<polygon fill="#333333" points="100.8,333.8 95.8,600.4 114.5,600.4 148.8,379.1 163.9,598.6 187,598.6 191.8,332.5 	"/>
	<rect x="121.3" y="162.7" fill="#F2F2F2" width="51.9" height="50.1"/>
	<path fill="#808080" d="M129.1,186.2c0,0,6,13.1,14.8,20.6c0,0,15-10,18.6-22.6c3.6-12.7,8.9-30.5,8.9-30.5l47.9,9.2
		c0,0-18.5,47.1-21.7,84c-3.2,37-3.2,126.5-3.2,126.5h-97c0,0-1.6-111.3-12.7-153.8S66,163.1,66,163.1s21.6,1.9,55.7-9.8
		c0.4-0.1,0.9,0,1.3,0C122.3,168.7,129.1,186.2,129.1,186.2z"/>
	<path fill="#331A0A" d="M97.3,598.6h12.3c0,0,4.8,15.5-11.2,16.5H77.7c0,0-4.6-9.8,7.8-10.5C85.4,604.6,96.2,602.7,97.3,598.6z"/>
	<path fill="#331A0A" d="M183.4,598.6H171c0,0-4.8,15.5,11.2,16.5H203c0,0,4.6-9.8-7.8-10.5C195.3,604.6,184.5,602.7,183.4,598.6z"
		/>
	<path fill="#D89F79" d="M191,55v73.4c0,7.3-6,13.2-13.4,13.2h-10.1v17.6c0,0-23.6,19.4-41.9,0v-37.5c0,0-11.2-2.2-11.2-14.9
		s12.9-6.6,12.9-6.6V55H191z"/>
	<g>
		<path d="M154.8,105.7c-6,0-10.9-4.8-10.9-10.7c0-5.9,4.9-10.8,10.9-10.8c6,0,10.9,4.8,10.9,10.8
			C165.7,100.9,160.8,105.7,154.8,105.7z M154.8,85.5c-5.3,0-9.6,4.2-9.6,9.4c0,5.2,4.3,9.4,9.6,9.4c5.3,0,9.6-4.2,9.6-9.4
			C164.4,89.8,160.1,85.5,154.8,85.5z"/>
	</g>
	<g>
		<path d="M183.1,105.7c-6,0-10.9-4.8-10.9-10.7c0-5.9,4.9-10.8,10.9-10.8c6,0,10.9,4.8,10.9,10.8
			C194,100.9,189.1,105.7,183.1,105.7z M183.1,85.5c-5.3,0-9.6,4.2-9.6,9.4c0,5.2,4.3,9.4,9.6,9.4c5.3,0,9.6-4.2,9.6-9.4
			C192.6,89.8,188.3,85.5,183.1,85.5z"/>
	</g>
	<path d="M164.8,92.3c0,0,3.7-5.4,9.1,0l-1.2,1.5c0,0-3.5-3.5-7.1,0"/>
	<rect x="120.6" y="93.8" width="24.1" height="1.2"/>
	<polygon fill="#D88039" points="153,67.4 155.1,73.5 147.4,75.2 153.9,82.2 151.6,76.1 158,74 	"/>
	<path fill="#0A0400" d="M155.4,59.8c0,0,17.2,8.3,17.2,25.7l2.1-9.8c0,0,7.3,7.6,15.3,9.4v24.4c0,0,22.4-30.5,2.1-55.8
		s-44.9-20.9-55.5-5.2c0,0-32,11-17.3,50.4c0,0,12.1,1.9,13,16.8c0,0,11.5-2.1,2.7-26.1h2.6C137.7,89.5,133.3,65.5,155.4,59.8z"/>
	<polygon fill="#852A34" points="136,168.4 141.1,182.5 152.5,182 159.1,169.3 155.2,164 136,164.9 	"/>
	<polygon fill="#E2A235" points="138.3,174.2 147.6,182.3 140.6,182.5 	"/>
	<polygon fill="#E2A235" points="143.6,164.7 156.8,172.8 158.9,169.3 154.6,164 	"/>
	<path fill="#FFFFFF" d="M142.2,164.8l-10.9,15.9c0,0-17.2-15.8-7.5-30.8l2.2-1.3C126,148.6,128.2,164.4,142.2,164.8z"/>
	<path fill="#FFFFFF" d="M152.1,164.5l10.5,16.3c0,0,17.2-15.8,7.5-30.8l-2.8-1.3C167.4,148.6,166.2,164,152.1,164.5z"/>
	<path fill="#852A34" d="M140.9,182.1l-6.3,13.5c0,0,4.5,8.1,9.2,11.2c0,0,9.6-6,12.5-11.5l-3.7-13.3L140.9,182.1z"/>
	<path fill="#E2A235" d="M153.8,186.4l-16.2,14.3c0,0,3.8,4.7,6.2,6.2c0,0,10.4-6.4,12.7-11.4L153.8,186.4z"/>
	<path fill="#1A1A1A" d="M120.2,153.6c0,0-8.3,84.2,5.4,141.6s8.8,249.1,8.8,249.1s-42.8-3.9-67.1-43.8c0,0,18.5-135.3,17.5-187.8
		S66,163.3,66,163.3S84.7,159,120.2,153.6z"/>
	<path fill="#1A1A1A" d="M171.8,152.6c0,0,7,85.2-6.6,142.6s-8.8,249.1-8.8,249.1s42.8-3.9,67.1-43.8c0,0-18.5-135.3-17.5-187.8
		c1-52.6,18.7-149.4,18.7-149.4S194.9,156,171.8,152.6z"/>
	<path fill="#1A1A1A" d="M213.9,160.3l50.7,5.3c0,0-7.2-52.1,1.9-86.1h25.5c0,0-0.5,82.3,3.7,104.1l-92.6,30.2L213.9,160.3z"/>
	<path fill="#852A34" d="M44.8,285.3c0-2.8,22.6-33.7,22.6-33.7l53.6,28.7l-27.1,50.3L44.8,285.3z"/>
	<polygon fill="#FFFFFF" points="103.9,277 116.6,283.1 89,329.5 79.6,319.5 	"/>
	<g>
		<path fill="#E2A235" d="M78.1,310.8L50.3,286l16.8-27.8l31.8,18.5L78.1,310.8z M52.5,285.7l25.3,22.6l18.9-31l-28.9-16.8
			L52.5,285.7z"/>
	</g>
	<path fill="#D89F79" d="M65.8,325.4c22,29.9,33.9,19.2,36.7,14.1c2.8-5.1-14.1-16.5-14.1-16.5s6.7,5.4,8.7,1.4s-5.4-10.6-5.4-10.6
		s-11.4-12.1-20.2-4.8C62.8,316.3,65.8,325.4,65.8,325.4z"/>
	<path fill="#1A1A1A" d="M66.1,163.3L0,279.2l66.3,53l14.9-29.8c0,0-16-11-35.9-29.3L84,212.3C84,212.3,87.5,169.5,66.1,163.3z"/>
</g>
</svg>
