<?xml version="1.0" encoding="utf-8"?>
<!-- Generator: Adobe Illustrator 18.0.0, SVG Export Plug-In . SVG Version: 6.00 Build 0)  -->
<!DOCTYPE svg PUBLIC "-//W3C//DTD SVG 1.1//EN" "http://www.w3.org/Graphics/SVG/1.1/DTD/svg11.dtd">
<svg version="1.1" id="Layer_1" xmlns="http://www.w3.org/2000/svg" xmlns:xlink="http://www.w3.org/1999/xlink" x="0px" y="0px"
	 viewBox="0 0 225 371" enable-background="new 0 0 225 371" xml:space="preserve">
<g>
	<path fill="#FFFFFF" d="M224,350c0,11.6-9.4,21-21,21H21c-11.6,0-21-9.4-21-21V21C0,9.4,9.4,0,21,0h182c11.6,0,21,9.4,21,21V350z"
		/>
	<g>
		<path fill="#FFFFFF" d="M225,21c0-11.6-9.4-21-21-21H22C15.9,0,10.4,2.6,6.6,6.8C54.1,46.4,176.4,152.3,225,194.4V21z"/>
		<path fill="#EAEAEA" d="M1,350c0,11.6,9.4,21,21,21h182c11.6,0,21-9.4,21-21V194.4C176.4,152.3,54.1,46.4,6.6,6.8
			C3.1,10.5,1,15.5,1,21V350z"/>
	</g>
	<path fill="#B8B5AE" d="M186,134c0,3.9-3.1,7-7,7H42c-3.9,0-7-3.1-7-7V26c0-3.9,3.1-7,7-7h137c3.9,0,7,3.1,7,7V134z"/>
	<path fill="none" stroke="#6D6D6D" stroke-miterlimit="10" d="M186.5,134.5c0,3.9-3.1,7-7,7h-137c-3.9,0-7-3.1-7-7v-108
		c0-3.9,3.1-7,7-7h137c3.9,0,7,3.1,7,7V134.5z"/>
	<path opacity="0.43" fill="#82817F" d="M35,89.2V135c0,3.9,3.1,7,7,7h42C62.2,130.6,44.8,111.9,35,89.2z"/>
	<circle fill="none" stroke="#6D6D6D" stroke-miterlimit="10" cx="111.5" cy="250.5" r="26"/>
	<circle fill="none" stroke="#6D6D6D" stroke-miterlimit="10" cx="112.1" cy="250.5" r="93.4"/>
	<path fill="none" stroke="#6D6D6D" stroke-miterlimit="10" d="M184.3,250.5c0,39.9-32.4,70.7-72.2,72.2
		c-36.7,1.4-71.1-31.8-72.2-72.2c-1.1-39.9,32.3-72.2,72.2-72.2S184.3,210.6,184.3,250.5z"/>
	<line fill="none" stroke="#6D6D6D" stroke-miterlimit="10" x1="46.1" y1="184.3" x2="60.7" y2="199.3"/>
	<line fill="none" stroke="#6D6D6D" stroke-miterlimit="10" x1="178.1" y1="184.4" x2="162.8" y2="199.2"/>
	<line fill="none" stroke="#6D6D6D" stroke-miterlimit="10" x1="177.1" y1="317.6" x2="162" y2="302"/>
	<line fill="none" stroke="#6D6D6D" stroke-miterlimit="10" x1="45.2" y1="316.5" x2="60.8" y2="300.4"/>
	<line fill="none" stroke="#B8B5AE" stroke-miterlimit="10" x1="22.5" y1="247" x2="22.5" y2="254"/>
	<polygon fill="#B8B5AE" points="22.9,250.5 28,248.1 28,253.4 	"/>
	<polygon fill="#B8B5AE" points="27.7,250.5 33,248.1 33,253.2 	"/>
	<g>
		<polyline fill="#6D6D6D" points="104,337 109,333.3 104,330.3 		"/>
		<rect x="112" y="330" fill="#6D6D6D" width="2" height="7"/>
		<rect x="116" y="330" fill="#6D6D6D" width="2" height="7"/>
	</g>
	<g>
		<polyline fill="#6D6D6D" points="189,254 194,250.3 189,247.3 		"/>
		<polyline fill="#6D6D6D" points="194,254 199,250.3 194,247.3 		"/>
		<rect x="198" y="247" fill="#6D6D6D" width="2" height="7"/>
	</g>
	<g>
		<polyline fill="#6D6D6D" points="33,254 28,250.3 33,247.3 		"/>
		<polyline fill="#6D6D6D" points="28,254 23,250.3 28,247.3 		"/>
		<rect x="22" y="247" fill="#6D6D6D" width="2" height="7"/>
	</g>
	<g>
		<g>
			<path fill="#6D6D6D" d="M99,166.7c0-0.5-0.1-0.9-0.2-1.3c0.3,0,0.5-0.1,0.8-0.1c0,0.3,0.1,0.5,0.1,0.8c0,0,0,0,0,0
				c0.2-0.5,0.7-1,1.5-1c0.7-0.1,1.3,0.3,1.5,0.9c0,0,0,0,0,0c0.1-0.3,0.3-0.5,0.5-0.7c0.3-0.2,0.6-0.4,1.1-0.4
				c0.7,0,1.7,0.4,1.8,2.1c0,1,0.1,1.9,0.1,2.9c-0.3,0-0.6,0-0.9,0c0-0.9-0.1-1.9-0.1-2.8c0-0.9-0.4-1.5-1.2-1.5
				c-0.5,0-0.9,0.4-1,0.9c0,0.1-0.1,0.3,0,0.5c0.1,1,0.1,2,0.2,3c-0.3,0-0.6,0-0.9,0.1c-0.1-1-0.1-2-0.2-2.9
				c-0.1-0.8-0.5-1.3-1.2-1.3c-0.6,0-1,0.5-1.1,1c0,0.1,0,0.3,0,0.4c0.1,1,0.2,2,0.3,3c-0.3,0-0.6,0.1-0.9,0.1
				C99.2,169.1,99.1,167.9,99,166.7z"/>
			<path fill="#6D6D6D" d="M108.2,167.5c0,1.2,0.8,1.7,1.7,1.7c0.6,0,1-0.1,1.4-0.3c0.1,0.2,0.1,0.4,0.2,0.6
				c-0.3,0.1-0.9,0.3-1.6,0.3c-1.5,0-2.4-0.9-2.5-2.4c0-1.5,0.8-2.7,2.3-2.7c1.7,0,2.1,1.4,2.1,2.3c0,0.2,0,0.3,0,0.4
				C110.6,167.4,109.4,167.4,108.2,167.5z M110.9,166.8c0-0.6-0.2-1.5-1.3-1.4c-0.9,0-1.3,0.9-1.4,1.5
				C109.1,166.8,110,166.8,110.9,166.8z"/>
			<path fill="#6D6D6D" d="M112.9,166.2c0-0.5,0-0.9,0-1.3c0.3,0,0.6,0,0.8,0c0,0.3,0,0.5,0,0.8c0,0,0,0,0,0
				c0.3-0.5,0.9-0.9,1.7-0.9c0.7,0,1.8,0.5,1.7,2.2c0,1-0.1,2-0.1,2.9c-0.3,0-0.6,0-0.9,0c0-0.9,0.1-1.9,0.1-2.8
				c0-0.8-0.2-1.5-1.1-1.5c-0.6,0-1.1,0.4-1.3,0.9c0,0.1-0.1,0.3-0.1,0.4c0,1,0,2-0.1,3c-0.3,0-0.6,0-0.9,0
				C112.9,168.6,112.9,167.4,112.9,166.2z"/>
			<path fill="#6D6D6D" d="M122.8,169c0,0.5-0.1,1-0.1,1.3c-0.3,0-0.5,0-0.8-0.1c0-0.3,0-0.5,0-0.8c0,0,0,0,0,0
				c-0.3,0.4-0.8,0.8-1.7,0.8c-0.8-0.1-1.7-0.5-1.6-2.3c0.1-1,0.1-1.9,0.2-2.9c0.3,0,0.6,0,0.9,0.1c-0.1,0.9-0.1,1.8-0.2,2.7
				c-0.1,0.9,0.2,1.6,1,1.6c0.6,0,1.1-0.3,1.3-0.7c0.1-0.1,0.1-0.3,0.1-0.4c0.1-1,0.2-2,0.3-3c0.3,0,0.6,0.1,0.9,0.1
				C123,166.6,122.9,167.8,122.8,169z"/>
		</g>
	</g>
	<rect x="36" y="35" fill="#474342" width="149" height="19"/>
	<polygon fill="none" stroke="#474342" stroke-miterlimit="10" points="181.5,31.5 164.5,31.5 164.5,21.5 181.5,21.5 181.5,24.5 
		183.5,24.5 183.5,29.6 181.5,29.6 	"/>
	<rect x="166" y="24" fill="#474342" width="2" height="5"/>
	<rect x="170" y="24" fill="#474342" width="2" height="5"/>
	<rect x="174" y="24" fill="#474342" width="2" height="5"/>
	<rect x="177" y="24" fill="#474342" width="2" height="5"/>
	<polyline fill="none" stroke="#474342" stroke-width="2" stroke-miterlimit="10" points="176.1,66.9 180.9,63 176.1,59.1 	"/>
	<polyline fill="none" stroke="#B2B2B2" stroke-width="2" stroke-miterlimit="10" points="176.1,47.9 180.9,44 176.1,40.1 	"/>
	<polyline fill="none" stroke="#474342" stroke-width="2" stroke-miterlimit="10" points="177.1,83.9 181.9,80 177.1,76.1 	"/>
	<polyline fill="none" stroke="#474342" stroke-width="2" stroke-miterlimit="10" points="177.1,100.9 181.9,97 177.1,93.1 	"/>
	<polyline fill="none" stroke="#474342" stroke-width="2" stroke-miterlimit="10" points="176.1,117.9 180.9,114 176.1,110.1 	"/>
</g>
</svg>
