<?xml version="1.0" encoding="utf-8"?>
<!-- Generator: Adobe Illustrator 18.0.0, SVG Export Plug-In . SVG Version: 6.00 Build 0)  -->
<!DOCTYPE svg PUBLIC "-//W3C//DTD SVG 1.1//EN" "http://www.w3.org/Graphics/SVG/1.1/DTD/svg11.dtd">
<svg version="1.1" id="Layer_1" xmlns="http://www.w3.org/2000/svg" xmlns:xlink="http://www.w3.org/1999/xlink" x="0px" y="0px"
	 viewBox="0 0 128.7 153.1" enable-background="new 0 0 128.7 153.1" xml:space="preserve">
<g>
	<circle fill="#D24309" cx="33.4" cy="9.8" r="9.8"/>
	<path fill="none" stroke="#333333" stroke-miterlimit="10" d="M23.9,8c0,0,1.9,4.5,5,5.9s6.9,2.3,6.9,5.5"/>
	<path fill="none" stroke="#333333" stroke-miterlimit="10" d="M26.3,2.7c0,0,3.5,8.2,13.3,14.7"/>
	<path fill="none" stroke="#333333" stroke-miterlimit="10" d="M31.2,0.3c0,0,4,2.4,5.8,8c1.7,5.6,3.5,5.8,5.1,5.7"/>
	<path fill="none" stroke="#333333" stroke-miterlimit="10" d="M28.3,18.1c0,0,13.9-4.7,12.4-14.8"/>
	<path fill="#A67C52" d="M65.2,103.1c0,0,14.3,11.9,20.3,12.2c6,0.3,17.4,3.1,17.4,3.1l2-5.3c0,0-8.8-7.4-11.9-6.8
		c-3.1,0.5-7.4,1.1-9.4-1.8c-2-2.9-9.6-11.8-14.6-13.1l-4.3,11.8"/>
	<path fill="#E7E9F5" d="M99.5,117.5c-0.2-0.3-0.9-4.1,3.6-6.4l8.4,4.6c0,0-3.9,0.5-2.8,7L99.5,117.5z"/>
	<path fill="#DCC06C" d="M107,121.9c0,0-2.6-3.8,3.6-7.1c0,0,5.6,1.6,8.2,4.1l-0.1,12.6C118.7,131.5,115.9,126.3,107,121.9z"/>
	<path fill="#EEEAE9" d="M100.7,136.4c0,0,3-1.8,5,1.6c2,3.3,4.6,4.7,6.9,5c2.2,0.4,4.4,4.5,4.7,6s0.4,4.7-4.6,4
		c-5-0.7-13.8-12.1-13.8-12.1S99,136.8,100.7,136.4z"/>
	<path fill="#A67C52" d="M50.2,111.8c0,0,9,11.2,19.4,15.7c4.1,5,7.6,8.5,20.1,12.7l2.4-5.6c0,0-4-2.3-7-5.6
		c-3-3.2-10.2-5.4-11.6-7.1c-1.5-1.6-9-12.8-10.4-17.7C61.8,99.1,48.7,108,50.2,111.8z"/>
	<path fill="#CF3A1A" d="M35.8,93.4c-0.2,0.4,0.9,5.6,5.2,10.9s7,11.4,7,11.4s12.9-3.5,16.1-8.7l-1.2-3.5l3.3,1.7
		c0,0,9.2-6.9,7.4-12.4c0,0-12.6-15.5-20.2-14.6C53.3,78.2,38.7,86,35.8,93.4z"/>
	<path fill="#A67C52" d="M18.5,54.4c0,0-7.4,5.6-8.4,8.1S9.5,71,9.5,71S6.1,80.8,4,83.1s-3.7,9.8-3.7,9.8s1,7-0.1,8.9s1.3,1.3,3.1-2
		c1.8-3.3,1-5.5,1-5.5s1.3,2.5,2.3,1.4c0.9-1.1-0.5-2.8-0.5-2.8s5.5-5.7,6.6-10c0,0,3.5-7.8,4.4-12.8l3.5-0.2
		C20.5,69.9,30.8,56.4,18.5,54.4z"/>
	<path fill="#A67C52" d="M38.1,2l3.3,1.9l1.7,4.3l-1.1,3L37.7,11c0,0-0.1,2.1,0.6,2.2C39.2,13.3,42,14,42,14l-1.1,1.4l1.8,2.5
		c0,0-3.7,16.9-2.8,19.9l-2.6,4.4L34.1,45c0,0,2.3,12.4,10,6.5c0,0,4.1-4.5,1.5-9.6c0,0,3.8-7.4,2.5-15.2
		c-1.3-7.7-0.8-10.2-1.7-13.5S42,2.8,42,2.8S38.4-0.4,38.1,2z"/>
	<path fill="#A67C52" d="M32.6,46l-2.1-4.8c0,0,1.6-7.6-5-10s-11.3,3.9-10.4,8.4c0.9,4.5,2.2,10.1,2.2,10.1l3.5-0.6l0.8,1.9
		C21.7,51.2,31.8,52.3,32.6,46z"/>
	<path fill="#CE3A1D" d="M21.7,50.3l-3.3,3.9c0,0,7.8,2.8,1.3,16.1c0,0,3.5,4.5,4.8,5.9c1.4,1.4,10.7,16.7,10.7,16.7l18.2-16
		c0,0-6.9-13.7-8.3-27.1c0,0-6.3-5.1-9.6-5.5L32,45c0,0,1.2,2.5-0.9,3.6S21.7,50.3,21.7,50.3z"/>
	<path fill="#FFFFFF" d="M19.2,53.3c0,0,8.8,4.1,1.2,17.7l-0.7-0.8c0,0,6.7-11.9-1.3-16.1L19.2,53.3z"/>
	<path fill="#FFFFFF" d="M35.3,44.4c0,0,6.2,2.8,10,7.4c0.3,0.4-0.2-2.1-0.2-2.1S38.1,43.8,35.3,44.4z"/>
	<path fill="#FFFFFF" d="M21,51.2c0,0,9,0.7,11.6-2.2c2.6-2.9,0.2-4,0.2-4l-1-0.1c0,0,1.7,2.7-0.6,3.7c-2.8,1.2-9.5,1.7-9.5,1.7
		L21,51.2z"/>
	<path opacity="0.2" d="M22.1,38.6c0,0,4.4,0.6,1.6,4.3C23.7,42.9,25.4,39.7,22.1,38.6z"/>
	<path fill="#FFFFFF" d="M1.8,87.6c0,0,1.3,5.3,5.9,3.5c0,0,3.3-2.2,3.9-5.6c0,0-3.9,2.7-7.1-2.9C4.5,82.6,2.7,83.4,1.8,87.6z"/>
	<polygon opacity="0.1" points="17.3,49.9 20.9,49.3 21.7,50.3 24.2,49.9 24,47.3 22,48.3 17.1,49.2 	"/>
	<path opacity="0.1" d="M6.9,77.7c0,0,0.7,3.5,2.9,3.7l1.9,2.1c0,0-1.7,2.5-4.5,2c0,0-1.7-0.5-2.5-3.1L6.9,77.7z"/>
	<path opacity="0.1" d="M42,14l2.4,3.2L42.7,18l-1.8-2.5C40.9,15.4,42.1,14.6,42,14z"/>
	<g>
		<path fill="#FFFFFF" d="M28.8,67.1c0.1-0.1,0.1-0.2,0.2-0.2c0.2-0.2,0.2-0.4-0.1-0.7c-1-0.8-2-1.6-3-2.5c0.2-0.3,0.4-0.5,0.7-0.8
			c0.9,0.8,1.9,1.7,2.8,2.5c0.7,0.7,0.6,1.3,0.2,1.7c-0.1,0.1-0.2,0.2-0.3,0.3C29.2,67.4,29,67.2,28.8,67.1z"/>
		<path fill="#FFFFFF" d="M28,63.3c-0.6-0.5-0.6-1.3,0.2-2c0.7-0.7,1.5-0.7,2,0c0.6,0.7,1.1,1.3,1.7,2c0.5,0.6,0.5,1.3-0.1,1.8
			c-0.6,0.5-1.2,0.6-1.8,0C29.2,64.5,28.6,63.9,28,63.3z M30.5,64.5c0.3,0.3,0.5,0.2,0.7,0.1c0.2-0.2,0.2-0.4,0-0.7
			c-0.6-0.7-1.2-1.4-1.8-2c-0.2-0.3-0.5-0.2-0.7,0c-0.2,0.2-0.3,0.5,0,0.7C29.3,63.2,29.9,63.9,30.5,64.5z"/>
		<path fill="#FFFFFF" d="M34.4,62.9c-0.1-0.1-0.2-0.1-0.4-0.5c-0.1-0.2-0.3-0.4-0.4-0.7c-0.3-0.4-0.5-0.4-0.8-0.2
			c-0.1,0.1-0.2,0.1-0.3,0.2c0.4,0.6,0.8,1.1,1.2,1.7c-0.2,0.2-0.4,0.3-0.7,0.5c-1-1.3-2.1-2.6-3.1-4c0.4-0.3,0.8-0.6,1.2-0.9
			c0.9-0.6,1.5-0.5,1.9,0.2c0.1,0.1,0.1,0.2,0.2,0.3c0.3,0.4,0.3,0.8,0,1.2c0.5-0.1,0.8,0.1,1.1,0.6c0.1,0.2,0.3,0.4,0.4,0.7
			c0.1,0.2,0.2,0.4,0.4,0.5C34.8,62.6,34.6,62.8,34.4,62.9z M31.1,59.9c0.3,0.4,0.6,0.8,0.9,1.3c0.1-0.1,0.2-0.1,0.3-0.2
			c0.3-0.2,0.4-0.4,0.2-0.8c-0.1-0.1-0.2-0.3-0.3-0.4c-0.2-0.3-0.4-0.4-0.7-0.2C31.4,59.7,31.2,59.8,31.1,59.9z"/>
		<path fill="#FFFFFF" d="M32.9,57.9c0.5-0.3,0.9-0.5,1.4-0.7c0.9-0.4,1.6-0.2,1.9,0.5c0.3,0.8,0.7,1.6,1,2.4
			c0.3,0.7,0.1,1.3-0.6,1.6c-0.4,0.2-0.8,0.4-1.1,0.6C34.6,60.8,33.8,59.4,32.9,57.9z M34.2,58c0.6,1.1,1.1,2.1,1.7,3.2
			c0.1-0.1,0.3-0.1,0.4-0.2c0.2-0.1,0.3-0.3,0.2-0.6c-0.4-0.8-0.7-1.6-1.1-2.4c-0.2-0.3-0.4-0.4-0.7-0.2C34.5,57.9,34.3,58,34.2,58z
			"/>
		<path fill="#FFFFFF" d="M40.7,60.2c-0.3,0.1-0.5,0.1-0.8,0.2c-0.1-0.3-0.3-0.6-0.4-0.8c-0.3,0.1-0.7,0.2-1,0.3
			c0.1,0.3,0.1,0.6,0.2,0.9c-0.2,0.1-0.5,0.2-0.7,0.3c-0.4-1.7-0.7-3.3-0.9-5c0.5-0.2,0.9-0.3,1.4-0.5C39.2,57.1,40,58.6,40.7,60.2z
			 M38.4,59.2c0.3-0.1,0.5-0.2,0.8-0.3c-0.4-0.8-0.8-1.5-1.2-2.3C38.1,57.5,38.2,58.3,38.4,59.2z"/>
		<path fill="#FFFFFF" d="M41.1,56.4c0.2,1.2,0.5,2.4,0.7,3.6c-0.2,0-0.5,0.1-0.7,0.2c-0.4-1.6-0.7-3.3-1.1-4.9
			c0.4-0.1,0.8-0.2,1.3-0.3c0.5,0.9,1,1.9,1.4,2.8c-0.1-1-0.3-2-0.4-3c0.3,0,0.6-0.1,0.9-0.1c0.2,1.7,0.3,3.3,0.5,5
			c-0.3,0-0.6,0.1-0.8,0.1C42.3,58.6,41.7,57.5,41.1,56.4z"/>
	</g>
	<g>
		<path fill="#333333" stroke="#FFFFFF" stroke-width="0.5" stroke-miterlimit="10" d="M35.1,69.8c-0.6,0.3-0.7,0.8-0.3,1.6l0.6,1.2
			l-1.6,0.9l-0.6-1.1c-0.9-1.8-0.6-3.3,1.1-4.2c1.7-0.9,3.1-0.4,4.1,1.4c1.9,3.5-0.9,6.6,0.1,8.4c0,0.1,0.1,0.2,0.1,0.2l3.3-1.8
			l0.8,1.6l-5,2.7L37,79.4c-1.7-3.3,1.4-5.6-0.3-8.8C36.2,69.6,35.7,69.5,35.1,69.8z"/>
		<path fill="#333333" stroke="#FFFFFF" stroke-width="0.5" stroke-miterlimit="10" d="M42.9,67.3c-0.5-1-1-1.1-1.6-0.8
			s-0.7,0.8-0.3,1.6l0.4,0.7l-1.6,0.9L39.4,69c-0.9-1.8-0.6-3.3,1.1-4.2c1.7-0.9,3.1-0.4,4.1,1.4l0.2,0.3c0.6,1.2,0.6,2.1,0,2.9
			c1.1-0.1,1.9,0.6,2.5,1.7l0.5,0.9c0.9,1.8,0.6,3.3-1.1,4.2c-1.7,0.9-3.1,0.4-4.1-1.4L42,73.9l1.6-0.9l0.5,1
			c0.4,0.8,0.9,0.9,1.5,0.6s0.8-0.7,0.2-1.7L45.4,72c-0.5-1-1.1-1.2-1.9-0.8L43,71.6L42.1,70l0.7-0.4c0.6-0.3,0.9-0.8,0.4-1.7
			L42.9,67.3z"/>
	</g>
	<path fill="#FFFFFF" d="M34.5,91.6l1.1,2.3c0,0,5.1-8,19.2-15.8l-2-1.6C52.8,76.6,41,85,34.5,91.6z"/>
	<path fill="#333333" d="M58.9,120.8c0,0,7.5-2,9.4-7.2c0,0,1.5,1.6,2.4,3.2c1,1.5,2.7,3.9,3.9,4.4c1.2,0.4,2.7,3.1,2.7,3.1
		s-4,0-5.1,6.3c0,0-1.7-0.8-2.5-2.4c0,0-2.6-0.5-3.6-1.9C65.2,124.7,61,122.9,58.9,120.8z"/>
	<path fill="#FFFFFF" d="M48,115.8c0,0,13-3.3,16-8.8l-0.4-1c0,0-7.1,7-16.8,8.5L48,115.8z"/>
	<path fill="#FFFFFF" d="M72.2,91.2c0,0,2.4,5.1-7,13.3l1.3,0.6c0,0,9-7,7.2-12.3L72.2,91.2z"/>
	<path fill="#E7E9F5" d="M85,138.3c-0.2-0.3-0.9-4.1,3.6-6.4l8.4,4.6c0,0-3.9,0.5-2.8,7L85,138.3z"/>
	<path fill="#DCC06C" d="M93.7,142.9l2.2,3.6c0,0,5.1-0.4,7,1.3s7.2,5.1,9.8,5c0,0-9.5-6.3-12.2-10.5c-2.8-4.2,1-6.3,1-6.3l-4.6,0.4
		C96.9,136.5,92.6,136.8,93.7,142.9z"/>
	<path fill="#333333" d="M101.5,136.1c0,0-3.4,2-1.4,5.9c2.1,3.9,12.6,11,12.6,11l-1.6-0.1c0,0-9.6-6.7-11.6-10.8
		C97.4,137.9,100.3,136,101.5,136.1z"/>
	<path fill="#CF3A1A" d="M101.9,144.3c0,0,4.4-0.1,5.9-3.7c0,0-1.2-1-2-2.6s-3.1-2.9-4.6-1.7C99.6,137.5,97.9,140.3,101.9,144.3z"/>
	<path fill="#333333" d="M105.4,140.5c0,0-0.9-1.9-2.3-1.5s-0.5,2.5,0.5,3.2c1,0.7,3.6,1.9,4.5,3.4s2.2,2,2.7,0.8
		c0.4-1.2-0.7-2.5-2.6-3.4C106.1,142.1,105.4,140.5,105.4,140.5z"/>
	<path opacity="0.1" d="M100.7,136.4c0,0,3-1.8,5,1.6c2,3.3,4.6,4.7,6.9,5c2.2,0.4,4.4,4.5,4.7,6s0.4,4.7-4.6,4
		c-5-0.7-13.8-12.1-13.8-12.1S99,136.8,100.7,136.4z"/>
	<path opacity="0.1" d="M84.9,136.7l8.9,4.9l1.8,2.3c0,0,4.8,0.2,5.7,1.3s9.3,7.4,9.3,7.4s-4.7-2-6.5-3.8c-2.2-2.2-4.9-2.6-8.1-2.3
		l-2-3.1l-8.9-5.2C85,138.3,84.7,138.2,84.9,136.7z"/>
	<path fill="#EEEAE9" d="M111.9,118.8c0,0-1.7,3,1.6,5s4.7,4.6,5.1,6.8c0.4,2.2,4.5,4.3,6.1,4.6c1.5,0.2,4.7,0.4,3.9-4.7
		c-0.7-5-11.4-12.7-11.4-12.7S112.2,117.2,111.9,118.8z"/>
	<path fill="#CF3A1A" d="M119.8,120c0,0-0.1,4.4-3.7,5.9c0,0-1-1.2-2.6-1.9c-1.6-0.7-3-3-1.7-4.6C113,117.7,115.7,116,119.8,120z"/>
	<path fill="#333333" d="M116,123.4c0,0-1.9-0.9-1.5-2.2s2.5-0.6,3.2,0.4c0.7,1,1.9,3.5,3.4,4.4c1.5,0.9,2,2.2,0.8,2.7
		s-2.5-0.7-3.4-2.6C117.6,124.2,116,123.4,116,123.4z"/>
	<path opacity="0.1" d="M111.9,118.8c0,0-1.7,3,1.6,5s4.7,4.6,5.1,6.8c0.4,2.2,4.5,4.3,6.1,4.6c1.5,0.2,4.7,0.4,3.9-4.7
		c-0.7-5-10.8-12.5-10.8-12.5S112.2,117.2,111.9,118.8z"/>
	<path fill="#333333" d="M120.5,120.4c0,0-3.6-3.4-6.5-2.6c-2.9,0.8-3.4,3.6-1.6,5.3c1.8,1.7,3.6,1.9,5.1,4.9
		c1.1,2.1,1.1,3.4,1.9,4.3c0,0-1.1-0.7-1.5-2.1c-0.4-1.4-1.3-3-3.3-4.7s-4.8-3.5-3.8-5.8c1-2.4,4.4-3.1,5.9-2.4
		S120.5,120.4,120.5,120.4z"/>
	<path opacity="0.1" d="M86.2,107.9c0,0-3.5,0.9-2.3,3.3c1.3,2.4-1,0-1,0l-3.2-4C79.8,107.1,81.8,106.2,86.2,107.9z"/>
	<path opacity="0.1" d="M36.7,19c1.5-0.6,2.9-1.5,3.9-2.6C30.9,17,26.3,10.9,24.4,6.1c-0.9,2.1-1,4.6-0.1,6.9
		C26,18.1,31.6,20.8,36.7,19z"/>
	<polygon opacity="0.1" points="17,70.1 16.6,67.8 20.2,68.9 19.1,70.5 	"/>
</g>
</svg>
