<?xml version="1.0" encoding="utf-8"?>
<!-- Generator: Adobe Illustrator 18.0.0, SVG Export Plug-In . SVG Version: 6.00 Build 0)  -->
<!DOCTYPE svg PUBLIC "-//W3C//DTD SVG 1.1//EN" "http://www.w3.org/Graphics/SVG/1.1/DTD/svg11.dtd">
<svg version="1.1" id="Layer_1" xmlns="http://www.w3.org/2000/svg" xmlns:xlink="http://www.w3.org/1999/xlink" x="0px" y="0px"
	 viewBox="0 0 204.5 219.6" enable-background="new 0 0 204.5 219.6" xml:space="preserve">
<g>
	<circle fill="#DF212D" cx="101.7" cy="120.1" r="99.5"/>
	<path fill="#F08F3E" d="M37.6,79.8c-2,4.1-3.3,8.6-3.7,13.1c-2.1-1.3-3.6-3.6-4-6.1c-1.1,1.4-1.2,3.5-0.1,4.9
		c0.6,0.7,1.4,1.6,0.9,2.4c-0.2,0.3-0.6,0.4-0.9,0.6c-1.4,0.5-2.7,1-4.1,1.5c2,0.9,3.3,3.2,3.1,5.4c-1.8,0.3-3.7,0.6-5.5,0.9
		c0.9,3.2-0.8,7-3.8,8.4c1.6,0.4,3.4,0,4.8-1c-1.2,5.2-0.4,10.8,2.1,15.4c0.6-2.8,2.3-5.4,4.6-7c2.9,7.2,6.2,14.4,9.7,21.3
		c-0.5-5.1,0.2-10.3,2-15.1c1.3,6.5,3.8,12.7,7.5,18.2c-0.7-5.2-1.5-10.3-1.3-15.5c0.1-2.3,0.3-4.8,1.6-6.7c1.3-2,3.8-3.3,6-2.6
		c1.3,7.4,3.1,14.7,5.3,21.9c-0.9-5.6-1.7-11.3-1.5-17c0-0.5,0.1-1,0.4-1.4c0.8-1,2.3-0.4,3.4,0.2c4,2.3,8.5,3.6,13.2,3.9
		c1.8,0.1,3.6,0.1,5.1,1c2.4,1.5,2.8,4.9,2.3,7.8s-1.5,5.7-0.9,8.5c5.2-3.2,10.6-6.5,16.6-7.3c2.4-0.3,4.8-0.2,7.1-0.4
		c3.6-0.3,7.1-1.2,10.6-2.1c-4.4-3-8.6-6.3-12.7-9.7c-0.7-0.6-1.4-1.2-1.7-2c-1-2.3,1.4-4.6,1.7-7.1c0.5-3.3-2.6-6.3-2.6-9.7
		c0-1.3,0.4-2.5,0.9-3.7c2.5-6.9,5-13.8,7.5-20.7c-5.6,1.8-11.2,3.7-16.9,5.5c3.3-5.4,6.5-10.8,9.8-16.2c1-1.7,1.8-4.1,0.2-5.2
		c-0.5-0.3-1.1-0.4-1.7-0.5c-9.3-0.9-18.8,0.7-27.2,4.7C67.4,72.2,60,78.8,57.8,87.5c0.7-4.7,0.7-9.6-0.2-14.3
		c-2.7,4.3-5.3,8.7-8,13c-0.4,0.6-0.8,1.2-1.4,1.4c-0.6,0.2-1.3-0.1-2-0.2c-1.6-0.3-3.3,0.6-4,2c0.8-3.3,1.6-6.7,2.4-10
		c-1.5,5.5-3.9,10.7-7.1,15.5C37.3,89.9,37.4,84.8,37.6,79.8z"/>
	<path fill="#F08F3E" d="M42,40.2c-7.9,6-14.3,14-18.6,23c5.8-4.3,11.6-8.6,17.4-12.9c2.2-1.7,5.2-3.4,7.6-2.1
		c1.5,0.8,2.8,2.8,4.5,2.3c1.4-5,6.5-9.1,11.7-8.2c2.8,0.5,5.2,2.3,8,3.2s6.4,0.3,7.4-2.4c0.5-1.2,0.3-2.6,1-3.7
		c1.2-1.8,3.8-1.5,5.9-2.1c3.2-0.9,5.6-4.4,8.8-4c1.6,0.2,3,1.4,4.6,1.4c1.5,0,2.9-1,4.4-1.2c2.6-0.4,4.8,1.6,6.5,3.5
		c2.8,3.2,5.3,6.6,7.3,10.4c-0.4-3.4-0.8-6.9-1.1-10.3c2,0.6,4.1,1.2,6.1,1.1c2.1-0.1,4.2-1.2,5.1-3.1c0.6-1.2,0.6-2.7,0.2-4
		c-1-4-4.5-7.1-8.3-8.5c-3.9-1.5-8.1-1.7-12.2-1.7c-13.6-0.1-27.3,1.2-40.3,5.3S43.1,37.3,34.4,47.7"/>
	<path fill="#CD3C2D" d="M169.3,112.6c3.3,3.7,7.2,6.7,11.6,8.9c-1.8-3.4-3.6-6.8-5.4-10.2c-1.1-2-2.1-4.8-0.5-6.4
		c0.7-0.8,1.9-1.1,2.9-1.3c3.2-0.8,6.3-1.5,9.5-2.3c-3.1-3.1-6.2-6.2-9.3-9.4c2.1-0.7,4.1-1.4,6.2-2.1c0.6-0.2,1.2-0.5,1.4-1.1
		c0.1-0.4,0-0.8-0.2-1.1c-2.3-5.1-9.8-5.9-12.7-10.6c-1.1-1.8-1.5-4-2-6.1c-2.1-8.5-7.9-16-15.6-20.2c1.1,2.9,2.2,5.7,3.3,8.6
		c0.2,0.6,0.5,1.2,0.3,1.8c-0.5,1.8-3.2,1.1-4.8,0.1c-4-2.7-7.9-5.4-11.9-8.1c-2.8-1.9-6.9-3.6-9-1c0.9,1.9,1.8,3.9,1.7,5.9
		c0,2.1-1.2,4.3-3.3,4.8c-3.4,0.8-5.9-3.4-9.2-4.5c-1.1,2-3.1,3.5-5.4,4c-1.1,0.2-2.3,0.3-3.3,0.8c-1,0.5-1.8,1.4-2.5,2.3
		c-6.5,7.7-16,13.4-19.1,22.9c3.3-2.5,7-4.4,10.9-5.8c1.9-0.7,4.5-1.1,5.8,0.5c1.7,2.1-0.3,5.1-2.3,6.9s-4.3,4.4-3.1,6.8
		c-1.5-0.3-2.7,1.4-3,2.9s-0.3,3.3-1.5,4.3c-0.6,0.5-1.4,0.8-1.9,1.3c-1.7,1.9,1,4.7,0.9,7.3c-0.2,3.9-7.2,5.6-6.2,9.4
		c2.3-0.5,4.4-1.3,6.5-2.3c-0.9,2-1.8,4-2.6,6c10.5,0.2,18.9,10.5,29.3,10.1c-0.1-1.7-0.2-3.3-0.3-5c4.7,2.1,9.4,4.3,14.2,6.4
		c0.9,0.4,1.8,0.8,2.8,0.6c1-0.2,1.8-1.3,1.4-2.1c-3.3-2.5-6.7-5.1-8.4-8.9s-1.3-8.8,2.1-11.1c4.1-2.8,9.9,0,13.2,3.8
		c4-2,8.5-3,13-2.9c2.4,3.8,4.2,8,5.3,12.4C169.2,123.4,169.6,118,169.3,112.6z"/>
	<path fill="#A7111A" d="M47.2,194.7c6.7,4.3,13.8,8.1,21.1,11.2c-5.6-3.7-11.6-7.9-14-14.2c10.5,5.9,21,11.8,31.4,17.7
		c1.6,0.9,3.5,1.9,5.3,1.5c1.3-0.2,2.3-1.1,3.4-1.8c4.8-3.1,11-3.9,16.4-2.1c1.2,0.4,2.5,0.9,3.7,0.8c3.4-0.5,3.8-5.1,4.9-8.3
		c1.4-4.3,5.5-7.6,10-8.1c-4.4-1.8-9.4-0.4-13.7,1.5c-4.3,1.9-8.5,4.4-13.2,4.9c-4.7,0.5-9.3-0.9-14-1.5c-3.1-0.4-6.5-0.3-8.8,1.8
		c0.4-3.9-0.8-8-3.3-11.1c-0.2-0.3-0.5-0.6-0.9-0.7c-1-0.3-1.6,1.2-1.5,2.3c0.2,1.1,0.4,2.4-0.5,3c-4.5-3.4-8.6-7.2-12.4-11.4
		c-1.4,0.7-1,2.8-0.5,4.2c0.5,1.5,0.7,3.7-0.8,4c-0.5,0.1-1.1-0.1-1.6-0.2c-3-1.1-5.9-2.5-8.6-4.2c0.9,1.6-1,3.7-2.8,3.6
		c-1.9,0-3.4-1.3-4.8-2.6c-1.4-1.3-2.8-2.6-4.7-2.9c1.6-4.3,3.1-8.7,4.7-13c-2.5,3.4-5,6.7-7.5,10.1c-2.1-1.8-3.7-4.2-4.6-6.8
		c1.2,0.4,2.2,1.5,2.4,2.7c-7.7-7.3-8.9-19.4-16-27.3c3.1,6.2,6.2,12.3,9.3,18.5c0.7,1.4,1.3,3.5,0,4.4c-0.7,0.5-1.7,0.5-2.2,1.2
		c-0.4,0.6-0.2,1.4,0,2.1c3.9,11.5,13.6,21,25.2,24.5C48.2,197.3,47.7,196,47.2,194.7z"/>
	<path fill="#A7111A" d="M119.8,155c-5-1.1-10.3,1-14.2,4.3c-3.9,3.3-6.8,7.7-9.6,12c8.7-3.7,18.3-7.6,27.3-4.7
		c-5.2,5.5-10.5,10.8-15.8,16.1c6.4-1.5,12.8-3.1,19.2-4.6c0.6,1,0.9,2.2,0.9,3.4c3.8-1.5,8-2.9,11.8-1.7c3.9,1.2,6.5,6.6,3.6,9.5
		c-2.6,2.6-8.2,2.1-8.9,5.7c-0.2,1,0.1,2-0.2,2.9c-0.6,2.3-3.7,2.8-5.2,4.7c-0.9,1.1-1.1,2.6-1.5,4c-0.8,2.4-2.4,4.6-4.5,6.1
		c9.5-0.4,16.5-8.9,25.5-12.1c-0.8,1.9-1.7,3.8-2.5,5.8c5.1-0.7,9.5-3.8,13.6-6.8c7.3-5.4,14.6-11,20.3-18
		c6.7-8.2,10.9-18.1,15.1-27.8c-8.1,11.8-18.2,22.2-29.9,30.6c11.1-10.6,19.7-23.9,24.8-38.5c-7.3,11.9-16.7,22.3-26.1,32.7
		c-2.4,2.7-5.4,5.6-9,5.3c3.3-1.7,5.7-5.2,6-8.9c-2.7,0.5-5.6,0.3-8.2-0.6c1.9-2.9,5.8-3.2,8.9-4.6c3.8-1.8,6.4-5.4,8.2-9.1
		c2.3-4.9,3.5-10.4,3.5-15.9c0-3.2-1.6-7.3-4.8-6.9c-1.3,6.4-2.6,12.9-5.8,18.5c-3.2,5.6-8.7,10.4-15.2,10.9c1-2.9,0.5-6.4-1.5-8.8
		c-1.9-2.4-5.2-3.7-8.3-3.3c-2.5-6.9-7.6-12.8-14.1-16.4c-1.6-0.9-4.1-1.2-4.6,0.5c3.6,3.7,7.3,7.6,8.2,12.6
		c0.2,0.9,0.2,1.8-0.2,2.6C125.5,156.5,122.2,155.6,119.8,155z"/>
	<path fill="#CD3C2D" d="M76.9,150.2c0.1,2.7,0,5.8-2.2,7.4c-2.9,2-6.8-0.3-9.5-2.6c1.1,0.8,1.8,2.1,1.8,3.5
		c-4.2,0.2-8.4-2.6-9.9-6.5c4-2.1,4.2-8.8,0.4-11.2c-2.1,1.2-1.8,4.2-1.4,6.5c0.3,2.4-0.2,5.6-2.6,5.8c-0.9,0.1-1.7-0.3-2.5-0.8
		c-1.8-0.9-3.6-1.9-5.4-2.8c-0.4-0.2-1-0.4-1.4-0.2c-0.4,0.3-0.1,1.1,0.3,0.9c-0.8-4.2-3.9-7.5-6.9-10.5c-4.7-4.8-9.8-9.8-16.4-11.1
		c1.6,11.6,5.6,22.9,11.6,33c-0.6-0.1-0.8-1-0.4-1.5c0.4-0.5,1-0.7,1.7-0.8c3-0.5,6.2-0.1,9,1.1c1.7,0.8,3.4,2.6,2.5,4.2
		c1.9-1.6,4.7,1.2,4.7,3.7c0.1,2.5-1,5-0.3,7.4c3.1,0.3,3.1-5.1,5.8-6.7c1.8-1.2,4.4,0,5.5,1.9c1.1,1.9,1.1,4.2,1.1,6.3
		c3-3,9-1.7,10.5,2.3c0.6,1.6,0.8,3.8,2.4,4.5c0.7,0.3,1.4,0.2,2.2,0.2c3.7-0.4,7.4-0.7,11.1-1.1c1.8-0.2,4.3-1.3,3.6-3
		c-2.6-1.8-5.6-4.3-5.1-7.5c0.6-4,6.6-6.1,6.2-10.1c-2.8-0.1-5.6,0.9-8.5,0.8s-6-2-6-4.8c0-1,0.5-2,0.9-2.9c1.6-3.8,3-7.8,2.7-11.9
		c-0.3-4.1-2.4-8.3-6.1-10C76.4,138.9,76.7,144.6,76.9,150.2z"/>
</g>
<g>
	<path fill="#9298A3" d="M76.4,31c0,0,1.6-0.5,2-2.4c0,0-3-0.4-4.2-2c-1.1-1.6-1.3,2.7-1.3,2.7S73.8,31.7,76.4,31z"/>
	
		<ellipse transform="matrix(-0.9997 2.474237e-02 -2.474237e-02 -0.9997 243.7882 77.3469)" fill="#838991" cx="121.4" cy="40.2" rx="2.2" ry="1.1"/>
	
		<ellipse transform="matrix(-0.9997 2.474237e-02 -2.474237e-02 -0.9997 243.7747 76.9826)" fill="#302B2D" cx="121.4" cy="40" rx="2.2" ry="1.1"/>
	<ellipse fill="#838991" cx="98.7" cy="48.5" rx="2.8" ry="1.7"/>
	<ellipse fill="#302B2D" cx="98.7" cy="48.2" rx="2.8" ry="1.7"/>
	<polygon fill="#E1E2D8" points="121.3,39.3 112.5,37.8 112.7,38.5 120.9,39.9 	"/>
	<polygon fill="#BBC1AF" points="108.4,38.1 107.7,37.7 108,39.3 108.7,39.8 	"/>
	<path fill="#E1E2D8" d="M108.3,39.1l-8.7,8.8l-0.6-0.6l9-9C107.9,38.2,108.4,38.1,108.3,39.1z"/>
	
		<rect x="109.7" y="36.4" transform="matrix(-0.186 -0.9826 0.9826 -0.186 93.35 154.4304)" fill="#E1E2D8" width="1.8" height="4.3"/>
	
		<rect x="110.1" y="36.9" transform="matrix(-0.186 -0.9826 0.9826 -0.186 93.2943 154.4655)" opacity="0.2" width="1" height="3.5"/>
	<polygon fill="#E1E2D8" points="112.6,37.3 111.7,36.9 107.7,37.7 108.4,38.1 	"/>
	<polygon opacity="0.2" points="112.7,37.8 112.9,38.6 113.4,38.7 113.3,37.9 	"/>
	
		<ellipse transform="matrix(0.9997 2.474236e-02 -2.474236e-02 0.9997 1.0114 -1.8943)" fill="#838991" cx="77.1" cy="39.9" rx="2.2" ry="1.4"/>
	
		<ellipse transform="matrix(0.9997 2.474236e-02 -2.474236e-02 0.9997 1.0058 -1.8945)" fill="#302B2D" cx="77.1" cy="39.7" rx="2.2" ry="1.4"/>
	<polygon fill="#E1E2D8" points="76.3,39.6 85.2,38.1 84.9,38.8 76.7,40.1 	"/>
	<polygon fill="#BBC1AF" points="89.3,38.3 89.9,38 89.7,39.6 88.9,40.1 	"/>
	<path fill="#E1E2D8" d="M89.3,39.4l8.7,8.8l0.6-0.6l-9-9C89.7,38.5,89.2,38.4,89.3,39.4z"/>
	<path fill="#707070" d="M77.6,40.1c0,0-0.4,0.3-1-0.1c0,0,0,0,0,0c-0.4-0.3-0.6-0.6-0.4-0.9l7.7-10.5l1.4,1L77.6,40.1z"/>
	<polygon fill="#838991" points="78.2,39.8 76,38.8 76.4,38.4 78.5,39.4 	"/>
	<polygon fill="#838991" points="78.9,38.9 76.8,37.9 77.1,37.4 79.2,38.4 	"/>
	<polygon fill="#838991" points="79.6,37.9 77.5,36.9 77.8,36.4 79.9,37.4 	"/>
	<polygon fill="#838991" points="80.3,36.9 78.2,35.9 78.5,35.5 80.6,36.5 	"/>
	<polygon fill="#838991" points="81,36 78.9,34.9 79.2,34.5 81.4,35.5 	"/>
	<polygon fill="#838991" points="81.7,35 79.6,34 79.9,33.5 82.1,34.5 	"/>
	<polygon fill="#838991" points="82.4,34 80.3,33 80.6,32.6 82.8,33.6 	"/>
	<polygon fill="#838991" points="83.2,33 81,32 81.3,31.6 83.5,32.6 	"/>
	<polygon fill="#838991" points="83.9,32.1 81.7,31.1 82.1,30.6 84.2,31.6 	"/>
	<polygon fill="#838991" points="84.6,31.1 82.4,30.1 82.8,29.6 84.9,30.7 	"/>
	
		<rect x="84.4" y="24.8" transform="matrix(0.8073 0.5902 -0.5902 0.8073 32.7344 -45.4064)" fill="#E1E2D8" width="3" height="5.3"/>
	<rect x="83.1" y="28.6" transform="matrix(0.8073 0.5902 -0.5902 0.8073 33.5079 -44.3318)" opacity="0.2" width="3" height="1"/>
	
		<rect x="85.4" y="26.3" transform="matrix(0.8073 0.5902 -0.5902 0.8073 32.6372 -45.5414)" opacity="0.2" width="1.3" height="1.8"/>
	<path fill="#707070" d="M120.6,40.1c0,0,0.7,0.6,1.2,0.2c0,0,0,0,0,0c0.4-0.3,0.4-0.8,0.2-1.2l-7.7-10.5l-1.4,1L120.6,40.1z"/>
	<polygon fill="#838991" points="120,39.8 122.2,38.8 121.8,38.4 119.7,39.4 	"/>
	<polygon fill="#838991" points="119.3,38.9 121.4,37.9 121.1,37.4 119,38.4 	"/>
	<polygon fill="#838991" points="118.6,37.9 120.7,36.9 120.4,36.4 118.3,37.4 	"/>
	<polygon fill="#838991" points="117.9,36.9 120,35.9 119.7,35.5 117.5,36.5 	"/>
	<polygon fill="#838991" points="117.2,36 119.3,34.9 119,34.5 116.8,35.5 	"/>
	<polygon fill="#838991" points="116.5,35 118.6,34 118.3,33.5 116.1,34.5 	"/>
	<polygon fill="#838991" points="115.8,34 117.9,33 117.6,32.6 115.4,33.6 	"/>
	<polygon fill="#838991" points="115,33 117.2,32 116.9,31.6 114.7,32.6 	"/>
	<polygon fill="#838991" points="114.3,32.1 116.5,31.1 116.1,30.6 114,31.6 	"/>
	<polygon fill="#838991" points="113.6,31.1 115.8,30.1 115.4,29.6 113.3,30.7 	"/>
	
		<rect x="110.8" y="24.8" transform="matrix(-0.8073 0.5902 -0.5902 -0.8073 219.1465 -16.7245)" fill="#E1E2D8" width="3" height="5.3"/>
	
		<rect x="112.1" y="28.6" transform="matrix(-0.8073 0.5902 -0.5902 -0.8073 222.4373 -14.3558)" opacity="0.2" width="3" height="1"/>
	
		<rect x="111.5" y="26.3" transform="matrix(-0.8073 0.5902 -0.5902 -0.8073 218.7332 -17.0221)" opacity="0.2" width="1.3" height="1.8"/>
	<path fill="#F8FBFA" d="M112.4,29.8c0,0-4.5,1.4-13.5,1.4c-9,0-13.5-1.4-13.5-1.4v-6.3h27V29.8z"/>
	<path opacity="0.2" d="M112.4,25.7c0,0-6.8,1.1-13.8,1.1c-8.1,0-13.3-1.1-13.3-1.1v-4.2h27V25.7z"/>
	<path fill="#B1AAA2" d="M81.6,21.7L81.6,21.7c0,0.7,0.5,1.3,1.1,1.5C85,23.8,90.6,25,99.4,25c7.6,0,13.1-1.2,15.5-1.8
		c0.8-0.2,1.4-1,1.5-1.8v0L81.6,21.7z"/>
	<ellipse fill="#F7F7F5" cx="99" cy="21.5" rx="17.4" ry="2.5"/>
	<path fill="#707070" d="M99.9,48.2c0,0-0.2,0.5-1.1,0.5c-0.8,0-1.1-0.5-1.1-0.5V31.3h2.2V48.2z"/>
	<polygon fill="#838991" points="100.3,46.9 97.4,47.4 97.4,46.7 100.3,46.2 	"/>
	<polygon fill="#838991" points="100.3,45.4 97.4,45.9 97.4,45.2 100.3,44.7 	"/>
	<polygon fill="#838991" points="100.3,43.9 97.4,44.4 97.4,43.7 100.3,43.1 	"/>
	<polygon fill="#838991" points="100.3,42.4 97.4,42.9 97.4,42.2 100.3,41.6 	"/>
	<polygon fill="#838991" points="100.3,40.8 97.4,41.4 97.4,40.7 100.3,40.1 	"/>
	<polygon fill="#838991" points="100.3,39.3 97.4,39.9 97.4,39.2 100.3,38.6 	"/>
	<polygon fill="#838991" points="100.3,37.8 97.4,38.4 97.4,37.7 100.3,37.1 	"/>
	<polygon fill="#838991" points="100.3,36.3 97.4,36.9 97.4,36.2 100.3,35.6 	"/>
	<polygon fill="#838991" points="100.3,34.8 97.4,35.4 97.4,34.7 100.3,34.1 	"/>
	<polygon fill="#838991" points="100.3,33.3 97.4,33.9 97.4,33.2 100.3,32.6 	"/>
	<rect x="97" y="25.3" fill="#E1E2D8" width="3.7" height="6.6"/>
	<rect x="97" y="30.7" opacity="0.2" width="3.8" height="1.3"/>
	<rect x="98.1" y="27.1" opacity="0.2" width="1.6" height="2.3"/>
	
		<rect x="86.1" y="36.7" transform="matrix(0.186 -0.9826 0.9826 0.186 32.6381 117.0522)" fill="#E1E2D8" width="1.8" height="4.3"/>
	<rect x="86.5" y="37.1" transform="matrix(0.186 -0.9826 0.9826 0.186 32.609 117.0984)" opacity="0.2" width="1" height="3.5"/>
	<path fill="#BBC1AF" d="M97.9,47.6v0.7c0,0,0.8,1.2,1.6,0v-0.5C99.5,47.7,98.7,48.5,97.9,47.6z"/>
	<path fill="#BBC1AF" d="M77.8,39.9l-0.3,0.5c0,0-1.2,0.3-1.7-0.7l0.4-0.6C76.2,39.1,76.8,39.9,77.8,39.9z"/>
	<polygon fill="#E1E2D8" points="85,37.5 85.9,37.2 89.9,38 89.3,38.3 	"/>
	<polygon opacity="0.2" points="84.9,38.1 84.7,38.8 84.2,39 84.4,38.2 	"/>
	<polygon fill="#31322A" points="106.5,21.7 106.5,19.2 108.5,20 108.5,22.4 	"/>
	<polygon fill="#AFAFAF" points="108.5,22.4 114.5,21.9 114.5,19.4 108.5,20 	"/>
	<polygon fill="#797B7A" points="107,19.2 112.3,18.7 114,19.4 108.7,20 	"/>
	<rect x="96.5" y="15" fill="#A5A5A5" width="4.3" height="5.2"/>
	<path fill="#4C4D4F" d="M96.8,20.2l-2.3-1.1V14l2.2,0.9C96.7,15,96.6,20.4,96.8,20.2z"/>
	<polygon fill="#86858A" points="100.8,14.9 96.5,14.9 94.3,13.9 98.5,13.9 	"/>
	<rect x="83.9" y="0.7" transform="matrix(0.944 -0.3299 0.3299 0.944 1.1051 28.4639)" fill="#282A2F" width="1" height="20.6"/>
	
		<rect x="75.8" y="0.5" transform="matrix(-0.944 -0.3299 0.3299 -0.944 143.6529 53.1027)" fill="#8B8386" width="1" height="27.8"/>
	<polygon fill="#97948A" points="94.2,22.4 95.2,21.6 95.2,20.5 94.2,21 	"/>
	<polygon fill="#B0B1AC" points="88.4,20.6 89.9,20.1 95.1,20.5 93.4,21 	"/>
	<path fill="#B0B1AC" d="M85.9,20c0,0-0.1,1.5-0.2,1.4c-0.1-0.1,2.8,0,2.8,0V20C88.5,20,86,20.3,85.9,20z"/>
	<polygon fill="#262624" points="87.5,21.9 94.5,22.4 94.5,21 87.5,20.6 	"/>
	<circle fill="#ABB4AC" cx="80.9" cy="1.3" r="1.3"/>
	<path fill="#6B676B" d="M70,25.9h4.2c0,0-1,3.2,0.3,4.1c1.3,0.8,2.1,0.9,2.1,0.9s-5.2,0.5-6.1-1.2C69.6,28,70,25.9,70,25.9z"/>
</g>
</svg>
