<?xml version="1.0" encoding="utf-8"?>
<!-- Generator: Adobe Illustrator 18.0.0, SVG Export Plug-In . SVG Version: 6.00 Build 0)  -->
<!DOCTYPE svg PUBLIC "-//W3C//DTD SVG 1.1//EN" "http://www.w3.org/Graphics/SVG/1.1/DTD/svg11.dtd">
<svg version="1.1" id="Layer_1" xmlns="http://www.w3.org/2000/svg" xmlns:xlink="http://www.w3.org/1999/xlink" x="0px" y="0px"
	 viewBox="0 0 232.9 167.6" enable-background="new 0 0 232.9 167.6" xml:space="preserve">
<g>
	<path fill="#403F3F" d="M52.5,63.1c0,0-0.8,1.6-0.4,5.8c0.4,4.2,0.8,14.2,4.3,17.1c3.5,2.8,9.7,5.2,15.2,3.1l2-0.9
		c0,0,64.2,27.5,89.8,34.4c0,0-0.9,10.9,13.4,12.6s21.3-5.6,21.6-12.2l8.9-20.4l23.9-30.1c0,0,4.6-23.8-1.2-28.3L60.7,54.2
		L52.5,63.1z"/>
	<path fill="#57565A" d="M89.5,84.4l2-2c0,0,2.7-1.9,7.2,2.3c4.5,4.2,2.8,9.6,1,9.9C97.8,95,89.5,84.4,89.5,84.4z"/>
	<path fill="#57565A" d="M128.9,100.6L128.9,100.6c0.4-0.8,1-1.6,1.7-2.1l0.3-0.3c0,0,3.3-2.1,7.8,2.1c5.2,4.8,2.2,9.8,0.4,10.1
		C137.2,110.7,128.9,100.6,128.9,100.6z"/>
	<path fill="#57565A" d="M145.1,106.2L145.1,106.2c0.7-1.5,2.2-2.7,4.1-2.7c1.6,0,4.1,0.4,6,2.3c4.5,4.2,3.4,9.4-0.1,10.5
		C153.3,116.7,145.1,106.2,145.1,106.2z"/>
	<path fill="#504E4F" d="M138.8,8.2c0,0-6.8-1.7-10.7-2.8c-3.9-1.1-9.5-1.5-16.5,4.3c-7,5.8-44,36.9-48.9,41.1s-1.2,9.9,3.1,11.4
		c4.3,1.5,16.8,7,23.6,6.8c6.8-0.1,24,0,46.1,15.4s39.9,21.1,45.4,20.8c5.5-0.3,10.5-2.3,14.9-7.9s31.2-40.3,34.9-45.9
		c3.8-5.6-0.5-9.1-5.5-12c-5-2.8-38.7-13.3-38.7-13.3L138.8,8.2z"/>
	<path fill="#434143" d="M107.8,66.1c0.4,0.1,17.3,5.1,22.3,8.2c5,3.1,7.5,3.4,10.3-0.1c2.8-3.5,8.5-7.7,8.6-8.9s0-2.4-8.2-6.4
		c-8.2-4-14.8-6-19.1-6.3c-4.3-0.3-5.2,1.1-7.3,2.7c-2,1.6-6.4,6-7.9,7.5C105.1,64.2,105.5,65.5,107.8,66.1z"/>
	<path fill="#504E4F" d="M164.2,109.2c0,0,4.6,10.8,19.8,8.6c15.2-2.2,16.5-11.4,24.1-28c0,0-10.7,11.9-16.3,16.8
		S173.4,109.9,164.2,109.2z"/>
	<path fill="#504E4F" d="M71,73c0,0-8.5-6.6-10.2-9c-1.7-2.3-1.2-8.4-0.2-9.8c0,0-13,5.9-6.9,13.6S71,73,71,73z"/>
	<path fill="#A09EA0" d="M140.8,107.3c0,3-2.3,4.2-5.4,3.3c-3-0.9-6.8-4.9-6.8-7.9s2-4.2,5-3.6C136.9,99.8,140.8,104.3,140.8,107.3z
		"/>
	<path fill="#A09EA0" d="M156.9,113c0,3-2.3,4.2-5.4,3.3c-3-0.9-6.8-4.9-6.8-7.9s2-4.2,5-3.6C153,105.5,156.9,110,156.9,113z"/>
	<path fill="#A09EA0" d="M100.9,91.6c0,3-2.3,4.2-5.4,3.3c-3-0.9-6.8-4.9-6.8-7.9c0-3,2-4.2,5-3.6C97,84.1,100.9,88.6,100.9,91.6z"
		/>
	<path fill="#57565A" d="M92.6,88.9c0,0.5-0.4,0.7-0.9,0.6c-0.5-0.1-1.1-0.8-1.1-1.3s0.3-0.7,0.8-0.6C91.9,87.6,92.6,88.3,92.6,88.9
		z"/>
	<path fill="#57565A" d="M95.4,90.1c0,0.5-0.4,0.7-0.9,0.6c-0.5-0.1-1.1-0.8-1.1-1.3s0.3-0.7,0.8-0.6C94.7,88.8,95.4,89.6,95.4,90.1
		z"/>
	<path fill="#57565A" d="M98.2,91.3c0,0.5-0.4,0.7-0.9,0.6c-0.5-0.1-1.1-0.8-1.1-1.3s0.3-0.7,0.8-0.6C97.6,90,98.2,90.8,98.2,91.3z"
		/>
	<path fill="#57565A" d="M75.1,78.1l1.7-1.7c0,0,2.4-1.7,6.3,2c3.9,3.7,2.4,8.4,0.8,8.7S75.1,78.1,75.1,78.1z"/>
	<path fill="#A09EA0" d="M85.1,84.5c0,2.7-2,3.7-4.8,2.9c-2.6-0.8-5.9-4.3-5.9-6.9c0-2.7,1.7-3.7,4.4-3.1
		C81.8,77.9,85.1,81.8,85.1,84.5z"/>
	<path fill="#57565A" d="M77.9,82c0,0.4-0.3,0.6-0.8,0.5c-0.4-0.1-1-0.7-1-1.2c0-0.4,0.3-0.6,0.7-0.5C77.3,80.9,77.9,81.6,77.9,82z"
		/>
	<path fill="#57565A" d="M80.3,83.1c0,0.4-0.3,0.6-0.8,0.5c-0.4-0.1-1-0.7-1-1.2c0-0.4,0.3-0.6,0.7-0.5C79.8,82,80.3,82.7,80.3,83.1
		z"/>
	<path fill="#57565A" d="M82.8,84.2c0,0.4-0.3,0.6-0.8,0.5c-0.4-0.1-1-0.7-1-1.2c0-0.4,0.3-0.6,0.7-0.5
		C82.2,83.1,82.8,83.7,82.8,84.2z"/>
	<path fill="#57565A" d="M132.4,104.6c0,0.5-0.4,0.7-0.9,0.6c-0.5-0.1-1.1-0.8-1.1-1.3s0.3-0.7,0.8-0.6
		C131.8,103.3,132.4,104.1,132.4,104.6z"/>
	<path fill="#57565A" d="M135.3,105.8c0,0.5-0.4,0.7-0.9,0.6c-0.5-0.1-1.1-0.8-1.1-1.3s0.3-0.7,0.8-0.6
		C134.6,104.5,135.3,105.3,135.3,105.8z"/>
	<path fill="#57565A" d="M138.1,107c0,0.5-0.4,0.7-0.9,0.6c-0.5-0.1-1.1-0.8-1.1-1.3c0-0.5,0.3-0.7,0.8-0.6
		C137.4,105.7,138.1,106.5,138.1,107z"/>
	<path fill="#57565A" d="M149,110.2c0,0.5-0.4,0.7-0.9,0.6c-0.5-0.1-1.1-0.8-1.1-1.3s0.3-0.7,0.8-0.6
		C148.3,108.9,149,109.7,149,110.2z"/>
	<path fill="#57565A" d="M151.8,111.4c0,0.5-0.4,0.7-0.9,0.6c-0.5-0.1-1.1-0.8-1.1-1.3c0-0.5,0.3-0.7,0.8-0.6
		C151.1,110.2,151.8,110.9,151.8,111.4z"/>
	<path fill="#57565A" d="M154.6,112.6c0,0.5-0.4,0.7-0.9,0.6c-0.5-0.1-1.1-0.8-1.1-1.3s0.3-0.7,0.8-0.6
		C154,111.4,154.6,112.1,154.6,112.6z"/>
	
		<ellipse transform="matrix(0.9195 0.3932 -0.3932 0.9195 49.0622 -37.079)" fill="#57565A" cx="115" cy="101.2" rx="3.9" ry="0.6"/>
	<path fill="#57565A" d="M135.7,59.4c-0.1,0.3-2.2,0.3-4-0.4c-1.8-0.8-2.5-2.1-2.4-2.3c0.1-0.3,1.7,0.1,3.4,0.9
		S135.8,59.1,135.7,59.4z"/>
	<path fill="#28282A" d="M128.7,23.6c0,0-11.5,11.5-6.2,18.3c7.9,3.8,39.7,15.5,44.9,16.5c5.2,1,19.9,1.6,29.4-11.7
		C184.7,41.4,128.7,23.6,128.7,23.6z"/>
	<path fill="#7A7879" d="M127.6,12.8v19.3c0,0,42.6,18.5,57.6,20.1c4.8,0.8,7.7-3.6,7.7-3.6l0.1-19.3l-48.7-18.5L127.6,12.8z"/>
	<path fill="#BFBDBE" d="M127.3,12.6c0,0-1.2-2.2,4.4-5.2c0,0,26.4-3.6,61.2,22c0,0-0.6,5.4-6.6,3.8c-6-1.6-16.9-11.3-34-16.5
		C136.4,11.7,127.3,12.6,127.3,12.6z"/>
	<path fill="#605E5D" d="M139.6,37V13.6c0,0,0.6-4.2,5-5.8l1.6,0.4c0,0-5.1,0.6-6.3,5.8l0.6,23.5L139.6,37z"/>
	<path fill="#605E5D" d="M167.6,48.1V23.6c0,0,1.5-5,5.9-6l1.4,0.6c0,0-4.3,0.4-6.3,6.2v24L167.6,48.1z"/>
	<polygon fill="#1A1A1A" points="139.5,48.8 141.2,49.5 145.4,46 143.9,45.4 	"/>
	<polygon fill="#1A1A1A" points="136.3,47.6 138,48.3 142.2,44.8 140.7,44.2 	"/>
	<polygon fill="#1A1A1A" points="133.5,46.4 135.2,47.1 139.3,43.6 137.9,43 	"/>
	<polygon fill="#1A1A1A" points="130.7,45.2 132.4,45.9 136.5,42.4 135,41.8 	"/>
	<polygon fill="#1A1A1A" points="127.3,44.2 128.9,44.8 133.8,41.4 132.4,40.7 	"/>
	<polygon fill="#1A1A1A" points="124.5,42.4 125.9,43.5 131,40 129.5,39.3 	"/>
	<polygon fill="#1A1A1A" points="142.8,50 144.4,50.7 148.6,47.2 147.1,46.6 	"/>
	<polygon fill="#1A1A1A" points="145.6,51.2 147.3,51.9 151.4,48.4 150,47.8 	"/>
	<polygon fill="#1A1A1A" points="148.4,52 150.1,52.7 154.3,49.2 152.8,48.6 	"/>
	<polygon fill="#1A1A1A" points="151.6,53.2 153.3,53.9 157.5,50.4 156,49.8 	"/>
	<polygon fill="#1A1A1A" points="154.5,54 156.1,54.7 160.3,51.2 158.8,50.6 	"/>
	<polygon fill="#1A1A1A" points="157.3,54.8 159,55.5 163.1,52 161.6,51.4 	"/>
	<polygon fill="#1A1A1A" points="160.1,56.1 161.8,56.7 165.9,53.2 164.5,52.6 	"/>
	<polygon fill="#1A1A1A" points="162.9,56.9 164.6,57.5 168.8,54 167.3,53.4 	"/>
	<polygon fill="#1A1A1A" points="166.1,57.7 167.8,58.3 172,54.8 170.5,54.2 	"/>
	<path fill="#1A1A1A" d="M124,41.3c0,0-0.4-0.3-0.5-1.4l3-2.1l1.6,0.9L124,41.3z"/>
	<path fill="#1A1A1A" d="M123.2,38.6l2.1-1.4c0,0-1.5-0.5-1.5-0.6C123.7,36.5,122.8,37.2,123.2,38.6z"/>
	<polygon fill="#1A1A1A" points="169.9,58.1 172.4,57.8 174.9,55.6 173.5,55.3 	"/>
	<path fill="#1A1A1A" d="M174.8,57.5c0,0,3.7-1.1,3-1.1c-0.1,0-1.3-0.4-1.3-0.4L174.8,57.5z"/>
	<path fill="#28282A" d="M159,80.2c0,0-1.9,1.7-3.2,3.4c-1.3,1.6,0.3,4.5,2.5,5.4s5.3,1.9,8.4-1.6c3.1-3.5,6.5-5.4,1.9-9
		C163.8,74.8,159.9,79.2,159,80.2z"/>
	<path fill="#09090A" d="M86.5,58.9l-0.1,1.3c0,0.8,0.5,1.4,1.3,1.5c2,0.2,5.8,0.1,8.7-2.6c0.1,0-0.3-0.5-0.3-0.5
		C99.3,54.4,86.5,58.9,86.5,58.9z"/>
	<path fill="#28282A" d="M96,59.3c0,0,2.7-2.3,4.4-4.2s2.3-4.4-1.3-4.8c-3.6-0.3-5.4,0.8-8.8,3.8s-6,5.3-1.7,6.2S96,59.3,96,59.3z"
		/>
	<path fill="#020201" d="M114.5,77.9c5.1,1.6,9.3,3.8,11.8,5.3c1.4,0.8,2,2.4,1.6,4l-1.7,7c-0.3,1.1-1.4,1.7-2.4,1.3l-4-0.6
		c-4.3-0.7-8.5-2.2-12.2-4.6l-2.5-1.6c-1.2-0.5-2-1.6-2.2-2.9l-1.2-6.6c-0.5-2.4,0.2-4.7,2.6-4.2C106.5,75.3,111.3,76.9,114.5,77.9z
		"/>
	<g>
		<path fill="#C2C0C1" d="M19.4,95.8c0,0,10.4-11.2,35.2-11.5l3.8,3.6c0,0,8.2-1.9,11.3-2.4c3.1-0.5,14-0.9,20.1,5.2
			s4.2,5.5,4.2,5.5s15,12.5,17.9,36.3c-4.2,6.4-15.6-1.7-15.6-1.7l-14.6-16.4l-6.6,2.7l-1.1,3.5c0,0,8.5,18.4,8.1,35.3l-1.1,7.5
			l-13.3-5.5l-23.9-28.1l-9.8,1.3c0,0-5.4,1.1-5.6,4.7c1.2,4,5.7,29.2-0.3,31.4s-18.8-9.4-24.3-36.9c-7.4-12.2-2.1-20.7,1.6-23
			s13.8-6.8,13.8-6.8L19.4,95.8z"/>
		<path fill="#57565A" d="M19.4,95.8l-0.2,4.7c0,0,9.4,3.6,10.8,5.6C29.9,106.2,21.3,96.9,19.4,95.8z"/>
		<path fill="#7F7D7E" d="M2.5,122.1c0,0,3.6,6.9,14.6,6.1s22.1-7.7,26.8-3.9s24.1,28.4,27.9,32.9c3.8,4.5,10.1,4.4,10.1-3.5
			c0,0,1.5,10.5-3.3,11.9c-4.8,1.4-6.5,0.9-13.3-6.8S48.7,136.9,43.8,133c-2.8-2.2-6.2-1-8.8-0.5c-6.3,1.1-6.7,3.4-6.7,3.4
			s-1.1-3.1,0.8-5.3C29.1,130.6,9,132.4,2.5,122.1z"/>
		<path fill="#7E7D7E" d="M93.7,95.7c0,0,5,4.7-8.4,15.8c0,0,14,16.1,17.2,20c3.2,3.9,8,5.2,9.1-0.6c0,0,1.4,6.6-4.1,9
			c-5.5,2.3-20.9-12.3-25.5-22.7l-8.4,2.8c0,0-3.3-5.7,0.6-8.3C78.2,109.3,96.8,107.1,93.7,95.7z"/>
		<polygon fill="#2A2A2B" points="13.6,111.2 12.5,112.8 14.4,115.7 16.3,114.9 		"/>
		<polygon fill="#2A2A2B" points="11,116.7 10.6,119.4 12.7,121.9 17,120 19.3,122.7 25.1,120.1 22,116.3 		"/>
		<polygon fill="#2A2A2B" points="22.1,117.6 27.6,115.1 25.6,112.3 20.7,115.1 		"/>
		<polygon fill="#605F62" points="15.3,114.6 10.8,116.6 12.9,119.6 17.5,117.6 19.7,120.9 24,118.7 22.1,115.7 26.7,113.4 
			24.7,110.4 20.3,112.8 17.9,109.5 13.4,111.2 		"/>
		<ellipse fill="#809EAB" cx="67" cy="100.7" rx="3.9" ry="2.7"/>
		<ellipse fill="#74B77D" cx="67.1" cy="99.9" rx="3.6" ry="2.8"/>
		<ellipse fill="#3C51C4" cx="76.7" cy="103.5" rx="3.9" ry="2.7"/>
		<ellipse fill="#5268C4" cx="76.8" cy="102.9" rx="3.6" ry="2.6"/>
		<ellipse fill="#A7261A" cx="49.8" cy="106.7" rx="3.8" ry="2.7"/>
		<ellipse fill="#EB2200" cx="49.8" cy="106.2" rx="3.6" ry="2.6"/>
		<ellipse fill="#DB8A00" cx="80.8" cy="97.1" rx="3" ry="2.3"/>
		<ellipse fill="#FAE42A" cx="80.8" cy="96.3" rx="3" ry="2.3"/>
		<ellipse fill="#DB8A00" cx="83.6" cy="92.3" rx="3" ry="2.3"/>
		<ellipse fill="#FAE42A" cx="83.6" cy="91.5" rx="3" ry="2.3"/>
		<ellipse fill="#DB8A00" cx="75.2" cy="90.2" rx="3" ry="2.3"/>
		<ellipse fill="#FAE42A" cx="75.2" cy="89.4" rx="3" ry="2.3"/>
		<ellipse fill="#DB8A00" cx="72.3" cy="94.7" rx="3" ry="2.3"/>
		<ellipse fill="#FAE42A" cx="72.3" cy="93.9" rx="3" ry="2.3"/>
		<path fill="#636265" d="M69.3,120c0,4.6-6,8.4-10.6,8.4s-11.1-3.7-11.1-8.4s6.5-8.4,11.1-8.4S69.3,115.4,69.3,120z"/>
		<polygon fill="#232423" points="51.9,117.1 52.4,121.2 56,123.4 61.8,122.8 64.6,120.5 64.1,116.9 60.4,115 54,115.3 		"/>
		<ellipse fill="#EBE9EA" cx="58.3" cy="115.4" rx="4.9" ry="3.7"/>
	</g>
</g>
</svg>
