<?xml version="1.0" encoding="utf-8"?>
<!-- Generator: Adobe Illustrator 18.0.0, SVG Export Plug-In . SVG Version: 6.00 Build 0)  -->
<!DOCTYPE svg PUBLIC "-//W3C//DTD SVG 1.1//EN" "http://www.w3.org/Graphics/SVG/1.1/DTD/svg11.dtd">
<svg version="1.1" id="Layer_1" xmlns="http://www.w3.org/2000/svg" xmlns:xlink="http://www.w3.org/1999/xlink" x="0px" y="0px"
	 viewBox="0 0 140 82.4" enable-background="new 0 0 140 82.4" xml:space="preserve">
<path fill="#CCCCCC" d="M53.2,53.4c0,0-6.6,1.3-7.2,8.1c-0.6,6.8,5.3,12.7,17.6,11.4s13.5-2.2,13.5-2.2l-0.7-5
	c0,0-22.6,3.3-14.8-10.7L53.2,53.4z"/>
<path fill="#C3C3AD" d="M13.9,17.7c0,0-3.4-1.7-0.6-4.1c0,0-1.3-4.6,2.2-4.1c0,0-0.4-4.9,3.5-3.7c0,0,2-3.5,5.1-1.2
	c0,0,2.3-2.5,5.1,0.4c0,0,2.3-2.7,5.6-0.5c0,0,2.9-2.7,5.1,0.6c0,0,4.3-1.8,5.4,1.3c0,0,4-1.5,4.4,2.4c0,0,4-1.8,4.4,2.2
	c0,0,3.9-3.3,5.7,0.7c0,0,3.6-3.7,6.1-0.2c0,0,3.6-4.4,6.9-0.1c0,0,4.7-3.8,10.7-2.6c0,0,6.2-5,12.5-3c0,0,6.9-4.4,15.6,0.4
	c0,0,12.8,0.6,17.3,8.5c0,0,8.4,7.4,5.5,17c0,0,2.5,16-8.2,22c0,0-5.1,8.8-17.4,10.6c0,0-38.2,9.5-52.8,0.7c0,0-6.5-0.6-5.4-4.9
	c0,0-6.9-3.3-3.9-7.8c0,0-5.7-2-3.1-6.5c0,0-5.4-1-4-5.2c0,0-5.4-1.3-3.6-5.8c0,0-5.5,0.7-6.8-4.1c0,0-8.2,2.3-9,1.3
	C19.6,30.8,13.1,23.1,13.9,17.7z"/>
<path fill="#EEF3F1" d="M13.8,17.1c0,0-3.8,8.1-5.7,11.3s-3.3,6.1-1.5,8.7c0,0,0.8,2.2,3.5,2.5c0,0,0.5,3,4.2,1.3s3.8-4.2,7.5-4
	s10.3-7,10.2-7.5s-1.1-0.4-0.1-0.5c0.9-0.1-4.2-4.6-1.7-7.6c2.5-3,0.1-9.4-2.9-8.6S16.8,20.3,13.8,17.1z"/>
<path fill="#EEF3F1" d="M34.7,11.2c0,0-2.1,3.8,2.9,5.4l10.1-9.2L34.7,11.2z"/>
<path fill="#C86775" d="M5.7,34.9c0,0,1.9,1.9,6,0.2c0,0-1.6,2.9-4.6,3C7.2,38.1,6.1,36.8,5.7,34.9z"/>
<path fill="#EEF3F1" d="M67.5,60.7c0,0-6.6,1.3-7.2,8.1s5.3,12.7,17.6,11.4C90.1,78.9,91.4,78,91.4,78l-0.7-5
	c0,0-22.6,3.3-14.8-10.7L67.5,60.7z"/>
<path fill="#C3C3AD" d="M62,58.8c0,0-1.7,3.4,2.6,4.8c0,0,3.3,3.9,6.2,0.9c0,0,2.9,4.8,7.9-1.8S62,58.8,62,58.8z"/>
<path fill="#EEF3F1" d="M116.3,54.2c0,0-10.4,2.6-8.4,11.8s19.7,5.6,26.1,2.5l-2.5-7c0,0-11.8,5.7-11.3,1.3S121.3,52.9,116.3,54.2z"
	/>
<path fill="#C3C3AD" d="M105.1,58.3c0,0,1.7,4.5,4.9,2.4c0,0,3.4,1.4,5.7-1c0,0,4,1.7,5.4-2.9s-13.9-9.1-13.9-9.1L105.1,58.3z"/>
</svg>
