<?xml version="1.0" encoding="utf-8"?>
<!-- Generator: Adobe Illustrator 19.0.0, SVG Export Plug-In . SVG Version: 6.00 Build 0)  -->
<!DOCTYPE svg PUBLIC "-//W3C//DTD SVG 1.1//EN" "http://www.w3.org/Graphics/SVG/1.1/DTD/svg11.dtd">
<svg version="1.1" id="Layer_1" xmlns="http://www.w3.org/2000/svg" xmlns:xlink="http://www.w3.org/1999/xlink" x="0px" y="0px"
	 viewBox="-259 76.6 439.1 409.4" style="enable-background:new -259 76.6 439.1 409.4;" xml:space="preserve">
<style type="text/css">
	.st0{fill:#0E1215;}
	.st1{fill:#BA252B;}
	.st2{fill:#1A1A1A;}
	.st3{fill:#333333;}
	.st4{fill:#F1FFFF;}
	.st5{fill:#FFFFFF;}
</style>
<rect x="-259" y="76.6" class="st0" width="438.8" height="224.8"/>
<rect x="-249.1" y="85.1" class="st1" width="419.1" height="207.8"/>
<rect x="-214.5" y="296" class="st0" width="8.3" height="190"/>
<rect x="-214.1" y="384.8" class="st0" width="58.1" height="8.3"/>
<rect x="-186.2" y="289.8" transform="matrix(-0.5725 0.8199 -0.8199 -0.5725 -23.6544 653.0417)" class="st0" width="8.3" height="61.2"/>
<rect x="-237.4" y="280.7" transform="matrix(-0.3813 0.9244 -0.9244 -0.3813 -38.7225 639.3119)" class="st0" width="8.3" height="51.9"/>
<rect x="153.4" y="282.7" transform="matrix(0.3813 0.9244 -0.9244 0.3813 380.1659 44.0431)" class="st0" width="7.6" height="46.6"/>
<rect x="-186.2" y="289.8" transform="matrix(0.5725 0.8199 -0.8199 0.5725 184.9001 286.2217)" class="st0" width="8.3" height="61.2"/>
<rect x="-186.8" y="333.9" transform="matrix(0.5725 0.8199 -0.8199 0.5725 222.072 306.2744)" class="st0" width="8.3" height="64.4"/>
<rect x="-186.8" y="382.6" transform="matrix(0.5725 0.8199 -0.8199 0.5725 261.9942 327.0827)" class="st0" width="8.3" height="64.4"/>
<rect x="-186.9" y="425.4" transform="matrix(0.5725 0.8199 -0.8199 0.5725 297.0551 345.4092)" class="st0" width="8.3" height="64.4"/>
<rect x="-186.8" y="334" transform="matrix(-0.5725 0.8199 -0.8199 -0.5725 11.7071 723.0594)" class="st0" width="8.3" height="61.2"/>
<rect x="-186.8" y="381.2" transform="matrix(-0.5725 0.8199 -0.8199 -0.5725 50.3996 797.2901)" class="st0" width="8.3" height="61.2"/>
<rect x="-186.8" y="427.5" transform="matrix(-0.5725 0.8199 -0.8199 -0.5725 88.3455 870.118)" class="st0" width="8.3" height="61.2"/>
<rect x="-214.1" y="432.6" class="st0" width="58.1" height="8.3"/>
<rect x="-214.1" y="474.2" class="st0" width="58.1" height="8.3"/>
<rect x="-214.1" y="338.2" class="st0" width="58.1" height="8.3"/>
<rect x="-153" y="309.1" class="st0" width="229.4" height="8.3"/>
<rect x="75.1" y="384.8" class="st0" width="58.1" height="8.3"/>
<rect x="103" y="289.7" transform="matrix(-0.5725 0.8199 -0.8199 -0.5725 431.0812 415.9097)" class="st0" width="8.3" height="61.2"/>
<rect x="-62.5" y="290.5" transform="matrix(-0.5725 0.8199 -0.8199 -0.5725 158.6753 528.165)" class="st0" width="8.3" height="29.8"/>
<rect x="-31" y="290.6" transform="matrix(0.5725 0.8199 -0.8199 0.5725 238.9801 152.5901)" class="st0" width="8.3" height="29.8"/>
<rect x="103" y="289.8" transform="matrix(0.5725 0.8199 -0.8199 0.5725 308.5085 49.119)" class="st0" width="8.3" height="61.2"/>
<rect x="102.4" y="333.9" transform="matrix(0.5725 0.8199 -0.8199 0.5725 345.6803 69.1717)" class="st0" width="8.3" height="64.4"/>
<rect x="102.4" y="382.6" transform="matrix(0.5725 0.8199 -0.8199 0.5725 385.6026 89.9799)" class="st0" width="8.3" height="64.4"/>
<rect x="102.3" y="425.4" transform="matrix(0.5725 0.8199 -0.8199 0.5725 420.6635 108.3064)" class="st0" width="8.3" height="64.4"/>
<rect x="102.4" y="334" transform="matrix(-0.5725 0.8199 -0.8199 -0.5725 466.4428 485.9273)" class="st0" width="8.3" height="61.2"/>
<rect x="102.4" y="381.2" transform="matrix(-0.5725 0.8199 -0.8199 -0.5725 505.1352 560.1579)" class="st0" width="8.3" height="61.2"/>
<rect x="102.4" y="427.5" transform="matrix(-0.5725 0.8199 -0.8199 -0.5725 543.0811 632.9858)" class="st0" width="8.3" height="61.2"/>
<rect x="75.1" y="432.6" class="st0" width="58.1" height="8.3"/>
<rect x="75.1" y="474.2" class="st0" width="58.1" height="8.3"/>
<rect x="75.1" y="338.2" class="st0" width="58.1" height="8.3"/>
<rect x="80.5" y="385.9" class="st0" width="55.9" height="10.4"/>
<rect x="78" y="436.7" class="st0" width="58.1" height="8.3"/>
<rect x="82.6" y="337.5" class="st0" width="53.6" height="9"/>
<rect x="-159.9" y="296" class="st0" width="8.3" height="190"/>
<rect x="-46.4" y="296" class="st0" width="8.3" height="17.8"/>
<rect x="74.4" y="296" class="st0" width="8.3" height="190"/>
<rect x="129.9" y="296" class="st0" width="8.3" height="190"/>
<rect x="-97" y="79.3" class="st2" width="7.2" height="18.8"/>
<rect x="5.8" y="79.3" class="st2" width="7.2" height="18.8"/>
<rect x="100.8" y="79.3" class="st2" width="7.2" height="18.8"/>
<path class="st3" d="M-176.2,104.8h-14.6c-2.4,0-4.1-2.2-3.6-4.5l1.3-5.6c0.4-1.7,1.9-2.9,3.6-2.9h12.4c1.8,0,3.3,1.3,3.6,3l1,5.6
	C-172.1,102.7-173.9,104.8-176.2,104.8z"/>
<path class="st2" d="M-183.6,98.1L-183.6,98.1c-2,0-3.6-1.6-3.6-3.6V79.3h7.2v15.3C-180.1,96.5-181.7,98.1-183.6,98.1z"/>
<path class="st3" d="M-86.2,104.8h-14.7c-2.4,0-4.1-2.2-3.6-4.5l1.3-5.6c0.4-1.7,1.9-2.9,3.6-2.9h12.4c1.8,0,3.3,1.3,3.6,3l1,5.6
	C-82.2,102.7-83.9,104.8-86.2,104.8z"/>
<path class="st2" d="M-93.7,98.1L-93.7,98.1c-2,0-3.6-1.6-3.6-3.6V79.3h7.2v15.3C-90.1,96.5-91.7,98.1-93.7,98.1z"/>
<path class="st3" d="M16.8,104.8H2.1c-2.4,0-4.1-2.2-3.6-4.5l1.3-5.6c0.4-1.7,1.9-2.9,3.6-2.9h12.4c1.8,0,3.3,1.3,3.6,3l1,5.6
	C20.9,102.7,19.1,104.8,16.8,104.8z"/>
<path class="st2" d="M9.4,98.1L9.4,98.1c-2,0-3.6-1.6-3.6-3.6V79.3H13v15.3C12.9,96.5,11.3,98.1,9.4,98.1z"/>
<path class="st3" d="M111.7,104.8H97c-2.4,0-4.1-2.2-3.6-4.5l1.3-5.6c0.4-1.7,1.9-2.9,3.6-2.9h12.4c1.8,0,3.3,1.3,3.6,3l1,5.6
	C115.7,102.7,114,104.8,111.7,104.8z"/>
<path class="st2" d="M104.2,98.1L104.2,98.1c-2,0-3.6-1.6-3.6-3.6V79.3h7.2v15.3C107.8,96.5,106.2,98.1,104.2,98.1z"/>
<g>
	<g>
		<g id="KRyJ1s.tif_15_">
			<g>
				<path class="st4" d="M-93.5,120.2c0.7,0.2,1.4,0.5,2,0.8c1.5,0.8,2.4,2.2,2.5,4c0.1,1.7-0.2,3.2-0.9,4.7c-0.6,1.1-1.2,2-1.9,3.1
					c-0.7,0.9-1.7,1.5-2.8,1.7c-1.2,0.1-2-0.5-2.1-1.7c-0.1-0.9,0-1.8,0.5-2.6c0.7-1.4,1.7-2.7,3.3-3.1c0.4-0.1,0.6-0.1,0.9-0.1
					c0.5,0,0.6-0.2,0.7-0.6c0.5-1.7-0.5-3-2.2-3c-0.8,0-1.8,0.2-2.6,0.5c-3.4,1.2-6.5,3.2-9.1,5.7c-8.5,7.9-15.4,17-20.2,27.7
					c-1.7,3.8-3,7.7-3.7,11.7c-0.5,2.8-0.5,5.7,0.1,8.5c0.8,3.5,3.1,5.9,6.4,7.5c2.7,1.2,5.6,1.5,8.4,1.3c4.7-0.4,9.3-1.7,14-2.7
					c5.3-1.3,10.5-2.6,15.7-3.8c5-1.1,10.1-1.7,15.1-1.4c5.9,0.4,11.2,2,16.1,5.6c2.7,1.9,5.3,3.9,7.7,6.3c0.4,0.5,0.7,0.8,1.1,1.4
					c-0.1-0.1-0.2-0.1-0.5-0.2c-4.7-3.1-9.9-4.9-15.7-4.7c-2.5,0-4.7,0.4-6.7,2c-0.9,0.8-1.8,1.8-2.7,2.7c0.1,0.1,0,0,0,0
					c-2.1-3.7-5.4-5.8-9.6-6.7c-2.8-0.7-5.8-0.8-8.8-0.6c-5.2,0.4-10.2,1.7-15.1,3c-4.6,1.2-9.3,2.1-14,3.1c-3.7,0.7-7.5,0.7-11-0.6
					c-5.4-2-8.8-5.8-9.9-11.5c-0.2-1.1-0.4-2.2-0.5-3.3c0-0.1-0.1-0.4-0.1-0.5c0-0.9,0-2,0-3c0.1-0.8,0.1-1.5,0.2-2.4
					c0.6-4.4,1.8-8.6,3.5-12.7c3.5-8,8.5-15.1,14.7-21.3c4-4,8.3-7.7,13.3-10.4c2.7-1.5,5.7-2.8,8.8-3.5c0.9-0.2,2-0.4,3-0.5
					C-94.9,120.2-94.2,120.2-93.5,120.2z"/>
				<path class="st4" d="M-90.1,150.9c0.5-0.1,0.8-0.1,1.1-0.2c1.1-0.5,2.1-1.1,3.1-1.7c2-1.3,3.8-3.1,5.4-4.9
					c1.8-1.9,3.7-3.4,5.8-4.9c1.9-1.2,3.8-2,6-1.9c2.8,0.1,4.9,2.5,4.4,5.3c-0.4,2.2-1.3,4.3-2.8,6c-0.6,0.6-1.2,1.1-2,1.4
					c-1.3,0.6-2.5-0.4-2.5-1.7c-0.1-2.4,2.1-4.9,4.6-5.1c0.1,0,0.4-0.1,0.5-0.2c0.5-0.9,0.2-2.4-1.3-2.4c-1.3,0-2.2,0.6-3.2,1.3
					c-1.8,1.4-3.4,3.1-5,5c-3.4,4.3-6,9-7.8,14.1c-0.5,1.3-0.6,2.6-0.4,3.9c0.4,2.1,1.9,3.1,3.9,2.6c1.8-0.5,3.3-1.5,4.6-2.7
					c3-2.7,5.4-5.8,7.9-9c2.2-3,4.4-6,6.7-8.9c2.2-2.8,4.7-5.3,7.7-7.3c1.4-0.9,2.8-1.8,4.5-2.1c1.9-0.4,3.3,0.2,4.5,1.8
					c0.1,0.1,0.1,0.2,0.2,0.4c0.1-0.1,0.1-0.1,0.1-0.2c0.4-0.9,1.1-1.2,2-1.1c1.7,0.1,3.2,0,4.9,0c0.1,0,0.4,0,0.6,0
					c-0.2,0.4-0.4,0.6-0.5,0.8c-4.6,8-9.3,16.2-14,24.3c-0.2,0.5-0.5,0.9-0.5,1.5c-0.1,0.7,0.5,1.1,1.1,0.8c0.5-0.2,1.1-0.5,1.4-0.8
					c1.8-1.3,3.2-2.8,4.5-4.5c1.3-1.5,2.5-3.1,3.5-4.6c0.4-0.4,0.6-0.6,1.1-0.5c0.5,0,1.1,0,1.5,0c-0.1,0.1-0.1,0.2-0.1,0.4
					c-2.8,4.3-5.9,8.4-9.6,12c-1.9,1.8-3.8,3.5-6.2,4.6c-1.1,0.5-2.1,0.8-3.3,0.6c-1.2-0.2-2.1-1.4-2.2-2.6c-0.1-0.8,0-1.7-0.1-2.7
					c-0.1,0.1-0.2,0.4-0.4,0.5c-1.3,1.4-2.6,2.6-4.3,3.5c-1.1,0.7-2.2,1.2-3.5,1.3c-2.6,0.2-4.4-1.3-4.5-3.9c-0.1-1.5,0.4-3,0.7-4.5
					c0-0.2,0.1-0.4,0-0.6c-0.1,0.1-0.4,0.4-0.5,0.5c-2.1,1.9-4.1,3.8-6.4,5.7c-1.8,1.4-3.9,2.5-6.2,2.8c-1.2,0.2-2.4,0.2-3.5-0.1
					c-2.5-0.8-3.5-2.7-4-5.2c-0.7-3.2,0.2-6.3,1.5-9.1c0.8-1.7,1.7-3.3,2.5-5.1c0.1-0.1,0.2-0.4,0.4-0.6c-0.9,0.2-1.7,0.5-2.5,0.6
					c-0.7,0.1-1.2,0.5-1.5,1.1c-1.7,2.7-3.2,5.4-5.1,7.9c-2.5,3.4-5.4,6.4-9,8.8c-1.4,0.9-3,1.7-4.9,1.9c-1.9,0.2-3.8-0.8-4.5-2.7
					c-0.6-1.5-0.7-3.1-0.6-4.7c0.5-4.7,2.4-8.9,4.9-12.8c3-4.7,6.6-9,11.2-12.2c1.9-1.3,3.9-2.5,6.2-3c3.5-0.6,5.8,1.2,5.8,4.9
					c0,2-0.5,3.8-1.2,5.7C-89.4,149-89.7,150-90.1,150.9z M-63.8,164.8c0.1,0.6,0.2,1.1,0.7,1.3c0.5,0.2,0.9,0.2,1.4,0
					c1.2-0.7,2.2-1.5,3.1-2.6c1.2-1.5,2.4-3.1,3.3-4.7c3.2-5.4,6.4-10.9,9.5-16.3c0.4-0.6,0.1-1.1-0.5-1.4c-0.6-0.2-1.1-0.1-1.7,0.1
					c-1.1,0.5-2.1,1.2-2.8,2.1c-2.2,2.8-4.5,5.6-6.6,8.4c-2.4,3.2-4.3,6.5-5.7,10.3C-63.3,162.9-63.6,163.8-63.8,164.8z
					 M-100.3,148.4c-0.1,0.1-0.2,0.2-0.4,0.4c-1.1,1.7-2.2,3.3-3.2,5c-1.4,2.5-2.7,5-3.3,7.7c-0.2,0.8-0.2,1.7-0.1,2.5
					c0.1,1.5,1.2,2.2,2.7,1.9c0.4-0.1,0.7-0.2,1.1-0.5c1.4-0.8,2.5-1.9,3.5-3.1c2.2-2.5,4-5.4,5.7-8.3c0.1-0.2,0.1-0.5,0.2-0.7
					C-96.6,152.5-98.8,151-100.3,148.4z M-90.3,143.8c0-0.2,0-0.5,0-0.7c-0.4-1.9-1.2-2.7-3.2-2.1c-0.4,0.1-0.7,0.2-0.9,0.5
					c-1.4,0.9-2.5,2.1-3.1,3.7c-0.5,1.3-0.5,2.6,0.5,3.8c1.1,1.3,2.4,2,4,2.1c0.4,0,0.5-0.1,0.6-0.4c0.4-0.9,0.8-1.8,1.2-2.7
					C-90.8,146.7-90.3,145.3-90.3,143.8z"/>
			</g>
		</g>
		<g id="KRyJ1s.tif_14_">
			<g>
				<path class="st4" d="M55,133.8c0.5-0.9,0.9-1.9,1.4-2.8c0.5-0.9,0.8-2,0.8-3.1c0-0.8-0.4-1.1-1.1-0.8c-0.7,0.4-1.4,0.7-2,1.2
					c-2.7,2.1-5.2,4.5-7.5,7.1c-4.7,5.3-8.8,11.2-12.5,17.4c-2.4,3.8-4.5,7.8-6.6,11.7c-0.2,0.4-0.4,0.7-0.5,1.2
					c0.2-0.1,0.6-0.2,0.8-0.5c1.4-1.2,3-2.2,4.3-3.4c6-5.4,11.6-11.4,16.6-17.9c0.5-0.6,0.9-1.1,1.8-1.1c0.4,0,0.7-0.1,1.2-0.1
					c-0.2,0.5-0.5,0.8-0.7,1.2c-3.2,4.5-6.9,8.6-10.6,12.7c-4.6,4.9-9.6,9.3-15.1,13.1c-0.1,0.1-0.4,0.2-0.4,0.5
					c-1.7,3.7-3.2,7.5-4,11.5c-0.1,0.8-0.1,1.7,0,2.4c0.2,1.2,1.3,1.7,2.2,0.9c1.1-0.8,2-1.7,2.7-2.7c1.5-2,2.8-4,4.3-6.2
					c2.4-3.5,4.6-7.1,7.3-10.3c2.5-3,5.2-5.7,8.6-7.7c1.4-0.8,3.1-1.3,4.7-0.9c1.1,0.2,1.8,0.9,2.4,1.8c0.1,0.2,0.4,0.4,0.5,0.6
					c0.2-0.5,0.6-0.9,0.8-1.4c0.1-0.1,0.4-0.4,0.5-0.4c2,0,4.1,0,6.2,0c0,0,0.1,0,0.2,0c-0.1,0.2-0.1,0.4-0.2,0.5
					c-3.2,5.6-6.3,11.1-9.5,16.8c-1.2,2.1-2.5,4.3-3.7,6.5c-0.4,0.6-0.6,1.2-0.8,1.9c-0.1,0.4-0.2,0.8,0.1,1.2
					c0.4,0.4,0.8,0.1,1.2-0.1c1.8-1.1,3.3-2.6,4.6-4.3c1.5-2,3-4.1,4.5-6.2c0.2-0.2,0.4-0.5,0.7-0.5c0.6,0,1.1,0,1.7,0
					c-0.2,0.4-0.5,0.7-0.6,1.1c-2.6,4-5.4,7.9-8.8,11.4c-1.9,2-4.1,3.5-6.6,4.6c-0.6,0.2-1.4,0.4-2.1,0.4c-1.3,0-2.2-0.7-2.6-2
					c-0.2-0.9-0.1-1.9-0.2-2.7c0-0.2,0-0.4,0.1-0.6c0,0-0.1,0-0.1-0.1c-0.4,0.4-0.7,0.7-1.1,1.2c-1.5,1.4-3.2,2.8-5.1,3.7
					c-0.9,0.5-1.9,0.7-3,0.5c-1.8-0.2-3-1.5-3.2-3.5c-0.1-0.8,0-1.7,0-2.5c0-0.2,0-0.5,0-0.8c-0.2,0.2-0.4,0.5-0.5,0.6
					c-1.5,1.8-3.1,3.4-5,4.7c-0.8,0.6-1.7,1.1-2.6,1.3c-2,0.7-3.8-0.1-4.9-2c-0.6-1.1-0.7-2.2-0.7-3.4c0.1-2.7,0.8-5.3,1.7-7.8
					c0.5-1.5,1.1-3.1,1.5-4.7c-0.4,0-0.6,0.1-0.8,0.1c-0.8,0.1-1.7,0.2-2.5,0.2c-0.5,0-0.6,0.2-0.8,0.6c-1.7,2.6-3.2,5.2-5,7.7
					c-2.4,3.3-5.3,6.3-8.9,8.4c-1.2,0.7-2.5,1.2-3.8,1.3c-2.6,0.2-4-1.5-4.4-3.3c-0.5-1.9-0.2-3.8,0.1-5.6c0.9-4,2.6-7.6,4.9-11
					c2.4-3.7,5-7.1,8.4-10.1c2-1.8,4.1-3.2,6.7-4c0.9-0.4,1.9-0.4,3-0.4c2,0.2,3,1.7,3.2,3c0.5,2,0.1,4-0.5,6
					c-0.6,1.5-1.2,3.1-1.9,4.6c-0.1,0.1-0.1,0.4-0.2,0.6c1.3,0.1,2.5-0.2,3.5-0.8c0.1-0.1,0.2-0.4,0.4-0.5c3.4-7,7.1-13.7,11.5-20.2
					c5.3-7.9,11.6-15,18.9-21.2c1.8-1.4,3.7-2.7,5.7-3.7c1.1-0.5,2.1-0.7,3.3-0.7c1.4,0.1,2.1,0.8,2.2,2.2c0.1,1.8-0.4,3.4-1.1,5
					c-0.8,1.8-0.9,1.8-2.8,2.1C55.2,133.9,55.2,133.8,55,133.8z M34.9,183.9c0,0.6,0.7,1.2,1.8,0.8c0.5-0.1,0.9-0.5,1.3-0.8
					c1.3-0.9,2.2-2.4,3.2-3.7c2.6-3.5,4.7-7.5,6.9-11.2c1.3-2.2,2.6-4.4,3.9-6.6c0.2-0.5,0.4-0.9,0-1.4c-0.4-0.5-0.9-0.6-1.4-0.4
					c-0.6,0.2-1.2,0.5-1.8,0.9c-0.7,0.5-1.4,1.1-2,1.8c-4.5,4.6-8,9.9-10.8,15.9C35.3,180.5,34.9,181.9,34.9,183.9z M4.7,167.9
					c-0.9,1.4-1.9,2.8-2.8,4.1c-1.5,2.5-3,5.1-3.8,7.9c-0.2,0.9-0.5,2-0.2,3.1c0.2,1.3,1.2,2,2.5,1.7c1.2-0.2,2.2-1.1,3.1-1.9
					c2.8-2.6,5-5.8,6.6-9.1c0.1-0.2,0.1-0.4,0.2-0.6C7.9,171.9,5.9,170.5,4.7,167.9z M14.2,163c0-0.4,0-0.6,0-0.9
					c-0.1-1.3-0.8-2-1.9-2c-0.5,0-0.9,0.1-1.4,0.4c-1.2,0.6-2.2,1.4-3.1,2.6c-2,3.2-0.1,6.7,3.2,7.9c0.1,0,0.5-0.1,0.6-0.2
					c0.4-0.6,0.7-1.2,0.9-1.8C13.3,167,14.2,165.1,14.2,163z"/>
				<path class="st4" d="M41.4,133.1c-1.7,1.8-3.2,3.4-4.9,5.2c-0.1,0.1-0.5,0.1-0.6,0c-1.1-0.6-2-1.2-3.1-1.8
					c-3.1-1.9-6.2-4-9.2-5.8c-2.4-1.4-5.1-2.5-7.8-2.8c-0.9-0.1-1.8-0.1-2.7,0.2c-0.2,0.1-0.4,0.2-0.4,0.6c0.2,3.2-0.6,6.3-1.8,9.2
					c-1.7,4.1-4.1,7.7-7.5,10.6c-1.4,1.3-3,2.1-4.7,2.7c-2.5,0.7-4.4-0.5-4.7-3.1c-0.2-1.7,0.2-3.2,0.8-4.7c2-5.1,5.2-9.2,9.5-12.8
					c1.4-1.2,3.1-2.2,4.6-3.4c0.1-0.1,0.2-0.1,0.4-0.2c-0.9-0.4-1.9-0.4-2.8-0.2c-1.3,0.2-2.6,0.8-3.8,1.4
					c-4.6,2.5-8.5,5.7-12.1,9.5c-6.5,6.9-12.2,14.4-16.7,22.8c-2.5,4.6-4.4,9.5-5.3,14.7c-0.4,2.1-0.7,4.3-0.1,6.4
					c0.6,2.2,1.9,3.9,4.1,4.6c1.4,0.4,2.8,0.1,4.1-0.5c2.4-1.1,4.4-2.6,6.2-4.5c3.4-3.7,6.3-7.8,7.8-12.7c0.6-1.8,1.1-3.7,0.9-5.7
					c-0.1-1.9-1.2-2.6-3-1.9c-1.3,0.5-2.1,1.5-3,2.5c-1.8,2.4-3,5-3.5,7.8c0,0.2-0.2,0.5-0.4,0.6c-3.1,1.5-5.8,3.7-8.2,6.2
					c-0.1,0.1-0.1,0.1-0.4,0.4c0.7-5.8,2.5-11.1,6.2-15.5c2.2-2.6,4.9-4.5,8.3-5.3c0.8-0.2,1.8-0.4,2.7-0.1c1.5,0.4,2.5,1.4,2.8,2.8
					c0.6,1.9,0.5,3.8,0.1,5.7c-0.8,4.5-2.8,8.4-5.3,12.1c-3.1,4.7-7,8.6-11.8,11.6c-2.1,1.2-4.4,1.9-6.7,2c-3.9,0.1-6.7-1.7-8.6-4.9
					c-1.7-2.8-2-5.9-1.8-9.1c0.4-5,2-9.6,4.1-14.1c5.8-12.1,13.8-22.5,24.3-31c4.5-3.7,9.5-6.4,15-8c2-0.6,4-0.7,6.2-0.2
					c0.9,0.2,1.8,0.7,2.4,1.4c0.2,0.2,0.5,0.2,0.7,0.1c1.7-0.5,3.3-1.2,5-1.4c4.1-0.8,8.2-0.2,11.8,1.8
					C33,128.1,37,130.6,41.4,133.1C41.3,132.9,41.3,133.1,41.4,133.1z M10.6,128.8c-0.6,0.4-0.9,0.5-1.4,0.8
					c-5.3,3.2-9.2,7.8-12.1,13.3c-0.6,1.3-1.2,2.5-1.3,3.9c-0.2,1.8,1.2,2.8,2.8,2.1c0.7-0.4,1.3-0.7,1.9-1.2
					c5.8-4.5,9.1-10.3,9.9-17.5C10.7,129.8,10.6,129.3,10.6,128.8z"/>
				<path class="st4" d="M73.8,124c-0.9,1.9-2,3.8-3.4,5.4c-4.3,5.3-9.5,9.3-16.1,11.4c-3.3,1.1-6.7,1.4-10.2,0.7
					c-0.1,0-0.1,0-0.2,0c-0.1,0-0.4-0.1-0.6-0.1c0.1-0.1,0.2-0.4,0.4-0.5c1.4-1.7,2.8-3.4,4.1-5.1c0.1-0.1,0.4-0.4,0.6-0.4
					c3.9,0.4,7.7-0.4,11.4-1.9c5.2-2.1,9.7-5.4,13.6-9.5C73.7,124.2,73.7,124.1,73.8,124z"/>
			</g>
		</g>
		<path class="st4" d="M-23.7,138.2c-0.6,0.8-1.2,1.5-1.8,2.2c-0.6,0.8-1.2,1.7-1.9,2.5c-0.1,0.1-0.3,0.2-0.6,0.2
			c-2.1,0-4.3,0-6.4,0c0,0-0.1,0-0.1,0c0.1-0.1,0.1-0.1,0.1-0.2c1.2-1.5,2.4-3,3.5-4.5c0.1-0.1,0.3-0.2,0.5-0.2
			C-28.2,138.2-26,138.2-23.7,138.2z"/>
	</g>
</g>
<path class="st5" d="M98.9,242c-44.7,8.2-89.6,15.1-135.8,15.9c-37.3,0.7-74-2.3-110.1-10.1s-69.2-21-100.5-37.1
	c-0.5-0.3-0.6-0.6-1.4-0.9l-0.5,41c1.7,0.5,3.5,0.9,5,1.4c38.5,13.3,78.9,18.5,120.6,17.8c27-0.4,53.9-3,80.6-6.1
	c44-5.1,87.6-12.1,132-14.6c21-1.2,41.9-1.3,62.8,1.7c6.2,0.9,12.5,2,18.4,3c0.1-6.3,0.1-12.6,0.2-18.9
	C145.9,234.1,122.4,237.7,98.9,242z"/>
<g>
	<path class="st5" d="M-87.3,210.4h8.4l3.1,9.7l3.1-9.7h8.3l-7.8,19.4h-7.3L-87.3,210.4z"/>
	<path class="st5" d="M-63.2,203.9h8.3v5.1h-8.3V203.9z M-63.1,210.4h8v19.3h-8V210.4z"/>
	<path class="st5" d="M-53.8,210.4h8.4l3.1,9.7l3.1-9.7h8.3l-7.8,19.4H-46L-53.8,210.4z"/>
	<path class="st5" d="M-31.5,220.2L-31.5,220.2c0-5.8,4.1-10.2,9.9-10.2c6.9,0,10,4.8,10,10.6c0,0.4,0,0.9,0,1.3h-12.4
		c0.6,1.7,1.9,2.6,3.6,2.6c1.4,0,2.6-0.7,3.9-2l4.3,3.4c-1.9,2.5-4.6,4.2-8.8,4.2C-27.2,230.2-31.5,226.2-31.5,220.2z M-18.8,218.4
		c-0.2-1.8-1.3-2.9-2.7-2.9c-1.3,0-2.3,1.1-2.5,2.9H-18.8z"/>
	<path class="st5" d="M-9.7,203.9h8v25.8h-8V203.9z"/>
	<path class="st5" d="M0.1,224.2L0.1,224.2c0-3.9,2.9-6.1,7.3-6.1c1.6,0,3.7,0.4,4.6,0.7v-0.3c0-1.8-1.1-2.8-3.6-2.8
		c-2,0-3.6,0.4-5.3,1.1l-1.4-5.3c2.2-0.8,4.8-1.4,8.1-1.4c3.9,0,6.5,0.8,8.2,2.5c1.4,1.4,2,3.3,2,6.1v11h-8v-1.9
		c-1.3,1.4-3.1,2.4-5.5,2.4C2.7,230.2,0.1,228.1,0.1,224.2z M12.1,222.6v-0.8c-0.5-0.2-1.2-0.3-1.8-0.3c-1.6,0-2.5,1-2.5,2.2v0.1
		c0,1.1,0.8,1.9,1.8,1.9C11,225.6,12.1,224.4,12.1,222.6z"/>
</g>
</svg>
