<?xml version="1.0" encoding="utf-8"?>
<!-- Generator: Adobe Illustrator 19.0.0, SVG Export Plug-In . SVG Version: 6.00 Build 0)  -->
<!DOCTYPE svg PUBLIC "-//W3C//DTD SVG 1.1//EN" "http://www.w3.org/Graphics/SVG/1.1/DTD/svg11.dtd">
<svg version="1.1" id="Layer_1" xmlns="http://www.w3.org/2000/svg" xmlns:xlink="http://www.w3.org/1999/xlink" x="0px" y="0px"
	 viewBox="-263 77.2 431.7 406.8" style="enable-background:new -263 77.2 431.7 406.8;" xml:space="preserve">
<style type="text/css">
	.st0{fill:#3D3E3F;}
	.st1{fill:#111416;}
	.st2{fill:#848688;}
	.st3{fill:#E1E1DE;}
	.st4{fill:#3C3B3A;}
	.st5{fill:#BA252B;}
	.st6{fill:#CD0014;}
	.st7{fill:#FFFFFF;}
</style>
<rect x="-60.6" y="284.7" class="st0" width="36.2" height="199.3"/>
<rect x="-246.3" y="271.1" class="st1" width="405" height="22.7"/>
<rect x="-225.4" y="271.1" class="st2" width="3.2" height="22.6"/>
<rect x="-192.8" y="271.1" class="st2" width="3.2" height="22.6"/>
<rect x="-158.2" y="271.1" class="st2" width="3.2" height="22.6"/>
<rect x="-125.6" y="271.1" class="st2" width="3.2" height="22.6"/>
<rect x="-92.9" y="271.1" class="st2" width="3.2" height="22.6"/>
<rect x="-60.3" y="271.1" class="st2" width="3.2" height="22.6"/>
<rect x="-27.7" y="271.1" class="st2" width="3.2" height="22.6"/>
<rect x="4.9" y="271.1" class="st2" width="3.2" height="22.6"/>
<rect x="37.5" y="271.1" class="st2" width="3.2" height="22.6"/>
<rect x="70.1" y="271.1" class="st2" width="3.2" height="22.6"/>
<rect x="102.7" y="271.1" class="st2" width="3.2" height="22.6"/>
<rect x="135.4" y="271.1" class="st2" width="3.2" height="22.6"/>
<rect x="-262" y="293.3" class="st3" width="429" height="5.9"/>
<rect x="-233.8" y="288.3" class="st4" width="34.4" height="7.2"/>
<rect x="-146.6" y="288.3" class="st4" width="34.4" height="7.2"/>
<rect x="-61.5" y="288.3" class="st4" width="34.4" height="7.2"/>
<rect x="23.7" y="288.3" class="st4" width="34.4" height="7.2"/>
<rect x="108.9" y="288.3" class="st4" width="34.4" height="7.2"/>
<rect x="-257.2" y="77.2" class="st5" width="425.9" height="203"/>
<g>
	<rect x="-258.9" y="78.2" class="st6" width="427.5" height="201.5"/>
	<path class="st7" d="M96.1,237.6c-45.6,8.5-91.5,15.7-138.5,16.6c-38.1,0.7-75.5-2.4-112.4-10.5c-36.8-8.1-70.6-21.8-102.5-38.6
		c-0.6-0.3-0.6-0.6-1.4-0.9l-0.5,42.7c1.7,0.5,3.5,0.9,5.1,1.5c39.3,13.8,80.6,19.3,123,18.5c27.6-0.5,55-3.1,82.2-6.3
		C-4,255.3,40.5,248,85.8,245.3c21.4-1.2,42.8-1.4,64.1,1.7c6.3,0.9,12.8,2.1,18.8,3.1c0.1-6.6,0.2-13.1,0.2-19.7
		C144.1,229.4,120.1,233.2,96.1,237.6z"/>
</g>
<g>
	<path class="st7" d="M-214.1,158.6h-10V149h31.4v9.6h-10V183h-11.4V158.6z"/>
	<path class="st7" d="M-195.1,169.9L-195.1,169.9c0-7.6,6.2-14,15-14c8.7,0,14.9,6.3,14.9,13.8v0.1c0,7.5-6.2,13.9-15,13.9
		C-188.9,183.7-195.1,177.4-195.1,169.9z M-175.8,169.9L-175.8,169.9c0-2.7-1.9-4.8-4.4-4.8c-2.5,0-4.3,2.1-4.3,4.6v0.1
		c0,2.6,1.9,4.7,4.4,4.7C-177.6,174.5-175.8,172.4-175.8,169.9z"/>
	<path class="st7" d="M-162.7,156.5h11v3.6c1.7-2.2,4.4-4.2,8-4.2c3.6,0,6.4,1.6,7.8,4.4c2.2-2.5,4.9-4.4,9-4.4
		c5.7,0,9.2,3.7,9.2,9.7V183h-11V169c0-2.2-1.3-3.5-2.9-3.5c-1.6,0-3.1,1.3-3.1,3.5V183h-11V169c0-2.2-1.3-3.5-2.9-3.5
		c-1.6,0-3.1,1.3-3.1,3.5V183h-11V156.5z"/>
	<path class="st7" d="M-115.5,175.5L-115.5,175.5c0-5.4,3.9-8.4,10.1-8.4c2.2,0,5.1,0.5,6.3,1v-0.4c0-2.4-1.5-3.8-4.9-3.8
		c-2.7,0-5,0.6-7.3,1.5l-1.9-7.3c3.1-1.2,6.6-1.9,11.2-1.9c5.4,0,8.9,1.1,11.2,3.5c2,2,2.8,4.6,2.8,8.4V183h-11v-2.7
		c-1.8,2-4.3,3.3-7.6,3.3C-111.9,183.7-115.5,180.8-115.5,175.5z M-99,173.2v-1.1c-0.6-0.2-1.6-0.4-2.5-0.4c-2.2,0-3.4,1.3-3.4,3
		v0.1c0,1.6,1.1,2.6,2.5,2.6C-100.5,177.3-99,175.7-99,173.2z"/>
	<path class="st7" d="M-72.5,147.5h11V183h-11V147.5z"/>
	<path class="st7" d="M-58.9,169.9L-58.9,169.9c0-7.6,6.2-14,15-14c8.7,0,14.9,6.3,14.9,13.8v0.1c0,7.5-6.2,13.9-15,13.9
		C-52.7,183.7-58.9,177.4-58.9,169.9z M-39.6,169.9L-39.6,169.9c0-2.7-1.9-4.8-4.4-4.8c-2.5,0-4.3,2.1-4.3,4.6v0.1
		c0,2.6,1.9,4.7,4.4,4.7C-41.4,174.5-39.6,172.4-39.6,169.9z"/>
	<path class="st7" d="M-3.1,180v3h-11v-35.5h11v12.2c1.8-1.9,3.8-3.9,7.9-3.9c6.4,0,11.4,5.6,11.4,13.7v0.1c0,8.4-5.1,14-11.3,14
		C0.8,183.7-1.4,181.9-3.1,180z M5.5,169.8L5.5,169.8c0-2.8-1.9-4.9-4.4-4.9s-4.4,2.1-4.4,4.8v0.1c0,2.6,1.9,4.8,4.4,4.8
		S5.5,172.5,5.5,169.8z"/>
	<path class="st7" d="M18.5,174v-17.5h11v14c0,2.3,1.4,3.6,3,3.6c1.7,0,3.2-1.3,3.2-3.6v-14h11V183h-11v-3.6
		c-1.7,2.2-4.4,4.2-8.1,4.2C22,183.7,18.5,180,18.5,174z"/>
	<path class="st7" d="M49.3,169.9L49.3,169.9c0-8,5.7-14.1,13.7-14.1c9.4,0,13.8,6.6,13.8,14.6c0,0.6,0,1.3,0,1.8H59.7
		c0.8,2.3,2.6,3.6,5,3.6c2,0,3.7-0.9,5.4-2.7l5.9,4.7c-2.6,3.4-6.4,5.8-12.1,5.8C55.2,183.7,49.3,178.2,49.3,169.9z M66.7,167.5
		c-0.2-2.5-1.8-4-3.7-4c-1.8,0-3.2,1.6-3.5,4H66.7z"/>
	<path class="st7" d="M79.2,156.5h11v3.7c1.7-2.2,4.4-4.3,8.1-4.3c5.6,0,9.1,3.7,9.1,9.7V183h-11v-14c0-2.3-1.4-3.6-3-3.6
		s-3.2,1.3-3.2,3.6v14h-11V156.5z"/>
	<path class="st7" d="M109.8,169.9L109.8,169.9c0-7.6,6.2-14,15-14c8.7,0,14.9,6.3,14.9,13.8v0.1c0,7.5-6.2,13.9-15,13.9
		C116,183.7,109.8,177.4,109.8,169.9z M129.1,169.9L129.1,169.9c0-2.7-1.9-4.8-4.4-4.8c-2.5,0-4.3,2.1-4.3,4.6v0.1
		c0,2.6,1.9,4.7,4.4,4.7C127.3,174.5,129.1,172.4,129.1,169.9z"/>
</g>
</svg>
