<?xml version="1.0" encoding="utf-8"?>
<!-- Generator: Adobe Illustrator 19.0.0, SVG Export Plug-In . SVG Version: 6.00 Build 0)  -->
<svg version="1.1" id="Layer_1" xmlns="http://www.w3.org/2000/svg" xmlns:xlink="http://www.w3.org/1999/xlink" x="0px" y="0px"
	 viewBox="-538 323.2 438.8 409.4" style="enable-background:new -538 323.2 438.8 409.4;" xml:space="preserve">
<style type="text/css">
	.st0{fill:#0E1215;}
	.st1{fill:#BA252B;}
	.st2{fill:#1A1A1A;}
	.st3{fill:#333333;}
	.st4{fill:#F1FFFF;}
	.st5{fill:#FFFFFF;}
	.st6{fill:none;}
	.st7{fill:#FFFDFD;}
	.st8{font-family:'Gotham-Book';}
	.st9{font-size:12px;}
</style>
<rect x="-538" y="323.2" class="st0" width="438.8" height="224.8"/>
<rect x="-528.1" y="331.7" class="st1" width="419.1" height="207.8"/>
<rect x="-493.5" y="542.6" class="st0" width="8.3" height="190"/>
<rect x="-493.1" y="631.4" class="st0" width="58.1" height="8.3"/>
<rect x="-465.3" y="536.3" transform="matrix(0.5725 -0.8199 0.8199 0.5725 -661.9747 -135.7094)" class="st0" width="8.3" height="61.2"/>
<rect x="-516.4" y="527.4" transform="matrix(0.3813 -0.9244 0.9244 0.3813 -828.4802 -131.1879)" class="st0" width="8.3" height="51.9"/>
<rect x="-125.6" y="529.3" transform="matrix(-0.3813 -0.9244 0.9244 -0.3813 -679.071 650.8065)" class="st0" width="7.6" height="46.6"/>
<rect x="-465.2" y="536.4" transform="matrix(-0.5725 -0.8199 0.8199 -0.5725 -1189.8293 513.5984)" class="st0" width="8.3" height="61.2"/>
<rect x="-465.8" y="580.5" transform="matrix(-0.5725 -0.8199 0.8199 -0.5725 -1228.3265 584.9739)" class="st0" width="8.3" height="64.4"/>
<rect x="-465.8" y="629.2" transform="matrix(-0.5725 -0.8199 0.8199 -0.5725 -1268.2578 661.5319)" class="st0" width="8.3" height="64.4"/>
<rect x="-465.9" y="671.9" transform="matrix(-0.5725 -0.8199 0.8199 -0.5725 -1303.4451 728.6802)" class="st0" width="8.3" height="64.4"/>
<rect x="-465.8" y="580.6" transform="matrix(0.5725 -0.8199 0.8199 0.5725 -698.4603 -117.2433)" class="st0" width="8.3" height="61.2"/>
<rect x="-465.8" y="627.8" transform="matrix(0.5725 -0.8199 0.8199 0.5725 -737.1698 -97.0672)" class="st0" width="8.3" height="61.2"/>
<rect x="-465.8" y="674.1" transform="matrix(0.5725 -0.8199 0.8199 0.5725 -775.1553 -77.2777)" class="st0" width="8.3" height="61.2"/>
<rect x="-493.1" y="679.2" class="st0" width="58.1" height="8.3"/>
<rect x="-493.1" y="720.8" class="st0" width="58.1" height="8.3"/>
<rect x="-493.1" y="584.8" class="st0" width="58.1" height="8.3"/>
<rect x="-432" y="555.7" class="st0" width="229.4" height="8.3"/>
<rect x="-203.9" y="631.4" class="st0" width="58.1" height="8.3"/>
<rect x="-176" y="536.4" transform="matrix(0.5725 -0.8199 0.8199 0.5725 -538.3538 101.4653)" class="st0" width="8.3" height="61.2"/>
<rect x="-341.5" y="537.2" transform="matrix(0.5725 -0.8199 0.8199 0.5725 -596.8562 -40.5531)" class="st0" width="8.3" height="29.8"/>
<rect x="-310" y="537.2" transform="matrix(-0.5725 -0.8199 0.8199 -0.5725 -933.6304 617.3538)" class="st0" width="8.3" height="29.8"/>
<rect x="-176" y="536.4" transform="matrix(-0.5725 -0.8199 0.8199 -0.5725 -735.1105 750.7137)" class="st0" width="8.3" height="61.2"/>
<rect x="-176.6" y="580.5" transform="matrix(-0.5725 -0.8199 0.8199 -0.5725 -773.6079 822.0891)" class="st0" width="8.3" height="64.4"/>
<rect x="-176.6" y="629.2" transform="matrix(-0.5725 -0.8199 0.8199 -0.5725 -813.5389 898.647)" class="st0" width="8.3" height="64.4"/>
<rect x="-176.7" y="672" transform="matrix(-0.5725 -0.8199 0.8199 -0.5725 -848.7262 965.7953)" class="st0" width="8.3" height="64.4"/>
<rect x="-176.6" y="580.6" transform="matrix(0.5725 -0.8199 0.8199 0.5725 -574.8274 119.8398)" class="st0" width="8.3" height="61.2"/>
<rect x="-176.6" y="627.8" transform="matrix(0.5725 -0.8199 0.8199 0.5725 -613.5369 140.0157)" class="st0" width="8.3" height="61.2"/>
<rect x="-176.7" y="674.1" transform="matrix(0.5725 -0.8199 0.8199 0.5725 -651.5223 159.8052)" class="st0" width="8.3" height="61.2"/>
<rect x="-203.9" y="679.2" class="st0" width="58.1" height="8.3"/>
<rect x="-203.9" y="720.8" class="st0" width="58.1" height="8.3"/>
<rect x="-203.9" y="584.8" class="st0" width="58.1" height="8.3"/>
<rect x="-198.5" y="632.5" class="st0" width="55.9" height="10.4"/>
<rect x="-201" y="683.3" class="st0" width="58.1" height="8.3"/>
<rect x="-196.4" y="584.1" class="st0" width="53.6" height="9"/>
<rect x="-438.9" y="542.6" class="st0" width="8.3" height="190"/>
<rect x="-325.4" y="542.6" class="st0" width="8.3" height="17.8"/>
<rect x="-204.6" y="542.6" class="st0" width="8.3" height="190"/>
<rect x="-149.1" y="542.6" class="st0" width="8.3" height="190"/>
<rect x="-376" y="325.9" class="st2" width="7.2" height="18.8"/>
<rect x="-273.2" y="325.9" class="st2" width="7.2" height="18.8"/>
<rect x="-178.2" y="325.9" class="st2" width="7.2" height="18.8"/>
<path class="st3" d="M-455.2,351.4h-14.6c-2.4,0-4.1-2.2-3.6-4.5l1.3-5.6c0.4-1.7,1.9-2.9,3.6-2.9h12.4c1.8,0,3.3,1.3,3.6,3l1,5.6
	C-451.1,349.3-452.9,351.4-455.2,351.4z"/>
<path class="st2" d="M-462.6,344.7L-462.6,344.7c-2,0-3.6-1.6-3.6-3.6v-15.2h7.2v15.3C-459.1,343.1-460.7,344.7-462.6,344.7z"/>
<path class="st3" d="M-365.2,351.4h-14.7c-2.4,0-4.1-2.2-3.6-4.5l1.3-5.6c0.4-1.7,1.9-2.9,3.6-2.9h12.4c1.8,0,3.3,1.3,3.6,3l1,5.6
	C-361.2,349.3-362.9,351.4-365.2,351.4z"/>
<path class="st2" d="M-372.7,344.7L-372.7,344.7c-2,0-3.6-1.6-3.6-3.6v-15.2h7.2v15.3C-369.1,343.1-370.7,344.7-372.7,344.7z"/>
<path class="st3" d="M-262.2,351.4h-14.7c-2.4,0-4.1-2.2-3.6-4.5l1.3-5.6c0.4-1.7,1.9-2.9,3.6-2.9h12.4c1.8,0,3.3,1.3,3.6,3l1,5.6
	C-258.1,349.3-259.9,351.4-262.2,351.4z"/>
<path class="st2" d="M-269.6,344.7L-269.6,344.7c-2,0-3.6-1.6-3.6-3.6v-15.2h7.2v15.3C-266.1,343.1-267.7,344.7-269.6,344.7z"/>
<path class="st3" d="M-167.3,351.4H-182c-2.4,0-4.1-2.2-3.6-4.5l1.3-5.6c0.4-1.7,1.9-2.9,3.6-2.9h12.4c1.8,0,3.3,1.3,3.6,3l1,5.6
	C-163.3,349.3-165,351.4-167.3,351.4z"/>
<path class="st2" d="M-174.8,344.7L-174.8,344.7c-2,0-3.6-1.6-3.6-3.6v-15.2h7.2v15.3C-171.2,343.1-172.8,344.7-174.8,344.7z"/>
<g>
	<g>
		<g id="KRyJ1s.tif_15_">
			<g>
				<path class="st4" d="M-372.5,366.8c0.7,0.2,1.4,0.5,2,0.8c1.5,0.8,2.4,2.2,2.5,4c0.1,1.7-0.2,3.2-0.9,4.7
					c-0.6,1.1-1.2,2-1.9,3.1c-0.7,0.9-1.7,1.5-2.8,1.7c-1.2,0.1-2-0.5-2.1-1.7c-0.1-0.9,0-1.8,0.5-2.6c0.7-1.4,1.7-2.7,3.3-3.1
					c0.4-0.1,0.6-0.1,0.9-0.1c0.5,0,0.6-0.2,0.7-0.6c0.5-1.7-0.5-3-2.2-3c-0.8,0-1.8,0.2-2.6,0.5c-3.4,1.2-6.5,3.2-9.1,5.7
					c-8.5,7.9-15.4,17-20.2,27.7c-1.7,3.8-3,7.7-3.7,11.7c-0.5,2.8-0.5,5.7,0.1,8.5c0.8,3.5,3.1,5.9,6.4,7.5
					c2.7,1.2,5.6,1.5,8.4,1.3c4.7-0.4,9.3-1.7,14-2.7c5.3-1.3,10.5-2.6,15.7-3.8c5-1.1,10.1-1.7,15.1-1.4c5.9,0.4,11.2,2,16.1,5.6
					c2.7,1.9,5.3,3.9,7.7,6.3c0.4,0.5,0.7,0.8,1.1,1.4c-0.1-0.1-0.2-0.1-0.5-0.2c-4.7-3.1-9.9-4.9-15.7-4.7c-2.5,0-4.7,0.4-6.7,2
					c-0.9,0.8-1.8,1.8-2.7,2.7c0.1,0.1,0,0,0,0c-2.1-3.7-5.4-5.8-9.6-6.7c-2.8-0.7-5.8-0.8-8.8-0.6c-5.2,0.4-10.2,1.7-15.1,3
					c-4.6,1.2-9.3,2.1-14,3.1c-3.7,0.7-7.5,0.7-11-0.6c-5.4-2-8.8-5.8-9.9-11.5c-0.2-1.1-0.4-2.2-0.5-3.3c0-0.1-0.1-0.4-0.1-0.5
					c0-0.9,0-2,0-3c0.1-0.8,0.1-1.5,0.2-2.4c0.6-4.4,1.8-8.6,3.5-12.7c3.5-8,8.5-15.1,14.7-21.3c4-4,8.3-7.7,13.3-10.4
					c2.7-1.5,5.7-2.8,8.8-3.5c0.9-0.2,2-0.4,3-0.5C-373.9,366.8-373.2,366.8-372.5,366.8z"/>
				<path class="st4" d="M-369.1,397.5c0.5-0.1,0.8-0.1,1.1-0.2c1.1-0.5,2.1-1.1,3.1-1.7c2-1.3,3.8-3.1,5.4-4.9
					c1.8-1.9,3.7-3.4,5.8-4.9c1.9-1.2,3.8-2,6-1.9c2.8,0.1,4.9,2.5,4.4,5.3c-0.4,2.2-1.3,4.3-2.8,6c-0.6,0.6-1.2,1.1-2,1.4
					c-1.3,0.6-2.5-0.4-2.5-1.7c-0.1-2.4,2.1-4.9,4.6-5.1c0.1,0,0.4-0.1,0.5-0.2c0.5-0.9,0.2-2.4-1.3-2.4c-1.3,0-2.2,0.6-3.2,1.3
					c-1.8,1.4-3.4,3.1-5,5c-3.4,4.3-6,9-7.8,14.1c-0.5,1.3-0.6,2.6-0.4,3.9c0.4,2.1,1.9,3.1,3.9,2.6c1.8-0.5,3.3-1.5,4.6-2.7
					c3-2.7,5.4-5.8,7.9-9c2.2-3,4.4-6,6.7-8.9c2.2-2.8,4.7-5.3,7.7-7.3c1.4-0.9,2.8-1.8,4.5-2.1c1.9-0.4,3.3,0.2,4.5,1.8
					c0.1,0.1,0.1,0.2,0.2,0.4c0.1-0.1,0.1-0.1,0.1-0.2c0.4-0.9,1.1-1.2,2-1.1c1.7,0.1,3.2,0,4.9,0c0.1,0,0.4,0,0.6,0
					c-0.2,0.4-0.4,0.6-0.5,0.8c-4.6,8-9.3,16.2-14,24.3c-0.2,0.5-0.5,0.9-0.5,1.5c-0.1,0.7,0.5,1.1,1.1,0.8c0.5-0.2,1.1-0.5,1.4-0.8
					c1.8-1.3,3.2-2.8,4.5-4.5c1.3-1.5,2.5-3.1,3.5-4.6c0.4-0.4,0.6-0.6,1.1-0.5c0.5,0,1.1,0,1.5,0c-0.1,0.1-0.1,0.2-0.1,0.4
					c-2.8,4.3-5.9,8.4-9.6,12c-1.9,1.8-3.8,3.5-6.2,4.6c-1.1,0.5-2.1,0.8-3.3,0.6c-1.2-0.2-2.1-1.4-2.2-2.6c-0.1-0.8,0-1.7-0.1-2.7
					c-0.1,0.1-0.2,0.4-0.4,0.5c-1.3,1.4-2.6,2.6-4.3,3.5c-1.1,0.7-2.2,1.2-3.5,1.3c-2.6,0.2-4.4-1.3-4.5-3.9c-0.1-1.5,0.4-3,0.7-4.5
					c0-0.2,0.1-0.4,0-0.6c-0.1,0.1-0.4,0.4-0.5,0.5c-2.1,1.9-4.1,3.8-6.4,5.7c-1.8,1.4-3.9,2.5-6.2,2.8c-1.2,0.2-2.4,0.2-3.5-0.1
					c-2.5-0.8-3.5-2.7-4-5.2c-0.7-3.2,0.2-6.3,1.5-9.1c0.8-1.7,1.7-3.3,2.5-5.1c0.1-0.1,0.2-0.4,0.4-0.6c-0.9,0.2-1.7,0.5-2.5,0.6
					c-0.7,0.1-1.2,0.5-1.5,1.1c-1.7,2.7-3.2,5.4-5.1,7.9c-2.5,3.4-5.4,6.4-9,8.8c-1.4,0.9-3,1.7-4.9,1.9c-1.9,0.2-3.8-0.8-4.5-2.7
					c-0.6-1.5-0.7-3.1-0.6-4.7c0.5-4.7,2.4-8.9,4.9-12.8c3-4.7,6.6-9,11.2-12.2c1.9-1.3,3.9-2.5,6.2-3c3.5-0.6,5.8,1.2,5.8,4.9
					c0,2-0.5,3.8-1.2,5.7C-368.4,395.6-368.7,396.6-369.1,397.5z M-342.8,411.4c0.1,0.6,0.2,1.1,0.7,1.3c0.5,0.2,0.9,0.2,1.4,0
					c1.2-0.7,2.2-1.5,3.1-2.6c1.2-1.5,2.4-3.1,3.3-4.7c3.2-5.4,6.4-10.9,9.5-16.3c0.4-0.6,0.1-1.1-0.5-1.4c-0.6-0.2-1.1-0.1-1.7,0.1
					c-1.1,0.5-2.1,1.2-2.8,2.1c-2.2,2.8-4.5,5.6-6.6,8.4c-2.4,3.2-4.3,6.5-5.7,10.3C-342.3,409.5-342.6,410.4-342.8,411.4z
					 M-379.3,395c-0.1,0.1-0.2,0.2-0.4,0.4c-1.1,1.7-2.2,3.3-3.2,5c-1.4,2.5-2.7,5-3.3,7.7c-0.2,0.8-0.2,1.7-0.1,2.5
					c0.1,1.5,1.2,2.2,2.7,1.9c0.4-0.1,0.7-0.2,1.1-0.5c1.4-0.8,2.5-1.9,3.5-3.1c2.2-2.5,4-5.4,5.7-8.3c0.1-0.2,0.1-0.5,0.2-0.7
					C-375.6,399.1-377.8,397.6-379.3,395z M-369.3,390.4c0-0.2,0-0.5,0-0.7c-0.4-1.9-1.2-2.7-3.2-2.1c-0.4,0.1-0.7,0.2-0.9,0.5
					c-1.4,0.9-2.5,2.1-3.1,3.7c-0.5,1.3-0.5,2.6,0.5,3.8c1.1,1.3,2.4,2,4,2.1c0.4,0,0.5-0.1,0.6-0.4c0.4-0.9,0.8-1.8,1.2-2.7
					C-369.8,393.3-369.3,391.9-369.3,390.4z"/>
			</g>
		</g>
		<g id="KRyJ1s.tif_14_">
			<g>
				<path class="st4" d="M-224,380.4c0.5-0.9,0.9-1.9,1.4-2.8c0.5-0.9,0.8-2,0.8-3.1c0-0.8-0.4-1.1-1.1-0.8c-0.7,0.4-1.4,0.7-2,1.2
					c-2.7,2.1-5.2,4.5-7.5,7.1c-4.7,5.3-8.8,11.2-12.5,17.4c-2.4,3.8-4.5,7.8-6.6,11.7c-0.2,0.4-0.4,0.7-0.5,1.2
					c0.2-0.1,0.6-0.2,0.8-0.5c1.4-1.2,3-2.2,4.3-3.4c6-5.4,11.6-11.4,16.6-17.9c0.5-0.6,0.9-1.1,1.8-1.1c0.4,0,0.7-0.1,1.2-0.1
					c-0.2,0.5-0.5,0.8-0.7,1.2c-3.2,4.5-6.9,8.6-10.6,12.7c-4.6,4.9-9.6,9.3-15.1,13.1c-0.1,0.1-0.4,0.2-0.4,0.5
					c-1.7,3.7-3.2,7.5-4,11.5c-0.1,0.8-0.1,1.7,0,2.4c0.2,1.2,1.3,1.7,2.2,0.9c1.1-0.8,2-1.7,2.7-2.7c1.5-2,2.8-4,4.3-6.2
					c2.4-3.5,4.6-7.1,7.3-10.3c2.5-3,5.2-5.7,8.6-7.7c1.4-0.8,3.1-1.3,4.7-0.9c1.1,0.2,1.8,0.9,2.4,1.8c0.1,0.2,0.4,0.4,0.5,0.6
					c0.2-0.5,0.6-0.9,0.8-1.4c0.1-0.1,0.4-0.4,0.5-0.4c2,0,4.1,0,6.2,0c0,0,0.1,0,0.2,0c-0.1,0.2-0.1,0.4-0.2,0.5
					c-3.2,5.6-6.3,11.1-9.5,16.8c-1.2,2.1-2.5,4.3-3.7,6.5c-0.4,0.6-0.6,1.2-0.8,1.9c-0.1,0.4-0.2,0.8,0.1,1.2
					c0.4,0.4,0.8,0.1,1.2-0.1c1.8-1.1,3.3-2.6,4.6-4.3c1.5-2,3-4.1,4.5-6.2c0.2-0.2,0.4-0.5,0.7-0.5c0.6,0,1.1,0,1.7,0
					c-0.2,0.4-0.5,0.7-0.6,1.1c-2.6,4-5.4,7.9-8.8,11.4c-1.9,2-4.1,3.5-6.6,4.6c-0.6,0.2-1.4,0.4-2.1,0.4c-1.3,0-2.2-0.7-2.6-2
					c-0.2-0.9-0.1-1.9-0.2-2.7c0-0.2,0-0.4,0.1-0.6c0,0-0.1,0-0.1-0.1c-0.4,0.4-0.7,0.7-1.1,1.2c-1.5,1.4-3.2,2.8-5.1,3.7
					c-0.9,0.5-1.9,0.7-3,0.5c-1.8-0.2-3-1.5-3.2-3.5c-0.1-0.8,0-1.7,0-2.5c0-0.2,0-0.5,0-0.8c-0.2,0.2-0.4,0.5-0.5,0.6
					c-1.5,1.8-3.1,3.4-5,4.7c-0.8,0.6-1.7,1.1-2.6,1.3c-2,0.7-3.8-0.1-4.9-2c-0.6-1.1-0.7-2.2-0.7-3.4c0.1-2.7,0.8-5.3,1.7-7.8
					c0.5-1.5,1.1-3.1,1.5-4.7c-0.4,0-0.6,0.1-0.8,0.1c-0.8,0.1-1.7,0.2-2.5,0.2c-0.5,0-0.6,0.2-0.8,0.6c-1.7,2.6-3.2,5.2-5,7.7
					c-2.4,3.3-5.3,6.3-8.9,8.4c-1.2,0.7-2.5,1.2-3.8,1.3c-2.6,0.2-4-1.5-4.4-3.3c-0.5-1.9-0.2-3.8,0.1-5.6c0.9-4,2.6-7.6,4.9-11
					c2.4-3.7,5-7.1,8.4-10.1c2-1.8,4.1-3.2,6.7-4c0.9-0.4,1.9-0.4,3-0.4c2,0.2,3,1.7,3.2,3c0.5,2,0.1,4-0.5,6
					c-0.6,1.5-1.2,3.1-1.9,4.6c-0.1,0.1-0.1,0.4-0.2,0.6c1.3,0.1,2.5-0.2,3.5-0.8c0.1-0.1,0.2-0.4,0.4-0.5c3.4-7,7.1-13.7,11.5-20.2
					c5.3-7.9,11.6-15,18.9-21.2c1.8-1.4,3.7-2.7,5.7-3.7c1.1-0.5,2.1-0.7,3.3-0.7c1.4,0.1,2.1,0.8,2.2,2.2c0.1,1.8-0.4,3.4-1.1,5
					c-0.8,1.8-0.9,1.8-2.8,2.1C-223.8,380.5-223.8,380.4-224,380.4z M-244.1,430.5c0,0.6,0.7,1.2,1.8,0.8c0.5-0.1,0.9-0.5,1.3-0.8
					c1.3-0.9,2.2-2.4,3.2-3.7c2.6-3.5,4.7-7.5,6.9-11.2c1.3-2.2,2.6-4.4,3.9-6.6c0.2-0.5,0.4-0.9,0-1.4c-0.4-0.5-0.9-0.6-1.4-0.4
					c-0.6,0.2-1.2,0.5-1.8,0.9c-0.7,0.5-1.4,1.1-2,1.8c-4.5,4.6-8,9.9-10.8,15.9C-243.7,427.1-244.1,428.5-244.1,430.5z
					 M-274.3,414.5c-0.9,1.4-1.9,2.8-2.8,4.1c-1.5,2.5-3,5.1-3.8,7.9c-0.2,0.9-0.5,2-0.2,3.1c0.2,1.3,1.2,2,2.5,1.7
					c1.2-0.2,2.2-1.1,3.1-1.9c2.8-2.6,5-5.8,6.6-9.1c0.1-0.2,0.1-0.4,0.2-0.6C-271.1,418.5-273.1,417.1-274.3,414.5z M-264.8,409.6
					c0-0.4,0-0.6,0-0.9c-0.1-1.3-0.8-2-1.9-2c-0.5,0-0.9,0.1-1.4,0.4c-1.2,0.6-2.2,1.4-3.1,2.6c-2,3.2-0.1,6.7,3.2,7.9
					c0.1,0,0.5-0.1,0.6-0.2c0.4-0.6,0.7-1.2,0.9-1.8C-265.7,413.6-264.8,411.7-264.8,409.6z"/>
				<path class="st4" d="M-237.6,379.7c-1.7,1.8-3.2,3.4-4.9,5.2c-0.1,0.1-0.5,0.1-0.6,0c-1.1-0.6-2-1.2-3.1-1.8
					c-3.1-1.9-6.2-4-9.2-5.8c-2.4-1.4-5.1-2.5-7.8-2.8c-0.9-0.1-1.8-0.1-2.7,0.2c-0.2,0.1-0.4,0.2-0.4,0.6c0.2,3.2-0.6,6.3-1.8,9.2
					c-1.7,4.1-4.1,7.7-7.5,10.6c-1.4,1.3-3,2.1-4.7,2.7c-2.5,0.7-4.4-0.5-4.7-3.1c-0.2-1.7,0.2-3.2,0.8-4.7c2-5.1,5.2-9.2,9.5-12.8
					c1.4-1.2,3.1-2.2,4.6-3.4c0.1-0.1,0.2-0.1,0.4-0.2c-0.9-0.4-1.9-0.4-2.8-0.2c-1.3,0.2-2.6,0.8-3.8,1.4
					c-4.6,2.5-8.5,5.7-12.1,9.5c-6.5,6.9-12.2,14.4-16.7,22.8c-2.5,4.6-4.4,9.5-5.3,14.7c-0.4,2.1-0.7,4.3-0.1,6.4
					c0.6,2.2,1.9,3.9,4.1,4.6c1.4,0.4,2.8,0.1,4.1-0.5c2.4-1.1,4.4-2.6,6.2-4.5c3.4-3.7,6.3-7.8,7.8-12.7c0.6-1.8,1.1-3.7,0.9-5.7
					c-0.1-1.9-1.2-2.6-3-1.9c-1.3,0.5-2.1,1.5-3,2.5c-1.8,2.4-3,5-3.5,7.8c0,0.2-0.2,0.5-0.4,0.6c-3.1,1.5-5.8,3.7-8.2,6.2
					c-0.1,0.1-0.1,0.1-0.4,0.4c0.7-5.8,2.5-11.1,6.2-15.5c2.2-2.6,4.9-4.5,8.3-5.3c0.8-0.2,1.8-0.4,2.7-0.1c1.5,0.4,2.5,1.4,2.8,2.8
					c0.6,1.9,0.5,3.8,0.1,5.7c-0.8,4.5-2.8,8.4-5.3,12.1c-3.1,4.7-7,8.6-11.8,11.6c-2.1,1.2-4.4,1.9-6.7,2c-3.9,0.1-6.7-1.7-8.6-4.9
					c-1.7-2.8-2-5.9-1.8-9.1c0.4-5,2-9.6,4.1-14.1c5.8-12.1,13.8-22.5,24.3-31c4.5-3.7,9.5-6.4,15-8c2-0.6,4-0.7,6.2-0.2
					c0.9,0.2,1.8,0.7,2.4,1.4c0.2,0.2,0.5,0.2,0.7,0.1c1.7-0.5,3.3-1.2,5-1.4c4.1-0.8,8.2-0.2,11.8,1.8
					C-246,374.7-242,377.2-237.6,379.7C-237.7,379.5-237.7,379.7-237.6,379.7z M-268.4,375.4c-0.6,0.4-0.9,0.5-1.4,0.8
					c-5.3,3.2-9.2,7.8-12.1,13.3c-0.6,1.3-1.2,2.5-1.3,3.9c-0.2,1.8,1.2,2.8,2.8,2.1c0.7-0.4,1.3-0.7,1.9-1.2
					c5.8-4.5,9.1-10.3,9.9-17.5C-268.3,376.4-268.4,375.9-268.4,375.4z"/>
				<path class="st4" d="M-205.2,370.6c-0.9,1.9-2,3.8-3.4,5.4c-4.3,5.3-9.5,9.3-16.1,11.4c-3.3,1.1-6.7,1.4-10.2,0.7
					c-0.1,0-0.1,0-0.2,0c-0.1,0-0.4-0.1-0.6-0.1c0.1-0.1,0.2-0.4,0.4-0.5c1.4-1.7,2.8-3.4,4.1-5.1c0.1-0.1,0.4-0.4,0.6-0.4
					c3.9,0.4,7.7-0.4,11.4-1.9c5.2-2.1,9.7-5.4,13.6-9.5C-205.3,370.8-205.3,370.7-205.2,370.6z"/>
			</g>
		</g>
		<path class="st4" d="M-302.7,384.8c-0.6,0.8-1.2,1.5-1.8,2.2c-0.6,0.8-1.2,1.7-1.9,2.5c-0.1,0.1-0.3,0.2-0.6,0.2
			c-2.1,0-4.3,0-6.4,0h-0.1c0.1-0.1,0.1-0.1,0.1-0.2c1.2-1.5,2.4-3,3.5-4.5c0.1-0.1,0.3-0.2,0.5-0.2
			C-307.2,384.8-305,384.8-302.7,384.8z"/>
	</g>
</g>
<path class="st5" d="M-180.1,488.6c-44.7,8.2-89.6,15.1-135.8,15.9c-37.3,0.7-74-2.3-110.1-10.1c-36.1-7.8-69.2-21-100.5-37.1
	c-0.5-0.3-0.6-0.6-1.4-0.9l-0.5,41c1.7,0.5,3.5,0.9,5,1.4c38.5,13.3,78.9,18.5,120.6,17.8c27-0.4,53.9-3,80.6-6.1
	c44-5.1,87.6-12.1,132-14.6c21-1.2,41.9-1.3,62.8,1.7c6.2,0.9,12.5,2,18.4,3c0.1-6.3,0.1-12.6,0.2-18.9
	C-133.1,480.7-156.6,484.3-180.1,488.6z"/>
<g>
	<path class="st5" d="M-366.3,457h8.4l3.1,9.7l3.1-9.7h8.3l-7.8,19.4h-7.3L-366.3,457z"/>
	<path class="st5" d="M-342.2,450.5h8.3v5.1h-8.3V450.5z M-342.1,457h8v19.3h-8V457z"/>
	<path class="st5" d="M-332.8,457h8.4l3.1,9.7l3.1-9.7h8.3l-7.8,19.4h-7.3L-332.8,457z"/>
	<path class="st5" d="M-310.5,466.8L-310.5,466.8c0-5.8,4.1-10.2,9.9-10.2c6.9,0,10,4.8,10,10.6c0,0.4,0,0.9,0,1.3H-303
		c0.6,1.7,1.9,2.6,3.6,2.6c1.4,0,2.6-0.7,3.9-2l4.3,3.4c-1.9,2.5-4.6,4.2-8.8,4.2C-306.2,476.8-310.5,472.8-310.5,466.8z
		 M-297.8,465c-0.2-1.8-1.3-2.9-2.7-2.9c-1.3,0-2.3,1.1-2.5,2.9H-297.8z"/>
	<path class="st5" d="M-288.7,450.5h8v25.8h-8V450.5z"/>
	<path class="st5" d="M-278.9,470.8L-278.9,470.8c0-3.9,2.9-6.1,7.3-6.1c1.6,0,3.7,0.4,4.6,0.7v-0.3c0-1.8-1.1-2.8-3.6-2.8
		c-2,0-3.6,0.4-5.3,1.1l-1.4-5.3c2.2-0.8,4.8-1.4,8.1-1.4c3.9,0,6.5,0.8,8.2,2.5c1.4,1.4,2,3.3,2,6.1v11h-8v-1.9
		c-1.3,1.4-3.1,2.4-5.5,2.4C-276.3,476.8-278.9,474.7-278.9,470.8z M-266.9,469.2v-0.8c-0.5-0.2-1.2-0.3-1.8-0.3
		c-1.6,0-2.5,1-2.5,2.2v0.1c0,1.1,0.8,1.9,1.8,1.9C-268,472.2-266.9,471-266.9,469.2z"/>
</g>
<rect x="-224.1" y="523.5" class="st6" width="121" height="16"/>
<text transform="matrix(1 0 0 1 -206.0731 532.2598)" class="st7 st8 st9">SLOGAN 1999</text>
</svg>
