<?xml version="1.0" encoding="utf-8"?>
<!-- Generator: Adobe Illustrator 18.0.0, SVG Export Plug-In . SVG Version: 6.00 Build 0)  -->
<!DOCTYPE svg PUBLIC "-//W3C//DTD SVG 1.1//EN" "http://www.w3.org/Graphics/SVG/1.1/DTD/svg11.dtd">
<svg version="1.1" id="Layer_1" xmlns="http://www.w3.org/2000/svg" xmlns:xlink="http://www.w3.org/1999/xlink" x="0px" y="0px"
	 viewBox="0 0 905.6 362" enable-background="new 0 0 905.6 362" xml:space="preserve">
<path fill="#3B8891" d="M678.7,233.4l20.2,80.5l31.1-32.3C729.9,281.5,698.2,249.8,678.7,233.4z"/>
<polygon fill="#457A8C" points="702.6,248 706.3,291.5 688.9,317.6 827.8,326.4 816.9,281.5 "/>
<polygon fill="#457A8C" points="443.4,314.8 483.9,269.1 555.2,298.2 636.7,272.8 644.7,306.5 "/>
<path fill="#457A8C" d="M188.2,167.2c0-3.7,18.6-70.8,18.6-70.8l53.4,32.3l44.7-27.3l9.9-63.4l52.2,41l-19.9,55.9L188.2,167.2z"/>
<path fill="#457A8C" d="M54.1,210.7l0.6,43.6l-35.3,30.9l8.8,6.1l156.3-5.5l32-18.8c0,0-121.5-111.5-123.1-113.2
	c-1.7-1.7-16.6-1.7-16.6-1.7l7.7,76.2L54.1,210.7z"/>
<polygon fill="#3B8891" points="468.3,268.4 555.2,298.2 630.6,280.8 523.8,197.1 476.5,198.8 "/>
<path fill="#3B8891" d="M202.4,158.2l40.6-32.3l71.2-0.8l46.4-30.6c0,0,78.7,133.4,76.2,196.3l-8.3,19.9l-17.4,5.8
	c0,0-198.8-45.6-198.8-48C212.3,265.9,202.4,158.2,202.4,158.2z"/>
<path fill="#3B8891" d="M273.6,3.3c0,0,6.6,99.4,10.8,114.3c0,0,34.8,15.7,34,13.3c-0.8-2.5,5.8-88.6,5.8-88.6S297.6,3.3,273.6,3.3z
	"/>
<path fill="#3B8891" d="M213.1,97.7L199.1,159L177.5,145c0,0-5.8-61.3,3.3-66.3L213.1,97.7z"/>
<path fill="#3B8891" d="M85.6,149.9l8.3,78.7l-9.1,9.9c0,0-34-91.9-37.3-110.2L85.6,149.9z"/>
<path fill="#4FB3AA" d="M443.4,314.8c0,0,58-43.9,54.7-105.2C494.8,148.3,371.4,9.1,270.3,0c0,0,146.6,127.6,158.2,310.6
	L443.4,314.8z"/>
<path fill="#4FB3AA" d="M339.9,299.8c0,0,26.5-80.3-25.7-174.8c0,0-79.5-46.4-133.4-46.4c0,0,99.4,71.2,147.4,216.2L339.9,299.8z"/>
<path fill="#4FB3AA" d="M208.2,155.7c0,0-72.9-43.1-160.7-27.3c0,0,117.6,74.5,161.5,142.5l9.9-4.1
	C218.9,266.7,211.5,178.9,208.2,155.7z"/>
<path fill="#4FB3AA" d="M21,183c0,0,42.2,39,57.2,68.8l6.6-13.3L64.9,183H21z"/>
<path fill="#4FB3AA" d="M494.8,195.5c0,0,74.5-66.3,173.9-24.8c0,0,0.8,73.7-24,135.8l-23.2,0.8l-18.2-17.4l11.6-2.5
	c0,0-73.7-69.6-121.8-82L494.8,195.5z"/>
<path fill="#4FB3AA" d="M762.3,258.1c0,0-24-17.2-83.7-24.6c0,0,61.3,49.6,74.5,80.6h11.6C764.8,314,765.6,279.8,762.3,258.1z"/>
<path fill="#4FB3AA" d="M767.3,256.8c0,0,67.9-35.6,138.3-18.2c0,0-48,73.7-57.2,96.1l-20.7-8.3l-12.4-25.7l-49.7-40.6L767.3,256.8z
	"/>
<polygon fill="#3B8891" points="764.8,313.9 778.1,303.2 825.3,304 773.9,259.3 755.7,257.6 "/>
<polygon fill="#457A8C" points="212.3,268.4 230.5,246.8 305,265.4 331.1,298.9 "/>
<polygon fill="#457A8C" points="347.2,302.7 353.5,276.6 421.8,294 434.2,322.5 "/>
<polyline fill="#F1AD4C" points="34.2,283 189.1,283 222.3,264 255.4,264 340.7,295 382.1,295 418.6,311 794.6,311 822,325 
	860.2,325 860.2,362 0.2,362 0.2,330 18.2,330 18.2,305 34.2,305 34.2,286 "/>
<rect x="32.9" y="292.7" fill="#457A8C" width="105.6" height="11.2"/>
<rect x="18" y="317.6" fill="#457A8C" width="105.6" height="11.2"/>
<rect x="322.4" y="327.9" fill="#457A8C" width="105.6" height="5"/>
<rect x="452.9" y="327.9" fill="#457A8C" width="105.6" height="5"/>
<rect x="683.9" y="327.9" fill="#457A8C" width="105.6" height="5"/>
<rect x="0" y="339.8" fill="#457A8C" width="122.6" height="21.7"/>
<rect x="331.7" y="339.8" fill="#457A8C" width="421.2" height="21.7"/>
<path opacity="0.1" d="M208.4,152.4l23.3-23.3c0,0,65.2,74.5,89.8,156.5c0,0-60.3-100.6-87.4-123l-23.4,21.1l8.3,79.6l-10.7,8.6
	l-18.5-50.9C189.9,221.1,201.1,186.9,208.4,152.4z"/>
<path opacity="0.1" d="M157.2,136.2c0,0-38.8-2.3-71.6,13.7l-38.1-21.5C47.5,128.4,86.3,112.6,157.2,136.2z"/>
<path opacity="0.1" d="M300,31.8l-24.8,29.8l7.5,48.5c0,0-42.2-19.9-59.6-23.6l119.3,96.9l14.9-37.3l52.2,68.3
	C409.4,214.5,379.6,121.3,300,31.8z"/>
<path opacity="0.1" d="M498.1,209.6c0,0,62.9,36,64.1,91.9l46-13.7C608.2,287.8,557,222.1,498.1,209.6z"/>
<path opacity="0.1" d="M494.8,195.5c0,0,22.7,52.5-45.6,115.9l-20.6-0.7c0,0,62.9-58.9,56.6-144.6L494.8,195.5z"/>
<polygon opacity="0.1" points="755.7,257.6 765.6,260.1 778.4,307.6 762.2,308.9 "/>
<path opacity="0.1" d="M67.7,143.6l26.2,85c0,0,89.4,25.6,104.3,49.2l10.2-5.8C208.3,272,121.5,170.8,67.7,143.6z"/>
<g>
	<path fill="#5773C6" d="M563,124.6c-19.4,0-35.2,15.7-35.2,35.2S543.6,195,563,195c19.4,0,35.2-15.7,35.2-35.2
		S582.4,124.6,563,124.6z M563,189.1c-16.2,0-29.3-13.1-29.3-29.3c0-16.2,13.1-29.3,29.3-29.3c16.2,0,29.3,13.1,29.3,29.3
		C592.3,176,579.2,189.1,563,189.1z"/>
	<path fill="#EDD034" d="M608.6,156.5c-19.4,0-35.2,15.7-35.2,35.2s15.7,35.2,35.2,35.2c19.4,0,35.2-15.7,35.2-35.2
		S628,156.5,608.6,156.5z M608.6,221c-16.2,0-29.3-13.1-29.3-29.3c0-16.2,13.1-29.3,29.3-29.3c16.2,0,29.3,13.1,29.3,29.3
		C637.9,207.9,624.8,221,608.6,221z"/>
	<path fill="#7AC46F" d="M699.1,156.5c-19.4,0-35.2,15.7-35.2,35.2s15.7,35.2,35.2,35.2c19.4,0,35.2-15.7,35.2-35.2
		S718.6,156.5,699.1,156.5z M699.1,221c-16.2,0-29.3-13.1-29.3-29.3c0-16.2,13.1-29.3,29.3-29.3s29.3,13.1,29.3,29.3
		C728.4,207.9,715.3,221,699.1,221z"/>
	<path fill="#1D1733" d="M654.8,124.6c-19.4,0-35.2,15.7-35.2,35.2s15.7,35.2,35.2,35.2c19.4,0,35.2-15.7,35.2-35.2
		S674.3,124.6,654.8,124.6z M654.8,189.1c-16.2,0-29.3-13.1-29.3-29.3c0-16.2,13.1-29.3,29.3-29.3c16.2,0,29.3,13.1,29.3,29.3
		C684.2,176,671,189.1,654.8,189.1z"/>
	<path fill="#F21630" d="M743.4,124.6c-19.4,0-35.2,15.7-35.2,35.2S724,195,743.4,195c19.4,0,35.2-15.7,35.2-35.2
		S762.9,124.6,743.4,124.6z M743.4,189.1c-16.2,0-29.3-13.1-29.3-29.3c0-16.2,13.1-29.3,29.3-29.3c16.2,0,29.3,13.1,29.3,29.3
		C772.7,176,759.6,189.1,743.4,189.1z"/>
</g>
</svg>
