<?xml version="1.0" encoding="utf-8"?>
<!-- Generator: Adobe Illustrator 19.0.0, SVG Export Plug-In . SVG Version: 6.00 Build 0)  -->
<svg version="1.1" id="Layer_1" xmlns="http://www.w3.org/2000/svg" xmlns:xlink="http://www.w3.org/1999/xlink" x="0px" y="0px"
	 viewBox="-828 561 432.3 414.2" style="enable-background:new -828 561 432.3 414.2;" xml:space="preserve">
<style type="text/css">
	.st0{fill:#3D3E3F;}
	.st1{fill:#111416;}
	.st2{fill:#848688;}
	.st3{fill:#E1E1DE;}
	.st4{fill:#3C3B3A;}
	.st5{fill:#BA252B;}
	.st6{fill:#CD0014;}
	.st7{fill:#FFFFFF;}
	.st8{fill:none;}
	.st9{enable-background:new    ;}
	.st10{fill:#FFFDFD;}
</style>
<rect x="-626.6" y="775.9" class="st0" width="36.2" height="199.3"/>
<rect x="-812.3" y="762.3" class="st1" width="405" height="22.7"/>
<rect x="-791.4" y="762.3" class="st2" width="3.2" height="22.6"/>
<rect x="-758.8" y="762.3" class="st2" width="3.2" height="22.6"/>
<rect x="-724.2" y="762.3" class="st2" width="3.2" height="22.6"/>
<rect x="-691.6" y="762.3" class="st2" width="3.2" height="22.6"/>
<rect x="-658.9" y="762.3" class="st2" width="3.2" height="22.6"/>
<rect x="-626.3" y="762.3" class="st2" width="3.2" height="22.6"/>
<rect x="-593.7" y="762.3" class="st2" width="3.2" height="22.6"/>
<rect x="-561.1" y="762.3" class="st2" width="3.2" height="22.6"/>
<rect x="-528.5" y="762.3" class="st2" width="3.2" height="22.6"/>
<rect x="-495.9" y="762.3" class="st2" width="3.2" height="22.6"/>
<rect x="-463.3" y="762.3" class="st2" width="3.2" height="22.6"/>
<rect x="-430.6" y="762.3" class="st2" width="3.2" height="22.6"/>
<rect x="-828" y="784.5" class="st3" width="429" height="5.9"/>
<rect x="-799.8" y="779.5" class="st4" width="34.4" height="7.2"/>
<rect x="-712.6" y="779.5" class="st4" width="34.4" height="7.2"/>
<rect x="-627.5" y="779.5" class="st4" width="34.4" height="7.2"/>
<rect x="-542.3" y="779.5" class="st4" width="34.4" height="7.2"/>
<rect x="-457.1" y="779.5" class="st4" width="34.4" height="7.2"/>
<rect x="-823.2" y="568.4" class="st5" width="425.9" height="203"/>
<g>
	<rect x="-824.9" y="569.4" class="st6" width="427.5" height="201.5"/>
	<path class="st7" d="M-469.9,721.8c-45.6,8.5-91.5,15.7-138.5,16.6c-38.1,0.7-75.5-2.4-112.4-10.5c-36.8-8.1-70.6-21.8-102.5-38.6
		c-0.6-0.3-0.6-0.6-1.4-0.9l-0.5,42.7c1.7,0.5,3.5,0.9,5.1,1.5c39.3,13.8,80.6,19.3,123,18.5c27.6-0.5,55-3.1,82.2-6.3
		c44.9-5.3,89.4-12.6,134.7-15.3c21.4-1.2,42.8-1.4,64.1,1.7c6.3,0.9,12.8,2.1,18.8,3.1c0.1-6.6,0.2-13.1,0.2-19.7
		C-421.9,713.6-445.9,717.4-469.9,721.8z"/>
</g>
<g>
	<path class="st7" d="M-780.1,649.8h-10v-9.6h31.4v9.6h-10v24.4h-11.4V649.8z"/>
	<path class="st7" d="M-761.1,661.1L-761.1,661.1c0-7.6,6.2-14,15-14c8.7,0,14.9,6.3,14.9,13.8v0.1c0,7.5-6.2,13.9-15,13.9
		C-754.9,674.9-761.1,668.6-761.1,661.1z M-741.8,661.1L-741.8,661.1c0-2.7-1.9-4.8-4.4-4.8s-4.3,2.1-4.3,4.6v0.1
		c0,2.6,1.9,4.7,4.4,4.7S-741.8,663.6-741.8,661.1z"/>
	<path class="st7" d="M-728.7,647.7h11v3.6c1.7-2.2,4.4-4.2,8-4.2s6.4,1.6,7.8,4.4c2.2-2.5,4.9-4.4,9-4.4c5.7,0,9.2,3.7,9.2,9.7
		v17.4h-11v-14c0-2.2-1.3-3.5-2.9-3.5c-1.6,0-3.1,1.3-3.1,3.5v14h-11v-14c0-2.2-1.3-3.5-2.9-3.5c-1.6,0-3.1,1.3-3.1,3.5v14h-11
		V647.7z"/>
	<path class="st7" d="M-681.5,666.7L-681.5,666.7c0-5.4,3.9-8.4,10.1-8.4c2.2,0,5.1,0.5,6.3,1v-0.4c0-2.4-1.5-3.8-4.9-3.8
		c-2.7,0-5,0.6-7.3,1.5l-1.9-7.3c3.1-1.2,6.6-1.9,11.2-1.9c5.4,0,8.9,1.1,11.2,3.5c2,2,2.8,4.6,2.8,8.4v14.9h-11v-2.7
		c-1.8,2-4.3,3.3-7.6,3.3C-677.9,674.9-681.5,672-681.5,666.7z M-665,664.4v-1.1c-0.6-0.2-1.6-0.4-2.5-0.4c-2.2,0-3.4,1.3-3.4,3v0.1
		c0,1.6,1.1,2.6,2.5,2.6C-666.5,668.5-665,666.9-665,664.4z"/>
	<path class="st7" d="M-638.5,638.7h11v35.5h-11V638.7z"/>
	<path class="st7" d="M-624.9,661.1L-624.9,661.1c0-7.6,6.2-14,15-14c8.7,0,14.9,6.3,14.9,13.8v0.1c0,7.5-6.2,13.9-15,13.9
		C-618.7,674.9-624.9,668.6-624.9,661.1z M-605.6,661.1L-605.6,661.1c0-2.7-1.9-4.8-4.4-4.8s-4.3,2.1-4.3,4.6v0.1
		c0,2.6,1.9,4.7,4.4,4.7S-605.6,663.6-605.6,661.1z"/>
	<path class="st7" d="M-569.1,671.2v3h-11v-35.5h11v12.2c1.8-1.9,3.8-3.9,7.9-3.9c6.4,0,11.4,5.6,11.4,13.7v0.1
		c0,8.4-5.1,14-11.3,14C-565.2,674.9-567.4,673.1-569.1,671.2z M-560.5,661L-560.5,661c0-2.8-1.9-4.9-4.4-4.9s-4.4,2.1-4.4,4.8v0.1
		c0,2.6,1.9,4.8,4.4,4.8S-560.5,663.7-560.5,661z"/>
	<path class="st7" d="M-547.5,665.2v-17.5h11v14c0,2.3,1.4,3.6,3,3.6c1.7,0,3.2-1.3,3.2-3.6v-14h11v26.5h-11v-3.6
		c-1.7,2.2-4.4,4.2-8.1,4.2C-544,674.9-547.5,671.2-547.5,665.2z"/>
	<path class="st7" d="M-516.7,661.1L-516.7,661.1c0-8,5.7-14.1,13.7-14.1c9.4,0,13.8,6.6,13.8,14.6c0,0.6,0,1.3,0,1.8h-17.1
		c0.8,2.3,2.6,3.6,5,3.6c2,0,3.7-0.9,5.4-2.7l5.9,4.7c-2.6,3.4-6.4,5.8-12.1,5.8C-510.8,674.9-516.7,669.4-516.7,661.1z
		 M-499.3,658.7c-0.2-2.5-1.8-4-3.7-4c-1.8,0-3.2,1.6-3.5,4H-499.3z"/>
	<path class="st7" d="M-486.8,647.7h11v3.7c1.7-2.2,4.4-4.3,8.1-4.3c5.6,0,9.1,3.7,9.1,9.7v17.4h-11v-14c0-2.3-1.4-3.6-3-3.6
		c-1.6,0-3.2,1.3-3.2,3.6v14h-11V647.7L-486.8,647.7z"/>
	<path class="st7" d="M-456.2,661.1L-456.2,661.1c0-7.6,6.2-14,15-14c8.7,0,14.9,6.3,14.9,13.8v0.1c0,7.5-6.2,13.9-15,13.9
		C-450,674.9-456.2,668.6-456.2,661.1z M-436.9,661.1L-436.9,661.1c0-2.7-1.9-4.8-4.4-4.8s-4.3,2.1-4.3,4.6v0.1
		c0,2.6,1.9,4.7,4.4,4.7S-436.9,663.6-436.9,661.1z"/>
</g>
<rect x="-516.7" y="754.3" class="st8" width="121" height="16"/>
<g class="st9">
	<path class="st10" d="M-545.9,759.7l0.9-1.1c1.3,1.2,2.6,1.8,4.4,1.8c1.7,0,2.9-0.9,2.9-2.2v0c0-1.2-0.6-1.9-3.3-2.4
		c-2.9-0.6-4.3-1.6-4.3-3.7v0c0-2,1.8-3.5,4.2-3.5c1.9,0,3.2,0.5,4.5,1.6l-0.8,1.1c-1.2-1-2.4-1.4-3.7-1.4c-1.7,0-2.7,0.9-2.7,2.1v0
		c0,1.2,0.7,1.9,3.5,2.5c2.9,0.6,4.2,1.7,4.2,3.6v0c0,2.2-1.8,3.6-4.4,3.6C-542.7,761.7-544.4,761.1-545.9,759.7z"/>
	<path class="st10" d="M-533.3,748.8h1.4v11.5h7.2v1.3h-8.7V748.8z"/>
	<path class="st10" d="M-523.3,755.2L-523.3,755.2c0-3.6,2.7-6.7,6.6-6.7c3.9,0,6.5,3.1,6.5,6.6c0,0,0,0,0,0c0,3.5-2.7,6.6-6.6,6.6
		C-520.7,761.8-523.3,758.7-523.3,755.2z M-511.7,755.2L-511.7,755.2c0-2.9-2.1-5.3-5.1-5.3s-5,2.3-5,5.3v0c0,2.9,2.1,5.3,5.1,5.3
		S-511.7,758.1-511.7,755.2z"/>
	<path class="st10" d="M-507.7,755.2L-507.7,755.2c0-3.6,2.6-6.7,6.4-6.7c2.2,0,3.5,0.6,4.8,1.7l-0.9,1.1c-1-0.9-2.1-1.5-3.9-1.5
		c-2.8,0-4.9,2.4-4.9,5.3v0c0,3.1,2,5.3,5.1,5.3c1.5,0,2.8-0.6,3.7-1.3V756h-3.9v-1.3h5.3v5.1c-1.2,1.1-3,2-5.1,2
		C-505.3,761.8-507.7,758.9-507.7,755.2z"/>
	<path class="st10" d="M-488.1,748.7h1.4l5.8,12.9h-1.6l-1.5-3.4h-7l-1.5,3.4h-1.5L-488.1,748.7z M-484.5,756.9l-2.9-6.5l-2.9,6.5
		H-484.5z"/>
	<path class="st10" d="M-478.3,748.8h1.4l8.1,10.3v-10.3h1.4v12.8h-1.2l-8.3-10.5v10.5h-1.4V748.8z"/>
	<path class="st10" d="M-459.3,760.4l4.6-4.1c2-1.8,2.7-2.7,2.7-4c0-1.5-1.2-2.5-2.6-2.5c-1.5,0-2.4,0.8-3.4,2.2l-1.1-0.8
		c1.2-1.7,2.4-2.7,4.6-2.7c2.3,0,4,1.5,4,3.6v0c0,1.9-1,3-3.2,5l-3.4,3h6.8v1.3h-9V760.4z"/>
	<path class="st10" d="M-448.1,755.2L-448.1,755.2c0-3.6,2.1-6.7,5.4-6.7c3.3,0,5.4,3,5.4,6.6v0c0,3.6-2.1,6.6-5.4,6.6
		C-446,761.8-448.1,758.8-448.1,755.2z M-438.8,755.2L-438.8,755.2c0-2.8-1.5-5.3-3.9-5.3c-2.4,0-3.9,2.5-3.9,5.3v0
		c0,2.8,1.5,5.3,3.9,5.3S-438.8,758-438.8,755.2z"/>
	<path class="st10" d="M-435,755.2L-435,755.2c0-3.6,2.1-6.7,5.4-6.7c3.3,0,5.4,3,5.4,6.6v0c0,3.6-2.1,6.6-5.4,6.6
		C-432.9,761.8-435,758.8-435,755.2z M-425.7,755.2L-425.7,755.2c0-2.8-1.5-5.3-3.9-5.3c-2.4,0-3.9,2.5-3.9,5.3v0
		c0,2.8,1.5,5.3,3.9,5.3S-425.7,758-425.7,755.2z"/>
	<path class="st10" d="M-422.1,759.8l1-1c1.1,1.1,2.3,1.8,3.6,1.8c1.8,0,3.1-1.2,3.1-2.8v0c0-1.6-1.3-2.7-3.2-2.7
		c-1.1,0-1.9,0.3-2.7,0.7l-1-0.6l0.4-6.2h7.4v1.3h-6.1l-0.3,4.1c0.8-0.3,1.5-0.6,2.5-0.6c2.5,0,4.4,1.5,4.4,3.9v0
		c0,2.5-1.9,4.2-4.6,4.2C-419.3,761.8-420.9,760.9-422.1,759.8z"/>
</g>
</svg>
