<?xml version="1.0" encoding="utf-8"?>
<!-- Generator: Adobe Illustrator 19.0.0, SVG Export Plug-In . SVG Version: 6.00 Build 0)  -->
<svg version="1.1" id="Layer_1" xmlns="http://www.w3.org/2000/svg" xmlns:xlink="http://www.w3.org/1999/xlink" x="0px" y="0px"
	 viewBox="-818 560.6 438.8 418.6" style="enable-background:new -818 560.6 438.8 418.6;" xml:space="preserve">
<style type="text/css">
	.st0{fill:#0E1215;}
	.st1{fill:#BA252B;}
	.st2{fill:#1A1A1A;}
	.st3{fill:#333333;}
	.st4{fill:#F1FFFF;}
	.st5{fill:#FFFFFF;}
	.st6{fill:none;}
	.st7{enable-background:new    ;}
	.st8{fill:#FFFDFD;}
</style>
<rect x="-818" y="569.8" class="st0" width="438.8" height="224.8"/>
<rect x="-808.1" y="578.3" class="st1" width="419.1" height="207.8"/>
<rect x="-773.5" y="789.2" class="st0" width="8.3" height="190"/>
<rect x="-773.1" y="878" class="st0" width="58.1" height="8.3"/>
<rect x="-745.3" y="782.9" transform="matrix(-0.5725 0.8199 -0.8199 -0.5725 -498.4878 1886.9871)" class="st0" width="8.3" height="61.2"/>
<rect x="-796.4" y="774" transform="matrix(-0.3813 0.9244 -0.9244 -0.3813 -354.9079 1837.3781)" class="st0" width="8.3" height="51.9"/>
<rect x="-405.6" y="776" transform="matrix(0.3813 0.9244 -0.9244 0.3813 490.311 865.9539)" class="st0" width="7.6" height="46.6"/>
<rect x="-745.1" y="783" transform="matrix(0.5725 0.8199 -0.8199 0.5725 350.3043 955.3587)" class="st0" width="8.3" height="61.2"/>
<rect x="-745.8" y="827.1" transform="matrix(0.5725 0.8199 -0.8199 0.5725 387.4847 975.4582)" class="st0" width="8.3" height="64.4"/>
<rect x="-745.8" y="875.8" transform="matrix(0.5725 0.8199 -0.8199 0.5725 427.3945 996.2694)" class="st0" width="8.3" height="64.4"/>
<rect x="-746" y="918.6" transform="matrix(0.5725 0.8199 -0.8199 0.5725 462.4222 1014.6583)" class="st0" width="8.3" height="64.4"/>
<rect x="-745.8" y="827.2" transform="matrix(-0.5725 0.8199 -0.8199 -0.5725 -462.9253 1956.9203)" class="st0" width="8.3" height="61.2"/>
<rect x="-745.8" y="874.4" transform="matrix(-0.5725 0.8199 -0.8199 -0.5725 -424.2434 2031.1478)" class="st0" width="8.3" height="61.2"/>
<rect x="-745.8" y="920.7" transform="matrix(-0.5725 0.8199 -0.8199 -0.5725 -386.3229 2103.9685)" class="st0" width="8.3" height="61.2"/>
<rect x="-773.1" y="925.8" class="st0" width="58.1" height="8.3"/>
<rect x="-773.1" y="967.4" class="st0" width="58.1" height="8.3"/>
<rect x="-773.1" y="831.4" class="st0" width="58.1" height="8.3"/>
<rect x="-712" y="802.3" class="st0" width="229.4" height="8.3"/>
<rect x="-483.9" y="878" class="st0" width="58.1" height="8.3"/>
<rect x="-456" y="783" transform="matrix(-0.5725 0.8199 -0.8199 -0.5725 -43.4917 1649.8218)" class="st0" width="8.3" height="61.2"/>
<rect x="-621.5" y="783.8" transform="matrix(-0.5725 0.8199 -0.8199 -0.5725 -315.8698 1762.1294)" class="st0" width="8.3" height="29.8"/>
<rect x="-590" y="783.7" transform="matrix(0.5725 0.8199 -0.8199 0.5725 404.3541 821.7702)" class="st0" width="8.3" height="29.8"/>
<rect x="-456" y="783" transform="matrix(0.5725 0.8199 -0.8199 0.5725 473.9162 718.2823)" class="st0" width="8.3" height="61.2"/>
<rect x="-456.7" y="827.1" transform="matrix(0.5725 0.8199 -0.8199 0.5725 511.0965 738.382)" class="st0" width="8.3" height="64.4"/>
<rect x="-456.7" y="875.8" transform="matrix(0.5725 0.8199 -0.8199 0.5725 551.0063 759.1928)" class="st0" width="8.3" height="64.4"/>
<rect x="-456.7" y="918.5" transform="matrix(0.5725 0.8199 -0.8199 0.5725 586.0221 777.4901)" class="st0" width="8.3" height="64.4"/>
<rect x="-456.6" y="827.1" transform="matrix(-0.5725 0.8199 -0.8199 -0.5725 -8.184 1719.7542)" class="st0" width="8.3" height="61.2"/>
<rect x="-456.6" y="874.3" transform="matrix(-0.5725 0.8199 -0.8199 -0.5725 30.4976 1793.9813)" class="st0" width="8.3" height="61.2"/>
<rect x="-456.7" y="920.7" transform="matrix(-0.5725 0.8199 -0.8199 -0.5725 68.3956 1866.9778)" class="st0" width="8.3" height="61.2"/>
<rect x="-483.9" y="925.8" class="st0" width="58.1" height="8.3"/>
<rect x="-483.9" y="967.4" class="st0" width="58.1" height="8.3"/>
<rect x="-483.9" y="831.4" class="st0" width="58.1" height="8.3"/>
<rect x="-478.5" y="879.1" class="st0" width="55.9" height="10.4"/>
<rect x="-481" y="929.9" class="st0" width="58.1" height="8.3"/>
<rect x="-476.4" y="830.7" class="st0" width="53.6" height="9"/>
<rect x="-718.9" y="789.2" class="st0" width="8.3" height="190"/>
<rect x="-605.4" y="789.2" class="st0" width="8.3" height="17.8"/>
<rect x="-484.6" y="789.2" class="st0" width="8.3" height="190"/>
<rect x="-429.1" y="789.2" class="st0" width="8.3" height="190"/>
<rect x="-656" y="572.5" class="st2" width="7.2" height="18.8"/>
<rect x="-553.2" y="572.5" class="st2" width="7.2" height="18.8"/>
<rect x="-458.2" y="572.5" class="st2" width="7.2" height="18.8"/>
<path class="st3" d="M-735.2,598h-14.6c-2.4,0-4.1-2.2-3.6-4.5l1.3-5.6c0.4-1.7,1.9-2.9,3.6-2.9h12.4c1.8,0,3.3,1.3,3.6,3l1,5.6
	C-731.1,595.9-732.9,598-735.2,598z"/>
<path class="st2" d="M-742.6,591.3L-742.6,591.3c-2,0-3.6-1.6-3.6-3.6v-15.2h7.2v15.3C-739.1,589.7-740.7,591.3-742.6,591.3z"/>
<path class="st3" d="M-645.2,598h-14.7c-2.4,0-4.1-2.2-3.6-4.5l1.3-5.6c0.4-1.7,1.9-2.9,3.6-2.9h12.4c1.8,0,3.3,1.3,3.6,3l1,5.6
	C-641.2,595.9-642.9,598-645.2,598z"/>
<path class="st2" d="M-652.7,591.3L-652.7,591.3c-2,0-3.6-1.6-3.6-3.6v-15.2h7.2v15.3C-649.1,589.7-650.7,591.3-652.7,591.3z"/>
<path class="st3" d="M-542.2,598h-14.7c-2.4,0-4.1-2.2-3.6-4.5l1.3-5.6c0.4-1.7,1.9-2.9,3.6-2.9h12.4c1.8,0,3.3,1.3,3.6,3l1,5.6
	C-538.1,595.9-539.9,598-542.2,598z"/>
<path class="st2" d="M-549.6,591.3L-549.6,591.3c-2,0-3.6-1.6-3.6-3.6v-15.2h7.2v15.3C-546.1,589.7-547.7,591.3-549.6,591.3z"/>
<path class="st3" d="M-447.3,598H-462c-2.4,0-4.1-2.2-3.6-4.5l1.3-5.6c0.4-1.7,1.9-2.9,3.6-2.9h12.4c1.8,0,3.3,1.3,3.6,3l1,5.6
	C-443.3,595.9-445,598-447.3,598z"/>
<path class="st2" d="M-454.8,591.3L-454.8,591.3c-2,0-3.6-1.6-3.6-3.6v-15.2h7.2v15.3C-451.2,589.7-452.8,591.3-454.8,591.3z"/>
<g>
	<g>
		<g id="KRyJ1s.tif_15_">
			<g>
				<path class="st4" d="M-652.5,613.4c0.7,0.2,1.4,0.5,2,0.8c1.5,0.8,2.4,2.2,2.5,4c0.1,1.7-0.2,3.2-0.9,4.7
					c-0.6,1.1-1.2,2-1.9,3.1c-0.7,0.9-1.7,1.5-2.8,1.7c-1.2,0.1-2-0.5-2.1-1.7c-0.1-0.9,0-1.8,0.5-2.6c0.7-1.4,1.7-2.7,3.3-3.1
					c0.4-0.1,0.6-0.1,0.9-0.1c0.5,0,0.6-0.2,0.7-0.6c0.5-1.7-0.5-3-2.2-3c-0.8,0-1.8,0.2-2.6,0.5c-3.4,1.2-6.5,3.2-9.1,5.7
					c-8.5,7.9-15.4,17-20.2,27.7c-1.7,3.8-3,7.7-3.7,11.7c-0.5,2.8-0.5,5.7,0.1,8.5c0.8,3.5,3.1,5.9,6.4,7.5
					c2.7,1.2,5.6,1.5,8.4,1.3c4.7-0.4,9.3-1.7,14-2.7c5.3-1.3,10.5-2.6,15.7-3.8c5-1.1,10.1-1.7,15.1-1.4c5.9,0.4,11.2,2,16.1,5.6
					c2.7,1.9,5.3,3.9,7.7,6.3c0.4,0.5,0.7,0.8,1.1,1.4c-0.1-0.1-0.2-0.1-0.5-0.2c-4.7-3.1-9.9-4.9-15.7-4.7c-2.5,0-4.7,0.4-6.7,2
					c-0.9,0.8-1.8,1.8-2.7,2.7c0.1,0.1,0,0,0,0c-2.1-3.7-5.4-5.8-9.6-6.7c-2.8-0.7-5.8-0.8-8.8-0.6c-5.2,0.4-10.2,1.7-15.1,3
					c-4.6,1.2-9.3,2.1-14,3.1c-3.7,0.7-7.5,0.7-11-0.6c-5.4-2-8.8-5.8-9.9-11.5c-0.2-1.1-0.4-2.2-0.5-3.3c0-0.1-0.1-0.4-0.1-0.5
					c0-0.9,0-2,0-3c0.1-0.8,0.1-1.5,0.2-2.4c0.6-4.4,1.8-8.6,3.5-12.7c3.5-8,8.5-15.1,14.7-21.3c4-4,8.3-7.7,13.3-10.4
					c2.7-1.5,5.7-2.8,8.8-3.5c0.9-0.2,2-0.4,3-0.5C-653.9,613.4-653.2,613.4-652.5,613.4z"/>
				<path class="st4" d="M-649.1,644.1c0.5-0.1,0.8-0.1,1.1-0.2c1.1-0.5,2.1-1.1,3.1-1.7c2-1.3,3.8-3.1,5.4-4.9
					c1.8-1.9,3.7-3.4,5.8-4.9c1.9-1.2,3.8-2,6-1.9c2.8,0.1,4.9,2.5,4.4,5.3c-0.4,2.2-1.3,4.3-2.8,6c-0.6,0.6-1.2,1.1-2,1.4
					c-1.3,0.6-2.5-0.4-2.5-1.7c-0.1-2.4,2.1-4.9,4.6-5.1c0.1,0,0.4-0.1,0.5-0.2c0.5-0.9,0.2-2.4-1.3-2.4c-1.3,0-2.2,0.6-3.2,1.3
					c-1.8,1.4-3.4,3.1-5,5c-3.4,4.3-6,9-7.8,14.1c-0.5,1.3-0.6,2.6-0.4,3.9c0.4,2.1,1.9,3.1,3.9,2.6c1.8-0.5,3.3-1.5,4.6-2.7
					c3-2.7,5.4-5.8,7.9-9c2.2-3,4.4-6,6.7-8.9c2.2-2.8,4.7-5.3,7.7-7.3c1.4-0.9,2.8-1.8,4.5-2.1c1.9-0.4,3.3,0.2,4.5,1.8
					c0.1,0.1,0.1,0.2,0.2,0.4c0.1-0.1,0.1-0.1,0.1-0.2c0.4-0.9,1.1-1.2,2-1.1c1.7,0.1,3.2,0,4.9,0c0.1,0,0.4,0,0.6,0
					c-0.2,0.4-0.4,0.6-0.5,0.8c-4.6,8-9.3,16.2-14,24.3c-0.2,0.5-0.5,0.9-0.5,1.5c-0.1,0.7,0.5,1.1,1.1,0.8c0.5-0.2,1.1-0.5,1.4-0.8
					c1.8-1.3,3.2-2.8,4.5-4.5c1.3-1.5,2.5-3.1,3.5-4.6c0.4-0.4,0.6-0.6,1.1-0.5c0.5,0,1.1,0,1.5,0c-0.1,0.1-0.1,0.2-0.1,0.4
					c-2.8,4.3-5.9,8.4-9.6,12c-1.9,1.8-3.8,3.5-6.2,4.6c-1.1,0.5-2.1,0.8-3.3,0.6c-1.2-0.2-2.1-1.4-2.2-2.6c-0.1-0.8,0-1.7-0.1-2.7
					c-0.1,0.1-0.2,0.4-0.4,0.5c-1.3,1.4-2.6,2.6-4.3,3.5c-1.1,0.7-2.2,1.2-3.5,1.3c-2.6,0.2-4.4-1.3-4.5-3.9c-0.1-1.5,0.4-3,0.7-4.5
					c0-0.2,0.1-0.4,0-0.6c-0.1,0.1-0.4,0.4-0.5,0.5c-2.1,1.9-4.1,3.8-6.4,5.7c-1.8,1.4-3.9,2.5-6.2,2.8c-1.2,0.2-2.4,0.2-3.5-0.1
					c-2.5-0.8-3.5-2.7-4-5.2c-0.7-3.2,0.2-6.3,1.5-9.1c0.8-1.7,1.7-3.3,2.5-5.1c0.1-0.1,0.2-0.4,0.4-0.6c-0.9,0.2-1.7,0.5-2.5,0.6
					c-0.7,0.1-1.2,0.5-1.5,1.1c-1.7,2.7-3.2,5.4-5.1,7.9c-2.5,3.4-5.4,6.4-9,8.8c-1.4,0.9-3,1.7-4.9,1.9c-1.9,0.2-3.8-0.8-4.5-2.7
					c-0.6-1.5-0.7-3.1-0.6-4.7c0.5-4.7,2.4-8.9,4.9-12.8c3-4.7,6.6-9,11.2-12.2c1.9-1.3,3.9-2.5,6.2-3c3.5-0.6,5.8,1.2,5.8,4.9
					c0,2-0.5,3.8-1.2,5.7C-648.4,642.2-648.7,643.2-649.1,644.1z M-622.8,658c0.1,0.6,0.2,1.1,0.7,1.3c0.5,0.2,0.9,0.2,1.4,0
					c1.2-0.7,2.2-1.5,3.1-2.6c1.2-1.5,2.4-3.1,3.3-4.7c3.2-5.4,6.4-10.9,9.5-16.3c0.4-0.6,0.1-1.1-0.5-1.4c-0.6-0.2-1.1-0.1-1.7,0.1
					c-1.1,0.5-2.1,1.2-2.8,2.1c-2.2,2.8-4.5,5.6-6.6,8.4c-2.4,3.2-4.3,6.5-5.7,10.3C-622.3,656.1-622.6,657-622.8,658z
					 M-659.3,641.6c-0.1,0.1-0.2,0.2-0.4,0.4c-1.1,1.7-2.2,3.3-3.2,5c-1.4,2.5-2.7,5-3.3,7.7c-0.2,0.8-0.2,1.7-0.1,2.5
					c0.1,1.5,1.2,2.2,2.7,1.9c0.4-0.1,0.7-0.2,1.1-0.5c1.4-0.8,2.5-1.9,3.5-3.1c2.2-2.5,4-5.4,5.7-8.3c0.1-0.2,0.1-0.5,0.2-0.7
					C-655.6,645.7-657.8,644.2-659.3,641.6z M-649.3,637c0-0.2,0-0.5,0-0.7c-0.4-1.9-1.2-2.7-3.2-2.1c-0.4,0.1-0.7,0.2-0.9,0.5
					c-1.4,0.9-2.5,2.1-3.1,3.7c-0.5,1.3-0.5,2.6,0.5,3.8c1.1,1.3,2.4,2,4,2.1c0.4,0,0.5-0.1,0.6-0.4c0.4-0.9,0.8-1.8,1.2-2.7
					C-649.8,639.9-649.3,638.5-649.3,637z"/>
			</g>
		</g>
		<g id="KRyJ1s.tif_14_">
			<g>
				<path class="st4" d="M-504,627c0.5-0.9,0.9-1.9,1.4-2.8c0.5-0.9,0.8-2,0.8-3.1c0-0.8-0.4-1.1-1.1-0.8c-0.7,0.4-1.4,0.7-2,1.2
					c-2.7,2.1-5.2,4.5-7.5,7.1c-4.7,5.3-8.8,11.2-12.5,17.4c-2.4,3.8-4.5,7.8-6.6,11.7c-0.2,0.4-0.4,0.7-0.5,1.2
					c0.2-0.1,0.6-0.2,0.8-0.5c1.4-1.2,3-2.2,4.3-3.4c6-5.4,11.6-11.4,16.6-17.9c0.5-0.6,0.9-1.1,1.8-1.1c0.4,0,0.7-0.1,1.2-0.1
					c-0.2,0.5-0.5,0.8-0.7,1.2c-3.2,4.5-6.9,8.6-10.6,12.7c-4.6,4.9-9.6,9.3-15.1,13.1c-0.1,0.1-0.4,0.2-0.4,0.5
					c-1.7,3.7-3.2,7.5-4,11.5c-0.1,0.8-0.1,1.7,0,2.4c0.2,1.2,1.3,1.7,2.2,0.9c1.1-0.8,2-1.7,2.7-2.7c1.5-2,2.8-4,4.3-6.2
					c2.4-3.5,4.6-7.1,7.3-10.3c2.5-3,5.2-5.7,8.6-7.7c1.4-0.8,3.1-1.3,4.7-0.9c1.1,0.2,1.8,0.9,2.4,1.8c0.1,0.2,0.4,0.4,0.5,0.6
					c0.2-0.5,0.6-0.9,0.8-1.4c0.1-0.1,0.4-0.4,0.5-0.4c2,0,4.1,0,6.2,0c0,0,0.1,0,0.2,0c-0.1,0.2-0.1,0.4-0.2,0.5
					c-3.2,5.6-6.3,11.1-9.5,16.8c-1.2,2.1-2.5,4.3-3.7,6.5c-0.4,0.6-0.6,1.2-0.8,1.9c-0.1,0.4-0.2,0.8,0.1,1.2
					c0.4,0.4,0.8,0.1,1.2-0.1c1.8-1.1,3.3-2.6,4.6-4.3c1.5-2,3-4.1,4.5-6.2c0.2-0.2,0.4-0.5,0.7-0.5c0.6,0,1.1,0,1.7,0
					c-0.2,0.4-0.5,0.7-0.6,1.1c-2.6,4-5.4,7.9-8.8,11.4c-1.9,2-4.1,3.5-6.6,4.6c-0.6,0.2-1.4,0.4-2.1,0.4c-1.3,0-2.2-0.7-2.6-2
					c-0.2-0.9-0.1-1.9-0.2-2.7c0-0.2,0-0.4,0.1-0.6c0,0-0.1,0-0.1-0.1c-0.4,0.4-0.7,0.7-1.1,1.2c-1.5,1.4-3.2,2.8-5.1,3.7
					c-0.9,0.5-1.9,0.7-3,0.5c-1.8-0.2-3-1.5-3.2-3.5c-0.1-0.8,0-1.7,0-2.5c0-0.2,0-0.5,0-0.8c-0.2,0.2-0.4,0.5-0.5,0.6
					c-1.5,1.8-3.1,3.4-5,4.7c-0.8,0.6-1.7,1.1-2.6,1.3c-2,0.7-3.8-0.1-4.9-2c-0.6-1.1-0.7-2.2-0.7-3.4c0.1-2.7,0.8-5.3,1.7-7.8
					c0.5-1.5,1.1-3.1,1.5-4.7c-0.4,0-0.6,0.1-0.8,0.1c-0.8,0.1-1.7,0.2-2.5,0.2c-0.5,0-0.6,0.2-0.8,0.6c-1.7,2.6-3.2,5.2-5,7.7
					c-2.4,3.3-5.3,6.3-8.9,8.4c-1.2,0.7-2.5,1.2-3.8,1.3c-2.6,0.2-4-1.5-4.4-3.3c-0.5-1.9-0.2-3.8,0.1-5.6c0.9-4,2.6-7.6,4.9-11
					c2.4-3.7,5-7.1,8.4-10.1c2-1.8,4.1-3.2,6.7-4c0.9-0.4,1.9-0.4,3-0.4c2,0.2,3,1.7,3.2,3c0.5,2,0.1,4-0.5,6
					c-0.6,1.5-1.2,3.1-1.9,4.6c-0.1,0.1-0.1,0.4-0.2,0.6c1.3,0.1,2.5-0.2,3.5-0.8c0.1-0.1,0.2-0.4,0.4-0.5c3.4-7,7.1-13.7,11.5-20.2
					c5.3-7.9,11.6-15,18.9-21.2c1.8-1.4,3.7-2.7,5.7-3.7c1.1-0.5,2.1-0.7,3.3-0.7c1.4,0.1,2.1,0.8,2.2,2.2c0.1,1.8-0.4,3.4-1.1,5
					c-0.8,1.8-0.9,1.8-2.8,2.1C-503.8,627.1-503.8,627-504,627z M-524.1,677.1c0,0.6,0.7,1.2,1.8,0.8c0.5-0.1,0.9-0.5,1.3-0.8
					c1.3-0.9,2.2-2.4,3.2-3.7c2.6-3.5,4.7-7.5,6.9-11.2c1.3-2.2,2.6-4.4,3.9-6.6c0.2-0.5,0.4-0.9,0-1.4c-0.4-0.5-0.9-0.6-1.4-0.4
					c-0.6,0.2-1.2,0.5-1.8,0.9c-0.7,0.5-1.4,1.1-2,1.8c-4.5,4.6-8,9.9-10.8,15.9C-523.7,673.7-524.1,675.1-524.1,677.1z
					 M-554.3,661.1c-0.9,1.4-1.9,2.8-2.8,4.1c-1.5,2.5-3,5.1-3.8,7.9c-0.2,0.9-0.5,2-0.2,3.1c0.2,1.3,1.2,2,2.5,1.7
					c1.2-0.2,2.2-1.1,3.1-1.9c2.8-2.6,5-5.8,6.6-9.1c0.1-0.2,0.1-0.4,0.2-0.6C-551.1,665.1-553.1,663.7-554.3,661.1z M-544.8,656.2
					c0-0.4,0-0.6,0-0.9c-0.1-1.3-0.8-2-1.9-2c-0.5,0-0.9,0.1-1.4,0.4c-1.2,0.6-2.2,1.4-3.1,2.6c-2,3.2-0.1,6.7,3.2,7.9
					c0.1,0,0.5-0.1,0.6-0.2c0.4-0.6,0.7-1.2,0.9-1.8C-545.7,660.2-544.8,658.3-544.8,656.2z"/>
				<path class="st4" d="M-517.6,626.3c-1.7,1.8-3.2,3.4-4.9,5.2c-0.1,0.1-0.5,0.1-0.6,0c-1.1-0.6-2-1.2-3.1-1.8
					c-3.1-1.9-6.2-4-9.2-5.8c-2.4-1.4-5.1-2.5-7.8-2.8c-0.9-0.1-1.8-0.1-2.7,0.2c-0.2,0.1-0.4,0.2-0.4,0.6c0.2,3.2-0.6,6.3-1.8,9.2
					c-1.7,4.1-4.1,7.7-7.5,10.6c-1.4,1.3-3,2.1-4.7,2.7c-2.5,0.7-4.4-0.5-4.7-3.1c-0.2-1.7,0.2-3.2,0.8-4.7c2-5.1,5.2-9.2,9.5-12.8
					c1.4-1.2,3.1-2.2,4.6-3.4c0.1-0.1,0.2-0.1,0.4-0.2c-0.9-0.4-1.9-0.4-2.8-0.2c-1.3,0.2-2.6,0.8-3.8,1.4
					c-4.6,2.5-8.5,5.7-12.1,9.5c-6.5,6.9-12.2,14.4-16.7,22.8c-2.5,4.6-4.4,9.5-5.3,14.7c-0.4,2.1-0.7,4.3-0.1,6.4
					c0.6,2.2,1.9,3.9,4.1,4.6c1.4,0.4,2.8,0.1,4.1-0.5c2.4-1.1,4.4-2.6,6.2-4.5c3.4-3.7,6.3-7.8,7.8-12.7c0.6-1.8,1.1-3.7,0.9-5.7
					c-0.1-1.9-1.2-2.6-3-1.9c-1.3,0.5-2.1,1.5-3,2.5c-1.8,2.4-3,5-3.5,7.8c0,0.2-0.2,0.5-0.4,0.6c-3.1,1.5-5.8,3.7-8.2,6.2
					c-0.1,0.1-0.1,0.1-0.4,0.4c0.7-5.8,2.5-11.1,6.2-15.5c2.2-2.6,4.9-4.5,8.3-5.3c0.8-0.2,1.8-0.4,2.7-0.1c1.5,0.4,2.5,1.4,2.8,2.8
					c0.6,1.9,0.5,3.8,0.1,5.7c-0.8,4.5-2.8,8.4-5.3,12.1c-3.1,4.7-7,8.6-11.8,11.6c-2.1,1.2-4.4,1.9-6.7,2c-3.9,0.1-6.7-1.7-8.6-4.9
					c-1.7-2.8-2-5.9-1.8-9.1c0.4-5,2-9.6,4.1-14.1c5.8-12.1,13.8-22.5,24.3-31c4.5-3.7,9.5-6.4,15-8c2-0.6,4-0.7,6.2-0.2
					c0.9,0.2,1.8,0.7,2.4,1.4c0.2,0.2,0.5,0.2,0.7,0.1c1.7-0.5,3.3-1.2,5-1.4c4.1-0.8,8.2-0.2,11.8,1.8
					C-526,621.3-522,623.8-517.6,626.3C-517.7,626.1-517.7,626.3-517.6,626.3z M-548.4,622c-0.6,0.4-0.9,0.5-1.4,0.8
					c-5.3,3.2-9.2,7.8-12.1,13.3c-0.6,1.3-1.2,2.5-1.3,3.9c-0.2,1.8,1.2,2.8,2.8,2.1c0.7-0.4,1.3-0.7,1.9-1.2
					c5.8-4.5,9.1-10.3,9.9-17.5C-548.3,623-548.4,622.5-548.4,622z"/>
				<path class="st4" d="M-485.2,617.2c-0.9,1.9-2,3.8-3.4,5.4c-4.3,5.3-9.5,9.3-16.1,11.4c-3.3,1.1-6.7,1.4-10.2,0.7
					c-0.1,0-0.1,0-0.2,0c-0.1,0-0.4-0.1-0.6-0.1c0.1-0.1,0.2-0.4,0.4-0.5c1.4-1.7,2.8-3.4,4.1-5.1c0.1-0.1,0.4-0.4,0.6-0.4
					c3.9,0.4,7.7-0.4,11.4-1.9c5.2-2.1,9.7-5.4,13.6-9.5C-485.3,617.4-485.3,617.3-485.2,617.2z"/>
			</g>
		</g>
		<path class="st4" d="M-582.7,631.4c-0.6,0.8-1.2,1.5-1.8,2.2c-0.6,0.8-1.2,1.7-1.9,2.5c-0.1,0.1-0.3,0.2-0.6,0.2
			c-2.1,0-4.3,0-6.4,0h-0.1c0.1-0.1,0.1-0.1,0.1-0.2c1.2-1.5,2.4-3,3.5-4.5c0.1-0.1,0.3-0.2,0.5-0.2
			C-587.2,631.4-585,631.4-582.7,631.4z"/>
	</g>
</g>
<path class="st5" d="M-460.1,735.2c-44.7,8.2-89.6,15.1-135.8,15.9c-37.3,0.7-74-2.3-110.1-10.1c-36.1-7.8-69.2-21-100.5-37.1
	c-0.5-0.3-0.6-0.6-1.4-0.9l-0.5,41c1.7,0.5,3.5,0.9,5,1.4c38.5,13.3,78.9,18.5,120.6,17.8c27-0.4,53.9-3,80.6-6.1
	c44-5.1,87.6-12.1,132-14.6c21-1.2,41.9-1.3,62.8,1.7c6.2,0.9,12.5,2,18.4,3c0.1-6.3,0.1-12.6,0.2-18.9
	C-413.1,727.3-436.6,730.9-460.1,735.2z"/>
<g>
	<path class="st5" d="M-646.3,703.6h8.4l3.1,9.7l3.1-9.7h8.3l-7.8,19.4h-7.3L-646.3,703.6z"/>
	<path class="st5" d="M-622.2,697.1h8.3v5.1h-8.3V697.1z M-622.1,703.6h8v19.3h-8V703.6z"/>
	<path class="st5" d="M-612.8,703.6h8.4l3.1,9.7l3.1-9.7h8.3l-7.8,19.4h-7.3L-612.8,703.6z"/>
	<path class="st5" d="M-590.5,713.4L-590.5,713.4c0-5.8,4.1-10.2,9.9-10.2c6.9,0,10,4.8,10,10.6c0,0.4,0,0.9,0,1.3H-583
		c0.6,1.7,1.9,2.6,3.6,2.6c1.4,0,2.6-0.7,3.9-2l4.3,3.4c-1.9,2.5-4.6,4.2-8.8,4.2C-586.2,723.4-590.5,719.4-590.5,713.4z
		 M-577.8,711.6c-0.2-1.8-1.3-2.9-2.7-2.9c-1.3,0-2.3,1.1-2.5,2.9H-577.8z"/>
	<path class="st5" d="M-568.7,697.1h8v25.8h-8V697.1z"/>
	<path class="st5" d="M-558.9,717.4L-558.9,717.4c0-3.9,2.9-6.1,7.3-6.1c1.6,0,3.7,0.4,4.6,0.7v-0.3c0-1.8-1.1-2.8-3.6-2.8
		c-2,0-3.6,0.4-5.3,1.1l-1.4-5.3c2.2-0.8,4.8-1.4,8.1-1.4c3.9,0,6.5,0.8,8.2,2.5c1.4,1.4,2,3.3,2,6.1v11h-8V721
		c-1.3,1.4-3.1,2.4-5.5,2.4C-556.3,723.4-558.9,721.3-558.9,717.4z M-546.9,715.8V715c-0.5-0.2-1.2-0.3-1.8-0.3
		c-1.6,0-2.5,1-2.5,2.2v0.1c0,1.1,0.8,1.9,1.8,1.9C-548,718.8-546.9,717.6-546.9,715.8z"/>
</g>
<rect x="-504.1" y="770.1" class="st6" width="121" height="16"/>
<g class="st7">
	<path class="st8" d="M-527.9,775.4l0.9-1.1c1.3,1.2,2.6,1.8,4.3,1.8c1.7,0,2.8-0.9,2.8-2.2v0c0-1.2-0.6-1.8-3.3-2.4
		c-2.9-0.6-4.3-1.6-4.3-3.7v0c0-2,1.8-3.5,4.2-3.5c1.8,0,3.2,0.5,4.5,1.6l-0.8,1.1c-1.2-1-2.4-1.4-3.7-1.4c-1.6,0-2.7,0.9-2.7,2v0
		c0,1.2,0.7,1.9,3.4,2.5c2.8,0.6,4.1,1.6,4.1,3.6v0c0,2.2-1.8,3.6-4.3,3.6C-524.8,777.5-526.4,776.8-527.9,775.4z"/>
	<path class="st8" d="M-515.5,764.6h1.4V776h7.1v1.3h-8.6V764.6z"/>
	<path class="st8" d="M-505.6,771L-505.6,771c0-3.5,2.6-6.6,6.5-6.6c3.9,0,6.5,3,6.5,6.5c0,0,0,0,0,0c0,3.5-2.6,6.6-6.5,6.6
		C-503,777.5-505.6,774.5-505.6,771z M-494.1,771L-494.1,771c0-2.9-2.1-5.3-5-5.3c-2.9,0-5,2.3-5,5.2v0c0,2.9,2.1,5.2,5,5.2
		C-496.2,776.2-494.1,773.9-494.1,771z"/>
	<path class="st8" d="M-490.2,771L-490.2,771c0-3.5,2.6-6.6,6.4-6.6c2.1,0,3.5,0.6,4.7,1.7l-0.9,1.1c-1-0.9-2.1-1.4-3.9-1.4
		c-2.8,0-4.8,2.4-4.8,5.2v0c0,3,1.9,5.3,5,5.3c1.4,0,2.8-0.6,3.7-1.3v-3.2h-3.9v-1.3h5.2v5.1c-1.2,1.1-3,1.9-5.1,1.9
		C-487.7,777.5-490.2,774.6-490.2,771z"/>
	<path class="st8" d="M-470.7,764.5h1.3l5.8,12.8h-1.5l-1.5-3.4h-6.9l-1.5,3.4h-1.5L-470.7,764.5z M-467.2,772.7l-2.9-6.5l-2.9,6.5
		H-467.2z"/>
	<path class="st8" d="M-461.1,764.6h1.3l8,10.2v-10.2h1.4v12.7h-1.1l-8.2-10.4v10.4h-1.4V764.6z"/>
	<path class="st8" d="M-439.9,766l-2.4,0.7l-0.3-1.2l3.1-1.1h1.1v12.8h-1.4V766z"/>
	<path class="st8" d="M-435.3,776l0.8-1.1c1,0.9,2,1.4,3.1,1.4c2.3,0,3.8-2.3,3.8-5.6c-0.7,1.1-1.8,2-3.6,2c-2.6,0-4.4-1.6-4.4-3.9
		v0c0-2.4,1.9-4.3,4.6-4.3c1.4,0,2.5,0.5,3.3,1.3c1,1,1.6,2.4,1.6,4.9v0c0,4-2.1,6.9-5.3,6.9C-433,777.5-434.2,776.8-435.3,776z
		 M-427.8,768.6L-427.8,768.6c0-1.6-1.3-2.9-3.2-2.9s-3,1.4-3,3v0c0,1.6,1.3,2.8,3.1,2.8C-429,771.4-427.8,770-427.8,768.6z"/>
	<path class="st8" d="M-423.5,776l0.8-1.1c1,0.9,2,1.4,3.1,1.4c2.3,0,3.8-2.3,3.8-5.6c-0.7,1.1-1.8,2-3.6,2c-2.6,0-4.4-1.6-4.4-3.9
		v0c0-2.4,1.9-4.3,4.6-4.3c1.4,0,2.5,0.5,3.3,1.3c1,1,1.6,2.4,1.6,4.9v0c0,4-2.1,6.9-5.3,6.9C-421.3,777.5-422.5,776.8-423.5,776z
		 M-416.1,768.6L-416.1,768.6c0-1.6-1.3-2.9-3.2-2.9s-3,1.4-3,3v0c0,1.6,1.3,2.8,3.1,2.8C-417.3,771.4-416.1,770-416.1,768.6z"/>
	<path class="st8" d="M-411.8,776l0.8-1.1c1,0.9,2,1.4,3.1,1.4c2.3,0,3.8-2.3,3.8-5.6c-0.7,1.1-1.8,2-3.6,2c-2.6,0-4.4-1.6-4.4-3.9
		v0c0-2.4,1.9-4.3,4.6-4.3c1.4,0,2.5,0.5,3.3,1.3c1,1,1.6,2.4,1.6,4.9v0c0,4-2.1,6.9-5.3,6.9C-409.6,777.5-410.7,776.8-411.8,776z
		 M-404.4,768.6L-404.4,768.6c0-1.6-1.3-2.9-3.2-2.9s-3,1.4-3,3v0c0,1.6,1.3,2.8,3.1,2.8C-405.6,771.4-404.4,770-404.4,768.6z"/>
</g>
</svg>
