<?xml version="1.0" encoding="utf-8"?>
<!-- Generator: Adobe Illustrator 18.0.0, SVG Export Plug-In . SVG Version: 6.00 Build 0)  -->
<!DOCTYPE svg PUBLIC "-//W3C//DTD SVG 1.1//EN" "http://www.w3.org/Graphics/SVG/1.1/DTD/svg11.dtd">
<svg version="1.1" id="Layer_1" xmlns="http://www.w3.org/2000/svg" xmlns:xlink="http://www.w3.org/1999/xlink" x="0px" y="0px"
	 viewBox="0 0 431.7 406.8" enable-background="new 0 0 431.7 406.8" xml:space="preserve">
<rect x="202.4" y="207.5" fill="#3D3E3F" width="36.2" height="199.3"/>
<rect x="16.7" y="193.9" fill="#111416" width="405" height="22.7"/>
<rect x="37.6" y="193.9" fill="#848688" width="3.2" height="22.6"/>
<rect x="70.2" y="193.9" fill="#848688" width="3.2" height="22.6"/>
<rect x="104.8" y="193.9" fill="#848688" width="3.2" height="22.6"/>
<rect x="137.4" y="193.9" fill="#848688" width="3.2" height="22.6"/>
<rect x="170.1" y="193.9" fill="#848688" width="3.2" height="22.6"/>
<rect x="202.7" y="193.9" fill="#848688" width="3.2" height="22.6"/>
<rect x="235.3" y="193.9" fill="#848688" width="3.2" height="22.6"/>
<rect x="267.9" y="193.9" fill="#848688" width="3.2" height="22.6"/>
<rect x="300.5" y="193.9" fill="#848688" width="3.2" height="22.6"/>
<rect x="333.1" y="193.9" fill="#848688" width="3.2" height="22.6"/>
<rect x="365.7" y="193.9" fill="#848688" width="3.2" height="22.6"/>
<rect x="398.4" y="193.9" fill="#848688" width="3.2" height="22.6"/>
<rect x="1" y="216.1" fill="#E1E1DE" width="429" height="5.9"/>
<rect x="29.2" y="211.1" fill="#3C3B3A" width="34.4" height="7.2"/>
<rect x="116.4" y="211.1" fill="#3C3B3A" width="34.4" height="7.2"/>
<rect x="201.5" y="211.1" fill="#3C3B3A" width="34.4" height="7.2"/>
<rect x="286.7" y="211.1" fill="#3C3B3A" width="34.4" height="7.2"/>
<rect x="371.9" y="211.1" fill="#3C3B3A" width="34.4" height="7.2"/>
<rect x="5.8" y="0" fill="#BA252B" width="425.9" height="203"/>
<g>
	<rect x="4.1" y="1" fill="#CD0014" width="427.5" height="201.5"/>
	<g>
		<path fill="#FFFFFF" d="M95.1,64.5c0,0.3-0.2,0.8-0.7,1.6c-1.4,2.2-2.6,5.9-3.6,11.1c-0.2,1.2-0.6,3.3-1.3,6.5
			c-2,8.3-5.8,14.8-11.5,19.4c-5.7,4.6-12.8,6.9-21.3,6.9c-4.2,0-7.6-0.6-10.2-1.9c-3.6-1.7-5.4-4.4-5.4-8.1c0-2.2,0.7-4,2.2-5.5
			c1.5-1.5,3.3-2.3,5.5-2.3c1.4,0,2.6,0.4,3.5,1.1c1,0.8,1.5,1.8,1.5,3.1c0,2-0.7,3.3-2.2,3.9c-1.3,0.3-2.6,0.6-4,0.9
			c-1.7,0.5-2.5,1.3-2.5,2.4c0,1.7,1.3,3,3.8,3.9c1.9,0.7,3.9,1.1,5.9,1.1c4.4,0,8.3-1.4,11.8-4.1c3.2-2.5,5.8-5.9,7.8-10.1
			c1.5-3.5,3.9-8.9,7.1-16c1.7-3.5,4-6.9,7.2-10.2c2.7-2.9,4.6-4.4,5.7-4.4C94.9,63.7,95.1,64,95.1,64.5z M62.8,86
			c-2.6,0-4.7-0.7-6.3-2.2c-1.7-1.4-2.5-3.4-2.5-5.9c0-2.2,0.7-4.6,2.2-7c3-5.1,7.3-9.1,12.9-12.2c5.6-3.1,11.4-4.6,17.3-4.6
			c2.3,0,5.6,0.5,9.9,1.5c4.3,1,7.4,1.5,9.3,1.5c1,0,2.8-0.5,5.5-1.6l0.4,0.1l0.1,0.4c0,1.6-1.1,3.1-3.4,4.6c-2.1,1.5-4,2.2-5.6,2.2
			c-1.7,0-5.2-0.9-10.4-2.8c-5.2-1.8-9.3-2.8-12.3-2.8c-6.5,0-12.7,3.1-18.7,9.4c-3.8,4-5.7,7.7-5.7,11.1c0,1.6,0.4,2.9,1.3,4
			c0.9,1.1,2.1,1.7,3.6,1.7c3.8,0,7.1-1.7,9.9-5.1c2.6-3.2,3.9-6.7,3.9-10.6c0-1.1-0.5-1.6-1.3-1.6c-1,0-2.1,1.2-3.3,3.5
			c-0.9,1.8-1.4,3.4-1.7,4.9c-1,0.5-2.2,1.2-3.6,2.1c-2.2,1.5-3.3,2.3-3.4,2.4c-0.1-0.3-0.2-0.7-0.3-1.1c0-3.9,1-7.3,3.1-10.3
			c2.3-3.4,5.3-5.1,8.9-5.1c3.3,0,4.9,2.2,4.9,6.6v0.7c0,4.3-1.4,8-4.2,11.2C70.6,84.4,67.1,86,62.8,86z"/>
		<path fill="#FFFFFF" d="M110.6,93.2c0,0.6-0.7,1-2.1,1.3c-1.1,0.3-2,0.4-2.8,0.4c-0.5,0-1,0-1.6,0c-1.8,3.4-3.9,6.4-6.4,9.2
			c-3.4,3.8-6.5,5.7-9.2,5.7c-3.7,0-5.6-1.7-5.6-5.1c0-4.2,2.1-8.8,6.2-14c4.3-5.4,8.5-8.1,12.6-8.1c3.2,0,4.8,1.5,4.8,4.5
			c0,1-0.5,2.9-1.6,5.8c0.5,0.1,0.9,0.2,1.3,0.2c0.4,0,0.9-0.1,1.7-0.2c0.8-0.1,1.3-0.2,1.7-0.2C110.3,92.7,110.6,92.9,110.6,93.2z
			 M102.1,94.5c-2.6-0.3-4.4-1.6-5.5-3.8c-0.8,0.9-2,3-3.5,6.1v-0.1c-0.1,0.5-0.5,1.5-1.1,3c-0.6,1.2-0.9,2.2-0.9,3.1
			c0,0.9,0.5,1.4,1.4,1.4C95.5,104.1,98.7,100.9,102.1,94.5z M104.6,87.5c0-1.6-0.6-2.3-1.8-2.3c-0.9,0-1.9,0.4-3,1.3
			c-1.1,0.9-1.6,1.7-1.6,2.6c0,0.9,0.5,1.8,1.5,2.6c1,0.8,1.9,1.2,2.9,1.2c0.1,0,0.2,0,0.4-0.1v-0.1c0.4,0,0.9-0.8,1.3-2.3
			C104.4,89.2,104.6,88.2,104.6,87.5z"/>
		<path fill="#FFFFFF" d="M152.3,99.9c-0.2,1-1.2,2.5-2.9,4.4c-1.8,2-3.2,3.2-4.3,3.8c-1.5,0.9-3.5,1.3-5.9,1.3
			c-3.2,0-4.8-1.5-4.8-4.5c0-0.9,1-3.4,3.1-7.5c2.1-4.1,3.1-7.3,3.1-9.7v-0.9l-0.1,0.1c-0.1-0.8-0.4-1.2-1.1-1.2
			c-0.7,0-2,0.9-3.8,2.8c-1.3,1.3-2.4,2.6-3.3,3.8c-0.5,0.7-1.6,3.2-3.3,7.5c-1.7,4.4-2.5,6.9-2.5,7.6c0,0.8,0.6,1.5,1.8,2.1
			l-8.7,0.6c-0.1-0.2-0.2-0.6-0.2-1c0-2,1.2-5.4,3.5-10.3c2.3-4.9,3.5-8.5,3.5-11l0.1-0.9l-0.1,0.1c-0.1-0.8-0.5-1.2-1.1-1.2
			c-1.4,0-3.6,2.1-6.8,6.2c-1.5,2-2.9,4.8-4.2,8.6c-1.7,4.9-2.8,7.9-3.4,8.9l-8.9,0.6l7-14.8c0.4-0.7,0.9-1.8,1.7-3.2
			c0.8-1.4,1.1-2.4,1.1-3c0-0.8-0.2-1.1-0.6-1.1c-0.2,0-0.9,0.7-2.2,2.1c-1.3,1.4-2,2.1-2.4,2.1c0,0-0.1-0.1-0.3-0.1l-0.1-0.2
			c0.1-0.9,1.4-2.7,4-5.5c2.6-2.8,4.3-4.2,5.1-4.2c2.1,0,3.2,1.8,3.2,5.5c0,0.4,0.1,0.6,0.4,0.6c-0.1,0,1.1-0.8,3.5-2.3
			c2.4-1.5,4.4-2.3,5.8-2.3c3.2,0,4.8,1.6,4.8,4.9c1.3-0.9,2.7-2,4.4-3.2c1.9-1.1,3.6-1.7,5-1.7c3.1,0,4.7,1.6,4.7,4.8
			c0,2-1,5.1-3,9.1c-2,4-3,6.3-3,6.6c0,0.2,0.3,0.6,0.9,1c2.5,0,4.8-0.9,6.9-2.6c0.7-0.5,1.7-1.4,3.1-2.6L152.3,99.9z"/>
		<path fill="#FFFFFF" d="M181.4,82.5c-0.7,2.7-2.4,6.2-5.2,10.4c-3,4.6-4.9,7.9-5.7,10.1l0.6,0.4c1.9-0.6,3.6-2,5.1-4.2
			c1.5-2.2,2.4-3.4,2.7-3.5h0.3c0.2,0.2,0.3,0.5,0.3,0.8c0,1.9-1.7,4.6-5,8c-3.3,3.4-5.9,5.1-7.9,5.1c-1.5,0-2.6-0.4-3.1-1.1
			c-0.1-0.2-0.5-1.2-1.2-3.1c-1.6,2.8-3.8,4.3-6.6,4.3c-1.3,0-2.4-0.5-3.3-1.6c-0.9-1.1-1.4-2.3-1.4-3.5c0-3.6,2.4-8.2,7.2-13.7
			c4.8-5.6,9-8.3,12.5-8.3c0.4,0,1.1,0.2,2,0.7c0.9,0.5,1.6,0.8,2.1,0.8c0.3-0.1,0.4-0.5,0.5-0.9c0.5-0.4,1.5-0.6,3-0.6
			C179.6,82.3,180.7,82.3,181.4,82.5z M173.3,85.8c-0.1-0.6-0.6-0.9-1.3-0.9c-0.7,0-1.4,0.3-2.1,0.9v-0.1c-2.3,1.9-4.5,4.5-6.7,7.6
			c-2.5,3.6-3.7,6.7-3.7,9.2c0,1,0.4,1.5,1.2,1.5c1.1,0,3.4-2.7,6.8-8C170.7,91.2,172.6,87.8,173.3,85.8z"/>
		<path fill="#FFFFFF" d="M229.7,58.5c0,1.7-0.5,3.4-1.6,5.3c-4.5,8-11.2,15.8-20,23.5c-1.5,1.3-3.8,3.2-6.8,5.7
			c-0.7,0.6-1.4,2.1-2.2,4.6c-0.7,2.3-1.1,4.1-1.1,5.3l0.8,1.7c0.2,0,0.3,0.1,0.4,0.1c1,0,2.4-1.1,4.3-3.3c1.9-2.2,3.1-3.3,3.7-3.3
			c0.2,0,0.4,0.1,0.4,0.4c0,0.6-1,2.1-3.1,4.5c-4.2,4.9-7.2,7.4-9.1,7.4c-1.2,0-2.2-0.4-2.9-1.3c-0.8-0.9-1.2-1.9-1.2-3.1
			c0-2.9,0.8-6.6,2.5-11.1c3-8.1,7.5-16.1,13.5-24c7.4-9.8,13.7-14.7,18.9-14.7C228.4,56.1,229.7,56.9,229.7,58.5z M227.5,59.8
			c-0.5-0.9-0.9-1.4-1.2-1.4c-3.2,0-7.8,4.5-14,13.4c-5.2,7.6-8.7,13.7-10.4,18.4c3.9-2.6,8.9-7.3,14.8-14
			C223.4,68.8,227,63.4,227.5,59.8z"/>
		<path fill="#FFFFFF" d="M232.9,93.2c0,0.6-0.7,1-2.1,1.3c-1.1,0.3-2,0.4-2.8,0.4c-0.5,0-1,0-1.6,0c-1.8,3.4-3.9,6.4-6.4,9.2
			c-3.4,3.8-6.5,5.7-9.2,5.7c-3.7,0-5.6-1.7-5.6-5.1c0-4.2,2.1-8.8,6.2-14c4.3-5.4,8.5-8.1,12.6-8.1c3.2,0,4.8,1.5,4.8,4.5
			c0,1-0.5,2.9-1.6,5.8c0.5,0.1,0.9,0.2,1.3,0.2c0.4,0,0.9-0.1,1.7-0.2c0.8-0.1,1.3-0.2,1.7-0.2C232.6,92.7,232.9,92.9,232.9,93.2z
			 M224.3,94.5c-2.6-0.3-4.4-1.6-5.5-3.8c-0.8,0.9-2,3-3.5,6.1v-0.1c-0.1,0.5-0.5,1.5-1.1,3c-0.6,1.2-0.9,2.2-0.9,3.1
			c0,0.9,0.5,1.4,1.4,1.4C217.8,104.1,221,100.9,224.3,94.5z M226.8,87.5c0-1.6-0.6-2.3-1.8-2.3c-0.9,0-1.9,0.4-3,1.3
			c-1.1,0.9-1.6,1.7-1.6,2.6c0,0.9,0.5,1.8,1.5,2.6c1,0.8,1.9,1.2,2.9,1.2c0.1,0,0.2,0,0.4-0.1v-0.1c0.4,0,0.9-0.8,1.3-2.3
			C226.7,89.2,226.8,88.2,226.8,87.5z"/>
		<path fill="#FFFFFF" d="M285.2,56.3c-0.6,0-1.1,0-1.4-0.1c-0.3,0-0.4-0.1-0.1-0.1c-1.7,0-4.1,0.3-7.1,1c-3.1,0.6-5.4,1.3-7,2
			c-3.5,1.6-7,4.1-10.4,7.6c-3.8,4-5.7,7.7-5.7,11.1c0,1.6,0.4,2.9,1.3,4c0.9,1.1,2.1,1.7,3.6,1.7c3.8,0,7.1-1.7,9.9-5.1
			c2.6-3.2,3.9-6.7,3.9-10.6c0-1.1-0.4-1.6-1.3-1.6c-1,0-2.1,1.2-3.3,3.5c-0.9,1.8-1.4,3.4-1.7,4.9c-3.2,1.9-5.6,3.4-7,4.5
			c-0.1-0.4-0.2-0.7-0.3-1.1c0-3.9,1-7.3,3.1-10.3c2.3-3.4,5.3-5.1,8.9-5.1c3.3,0,4.9,2.2,4.9,6.6v0.7c0,4.3-1.4,8-4.2,11.2
			c-2.8,3.2-6.3,4.8-10.6,4.8c-2.6,0-4.7-0.7-6.3-2.2c-1.7-1.4-2.5-3.4-2.5-5.9c0-2.2,0.7-4.5,2.2-7c2.9-5,7.3-9,13.1-11.9
			c5.4-2.8,11.2-4.2,17.2-4.2c5.1,0,9.7,1,13.8,3.1c3-0.9,4.7-1.3,5.3-1.3c0.2,0,0.4,0,0.6,0.1l0.2,0.4c-0.1,0.4-0.7,0.7-1.8,1.1
			c-0.5,0.1-1.3,0.3-2.3,0.5c4.4,2.2,6.7,5.5,6.7,9.8c0,3.6-1.7,6.8-5,9.5c-2.6,2.1-6,3.7-10.1,4.9c5.6,1.8,8.4,5.6,8.4,11.3
			c0,4.3-1.8,8.2-5.4,11.7c-3.6,3.6-7.5,5.4-11.8,5.4c-4.4,0-6.6-1.9-6.6-5.7c0-1.6,0.8-3.6,2.5-6.1c1.7-2.4,3.2-3.7,4.8-3.7
			c0.4,0,0.6,0.2,0.6,0.6c0,0.2-0.5,0.7-1.6,1.6c-3.1,2.6-4.6,5-4.6,7.4c0,2.6,1,3.8,3.1,3.8c2.1,0,4.4-1.8,6.7-5.4
			c3.5-5.2,5.2-10.1,5.2-14.8c0-1.2-0.2-2.4-0.6-3.4c-0.5-1.4-1.3-2.1-2.3-2.1c-0.3,0-0.8,0.1-1.5,0.2c-0.7,0.1-1.2,0.2-1.5,0.2
			c-1.1,0-1.7-0.4-1.7-1.3c0-0.8,0.5-1.2,1.4-1.2c0.4,0,1,0.1,1.8,0.2c0.8,0.2,1.4,0.2,1.8,0.2c2.6,0,4.9-2.2,7-6.7
			c1.8-3.8,2.7-7.2,2.7-10.1c0-2.5-0.7-4.4-2.1-5.9c-4.1,1.7-8,7-11.6,16.2c-4.8,12.3-8.3,20-10.6,23.2
			c-5.5,7.9-12.9,11.8-22.3,11.8c-3.5,0-6.4-0.8-8.7-2.3c-2.6-1.7-3.9-4.3-3.9-7.7c0-2.1,0.6-3.9,1.8-5.5c1.2-1.6,2.9-2.4,4.9-2.4
			c1.3,0,2.4,0.4,3.3,1.2c0.9,0.8,1.3,1.9,1.3,3.2c0,1.9-0.7,3.2-2.1,3.9c-2.3,0.5-3.5,0.8-3.6,0.9c-1.5,0.5-2.2,1.3-2.2,2.3
			c0,1.7,1,3,3.1,3.9c1.7,0.8,3.4,1.1,5.3,1.1c2.2,0,4.1-0.5,5.9-1.6c3-1.8,6.2-6,9.6-12.7c3.4-6.7,5.9-11.7,7.6-15.1
			c2.8-5.3,6.1-10,10.1-14c3.6-3.7,7.1-6.1,10.4-7.1C294,57.2,290.2,56.5,285.2,56.3z"/>
		<path fill="#FFFFFF" d="M329.7,82.5l-6,10.1c-0.7,1.1-1.8,2.8-3.1,5c-1.1,1.8-2,3.6-2.6,5.3l0.6,0.4c1.9-0.6,3.6-2,5.1-4.2
			c1.5-2.2,2.4-3.4,2.7-3.5h0.3c0.2,0.2,0.3,0.5,0.3,0.8c0,1.9-1.7,4.6-5,8c-3.3,3.4-5.9,5.1-7.9,5.1c-1.5,0-2.6-0.4-3.1-1.1
			c-0.1-0.2-0.5-1.2-1.2-3.1c-1.6,2.8-3.8,4.3-6.6,4.3c-1.3,0-2.4-0.5-3.3-1.6c-0.9-1.1-1.4-2.3-1.4-3.5c0-0.9,0.2-1.9,0.7-3
			l8.2-18.2l8.2-0.6c-1.9,2.5-3.7,5.5-5.5,8.9c-2.2,4.2-3.3,7.4-3.3,9.7c0,0.6,0.1,1.1,0.4,1.7c0.3,0.8,0.7,1.1,1.1,1.1
			c1.3,0,3.8-3.1,7.5-9.2c2.8-4.6,4.9-8.5,6.3-11.6L329.7,82.5z"/>
		<path fill="#FFFFFF" d="M349.9,87.3c0,3.3-1.7,6.2-5.2,8.7c-2.7,2-6,3.4-9.8,4.2c-0.7,1.8-1.1,3.2-1.1,4.2c0,1.1,0.4,1.7,1.3,1.7
			c2,0,4-0.9,6-2.6c0.9-0.8,2.4-2.3,4.5-4.8c1.5-1.7,2.6-2.6,3.1-2.6c0.2,0,0.3,0.1,0.3,0.4c0,0.5-1.4,2.6-4.3,6.2
			c-4,5-8.1,7.5-12.3,7.5c-4,0-6-1.9-6-5.7c0-4.6,2-9.4,6-14.3c4.3-5.2,8.6-7.9,13.1-7.9C348.5,82.3,349.9,84,349.9,87.3z M347,86.7
			c0-0.7-0.1-1.3-0.4-1.7c-0.2-0.1-0.4-0.1-0.6-0.1c-1.6,0-3.6,1.9-6,5.7c-1.8,2.8-3.3,5.5-4.4,8.1c2.6-0.7,5.2-2.2,7.5-4.5
			C345.7,91.7,347,89.2,347,86.7z"/>
		<path fill="#FFFFFF" d="M381.6,99.9c-0.1,1-1.1,2.5-2.9,4.5c-1.8,2-3.2,3.2-4.3,3.8c-1.5,0.9-3.5,1.3-5.9,1.3
			c-3.2,0-4.8-1.5-4.8-4.5c0-0.9,1-3.4,3.1-7.5c2.1-4.1,3.1-7.3,3.1-9.7v-0.9l-0.1,0.1c-0.1-0.8-0.4-1.2-1.1-1.2l-0.1-0.1
			c-0.7,0-1.9,0.9-3.5,2.7c-1.4,1.4-2.4,2.6-3.1,3.6c-1.3,1.9-2.6,4.8-4,8.7c-1.7,4.5-2.8,7.5-3.5,8.9l-8.8,0.6l7-14.8
			c0.4-0.7,0.9-1.8,1.7-3.2c0.8-1.4,1.1-2.4,1.1-3c0-0.8-0.2-1.1-0.6-1.1c-0.2,0-0.9,0.7-2.2,2.1c-1.3,1.4-2,2.1-2.4,2.1
			c0,0-0.1-0.1-0.3-0.1l-0.1-0.2c0.1-0.9,1.4-2.7,4-5.5c2.6-2.8,4.3-4.2,5.1-4.2c2.1,0,3.2,1.8,3.2,5.5c0,0.4,0.1,0.6,0.4,0.6
			c-0.1,0,1.1-0.8,3.5-2.3c2.4-1.5,4.4-2.3,5.8-2.3c3.1,0,4.7,1.6,4.7,4.8c0,2-1,5.1-3,9.1c-2,4-3,6.3-3,6.6c0,0.2,0.3,0.6,0.9,1
			c2.5,0,4.8-0.9,6.9-2.6C379.1,101.8,380.1,100.9,381.6,99.9L381.6,99.9z"/>
		<path fill="#FFFFFF" d="M408.3,93.2c0,0.6-0.7,1-2.1,1.3c-1.1,0.3-2,0.4-2.8,0.4c-0.5,0-1,0-1.6,0c-1.8,3.4-3.9,6.4-6.4,9.2
			c-3.4,3.8-6.5,5.7-9.2,5.7c-3.7,0-5.6-1.7-5.6-5.1c0-4.2,2.1-8.8,6.2-14c4.3-5.4,8.5-8.1,12.6-8.1c3.2,0,4.8,1.5,4.8,4.5
			c0,1-0.5,2.9-1.6,5.8c0.5,0.1,0.9,0.2,1.3,0.2c0.4,0,0.9-0.1,1.7-0.2c0.8-0.1,1.3-0.2,1.7-0.2C408,92.7,408.3,92.9,408.3,93.2z
			 M399.7,94.5c-2.6-0.3-4.4-1.6-5.5-3.8c-0.8,0.9-2,3-3.5,6.1v-0.1c-0.1,0.5-0.5,1.5-1.1,3c-0.6,1.2-0.9,2.2-0.9,3.1
			c0,0.9,0.5,1.4,1.4,1.4C393.2,104.1,396.4,100.9,399.7,94.5z M402.2,87.5c0-1.6-0.6-2.3-1.8-2.3c-0.9,0-1.9,0.4-3,1.3
			c-1.1,0.9-1.6,1.7-1.6,2.6c0,0.9,0.5,1.8,1.5,2.6c1,0.8,1.9,1.2,2.9,1.2c0.1,0,0.2,0,0.4-0.1v-0.1c0.4,0,0.9-0.8,1.3-2.3
			C402.1,89.2,402.2,88.2,402.2,87.5z"/>
	</g>
	<path fill="#FFFFFF" d="M359.1,160.4c-45.6,8.5-91.5,15.7-138.5,16.6c-38.1,0.7-75.5-2.4-112.4-10.5
		c-36.8-8.1-70.6-21.8-102.5-38.6c-0.6-0.3-0.6-0.6-1.4-0.9l-0.5,42.7c1.7,0.5,3.5,0.9,5.1,1.5c39.3,13.8,80.6,19.3,123,18.5
		c27.6-0.5,55-3.1,82.2-6.3c44.9-5.3,89.4-12.6,134.7-15.3c21.4-1.2,42.8-1.4,64.1,1.7c6.3,0.9,12.8,2.1,18.8,3.1
		c0.1-6.6,0.2-13.1,0.2-19.7C407.1,152.2,383.1,156,359.1,160.4z"/>
</g>
</svg>
