<?xml version="1.0" encoding="utf-8"?>
<!-- Generator: Adobe Illustrator 19.0.0, SVG Export Plug-In . SVG Version: 6.00 Build 0)  -->
<svg version="1.1" id="Layer_1" xmlns="http://www.w3.org/2000/svg" xmlns:xlink="http://www.w3.org/1999/xlink" x="0px" y="0px"
	 viewBox="-545 318.2 432.3 413" style="enable-background:new -545 318.2 432.3 413;" xml:space="preserve">
<style type="text/css">
	.st0{fill:#3D3E3F;}
	.st1{fill:#111416;}
	.st2{fill:#848688;}
	.st3{fill:#E1E1DE;}
	.st4{fill:#3C3B3A;}
	.st5{fill:#BA252B;}
	.st6{fill:#CD0014;}
	.st7{fill:#FFFFFF;}
	.st8{fill:none;}
	.st9{fill:#FFFDFD;}
	.st10{font-family:'Gotham-Book';}
	.st11{font-size:12px;}
</style>
<rect x="-343.6" y="531.9" class="st0" width="36.2" height="199.3"/>
<rect x="-529.3" y="518.3" class="st1" width="405" height="22.7"/>
<rect x="-508.4" y="518.3" class="st2" width="3.2" height="22.6"/>
<rect x="-475.8" y="518.3" class="st2" width="3.2" height="22.6"/>
<rect x="-441.2" y="518.3" class="st2" width="3.2" height="22.6"/>
<rect x="-408.6" y="518.3" class="st2" width="3.2" height="22.6"/>
<rect x="-375.9" y="518.3" class="st2" width="3.2" height="22.6"/>
<rect x="-343.3" y="518.3" class="st2" width="3.2" height="22.6"/>
<rect x="-310.7" y="518.3" class="st2" width="3.2" height="22.6"/>
<rect x="-278.1" y="518.3" class="st2" width="3.2" height="22.6"/>
<rect x="-245.5" y="518.3" class="st2" width="3.2" height="22.6"/>
<rect x="-212.9" y="518.3" class="st2" width="3.2" height="22.6"/>
<rect x="-180.3" y="518.3" class="st2" width="3.2" height="22.6"/>
<rect x="-147.6" y="518.3" class="st2" width="3.2" height="22.6"/>
<rect x="-545" y="540.5" class="st3" width="429" height="5.9"/>
<rect x="-516.8" y="535.5" class="st4" width="34.4" height="7.2"/>
<rect x="-429.6" y="535.5" class="st4" width="34.4" height="7.2"/>
<rect x="-344.5" y="535.5" class="st4" width="34.4" height="7.2"/>
<rect x="-259.3" y="535.5" class="st4" width="34.4" height="7.2"/>
<rect x="-174.1" y="535.5" class="st4" width="34.4" height="7.2"/>
<rect x="-540.2" y="324.4" class="st5" width="425.9" height="203"/>
<g>
	<rect x="-541.9" y="325.4" class="st6" width="427.5" height="201.5"/>
	<path class="st7" d="M-186.9,484.8c-45.6,8.5-91.5,15.7-138.5,16.6c-38.1,0.7-75.5-2.4-112.4-10.5c-36.8-8.1-70.6-21.8-102.5-38.6
		c-0.6-0.3-0.6-0.6-1.4-0.9l-0.5,42.7c1.7,0.5,3.5,0.9,5.1,1.5c39.3,13.8,80.6,19.3,123,18.5c27.6-0.5,55-3.1,82.2-6.3
		c44.9-5.3,89.4-12.6,134.7-15.3c21.4-1.2,42.8-1.4,64.1,1.7c6.3,0.9,12.8,2.1,18.8,3.1c0.1-6.6,0.2-13.1,0.2-19.7
		C-138.9,476.6-162.9,480.4-186.9,484.8z"/>
</g>
<g>
	<path class="st7" d="M-497.1,405.8h-10v-9.6h31.4v9.6h-10v24.4h-11.4V405.8z"/>
	<path class="st7" d="M-478.1,417.1L-478.1,417.1c0-7.6,6.2-14,15-14c8.7,0,14.9,6.3,14.9,13.8v0.1c0,7.5-6.2,13.9-15,13.9
		C-471.9,430.9-478.1,424.6-478.1,417.1z M-458.8,417.1L-458.8,417.1c0-2.7-1.9-4.8-4.4-4.8s-4.3,2.1-4.3,4.6v0.1
		c0,2.6,1.9,4.7,4.4,4.7S-458.8,419.6-458.8,417.1z"/>
	<path class="st7" d="M-445.7,403.7h11v3.6c1.7-2.2,4.4-4.2,8-4.2c3.6,0,6.4,1.6,7.8,4.4c2.2-2.5,4.9-4.4,9-4.4
		c5.7,0,9.2,3.7,9.2,9.7v17.4h-11v-14c0-2.2-1.3-3.5-2.9-3.5c-1.6,0-3.1,1.3-3.1,3.5v14h-11v-14c0-2.2-1.3-3.5-2.9-3.5
		c-1.6,0-3.1,1.3-3.1,3.5v14h-11V403.7z"/>
	<path class="st7" d="M-398.5,422.7L-398.5,422.7c0-5.4,3.9-8.4,10.1-8.4c2.2,0,5.1,0.5,6.3,1v-0.4c0-2.4-1.5-3.8-4.9-3.8
		c-2.7,0-5,0.6-7.3,1.5l-1.9-7.3c3.1-1.2,6.6-1.9,11.2-1.9c5.4,0,8.9,1.1,11.2,3.5c2,2,2.8,4.6,2.8,8.4v14.9h-11v-2.7
		c-1.8,2-4.3,3.3-7.6,3.3C-394.9,430.9-398.5,428-398.5,422.7z M-382,420.4v-1.1c-0.6-0.2-1.6-0.4-2.5-0.4c-2.2,0-3.4,1.3-3.4,3v0.1
		c0,1.6,1.1,2.6,2.5,2.6C-383.5,424.5-382,422.9-382,420.4z"/>
	<path class="st7" d="M-355.5,394.7h11v35.5h-11V394.7z"/>
	<path class="st7" d="M-341.9,417.1L-341.9,417.1c0-7.6,6.2-14,15-14c8.7,0,14.9,6.3,14.9,13.8v0.1c0,7.5-6.2,13.9-15,13.9
		C-335.7,430.9-341.9,424.6-341.9,417.1z M-322.6,417.1L-322.6,417.1c0-2.7-1.9-4.8-4.4-4.8s-4.3,2.1-4.3,4.6v0.1
		c0,2.6,1.9,4.7,4.4,4.7S-322.6,419.6-322.6,417.1z"/>
	<path class="st7" d="M-286.1,427.2v3h-11v-35.5h11v12.2c1.8-1.9,3.8-3.9,7.9-3.9c6.4,0,11.4,5.6,11.4,13.7v0.1
		c0,8.4-5.1,14-11.3,14C-282.2,430.9-284.4,429.1-286.1,427.2z M-277.5,417L-277.5,417c0-2.8-1.9-4.9-4.4-4.9s-4.4,2.1-4.4,4.8v0.1
		c0,2.6,1.9,4.8,4.4,4.8S-277.5,419.7-277.5,417z"/>
	<path class="st7" d="M-264.5,421.2v-17.5h11v14c0,2.3,1.4,3.6,3,3.6c1.7,0,3.2-1.3,3.2-3.6v-14h11v26.5h-11v-3.6
		c-1.7,2.2-4.4,4.2-8.1,4.2C-261,430.9-264.5,427.2-264.5,421.2z"/>
	<path class="st7" d="M-233.7,417.1L-233.7,417.1c0-8,5.7-14.1,13.7-14.1c9.4,0,13.8,6.6,13.8,14.6c0,0.6,0,1.3,0,1.8h-17.1
		c0.8,2.3,2.6,3.6,5,3.6c2,0,3.7-0.9,5.4-2.7l5.9,4.7c-2.6,3.4-6.4,5.8-12.1,5.8C-227.8,430.9-233.7,425.4-233.7,417.1z
		 M-216.3,414.7c-0.2-2.5-1.8-4-3.7-4c-1.8,0-3.2,1.6-3.5,4H-216.3z"/>
	<path class="st7" d="M-203.8,403.7h11v3.7c1.7-2.2,4.4-4.3,8.1-4.3c5.6,0,9.1,3.7,9.1,9.7v17.4h-11v-14c0-2.3-1.4-3.6-3-3.6
		s-3.2,1.3-3.2,3.6v14h-11V403.7z"/>
	<path class="st7" d="M-173.2,417.1L-173.2,417.1c0-7.6,6.2-14,15-14c8.7,0,14.9,6.3,14.9,13.8v0.1c0,7.5-6.2,13.9-15,13.9
		C-167,430.9-173.2,424.6-173.2,417.1z M-153.9,417.1L-153.9,417.1c0-2.7-1.9-4.8-4.4-4.8s-4.3,2.1-4.3,4.6v0.1
		c0,2.6,1.9,4.7,4.4,4.7S-153.9,419.6-153.9,417.1z"/>
</g>
<rect x="-233.7" y="510.3" class="st8" width="121" height="16"/>
<text transform="matrix(1 0 0 1 -217.6834 519.0598)" class="st9 st10 st11">SLOGAN 2005</text>
</svg>
