<?xml version="1.0" encoding="utf-8"?>
<!-- Generator: Adobe Illustrator 18.0.0, SVG Export Plug-In . SVG Version: 6.00 Build 0)  -->
<!DOCTYPE svg PUBLIC "-//W3C//DTD SVG 1.1//EN" "http://www.w3.org/Graphics/SVG/1.1/DTD/svg11.dtd">
<svg version="1.1" id="Layer_1" xmlns="http://www.w3.org/2000/svg" xmlns:xlink="http://www.w3.org/1999/xlink" x="0px" y="0px"
	 viewBox="0 0 439.1 409.4" enable-background="new 0 0 439.1 409.4" xml:space="preserve">
<rect x="0" y="0" fill="#0E1215" width="438.8" height="224.8"/>
<rect x="9.9" y="8.5" fill="#BA252B" width="419.1" height="207.8"/>
<rect x="44.5" y="219.4" fill="#0E1215" width="8.3" height="190"/>
<rect x="44.9" y="308.2" fill="#0E1215" width="58.1" height="8.3"/>
<rect x="72.8" y="213.1" transform="matrix(0.5725 -0.8199 0.8199 0.5725 -166.9388 167.3272)" fill="#0E1215" width="8.3" height="61.2"/>
<rect x="21.6" y="204.1" transform="matrix(0.3813 -0.9244 0.9244 0.3813 -196.7669 166.1837)" fill="#0E1215" width="8.3" height="51.9"/>
<rect x="412.4" y="206.2" transform="matrix(-0.3813 -0.9244 0.9244 -0.3813 362.7253 701.69)" fill="#0E1215" width="7.6" height="46.6"/>
<rect x="72.8" y="213.1" transform="matrix(-0.5725 -0.8199 0.8199 -0.5725 -78.7798 446.4315)" fill="#0E1215" width="8.3" height="61.2"/>
<rect x="72.2" y="257.3" transform="matrix(-0.5725 -0.8199 0.8199 -0.5725 -117.3184 517.8326)" fill="#0E1215" width="8.3" height="64.4"/>
<rect x="72.2" y="306" transform="matrix(-0.5725 -0.8199 0.8199 -0.5725 -157.2406 594.4011)" fill="#0E1215" width="8.3" height="64.4"/>
<rect x="72.2" y="348.7" transform="matrix(-0.5725 -0.8199 0.8199 -0.5725 -192.2942 661.632)" fill="#0E1215" width="8.3" height="64.4"/>
<rect x="72.2" y="257.4" transform="matrix(0.5725 -0.8199 0.8199 0.5725 -203.4897 185.7011)" fill="#0E1215" width="8.3" height="61.2"/>
<rect x="72.2" y="304.6" transform="matrix(0.5725 -0.8199 0.8199 0.5725 -242.1947 205.8816)" fill="#0E1215" width="8.3" height="61.2"/>
<rect x="72.2" y="350.9" transform="matrix(0.5725 -0.8199 0.8199 0.5725 -280.1694 225.6813)" fill="#0E1215" width="8.3" height="61.2"/>
<rect x="44.9" y="356" fill="#0E1215" width="58.1" height="8.3"/>
<rect x="44.9" y="397.6" fill="#0E1215" width="58.1" height="8.3"/>
<rect x="44.9" y="261.6" fill="#0E1215" width="58.1" height="8.3"/>
<rect x="106" y="232.5" fill="#0E1215" width="229.4" height="8.3"/>
<rect x="334.1" y="308.2" fill="#0E1215" width="58.1" height="8.3"/>
<rect x="362" y="213.1" transform="matrix(0.5725 -0.8199 0.8199 0.5725 -43.3176 404.4259)" fill="#0E1215" width="8.3" height="61.2"/>
<rect x="196.5" y="213.9" transform="matrix(0.5725 -0.8199 0.8199 0.5725 -101.8203 262.3741)" fill="#0E1215" width="8.3" height="29.8"/>
<rect x="228" y="213.9" transform="matrix(-0.5725 -0.8199 0.8199 -0.5725 177.4756 550.1942)" fill="#0E1215" width="8.3" height="29.8"/>
<rect x="362" y="213.1" transform="matrix(-0.5725 -0.8199 0.8199 -0.5725 375.9625 683.5302)" fill="#0E1215" width="8.3" height="61.2"/>
<rect x="361.4" y="257.3" transform="matrix(-0.5725 -0.8199 0.8199 -0.5725 337.4239 754.9312)" fill="#0E1215" width="8.3" height="64.4"/>
<rect x="361.4" y="306" transform="matrix(-0.5725 -0.8199 0.8199 -0.5725 297.5017 831.4998)" fill="#0E1215" width="8.3" height="64.4"/>
<rect x="361.4" y="348.7" transform="matrix(-0.5725 -0.8199 0.8199 -0.5725 262.4481 898.7307)" fill="#0E1215" width="8.3" height="64.4"/>
<rect x="361.4" y="257.4" transform="matrix(0.5725 -0.8199 0.8199 0.5725 -79.8685 422.7998)" fill="#0E1215" width="8.3" height="61.2"/>
<rect x="361.4" y="304.6" transform="matrix(0.5725 -0.8199 0.8199 0.5725 -118.5735 442.9802)" fill="#0E1215" width="8.3" height="61.2"/>
<rect x="361.4" y="350.9" transform="matrix(0.5725 -0.8199 0.8199 0.5725 -156.5482 462.7799)" fill="#0E1215" width="8.3" height="61.2"/>
<rect x="334.1" y="356" fill="#0E1215" width="58.1" height="8.3"/>
<rect x="334.1" y="397.6" fill="#0E1215" width="58.1" height="8.3"/>
<rect x="334.1" y="261.6" fill="#0E1215" width="58.1" height="8.3"/>
<rect x="339.5" y="309.3" fill="#0E1215" width="55.9" height="10.4"/>
<rect x="337" y="360.1" fill="#0E1215" width="58.1" height="8.3"/>
<rect x="341.6" y="260.9" fill="#0E1215" width="53.6" height="9"/>
<rect x="99.1" y="219.4" fill="#0E1215" width="8.3" height="190"/>
<rect x="212.6" y="219.4" fill="#0E1215" width="8.3" height="17.8"/>
<rect x="333.4" y="219.4" fill="#0E1215" width="8.3" height="190"/>
<rect x="388.9" y="219.4" fill="#0E1215" width="8.3" height="190"/>
<rect x="162" y="2.7" fill="#1A1A1A" width="7.2" height="18.8"/>
<rect x="264.8" y="2.7" fill="#1A1A1A" width="7.2" height="18.8"/>
<rect x="359.8" y="2.7" fill="#1A1A1A" width="7.2" height="18.8"/>
<path fill="#333333" d="M82.8,28.2H68.2c-2.4,0-4.1-2.2-3.6-4.5l1.3-5.6c0.4-1.7,1.9-2.9,3.6-2.9h12.4c1.8,0,3.3,1.3,3.6,3l1,5.6
	C86.9,26.1,85.1,28.2,82.8,28.2z"/>
<path fill="#1A1A1A" d="M75.4,21.5L75.4,21.5c-2,0-3.6-1.6-3.6-3.6V2.7h7.2l0,15.3C78.9,19.9,77.3,21.5,75.4,21.5z"/>
<path fill="#333333" d="M172.8,28.2h-14.7c-2.4,0-4.1-2.2-3.6-4.5l1.3-5.6c0.4-1.7,1.9-2.9,3.6-2.9h12.4c1.8,0,3.3,1.3,3.6,3l1,5.6
	C176.8,26.1,175.1,28.2,172.8,28.2z"/>
<path fill="#1A1A1A" d="M165.3,21.5L165.3,21.5c-2,0-3.6-1.6-3.6-3.6V2.7h7.2v15.3C168.9,19.9,167.3,21.5,165.3,21.5z"/>
<path fill="#333333" d="M275.8,28.2h-14.7c-2.4,0-4.1-2.2-3.6-4.5l1.3-5.6c0.4-1.7,1.9-2.9,3.6-2.9h12.4c1.8,0,3.3,1.3,3.6,3l1,5.6
	C279.9,26.1,278.1,28.2,275.8,28.2z"/>
<path fill="#1A1A1A" d="M268.4,21.5L268.4,21.5c-2,0-3.6-1.6-3.6-3.6V2.7h7.2v15.3C271.9,19.9,270.3,21.5,268.4,21.5z"/>
<path fill="#333333" d="M370.7,28.2H356c-2.4,0-4.1-2.2-3.6-4.5l1.3-5.6c0.4-1.7,1.9-2.9,3.6-2.9h12.4c1.8,0,3.3,1.3,3.6,3l1,5.6
	C374.7,26.1,373,28.2,370.7,28.2z"/>
<path fill="#1A1A1A" d="M363.2,21.5L363.2,21.5c-2,0-3.6-1.6-3.6-3.6V2.7h7.2v15.3C366.8,19.9,365.2,21.5,363.2,21.5z"/>
<g>
	<g>
		<g>
			<g id="KRyJ1s.tif_15_">
				<g>
					<path fill="#F1FFFF" d="M132.6,50.1c0.6,0.2,1.2,0.4,1.7,0.7c1.3,0.7,2,1.9,2.1,3.4c0.1,1.4-0.2,2.7-0.8,4
						c-0.5,0.9-1,1.7-1.6,2.6c-0.6,0.8-1.4,1.3-2.4,1.4c-1,0.1-1.7-0.4-1.8-1.4c-0.1-0.8,0-1.5,0.4-2.2c0.6-1.2,1.4-2.3,2.8-2.6
						c0.3-0.1,0.5-0.1,0.8-0.1c0.4,0,0.5-0.2,0.6-0.5c0.4-1.4-0.4-2.5-1.9-2.5c-0.7,0-1.5,0.2-2.2,0.4c-2.9,1-5.5,2.7-7.7,4.8
						c-7.2,6.7-13,14.4-17.1,23.4c-1.4,3.2-2.5,6.5-3.1,9.9c-0.4,2.4-0.4,4.8,0.1,7.2c0.7,3,2.6,5,5.4,6.3c2.3,1,4.7,1.3,7.1,1.1
						c4-0.3,7.9-1.4,11.8-2.3c4.5-1.1,8.9-2.2,13.3-3.2c4.2-0.9,8.5-1.4,12.8-1.2c5,0.3,9.5,1.7,13.6,4.7c2.3,1.6,4.5,3.3,6.5,5.3
						c0.3,0.4,0.6,0.7,0.9,1.2c-0.1-0.1-0.2-0.1-0.4-0.2c-4-2.6-8.4-4.1-13.3-4c-2.1,0-4,0.3-5.7,1.7c-0.8,0.7-1.5,1.5-2.3,2.3
						c0.1,0.1,0,0,0,0c-1.8-3.1-4.6-4.9-8.1-5.7c-2.4-0.6-4.9-0.7-7.4-0.5c-4.4,0.3-8.6,1.4-12.8,2.5c-3.9,1-7.9,1.8-11.8,2.6
						c-3.1,0.6-6.3,0.6-9.3-0.5c-4.6-1.7-7.4-4.9-8.4-9.7c-0.2-0.9-0.3-1.9-0.4-2.8c0-0.1-0.1-0.3-0.1-0.4c0-0.8,0-1.7,0-2.5
						c0.1-0.7,0.1-1.3,0.2-2c0.5-3.7,1.5-7.3,3-10.7c3-6.8,7.2-12.8,12.4-18c3.4-3.4,7-6.5,11.2-8.8c2.3-1.3,4.8-2.4,7.4-3
						c0.8-0.2,1.7-0.3,2.5-0.4C131.4,50.1,132,50.1,132.6,50.1z"/>
					<path fill="#F1FFFF" d="M135.5,76.1c0.4-0.1,0.7-0.1,0.9-0.2c0.9-0.4,1.8-0.9,2.6-1.4c1.7-1.1,3.2-2.6,4.6-4.1
						c1.5-1.6,3.1-2.9,4.9-4.1c1.6-1,3.2-1.7,5.1-1.6c2.4,0.1,4.1,2.1,3.7,4.5c-0.3,1.9-1.1,3.6-2.4,5.1c-0.5,0.5-1,0.9-1.7,1.2
						c-1.1,0.5-2.1-0.3-2.1-1.4c-0.1-2,1.8-4.1,3.9-4.3c0.1,0,0.3-0.1,0.4-0.2c0.4-0.8,0.2-2-1.1-2c-1.1,0-1.9,0.5-2.7,1.1
						c-1.5,1.2-2.9,2.6-4.2,4.2c-2.9,3.6-5.1,7.6-6.6,11.9c-0.4,1.1-0.5,2.2-0.3,3.3c0.3,1.8,1.6,2.6,3.3,2.2
						c1.5-0.4,2.8-1.3,3.9-2.3c2.5-2.3,4.6-4.9,6.7-7.6c1.9-2.5,3.7-5.1,5.7-7.5c1.9-2.4,4-4.5,6.5-6.2c1.2-0.8,2.4-1.5,3.8-1.8
						c1.6-0.3,2.8,0.2,3.8,1.5c0.1,0.1,0.1,0.2,0.2,0.3c0.1-0.1,0.1-0.1,0.1-0.2c0.3-0.8,0.9-1,1.7-0.9c1.4,0.1,2.7,0,4.1,0
						c0.1,0,0.3,0,0.5,0c-0.2,0.3-0.3,0.5-0.4,0.7c-3.9,6.8-7.9,13.7-11.8,20.5c-0.2,0.4-0.4,0.8-0.4,1.3c-0.1,0.6,0.4,0.9,0.9,0.7
						c0.4-0.2,0.9-0.4,1.2-0.7c1.5-1.1,2.7-2.4,3.8-3.8c1.1-1.3,2.1-2.6,3-3.9c0.3-0.3,0.5-0.5,0.9-0.4c0.4,0,0.9,0,1.3,0
						c-0.1,0.1-0.1,0.2-0.1,0.3c-2.4,3.6-5,7.1-8.1,10.1c-1.6,1.5-3.2,3-5.2,3.9c-0.9,0.4-1.8,0.7-2.8,0.5c-1-0.2-1.8-1.2-1.9-2.2
						c-0.1-0.7,0-1.4-0.1-2.3c-0.1,0.1-0.2,0.3-0.3,0.4c-1.1,1.2-2.2,2.2-3.6,3c-0.9,0.6-1.9,1-3,1.1c-2.2,0.2-3.7-1.1-3.8-3.3
						c-0.1-1.3,0.3-2.5,0.6-3.8c0-0.2,0.1-0.3,0-0.5c-0.1,0.1-0.3,0.3-0.4,0.4c-1.8,1.6-3.5,3.2-5.4,4.8c-1.5,1.2-3.3,2.1-5.2,2.4
						c-1,0.2-2,0.2-3-0.1c-2.1-0.7-3-2.3-3.4-4.4c-0.6-2.7,0.2-5.3,1.3-7.7c0.7-1.4,1.4-2.8,2.1-4.3c0.1-0.1,0.2-0.3,0.3-0.5
						c-0.8,0.2-1.4,0.4-2.1,0.5c-0.6,0.1-1,0.4-1.3,0.9c-1.4,2.3-2.7,4.6-4.3,6.7c-2.1,2.9-4.6,5.4-7.6,7.4
						c-1.2,0.8-2.5,1.4-4.1,1.6c-1.6,0.2-3.2-0.7-3.8-2.3c-0.5-1.3-0.6-2.6-0.5-4c0.4-4,2-7.5,4.1-10.8c2.5-4,5.6-7.6,9.5-10.3
						c1.6-1.1,3.3-2.1,5.2-2.5c3-0.5,4.9,1,4.9,4.1c0,1.7-0.4,3.2-1,4.8C136.1,74.5,135.8,75.3,135.5,76.1z M157.7,87.8
						c0.1,0.5,0.2,0.9,0.6,1.1c0.4,0.2,0.8,0.2,1.2,0c1-0.6,1.9-1.3,2.6-2.2c1-1.3,2-2.6,2.8-4c2.7-4.6,5.4-9.2,8-13.8
						c0.3-0.5,0.1-0.9-0.4-1.2c-0.5-0.2-0.9-0.1-1.4,0.1c-0.9,0.4-1.8,1-2.4,1.8c-1.9,2.4-3.8,4.7-5.6,7.1c-2,2.7-3.6,5.5-4.8,8.7
						C158.1,86.2,157.9,87,157.7,87.8z M126.9,74c-0.1,0.1-0.2,0.2-0.3,0.3c-0.9,1.4-1.9,2.8-2.7,4.2c-1.2,2.1-2.3,4.2-2.8,6.5
						c-0.2,0.7-0.2,1.4-0.1,2.1c0.1,1.3,1,1.9,2.3,1.6c0.3-0.1,0.6-0.2,0.9-0.4c1.2-0.7,2.1-1.6,3-2.6c1.9-2.1,3.4-4.6,4.8-7
						c0.1-0.2,0.1-0.4,0.2-0.6C130,77.4,128.1,76.2,126.9,74z M135.3,70.1c0-0.2,0-0.4,0-0.6c-0.3-1.6-1-2.3-2.7-1.8
						c-0.3,0.1-0.6,0.2-0.8,0.4c-1.2,0.8-2.1,1.8-2.6,3.1c-0.4,1.1-0.4,2.2,0.4,3.2c0.9,1.1,2,1.7,3.4,1.8c0.3,0,0.4-0.1,0.5-0.3
						c0.3-0.8,0.7-1.5,1-2.3C134.9,72.5,135.3,71.3,135.3,70.1z"/>
				</g>
			</g>
			<g id="KRyJ1s.tif_14_">
				<g>
					<path fill="#F1FFFF" d="M258.1,61.6c0.4-0.8,0.8-1.6,1.2-2.4c0.4-0.8,0.7-1.7,0.7-2.6c0-0.7-0.3-0.9-0.9-0.7
						c-0.6,0.3-1.2,0.6-1.7,1c-2.3,1.8-4.4,3.8-6.3,6c-4,4.5-7.4,9.5-10.6,14.7c-2,3.2-3.8,6.6-5.6,9.9c-0.2,0.3-0.3,0.6-0.4,1
						c0.2-0.1,0.5-0.2,0.7-0.4c1.2-1,2.5-1.9,3.6-2.9c5.1-4.6,9.8-9.6,14-15.1c0.4-0.5,0.8-0.9,1.5-0.9c0.3,0,0.6-0.1,1-0.1
						c-0.2,0.4-0.4,0.7-0.6,1c-2.7,3.8-5.8,7.3-9,10.7c-3.9,4.1-8.1,7.9-12.8,11.1c-0.1,0.1-0.3,0.2-0.3,0.4
						c-1.4,3.1-2.7,6.3-3.4,9.7c-0.1,0.7-0.1,1.4,0,2c0.2,1,1.1,1.4,1.9,0.8c0.9-0.7,1.7-1.4,2.3-2.3c1.3-1.7,2.4-3.4,3.6-5.2
						c2-3,3.9-6,6.2-8.7c2.1-2.5,4.4-4.8,7.3-6.5c1.2-0.7,2.6-1.1,4-0.8c0.9,0.2,1.5,0.8,2,1.5c0.1,0.2,0.3,0.3,0.4,0.5
						c0.2-0.4,0.5-0.8,0.7-1.2c0.1-0.1,0.3-0.3,0.4-0.3c1.7,0,3.5,0,5.2,0c0,0,0.1,0,0.2,0c-0.1,0.2-0.1,0.3-0.2,0.4
						c-2.7,4.7-5.3,9.4-8,14.2c-1,1.8-2.1,3.6-3.1,5.5c-0.3,0.5-0.5,1-0.7,1.6c-0.1,0.3-0.2,0.7,0.1,1c0.3,0.3,0.7,0.1,1-0.1
						c1.5-0.9,2.8-2.2,3.9-3.6c1.3-1.7,2.5-3.5,3.8-5.2c0.2-0.2,0.3-0.4,0.6-0.4c0.5,0,0.9,0,1.4,0c-0.2,0.3-0.4,0.6-0.5,0.9
						c-2.2,3.4-4.6,6.7-7.4,9.6c-1.6,1.7-3.5,3-5.6,3.9c-0.5,0.2-1.2,0.3-1.8,0.3c-1.1,0-1.9-0.6-2.2-1.7c-0.2-0.8-0.1-1.6-0.2-2.3
						c0-0.2,0-0.3,0.1-0.5c0,0-0.1,0-0.1-0.1c-0.3,0.3-0.6,0.6-0.9,1c-1.3,1.2-2.7,2.4-4.3,3.1c-0.8,0.4-1.6,0.6-2.5,0.4
						c-1.5-0.2-2.5-1.3-2.7-3c-0.1-0.7,0-1.4,0-2.1c0-0.2,0-0.4,0-0.7c-0.2,0.2-0.3,0.4-0.4,0.5c-1.3,1.5-2.6,2.9-4.2,4
						c-0.7,0.5-1.4,0.9-2.2,1.1c-1.7,0.6-3.2-0.1-4.1-1.7c-0.5-0.9-0.6-1.9-0.6-2.9c0.1-2.3,0.7-4.5,1.4-6.6c0.4-1.3,0.9-2.6,1.3-4
						c-0.3,0-0.5,0.1-0.7,0.1c-0.7,0.1-1.4,0.2-2.1,0.2c-0.4,0-0.5,0.2-0.7,0.5c-1.4,2.2-2.7,4.4-4.2,6.5c-2,2.8-4.5,5.3-7.5,7.1
						c-1,0.6-2.1,1-3.2,1.1c-2.2,0.2-3.4-1.3-3.7-2.8c-0.4-1.6-0.2-3.2,0.1-4.7c0.8-3.4,2.2-6.4,4.1-9.3c2-3.1,4.2-6,7.1-8.5
						c1.7-1.5,3.5-2.7,5.7-3.4c0.8-0.3,1.6-0.3,2.5-0.3c1.7,0.2,2.5,1.4,2.7,2.5c0.4,1.7,0.1,3.4-0.4,5.1c-0.5,1.3-1,2.6-1.6,3.9
						c-0.1,0.1-0.1,0.3-0.2,0.5c1.1,0.1,2.1-0.2,3-0.7c0.1-0.1,0.2-0.3,0.3-0.4c2.9-5.9,6-11.6,9.7-17.1c4.5-6.7,9.8-12.7,16-17.9
						c1.5-1.2,3.1-2.3,4.8-3.1c0.9-0.4,1.8-0.6,2.8-0.6c1.2,0.1,1.8,0.7,1.9,1.9c0.1,1.5-0.3,2.9-0.9,4.2c-0.7,1.5-0.8,1.5-2.4,1.8
						C258.3,61.7,258.3,61.6,258.1,61.6z M241.1,104c0,0.5,0.6,1,1.5,0.7c0.4-0.1,0.8-0.4,1.1-0.7c1.1-0.8,1.9-2,2.7-3.1
						c2.2-3,4-6.3,5.8-9.5c1.1-1.9,2.2-3.7,3.3-5.6c0.2-0.4,0.3-0.8,0-1.2c-0.3-0.4-0.8-0.5-1.2-0.3c-0.5,0.2-1,0.4-1.5,0.8
						c-0.6,0.4-1.2,0.9-1.7,1.5c-3.8,3.9-6.8,8.4-9.1,13.4C241.5,101.1,241.1,102.3,241.1,104z M215.6,90.4
						c-0.8,1.2-1.6,2.4-2.4,3.5c-1.3,2.1-2.5,4.3-3.2,6.7c-0.2,0.8-0.4,1.7-0.2,2.6c0.2,1.1,1,1.7,2.1,1.4c1-0.2,1.9-0.9,2.6-1.6
						c2.4-2.2,4.2-4.9,5.6-7.7c0.1-0.2,0.1-0.3,0.2-0.5C218.3,93.8,216.6,92.6,215.6,90.4z M223.6,86.3c0-0.3,0-0.5,0-0.8
						c-0.1-1.1-0.7-1.7-1.6-1.7c-0.4,0-0.8,0.1-1.2,0.3c-1,0.5-1.9,1.2-2.6,2.2c-1.7,2.7-0.1,5.7,2.7,6.7c0.1,0,0.4-0.1,0.5-0.2
						c0.3-0.5,0.6-1,0.8-1.5C222.9,89.7,223.6,88.1,223.6,86.3z"/>
					<path fill="#F1FFFF" d="M246.6,61c-1.4,1.5-2.7,2.9-4.1,4.4c-0.1,0.1-0.4,0.1-0.5,0c-0.9-0.5-1.7-1-2.6-1.5
						c-2.6-1.6-5.2-3.4-7.8-4.9c-2-1.2-4.3-2.1-6.6-2.4c-0.8-0.1-1.5-0.1-2.3,0.2c-0.2,0.1-0.3,0.2-0.3,0.5c0.2,2.7-0.5,5.3-1.5,7.8
						c-1.4,3.5-3.5,6.5-6.3,9c-1.2,1.1-2.5,1.8-4,2.3c-2.1,0.6-3.7-0.4-4-2.6c-0.2-1.4,0.2-2.7,0.7-4c1.7-4.3,4.4-7.8,8-10.8
						c1.2-1,2.6-1.9,3.9-2.9c0.1-0.1,0.2-0.1,0.3-0.2c-0.8-0.3-1.6-0.3-2.4-0.2c-1.1,0.2-2.2,0.7-3.2,1.2c-3.9,2.1-7.2,4.8-10.2,8
						c-5.5,5.8-10.3,12.2-14.1,19.3c-2.1,3.9-3.7,8-4.5,12.4c-0.3,1.8-0.6,3.6-0.1,5.4c0.5,1.9,1.6,3.3,3.5,3.9
						c1.2,0.3,2.4,0.1,3.5-0.4c2-0.9,3.7-2.2,5.2-3.8c2.9-3.1,5.3-6.6,6.6-10.7c0.5-1.5,0.9-3.1,0.8-4.8c-0.1-1.6-1-2.2-2.5-1.6
						c-1.1,0.4-1.8,1.3-2.5,2.1c-1.5,2-2.5,4.2-3,6.6c0,0.2-0.2,0.4-0.3,0.5c-2.6,1.3-4.9,3.1-6.9,5.2c-0.1,0.1-0.1,0.1-0.3,0.3
						c0.6-4.9,2.1-9.4,5.2-13.1c1.9-2.2,4.1-3.8,7-4.5c0.7-0.2,1.5-0.3,2.3-0.1c1.3,0.3,2.1,1.2,2.4,2.4c0.5,1.6,0.4,3.2,0.1,4.8
						c-0.7,3.8-2.4,7.1-4.5,10.2c-2.6,4-5.9,7.3-10,9.8c-1.8,1-3.7,1.6-5.7,1.7c-3.3,0.1-5.7-1.4-7.3-4.1c-1.4-2.4-1.7-5-1.5-7.7
						c0.3-4.2,1.7-8.1,3.5-11.9c4.9-10.2,11.7-19,20.5-26.2c3.8-3.1,8-5.4,12.7-6.8c1.7-0.5,3.4-0.6,5.2-0.2c0.8,0.2,1.5,0.6,2,1.2
						c0.2,0.2,0.4,0.2,0.6,0.1c1.4-0.4,2.8-1,4.2-1.2c3.5-0.7,6.9-0.2,10,1.5C239.5,56.8,242.9,58.9,246.6,61
						C246.5,60.9,246.5,61,246.6,61z M220.6,57.4c-0.5,0.3-0.8,0.4-1.2,0.7c-4.5,2.7-7.8,6.6-10.2,11.2c-0.5,1.1-1,2.1-1.1,3.3
						c-0.2,1.5,1,2.4,2.4,1.8c0.6-0.3,1.1-0.6,1.6-1c4.9-3.8,7.7-8.7,8.4-14.8C220.7,58.2,220.6,57.8,220.6,57.4z"/>
					<path fill="#F1FFFF" d="M274,53.3c-0.8,1.6-1.7,3.2-2.9,4.6c-3.6,4.5-8,7.9-13.6,9.6c-2.8,0.9-5.7,1.2-8.6,0.6
						c-0.1,0-0.1,0-0.2,0c-0.1,0-0.3-0.1-0.5-0.1c0.1-0.1,0.2-0.3,0.3-0.4c1.2-1.4,2.4-2.9,3.5-4.3c0.1-0.1,0.3-0.3,0.5-0.3
						c3.3,0.3,6.5-0.3,9.6-1.6c4.4-1.8,8.2-4.6,11.5-8C273.9,53.5,273.9,53.4,274,53.3z"/>
				</g>
			</g>
			<path fill="#F1FFFF" d="M197.1,61.1c-0.9,0.7-1.7,1.3-2.6,1.9c-0.9,0.7-1.8,1.4-2.8,2.1c-0.2,0.1-0.5,0.2-0.8,0.2
				c-3.1,0-6.2,0-9.3,0c0,0-0.1,0-0.2,0c0.1-0.1,0.1-0.1,0.2-0.2c1.7-1.3,3.4-2.5,5.1-3.8c0.1-0.1,0.5-0.2,0.7-0.2
				C190.6,61.1,193.8,61.1,197.1,61.1z"/>
		</g>
	</g>
	<path fill="#FFFFFF" d="M357.9,166.4c-44.7,8.2-89.6,15.1-135.8,15.9c-37.3,0.7-74-2.3-110.1-10.1c-36.1-7.8-69.2-21-100.5-37.1
		c-0.5-0.3-0.6-0.6-1.4-0.9l-0.5,41c1.7,0.5,3.5,0.9,5,1.4c38.5,13.3,78.9,18.5,120.6,17.8c27-0.4,53.9-3,80.6-6.1
		c44-5.1,87.6-12.1,132-14.6c21-1.2,41.9-1.3,62.8,1.7c6.2,0.9,12.5,2,18.4,3c0.1-6.3,0.1-12.6,0.2-18.9
		C404.9,158.5,381.4,162.1,357.9,166.4z"/>
	<g>
		<path fill="#FFFFFF" d="M233.9,139.3c0,0.2-0.2,0.5-0.6,1c-3.5,3.5-6.4,5.2-8.7,5.2c-0.4,0-0.9,0-1.4,0c-0.6,1.1-1.8,2.5-3.4,4.1
			c-1.6,1.6-3.1,2.7-4.3,3.5c-1.2,0.8-2.5,1.1-3.8,1.1c-1,0-1.9-0.4-2.6-1.3c-0.8-0.9-1.1-1.8-1.1-2.8c0-0.7,0.2-1.5,0.6-2.4
			l6.5-14.4l6.5-0.5c-1.5,2-3,4.4-4.4,7.1c-1.7,3.3-2.6,5.9-2.6,7.7c0,0.4,0.1,0.8,0.4,1.4c0.2,0.6,0.5,0.8,0.8,0.8
			c2.2,0,4.3-1.6,6.5-4.8c-1.2-1.2-1.7-2.5-1.7-3.9c0-2,0.7-4.1,2-6.5c1.5-2.6,3.1-3.9,5-3.9c1.6,0,2.4,1.1,2.4,3.3
			c0,2.8-1.9,6.3-5.6,10.6h0.6c1.3,0,3.1-0.9,5.4-2.8c2.3-1.8,3.4-2.8,3.3-2.8C233.7,138.9,233.9,139,233.9,139.3z M228,136.1
			c0-0.7-0.4-1-1.1-1c-1.3,0-2.5,0.7-3.5,2c-1.1,1.3-1.6,2.6-1.6,3.9c0,1.2,0.4,2.2,1.2,3C226.3,140.1,228,137.5,228,136.1z"/>
		<path fill="#FFFFFF" d="M242.1,144.1c0,1.7-1.3,3.8-4,6.5c-2.7,2.6-4.9,3.9-6.6,3.9c-1.8,0-2.7-1.3-2.7-3.8c0-1.4,0.5-2.9,1.5-4.7
			l2.5-4.4c0.3-0.7,1.3-2.9,2.9-6.8h6c-3,5.3-5.3,10.1-6.8,14.4l0.6,0.4c1.4-0.5,2.6-1.5,3.6-3c1.1-1.7,1.9-2.8,2.5-3.1h0.2
			C242,143.7,242.1,143.8,242.1,144.1z M244.8,127.7c0,1.3-0.2,2.2-0.7,2.6c-0.5,0.4-1.3,0.6-2.6,0.6c-1.5,0-2.3-0.4-2.3-1.1v-2.5
			c0-0.5,0.5-1,1.4-1.4c0.9-0.5,1.7-0.7,2.3-0.7C244.2,125.3,244.8,126.1,244.8,127.7z"/>
		<path fill="#FFFFFF" d="M266.9,139.3c0,0.2-0.2,0.5-0.6,1c-3.5,3.5-6.4,5.2-8.7,5.2c-0.4,0-0.9,0-1.4,0c-0.6,1.1-1.8,2.5-3.4,4.1
			c-1.6,1.6-3.1,2.7-4.3,3.5c-1.2,0.8-2.5,1.1-3.8,1.1c-1,0-1.9-0.4-2.6-1.3c-0.8-0.9-1.1-1.8-1.1-2.8c0-0.7,0.2-1.5,0.6-2.4
			l6.5-14.4l6.5-0.5c-1.5,2-3,4.4-4.4,7.1c-1.7,3.3-2.6,5.9-2.6,7.7c0,0.4,0.1,0.8,0.4,1.4c0.2,0.6,0.5,0.8,0.8,0.8
			c2.2,0,4.3-1.6,6.5-4.8c-1.2-1.2-1.7-2.5-1.7-3.9c0-2,0.7-4.1,2-6.5c1.5-2.6,3.1-3.9,5-3.9c1.6,0,2.4,1.1,2.4,3.3
			c0,2.8-1.9,6.3-5.6,10.6h0.6c1.3,0,3.1-0.9,5.4-2.8c2.3-1.8,3.4-2.8,3.3-2.8C266.8,138.9,266.9,139,266.9,139.3z M261,136.1
			c0-0.7-0.4-1-1.1-1c-1.3,0-2.5,0.7-3.5,2c-1.1,1.3-1.6,2.6-1.6,3.9c0,1.2,0.4,2.2,1.2,3C259.3,140.1,261,137.5,261,136.1z"/>
		<path fill="#FFFFFF" d="M281.4,136.5c0,2.6-1.4,4.9-4.1,6.9c-2.2,1.6-4.8,2.7-7.8,3.3c-0.6,1.4-0.8,2.5-0.8,3.3
			c0,0.9,0.3,1.4,1,1.4c1.6,0,3.2-0.7,4.8-2c0.7-0.6,1.9-1.9,3.6-3.8c1.2-1.4,2-2,2.5-2c0.1,0,0.2,0.1,0.2,0.3c0,0.4-1.1,2-3.4,4.9
			c-3.2,4-6.5,6-9.8,6c-3.2,0-4.7-1.5-4.7-4.5c0-3.6,1.6-7.4,4.8-11.4c3.4-4.2,6.8-6.2,10.4-6.2
			C280.3,132.5,281.4,133.8,281.4,136.5z M279.1,136c0-0.6-0.1-1-0.3-1.4c-0.2-0.1-0.3-0.1-0.5-0.1c-1.2,0-2.8,1.5-4.8,4.6
			c-1.5,2.3-2.6,4.4-3.5,6.4c2.1-0.5,4.1-1.7,6-3.5C278,139.9,279.1,138,279.1,136z"/>
		<path fill="#FFFFFF" d="M310.8,113.6c0,1.3-0.4,2.7-1.3,4.2c-3.6,6.3-8.9,12.6-15.9,18.6c-1.2,1-3,2.5-5.4,4.5
			c-0.5,0.5-1.1,1.7-1.7,3.7c-0.6,1.8-0.9,3.2-0.9,4.2l0.6,1.4c0.1,0,0.2,0.1,0.3,0.1c0.8,0,1.9-0.9,3.4-2.6
			c1.5-1.8,2.5-2.6,2.9-2.6c0.2,0,0.3,0.1,0.3,0.3c0,0.5-0.8,1.7-2.5,3.6c-3.3,3.9-5.7,5.9-7.2,5.9c-0.9,0-1.7-0.3-2.3-1
			c-0.6-0.7-0.9-1.5-0.9-2.4c0-2.3,0.7-5.3,2-8.8c2.4-6.5,6-12.8,10.7-19c5.9-7.8,10.9-11.7,15-11.7
			C309.8,111.7,310.8,112.3,310.8,113.6z M309.1,114.7c-0.4-0.8-0.7-1.1-1-1.1c-2.5,0-6.2,3.5-11.1,10.6c-4.1,6-6.9,10.9-8.2,14.6
			c3.1-2.1,7-5.8,11.8-11.1C305.8,121.8,308.6,117.5,309.1,114.7z"/>
		<path fill="#FFFFFF" d="M316.5,132.6c-0.6,2.2-1.9,4.9-4.1,8.2c-2.4,3.6-3.9,6.3-4.5,8l0.5,0.3c1.5-0.5,2.8-1.6,4-3.3
			c1.2-1.7,1.9-2.7,2.1-2.8h0.2c0.1,0.2,0.2,0.4,0.2,0.6c0,1.5-1.3,3.7-3.9,6.3c-2.6,2.7-4.7,4-6.2,4c-1.2,0-2-0.3-2.5-0.9
			c-0.1-0.1-0.4-1-1-2.5c-1.3,2.3-3,3.4-5.2,3.4c-1,0-1.9-0.4-2.6-1.3c-0.8-0.9-1.1-1.8-1.1-2.8c0-2.9,1.9-6.5,5.7-10.9
			c3.8-4.4,7.1-6.6,9.9-6.6c0.3,0,0.9,0.2,1.6,0.6c0.7,0.4,1.3,0.6,1.6,0.6c0.2-0.1,0.4-0.4,0.4-0.8c0.4-0.3,1.2-0.5,2.4-0.5
			C315,132.5,315.9,132.5,316.5,132.6z M310,135.3c-0.1-0.5-0.5-0.7-1-0.7c-0.5,0-1.1,0.2-1.7,0.7v-0.1c-1.8,1.5-3.6,3.5-5.3,6
			c-2,2.9-2.9,5.3-2.9,7.3c0,0.8,0.3,1.2,1,1.2c0.9,0,2.7-2.1,5.4-6.4C307.9,139.6,309.4,136.9,310,135.3z"/>
	</g>
</g>
</svg>
