<?xml version="1.0" encoding="utf-8"?>
<!-- Generator: Adobe Illustrator 18.0.0, SVG Export Plug-In . SVG Version: 6.00 Build 0)  -->
<!DOCTYPE svg PUBLIC "-//W3C//DTD SVG 1.1//EN" "http://www.w3.org/Graphics/SVG/1.1/DTD/svg11.dtd">
<svg version="1.1" id="Layer_1" xmlns="http://www.w3.org/2000/svg" xmlns:xlink="http://www.w3.org/1999/xlink" x="0px" y="0px"
	 viewBox="0 0 634.8 262.1" enable-background="new 0 0 634.8 262.1" xml:space="preserve">
<g>
	<path fill="#7C8284" d="M65.1,229c2.3-0.3,4.9,0,7.3,0.5l2-35.7l-0.3-0.2l1.8-10.6l8.9-15.6L82,167l13.4-32.4l38.8-1.9l0,0.2
		l4.8,11.6l-3.9,26.3l-3.4-0.2c-0.8,4.4-1.4,8-1.3,8.6c0.3,1,2.3,3.5,3.7,5.3c14.2,12.3,20.4,26.3,20.4,26.3
		c4.3,7.2-4.9,17.1-8.3,18c-3.4,0.9-7.6-1.9-4.1-7.8c1.2-2,3-3.8,4.9-5.4L120.2,192l-0.3,0.1l-7.2-8l3.4-14.6l-3.7-0.3l-1.6-10.1
		l-4.2,11l-3.4-0.4c-4.8,9.2-11.8,23.3-12.4,24.2c-0.6,0.8-1.4,4-1.9,6.2c-0.8,18.8-8,32.3-8,32.3c-3,7.9-16.5,6.8-19.3,4.7
		C58.7,234.9,58.3,229.9,65.1,229z"/>
	<path fill="#7C8284" d="M60.8,42.7c0.2,8.8,2.6,11,2.6,11s0.1,0,0.4,0.1l-3.9,31.9l13.3,2.3L73,88.7l18.8,3.2l4.7,42.6v0l38.2-1.9
		l-2.2-43.9l13.3-8.7l-3.4-4.3l10.5-4.8L141.1,41c0.2-0.1,0.4-0.2,0.4-0.2s1.8-2.8-0.3-11.3c-2.1-8.5-13.4-7.1-12.3-2.9
		c1.1,4.2,3.4,9.9,3.4,9.9c-6.2-2.3-5.3,0.9-5.3,0.9c5.8,2.6,8.7,4.9,8.7,4.9c0,0,0,0,0,0l4.9,23.6l-4.1,2l-2.7-3.5l-5,4.6l-5.4,2.5
		c0-0.1,0-0.2,0-0.2l-4.9,2.3c0,0,0,0.1,0,0.1l-2.7,1.3l-1.6-15.4c0,0,3.3-1.1,2.8-4.9c-0.2-1.3-0.7-1.9-1.3-2.1
		c0.3,0.1,0.5,0.1,0.5,0.1c3.3-10.2-2.5-16.6-2.5-16.6c-14.6-6.3-21.6,0.3-21.6,0.3c-5.8,6.4,0.3,14.4,0.3,14.4c0-0.4,0-0.7,0-1
		l1.3,17.7c0.3,2.4,7.5,3.2,10,3.3l-0.2,0.5l0.2,4.7l-0.7-0.1h0.3v0.4L99,75.8c0,0.1-0.1,0.2,0,0.4l-2.1-0.1l-20.2-0.3l-0.9,3
		l-5.2-1.1l-1.2-24.1c0,0,0,0,0,0c0,0,2.3-3,7.2-6.9c0,0,0-3.4-5.4,0.4c0,0,0.8-6.1,0.8-10.4C72,32.5,60.6,33.9,60.8,42.7z
		 M115,52.6c-1,0-2.1,0.7-2.1,0.7l0,0C113.4,52.7,114.2,52.6,115,52.6z"/>
</g>
<g>
	<path fill="#7C8284" d="M225.3,231.1c-2.2-0.7-4.8-0.8-7.2-0.7l4.1-35.5l0.3-0.1l0-10.8l-6.1-16.9l2.8,0.1l-7.7-34.2l-37.9-8.5
		l0,0.2l-6.7,10.7l-0.6,26.6l3.4,0.3c0.1,4.4,0.1,8.2-0.2,8.7c-0.4,0.9-2.8,3.1-4.6,4.6c-16.1,9.8-24.5,22.5-24.5,22.5
		c-5.5,6.4,1.9,17.7,5.2,19.2c3.2,1.5,7.8-0.6,5.4-7c-0.8-2.2-2.3-4.3-3.9-6.1l30.3-18.9l0.3,0.2l8.4-6.7l-0.9-14.9l3.7,0.4l3.3-9.7
		l2.3,11.5l3.5,0.2c3.2,9.8,7.7,25,8.1,25.9c0.5,0.9,0.7,4.2,0.8,6.4c-2.4,18.7,2.4,33.2,2.4,33.2c1.6,8.3,15.1,9.5,18.3,7.9
		C230.6,238,231.9,233.1,225.3,231.1z"/>
	<path fill="#7C8284" d="M251.1,40.5c-0.7,4.3-1,10.4-1,10.4c-4.6-4.7-5.2-1.3-5.2-1.3c4.2,4.7,5.9,8,5.9,8c0,0,0,0,0,0l-5.3,23.5
		l-5.3,0.2l-0.3-3.1L220,75l-2-0.3c0-0.1,0.1-0.2,0.1-0.3l-4.4-0.2v0l0,0L213,74l1-4.8l-0.1-0.5c2.4,0.3,9.7,0.7,10.4-1.6l4.3-17.3
		c0,0.3-0.1,0.7-0.1,1c0,0,7.3-6.9,2.7-14.1c0,0-5.8-7.6-21.2-3.9c0,0-6.8,5.3-5.2,15.9c0,0,0.2,0,0.5,0c-0.6,0.1-1.2,0.6-1.6,1.9
		c-1.1,3.7,1.9,5.3,1.9,5.3l-4.2,14.9l-2.5-1.7c0,0,0-0.1,0.1-0.1l-4.4-3.1c0,0,0,0.1-0.1,0.2l-4.9-3.4l-4.1-5.4l-3.3,3l-3.7-2.7
		l8.8-22.4c0,0,0,0,0,0c0,0,3.3-1.8,9.4-3.3c0,0,1.4-3.1-5.1-1.8c0,0,3.2-5.2,5-9.2c1.8-3.9-9.2-7.3-12.6,0.8
		c-3.5,8-2.2,11.1-2.2,11.1s0.1,0.1,0.3,0.2l-16.7,27.4l9.5,6.5l-4.1,3.7l11.6,10.9l-10,42.9l36.9,8.3v0l12.3-41.2l19.3,0.1l0-0.8
		l13.6,0l1.6-32.1c0.3,0,0.4,0,0.4,0s2.8-1.8,4.4-10.4C262.8,39.6,251.8,36.2,251.1,40.5z M208,49.8L208,49.8c0,0-0.9-0.8-1.9-1
		C206.8,48.9,207.6,49.1,208,49.8z"/>
</g>
<g>
	<path fill="#7C8284" d="M259.1,229.2c2.2-0.7,4.8-0.8,7.2-0.7l-4.1-35.5l-0.3-0.1l0-10.8l6.1-16.9l-2.8,0.1L273,131l37.9-8.5l0,0.2
		l6.7,10.7l0.6,26.6l-3.4,0.3c-0.1,4.4-0.1,8.2,0.2,8.7c0.4,0.9,2.8,3.1,4.6,4.6c16.1,9.8,24.5,22.5,24.5,22.5
		c5.5,6.4-1.9,17.7-5.2,19.2c-3.2,1.5-7.8-0.6-5.4-7c0.8-2.2,2.3-4.3,3.9-6.1l-30.3-18.9l-0.3,0.2l-8.4-6.7l0.9-14.9l-3.7,0.4
		l-3.3-9.7l-2.3,11.5l-3.5,0.2c-3.2,9.8-7.7,25-8.1,25.9c-0.5,0.9-0.7,4.2-0.8,6.4c2.4,18.7-2.4,33.2-2.4,33.2
		c-1.6,8.3-15.1,9.5-18.3,7.9C253.8,236.1,252.5,231.2,259.1,229.2z"/>
	<path fill="#7C8284" d="M223.3,46.3c1.6,8.6,4.4,10.4,4.4,10.4s0.2,0,0.4,0l1.6,32.1l13.6,0l-0.1,0.8l19.3-0.1l12.1,41.2v0
		l37.1-8.3l-9.8-42.9l11.6-10.9l-4.1-3.7l9.5-6.5l-16.7-27.4c0.2-0.1,0.3-0.2,0.3-0.2s1.3-3-2.2-11.1c-3.5-8-14.4-4.7-12.6-0.8
		s5,9.2,5,9.2c-6.5-1.3-5.1,1.8-5.1,1.8c6.1,1.6,9.4,3.3,9.4,3.3c0,0,0,0,0,0l8.8,22.4l-3.7,2.7l-3.3-3l-4.1,5.4l-4.9,3.4
		c0-0.1-0.1-0.2-0.1-0.2l-4.4,3.1c0,0,0,0.1,0.1,0.1L283,69l-4.2-14.9c0,0,3-1.6,1.9-5.3c-0.4-1.2-1-1.7-1.6-1.9c0.3,0,0.5,0,0.5,0
		c1.5-10.6-5.2-15.9-5.2-15.9c-15.4-3.7-21.2,3.9-21.2,3.9c-4.6,7.3,2.7,14.1,2.7,14.1c-0.1-0.4-0.1-0.7-0.1-1l4.3,17.3
		c0.7,2.3,8,1.9,10.4,1.6l-0.1,0.5l1,4.8l-0.6,0.2l0,0v0l-4.4,0.2c0,0.1,0.1,0.2,0.1,0.3l-2,0.3l-19.9,3.1l-0.3,3.1l-5.3-0.2
		l-5.3-23.5c0,0,0,0,0,0c0,0,1.7-3.3,5.9-8c0,0-0.6-3.3-5.2,1.3c0,0-0.3-6.1-1-10.4C232.6,34.3,221.6,37.7,223.3,46.3z M278.4,46.9
		c-1,0.2-1.9,1-1.9,1l0,0C276.8,47.2,277.6,47,278.4,46.9z"/>
</g>
<g>
	<path fill="#7C8284" d="M395.8,229.2c-2.2-0.7-4.8-0.8-7.2-0.7l4.1-35.5l0.3-0.1l0-10.8l-6.1-16.9l2.8,0.1l-7.7-34.2l-37.9-8.5
		l0,0.2l-6.7,10.7l-0.6,26.6l3.4,0.3c0.1,4.4,0.1,8.2-0.2,8.7c-0.4,0.9-2.8,3.1-4.6,4.6c-16.1,9.8-24.5,22.5-24.5,22.5
		c-5.5,6.4,1.9,17.7,5.2,19.2c3.2,1.5,7.8-0.6,5.4-7c-0.8-2.2-2.3-4.3-3.9-6.1l30.3-18.9l0.3,0.2l8.4-6.7l-0.9-14.9l3.7,0.4l3.3-9.7
		l2.3,11.5l3.5,0.2c3.2,9.8,7.7,25,8.1,25.9c0.5,0.9,0.7,4.2,0.8,6.4c-2.4,18.7,2.4,33.2,2.4,33.2c1.6,8.3,15.1,9.5,18.3,7.9
		C401.1,236.1,402.3,231.2,395.8,229.2z"/>
	<path fill="#7C8284" d="M421.6,38.6c-0.7,4.3-1,10.4-1,10.4c-4.6-4.7-5.2-1.3-5.2-1.3c4.2,4.7,5.9,8,5.9,8c0,0,0,0,0,0L416,79.3
		l-5.3,0.2l-0.3-3.1l-19.9-3.1l-2-0.3c0-0.1,0.1-0.2,0.1-0.3l-4.4-0.2v0l0,0l-0.6-0.2l1-4.8l-0.1-0.5c2.4,0.3,9.7,0.7,10.4-1.6
		l4.3-17.3c0,0.3-0.1,0.7-0.1,1c0,0,7.3-6.9,2.7-14.1c0,0-5.8-7.6-21.2-3.9c0,0-6.8,5.3-5.2,15.9c0,0,0.2,0,0.5,0
		c-0.6,0.1-1.2,0.6-1.6,1.9c-1.1,3.7,1.9,5.3,1.9,5.3L371.9,69l-2.5-1.7c0,0,0-0.1,0.1-0.1l-4.4-3.1c0,0,0,0.1-0.1,0.2l-4.9-3.4
		l-4.1-5.4l-3.3,3l-3.7-2.7l8.8-22.4c0,0,0,0,0,0c0,0,3.3-1.8,9.4-3.3c0,0,1.4-3.1-5.1-1.8c0,0,3.2-5.2,5-9.2s-9.2-7.3-12.6,0.8
		c-3.5,8-2.2,11.1-2.2,11.1s0.1,0.1,0.3,0.2l-16.7,27.4l9.5,6.5l-4.1,3.7l11.6,10.9l-9.8,42.9l37.2,8.3v0l12.1-41.2l19.2,0.1
		l-0.1-0.8l13.6,0l1.6-32.1c0.3,0,0.4,0,0.4,0s2.8-1.8,4.4-10.4C433.2,37.7,422.3,34.3,421.6,38.6z M378.5,47.9L378.5,47.9
		c0,0-0.9-0.8-1.9-1C377.3,47,378.1,47.2,378.5,47.9z"/>
</g>
<g>
	<path fill="#7C8284" d="M416.1,224.6c2.3-0.4,4.9-0.3,7.3,0.1l0-35.7l-0.3-0.2l1.3-10.7l8-16.1l-2.8-0.2l11.6-33.1l38.6-4.1l0,0.2
		l5.5,11.4l-2.5,26.5l-3.4-0.1c-0.6,4.4-1,8.1-0.8,8.7c0.3,1,2.5,3.4,4,5.1c14.9,11.5,21.8,25.2,21.8,25.2c4.7,7-4,17.4-7.3,18.5
		c-3.4,1.1-7.7-1.5-4.5-7.6c1.1-2.1,2.8-4,4.6-5.6l-28-22.2l-0.3,0.1l-7.6-7.6l2.6-14.7l-3.7-0.1l-2.2-10l-3.6,11.2l-3.5-0.2
		c-4.3,9.4-10.5,23.9-11.1,24.8c-0.6,0.8-1.2,4.1-1.5,6.3c0.2,18.8-6.2,32.7-6.2,32.7c-2.5,8.1-16.1,7.7-19,5.7
		C410,230.9,409.3,225.9,416.1,224.6z"/>
	<path fill="#7C8284" d="M401.5,38.9c0.6,8.7,3.2,10.8,3.2,10.8s0.2,0,0.4,0l-2.1,32l13.5,1.6l-0.2,0.8l19.5,2.1l7.7,42.3v0l37.4-4
		l-5-43.7l12.7-9.4l-3.7-4.2l10.2-5.3l-13.4-29.2c0.2-0.1,0.4-0.2,0.4-0.2s1.6-2.9-0.9-11.2c-2.5-8.4-13.8-6.3-12.5-2.2
		c1.4,4.1,3.9,9.7,3.9,9.7c-6.3-2-5.2,1.2-5.2,1.2c5.9,2.2,9,4.4,9,4.4c0,0,0,0,0,0l6.2,23.3l-4,2.2l-2.9-3.3l-4.7,4.9l-5.2,2.8
		c0-0.1,0-0.2,0-0.2l-4.7,2.5c0,0,0,0.1,0,0.1l-2.6,1.4L455.8,53c0,0,3.2-1.3,2.5-5.1c-0.2-1.3-0.8-1.8-1.4-2c0.3,0,0.5,0.1,0.5,0.1
		c2.7-10.4-3.4-16.4-3.4-16.4c-14.9-5.5-21.5,1.4-21.5,1.4c-5.4,6.7,1.1,14.3,1.1,14.3c0-0.4,0-0.7,0-1l2.3,17.6
		c0.4,2.4,7.7,2.8,10.1,2.8l-0.1,0.5l0.4,4.8l-0.6,0h0.8v0l-4.8-0.2c0,0.1-0.2,0.3-0.1,0.4l-2.2,0.1l-20.2,0.8l-0.7,3.1l-5.3-0.8
		l-2.5-24c0,0,0,0,0,0c0,0,2.1-3.1,6.8-7.3c0,0-0.2-3.4-5.3,0.7c0,0,0.4-6.1,0.2-10.5C412.2,28,400.9,30.2,401.5,38.9z M456.2,45.8
		c-1,0.1-2,0.8-2,0.8l0,0C454.6,45.9,455.5,45.8,456.2,45.8z"/>
</g>
<g>
	<path fill="#7C8284" d="M601,219.3c-2.3-0.2-4.9,0.2-7.2,0.9l-3.7-35.5l0.3-0.2l-2.4-10.5l-9.6-15.2l2.8-0.5l-15-31.8l-38.8-0.1
		l0,0.2l-4.3,11.9l5.2,26.1l3.4-0.4c1.1,4.3,1.8,8,1.7,8.5c-0.2,1-2.1,3.7-3.4,5.5c-13.6,13-19.1,27.3-19.1,27.3
		c-4,7.4,5.8,16.9,9.2,17.6c3.5,0.7,7.5-2.3,3.7-8c-1.3-2-3.2-3.7-5.2-5.1l25.5-25l0.3,0.1l6.8-8.4l-4.1-14.4l3.7-0.4l1.1-10.2
		l4.7,10.8l3.4-0.6c5.2,8.9,12.9,22.7,13.6,23.5c0.6,0.8,1.6,3.9,2.2,6.1c1.8,18.8,9.6,31.9,9.6,31.9c3.4,7.7,16.8,6,19.5,3.7
		C607.7,225,607.8,219.9,601,219.3z"/>
	<path fill="#7C8284" d="M584.8,27.7c0.2,4.3,1.3,10.4,1.3,10.4c-5.5-3.5-5.4-0.2-5.4-0.2c5.1,3.7,7.5,6.6,7.5,6.6c0,0,0,0,0,0
		l0,24.1l-5.2,1.3l-1-3l-20.1,1.3l-2,0.2c0-0.1,0-0.2,0-0.4l-4.4,0.7l0,0l0,0l-0.7,0l-0.1-4.9l-0.2-0.5c2.4-0.2,9.6-1.4,9.8-3.8
		l0.5-17.8c0,0.3,0.1,0.7,0.1,1c0,0,5.6-8.3-0.4-14.4c0,0-7.3-6.2-21.6,0.8c0,0-5.4,6.7-1.6,16.7c0,0,0.2-0.1,0.5-0.2
		c-0.6,0.3-1.1,0.9-1.2,2.2c-0.3,3.9,3,4.8,3,4.8l-0.9,15.5l-2.8-1.1c0-0.1,0-0.1,0-0.1l-5-2c0,0,0,0.1,0,0.2l-5.5-2.2l-5.2-4.4
		l-2.5,3.6l-4.2-1.8l3.7-23.8c0,0,0,0,0,0c0,0,2.8-2.5,8.5-5.3c0,0,0.7-3.3-5.3-0.7c0,0,2-5.8,2.9-10c0.9-4.2-10.5-5.1-12.2,3.5
		c-1.6,8.6,0.3,11.3,0.3,11.3s0.1,0.1,0.4,0.1l-10.3,30.4l10.7,4.3l-3.2,4.5l13.7,8.1l0.2,44l38.5,0v0l2.4-42.8l18.5-4l-0.4-0.8
		l13.2-3l-5.4-31.6c0.2-0.1,0.4-0.1,0.4-0.1s2.3-2.3,2-11.1C596,24.3,584.5,23.4,584.8,27.7z M544.7,46.2L544.7,46.2
		c0,0-1.1-0.6-2.1-0.5C543.3,45.5,544.2,45.6,544.7,46.2z"/>
</g>
<path fill="#231F20" d="M245,55.1c0,0,2.6,17.4-4,20.8s0,3.4,1.9,2.5c0,0-1.2,5.7,3.7,2.6S257.3,59,245,55.1z"/>
<path fill="#F9BD91" d="M97.5,46.6l4.7,23.6l-8.9,4.3l4.9,8l16.3-7.2l-12.8-33.4C101.6,41.8,97.3,44.7,97.5,46.6z"/>
<path fill="#F9BD91" d="M97.5,46.6c0,0-2.9-2.3-8.7-5c0,0-0.8-3.3,5.3-0.9c0,0-2.2-5.7-3.3-9.9c-1.1-4.2,10.3-5.5,12.3,3
	c2,8.5,0.2,11.3,0.2,11.3S99.3,46.9,97.5,46.6z"/>
<path fill="#F9BD91" d="M68.3,165.9c-0.8-0.4-16.3,30.5-17.2,31.7s-2.4,8.4-2.4,8.4l-14.2-8.8l1.9-10.6l15.3-26.3L68.3,165.9z"/>
<path fill="#407B59" d="M34.8,197.2l-2.5,37.9l8.6,0.9c0,0,7.7-14.2,8.4-33.9C49.3,202.1,43.4,195.8,34.8,197.2z"/>
<path fill="#050503" d="M40.9,236c0,0-8.9-4.4-15.7-3.6c-6.8,0.8-6.5,5.9-3.7,8S37.8,243.9,40.9,236z"/>
<path fill="#F9BD91" d="M96.4,158.2c-0.8,0.4-5.9,23.6-5.5,25.2c0.4,1.5,5.1,7.1,5.1,7.1l-15.7,5.7l-7.1-8.1l7.5-30.6L96.4,158.2z"
	/>
<path fill="#407B59" d="M80.4,195.9l28.2,25.5l6.1-6.2c0,0-6.4-14.9-21.4-27.6C93.3,187.6,84.8,188.3,80.4,195.9z"/>
<path fill="#050503" d="M114.7,215.2c0,0-9,4.2-12.5,10.1c-3.6,5.9,0.6,8.7,4,7.9C109.6,232.3,119,222.5,114.7,215.2z"/>
<path fill="#F9BD91" d="M31,57.3l1,24.1l9.7,2.1l-2.9,8.9l-17.5-3.2L26,53.6C26,53.6,30.8,55.4,31,57.3z"/>
<polygon fill="#FFFFFF" points="57.5,138.3 53.2,95.6 34.4,92.3 38.1,79.4 58.3,79.9 64.7,80.2 77.3,79.2 90.3,73.3 95.4,68.7 
	107.3,84.2 93.9,92.8 95.7,136.7 57.5,138.3 "/>
<polygon fill="#22B573" points="99.9,148.7 95.7,175 73.1,173.2 71.5,163.1 67.2,174 42.7,170.7 56.4,138.4 95.1,136.8 95.1,137 "/>
<path fill="#F9BD91" d="M53.6,44.1l1.8,27.3c0.3,2.4,7.5,3.3,9.9,3.4l-0.2,0.5l0.2,7.5c0,0,2.2,10.1,12.3,0l-1.8-19.1
	c0,0,3.3-1,2.8-4.9c-0.4-3.9-4.1-1.6-4.1-1.6L73,43.5L53.6,44.1z"/>
<path fill="#F9BD91" d="M31.1,57.3c0,0,2.3-3,7.3-6.9c0,0,0-3.4-5.4,0.4c0,0,0.8-6.1,0.9-10.4c0.1-4.3-11.3-3-11.2,5.8
	s2.5,11,2.5,11S29.4,58,31.1,57.3z"/>
<path fill="#231F20" d="M54.2,48.6c0,0-5.9-1.9-0.1-8.3c0,0,7.1-6.5,21.6-0.1c0,0,5.7,6.4,2.3,16.6c0,0-3.2-1.3-3.7,1.8
	c-0.6,3-1,5-1,5l-2.8-0.4c0,0,3.2-13.8,0.1-18.3C70.6,44.9,72.6,50.4,54.2,48.6z"/>
<g>
	<g>
		<path fill="#22B573" d="M71.1,110.8c-0.4,0-0.7,0.2-0.7,0.8l0,0.9l-1.3,0l0-0.8c0-1.4,0.7-2.1,2-2.1c1.3,0,2,0.8,2,2.1
			c0,2.8-2.8,3.8-2.6,5.2l2.5,0l0,1.2l-3.8,0l0-1c0-2.5,2.6-2.9,2.6-5.4C71.8,111,71.6,110.8,71.1,110.8z"/>
		<path fill="#22B573" d="M77.8,109.6l0,1.2l-1.9,7.3l-1.3,0l1.9-7.3l-2.6,0l0-1.2L77.8,109.6z"/>
	</g>
	<g>
		<path fill="#22B573" d="M73.5,124.2c-5.7,0.1-10.3-4.5-10.3-10.2s4.5-10.3,10.2-10.3c5.7-0.1,10.3,4.5,10.3,10.2
			C83.7,119.5,79.2,124.2,73.5,124.2z M73.4,104.9c-5,0-9,4.1-9,9.1c0,5,4.1,9,9.1,9c5,0,9-4.1,9-9.1
			C82.4,108.9,78.3,104.9,73.4,104.9z"/>
	</g>
</g>
<path fill="#ED1C24" d="M64.7,80.2c0,0-1.9,10.2,7.5,16.8c0,0,11.1-7.2,7.8-19.2l4.9-2.2c0,0,3.1,17.9-12.1,24.9
	c0,0-11-3.4-12.6-20.8L64.7,80.2z"/>
<circle fill="#FBB03B" cx="72.9" cy="98.8" r="4.2"/>
<g>
	<g>
		<path fill="#F9BD91" d="M144.5,42.7l-8.8,22.4l8,5.8l-6.2,7l-14.7-10l18.6-30.6C141.3,37.2,145,40.8,144.5,42.7z"/>
		<path fill="#F9BD91" d="M144.5,42.7c0,0,3.3-1.8,9.4-3.3c0,0,1.4-3.1-5.1-1.8c0,0,3.2-5.2,5-9.2s-9.2-7.3-12.6,0.8
			c-3.5,8-2.2,11.1-2.2,11.1S142.7,42.7,144.5,42.7z"/>
		<path fill="#F9BD91" d="M151.9,165.3c0.9-0.3,10.6,32.9,11.3,34.3c0.7,1.4,0.9,8.7,0.9,8.7l15.5-6.1l0-10.8l-10.3-28.6
			L151.9,165.3z"/>
		<path fill="#407B59" d="M179.3,202l-4.3,37.8l-8.6-0.6c0,0-5-15.4-2.2-34.9C164.2,204.3,171,199.2,179.3,202z"/>
		<path fill="#050503" d="M166.3,239.2c0,0,9.5-2.7,16.1-0.7s5.3,6.9,2.2,8.6S167.9,247.5,166.3,239.2z"/>
		<path fill="#F9BD91" d="M125.6,152.7c0.8,0.5,1.6,24.3,0.9,25.7c-0.7,1.4-6.3,6.1-6.3,6.1l14.4,8.4l8.4-6.7l-1.9-31.5L125.6,152.7
			z"/>
		<path fill="#407B59" d="M134.6,192.6l-32.3,20.1l-4.9-7.1c0,0,8.9-13.5,26-23.4C123.5,182.2,131.7,184.4,134.6,192.6z"/>
		<path fill="#050503" d="M97.5,205.5c0,0,8.1,5.8,10.5,12.2c2.5,6.4-2.1,8.5-5.4,7C99.4,223.3,92,211.9,97.5,205.5z"/>
		<path fill="#F9BD91" d="M208,65.1l-5.3,23.5l-9.9,0.3l1.2,9.2l17.8,0l1.8-35.8C213.7,62.3,208.6,63.3,208,65.1z"/>
		<g>
			<polygon fill="#FFFFFF" points="167.5,140 179.4,98.9 198.5,99 197.1,85.6 177.2,82.5 170.8,81.6 158.6,78.4 146.8,70.2 
				142.7,64.8 128.2,78 139.8,88.8 130.2,131.7 167.5,140 			"/>
			<polygon fill="#22B573" points="123.9,142.8 123.4,169.4 145.9,171.7 149.3,161.9 151.6,173.5 176.3,174.6 168.6,140.4 
				130.7,131.9 130.7,132.1 			"/>
		</g>
		<path fill="#F9BD91" d="M188.1,48.1l-6.6,26.5c-0.7,2.3-8,1.9-10.4,1.6l0.1,0.5l-1.5,7.3c0,0-4,9.6-12.1-2.2l5.2-18.5
			c0,0-3-1.6-1.9-5.3s4.3-0.8,4.3-0.8l4.1-13.3L188.1,48.1z"/>
		<path fill="#F9BD91" d="M208,65.1c0,0-1.7-3.3-5.9-8c0,0,0.6-3.3,5.2,1.3c0,0,0.3-6.1,1-10.4s11.7-0.9,10,7.7
			c-1.6,8.6-4.4,10.4-4.4,10.4S209.5,66.1,208,65.1z"/>
		<path fill="#231F20" d="M185.7,58.4c0,0,7.3-6.9,2.7-14.1c0,0-5.8-7.6-21.2-3.9c0,0-6.8,5.3-5.2,15.9c0,0,3.9-0.6,3.4,2.4
			c-0.5,3,0,3.1,0,3.1l2.4-0.3c0,0-0.2-11.8,3.6-15.6C171.3,45.8,187.6,47.9,185.7,58.4z"/>
	</g>
	<g>
		<g>
			<path fill="#22B573" d="M146.1,111.4c1.1-5.5,6.4-9.2,12-8.1c5.5,1.1,9.2,6.4,8.1,12c-1.1,5.5-6.4,9.2-12,8.1
				S145,116.9,146.1,111.4z M147.3,111.6c-0.9,4.9,2.3,9.6,7.2,10.6c4.9,0.9,9.6-2.3,10.6-7.2c0.9-4.9-2.3-9.6-7.2-10.6
				C153,103.5,148.2,106.7,147.3,111.6z"/>
		</g>
	</g>
	<path fill="#ED1C24" d="M170.8,81.6c0,0,0.1,10.4-10.4,15.2c0,0-9.6-9.1-4.2-20.3l-4.4-3.1c0,0-6.2,17.1,7.4,26.6
		c0,0,11.4-1.4,16.1-18.2L170.8,81.6z"/>
	<circle fill="#FBB03B" cx="159.4" cy="98.5" r="4.2"/>
</g>
<g>
	<g>
		<path fill="#C69C6D" d="M225.1,49.4L220.4,73l8.9,4.3l-4.9,8L208.2,78L221,44.6C221,44.6,225.3,47.5,225.1,49.4z"/>
		<path fill="#C69C6D" d="M225.1,49.4c0,0,2.9-2.3,8.7-5c0,0,0.8-3.3-5.3-0.9c0,0,2.2-5.7,3.3-9.9s-10.3-5.5-12.3,3
			c-2,8.5-0.2,11.3-0.2,11.3S223.4,49.7,225.1,49.4z"/>
		<path fill="#F9BD91" d="M254.3,168.7c0.8-0.4,16.3,30.5,17.2,31.7c1,1.3,2.4,8.4,2.4,8.4l14.2-8.8l-1.9-10.6l-15.3-26.3
			L254.3,168.7z"/>
		<path fill="#407B59" d="M287.9,200l2.5,37.9l-8.6,0.9c0,0-7.7-14.2-8.4-33.9C273.4,204.9,279.2,198.6,287.9,200z"/>
		<path fill="#050503" d="M281.8,238.8c0,0,8.9-4.4,15.7-3.6c6.8,0.8,6.5,5.9,3.7,8C298.3,245.5,284.8,246.7,281.8,238.8z"/>
		<path fill="#F9BD91" d="M226.2,161c0.8,0.4,5.9,23.6,5.5,25.2s-5.1,7.1-5.1,7.1l15.7,5.7l7.1-8.1l-7.5-30.6L226.2,161z"/>
		<path fill="#407B59" d="M242.2,198.7L214,224.2L208,218c0,0,6.4-14.9,21.4-27.6C229.4,190.4,237.9,191.1,242.2,198.7z"/>
		<path fill="#050503" d="M208,218c0,0,9,4.2,12.5,10.1c3.6,5.9-0.6,8.7-4,7.9C213.1,235.1,203.7,225.3,208,218z"/>
		<path fill="#C69C6D" d="M291.6,60.1l-1,24.1l-9.7,2.1l2.9,8.9l17.5-3.2l-4.7-35.5C296.7,56.4,291.8,58.2,291.6,60.1z"/>
		<g>
			<polygon fill="#FFFFFF" points="265.5,141.1 269.7,98.4 288.4,95.1 284.6,82.2 264.4,82.7 258,83 245.3,82 232.3,76.1 
				225.3,72.2 215.4,87 228.8,95.6 227.1,139.5 265.5,141.1 			"/>
			<polygon fill="#22B573" points="222.8,151.5 227,177.8 249.6,176 251.1,165.9 255.5,176.8 280,173.5 266.3,141.2 227.5,139.6 
				227.5,139.8 			"/>
		</g>
		<path fill="#C69C6D" d="M269,46.9l-1.8,27.3c-0.3,2.4-7.5,3.3-9.9,3.4l0.2,0.5l-0.2,7.5c0,0-2.2,10.1-12.3,0l1.8-19.1
			c0,0-3.3-1-2.8-4.9c0.4-3.9,4.1-1.6,4.1-1.6l0.1-13.8L269,46.9z"/>
		<path fill="#C69C6D" d="M291.6,60.1c0,0-2.3-3-7.3-6.9c0,0,0-3.4,5.4,0.4c0,0-0.8-6.1-0.9-10.4c-0.1-4.3,11.3-3,11.2,5.8
			c-0.1,8.8-2.5,11-2.5,11S293.2,60.8,291.6,60.1z"/>
	</g>
	<g>
		<g>
			<path fill="#22B573" d="M239,116.7c0.1-5.7,4.7-10.2,10.3-10.2c5.7,0.1,10.2,4.7,10.2,10.3c-0.1,5.7-4.7,10.2-10.3,10.2
				C243.5,127,238.9,122.3,239,116.7z M240.2,116.7c0,5,4,9.1,9,9.1c5,0,9.1-4,9.1-9c0-5-4-9.1-9-9.1S240.2,111.7,240.2,116.7z"/>
		</g>
	</g>
	<path fill="#ED1C24" d="M258,83c0,0,1.9,10.2-7.5,16.8c0,0-11.1-7.2-7.8-19.2l-4.9-2.2c0,0-3.1,17.9,12.1,24.9
		c0,0,11-3.4,12.6-20.8L258,83z"/>
	<circle fill="#FBB03B" cx="249.8" cy="101.6" r="4.2"/>
</g>
<g>
	<path fill="#F9BD91" d="M315.9,42.2l-12.7,20.5l6.8,7.1l-7.3,5.7L290,63l23.8-26.8C313.8,36.2,316.8,40.5,315.9,42.2z"/>
	<path fill="#F9BD91" d="M325.1,168.7c0.8-0.4,16.3,30.5,17.2,31.7c1,1.3,2.4,8.4,2.4,8.4l14.2-8.8l-1.9-10.6l-15.3-26.3
		L325.1,168.7z"/>
	<path fill="#407B59" d="M358.7,200l2.5,37.9l-8.6,0.9c0,0-7.7-14.2-8.4-33.9C344.2,204.9,350,198.6,358.7,200z"/>
	<path fill="#050503" d="M352.5,238.8c0,0,8.9-4.4,15.7-3.6c6.8,0.8,6.5,5.9,3.7,8S355.6,246.7,352.5,238.8z"/>
	<path fill="#F9BD91" d="M297,161c0.8,0.4,5.9,23.6,5.5,25.2s-5.1,7.1-5.1,7.1l15.7,5.7l7.1-8.1l-7.5-30.6L297,161z"/>
	<path fill="#407B59" d="M313,198.7l-28.2,25.5l-6.1-6.2c0,0,6.4-14.9,21.4-27.6C300.2,190.4,308.7,191.1,313,198.7z"/>
	<path fill="#050503" d="M278.8,218c0,0,9,4.2,12.5,10.1c3.6,5.9-0.6,8.7-4,7.9C283.8,235.1,274.5,225.3,278.8,218z"/>
	<path fill="#F9BD91" d="M347.1,47.5l5.8,22.1l-13.2,7.7l5.5,6.7l19.6-8.3L351,42.6C351,42.6,346.8,45.6,347.1,47.5z"/>
	<g>
		<polygon fill="#81C6F6" points="336.5,141.1 336.9,92.7 350.3,83.6 347.2,72.7 333.5,78.5 326.4,77.8 319.9,76.4 314.8,74.3 
			309.3,65 296.4,76.4 305.2,85.5 298,139.5 336.5,141.1 		"/>
		<polygon fill="#363938" points="293.6,151.5 297.8,177.8 320.4,176 321.9,165.9 326.3,176.8 350.8,173.5 337.1,141.2 298.3,139.6 
			298.3,139.8 		"/>
	</g>
	<path fill="#F9BD91" d="M339.8,46.9L338,74.2c-0.3,2.4-7.5,3.3-9.9,3.4l0.2,0.5l-0.2,7.5c0,0-5.3,8.3-12.1-1.8l1.6-17.3
		c0,0-3.3-1-2.8-4.9s4.1-1.6,4.1-1.6l1.7-13.8L339.8,46.9z"/>
	<path fill="#231F20" d="M339.1,57.4c0,0,2.4-11.1,0.3-14.3c0,0-2.9-12.1-20.5-1.6c-2.3,1.4-3.9,3.6-4.4,6.2
		c-0.5,2.8-0.6,6.9,1,11.9c0,0,3.7-1.3,3.7,1.8s0.1,3.5,0.1,3.5L322,63c0,0-2.2-10.8,0.9-15.3c0,0,16.2-3.2,16.3,2.3
		C339.3,52.7,339.7,52.3,339.1,57.4z"/>
	<path fill="#F2F2F2" d="M345.5,48.9c0,0-4-3.1-11.8-6.4c0,0-1.2-4.4,7.1-1.4c0,0-3.2-7.6-4.8-13.2s13.7-7.8,16.6,3.6
		s0.6,15.1,0.6,15.1S347.9,49.3,345.5,48.9z"/>
	<g>
		<g>
			<path fill="#FFFFFF" d="M309.8,116.7c0.1-5.7,4.7-10.2,10.3-10.2c5.7,0.1,10.2,4.7,10.2,10.3c-0.1,5.7-4.7,10.2-10.3,10.2
				C314.3,127,309.7,122.3,309.8,116.7z M311,116.7c0,5,4,9.1,9,9.1c5,0,9.1-4,9.1-9s-4-9.1-9-9.1C315.1,107.7,311,111.7,311,116.7z
				"/>
		</g>
		<g>
			<path fill="#FFFFFF" d="M318.4,113c1.3,0,1.6-0.6,1.9-1.4h1.2v10.9h-1.7v-8.4h-1.3V113z"/>
		</g>
	</g>
	<path fill="#ED1C24" d="M328.8,78c0,0,1.3,14.1-8.2,20.7c0,0-8.2-3.3-3.7-23.5l-2.6-0.9c0,0-8.8,22,6.3,29c0,0,10.8-7.4,12.3-24.8
		L328.8,78z"/>
	<circle fill="#FBB03B" cx="320.6" cy="101.6" r="4.2"/>
	<circle fill="#B3B3B3" cx="331.8" cy="8.6" r="8.6"/>
	<path fill="#4D4D4D" d="M323.2,8.3c0,0-2.6,21.7,6.5,30.7h10.9c0,0-6.5-11.6-7.2-18.1C332.7,14.3,326.2,8.3,323.2,8.3z"/>
	<path fill="#666666" d="M323.9,39.4c0,0,1.6-15.6,5.1-20s8.2-5.4,11.2-10.7c0,0,0.7,4.9-4.9,12.3c-5.6,7.5-3.3,18.5-3.3,18.5
		L323.9,39.4z"/>
	<rect x="320.6" y="37.7" fill="#333333" width="22.8" height="3.5"/>
	<path fill="#F2F2F2" d="M314.8,46.9c0,0,5-1.6,13.8-2.2c0,0,2.7-3.9-6.5-3.8c0,0,5.7-6.4,9.2-11.4s-10.8-12.3-17.6-2.1
		S307.9,42,307.9,42S312.3,46.4,314.8,46.9z"/>
</g>
<g>
	<g>
		<path fill="#F9BD91" d="M438.5,50.3l4.7,23.6l-8.9,4.3l4.9,8l16.3-7.2l-12.8-33.4C442.6,45.5,438.3,48.4,438.5,50.3z"/>
		<path fill="#F9BD91" d="M438.5,50.3c0,0-2.9-2.3-8.7-5c0,0-0.8-3.3,5.3-0.9c0,0-2.2-5.7-3.3-9.9c-1.1-4.2,10.3-5.5,12.3,3
			s0.2,11.3,0.2,11.3S440.2,50.6,438.5,50.3z"/>
		<path fill="#F9BD91" d="M409.3,169.6c-0.8-0.4-16.3,30.5-17.2,31.7c-1,1.3-2.4,8.4-2.4,8.4l-14.2-8.8l1.9-10.6l15.3-26.3
			L409.3,169.6z"/>
		<path fill="#407B59" d="M375.7,200.9l-2.5,37.9l8.6,0.9c0,0,7.7-14.2,8.4-33.9C390.2,205.8,384.4,199.6,375.7,200.9z"/>
		<path fill="#050503" d="M381.8,239.8c0,0-8.9-4.4-15.7-3.6c-6.8,0.8-6.5,5.9-3.7,8C365.3,246.4,378.8,247.6,381.8,239.8z"/>
		<path fill="#F9BD91" d="M437.4,161.9c-0.8,0.4-5.9,23.6-5.5,25.2s5.1,7.1,5.1,7.1l-15.7,5.7l-7.1-8.1l7.5-30.6L437.4,161.9z"/>
		<path fill="#407B59" d="M421.4,199.6l28.2,25.5l6.1-6.2c0,0-6.4-14.9-21.4-27.6C434.2,191.3,425.7,192,421.4,199.6z"/>
		<path fill="#050503" d="M455.6,219c0,0-9,4.2-12.5,10.1c-3.6,5.9,0.6,8.7,4,7.9C450.5,236.1,459.9,226.2,455.6,219z"/>
		<path fill="#F9BD91" d="M372,61l1,24.1l9.7,2.1l-2.9,8.9l-17.5-3.2l4.7-35.5C366.9,57.3,371.8,59.1,372,61z"/>
		<g>
			<polygon fill="#FFFFFF" points="398.5,142 394.1,99.4 375.3,96.1 379.1,83.2 399.2,83.7 405.6,83.9 418.3,82.9 431.3,77 
				436.3,72.4 448.2,88 434.8,96.6 436.7,140.5 398.5,142 			"/>
			<polygon fill="#22B573" points="440.8,152.5 436.6,178.8 414,177 412.5,166.8 408.1,177.7 383.6,174.4 397.3,142.1 436.1,140.5 
				436.1,140.8 			"/>
		</g>
		<path fill="#F9BD91" d="M394.6,47.8l1.8,27.3c0.3,2.4,7.5,3.3,9.9,3.4l-0.2,0.5l0.2,7.5c0,0,2.2,10.1,12.3,0l-1.8-19.1
			c0,0,3.3-1,2.8-4.9c-0.4-3.9-4.1-1.6-4.1-1.6l-1.7-13.8L394.6,47.8z"/>
		<path fill="#F9BD91" d="M372,61c0,0,2.3-3,7.3-6.9c0,0,0-3.4-5.4,0.4c0,0,0.8-6.1,0.9-10.4c0.1-4.3-11.3-3-11.2,5.8
			c0.1,8.8,2.5,11,2.5,11S370.4,61.7,372,61z"/>
	</g>
	<g>
		<g>
			<path fill="#22B573" d="M414.5,128c-5.7,0.1-10.3-4.5-10.3-10.2c-0.1-5.7,4.5-10.3,10.2-10.3c5.7-0.1,10.3,4.5,10.3,10.2
				C424.7,123.3,420.1,127.9,414.5,128z M414.3,108.7c-5,0-9,4.1-9,9.1c0,5,4.1,9,9.1,9c5,0,9-4.1,9-9.1S419.3,108.6,414.3,108.7z"
				/>
		</g>
	</g>
	<path fill="#ED1C24" d="M405.6,83.9c0,0-1.9,10.2,7.5,16.8c0,0,11.1-7.2,7.8-19.2l4.9-2.2c0,0,3.1,17.9-12.1,24.9
		c0,0-11-3.4-12.6-20.8L405.6,83.9z"/>
	<circle fill="#FBB03B" cx="413.8" cy="102.5" r="4.2"/>
</g>
<g>
	<g>
		<path fill="#F9BD91" d="M522.3,50.3l4.7,23.6l-8.9,4.3l4.9,8l16.3-7.2l-12.8-33.4C526.4,45.5,522.1,48.4,522.3,50.3z"/>
		<path fill="#F9BD91" d="M522.3,50.3c0,0-2.9-2.3-8.7-5c0,0-0.8-3.3,5.3-0.9c0,0-2.2-5.7-3.3-9.9c-1.1-4.2,10.3-5.5,12.3,3
			c2,8.5,0.2,11.3,0.2,11.3S524.1,50.6,522.3,50.3z"/>
		<path fill="#F9BD91" d="M493.1,169.6c-0.8-0.4-16.3,30.5-17.2,31.7s-2.4,8.4-2.4,8.4l-14.2-8.8l1.9-10.6l15.3-26.3L493.1,169.6z"
			/>
		<path fill="#407B59" d="M459.6,200.9l-2.5,37.9l8.6,0.9c0,0,7.7-14.2,8.4-33.9C474.1,205.8,468.2,199.6,459.6,200.9z"/>
		<path fill="#050503" d="M465.7,239.8c0,0-8.9-4.4-15.7-3.6c-6.8,0.8-6.5,5.9-3.7,8C449.1,246.4,462.6,247.6,465.7,239.8z"/>
		<path fill="#F9BD91" d="M521.2,161.9c-0.8,0.4-5.9,23.6-5.5,25.2s5.1,7.1,5.1,7.1l-15.7,5.7l-7.1-8.1l7.5-30.6L521.2,161.9z"/>
		<path fill="#407B59" d="M505.2,199.6l28.2,25.5l6.1-6.2c0,0-6.4-14.9-21.4-27.6C518.1,191.3,509.6,192,505.2,199.6z"/>
		<path fill="#050503" d="M539.5,219c0,0-9,4.2-12.5,10.1c-3.6,5.9,0.6,8.7,4,7.9C534.4,236.1,543.7,226.2,539.5,219z"/>
		<path fill="#F9BD91" d="M455.8,61l1,24.1l9.7,2.1l-2.9,8.9l-17.5-3.2l4.7-35.5C450.7,57.3,455.6,59.1,455.8,61z"/>
		<g>
			<polygon fill="#FFFFFF" points="482.5,142 478.1,99.4 459.2,96.1 462.9,83.2 483.1,83.7 489.5,83.9 502.1,82.9 515.1,77 
				520.2,72.4 532.1,88 518.7,96.6 520.6,140.5 482.5,142 			"/>
			<polygon fill="#22B573" points="524.7,152.5 520.5,178.8 497.8,177 496.3,166.8 492,177.7 467.4,174.4 481.1,142.1 519.9,140.5 
				519.9,140.8 			"/>
		</g>
		<path fill="#F9BD91" d="M478.4,47.8l1.8,27.3c0.3,2.4,7.5,3.3,9.9,3.4L490,79l0.2,7.5c0,0,2.2,10.1,12.3,0l-1.8-19.1
			c0,0,3.3-1,2.8-4.9c-0.4-3.9-4.1-1.6-4.1-1.6l-1.7-13.8L478.4,47.8z"/>
		<path fill="#F9BD91" d="M455.9,61c0,0,2.3-3,7.3-6.9c0,0,0-3.4-5.4,0.4c0,0,0.8-6.1,0.9-10.4c0.1-4.3-11.3-3-11.2,5.8
			s2.5,11,2.5,11S454.2,61.7,455.9,61z"/>
		<path fill="#231F20" d="M478.5,48.9c0,0-2.3-4,5-10.6c0,0,5.3-0.5,16.9,5.6c0,0,5.7,6.4,2.3,16.6c0,0-3.7-1.3-3.7,1.8
			s0.2,5.6,0.2,5.6l-3.9-1c0,0,3.2-13.8,0.1-18.3C495.3,48.6,492.6,47.8,478.5,48.9z"/>
	</g>
	<g>
		<g>
			<path fill="#22B573" d="M498.3,128c-5.7,0.1-10.3-4.5-10.3-10.2c-0.1-5.7,4.5-10.3,10.2-10.3c5.7-0.1,10.3,4.5,10.3,10.2
				C508.5,123.3,504,127.9,498.3,128z M498.1,108.7c-5,0-9,4.1-9,9.1c0,5,4.1,9,9.1,9c5,0,9-4.1,9-9.1S503.1,108.6,498.1,108.7z"/>
		</g>
	</g>
	<path fill="#ED1C24" d="M489.5,83.9c0,0-1.9,10.2,7.5,16.8c0,0,11.1-7.2,7.8-19.2l4.9-2.2c0,0,3.1,17.9-12.1,24.9
		c0,0-11-3.4-12.6-20.8L489.5,83.9z"/>
	<circle fill="#FBB03B" cx="497.7" cy="102.5" r="4.2"/>
</g>
<g>
	<g>
		<path fill="#F9BD91" d="M625.7,60.8l-1.5,24.1l-9.7,1.9l2.7,8.9l17.6-2.9l-3.9-35.6C630.9,57.2,626,58.9,625.7,60.8z"/>
		<path fill="#F9BD91" d="M625.7,60.8c0,0-2.2-3-7.1-7c0,0,0-3.4,5.4,0.5c0,0-0.7-6.1-0.7-10.4s11.4-2.7,11.1,6s-2.7,10.9-2.7,10.9
			S627.4,61.5,625.7,60.8z"/>
		<path fill="#F9BD91" d="M567.2,168.7c-0.7-0.6-23.5,25.3-24.7,26.3c-1.2,1-4.5,7.5-4.5,7.5l-11.5-12.1l4.6-9.8l21.5-21.6
			L567.2,168.7z"/>
		<path fill="#407B59" d="M526.8,190.5l-12,36l8.1,3.1c0,0,11.1-11.8,16.7-30.7C539.5,198.9,535.5,191.4,526.8,190.5z"/>
		<path fill="#050503" d="M522.8,229.6c0,0-7.5-6.5-14.3-7.4c-6.8-0.9-7.8,4.1-5.6,6.8C505.1,231.8,517.9,236.5,522.8,229.6z"/>
		<path fill="#F9BD91" d="M596.3,168.5c-0.9,0.2-11.7,21.4-11.7,22.9c0,1.6,3.1,8.2,3.1,8.2l-16.6,1.5l-4.8-9.6l15-27.7L596.3,168.5
			z"/>
		<path fill="#407B59" d="M571.3,200.8l20.8,31.8l7.4-4.4c0,0-2.4-16-13.7-32.2C585.8,196.1,577.4,194.6,571.3,200.8z"/>
		<path fill="#050503" d="M599.5,228.3c0,0-9.7,1.8-14.7,6.6s-1.6,8.6,1.9,8.6S601.8,236.4,599.5,228.3z"/>
		<path fill="#F9BD91" d="M558.7,54.2l-5.2,23.5l8.8,4.4l-5,7.9l-16.1-7.6l13.5-33.2C554.7,49.4,559,52.3,558.7,54.2z"/>
		<g>
			<polygon fill="#FFFFFF" points="563.5,139.3 570.2,96.9 553,89 559.9,77.5 579.3,83.1 585.4,85 597.9,87.2 612,84.8 618,81.6 
				625.6,99.7 610.5,104.6 600.9,147.5 563.5,139.3 			"/>
			<polygon fill="#22B573" points="602,160.2 591.3,184.5 569.9,177.1 571,166.8 564,176.3 541.1,166.9 562.6,139.1 600.5,147.4 
				600.4,147.7 			"/>
		</g>
		<path fill="#F9BD91" d="M583.9,47.2l-5.2,26.8c-0.4,2.4,6.4,5.1,8.8,5.8l-0.3,0.4l-1.7,7.3c0,0-0.4,10.3,11.8,3.1l3.1-18.9
			c0,0,3.4-0.2,4-4s-3.5-2.6-3.5-2.6l1.9-13.7L583.9,47.2z"/>
		<path fill="#F9BD91" d="M558.7,54.2c0,0,3-2.3,8.8-4.8c0,0,0.9-3.3-5.3-1c0,0,2.3-5.7,3.5-9.8s-10.2-5.7-12.3,2.8
			S553,52.6,553,52.6S557,54.5,558.7,54.2z"/>
		<path fill="#231F20" d="M581.6,57.3c0,0-0.5-8.5,4.8-12.9c0,0,7.5-0.2,19.8,4.7c0,0,3.9,7.7-2,16.7c0,0-3.3-2.2-4.1,0.7
			c-0.8,3-1.3,5.5-1.3,5.5l-3.5-2c0,0,6.6-12.5,4.8-17.6l-15.2-2.2C584.9,50.1,582.6,53.5,581.6,57.3z"/>
	</g>
	<g>
		<g>
			<path fill="#22B573" d="M582.8,129.8c-5.5-1.4-8.8-7-7.4-12.4s7-8.8,12.4-7.4c5.5,1.4,8.8,7,7.4,12.4S588.3,131.2,582.8,129.8z
				 M587.5,111.1c-4.8-1.2-9.8,1.7-11,6.5c-1.2,4.8,1.7,9.8,6.5,11c4.8,1.2,9.8-1.7,11-6.5C595.3,117.2,592.4,112.3,587.5,111.1z"/>
		</g>
	</g>
	<path fill="#ED1C24" d="M585.4,85c0,0-4.5,9.3,3,18.2c0,0,12.6-4.1,12.4-16.6l5.3-0.9c0,0-1.6,18.1-18,21c0,0-9.7-6.1-6.9-23.3
		L585.4,85z"/>
	<circle fill="#FBB03B" cx="588.6" cy="105" r="4.2"/>
</g>
<g>
	<g>
		<defs>
			<rect id="SVGID_1_" x="0" y="162.1" width="628.5" height="100"/>
		</defs>
		<clipPath id="SVGID_2_">
			<use xlink:href="#SVGID_1_"  overflow="visible"/>
		</clipPath>
		<rect x="-0.3" y="162.1" clip-path="url(#SVGID_2_)" fill="#274F9C" width="630.7" height="100.2"/>
		<path clip-path="url(#SVGID_2_)" fill="#234082" d="M530.7,266.4c0,0-53.1-0.9-45.6-23.3c7.5-22.4,39.1,4.7,39.1,4.7
			s-38.6-34.6-16-47.1c22.6-12.5,30,33.1,30,33.1s-12.1-41,10.2-43.8c22.4-2.8,4.7,45.6,4.7,45.6s22.4-23.3,34.5,1.9l11.2,3.7
			l-15.8,7.5C582.8,248.7,599.6,268.3,530.7,266.4z"/>
		<path clip-path="url(#SVGID_2_)" fill="#234082" d="M-13.6,260c0,0-43.1-31-24.3-45.1S-8.4,241-8.4,241s-12-50.4,13.6-47.9
			c25.7,2.5,5.8,44.3,5.8,44.3s13.4-40.6,33.3-30.2s-22.2,40.2-22.2,40.2s31.6-6.4,27.3,21.2l7.1,9.4l-17.3-2.9
			C39.4,275.1,42,300.8-13.6,260z"/>
		<path clip-path="url(#SVGID_2_)" fill="#234082" d="M285.7,141.6c0,0,52.9-4.5,47.8,18.5c-5.1,23-39.4-0.6-39.4-0.6
			s41.9,30.5,20.7,45.2s-33.2-29.9-33.2-29.9s16.2,39.5-5.7,44.6s-9.3-44.9-9.3-44.9s-19.9,25.4-34.5,1.7l-11.5-2.6l15-9
			C235.6,164.6,216.9,146.8,285.7,141.6z"/>
	</g>
	<g>
		<path fill="#FFFFFF" d="M125.2,185.6h7.7l3.1,10.6l3.6-10.6h6.4l3.6,10.6l3.1-10.6h7.6l-7.2,22.2h-6.4l-3.9-10.9l-3.9,10.9h-6.4
			L125.2,185.6z"/>
		<path fill="#FFFFFF" d="M159.6,196.7L159.6,196.7c0-6.4,5.3-11.5,12-11.5c6.8,0,12,5,12,11.4v0.1c0,6.4-5.3,11.5-12,11.5
			C164.8,208.1,159.6,203,159.6,196.7z M176.2,196.7L176.2,196.7c0-2.7-1.8-5-4.6-5c-2.8,0-4.6,2.3-4.6,4.9v0.1c0,2.6,1.8,5,4.6,5
			C174.5,201.6,176.2,199.2,176.2,196.7z"/>
		<path fill="#FFFFFF" d="M185.7,185.6h10.8c3.9,0,6.4,1,7.9,2.5c1.3,1.3,2,3,2,5.2v0.1c0,3.2-1.7,5.4-4.3,6.7l5.1,7.5h-8.4
			l-4.2-6.3h-0.1H193v6.3h-7.4V185.6z M196.2,196.1c1.8,0,2.8-0.8,2.8-2.1v-0.1c0-1.4-1.1-2.1-2.8-2.1H193v4.3H196.2z"/>
		<path fill="#FFFFFF" d="M208.1,185.6h7.4v15.7h10.3v6.3h-17.7V185.6z"/>
		<path fill="#FFFFFF" d="M227.4,185.6h8.4c8.7,0,13.1,4.3,13.1,10.8v0.1c0,6.5-4.5,11.1-13.4,11.1h-8.2V185.6z M236,201.2
			c3.4,0,5.5-1.4,5.5-4.6v-0.1c0-3.2-2.2-4.6-5.5-4.6h-1.2v9.2H236z"/>
		<path fill="#FFFFFF" d="M258.5,196.7L258.5,196.7c0-6.6,5.1-11.5,11.7-11.5c4.8,0,8.1,2.4,10,5.7l-6.1,3.6c-0.8-1.6-2-2.7-4-2.7
			c-2.5,0-4.1,2.2-4.1,4.8v0.1c0,2.9,1.7,4.9,4.1,4.9c2.1,0,3.2-1.1,4.2-2.8l6.1,3.4c-1.9,3.3-4.9,5.9-10.4,5.9
			C263.8,208.1,258.5,203.5,258.5,196.7z"/>
		<path fill="#FFFFFF" d="M281.7,185.6h7.4v7.8h6.7v-7.8h7.4v22h-7.4v-7.9H289v7.9h-7.4V185.6z"/>
		<path fill="#FFFFFF" d="M313.3,185.4h7.3l9.3,22.2h-8l-1.2-3H313l-1.1,3H304L313.3,185.4z M318.9,199.4l-2-5.3l-2,5.3H318.9z"/>
		<path fill="#FFFFFF" d="M330.8,185.6h7.7l4.7,7.7l4.7-7.7h7.7v22h-7.3v-10.9l-5.1,7.8H343l-5.1-7.8v10.9h-7.2V185.6z"/>
		<path fill="#FFFFFF" d="M358.1,185.6h9.9c5.8,0,9.8,2.6,9.8,7.8v0.1c0,5.3-4.1,8.1-10,8.1h-2.4v6h-7.4V185.6z M367.4,196.4
			c1.9,0,3.1-0.8,3.1-2.4v-0.1c0-1.6-1.2-2.4-3.1-2.4h-2v4.9H367.4z"/>
		<path fill="#FFFFFF" d="M379.4,185.6h7.4v22h-7.4V185.6z"/>
		<path fill="#FFFFFF" d="M388.9,196.7L388.9,196.7c0-6.4,5.3-11.5,12-11.5c6.8,0,12,5,12,11.4v0.1c0,6.4-5.3,11.5-12,11.5
			C394.1,208.1,388.9,203,388.9,196.7z M405.5,196.7L405.5,196.7c0-2.7-1.8-5-4.6-5c-2.8,0-4.6,2.3-4.6,4.9v0.1c0,2.6,1.8,5,4.6,5
			C403.7,201.6,405.5,199.2,405.5,196.7z"/>
		<path fill="#FFFFFF" d="M414.9,185.6h6.9l7.8,9.7v-9.7h7.3v22h-6.5l-8.2-10.2v10.2h-7.3V185.6z"/>
		<path fill="#FFFFFF" d="M437.6,204.3l3.9-4.7c2.4,1.8,5.1,2.6,7.7,2.6c1.3,0,1.9-0.3,1.9-0.9v-0.1c0-0.6-0.7-1-3-1.4
			c-4.9-1-9.3-2.4-9.3-7.1v-0.1c0-4.2,3.3-7.4,9.3-7.4c4.2,0,7.4,1,9.9,3l-3.6,5c-2.1-1.5-4.6-2.2-6.6-2.2c-1.1,0-1.6,0.4-1.6,0.9
			v0.1c0,0.6,0.6,1,2.9,1.4c5.6,1,9.4,2.7,9.4,7.1v0.1c0,4.6-3.8,7.5-9.7,7.5C444.4,208,440.4,206.7,437.6,204.3z"/>
		<path fill="#FFFFFF" d="M460.3,185.6h7.4v7.8h6.7v-7.8h7.4v22h-7.4v-7.9h-6.7v7.9h-7.4V185.6z"/>
		<path fill="#FFFFFF" d="M484.3,185.6h7.4v22h-7.4V185.6z"/>
		<path fill="#FFFFFF" d="M494.2,185.6h9.9c5.8,0,9.8,2.6,9.8,7.8v0.1c0,5.3-4.1,8.1-10,8.1h-2.4v6h-7.4V185.6z M503.6,196.4
			c1.9,0,3.1-0.8,3.1-2.4v-0.1c0-1.6-1.2-2.4-3.1-2.4h-2v4.9H503.6z"/>
		<path fill="#FFFFFF" d="M277.6,240l9.1-6.5c1.4-1,1.9-1.8,1.9-2.7c0-0.9-0.7-1.6-2-1.6c-1.3,0-2.4,0.8-4.2,2.7l-4.8-4.1
			c2.5-3.1,5.1-4.8,9.7-4.8c5,0,8.6,3,8.6,7.2v0.1c0,3.4-1.8,5.2-4.4,6.9l-3.9,2.5h8.6v5.8h-18.6V240z"/>
		<path fill="#FFFFFF" d="M297.6,234.4L297.6,234.4c0-6.1,4-11.5,10.6-11.5c6.7,0,10.6,5.3,10.6,11.4v0.1c0,6.1-4,11.5-10.6,11.5
			C301.5,245.8,297.6,240.4,297.6,234.4z M311.5,234.4L311.5,234.4c0-3.1-1.4-5.2-3.3-5.2c-2,0-3.3,2-3.3,5v0.1c0,3,1.4,5.1,3.3,5.1
			C310.2,239.4,311.5,237.4,311.5,234.4z"/>
		<path fill="#FFFFFF" d="M320.5,234.4L320.5,234.4c0-6.1,4-11.5,10.6-11.5c6.7,0,10.6,5.3,10.6,11.4v0.1c0,6.1-4,11.5-10.6,11.5
			C324.4,245.8,320.5,240.4,320.5,234.4z M334.4,234.4L334.4,234.4c0-3.1-1.4-5.2-3.3-5.2c-2,0-3.3,2-3.3,5v0.1c0,3,1.4,5.1,3.3,5.1
			C333.1,239.4,334.4,237.4,334.4,234.4z"/>
		<path fill="#FFFFFF" d="M342.5,242.2l4.1-4.7c1.9,1.5,3.6,2.4,5.4,2.4c1.8,0,2.8-0.9,2.8-2.1v-0.1c0-1.3-1-2.1-2.6-2.1
			c-1.4,0-2.3,0.6-3.4,1.4l-4.4-2.2l0.6-11.4h15.9v5.8h-10.4l-0.2,2.9c1.2-0.7,2.5-1.2,4.2-1.2c3.6,0,7.4,2.3,7.4,6.9v0.1
			c0,5.1-4.2,8-9.8,8C347.8,245.8,344.9,244.4,342.5,242.2z"/>
	</g>
	<path fill-rule="evenodd" clip-rule="evenodd" fill="#3E9DD7" d="M85.9,161.6l23.5,0.2c0,0,0.8,15.6-1.1,39.7
		c-0.5,6.1-2.4,12.4-4.3,18.9c-7.3,24.2-23.8,40.9-23.8,40.9S112.4,217.7,85.9,161.6z"/>
	<path fill-rule="evenodd" clip-rule="evenodd" fill="#FFFFFF" d="M70.6,198.6l-8.5,23.3h7.2l0.9-3.1h8.2l0.9,3.2h7.2l-8.5-23.4
		H70.6z M71.5,214.3l2.8-9.5l2.8,9.5H71.5z M55.6,203.6h8.8l1.9-5H48.5v23.2h7.2v-8.3h5.1l2-5.2h-7.2V203.6z M22.9,203.6h8.8l1.9-5
		H15.8v23.2h7.2v-8.3h5.1l2-5.2h-7.2V203.6z M36.1,198.6v23.2h7.2v-23.2H36.1z"/>
	<path fill-rule="evenodd" clip-rule="evenodd" fill="#3E9DD7" d="M514.4,161.6l23.5,0.2c0,0,0.8,15.6-1.1,39.7
		c-0.5,6.1-2.4,12.4-4.3,18.9c-7.3,24.2-23.8,40.9-23.8,40.9S540.9,217.7,514.4,161.6z"/>
	<path fill-rule="evenodd" clip-rule="evenodd" fill="#FFFFFF" d="M605.2,198.6l-8.5,23.3h7.2l0.9-3.1h8.2l0.9,3.2h7.2l-8.5-23.4
		H605.2z M606.1,214.3l2.8-9.5l2.8,9.5H606.1z M590.2,203.6h8.8l1.9-5h-17.9v23.2h7.2v-8.3h5.1l2-5.2h-7.2V203.6z M557.6,203.6h8.8
		l1.9-5h-17.9v23.2h7.2v-8.3h5.1l2-5.2h-7.2V203.6z M570.7,198.6v23.2h7.2v-23.2H570.7z"/>
</g>
<path fill="#22B573" d="M153.6,109.4c0.9,0.3,1.3-0.1,1.6-0.6l0.8,0.2l-2.3,7.7l-1.2-0.4l1.7-5.9l-0.9-0.3L153.6,109.4z"/>
<path fill="#22B573" d="M157.9,110.7c0.9,0.3,1.3-0.1,1.6-0.6l0.8,0.2l-2.3,7.7l-1.2-0.4l1.7-5.9l-0.9-0.3L157.9,110.7z"/>
<path fill="#22B573" d="M249.4,122c-1.6,0-2.5-0.9-2.5-2.5v-0.8c0-1,0.3-1.7,1-2.1c-0.7-0.4-1-1-1-2v-0.3c0-1.6,0.9-2.5,2.5-2.5
	c1.6,0,2.5,0.9,2.5,2.5v0.3c0,1-0.3,1.7-1,2c0.7,0.4,1,1.1,1,2.1v0.8C251.8,121.1,251,122,249.4,122z M248.5,114.9
	c0,0.8,0.4,1.1,0.9,1.1c0.5,0,0.9-0.3,0.9-1.1v-0.6c0-0.9-0.4-1.1-0.9-1.1s-0.9,0.2-0.9,1.1V114.9z M249.4,120.6
	c0.5,0,0.9-0.2,0.9-1.1v-0.9c0-0.8-0.3-1.1-0.9-1.1s-0.9,0.3-0.9,1.1v0.9C248.5,120.3,248.9,120.6,249.4,120.6z"/>
<path fill="#22B573" d="M413.6,119.6v1c0,0.8,0.4,1.1,0.9,1.1s0.9-0.3,0.9-1.1v-2.5c0-0.8-0.4-1.1-0.9-1.1s-0.9,0.3-0.9,1.1v0.3
	h-1.7l0.3-6.5h4.7v1.6h-3.1l-0.1,2.7c0.3-0.5,0.8-0.8,1.5-0.8c1.3,0,2,0.9,2,2.6v2.5c0,1.8-0.9,2.8-2.6,2.8c-1.7,0-2.6-1-2.6-2.8
	v-0.9H413.6z"/>
<path fill="#22B573" d="M495.1,119.6l2.9-6.9h1.7v6.9h0.8v1.5h-0.8v1.9h-1.6v-1.9h-3.1V119.6z M498.1,119.6v-3.8l-1.6,3.8H498.1z"/>
<g>
	<path fill="#22B573" d="M582.2,115.4c1,0.3,1.4-0.1,1.8-0.6l0.9,0.3l-2.7,8.5l-1.3-0.4l2-6.5l-1-0.3L582.2,115.4z"/>
	<path fill="#22B573" d="M585.8,124.8c-1.4-0.4-1.9-1.4-1.4-2.8l0.2-0.7c0.3-0.8,0.7-1.4,1.4-1.5c-0.5-0.5-0.6-1.1-0.3-2l0.1-0.3
		c0.4-1.4,1.4-1.9,2.8-1.5c1.4,0.4,1.9,1.4,1.4,2.8l-0.1,0.3c-0.3,0.8-0.7,1.3-1.4,1.5c0.5,0.5,0.5,1.2,0.3,2l-0.2,0.7
		C588.2,124.6,587.2,125.2,585.8,124.8z M586.9,118.5c-0.2,0.7,0,1,0.5,1.1c0.4,0.1,0.8,0,1-0.7l0.1-0.5c0.2-0.8,0-1.1-0.5-1.2
		c-0.4-0.1-0.8,0-1.1,0.7L586.9,118.5z M586.2,123.6c0.4,0.1,0.8,0,1.1-0.7l0.2-0.8c0.2-0.7,0-1.1-0.5-1.2s-0.8,0.1-1.1,0.7
		l-0.2,0.8C585.5,123.1,585.8,123.4,586.2,123.6z"/>
</g>
<path fill="#231F20" d="M599.3,48.8c0.2-0.5,1.9-9-13.2-9l-2.5,8.2L599.3,48.8z"/>
<path fill="#231F20" d="M480.8,48.1c0,0,1.7,0.5,3.1,2.6c0,0,0.6-2.6,2.8-3.6L480.8,48.1z"/>
<path fill="#231F20" d="M394.6,47.8c0,0,2.6,4,9.1,2.5c6.5-1.6,9.9-5.1,10.1,1.1c0.2,6.2-2.5,8.1-0.9,13.7l2.9-0.8l-0.2-3.3
	c0,0,3.6-2.6,4.1,1.6c0,0,3.9-9.3,0.5-16.9S393.3,35.7,394.6,47.8z"/>
<path fill="#231F20" d="M248.1,60.7c0,0,4-4.3,2.9-9s2.9-5.1,6.1-3.3c3.9,2.2,6.5-0.9,8.8-0.9c3.9,0,2.8,4.8,2.8,4.8
	s3.7-12.6-8.2-13.7c-12-1.1-21.7,2.2-16.1,21.4C244.4,60.1,247.6,59,248.1,60.7z"/>
</svg>
