<?xml version="1.0" encoding="utf-8"?>
<!-- Generator: Adobe Illustrator 18.0.0, SVG Export Plug-In . SVG Version: 6.00 Build 0)  -->
<!DOCTYPE svg PUBLIC "-//W3C//DTD SVG 1.1//EN" "http://www.w3.org/Graphics/SVG/1.1/DTD/svg11.dtd">
<svg version="1.1" id="Layer_1" xmlns="http://www.w3.org/2000/svg" xmlns:xlink="http://www.w3.org/1999/xlink" x="0px" y="0px"
	 viewBox="0 0 544.6 338.2" enable-background="new 0 0 544.6 338.2" xml:space="preserve">
<g>
	<path fill="#31352C" d="M138.2,302.3H165l1.9-14.3l9,1.9c0,0,5.7-10.6,9-8.8c3.3,1.7,18.8,5.5,18.8,5.5l-7.4-67.1L171,192.7
		L138.2,302.3z"/>
	<polygon fill="#3A2E21" points="168.4,257.5 174.9,303 191.9,304.8 191.9,228.4 180.1,195.7 167.6,206.2 164.1,256.8 	"/>
	<path fill="#F9BD91" d="M138,326.1h9.1c0,0,3.5,11.4-8.2,12.1h-15.3c0,0-3.4-7.2,5.7-7.7C129.3,330.5,137.2,329.1,138,326.1z"/>
	<path fill="#F9BD91" d="M177.2,106.8v28.1h-4.3v9.2c0,0-4.8,9.4-16.5,0v-19.2c0,0-3.6-0.7-3.6-4.8c0-4.1,4.1-2.1,4.1-2.1v-11.2
		H177.2z"/>
	<path fill="#41473B" d="M156.4,140c0,0,8.3,8.6,16.5,2.9V140l18.9,17.9l12,128.6l-16.6-123.7l-42.6-18.7
		C144.5,144.2,147,137.4,156.4,140z"/>
	<polygon fill="#31352C" points="168.3,154.7 129.1,195.9 115.9,300.1 125.2,159.8 144.5,144.2 	"/>
	<polygon fill="#41473B" points="116.1,298.8 137.7,303 147.6,289.5 127.9,205.4 	"/>
	<polygon fill="#31352C" points="138,222.2 139.3,254.2 129,210 	"/>
	<polygon fill="#5D3826" points="142.1,266 168.3,266 169.3,174.7 166.1,156.9 129.1,195.9 127.8,206.6 129,211.5 138,222.2 
		139.3,254.2 	"/>
	<path fill="#F9BD91" d="M140.9,222.3c11.8,12.1,16.5,6.6,17.4,4.1c1-2.5-7.4-6.6-7.4-6.6s3.3,2,4,0.1c0.7-1.9-3.1-4.5-3.1-4.5
		s-5.9-4.7-9.4-0.9C139,218.4,140.9,222.3,140.9,222.3z"/>
	<polygon fill="#966440" points="168.3,215.1 174.1,215.1 178.7,203 180.8,215.9 191.9,215.1 187.5,188 187.1,162.9 168.3,154.7 
		166.1,156.9 169.3,174.7 	"/>
	<path fill="#F9BD91" d="M195.6,218c-1.4,14.6-7.6,13.3-9.6,12.2c-2-1.2,1.5-8.4,1.5-8.4s-1.2,3.2-2.7,2.2c-1.5-0.9-0.3-4.7-0.3-4.7
		s1.4-6.4,5.9-5.7C194.8,214.3,195.6,218,195.6,218z"/>
	<polygon fill="#5D3826" points="188.4,213.8 195.6,218 187.1,162.9 187.1,189.4 	"/>
	<polygon fill="#3A2E21" points="138.2,302.3 156.7,304.8 165,266 142.1,266 147.6,289.5 	"/>
	<polygon fill="#F9BD91" points="178,303.3 181.6,328.5 188.4,328.5 189.8,304.6 	"/>
	<polygon fill="#F9BD91" points="150.6,304 145.8,328.5 138.2,328.5 139.3,302.3 	"/>
	<path fill="#F9BD91" d="M189.1,326.1h-9.1c0,0-3.5,11.4,8.2,12.1h15.3c0,0,3.4-7.2-5.7-7.7C197.8,330.5,190,329.1,189.1,326.1z"/>
	<path fill="#3C2415" d="M160.9,129.4c-1.9-2.5-1.8-5.8-1.6-8.8c0.5,1.7,1.6,3.3,3.1,4.5c-1-0.8-1-2.2-0.6-3.4s1-2.3,0.9-3.5
		c1.1,1.1,1.3,2.9,0.5,4.2c3-1.6,4.5-5.3,3.1-8.3c0.1,2.5,0.2,5.4,2.3,7.1c0.4-2,1.2-3.9,2.5-5.5c-0.6,1.6-0.5,3.4,0.1,5
		c1.2-2,2.4-4,3.6-6c-0.4,1.8-0.3,3.6,0.2,5.3c0.6-1.5,0.9-3.1,0.8-4.7c0.8,1.2,0.9,2.8,0.9,4.2c0,4.8,0.1,9.6,0.1,14.5
		c-1,0.4-2.1,0.7-3.2,0.9c0.5,1.1,0.3,2.4-0.5,3.3c1.4-0.6,2.5-1.7,3.1-3c0.3,1.4,0.2,2.9-0.4,4.2c1.8-1.4,2.9-3.5,3.1-5.6
		c0.4-0.2,0.6,0.4,0.6,0.8c-0.1,1.5-0.4,3-1,4.4c2.1-2.1,2.8-5.2,1.9-7.9c0.8,0.4,0.6,1.5,0.8,2.3c0.1,0.2,0.2,0.4,0.5,0.5
		c0.3,0,0.4-0.3,0.5-0.5c0.6-1.8,0.3-3.9-0.8-5.5c1,0.9,1.6,2.3,1.5,3.6c0.8-1,0.9-2.4,0.5-3.6c-0.4-1.2-1.3-2.2-2.2-3.1
		c0.5,0.4,1.1,0.7,1.8,0.8c0.7,0.1,1.4-0.3,1.5-0.9c-0.8,0.3-1.9-0.1-2.4-0.9c-0.5-0.7-0.5-1.6-0.5-2.5c0.5,0.7,0.8,1.4,0.9,2.2
		c-0.8-3.7,1.7-7.8,0.3-11.3c-0.6-1.4-1.7-2.5-2.7-3.7c-1.4-1.7-2.7-3.7-4.9-4.5c-1.4-0.5-2.9-0.5-4.4-0.5c-1.4,0-2.7,0-4.1,0
		c-3.7,0-7.6,0.1-10.7,1.8c-0.6,0.3-1.2,0.8-1.7,1.3c-1,1.3-1,2.9-1.4,4.5c-0.5,2-1.8,3.8-2.8,5.6c-1,1.8-1.8,3.9-1.2,6
		c0.3,1.1,1,2.1,1.1,3.3c0.1,1.2-0.7,2.5-1.9,2.4c1,0.9,2.9,0.7,3.7-0.3c0.2,1-0.9,2.1-2,2.1c0.8,0.4,1.8,0.3,2.5-0.1
		c-0.8,0.5-1.6,1-2.2,1.7s-1,1.6-0.9,2.5c0.3,1.3,1.7,2.2,2.2,3.5c-0.3-1,0-2.2,0.9-3c0.8,1.3,0.5,3.2-0.8,4.2
		c2.9-0.9,4.8-4,4.2-6.8c0.8,1.2,0.7,2.8-0.1,4c1.8-0.9,2.9-2.8,3.2-4.7c0.3-1.9-0.1-3.8-0.8-5.6
		C158.4,127.1,159.5,128.5,160.9,129.4z"/>
</g>
<g>
	<path fill="#0A0E11" d="M365.9,171.6c6.2,18.1-1.8,20-4.8,19.7s-2.9-10.8-2.9-10.8s0.3,4.4-2,4.1s-2.9-5.4-2.9-5.4
		s-1.8-8.4,3.9-9.9C362.9,167.7,365.9,171.6,365.9,171.6z"/>
	<polygon fill="#273130" points="275,174.6 271.8,219.5 284.7,220.9 317.3,152.5 331.3,221.9 343,221.9 345.7,75.9 320.2,51.7 
		298.9,57.9 279.8,125.5 	"/>
	<polygon fill="#333F3D" points="322.5,51.7 346.4,66.8 369,171 352.2,171.8 349.3,121.6 358.9,285.1 335.8,263.8 342.3,76.4 
		322.5,54.6 	"/>
	<path fill="#F9BD91" d="M279.8,184.6c5,18.5,12.7,15.5,15,13.6c2.3-1.9-3.7-10.6-3.7-10.6s2.2,3.8,3.9,2.3c1.7-1.5-0.6-6.1-0.6-6.1
		s-3.2-7.9-8.8-6.1S279.8,184.6,279.8,184.6z"/>
	<polygon fill="#333F3D" points="301.3,51.7 266.1,63.1 262.2,134.6 278.8,186.6 294.4,180.3 284.6,142.4 296.7,71.7 307.2,62.9 	
		"/>
	<polygon fill="#4B4E47" points="285.5,136.8 340.3,133.5 340.3,144 285.8,147 284.6,142.4 	"/>
	<polygon fill="#0A0E11" points="282.7,221.9 278.1,245.8 295.6,248.4 308.8,216 307.2,246.4 326.7,245.6 333.7,221.9 331.3,221.9 
		317.3,152.5 284.7,220.9 	"/>
	<polygon fill="#333F3D" points="275,174.6 271.8,286.9 254.4,286.9 266.2,147 	"/>
	<polygon fill="#252F30" points="275,244 297.8,248.4 300.7,292.6 266.6,292.6 266.6,286.9 271.8,286.9 273,244 	"/>
	<path fill="#252F30" d="M271.8,292.6l-3.4,41.9c0,0,5.7,3.2,12.7,3.6c7,0.5,20.3-4.2,5.5-12.3l2.1-33.3H271.8z"/>
	<polygon fill="#252F30" points="307.2,246.4 328.7,244 333.7,288.7 307.2,289.8 	"/>
	<path fill="#252F30" d="M312.8,288.4l-2.3,42c0,0,5.8,3,12.8,3.3s20.2-4.8,5.1-12.4l1.2-33.3L312.8,288.4z"/>
	<path fill="#F9BD91" d="M302.3,53.6l3.6,8.5h6.5l1.6,6l3.1-5.7c0,0,8.3-2.2,8.4-4.5l-3.3-4.3H302.3z"/>
	<polygon fill="#0A0E11" points="278.1,244.6 279.8,220.4 285.6,220.4 292.2,214.1 282.6,245.5 	"/>
	<path fill="#131B1E" d="M333.2,24.2c-0.3-0.3-0.5-0.6-0.7-1c-0.1-0.4-0.2-0.8-0.2-1.1c0-1.6,0-3.1-0.1-4.7c0-2.8-0.2-5.8-2-8
		c-0.2-0.2-0.4-0.5-0.5-0.8c-0.1-0.3-0.1-0.6-0.1-0.9c0-0.5-0.2-1-0.4-1.5c-1.2-2.9-3.9-5.2-7-5.9s-6.5,0.1-8.9,2.2
		c-0.3,0.3-0.7,0.7-0.8,1.1c-0.1,0.4,0,0.7,0,1.1c0.4,2.1,0.8,4.2,1.3,6.3c0.4,2,0.9,4.1,1.3,6.1c1,4.8,2.1,9.5,2.5,14.4
		c0.4,4.9,0.3,9.8,1,14.6c0.1,0.5,0.2,1.1,0.4,1.6c0.3,0.7,0.8,1.3,1.3,1.8c2.5,2.8,5.1,5.6,8.2,7.8c-1-1.6-1.7-3.4-2-5.3
		c2,1.6,3.3,4,3.5,6.6c0.7-3,1.1-6.5-0.9-8.8c2.1,2,3.3,4.8,3.3,7.7c1.5-3.1,0.8-7.2-1.6-9.6c1.2,0.9,2.5,1.9,3.7,2.8
		c0.8,0.6,2,1.3,2.9,0.8c-1.5-0.1-2.8-1.1-3.6-2.3c-0.8-1.2-1.2-2.7-1.5-4.1c1.6,1.1,3.3,2.2,4.9,3.3c-1.8-2.3-3.2-4.9-4.1-7.7
		c1.3,2,3.3,3.4,5.6,4c-2.1-0.9-3.7-2.8-4.3-5c-0.4-1.4-0.4-2.9-0.3-4.3c3.4,1,5.9,4.7,5.5,8.3c0.5-2.8,0.7-6-1-8.2
		c-0.9-1.2-2.4-2-3-3.3c-0.6-1.1-0.5-2.5-0.7-3.8C334.7,26.7,334.1,25.3,333.2,24.2z"/>
	<path fill="#F9BD91" d="M327.9,6.7v36h-5.5v11.8c0,0-6.2,12.1-21.2,0V30c0,0-4.6-0.9-4.6-6.2s5.2-2.7,5.2-2.7V6.7H327.9z"/>
	<path fill="#131B1E" d="M285.6,51.1c1.7-0.3,3.2-1.5,3.8-3c-0.4,2.3-2,4.3-4.1,5.1c2.7,0.5,5.6-1,6.7-3.4c0,2.3-2.3,4-4.3,5.2
		c2.5,0.3,5.1-1.4,5.8-3.9c0.3,1.1-0.3,2.3-1.2,3.1s-1.9,1.3-3,1.8c2.7,0.4,5.5-0.8,7-3.1c-0.7,0.9-1.5,1.8-2.2,2.7
		c3-0.2,5.6-2.7,6-5.7c0.2-1.3-0.1-2.6,0.1-3.8c0.1-1,0.5-2,0.7-3.1c0.3-1.4,0.2-2.8,0.3-4.2c0.1-3.1,0.4-6.1,1-9.2
		c0.1-0.6,0.2-1.1,0.5-1.6c0.3-0.4,0.7-0.8,0.9-1.3c0.6-1.2,0-2.5-0.1-3.8c-0.1-1.1,0.2-2.2,0.5-3.2c0.8-2.9,1.9-5.7,3.1-8.4
		c0.2-0.5,0.5-1,0.9-1.4c0.5-0.4,1.1-0.6,1.8-0.8c1.5-0.5,3.1-0.9,4.6-0.3c-0.2-1.6-0.3-3.3-0.5-4.9c-0.1-0.5-0.1-1-0.4-1.4
		c-0.3-0.4-0.8-0.6-1.3-0.8c-1.7-0.5-3.6-0.4-5.3,0.2c-1.5,0.6-2.8,1.6-4.1,2.7c-3.9,3.5-7,8.3-7.5,13.6c-0.2,1.8-0.1,3.7-0.8,5.3
		c-0.7,1.6-2.1,2.7-3.2,4c-1.7,2-2.8,4.5-3.2,7.2c1.3-1.5,3.1-2.7,5-3.4c-1.5,0.8-2.2,2.6-3,4.1c-1.4,2.6-3.4,4.9-5.9,6.5
		c2.3-0.1,4.5-1.1,6.1-2.7c-1.2,2.7-3.6,4.9-6.4,5.9c2.3,0.2,4.6-0.8,6.1-2.6c-0.8,2.1-1.7,4.3-3.7,5.3c-0.9,0.4-1.9,0.6-2.7,1.1
		c2.4,0.6,5.1,0.1,7-1.5"/>
	<path fill="#131B1E" d="M328.9,25c-0.7-2.3-0.8-4.7-1.3-7s-1.6-4.7-3.6-5.9c-0.9-0.6-1.9-0.9-2.7-1.5c-0.5-0.3-0.9-0.8-1.4-1.1
		c-0.9-0.5-1.9-0.6-3-0.6c-1.1-0.1-2.2-0.1-3.3-0.2c-0.2-0.6-0.3-1.2-0.5-1.7c-0.1-0.3-0.2-0.7-0.1-1c0.2-0.6,0.8-0.8,1.4-1
		c2.6-0.8,5.3-1.7,8-1.4c2.7,0.2,5.5,1.8,6.3,4.5c0.5,1.6,0.2,3.3,0.1,5C328.7,17,330,21.1,328.9,25z"/>
	<polygon fill="#131B1E" points="269.9,61.9 266.2,51.7 282.5,46.1 286.4,56.5 	"/>
	<polygon fill="#273130" points="281.3,46.5 270.2,22.3 275.8,39.3 263.8,19.6 269.8,38.6 256.3,13.1 268.8,45.2 259.6,33.3 
		265,46.5 258.9,37.4 266.2,51.7 	"/>
	<polygon fill="#131B1E" points="324.5,39 324.5,42.7 313.9,42.7 313.9,38.4 315.7,41.6 323.2,41.6 	"/>
	<polygon fill="#131B1E" points="320.3,31.4 313.9,33.3 313.9,36.5 315.2,34 320.3,32.4 	"/>
	<polygon fill="#131B1E" points="321.2,31.4 321.2,32.4 324.5,34 324.5,35.6 325.5,32.4 	"/>
	<polygon fill="#131B1E" points="340.3,112.8 281.3,58.2 275,59.9 340.6,124.5 	"/>
</g>
<g>
	<path fill="#0A0E11" d="M445,295.7l-3.2,39.1c0,0,5.3,2.9,11.9,3.4s18.9-3.9,5.1-11.5l1.9-31.1H445z"/>
	<path fill="#0A0E11" d="M483.2,291.7l-2.1,39.2c0,0,5.4,2.8,12,3.1s18.8-4.4,4.8-11.6l1.1-31.1L483.2,291.7z"/>
	<polygon fill="#434344" points="422,308.5 422,327.5 459.7,330 479.7,322.9 510.8,322.6 522.9,138.3 504.7,72 485,57.2 456.1,63.1 
		427.6,91.5 	"/>
	<polygon fill="#58595B" points="450.6,60.7 433.1,64.8 418.5,88.9 397,81.2 395.8,101.9 390,245.2 422,308.5 436.4,231.9 
		437.7,116.7 444,81.9 456.1,68.7 	"/>
	<polygon points="436.8,198.3 446.1,153.3 441.5,114.4 444,81.9 437.7,116.7 	"/>
	<polygon fill="#3A3127" points="446.1,153.3 509.7,157.1 507.1,164.9 506.6,188 503.5,188 505.5,230.4 468.9,217.3 475,162 
		445,158.8 	"/>
	<path fill="#4D4C51" d="M511.3,35.8c0,0-5.9-10.9-23.3-10l-6.9-9.5l-26-12.7l-23.6,10.7l19.5,1.4l1.4,14.8c0,0-17.8,7.6-14.3,17.8
		L511.3,35.8z"/>
	
		<ellipse transform="matrix(0.9885 -0.1514 0.1514 0.9885 -0.8008 72.3368)" fill="#110708" cx="474.5" cy="41.4" rx="37.2" ry="11.3"/>
	<path fill="#F9BD91" d="M515.3,152.6c-13.8,19.6-21.6,12.9-23.5,9.6c-1.9-3.3,8.9-10.9,8.9-10.9s-4.2,3.6-5.6,1
		c-1.4-2.5,3.3-6.9,3.3-6.9s7.2-8,13-3.4C517.1,146.7,515.3,152.6,515.3,152.6z"/>
	<path fill="#F9BD91" d="M486.4,31.4v30.7h-4.7v10.1c0,0-5.3,10.3-18.1,0v-21c0,0-3.9-0.8-3.9-5.3s4.5-2.3,4.5-2.3V33.5L486.4,31.4z
		"/>
	<path fill="#776D63" d="M486.4,51.6c0,0,11.6,7.6,10.9,27.6l0,15.8l-2.8-12l-8.8,36.9l-1.6-10.5l-3.5,25.3l-5.8-32.9L464,117.4
		l2.6-29.5c0,0-1.9,11.6-6.9,13c0,0,3.1-9.5,0-13.9c-3.1-4.4-2-17.6-2-17.6l-7,10.9l3.7-12.8l-8.3,8.1c0,0,7.2-21.6,7.4-29.5
		c0,0,4.2-11.8,10.7-12.5c0,0,0.2,18.8,2.3,18.8C468.6,52.3,480.3,44.7,486.4,51.6z"/>
	<path fill="#58595B" d="M491.7,57.2L511.3,71l2.9,5.9l27.4,34.8l-7.7,44l10.7,65.4l-18.6,9.1l7,102h-22l-3.9-167.2l3.2-9.7
		L499.7,139l6.5-23.7l-1.8-36.7l-7.9-9C496.6,69.5,494.8,61.1,491.7,57.2z"/>
	<path fill="#645444" d="M402.6,81.1c-1.1-9.7-2.2-19.4-3.3-29.1c-0.2-1.6-0.4-3.3-1.4-4.5c-0.9-1.2-2.4-1.7-3.4-2.8
		c-3.3-3.3-1-8.9,1.4-12.8c-2.3-1.5-4.7-3.1-6.2-5.4c-1.5-2.3-2-5.5-0.3-7.8s5.7-2.4,6.9,0.1c2.8-2.5,7.6-1,9.8,2s2.5,7.1,2.7,10.9
		c1.5,24.7,3,49.4,4.5,74.1c0.3,5.5,0.7,11.1,1.2,16.6c0.9,9.7,2.2,19.3,3.5,29c0.7,4.9,1.4,9.8,2,14.7c3.4,24.8,6.8,49.6,11.1,74.3
		c2,11.7,4.3,23.5,5.3,35.3c1.6,19.1,0.1,39,6.7,57c-1.5,1.9-4.8,1.2-6.3-0.7c-1.5-1.9-1.7-4.5-1.9-7
		c-4.5-61.3-18.4-121.4-27.2-182.2c-1.6-10.8-3-21.7-3.5-32.7c-0.8-15.9,0.2-32.3-5.1-47.3"/>
	<path fill="#F9BD91" d="M413.7,96.2c16.9-17,8.9-23.5,5.4-24.8S409.9,82,409.9,82s2.8-4.8,0.1-5.7c-2.7-0.9-6.3,4.5-6.3,4.5
		s-6.6,8.5-1.1,13.3C408.2,99,413.7,96.2,413.7,96.2z"/>
</g>
<g>
	<polygon fill="#897A71" points="56.4,258 96.7,263.9 94.1,271.5 51.8,292.8 78.2,309.1 69.1,311.2 34.4,302.7 59.1,275.3 
		43.7,272.7 	"/>
	<polygon fill="#A09084" points="10.7,261.5 0,278.8 20.3,300.8 0,323.1 21.8,323.1 32,302.7 23.5,292.3 25.5,276.1 23.5,259.8 	"/>
	<polygon fill="#3B2A21" points="15.1,256.9 10.7,261.5 21.1,261.5 26.2,278.4 26.2,289.9 30.7,277.4 32,300.8 47.2,280.5 
		49.4,267.5 58.1,256.9 	"/>
	
		<ellipse transform="matrix(0.9137 0.4064 -0.4064 0.9137 93.7371 -18.6183)" fill="#8C7C6C" cx="90.7" cy="211.4" rx="5.2" ry="8.8"/>
	
		<ellipse transform="matrix(-0.9137 0.4064 -0.4064 -0.9137 188.1539 385.8994)" fill="#8C7C6C" cx="53.1" cy="212.9" rx="5.2" ry="8.8"/>
	<path fill="#A09084" d="M81.7,228.8l5.6,10.7L79,264.8l5.7,46.7l11.9,3.9l4.2,6.8l-12.7-1.5l-9.1-3.2l1,4.7h-4.4l-3.4-10.4l3.6-2.1
		l-10.1-42.1l5.7-20.4l-28.1,20.4L58,311.2l10.7,6.2l8.6,15.3l-3.9,0.5l-7-5.1l3.9,8.8l-11.2,1.3l-2.9-8.8l-6.2,8.8h-2.7l3.8-10.4
		l-3.8-3.4l2.2-9.4l-21.6-43.6l3.4-40.7c0,0,8.6-15,33.1-14.2C88.9,217.3,81.7,228.8,81.7,228.8z"/>
	<path fill="#B6A695" d="M55.1,220.5l8.1,14.8h12.5l11.7-12.5v-23.8c0,0-1.3-9.4-16.1-10.1s-18.1,15.1-18.1,15.1L55.1,220.5z"/>
	<polygon fill="#B6A695" points="28.6,261.5 15.1,256.9 32,233.2 	"/>
</g>
</svg>
