<?xml version="1.0" encoding="utf-8"?>
<!-- Generator: Adobe Illustrator 18.0.0, SVG Export Plug-In . SVG Version: 6.00 Build 0)  -->
<!DOCTYPE svg PUBLIC "-//W3C//DTD SVG 1.1//EN" "http://www.w3.org/Graphics/SVG/1.1/DTD/svg11.dtd">
<svg version="1.1" id="Layer_1" xmlns="http://www.w3.org/2000/svg" xmlns:xlink="http://www.w3.org/1999/xlink" x="0px" y="0px"
	 viewBox="0 0 376.3 900.2" enable-background="new 0 0 376.3 900.2" xml:space="preserve">
<g>
	<rect x="76.3" y="17.6" fill="#BCBEC0" width="6.8" height="120.9"/>
	<rect x="78.9" y="80" fill="#969EAC" width="8.2" height="61.9"/>
	<rect x="74.6" y="0" fill="#6E777E" width="8.5" height="29.8"/>
	<polygon fill="#8B9395" points="58.6,138.5 58.6,894.6 165.5,894.6 165.5,151.5 	"/>
	<polygon fill="#6E777E" points="58.6,138.5 165.5,151.5 165.5,166.7 59,156.3 	"/>
	<polygon fill="#DCCFBD" points="58.6,138.5 0.3,152.6 0.3,894.6 58.6,894.6 	"/>
	<polygon fill="#B4B1A1" points="58.6,138.5 0.3,152.6 0.3,165.4 59,156.3 	"/>
	<polygon fill="#808986" points="59.5,159.8 165.5,170.2 165.5,182.4 59.5,173.2 	"/>
	<polygon fill="#B5B1A5" points="59.5,159.8 0.3,168.9 0.3,180.9 59.5,173.2 	"/>
	<rect x="57.9" y="142" fill="#FFFEEE" width="3.2" height="752.7"/>
	<polygon fill="#AEB2BB" points="57.9,142 59,132.8 162,145.9 165.5,151.5 	"/>
	<polygon fill="#DED3CD" points="0.3,155 57.9,142 59,132.8 2.5,147.6 	"/>
	<polygon fill="#9E9F90" points="61.6,406 165.5,409.2 165.5,432 61.6,428.8 	"/>
	<polygon fill="#E6D6BB" points="0.1,416.4 0.1,437.5 57.9,429.4 57.9,406.2 	"/>
	<polygon fill="#9E9F90" points="61.5,694.1 165.5,694.6 165.5,717.4 61.5,716.9 	"/>
	<polygon fill="#E6D6BB" points="0,696.6 0,717.7 57.8,717.5 57.8,694.3 	"/>
	<rect x="76.3" y="38.2" fill="#BE1E2D" width="6.8" height="6.7"/>
	<rect x="76.3" y="66.8" fill="#BE1E2D" width="6.8" height="6.7"/>
	<polygon fill="#8B9395" points="267.8,132.6 267.8,900.2 376.3,900.2 376.3,145.8 	"/>
	<polygon fill="#6E777E" points="267.8,132.6 376.3,145.8 376.3,161.2 268.2,150.7 	"/>
	<polygon fill="#DCCFBD" points="267.8,132.6 208.7,146.9 208.7,900.2 267.8,900.2 	"/>
	<polygon fill="#B4B1A1" points="267.8,132.6 208.7,146.9 208.7,159.9 268.2,150.7 	"/>
	<polygon fill="#808986" points="268.7,154.2 376.3,164.8 376.3,177.1 268.7,167.9 	"/>
	<polygon fill="#B5B1A5" points="268.7,154.2 208.7,163.5 208.7,175.6 268.7,167.9 	"/>
	<rect x="267.1" y="136.1" fill="#FFFEEE" width="3.2" height="764.1"/>
	<polygon fill="#AEB2BB" points="267.1,136.1 268.2,126.8 372.8,140.1 376.3,145.8 	"/>
	<polygon fill="#DED3CD" points="208.7,149.3 267.1,136.1 268.2,126.8 210.9,141.8 	"/>
	<polygon fill="#9E9F90" points="270.9,404.1 376.3,407.4 376.3,430.6 270.9,427.3 	"/>
	<polygon fill="#E6D6BB" points="208.4,414.7 208.4,436.1 267.1,427.9 267.1,404.3 	"/>
	<polygon fill="#9E9F90" points="270.8,696.6 376.3,697.1 376.3,720.3 270.8,719.8 	"/>
	<polygon fill="#E6D6BB" points="208.3,699.1 208.3,720.5 267,720.4 267,696.8 	"/>
</g>
</svg>
