<?xml version="1.0" encoding="utf-8"?>
<!-- Generator: Adobe Illustrator 18.1.1, SVG Export Plug-In . SVG Version: 6.00 Build 0)  -->
<svg version="1.1" id="Layer_1" xmlns="http://www.w3.org/2000/svg" xmlns:xlink="http://www.w3.org/1999/xlink" x="0px" y="0px"
	 viewBox="0 135 800 275.4" enable-background="new 0 135 800 275.4" xml:space="preserve">
<path fill="#8BC43E" d="M0,410.4c1.8,0,113.4-44.7,137.2-69.2s148.3-41.3,202.7-35.7c54.3,5.6,208.5,25.8,228.3,24.1
	c19.8-1.7,121.7,30.5,153.7,39.2c32.1,8.6,51.8,37.4,79.9,39.6"/>
<path fill="#6B9821" d="M0.5,410.4c1.2,0,160.7-30.9,172.1-31.9s149-12.6,162-10.5c13,2.1,136.7,4.2,148.1-0.3
	c11.4-4.5,89.9-12.9,105.8-9.2c15.9,3.7,153,44,211.6,51.8"/>
<g>
	<rect x="124.6" y="281.6" fill="#FFFFF9" width="66.7" height="1.5"/>
	<circle fill="#FFFFF9" cx="127.6" cy="276" r="7.1"/>
	<circle fill="#FFFFF9" cx="185.7" cy="274.8" r="7.1"/>
	<circle fill="#FFFFF9" cx="140.7" cy="271.3" r="11.7"/>
	<circle fill="#FFFFF9" cx="173.3" cy="266.5" r="16.2"/>
	<ellipse fill="#FFFFF9" cx="154.8" cy="273" rx="10.8" ry="9.1"/>
	<path fill="#FFFFF9" d="M127.6,277.9l3.6,4.2l59.3,0.6c0,0,4.2-4.5,0-6.8c-4.2-2.2-20.9-3-20.9-3L127.6,277.9z"/>
</g>
<g>
	<rect x="507.6" y="258.1" fill="#FFFFF9" width="56.1" height="1.3"/>
	<circle fill="#FFFFF9" cx="510.1" cy="253.4" r="5.9"/>
	<circle fill="#FFFFF9" cx="558.9" cy="252.4" r="5.9"/>
	<circle fill="#FFFFF9" cx="521.2" cy="249.5" r="9.9"/>
	<circle fill="#FFFFF9" cx="548.5" cy="245.5" r="13.6"/>
	<ellipse fill="#FFFFF9" cx="533" cy="251" rx="9" ry="7.7"/>
	<path fill="#FFFFF9" d="M510.1,255l3,3.6l49.9,0.5c0,0,3.6-3.8,0-5.7c-3.6-1.9-17.5-2.5-17.5-2.5L510.1,255z"/>
</g>
<g>
	<rect x="424" y="190.2" fill="#FFFFF9" width="40" height="0.9"/>
	<circle fill="#FFFFF9" cx="425.7" cy="186.9" r="4.3"/>
	<circle fill="#FFFFF9" cx="460.6" cy="186.1" r="4.3"/>
	<circle fill="#FFFFF9" cx="433.7" cy="184" r="7.1"/>
	<circle fill="#FFFFF9" cx="453.2" cy="181.2" r="9.8"/>
	<ellipse fill="#FFFFF9" cx="442.1" cy="185.1" rx="6.5" ry="5.5"/>
	<path fill="#FFFFF9" d="M425.7,188l2.1,2.5l35.6,0.4c0,0,2.5-2.7,0-4.1c-2.5-1.4-12.5-1.8-12.5-1.8L425.7,188z"/>
</g>
<g>
	<rect x="302.3" y="167.5" fill="#FFFFF9" width="59.6" height="1.3"/>
	<circle fill="#FFFFF9" cx="304.8" cy="162.5" r="6.3"/>
	<circle fill="#FFFFF9" cx="356.7" cy="161.3" r="6.3"/>
	<circle fill="#FFFFF9" cx="316.6" cy="158.3" r="10.5"/>
	<circle fill="#FFFFF9" cx="345.7" cy="154" r="14.4"/>
	<ellipse fill="#FFFFF9" cx="329.2" cy="159.8" rx="9.6" ry="8.1"/>
	<path fill="#FFFFF9" d="M304.8,164.2l3.2,3.8l53,0.5c0,0,3.8-4,0-6.1c-3.8-2-18.7-2.6-18.7-2.6L304.8,164.2z"/>
</g>
<g>
	<rect x="625.7" y="291.9" fill="#FFFFF9" width="62.5" height="1.4"/>
	<circle fill="#FFFFF9" cx="628.4" cy="286.7" r="6.7"/>
	<circle fill="#FFFFF9" cx="682.9" cy="285.6" r="6.7"/>
	<circle fill="#FFFFF9" cx="640.8" cy="282.4" r="11"/>
	<circle fill="#FFFFF9" cx="671.3" cy="277.9" r="15.2"/>
	<ellipse fill="#FFFFF9" cx="654" cy="283.9" rx="10.1" ry="8.5"/>
	<path fill="#FFFFF9" d="M628.4,288.6l3.3,4l55.6,0.6c0,0,4-4.2,0-6.3c-4-2.1-19.6-2.8-19.6-2.8L628.4,288.6z"/>
</g>
<g>
	<rect x="232.5" y="240.4" fill="#FFFFF9" width="75.6" height="1.7"/>
	<circle fill="#FFFFF9" cx="235.7" cy="234.1" r="8"/>
	<circle fill="#FFFFF9" cx="301.7" cy="232.7" r="8"/>
	<circle fill="#FFFFF9" cx="250.8" cy="228.7" r="13.3"/>
	<circle fill="#FFFFF9" cx="287.6" cy="223.4" r="18.4"/>
	<ellipse fill="#FFFFF9" cx="266.6" cy="230.7" rx="12.2" ry="10.4"/>
	<path fill="#FFFFF9" d="M235.7,236.3l4,4.7l67.3,0.7c0,0,4.7-5.1,0-7.7c-4.7-2.5-23.7-3.4-23.7-3.4L235.7,236.3z"/>
</g>
<g>
	<polygon fill="#EFEFEF" points="270.8,297.6 270.8,284.5 268.4,284.5 264.5,295 260.6,284.5 258.1,284.5 258.1,297.6 259.5,297.6 
		259.5,286.1 263.8,297.6 264.9,297.6 269.2,286.1 269.2,297.6 	"/>
	<path fill="#EFEFEF" d="M275.5,287.9H274v9.8h1.5V287.9L275.5,287.9z M275.5,284.5h-1.6v1.6h1.6V284.5L275.5,284.5z"/>
	<path fill="#EFEFEF" d="M284.3,294.2c-0.3,1.6-1.1,2.4-2.4,2.4c-1.6,0-2.6-1.5-2.6-3.9c0-2.4,1-3.8,2.6-3.8c0.7,0,1.4,0.3,1.8,0.9
		c0.3,0.4,0.4,0.7,0.5,1.5l1.4-0.3c-0.4-2.2-1.7-3.4-3.7-3.4c-2.5,0-4.2,2-4.2,5.1c0,3.1,1.6,5.1,4.1,5.1c1.1,0,1.9-0.3,2.6-1.1
		c0.7-0.7,0.9-1.2,1.1-2.4L284.3,294.2L284.3,294.2z"/>
	<path fill="#EFEFEF" d="M289.2,297.6v-5.1c0.1-2,1.5-3.6,3.3-3.4v-1.5c-0.2,0-0.5-0.1-0.5-0.1c-0.7,0-1.5,0.3-1.9,0.9
		c-0.3,0.5-0.5,0.7-1,1.7v-2.2h-1.3v9.8L289.2,297.6L289.2,297.6z"/>
	<path fill="#EFEFEF" d="M297.5,287.6c-2.6,0-4.4,2-4.4,5.1c0,3.1,1.7,5.1,4.2,5.1c2.6,0,4.5-2.1,4.5-5
		C301.9,289.7,300.2,287.6,297.5,287.6L297.5,287.6z M297.5,288.9c0.8,0,1.6,0.4,2,1.1c0.5,0.7,0.7,1.5,0.7,2.8
		c0,2.4-1.1,3.8-2.7,3.8c-1.7,0-2.7-1.5-2.7-4c0-1.2,0.3-2.1,0.7-2.8C295.9,289.3,296.7,288.9,297.5,288.9L297.5,288.9z"/>
	<path fill="#EFEFEF" d="M302.9,295.1c0.3,0.9,0.5,1.3,1,1.7c0.9,0.7,1.9,1.1,3.3,1.1c2.4,0,4-1.2,4-3c0-1.6-1-2.5-3-2.9l-1.9-0.3
		c-1.1-0.2-1.5-0.7-1.5-1.4c0-0.9,0.9-1.5,2.1-1.5c1.3,0,2,0.5,2.5,1.5l1.4-0.3c-0.5-1.6-1.8-2.4-3.8-2.4c-2.2,0-3.7,1.1-3.7,2.8
		c0,1.4,1,2.4,2.6,2.7l2,0.4c1.1,0.2,1.6,0.7,1.6,1.5c0,0.9-0.9,1.6-2.3,1.6c-0.9,0-1.8-0.3-2.4-0.7c-0.3-0.3-0.5-0.5-0.7-1.1
		L302.9,295.1L302.9,295.1z"/>
	<path fill="#EFEFEF" d="M316.9,287.6c-2.6,0-4.4,2-4.4,5.1c0,3.1,1.7,5.1,4.2,5.1c2.6,0,4.5-2.1,4.5-5
		C321.3,289.7,319.5,287.6,316.9,287.6L316.9,287.6z M316.8,288.9c0.8,0,1.6,0.4,2,1.1c0.5,0.7,0.7,1.5,0.7,2.8
		c0,2.4-1.1,3.8-2.7,3.8c-1.7,0-2.7-1.5-2.7-4c0-1.2,0.3-2.1,0.7-2.8C315.3,289.3,316.1,288.9,316.8,288.9L316.8,288.9z"/>
	<path fill="#EFEFEF" d="M327.6,287.9h-2.4c0-1.1,0-1.1,0.2-1.6c0.2-0.6,0.9-0.9,1.8-0.9c0.3,0,0.5,0,0.9,0.1v-1.3
		c-0.7-0.1-1.1-0.1-1.5-0.1c-1.3,0-2.2,0.6-2.6,1.5c-0.2,0.6-0.3,1-0.3,2.2h-1.7v1.2h1.7v8.6h1.4V289h2.4L327.6,287.9L327.6,287.9z"
		/>
	<path fill="#EFEFEF" d="M334.4,296.5c-0.5,0.1-0.8,0.1-1.2,0.1c-1.1,0-1.6-0.5-1.6-1.5v-6.1h2.2v-1.2h-2.2v-2.6l-1.5,0.1l-0.1,2.4
		h-1.6v1.2h1.7v5.9c0,2,0.9,3,2.8,3c0.5,0,0.8,0,1.5-0.1L334.4,296.5L334.4,296.5z"/>
	<path fill="#EFEFEF" d="M337.2,289.3l-0.4-0.9c0.3-0.1,0.4-0.3,0.4-0.5c0-0.3-0.3-0.6-0.7-0.6h-0.9v2h0.3v-0.9h0.5l0.4,0.9
		L337.2,289.3L337.2,289.3z M336,288.3v-0.7h0.5c0.2,0,0.3,0.1,0.3,0.3s-0.1,0.3-0.4,0.3H336L336,288.3z M336.4,286.7
		c-1,0-1.7,0.7-1.7,1.7c0,0.9,0.7,1.7,1.7,1.7c0.9,0,1.7-0.8,1.7-1.7C338.1,287.4,337.3,286.7,336.4,286.7L336.4,286.7z
		 M336.4,286.9c0.8,0,1.5,0.7,1.5,1.5c0,0.8-0.7,1.5-1.5,1.5s-1.5-0.7-1.5-1.5c0-0.3,0.1-0.7,0.4-1
		C335.6,287.1,336,286.9,336.4,286.9L336.4,286.9z"/>
</g>
<g>
	<polygon fill="#F3793B" points="493.7,322.8 486.6,310.8 492.5,301.7 488.6,301.7 484.6,307.9 481.2,301.7 475.7,301.7 481.8,312 
		474.7,322.8 478.9,322.8 483.8,315.1 488.2,322.8 	"/>
	<path fill="#F3793B" d="M499.7,329.9v-10.1c1.4,2.4,3.2,3.4,5.8,3.4c2.4,0,4.2-0.9,5.5-2.6c1.6-2.2,2.5-5.1,2.5-8.5
		c0-3.2-0.8-5.9-2.2-8c-1.3-1.9-3.1-2.8-5.4-2.8c-2.8,0-4.9,1.3-6.4,4.1v-3.7h-4.6v28.2L499.7,329.9L499.7,329.9z M499.7,311.2
		c0-3.5,1.9-6,4.6-6c2.7,0,4.2,2.6,4.2,7.3c0,4.4-1.6,7-4.2,7s-4.6-2.2-4.6-5.3V311.2L499.7,311.2z"/>
</g>
<g>
	<polygon fill="#FFFFFF" points="309.1,301.7 302.8,301.7 295.3,330.5 287.5,301.7 280.3,301.7 273.2,330.5 265.6,301.7 258,301.7 
		268.8,341.2 276.1,341.2 283.2,312.2 291.1,341.2 298.6,341.2 	"/>
	<path fill="#FFFFFF" d="M317.7,341.2V312h-6.6v29.2H317.7L317.7,341.2z M317.7,308.6v-6.9h-6.6v6.9H317.7L317.7,308.6z"/>
	<path fill="#FFFFFF" d="M347.4,341.2v-18.8c0-3-0.3-4.9-1.3-6.7c-1.3-2.6-4.6-4.4-8-4.4c-4,0-6.5,2-9,7.3V312h-6v29.2h6.6v-14.9
		c0-2.2,0.3-4,1.1-5.5c1.1-2.2,3.2-3.6,5.4-3.6c2.8,0,4.6,2.2,4.6,5.8v18.2L347.4,341.2L347.4,341.2z"/>
	<path fill="#FFFFFF" d="M376.9,341.2v-39.5h-6.6v14.2c-1.6-3.5-4.1-5.1-7.8-5.1c-3.1,0-5.5,1.1-7.4,3.2c-2.6,3-4.1,7.4-4.1,12.2
		c0,4.5,1.4,9.2,3.3,11.8c1.9,2.4,4.6,3.8,7.8,3.8c4.2,0,6.7-2,8.6-6.5v5.9L376.9,341.2L376.9,341.2z M370.3,328.9
		c0,4.2-2.7,7.5-6.2,7.5c-4,0-6.1-3.4-6.1-9.8c0-6.5,2.2-10.1,6.3-10.1c1.7,0,3.3,0.8,4.5,2.2c1.1,1.4,1.5,2.8,1.5,5.3L370.3,328.9
		L370.3,328.9z"/>
	<path fill="#FFFFFF" d="M394.1,311.4c-8,0-13.7,6.2-13.7,15.1c0,3.8,0.9,7.1,2.9,9.9c2.4,3.6,5.9,5.4,10.4,5.4
		c8.2,0,13.8-6.2,13.8-15.2c0-3.8-0.7-6.5-2.4-9.2C402.6,313.4,399.1,311.4,394.1,311.4L394.1,311.4z M394.1,316.8
		c4.2,0,6.5,3.4,6.5,9.6c0,6.4-2.4,10-6.7,10c-4.2,0-6.6-3.6-6.6-9.8C387.5,320.3,389.8,316.8,394.1,316.8L394.1,316.8z"/>
	<polygon fill="#FFFFFF" points="447.5,312 441.9,312 436.3,331.7 431.1,312 425.1,312 420.2,331.7 414.4,312 407.4,312 
		416.4,341.2 422.5,341.2 427.7,320.7 433,341.2 438.8,341.2 	"/>
	<path fill="#FFFFFF" d="M446.1,334.5c0.7,2.2,1.5,3.4,3,4.6c2.4,1.8,5.6,2.7,9.4,2.7c7.8,0,12.7-3.7,12.7-9.5
		c0-4.6-2.5-7.5-7.3-8.4l-6.3-1.3c-3-0.6-4.2-1.6-4.2-3.3c0-1.9,2-3.2,5.1-3.2c3,0,4.6,0.9,5.3,3.3l5.9-1.3
		c-1.4-4.4-5.2-6.7-11.2-6.7c-4.1,0-6.9,1-9,3.2c-1.5,1.6-2.3,3.8-2.3,6.1c0,4.7,2.8,7.5,8.8,8.6l5.3,1.1c2,0.3,3.2,1.5,3.2,2.9
		c0,2.3-2.2,3.6-5.9,3.6c-3.6,0-5.2-0.9-6.5-3.6L446.1,334.5L446.1,334.5z"/>
</g>
</svg>
