<?xml version="1.0" encoding="utf-8"?>
<!-- Generator: Adobe Illustrator 18.0.0, SVG Export Plug-In . SVG Version: 6.00 Build 0)  -->
<!DOCTYPE svg PUBLIC "-//W3C//DTD SVG 1.1//EN" "http://www.w3.org/Graphics/SVG/1.1/DTD/svg11.dtd">
<svg version="1.1" id="Layer_1" xmlns="http://www.w3.org/2000/svg" xmlns:xlink="http://www.w3.org/1999/xlink" x="0px" y="0px"
	 viewBox="0 0 422 335.9" enable-background="new 0 0 422 335.9" xml:space="preserve">
<g>
	<g>
		<rect x="22.8" y="15.6" width="376.3" height="212.3"/>
		<rect x="108.1" y="15.3" fill="#EEFAFA" width="231.5" height="188.5"/>
		<g>
			<path fill="#5DCFD2" d="M302.8,172.9l9.6,30.1h12.1c0,0-6.9-16.1-6.9-25.7c0-9.6-1.9-17.9-0.5-28.8S302.8,172.9,302.8,172.9z"/>
			<path fill="#5DCFD2" d="M319.5,140.2c0,0,6.6,21.8,7.1,38.4c0,0,0.5-31.9-4.4-46.5L319.5,140.2z"/>
			<path fill="#5DCFD2" d="M217.1,127.6c0,0,4,9,3.5,13.7c-0.8,7.5,0.2,18.2,3.5,34.8s5.2,30.9,5.2,30.9h12.9c0,0-2.5-22-2.2-32.4
				c0.3-10.4,0.3-21.6,1.9-22.4c1.6-0.8,5.5,4.4,5.5,4.4l1.4-22.3l-16.5-20l-9.1-0.8L217.1,127.6z"/>
			<path fill="#F9E070" d="M184.6,137.9c0,0-9.9,26-39.2,29.3c0,0,22.2,6.5,37.3-15.8L184.6,137.9z"/>
			<path fill="#8DDEE2" d="M236.4,124.6c0,0,9.6,16.4,9.1,27.5c-0.5,11.2-3.6,39.5-3.6,39.5s6.3,15.1,23.9,15.6c0,0,7.1-7-1.4-17.1
				l-6.9,1c0,0-0.8-4.9,5.2-14c6-9.1,9.6-14.3,9.6-14.3l18.7,2.9c0,0,1.1,16.6-1.6,20.8s-7.4,17.9-7.4,17.9l14.5-1
				c0,0,3-16.1,4.9-19.5c1.9-3.4,15.1-33,18.7-38.7s8.5-17.4,3-30.1c-5.5-12.7-24.7-31.7-35.7-31.2c-11,0.5-18.1,7-33.7-1.8
				l-17.6,43.9"/>
			<path fill="#BEF1EA" d="M224.6,70.6c0,0-17-9.3-30.4,15.6c-13.4,24.9-7.1,12.7-9.6,26s-11,90.3-4.1,95.3
				c6.9,4.9,25.2-1.6,17.6-18.7c0,0-2.7,1.8-5.8,2.1c-3,0.3,2.2,1.8,1.4,4.7c-0.8,2.9-3.8,9.6-4.7,2.6c-0.8-7,9.6-54,11.8-60
				l12.3-5.7l-0.3-4.2c0,0,2.7,3.9,5.8,1.8s8-8.8,8.2-13.8c0,0,1.9,15.8,2.7,15.8s33.2-13,39.2-35.8c0,0-9.3-19-18.9-22.3
				C240.3,70.6,227.6,69.1,224.6,70.6z"/>
			<path fill="#F9E070" d="M204.2,136.6c0,0,4.9,20.9-7.8,37.4c-14.7,19-33.7,27.3-33.7,27.3s25.4-3.5,41.1-28.8
				c12.6-20.4,5.9-38.3,5.9-38.3L204.2,136.6z"/>
		</g>
		<rect x="108.1" y="203.2" fill="#AFE77A" width="231.5" height="24.4"/>
		<rect x="107.8" y="93" fill="#3D9072" width="232" height="1.6"/>
		<rect x="107.8" y="125.1" fill="#3D9072" width="232" height="1.6"/>
		<rect x="107.8" y="157.3" fill="#3D9072" width="232" height="1.6"/>
		<rect x="107.8" y="189.5" fill="#3D9072" width="232" height="1.6"/>
		<rect x="120.4" y="62.8" fill="#50B5A6" width="21.4" height="140.8"/>
		<rect x="254.8" y="62.8" fill="#50B5A6" width="21.4" height="140.8"/>
		<g>
			<g>
				<path fill="#3B425C" d="M233.8,148.8l-25.8-0.9c0.2-0.1-0.4,0-1.4,0.3c-5,1.3-21,8.1-21,37.3c0,4.3,0,8.6,0,11.6h72.1
					C255.5,173,249.5,148.4,233.8,148.8z"/>
				<path fill="#933854" d="M258.6,234c0,0,0.7-18-1-37h-72.1c-0.1,27-0.4,37-0.4,37H258.6z"/>
			</g>
			<path fill="#6B6A80" d="M217.7,139.7c0,0-20.1,7.6-26,35c0,0,17.6,24.2,19.7,33.2L217.7,139.7z"/>
			<path fill="#6B6A80" d="M223.5,139.7c0,0,20.1,7.6,26,35c0,0-17.6,24.2-19.7,33.2L223.5,139.7z"/>
			<path fill="#1C2649" d="M213.3,231.7c0,0,18.1-0.9,19,0c0.9,0.9,6.9-71.6-6.6-82c0,0-8.9-2.1-11-0.3
				C197.6,164.3,213.3,231.7,213.3,231.7z"/>
			<path fill="#F9BD91" d="M237.1,112.6v30.5c-0.2,2.7-2.9,4.7-5.8,4.9l-4.4,0l0.1,6.8c0,0-5.7,11.8-14.1,1v-20.3c0,0-4.5-1-4.2-5.3
				c0.3-4.3,4.2-1.9,4.2-1.9v-15.4L237.1,112.6z"/>
			<path fill="#754C24" d="M212.9,128.2l2.6,3.5c0,0-1.8-11.1,0.4-15.2c0,0,1.8,3.5,4.4,4.2c0,0-1.1-5.5,2.2-6.6
				c0,0,6.6,1.7,6.9,7.3c0,0,1.8-2.4,0-6.6c0,0,4.8,1,4.8,7.6c0,0,4-0.7,3.3-7.6c0,0,2.6,2.8,3.3,6.9c0,0,2.2-15.2-6.6-19
				c-10-4.3-24.6-1.4-24.1,11.4c0.4,9.7,0,13.5,0,13.5S212.1,126.8,212.9,128.2z"/>
			<path fill="#DB2353" d="M232.7,170.5l5.1,18l11.7-13.8c0,0-10.2,19-14.6,23.2C234.9,197.8,233.8,173.3,232.7,170.5z"/>
			<path fill="#DB2353" d="M207.1,172.2c0,0,0.4,13.2,1.1,28l-11.3-18.3l8,9C204.9,190.9,202.7,177.4,207.1,172.2z"/>
		</g>
		<g>
			<path fill-rule="evenodd" clip-rule="evenodd" fill="#EB3736" d="M378.4,198.1c2.3,0,5.4,0,7.6,0.2c1.8,0.2,2.3,0.4,2.7,0.8
				c1.2,1,1.5,3.8,1.5,6.5c0,0.6,0,1.2,0,1.8c0,2.7-0.3,5.5-1.5,6.5c-0.5,0.4-0.9,0.6-2.7,0.8c-2.3,0.2-5.3,0.2-7.6,0.2
				c-1,0-1.9,0-2.9,0c-2.3,0-5.4,0-7.6-0.2c-1.8-0.2-2.3-0.4-2.7-0.8c-1.2-1-1.5-3.8-1.5-6.6c0-0.5,0-1,0-1.6c0-2.8,0.3-5.6,1.5-6.6
				c0.5-0.4,0.9-0.6,2.7-0.8c2.3-0.2,5.3-0.2,7.6-0.2C376.5,198.1,377.4,198.1,378.4,198.1L378.4,198.1z"/>
			<path fill-rule="evenodd" clip-rule="evenodd" fill="#FFFFFF" d="M360.4,211.7h1.6v-8.2h-1.6v6.2c-1.1,1.2-1.4,0.3-1.4-0.2v-6.1
				h-1.6v6.4c0,1,0.3,1.7,1,1.8c0.5,0.1,1.1,0,2-1V211.7L360.4,211.7z M347.9,211.7h1.8v-4.4l2.1-6.5H350l-1.2,4.1l-1.2-4.1h-1.8
				l2.1,6.6V211.7L347.9,211.7z M354,203.5L354,203.5c1.3,0,2.3,1,2.3,2.2c0,1.4,0,2.6,0,3.9c0,1.2-1,2.2-2.3,2.2l0,0
				c-1.3,0-2.3-1-2.3-2.2v-3.9C351.6,204.5,352.7,203.5,354,203.5L354,203.5z M353.2,209.7c0,0.4,0.3,0.7,0.7,0.7l0,0
				c0.4,0,0.7-0.3,0.7-0.7c0-1.4,0-2.8,0-4.3c0-0.4-0.3-0.7-0.7-0.7l0,0c-0.4,0-0.7,0.3-0.7,0.7C353.2,207,353.2,208.2,353.2,209.7
				L353.2,209.7z"/>
			<path fill-rule="evenodd" clip-rule="evenodd" fill="#FFFFFF" d="M377.6,211.7h1.6v-0.9c0.3,0.3,0.8,1,1.7,0.9
				c1.6-0.2,1.3-2.1,1.3-2.1s0-2.8,0-4.2s-0.5-1.9-1.4-1.9c-0.7,0-1.4,0.6-1.6,0.9v-3.5h-1.6V211.7L377.6,211.7z M379.1,210.1v-4.9
				c0.2-0.2,0.5-0.4,0.8-0.4c0.7,0,0.7,0.9,0.7,0.9s0,3.2,0,3.9s-0.3,0.8-0.7,0.9C379.5,210.4,379.2,210.1,379.1,210.1L379.1,210.1z
				"/>
			<path fill-rule="evenodd" clip-rule="evenodd" fill="#FFFFFF" d="M374.6,211.7h1.6v-8.2h-1.6v6.2c-1.1,1.2-1.4,0.3-1.4-0.2v-6.1
				h-1.6v6.4c0,1,0.3,1.7,1,1.8c0.5,0.1,1.1,0,2-1V211.7L374.6,211.7z"/>
			<polygon fill-rule="evenodd" clip-rule="evenodd" fill="#FFFFFF" points="367.9,211.7 369.6,211.7 369.6,202.4 371.5,202.4 
				371.5,200.8 369.6,200.8 367.9,200.8 366,200.8 366,202.4 367.9,202.4 367.9,211.7 			"/>
			<path fill-rule="evenodd" clip-rule="evenodd" fill="#FFFFFF" d="M385.7,203.5L385.7,203.5c1.3,0,2.3,1,2.3,2.2v2.2h-0.4h-1.2
				H385v1.9c0,0.4,0.3,0.7,0.7,0.7l0,0c0.4,0,0.7-0.3,0.7-0.7v-0.9h1.6v0.7c0,1.2-1,2.2-2.3,2.2l0,0c-1.3,0-2.3-1-2.3-2.2v-3.9
				C383.4,204.5,384.4,203.5,385.7,203.5L385.7,203.5z M386.5,206.6v-1.2c0-0.4-0.3-0.7-0.7-0.7l0,0c-0.4,0-0.7,0.3-0.7,0.7v1.2
				H386.5L386.5,206.6z"/>
		</g>
		<rect x="22.8" y="221.7" fill-rule="evenodd" clip-rule="evenodd" fill="#1B1B1B" width="376.5" height="15.6"/>
		<rect x="53.5" y="220" fill-rule="evenodd" clip-rule="evenodd" fill="#777777" width="345.6" height="3.8"/>
		<rect x="22.4" y="220" fill-rule="evenodd" clip-rule="evenodd" fill="#CC181E" width="129.8" height="3.8"/>
		<g>
			<ellipse fill-rule="evenodd" clip-rule="evenodd" fill="#EAEAEA" cx="151.9" cy="221.4" rx="4.4" ry="4.2"/>
			<ellipse fill-rule="evenodd" clip-rule="evenodd" fill="#777777" cx="151.9" cy="221.4" rx="2" ry="1.9"/>
		</g>
		<polygon fill="#8E8E8E" points="30,230.2 30,226.7 33.3,228.5 36.5,230.2 33.3,232 30,233.8 		"/>
		<g>
			<polygon fill="#8E8E8E" points="50,230.2 50,227.2 52.5,228.7 55.2,230.2 52.6,231.8 50,233.3 			"/>
			<polygon fill="#8E8E8E" points="52,230.2 52,227.2 55,228.7 57.9,230.2 54.9,231.8 52,233.3 			"/>
			<rect x="57.4" y="227" fill="#8E8E8E" width="1.1" height="6.5"/>
		</g>
		<g>
			<polygon fill="#8E8E8E" points="76,230.2 76,234.3 72.7,232.3 69.4,230.2 72.7,228.2 76,226.1 			"/>
			<rect x="69.5" y="228.3" fill="#8E8E8E" width="3.7" height="3.9"/>
		</g>
		<g>
			<path fill="#8E8E8E" d="M395.3,234.5h-13v-7.9h13V234.5z M383.9,232.9h9.7v-4.7h-9.7V232.9z"/>
		</g>
		<g>
			<path fill="#FFFFFF" d="M86.6,227.6c0.5,0,0.9,0.2,1.2,0.5c0.3,0.4,0.5,1.1,0.5,2.1c0,1-0.2,1.6-0.5,2.1
				c-0.3,0.3-0.7,0.5-1.2,0.5c-0.5,0-0.9-0.2-1.3-0.6c-0.3-0.4-0.5-1.1-0.5-2c0-0.9,0.2-1.6,0.5-2.1
				C85.7,227.8,86.1,227.6,86.6,227.6z M86.6,228.4c-0.1,0-0.2,0-0.3,0.1s-0.2,0.2-0.2,0.4c-0.1,0.3-0.1,0.7-0.1,1.3s0,1,0.1,1.2
				c0.1,0.2,0.1,0.4,0.2,0.4c0.1,0.1,0.2,0.1,0.3,0.1s0.2,0,0.3-0.1s0.2-0.2,0.2-0.4c0.1-0.2,0.1-0.7,0.1-1.3s0-1-0.1-1.2
				c-0.1-0.2-0.1-0.4-0.2-0.4C86.9,228.5,86.8,228.4,86.6,228.4z"/>
			<path fill="#FFFFFF" d="M89.5,230v-1h1v1H89.5z M89.5,232.7v-1h1v1H89.5z"/>
			<path fill="#FFFFFF" d="M93.3,227.6c0.5,0,0.9,0.2,1.2,0.5c0.3,0.4,0.5,1.1,0.5,2.1c0,1-0.2,1.6-0.5,2.1
				c-0.3,0.3-0.7,0.5-1.2,0.5c-0.5,0-0.9-0.2-1.3-0.6c-0.3-0.4-0.5-1.1-0.5-2c0-0.9,0.2-1.6,0.5-2.1
				C92.3,227.8,92.7,227.6,93.3,227.6z M93.3,228.4c-0.1,0-0.2,0-0.3,0.1c-0.1,0.1-0.2,0.2-0.2,0.4c-0.1,0.3-0.1,0.7-0.1,1.3
				s0,1,0.1,1.2c0.1,0.2,0.1,0.4,0.2,0.4c0.1,0.1,0.2,0.1,0.3,0.1c0.1,0,0.2,0,0.3-0.1c0.1-0.1,0.2-0.2,0.2-0.4
				c0.1-0.2,0.1-0.7,0.1-1.3s0-1-0.1-1.2c-0.1-0.2-0.1-0.4-0.2-0.4S93.4,228.4,93.3,228.4z"/>
			<path fill="#FFFFFF" d="M95.6,231.4l1-0.1c0,0.2,0.1,0.4,0.3,0.5s0.3,0.2,0.5,0.2c0.2,0,0.4-0.1,0.5-0.2s0.2-0.4,0.2-0.6
				c0-0.2-0.1-0.4-0.2-0.6c-0.1-0.1-0.3-0.2-0.5-0.2c-0.1,0-0.3,0-0.5,0.1l0.1-0.8c0.3,0,0.5,0,0.6-0.2c0.1-0.1,0.2-0.3,0.2-0.5
				c0-0.2-0.1-0.3-0.2-0.4c-0.1-0.1-0.2-0.2-0.4-0.2c-0.2,0-0.3,0.1-0.4,0.2s-0.2,0.3-0.2,0.5l-0.9-0.2c0.1-0.3,0.2-0.5,0.3-0.7
				c0.1-0.2,0.3-0.3,0.6-0.4c0.2-0.1,0.5-0.2,0.8-0.2c0.5,0,0.9,0.2,1.2,0.5c0.2,0.2,0.4,0.5,0.4,0.8c0,0.4-0.3,0.8-0.8,1.1
				c0.3,0.1,0.5,0.2,0.7,0.4c0.2,0.2,0.3,0.5,0.3,0.8c0,0.4-0.2,0.8-0.5,1.1c-0.3,0.3-0.8,0.5-1.3,0.5c-0.5,0-0.9-0.1-1.2-0.4
				C95.9,232.1,95.7,231.8,95.6,231.4z"/>
			<path fill="#B3B3B3" d="M101.5,232.8l1.3-5.2h0.8l-1.3,5.2H101.5z"/>
			<path fill="#B3B3B3" d="M107.7,227.6c0.5,0,0.9,0.2,1.2,0.5c0.3,0.4,0.5,1.1,0.5,2.1c0,1-0.2,1.6-0.5,2.1
				c-0.3,0.3-0.7,0.5-1.2,0.5c-0.5,0-0.9-0.2-1.3-0.6c-0.3-0.4-0.5-1.1-0.5-2c0-0.9,0.2-1.6,0.5-2.1
				C106.8,227.8,107.2,227.6,107.7,227.6z M107.7,228.4c-0.1,0-0.2,0-0.3,0.1c-0.1,0.1-0.2,0.2-0.2,0.4c-0.1,0.3-0.1,0.7-0.1,1.3
				s0,1,0.1,1.2c0.1,0.2,0.1,0.4,0.2,0.4c0.1,0.1,0.2,0.1,0.3,0.1c0.1,0,0.2,0,0.3-0.1c0.1-0.1,0.2-0.2,0.2-0.4
				c0.1-0.2,0.1-0.7,0.1-1.3s0-1-0.1-1.2c-0.1-0.2-0.1-0.4-0.2-0.4S107.9,228.4,107.7,228.4z"/>
			<path fill="#B3B3B3" d="M110.6,230v-1h1v1H110.6z M110.6,232.7v-1h1v1H110.6z"/>
			<path fill="#B3B3B3" d="M115.3,232.7h-1v-3.6c-0.4,0.3-0.8,0.6-1.3,0.7v-0.9c0.3-0.1,0.6-0.2,0.9-0.5c0.3-0.2,0.5-0.5,0.6-0.8
				h0.8V232.7z"/>
			<path fill="#B3B3B3" d="M117.7,230c-0.3-0.1-0.5-0.3-0.6-0.4c-0.1-0.2-0.2-0.4-0.2-0.6c0-0.4,0.1-0.7,0.4-0.9s0.7-0.4,1.2-0.4
				c0.5,0,0.9,0.1,1.2,0.4s0.4,0.6,0.4,0.9c0,0.2-0.1,0.4-0.2,0.6c-0.1,0.2-0.3,0.3-0.5,0.4c0.3,0.1,0.5,0.3,0.7,0.5
				c0.2,0.2,0.2,0.5,0.2,0.7c0,0.5-0.2,0.8-0.5,1.1c-0.3,0.3-0.7,0.4-1.3,0.4c-0.5,0-0.9-0.1-1.2-0.4c-0.4-0.3-0.6-0.7-0.6-1.2
				c0-0.3,0.1-0.5,0.2-0.8C117.1,230.3,117.3,230.1,117.7,230z M117.8,231.2c0,0.3,0.1,0.5,0.2,0.6c0.1,0.1,0.3,0.2,0.5,0.2
				c0.2,0,0.4-0.1,0.5-0.2s0.2-0.4,0.2-0.6c0-0.2-0.1-0.4-0.2-0.6s-0.3-0.2-0.5-0.2c-0.2,0-0.4,0.1-0.6,0.2S117.8,231,117.8,231.2z
				 M117.9,229c0,0.2,0.1,0.3,0.2,0.5c0.1,0.1,0.3,0.2,0.5,0.2c0.2,0,0.3-0.1,0.5-0.2c0.1-0.1,0.2-0.3,0.2-0.5
				c0-0.2-0.1-0.3-0.2-0.4c-0.1-0.1-0.3-0.2-0.5-0.2c-0.2,0-0.4,0.1-0.5,0.2C117.9,228.7,117.9,228.8,117.9,229z"/>
		</g>
	</g>
	<g>
		<path fill="#D2D3D5" d="M164.8,291.7c-1.9,0-3.8,0-5.7,0c-46.5,0-93,0-139.4,0c-3.7,0-6.9-1.1-9.5-3.8c-2.1-2.2-3.3-4.9-3.4-7.9
			c-0.1-8.9,0-17.8,0-26.8c0.7,0,1.4,0.1,2.1,0.1c135.3,0,270.7,0,406,0c0.7,0,1.4,0.1,2.1-0.1c0,8.8-0.1,17.6,0,26.4
			c0.1,5.6-4.3,10.6-9.3,11.7c-1.2,0.3-2.4,0.4-3.7,0.4c-47.7,0-95.4,0-143.1,0c-1,0-2.1,0-3.1,0c-16.9,0-33.8,0-50.7,0
			C193.1,291.6,178.9,291.6,164.8,291.7z M218.1,267.9c-1.5-1.8-3-2.2-5.4-1.4c-0.9,0.3-1.8,0.6-2.8,0.2c-3.5-1.6-6.6,1.3-6.7,4.6
			c-0.1,3,0.9,5.6,2.7,7.9c1.2,1.5,1.9,1.7,3.7,1c1.2-0.4,2.2-0.4,3.4,0c1.8,0.6,2.6,0.4,3.7-1.1c0.5-0.7,0.9-1.4,1.4-2.1
			c0.5-0.9,0.6-1.5-0.4-2.2c-2-1.6-2.1-4-0.4-6C217.7,268.5,218.1,268.3,218.1,267.9z M214.8,262.3c0.1-0.8-0.3-0.9-0.8-0.7
			c-1.4,0.4-2.8,1.9-2.9,3.3c-0.1,0.8,0.2,1,1,0.8C213.5,265.3,214.8,263.7,214.8,262.3z"/>
		<path fill="#181818" d="M417.1,253.2c-0.7,0.3-1.4,0.1-2.1,0.1c-135.3,0-270.7,0-406,0c-0.7,0-1.4,0-2.1-0.1c0-0.7,0-1.4,0-2.1
			c0-77.7,0-155.4,0-233c0-1.6,0.1-3.1,0.5-4.6c1.4-5.1,6-8.5,11.3-8.7c0.6,0,1.2,0,1.8,0c75.9,0,151.8,0,227.8,0
			c0.7,0,1.4,0,2.1,0.1c0,0.6,0.2,1.1,0.4,1.7c2.2,4.6,4.4,9.1,6.4,13.7c0.8,1.8,1.9,3.4,2.1,5.4c-0.8,0-1.7,0.1-2.5,0.1
			c-76.2,0-152.4,0-228.6,0c-0.6,0-1.2,0-1.8,0c-1.6,0.1-2.3,0.7-2.3,2.3c0,2.7,0,5.5,0.1,8.2c0,0.8-0.1,1.6-0.1,2.3
			c0,64.7,0,129.3,0,194c0,0.7,0,1.4,0.1,2.1c-0.1,2-0.1,2,1.8,2c0.4,0,0.8,0,1.2,0c109.2,0,218.3,0,327.5,0c0.9,0,1.8,0.1,2.7,0.1
			c0.4,2,1.5,3.7,2.3,5.5c1.2,2.9,2.7,5.6,3.9,8.5c0.8,1.8,0.7,1.8,2.7,1.8c17,0,33.9,0,50.9,0C417.1,252.8,417.1,253,417.1,253.2z
			 M212,12.9c-0.5,0.1-0.9,0.4-0.8,0.9c0,0.6,0.5,0.9,1,0.8c0.5-0.1,0.8-0.5,0.7-1C212.8,13.2,212.5,12.9,212,12.9z"/>
		<path fill="#393939" d="M259.2,25.5c-0.2-2-1.4-3.6-2.1-5.4c-2-4.6-4.3-9.1-6.4-13.7c-0.3-0.5-0.5-1.1-0.4-1.7
			c0.6,0,1.3-0.1,1.9-0.1c50.7,0,101.3,0,152,0c1.4,0,2.8,0,4.3,0.4c5.2,1.5,8.7,5.9,8.8,11.3c0,0.8,0,1.6,0,2.3
			c0,77.2,0,154.3,0,231.5c0,0.8-0.1,1.6-0.1,2.3c-17,0-33.9,0-50.9,0c-1.9,0-1.9,0-2.7-1.8c-1.3-2.8-2.7-5.6-3.9-8.5
			c-0.8-1.8-1.9-3.5-2.3-5.5c0.7,0,1.4-0.1,2.1-0.1c12.4,0,24.8,0,37.2,0c2.6,0,2.6,0,2.5-2.8c0-0.7,0.1-1.4,0.1-2.1
			c0-64.5,0-129,0-193.5c0-0.7-0.1-1.4-0.1-2.1c0-2.7,0.1-5.5,0.1-8.2c0-1.6-0.7-2.2-2.3-2.3c-0.5,0-0.9,0-1.4,0
			c-44.8,0-89.7,0-134.5,0C260.4,25.6,259.8,25.5,259.2,25.5z"/>
		<path fill="#A8A9AA" d="M164.8,291.7c14.2,0,28.3,0,42.5,0c16.9,0,33.8,0,50.7,0c0,0.2,0,0.5-0.1,0.7c-0.8,0.2-1.3,0.9-1.8,1.4
			c-12.4,12.4-24.9,24.8-37.3,37.3c-1.7,1.7-3.3,2.5-5.8,2.5c-19.3-0.1-38.6,0-57.9-0.4c-3.8-0.1-7.5,0-11.3-0.1
			c-0.6,0-1.3,0.2-1.8-0.4c2.7-0.9,5.6-1.1,8.4-1.6c2.5-0.4,5-0.8,7.4-1.4c1.3-0.3,1.8-1,2.2-2.1c0.9-2.6,1.4-5.3,1.8-8
			c0.7-5,1.4-10,1.9-15C164.2,300.3,164.7,296,164.8,291.7z"/>
		<path fill="#D2D3D5" d="M142,332.7c0.5,0.6,1.2,0.4,1.8,0.4c3.8,0,7.5,0,11.3,0.1c19.3,0.5,38.6,0.3,57.9,0.4
			c2.5,0,4.1-0.8,5.8-2.5c12.4-12.5,24.8-24.9,37.3-37.3c0.5-0.5,1-1.2,1.8-1.4c0.6,3.4,0.5,6.8,1,10.2c0.5,4,0.8,8.1,1.4,12.1
			c0.6,3.8,1.1,7.6,2,11.3c0.1,0.5,0.3,1,0.4,1.5c0.3,1.4,1.2,2.1,2.5,2.4c3.2,0.6,6.3,1.2,9.6,1.6c2,0.3,3.9,0.8,5.9,1
			c0.5,0,1,0.4,1,1c0,0.5-0.5,0.7-1,0.7c-3.6,0.1-7.3,0.3-10.9,0.3c-33.8,0.3-67.5,0.1-101.3,0.1c-8.7,0-17.4,0-26.1-0.5
			c-0.6,0-1-0.3-1.1-0.9C141.2,332.9,141.5,332.7,142,332.7z"/>
		<path fill="#393939" d="M142.3,334.2c8.7,0.4,17.4,0.4,26.1,0.5c33.8,0,67.5,0.2,101.3-0.1c3.6,0,7.3-0.2,10.9-0.3
			c0.2,0.7-0.3,0.9-0.9,1c-1.2,0.1-2.5,0.2-3.7,0.2c-9.8,0.4-19.7,0.4-29.5,0.4c-29.7,0-59.4,0-89.1-0.1c-4.3,0-8.6-0.2-12.9-0.4
			c-0.6,0-1.3-0.2-1.9-0.3C142.3,335,142.3,334.6,142.3,334.2z"/>
		<path fill="#181818" d="M218.1,267.9c-0.1,0.4-0.5,0.6-0.7,0.9c-1.7,2-1.6,4.4,0.4,6c1,0.8,0.9,1.4,0.4,2.2
			c-0.4,0.7-0.9,1.5-1.4,2.1c-1.1,1.5-2,1.7-3.7,1.1c-1.2-0.4-2.2-0.4-3.4,0c-1.8,0.7-2.5,0.5-3.7-1c-1.9-2.3-2.8-4.9-2.7-7.9
			c0.1-3.3,3.2-6.3,6.7-4.6c1,0.5,1.9,0.2,2.8-0.2C215.1,265.7,216.6,266.1,218.1,267.9z"/>
		<path fill="#181818" d="M214.8,262.3c-0.1,1.4-1.3,2.9-2.7,3.4c-0.8,0.3-1.1,0-1-0.8c0.2-1.4,1.5-3,2.9-3.3
			C214.6,261.5,214.9,261.6,214.8,262.3z"/>
		<path fill="#A8A9AA" d="M212,12.9c0.5,0,0.9,0.3,0.9,0.8c0.1,0.5-0.2,0.9-0.7,1c-0.6,0.1-1-0.2-1-0.8
			C211.1,13.3,211.5,13,212,12.9z"/>
	</g>
</g>
</svg>
