<?xml version="1.0" encoding="utf-8"?>
<!-- Generator: Adobe Illustrator 18.1.1, SVG Export Plug-In . SVG Version: 6.00 Build 0)  -->
<svg version="1.1" id="Layer_1" xmlns="http://www.w3.org/2000/svg" xmlns:xlink="http://www.w3.org/1999/xlink" x="0px" y="0px"
	 viewBox="0 0 984 449" enable-background="new 0 0 984 449" xml:space="preserve">
<g>
	<path fill="#E21D2A" d="M531.6,19.9c29.5,1.3,58.8,4.3,87.9,9c57.3,9.2,112.8,24.4,165.7,48.3c47.6,21.5,91.3,48.7,127.5,87
		c26.3,27.8,46.1,59.4,54.9,97c1.8,7.8,3,15.8,4.5,23.8c0,10,0,20,0,30c-1.2,0.5-0.9,1.6-1,2.6c-1.8,16.6-6.1,32.6-12.4,48.1
		c-9.3,22.7-22.9,42.7-38.6,61.3c-284.7,0-569.3,0-854,0c-0.7-0.9-1.4-1.8-2.1-2.7c-21.5-25.5-37.8-53.8-45.4-86.6
		c-1.7-7.5-3-15.1-4.5-22.7c0-10.3,0-20.7,0-31c2-4.3,1.7-9,2.5-13.5c6.7-37.1,24.2-68.8,48.5-97c30.1-34.9,67-61.3,107.6-82.4
		C255.1,48,343.8,27.8,436,20.9"/>
</g>
</svg>
