<?xml version="1.0" encoding="utf-8"?>
<!-- Generator: Adobe Illustrator 18.1.1, SVG Export Plug-In . SVG Version: 6.00 Build 0)  -->
<svg version="1.1" id="Layer_1" xmlns="http://www.w3.org/2000/svg" xmlns:xlink="http://www.w3.org/1999/xlink" x="0px" y="0px"
	 viewBox="0 0 1128 574" enable-background="new 0 0 1128 574" xml:space="preserve">
<g>
	<path fill="#2C946A" d="M517.7,152.8c38.1-2.3,75.9,0.3,113.4,7.2c66.7,12.4,128,37.7,183.1,77.6c21.5,15.6,41,33.4,59.4,52.6
		c0.8,1,1.6,2.1,2.5,3.1c17.4,19.4,32.7,40.4,45.4,63.1c36.6,65.5,50,135.2,38.5,209.5c-193.3,0-386.7,0-580,0
		c3.9-4.3,7.9-8.6,11.6-13.1c39.2-47.9,54.3-102.2,40.6-162.9C418.8,331.3,383,289.2,331,260.1c-18.6-10.4-38.6-17.2-59.2-22.2
		c1.3-1,2.5-2.2,3.8-3.1C343,187.4,418,161.4,499.8,154"/>
	<path fill="#55D0CE" d="M271.8,237.9c20.6,5,40.6,11.8,59.2,22.2c52,29.1,87.8,71.2,101.1,129.9c13.8,60.7-1.3,115-40.6,162.9
		c-3.7,4.5-7.7,8.7-11.6,13.1c-104.7,0-209.3,0-314,0c-1-1.1-1.9-2.3-2.9-3.4c-24.8-26-41.6-56.3-49.7-91.3
		c-1.8-7.7-2-15.7-4.4-23.3c0-11.3,0-22.7,0-34c1.4-0.9,0.9-2.4,1.1-3.6c3.5-28.7,12.5-55.6,28.5-79.7
		c41.9-62.7,101.8-93.3,176.1-97.5C233.9,232,253,234.4,271.8,237.9z"/>
	<path fill="#E31E2B" d="M873.6,290.2c41.7-13.6,81.1-7.8,118.3,14.6c33.8,20.4,58.3,49.8,77.6,83.6c23.1,40.3,36.6,84,43.5,129.7
		c2,13.2,3.5,26.4,4.1,39.7c0,0.8-0.1,1.7,0.9,2.1c1.1,5.1-0.9,6.2-6,6.1c-50.7-0.2-101.3-0.1-152-0.1c11.5-74.3-2-144.1-38.5-209.5
		c-12.7-22.8-28-43.7-45.4-63.1C875.2,292.3,874.4,291.2,873.6,290.2z"/>
</g>
<g>
	<g>
		<path fill="#2C946A" d="M478.6,157.4c0,0,10.1,4.5,15.5-0.9c0,0-2.5-4-2.9-8.6v-26.4l27.2-27.2l2.5-11.2h-2.5l-1.5,10.3
			l-23.5,19.4l10.1-16.4l0.2-12.1l-3.9,1.2l1.3,10.1l-12.1,15.1l2.5-18.7l-1.4-8.8h-4.1l2.8,8.8l-2.5,18.4l-8.3-23l-6.5-4.1
			l9.4,23.3l-11.5-4.5l-12.6-24.8h-2.8l12,27.1l16.1,8.6v34.7C482,147.6,480.6,156.4,478.6,157.4z"/>
		<path fill="#2C946A" d="M491.2,147.9v-26.4l27-27l-28.7,26.7v27.5c0,0,1.6,6.6,4.6,7.8C494.1,156.5,491.2,150.5,491.2,147.9z"/>
		<polygon fill="#2C946A" points="493.4,112.7 503.5,96.3 503.9,86.7 502.7,86.7 502.7,96 		"/>
		<polygon fill="#2C946A" points="482,147.6 482,113.1 465.9,104.3 457.4,85 458.3,85.1 466.7,103.6 483.1,112.7 		"/>
		<polygon fill="#2C946A" points="481.9,108.8 470.4,81.4 473.8,83.2 		"/>
		<path fill="#2C946A" d="M433.6,81.6c0,0,6,6.9,16.9,1.8c0,0,10.4,4.8,17-1.8c0,0,12,0,10.6-6.8c0,0,7.7-1.8,4-6.6
			c0,0,6.6-5.1-0.3-11.7c0,0,3.8-8-4.1-12.4c0,0,0.9-7.7-10.4-8.1c0,0,1.2-6.9-6.5-9s-10.4,2.7-10.4,2.7s-4-4.5-10.1-2.7
			c-6.1,1.8-6.6,7.1-6.6,7.1s-10.9-0.3-9.5,10.6c0,0-9.1,4.1-4.6,13.4c0,0-4.8,6.3,0.2,9.8c0,0-2.8,6,4.9,6.3
			C424.6,74.2,422.7,83.1,433.6,81.6z"/>
		<path fill="#2C946A" d="M476.4,86.1c0,0,6,6.9,16.9,1.8c0,0,10.4,4.8,17-1.8c0,0,12,0,10.6-6.8c0,0,7.7-1.8,4-6.6
			c0,0,6.6-5.1-0.3-11.7c0,0,3.8-8-4.1-12.4c0,0,0.9-7.7-10.4-8.1c0,0,1.2-6.9-6.5-9s-10.4,2.7-10.4,2.7s-4-4.5-10.1-2.7
			c-6.1,1.8-6.6,7.1-6.6,7.1s-10.9-0.3-9.5,10.6c0,0-9.1,4.1-4.6,13.4c0,0-4.8,6.3,0.2,9.8c0,0-2.8,6,4.9,6.3
			C467.3,78.7,465.5,87.6,476.4,86.1z"/>
		<path fill="#2C946A" d="M508.5,83.4c0,0,5.6,6.5,15.9,1.7c0,0,9.8,4.5,16-1.7c0,0,11.2,0,9.9-6.3c0,0,7.2-1.7,3.7-6.2
			c0,0,6.2-4.8-0.3-11c0,0,3.6-7.5-3.9-11.7c0,0,0.9-7.2-9.8-7.6c0,0,1.2-6.5-6.1-8.4c-7.2-1.9-9.8,2.5-9.8,2.5s-3.7-4.2-9.5-2.5
			c-5.8,1.7-6.2,6.7-6.2,6.7s-10.2-0.3-8.9,9.9c0,0-8.5,3.9-4.3,12.5c0,0-4.5,5.9,0.1,9.2c0,0-2.6,5.6,4.6,5.9
			C500,76.5,498.3,84.8,508.5,83.4z"/>
		<path fill="#2C946A" d="M467.7,56.9c0,0,5.6,6.5,15.9,1.7c0,0,9.8,4.5,16-1.7c0,0,11.2,0,9.9-6.3c0,0,7.2-1.7,3.7-6.2
			c0,0,6.2-4.8-0.3-11c0,0,3.6-7.5-3.9-11.7c0,0,0.9-7.2-9.8-7.6c0,0,1.2-6.5-6.1-8.4c-7.2-1.9-9.8,2.5-9.8,2.5s-3.7-4.2-9.5-2.5
			c-5.8,1.7-6.2,6.7-6.2,6.7s-10.2-0.3-8.9,9.9c0,0-8.5,3.9-4.3,12.5c0,0-4.5,5.9,0.1,9.2c0,0-2.6,5.6,4.6,5.9
			C459.2,50,457.5,58.3,467.7,56.9z"/>
		<polygon fill="#2C946A" points="484.4,145.6 485.3,127 484.6,118.2 484.8,126.7 		"/>
		<path fill="#2C946A" d="M485.7,111.9c0.5,0,2.9-20,2.9-20l-0.7-2.2l1.2-0.2l1,2.5L485.7,111.9z"/>
		<polygon fill="#2C946A" points="492.2,115.9 506.2,104.5 498.3,111.9 		"/>
		<polygon fill="#2C946A" points="489.5,113.1 500.5,98.5 494,106.1 		"/>
		<polyline fill="#2C946A" points="488.2,115.7 487.6,123 488.2,134.3 488.2,115.4 		"/>
		<polyline fill="#2C946A" points="487.1,152.9 487.7,144.5 487.1,131.5 487.1,153.3 		"/>
		<path fill="#2C946A" d="M468.2,79.2c0,0,0.5,6.8,7.9,6c0,0,8.3,6.9,16.6,1.6c0,0,11.9,5.2,16.6-1.6c0,0-7,4.5-16.1-0.2
			c0,0-8.8,4.3-15.8-1C477.5,84.1,471.6,85.4,468.2,79.2z"/>
		<path fill="#2C946A" d="M461.4,52.8c0,0,0.3,5.5,6.8,3.7c0,0,6.2,6.2,14.8,1.3c0,0,10.2,3.3,15.5-2c0,0,7.8-0.6,7.6-8.1
			c0,0,9-3.8,6.8-14.4c0,0,5,8.4-5.5,15.4c0,0-0.2,7.2-7.9,8.1c0,0-6.9,6.8-16,1.7c0,0-9,5.6-15.4-1.2
			C468.2,57.4,459.7,60.1,461.4,52.8z"/>
		<path fill="#2C946A" d="M508.4,82.2c0,0,9.4,6.8,16.6,0c0,0,7.5,5.8,14.4,0c0,0,10.1,0.3,8.9-5c0,0,8.6-3.9,2.6-7
			c0,0,2.8,5.4-5.4,6c0,0,2.5,4.1-6.8,4.5c0,0-4.6,5.3-13.1,0.7C525.8,81.4,516.9,87.9,508.4,82.2z"/>
		<path fill="#2C946A" d="M466.8,76.2c0,0-2,9.7-15.6,6.1c0,0-10.5,4.5-16.4-1c0,0-10.4-0.2-8.6-7.2c0,0-8.6-3.1-3.5-6.8
			c0,0-7.5-2.9-1.6-8.9c0,0-3,7.7,4.8,7.8c0,0-3.1,1-2.6,3.8c0.5,2.8,5.5,2.5,5.5,2.5s-2.2,4.5,1.2,5.7c3.4,1.2,6,0.9,6,0.9
			s1.5,3.4,6.7,3c5.2-0.5,7.4-3,7.4-3S457.7,85.7,466.8,76.2z"/>
		<path fill="#2C946A" d="M505.8,53.5c0,0,0,4.8,7.7,5c0,0,1.7,3.9,8.3,1.9c0,0,9.7,4.1,14.4-1.9c0,0-1.5,7.3-14.3,3.2
			c0,0-6.6,2.1-9.1-2.5c0,0-6.8,0.3-9-3.8"/>
		<path fill="#2C946A" d="M507,21c0,0-1.8-5.4-9.8-4.6c0,0,1.8-7.1-3.8-9.1s-9.1,2.9-9.1,2.9s-4.7-4.3-11.1-2s-3.7,5.7-3.7,5.7
			s-9.5-0.6-9.2,8.1c0,0,2-7.8,11.8-6.5c0,0-3.9-4,1.8-5.8s10.4,2.9,10.4,2.9s2-4.9,8-4.3c6,0.6,2.8,9.1,2.8,9.1S504.4,17.8,507,21z
			"/>
	</g>
	<path fill="#2C946A" d="M420.6,55.8c0,0-2.8-6.7,4.8-9.8c0,0-0.8-10.3,8.9-10.8c0,0,0.4-5.4,6-6.9c5.6-1.5,10.6,1.1,12.3,6.8
		c0,0-4.3-6.9-12-4.9s-3.5,6.9-3.5,6.9s-10.6-1.3-10.4,9.9C426.6,47.1,421.3,48.6,420.6,55.8z"/>
	<path fill="#2C946A" d="M553.1,59.3c0,0,1.8-7.3-3.5-9.9c0,0-1.7-8.5-10.3-7.5c0,0,0.5-6.9-4.8-8.5c-5.3-1.6-9.5,2.6-9.5,2.6
		s4.3-3.1,9.3-1.5s3.2,8.5,3.2,8.5s8.4-1.4,10.7,7C548.3,50.1,552.5,50.8,553.1,59.3z"/>
</g>
</svg>
