<?xml version="1.0" encoding="utf-8"?>
<!-- Generator: Adobe Illustrator 18.1.1, SVG Export Plug-In . SVG Version: 6.00 Build 0)  -->
<svg version="1.1" id="Layer_1" xmlns="http://www.w3.org/2000/svg" xmlns:xlink="http://www.w3.org/1999/xlink" x="0px" y="0px"
	 viewBox="0 0 1378 456" enable-background="new 0 0 1378 456" xml:space="preserve">
<g>
	<path fill="#FBA752" d="M1138.6,168.2c32,8.6,63.5,18.7,94,31.9c31.8,13.7,62.2,29.8,88.4,52.8c14.8,13,27.2,27.9,34.6,46.4
		c2.6,6.4,3.6,13.1,5.4,19.7c0,5.3,0,10.7,0,16c-0.3,0.8-0.7,1.5-0.8,2.3c-2,14.1-7.8,26.7-16,38.2c-10.7,15.3-24.5,27.5-39.4,38.5
		c-13.2,9.8-27.7,17.7-41.9,25.9c-302.7,0-605.3,0-908,0c-4.8-2.7-9.6-5.4-14.3-8.2c-24.8-14.4-48-30.7-65.3-54.1
		c-15.2-20.5-22.5-43-16.1-68.6c4.3-17.4,13.9-32,26.1-44.9c19.1-20.3,42-35.3,66.4-48.2c56.4-29.6,117-47,178.9-60.1
		c52.5-11.1,105.5-18.1,159-22.3c31.2-2.5,62.4-3.9,93.7-4.6c26.8-0.6,53.6-0.4,80.4,0.8c11.5,0.5,22.9,1.3,34.4,1.8
		c3.6,0.2,7.3,0.9,10.9-0.5c7,1.7,14.2,2,21.3,2.5c39.5,3.1,78.8,8,117.9,14.7c23.3,4,46.5,8.6,69.4,14.4"/>
	<path fill="#FBD50A" d="M172.4,153.8c51.5-17.5,104.4-29.1,158.1-37.8c53-8.6,106.3-13.9,159.9-16.7c55.1-2.9,110.2-3.1,165.4-0.7
		c45.1,2,90.1,5.7,134.9,11.5c39.8,5.2,79.3,12,118.4,21.2c-3.6,1.4-7.3,0.6-10.9,0.5c-11.5-0.5-22.9-1.2-34.4-1.8
		c-26.8-1.3-53.6-1.4-80.4-0.8c-31.3,0.7-62.5,2.1-93.7,4.6c-53.5,4.2-106.5,11.2-159,22.3c-61.9,13.1-122.5,30.5-178.9,60.1
		c-24.5,12.8-47.4,27.9-66.4,48.2c-12.1,12.9-21.7,27.4-26.1,44.9c-6.3,25.5,1,48.1,16.1,68.6c17.3,23.4,40.6,39.7,65.3,54.1
		c4.7,2.8,9.5,5.4,14.3,8.2c-19.3,0-38.7,0-58,0c-1.8-1.8-4.2-1.5-6.4-2c-51.6-10.2-102.4-23.2-151.3-43.1
		c-31.4-12.8-61.6-27.8-87.5-50.1c-14-12.1-25.9-25.9-32.2-43.7c-1.3-3.7-1.5-7.7-3.5-11.2c0-6.3,0-12.7,0-19
		c1.3-3.9,2.4-7.8,3.8-11.7c6.2-17.5,17.9-31,31.7-42.9c23.3-20.2,50.3-34.2,78.3-46.4c6.7-2.9,13.5-5.6,20.4-8.2"/>
	<path fill="#FBD50A" d="M189.2,123.5"/>
</g>
<g>
	<g>
		<path fill="#FBD50A" d="M177.5,119.2c2.4,0.2,4.5-1,7-3.2c-2.6,0.4-4.2,0.9-6,0.4c0.6-2.5,3.7-3.5,3.7-6.8"/>
		<path fill="#FBD50A" d="M176,122.9"/>
		<path fill="#FBD50A" d="M171.7,125"/>
		<path fill="#FBD50A" d="M156,138c-2.3,0.1-4.4-0.3-6.1-2.2c-1.2-1.3-2.7-1.6-4.6-1.3c-7.6,1.4-10.4-0.3-13.1-7.5
			c-1-2.7-2.7-4.9-4.7-6.9c-4.9-5.1-5.2-7.3-2-13.6c1.6-3.2,0.8-6.7,0.7-10c-0.1-3.5,0.9-6.8,3.8-8.1c3.6-1.6,5.2-4.4,7.2-7.3
			c2.5-3.4,6.2-5.2,10.5-5c1.5,0.1,2.5-0.5,3.4-1.7c4.4-5.9,13.3-7.1,19.1-2.6c1.1,0.9,2.1,0.9,3.4,0.6c6.3-1.3,11.7,2.5,12.6,8.9
			c0.2,1.6,0.7,2.4,2.3,2.8c7,1.7,10.6,10.4,6.2,15.9c-2.8,3.4-2.7,6.4-1.3,10.1c2.2,5.8,1.1,8.1-4.4,10.6c-1.5,0.7-1.4,1.8-1.5,3.1
			c-0.4,5.9-3,9.9-7.7,10.9c-2.9,0.6-5.7,0.6-8.1,3c-1.3,1.3-3.9,0.7-5.8,0c-1.1-0.4-2.1-0.6-3.2-1L156,138z"/>
		<path fill="#FBD50A" d="M156.7,138c-0.2-1.4-0.3-2.9-0.6-4.3c-1.5-6.8-3.7-7.9-10.2-5.3c-0.4,0.2-0.8,0.2-1.4,0.4
			c1.6-4.3-3.1-3.2-4.1-5.4c2.5,0.2,4.5,1.9,6.8,2.4c1.4,0.3,3.1,0.9,4-0.5c0.8-1.2-0.7-2.2-1.4-3.1c-1.8-2.9-4.2-5.2-7.2-6.9
			c-1.6-0.8-3.1-1.8-3.8-3.9c1.8-0.4,2.8,1.2,4.2,1.4c0.2,0.1,0.5,0.1,0.7,0.2c-0.1-0.2-0.2-0.4-0.3-0.6c0-1.4-1.4-2.6-0.4-4.4
			c2.7,3.9,4.4,8.2,8.3,11.4c1.2-5.7-0.3-10.4-4-14.4c2-1.1,2.5,1.1,3.9,1c0.2-2-0.6-4,0.5-6.1c1.9,1.5,2.2,3.6,2.3,5.6
			c0.3,4.6,0.5,9.2,0.1,13.8c-0.2,1.9-0.3,3.8,0.6,5.6c0.4,0.9,1.1,1.5,2.1,1.5c1.3,0,1.1-1.1,1.3-1.9c1.2-4.8,1.3-9.7,1.4-15.6
			c1.7,3,1.3,5.6,2.1,8.1c2-0.7,2.2-3,3.8-4.3c-0.2,2.6-1.1,5-2.9,6.2c-3.2,2.1-2.1,5.2-2.7,8c2.9-2.6,5.9-5.1,5.7-10.3
			c1.1,2,2,3.2,3.1,0.7c1.9-4.2,1.9-8-2.1-11.9c4.4,2,3.9-0.3,3.4-2.7c-0.5-2.3-1-4.5-1.7-7.3c2.2,1.7,2.6,3.9,3.5,5.7
			c0.9-0.4,0.6-1.8,2.2-1.9c-0.8,4.2-2.7,8.3-1.3,13c3.1-4.5,3.9-9.7,6.1-14.7c1.3,2.6,0.2,4.8,0,7c-0.3,0.4-0.7,0.9-0.2,1.4
			c0.4,0.3,0.7-0.1,0.9-0.5c1.7,0.3,0.7,1.2,0.2,1.6c-4.3,3.8-6,9.5-10,13.6c-0.2,0.3-0.6,0.8-0.6,0.9c0.5,0.4,0.9,0.2,1.3-0.2
			c4.8-3,8.3-7.5,12.5-11.9c-0.1,3.3-3.2,4.3-3.7,6.8c1.8,0.4,3.4,0,6-0.4c-2.5,2.2-4.6,3.4-7,3.2c-2.6-0.2-4.2,0.9-5.7,2.6
			c1,1.7,2.8,0.4,4.2,1.2c-1,1.6-2.7,2-4.3,2c-5.9,0.3-8.3,3.6-8.7,9.1c-0.1,0.9-0.2,1.8-0.3,2.7c-1.3,7.9-1.2,15.9,0.2,23.8
			c0.2,1.4-0.5,4.2-0.5,4.2H156c0,0-1.5-2.4-1.2-3.9C156.4,153.2,157.5,145.7,156.7,138z"/>
	</g>
	<g>
		<path fill="#D1DD51" d="M177.5,119.2c2.4,0.2,4.5-1,7-3.2c-2.6,0.4-4.2,0.9-6,0.4c0.6-2.5,3.7-3.5,3.7-6.8"/>
		<path fill="#FBD50A" d="M176,122.9"/>
		<path fill="#FBD50A" d="M171.7,125"/>
		<path fill="#FBD50A" d="M156,138c-2.3,0.1-4.4-0.3-6.1-2.2c-1.2-1.3-2.7-1.6-4.6-1.3c-7.6,1.4-10.4-0.3-13.1-7.5
			c-1-2.7-2.7-4.9-4.7-6.9c-4.9-5.1-5.2-7.3-2-13.6c1.6-3.2,0.8-6.7,0.7-10c-0.1-3.5,0.9-6.8,3.8-8.1c3.6-1.6,5.2-4.4,7.2-7.3
			c2.5-3.4,6.2-5.2,10.5-5c1.5,0.1,2.5-0.5,3.4-1.7c4.4-5.9,13.3-7.1,19.1-2.6c1.1,0.9,2.1,0.9,3.4,0.6c6.3-1.3,11.7,2.5,12.6,8.9
			c0.2,1.6,0.7,2.4,2.3,2.8c7,1.7,10.6,10.4,6.2,15.9c-2.8,3.4-2.7,6.4-1.3,10.1c2.2,5.8,1.1,8.1-4.4,10.6c-1.5,0.7-1.4,1.8-1.5,3.1
			c-0.4,5.9-3,9.9-7.7,10.9c-2.9,0.6-5.7,0.6-8.1,3c-1.3,1.3-3.9,0.7-5.8,0c-1.1-0.4-2.1-0.6-3.2-1L156,138z"/>
		<path fill="#FBD50A" d="M156.7,138c-0.2-1.4-0.3-2.9-0.6-4.3c-1.5-6.8-3.7-7.9-10.2-5.3c-0.4,0.2-0.8,0.2-1.4,0.4
			c1.6-4.3-3.1-3.2-4.1-5.4c2.5,0.2,4.5,1.9,6.8,2.4c1.4,0.3,3.1,0.9,4-0.5c0.8-1.2-0.7-2.2-1.4-3.1c-1.8-2.9-4.2-5.2-7.2-6.9
			c-1.6-0.8-3.1-1.8-3.8-3.9c1.8-0.4,2.8,1.2,4.2,1.4c0.2,0.1,0.5,0.1,0.7,0.2c-0.1-0.2-0.2-0.4-0.3-0.6c0-1.4-1.4-2.6-0.4-4.4
			c2.7,3.9,4.4,8.2,8.3,11.4c1.2-5.7-0.3-10.4-4-14.4c2-1.1,2.5,1.1,3.9,1c0.2-2-0.6-4,0.5-6.1c1.9,1.5,2.2,3.6,2.3,5.6
			c0.3,4.6,0.5,9.2,0.1,13.8c-0.2,1.9-0.3,3.8,0.6,5.6c0.4,0.9,1.1,1.5,2.1,1.5c1.3,0,1.1-1.1,1.3-1.9c1.2-4.8,1.3-9.7,1.4-15.6
			c1.7,3,1.3,5.6,2.1,8.1c2-0.7,2.2-3,3.8-4.3c-0.2,2.6-1.1,5-2.9,6.2c-3.2,2.1-2.1,5.2-2.7,8c2.9-2.6,5.9-5.1,5.7-10.3
			c1.1,2,2,3.2,3.1,0.7c1.9-4.2,1.9-8-2.1-11.9c4.4,2,3.9-0.3,3.4-2.7c-0.5-2.3-1-4.5-1.7-7.3c2.2,1.7,2.6,3.9,3.5,5.7
			c0.9-0.4,0.6-1.8,2.2-1.9c-0.8,4.2-2.7,8.3-1.3,13c3.1-4.5,3.9-9.7,6.1-14.7c1.3,2.6,0.2,4.8,0,7c-0.3,0.4-0.7,0.9-0.2,1.4
			c0.4,0.3,0.7-0.1,0.9-0.5c1.7,0.3,0.7,1.2,0.2,1.6c-4.3,3.8-6,9.5-10,13.6c-0.2,0.3-0.6,0.8-0.6,0.9c0.5,0.4,0.9,0.2,1.3-0.2
			c4.8-3,8.3-7.5,12.5-11.9c-0.1,3.3-3.2,4.3-3.7,6.8c1.8,0.4,3.4,0,6-0.4c-2.5,2.2-4.6,3.4-7,3.2c-2.6-0.2-4.2,0.9-5.7,2.6
			c1,1.7,2.8,0.4,4.2,1.2c-1,1.6-2.7,2-4.3,2c-5.9,0.3-8.3,3.6-8.7,9.1c-0.1,0.9-0.2,1.8-0.3,2.7c-1.3,7.9-1.2,15.9,0.2,23.8
			c0.2,1.4-0.5,4.2-0.5,4.2H156c0,0-1.5-2.4-1.2-3.9C156.4,153.2,157.5,145.7,156.7,138z"/>
	</g>
</g>
<g>
	<g>
		<path fill="#FBA752" d="M1157.9,103.3c3.9,0.3,7.5-1.7,11.7-5.3c-4.3,0.7-7.1,1.5-10.1,0.7c1-4.1,6.1-5.9,6.2-11.3"/>
		<path fill="#FBA752" d="M1155.3,109.6"/>
		<path fill="#FBA752" d="M1148.2,113"/>
		<path fill="#FBA752" d="M1122,134.7c-3.9,0.1-7.4-0.5-10.2-3.7c-2-2.2-4.5-2.7-7.6-2.1c-12.7,2.3-17.4-0.5-21.9-12.6
			c-1.7-4.5-4.4-8.2-7.8-11.6c-8.2-8.5-8.6-12.2-3.3-22.6c2.7-5.3,1.3-11.1,1.1-16.7c-0.2-5.8,1.5-11.3,6.3-13.5
			c6-2.7,8.6-7.4,12.1-12.2c4.1-5.7,10.3-8.6,17.6-8.4c2.5,0.1,4.1-0.9,5.6-2.9c7.4-9.9,22.2-11.9,32-4.3c1.9,1.4,3.6,1.5,5.7,1
			c10.6-2.1,19.5,4.1,21,14.9c0.4,2.7,1.2,4,3.8,4.6c11.6,2.9,17.7,17.4,10.3,26.5c-4.6,5.8-4.5,10.6-2.1,16.9
			c3.6,9.6,1.8,13.5-7.4,17.7c-2.5,1.1-2.3,3-2.4,5.1c-0.7,9.9-5.1,16.6-12.9,18.2c-4.8,1-9.5,1-13.5,5c-2.2,2.1-6.4,1.1-9.7,0
			c-1.8-0.6-3.6-1.1-5.3-1.6L1122,134.7z"/>
		<path fill="#FBA752" d="M1123.1,134.7c-0.3-2.4-0.5-4.8-1.1-7.2c-2.6-11.3-6.2-13.1-17.1-8.8c-0.7,0.3-1.4,0.4-2.4,0.6
			c2.7-7.1-5.3-5.3-6.8-9c4.1,0.3,7.4,3.1,11.4,3.9c2.4,0.5,5.2,1.5,6.7-0.9c1.3-2-1.2-3.6-2.3-5.2c-3.1-4.8-7-8.7-12.1-11.4
			c-2.6-1.4-5.2-3.1-6.4-6.6c3-0.7,4.7,2,7,2.4c0.4,0.1,0.8,0.2,1.2,0.3c-0.1-0.4-0.3-0.7-0.4-1.1c0-2.3-2.3-4.4-0.7-7.3
			c4.5,6.4,7.3,13.7,13.9,19c2.1-9.5-0.5-17.3-6.7-24.1c3.3-1.9,4.2,1.8,6.5,1.7c0.4-3.3-1-6.7,0.9-10.2c3.2,2.5,3.6,6,3.9,9.4
			c0.6,7.7,0.9,15.3,0.1,23c-0.3,3.2-0.5,6.4,1,9.4c0.7,1.5,1.9,2.5,3.4,2.6c2.1,0.1,1.9-1.9,2.2-3.2c2-8,2.1-16.3,2.4-26
			c2.8,5.1,2.2,9.4,3.5,13.6c3.3-1.2,3.6-5,6.4-7.1c-0.4,4.3-1.8,8.4-4.8,10.3c-5.4,3.5-3.4,8.7-4.5,13.4c4.9-4.4,9.9-8.6,9.6-17.1
			c1.8,3.3,3.3,5.3,5.2,1.2c3.2-7,3.2-13.4-3.6-19.8c7.4,3.4,6.6-0.5,5.7-4.5c-0.8-3.8-1.7-7.6-2.8-12.2c3.7,2.8,4.3,6.5,5.8,9.6
			c1.5-0.7,1-3.1,3.6-3.1c-1.3,7-4.5,13.8-2.2,21.6c5.1-7.5,6.5-16.2,10.2-24.5c2.1,4.3,0.3,8.1,0.1,11.8c-0.5,0.7-1.2,1.6-0.3,2.3
			c0.6,0.5,1.2-0.2,1.6-0.9c2.8,0.4,1.1,2,0.4,2.6c-7.2,6.4-10.1,15.9-16.7,22.8c-0.3,0.5-1,1.4-1,1.4c0.8,0.7,1.5,0.3,2.2-0.3
			c8-5.1,13.8-12.5,20.8-19.9c-0.1,5.5-5.3,7.2-6.2,11.3c3,0.8,5.7,0,10.1-0.7c-4.1,3.6-7.7,5.6-11.7,5.3c-4.3-0.3-7,1.5-9.6,4.4
			c1.7,2.8,4.6,0.7,7,2c-1.7,2.6-4.6,3.3-7.1,3.4c-9.8,0.5-13.9,6-14.5,15.2c-0.1,1.5-0.3,3-0.5,4.4c-2.2,13.3-2,26.5,0.3,39.7
			c0.4,2.3-0.8,6.9-0.8,6.9h-12c0,0-2.5-4-2-6.6C1122.6,160.2,1124.6,147.6,1123.1,134.7z"/>
	</g>
	<g>
		<path fill="#D1DD51" d="M1157.9,103.3c3.9,0.3,7.5-1.7,11.7-5.3c-4.3,0.7-7.1,1.5-10.1,0.7c1-4.1,6.1-5.9,6.2-11.3"/>
		<path fill="#FBD50A" d="M1155.3,109.6"/>
		<path fill="#FBD50A" d="M1148.2,113"/>
		<path fill="#FBA752" d="M1122,134.7c-3.9,0.1-7.4-0.5-10.2-3.7c-2-2.2-4.5-2.7-7.6-2.1c-12.7,2.3-17.4-0.5-21.9-12.6
			c-1.7-4.5-4.4-8.2-7.8-11.6c-8.2-8.5-8.6-12.2-3.3-22.6c2.7-5.3,1.3-11.1,1.1-16.7c-0.2-5.8,1.5-11.3,6.3-13.5
			c6-2.7,8.6-7.4,12.1-12.2c4.1-5.7,10.3-8.6,17.6-8.4c2.5,0.1,4.1-0.9,5.6-2.9c7.4-9.9,22.2-11.9,32-4.3c1.9,1.4,3.6,1.5,5.7,1
			c10.6-2.1,19.5,4.1,21,14.9c0.4,2.7,1.2,4,3.8,4.6c11.6,2.9,17.7,17.4,10.3,26.5c-4.6,5.8-4.5,10.6-2.1,16.9
			c3.6,9.6,1.8,13.5-7.4,17.7c-2.5,1.1-2.3,3-2.4,5.1c-0.7,9.9-5.1,16.6-12.9,18.2c-4.8,1-9.5,1-13.5,5c-2.2,2.1-6.4,1.1-9.7,0
			c-1.8-0.6-3.6-1.1-5.3-1.6L1122,134.7z"/>
		<path fill="#FBA752" d="M1123.1,134.7c-0.3-2.4-0.5-4.8-1.1-7.2c-2.6-11.3-6.2-13.1-17.1-8.8c-0.7,0.3-1.4,0.4-2.4,0.6
			c2.7-7.1-5.3-5.3-6.8-9c4.1,0.3,7.4,3.1,11.4,3.9c2.4,0.5,5.2,1.5,6.7-0.9c1.3-2-1.2-3.6-2.3-5.2c-3.1-4.8-7-8.7-12.1-11.4
			c-2.6-1.4-5.2-3.1-6.4-6.6c3-0.7,4.7,2,7,2.4c0.4,0.1,0.8,0.2,1.2,0.3c-0.1-0.4-0.3-0.7-0.4-1.1c0-2.3-2.3-4.4-0.7-7.3
			c4.5,6.4,7.3,13.7,13.9,19c2.1-9.5-0.5-17.3-6.7-24.1c3.3-1.9,4.2,1.8,6.5,1.7c0.4-3.3-1-6.7,0.9-10.2c3.2,2.5,3.6,6,3.9,9.4
			c0.6,7.7,0.9,15.3,0.1,23c-0.3,3.2-0.5,6.4,1,9.4c0.7,1.5,1.9,2.5,3.4,2.6c2.1,0.1,1.9-1.9,2.2-3.2c2-8,2.1-16.3,2.4-26
			c2.8,5.1,2.2,9.4,3.5,13.6c3.3-1.2,3.6-5,6.4-7.1c-0.4,4.3-1.8,8.4-4.8,10.3c-5.4,3.5-3.4,8.7-4.5,13.4c4.9-4.4,9.9-8.6,9.6-17.1
			c1.8,3.3,3.3,5.3,5.2,1.2c3.2-7,3.2-13.4-3.6-19.8c7.4,3.4,6.6-0.5,5.7-4.5c-0.8-3.8-1.7-7.6-2.8-12.2c3.7,2.8,4.3,6.5,5.8,9.6
			c1.5-0.7,1-3.1,3.6-3.1c-1.3,7-4.5,13.8-2.2,21.6c5.1-7.5,6.5-16.2,10.2-24.5c2.1,4.3,0.3,8.1,0.1,11.8c-0.5,0.7-1.2,1.6-0.3,2.3
			c0.6,0.5,1.2-0.2,1.6-0.9c2.8,0.4,1.1,2,0.4,2.6c-7.2,6.4-10.1,15.9-16.7,22.8c-0.3,0.5-1,1.4-1,1.4c0.8,0.7,1.5,0.3,2.2-0.3
			c8-5.1,13.8-12.5,20.8-19.9c-0.1,5.5-5.3,7.2-6.2,11.3c3,0.8,5.7,0,10.1-0.7c-4.1,3.6-7.7,5.6-11.7,5.3c-4.3-0.3-7,1.5-9.6,4.4
			c1.7,2.8,4.6,0.7,7,2c-1.7,2.6-4.6,3.3-7.1,3.4c-9.8,0.5-13.9,6-14.5,15.2c-0.1,1.5-0.3,3-0.5,4.4c-2.2,13.3-2,26.5,0.3,39.7
			c0.4,2.3-0.8,6.9-0.8,6.9h-12c0,0-2.5-4-2-6.6C1122.6,160.2,1124.6,147.6,1123.1,134.7z"/>
	</g>
</g>
</svg>
