<?xml version="1.0" encoding="utf-8"?>
<!-- Generator: Adobe Illustrator 18.1.1, SVG Export Plug-In . SVG Version: 6.00 Build 0)  -->
<svg version="1.1" id="Layer_1" xmlns="http://www.w3.org/2000/svg" xmlns:xlink="http://www.w3.org/1999/xlink" x="0px" y="0px"
	 viewBox="0 0 800 550" enable-background="new 0 0 800 550" xml:space="preserve">
<g>
	<path fill="#F0316C" d="M431.6,79c38.1,2.6,75.2,9.7,111.3,22.2c59.4,20.6,111.7,52.3,153.4,100.1c30.5,35,51,74.9,59.3,120.8
		c1.3,6.9,1.2,14.1,3.4,20.9c0,12.7,0,25.3,0,38c-1.4,0.6-1,2-1.1,3c-1.4,12.1-3.5,24-6.5,35.8c-4.9,18.9-12.7,36.7-21.4,54.1
		c-219.3,0-438.7,0-658,0c-0.5-1.2-1-2.4-1.6-3.6c-11.6-22.1-19.6-45.4-24.1-70c-1.2-6.4-1-13.1-3.3-19.4c0-13,0-26,0-39
		c1.4-0.6,0.9-2,1.1-3.1c1.2-7.6,2-15.2,3.6-22.7c10.5-51.2,35.8-94.4,72.8-130.7c66-64.6,147.2-95.9,238-105.4"/>
</g>
</svg>
