<?xml version="1.0" encoding="utf-8"?>
<!-- Generator: Adobe Illustrator 18.1.1, SVG Export Plug-In . SVG Version: 6.00 Build 0)  -->
<svg version="1.1" id="Layer_1" xmlns="http://www.w3.org/2000/svg" xmlns:xlink="http://www.w3.org/1999/xlink" x="0px" y="0px"
	 viewBox="0 0 44 54" enable-background="new 0 0 44 54" xml:space="preserve">
<g id="Uu3xpH.tif_1_">
	<g>
		<g>
			<path fill="#18465F" d="M29.1,27.3c0,1.6,0,3,0,4.4c-4.7,0-9.4,0-14.3,0c0-1.4,0-2.8,0-4.4c-0.4,0.3-0.6,0.5-0.8,0.7
				c-2.3,2.3-4.6,4.6-6.9,6.9c-0.8,0.8-1.8,1.1-3,0.7c-1.1-0.4-1.7-1.2-1.8-2.4c-0.1-0.8,0.2-1.5,0.8-2.1c3.2-3.2,6.3-6.3,9.5-9.4
				c1.4-1.3,3.1-2,5-2c2.9,0,5.7,0,8.6,0c2,0,3.8,0.8,5.2,2.2c3.1,3,6.1,6.1,9.1,9.1c1.2,1.2,1.2,2.8,0.1,3.9
				c-1.1,1.1-2.8,1.1-4-0.1c-2.3-2.3-4.6-4.6-6.9-6.9C29.6,27.7,29.5,27.6,29.1,27.3z"/>
			<path fill="#18465F" d="M22,18.8c-4.9-0.1-8.8-4-8.8-8.9c0-4.9,4.1-8.8,8.9-8.7c4.9,0.1,8.8,4.1,8.8,9
				C30.8,14.9,26.8,18.8,22,18.8z"/>
			<path fill="#18465F" d="M24.5,40.5c1.6-2.2,3.2-4.4,4.9-6.7c0.2,0.2,0.3,0.3,0.5,0.4c1.7,1.7,3.4,3.4,5.1,5.1
				c1.8,1.8,1.8,4.4,0.1,6.2c-2.4,2.5-4.9,5-7.4,7.5c-1.2,1.2-2.8,1.2-3.9,0.1c-1.1-1.1-1.1-2.7,0-3.9c1.3-1.4,2.7-2.8,4.1-4.2
				c0.2-0.2,0.4-0.4,0.7-0.7C27.1,43.1,25.8,41.8,24.5,40.5z"/>
			<path fill="#18465F" d="M15.9,44.6c1.5,1.5,3,3.1,4.6,4.7c1.5,1.6,0.9,4.1-1.2,4.6c-1,0.3-1.8,0-2.5-0.7
				c-2.6-2.6-5.2-5.2-7.7-7.9c-1.4-1.5-1.6-3.9-0.1-5.5c1.9-2,3.9-3.9,5.9-5.9c1.7,2.2,3.4,4.3,5.1,6.4
				C18.5,41.8,17.2,43.2,15.9,44.6z"/>
		</g>
	</g>
	<g>
		<g>
			<path fill="#FFFFFF" d="M29.1,27.3c0,1.6,0,3,0,4.4c-4.7,0-9.4,0-14.3,0c0-1.4,0-2.8,0-4.4c-0.4,0.3-0.6,0.5-0.8,0.7
				c-2.3,2.3-4.6,4.6-6.9,6.9c-0.8,0.8-1.8,1.1-3,0.7c-1.1-0.4-1.7-1.2-1.8-2.4c-0.1-0.8,0.2-1.5,0.8-2.1c3.2-3.2,6.3-6.3,9.5-9.4
				c1.4-1.3,3.1-2,5-2c2.9,0,5.7,0,8.6,0c2,0,3.8,0.8,5.2,2.2c3.1,3,6.1,6.1,9.1,9.1c1.2,1.2,1.2,2.8,0.1,3.9
				c-1.1,1.1-2.8,1.1-4-0.1c-2.3-2.3-4.6-4.6-6.9-6.9C29.6,27.7,29.5,27.6,29.1,27.3z"/>
			<path fill="#FFFFFF" d="M22,18.8c-4.9-0.1-8.8-4-8.8-8.9c0-4.9,4.1-8.8,8.9-8.7c4.9,0.1,8.8,4.1,8.8,9
				C30.8,14.9,26.8,18.8,22,18.8z"/>
			<path fill="#FFFFFF" d="M24.5,40.5c1.6-2.2,3.2-4.4,4.9-6.7c0.2,0.2,0.3,0.3,0.5,0.4c1.7,1.7,3.4,3.4,5.1,5.1
				c1.8,1.8,1.8,4.4,0.1,6.2c-2.4,2.5-4.9,5-7.4,7.5c-1.2,1.2-2.8,1.2-3.9,0.1c-1.1-1.1-1.1-2.7,0-3.9c1.3-1.4,2.7-2.8,4.1-4.2
				c0.2-0.2,0.4-0.4,0.7-0.7C27.1,43.1,25.8,41.8,24.5,40.5z"/>
			<path fill="#FFFFFF" d="M15.9,44.6c1.5,1.5,3,3.1,4.6,4.7c1.5,1.6,0.9,4.1-1.2,4.6c-1,0.3-1.8,0-2.5-0.7
				c-2.6-2.6-5.2-5.2-7.7-7.9c-1.4-1.5-1.6-3.9-0.1-5.5c1.9-2,3.9-3.9,5.9-5.9c1.7,2.2,3.4,4.3,5.1,6.4
				C18.5,41.8,17.2,43.2,15.9,44.6z"/>
		</g>
	</g>
</g>
</svg>
