<?xml version="1.0" encoding="utf-8"?>
<!-- Generator: Adobe Illustrator 19.0.0, SVG Export Plug-In . SVG Version: 6.00 Build 0)  -->
<!DOCTYPE svg PUBLIC "-//W3C//DTD SVG 1.1//EN" "http://www.w3.org/Graphics/SVG/1.1/DTD/svg11.dtd">
<svg version="1.1" id="Layer_1" xmlns="http://www.w3.org/2000/svg" xmlns:xlink="http://www.w3.org/1999/xlink" x="0px" y="0px"
	 viewBox="0 0 540.1 654.2" style="enable-background:new 0 0 540.1 654.2;" xml:space="preserve">
<style type="text/css">
	.st0{fill:#4D4D4D;}
	.st1{fill:#666666;}
	.st2{fill:#999999;}
	.st3{fill:#B3B3B3;}
	.st4{fill:#C6D2B6;}
	.st5{opacity:0.2;}
	.st6{fill:#1A1A1A;}
	.st7{fill:#F7931E;}
	.st8{opacity:0.3;fill:#FFFFFF;}
	.st9{fill:#F15A24;}
	.st10{opacity:0.1;fill:#F15A24;}
	.st11{fill:#FBB03B;}
	.st12{opacity:0.1;}
	.st13{opacity:0.1;fill:#FFFFFF;}
	.st14{opacity:0.1;fill:#00FFFF;}
	.st15{opacity:0.1;fill:#29ABE2;}
</style>
<g>
	<g>
		<path class="st0" d="M33.1,12c-5.7,0-10.2,5.8-10.2,13s4.6,13,10.2,13s10.2-5.8,10.2-13S38.7,12,33.1,12z M33.1,31.7
			c-2.9,0-5.2-3-5.2-6.7c0-3.7,2.4-6.7,5.2-6.7s5.2,3,5.2,6.7C38.3,28.7,36,31.7,33.1,31.7z"/>
		<ellipse class="st1" cx="33.1" cy="12" rx="5.2" ry="12"/>
		<path class="st0" d="M33.1,39c-5.7,0-10.2,5.8-10.2,13s4.6,13,10.2,13s10.2-5.8,10.2-13S38.7,39,33.1,39z M33.1,58.7
			c-2.9,0-5.2-3-5.2-6.7c0-3.7,2.4-6.7,5.2-6.7s5.2,3,5.2,6.7C38.3,55.7,36,58.7,33.1,58.7z"/>
		<ellipse class="st1" cx="33.1" cy="39" rx="5.2" ry="12"/>
		<path class="st0" d="M33.1,65c-5.7,0-10.2,5.8-10.2,13s4.6,13,10.2,13s10.2-5.8,10.2-13S38.7,65,33.1,65z M33.1,84.7
			c-2.9,0-5.2-3-5.2-6.7c0-3.7,2.4-6.7,5.2-6.7s5.2,3,5.2,6.7C38.3,81.7,36,84.7,33.1,84.7z"/>
		<ellipse class="st1" cx="33.1" cy="65" rx="5.2" ry="12"/>
		<path class="st0" d="M33.1,90c-5.7,0-10.2,5.8-10.2,13s4.6,13,10.2,13s10.2-5.8,10.2-13S38.7,90,33.1,90z M33.1,109.7
			c-2.9,0-5.2-3-5.2-6.7c0-3.7,2.4-6.7,5.2-6.7s5.2,3,5.2,6.7C38.3,106.7,36,109.7,33.1,109.7z"/>
		<ellipse class="st1" cx="33.1" cy="90" rx="5.2" ry="12"/>
		<path class="st0" d="M33.1,117c-5.7,0-10.2,5.8-10.2,13s4.6,13,10.2,13s10.2-5.8,10.2-13S38.7,117,33.1,117z M33.1,136.7
			c-2.9,0-5.2-3-5.2-6.7c0-3.7,2.4-6.7,5.2-6.7s5.2,3,5.2,6.7C38.3,133.7,36,136.7,33.1,136.7z"/>
		<ellipse class="st1" cx="33.1" cy="117" rx="5.2" ry="12"/>
		<path class="st0" d="M33.1,142c-5.7,0-10.2,5.8-10.2,13s4.6,13,10.2,13s10.2-5.8,10.2-13S38.7,142,33.1,142z M33.1,161.7
			c-2.9,0-5.2-3-5.2-6.7c0-3.7,2.4-6.7,5.2-6.7s5.2,3,5.2,6.7C38.3,158.7,36,161.7,33.1,161.7z"/>
		<ellipse class="st1" cx="33.1" cy="142" rx="5.2" ry="12"/>
		<path class="st0" d="M33.1,170c-5.7,0-10.2,5.8-10.2,13s4.6,13,10.2,13s10.2-5.8,10.2-13S38.7,170,33.1,170z M33.1,189.7
			c-2.9,0-5.2-3-5.2-6.7c0-3.7,2.4-6.7,5.2-6.7s5.2,3,5.2,6.7C38.3,186.7,36,189.7,33.1,189.7z"/>
		<ellipse class="st1" cx="33.1" cy="170" rx="5.2" ry="12"/>
		<path class="st0" d="M33.1,194c-5.7,0-10.2,5.8-10.2,13s4.6,13,10.2,13s10.2-5.8,10.2-13S38.7,194,33.1,194z M33.1,213.7
			c-2.9,0-5.2-3-5.2-6.7c0-3.7,2.4-6.7,5.2-6.7s5.2,3,5.2,6.7C38.3,210.7,36,213.7,33.1,213.7z"/>
		<ellipse class="st1" cx="33.1" cy="194" rx="5.2" ry="12"/>
		<path class="st0" d="M33.1,221c-5.7,0-10.2,5.8-10.2,13s4.6,13,10.2,13s10.2-5.8,10.2-13S38.7,221,33.1,221z M33.1,240.7
			c-2.9,0-5.2-3-5.2-6.7c0-3.7,2.4-6.7,5.2-6.7s5.2,3,5.2,6.7C38.3,237.7,36,240.7,33.1,240.7z"/>
		<ellipse class="st1" cx="33.1" cy="221" rx="5.2" ry="12"/>
		<path class="st0" d="M33.1,247c-5.7,0-10.2,5.8-10.2,13s4.6,13,10.2,13s10.2-5.8,10.2-13S38.7,247,33.1,247z M33.1,266.7
			c-2.9,0-5.2-3-5.2-6.7c0-3.7,2.4-6.7,5.2-6.7s5.2,3,5.2,6.7C38.3,263.7,36,266.7,33.1,266.7z"/>
		<ellipse class="st1" cx="33.1" cy="247" rx="5.2" ry="12"/>
		<path class="st0" d="M33.1,272c-5.7,0-10.2,5.8-10.2,13s4.6,13,10.2,13s10.2-5.8,10.2-13S38.7,272,33.1,272z M33.1,291.7
			c-2.9,0-5.2-3-5.2-6.7c0-3.7,2.4-6.7,5.2-6.7s5.2,3,5.2,6.7C38.3,288.7,36,291.7,33.1,291.7z"/>
		<ellipse class="st1" cx="33.1" cy="272" rx="5.2" ry="12"/>
		<path class="st0" d="M33.1,299c-5.7,0-10.2,5.8-10.2,13s4.6,13,10.2,13s10.2-5.8,10.2-13S38.7,299,33.1,299z M33.1,318.7
			c-2.9,0-5.2-3-5.2-6.7c0-3.7,2.4-6.7,5.2-6.7s5.2,3,5.2,6.7C38.3,315.7,36,318.7,33.1,318.7z"/>
		<ellipse class="st1" cx="33.1" cy="299" rx="5.2" ry="12"/>
		<path class="st0" d="M33.1,324c-5.7,0-10.2,5.8-10.2,13s4.6,13,10.2,13s10.2-5.8,10.2-13S38.7,324,33.1,324z M33.1,343.7
			c-2.9,0-5.2-3-5.2-6.7c0-3.7,2.4-6.7,5.2-6.7s5.2,3,5.2,6.7C38.3,340.7,36,343.7,33.1,343.7z"/>
		<ellipse class="st1" cx="33.1" cy="324" rx="5.2" ry="12"/>
		<path class="st0" d="M33.1,352c-5.7,0-10.2,5.8-10.2,13s4.6,13,10.2,13s10.2-5.8,10.2-13S38.7,352,33.1,352z M33.1,371.7
			c-2.9,0-5.2-3-5.2-6.7c0-3.7,2.4-6.7,5.2-6.7s5.2,3,5.2,6.7C38.3,368.7,36,371.7,33.1,371.7z"/>
		<ellipse class="st1" cx="33.1" cy="352" rx="5.2" ry="12"/>
	</g>
	<g>
		<path class="st0" d="M504.1,12c-5.7,0-10.2,5.8-10.2,13s4.6,13,10.2,13s10.2-5.8,10.2-13S509.7,12,504.1,12z M504.1,31.7
			c-2.9,0-5.2-3-5.2-6.7c0-3.7,2.4-6.7,5.2-6.7s5.2,3,5.2,6.7C509.3,28.7,507,31.7,504.1,31.7z"/>
		<ellipse class="st1" cx="504.1" cy="12" rx="5.2" ry="12"/>
		<path class="st0" d="M504.1,39c-5.7,0-10.2,5.8-10.2,13s4.6,13,10.2,13s10.2-5.8,10.2-13S509.7,39,504.1,39z M504.1,58.7
			c-2.9,0-5.2-3-5.2-6.7c0-3.7,2.4-6.7,5.2-6.7s5.2,3,5.2,6.7C509.3,55.7,507,58.7,504.1,58.7z"/>
		<ellipse class="st1" cx="504.1" cy="39" rx="5.2" ry="12"/>
		<path class="st0" d="M504.1,65c-5.7,0-10.2,5.8-10.2,13s4.6,13,10.2,13s10.2-5.8,10.2-13S509.7,65,504.1,65z M504.1,84.7
			c-2.9,0-5.2-3-5.2-6.7c0-3.7,2.4-6.7,5.2-6.7s5.2,3,5.2,6.7C509.3,81.7,507,84.7,504.1,84.7z"/>
		<ellipse class="st1" cx="504.1" cy="65" rx="5.2" ry="12"/>
		<path class="st0" d="M504.1,90c-5.7,0-10.2,5.8-10.2,13s4.6,13,10.2,13s10.2-5.8,10.2-13S509.7,90,504.1,90z M504.1,109.7
			c-2.9,0-5.2-3-5.2-6.7c0-3.7,2.4-6.7,5.2-6.7s5.2,3,5.2,6.7C509.3,106.7,507,109.7,504.1,109.7z"/>
		<ellipse class="st1" cx="504.1" cy="90" rx="5.2" ry="12"/>
		<path class="st0" d="M504.1,117c-5.7,0-10.2,5.8-10.2,13s4.6,13,10.2,13s10.2-5.8,10.2-13S509.7,117,504.1,117z M504.1,136.7
			c-2.9,0-5.2-3-5.2-6.7c0-3.7,2.4-6.7,5.2-6.7s5.2,3,5.2,6.7C509.3,133.7,507,136.7,504.1,136.7z"/>
		<ellipse class="st1" cx="504.1" cy="117" rx="5.2" ry="12"/>
		<path class="st0" d="M504.1,142c-5.7,0-10.2,5.8-10.2,13s4.6,13,10.2,13s10.2-5.8,10.2-13S509.7,142,504.1,142z M504.1,161.7
			c-2.9,0-5.2-3-5.2-6.7c0-3.7,2.4-6.7,5.2-6.7s5.2,3,5.2,6.7C509.3,158.7,507,161.7,504.1,161.7z"/>
		<ellipse class="st1" cx="504.1" cy="142" rx="5.2" ry="12"/>
		<path class="st0" d="M504.1,170c-5.7,0-10.2,5.8-10.2,13s4.6,13,10.2,13s10.2-5.8,10.2-13S509.7,170,504.1,170z M504.1,189.7
			c-2.9,0-5.2-3-5.2-6.7c0-3.7,2.4-6.7,5.2-6.7s5.2,3,5.2,6.7C509.3,186.7,507,189.7,504.1,189.7z"/>
		<ellipse class="st1" cx="504.1" cy="170" rx="5.2" ry="12"/>
		<path class="st0" d="M504.1,194c-5.7,0-10.2,5.8-10.2,13s4.6,13,10.2,13s10.2-5.8,10.2-13S509.7,194,504.1,194z M504.1,213.7
			c-2.9,0-5.2-3-5.2-6.7c0-3.7,2.4-6.7,5.2-6.7s5.2,3,5.2,6.7C509.3,210.7,507,213.7,504.1,213.7z"/>
		<ellipse class="st1" cx="504.1" cy="194" rx="5.2" ry="12"/>
		<path class="st0" d="M504.1,221c-5.7,0-10.2,5.8-10.2,13s4.6,13,10.2,13s10.2-5.8,10.2-13S509.7,221,504.1,221z M504.1,240.7
			c-2.9,0-5.2-3-5.2-6.7c0-3.7,2.4-6.7,5.2-6.7s5.2,3,5.2,6.7C509.3,237.7,507,240.7,504.1,240.7z"/>
		<ellipse class="st1" cx="504.1" cy="221" rx="5.2" ry="12"/>
		<path class="st0" d="M504.1,247c-5.7,0-10.2,5.8-10.2,13s4.6,13,10.2,13s10.2-5.8,10.2-13S509.7,247,504.1,247z M504.1,266.7
			c-2.9,0-5.2-3-5.2-6.7c0-3.7,2.4-6.7,5.2-6.7s5.2,3,5.2,6.7C509.3,263.7,507,266.7,504.1,266.7z"/>
		<ellipse class="st1" cx="504.1" cy="247" rx="5.2" ry="12"/>
		<path class="st0" d="M504.1,272c-5.7,0-10.2,5.8-10.2,13s4.6,13,10.2,13s10.2-5.8,10.2-13S509.7,272,504.1,272z M504.1,291.7
			c-2.9,0-5.2-3-5.2-6.7c0-3.7,2.4-6.7,5.2-6.7s5.2,3,5.2,6.7C509.3,288.7,507,291.7,504.1,291.7z"/>
		<ellipse class="st1" cx="504.1" cy="272" rx="5.2" ry="12"/>
		<path class="st0" d="M504.1,299c-5.7,0-10.2,5.8-10.2,13s4.6,13,10.2,13s10.2-5.8,10.2-13S509.7,299,504.1,299z M504.1,318.7
			c-2.9,0-5.2-3-5.2-6.7c0-3.7,2.4-6.7,5.2-6.7s5.2,3,5.2,6.7C509.3,315.7,507,318.7,504.1,318.7z"/>
		<ellipse class="st1" cx="504.1" cy="299" rx="5.2" ry="12"/>
		<path class="st0" d="M504.1,324c-5.7,0-10.2,5.8-10.2,13s4.6,13,10.2,13s10.2-5.8,10.2-13S509.7,324,504.1,324z M504.1,343.7
			c-2.9,0-5.2-3-5.2-6.7c0-3.7,2.4-6.7,5.2-6.7s5.2,3,5.2,6.7C509.3,340.7,507,343.7,504.1,343.7z"/>
		<ellipse class="st1" cx="504.1" cy="324" rx="5.2" ry="12"/>
		<path class="st0" d="M504.1,352c-5.7,0-10.2,5.8-10.2,13s4.6,13,10.2,13s10.2-5.8,10.2-13S509.7,352,504.1,352z M504.1,371.7
			c-2.9,0-5.2-3-5.2-6.7c0-3.7,2.4-6.7,5.2-6.7s5.2,3,5.2,6.7C509.3,368.7,507,371.7,504.1,371.7z"/>
		<ellipse class="st1" cx="504.1" cy="352" rx="5.2" ry="12"/>
	</g>
	<g>
		<rect x="6.3" y="357.1" class="st2" width="529" height="89.4"/>
		<g>
			<path class="st2" d="M68.5,521.5c0,0-12.2-16.1-6.7-23.4s15.9-8.4,13.1-18.2c-2.8-9.7-15.4-12-20.8-4.9s-8.2,15.7-6.4,35.2
				s11.4,62.9,21.5,79.8l2.2,8.1c0,0-5.1-3.4-10.7-19.7s-15.9-49.8-17.6-76.8c-1.7-27,15.9-36.3,22.7-34.8
				c6.7,1.5,16.9,7.7,11.8,20.4c-2.4,8.1-23.4,10.9-6,30.3C71.7,517.6,72.3,524,68.5,521.5z"/>
			<path class="st2" d="M123.9,521.5c0,0,11.7-13.5,6.6-21.7c-4.8-7.7-15.8-10.1-13-19.9c2.8-9.7,15.4-12,20.8-4.9
				c5.4,7.1,8.2,15.7,6.4,35.2c-1.9,19.5-11.4,62.9-21.5,79.8l-2.2,8.1c0,0,5.1-3.4,10.7-19.7c5.6-16.3,15.9-49.8,17.6-76.8
				c1.7-27-15.9-36.3-22.7-34.8s-16.9,7.7-11.8,20.4c2.4,8.1,22,12.5,4.6,32C119.3,519.3,120.2,524,123.9,521.5z"/>
			<path class="st3" d="M68.7,509c0,0-3.9-1.5-0.8-4.2c3.1-2.7,48.6-3.8,56.7,0.6c2.4,1.3,0.4,3.2-1.3,3.9
				C121.6,510,84.4,506.4,68.7,509z"/>
			<path class="st2" d="M72,519.9c0,0-2.9-5.2-3.8-11.5c0,0,24.3-3.4,55.9,0c0,0-0.8,8-5.2,11.7L72,519.9z"/>
			<path class="st3" d="M55.5,526.2c0,0,8.1-5.9,18.1-7.5c13.9-2.2,33.9-2.3,44.1-0.5c10.3,1.8,19.5,8.6,19.5,8.6L55.5,526.2z"/>
			<rect x="87.4" y="623.9" class="st2" width="18" height="13.8"/>
			<rect x="87.3" y="635.2" class="st3" width="18" height="5.5"/>
			<rect x="84.3" y="639.3" class="st2" width="24.4" height="3.1"/>
			<path class="st3" d="M127.8,647.5H64.3v-1.1c0-3,2.4-5.4,5.4-5.4h52.8c3,0,5.4,2.4,5.4,5.4V647.5z"/>
			<path class="st3" d="M106.1,625.8H87.1c-2.2,0-4-1.8-4-4v-0.8h27v0.8C110.1,624.1,108.3,625.8,106.1,625.8z"/>
			<path class="st3" d="M107.9,621.6H85.3c-2.6,0-4.9-2.4-4.9-5.1l0,0l32.2,0.1l0,0C112.7,619.3,110.5,621.6,107.9,621.6z"/>
			<path class="st2" d="M80.5,616.6c0,0-20.8-30.5-25-90.3c0,0,4.6-4.6,42-4.6s39.8,5.2,39.8,5.2s-1,50.2-24.6,89.9L80.5,616.6z"/>
			<circle class="st3" cx="97.2" cy="538.2" r="8.2"/>
			<circle class="st1" cx="97.2" cy="538.2" r="6.7"/>
			<circle class="st2" cx="97.4" cy="538.2" r="4.7"/>
		</g>
		<g>
			<g>
				<path class="st4" d="M245.5,521.8l-4.2-4.5v-18.8h-16.9c0,0-3.3,59.2,23,61.2l3,1.8c0,0-15.3,1.7-22-10.3s-10-38.7-8.8-56.7h26
					C245.6,494.5,245.7,522,245.5,521.8z"/>
				<path class="st4" d="M289.2,521.8l4.2-4.5v-18.8h17c0,0,3.3,59.2-23,61.2l-3,1.8c0,0,15.3,1.7,22-10.3s10-38.7,8.8-56.7h-26
					C289.2,494.5,289,522,289.2,521.8z"/>
				<path class="st4" d="M263.3,567.2v2c0,0,2.6,1.3,4.9,1.1s3.9-1.7,3.9-1.7l0.1-1.3L263.3,567.2z"/>
				<path class="st4" d="M263.2,568.4l-2.6,1.4c0,0,2.9,4.5,3.2,7.2s2,12.3-5.9,19.7c-7.9,7.4-9.6,6.3-9.6,6.3v1.5h20v-35.3
					C268.3,569.2,263.2,568.5,263.2,568.4z"/>
				<path class="st4" d="M272.5,568.4l2.6,1.4c0,0-2.9,4.5-3.2,7.2s-2.1,12.3,5.8,19.7c7.9,7.4,9.5,6.3,9.5,6.3v1.5h-20v-35.3
					C267.3,569.2,272.5,568.5,272.5,568.4z"/>
				<path class="st4" d="M290.2,551.8l-11.1,4.3c-7.6,1.2-15.3,1.2-22.8,0.1l-11.8-4.4v-38.7V513c14.2-3.3,31.6-2.4,45.7-0.1v0.3
					V551.8z"/>
				<path class="st4" d="M244.6,547.8c-3.1,3.7-0.7,21.1,23.2,20.6c25.5-0.5,25.4-18,22.4-20.9c-6.1,0-1.5,7.8-23,7.8
					S244.7,547.8,244.6,547.8z"/>
				<path class="st5" d="M272.9,552.7c0,0,0.2-0.2,0.7-0.5c0.2-0.1,0.6-0.3,1-0.3c0.4-0.1,1,0.1,1.4,0.4c0.2,0.2,0.4,0.4,0.5,0.7
					c0.1,0.2,0.2,0.5,0.3,0.8c0.2,0.6,0.3,1.1,0.3,1.7c0.1,0.6,0.1,1.2,0.1,1.8c0,0.6,0,1.3-0.1,1.9c-0.1,0.6-0.2,1.3-0.3,1.9
					c-0.1,0.6-0.3,1.2-0.4,1.8c-0.2,0.6-0.4,1.1-0.6,1.6c-0.2,0.5-0.5,1-0.7,1.4c-0.3,0.4-0.5,0.8-0.7,1.1c-0.3,0.3-0.5,0.6-0.7,0.7
					c-0.4,0.4-0.7,0.6-0.7,0.6s0.2-0.3,0.5-0.7c0.2-0.2,0.3-0.5,0.5-0.8c0.2-0.3,0.3-0.7,0.5-1.1c0.2-0.4,0.4-0.9,0.5-1.4
					c0.2-0.5,0.3-1,0.4-1.6c0.1-0.6,0.2-1.1,0.3-1.7c0.1-0.6,0.2-1.2,0.2-1.8c0.1-0.6,0.1-1.2,0.1-1.8c0-0.6,0-1.2,0-1.8
					c0-0.6-0.1-1.1-0.2-1.6c0-0.2-0.1-0.5-0.2-0.7c-0.1-0.2-0.2-0.4-0.3-0.5c-0.3-0.3-0.6-0.5-1-0.5c-0.3,0-0.7,0.1-0.9,0.1
					C273.2,552.6,272.9,552.7,272.9,552.7z"/>
				<path class="st5" d="M276.5,552.3c0,0,0-0.1,0.1-0.2c0.1-0.1,0.2-0.3,0.5-0.5c0.2-0.2,0.6-0.4,1.1-0.3c0.5,0.1,0.8,0.6,1,1
					c0.2,0.5,0.4,1,0.5,1.6c0.1,0.6,0.2,1.1,0.3,1.8c0.1,0.6,0.1,1.3,0.1,1.9c0,0.6-0.1,1.3-0.2,2c-0.1,0.7-0.3,1.3-0.4,1.9
					c-0.2,0.6-0.4,1.2-0.7,1.8c-0.2,0.6-0.6,1.1-0.9,1.6c-0.3,0.5-0.7,0.9-1,1.2c-0.3,0.4-0.7,0.6-1,0.9c-0.3,0.3-0.6,0.4-0.8,0.6
					c-0.5,0.3-0.8,0.5-0.8,0.5s0.2-0.2,0.6-0.6c0.2-0.2,0.5-0.4,0.7-0.7c0.2-0.3,0.5-0.6,0.8-1c0.2-0.4,0.6-0.8,0.8-1.3
					c0.3-0.5,0.5-1,0.7-1.5c0.2-0.5,0.4-1.1,0.6-1.7c0.1-0.6,0.3-1.2,0.4-1.8c0.1-0.6,0.1-1.2,0.2-1.8c0-0.6,0-1.2,0-1.8
					c0-0.6-0.1-1.2-0.1-1.7c-0.1-0.5-0.2-1-0.3-1.4c-0.1-0.5-0.3-0.8-0.6-0.9c-0.3-0.1-0.6,0-0.8,0.1
					C276.8,552,276.5,552.3,276.5,552.3z"/>
				<path class="st5" d="M279,551.9c0,0,0-0.1,0.1-0.2c0.1-0.1,0.2-0.4,0.4-0.6c0.2-0.2,0.6-0.5,1.1-0.4c0.5,0.1,0.9,0.5,1.2,0.9
					c0.2,0.3,0.3,0.5,0.4,0.7c0.1,0.3,0.2,0.6,0.3,0.9c0.2,0.6,0.3,1.2,0.3,1.9c0.1,0.7,0.1,1.3,0,2c-0.1,0.7-0.1,1.4-0.2,2.1
					c-0.1,0.7-0.3,1.4-0.5,2c-0.2,0.7-0.5,1.3-0.8,1.9c-0.3,0.6-0.7,1.1-1,1.6c-0.4,0.5-0.7,0.9-1.2,1.3c-0.2,0.2-0.4,0.3-0.6,0.5
					c-0.2,0.1-0.4,0.2-0.6,0.4c-0.4,0.2-0.7,0.4-1,0.5c-0.6,0.2-0.9,0.3-0.9,0.3s0.3-0.2,0.8-0.5c0.3-0.1,0.5-0.4,0.9-0.6
					c0.2-0.1,0.3-0.3,0.5-0.4c0.2-0.2,0.3-0.3,0.5-0.5c0.4-0.3,0.6-0.8,1-1.3c0.2-0.2,0.3-0.5,0.4-0.8c0.1-0.3,0.3-0.5,0.4-0.8
					c0.3-0.6,0.4-1.2,0.7-1.8c0.2-0.6,0.3-1.3,0.4-1.9c0.1-0.7,0.2-1.3,0.3-2c0-0.3,0-0.7,0.1-1c0-0.3,0-0.6,0-1
					c0-0.6-0.1-1.2-0.2-1.8c0-0.3-0.1-0.5-0.2-0.8c-0.1-0.2-0.2-0.5-0.3-0.7c-0.3-0.4-0.5-0.8-0.9-0.9c-0.3-0.1-0.7,0-0.9,0.2
					C279.1,551.5,279,551.9,279,551.9z"/>
				<path class="st5" d="M281.6,551.6c0,0,0.2-0.3,0.6-0.6c0.2-0.2,0.5-0.4,1-0.4c0.5,0,0.9,0.3,1.2,0.7c0.2,0.3,0.3,0.4,0.4,0.7
					c0.1,0.3,0.2,0.5,0.3,0.8c0.2,0.5,0.3,1.1,0.3,1.7c0.1,0.6,0.1,1.2,0.1,1.8c0,0.6-0.1,1.3-0.2,1.9c-0.1,0.6-0.3,1.3-0.5,1.9
					c-0.2,0.6-0.4,1.2-0.7,1.7c-0.3,0.5-0.6,1-0.9,1.5c-0.3,0.5-0.7,0.8-1,1.2c-0.3,0.4-0.7,0.6-0.9,0.9c-0.3,0.3-0.6,0.4-0.8,0.6
					c-0.4,0.3-0.7,0.5-0.7,0.5s0.2-0.2,0.6-0.6c0.2-0.2,0.4-0.4,0.6-0.7c0.2-0.3,0.5-0.6,0.8-1c0.2-0.4,0.5-0.8,0.8-1.2
					c0.3-0.5,0.5-0.9,0.7-1.5c0.2-0.5,0.4-1.1,0.6-1.6c0.2-0.6,0.3-1.1,0.4-1.7c0.1-0.6,0.2-1.2,0.2-1.8c0-0.6,0.1-1.2,0-1.7
					c0-0.6-0.1-1.1-0.2-1.6c0-0.3-0.1-0.5-0.2-0.7c0-0.2-0.2-0.5-0.2-0.6c-0.2-0.4-0.5-0.6-0.8-0.7c-0.3,0-0.6,0.1-0.9,0.2
					C281.8,551.4,281.6,551.6,281.6,551.6z"/>
				<path class="st5" d="M284,551c0,0,0-0.1,0.1-0.2c0.1-0.1,0.2-0.3,0.4-0.4c0.2-0.1,0.5-0.3,1-0.2c0.4,0.1,0.8,0.4,1.1,0.8
					c0.2,0.3,0.4,0.8,0.6,1.3c0.2,0.5,0.3,1,0.3,1.6c0.1,0.5,0.1,1.1,0.1,1.7c0,0.6,0,1.2-0.1,1.7c-0.1,0.6-0.2,1.2-0.4,1.7
					c-0.2,0.6-0.4,1.1-0.6,1.6c-0.2,0.5-0.5,0.9-0.8,1.4c-0.3,0.4-0.6,0.8-0.8,1.1c-0.3,0.3-0.6,0.6-0.8,0.9
					c-0.2,0.3-0.5,0.4-0.7,0.6c-0.4,0.3-0.6,0.5-0.6,0.5s0.2-0.2,0.5-0.6c0.1-0.2,0.4-0.4,0.5-0.7c0.2-0.3,0.4-0.6,0.6-1
					c0.2-0.4,0.4-0.7,0.7-1.2c0.2-0.4,0.4-0.9,0.6-1.4c0.2-0.5,0.3-1,0.5-1.5c0.1-0.5,0.3-1,0.3-1.6c0.1-0.5,0.1-1.1,0.2-1.6
					c0-0.5,0-1.1,0-1.6c0-0.5-0.1-1-0.2-1.5c-0.1-0.5-0.2-0.8-0.4-1.2c-0.2-0.3-0.4-0.6-0.6-0.7c-0.3-0.1-0.6-0.1-0.8,0
					C284.3,550.8,284,551,284,551z"/>
				<path class="st5" d="M286,550.2c0,0,0.1-0.2,0.5-0.5c0.2-0.1,0.5-0.3,0.8-0.2c0.4,0,0.8,0.2,1,0.5c0.3,0.3,0.5,0.7,0.6,1.1
					c0.2,0.4,0.3,0.9,0.4,1.4c0.1,0.5,0.1,1,0.1,1.5c0,0.5,0,1-0.1,1.5c-0.1,0.5-0.2,1-0.3,1.5c-0.1,0.5-0.3,0.9-0.5,1.4
					c-0.3,0.9-0.7,1.7-1.1,2.3c-0.4,0.6-0.8,1.1-1,1.5c-0.3,0.3-0.4,0.5-0.4,0.5s0.1-0.2,0.3-0.6c0.2-0.4,0.4-1,0.7-1.6
					c0.1-0.3,0.3-0.7,0.4-1.1c0.1-0.4,0.3-0.8,0.4-1.2c0.1-0.4,0.2-0.9,0.4-1.3c0.1-0.5,0.2-0.9,0.3-1.4c0.1-0.5,0.1-0.9,0.1-1.4
					c0-0.5,0-0.9,0-1.3c0-0.4-0.1-0.8-0.2-1.2c-0.1-0.4-0.2-0.8-0.4-1c-0.2-0.3-0.4-0.5-0.6-0.5c-0.2-0.1-0.5,0-0.7,0.1
					C286.2,550.1,286,550.2,286,550.2z"/>
				<path class="st5" d="M287.4,549.5c0,0,0.1-0.2,0.4-0.5c0.2-0.1,0.4-0.3,0.8-0.3c0.4,0,0.8,0.2,1,0.6c0.2,0.4,0.4,0.7,0.5,1.1
					c0.1,0.4,0.3,0.8,0.4,1.3c0.1,0.5,0.2,0.9,0.2,1.4c0,0.5,0,1,0,1.5c-0.1,0.5-0.1,1-0.3,1.5c-0.1,0.5-0.3,0.9-0.4,1.4
					c-0.3,0.9-0.7,1.6-1.1,2.2c-0.4,0.6-0.8,1.1-1.1,1.4c-0.3,0.3-0.4,0.5-0.4,0.5s0.1-0.2,0.3-0.6c0.2-0.4,0.4-0.9,0.7-1.6
					c0.1-0.3,0.3-0.7,0.4-1.1c0.1-0.4,0.3-0.8,0.4-1.2c0.1-0.4,0.2-0.9,0.3-1.3c0.1-0.4,0.2-0.9,0.2-1.4c0.1-0.5,0.1-0.9,0.1-1.4
					c0-0.4,0-0.9-0.1-1.3c-0.1-0.4-0.1-0.8-0.2-1.2c-0.1-0.4-0.2-0.8-0.3-1.1c-0.1-0.3-0.3-0.4-0.5-0.5c-0.2,0-0.5,0-0.7,0.1
					C287.6,549.3,287.4,549.5,287.4,549.5z"/>
				<path class="st5" d="M288.6,548.9c0,0,0.1-0.2,0.3-0.5c0.1-0.1,0.2-0.3,0.5-0.4c0.2-0.1,0.6-0.1,0.9,0.1c0.1,0,0.1,0.1,0.2,0.2
					l0.1,0c0,0,0,0,0,0l0,0l0.1,0.1c0.1,0.1,0.2,0.3,0.3,0.4c0.2,0.3,0.3,0.6,0.4,1c0.1,0.4,0.2,0.7,0.3,1.1
					c0.1,0.4,0.1,0.8,0.1,1.1c0,0.8,0,1.5-0.2,2.2c-0.1,0.7-0.3,1.3-0.6,1.9c-0.2,0.5-0.4,0.9-0.6,1.2c-0.2,0.3-0.3,0.4-0.3,0.4
					s0.1-0.7,0.4-1.8c0.1-0.5,0.2-1.2,0.2-1.8c0-0.3,0-0.7,0.1-1c0-0.4,0-0.7,0-1.1c0-0.4,0-0.7-0.1-1.1c0-0.3-0.1-0.7-0.1-1
					c-0.1-0.3-0.1-0.6-0.2-0.9c-0.1-0.2-0.2-0.5-0.4-0.6c-0.1-0.1-0.3-0.2-0.5-0.2c-0.2,0-0.4,0.1-0.5,0.2
					C288.7,548.8,288.6,548.9,288.6,548.9z"/>
				<path class="st5" d="M271.7,552.2c0,0,0.1,0,0.2-0.1c0.1,0,0.3-0.1,0.6,0c0.2,0.1,0.5,0.3,0.7,0.7c0.2,0.3,0.3,0.7,0.3,1.1
					c0.1,0.9,0.1,1.8,0.2,2.8c0.1,1,0.1,2.1,0.1,3.2c0,2.2-0.2,4.4-0.8,6c-0.1,0.4-0.3,0.7-0.5,1c-0.2,0.3-0.3,0.5-0.5,0.7
					c-0.3,0.4-0.5,0.5-0.5,0.5s0.1-0.2,0.4-0.7c0.1-0.2,0.2-0.5,0.3-0.8c0.1-0.3,0.2-0.7,0.2-1.1c0.3-1.6,0.4-3.7,0.4-5.9
					c0-1.1,0-2.2,0-3.2c0-1,0.1-2,0.1-2.8c0-0.4,0-0.7-0.1-1c-0.1-0.3-0.2-0.5-0.4-0.6C272,552.1,271.7,552.2,271.7,552.2z"/>
				<path class="st5" d="M269.8,553c0,0,0,0.2,0.1,0.7c0,0.4,0.1,1,0.2,1.7c0.1,1.4,0.2,3.4,0.1,5.3c0,1.9-0.1,3.8-0.3,5.3
					c-0.1,0.7-0.2,1.3-0.2,1.7c-0.1,0.4-0.1,0.7-0.1,0.7s0-0.2-0.1-0.7c0-0.4-0.1-1-0.2-1.7c-0.1-1.4-0.2-3.4-0.1-5.3
					c0-1.9,0.1-3.8,0.3-5.3c0.1-0.7,0.2-1.3,0.2-1.7C269.7,553.2,269.8,553,269.8,553z"/>
				<path class="st5" d="M266.3,553.4c0,0,0.2,0.9,0.3,2.2c0.1,1.3,0.2,3.1,0.2,4.9c0,1.8,0,3.5,0,4.9c0,0.7,0,1.2,0,1.6
					c0,0.4,0.1,0.6,0.1,0.6c0,0,0,0-0.1-0.1c-0.1-0.1-0.2-0.2-0.2-0.4c-0.2-0.4-0.3-0.9-0.4-1.6c-0.3-1.3-0.4-3.1-0.4-4.9
					c0-1.8,0.1-3.6,0.2-4.9C266.2,554.3,266.3,553.4,266.3,553.4z"/>
				<path class="st5" d="M265,552c0,0-0.1,0-0.2,0.1c-0.1,0-0.3,0.1-0.6,0.1c-0.2,0.1-0.5,0.2-0.7,0.4c-0.2,0.2-0.3,0.6-0.3,1
					c0,0.4,0,0.9,0,1.3c0,0.5,0,1,0.1,1.5c0,1.1,0.1,2.2,0.1,3.3c0,1.1,0,2.3,0.1,3.3c0,0.5,0,1,0,1.5c0,0.5,0,0.9,0.1,1.3
					c0,0.3,0.3,0.6,0.5,0.9c0.2,0.3,0.4,0.5,0.6,0.7c0.3,0.4,0.5,0.6,0.5,0.6s-0.3-0.1-0.7-0.4c-0.2-0.1-0.5-0.3-0.7-0.6
					c-0.3-0.2-0.6-0.5-0.8-1c-0.1-0.4-0.2-0.9-0.3-1.4c-0.1-0.5-0.1-1-0.2-1.5c-0.1-1.1-0.1-2.2-0.2-3.4c0-1.1,0-2.3,0-3.4
					c0-0.5,0-1.1,0.1-1.5c0-0.5,0-0.9,0.1-1.4c0.1-0.5,0.3-0.9,0.6-1.2c0.3-0.3,0.6-0.3,0.9-0.4c0.3,0,0.5,0,0.6,0
					C265,552,265,552,265,552z"/>
				<path class="st5" d="M262,551.8c0,0-0.3-0.1-0.8,0c-0.2,0-0.5,0.1-0.7,0.3c-0.2,0.2-0.3,0.6-0.4,0.9c-0.1,0.4,0,0.8,0,1.4
					c0,0.5,0,1.1,0,1.6c0,1.1-0.1,2.3,0,3.4c0,0.6,0,1.2,0.1,1.7c0,0.6,0.1,1.1,0.2,1.6c0.1,0.5,0.2,1,0.3,1.5
					c0.1,0.5,0.3,0.9,0.4,1.3c0.2,0.4,0.3,0.8,0.5,1.1c0.2,0.3,0.3,0.6,0.5,0.8c0.3,0.4,0.5,0.6,0.5,0.6s-0.2-0.2-0.6-0.5
					c-0.2-0.2-0.4-0.4-0.6-0.7c-0.2-0.3-0.5-0.6-0.7-1c-0.2-0.4-0.4-0.8-0.6-1.3c-0.2-0.5-0.3-1-0.4-1.6c-0.1-0.6-0.2-1.1-0.3-1.7
					c-0.1-0.6-0.1-1.2-0.1-1.8c0-1.2,0-2.4,0.1-3.5c0-0.5,0.1-1.1,0.1-1.6c0-0.5,0.1-1,0.2-1.5c0.1-0.5,0.4-0.9,0.7-1.1
					c0.3-0.2,0.7-0.3,1-0.3c0.3,0,0.5,0.1,0.6,0.1C262,551.8,262,551.8,262,551.8z"/>
				<path class="st5" d="M259.3,551.5c0,0-0.3-0.1-0.8-0.2c-0.3,0-0.6,0.1-0.8,0.3c-0.3,0.2-0.4,0.5-0.6,0.9c-0.2,0.8-0.2,1.9-0.3,3
					c0,1.1-0.1,2.3,0,3.5c0.1,1.2,0.3,2.4,0.6,3.4c0.1,0.3,0.2,0.5,0.3,0.8c0.1,0.2,0.2,0.5,0.3,0.7c0.2,0.5,0.4,0.9,0.7,1.3
					c0.5,0.8,0.9,1.4,1.3,1.8c0.3,0.4,0.5,0.6,0.5,0.6s-0.2-0.2-0.7-0.5c-0.2-0.2-0.5-0.4-0.7-0.7c-0.3-0.3-0.6-0.6-0.9-0.9
					c-0.3-0.4-0.6-0.8-0.9-1.3c-0.1-0.2-0.3-0.5-0.4-0.7c-0.1-0.3-0.2-0.5-0.3-0.8c-0.2-0.6-0.4-1.1-0.5-1.8
					c-0.1-0.6-0.2-1.2-0.3-1.9c-0.1-1.3,0-2.5,0.1-3.7c0.1-0.6,0.1-1.1,0.2-1.7c0.1-0.5,0.2-1.1,0.4-1.5c0.2-0.5,0.5-0.8,0.9-1.1
					c0.4-0.2,0.8-0.2,1-0.2c0.3,0.1,0.5,0.2,0.6,0.2C259.3,551.5,259.3,551.5,259.3,551.5z"/>
				<path class="st5" d="M255.7,550.7c0,0-0.1,0-0.2,0c-0.1,0-0.3,0.1-0.5,0.2c-0.4,0.3-0.7,0.9-0.8,1.7c-0.1,0.8-0.1,1.8-0.1,2.8
					c0,1.1,0.1,2.2,0.3,3.3c0.1,1.1,0.4,2.2,0.6,3.2c0.1,0.5,0.3,1,0.5,1.4c0.2,0.4,0.4,0.8,0.6,1.2c0.4,0.7,0.8,1.3,1.1,1.7
					c0.3,0.4,0.5,0.6,0.5,0.6s-0.2-0.1-0.7-0.4c-0.2-0.2-0.4-0.4-0.7-0.6c-0.3-0.3-0.5-0.5-0.8-0.9c-0.3-0.4-0.5-0.8-0.8-1.2
					c-0.2-0.4-0.5-0.9-0.6-1.5c-0.2-0.5-0.4-1.1-0.5-1.6c-0.1-0.6-0.2-1.1-0.3-1.7c-0.1-1.2-0.2-2.3-0.1-3.4c0-1.1,0.1-2.1,0.4-3
					c0.3-0.9,0.8-1.5,1.3-1.7C255.4,550.6,255.7,550.7,255.7,550.7z"/>
				<path class="st5" d="M253.2,550.5c0,0-0.3,0-0.7,0.2c-0.4,0.2-0.8,0.8-1,1.6c-0.1,0.8-0.3,1.8-0.4,2.8c0,0.5,0,1,0,1.6
					c0,0.5,0.1,1.1,0.1,1.6c0.1,0.5,0.2,1.1,0.3,1.6c0.2,0.5,0.3,1,0.5,1.5c0.2,0.5,0.4,0.9,0.6,1.3c0.2,0.4,0.5,0.8,0.7,1.2
					c0.2,0.3,0.4,0.7,0.6,1c0.2,0.3,0.4,0.5,0.5,0.7c0.3,0.4,0.5,0.6,0.5,0.6s-0.2-0.2-0.6-0.5c-0.2-0.2-0.4-0.3-0.7-0.6
					c-0.2-0.2-0.5-0.5-0.8-0.9c-0.3-0.3-0.6-0.7-0.8-1.1c-0.3-0.4-0.6-0.9-0.8-1.4c-0.3-0.5-0.5-1-0.6-1.6c-0.2-0.6-0.3-1.1-0.4-1.7
					c-0.1-0.6-0.1-1.2-0.1-1.7c0-0.6,0.1-1.1,0.1-1.7c0.1-0.5,0.2-1.1,0.3-1.5c0.1-0.5,0.2-0.9,0.4-1.4c0.3-0.9,0.9-1.4,1.5-1.6
					c0.3-0.1,0.5-0.1,0.6-0.1C253.1,550.5,253.2,550.5,253.2,550.5z"/>
				<path class="st5" d="M251.1,550.2c0,0-0.3-0.1-0.7,0c-0.2,0-0.5,0.1-0.7,0.3c-0.2,0.2-0.3,0.5-0.4,0.8c-0.1,0.4-0.1,0.7-0.1,1.2
					c0,0.4,0,0.9,0,1.4c0,1,0,2,0.1,3c0,0.5,0.1,1,0.2,1.5c0.1,0.5,0.2,1,0.3,1.4c0.2,0.9,0.5,1.8,0.9,2.5c0.3,0.7,0.6,1.3,0.9,1.7
					c0.2,0.4,0.4,0.6,0.4,0.6s-0.2-0.2-0.5-0.5c-0.2-0.2-0.4-0.4-0.6-0.6c-0.2-0.2-0.4-0.5-0.7-0.9c-0.2-0.3-0.4-0.7-0.6-1.1
					c-0.2-0.4-0.4-0.9-0.6-1.3c-0.2-0.5-0.3-1-0.4-1.5c-0.1-0.5-0.2-1.1-0.2-1.6c-0.1-1.1-0.1-2.1,0-3.1c0-0.5,0.1-1,0.2-1.4
					c0.1-0.4,0.2-0.9,0.3-1.3c0.2-0.4,0.4-0.7,0.8-0.9c0.3-0.2,0.6-0.2,0.9-0.2c0.2,0,0.4,0.1,0.5,0.1
					C251,550.1,251.1,550.2,251.1,550.2z"/>
				<path class="st5" d="M249,549.4c0,0-0.2,0-0.5,0.2c-0.3,0.1-0.7,0.5-0.9,1c-0.1,0.3-0.2,0.6-0.2,0.9c-0.1,0.3,0,0.7-0.1,1.1
					c0,0.8,0,1.6,0.1,2.4c0.1,1.6,0.4,3.2,0.6,4.5c0.1,0.6,0.3,1.1,0.4,1.5c0.1,0.4,0.2,0.6,0.2,0.6s-0.1-0.2-0.3-0.5
					c-0.2-0.3-0.5-0.8-0.7-1.4c-0.5-1.2-1-2.8-1.1-4.6c-0.1-0.9-0.1-1.7,0-2.5c0-0.4,0.1-0.8,0.2-1.2c0.1-0.4,0.3-0.7,0.5-1
					c0.4-0.6,1-0.8,1.4-0.9C248.8,549.3,249,549.4,249,549.4z"/>
				<path class="st5" d="M247.7,548.8c0,0-0.2-0.1-0.5-0.1c-0.2,0-0.3,0-0.5,0.1c-0.1,0.1-0.1,0.1-0.1,0.2c-0.1,0.1-0.1,0.2-0.2,0.4
					c-0.1,0.3-0.2,0.5-0.3,0.8c-0.1,0.3-0.1,0.6-0.2,0.9c0,0.3-0.1,0.7-0.1,1c0,0.4,0,0.7,0,1.1c0,0.7,0.1,1.5,0.2,2.2
					c0.1,0.7,0.2,1.3,0.2,1.9c0.1,0.6,0.1,1,0.2,1.4c0,0.3,0,0.5,0,0.5s-0.4-0.7-0.8-1.8c-0.4-1.1-0.8-2.6-0.9-4.2
					c0-0.4,0-0.8,0-1.2c0-0.4,0.1-0.8,0.2-1.1c0.2-0.7,0.5-1.4,0.8-1.9c0.1-0.1,0.2-0.2,0.3-0.3c0.1-0.1,0.2-0.2,0.4-0.3
					c0.3-0.1,0.5,0,0.7,0C247.6,548.6,247.7,548.8,247.7,548.8z"/>
				<path class="st5" d="M245.7,547.2c0,0-0.4,0.4-0.7,1.2c-0.1,0.4-0.3,0.8-0.4,1.3c-0.1,0.2-0.1,0.5-0.1,0.8
					c-0.1,0.3,0,0.5-0.1,0.8c-0.1,1.1-0.1,2.2-0.1,3.1c0,0.9,0,1.5,0,1.5s-0.1-0.1-0.2-0.4c-0.1-0.2-0.2-0.6-0.4-1
					c-0.1-0.4-0.2-0.9-0.3-1.5c0-0.3-0.1-0.6-0.1-0.9c0-0.3,0-0.6,0-0.9c0-0.3,0-0.6,0.1-0.9c0-0.3,0.1-0.6,0.2-0.8
					c0.2-0.5,0.4-1,0.7-1.4c0.3-0.4,0.6-0.6,0.8-0.7C245.6,547.3,245.7,547.2,245.7,547.2z"/>
				<path class="st6" d="M296.4,610.7h-57.7l0,0c0-3.6,2.9-6.6,6.6-6.6h44.6C293.4,604.2,296.4,607.1,296.4,610.7L296.4,610.7z"/>
				<path class="st6" d="M311.5,616.7h-88.1l0,0c0-3.6,3.2-6.6,6.8-6.6H305C308.6,610.2,311.5,613.1,311.5,616.7L311.5,616.7z"/>
				<path class="st6" d="M320.1,647.5H215l0,0c0-3.6,2.9-6.6,6.6-6.6h92.1C317.2,640.9,320.1,643.8,320.1,647.5L320.1,647.5z"/>
				<polygon class="st6" points="311.3,641.9 222.8,641.9 223.3,616.4 311.5,616.4 				"/>
				<rect x="248.9" y="619.7" class="st7" width="39" height="16"/>
				<g id="_x33_ytBeJ.tif" class="st5">
					<g>
						<path d="M259.7,522.9c0-0.9,0-1.7,0-2.5c0-0.3,0.1-0.4,0.4-0.4c1.1,0,2.1,0,3.2,0c0.1,0,0.3-0.1,0.3,0.1
							c0,0.1-0.1,0.2-0.2,0.3c-0.3,0.4-0.7,0.5-1.2,0.6c-0.5,0-0.9,0-1.4,0c-0.2,0-0.4,0-0.3,0.2c0.1,1.8-0.2,3.7,0.2,5.5
							c0.3,1.6,1.2,2.4,2.7,2.7c1.4,0.2,2.7-0.4,3.5-1.7c0.7-1.1,0.9-2.4,1.1-3.7c0.1-0.7,0.1-1.3,0.1-2c0-0.3,0.1-0.4,0.4-0.4
							c1,0,1.9,0,2.9,0c0.2,0,0.4,0,0.4,0.3c0,1.9-0.4,3.8-1.6,5.3c-1.2,1.5-2.8,2.3-4.7,2.6c-1,0.2-2.1,0.1-3.1-0.3
							c-1.7-0.7-2.4-2-2.7-3.7C259.6,524.8,259.7,523.7,259.7,522.9z"/>
						<path d="M263.4,525.1c0-1.1,0-2.1,0-3.2c0-0.3,0.1-0.4,0.4-0.4c1,0,2,0,3,0c0.3,0,0.4,0,0.4,0.4c0,1.5-0.1,2.9-0.5,4.3
							c-0.2,0.6-0.4,1.1-0.7,1.6c-0.5,0.7-1.2,1-2,1c-0.3,0-0.5-0.1-0.5-0.5C263.4,527.3,263.4,526.2,263.4,525.1z"/>
						<path d="M271.7,526.5c0,1,0,1.8-0.2,2.7c-0.2,1-0.7,1.7-1.6,2.1c-1.7,0.8-3.5,0.8-5.3,0.2c-0.4-0.1-0.8-0.4-1.1-0.8
							c-0.1-0.2-0.2-0.4-0.1-0.6c0.1-0.2,0.3,0,0.5,0c2.4,0.4,4.6-0.2,6.4-1.8C270.9,527.9,271.3,527.3,271.7,526.5z"/>
						<path d="M272.5,529.4c1.1-1.2,1.7-2.6,2-4.2c0.2-1.3,0.1-2.7,0.1-4.1c0-0.2-0.1-0.3-0.3-0.3c-0.4,0-0.8,0-1.2,0
							c-0.8,0-1.1-0.2-1.6-0.9c0.2,0,0.4,0,0.5,0c1,0,2,0,3.1,0c0.2,0,0.4-0.1,0.4,0.2c-0.1,1.8,0.2,3.6-0.2,5.4
							c-0.4,1.4-1.1,2.7-2.2,3.6C273,529.3,272.8,529.4,272.5,529.4z"/>
						<path d="M264.8,518.5c0.6,0.1,0.9-0.2,1.1-0.6c0.1-0.1,0.1-0.3,0.3-0.2c0.7,0.3,1.1-0.1,1.3-0.7c0.2,0,0.2,0.2,0.3,0.3
							c0.3,0.4,0.6,0.6,1.1,0.4c0.2-0.1,0.3,0,0.4,0.1c0.2,0.5,0.5,0.7,1.1,0.6c-0.3,0.5-0.6,1-0.9,1.4c-0.1,0.2-0.2,0.1-0.4,0
							c-1-0.5-2.1-0.5-3.1,0c-0.2,0.1-0.3,0.1-0.4-0.1C265.4,519.4,265.1,519,264.8,518.5z"/>
						<path d="M263.7,533.7c2.6-0.6,5.2-0.7,7.9,0C268.9,533.5,266.3,533.5,263.7,533.7z"/>
						<path d="M269.5,517.2c0,0.1-0.1,0.2-0.2,0.3c-0.1,0-0.2-0.1-0.2-0.2c0-0.1,0-0.2,0.2-0.3C269.5,517,269.5,517.1,269.5,517.2z"
							/>
					</g>
				</g>
			</g>
			<path class="st8" d="M272.9,570.7c-3,3-2.5,11-2.5,18.5s10,14,10,14v1.3h7V603c0,0-1.6,1.1-9.5-6.3c-7.9-7.4-6.1-17-5.8-19.7
				s3.2-7.2,3.2-7.2l-2.6-1.4c0,0-0.2,0.1-0.4,0.1l0-0.3c0.4,0,0.7-0.1,1.1-0.1c-0.1,0.2-0.2,0.3-0.2,0.3s0.1-0.1,0.4-0.3
				c0.4-0.1,0.7-0.1,1.1-0.2c-0.1,0.1-0.2,0.2-0.2,0.2s0.2-0.1,0.4-0.3c0.6-0.1,1.2-0.2,1.7-0.3c-0.2,0.1-0.3,0.2-0.3,0.2
				s0.3-0.1,0.9-0.3c0,0,0,0,0.1,0c5-1.3,8.5-3.4,10.7-5.8c4.9-0.3,13.8-1.8,18.5-10.3c6.7-12,10-38.7,8.8-56.7h-26
				c0,0-0.1,10.3-0.1,18.3c-3.2-0.5-6.6-1-10-1.3c0.3,11.8,0.9,34.6,1.3,41.2c0.5,9-11,13.5-11,13.5
				C268.9,569.7,272.9,570.7,272.9,570.7z M291.7,551c0-0.4-0.1-0.7-0.3-1.1c0-0.1,0-0.2-0.1-0.3c-0.2-0.9-1-1.6-1-2.1v-26.9l3-3.3
				v-18.8h17c0,0,3.1,55.8-20.8,60.9c0.4-0.7,0.8-1.4,1-2.1c0.1-0.2,0.3-0.6,0.4-0.9c0.2-0.5,0.4-1.2,0.6-1.9
				c0.2-0.7,0.2-1.5,0.2-2.3C291.7,551.8,291.7,551.4,291.7,551z"/>
			<path class="st8" d="M247.4,561.5c3,3.4,7.9,6.2,15.9,6.8v0.1c0,0-0.1,0-0.1-0.1l-2.6,1.4c0,0,2.9,4.5,3.2,7.2s2,12.3-5.9,19.7
				c-7.9,7.4-9.6,6.3-9.6,6.3v1.5h7c1-2,8.8-7.2,10.3-13.2s-1.7-20.6-1.7-20.6l2-3.5c-16.5,0-15.5-18-15.5-18v-37.3
				c-2,0.2-3.2,0.7-4.7,1c0-8,0-18.4,0-18.4h-26c-1.2,18,2.2,44.7,8.8,56.7C233.2,559.9,242.6,561.3,247.4,561.5z M224.4,498.5h16.9
				v18.8l3,3.3v27.2c0,0.5-0.7,1.4-0.8,2.4c0,0,0,0.1,0,0.1c-0.1,0.3,0,0.6-0.1,0.9c0,0.3,0,0.6,0,0.9c0,0.3,0.1,0.6,0.1,0.9
				c0,0.4,0.1,0.7,0.2,1c0.3,1.7,1,3.6,2.1,5.4C221.2,555.2,224.4,498.5,224.4,498.5z"/>
			<circle class="st9" cx="251.3" cy="621.8" r="1.2"/>
			<circle class="st9" cx="285.3" cy="621.8" r="1.2"/>
			<circle class="st9" cx="251.3" cy="633.8" r="1.2"/>
			<circle class="st9" cx="285.3" cy="633.8" r="1.2"/>
			<path class="st10" d="M258,619.6c0,0-3.1,3.7-1.2,7.3c1.9,3.6,0.4,8.8,0.4,8.8l18-0.1c0,0-3.7-4.5-1.6-8.4s1.6-5.6,1.6-7.6
				L258,619.6z"/>
		</g>
		<g>
			<path class="st11" d="M410,497.5h-38c0,0,6.3,5.8,7,10.5c0.7,4.7,2,71.8,54.3,72.8l1-5.4c0,0-41.3,4.1-46.3-67.9h26L410,497.5z"
				/>
			<path class="st12" d="M388.5,508l-2.3-3.5h23.2l-2.2,3.3C407.2,507.8,388.4,507.9,388.5,508z"/>
			<path class="st11" d="M478.3,497.5h38c0,0-6.3,5.8-7,10.5c-0.7,4.7-2,71.8-54.3,72.8l-1-5.4c0,0,41.3,4.1,46.3-67.9h-26
				L478.3,497.5z"/>
			<path class="st12" d="M499.8,508l2.3-3.5H479l2.2,3.3C481.2,507.8,500,507.9,499.8,508z"/>
			<path class="st11" d="M470.9,603.6c-8-1.3-11.8-5.7-13.6-8.5l0.9-16.7c0,0,0.6-15.7,5.3-22.2c4.7-6.5,23.3-20.8,17.8-60.2
				c-0.1-0.4-15.4-4.3-35.9-4.4c-0.2,0-0.4,0-0.6,0c-0.2,0-0.4,0-0.6,0c-20.5,0.1-35.9,4-35.9,4.4c-5.5,39.4,13.1,53.8,17.8,60.2
				c4.7,6.5,5.3,22.2,5.3,22.2h0.2l1.9,16.6c-1.7,2.8-5.5,7.2-13.6,8.5c-12,2-11.4,6.9-11.4,6.9h34.8h4h35
				C482.3,610.5,482.9,605.6,470.9,603.6z"/>
			<polygon class="st7" points="439.5,506.5 439.6,500.3 445.1,497.3 450.5,500.5 450.4,506.7 444.9,509.7 			"/>
			<polygon class="st7" points="469,508.7 468.5,503.7 472.3,500.5 476.7,502.3 477.2,507.3 473.3,510.5 			"/>
			<polygon class="st7" points="421.1,508.1 420.9,503.1 416.5,500.5 412.5,502.9 412.8,507.9 417.1,510.5 			"/>
			<polygon class="st12" points="445.3,497.5 445.3,503.5 450.5,500.5 			"/>
			<polygon class="st12" points="439.5,506.2 445.3,503.5 444.9,509.7 			"/>
			<polygon class="st7" points="427.7,519.3 427.8,515.5 431.1,513.7 434.3,515.7 434.2,519.5 430.9,521.3 			"/>
			<polygon class="st12" points="431.1,513.8 430.4,517.2 434.3,515.8 			"/>
			<polygon class="st12" points="427.7,519.3 430.5,517.2 430.9,521.3 			"/>
			<polygon class="st7" points="408.7,519.3 408.7,515.5 411.1,513.7 413.5,515.7 413.4,519.5 411,521.3 			"/>
			<polygon class="st12" points="411.2,513.8 409.8,517.3 413.5,515.8 			"/>
			<polygon class="st12" points="408.7,519.3 409.7,517.4 411,521.3 			"/>
			<polygon class="st7" points="455.7,519.3 455.8,515.5 459.1,513.7 462.3,515.7 462.2,519.5 458.9,521.3 			"/>
			<polygon class="st12" points="459.3,513.9 459.6,517.9 462.4,515.7 			"/>
			<polygon class="st12" points="455.7,519.3 459.6,517.8 458.9,521.3 			"/>
			<polygon class="st7" points="475.2,520.3 475.2,516.5 477.3,514.7 479.4,516.7 479.3,520.5 477.2,522.3 			"/>
			<polygon class="st12" points="477.3,514.9 478,518.8 479.3,516.7 			"/>
			<polygon class="st12" points="475.2,520.1 478.1,518.8 477.2,522.3 			"/>
			<polygon class="st12" points="416.5,500.5 416.7,505.8 420.9,503.1 			"/>
			<polygon class="st12" points="412.8,507.9 416.7,505.8 417.1,510.5 			"/>
			<polygon class="st12" points="472.3,500.5 473.2,505.7 476.7,502.3 			"/>
			<polygon class="st12" points="469,508.7 473.3,510.5 473.2,505.7 			"/>
			<polygon class="st7" points="431.3,574.5 458.3,574.5 458.7,572.5 430.8,572.3 			"/>
			<polygon class="st7" points="433.3,594.5 457.3,594.5 458.3,596.5 432,596.5 			"/>
			<path class="st13" d="M432.3,547.5c-8.7-14.2-12.2-21-10.2-54.3c-8.5,1.2-13.8,2.6-13.8,2.9c-5.5,39.4,13.1,53.8,17.8,60.2
				c4.7,6.5,5.3,22.2,5.3,22.2h0.2l1.9,16.6c-1.7,2.8-5.5,7.2-13.6,8.5c-12,2-11.4,6.9-11.4,6.9H439
				C439.7,599.6,441.3,562,432.3,547.5z"/>
			<path class="st13" d="M470.9,603.6c-8-1.3-11.8-5.7-13.6-8.5l0.9-16.7c0,0,0.6-15.7,5.3-22.2c4.7-6.5,23.3-20.8,17.8-60.2
				c0-0.3-7.8-2.3-19.5-3.5c1.8,12.1,4.6,39.1-4.5,52.5c-10.1,14.7-8.2,53.6-7.3,65.5h32.3C482.3,610.5,482.9,605.6,470.9,603.6z"/>
			<path class="st6" d="M489.1,616.7H401l0,0c0-3.6,3.2-6.6,6.8-6.6h74.9C486.3,610.2,489.1,613.1,489.1,616.7L489.1,616.7z"/>
			<path class="st6" d="M493.3,647.5h-96.2v-4.2c0-1.3,1.1-2.4,2.4-2.4h91.4c1.3,0,2.4,1.1,2.4,2.4V647.5z"/>
			<polygon class="st6" points="489,641.9 400.5,641.9 401,616.4 489.1,616.4 			"/>
			<polygon class="st11" points="439.5,628.5 439.6,622.3 445.1,619.3 450.5,622.5 450.4,628.7 444.9,631.7 			"/>
			<polygon class="st11" points="423.5,628.5 423.6,622.3 429.1,619.3 434.5,622.5 434.4,628.7 428.9,631.7 			"/>
			<polygon class="st11" points="456.5,628.5 456.6,622.3 462.1,619.3 467.5,622.5 467.4,628.7 461.9,631.7 			"/>
		</g>
		<path class="st14" d="M242.2,560.8c-47.7-27.4-63-87.3-67.6-114.3H6.3v201h294.5C295.7,621.9,281.5,583.4,242.2,560.8z"/>
		<path class="st14" d="M533.3,446.5H261.1c4.6,23.5,18.7,53.6,57.3,75.7c50.7,29.1,72.9,90.3,81.8,125.3h133.2V446.5z"/>
		<path class="st15" d="M318.3,522.2c-38.6-22.1-52.6-52.2-57.3-75.7h-86.4c4.6,27,19.9,86.9,67.6,114.3
			c39.2,22.5,53.4,61,58.5,86.7h99.3C391.2,612.5,369.1,551.2,318.3,522.2z"/>
		<rect x="0.7" y="637.3" class="st0" width="6" height="15.7"/>
		<rect x="0.7" y="647" class="st0" width="15.7" height="6"/>
		<rect x="0.3" y="652.5" class="st1" width="16.3" height="1.7"/>
		<rect x="533.5" y="637.3" class="st0" width="6" height="15.7"/>
		<rect x="523.8" y="647" class="st0" width="15.7" height="6"/>
		<rect x="523.5" y="652.5" class="st1" width="16.3" height="1.7"/>
		<rect x="532.9" y="441.9" class="st0" width="6" height="15.7"/>
		<rect x="538.4" y="441.6" class="st1" width="1.7" height="16.3"/>
		<rect x="523.2" y="351.9" class="st0" width="15.7" height="6"/>
		<rect x="532.9" y="351.9" class="st0" width="6" height="15.7"/>
		<rect x="538.4" y="351.6" class="st1" width="1.7" height="16.3"/>
		<rect x="1.2" y="440.6" class="st0" width="6" height="15.7"/>
		<rect x="0" y="440.2" class="st1" width="1.7" height="16.3"/>
		<rect x="1.2" y="351.6" class="st0" width="15.7" height="6"/>
		<rect x="1.2" y="351.6" class="st0" width="6" height="15.7"/>
		<rect x="0" y="351.2" class="st1" width="1.7" height="16.3"/>
		<g>
			<path class="st1" d="M305.1,404.7c-2.7-2.8-6.2-8.5-6.2-14.8c0-3.4,1-7,3.6-10.5l0.6-0.8l-0.5-0.8c-0.3-0.5-0.6-0.9-0.9-1.2
				c-0.2-0.3-0.5-0.6-0.8-1.1l-0.6-0.9l-1,0.4c-1.5,0.5-3.1,0.8-4.6,0.8c-4.3,0-7.2-0.4-10.7-2.7l-0.8-0.5l-0.8,0.6
				c-3.1,2.1-6.1,3.1-9.4,3.1s-6.3-1-9.4-3.1l-0.8-0.6l-0.8,0.5c-3.5,2.3-6.3,2.7-10.7,2.7c-1.5,0-3.1-0.3-4.6-0.8l-1-0.4l-0.6,0.9
				c-0.3,0.5-0.6,0.8-0.8,1.1c-0.3,0.4-0.6,0.7-0.9,1.2l-0.5,0.8l0.6,0.8c2.6,3.5,3.6,7.1,3.6,10.5c0,6.4-3.5,12-6.2,14.8l-1,1l1,1
				c0.5,0.5,1.5,1.5,2.3,2.4c0,0,0,0.4,0,0.4l0,0.1c0,0.6,0,1.2,0,1.8c0,6.5,1.9,11.8,5.7,16c4.4,4.8,11.2,7.7,19.3,8.1
				c2,1.8,4,3.3,4.1,3.4l0.9,0.6l0.9-0.6c0.1-0.1,2.1-1.6,4.1-3.4c8.1-0.4,14.9-3.3,19.3-8.1c3.8-4.1,5.4-9.5,5.4-16
				c0-0.6,0.7-1.2-0.3-1.8v0l0.2-0.1c0,0,0.1-0.4,0.1-0.4c0.7-0.8,1.8-1.8,2.4-2.4l1.1-1L305.1,404.7z M246.8,409.3l-0.1,0.5
				c0,0.8,0,1.5,0,2.2c0-0.7,0-1.5,0-2.3L246.8,409.3l0.1-0.8L246.8,409.3z M299.1,409.3c0,0,0,0.1,0,0.3
				C299.1,409.5,299.1,409.4,299.1,409.3l-0.1-0.5L299.1,409.3z M298.2,379l0.1,0l-0.2,0.4c-0.2,0.3-0.3,0.5-0.4,0.8
				C297.8,379.8,298,379.4,298.2,379z M298.6,409.5c0,0,0,0.1,0,0.1l0.1,0.3c0,0.5,0,1,0,1.5c0,5.4-1.5,9.8-4.6,13.1
				c-0.7,0.8-1.5,1.5-2.4,2.2c-0.1,0.1-0.2,0.1-0.3,0.2l-0.1-17.4c0.1,0,0.3,0,0.4,0C295.8,409.5,298.5,409.5,298.6,409.5z
				 M265.3,392.5c0,0,4,0,7,0v-7c-3,0-7,0-7,0s0-4.3,0-7.3c2.4,1.1,4.9,1.6,7.6,1.6c3.6,0,6.9-1,10.1-2.9l0.1-0.1l0.1,0.1
				c3.4,1.9,6.4,2.4,10.2,2.5l-0.1,20.1h-2v-19.8c-1-0.1-2-0.2-3-0.4v20.2h-3v-21c0-0.3-1.1-0.6-2-1.1v22h-3v-20.9
				c-1,0.4-1,0.7-2,0.9v19.9h-3v-19.4c-1,0.1-1,0.2-2,0.2v19.3h-8C265.3,396.5,265.3,393.5,265.3,392.5z M283.9,405.3
				c0,1.4-0.9,2.2-2.4,2.2h-3.2v-7h0.2h3c1.3,0,2.1,0.8,2.1,2c0,0.5-0.2,1.1-0.6,1.3C283.6,404.1,283.9,404.7,283.9,405.3z
				 M269.1,425.6c1.4-0.1,3.4-0.4,4.5-1.1c1.2-0.7,2.4-1.5,2.6-2.7c0.8-0.4,2.4-0.2,2.6,1.5c-1.2,2.1-3.4,3.5-6,3.5
				C271.5,426.8,270.2,426.3,269.1,425.6z M272.9,427.2C272.9,427.2,272.8,427.2,272.9,427.2c-0.7,0-1.4-0.1-1.9-0.3
				C271.6,427.1,272.2,427.2,272.9,427.2z M272.5,406.2c0.5,0,0.9-0.2,1.2-0.8l0-0.1l1.2,0.7l0,0.1c-0.5,1-1.3,1.5-2.5,1.5
				c-1.8,0-2.9-1.4-2.9-3.5c0-2,1.2-3.5,3-3.5c1.1,0,2,0.5,2.5,1.5l0,0.1l-1.3,0.6l0-0.1c-0.2-0.5-0.6-0.7-1.1-0.7
				c-0.9,0-1.5,0.8-1.5,2C271,405.4,271.6,406.2,272.5,406.2z M272.9,412.7c-0.7,0-1.3,0.1-1.9,0.3
				C271.5,412.8,272.1,412.7,272.9,412.7C272.8,412.7,272.9,412.7,272.9,412.7z M272.3,413.2c-0.8,0.9-0.6,2.1,0.2,2.8
				c-0.2,0.1-0.4,0.3-0.5,0.6c-0.6,1-0.7,2.6,0.7,3.6c-0.1,0.8-1.1,1.6-1.9,1.5c-1.6-0.2-2.3-1.7-2.4-3.5c0-1.3,0.4-2.5,0.7-3.8
				C270.1,413.7,271.2,413.3,272.3,413.2z M268.3,416.1c-0.4,1.6-0.3,4,1,5.2c-0.4,0.8-1.3,1.3-2.3,1.3c-0.1,0-0.2,0-0.4,0
				c-0.3-0.8-0.5-1.7-0.5-2.6c0-2.1,1-4,2.5-5.3C268.5,415.2,268.4,415.6,268.3,416.1z M267,422.9c1.1,0,2.1-0.5,2.6-1.4
				c0.3,0.2,0.7,0.4,1.2,0.4c0.9,0.1,2.3-0.8,2.3-1.9c1.3-0.9,2.3-0.1,2.6,0.6c0.6,1.4-0.7,2.5-2.3,3.4c-1.3,0.7-3.4,1.1-4.9,1.1
				c-0.8-0.6-1.4-1.4-1.8-2.3C266.9,422.9,266.9,422.9,267,422.9z M276.3,421.3c0-0.3-0.1-0.5-0.2-0.8c-0.4-0.9-1.6-1.9-3.2-0.8
				c-1.2-0.9-1.1-2.2-0.6-3c0.8-1.3,2.6-0.8,4.2,0.2c1.3,0.7,2.7,2.3,3.1,3.7c-0.1,0.7-0.2,1.4-0.5,2.1
				C278.7,421.2,277.2,421,276.3,421.3z M276.8,416.5c-1.2-0.7-2.8-1.3-3.9-0.8c-0.9-0.5-1-1.9,0.1-2.6c3.6,0,6.5,2.8,6.7,6.4
				C279.1,418.3,277.9,417.1,276.8,416.5z M262.6,376.9l0.1-0.1l0,0C262.7,376.9,262.6,376.9,262.6,376.9L262.6,376.9z M262.3,400.5
				h4v2h-3v1h2v1h-2v3h-1V400.5z M248,379.1c1.1,0.2,2.2,0.3,3.2,0.3c2.7,0,4.9-0.2,7.1-0.7c0,2.9,0,6.9,0,6.9c-0.8,0-5.2,0-8.1,0
				c-0.4-2-1.2-4-2.4-6.1l-0.2-0.4L248,379.1z M258.3,392.5c0,1,0,4,0,7h-9.9l0.1-0.2c0.8-1.9,1.6-4.2,1.9-6.8
				C253.4,392.5,257.5,392.5,258.3,392.5z M247.2,409.9c0,0,0.1-0.2,0.1-0.2s0-0.1,0-0.1c0.1,0,2.8,0,6.8,0c0.1,0,0.2,0,0.2,0v17.4
				c-0.1-0.1-0.2-0.1-0.2-0.2c-0.9-0.7-1.7-1.4-2.4-2.2c-3-3.3-4.6-7.7-4.6-13.1C247.1,410.9,247.1,410.4,247.2,409.9z M251.4,424.7
				c-1.4-1.5-2.4-3.2-3.2-5.1C248.9,421.4,250,423.1,251.4,424.7c0.9,0.9,1.9,1.8,3,2.6v0C253.2,426.5,252.2,425.6,251.4,424.7z
				 M255.6,428.1C255.6,428.1,255.6,428.1,255.6,428.1c3.7,2.2,8.4,3.4,13.9,3.4C264,431.5,259.3,430.3,255.6,428.1z M269.2,431.4
				c-2.7-0.1-5.2-0.5-7.5-1.2c-0.1,0-0.2-0.1-0.3-0.1v-20.7c0.1,0,0.2,0,0.3,0c2.4,0,4.9,0,7.5,0c0.1,0,0.1,0,0.2,0v4.2
				c-0.1,0-0.1,0.1-0.2,0.1c-2.1,1.3-3.5,3.6-3.5,6.2c0,2.6,1.4,4.9,3.5,6.2c0.1,0,0.1,0.1,0.2,0.1v5.2c0,0,0.1,0.1,0.2,0.1
				C269.4,431.5,269.3,431.4,269.2,431.4z M276.7,431.4c-0.1,0-0.3,0.1-0.4,0.1c-1.9,0-4.2,0-6.6,0c2.4,0,4.5,0,6.4,0
				c0.1,0,0.2-0.1,0.2-0.1v-5.1c0.1-0.1,0.2-0.1,0.4-0.2c2.1-1.3,3.5-3.6,3.5-6.2c0-2.6-1.4-4.9-3.5-6.2c-0.1-0.1-0.2-0.1-0.4-0.2
				v-4.1c0.1,0,0.2,0,0.4,0c2.6,0,5.1,0,7.5,0c0,0,0.1,0,0.1,0v20.7c0,0-0.1,0-0.1,0C281.9,430.9,279.4,431.3,276.7,431.4z
				 M289.1,428.7c0,0,0.1,0,0.1,0c-2.7,1.3-5.8,2.2-9.4,2.7C283.4,430.9,286.5,430,289.1,428.7z M294.4,424.8
				c-0.9,1-2.1,1.8-3.1,2.6v-0.1C292.3,426.6,293.6,425.7,294.4,424.8c3-3.3,4.5-7.6,4.7-12.7C299,417.3,297.4,421.6,294.4,424.8z"
				/>
			<path class="st1" d="M281.5,404.5h-1.2v2h1.2c0.6,0,0.9-0.5,0.9-1C282.4,405,282.1,404.5,281.5,404.5z"/>
			<path class="st1" d="M282.2,403c0-0.3-0.1-0.5-0.7-0.5h-1.1v1h1.2C282,403.5,282.2,403.4,282.2,403z"/>
			<path class="st1" d="M283.1,377.3c0.1,0,0.2,0.1,0.3,0.1v-0.1C283.3,377.3,283,377.3,283.1,377.3z"/>
		</g>
	</g>
</g>
</svg>
