<?xml version="1.0" encoding="utf-8"?>
<!-- Generator: Adobe Illustrator 19.0.0, SVG Export Plug-In . SVG Version: 6.00 Build 0)  -->
<!DOCTYPE svg PUBLIC "-//W3C//DTD SVG 1.1//EN" "http://www.w3.org/Graphics/SVG/1.1/DTD/svg11.dtd">
<svg version="1.1" id="Layer_1" xmlns="http://www.w3.org/2000/svg" xmlns:xlink="http://www.w3.org/1999/xlink" x="0px" y="0px"
	 viewBox="0 0 506 239.3" style="enable-background:new 0 0 506 239.3;" xml:space="preserve">
<style type="text/css">
	.st0{fill:#B86B00;}
	.st1{fill:#8EB700;}
	.st2{fill:#5F8900;}
	.st3{fill:#AEE000;}
	.st4{fill:#F9BD91;}
	.st5{fill:#F6EDEC;}
	.st6{fill:#52814E;}
	.st7{fill:#DDDAD5;}
	.st8{fill:#231F20;}
	.st9{fill:#070B07;}
	.st10{fill:#F7F7F7;}
	.st11{fill:#232021;}
	.st12{fill:#FCEE21;}
	.st13{fill:#009245;}
	.st14{fill:#754C24;}
</style>
<g>
	<g>
		<path class="st0" d="M43,174c0,0,33.3-43.3,8-120l5.3-3.3c0,0,26.7,57.3,3.3,116C59.6,166.7,56.3,179.3,43,174z"/>
		<g>
			<path class="st1" d="M62,55.7c0,0,18-3.3,12.3,25.3l4.7-5l-1.3-3.3L82,75l1-4l-3.7-3.3l5.3,1l1.3-6.3l-9-2.7l8-1.3l-5-8L70.6,51
				l4.3-2.3c0,0-16-0.3-18.3,8.7L62,55.7z"/>
			<path class="st2" d="M59,53.3c0,0,0.7-9,12-9.3s27.7,15,22.3,44.7l4.3-4l0.3-4.3l1.7,1.7c0,0,4-7,3.3-18.7L97.3,58l3.7-0.3
				l-2.7-6l-3.7-1l2.7-0.3l-3.7-4L90,48l2.3-3.7c0,0-4-5-9-7.3L76,38.3l3-2.7c0,0-18.3,0.7-20.7,13.7L59,53.3z"/>
			<path class="st1" d="M60,39.3c0,0,5.7-17.3,19.3-10.7s26.3,24,26,29l1.7-9l-3.3-2.3L107,45l-2-6l-4.3-1.7l3.7-0.3l-2-4l-4.7-0.3
				l3.3-1.3l-3.3-4L92.3,27l3.3-2L91,21.7l-6,0.7l3-2c0,0-21-8-27.7,8S54.3,48,60,39.3z"/>
			<path class="st2" d="M54.6,43.7c0.9,0.5-4.3-19,4-28.7s26-7.7,26-7.7L69.3,1l-0.7,3.3l-3-4.3L63,0.7l1,2.7l-3.3-2l-6,1.3l4,5.7
				l-7-4.3l-4.3,4.3l3.7,4.3l-5.3-2l-2,6.3l4.3,4l-4,0.7C44,21.7,47.6,39.7,54.6,43.7z"/>
			<path class="st1" d="M52.1,46.2c0,0-0.4-0.3-1.2-0.8c-6-3.9-33.5-20-50.9-0.8c0,0-2-16.5,21.3-15.8l-2-2.5H25l6.3,4L29.6,27
				l4.2,1l3.2,4.3v-3c0,0,15,8.3,18.3,13.3s1.2,4.4-3.6,3.2"/>
			<path class="st2" d="M53.3,60.7c0,0-18,28.3,6.3,37.3c0,0-14.3,5-17.3-9.3l-0.7,2.7c0,0-2.3-2.3-0.3-6.7L39,86.3c0,0,0-4,2.7-6
				l-2.7,2c0,0,0-11.3,10.7-21L53.3,60.7z"/>
			<path class="st2" d="M33.6,65c0,0,10.3-7.3,14.7-9.3S48,60,48,60s-20,13.3-15.3,53.3l-9.7-15l5-7.3l-5,1.3L21.3,84l8.3-4.7
				l-6.7-1l3-5.7l4.7,0.7l-3.3-3l4.7-3.7l4.3,1.3"/>
			<path class="st2" d="M48,52.7c0,0-32.7,5.7-33,55c0,0-3.7-7-3-12.7l-2,1c0,0-0.7-7,3.7-10.3L11,85.3c0,0-0.3-7,6.3-11L13,73
				c0,0,2.3-6.7,11-8l-6-1l2.7-3l8,0.3l-6.7-2l1.3-2.7l8,1l-4.7-3.3c0,0,6-5.7,20-2.3"/>
			<path class="st1" d="M43.6,48.5c0,0-20-10.2-29.3,25.1l-4.7-3.3l1.7-3.3l-2.7,2L6,65.7L8.6,62L6,63.7v-4.3l4.3-1.7l-3.7-2
				c0,0,14.3-22.3,41.7-10.3L43.6,48.5z"/>
			<path class="st3" d="M53.6,45c0,0,0.3-9.7,9.7-13.7l1,4l-5,5l4.3-2l0.7,5.3L61.6,47l3.3-0.3L64,52l-4,3l3.7-1l-0.3,7l-3.7,1.7
				l2.3,0.7c0,0-3.3,9-1.7,13.3l-5.3-7l1-2.3L53,69l-3.7-3.7l3.3-3l-6,0.3L43.3,58c0,0,4-2.3,7-2c0,0-5.3-2.3-8.7,0.3l-1-6l6.3-1.7
				l-6.7-0.3C40.3,48.3,44,43,53.6,45z"/>
		</g>
	</g>
	<g>
		<path class="st0" d="M442,214c0,0,33.3-43.3,8-120l5.3-3.3c0,0,26.7,57.3,3.3,116C458.6,206.7,455.3,219.3,442,214z"/>
		<g>
			<path class="st1" d="M461,95.7c0,0,18-3.3,12.3,25.3l4.7-5l-1.3-3.3l4.3,2.3l1-4l-3.7-3.3l5.3,1l1.3-6.3l-9-2.7l8-1.3l-5-8
				l-9.3,0.7l4.3-2.3c0,0-16-0.3-18.3,8.7L461,95.7z"/>
			<path class="st2" d="M458,93.3c0,0,0.7-9,12-9.3c11.3-0.3,27.7,15,22.3,44.7l4.3-4l0.3-4.3l1.7,1.7c0,0,4-7,3.3-18.7l-5.7-5.3
				l3.7-0.3l-2.7-6l-3.7-1l2.7-0.3l-3.7-4L489,88l2.3-3.7c0,0-4-5-9-7.3l-7.3,1.3l3-2.7c0,0-18.3,0.7-20.7,13.7L458,93.3z"/>
			<path class="st1" d="M459,79.3c0,0,5.7-17.3,19.3-10.7c13.7,6.7,26.3,24,26,29l1.7-9l-3.3-2.3L506,85l-2-6l-4.3-1.7l3.7-0.3l-2-4
				l-4.7-0.3l3.3-1.3l-3.3-4l-5.3-0.3l3.3-2l-4.7-3.3l-6,0.7l3-2c0,0-21-8-27.7,8S453.3,88,459,79.3z"/>
			<path class="st2" d="M453.6,83.7c0.9,0.5-4.3-19,4-28.7c8.3-9.7,26-7.7,26-7.7L468.3,41l-0.7,3.3l-3-4.3l-2.7,0.7l1,2.7l-3.3-2
				l-6,1.3l4,5.7l-7-4.3l-4.3,4.3l3.7,4.3l-5.3-2l-2,6.3l4.3,4l-4,0.7C443,61.7,446.6,79.7,453.6,83.7z"/>
			<path class="st1" d="M451.1,86.2c0,0-0.4-0.3-1.2-0.8c-6-3.9-33.5-20-50.9-0.8c0,0-2-16.5,21.3-15.8l-2-2.5h5.7l6.3,4l-1.7-3.3
				l4.2,1l3.2,4.3v-3c0,0,15,8.3,18.3,13.3s1.2,4.4-3.6,3.2"/>
			<path class="st2" d="M452.3,100.7c0,0-18,28.3,6.3,37.3c0,0-14.3,5-17.3-9.3l-0.7,2.7c0,0-2.3-2.3-0.3-6.7l-2.3,1.7
				c0,0,0-4,2.7-6l-2.7,2c0,0,0-11.3,10.7-21L452.3,100.7z"/>
			<path class="st2" d="M432.6,105c0,0,10.3-7.3,14.7-9.3S447,100,447,100s-20,13.3-15.3,53.3l-9.7-15l5-7.3l-5,1.3l-1.7-8.3
				l8.3-4.7l-6.7-1l3-5.7l4.7,0.7l-3.3-3l4.7-3.7l4.3,1.3"/>
			<path class="st2" d="M447,92.7c0,0-32.7,5.7-33,55c0,0-3.7-7-3-12.7l-2,1c0,0-0.7-7,3.7-10.3l-2.7-0.3c0,0-0.3-7,6.3-11L412,113
				c0,0,2.3-6.7,11-8l-6-1l2.7-3l8,0.3l-6.7-2l1.3-2.7l8,1l-4.7-3.3c0,0,6-5.7,20-2.3"/>
			<path class="st1" d="M442.6,88.5c0,0-20-10.2-29.3,25.1l-4.7-3.3l1.7-3.3l-2.7,2l-2.7-3.3l2.7-3.7l-2.7,1.7v-4.3l4.3-1.7l-3.7-2
				c0,0,14.3-22.3,41.7-10.3L442.6,88.5z"/>
			<path class="st3" d="M452.6,85c0,0,0.3-9.7,9.7-13.7l1,4l-5,5l4.3-2l0.7,5.3l-2.7,3.3l3.3-0.3l-1,5.3l-4,3l3.7-1l-0.3,7l-3.7,1.7
				l2.3,0.7c0,0-3.3,9-1.7,13.3l-5.3-7l1-2.3l-3,1.7l-3.7-3.7l3.3-3l-6,0.3l-3.3-4.7c0,0,4-2.3,7-2c0,0-5.3-2.3-8.7,0.3l-1-6
				l6.3-1.7l-6.7-0.3C439.3,88.3,443,83,452.6,85z"/>
		</g>
	</g>
	<g>
		<path class="st0" d="M251.3,237.8c0,0-37.6-48.9-9-135.5l-6-3.8c0,0-30.1,64.7-3.8,131C232.5,229.5,236.2,243.9,251.3,237.8z"/>
		<g>
			<path class="st1" d="M229.8,104.2c0,0-20.3-3.8-13.9,28.6l-5.3-5.6l1.5-3.8l-4.9,2.6l-1.1-4.5l4.1-3.8l-6,1.1l-1.5-7.2l10.2-3
				l-9-1.5l5.6-9l10.5,0.8l-4.9-2.6c0,0,18.1-0.4,20.7,9.8L229.8,104.2z"/>
			<path class="st2" d="M233.2,101.6c0,0-0.8-10.2-13.6-10.5c-12.8-0.4-31.2,16.9-25.2,50.4l-4.9-4.5l-0.4-4.9l-1.9,1.9
				c0,0-4.5-7.9-3.8-21.1l6.4-6l-4.1-0.4l3-6.8l4.1-1.1l-3-0.4l4.1-4.5l4.1,1.9l-2.6-4.1c0,0,4.5-5.6,10.2-8.3l8.3,1.5l-3.4-3
				c0,0,20.7,0.8,23.3,15.4L233.2,101.6z"/>
			<path class="st1" d="M232.1,85.8c0,0-6.4-19.6-21.8-12s-29.7,27.1-29.4,32.7L179,96.3l3.8-2.6l-3.8-1.5l2.3-6.8l4.9-1.9l-4.1-0.4
				l2.3-4.5l5.3-0.4l-3.8-1.5l3.8-4.5l6-0.4l-3.8-2.3l5.3-3.8l6.8,0.8l-3.4-2.3c0,0,23.7-9,31.2,9S238.5,95.5,232.1,85.8z"/>
			<path class="st2" d="M238.1,90.6c-1,0.6,4.9-21.5-4.5-32.4s-29.4-8.7-29.4-8.7l17.3-7.2l0.8,3.8l3.4-4.9l3,0.8l-1.1,3l3.8-2.3
				l6.8,1.5l-4.5,6.4l7.9-4.9l4.9,4.9l-4.1,4.9l6-2.3l2.3,7.2l-4.9,4.5l4.5,0.8C250.1,65.8,246,86.1,238.1,90.6z"/>
			<path class="st1" d="M240.9,93.5c0,0,0.5-0.3,1.3-0.9c6.8-4.4,37.8-22.6,57.5-0.9c0,0,2.3-18.5-24-17.7l2.3-2.6h-6.4l-7.2,4.4
				l1.9-3.8l-4.7,1.1l-3.6,4.9v-3.4c0,0-16.9,9.4-20.7,15.1s-1.3,5,4.1,3.6"/>
			<path class="st2" d="M239.6,109.8c0,0,20.3,32-7.2,42.2c0,0,16.2,5.6,19.6-10.5l0.8,3c0,0,2.6-2.6,0.4-7.5l2.6,1.9
				c0,0,0-4.5-3-6.8l3,2.3c0,0,0-12.8-12-23.7L239.6,109.8z"/>
			<path class="st2" d="M261.8,114.7c0,0-11.7-8.3-16.6-10.5s0.4,4.9,0.4,4.9s22.6,15.1,17.3,60.2l10.9-16.9l-5.6-8.3l5.6,1.5
				l1.9-9.4l-9.4-5.3l7.5-1.1l-3.4-6.4l-5.3,0.8l3.8-3.4l-5.3-4.1l-4.9,1.5"/>
			<path class="st2" d="M245.6,100.8c0,0,36.9,6.4,37.3,62.1c0,0,4.1-7.9,3.4-14.3l2.3,1.1c0,0,0.8-7.9-4.1-11.7l3-0.4
				c0,0,0.4-7.9-7.2-12.4l4.9-1.5c0,0-2.6-7.5-12.4-9l6.8-1.1l-3-3.4l-9,0.4l7.5-2.3l-1.5-3l-9,1.1l5.3-3.8c0,0-6.8-6.4-22.6-2.6"/>
			<path class="st1" d="M250.5,96.1c0,0,22.6-11.6,33.1,28.3l5.3-3.7L287,117l3,2.3l3-3.8l-3.1-4.1l3,1.9v-4.9l-4.8-1.9l4.2-2.3
				c0,0-16.2-25.2-47-11.7L250.5,96.1z"/>
			<path class="st3" d="M239.2,92.2c0,0-0.4-10.9-10.9-15.4l-1.1,4.5l5.6,5.6l-4.9-2.3l-0.8,6l3,3.8l-3.8-0.4l1.1,6l4.5,3.4
				l-4.1-1.1l0.4,7.9l4.1,1.9l-2.6,0.8c0,0,3.8,10.2,1.9,15.1l6-7.9l-1.1-2.6l3.4,1.9l4.1-4.1l-3.8-3.4l6.8,0.4l3.8-5.3
				c0,0-4.5-2.6-7.9-2.3c0,0,6-2.6,9.8,0.4l1.1-6.8l-7.2-1.9l7.5-0.4C254.3,95.9,250.1,89.9,239.2,92.2z"/>
		</g>
	</g>
	<g>
		<path class="st4" d="M167.2,153l4.8,15.1l-3.2,15.4l-3.7-0.3l1.8-14.4l-6.7-12C160.2,156.9,163.8,153.2,167.2,153z"/>
		<path class="st5" d="M154.5,143.1c0,0-3,6.5,5.5,17.2c0,0,1.7-4.2,8.2-4.5c0,0-0.9-5.7-3.5-9.5
			C162.1,142.6,154.5,143.1,154.5,143.1z"/>
		<path class="st4" d="M144.3,158.1l3.1,1l0.5-2.8l4.2-3.3l3,5.9l-3.8,6.8l-8.1-2.5C143.2,163.2,142.6,158.8,144.3,158.1z"/>
		<path class="st4" d="M145.2,164l-15.1-6.2l1.1-3c0,0,9.5,1.4,16.2,4.5C147.4,159.2,147.1,161.3,145.2,164z"/>
		<path class="st4" d="M131.2,154.7c0,0-1.2,5.9-3.2,8.2c-1.7,1.9-2.1,0.8-2.4-0.5C125.3,161.1,128,154.4,131.2,154.7z"/>
		<path class="st6" d="M166.2,120.3c0,0,2.4,2.5,1.8,8.7l-4.3-1L166.2,120.3z"/>
		<path class="st4" d="M169.3,139.7l-9.1-5.1l1.7-6.8l-3.9-0.3l-3.5,9.1l15.2,6C169.7,142.5,170,140.2,169.3,139.7z"/>
		<path class="st4" d="M167.9,139.4c0,0,1.7-0.3,4.3-1.4c0,0,1.3,0.7-1.3,2c0,0,1.8,0.2,3.5,1.1s-1.3,5.1-4.8,3.2
			c-3.4-2-2.9-3.2-2.9-3.2S167.2,139.9,167.9,139.4z"/>
		<path class="st7" d="M146.8,157.7l9.1,1.4c0,0,9.1-14.4,7.9-19.2c-0.1-0.2-7.3,1.5-7.3,1.3C154.8,136.6,146.2,142.7,146.8,157.7z"
			/>
		<path class="st6" d="M146.6,126.2c0.1,1.3,1.1,5.2,1.1,5.2l1.3-1.7l3-2.1c0,0,0.6,9.4-4.3,18.9c-2,3.9,17.5,0.7,17.5,0.7v0
			c2.1-17,0.4-23.2,0.4-23.2l0.6-3.6l-7.2-1.3c0,0-5.4-0.1-7,0.6C150,120.5,146.1,121.7,146.6,126.2z"/>
		<path class="st4" d="M166.9,104l-1.3,14.2c0,0-3-0.2-4.1-0.2l0.1,0.2l-0.1,3.4c0,0-2.4,3.8-5.5-0.8l0.8-7.9c0,0-1.5-0.5-1.3-2.2
			s1.9-0.7,1.9-0.7l0.8-6.3L166.9,104z"/>
		<path class="st4" d="M165,129.8l-9.9,3.3l-3.9-5.8l-2.9,2.7l4.3,8.7l14.7-7.2C167.3,131.5,165.8,129.6,165,129.8z"/>
		<path class="st4" d="M164.3,129.8c0,0,0.9-1.4,1.9-4.1c0,0,1.4-0.5,0.6,2.4c0,0,2.5-1.2,4.3-1.9c1.9-0.7,2.9,4.4-0.9,5.7
			c-3.8,1.2-5.1,0.5-5.1,0.5S164.3,130.6,164.3,129.8z"/>
		<path class="st6" d="M147.6,131.4l6.6-5.1l-4.7-2.8C149.6,123.5,145.9,124.8,147.6,131.4z"/>
		<path class="st8" d="M166.6,108.9c0,0,1.2-5,0.3-6.5c0,0-3-3.7-9.6-0.8c-1.1,0.5-1.8,1.7-2,2.8c-0.2,1.3-0.3,3.2,0.5,5.5
			c0,0,1.7-0.6,1.7,0.8c0,1.4,0.1,1.6,0.1,1.6l1.2-0.9c0,0-1-5,0.4-7c0,0,7.4-1.5,7.5,1C166.6,106.7,166.8,106.5,166.6,108.9z"/>
		<path class="st8" d="M157.8,107.7c0,0,5.4-1.9,6.6-4.1l-6.5-0.4L157.8,107.7z"/>
		<path class="st4" d="M165.2,183.3l-0.7,3l10.2,0.5c0,0-1.2-2.1-5.8-3.3L165.2,183.3z"/>
	</g>
	<g>
		<path class="st4" d="M363.4,179.4c-0.5,0,0.3,4.9,1.4,12.1c0.1,0.9,1.7,7.8,1.7,7.8l-6.8,1.8l-2.1-5.6l-6.8-18.1L363.4,179.4z"/>
		<path class="st4" d="M359.8,201l11.5,14.8l4.3-2.4l-4.8-10.9c0,0-2.7-1.6-4.3-3.2C366.5,199.3,363.5,198,359.8,201z"/>
		<path class="st4" d="M375.6,213.4c0,0-9.6,2.6-11.4,6c-1,1.9,3.8,2,6.8,0.6C373.8,218.7,377.6,217.6,375.6,213.4z"/>
		<path class="st9" d="M364.7,186.9l-11,2c0,0-4.3-11.6-3-17.4c0.1-0.3,0.1-0.5,0.2-0.8C352.7,165.1,364.9,168.6,364.7,186.9z"/>
		<g>
			<path class="st10" d="M362.3,217.9c-2.7,4.4-8.2,5.8-12.3,3.3c-4-2.6-5.1-8.2-2.3-12.5c2.7-4.4,8.2-5.8,12.3-3.3
				C364,208,365,213.6,362.3,217.9z"/>
			<polygon class="st11" points="354.5,208.7 350.7,211.7 351.9,215.5 356.1,215.6 357.7,211.5 			"/>
			<path class="st11" d="M353.8,204.3l1,1.6l2.6-1.7C357.4,204.2,355,203.9,353.8,204.3z"/>
			<path class="st11" d="M362.6,208l-1.3,3.3l2.2,3.2C363.5,214.5,364.8,212.5,362.6,208z"/>
			<path class="st11" d="M347.7,208.7l0.2,2l-1.7,1.3C346.2,211.9,346.7,209.7,347.7,208.7z"/>
			<path class="st11" d="M360.3,220.2L360,219l-3-0.7l-1.2,2.5l0.4,1.6C356.3,222.3,359.4,221.4,360.3,220.2z"/>
			<path class="st11" d="M347.5,218.7l2.3-0.3l0.2,2.8C350,221.2,348.6,220.4,347.5,218.7z"/>
			<path class="st11" d="M354.7,205.5l-0.4,3.7C354.3,209.2,354.9,206.8,354.7,205.5z"/>
			<path class="st11" d="M357.4,211.5c0,0,2.2-0.6,4.2-0.1C361.6,211.4,358.8,211.8,357.4,211.5z"/>
			<path class="st11" d="M355.8,215.2c0,0,0.9,3.1,1.4,3.5l0.1-0.3c0,0-1-1.9-1.3-3.4L355.8,215.2z"/>
			<path class="st11" d="M363.4,214c0,0-0.4,3.1-3.9,5.3C359.5,219.3,363,217.8,363.4,214z"/>
			<path class="st11" d="M352.3,215c0,0-2.4,2.5-3,4C349.4,219.1,351.8,216,352.3,215z"/>
			<path class="st11" d="M356.2,220.6c0,0-2.1,1.4-6.4,0.5C349.8,221.2,354.1,222.6,356.2,220.6z"/>
			<path class="st11" d="M347.6,210.6c0,0,3,1.4,3.7,1.3c0,0-3.1-1.1-3.6-1.6L347.6,210.6z"/>
		</g>
		<path class="st4" d="M337.7,162.7l-2.7-12.2l6.7-2.3l-3-5.7l-10.8,4.6l7.7,18.3C335.5,165.5,337.8,163.8,337.7,162.7z"/>
		<path class="st12" d="M343.7,176.5c-2.6-20.6-0.5-28.1-0.5-28.1l-6.2,1.8l-1.6-6.5l7.2-2.8l6.4,0.5l3.6-0.8l8.9-1l9,5.2l-4.7,5.7
			l-5.2-3.1c0,0,0.7,12.1,2.7,25C364.3,177.8,343.7,176.5,343.7,176.5L343.7,176.5z"/>
		<path class="st4" d="M337.6,161.2c0,0,1.6,1.2,4.8,2.6c0,0,0.5,1.8-2.9,0.6c0,0-0.8,0.3,1,2.1c2.9,2.9-4.9,5-6.1,0.4
			c-1.2-4.6,0.8-5.3,0.8-5.3S336.7,161.1,337.6,161.2z"/>
		<path class="st4" d="M365.1,164.3l5.6-11.4l-6.3-5.6l3.7-3l9.7,6.6l-11,16.5C366.7,167.4,364.8,165.3,365.1,164.3z"/>
		<polygon class="st12" points="370.6,144.8 365.9,150.5 360.8,147.4 362.1,141.7 		"/>
		<path class="st4" d="M337.8,193.9l-3.2-3.7l3.4-1.2l3.2-5.9l-8-2.5l-7.7,6.1l4.7,9.6C330.3,196.2,337.4,196.1,337.8,193.9z"/>
		<path class="st9" d="M351.8,180.2c0,0-2.2,3.5-13.8,8.8c0,0,0.8-4.6-4.7-8.4c0,0,2.6-2,6.3-4.9c1.3-1,3.5-2.3,4.2-2.2
			C347.3,174.4,351.8,180.2,351.8,180.2z"/>
		<path class="st4" d="M330.3,196.2l9.7,15.1l3.5-2.1c0,0-3.3-9-5.7-15.4C337.8,193.9,333.2,193.3,330.3,196.2z"/>
		<path class="st4" d="M343.5,209.3c0,0-7.1,2.7-9.6,5.7c-2,2.6,3,2.8,5.7,0.4C340.9,214.4,344.5,213.2,343.5,209.3z"/>
		<path class="st9" d="M343.5,173.5c0,0,13.8,3.7,20-1.5c0,0,3.2,5.3-1.3,9.2c-4.5,3.8-15.8,0.8-15.8,0.8L343.5,173.5z"/>
		<path class="st4" d="M365.5,164c0,0-1.9,0.9-5.2,1.6c0,0-0.8,1.7,2.7,1.1c0,0-1.9,2.8-3,4.9c-1.1,2.1,4.8,4.2,6.9-0.1s1.5-6,1.5-6
			S366.5,164.1,365.5,164z"/>
		<polygon class="st13" points="335.4,143.7 337,150.2 338.1,149.9 336.5,143.2 		"/>
		<polygon class="st13" points="365.9,150.5 370.6,144.8 369.3,144.1 365.3,150 		"/>
		<path class="st13" d="M348.1,142.4c0,0-0.7,1.6-0.4,3.4s2.8,2.5,4.1,2.4s3.3-1.7,3.6-3.4C356.5,140,350.5,139.9,348.1,142.4z"/>
		<path class="st14" d="M342.1,135.3c0,0-3.7,1.3-3.5-2.8c0,0-3.8-2.5-1.3-5.7c0,0-3-5.3,1.2-5.8c0,0,0.2-5.5,5.3-3.2c0,0,2-5.8,6-1
			c0,0,4.7-2.3,5,2.8c0,0,4.5-0.3,3.3,4.7c0,0,3.5,2.7,0.8,5.8c0,0,2.8,3.7-1,5.7c0,0-0.5,5.2-5.2,3.2L342.1,135.3z"/>
		<path class="st4" d="M341.6,124.3l1,15.1c0.2,1.3,4.2,1.8,5.5,1.9l-0.1,0.3l0.1,2.8c0,1.3,0.8,2.5,2,3c0.7,0.3,1.5,0.3,2.5-0.3
			c1.5-0.9,2.3-2.6,2.1-4.3l-0.7-7.6c0,0,1.8-0.6,1.6-2.7c-0.2-2.1-2.3-0.9-2.3-0.9l-0.9-7.6L341.6,124.3z"/>
		<path class="st14" d="M341.1,126.5c0,0,1,2.3,3.2,0.2c0,0,2.5,2,4.5-0.2c0,0,0.3,4.2,2.8,2c0,0-0.3,6,2.2,2.8
			c2.5-3.2,1.3-7.7,1.3-7.7l-3.3-2.8l-12,2.7L341.1,126.5z"/>
	</g>
</g>
</svg>
