<?xml version="1.0" encoding="utf-8"?>
<!-- Generator: Adobe Illustrator 19.0.0, SVG Export Plug-In . SVG Version: 6.00 Build 0)  -->
<!DOCTYPE svg PUBLIC "-//W3C//DTD SVG 1.1//EN" "http://www.w3.org/Graphics/SVG/1.1/DTD/svg11.dtd">
<svg version="1.1" id="Layer_1" xmlns="http://www.w3.org/2000/svg" xmlns:xlink="http://www.w3.org/1999/xlink" x="0px" y="0px"
	 viewBox="0 0 336.5 405.5" style="enable-background:new 0 0 336.5 405.5;" xml:space="preserve">
<style type="text/css">
	.st0{fill:none;stroke:#4D4D4D;stroke-miterlimit:10;}
	.st1{fill:#EB3500;}
	.st2{fill:#C09673;}
	.st3{fill:#DDCD00;}
	.st4{fill:#009245;}
	.st5{fill:#A88261;}
	.st6{fill:#006837;}
	.st7{fill:#333333;}
	.st8{fill:#FFFFFF;}
	.st9{fill:#CCCCCC;}
</style>
<g>
	<line class="st0" x1="320.8" y1="114.6" x2="171.9" y2="352.7"/>
	<g>
		<path d="M101.3,384.8l-3.1-2.5c0.3-0.3,6.6-8,20.4-13.2c22.8-8.7,47.8-3.9,64.8,1.6l-1.2,3.8c-16.3-5.3-40.2-9.9-61.9-1.8
			C107.4,377.5,101.3,384.7,101.3,384.8z"/>
	</g>
	<g>
		<path d="M133.7,290.9c-17.8,0-29.9-4.9-35.4-7c-0.9-0.4-1.9-0.8-2.2-0.8c0,0,0.2,0,0.6,0l-1-3.9c0.9-0.2,1.7,0.1,4.1,1
			c8.8,3.5,35.5,14.2,76.2-2l1.5,3.7C160.5,288.6,145.8,290.9,133.7,290.9z"/>
	</g>
	<g>
		<path d="M137.7,405.5c-30.6,0-55.5-34.3-55.5-76.5s24.9-76.5,55.5-76.5s55.5,34.3,55.5,76.5S168.3,405.5,137.7,405.5z
			 M137.7,257.5c-27.8,0-50.5,32.1-50.5,71.5s22.7,71.5,50.5,71.5s50.5-32.1,50.5-71.5S165.6,257.5,137.7,257.5z"/>
	</g>
	<g>
		<path d="M139.7,390.4c-24.5,0-44.5-27.5-44.5-61.3s20-61.3,44.5-61.3s44.5,27.5,44.5,61.3S164.3,390.4,139.7,390.4z M139.7,271.7
			c-22.3,0-40.5,25.7-40.5,57.3s18.2,57.3,40.5,57.3s40.5-25.7,40.5-57.3S162.1,271.7,139.7,271.7z"/>
	</g>
	<path class="st1" d="M143.7,370.5c0,0-16.5-29.5-10.5-59.5c0,0,22-12.3,35-8.2l5,57.2L143.7,370.5z"/>
	<path class="st1" d="M190.8,360.3c0,0,6.4,6.7-8.6,14.2s-31,8-31,8s-17.3-11.5,3.3-23.5S190.8,360.3,190.8,360.3z"/>
	<polygon class="st2" points="142.9,298 130.2,284.4 142.6,254 138.2,251.7 118.9,286 138.9,306.7 	"/>
	<polygon class="st2" points="175.9,302 188.6,288.4 176.2,258 180.6,255.7 199.9,290 179.9,310.7 	"/>
	<path class="st3" d="M159.9,300.4c-10.3,0.4-18.3,5.3-18.3,5.3s-2,41,13,53.3l25.7-6.7c0,0-9.7-34.3-1.7-46.3
		C178.6,306,177.2,299.7,159.9,300.4z"/>
	<path class="st2" d="M169.7,273.7l0.6,21l-3.6,0.1l0.3,7.7c0,0-3.7,8-13.8,0.6l-0.7-16c0,0-3-0.5-3.1-3.9c-0.1-3.4,1.5-1.9,1.5-1.9
		l0-6.9c-0.2-4.7,5.2-8.6,9.9-8.8h0C165.6,265.4,169.6,269,169.7,273.7z"/>
	<path class="st4" d="M159.9,308.4c0,0-1-6.7-6.7-6.7l0.1,3.4C153.4,305.1,155.9,309,159.9,308.4z"/>
	<path class="st4" d="M162.9,308c0,0-0.7-4.3,3.7-6.7l0.7,2C167.2,303.4,166.9,306.4,162.9,308z"/>
	<g>
		<path class="st4" d="M167.2,329c0.3,2.3-0.7,3.6-2.9,3.9c-2.1,0.2-3.3-0.9-3.6-3.1l0-0.3l2-0.2l0.1,0.5c0.1,1,0.6,1.3,1.3,1.2
			c0.8-0.1,1.1-0.5,1-1.8l-0.3-2.5c-0.3,0.8-0.9,1.3-1.8,1.4c-1.6,0.2-2.5-0.8-2.7-2.8l-0.3-2.5c-0.2-2.2,0.8-3.5,2.9-3.8
			s3.4,0.9,3.6,3L167.2,329z M164.6,324.6l-0.3-2.4c-0.1-1-0.6-1.3-1.3-1.2c-0.7,0.1-1.1,0.5-1,1.4l0.3,2.4c0.1,1,0.6,1.3,1.3,1.2
			C164.3,326,164.7,325.6,164.6,324.6z"/>
	</g>
	<path class="st3" d="M151.6,301l-8.3-7.7c0,0-7.7,8.7-8,15.3l8.3,9C143.6,317.7,151.9,311.4,151.6,301z"/>
	<polygon class="st3" points="171.2,303 180.6,296 187.6,306 173.9,316.7 	"/>
	<polygon class="st5" points="183.1,338.1 198.6,331.1 224.9,354.7 221.2,361.3 196.6,348.1 184.3,350.4 	"/>
	<path class="st6" d="M168.9,348.4c0,0,5.3-9.3,17.7-14.3c0,0,0.3,14,2.3,15s-14.7,9-14.7,9L168.9,348.4z"/>
	<path class="st2" d="M174.8,367.3c0.7,1.4,16-7,16-7l17.2,27.9l4.9-4.8l-14.4-37.8l-5.7-2.9l-16.4,4.4
		C176.5,347.1,170.7,359.6,174.8,367.3z"/>
	<path class="st4" d="M154.6,359c0,0,12.3-12.7,26-14.7c0,0-1,15.7,1.3,20C181.9,364.4,155.6,379.4,154.6,359z"/>
	<path class="st5" d="M138.2,251.7"/>
	<polygon class="st3" points="197.6,372 205.6,363.7 213,383.5 208.1,388.2 	"/>
	<path class="st3" d="M221.2,361.3l3.7-6.6l-12.7-11.3c0,0,0.3,4.3-5.3,10.3L221.2,361.3z"/>
	<path class="st7" d="M208.1,388.2l4.8,7.1c0,0,9-3,13-14c0,0-1.3-4-6.3,1.7c-5,5.7-6.6,0.4-6.6,0.4L208.1,388.2z"/>
	<path class="st7" d="M221.7,360.9l6.8,5.3c0,0,7.7-5.6,8.1-17.3c0,0-2.5-3.4-5.5,3.5c-3,6.9-6.1,2.4-6.1,2.4L221.7,360.9z"/>
	<path class="st2" d="M142.6,254c0,0,6.3-2.3,7.7-5c1.3-2.7-5-9.3-8.7-7.7c-3.7,1.7-3.3,10.3-3.3,10.3S138.9,256.4,142.6,254z"/>
	<path class="st2" d="M180.6,260c0,0,6.3-2.3,7.7-5c1.3-2.7-5-9.3-8.7-7.7c-3.7,1.7-3.3,10.3-3.3,10.3S176.9,262.4,180.6,260z"/>
	<path class="st4" d="M135.2,308.7c0,0,0-7.7,8-15.3l3,2.7c0,0-7.3,3.7-9.3,15L135.2,308.7z"/>
	<polygon class="st4" points="178.9,297.4 185.9,307 187.6,306 180.6,296 	"/>
	<path class="st8" d="M9.3,116.9c0,0-7.8-3.7-9.2-25.8S31.3,19.5,117.9,3.9S279.7,23,321.8,55.5c33.6,25.9-1,59.1-1,59.1L196.2,29.4
		L30.6,60.7L8,87.2L9.3,116.9z"/>
	<path class="st9" d="M10.2,116.3c0,0-19.8-33.5,26.1-72.3s158-59,245.8-11.8s38.7,82.4,38.7,82.4s-42.6-36-147.7-38.4
		C68,73.8,5.6,79.5,10.2,116.3z"/>
	<line class="st0" x1="10.2" y1="116.3" x2="151.2" y2="382.5"/>
	<line class="st0" x1="327.9" y1="70.7" x2="203.6" y2="335.4"/>
	<line class="st0" x1="9.9" y1="75.4" x2="182.2" y2="374.5"/>
	<path class="st1" d="M178.1,12.4c0.2,0.3,0.5,0.5,0.6,0.8c0.1,0.1-0.1,0.4-0.1,0.6c0,0.3-0.1,0.5-0.1,0.8c0.1,0.4,0.2,0.8,0.3,1.3
		c0.1,0.3,0,0.6-0.3,0.8c-0.2,0.1-0.3,0.4-0.4,0.6c-0.3,2.4-0.5,4.8,0,7.2c0.4,2.1,1.1,4.2,1.6,6.2c0.2,0.7,0.4,1.4,0.5,2.1
		c0.1,0.4-0.1,0.8-0.1,1.2c0,0.2,0,0.3,0,0.5c0.4,2.9,0.5,5.8,0,8.8c0,0.2-0.1,0.5-0.1,0.7c-0.1,0.6-0.2,1.2-0.2,1.9
		c0,0.9-0.3,1.8-0.5,2.7c-0.6,2.5-1.3,5.1-1.9,7.6c-0.5,2.1-0.3,4.1,0.2,6.2c0.2,1.1,0.4,2.2,0.3,3.3c-0.2,2.1-1.3,3.4-3.4,3.9
		c-1,0.2-2,0.3-3,0.3c-2.5,0-4.9-0.3-7.3-1.1c-0.2-0.1-0.3-0.1-0.5-0.2c-2.7-1.1-3.5-3.1-2.6-5.9c0.3-1.1,0.9-2.2,1.3-3.3
		c0.9-2.2,1.1-4.5,1-6.8c-0.1-2.4-0.2-4.9-0.2-7.3c0-0.6,0.2-1.2,0.3-1.7c0.1-0.4,0.1-0.9,0.1-1.4c0-2,0.3-3.9,0.8-5.8
		c0.3-1.2,0.8-2.4,1.2-3.6c0-0.1,0.1-0.2,0.1-0.2c-0.2-1.1,0.4-2,0.8-2.9c1-1.9,2-3.8,3-5.7c1-1.9,1.4-4,1.7-6.2
		c0-0.3,0.1-0.7,0.1-1c0.1-0.4,0-0.7-0.3-1c-0.1-0.1-0.2-0.4-0.1-0.6c0.2-0.4,0.4-0.8,0.6-1.3c0.1-0.2,0.2-0.4,0.1-0.6
		c-0.1-0.7,0-1,0.7-1.3c0,0,0.1,0,0.1-0.1C174.2,12,176.1,12.2,178.1,12.4z"/>
</g>
</svg>
