<?xml version="1.0" encoding="utf-8"?>
<!-- Generator: Adobe Illustrator 19.0.0, SVG Export Plug-In . SVG Version: 6.00 Build 0)  -->
<!DOCTYPE svg PUBLIC "-//W3C//DTD SVG 1.1//EN" "http://www.w3.org/Graphics/SVG/1.1/DTD/svg11.dtd">
<svg version="1.1" id="Layer_1" xmlns="http://www.w3.org/2000/svg" xmlns:xlink="http://www.w3.org/1999/xlink" x="0px" y="0px"
	 viewBox="0 0 306.7 268.9" style="enable-background:new 0 0 306.7 268.9;" xml:space="preserve">
<style type="text/css">
	.st0{fill:#0071BC;}
	.st1{fill:#3877E8;}
	.st2{fill:#D29F7A;}
	.st3{fill:#F5ED9B;}
	.st4{fill:#E7DE8E;}
	.st5{fill:#CCCCCC;}
	.st6{fill:#F9BD91;}
	.st7{fill:#E2C1AB;}
	.st8{fill:#603813;}
	.st9{fill:#C39070;}
	.st10{fill:#231F20;}
	.st11{fill:none;stroke:#231F20;stroke-miterlimit:10;}
	.st12{fill:#BEBDCB;}
	.st13{fill:#B3B3B3;}
	.st14{fill:#1A1A1A;}
	.st15{opacity:0.1;fill:#1A1A1A;}
	.st16{fill:#333333;}
	.st17{opacity:0.8;}
	.st18{fill:#FFFFFF;}
	.st19{opacity:0.9;fill:#D4131A;}
	.st20{fill:#F4DD21;}
</style>
<g>
	<polygon class="st0" points="0.2,221.2 16.3,204.9 286.9,204.9 306.7,221.6 	"/>
	<rect x="0" y="221.6" class="st1" width="306.7" height="47.3"/>
	<path class="st2" d="M232.6,163.8l1.2,4.8c0,0,7.9,0.5,10.1-1.6l-0.5-5L232.6,163.8z"/>
	<path class="st2" d="M219.6,161.2l-1,4.8c0,0-3,2.8-11.2,0.4l0.2-5.6L219.6,161.2z"/>
	<path class="st3" d="M233.9,168.5c0,0-0.5,11.2,0.2,14.4s1.6,18.1,0.6,23.5c0,0,4.4-2.5,7.5-1.5c0,0,3.8-21.1,3.5-26.2
		s-1.8-11.8-1.8-11.8S241.5,169.2,233.9,168.5z"/>
	<path d="M234.9,206.3c0,0-1.8,4-1.2,6.8l0.8,2l12.9,0.1c0,0,2.1-1.5,1.2-2.9s-5.2-5-6.2-7.4C242.3,204.9,239.4,203.5,234.9,206.3z"
		/>
	<path class="st3" d="M218.6,165.9l2.6,14.6l0.5,24.8c0,0-4-2.1-7-1.1l-7.4-37.9"/>
	<path d="M222.3,203.4c0,0,2.8,4.9,1.5,9.8l-10.9,2.1l-9-0.8c0,0-0.6-4.8,2.2-5.2s8.6-5.1,8.6-5.1L222.3,203.4z"/>
	<path class="st4" d="M211.6,122.4c0,0-4.4,9-5.9,21s-1,18.9-1,18.9s12.1,3.5,17.5-0.8l-0.1-9.4l3.1-4.6l4.4,17.6c0,0,13,1.1,19-3.4
		c0,0-4.1-25.8-4.1-26.1s1.5-13-2.4-17.4L211.6,122.4z"/>
	<path class="st3" d="M211.3,122.7c0,0,13.6,3.2,30.9-4.4c0,0-6.8-21.8-6.5-26.9c0,0-0.2-8-1.5-13.8s-8.2-9.4-13.8-9
		S205.8,68.5,203,69s-11.6,5.8-11.6,5.8l-0.1,13.9l7.9-5.5c0,0,6,10.1,6.6,14.1S211.3,122.7,211.3,122.7z"/>
	<circle class="st5" cx="141.2" cy="7.9" r="7.9"/>
	<path class="st2" d="M129.7,156.3c0,0,0.4,10.1,0.4,10.4s1.3,2.3,1.3,2.3l-0.5,14.7l10.5-1.4l-0.2-18.6l-0.8-7.1L129.7,156.3z"/>
	<path class="st2" d="M110.3,159.6c-0.1,0.2-1.6,18.6-1.6,18.6s11.6,0.9,11.5,0.7c-0.1-0.2-0.5-7.8-0.5-7.8l2.7-12.8L110.3,159.6z"
		/>
	<path class="st4" d="M108.6,112.3c0,0,19.9,2.2,26.9-1.2c0,0,7.2-0.5,6,44.9c0,0-7.4,3.9-15.9-1.4l0.8-6.3l-1.2-2l-1.2,14.2
		c0,0-15,1.2-19.4-0.4C104.6,160,104.6,116.9,108.6,112.3z"/>
	<path class="st3" d="M136,112.8l-3.8-21.7l1.7-9.8l8.6-2.3c0,0-4.7-12.7-6.5-14.3c-1.8-1.7-22.5-6.2-22.5-6.2l-0.6-0.9l-8.5-4.3
		c0,0-4.6,4.5-4,12.7c0.6,8.2-0.2,21,5.8,35.8l1.4,13C107.5,114.7,125.5,121.2,136,112.8z"/>
	<path d="M164.1,209.2l-1.8,5.3l-1.4,1.5v3.8h9c0,0,1.5-5.2-0.2-9.2S164.1,209.2,164.1,209.2z"/>
	<path class="st6" d="M161.2,164.9l-0.5,10c0,0,5.8,3.5,9.2,1c0,0,4-5.2,2.5-12.2L161.2,164.9z"/>
	<path class="st3" d="M169.6,175.4l0.2,35.3l-6.3-0.7l-4-22.5l1.3-12.7C160.7,174.9,167.6,177.6,169.6,175.4z"/>
	<path d="M198.1,209.2l1.6,5.3l1.2,1.5v3.8h-8.7c0,0-1.5-5.2,0.2-9.2C194.1,206.8,198.1,209.2,198.1,209.2z"/>
	<path class="st6" d="M195.9,164.9l0.5,10c0,0-5.3,3-8.7,0.5c0,0-1.5-4.2-3-11.7L195.9,164.9z"/>
	<path class="st3" d="M187.6,175.4l4.8,35.3l6.3-0.7l-1-22.5l-1.3-12.7C196.4,174.9,189.6,177.6,187.6,175.4z"/>
	<polygon class="st4" points="162.7,118.9 156.4,165.6 174.4,166.7 177.4,148.7 181.6,166.7 197.4,165.6 189.1,119.7 	"/>
	<path class="st3" d="M180.8,70.3l5.1-8.9l9,2l-2.1,13l-3.8,43.2c0,0-7.2,9.1-26.3-0.2l-1.5-25.1c0,0-6.2-18.4-7-22.2
		c-0.8-3.8,7.8-6.2,7.8-6.2l12,4.2L180.8,70.3z"/>
	<path class="st6" d="M194.9,63.4L194.6,45L183,23.4l-4.8,2.9l8.5,21.6l-0.9,13.5C185.9,61.4,189,66.9,194.9,63.4z"/>
	<path class="st7" d="M74.8,60.9"/>
	<path class="st6" d="M179,26.9l-4.6-4.1l-1.5-3.2v-2.8c0,0,3.2-3.5,4.4-3.1s0.9,1.2,0.9,1.2s0.8-0.2,1.2,0.5c0,0,1.2-0.2,1.8,1.2
		s2.8,3.5,2,7.2L179,26.9z"/>
	<path class="st6" d="M162.3,66.4c0,0-1.2-7.4-4.9-12.5l-7.2-28l-5.4,2.2l4.2,23.8l5.6,21.5c0,0,0.9,1.5,2.9,0.5
		S162.3,66.4,162.3,66.4z"/>
	<path class="st6" d="M169.5,50.2v15.7h2.4V71c0,0,2.7,5.3,9.2,0V60.3c0,0,2-0.4,2-2.7c0-2.3-2.3-1.2-2.3-1.2v-6.2H169.5z"/>
	<path class="st8" d="M168.8,49.8c0,0.4,0,0.8,0.1,1.1c0.1,0.3,0.2,1,0.6,1c-0.1-0.3,0.3-1.1,0.5-1.2c0.3-0.2,0.6-0.2,0.9-0.1
		c1,0,1.9,0.1,2.9,0.1c0.8,0,1.7,0,2.5,0.2c0.3,0.1,0.6,0.2,0.9,0.3c0.4,0.3,0.8,0.8,1.3,0.8c-0.1,0.6,0.1,1.7,0.1,1.7
		s0.8,0.9,1.4,0.7c-0.1,1.2-0.1,2.4,0,3.6c0.4,0,0.8-0.1,1.2-0.1c-0.3-0.3-0.2-0.9,0.1-1.2c0.3-0.3,0.7-0.4,1.1-0.3
		c0.3,0.1,0.6,0.3,0.6,0.6c1-1.5,1.4-3.5,1-5.3c-0.4-1.8-1.6-3.4-3.1-4.3c-1.1-0.6-2.4-0.8-3.7-0.8
		C177.2,46.7,168.6,45.7,168.8,49.8z"/>
	<g>
		<path class="st9" d="M131.6,45.3l-3.4,15.3l-2.3-0.5l-1.1,5c0,0-3.8,4.5-9-2l2.4-10.4c0,0-1.8-0.8-1.3-3s2.5-0.7,2.5-0.7l1.4-6.1
			L131.6,45.3z"/>
	</g>
	<path class="st8" d="M168.8,50c-0.1-1.9,1.3-4.5,4.2-4.8l-0.7,0.6c0,0,1.8-1.2,4.6-0.8l-1,0.5c0,0,3.4-0.7,5.8,0.4l-1.5,0.3
		c0,0,2.1-0.2,3.6,1.9c0,0-3.2-0.3-3.4,0.8C180.1,50.1,168.8,50,168.8,50z"/>
	<path class="st2" d="M203.6,51.2l1.3,15.6l2.4-0.2l0.4,5.1c0,0,3.1,5,9.2-0.8L216,60.3c0,0,1.9-0.6,1.7-2.8c-0.2-2.3-2.4-1-2.4-1
		l-0.5-6.2L203.6,51.2z"/>
	<path class="st10" d="M119,49.1l0.5,1.3c0,0,0.9-3.1,2.4-2.8l-0.2-3.4c0,0,5.7,3.2,9.1,1.8l-0.2,3.8c0,0,2.7-4.2-0.2-7.2
		c-2.8-3-9.3-5.3-12.5-0.1c-1.8,2.8-1.2,7-1.2,7S118.1,47.9,119,49.1z"/>
	<path class="st2" d="M133.8,81l5.8,10.7l6,1l3.1-26.3l2.4-7.9l1.9-4.3l-0.8-0.2l-1.6,2.2l0.9-5.8l-1-0.3l-0.5,1.3l-0.7-1.6h-1.3
		l-1,5.8c0,0-0.4,2.3-2.6,3.3l-1.3-4.6l-1.3-0.3c0,0,0.7,5.7,0.9,6.4s-0.5,3.2,1.2,5.5c0,0-0.3,9.7-1.4,13
		C142.4,79,138.5,76.1,133.8,81z"/>
	<path class="st3" d="M108.8,178.2c-0.2-0.7,2.7,24.7,2.7,24.7l-0.8,3.8c0,0,1.8-2.1,3.5-2.2c1.8-0.2,3.8,2.6,3.8,2.6l0.2-4
		l1.9-24.1L108.8,178.2z"/>
	<path d="M108,214.7c0,0,1.6,2.2,4.9,1.9s5-1.9,5-1.9v-7.8c0,0-0.4-2.7-3.9-2.6c-3.5,0.1-3.3,2.5-3.3,2.5S108.3,214.8,108,214.7z"/>
	<path class="st3" d="M131,183.8l2,23.6c0,0,2.9-4.3,7.6-2.6l0.9-22.4L131,183.8z"/>
	<path d="M133.1,207.3c0,0-2.7,1.6-1,7.6l15.4,0.4c0,0,0.5-3.5-3.2-4.2l-3.8-6.4C140.6,204.8,136.1,201.8,133.1,207.3z"/>
	<path class="st11" d="M135.6,107.8"/>
	<path class="st12" d="M136.1,32.4l1.1-7.3c0,0,4.5-7.6,13.8-2.2l3.7,6.8L136.1,32.4z"/>
	<path class="st13" d="M146.6,22c0,0-0.8-7.4-0.8-10.4c0.1-3,0.1-10.3-5.2-10.2c-5.3,0.1-3.6,6.6-2.8,8.7s2.4,13.6,2.4,13.6
		L146.6,22z"/>
	<path class="st2" d="M112.8,57.2c0,0-1.9,4.7-6.5,4.7c-4.6,0-1.7-8.8-1.7-8.8s2.8-4.8,5.2-7.1c2.5-5.5,11.1-13.8,19-16.4l3.4-2.7
		l4.4-7.2l3.4-3l3,0.2l2.4,2.3l0.9,1.8l-0.1,1c0,0-6.1,0.1-7.5,1.6c-1.4,1.5-3.1,6.5-3.1,6.5s-4.9,3.4-7.5,6.8
		c-2.6,3.4-9.8,12.6-12.8,15.2C114.2,53.5,112.8,57.2,112.8,57.2z"/>
	<ellipse transform="matrix(0.9914 -0.1306 0.1306 0.9914 -2.9449 19.2642)" cx="145.5" cy="32.1" rx="9.5" ry="6.9"/>
	<ellipse transform="matrix(0.9914 -0.1306 0.1306 0.9914 -3.0219 19.2789)" class="st12" cx="145.5" cy="32.7" rx="4.9" ry="3.6"/>
	<path class="st14" d="M203.6,51.2c0,0,0.4-3.3,3.4-5.9l-0.4,1.6c0,0,2.1-2,4.2-2.2l-0.6,1.4c0,0,1.9-1.4,4.5-1.1l-0.4,1.5
		c0,0,2.5-0.9,3.2,2s-0.2,7.9-0.2,7.9s-2.1-0.9-2.9,1.8l-1.4-6.6C213.1,51.4,208.8,50.4,203.6,51.2z"/>
	<path class="st2" d="M224.5,91.9l0.8,10.4l-16.6,20.4l3.2,3.9l20.6-18.9l2.5-13.2C235,94.4,233.8,91.9,224.5,91.9z"/>
	<polygon class="st4" points="192.9,73.9 191.6,88.4 195.1,86.2 	"/>
	<path class="st2" d="M208.6,122.7l-6.8,0.8l-2.8,4.2l3.2,5.5l4.5,2l5-8.6C211.9,126.5,211.9,121.9,208.6,122.7z"/>
	<path class="st2" d="M61.3,163.8l-1.2,4.8c0,0-7.9,0.5-10.1-1.6l0.5-5L61.3,163.8z"/>
	<path class="st2" d="M74.3,161.2l1,4.8c0,0,3,2.8,11.2,0.4l-0.2-5.6L74.3,161.2z"/>
	<path class="st3" d="M60.1,168.5c0,0,0.5,11.2-0.2,14.4s-1.6,18.1-0.6,23.5c0,0-4.4-2.5-7.5-1.5c0,0-3.8-21.1-3.5-26.2
		s1.8-11.8,1.8-11.8S52.5,169.2,60.1,168.5z"/>
	<path d="M59.1,206.3c0,0,1.8,4,1.2,6.8l-0.8,2l-12.9,0.1c0,0-2.1-1.5-1.2-2.9s5.2-5,6.2-7.4C51.7,204.9,54.6,203.5,59.1,206.3z"/>
	<path class="st3" d="M75.3,165.9l-2.6,14.6l-0.5,24.8c0,0,4-2.1,7-1.1l7.4-37.9"/>
	<path d="M71.7,203.4c0,0-2.8,4.9-1.5,9.8l10.9,2.1l9-0.8c0,0,0.6-4.8-2.2-5.2s-8.6-5.1-8.6-5.1L71.7,203.4z"/>
	<path class="st4" d="M82.3,122.4c0,0,4.4,9,5.9,21s1,18.9,1,18.9s-12.1,3.5-17.5-0.8l0.1-9.4l-3.1-4.6l-4.4,17.6c0,0-13,1.1-19-3.4
		c0,0,4.1-25.8,4.1-26.1s-1.5-13,2.4-17.4L82.3,122.4z"/>
	<path class="st3" d="M82.7,122.7c0,0-13.6,3.2-30.9-4.4c0,0,6.8-21.8,6.5-26.9c0,0,0.2-8,1.5-13.8s8.2-9.4,13.8-9S88.2,68.5,91,69
		s11.6,5.8,11.6,5.8l0.1,13.9l-7.9-5.5c0,0-6,10.1-6.6,14.1S82.7,122.7,82.7,122.7z"/>
	<path class="st2" d="M90.4,51.2L89,66.8l-2.4-0.2l-0.4,5.1c0,0-3.1,5-9.2-0.8L78,60.3c0,0-1.9-0.6-1.7-2.8s2.4-1,2.4-1l0.5-6.2
		L90.4,51.2z"/>
	<path class="st14" d="M90.4,51.2c0,0-0.4-3.3-3.4-5.9l0.4,1.6c0,0-2.1-2-4.2-2.2l0.6,1.4c0,0-1.9-1.4-4.5-1.1l0.4,1.5
		c0,0-2.5-0.9-3.2,2s0.2,7.9,0.2,7.9s2.1-0.9,2.9,1.8l1.4-6.6C80.8,51.4,85.2,50.4,90.4,51.2z"/>
	<path class="st2" d="M69.5,91.9l-0.8,10.4l16.6,20.4l-3.2,3.9l-20.6-18.9L59,94.4C59,94.4,60.2,91.9,69.5,91.9z"/>
	<path class="st2" d="M85.3,122.7l6.8,0.8l2.8,4.2l-3.2,5.5l-4.5,2l-5-8.6C82.1,126.5,82.1,121.9,85.3,122.7z"/>
	<path class="st4" d="M100.7,73.4c0,0,0.1,11.1,1.4,15.1l-3.2-3.2l0.2-12.3L100.7,73.4z"/>
	<path class="st14" d="M85.8,50.4c0,0-2.6,1.6-2.8,5.1c0,0-1.4-1.8-0.4-3.4c0,0-1.9,1.2-2,3.8c-0.1,2.7-0.2-0.2-0.2-0.2
		s-0.8-3.3,0.5-5L85.8,50.4z"/>
	<path class="st14" d="M85.1,50.4c0,0,2.6,1.6,2.8,5.1c0,0,1.4-1.8,0.4-3.4c0,0,1.9,1.2,2,3.8c0.1,2.7,0.2-0.2,0.2-0.2
		s0.8-3.3-0.5-5L85.1,50.4z"/>
	<path class="st15" d="M65.5,92.2c0,0-1,5.9-0.9,7.9s1.5,0.5,1.2,2s-1,4.4,0.4,4.6s11,9.2,11,9.2l0.4-3l-8.9-10.6l0.8-10.4
		C69.5,91.9,66.1,91.9,65.5,92.2z"/>
	<g>
		<path class="st3" d="M185.3,74.5c1.5,0.2,2.6,1.7,2.3,3.2c-0.2,1.5-1.7,2.6-3.2,2.3c-1.5-0.2-2.6-1.7-2.3-3.2
			C182.4,75.3,183.8,74.2,185.3,74.5L185.3,74.5z"/>
		<path class="st3" d="M185.3,74.6c-1.4-0.2-2.8,0.8-3,2.2c-0.2,1.4,0.8,2.8,2.2,3c1.4,0.2,2.8-0.8,3-2.2
			C187.7,76.2,186.7,74.9,185.3,74.6z"/>
		<path class="st16" d="M187.4,77.5l-0.5-0.1c0-0.1,0-0.1,0-0.2c-0.1-0.3-0.2-0.6-0.4-0.7l0,0l0,0c0,0,0,0,0,0c0-0.1,0-0.2-0.1-0.3
			l0.6-0.5C187.3,76.3,187.5,76.9,187.4,77.5z"/>
		<path class="st16" d="M185.3,74.7c0.7,0.1,1.2,0.5,1.6,1l-0.6,0.5c-0.1,0-0.2-0.1-0.2-0.1l0-0.2l0,0c0,0-0.1,0-0.1-0.1
			c0,0,0,0,0,0l0-0.1l0,0l0-0.1l0,0c0,0-0.1,0-0.1,0c0,0-0.1,0-0.1,0l0,0l0,0l0,0.1c0,0,0,0,0,0c0,0,0,0,0,0.1l0,0c0,0,0,0,0.1,0.1
			l0,0c0,0,0,0,0,0l0,0l0,0l0,0l0,0c0,0,0,0.1,0,0.1l0,0c0,0-0.1,0-0.1,0c0,0,0,0.1,0,0.1c0,0,0,0,0,0.1l0,0c0,0.1,0.1,0.1,0.1,0.1
			c0,0,0,0,0-0.1l0,0c0-0.1,0-0.1,0,0l0,0l0,0l0-0.1c0.1,0,0.1,0.1,0.2,0.1c0,0.1,0.1,0.3,0.1,0.4c-0.2,0.1-0.3,0.3-0.4,0.5
			c-0.2,0.3-0.3,0.6-0.4,1l0,0l0,0c0,0,0,0,0-0.1c0,0,0,0,0,0l0,0l0,0c0,0,0,0,0,0c0,0,0,0,0,0l0,0l0,0c0,0,0-0.1,0-0.1
			c0,0-0.1-0.1-0.1-0.1c0,0,0,0,0,0c0,0,0,0,0-0.1c0,0,0,0,0,0l0,0c0,0-0.1,0-0.1,0l-0.1,0.1l-0.1-0.1l0-0.1c0,0,0,0,0,0l0,0l0,0
			c0,0,0-0.1,0.1-0.1l0,0l0,0l-0.1,0l0,0l-0.1,0l0,0c0,0,0,0,0-0.1c0-0.1,0-0.1,0.1-0.1c0,0,0.1,0,0.1,0c0.1,0,0,0,0.1,0l0,0.1l0,0
			c0,0,0,0,0,0l0-0.1c0,0,0,0,0,0c0,0,0,0,0,0l0,0c0,0,0,0,0,0c0,0,0,0,0,0c0,0,0,0,0,0l0,0l0,0l0,0l0,0c0,0,0,0,0.1-0.1l0.1,0.1
			c0,0,0.1-0.1,0.1-0.1c0,0,0,0,0-0.1l0,0l0,0l0.1,0c0,0,0,0-0.1,0.1c0,0,0,0.1,0,0.1l0,0c0,0,0,0,0.1,0c0,0,0,0,0,0
			c0,0,0.1,0,0.1,0c0,0,0-0.1,0-0.1c0,0,0.1,0,0.1-0.1c0,0,0-0.1,0-0.1c0,0,0-0.1,0-0.1c0,0,0-0.1,0-0.1l0,0l0,0l0,0
			c0,0,0-0.1,0-0.1c0,0,0,0,0,0c0,0-0.1,0-0.1,0l0,0l0,0l0,0c0,0.1-0.1,0.1-0.1,0.2l0,0l0,0.1l0,0c0,0,0-0.1,0-0.1c0,0,0,0,0-0.1
			l0,0l0,0c0,0,0-0.1,0-0.1c0,0,0,0,0-0.1l0.1,0l0,0l0,0c0,0,0.1-0.1,0.1-0.1c0,0,0.1,0,0.1,0c0,0,0,0,0,0l0-0.1l-0.1,0c0,0,0,0,0,0
			c0,0,0-0.1,0-0.1c0,0,0-0.1,0-0.1l0,0c0,0-0.1,0,0,0.1c0,0,0,0.1-0.1,0l0,0l0,0c0,0,0,0-0.1,0l-0.1,0c0,0,0,0-0.1,0l-0.1,0l0-0.1
			c0,0,0,0,0,0l0,0c0,0,0,0,0-0.1c0,0,0-0.1,0-0.1c-0.1,0-0.3-0.1-0.3-0.2l0,0c0,0-0.1-0.1-0.1-0.1l0,0c0,0-0.1,0-0.1,0
			c0,0-0.1,0.1-0.1,0.1c0,0,0,0,0,0.1l0,0c0,0,0,0.1,0,0.1l0,0c0,0,0,0,0,0l0,0l0,0l0,0l0,0l0,0.1c0,0-0.1,0-0.1,0.1c0,0,0,0,0,0.1
			c0,0,0,0,0,0.1l0.1,0.1c0,0,0,0,0,0c0,0,0,0,0,0c0,0,0,0,0,0c0,0,0,0,0,0c0,0,0,0-0.1,0c0,0-0.1,0-0.1,0l0,0c0,0,0,0-0.1,0
			l-0.5-0.6C184,74.8,184.6,74.6,185.3,74.7z"/>
		<path class="st16" d="M184.7,78l0,0.1c0,0,0,0.1,0,0.1c0,0,0,0.1,0,0.1l0,0l0,0c0,0-0.1,0.1-0.1,0.1c0,0,0,0.1,0,0.1l0,0
			c0,0,0,0.1-0.1,0.1c-0.3-0.1-0.6-0.2-0.9-0.4c0-0.1,0-0.2-0.1-0.3c0.1,0,0.2,0,0.4,0c0.1,0,0.2-0.1,0.3-0.2l0.1-0.1l0-0.1
			l-0.2-0.3l-0.1,0.1c0,0-0.1,0.1-0.2,0.1c-0.1,0-0.1,0-0.2,0c0,0-0.1,0-0.1,0c0-0.3,0-0.6,0.1-0.8c0,0,0.1,0,0.1,0
			c0.1,0,0.1,0,0.2,0.1c0.1,0,0.1,0.1,0.1,0.1l0,0.1l0.4-0.3l0-0.1c-0.1-0.1-0.2-0.2-0.3-0.3c-0.1-0.1-0.2-0.1-0.3-0.1
			c0-0.1,0.1-0.2,0.1-0.3c0.1,0,0.1,0,0.2-0.1c0.1,0,0.1,0,0.1,0c0.1,0,0.2,0,0.2,0c0,0,0,0,0,0c0,0.1,0,0.2,0,0.2
			c0.1,0.1,0.1,0.2,0,0.3c0,0.1-0.1,0.2-0.1,0.3l0,0c0,0,0,0.1,0,0.1c0,0.1,0,0.1,0,0.2c0,0,0,0.1,0,0.1c0,0.1,0,0.1,0,0.1
			c0-0.1,0-0.1,0-0.2l0,0l0-0.1l0,0c0,0,0,0,0,0c0,0,0,0.1,0,0.1c0,0,0,0.1,0,0.1l0,0.1l0,0.1c0,0.1,0.1,0.2,0.2,0.2l0,0.1
			c0,0,0,0.1,0,0.1l0,0c0,0,0,0,0.1,0.1c0,0,0,0,0,0l0,0.1l0,0l-0.1,0c0,0-0.1,0-0.1,0c0,0.1,0,0.1-0.1,0.1
			C184.7,77.9,184.7,77.9,184.7,78z"/>
		<path class="st16" d="M183.4,75.2l0.4,0.6c-0.1,0.1-0.1,0.2-0.2,0.3c-0.2,0-0.4,0.1-0.6,0.2c-0.2,0.1-0.3,0.3-0.3,0.5l-0.3,0
			C182.6,76.1,182.9,75.6,183.4,75.2z"/>
		<path class="st3" d="M183.4,76.9l-0.2,0c0-0.1,0.1-0.2,0.2-0.2c0,0,0.1,0,0.1-0.1C183.5,76.7,183.4,76.8,183.4,76.9z"/>
		<path class="st3" d="M183.4,77.4C183.4,77.3,183.3,77.3,183.4,77.4c-0.1-0.2-0.2-0.2-0.2-0.3l0.2,0
			C183.4,77.2,183.4,77.3,183.4,77.4z"/>
		<path class="st16" d="M182.4,76.9l0.3,0c0,0.2,0,0.4,0.2,0.6c0.1,0.2,0.3,0.3,0.5,0.3c0,0.1,0,0.2,0.1,0.3l-0.6,0.5
			C182.5,78.2,182.3,77.5,182.4,76.9z"/>
		<path class="st16" d="M184.5,79.7c-0.7-0.1-1.2-0.5-1.6-1l0.6-0.5c0.3,0.2,0.6,0.3,0.9,0.4c0,0,0,0,0,0.1l0,0c0,0,0,0.1,0,0.2l0,0
			l0,0l0,0l0,0c0,0,0,0,0.1,0c0,0,0,0,0-0.1l0,0l0,0l0,0c0,0,0.1-0.1,0.1-0.1l0,0l0,0c0,0,0,0,0,0c0,0,0,0,0,0
			c0.4,0.1,0.8,0.1,1.3-0.1l0.5,0.6C185.9,79.6,185.2,79.8,184.5,79.7z"/>
		<path class="st16" d="M186.5,79.2l-0.5-0.6c0.1-0.2,0.2-0.3,0.2-0.5l0.3,0c0,0,0,0,0,0c0,0,0,0.1,0,0.1l0,0.1l0.4,0.1l0-0.1
			c0-0.3,0-0.5,0-0.8l0.4,0.1C187.3,78.3,186.9,78.8,186.5,79.2z"/>
		<path class="st16" d="M183.8,76.2c0.2,0,0.4,0.2,0.5,0.3l-0.2,0.2c-0.1-0.1-0.2-0.2-0.4-0.2c-0.3,0-0.5,0.2-0.6,0.4
			c0,0.3,0.2,0.5,0.4,0.6c0.1,0,0.3,0,0.4-0.1l0.2,0.2c-0.2,0.1-0.4,0.2-0.6,0.2c-0.4-0.1-0.8-0.5-0.7-0.9
			C182.9,76.5,183.3,76.1,183.8,76.2L183.8,76.2z"/>
		<path class="st16" d="M186.5,76.6c-0.4,0.2-0.8,0.8-0.9,1.5l0.3,0c0-0.1,0-0.1,0.1-0.2l0.7,0.1c0,0.1,0,0.2,0,0.2l0.3,0
			C187,77.6,186.8,76.9,186.5,76.6L186.5,76.6z"/>
		<path class="st16" d="M185.6,78.3L185.6,78.3C185.6,78.3,185.5,78.2,185.6,78.3l0.4,0l0-0.1c0,0,0-0.1,0-0.1c0,0,0,0,0,0l0.1,0
			c-0.1,0.2-0.1,0.3-0.2,0.5c-0.3,0.1-0.7,0.1-1,0.1c0,0,0,0,0.1,0c0,0,0,0,0,0c0,0,0,0,0,0l0,0c0,0,0.1-0.1,0.1-0.1
			c0,0,0.1,0,0.1,0c0,0,0.1,0,0.1,0c0,0,0,0,0,0c0,0,0,0,0,0l0,0l0,0C185.5,78.4,185.5,78.4,185.6,78.3L185.6,78.3
			C185.6,78.3,185.6,78.3,185.6,78.3z"/>
		<path class="st3" d="M185.3,75.4L185.3,75.4c0,0.1,0,0.1,0,0.2c0,0,0,0.1,0.1,0.1c0.1,0.1,0.2,0.1,0.2,0l0-0.1c0,0,0-0.1,0-0.1
			c0,0,0-0.1-0.1-0.1C185.4,75.3,185.3,75.3,185.3,75.4z"/>
		<path class="st3" d="M185.1,75.4l0.1-0.1l0-0.1c0,0,0,0-0.1,0c0,0-0.1,0.1-0.1,0.1L185.1,75.4C185.1,75.4,185.1,75.4,185.1,75.4z"
			/>
		<path class="st3" d="M186.4,77.2c-0.1,0.1-0.2,0.2-0.3,0.4l0.4,0.1C186.5,77.4,186.5,77.3,186.4,77.2L186.4,77.2z"/>
		<path class="st3" d="M186.4,77.3c0,0-0.1,0.1-0.1,0.2l0.2,0C186.4,77.5,186.4,77.4,186.4,77.3L186.4,77.3z"/>
	</g>
	<g>
		<path class="st3" d="M132.2,71.1c1.5,0.4,2.4,2,2,3.4c-0.4,1.5-2,2.4-3.4,2c-1.5-0.4-2.4-2-2-3.4
			C129.2,71.6,130.7,70.7,132.2,71.1L132.2,71.1z"/>
		<path class="st3" d="M132.2,71.3c-1.4-0.4-2.8,0.4-3.2,1.8c-0.4,1.4,0.4,2.8,1.8,3.2c1.4,0.4,2.8-0.4,3.2-1.8
			S133.6,71.7,132.2,71.3z"/>
		<path class="st16" d="M133.9,74.4l-0.4-0.1c0-0.1,0-0.1,0-0.2c0-0.3-0.1-0.6-0.3-0.8l0,0l0,0c0,0,0,0-0.1,0c0-0.1,0-0.2,0-0.3
			l0.7-0.4C134,73.2,134.1,73.8,133.9,74.4z"/>
		<path class="st16" d="M132.1,71.4c0.7,0.2,1.2,0.6,1.5,1.1l-0.7,0.4c-0.1-0.1-0.2-0.1-0.2-0.2l0.1-0.2l0,0c0,0-0.1,0-0.1-0.1
			c0,0,0,0,0-0.1l0-0.1l0,0l0-0.1l0,0c0,0-0.1,0-0.1,0c0,0-0.1,0-0.1,0l0,0l0,0l0,0c0,0,0,0,0,0c0,0,0,0,0,0.1l0,0c0,0,0,0,0.1,0.1
			l0,0c0,0,0,0,0,0l0,0l0,0l0,0l0,0c0,0,0,0.1,0,0.1l0,0c0,0-0.1,0-0.1,0c0,0,0,0.1,0,0.1c0,0,0,0.1,0,0.1l0,0c0,0.1,0,0.1,0.1,0.1
			c0,0,0,0,0-0.1l0,0c0-0.1,0-0.1,0,0l0,0l0,0l0-0.1c0.1,0,0.1,0.1,0.2,0.1c0,0.1,0,0.3,0,0.4c-0.2,0.1-0.3,0.3-0.5,0.5
			c-0.2,0.3-0.4,0.6-0.5,1l0,0l0,0c0,0,0-0.1,0-0.1c0,0,0,0,0,0l0,0l0,0c0,0,0,0,0,0c0,0,0,0,0,0l0,0l0,0c0,0,0-0.1,0-0.1
			c0,0-0.1-0.1-0.1-0.1c0,0,0,0,0-0.1c0,0,0,0,0-0.1c0,0,0,0,0,0l0,0c0,0-0.1,0-0.1,0l-0.1,0l-0.1-0.1l0-0.1c0,0,0,0,0,0l0,0l0,0
			c0,0,0-0.1,0.1,0l0,0l0,0l-0.1,0l0,0l-0.1,0l0,0c0,0,0,0,0-0.1c0-0.1,0-0.1,0.1-0.1c0,0,0.1,0,0.1,0c0.1,0,0,0,0.1,0l0,0.1l0,0
			c0,0,0,0,0,0l0-0.1c0,0,0,0,0,0c0,0,0,0,0,0l0,0c0,0,0,0,0,0c0,0,0,0,0,0c0,0,0,0,0,0l0,0l0,0l0,0l0,0c0,0,0,0,0.1,0l0.1,0.1
			c0,0,0.1,0,0.1-0.1c0,0,0,0,0-0.1l0,0l0,0l0.1,0c0,0,0,0-0.1,0.1c0,0,0,0.1,0,0.1l0,0c0,0,0,0,0.1,0.1c0,0,0,0,0,0
			c0,0,0.1,0,0.1,0c0,0,0-0.1,0-0.1c0,0,0.1,0,0.1-0.1c0,0,0-0.1,0-0.1c0,0,0-0.1,0-0.1c0,0,0,0,0.1-0.1l0,0l0,0l0,0
			c0,0,0-0.1,0-0.1c0,0,0,0,0,0c0,0-0.1-0.1-0.1,0l0,0l0,0l0,0c0,0.1-0.1,0.1-0.1,0.1l0,0l0,0.1l0,0c0,0,0-0.1,0-0.1c0,0,0,0,0,0
			l0,0l0,0c0,0,0-0.1,0-0.1c0,0,0,0,0-0.1l0.1,0l0,0l0,0c0,0,0.1-0.1,0.1-0.1c0,0,0.1,0,0.1,0c0,0,0,0,0,0l0-0.1l-0.1,0c0,0,0,0,0,0
			c0,0,0-0.1,0-0.1c0,0,0.1,0,0-0.1l0,0c0,0-0.1,0,0,0.1c0,0,0,0-0.1,0l0,0l0,0c0,0,0,0-0.1,0l-0.1,0c0,0,0,0-0.1,0l-0.1,0l0-0.1
			c0,0,0,0,0,0l0,0c0,0,0,0,0-0.1c0,0,0-0.1,0-0.1c-0.1,0-0.3-0.1-0.3-0.2l0,0c0,0-0.1-0.1-0.1-0.1l0,0c0,0-0.1,0-0.1,0
			c0,0-0.1,0.1-0.1,0c0,0,0,0,0,0.1l0,0c0,0,0,0.1,0,0.1l0,0c0,0,0,0,0,0l0,0l0,0l0,0l0,0l0,0.1c0,0-0.1,0-0.1,0c0,0,0,0,0,0.1
			c0,0,0,0.1,0,0.1l0,0.1c0,0,0,0,0,0c0,0,0,0,0,0c0,0,0,0,0,0c0,0,0,0,0,0c0,0,0,0-0.1,0c0,0-0.1,0-0.1,0l0,0c0,0,0,0-0.1,0
			l-0.4-0.7C130.8,71.3,131.5,71.2,132.1,71.4z"/>
		<path class="st16" d="M131.2,74.5l0,0.1c0,0,0,0.1,0,0.1c0,0,0,0.1,0,0.1l0,0l0,0c0,0-0.1,0.1-0.1,0.1c0,0,0,0.1,0,0.1l0,0
			c0,0,0,0.1-0.1,0.1c-0.3-0.1-0.6-0.3-0.9-0.5c0-0.1,0-0.2,0-0.3c0.1,0,0.2,0,0.4,0c0.1,0,0.2-0.1,0.3-0.1l0.1,0l0-0.1l-0.2-0.3
			l-0.1,0c-0.1,0-0.1,0.1-0.2,0.1c-0.1,0-0.1,0-0.2,0c0,0-0.1,0-0.1,0c0-0.3,0.1-0.5,0.2-0.8c0,0,0.1,0,0.1,0c0.1,0,0.1,0,0.2,0.1
			c0,0,0.1,0.1,0.1,0.1l0,0.1l0.4-0.2l0-0.1c-0.1-0.1-0.1-0.2-0.2-0.3c-0.1-0.1-0.2-0.1-0.3-0.2c0.1-0.1,0.1-0.2,0.2-0.2
			c0.1,0,0.2,0,0.2,0c0.1,0,0.1,0,0.1,0c0.1,0,0.2,0,0.2,0c0,0,0,0,0,0c0,0.1,0,0.2-0.1,0.2c0.1,0.1,0,0.2,0,0.3
			c0,0-0.1,0.2-0.1,0.3l0,0c0,0,0,0.1,0,0.1c0,0.1,0,0.1,0,0.2c0,0,0,0.1,0,0.1c0,0.1,0,0.1,0,0.1c0-0.1,0-0.1,0-0.2l0,0l0-0.1l0,0
			c0,0,0,0,0,0c0,0,0,0.1,0,0.1c0,0,0,0.1,0,0.1l0,0.1l0,0.1c0,0.1,0.1,0.2,0.2,0.2l0,0.1c0,0,0,0.1,0,0.1l0,0c0,0,0,0,0,0.1
			c0,0,0,0,0,0l0,0.1l0,0l-0.1,0c0,0-0.1,0-0.1,0c0,0.1-0.1,0.1-0.1,0.1C131.1,74.4,131.2,74.5,131.2,74.5z"/>
		<path class="st16" d="M130.2,71.7l0.4,0.7c-0.1,0.1-0.1,0.2-0.2,0.3c-0.2,0-0.4,0-0.6,0.1c-0.2,0.1-0.3,0.3-0.4,0.5l-0.3-0.1
			C129.2,72.5,129.7,72,130.2,71.7z"/>
		<path class="st3" d="M130,73.4l-0.2-0.1c0-0.1,0.1-0.2,0.2-0.2c0,0,0.1,0,0.1,0C130.1,73.2,130,73.3,130,73.4z"/>
		<path class="st3" d="M129.9,73.8C129.9,73.7,129.9,73.7,129.9,73.8c-0.1-0.2-0.1-0.3-0.1-0.3l0.2,0.1
			C130,73.6,129.9,73.7,129.9,73.8z"/>
		<path class="st16" d="M129,73.2l0.3,0.1c0,0.2,0,0.4,0.1,0.6c0.1,0.2,0.3,0.3,0.5,0.4c0,0.1,0,0.2,0,0.3l-0.7,0.4
			C129,74.5,128.9,73.8,129,73.2z"/>
		<path class="st16" d="M130.8,76.2c-0.7-0.2-1.2-0.6-1.5-1.2l0.7-0.4c0.3,0.2,0.5,0.4,0.8,0.5c0,0,0,0,0,0.1l0,0c0,0,0,0.1-0.1,0.2
			l0,0l0,0l0,0l0,0c0,0,0,0,0.1,0c0,0,0,0,0.1,0l0,0l0,0l0,0c0,0,0.1-0.1,0.1-0.1l0,0l0,0c0,0,0,0,0,0c0,0,0,0,0,0
			c0.4,0.1,0.8,0.1,1.3,0.1l0.4,0.7C132.1,76.3,131.5,76.4,130.8,76.2z"/>
		<path class="st16" d="M132.8,76l-0.4-0.7c0.1-0.1,0.2-0.3,0.3-0.5l0.3,0.1c0,0,0,0,0,0c0,0,0,0.1,0,0.1l0,0.1l0.4,0.1l0-0.1
			c0.1-0.3,0.1-0.5,0.1-0.8l0.4,0.1C133.7,75.2,133.3,75.7,132.8,76z"/>
		<path class="st16" d="M130.4,72.7c0.2,0.1,0.4,0.2,0.5,0.4l-0.3,0.1c-0.1-0.1-0.2-0.2-0.3-0.3c-0.3-0.1-0.6,0.1-0.6,0.4
			c-0.1,0.3,0.1,0.6,0.4,0.6c0.1,0,0.3,0,0.4-0.1l0.1,0.3c-0.2,0.1-0.4,0.2-0.6,0.1c-0.4-0.1-0.7-0.6-0.6-1
			C129.6,72.8,130,72.6,130.4,72.7L130.4,72.7z"/>
		<path class="st16" d="M133.1,73.4c-0.4,0.1-0.8,0.7-1.1,1.4l0.3,0.1c0-0.1,0-0.1,0.1-0.2l0.7,0.2c0,0.1,0,0.2,0,0.2l0.3,0.1
			C133.5,74.4,133.4,73.7,133.1,73.4L133.1,73.4z"/>
		<path class="st16" d="M132,74.9L132,74.9C132,74.9,132,74.9,132,74.9l0.4,0.1l0-0.1c0,0,0-0.1,0-0.1c0,0,0,0,0,0l0.1,0
			c-0.1,0.2-0.2,0.3-0.3,0.4c-0.4,0.1-0.7,0.1-1,0c0,0,0.1,0,0.1,0c0,0,0,0,0,0c0,0,0,0,0,0l0,0c0,0,0.1-0.1,0.1,0c0,0,0.1,0,0.1,0
			c0,0,0.1,0,0.1,0c0,0,0,0,0,0c0,0,0,0,0,0l0,0l0,0C131.9,75,131.9,75,132,74.9L132,74.9C132,75,132,75,132,74.9z"/>
		<path class="st3" d="M132,72L132,72c0,0.1,0,0.1,0,0.2c0,0,0,0.1,0,0.1c0.1,0.1,0.1,0.1,0.2,0.1l0-0.1c0,0,0-0.1,0-0.1
			c0,0,0-0.1,0-0.2C132.1,72,132.1,72,132,72z"/>
		<path class="st3" d="M131.9,72.1L132,72l0.1-0.1c0,0,0,0-0.1-0.1c0,0-0.1,0.1-0.1,0.1L131.9,72.1C131.9,72,131.9,72.1,131.9,72.1z
			"/>
		<path class="st3" d="M132.9,74c-0.1,0.1-0.2,0.2-0.3,0.4l0.4,0.1C133,74.2,133,74.1,132.9,74L132.9,74z"/>
		<path class="st3" d="M132.9,74.1c0,0-0.1,0.1-0.1,0.2l0.2,0C132.9,74.2,132.9,74.1,132.9,74.1L132.9,74.1z"/>
	</g>
	<g class="st17">
		<path class="st3" d="M110.3,152.2c1.5,0.1,2.7,1.4,2.6,3s-1.4,2.7-3,2.6s-2.7-1.4-2.6-3C107.4,153.3,108.8,152.1,110.3,152.2
			L110.3,152.2z"/>
		<path class="st3" d="M110.3,152.4c-1.4-0.1-2.7,1-2.8,2.4c-0.1,1.4,1,2.7,2.4,2.8c1.4,0.1,2.7-1,2.8-2.4S111.7,152.5,110.3,152.4z
			"/>
		<path class="st16" d="M112.6,155.1l-0.5,0c0-0.1,0-0.1,0-0.2c-0.1-0.3-0.3-0.6-0.4-0.7l0,0l0,0c0,0,0,0,0,0c0-0.1-0.1-0.2-0.1-0.3
			l0.6-0.5C112.4,153.8,112.6,154.5,112.6,155.1z"/>
		<path class="st16" d="M110.3,152.5c0.7,0,1.3,0.4,1.7,0.8l-0.6,0.5c-0.1,0-0.2-0.1-0.3-0.1l0-0.2l0,0c0,0-0.1,0-0.1-0.1
			c0,0,0,0,0,0l0-0.1l0,0l-0.1-0.1l0,0c0,0-0.1,0-0.1,0c0,0-0.1,0-0.1,0l0,0l0,0l0,0.1c0,0,0,0,0,0c0,0,0,0,0,0l0,0c0,0,0,0,0.1,0.1
			l0,0c0,0,0,0,0,0l0,0l0,0l0,0l0,0c0,0,0,0.1,0,0.1l0,0c0,0-0.1,0-0.1,0c0,0,0,0.1,0,0c0,0,0.1,0,0.1,0.1l0,0
			c0,0.1,0.1,0.1,0.1,0.1c0,0,0,0,0-0.1l0,0c0-0.1,0-0.1,0,0l0,0l0,0l0-0.1c0.1,0,0.1,0.1,0.2,0.1c0,0.1,0.1,0.3,0.1,0.4
			c-0.2,0.1-0.3,0.3-0.4,0.6c-0.1,0.3-0.2,0.6-0.3,1l0,0l0,0c0,0,0,0,0-0.1c0,0,0,0,0,0l0,0l0,0c0,0,0,0,0,0c0,0,0,0,0,0l0,0l0,0
			c0,0,0-0.1,0-0.1c0,0-0.1-0.1-0.1-0.1c0,0,0,0,0,0c0,0,0,0,0-0.1c0,0,0,0,0,0l0,0c0,0-0.1,0-0.1,0l-0.1,0.1l-0.1-0.1l0-0.1
			c0,0,0,0,0,0l0,0l0,0c0,0,0-0.1,0.1-0.1l0,0l0,0l-0.1,0l0,0l-0.1,0l0,0c0,0,0,0,0-0.1c0-0.1,0-0.1,0.1-0.1c0,0,0.1,0,0.1,0
			c0.1,0,0,0,0.1,0l0,0.1l0,0c0,0,0,0,0,0l0-0.1c0,0,0,0,0,0c0,0,0,0,0,0l0,0c0,0,0,0,0,0c0,0,0,0,0,0c0,0,0,0,0,0l0,0l0,0l0,0l0,0
			c0,0,0,0,0.1-0.1l0.1,0c0,0,0.1-0.1,0.1-0.1c0,0,0,0,0-0.1l0,0l0,0l0.1,0c0,0,0,0,0,0.1c0,0,0,0.1,0,0.1l0,0c0,0,0,0,0.1,0
			c0,0,0,0,0,0c0,0,0,0,0.1,0c0,0,0-0.1,0-0.1c0,0,0.1,0,0.1-0.1c0,0,0-0.1,0-0.1c0,0,0-0.1,0-0.1c0,0,0-0.1,0-0.1l0,0l0,0l0,0
			c0,0,0-0.1-0.1-0.1c0,0,0,0,0,0c0,0-0.1,0-0.1,0l0,0l0,0l0,0c0,0.1,0,0.1-0.1,0.2l0,0l0,0.1l0,0c0,0,0-0.1,0-0.1c0,0,0-0.1,0-0.1
			l-0.1,0l0,0c0,0,0-0.1,0-0.1c0,0,0,0,0-0.1l0.1,0l0,0l0,0c0,0,0.1-0.1,0.1-0.1c0,0,0.1,0,0.1,0c0,0,0-0.1,0,0l0-0.1l-0.1,0
			c0,0,0,0,0,0c0,0-0.1-0.1,0-0.1c0,0,0-0.1,0-0.1l0,0c0,0-0.1,0.1,0,0.1c0,0,0,0.1-0.1,0l0,0l0,0c0,0-0.1,0-0.1,0l-0.1,0
			c0,0,0,0-0.1,0l-0.1,0l0-0.1c0,0,0,0,0,0l0,0c0,0,0,0,0-0.1c0,0,0-0.1,0-0.1c-0.1,0-0.3,0-0.3-0.1l0,0c0,0-0.1-0.1-0.1-0.1l0,0
			c0,0-0.1,0-0.1,0c0,0-0.1,0.1-0.1,0.1c0,0,0,0,0,0.1l0,0c0,0,0,0.1,0,0.1l0,0c0,0,0,0-0.1,0l0,0l0,0l0,0l0,0l0,0.1
			c0,0-0.1,0-0.1,0.1c0,0,0,0,0,0.1c0,0,0,0,0,0.1l0.1,0.1c0,0,0,0,0,0c0,0,0,0,0,0c0,0,0,0,0,0c0,0,0,0,0,0c0,0,0,0-0.1,0
			c0,0-0.1,0-0.1,0l0,0c0,0,0,0-0.1,0l-0.5-0.6C109,152.7,109.6,152.4,110.3,152.5z"/>
		<path class="st16" d="M109.9,155.8l0,0.1c0,0,0,0.1,0,0.1c0,0,0,0.1,0,0.1l0,0l0,0c0,0-0.1,0.1-0.1,0.1c0,0,0,0.1,0,0.1l0,0
			c0,0,0,0.1-0.1,0.1c-0.3,0-0.6-0.2-1-0.3c0-0.1-0.1-0.2-0.1-0.3c0.1,0,0.2,0,0.4-0.1c0.1,0,0.2-0.1,0.3-0.2l0.1-0.1l-0.1-0.1
			l-0.3-0.3l-0.1,0.1c0,0-0.1,0.1-0.2,0.1c-0.1,0-0.1,0-0.2,0c0,0-0.1,0-0.1,0c0-0.3,0-0.6,0.1-0.8c0,0,0.1,0,0.1,0
			c0.1,0,0.1,0,0.2,0c0.1,0,0.1,0.1,0.1,0.1l0.1,0.1l0.3-0.3l-0.1-0.1c-0.1-0.1-0.2-0.2-0.3-0.2c-0.1-0.1-0.2-0.1-0.3-0.1
			c0-0.1,0.1-0.2,0.1-0.3c0.1,0,0.1,0,0.2-0.1c0.1,0,0.1,0,0.1,0c0.1,0,0.2,0,0.2,0c0,0,0,0,0,0c0,0.1,0,0.2,0,0.2
			c0.1,0.1,0.1,0.1,0.1,0.3c0,0.1-0.1,0.2-0.1,0.3l0,0c0,0,0,0.1,0,0.1c0.1,0.1,0,0.1,0,0.2c0,0,0,0,0,0.1c0,0.1,0,0.1,0,0.1
			c0-0.1,0-0.1,0-0.2l0,0l0-0.1l0,0c0,0,0,0,0,0c0,0,0,0.1,0,0.1c0,0,0,0.1,0,0.1l0,0.1l0,0.1c0,0.1,0.1,0.2,0.2,0.2l0.1,0.1
			c0,0,0,0.1,0,0.1l0,0c0,0,0,0,0.1,0.1c0,0,0,0,0,0l0,0.1l0,0l-0.1,0c0,0-0.1,0-0.1,0c0,0.1,0,0.1-0.1,0.1
			C109.9,155.7,109.9,155.7,109.9,155.8z"/>
		<path class="st16" d="M108.4,153.1l0.5,0.6c0,0.1-0.1,0.2-0.1,0.3c-0.2,0-0.4,0.1-0.6,0.2c-0.2,0.1-0.3,0.3-0.3,0.6l-0.3,0
			C107.7,154.1,108,153.5,108.4,153.1z"/>
		<path class="st3" d="M108.6,154.8l-0.2,0c0-0.1,0.1-0.2,0.1-0.3c0,0,0.1-0.1,0.1-0.1C108.6,154.6,108.6,154.7,108.6,154.8z"/>
		<path class="st3" d="M108.6,155.2C108.5,155.2,108.5,155.2,108.6,155.2c-0.1-0.1-0.2-0.2-0.2-0.3l0.2,0
			C108.6,155,108.6,155.1,108.6,155.2z"/>
		<path class="st16" d="M107.6,154.9l0.3,0c0,0.2,0.1,0.4,0.2,0.6c0.1,0.2,0.3,0.3,0.5,0.3c0,0.1,0.1,0.2,0.1,0.3l-0.6,0.5
			C107.8,156.1,107.6,155.5,107.6,154.9z"/>
		<path class="st16" d="M109.9,157.5c-0.7,0-1.3-0.4-1.7-0.8l0.6-0.5c0.3,0.1,0.6,0.2,0.9,0.3c0,0,0,0,0,0.1l0,0c0,0,0,0.1,0,0.2
			l0,0l0,0l0,0l0,0c0,0,0,0,0.1,0c0,0,0,0,0-0.1l0,0l0,0l0,0c0,0,0-0.1,0.1-0.1l0,0l0,0c0,0,0,0,0,0c0,0,0,0,0,0
			c0.4,0,0.8,0,1.2-0.2l0.5,0.6C111.2,157.3,110.6,157.6,109.9,157.5z"/>
		<path class="st16" d="M111.8,156.9l-0.5-0.6c0.1-0.2,0.1-0.3,0.2-0.5l0.3,0c0,0,0,0,0,0c0,0,0,0.1,0,0.1l0,0.1l0.4,0l0-0.1
			c0-0.3,0-0.5-0.1-0.8l0.4,0C112.5,155.9,112.2,156.4,111.8,156.9z"/>
		<path class="st16" d="M108.9,154.1c0.2,0,0.4,0.1,0.6,0.3l-0.2,0.2c-0.1-0.1-0.2-0.2-0.4-0.2c-0.3,0-0.5,0.2-0.5,0.5
			s0.2,0.5,0.5,0.5c0.1,0,0.3,0,0.4-0.1l0.2,0.2c-0.2,0.2-0.4,0.2-0.6,0.2c-0.4,0-0.8-0.4-0.8-0.9
			C108,154.4,108.4,154.1,108.9,154.1L108.9,154.1z"/>
		<path class="st16" d="M111.6,154.3c-0.4,0.2-0.7,0.9-0.8,1.6l0.3,0c0-0.1,0-0.2,0-0.2l0.7,0c0,0.1,0,0.2,0,0.2l0.3,0
			C112.2,155.2,112,154.5,111.6,154.3L111.6,154.3z"/>
		<path class="st16" d="M110.8,156L110.8,156C110.8,156,110.8,156,110.8,156l0.4,0l0-0.1c0,0,0-0.1,0-0.1c0,0,0,0,0,0l0.1,0
			c-0.1,0.2-0.1,0.3-0.2,0.5c-0.3,0.1-0.7,0.2-1,0.2c0,0,0,0,0,0c0,0,0,0,0,0c0,0,0,0,0,0l0,0c0,0,0.1-0.1,0.1-0.1c0,0,0.1,0,0.1,0
			c0,0,0.1,0,0.1,0c0,0,0,0,0,0c0,0,0,0,0,0l0,0l0,0C110.7,156.1,110.8,156.1,110.8,156L110.8,156C110.8,156.1,110.8,156,110.8,156z
			"/>
		<path class="st3" d="M110.3,153.1L110.3,153.1c0,0.1,0,0.1,0,0.2c0,0,0,0.1,0.1,0.1c0.1,0.1,0.2,0.1,0.2,0l0-0.1c0,0,0-0.1,0-0.1
			c0,0,0-0.1-0.1-0.1C110.4,153,110.3,153.1,110.3,153.1z"/>
		<path class="st3" d="M110.2,153.2l0.1-0.1l0-0.1c0,0-0.1,0-0.1,0c0,0.1,0,0.1-0.1,0.1L110.2,153.2
			C110.1,153.2,110.1,153.2,110.2,153.2z"/>
		<path class="st3" d="M111.6,154.8c-0.1,0.1-0.2,0.2-0.2,0.4l0.4,0C111.7,155.1,111.6,154.9,111.6,154.8L111.6,154.8z"/>
		<path class="st3" d="M111.6,155c0,0-0.1,0.1-0.1,0.2l0.2,0C111.6,155.1,111.6,155,111.6,155L111.6,155z"/>
	</g>
	<g class="st17">
		<path class="st3" d="M50.5,154.3c1.5,0.1,2.7,1.4,2.6,3s-1.4,2.7-3,2.6s-2.7-1.4-2.6-3C47.7,155.4,49,154.2,50.5,154.3L50.5,154.3
			z"/>
		<path class="st3" d="M50.5,154.5c-1.4-0.1-2.7,1-2.8,2.4s1,2.7,2.4,2.8c1.4,0.1,2.7-1,2.8-2.4S52,154.6,50.5,154.5z"/>
		<path class="st16" d="M52.9,157.2l-0.5,0c0-0.1,0-0.1,0-0.2c-0.1-0.3-0.3-0.6-0.4-0.7l0,0l0,0c0,0,0,0,0,0c0-0.1-0.1-0.2-0.1-0.3
			l0.6-0.5C52.7,156,52.9,156.6,52.9,157.2z"/>
		<path class="st16" d="M50.5,154.6c0.7,0,1.3,0.4,1.7,0.8l-0.6,0.5c-0.1,0-0.2-0.1-0.3-0.1l0-0.2l0,0c0,0-0.1,0-0.1-0.1
			c0,0,0,0,0,0l0-0.1l0,0l-0.1-0.1l0,0c0,0-0.1,0-0.1,0c0,0-0.1,0-0.1,0l0,0l0,0l0,0.1c0,0,0,0,0,0c0,0,0,0,0,0l0,0c0,0,0,0,0.1,0.1
			l0,0c0,0,0,0,0,0l0,0l0,0l0,0l0,0c0,0,0,0.1,0,0.1l0,0c0,0-0.1,0-0.1,0c0,0,0,0.1,0,0c0,0,0.1,0,0.1,0.1l0,0
			c0,0.1,0.1,0.1,0.1,0.1c0,0,0,0,0-0.1l0,0c0-0.1,0-0.1,0,0l0,0l0,0l0-0.1c0.1,0,0.1,0.1,0.2,0.1c0,0.1,0.1,0.3,0.1,0.4
			c-0.2,0.1-0.3,0.3-0.4,0.6c-0.1,0.3-0.2,0.6-0.3,1l0,0l0,0c0,0,0,0,0-0.1c0,0,0,0,0,0l0,0l0,0c0,0,0,0,0,0c0,0,0,0,0,0l0,0l0,0
			c0,0,0-0.1,0-0.1c0,0-0.1-0.1-0.1-0.1c0,0,0,0,0,0c0,0,0,0,0-0.1c0,0,0,0,0,0l0,0c0,0-0.1,0-0.1,0l-0.1,0.1l-0.1-0.1l0-0.1
			c0,0,0,0,0,0l0,0l0,0c0,0,0-0.1,0.1-0.1l0,0l0,0l-0.1,0l0,0l-0.1,0l0,0c0,0,0,0,0-0.1c0-0.1,0-0.1,0.1-0.1c0,0,0.1,0,0.1,0
			c0.1,0,0,0,0.1,0l0,0.1l0,0c0,0,0,0,0,0l0-0.1c0,0,0,0,0,0c0,0,0,0,0,0l0,0c0,0,0,0,0,0c0,0,0,0,0,0c0,0,0,0,0,0l0,0l0,0l0,0l0,0
			c0,0,0,0,0.1-0.1l0.1,0c0,0,0.1-0.1,0.1-0.1c0,0,0,0,0-0.1l0,0l0,0l0.1,0c0,0,0,0,0,0.1c0,0,0,0.1,0,0.1l0,0c0,0,0,0,0.1,0
			c0,0,0,0,0,0c0,0,0,0,0.1,0c0,0,0-0.1,0-0.1c0,0,0.1,0,0.1-0.1c0,0,0-0.1,0-0.1c0,0,0-0.1,0-0.1c0,0,0-0.1,0-0.1l0,0l0,0l0,0
			c0,0,0-0.1-0.1-0.1c0,0,0,0,0,0c0,0-0.1,0-0.1,0l0,0l0,0l0,0c0,0.1,0,0.1-0.1,0.2l0,0l0,0.1l0,0c0,0,0-0.1,0-0.1c0,0,0-0.1,0-0.1
			l-0.1,0l0,0c0,0,0-0.1,0-0.1c0,0,0,0,0-0.1l0.1,0l0,0l0,0c0,0,0.1-0.1,0.1-0.1c0,0,0.1,0,0.1,0c0,0,0-0.1,0,0l0-0.1l-0.1,0
			c0,0,0,0,0,0c0,0-0.1-0.1,0-0.1c0,0,0-0.1,0-0.1l0,0c0,0-0.1,0.1,0,0.1c0,0,0,0.1-0.1,0l0,0l0,0c0,0-0.1,0-0.1,0l-0.1,0
			c0,0,0,0-0.1,0l-0.1,0l0-0.1c0,0,0,0,0,0l0,0c0,0,0,0,0-0.1c0,0,0-0.1,0-0.1c-0.1,0-0.3,0-0.3-0.1l0,0c0,0-0.1-0.1-0.1-0.1l0,0
			c0,0-0.1,0-0.1,0c0,0-0.1,0.1-0.1,0.1c0,0,0,0,0,0.1l0,0c0,0,0,0.1,0,0.1l0,0c0,0,0,0-0.1,0l0,0l0,0l0,0l0,0l0,0.1
			c0,0-0.1,0-0.1,0.1c0,0,0,0,0,0.1c0,0,0,0,0,0.1l0.1,0.1c0,0,0,0,0,0c0,0,0,0,0,0c0,0,0,0,0,0c0,0,0,0,0,0c0,0,0,0-0.1,0
			c0,0-0.1,0-0.1,0l0,0c0,0,0,0-0.1,0l-0.5-0.6C49.2,154.8,49.9,154.5,50.5,154.6z"/>
		<path class="st16" d="M50.2,157.9l0,0.1c0,0,0,0.1,0,0.1c0,0,0,0.1,0,0.1l0,0l0,0c0,0-0.1,0.1-0.1,0.1c0,0,0,0.1,0,0.1l0,0
			c0,0,0,0.1-0.1,0.1c-0.3,0-0.6-0.2-1-0.3c0-0.1-0.1-0.2-0.1-0.3c0.1,0,0.2,0,0.4-0.1c0.1,0,0.2-0.1,0.3-0.2l0.1-0.1l-0.1-0.1
			l-0.3-0.3l-0.1,0.1c0,0-0.1,0.1-0.2,0.1c-0.1,0-0.1,0-0.2,0c0,0-0.1,0-0.1,0c0-0.3,0-0.6,0.1-0.8c0,0,0.1,0,0.1,0
			c0.1,0,0.1,0,0.2,0c0.1,0,0.1,0.1,0.1,0.1l0.1,0.1l0.3-0.3l-0.1-0.1c-0.1-0.1-0.2-0.2-0.3-0.2c-0.1-0.1-0.2-0.1-0.3-0.1
			c0-0.1,0.1-0.2,0.1-0.3c0.1,0,0.1,0,0.2-0.1c0.1,0,0.1,0,0.1,0c0.1,0,0.2,0,0.2,0c0,0,0,0,0,0c0,0.1,0,0.2,0,0.2
			c0.1,0.1,0.1,0.1,0.1,0.3c0,0.1-0.1,0.2-0.1,0.3l0,0c0,0,0,0.1,0,0.1c0.1,0.1,0,0.1,0,0.2c0,0,0,0,0,0.1c0,0.1,0,0.1,0,0.1
			c0-0.1,0-0.1,0-0.2l0,0l0-0.1l0,0c0,0,0,0,0,0c0,0,0,0.1,0,0.1c0,0,0,0.1,0,0.1l0,0.1l0,0.1c0,0.1,0.1,0.2,0.2,0.2l0.1,0.1
			c0,0,0,0.1,0,0.1l0,0c0,0,0,0,0.1,0.1c0,0,0,0,0,0l0,0.1l0,0l-0.1,0c0,0-0.1,0-0.1,0c0,0.1,0,0.1-0.1,0.1
			C50.2,157.8,50.2,157.8,50.2,157.9z"/>
		<path class="st16" d="M48.7,155.2l0.5,0.6c0,0.1-0.1,0.2-0.1,0.3c-0.2,0-0.4,0.1-0.6,0.2c-0.2,0.1-0.3,0.3-0.3,0.6l-0.3,0
			C47.9,156.2,48.2,155.6,48.7,155.2z"/>
		<path class="st3" d="M48.8,156.9l-0.2,0c0-0.1,0.1-0.2,0.1-0.3c0,0,0.1-0.1,0.1-0.1C48.9,156.7,48.8,156.8,48.8,156.9z"/>
		<path class="st3" d="M48.8,157.4C48.8,157.3,48.8,157.3,48.8,157.4c-0.1-0.1-0.2-0.2-0.2-0.3l0.2,0
			C48.8,157.2,48.8,157.3,48.8,157.4z"/>
		<path class="st16" d="M47.8,157l0.3,0c0,0.2,0.1,0.4,0.2,0.6c0.1,0.2,0.3,0.3,0.5,0.3c0,0.1,0.1,0.2,0.1,0.3l-0.6,0.5
			C48,158.2,47.8,157.6,47.8,157z"/>
		<path class="st16" d="M50.2,159.6c-0.7,0-1.3-0.4-1.7-0.8l0.6-0.5c0.3,0.1,0.6,0.2,0.9,0.3c0,0,0,0,0,0.1l0,0c0,0,0,0.1,0,0.2l0,0
			l0,0l0,0l0,0c0,0,0,0,0.1,0c0,0,0,0,0-0.1l0,0l0,0l0,0c0,0,0-0.1,0.1-0.1l0,0l0,0c0,0,0,0,0,0c0,0,0,0,0,0c0.4,0,0.8,0,1.2-0.2
			L52,159C51.5,159.4,50.9,159.7,50.2,159.6z"/>
		<path class="st16" d="M52,159l-0.5-0.6c0.1-0.2,0.1-0.3,0.2-0.5l0.3,0c0,0,0,0,0,0c0,0,0,0.1,0,0.1l0,0.1l0.4,0l0-0.1
			c0-0.3,0-0.5-0.1-0.8l0.4,0C52.8,158,52.5,158.6,52,159z"/>
		<path class="st16" d="M49.1,156.2c0.2,0,0.4,0.1,0.6,0.3l-0.2,0.2c-0.1-0.1-0.2-0.2-0.4-0.2c-0.3,0-0.5,0.2-0.5,0.5
			c0,0.3,0.2,0.5,0.5,0.5c0.1,0,0.3,0,0.4-0.1l0.2,0.2c-0.2,0.2-0.4,0.2-0.6,0.2c-0.4,0-0.8-0.4-0.8-0.9S48.7,156.2,49.1,156.2
			L49.1,156.2z"/>
		<path class="st16" d="M51.9,156.4c-0.4,0.2-0.7,0.9-0.8,1.6l0.3,0c0-0.1,0-0.2,0-0.2l0.7,0c0,0.1,0,0.2,0,0.2l0.3,0
			C52.4,157.3,52.2,156.6,51.9,156.4L51.9,156.4z"/>
		<path class="st16" d="M51.1,158.1L51.1,158.1C51.1,158.1,51.1,158.1,51.1,158.1l0.4,0l0-0.1c0,0,0-0.1,0-0.1c0,0,0,0,0,0l0.1,0
			c-0.1,0.2-0.1,0.3-0.2,0.5c-0.3,0.1-0.7,0.2-1,0.2c0,0,0,0,0,0c0,0,0,0,0,0c0,0,0,0,0,0l0,0c0,0,0.1-0.1,0.1-0.1c0,0,0.1,0,0.1,0
			c0,0,0.1,0,0.1,0c0,0,0,0,0,0c0,0,0,0,0,0l0,0l0,0C51,158.2,51,158.2,51.1,158.1L51.1,158.1C51.1,158.2,51.1,158.1,51.1,158.1z"/>
		<path class="st3" d="M50.5,155.2L50.5,155.2c0,0.1,0,0.1,0,0.2c0,0,0,0.1,0.1,0.1c0.1,0.1,0.2,0.1,0.2,0l0-0.1c0,0,0-0.1,0-0.1
			c0,0,0-0.1-0.1-0.1C50.7,155.2,50.6,155.2,50.5,155.2z"/>
		<path class="st3" d="M50.4,155.3l0.1-0.1l0-0.1c0,0-0.1,0-0.1,0c0,0.1,0,0.1-0.1,0.1L50.4,155.3C50.4,155.3,50.4,155.3,50.4,155.3
			z"/>
		<path class="st3" d="M51.8,156.9c-0.1,0.1-0.2,0.2-0.2,0.4l0.4,0C51.9,157.2,51.9,157,51.8,156.9L51.8,156.9z"/>
		<path class="st3" d="M51.8,157.1c0,0-0.1,0.1-0.1,0.2l0.2,0C51.9,157.2,51.8,157.1,51.8,157.1L51.8,157.1z"/>
	</g>
	<g class="st17">
		<path class="st3" d="M50.9,155c1.5,0.1,2.7,1.4,2.6,3c-0.1,1.5-1.4,2.7-3,2.6c-1.5-0.1-2.7-1.4-2.6-3S49.3,154.9,50.9,155
			L50.9,155z"/>
		<path class="st3" d="M50.9,155.2c-1.4-0.1-2.7,1-2.8,2.4s1,2.7,2.4,2.8c1.4,0.1,2.7-1,2.8-2.4S52.3,155.3,50.9,155.2z"/>
		<path class="st16" d="M53.2,157.9l-0.5,0c0-0.1,0-0.1,0-0.2c-0.1-0.3-0.3-0.6-0.4-0.7l0,0l0,0c0,0,0,0,0,0c0-0.1-0.1-0.2-0.1-0.3
			l0.6-0.5C53,156.6,53.2,157.2,53.2,157.9z"/>
		<path class="st16" d="M50.9,155.3c0.7,0,1.3,0.4,1.7,0.8l-0.6,0.5c-0.1,0-0.2-0.1-0.3-0.1l0-0.2l0,0c0,0-0.1,0-0.1-0.1
			c0,0,0,0,0,0l0-0.1l0,0l-0.1-0.1l0,0c0,0-0.1,0-0.1,0c0,0-0.1,0-0.1,0l0,0l0,0l0,0.1c0,0,0,0,0,0c0,0,0,0,0,0l0,0c0,0,0,0,0.1,0.1
			l0,0c0,0,0,0,0,0l0,0l0,0l0,0l0,0c0,0,0,0.1,0,0.1l0,0c0,0-0.1,0-0.1,0c0,0,0,0.1,0,0c0,0,0.1,0,0.1,0.1l0,0
			c0,0.1,0.1,0.1,0.1,0.1c0,0,0,0,0-0.1l0,0c0-0.1,0-0.1,0,0l0,0l0,0l0-0.1c0.1,0,0.1,0.1,0.2,0.1c0,0.1,0.1,0.3,0.1,0.4
			c-0.2,0.1-0.3,0.3-0.4,0.6c-0.1,0.3-0.2,0.6-0.3,1l0,0l0,0c0,0,0,0,0-0.1c0,0,0,0,0,0l0,0l0,0c0,0,0,0,0,0c0,0,0,0,0,0l0,0l0,0
			c0,0,0-0.1,0-0.1c0,0-0.1-0.1-0.1-0.1c0,0,0,0,0,0c0,0,0,0,0-0.1c0,0,0,0,0,0l0,0c0,0-0.1,0-0.1,0l-0.1,0.1l-0.1-0.1l0-0.1
			c0,0,0,0,0,0l0,0l0,0c0,0,0-0.1,0.1-0.1l0,0l0,0l-0.1,0l0,0l-0.1,0l0,0c0,0,0,0,0-0.1c0-0.1,0-0.1,0.1-0.1c0,0,0.1,0,0.1,0
			c0.1,0,0,0,0.1,0l0,0.1l0,0c0,0,0,0,0,0l0-0.1c0,0,0,0,0,0c0,0,0,0,0,0l0,0c0,0,0,0,0,0c0,0,0,0,0,0c0,0,0,0,0,0l0,0l0,0l0,0l0,0
			c0,0,0,0,0.1-0.1l0.1,0c0,0,0.1-0.1,0.1-0.1c0,0,0,0,0-0.1l0,0l0,0l0.1,0c0,0,0,0,0,0.1c0,0,0,0.1,0,0.1l0,0c0,0,0,0,0.1,0
			c0,0,0,0,0,0c0,0,0,0,0.1,0c0,0,0-0.1,0-0.1c0,0,0.1,0,0.1-0.1c0,0,0-0.1,0-0.1c0,0,0-0.1,0-0.1c0,0,0-0.1,0-0.1l0,0l0,0l0,0
			c0,0,0-0.1-0.1-0.1c0,0,0,0,0,0c0,0-0.1,0-0.1,0l0,0l0,0l0,0c0,0.1,0,0.1-0.1,0.2l0,0l0,0.1l0,0c0,0,0-0.1,0-0.1c0,0,0-0.1,0-0.1
			l-0.1,0l0,0c0,0,0-0.1,0-0.1c0,0,0,0,0-0.1l0.1,0l0,0l0,0c0,0,0.1-0.1,0.1-0.1c0,0,0.1,0,0.1,0c0,0,0-0.1,0,0l0-0.1l-0.1,0
			c0,0,0,0,0,0c0,0-0.1-0.1,0-0.1c0,0,0-0.1,0-0.1l0,0c0,0-0.1,0.1,0,0.1c0,0,0,0.1-0.1,0l0,0l0,0c0,0-0.1,0-0.1,0l-0.1,0
			c0,0,0,0-0.1,0l-0.1,0l0-0.1c0,0,0,0,0,0l0,0c0,0,0,0,0-0.1c0,0,0-0.1,0-0.1c-0.1,0-0.3,0-0.3-0.1l0,0c0,0-0.1-0.1-0.1-0.1l0,0
			c0,0-0.1,0-0.1,0c0,0-0.1,0.1-0.1,0.1c0,0,0,0,0,0.1l0,0c0,0,0,0.1,0,0.1l0,0c0,0,0,0-0.1,0l0,0l0,0l0,0l0,0l0,0.1
			c0,0-0.1,0-0.1,0.1c0,0,0,0,0,0.1c0,0,0,0,0,0.1l0.1,0.1c0,0,0,0,0,0c0,0,0,0,0,0c0,0,0,0,0,0c0,0,0,0,0,0c0,0,0,0-0.1,0
			c0,0-0.1,0-0.1,0l0,0c0,0,0,0-0.1,0l-0.5-0.6C49.6,155.4,50.2,155.2,50.9,155.3z"/>
		<path class="st16" d="M50.5,158.5l0,0.1c0,0,0,0.1,0,0.1c0,0,0,0.1,0,0.1l0,0l0,0c0,0-0.1,0.1-0.1,0.1c0,0,0,0.1,0,0.1l0,0
			c0,0,0,0.1-0.1,0.1c-0.3,0-0.6-0.2-1-0.3c0-0.1-0.1-0.2-0.1-0.3c0.1,0,0.2,0,0.4-0.1c0.1,0,0.2-0.1,0.3-0.2l0.1-0.1l-0.1-0.1
			l-0.3-0.3l-0.1,0.1c0,0-0.1,0.1-0.2,0.1c-0.1,0-0.1,0-0.2,0c0,0-0.1,0-0.1,0c0-0.3,0-0.6,0.1-0.8c0,0,0.1,0,0.1,0
			c0.1,0,0.1,0,0.2,0c0.1,0,0.1,0.1,0.1,0.1l0.1,0.1l0.3-0.3l-0.1-0.1c-0.1-0.1-0.2-0.2-0.3-0.2c-0.1-0.1-0.2-0.1-0.3-0.1
			c0-0.1,0.1-0.2,0.1-0.3c0.1,0,0.1,0,0.2-0.1c0.1,0,0.1,0,0.1,0c0.1,0,0.2,0,0.2,0c0,0,0,0,0,0c0,0.1,0,0.2,0,0.2
			c0.1,0.1,0.1,0.1,0.1,0.3c0,0.1-0.1,0.2-0.1,0.3l0,0c0,0,0,0.1,0,0.1c0.1,0.1,0,0.1,0,0.2c0,0,0,0,0,0.1c0,0.1,0,0.1,0,0.1
			c0-0.1,0-0.1,0-0.2l0,0l0-0.1l0,0c0,0,0,0,0,0c0,0,0,0.1,0,0.1c0,0,0,0.1,0,0.1l0,0.1l0,0.1c0,0.1,0.1,0.2,0.2,0.2l0.1,0.1
			c0,0,0,0.1,0,0.1l0,0c0,0,0,0,0.1,0.1c0,0,0,0,0,0l0,0.1l0,0l-0.1,0c0,0-0.1,0-0.1,0c0,0.1,0,0.1-0.1,0.1
			C50.5,158.4,50.5,158.5,50.5,158.5z"/>
		<path class="st16" d="M49,155.9l0.5,0.6c0,0.1-0.1,0.2-0.1,0.3c-0.2,0-0.4,0.1-0.6,0.2c-0.2,0.1-0.3,0.3-0.3,0.6l-0.3,0
			C48.2,156.9,48.5,156.3,49,155.9z"/>
		<path class="st3" d="M49.2,157.6l-0.2,0c0-0.1,0.1-0.2,0.1-0.3c0,0,0.1-0.1,0.1-0.1C49.2,157.4,49.2,157.5,49.2,157.6z"/>
		<path class="st3" d="M49.2,158C49.1,158,49.1,158,49.2,158c-0.1-0.1-0.2-0.2-0.2-0.3l0.2,0C49.2,157.8,49.2,157.9,49.2,158z"/>
		<path class="st16" d="M48.2,157.7l0.3,0c0,0.2,0.1,0.4,0.2,0.6c0.1,0.2,0.3,0.3,0.5,0.3c0,0.1,0.1,0.2,0.1,0.3l-0.6,0.5
			C48.4,158.9,48.1,158.3,48.2,157.7z"/>
		<path class="st16" d="M50.5,160.3c-0.7,0-1.3-0.4-1.7-0.8l0.6-0.5c0.3,0.1,0.6,0.2,0.9,0.3c0,0,0,0,0,0.1l0,0c0,0,0,0.1,0,0.2l0,0
			l0,0l0,0l0,0c0,0,0,0,0.1,0c0,0,0,0,0-0.1l0,0l0,0l0,0c0,0,0-0.1,0.1-0.1l0,0l0,0c0,0,0,0,0,0c0,0,0,0,0,0c0.4,0,0.8,0,1.2-0.2
			l0.5,0.6C51.8,160.1,51.2,160.3,50.5,160.3z"/>
		<path class="st16" d="M52.4,159.6l-0.5-0.6c0.1-0.2,0.1-0.3,0.2-0.5l0.3,0c0,0,0,0,0,0c0,0,0,0.1,0,0.1l0,0.1l0.4,0l0-0.1
			c0-0.3,0-0.5-0.1-0.8l0.4,0C53.1,158.7,52.8,159.2,52.4,159.6z"/>
		<path class="st16" d="M49.4,156.9c0.2,0,0.4,0.1,0.6,0.3l-0.2,0.2c-0.1-0.1-0.2-0.2-0.4-0.2c-0.3,0-0.5,0.2-0.5,0.5
			c0,0.3,0.2,0.5,0.5,0.5c0.1,0,0.3,0,0.4-0.1l0.2,0.2c-0.2,0.2-0.4,0.2-0.6,0.2c-0.4,0-0.8-0.4-0.8-0.9
			C48.6,157.2,49,156.8,49.4,156.9L49.4,156.9z"/>
		<path class="st16" d="M52.2,157c-0.4,0.2-0.7,0.9-0.8,1.6l0.3,0c0-0.1,0-0.2,0-0.2l0.7,0c0,0.1,0,0.2,0,0.2l0.3,0
			C52.8,158,52.5,157.3,52.2,157L52.2,157z"/>
		<path class="st16" d="M51.4,158.8L51.4,158.8C51.4,158.7,51.4,158.7,51.4,158.8l0.4,0l0-0.1c0,0,0-0.1,0-0.1c0,0,0,0,0,0l0.1,0
			c-0.1,0.2-0.1,0.3-0.2,0.5c-0.3,0.1-0.7,0.2-1,0.2c0,0,0,0,0,0c0,0,0,0,0,0c0,0,0,0,0,0l0,0c0,0,0.1-0.1,0.1-0.1c0,0,0.1,0,0.1,0
			c0,0,0.1,0,0.1,0c0,0,0,0,0,0c0,0,0,0,0,0l0,0l0,0C51.3,158.9,51.4,158.9,51.4,158.8L51.4,158.8C51.4,158.8,51.4,158.8,51.4,158.8
			z"/>
		<path class="st3" d="M50.9,155.9L50.9,155.9c0,0.1,0,0.1,0,0.2c0,0,0,0.1,0.1,0.1c0.1,0.1,0.2,0.1,0.2,0l0-0.1c0,0,0-0.1,0-0.1
			c0,0,0-0.1-0.1-0.1C51,155.8,50.9,155.8,50.9,155.9z"/>
		<path class="st3" d="M50.8,156l0.1-0.1l0-0.1c0,0-0.1,0-0.1,0c0,0.1,0,0.1-0.1,0.1L50.8,156C50.7,155.9,50.7,156,50.8,156z"/>
		<path class="st3" d="M52.2,157.6c-0.1,0.1-0.2,0.2-0.2,0.4l0.4,0C52.3,157.9,52.2,157.7,52.2,157.6L52.2,157.6z"/>
		<path class="st3" d="M52.2,157.7c0,0-0.1,0.1-0.1,0.2l0.2,0C52.2,157.9,52.2,157.8,52.2,157.7L52.2,157.7z"/>
	</g>
	<g class="st17">
		<path class="st3" d="M160.9,155.9c1.1,0.3,1.7,1.8,1.3,3.3c-0.4,1.5-1.7,2.4-2.8,2.1s-1.7-1.8-1.3-3.3
			C158.5,156.6,159.8,155.6,160.9,155.9L160.9,155.9z"/>
		<path class="st3" d="M160.8,156.1c-1.1-0.3-2.2,0.6-2.6,2c-0.4,1.4,0.2,2.8,1.2,3c1.1,0.3,2.2-0.6,2.6-2
			C162.5,157.8,161.9,156.4,160.8,156.1z"/>
		<path class="st16" d="M162,159.1l-0.3-0.1c0-0.1,0-0.1,0-0.2c0-0.3-0.1-0.6-0.2-0.7l0,0l0,0c0,0,0,0,0,0c0-0.1,0-0.2,0-0.3
			l0.5-0.4C162.1,157.8,162.2,158.5,162,159.1z"/>
		<path class="st16" d="M160.8,156.2c0.5,0.1,0.9,0.5,1.1,1l-0.5,0.4c-0.1-0.1-0.1-0.1-0.2-0.1l0.1-0.2l0,0c0,0-0.1,0,0-0.1
			c0,0,0,0,0,0l0-0.1l0,0l0-0.1l0,0c0,0,0,0,0,0c0,0-0.1,0-0.1,0l0,0l0,0l0,0c0,0,0,0,0,0c0,0,0,0,0,0.1l0,0c0,0,0,0,0,0.1l0,0
			c0,0,0,0,0,0l0,0l0,0l0,0l0,0c0,0,0,0.1,0,0.1l0,0c0,0-0.1,0-0.1,0c0,0,0,0.1,0,0.1c0,0,0,0.1,0,0.1l0,0c0,0.1,0,0.1,0.1,0.1
			c0,0,0,0,0-0.1l0,0c0-0.1,0-0.1,0,0l0,0l0,0l0-0.1c0,0,0.1,0.1,0.1,0.1c0,0.1,0,0.3,0,0.4c-0.1,0.1-0.3,0.3-0.4,0.5
			c-0.2,0.3-0.3,0.6-0.4,1l0,0l0,0c0,0,0,0,0-0.1c0,0,0,0,0,0l0,0l0,0c0,0,0,0,0,0c0,0,0,0,0,0l0,0l0,0c0,0,0-0.1,0-0.1
			c0,0-0.1-0.1,0-0.1c0,0,0,0,0,0c0,0,0,0,0-0.1c0,0,0,0,0,0l0,0c0,0,0,0-0.1,0l-0.1,0l0-0.1l0-0.1c0,0,0,0,0,0l0,0l0,0
			c0,0,0-0.1,0.1,0l0,0l0,0l0,0l0,0l0,0l0,0c0,0,0,0,0-0.1c0-0.1,0-0.1,0.1-0.1c0,0,0.1,0,0.1,0c0,0,0,0,0.1,0l0,0.1l0,0
			c0,0,0,0,0,0l0-0.1c0,0,0,0,0,0c0,0,0,0,0,0l0,0c0,0,0,0,0,0c0,0,0,0,0,0c0,0,0,0,0,0l0,0l0,0l0,0l0,0c0,0,0,0,0.1,0l0.1,0.1
			c0,0,0.1,0,0.1-0.1c0,0,0,0,0-0.1l0,0l0,0l0.1,0c0,0,0,0-0.1,0.1c0,0,0,0.1,0,0.1l0,0c0,0,0,0,0,0c0,0,0,0,0,0c0,0,0,0,0,0
			c0,0,0-0.1,0-0.1c0,0,0,0,0.1-0.1c0,0,0-0.1,0-0.1c0,0,0-0.1,0-0.1c0,0,0-0.1,0-0.1l0,0l0,0l0,0c0,0,0-0.1,0-0.1c0,0,0,0,0,0
			c0,0,0,0-0.1,0l0,0l0,0l0,0c0,0.1-0.1,0.1-0.1,0.1l0,0l0,0.1l0,0c0,0,0-0.1,0-0.1c0,0,0,0,0-0.1l0,0l0,0c0,0,0-0.1,0-0.1
			c0,0,0,0,0-0.1l0,0l0,0l0,0c0,0,0.1-0.1,0.1-0.1c0,0,0.1,0,0.1,0c0,0,0,0,0,0l0-0.1l-0.1,0c0,0,0,0,0,0c0,0,0-0.1,0-0.1
			c0,0,0-0.1,0-0.1l0,0c0,0-0.1,0,0,0.1c0,0,0,0,0,0l0,0l0,0c0,0,0,0-0.1,0l0,0c0,0,0,0-0.1,0l0,0l0-0.1c0,0,0,0,0,0l0,0
			c0,0,0,0,0-0.1c0,0,0-0.1,0-0.1c-0.1,0-0.2-0.1-0.2-0.2l0,0c0,0,0-0.1-0.1-0.1l0,0c0,0-0.1,0-0.1,0c0,0-0.1,0.1-0.1,0
			c0,0,0,0,0,0.1l0,0c0,0,0,0.1,0,0.1l0,0c0,0,0,0,0,0l0,0l0,0l0,0l0,0l0,0.1c0,0-0.1,0-0.1,0c0,0,0,0,0,0.1c0,0,0,0.1,0,0.1l0,0.1
			c0,0,0,0,0,0c0,0,0,0,0,0c0,0,0,0,0,0c0,0,0,0,0,0c0,0,0,0,0,0c0,0,0,0-0.1,0l0,0c0,0,0,0,0,0l-0.3-0.6
			C159.8,156.2,160.3,156.1,160.8,156.2z"/>
		<path class="st16" d="M159.9,159.4l0,0.1c0,0,0,0.1,0,0.1c0,0,0,0.1,0,0.1l0,0l0,0c0,0-0.1,0.1-0.1,0.1c0,0,0,0.1,0,0.1l0,0
			c0,0,0,0.1-0.1,0.1c-0.2-0.1-0.4-0.2-0.7-0.4c0-0.1,0-0.2,0-0.3c0.1,0,0.2,0,0.3,0c0.1,0,0.2-0.1,0.3-0.1l0.1,0l0-0.1l-0.1-0.3
			l-0.1,0.1c0,0-0.1,0.1-0.1,0.1c0,0-0.1,0-0.1,0c0,0-0.1,0-0.1,0c0-0.3,0.1-0.5,0.2-0.8c0,0,0.1,0,0.1,0c0,0,0.1,0,0.1,0.1
			c0,0,0.1,0.1,0.1,0.1l0,0.1l0.3-0.2l0-0.1c0-0.1-0.1-0.2-0.2-0.3c-0.1-0.1-0.1-0.1-0.2-0.1c0-0.1,0.1-0.2,0.1-0.2
			c0.1,0,0.1,0,0.2,0c0,0,0.1,0,0.1,0c0.1,0,0.1,0,0.2,0c0,0,0,0,0,0c0,0.1,0,0.2-0.1,0.2c0,0.1,0,0.2,0,0.3c0,0.1-0.1,0.2-0.1,0.3
			l0,0c0,0,0,0.1,0,0.1c0,0.1,0,0.1,0,0.2c0,0,0,0,0,0.1c0,0.1,0,0.1,0,0.1c0-0.1,0-0.1,0-0.2l0,0l0-0.1l0,0c0,0,0,0,0,0
			c0,0,0,0.1,0,0.1c0,0,0,0.1,0,0.1l0,0.1l0,0.1c0,0.1,0,0.2,0.1,0.2l0,0.1c0,0,0,0.1,0,0.1l0,0c0,0,0,0,0,0.1c0,0,0,0,0,0l0,0.1
			l0,0l0,0c0,0-0.1,0-0.1,0c0,0.1,0,0.1-0.1,0.1C159.9,159.3,159.9,159.3,159.9,159.4z"/>
		<path class="st16" d="M159.3,156.6l0.3,0.6c-0.1,0.1-0.1,0.2-0.2,0.3c-0.2,0-0.3,0-0.5,0.1c-0.2,0.1-0.3,0.3-0.3,0.5l-0.2-0.1
			C158.5,157.5,158.9,156.9,159.3,156.6z"/>
		<path class="st3" d="M159.1,158.3l-0.1,0c0-0.1,0.1-0.2,0.2-0.2c0,0,0.1,0,0.1-0.1C159.1,158.1,159.1,158.2,159.1,158.3z"/>
		<path class="st3" d="M159,158.7C158.9,158.7,158.9,158.6,159,158.7c-0.1-0.2-0.1-0.2-0.1-0.3l0.1,0C159,158.5,159,158.6,159,158.7
			z"/>
		<path class="st16" d="M158.3,158.2l0.2,0.1c0,0.2,0,0.4,0,0.6c0.1,0.2,0.2,0.3,0.3,0.4c0,0.1,0,0.2,0,0.3l-0.5,0.4
			C158.2,159.5,158.1,158.8,158.3,158.2z"/>
		<path class="st16" d="M159.5,161.1c-0.5-0.1-0.9-0.5-1.1-1l0.5-0.4c0.2,0.2,0.4,0.3,0.6,0.4c0,0,0,0,0,0.1l0,0c0,0,0,0.1-0.1,0.2
			l0,0l0,0l0,0l0,0c0,0,0,0,0,0c0,0,0,0,0,0l0,0l0,0l0,0c0,0,0.1-0.1,0.1-0.1l0,0l0,0c0,0,0,0,0,0c0,0,0,0,0,0c0.3,0.1,0.6,0.1,1,0
			l0.3,0.6C160.5,161.1,160,161.2,159.5,161.1z"/>
		<path class="st16" d="M161,160.7l-0.3-0.6c0.1-0.2,0.2-0.3,0.3-0.5l0.2,0.1c0,0,0,0,0,0c0,0,0,0.1,0,0.1l0,0.1l0.3,0.1l0-0.1
			c0.1-0.3,0.1-0.5,0.1-0.7l0.3,0.1C161.8,159.8,161.5,160.3,161,160.7z"/>
		<path class="st16" d="M159.4,157.6c0.2,0,0.3,0.2,0.4,0.4l-0.2,0.2c0-0.1-0.1-0.2-0.2-0.2c-0.2-0.1-0.4,0.1-0.5,0.4
			c-0.1,0.3,0,0.5,0.2,0.6c0.1,0,0.2,0,0.3-0.1l0.1,0.2c-0.2,0.1-0.3,0.2-0.5,0.1c-0.3-0.1-0.5-0.5-0.4-0.9
			C158.7,157.8,159.1,157.5,159.4,157.6L159.4,157.6z"/>
		<path class="st16" d="M161.5,158.1c-0.3,0.1-0.7,0.7-0.9,1.5l0.2,0.1c0-0.1,0-0.1,0.1-0.2l0.5,0.1c0,0.1,0,0.1,0,0.2l0.2,0.1
			C161.7,159.1,161.7,158.4,161.5,158.1L161.5,158.1z"/>
		<path class="st16" d="M160.5,159.7L160.5,159.7C160.5,159.7,160.5,159.7,160.5,159.7l0.3,0l0-0.1c0,0,0-0.1,0-0.1c0,0,0,0,0,0
			l0.1,0c-0.1,0.2-0.2,0.3-0.3,0.5c-0.3,0.1-0.5,0.1-0.8,0c0,0,0,0,0,0c0,0,0,0,0,0c0,0,0,0,0,0l0,0c0,0,0.1-0.1,0.1-0.1
			c0,0,0.1,0,0.1,0c0,0,0,0,0.1,0c0,0,0,0,0,0c0,0,0,0,0,0l0,0l0,0C160.4,159.8,160.5,159.8,160.5,159.7L160.5,159.7
			C160.5,159.8,160.5,159.7,160.5,159.7z"/>
		<path class="st3" d="M160.7,156.9L160.7,156.9c0,0.1,0,0.1,0,0.2c0,0,0,0.1,0,0.1c0.1,0.1,0.1,0.1,0.1,0.1l0-0.1c0,0,0-0.1,0-0.1
			c0,0,0-0.1,0-0.1C160.8,156.8,160.8,156.8,160.7,156.9z"/>
		<path class="st3" d="M160.6,156.9l0.1-0.1l0-0.1c0,0,0,0-0.1,0c0,0-0.1,0.1-0.1,0.1L160.6,156.9
			C160.6,156.9,160.6,156.9,160.6,156.9z"/>
		<path class="st3" d="M161.3,158.7c-0.1,0.1-0.2,0.2-0.3,0.4l0.3,0.1C161.3,158.9,161.3,158.8,161.3,158.7L161.3,158.7z"/>
		<path class="st3" d="M161.3,158.8c0,0-0.1,0.1-0.1,0.2l0.1,0C161.3,158.9,161.3,158.9,161.3,158.8L161.3,158.8z"/>
	</g>
	<g>
		<path class="st3" d="M90.3,77.9c1.1,0,1.9,1.3,1.9,2.8s-0.9,2.8-2,2.8c-1.1,0-1.9-1.3-1.9-2.8C88.3,79.2,89.2,77.9,90.3,77.9
			L90.3,77.9z"/>
		<path class="st3" d="M90.3,78.1c-1,0-1.8,1.1-1.8,2.6c0,1.4,0.8,2.6,1.8,2.6c1,0,1.8-1.1,1.8-2.6S91.3,78.1,90.3,78.1z"/>
		<path class="st16" d="M92,80.7l-0.3,0c0-0.1,0-0.1,0-0.2c-0.1-0.3-0.2-0.6-0.3-0.7l0,0l0,0c0,0,0,0,0,0c0-0.1,0-0.2-0.1-0.3
			l0.4-0.5C91.8,79.5,92,80.1,92,80.7z"/>
		<path class="st16" d="M90.3,78.2c0.5,0,0.9,0.3,1.2,0.7l-0.4,0.5c-0.1,0-0.1-0.1-0.2-0.1l0-0.2l0,0c0,0-0.1,0-0.1-0.1c0,0,0,0,0,0
			l0,0l0,0l0-0.1l0,0c0,0,0,0,0,0c0,0,0,0,0,0l0,0l0,0l0,0.1c0,0,0,0,0,0c0,0,0,0,0,0l0,0c0,0,0,0,0,0l0,0c0,0,0,0,0,0l0,0l0,0l0,0
			l0,0c0,0,0,0.1,0,0.1l0,0c0,0-0.1,0-0.1,0c0,0,0,0.1,0,0c0,0,0,0,0,0.1l0,0c0,0.1,0,0.1,0.1,0.1c0,0,0,0,0-0.1l0,0
			c0-0.1,0-0.1,0,0l0,0l0,0l0-0.1c0,0,0.1,0,0.1,0.1c0,0.1,0.1,0.2,0.1,0.4c-0.1,0.1-0.2,0.3-0.3,0.6c-0.1,0.3-0.1,0.7-0.2,1l0,0
			l0,0c0,0,0,0,0,0c0,0,0,0,0,0l0,0l0,0c0,0,0,0,0,0c0,0,0,0,0,0l0,0l0,0c0,0,0-0.1,0-0.1c0,0-0.1-0.1-0.1-0.1c0,0,0,0,0,0
			c0,0,0,0,0-0.1c0,0,0,0,0,0l0,0c0,0,0,0-0.1,0l0,0.1L90.3,81l0-0.1c0,0,0,0,0,0l0,0l0,0c0,0,0-0.1,0-0.1l0,0l0,0l0,0l0,0l0,0l0,0
			c0,0,0,0,0-0.1c0-0.1,0-0.1,0-0.1c0,0,0,0,0.1,0c0,0,0,0,0.1,0l0,0.1l0,0c0,0,0,0,0,0l0-0.1c0,0,0,0,0,0c0,0,0,0,0,0l0,0
			c0,0,0,0,0,0c0,0,0,0,0,0c0,0,0,0,0,0l0,0l0,0l0,0l0,0c0,0,0,0,0-0.1l0.1,0c0,0,0.1-0.1,0-0.1c0,0,0,0,0-0.1l0,0l0,0l0.1,0
			c0,0,0,0,0,0.1c0,0,0,0.1,0,0.1l0,0c0,0,0,0,0,0c0,0,0,0,0,0c0,0,0,0,0,0c0,0,0-0.1,0-0.1c0,0,0,0,0-0.1c0,0,0-0.1,0-0.1
			c0,0,0-0.1,0-0.1c0,0,0-0.1,0-0.1l0,0l0,0l0,0c0,0,0-0.1,0-0.1c0,0,0,0,0,0c0,0-0.1,0-0.1,0l0,0l0,0l0,0c0,0.1,0,0.1-0.1,0.2l0,0
			l0,0.1l0,0c0,0,0-0.1,0-0.1c0,0,0-0.1,0-0.1l0,0l0,0c0,0,0-0.1,0-0.1c0,0,0,0,0-0.1l0,0l0,0l0,0c0,0,0.1-0.1,0.1-0.1
			c0,0,0.1,0,0.1,0c0,0,0-0.1,0-0.1l0-0.1l-0.1,0c0,0,0,0,0,0c0,0,0-0.1,0-0.1c0,0,0-0.1,0-0.1l0,0c0,0,0,0.1,0,0.1c0,0,0,0.1,0,0
			l0,0l0,0c0,0,0,0,0,0l0,0c0,0,0,0-0.1,0l0,0l0-0.1c0,0,0,0,0,0l0,0c0,0,0,0,0,0c0,0,0-0.1,0-0.1c-0.1,0-0.2,0-0.2-0.1l0,0
			c0,0-0.1-0.1-0.1-0.1l0,0c0,0-0.1,0-0.1,0c0,0,0,0.1-0.1,0.1c0,0,0,0,0,0.1l0,0c0,0,0,0.1,0,0.1l0,0c0,0,0,0,0,0l0,0l0,0l0,0l0,0
			l0,0.1c0,0-0.1,0-0.1,0.1c0,0,0,0,0,0.1c0,0,0,0,0,0.1l0,0.1c0,0,0,0,0,0c0,0,0,0,0,0c0,0,0,0,0,0c0,0,0,0,0,0c0,0,0,0,0,0
			c0,0,0,0,0,0l0,0c0,0,0,0,0,0l-0.4-0.5C89.4,78.5,89.8,78.2,90.3,78.2z"/>
		<path class="st16" d="M90.1,81.5l0,0.1c0,0,0,0.1,0,0.1c0,0,0,0.1,0,0.1l0,0l0,0c0,0-0.1,0.1-0.1,0.1c0,0,0,0.1,0,0.1l0,0
			c0,0,0,0.1,0,0.1c-0.2,0-0.4-0.1-0.7-0.3c0-0.1,0-0.2-0.1-0.3c0.1,0,0.2,0,0.2-0.1c0.1,0,0.2-0.1,0.2-0.2l0-0.1l0-0.1l-0.2-0.3
			l0,0.1c0,0-0.1,0.1-0.1,0.1c0,0-0.1,0-0.1,0c0,0-0.1,0-0.1,0c0-0.3,0-0.6,0-0.8c0,0,0,0,0.1,0c0,0,0.1,0,0.1,0
			c0,0,0.1,0.1,0.1,0.1l0,0.1l0.2-0.3l0-0.1c-0.1-0.1-0.1-0.2-0.2-0.2c-0.1,0-0.2-0.1-0.2-0.1c0-0.1,0-0.2,0.1-0.3
			c0,0,0.1-0.1,0.1-0.1c0,0,0.1,0,0.1,0c0.1,0,0.1,0,0.2-0.1c0,0,0,0,0,0c0,0.1,0,0.2,0,0.2c0,0.1,0.1,0.1,0,0.3c0,0.1,0,0.2,0,0.3
			l0,0c0,0,0,0.1,0,0.1c0,0.1,0,0.1,0,0.2c0,0,0,0,0,0.1c0,0.1,0,0.1,0,0.1c0-0.1,0-0.1,0-0.2l0,0l0-0.1l0,0c0,0,0,0,0,0
			c0,0,0,0.1,0,0.1c0,0,0,0.1,0,0.1l0,0.1l0,0.1c0,0.1,0.1,0.2,0.1,0.2l0,0.1c0,0,0,0.1,0,0.1l0,0c0,0,0,0,0,0c0,0,0,0,0,0l0,0.1
			l0,0l0,0c0,0,0,0-0.1,0c0,0.1,0,0.1-0.1,0.1C90.1,81.4,90.1,81.5,90.1,81.5z"/>
		<path class="st16" d="M89,79l0.4,0.5c0,0.1-0.1,0.2-0.1,0.3c-0.1,0-0.3,0.1-0.4,0.3c-0.1,0.2-0.2,0.4-0.2,0.6l-0.2,0
			C88.5,80,88.7,79.4,89,79z"/>
		<path class="st3" d="M89.2,80.7l-0.1,0c0-0.1,0-0.2,0.1-0.3c0,0,0-0.1,0.1-0.1C89.2,80.4,89.2,80.5,89.2,80.7z"/>
		<path class="st3" d="M89.2,81.1C89.2,81.1,89.2,81,89.2,81.1c-0.1-0.1-0.1-0.2-0.1-0.3l0.1,0C89.2,80.9,89.2,81,89.2,81.1z"/>
		<path class="st16" d="M88.5,80.8l0.2,0c0,0.2,0.1,0.4,0.2,0.6c0.1,0.1,0.2,0.2,0.4,0.3c0,0.1,0,0.2,0.1,0.3L89,82.5
			C88.7,82,88.5,81.4,88.5,80.8z"/>
		<path class="st16" d="M90.2,83.3c-0.5,0-0.9-0.3-1.2-0.7l0.4-0.5c0.2,0.1,0.4,0.2,0.6,0.2c0,0,0,0,0,0.1l0,0c0,0,0,0.1,0,0.2l0,0
			l0,0l0,0l0,0c0,0,0,0,0,0c0,0,0,0,0-0.1l0,0l0,0l0,0c0,0,0-0.1,0-0.1l0,0l0,0c0,0,0,0,0,0c0,0,0,0,0,0c0.3,0,0.6-0.1,0.9-0.2
			l0.4,0.6C91.1,83,90.7,83.3,90.2,83.3z"/>
		<path class="st16" d="M91.5,82.5l-0.4-0.6c0-0.2,0.1-0.3,0.1-0.5l0.2,0c0,0,0,0,0,0c0,0,0,0.1,0,0.1l0,0.1l0.3,0l0-0.1
			c0-0.3,0-0.5-0.1-0.8l0.3,0C91.9,81.5,91.8,82.1,91.5,82.5z"/>
		<path class="st16" d="M89.4,79.9c0.2,0,0.3,0.1,0.4,0.3l-0.1,0.2c-0.1-0.1-0.2-0.2-0.3-0.2c-0.2,0-0.4,0.2-0.4,0.5
			c0,0.3,0.1,0.5,0.3,0.5c0.1,0,0.2-0.1,0.3-0.2l0.1,0.2c-0.1,0.2-0.3,0.3-0.4,0.3c-0.3,0-0.6-0.4-0.5-0.8
			C88.8,80.3,89.1,79.9,89.4,79.9L89.4,79.9z"/>
		<path class="st16" d="M91.3,79.9c-0.3,0.2-0.4,0.9-0.5,1.6l0.2,0c0-0.1,0-0.2,0-0.2l0.5,0c0,0.1,0,0.2,0,0.2l0.2,0
			C91.7,80.8,91.5,80.2,91.3,79.9L91.3,79.9z"/>
		<path class="st16" d="M90.8,81.7L90.8,81.7C90.8,81.7,90.8,81.6,90.8,81.7l0.3,0l0-0.1c0,0,0-0.1,0-0.1c0,0,0,0,0,0l0.1,0
			c0,0.2-0.1,0.3-0.1,0.5c-0.2,0.1-0.5,0.2-0.7,0.2c0,0,0,0,0,0c0,0,0,0,0,0c0,0,0,0,0,0l0,0c0,0,0.1-0.1,0.1-0.1c0,0,0.1,0,0.1,0
			c0,0,0,0,0,0c0,0,0,0,0,0c0,0,0,0,0,0l0,0l0,0C90.7,81.8,90.7,81.8,90.8,81.7L90.8,81.7C90.8,81.8,90.8,81.7,90.8,81.7z"/>
		<path class="st3" d="M90.3,78.9L90.3,78.9c0,0.1,0,0.1,0,0.2c0,0,0,0.1,0,0.1c0.1,0,0.1,0.1,0.1,0l0-0.1c0,0,0-0.1,0-0.1
			c0,0,0-0.1-0.1-0.1C90.4,78.8,90.4,78.8,90.3,78.9z"/>
		<path class="st3" d="M90.2,78.9L90.2,78.9l0.1-0.2c0,0,0,0-0.1,0c0,0.1,0,0.1-0.1,0.1L90.2,78.9C90.2,78.9,90.2,78.9,90.2,78.9z"
			/>
		<path class="st3" d="M91.2,80.5c-0.1,0.1-0.1,0.2-0.1,0.5l0.3,0C91.3,80.7,91.3,80.6,91.2,80.5L91.2,80.5z"/>
		<path class="st3" d="M91.2,80.6c0,0.1,0,0.1-0.1,0.2l0.1,0C91.3,80.8,91.3,80.7,91.2,80.6L91.2,80.6z"/>
	</g>
	<g>
		<path class="st3" d="M220.1,78.3c1.5,0,2.8,1.3,2.8,2.8c0,1.5-1.3,2.8-2.8,2.8c-1.5,0-2.8-1.3-2.8-2.8
			C217.3,79.6,218.6,78.3,220.1,78.3L220.1,78.3z"/>
		<path class="st3" d="M220.1,78.5c-1.4,0-2.6,1.2-2.6,2.6c0,1.4,1.2,2.6,2.6,2.6c1.4,0,2.6-1.2,2.6-2.6
			C222.7,79.7,221.5,78.5,220.1,78.5z"/>
		<path class="st16" d="M222.6,81.1l-0.5,0c0-0.1,0-0.1-0.1-0.2c-0.1-0.3-0.3-0.6-0.5-0.7l0,0l0,0c0,0,0,0,0,0
			c0-0.1-0.1-0.2-0.1-0.3l0.6-0.5C222.3,79.8,222.6,80.4,222.6,81.1z"/>
		<path class="st16" d="M220.1,78.6c0.7,0,1.3,0.3,1.7,0.7l-0.6,0.5c-0.1,0-0.2-0.1-0.3-0.1l0-0.2l0,0c0,0-0.1,0-0.1-0.1
			c0,0,0,0,0,0l0,0l0,0l-0.1-0.1l0,0c0,0-0.1,0-0.1,0c0,0-0.1,0-0.1,0l0,0l0,0l0,0.1c0,0,0,0,0,0c0,0,0,0,0,0l0,0c0,0,0,0,0.1,0l0,0
			c0,0,0,0,0,0l0,0l0,0l0,0l0,0c0,0,0,0.1,0,0.1l0,0c0,0-0.1,0-0.1,0c0,0,0,0.1,0,0c0,0,0.1,0,0.1,0.1l0,0c0,0.1,0.1,0.1,0.1,0.1
			c0,0,0,0,0-0.1l0,0c0-0.1,0-0.1,0,0l0,0l0,0l0-0.1c0.1,0,0.1,0,0.2,0.1c0,0.1,0.1,0.2,0.1,0.4c-0.1,0.1-0.3,0.3-0.4,0.6
			c-0.1,0.3-0.2,0.7-0.2,1l0,0l0,0c0,0,0,0-0.1,0c0,0,0,0,0,0l0,0l0,0c0,0,0,0,0,0c0,0,0,0,0,0l0,0l0,0c0,0,0-0.1,0-0.1
			c0,0-0.1-0.1-0.1-0.1c0,0,0,0,0,0c0,0,0,0,0-0.1c0,0,0,0,0,0l0,0c0,0-0.1,0-0.1,0l-0.1,0.1l-0.1-0.1l0-0.1c0,0,0,0,0,0l0,0l-0.1,0
			c0,0,0-0.1,0.1-0.1l0,0l0,0l-0.1,0l0,0l-0.1,0l0,0c0,0,0,0,0-0.1c0-0.1,0-0.1,0.1-0.1c0,0,0.1,0,0.1,0c0.1,0,0,0,0.1,0l0,0.1l0,0
			c0,0,0,0,0,0l0-0.1c0,0,0,0,0,0c0,0,0,0,0,0l0,0c0,0,0,0,0,0c0,0,0,0,0,0c0,0,0,0,0,0l0,0l0,0l0,0l0,0c0,0,0,0,0.1-0.1l0.1,0
			c0,0,0.1-0.1,0.1-0.1c0,0,0,0,0-0.1l0,0l0,0l0.1,0c0,0,0,0,0,0.1c0,0,0,0.1,0,0.1l0,0c0,0,0.1,0,0.1,0c0,0,0,0,0,0c0,0,0,0,0.1,0
			c0,0,0-0.1,0-0.1c0,0,0.1,0,0.1-0.1c0,0,0-0.1,0-0.1c0,0-0.1-0.1-0.1-0.1c0,0,0-0.1,0-0.1l0,0l0,0l0,0c0,0,0-0.1-0.1-0.1
			c0,0,0,0,0,0c0,0-0.1,0-0.1,0l0,0l0,0l0,0c0,0.1,0,0.1-0.1,0.2l0,0l0,0.1l0,0c0,0,0-0.1,0-0.1c0,0,0-0.1,0-0.1l-0.1,0l0,0
			c0,0,0-0.1,0-0.1c0,0,0,0,0-0.1l0,0l0,0l0,0c0,0,0.1-0.1,0.1-0.1c0,0,0.1,0,0.1,0c0,0,0-0.1,0-0.1l0-0.1l-0.1,0c0,0,0,0,0,0
			c0,0-0.1-0.1-0.1-0.1c0,0,0-0.1,0-0.1l0,0c0,0-0.1,0.1,0,0.1c0,0,0,0.1,0,0l0,0l0,0c0,0-0.1,0-0.1,0l-0.1,0c0,0,0,0-0.1,0l-0.1,0
			l0-0.1c0,0,0,0,0,0l0,0c0,0,0,0,0,0c0,0,0-0.1,0-0.1c-0.1,0-0.3,0-0.4-0.1l0,0c0,0-0.1-0.1-0.1-0.1l0,0c0,0-0.1,0-0.1,0
			c0,0-0.1,0.1-0.1,0.1c0,0,0,0,0,0.1l0,0c0,0,0,0.1,0,0.1l0,0c0,0,0,0-0.1,0l0,0l0,0l0,0l0,0l0,0.1c0,0-0.1,0.1-0.1,0.1
			c0,0,0,0,0,0.1c0,0,0,0,0.1,0.1l0.1,0.1c0,0,0,0,0,0c0,0,0,0,0,0c0,0,0,0,0,0c0,0,0,0,0,0c0,0,0,0-0.1,0c0,0-0.1,0-0.1,0l0,0
			c0,0,0,0-0.1,0l-0.5-0.5C218.8,78.9,219.4,78.6,220.1,78.6z"/>
		<path class="st16" d="M220,81.9l0,0.1c0,0,0,0.1,0,0.1c0,0,0,0.1,0,0.1l0,0l0,0c0,0-0.1,0.1-0.1,0.1c0,0,0,0.1,0,0.1l0,0
			c0,0,0,0.1,0,0.1c-0.3,0-0.6-0.1-1-0.3c0-0.1-0.1-0.2-0.1-0.3c0.1,0,0.2,0,0.4-0.1c0.1,0,0.2-0.1,0.3-0.2l0.1-0.1l-0.1-0.1
			l-0.3-0.3l-0.1,0.1c0,0-0.1,0.1-0.1,0.1c-0.1,0-0.1,0-0.2,0c0,0-0.1,0-0.1,0c0-0.3,0-0.6,0-0.8c0,0,0.1,0,0.1,0c0.1,0,0.1,0,0.2,0
			c0.1,0,0.1,0.1,0.1,0.1l0.1,0.1l0.3-0.3l-0.1-0.1c-0.1-0.1-0.2-0.2-0.3-0.2c-0.1,0-0.2-0.1-0.3-0.1c0-0.1,0.1-0.2,0.1-0.3
			c0.1,0,0.1-0.1,0.2-0.1c0.1,0,0.1,0,0.1,0c0.1,0,0.2,0,0.2-0.1c0,0,0,0,0,0c0,0.1,0,0.2,0,0.2c0.1,0.1,0.1,0.1,0.1,0.3
			c0,0.1,0,0.2,0,0.3l0,0c0,0,0,0.1,0,0.1c0.1,0.1,0,0.1,0,0.2c0,0,0,0,0,0.1c0,0.1,0,0.1,0.1,0.1c0-0.1,0-0.1,0-0.2l0,0l0-0.1l0,0
			c0,0,0,0,0,0c0,0,0,0.1,0,0.1c0,0,0,0.1,0,0.1l0,0.1l0,0.1c0,0.1,0.1,0.2,0.2,0.2l0.1,0.1c0,0,0,0.1,0,0.1l0,0c0,0,0,0,0.1,0
			c0,0,0,0,0,0l0,0.1l0,0l-0.1,0c0,0-0.1,0-0.1,0c0,0.1,0,0.1-0.1,0.1C219.9,81.8,220,81.9,220,81.9z"/>
		<path class="st16" d="M218.3,79.4l0.5,0.5c0,0.1-0.1,0.2-0.1,0.3c-0.2,0-0.4,0.1-0.6,0.3c-0.2,0.2-0.3,0.4-0.3,0.6l-0.3,0
			C217.6,80.4,217.9,79.8,218.3,79.4z"/>
		<path class="st3" d="M218.6,81.1l-0.2,0c0-0.1,0.1-0.2,0.1-0.3c0,0,0.1-0.1,0.1-0.1C218.6,80.8,218.6,81,218.6,81.1z"/>
		<path class="st3" d="M218.6,81.5C218.5,81.5,218.5,81.4,218.6,81.5c-0.2-0.1-0.2-0.2-0.2-0.3l0.2,0
			C218.6,81.3,218.6,81.4,218.6,81.5z"/>
		<path class="st16" d="M217.6,81.2l0.3,0c0,0.2,0.1,0.4,0.3,0.6c0.1,0.1,0.3,0.2,0.5,0.3c0,0.1,0.1,0.2,0.1,0.3l-0.5,0.5
			C217.8,82.4,217.6,81.8,217.6,81.2z"/>
		<path class="st16" d="M220.1,83.7c-0.7,0-1.3-0.3-1.7-0.7l0.5-0.5c0.3,0.1,0.6,0.2,0.9,0.2c0,0,0,0,0,0.1l0,0c0,0,0,0.1,0,0.2l0,0
			l0,0l0,0l0,0c0,0,0,0,0.1,0c0,0,0,0,0-0.1l0,0l0,0l0,0c0,0,0-0.1,0.1-0.1l0,0l0,0c0,0,0,0,0,0c0,0,0,0,0,0c0.4,0,0.8-0.1,1.2-0.2
			l0.5,0.5C221.4,83.4,220.7,83.7,220.1,83.7z"/>
		<path class="st16" d="M221.9,82.9l-0.5-0.6c0.1-0.2,0.1-0.3,0.2-0.5l0.3,0c0,0,0,0,0,0c0,0,0,0.1,0,0.1l0,0.1l0.4,0l0-0.1
			c0-0.3,0-0.5-0.1-0.8l0.4,0C222.6,81.9,222.3,82.5,221.9,82.9z"/>
		<path class="st16" d="M218.8,80.3c0.2,0,0.4,0.1,0.6,0.3l-0.2,0.2c-0.1-0.1-0.2-0.2-0.4-0.2c-0.3,0-0.5,0.2-0.5,0.5
			s0.2,0.5,0.5,0.5c0.2,0,0.3-0.1,0.4-0.2l0.2,0.2c-0.2,0.2-0.4,0.3-0.6,0.3c-0.4,0-0.8-0.4-0.8-0.8S218.3,80.3,218.8,80.3
			L218.8,80.3z"/>
		<path class="st16" d="M221.5,80.3c-0.4,0.2-0.6,0.9-0.7,1.6l0.3,0c0-0.1,0-0.2,0-0.2l0.7,0c0,0.1,0,0.2,0,0.2l0.3,0
			C222.2,81.2,221.9,80.5,221.5,80.3L221.5,80.3z"/>
		<path class="st16" d="M220.9,82.1L220.9,82.1C220.8,82.1,220.8,82,220.9,82.1l0.4,0l0-0.1c0,0,0-0.1,0-0.1c0,0,0,0,0,0l0.1,0
			c0,0.2-0.1,0.3-0.2,0.5c-0.3,0.1-0.7,0.2-1,0.2c0,0,0,0,0,0c0,0,0,0,0,0c0,0,0,0,0,0l0,0c0,0,0.1-0.1,0.1-0.1c0,0,0.1,0,0.1,0
			c0,0,0,0,0.1,0c0,0,0,0,0,0c0,0,0,0,0,0l0,0l0,0C220.8,82.2,220.8,82.2,220.9,82.1L220.9,82.1C220.9,82.1,220.9,82.1,220.9,82.1z"
			/>
		<path class="st3" d="M220.2,79.3L220.2,79.3c0,0.1,0,0.1,0,0.2c0,0,0,0.1,0.1,0.1c0.1,0,0.2,0.1,0.2,0l0-0.1c0,0,0-0.1,0-0.1
			c0,0,0-0.1-0.1-0.1C220.3,79.2,220.2,79.2,220.2,79.3z"/>
		<path class="st3" d="M220.1,79.3l0.1-0.1l0-0.1c0,0-0.1,0-0.1,0c0,0.1,0,0.1-0.1,0.1L220.1,79.3C220,79.3,220,79.3,220.1,79.3z"/>
		<path class="st3" d="M221.5,80.9c-0.1,0.1-0.1,0.2-0.2,0.5l0.4,0C221.7,81.1,221.6,81,221.5,80.9L221.5,80.9z"/>
		<path class="st3" d="M221.5,81c0,0.1-0.1,0.1-0.1,0.2l0.2,0C221.6,81.1,221.6,81.1,221.5,81L221.5,81z"/>
	</g>
	<rect x="167" y="82.8" class="st18" width="20.6" height="5.7"/>
	<rect x="168.1" y="83.8" class="st19" width="18" height="3.7"/>
	<polygon class="st0" points="169.5,68.7 177.3,91.7 180,92.1 182,71.9 179.9,71.9 178.7,88.9 171.8,69.3 	"/>
	<circle class="st20" cx="178.6" cy="94.1" r="3.1"/>
	<polygon class="st4" points="181.1,69.5 175.9,73.5 177.5,76.9 182,72.2 	"/>
	<polygon class="st4" points="174.7,73.2 173.5,76.2 170,71.6 172,69.1 	"/>
	<path class="st18" d="M204.3,84.9c0,0-0.5,2.2,1.5,5.8l15.7,1.7c0,0-1.9-4.3-0.7-6.3L204.3,84.9z"/>
	<path class="st19" d="M205.6,86.2c0,0,0,2.1,0.8,3.4l12.9,1.2c0,0-1-3-0.4-3.8L205.6,86.2z"/>
	<path class="st0" d="M208,73.4c0,0-2.9,14.5,3.3,23.5h2.6c0,0,4.2-19.2,3-25l-1.3,1c0,0-1,17.9-3.1,21.8c0,0-4.4-4.1-3.4-21
		L208,73.4z"/>
	<polygon class="st4" points="216.8,67.8 211.9,73.8 213.1,76.5 217.8,71.2 	"/>
	<polygon class="st4" points="209.6,73.3 207.4,69.3 206.9,73.4 209.5,75.7 	"/>
	<circle class="st20" cx="212.6" cy="97.1" r="3.1"/>
	<path class="st18" d="M112,71.4c0,0,13.5,7.5,19.4,6.1l-1.8,6.9c0,0-12.5-0.6-18.5-5.4C111.1,79,112.9,74.5,112,71.4z"/>
	<path class="st19" d="M114.1,74.4c0,0-0.6,2-1.1,4.4c0,0,8.9,4.5,15.6,3.8l1.1-3.5C129.8,79,121.8,78.8,114.1,74.4z"/>
	<path class="st0" d="M115.5,63.9c0,0,3.8,15.6,3.9,23l1.7,0.4c0,0,9.1-12,5.2-21.7l-1.9,0.6c0,0,5.1,6.1-3.6,19.4
		c0,0-1.3-15.9-3.8-21.4L115.5,63.9z"/>
	<circle class="st20" cx="119" cy="89.1" r="3.2"/>
	<polygon class="st4" points="116,59.7 120.1,66.4 120.6,69.2 115.2,63.7 	"/>
	<polygon class="st4" points="122.8,66.2 122.3,68.9 126.4,65.2 125.4,61.4 	"/>
	<path class="st18" d="M89.1,84.8c0,0-9,2.2-17.8,0.4l-0.1,6.6c0,0,11.9,2.4,16.9-0.2L89.1,84.8z"/>
	<path class="st19" d="M72.9,86.9v3c0,0,8.4,2.1,13.6,0.2l0.1-3.4C86.6,86.8,82.4,89.3,72.9,86.9z"/>
	<path class="st0" d="M78.5,72.8c0,0-2.2,13.7,7,17.1l1.2-0.4c0,0,2-11.2-0.7-17.2l0.6-1.7c0,0,4.3,8.3,0,22.2c0,0-14.6-4.8-9-21.2
		L78.5,72.8z"/>
	<circle class="st20" cx="86.3" cy="91.5" r="2.5"/>
	<polygon class="st4" points="77.3,67.5 81.1,72.8 79.8,75.5 75.2,70.2 	"/>
	<polygon class="st4" points="84.3,73.3 86.6,69.3 88,72 84.5,75.7 	"/>
	<g>
		<path class="st18" d="M68,251.6v3.8c0,4.6-4.4,7.2-12.9,7.2s-12.9-2.6-12.9-7.2v-15c0-4.6,4.4-7.2,12.9-7.2s12.9,2.6,12.9,7.2v2.8
			h-8.2v-3.1c0-2.1-1.7-2.8-4.5-2.8c-2.7,0-4.5,0.8-4.5,2.8v15.5c0,2.1,1.7,2.8,4.5,2.8c2.7,0,4.5-0.7,4.5-2.8v-4.1H68z"/>
		<path class="st18" d="M101.1,262.3h-8.7l-1.5-5.2H80.4l-1.5,5.2H71l8.8-28.8h12.6L101.1,262.3z M81.5,253.2h8.3l-4.2-14.5
			L81.5,253.2z"/>
		<path class="st18" d="M123.4,254l5.9-20.4h12v28.8h-8.2v-20.6l-6,20.6H119l-6.4-20.3v20.3h-7.5v-28.8h12L123.4,254z"/>
		<path class="st18" d="M173.2,240.6v3.7c0,4.6-4.2,7.1-12.9,7.1h-4.1v10.8h-8.6v-28.8h12.7C168.9,233.5,173.2,236,173.2,240.6z
			 M156.2,237.6v9.7h4.1c2.7,0,4.2-0.7,4.2-2.7v-4.3c0-2.1-1.5-2.7-4.2-2.7H156.2z"/>
		<path class="st18" d="M185.8,245.7h11.8v4.1h-11.8v8.4h14.9v4.1h-23.5v-28.8h23.5v4.1h-14.9V245.7z M198.1,227.5l-8,4.6h-5.8
			l5.3-4.6H198.1z"/>
		<path class="st18" d="M205.4,240.4c0-4.6,4.6-7.2,13.1-7.2c8.5,0,13.1,2.6,13.1,7.2v15c0,4.6-4.6,7.2-13.1,7.2
			c-8.5,0-13.1-2.6-13.1-7.2V240.4z M214,255.7c0,2.1,1.7,2.8,4.5,2.8c2.7,0,4.5-0.8,4.5-2.8v-15.5c0-2.1-1.7-2.8-4.5-2.8
			c-2.7,0-4.5,0.8-4.5,2.8V255.7z"/>
		<path class="st18" d="M244.8,241.5v20.8h-7.8v-28.8h10.8l8.9,17.2v-17.2h7.7v28.8h-8.9L244.8,241.5z"/>
	</g>
</g>
</svg>
