<?xml version="1.0" encoding="utf-8"?>
<!-- Generator: Adobe Illustrator 19.0.0, SVG Export Plug-In . SVG Version: 6.00 Build 0)  -->
<!DOCTYPE svg PUBLIC "-//W3C//DTD SVG 1.1//EN" "http://www.w3.org/Graphics/SVG/1.1/DTD/svg11.dtd">
<svg version="1.1" id="Layer_1" xmlns="http://www.w3.org/2000/svg" xmlns:xlink="http://www.w3.org/1999/xlink" x="0px" y="0px"
	 viewBox="0 0 435.3 111.2" style="enable-background:new 0 0 435.3 111.2;" xml:space="preserve">
<style type="text/css">
	.st0{fill:#4D4D4D;}
	.st1{fill:#7F7670;}
	.st2{fill:#95D5E2;}
	.st3{opacity:0.1;}
	.st4{clip-path:url(#SVGID_2_);}
	.st5{fill:#FFFFFF;}
	.st6{clip-path:url(#SVGID_2_);fill:none;stroke:#FFFFFF;stroke-width:3;stroke-miterlimit:10;}
	.st7{fill:#5773C6;}
	.st8{fill:#EDD034;}
	.st9{fill:#7AC46F;}
	.st10{fill:#1D1733;}
	.st11{fill:#F21630;}
</style>
<g>
	<path class="st0" d="M12.5,97.6c0,0-12.5-35-12.5-47.5s4.5-20.5,18-19c13.5,1.5,65.6-1,82.6-2.5S299,8.6,317.5,6.1s81.1-7,98.7,1.5
		c17.5,8.5,16,15,12,32.5c-4,17.5-17.5,67.1-17.5,67.1L12.5,97.6z"/>
	<g>
		<path class="st1" d="M12.3,77.6L407.6,86c1.1-4.3,2.4-8.9,3.6-13.4L8.7,64C9.7,68.3,11,73.1,12.3,77.6z"/>
		<path class="st1" d="M19.1,98.3l382.7,9.1c0,0,1.2-4.6,3.1-11.3L15.5,87.9C17.5,94,19.1,98.3,19.1,98.3z"/>
		<path class="st1" d="M421.1,29.7c-18.5-2.6-82.6-9.9-144.9,1.4C204.7,44.1,96.7,51.2,7.7,45.2C7.3,47.4,7,49.9,7,52.6
			c0,0.4,0,0.7,0,1.1l406.7,8.6c2-7.7,3.8-14.7,4.8-19.4C419.9,37.6,420.8,33.3,421.1,29.7z"/>
		<path class="st2" d="M15.5,87.9l389.3,8.2c0.8-3,1.7-6.5,2.7-10.2L12.3,77.6C13.4,81.3,14.5,84.8,15.5,87.9z"/>
		<path class="st2" d="M8.7,64l402.4,8.5c0.9-3.4,1.8-6.9,2.7-10.2L7.1,53.8C7.2,56.5,7.8,60.1,8.7,64z"/>
		<rect x="17.5" y="51.3" class="st1" width="1.7" height="15"/>
		<rect x="35" y="51.3" class="st1" width="1.7" height="15"/>
		<rect x="52.5" y="51.3" class="st1" width="1.7" height="15"/>
		<rect x="70" y="51.3" class="st1" width="1.7" height="15"/>
		<rect x="87.5" y="51.3" class="st1" width="1.7" height="15"/>
		<rect x="105" y="51.3" class="st1" width="1.7" height="15"/>
		<rect x="122.5" y="53.8" class="st1" width="1.7" height="15"/>
		<rect x="140" y="53.9" class="st1" width="1.7" height="15"/>
		<rect x="157.5" y="54.6" class="st1" width="1.7" height="15"/>
		<rect x="175" y="54.6" class="st1" width="1.7" height="15"/>
		<rect x="192.5" y="55.1" class="st1" width="1.7" height="15"/>
		<rect x="210" y="56.3" class="st1" width="1.7" height="15"/>
		<rect x="227.5" y="55.6" class="st1" width="1.7" height="15"/>
		<rect x="245" y="56.6" class="st1" width="1.7" height="15"/>
		<rect x="262.5" y="56.4" class="st1" width="1.7" height="15"/>
		<rect x="280" y="56.8" class="st1" width="1.7" height="15"/>
		<rect x="297.5" y="56.3" class="st1" width="1.7" height="15"/>
		<rect x="315" y="57.6" class="st1" width="1.7" height="15"/>
		<rect x="332.5" y="58.6" class="st1" width="1.7" height="15"/>
		<rect x="350" y="59.4" class="st1" width="1.7" height="15"/>
		<rect x="367.5" y="60.6" class="st1" width="1.7" height="15"/>
		<rect x="385" y="58.8" class="st1" width="1.7" height="15"/>
		<rect x="402.5" y="59.8" class="st1" width="1.7" height="15"/>
		<rect x="17.5" y="74.6" class="st1" width="1.7" height="15"/>
		<rect x="35" y="74.6" class="st1" width="1.7" height="15"/>
		<rect x="52.5" y="74.6" class="st1" width="1.7" height="15"/>
		<rect x="70" y="74.6" class="st1" width="1.7" height="15"/>
		<rect x="87.5" y="74.6" class="st1" width="1.7" height="15"/>
		<rect x="105" y="74.6" class="st1" width="1.7" height="15"/>
		<rect x="122.5" y="77.1" class="st1" width="1.7" height="15"/>
		<rect x="140" y="77.3" class="st1" width="1.7" height="15"/>
		<rect x="157.5" y="77.9" class="st1" width="1.7" height="15"/>
		<rect x="175" y="77.9" class="st1" width="1.7" height="15"/>
		<rect x="192.5" y="78.4" class="st1" width="1.7" height="15"/>
		<rect x="210" y="79.6" class="st1" width="1.7" height="15"/>
		<rect x="227.5" y="78.9" class="st1" width="1.7" height="15"/>
		<rect x="245" y="79.9" class="st1" width="1.7" height="15"/>
		<rect x="262.5" y="79.8" class="st1" width="1.7" height="15"/>
		<rect x="280" y="80.1" class="st1" width="1.7" height="15"/>
		<rect x="297.5" y="79.6" class="st1" width="1.7" height="15"/>
		<rect x="315" y="80.9" class="st1" width="1.7" height="15"/>
		<rect x="332.5" y="81.9" class="st1" width="1.7" height="15"/>
		<rect x="350" y="82.8" class="st1" width="1.7" height="15"/>
		<rect x="367.5" y="83.9" class="st1" width="1.7" height="15"/>
		<rect x="385" y="82.1" class="st1" width="1.7" height="15"/>
		<rect x="402.5" y="83.1" class="st1" width="1.7" height="15"/>
		<polygon class="st3" points="8.7,64 411.1,72.5 410.2,75.4 9.5,65.8 		"/>
		<polygon class="st3" points="12.4,77.6 407.6,86 406.9,88.3 12.7,78.8 		"/>
		<polygon class="st3" points="15.6,87.9 404.8,96.1 404.3,98.2 15.9,88.9 		"/>
		<polygon class="st3" points="7.1,53.7 413.8,62.4 413.1,65.2 7.2,55.7 		"/>
	</g>
	<g>
		<defs>
			<path id="SVGID_1_" d="M12.5,97.9c0,0-12.5-35-12.5-47.5s4.5-20.5,18-19s65.5-1,82.5-2.5s198-20,216.5-22.5s81-7,98.5,1.5
				s16,15,12,32.5s-17.5,67-17.5,67L12.5,97.9z"/>
		</defs>
		<clipPath id="SVGID_2_">
			<use xlink:href="#SVGID_1_"  style="overflow:visible;"/>
		</clipPath>
		<g class="st4">
			<path class="st5" d="M202.3,106.1c-22.8-76-46.7-83.7-47-83.7l0.8-2.9c1,0.3,25.7,8.2,49,85.8L202.3,106.1z"/>
		</g>
		<g class="st4">
			<path class="st5" d="M170.7,103.1c-15.3-60.5-5.8-84.1-5.3-85l2.8,1.2l-1.4-0.6l1.4,0.6c-0.1,0.2-9.5,23.9,5.5,83.1L170.7,103.1z
				"/>
		</g>
		<g class="st4">
			<path class="st5" d="M57.2,100.8l-1.4-2.7c0.4-0.2,38.6-19.5,85.1-40.4c43-19.3,102-43.8,139.3-51.4l0.6,2.9
				c-37.1,7.5-95.9,32-138.7,51.2C95.7,81.3,57.6,100.6,57.2,100.8z"/>
		</g>
		<g class="st4">
			<path class="st5" d="M94.7,101.2C93,56.9,94,29.2,94.4,28l2.8,0.9l-1.4-0.5l1.5,0.3C97,30.3,96,57.3,97.7,101L94.7,101.2z"/>
		</g>
		<g class="st4">
			<path class="st5" d="M110.4,101.7c-0.3-1.7-8.4-42.6-8.7-53.9C101.3,35.6,116,29,116.6,28.7l1.2,2.7c-0.1,0.1-13.4,6.1-13.1,16.3
				c0.3,11.1,8.6,53,8.6,53.4L110.4,101.7z"/>
		</g>
		<g class="st4">
			<path class="st5" d="M146.2,103.8c-0.2-0.4-22.1-43.5-26.4-53.1c-4.3-9.5-5.5-14.3-4.5-23.5l3,0.3c-0.9,8.1-0.1,12.2,4.2,21.9
				c4.3,9.5,26.1,52.5,26.3,52.9L146.2,103.8z"/>
		</g>
		<g class="st4">
			<path class="st5" d="M128.4,103.5c0-0.5-2.7-50.2-2.7-62.4c0-13.2,17.3-19.6,18.1-19.8l1,2.8c-0.2,0.1-16.1,5.9-16.1,17
				c0,12.2,2.6,61.8,2.7,62.3L128.4,103.5z"/>
		</g>
		<g class="st4">
			<path class="st5" d="M98.3,104.3l-2.1-2.2c84.7-82,108.6-87,109.5-87.2l0.5,3l-0.3-1.5l0.3,1.5C206.1,18,181.8,23.4,98.3,104.3z"
				/>
		</g>
		<g class="st4">
			<path class="st5" d="M151.3,104.4l-2.6-1.5c32.4-56.9,61.2-84.1,61.5-84.4l2,2.2C212,21,183.5,48,151.3,104.4z"/>
		</g>
		<g class="st4">
			<path class="st5" d="M240.1,107.3c-9.9-36.5-31.7-91.5-31.9-92.1l2.8-1.1c0.2,0.6,22.1,55.8,32.1,92.4L240.1,107.3z"/>
		</g>
		<g class="st4">
			<path class="st5" d="M303.5,108c-16.3-25.7-41.2-60.4-67.6-79.4c-15.7-11.3-24.6-11.6-24.7-11.7l0-3c1.5,0,37.3,1.5,94.8,92.4
				L303.5,108z"/>
		</g>
		<g class="st4">
			
				<rect x="203.4" y="59.1" transform="matrix(1.605026e-02 0.9999 -0.9999 1.605026e-02 304.1454 -187.957)" class="st5" width="88.3" height="3"/>
		</g>
		<g class="st4">
			<path class="st5" d="M262.5,107.6c-6.3-60.4-3.2-95-3.2-95.3l3,0.3c0,0.3-3.1,34.6,3.2,94.7L262.5,107.6z"/>
		</g>
		<g class="st4">
			<path class="st5" d="M273.5,107.1l-2.9-0.8c0.2-0.6,18.4-63.5,17.8-80.1c-0.2-6-2.5-13.5-11.7-15.1c-0.5-0.1-1.7-0.3-1.7-1.5
				l0-1.2l1.3-0.3l0.4,1.5l1.4,0c0-0.8-0.6-1.3-1.1-1.4c0.1,0,0.2,0,0.3,0C285.9,9.6,291,16,291.4,26
				C292,43.1,274.2,104.5,273.5,107.1z"/>
		</g>
		<g class="st4">
			<path class="st5" d="M251.8,106.5l-2.5-1.7c0.4-0.6,38.4-57.4,48.7-72.9c9.9-15,8.1-28.4,8.1-28.5l3-0.4c0.1,0.6,2,14.7-8.6,30.6
				C290.2,49.1,252.2,105.9,251.8,106.5z"/>
		</g>
		<g class="st4">
			
				<rect x="219" y="11.4" transform="matrix(0.9516 0.3073 -0.3073 0.9516 29.1741 -64.8507)" class="st5" width="3" height="97.6"/>
		</g>
		<g class="st4">
			<path class="st5" d="M323.8,110.2C304.2,98.4,252.2,76.4,212,60c-44.8-18.3-84.5-33.5-85.7-33.9l0.4-1.1l0.4-1.8
				c0.9,0.2,160.1,61.4,198.2,84.4L323.8,110.2z"/>
		</g>
		<g class="st4">
			<path class="st5" d="M184.3,105.6l-3-0.4c4.6-37.5,6-86.1,6-86.6l3,0.1C190.3,19.2,188.9,68,184.3,105.6z"/>
		</g>
		<g class="st4">
			<path class="st5" d="M228.3,102.8c-20.9-9-109.1-71.5-112.9-74.2l1.7-2.4c0.9,0.6,91.7,65,112.3,73.8L228.3,102.8z"/>
		</g>
		<g class="st4">
			<path class="st5" d="M210.5,105.4v-1.5l-0.4-1.5c0.9-0.2,10.9-3.8,23.5-8.3C267.6,82,330.6,59.5,370.8,47
				c55-17.1,62.2-24.1,62.3-24.2l2.3,2c-0.6,0.8-7.9,7.8-63.7,25.1c-40.2,12.4-103,35-136.9,47.1
				C211.7,105.2,210.5,105.4,210.5,105.4z"/>
		</g>
		<g class="st4">
			<path class="st5" d="M357.8,109c-13-20.8-72.7-68.1-79.5-73.4c-17.8-14-29.8-17-31.3-17c0,0,0.1,0,0.3-0.1l-0.9-2.8
				c1.6-0.6,14.8,2.6,33.8,17.5c6.8,5.3,66.9,52.9,80.2,74.1L357.8,109z"/>
		</g>
		<g class="st4">
			<path class="st5" d="M301.5,108l-2.9-0.7c0.2-0.7,16.2-65.7,18.1-78.8c1.8-11.7-8.1-20.5-9.1-21c0.1,0.1,0.7,0.3,1.2,0l-0.8-1.1
				h-1.6l0.8-1.5c0.9-0.5,1.8,0.1,2.3,0.4c2.6,1.9,11.9,11.3,10,23.7C317.7,42.3,302.1,105.4,301.5,108z"/>
		</g>
		<g class="st4">
			<path class="st5" d="M402.5,110.1c-32.3-59.7-147.8-93.3-149-93.6l0.8-2.9c0.3,0.1,29.7,8.6,62.8,24.4
				c30.6,14.7,70.8,38.8,88,70.7L402.5,110.1z"/>
		</g>
		<g class="st4">
			<path class="st5" d="M242.9,106.6C37.1,54.1,19.7,35.5,19,34.7l2.3-2c0.7,0.8,19.8,19.3,222.3,71L242.9,106.6z"/>
		</g>
		<g class="st4">
			<path class="st5" d="M110.5,103.3C105.9,92.5,81.4,33.6,81.1,33l2.8-1.2c0.2,0.6,24.7,59.5,29.3,70.3L110.5,103.3z"/>
		</g>
		<g class="st4">
			<path class="st5" d="M65.2,103l-2.8-1.2c0.1-0.3,14.7-33.8,19.6-47.9c5.1-14.7,27.4-28.2,28.4-28.8l1.5,2.6
				c-0.2,0.1-22.3,13.6-27.1,27.2C80,69.1,65.4,102.7,65.2,103z"/>
		</g>
		<g class="st4">
			<path class="st5" d="M85.7,101.4c-0.4-1.8-9.7-43.1-11-51.8c-1.4-9.3,8.8-20.7,9.2-21.2l2.2,2c-0.1,0.1-9.7,10.9-8.5,18.8
				c1.3,8.5,10.9,51.1,11,51.6L85.7,101.4z"/>
		</g>
		<g class="st4">
			<path class="st5" d="M63.7,100.6c-0.2-1.9-5.3-46.8-5.7-53.8C57.7,39.3,70.2,29.1,71.6,28l1.9,2.3C69.9,33.2,60.8,41.6,61,46.7
				c0.3,6.9,5.6,53.1,5.7,53.6L63.7,100.6z"/>
		</g>
		<g class="st4">
			<path class="st5" d="M39.9,99.8l-2.7-1.3c0.1-0.2,7.6-15.2,19.4-31.5C72.4,44.8,88,31,102.8,25.8l1,2.8
				C69.7,40.6,40.2,99.2,39.9,99.8z"/>
		</g>
		<g class="st4">
			<path class="st5" d="M375.4,108.2c-32.6-94.3-62.7-97.7-62.9-97.7l0.2-3c1.3,0.1,32.3,3.6,65.6,99.8L375.4,108.2z"/>
		</g>
		<g class="st4">
			<path class="st5" d="M326.5,107.2l-3-0.5c0.1-0.6,8.8-55.3,10.8-74.4c1.9-18.2-8.8-27.3-9.3-27.7l1.9-2.3
				c0.5,0.4,12.4,10.4,10.4,30.3C335.4,51.7,326.6,106.6,326.5,107.2z"/>
		</g>
		<g class="st4">
			<path class="st5" d="M337,106.8l-3-0.2c0-0.5,3.7-49.8,5.7-70c1.9-19.6-5.2-32.8-5.2-33l2.6-1.4c0.3,0.6,7.6,14.1,5.6,34.7
				C340.7,57,337.1,106.3,337,106.8z"/>
		</g>
		<g class="st4">
			<path class="st5" d="M343.3,106.6l-3-0.4c0.1-0.8,9.8-77.4,10.7-88.3c0.2-2.6-0.7-5-2.8-6.9c-3.6-3.4-9.3-4.5-10.2-4.4
				c0.1,0,0.5-0.2,0.8-0.6c0.2-0.4,0.2-0.9,0-1.2l-2.7,1.3c-0.3-0.6-0.2-1.4,0.3-1.9c1.7-1.8,8.7,1.2,8.7,1.3
				c6.2,2.8,9.3,7.4,8.8,12.7C353,29.1,343.4,105.8,343.3,106.6z"/>
		</g>
		<g class="st4">
			<path class="st5" d="M344.2,107.4l-2.9-0.9c0.2-0.7,21.1-68.9,24.1-81.4c2.7-11.5-11.9-22-12.1-22.1l1.7-2.5
				c0.7,0.5,16.5,11.7,13.3,25.2C365.3,38.3,345.1,104.6,344.2,107.4z"/>
		</g>
		<g class="st4">
			<path class="st5" d="M344.3,104.1l-2.3-1.9c0.7-0.8,67-80,74.4-97l2.7,1.2C411.6,23.7,347.1,100.8,344.3,104.1z"/>
		</g>
		<g class="st4">
			<path class="st5" d="M363,108.5l-2.9-0.6c6.3-28.7,18.3-84.6,18.3-90.8c0-7.2-9.4-14.7-9.5-14.7l1.9-2.4
				c0.4,0.3,10.7,8.5,10.7,17.1C381.4,25.2,363.7,105.1,363,108.5z"/>
		</g>
		<g class="st4">
			<path class="st5" d="M390.1,109.7c-7.8-45.8-17.8-72.5-24.8-86.8c-7.6-15.5-13.4-20.2-13.4-20.3l1.9-2.4
				c1,0.8,24,19.7,39.3,108.9L390.1,109.7z"/>
		</g>
		<g class="st4">
			<path class="st5" d="M383.3,109.1l-3-0.4c0.1-0.8,10.7-78.6,11.4-89.7C392.3,8.8,381,2.8,380.8,2.8l1.4-2.7
				c0.5,0.3,13.2,6.9,12.5,19.1C394,30.4,383.7,105.9,383.3,109.1z"/>
		</g>
		<g class="st4">
			<path class="st5" d="M420.5,75.1c-8.1-17.4-21.9-41.4-41.9-56.7c-12-9.1-20.6-10.8-20.7-10.8l0.5-3c1.5,0.3,36.1,7.2,64.8,69.2
				L420.5,75.1z"/>
		</g>
		<g class="st4">
			<path class="st5" d="M24.2,102.1l-2.9-0.9c0.2-0.5,16.2-51.5,63.6-73.2l1.2,2.7C40,51.9,24.4,101.6,24.2,102.1z"/>
		</g>
		<g class="st4">
			<path class="st5" d="M85.7,101.8c-1.8-2-43.8-49.3-36-71.5l2.8,1c-3,8.4,2.1,22.8,14.8,41.8C77.1,87.6,87.9,99.6,88,99.8
				L85.7,101.8z"/>
		</g>
		<g class="st4">
			<path class="st5" d="M10.3,91.1l-2.9-0.7C19.8,41.1,68.2,28.1,68.7,28l0.7,2.9C68.9,31,22.3,43.6,10.3,91.1z"/>
		</g>
		<g class="st4">
			<path class="st5" d="M56.6,101.6c-0.1-0.1-8.5-12.7-14.1-27.6C35,53.8,35.8,38.4,45,29.4l2.1,2.1c-20.2,19.9,11.7,67.9,12,68.4
				L56.6,101.6z"/>
		</g>
		<g class="st4">
			<path class="st5" d="M146.1,101.5C29.3,63.2,6.6,37.8,5.7,36.7l2.3-2C8.2,35,31.5,60.7,147,98.7L146.1,101.5z"/>
		</g>
		<g class="st4">
			<path class="st5" d="M37.7,98.1c0-0.1-3.3-12.5-5-27.1c-2.4-19.8-0.9-34.1,4.2-42.4l2.5,1.6c-11.5,18.6,1,66.7,1.2,67.2
				L37.7,98.1z"/>
		</g>
		<g class="st4">
			<path class="st5" d="M33.5,72.9c-0.5-0.5-13.1-12-12.2-25.6c0.5-7.1,4.5-13.4,12.1-18.6l1.7,2.5c-6.8,4.7-10.4,10.2-10.8,16.3
				c-0.8,12.1,11.1,23.1,11.2,23.2L33.5,72.9z"/>
		</g>
		<g class="st4">
			<path class="st5" d="M34.4,101.6c-0.9-1.8-22.8-44.8-20.4-58.1c2-11.4,11.8-13.4,16.6-12.9l-0.3,3c-0.5,0-11.3-1-13.4,10.4
				c-2.2,12.4,19.9,55.8,20.1,56.2L34.4,101.6z"/>
		</g>
		<g class="st4">
			<path class="st5" d="M18.6,101.2c-0.1-0.4-6.2-36.6-7.5-46.9c-1.4-10.8,7.6-24.6,8-25.2l2.5,1.6c-0.1,0.1-8.8,13.5-7.5,23.2
				c1.3,10.2,7.4,46.4,7.5,46.8L18.6,101.2z"/>
		</g>
		<g class="st4">
			<path class="st5" d="M8.5,85.1C8.4,83.4,4.3,44.7,15.8,29l2.4,1.8c-10.9,14.7-6.8,53.6-6.7,53.9L8.5,85.1z"/>
		</g>
		<path class="st6" d="M14.8,29.9c0,0-12.2-2.2-13.2,21.5c-0.7,17.7,12.5,50.4,13,48.5"/>
		<g class="st4">
			<path class="st5" d="M392.3,105.8l-2.9-0.7c0.1-0.6,13.4-59.2,17-77.3c1.4-7.1,0.3-13.1-3.5-17.8c-2.8-3.5-5.9-4.8-6-4.9l1.2-2.8
				c0.2,0.1,15.1,6.7,11.2,26C405.7,46.5,392.5,105.2,392.3,105.8z"/>
		</g>
		<path class="st6" d="M409.3,107.7c0,0,20.6-56.6,20.2-81.6c-0.3-25-41.7-21.7-41.7-21.7"/>
		<g class="st4">
			<path class="st5" d="M409,110l-3-0.1c0-0.5,0.9-45.9-3.3-66.8l2.9-0.6C410,63.7,409.1,108.1,409,110z"/>
		</g>
		<g class="st4">
			<path class="st5" d="M395.6,96.1l-2.7-1.3c0.3-0.6,29.2-61.9,28.9-81.7l3,0C425,33.5,396.8,93.5,395.6,96.1z"/>
		</g>
		<g class="st4">
			<path class="st5" d="M399,108.1l-2.9-0.8c0.2-0.7,17.6-66.5,19-98.6l3,0.1C416.7,41.3,399.2,107.4,399,108.1z"/>
		</g>
		<g class="st4">
			<path class="st5" d="M404.4,109.7l-2.8-1c0.2-0.6,22.5-60.9,25.1-90l3,0.3C427,48.4,405.4,107.2,404.4,109.7z"/>
		</g>
	</g>
	
		<rect x="3" y="100.4" transform="matrix(1 7.747239e-03 -7.747239e-03 1 0.8199 -1.6183)" class="st0" width="412.5" height="9.2"/>
	<g class="st3">
		<path d="M30.5,65.4c-2.2-15.8,2.8-27,7.7-33.9c-8.8,0.1-16.2,0-20.2-0.4c-13.5-1.5-18,6.5-18,19s12.5,47.5,12.5,47.5l23.1,0.6
			C34.5,92,32.7,81.5,30.5,65.4z"/>
		<path d="M416.2,7.6c-9.6-4.7-32.7-5.4-54.7-4.7c10.9,3,22.5,9.7,24.6,24.6c3.4,24.3-14.4,65.9-20.2,78.6l44.8,1.1
			c0,0,13.5-49.5,17.5-67.1C432.2,22.6,433.7,16.1,416.2,7.6z"/>
	</g>
	<path class="st3" d="M417.2,7.6c-17.5-8.5-80.1-4-98.7-1.5c-18.5,2.5-199.8,21-216.8,22.5c-17,1.5-69.1,4-82.6,2.5
		C7.5,29.8,2.5,35.5,1.3,45C87.3,57.6,280,30.3,344,22.4c53.3-6.6,78.7,8,86.1,13.5C433.3,21.5,433.3,15.4,417.2,7.6z"/>
	<path class="st5" d="M356.3,69.4h-39.4c-8,0-14.4-6.5-14.4-14.4v0c0-8,6.5-14.4,14.4-14.4h39.4c8,0,14.4,6.5,14.4,14.4v0
		C370.7,63,364.3,69.4,356.3,69.4z"/>
	<g>
		<path class="st7" d="M316.6,43.6c-4.2,0-7.7,3.4-7.7,7.7s3.4,7.7,7.7,7.7s7.7-3.4,7.7-7.7S320.8,43.6,316.6,43.6z M316.6,57.7
			c-3.5,0-6.4-2.9-6.4-6.4c0-3.5,2.9-6.4,6.4-6.4s6.4,2.9,6.4,6.4C323,54.8,320.1,57.7,316.6,57.7z"/>
		<path class="st8" d="M326.5,50.6c-4.2,0-7.7,3.4-7.7,7.7s3.4,7.7,7.7,7.7s7.7-3.4,7.7-7.7S330.8,50.6,326.5,50.6z M326.5,64.7
			c-3.5,0-6.4-2.9-6.4-6.4c0-3.5,2.9-6.4,6.4-6.4s6.4,2.9,6.4,6.4C332.9,61.8,330.1,64.7,326.5,64.7z"/>
		<path class="st9" d="M346.3,50.6c-4.2,0-7.7,3.4-7.7,7.7s3.4,7.7,7.7,7.7c4.2,0,7.7-3.4,7.7-7.7S350.5,50.6,346.3,50.6z
			 M346.3,64.7c-3.5,0-6.4-2.9-6.4-6.4c0-3.5,2.9-6.4,6.4-6.4c3.5,0,6.4,2.9,6.4,6.4C352.7,61.8,349.8,64.7,346.3,64.7z"/>
		<path class="st10" d="M336.6,43.6c-4.2,0-7.7,3.4-7.7,7.7s3.4,7.7,7.7,7.7s7.7-3.4,7.7-7.7S340.9,43.6,336.6,43.6z M336.6,57.7
			c-3.5,0-6.4-2.9-6.4-6.4c0-3.5,2.9-6.4,6.4-6.4s6.4,2.9,6.4,6.4C343,54.8,340.2,57.7,336.6,57.7z"/>
		<path class="st11" d="M356,43.6c-4.2,0-7.7,3.4-7.7,7.7s3.4,7.7,7.7,7.7s7.7-3.4,7.7-7.7S360.2,43.6,356,43.6z M356,57.7
			c-3.5,0-6.4-2.9-6.4-6.4c0-3.5,2.9-6.4,6.4-6.4s6.4,2.9,6.4,6.4C362.4,54.8,359.5,57.7,356,57.7z"/>
	</g>
</g>
</svg>
