<?xml version="1.0" encoding="utf-8"?>
<!-- Generator: Adobe Illustrator 18.1.1, SVG Export Plug-In . SVG Version: 6.00 Build 0)  -->
<svg version="1.1" id="Layer_1" xmlns="http://www.w3.org/2000/svg" xmlns:xlink="http://www.w3.org/1999/xlink" x="0px" y="0px"
	 viewBox="0 0 407.2 335.3" enable-background="new 0 0 407.2 335.3" xml:space="preserve">
<g>
	<path fill="#F9BD91" d="M93.7,17.6L83.6,50.1l-3.8-2.8l-4.2,8.5l-26.5-14L54.7,27C54.7,27,92.8-0.4,93.7,17.6z"/>
	<path fill="#603813" d="M54.7,26.8l14.3,3.3c0,0-0.2-4.2,2.6-5.9c2.8-1.6,10.1-0.9,5.6,9.2l1.9,1.6c0,0,3.5-8.5,5.9-9.6
		c2.3-1.2,6.3-8.9,6.3-8.9l1.4,1.6c0,0,6.1-2.3,5.2-9.6l-2.1,1.6c0,0-15-15-30.3-8.5C53.5,6.8,54.7,26.8,54.7,26.8z"/>
	<path fill="#CBB9A0" d="M16.9,292.8c0,0-5.6,5.3-3.5,15.5c0,0,16.2,5.3,39.8-0.7c0,0,1.1-3.9-6-5.3c-7-1.4-18-6-18.7-8.8
		C27.8,290.7,16.9,292.8,16.9,292.8z"/>
	<path d="M19,265.3c-0.7,25-2.8,30.3-2.8,30.3s10.9,6.3,14.1-1.1c3.2-7.4,5.6-21.9,9.5-29.3c1.6-3.1,3.5-7.7,5.2-13.7
		c-7-2.5-17.9-3.4-24.2-3.7C19.9,253.4,19.2,259.3,19,265.3z"/>
	<path d="M48.3,228.8c0.1-3,0.1-6.1,0-9.3c0,0-7.8-8.8-19-3.9c0,0-1.3,3.3-2.9,8.6C36.7,223.4,44,226.3,48.3,228.8z"/>
	<path fill="#551B10" d="M26.4,224.2c-1.8,5.9-4,14.3-5.6,23.7c6.3,0.3,17.2,1.2,24.2,3.7c1.7-6.2,3-13.9,3.3-22.8
		C44,226.3,36.7,223.4,26.4,224.2z"/>
	<path fill="#CAA67C" d="M29.3,198.3l-0.4,17.6c0,0,13-2.8,19.4,3.9l5.6-21.1L29.3,198.3z"/>
	<path fill="#E3E1BB" d="M29.6,306.9c0,0-5.6,5.3-3.5,15.5c0,0,16.2,5.3,39.8-0.7c0,0,1.1-3.9-6-5.3c-7-1.4-18-6-18.7-8.8
		C40.5,304.8,29.6,306.9,29.6,306.9z"/>
	<path fill="#0A0A02" d="M31.7,279.4c-0.7,25-2.8,30.3-2.8,30.3s10.9,6.3,14.1-1.1c3.2-7.4,5.6-21.9,9.5-29.3
		c1.6-3.1,3.5-7.7,5.2-13.7c-7-2.5-17.9-3.4-24.2-3.7C32.6,267.5,31.9,273.4,31.7,279.4z"/>
	<path fill="#0A0A02" d="M61,242.9c0.1-3,0.1-6.1,0-9.3c0,0-7.8-8.8-19-3.9c0,0-1.3,3.3-2.9,8.6C49.4,237.5,56.7,240.4,61,242.9z"/>
	<path fill="#691206" d="M39.1,238.3c-1.8,5.9-4,14.3-5.6,23.7c6.3,0.3,17.2,1.2,24.2,3.7c1.7-6.2,3-13.9,3.3-22.8
		C56.7,240.4,49.4,237.5,39.1,238.3z"/>
	<path fill="#F9BD91" d="M41.9,212.4L41.6,230c0,0,13-2.8,19.4,3.9l5.6-21.1L41.9,212.4z"/>
	<path fill="#F9BD91" d="M3.9,94.4L0,114.4L4.6,156c0,0-4.2,16.9-1.4,22.6c2.8,5.6,13.4,6,13.4,6s3.5-21.5-0.7-28.5
		c0,0-1.4-39.1-1.4-40.9c0-1.8,7-21.9,7-21.9L3.9,94.4z"/>
	<path fill="#F9BD91" d="M94.2,96l8.1,18.8l27.1,31.9c0,0,6,16.4,11.5,19.5c2,1.1,4.5,1.1,6.8,0.6c4.3-0.9,6.4-5.7,4.3-9.6
		c-3.3-6.1-8.7-14.6-13.3-16.8c0,0-23.1-31.6-24.1-33c-1-1.5-6.4-22-6.4-22L94.2,96z"/>
	<path fill="#050503" d="M80.4,160.6c0,0-2.1,37,2.1,54.3c0,0-31,11.3-46.2,1.4c0,0-16.6,3.9-23.6-6.3c0,0,4.2-41.9,4.9-54.3
		C17.6,155.7,79.3,147.6,80.4,160.6z"/>
	<path fill="#11100C" d="M21,92.9v11.6L0.8,101c0,0,7.1-46.5,18.4-50.7C19.2,50.3,19,87,21,92.9z"/>
	<path fill="#11100C" d="M85.6,89.8l10.9,21.1l16.9-10.2c0,0-4.6-38.1-20.8-46.5c0,0-22.2,15.9-7.4,37"/>
	<g>
		<path fill="#11100C" d="M92.2,57.9c0.7-0.9,1.4-1.8,2.2-2.7c0,0-20.7-11.3-24.4-13.6c0,0-13.2-5.6-22.1-1.9c0,0-18.3,5.2-28.7,9.9
			c0,0-0.6,4-0.6,4.9C48.8,41.6,80.4,51.8,92.2,57.9z"/>
		<path fill="#11100C" d="M22.9,110.1c0.1,8.1-0.6,17-1.6,24.9c11.9,2.2,39.6,6.5,60.2,2.8c0.4-7.3,1-15.4,1.6-23
			C73.7,112.5,49.7,107.7,22.9,110.1z"/>
		<path fill="#11100C" d="M18.6,65c0.4,6.3,1,13.8,1.8,21.3C31.9,86,64.6,86,85.3,95.1c0.4-2.5,0.8-4.5,1.2-6.1
			c0,0-2.7-7.3-0.8-16.7C60.8,64.2,28.2,64.6,18.6,65z"/>
		<path fill="#691206" d="M85.6,72.4c0.9-4.5,2.8-9.5,6.6-14.5c-11.8-6.1-43.4-17-73.5-4.1c0.1,2.4-0.5,4.7-0.1,11.2
			C28.2,64.6,60.8,64.2,85.6,72.4z"/>
		<path fill="#691206" d="M20.4,86.3c0.5,4.5,1,9,1.7,13.1c0.5,3.2,0.8,6.8,0.8,10.6c26.8-2.3,50.8,2.4,60.2,4.7
			c0.6-7.5,1.3-14.4,2.1-19.6C64.6,86,31.9,86,20.4,86.3z"/>
		<path fill="#691206" d="M21.3,135c-1.5,12.1-3.4,21.7-3.4,21.7s19.7,7.5,62.5,3.8c0,0,0.4-10,1.2-22.7
			C60.9,141.4,33.2,137.2,21.3,135z"/>
	</g>
	<g>
		<path fill="#FFFFFF" d="M47.1,113.5c-6.2-0.6-9.2-4.5-8.6-10.7l0.3-3.1c0.4-3.7,1.7-6.5,4.6-7.8c-2.4-1.6-3.4-4.4-3-8.2l0.1-1.2
			c0.6-6.2,4.3-9.5,10.5-8.9c6.2,0.6,9.2,4.5,8.6,10.7l-0.1,1.2c-0.4,3.8-1.9,6.3-4.5,7.5c2.5,1.8,3.4,4.8,3,8.5l-0.3,3.1
			C57,110.8,53.3,114.1,47.1,113.5z M46.3,85.5c-0.3,3.1,1.1,4.3,3.1,4.4c1.9,0.2,3.5-0.7,3.8-3.8l0.2-2.2c0.3-3.5-1.1-4.6-3-4.8
			s-3.5,0.6-3.9,4.1L46.3,85.5z M47.6,107.9c1.9,0.2,3.5-0.6,3.9-4.1l0.3-3.6c0.3-3.1-0.9-4.5-3-4.7s-3.6,1-3.9,4.1l-0.3,3.6
			C44.3,106.7,45.7,107.8,47.6,107.9z"/>
	</g>
	<path fill="#F9BD91" d="M138.8,140.3c0,0,12.4,2.3,13.8,7.9c1.4,5.6-3.5,9.2-3.5,9.2L138.8,140.3z"/>
</g>
<g>
	<path fill="#ECAD83" d="M259.9,285.3l-0.6,10.3l-34.4-0.9c0,0-0.8-6.8-5.5-8.2s-4,2.8-4,2.8s-9.8-6.8-11.9-3.3
		c-2.1,3.5-3.6,11.7,1.9,14.6s41.8,8,58.7,7.3c17-0.7,10.2-23.7,10.2-23.7L259.9,285.3z"/>
	<path fill="#EEF571" d="M376.5,307.2c0,0-0.7-5.9,4.9-8.8c2.1-1.1,4.8-0.2,5.9,1.9c2.4,4.5,7.1,12.6,12.4,15.5
		c7.5,4,9,18.5,6.6,19.2c-2.3,0.7-9.4,0.1-15.4-5.5c-6-5.6-13.4-10.1-13.4-10.1L376.5,307.2z"/>
	<path fill="#ECAD83" d="M294.2,287.8c0,0-15,21.4-7.5,30.5c7.5,9.2,30.3-1.4,30.3-1.4l5.9-20.7L294.2,287.8z"/>
	<path fill="#20357F" d="M294.6,280.8l-3.5,8c0,0,16.9,12.2,28.2,6.8l13.6-24.7l-6.6-5.6L294.6,280.8z"/>
	<path fill="#F9BD91" d="M314.6,296.5c0,0-13.9,15.3-11,24.4c2.8,9.2,31.5,7.3,31.5,7.3s0.2-13.9,7.8-18.6l-2.8-2.3L314.6,296.5z"/>
	<path fill="#F0F4F0" d="M334.3,328.5c0,0,29.3-4.9,45.1-9c0,0,1.7-11.5-2.8-14.6l-35.8,2.8C340.8,307.7,331.7,315.4,334.3,328.5z"
		/>
	<path fill="#F9BD91" d="M270.9,307.8l-0.7,10.3l-38.1-0.9c0,0-0.9-6.8-6.1-8.2s-4.5,2.8-4.5,2.8s-10.8-6.8-13.2-3.3
		c-2.3,3.5-4,11.7,2.1,14.6s46.3,8,65.1,7.3c18.8-0.7,11.3-23.7,11.3-23.7L270.9,307.8z"/>
	<path fill="#4360C3" d="M357.4,226.3c0,0,17.2,5.9,20.4,17.9c3.3,12-5.9,43-37.8,63.2l-28.2-8.7L357.4,226.3z"/>
	<path fill="#EFD300" d="M284.1,286c0,0,7.5,2.1,24.9-5.2c17.4-7.3,26.3-14.8,26.3-14.8l21.6,1.4c0,0,10.3-0.9,10.3-20.9
		s-14.6-22.3-14.6-22.3s-28.7-1.2-42.3,2.1c-13.6,3.3-28.9,12-43.5,13.6c-14.6,1.6-40.6,11.3-36.2,34.8
		C230.7,274.7,261.3,300.5,284.1,286z"/>
	<path fill="#F9BD91" d="M244.8,268.3l-13.2,10.6c0,0-12.7,22.6,10.6,32l22.1-15l-8.7-9.6l3.8-2.3
		C259.4,283.8,253.5,270.9,244.8,268.3z"/>
	<path fill="#ECC200" d="M262.4,262.2c0,0-10.8,8.7-3.1,21.6c7.8,12.9,9.6,14.6,9.9,20.9c0,0,11.3,4.5,18.8-1.2
		c0,0-0.9-19.5,0.7-28.7C290.4,265.8,277.2,251.7,262.4,262.2z"/>
	<path fill="#4360C3" d="M266.4,295.8c0,0,17.4,0.8,21.4-2.5l0.7,16c0,0-3.5,3.8-20,1.6C268.5,310.9,269.7,303.5,266.4,295.8z"/>
	<path fill="#ECC200" d="M242.5,270.4c0,0,1.8-4.2,6.5-0.4c0,0-2.8-7.4-7.6-4.9C236.7,267.6,242.5,270.4,242.5,270.4z"/>
	<path fill="#009245" d="M256.6,273.3c0,0-10.1-14.6-14.8-10.6c-4.7,4-1.9,8.7-1.9,8.7l1.9-1.4c0,0-1.2-4.2,1.6-4s13.4,12,13.4,12
		L256.6,273.3z"/>
	<path fill="#754C24" d="M242,271.1c0,0-0.6-5-6.3-3.4c0,0-6.9-5.7-9,0.1c0,0-7.8-2.8-6.3,5.1c0,0-9.9-2.3-8.2,6.3c0,0-10,0-6.1,8.6
		c0,0-5.9,4.2,1,9.9c0,0-4.5,6,3,10.7c0,0-2.4,10.2,8.7,8.5c0,0,5.5,8,13.3,0.8c0,0,11.2,2.6,12.7-5.5c0,0,7.1-1.3,7-9
		c0,0,4.8-2.6,1.6-8.9c0,0,7.4-6.3-0.5-9.9c0,0,5-6-2.8-7.3C250.2,277,250.4,269.4,242,271.1z"/>
	<g>
		<path fill="#FFFFFF" d="M329.7,279.2l9.7-8.4l2.7,1.3l-5.2,10.6l1.2,0.6l-1.1,2.2l-1.2-0.6l-1.4,2.9l-2.5-1.2l1.4-2.9l-4.7-2.3
			L329.7,279.2z M334.5,281.5l2.9-5.8l-5.3,4.6L334.5,281.5z"/>
	</g>
	<path fill="#009245" d="M273.8,238.6l1,2.9l31.3,2.3l5.8-2l-4.1-12.2l7.4-2.5l-0.6-1.7c-1.3,0.2-2.5,0.5-3.7,0.7
		C299.3,228.9,286.4,235.7,273.8,238.6z M287,236.6l15-5.1l2.1,6.3L287,236.6z"/>
</g>
</svg>
