<?xml version="1.0" encoding="utf-8"?>
<!-- Generator: Adobe Illustrator 18.1.1, SVG Export Plug-In . SVG Version: 6.00 Build 0)  -->
<svg version="1.1" id="Layer_1" xmlns="http://www.w3.org/2000/svg" xmlns:xlink="http://www.w3.org/1999/xlink" x="0px" y="0px"
	 viewBox="0 0 224.2 91.9" enable-background="new 0 0 224.2 91.9" xml:space="preserve">
<g>
	<linearGradient id="SVGID_1_" gradientUnits="userSpaceOnUse" x1="0" y1="34.2224" x2="215.016" y2="34.2224">
		<stop  offset="3.717596e-03" style="stop-color:#2484C6;stop-opacity:0"/>
		<stop  offset="0.1319" style="stop-color:#338BC7;stop-opacity:0.1279"/>
		<stop  offset="0.3791" style="stop-color:#5B9DCA;stop-opacity:0.3744"/>
		<stop  offset="0.7169" style="stop-color:#9ABAD0;stop-opacity:0.7113"/>
		<stop  offset="0.9846" style="stop-color:#D1D3D4;stop-opacity:0.9783"/>
	</linearGradient>
	<path opacity="0.52" fill="url(#SVGID_1_)" d="M215,4.9L0,31.4l148.3,32.1c0,0,24.4-27.6,27.2-29.3S215,4.9,215,4.9z"/>
	<path fill="#A97C50" d="M221.5,11.8L209.7,19l-1.2-1.9l-4.1,2.5c0,0-5.5,0.4-4.5-7.3l8.5-5.2c0,0-0.7-1.8,1.2-2.9s2.1,1.2,2.1,1.2
		l4.1-2.5L221.5,11.8z"/>
	<polygon fill="#A97C50" points="156.3,40.5 144.8,59.8 115.8,77.8 117.7,82.9 150.3,67.2 167.1,50.1 	"/>
	<polygon fill="#A97C50" points="190.7,44.3 202.9,60.3 171.9,73.8 168.4,71 187.4,58.5 179.4,54.5 	"/>
	<polygon fill="#009B70" points="151.6,48.3 160,57.3 170.1,48.3 179.4,54.5 190.7,44.3 183.7,36.7 178.1,43 162.2,29.6 157.1,36.9 
			"/>
	<path fill="#A97C50" d="M216.6,26.1c8,0.6,7.9-2.9,7.5-4.1c-0.5-1.2-4.7,0-4.7,0s1.8-0.3,1.5-1.2c-0.4-0.9-2.5-0.6-2.5-0.6
		s-3.6,0.2-3.6,2.7S216.6,26.1,216.6,26.1z"/>
	<path fill="#EF7A2B" d="M172.6,74.1l-3.5-3.6c0,0-6,3-1.6,8l6,6.1c0,0,4.2-1.5,0.9-5.3C174.2,79.3,171.7,75.6,172.6,74.1z"/>
	<path fill="#EF7A2B" d="M118.2,82.4l-1.1-4.9c0,0-6.7-0.5-5.6,6l1.9,8.3c0,0,4.4,0.9,3.5-4.1C116.9,87.7,116.7,83.2,118.2,82.4z"/>
	<polygon fill="#FFF200" points="162.2,29.6 174,22.6 194.2,6.9 204.2,8.1 205.9,20.8 191.3,32.1 183.7,36.7 178.1,43.5 	"/>
	<polygon fill="#A97C50" points="202.9,11.2 202.1,22.8 215.5,21.7 215.5,25.2 192.1,31.4 191.7,20 187.2,14.6 194.3,7.9 202.9,9.3 
			"/>
	<polygon fill="#A97C50" points="197.9,7.3 187.8,0 169,8.7 169.5,11.8 186.8,6.9 189,10.9 194.2,6.9 	"/>
	<path fill="#A97C50" d="M168.1,8.1c-7.3,3.5-5.4,6.5-4.5,7.3c1,0.8,4.1-2.4,4.1-2.4s-1.4,1.2-0.7,1.8c0.8,0.6,2.5-0.7,2.5-0.7
		s3-1.9,1.8-4.1C170.1,7.9,168.1,8.1,168.1,8.1z"/>
	<path fill="#231F20" d="M211.7,5.4l-0.7,0.8l0.7,1.1l3.3-2.4c0,0,0.1,1,1.9,1l4.6,5.8c0,0,0.8-3.6-1.4-7.7s-7-3.5-9.5-0.2
		C210.7,3.9,211.5,4.4,211.7,5.4z"/>
	<path fill="#F1F2F2" d="M153.6,48.4c0.8,0.2,4.1,4.7,4.1,4.7l6.1-5.2l-7.3-6L153.6,48.4z"/>
	<polygon fill="#F1F2F2" points="174.9,21.9 176.7,24 187.9,17.7 185.6,13.6 	"/>
</g>
</svg>
