<?xml version="1.0" encoding="utf-8"?>
<!-- Generator: Adobe Illustrator 18.1.1, SVG Export Plug-In . SVG Version: 6.00 Build 0)  -->
<svg version="1.1" id="Layer_1" xmlns="http://www.w3.org/2000/svg" xmlns:xlink="http://www.w3.org/1999/xlink" x="0px" y="0px"
	 viewBox="0 0 412.1 711.6" enable-background="new 0 0 412.1 711.6" xml:space="preserve">
<path fill="#0F0F0F" d="M200.1,675.1c-27.6-17.7-25.6-13.8-25.6-13.8s-17.7,6.9-17.7,34.5c0,0,3,1.5,8.4,3.7l6.4-7.6l2.1,10.7
	c13.7,4.5,34.6,9.6,59,9C232.7,711.6,227.7,692.8,200.1,675.1z"/>
<path fill="#0F0F0F" d="M57.6,671.3c-2,0-32,6-49.8,25h67l6.9-5.9l4.9,5.9h12.8l-6.9-25H57.6z"/>
<path fill="#315573" d="M121.5,161.1c-44.6-0.5-56.9,17.7-56.9,17.7s-20,109.4,14.8,208.5c0,0,36.2-5.2,96.9,1.5
	c0,0-11.8-155.3,33.3-210C209.5,178.9,188,161.9,121.5,161.1z"/>
<path fill="#0F0F0F" d="M135.3,121.7c0,0,25.2,7.9,23.6-16.5c0,0,18.7-4.5,14.1-19.5c0,0,14.2-18.8-5.1-26.9c0,0,11.7-20.6-6-23
	c0,0,8.4-22.3-17.2-18.2c0,0-6.2-24.5-25.5-9.4c0,0-17.5-20.4-30.2,3.4c0,0-18.3-15.8-26,5.7c0,0-24.4,1.7-15.7,23.5
	c0,0-13.8,12,0.3,25.4c0,0-13.3,14.9,5,26.2c0,0-12.1,17.7,8.6,21.1c0,0,6.2,24.5,23.1,13.5C84.4,126.9,130.2,132.2,135.3,121.7z"/>
<path fill="#F9BD91" d="M61.6,40.5l16.1,85.3c1.8,7.5,8.9,12,16.6,11.4l11.7-2l0.7,22.2c0,0,15.8,29,33.3-5.2l-0.8-58.3
	c0,0,9.9-4.5,7.1-16.5S132.8,74,132.8,74l-10.5-42.8L61.6,40.5z"/>
<path fill="#0F0F0F" d="M136,70.6c0,0-8.6,2.1-5.7,15.9c0,0-14.3-14.2-4.7-24.7c0,0-9.1-5.3-5.1-17.9c0,0-11.3-0.4-9.9,12.8
	c0,0-7.9-7-3.3-15.9c0,0-8.2,9.6-17.2,5c0,0-5.7,6.2-15.9,3.3c0,0-7.4,4.9-0.1,13.5c0,0-9.7,0.1-13.7-15s0.1-18,0.1-18l62.4-3.3
	L136,70.6z"/>
<path fill="#F9BD91" d="M139.2,154.5l-18.5,31.8l-14.1-28.1C106.7,158.2,109.2,133.3,139.2,154.5z"/>
<path fill="#214C6B" d="M103,178.1l-13.3,13.3c0,0,0-31.8,16.3-39.2l0,0c1.5,6.9,10.7,28.7,14.3,34.8L103,178.1z"/>
<path fill="#0F0F0F" d="M62.3,54.8c0,0,9.6,8.2,11.9,22.8c0,0-7.8-11.5-12.7-9.2C56.6,70.7,62.3,54.8,62.3,54.8z"/>
<path fill="#214C6B" d="M121.7,186.5c0,0,22.7-19.7,35.2,11.6c0,0,13.3-33.3-17.7-50.3C139.2,147.8,129.1,171.7,121.7,186.5z"/>
<path fill="#315573" d="M182.1,219.5c0,0,15.5,91.7,44.4,93.9s33.3-48.8,33.3-48.8l-22.9-8.1c0,0-7.4-58.4-27.4-77.6
	S149.6,224,149.6,224L182.1,219.5z"/>
<path fill="#214C6B" d="M227.2,262.9c0,0-5.2,8.9-5.9,20.2c0,0-19-39.4,10.4-53.2l3.7,19L227.2,262.9z"/>
<path fill="#214C6B" d="M120.3,185.8c0,0-8.1,38-7.6,57.7c0.5,19.7,4.1,31.2-1.4,58.3c-5.4,27.1,7,83.5,7,83.5h-4.9
	c0,0-10.8-52.8-5.4-84.3s2.5-49.3,2-59.2C109.4,231.9,114.8,194.4,120.3,185.8z"/>
<path fill="#214C6B" d="M77.9,398c0,0-42.9,150.6-21.4,277.1c0,0,16.3,9.6,36.2,0c0,0-22.2-170.8,32.5-241.1c0,0,34.8,58.7,35.5,243
	c0,0,22.9,11.3,40.7-1.2c0,0,7.6-178.2-23.9-278.8C177.4,397,130.4,369.4,77.9,398z"/>
<path fill="#FEFEFE" d="M77.9,398c0,0,30.6-10.8,99.6-1l-2-14.8c0,0-47.3-5.9-98.6,1l2.5,4.2L77.9,398z"/>
<ellipse transform="matrix(0.9621 -0.2728 0.2728 0.9621 -53.6551 75.9101)" fill="#F9BD91" cx="246.2" cy="230.9" rx="7" ry="11.8"/>
<g>
	<path fill="#D6C319" d="M261.7,229.5l5.7-8.6c0.9-1.3,2.1-2.4,3.5-3.1l32.3-15.9c2.7-1.4,6.2,0,6.7,3c0.1,0.5-0.3,2.3-0.6,3.6
		c-0.4,1.7,2,5.4,4.3,10.7c0.9,2.2,0,4.8-2.1,5.9l-30.2,15c-1.4,0.7-3,1-4.6,0.9l-8.8-0.7L261.7,229.5z"/>
	<path fill="#020202" d="M146.9,294.5c0,0,17.3,35.9-0.9,44.8s-24.4,1.7-33.9,8.1s-10.3,37.5-40.1,47s-47.9-1.7-62.8-31.3
		s-13.5-61.6,16.6-76.7c30.1-15.1,48.7,6.8,60.3,1.1c11.5-5.7,9.7-19.1,23.9-22.3c0,0,5.7,29.6,30,24.9S146.9,294.5,146.9,294.5z"/>
	<circle fill="#0071BC" cx="141.5" cy="326.7" r="5.1"/>
	<circle fill="#0071BC" cx="60.3" cy="303.1" r="2.8"/>
	<circle fill="#0071BC" cx="43.9" cy="298.8" r="2.8"/>
	<circle fill="#0071BC" cx="28.2" cy="308.6" r="2.8"/>
	
		<rect x="65.7" y="319.9" transform="matrix(-0.4407 -0.8976 0.8976 -0.4407 -176.581 545.329)" fill="#8E343E" width="31.7" height="15.6"/>
	
		<rect x="50.1" y="331.7" transform="matrix(-0.4407 -0.8976 0.8976 -0.4407 -205.9301 542.3614)" fill="#8E343E" width="31.7" height="7.2"/>
	
		<rect x="34.8" y="338" transform="matrix(-0.4407 -0.8976 0.8976 -0.4407 -229.9828 539.9294)" fill="#8E343E" width="36.9" height="7.2"/>
	<polygon fill="#D6C319" points="110.7,300.4 119.6,318.5 269.7,240.7 263.2,227.5 	"/>
	
		<rect x="98.7" y="303.7" transform="matrix(-0.4407 -0.8976 0.8976 -0.4407 -114.5096 551.605)" fill="#8E343E" width="31.7" height="15.6"/>
</g>
<path fill="#F9BD91" d="M263.4,257.9c0,0-6.1,8.2-17,10.4c-10.9,2.2-28.7-7.3-29.5-15.4c-0.8-8.1,8.1-24.4,30.8-15.4
	C261.9,243.2,269.1,250.7,263.4,257.9z"/>
<path fill="#315573" d="M64.6,178.9c0,0-65.8,91-57.7,110.9c8.1,20,72.5,0.7,72.5,0.7s-18.5-14.1-9.6-34L64.6,178.9z"/>
<path fill="#214C6B" d="M62.3,255.8c0,0-3.7-32.5,3.7-56.9c0,0-8.9,17-9.6,36.2c0,0-2.2-4.4-2.2-17.7c0,0-4.4,24.4-0.7,34.8
	c0,0-15.5,6.7-23.7,5.9C29.8,258,39.4,266.1,62.3,255.8z"/>
<path fill="#214C6B" d="M80.1,255.8c0,0-7.1-2.5-8.9,0L52,259l5.7-6.9L80.1,255.8z"/>
<path fill="#F9BD91" d="M71.2,256.2c0,0,21.4,1.8,24.4-10c2.3-9.4,28.1-12.6,28.8-3.7c0.7,8.9,3.7,18.5-4.4,31.1
	c-8.1,12.6-41.4,16.3-41.4,16.3S63.1,284.3,71.2,256.2z"/>
<g>
	<rect x="328.7" y="234.6" fill="#333333" width="8.6" height="455.1"/>
	
		<rect x="283.8" y="215.4" transform="matrix(0.76 0.6499 -0.6499 0.76 226.1766 -165.5977)" fill="#333333" width="107.1" height="16.2"/>
	
		<rect x="301.5" y="191.1" transform="matrix(0.76 0.6499 -0.6499 0.76 203.5524 -153.0598)" fill="#1A1A1A" width="15.2" height="16"/>
	<circle fill="#333333" cx="292.4" cy="186.1" r="19.5"/>
	
		<rect x="346.6" y="233.9" transform="matrix(0.76 0.6499 -0.6499 0.76 241.6197 -180.4521)" fill="#1A1A1A" width="37.1" height="6.2"/>
	<rect x="328" y="210.1" fill="#1A1A1A" width="9.2" height="28.1"/>
	<rect x="321.2" y="235.6" fill="#4D4D4D" width="22.5" height="8.1"/>
	<rect x="254" y="687.8" fill="#333333" width="158" height="11.9"/>
	<rect x="319.5" y="677" fill="#1A1A1A" width="27.1" height="10.8"/>
	<rect x="322" y="404.3" fill="#1A1A1A" width="22.2" height="36"/>
</g>
</svg>
