<?xml version="1.0" encoding="utf-8"?>
<!-- Generator: Adobe Illustrator 18.1.1, SVG Export Plug-In . SVG Version: 6.00 Build 0)  -->
<svg version="1.1" id="Layer_1" xmlns="http://www.w3.org/2000/svg" xmlns:xlink="http://www.w3.org/1999/xlink" x="0px" y="0px"
	 viewBox="0 0 343.4 321.4" enable-background="new 0 0 343.4 321.4" xml:space="preserve">
<g>
	<path fill="#58595B" d="M204.1,23.8l-31.8,19.5l-3.1-5.1l-11,6.8c0,0-14.7,1.2-12.1-19.7l22.9-14.1c0,0-1.8-4.8,3.1-7.7
		s5.5,3.3,5.5,3.3l11-6.8L204.1,23.8z"/>
	<path fill="#58595B" d="M172.1,97.9c23.3-4.4,20.4-14.2,18.2-17.2c-2.2-3-13.4,3.6-13.4,3.6s4.9-2.3,3.2-4.6
		c-1.7-2.3-7.6,0.2-7.6,0.2s-10.1,3.2-8.3,10.3C166,97.1,172.1,97.9,172.1,97.9z"/>
	<path fill="#58595B" d="M140,293.5l-15.5-0.2c0,0-6.3,19.4,13.7,20.8l26,0.4c0,0,5.9-12.2-9.5-13.3
		C154.8,301.2,141.4,298.7,140,293.5z"/>
	<path fill="#58595B" d="M114.2,131.3l9.7,53c0,0-36-1.9-37.4-2.9c-1.5-1-15.1-23.6-15.1-23.6v16.8l-36.9-16.8l10.2-59.5l83.1-89.9
		l29.6,3.9v50.5l-6.3,14.6L114.2,131.3z"/>
	<polygon fill="#58595B" points="120.7,90 140.4,90 140.4,97.3 163.7,88.3 168.4,96.3 121.3,120.9 	"/>
	<path fill="#58595B" d="M204.1,23.8c0,0,6.7-22.9-15.5-23.8C188.6,0,189.5,25.5,204.1,23.8z"/>
	<polygon fill="#58595B" points="93.6,182.3 106.2,218.8 129.5,218.8 122.4,184.3 	"/>
	<path fill="#58595B" d="M66.2,172.2c-0.6,1.6-12.3,33.2-12.3,33.2l-19.4-9.5l6-35.4L66.2,172.2z"/>
	<polygon fill="#58595B" points="106.2,218.8 124.9,297 138.7,295.8 129.5,218.8 	"/>
	<polygon fill="#58595B" points="53.9,205.4 13.1,272.7 0,268.6 34.5,195.9 	"/>
	<path fill="#58595B" d="M16.4,268.2L0.9,268c0,0-6.3,19.4,13.7,20.8l26,0.4c0,0,5.9-12.2-9.5-13.3
		C31.2,275.9,17.7,273.4,16.4,268.2z"/>
	<polygon fill="#58595B" points="91.3,131.3 98.5,182.6 100.9,183 93.6,131.3 	"/>
	<polygon fill="#58595B" points="102.7,132.6 109.8,183.9 112.2,184.3 104.9,132.6 	"/>
	<polygon fill="#58595B" points="97.3,131.6 104.4,182.9 106.8,183.2 99.5,131.6 	"/>
	<polygon fill="#58595B" points="127.1,90 129.2,47.3 141.9,35.1 141.9,36.3 130.7,48.2 129,90 	"/>
	<polygon fill="#58595B" points="130.5,90 132.4,49.2 143.3,38 144.6,40.5 134.5,49.9 132.4,90 	"/>
	<polygon fill="#58595B" points="134.5,90 137.5,50.7 145.7,42.2 147,43.4 139.2,52.1 136.5,90 	"/>
	<g>
		<path fill="#58595B" d="M304.8,257c-16,18.9-23.4,11.3-25.1,7.7c-1.6-3.5,10.1-10.4,10.1-10.4s-4.7,3.3-5.9,0.6
			c-1.2-2.7,4-6.8,4-6.8s8.1-7.5,13.6-2.3C307.2,251.1,304.8,257,304.8,257z"/>
		<path fill="#58595B" d="M197.6,196.8l7.9-37l-21.6-7.4l40.7-7.8l31.3-51.4l-4.5-11.2l25.9-23c0,0,35.8-7.6,54.2,66.2l4.6,54.5
			l-27.7-1.3L305,166l-19.1,29.9c0,0-12.4,29.6-44.4,19.8L197.6,196.8z"/>
		<polygon fill="#58595B" points="205.5,159.8 178.2,150 157.4,164.2 173.3,187.5 197.6,196.8 		"/>
		<path fill="#58595B" d="M157.4,164.2l-67.9,60.1l7.6,11.1l76.3-47.9C173.3,187.5,165.4,168.2,157.4,164.2z"/>
		<path fill="#58595B" d="M93.2,223.1l9.2,10.3c0,0-9.5,15.6-22.1,2.9l-15.5-17.4c0,0,4.8-11.1,14.6-1.3
			C79.3,217.6,88.9,225.2,93.2,223.1z"/>
		<path fill="#58595B" d="M313.9,34.1l-19.7,33.2l5.3,3.2L292.7,82c0,0-1,15.3,20.6,12.2l14.2-23.9c0,0,5,1.7,8-3.3
			c3-5.1-3.5-5.7-3.5-5.7l6.8-11.5L313.9,34.1z"/>
		<polygon fill="#58595B" points="332.4,179.6 335.1,215.5 304.9,255.6 295.6,247.8 314.7,209.4 311.4,178.6 		"/>
		<polygon fill="#58595B" points="251.4,82.1 192.5,91.1 199.7,101.7 248.9,104.7 255.8,93.3 		"/>
		<path fill="#58595B" d="M194.2,88.5c-24,4-21.5,14.3-19.4,17.5s13.9-3.4,13.9-3.4s-5.1,2.3-3.5,4.8c1.6,2.4,7.8,0,7.8,0
			s10.5-3.1,8.9-10.5C200.3,89.5,194.2,88.5,194.2,88.5z"/>
		<path fill="#58595B" d="M331.9,61.3l-7,5.6l-2.5-1l7.2-12.6c0,0-5.5-1.9-10.2-7.8l-6.3-4.8l3.8,0.2L306,34.2l7.8-0.1l-3.8-5.8
			c0,0,4.1,4.5,12.1,6.4c8,1.9,22.5,5.7,21.1,13.3S336.1,64,336.1,64S336.1,62.4,331.9,61.3z"/>
	</g>
	<polygon fill="#6D6E71" points="150.8,15.5 127.1,13.6 52.6,96.3 129.5,18.9 	"/>
	<polygon fill="#6D6E71" points="66.2,120.9 68,148 86.1,175.4 101.7,177 87.6,170.9 71.4,146.5 	"/>
	<polygon fill="#6D6E71" points="45.8,104.7 38.6,154.4 64.8,166.8 41.8,151.4 	"/>
	<polygon fill="#6D6E71" points="41.8,166.8 38.6,196.8 4.4,266.6 43.5,196.8 46.2,168.7 	"/>
	<polygon fill="#6D6E71" points="98.5,182.6 127.1,289.2 102.7,182.3 	"/>
	<path fill="#6D6E71" d="M161,18.9l27.9-15.8c0,0,12.1-1.1,13.2,13.2c0,0-6.4-10.5-12.1-10.5L161,18.9z"/>
	<path fill="#6D6E71" d="M176.6,11c0,0,0.5-7.5-3-6.6c0,0,3.7,4.6,0,7.5S176.6,11,176.6,11z"/>
	<polygon fill="#6D6E71" points="122.6,91.7 122.6,117.5 164,97.9 124.3,114.3 124.8,91.7 	"/>
	<polygon fill="#6D6E71" points="125,196.8 125,204.5 176.6,160.5 	"/>
	<polygon fill="#6D6E71" points="187.8,153.8 227.4,150 255.8,100.7 230.4,153.8 	"/>
	<polygon fill="#6D6E71" points="199.4,91.7 252.8,85.8 276.1,66.9 255.8,88.5 	"/>
	<polygon fill="#6D6E71" points="313.1,40.6 300.8,66.9 306,76.6 305.3,64.3 	"/>
	<polygon fill="#6D6E71" points="300.8,132.6 311.4,178.6 324.7,177 313.1,173.4 	"/>
	<polygon fill="#6D6E71" points="315.7,184.3 319.3,209.9 298.2,247.9 324.7,209.9 317.8,184.3 	"/>
	<polygon fill="#414042" points="111.5,132.6 134.5,283.8 107.5,135.8 	"/>
	<path fill="#414042" d="M157.4,42.2c2.4-0.7,11-7,11-7s2,5.5,5.1,5.5c3.1,0,25.9-16.8,25.9-16.8L174.5,38l-6.1-5L157.4,42.2z"/>
	<polygon fill="#414042" points="64.8,173.4 50.4,166.8 60.1,175.1 50.4,203.7 	"/>
	<path fill="#414042" d="M178.4,185.2l64.9,26.8c0,0,25.4,4.1,36.2-13.4l23.6-34.4l-5-17l2.6,15.4l-24.6,34.1
		c0,0-8.9,14.1-33.5,11.5L178.4,185.2z"/>
	<path fill="#414042" d="M116.5,90l24.2-1.7c0,0,16.5-17.8,12.3-37c0,0-2.1,18.8-12.3,33.1L116.5,90z"/>
	<path fill="#414042" d="M315.7,85.5l10.1-17.3c0,0,8.2,1.1,8.7-6l4.2-8.7l-6.8,7.7c0,0,2.7,5.4-8,5.6L315.7,85.5z"/>
	<polygon fill="#414042" points="254,96.3 250.3,102.2 204.1,100.7 248,100.7 	"/>
	<polygon fill="#414042" points="127.6,209.6 128.4,213.5 171.8,185.2 	"/>
</g>
<g>
	<path fill="#F9BD91" d="M239.4,208.8l-12.3,7.6l-1.2-2l-4.3,2.6c0,0-5.7,0.5-4.7-7.6l8.9-5.4c0,0-0.7-1.8,1.2-3
		c1.9-1.2,2.1,1.3,2.1,1.3l4.3-2.6L239.4,208.8z"/>
	<path fill="#F9BD91" d="M227,237.5c9-1.7,7.9-5.5,7.1-6.7c-0.8-1.2-5.2,1.4-5.2,1.4s1.9-0.9,1.3-1.8s-2.9,0.1-2.9,0.1
		s-3.9,1.2-3.2,4C224.6,237.2,227,237.5,227,237.5z"/>
	<path fill="#FCDF6E" d="M214.6,313.2l-6-0.1c0,0-2.4,7.5,5.3,8.1l10.1,0.1c0,0,2.3-4.7-3.7-5.2
		C220.3,316.2,215.1,315.2,214.6,313.2z"/>
	<path fill="#F3FDFC" d="M204.6,250.4l3.8,20.5c0,0-13.9-0.8-14.5-1.1c-0.6-0.4-5.8-9.1-5.8-9.1v6.5l-14.3-6.5l4-23.1l32.2-34.8
		l11.5,1.5v19.6l-2.4,5.6L204.6,250.4z"/>
	<polygon fill="#F9BD91" points="207.1,234.4 214.7,234.4 214.7,237.3 223.8,233.8 225.5,236.9 207.3,246.4 	"/>
	<path fill="#F9BD91" d="M239.4,208.8c0,0,2.6-8.9-6-9.2C233.4,199.6,233.7,209.5,239.4,208.8z"/>
	<polygon fill="#F9BD91" points="196.6,270.2 201.5,284.3 210.5,284.3 207.8,270.9 	"/>
	<path fill="#F9BD91" d="M186,266.3c-0.3,0.6-4.8,12.9-4.8,12.9l-7.5-3.7l2.3-13.7L186,266.3z"/>
	<polygon fill="#F3FDFC" points="201.5,284.3 208.7,314.6 214.1,314.1 210.5,284.3 	"/>
	<polygon fill="#F3FDFC" points="181.2,279.1 165.4,305.2 160.3,303.6 173.7,275.5 	"/>
	<path fill="#FCDF6E" d="M166.7,303.5l-6-0.1c0,0-2.4,7.5,5.3,8.1l10.1,0.1c0,0,2.3-4.7-3.7-5.2
		C172.4,306.4,167.2,305.5,166.7,303.5z"/>
	<polygon fill="#474D7B" points="195.7,250.4 198.5,270.3 199.4,270.4 196.6,250.4 	"/>
	<polygon fill="#474D7B" points="200.1,250.9 202.9,270.8 203.8,270.9 201,250.9 	"/>
	<polygon fill="#9D1216" points="198,250.5 200.8,270.4 201.7,270.5 198.9,250.5 	"/>
	<polygon fill="#474D7B" points="209.5,234.4 210.4,217.9 215.3,213.2 215.3,213.6 211,218.3 210.3,234.4 	"/>
	<polygon fill="#9D1216" points="210.9,234.4 211.6,218.6 215.8,214.3 216.3,215.2 212.4,218.9 211.6,234.4 	"/>
	<polygon fill="#474D7B" points="212.4,234.4 213.6,219.2 216.8,215.9 217.3,216.4 214.2,219.8 213.2,234.4 	"/>
	<g>
		<path fill="#F9BD91" d="M278.4,299.1c-6.2,7.3-9.1,4.4-9.7,3s3.9-4,3.9-4s-1.8,1.3-2.3,0.2c-0.5-1.1,1.6-2.6,1.6-2.6
			s3.1-2.9,5.3-0.9C279.3,296.8,278.4,299.1,278.4,299.1z"/>
		<path fill="#274592" d="M236.8,275.8l3.1-14.3l-8.4-2.8l15.8-3l12.1-19.9l-1.7-4.3l10-8.9c0,0,13.9-3,21,25.6l1.8,21.1l-10.7-0.5
			l-1.3-4.8l-7.4,11.6c0,0-4.8,11.4-17.2,7.7L236.8,275.8z"/>
		<polygon fill="#F9BD91" points="239.9,261.5 229.4,257.7 221.3,263.2 227.5,272.2 236.8,275.8 		"/>
		<path fill="#274592" d="M221.3,263.2L195,286.4l2.9,4.3l29.5-18.5C227.5,272.2,224.4,264.7,221.3,263.2z"/>
		<path fill="#FCDF6E" d="M196.4,286l3.6,4c0,0-3.7,6-8.6,1.1l-6-6.8c0,0,1.9-4.3,5.7-0.5C191.1,283.8,194.8,286.8,196.4,286z"/>
		<path fill="#F9BD91" d="M281.9,212.8l-7.6,12.9l2.1,1.2l-2.6,4.5c0,0-0.4,5.9,8,4.7l5.5-9.3c0,0,1.9,0.7,3.1-1.3
			c1.2-2-1.4-2.2-1.4-2.2l2.6-4.5L281.9,212.8z"/>
		<polygon fill="#F9BD91" points="289.1,269.1 290.1,283 278.4,298.6 274.8,295.5 282.2,280.7 280.9,268.8 		"/>
		<polygon fill="#F9BD91" points="257.7,231.4 234.9,234.8 237.7,239 256.7,240.1 259.4,235.7 		"/>
		<path fill="#F9BD91" d="M235.5,233.9c-9.3,1.6-8.3,5.5-7.5,6.8s5.4-1.3,5.4-1.3s-2,0.9-1.4,1.8s3,0,3,0s4-1.2,3.5-4.1
			C237.9,234.2,235.5,233.9,235.5,233.9z"/>
		<path fill="#231F20" d="M288.9,223.3l-2.7,2.2l-1-0.4l2.8-4.9c0,0-2.1-0.7-4-3l-2.4-1.9l1.5,0.1l-4.2-2.6l3,0l-1.5-2.2
			c0,0,1.6,1.7,4.7,2.5c3.1,0.7,8.7,2.2,8.2,5.2c-0.6,3-2.8,6.1-2.8,6.1S290.5,223.7,288.9,223.3z"/>
	</g>
</g>
</svg>
