<?xml version="1.0" encoding="utf-8"?>
<!-- Generator: Adobe Illustrator 18.1.1, SVG Export Plug-In . SVG Version: 6.00 Build 0)  -->
<svg version="1.1" id="Layer_1" xmlns="http://www.w3.org/2000/svg" xmlns:xlink="http://www.w3.org/1999/xlink" x="0px" y="0px"
	 viewBox="0 0 508.9 679.6" enable-background="new 0 0 508.9 679.6" xml:space="preserve">
<g>
	
		<rect x="302.6" y="34.5" transform="matrix(-0.9322 0.362 -0.362 -0.9322 608.4509 10.4859)" fill="#58595B" width="1.3" height="55.4"/>
	
		<rect x="374.5" y="31.7" transform="matrix(-0.9151 -0.4032 0.4032 -0.9151 694.593 264.9533)" fill="#58595B" width="1.3" height="55.4"/>
	<path fill="#B11407" d="M46.5,643.3h28.8l164-225.4l108.4,105.5l-19.2,119.9h28.8l40.3-125.7l-54.7-137.2l54.7-102.6l64.3,85.4
		l36.5,4.8l-48.9-76.7l-25.9-79.6c0,0-76.7-84.4-188-20.1L115.6,382.4l25.9,8.6l97.8-127.6l-38.4,75.8L46.5,643.3z"/>
	<path fill="#F9BD91" d="M114.9,381.1c-29.7,40-11.2,51.1-3.6,52.6s15.6-24.6,15.6-24.6s-4.3,10.7,1.6,11.8
		c5.9,1.1,11.5-11.1,11.5-11.1s11-19.4-1.9-27.7C125.3,373.7,114.9,381.1,114.9,381.1z"/>
	<path fill="#F9BD91" d="M492.6,357.1c29.7,40,11.2,51.1,3.6,52.6s-15.6-24.6-15.6-24.6s4.3,10.7-1.6,11.8
		c-5.9,1.1-11.5-11.1-11.5-11.1s-11-19.4,1.9-27.7C482.1,349.7,492.6,357.1,492.6,357.1z"/>
	<polygon fill="#F9ED32" points="176.5,387.2 233.3,426.1 239.3,417.9 265,443 349.4,396.9 342.9,380.5 355.9,356.1 284.4,366.6 
		212.9,315.5 	"/>
	<path fill="#F9BD91" d="M377.8,100.3L372,184l-13.4-0.9l-2,29c0,0-17.1,28.5-51.9-3.6l4.2-60.3c0,0-11-3-10.1-15.8
		c0.9-12.8,13.3-5.8,13.3-5.8l2-29L377.8,100.3z"/>
	<path fill="#F9ED32" d="M47.5,643.3h28.6c0,0,11.1,36.1-26,38.2H1.9c0,0-10.6-22.8,18-24.4C20,657.1,44.9,652.9,47.5,643.3z"/>
	<path fill="#F9ED32" d="M356,641.4h-28.6c0,0-11.1,36.1,26,38.2h48.3c0,0,10.6-22.8-18-24.4C383.6,655.2,358.7,651,356,641.4z"/>
	<path fill="#F9ED32" d="M299.4,354.1c0,0,48.6-15.8,71-52.3s-31.3-40.9-43.5-18.5c0,0-24-41.6-54.5-7.7
		C272.4,275.6,257.2,300.2,299.4,354.1z"/>
	<path fill="#B11407" d="M306.2,185.7l11.4-77.6c0,0,31.3-15,59.6,0l-2.6,37.4c0,0,9.2-40,9.2-48s-7.6-17.6-38.8-17.6
		s-45.8,3.2-46.3,36.5S295.5,172.5,306.2,185.7z"/>
	<path fill="#231F20" d="M318.5,106.4c-4.4,6.5-9.5,12.4-15.2,17.8c9.9-1.4,19.3-6.3,26.1-13.7c-7.1,11.3-15.4,23-27.8,27.7
		c18.4-0.6,36.1-12.2,44-28.9c-0.9,10.3-6.8,20-15.5,25.6c13.5-3.1,25.3-12.9,31-25.5c0,7.7-3.4,15.4-9.2,20.6
		c10.2-4.7,20.6-11.8,23.2-22.7c1-4.1,0.6-8.8-2.5-11.7c-2.3-2.1-5.5-2.8-8.6-3.4c-6.9-1.3-13.8-2.5-20.8-2.3
		c-7,0.2-14.1,2-19.7,6.2c-5.6,4.2-9.5,11-9,18"/>
	<circle fill="#F9ED32" cx="392.1" cy="20.5" r="20.5"/>
	<circle fill="#B11407" cx="281.2" cy="24.9" r="20.5"/>
</g>
</svg>
