<?xml version="1.0" encoding="utf-8"?>
<!-- Generator: Adobe Illustrator 18.1.1, SVG Export Plug-In . SVG Version: 6.00 Build 0)  -->
<svg version="1.1" id="Layer_1" xmlns="http://www.w3.org/2000/svg" xmlns:xlink="http://www.w3.org/1999/xlink" x="0px" y="0px"
	 viewBox="0 0 153.3 346.7" enable-background="new 0 0 153.3 346.7" xml:space="preserve">
<g>
	<path fill="#F9BD91" d="M4.5,178.7c-4.3,22.9,5.7,23.7,9.3,22.8c3.5-0.9,1.5-13.5,1.5-13.5s0.4,5.4,3.1,4.6s2.6-7,2.6-7
		s0.6-10.4-6.5-11.3C7.3,173.5,4.5,178.7,4.5,178.7z"/>
	<path fill="#F1F2F2" d="M4.5,178.7l12.1-3.7l24-78.9l-10.9-29C29.6,67.2,11.5,122.9,4.5,178.7z"/>
	<polygon fill="#E6E7E8" points="42.8,181.1 29.6,231 65.7,231 73.4,202.8 81.1,231 116.2,227.6 98.8,180.8 	"/>
	<polygon fill="#F9BD91" points="31,231 26.1,269.7 46.7,269.7 59.2,231 	"/>
	<polygon fill="#F9BD91" points="85,231 98.8,263.2 119.1,263.2 112.3,227.6 	"/>
	<polygon fill="#E6E7E8" points="26.1,269.1 19.2,328.4 29.6,331.8 46.7,269.7 	"/>
	<polygon fill="#E6E7E8" points="98.8,263.2 123.6,331.8 134.8,331.8 119.1,263.2 	"/>
	<path fill="#F9BD91" d="M131.2,172.3c3.9,20.9-5.2,21.6-8.5,20.8c-3.2-0.8-1.4-12.3-1.4-12.3s-0.4,4.9-2.8,4.2
		c-2.5-0.7-2.3-6.4-2.3-6.4s-0.6-9.5,5.9-10.3C128.6,167.5,131.2,172.3,131.2,172.3z"/>
	<path fill="#F1F2F2" d="M40.5,96.1l2.3,85l56-0.3l3.7-79.8l16.9,71.1h8l-16.1-105c0,0-39.8-17.7-81.8,0L40.5,96.1z"/>
	<path fill="#F9BD91" d="M86.1,15v34.7h-5.6v12c0,0-6.2,12.3-21.5,0v-25c0,0-4.6-0.9-4.6-6.2s5.3-2.8,5.3-2.8v-12L86.1,15z"/>
	<path fill="#F7941E" d="M134.8,331.8h-11.2c0,0-4.4,14.1,10.2,14.9h18.9c0,0,4.1-8.9-7-9.5C145.5,337.2,135.8,335.5,134.8,331.8z"
		/>
	<path fill="#F7941E" d="M19.2,328.4h11.2c0,0,4.4,14.1-10.2,14.9H1.4c0,0-4.1-8.9,7-9.5C8.5,333.8,18.2,332.2,19.2,328.4z"/>
	<g>
		<g>
			<path fill="#FFFFFF" d="M90.7,91.8c-0.1,0-0.1-0.1-0.1-0.1c0-0.1,0.1-0.1,0.1-0.1c0.1,0,0.1,0.1,0.1,0.1
				C90.9,91.8,90.8,91.8,90.7,91.8 M89,92.4c-0.1,0-0.1-0.1-0.1-0.1c0-0.1,0.1-0.1,0.1-0.1c0.1,0,0.1,0.1,0.1,0.1
				C89.2,92.3,89.1,92.4,89,92.4 M92.6,91.7c-0.1,0-0.1-0.1-0.1-0.1c0-0.1,0.1-0.1,0.1-0.1c0.1,0,0.1,0.1,0.1,0.1
				C92.7,91.7,92.6,91.7,92.6,91.7 M95.8,90.8c0.1,0.1,0.2,0.2,0.1,0.3c-0.1,0.1-0.2,0.2-0.3,0.1c-0.1-0.1-0.2-0.2-0.1-0.3
				C95.5,90.8,95.6,90.8,95.8,90.8 M91,88.1c-0.1,0-0.1-0.1-0.1-0.1c0-0.1,0.1-0.1,0.1-0.1c0.1,0,0.1,0.1,0.1,0.1
				C91.1,88,91.1,88.1,91,88.1 M91.5,88.5c-0.1,0-0.1-0.1-0.1-0.1c0-0.1,0.1-0.1,0.1-0.1c0.1,0,0.1,0.1,0.1,0.1
				C91.6,88.4,91.6,88.5,91.5,88.5 M91.5,89c-0.1,0-0.1-0.1-0.1-0.1c0-0.1,0.1-0.1,0.1-0.1c0.1,0,0.1,0.1,0.1,0.1S91.6,89,91.5,89
				 M91.5,89.5c-0.1,0-0.1-0.1-0.1-0.1c0-0.1,0.1-0.1,0.1-0.1c0.1,0,0.1,0.1,0.1,0.1C91.7,89.4,91.6,89.5,91.5,89.5 M90.6,88.2
				c-0.1,0-0.1-0.1-0.1-0.1c0-0.1,0.1-0.1,0.1-0.1c0.1,0,0.1,0.1,0.1,0.1C90.7,88.1,90.6,88.2,90.6,88.2 M90.1,88.4
				c-0.1,0-0.1-0.1-0.1-0.1c0-0.1,0.1-0.1,0.1-0.1c0.1,0,0.1,0.1,0.1,0.1C90.3,88.3,90.2,88.4,90.1,88.4 M89.7,88.7
				c-0.1,0-0.1-0.1-0.1-0.1c0-0.1,0.1-0.1,0.1-0.1c0.1,0,0.1,0.1,0.1,0.1C89.8,88.6,89.8,88.7,89.7,88.7 M89.4,89.1
				c-0.1,0-0.1-0.1-0.1-0.1c0-0.1,0.1-0.1,0.1-0.1c0.1,0,0.1,0.1,0.1,0.1C89.5,89,89.5,89.1,89.4,89.1 M88.9,89.1
				c-0.1,0-0.1-0.1-0.1-0.1c0-0.1,0.1-0.1,0.1-0.1c0.1,0,0.1,0.1,0.1,0.1C89.1,89,89,89.1,88.9,89.1 M88.5,89.3
				c-0.1,0-0.1-0.1-0.1-0.1c0-0.1,0.1-0.1,0.1-0.1c0.1,0,0.1,0.1,0.1,0.1C88.6,89.2,88.6,89.3,88.5,89.3 M88.1,89.6
				c-0.1,0-0.1-0.1-0.1-0.1c0-0.1,0.1-0.1,0.1-0.1c0.1,0,0.1,0.1,0.1,0.1C88.2,89.5,88.2,89.6,88.1,89.6 M87.8,90
				c-0.1,0-0.1-0.1-0.1-0.1c0-0.1,0.1-0.1,0.1-0.1c0.1,0,0.1,0.1,0.1,0.1C87.9,89.9,87.9,90,87.8,90 M87.6,90.4
				c-0.1,0-0.1-0.1-0.1-0.1c0-0.1,0.1-0.1,0.1-0.1c0.1,0,0.1,0.1,0.1,0.1C87.7,90.4,87.7,90.4,87.6,90.4 M87.5,90.9
				c-0.1,0-0.1-0.1-0.1-0.1c0-0.1,0.1-0.1,0.1-0.1c0.1,0,0.1,0.1,0.1,0.1C87.6,90.9,87.6,90.9,87.5,90.9 M89.2,89.5
				c-0.1,0-0.1-0.1-0.1-0.1c0-0.1,0.1-0.1,0.1-0.1c0.1,0,0.1,0.1,0.1,0.1C89.3,89.5,89.3,89.5,89.2,89.5 M89.1,90
				c-0.1,0-0.1-0.1-0.1-0.1c0-0.1,0.1-0.1,0.1-0.1c0.1,0,0.1,0.1,0.1,0.1C89.2,90,89.2,90,89.1,90 M91.6,90.4
				c-0.1,0-0.3-0.1-0.3-0.2c0-0.1,0.1-0.3,0.2-0.3c0.1,0,0.3,0.1,0.3,0.2C91.8,90.2,91.7,90.3,91.6,90.4 M89.5,90.7
				c-0.1,0-0.3,0-0.3-0.2c0-0.1,0-0.3,0.2-0.3c0.1,0,0.3,0,0.3,0.2C89.7,90.5,89.6,90.7,89.5,90.7 M87.7,91.7
				c-0.1,0.1-0.3,0-0.4-0.1c-0.1-0.1,0-0.3,0.1-0.3c0.1-0.1,0.3,0,0.3,0.1C87.9,91.4,87.8,91.6,87.7,91.7 M91.9,87.7
				c0.1,0,0.1,0.1,0.1,0.1S92,88,91.9,88c-0.1,0-0.1-0.1-0.1-0.1S91.8,87.7,91.9,87.7 M92.4,87.8c0.1,0,0.1,0.1,0.1,0.1
				c0,0.1-0.1,0.1-0.1,0.1S92.2,88,92.2,88C92.2,87.9,92.3,87.8,92.4,87.8 M92.8,87.9c0.1,0,0.1,0.1,0.1,0.1c0,0.1-0.1,0.1-0.1,0.1
				c-0.1,0-0.1-0.1-0.1-0.1C92.7,88,92.7,88,92.8,87.9 M93.3,88.2c0.1,0,0.1,0.1,0.1,0.1c0,0.1-0.1,0.1-0.1,0.1
				c-0.1,0-0.1-0.1-0.1-0.1C93.1,88.3,93.2,88.2,93.3,88.2 M93.6,88.6c0.1,0,0.1,0.1,0.1,0.1c0,0.1-0.1,0.1-0.1,0.1
				c-0.1,0-0.1-0.1-0.1-0.1C93.5,88.6,93.5,88.6,93.6,88.6 M94.1,88.5c0.1,0,0.1,0.1,0.1,0.1c0,0.1-0.1,0.1-0.1,0.1
				c-0.1,0-0.1-0.1-0.1-0.1C93.9,88.6,94,88.5,94.1,88.5 M94.5,88.7c0.1,0,0.1,0.1,0.1,0.1c0,0.1-0.1,0.1-0.1,0.1
				c-0.1,0-0.1-0.1-0.1-0.1C94.4,88.7,94.4,88.7,94.5,88.7 M94.9,88.9c0.1,0,0.1,0.1,0.1,0.1c0,0.1-0.1,0.1-0.1,0.1
				c-0.1,0-0.1-0.1-0.1-0.1C94.8,89,94.9,88.9,94.9,88.9 M95.3,89.3c0.1,0,0.1,0.1,0.1,0.1c0,0.1-0.1,0.1-0.1,0.1
				c-0.1,0-0.1-0.1-0.1-0.1C95.2,89.4,95.2,89.3,95.3,89.3 M95.5,89.8c0.1,0,0.1,0.1,0.1,0.1c0,0.1-0.1,0.1-0.1,0.1
				c-0.1,0-0.1-0.1-0.1-0.1C95.4,89.8,95.4,89.8,95.5,89.8 M95.7,90.3c0.1,0,0.1,0.1,0.1,0.1c0,0.1-0.1,0.1-0.1,0.1
				c-0.1,0-0.1-0.1-0.1-0.1C95.5,90.3,95.6,90.3,95.7,90.3 M93.9,89c0.1,0,0.1,0.1,0.1,0.1c0,0.1-0.1,0.1-0.1,0.1s-0.1-0.1-0.1-0.1
				C93.7,89.1,93.8,89,93.9,89 M94,89.5c0.1,0,0.1,0.1,0.1,0.1c0,0.1-0.1,0.1-0.1,0.1c-0.1,0-0.1-0.1-0.1-0.1
				C93.9,89.6,93.9,89.5,94,89.5 M93.8,90c0.1,0,0.2,0.2,0.2,0.3c0,0.1-0.2,0.2-0.3,0.2c-0.1,0-0.2-0.2-0.2-0.3
				C93.5,90.1,93.7,90,93.8,90 M86.3,99.1c-0.2-3.1,2.3-5.8,5.4-6c3.1-0.2,5.8,2.3,6,5.4c0.2,3.1-2.3,5.8-5.4,6
				C89.2,104.6,86.5,102.2,86.3,99.1 M94.3,92.1c-0.1,0-0.1-0.1-0.1-0.1c0-0.1,0.1-0.1,0.1-0.1c0.1,0,0.1,0.1,0.1,0.1
				C94.5,92,94.4,92.1,94.3,92.1"/>
			<g>
				<path fill="#EE334E" d="M94.1,89.9c0.1,0,0.2-0.1,0.2-0.2c0.2,0,0.3,0.1,0.5,0.1c0.1,0,0.2,0.1,0.3,0.2c0.1,0.2,0.1,0.4,0.2,0.7
					c-0.1,0-0.1,0.1-0.2,0.2c0,0.1,0,0.3,0.1,0.4c-0.1,0-0.3-0.1-0.3-0.3c0,0,0-0.1,0.1-0.1c0-0.2-0.1-0.3-0.2-0.4
					c-0.2,0-0.3,0.1-0.4,0.2c0,0,0,0,0,0.1C94.2,91,94,91,93.9,90.7c0.3,0,0.4-0.1,0.4-0.3c0-0.2,0-0.3-0.2-0.4
					C94.2,90,94.2,90,94.1,89.9 M93.8,91.1c-0.1,0-0.2,0-0.3-0.1c0.1,0,0.2-0.1,0.2-0.2C93.7,90.9,93.7,91,93.8,91.1 M94.5,91.1
					C94.6,91.2,94.6,91.2,94.5,91.1l0.1,0c0,0.1,0,0.1,0.1,0.2c-0.1,0-0.2-0.1-0.4-0.1C94.4,91.2,94.5,91.2,94.5,91.1 M91.6,90.6
					c0,0.1,0.1,0.2,0.2,0.2c-0.1,0-0.1,0-0.2,0c-0.1,0-0.1,0-0.2,0C91.5,90.8,91.6,90.7,91.6,90.6 M88.5,91.7c0-0.1,0.1-0.1,0.1-0.2
					l0,0c0,0,0.1,0,0.1,0c0.1,0,0.1,0.1,0.2,0.1C88.8,91.6,88.6,91.6,88.5,91.7 M89.8,91.2c-0.1,0-0.2,0.1-0.3,0.1
					c0.1-0.1,0.1-0.2,0.1-0.3C89.6,91.1,89.7,91.1,89.8,91.2 M90.5,90.8C90.6,90.8,90.6,90.8,90.5,90.8c0.1,0.1,0.2,0.1,0.3,0.1
					c-0.1,0-0.3,0-0.4,0.1C90.5,91,90.5,90.9,90.5,90.8 M92.6,90.7c0,0.1,0.1,0.1,0.2,0.2c-0.1,0-0.3,0-0.4,0
					C92.5,90.8,92.5,90.8,92.6,90.7C92.6,90.7,92.6,90.7,92.6,90.7"/>
				<path fill="#EE334E" d="M94.6,92.1l0.2-0.1l0,0l0,0.2l-0.1,0.1l0,0l0-0.1L94.6,92.1z M88.7,92.4l0,0.2l0,0.1l0,0l-0.2-0.1l0-0.2
					l0,0l0.1,0L88.7,92.4z M92.1,91.6l-0.4,0.2l-0.5-0.1l0.4-0.2L92.1,91.6z M88.3,90.1c0.1-0.1,0.3-0.1,0.5-0.2
					c0,0.1,0.1,0.2,0.2,0.2c0,0,0,0.1,0,0.1c-0.2,0.1-0.2,0.3-0.1,0.4c0.1,0.2,0.2,0.3,0.4,0.2c0,0.2-0.3,0.3-0.4,0.2c0,0,0,0,0-0.1
					c-0.1-0.2-0.2-0.3-0.4-0.2c-0.2,0.1-0.3,0.2-0.2,0.4c0,0,0,0.1,0.1,0.1c0,0.1,0,0.2-0.1,0.2c0,0-0.1,0-0.1,0
					c0.2-0.1,0.1-0.3,0.1-0.4c0-0.1-0.1-0.2-0.2-0.2c0-0.3,0-0.5,0.1-0.7C88.1,90.3,88.2,90.2,88.3,90.1 M91.8,89.2
					c0.5-0.1,1.2-0.1,1.7,0.2c0.1,0.1,0.1,0.3,0.1,0.4c-0.1,0-0.1,0.1-0.1,0.2c-0.2,0-0.3,0.1-0.3,0.3c0,0.2,0,0.4,0.3,0.4
					c-0.1,0.1-0.2,0.1-0.3,0.1c-0.1,0-0.2-0.1-0.2-0.2c0,0,0-0.1,0-0.2c0-0.2-0.2-0.3-0.3-0.3c-0.2,0-0.3,0.2-0.3,0.3
					c0,0,0,0.1,0,0.1c0,0.1-0.1,0.2-0.2,0.2c-0.1,0-0.2-0.1-0.2-0.2c0.3,0,0.3-0.2,0.3-0.4c0-0.2-0.1-0.3-0.3-0.3
					c0-0.1-0.1-0.2-0.2-0.2c0.1-0.1,0.1-0.1,0.1-0.2C91.8,89.3,91.8,89.3,91.8,89.2L91.8,89.2z M89.6,89.5c0.5-0.3,1.1-0.4,1.7-0.3
					l0,0c0,0,0,0.1,0,0.2c0,0.1,0,0.2,0.1,0.2c-0.1,0-0.2,0.1-0.2,0.2c-0.2,0.1-0.2,0.2-0.2,0.4c0,0.2,0.1,0.3,0.4,0.3
					c0,0.1-0.1,0.2-0.2,0.2c-0.1,0-0.2-0.1-0.2-0.2c0,0,0-0.1,0-0.1c0-0.2-0.2-0.3-0.3-0.3c-0.2,0-0.3,0.2-0.3,0.3
					c0,0.1,0,0.1,0,0.1c0,0.1-0.1,0.2-0.2,0.2c-0.1,0-0.2,0-0.3-0.1c0.3-0.1,0.3-0.3,0.2-0.4c0-0.1-0.1-0.3-0.3-0.3
					c0-0.1-0.1-0.1-0.1-0.1C89.5,89.8,89.6,89.7,89.6,89.5"/>
				<path fill="#FEBE10" d="M93.2,95.4l1.2-1.4c1.7,0.8,2.8,2.5,2.9,4.5c0.1,1.3-0.3,2.5-1.1,3.5l-0.6-0.6c0.6-0.8,1-1.7,0.9-2.9
					c-0.1-1.4-0.9-2.8-2-3.6l-0.7,0.8c0.4,0.3,0.7,0.5,1,0.9l-0.5,0.5c-0.2-0.4-0.6-0.7-0.9-0.9L92,98l-1.6-1.5
					c-0.8,0.6-1.2,1.4-1.2,2.4c0,1.3,0.9,2.2,2.2,2.5l-0.1-2.7l1.8-0.1l0,0.5l-1.1,0.1l0,0.7l1.1-0.1l0,0.6l-1.1,0.1l0,0.9
					c0.8,0,1.7-0.5,2.2-1.1l0.6,0.5c-0.7,0.8-1.7,1.3-2.7,1.4l0,0.8l-0.7,0l0-0.9c-1.6-0.3-2.9-1.7-2.9-3.4c0-1.2,0.5-2.1,1.4-2.9
					L89,95.2c-1.1,1-1.7,2.2-1.7,3.8c0,1.4,0.8,2.4,1.2,2.8l-0.5,0.5c-0.8-0.9-1.4-2-1.4-3.3c-0.1-2,0.9-3.8,2.5-4.8l1.3,1.3
					c0.4-0.2,0.9-0.3,1.4-0.3C92.3,95.2,92.7,95.3,93.2,95.4L93.2,95.4z M91,96.1l0.9,0.8l0.8-0.9c-0.3-0.1-0.6-0.1-0.8-0.1
					C91.5,95.9,91.3,96,91,96.1 M98.5,98.5c0.2,3.6-2.6,6.7-6.2,6.8c-3.6,0.2-6.7-2.6-6.8-6.2c-0.2-3.6,2.6-6.7,6.2-6.9
					C95.3,92.1,98.3,94.9,98.5,98.5 M86.1,99.1c0.2,3.2,2.9,5.7,6.2,5.6c3.2-0.2,5.7-2.9,5.6-6.2c-0.2-3.2-2.9-5.7-6.2-5.6
					C88.5,93.1,86,95.9,86.1,99.1 M92.2,91.6l-0.6-0.2l-0.6,0.2l0.6,0.2L92.2,91.6z M93.4,91.9l0.5-0.1l-0.5-0.3l-0.5,0.1L93.4,91.9
					z M92.6,91.8c0.1,0,0.2-0.1,0.2-0.2c0-0.1-0.1-0.2-0.2-0.2c-0.1,0-0.2,0.1-0.2,0.2C92.4,91.7,92.5,91.8,92.6,91.8 M89,92.4
					c0.1,0,0.2-0.1,0.2-0.2c0-0.1-0.1-0.2-0.2-0.2c-0.1,0-0.2,0.1-0.2,0.2C88.8,92.4,88.9,92.4,89,92.4 M90.7,91.9
					c0.1,0,0.2-0.1,0.2-0.2c0-0.1-0.1-0.2-0.2-0.2c-0.1,0-0.2,0.1-0.2,0.2C90.6,91.8,90.6,91.9,90.7,91.9 M94.3,92.2
					c0.1,0,0.2-0.1,0.2-0.2c0-0.1-0.1-0.2-0.2-0.2c-0.1,0-0.2,0.1-0.2,0.2C94.1,92.1,94.2,92.2,94.3,92.2 M89.9,92.1l0.4-0.3l-0.5,0
					l-0.4,0.3L89.9,92.1z M88.8,92.3l-0.2-0.1l0,0c0,0,0,0,0,0c-0.1,0-0.1-0.1,0-0.1c0.9-0.5,2-0.8,3.2-0.9c1.1-0.1,2.2,0.1,3.2,0.5
					c0,0,0,0.1,0,0.1c0,0,0,0,0,0l0,0L94.6,92l0.1,0.2l0,0c0.1,0,0,0.1,0,0.1c-0.9-0.4-1.9-0.6-3-0.5c-1,0.1-2,0.3-2.9,0.8
					c0,0,0,0-0.1,0c0,0,0,0,0-0.1c0,0,0,0,0,0l0,0L88.8,92.3z M94.9,91.8c-1-0.4-2.1-0.6-3.3-0.6c-1.2,0.1-2.2,0.4-3.2,0.9
					c-0.1,0-0.1,0-0.2-0.1c0-0.1,0-0.1,0-0.2c-0.2,0.1-0.3,0.1-0.5,0c-0.3,0.2-0.7-0.2-0.5-0.4c-0.1-0.1-0.1-0.3,0-0.4
					c0,0-0.1-0.1-0.1-0.2c0-0.2,0.1-0.2,0.3-0.3c-0.1-0.1-0.2-0.1-0.2-0.2c0-0.2,0.1-0.3,0.3-0.3c0-0.1-0.1-0.1-0.1-0.2
					c0-0.1,0.1-0.3,0.2-0.3c0,0,0.1,0,0.1,0c0-0.1-0.1-0.1-0.1-0.2c0-0.1,0.1-0.3,0.2-0.3c0.1,0,0.1,0,0.2,0c0,0,0-0.1,0-0.1
					c0-0.1,0.1-0.3,0.2-0.3c0.1,0,0.1,0,0.2,0.1c0-0.1,0.1-0.3,0.2-0.3c0.1,0,0.2,0.1,0.2,0.1c0.1-0.1,0.1-0.1,0.2-0.1
					c0,0,0.1,0,0.1,0c0,0,0-0.1,0-0.1c0-0.1,0.1-0.3,0.2-0.3c0.1,0,0.1,0,0.2,0.1c0,0,0-0.1,0-0.1c0-0.1,0.1-0.3,0.2-0.3
					c0.1,0,0.1,0,0.2,0.1c0-0.1,0.1-0.3,0.2-0.3c0.1,0,0.2,0,0.2,0.1c0-0.1,0.1-0.2,0.2-0.2c0,0,0.1,0,0.1,0
					c0.1-0.1,0.1-0.1,0.3-0.2l0-0.3l-0.2,0l0-0.2l0.2,0l0-0.2l0.2,0l0,0.2l0.2,0l0,0.2l-0.2,0l0,0.3c0.1,0,0.2,0.1,0.3,0.1
					c0,0,0.1,0,0.1,0c0.1,0,0.2,0.1,0.3,0.2c0.1-0.1,0.1-0.1,0.2-0.1c0.2,0,0.2,0.1,0.3,0.2c0.1,0,0.1-0.1,0.2-0.1
					c0.1,0,0.3,0.1,0.3,0.2c0,0,0,0.1,0,0.1c0.1,0,0.1-0.1,0.2-0.1c0.1,0,0.3,0.1,0.3,0.2c0,0.1,0,0.1,0,0.1c0,0,0.1,0,0.1,0
					c0.1,0,0.2,0,0.2,0.1c0.1-0.1,0.1-0.2,0.2-0.2c0.2,0,0.2,0.1,0.3,0.2c0.1,0,0.1-0.1,0.2-0.1c0.1,0,0.3,0.1,0.3,0.2
					c0,0,0,0.1,0,0.1c0.1,0,0.1-0.1,0.2-0.1c0.1,0,0.3,0.1,0.3,0.2c0,0.1,0,0.1,0,0.2c0,0,0.1,0,0.1,0c0.1,0,0.3,0.1,0.3,0.2
					c0,0.1,0,0.1-0.1,0.2c0.1,0,0.3,0.1,0.3,0.2c0,0.1-0.1,0.2-0.1,0.2c0.1,0,0.3,0.1,0.3,0.2c0,0.1,0,0.1,0,0.2
					c0.2,0.1,0.2,0.3,0.1,0.4c0.2,0.1,0.1,0.3,0,0.4c-0.1,0.1-0.3,0.1-0.4,0c-0.2,0.1-0.3,0.2-0.5,0.1l0,0.1
					C95.1,91.7,95,91.8,94.9,91.8 M88.1,91.3c0.1,0.2,0,0.3-0.2,0.4c0.1,0,0.2,0.1,0.3,0c0.1-0.1,0.2-0.2,0.1-0.3
					c0,0-0.1-0.1-0.1-0.1c0-0.1,0-0.3,0.2-0.3c0.1,0,0.3,0,0.3,0.2c0,0,0,0,0,0.1c0.2,0.2,0.6,0.1,0.5-0.3c-0.2,0.1-0.4,0-0.4-0.2
					c-0.1-0.2,0-0.3,0.1-0.4c0-0.1,0-0.1,0-0.2c-0.1,0-0.2-0.1-0.2-0.2c0-0.2,0.1-0.2,0.3-0.3c-0.1-0.1-0.2-0.1-0.2-0.2
					c0,0,0,0-0.1,0c-0.8,0.4-1,0.8-1,1.7C88,91.1,88,91.2,88.1,91.3 M91.3,88.4C91.3,88.3,91.3,88.3,91.3,88.4
					c-1-0.1-1.7,0.7-1.8,1.6c0.1,0,0.1,0.1,0.2,0.2c0.2,0,0.3,0,0.3,0.2c0.1,0.2,0,0.3-0.3,0.4c0.1,0.1,0.2,0.2,0.4,0.2
					c0.1,0,0.2-0.2,0.2-0.3c0,0,0-0.1,0-0.1c0-0.1,0.1-0.3,0.2-0.3c0.1,0,0.3,0.1,0.3,0.2c0,0,0,0.1,0,0.1c0,0.1,0.2,0.2,0.3,0.2
					c0.2,0,0.3-0.1,0.3-0.3c-0.2,0-0.4,0-0.4-0.3c0-0.2,0-0.3,0.2-0.3c0-0.2,0.1-0.2,0.3-0.3c0.2,0,0.3,0,0.3,0.2
					c0.2,0,0.2,0.1,0.2,0.3c0,0.2-0.1,0.3-0.3,0.3c0,0.2,0.1,0.3,0.3,0.3c0.1,0,0.3-0.1,0.3-0.2c0,0,0-0.1,0-0.1
					c0-0.1,0.1-0.3,0.2-0.3c0.1,0,0.3,0.1,0.3,0.2c0,0,0,0.1,0,0.1c0,0.1,0.1,0.3,0.2,0.3c0.2,0,0.3-0.1,0.4-0.2
					c-0.2,0-0.3-0.1-0.3-0.4c0-0.2,0.1-0.2,0.3-0.2c0-0.1,0.1-0.1,0.2-0.2c-0.2-1-0.9-1.6-1.9-1.5c0,0,0,0,0,0.1c0,0,0,0.1,0,0.1
					l0,0.2c0,0,0,0.1,0.1,0.1c0,0.1,0,0.1,0,0.1l0,0.3c0,0,0,0.1,0,0.1c0,0.1-0.1,0.2-0.2,0.3c-0.1,0-0.2-0.1-0.2-0.2
					c0,0,0-0.1,0-0.1l0-0.2c0,0,0-0.1,0-0.1c0,0,0-0.1,0-0.1l0-0.2C91.3,88.4,91.3,88.4,91.3,88.4 M95.1,91.3c0.1,0.1,0.2,0,0.3,0
					c-0.2-0.1-0.3-0.2-0.2-0.4c0-0.1,0.1-0.2,0.2-0.2c-0.1-0.9-0.4-1.3-1.2-1.6l-0.1,0c0,0,0,0,0,0c0,0.1-0.1,0.2-0.1,0.2
					c0.1,0,0.3,0.1,0.3,0.2c0,0.1-0.1,0.2-0.2,0.3c0,0.1,0.1,0.1,0.1,0.2c0.2,0.1,0.2,0.2,0.2,0.3c0,0.2-0.2,0.3-0.4,0.2
					c0,0.4,0.4,0.5,0.6,0.2c0,0,0,0,0-0.1c0-0.1,0.2-0.2,0.3-0.2c0.1,0,0.2,0.2,0.2,0.3c0,0,0,0.1-0.1,0.1
					C94.9,91.2,94.9,91.3,95.1,91.3 M91,88.1c0.1,0,0.1-0.1,0.1-0.1c0-0.1-0.1-0.1-0.1-0.1c-0.1,0-0.1,0.1-0.1,0.1
					C90.9,88,90.9,88.1,91,88.1 M91.5,88.5c0.1,0,0.1-0.1,0.1-0.1c0-0.1-0.1-0.1-0.1-0.1c-0.1,0-0.1,0.1-0.1,0.1
					C91.3,88.4,91.4,88.5,91.5,88.5 M91.5,89c0.1,0,0.1-0.1,0.1-0.1c0-0.1-0.1-0.1-0.1-0.1c-0.1,0-0.1,0.1-0.1,0.1
					C91.4,88.9,91.4,89,91.5,89 M91.5,89.5c0.1,0,0.1-0.1,0.1-0.1c0-0.1-0.1-0.1-0.1-0.1c-0.1,0-0.1,0.1-0.1,0.1
					C91.4,89.5,91.5,89.5,91.5,89.5 M90.6,88.2c0.1,0,0.1-0.1,0.1-0.1c0-0.1-0.1-0.1-0.1-0.1c-0.1,0-0.1,0.1-0.1,0.1
					C90.4,88.1,90.5,88.2,90.6,88.2 M90.1,88.4c0.1,0,0.1-0.1,0.1-0.1c0-0.1-0.1-0.1-0.1-0.1c-0.1,0-0.1,0.1-0.1,0.1
					C90,88.3,90,88.4,90.1,88.4 M89.7,88.7c0.1,0,0.1-0.1,0.1-0.1c0-0.1-0.1-0.1-0.1-0.1c-0.1,0-0.1,0.1-0.1,0.1
					C89.6,88.6,89.6,88.7,89.7,88.7 M89.4,89.1c0.1,0,0.1-0.1,0.1-0.1c0-0.1-0.1-0.1-0.1-0.1c-0.1,0-0.1,0.1-0.1,0.1
					C89.2,89,89.3,89.1,89.4,89.1 M88.9,89.1c0.1,0,0.1-0.1,0.1-0.1c0-0.1-0.1-0.1-0.1-0.1c-0.1,0-0.1,0.1-0.1,0.1
					C88.8,89,88.9,89.1,88.9,89.1 M88.5,89.3c0.1,0,0.1-0.1,0.1-0.1c0-0.1-0.1-0.1-0.1-0.1c-0.1,0-0.1,0.1-0.1,0.1
					C88.4,89.2,88.4,89.3,88.5,89.3 M88.1,89.6c0.1,0,0.1-0.1,0.1-0.1c0-0.1-0.1-0.1-0.1-0.1c-0.1,0-0.1,0.1-0.1,0.1
					C88,89.5,88,89.6,88.1,89.6 M87.8,90c0.1,0,0.1-0.1,0.1-0.1c0-0.1-0.1-0.1-0.1-0.1c-0.1,0-0.1,0.1-0.1,0.1
					C87.6,89.9,87.7,90,87.8,90 M87.6,90.4c0.1,0,0.1-0.1,0.1-0.1c0-0.1-0.1-0.1-0.1-0.1c-0.1,0-0.1,0.1-0.1,0.1
					C87.5,90.4,87.5,90.4,87.6,90.4 M87.5,90.9c0.1,0,0.1-0.1,0.1-0.1c0-0.1-0.1-0.1-0.1-0.1s-0.1,0.1-0.1,0.1
					C87.4,90.9,87.4,91,87.5,90.9 M89.2,89.5c0.1,0,0.1-0.1,0.1-0.1c0-0.1-0.1-0.1-0.1-0.1c-0.1,0-0.1,0.1-0.1,0.1
					C89,89.5,89.1,89.5,89.2,89.5 M89.1,90c0.1,0,0.1-0.1,0.1-0.1c0-0.1-0.1-0.1-0.1-0.1c-0.1,0-0.1,0.1-0.1,0.1
					C88.9,90,89,90,89.1,90 M91.6,90.4c0.1,0,0.2-0.1,0.2-0.3c0-0.1-0.1-0.2-0.3-0.2c-0.1,0-0.2,0.1-0.2,0.3
					C91.3,90.3,91.4,90.4,91.6,90.4 M89.5,90.7c0.1,0,0.2-0.2,0.2-0.3c0-0.1-0.2-0.2-0.3-0.2c-0.1,0-0.2,0.2-0.2,0.3
					C89.2,90.7,89.4,90.8,89.5,90.7 M87.7,91.7c0.1-0.1,0.2-0.2,0.1-0.3c-0.1-0.1-0.2-0.2-0.3-0.1c-0.1,0.1-0.2,0.2-0.1,0.3
					C87.4,91.7,87.6,91.8,87.7,91.7 M91.9,87.7c-0.1,0-0.1,0.1-0.1,0.1c0,0.1,0.1,0.1,0.1,0.1C92,88,92,88,92,87.9
					C92,87.8,92,87.7,91.9,87.7 M92.4,87.8c-0.1,0-0.1,0.1-0.1,0.1c0,0.1,0.1,0.1,0.1,0.1c0.1,0,0.1-0.1,0.1-0.1
					C92.5,87.9,92.4,87.8,92.4,87.8 M92.8,87.9c-0.1,0-0.1,0.1-0.1,0.1c0,0.1,0.1,0.1,0.1,0.1c0.1,0,0.1-0.1,0.1-0.1
					C93,88,92.9,87.9,92.8,87.9 M93.3,88.2c-0.1,0-0.1,0.1-0.1,0.1c0,0.1,0.1,0.1,0.1,0.1s0.1-0.1,0.1-0.1
					C93.4,88.3,93.3,88.2,93.3,88.2 M93.6,88.6c-0.1,0-0.1,0.1-0.1,0.1c0,0.1,0.1,0.1,0.1,0.1c0.1,0,0.1-0.1,0.1-0.1
					C93.8,88.6,93.7,88.6,93.6,88.6 M94.1,88.5c-0.1,0-0.1,0.1-0.1,0.1c0,0.1,0.1,0.1,0.1,0.1c0.1,0,0.1-0.1,0.1-0.1
					C94.2,88.6,94.1,88.5,94.1,88.5 M94.5,88.7c-0.1,0-0.1,0.1-0.1,0.1c0,0.1,0.1,0.1,0.1,0.1c0.1,0,0.1-0.1,0.1-0.1
					C94.7,88.7,94.6,88.7,94.5,88.7 M94.9,88.9c-0.1,0-0.1,0.1-0.1,0.1c0,0.1,0.1,0.1,0.1,0.1c0.1,0,0.1-0.1,0.1-0.1
					C95.1,89,95,88.9,94.9,88.9 M95.3,89.3c-0.1,0-0.1,0.1-0.1,0.1c0,0.1,0.1,0.1,0.1,0.1c0.1,0,0.1-0.1,0.1-0.1
					C95.4,89.4,95.4,89.3,95.3,89.3 M95.5,89.8c-0.1,0-0.1,0.1-0.1,0.1c0,0.1,0.1,0.1,0.1,0.1c0.1,0,0.1-0.1,0.1-0.1
					C95.7,89.8,95.6,89.7,95.5,89.8 M95.7,90.3c-0.1,0-0.1,0.1-0.1,0.1c0,0.1,0.1,0.1,0.1,0.1c0.1,0,0.1-0.1,0.1-0.1
					C95.8,90.3,95.7,90.2,95.7,90.3 M93.9,89c-0.1,0-0.1,0.1-0.1,0.1c0,0.1,0.1,0.1,0.1,0.1c0.1,0,0.1-0.1,0.1-0.1
					C94,89.1,93.9,89,93.9,89 M94,89.5c-0.1,0-0.1,0.1-0.1,0.1c0,0.1,0.1,0.1,0.1,0.1c0.1,0,0.1-0.1,0.1-0.1
					C94.1,89.6,94.1,89.5,94,89.5 M93.8,90c-0.1,0-0.3,0.1-0.3,0.2c0,0.1,0.1,0.3,0.2,0.3c0.1,0,0.3-0.1,0.3-0.2
					C94,90.2,93.9,90,93.8,90 M95.8,90.8c-0.1-0.1-0.3,0-0.3,0.1c-0.1,0.1,0,0.3,0.1,0.3c0.1,0.1,0.3,0,0.3-0.1
					C95.9,91,95.9,90.9,95.8,90.8 M92.6,90.7C92.6,90.7,92.6,90.7,92.6,90.7c-0.1,0.1-0.2,0.1-0.2,0.2c0.1,0,0.3,0,0.4,0
					C92.7,90.9,92.7,90.8,92.6,90.7L92.6,90.7z M90.5,90.8c0,0.1-0.1,0.2-0.1,0.2c0.1,0,0.3,0,0.4-0.1
					C90.7,90.9,90.7,90.9,90.5,90.8C90.6,90.8,90.6,90.8,90.5,90.8 M89.8,91.2c-0.1,0-0.2-0.1-0.2-0.2c0,0.1,0,0.2-0.1,0.3
					C89.6,91.2,89.7,91.2,89.8,91.2 M88.5,91.7c0.1-0.1,0.2-0.1,0.4-0.2c-0.1,0-0.1,0-0.2-0.1c0,0-0.1,0-0.1,0l0,0
					C88.6,91.5,88.6,91.6,88.5,91.7 M91.6,90.6c0,0.1-0.1,0.2-0.2,0.2c0.1,0,0.1,0,0.2,0c0.1,0,0.1,0,0.2,0
					C91.7,90.8,91.6,90.7,91.6,90.6 M94.5,91.1c-0.1,0-0.1,0.1-0.2,0.1c0.1,0,0.2,0.1,0.4,0.1c0-0.1-0.1-0.1-0.1-0.2L94.5,91.1
					C94.6,91.2,94.6,91.2,94.5,91.1 M93.8,91.1c-0.1-0.1-0.1-0.2-0.1-0.3c-0.1,0.1-0.1,0.2-0.2,0.2C93.5,91,93.6,91,93.8,91.1"/>
			</g>
		</g>
		<g>
			<circle fill="none" cx="92.4" cy="87.9" r="0.1"/>
			<polygon fill="none" points="88.7,92.4 88.6,92.3 88.5,92.3 88.5,92.5 88.6,92.6 88.7,92.5 			"/>
			<circle fill="none" cx="91.9" cy="87.9" r="0.1"/>
			<polygon fill="none" points="94.6,92.1 94.7,92.2 94.7,92.3 94.9,92.2 94.8,92 			"/>
			<circle fill="none" cx="93.3" cy="88.4" r="0.1"/>
			<circle fill="none" cx="90.7" cy="91.7" r="0.1"/>
			<circle fill="none" cx="93.6" cy="88.7" r="0.1"/>
			<circle fill="none" cx="89.2" cy="89.4" r="0.1"/>
			<circle fill="none" cx="91.5" cy="88.3" r="0.1"/>
			<circle fill="none" cx="89" cy="92.2" r="0.1"/>
			<circle fill="none" cx="93.9" cy="89.2" r="0.1"/>
			<path fill="none" d="M91.3,89.2l0-0.1c0,0,0-0.1-0.1-0.1c0-0.1,0-0.1,0-0.2l0-0.2c0,0,0-0.1-0.1-0.1c-0.8,0-1.3,0.5-1.6,1.1
				C90.1,89.2,90.7,89.1,91.3,89.2z"/>
			<path fill="none" d="M91.9,89.8c0.2,0,0.3,0.2,0.3,0.3c0,0.2-0.1,0.3-0.3,0.4c0,0.1,0.1,0.2,0.2,0.2c0.1,0,0.2-0.1,0.2-0.2
				c0,0,0-0.1,0-0.1c0-0.2,0.1-0.3,0.3-0.3c0.2,0,0.3,0.1,0.3,0.3c0,0.1,0,0.1,0,0.2c0,0.1,0.1,0.2,0.2,0.2c0.1,0,0.2,0,0.3-0.1
				c-0.3-0.1-0.3-0.2-0.3-0.4c0-0.2,0.1-0.3,0.3-0.3c0-0.1,0.1-0.1,0.1-0.1c0-0.1-0.1-0.3-0.1-0.4c-0.5-0.3-1.2-0.3-1.7-0.2l0,0
				c0,0,0,0.1,0.1,0.1c0,0.1,0,0.2-0.1,0.2C91.8,89.6,91.9,89.7,91.9,89.8z"/>
			<path fill="none" d="M89.7,90.1c0.2,0,0.3,0.1,0.3,0.3c0.1,0.2,0,0.4-0.2,0.4c0.1,0.1,0.2,0.1,0.3,0.1c0.1,0,0.2-0.1,0.2-0.2
				c0,0,0-0.1,0-0.1c0-0.2,0.1-0.3,0.3-0.3c0.2,0,0.3,0.1,0.3,0.3c0,0,0,0.1,0,0.1c0,0.1,0.1,0.2,0.2,0.2c0.1,0,0.2-0.1,0.2-0.2
				c-0.3,0-0.4-0.2-0.4-0.3c0-0.2,0-0.3,0.2-0.4c0-0.1,0.1-0.2,0.2-0.2c-0.1,0-0.1-0.1-0.1-0.2c0-0.1,0-0.1,0-0.2l0,0
				c-0.5-0.1-1.2,0-1.7,0.3c0,0.1-0.1,0.3-0.1,0.4C89.6,90,89.6,90,89.7,90.1z"/>
			<circle fill="none" cx="89.7" cy="88.5" r="0.1"/>
			<circle fill="none" cx="89.4" cy="88.9" r="0.1"/>
			<path fill="none" d="M93.4,89.3c-0.3-0.6-0.9-1-1.7-1c0,0.1,0,0.1,0,0.2l0,0.2c0,0,0,0.1,0.1,0.1c0,0.1,0,0.1,0,0.2l0,0.1
				C92.3,89,92.9,89.1,93.4,89.3z"/>
			<circle fill="none" cx="91.5" cy="89.4" r="0.1"/>
			<circle fill="none" cx="91.5" cy="88.9" r="0.1"/>
			<circle fill="none" cx="91" cy="87.9" r="0.1"/>
			<circle fill="none" cx="90.1" cy="88.2" r="0.1"/>
			<circle fill="none" cx="90.5" cy="88" r="0.1"/>
			<circle fill="none" cx="92.8" cy="88.1" r="0.1"/>
			<circle fill="none" cx="93.7" cy="90.3" r="0.3"/>
			<path fill="none" d="M93.4,91c0.1,0,0.2,0,0.3,0.1c-0.1-0.1-0.1-0.2-0.1-0.3C93.6,90.9,93.5,90.9,93.4,91z"/>
			<path fill="none" d="M88.6,91.5c0,0.1-0.1,0.1-0.1,0.2c0.1-0.1,0.2-0.1,0.4-0.2C88.8,91.5,88.8,91.5,88.6,91.5
				C88.7,91.5,88.6,91.5,88.6,91.5z"/>
			<path fill="none" d="M94.5,91.1c-0.1,0-0.1,0.1-0.2,0.1c0.1,0,0.2,0.1,0.4,0.1c0-0.1-0.1-0.1-0.1-0.2
				C94.6,91.2,94.6,91.2,94.5,91.1z"/>
			<path fill="none" d="M89.6,91c0,0.1,0,0.2-0.1,0.3c0.1,0,0.2-0.1,0.3-0.1C89.7,91.1,89.6,91.1,89.6,91z"/>
			<circle fill="none" cx="94" cy="89.6" r="0.1"/>
			<path fill="none" d="M94.9,91.8c-1-0.4-2.1-0.6-3.2-0.5c-1.1,0.1-2.2,0.4-3.2,0.9c0,0,0,0.1,0,0.1c0,0,0,0,0,0l0.2,0.1l0,0.2l0,0
				c0,0,0,0,0,0c0,0,0,0,0,0.1c0,0,0,0,0.1,0c0.9-0.5,1.8-0.7,2.9-0.8c1.1-0.1,2.1,0.1,3,0.5c0,0,0.1-0.1,0-0.1l0,0L94.6,92
				L94.9,91.8C94.8,91.9,94.8,91.9,94.9,91.8C94.9,91.9,94.9,91.9,94.9,91.8z M89,92.4c-0.1,0-0.2-0.1-0.2-0.2
				c0-0.1,0.1-0.2,0.2-0.2c0.1,0,0.2,0.1,0.2,0.2C89.2,92.3,89.1,92.4,89,92.4z M89.9,92.1l-0.5,0l0.4-0.3l0.5,0L89.9,92.1z
				 M90.7,91.9c-0.1,0-0.2-0.1-0.2-0.2c0-0.1,0.1-0.2,0.2-0.2c0.1,0,0.2,0.1,0.2,0.2C90.9,91.8,90.8,91.9,90.7,91.9z M91.6,91.8
				l-0.6-0.2l0.6-0.2l0.6,0.2L91.6,91.8z M92.6,91.8c-0.1,0-0.2-0.1-0.2-0.2c0-0.1,0.1-0.2,0.2-0.2c0.1,0,0.2,0.1,0.2,0.2
				C92.7,91.7,92.7,91.8,92.6,91.8z M93.4,91.9l-0.5-0.3l0.5-0.1l0.5,0.3L93.4,91.9z M94.3,92.2c-0.1,0-0.2-0.1-0.2-0.2
				c0-0.1,0.1-0.2,0.2-0.2c0.1,0,0.2,0.1,0.2,0.2C94.5,92.1,94.4,92.2,94.3,92.2z"/>
			<path fill="none" d="M90.6,90.8C90.6,90.8,90.6,90.8,90.6,90.8c-0.1,0.1-0.1,0.2-0.2,0.2c0.1,0,0.3,0,0.4-0.1
				C90.7,90.9,90.7,90.9,90.6,90.8z"/>
			<path fill="none" d="M91.6,90.6c0,0.1-0.1,0.2-0.2,0.2l0.2,0l0.2,0C91.7,90.8,91.6,90.7,91.6,90.6z"/>
			<circle fill="none" cx="91.6" cy="90.1" r="0.3"/>
			<circle fill="none" cx="89.4" cy="90.5" r="0.3"/>
			<path fill="none" d="M92.6,90.7C92.6,90.7,92.6,90.7,92.6,90.7c-0.1,0.1-0.2,0.1-0.2,0.2c0.1,0,0.3,0,0.4,0
				C92.7,90.9,92.7,90.8,92.6,90.7L92.6,90.7z"/>
			<polygon fill="none" points="91.2,91.6 91.6,91.8 92.1,91.6 91.6,91.4 			"/>
			<circle fill="none" cx="94.5" cy="88.8" r="0.1"/>
			<circle fill="none" cx="94.1" cy="88.7" r="0.1"/>
			<path fill="none" d="M94.3,89.6c0.2,0,0.3,0.1,0.5,0.1c0.1,0,0.2,0.1,0.3,0.1c-0.2-0.3-0.4-0.5-0.9-0.8c0,0.1,0,0.1-0.1,0.2
				C94.2,89.4,94.3,89.5,94.3,89.6z"/>
			<circle fill="none" cx="94.9" cy="89.1" r="0.1"/>
			<path fill="none" d="M94.3,89.7c0,0.1-0.1,0.2-0.2,0.2c0,0,0,0.1,0,0.1c0.2,0.1,0.2,0.2,0.2,0.4c0,0.2-0.1,0.3-0.4,0.3
				c0,0.2,0.3,0.3,0.5,0.1c0,0,0,0,0-0.1c0-0.2,0.2-0.3,0.4-0.2c0.2,0,0.3,0.2,0.2,0.4c0,0,0,0.1-0.1,0.1c0,0.2,0.1,0.3,0.3,0.3
				c-0.2-0.1-0.2-0.3-0.1-0.4c0-0.1,0.1-0.2,0.2-0.2c0-0.3-0.1-0.5-0.2-0.7c-0.1-0.1-0.2-0.1-0.3-0.2C94.6,89.8,94.5,89.7,94.3,89.7
				z"/>
			<circle fill="none" cx="95.5" cy="89.9" r="0.1"/>
			<circle fill="none" cx="95.7" cy="90.4" r="0.1"/>
			<circle fill="none" cx="92.5" cy="91.6" r="0.1"/>
			<circle fill="none" cx="89.1" cy="89.9" r="0.1"/>
			<circle fill="none" cx="95.7" cy="91.1" r="0.3"/>
			<circle fill="none" cx="95.3" cy="89.5" r="0.1"/>
			<circle fill="none" cx="94.3" cy="92" r="0.1"/>
			<path fill="none" d="M94.6,95.2l-0.5,0.5c0.4,0.3,0.7,0.6,1,1l-0.8,0.8c-0.2-0.4-0.5-0.7-0.9-0.9l-0.8,0.9l3.3,3.1
				c0.3-0.6,0.5-1.2,0.4-2.1C96.3,97,95.4,95.7,94.6,95.2z"/>
			<circle fill="none" cx="87.8" cy="89.8" r="0.1"/>
			<path fill="none" d="M94.4,94l-1.2,1.4l0,0c-0.5-0.1-0.9-0.2-1.4-0.2c-0.5,0-0.9,0.1-1.4,0.3l-1.3-1.3c-1.6,1-2.6,2.8-2.5,4.8
				c0.1,1.3,0.6,2.4,1.4,3.3l0.5-0.5c-0.5-0.4-1.2-1.5-1.2-2.8c0-1.5,0.5-2.7,1.7-3.8l0.8,0.7c-0.9,0.7-1.4,1.7-1.4,2.9
				c0.1,1.7,1.3,3.1,2.9,3.4l0,0.9l0.7,0l0-0.8c1.1-0.1,2.1-0.5,2.7-1.4l-0.6-0.5c-0.5,0.6-1.4,1.1-2.2,1.1l0-0.9l1.1-0.1l0-0.6
				L92,100l0-0.7l1.1-0.1l0-0.5l-1.8,0.1l0.1,2.7c-1.2-0.3-2.1-1.2-2.2-2.5c0-1,0.4-1.8,1.2-2.4L92,98l1.4-1.7
				c0.4,0.2,0.7,0.5,0.9,0.9l0.5-0.5c-0.3-0.4-0.6-0.7-1-0.9l0.7-0.8c1.2,0.7,2,2.2,2,3.6c0.1,1.3-0.3,2.1-0.9,2.9l0.6,0.6
				c0.7-1,1.1-2.2,1.1-3.5C97.2,96.5,96.1,94.8,94.4,94z M91.9,96.9L91,96.1c0.3-0.1,0.5-0.2,0.8-0.2c0.3,0,0.6,0,0.8,0.1L91.9,96.9
				z"/>
			<circle fill="none" cx="88.1" cy="89.4" r="0.1"/>
			<circle fill="none" cx="87.6" cy="91.5" r="0.3"/>
			<circle fill="none" cx="87.6" cy="90.3" r="0.1"/>
			<circle fill="none" cx="87.5" cy="90.8" r="0.1"/>
			<path fill="none" d="M91.4,96.2l0.5,0.4l0.4-0.5c-0.2,0-0.3,0-0.5,0C91.7,96.1,91.6,96.1,91.4,96.2z"/>
			<path fill="none" d="M91.7,92.3c-3.6,0.2-6.4,3.3-6.2,6.9c0.2,3.6,3.3,6.4,6.8,6.2c3.6-0.2,6.4-3.3,6.2-6.8
				C98.3,94.9,95.3,92.1,91.7,92.3z M92.3,104.7c-3.2,0.2-6-2.3-6.2-5.6c-0.2-3.2,2.3-6,5.6-6.2c3.2-0.2,6,2.3,6.2,5.6
				C98,101.7,95.5,104.5,92.3,104.7z"/>
			<path fill="none" d="M87.7,91.8c0.2,0.1,0.3,0.1,0.5,0c0,0.1-0.1,0.1,0,0.2c0,0.1,0.1,0.1,0.2,0.1c1-0.5,2-0.8,3.2-0.9
				c1.2-0.1,2.3,0.1,3.3,0.6c0.1,0,0.2-0.1,0.2-0.2l0-0.1c0.2,0.1,0.4,0,0.5-0.1c0.1,0.1,0.3,0.1,0.4,0c0.1-0.1,0.2-0.3,0-0.4
				c0.1-0.2,0.1-0.3-0.1-0.4c0-0.1,0-0.1,0-0.2c0-0.2-0.1-0.2-0.3-0.2c0.1-0.1,0.1-0.1,0.1-0.2c0-0.2-0.1-0.2-0.3-0.2
				c0-0.1,0.1-0.1,0.1-0.2c0-0.1-0.1-0.2-0.3-0.2c0,0-0.1,0-0.1,0c0-0.1,0-0.1,0-0.2c0-0.1-0.1-0.2-0.3-0.2c-0.1,0-0.1,0-0.2,0.1
				c0,0,0-0.1,0-0.1c0-0.1-0.1-0.2-0.3-0.2c-0.1,0-0.1,0-0.2,0.1c0-0.1-0.1-0.2-0.3-0.2c-0.1,0-0.2,0.1-0.2,0.2
				c-0.1-0.1-0.1-0.1-0.2-0.1c0,0-0.1,0-0.1,0c0-0.1,0-0.1,0-0.1c0-0.1-0.1-0.2-0.3-0.2c-0.1,0-0.1,0-0.2,0.1c0,0,0-0.1,0-0.1
				c0-0.1-0.1-0.2-0.3-0.2c-0.1,0-0.1,0-0.2,0.1c0-0.1-0.1-0.2-0.3-0.2c-0.1,0-0.1,0.1-0.2,0.1c-0.1-0.1-0.1-0.2-0.3-0.2
				c0,0-0.1,0-0.1,0c-0.1-0.1-0.2-0.1-0.3-0.1l0-0.3l0.2,0l0-0.2l-0.2,0l0-0.2l-0.2,0l0,0.2l-0.2,0l0,0.2l0.2,0l0,0.3
				c-0.1,0-0.2,0.1-0.3,0.2c0,0-0.1,0-0.1,0c-0.1,0-0.2,0.1-0.2,0.2c-0.1-0.1-0.1-0.1-0.2-0.1c-0.2,0-0.2,0.1-0.2,0.3
				c-0.1,0-0.1-0.1-0.2-0.1c-0.1,0-0.2,0.1-0.2,0.3c0,0,0,0.1,0,0.1c-0.1,0-0.1-0.1-0.2-0.1c-0.1,0-0.2,0.1-0.2,0.3
				c0,0.1,0,0.1,0,0.1c0,0-0.1,0-0.1,0c-0.1,0-0.2,0.1-0.2,0.1c-0.1-0.1-0.1-0.1-0.2-0.1c-0.2,0-0.2,0.1-0.2,0.3
				c-0.1,0-0.1-0.1-0.2-0.1c-0.1,0-0.2,0.1-0.2,0.3c0,0,0,0.1,0,0.1c-0.1,0-0.1,0-0.2,0c-0.1,0-0.3,0.1-0.2,0.3c0,0.1,0,0.1,0.1,0.2
				c0,0-0.1,0-0.1,0c-0.1,0-0.2,0.1-0.2,0.3c0,0.1,0,0.1,0.1,0.2c-0.1,0-0.3,0.1-0.3,0.3c0,0.1,0.1,0.2,0.2,0.2
				c-0.1,0-0.3,0.1-0.3,0.3c0,0.1,0,0.1,0.1,0.2c-0.2,0.1-0.2,0.3,0,0.4C87,91.6,87.4,92,87.7,91.8z M88.5,91.8L88.5,91.8
				c0-0.1,0.1-0.2,0.1-0.3c0.1,0,0.1,0,0.2-0.1c0.1,0.1,0.2,0.1,0.3,0.1l0,0.1C88.8,91.6,88.6,91.7,88.5,91.8z M89.9,91.2
				c-0.2,0-0.4,0.1-0.5,0.2l0-0.1c0.1-0.1,0.2-0.3,0.1-0.4l0.1,0C89.6,91,89.8,91.1,89.9,91.2L89.9,91.2z M89.3,90.2
				c0.2,0,0.3,0,0.4,0.2c0,0.2,0,0.3-0.2,0.4c-0.2,0-0.3,0-0.4-0.2C89.1,90.4,89.2,90.3,89.3,90.2z M89.1,90.1
				c-0.1,0-0.2-0.1-0.2-0.2c0-0.1,0.1-0.2,0.2-0.2c0.1,0,0.2,0.1,0.2,0.2C89.3,90,89.2,90.1,89.1,90.1z M90.9,91
				c-0.2,0-0.4,0.1-0.6,0.1l0-0.1c0.1-0.1,0.2-0.2,0.2-0.3l0,0c0,0,0.1,0,0.1,0C90.7,90.8,90.8,90.9,90.9,91L90.9,91z M91.9,90.9
				c-0.1,0-0.2,0-0.3,0c-0.1,0-0.2,0-0.3,0l0-0.1c0.1-0.1,0.2-0.2,0.3-0.4l0.1,0C91.6,90.7,91.8,90.8,91.9,90.9L91.9,90.9z
				 M91.3,90.1c0-0.2,0.1-0.3,0.3-0.3c0.2,0,0.3,0.1,0.3,0.3c0,0.2-0.1,0.3-0.3,0.3C91.4,90.4,91.3,90.3,91.3,90.1z M92.9,91
				c-0.2,0-0.4,0-0.6,0l0-0.1c0.1,0,0.2-0.1,0.3-0.2c0,0,0.1,0,0.1,0l0,0C92.7,90.8,92.8,90.9,92.9,91L92.9,91z M93.9,91.1
				c-0.2,0-0.4-0.1-0.6-0.1l0-0.1c0.2,0,0.3-0.2,0.3-0.3l0.1,0C93.7,90.8,93.8,91,93.9,91.1L93.9,91.1z M94,90.3
				c0,0.2-0.2,0.3-0.3,0.2c-0.2,0-0.3-0.2-0.2-0.3c0-0.2,0.2-0.3,0.3-0.2C94,90,94.1,90.2,94,90.3z M93.8,89.7
				c0-0.1,0.1-0.2,0.2-0.2c0.1,0,0.2,0.1,0.2,0.2c0,0.1-0.1,0.2-0.2,0.2C93.9,89.8,93.8,89.8,93.8,89.7z M94.8,91.4
				c-0.2-0.1-0.4-0.1-0.6-0.2l0-0.1c0.1,0,0.2-0.1,0.3-0.1c0.1,0,0.1,0,0.1,0c0,0,0,0,0.1,0C94.7,91.2,94.8,91.3,94.8,91.4
				L94.8,91.4z M95.9,91.2c-0.1,0.1-0.2,0.2-0.4,0.1c-0.1-0.1-0.2-0.2-0.1-0.4c0.1-0.1,0.2-0.2,0.4-0.1C95.9,90.9,96,91,95.9,91.2z
				 M95.7,90.2c0.1,0,0.2,0.1,0.2,0.2c0,0.1-0.1,0.2-0.2,0.2c-0.1,0-0.2-0.1-0.2-0.2C95.5,90.3,95.6,90.2,95.7,90.2z M95.5,89.7
				c0.1,0,0.2,0.1,0.2,0.2c0,0.1-0.1,0.2-0.2,0.2c-0.1,0-0.2-0.1-0.2-0.2C95.3,89.8,95.4,89.7,95.5,89.7z M95.3,89.3
				c0.1,0,0.2,0.1,0.2,0.2c0,0.1-0.1,0.2-0.2,0.2c-0.1,0-0.2-0.1-0.2-0.2C95.1,89.4,95.2,89.3,95.3,89.3z M94.9,88.9
				c0.1,0,0.2,0.1,0.2,0.2c0,0.1-0.1,0.2-0.2,0.2c-0.1,0-0.2-0.1-0.2-0.2C94.8,89,94.8,88.9,94.9,88.9z M94.5,88.6
				c0.1,0,0.2,0.1,0.2,0.2c0,0.1-0.1,0.2-0.2,0.2c-0.1,0-0.2-0.1-0.2-0.2C94.3,88.7,94.4,88.6,94.5,88.6z M95.4,90.7
				c-0.1,0-0.2,0.1-0.2,0.2c-0.1,0.2,0,0.3,0.2,0.4c-0.1,0-0.2,0.1-0.3,0c-0.1-0.1-0.2-0.2-0.2-0.3c0,0,0-0.1,0.1-0.1
				c0-0.1-0.1-0.3-0.2-0.3c-0.1,0-0.3,0.1-0.3,0.2c0,0,0,0,0,0.1c-0.2,0.3-0.6,0.2-0.6-0.2c0.2,0,0.4,0,0.4-0.2c0-0.2,0-0.3-0.2-0.3
				c0-0.1,0-0.1-0.1-0.2c0.1,0,0.2-0.1,0.2-0.3c0-0.2-0.1-0.2-0.3-0.2c0.1-0.1,0.1-0.1,0.1-0.2l0.1,0C95,89.4,95.2,89.8,95.4,90.7z
				 M94.1,88.5c0.1,0,0.2,0.1,0.2,0.2c0,0.1-0.1,0.2-0.2,0.2c-0.1,0-0.2-0.1-0.2-0.2C93.9,88.6,94,88.5,94.1,88.5z M93.9,89
				C94,89,94,89,94,89.1c0,0.1-0.1,0.2-0.2,0.2c-0.1,0-0.2-0.1-0.2-0.2C93.7,89.1,93.8,89,93.9,89z M93.6,88.5
				c0.1,0,0.2,0.1,0.2,0.2s-0.1,0.2-0.2,0.2c-0.1,0-0.2-0.1-0.2-0.2S93.5,88.5,93.6,88.5z M93.3,88.2c0.1,0,0.2,0.1,0.2,0.2
				c0,0.1-0.1,0.2-0.2,0.2c-0.1,0-0.2-0.1-0.2-0.2C93.1,88.3,93.2,88.2,93.3,88.2z M92.8,87.9c0.1,0,0.2,0.1,0.2,0.2
				c0,0.1-0.1,0.2-0.2,0.2c-0.1,0-0.2-0.1-0.2-0.2C92.6,88,92.7,87.9,92.8,87.9z M92.4,87.8c0.1,0,0.2,0.1,0.2,0.2
				c0,0.1-0.1,0.2-0.2,0.2c-0.1,0-0.2-0.1-0.2-0.2C92.2,87.9,92.3,87.8,92.4,87.8z M91.9,87.7c0.1,0,0.2,0.1,0.2,0.2
				c0,0.1-0.1,0.2-0.2,0.2c-0.1,0-0.2-0.1-0.2-0.2C91.7,87.8,91.8,87.7,91.9,87.7z M91.5,88.2c0.1,0,0.2,0.1,0.2,0.2
				c0,0.1-0.1,0.2-0.2,0.2c-0.1,0-0.2-0.1-0.2-0.2C91.3,88.3,91.4,88.2,91.5,88.2z M91.5,89c-0.1,0-0.2-0.1-0.2-0.2
				c0-0.1,0.1-0.2,0.2-0.2c0.1,0,0.2,0.1,0.2,0.2C91.7,89,91.6,89,91.5,89z M91.7,89.4c0,0.1-0.1,0.2-0.2,0.2
				c-0.1,0-0.2-0.1-0.2-0.2c0-0.1,0.1-0.2,0.2-0.2C91.6,89.2,91.7,89.3,91.7,89.4z M91,87.8c0.1,0,0.2,0.1,0.2,0.2
				c0,0.1-0.1,0.2-0.2,0.2c-0.1,0-0.2-0.1-0.2-0.2C90.8,87.8,90.9,87.8,91,87.8z M90.5,87.9c0.1,0,0.2,0.1,0.2,0.2
				c0,0.1-0.1,0.2-0.2,0.2c-0.1,0-0.2-0.1-0.2-0.2C90.4,87.9,90.4,87.9,90.5,87.9z M90.1,88c0.1,0,0.2,0.1,0.2,0.2
				c0,0.1-0.1,0.2-0.2,0.2c-0.1,0-0.2-0.1-0.2-0.2C89.9,88.1,90,88,90.1,88z M91.3,88.3C91.3,88.3,91.3,88.3,91.3,88.3
				c0,0.1,0,0.1,0,0.2l0,0.2c0,0,0,0.1,0,0.1c0,0.1,0,0.1,0,0.1l0,0.2c0,0,0,0.1,0,0.1c0,0.1,0.1,0.2,0.2,0.2
				c0.1-0.1,0.2-0.1,0.2-0.3c0,0,0-0.1,0-0.1l0-0.3c0,0,0-0.1,0-0.1c0,0,0-0.1,0-0.1l0-0.2c0,0,0-0.1,0-0.1c0,0,0,0,0-0.1
				c1-0.1,1.8,0.5,1.9,1.5c-0.1,0-0.1,0.1-0.2,0.2c-0.2,0-0.3,0.1-0.3,0.2c0,0.2,0.1,0.3,0.3,0.4c-0.1,0.2-0.2,0.3-0.4,0.2
				c-0.1,0-0.2-0.1-0.2-0.3c0,0,0-0.1,0-0.1c0-0.1-0.1-0.3-0.3-0.2c-0.1,0-0.3,0.1-0.2,0.3c0,0,0,0.1,0,0.1c0,0.1-0.1,0.2-0.3,0.2
				c-0.2,0-0.3-0.1-0.3-0.3c0.2,0,0.4-0.1,0.3-0.3c0-0.2-0.1-0.3-0.2-0.3c-0.1-0.2-0.2-0.2-0.3-0.2c-0.2,0-0.3,0.1-0.3,0.3
				c-0.2,0-0.2,0.1-0.2,0.3c0,0.2,0.1,0.3,0.4,0.3c0,0.2-0.1,0.3-0.3,0.3c-0.1,0-0.3-0.1-0.3-0.2c0,0,0-0.1,0-0.1
				c0-0.1-0.1-0.3-0.3-0.2c-0.1,0-0.3,0.1-0.2,0.3c0,0,0,0.1,0,0.1c0,0.1-0.1,0.3-0.2,0.3c-0.2,0.1-0.3,0-0.4-0.2
				c0.2-0.1,0.3-0.2,0.3-0.4c-0.1-0.2-0.1-0.2-0.3-0.2c0-0.1-0.1-0.1-0.2-0.2C89.5,89,90.2,88.3,91.3,88.3z M89.7,88.4
				c0.1,0,0.2,0.1,0.2,0.2c0,0.1-0.1,0.2-0.2,0.2c-0.1,0-0.2-0.1-0.2-0.2C89.5,88.4,89.6,88.4,89.7,88.4z M89.4,88.8
				c0.1,0,0.2,0.1,0.2,0.2c0,0.1-0.1,0.2-0.2,0.2c-0.1,0-0.2-0.1-0.2-0.2S89.3,88.8,89.4,88.8z M89.4,89.4c0,0.1-0.1,0.2-0.2,0.2
				c-0.1,0-0.2-0.1-0.2-0.2c0-0.1,0.1-0.2,0.2-0.2C89.3,89.2,89.4,89.3,89.4,89.4z M88.9,88.7c0.1,0,0.2,0.1,0.2,0.2
				c0,0.1-0.1,0.2-0.2,0.2c-0.1,0-0.2-0.1-0.2-0.2C88.7,88.8,88.8,88.7,88.9,88.7z M88.9,89.4C88.9,89.4,88.9,89.4,88.9,89.4
				c0.1,0.2,0.1,0.2,0.2,0.3c-0.1,0-0.3,0.1-0.3,0.3c0,0.1,0.1,0.2,0.2,0.2c0,0.1,0,0.1,0,0.2c-0.2,0.1-0.2,0.2-0.1,0.4
				c0.1,0.2,0.2,0.2,0.4,0.2c0.1,0.4-0.3,0.5-0.5,0.3c0,0,0,0,0-0.1c0-0.1-0.2-0.2-0.3-0.2c-0.1,0-0.2,0.2-0.2,0.3
				c0,0,0,0.1,0.1,0.1c0,0.1,0,0.3-0.1,0.3c-0.1,0.1-0.2,0-0.3,0c0.2-0.1,0.3-0.2,0.2-0.4c0-0.1-0.1-0.2-0.2-0.2
				C87.9,90.2,88.1,89.8,88.9,89.4z M88.5,88.9c0.1,0,0.2,0.1,0.2,0.2c0,0.1-0.1,0.2-0.2,0.2c-0.1,0-0.2-0.1-0.2-0.2
				C88.3,89,88.4,88.9,88.5,88.9z M88.1,89.3c0.1,0,0.2,0.1,0.2,0.2c0,0.1-0.1,0.2-0.2,0.2c-0.1,0-0.2-0.1-0.2-0.2
				C87.9,89.3,88,89.3,88.1,89.3z M87.8,89.7c0.1,0,0.2,0.1,0.2,0.2c0,0.1-0.1,0.2-0.2,0.2c-0.1,0-0.2-0.1-0.2-0.2
				C87.6,89.8,87.7,89.7,87.8,89.7z M87.4,90.3c0-0.1,0.1-0.2,0.2-0.2c0.1,0,0.2,0.1,0.2,0.2c0,0.1-0.1,0.2-0.2,0.2
				C87.5,90.5,87.4,90.4,87.4,90.3z M87.5,90.6c0.1,0,0.2,0.1,0.2,0.2c0,0.1-0.1,0.2-0.2,0.2c-0.1,0-0.2-0.1-0.2-0.2
				C87.3,90.7,87.4,90.6,87.5,90.6z M87.4,91.2c0.1-0.1,0.3,0,0.4,0.1c0.1,0.1,0,0.3-0.1,0.4c-0.1,0.1-0.3,0-0.4-0.1
				C87.3,91.5,87.3,91.3,87.4,91.2z"/>
			<path fill="none" d="M88.3,90.1c-0.1,0.1-0.2,0.1-0.3,0.2c-0.1,0.2-0.1,0.4-0.1,0.7c0.1,0,0.2,0.1,0.2,0.2
				c0.1,0.1,0.1,0.3-0.1,0.4c0,0,0.1,0,0.1,0c0.1-0.1,0.1-0.1,0.1-0.2c0,0-0.1-0.1-0.1-0.1c-0.1-0.2,0-0.3,0.2-0.4
				c0.2-0.1,0.3,0,0.4,0.2c0,0,0,0,0,0.1c0.2,0.2,0.4,0.1,0.4-0.2c-0.3,0.1-0.4-0.1-0.4-0.2c0-0.1,0-0.3,0.1-0.4c0,0,0-0.1,0-0.1
				c-0.1,0-0.2-0.1-0.2-0.2C88.6,90,88.5,90.1,88.3,90.1z"/>
			<path fill="none" d="M91.7,93.1c-3.1,0.2-5.6,2.8-5.4,6c0.2,3.1,2.8,5.6,6,5.4c3.1-0.2,5.6-2.8,5.4-6
				C97.5,95.4,94.8,93,91.7,93.1z M96.9,101.4c-0.5,1-1.4,1.8-2.4,2.3l-0.5-0.5l-1-0.9c-0.2,0.1-0.4,0.1-0.7,0.1l0,0.8l-1.1,0.1
				l0-0.9c-1.7-0.4-2.9-1.9-3-3.5c0-0.3,0-0.6,0.1-0.8l-0.6-0.5c-0.1,0.5-0.2,1-0.2,1.5c0,1,0.5,2.1,1.3,2.8l-0.8,0.8
				c-1-1-1.6-2.2-1.6-3.6c-0.1-2.1,0.9-3.9,2.7-5l1.3,1.3c0.4-0.2,0.9-0.3,1.3-0.3c0.5,0,0.9,0,1.3,0.2l1.2-1.4
				c1.9,0.9,3.1,2.7,3.2,4.7C97.6,99.6,97.4,100.5,96.9,101.4z"/>
			<circle fill="none" cx="88.9" cy="88.9" r="0.1"/>
			<path fill="none" d="M91.1,101.1l0-0.5L89.4,99C89.4,99.9,90.1,100.8,91.1,101.1z"/>
			<circle fill="none" cx="88.5" cy="89.1" r="0.1"/>
			<path fill="none" d="M88.3,90.1c0.1-0.1,0.3-0.1,0.5-0.2c0-0.2,0.1-0.3,0.2-0.3c0,0-0.1-0.1-0.1-0.2c-0.4,0.3-0.7,0.5-0.8,0.8
				C88.1,90.2,88.2,90.1,88.3,90.1z"/>
			<path fill="#004B93" d="M89.4,89.1c0.1,0,0.2-0.1,0.2-0.2c0-0.1-0.1-0.2-0.2-0.2c-0.1,0-0.2,0.1-0.2,0.2S89.3,89.1,89.4,89.1z
				 M89.4,88.8c0.1,0,0.1,0.1,0.1,0.1c0,0.1-0.1,0.1-0.1,0.1c-0.1,0-0.1-0.1-0.1-0.1C89.2,88.9,89.3,88.8,89.4,88.8z"/>
			<path fill="#004B93" d="M87.9,91.1c0.1,0,0.2,0.1,0.2,0.2c0.1,0.2,0,0.3-0.2,0.4c0.1,0,0.2,0.1,0.3,0c0.1-0.1,0.2-0.2,0.1-0.3
				c0,0-0.1-0.1-0.1-0.1c0-0.1,0-0.3,0.2-0.3c0.1,0,0.3,0,0.3,0.2c0,0,0,0,0,0.1c0.2,0.2,0.6,0.1,0.5-0.3c-0.2,0.1-0.4,0-0.4-0.2
				c-0.1-0.2,0-0.3,0.1-0.4c0-0.1,0-0.1,0-0.2c-0.1,0-0.2-0.1-0.2-0.2c0-0.2,0.1-0.2,0.3-0.3c-0.1-0.1-0.2-0.1-0.2-0.2
				c0,0,0,0-0.1,0C88.1,89.8,87.9,90.2,87.9,91.1z M89,90.2c0,0,0,0.1,0,0.1c-0.2,0.1-0.2,0.3-0.1,0.4c0.1,0.2,0.2,0.3,0.4,0.2
				c0,0.2-0.3,0.3-0.4,0.2c0,0,0,0,0-0.1c-0.1-0.2-0.2-0.3-0.4-0.2c-0.2,0.1-0.3,0.2-0.2,0.4c0,0,0,0.1,0.1,0.1c0,0.1,0,0.2-0.1,0.2
				c0,0-0.1,0-0.1,0c0.2-0.1,0.1-0.3,0.1-0.4c0-0.1-0.1-0.2-0.2-0.2c0-0.3,0-0.5,0.1-0.7c0.1-0.1,0.2-0.1,0.3-0.2
				c0.1-0.1,0.3-0.1,0.5-0.2C88.8,90.1,88.9,90.2,89,90.2z M88.9,89.4c0,0.1,0,0.1,0.1,0.2c-0.1,0.1-0.2,0.2-0.2,0.3
				c-0.2,0-0.3,0.1-0.5,0.2c-0.1,0-0.2,0.1-0.3,0.2C88.2,89.9,88.4,89.7,88.9,89.4z"/>
			<path fill="#004B93" d="M89,89.4c0,0.1,0.1,0.2,0.2,0.2c0.1,0,0.2-0.1,0.2-0.2c0-0.1-0.1-0.2-0.2-0.2C89.1,89.2,89,89.3,89,89.4z
				 M89.2,89.2c0.1,0,0.1,0.1,0.1,0.1c0,0.1-0.1,0.1-0.1,0.1c-0.1,0-0.1-0.1-0.1-0.1C89,89.3,89.1,89.3,89.2,89.2z"/>
			<path fill="#004B93" d="M87.8,90.3c0-0.1-0.1-0.2-0.2-0.2c-0.1,0-0.2,0.1-0.2,0.2c0,0.1,0.1,0.2,0.2,0.2
				C87.7,90.5,87.8,90.4,87.8,90.3z M87.4,90.3c0-0.1,0.1-0.1,0.1-0.1c0.1,0,0.1,0.1,0.1,0.1c0,0.1-0.1,0.1-0.1,0.1
				C87.5,90.4,87.5,90.4,87.4,90.3z"/>
			<path fill="#004B93" d="M88.9,89.1c0.1,0,0.2-0.1,0.2-0.2c0-0.1-0.1-0.2-0.2-0.2c-0.1,0-0.2,0.1-0.2,0.2
				C88.7,89,88.8,89.1,88.9,89.1z M88.9,88.8c0.1,0,0.1,0.1,0.1,0.1c0,0.1-0.1,0.1-0.1,0.1c-0.1,0-0.1-0.1-0.1-0.1
				C88.8,88.8,88.8,88.8,88.9,88.8z"/>
			<path fill="#004B93" d="M88.5,89.3c0.1,0,0.2-0.1,0.2-0.2c0-0.1-0.1-0.2-0.2-0.2c-0.1,0-0.2,0.1-0.2,0.2
				C88.3,89.2,88.4,89.3,88.5,89.3z M88.5,89c0.1,0,0.1,0.1,0.1,0.1c0,0.1-0.1,0.1-0.1,0.1c-0.1,0-0.1-0.1-0.1-0.1
				C88.3,89,88.4,89,88.5,89z"/>
			<path fill="#004B93" d="M87.8,90c0.1,0,0.2-0.1,0.2-0.2c0-0.1-0.1-0.2-0.2-0.2c-0.1,0-0.2,0.1-0.2,0.2C87.6,90,87.7,90,87.8,90z
				 M87.8,89.7c0.1,0,0.1,0.1,0.1,0.1c0,0.1-0.1,0.1-0.1,0.1c-0.1,0-0.1-0.1-0.1-0.1C87.6,89.8,87.7,89.7,87.8,89.7z"/>
			<path fill="#004B93" d="M88.1,89.6c0.1,0,0.2-0.1,0.2-0.2c0-0.1-0.1-0.2-0.2-0.2c-0.1,0-0.2,0.1-0.2,0.2
				C87.9,89.5,88,89.6,88.1,89.6z M88.1,89.3c0.1,0,0.1,0.1,0.1,0.1c0,0.1-0.1,0.1-0.1,0.1c-0.1,0-0.1-0.1-0.1-0.1
				C87.9,89.4,88,89.3,88.1,89.3z"/>
			<path fill="#004B93" d="M91.3,89.4c0,0.1,0.1,0.2,0.2,0.2c0.1,0,0.2-0.1,0.2-0.2c0-0.1-0.1-0.2-0.2-0.2
				C91.4,89.2,91.3,89.3,91.3,89.4z M91.7,89.4c0,0.1-0.1,0.1-0.1,0.1c-0.1,0-0.1-0.1-0.1-0.1c0-0.1,0.1-0.1,0.1-0.1
				C91.6,89.2,91.7,89.3,91.7,89.4z"/>
			<path fill="#004B93" d="M90.6,88.2c0.1,0,0.2-0.1,0.2-0.2c0-0.1-0.1-0.2-0.2-0.2c-0.1,0-0.2,0.1-0.2,0.2
				C90.4,88.1,90.5,88.2,90.6,88.2z M90.5,87.9c0.1,0,0.1,0.1,0.1,0.1c0,0.1-0.1,0.1-0.1,0.1c-0.1,0-0.1-0.1-0.1-0.1
				C90.4,88,90.5,87.9,90.5,87.9z"/>
			<path fill="#004B93" d="M91,88.1c0.1,0,0.2-0.1,0.2-0.2c0-0.1-0.1-0.2-0.2-0.2c-0.1,0-0.2,0.1-0.2,0.2C90.8,88,90.9,88.1,91,88.1
				z M91,87.8c0.1,0,0.1,0.1,0.1,0.1c0,0.1-0.1,0.1-0.1,0.1c-0.1,0-0.1-0.1-0.1-0.1S90.9,87.8,91,87.8z"/>
			<path fill="#004B93" d="M87.5,91c0.1,0,0.2-0.1,0.2-0.2c0-0.1-0.1-0.2-0.2-0.2c-0.1,0-0.2,0.1-0.2,0.2C87.3,90.9,87.4,91,87.5,91
				z M87.5,90.7c0.1,0,0.1,0.1,0.1,0.1c0,0.1-0.1,0.1-0.1,0.1c-0.1,0-0.1-0.1-0.1-0.1C87.4,90.7,87.4,90.7,87.5,90.7z"/>
			<path fill="#004B93" d="M90.1,88.4c0.1,0,0.2-0.1,0.2-0.2c0-0.1-0.1-0.2-0.2-0.2c-0.1,0-0.2,0.1-0.2,0.2
				C89.9,88.3,90,88.4,90.1,88.4z M90.1,88.1c0.1,0,0.1,0.1,0.1,0.1c0,0.1-0.1,0.1-0.1,0.1c-0.1,0-0.1-0.1-0.1-0.1
				C90,88.2,90,88.1,90.1,88.1z"/>
			<path fill="#004B93" d="M89.7,90.2c0.2,0,0.3,0,0.3,0.2c0.1,0.2,0,0.3-0.3,0.4c0.1,0.1,0.2,0.2,0.4,0.2c0.1,0,0.2-0.2,0.2-0.3
				c0,0,0-0.1,0-0.1c0-0.1,0.1-0.3,0.2-0.3c0.1,0,0.3,0.1,0.3,0.2c0,0,0,0.1,0,0.1c0,0.1,0.2,0.2,0.3,0.2c0.2,0,0.3-0.1,0.3-0.3
				c-0.2,0-0.4,0-0.4-0.3c0-0.2,0-0.3,0.2-0.3c0-0.2,0.1-0.2,0.3-0.3c-0.1,0-0.2-0.1-0.2-0.2c0,0,0-0.1,0-0.1l0-0.2c0,0,0-0.1,0-0.1
				c0,0,0-0.1,0-0.1l0-0.2c0,0,0-0.1,0-0.1c0,0,0,0,0-0.1c-1,0-1.7,0.7-1.8,1.7C89.6,90,89.6,90.1,89.7,90.2z M91.2,88.4
				c0,0.1,0,0.1,0.1,0.1l0,0.2c0,0,0,0.1,0,0.2c0,0.1,0,0.1,0.1,0.1l0,0.1c-0.5-0.1-1.2,0-1.6,0.3C89.9,88.8,90.4,88.4,91.2,88.4z
				 M91.3,89.2L91.3,89.2c0,0.1,0,0.1,0,0.2c0,0.1,0,0.2,0.1,0.2c-0.1,0-0.2,0.1-0.2,0.2c-0.2,0.1-0.2,0.2-0.2,0.4
				c0,0.2,0.1,0.3,0.4,0.3c0,0.1-0.1,0.2-0.2,0.2c-0.1,0-0.2-0.1-0.2-0.2c0,0,0-0.1,0-0.1c0-0.2-0.2-0.3-0.3-0.3
				c-0.2,0-0.3,0.2-0.3,0.3c0,0.1,0,0.1,0,0.1c0,0.1-0.1,0.2-0.2,0.2c-0.1,0-0.2,0-0.3-0.1c0.3-0.1,0.3-0.3,0.2-0.4
				c0-0.1-0.1-0.3-0.3-0.3c0-0.1-0.1-0.1-0.1-0.1c0-0.1,0-0.3,0.1-0.4C90.1,89.2,90.8,89.1,91.3,89.2z"/>
			<path fill="#004B93" d="M91.9,89.9c0.2,0,0.2,0.1,0.2,0.3c0,0.2-0.1,0.3-0.3,0.3c0,0.2,0.1,0.3,0.3,0.3c0.1,0,0.3-0.1,0.3-0.2
				c0,0,0-0.1,0-0.1c0-0.1,0.1-0.3,0.2-0.3c0.1,0,0.3,0.1,0.3,0.2c0,0,0,0.1,0,0.1c0,0.1,0.1,0.3,0.2,0.3c0.2,0,0.3-0.1,0.4-0.2
				c-0.2,0-0.3-0.1-0.3-0.4c0-0.2,0.1-0.2,0.3-0.2c0-0.1,0.1-0.1,0.2-0.2c-0.2-1-0.9-1.6-1.9-1.5c0,0,0,0,0,0.1c0,0,0,0.1,0,0.1
				l0,0.2c0,0,0,0.1,0,0.1c0,0.1,0,0.1,0,0.1l0,0.3c0,0,0,0.1,0,0.1c0,0.1-0.1,0.2-0.2,0.3C91.7,89.6,91.8,89.6,91.9,89.9z M91.7,89
				c0,0,0-0.1,0-0.2c0-0.1,0-0.1-0.1-0.1l0-0.2c0,0,0-0.1,0-0.2c0.8-0.1,1.4,0.3,1.7,1c-0.5-0.2-1.1-0.3-1.7-0.2L91.7,89z
				 M91.8,89.4c0-0.1,0-0.1-0.1-0.1l0,0c0.5-0.1,1.2-0.1,1.7,0.2c0.1,0.1,0.1,0.3,0.1,0.4c-0.1,0-0.1,0.1-0.1,0.1
				c-0.2,0-0.3,0.1-0.3,0.3c0,0.2,0,0.4,0.3,0.4c-0.1,0.1-0.2,0.1-0.3,0.1c-0.1,0-0.2-0.1-0.2-0.2c0,0,0-0.1,0-0.2
				c0-0.2-0.2-0.3-0.3-0.3c-0.2,0-0.3,0.2-0.3,0.3c0,0,0,0.1,0,0.1c0,0.1-0.1,0.2-0.2,0.2c-0.1,0-0.2-0.1-0.2-0.2
				c0.3,0,0.3-0.2,0.3-0.4c0-0.2-0.1-0.3-0.3-0.3c0-0.1-0.1-0.2-0.2-0.2C91.8,89.5,91.8,89.4,91.8,89.4z"/>
			<path fill="#004B93" d="M89.7,88.7c0.1,0,0.2-0.1,0.2-0.2c0-0.1-0.1-0.2-0.2-0.2c-0.1,0-0.2,0.1-0.2,0.2
				C89.5,88.6,89.6,88.7,89.7,88.7z M89.7,88.4c0.1,0,0.1,0.1,0.1,0.1c0,0.1-0.1,0.1-0.1,0.1c-0.1,0-0.1-0.1-0.1-0.1
				C89.5,88.5,89.6,88.4,89.7,88.4z"/>
			<path fill="#004B93" d="M91.5,88.7c-0.1,0-0.2,0.1-0.2,0.2c0,0.1,0.1,0.2,0.2,0.2c0.1,0,0.2-0.1,0.2-0.2
				C91.7,88.8,91.6,88.7,91.5,88.7z M91.5,89c-0.1,0-0.1-0.1-0.1-0.1c0-0.1,0.1-0.1,0.1-0.1c0.1,0,0.1,0.1,0.1,0.1
				C91.6,88.9,91.6,89,91.5,89z"/>
			<path fill="#004B93" d="M91.7,92.9c-3.2,0.2-5.7,2.9-5.6,6.2c0.2,3.2,2.9,5.7,6.2,5.6c3.2-0.2,5.7-2.9,5.6-6.2
				C97.7,95.3,94.9,92.8,91.7,92.9z M92.3,104.5c-3.1,0.2-5.8-2.3-6-5.4c-0.2-3.1,2.3-5.8,5.4-6c3.1-0.2,5.8,2.3,6,5.4
				C97.8,101.6,95.4,104.3,92.3,104.5z"/>
			<path fill="#004B93" d="M91,96.1l0.9,0.8l0.8-0.9c-0.3-0.1-0.6-0.1-0.8-0.1C91.5,95.9,91.3,96,91,96.1z M91.9,96.6l-0.5-0.4
				c0.2,0,0.3-0.1,0.4-0.1c0.2,0,0.3,0,0.5,0L91.9,96.6z"/>
			<path fill="#004B93" d="M87.7,91.7c0.1-0.1,0.2-0.3,0.1-0.4c-0.1-0.1-0.3-0.2-0.4-0.1c-0.1,0.1-0.2,0.3-0.1,0.4
				C87.4,91.8,87.6,91.8,87.7,91.7z M87.5,91.2c0.1-0.1,0.3,0,0.3,0.1c0.1,0.1,0,0.3-0.1,0.3c-0.1,0.1-0.3,0-0.4-0.1
				C87.3,91.5,87.3,91.3,87.5,91.2z"/>
			<path fill="#004B93" d="M87.7,91.9c0.1,0.1,0.3,0.1,0.4,0.1c0,0,0,0.1,0,0.1c0,0.1,0.1,0.1,0.2,0.1c0,0.1,0,0.1,0.1,0.2l0,0.2
				l0.2,0.1c0,0,0,0.1,0,0.1c0,0.1,0.1,0.1,0.1,0c0.9-0.5,1.8-0.7,2.9-0.8c1-0.1,2,0.1,2.9,0.5c0.1,0,0.1,0,0.1-0.1c0,0,0-0.1,0-0.1
				l0.2-0.1L94.8,92c0.1,0,0.1-0.1,0.1-0.2c0.1,0,0.2-0.1,0.2-0.2c0.2,0,0.3,0,0.4-0.1c0.2,0.1,0.3,0,0.4-0.1
				c0.1-0.1,0.2-0.3,0.1-0.5c0.1-0.2,0.1-0.3-0.1-0.4c0,0,0-0.1,0-0.1c0-0.1-0.1-0.2-0.2-0.3c0-0.1,0.1-0.1,0.1-0.2
				c0-0.1-0.1-0.3-0.3-0.3c0,0,0-0.1,0-0.1c0-0.2-0.2-0.3-0.4-0.3c0,0,0-0.1,0-0.1c0-0.2-0.2-0.3-0.3-0.3c0,0-0.1,0-0.1,0
				c0-0.2-0.2-0.3-0.3-0.3c-0.1,0-0.1,0-0.1,0c-0.1-0.1-0.2-0.2-0.3-0.2c-0.1,0-0.2,0.1-0.2,0.1c-0.1,0-0.1-0.1-0.2-0.1
				c0,0,0,0,0-0.1c0-0.2-0.2-0.3-0.3-0.3c0,0-0.1,0-0.1,0c0-0.2-0.2-0.3-0.3-0.3c-0.1,0-0.1,0-0.2,0c-0.1-0.1-0.2-0.2-0.3-0.2
				c-0.1,0-0.1,0-0.2,0.1c-0.1-0.1-0.2-0.1-0.3-0.1c0,0-0.1,0-0.1,0c-0.1-0.1-0.1-0.1-0.2-0.1l0-0.2l0.2,0l0-0.3l-0.2,0l0-0.2
				l-0.3,0l0,0.2L91,87l0,0.3l0.2,0l0,0.2c-0.1,0-0.1,0.1-0.2,0.1c0,0-0.1,0-0.1,0c-0.1,0-0.2,0.1-0.3,0.2c-0.1,0-0.1-0.1-0.2-0.1
				c-0.1,0-0.2,0.1-0.3,0.2c0,0-0.1,0-0.2,0c-0.2,0-0.3,0.2-0.3,0.3c0,0-0.1,0-0.1,0c-0.2,0-0.3,0.2-0.3,0.3c0,0,0,0,0,0.1
				c-0.1,0-0.2,0-0.2,0.1c-0.1-0.1-0.2-0.1-0.3-0.1c-0.1,0-0.2,0.1-0.3,0.2c0,0-0.1,0-0.1,0c-0.2,0-0.3,0.2-0.3,0.3c0,0-0.1,0-0.1,0
				c-0.2,0-0.3,0.2-0.3,0.3c0,0,0,0.1,0,0.1c-0.2,0-0.3,0.2-0.3,0.3c0,0,0,0.1,0,0.1c-0.1,0-0.2,0.2-0.2,0.3c0,0.1,0,0.2,0.1,0.2
				c-0.1,0.1-0.2,0.2-0.2,0.3c0,0,0,0.1,0,0.1c-0.1,0.1-0.1,0.3,0,0.4C87,91.6,87.4,92.1,87.7,91.9z M88.6,92.6l-0.2-0.1l0-0.2
				l0.1,0l0.1,0L88.6,92.6L88.6,92.6z M94.9,92.2l-0.2,0.1l0-0.1l0-0.2l0.2,0L94.9,92.2z M94.8,91.9C94.8,91.9,94.8,91.9,94.8,91.9
				L94.6,92l0.1,0.2l0,0c0.1,0,0,0.1,0,0.1c-0.9-0.4-1.9-0.6-3-0.5c-1,0.1-2,0.3-2.9,0.8c0,0,0,0-0.1,0c0,0,0,0,0-0.1c0,0,0,0,0,0
				l0,0l0-0.2l-0.2-0.1c0,0,0,0,0,0c-0.1,0-0.1-0.1,0-0.1c0.9-0.5,2-0.8,3.2-0.9C92.8,91.2,93.9,91.4,94.8,91.9
				C94.9,91.9,94.9,91.9,94.8,91.9z M87.3,91c0,0-0.1-0.1-0.1-0.2c0-0.2,0.1-0.2,0.3-0.3c-0.1-0.1-0.2-0.1-0.2-0.2
				c0-0.2,0.1-0.3,0.3-0.3c0-0.1-0.1-0.1-0.1-0.2c0-0.1,0.1-0.3,0.2-0.3c0,0,0.1,0,0.1,0c0-0.1-0.1-0.1-0.1-0.2
				c0-0.1,0.1-0.3,0.2-0.3c0.1,0,0.1,0,0.2,0c0,0,0-0.1,0-0.1c0-0.1,0.1-0.3,0.2-0.3c0.1,0,0.1,0,0.2,0.1c0-0.1,0.1-0.3,0.2-0.3
				c0.1,0,0.2,0.1,0.2,0.1c0.1-0.1,0.1-0.1,0.2-0.1c0,0,0.1,0,0.1,0c0,0,0-0.1,0-0.1c0-0.1,0.1-0.3,0.2-0.3c0.1,0,0.1,0,0.2,0.1
				c0,0,0-0.1,0-0.1c0-0.1,0.1-0.3,0.2-0.3c0.1,0,0.1,0,0.2,0.1c0-0.1,0.1-0.3,0.2-0.3c0.1,0,0.2,0,0.2,0.1c0-0.1,0.1-0.2,0.2-0.2
				c0,0,0.1,0,0.1,0c0.1-0.1,0.1-0.1,0.3-0.2l0-0.3l-0.2,0l0-0.2l0.2,0l0-0.2l0.2,0l0,0.2l0.2,0l0,0.2l-0.2,0l0,0.3
				c0.1,0,0.2,0.1,0.3,0.1c0,0,0.1,0,0.1,0c0.1,0,0.2,0.1,0.3,0.2c0.1-0.1,0.1-0.1,0.2-0.1c0.2,0,0.2,0.1,0.3,0.2
				c0.1,0,0.1-0.1,0.2-0.1c0.1,0,0.3,0.1,0.3,0.2c0,0,0,0.1,0,0.1c0.1,0,0.1-0.1,0.2-0.1c0.1,0,0.3,0.1,0.3,0.2c0,0.1,0,0.1,0,0.1
				c0,0,0.1,0,0.1,0c0.1,0,0.2,0,0.2,0.1c0.1-0.1,0.1-0.2,0.2-0.2c0.2,0,0.2,0.1,0.3,0.2c0.1,0,0.1-0.1,0.2-0.1
				c0.1,0,0.3,0.1,0.3,0.2c0,0,0,0.1,0,0.1c0.1,0,0.1-0.1,0.2-0.1c0.1,0,0.3,0.1,0.3,0.2c0,0.1,0,0.1,0,0.2c0,0,0.1,0,0.1,0
				c0.1,0,0.3,0.1,0.3,0.2c0,0.1,0,0.1-0.1,0.2c0.1,0,0.3,0.1,0.3,0.2c0,0.1-0.1,0.2-0.1,0.2c0.1,0,0.3,0.1,0.3,0.2
				c0,0.1,0,0.1,0,0.2c0.2,0.1,0.2,0.3,0.1,0.4c0.2,0.1,0.1,0.3,0,0.4c-0.1,0.1-0.3,0.1-0.4,0c-0.2,0.1-0.3,0.2-0.5,0.1l0,0.1
				c0.1,0.1,0,0.2-0.2,0.2c-1-0.4-2.1-0.6-3.3-0.6c-1.2,0.1-2.2,0.4-3.2,0.9c-0.1,0-0.1,0-0.2-0.1c0-0.1,0-0.1,0-0.2
				c-0.2,0.1-0.3,0.1-0.5,0c-0.3,0.2-0.7-0.2-0.5-0.4C87.1,91.2,87.1,91.1,87.3,91z"/>
			<path fill="#004B93" d="M94.4,93.8l-1.2,1.4c-0.4-0.1-0.8-0.2-1.3-0.2c-0.4,0-0.9,0.1-1.3,0.3L89.1,94c-1.7,1.1-2.8,3-2.7,5
				c0.1,1.4,0.6,2.6,1.6,3.6l0.8-0.8c-0.8-0.7-1.3-1.8-1.3-2.8c0-0.5,0.1-1,0.2-1.5l0.6,0.5c-0.1,0.3-0.1,0.5-0.1,0.8
				c0.1,1.7,1.3,3.2,3,3.5l0,0.9l1.1-0.1l0-0.8c0.2,0,0.5-0.1,0.7-0.1l1,0.9l0.5,0.5c1-0.5,1.8-1.3,2.4-2.3c0.5-0.9,0.7-1.9,0.7-2.9
				C97.4,96.4,96.2,94.7,94.4,93.8z M96.3,102l-0.6-0.6c0.6-0.8,1-1.7,0.9-2.9c-0.1-1.4-0.9-2.8-2-3.6l-0.7,0.8
				c0.4,0.3,0.7,0.5,1,0.9l-0.5,0.5c-0.2-0.4-0.6-0.7-0.9-0.9L92,98l-1.6-1.5c-0.8,0.6-1.2,1.4-1.2,2.4c0,1.3,0.9,2.2,2.2,2.5
				l-0.1-2.7l1.8-0.1l0,0.5l-1.1,0.1l0,0.7l1.1-0.1l0,0.6l-1.1,0.1l0,0.9c0.8,0,1.7-0.5,2.2-1.1l0.6,0.5c-0.7,0.8-1.7,1.3-2.7,1.4
				l0,0.8l-0.7,0l0-0.9c-1.6-0.3-2.9-1.7-2.9-3.4c0-1.2,0.5-2.1,1.4-2.9L89,95.2c-1.1,1-1.7,2.2-1.7,3.8c0,1.4,0.8,2.4,1.2,2.8
				l-0.5,0.5c-0.8-0.9-1.4-2-1.4-3.3c-0.1-2,0.9-3.8,2.5-4.8l1.3,1.3c0.4-0.2,0.9-0.3,1.4-0.3c0.5,0,0.9,0,1.4,0.2l0,0l1.2-1.4
				c1.7,0.8,2.8,2.5,2.9,4.5C97.4,99.8,97,101,96.3,102z M92.6,97.5l0.8-0.9c0.4,0.3,0.6,0.5,0.9,0.9l0.8-0.8c-0.3-0.4-0.6-0.7-1-1
				l0.5-0.5c0.8,0.6,1.7,1.9,1.8,3.3c0,0.8-0.1,1.5-0.4,2.1L92.6,97.5z M91.1,100.6l0,0.5c-1.1-0.3-1.7-1.2-1.8-2.1L91.1,100.6z"/>
			<path fill="#004B93" d="M91.7,92.1c-3.7,0.2-6.6,3.4-6.4,7.1c0.2,3.7,3.4,6.6,7.1,6.4c3.7-0.2,6.6-3.4,6.4-7.1
				C98.5,94.8,95.4,91.9,91.7,92.1z M92.3,105.3c-3.6,0.2-6.7-2.6-6.8-6.2c-0.2-3.6,2.6-6.7,6.2-6.9c3.6-0.2,6.7,2.6,6.8,6.2
				C98.7,102.1,95.9,105.1,92.3,105.3z"/>
			<path fill="#004B93" d="M93.3,88.5c0.1,0,0.2-0.1,0.2-0.2c0-0.1-0.1-0.2-0.2-0.2c-0.1,0-0.2,0.1-0.2,0.2
				C93.1,88.5,93.2,88.5,93.3,88.5z M93.3,88.2c0.1,0,0.1,0.1,0.1,0.1c0,0.1-0.1,0.1-0.1,0.1s-0.1-0.1-0.1-0.1
				C93.1,88.3,93.2,88.2,93.3,88.2z"/>
			<path fill="#004B93" d="M88.7,91.4c-0.1,0.1-0.1,0.1-0.2,0.1c0,0.1,0,0.2-0.1,0.3l0,0c0.2-0.1,0.4-0.2,0.6-0.3l0-0.1
				C88.9,91.5,88.8,91.4,88.7,91.4z M88.5,91.7c0-0.1,0.1-0.1,0.1-0.2c0,0,0.1,0,0.1,0c0.1,0,0.1,0.1,0.2,0.1
				C88.8,91.6,88.6,91.6,88.5,91.7z"/>
			<path fill="#004B93" d="M89.3,89.9c0-0.1-0.1-0.2-0.2-0.2c-0.1,0-0.2,0.1-0.2,0.2c0,0.1,0.1,0.2,0.2,0.2
				C89.2,90.1,89.3,90,89.3,89.9z M89.1,90c-0.1,0-0.1-0.1-0.1-0.1c0-0.1,0.1-0.1,0.1-0.1c0.1,0,0.1,0.1,0.1,0.1
				C89.2,90,89.2,90,89.1,90z"/>
			<path fill="#004B93" d="M89.5,90.8c0.2,0,0.2-0.2,0.2-0.4c0-0.2-0.2-0.2-0.4-0.2c-0.2,0-0.2,0.2-0.2,0.4
				C89.2,90.7,89.3,90.8,89.5,90.8z M89.3,90.2c0.1,0,0.3,0,0.3,0.2c0,0.1,0,0.3-0.2,0.3c-0.1,0-0.3,0-0.3-0.2
				C89.1,90.4,89.2,90.3,89.3,90.2z"/>
			<path fill="#004B93" d="M89.6,90.9L89.6,90.9c0,0.2-0.1,0.3-0.2,0.4l0,0.1c0.2-0.1,0.4-0.1,0.5-0.2l0-0.1
				C89.8,91.1,89.6,91,89.6,90.9z M89.5,91.3c0.1-0.1,0.1-0.2,0.1-0.3c0.1,0.1,0.1,0.1,0.2,0.2C89.7,91.2,89.6,91.2,89.5,91.3z"/>
			<path fill="#004B93" d="M90.6,90.7C90.6,90.7,90.6,90.8,90.6,90.7l-0.1,0c0,0.1-0.1,0.2-0.2,0.3l0,0.1c0.2,0,0.4-0.1,0.6-0.1
				l0-0.1C90.8,90.9,90.7,90.8,90.6,90.7z M90.4,91c0.1-0.1,0.1-0.1,0.1-0.2c0,0,0,0,0.1,0c0.1,0.1,0.1,0.1,0.2,0.2
				C90.7,91,90.5,91,90.4,91z"/>
			<path fill="#004B93" d="M92.7,90.6L92.7,90.6c-0.1,0-0.1,0-0.1,0c-0.1,0.1-0.2,0.2-0.3,0.2l0,0.1c0.2,0,0.4,0,0.6,0l0-0.1
				C92.8,90.9,92.7,90.8,92.7,90.6z M92.4,90.9c0.1,0,0.1-0.1,0.2-0.2c0,0,0,0,0.1,0l0,0c0,0.1,0.1,0.1,0.1,0.2
				C92.7,90.9,92.5,90.9,92.4,90.9z"/>
			<path fill="#004B93" d="M91.9,90.1c0-0.2-0.1-0.3-0.3-0.3c-0.2,0-0.3,0.1-0.3,0.3c0,0.2,0.1,0.3,0.3,0.3
				C91.7,90.4,91.9,90.3,91.9,90.1z M91.3,90.1c0-0.1,0.1-0.3,0.2-0.3c0.1,0,0.3,0.1,0.3,0.2c0,0.1-0.1,0.3-0.2,0.3
				C91.4,90.4,91.3,90.3,91.3,90.1z"/>
			<path fill="#004B93" d="M91.6,90.5L91.6,90.5c-0.1,0.2-0.2,0.3-0.3,0.4l0,0.1c0.1,0,0.2,0,0.3,0c0.1,0,0.2,0,0.3,0l0-0.1
				C91.8,90.8,91.6,90.7,91.6,90.5z M91.6,90.9l-0.2,0c0.1-0.1,0.1-0.2,0.2-0.2c0,0.1,0.1,0.2,0.2,0.2L91.6,90.9z"/>
			<path fill="#004B93" d="M94.3,91.8c-0.1,0-0.2,0.1-0.2,0.2c0,0.1,0.1,0.2,0.2,0.2c0.1,0,0.2-0.1,0.2-0.2
				C94.5,91.9,94.4,91.8,94.3,91.8z M94.3,92.1c-0.1,0-0.1-0.1-0.1-0.1c0-0.1,0.1-0.1,0.1-0.1c0.1,0,0.1,0.1,0.1,0.1
				C94.5,92,94.4,92.1,94.3,92.1z"/>
			<path fill="#004B93" d="M90.7,91.5c-0.1,0-0.2,0.1-0.2,0.2c0,0.1,0.1,0.2,0.2,0.2c0.1,0,0.2-0.1,0.2-0.2
				C90.9,91.6,90.8,91.5,90.7,91.5z M90.7,91.8c-0.1,0-0.1-0.1-0.1-0.1c0-0.1,0.1-0.1,0.1-0.1s0.1,0.1,0.1,0.1
				C90.9,91.8,90.8,91.8,90.7,91.8z"/>
			<polygon fill="#004B93" points="89.4,92.1 89.9,92.1 90.3,91.8 89.8,91.7 			"/>
			<path fill="#004B93" d="M89,92.1c-0.1,0-0.2,0.1-0.2,0.2c0,0.1,0.1,0.2,0.2,0.2c0.1,0,0.2-0.1,0.2-0.2
				C89.2,92.1,89.1,92.1,89,92.1z M89,92.4c-0.1,0-0.1-0.1-0.1-0.1c0-0.1,0.1-0.1,0.1-0.1c0.1,0,0.1,0.1,0.1,0.1
				C89.2,92.3,89.1,92.4,89,92.4z"/>
			<path fill="#004B93" d="M93.7,90.7L93.7,90.7c-0.1,0.1-0.2,0.3-0.4,0.3l0,0.1c0.2,0,0.4,0.1,0.6,0.1l0-0.1
				C93.8,91,93.7,90.8,93.7,90.7z M93.4,91c0.1,0,0.2-0.1,0.2-0.2c0,0.1,0.1,0.2,0.1,0.3C93.6,91,93.5,91,93.4,91z"/>
			<polygon fill="#004B93" points="92.9,91.6 93.4,91.9 93.9,91.8 93.5,91.5 			"/>
			<path fill="#004B93" d="M91.1,91.6l0.6,0.2l0.6-0.2l-0.6-0.2L91.1,91.6z M91.6,91.8l-0.5-0.1l0.4-0.2l0.5,0.1L91.6,91.8z"/>
			<path fill="#004B93" d="M92.5,91.4c-0.1,0-0.2,0.1-0.2,0.2c0,0.1,0.1,0.2,0.2,0.2c0.1,0,0.2-0.1,0.2-0.2
				C92.7,91.5,92.6,91.4,92.5,91.4z M92.6,91.7c-0.1,0-0.1-0.1-0.1-0.1c0-0.1,0.1-0.1,0.1-0.1c0.1,0,0.1,0.1,0.1,0.1
				C92.7,91.7,92.6,91.7,92.6,91.7z"/>
			<path fill="#004B93" d="M95.4,89.9c0,0.1,0.1,0.2,0.2,0.2c0.1,0,0.2-0.1,0.2-0.2c0-0.1-0.1-0.2-0.2-0.2
				C95.4,89.7,95.3,89.8,95.4,89.9z M95.5,89.8c0.1,0,0.1,0.1,0.1,0.1c0,0.1-0.1,0.1-0.1,0.1c-0.1,0-0.1-0.1-0.1-0.1
				C95.4,89.8,95.4,89.8,95.5,89.8z"/>
			<path fill="#004B93" d="M93.6,88.9c0.1,0,0.2-0.1,0.2-0.2s-0.1-0.2-0.2-0.2c-0.1,0-0.2,0.1-0.2,0.2S93.5,88.9,93.6,88.9z
				 M93.6,88.6c0.1,0,0.1,0.1,0.1,0.1c0,0.1-0.1,0.1-0.1,0.1c-0.1,0-0.1-0.1-0.1-0.1C93.5,88.6,93.5,88.6,93.6,88.6z"/>
			<path fill="#004B93" d="M94.1,88.8c0.1,0,0.2-0.1,0.2-0.2c0-0.1-0.1-0.2-0.2-0.2c-0.1,0-0.2,0.1-0.2,0.2
				C93.9,88.8,94,88.8,94.1,88.8z M94.1,88.5c0.1,0,0.1,0.1,0.1,0.1c0,0.1-0.1,0.1-0.1,0.1c-0.1,0-0.1-0.1-0.1-0.1
				C93.9,88.6,94,88.5,94.1,88.5z"/>
			<path fill="#004B93" d="M94.5,89c0.1,0,0.2-0.1,0.2-0.2c0-0.1-0.1-0.2-0.2-0.2c-0.1,0-0.2,0.1-0.2,0.2C94.3,88.9,94.4,89,94.5,89
				z M94.5,88.7c0.1,0,0.1,0.1,0.1,0.1c0,0.1-0.1,0.1-0.1,0.1c-0.1,0-0.1-0.1-0.1-0.1C94.4,88.7,94.4,88.7,94.5,88.7z"/>
			<path fill="#004B93" d="M94.1,89.1c0,0.1-0.1,0.2-0.1,0.2c0.1,0,0.3,0.1,0.3,0.2c0,0.1-0.1,0.2-0.2,0.3c0,0.1,0.1,0.1,0.1,0.2
				c0.2,0.1,0.2,0.2,0.2,0.3c0,0.2-0.2,0.3-0.4,0.2c0,0.4,0.4,0.5,0.6,0.2c0,0,0,0,0-0.1c0-0.1,0.2-0.2,0.3-0.2
				c0.1,0,0.2,0.2,0.2,0.3c0,0,0,0.1-0.1,0.1c0,0.1,0.1,0.2,0.2,0.3c0.1,0.1,0.2,0,0.3,0c-0.2-0.1-0.3-0.2-0.2-0.4
				c0-0.1,0.1-0.2,0.2-0.2C95.2,89.8,95,89.4,94.1,89.1L94.1,89.1z M95.3,90.7c-0.1,0-0.1,0.1-0.2,0.2c0,0.1,0,0.3,0.1,0.4
				c-0.1,0-0.3-0.1-0.3-0.3c0,0,0-0.1,0.1-0.1c0-0.2-0.1-0.3-0.2-0.4c-0.2,0-0.3,0.1-0.4,0.2c0,0,0,0,0,0.1C94.2,91,94,91,93.9,90.7
				c0.3,0,0.4-0.1,0.4-0.3c0-0.2,0-0.3-0.2-0.4c0,0,0-0.1,0-0.1c0.1,0,0.2-0.1,0.2-0.2c0.2,0,0.3,0.1,0.5,0.1c0.1,0,0.2,0.1,0.3,0.2
				C95.2,90.2,95.2,90.4,95.3,90.7z M95.1,89.9c-0.1,0-0.2-0.1-0.3-0.1c-0.2-0.1-0.3-0.1-0.5-0.1c0-0.1-0.1-0.2-0.2-0.3
				c0-0.1,0.1-0.1,0.1-0.2C94.6,89.4,94.9,89.6,95.1,89.9z"/>
			<path fill="#004B93" d="M93.7,89.2c0,0.1,0.1,0.2,0.2,0.2c0.1,0,0.2-0.1,0.2-0.2C94,89,94,89,93.9,89
				C93.8,89,93.7,89.1,93.7,89.2z M93.9,89c0.1,0,0.1,0.1,0.1,0.1c0,0.1-0.1,0.1-0.1,0.1c-0.1,0-0.1-0.1-0.1-0.1
				C93.7,89.1,93.8,89,93.9,89z"/>
			<path fill="#004B93" d="M91.9,88.1c0.1,0,0.2-0.1,0.2-0.2c0-0.1-0.1-0.2-0.2-0.2c-0.1,0-0.2,0.1-0.2,0.2
				C91.7,88,91.8,88.1,91.9,88.1z M91.9,87.7c0.1,0,0.1,0.1,0.1,0.1S92,88,91.9,88c-0.1,0-0.1-0.1-0.1-0.1S91.8,87.7,91.9,87.7z"/>
			<path fill="#004B93" d="M92.8,88.3c0.1,0,0.2-0.1,0.2-0.2c0-0.1-0.1-0.2-0.2-0.2c-0.1,0-0.2,0.1-0.2,0.2
				C92.6,88.2,92.7,88.3,92.8,88.3z M92.8,87.9c0.1,0,0.1,0.1,0.1,0.1c0,0.1-0.1,0.1-0.1,0.1c-0.1,0-0.1-0.1-0.1-0.1
				C92.7,88,92.7,88,92.8,87.9z"/>
			<path fill="#004B93" d="M92.4,88.1c0.1,0,0.2-0.1,0.2-0.2c0-0.1-0.1-0.2-0.2-0.2c-0.1,0-0.2,0.1-0.2,0.2
				C92.2,88.1,92.3,88.1,92.4,88.1z M92.4,87.8c0.1,0,0.1,0.1,0.1,0.1c0,0.1-0.1,0.1-0.1,0.1S92.2,88,92.2,88
				C92.2,87.9,92.3,87.8,92.4,87.8z"/>
			<path fill="#004B93" d="M91.5,88.5c0.1,0,0.2-0.1,0.2-0.2c0-0.1-0.1-0.2-0.2-0.2c-0.1,0-0.2,0.1-0.2,0.2
				C91.3,88.5,91.4,88.5,91.5,88.5z M91.5,88.2c0.1,0,0.1,0.1,0.1,0.1c0,0.1-0.1,0.1-0.1,0.1c-0.1,0-0.1-0.1-0.1-0.1
				C91.3,88.3,91.4,88.2,91.5,88.2z"/>
			<path fill="#004B93" d="M95,89.3c0.1,0,0.2-0.1,0.2-0.2c0-0.1-0.1-0.2-0.2-0.2c-0.1,0-0.2,0.1-0.2,0.2
				C94.8,89.2,94.9,89.3,95,89.3z M94.9,88.9c0.1,0,0.1,0.1,0.1,0.1c0,0.1-0.1,0.1-0.1,0.1c-0.1,0-0.1-0.1-0.1-0.1
				C94.8,89,94.9,88.9,94.9,88.9z"/>
			<path fill="#004B93" d="M95.8,90.8c-0.1-0.1-0.3,0-0.4,0.1c-0.1,0.1,0,0.3,0.1,0.4c0.1,0.1,0.3,0,0.4-0.1
				C96,91,95.9,90.9,95.8,90.8z M95.9,91.2c-0.1,0.1-0.2,0.2-0.3,0.1c-0.1-0.1-0.2-0.2-0.1-0.3c0.1-0.1,0.2-0.2,0.3-0.1
				C95.9,90.9,95.9,91,95.9,91.2z"/>
			<path fill="#004B93" d="M94.2,89.6c0-0.1-0.1-0.2-0.2-0.2c-0.1,0-0.2,0.1-0.2,0.2c0,0.1,0.1,0.2,0.2,0.2
				C94.1,89.8,94.2,89.7,94.2,89.6z M93.9,89.7c0-0.1,0.1-0.1,0.1-0.1c0.1,0,0.1,0.1,0.1,0.1c0,0.1-0.1,0.1-0.1,0.1
				C93.9,89.8,93.9,89.7,93.9,89.7z"/>
			<path fill="#004B93" d="M94.6,91.1c0,0-0.1,0-0.1,0c-0.1,0.1-0.2,0.1-0.3,0.1l0,0.1c0.2,0.1,0.4,0.1,0.6,0.2l0,0
				C94.8,91.3,94.7,91.2,94.6,91.1C94.7,91.1,94.7,91.1,94.6,91.1z M94.4,91.2c0.1,0,0.1-0.1,0.2-0.1c0,0,0.1,0,0.1,0
				c0,0.1,0,0.1,0.1,0.2C94.6,91.3,94.5,91.3,94.4,91.2z"/>
			<path fill="#004B93" d="M95.5,90.4c0,0.1,0.1,0.2,0.2,0.2c0.1,0,0.2-0.1,0.2-0.2c0-0.1-0.1-0.2-0.2-0.2
				C95.6,90.2,95.5,90.3,95.5,90.4z M95.7,90.3c0.1,0,0.1,0.1,0.1,0.1c0,0.1-0.1,0.1-0.1,0.1c-0.1,0-0.1-0.1-0.1-0.1
				C95.5,90.3,95.6,90.3,95.7,90.3z"/>
			<path fill="#004B93" d="M95.3,89.6c0.1,0,0.2-0.1,0.2-0.2c0-0.1-0.1-0.2-0.2-0.2c-0.1,0-0.2,0.1-0.2,0.2
				C95.1,89.6,95.2,89.6,95.3,89.6z M95.3,89.3c0.1,0,0.1,0.1,0.1,0.1c0,0.1-0.1,0.1-0.1,0.1c-0.1,0-0.1-0.1-0.1-0.1
				C95.2,89.4,95.2,89.3,95.3,89.3z"/>
			<path fill="#004B93" d="M93.5,90.2c0,0.2,0.1,0.3,0.2,0.3c0.2,0,0.3-0.1,0.3-0.2c0-0.2-0.1-0.3-0.2-0.3
				C93.6,89.9,93.5,90,93.5,90.2z M94,90.3c0,0.1-0.2,0.2-0.3,0.2c-0.1,0-0.2-0.2-0.2-0.3c0-0.1,0.2-0.2,0.3-0.2
				C93.9,90,94,90.2,94,90.3z"/>
		</g>
	</g>
	<polygon fill="#231F20" points="6.5,178.1 30.4,69.2 57,61.9 57,63.6 31.8,70.1 8.4,177.5 	"/>
	<polygon fill="#231F20" points="9.9,177 32.9,70.9 57.8,65.1 58.7,67.2 34.3,72.4 11.7,176.5 	"/>
	<polygon fill="#231F20" points="126.3,172.1 110,67.2 84.4,61.9 84.4,63.6 108.5,68.3 125.2,172.1 	"/>
	<polygon fill="#231F20" points="124.2,172.1 106.8,69.8 84.4,65.1 84.4,67.2 105.4,71.1 122.9,172.1 	"/>
	<g>
		<path d="M52.4,212.1v1.4l-6.7,14h-2.2l6.7-13.6v0h-7.5v-1.7H52.4z"/>
	</g>
	<polygon fill="#EE2A7B" points="73.1,67.2 73.1,78.6 70.3,67.2 	"/>
	<g id="JokC0p.tif">
		<g>
			<path d="M56.8,124.6c-0.1-1.8-0.1-3.5-0.2-5.2c0-0.8-0.2-1.6-0.3-2.4c0.8-0.2,1.6-0.1,2,1c1.8-1.5,2.8-1.4,4-0.1
				c0.7-0.3,1.4-0.9,2.1-0.9c1.5-0.1,2.2,0.6,2.2,2.2c0,1.1-0.1,2.3,0,3.4c0.1,0.8,0.5,1.5,0.8,2.2c-0.7,0-1.5,0-2.2,0
				c-0.1-0.6-0.3-1.2-0.4-1.7c-0.1-1.2,0-2.4,0-3.6c0-0.7-0.4-1.2-1.2-1.2c-0.7,0-1,0.5-1,1.3c0,0.5,0,1.1,0,1.6
				c0,1.2-0.2,2.5,0.6,3.6c-0.7,0-1.4,0-2,0c-0.1-0.6-0.4-1.2-0.4-1.7c-0.1-1.1,0-2.3,0-3.5c0-0.8-0.4-1.4-1.2-1.3
				c-0.8,0-1.1,0.5-1.1,1.3c0,1.1-0.1,2.1,0,3.2c0.1,0.7,0.4,1.4,0.7,2C58.3,124.6,57.5,124.6,56.8,124.6z"/>
			<path d="M47.6,114.8c1.6,0,3.2,0,4.9,0c1.1,0,2.2,0.2,2.7,1.3c-1.5-0.1-3-0.3-4.6-0.4c0,0.9,0.1,1.6,0.1,2.3
				c1.1,0.2,2.3-0.1,2.9,1.1c-1,0-1.9,0-2.9,0c0,1.2,0,2.5,0,3.8c0,0.2,0.5,0.6,0.7,0.6c1.3,0,2.6-0.1,4-0.1
				c0.2,0.5-0.4,0.8-0.8,1.2c-1.9,0-3.8,0-5.7,0c-0.1-0.7-0.3-1.3-0.3-2c-0.1-1.9,0-3.8-0.1-5.7c0-0.7-0.5-1.3-0.8-1.9
				C47.6,114.9,47.6,114.9,47.6,114.8z"/>
			<path d="M68.8,102.4c0.5,0.4,1,0.8,1.5,1.1c-0.1,0.1-0.1,0.1-0.2,0.2c-0.7-0.1-1.4-0.3-2.1-0.3c-0.7-0.1-1.3,0-2.1,0
				c0,0.7,0.1,1.4,0.1,2.1c1,0.2,2.2-0.1,2.7,1.1c-0.9,0-1.7,0-2.6,0c0,1.8,0,3.5,0,5.3c-0.1,0-0.3,0-0.6,0c-1.3,0-1.5-0.1-1.5-1.4
				c-0.1-1.8,0-3.6-0.1-5.4c-0.1-0.9-0.4-1.9-0.6-2.8C65.2,102.4,67,102.4,68.8,102.4z"/>
			<path d="M77.3,124.6c-1.9-1.3-1.3-3.5,0.5-4.3c0.5-0.2,0.9-0.4,1.4-0.6c0.7-0.3,1-0.9,0.7-1.6c-0.4-0.7-1.1-0.6-1.7-0.3
				c-0.3,0.1-0.5,0.3-0.8,0.5c-0.4-0.9,0.2-1.2,0.9-1.4c1.7-0.4,3.5,0.3,3.3,2.5c-0.1,1-0.1,2,0,3c0.1,0.7,0.5,1.4,0.8,2.1
				C80.7,124.6,79,124.6,77.3,124.6z M79.9,120.1c-1.2,0.5-2,1.2-2.1,2.3c-0.1,0.6,0.1,1.1,0.8,1.2c0.5,0.1,1.2,0,1.3-0.7
				C79.9,122,79.9,121.1,79.9,120.1z"/>
			<path d="M89.8,124.6c-2.3-1.5-2.9-3.1-2.2-5.4c0.5-1.7,1.9-2.6,3.6-2.3c0.6,0.1,1.4,0.6,1.6,1.1c0.2,0.5-0.1,1.4-0.5,1.9
				c-0.4,0.5-1.1,0.8-1.6,1.2c-0.5,0.3-1.4,0.4-1,1.4c0.3,0.9,1.2,1.4,2.1,1.2c0.4-0.1,0.7-0.4,1-0.5c0.2,0.8,0.2,0.8-1,1.5
				C91.1,124.6,90.4,124.6,89.8,124.6z M89.2,121c1.2-0.5,2-1.1,2-2.2c0-0.5-0.2-1.2-0.5-1.3c-0.7-0.3-1,0.4-1.1,0.9
				C89.4,119.2,89.4,120,89.2,121z"/>
			<path d="M94.9,124.6c-0.5-0.4-1.3-0.5-0.9-1.5c0.2,0.2,0.5,0.4,0.7,0.5c0.7,0.4,1.7,0.1,2-0.6c0.4-0.8-0.1-1.3-0.7-1.7
				c-0.5-0.3-0.9-0.5-1.4-0.9c-1-0.8-1.1-2.1-0.4-2.9c0.8-0.8,3-1,3.7-0.2c0.2,0.2,0.1,0.6,0.2,0.9c-0.5-0.2-1-0.6-1.5-0.6
				c-0.4,0-0.8,0.3-1.1,0.5c0.2,0.4,0.3,0.8,0.5,1.1c0.4,0.4,0.9,0.5,1.3,0.8c0.4,0.4,0.8,0.9,1.2,1.3c0,0.5,0,1,0,1.4
				c-0.7,0.6-1.4,1.2-2,1.8C95.9,124.6,95.4,124.6,94.9,124.6z"/>
			<path d="M72.9,102.4c0.2,0.7,0.6,1.5,0.7,2.2c0.1,1.5,0,3.1,0,4.7c0,0.9,0.2,1.7,0.3,2.6c0.1,0,0,0-0.1,0c-1.9,0.1-2.1,0-2.1-2
				c0-1.7,0-3.5,0-5.2c0-0.8-0.3-1.6-0.5-2.4C71.8,102.4,72.3,102.4,72.9,102.4z"/>
			<path d="M84.3,124.6c-0.2-0.6-0.5-1.1-0.6-1.7c-0.1-1.7,0-3.5,0-5.2c-0.3-0.1-0.6-0.1-0.9-0.2c0.9-0.7,1.7-1.4,2.6-2.1
				c0.1,0.4,0,1,0.3,1.2c0.3,0.3,0.9,0.2,1.5,0.2c0,0.3,0,0.5,0.1,0.9c-0.4-0.1-0.6-0.2-0.9-0.2c-0.2,0-0.5,0-0.8,0
				c0,1.9,0,3.8,0,5.6c0,0.4,0.5,0.9,0.7,1.3C85.6,124.6,84.9,124.6,84.3,124.6z"/>
			<path d="M72.4,124.6c-0.1-0.5-0.4-1.1-0.4-1.6c-0.1-1.3,0-2.5,0-3.8c0-0.8-0.2-1.5-0.3-2.3c0.8-0.1,1.7-0.2,2,0.7
				c0.8-0.2,1.5-0.5,2.2-0.5c0.2,0,0.4,0.8,0.7,1.5c-0.6-0.2-0.9-0.3-1.2-0.4c-0.9-0.2-1.6,0.4-1.6,1.4c0,1.2-0.1,2.4,0,3.6
				c0,0.5,0.4,1,0.6,1.6C73.8,124.6,73.1,124.6,72.4,124.6z"/>
			<path d="M68.8,124.6c-0.2-0.6-0.5-1.3-0.5-1.9c-0.1-1.2,0-2.4,0-3.7c0-0.7-0.1-1.4-0.2-2.1c1.7-0.2,2.1,0.1,2.1,1.9
				c0,1.1-0.1,2.2,0,3.4c0.1,0.8,0.4,1.6,0.6,2.4C70.1,124.6,69.5,124.6,68.8,124.6z"/>
			<path d="M80.9,104.4c1.5-0.2,1.9,0.1,1.5,1.8c-0.5,2.2-1,4.4-1.5,6.5c-0.4,1.8-0.8,2-2.6,1.7c0.3-0.7,0.7-1.4,1-2.2
				c-0.4,0-0.6-0.1-0.7-0.1c-1.3-0.1-2-0.6-2.3-1.9c-0.4-1.9-0.8-3.8-1.1-5.7c1.5-0.4,1.9-0.1,2.2,1.4c0.3,1.4,0.5,2.7,0.8,4.1
				c0.1,0.6,0.5,1.1,0.8,1.6c0.2,0,0.3,0,0.5-0.1C79.9,109.1,80.4,106.8,80.9,104.4z"/>
			<path d="M67.9,115.2c0.6-0.4,1-0.9,1.3-0.8c0.3,0,0.6,0.5,0.9,0.8c-0.3,0.3-0.6,0.8-1,0.9C68.9,116.1,68.5,115.6,67.9,115.2z"/>
		</g>
	</g>
	<g>
		<polygon points="45.6,93.8 59,93.8 57,87.9 		"/>
		<polygon fill="#F1F2F2" points="48.5,90.9 50.3,94.9 52.3,94.9 49.8,90.9 		"/>
		<polygon fill="#F1F2F2" points="52.4,88.8 54.7,94.9 57.3,94.9 54,88.8 		"/>
	</g>
	<path fill="#594A42" d="M59.7,27.7v4.2H62V24c0,0,4.7-3,4.9-9h-9.6c0,0-1.7,5.4-1,12.2C56.3,27.2,58.6,27,59.7,27.7z"/>
	<path fill="#352A26" d="M66.9,15c0,0,13.8,2.9,19.2,0c0,0-1.5-8.2-4-10.1l-0.2,3.1l-3.4-4c0,0-1.6,4.8-6,4.8S59.2,10,57.3,15
		C57.3,15,64.6,17,66.9,15z"/>
	<circle fill="#FFFFFF" cx="58.6" cy="34" r="1.3"/>
</g>
</svg>
