<?xml version="1.0" encoding="utf-8"?>
<!-- Generator: Adobe Illustrator 18.1.1, SVG Export Plug-In . SVG Version: 6.00 Build 0)  -->
<svg version="1.1" id="Layer_1" xmlns="http://www.w3.org/2000/svg" xmlns:xlink="http://www.w3.org/1999/xlink" x="0px" y="0px"
	 viewBox="0 0 296.7 180.2" enable-background="new 0 0 296.7 180.2" xml:space="preserve">
<g>
	<path fill="#F9BD91" d="M37.3,67.7v14.8h2.2v4.9c0,0,2.5,5,8.7,0V77.3c0,0,1.9-0.4,1.9-2.5S48,73.6,48,73.6v-5.9H37.3z"/>
	<polygon fill="#8B5E3C" points="50.3,174 50.9,176.9 53.5,176.9 53.5,174 	"/>
	<path fill="#231F20" d="M53.5,176.9h-2.5c0,0-1,3.2,2.3,3.4h4.3c0,0,0.9-2-1.6-2.2C55.9,178.1,53.7,177.7,53.5,176.9z"/>
	<polygon fill="#8B5E3C" points="39,174 38.4,176.9 35.9,176.9 35.9,174 	"/>
	<path fill="#231F20" d="M35.9,176.9h2.5c0,0,1,3.2-2.3,3.4h-4.3c0,0-0.9-2,1.6-2.2C33.4,178.1,35.6,177.7,35.9,176.9z"/>
	<path fill="#E6E7E8" d="M45.1,78.1h-7.4c0,0,1.3-2.3,3.7-2.3S45.1,78.1,45.1,78.1z"/>
	<path fill="#E6E7E8" d="M45.1,78.1l0.4,0.4c0,0-3.3,0.6-4.3-0.4c0,0-2.5,0.5-3.7,0.4l0.3-0.5C37.8,78,42.8,77.5,45.1,78.1z"/>
	<polygon fill="#C19368" points="52.8,122.7 53.8,174 50.1,174 42.9,131.9 39,174 35.5,174 34.1,122.4 	"/>
	<path fill="#A82031" d="M57.6,87.8c0,0-9.2-5.1-27.6,0l3.5,34.7c0,0,7.6,0.5,19.9-0.1L57.6,87.8z"/>
	<polygon fill="#8B5E3C" points="50.3,174 50.9,176.9 53.5,176.9 53.5,174 	"/>
	<path fill="#231F20" d="M53.5,176.9h-2.5c0,0-1,3.2,2.3,3.4h4.3c0,0,0.9-2-1.6-2.2C55.9,178.1,53.7,177.7,53.5,176.9z"/>
	<polygon fill="#8B5E3C" points="39,174 38.4,176.9 35.9,176.9 35.9,174 	"/>
	<path fill="#231F20" d="M35.9,176.9h2.5c0,0,1,3.2-2.3,3.4h-4.3c0,0-0.9-2,1.6-2.2C33.4,178.1,35.6,177.7,35.9,176.9z"/>
	<polygon fill="#2B3990" points="53.8,122.5 55.5,144.2 44,144.2 43.2,135.7 42.5,144.2 33.4,144.2 33.5,122.5 	"/>
	<polygon fill="#A82031" points="53.8,161 47.9,161 50.8,177.5 53.8,177.5 	"/>
	<polygon fill="#A82031" points="35.2,161.3 40.4,161.3 38.8,177.2 35.5,177.2 	"/>
	<path fill="#C19368" d="M37.3,67.7v14.8h2.2v4.9c0,0,2.5,5,8.7,0V77.3c0,0,1.9-0.4,1.9-2.5S48,73.6,48,73.6v-5.9H37.3z"/>
	<path fill="#231F20" d="M48,73.6v0.9h-0.9h-0.3v-2.8c0,0-1.7-0.4-1.8-1.4c-0.1-0.9,0-1.8,0-1.8h-7.4l-0.4,1.2c0,0-0.6-1.8,0.4-2.8
		c1-1,11.4-1.5,12.8,2.3c0,0,0.2,5.1-0.4,6c0,0,0.4-1.8-0.8-1.9C48,73.3,48,73.6,48,73.6z"/>
	<path fill="#C19368" d="M70.8,95.8c0,0,8.1-1.8,11.4-8.5c0,0,0.7-1.9,1.6-1.9c0.9,0.1,0.4,1.8,0.4,1.8s0.8-4.1,2-4s4.2,1.5,0.2,8.1
		c0,0-9,11.1-16.8,9.4C69.7,100.7,64.7,96.1,70.8,95.8z"/>
	<path fill="#A82031" d="M57.6,87.6c0,0,4.3,6.5,11.9,7.8c0,0,0.8,4.6-1.5,5.8c0,0-9.4-1.7-13.1-6L57.6,87.6z"/>
	<path fill="#006838" d="M67.5,101.2c0,0,2.1-3.1,1-5.9l2,0.3c0,0,0,4.9-1.5,5.9L67.5,101.2z"/>
	<path fill="#C19368" d="M15.8,93.6c0,0-7.7-3.1-9.8-10.3c0,0-0.4-2-1.3-2.1C3.8,81.2,4,83,4,83s-0.1-4.2-1.3-4.3
		c-1.2-0.1-4.4,0.8-1.5,8c0,0,7.1,12.4,15,12.1C16.1,98.7,21.7,94.9,15.8,93.6z"/>
	<path fill="#A82031" d="M30.2,87.8c0,0-5.3,5.7-13,5.7c0,0-1.6,4.4,0.5,6c0,0,9.5-0.1,13.9-3.7L30.2,87.8z"/>
	<path fill="#FCB000" d="M18.1,99.5c0,0-1.5-3.4,0-6h-2c0,0-0.8,4.8,0.5,6H18.1z"/>
	<path fill="#F9BD91" d="M156.8,67.7v14.8h2.2v4.9c0,0,2.5,5,8.7,0V77.3c0,0,1.9-0.4,1.9-2.5s-2.2-1.1-2.2-1.1v-5.9H156.8z"/>
	<polygon fill="#8B5E3C" points="169.8,174 170.4,176.9 173,176.9 173,174 	"/>
	<path fill="#231F20" d="M173,176.9h-2.5c0,0-1,3.2,2.3,3.4h4.3c0,0,0.9-2-1.6-2.2C175.4,178.1,173.2,177.7,173,176.9z"/>
	<polygon fill="#8B5E3C" points="158.5,174 157.9,176.9 155.3,176.9 155.3,174 	"/>
	<path fill="#231F20" d="M155.3,176.9h2.5c0,0,1,3.2-2.3,3.4h-4.3c0,0-0.9-2,1.6-2.2C152.9,178.1,155.1,177.7,155.3,176.9z"/>
	<path fill="#E6E7E8" d="M164.6,78.1h-7.4c0,0,1.3-2.3,3.7-2.3S164.6,78.1,164.6,78.1z"/>
	<path fill="#E6E7E8" d="M164.6,78.1l0.4,0.4c0,0-3.3,0.6-4.3-0.4c0,0-2.5,0.5-3.7,0.4l0.3-0.5C157.2,78,162.3,77.5,164.6,78.1z"/>
	<polygon fill="#C19368" points="172.3,122.7 173.3,174 169.6,174 162.4,131.9 158.5,174 155,174 153.6,122.4 	"/>
	<path fill="#A82031" d="M177.1,87.8c0,0-9.2-5.1-27.6,0l3.5,34.7c0,0,7.6,0.5,19.9-0.1L177.1,87.8z"/>
	<polygon fill="#8B5E3C" points="169.8,174 170.4,176.9 173,176.9 173,174 	"/>
	<path fill="#231F20" d="M173,176.9h-2.5c0,0-1,3.2,2.3,3.4h4.3c0,0,0.9-2-1.6-2.2C175.4,178.1,173.2,177.7,173,176.9z"/>
	<polygon fill="#8B5E3C" points="158.5,174 157.9,176.9 155.3,176.9 155.3,174 	"/>
	<path fill="#231F20" d="M155.3,176.9h2.5c0,0,1,3.2-2.3,3.4h-4.3c0,0-0.9-2,1.6-2.2C152.9,178.1,155.1,177.7,155.3,176.9z"/>
	<polygon fill="#2B3990" points="173.3,122.5 175,144.2 163.5,144.2 162.7,135.7 162,144.2 152.9,144.2 153,122.5 	"/>
	<polygon fill="#A82031" points="173.3,161 167.4,161 170.3,177.5 173.3,177.5 	"/>
	<polygon fill="#A82031" points="154.6,161.3 159.9,161.3 158.3,177.2 155,177.2 	"/>
	<path fill="#F9BD91" d="M156.8,67.7v14.8h2.2v4.9c0,0,2.5,5,8.7,0V77.3c0,0,1.9-0.4,1.9-2.5s-2.2-1.1-2.2-1.1v-5.9H156.8z"/>
	<path fill="#231F20" d="M167.5,73.6v0.9h-0.9h-0.3v-2.8c0,0-1.7-0.4-1.8-1.4c-0.1-0.9,0-1.8,0-1.8h-7.4l-0.4,1.2
		c0,0-0.6-1.8,0.4-2.8c1-1,11.4-1.5,12.8,2.3c0,0,0.2,5.1-0.4,6c0,0,0.4-1.8-0.8-1.9C167.5,73.3,167.5,73.6,167.5,73.6z"/>
	<path fill="#C19368" d="M190.3,95.8c0,0,8.1-1.8,11.4-8.5c0,0,0.7-1.9,1.6-1.9c0.9,0.1,0.4,1.8,0.4,1.8s0.8-4.1,2-4
		c1.2,0.1,4.2,1.5,0.2,8.1c0,0-9,11.1-16.8,9.4C189.1,100.7,184.2,96.1,190.3,95.8z"/>
	<path fill="#A82031" d="M177,87.6c0,0,4.3,6.5,11.9,7.8c0,0,0.8,4.6-1.5,5.8c0,0-9.4-1.7-13.1-6L177,87.6z"/>
	<path fill="#C19368" d="M135.3,93.6c0,0-7.7-3.1-9.8-10.3c0,0-0.4-2-1.3-2.1c-0.9-0.1-0.7,1.7-0.7,1.7s-0.1-4.2-1.3-4.3
		c-1.2-0.1-4.4,0.8-1.5,8c0,0,7.1,12.4,15,12.1C135.6,98.7,141.2,94.9,135.3,93.6z"/>
	<path fill="#A82031" d="M149.7,87.8c0,0-5.3,5.7-13,5.7c0,0-1.6,4.4,0.5,6c0,0,9.5-0.1,13.9-3.7L149.7,87.8z"/>
	<path fill="#006838" d="M137.6,99.5c0,0-1.5-3.4,0-6h-2c0,0-0.8,4.8,0.5,6H137.6z"/>
	<polygon fill="#006838" points="113.1,77.7 113.9,78.6 108.2,82.2 106.5,80.5 112.7,77 	"/>
	<g>
		<path fill="#F9BD91" d="M258.1,67.7v14.8h-2.2v4.9c0,0-2.5,5-8.7,0V77.3c0,0-1.9-0.4-1.9-2.5s2.2-1.1,2.2-1.1v-5.9H258.1z"/>
		<polygon fill="#8B5E3C" points="258.7,174 259.3,176.9 261.8,176.9 261.8,174 		"/>
		<path fill="#231F20" d="M261.8,176.9h-2.5c0,0-1,3.2,2.3,3.4h4.3c0,0,0.9-2-1.6-2.2C264.3,178.1,262.1,177.7,261.8,176.9z"/>
		<path fill="#E6E7E8" d="M250.4,78.1h7.4c0,0-1.3-2.3-3.7-2.3S250.4,78.1,250.4,78.1z"/>
		<polygon fill="#F9BD91" points="261.1,122.7 262.1,174 258.5,174 251.3,131.9 247.3,174 243.8,174 242.5,122.4 		"/>
		<path fill="#A82031" d="M266,87.8c0,0-9.2-5.1-27.6,0l3.5,34.7c0,0,7.6,0.5,19.9-0.1L266,87.8z"/>
		<polygon fill="#8B5E3C" points="258.7,174 259.3,176.9 261.8,176.9 261.8,174 		"/>
		<path fill="#231F20" d="M261.8,176.9h-2.5c0,0-1,3.2,2.3,3.4h4.3c0,0,0.9-2-1.6-2.2C264.3,178.1,262.1,177.7,261.8,176.9z"/>
		<path fill="#231F20" d="M244.2,176.9h2.5c0,0,1,3.2-2.3,3.4h-4.3c0,0-0.9-2,1.6-2.2C241.8,178.1,244,177.7,244.2,176.9z"/>
		<polygon fill="#2B3990" points="262.1,122.5 263.8,144.2 252.3,144.2 251.6,135.7 250.8,144.2 241.8,144.2 241.9,122.5 		"/>
		<polygon fill="#A82031" points="262.1,161 256.3,161 259.2,177.5 262.1,177.5 		"/>
		<polygon fill="#A82031" points="243.5,161.3 248.8,161.3 247.2,177.2 243.8,177.2 		"/>
		<path fill="#F9BD91" d="M258.1,67.7v14.8h-2.2v4.9c0,0-2.5,5-8.7,0V77.3c0,0-1.9-0.4-1.9-2.5s2.2-1.1,2.2-1.1v-5.9H258.1z"/>
		<path fill="#F9BD91" d="M279.1,95.8c0,0,8.1-1.8,11.4-8.5c0,0,0.7-1.9,1.6-1.9c0.9,0.1,0.4,1.8,0.4,1.8s0.8-4.1,2-4
			c1.2,0.1,4.2,1.5,0.2,8.1c0,0-9,11.1-16.8,9.4C278,100.7,273.1,96.1,279.1,95.8z"/>
		<path fill="#A82031" d="M265.9,87.6c0,0,4.3,6.5,11.9,7.8c0,0,0.8,4.6-1.5,5.8c0,0-9.4-1.7-13.1-6L265.9,87.6z"/>
		<path fill="#F9BD91" d="M227.3,56.4c-0.2-8.5,3.4-8.2,4.6-7.6s-0.3,4.9-0.3,4.9s0.5-1.9,1.4-1.5c0.9,0.4,0.5,2.7,0.5,2.7
			s-0.4,3.8-3,3.6C228,58.5,227.3,56.4,227.3,56.4z"/>
		<polygon fill="#A82031" points="242.2,88 234,77.7 228,80.8 241.6,98.3 240.8,91.7 		"/>
		<polygon fill="#F9BD91" points="234,77.7 230.5,72.9 231.6,58.4 228,57.4 225.5,74.8 228.6,80.6 		"/>
		<path fill="#603913" d="M248.5,69.5v6.3l-0.9-0.1l-0.1-2.1l-0.8-0.2v-7.3c0,0,7.2-7,11.4,1.6c0,0,1.8,1.1,1.5,1.3
			c-0.3,0.2-6.1-1.3-6.1-1.3l1.3,1.3l-6.4-0.9L248.5,69.5z"/>
	</g>
	<path fill="#F9BD91" d="M83.6,67.7v14.8h2.2v4.9c0,0,2.5,5,8.7,0V77.3c0,0,1.9-0.4,1.9-2.5s-2.2-1.1-2.2-1.1v-5.9H83.6z"/>
	<polygon fill="#8B5E3C" points="83,174 82.4,176.9 79.9,176.9 79.9,174 	"/>
	<path fill="#231F20" d="M79.9,176.9h2.5c0,0,1,3.2-2.3,3.4h-4.3c0,0-0.9-2,1.6-2.2C77.5,178.1,79.6,177.7,79.9,176.9z"/>
	<polygon fill="#8B5E3C" points="94.4,174 95,176.9 97.5,176.9 97.5,174 	"/>
	<path fill="#231F20" d="M97.5,176.9H95c0,0-1,3.2,2.3,3.4h4.3c0,0,0.9-2-1.6-2.2C99.9,178.1,97.7,177.7,97.5,176.9z"/>
	<path fill="#E6E7E8" d="M91.3,78.1h-7.4c0,0,1.3-2.3,3.7-2.3S91.3,78.1,91.3,78.1z"/>
	<polygon fill="#F9BD91" points="80.6,122.7 79.6,174 83.2,174 90.4,131.9 94.4,174 97.9,174 99.2,122.4 	"/>
	<path fill="#A82031" d="M75.7,87.8c0,0,9.2-5.1,27.6,0l-3.5,34.7c0,0-7.6,0.5-19.9-0.1L75.7,87.8z"/>
	<polygon fill="#8B5E3C" points="83,174 82.4,176.9 79.9,176.9 79.9,174 	"/>
	<path fill="#231F20" d="M79.9,176.9h2.5c0,0,1,3.2-2.3,3.4h-4.3c0,0-0.9-2,1.6-2.2C77.5,178.1,79.6,177.7,79.9,176.9z"/>
	<polygon fill="#8B5E3C" points="94.4,174 95,176.9 97.5,176.9 97.5,174 	"/>
	<path fill="#231F20" d="M97.5,176.9H95c0,0-1,3.2,2.3,3.4h4.3c0,0,0.9-2-1.6-2.2C99.9,178.1,97.7,177.7,97.5,176.9z"/>
	<polygon fill="#2B3990" points="79.6,122.5 77.9,144.2 89.4,144.2 90.1,135.7 90.9,144.2 99.9,144.2 99.9,122.5 	"/>
	<polygon fill="#A82031" points="79.6,161 85.5,161 82.5,177.5 79.6,177.5 	"/>
	<polygon fill="#A82031" points="98.2,161.3 92.9,161.3 94.6,177.2 97.9,177.2 	"/>
	<path fill="#F9BD91" d="M83.6,67.7v14.8h2.2v4.9c0,0,2.5,5,8.7,0V77.3c0,0,1.9-0.4,1.9-2.5s-2.2-1.1-2.2-1.1v-5.9H83.6z"/>
	<path fill="#F9BD91" d="M62.6,95.8c0,0-8.1-1.8-11.4-8.5c0,0-0.7-1.9-1.6-1.9c-0.9,0.1-0.4,1.8-0.4,1.8s-0.8-4.1-2-4
		c-1.2,0.1-4.2,1.5-0.2,8.1c0,0,9,11.1,16.8,9.4C63.7,100.7,68.6,96.1,62.6,95.8z"/>
	<path fill="#A82031" d="M75.8,87.6c0,0-4.3,6.5-11.9,7.8c0,0-0.8,4.6,1.5,5.8c0,0,9.4-1.7,13.1-6L75.8,87.6z"/>
	<path fill="#FCB000" d="M65.8,101.2c0,0-2.1-3.1-1-5.9l-2,0.3c0,0,0,4.9,1.5,5.9L65.8,101.2z"/>
	<path fill="#F9BD91" d="M114.4,56.4c0.2-8.5-3.4-8.2-4.6-7.6s0.3,4.9,0.3,4.9s-0.5-1.9-1.4-1.5c-0.9,0.4-0.5,2.7-0.5,2.7
		s0.4,3.8,3,3.6C113.7,58.5,114.4,56.4,114.4,56.4z"/>
	<polygon fill="#A82031" points="99.5,88 107.7,77.7 113.7,80.8 100.1,98.3 100.9,91.7 	"/>
	<polygon fill="#F9BD91" points="107.7,77.7 111.2,72.9 110.1,58.4 113.8,57.4 116.2,74.8 113.1,80.6 	"/>
	<polygon fill="#FCB000" points="107.7,77.7 106.9,78.6 112.6,82.2 114.3,80.5 108.2,77 	"/>
	<path fill="#231F20" d="M94.3,73.6l-1.3,0.8v-6.2c0,0-7.2,3.4-10.4,0.8c0,0-0.1-6,9.7-3.9c9.7,2.1,4,8.7,4,8.7L94.3,73.6z"/>
	<path fill="#F9BD91" d="M207.4,67.7v14.8h2.2v4.9c0,0,2.5,5,8.7,0V77.3c0,0,1.9-0.4,1.9-2.5s-2.2-1.1-2.2-1.1v-5.9H207.4z"/>
	<polygon fill="#8B5E3C" points="220.4,174 221,176.9 223.5,176.9 223.5,174 	"/>
	<path fill="#231F20" d="M223.5,176.9H221c0,0-1,3.2,2.3,3.4h4.3c0,0,0.9-2-1.6-2.2C226,178.1,223.8,177.7,223.5,176.9z"/>
	<polygon fill="#8B5E3C" points="209,174 208.4,176.9 205.9,176.9 205.9,174 	"/>
	<path fill="#231F20" d="M205.9,176.9h2.5c0,0,1,3.2-2.3,3.4h-4.3c0,0-0.9-2,1.6-2.2C203.5,178.1,205.7,177.7,205.9,176.9z"/>
	<path fill="#E6E7E8" d="M215.1,78.1h-7.4c0,0,1.3-2.3,3.7-2.3S215.1,78.1,215.1,78.1z"/>
	<path fill="#E6E7E8" d="M215.1,78.1l0.4,0.4c0,0-3.3,0.6-4.3-0.4c0,0-2.5,0.5-3.7,0.4l0.3-0.5C207.8,78,212.9,77.5,215.1,78.1z"/>
	<polygon fill="#F9BD91" points="222.8,122.7 223.8,174 220.2,174 213,131.9 209,174 205.5,174 204.2,122.4 	"/>
	<path fill="#A82031" d="M227.7,87.8c0,0-9.2-5.1-27.6,0l3.5,34.7c0,0,7.6,0.5,19.9-0.1L227.7,87.8z"/>
	<polygon fill="#8B5E3C" points="220.4,174 221,176.9 223.5,176.9 223.5,174 	"/>
	<path fill="#231F20" d="M223.5,176.9H221c0,0-1,3.2,2.3,3.4h4.3c0,0,0.9-2-1.6-2.2C226,178.1,223.8,177.7,223.5,176.9z"/>
	<polygon fill="#8B5E3C" points="209,174 208.4,176.9 205.9,176.9 205.9,174 	"/>
	<path fill="#231F20" d="M205.9,176.9h2.5c0,0,1,3.2-2.3,3.4h-4.3c0,0-0.9-2,1.6-2.2C203.5,178.1,205.7,177.7,205.9,176.9z"/>
	<polygon fill="#2B3990" points="223.8,122.5 225.5,144.2 214,144.2 213.3,135.7 212.5,144.2 203.5,144.2 203.5,122.5 	"/>
	<polygon fill="#A82031" points="223.8,161 218,161 220.9,177.5 223.8,177.5 	"/>
	<polygon fill="#A82031" points="205.2,161.3 210.5,161.3 208.9,177.2 205.5,177.2 	"/>
	<path fill="#F9BD91" d="M207.4,67.7v14.8h2.2v4.9c0,0,2.5,5,8.7,0V77.3c0,0,1.9-0.4,1.9-2.5s-2.2-1.1-2.2-1.1v-5.9H207.4z"/>
	<path fill="#F9BD91" d="M240.8,95.8c0,0,8.1-1.8,11.4-8.5c0,0,0.7-1.9,1.6-1.9c0.9,0.1,0.4,1.8,0.4,1.8s0.8-4.1,2-4
		c1.2,0.1,4.2,1.5,0.2,8.1c0,0-9,11.1-16.8,9.4C239.7,100.7,234.8,96.1,240.8,95.8z"/>
	<path fill="#A82031" d="M227.6,87.6c0,0,4.3,6.5,11.9,7.8c0,0,0.8,4.6-1.5,5.8c0,0-9.4-1.7-13.1-6L227.6,87.6z"/>
	<path fill="#FCB000" d="M237.6,101.2c0,0,2.1-3.1,1-5.9l2,0.3c0,0,0,4.9-1.5,5.9L237.6,101.2z"/>
	<path fill="#F9BD91" d="M185.9,93.6c0,0-7.7-3.1-9.8-10.3c0,0-0.4-2-1.3-2.1c-0.9-0.1-0.7,1.7-0.7,1.7s-0.1-4.2-1.3-4.3
		c-1.2-0.1-4.4,0.8-1.5,8c0,0,7.1,12.4,15,12.1C186.1,98.7,191.8,94.9,185.9,93.6z"/>
	<path fill="#A82031" d="M200.3,87.8c0,0-5.3,5.7-13,5.7c0,0-1.6,4.4,0.5,6c0,0,9.5-0.1,13.9-3.7L200.3,87.8z"/>
	<path fill="#FCB000" d="M188.2,99.5c0,0-1.5-3.4,0-6h-2c0,0-0.8,4.8,0.5,6H188.2z"/>
	<path fill="#936845" d="M218,73.6l-0.7-4.7l-9.9-0.5c0,0-0.8-3.6,6-3.5s5.5,8.4,5.5,8.4"/>
	<polygon fill="#009444" points="132.3,77.6 137.5,64 144.8,65.3 136.4,88.2 135,81 	"/>
	<polygon fill="#F9BD91" points="137.5,64 139.5,57.8 133.6,43 137.1,40.8 145.4,58.2 144.1,65.3 	"/>
	<path fill="#F9BD91" d="M110.6,39c2.6-8.9,6.3-7.4,7.4-6.5c1.1,1-1.9,5.1-1.9,5.1s1.1-1.8,1.9-1.1c0.8,0.8-0.4,3-0.4,3
		s-1.7,3.8-4.3,2.8C110.7,41.4,110.6,39,110.6,39z"/>
	<polygon fill="#009444" points="115.8,77.1 110.6,63.5 103.3,64.8 111.7,87.7 113.1,80.5 	"/>
	<polygon fill="#F9BD91" points="110.6,63.5 108.6,57.3 114.5,42.5 111,40.3 102.7,57.7 104,64.8 	"/>
	<path fill="#F9BD91" d="M117.5,56.4v16.3h2.5v5.4c0,0,2.8,5.5,9.6,0V66.9c0,0,2.1-0.4,2.1-2.8c0-2.4-2.4-1.2-2.4-1.2v-6.5H117.5z"
		/>
	<polygon fill="#8B5E3C" points="131.9,173.3 132.5,176.5 135.3,176.5 135.3,173.3 	"/>
	<path fill="#231F20" d="M135.3,176.5h-2.8c0,0-1.1,3.5,2.5,3.7h4.7c0,0,1-2.2-1.8-2.4C138,177.9,135.6,177.4,135.3,176.5z"/>
	<polygon fill="#8B5E3C" points="119.4,173.3 118.7,176.5 115.9,176.5 115.9,173.3 	"/>
	<path fill="#231F20" d="M115.9,176.5h2.8c0,0,1.1,3.5-2.5,3.7h-4.7c0,0-1-2.2,1.8-2.4C113.2,177.9,115.7,177.4,115.9,176.5z"/>
	<path fill="#E6E7E8" d="M126.1,67.9h-8.1c0,0,1.4-2.5,4.1-2.5C124.6,65.3,126.1,67.9,126.1,67.9z"/>
	<path fill="#E6E7E8" d="M126.1,67.9l0.4,0.4c0,0-3.6,0.6-4.7-0.4c0,0-2.8,0.5-4.1,0.4l0.3-0.6C118,67.7,123.6,67.2,126.1,67.9z"/>
	<polygon fill="#F9BD91" points="134.5,116.9 135.7,173.3 131.6,173.3 123.7,127.1 119.4,173.3 115.5,173.3 114,116.6 	"/>
	<path fill="#009444" d="M139.9,78.5c0,0-10.1-5.7-30.4,0l3.8,38.2c0,0,8.3,0.6,21.9-0.1L139.9,78.5z"/>
	<polygon fill="#8B5E3C" points="131.9,173.3 132.5,176.5 135.3,176.5 135.3,173.3 	"/>
	<path fill="#231F20" d="M135.3,176.5h-2.8c0,0-1.1,3.5,2.5,3.7h4.7c0,0,1-2.2-1.8-2.4C138,177.9,135.6,177.4,135.3,176.5z"/>
	<polygon fill="#8B5E3C" points="119.4,173.3 118.7,176.5 115.9,176.5 115.9,173.3 	"/>
	<path fill="#231F20" d="M115.9,176.5h2.8c0,0,1.1,3.5-2.5,3.7h-4.7c0,0-1-2.2,1.8-2.4C113.2,177.9,115.7,177.4,115.9,176.5z"/>
	<polygon fill="#009444" points="135.7,116.7 137.5,140.6 124.8,140.6 124,131.2 123.2,140.6 113.2,140.6 113.3,116.7 	"/>
	<polygon fill="#F1F2F2" points="135.7,159 129.2,159 132.4,177.3 135.7,177.3 	"/>
	<polygon fill="#F1F2F2" points="115.1,159.4 120.9,159.5 119.2,176.9 115.5,176.9 	"/>
	<path fill="#F9BD91" d="M117.5,56.4v16.3h2.5v5.4c0,0,2.8,5.5,9.6,0V66.9c0,0,2.1-0.4,2.1-2.8c0-2.4-2.4-1.2-2.4-1.2v-6.5H117.5z"
		/>
	<path fill="#F9BD91" d="M138.7,39.5c-2.6-8.9-6.3-7.4-7.4-6.5c-1.1,1,1.9,5.1,1.9,5.1s-1.1-1.8-1.9-1.1c-0.8,0.8,0.4,3,0.4,3
		s1.7,3.8,4.3,2.8C138.6,41.9,138.7,39.5,138.7,39.5z"/>
	<g>
		<ellipse fill="#FF9300" cx="124" cy="8.8" rx="8.3" ry="8.8"/>
		<path fill="#FF9300" d="M120.7,35.4c0,0-1.4-2.1-1.4-2.9c-0.1-0.9,1-2.2,1-3.4c0-1.2-1.9-4.8-2-6.3s0.5-5.1,0.5-5.1l-1-4.3
			l2.9-2.2l3.9,9.6l-1.5,10.1L120.7,35.4z"/>
		<path fill="#FCB000" d="M118,10.6c0,0,0.4-2.5,2.2-2.8c1.1-1.6,3.4-1.7,4.6-1.6s1.9,0,1.7-1.3c-0.1-0.4,0,0.1,0.6,0
			c0.6-0.1,0.8-0.8,0.2-1.1c-0.6-0.3-1.2-0.8-1.9,0c-0.3,0.5-0.6-0.1-0.2-0.6c-1.5-0.5-1.8-1.2-2.4-1.6c-1.1-0.1-1.6-0.8-1.6-0.8
			s0.1-0.3,1.1-0.6c1.1-0.3,5.3-0.7,8.3,3.1c0,0-0.8,1.6-1,1.7c-0.3,0.2,0-0.8,0-0.9c0-0.1-0.2,0.6-0.6,0.9s-1.1,0.5-1.6,0.6
			c-0.5,0.1-1.6,1.3-1.6,1.3s0.5,2.7-0.5,3.2c-1.1,0.5-1.3,3.9-1.3,3.9s-3.4,1.5-3.5,1.3c-0.2-0.1-0.3,2.9-1.2,3.3
			c-1,0.4-2.6-4-2.4-6.7"/>
		<path fill="#FCB000" d="M128.7,19.4c0,0,0.4,3.5,0.7,4.9c0.2,0.6-2,4.4-2.4,4.8c-2.1-1.8-2.2-4.8-2.2-4.8L128.7,19.4z"/>
		<path fill="#FFB000" d="M131.2,15.8c0,0-2.8,2.1-4.1,11.4c-2.2-2.4-2.8-13.3-2.8-13.3s4-2.7,4.4-4.3
			C129.6,14.8,130.4,15,131.2,15.8z"/>
		<path fill="#F8CF00" d="M131.1,14l0.1,1.8c0,0-2.1-1.1-2.7-6.1C130.3,13.8,131.1,14,131.1,14z"/>
		<ellipse fill="#F9D100" cx="123.7" cy="14.8" rx="1.6" ry="1.7"/>
		<path fill="#FCB000" d="M125.8,4.4c0,0,0-0.2-0.5,0c-0.5,0.2-1.2,0.2-1.3,0c-0.1-0.2,0.6,0.1,0.8-0.1c0.2-0.1,1.2,0,1.2,0"/>
		<path fill="#F9D100" d="M119.7,42.8h4.6C122.3,42.8,120.8,42.8,119.7,42.8z"/>
		<path fill="#F9D100" d="M119.7,35.1c-0.9-1.5-0.2-4.4,0.4-5.7c0.6-1.3,3-6.5,1-11s-3.1-7.5-3.1-7.5s-0.9-0.7-0.6-1.9
			c-0.4-0.6-0.3-0.9-0.3-0.9l1-0.5l0.8,1.6c0,0-0.2,0.7-0.2,1c0,0.3,2.4,5.1,2.4,5.1s1.6,3,1.9,0.4s1.6,0,1.6,0s-0.2,1.4,1.1,0.4
			c0.7-1.7,2.7-5.3,2.7-5.3s-0.5-1.7,0-2.2c0.5-0.6,0.8-1.8,0.8-1.8h1.1c0,0-0.1,2.4-0.7,3.4s-2.9,7.7-3.3,9.8s-0.1,8.1,2.3,11.6
			c-1.2,2-1.5,2.2-1.5,2.2l1.2,1.5c0,0,0.4,1.5,0.9,3.5h-10.5C119.2,36.8,119.6,36.1,119.7,35.1z"/>
		<path fill="#F9D100" d="M129.7,40.8c0.2,0,0.4,0,0.7,1h-12.8c0.2-1,0.5-1,0.8-1H129.7z"/>
		<path fill="#006C23" d="M116.9,42.7v-0.1c0,0,0.5,0.1,2.8,0.1H116.9z"/>
		<path fill="#006C23" d="M131.2,42.6c-2.8,0.1-5,0.1-6.8,0.1h-4.6c-2.4,0-2.8-0.1-2.8-0.1s0.3-0.7,0.8-1.7h12.8
			C130.7,41.6,130.9,42.2,131.2,42.6z"/>
		<path fill="#006C23" d="M118.9,37.7h10.5c0.1,0.4,0.3,0.9,0.4,1.3h-11.3C118.6,38.7,118.7,38.2,118.9,37.7z"/>
		<g>
			<path fill="#FF9400" d="M124.8,20.1c0.5,0,0.9-0.4,0.9-0.4l-0.1-0.2c0,0-0.4,0.4-0.8,0.3c-0.2,0-0.3-0.1-0.4-0.3l-0.2,0.1
				c0.2,0.2,0.3,0.4,0.6,0.4C124.8,20.1,124.8,20.1,124.8,20.1z"/>
		</g>
		<g>
			<path fill="#FF9400" d="M128.5,35l-0.1-0.2c-1.8-1.3-3.7-4.4-3.8-4.7l-0.3-2.8l-0.2,0l0.3,2.9C124.5,30.3,126.5,33.8,128.5,35z"
				/>
		</g>
		<g>
			<polygon fill="#FF9400" points="123.8,31.1 124.6,30.2 124.5,30 123.6,30.9 			"/>
		</g>
		<rect x="115.8" y="42.8" fill="#131313" width="16.2" height="0"/>
	</g>
	<path fill="#3C2415" d="M129.3,62.9v3.4h-1.6v-6.4c0,0-2.7,0.8-3.6-2.5h-6.3c0,0-2.2-1.5-0.9-5.7c0,0,0.9,1.3,2.8,1.8l-0.2-1.8
		l4.3,2.4c0,0-1.4-1.6-0.9-1.6c0.5-0.1,4.2,2.1,4.2,2.1V53l2.6,2.6l0.7,7L129.3,62.9z"/>
	<polygon fill="#FFF200" points="111.8,66.6 105,69.4 106.9,74.7 113.7,71.6 	"/>
	<path fill="#2B3990" d="M135.3,69.6v0.5v9.4l-10.1,6.3l-10.8-4.1l-0.2-8.6l1.5,3.9l4.3-0.7v1.7c0,0,2.8,4.7,9.6,0l0.1-2l2.6,0.2
		L135.3,69.6z"/>
</g>
</svg>
