<?xml version="1.0" encoding="utf-8"?>
<!-- Generator: Adobe Illustrator 18.1.1, SVG Export Plug-In . SVG Version: 6.00 Build 0)  -->
<svg version="1.1" id="Layer_1" xmlns="http://www.w3.org/2000/svg" xmlns:xlink="http://www.w3.org/1999/xlink" x="0px" y="0px"
	 viewBox="0 0 261.2 380.9" enable-background="new 0 0 261.2 380.9" xml:space="preserve">
<g>
	<path fill="#82817F" d="M190.5,356.3c-4.3,17.9-22.3,28.9-40.5,24.6L25.7,350.9c-18.2-4.4-29.1-22.4-24.8-40.3l68.7-285
		C73.9,7.7,91.8-3.4,110,1l124.3,29.9c18.2,4.4,29.2,22.5,24.9,40.4L190.5,356.3z"/>
	<path fill="#BCBCBC" d="M261.2,57.3c-2.6-12.4-12.1-22.9-25.4-26L111.5,1.3c-18.2-4.4-36.7,6.6-41,24.5l-1,4.2
		c37.2-13.5,77.8-16.7,118.2-7C215.1,29.6,239.8,41.5,261.2,57.3z"/>
	<path fill="#0E1E23" d="M184.9,349.6c-4.2,17.3-20.6,28.5-37.4,24.5L32.6,346.4C15.8,342.4,4.8,324.5,9,307.2L75.2,32.4
		C79.3,15.1,97.1,5,113.9,9.1l114.8,27.7c16.8,4.1,26.6,20.7,22.4,38L184.9,349.6z"/>
	<path opacity="4.000000e-02" fill="#335A63" d="M251.3,74.1c4.2-17.3-5.5-34.3-22.3-38.3L114.1,8.1c-16.8-4.1-34.7,6.3-38.8,23.6
		L75.2,32C110,84.3,176.1,181.3,212.4,235.6L251.3,74.1z"/>
	<circle fill="#030909" cx="95.3" cy="335.1" r="16.7"/>
	<path opacity="0.49" fill="#616267" d="M78.6,333.7c-0.7,8.1,4.6,15.7,12.7,17.6c8.3,2,16.7-2.6,19.6-10.5
		c-5.7,1.8-11.8,2.1-17.8,0.6C87.6,340.1,82.7,337.4,78.6,333.7z"/>
	
		<rect x="90.7" y="325.9" transform="matrix(0.9722 0.2341 -0.2341 0.9722 80.2745 -13.3197)" fill="none" stroke="#FFFFFF" stroke-width="2" stroke-linejoin="round" stroke-miterlimit="10" width="11" height="11"/>
	
		<rect x="47.8" y="70.3" transform="matrix(0.9722 0.2341 -0.2341 0.9722 48.5018 -24.9545)" fill="none" stroke="#616267" stroke-width="3" stroke-miterlimit="10" width="163" height="243"/>
	<g id="K2MfZa.tif">
		<g>
			<path fill="#FFFFFF" d="M114.5,174.4c0.7-3,2-5.7,4.4-7.8c2.5-2.1,5.4-3.1,8.7-2.8c2,0.2,3.6,1,5.2,2.1c0.8,0.6,1.7,1.2,2.6,1.6
				c0.7,0.3,1.3,0.3,2,0.2c1.7-0.1,3.3-0.5,5-0.4c4.4,0.3,7.8,2.3,9.8,6.4c0.2,0.4,0,0.5-0.3,0.6c-2.4,0.9-4.4,2.4-5.6,4.8
				c-2,3.8-1.2,8.5,1.9,11.5c0.3,0.3,0.6,0.6,0.9,0.8c0.3,0.2,0.3,0.3,0.1,0.6c-1.3,1.9-2.7,3.7-4.5,5.2c-1,0.9-2,1.8-3.2,2.5
				c-1.7,1.1-3.4,1.7-5.4,1.1c-1.1-0.3-2.1-1-3-1.6c-1.3-1-2.6-1.7-4.2-2c-1.5-0.3-3,0-4.5,0.2c-1.4,0.2-2.9,0.2-4.2-0.6
				c-0.9-0.5-1.6-1.3-2.2-2.2c-2.5-4.1-3.8-8.5-4.1-13.3c-0.1-1.1-0.1-2.2,0-3.3C114,176.9,114.1,175.6,114.5,174.4z"/>
			<path fill="#FFFFFF" d="M147.3,158.4c-0.9,3-2.8,5.1-5.7,6.4c-1.6,0.7-3.3,1-5.1,0.6c-0.5-0.1-0.5-0.3-0.4-0.7
				c0.9-3.6,3.2-5.7,6.6-6.9c1.3-0.5,2.7-0.6,4.1-0.5c0.8,0.1,0.8,0,0.6,0.7C147.4,158,147.4,158.2,147.3,158.4z"/>
		</g>
	</g>
</g>
</svg>
