<?xml version="1.0" encoding="utf-8"?>
<!-- Generator: Adobe Illustrator 18.1.1, SVG Export Plug-In . SVG Version: 6.00 Build 0)  -->
<svg version="1.1" id="Layer_1" xmlns="http://www.w3.org/2000/svg" xmlns:xlink="http://www.w3.org/1999/xlink" x="0px" y="0px"
	 viewBox="0 0 133 223.8" enable-background="new 0 0 133 223.8" xml:space="preserve">
<g>
	<path fill="#3C2415" d="M56.3,21.1c-0.6,0.4-1.5,0.4-2.1-0.1c-0.2-0.2-0.4-0.4-0.6-0.5c0.4,0.2,0.9,0.1,1.2-0.2
		c0.3-0.3,0.5-0.7,0.6-1.1c0.2-0.6,0.2-1.1,0.2-1.7c0,0,0-0.1,0-0.1c0,0,0.1-0.1,0.1-0.1c0.9-0.1,1.8-0.2,2.7-0.4
		c-0.1,1.7-0.3,3.4-0.4,5.1c0,0.4-0.1,0.8-0.3,1.2c-0.2,0.4-0.6,0.6-1,0.7c-0.4,0.2-0.9,0.2-1.4,0.1c-0.4-0.1-0.9-0.5-0.9-0.9
		C55.5,23,56.3,22.1,56.3,21.1z"/>
	<path fill="#D7DF23" d="M86.3,201.6h-7c0,0-2.7,8.8,6.4,9.3h11.8c0,0,2.6-5.6-4.4-6C93,205,86.9,203.9,86.3,201.6z"/>
	<path fill="#D7DF23" d="M47.7,201.6h7c0,0,2.7,8.8-6.4,9.3H36.6c0,0-2.6-5.6,4.4-6C41,205,47.1,203.9,47.7,201.6z"/>
	<polygon fill="#F9BD91" points="47,109.4 47.7,201.6 54.7,201.6 66.7,122.2 79.3,201.6 86.3,201.6 82.1,109.2 	"/>
	<polygon fill="#262262" points="47,109.4 45.6,149.3 63.7,149.3 66.5,132.4 69.4,149.3 85.5,149.3 82.1,109.2 	"/>
	<polygon fill="#F9BD91" points="84.4,59.2 90.9,44.1 95.9,77.1 89.4,79.5 	"/>
	<path fill="#262262" d="M84.4,59.2l1.1,7.2l8.6-1.5l-4.1-26.9c0,0-24.9-11.1-51.2,0l6.8,18.1l1.4,53.2l35.1-0.2L84.4,59.2"/>
	<polygon fill="#262262" points="47,174.8 58.8,174.8 54.7,201.6 47.7,201.6 	"/>
	<polygon fill="#262262" points="75,174.8 85.5,174.8 86.3,201.6 79.3,201.6 	"/>
	<g>
		<path fill="#AF8F56" d="M133.4,211.8h-28.4c-0.6,0-1.2-0.5-1.2-1.2v-1.2c0-0.6,0.5-1.2,1.2-1.2h28.4c0.6,0,1.2,0.5,1.2,1.2v1.2
			C134.6,211.3,134,211.8,133.4,211.8z"/>
		<path fill="#7F7B6E" d="M132.1,210.6c0.6,0,1.4,0,1.8-0.4c0.2-0.2,0.3-0.6,0.4-0.9c0.4-1.6,0.6-3.2,0.6-4.8c0-0.4,0-0.7-0.2-1
			c-0.2-0.3-0.4-0.5-0.7-0.7c-0.7-0.6-1-1.6-1.8-2c-0.3-0.2-0.7-0.2-1.1-0.3c-1.8-0.4-3.2-1.7-4.5-2.9c-1.2-1.1-2.3-2.1-3.5-3.2
			c-0.2-0.2-0.4-0.3-0.6-0.4c-0.2-0.1-0.5,0-0.7,0c-2.8,0.4-6-0.9-8.5,0.5c-0.8,0.5-1.5,1.2-2.1,1.9c-0.9,1-1.7,1.9-2.6,2.9
			c-1,1.2-2.1,2.3-3.1,3.5c-1,1.1-2.1,2.5-1.7,4c0.2,0.9,1.1,1.7,1.9,2.1c1,0.4,2,0.6,3.1,0.7c0.6,0.1,1.2,0.1,1.8,0.1
			c1.2,0,2.5-0.1,3.7-0.1c1.4,0,2.9,0.1,4.3,0.2C123.1,210,127.6,210.3,132.1,210.6z"/>
		<circle fill="#CAAA6C" cx="119" cy="183" r="14.9"/>
		<rect x="110.7" y="204.5" fill="#523B10" width="15.4" height="4.7"/>
		<polygon fill="#B7975E" points="116.5,188.4 119,193.6 126.1,193.2 129.4,188.4 126.7,183 119.7,182.6 		"/>
		<polygon fill="#B7975E" points="110.2,172.5 111.7,176.6 117.8,176.6 122,173.5 120.8,169.5 114.8,169.5 		"/>
		<path fill="#B7975E" d="M107.1,191.9h2.2l0.9-4.1l-2.3-5.7l-2.9-0.6l-0.9,1.6C104.2,183,104,188.8,107.1,191.9z"/>
		<path fill="#B7975E" d="M131.4,176l-3.4,0.9l-1.1,5.6l2.9,5.5l3.6-1.4C133.5,186.7,134.6,179.4,131.4,176z"/>
		<polygon fill="#EACE9D" points="118.8,181.5 117.4,177.3 112.1,177.3 116.5,178.2 		"/>
		<polygon fill="#EACE9D" points="120.2,181.5 118.4,177.3 122,174.4 119.7,177.9 		"/>
		<polygon fill="#EACE9D" points="117.9,193.1 116.1,189.2 111,188.8 115.5,190 		"/>
		<path fill="#EACE9D" d="M132.7,185.9c0,0,1.4-5.5-1.7-8.6l-2.3,0.3l2.1,0.3C130.9,177.9,133.2,180.5,132.7,185.9z"/>
		<polygon fill="#EACE9D" points="121.3,173.1 117.6,176 112.6,175.7 117.5,175.3 		"/>
		<polygon fill="#EACE9D" points="108.4,181 111,176.9 109.7,173.4 110.7,176.9 		"/>
		<polygon fill="#EACE9D" points="121.6,170 122.7,173.1 127.6,176 122.9,172.8 		"/>
	</g>
	<g>
		<path fill="#AF8F56" d="M29.7,212.8H1.3c-0.6,0-1.2-0.5-1.2-1.2v-1.2c0-0.6,0.5-1.2,1.2-1.2h28.4c0.6,0,1.2,0.5,1.2,1.2v1.2
			C30.8,212.2,30.3,212.8,29.7,212.8z"/>
		<path fill="#7F7B6E" d="M28.3,211.6c0.6,0,1.4,0,1.8-0.4c0.2-0.2,0.3-0.6,0.4-0.9c0.4-1.6,0.6-3.2,0.6-4.8c0-0.4,0-0.7-0.2-1
			c-0.2-0.3-0.4-0.5-0.7-0.7c-0.7-0.6-1-1.6-1.8-2c-0.3-0.2-0.7-0.2-1.1-0.3c-1.8-0.4-3.2-1.7-4.5-2.9c-1.2-1.1-2.3-2.1-3.5-3.2
			c-0.2-0.2-0.4-0.3-0.6-0.4c-0.2-0.1-0.5,0-0.7,0c-2.8,0.4-6-0.9-8.5,0.5c-0.8,0.5-1.5,1.2-2.1,1.9c-0.9,1-1.7,1.9-2.6,2.9
			c-1,1.2-2.1,2.3-3.1,3.5c-1,1.1-2.1,2.5-1.7,4c0.2,0.9,1.1,1.7,1.9,2.1c1,0.4,2,0.6,3.1,0.7c0.6,0.1,1.2,0.1,1.8,0.1
			c1.2,0,2.5-0.1,3.7-0.1c1.4,0,2.9,0.1,4.3,0.2C19.3,211,23.8,211.3,28.3,211.6z"/>
		<circle fill="#CAAA6C" cx="15.3" cy="184" r="14.9"/>
		<rect x="6.9" y="205.5" fill="#523B10" width="15.4" height="4.7"/>
		<polygon fill="#B7975E" points="12.8,189.4 15.3,194.6 22.3,194.1 25.6,189.4 22.9,184 16,183.5 		"/>
		<polygon fill="#B7975E" points="6.4,173.5 7.9,177.6 14,177.6 18.3,174.5 17,170.5 11,170.5 		"/>
		<path fill="#B7975E" d="M3.4,192.9h2.2l0.9-4.1l-2.3-5.7l-2.9-0.6L0.4,184C0.4,184,0.2,189.7,3.4,192.9z"/>
		<path fill="#B7975E" d="M27.7,177l-3.4,0.9l-1.1,5.6l2.9,5.5l3.6-1.4C29.7,187.7,30.8,180.3,27.7,177z"/>
		<polygon fill="#EACE9D" points="15.1,182.4 13.7,178.3 8.3,178.3 12.8,179.2 		"/>
		<polygon fill="#EACE9D" points="16.4,182.4 14.6,178.3 18.3,175.4 15.9,178.9 		"/>
		<polygon fill="#EACE9D" points="14.2,194.1 12.4,190.2 7.3,189.8 11.7,190.9 		"/>
		<path fill="#EACE9D" d="M28.9,186.8c0,0,1.4-5.5-1.7-8.6l-2.3,0.3l2.1,0.3C27.1,178.9,29.4,181.5,28.9,186.8z"/>
		<polygon fill="#EACE9D" points="17.5,174 13.9,177 8.8,176.7 13.8,176.2 		"/>
		<polygon fill="#EACE9D" points="4.7,182 7.3,177.9 6,174.3 6.9,177.8 		"/>
		<polygon fill="#EACE9D" points="17.9,171 18.9,174 23.9,177 19.2,173.7 		"/>
	</g>
	<g>
		<path fill="#AF8F56" d="M81,223.8H52.7c-0.6,0-1.2-0.5-1.2-1.2v-1.2c0-0.6,0.5-1.2,1.2-1.2H81c0.6,0,1.2,0.5,1.2,1.2v1.2
			C82.2,223.3,81.7,223.8,81,223.8z"/>
		<path fill="#7F7B6E" d="M79.7,222.6c0.6,0,1.4,0,1.8-0.4c0.2-0.2,0.3-0.6,0.4-0.9c0.4-1.6,0.6-3.2,0.6-4.8c0-0.4,0-0.7-0.2-1
			c-0.2-0.3-0.4-0.5-0.7-0.7c-0.7-0.6-1-1.6-1.8-2c-0.3-0.2-0.7-0.2-1.1-0.3c-1.8-0.4-3.2-1.7-4.5-2.9c-1.2-1.1-2.3-2.1-3.5-3.2
			c-0.2-0.2-0.4-0.3-0.6-0.4c-0.2-0.1-0.5,0-0.7,0c-2.8,0.4-6-0.9-8.5,0.5c-0.8,0.5-1.5,1.2-2.1,1.9c-0.9,1-1.7,1.9-2.6,2.9
			c-1,1.2-2.1,2.3-3.1,3.5c-1,1.1-2.1,2.5-1.7,4c0.2,0.9,1.1,1.7,1.9,2.1c1,0.4,2,0.6,3.1,0.7c0.6,0.1,1.2,0.1,1.8,0.1
			c1.2,0,2.5-0.1,3.7-0.1c1.4,0,2.9,0.1,4.3,0.2C70.7,222,75.2,222.3,79.7,222.6z"/>
		<circle fill="#CAAA6C" cx="66.7" cy="195" r="14.9"/>
		<rect x="58.3" y="216.5" fill="#523B10" width="15.4" height="4.7"/>
		<polygon fill="#B7975E" points="64.1,200.4 66.7,205.6 73.7,205.2 77,200.4 74.3,195 67.3,194.6 		"/>
		<polygon fill="#B7975E" points="57.8,184.5 59.3,188.6 65.4,188.6 69.6,185.5 68.4,181.5 62.4,181.5 		"/>
		<path fill="#B7975E" d="M54.7,203.9h2.2l0.9-4.1l-2.3-5.7l-2.9-0.6l-0.9,1.6C51.8,195,51.6,200.8,54.7,203.9z"/>
		<path fill="#B7975E" d="M79.1,188l-3.4,0.9l-1.1,5.6l2.9,5.5l3.6-1.4C81.1,198.7,82.2,191.4,79.1,188z"/>
		<polygon fill="#EACE9D" points="66.4,193.5 65,189.3 59.7,189.3 64.1,190.2 		"/>
		<polygon fill="#EACE9D" points="67.8,193.5 66,189.3 69.6,186.4 67.3,189.9 		"/>
		<polygon fill="#EACE9D" points="65.5,205.1 63.7,201.2 58.6,200.8 63.1,202 		"/>
		<path fill="#EACE9D" d="M80.3,197.9c0,0,1.4-5.5-1.7-8.6l-2.3,0.3l2.1,0.3C78.5,189.9,80.8,192.5,80.3,197.9z"/>
		<polygon fill="#EACE9D" points="68.9,185.1 65.3,188 60.2,187.7 65.1,187.3 		"/>
		<polygon fill="#EACE9D" points="56.1,193 58.6,188.9 57.3,185.4 58.3,188.9 		"/>
		<polygon fill="#EACE9D" points="69.2,182 70.3,185.1 75.2,188 70.6,184.8 		"/>
	</g>
	<polygon fill="#77173C" points="45.6,35.6 47,110.3 55.3,110.3 53.3,33.9 	"/>
	<path fill="#77173C" d="M61.2,37.2c-0.4,0.7,1.7,72.2,1.7,72.2h7.8l-0.5-73.9C70.1,35.5,63.2,34,61.2,37.2z"/>
	<path fill="#77173C" d="M77.9,34.6l-2.4,74.8l6.6-0.2l3-72.8C85.1,36.3,78.8,34.7,77.9,34.6z"/>
	<path fill="#F9BD91" d="M74.1,5.4v21.7h-3.5v7.5c0,0-3.9,7.7-13.5,0V19c0,0-2.9-0.6-2.9-3.9s3.3-1.7,3.3-1.7V5.8L74.1,5.4z"/>
	<path fill="#3C2415" d="M57.6,13.4V16H59v-4.9c0,0,2.9-1.9,3.1-5.7h-6c0,0-1.1,3.4-0.6,7.7C55.4,13.1,56.9,13,57.6,13.4z"/>
	<g>
		<path fill="#AF8F56" d="M96.9,85.1H68.5c-0.6,0-1.2-0.5-1.2-1.2v-1.2c0-0.6,0.5-1.2,1.2-1.2h28.4c0.6,0,1.2,0.5,1.2,1.2v1.2
			C98,84.5,97.5,85.1,96.9,85.1z"/>
		<path fill="#7F7B6E" d="M95.5,83.9c0.6,0,1.4,0,1.8-0.4c0.2-0.2,0.3-0.6,0.4-0.9c0.4-1.6,0.6-3.2,0.6-4.8c0-0.4,0-0.7-0.2-1
			c-0.2-0.3-0.4-0.5-0.7-0.7c-0.7-0.6-1-1.6-1.8-2c-0.3-0.2-0.7-0.2-1.1-0.3c-1.8-0.4-3.2-1.7-4.5-2.9c-1.2-1.1-2.3-2.1-3.5-3.2
			c-0.2-0.2-0.4-0.3-0.6-0.4c-0.2-0.1-0.5,0-0.7,0c-2.8,0.4-6-0.9-8.5,0.5c-0.8,0.5-1.5,1.2-2.1,1.9c-0.9,1-1.7,1.9-2.6,2.9
			c-1,1.2-2.1,2.3-3.1,3.5c-1,1.1-2.1,2.5-1.7,4c0.2,0.9,1.1,1.7,1.9,2.1c1,0.4,2,0.6,3.1,0.7c0.6,0.1,1.2,0.1,1.8,0.1
			c1.2,0,2.5-0.1,3.7-0.1c1.4,0,2.9,0.1,4.3,0.2C86.5,83.3,91,83.6,95.5,83.9z"/>
		<circle fill="#CAAA6C" cx="82.5" cy="56.3" r="14.9"/>
		<rect x="74.1" y="77.8" fill="#523B10" width="15.4" height="4.7"/>
		<polygon fill="#B7975E" points="80,61.7 82.5,66.9 89.5,66.5 92.8,61.7 90.1,56.3 83.2,55.9 		"/>
		<polygon fill="#B7975E" points="73.6,45.8 75.1,49.9 81.2,49.9 85.5,46.8 84.2,42.8 78.2,42.8 		"/>
		<path fill="#B7975E" d="M70.6,65.2h2.2l0.9-4.1l-2.3-5.7l-2.9-0.6l-0.9,1.6C67.6,56.3,67.4,62.1,70.6,65.2z"/>
		<path fill="#B7975E" d="M94.9,49.3l-3.4,0.9l-1.1,5.6l2.9,5.5l3.6-1.4C96.9,60,98,52.7,94.9,49.3z"/>
		<polygon fill="#EACE9D" points="82.3,54.7 80.9,50.6 75.5,50.6 80,51.5 		"/>
		<polygon fill="#EACE9D" points="83.6,54.7 81.8,50.6 85.5,47.7 83.1,51.2 		"/>
		<polygon fill="#EACE9D" points="81.4,66.4 79.6,62.5 74.5,62.1 78.9,63.2 		"/>
		<path fill="#EACE9D" d="M96.1,59.1c0,0,1.4-5.5-1.7-8.6l-2.3,0.3l2.1,0.3C94.3,51.2,96.6,53.8,96.1,59.1z"/>
		<polygon fill="#EACE9D" points="84.7,46.4 81.1,49.3 76,49 80.9,48.5 		"/>
		<polygon fill="#EACE9D" points="71.9,54.3 74.5,50.2 73.2,46.7 74.1,50.1 		"/>
		<polygon fill="#EACE9D" points="85.1,43.3 86.1,46.4 91.1,49.3 86.4,46 		"/>
	</g>
	<path fill="#F9BD91" d="M88.7,82.3c-2.2-13.1,3.5-13.5,5.5-12.9s0.7,7.7,0.7,7.7s0.3-3.1,1.8-2.6c1.5,0.4,1.4,4,1.4,4
		s0.3,5.9-3.8,6.4C90.3,85.4,88.7,82.3,88.7,82.3z"/>
	<polygon fill="#F9BD91" points="38.7,38.1 31.1,77.1 35.8,88.4 68.8,85.5 66.6,78.1 41,75.9 45.6,56.2 	"/>
	<path fill="#262262" d="M38.7,38.1l-7.7,31.2l11.4,0.5l3.1-13.6C45.6,56.2,41.8,38.5,38.7,38.1z"/>
	<path fill="#F9BD91" d="M68.8,85.5c14.5,1.3,14.4-5,13.7-7.1S74,78.3,74,78.3s3.3-0.6,2.7-2.2c-0.6-1.6-4.5-1.2-4.5-1.2
		s-6.5,0.2-6.6,4.7C65.4,84.1,68.8,85.5,68.8,85.5z"/>
	<path fill="#3C2415" d="M68.3,9.4c1.8-0.4,3.4-1.7,4.1-3.4c0.2,1.3-0.3,2.8-1.3,3.7c1.6-0.7,2.9-2.3,3.2-4c0.5,0.4,0.6,1.2,0.3,1.8
		c0.8-1.3,1.1-3,0.3-4.4c-0.8-1.3-2.8-1.9-4-0.9c0.1-0.7-0.4-1.4-1-1.7s-1.3-0.4-2-0.5c-3.5-0.2-7,0.5-10.2,1.9
		c-0.5,0.2-1,0.5-1.5,0.8c-1.2,0.9-1.8,2.4-1.9,3.9c-0.1,1.5,0.2,3,0.6,4.4c0.2,0.6,0.5,1.3,1.1,1.2c0.2,0,0.4-0.2,0.5-0.3
		c2.2-1.9,4.3-4.1,5.9-6.4c-0.1,1-0.5,2-1.1,2.7c1.7,0,3.4-0.9,4.3-2.3c0.3,1.3-0.2,2.6-1.1,3.5c2-0.3,3.8-1.6,4.6-3.5
		C69.7,7.1,69.4,8.6,68.3,9.4z"/>
	<polygon fill="#F9ED32" points="64.2,38.1 65.5,44.5 66.4,38.1 	"/>
</g>
</svg>
