<?xml version="1.0" encoding="utf-8"?>
<!-- Generator: Adobe Illustrator 18.1.1, SVG Export Plug-In . SVG Version: 6.00 Build 0)  -->
<svg version="1.1" id="Layer_1" xmlns="http://www.w3.org/2000/svg" xmlns:xlink="http://www.w3.org/1999/xlink" x="0px" y="0px"
	 viewBox="0 0 463.5 590.7" enable-background="new 0 0 463.5 590.7" xml:space="preserve">
<g>
	<path fill="#231F20" d="M211,87.2c-2.1,0.3-4.1-1.1-5.2-3.1c-1.1-1.9-1.4-4.3-1.5-6.6c0-1.2,0.2-2.7,1.1-3.3
		c-3.1,1.3-6.9-1.1-8.2-4.5c-1.3-3.4-0.7-7.3,0.7-10.7c-3.4-1.5-6-5.2-6.5-9.2c-0.5-4,1.1-8.3,4-10.7c-1.1-4.3-1.7-8.9-0.6-13.1
		s4.4-8.1,8.4-8.5c0.2-3.3,2.8-5.9,5.5-7.3c5-2.7,11.2-2.7,16.3,0c-0.1-1.7,0.9-3.3,2.3-4.1c1.3-0.9,2.9-1.1,4.5-1.2
		c4.4-0.3,9.3,0.8,12.2,4.4c0.3,0.3,0.6,0.7,0.9,0.9c0.4,0.1,0.9,0,1.3-0.1c2.9-0.9,5.9-1.7,8.9-1.1c3,0.5,5.9,2.5,6.9,5.7
		c1-1.4,2.8-1.8,4.3-1.5c1.6,0.4,2.9,1.5,4,2.8c4.5,5.3,5.2,14,1.6,20.1c-0.6,1-1.3,2.1-1.6,3.3c-0.2,1-0.1,2-0.1,3
		c-0.1,4.2-2.6,7.9-5.1,11.2c-2.2,2.9-4.4,5.8-7.1,8.2c-2.3,2-4.9,3.4-7.5,4.9c-7.6,4.2-15.2,8.3-22.9,12.2
		c-1.6,0.8-3.3,1.7-5.1,1.9c-0.9,0.1-1.9,0-2.8,0.4c-1.8,0.8-2.5,3.1-3.4,4.9c-0.9,1.8-3.1,3.5-4.6,2.3
		C211.5,86.1,209.7,88.5,211,87.2z"/>
	<polygon fill="#AF1E30" points="188,300.7 182.8,559.1 202.1,559.1 237.5,347.4 253.1,559.1 276.9,559.1 281.8,299.3 	"/>
	<path fill="#A97C50" d="M88.8,182.8c0,0-41-9-57.5-42.8c0,0-3.4-9.8-8-9.4s-2.1,9-2.1,9S17,118.7,11,119.3c-6,0.6-20.9,7.7-1,40.8
		c0,0,45.4,55.9,84.4,47.5C94.4,207.7,119.2,184.2,88.8,182.8z"/>
	<path fill="#BE1E2D" d="M155.4,141.7c0,0-21.5,32.8-60.1,39.3c0,0-4.2,23.2,7.3,29.4c0,0,47.3-8.4,66.2-30L155.4,141.7z"/>
	<path fill="#231F20" d="M105.1,210c0,0-10.5-15.4-5-29.9L90,181.7c0,0-0.2,24.6,7.4,29.5L105.1,210z"/>
	<path fill="#A97C50" d="M383.8,169.4c0,0,39-15.7,49.6-51.7c0,0,1.8-10.3,6.4-10.6c4.6-0.4,3.5,8.5,3.5,8.5S444,94.3,450,94
		c6-0.4,21.9,4.2,7.8,40.1c0,0-35.6,62.6-75.4,60.8C382.4,194.8,354,175.9,383.8,169.4z"/>
	<path fill="#BE1E2D" d="M152.2,124.9c0,0,63.2-25.9,161.7,0l-29.7,174.4c0,0-37.2,3.1-99.5,0L152.2,124.9z"/>
	<polygon fill="#231F20" points="228.5,266.3 152.2,124.9 171.2,119.3 	"/>
	<polygon fill="#231F20" points="240,263.9 313.9,124.9 293.4,120.1 	"/>
	<polygon fill="#231F20" points="284.9,300.7 184.5,300.7 182.8,289.4 285.9,289.4 	"/>
	<rect x="228.5" y="131.5" fill="#AF1E30" width="11.4" height="169.1"/>
	<path fill="#BE1E2D" d="M311.3,139.9c0,0,26.6,28.8,65.7,28.8c0,0,8,22.2-2.4,30.2c0,0-48.1-0.5-70.2-18.6L311.3,139.9z"/>
	<path fill="#231F20" d="M372.2,198.9c0,0,7.8-16.9,0-30.3h10.3c0,0,4.3,24.2-2.5,30.3H372.2z"/>
	<path fill="#911C30" d="M228.5,166.3l-38.2-63.6c0,0,48.2-26.8,84.6,0l-35,63.6H228.5z"/>
	<polygon fill="#AF1E30" points="210.6,123 228.5,166.3 240,166.3 254.5,123 	"/>
	<path fill="#A97C50" d="M265.8,29.6v68.8h-11.3V123c0,0-12.7,25-43.8,0V72.1c0,0-9.4-1.9-9.4-12.7s10.8-5.7,10.8-5.7v-24H265.8z"/>
	<polygon fill="#D1D3D4" points="200.2,559.1 197.2,573.7 184.5,573.7 184.5,559.1 	"/>
	<path fill="#231F20" d="M184.5,573.7h12.7c0,0,5,16-11.6,17h-21.5c0,0-4.7-10.1,8-10.8C172.2,579.8,183.3,577.9,184.5,573.7z"/>
	<polygon fill="#D1D3D4" points="257.4,559.1 260.5,573.7 273.2,573.7 273.2,559.1 	"/>
	<path fill="#231F20" d="M273.2,573.7h-12.7c0,0-5,16,11.6,17h21.5c0,0,4.7-10.1-8-10.8C285.4,579.8,274.4,577.9,273.2,573.7z"/>
	<path fill="#231F20" d="M240.2,40.2c5.2-3.4,10.8-7.3,10.9-12.1c3.4,3.3,3.3,7.9-0.2,11.1c3.8-2.7,6.4-6.1,7.4-9.7
		c1.6,1.8,1.7,4,1,6c-0.7,2-2.3,3.9-3.8,5.7c2-1.9,4-3.7,5.9-5.6c1.9-1.7,3.8-3.7,3.4-5.8c-0.3-1.5-1.9-2.9-3.9-3.7
		c-2-0.9-4.4-1.3-6.8-1.7c-9.2-1.2-18.7-0.3-27.8,1.1c-1.6,0.2-3.2,0.5-4.6,1.1s-2.4,1.6-2.2,2.6c1.2,2.2,0.6,4.8-1.6,6.7
		c1.3-0.4,2.2-1.3,3-2.1c1.6-1.6,3.3-3.3,4.9-4.9c3.5,4.5,2.2,10.3-3.2,14c3.5-1,6.4-2.9,7.8-5.1c0.8-1.3,1.3-2.9,2.8-3.9
		c0.9-0.6,2-1,3-1.5c1.7-0.9,2.7-2.3,2.8-3.7C243.1,31.9,243.6,36.8,240.2,40.2z"/>
</g>
</svg>
