<?xml version="1.0" encoding="utf-8"?>
<!-- Generator: Adobe Illustrator 18.1.1, SVG Export Plug-In . SVG Version: 6.00 Build 0)  -->
<svg version="1.1" id="Layer_1" xmlns="http://www.w3.org/2000/svg" xmlns:xlink="http://www.w3.org/1999/xlink" x="0px" y="0px"
	 viewBox="0 0 637 381.8" enable-background="new 0 0 637 381.8" xml:space="preserve">
<g>
	<path fill="#56554C" d="M441.3,81.5c0.4-0.3,8.4-6.3,8.4-6.3s4.8-10.4-1-14.1c-5.8-3.8-12.1-3.2-12.1-3.2s-21.3,6.9-22.5,12.8
		C413,76.7,434.2,86.9,441.3,81.5z"/>
	<path fill="#56554C" d="M346,61c0,0,17.5-3,17.8-3.4c0.3-0.4,6.8-6.5,4.3-13.6c-2.5-7.1-7.4-6.9-7.4-6.9l-26,2.5l-6.1,3.6
		C328.6,43.4,333.5,60.9,346,61z"/>
	<path fill="#A9A28F" d="M541.4,196.3c6.4-0.2,11.8,4.7,12,11.1l1.9,50.6c0.2,6.4-4.7,11.8-11.1,12l0,0c-6.4,0.2-11.8-4.7-12-11.1
		l-1.9-50.6C530.1,201.9,535,196.6,541.4,196.3L541.4,196.3z"/>
	<path fill="#F7F1D7" d="M547.6,381.6l-4.4,0.2l-3-135.7c0,0,1.1-3.5,6.3-0.2L547.6,381.6z"/>
	<path fill="#A9A28F" d="M214.8,97.5c1.6,6.2-2.2,12.5-8.4,14.1l-49,12.5c-6.2,1.6-12.5-2.2-14.1-8.4l0,0
		c-1.6-6.2,2.2-12.5,8.4-14.1l49-12.5C206.9,87.6,213.2,91.3,214.8,97.5L214.8,97.5z"/>
	<path fill="#F7F1D7" d="M1.1,151.2L0,147l165.6-40c0,0,4.6,0.1,1.5,6.1L1.1,151.2z"/>
	<polygon fill="#767465" points="293,88.3 171.6,23.5 171.6,20.3 301,82.7 	"/>
	<polygon fill="#E0DBC5" points="347.1,67.5 209.8,20.3 171.6,20.3 301,82.7 308.5,77.5 	"/>
	<ellipse fill="#A3A090" cx="296" cy="70.7" rx="23.1" ry="22.9"/>
	<ellipse fill="#040404" cx="296" cy="70.7" rx="19.9" ry="19.7"/>
	<polygon fill="#C5BCA2" points="24.2,288.4 -1.5,274 42.5,225.4 112.8,182.2 149.1,198.7 175.6,230.2 96.7,265 	"/>
	<polygon fill="#8E8369" points="24.2,288.4 99.9,263.6 175.6,230.2 178.3,243.1 131.4,265.8 45.2,288.4 	"/>
	<polygon fill="#E0DBC5" points="118.7,184.9 269,105.2 308.5,77.5 371.8,61 406.5,74.2 406.5,123 365.2,132.4 175.6,230.2 
		147.3,197.9 	"/>
	<polygon fill="#767465" points="175.6,230.2 178.3,243.1 199.1,227.6 345.5,152.1 372.3,152.1 394.8,125.6 365.2,132.4 	"/>
	<polygon fill="#9A3E3C" points="156,207.8 362.4,114.1 362.4,131.4 173.8,227.2 	"/>
	<polygon fill="#8E8369" points="62.5,220.6 73.3,230.2 125.9,200.9 109,196.2 	"/>
	<polygon fill="#A0A7A4" points="269,108.4 307.5,117.4 348.3,112.9 354.9,85.5 317.3,75.2 308.5,77.5 	"/>
	<polygon fill="#303134" points="277.4,104.4 305.3,114.1 340.8,87.9 312,80.6 	"/>
	<polygon fill="#303134" points="318.9,110 318.9,114.1 347.1,110 345,90.6 	"/>
	<polygon fill="#303134" points="347.1,89.6 348.7,102.4 352.3,90.6 350.8,86.9 	"/>
	<polygon fill="#767465" points="333,75.2 356.9,82.7 388.6,71.2 369.4,65.6 	"/>
	<polygon fill="#767465" points="416,121.4 458.2,125.6 471.7,104.5 471.7,99.5 443.8,90.6 	"/>
	<polygon fill="#E0DBC5" points="458.2,125.6 597.8,142.4 591.8,125.6 471.7,104.5 	"/>
	<polygon fill="#767465" points="388.6,132.9 564.3,228.7 561.2,231.8 443.8,173 441.7,175.8 414.1,172.1 372.3,152.1 	"/>
	<polygon fill="#767465" points="266.3,106.6 164.1,94.6 197.6,86.9 289.7,90.6 	"/>
	<polygon fill="#E0DBC5" points="266.3,106.6 250.3,115.1 248.3,109.5 164.1,97.3 164.1,94.6 	"/>
	<polygon fill="#9A3E3C" points="528,129.2 564.3,134.2 561.8,123.4 529.6,118.9 	"/>
	<polygon fill="#9A3E3C" points="193.7,31 215.2,42.2 238.3,38.8 259.3,47.9 269,45.1 236.3,32.2 226.9,33.2 218.6,28.8 	"/>
	<ellipse fill="#A3A090" cx="403.8" cy="102.6" rx="24.7" ry="24.5"/>
	<ellipse fill="#040404" cx="403.7" cy="102.6" rx="21.3" ry="21.1"/>
	<ellipse fill="#D8D6C8" cx="388.6" cy="163.6" rx="24.7" ry="24.5"/>
	<ellipse fill="#040404" cx="388.5" cy="163.6" rx="21.3" ry="21.1"/>
	<path fill="#A9A28F" d="M392.9,80.6l25.9-12.1c0,0,21.3-3.3,25,22.1l-20.8,26.7c0,0,10-9.3,1.3-27.1S392.9,80.6,392.9,80.6z"/>
	<path fill="#56554C" d="M388.6,132.9l175.7,95.8l-2.5-24.1l-143.4-82.3c0,0-10.4,8.2-23.6,3L388.6,132.9z"/>
	<path fill="#767465" d="M296,47.9l33.9-4.7c0,0,17.1-0.2,19.7,23.6l-31,7.7C318.7,74.5,320.9,49.1,296,47.9z"/>
	<polygon fill="#F7F1D7" points="147.3,197.9 307.5,117.4 266.3,106.6 118.7,184.9 	"/>
	<path fill="#E0DBC5" d="M226.9,11.6c0,6.4-5.2,11.6-11.6,11.6h-50.6c-6.4,0-11.6-5.2-11.6-11.6l0,0c0-6.4,5.2-11.6,11.6-11.6h50.6
		C221.7,0,226.9,5.2,226.9,11.6L226.9,11.6z"/>
	<path fill="#F7F1D7" d="M-1.5,11.6V7.2l170.3,2.2c0,0,4.4,1.3,0,6.3L-1.5,11.6z"/>
	<path fill="#A9A28F" d="M612.5,124.7c4.1,7.6,1.3,17.1-6.4,21.2L606,146c-7.6,4.1-17.1,1.3-21.2-6.4l-8.3-15.5
		c-4.1-7.6-1.3-17.1,6.4-21.2l0.1-0.1c7.6-4.1,17.1-1.3,21.2,6.4L612.5,124.7z"/>
	<path fill="#F7F1D7" d="M594.5,136.1l40.1,75.1c0,0,1.4,0,2.3-5.2l-32.4-71.8C604.6,134.2,595.7,125.3,594.5,136.1z"/>
	<path fill="#56554C" d="M366,132.9l-7.5-30.6l2.2-15.5l39.4-15.1l6.6,2.4l-13.8,6.5c0,0-18.9,9.5-12.7,29.5c0,0,4.6,12,15.3,15.6
		L366,132.9z"/>
	<polygon fill="#FFFFFF" points="362.6,80.6 362.4,78.1 336.6,70.7 333,75.2 356.9,82.7 	"/>
	<path fill="#A7A9AC" d="M359.3,77.2c0,0,0.3-13.9-8.5-14.8s-12.4,8.8-12.4,8.8S342.8,78.6,359.3,77.2z"/>
	<path fill="#262686" d="M347.1,62.8c0,0,3.4,1.6,7.9,1.1C354.9,63.8,350.6,61,347.1,62.8z"/>
	<path fill="#262686" d="M355.5,64.7c0,0-3.5,1.1-9.3-1.7l-1.8,0.9c0,0,4.2,2.7,11.8,1.7L355.5,64.7z"/>
	<polygon fill="#262686" points="347.1,65.6 344.4,71 351.5,72.8 352.3,66.5 	"/>
	<circle fill="#231F20" cx="348.9" cy="68.8" r="1.9"/>
	<circle fill="#231F20" cx="352.6" cy="72.8" r="1"/>
	<circle fill="#ED1C24" cx="352" cy="75.6" r="0.7"/>
	<path fill="#262686" d="M359.2,74.5c0,0-3.6,0.2-5,0l-0.3,1.2c0,0,4.1,0.2,5.5,0L359.2,74.5z"/>
</g>
</svg>
