<?xml version="1.0" encoding="utf-8"?>
<!-- Generator: Adobe Illustrator 18.1.1, SVG Export Plug-In . SVG Version: 6.00 Build 0)  -->
<svg version="1.1" id="Layer_1" xmlns="http://www.w3.org/2000/svg" xmlns:xlink="http://www.w3.org/1999/xlink" x="0px" y="0px"
	 viewBox="0 0 1039.1 452.2" enable-background="new 0 0 1039.1 452.2" xml:space="preserve">
<g>
	<rect x="0" y="344.2" fill="#603F77" width="1039.1" height="80.7"/>
	<path fill="#F9BD91" d="M854.8,144.8c0,0-20.4-4.5-28.6-21.3c0,0-1.7-4.9-4-4.7c-2.3,0.2-1,4.5-1,4.5s-2.1-10.3-5.1-10
		c-3,0.3-10.4,3.9-0.5,20.3c0,0,22.6,27.8,42,23.6C857.6,157.1,870,145.5,854.8,144.8z"/>
	<g>
		<polygon fill="#8B5E3C" points="937.6,340.6 939.1,347.9 945.5,347.9 945.5,340.6 		"/>
		<path fill="#231F20" d="M945.5,347.9h-6.3c0,0-2.5,8,5.7,8.4h10.7c0,0,2.3-5-4-5.4C951.6,350.9,946,350,945.5,347.9z"/>
		<polygon fill="#8B5E3C" points="909.2,340.6 907.7,347.9 901.3,347.9 901.3,340.6 		"/>
		<path fill="#231F20" d="M901.3,347.9h6.3c0,0,2.5,8-5.7,8.4h-10.7c0,0-2.3-5,4-5.4C895.2,350.9,900.7,350,901.3,347.9z"/>
		<polygon fill="#F9BD91" points="943.7,212.1 946.3,340.6 937.1,340.6 919.1,235.3 909.2,340.6 900.4,340.6 897,211.4 		"/>
		<polygon fill="#8B5E3C" points="937.6,340.6 939.1,347.9 945.5,347.9 945.5,340.6 		"/>
		<path fill="#231F20" d="M945.5,347.9h-6.3c0,0-2.5,8,5.7,8.4h10.7c0,0,2.3-5-4-5.4C951.6,350.9,946,350,945.5,347.9z"/>
		<polygon fill="#8B5E3C" points="909.2,340.6 907.7,347.9 901.3,347.9 901.3,340.6 		"/>
		<path fill="#231F20" d="M901.3,347.9h6.3c0,0,2.5,8-5.7,8.4h-10.7c0,0-2.3-5,4-5.4C895.2,350.9,900.7,350,901.3,347.9z"/>
		<polygon fill="#02562C" points="946.3,211.6 949.2,349.6 936.3,350.8 919.8,244.7 912.8,349.6 897,348.7 895.4,211.6 		"/>
		<path fill="#E6E7E8" d="M955.9,124.6c0,0-23-12.9-69.2,0l9.9,104.6c0,0,19,1.3,49.9-0.2L955.9,124.6z"/>
		<path fill="#E6E7E8" d="M888,124.4c0,0-10.7,16.3-29.9,19.5c0,0-2.1,11.5,3.6,14.6c0,0,23.5-4.2,32.9-14.9L888,124.4z"/>
		<path fill="#F9BD91" d="M984.8,46.1c0.4-21.2-8.6-20.4-11.6-19.1c-3,1.3,0.7,12.4,0.7,12.4s-1.1-4.7-3.4-3.7
			c-2.3,1.1-1.2,6.7-1.2,6.7s1,9.4,7.4,9.1C983,51.2,984.8,46.1,984.8,46.1z"/>
		<polygon fill="#E6E7E8" points="947.4,125.3 967.9,99.3 982.9,107.2 949,151.2 950.9,134.5 		"/>
		<polygon fill="#F9BD91" points="967.9,99.3 976.6,87.3 974,51 983.1,48.7 989.1,92.3 981.3,106.7 		"/>
		<path fill="#BE1E2D" d="M905.9,118.4c0,0-16.1,3.6-17.9,6l1.7,4.9l18.7-4L905.9,118.4z"/>
		<path fill="#F9BD91" d="M936.2,74.5v37h-5.6v12.2c0,0-6.3,12.4-21.8,0V98.4c0,0-4.7-0.9-4.7-6.3c0-5.4,5.4-2.8,5.4-2.8V74.5H936.2
			z"/>
		<path fill="#E6E7E8" d="M916.8,100.5h18.5c0,0-3.3-5.7-9.3-5.7S916.8,100.5,916.8,100.5z"/>
		<polygon fill="#BE1E2D" points="940.2,118.4 955.4,115.1 955.4,123.8 947.4,125.3 		"/>
		<polygon fill="#662D91" points="917.9,175.1 907.5,126 896.3,125.3 914.8,177.5 		"/>
		<polygon fill="#662D91" points="925.3,175.1 935.8,126 947,125.3 928.5,177.5 		"/>
		<circle fill="#F7BF34" cx="921.7" cy="180.5" r="9.2"/>
		<path fill="#662D91" d="M947,125.3c0,0-3.6-5.5-4.3-5.7s-4.9-1.2-4.9-1.2l-2.3,8.9l0.7,6.1L947,125.3z"/>
		<path fill="#BCBEC0" d="M933,126l-11.9,19.7L909.4,126h-13.1c0,0,3.5-9.1,16.3-10.3c12.8-1.2,26.7-1.6,31.3,10.2L933,126z"/>
		<path fill="#F9BD91" d="M936.2,74.5v37h-5.6v12.2c0,0-6.3,12.4-21.8,0V98.4c0,0-4.7-0.9-4.7-6.3c0-5.4,5.4-2.8,5.4-2.8V74.5H936.2
			z"/>
		<path fill="#F9BD91" d="M932.4,123.7l-11.4,19.7l-10.4-19.7C910.6,123.7,920.1,111.7,932.4,123.7z"/>
		<polygon fill="#02562C" points="930.7,126.7 921.1,143.4 921.1,151.1 935.3,125.2 		"/>
		<polygon fill="#231F20" points="908.4,88.8 910.6,92.2 912.4,91.4 913.2,77.7 918.9,80 918.9,75.5 936.2,75.5 937.4,57.5 
			930.9,69.6 930.9,59.8 925.3,68.3 922.9,62.6 916.8,69.4 914.3,65.3 907.1,72.1 		"/>
		<g>
			<path fill="#006838" d="M991.2,28.6c0,0-24.8,27.5-24.1,26c0.6-1.4,8.7-44.5,8.7-44.5S994.4,20.2,991.2,28.6z"/>
			
				<ellipse transform="matrix(-0.6414 -0.7672 0.7672 -0.6414 1616.514 795.7164)" fill="#FBB040" cx="994.2" cy="20.1" rx="9.1" ry="7.8"/>
			
				<ellipse transform="matrix(-0.6414 -0.7672 0.7672 -0.6414 1605.4188 781.6664)" fill="#F9ED32" cx="985.4" cy="15.6" rx="9.1" ry="7.8"/>
			
				<ellipse transform="matrix(-0.6414 -0.7672 0.7672 -0.6414 1598.9661 806.2112)" fill="#92278F" cx="987.9" cy="29.4" rx="8" ry="6.9"/>
			
				<ellipse transform="matrix(-0.6414 -0.7672 0.7672 -0.6414 1590.7646 785.5504)" fill="#39B54A" cx="979" cy="21" rx="8" ry="6.9"/>
			
				<ellipse transform="matrix(-0.6414 -0.7672 0.7672 -0.6414 1600.5548 763.3137)" fill="#BE1E2D" cx="978.7" cy="7.6" rx="8" ry="6.9"/>
			
				<ellipse transform="matrix(-0.6414 -0.7672 0.7672 -0.6414 1583.8024 797.8886)" fill="#EC008C" cx="978.4" cy="28.8" rx="8" ry="6.9"/>
		</g>
	</g>
	<g>
		<polygon fill="#8B5E3C" points="740.7,340.6 739.1,347.9 732.8,347.9 732.8,340.6 		"/>
		<path fill="#231F20" d="M732.8,347.9h6.3c0,0,2.5,8-5.7,8.4h-10.7c0,0-2.3-5,4-5.4C726.7,350.9,732.2,350,732.8,347.9z"/>
		<polygon fill="#8B5E3C" points="769.1,340.6 770.6,347.9 776.9,347.9 776.9,340.6 		"/>
		<path fill="#231F20" d="M776.9,347.9h-6.3c0,0-2.5,8,5.7,8.4H787c0,0,2.3-5-4-5.4C783,350.9,777.5,350,776.9,347.9z"/>
		<polygon fill="#F9BD91" points="734.6,212.1 732,340.6 741.2,340.6 759.2,235.3 769.1,340.6 777.9,340.6 781.2,211.4 		"/>
		<polygon fill="#8B5E3C" points="740.7,340.6 739.1,347.9 732.8,347.9 732.8,340.6 		"/>
		<path fill="#231F20" d="M732.8,347.9h6.3c0,0,2.5,8-5.7,8.4h-10.7c0,0-2.3-5,4-5.4C726.7,350.9,732.2,350,732.8,347.9z"/>
		<polygon fill="#8B5E3C" points="769.1,340.6 770.6,347.9 776.9,347.9 776.9,340.6 		"/>
		<path fill="#231F20" d="M776.9,347.9h-6.3c0,0-2.5,8,5.7,8.4H787c0,0,2.3-5-4-5.4C783,350.9,777.5,350,776.9,347.9z"/>
		<polygon fill="#02562C" points="732,211.6 729.1,349.6 741.9,350.8 758.4,244.7 765.5,349.6 781.2,348.7 782.8,211.6 		"/>
		<path fill="#E6E7E8" d="M722.4,124.6c0,0,23-12.9,69.2,0l-9.9,104.6c0,0-19,1.3-49.9-0.2L722.4,124.6z"/>
		<path fill="#F9BD91" d="M689.4,144.7c0,0-20.4-4.5-28.6-21.3c0,0-1.7-4.9-4-4.7c-2.3,0.2-1,4.5-1,4.5s-2.1-10.3-5.1-10
			s-10.4,3.9-0.5,20.3c0,0,22.6,27.8,42,23.6C692.2,157.1,704.6,145.5,689.4,144.7z"/>
		<path fill="#E6E7E8" d="M722.6,124.3c0,0-10.7,16.3-29.9,19.5c0,0-2.1,11.5,3.6,14.6c0,0,23.5-4.2,32.9-14.9L722.6,124.3z"/>
		<path fill="#F9BD91" d="M819.4,46.1c0.4-21.2-8.6-20.4-11.6-19.1c-3,1.3,0.7,12.4,0.7,12.4s-1.1-4.7-3.4-3.7s-1.2,6.7-1.2,6.7
			s1,9.4,7.4,9.1C817.6,51.2,819.4,46.1,819.4,46.1z"/>
		<polygon fill="#E6E7E8" points="782,125.3 802.5,99.3 817.5,107.1 783.6,151.1 785.5,134.5 		"/>
		<polygon fill="#F9BD91" points="802.5,99.3 811.2,87.3 808.6,51 817.7,48.7 823.7,92.2 815.9,106.6 		"/>
		<path fill="#BE1E2D" d="M740.5,118.4c0,0-16.1,3.6-17.9,6l1.7,4.9l18.7-4L740.5,118.4z"/>
		<path fill="#F9BD91" d="M742.1,74.5v37h5.6v12.2c0,0,6.3,12.4,21.8,0V98.4c0,0,4.7-0.9,4.7-6.3c0-5.4-5.4-2.8-5.4-2.8V74.5H742.1z
			"/>
		<path fill="#E6E7E8" d="M761.5,100.5H743c0,0,3.3-5.7,9.3-5.7S761.5,100.5,761.5,100.5z"/>
		<polygon fill="#BE1E2D" points="774.8,118.4 790,115.1 790,123.8 782,125.3 		"/>
		<polygon fill="#662D91" points="760.3,175.1 770.8,126 782,125.3 763.5,177.5 		"/>
		<polygon fill="#662D91" points="752.9,175.1 742.5,126 731.3,125.3 749.8,177.5 		"/>
		<circle fill="#F7BF34" cx="756.6" cy="180.5" r="9.2"/>
		<path fill="#662D91" d="M731.3,125.3c0,0,3.6-5.5,4.3-5.7s4.9-1.2,4.9-1.2l2.3,8.9l-0.7,6.1L731.3,125.3z"/>
		<path fill="#BCBEC0" d="M745.3,126l11.9,19.7l11.7-19.7H782c0,0-3.5-9.1-16.3-10.3c-12.8-1.2-26.7-1.6-31.3,10.2L745.3,126z"/>
		<path fill="#F9BD91" d="M742.1,74.5v37h5.6v12.2c0,0,6.3,12.4,21.8,0V98.4c0,0,4.7-0.9,4.7-6.3c0-5.4-5.4-2.8-5.4-2.8V74.5H742.1z
			"/>
		<path fill="#F9BD91" d="M745.8,123.7l11.4,19.7l10.4-19.7C767.6,123.7,758.2,111.7,745.8,123.7z"/>
		<path fill="#603913" d="M766.2,79v15.8l2.3-0.2l0.4-5.3l1.9-0.6V70.4c0,0-17.9-17.5-28.7,4.1c0,0-4.4,2.8-3.7,3.2
			c0.7,0.4,15.3-3.2,15.3-3.2l-3.3,3.2l16-2.2L766.2,79z"/>
		<polygon fill="#02562C" points="747.5,126.7 757.2,143.4 757.2,151.1 743,125.2 		"/>
		<g>
			<path fill="#006838" d="M794.6,27.4c0,0,14.2,34.1,14.1,32.6c-0.1-1.6,6.7-44.9,6.7-44.9S794.3,18.4,794.6,27.4z"/>
			
				<ellipse transform="matrix(0.8604 -0.5097 0.5097 0.8604 101.58 407.5032)" fill="#FBB040" cx="794.5" cy="18.4" rx="9.1" ry="7.8"/>
			
				<ellipse transform="matrix(0.8604 -0.5097 0.5097 0.8604 103.5789 412.3271)" fill="#F9ED32" cx="804.3" cy="17.1" rx="9.1" ry="7.8"/>
			
				<ellipse transform="matrix(0.8604 -0.5097 0.5097 0.8604 96.4115 410.4782)" fill="#92278F" cx="797.4" cy="29.3" rx="8" ry="6.9"/>
			
				<ellipse transform="matrix(0.8604 -0.5097 0.5097 0.8604 100.5053 415.5057)" fill="#39B54A" cx="808.6" cy="24.3" rx="8" ry="6.9"/>
			
				<ellipse transform="matrix(0.8604 -0.5097 0.5097 0.8604 107.5599 416.1764)" fill="#BE1E2D" cx="813.3" cy="11.8" rx="8" ry="6.9"/>
			
				<ellipse transform="matrix(0.8604 -0.5097 0.5097 0.8604 96.3733 415.5232)" fill="#EC008C" cx="806.5" cy="31.9" rx="8" ry="6.9"/>
		</g>
	</g>
	<g>
		<polygon fill="#8B5E3C" points="588.9,340.6 587.4,347.9 581.1,347.9 581.1,340.6 		"/>
		<path fill="#231F20" d="M581.1,347.9h6.3c0,0,2.5,8-5.7,8.4H571c0,0-2.3-5,4-5.4C575,350.9,580.5,350,581.1,347.9z"/>
		<polygon fill="#8B5E3C" points="617.3,340.6 618.9,347.9 625.2,347.9 625.2,340.6 		"/>
		<path fill="#231F20" d="M625.2,347.9h-6.3c0,0-2.5,8,5.7,8.4h10.7c0,0,2.3-5-4-5.4C631.3,350.9,625.8,350,625.2,347.9z"/>
		<polygon fill="#F9BD91" points="582.8,212.1 580.3,340.6 589.5,340.6 607.5,235.3 617.3,340.6 626.2,340.6 629.5,211.4 		"/>
		<polygon fill="#8B5E3C" points="588.9,340.6 587.4,347.9 581.1,347.9 581.1,340.6 		"/>
		<path fill="#231F20" d="M581.1,347.9h6.3c0,0,2.5,8-5.7,8.4H571c0,0-2.3-5,4-5.4C575,350.9,580.5,350,581.1,347.9z"/>
		<polygon fill="#8B5E3C" points="617.3,340.6 618.9,347.9 625.2,347.9 625.2,340.6 		"/>
		<path fill="#231F20" d="M625.2,347.9h-6.3c0,0-2.5,8,5.7,8.4h10.7c0,0,2.3-5-4-5.4C631.3,350.9,625.8,350,625.2,347.9z"/>
		<polygon fill="#02562C" points="580.3,211.6 577.3,349.6 590.2,350.8 606.7,244.7 613.8,349.6 629.5,348.7 631.1,211.6 		"/>
		<path fill="#E6E7E8" d="M570.6,124.6c0,0,23-12.9,69.2,0L630,229.3c0,0-19,1.3-49.9-0.2L570.6,124.6z"/>
		<path fill="#F9BD91" d="M667.7,46.1c0.4-21.2-8.6-20.4-11.6-19.1c-3,1.3,0.7,12.4,0.7,12.4s-1.1-4.7-3.4-3.7
			c-2.3,1.1-1.2,6.7-1.2,6.7s1,9.4,7.4,9.1C665.9,51.2,667.7,46.1,667.7,46.1z"/>
		<polygon fill="#E6E7E8" points="630.3,125.3 650.8,99.3 665.8,107.1 631.8,151.1 633.7,134.5 		"/>
		<polygon fill="#F9BD91" points="650.8,99.3 659.5,87.3 656.9,51 665.9,48.7 672,92.2 664.2,106.6 		"/>
		<path fill="#BE1E2D" d="M588.8,118.4c0,0-16.1,3.6-17.9,6l1.7,4.9l18.7-4L588.8,118.4z"/>
		<path fill="#F9BD91" d="M590.4,74.5v37h5.6v12.2c0,0,6.3,12.4,21.8,0V98.4c0,0,4.7-0.9,4.7-6.3c0-5.4-5.4-2.8-5.4-2.8V74.5H590.4z
			"/>
		<path fill="#E6E7E8" d="M609.8,100.5h-18.5c0,0,3.3-5.7,9.3-5.7S609.8,100.5,609.8,100.5z"/>
		<polygon fill="#BE1E2D" points="623.1,118.4 638.3,115.1 638.3,123.8 630.3,125.3 		"/>
		<polygon fill="#662D91" points="608.6,175.1 619,126 630.3,125.3 611.7,177.5 		"/>
		<polygon fill="#662D91" points="601.2,175.1 590.8,126 579.5,125.3 598,177.5 		"/>
		<circle fill="#F7BF34" cx="604.9" cy="180.5" r="9.2"/>
		<path fill="#662D91" d="M579.5,125.3c0,0,3.6-5.5,4.3-5.7s4.9-1.2,4.9-1.2l2.3,8.9l-0.7,6.1L579.5,125.3z"/>
		<path fill="#BCBEC0" d="M593.6,126l11.9,19.7l11.7-19.7h13.1c0,0-3.5-9.1-16.3-10.3c-12.8-1.2-26.7-1.6-31.3,10.2L593.6,126z"/>
		<path fill="#F9BD91" d="M590.4,74.5v37h5.6v12.2c0,0,6.3,12.4,21.8,0V98.4c0,0,4.7-0.9,4.7-6.3c0-5.4-5.4-2.8-5.4-2.8V74.5H590.4z
			"/>
		<path fill="#F9BD91" d="M594.1,123.7l11.4,19.7l10.4-19.7C615.9,123.7,606.5,111.7,594.1,123.7z"/>
		<polygon fill="#02562C" points="595.8,126.7 605.5,143.4 605.5,151.1 591.2,125.2 		"/>
		<path fill="#F9BD91" d="M541.3,42.3c-0.4-21.2,8.6-20.4,11.6-19.1c3,1.3-0.7,12.4-0.7,12.4s1.1-4.7,3.4-3.7
			c2.3,1.1,1.2,6.7,1.2,6.7s-1,9.4-7.4,9.1C543.1,47.5,541.3,42.3,541.3,42.3z"/>
		<polygon fill="#E6E7E8" points="578.7,121.5 558.2,95.6 543.2,103.4 577.1,147.4 575.2,130.8 		"/>
		<polygon fill="#F9BD91" points="558.2,95.6 549.4,83.6 552,47.3 543,45 537,88.5 544.7,102.9 		"/>
		<path fill="#F9BD91" d="M618.4,88.8V73.9c0,0-13.2-14.8-28,0.5C590.4,74.5,610.5,97.8,618.4,88.8z"/>
		<g>
			<path fill="#006838" d="M557.5,16.8c0,0-20.7,30.6-19.5,29.7s41.1-19.1,41.1-19.1S564.8,11.6,557.5,16.8z"/>
			
				<ellipse transform="matrix(0.8991 0.4377 -0.4377 0.8991 62.1551 -246.1237)" fill="#FBB040" cx="565" cy="11.8" rx="9.1" ry="7.8"/>
			
				<ellipse transform="matrix(0.8991 0.4377 -0.4377 0.8991 66.0883 -248.1805)" fill="#F9ED32" cx="571.4" cy="19.3" rx="9.1" ry="7.8"/>
			
				<ellipse transform="matrix(0.8991 0.4377 -0.4377 0.8991 65.0645 -241.9724)" fill="#92278F" cx="557.4" cy="20.2" rx="8" ry="6.9"/>
			
				<ellipse transform="matrix(0.8991 0.4377 -0.4377 0.8991 69.0118 -245.8183)" fill="#39B54A" cx="567.8" cy="26.8" rx="8" ry="6.9"/>
			
				<ellipse transform="matrix(0.8991 0.4377 -0.4377 0.8991 69.0466 -251.8419)" fill="#BE1E2D" cx="580.8" cy="23.9" rx="8" ry="6.9"/>
			
				<ellipse transform="matrix(0.8991 0.4377 -0.4377 0.8991 69.3387 -242.3212)" fill="#EC008C" cx="560.3" cy="29.3" rx="8" ry="6.9"/>
		</g>
	</g>
	<g>
		<polygon fill="#8B5E3C" points="423.6,340.6 422,347.9 415.7,347.9 415.7,340.6 		"/>
		<path fill="#231F20" d="M415.7,347.9h6.3c0,0,2.5,8-5.7,8.4h-10.7c0,0-2.3-5,4-5.4C409.6,350.9,415.1,350,415.7,347.9z"/>
		<polygon fill="#8B5E3C" points="452,340.6 453.5,347.9 459.8,347.9 459.8,340.6 		"/>
		<path fill="#231F20" d="M459.8,347.9h-6.3c0,0-2.5,8,5.7,8.4h10.7c0,0,2.3-5-4-5.4C465.9,350.9,460.4,350,459.8,347.9z"/>
		<polygon fill="#F9BD91" points="417.5,212.1 414.9,340.6 424.1,340.6 442.1,235.3 452,340.6 460.8,340.6 464.1,211.4 		"/>
		<polygon fill="#8B5E3C" points="423.6,340.6 422,347.9 415.7,347.9 415.7,340.6 		"/>
		<path fill="#231F20" d="M415.7,347.9h6.3c0,0,2.5,8-5.7,8.4h-10.7c0,0-2.3-5,4-5.4C409.6,350.9,415.1,350,415.7,347.9z"/>
		<polygon fill="#8B5E3C" points="452,340.6 453.5,347.9 459.8,347.9 459.8,340.6 		"/>
		<path fill="#231F20" d="M459.8,347.9h-6.3c0,0-2.5,8,5.7,8.4h10.7c0,0,2.3-5-4-5.4C465.9,350.9,460.4,350,459.8,347.9z"/>
		<polygon fill="#02562C" points="414.9,211.6 412,349.6 424.9,350.8 441.4,244.7 448.4,349.6 464.1,348.7 465.8,211.6 		"/>
		<path fill="#E6E7E8" d="M405.3,124.6c0,0,23-12.9,69.2,0l-9.9,104.6c0,0-19,1.3-49.9-0.2L405.3,124.6z"/>
		<path fill="#F9BD91" d="M506.3,144.8c0,0,20.4-4.5,28.6-21.3c0,0,1.7-4.9,4-4.7c2.3,0.2,1,4.5,1,4.5s2.1-10.3,5.1-10
			c3,0.3,10.4,3.9,0.5,20.3c0,0-22.6,27.8-42,23.6C503.5,157.1,491.2,145.5,506.3,144.8z"/>
		<path fill="#E6E7E8" d="M473.2,124.4c0,0,10.7,16.3,29.9,19.5c0,0,2.1,11.5-3.6,14.6c0,0-23.5-4.2-32.9-14.9L473.2,124.4z"/>
		<path fill="#F9BD91" d="M376.4,46.1C376,24.9,385,25.6,388,27c3,1.3-0.7,12.4-0.7,12.4s1.1-4.7,3.4-3.7c2.3,1.1,1.2,6.7,1.2,6.7
			s-1,9.4-7.4,9.1S376.4,46.1,376.4,46.1z"/>
		<polygon fill="#E6E7E8" points="413.8,125.3 393.3,99.3 378.3,107.2 412.2,151.2 410.3,134.5 		"/>
		<polygon fill="#F9BD91" points="393.3,99.3 384.5,87.3 387.1,51 378.1,48.7 372.1,92.3 379.8,106.7 		"/>
		<path fill="#BE1E2D" d="M455.3,118.4c0,0,16.1,3.6,17.9,6l-1.7,4.9l-18.7-4L455.3,118.4z"/>
		<path fill="#F9BD91" d="M425,74.5v37h5.6v12.2c0,0,6.3,12.4,21.8,0V98.4c0,0,4.7-0.9,4.7-6.3c0-5.4-5.4-2.8-5.4-2.8V74.5H425z"/>
		<path fill="#E6E7E8" d="M444.4,100.5h-18.5c0,0,3.3-5.7,9.3-5.7S444.4,100.5,444.4,100.5z"/>
		<polygon fill="#BE1E2D" points="421,118.4 405.7,115.1 405.7,123.8 413.8,125.3 		"/>
		<polygon fill="#662D91" points="443.2,175.1 453.7,126 464.9,125.3 446.4,177.5 		"/>
		<polygon fill="#662D91" points="435.8,175.1 425.4,126 414.2,125.3 432.7,177.5 		"/>
		<circle fill="#F7BF34" cx="439.5" cy="180.5" r="9.2"/>
		<path fill="#662D91" d="M414.2,125.3c0,0,3.6-5.5,4.3-5.7s4.9-1.2,4.9-1.2l2.3,8.9l-0.7,6.1L414.2,125.3z"/>
		<path fill="#BCBEC0" d="M428.2,126l11.9,19.7l11.7-19.7h13.1c0,0-3.5-9.1-16.3-10.3s-26.7-1.6-31.3,10.2L428.2,126z"/>
		<path fill="#F9BD91" d="M425,74.5v37h5.6v12.2c0,0,6.3,12.4,21.8,0V98.4c0,0,4.7-0.9,4.7-6.3c0-5.4-5.4-2.8-5.4-2.8V74.5H425z"/>
		<path fill="#F9BD91" d="M428.7,123.7l11.4,19.7l10.4-19.7C450.5,123.7,441.1,111.7,428.7,123.7z"/>
		<polygon fill="#02562C" points="430.4,126.7 440.1,143.4 440.1,151.1 425.9,125.2 		"/>
		<polygon fill="#231F20" points="452.8,88.8 450.5,92.2 448.7,91.4 448,77.7 442.3,80 442.3,75.5 425,75.5 423.7,57.5 430.3,69.6 
			430.3,59.8 435.8,68.3 438.3,62.6 444.4,69.4 446.8,65.3 454.1,72.1 		"/>
		<g>
			<path fill="#006838" d="M525.6,113.1c0,0,24.8,27.5,24.1,26c-0.6-1.4-8.7-44.5-8.7-44.5S522.4,104.7,525.6,113.1z"/>
			
				<ellipse transform="matrix(0.6414 -0.7672 0.7672 0.6414 107.158 438.4204)" fill="#FBB040" cx="522.6" cy="104.6" rx="9.1" ry="7.8"/>
			
				<ellipse transform="matrix(0.6414 -0.7672 0.7672 0.6414 113.7252 443.6064)" fill="#F9ED32" cx="531.4" cy="100.1" rx="9.1" ry="7.8"/>
			
				<ellipse transform="matrix(0.6414 -0.7672 0.7672 0.6414 102.2526 446.6226)" fill="#92278F" cx="528.9" cy="113.9" rx="8" ry="6.9"/>
			
				<ellipse transform="matrix(0.6414 -0.7672 0.7672 0.6414 111.9098 450.4561)" fill="#39B54A" cx="537.8" cy="105.5" rx="8" ry="6.9"/>
			
				<ellipse transform="matrix(0.6414 -0.7672 0.7672 0.6414 122.3035 445.88)" fill="#BE1E2D" cx="538.1" cy="92.1" rx="8" ry="6.9"/>
			
				<ellipse transform="matrix(0.6414 -0.7672 0.7672 0.6414 106.1427 453.7103)" fill="#EC008C" cx="538.4" cy="113.3" rx="8" ry="6.9"/>
		</g>
	</g>
	<g>
		<g>
			<path fill="#F9BD91" d="M236.7,145c0,0-20.4-4.5-28.6-21.3c0,0-1.7-4.9-4-4.7c-2.3,0.2-1,4.5-1,4.5s-2.1-10.3-5.1-10
				s-10.4,3.9-0.5,20.3c0,0,22.6,27.8,42,23.6C239.5,157.3,251.9,145.7,236.7,145z"/>
			<path fill="#E6E7E8" d="M263.8,124.5c0,0-10.7,16.3-29.9,19.5c0,0-2.1,11.5,3.6,14.6c0,0,23.5-4.2,32.9-14.9L263.8,124.5z"/>
		</g>
		<polygon fill="#8B5E3C" points="282,340.6 280.5,347.9 274.2,347.9 274.2,340.6 		"/>
		<path fill="#231F20" d="M274.2,347.9h6.3c0,0,2.5,8-5.7,8.4h-10.7c0,0-2.3-5,4-5.4C268.1,350.9,273.6,350,274.2,347.9z"/>
		<polygon fill="#8B5E3C" points="310.4,340.6 312,347.9 318.3,347.9 318.3,340.6 		"/>
		<path fill="#231F20" d="M318.3,347.9H312c0,0-2.5,8,5.7,8.4h10.7c0,0,2.3-5-4-5.4C324.4,350.9,318.9,350,318.3,347.9z"/>
		<polygon fill="#F9BD91" points="275.9,212.1 273.4,340.6 282.6,340.6 300.6,235.3 310.4,340.6 319.3,340.6 322.6,211.4 		"/>
		<polygon fill="#8B5E3C" points="282,340.6 280.5,347.9 274.2,347.9 274.2,340.6 		"/>
		<path fill="#231F20" d="M274.2,347.9h6.3c0,0,2.5,8-5.7,8.4h-10.7c0,0-2.3-5,4-5.4C268.1,350.9,273.6,350,274.2,347.9z"/>
		<polygon fill="#8B5E3C" points="310.4,340.6 312,347.9 318.3,347.9 318.3,340.6 		"/>
		<path fill="#231F20" d="M318.3,347.9H312c0,0-2.5,8,5.7,8.4h10.7c0,0,2.3-5-4-5.4C324.4,350.9,318.9,350,318.3,347.9z"/>
		<polygon fill="#02562C" points="273.4,211.6 270.4,349.6 283.3,350.8 299.8,244.7 306.9,349.6 322.6,348.7 324.2,211.6 		"/>
		<path fill="#E6E7E8" d="M263.7,124.6c0,0,23-12.9,69.2,0l-9.9,104.6c0,0-19,1.3-49.9-0.2L263.7,124.6z"/>
		<path fill="#BE1E2D" d="M281.9,118.4c0,0-16.1,3.6-17.9,6l1.7,4.9l18.7-4L281.9,118.4z"/>
		<path fill="#F9BD91" d="M283.5,74.5v37h5.6v12.2c0,0,6.3,12.4,21.8,0V98.4c0,0,4.7-0.9,4.7-6.3c0-5.4-5.4-2.8-5.4-2.8V74.5H283.5z
			"/>
		<path fill="#E6E7E8" d="M302.9,100.5h-18.5c0,0,3.3-5.7,9.3-5.7S302.9,100.5,302.9,100.5z"/>
		<polygon fill="#BE1E2D" points="316.2,118.4 331.4,115.1 331.4,123.8 323.4,125.3 		"/>
		<polygon fill="#662D91" points="301.7,175.1 312.1,126 323.4,125.3 304.8,177.5 		"/>
		<polygon fill="#662D91" points="294.3,175.1 283.9,126 272.6,125.3 291.1,177.5 		"/>
		<circle fill="#F7BF34" cx="298" cy="180.5" r="9.2"/>
		<path fill="#662D91" d="M272.6,125.3c0,0,3.6-5.5,4.3-5.7s4.9-1.2,4.9-1.2l2.3,8.9l-0.7,6.1L272.6,125.3z"/>
		<path fill="#BCBEC0" d="M286.7,126l11.9,19.7l11.7-19.7h13.1c0,0-3.5-9.1-16.3-10.3s-26.7-1.6-31.3,10.2L286.7,126z"/>
		<path fill="#F9BD91" d="M283.5,74.5v37h5.6v12.2c0,0,6.3,12.4,21.8,0V98.4c0,0,4.7-0.9,4.7-6.3c0-5.4-5.4-2.8-5.4-2.8V74.5H283.5z
			"/>
		<path fill="#F9BD91" d="M287.2,123.7l11.4,19.7l10.4-19.7C309,123.7,299.6,111.7,287.2,123.7z"/>
		<path fill="#3C2415" d="M307.5,79v15.8l2.3-0.2l0.4-5.3l1.9-0.6V70.4c0,0-17.9-17.5-28.7,4.1c0,0-4.4,2.8-3.7,3.2
			s15.3-3.2,15.3-3.2l-3.3,3.2l16-2.2L307.5,79z"/>
		<polygon fill="#02562C" points="288.9,126.7 298.6,143.4 298.6,151.1 284.3,125.2 		"/>
		<g>
			<path fill="#F9BD91" d="M358.2,134.8c0,0,20.4-4.5,28.6-21.3c0,0,1.7-4.9,4-4.7s1,4.5,1,4.5s2.1-10.3,5.1-10
				c3,0.3,10.4,3.9,0.5,20.3c0,0-22.6,27.8-42,23.6C355.4,147.2,343.1,135.5,358.2,134.8z"/>
			<path fill="#E6E7E8" d="M331.1,114.4c0,0,10.7,16.3,29.9,19.5c0,0,2.1,11.5-3.6,14.6c0,0-23.5-4.2-32.9-14.9L331.1,114.4z"/>
		</g>
		<g>
			<path fill="#006838" d="M198.8,101.3c0,0-1.6,36.9-1.1,35.5c0.6-1.5,25.1-37.8,25.1-37.8S202.4,93,198.8,101.3z"/>
			
				<ellipse transform="matrix(0.9953 -9.703676e-02 9.703676e-02 0.9953 -8.0729 20.1015)" fill="#FBB040" cx="202.6" cy="93" rx="9.1" ry="7.8"/>
			
				<ellipse transform="matrix(0.9953 -9.703676e-02 9.703676e-02 0.9953 -8.323 21.0283)" fill="#F9ED32" cx="212" cy="96.1" rx="9.1" ry="7.8"/>
			
				<ellipse transform="matrix(0.9953 -9.703676e-02 9.703676e-02 0.9953 -9.1594 19.9548)" fill="#92278F" cx="200.6" cy="104.1" rx="8" ry="6.9"/>
			
				<ellipse transform="matrix(0.9953 -9.703676e-02 9.703676e-02 0.9953 -9.1273 21.1463)" fill="#39B54A" cx="212.8" cy="104.4" rx="8" ry="6.9"/>
			
				<ellipse transform="matrix(0.9953 -9.703676e-02 9.703676e-02 0.9953 -8.1751 22.0355)" fill="#BE1E2D" cx="222.5" cy="95.1" rx="8" ry="6.9"/>
			
				<ellipse transform="matrix(0.9953 -9.703676e-02 9.703676e-02 0.9953 -9.731 20.6853)" fill="#EC008C" cx="207.8" cy="110.4" rx="8" ry="6.9"/>
		</g>
	</g>
	<g>
		<polygon fill="#8B5E3C" points="162.8,341.1 164.3,348.4 170.6,348.4 170.6,341.1 		"/>
		<path fill="#231F20" d="M170.6,348.4h-6.3c0,0-2.5,8,5.7,8.4h10.7c0,0,2.3-5-4-5.4C176.7,351.4,171.2,350.5,170.6,348.4z"/>
		<polygon fill="#8B5E3C" points="134.3,341.1 132.8,348.4 126.5,348.4 126.5,341.1 		"/>
		<path fill="#231F20" d="M126.5,348.4h6.3c0,0,2.5,8-5.7,8.4h-10.7c0,0-2.3-5,4-5.4C120.4,351.4,125.9,350.5,126.5,348.4z"/>
		<polygon fill="#F9BD91" points="168.9,212.6 171.4,341.1 162.2,341.1 144.2,235.8 134.3,341.1 125.5,341.1 122.2,211.9 		"/>
		<polygon fill="#8B5E3C" points="162.8,341.1 164.3,348.4 170.6,348.4 170.6,341.1 		"/>
		<path fill="#231F20" d="M170.6,348.4h-6.3c0,0-2.5,8,5.7,8.4h10.7c0,0,2.3-5-4-5.4C176.7,351.4,171.2,350.5,170.6,348.4z"/>
		<polygon fill="#8B5E3C" points="134.3,341.1 132.8,348.4 126.5,348.4 126.5,341.1 		"/>
		<path fill="#231F20" d="M126.5,348.4h6.3c0,0,2.5,8-5.7,8.4h-10.7c0,0-2.3-5,4-5.4C120.4,351.4,125.9,350.5,126.5,348.4z"/>
		<polygon fill="#02562C" points="171.4,212.1 174.3,350.1 161.5,351.3 145,245.3 137.9,350.1 122.2,349.2 120.6,212.1 		"/>
		<path fill="#E6E7E8" d="M181,125.2c0,0-23-12.9-69.2,0l9.9,104.6c0,0,19,1.3,49.9-0.2L181,125.2z"/>
		<path fill="#F9BD91" d="M84,46.6c-0.4-21.2,8.6-20.4,11.6-19.1c3,1.3-0.7,12.4-0.7,12.4s1.1-4.7,3.4-3.7c2.3,1.1,1.2,6.7,1.2,6.7
			s-1,9.4-7.4,9.1C85.8,51.7,84,46.6,84,46.6z"/>
		<polygon fill="#E6E7E8" points="121.4,125.8 100.9,99.8 85.9,107.7 119.9,151.7 118,135 		"/>
		<polygon fill="#F9BD91" points="100.9,99.8 92.2,87.8 94.8,51.5 85.7,49.2 79.7,92.8 87.5,107.2 		"/>
		<path fill="#BE1E2D" d="M162.9,118.9c0,0,16.1,3.6,17.9,6l-1.7,4.9l-18.7-4L162.9,118.9z"/>
		<path fill="#F9BD91" d="M161.3,75v37h-5.6v12.2c0,0-6.3,12.4-21.8,0V98.9c0,0-4.7-0.9-4.7-6.3s5.4-2.8,5.4-2.8V75H161.3z"/>
		<path fill="#E6E7E8" d="M141.9,101h18.5c0,0-3.3-5.7-9.3-5.7C145.2,95.3,141.9,101,141.9,101z"/>
		<polygon fill="#BE1E2D" points="128.6,118.9 113.4,115.6 113.4,124.3 121.4,125.8 		"/>
		<polygon fill="#662D91" points="143.1,175.7 132.7,126.5 121.4,125.8 139.9,178 		"/>
		<polygon fill="#662D91" points="150.5,175.7 160.9,126.5 172.2,125.8 153.6,178 		"/>
		<circle fill="#F7BF34" cx="146.8" cy="181.1" r="9.2"/>
		<path fill="#662D91" d="M172.2,125.8c0,0-3.6-5.5-4.3-5.7c-0.7-0.2-4.9-1.2-4.9-1.2l-2.3,8.9l0.7,6.1L172.2,125.8z"/>
		<path fill="#BCBEC0" d="M158.1,126.5l-11.9,19.7l-11.7-19.7h-13.1c0,0,3.5-9.1,16.3-10.3c12.8-1.2,26.7-1.6,31.3,10.2L158.1,126.5
			z"/>
		<path fill="#F9BD91" d="M161.3,75v37h-5.6v12.2c0,0-6.3,12.4-21.8,0V98.9c0,0-4.7-0.9-4.7-6.3s5.4-2.8,5.4-2.8V75H161.3z"/>
		<path fill="#F9BD91" d="M157.6,124.2l-11.4,19.7l-10.4-19.7C135.8,124.2,145.2,112.2,157.6,124.2z"/>
		<polygon fill="#02562C" points="155.9,127.2 146.2,143.9 146.2,151.7 160.4,125.7 		"/>
		<path fill="#F9BD91" d="M210.4,42.9c0.4-21.2-8.6-20.4-11.6-19.1c-3,1.3,0.7,12.4,0.7,12.4s-1.1-4.7-3.4-3.7
			c-2.3,1.1-1.2,6.7-1.2,6.7s1,9.4,7.4,9.1C208.6,48,210.4,42.9,210.4,42.9z"/>
		<polygon fill="#E6E7E8" points="173,122.1 193.5,96.1 208.5,103.9 174.6,147.9 176.5,131.3 		"/>
		<polygon fill="#F9BD91" points="193.5,96.1 202.3,84.1 199.6,47.8 208.7,45.5 214.7,89.1 207,103.4 		"/>
		<path fill="#F9BD91" d="M133.3,89.3V74.5c0,0,13.2-14.8,28,0.5C161.3,75,141.2,98.3,133.3,89.3z"/>
		<g>
			<path fill="#006838" d="M194.2,17.3c0,0,20.7,30.6,19.5,29.7s-41.1-19.1-41.1-19.1S186.9,12.1,194.2,17.3z"/>
			
				<ellipse transform="matrix(-0.8991 0.4377 -0.4377 -0.8991 359.9351 -58.3635)" fill="#FBB040" cx="186.7" cy="12.3" rx="9.1" ry="7.8"/>
			
				<ellipse transform="matrix(-0.8991 0.4377 -0.4377 -0.8991 351.0111 -41.2992)" fill="#F9ED32" cx="180.3" cy="19.8" rx="9.1" ry="7.8"/>
			
				<ellipse transform="matrix(-0.8991 0.4377 -0.4377 -0.8991 377.9458 -45.741)" fill="#92278F" cx="194.2" cy="20.7" rx="8" ry="6.9"/>
			
				<ellipse transform="matrix(-0.8991 0.4377 -0.4377 -0.8991 361.2597 -28.6152)" fill="#39B54A" cx="183.9" cy="27.3" rx="8" ry="6.9"/>
			
				<ellipse transform="matrix(-0.8991 0.4377 -0.4377 -0.8991 335.1259 -28.464)" fill="#BE1E2D" cx="170.8" cy="24.4" rx="8" ry="6.9"/>
			
				<ellipse transform="matrix(-0.8991 0.4377 -0.4377 -0.8991 376.4323 -27.1968)" fill="#EC008C" cx="191.4" cy="29.8" rx="8" ry="6.9"/>
		</g>
	</g>
	<path fill="#A0694A" d="M133.3,89.3v3h4.3l-0.9-15c0,0,15.7,4.6,24.6-2.4c0,0-1.7-8.8-14-8.1c-12.3,0.8-15.1,7.5-15.1,7.5v14.7
		L133.3,89.3z"/>
	<rect x="0" y="371.5" fill="#4B2E59" width="1039.1" height="80.7"/>
	<polygon fill="#46153C" points="348.8,371.5 750.2,371.5 722.9,397.9 777.4,397.9 735,424 794.1,452.2 282.1,452.2 342.7,424 
		304.9,407.4 345.8,407.4 318.5,371.5 	"/>
	<g>
		<path fill="#F7941E" d="M522.7,380.1c-10.6,0-19.3,8.6-19.3,19.3c0,10.6,8.6,19.3,19.3,19.3c10.6,0,19.3-8.6,19.3-19.3
			C542,388.7,533.4,380.1,522.7,380.1z M522.7,416.1c-9.3,0-16.8-7.5-16.8-16.8c0-9.3,7.5-16.8,16.8-16.8s16.8,7.5,16.8,16.8
			C539.5,408.6,532,416.1,522.7,416.1z"/>
		<path fill="#F7941E" d="M539,401.7c-10.6,0-19.3,8.6-19.3,19.3c0,10.6,8.6,19.3,19.3,19.3s19.3-8.6,19.3-19.3
			C558.3,410.4,549.7,401.7,539,401.7z M539,437.8c-9.3,0-16.8-7.5-16.8-16.8c0-9.3,7.5-16.8,16.8-16.8s16.8,7.5,16.8,16.8
			C555.8,430.3,548.3,437.8,539,437.8z"/>
		<path fill="#F7941E" d="M579.3,380.1c-10.6,0-19.3,8.6-19.3,19.3c0,10.6,8.6,19.3,19.3,19.3c10.6,0,19.3-8.6,19.3-19.3
			C598.6,388.7,590,380.1,579.3,380.1z M579.3,416.1c-9.3,0-16.8-7.5-16.8-16.8c0-9.3,7.5-16.8,16.8-16.8c9.3,0,16.8,7.5,16.8,16.8
			C596.1,408.6,588.6,416.1,579.3,416.1z"/>
		<path fill="#F7941E" d="M551.7,380.1c-10.6,0-19.3,8.6-19.3,19.3c0,10.6,8.6,19.3,19.3,19.3S571,410,571,399.3
			C571,388.7,562.3,380.1,551.7,380.1z M551.7,416.1c-9.3,0-16.8-7.5-16.8-16.8c0-9.3,7.5-16.8,16.8-16.8s16.8,7.5,16.8,16.8
			C568.5,408.6,561,416.1,551.7,416.1z"/>
		<path fill="#F7941E" d="M565.3,401.7c-10.6,0-19.3,8.6-19.3,19.3c0,10.6,8.6,19.3,19.3,19.3c10.6,0,19.3-8.6,19.3-19.3
			C584.5,410.4,575.9,401.7,565.3,401.7z M565.3,437.8c-9.3,0-16.8-7.5-16.8-16.8c0-9.3,7.5-16.8,16.8-16.8s16.8,7.5,16.8,16.8
			C582.1,430.3,574.5,437.8,565.3,437.8z"/>
	</g>
</g>
</svg>
