<?xml version="1.0" encoding="utf-8"?>
<!-- Generator: Adobe Illustrator 18.1.1, SVG Export Plug-In . SVG Version: 6.00 Build 0)  -->
<svg version="1.1" id="Layer_1" xmlns="http://www.w3.org/2000/svg" xmlns:xlink="http://www.w3.org/1999/xlink" x="0px" y="0px"
	 viewBox="0 0 538.1 409.7" enable-background="new 0 0 538.1 409.7" xml:space="preserve">
<rect x="0" y="0" fill-rule="evenodd" clip-rule="evenodd" fill="#FFFFFF" width="538.1" height="331.4"/>
<g>
	<path fill-rule="evenodd" clip-rule="evenodd" fill="#003783" d="M0,0h229.5v178.6H0V0L0,0z M29.2,13.7h-8l-2.3-6.9l-2.3,6.9h-8
		l6.3,4.6l-2.3,8l6.3-5.2l6.3,4.6l-2.3-7.4L29.2,13.7L29.2,13.7z M218.7,160.8h-7.4l-2.9-6.9l-2.3,6.9h-7.4l6.3,4.6l-2.9,8l6.3-5.2
		l6.3,5.2l-2.3-8L218.7,160.8L218.7,160.8z M180.9,160.8h-8l-2.3-6.9l-2.3,6.9h-8l6.3,4.6l-2.3,8l6.3-5.2l6.3,5.2l-2.3-8
		L180.9,160.8L180.9,160.8z M142.5,160.8h-7.4l-2.3-6.9l-2.3,6.9h-8l6.3,4.6l-2.9,8l6.9-5.2l6.3,5.2l-2.3-8L142.5,160.8L142.5,160.8
		z M104.7,160.8h-7.4L95,154l-2.9,6.9h-7.4l6.3,4.6l-2.9,8l6.9-5.2l6.3,5.2l-2.9-8L104.7,160.8L104.7,160.8z M67,160.8h-7.4
		l-2.9-6.9l-2.3,6.9h-7.4l6.3,4.6l-2.9,8l6.3-5.2l6.3,5.2l-2.3-8L67,160.8L67,160.8z M29.2,160.8h-8l-2.3-6.9l-2.3,6.9h-8l6.3,4.6
		l-2.3,8l6.3-5.2l6.3,5.2l-2.3-8L29.2,160.8L29.2,160.8z M198.6,142.5h-7.4l-2.3-6.9l-2.3,6.9h-8l6.3,4.6l-2.9,8l6.9-5.2l6.3,4.6
		l-2.9-7.4L198.6,142.5L198.6,142.5z M160.8,142.5h-7.4l-2.9-6.9l-2.3,6.9h-7.4l6.3,4.6l-2.9,8l6.3-5.2l6.3,4.6l-2.3-7.4
		L160.8,142.5L160.8,142.5z M123.1,142.5h-8l-2.3-6.9l-2.3,6.9h-8l6.3,4.6l-2.3,8l6.3-5.2l6.3,4.6l-2.3-7.4L123.1,142.5L123.1,142.5
		z M85.3,142.5h-8l-2.3-6.9l-2.3,6.9h-8l6.3,4.6l-2.3,8L75,150l6.3,4.6l-2.3-7.4L85.3,142.5L85.3,142.5z M46.9,142.5h-7.4l-2.3-6.9
		l-2.3,6.9h-8l6.3,4.6l-2.9,8l6.9-5.2l6.3,4.6l-2.9-7.4L46.9,142.5L46.9,142.5z M198.6,105.9h-7.4l-2.3-6.9l-2.3,6.9h-8l6.3,4.6
		l-2.9,7.4l6.9-4.6l6.3,4.6l-2.9-7.4L198.6,105.9L198.6,105.9z M160.8,105.9h-7.4l-2.9-6.9l-2.3,6.9h-7.4l6.3,4.6l-2.9,7.4l6.3-4.6
		l6.3,4.6l-2.3-7.4L160.8,105.9L160.8,105.9z M123.1,105.9h-8l-2.3-6.9l-2.3,6.9h-8l6.3,4.6l-2.3,7.4l6.3-4.6l6.3,4.6l-2.3-7.4
		L123.1,105.9L123.1,105.9z M85.3,105.9h-8L75,99l-2.3,6.9h-8l6.3,4.6l-2.3,7.4l6.3-4.6l6.3,4.6l-2.3-7.4L85.3,105.9L85.3,105.9z
		 M46.9,105.9h-7.4L37.2,99l-2.3,6.9h-8l6.3,4.6l-2.9,7.4l6.9-4.6l6.3,4.6l-2.9-7.4L46.9,105.9L46.9,105.9z M198.6,69.3h-7.4
		l-2.3-7.4l-2.3,7.4h-8l6.3,4.6l-2.9,7.4l6.9-4.6l6.3,4.6l-2.9-7.4L198.6,69.3L198.6,69.3z M160.8,69.3h-7.4l-2.9-7.4l-2.3,7.4h-7.4
		l6.3,4.6l-2.9,7.4l6.3-4.6l6.3,4.6l-2.3-7.4L160.8,69.3L160.8,69.3z M123.1,69.3h-8l-2.3-7.4l-2.3,7.4h-8l6.3,4.6l-2.3,7.4l6.3-4.6
		l6.3,4.6l-2.3-7.4L123.1,69.3L123.1,69.3z M85.3,69.3h-8L75,61.8l-2.3,7.4h-8l6.3,4.6l-2.3,7.4l6.3-4.6l6.3,4.6L79,73.8L85.3,69.3
		L85.3,69.3z M46.9,69.3h-7.4l-2.3-7.4l-2.3,7.4h-8l6.3,4.6l-2.9,7.4l6.9-4.6l6.3,4.6l-2.9-7.4L46.9,69.3L46.9,69.3z M198.6,32h-7.4
		l-2.3-6.9l-2.3,6.9h-8l6.3,4.6l-2.9,8l6.9-5.2l6.3,5.2l-2.9-8L198.6,32L198.6,32z M160.8,32h-7.4l-2.9-6.9l-2.3,6.9h-7.4l6.3,4.6
		l-2.9,8l6.3-5.2l6.3,5.2l-2.3-8L160.8,32L160.8,32z M123.1,32h-8l-2.3-6.9l-2.3,6.9h-8l6.3,4.6l-2.3,8l6.3-5.2l6.3,5.2l-2.3-8
		L123.1,32L123.1,32z M85.3,32h-8L75,25.2L72.7,32h-8l6.3,4.6l-2.3,8l6.3-5.2l6.3,5.2l-2.3-8L85.3,32L85.3,32z M46.9,32h-7.4
		l-2.3-6.9L34.9,32h-8l6.3,4.6l-2.9,8l6.9-5.2l6.3,5.2l-2.9-8L46.9,32L46.9,32z M218.7,124.2h-7.4l-2.9-6.9l-2.3,6.9h-7.4l6.3,4.6
		l-2.9,7.4l6.3-4.6l6.3,4.6l-2.3-7.4L218.7,124.2L218.7,124.2z M180.9,124.2h-8l-2.3-6.9l-2.3,6.9h-8l6.3,4.6l-2.3,7.4l6.3-4.6
		l6.3,4.6l-2.3-7.4L180.9,124.2L180.9,124.2z M142.5,124.2h-7.4l-2.3-6.9l-2.3,6.9h-8l6.3,4.6l-2.9,7.4l6.9-4.6l6.3,4.6l-2.3-7.4
		L142.5,124.2L142.5,124.2z M104.7,124.2h-7.4l-2.3-6.9l-2.9,6.9h-7.4l6.3,4.6l-2.9,7.4l6.9-4.6l6.3,4.6l-2.9-7.4L104.7,124.2
		L104.7,124.2z M67,124.2h-7.4l-2.9-6.9l-2.3,6.9h-7.4l6.3,4.6l-2.9,7.4l6.3-4.6l6.3,4.6l-2.3-7.4L67,124.2L67,124.2z M29.2,124.2
		h-8l-2.3-6.9l-2.3,6.9h-8l6.3,4.6l-2.3,7.4l6.3-4.6l6.3,4.6l-2.3-7.4L29.2,124.2L29.2,124.2z M218.7,87.6h-7.4l-2.9-7.4l-2.3,7.4
		h-7.4l6.3,4.6l-2.9,7.4l6.3-4.6l6.3,4.6l-2.3-7.4L218.7,87.6L218.7,87.6z M180.9,87.6h-8l-2.3-7.4l-2.3,7.4h-8l6.3,4.6l-2.3,7.4
		l6.3-4.6l6.3,4.6l-2.3-7.4L180.9,87.6L180.9,87.6z M142.5,87.6h-7.4l-2.3-7.4l-2.3,7.4h-8l6.3,4.6l-2.9,7.4l6.9-4.6l6.3,4.6
		l-2.3-7.4L142.5,87.6L142.5,87.6z M104.7,87.6h-7.4L95,80.1l-2.9,7.4h-7.4l6.3,4.6l-2.9,7.4L95,95l6.3,4.6l-2.9-7.4L104.7,87.6
		L104.7,87.6z M67,87.6h-7.4l-2.9-7.4l-2.3,7.4h-7.4l6.3,4.6l-2.9,7.4l6.3-4.6l6.3,4.6l-2.3-7.4L67,87.6L67,87.6z M29.2,87.6h-8
		l-2.3-7.4l-2.3,7.4h-8l6.3,4.6l-2.3,7.4l6.3-4.6l6.3,4.6l-2.3-7.4L29.2,87.6L29.2,87.6z M218.7,50.9h-7.4l-2.9-7.4l-2.3,7.4h-7.4
		l6.3,4.6l-2.9,7.4l6.3-4.6l6.3,4.6l-2.3-7.4L218.7,50.9L218.7,50.9z M180.9,50.9h-8l-2.3-7.4l-2.3,7.4h-8l6.3,4.6l-2.3,7.4l6.3-4.6
		l6.3,4.6l-2.3-7.4L180.9,50.9L180.9,50.9z M142.5,50.9h-7.4l-2.3-7.4l-2.3,7.4h-8l6.3,4.6l-2.9,7.4l6.9-4.6l6.3,4.6l-2.3-7.4
		L142.5,50.9L142.5,50.9z M104.7,50.9h-7.4L95,43.5l-2.9,7.4h-7.4l6.3,4.6L88.1,63l6.9-4.6l6.3,4.6l-2.9-7.4L104.7,50.9L104.7,50.9z
		 M67,50.9h-7.4l-2.9-7.4l-2.3,7.4h-7.4l6.3,4.6L50.4,63l6.3-4.6L63,63l-2.3-7.4L67,50.9L67,50.9z M29.2,50.9h-8l-2.3-7.4l-2.3,7.4
		h-8l6.3,4.6L12.6,63l6.3-4.6l6.3,4.6l-2.3-7.4L29.2,50.9L29.2,50.9z M218.7,13.7h-7.4l-2.9-6.9l-2.3,6.9h-7.4l6.3,4.6l-2.9,8
		l6.3-5.2l6.3,4.6l-2.3-7.4L218.7,13.7L218.7,13.7z M180.9,13.7h-8l-2.3-6.9l-2.3,6.9h-8l6.3,4.6l-2.3,8l6.3-5.2l6.3,4.6l-2.3-7.4
		L180.9,13.7L180.9,13.7z M142.5,13.7h-7.4l-2.3-6.9l-2.3,6.9h-8l6.3,4.6l-2.9,8l6.9-5.2l6.3,4.6l-2.3-7.4L142.5,13.7L142.5,13.7z
		 M104.7,13.7h-7.4L95,6.9l-2.9,6.9h-7.4l6.3,4.6l-2.9,8l6.9-5.2l6.3,4.6l-2.9-7.4L104.7,13.7L104.7,13.7z M67,13.7h-7.4l-2.9-6.9
		l-2.3,6.9h-7.4l6.3,4.6l-2.9,8l6.3-5.2l6.3,4.6l-2.3-7.4L67,13.7z"/>
	<path fill-rule="evenodd" clip-rule="evenodd" fill="#FF373C" d="M229.5,0h308.5v25.8H229.5V0L229.5,0z M229.5,50.9h308.5v25.8
		H229.5V50.9L229.5,50.9z M229.5,101.9h308.5v25.8H229.5V101.9L229.5,101.9z M229.5,152.8h308.5v25.8H229.5V152.8L229.5,152.8z
		 M538.1,203.8v25.8H0v-25.8H538.1L538.1,203.8z M538.1,254.7v25.8H0v-25.8H538.1L538.1,254.7z M538.1,305.7v25.8H0v-25.8H538.1z"/>
</g>
<path fill="#331A0A" d="M308.3,399h-8.1c0,0-3.1,10.2,7.3,10.8h13.6c0,0,3-6.4-5.1-6.9C316,402.9,309,401.7,308.3,399z"/>
<path fill="#331A0A" d="M252,399h8.1c0,0,3.1,10.2-7.3,10.8h-13.6c0,0-3-6.4,5.1-6.9C244.2,402.9,251.2,401.7,252,399z"/>
<polygon fill="#231F20" points="305,224.6 308.3,399 296,399 273.6,254.3 263.7,397.8 248.6,397.8 245.5,223.8 "/>
<path fill="#231F20" d="M327.7,113.1c0,0-40.1-16.4-102.6,0L244,223.8c0,0,23.6,1.9,63.1,0L327.7,113.1z"/>
<path fill="#A97C50" d="M342.3,244.7c5.9,22.9-4.1,24.5-7.8,23.8s-2.5-13.6-2.5-13.6s0,5.5-2.8,4.9c-2.8-0.6-3.1-6.9-3.1-6.9
	s-1.4-10.5,5.8-11.9C339,239.5,342.3,244.7,342.3,244.7z"/>
<polygon fill="#231F20" points="327.7,113.1 342.3,246.4 327.2,246.4 315.2,160.1 "/>
<path fill="#231F20" d="M307.1,222v43.9c0,0-29.6-0.2-33.8-43C273.3,222.8,287.4,205.2,307.1,222z"/>
<path fill="#231F20" d="M243.1,222v43.9c0,0,29.6-0.2,33.8-43C276.9,222.8,262.7,205.2,243.1,222z"/>
<path fill="#414042" d="M275.3,170.8l-27.5-20.4l7.8-14l-18.3-3c0,0,0.7-26.5,35.5-27.4L275.3,170.8z"/>
<path fill="#414042" d="M275.3,170.8l31.3-22l-7.8-14l18.3-3c0,0-0.7-26.5-35.5-27.4L275.3,170.8z"/>
<path fill="#BCBEC0" d="M295.1,112.6l-19.8,58.2l-19.7-56.2C255.7,114.7,275.6,101.6,295.1,112.6z"/>
<polygon fill="#2B3990" points="278.3,119 270.1,119 269.4,124.7 279.7,124.7 "/>
<polygon fill="#2B3990" points="278.1,124.7 282,151.1 275.3,170.8 268.8,152.2 271.6,124.7 "/>
<path fill="#A97C50" d="M258.6,51.2l-1.7,42.3l6.4,0.3l-0.6,13.9c0,0,6.6,14.5,24.9,1l1.2-28.9c0,0,5.4-0.9,5.7-7
	c0.3-6.2-6-3.5-6-3.5l0.7-16.9L258.6,51.2z"/>
<path fill="#414042" d="M288.5,69.4l-1.6,3.4h-2.7V60.2c0,0-5.2-8.9-25.5-8.9c0,0-0.9-3.1,1.4-5.1c8.9-7.3,33.8-4.7,32.9,10
	L292.7,69C292.7,69,289.4,67.5,288.5,69.4z"/>
<path fill="#A97C50" d="M284.2,67.6v-7.4l2.5-2.2c0,0-8.7-11.8-28-6.7"/>
<polygon fill="#603913" points="337.1,409.7 234.8,409.7 220.9,187.9 351.1,187.9 "/>
<polygon fill="#231F20" points="179.7,71.6 196.6,137.6 234,147.8 227.3,113.1 209.3,114.5 192.9,69.6 "/>
<path fill="#A97C50" d="M178,69.6c-5.5-26.1,5.9-27.3,10-26.4c4.1,0.9,2.1,15.4,2.1,15.4s0.3-6.1,3.4-5.4c3.1,0.8,3.1,8,3.1,8
	s1,11.9-7.1,13.1S178,69.6,178,69.6z"/>
<path fill="#58595B" d="M284.2,63.9v8.9h2.7c0,0,1.5-4.5,5.9-3.7v-5.7l-3.3,2.3l-1-4.4l-1.8,3.6l-2.5-3.6V63.9z"/>
<rect x="213.1" y="181.8" fill-rule="evenodd" clip-rule="evenodd" fill="#3C2415" width="144" height="7.7"/>
</svg>
