<?xml version="1.0" encoding="utf-8"?>
<!-- Generator: Adobe Illustrator 18.1.1, SVG Export Plug-In . SVG Version: 6.00 Build 0)  -->
<svg version="1.1" id="Layer_1" xmlns="http://www.w3.org/2000/svg" xmlns:xlink="http://www.w3.org/1999/xlink" x="0px" y="0px"
	 viewBox="0 0 302.3 272.5" enable-background="new 0 0 302.3 272.5" xml:space="preserve">
<rect x="141.3" y="139" fill="#3D3E3F" width="24.3" height="133.5"/>
<rect x="16.9" y="129.9" fill="#131215" width="271.2" height="15.2"/>
<rect x="32.3" y="129.8" fill="#686769" width="2.1" height="15.2"/>
<rect x="54.1" y="129.8" fill="#686769" width="2.1" height="15.2"/>
<rect x="76" y="129.8" fill="#686769" width="2.1" height="15.2"/>
<rect x="97.8" y="129.8" fill="#686769" width="2.1" height="15.2"/>
<rect x="119.6" y="129.8" fill="#686769" width="2.1" height="15.2"/>
<rect x="141.5" y="129.8" fill="#686769" width="2.1" height="15.2"/>
<rect x="163.3" y="129.8" fill="#686769" width="2.1" height="15.2"/>
<rect x="185.2" y="129.8" fill="#686769" width="2.1" height="15.2"/>
<rect x="207" y="129.8" fill="#686769" width="2.1" height="15.2"/>
<rect x="228.9" y="129.8" fill="#686769" width="2.1" height="15.2"/>
<rect x="250.7" y="129.8" fill="#686769" width="2.1" height="15.2"/>
<rect x="272.5" y="129.8" fill="#686769" width="2.1" height="15.2"/>
<rect x="0" y="144.5" fill="#E1E0DE" width="302.3" height="4.1"/>
<rect x="26.6" y="141.4" fill="#4D4C4B" width="23.1" height="4.9"/>
<rect x="83.7" y="141.4" fill="#4D4C4B" width="23.1" height="4.9"/>
<rect x="140.7" y="141.4" fill="#4D4C4B" width="23.1" height="4.9"/>
<rect x="197.8" y="141.4" fill="#4D4C4B" width="23.1" height="4.9"/>
<rect x="254.8" y="141.4" fill="#4D4C4B" width="23.1" height="4.9"/>
<rect x="9.7" y="0" fill="#BA252B" width="285.2" height="135.9"/>
<g>
	<rect x="7.6" y="0.9" fill="#CD0014" width="287.3" height="132.7"/>
	<path fill="#FFFFFF" d="M246.2,105.9c-30.7,5.6-61.5,10.3-93.1,10.9c-25.6,0.5-50.8-1.6-75.5-6.9c-24.7-5.3-47.4-14.4-68.9-25.4
		c-0.4-0.2-0.4-0.4-1-0.6L7.4,112c1.1,0.3,2.4,0.6,3.4,1c26.4,9.1,54.1,12.7,82.7,12.2c18.5-0.3,36.9-2,55.3-4.2
		c30.2-3.5,60.1-8.3,90.5-10c14.4-0.8,28.8-0.9,43,1.2c4.2,0.6,8.6,1.4,12.6,2c0.1-4.3,0.1-8.6,0.2-12.9
		C278.4,100.5,262.3,103,246.2,105.9z"/>
	<g>
		<path fill="#FFFFFF" d="M61.7,57.5c0,3.9-1.5,7.6-4.6,11.2c-3.2,3.7-6.7,5.6-10.5,5.6c-1.9,0-3.9-0.5-5.9-1.4
			c-2.2,1-4.4,1.6-6.6,1.6c-1.4,0-2.6-0.2-3.7-0.5c-1.6-0.5-2.4-1.3-2.4-2.4c0-1.7,1.6-2.5,4.7-2.5c1.7,0,4,0.5,7,1.6
			c1.5-1.5,3.4-4.5,5.6-9c3-6,6.2-10.4,9.5-13.1c-1.6-1.2-3.6-2-6-2.3c-1-0.1-1.5-0.2-1.6-0.2c-3.5,0-6.8,1.7-10,5
			c-2.1,2.1-3.1,4.1-3.1,6c0,0.8,0.2,1.6,0.7,2.2c0.5,0.6,1.1,0.9,1.9,0.9c2.1,0,3.8-0.9,5.3-2.7c1.4-1.7,2.1-3.6,2.1-5.7
			c0-0.6-0.2-0.9-0.7-0.9c-0.6,0-1.1,0.6-1.7,1.9c-0.5,1-0.8,1.8-0.9,2.6c-0.6,0.3-1.3,0.7-1.9,1.1L37,57.7
			c-0.1-0.2-0.1-0.4-0.2-0.6c0-2.1,0.5-3.9,1.6-5.5c1.2-1.8,2.8-2.7,4.8-2.7c1.7,0,2.6,1.2,2.6,3.5v0.4c0,2.3-0.7,4.3-2.2,6
			c-1.5,1.7-3.4,2.6-5.7,2.6c-1.4,0-2.5-0.4-3.4-1.2c-0.9-0.8-1.3-1.8-1.3-3.2c0-1.2,0.4-2.4,1.2-3.8c1.6-2.7,3.6-4.8,6-6.2
			c2.5-1.5,5.3-2.3,8.3-2.3c1.4,0,2.7,0.3,3.8,0.8c0.7,0.4,1.8,1.1,3.3,2.2c1.5-1,2.5-1.5,3.1-1.5c0.3,0,0.5,0.1,0.5,0.4
			c0,0.1-0.4,0.4-1.2,1c-1,0.6-1.5,0.9-1.5,1C60.1,50.7,61.7,53.7,61.7,57.5z M38.6,71.8c-2.3-1.1-4.4-1.7-6.5-1.7
			c-1.8,0-2.7,0.5-2.7,1.4c0,0.6,0.6,1.1,1.8,1.5c0.8,0.2,1.7,0.3,2.5,0.3C35.8,73.3,37.5,72.8,38.6,71.8z M58.4,57.4
			c0-2.9-0.8-5.5-2.5-7.8c-0.9,1.3-1.9,3.8-3,7.5c-1.1,3.9-2.2,6.7-3.2,8.4c-1.4,2.5-3.6,4.6-6.5,6.3c1.4,0.7,2.7,1.1,3.8,1.1
			c3.3,0,6.1-1.8,8.4-5.4C57.5,64.3,58.4,60.9,58.4,57.4z"/>
		<path fill="#FFFFFF" d="M70.5,62.1c0,1.8-0.9,3.3-2.8,4.6c-1.5,1.1-3.2,1.8-5.2,2.2c-0.4,1-0.6,1.7-0.6,2.2c0,0.6,0.2,0.9,0.7,0.9
			c1.1,0,2.1-0.5,3.2-1.4c0.5-0.4,1.3-1.3,2.4-2.5c0.8-0.9,1.4-1.4,1.7-1.4c0.1,0,0.2,0.1,0.2,0.2c0,0.3-0.8,1.4-2.3,3.3
			c-2.2,2.7-4.4,4-6.6,4c-2.1,0-3.2-1-3.2-3c0-2.5,1.1-5,3.2-7.7c2.3-2.8,4.6-4.2,7-4.2C69.7,59.4,70.5,60.3,70.5,62.1z M68.9,61.7
			c0-0.4-0.1-0.7-0.2-0.9c-0.1-0.1-0.2-0.1-0.3-0.1c-0.8,0-1.9,1-3.2,3.1c-1,1.5-1.8,3-2.4,4.3c1.4-0.4,2.8-1.2,4-2.4
			C68.2,64.4,68.9,63.1,68.9,61.7z"/>
		<path fill="#FFFFFF" d="M80.5,67.2c0,1.8-0.8,3.5-2.4,5c-1.6,1.6-3.3,2.3-5.1,2.3c-1.1,0-2.1-0.3-2.9-0.8c-1-0.6-1.4-1.4-1.4-2.4
			c0-0.6,0.2-1.1,0.6-1.5c0.4-0.4,0.9-0.6,1.5-0.6c1.1,0,1.7,0.6,1.7,1.8c0,0.4-0.1,0.8-0.4,1.1c-0.3,0.3-0.6,0.5-1,0.5
			c-0.3,0-0.5,0-0.6,0c0.5,0.5,1,0.7,1.6,0.7c1.5,0,2.7-1.3,3.5-3.8c0.5-1.8,0.8-3.7,0.8-5.8v-1.2c-0.3,0.2-1.1,1-2.6,2.3
			c-1.5,1.4-2.3,2.1-2.4,2.1c-0.3,0-0.4-0.1-0.4-0.4c0-0.2,0.6-0.9,1.9-2.1c0.8-0.8,1.7-1.5,2.5-2.3c0.9-0.9,1.7-1.8,2.2-2.6
			c0.4-0.7,0.7-1,1-1c0.4,0,0.6,0.2,0.6,0.5c0,0.1-0.2,0.4-0.6,0.9c-0.4,0.5-0.6,0.9-0.6,1.2c0,0.2,0.4,1,1.4,2.5
			C80.1,65,80.5,66.2,80.5,67.2z"/>
		<path fill="#FFFFFF" d="M94.4,48.8l-3,5.7h2.8l-0.3,1h-3.3l-6.3,12c-0.4,0.9-0.7,1.8-0.7,2.9l0.4,0.9c0.1,0,0.2,0,0.2,0
			c0.5,0,1.3-0.6,2.3-1.8c1-1.2,1.7-1.8,2-1.8c0.1,0,0.2,0.1,0.2,0.2c0,0.3-0.6,1.1-1.7,2.4c-2.2,2.6-3.9,4-4.9,4
			c-0.6,0-1.2-0.2-1.6-0.7c-0.4-0.5-0.6-1-0.6-1.7c0-2.1,0.7-4.6,2-7.6c0.3-0.7,1.6-3,3.8-7.1l4.6-8.4L94.4,48.8z"/>
		<path fill="#FFFFFF" d="M104.4,59.5c-0.4,1.5-1.3,3.3-2.8,5.6c-1.6,2.5-2.6,4.3-3,5.4l0.3,0.2c1-0.3,1.9-1.1,2.7-2.3
			c0.8-1.2,1.3-1.8,1.4-1.9h0.2c0.1,0.1,0.2,0.3,0.2,0.4c0,1-0.9,2.5-2.7,4.3c-1.8,1.8-3.2,2.7-4.2,2.7c-0.8,0-1.4-0.2-1.7-0.6
			c-0.1-0.1-0.3-0.7-0.6-1.7c-0.9,1.5-2,2.3-3.5,2.3c-0.7,0-1.3-0.3-1.8-0.9c-0.5-0.6-0.8-1.2-0.8-1.9c0-1.9,1.3-4.4,3.9-7.4
			c2.6-3,4.8-4.5,6.7-4.5c0.2,0,0.6,0.1,1.1,0.4c0.5,0.3,0.8,0.4,1.1,0.4c0.2-0.1,0.2-0.2,0.3-0.5c0.3-0.2,0.8-0.3,1.6-0.3
			C103.4,59.4,104,59.4,104.4,59.5z M100,61.3c-0.1-0.3-0.3-0.5-0.7-0.5c-0.4,0-0.7,0.2-1.1,0.5v0c-1.2,1-2.4,2.4-3.6,4.1
			c-1.3,2-2,3.6-2,4.9c0,0.5,0.2,0.8,0.6,0.8c0.6,0,1.8-1.4,3.7-4.3C98.6,64.1,99.6,62.3,100,61.3z"/>
		<path fill="#FFFFFF" d="M116.5,63.3c0,2.1-1,4.4-2.9,6.9c-2,2.6-4,3.9-6.1,3.9c-0.2,0-0.6-0.1-1-0.4c-0.5-0.3-0.9-0.4-1.1-0.4
			c-0.1,0.3-0.6,1.1-1.2,2.4l-3.2,5.7l-3.7,0.5l7.7-14c0.1-0.1,0.6-1,1.7-2.7c0.7-1.1,1.1-2,1.4-2.8l-0.3-0.2c-1,0.3-1.9,1-2.6,2.2
			c-0.8,1.2-1.3,1.9-1.5,2h-0.2c-0.1-0.1-0.2-0.3-0.2-0.4c0-1,0.9-2.5,2.7-4.3c1.8-1.8,3.2-2.7,4.2-2.7c1,0,1.7,0.3,1.9,0.8
			c0.1,0.3,0.3,0.8,0.5,1.4c0.1,0.1,0.1,0.1,0.3,0.1c0.2,0,0.5-0.1,0.9-0.2c0.4-0.1,0.7-0.2,0.9-0.2
			C115.8,60.8,116.5,61.7,116.5,63.3z M113,64c0-0.4-0.1-0.9-0.2-1.4l0,0c0-0.4-0.2-0.6-0.6-0.7c-0.4,0.2-0.9,0.8-1.5,1.9
			c-0.3,0.5-0.7,1.3-1.3,2.3c-0.6,1-1.2,2-1.8,3c-0.7,1.2-1.2,2.2-1.6,3c0.1,0.3,0.3,0.5,0.7,0.5c0.4,0,0.7-0.2,1.1-0.5v0
			c1.2-1,2.3-2.2,3.3-3.7C112.4,66.8,113,65.3,113,64z"/>
		<path fill="#FFFFFF" d="M130.9,59.5c-0.4,1.5-1.3,3.3-2.8,5.6c-1.6,2.5-2.6,4.3-3,5.4l0.3,0.2c1-0.3,1.9-1.1,2.7-2.3
			c0.8-1.2,1.3-1.8,1.4-1.9h0.2c0.1,0.1,0.2,0.3,0.2,0.4c0,1-0.9,2.5-2.7,4.3c-1.8,1.8-3.2,2.7-4.2,2.7c-0.8,0-1.4-0.2-1.7-0.6
			c-0.1-0.1-0.3-0.7-0.6-1.7c-0.9,1.5-2,2.3-3.5,2.3c-0.7,0-1.3-0.3-1.8-0.9c-0.5-0.6-0.8-1.2-0.8-1.9c0-1.9,1.3-4.4,3.9-7.4
			c2.6-3,4.8-4.5,6.7-4.5c0.2,0,0.6,0.1,1.1,0.4c0.5,0.3,0.8,0.4,1.1,0.4c0.2-0.1,0.2-0.2,0.3-0.5c0.3-0.2,0.8-0.3,1.6-0.3
			C129.9,59.4,130.5,59.4,130.9,59.5z M126.5,61.3c-0.1-0.3-0.3-0.5-0.7-0.5c-0.4,0-0.7,0.2-1.1,0.5v0c-1.2,1-2.4,2.4-3.6,4.1
			c-1.3,2-2,3.6-2,4.9c0,0.5,0.2,0.8,0.6,0.8c0.6,0,1.8-1.4,3.7-4.3C125.1,64.1,126.1,62.3,126.5,61.3z"/>
		<path fill="#FFFFFF" d="M156.7,46.6c0,0.9-0.3,1.8-0.9,2.9c-2.4,4.3-6,8.5-10.7,12.6c-0.8,0.7-2,1.7-3.7,3
			c-0.4,0.3-0.7,1.1-1.2,2.5c-0.4,1.2-0.6,2.2-0.6,2.8l0.4,0.9c0.1,0,0.2,0,0.2,0c0.5,0,1.3-0.6,2.3-1.8c1-1.2,1.7-1.8,2-1.8
			c0.1,0,0.2,0.1,0.2,0.2c0,0.3-0.6,1.1-1.7,2.4c-2.2,2.6-3.9,4-4.9,4c-0.6,0-1.2-0.2-1.6-0.7c-0.4-0.5-0.6-1-0.6-1.7
			c0-1.6,0.4-3.6,1.3-5.9c1.6-4.4,4-8.6,7.2-12.9c4-5.2,7.4-7.9,10.1-7.9C156.1,45.3,156.7,45.8,156.7,46.6z M155.6,47.3
			c-0.3-0.5-0.5-0.8-0.6-0.8c-1.7,0-4.2,2.4-7.5,7.2c-2.8,4.1-4.6,7.3-5.6,9.9c2.1-1.4,4.8-3.9,8-7.5
			C153.4,52.2,155.3,49.2,155.6,47.3z"/>
		<path fill="#FFFFFF" d="M160.6,59.5c-0.4,1.5-1.3,3.3-2.8,5.6c-1.6,2.5-2.6,4.3-3,5.4l0.3,0.2c1-0.3,1.9-1.1,2.7-2.3
			c0.8-1.2,1.3-1.8,1.4-1.9h0.2c0.1,0.1,0.2,0.3,0.2,0.4c0,1-0.9,2.5-2.7,4.3c-1.8,1.8-3.2,2.7-4.2,2.7c-0.8,0-1.4-0.2-1.7-0.6
			c-0.1-0.1-0.3-0.7-0.6-1.7c-0.9,1.5-2,2.3-3.5,2.3c-0.7,0-1.3-0.3-1.8-0.9c-0.5-0.6-0.8-1.2-0.8-1.9c0-1.9,1.3-4.4,3.9-7.4
			c2.6-3,4.8-4.5,6.7-4.5c0.2,0,0.6,0.1,1.1,0.4c0.5,0.3,0.8,0.4,1.1,0.4c0.2-0.1,0.2-0.2,0.3-0.5c0.3-0.2,0.8-0.3,1.6-0.3
			C159.6,59.4,160.2,59.4,160.6,59.5z M156.2,61.3c-0.1-0.3-0.3-0.5-0.7-0.5c-0.4,0-0.7,0.2-1.1,0.5v0c-1.2,1-2.4,2.4-3.6,4.1
			c-1.3,2-2,3.6-2,4.9c0,0.5,0.2,0.8,0.6,0.8c0.6,0,1.8-1.4,3.7-4.3C154.8,64.1,155.8,62.3,156.2,61.3z"/>
		<path fill="#FFFFFF" d="M187.1,46.6c0,2.1-2.1,5.5-6.2,10c-3.3,3.7-6.4,6.5-9.1,8.5l-0.2,0.3c1.3-0.1,2.5-0.5,3.5-1.3
			c0.4-0.3,0.9-0.7,1.6-1.3l0,0.1c-0.2,0.5-0.6,1.2-1.4,2.2c-1.4,1.8-3.1,2.7-5,2.8l-6.8,13.2l-3.7,0.5l5.3-10.5
			c0.5-0.9,1.3-2.6,2.5-5l0.5-1.3c0.3-0.8,0.7-1.8,1.3-2.9c1.6-3.4,3.8-6.7,6.5-10c3.6-4.4,6.6-6.5,9.1-6.5
			C186.4,45.3,187.1,45.8,187.1,46.6z M186,47.3c-0.3-0.5-0.5-0.8-0.6-0.8c-1.7,0-4.2,2.4-7.5,7.2c-2.8,4.1-4.6,7.4-5.6,9.9
			c2.1-1.4,4.8-3.9,8-7.5C183.7,52.2,185.6,49.2,186,47.3z"/>
		<path fill="#FFFFFF" d="M186.3,62.1c0,1.8-0.9,3.3-2.8,4.6c-1.5,1.1-3.2,1.8-5.2,2.2c-0.4,1-0.6,1.7-0.6,2.2
			c0,0.6,0.2,0.9,0.7,0.9c1.1,0,2.1-0.5,3.2-1.4c0.5-0.4,1.3-1.3,2.4-2.5c0.8-0.9,1.4-1.4,1.7-1.4c0.1,0,0.2,0.1,0.2,0.2
			c0,0.3-0.8,1.4-2.3,3.3c-2.2,2.7-4.4,4-6.6,4c-2.1,0-3.2-1-3.2-3c0-2.5,1.1-5,3.2-7.7c2.3-2.8,4.6-4.2,7-4.2
			C185.6,59.4,186.3,60.3,186.3,62.1z M184.7,61.7c0-0.4-0.1-0.7-0.2-0.9c-0.1-0.1-0.2-0.1-0.3-0.1c-0.8,0-1.9,1-3.2,3.1
			c-1,1.5-1.8,3-2.4,4.3c1.4-0.4,2.8-1.2,4-2.4C184,64.4,184.7,63.1,184.7,61.7z"/>
		<path fill="#FFFFFF" d="M206.2,46.6c0,0.9-0.3,1.8-0.9,2.9c-2.4,4.3-6,8.5-10.7,12.6c-0.8,0.7-2,1.7-3.7,3
			c-0.4,0.3-0.7,1.1-1.2,2.5c-0.4,1.2-0.6,2.2-0.6,2.8l0.4,0.9c0.1,0,0.2,0,0.2,0c0.5,0,1.3-0.6,2.3-1.8c1-1.2,1.7-1.8,2-1.8
			c0.1,0,0.2,0.1,0.2,0.2c0,0.3-0.6,1.1-1.7,2.4c-2.2,2.6-3.9,4-4.9,4c-0.6,0-1.2-0.2-1.6-0.7c-0.4-0.5-0.6-1-0.6-1.7
			c0-1.6,0.4-3.6,1.3-5.9c1.6-4.4,4-8.6,7.2-12.9c4-5.2,7.4-7.9,10.1-7.9C205.5,45.3,206.2,45.8,206.2,46.6z M205,47.3
			c-0.3-0.5-0.5-0.8-0.6-0.8c-1.7,0-4.2,2.4-7.5,7.2c-2.8,4.1-4.6,7.3-5.6,9.9c2.1-1.4,4.8-3.9,8-7.5
			C202.8,52.2,204.7,49.2,205,47.3z"/>
		<path fill="#FFFFFF" d="M203.2,67.2c0,1.1-0.9,2.6-2.7,4.4c-1.8,1.8-3.3,2.7-4.5,2.7c-1.2,0-1.8-0.8-1.8-2.5c0-0.9,0.3-2,1-3.2
			l1.7-3c0.2-0.5,0.9-2,2-4.6h4c-2.1,3.6-3.6,6.8-4.6,9.7l0.4,0.3c1-0.3,1.8-1,2.4-2.1c0.7-1.2,1.3-1.9,1.7-2.1h0.2
			C203.2,66.9,203.2,67.1,203.2,67.2z M205.1,56.2c0,0.9-0.2,1.5-0.5,1.8c-0.3,0.3-0.9,0.4-1.8,0.4c-1,0-1.5-0.3-1.5-0.8v-1.7
			c0-0.3,0.3-0.7,1-1c0.6-0.3,1.1-0.5,1.5-0.5C204.7,54.5,205.1,55.1,205.1,56.2z"/>
		<path fill="#FFFFFF" d="M215.1,61.5c0,0.7-0.3,1.5-0.8,2.2c-0.6,0.9-1.2,1.3-1.9,1.3c-0.1,0-0.4-0.1-0.7-0.4
			c-0.1-0.3-0.2-0.5-0.2-0.6c0-0.6,0.3-1.1,0.8-1.7c0.6-0.5,1.1-0.7,1.7-0.6c0-0.4-0.3-0.6-1-0.6c-1.2,0-2.7,1.4-4.3,4.1
			c-1.6,2.6-2.4,4.6-2.4,6c0,0.6,0.2,0.9,0.7,0.9c1.1,0,2.1-0.5,3.2-1.4c0.5-0.4,1.3-1.3,2.4-2.5c0.8-0.9,1.4-1.4,1.7-1.4
			c0.1,0,0.2,0.1,0.2,0.2c0,0.3-0.8,1.4-2.3,3.3c-2.2,2.7-4.4,4-6.6,4c-2.1,0-3.2-1-3.2-3c0-0.7,0.2-1.7,0.6-2.9
			c0.4-1.1,0.8-2,1.2-2.7c2.7-4.2,5.6-6.3,8.7-6.3c0.6,0,1.1,0.2,1.6,0.6C214.9,60.4,215.1,60.9,215.1,61.5z"/>
		<path fill="#FFFFFF" d="M222.2,67.2c0,1.1-0.9,2.6-2.7,4.4c-1.8,1.8-3.3,2.7-4.5,2.7c-1.2,0-1.8-0.8-1.8-2.5c0-0.9,0.3-2,1-3.2
			l1.7-3c0.2-0.5,0.9-2,2-4.6h4c-2.1,3.6-3.6,6.8-4.6,9.7l0.4,0.3c1-0.3,1.8-1,2.4-2.1c0.7-1.2,1.3-1.9,1.7-2.1h0.2
			C222.2,66.9,222.2,67.1,222.2,67.2z M224.1,56.2c0,0.9-0.2,1.5-0.5,1.8c-0.3,0.3-0.9,0.4-1.8,0.4c-1,0-1.5-0.3-1.5-0.8v-1.7
			c0-0.3,0.3-0.7,1-1c0.6-0.3,1.1-0.5,1.5-0.5C223.6,54.5,224.1,55.1,224.1,56.2z"/>
		<path fill="#FFFFFF" d="M242.7,48.9c-0.6,1.6-1.7,4-3.2,7.2c-0.7,1.4-1.4,2.9-2.1,4.5c-0.8,1.7-1.6,3.1-2.4,4.3
			c-1.5,2.3-2.5,4.1-3.1,5.6l0.3,0.2c1-0.3,1.9-1.1,2.6-2.2c0.7-1.1,1.2-1.8,1.5-2h0.2c0.1,0.1,0.2,0.3,0.2,0.4c0,1-0.9,2.5-2.7,4.3
			c-1.8,1.8-3.2,2.7-4.2,2.7c-0.8,0-1.4-0.2-1.7-0.6c-0.1-0.1-0.3-0.7-0.6-1.7c-0.9,1.5-2,2.3-3.5,2.3c-0.7,0-1.3-0.3-1.8-0.9
			c-0.5-0.6-0.8-1.2-0.8-1.9c0-2.2,1.8-5.1,5.3-8.8c1.9-2,3.6-3,5.2-3c0.2,0,0.6,0.1,1.1,0.4c0.5,0.3,0.9,0.4,1.1,0.4
			c0.1-0.1,0.2-0.2,0.3-0.5c0.1-0.4,0.5-1.5,1.3-3.4c1.4-3.4,2.6-6.1,3.6-8l2.1-0.1C242,48.2,242.4,48.5,242.7,48.9z M233.4,61.3
			c-0.1-0.3-0.3-0.5-0.7-0.5c-0.4,0-0.7,0.2-1.1,0.5v0c-1.2,1-2.4,2.4-3.6,4.1c-1.3,2-2,3.6-2,4.9c0,0.5,0.2,0.8,0.6,0.8
			c0.6,0,1.8-1.4,3.7-4.3C232,64.1,233,62.3,233.4,61.3z"/>
		<path fill="#FFFFFF" d="M252.8,59.5c-0.4,1.5-1.3,3.3-2.8,5.6c-1.6,2.5-2.6,4.3-3,5.4l0.3,0.2c1-0.3,1.9-1.1,2.7-2.3
			c0.8-1.2,1.3-1.8,1.4-1.9h0.2c0.1,0.1,0.2,0.3,0.2,0.4c0,1-0.9,2.5-2.7,4.3c-1.8,1.8-3.2,2.7-4.2,2.7c-0.8,0-1.4-0.2-1.7-0.6
			c-0.1-0.1-0.3-0.7-0.6-1.7c-0.9,1.5-2,2.3-3.5,2.3c-0.7,0-1.3-0.3-1.8-0.9c-0.5-0.6-0.8-1.2-0.8-1.9c0-1.9,1.3-4.4,3.9-7.4
			c2.6-3,4.8-4.5,6.7-4.5c0.2,0,0.6,0.1,1.1,0.4c0.5,0.3,0.8,0.4,1.1,0.4c0.2-0.1,0.2-0.2,0.3-0.5c0.3-0.2,0.8-0.3,1.6-0.3
			C251.8,59.4,252.4,59.4,252.8,59.5z M248.5,61.3c-0.1-0.3-0.3-0.5-0.7-0.5c-0.4,0-0.7,0.2-1.1,0.5v0c-1.2,1-2.4,2.4-3.6,4.1
			c-1.3,2-2,3.6-2,4.9c0,0.5,0.2,0.8,0.6,0.8c0.6,0,1.8-1.4,3.7-4.3C247.1,64.1,248.1,62.3,248.5,61.3z"/>
		<path fill="#FFFFFF" d="M273.1,48.9c-0.6,1.6-1.7,4-3.2,7.2c-0.7,1.4-1.4,2.9-2.1,4.5c-0.8,1.7-1.6,3.1-2.4,4.3
			c-1.5,2.3-2.5,4.1-3.1,5.6l0.3,0.2c1-0.3,1.9-1.1,2.6-2.2c0.7-1.1,1.2-1.8,1.5-2h0.2c0.1,0.1,0.2,0.3,0.2,0.4c0,1-0.9,2.5-2.7,4.3
			c-1.8,1.8-3.2,2.7-4.2,2.7c-0.8,0-1.4-0.2-1.7-0.6c-0.1-0.1-0.3-0.7-0.6-1.7c-0.9,1.5-2,2.3-3.5,2.3c-0.7,0-1.3-0.3-1.8-0.9
			c-0.5-0.6-0.8-1.2-0.8-1.9c0-2.2,1.8-5.1,5.3-8.8c1.9-2,3.6-3,5.2-3c0.2,0,0.6,0.1,1.1,0.4s0.9,0.4,1.1,0.4
			c0.1-0.1,0.2-0.2,0.3-0.5c0.1-0.4,0.5-1.5,1.3-3.4c1.4-3.4,2.6-6.1,3.6-8l2.1-0.1C272.3,48.2,272.8,48.5,273.1,48.9z M263.7,61.3
			c-0.1-0.3-0.3-0.5-0.7-0.5c-0.4,0-0.7,0.2-1.1,0.5v0c-1.2,1-2.4,2.4-3.6,4.1c-1.3,2-2,3.6-2,4.9c0,0.5,0.2,0.8,0.6,0.8
			c0.6,0,1.8-1.4,3.7-4.3C262.3,64.1,263.3,62.3,263.7,61.3z"/>
	</g>
</g>
</svg>
