<?xml version="1.0" encoding="utf-8"?>
<!-- Generator: Adobe Illustrator 18.1.1, SVG Export Plug-In . SVG Version: 6.00 Build 0)  -->
<svg version="1.1" id="Layer_1" xmlns="http://www.w3.org/2000/svg" xmlns:xlink="http://www.w3.org/1999/xlink" x="0px" y="0px"
	 viewBox="0 0 300.2 272.5" enable-background="new 0 0 300.2 272.5" xml:space="preserve">
<rect x="139.3" y="139" fill="#3D3E3F" width="24.3" height="133.5"/>
<rect x="14.9" y="129.9" fill="#131215" width="271.2" height="15.2"/>
<rect x="30.2" y="129.8" fill="#686769" width="2.1" height="15.2"/>
<rect x="52" y="129.8" fill="#686769" width="2.1" height="15.2"/>
<rect x="73.9" y="129.8" fill="#686769" width="2.1" height="15.2"/>
<rect x="95.7" y="129.8" fill="#686769" width="2.1" height="15.2"/>
<rect x="117.6" y="129.8" fill="#686769" width="2.1" height="15.2"/>
<rect x="139.4" y="129.8" fill="#686769" width="2.1" height="15.2"/>
<rect x="161.3" y="129.8" fill="#686769" width="2.1" height="15.2"/>
<rect x="183.1" y="129.8" fill="#686769" width="2.1" height="15.2"/>
<rect x="204.9" y="129.8" fill="#686769" width="2.1" height="15.2"/>
<rect x="226.8" y="129.8" fill="#686769" width="2.1" height="15.2"/>
<rect x="248.6" y="129.8" fill="#686769" width="2.1" height="15.2"/>
<rect x="270.5" y="129.8" fill="#686769" width="2.1" height="15.2"/>
<rect x="5" y="144.7" fill="#E1E0DE" width="295.2" height="3.9"/>
<rect x="24.6" y="141.4" fill="#4D4C4B" width="23.1" height="4.9"/>
<rect x="81.6" y="141.4" fill="#4D4C4B" width="23.1" height="4.9"/>
<rect x="138.7" y="141.4" fill="#4D4C4B" width="23.1" height="4.9"/>
<rect x="195.7" y="141.4" fill="#4D4C4B" width="23.1" height="4.9"/>
<rect x="252.7" y="141.4" fill="#4D4C4B" width="23.1" height="4.9"/>
<rect x="7.6" y="0" fill="#BA252B" width="285.2" height="135.9"/>
<g>
	<rect x="7.7" y="0.2" fill="#CD0014" width="285.1" height="131.7"/>
	<g>
		<g>
			<g id="KRyJ1s.tif_17_">
				<g>
					<path fill="#FFFFFF" d="M113.9,40.6c0.3,0.1,0.6,0.2,0.9,0.4c0.7,0.4,1,1,1.1,1.7c0.1,0.7-0.1,1.4-0.4,2
						c-0.2,0.4-0.5,0.9-0.8,1.3c-0.3,0.4-0.7,0.6-1.2,0.7c-0.5,0.1-0.8-0.2-0.9-0.7c0-0.4,0-0.8,0.2-1.1c0.3-0.6,0.7-1.1,1.4-1.3
						c0.1,0,0.3-0.1,0.4-0.1c0.2,0,0.3-0.1,0.3-0.2c0.2-0.7-0.2-1.3-1-1.3c-0.4,0-0.8,0.1-1.1,0.2c-1.5,0.5-2.8,1.4-3.9,2.4
						c-3.7,3.4-6.6,7.3-8.7,11.9c-0.7,1.6-1.3,3.3-1.6,5c-0.2,1.2-0.2,2.4,0.1,3.6c0.4,1.5,1.3,2.6,2.7,3.2c1.2,0.5,2.4,0.7,3.6,0.6
						c2-0.2,4-0.7,6-1.2c2.3-0.5,4.5-1.1,6.8-1.6c2.1-0.5,4.3-0.7,6.5-0.6c2.5,0.1,4.8,0.9,6.9,2.4c1.2,0.8,2.3,1.7,3.3,2.7
						c0.2,0.2,0.3,0.4,0.5,0.6c-0.1,0-0.1-0.1-0.2-0.1c-2-1.3-4.3-2.1-6.7-2c-1,0-2.1,0.2-2.9,0.8c-0.4,0.3-0.8,0.8-1.2,1.1
						c0,0,0,0,0,0c-0.9-1.6-2.3-2.5-4.1-2.9c-1.2-0.3-2.5-0.3-3.8-0.3c-2.2,0.1-4.3,0.7-6.5,1.3c-2,0.5-4,0.9-6,1.3
						c-1.6,0.3-3.2,0.3-4.7-0.3c-2.3-0.8-3.8-2.5-4.3-4.9c-0.1-0.5-0.1-0.9-0.2-1.4c0-0.1,0-0.1,0-0.2c0-0.4,0-0.8,0-1.3
						c0-0.3,0.1-0.7,0.1-1c0.2-1.9,0.8-3.7,1.5-5.4c1.5-3.4,3.6-6.5,6.3-9.1c1.7-1.7,3.6-3.3,5.7-4.5c1.2-0.7,2.4-1.2,3.7-1.5
						c0.4-0.1,0.9-0.1,1.3-0.2C113.3,40.6,113.6,40.6,113.9,40.6z"/>
					<path fill="#FFFFFF" d="M115.4,53.8c0.2,0,0.3,0,0.5-0.1c0.4-0.2,0.9-0.4,1.3-0.7c0.9-0.6,1.6-1.3,2.3-2.1
						c0.7-0.8,1.6-1.5,2.5-2.1c0.8-0.5,1.6-0.8,2.6-0.8c1.2,0.1,2.1,1.1,1.9,2.3c-0.1,1-0.5,1.8-1.2,2.6c-0.2,0.3-0.5,0.5-0.8,0.6
						c-0.5,0.2-1.1-0.1-1.1-0.7c0-1,0.9-2.1,2-2.2c0.1,0,0.2,0,0.2-0.1c0.2-0.4,0.1-1-0.6-1c-0.5,0-1,0.2-1.4,0.6
						c-0.8,0.6-1.5,1.3-2.1,2.1c-1.5,1.8-2.6,3.8-3.4,6c-0.2,0.5-0.3,1.1-0.2,1.7c0.1,0.9,0.8,1.3,1.7,1.1c0.8-0.2,1.4-0.7,2-1.2
						c1.3-1.2,2.4-2.5,3.4-3.8c1-1.3,1.9-2.6,2.9-3.8c1-1.2,2-2.3,3.3-3.2c0.6-0.4,1.2-0.8,1.9-0.9c0.8-0.1,1.4,0.1,1.9,0.8
						c0,0,0.1,0.1,0.1,0.1c0,0,0.1-0.1,0.1-0.1c0.2-0.4,0.5-0.5,0.9-0.5c0.7,0,1.4,0,2.1,0c0.1,0,0.2,0,0.3,0
						c-0.1,0.1-0.1,0.3-0.2,0.4c-2,3.5-4,6.9-6,10.4c-0.1,0.2-0.2,0.4-0.2,0.6c0,0.3,0.2,0.5,0.5,0.4c0.2-0.1,0.4-0.2,0.6-0.4
						c0.7-0.5,1.4-1.2,1.9-1.9c0.5-0.6,1-1.3,1.5-2c0.1-0.2,0.3-0.2,0.5-0.2c0.2,0,0.4,0,0.7,0c0,0.1,0,0.1-0.1,0.1
						c-1.2,1.8-2.5,3.6-4.1,5.1c-0.8,0.8-1.6,1.5-2.6,2c-0.5,0.2-0.9,0.3-1.4,0.2c-0.5-0.1-0.9-0.6-1-1.1c0-0.4,0-0.7,0-1.1
						c0,0.1-0.1,0.1-0.1,0.2c-0.5,0.6-1.1,1.1-1.8,1.5c-0.5,0.3-1,0.5-1.5,0.6c-1.1,0.1-1.9-0.6-1.9-1.7c0-0.7,0.1-1.3,0.3-1.9
						c0-0.1,0-0.2,0-0.3c-0.1,0.1-0.1,0.1-0.2,0.2c-0.9,0.8-1.8,1.6-2.7,2.4c-0.8,0.6-1.7,1.1-2.7,1.2c-0.5,0.1-1,0.1-1.5-0.1
						c-1.1-0.4-1.5-1.2-1.7-2.2c-0.3-1.4,0.1-2.7,0.6-3.9c0.3-0.7,0.7-1.4,1.1-2.2c0-0.1,0.1-0.1,0.1-0.3c-0.4,0.1-0.7,0.2-1.1,0.3
						c-0.3,0-0.5,0.2-0.7,0.5c-0.7,1.1-1.4,2.3-2.2,3.4c-1.1,1.4-2.3,2.8-3.9,3.8c-0.6,0.4-1.3,0.7-2.1,0.8
						c-0.8,0.1-1.6-0.4-1.9-1.1c-0.3-0.7-0.3-1.3-0.3-2c0.2-2,1-3.8,2.1-5.5c1.3-2,2.8-3.8,4.8-5.2c0.8-0.6,1.7-1.1,2.7-1.2
						c1.5-0.3,2.5,0.5,2.5,2.1c0,0.8-0.2,1.6-0.5,2.4C115.7,53,115.6,53.4,115.4,53.8z M126.7,59.7c0,0.2,0.1,0.4,0.3,0.6
						c0.2,0.1,0.4,0.1,0.6,0c0.5-0.3,1-0.6,1.3-1.1c0.5-0.7,1-1.3,1.4-2c1.4-2.3,2.7-4.7,4.1-7c0.1-0.3,0.1-0.5-0.2-0.6
						c-0.2-0.1-0.5,0-0.7,0.1c-0.5,0.2-0.9,0.5-1.2,0.9c-1,1.2-1.9,2.4-2.8,3.6c-1,1.4-1.8,2.8-2.4,4.4
						C126.9,58.9,126.8,59.3,126.7,59.7z M111,52.7c-0.1,0.1-0.1,0.1-0.1,0.2c-0.5,0.7-0.9,1.4-1.4,2.1c-0.6,1-1.2,2.1-1.4,3.3
						c-0.1,0.3-0.1,0.7-0.1,1.1c0.1,0.7,0.5,1,1.2,0.8c0.2,0,0.3-0.1,0.5-0.2c0.6-0.4,1.1-0.8,1.5-1.3c1-1.1,1.7-2.3,2.5-3.6
						c0.1-0.1,0.1-0.2,0.1-0.3C112.6,54.4,111.6,53.9,111,52.7z M115.3,50.8c0-0.1,0-0.2,0-0.3c-0.1-0.8-0.5-1.1-1.4-0.9
						c-0.1,0-0.3,0.1-0.4,0.2c-0.6,0.4-1.1,0.9-1.3,1.6c-0.2,0.6-0.2,1.1,0.2,1.6c0.4,0.6,1,0.8,1.7,0.9c0.1,0,0.2,0,0.3-0.2
						c0.2-0.4,0.3-0.8,0.5-1.1C115.1,52,115.3,51.4,115.3,50.8z"/>
				</g>
			</g>
			<g id="KRyJ1s.tif_16_">
				<g>
					<path fill="#FFFFFF" d="M177.6,46.5c0.2-0.4,0.4-0.8,0.6-1.2c0.2-0.4,0.4-0.9,0.4-1.3c0-0.3-0.1-0.5-0.5-0.3
						c-0.3,0.1-0.6,0.3-0.9,0.5c-1.2,0.9-2.2,1.9-3.2,3c-2,2.3-3.8,4.8-5.4,7.5c-1,1.6-1.9,3.3-2.8,5c-0.1,0.2-0.2,0.3-0.2,0.5
						c0.1-0.1,0.2-0.1,0.3-0.2c0.6-0.5,1.3-1,1.8-1.5c2.6-2.3,5-4.9,7.1-7.6c0.2-0.3,0.4-0.5,0.8-0.4c0.2,0,0.3,0,0.5-0.1
						c-0.1,0.2-0.2,0.3-0.3,0.5c-1.4,1.9-2.9,3.7-4.6,5.4c-2,2.1-4.1,4-6.5,5.7c-0.1,0-0.1,0.1-0.2,0.2c-0.7,1.6-1.4,3.2-1.7,4.9
						c-0.1,0.3-0.1,0.7,0,1c0.1,0.5,0.6,0.7,1,0.4c0.4-0.3,0.9-0.7,1.2-1.1c0.6-0.8,1.2-1.7,1.8-2.6c1-1.5,2-3,3.1-4.4
						c1.1-1.3,2.2-2.4,3.7-3.3c0.6-0.4,1.3-0.5,2-0.4c0.5,0.1,0.7,0.4,1,0.8c0.1,0.1,0.1,0.2,0.2,0.3c0.1-0.2,0.2-0.4,0.4-0.6
						c0-0.1,0.1-0.1,0.2-0.1c0.9,0,1.8,0,2.7,0c0,0,0,0,0.1,0c0,0.1-0.1,0.2-0.1,0.2c-1.4,2.4-2.7,4.8-4.1,7.2
						c-0.5,0.9-1.1,1.8-1.6,2.8c-0.1,0.2-0.2,0.5-0.3,0.8c-0.1,0.2-0.1,0.4,0.1,0.5c0.2,0.1,0.4,0.1,0.5,0c0.8-0.5,1.4-1.1,2-1.8
						c0.7-0.9,1.3-1.8,1.9-2.7c0.1-0.1,0.2-0.2,0.3-0.2c0.2,0,0.5,0,0.7,0c-0.1,0.2-0.2,0.3-0.3,0.5c-1.1,1.7-2.3,3.4-3.8,4.9
						c-0.8,0.8-1.8,1.5-2.8,2c-0.3,0.1-0.6,0.2-0.9,0.2c-0.6,0-1-0.3-1.1-0.9c-0.1-0.4-0.1-0.8-0.1-1.2c0-0.1,0-0.2,0-0.2
						c0,0,0,0-0.1,0c-0.2,0.2-0.3,0.3-0.5,0.5c-0.7,0.6-1.3,1.2-2.2,1.6c-0.4,0.2-0.8,0.3-1.3,0.2c-0.8-0.1-1.3-0.7-1.4-1.5
						c0-0.3,0-0.7,0-1c0-0.1,0-0.2,0-0.4c-0.1,0.1-0.2,0.2-0.2,0.2c-0.6,0.8-1.3,1.5-2.1,2c-0.3,0.2-0.7,0.4-1.1,0.6
						c-0.9,0.3-1.6,0-2.1-0.8c-0.3-0.5-0.3-1-0.3-1.5c0-1.2,0.4-2.3,0.7-3.4c0.2-0.7,0.4-1.3,0.7-2c-0.1,0-0.2,0-0.3,0.1
						c-0.4,0-0.7,0.1-1.1,0.1c-0.2,0-0.3,0.1-0.3,0.2c-0.7,1.1-1.4,2.2-2.1,3.3c-1,1.4-2.3,2.7-3.8,3.6c-0.5,0.3-1,0.5-1.6,0.6
						c-1.1,0.1-1.7-0.7-1.9-1.4c-0.2-0.8-0.1-1.6,0.1-2.4c0.4-1.7,1.1-3.3,2.1-4.7c1-1.6,2.2-3.1,3.6-4.3c0.9-0.7,1.8-1.4,2.9-1.7
						c0.4-0.1,0.8-0.2,1.3-0.1c0.8,0.1,1.2,0.7,1.4,1.3c0.2,0.9,0.1,1.7-0.2,2.6c-0.2,0.7-0.5,1.3-0.8,2c0,0.1-0.1,0.1-0.1,0.3
						c0.6,0,1.1-0.1,1.5-0.3c0.1,0,0.1-0.1,0.1-0.2c1.4-3,3.1-5.9,4.9-8.7c2.3-3.4,5-6.5,8.1-9.1c0.8-0.6,1.6-1.2,2.5-1.6
						c0.4-0.2,0.9-0.3,1.4-0.3c0.6,0,0.9,0.4,1,1c0.1,0.8-0.1,1.5-0.5,2.2c-0.4,0.8-0.4,0.8-1.2,0.9
						C177.7,46.5,177.7,46.5,177.6,46.5z M169,67.9c0,0.3,0.3,0.5,0.8,0.4c0.2-0.1,0.4-0.2,0.6-0.3c0.6-0.4,1-1,1.4-1.6
						c1.1-1.5,2-3.2,2.9-4.8c0.5-1,1.1-1.9,1.7-2.8c0.1-0.2,0.2-0.4,0-0.6c-0.2-0.2-0.4-0.2-0.6-0.2c-0.3,0.1-0.5,0.2-0.8,0.4
						c-0.3,0.2-0.6,0.5-0.9,0.8c-1.9,2-3.4,4.3-4.6,6.8C169.2,66.5,169,67.1,169,67.9z M156,61.1c-0.4,0.6-0.8,1.2-1.2,1.8
						c-0.7,1.1-1.3,2.2-1.6,3.4c-0.1,0.4-0.2,0.9-0.1,1.3c0.1,0.6,0.5,0.9,1.1,0.7c0.5-0.1,0.9-0.4,1.3-0.8c1.2-1.1,2.1-2.5,2.9-3.9
						c0-0.1,0.1-0.2,0.1-0.3C157.4,62.8,156.6,62.2,156,61.1z M160.1,59c0-0.1,0-0.3,0-0.4c-0.1-0.6-0.4-0.9-0.8-0.8
						c-0.2,0-0.4,0-0.6,0.1c-0.5,0.3-1,0.6-1.3,1.1c-0.9,1.3-0.1,2.9,1.4,3.4c0.1,0,0.2,0,0.2-0.1c0.1-0.2,0.3-0.5,0.4-0.8
						C159.8,60.7,160.1,59.9,160.1,59z"/>
					<path fill="#FFFFFF" d="M171.7,46.1c-0.7,0.8-1.4,1.5-2.1,2.2c0,0-0.2,0.1-0.2,0c-0.4-0.2-0.9-0.5-1.3-0.8
						c-1.3-0.8-2.6-1.7-4-2.5c-1-0.6-2.2-1.1-3.4-1.2c-0.4-0.1-0.8-0.1-1.1,0.1c-0.1,0-0.2,0.1-0.2,0.2c0.1,1.4-0.2,2.7-0.8,4
						c-0.7,1.8-1.8,3.3-3.2,4.6c-0.6,0.5-1.3,0.9-2,1.2c-1.1,0.3-1.9-0.2-2-1.3c-0.1-0.7,0.1-1.4,0.3-2c0.9-2.2,2.2-4,4-5.5
						c0.6-0.5,1.3-1,2-1.4c0,0,0.1-0.1,0.2-0.1c-0.4-0.2-0.8-0.2-1.2-0.1c-0.6,0.1-1.1,0.4-1.6,0.6c-2,1.1-3.6,2.4-5.2,4.1
						c-2.8,3-5.2,6.2-7.1,9.8c-1.1,2-1.9,4-2.3,6.3c-0.2,0.9-0.3,1.8-0.1,2.7c0.3,1,0.8,1.7,1.8,2c0.6,0.2,1.2,0,1.8-0.2
						c1-0.4,1.9-1.1,2.6-1.9c1.5-1.6,2.7-3.3,3.4-5.4c0.3-0.8,0.4-1.6,0.4-2.4c-0.1-0.8-0.5-1.1-1.3-0.8c-0.6,0.2-0.9,0.6-1.3,1.1
						c-0.8,1-1.3,2.1-1.5,3.4c0,0.1-0.1,0.2-0.2,0.2c-1.3,0.7-2.5,1.6-3.5,2.7c0,0-0.1,0.1-0.1,0.1c0.3-2.5,1-4.7,2.6-6.7
						c0.9-1.1,2.1-1.9,3.6-2.3c0.4-0.1,0.8-0.2,1.1-0.1c0.6,0.2,1,0.6,1.2,1.2c0.3,0.8,0.2,1.6,0.1,2.4c-0.3,1.9-1.2,3.6-2.3,5.2
						c-1.3,2-3,3.7-5.1,4.9c-0.9,0.5-1.9,0.8-2.9,0.9c-1.7,0.1-2.9-0.7-3.7-2.1c-0.7-1.2-0.9-2.5-0.8-3.9c0.1-2.1,0.9-4.1,1.8-6
						c2.5-5.2,5.9-9.7,10.4-13.3c1.9-1.6,4.1-2.8,6.4-3.5c0.9-0.2,1.7-0.3,2.6-0.1c0.4,0.1,0.7,0.3,1,0.6c0.1,0.1,0.2,0.1,0.3,0.1
						c0.7-0.2,1.4-0.5,2.1-0.6c1.8-0.4,3.5-0.1,5.1,0.7C168.1,44,169.9,45.1,171.7,46.1C171.7,46.1,171.7,46.1,171.7,46.1z
						 M158.6,44.3c-0.2,0.1-0.4,0.2-0.6,0.3c-2.3,1.4-3.9,3.3-5.2,5.7c-0.3,0.5-0.5,1.1-0.6,1.7c-0.1,0.8,0.5,1.2,1.2,0.9
						c0.3-0.1,0.6-0.3,0.8-0.5c2.5-1.9,3.9-4.4,4.3-7.5C158.6,44.7,158.6,44.5,158.6,44.3z"/>
					<path fill="#FFFFFF" d="M185.6,42.3c-0.4,0.8-0.9,1.6-1.5,2.3c-1.8,2.3-4.1,4-6.9,4.9c-1.4,0.5-2.9,0.6-4.4,0.3
						c0,0-0.1,0-0.1,0c-0.1,0-0.1,0-0.2-0.1c0-0.1,0.1-0.1,0.1-0.2c0.6-0.7,1.2-1.5,1.8-2.2c0.1-0.1,0.2-0.1,0.3-0.1
						c1.7,0.1,3.3-0.1,4.9-0.8C181.9,45.5,183.9,44.1,185.6,42.3C185.6,42.3,185.6,42.3,185.6,42.3z"/>
				</g>
			</g>
			<path fill="#FFFFFF" d="M146.7,46.2c-0.5,0.3-0.9,0.7-1.3,1c-0.5,0.3-0.9,0.7-1.4,1c-0.1,0.1-0.3,0.1-0.4,0.1c-1.6,0-3.2,0-4.7,0
				c0,0,0,0-0.1,0c0,0,0-0.1,0.1-0.1c0.9-0.6,1.7-1.3,2.6-1.9c0.1-0.1,0.2-0.1,0.3-0.1C143.4,46.2,145,46.2,146.7,46.2z"/>
		</g>
	</g>
	<path fill="#FFFFFF" d="M243.8,104.5c-30.4,5.6-60.8,10.3-92.1,10.8c-25.3,0.5-50.2-1.6-74.8-6.9C52.4,103.1,30,94.2,8.7,83.2
		c-0.4-0.2-0.4-0.4-0.9-0.6l-0.3,27.9c1.1,0.3,2.4,0.6,3.4,1c26.2,9,53.6,12.6,81.8,12.1c18.4-0.3,36.6-2,54.7-4.1
		c29.8-3.5,59.5-8.2,89.6-10c14.2-0.8,28.5-0.9,42.6,1.1c4.2,0.6,8.5,1.3,12.5,2c0.1-4.3,0.1-8.6,0.2-12.9
		C275.7,99.1,259.8,101.5,243.8,104.5z"/>
	<g>
		<path fill="#FFFFFF" d="M27.8,57.9c0,1.5-0.8,2.8-2.4,4c-1.3,0.9-2.8,1.6-4.5,1.9c-0.3,0.8-0.5,1.5-0.5,1.9c0,0.5,0.2,0.8,0.6,0.8
			c0.9,0,1.8-0.4,2.8-1.2c0.4-0.3,1.1-1.1,2.1-2.2c0.7-0.8,1.2-1.2,1.4-1.2c0.1,0,0.1,0.1,0.1,0.2c0,0.2-0.7,1.2-2,2.8
			c-1.8,2.3-3.7,3.5-5.7,3.5c-1.8,0-2.7-0.9-2.7-2.6c0-2.1,0.9-4.3,2.8-6.6c2-2.4,3.9-3.6,6-3.6C27.1,55.6,27.8,56.3,27.8,57.9z
			 M26.4,57.6c0-0.3-0.1-0.6-0.2-0.8c-0.1,0-0.2-0.1-0.3-0.1c-0.7,0-1.6,0.9-2.8,2.6c-0.8,1.3-1.5,2.5-2,3.7c1.2-0.3,2.4-1,3.5-2.1
			C25.8,59.9,26.4,58.7,26.4,57.6z"/>
		<path fill="#FFFFFF" d="M44.8,44.6c0,0.8-0.2,1.6-0.7,2.4c-2.1,3.7-5.1,7.3-9.2,10.8c-0.7,0.6-1.7,1.5-3.1,2.6
			c-0.3,0.3-0.6,1-1,2.1c-0.3,1.1-0.5,1.9-0.5,2.4l0.4,0.8c0.1,0,0.1,0,0.2,0c0.5,0,1.1-0.5,2-1.5c0.9-1,1.4-1.5,1.7-1.5
			c0.1,0,0.2,0.1,0.2,0.2c0,0.3-0.5,1-1.4,2.1c-1.9,2.3-3.3,3.4-4.2,3.4c-0.5,0-1-0.2-1.4-0.6c-0.4-0.4-0.5-0.9-0.5-1.4
			c0-1.3,0.4-3,1.1-5.1c1.4-3.7,3.5-7.4,6.2-11c3.4-4.5,6.3-6.7,8.7-6.7C44.2,43.5,44.8,43.9,44.8,44.6z M43.8,45.3
			c-0.2-0.4-0.4-0.7-0.6-0.7c-1.5,0-3.6,2.1-6.4,6.2c-2.4,3.5-4,6.3-4.8,8.4c1.8-1.2,4.1-3.3,6.8-6.4C41.9,49.4,43.5,46.9,43.8,45.3
			z"/>
		<path fill="#FFFFFF" d="M57.7,44.6c0,0.8-0.2,1.6-0.7,2.4c-2.1,3.7-5.1,7.3-9.2,10.8c-0.7,0.6-1.7,1.5-3.1,2.6
			c-0.3,0.3-0.6,1-1,2.1c-0.3,1.1-0.5,1.9-0.5,2.4l0.4,0.8c0.1,0,0.1,0,0.2,0c0.5,0,1.1-0.5,2-1.5c0.9-1,1.4-1.5,1.7-1.5
			c0.1,0,0.2,0.1,0.2,0.2c0,0.3-0.5,1-1.4,2.1c-1.9,2.3-3.3,3.4-4.2,3.4c-0.5,0-1-0.2-1.4-0.6c-0.4-0.4-0.5-0.9-0.5-1.4
			c0-1.3,0.4-3,1.1-5.1c1.4-3.7,3.5-7.4,6.2-11c3.4-4.5,6.3-6.7,8.7-6.7C57.1,43.5,57.7,43.9,57.7,44.6z M56.7,45.3
			c-0.2-0.4-0.4-0.7-0.6-0.7c-1.5,0-3.6,2.1-6.4,6.2c-2.4,3.5-4,6.3-4.8,8.4c1.8-1.2,4.1-3.3,6.8-6.4C54.8,49.4,56.5,46.9,56.7,45.3
			z"/>
		<path fill="#FFFFFF" d="M61,55.6c-0.3,1.3-1.1,2.8-2.4,4.8c-1.4,2.1-2.2,3.6-2.6,4.6l0.3,0.2c0.9-0.3,1.6-0.9,2.3-1.9
			c0.7-1,1.1-1.5,1.2-1.6H60c0.1,0.1,0.1,0.2,0.1,0.4c0,0.9-0.8,2.1-2.3,3.7c-1.5,1.6-2.7,2.3-3.6,2.3c-0.7,0-1.2-0.2-1.4-0.5
			c-0.1-0.1-0.2-0.6-0.6-1.4c-0.7,1.3-1.7,2-3,2c-0.6,0-1.1-0.2-1.5-0.7c-0.4-0.5-0.7-1-0.7-1.6c0-1.6,1.1-3.7,3.3-6.3
			c2.2-2.5,4.1-3.8,5.7-3.8c0.2,0,0.5,0.1,0.9,0.3c0.4,0.2,0.7,0.4,0.9,0.4c0.1-0.1,0.2-0.2,0.2-0.4c0.2-0.2,0.7-0.3,1.4-0.3
			C60.1,55.6,60.6,55.6,61,55.6z M57.3,57.2c-0.1-0.3-0.3-0.4-0.6-0.4c-0.3,0-0.6,0.1-1,0.4v0c-1.1,0.9-2.1,2.1-3.1,3.5
			c-1.1,1.7-1.7,3.1-1.7,4.2c0,0.5,0.2,0.7,0.6,0.7c0.5,0,1.5-1.2,3.1-3.7C56,59.6,56.9,58.1,57.3,57.2z"/>
		<path fill="#FFFFFF" d="M78.3,46.6c-0.5,1.4-1.4,3.5-2.7,6.2c-0.6,1.2-1.2,2.5-1.8,3.8c-0.7,1.5-1.4,2.7-2.1,3.7
			c-1.3,1.9-2.2,3.5-2.6,4.8l0.3,0.2c0.9-0.3,1.6-0.9,2.2-1.9c0.6-1,1.1-1.5,1.3-1.7H73c0.1,0.1,0.1,0.2,0.1,0.4
			c0,0.9-0.8,2.1-2.3,3.7c-1.5,1.6-2.7,2.3-3.6,2.3c-0.7,0-1.2-0.2-1.4-0.5c-0.1-0.1-0.2-0.6-0.6-1.4c-0.7,1.3-1.7,2-3,2
			c-0.6,0-1.1-0.2-1.5-0.7c-0.4-0.5-0.7-1-0.7-1.6c0-1.8,1.5-4.4,4.6-7.6c1.6-1.7,3.1-2.6,4.5-2.6c0.2,0,0.5,0.1,0.9,0.3
			c0.4,0.2,0.7,0.4,0.9,0.4c0.1,0,0.2-0.2,0.2-0.5c0.1-0.3,0.5-1.3,1.1-2.9c1.2-2.9,2.2-5.2,3-6.8l1.8-0.1
			C77.7,46,78,46.2,78.3,46.6z M70.3,57.2c-0.1-0.3-0.3-0.4-0.6-0.4c-0.3,0-0.6,0.1-1,0.4v0c-1.1,0.9-2.1,2.1-3.1,3.5
			c-1.1,1.7-1.7,3.1-1.7,4.2c0,0.5,0.2,0.7,0.6,0.7c0.5,0,1.5-1.2,3.1-3.7C69.1,59.6,70,58.1,70.3,57.2z"/>
		<path fill="#FFFFFF" d="M85.3,60.6c0,0.3-0.3,0.5-0.9,0.6c-0.5,0.1-0.9,0.2-1.3,0.2c-0.2,0-0.5,0-0.7,0c-0.8,1.5-1.8,3-2.9,4.2
			c-1.6,1.7-3,2.6-4.2,2.6c-1.7,0-2.6-0.8-2.6-2.3c0-1.9,0.9-4.1,2.8-6.4c2-2.5,3.9-3.7,5.8-3.7c1.5,0,2.2,0.7,2.2,2.1
			c0,0.5-0.2,1.3-0.7,2.7c0.2,0.1,0.4,0.1,0.6,0.1c0.2,0,0.4,0,0.8-0.1c0.3-0.1,0.6-0.1,0.8-0.1C85.2,60.3,85.3,60.4,85.3,60.6z
			 M81.4,61.2c-1.2-0.1-2-0.7-2.5-1.8c-0.4,0.4-0.9,1.4-1.6,2.8v0c0,0.2-0.2,0.7-0.5,1.4c-0.3,0.6-0.4,1-0.4,1.4
			c0,0.4,0.2,0.7,0.7,0.7C78.4,65.6,79.9,64.1,81.4,61.2z M82.6,58c0-0.7-0.3-1.1-0.8-1.1c-0.4,0-0.9,0.2-1.4,0.6
			c-0.5,0.4-0.7,0.8-0.7,1.2c0,0.4,0.2,0.8,0.7,1.2c0.4,0.4,0.9,0.6,1.3,0.6c0,0,0.1,0,0.2,0v0c0.2,0,0.4-0.3,0.6-1
			C82.5,58.7,82.6,58.3,82.6,58z"/>
	</g>
	<g>
		<path fill="#FFFFFF" d="M206.6,46.6c-0.5,1.4-1.4,3.5-2.7,6.2c-0.6,1.2-1.2,2.5-1.8,3.8c-0.7,1.5-1.4,2.7-2.1,3.7
			c-1.3,1.9-2.2,3.5-2.6,4.8l0.3,0.2c0.9-0.3,1.6-0.9,2.2-1.9c0.6-1,1.1-1.5,1.3-1.7h0.1c0.1,0.1,0.1,0.2,0.1,0.4
			c0,0.9-0.8,2.1-2.3,3.7c-1.5,1.6-2.7,2.3-3.6,2.3c-0.7,0-1.2-0.2-1.4-0.5c-0.1-0.1-0.2-0.6-0.6-1.4c-0.7,1.3-1.7,2-3,2
			c-0.6,0-1.1-0.2-1.5-0.7c-0.4-0.5-0.7-1-0.7-1.6c0-1.8,1.5-4.4,4.6-7.6c1.6-1.7,3.1-2.6,4.5-2.6c0.2,0,0.5,0.1,0.9,0.3
			c0.4,0.2,0.7,0.4,0.9,0.4c0.1,0,0.2-0.2,0.2-0.5c0.1-0.3,0.5-1.3,1.1-2.9c1.2-2.9,2.2-5.2,3-6.8l1.8-0.1
			C206,46,206.3,46.2,206.6,46.6z M198.6,57.2c-0.1-0.3-0.3-0.4-0.6-0.4c-0.3,0-0.6,0.1-1,0.4v0c-1.1,0.9-2.1,2.1-3.1,3.5
			c-1.1,1.7-1.7,3.1-1.7,4.2c0,0.5,0.2,0.7,0.6,0.7c0.5,0,1.5-1.2,3.1-3.7C197.4,59.6,198.3,58.1,198.6,57.2z"/>
		<path fill="#FFFFFF" d="M211.8,57.9c0,1.5-0.8,2.8-2.4,4c-1.3,0.9-2.8,1.6-4.5,1.9c-0.3,0.8-0.5,1.5-0.5,1.9
			c0,0.5,0.2,0.8,0.6,0.8c0.9,0,1.8-0.4,2.8-1.2c0.4-0.3,1.1-1.1,2.1-2.2c0.7-0.8,1.2-1.2,1.4-1.2c0.1,0,0.1,0.1,0.1,0.2
			c0,0.2-0.7,1.2-2,2.8c-1.8,2.3-3.7,3.5-5.7,3.5c-1.8,0-2.7-0.9-2.7-2.6c0-2.1,0.9-4.3,2.8-6.6c2-2.4,3.9-3.6,6-3.6
			C211.1,55.6,211.8,56.3,211.8,57.9z M210.4,57.6c0-0.3-0.1-0.6-0.2-0.8c-0.1,0-0.2-0.1-0.3-0.1c-0.7,0-1.6,0.9-2.8,2.6
			c-0.8,1.3-1.5,2.5-2,3.7c1.2-0.3,2.4-1,3.5-2.1C209.8,59.9,210.4,58.7,210.4,57.6z"/>
		<path fill="#FFFFFF" d="M234.2,44.6c0,0.8-0.2,1.6-0.7,2.4c-2.1,3.7-5.1,7.3-9.2,10.8c-0.7,0.6-1.7,1.5-3.1,2.6
			c-0.3,0.3-0.6,1-1,2.1c-0.3,1.1-0.5,1.9-0.5,2.4l0.4,0.8c0.1,0,0.1,0,0.2,0c0.5,0,1.1-0.5,2-1.5c0.9-1,1.4-1.5,1.7-1.5
			c0.1,0,0.2,0.1,0.2,0.2c0,0.3-0.5,1-1.4,2.1c-1.9,2.3-3.3,3.4-4.2,3.4c-0.5,0-1-0.2-1.4-0.6c-0.4-0.4-0.5-0.9-0.5-1.4
			c0-1.3,0.4-3,1.1-5.1c1.4-3.7,3.5-7.4,6.2-11c3.4-4.5,6.3-6.7,8.7-6.7C233.6,43.5,234.2,43.9,234.2,44.6z M233.2,45.3
			c-0.2-0.4-0.4-0.7-0.6-0.7c-1.5,0-3.6,2.1-6.4,6.2c-2.4,3.5-4,6.3-4.8,8.4c1.8-1.2,4.1-3.3,6.8-6.4
			C231.3,49.4,233,46.9,233.2,45.3z"/>
		<path fill="#FFFFFF" d="M237.5,55.6c-0.3,1.3-1.1,2.8-2.4,4.8c-1.4,2.1-2.2,3.6-2.6,4.6l0.3,0.2c0.9-0.3,1.6-0.9,2.3-1.9
			c0.7-1,1.1-1.5,1.2-1.6h0.1c0.1,0.1,0.1,0.2,0.1,0.4c0,0.9-0.8,2.1-2.3,3.7c-1.5,1.6-2.7,2.3-3.6,2.3c-0.7,0-1.2-0.2-1.4-0.5
			c-0.1-0.1-0.2-0.6-0.6-1.4c-0.7,1.3-1.7,2-3,2c-0.6,0-1.1-0.2-1.5-0.7c-0.4-0.5-0.7-1-0.7-1.6c0-1.6,1.1-3.7,3.3-6.3
			c2.2-2.5,4.1-3.8,5.7-3.8c0.2,0,0.5,0.1,0.9,0.3c0.4,0.2,0.7,0.4,0.9,0.4c0.1-0.1,0.2-0.2,0.2-0.4c0.2-0.2,0.7-0.3,1.4-0.3
			C236.6,55.6,237.1,55.6,237.5,55.6z M233.8,57.2c-0.1-0.3-0.3-0.4-0.6-0.4c-0.3,0-0.6,0.1-1,0.4v0c-1.1,0.9-2.1,2.1-3.1,3.5
			c-1.1,1.7-1.7,3.1-1.7,4.2c0,0.5,0.2,0.7,0.6,0.7c0.5,0,1.5-1.2,3.1-3.7C232.6,59.6,233.4,58.1,233.8,57.2z"/>
		<path fill="#FFFFFF" d="M257,59.5c0,0.1-0.1,0.3-0.4,0.6c-2,2-3.7,3-5,3c-0.2,0-0.5,0-0.8,0c-0.4,0.7-1,1.4-2,2.3
			c-0.9,0.9-1.8,1.6-2.5,2c-0.7,0.4-1.4,0.7-2.2,0.7c-0.6,0-1.1-0.2-1.5-0.7c-0.4-0.5-0.7-1-0.7-1.6c0-0.4,0.1-0.9,0.3-1.4l3.8-8.3
			l3.7-0.3c-0.9,1.2-1.7,2.5-2.5,4.1c-1,1.9-1.5,3.4-1.5,4.4c0,0.2,0.1,0.5,0.2,0.8c0.1,0.3,0.3,0.5,0.5,0.5c1.3,0,2.5-0.9,3.7-2.8
			c-0.7-0.7-1-1.4-1-2.3c0-1.1,0.4-2.4,1.1-3.7c0.8-1.5,1.8-2.3,2.9-2.3c0.9,0,1.4,0.6,1.4,1.9c0,1.6-1.1,3.6-3.2,6.1h0.3
			c0.8,0,1.8-0.5,3.1-1.6c1.3-1.1,2-1.6,1.9-1.6C256.9,59.3,257,59.3,257,59.5z M253.6,57.6c0-0.4-0.2-0.6-0.6-0.6
			c-0.8,0-1.4,0.4-2.1,1.1c-0.6,0.8-0.9,1.5-0.9,2.3c0,0.7,0.2,1.2,0.7,1.7C252.6,60,253.6,58.5,253.6,57.6z"/>
		<path fill="#FFFFFF" d="M261.8,62.3c0,1-0.8,2.2-2.3,3.7c-1.5,1.5-2.8,2.3-3.8,2.3c-1,0-1.6-0.7-1.6-2.2c0-0.8,0.3-1.7,0.9-2.7
			l1.5-2.5c0.2-0.4,0.7-1.7,1.7-3.9h3.5c-1.8,3.1-3.1,5.9-3.9,8.3l0.3,0.2c0.8-0.3,1.5-0.9,2.1-1.8c0.6-1,1.1-1.6,1.5-1.8h0.1
			C261.7,62,261.8,62.1,261.8,62.3z M263.4,52.8c0,0.8-0.1,1.3-0.4,1.5c-0.3,0.2-0.8,0.4-1.5,0.4c-0.9,0-1.3-0.2-1.3-0.7v-1.4
			c0-0.3,0.3-0.6,0.8-0.8c0.5-0.3,1-0.4,1.3-0.4C263,51.4,263.4,51.9,263.4,52.8z"/>
		<path fill="#FFFFFF" d="M279.3,46.6c-0.5,1.4-1.4,3.5-2.7,6.2c-0.6,1.2-1.2,2.5-1.8,3.8c-0.7,1.5-1.4,2.7-2.1,3.7
			c-1.3,1.9-2.2,3.5-2.6,4.8l0.3,0.2c0.9-0.3,1.6-0.9,2.2-1.9c0.6-1,1.1-1.5,1.3-1.7h0.1c0.1,0.1,0.1,0.2,0.1,0.4
			c0,0.9-0.8,2.1-2.3,3.7c-1.5,1.6-2.7,2.3-3.6,2.3c-0.7,0-1.2-0.2-1.4-0.5c-0.1-0.1-0.2-0.6-0.6-1.4c-0.7,1.3-1.7,2-3,2
			c-0.6,0-1.1-0.2-1.5-0.7c-0.4-0.5-0.7-1-0.7-1.6c0-1.8,1.5-4.4,4.6-7.6c1.6-1.7,3.1-2.6,4.5-2.6c0.2,0,0.5,0.1,0.9,0.3
			s0.7,0.4,0.9,0.4c0.1,0,0.2-0.2,0.2-0.5c0.1-0.3,0.5-1.3,1.1-2.9c1.2-2.9,2.2-5.2,3-6.8l1.8-0.1C278.7,46,279.1,46.2,279.3,46.6z
			 M271.4,57.2c-0.1-0.3-0.3-0.4-0.6-0.4c-0.3,0-0.6,0.1-1,0.4v0c-1.1,0.9-2.1,2.1-3.1,3.5c-1.1,1.7-1.7,3.1-1.7,4.2
			c0,0.5,0.2,0.7,0.6,0.7c0.5,0,1.5-1.2,3.1-3.7C270.1,59.6,271,58.1,271.4,57.2z"/>
		<path fill="#FFFFFF" d="M288,55.6c-0.3,1.3-1.1,2.8-2.4,4.8c-1.4,2.1-2.2,3.6-2.6,4.6l0.3,0.2c0.9-0.3,1.6-0.9,2.3-1.9
			c0.7-1,1.1-1.5,1.2-1.6h0.1c0.1,0.1,0.1,0.2,0.1,0.4c0,0.9-0.8,2.1-2.3,3.7c-1.5,1.6-2.7,2.3-3.6,2.3c-0.7,0-1.2-0.2-1.4-0.5
			c-0.1-0.1-0.2-0.6-0.6-1.4c-0.7,1.3-1.7,2-3,2c-0.6,0-1.1-0.2-1.5-0.7c-0.4-0.5-0.7-1-0.7-1.6c0-1.6,1.1-3.7,3.3-6.3
			c2.2-2.5,4.1-3.8,5.7-3.8c0.2,0,0.5,0.1,0.9,0.3c0.4,0.2,0.7,0.4,0.9,0.4c0.1-0.1,0.2-0.2,0.2-0.4c0.2-0.2,0.7-0.3,1.4-0.3
			C287.1,55.6,287.6,55.6,288,55.6z M284.3,57.2c-0.1-0.3-0.3-0.4-0.6-0.4c-0.3,0-0.6,0.1-1,0.4v0c-1.1,0.9-2.1,2.1-3.1,3.5
			c-1.1,1.7-1.7,3.1-1.7,4.2c0,0.5,0.2,0.7,0.6,0.7c0.5,0,1.5-1.2,3.1-3.7C283,59.6,283.9,58.1,284.3,57.2z"/>
	</g>
</g>
</svg>
