<?xml version="1.0" encoding="utf-8"?>
<!-- Generator: Adobe Illustrator 19.0.0, SVG Export Plug-In . SVG Version: 6.00 Build 0)  -->
<!DOCTYPE svg PUBLIC "-//W3C//DTD SVG 1.1//EN" "http://www.w3.org/Graphics/SVG/1.1/DTD/svg11.dtd">
<svg version="1.1" id="Layer_1" xmlns="http://www.w3.org/2000/svg" xmlns:xlink="http://www.w3.org/1999/xlink" x="0px" y="0px"
	 viewBox="-329 144.5 300.2 272.5" style="enable-background:new -329 144.5 300.2 272.5;" xml:space="preserve">
<style type="text/css">
	.st0{fill:#3D3E3F;}
	.st1{fill:#131215;}
	.st2{fill:#686769;}
	.st3{fill:#E1E0DE;}
	.st4{fill:#4D4C4B;}
	.st5{fill:#BA252B;}
	.st6{fill:#CD0014;}
	.st7{fill:#FFFFFF;}
</style>
<rect x="-189.7" y="283.5" class="st0" width="24.3" height="133.5"/>
<rect x="-314.1" y="274.4" class="st1" width="271.2" height="15.2"/>
<rect x="-298.8" y="274.3" class="st2" width="2.1" height="15.2"/>
<rect x="-277" y="274.3" class="st2" width="2.1" height="15.2"/>
<rect x="-255.1" y="274.3" class="st2" width="2.1" height="15.2"/>
<rect x="-233.3" y="274.3" class="st2" width="2.1" height="15.2"/>
<rect x="-211.4" y="274.3" class="st2" width="2.1" height="15.2"/>
<rect x="-189.6" y="274.3" class="st2" width="2.1" height="15.2"/>
<rect x="-167.7" y="274.3" class="st2" width="2.1" height="15.2"/>
<rect x="-145.9" y="274.3" class="st2" width="2.1" height="15.2"/>
<rect x="-124.1" y="274.3" class="st2" width="2.1" height="15.2"/>
<rect x="-102.2" y="274.3" class="st2" width="2.1" height="15.2"/>
<rect x="-80.4" y="274.3" class="st2" width="2.1" height="15.2"/>
<rect x="-58.5" y="274.3" class="st2" width="2.1" height="15.2"/>
<rect x="-324" y="289.2" class="st3" width="295.2" height="3.9"/>
<rect x="-304.4" y="285.9" class="st4" width="23.1" height="4.9"/>
<rect x="-247.4" y="285.9" class="st4" width="23.1" height="4.9"/>
<rect x="-190.3" y="285.9" class="st4" width="23.1" height="4.9"/>
<rect x="-133.3" y="285.9" class="st4" width="23.1" height="4.9"/>
<rect x="-76.3" y="285.9" class="st4" width="23.1" height="4.9"/>
<rect x="-321.4" y="144.5" class="st5" width="285.2" height="135.9"/>
<rect x="-321.3" y="144.7" class="st6" width="285.1" height="131.7"/>
<g>
	<g>
		<g id="KRyJ1s.tif_17_">
			<g>
				<path class="st7" d="M-221,187.8c0.3,0.1,0.6,0.2,0.8,0.4c0.6,0.4,0.9,0.9,1,1.6c0.1,0.6-0.1,1.3-0.4,1.8
					c-0.2,0.4-0.5,0.8-0.7,1.2s-0.6,0.6-1.1,0.6s-0.7-0.2-0.8-0.6c0-0.4,0-0.7,0.2-1c0.3-0.6,0.6-1,1.3-1.2c0.1,0,0.3-0.1,0.4-0.1
					c0.2,0,0.3-0.1,0.3-0.2c0.2-0.6-0.2-1.2-0.9-1.2c-0.4,0-0.7,0.1-1,0.2c-1.4,0.5-2.6,1.3-3.6,2.2c-3.4,3.1-6.1,6.7-8,11
					c-0.6,1.5-1.2,3-1.5,4.6c-0.2,1.1-0.2,2.2,0.1,3.3c0.4,1.4,1.2,2.4,2.5,3c1.1,0.5,2.2,0.6,3.3,0.6c1.8-0.2,3.7-0.6,5.5-1.1
					c2.1-0.5,4.2-1,6.3-1.5c1.9-0.5,4-0.6,6-0.6c2.3,0.1,4.4,0.8,6.4,2.2c1.1,0.7,2.1,1.6,3,2.5c0.2,0.2,0.3,0.4,0.5,0.6
					c-0.1,0-0.1-0.1-0.2-0.1c-1.8-1.2-4-1.9-6.2-1.8c-0.9,0-1.9,0.2-2.7,0.7c-0.4,0.3-0.7,0.7-1.1,1l0,0c-0.8-1.5-2.1-2.3-3.8-2.7
					c-1.1-0.3-2.3-0.3-3.5-0.3c-2,0.1-4,0.6-6,1.2c-1.8,0.5-3.7,0.8-5.5,1.2c-1.5,0.3-3,0.3-4.3-0.3c-2.1-0.7-3.5-2.3-4-4.5
					c-0.1-0.5-0.1-0.8-0.2-1.3c0-0.1,0-0.1,0-0.2c0-0.4,0-0.7,0-1.2c0-0.3,0.1-0.6,0.1-0.9c0.2-1.8,0.7-3.4,1.4-5
					c1.4-3.1,3.3-6,5.8-8.4c1.6-1.6,3.3-3,5.3-4.2c1.1-0.6,2.2-1.1,3.4-1.4c0.4-0.1,0.8-0.1,1.2-0.2
					C-221.6,187.8-221.3,187.8-221,187.8z"/>
				<path class="st7" d="M-219.7,200c0.2,0,0.3,0,0.5-0.1c0.4-0.2,0.8-0.4,1.2-0.6c0.8-0.6,1.5-1.2,2.1-1.9c0.6-0.7,1.5-1.4,2.3-1.9
					c0.7-0.5,1.5-0.7,2.4-0.7c1.1,0.1,1.9,1,1.8,2.1c-0.1,0.9-0.5,1.7-1.1,2.4c-0.2,0.3-0.5,0.5-0.7,0.6c-0.5,0.2-1-0.1-1-0.6
					c0-0.9,0.8-1.9,1.8-2c0.1,0,0.2,0,0.2-0.1c0.2-0.4,0.1-0.9-0.6-0.9c-0.5,0-0.9,0.2-1.3,0.6c-0.7,0.6-1.4,1.2-1.9,1.9
					c-1.4,1.7-2.4,3.5-3.1,5.5c-0.2,0.5-0.3,1-0.2,1.6c0.1,0.8,0.7,1.2,1.6,1c0.7-0.2,1.3-0.6,1.8-1.1c1.2-1.1,2.2-2.3,3.1-3.5
					c0.9-1.2,1.8-2.4,2.7-3.5c0.9-1.1,1.8-2.1,3-3c0.6-0.4,1.1-0.7,1.8-0.8c0.7-0.1,1.3,0.1,1.8,0.7l0.1,0.1l0.1-0.1
					c0.2-0.4,0.5-0.5,0.8-0.5c0.6,0,1.3,0,1.9,0c0.1,0,0.2,0,0.3,0c-0.1,0.1-0.1,0.3-0.2,0.4c-1.8,3.2-3.7,6.4-5.5,9.6
					c-0.1,0.2-0.2,0.4-0.2,0.6c0,0.3,0.2,0.5,0.5,0.4c0.2-0.1,0.4-0.2,0.6-0.4c0.6-0.5,1.3-1.1,1.8-1.8c0.5-0.6,0.9-1.2,1.4-1.8
					c0.1-0.2,0.3-0.2,0.5-0.2c0.2,0,0.4,0,0.6,0c0,0.1,0,0.1-0.1,0.1c-1.1,1.7-2.3,3.3-3.8,4.7c-0.7,0.7-1.5,1.4-2.4,1.8
					c-0.5,0.2-0.8,0.3-1.3,0.2c-0.5-0.1-0.8-0.6-0.9-1c0-0.4,0-0.6,0-1c0,0.1-0.1,0.1-0.1,0.2c-0.5,0.6-1,1-1.7,1.4
					c-0.5,0.3-0.9,0.5-1.4,0.6c-1,0.1-1.8-0.6-1.8-1.6c0-0.6,0.1-1.2,0.3-1.8c0-0.1,0-0.2,0-0.3c-0.1,0.1-0.1,0.1-0.2,0.2
					c-0.8,0.7-1.7,1.5-2.5,2.2c-0.7,0.6-1.6,1-2.5,1.1c-0.5,0.1-0.9,0.1-1.4-0.1c-1-0.4-1.4-1.1-1.6-2c-0.3-1.3,0.1-2.5,0.6-3.6
					c0.3-0.6,0.6-1.3,1-2c0-0.1,0.1-0.1,0.1-0.3c-0.4,0.1-0.6,0.2-1,0.3c-0.3,0-0.5,0.2-0.6,0.5c-0.6,1-1.3,2.1-2,3.1
					c-1,1.3-2.1,2.6-3.6,3.5c-0.6,0.4-1.2,0.6-1.9,0.7c-0.7,0.1-1.5-0.4-1.8-1c-0.3-0.6-0.3-1.2-0.3-1.8c0.2-1.8,0.9-3.5,1.9-5.1
					c1.2-1.8,2.6-3.5,4.4-4.8c0.7-0.6,1.6-1,2.5-1.1c1.4-0.3,2.3,0.5,2.3,1.9c0,0.7-0.2,1.5-0.5,2.2
					C-219.4,199.2-219.5,199.6-219.7,200z M-209.2,205.4c0,0.2,0.1,0.4,0.3,0.6c0.2,0.1,0.4,0.1,0.6,0c0.5-0.3,0.9-0.6,1.2-1
					c0.5-0.6,0.9-1.2,1.3-1.8c1.3-2.1,2.5-4.3,3.8-6.5c0.1-0.3,0.1-0.5-0.2-0.6c-0.2-0.1-0.5,0-0.6,0.1c-0.5,0.2-0.8,0.5-1.1,0.8
					c-0.9,1.1-1.8,2.2-2.6,3.3c-0.9,1.3-1.7,2.6-2.2,4.1C-209,204.7-209.1,205.1-209.2,205.4z M-223.7,199c-0.1,0.1-0.1,0.1-0.1,0.2
					c-0.5,0.6-0.8,1.3-1.3,1.9c-0.6,0.9-1.1,1.9-1.3,3c-0.1,0.3-0.1,0.6-0.1,1c0.1,0.6,0.5,0.9,1.1,0.7c0.2,0,0.3-0.1,0.5-0.2
					c0.6-0.4,1-0.7,1.4-1.2c0.9-1,1.6-2.1,2.3-3.3c0.1-0.1,0.1-0.2,0.1-0.3C-222.2,200.5-223.2,200.1-223.7,199z M-219.7,197.2
					c0-0.1,0-0.2,0-0.3c-0.1-0.7-0.5-1-1.3-0.8c-0.1,0-0.3,0.1-0.4,0.2c-0.6,0.4-1,0.8-1.2,1.5c-0.2,0.6-0.2,1,0.2,1.5
					c0.4,0.6,0.9,0.7,1.6,0.8c0.1,0,0.2,0,0.3-0.2c0.2-0.4,0.3-0.7,0.5-1C-219.9,198.3-219.7,197.8-219.7,197.2z"/>
			</g>
		</g>
		<g id="KRyJ1s.tif_16_">
			<g>
				<path class="st7" d="M-162.2,193.2c0.2-0.4,0.4-0.7,0.6-1.1c0.2-0.4,0.4-0.8,0.4-1.2c0-0.3-0.1-0.5-0.5-0.3
					c-0.3,0.1-0.6,0.3-0.8,0.5c-1.1,0.8-2,1.8-3,2.8c-1.8,2.1-3.5,4.4-5,6.9c-0.9,1.5-1.8,3-2.6,4.6c-0.1,0.2-0.2,0.3-0.2,0.5
					c0.1-0.1,0.2-0.1,0.3-0.2c0.6-0.5,1.2-0.9,1.7-1.4c2.4-2.1,4.6-4.5,6.6-7c0.2-0.3,0.4-0.5,0.7-0.4c0.2,0,0.3,0,0.5-0.1
					c-0.1,0.2-0.2,0.3-0.3,0.5c-1.3,1.8-2.7,3.4-4.2,5c-1.8,1.9-3.8,3.7-6,5.3c-0.1,0-0.1,0.1-0.2,0.2c-0.6,1.5-1.3,3-1.6,4.5
					c-0.1,0.3-0.1,0.6,0,0.9c0.1,0.5,0.6,0.6,0.9,0.4c0.4-0.3,0.8-0.6,1.1-1c0.6-0.7,1.1-1.6,1.7-2.4c0.9-1.4,1.8-2.8,2.9-4.1
					c1-1.2,2-2.2,3.4-3c0.6-0.4,1.2-0.5,1.8-0.4c0.5,0.1,0.6,0.4,0.9,0.7c0.1,0.1,0.1,0.2,0.2,0.3c0.1-0.2,0.2-0.4,0.4-0.6
					c0-0.1,0.1-0.1,0.2-0.1c0.8,0,1.7,0,2.5,0c0,0,0,0,0.1,0c0,0.1-0.1,0.2-0.1,0.2c-1.3,2.2-2.5,4.4-3.8,6.6
					c-0.5,0.8-1,1.7-1.5,2.6c-0.1,0.2-0.2,0.5-0.3,0.7c-0.1,0.2-0.1,0.4,0.1,0.5c0.2,0.1,0.4,0.1,0.5,0c0.7-0.5,1.3-1,1.8-1.7
					c0.6-0.8,1.2-1.7,1.8-2.5c0.1-0.1,0.2-0.2,0.3-0.2c0.2,0,0.5,0,0.6,0c-0.1,0.2-0.2,0.3-0.3,0.5c-1,1.6-2.1,3.1-3.5,4.5
					c-0.7,0.7-1.7,1.4-2.6,1.8c-0.3,0.1-0.6,0.2-0.8,0.2c-0.6,0-0.9-0.3-1-0.8c-0.1-0.4-0.1-0.7-0.1-1.1c0-0.1,0-0.2,0-0.2
					s0,0-0.1,0c-0.2,0.2-0.3,0.3-0.5,0.5c-0.6,0.6-1.2,1.1-2,1.5c-0.4,0.2-0.7,0.3-1.2,0.2c-0.7-0.1-1.2-0.6-1.3-1.4
					c0-0.3,0-0.6,0-0.9c0-0.1,0-0.2,0-0.4c-0.1,0.1-0.2,0.2-0.2,0.2c-0.6,0.7-1.2,1.4-1.9,1.8c-0.3,0.2-0.6,0.4-1,0.6
					c-0.8,0.3-1.5,0-1.9-0.7c-0.3-0.5-0.3-0.9-0.3-1.4c0-1.1,0.4-2.1,0.6-3.1c0.2-0.6,0.4-1.2,0.6-1.8c-0.1,0-0.2,0-0.3,0.1
					c-0.4,0-0.6,0.1-1,0.1c-0.2,0-0.3,0.1-0.3,0.2c-0.6,1-1.3,2-1.9,3c-0.9,1.3-2.1,2.5-3.5,3.3c-0.5,0.3-0.9,0.5-1.5,0.6
					c-1,0.1-1.6-0.6-1.8-1.3c-0.2-0.7-0.1-1.5,0.1-2.2c0.4-1.6,1-3,1.9-4.3c0.9-1.5,2-2.9,3.3-4c0.8-0.6,1.7-1.3,2.7-1.6
					c0.4-0.1,0.7-0.2,1.2-0.1c0.7,0.1,1.1,0.6,1.3,1.2c0.2,0.8,0.1,1.6-0.2,2.4c-0.2,0.6-0.5,1.2-0.7,1.8c0,0.1-0.1,0.1-0.1,0.3
					c0.6,0,1-0.1,1.4-0.3c0.1,0,0.1-0.1,0.1-0.2c1.3-2.8,2.9-5.4,4.5-8c2.1-3.1,4.6-6,7.5-8.4c0.7-0.6,1.5-1.1,2.3-1.5
					c0.4-0.2,0.8-0.3,1.3-0.3c0.6,0,0.8,0.4,0.9,0.9c0.1,0.7-0.1,1.4-0.5,2c-0.4,0.7-0.4,0.7-1.1,0.8
					C-162.1,193.2-162.1,193.2-162.2,193.2z M-170.2,213c0,0.3,0.3,0.5,0.7,0.4c0.2-0.1,0.4-0.2,0.6-0.3c0.6-0.4,0.9-0.9,1.3-1.5
					c1-1.4,1.8-3,2.7-4.4c0.5-0.9,1-1.8,1.6-2.6c0.1-0.2,0.2-0.4,0-0.6c-0.2-0.2-0.4-0.2-0.6-0.2c-0.3,0.1-0.5,0.2-0.7,0.4
					c-0.3,0.2-0.6,0.5-0.8,0.7c-1.8,1.8-3.1,4-4.2,6.3C-170,211.7-170.2,212.3-170.2,213z M-182.2,206.7c-0.4,0.6-0.7,1.1-1.1,1.7
					c-0.6,1-1.2,2-1.5,3.1c-0.1,0.4-0.2,0.8-0.1,1.2c0.1,0.6,0.5,0.8,1,0.6c0.5-0.1,0.8-0.4,1.2-0.7c1.1-1,1.9-2.3,2.7-3.6
					c0-0.1,0.1-0.2,0.1-0.3C-180.9,208.3-181.6,207.7-182.2,206.7z M-178.4,204.8c0-0.1,0-0.3,0-0.4c-0.1-0.6-0.4-0.8-0.7-0.7
					c-0.2,0-0.4,0-0.6,0.1c-0.5,0.3-0.9,0.6-1.2,1c-0.8,1.2-0.1,2.7,1.3,3.1c0.1,0,0.2,0,0.2-0.1c0.1-0.2,0.3-0.5,0.4-0.7
					C-178.7,206.3-178.4,205.6-178.4,204.8z"/>
				<path class="st7" d="M-167.7,192.9c-0.6,0.7-1.3,1.4-1.9,2c0,0-0.2,0.1-0.2,0c-0.4-0.2-0.8-0.5-1.2-0.7
					c-1.2-0.7-2.4-1.6-3.7-2.3c-0.9-0.6-2-1-3.1-1.1c-0.4-0.1-0.7-0.1-1,0.1c-0.1,0-0.2,0.1-0.2,0.2c0.1,1.3-0.2,2.5-0.7,3.7
					c-0.6,1.7-1.7,3-3,4.2c-0.6,0.5-1.2,0.8-1.8,1.1c-1,0.3-1.8-0.2-1.8-1.2c-0.1-0.6,0.1-1.3,0.3-1.8c0.8-2,2-3.7,3.7-5.1
					c0.6-0.5,1.2-0.9,1.8-1.3c0,0,0.1-0.1,0.2-0.1c-0.4-0.2-0.7-0.2-1.1-0.1c-0.6,0.1-1,0.4-1.5,0.6c-1.8,1-3.3,2.2-4.8,3.8
					c-2.6,2.8-4.8,5.7-6.6,9c-1,1.8-1.8,3.7-2.1,5.8c-0.2,0.8-0.3,1.7-0.1,2.5c0.3,0.9,0.7,1.6,1.7,1.8c0.6,0.2,1.1,0,1.7-0.2
					c0.9-0.4,1.8-1,2.4-1.8c1.4-1.5,2.5-3,3.1-5c0.3-0.7,0.4-1.5,0.4-2.2c-0.1-0.7-0.5-1-1.2-0.7c-0.6,0.2-0.8,0.6-1.2,1
					c-0.7,0.9-1.2,1.9-1.4,3.1c0,0.1-0.1,0.2-0.2,0.2c-1.2,0.6-2.3,1.5-3.2,2.5l-0.1,0.1c0.3-2.3,0.9-4.3,2.4-6.2
					c0.8-1,1.9-1.8,3.3-2.1c0.4-0.1,0.7-0.2,1-0.1c0.6,0.2,0.9,0.6,1.1,1.1c0.3,0.7,0.2,1.5,0.1,2.2c-0.3,1.8-1.1,3.3-2.1,4.8
					c-1.2,1.8-2.8,3.4-4.7,4.5c-0.8,0.5-1.8,0.7-2.7,0.8c-1.6,0.1-2.7-0.6-3.4-1.9c-0.6-1.1-0.8-2.3-0.7-3.6
					c0.1-1.9,0.8-3.8,1.7-5.5c2.3-4.8,5.4-9,9.6-12.3c1.8-1.5,3.8-2.6,5.9-3.2c0.8-0.2,1.6-0.3,2.4-0.1c0.4,0.1,0.6,0.3,0.9,0.6
					c0.1,0.1,0.2,0.1,0.3,0.1c0.6-0.2,1.3-0.5,1.9-0.6c1.7-0.4,3.2-0.1,4.7,0.6C-171,190.9-169.3,191.9-167.7,192.9L-167.7,192.9z
					 M-179.8,191.2c-0.2,0.1-0.4,0.2-0.6,0.3c-2.1,1.3-3.6,3-4.8,5.3c-0.3,0.5-0.5,1-0.6,1.6c-0.1,0.7,0.5,1.1,1.1,0.8
					c0.3-0.1,0.6-0.3,0.7-0.5c2.3-1.8,3.6-4.1,4-6.9C-179.8,191.6-179.8,191.4-179.8,191.2z"/>
				<path class="st7" d="M-154.8,189.4c-0.4,0.7-0.8,1.5-1.4,2.1c-1.7,2.1-3.8,3.7-6.4,4.5c-1.3,0.5-2.7,0.6-4.1,0.3h-0.1
					c-0.1,0-0.1,0-0.2-0.1c0-0.1,0.1-0.1,0.1-0.2c0.6-0.6,1.1-1.4,1.7-2c0.1-0.1,0.2-0.1,0.3-0.1c1.6,0.1,3-0.1,4.5-0.7
					C-158.3,192.3-156.4,191-154.8,189.4L-154.8,189.4z"/>
			</g>
		</g>
		<path class="st7" d="M-193.8,195c-0.3,0.3-0.5,0.6-0.7,0.9c-0.3,0.3-0.5,0.6-0.8,0.9c-0.1,0.1-0.2,0.1-0.2,0.1c-0.9,0-1.8,0-2.6,0
			c0,0,0,0-0.1,0c0,0,0-0.1,0.1-0.1c0.5-0.6,0.9-1.2,1.4-1.8c0.1-0.1,0.1-0.1,0.2-0.1C-195.6,195-194.7,195-193.8,195z"/>
	</g>
</g>
<path class="st7" d="M-85.2,249c-30.4,5.6-60.8,10.3-92.1,10.8c-25.3,0.5-50.2-1.6-74.8-6.9c-24.5-5.3-46.9-14.2-68.2-25.2
	c-0.4-0.2-0.4-0.4-0.9-0.6l-0.3,27.9c1.1,0.3,2.4,0.6,3.4,1c26.2,9,53.6,12.6,81.8,12.1c18.4-0.3,36.6-2,54.7-4.1
	c29.8-3.5,59.5-8.2,89.6-10c14.2-0.8,28.5-0.9,42.6,1.1c4.2,0.6,8.5,1.3,12.5,2c0.1-4.3,0.1-8.6,0.2-12.9
	C-53.3,243.6-69.2,246-85.2,249z"/>
<g>
	<path class="st7" d="M-310.4,199.3h11.8v3.8h-7.2v1.4h6.7v3.3h-6.7v1.5h7.3v3.8h-11.9V199.3z"/>
	<path class="st7" d="M-297.3,198.7h4.5v14.4h-4.5V198.7z"/>
	<path class="st7" d="M-286.4,198.7h4.5v14.4h-4.5V198.7z"/>
	<path class="st7" d="M-281,210L-281,210c0-2.2,1.6-3.4,4.1-3.4c0.9,0,2.1,0.2,2.5,0.4v-0.2c0-1-0.6-1.6-2-1.6c-1.1,0-2,0.2-3,0.6
		l-0.8-3c1.2-0.5,2.7-0.8,4.5-0.8c2.2,0,3.6,0.5,4.6,1.4c0.8,0.8,1.1,1.9,1.1,3.4v6.1h-4.5V212c-0.7,0.8-1.8,1.3-3.1,1.3
		C-279.5,213.3-281,212.1-281,210z M-274.3,209.1v-0.5c-0.3-0.1-0.7-0.2-1-0.2c-0.9,0-1.4,0.5-1.4,1.2v0c0,0.6,0.5,1,1,1
		C-274.9,210.7-274.3,210.1-274.3,209.1z"/>
	<path class="st7" d="M-269,207.8L-269,207.8c0-3.4,2-5.7,4.6-5.7c1.6,0,2.5,0.7,3.2,1.5v-4.8h4.5v14.4h-4.5v-1.3
		c-0.7,0.8-1.6,1.6-3.2,1.6C-266.9,213.3-269,211.1-269,207.8z M-261,207.7L-261,207.7c0-1.1-0.8-2-1.8-2c-1,0-1.8,0.8-1.8,1.9v0
		c0,1.1,0.8,1.9,1.8,1.9C-261.8,209.6-261,208.8-261,207.7z"/>
	<path class="st7" d="M-255.6,207.7L-255.6,207.7c0-3.1,2.5-5.7,6.1-5.7c3.5,0,6,2.6,6,5.6v0c0,3-2.5,5.6-6.1,5.6
		C-253.1,213.3-255.6,210.8-255.6,207.7z M-247.8,207.7L-247.8,207.7c0-1.1-0.8-2-1.8-2c-1,0-1.7,0.8-1.7,1.9v0
		c0,1.1,0.8,1.9,1.8,1.9C-248.6,209.6-247.8,208.7-247.8,207.7z"/>
</g>
<g>
	<path class="st7" d="M-152.4,207.8L-152.4,207.8c0-3.7,2.2-6.2,4.9-6.2c1.8,0,2.7,0.8,3.5,1.6V198h4.8v15.5h-4.8V212
		c-0.8,0.8-1.7,1.7-3.4,1.7C-150.3,213.7-152.4,211.3-152.4,207.8z M-143.9,207.7L-143.9,207.7c0-1.2-0.8-2.1-1.9-2.1
		c-1.1,0-1.9,0.9-1.9,2.1v0c0,1.2,0.8,2.1,1.9,2.1C-144.7,209.8-143.9,208.9-143.9,207.7z"/>
	<path class="st7" d="M-138.1,207.7L-138.1,207.7c0-3.5,2.5-6.1,6-6.1c4.1,0,6,2.9,6,6.4c0,0.3,0,0.6,0,0.8h-7.5
		c0.3,1,1.1,1.5,2.2,1.5c0.9,0,1.6-0.4,2.4-1.2l2.6,2.1c-1.1,1.5-2.8,2.5-5.3,2.5C-135.5,213.7-138.1,211.3-138.1,207.7z
		 M-130.5,206.7c-0.1-1.1-0.8-1.7-1.6-1.7c-0.8,0-1.4,0.7-1.5,1.7H-130.5z"/>
	<path class="st7" d="M-119.6,198h4.8v15.5h-4.8V198z"/>
	<path class="st7" d="M-113.7,210.2L-113.7,210.2c0-2.4,1.7-3.7,4.4-3.7c1,0,2.2,0.2,2.7,0.4v-0.2c0-1.1-0.7-1.7-2.1-1.7
		c-1.2,0-2.2,0.3-3.2,0.7l-0.8-3.2c1.3-0.5,2.9-0.8,4.9-0.8c2.4,0,3.9,0.5,4.9,1.5c0.9,0.9,1.2,2,1.2,3.7v6.6h-4.8v-1.2
		c-0.8,0.9-1.9,1.4-3.3,1.4C-112.2,213.7-113.7,212.5-113.7,210.2z M-106.6,209.2v-0.5c-0.3-0.1-0.7-0.2-1.1-0.2
		c-1,0-1.5,0.6-1.5,1.3v0c0,0.7,0.5,1.1,1.1,1.1C-107.2,211-106.6,210.3-106.6,209.2z"/>
	<path class="st7" d="M-95.8,201.9h5.1l1.9,5.8l1.9-5.8h5l-4.7,11.7h-4.4L-95.8,201.9z"/>
	<path class="st7" d="M-81.3,198h5v3.1h-5V198z M-81.2,201.9h4.8v11.6h-4.8V201.9z"/>
	<path class="st7" d="M-75.2,207.8L-75.2,207.8c0-3.7,2.2-6.2,4.9-6.2c1.8,0,2.7,0.8,3.5,1.6V198h4.8v15.5h-4.8V212
		c-0.8,0.8-1.7,1.7-3.4,1.7C-73,213.7-75.2,211.3-75.2,207.8z M-66.7,207.7L-66.7,207.7c0-1.2-0.8-2.1-1.9-2.1
		c-1.1,0-1.9,0.9-1.9,2.1v0c0,1.2,0.8,2.1,1.9,2.1C-67.5,209.8-66.7,208.9-66.7,207.7z"/>
	<path class="st7" d="M-61,210.2L-61,210.2c0-2.4,1.7-3.7,4.4-3.7c1,0,2.2,0.2,2.7,0.4v-0.2c0-1.1-0.7-1.7-2.1-1.7
		c-1.2,0-2.2,0.3-3.2,0.7l-0.8-3.2c1.3-0.5,2.9-0.8,4.9-0.8c2.4,0,3.9,0.5,4.9,1.5c0.9,0.9,1.2,2,1.2,3.7v6.6h-4.8v-1.2
		c-0.8,0.9-1.9,1.4-3.3,1.4C-59.4,213.7-61,212.5-61,210.2z M-53.8,209.2v-0.5c-0.3-0.1-0.7-0.2-1.1-0.2c-1,0-1.5,0.6-1.5,1.3v0
		c0,0.7,0.5,1.1,1.1,1.1C-54.4,211-53.8,210.3-53.8,209.2z"/>
</g>
</svg>
