<?xml version="1.0" encoding="utf-8"?>
<!-- Generator: Adobe Illustrator 18.1.1, SVG Export Plug-In . SVG Version: 6.00 Build 0)  -->
<svg version="1.1" id="Layer_1" xmlns="http://www.w3.org/2000/svg" xmlns:xlink="http://www.w3.org/1999/xlink" x="0px" y="0px"
	 viewBox="0 0 601.7 310.3" enable-background="new 0 0 601.7 310.3" xml:space="preserve">
<g>
	<g>
		<path fill="#F9BD91" d="M520.5,41.7v32.2h-4.9v10.6c0,0-5.5,10.8-18.9,0v-22c0,0-4.1-0.8-4.1-5.5s4.7-2.4,4.7-2.4V41.7H520.5z"/>
		<polygon fill="#8B5E3C" points="492.2,272.8 490.9,279.1 485.4,279.1 485.4,272.8 		"/>
		<path fill="#231F20" d="M485.4,279.1h5.5c0,0,2.1,6.9-5,7.3h-9.3c0,0-2-4.4,3.5-4.7C480.1,281.7,484.9,280.9,485.4,279.1z"/>
		<polygon fill="#8B5E3C" points="516.9,272.8 518.2,279.1 523.7,279.1 523.7,272.8 		"/>
		<path fill="#231F20" d="M523.7,279.1h-5.5c0,0-2.1,6.9,5,7.3h9.3c0,0,2-4.4-3.5-4.7C529,281.7,524.2,280.9,523.7,279.1z"/>
		<path fill="#E6E7E8" d="M503.6,64.3h16.1c0,0-2.8-5-8-5C506.5,59.3,503.6,64.3,503.6,64.3z"/>
		<path fill="#E6E7E8" d="M503.6,64.3l-0.8,0.9c0,0,7.1,1.2,9.3-0.9c0,0,5.4,1.1,8.1,0.9l-0.7-1.1C519.6,64.1,508.6,63,503.6,64.3z"
			/>
		<polygon fill="#C19368" points="486.9,161.2 484.7,272.8 492.7,272.8 508.3,181.4 516.9,272.8 524.5,272.8 527.4,160.6 		"/>
		<path fill="#262262" d="M476.3,85.3c0,0,19.9-11.2,60.1,0l-7.6,75.5c0,0-16.5,1.2-43.3-0.2L476.3,85.3z"/>
		<polygon fill="#8B5E3C" points="492.2,272.8 490.9,279.1 485.4,279.1 485.4,272.8 		"/>
		<path fill="#231F20" d="M485.4,279.1h5.5c0,0,2.1,6.9-5,7.3h-9.3c0,0-2-4.4,3.5-4.7C480.1,281.7,484.9,280.9,485.4,279.1z"/>
		<polygon fill="#8B5E3C" points="516.9,272.8 518.2,279.1 523.7,279.1 523.7,272.8 		"/>
		<path fill="#231F20" d="M523.7,279.1h-5.5c0,0-2.1,6.9,5,7.3h9.3c0,0,2-4.4-3.5-4.7C529,281.7,524.2,280.9,523.7,279.1z"/>
		<polygon fill="#262262" points="484.7,160.8 481,208 506,208 507.6,189.6 509.3,208 529,208 528.8,160.8 		"/>
		<polygon fill="#77173C" points="484.7,244.5 497.5,244.5 491.2,280.6 484.7,280.6 		"/>
		<polygon fill="#77173C" points="525.2,245.3 513.8,245.4 517.3,279.8 524.5,279.8 		"/>
		<path fill="#C19368" d="M447.7,102.8c0,0-17.7-3.9-24.8-18.5c0,0-1.5-4.2-3.5-4.1c-2,0.2-0.9,3.9-0.9,3.9s-1.8-9-4.4-8.7
			c-2.6,0.3-9,3.3-0.5,17.6c0,0,19.6,24.1,36.4,20.5C450.2,113.5,460.9,103.4,447.7,102.8z"/>
		<path fill="#262262" d="M476.5,85c0,0-9.3,14.2-25.9,17c0,0-1.8,10,3.2,12.7c0,0,20.4-3.6,28.6-12.9L476.5,85z"/>
		<path fill="#F9ED32" d="M454.8,114.5c0,0-4.5-6.7-2.2-12.9l-4.4,0.7c0,0-0.1,10.6,3.2,12.7L454.8,114.5z"/>
		<path fill="#C19368" d="M567.3,98.1c0,0,16.8-6.8,21.4-22.3c0,0,0.8-4.4,2.7-4.6c2-0.2,1.5,3.7,1.5,3.7s0.3-9.2,2.9-9.3
			c2.6-0.2,9.5,1.8,3.4,17.3c0,0-15.4,27-32.6,26.2C566.7,109.1,554.4,100.9,567.3,98.1z"/>
		<path fill="#262262" d="M536,85.3c0,0,11.5,12.4,28.4,12.4c0,0,3.5,9.6-1,13c0,0-20.8-0.2-30.3-8L536,85.3z"/>
		<path fill="#F9ED32" d="M562.3,110.8c0,0,3.4-7.3,0-13.1h4.4c0,0,1.8,10.4-1.1,13.1H562.3z"/>
		<path fill="#F9BD91" d="M314.2,41.7v32.2h-4.9v10.6c0,0-5.5,10.8-18.9,0v-22c0,0-4.1-0.8-4.1-5.5s4.7-2.4,4.7-2.4V41.7H314.2z"/>
		<polygon fill="#8B5E3C" points="285.9,272.8 284.6,279.1 279.1,279.1 279.1,272.8 		"/>
		<path fill="#231F20" d="M279.1,279.1h5.5c0,0,2.1,6.9-5,7.3h-9.3c0,0-2-4.4,3.5-4.7C273.8,281.7,278.6,280.9,279.1,279.1z"/>
		<polygon fill="#8B5E3C" points="310.6,272.8 311.9,279.1 317.4,279.1 317.4,272.8 		"/>
		<path fill="#231F20" d="M317.4,279.1h-5.5c0,0-2.1,6.9,5,7.3h9.3c0,0,2-4.4-3.5-4.7C322.7,281.7,317.9,280.9,317.4,279.1z"/>
		<path fill="#E6E7E8" d="M297.4,64.3h16.1c0,0-2.8-5-8-5C300.2,59.3,297.4,64.3,297.4,64.3z"/>
		<path fill="#E6E7E8" d="M297.4,64.3l-0.8,0.9c0,0,7.1,1.2,9.3-0.9c0,0,5.4,1.1,8.1,0.9l-0.7-1.1C313.3,64.1,302.3,63,297.4,64.3z"
			/>
		<polygon fill="#C19368" points="280.6,161.2 278.4,272.8 286.4,272.8 302,181.4 310.6,272.8 318.2,272.8 321.1,160.6 		"/>
		<path fill="#262262" d="M270,85.3c0,0,19.9-11.2,60.1,0l-7.6,75.5c0,0-16.5,1.2-43.3-0.2L270,85.3z"/>
		<polygon fill="#8B5E3C" points="285.9,272.8 284.6,279.1 279.1,279.1 279.1,272.8 		"/>
		<path fill="#231F20" d="M279.1,279.1h5.5c0,0,2.1,6.9-5,7.3h-9.3c0,0-2-4.4,3.5-4.7C273.8,281.7,278.6,280.9,279.1,279.1z"/>
		<polygon fill="#8B5E3C" points="310.6,272.8 311.9,279.1 317.4,279.1 317.4,272.8 		"/>
		<path fill="#231F20" d="M317.4,279.1h-5.5c0,0-2.1,6.9,5,7.3h9.3c0,0,2-4.4-3.5-4.7C322.7,281.7,317.9,280.9,317.4,279.1z"/>
		<polygon fill="#262262" points="278.4,160.8 274.7,208 299.8,208 301.4,189.6 303,208 322.7,208 322.5,160.8 		"/>
		<polygon fill="#77173C" points="278.4,244.5 291.2,244.5 284.9,280.6 278.4,280.6 		"/>
		<polygon fill="#77173C" points="318.9,245.3 307.5,245.4 311,279.8 318.2,279.8 		"/>
		<path fill="#F9BD91" d="M314.2,41.7v32.2h-4.9v10.6c0,0-5.5,10.8-18.9,0v-22c0,0-4.1-0.8-4.1-5.5s4.7-2.4,4.7-2.4V41.7H314.2z"/>
		<path fill="#3C2415" d="M291,54.6v1.9h1.9h0.7v-6.1c0,0,3.7-1,3.8-3c0.2-2,0-3.8,0-3.8h16.1l0.8,2.5c0,0,1.3-3.9-0.8-6
			s-24.8-3.2-27.9,5.1c0,0-0.5,11.1,0.8,13c0,0-1-4,1.8-4.2C290.9,53.9,291,54.6,291,54.6z"/>
		<path fill="#C19368" d="M241.4,102.8c0,0-17.7-3.9-24.8-18.5c0,0-1.5-4.2-3.5-4.1c-2,0.2-0.9,3.9-0.9,3.9s-1.8-9-4.4-8.7
			c-2.6,0.3-9,3.3-0.5,17.6c0,0,19.6,24.1,36.4,20.5C243.9,113.5,254.6,103.4,241.4,102.8z"/>
		<path fill="#262262" d="M270.2,85c0,0-9.3,14.2-25.9,17c0,0-1.8,10,3.2,12.7c0,0,20.4-3.6,28.6-12.9L270.2,85z"/>
		<path fill="#F9BD91" d="M361,98.1c0,0,16.8-6.8,21.4-22.3c0,0,0.8-4.4,2.7-4.6c2-0.2,1.5,3.7,1.5,3.7s0.3-9.2,2.9-9.3
			c2.6-0.2,9.5,1.8,3.4,17.3c0,0-15.4,27-32.6,26.2C360.4,109.1,348.1,100.9,361,98.1z"/>
		<path fill="#262262" d="M329.7,85.3c0,0,11.5,12.4,28.4,12.4c0,0,3.5,9.6-1,13c0,0-20.8-0.2-30.3-8L329.7,85.3z"/>
		<path fill="#F9ED32" d="M356,110.8c0,0,3.4-7.3,0-13.1h4.4c0,0,1.8,10.4-1.1,13.1H356z"/>
		<polygon fill="#006838" points="355.6,63.3 353.9,65.4 366.3,73.1 370.1,69.6 356.6,61.9 		"/>
		<polygon fill="#8B5E3C" points="92.6,272.8 91.3,279.1 85.8,279.1 85.8,272.8 		"/>
		<path fill="#231F20" d="M85.8,279.1h5.5c0,0,2.1,6.9-5,7.3H77c0,0-2-4.4,3.5-4.7C80.5,281.7,85.3,280.9,85.8,279.1z"/>
		<polygon fill="#8B5E3C" points="92.6,272.8 91.3,279.1 85.8,279.1 85.8,272.8 		"/>
		<path fill="#231F20" d="M85.8,279.1h5.5c0,0,2.1,6.9-5,7.3H77c0,0-2-4.4,3.5-4.7C80.5,281.7,85.3,280.9,85.8,279.1z"/>
		<path fill="#231F20" d="M124.1,279.1h-5.5c0,0-2.1,6.9,5,7.3h9.3c0,0,2-4.4-3.5-4.7C129.4,281.7,124.6,280.9,124.1,279.1z"/>
		<path fill="#F9BD91" d="M419.9,41.7v32.2H415v10.6c0,0-5.5,10.8-18.9,0v-22c0,0-4.1-0.8-4.1-5.5s4.7-2.4,4.7-2.4V41.7H419.9z"/>
		<polygon fill="#8B5E3C" points="421.1,272.8 422.4,279.1 427.9,279.1 427.9,272.8 		"/>
		<path fill="#231F20" d="M427.9,279.1h-5.5c0,0-2.1,6.9,5,7.3h9.3c0,0,2-4.4-3.5-4.7C433.2,281.7,428.4,280.9,427.9,279.1z"/>
		<polygon fill="#8B5E3C" points="396.4,272.8 395.1,279.1 389.6,279.1 389.6,272.8 		"/>
		<path fill="#231F20" d="M389.6,279.1h5.5c0,0,2.1,6.9-5,7.3h-9.3c0,0-2-4.4,3.5-4.7C384.3,281.7,389.1,280.9,389.6,279.1z"/>
		<path fill="#E6E7E8" d="M403,64.3h16.1c0,0-2.8-5-8-5C405.9,59.3,403,64.3,403,64.3z"/>
		<polygon fill="#F9BD91" points="426.4,161.2 428.6,272.8 420.6,272.8 405,181.4 396.4,272.8 388.8,272.8 385.9,160.6 		"/>
		<path fill="#262262" d="M437,85.3c0,0-19.9-11.2-60.1,0l7.6,75.5c0,0,16.5,1.2,43.3-0.2L437,85.3z"/>
		<polygon fill="#8B5E3C" points="421.1,272.8 422.4,279.1 427.9,279.1 427.9,272.8 		"/>
		<path fill="#231F20" d="M427.9,279.1h-5.5c0,0-2.1,6.9,5,7.3h9.3c0,0,2-4.4-3.5-4.7C433.2,281.7,428.4,280.9,427.9,279.1z"/>
		<polygon fill="#8B5E3C" points="396.4,272.8 395.1,279.1 389.6,279.1 389.6,272.8 		"/>
		<path fill="#231F20" d="M389.6,279.1h5.5c0,0,2.1,6.9-5,7.3h-9.3c0,0-2-4.4,3.5-4.7C384.3,281.7,389.1,280.9,389.6,279.1z"/>
		<polygon fill="#262262" points="428.6,160.8 432.3,208 407.3,208 405.7,189.6 404,208 384.3,208 384.5,160.8 		"/>
		<polygon fill="#77173C" points="428.6,244.5 415.8,244.5 422.1,280.6 428.6,280.6 		"/>
		<polygon fill="#77173C" points="388.1,245.3 399.5,245.4 396,279.8 388.8,279.8 		"/>
		<path fill="#F9BD91" d="M419.9,41.7v32.2H415v10.6c0,0-5.5,10.8-18.9,0v-22c0,0-4.1-0.8-4.1-5.5s4.7-2.4,4.7-2.4V41.7H419.9z"/>
		<path fill="#F9BD91" d="M352.8,17.1c-0.4-18.4,7.5-17.7,10.1-16.6c2.6,1.2-0.6,10.7-0.6,10.7s1-4.1,3-3.2c2,0.9,1.1,5.8,1.1,5.8
			s-0.8,8.2-6.4,7.9C354.3,21.6,352.8,17.1,352.8,17.1z"/>
		<polygon fill="#262262" points="385.2,85.8 367.4,63.3 354.4,70.1 383.9,108.3 382.2,93.9 		"/>
		<polygon fill="#F9BD91" points="367.4,63.3 359.8,52.9 362.1,21.4 354.2,19.4 349,57.2 355.7,69.7 		"/>
		<polygon fill="#F9ED32" points="367.4,63.3 369.1,65.4 356.7,73.1 353,69.6 366.4,61.9 		"/>
		<path fill="#F9BD91" d="M204.2,41.7v32.2h-4.9v10.6c0,0-5.5,10.8-18.9,0v-22c0,0-4.1-0.8-4.1-5.5s4.7-2.4,4.7-2.4V41.7H204.2z"/>
		<polygon fill="#8B5E3C" points="175.9,272.8 174.6,279.1 169.1,279.1 169.1,272.8 		"/>
		<path fill="#231F20" d="M169.1,279.1h5.5c0,0,2.1,6.9-5,7.3h-9.3c0,0-2-4.4,3.5-4.7C163.8,281.7,168.6,280.9,169.1,279.1z"/>
		<polygon fill="#8B5E3C" points="200.6,272.8 201.9,279.1 207.4,279.1 207.4,272.8 		"/>
		<path fill="#231F20" d="M207.4,279.1h-5.5c0,0-2.1,6.9,5,7.3h9.3c0,0,2-4.4-3.5-4.7C212.7,281.7,207.9,280.9,207.4,279.1z"/>
		<path fill="#E6E7E8" d="M187.4,64.3h16.1c0,0-2.8-5-8-5C190.2,59.3,187.4,64.3,187.4,64.3z"/>
		<path fill="#E6E7E8" d="M187.4,64.3l-0.8,0.9c0,0,7.1,1.2,9.3-0.9c0,0,5.4,1.1,8.1,0.9l-0.7-1.1C203.3,64.1,192.3,63,187.4,64.3z"
			/>
		<polygon fill="#F9BD91" points="170.6,161.2 168.4,272.8 176.4,272.8 192,181.4 200.6,272.8 208.2,272.8 211.1,160.6 		"/>
		<path fill="#262262" d="M160,85.3c0,0,19.9-11.2,60.1,0l-7.6,75.5c0,0-16.5,1.2-43.3-0.2L160,85.3z"/>
		<polygon fill="#8B5E3C" points="175.9,272.8 174.6,279.1 169.1,279.1 169.1,272.8 		"/>
		<path fill="#231F20" d="M169.1,279.1h5.5c0,0,2.1,6.9-5,7.3h-9.3c0,0-2-4.4,3.5-4.7C163.8,281.7,168.6,280.9,169.1,279.1z"/>
		<polygon fill="#8B5E3C" points="200.6,272.8 201.9,279.1 207.4,279.1 207.4,272.8 		"/>
		<path fill="#231F20" d="M207.4,279.1h-5.5c0,0-2.1,6.9,5,7.3h9.3c0,0,2-4.4-3.5-4.7C212.7,281.7,207.9,280.9,207.4,279.1z"/>
		<polygon fill="#262262" points="168.4,160.8 164.7,208 189.8,208 191.4,189.6 193,208 212.7,208 212.5,160.8 		"/>
		<polygon fill="#77173C" points="168.4,244.5 181.2,244.5 174.9,280.6 168.4,280.6 		"/>
		<polygon fill="#77173C" points="209,245.3 197.5,245.4 201,279.8 208.2,279.8 		"/>
		<path fill="#F9BD91" d="M204.2,41.7v32.2h-4.9v10.6c0,0-5.5,10.8-18.9,0v-22c0,0-4.1-0.8-4.1-5.5s4.7-2.4,4.7-2.4V41.7H204.2z"/>
		<path fill="#F9BD91" d="M131.5,102.8c0,0-17.7-3.9-24.8-18.5c0,0-1.5-4.2-3.5-4.1c-2,0.2-0.9,3.9-0.9,3.9s-1.8-9-4.4-8.7
			c-2.6,0.3-9,3.3-0.5,17.6c0,0,19.6,24.1,36.4,20.5C133.9,113.5,144.6,103.4,131.5,102.8z"/>
		<path fill="#262262" d="M160.2,85c0,0-9.3,14.2-25.9,17c0,0-1.8,10,3.2,12.7c0,0,20.4-3.6,28.6-12.9L160.2,85z"/>
		<path fill="#726658" d="M181,54.6l1.6-10.1l21.6-1.1c0,0,1.7-7.7-13.1-7.6s-12,18.4-12,18.4"/>
		<polygon fill="#77173C" points="536,85.3 528.8,160.8 520.9,160.8 526,82.8 		"/>
		<path fill="#77173C" d="M515.6,84.5l-2,76.3h-9.8l-1-72.5C502.9,88.3,511,91.2,515.6,84.5z"/>
		<path fill="#77173C" d="M476.5,85l9,75.6h9.5l-6.8-79C488.2,81.6,478.1,82.9,476.5,85z"/>
		<path fill="#C19368" d="M520.5,41.7v32.2h-4.9v10.6c0,0-5.5,10.8-18.9,0v-22c0,0-4.1-0.8-4.1-5.5s4.7-2.4,4.7-2.4V41.7H520.5z"/>
		<path fill="#231F20" d="M497.3,54.6v1.9h1.9h0.7v-6.1c0,0,3.7-1,3.8-3c0.2-2,0-3.8,0-3.8h16.1l0.8,2.5c0,0,1.3-3.9-0.8-6
			c-2.1-2.1-24.8-3.2-27.9,5.1c0,0-0.5,11.1,0.8,13c0,0-1-4,1.8-4.2C497.2,53.9,497.3,54.6,497.3,54.6z"/>
		<path fill="#F9BD91" d="M465.6,102.8c0,0,17.7-3.9,24.8-18.5c0,0,1.5-4.2,3.5-4.1c2,0.2,0.9,3.9,0.9,3.9s1.8-9,4.4-8.7
			c2.6,0.3,9,3.3,0.5,17.6c0,0-19.6,24.1-36.4,20.5C463.1,113.5,452.4,103.4,465.6,102.8z"/>
		<path fill="#262262" d="M436.8,85c0,0,9.3,14.2,25.9,17c0,0,1.8,10-3.2,12.7c0,0-20.4-3.6-28.6-12.9L436.8,85z"/>
		<path fill="#F9ED32" d="M458.5,114.5c0,0,4.5-6.7,2.2-12.9l4.4,0.7c0,0,0.1,10.6-3.2,12.7L458.5,114.5z"/>
		<polygon fill="#77173C" points="435.5,84.9 428.3,160.4 420.4,160.4 425.8,81.7 		"/>
		<path fill="#77173C" d="M415,84.5l-0.6,75.9h-11.2l-0.9-72.1C402.3,88.3,410.4,91.2,415,84.5z"/>
		<path fill="#77173C" d="M381.3,80.9l4.9,79.4h9.5l-5.6-78C390.1,82.2,383,83.5,381.3,80.9z"/>
		<polygon fill="#77173C" points="330,84.9 322.8,160.4 314.9,160.4 320,82.4 		"/>
		<path fill="#77173C" d="M309.6,84.1l-2,76.3h-9.8l-1-72.5C296.9,87.9,305,90.8,309.6,84.1z"/>
		<path fill="#77173C" d="M270.5,84.6l9,75.6h9.5l-6.8-79C282.2,81.2,272.1,82.5,270.5,84.6z"/>
		<path fill="#F9BD91" d="M251,98.1c0,0,16.8-6.8,21.4-22.3c0,0,0.8-4.4,2.7-4.6c2-0.2,1.5,3.7,1.5,3.7s0.3-9.2,2.9-9.3
			c2.6-0.2,9.5,1.8,3.4,17.3c0,0-15.4,27-32.6,26.2C250.4,109.1,238.2,100.9,251,98.1z"/>
		<path fill="#262262" d="M219.7,85.3c0,0,11.5,12.4,28.4,12.4c0,0,3.5,9.6-1,13c0,0-20.8-0.2-30.3-8L219.7,85.3z"/>
		<path fill="#F9ED32" d="M246,110.8c0,0,3.4-7.3,0-13.1h4.4c0,0,1.8,10.4-1.1,13.1H246z"/>
		<polygon fill="#77173C" points="219.5,85.5 212.3,161 204.4,161 209.5,83 		"/>
		<path fill="#77173C" d="M199.1,84.7l-2,76.3h-9.8l-1-72.5C186.4,88.5,194.5,91.4,199.1,84.7z"/>
		<path fill="#77173C" d="M160,85.2l9,75.6h9.5l-6.8-79C171.7,81.8,161.6,83.1,160,85.2z"/>
		<path fill="#F9BD91" d="M93.8,41.7v32.2h4.9v10.6c0,0,5.5,10.8,18.9,0v-22c0,0,4.1-0.8,4.1-5.5s-4.7-2.4-4.7-2.4V41.7H93.8z"/>
		<path fill="#E6E7E8" d="M110.7,64.3H94.6c0,0,2.8-5,8-5C107.8,59.3,110.7,64.3,110.7,64.3z"/>
		<polygon fill="#F9BD91" points="87.3,161.2 85.1,272.8 93.1,272.8 108.7,181.4 117.3,272.8 124.9,272.8 127.8,160.6 		"/>
		<path fill="#262262" d="M76.7,85.3c0,0,19.9-11.2,60.1,0l-7.6,75.5c0,0-16.5,1.2-43.3-0.2L76.7,85.3z"/>
		<polygon fill="#262262" points="85.1,160.8 81.4,208 106.5,208 108,189.6 109.7,208 129.4,208 129.2,160.8 		"/>
		<polygon fill="#77173C" points="85.1,244.5 97.9,244.5 91.6,280.6 85.1,280.6 		"/>
		<polygon fill="#77173C" points="125.6,245.3 114.2,245.4 117.7,279.8 124.9,279.8 		"/>
		<path fill="#F9BD91" d="M93.8,41.7v32.2h4.9v10.6c0,0,5.5,10.8,18.9,0v-22c0,0,4.1-0.8,4.1-5.5s-4.7-2.4-4.7-2.4V41.7H93.8z"/>
		<path fill="#F9BD91" d="M48.1,102.8c0,0-17.7-3.9-24.8-18.5c0,0-1.5-4.2-3.5-4.1c-2,0.2-0.9,3.9-0.9,3.9s-1.8-9-4.4-8.7
			c-2.6,0.3-9,3.3-0.5,17.6c0,0,19.6,24.1,36.4,20.5C50.6,113.5,61.3,103.4,48.1,102.8z"/>
		<path fill="#262262" d="M76.9,85c0,0-9.3,14.2-25.9,17c0,0-1.8,10,3.2,12.7c0,0,20.4-3.6,28.6-12.9L76.9,85z"/>
		<path fill="#F9BD91" d="M160.9,17.1c0.4-18.4-7.5-17.7-10.1-16.6s0.6,10.7,0.6,10.7s-1-4.1-3-3.2c-2,0.9-1.1,5.8-1.1,5.8
			s0.8,8.2,6.4,7.9C159.4,21.6,160.9,17.1,160.9,17.1z"/>
		<polygon fill="#262262" points="128.5,85.8 146.3,63.3 159.3,70.1 129.8,108.3 131.5,93.9 		"/>
		<polygon fill="#F9BD91" points="146.3,63.3 153.9,52.9 151.6,21.4 159.5,19.4 164.7,57.2 158,69.7 		"/>
		<path fill="#3C2415" d="M114.7,45.7v13.7l2-0.2l0.3-4.6l1.7-0.5V38.2c0,0-15.6-15.2-24.9,3.6c0,0-3.8,2.4-3.2,2.8
			c0.6,0.4,13.3-2.8,13.3-2.8l-2.9,2.8l13.9-1.9L114.7,45.7z"/>
		<path fill="#F9ED32" d="M138.5,114.5c0,0-4.5-6.7-2.2-12.9l-4.4,0.7c0,0-0.1,10.6,3.2,12.7L138.5,114.5z"/>
		<polygon fill="#77173C" points="77.3,84.6 85.1,160.8 94.4,160.4 88.5,81.6 		"/>
		<path fill="#77173C" d="M99.3,85.3l2.4,75.1h9.8l1-72.5C112.4,87.9,103.9,92.1,99.3,85.3z"/>
		<path fill="#77173C" d="M136.4,86.5l-7.1,73.7h-9l6.1-77.4C126.4,82.8,134.8,84.4,136.4,86.5z"/>
		<path fill="#F9ED32" d="M509.2,89.3l-2.7,9.4L505,89C505,89,508.7,88.1,509.2,89.3z"/>
		<path fill="#F9ED32" d="M407.6,88.7l-2.7,9.4l-1.6-9.7C403.4,88.4,407.1,87.5,407.6,88.7z"/>
		<path fill="#F9ED32" d="M300.8,87.9l-2.7,9.4l-1.6-9.7C296.6,87.6,300.3,86.7,300.8,87.9z"/>
		<path fill="#F9ED32" d="M192.4,88.7l-2.7,9.4l-1.6-9.7C188.1,88.4,191.9,87.5,192.4,88.7z"/>
		<path fill="#F9ED32" d="M108.9,88.7l-2.7,9.4l-1.6-9.7C104.6,88.4,108.4,87.5,108.9,88.7z"/>
		<path fill="#D8B41A" d="M398.7,39.4c-0.8-1.8-2-3.4-3.5-4.6c-0.2,2.3-0.3,4.7-0.5,7c-1.6-0.7-3.3-1-5.1-1
			c1.8,3.9,2.6,8.3,2.2,12.6c3.7,1.5,7.1,3.4,10.4,5.7c-2-1.4-3.1-4-2.8-6.4c0.4,1.7,1.9,3.1,3.6,3.5c-2.8-3.1-3.7-7.8-2.1-11.6
			c1,2.2,3,3.8,5.3,4.8c2.2,1,4.7,1.4,7.1,1.6c-2.8-0.9-4.9-3.7-4.9-6.7c2.3,2.2,4.9,4.5,8.1,4.7c1.3,0.1,2.8-0.1,3.5,1
			c-2.3-0.8-3.8-3.3-3.5-5.6c3.2,1,5.9,3.4,7.2,6.4c1.3-2.8,2.6-6,1.3-8.7c-0.7-1.5-2.1-2.6-3.5-3.6c-0.2-0.1-0.4-0.3-0.6-0.3
			c-0.3,0-0.5,0.1-0.7,0.2c-1,0.4-2.1,0.8-3.1,1.2c0.3-1.7,1.4-3.3,2.9-4.1c-1.9-0.5-3.9-0.7-5.8-0.2c-1.9,0.5-3.6,1.9-4.3,3.7
			c-0.6-0.6-0.6-1.7-0.3-2.4c0.4-0.8,1.1-1.4,1.7-2c-2.7-0.3-5.5,1.6-6.4,4.2c-1.7-1-1.9-3.8-0.3-5
			C401.6,33.8,399.9,36.8,398.7,39.4z"/>
		<path fill="#D8B41A" d="M393.5,61.3c0,0.1-0.2-0.1-0.1-0.1c0.1,0,0.2,0.1,0.3,0.3c0.3,1.1-0.1,2.4-0.9,3.3
			c-0.8,0.9-1.8,1.5-2.9,1.9c1.1,0.6,2.7,0.1,3.1-1.1c0.3,1.5-0.4,3.1-1.7,3.9c0.6,0.5,1.6,0.4,2.3-0.1c0.7-0.5,1.1-1.2,1.5-1.9
			c-0.6,0.9-0.4,2.1,0,3s1.3,1.6,2.1,2.3c-0.5-3-0.5-6.1,0.1-9c0-0.2,0.1-0.4,0-0.6c-0.2-0.4-0.7-0.4-1.1-0.4
			c-1.2-0.1-2.1-1.2-2.4-2.4c-0.3-1.2-0.1-2.4,0.3-3.6c0.3-0.9,0.9-2,1.9-2c-0.9-0.8-2-1.3-3.1-1.8c-0.4-0.1-0.9-0.3-1.2,0
			c-0.2,0.1-0.4,0.4-0.5,0.7c-0.5,1-0.7,2.2-0.7,3.3c0,1.3,0.2,2.5,0.9,3.6c1.1,1.8,3.5,2.9,3.9,5"/>
	</g>
	<rect x="4.8" y="222.2" fill="#414042" width="67.4" height="82.8"/>
	<g>
		<rect x="24.3" y="172.5" fill="#888C8B" width="28.3" height="2.7"/>
		<rect x="25.5" y="175.3" fill="#767777" width="25.9" height="2.4"/>
		<rect x="26.4" y="177.6" fill="#5F6060" width="24.1" height="1.9"/>
		<rect x="28.8" y="179.5" fill="#484949" width="19.2" height="3.7"/>
		<rect x="24.9" y="153" fill="#909392" width="27.1" height="19.5"/>
		<rect x="24" y="150.7" fill="#A0A0A0" width="28.9" height="2.4"/>
		<path fill="#A0A0A0" d="M50.5,150.7v-3.6h12.1c0,0,3.9,23.9-11.1,30.5v-2.4c0,0,10.4-8.3,8.7-25.6h-7l-1.2,2.2L50.5,150.7z"/>
		<polygon fill="#484949" points="30.9,183.2 33.7,188.8 42.3,188.8 46,183.2 		"/>
		<rect x="33.7" y="188.8" fill="#909392" width="8.6" height="8.8"/>
		<rect x="30.9" y="153" fill="#C2C4C3" width="2.8" height="19.5"/>
		<rect x="35.7" y="188.8" fill="#C2C4C3" width="1.8" height="8.8"/>
		<path fill="#A0A0A0" d="M26.4,150.7v-3.6H14.3c0,0-3.9,23.9,11.1,30.5v-2.4c0,0-10.4-8.3-8.7-25.6h7l1.2,2.2L26.4,150.7z"/>
		<path fill="#A0A0A0" d="M33.7,197.5c0,0-3.7,1.9-4.8,4.4H46c0,0-1.3-3.3-3.7-4.4H33.7z"/>
		<path fill="#0B0C11" d="M28.8,202c0,0-5.8,1-5.8,7.1v5.7c0,0-4.6,2.3-5.5,6.9c0,0,16.4,5.8,36.1,0c0,0-1.5-5-4.7-6.5v-7.6
			c0,0,0.2-3.7-3-5.6H28.8z"/>
		<rect x="35.7" y="153" fill="#5F6060" width="0.9" height="19.5"/>
	</g>
	<g>
		<path fill="#5F6060" d="M122.2,148.4h34.8c0,0,3.6,20.1-9.2,29.2h-16C131.9,177.6,120.6,171,122.2,148.4z"/>
		<rect x="131.9" y="177.6" fill="#767777" width="15.6" height="15.5"/>
		<rect x="133.3" y="193.1" fill="#888C8B" width="13" height="2"/>
		<path fill="#484949" d="M145.2,196.6h-10.1c-0.1,0-0.3-0.1-0.3-0.3v-0.9c0-0.1,0.1-0.3,0.3-0.3h10.1c0.1,0,0.3,0.1,0.3,0.3v0.9
			C145.5,196.5,145.4,196.6,145.2,196.6z"/>
		<path fill="#767777" d="M144.8,198h-10.1c-0.1,0-0.3-0.1-0.3-0.3v-0.9c0-0.1,0.1-0.3,0.3-0.3h10.1c0.1,0,0.3,0.1,0.3,0.3v0.9
			C145,197.9,144.9,198,144.8,198z"/>
		<path fill="#0B0C11" d="M123.2,202.7v13c0,0-5.3,2.7-6,5.8c0,0,22.8,4.7,43.7,0c0,0-1-3.7-5.3-5.7v-13.1H123.2z"/>
		<path fill="#5F6060" d="M135.1,198c0,0-9.2,0.6-11.8,4.7c0,0,18.1,3.1,32.4,0c0,0-2-3.3-11.3-4.7H135.1z"/>
		<path fill="#0B0C11" d="M157.4,150.9c0-0.3,11.8,0,11.8,0s-3.1,33.9-21.6,38.4v-1.5c0,0,16.1-7.2,16.7-33.8h-6.7L157.4,150.9z"/>
		<path fill="#0B0C11" d="M122.1,150.9c0-0.3-11.8,0-11.8,0s3.1,33.9,21.6,38.4v-1.5c0,0-16.1-7.2-16.7-33.8h6.7L122.1,150.9z"/>
		<rect x="133.3" y="148.4" fill="#767777" width="3.6" height="29.2"/>
		<rect x="134.8" y="177.6" fill="#A0A0A0" width="3.1" height="15.5"/>
		<rect x="139.1" y="148.4" fill="#484949" width="1.9" height="29.2"/>
	</g>
	<g>
		<path fill="#B1B2B1" d="M466.7,162.8c0,0,1.3-2.5-2.4-4.6c-3.7-2-8.9-12.4,2.6-13.5c12.2-1.2,15.4,16.9,14.8,25.8
			c-0.6,8.9-9.9,32-17.4,37.2c0,0,11.6-14.1,14.2-37.2c2.7-23.1-11.8-22.9-11.8-22.9s-9.3-1.2-2.2,8.3c0,0,4.6,2.1,4.3,5.9
			c-0.3,3.8-2.6,3-2.6,3L466.7,162.8z"/>
		<path fill="#B1B2B1" d="M440.3,164.9c0,0-2.6-1.7,0-3.9s19.9-2.9,25.6,0c0,0,2.2,2.7-1.1,3.9H440.3z"/>
		<path fill="#767777" d="M447.7,219.4c0,0-7,3.1-9.4,8c0,0,14.4,5.7,30.9,0c0,0-4.3-7-9.3-8H447.7z"/>
		<path fill="#A0A0A0" d="M447.7,215.3v4.1c0,0,4.2,3.4,12.2,0V215C459.9,215,455.5,217.5,447.7,215.3z"/>
		<path fill="#A0A0A0" d="M433.8,172l7.5-8.3c0,0,12.5-2,22.9,0c0,0,2.7,0.5,9.5,8.3"/>
		<path fill="#767777" d="M433.8,172c0,0,12.3-3.2,39.9,0c0,0-2.3,33.2-13.7,43c0,0-5.2,2.5-13.6,0C446.4,215,435.2,200.7,433.8,172
			z"/>
		<path fill="#B1B2B1" d="M439.8,162.8c0,0-1.3-2.5,2.4-4.6c3.7-2,8.9-12.4-2.6-13.5c-12.2-1.2-15.4,16.9-14.8,25.8
			c0.6,8.9,9.9,32,17.4,37.2c0,0-11.6-14.1-14.2-37.2c-2.7-23.1,11.8-22.9,11.8-22.9s9.3-1.2,2.2,8.3c0,0-4.6,2.1-4.3,5.9
			c0.3,3.8,2.6,3,2.6,3L439.8,162.8z"/>
		<path fill="#B1B2B1" d="M443.3,170.8c0,0,3.3-4.3,2.8-7.6l4-0.3c0,0,0.3,4.2-0.8,7.7L443.3,170.8z"/>
		<path fill="#A0A0A0" d="M443.3,170.8c0,0,2,40,6.8,45c0,0,2.5,0.2,2.7,0.4s-5-36.5-3.6-45.6C449.3,170.6,444.4,170.7,443.3,170.8z
			"/>
	</g>
	<g>
		<path fill="#997065" d="M225.8,172.6c0,0,5.9,11.2,18.2,11.2c12.3,0,17.2-10.8,17.2-10.8L225.8,172.6z"/>
		<path fill="#624F4B" d="M229.8,169.2h27.8c0,0,3.4-1.7,6.3-3.9s6.4,3.1-3.6,8.1c0,0-16.8,5.1-31.2,0c0,0-8-0.7-8.1-7
			C221,166.5,221.5,163.9,229.8,169.2z"/>
		<path fill="#997065" d="M224.2,147.7h38.7c0,0-1.9,5.9-5.3,8.1v13.4h-27.8V156C229.8,156,226.2,154.6,224.2,147.7z"/>
		<path fill="#624F4B" d="M238,182.8c0,0-1,6.5,5.5,6.5c6.5,0,6.5-6.5,6.5-6.5H238z"/>
		<path fill="#BF9086" d="M239.1,169.2c0-0.7,0-13.2,0-13.2s-3.7-6.1-2.5-8.3H232c0,0,1.7,7,3.6,9v12.5H239.1z"/>
		<path fill="#BF9086" d="M235.6,175.1c0,0,1.4,6.5,3.6,7.8h3.4c0,0-2.2-4.2-2.2-7.1L235.6,175.1z"/>
		<path fill="#BF9086" d="M240.3,189.4v3.6h6.8v-4.5C247.1,188.4,242.8,185.5,240.3,189.4z"/>
		<path fill="#7C5152" d="M240.3,192.9c0,0-7.6,1.5-8.3,8.5h22.9c0,0-1-6.4-7.8-8.5H240.3z"/>
		<rect x="224.2" y="199.7" width="36.9" height="23.4"/>
	</g>
	<g>
		<path fill="#838D8C" d="M339.9,160.9c0,0-5.3-0.1-4.8,12.6c0.5,12.7,8.4,26.6,10.8,29.5c0,0-0.3,13.2-3.8,17.5
			c0,0,10.8,7.1,21.4,0c0,0-4.7-8-3.9-17.5c0,0,9.8-5.6,12-30.5c0,0,1.1-12-5.5-11.5L339.9,160.9z"/>
		<path fill="#BDBBAE" d="M340.5,151.5c0,0,17.6-3.4,25.1,0.7c0,0,4.2,37-12.5,48.1C353.1,200.4,336.5,198.5,340.5,151.5z"/>
		<path fill="#D3CBC1" d="M364.4,180.4c0,0-9.7-20.7-23.2,0.9c0,0,0.9,15.2,11.9,19C353.1,200.4,362.7,194.1,364.4,180.4z"/>
		<path fill="#838D8C" d="M345.9,194.6c0,0,13.8-25.8,0-43.7c0,0,6.8-1.5,15.8,0c0,0-12.2,21.4-1.7,41.7c0,0-3.9,7-7,7.8
			C353.1,200.4,348.1,198.7,345.9,194.6z"/>
		<path fill="#D3CBC1" d="M367.7,183.4c-2,5.7-4.7,11-8.2,15.9c-0.5,0.7-1,1.3-1.7,1.6c-0.8,0.3-1.8-0.1-1.9-0.9
			c6-6.5,10-14.8,11.5-23.6c0.2-1.5,0.5-3,1.4-4.2C369.9,175.9,369,179.8,367.7,183.4z"/>
		<path fill="#D3CBC1" d="M341,192.4c2.2,4.2,5.4,8,6.4,12.6c0.1,0.7,0.4,1.6,1.1,1.8c0.9,0.2,1.5-0.9,1.6-1.8
			c0.2-3.2-2.5-5.8-4.6-8.3c-2.6-3.1-4.5-6.9-5.5-10.8c-0.7-2.9-1-6.1-3-8.3C337.2,182.7,338.5,187.8,341,192.4z"/>
		<path fill="#838D8C" d="M353.3,216.4c-0.6-0.1-1.2-0.3-1.7-0.6c-1-0.6-2-1.3-2.7-2.2c-0.7-1-1-2.2-0.8-3.4
			c0.4,0.7,1.1,1.2,1.9,1.4c0.8,0.2,1.6,0.2,2.4,0.1c2.1-0.1,4.4-0.6,5.7-2.2c0,1.2-0.3,2.5-0.7,3.7c-0.4,0.9-0.8,1.7-1.5,2.3
			C355.2,216.1,354.2,216.5,353.3,216.4z"/>
		<path fill="#D3CBC1" d="M347.9,220.8c1.1,0.8,2.4,1.1,3.7,1.2c1.2,0.1,2.5,0.2,3.6-0.3c2.3-1,3.3-3.6,3.7-6.1
			c-0.2,1.3-3.7,2.5-4.7,2.3c-1.7-0.2-2-1.8-3.4-2.3c-1.5-0.5-3.1,0.9-4.1,1.8c-0.4,0.3-2.6,2.5-2.2,3.1c0.6,0.8,2.8-4.5,4.5-3.7
			C348.9,218.2,348.3,219.5,347.9,220.8z"/>
		<path fill="#BDBBAE" d="M342.1,220.4c0,0-2.6,2.7-0.9,7c0,0,14.3,6.3,24.1,0c0,0,2.2-6.1-1.9-7
			C363.4,220.4,354.3,227.2,342.1,220.4z"/>
	</g>
	<g>
		<path fill="#F3CC83" d="M534.8,217.2l-4.9,10.9c0,0,16,5.4,29.1,0l-3.7-11L534.8,217.2z"/>
		<ellipse fill="#BB9954" cx="545.1" cy="217.1" rx="10.3" ry="2.3"/>
		<circle fill="#BB9954" cx="544.6" cy="163.6" r="9.7"/>
		<path fill="#CECFCA" d="M545.8,162.2l-4.9,2c0,0,5.3,29.1,0.7,54.8h5.4C546.9,219,543.2,180,545.8,162.2z"/>
		<path fill="#A0A09E" d="M555.2,161.1c0.3-0.6,3.4-0.3,3.4-0.3s-16.5,20.1-4.4,56.6l-2.3,0.7C552,218.1,539.8,194.2,555.2,161.1z"
			/>
		<path fill="#CECFCA" d="M549.7,163l4.6-0.8c0,0-11.3,23.1-2.3,55.9l-3.5,0.9C548.5,219,541.9,193.9,549.7,163z"/>
		<path fill="#A0A09E" d="M530.6,162.2l3.2-0.7c0,0,16.5,25.6,2.8,56.6l-1.7-0.9C534.8,217.2,549,187.2,530.6,162.2z"/>
	</g>
	<rect x="106" y="222.2" fill="#414042" width="67.4" height="82.8"/>
	<rect x="211.5" y="222.2" fill="#414042" width="67.4" height="82.8"/>
	<rect x="319.7" y="227.5" fill="#414042" width="67.4" height="82.8"/>
	<rect x="416.2" y="227.5" fill="#414042" width="67.4" height="82.8"/>
	<rect x="511.1" y="227.5" fill="#414042" width="67.4" height="82.8"/>
</g>
</svg>
