<?xml version="1.0" encoding="utf-8"?>
<!-- Generator: Adobe Illustrator 19.0.0, SVG Export Plug-In . SVG Version: 6.00 Build 0)  -->
<svg version="1.1" id="Layer_1" xmlns="http://www.w3.org/2000/svg" xmlns:xlink="http://www.w3.org/1999/xlink" x="0px" y="0px"
	 viewBox="-673 456 295.2 275.5" style="enable-background:new -673 456 295.2 275.5;" xml:space="preserve">
<style type="text/css">
	.st0{fill:#3D3E3F;}
	.st1{fill:#131215;}
	.st2{fill:#686769;}
	.st3{fill:#E1E0DE;}
	.st4{fill:#4D4C4B;}
	.st5{fill:#BA252B;}
	.st6{fill:#CD0014;}
	.st7{fill:#FFFFFF;}
	.st8{fill:none;}
	.st9{fill:#FFFDFD;}
	.st10{font-family:'Gotham-Book';}
	.st11{font-size:9px;}
</style>
<rect x="-538.7" y="598" class="st0" width="24.3" height="133.5"/>
<rect x="-663.1" y="588.9" class="st1" width="271.2" height="15.2"/>
<rect x="-647.8" y="588.8" class="st2" width="2.1" height="15.2"/>
<rect x="-626" y="588.8" class="st2" width="2.1" height="15.2"/>
<rect x="-604.1" y="588.8" class="st2" width="2.1" height="15.2"/>
<rect x="-582.3" y="588.8" class="st2" width="2.1" height="15.2"/>
<rect x="-560.4" y="588.8" class="st2" width="2.1" height="15.2"/>
<rect x="-538.6" y="588.8" class="st2" width="2.1" height="15.2"/>
<rect x="-516.7" y="588.8" class="st2" width="2.1" height="15.2"/>
<rect x="-494.9" y="588.8" class="st2" width="2.1" height="15.2"/>
<rect x="-473.1" y="588.8" class="st2" width="2.1" height="15.2"/>
<rect x="-451.2" y="588.8" class="st2" width="2.1" height="15.2"/>
<rect x="-429.4" y="588.8" class="st2" width="2.1" height="15.2"/>
<rect x="-407.5" y="588.8" class="st2" width="2.1" height="15.2"/>
<rect x="-673" y="603.7" class="st3" width="295.2" height="3.9"/>
<rect x="-653.4" y="600.4" class="st4" width="23.1" height="4.9"/>
<rect x="-596.4" y="600.4" class="st4" width="23.1" height="4.9"/>
<rect x="-539.3" y="600.4" class="st4" width="23.1" height="4.9"/>
<rect x="-482.3" y="600.4" class="st4" width="23.1" height="4.9"/>
<rect x="-425.3" y="600.4" class="st4" width="23.1" height="4.9"/>
<rect x="-670.4" y="459" class="st5" width="285.2" height="135.9"/>
<rect x="-670.3" y="459.2" class="st6" width="285.1" height="131.7"/>
<g>
	<g>
		<g id="KRyJ1s.tif_17_">
			<g>
				<path class="st7" d="M-570,502.3c0.3,0.1,0.6,0.2,0.8,0.4c0.6,0.4,0.9,0.9,1,1.6c0.1,0.6-0.1,1.3-0.4,1.8
					c-0.2,0.4-0.5,0.8-0.7,1.2c-0.2,0.4-0.6,0.6-1.1,0.6s-0.7-0.2-0.8-0.6c0-0.4,0-0.7,0.2-1c0.3-0.6,0.6-1,1.3-1.2
					c0.1,0,0.3-0.1,0.4-0.1c0.2,0,0.3-0.1,0.3-0.2c0.2-0.6-0.2-1.2-0.9-1.2c-0.4,0-0.7,0.1-1,0.2c-1.4,0.5-2.6,1.3-3.6,2.2
					c-3.4,3.1-6.1,6.7-8,11c-0.6,1.5-1.2,3-1.5,4.6c-0.2,1.1-0.2,2.2,0.1,3.3c0.4,1.4,1.2,2.4,2.5,3c1.1,0.5,2.2,0.6,3.3,0.6
					c1.8-0.2,3.7-0.6,5.5-1.1c2.1-0.5,4.2-1,6.3-1.5c1.9-0.5,4-0.6,6-0.6c2.3,0.1,4.4,0.8,6.4,2.2c1.1,0.7,2.1,1.6,3,2.5
					c0.2,0.2,0.3,0.4,0.5,0.6c-0.1,0-0.1-0.1-0.2-0.1c-1.8-1.2-4-1.9-6.2-1.8c-0.9,0-1.9,0.2-2.7,0.7c-0.4,0.3-0.7,0.7-1.1,1l0,0
					c-0.8-1.5-2.1-2.3-3.8-2.7c-1.1-0.3-2.3-0.3-3.5-0.3c-2,0.1-4,0.6-6,1.2c-1.8,0.5-3.7,0.8-5.5,1.2c-1.5,0.3-3,0.3-4.3-0.3
					c-2.1-0.7-3.5-2.3-4-4.5c-0.1-0.5-0.1-0.8-0.2-1.3c0-0.1,0-0.1,0-0.2c0-0.4,0-0.7,0-1.2c0-0.3,0.1-0.6,0.1-0.9
					c0.2-1.8,0.7-3.4,1.4-5c1.4-3.1,3.3-6,5.8-8.4c1.6-1.6,3.3-3,5.3-4.2c1.1-0.6,2.2-1.1,3.4-1.4c0.4-0.1,0.8-0.1,1.2-0.2
					C-570.6,502.3-570.3,502.3-570,502.3z"/>
				<path class="st7" d="M-568.7,514.5c0.2,0,0.3,0,0.5-0.1c0.4-0.2,0.8-0.4,1.2-0.6c0.8-0.6,1.5-1.2,2.1-1.9
					c0.6-0.7,1.5-1.4,2.3-1.9c0.7-0.5,1.5-0.7,2.4-0.7c1.1,0.1,1.9,1,1.8,2.1c-0.1,0.9-0.5,1.7-1.1,2.4c-0.2,0.3-0.5,0.5-0.7,0.6
					c-0.5,0.2-1-0.1-1-0.6c0-0.9,0.8-1.9,1.8-2c0.1,0,0.2,0,0.2-0.1c0.2-0.4,0.1-0.9-0.6-0.9c-0.5,0-0.9,0.2-1.3,0.6
					c-0.7,0.6-1.4,1.2-1.9,1.9c-1.4,1.7-2.4,3.5-3.1,5.5c-0.2,0.5-0.3,1-0.2,1.6c0.1,0.8,0.7,1.2,1.6,1c0.7-0.2,1.3-0.6,1.8-1.1
					c1.2-1.1,2.2-2.3,3.1-3.5c0.9-1.2,1.8-2.4,2.7-3.5c0.9-1.1,1.8-2.1,3-3c0.6-0.4,1.1-0.7,1.8-0.8s1.3,0.1,1.8,0.7l0.1,0.1
					l0.1-0.1c0.2-0.4,0.5-0.5,0.8-0.5c0.6,0,1.3,0,1.9,0c0.1,0,0.2,0,0.3,0c-0.1,0.1-0.1,0.3-0.2,0.4c-1.8,3.2-3.7,6.4-5.5,9.6
					c-0.1,0.2-0.2,0.4-0.2,0.6c0,0.3,0.2,0.5,0.5,0.4c0.2-0.1,0.4-0.2,0.6-0.4c0.6-0.5,1.3-1.1,1.8-1.8c0.5-0.6,0.9-1.2,1.4-1.8
					c0.1-0.2,0.3-0.2,0.5-0.2s0.4,0,0.6,0c0,0.1,0,0.1-0.1,0.1c-1.1,1.7-2.3,3.3-3.8,4.7c-0.7,0.7-1.5,1.4-2.4,1.8
					c-0.5,0.2-0.8,0.3-1.3,0.2c-0.5-0.1-0.8-0.6-0.9-1c0-0.4,0-0.6,0-1c0,0.1-0.1,0.1-0.1,0.2c-0.5,0.6-1,1-1.7,1.4
					c-0.5,0.3-0.9,0.5-1.4,0.6c-1,0.1-1.8-0.6-1.8-1.6c0-0.6,0.1-1.2,0.3-1.8c0-0.1,0-0.2,0-0.3c-0.1,0.1-0.1,0.1-0.2,0.2
					c-0.8,0.7-1.7,1.5-2.5,2.2c-0.7,0.6-1.6,1-2.5,1.1c-0.5,0.1-0.9,0.1-1.4-0.1c-1-0.4-1.4-1.1-1.6-2c-0.3-1.3,0.1-2.5,0.6-3.6
					c0.3-0.6,0.6-1.3,1-2c0-0.1,0.1-0.1,0.1-0.3c-0.4,0.1-0.6,0.2-1,0.3c-0.3,0-0.5,0.2-0.6,0.5c-0.6,1-1.3,2.1-2,3.1
					c-1,1.3-2.1,2.6-3.6,3.5c-0.6,0.4-1.2,0.6-1.9,0.7c-0.7,0.1-1.5-0.4-1.8-1c-0.3-0.6-0.3-1.2-0.3-1.8c0.2-1.8,0.9-3.5,1.9-5.1
					c1.2-1.8,2.6-3.5,4.4-4.8c0.7-0.6,1.6-1,2.5-1.1c1.4-0.3,2.3,0.5,2.3,1.9c0,0.7-0.2,1.5-0.5,2.2
					C-568.4,513.7-568.5,514.1-568.7,514.5z M-558.2,519.9c0,0.2,0.1,0.4,0.3,0.6c0.2,0.1,0.4,0.1,0.6,0c0.5-0.3,0.9-0.6,1.2-1
					c0.5-0.6,0.9-1.2,1.3-1.8c1.3-2.1,2.5-4.3,3.8-6.5c0.1-0.3,0.1-0.5-0.2-0.6c-0.2-0.1-0.5,0-0.6,0.1c-0.5,0.2-0.8,0.5-1.1,0.8
					c-0.9,1.1-1.8,2.2-2.6,3.3c-0.9,1.3-1.7,2.6-2.2,4.1C-558,519.2-558.1,519.6-558.2,519.9z M-572.7,513.5
					c-0.1,0.1-0.1,0.1-0.1,0.2c-0.5,0.6-0.8,1.3-1.3,1.9c-0.6,0.9-1.1,1.9-1.3,3c-0.1,0.3-0.1,0.6-0.1,1c0.1,0.6,0.5,0.9,1.1,0.7
					c0.2,0,0.3-0.1,0.5-0.2c0.6-0.4,1-0.7,1.4-1.2c0.9-1,1.6-2.1,2.3-3.3c0.1-0.1,0.1-0.2,0.1-0.3
					C-571.2,515-572.2,514.6-572.7,513.5z M-568.7,511.7c0-0.1,0-0.2,0-0.3c-0.1-0.7-0.5-1-1.3-0.8c-0.1,0-0.3,0.1-0.4,0.2
					c-0.6,0.4-1,0.8-1.2,1.5c-0.2,0.6-0.2,1,0.2,1.5c0.4,0.6,0.9,0.7,1.6,0.8c0.1,0,0.2,0,0.3-0.2c0.2-0.4,0.3-0.7,0.5-1
					C-568.9,512.8-568.7,512.3-568.7,511.7z"/>
			</g>
		</g>
		<g id="KRyJ1s.tif_16_">
			<g>
				<path class="st7" d="M-511.2,507.7c0.2-0.4,0.4-0.7,0.6-1.1c0.2-0.4,0.4-0.8,0.4-1.2c0-0.3-0.1-0.5-0.5-0.3
					c-0.3,0.1-0.6,0.3-0.8,0.5c-1.1,0.8-2,1.8-3,2.8c-1.8,2.1-3.5,4.4-5,6.9c-0.9,1.5-1.8,3-2.6,4.6c-0.1,0.2-0.2,0.3-0.2,0.5
					c0.1-0.1,0.2-0.1,0.3-0.2c0.6-0.5,1.2-0.9,1.7-1.4c2.4-2.1,4.6-4.5,6.6-7c0.2-0.3,0.4-0.5,0.7-0.4c0.2,0,0.3,0,0.5-0.1
					c-0.1,0.2-0.2,0.3-0.3,0.5c-1.3,1.8-2.7,3.4-4.2,5c-1.8,1.9-3.8,3.7-6,5.3c-0.1,0-0.1,0.1-0.2,0.2c-0.6,1.5-1.3,3-1.6,4.5
					c-0.1,0.3-0.1,0.6,0,0.9c0.1,0.5,0.6,0.6,0.9,0.4c0.4-0.3,0.8-0.6,1.1-1c0.6-0.7,1.1-1.6,1.7-2.4c0.9-1.4,1.8-2.8,2.9-4.1
					c1-1.2,2-2.2,3.4-3c0.6-0.4,1.2-0.5,1.8-0.4c0.5,0.1,0.6,0.4,0.9,0.7c0.1,0.1,0.1,0.2,0.2,0.3c0.1-0.2,0.2-0.4,0.4-0.6
					c0-0.1,0.1-0.1,0.2-0.1c0.8,0,1.7,0,2.5,0c0,0,0,0,0.1,0c0,0.1-0.1,0.2-0.1,0.2c-1.3,2.2-2.5,4.4-3.8,6.6
					c-0.5,0.8-1,1.7-1.5,2.6c-0.1,0.2-0.2,0.5-0.3,0.7c-0.1,0.2-0.1,0.4,0.1,0.5c0.2,0.1,0.4,0.1,0.5,0c0.7-0.5,1.3-1,1.8-1.7
					c0.6-0.8,1.2-1.7,1.8-2.5c0.1-0.1,0.2-0.2,0.3-0.2c0.2,0,0.5,0,0.6,0c-0.1,0.2-0.2,0.3-0.3,0.5c-1,1.6-2.1,3.1-3.5,4.5
					c-0.7,0.7-1.7,1.4-2.6,1.8c-0.3,0.1-0.6,0.2-0.8,0.2c-0.6,0-0.9-0.3-1-0.8c-0.1-0.4-0.1-0.7-0.1-1.1c0-0.1,0-0.2,0-0.2
					s0,0-0.1,0c-0.2,0.2-0.3,0.3-0.5,0.5c-0.6,0.6-1.2,1.1-2,1.5c-0.4,0.2-0.7,0.3-1.2,0.2c-0.7-0.1-1.2-0.6-1.3-1.4
					c0-0.3,0-0.6,0-0.9c0-0.1,0-0.2,0-0.4c-0.1,0.1-0.2,0.2-0.2,0.2c-0.6,0.7-1.2,1.4-1.9,1.8c-0.3,0.2-0.6,0.4-1,0.6
					c-0.8,0.3-1.5,0-1.9-0.7c-0.3-0.5-0.3-0.9-0.3-1.4c0-1.1,0.4-2.1,0.6-3.1c0.2-0.6,0.4-1.2,0.6-1.8c-0.1,0-0.2,0-0.3,0.1
					c-0.4,0-0.6,0.1-1,0.1c-0.2,0-0.3,0.1-0.3,0.2c-0.6,1-1.3,2-1.9,3c-0.9,1.3-2.1,2.5-3.5,3.3c-0.5,0.3-0.9,0.5-1.5,0.6
					c-1,0.1-1.6-0.6-1.8-1.3s-0.1-1.5,0.1-2.2c0.4-1.6,1-3,1.9-4.3c0.9-1.5,2-2.9,3.3-4c0.8-0.6,1.7-1.3,2.7-1.6
					c0.4-0.1,0.7-0.2,1.2-0.1c0.7,0.1,1.1,0.6,1.3,1.2c0.2,0.8,0.1,1.6-0.2,2.4c-0.2,0.6-0.5,1.2-0.7,1.8c0,0.1-0.1,0.1-0.1,0.3
					c0.6,0,1-0.1,1.4-0.3c0.1,0,0.1-0.1,0.1-0.2c1.3-2.8,2.9-5.4,4.5-8c2.1-3.1,4.6-6,7.5-8.4c0.7-0.6,1.5-1.1,2.3-1.5
					c0.4-0.2,0.8-0.3,1.3-0.3c0.6,0,0.8,0.4,0.9,0.9c0.1,0.7-0.1,1.4-0.5,2c-0.4,0.7-0.4,0.7-1.1,0.8
					C-511.1,507.7-511.1,507.7-511.2,507.7z M-519.2,527.5c0,0.3,0.3,0.5,0.7,0.4c0.2-0.1,0.4-0.2,0.6-0.3c0.6-0.4,0.9-0.9,1.3-1.5
					c1-1.4,1.8-3,2.7-4.4c0.5-0.9,1-1.8,1.6-2.6c0.1-0.2,0.2-0.4,0-0.6s-0.4-0.2-0.6-0.2c-0.3,0.1-0.5,0.2-0.7,0.4
					c-0.3,0.2-0.6,0.5-0.8,0.7c-1.8,1.8-3.1,4-4.2,6.3C-519,526.2-519.2,526.8-519.2,527.5z M-531.2,521.2c-0.4,0.6-0.7,1.1-1.1,1.7
					c-0.6,1-1.2,2-1.5,3.1c-0.1,0.4-0.2,0.8-0.1,1.2c0.1,0.6,0.5,0.8,1,0.6c0.5-0.1,0.8-0.4,1.2-0.7c1.1-1,1.9-2.3,2.7-3.6
					c0-0.1,0.1-0.2,0.1-0.3C-529.9,522.8-530.6,522.2-531.2,521.2z M-527.4,519.3c0-0.1,0-0.3,0-0.4c-0.1-0.6-0.4-0.8-0.7-0.7
					c-0.2,0-0.4,0-0.6,0.1c-0.5,0.3-0.9,0.6-1.2,1c-0.8,1.2-0.1,2.7,1.3,3.1c0.1,0,0.2,0,0.2-0.1c0.1-0.2,0.3-0.5,0.4-0.7
					C-527.7,520.8-527.4,520.1-527.4,519.3z"/>
				<path class="st7" d="M-516.7,507.4c-0.6,0.7-1.3,1.4-1.9,2c0,0-0.2,0.1-0.2,0c-0.4-0.2-0.8-0.5-1.2-0.7
					c-1.2-0.7-2.4-1.6-3.7-2.3c-0.9-0.6-2-1-3.1-1.1c-0.4-0.1-0.7-0.1-1,0.1c-0.1,0-0.2,0.1-0.2,0.2c0.1,1.3-0.2,2.5-0.7,3.7
					c-0.6,1.7-1.7,3-3,4.2c-0.6,0.5-1.2,0.8-1.8,1.1c-1,0.3-1.8-0.2-1.8-1.2c-0.1-0.6,0.1-1.3,0.3-1.8c0.8-2,2-3.7,3.7-5.1
					c0.6-0.5,1.2-0.9,1.8-1.3c0,0,0.1-0.1,0.2-0.1c-0.4-0.2-0.7-0.2-1.1-0.1c-0.6,0.1-1,0.4-1.5,0.6c-1.8,1-3.3,2.2-4.8,3.8
					c-2.6,2.8-4.8,5.7-6.6,9c-1,1.8-1.8,3.7-2.1,5.8c-0.2,0.8-0.3,1.7-0.1,2.5c0.3,0.9,0.7,1.6,1.7,1.8c0.6,0.2,1.1,0,1.7-0.2
					c0.9-0.4,1.8-1,2.4-1.8c1.4-1.5,2.5-3,3.1-5c0.3-0.7,0.4-1.5,0.4-2.2c-0.1-0.7-0.5-1-1.2-0.7c-0.6,0.2-0.8,0.6-1.2,1
					c-0.7,0.9-1.2,1.9-1.4,3.1c0,0.1-0.1,0.2-0.2,0.2c-1.2,0.6-2.3,1.5-3.2,2.5l-0.1,0.1c0.3-2.3,0.9-4.3,2.4-6.2
					c0.8-1,1.9-1.8,3.3-2.1c0.4-0.1,0.7-0.2,1-0.1c0.6,0.2,0.9,0.6,1.1,1.1c0.3,0.7,0.2,1.5,0.1,2.2c-0.3,1.8-1.1,3.3-2.1,4.8
					c-1.2,1.8-2.8,3.4-4.7,4.5c-0.8,0.5-1.8,0.7-2.7,0.8c-1.6,0.1-2.7-0.6-3.4-1.9c-0.6-1.1-0.8-2.3-0.7-3.6
					c0.1-1.9,0.8-3.8,1.7-5.5c2.3-4.8,5.4-9,9.6-12.3c1.8-1.5,3.8-2.6,5.9-3.2c0.8-0.2,1.6-0.3,2.4-0.1c0.4,0.1,0.6,0.3,0.9,0.6
					c0.1,0.1,0.2,0.1,0.3,0.1c0.6-0.2,1.3-0.5,1.9-0.6c1.7-0.4,3.2-0.1,4.7,0.6C-520,505.4-518.3,506.4-516.7,507.4L-516.7,507.4z
					 M-528.8,505.7c-0.2,0.1-0.4,0.2-0.6,0.3c-2.1,1.3-3.6,3-4.8,5.3c-0.3,0.5-0.5,1-0.6,1.6c-0.1,0.7,0.5,1.1,1.1,0.8
					c0.3-0.1,0.6-0.3,0.7-0.5c2.3-1.8,3.6-4.1,4-6.9C-528.8,506.1-528.8,505.9-528.8,505.7z"/>
				<path class="st7" d="M-503.8,503.9c-0.4,0.7-0.8,1.5-1.4,2.1c-1.7,2.1-3.8,3.7-6.4,4.5c-1.3,0.5-2.7,0.6-4.1,0.3h-0.1
					c-0.1,0-0.1,0-0.2-0.1c0-0.1,0.1-0.1,0.1-0.2c0.6-0.6,1.1-1.4,1.7-2c0.1-0.1,0.2-0.1,0.3-0.1c1.6,0.1,3-0.1,4.5-0.7
					C-507.3,506.8-505.4,505.5-503.8,503.9L-503.8,503.9z"/>
			</g>
		</g>
		<path class="st7" d="M-542.8,509.5c-0.3,0.3-0.5,0.6-0.7,0.9c-0.3,0.3-0.5,0.6-0.8,0.9c-0.1,0.1-0.2,0.1-0.2,0.1
			c-0.9,0-1.8,0-2.6,0c0,0,0,0-0.1,0c0,0,0-0.1,0.1-0.1c0.5-0.6,0.9-1.2,1.4-1.8c0.1-0.1,0.1-0.1,0.2-0.1
			C-544.6,509.5-543.7,509.5-542.8,509.5z"/>
	</g>
</g>
<path class="st7" d="M-434.2,563.5c-30.4,5.6-60.8,10.3-92.1,10.8c-25.3,0.5-50.2-1.6-74.8-6.9c-24.5-5.3-46.9-14.2-68.2-25.2
	c-0.4-0.2-0.4-0.4-0.9-0.6l-0.3,27.9c1.1,0.3,2.4,0.6,3.4,1c26.2,9,53.6,12.6,81.8,12.1c18.4-0.3,36.6-2,54.7-4.1
	c29.8-3.5,59.5-8.2,89.6-10c14.2-0.8,28.5-0.9,42.6,1.1c4.2,0.6,8.5,1.3,12.5,2c0.1-4.3,0.1-8.6,0.2-12.9
	C-402.3,558.1-418.2,560.5-434.2,563.5z"/>
<g>
	<path class="st7" d="M-659.4,513.8h11.8v3.8h-7.2v1.4h6.7v3.3h-6.7v1.5h7.3v3.8h-11.9V513.8L-659.4,513.8z"/>
	<path class="st7" d="M-646.3,513.2h4.5v14.4h-4.5V513.2z"/>
	<path class="st7" d="M-635.4,513.2h4.5v14.4h-4.5V513.2z"/>
	<path class="st7" d="M-630,524.5L-630,524.5c0-2.2,1.6-3.4,4.1-3.4c0.9,0,2.1,0.2,2.5,0.4v-0.2c0-1-0.6-1.6-2-1.6
		c-1.1,0-2,0.2-3,0.6l-0.8-3c1.2-0.5,2.7-0.8,4.5-0.8c2.2,0,3.6,0.5,4.6,1.4c0.8,0.8,1.1,1.9,1.1,3.4v6.1h-4.5v-0.9
		c-0.7,0.8-1.8,1.3-3.1,1.3C-628.5,527.8-630,526.6-630,524.5z M-623.3,523.6v-0.5c-0.3-0.1-0.7-0.2-1-0.2c-0.9,0-1.4,0.5-1.4,1.2
		l0,0c0,0.6,0.5,1,1,1C-623.9,525.2-623.3,524.6-623.3,523.6z"/>
	<path class="st7" d="M-618,522.3L-618,522.3c0-3.4,2-5.7,4.6-5.7c1.6,0,2.5,0.7,3.2,1.5v-4.8h4.5v14.4h-4.5v-1.3
		c-0.7,0.8-1.6,1.6-3.2,1.6C-615.9,527.8-618,525.6-618,522.3z M-610,522.2L-610,522.2c0-1.1-0.8-2-1.8-2s-1.8,0.8-1.8,1.9l0,0
		c0,1.1,0.8,1.9,1.8,1.9C-610.8,524.1-610,523.3-610,522.2z"/>
	<path class="st7" d="M-604.6,522.2L-604.6,522.2c0-3.1,2.5-5.7,6.1-5.7c3.5,0,6,2.6,6,5.6l0,0c0,3-2.5,5.6-6.1,5.6
		C-602.1,527.8-604.6,525.3-604.6,522.2z M-596.8,522.2L-596.8,522.2c0-1.1-0.8-2-1.8-2s-1.7,0.8-1.7,1.9l0,0c0,1.1,0.8,1.9,1.8,1.9
		C-597.6,524.1-596.8,523.2-596.8,522.2z"/>
</g>
<g>
	<path class="st7" d="M-501.4,522.3L-501.4,522.3c0-3.7,2.2-6.2,4.9-6.2c1.8,0,2.7,0.8,3.5,1.6v-5.2h4.8V528h-4.8v-1.5
		c-0.8,0.8-1.7,1.7-3.4,1.7C-499.3,528.2-501.4,525.8-501.4,522.3z M-492.9,522.2L-492.9,522.2c0-1.2-0.8-2.1-1.9-2.1
		c-1.1,0-1.9,0.9-1.9,2.1l0,0c0,1.2,0.8,2.1,1.9,2.1S-492.9,523.4-492.9,522.2z"/>
	<path class="st7" d="M-487.1,522.2L-487.1,522.2c0-3.5,2.5-6.1,6-6.1c4.1,0,6,2.9,6,6.4c0,0.3,0,0.6,0,0.8h-7.5
		c0.3,1,1.1,1.5,2.2,1.5c0.9,0,1.6-0.4,2.4-1.2l2.6,2.1c-1.1,1.5-2.8,2.5-5.3,2.5C-484.5,528.2-487.1,525.8-487.1,522.2z
		 M-479.5,521.2c-0.1-1.1-0.8-1.7-1.6-1.7s-1.4,0.7-1.5,1.7H-479.5z"/>
	<path class="st7" d="M-468.6,512.5h4.8V528h-4.8V512.5z"/>
	<path class="st7" d="M-462.7,524.7L-462.7,524.7c0-2.4,1.7-3.7,4.4-3.7c1,0,2.2,0.2,2.7,0.4v-0.2c0-1.1-0.7-1.7-2.1-1.7
		c-1.2,0-2.2,0.3-3.2,0.7l-0.8-3.2c1.3-0.5,2.9-0.8,4.9-0.8c2.4,0,3.9,0.5,4.9,1.5c0.9,0.9,1.2,2,1.2,3.7v6.6h-4.8v-1.2
		c-0.8,0.9-1.9,1.4-3.3,1.4C-461.2,528.2-462.7,527-462.7,524.7z M-455.6,523.7v-0.5c-0.3-0.1-0.7-0.2-1.1-0.2c-1,0-1.5,0.6-1.5,1.3
		l0,0c0,0.7,0.5,1.1,1.1,1.1C-456.2,525.5-455.6,524.8-455.6,523.7z"/>
	<path class="st7" d="M-444.8,516.4h5.1l1.9,5.8l1.9-5.8h5l-4.7,11.7h-4.4L-444.8,516.4z"/>
	<path class="st7" d="M-430.3,512.5h5v3.1h-5V512.5z M-430.2,516.4h4.8V528h-4.8V516.4z"/>
	<path class="st7" d="M-424.2,522.3L-424.2,522.3c0-3.7,2.2-6.2,4.9-6.2c1.8,0,2.7,0.8,3.5,1.6v-5.2h4.8V528h-4.8v-1.5
		c-0.8,0.8-1.7,1.7-3.4,1.7C-422,528.2-424.2,525.8-424.2,522.3z M-415.7,522.2L-415.7,522.2c0-1.2-0.8-2.1-1.9-2.1
		s-1.9,0.9-1.9,2.1l0,0c0,1.2,0.8,2.1,1.9,2.1S-415.7,523.4-415.7,522.2z"/>
	<path class="st7" d="M-410,524.7L-410,524.7c0-2.4,1.7-3.7,4.4-3.7c1,0,2.2,0.2,2.7,0.4v-0.2c0-1.1-0.7-1.7-2.1-1.7
		c-1.2,0-2.2,0.3-3.2,0.7l-0.8-3.2c1.3-0.5,2.9-0.8,4.9-0.8c2.4,0,3.9,0.5,4.9,1.5c0.9,0.9,1.2,2,1.2,3.7v6.6h-4.8v-1.2
		c-0.8,0.9-1.9,1.4-3.3,1.4C-408.4,528.2-410,527-410,524.7z M-402.8,523.7v-0.5c-0.3-0.1-0.7-0.2-1.1-0.2c-1,0-1.5,0.6-1.5,1.3l0,0
		c0,0.7,0.5,1.1,1.1,1.1C-403.4,525.5-402.8,524.8-402.8,523.7z"/>
</g>
<rect x="-479.5" y="582.6" class="st8" width="94.3" height="12.4"/>
<text transform="matrix(1 0 0 1 -463.8812 589.2158)" class="st9 st10 st11">SLOGAN 1982</text>
</svg>
