<?xml version="1.0" encoding="utf-8"?>
<!-- Generator: Adobe Illustrator 18.1.1, SVG Export Plug-In . SVG Version: 6.00 Build 0)  -->
<svg version="1.1" id="Layer_1" xmlns="http://www.w3.org/2000/svg" xmlns:xlink="http://www.w3.org/1999/xlink" x="0px" y="0px"
	 viewBox="0 0 222.7 915.2" enable-background="new 0 0 222.7 915.2" xml:space="preserve">
<g>
	<path fill="#BCBEC0" d="M161.5,869.3h-34.4c0,0-13.4,43.4,31.3,45.9h58.1c0,0,12.8-27.4-21.7-29.3
		C194.7,885.9,164.7,880.8,161.5,869.3z"/>
	<path fill="#050503" d="M54.4,338.1l-26.9-9L28.9,153l73.6-25.6c0,0,42.2-23.4,120.2,32.6l-1.8,147.2l-28.1,34.2l0.7,77.3H51.8
		L54.4,338.1"/>
	<path fill="#495CB7" d="M193.4,418.7l-27.3,467.2l-35.8-6.6l-6.5-416.1C123.9,463.2,187.8,409.8,193.4,418.7z"/>
	<path fill="#F9BD91" d="M84.1,333.2c-57.9,17.6-62.8-7.7-61.5-17s34.5-7.8,34.5-7.8s-13.9,0.6-12.8-6.5s17.4-8.6,17.4-8.6
		s26.6-4.7,30.9,13.2S84.1,333.2,84.1,333.2z"/>
	<path fill="#F9BD91" d="M158.7,18.4l3.5,86.3l-13.1,0.5l1.2,28.4c0,0-13.6,29.5-50.8,2.1l-2.4-59c0,0-11-1.7-11.5-14.3
		s12.3-7.1,12.3-7.1L96.5,21L158.7,18.4z"/>
	<path fill="#050503" d="M93.5,135.7v-27.7c0,0,47.8,5.4,60.3,0l3,33.8C156.9,141.8,113.3,170.7,93.5,135.7z"/>
	<path fill="#F9BD91" d="M172.5,162.5c32-51.4,8.7-62.7-0.6-63.8S155.4,130,155.4,130s4.1-13.3-3-14c-7.2-0.7-12.8,14.6-12.8,14.6
		s-11.4,24.5,4.8,33.2S172.5,162.5,172.5,162.5z"/>
	<path fill="#F9BD91" d="M158.7,18.4c0,0-15.3-12.9-34.8-11s-26.1,4.6-28,17.7C95.9,25.1,143.5,35.6,158.7,18.4z"/>
	<path fill="#58595B" d="M93.7,18.4c0,0-16-1-4.9,36.5c0,0,8.2-1.1,9.1,0.5l4.6,8.9l-2.3-37.4c0,0,7.3-7.9,4.3-14.6
		c0,0,27.7,6.4,38.7-3c0,0-19.2-20.7-38.7,0C104.5,9.2,94.5,12.1,93.7,18.4z"/>
	<path fill="#BCBEC0" d="M57.2,869.3h34.4c0,0,13.4,43.4-31.3,45.9H2.3c0,0-12.8-27.4,21.7-29.3C24,885.9,54,880.8,57.2,869.3z"/>
	<polyline fill="#495CB7" points="123.9,463.2 91.6,869.3 57.2,869.3 51.8,418.7 193.4,418.7 	"/>
	<path fill="#6D6E71" d="M88.8,54.9c0,0,8.1-1.4,9.1,0.5l4.6,8.9l-2.1-34.2L95.7,38l-2.9-3.7l-2.1,7.9L85,36.2
		C85,36.2,86.3,51.6,88.8,54.9z"/>
	<path fill="#6D6E71" d="M99.5,58.5c0,0,7.3,35.9,10,38.3c2.7,2.4,5.6,6.6,12.5,7.3s25.5,1.2,27.2,1.1c1.6-0.1,13.1-0.5,13.1-0.5
		l-1.3-32.1l-2.2,4.6L158,95.6c0,0-5.8-0.3-5.6-5.6L142,90.1c0,0-0.9,6.2-5.2,5.3c-4.3-0.9-13.4-3.6-13.9-12.5l-21-23.3L99.5,58.5z"
		/>
	<path fill="#6D6E71" d="M125.2,81.1c0.3,0,18-6.1,18-6.1l15.5,4.9v-2.7L143.2,70l-19.3,8.1L125.2,81.1z"/>
	<circle opacity="0.22" fill="#27AAE1" cx="150.6" cy="47.2" r="9.3"/>
	<circle opacity="0.22" fill="#27AAE1" cx="125.1" cy="47.2" r="9.3"/>
	<rect x="134.1" y="45.3" fill="#231F20" width="7.3" height="0.9"/>
	
		<rect x="86.4" y="49.2" transform="matrix(0.9788 -0.2048 0.2048 0.9788 -8.0644 21.7782)" fill="#231F20" width="29.6" height="1.3"/>
</g>
</svg>
