<?xml version="1.0" encoding="utf-8"?>
<!-- Generator: Adobe Illustrator 19.0.0, SVG Export Plug-In . SVG Version: 6.00 Build 0)  -->
<svg version="1.1" id="Layer_1" xmlns="http://www.w3.org/2000/svg" xmlns:xlink="http://www.w3.org/1999/xlink" x="0px" y="0px"
	 viewBox="-1024 770 302.3 272.5" style="enable-background:new -1024 770 302.3 272.5;" xml:space="preserve">
<style type="text/css">
	.st0{fill:#3D3E3F;}
	.st1{fill:#131215;}
	.st2{fill:#686769;}
	.st3{fill:#E1E0DE;}
	.st4{fill:#4D4C4B;}
	.st5{fill:#BA252B;}
	.st6{fill:#CD0014;}
	.st7{fill:#FFFFFF;}
	.st8{fill:none;}
	.st9{enable-background:new    ;}
	.st10{fill:#FFFDFD;}
</style>
<rect x="-882.7" y="909" class="st0" width="24.3" height="133.5"/>
<rect x="-1007.1" y="899.9" class="st1" width="271.2" height="15.2"/>
<rect x="-991.7" y="899.8" class="st2" width="2.1" height="15.2"/>
<rect x="-969.9" y="899.8" class="st2" width="2.1" height="15.2"/>
<rect x="-948" y="899.8" class="st2" width="2.1" height="15.2"/>
<rect x="-926.2" y="899.8" class="st2" width="2.1" height="15.2"/>
<rect x="-904.4" y="899.8" class="st2" width="2.1" height="15.2"/>
<rect x="-882.5" y="899.8" class="st2" width="2.1" height="15.2"/>
<rect x="-860.7" y="899.8" class="st2" width="2.1" height="15.2"/>
<rect x="-838.8" y="899.8" class="st2" width="2.1" height="15.2"/>
<rect x="-817" y="899.8" class="st2" width="2.1" height="15.2"/>
<rect x="-795.1" y="899.8" class="st2" width="2.1" height="15.2"/>
<rect x="-773.3" y="899.8" class="st2" width="2.1" height="15.2"/>
<rect x="-751.5" y="899.8" class="st2" width="2.1" height="15.2"/>
<rect x="-1024" y="914.5" class="st3" width="302.3" height="4.1"/>
<rect x="-997.4" y="911.4" class="st4" width="23.1" height="4.9"/>
<rect x="-940.3" y="911.4" class="st4" width="23.1" height="4.9"/>
<rect x="-883.3" y="911.4" class="st4" width="23.1" height="4.9"/>
<rect x="-826.2" y="911.4" class="st4" width="23.1" height="4.9"/>
<rect x="-769.2" y="911.4" class="st4" width="23.1" height="4.9"/>
<rect x="-1016.3" y="770" class="st5" width="287.2" height="135.9"/>
<rect x="-1016.4" y="770.9" class="st6" width="287.3" height="132.7"/>
<path class="st7" d="M-777.8,875.9c-30.7,5.6-61.5,10.3-93.1,10.9c-25.6,0.5-50.8-1.6-75.5-6.9c-24.7-5.3-47.4-14.4-68.9-25.4
	c-0.4-0.2-0.4-0.4-1-0.6l-0.3,28.1c1.1,0.3,2.4,0.6,3.4,1c26.4,9.1,54.1,12.7,82.7,12.2c18.5-0.3,36.9-2,55.3-4.2
	c30.2-3.5,60.1-8.3,90.5-10c14.4-0.8,28.8-0.9,43,1.2c4.2,0.6,8.6,1.4,12.6,2c0.1-4.3,0.1-8.6,0.2-12.9
	C-745.6,870.5-761.7,873-777.8,875.9z"/>
<g>
	<path class="st7" d="M-994.1,821.3h6.4c6.6,0,9.9,3.3,9.9,8.2l0,0c0,4.9-3.4,8.4-10.1,8.4h-6.2L-994.1,821.3L-994.1,821.3z
		 M-987.6,833.1c2.5,0,4.2-1,4.2-3.5l0,0c0-2.4-1.6-3.5-4.2-3.5h-0.9v6.9L-987.6,833.1L-987.6,833.1z"/>
	<path class="st7" d="M-976.8,831.5L-976.8,831.5c0-3.9,2.8-6.9,6.7-6.9c4.6,0,6.8,3.2,6.8,7.2c0,0.3,0,0.6,0,0.9h-8.4
		c0.4,1.1,1.3,1.7,2.5,1.7c1,0,1.8-0.5,2.6-1.3l2.9,2.3c-1.3,1.7-3.1,2.8-5.9,2.8C-973.9,838.3-976.8,835.6-976.8,831.5z
		 M-968.3,830.4c-0.1-1.2-0.9-2-1.8-2s-1.5,0.8-1.7,2H-968.3z"/>
	<path class="st7" d="M-963.1,836.4l1.8-3.1c1.6,1,3.3,1.5,4.8,1.5c0.5,0,0.8-0.1,0.8-0.4l0,0c0-0.3-0.2-0.4-1.5-0.8
		c-3.3-0.8-5.3-1.7-5.3-4.4l0,0c0-2.9,2.3-4.5,5.7-4.5c2.1,0,4.3,0.5,5.8,1.5l-1.7,3.2c-1.4-0.8-3-1.2-4.1-1.2
		c-0.5,0-0.8,0.1-0.8,0.4l0,0c0,0.3,0.3,0.4,1.6,0.8c3.3,0.8,5.3,1.7,5.3,4.4l0,0c0,2.8-2.1,4.5-5.6,4.5
		C-959,838.3-961.2,837.6-963.1,836.4z"/>
	<path class="st7" d="M-948.9,833.6v-4.5h-1.5v-4.2h1.5v-3.3h5.4v3.3h3v4.2h-3v3.3c0,1,0.5,1.3,1.3,1.3c0.5,0,1.1-0.1,1.6-0.4v4.2
		c-0.9,0.5-2.1,0.7-3.5,0.7C-947.2,838.3-948.9,836.8-948.9,833.6z"/>
	<path class="st7" d="M-939.8,834.3L-939.8,834.3c0-2.6,1.9-4.1,5-4.1c1.1,0,2.5,0.2,3.1,0.5v-0.2c0-1.2-0.7-1.9-2.4-1.9
		c-1.3,0-2.5,0.3-3.6,0.7l-1-3.6c1.5-0.6,3.2-1,5.5-1c2.6,0,4.4,0.5,5.5,1.7c1,1,1.4,2.2,1.4,4.1v7.4h-5.4v-1.3
		c-0.9,1-2.1,1.6-3.7,1.6C-938,838.3-939.8,836.9-939.8,834.3z M-931.7,833.2v-0.5c-0.3-0.1-0.8-0.2-1.2-0.2c-1.1,0-1.7,0.6-1.7,1.5
		l0,0c0,0.8,0.5,1.3,1.2,1.3C-932.4,835.2-931.7,834.4-931.7,833.2z"/>
	<path class="st7" d="M-924.9,825h5.4v1.6c0.9-1,1.9-1.9,3.9-1.9c3.1,0,5.6,2.7,5.6,6.7l0,0c0,4.1-2.5,6.9-5.5,6.9
		c-2,0-3.1-0.9-3.9-1.8v5.3h-5.4L-924.9,825L-924.9,825z M-915.2,831.5L-915.2,831.5c0-1.4-0.9-2.4-2.2-2.4s-2.2,1-2.2,2.3l0,0
		c0,1.3,0.9,2.3,2.2,2.3C-916.1,833.7-915.2,832.8-915.2,831.5z"/>
	<path class="st7" d="M-909.3,834.3L-909.3,834.3c0-2.6,1.9-4.1,5-4.1c1.1,0,2.5,0.2,3.1,0.5v-0.2c0-1.2-0.7-1.9-2.4-1.9
		c-1.3,0-2.5,0.3-3.6,0.7l-1-3.6c1.5-0.6,3.2-1,5.5-1c2.6,0,4.4,0.5,5.5,1.7c1,1,1.4,2.2,1.4,4.1v7.4h-5.4v-1.3
		c-0.9,1-2.1,1.6-3.7,1.6C-907.5,838.3-909.3,836.9-909.3,834.3z M-901.2,833.2v-0.5c-0.3-0.1-0.8-0.2-1.2-0.2
		c-1.1,0-1.7,0.6-1.7,1.5l0,0c0,0.8,0.5,1.3,1.2,1.3C-901.9,835.2-901.2,834.4-901.2,833.2z"/>
	<path class="st7" d="M-888.2,820.6h5.4V838h-5.4V820.6z"/>
	<path class="st7" d="M-881.7,834.3L-881.7,834.3c0-2.6,1.9-4.1,5-4.1c1.1,0,2.5,0.2,3.1,0.5v-0.2c0-1.2-0.7-1.9-2.4-1.9
		c-1.3,0-2.5,0.3-3.6,0.7l-1-3.6c1.5-0.6,3.2-1,5.5-1c2.6,0,4.4,0.5,5.5,1.7c1,1,1.4,2.2,1.4,4.1v7.4h-5.4v-1.3
		c-0.9,1-2.1,1.6-3.7,1.6C-879.9,838.3-881.7,836.9-881.7,834.3z M-873.6,833.2v-0.5c-0.3-0.1-0.8-0.2-1.2-0.2
		c-1.1,0-1.7,0.6-1.7,1.5l0,0c0,0.8,0.5,1.3,1.2,1.3C-874.3,835.2-873.6,834.4-873.6,833.2z"/>
	<path class="st7" d="M-859.7,829.1h-1.5v-4.2h1.5c0-1.4,0.4-2.5,1.2-3.3c0.9-0.9,2-1.2,3.8-1.2c1.6,0,2.6,0.1,3.3,0.4v3.4
		c-0.5-0.1-1-0.2-1.7-0.2c-0.8,0-1.3,0.3-1.3,1v0.1h3v4h-2.9v8.8h-5.4V829.1L-859.7,829.1z"/>
	<path class="st7" d="M-851.2,831.5L-851.2,831.5c0-3.9,2.8-6.9,6.7-6.9c4.6,0,6.8,3.2,6.8,7.2c0,0.3,0,0.6,0,0.9h-8.4
		c0.4,1.1,1.3,1.7,2.5,1.7c1,0,1.8-0.5,2.6-1.3l2.9,2.3c-1.3,1.7-3.1,2.8-5.9,2.8C-848.3,838.3-851.2,835.6-851.2,831.5z
		 M-842.7,830.4c-0.1-1.2-0.9-2-1.8-2s-1.5,0.8-1.7,2H-842.7z"/>
	<path class="st7" d="M-836.5,820.6h5.4V838h-5.4V820.6z"/>
	<path class="st7" d="M-829.5,820.6h5.6v3.5h-5.6V820.6z M-829.4,825h5.4v13h-5.4V825z"/>
	<path class="st7" d="M-822.7,831.5L-822.7,831.5c0-3.7,2.9-6.9,7.1-6.9c2.9,0,4.9,1.5,5.9,3.6l-3.9,2.2c-0.5-0.8-1-1.3-1.9-1.3
		c-1.1,0-2,1-2,2.3l0,0c0,1.4,0.9,2.3,1.9,2.3s1.5-0.5,2-1.3l3.9,2.2c-1.2,2.2-3.1,3.5-6.2,3.5
		C-819.8,838.3-822.7,835.2-822.7,831.5z"/>
	<path class="st7" d="M-808.8,820.6h5.6v3.5h-5.6V820.6z M-808.7,825h5.4v13h-5.4V825z"/>
	<path class="st7" d="M-802,831.6L-802,831.6c0-4.2,2.5-6.9,5.5-6.9c2,0,3.1,0.9,3.9,1.8v-5.9h5.4V838h-5.4v-1.6
		c-0.9,1-1.9,1.9-3.9,1.9C-799.6,838.3-802,835.5-802,831.6z M-792.5,831.5L-792.5,831.5c0-1.3-0.9-2.4-2.2-2.4s-2.2,1-2.2,2.3l0,0
		c0,1.3,0.9,2.3,2.2,2.3C-793.4,833.7-792.5,832.8-792.5,831.5z"/>
	<path class="st7" d="M-786.1,834.3L-786.1,834.3c0-2.6,1.9-4.1,5-4.1c1.1,0,2.5,0.2,3.1,0.5v-0.2c0-1.2-0.7-1.9-2.4-1.9
		c-1.3,0-2.5,0.3-3.6,0.7l-1-3.6c1.5-0.6,3.2-1,5.5-1c2.6,0,4.4,0.5,5.5,1.7c1,1,1.4,2.2,1.4,4.1v7.4h-5.4v-1.3
		c-0.9,1-2.1,1.6-3.7,1.6C-784.3,838.3-786.1,836.9-786.1,834.3z M-778,833.2v-0.5c-0.3-0.1-0.8-0.2-1.2-0.2c-1.1,0-1.7,0.6-1.7,1.5
		l0,0c0,0.8,0.5,1.3,1.2,1.3C-778.7,835.2-778,834.4-778,833.2z"/>
	<path class="st7" d="M-771.5,831.6L-771.5,831.6c0-4.2,2.5-6.9,5.5-6.9c2,0,3.1,0.9,3.9,1.8v-5.9h5.4V838h-5.4v-1.6
		c-0.9,1-1.9,1.9-3.9,1.9C-769.1,838.3-771.5,835.5-771.5,831.6z M-762,831.5L-762,831.5c0-1.3-0.9-2.4-2.2-2.4
		c-1.2,0-2.2,1-2.2,2.3l0,0c0,1.3,0.9,2.3,2.2,2.3C-762.9,833.8-762,832.8-762,831.5z"/>
</g>
<rect x="-820.5" y="893" class="st8" width="93.8" height="13"/>
<g class="st9">
	<path class="st10" d="M-830.5,898l0.6-0.7c0.9,0.8,1.8,1.2,2.9,1.2c1.2,0,1.9-0.6,1.9-1.5v0c0-0.8-0.4-1.3-2.2-1.6
		c-2-0.4-2.9-1.1-2.9-2.5v0c0-1.3,1.2-2.3,2.8-2.3c1.3,0,2.1,0.4,3,1.1l-0.6,0.7c-0.8-0.6-1.6-0.9-2.5-0.9c-1.1,0-1.8,0.6-1.8,1.4v0
		c0,0.8,0.4,1.3,2.3,1.7c1.9,0.4,2.8,1.1,2.8,2.4v0c0,1.5-1.2,2.4-2.9,2.4C-828.4,899.3-829.5,898.9-830.5,898z"/>
	<path class="st10" d="M-822.1,890.6h1v7.7h4.8v0.9h-5.8V890.6z"/>
	<path class="st10" d="M-815.4,894.9L-815.4,894.9c0-2.4,1.8-4.5,4.4-4.5c2.6,0,4.4,2,4.4,4.4c0,0,0,0,0,0c0,2.4-1.8,4.4-4.4,4.4
		C-813.6,899.4-815.4,897.3-815.4,894.9z M-807.6,894.9L-807.6,894.9c0-2-1.4-3.6-3.4-3.6c-2,0-3.4,1.6-3.4,3.5v0
		c0,1.9,1.4,3.5,3.4,3.5S-807.6,896.9-807.6,894.9z"/>
	<path class="st10" d="M-805,894.9L-805,894.9c0-2.4,1.7-4.5,4.3-4.5c1.4,0,2.3,0.4,3.2,1.1l-0.6,0.7c-0.7-0.6-1.4-1-2.6-1
		c-1.9,0-3.3,1.6-3.3,3.5v0c0,2,1.3,3.6,3.4,3.6c1,0,1.9-0.4,2.5-0.9v-2.1h-2.6v-0.9h3.5v3.4c-0.8,0.7-2,1.3-3.4,1.3
		C-803.3,899.4-805,897.4-805,894.9z"/>
	<path class="st10" d="M-791.8,890.6h0.9l3.9,8.6h-1l-1-2.3h-4.7l-1,2.3h-1L-791.8,890.6z M-789.4,896.1l-1.9-4.4l-2,4.4H-789.4z"/>
	<path class="st10" d="M-785.3,890.6h0.9l5.4,6.9v-6.9h0.9v8.6h-0.8l-5.5-7v7h-0.9V890.6z"/>
	<path class="st10" d="M-772.6,898.5l3.1-2.7c1.3-1.2,1.8-1.8,1.8-2.7c0-1-0.8-1.6-1.7-1.6c-1,0-1.6,0.5-2.3,1.5l-0.7-0.5
		c0.8-1.2,1.6-1.8,3.1-1.8c1.5,0,2.7,1,2.7,2.4v0c0,1.3-0.7,2-2.2,3.3l-2.3,2h4.5v0.9h-6V898.5z"/>
	<path class="st10" d="M-765.1,894.9L-765.1,894.9c0-2.4,1.4-4.5,3.6-4.5c2.2,0,3.6,2,3.6,4.4v0c0,2.4-1.4,4.4-3.6,4.4
		C-763.7,899.4-765.1,897.3-765.1,894.9z M-758.8,894.9L-758.8,894.9c0-1.9-1-3.6-2.6-3.6c-1.6,0-2.6,1.6-2.6,3.5v0
		c0,1.9,1,3.6,2.6,3.6C-759.8,898.5-758.8,896.8-758.8,894.9z"/>
	<path class="st10" d="M-756.3,894.9L-756.3,894.9c0-2.4,1.4-4.5,3.6-4.5s3.6,2,3.6,4.4v0c0,2.4-1.4,4.4-3.6,4.4
		C-754.9,899.4-756.3,897.3-756.3,894.9z M-750.1,894.9L-750.1,894.9c0-1.9-1-3.6-2.6-3.6c-1.6,0-2.6,1.6-2.6,3.5v0
		c0,1.9,1,3.6,2.6,3.6S-750.1,896.8-750.1,894.9z"/>
	<path class="st10" d="M-747.3,898.3l0.6-0.7c0.7,0.6,1.3,0.9,2.1,0.9c1.5,0,2.6-1.6,2.6-3.8c-0.5,0.7-1.2,1.4-2.4,1.4
		c-1.8,0-3-1.1-3-2.7v0c0-1.6,1.3-2.9,3.1-2.9c1,0,1.7,0.3,2.3,0.9c0.6,0.6,1.1,1.6,1.1,3.3v0c0,2.7-1.4,4.6-3.6,4.6
		C-745.8,899.4-746.6,898.9-747.3,898.3z M-742.3,893.3L-742.3,893.3c0-1.1-0.9-2-2.2-2s-2.1,0.9-2.1,2v0c0,1.1,0.9,1.9,2.1,1.9
		C-743.1,895.3-742.3,894.3-742.3,893.3z"/>
</g>
</svg>
