<?xml version="1.0" encoding="utf-8"?>
<!-- Generator: Adobe Illustrator 19.0.0, SVG Export Plug-In . SVG Version: 6.00 Build 0)  -->
<svg version="1.1" id="Layer_1" xmlns="http://www.w3.org/2000/svg" xmlns:xlink="http://www.w3.org/1999/xlink" x="0px" y="0px"
	 viewBox="-1024 767.8 287.8 277.2" style="enable-background:new -1024 767.8 287.8 277.2;" xml:space="preserve">
<style type="text/css">
	.st0{fill:#3D3E3F;}
	.st1{fill:#131215;}
	.st2{fill:#686769;}
	.st3{fill:#E1E0DE;}
	.st4{fill:#4D4C4B;}
	.st5{fill:#BA252B;}
	.st6{fill:#CD0014;}
	.st7{fill:#FFFFFF;}
	.st8{fill:none;}
	.st9{enable-background:new    ;}
	.st10{fill:#FFFDFD;}
</style>
<rect x="-889.7" y="911.5" class="st0" width="24.3" height="133.5"/>
<rect x="-1014.1" y="902.4" class="st1" width="271.2" height="15.2"/>
<rect x="-998.8" y="902.3" class="st2" width="2.1" height="15.2"/>
<rect x="-977" y="902.3" class="st2" width="2.1" height="15.2"/>
<rect x="-955.1" y="902.3" class="st2" width="2.1" height="15.2"/>
<rect x="-933.3" y="902.3" class="st2" width="2.1" height="15.2"/>
<rect x="-911.4" y="902.3" class="st2" width="2.1" height="15.2"/>
<rect x="-889.6" y="902.3" class="st2" width="2.1" height="15.2"/>
<rect x="-867.7" y="902.3" class="st2" width="2.1" height="15.2"/>
<rect x="-845.9" y="902.3" class="st2" width="2.1" height="15.2"/>
<rect x="-824.1" y="902.3" class="st2" width="2.1" height="15.2"/>
<rect x="-802.2" y="902.3" class="st2" width="2.1" height="15.2"/>
<rect x="-780.4" y="902.3" class="st2" width="2.1" height="15.2"/>
<rect x="-758.5" y="902.3" class="st2" width="2.1" height="15.2"/>
<rect x="-1024" y="917.2" class="st3" width="287.8" height="3.9"/>
<rect x="-1004.4" y="913.9" class="st4" width="23.1" height="4.9"/>
<rect x="-947.4" y="913.9" class="st4" width="23.1" height="4.9"/>
<rect x="-890.3" y="913.9" class="st4" width="23.1" height="4.9"/>
<rect x="-833.3" y="913.9" class="st4" width="23.1" height="4.9"/>
<rect x="-776.3" y="913.9" class="st4" width="23.1" height="4.9"/>
<rect x="-1021.4" y="772.5" class="st5" width="285.2" height="135.9"/>
<rect x="-1021.3" y="772.7" class="st6" width="285.1" height="131.7"/>
<g>
	<g>
		<g id="KRyJ1s.tif_17_">
			<g>
				<path class="st7" d="M-921,815.8c0.3,0.1,0.6,0.2,0.8,0.4c0.6,0.4,0.9,0.9,1,1.6c0.1,0.6-0.1,1.3-0.4,1.8
					c-0.2,0.4-0.5,0.8-0.7,1.2c-0.2,0.4-0.6,0.6-1.1,0.6s-0.7-0.2-0.8-0.6c0-0.4,0-0.7,0.2-1c0.3-0.6,0.6-1,1.3-1.2
					c0.1,0,0.3-0.1,0.4-0.1c0.2,0,0.3-0.1,0.3-0.2c0.2-0.6-0.2-1.2-0.9-1.2c-0.4,0-0.7,0.1-1,0.2c-1.4,0.5-2.6,1.3-3.6,2.2
					c-3.4,3.1-6.1,6.7-8,11c-0.6,1.5-1.2,3-1.5,4.6c-0.2,1.1-0.2,2.2,0.1,3.3c0.4,1.4,1.2,2.4,2.5,3c1.1,0.5,2.2,0.6,3.3,0.6
					c1.8-0.2,3.7-0.6,5.5-1.1c2.1-0.5,4.2-1,6.3-1.5c1.9-0.5,4-0.6,6-0.6c2.3,0.1,4.4,0.8,6.4,2.2c1.1,0.7,2.1,1.6,3,2.5
					c0.2,0.2,0.3,0.4,0.5,0.6c-0.1,0-0.1-0.1-0.2-0.1c-1.8-1.2-4-1.9-6.2-1.8c-0.9,0-1.9,0.2-2.7,0.7c-0.4,0.3-0.7,0.7-1.1,1l0,0
					c-0.8-1.5-2.1-2.3-3.8-2.7c-1.1-0.3-2.3-0.3-3.5-0.3c-2,0.1-4,0.6-6,1.2c-1.8,0.5-3.7,0.8-5.5,1.2c-1.5,0.3-3,0.3-4.3-0.3
					c-2.1-0.7-3.5-2.3-4-4.5c-0.1-0.5-0.1-0.8-0.2-1.3c0-0.1,0-0.1,0-0.2c0-0.4,0-0.7,0-1.2c0-0.3,0.1-0.6,0.1-0.9
					c0.2-1.8,0.7-3.4,1.4-5c1.4-3.1,3.3-6,5.8-8.4c1.6-1.6,3.3-3,5.3-4.2c1.1-0.6,2.2-1.1,3.4-1.4c0.4-0.1,0.8-0.1,1.2-0.2
					C-921.6,815.8-921.3,815.8-921,815.8z"/>
				<path class="st7" d="M-919.7,828c0.2,0,0.3,0,0.5-0.1c0.4-0.2,0.8-0.4,1.2-0.6c0.8-0.6,1.5-1.2,2.1-1.9s1.5-1.4,2.3-1.9
					c0.7-0.5,1.5-0.7,2.4-0.7c1.1,0.1,1.9,1,1.8,2.1c-0.1,0.9-0.5,1.7-1.1,2.4c-0.2,0.3-0.5,0.5-0.7,0.6c-0.5,0.2-1-0.1-1-0.6
					c0-0.9,0.8-1.9,1.8-2c0.1,0,0.2,0,0.2-0.1c0.2-0.4,0.1-0.9-0.6-0.9c-0.5,0-0.9,0.2-1.3,0.6c-0.7,0.6-1.4,1.2-1.9,1.9
					c-1.4,1.7-2.4,3.5-3.1,5.5c-0.2,0.5-0.3,1-0.2,1.6c0.1,0.8,0.7,1.2,1.6,1c0.7-0.2,1.3-0.6,1.8-1.1c1.2-1.1,2.2-2.3,3.1-3.5
					c0.9-1.2,1.8-2.4,2.7-3.5s1.8-2.1,3-3c0.6-0.4,1.1-0.7,1.8-0.8s1.3,0.1,1.8,0.7l0.1,0.1l0.1-0.1c0.2-0.4,0.5-0.5,0.8-0.5
					c0.6,0,1.3,0,1.9,0c0.1,0,0.2,0,0.3,0c-0.1,0.1-0.1,0.3-0.2,0.4c-1.8,3.2-3.7,6.4-5.5,9.6c-0.1,0.2-0.2,0.4-0.2,0.6
					c0,0.3,0.2,0.5,0.5,0.4c0.2-0.1,0.4-0.2,0.6-0.4c0.6-0.5,1.3-1.1,1.8-1.8c0.5-0.6,0.9-1.2,1.4-1.8c0.1-0.2,0.3-0.2,0.5-0.2
					s0.4,0,0.6,0c0,0.1,0,0.1-0.1,0.1c-1.1,1.7-2.3,3.3-3.8,4.7c-0.7,0.7-1.5,1.4-2.4,1.8c-0.5,0.2-0.8,0.3-1.3,0.2s-0.8-0.6-0.9-1
					c0-0.4,0-0.6,0-1c0,0.1-0.1,0.1-0.1,0.2c-0.5,0.6-1,1-1.7,1.4c-0.5,0.3-0.9,0.5-1.4,0.6c-1,0.1-1.8-0.6-1.8-1.6
					c0-0.6,0.1-1.2,0.3-1.8c0-0.1,0-0.2,0-0.3c-0.1,0.1-0.1,0.1-0.2,0.2c-0.8,0.7-1.7,1.5-2.5,2.2c-0.7,0.6-1.6,1-2.5,1.1
					c-0.5,0.1-0.9,0.1-1.4-0.1c-1-0.4-1.4-1.1-1.6-2c-0.3-1.3,0.1-2.5,0.6-3.6c0.3-0.6,0.6-1.3,1-2c0-0.1,0.1-0.1,0.1-0.3
					c-0.4,0.1-0.6,0.2-1,0.3c-0.3,0-0.5,0.2-0.6,0.5c-0.6,1-1.3,2.1-2,3.1c-1,1.3-2.1,2.6-3.6,3.5c-0.6,0.4-1.2,0.6-1.9,0.7
					c-0.7,0.1-1.5-0.4-1.8-1s-0.3-1.2-0.3-1.8c0.2-1.8,0.9-3.5,1.9-5.1c1.2-1.8,2.6-3.5,4.4-4.8c0.7-0.6,1.6-1,2.5-1.1
					c1.4-0.3,2.3,0.5,2.3,1.9c0,0.7-0.2,1.5-0.5,2.2C-919.4,827.2-919.5,827.6-919.7,828z M-909.2,833.4c0,0.2,0.1,0.4,0.3,0.6
					c0.2,0.1,0.4,0.1,0.6,0c0.5-0.3,0.9-0.6,1.2-1c0.5-0.6,0.9-1.2,1.3-1.8c1.3-2.1,2.5-4.3,3.8-6.5c0.1-0.3,0.1-0.5-0.2-0.6
					c-0.2-0.1-0.5,0-0.6,0.1c-0.5,0.2-0.8,0.5-1.1,0.8c-0.9,1.1-1.8,2.2-2.6,3.3c-0.9,1.3-1.7,2.6-2.2,4.1
					C-909,832.7-909.1,833.1-909.2,833.4z M-923.7,827c-0.1,0.1-0.1,0.1-0.1,0.2c-0.5,0.6-0.8,1.3-1.3,1.9c-0.6,0.9-1.1,1.9-1.3,3
					c-0.1,0.3-0.1,0.6-0.1,1c0.1,0.6,0.5,0.9,1.1,0.7c0.2,0,0.3-0.1,0.5-0.2c0.6-0.4,1-0.7,1.4-1.2c0.9-1,1.6-2.1,2.3-3.3
					c0.1-0.1,0.1-0.2,0.1-0.3C-922.2,828.5-923.2,828.1-923.7,827z M-919.7,825.2c0-0.1,0-0.2,0-0.3c-0.1-0.7-0.5-1-1.3-0.8
					c-0.1,0-0.3,0.1-0.4,0.2c-0.6,0.4-1,0.8-1.2,1.5c-0.2,0.6-0.2,1,0.2,1.5c0.4,0.6,0.9,0.7,1.6,0.8c0.1,0,0.2,0,0.3-0.2
					c0.2-0.4,0.3-0.7,0.5-1C-919.9,826.3-919.7,825.8-919.7,825.2z"/>
			</g>
		</g>
		<g id="KRyJ1s.tif_16_">
			<g>
				<path class="st7" d="M-862.2,821.2c0.2-0.4,0.4-0.7,0.6-1.1c0.2-0.4,0.4-0.8,0.4-1.2c0-0.3-0.1-0.5-0.5-0.3
					c-0.3,0.1-0.6,0.3-0.8,0.5c-1.1,0.8-2,1.8-3,2.8c-1.8,2.1-3.5,4.4-5,6.9c-0.9,1.5-1.8,3-2.6,4.6c-0.1,0.2-0.2,0.3-0.2,0.5
					c0.1-0.1,0.2-0.1,0.3-0.2c0.6-0.5,1.2-0.9,1.7-1.4c2.4-2.1,4.6-4.5,6.6-7c0.2-0.3,0.4-0.5,0.7-0.4c0.2,0,0.3,0,0.5-0.1
					c-0.1,0.2-0.2,0.3-0.3,0.5c-1.3,1.8-2.7,3.4-4.2,5c-1.8,1.9-3.8,3.7-6,5.3c-0.1,0-0.1,0.1-0.2,0.2c-0.6,1.5-1.3,3-1.6,4.5
					c-0.1,0.3-0.1,0.6,0,0.9c0.1,0.5,0.6,0.6,0.9,0.4c0.4-0.3,0.8-0.6,1.1-1c0.6-0.7,1.1-1.6,1.7-2.4c0.9-1.4,1.8-2.8,2.9-4.1
					c1-1.2,2-2.2,3.4-3c0.6-0.4,1.2-0.5,1.8-0.4c0.5,0.1,0.6,0.4,0.9,0.7c0.1,0.1,0.1,0.2,0.2,0.3c0.1-0.2,0.2-0.4,0.4-0.6
					c0-0.1,0.1-0.1,0.2-0.1c0.8,0,1.7,0,2.5,0c0,0,0,0,0.1,0c0,0.1-0.1,0.2-0.1,0.2c-1.3,2.2-2.5,4.4-3.8,6.6
					c-0.5,0.8-1,1.7-1.5,2.6c-0.1,0.2-0.2,0.5-0.3,0.7s-0.1,0.4,0.1,0.5c0.2,0.1,0.4,0.1,0.5,0c0.7-0.5,1.3-1,1.8-1.7
					c0.6-0.8,1.2-1.7,1.8-2.5c0.1-0.1,0.2-0.2,0.3-0.2c0.2,0,0.5,0,0.6,0c-0.1,0.2-0.2,0.3-0.3,0.5c-1,1.6-2.1,3.1-3.5,4.5
					c-0.7,0.7-1.7,1.4-2.6,1.8c-0.3,0.1-0.6,0.2-0.8,0.2c-0.6,0-0.9-0.3-1-0.8c-0.1-0.4-0.1-0.7-0.1-1.1c0-0.1,0-0.2,0-0.2
					s0,0-0.1,0c-0.2,0.2-0.3,0.3-0.5,0.5c-0.6,0.6-1.2,1.1-2,1.5c-0.4,0.2-0.7,0.3-1.2,0.2c-0.7-0.1-1.2-0.6-1.3-1.4
					c0-0.3,0-0.6,0-0.9c0-0.1,0-0.2,0-0.4c-0.1,0.1-0.2,0.2-0.2,0.2c-0.6,0.7-1.2,1.4-1.9,1.8c-0.3,0.2-0.6,0.4-1,0.6
					c-0.8,0.3-1.5,0-1.9-0.7c-0.3-0.5-0.3-0.9-0.3-1.4c0-1.1,0.4-2.1,0.6-3.1c0.2-0.6,0.4-1.2,0.6-1.8c-0.1,0-0.2,0-0.3,0.1
					c-0.4,0-0.6,0.1-1,0.1c-0.2,0-0.3,0.1-0.3,0.2c-0.6,1-1.3,2-1.9,3c-0.9,1.3-2.1,2.5-3.5,3.3c-0.5,0.3-0.9,0.5-1.5,0.6
					c-1,0.1-1.6-0.6-1.8-1.3s-0.1-1.5,0.1-2.2c0.4-1.6,1-3,1.9-4.3c0.9-1.5,2-2.9,3.3-4c0.8-0.6,1.7-1.3,2.7-1.6
					c0.4-0.1,0.7-0.2,1.2-0.1c0.7,0.1,1.1,0.6,1.3,1.2c0.2,0.8,0.1,1.6-0.2,2.4c-0.2,0.6-0.5,1.2-0.7,1.8c0,0.1-0.1,0.1-0.1,0.3
					c0.6,0,1-0.1,1.4-0.3c0.1,0,0.1-0.1,0.1-0.2c1.3-2.8,2.9-5.4,4.5-8c2.1-3.1,4.6-6,7.5-8.4c0.7-0.6,1.5-1.1,2.3-1.5
					c0.4-0.2,0.8-0.3,1.3-0.3c0.6,0,0.8,0.4,0.9,0.9c0.1,0.7-0.1,1.4-0.5,2c-0.4,0.7-0.4,0.7-1.1,0.8
					C-862.1,821.2-862.1,821.2-862.2,821.2z M-870.2,841c0,0.3,0.3,0.5,0.7,0.4c0.2-0.1,0.4-0.2,0.6-0.3c0.6-0.4,0.9-0.9,1.3-1.5
					c1-1.4,1.8-3,2.7-4.4c0.5-0.9,1-1.8,1.6-2.6c0.1-0.2,0.2-0.4,0-0.6s-0.4-0.2-0.6-0.2c-0.3,0.1-0.5,0.2-0.7,0.4
					c-0.3,0.2-0.6,0.5-0.8,0.7c-1.8,1.8-3.1,4-4.2,6.3C-870,839.7-870.2,840.3-870.2,841z M-882.2,834.7c-0.4,0.6-0.7,1.1-1.1,1.7
					c-0.6,1-1.2,2-1.5,3.1c-0.1,0.4-0.2,0.8-0.1,1.2c0.1,0.6,0.5,0.8,1,0.6c0.5-0.1,0.8-0.4,1.2-0.7c1.1-1,1.9-2.3,2.7-3.6
					c0-0.1,0.1-0.2,0.1-0.3C-880.9,836.3-881.6,835.7-882.2,834.7z M-878.4,832.8c0-0.1,0-0.3,0-0.4c-0.1-0.6-0.4-0.8-0.7-0.7
					c-0.2,0-0.4,0-0.6,0.1c-0.5,0.3-0.9,0.6-1.2,1c-0.8,1.2-0.1,2.7,1.3,3.1c0.1,0,0.2,0,0.2-0.1c0.1-0.2,0.3-0.5,0.4-0.7
					C-878.7,834.3-878.4,833.6-878.4,832.8z"/>
				<path class="st7" d="M-867.7,820.9c-0.6,0.7-1.3,1.4-1.9,2c0,0-0.2,0.1-0.2,0c-0.4-0.2-0.8-0.5-1.2-0.7
					c-1.2-0.7-2.4-1.6-3.7-2.3c-0.9-0.6-2-1-3.1-1.1c-0.4-0.1-0.7-0.1-1,0.1c-0.1,0-0.2,0.1-0.2,0.2c0.1,1.3-0.2,2.5-0.7,3.7
					c-0.6,1.7-1.7,3-3,4.2c-0.6,0.5-1.2,0.8-1.8,1.1c-1,0.3-1.8-0.2-1.8-1.2c-0.1-0.6,0.1-1.3,0.3-1.8c0.8-2,2-3.7,3.7-5.1
					c0.6-0.5,1.2-0.9,1.8-1.3c0,0,0.1-0.1,0.2-0.1c-0.4-0.2-0.7-0.2-1.1-0.1c-0.6,0.1-1,0.4-1.5,0.6c-1.8,1-3.3,2.2-4.8,3.8
					c-2.6,2.8-4.8,5.7-6.6,9c-1,1.8-1.8,3.7-2.1,5.8c-0.2,0.8-0.3,1.7-0.1,2.5c0.3,0.9,0.7,1.6,1.7,1.8c0.6,0.2,1.1,0,1.7-0.2
					c0.9-0.4,1.8-1,2.4-1.8c1.4-1.5,2.5-3,3.1-5c0.3-0.7,0.4-1.5,0.4-2.2c-0.1-0.7-0.5-1-1.2-0.7c-0.6,0.2-0.8,0.6-1.2,1
					c-0.7,0.9-1.2,1.9-1.4,3.1c0,0.1-0.1,0.2-0.2,0.2c-1.2,0.6-2.3,1.5-3.2,2.5l-0.1,0.1c0.3-2.3,0.9-4.3,2.4-6.2
					c0.8-1,1.9-1.8,3.3-2.1c0.4-0.1,0.7-0.2,1-0.1c0.6,0.2,0.9,0.6,1.1,1.1c0.3,0.7,0.2,1.5,0.1,2.2c-0.3,1.8-1.1,3.3-2.1,4.8
					c-1.2,1.8-2.8,3.4-4.7,4.5c-0.8,0.5-1.8,0.7-2.7,0.8c-1.6,0.1-2.7-0.6-3.4-1.9c-0.6-1.1-0.8-2.3-0.7-3.6
					c0.1-1.9,0.8-3.8,1.7-5.5c2.3-4.8,5.4-9,9.6-12.3c1.8-1.5,3.8-2.6,5.9-3.2c0.8-0.2,1.6-0.3,2.4-0.1c0.4,0.1,0.6,0.3,0.9,0.6
					c0.1,0.1,0.2,0.1,0.3,0.1c0.6-0.2,1.3-0.5,1.9-0.6c1.7-0.4,3.2-0.1,4.7,0.6C-871,818.9-869.3,819.9-867.7,820.9L-867.7,820.9z
					 M-879.8,819.2c-0.2,0.1-0.4,0.2-0.6,0.3c-2.1,1.3-3.6,3-4.8,5.3c-0.3,0.5-0.5,1-0.6,1.6c-0.1,0.7,0.5,1.1,1.1,0.8
					c0.3-0.1,0.6-0.3,0.7-0.5c2.3-1.8,3.6-4.1,4-6.9C-879.8,819.6-879.8,819.4-879.8,819.2z"/>
				<path class="st7" d="M-854.8,817.4c-0.4,0.7-0.8,1.5-1.4,2.1c-1.7,2.1-3.8,3.7-6.4,4.5c-1.3,0.5-2.7,0.6-4.1,0.3h-0.1
					c-0.1,0-0.1,0-0.2-0.1c0-0.1,0.1-0.1,0.1-0.2c0.6-0.6,1.1-1.4,1.7-2c0.1-0.1,0.2-0.1,0.3-0.1c1.6,0.1,3-0.1,4.5-0.7
					C-858.3,820.3-856.4,819-854.8,817.4L-854.8,817.4z"/>
			</g>
		</g>
		<path class="st7" d="M-893.8,823c-0.3,0.3-0.5,0.6-0.7,0.9c-0.3,0.3-0.5,0.6-0.8,0.9c-0.1,0.1-0.2,0.1-0.2,0.1c-0.9,0-1.8,0-2.6,0
			c0,0,0,0-0.1,0c0,0,0-0.1,0.1-0.1c0.5-0.6,0.9-1.2,1.4-1.8c0.1-0.1,0.1-0.1,0.2-0.1C-895.6,823-894.7,823-893.8,823z"/>
	</g>
</g>
<path class="st7" d="M-785.2,877c-30.4,5.6-60.8,10.3-92.1,10.8c-25.3,0.5-50.2-1.6-74.8-6.9c-24.5-5.3-46.9-14.2-68.2-25.2
	c-0.4-0.2-0.4-0.4-0.9-0.6l-0.3,27.9c1.1,0.3,2.4,0.6,3.4,1c26.2,9,53.6,12.6,81.8,12.1c18.4-0.3,36.6-2,54.7-4.1
	c29.8-3.5,59.5-8.2,89.6-10c14.2-0.8,28.5-0.9,42.6,1.1c4.2,0.6,8.5,1.3,12.5,2c0.1-4.3,0.1-8.6,0.2-12.9
	C-753.3,871.6-769.2,874-785.2,877z"/>
<g>
	<path class="st7" d="M-1010.4,827.3h11.8v3.8h-7.2v1.4h6.7v3.3h-6.7v1.5h7.3v3.8h-11.9L-1010.4,827.3L-1010.4,827.3z"/>
	<path class="st7" d="M-997.3,826.7h4.5v14.4h-4.5V826.7z"/>
	<path class="st7" d="M-986.4,826.7h4.5v14.4h-4.5V826.7z"/>
	<path class="st7" d="M-981,838L-981,838c0-2.2,1.6-3.4,4.1-3.4c0.9,0,2.1,0.2,2.5,0.4v-0.2c0-1-0.6-1.6-2-1.6c-1.1,0-2,0.2-3,0.6
		l-0.8-3c1.2-0.5,2.7-0.8,4.5-0.8c2.2,0,3.6,0.5,4.6,1.4c0.8,0.8,1.1,1.9,1.1,3.4v6.1h-4.5V840c-0.7,0.8-1.8,1.3-3.1,1.3
		C-979.5,841.3-981,840.1-981,838z M-974.3,837.1v-0.5c-0.3-0.1-0.7-0.2-1-0.2c-0.9,0-1.4,0.5-1.4,1.2l0,0c0,0.6,0.5,1,1,1
		C-974.9,838.7-974.3,838.1-974.3,837.1z"/>
	<path class="st7" d="M-969,835.8L-969,835.8c0-3.4,2-5.7,4.6-5.7c1.6,0,2.5,0.7,3.2,1.5v-4.8h4.5v14.4h-4.5v-1.3
		c-0.7,0.8-1.6,1.6-3.2,1.6C-966.9,841.3-969,839.1-969,835.8z M-961,835.7L-961,835.7c0-1.1-0.8-2-1.8-2s-1.8,0.8-1.8,1.9l0,0
		c0,1.1,0.8,1.9,1.8,1.9C-961.8,837.6-961,836.8-961,835.7z"/>
	<path class="st7" d="M-955.6,835.7L-955.6,835.7c0-3.1,2.5-5.7,6.1-5.7c3.5,0,6,2.6,6,5.6l0,0c0,3-2.5,5.6-6.1,5.6
		C-953.1,841.3-955.6,838.8-955.6,835.7z M-947.8,835.7L-947.8,835.7c0-1.1-0.8-2-1.8-2s-1.7,0.8-1.7,1.9l0,0c0,1.1,0.8,1.9,1.8,1.9
		C-948.6,837.6-947.8,836.7-947.8,835.7z"/>
</g>
<g>
	<path class="st7" d="M-852.4,835.8L-852.4,835.8c0-3.7,2.2-6.2,4.9-6.2c1.8,0,2.7,0.8,3.5,1.6V826h4.8v15.5h-4.8V840
		c-0.8,0.8-1.7,1.7-3.4,1.7C-850.3,841.7-852.4,839.3-852.4,835.8z M-843.9,835.7L-843.9,835.7c0-1.2-0.8-2.1-1.9-2.1
		s-1.9,0.9-1.9,2.1l0,0c0,1.2,0.8,2.1,1.9,2.1S-843.9,836.9-843.9,835.7z"/>
	<path class="st7" d="M-838.1,835.7L-838.1,835.7c0-3.5,2.5-6.1,6-6.1c4.1,0,6,2.9,6,6.4c0,0.3,0,0.6,0,0.8h-7.5
		c0.3,1,1.1,1.5,2.2,1.5c0.9,0,1.6-0.4,2.4-1.2l2.6,2.1c-1.1,1.5-2.8,2.5-5.3,2.5C-835.5,841.7-838.1,839.3-838.1,835.7z
		 M-830.5,834.7c-0.1-1.1-0.8-1.7-1.6-1.7c-0.8,0-1.4,0.7-1.5,1.7H-830.5z"/>
	<path class="st7" d="M-819.6,826h4.8v15.5h-4.8V826z"/>
	<path class="st7" d="M-813.7,838.2L-813.7,838.2c0-2.4,1.7-3.7,4.4-3.7c1,0,2.2,0.2,2.7,0.4v-0.2c0-1.1-0.7-1.7-2.1-1.7
		c-1.2,0-2.2,0.3-3.2,0.7l-0.8-3.2c1.3-0.5,2.9-0.8,4.9-0.8c2.4,0,3.9,0.5,4.9,1.5c0.9,0.9,1.2,2,1.2,3.7v6.6h-4.8v-1.2
		c-0.8,0.9-1.9,1.4-3.3,1.4C-812.2,841.7-813.7,840.5-813.7,838.2z M-806.6,837.2v-0.5c-0.3-0.1-0.7-0.2-1.1-0.2
		c-1,0-1.5,0.6-1.5,1.3l0,0c0,0.7,0.5,1.1,1.1,1.1C-807.2,839-806.6,838.3-806.6,837.2z"/>
	<path class="st7" d="M-795.8,829.9h5.1l1.9,5.8l1.9-5.8h5l-4.7,11.7h-4.4L-795.8,829.9z"/>
	<path class="st7" d="M-781.3,826h5v3.1h-5V826z M-781.2,829.9h4.8v11.6h-4.8V829.9z"/>
	<path class="st7" d="M-775.2,835.8L-775.2,835.8c0-3.7,2.2-6.2,4.9-6.2c1.8,0,2.7,0.8,3.5,1.6V826h4.8v15.5h-4.8V840
		c-0.8,0.8-1.7,1.7-3.4,1.7C-773,841.7-775.2,839.3-775.2,835.8z M-766.7,835.7L-766.7,835.7c0-1.2-0.8-2.1-1.9-2.1
		c-1.1,0-1.9,0.9-1.9,2.1l0,0c0,1.2,0.8,2.1,1.9,2.1C-767.5,837.8-766.7,836.9-766.7,835.7z"/>
	<path class="st7" d="M-761,838.2L-761,838.2c0-2.4,1.7-3.7,4.4-3.7c1,0,2.2,0.2,2.7,0.4v-0.2c0-1.1-0.7-1.7-2.1-1.7
		c-1.2,0-2.2,0.3-3.2,0.7l-0.8-3.2c1.3-0.5,2.9-0.8,4.9-0.8c2.4,0,3.9,0.5,4.9,1.5c0.9,0.9,1.2,2,1.2,3.7v6.6h-4.8v-1.2
		c-0.8,0.9-1.9,1.4-3.3,1.4C-759.4,841.7-761,840.5-761,838.2z M-753.8,837.2v-0.5c-0.3-0.1-0.7-0.2-1.1-0.2c-1,0-1.5,0.6-1.5,1.3
		l0,0c0,0.7,0.5,1.1,1.1,1.1C-754.4,839-753.8,838.3-753.8,837.2z"/>
</g>
<rect x="-830.5" y="896.1" class="st8" width="94.3" height="12.4"/>
<g class="st9">
	<path class="st10" d="M-824.8,900.5l0.6-0.7c0.8,0.8,1.7,1.1,2.8,1.1c1.1,0,1.8-0.6,1.8-1.4v0c0-0.8-0.4-1.2-2.1-1.5
		c-1.9-0.4-2.7-1-2.7-2.3v0c0-1.3,1.1-2.2,2.7-2.2c1.2,0,2,0.3,2.9,1l-0.5,0.7c-0.8-0.6-1.5-0.9-2.3-0.9c-1.1,0-1.7,0.6-1.7,1.3v0
		c0,0.8,0.4,1.2,2.2,1.6c1.8,0.4,2.6,1.1,2.6,2.3v0c0,1.4-1.2,2.3-2.8,2.3C-822.8,901.8-823.8,901.4-824.8,900.5z"/>
	<path class="st10" d="M-816.8,893.6h0.9v7.3h4.6v0.8h-5.5V893.6z"/>
	<path class="st10" d="M-810.5,897.6L-810.5,897.6c0-2.3,1.7-4.2,4.2-4.2c2.5,0,4.1,1.9,4.1,4.2c0,0,0,0,0,0c0,2.2-1.7,4.2-4.2,4.2
		C-808.8,901.8-810.5,899.9-810.5,897.6z M-803.2,897.6L-803.2,897.6c0-1.9-1.3-3.4-3.2-3.4s-3.2,1.5-3.2,3.3v0
		c0,1.8,1.3,3.4,3.2,3.4S-803.2,899.5-803.2,897.6z"/>
	<path class="st10" d="M-800.6,897.6L-800.6,897.6c0-2.3,1.6-4.2,4.1-4.2c1.4,0,2.2,0.4,3,1.1l-0.6,0.7c-0.6-0.5-1.3-0.9-2.5-0.9
		c-1.8,0-3.1,1.5-3.1,3.3v0c0,1.9,1.2,3.4,3.2,3.4c0.9,0,1.8-0.4,2.3-0.8v-2h-2.5v-0.8h3.4v3.2c-0.8,0.7-1.9,1.2-3.3,1.2
		C-799.1,901.8-800.6,900-800.6,897.6z"/>
	<path class="st10" d="M-788.2,893.5h0.9l3.7,8.2h-1l-1-2.1h-4.4l-1,2.1h-0.9L-788.2,893.5z M-785.9,898.7l-1.8-4.1l-1.9,4.1H-785.9
		z"/>
	<path class="st10" d="M-782,893.6h0.9l5.1,6.5v-6.5h0.9v8.1h-0.7l-5.2-6.7v6.7h-0.9V893.6z"/>
	<path class="st10" d="M-768.4,894.5l-1.5,0.5l-0.2-0.7l2-0.7h0.7v8.2h-0.9V894.5z"/>
	<path class="st10" d="M-765.5,900.8l0.5-0.7c0.7,0.6,1.3,0.9,2,0.9c1.5,0,2.4-1.5,2.4-3.6c-0.4,0.7-1.2,1.3-2.3,1.3
		c-1.7,0-2.8-1.1-2.8-2.5v0c0-1.5,1.2-2.8,2.9-2.8c0.9,0,1.6,0.3,2.1,0.8c0.6,0.6,1,1.5,1,3.1v0c0,2.6-1.4,4.4-3.4,4.4
		C-764,901.8-764.8,901.4-765.5,900.8z M-760.7,896.1L-760.7,896.1c0-1.1-0.8-1.9-2.1-1.9c-1.2,0-1.9,0.9-1.9,1.9v0
		c0,1,0.8,1.8,2,1.8C-761.5,897.9-760.7,897-760.7,896.1z"/>
	<path class="st10" d="M-758.3,899.5L-758.3,899.5c0-1,0.7-1.7,1.7-2c-0.8-0.3-1.4-0.9-1.4-1.9v0c0-1.3,1.3-2.1,2.8-2.1
		s2.8,0.9,2.8,2.1v0c0,0.9-0.6,1.5-1.4,1.9c1,0.4,1.7,1,1.7,2v0c0,1.4-1.3,2.3-3.1,2.3S-758.3,900.9-758.3,899.5z M-753.1,899.5
		L-753.1,899.5c0-0.9-0.9-1.6-2.1-1.6c-1.2,0-2.1,0.6-2.1,1.5v0c0,0.8,0.8,1.5,2.1,1.5C-753.9,901-753.1,900.3-753.1,899.5z
		 M-753.4,895.7L-753.4,895.7c0-0.8-0.8-1.4-1.9-1.4s-1.9,0.6-1.9,1.4v0c0,0.9,0.8,1.5,1.9,1.5S-753.4,896.6-753.4,895.7z"/>
	<path class="st10" d="M-751,901l2.9-2.6c1.2-1.1,1.7-1.7,1.7-2.6c0-1-0.8-1.6-1.6-1.6c-0.9,0-1.5,0.5-2.2,1.4l-0.7-0.5
		c0.7-1.1,1.5-1.7,2.9-1.7c1.5,0,2.5,1,2.5,2.3v0c0,1.2-0.6,1.9-2.1,3.2l-2.2,1.9h4.3v0.8h-5.7V901z"/>
</g>
</svg>
