<?xml version="1.0" encoding="utf-8"?>
<!-- Generator: Adobe Illustrator 18.1.1, SVG Export Plug-In . SVG Version: 6.00 Build 0)  -->
<svg version="1.1" id="Layer_1" xmlns="http://www.w3.org/2000/svg" xmlns:xlink="http://www.w3.org/1999/xlink" x="0px" y="0px"
	 viewBox="0 0 271 140.4" enable-background="new 0 0 271 140.4" xml:space="preserve">
<path fill="#4298D9" d="M252.4,7.6c0,0-9-12.4-29-5.6s-13.8,27.4-13.8,27.4S181.9,31,159.3,3.8c0,0-10.8,22,6.9,32.5
	c0,0-5.9-0.3-10.3-2.9c0,0-2.6,18.2,18.1,24.8c0,0-8.2,1.2-10.4-0.1c0,0,3.1,15.6,22.8,17.9c0,0-16.5,12-35.4,10.4
	c0,0,32.5,23.4,73.2,2s34.4-64.5,34.4-64.5s7.8-5.4,12.2-11.6c0,0-11.3,3-13.9,2.9c0,0,10-6,10.5-13.1
	C267.6,2.1,256.1,7.5,252.4,7.6z"/>
<path fill="#4298D9" d="M113.4,14.1c0,0-7.8-7.1-20.3,0.2s-5.6,20.4-5.6,20.4S68.9,39.5,50,24.2c0,0-4.3,16.3,9.1,21
	c0,0-4,0.6-7.3-0.5c0,0,0.7,12.6,15.6,14.3c0,0-5.4,2-7,1.4c0,0,4.2,10.1,17.9,9c0,0-9.5,10.4-22.5,11.8c0,0,25.2,11.4,49.7-8.6
	s14.5-48.2,14.5-48.2s4.6-4.7,6.7-9.5c0,0-7.2,3.5-9,3.9c0,0,5.9-5.4,5.3-10.3C122.9,8.3,115.8,13.5,113.4,14.1z"/>
<path fill="#4298D9" d="M127.4,114.9c0,0-1-6.6-10-7.9c-9-1.4-10.8,7.8-10.8,7.8s-11-4.9-14.2-19.9c0,0-8.5,6.3-3.8,13.9
	c0,0-2.2-1.3-3.4-3.2c0,0-4.6,6.5,2,13.2c0,0-3.4-1.2-4-2.1c0,0-1.9,6.6,5.2,11.5c0,0-8.8,1.3-15.7-3.1c0,0,7.8,15.5,27.8,15.4
	c19.9-0.1,26.1-17.9,26.1-17.9s4.1-0.5,7-2c0,0-4.9-1.1-5.9-1.6c0,0,5-0.3,6.7-3C134.4,115.8,128.9,115.6,127.4,114.9z"/>
<path fill="#4298D9" d="M44.7,110.7c0,0-2.2-5.4-10.2-4.7c-8,0.7-7.6,8.9-7.6,8.9s-10.4-1.9-16.3-14.1c0,0-6,7.2-0.4,12.7
	c0,0-2.1-0.6-3.5-2c0,0-2.6,6.5,4.5,10.8c0,0-3.2-0.3-3.8-1c0,0-0.3,6.1,6.8,8.7c0,0-7.2,2.9-14.1,0.6c0,0,9.9,11.6,26.9,7.4
	s18.6-20.8,18.6-20.8s3.4-1.3,5.6-3.2c0,0-4.4,0.1-5.4-0.2c0,0,4.3-1.3,5.1-3.9C50.8,110,46.1,110.9,44.7,110.7z"/>
</svg>
